<?xml version="1.0" encoding="UTF-8" standalone="no"?>
<!DOCTYPE svg PUBLIC "-//W3C//DTD SVG 1.1//EN"
 "http://www.w3.org/Graphics/SVG/1.1/DTD/svg11.dtd">
<!-- Generated by graphviz version 14.1.4 (0)
 -->
<!-- Title: /opt/unreal&#45;engine/Engine/Source/Runtime/Engine/Classes/Animation/AnimNotifies/AnimNotify.h Pages: 1 -->
<svg width="1505pt" height="365pt"
 viewBox="0.00 0.00 1505.00 365.00" xmlns="http://www.w3.org/2000/svg" xmlns:xlink="http://www.w3.org/1999/xlink">
<g id="graph0" class="graph" transform="scale(1 1) rotate(0) translate(4 360.75)">
<title>/opt/unreal&#45;engine/Engine/Source/Runtime/Engine/Classes/Animation/AnimNotifies/AnimNotify.h</title>
<!-- Node1 -->
<g id="Node000001" class="node">
<title>Node1</title>
<g id="a_Node000001"><a xlink:title=" ">
<polygon fill="#999999" stroke="#666666" points="986.25,-356.75 837.5,-356.75 837.5,-297.75 986.25,-297.75 986.25,-356.75"/>
<text xml:space="preserve" text-anchor="start" x="845.5" y="-343.25" font-family="Helvetica,sans-Serif" font-size="10.00">/opt/unreal&#45;engine</text>
<text xml:space="preserve" text-anchor="start" x="845.5" y="-330.5" font-family="Helvetica,sans-Serif" font-size="10.00">/Engine/Source/Runtime</text>
<text xml:space="preserve" text-anchor="start" x="845.5" y="-317.75" font-family="Helvetica,sans-Serif" font-size="10.00">/Engine/Classes/Animation</text>
<text xml:space="preserve" text-anchor="middle" x="911.88" y="-305" font-family="Helvetica,sans-Serif" font-size="10.00">/AnimNotifies/AnimNotify.h</text>
</a>
</g>
</g>
<!-- Node2 -->
<g id="Node000002" class="node">
<title>Node2</title>
<g id="a_Node000002"><a xlink:href="$AnimInstance_8h.html" xlink:title=" ">
<polygon fill="white" stroke="#666666" points="486.75,-255.38 341,-255.38 341,-196.38 486.75,-196.38 486.75,-255.38"/>
<text xml:space="preserve" text-anchor="start" x="349" y="-241.88" font-family="Helvetica,sans-Serif" font-size="10.00">/opt/unreal&#45;engine</text>
<text xml:space="preserve" text-anchor="start" x="349" y="-229.12" font-family="Helvetica,sans-Serif" font-size="10.00">/Engine/Source/Runtime</text>
<text xml:space="preserve" text-anchor="start" x="349" y="-216.38" font-family="Helvetica,sans-Serif" font-size="10.00">/Engine/Classes/Animation</text>
<text xml:space="preserve" text-anchor="middle" x="413.88" y="-203.62" font-family="Helvetica,sans-Serif" font-size="10.00">/AnimInstance.h</text>
</a>
</g>
</g>
<!-- Node1&#45;&gt;Node2 -->
<g id="edge1_Node000001_Node000002" class="edge">
<title>Node1&#45;&gt;Node2</title>
<g id="a_edge1_Node000001_Node000002"><a xlink:title=" ">
<path fill="none" stroke="#63b8ff" d="M825.62,-319.17C740.54,-310.73 607.41,-293.58 495.88,-261.75 489.92,-260.05 483.83,-258.03 477.79,-255.84"/>
<polygon fill="#63b8ff" stroke="#63b8ff" points="825.24,-322.65 835.53,-320.14 825.92,-315.69 825.24,-322.65"/>
</a>
</g>
</g>
<!-- Node9 -->
<g id="Node000009" class="node">
<title>Node9</title>
<g id="a_Node000009"><a xlink:href="$AnimNotify__PauseClothingSimulation_8h.html" xlink:title=" ">
<polygon fill="white" stroke="#666666" points="657.12,-261.75 504.62,-261.75 504.62,-190 657.12,-190 657.12,-261.75"/>
<text xml:space="preserve" text-anchor="start" x="512.62" y="-248.25" font-family="Helvetica,sans-Serif" font-size="10.00">/opt/unreal&#45;engine</text>
<text xml:space="preserve" text-anchor="start" x="512.62" y="-235.5" font-family="Helvetica,sans-Serif" font-size="10.00">/Engine/Source/Runtime</text>
<text xml:space="preserve" text-anchor="start" x="512.62" y="-222.75" font-family="Helvetica,sans-Serif" font-size="10.00">/Engine/Classes/Animation</text>
<text xml:space="preserve" text-anchor="start" x="512.62" y="-210" font-family="Helvetica,sans-Serif" font-size="10.00">/AnimNotifies/AnimNotify</text>
<text xml:space="preserve" text-anchor="middle" x="580.88" y="-197.25" font-family="Helvetica,sans-Serif" font-size="10.00">_PauseClothingSimulation.h</text>
</a>
</g>
</g>
<!-- Node1&#45;&gt;Node9 -->
<g id="edge9_Node000001_Node000009" class="edge">
<title>Node1&#45;&gt;Node9</title>
<g id="a_edge9_Node000001_Node000009"><a xlink:title=" ">
<path fill="none" stroke="#63b8ff" d="M826.21,-306.76C778.55,-295.17 718.41,-279.33 665.88,-261.75 663.15,-260.84 660.39,-259.88 657.61,-258.89"/>
<polygon fill="#63b8ff" stroke="#63b8ff" points="825.1,-310.09 835.64,-309.03 826.74,-303.28 825.1,-310.09"/>
</a>
</g>
</g>
<!-- Node10 -->
<g id="Node000010" class="node">
<title>Node10</title>
<g id="a_Node000010"><a xlink:href="$AnimNotify__PlayParticleEffect_8h.html" xlink:title=" ">
<polygon fill="white" stroke="#666666" points="820.75,-261.75 675,-261.75 675,-190 820.75,-190 820.75,-261.75"/>
<text xml:space="preserve" text-anchor="start" x="683" y="-248.25" font-family="Helvetica,sans-Serif" font-size="10.00">/opt/unreal&#45;engine</text>
<text xml:space="preserve" text-anchor="start" x="683" y="-235.5" font-family="Helvetica,sans-Serif" font-size="10.00">/Engine/Source/Runtime</text>
<text xml:space="preserve" text-anchor="start" x="683" y="-222.75" font-family="Helvetica,sans-Serif" font-size="10.00">/Engine/Classes/Animation</text>
<text xml:space="preserve" text-anchor="start" x="683" y="-210" font-family="Helvetica,sans-Serif" font-size="10.00">/AnimNotifies/AnimNotify</text>
<text xml:space="preserve" text-anchor="middle" x="747.88" y="-197.25" font-family="Helvetica,sans-Serif" font-size="10.00">_PlayParticleEffect.h</text>
</a>
</g>
</g>
<!-- Node1&#45;&gt;Node10 -->
<g id="edge10_Node000001_Node000010" class="edge">
<title>Node1&#45;&gt;Node10</title>
<g id="a_edge10_Node000001_Node000010"><a xlink:title=" ">
<path fill="none" stroke="#63b8ff" d="M854.8,-291.67C839,-282.09 821.83,-271.69 805.97,-262.08"/>
<polygon fill="#63b8ff" stroke="#63b8ff" points="852.78,-294.53 863.14,-296.72 856.41,-288.55 852.78,-294.53"/>
</a>
</g>
</g>
<!-- Node11 -->
<g id="Node000011" class="node">
<title>Node11</title>
<g id="a_Node000011"><a xlink:href="$AnimNotify__PlaySound_8h.html" xlink:title=" ">
<polygon fill="white" stroke="#666666" points="984.75,-261.75 839,-261.75 839,-190 984.75,-190 984.75,-261.75"/>
<text xml:space="preserve" text-anchor="start" x="847" y="-248.25" font-family="Helvetica,sans-Serif" font-size="10.00">/opt/unreal&#45;engine</text>
<text xml:space="preserve" text-anchor="start" x="847" y="-235.5" font-family="Helvetica,sans-Serif" font-size="10.00">/Engine/Source/Runtime</text>
<text xml:space="preserve" text-anchor="start" x="847" y="-222.75" font-family="Helvetica,sans-Serif" font-size="10.00">/Engine/Classes/Animation</text>
<text xml:space="preserve" text-anchor="start" x="847" y="-210" font-family="Helvetica,sans-Serif" font-size="10.00">/AnimNotifies/AnimNotify</text>
<text xml:space="preserve" text-anchor="middle" x="911.88" y="-197.25" font-family="Helvetica,sans-Serif" font-size="10.00">_PlaySound.h</text>
</a>
</g>
</g>
<!-- Node1&#45;&gt;Node11 -->
<g id="edge11_Node000001_Node000011" class="edge">
<title>Node1&#45;&gt;Node11</title>
<g id="a_edge11_Node000001_Node000011"><a xlink:title=" ">
<path fill="none" stroke="#63b8ff" d="M911.88,-286.11C911.88,-278.09 911.88,-269.73 911.88,-261.9"/>
<polygon fill="#63b8ff" stroke="#63b8ff" points="908.38,-285.99 911.88,-295.99 915.38,-285.99 908.38,-285.99"/>
</a>
</g>
</g>
<!-- Node12 -->
<g id="Node000012" class="node">
<title>Node12</title>
<g id="a_Node000012"><a xlink:href="$AnimNotify__ResetClothingSimulation_8h.html" xlink:title=" ">
<polygon fill="white" stroke="#666666" points="1153.38,-261.75 1002.38,-261.75 1002.38,-190 1153.38,-190 1153.38,-261.75"/>
<text xml:space="preserve" text-anchor="start" x="1010.38" y="-248.25" font-family="Helvetica,sans-Serif" font-size="10.00">/opt/unreal&#45;engine</text>
<text xml:space="preserve" text-anchor="start" x="1010.38" y="-235.5" font-family="Helvetica,sans-Serif" font-size="10.00">/Engine/Source/Runtime</text>
<text xml:space="preserve" text-anchor="start" x="1010.38" y="-222.75" font-family="Helvetica,sans-Serif" font-size="10.00">/Engine/Classes/Animation</text>
<text xml:space="preserve" text-anchor="start" x="1010.38" y="-210" font-family="Helvetica,sans-Serif" font-size="10.00">/AnimNotifies/AnimNotify</text>
<text xml:space="preserve" text-anchor="middle" x="1077.88" y="-197.25" font-family="Helvetica,sans-Serif" font-size="10.00">_ResetClothingSimulation.h</text>
</a>
</g>
</g>
<!-- Node1&#45;&gt;Node12 -->
<g id="edge12_Node000001_Node000012" class="edge">
<title>Node1&#45;&gt;Node12</title>
<g id="a_edge12_Node000001_Node000012"><a xlink:title=" ">
<path fill="none" stroke="#63b8ff" d="M969.64,-291.67C985.64,-282.09 1003.01,-271.69 1019.07,-262.08"/>
<polygon fill="#63b8ff" stroke="#63b8ff" points="967.97,-288.59 961.19,-296.73 971.57,-294.6 967.97,-288.59"/>
</a>
</g>
</g>
<!-- Node13 -->
<g id="Node000013" class="node">
<title>Node13</title>
<g id="a_Node000013"><a xlink:href="$AnimNotify__ResetDynamics_8h.html" xlink:title=" ">
<polygon fill="white" stroke="#666666" points="1316.75,-261.75 1171,-261.75 1171,-190 1316.75,-190 1316.75,-261.75"/>
<text xml:space="preserve" text-anchor="start" x="1179" y="-248.25" font-family="Helvetica,sans-Serif" font-size="10.00">/opt/unreal&#45;engine</text>
<text xml:space="preserve" text-anchor="start" x="1179" y="-235.5" font-family="Helvetica,sans-Serif" font-size="10.00">/Engine/Source/Runtime</text>
<text xml:space="preserve" text-anchor="start" x="1179" y="-222.75" font-family="Helvetica,sans-Serif" font-size="10.00">/Engine/Classes/Animation</text>
<text xml:space="preserve" text-anchor="start" x="1179" y="-210" font-family="Helvetica,sans-Serif" font-size="10.00">/AnimNotifies/AnimNotify</text>
<text xml:space="preserve" text-anchor="middle" x="1243.88" y="-197.25" font-family="Helvetica,sans-Serif" font-size="10.00">_ResetDynamics.h</text>
</a>
</g>
</g>
<!-- Node1&#45;&gt;Node13 -->
<g id="edge13_Node000001_Node000013" class="edge">
<title>Node1&#45;&gt;Node13</title>
<g id="a_edge13_Node000001_Node000013"><a xlink:title=" ">
<path fill="none" stroke="#63b8ff" d="M997.81,-307.65C1046.73,-296.2 1108.86,-280.2 1162.88,-261.75 1165.48,-260.86 1168.12,-259.92 1170.78,-258.95"/>
<polygon fill="#63b8ff" stroke="#63b8ff" points="997.05,-304.23 988.1,-309.9 998.63,-311.05 997.05,-304.23"/>
</a>
</g>
</g>
<!-- Node14 -->
<g id="Node000014" class="node">
<title>Node14</title>
<g id="a_Node000014"><a xlink:href="$AnimNotify__ResumeClothingSimulation_8h.html" xlink:title=" ">
<polygon fill="white" stroke="#666666" points="1497.38,-261.75 1334.38,-261.75 1334.38,-190 1497.38,-190 1497.38,-261.75"/>
<text xml:space="preserve" text-anchor="start" x="1342.38" y="-248.25" font-family="Helvetica,sans-Serif" font-size="10.00">/opt/unreal&#45;engine</text>
<text xml:space="preserve" text-anchor="start" x="1342.38" y="-235.5" font-family="Helvetica,sans-Serif" font-size="10.00">/Engine/Source/Runtime</text>
<text xml:space="preserve" text-anchor="start" x="1342.38" y="-222.75" font-family="Helvetica,sans-Serif" font-size="10.00">/Engine/Classes/Animation</text>
<text xml:space="preserve" text-anchor="start" x="1342.38" y="-210" font-family="Helvetica,sans-Serif" font-size="10.00">/AnimNotifies/AnimNotify</text>
<text xml:space="preserve" text-anchor="middle" x="1415.88" y="-197.25" font-family="Helvetica,sans-Serif" font-size="10.00">_ResumeClothingSimulation.h</text>
</a>
</g>
</g>
<!-- Node1&#45;&gt;Node14 -->
<g id="edge14_Node000001_Node000014" class="edge">
<title>Node1&#45;&gt;Node14</title>
<g id="a_edge14_Node000001_Node000014"><a xlink:title=" ">
<path fill="none" stroke="#63b8ff" d="M997.88,-318.3C1082.41,-309.23 1214.54,-291.62 1325.88,-261.75 1328.63,-261.01 1331.41,-260.22 1334.21,-259.38"/>
<polygon fill="#63b8ff" stroke="#63b8ff" points="997.62,-314.81 988.04,-319.34 998.36,-321.77 997.62,-314.81"/>
</a>
</g>
</g>
<!-- Node3 -->
<g id="Node000003" class="node">
<title>Node3</title>
<g id="a_Node000003"><a xlink:href="$AnimNodeAlphaOptions_8h.html" xlink:title=" ">
<polygon fill="white" stroke="#666666" points="145.75,-154 0,-154 0,-95 145.75,-95 145.75,-154"/>
<text xml:space="preserve" text-anchor="start" x="8" y="-140.5" font-family="Helvetica,sans-Serif" font-size="10.00">/opt/unreal&#45;engine</text>
<text xml:space="preserve" text-anchor="start" x="8" y="-127.75" font-family="Helvetica,sans-Serif" font-size="10.00">/Engine/Source/Runtime</text>
<text xml:space="preserve" text-anchor="start" x="8" y="-115" font-family="Helvetica,sans-Serif" font-size="10.00">/Engine/Classes/Animation</text>
<text xml:space="preserve" text-anchor="middle" x="72.88" y="-102.25" font-family="Helvetica,sans-Serif" font-size="10.00">/AnimNodeAlphaOptions.h</text>
</a>
</g>
</g>
<!-- Node2&#45;&gt;Node3 -->
<g id="edge2_Node000002_Node000003" class="edge">
<title>Node2&#45;&gt;Node3</title>
<g id="a_edge2_Node000002_Node000003"><a xlink:title=" ">
<path fill="none" stroke="#63b8ff" d="M329.71,-203.38C278.84,-190.01 212.85,-171.98 154.88,-154 152,-153.11 149.07,-152.18 146.11,-151.23"/>
<polygon fill="#63b8ff" stroke="#63b8ff" points="328.63,-206.71 339.19,-205.86 330.4,-199.94 328.63,-206.71"/>
</a>
</g>
</g>
<!-- Node4 -->
<g id="Node000004" class="node">
<title>Node4</title>
<g id="a_Node000004"><a xlink:href="$AnimNode__LinkedAnimGraph_8h.html" xlink:title=" ">
<polygon fill="white" stroke="#666666" points="334.12,-154 163.62,-154 163.62,-95 334.12,-95 334.12,-154"/>
<text xml:space="preserve" text-anchor="start" x="171.62" y="-140.5" font-family="Helvetica,sans-Serif" font-size="10.00">/opt/unreal&#45;engine</text>
<text xml:space="preserve" text-anchor="start" x="171.62" y="-127.75" font-family="Helvetica,sans-Serif" font-size="10.00">/Engine/Source/Runtime</text>
<text xml:space="preserve" text-anchor="start" x="171.62" y="-115" font-family="Helvetica,sans-Serif" font-size="10.00">/Engine/Classes/Animation</text>
<text xml:space="preserve" text-anchor="middle" x="248.88" y="-102.25" font-family="Helvetica,sans-Serif" font-size="10.00">/AnimNode_LinkedAnimGraph.h</text>
</a>
</g>
</g>
<!-- Node2&#45;&gt;Node4 -->
<g id="edge3_Node000002_Node000004" class="edge">
<title>Node2&#45;&gt;Node4</title>
<g id="a_edge3_Node000002_Node000004"><a xlink:title=" ">
<path fill="none" stroke="#63b8ff" d="M356.48,-190.3C336.99,-178.57 315.44,-165.59 296.78,-154.35"/>
<polygon fill="#63b8ff" stroke="#63b8ff" points="354.48,-193.19 364.85,-195.35 358.09,-187.19 354.48,-193.19"/>
</a>
</g>
</g>
<!-- Node5 -->
<g id="Node000005" class="node">
<title>Node5</title>
<g id="a_Node000005"><a xlink:href="$AnimNode__LinkedAnimLayer_8h.html" xlink:title=" ">
<polygon fill="white" stroke="#666666" points="389,-59 220.75,-59 220.75,0 389,0 389,-59"/>
<text xml:space="preserve" text-anchor="start" x="228.75" y="-45.5" font-family="Helvetica,sans-Serif" font-size="10.00">/opt/unreal&#45;engine</text>
<text xml:space="preserve" text-anchor="start" x="228.75" y="-32.75" font-family="Helvetica,sans-Serif" font-size="10.00">/Engine/Source/Runtime</text>
<text xml:space="preserve" text-anchor="start" x="228.75" y="-20" font-family="Helvetica,sans-Serif" font-size="10.00">/Engine/Classes/Animation</text>
<text xml:space="preserve" text-anchor="middle" x="304.88" y="-7.25" font-family="Helvetica,sans-Serif" font-size="10.00">/AnimNode_LinkedAnimLayer.h</text>
</a>
</g>
</g>
<!-- Node2&#45;&gt;Node5 -->
<g id="edge5_Node000002_Node000005" class="edge">
<title>Node2&#45;&gt;Node5</title>
<g id="a_edge5_Node000002_Node000005"><a xlink:title=" ">
<path fill="none" stroke="#63b8ff" d="M393.19,-186.28C379.2,-160.35 360.18,-125.48 342.88,-95 336.2,-83.25 328.68,-70.4 322.1,-59.28"/>
<polygon fill="#63b8ff" stroke="#63b8ff" points="389.94,-187.62 397.77,-194.77 396.11,-184.3 389.94,-187.62"/>
</a>
</g>
</g>
<!-- Node6 -->
<g id="Node000006" class="node">
<title>Node6</title>
<g id="a_Node000006"><a xlink:href="$AnimNode__StateMachine_8h.html" xlink:title=" ">
<polygon fill="white" stroke="#666666" points="541.38,-154 390.38,-154 390.38,-95 541.38,-95 541.38,-154"/>
<text xml:space="preserve" text-anchor="start" x="398.38" y="-140.5" font-family="Helvetica,sans-Serif" font-size="10.00">/opt/unreal&#45;engine</text>
<text xml:space="preserve" text-anchor="start" x="398.38" y="-127.75" font-family="Helvetica,sans-Serif" font-size="10.00">/Engine/Source/Runtime</text>
<text xml:space="preserve" text-anchor="start" x="398.38" y="-115" font-family="Helvetica,sans-Serif" font-size="10.00">/Engine/Classes/Animation</text>
<text xml:space="preserve" text-anchor="middle" x="465.88" y="-102.25" font-family="Helvetica,sans-Serif" font-size="10.00">/AnimNode_StateMachine.h</text>
</a>
</g>
</g>
<!-- Node2&#45;&gt;Node6 -->
<g id="edge6_Node000002_Node000006" class="edge">
<title>Node2&#45;&gt;Node6</title>
<g id="a_edge6_Node000002_Node000006"><a xlink:title=" ">
<path fill="none" stroke="#63b8ff" d="M434.11,-186.2C439.69,-175.54 445.64,-164.16 450.87,-154.18"/>
<polygon fill="#63b8ff" stroke="#63b8ff" points="431.15,-184.31 429.62,-194.79 437.35,-187.55 431.15,-184.31"/>
</a>
</g>
</g>
<!-- Node7 -->
<g id="Node000007" class="node">
<title>Node7</title>
<g id="a_Node000007"><a xlink:href="$AnimNode__TransitionResult_8h.html" xlink:title=" ">
<polygon fill="white" stroke="#666666" points="722.38,-154 559.38,-154 559.38,-95 722.38,-95 722.38,-154"/>
<text xml:space="preserve" text-anchor="start" x="567.38" y="-140.5" font-family="Helvetica,sans-Serif" font-size="10.00">/opt/unreal&#45;engine</text>
<text xml:space="preserve" text-anchor="start" x="567.38" y="-127.75" font-family="Helvetica,sans-Serif" font-size="10.00">/Engine/Source/Runtime</text>
<text xml:space="preserve" text-anchor="start" x="567.38" y="-115" font-family="Helvetica,sans-Serif" font-size="10.00">/Engine/Classes/Animation</text>
<text xml:space="preserve" text-anchor="middle" x="640.88" y="-102.25" font-family="Helvetica,sans-Serif" font-size="10.00">/AnimNode_TransitionResult.h</text>
</a>
</g>
</g>
<!-- Node2&#45;&gt;Node7 -->
<g id="edge7_Node000002_Node000007" class="edge">
<title>Node2&#45;&gt;Node7</title>
<g id="a_edge7_Node000002_Node000007"><a xlink:title=" ">
<path fill="none" stroke="#63b8ff" d="M490.17,-191.47C517.59,-179.47 548.27,-166.04 574.75,-154.45"/>
<polygon fill="#63b8ff" stroke="#63b8ff" points="488.98,-188.17 481.22,-195.39 491.79,-194.59 488.98,-188.17"/>
</a>
</g>
</g>
<!-- Node8 -->
<g id="Node000008" class="node">
<title>Node8</title>
<g id="a_Node000008"><a xlink:href="$AnimSingleNodeInstance_8h.html" xlink:title=" ">
<polygon fill="white" stroke="#666666" points="891,-154 740.75,-154 740.75,-95 891,-95 891,-154"/>
<text xml:space="preserve" text-anchor="start" x="748.75" y="-140.5" font-family="Helvetica,sans-Serif" font-size="10.00">/opt/unreal&#45;engine</text>
<text xml:space="preserve" text-anchor="start" x="748.75" y="-127.75" font-family="Helvetica,sans-Serif" font-size="10.00">/Engine/Source/Runtime</text>
<text xml:space="preserve" text-anchor="start" x="748.75" y="-115" font-family="Helvetica,sans-Serif" font-size="10.00">/Engine/Classes/Animation</text>
<text xml:space="preserve" text-anchor="middle" x="815.88" y="-102.25" font-family="Helvetica,sans-Serif" font-size="10.00">/AnimSingleNodeInstance.h</text>
</a>
</g>
</g>
<!-- Node2&#45;&gt;Node8 -->
<g id="edge8_Node000002_Node000008" class="edge">
<title>Node2&#45;&gt;Node8</title>
<g id="a_edge8_Node000002_Node000008"><a xlink:title=" ">
<path fill="none" stroke="#63b8ff" d="M488.56,-192.21C491.02,-191.43 493.46,-190.69 495.88,-190 597.94,-161.01 628.79,-179.14 731.88,-154 734.72,-153.31 737.6,-152.56 740.5,-151.77"/>
<polygon fill="#63b8ff" stroke="#63b8ff" points="487.54,-188.86 479.21,-195.41 489.81,-195.48 487.54,-188.86"/>
</a>
</g>
</g>
<!-- Node4&#45;&gt;Node5 -->
<g id="edge4_Node000004_Node000005" class="edge">
<title>Node4&#45;&gt;Node5</title>
<g id="a_edge4_Node000004_Node000005"><a xlink:title=" ">
<path fill="none" stroke="#63b8ff" d="M272.16,-84.83C277.29,-76.32 282.63,-67.45 287.47,-59.4"/>
<polygon fill="#63b8ff" stroke="#63b8ff" points="269.23,-82.92 267.07,-93.29 275.22,-86.53 269.23,-82.92"/>
</a>
</g>
</g>
</g>
</svg>
