<?xml version="1.0" encoding="UTF-8" standalone="no"?>
<!DOCTYPE svg PUBLIC "-//W3C//DTD SVG 1.1//EN"
 "http://www.w3.org/Graphics/SVG/1.1/DTD/svg11.dtd">
<!-- Generated by graphviz version 14.1.4 (0)
 -->
<!-- Title: operator&lt;&lt; Pages: 1 -->
<svg width="425pt" height="74pt"
 viewBox="0.00 0.00 425.00 74.00" xmlns="http://www.w3.org/2000/svg" xmlns:xlink="http://www.w3.org/1999/xlink">
<g id="graph0" class="graph" transform="scale(1 1) rotate(0) translate(4 70.12)">
<title>operator&lt;&lt;</title>
<!-- Node1 -->
<g id="Node000001" class="node">
<title>Node1</title>
<g id="a_Node000001"><a xlink:title=" ">
<polygon fill="#999999" stroke="#666666" points="73.75,-39.75 0,-39.75 0,-19 73.75,-19 73.75,-39.75"/>
<text xml:space="preserve" text-anchor="middle" x="36.88" y="-26.25" font-family="Helvetica,sans-Serif" font-size="10.00">operator&lt;&lt;</text>
</a>
</g>
</g>
<!-- Node2 -->
<g id="Node000002" class="node">
<title>Node2</title>
<g id="a_Node000002"><a xlink:href="$classFArchive.html#a3df0ca4e08e83600e30a5c3a413c7282" xlink:title=" ">
<polygon fill="white" stroke="#666666" points="239,-59.75 109.75,-59.75 109.75,-39 239,-39 239,-59.75"/>
<text xml:space="preserve" text-anchor="middle" x="174.38" y="-46.25" font-family="Helvetica,sans-Serif" font-size="10.00">FArchive::FastPathLoad</text>
</a>
</g>
</g>
<!-- Node1&#45;&gt;Node2 -->
<g id="edge1_Node000001_Node000002" class="edge">
<title>Node1&#45;&gt;Node2</title>
<g id="a_edge1_Node000001_Node000002"><a xlink:title=" ">
<path fill="none" stroke="#63b8ff" d="M74.19,-34.73C81.68,-35.84 89.83,-37.04 98.13,-38.27"/>
<polygon fill="#63b8ff" stroke="#63b8ff" points="97.6,-41.73 108,-39.73 98.62,-34.8 97.6,-41.73"/>
</a>
</g>
</g>
<!-- Node4 -->
<g id="Node000004" class="node">
<title>Node4</title>
<g id="a_Node000004"><a xlink:href="$classFArchive.html#a1b77ac849a9c855e80bd3a38de1d4944" xlink:title=" ">
<polygon fill="white" stroke="#666666" points="227.38,-20.75 121.38,-20.75 121.38,0 227.38,0 227.38,-20.75"/>
<text xml:space="preserve" text-anchor="middle" x="174.38" y="-7.25" font-family="Helvetica,sans-Serif" font-size="10.00">FArchive::Serialize</text>
</a>
</g>
</g>
<!-- Node1&#45;&gt;Node4 -->
<g id="edge3_Node000001_Node000004" class="edge">
<title>Node1&#45;&gt;Node4</title>
<g id="a_edge3_Node000001_Node000004"><a xlink:title=" ">
<path fill="none" stroke="#63b8ff" d="M74.19,-24.28C85.17,-22.74 97.57,-21 109.79,-19.29"/>
<polygon fill="#63b8ff" stroke="#63b8ff" points="110,-22.8 119.41,-17.94 109.02,-15.86 110,-22.8"/>
</a>
</g>
</g>
<!-- Node3 -->
<g id="Node000003" class="node">
<title>Node3</title>
<g id="a_Node000003"><a xlink:href="$structFGenericPlatformMemory.html#a0aa08b60535a616789389e098ea52c98" xlink:title=" ">
<polygon fill="white" stroke="#666666" points="417,-66.12 275,-66.12 275,-32.62 417,-32.62 417,-66.12"/>
<text xml:space="preserve" text-anchor="start" x="283" y="-52.62" font-family="Helvetica,sans-Serif" font-size="10.00">FGenericPlatformMemory</text>
<text xml:space="preserve" text-anchor="middle" x="346" y="-39.88" font-family="Helvetica,sans-Serif" font-size="10.00">::ReadUnaligned</text>
</a>
</g>
</g>
<!-- Node2&#45;&gt;Node3 -->
<g id="edge2_Node000002_Node000003" class="edge">
<title>Node2&#45;&gt;Node3</title>
<g id="a_edge2_Node000002_Node000003"><a xlink:title=" ">
<path fill="none" stroke="#63b8ff" d="M239.02,-49.38C246.94,-49.38 255.13,-49.38 263.28,-49.38"/>
<polygon fill="#63b8ff" stroke="#63b8ff" points="263.23,-52.88 273.23,-49.38 263.23,-45.88 263.23,-52.88"/>
</a>
</g>
</g>
</g>
</svg>
