<?xml version="1.0" encoding="UTF-8" standalone="no"?>
<!DOCTYPE svg PUBLIC "-//W3C//DTD SVG 1.1//EN"
 "http://www.w3.org/Graphics/SVG/1.1/DTD/svg11.dtd">
<!-- Generated by graphviz version 14.1.4 (0)
 -->
<!-- Title: MakeArrayView Pages: 1 -->
<svg width="725pt" height="1172pt"
 viewBox="0.00 0.00 725.00 1172.00" xmlns="http://www.w3.org/2000/svg" xmlns:xlink="http://www.w3.org/1999/xlink">
<g id="graph0" class="graph" transform="scale(1 1) rotate(0) translate(4 1167.91)">
<title>MakeArrayView</title>
<!-- Node1 -->
<g id="Node000001" class="node">
<title>Node1</title>
<g id="a_Node000001"><a xlink:title=" ">
<polygon fill="#999999" stroke="#666666" points="716.5,-633.12 624,-633.12 624,-612.38 716.5,-612.38 716.5,-633.12"/>
<text xml:space="preserve" text-anchor="middle" x="670.25" y="-619.62" font-family="Helvetica,sans-Serif" font-size="10.00">MakeArrayView</text>
</a>
</g>
</g>
<!-- Node2 -->
<g id="Node000002" class="node">
<title>Node2</title>
<g id="a_Node000002"><a xlink:href="$classUBuiltInAttributesExtensions.html#a3ed4564cc9efc9e8b9bd1f3c28e1e78b" xlink:title=" ">
<polygon fill="white" stroke="#666666" points="156.25,-1119.5 0,-1119.5 0,-1086 156.25,-1086 156.25,-1119.5"/>
<text xml:space="preserve" text-anchor="start" x="8" y="-1106" font-family="Helvetica,sans-Serif" font-size="10.00">UBuiltInAttributesExtensions</text>
<text xml:space="preserve" text-anchor="middle" x="78.12" y="-1093.25" font-family="Helvetica,sans-Serif" font-size="10.00">::AddTransformAttribute</text>
</a>
</g>
</g>
<!-- Node1&#45;&gt;Node2 -->
<g id="edge1_Node000001_Node000002" class="edge">
<title>Node1&#45;&gt;Node2</title>
<g id="a_edge1_Node000001_Node000002"><a xlink:title=" ">
<path fill="none" stroke="#63b8ff" d="M668.94,-644.85C667.24,-729.89 656.39,-1034.19 588,-1094.75 457.52,-1210.29 226,-1152.53 126.61,-1119.93"/>
<polygon fill="#63b8ff" stroke="#63b8ff" points="672.43,-645.13 669.11,-635.07 665.43,-645 672.43,-645.13"/>
</a>
</g>
</g>
<!-- Node3 -->
<g id="Node000003" class="node">
<title>Node3</title>
<g id="a_Node000003"><a xlink:href="$namespaceUE_1_1Anim.html#af8c903db90a4651d59968002aac06adc" xlink:title=" ">
<polygon fill="white" stroke="#666666" points="344,-1097.5 192.25,-1097.5 192.25,-1064 344,-1064 344,-1097.5"/>
<text xml:space="preserve" text-anchor="start" x="200.25" y="-1084" font-family="Helvetica,sans-Serif" font-size="10.00">UE::Anim::AddTypedCustom</text>
<text xml:space="preserve" text-anchor="middle" x="268.12" y="-1071.25" font-family="Helvetica,sans-Serif" font-size="10.00">Attribute</text>
</a>
</g>
</g>
<!-- Node1&#45;&gt;Node3 -->
<g id="edge3_Node000001_Node000003" class="edge">
<title>Node1&#45;&gt;Node3</title>
<g id="a_edge3_Node000001_Node000003"><a xlink:title=" ">
<path fill="none" stroke="#63b8ff" d="M668.72,-644.7C666.26,-726.58 653.06,-1012.36 588,-1068.75 552.89,-1099.18 426.87,-1094.88 344.16,-1088.3"/>
<polygon fill="#63b8ff" stroke="#63b8ff" points="672.22,-644.98 668.99,-634.89 665.22,-644.79 672.22,-644.98"/>
</a>
</g>
</g>
<!-- Node4 -->
<g id="Node000004" class="node">
<title>Node4</title>
<g id="a_Node000004"><a xlink:href="$namespaceUE_1_1MemStack.html#a57bc9e34976c2b7a4bbb3f7ace7bc86e" xlink:title=" ">
<polygon fill="white" stroke="#666666" points="575.62,-1060.12 392.38,-1060.12 392.38,-1039.38 575.62,-1039.38 575.62,-1060.12"/>
<text xml:space="preserve" text-anchor="middle" x="484" y="-1046.62" font-family="Helvetica,sans-Serif" font-size="10.00">UE::MemStack::AllocateArrayView</text>
</a>
</g>
</g>
<!-- Node1&#45;&gt;Node4 -->
<g id="edge5_Node000001_Node000004" class="edge">
<title>Node1&#45;&gt;Node4</title>
<g id="a_edge5_Node000001_Node000004"><a xlink:title=" ">
<path fill="none" stroke="#63b8ff" d="M668.05,-644.52C663.37,-721.01 643.78,-975.75 588,-1030.75 584.37,-1034.32 580.31,-1037.34 575.95,-1039.89"/>
<polygon fill="#63b8ff" stroke="#63b8ff" points="671.52,-645.17 668.61,-634.98 664.53,-644.76 671.52,-645.17"/>
</a>
</g>
</g>
<!-- Node5 -->
<g id="Node000005" class="node">
<title>Node5</title>
<g id="a_Node000005"><a xlink:href="$structFResourceArrayUploadArrayView.html#a49271c383e7824f1a35167f65fc7a3b4" xlink:title=" ">
<polygon fill="white" stroke="#666666" points="588,-1021.5 380,-1021.5 380,-988 588,-988 588,-1021.5"/>
<text xml:space="preserve" text-anchor="start" x="388" y="-1008" font-family="Helvetica,sans-Serif" font-size="10.00">FResourceArrayUploadArray</text>
<text xml:space="preserve" text-anchor="middle" x="484" y="-995.25" font-family="Helvetica,sans-Serif" font-size="10.00">View::FResourceArrayUploadArrayView</text>
</a>
</g>
</g>
<!-- Node1&#45;&gt;Node5 -->
<g id="edge6_Node000001_Node000005" class="edge">
<title>Node1&#45;&gt;Node5</title>
<g id="a_edge6_Node000001_Node000005"><a xlink:title=" ">
<path fill="none" stroke="#63b8ff" d="M667.21,-644.73C660.26,-714.67 635.35,-930.31 588,-978.75 584.65,-982.18 580.92,-985.18 576.91,-987.8"/>
<polygon fill="#63b8ff" stroke="#63b8ff" points="670.67,-645.24 668.15,-634.95 663.71,-644.56 670.67,-645.24"/>
</a>
</g>
</g>
<!-- Node6 -->
<g id="Node000006" class="node">
<title>Node6</title>
<g id="a_Node000006"><a xlink:href="$structFResourceBulkDataArrayView.html#ac3b60bf7900928e590382aef9d962da3" xlink:title=" ">
<polygon fill="white" stroke="#666666" points="568.12,-969.5 399.88,-969.5 399.88,-936 568.12,-936 568.12,-969.5"/>
<text xml:space="preserve" text-anchor="start" x="407.88" y="-956" font-family="Helvetica,sans-Serif" font-size="10.00">FResourceBulkDataArrayView</text>
<text xml:space="preserve" text-anchor="middle" x="484" y="-943.25" font-family="Helvetica,sans-Serif" font-size="10.00">::FResourceBulkDataArrayView</text>
</a>
</g>
</g>
<!-- Node1&#45;&gt;Node6 -->
<g id="edge7_Node000001_Node000006" class="edge">
<title>Node1&#45;&gt;Node6</title>
<g id="a_edge7_Node000001_Node000006"><a xlink:title=" ">
<path fill="none" stroke="#63b8ff" d="M666.28,-644.74C657.36,-707.66 628.85,-886.47 588,-926.75 582.35,-932.32 575.7,-936.75 568.53,-940.27"/>
<polygon fill="#63b8ff" stroke="#63b8ff" points="669.73,-645.35 667.64,-634.97 662.8,-644.39 669.73,-645.35"/>
</a>
</g>
</g>
<!-- Node7 -->
<g id="Node000007" class="node">
<title>Node7</title>
<g id="a_Node000007"><a xlink:href="$structFPersistentStorageManager_1_1FCategoryInfo.html#a843cd772d284bb6a5a6b2e0a2e1ff580" xlink:title=" ">
<polygon fill="white" stroke="#666666" points="567.38,-917.5 400.62,-917.5 400.62,-884 567.38,-884 567.38,-917.5"/>
<text xml:space="preserve" text-anchor="start" x="408.62" y="-904" font-family="Helvetica,sans-Serif" font-size="10.00">FPersistentStorageManager</text>
<text xml:space="preserve" text-anchor="middle" x="484" y="-891.25" font-family="Helvetica,sans-Serif" font-size="10.00">::FCategoryInfo::GetCategories</text>
</a>
</g>
</g>
<!-- Node1&#45;&gt;Node7 -->
<g id="edge8_Node000001_Node000007" class="edge">
<title>Node1&#45;&gt;Node7</title>
<g id="a_edge8_Node000001_Node000007"><a xlink:title=" ">
<path fill="none" stroke="#63b8ff" d="M668.91,-644.88C666.9,-693.84 654.96,-811.98 588,-874.75 582.08,-880.3 575.15,-884.71 567.74,-888.21"/>
<polygon fill="#63b8ff" stroke="#63b8ff" points="672.4,-645.11 669.19,-635.01 665.4,-644.9 672.4,-645.11"/>
</a>
</g>
</g>
<!-- Node8 -->
<g id="Node000008" class="node">
<title>Node8</title>
<g id="a_Node000008"><a xlink:href="$structFPersistentStorageManager_1_1FCategoryInfo.html#ab90d2f364e72d4ee9042c0ba440beb54" xlink:title=" ">
<polygon fill="white" stroke="#666666" points="567.38,-865.5 400.62,-865.5 400.62,-832 567.38,-832 567.38,-865.5"/>
<text xml:space="preserve" text-anchor="start" x="408.62" y="-852" font-family="Helvetica,sans-Serif" font-size="10.00">FPersistentStorageManager</text>
<text xml:space="preserve" text-anchor="middle" x="484" y="-839.25" font-family="Helvetica,sans-Serif" font-size="10.00">::FCategoryInfo::GetCategories</text>
</a>
</g>
</g>
<!-- Node1&#45;&gt;Node8 -->
<g id="edge9_Node000001_Node000008" class="edge">
<title>Node1&#45;&gt;Node8</title>
<g id="a_edge9_Node000001_Node000008"><a xlink:title=" ">
<path fill="none" stroke="#63b8ff" d="M666.79,-644.75C660.96,-686.06 642.46,-775.36 588,-822.75 582.02,-827.96 575.14,-832.15 567.83,-835.52"/>
<polygon fill="#63b8ff" stroke="#63b8ff" points="670.26,-645.21 668.05,-634.85 663.31,-644.33 670.26,-645.21"/>
</a>
</g>
</g>
<!-- Node9 -->
<g id="Node000009" class="node">
<title>Node9</title>
<g id="a_Node000009"><a xlink:href="$structFPersistentStorageManager_1_1FRootDirInfo.html#ad0b25c64609a21e994d00b9abb47f204" xlink:title=" ">
<polygon fill="white" stroke="#666666" points="575.25,-813.5 392.75,-813.5 392.75,-780 575.25,-780 575.25,-813.5"/>
<text xml:space="preserve" text-anchor="start" x="400.75" y="-800" font-family="Helvetica,sans-Serif" font-size="10.00">FPersistentStorageManager</text>
<text xml:space="preserve" text-anchor="middle" x="484" y="-787.25" font-family="Helvetica,sans-Serif" font-size="10.00">::FRootDirInfo::GetRootDirectories</text>
</a>
</g>
</g>
<!-- Node1&#45;&gt;Node9 -->
<g id="edge10_Node000001_Node000009" class="edge">
<title>Node1&#45;&gt;Node9</title>
<g id="a_edge10_Node000001_Node000009"><a xlink:title=" ">
<path fill="none" stroke="#63b8ff" d="M663.5,-644.17C653.64,-676.64 630.36,-738.01 588,-770.75 583.62,-774.13 578.86,-777.08 573.85,-779.65"/>
<polygon fill="#63b8ff" stroke="#63b8ff" points="666.82,-645.29 666.21,-634.71 660.09,-643.36 666.82,-645.29"/>
</a>
</g>
</g>
<!-- Node10 -->
<g id="Node000010" class="node">
<title>Node10</title>
<g id="a_Node000010"><a xlink:href="$structFHistogram.html#a9427fa62ae34939129426deb1770769a" xlink:title=" ">
<polygon fill="white" stroke="#666666" points="556.88,-762.12 411.12,-762.12 411.12,-741.38 556.88,-741.38 556.88,-762.12"/>
<text xml:space="preserve" text-anchor="middle" x="484" y="-748.62" font-family="Helvetica,sans-Serif" font-size="10.00">FHistogram::InitFromArray</text>
</a>
</g>
</g>
<!-- Node1&#45;&gt;Node10 -->
<g id="edge11_Node000001_Node000010" class="edge">
<title>Node1&#45;&gt;Node10</title>
<g id="a_edge11_Node000001_Node000010"><a xlink:title=" ">
<path fill="none" stroke="#63b8ff" d="M659.87,-643.65C647.32,-669.04 622.57,-711.15 588,-732.75 578.67,-738.58 568,-742.72 557.14,-745.63"/>
<polygon fill="#63b8ff" stroke="#63b8ff" points="663.01,-645.2 664.12,-634.66 656.68,-642.21 663.01,-645.2"/>
</a>
</g>
</g>
<!-- Node11 -->
<g id="Node000011" class="node">
<title>Node11</title>
<g id="a_Node000011"><a xlink:href="$classFGenericPlatformChunkInstall.html#af0b0cfb2dccaec39782da3d1a8bbf4e7" xlink:title=" ">
<polygon fill="white" stroke="#666666" points="565.12,-723.5 402.88,-723.5 402.88,-690 565.12,-690 565.12,-723.5"/>
<text xml:space="preserve" text-anchor="start" x="410.88" y="-710" font-family="Helvetica,sans-Serif" font-size="10.00">FGenericPlatformChunkInstall</text>
<text xml:space="preserve" text-anchor="middle" x="484" y="-697.25" font-family="Helvetica,sans-Serif" font-size="10.00">::InstallNamedChunk</text>
</a>
</g>
</g>
<!-- Node1&#45;&gt;Node11 -->
<g id="edge12_Node000001_Node000011" class="edge">
<title>Node1&#45;&gt;Node11</title>
<g id="a_edge12_Node000001_Node000011"><a xlink:title=" ">
<path fill="none" stroke="#63b8ff" d="M648.42,-640.97C632.76,-653.79 610.27,-670.44 588,-680.75 580.89,-684.04 573.3,-686.96 565.58,-689.53"/>
<polygon fill="#63b8ff" stroke="#63b8ff" points="650.66,-643.66 656.06,-634.54 646.16,-638.3 650.66,-643.66"/>
</a>
</g>
</g>
<!-- Node12 -->
<g id="Node000012" class="node">
<title>Node12</title>
<g id="a_Node000012"><a xlink:href="$StridedView_8h.html#a1b99fb3aa4027985494da82afcb04409" xlink:title=" ">
<polygon fill="white" stroke="#666666" points="548.25,-672.12 419.75,-672.12 419.75,-651.38 548.25,-651.38 548.25,-672.12"/>
<text xml:space="preserve" text-anchor="middle" x="484" y="-658.62" font-family="Helvetica,sans-Serif" font-size="10.00">MakeConstStridedView</text>
</a>
</g>
</g>
<!-- Node1&#45;&gt;Node12 -->
<g id="edge13_Node000001_Node000012" class="edge">
<title>Node1&#45;&gt;Node12</title>
<g id="a_edge13_Node000001_Node000012"><a xlink:title=" ">
<path fill="none" stroke="#63b8ff" d="M613.24,-636.14C604.79,-638.08 596.18,-640 588,-641.75 573.39,-644.87 557.58,-648.05 542.82,-650.92"/>
<polygon fill="#63b8ff" stroke="#63b8ff" points="613.76,-639.61 622.72,-633.95 612.19,-632.79 613.76,-639.61"/>
</a>
</g>
</g>
<!-- Node13 -->
<g id="Node000013" class="node">
<title>Node13</title>
<g id="a_Node000013"><a xlink:href="$StridedView_8h.html#ac83de311accaafb5b6a9b1a880055124" xlink:title=" ">
<polygon fill="white" stroke="#666666" points="534.38,-633.12 433.62,-633.12 433.62,-612.38 534.38,-612.38 534.38,-633.12"/>
<text xml:space="preserve" text-anchor="middle" x="484" y="-619.62" font-family="Helvetica,sans-Serif" font-size="10.00">MakeStridedView</text>
</a>
</g>
</g>
<!-- Node1&#45;&gt;Node13 -->
<g id="edge14_Node000001_Node000013" class="edge">
<title>Node1&#45;&gt;Node13</title>
<g id="a_edge14_Node000001_Node000013"><a xlink:title=" ">
<path fill="none" stroke="#63b8ff" d="M612.28,-622.75C587.52,-622.75 558.77,-622.75 534.87,-622.75"/>
<polygon fill="#63b8ff" stroke="#63b8ff" points="612.19,-626.25 622.19,-622.75 612.19,-619.25 612.19,-626.25"/>
</a>
</g>
</g>
<!-- Node14 -->
<g id="Node000014" class="node">
<title>Node14</title>
<g id="a_Node000014"><a xlink:href="$structFXxHash128.html#ad4a0e9cdfe75e171c465ae5c93dcd9db" xlink:title=" ">
<polygon fill="white" stroke="#666666" points="554.62,-594.12 413.38,-594.12 413.38,-573.38 554.62,-573.38 554.62,-594.12"/>
<text xml:space="preserve" text-anchor="middle" x="484" y="-580.62" font-family="Helvetica,sans-Serif" font-size="10.00">FXxHash128::operator&lt;&lt;</text>
</a>
</g>
</g>
<!-- Node1&#45;&gt;Node14 -->
<g id="edge15_Node000001_Node000014" class="edge">
<title>Node1&#45;&gt;Node14</title>
<g id="a_edge15_Node000001_Node000014"><a xlink:title=" ">
<path fill="none" stroke="#63b8ff" d="M613.24,-609.36C604.79,-607.42 596.18,-605.5 588,-603.75 573.39,-600.63 557.58,-597.45 542.82,-594.58"/>
<polygon fill="#63b8ff" stroke="#63b8ff" points="612.19,-612.71 622.72,-611.55 613.76,-605.89 612.19,-612.71"/>
</a>
</g>
</g>
<!-- Node15 -->
<g id="Node000015" class="node">
<title>Node15</title>
<g id="a_Node000015"><a xlink:href="$structFXxHash64.html#a1abbad05c4605a000a16235607467ffc" xlink:title=" ">
<polygon fill="white" stroke="#666666" points="551.62,-555.12 416.38,-555.12 416.38,-534.38 551.62,-534.38 551.62,-555.12"/>
<text xml:space="preserve" text-anchor="middle" x="484" y="-541.62" font-family="Helvetica,sans-Serif" font-size="10.00">FXxHash64::operator&lt;&lt;</text>
</a>
</g>
</g>
<!-- Node1&#45;&gt;Node15 -->
<g id="edge16_Node000001_Node000015" class="edge">
<title>Node1&#45;&gt;Node15</title>
<g id="a_edge16_Node000001_Node000015"><a xlink:title=" ">
<path fill="none" stroke="#63b8ff" d="M649.3,-604.76C633.7,-591.67 610.89,-574.59 588,-564.75 576.7,-559.9 564.2,-556.21 551.92,-553.42"/>
<polygon fill="#63b8ff" stroke="#63b8ff" points="646.59,-607.04 656.45,-610.93 651.16,-601.74 646.59,-607.04"/>
</a>
</g>
</g>
<!-- Node16 -->
<g id="Node000016" class="node">
<title>Node16</title>
<g id="a_Node000016"><a xlink:href="$classUE_1_1Virtualization_1_1IVirtualizationSystem.html#a439a966827f6e685cad5ec810a5a43bd" xlink:title=" ">
<polygon fill="white" stroke="#666666" points="547.5,-515.88 420.5,-515.88 420.5,-469.62 547.5,-469.62 547.5,-515.88"/>
<text xml:space="preserve" text-anchor="start" x="428.5" y="-502.38" font-family="Helvetica,sans-Serif" font-size="10.00">UE::Virtualization</text>
<text xml:space="preserve" text-anchor="start" x="428.5" y="-489.62" font-family="Helvetica,sans-Serif" font-size="10.00">::IVirtualizationSystem</text>
<text xml:space="preserve" text-anchor="middle" x="484" y="-476.88" font-family="Helvetica,sans-Serif" font-size="10.00">::PullData</text>
</a>
</g>
</g>
<!-- Node1&#45;&gt;Node16 -->
<g id="edge17_Node000001_Node000016" class="edge">
<title>Node1&#45;&gt;Node16</title>
<g id="a_edge17_Node000001_Node000016"><a xlink:title=" ">
<path fill="none" stroke="#63b8ff" d="M657.15,-602.36C643.14,-580.42 618.08,-545.97 588,-525.75 575.92,-517.63 561.72,-511.4 547.78,-506.67"/>
<polygon fill="#63b8ff" stroke="#63b8ff" points="654.09,-604.05 662.32,-610.72 660.04,-600.37 654.09,-604.05"/>
</a>
</g>
</g>
<!-- Node17 -->
<g id="Node000017" class="node">
<title>Node17</title>
<g id="a_Node000017"><a xlink:href="$classUE_1_1Virtualization_1_1IVirtualizationSystem.html#ab576129ff61f1041a5571007f6f108fa" xlink:title=" ">
<polygon fill="white" stroke="#666666" points="547.5,-451.88 420.5,-451.88 420.5,-405.62 547.5,-405.62 547.5,-451.88"/>
<text xml:space="preserve" text-anchor="start" x="428.5" y="-438.38" font-family="Helvetica,sans-Serif" font-size="10.00">UE::Virtualization</text>
<text xml:space="preserve" text-anchor="start" x="428.5" y="-425.62" font-family="Helvetica,sans-Serif" font-size="10.00">::IVirtualizationSystem</text>
<text xml:space="preserve" text-anchor="middle" x="484" y="-412.88" font-family="Helvetica,sans-Serif" font-size="10.00">::PullData</text>
</a>
</g>
</g>
<!-- Node1&#45;&gt;Node17 -->
<g id="edge18_Node000001_Node000017" class="edge">
<title>Node1&#45;&gt;Node17</title>
<g id="a_edge18_Node000001_Node000017"><a xlink:title=" ">
<path fill="none" stroke="#63b8ff" d="M664.25,-601.11C655.11,-566.42 632.45,-498.46 588,-460.75 576.58,-451.06 562.23,-444.3 547.91,-439.59"/>
<polygon fill="#63b8ff" stroke="#63b8ff" points="660.85,-601.93 666.65,-610.8 667.64,-600.25 660.85,-601.93"/>
</a>
</g>
</g>
<!-- Node18 -->
<g id="Node000018" class="node">
<title>Node18</title>
<g id="a_Node000018"><a xlink:href="$classUE_1_1Virtualization_1_1IVirtualizationSystem.html#a81ad90bcc275d07398fa663de6354791" xlink:title=" ">
<polygon fill="white" stroke="#666666" points="547.5,-387.88 420.5,-387.88 420.5,-341.62 547.5,-341.62 547.5,-387.88"/>
<text xml:space="preserve" text-anchor="start" x="428.5" y="-374.38" font-family="Helvetica,sans-Serif" font-size="10.00">UE::Virtualization</text>
<text xml:space="preserve" text-anchor="start" x="428.5" y="-361.62" font-family="Helvetica,sans-Serif" font-size="10.00">::IVirtualizationSystem</text>
<text xml:space="preserve" text-anchor="middle" x="484" y="-348.88" font-family="Helvetica,sans-Serif" font-size="10.00">::PushData</text>
</a>
</g>
</g>
<!-- Node1&#45;&gt;Node18 -->
<g id="edge19_Node000001_Node000018" class="edge">
<title>Node1&#45;&gt;Node18</title>
<g id="a_edge19_Node000001_Node000018"><a xlink:title=" ">
<path fill="none" stroke="#63b8ff" d="M667.69,-600.71C663.32,-555.82 647.07,-453.28 588,-396.75 576.97,-386.2 562.53,-379.12 547.96,-374.38"/>
<polygon fill="#63b8ff" stroke="#63b8ff" points="664.18,-600.81 668.52,-610.48 671.16,-600.22 664.18,-600.81"/>
</a>
</g>
</g>
<!-- Node19 -->
<g id="Node000019" class="node">
<title>Node19</title>
<g id="a_Node000019"><a xlink:href="$classUE_1_1Virtualization_1_1IVirtualizationSystem.html#a438979a9dbf77018610a68d4d823a3e1" xlink:title=" ">
<polygon fill="white" stroke="#666666" points="547.5,-323.88 420.5,-323.88 420.5,-277.62 547.5,-277.62 547.5,-323.88"/>
<text xml:space="preserve" text-anchor="start" x="428.5" y="-310.38" font-family="Helvetica,sans-Serif" font-size="10.00">UE::Virtualization</text>
<text xml:space="preserve" text-anchor="start" x="428.5" y="-297.62" font-family="Helvetica,sans-Serif" font-size="10.00">::IVirtualizationSystem</text>
<text xml:space="preserve" text-anchor="middle" x="484" y="-284.88" font-family="Helvetica,sans-Serif" font-size="10.00">::PushData</text>
</a>
</g>
</g>
<!-- Node1&#45;&gt;Node19 -->
<g id="edge20_Node000001_Node000019" class="edge">
<title>Node1&#45;&gt;Node19</title>
<g id="a_edge20_Node000001_Node000019"><a xlink:title=" ">
<path fill="none" stroke="#63b8ff" d="M669.76,-600.58C669.75,-546.94 662.08,-408.94 588,-332.75 577.23,-321.67 562.71,-314.41 547.96,-309.66"/>
<polygon fill="#63b8ff" stroke="#63b8ff" points="666.26,-600.5 669.65,-610.54 673.26,-600.57 666.26,-600.5"/>
</a>
</g>
</g>
<!-- Node20 -->
<g id="Node000020" class="node">
<title>Node20</title>
<g id="a_Node000020"><a xlink:href="$classUVectorFieldStatic.html#af4940a4125d9ef5ccdf223f7db09af66" xlink:title=" ">
<polygon fill="white" stroke="#666666" points="536.62,-259.5 431.38,-259.5 431.38,-226 536.62,-226 536.62,-259.5"/>
<text xml:space="preserve" text-anchor="start" x="439.38" y="-246" font-family="Helvetica,sans-Serif" font-size="10.00">UVectorFieldStatic</text>
<text xml:space="preserve" text-anchor="middle" x="484" y="-233.25" font-family="Helvetica,sans-Serif" font-size="10.00">::ReadCPUData</text>
</a>
</g>
</g>
<!-- Node1&#45;&gt;Node20 -->
<g id="edge21_Node000001_Node000020" class="edge">
<title>Node1&#45;&gt;Node20</title>
<g id="a_edge21_Node000001_Node000020"><a xlink:title=" ">
<path fill="none" stroke="#63b8ff" d="M667.19,-600.89C660.19,-531.34 635.12,-316.9 588,-268.75 574.65,-255.11 555.26,-248.25 536.89,-244.91"/>
<polygon fill="#63b8ff" stroke="#63b8ff" points="663.68,-601 668.14,-610.61 670.65,-600.32 663.68,-601"/>
</a>
</g>
</g>
<!-- Node21 -->
<g id="Node000021" class="node">
<title>Node21</title>
<g id="a_Node000021"><a xlink:href="$classUInstancedStaticMeshComponent.html#a314f7dd0d304ebec3c2f6bc8ea128f4e" xlink:title=" ">
<polygon fill="white" stroke="#666666" points="574.5,-207.5 393.5,-207.5 393.5,-174 574.5,-174 574.5,-207.5"/>
<text xml:space="preserve" text-anchor="start" x="401.5" y="-194" font-family="Helvetica,sans-Serif" font-size="10.00">UInstancedStaticMeshComponent</text>
<text xml:space="preserve" text-anchor="middle" x="484" y="-181.25" font-family="Helvetica,sans-Serif" font-size="10.00">::RemoveInstanceById</text>
</a>
</g>
</g>
<!-- Node1&#45;&gt;Node21 -->
<g id="edge22_Node000001_Node000021" class="edge">
<title>Node1&#45;&gt;Node21</title>
<g id="a_edge22_Node000001_Node000021"><a xlink:title=" ">
<path fill="none" stroke="#63b8ff" d="M667.87,-600.74C662.66,-524.47 641.63,-273.12 588,-216.75 584.06,-212.61 579.56,-209.09 574.7,-206.1"/>
<polygon fill="#63b8ff" stroke="#63b8ff" points="664.38,-600.88 668.52,-610.63 671.36,-600.43 664.38,-600.88"/>
</a>
</g>
</g>
<!-- Node22 -->
<g id="Node000022" class="node">
<title>Node22</title>
<g id="a_Node000022"><a xlink:href="$classUInstancedStaticMeshComponent.html#a1d2b39d18e3d6297c0b04c2c6e2dc829" xlink:title=" ">
<polygon fill="white" stroke="#666666" points="574.5,-137.5 393.5,-137.5 393.5,-104 574.5,-104 574.5,-137.5"/>
<text xml:space="preserve" text-anchor="start" x="401.5" y="-124" font-family="Helvetica,sans-Serif" font-size="10.00">UInstancedStaticMeshComponent</text>
<text xml:space="preserve" text-anchor="middle" x="484" y="-111.25" font-family="Helvetica,sans-Serif" font-size="10.00">::SetCustomDataById</text>
</a>
</g>
</g>
<!-- Node1&#45;&gt;Node22 -->
<g id="edge23_Node000001_Node000022" class="edge">
<title>Node1&#45;&gt;Node22</title>
<g id="a_edge23_Node000001_Node000022"><a xlink:title=" ">
<path fill="none" stroke="#63b8ff" d="M668.08,-600.92C663.32,-519.41 642.95,-233.92 588,-164.75 578.63,-152.95 565.49,-144.26 551.72,-137.88"/>
<polygon fill="#63b8ff" stroke="#63b8ff" points="664.58,-600.89 668.63,-610.68 671.56,-600.5 664.58,-600.89"/>
</a>
</g>
</g>
<!-- Node23 -->
<g id="Node000023" class="node">
<title>Node23</title>
<g id="a_Node000023"><a xlink:href="$classIAnimationDataController.html#a9e71c4c3876ec7661fcb9579fc30b3c7" xlink:title=" ">
<polygon fill="white" stroke="#666666" points="554.25,-85.5 413.75,-85.5 413.75,-52 554.25,-52 554.25,-85.5"/>
<text xml:space="preserve" text-anchor="start" x="421.75" y="-72" font-family="Helvetica,sans-Serif" font-size="10.00">IAnimationDataController</text>
<text xml:space="preserve" text-anchor="middle" x="484" y="-59.25" font-family="Helvetica,sans-Serif" font-size="10.00">::SetTypedAttributeKeys</text>
</a>
</g>
</g>
<!-- Node1&#45;&gt;Node23 -->
<g id="edge25_Node000001_Node000023" class="edge">
<title>Node1&#45;&gt;Node23</title>
<g id="a_edge25_Node000001_Node000023"><a xlink:title=" ">
<path fill="none" stroke="#63b8ff" d="M668.99,-600.83C667.46,-510.82 657.15,-170.77 588,-94.75 579.13,-85 567.18,-78.66 554.56,-74.6"/>
<polygon fill="#63b8ff" stroke="#63b8ff" points="665.49,-600.77 669.13,-610.72 672.49,-600.67 665.49,-600.77"/>
</a>
</g>
</g>
<!-- Node24 -->
<g id="Node000024" class="node">
<title>Node24</title>
<g id="a_Node000024"><a xlink:href="$classFGenericPlatformChunkInstall.html#ad22ca76224affb44f347bcebdab0166c" xlink:title=" ">
<polygon fill="white" stroke="#666666" points="565.12,-33.5 402.88,-33.5 402.88,0 565.12,0 565.12,-33.5"/>
<text xml:space="preserve" text-anchor="start" x="410.88" y="-20" font-family="Helvetica,sans-Serif" font-size="10.00">FGenericPlatformChunkInstall</text>
<text xml:space="preserve" text-anchor="middle" x="484" y="-7.25" font-family="Helvetica,sans-Serif" font-size="10.00">::UninstallNamedChunk</text>
</a>
</g>
</g>
<!-- Node1&#45;&gt;Node24 -->
<g id="edge27_Node000001_Node000024" class="edge">
<title>Node1&#45;&gt;Node24</title>
<g id="a_edge27_Node000001_Node000024"><a xlink:title=" ">
<path fill="none" stroke="#63b8ff" d="M669.32,-600.83C669.19,-505.42 663.8,-127.22 588,-42.75 581.78,-35.82 574.01,-30.61 565.53,-26.71"/>
<polygon fill="#63b8ff" stroke="#63b8ff" points="665.82,-600.63 669.32,-610.63 672.82,-600.63 665.82,-600.63"/>
</a>
</g>
</g>
<!-- Node2&#45;&gt;Node2 -->
<g id="edge2_Node000002_Node000002" class="edge">
<title>Node2&#45;&gt;Node2</title>
<g id="a_edge2_Node000002_Node000002"><a xlink:title=" ">
<path fill="none" stroke="#63b8ff" d="M110.03,-1130.89C104.83,-1134.85 94.2,-1137.5 78.12,-1137.5 49.55,-1137.5 38.17,-1129.12 43.97,-1119.91"/>
<polygon fill="#63b8ff" stroke="#63b8ff" points="113.39,-1131.9 111.98,-1121.4 106.54,-1130.49 113.39,-1131.9"/>
</a>
</g>
</g>
<!-- Node3&#45;&gt;Node2 -->
<g id="edge4_Node000003_Node000002" class="edge">
<title>Node3&#45;&gt;Node2</title>
<g id="a_edge4_Node000003_Node000002"><a xlink:title=" ">
<path fill="none" stroke="#63b8ff" d="M180.71,-1090.86C172.66,-1091.8 164.54,-1092.75 156.58,-1093.69"/>
<polygon fill="#63b8ff" stroke="#63b8ff" points="180.98,-1094.35 190.51,-1089.72 180.17,-1087.4 180.98,-1094.35"/>
</a>
</g>
</g>
<!-- Node22&#45;&gt;Node22 -->
<g id="edge24_Node000022_Node000022" class="edge">
<title>Node22&#45;&gt;Node22</title>
<g id="a_edge24_Node000022_Node000022"><a xlink:title=" ">
<path fill="none" stroke="#63b8ff" d="M515.27,-148.89C510.18,-152.85 499.76,-155.5 484,-155.5 455.99,-155.5 444.83,-147.12 450.52,-137.91"/>
<polygon fill="#63b8ff" stroke="#63b8ff" points="518.64,-149.89 517.18,-139.4 511.78,-148.51 518.64,-149.89"/>
</a>
</g>
</g>
<!-- Node23&#45;&gt;Node3 -->
<g id="edge26_Node000023_Node000003" class="edge">
<title>Node23&#45;&gt;Node3</title>
<g id="a_edge26_Node000023_Node000003"><a xlink:title=" ">
<path fill="none" stroke="#63b8ff" d="M402.91,-78.26C394.23,-82.22 386.28,-87.56 380,-94.75 313.37,-171.07 275.57,-939.76 269.88,-1063.87"/>
<polygon fill="#63b8ff" stroke="#63b8ff" points="403.9,-81.63 411.98,-74.78 401.39,-75.1 403.9,-81.63"/>
</a>
</g>
</g>
</g>
</svg>
