<?xml version="1.0" encoding="UTF-8" standalone="no"?>
<!DOCTYPE svg PUBLIC "-//W3C//DTD SVG 1.1//EN"
 "http://www.w3.org/Graphics/SVG/1.1/DTD/svg11.dtd">
<!-- Generated by graphviz version 14.1.4 (0)
 -->
<!-- Title: /opt/unreal&#45;engine/Engine/Source/Runtime/Core/Public/Async/Async.h Pages: 1 -->
<svg width="600pt" height="232pt"
 viewBox="0.00 0.00 600.00 232.00" xmlns="http://www.w3.org/2000/svg" xmlns:xlink="http://www.w3.org/1999/xlink">
<g id="graph0" class="graph" transform="scale(1 1) rotate(0) translate(4 227.5)">
<title>/opt/unreal&#45;engine/Engine/Source/Runtime/Core/Public/Async/Async.h</title>
<!-- Node1 -->
<g id="Node000001" class="node">
<title>Node1</title>
<g id="a_Node000001"><a xlink:title=" ">
<polygon fill="#999999" stroke="#666666" points="324.88,-223.5 177.62,-223.5 177.62,-177.25 324.88,-177.25 324.88,-223.5"/>
<text xml:space="preserve" text-anchor="start" x="185.62" y="-210" font-family="Helvetica,sans-Serif" font-size="10.00">/opt/unreal&#45;engine</text>
<text xml:space="preserve" text-anchor="start" x="185.62" y="-197.25" font-family="Helvetica,sans-Serif" font-size="10.00">/Engine/Source/Runtime</text>
<text xml:space="preserve" text-anchor="middle" x="251.25" y="-184.5" font-family="Helvetica,sans-Serif" font-size="10.00">/Core/Public/Async/Async.h</text>
</a>
</g>
</g>
<!-- Node2 -->
<g id="Node000002" class="node">
<title>Node2</title>
<g id="a_Node000002"><a xlink:href="$CoroParallelFor_8h.html" xlink:title=" ">
<polygon fill="white" stroke="#666666" points="152.5,-141.25 0,-141.25 0,-82.25 152.5,-82.25 152.5,-141.25"/>
<text xml:space="preserve" text-anchor="start" x="8" y="-127.75" font-family="Helvetica,sans-Serif" font-size="10.00">/opt/unreal&#45;engine</text>
<text xml:space="preserve" text-anchor="start" x="8" y="-115" font-family="Helvetica,sans-Serif" font-size="10.00">/Engine/Source/Runtime</text>
<text xml:space="preserve" text-anchor="start" x="8" y="-102.25" font-family="Helvetica,sans-Serif" font-size="10.00">/Core/Public/Experimental</text>
<text xml:space="preserve" text-anchor="middle" x="76.25" y="-89.5" font-family="Helvetica,sans-Serif" font-size="10.00">/Coroutine/CoroParallelFor.h</text>
</a>
</g>
</g>
<!-- Node1&#45;&gt;Node2 -->
<g id="edge1_Node000001_Node000002" class="edge">
<title>Node1&#45;&gt;Node2</title>
<g id="a_edge1_Node000001_Node000002"><a xlink:title=" ">
<path fill="none" stroke="#63b8ff" d="M195.54,-171.8C176.15,-162.2 154.36,-151.41 134.75,-141.71"/>
<polygon fill="#63b8ff" stroke="#63b8ff" points="193.86,-174.87 204.37,-176.17 196.96,-168.6 193.86,-174.87"/>
</a>
</g>
</g>
<!-- Node3 -->
<g id="Node000003" class="node">
<title>Node3</title>
<g id="a_Node000003"><a xlink:href="$IPlatformFileManagedStorageWrapper_8h.html" xlink:title=" ">
<polygon fill="white" stroke="#666666" points="331.62,-141.25 170.88,-141.25 170.88,-82.25 331.62,-82.25 331.62,-141.25"/>
<text xml:space="preserve" text-anchor="start" x="178.88" y="-127.75" font-family="Helvetica,sans-Serif" font-size="10.00">/opt/unreal&#45;engine</text>
<text xml:space="preserve" text-anchor="start" x="178.88" y="-115" font-family="Helvetica,sans-Serif" font-size="10.00">/Engine/Source/Runtime</text>
<text xml:space="preserve" text-anchor="start" x="178.88" y="-102.25" font-family="Helvetica,sans-Serif" font-size="10.00">/Core/Public/HAL/IPlatformFile</text>
<text xml:space="preserve" text-anchor="middle" x="251.25" y="-89.5" font-family="Helvetica,sans-Serif" font-size="10.00">ManagedStorageWrapper.h</text>
</a>
</g>
</g>
<!-- Node1&#45;&gt;Node3 -->
<g id="edge2_Node000001_Node000003" class="edge">
<title>Node1&#45;&gt;Node3</title>
<g id="a_edge2_Node000001_Node000003"><a xlink:title=" ">
<path fill="none" stroke="#63b8ff" d="M251.25,-165.8C251.25,-157.79 251.25,-149.3 251.25,-141.53"/>
<polygon fill="#63b8ff" stroke="#63b8ff" points="247.75,-165.55 251.25,-175.55 254.75,-165.55 247.75,-165.55"/>
</a>
</g>
</g>
<!-- Node4 -->
<g id="Node000004" class="node">
<title>Node4</title>
<g id="a_Node000004"><a xlink:href="$AutomationTest_8h.html" xlink:title=" ">
<polygon fill="white" stroke="#666666" points="508.88,-141.25 349.62,-141.25 349.62,-82.25 508.88,-82.25 508.88,-141.25"/>
<text xml:space="preserve" text-anchor="start" x="357.62" y="-127.75" font-family="Helvetica,sans-Serif" font-size="10.00">/opt/unreal&#45;engine</text>
<text xml:space="preserve" text-anchor="start" x="357.62" y="-115" font-family="Helvetica,sans-Serif" font-size="10.00">/Engine/Source/Runtime</text>
<text xml:space="preserve" text-anchor="start" x="357.62" y="-102.25" font-family="Helvetica,sans-Serif" font-size="10.00">/Core/Public/Misc/Automation</text>
<text xml:space="preserve" text-anchor="middle" x="429.25" y="-89.5" font-family="Helvetica,sans-Serif" font-size="10.00">Test.h</text>
</a>
</g>
</g>
<!-- Node1&#45;&gt;Node4 -->
<g id="edge3_Node000001_Node000004" class="edge">
<title>Node1&#45;&gt;Node4</title>
<g id="a_edge3_Node000001_Node000004"><a xlink:title=" ">
<path fill="none" stroke="#63b8ff" d="M307.65,-171.93C327.43,-162.3 349.71,-151.46 369.74,-141.71"/>
<polygon fill="#63b8ff" stroke="#63b8ff" points="306.37,-168.66 298.91,-176.18 309.44,-174.95 306.37,-168.66"/>
</a>
</g>
</g>
<!-- Node5 -->
<g id="Node000005" class="node">
<title>Node5</title>
<g id="a_Node000005"><a xlink:href="$Core_8h.html" xlink:title=" ">
<polygon fill="white" stroke="#666666" points="412.38,-46.25 280.12,-46.25 280.12,0 412.38,0 412.38,-46.25"/>
<text xml:space="preserve" text-anchor="start" x="288.12" y="-32.75" font-family="Helvetica,sans-Serif" font-size="10.00">/opt/unreal&#45;engine</text>
<text xml:space="preserve" text-anchor="start" x="288.12" y="-20" font-family="Helvetica,sans-Serif" font-size="10.00">/Engine/Source/Runtime</text>
<text xml:space="preserve" text-anchor="middle" x="346.25" y="-7.25" font-family="Helvetica,sans-Serif" font-size="10.00">/Core/Public/Core.h</text>
</a>
</g>
</g>
<!-- Node4&#45;&gt;Node5 -->
<g id="edge4_Node000004_Node000005" class="edge">
<title>Node4&#45;&gt;Node5</title>
<g id="a_edge4_Node000004_Node000005"><a xlink:title=" ">
<path fill="none" stroke="#63b8ff" d="M393.66,-73.6C384.83,-64.39 375.64,-54.8 367.73,-46.54"/>
<polygon fill="#63b8ff" stroke="#63b8ff" points="391.12,-76.01 400.57,-80.81 396.17,-71.17 391.12,-76.01"/>
</a>
</g>
</g>
<!-- Node6 -->
<g id="Node000006" class="node">
<title>Node6</title>
<g id="a_Node000006"><a xlink:href="$CoreSharedPCH_8h.html" xlink:title=" ">
<polygon fill="white" stroke="#666666" points="592.38,-46.25 430.12,-46.25 430.12,0 592.38,0 592.38,-46.25"/>
<text xml:space="preserve" text-anchor="start" x="438.12" y="-32.75" font-family="Helvetica,sans-Serif" font-size="10.00">/opt/unreal&#45;engine</text>
<text xml:space="preserve" text-anchor="start" x="438.12" y="-20" font-family="Helvetica,sans-Serif" font-size="10.00">/Engine/Source/Runtime</text>
<text xml:space="preserve" text-anchor="middle" x="511.25" y="-7.25" font-family="Helvetica,sans-Serif" font-size="10.00">/Core/Public/CoreSharedPCH.h</text>
</a>
</g>
</g>
<!-- Node4&#45;&gt;Node6 -->
<g id="edge5_Node000004_Node000006" class="edge">
<title>Node4&#45;&gt;Node6</title>
<g id="a_edge5_Node000004_Node000006"><a xlink:title=" ">
<path fill="none" stroke="#63b8ff" d="M464.41,-73.6C473.13,-64.39 482.21,-54.8 490.03,-46.54"/>
<polygon fill="#63b8ff" stroke="#63b8ff" points="461.93,-71.14 457.6,-80.81 467.01,-75.95 461.93,-71.14"/>
</a>
</g>
</g>
</g>
</svg>
