<?xml version="1.0" encoding="UTF-8" standalone="no"?>
<!DOCTYPE svg PUBLIC "-//W3C//DTD SVG 1.1//EN"
 "http://www.w3.org/Graphics/SVG/1.1/DTD/svg11.dtd">
<!-- Generated by graphviz version 14.1.4 (0)
 -->
<!-- Title: MakeAttributeLambda Pages: 1 -->
<svg width="424pt" height="125pt"
 viewBox="0.00 0.00 424.00 125.00" xmlns="http://www.w3.org/2000/svg" xmlns:xlink="http://www.w3.org/1999/xlink">
<g id="graph0" class="graph" transform="scale(1 1) rotate(0) translate(4 120.75)">
<title>MakeAttributeLambda</title>
<!-- Node1 -->
<g id="Node000001" class="node">
<title>Node1</title>
<g id="a_Node000001"><a xlink:title=" ">
<polygon fill="#999999" stroke="#666666" points="124,-59.75 0,-59.75 0,-39 124,-39 124,-59.75"/>
<text xml:space="preserve" text-anchor="middle" x="62" y="-46.25" font-family="Helvetica,sans-Serif" font-size="10.00">MakeAttributeLambda</text>
</a>
</g>
</g>
<!-- Node2 -->
<g id="Node000002" class="node">
<title>Node2</title>
<g id="a_Node000002"><a xlink:href="$classTAttribute.html#a18379263080a0f464a153ef8d69e6c22" xlink:title=" ">
<polygon fill="white" stroke="#666666" points="262.25,-98.75 160,-98.75 160,-78 262.25,-78 262.25,-98.75"/>
<text xml:space="preserve" text-anchor="middle" x="211.12" y="-85.25" font-family="Helvetica,sans-Serif" font-size="10.00">TAttribute::Create</text>
</a>
</g>
</g>
<!-- Node1&#45;&gt;Node2 -->
<g id="edge1_Node000001_Node000002" class="edge">
<title>Node1&#45;&gt;Node2</title>
<g id="a_edge1_Node000001_Node000002"><a xlink:title=" ">
<path fill="none" stroke="#63b8ff" d="M103.98,-60.24C120.73,-64.68 140.3,-69.87 158.05,-74.57"/>
<polygon fill="#63b8ff" stroke="#63b8ff" points="157.08,-77.93 167.64,-77.11 158.88,-71.17 157.08,-77.93"/>
</a>
</g>
</g>
<!-- Node4 -->
<g id="Node000004" class="node">
<title>Node4</title>
<g id="a_Node000004"><a xlink:href="$UnrealTemplate_8h.html#a9636e4bb9a25311e778e850ad95c928f" xlink:title=" ">
<polygon fill="white" stroke="#666666" points="237.88,-59.75 184.38,-59.75 184.38,-39 237.88,-39 237.88,-59.75"/>
<text xml:space="preserve" text-anchor="middle" x="211.12" y="-46.25" font-family="Helvetica,sans-Serif" font-size="10.00">DeclVal</text>
</a>
</g>
</g>
<!-- Node1&#45;&gt;Node4 -->
<g id="edge4_Node000001_Node000004" class="edge">
<title>Node1&#45;&gt;Node4</title>
<g id="a_edge4_Node000001_Node000004"><a xlink:title=" ">
<path fill="none" stroke="#63b8ff" d="M124.12,-49.38C140.69,-49.38 158.13,-49.38 172.94,-49.38"/>
<polygon fill="#63b8ff" stroke="#63b8ff" points="172.67,-52.88 182.67,-49.38 172.67,-45.88 172.67,-52.88"/>
</a>
</g>
</g>
<!-- Node5 -->
<g id="Node000005" class="node">
<title>Node5</title>
<g id="a_Node000005"><a xlink:href="$UnrealTemplate_8h.html#aea228b8b6d93b902d974d3bfa72f888f" xlink:title=" ">
<polygon fill="white" stroke="#666666" points="238.62,-20.75 183.62,-20.75 183.62,0 238.62,0 238.62,-20.75"/>
<text xml:space="preserve" text-anchor="middle" x="211.12" y="-7.25" font-family="Helvetica,sans-Serif" font-size="10.00">Forward</text>
</a>
</g>
</g>
<!-- Node1&#45;&gt;Node5 -->
<g id="edge5_Node000001_Node000005" class="edge">
<title>Node1&#45;&gt;Node5</title>
<g id="a_edge5_Node000001_Node000005"><a xlink:title=" ">
<path fill="none" stroke="#63b8ff" d="M103.98,-38.51C125.36,-32.84 151.34,-25.96 172.25,-20.42"/>
<polygon fill="#63b8ff" stroke="#63b8ff" points="173.04,-23.83 181.81,-17.88 171.25,-17.06 173.04,-23.83"/>
</a>
</g>
</g>
<!-- Node3 -->
<g id="Node000003" class="node">
<title>Node3</title>
<g id="a_Node000003"><a xlink:href="$classTAttribute.html#ac2c7bbd4679cf26149a30afb3b34e75f" xlink:title=" ">
<polygon fill="white" stroke="#666666" points="416.25,-98.75 298.25,-98.75 298.25,-78 416.25,-78 416.25,-98.75"/>
<text xml:space="preserve" text-anchor="middle" x="357.25" y="-85.25" font-family="Helvetica,sans-Serif" font-size="10.00">TAttribute::TAttribute</text>
</a>
</g>
</g>
<!-- Node2&#45;&gt;Node3 -->
<g id="edge2_Node000002_Node000003" class="edge">
<title>Node2&#45;&gt;Node3</title>
<g id="a_edge2_Node000002_Node000003"><a xlink:title=" ">
<path fill="none" stroke="#63b8ff" d="M262.53,-88.38C270.37,-88.38 278.58,-88.38 286.75,-88.38"/>
<polygon fill="#63b8ff" stroke="#63b8ff" points="286.71,-91.88 296.71,-88.38 286.71,-84.88 286.71,-91.88"/>
</a>
</g>
</g>
<!-- Node3&#45;&gt;Node3 -->
<g id="edge3_Node000003_Node000003" class="edge">
<title>Node3&#45;&gt;Node3</title>
<g id="a_edge3_Node000003_Node000003"><a xlink:title=" ">
<path fill="none" stroke="#63b8ff" d="M333.7,-99.15C324.29,-107.81 332.13,-116.75 357.25,-116.75 370.98,-116.75 379.56,-114.08 382.96,-110.24"/>
<polygon fill="#63b8ff" stroke="#63b8ff" points="386.44,-109.78 381.09,-100.63 379.57,-111.12 386.44,-109.78"/>
</a>
</g>
</g>
</g>
</svg>
