<?xml version="1.0" encoding="UTF-8" standalone="no"?>
<!DOCTYPE svg PUBLIC "-//W3C//DTD SVG 1.1//EN"
 "http://www.w3.org/Graphics/SVG/1.1/DTD/svg11.dtd">
<!-- Generated by graphviz version 14.1.4 (0)
 -->
<!-- Title: /opt/unreal&#45;engine/Engine/Source/Runtime/Engine/Classes/Engine/AutoDestroySubsystem.h Pages: 1 -->
<!--zoomable 237 -->

<svg id="main" version="1.1" xmlns="http://www.w3.org/2000/svg" xmlns:xlink="http://www.w3.org/1999/xlink" xml:space="preserve" onload="init(evt)">

<style type="text/css"><![CDATA[
.node, .edge {opacity: 0.7;}
.node.selected, .edge.selected {opacity: 1;}
.edge:hover path { stroke: red; }
.edge:hover polygon { stroke: red; fill: red; }
]]></style>

<defs>
  <circle id="rim" cx="0" cy="0" r="7"/>
  <circle id="rim2" cx="0" cy="0" r="3.5"/>
  <g id="zoomPlus">
    <use xlink:href="#rim" fill="#404040"><set attributeName="fill" to="#808080" begin="zoomplus.mouseover" end="zoomplus.mouseout"/></use>
    <path d="M-4,0h8M0,-4v8" fill="none" stroke="white" stroke-width="1.5" pointer-events="none"/>
  </g>
  <g id="zoomMin">
    <use xlink:href="#rim" fill="#404040"><set attributeName="fill" to="#808080" begin="zoomminus.mouseover" end="zoomminus.mouseout"/></use>
    <path d="M-4,0h8" fill="none" stroke="white" stroke-width="1.5" pointer-events="none"/>
  </g>
  <g id="arrowUp" transform="translate(30 24)">
    <use xlink:href="#rim"/>
    <path pointer-events="none" fill="none" stroke="white" stroke-width="1.5" d="M0,-3.0v7 M-2.5,-0.5L0,-3.0L2.5,-0.5"/>
  </g>
  <g id="arrowRight" transform="rotate(90) translate(36 -43)">
    <use xlink:href="#rim"/>
    <path pointer-events="none" fill="none" stroke="white" stroke-width="1.5" d="M0,-3.0v7 M-2.5,-0.5L0,-3.0L2.5,-0.5"/>
  </g>
  <g id="arrowDown" transform="rotate(180) translate(-30 -48)">
    <use xlink:href="#rim"/>
    <path pointer-events="none" fill="none" stroke="white" stroke-width="1.5" d="M0,-3.0v7 M-2.5,-0.5L0,-3.0L2.5,-0.5"/>
  </g>
  <g id="arrowLeft" transform="rotate(270) translate(-36 17)">
    <use xlink:href="#rim"/>
    <path pointer-events="none" fill="none" stroke="white" stroke-width="1.5" d="M0,-3.0v7 M-2.5,-0.5L0,-3.0L2.5,-0.5"/>
  </g>
  <g id="resetDef">
    <use xlink:href="#rim2" fill="#404040"><set attributeName="fill" to="#808080" begin="reset.mouseover" end="reset.mouseout"/></use>
  </g>
</defs>
<script type="application/ecmascript">
var viewWidth = 959;
var viewHeight = 237;
var sectionId = 'dynsection-0';
</script>
<script type="application/ecmascript" xlink:href="svg.min.js"/>
<svg id="graph" class="graph">
<g id="viewport">
<title>/opt/unreal&#45;engine/Engine/Source/Runtime/Engine/Classes/Engine/AutoDestroySubsystem.h</title>
<!-- Node1 -->
<g id="Node000001" class="node">
<title>Node1</title>
<g id="a_Node000001"><a xlink:title=" ">
<polygon fill="#999999" stroke="#666666" points="396.25,-229.25 253.5,-229.25 253.5,-170.25 396.25,-170.25 396.25,-229.25"/>
<text xml:space="preserve" text-anchor="start" x="261.5" y="-215.75" font-family="Helvetica,sans-Serif" font-size="10.00">/opt/unreal&#45;engine</text>
<text xml:space="preserve" text-anchor="start" x="261.5" y="-203" font-family="Helvetica,sans-Serif" font-size="10.00">/Engine/Source/Runtime</text>
<text xml:space="preserve" text-anchor="start" x="261.5" y="-190.25" font-family="Helvetica,sans-Serif" font-size="10.00">/Engine/Classes/Engine</text>
<text xml:space="preserve" text-anchor="middle" x="324.88" y="-177.5" font-family="Helvetica,sans-Serif" font-size="10.00">/AutoDestroySubsystem.h</text>
</a>
</g>
</g>
<!-- Node2 -->
<g id="Node000002" class="node">
<title>Node2</title>
<g id="a_Node000002"><a xlink:title=" ">
<polygon fill="#e0e0e0" stroke="#999999" points="208.75,-134.25 39,-134.25 39,-113.5 208.75,-113.5 208.75,-134.25"/>
<text xml:space="preserve" text-anchor="middle" x="123.88" y="-120.75" font-family="Helvetica,sans-Serif" font-size="10.00">Subsystems/WorldSubsystem.h</text>
</a>
</g>
</g>
<!-- Node1&#45;&gt;Node2 -->
<g id="edge1_Node000001_Node000002" class="edge">
<title>Node1&#45;&gt;Node2</title>
<g id="a_edge1_Node000001_Node000002"><a xlink:title=" ">
<path fill="none" stroke="#63b8ff" d="M253.16,-172.39C222.13,-160.99 187.09,-148.11 161.33,-138.64"/>
<polygon fill="#63b8ff" stroke="#63b8ff" points="162.56,-135.36 151.97,-135.2 160.14,-141.93 162.56,-135.36"/>
</a>
</g>
</g>
<!-- Node3 -->
<g id="Node000003" class="node">
<title>Node3</title>
<g id="a_Node000003"><a xlink:title=" ">
<polygon fill="#e0e0e0" stroke="#999999" points="304.62,-134.25 227.12,-134.25 227.12,-113.5 304.62,-113.5 304.62,-134.25"/>
<text xml:space="preserve" text-anchor="middle" x="265.88" y="-120.75" font-family="Helvetica,sans-Serif" font-size="10.00">Stats/Stats.h</text>
</a>
</g>
</g>
<!-- Node1&#45;&gt;Node3 -->
<g id="edge2_Node000001_Node000003" class="edge">
<title>Node1&#45;&gt;Node3</title>
<g id="a_edge2_Node000001_Node000003"><a xlink:title=" ">
<path fill="none" stroke="#63b8ff" d="M301.9,-169.98C294.81,-161.11 287.2,-151.57 280.8,-143.57"/>
<polygon fill="#63b8ff" stroke="#63b8ff" points="283.65,-141.52 274.67,-135.89 278.18,-145.89 283.65,-141.52"/>
</a>
</g>
</g>
<!-- Node4 -->
<g id="Node000004" class="node">
<title>Node4</title>
<g id="a_Node000004"><a xlink:href="EngineTypes_8h.html" target="_top" xlink:title=" ">
<polygon fill="white" stroke="#666666" points="444.75,-134.25 323,-134.25 323,-113.5 444.75,-113.5 444.75,-134.25"/>
<text xml:space="preserve" text-anchor="middle" x="383.88" y="-120.75" font-family="Helvetica,sans-Serif" font-size="10.00">Engine/EngineTypes.h</text>
</a>
</g>
</g>
<!-- Node1&#45;&gt;Node4 -->
<g id="edge3_Node000001_Node000004" class="edge">
<title>Node1&#45;&gt;Node4</title>
<g id="a_edge3_Node000001_Node000004"><a xlink:title=" ">
<path fill="none" stroke="#63b8ff" d="M347.85,-169.98C354.94,-161.11 362.55,-151.57 368.95,-143.57"/>
<polygon fill="#63b8ff" stroke="#63b8ff" points="371.57,-145.89 375.08,-135.89 366.1,-141.52 371.57,-145.89"/>
</a>
</g>
</g>
<!-- Node17 -->
<g id="Node000017" class="node">
<title>Node17</title>
<g id="a_Node000017"><a xlink:title=" ">
<polygon fill="#e0e0e0" stroke="#999999" points="655,-134.25 462.75,-134.25 462.75,-113.5 655,-113.5 655,-134.25"/>
<text xml:space="preserve" text-anchor="middle" x="558.88" y="-120.75" font-family="Helvetica,sans-Serif" font-size="10.00">AutoDestroySubsystem.generated.h</text>
</a>
</g>
</g>
<!-- Node1&#45;&gt;Node17 -->
<g id="edge18_Node000001_Node000017" class="edge">
<title>Node1&#45;&gt;Node17</title>
<g id="a_edge18_Node000001_Node000017"><a xlink:title=" ">
<path fill="none" stroke="#63b8ff" d="M396.67,-176.08C436.14,-163.62 483.72,-148.6 517.11,-138.06"/>
<polygon fill="#63b8ff" stroke="#63b8ff" points="517.93,-141.47 526.41,-135.12 515.82,-134.8 517.93,-141.47"/>
</a>
</g>
</g>
<!-- Node5 -->
<g id="Node000005" class="node">
<title>Node5</title>
<g id="a_Node000005"><a xlink:title=" ">
<polygon fill="#e0e0e0" stroke="#999999" points="135.25,-77.5 4.5,-77.5 4.5,-56.75 135.25,-56.75 135.25,-77.5"/>
<text xml:space="preserve" text-anchor="middle" x="69.88" y="-64" font-family="Helvetica,sans-Serif" font-size="10.00">Misc/EnumClassFlags.h</text>
</a>
</g>
</g>
<!-- Node4&#45;&gt;Node5 -->
<g id="edge4_Node000004_Node000005" class="edge">
<title>Node4&#45;&gt;Node5</title>
<g id="a_edge4_Node000004_Node000005"><a xlink:title=" ">
<path fill="none" stroke="#63b8ff" d="M327.38,-113.02C274.07,-103.73 194.11,-89.79 137.46,-79.91"/>
<polygon fill="#63b8ff" stroke="#63b8ff" points="138.39,-76.52 127.94,-78.25 137.19,-83.42 138.39,-76.52"/>
</a>
</g>
</g>
<!-- Node6 -->
<g id="Node000006" class="node">
<title>Node6</title>
<g id="a_Node000006"><a xlink:title=" ">
<polygon fill="#e0e0e0" stroke="#999999" points="133.75,-20.75 0,-20.75 0,0 133.75,0 133.75,-20.75"/>
<text xml:space="preserve" text-anchor="middle" x="66.88" y="-7.25" font-family="Helvetica,sans-Serif" font-size="10.00">UObject/ObjectMacros.h</text>
</a>
</g>
</g>
<!-- Node4&#45;&gt;Node6 -->
<g id="edge5_Node000004_Node000006" class="edge">
<title>Node4&#45;&gt;Node6</title>
<g id="a_edge5_Node000004_Node000006"><a xlink:title=" ">
<path fill="none" stroke="#63b8ff" d="M333.4,-113.02C296.85,-105.2 246.59,-93.01 203.88,-77.5 164.43,-63.18 121.17,-41.16 94.02,-26.51"/>
<polygon fill="#63b8ff" stroke="#63b8ff" points="95.9,-23.55 85.44,-21.83 92.55,-29.69 95.9,-23.55"/>
</a>
</g>
</g>
<!-- Node7 -->
<g id="Node000007" class="node">
<title>Node7</title>
<g id="a_Node000007"><a xlink:title=" ">
<polygon fill="#e0e0e0" stroke="#999999" points="250.12,-20.75 151.62,-20.75 151.62,0 250.12,0 250.12,-20.75"/>
<text xml:space="preserve" text-anchor="middle" x="200.88" y="-7.25" font-family="Helvetica,sans-Serif" font-size="10.00">UObject/Object.h</text>
</a>
</g>
</g>
<!-- Node4&#45;&gt;Node7 -->
<g id="edge6_Node000004_Node000007" class="edge">
<title>Node4&#45;&gt;Node7</title>
<g id="a_edge6_Node000004_Node000007"><a xlink:title=" ">
<path fill="none" stroke="#63b8ff" d="M325.85,-113.01C284.99,-104.95 234.99,-92.47 219.88,-77.5 207.93,-65.67 203.37,-46.86 201.7,-32.32"/>
<polygon fill="#63b8ff" stroke="#63b8ff" points="205.19,-32.14 200.96,-22.43 198.21,-32.66 205.19,-32.14"/>
</a>
</g>
</g>
<!-- Node8 -->
<g id="Node000008" class="node">
<title>Node8</title>
<g id="a_Node000008"><a xlink:title=" ">
<polygon fill="#e0e0e0" stroke="#999999" points="504.5,-77.5 411.25,-77.5 411.25,-56.75 504.5,-56.75 504.5,-77.5"/>
<text xml:space="preserve" text-anchor="middle" x="457.88" y="-64" font-family="Helvetica,sans-Serif" font-size="10.00">UObject/Class.h</text>
</a>
</g>
</g>
<!-- Node4&#45;&gt;Node8 -->
<g id="edge7_Node000004_Node000008" class="edge">
<title>Node4&#45;&gt;Node8</title>
<g id="a_edge7_Node000004_Node000008"><a xlink:title=" ">
<path fill="none" stroke="#63b8ff" d="M397.1,-113.09C407.84,-105.15 423.2,-93.78 435.79,-84.46"/>
<polygon fill="#63b8ff" stroke="#63b8ff" points="437.59,-87.49 443.54,-78.73 433.42,-81.86 437.59,-87.49"/>
</a>
</g>
</g>
<!-- Node9 -->
<g id="Node000009" class="node">
<title>Node9</title>
<g id="a_Node000009"><a xlink:title=" ">
<polygon fill="#e0e0e0" stroke="#999999" points="653.62,-77.5 522.12,-77.5 522.12,-56.75 653.62,-56.75 653.62,-77.5"/>
<text xml:space="preserve" text-anchor="middle" x="587.88" y="-64" font-family="Helvetica,sans-Serif" font-size="10.00">Templates/SubclassOf.h</text>
</a>
</g>
</g>
<!-- Node4&#45;&gt;Node9 -->
<g id="edge8_Node000004_Node000009" class="edge">
<title>Node4&#45;&gt;Node9</title>
<g id="a_edge8_Node000004_Node000009"><a xlink:title=" ">
<path fill="none" stroke="#63b8ff" d="M420.35,-113.09C453.89,-104.08 503.84,-90.68 540.47,-80.85"/>
<polygon fill="#63b8ff" stroke="#63b8ff" points="541.16,-84.29 549.91,-78.31 539.35,-77.52 541.16,-84.29"/>
</a>
</g>
</g>
<!-- Node10 -->
<g id="Node000010" class="node">
<title>Node10</title>
<g id="a_Node000010"><a xlink:href="TimerHandle_8h.html" target="_top" xlink:title=" ">
<polygon fill="white" stroke="#666666" points="794.5,-77.5 671.25,-77.5 671.25,-56.75 794.5,-56.75 794.5,-77.5"/>
<text xml:space="preserve" text-anchor="middle" x="732.88" y="-64" font-family="Helvetica,sans-Serif" font-size="10.00">Engine/TimerHandle.h</text>
</a>
</g>
</g>
<!-- Node4&#45;&gt;Node10 -->
<g id="edge9_Node000004_Node000010" class="edge">
<title>Node4&#45;&gt;Node10</title>
<g id="a_edge9_Node000004_Node000010"><a xlink:title=" ">
<path fill="none" stroke="#63b8ff" d="M445.07,-113.28C504.91,-103.89 596.08,-89.59 659.72,-79.6"/>
<polygon fill="#63b8ff" stroke="#63b8ff" points="660.04,-83.09 669.38,-78.09 658.96,-76.18 660.04,-83.09"/>
</a>
</g>
</g>
<!-- Node12 -->
<g id="Node000012" class="node">
<title>Node12</title>
<g id="a_Node000012"><a xlink:href="NaniteAssemblyData_8h.html" target="_top" xlink:title=" ">
<polygon fill="white" stroke="#666666" points="393.12,-77.5 228.62,-77.5 228.62,-56.75 393.12,-56.75 393.12,-77.5"/>
<text xml:space="preserve" text-anchor="middle" x="310.88" y="-64" font-family="Helvetica,sans-Serif" font-size="10.00">Engine/NaniteAssemblyData.h</text>
</a>
</g>
</g>
<!-- Node4&#45;&gt;Node12 -->
<g id="edge11_Node000004_Node000012" class="edge">
<title>Node4&#45;&gt;Node12</title>
<g id="a_edge11_Node000004_Node000012"><a xlink:title=" ">
<path fill="none" stroke="#63b8ff" d="M370.82,-113.09C360.24,-105.15 345.08,-93.78 332.66,-84.46"/>
<polygon fill="#63b8ff" stroke="#63b8ff" points="335.12,-81.94 325.02,-78.74 330.92,-87.54 335.12,-81.94"/>
</a>
</g>
</g>
<!-- Node16 -->
<g id="Node000016" class="node">
<title>Node16</title>
<g id="a_Node000016"><a xlink:title=" ">
<polygon fill="#e0e0e0" stroke="#999999" points="951,-77.5 812.75,-77.5 812.75,-56.75 951,-56.75 951,-77.5"/>
<text xml:space="preserve" text-anchor="middle" x="881.88" y="-64" font-family="Helvetica,sans-Serif" font-size="10.00">EngineTypes.generated.h</text>
</a>
</g>
</g>
<!-- Node4&#45;&gt;Node16 -->
<g id="edge17_Node000004_Node000016" class="edge">
<title>Node4&#45;&gt;Node16</title>
<g id="a_edge17_Node000004_Node000016"><a xlink:title=" ">
<path fill="none" stroke="#63b8ff" d="M444.94,-114.58C447.96,-114.21 450.95,-113.85 453.88,-113.5 605.53,-95.55 646.56,-94.85 801.22,-77.78"/>
<polygon fill="#63b8ff" stroke="#63b8ff" points="801.5,-81.27 811.06,-76.69 800.73,-74.31 801.5,-81.27"/>
</a>
</g>
</g>
<!-- Node11 -->
<g id="Node000011" class="node">
<title>Node11</title>
<g id="a_Node000011"><a xlink:title=" ">
<polygon fill="#e0e0e0" stroke="#999999" points="872.75,-20.75 733,-20.75 733,0 872.75,0 872.75,-20.75"/>
<text xml:space="preserve" text-anchor="middle" x="802.88" y="-7.25" font-family="Helvetica,sans-Serif" font-size="10.00">TimerHandle.generated.h</text>
</a>
</g>
</g>
<!-- Node10&#45;&gt;Node11 -->
<g id="edge10_Node000010_Node000011" class="edge">
<title>Node10&#45;&gt;Node11</title>
<g id="a_edge10_Node000010_Node000011"><a xlink:title=" ">
<path fill="none" stroke="#63b8ff" d="M745.39,-56.34C755.44,-48.47 769.79,-37.25 781.63,-27.99"/>
<polygon fill="#63b8ff" stroke="#63b8ff" points="783.56,-30.93 789.28,-22.01 779.24,-25.41 783.56,-30.93"/>
</a>
</g>
</g>
<!-- Node12&#45;&gt;Node6 -->
<g id="edge13_Node000012_Node000006" class="edge">
<title>Node12&#45;&gt;Node6</title>
<g id="a_edge13_Node000012_Node000006"><a xlink:title=" ">
<path fill="none" stroke="#63b8ff" d="M266.97,-56.27C226.33,-47.15 165.74,-33.56 121.88,-23.72"/>
<polygon fill="#63b8ff" stroke="#63b8ff" points="122.84,-20.35 112.31,-21.57 121.31,-27.18 122.84,-20.35"/>
</a>
</g>
</g>
<!-- Node12&#45;&gt;Node7 -->
<g id="edge15_Node000012_Node000007" class="edge">
<title>Node12&#45;&gt;Node7</title>
<g id="a_edge15_Node000012_Node000007"><a xlink:title=" ">
<path fill="none" stroke="#63b8ff" d="M291.21,-56.34C274.32,-47.93 249.71,-35.68 230.44,-26.09"/>
<polygon fill="#63b8ff" stroke="#63b8ff" points="232.24,-23.08 221.73,-21.75 229.12,-29.34 232.24,-23.08"/>
</a>
</g>
</g>
<!-- Node13 -->
<g id="Node000013" class="node">
<title>Node13</title>
<g id="a_Node000013"><a xlink:title=" ">
<polygon fill="#e0e0e0" stroke="#999999" points="355.5,-20.75 268.25,-20.75 268.25,0 355.5,0 355.5,-20.75"/>
<text xml:space="preserve" text-anchor="middle" x="311.88" y="-7.25" font-family="Helvetica,sans-Serif" font-size="10.00">CoreMinimal.h</text>
</a>
</g>
</g>
<!-- Node12&#45;&gt;Node13 -->
<g id="edge12_Node000012_Node000013" class="edge">
<title>Node12&#45;&gt;Node13</title>
<g id="a_edge12_Node000012_Node000013"><a xlink:title=" ">
<path fill="none" stroke="#63b8ff" d="M311.05,-56.34C311.17,-49.72 311.34,-40.72 311.49,-32.52"/>
<polygon fill="#63b8ff" stroke="#63b8ff" points="314.99,-32.65 311.67,-22.59 307.99,-32.53 314.99,-32.65"/>
</a>
</g>
</g>
<!-- Node14 -->
<g id="Node000014" class="node">
<title>Node14</title>
<g id="a_Node000014"><a xlink:title=" ">
<polygon fill="#e0e0e0" stroke="#999999" points="516.25,-20.75 373.5,-20.75 373.5,0 516.25,0 516.25,-20.75"/>
<text xml:space="preserve" text-anchor="middle" x="444.88" y="-7.25" font-family="Helvetica,sans-Serif" font-size="10.00">UObject/UObjectGlobals.h</text>
</a>
</g>
</g>
<!-- Node12&#45;&gt;Node14 -->
<g id="edge14_Node000012_Node000014" class="edge">
<title>Node12&#45;&gt;Node14</title>
<g id="a_edge14_Node000012_Node000014"><a xlink:title=" ">
<path fill="none" stroke="#63b8ff" d="M334.83,-56.34C355.89,-47.73 386.78,-35.11 410.48,-25.43"/>
<polygon fill="#63b8ff" stroke="#63b8ff" points="411.79,-28.67 419.72,-21.65 409.14,-22.19 411.79,-28.67"/>
</a>
</g>
</g>
<!-- Node15 -->
<g id="Node000015" class="node">
<title>Node15</title>
<g id="a_Node000015"><a xlink:title=" ">
<polygon fill="#e0e0e0" stroke="#999999" points="715.38,-20.75 534.38,-20.75 534.38,0 715.38,0 715.38,-20.75"/>
<text xml:space="preserve" text-anchor="middle" x="624.88" y="-7.25" font-family="Helvetica,sans-Serif" font-size="10.00">NaniteAssemblyData.generated.h</text>
</a>
</g>
</g>
<!-- Node12&#45;&gt;Node15 -->
<g id="edge16_Node000012_Node000015" class="edge">
<title>Node12&#45;&gt;Node15</title>
<g id="a_edge16_Node000012_Node000015"><a xlink:title=" ">
<path fill="none" stroke="#63b8ff" d="M367.37,-56.27C420.68,-46.98 500.64,-33.04 557.29,-23.16"/>
<polygon fill="#63b8ff" stroke="#63b8ff" points="557.56,-26.67 566.81,-21.5 556.36,-19.77 557.56,-26.67"/>
</a>
</g>
</g>
</g>
</svg>

<g id="navigator" transform="translate(0 0)" fill="#404254">
  <rect fill="#f2f5e9" fill-opacity="0.5" stroke="#606060" stroke-width=".5" x="0" y="0" width="60" height="60"/>
  <use id="zoomplus" xlink:href="#zoomPlus" x="17" y="9" onmousedown="handleZoom(evt,'in')"/>
  <use id="zoomminus" xlink:href="#zoomMin" x="42" y="9" onmousedown="handleZoom(evt,'out')"/>
  <use id="reset" xlink:href="#resetDef" x="30" y="36" onmousedown="handleReset()"/>
   <use id="arrowup" xlink:href="#arrowUp" x="0" y="0" onmousedown="handlePan(0,-1)"/>
  <use id="arrowright" xlink:href="#arrowRight" x="0" y="0" onmousedown="handlePan(1,0)"/>
  <use id="arrowdown" xlink:href="#arrowDown" x="0" y="0" onmousedown="handlePan(0,1)"/>
  <use id="arrowleft" xlink:href="#arrowLeft" x="0" y="0" onmousedown="handlePan(-1,0)"/>
</g>
<svg viewBox="0 0 15 15" width="100%" height="30px" preserveAspectRatio="xMaxYMin meet">
 <g id="arrow_out" transform="scale(0.3 0.3)">
  <a xlink:href="AutoDestroySubsystem_8h__incl_org.svg" target="_base">
   <rect id="button" ry="5" rx="5" y="6" x="6" height="38" width="38"
        fill="#f2f5e9" fill-opacity="0.5" stroke="#606060" stroke-width="1.0"/>
   <path id="arrow"
     d="M 11.500037,31.436501 C 11.940474,20.09759 22.043105,11.32322 32.158766,21.979434 L 37.068811,17.246167 C 37.068811,17.246167 37.088388,32 37.088388,32 L 22.160133,31.978069 C 22.160133,31.978069 26.997745,27.140456 26.997745,27.140456 C 18.528582,18.264221 13.291696,25.230495 11.500037,31.436501 z"
     style="fill:#404040;"/>
  </a>
 </g>
</svg>

<style type='text/css'>
<![CDATA[
[data-mouse-over-selected='false'] { opacity: 0.7; }
[data-mouse-over-selected='true']  { opacity: 1.0; }
]]>
</style>
<script type="application/ecmascript"><![CDATA[
document.addEventListener('DOMContentLoaded', (event) => {
  highlightEdges();
  highlightAdjacentNodes();
});
]]></script>
</svg>
