<?xml version="1.0" encoding="UTF-8" standalone="no"?>
<!DOCTYPE svg PUBLIC "-//W3C//DTD SVG 1.1//EN"
 "http://www.w3.org/Graphics/SVG/1.1/DTD/svg11.dtd">
<!-- Generated by graphviz version 14.1.4 (0)
 -->
<!-- Title: /opt/unreal&#45;engine/Engine/Source/Runtime/Core/Public/Serialization/BitArchive.h Pages: 1 -->
<svg width="922pt" height="447pt"
 viewBox="0.00 0.00 922.00 447.00" xmlns="http://www.w3.org/2000/svg" xmlns:xlink="http://www.w3.org/1999/xlink">
<g id="graph0" class="graph" transform="scale(1 1) rotate(0) translate(4 443)">
<title>/opt/unreal&#45;engine/Engine/Source/Runtime/Core/Public/Serialization/BitArchive.h</title>
<!-- Node1 -->
<g id="Node000001" class="node">
<title>Node1</title>
<g id="a_Node000001"><a xlink:title=" ">
<polygon fill="#999999" stroke="#666666" points="249.54,-439 112.04,-439 112.04,-380 249.54,-380 249.54,-439"/>
<text xml:space="preserve" text-anchor="start" x="120.04" y="-425.5" font-family="Helvetica,sans-Serif" font-size="10.00">/opt/unreal&#45;engine</text>
<text xml:space="preserve" text-anchor="start" x="120.04" y="-412.75" font-family="Helvetica,sans-Serif" font-size="10.00">/Engine/Source/Runtime</text>
<text xml:space="preserve" text-anchor="start" x="120.04" y="-400" font-family="Helvetica,sans-Serif" font-size="10.00">/Core/Public/Serialization</text>
<text xml:space="preserve" text-anchor="middle" x="180.79" y="-387.25" font-family="Helvetica,sans-Serif" font-size="10.00">/BitArchive.h</text>
</a>
</g>
</g>
<!-- Node2 -->
<g id="Node000002" class="node">
<title>Node2</title>
<g id="a_Node000002"><a xlink:href="$BitReader_8h.html" xlink:title=" ">
<polygon fill="white" stroke="#666666" points="171.54,-344 34.04,-344 34.04,-285 171.54,-285 171.54,-344"/>
<text xml:space="preserve" text-anchor="start" x="42.04" y="-330.5" font-family="Helvetica,sans-Serif" font-size="10.00">/opt/unreal&#45;engine</text>
<text xml:space="preserve" text-anchor="start" x="42.04" y="-317.75" font-family="Helvetica,sans-Serif" font-size="10.00">/Engine/Source/Runtime</text>
<text xml:space="preserve" text-anchor="start" x="42.04" y="-305" font-family="Helvetica,sans-Serif" font-size="10.00">/Core/Public/Serialization</text>
<text xml:space="preserve" text-anchor="middle" x="102.79" y="-292.25" font-family="Helvetica,sans-Serif" font-size="10.00">/BitReader.h</text>
</a>
</g>
</g>
<!-- Node1&#45;&gt;Node2 -->
<g id="edge1_Node000001_Node000002" class="edge">
<title>Node1&#45;&gt;Node2</title>
<g id="a_edge1_Node000001_Node000002"><a xlink:title=" ">
<path fill="none" stroke="#63b8ff" d="M149.29,-370.94C141.87,-362.09 134.07,-352.79 127.03,-344.4"/>
<polygon fill="#63b8ff" stroke="#63b8ff" points="146.46,-373.01 155.57,-378.42 151.82,-368.51 146.46,-373.01"/>
</a>
</g>
</g>
<!-- Node6 -->
<g id="Node000006" class="node">
<title>Node6</title>
<g id="a_Node000006"><a xlink:href="$BitWriter_8h.html" xlink:title=" ">
<polygon fill="white" stroke="#666666" points="331.54,-344 194.04,-344 194.04,-285 331.54,-285 331.54,-344"/>
<text xml:space="preserve" text-anchor="start" x="202.04" y="-330.5" font-family="Helvetica,sans-Serif" font-size="10.00">/opt/unreal&#45;engine</text>
<text xml:space="preserve" text-anchor="start" x="202.04" y="-317.75" font-family="Helvetica,sans-Serif" font-size="10.00">/Engine/Source/Runtime</text>
<text xml:space="preserve" text-anchor="start" x="202.04" y="-305" font-family="Helvetica,sans-Serif" font-size="10.00">/Core/Public/Serialization</text>
<text xml:space="preserve" text-anchor="middle" x="262.79" y="-292.25" font-family="Helvetica,sans-Serif" font-size="10.00">/BitWriter.h</text>
</a>
</g>
</g>
<!-- Node1&#45;&gt;Node6 -->
<g id="edge5_Node000001_Node000006" class="edge">
<title>Node1&#45;&gt;Node6</title>
<g id="a_edge5_Node000001_Node000006"><a xlink:title=" ">
<path fill="none" stroke="#63b8ff" d="M213.67,-371.21C221.54,-362.28 229.83,-352.88 237.31,-344.4"/>
<polygon fill="#63b8ff" stroke="#63b8ff" points="211.28,-368.63 207.29,-378.45 216.53,-373.26 211.28,-368.63"/>
</a>
</g>
</g>
<!-- Node3 -->
<g id="Node000003" class="node">
<title>Node3</title>
<g id="a_Node000003"><a xlink:href="$Core_8h.html" xlink:title=" ">
<polygon fill="white" stroke="#666666" points="328.92,-242.62 196.67,-242.62 196.67,-196.38 328.92,-196.38 328.92,-242.62"/>
<text xml:space="preserve" text-anchor="start" x="204.67" y="-229.12" font-family="Helvetica,sans-Serif" font-size="10.00">/opt/unreal&#45;engine</text>
<text xml:space="preserve" text-anchor="start" x="204.67" y="-216.38" font-family="Helvetica,sans-Serif" font-size="10.00">/Engine/Source/Runtime</text>
<text xml:space="preserve" text-anchor="middle" x="262.79" y="-203.62" font-family="Helvetica,sans-Serif" font-size="10.00">/Core/Public/Core.h</text>
</a>
</g>
</g>
<!-- Node2&#45;&gt;Node3 -->
<g id="edge2_Node000002_Node000003" class="edge">
<title>Node2&#45;&gt;Node3</title>
<g id="a_edge2_Node000002_Node000003"><a xlink:title=" ">
<path fill="none" stroke="#63b8ff" d="M162.46,-278.82C183.04,-266.86 205.53,-253.78 224,-243.05"/>
<polygon fill="#63b8ff" stroke="#63b8ff" points="160.74,-275.77 153.85,-283.82 164.25,-281.82 160.74,-275.77"/>
</a>
</g>
</g>
<!-- Node4 -->
<g id="Node000004" class="node">
<title>Node4</title>
<g id="a_Node000004"><a xlink:href="$CoreSharedPCH_8h.html" xlink:title=" ">
<polygon fill="white" stroke="#666666" points="178.92,-242.62 16.67,-242.62 16.67,-196.38 178.92,-196.38 178.92,-242.62"/>
<text xml:space="preserve" text-anchor="start" x="24.67" y="-229.12" font-family="Helvetica,sans-Serif" font-size="10.00">/opt/unreal&#45;engine</text>
<text xml:space="preserve" text-anchor="start" x="24.67" y="-216.38" font-family="Helvetica,sans-Serif" font-size="10.00">/Engine/Source/Runtime</text>
<text xml:space="preserve" text-anchor="middle" x="97.79" y="-203.62" font-family="Helvetica,sans-Serif" font-size="10.00">/Core/Public/CoreSharedPCH.h</text>
</a>
</g>
</g>
<!-- Node2&#45;&gt;Node4 -->
<g id="edge3_Node000002_Node000004" class="edge">
<title>Node2&#45;&gt;Node4</title>
<g id="a_edge3_Node000002_Node000004"><a xlink:title=" ">
<path fill="none" stroke="#63b8ff" d="M100.62,-273.16C100.07,-262.78 99.49,-251.99 99,-242.9"/>
<polygon fill="#63b8ff" stroke="#63b8ff" points="97.12,-273.27 101.16,-283.07 104.11,-272.9 97.12,-273.27"/>
</a>
</g>
</g>
<!-- Node5 -->
<g id="Node000005" class="node">
<title>Node5</title>
<g id="a_Node000005"><a xlink:href="$DemoNetDriver_8h.html" xlink:title=" ">
<polygon fill="white" stroke="#666666" points="301.92,-59 169.67,-59 169.67,0 301.92,0 301.92,-59"/>
<text xml:space="preserve" text-anchor="start" x="177.67" y="-45.5" font-family="Helvetica,sans-Serif" font-size="10.00">/opt/unreal&#45;engine</text>
<text xml:space="preserve" text-anchor="start" x="177.67" y="-32.75" font-family="Helvetica,sans-Serif" font-size="10.00">/Engine/Source/Runtime</text>
<text xml:space="preserve" text-anchor="start" x="177.67" y="-20" font-family="Helvetica,sans-Serif" font-size="10.00">/Engine/Classes/Engine</text>
<text xml:space="preserve" text-anchor="middle" x="235.79" y="-7.25" font-family="Helvetica,sans-Serif" font-size="10.00">/DemoNetDriver.h</text>
</a>
</g>
</g>
<!-- Node2&#45;&gt;Node5 -->
<g id="edge4_Node000002_Node000005" class="edge">
<title>Node2&#45;&gt;Node5</title>
<g id="a_edge4_Node000002_Node000005"><a xlink:title=" ">
<path fill="none" stroke="#63b8ff" d="M32.44,-277.88C22.53,-269.77 13.71,-260.17 7.79,-249 -4.48,-225.83 0.04,-215.05 7.79,-190 22.91,-141.13 32.81,-126.92 72.79,-95 100.86,-72.59 137.68,-57.14 169.23,-46.99"/>
<polygon fill="#63b8ff" stroke="#63b8ff" points="30.1,-280.49 40.19,-283.72 34.31,-274.91 30.1,-280.49"/>
</a>
</g>
</g>
<!-- Node6&#45;&gt;Node3 -->
<g id="edge6_Node000006_Node000003" class="edge">
<title>Node6&#45;&gt;Node3</title>
<g id="a_edge6_Node000006_Node000003"><a xlink:title=" ">
<path fill="none" stroke="#63b8ff" d="M262.79,-273.16C262.79,-262.78 262.79,-251.99 262.79,-242.9"/>
<polygon fill="#63b8ff" stroke="#63b8ff" points="259.29,-273.07 262.79,-283.07 266.29,-273.07 259.29,-273.07"/>
</a>
</g>
</g>
<!-- Node6&#45;&gt;Node4 -->
<g id="edge7_Node000006_Node000004" class="edge">
<title>Node6&#45;&gt;Node4</title>
<g id="a_edge7_Node000006_Node000004"><a xlink:title=" ">
<path fill="none" stroke="#63b8ff" d="M201.55,-278.98C180.25,-266.98 156.93,-253.83 137.8,-243.05"/>
<polygon fill="#63b8ff" stroke="#63b8ff" points="199.74,-281.98 210.17,-283.84 203.18,-275.88 199.74,-281.98"/>
</a>
</g>
</g>
<!-- Node7 -->
<g id="Node000007" class="node">
<title>Node7</title>
<g id="a_Node000007"><a xlink:href="$NetConnection_8h.html" xlink:title=" ">
<polygon fill="white" stroke="#666666" points="688.92,-249 556.67,-249 556.67,-190 688.92,-190 688.92,-249"/>
<text xml:space="preserve" text-anchor="start" x="564.67" y="-235.5" font-family="Helvetica,sans-Serif" font-size="10.00">/opt/unreal&#45;engine</text>
<text xml:space="preserve" text-anchor="start" x="564.67" y="-222.75" font-family="Helvetica,sans-Serif" font-size="10.00">/Engine/Source/Runtime</text>
<text xml:space="preserve" text-anchor="start" x="564.67" y="-210" font-family="Helvetica,sans-Serif" font-size="10.00">/Engine/Classes/Engine</text>
<text xml:space="preserve" text-anchor="middle" x="622.79" y="-197.25" font-family="Helvetica,sans-Serif" font-size="10.00">/NetConnection.h</text>
</a>
</g>
</g>
<!-- Node6&#45;&gt;Node7 -->
<g id="edge8_Node000006_Node000007" class="edge">
<title>Node6&#45;&gt;Node7</title>
<g id="a_edge8_Node000006_Node000007"><a xlink:title=" ">
<path fill="none" stroke="#63b8ff" d="M343.01,-296.75C398.13,-284.74 472.81,-267.47 537.79,-249 543.93,-247.26 550.28,-245.34 556.62,-243.35"/>
<polygon fill="#63b8ff" stroke="#63b8ff" points="342.42,-293.3 333.38,-298.84 343.9,-300.14 342.42,-293.3"/>
</a>
</g>
</g>
<!-- Node11 -->
<g id="Node000011" class="node">
<title>Node11</title>
<g id="a_Node000011"><a xlink:href="$CharacterMovementReplication_8h.html" xlink:title=" ">
<polygon fill="white" stroke="#666666" points="529.04,-249 346.54,-249 346.54,-190 529.04,-190 529.04,-249"/>
<text xml:space="preserve" text-anchor="start" x="354.54" y="-235.5" font-family="Helvetica,sans-Serif" font-size="10.00">/opt/unreal&#45;engine</text>
<text xml:space="preserve" text-anchor="start" x="354.54" y="-222.75" font-family="Helvetica,sans-Serif" font-size="10.00">/Engine/Source/Runtime</text>
<text xml:space="preserve" text-anchor="start" x="354.54" y="-210" font-family="Helvetica,sans-Serif" font-size="10.00">/Engine/Classes/GameFramework</text>
<text xml:space="preserve" text-anchor="middle" x="437.79" y="-197.25" font-family="Helvetica,sans-Serif" font-size="10.00">/CharacterMovementReplication.h</text>
</a>
</g>
</g>
<!-- Node6&#45;&gt;Node11 -->
<g id="edge13_Node000006_Node000011" class="edge">
<title>Node6&#45;&gt;Node11</title>
<g id="a_edge13_Node000006_Node000011"><a xlink:title=" ">
<path fill="none" stroke="#63b8ff" d="M327.28,-279.23C345.72,-269.43 365.64,-258.84 383.41,-249.4"/>
<polygon fill="#63b8ff" stroke="#63b8ff" points="325.73,-276.09 318.54,-283.87 329.01,-282.27 325.73,-276.09"/>
</a>
</g>
</g>
<!-- Node8 -->
<g id="Node000008" class="node">
<title>Node8</title>
<g id="a_Node000008"><a xlink:href="$ChildConnection_8h.html" xlink:title=" ">
<polygon fill="white" stroke="#666666" points="913.92,-154 781.67,-154 781.67,-95 913.92,-95 913.92,-154"/>
<text xml:space="preserve" text-anchor="start" x="789.67" y="-140.5" font-family="Helvetica,sans-Serif" font-size="10.00">/opt/unreal&#45;engine</text>
<text xml:space="preserve" text-anchor="start" x="789.67" y="-127.75" font-family="Helvetica,sans-Serif" font-size="10.00">/Engine/Source/Runtime</text>
<text xml:space="preserve" text-anchor="start" x="789.67" y="-115" font-family="Helvetica,sans-Serif" font-size="10.00">/Engine/Classes/Engine</text>
<text xml:space="preserve" text-anchor="middle" x="847.79" y="-102.25" font-family="Helvetica,sans-Serif" font-size="10.00">/ChildConnection.h</text>
</a>
</g>
</g>
<!-- Node7&#45;&gt;Node8 -->
<g id="edge9_Node000007_Node000008" class="edge">
<title>Node7&#45;&gt;Node8</title>
<g id="a_edge9_Node000007_Node000008"><a xlink:title=" ">
<path fill="none" stroke="#63b8ff" d="M699.78,-186.68C726.3,-175.72 755.76,-163.54 781.37,-152.95"/>
<polygon fill="#63b8ff" stroke="#63b8ff" points="698.69,-183.34 690.79,-190.4 701.36,-189.81 698.69,-183.34"/>
</a>
</g>
</g>
<!-- Node9 -->
<g id="Node000009" class="node">
<title>Node9</title>
<g id="a_Node000009"><a xlink:href="$DemoNetConnection_8h.html" xlink:title=" ">
<polygon fill="white" stroke="#666666" points="613.92,-154 481.67,-154 481.67,-95 613.92,-95 613.92,-154"/>
<text xml:space="preserve" text-anchor="start" x="489.67" y="-140.5" font-family="Helvetica,sans-Serif" font-size="10.00">/opt/unreal&#45;engine</text>
<text xml:space="preserve" text-anchor="start" x="489.67" y="-127.75" font-family="Helvetica,sans-Serif" font-size="10.00">/Engine/Source/Runtime</text>
<text xml:space="preserve" text-anchor="start" x="489.67" y="-115" font-family="Helvetica,sans-Serif" font-size="10.00">/Engine/Classes/Engine</text>
<text xml:space="preserve" text-anchor="middle" x="547.79" y="-102.25" font-family="Helvetica,sans-Serif" font-size="10.00">/DemoNetConnection.h</text>
</a>
</g>
</g>
<!-- Node7&#45;&gt;Node9 -->
<g id="edge10_Node000007_Node000009" class="edge">
<title>Node7&#45;&gt;Node9</title>
<g id="a_edge10_Node000007_Node000009"><a xlink:title=" ">
<path fill="none" stroke="#63b8ff" d="M592.28,-180.66C585.21,-171.9 577.8,-162.71 571.1,-154.4"/>
<polygon fill="#63b8ff" stroke="#63b8ff" points="589.52,-182.82 598.52,-188.41 594.97,-178.42 589.52,-182.82"/>
</a>
</g>
</g>
<!-- Node10 -->
<g id="Node000010" class="node">
<title>Node10</title>
<g id="a_Node000010"><a xlink:href="$NetworkObjectList_8h.html" xlink:title=" ">
<polygon fill="white" stroke="#666666" points="763.92,-154 631.67,-154 631.67,-95 763.92,-95 763.92,-154"/>
<text xml:space="preserve" text-anchor="start" x="639.67" y="-140.5" font-family="Helvetica,sans-Serif" font-size="10.00">/opt/unreal&#45;engine</text>
<text xml:space="preserve" text-anchor="start" x="639.67" y="-127.75" font-family="Helvetica,sans-Serif" font-size="10.00">/Engine/Source/Runtime</text>
<text xml:space="preserve" text-anchor="start" x="639.67" y="-115" font-family="Helvetica,sans-Serif" font-size="10.00">/Engine/Classes/Engine</text>
<text xml:space="preserve" text-anchor="middle" x="697.79" y="-102.25" font-family="Helvetica,sans-Serif" font-size="10.00">/NetworkObjectList.h</text>
</a>
</g>
</g>
<!-- Node7&#45;&gt;Node10 -->
<g id="edge12_Node000007_Node000010" class="edge">
<title>Node7&#45;&gt;Node10</title>
<g id="a_edge12_Node000007_Node000010"><a xlink:title=" ">
<path fill="none" stroke="#63b8ff" d="M653.31,-180.66C660.38,-171.9 667.79,-162.71 674.49,-154.4"/>
<polygon fill="#63b8ff" stroke="#63b8ff" points="650.61,-178.42 647.06,-188.41 656.06,-182.82 650.61,-178.42"/>
</a>
</g>
</g>
<!-- Node9&#45;&gt;Node5 -->
<g id="edge11_Node000009_Node000005" class="edge">
<title>Node9&#45;&gt;Node5</title>
<g id="a_edge11_Node000009_Node000005"><a xlink:title=" ">
<path fill="none" stroke="#63b8ff" d="M470.52,-94.36C408.67,-74.56 347.38,-58.19 302.2,-46.73"/>
<polygon fill="#63b8ff" stroke="#63b8ff" points="469.22,-97.62 479.82,-97.37 471.38,-90.96 469.22,-97.62"/>
</a>
</g>
</g>
<!-- Node12 -->
<g id="Node000012" class="node">
<title>Node12</title>
<g id="a_Node000012"><a xlink:href="$Character_8h.html" xlink:title=" ">
<polygon fill="white" stroke="#666666" points="261.54,-154 82.04,-154 82.04,-95 261.54,-95 261.54,-154"/>
<text xml:space="preserve" text-anchor="start" x="90.04" y="-140.5" font-family="Helvetica,sans-Serif" font-size="10.00">/opt/unreal&#45;engine</text>
<text xml:space="preserve" text-anchor="start" x="90.04" y="-127.75" font-family="Helvetica,sans-Serif" font-size="10.00">/Engine/Source/Runtime</text>
<text xml:space="preserve" text-anchor="start" x="90.04" y="-115" font-family="Helvetica,sans-Serif" font-size="10.00">/Engine/Classes/GameFramework</text>
<text xml:space="preserve" text-anchor="middle" x="171.79" y="-102.25" font-family="Helvetica,sans-Serif" font-size="10.00">/Character.h</text>
</a>
</g>
</g>
<!-- Node11&#45;&gt;Node12 -->
<g id="edge14_Node000011_Node000012" class="edge">
<title>Node11&#45;&gt;Node12</title>
<g id="a_edge14_Node000011_Node000012"><a xlink:title=" ">
<path fill="none" stroke="#63b8ff" d="M344.43,-185.86C315.11,-175.61 282.97,-164.37 254.45,-154.4"/>
<polygon fill="#63b8ff" stroke="#63b8ff" points="343.06,-189.09 353.66,-189.08 345.37,-182.48 343.06,-189.09"/>
</a>
</g>
</g>
<!-- Node13 -->
<g id="Node000013" class="node">
<title>Node13</title>
<g id="a_Node000013"><a xlink:href="$CharacterMovementComponent_8h.html" xlink:title=" ">
<polygon fill="white" stroke="#666666" points="463.79,-154 279.79,-154 279.79,-95 463.79,-95 463.79,-154"/>
<text xml:space="preserve" text-anchor="start" x="287.79" y="-140.5" font-family="Helvetica,sans-Serif" font-size="10.00">/opt/unreal&#45;engine</text>
<text xml:space="preserve" text-anchor="start" x="287.79" y="-127.75" font-family="Helvetica,sans-Serif" font-size="10.00">/Engine/Source/Runtime</text>
<text xml:space="preserve" text-anchor="start" x="287.79" y="-115" font-family="Helvetica,sans-Serif" font-size="10.00">/Engine/Classes/GameFramework</text>
<text xml:space="preserve" text-anchor="middle" x="371.79" y="-102.25" font-family="Helvetica,sans-Serif" font-size="10.00">/CharacterMovementComponent.h</text>
</a>
</g>
</g>
<!-- Node11&#45;&gt;Node13 -->
<g id="edge15_Node000011_Node000013" class="edge">
<title>Node11&#45;&gt;Node13</title>
<g id="a_edge15_Node000011_Node000013"><a xlink:title=" ">
<path fill="none" stroke="#63b8ff" d="M410.74,-180.38C404.58,-171.7 398.14,-162.62 392.3,-154.4"/>
<polygon fill="#63b8ff" stroke="#63b8ff" points="407.75,-182.22 416.4,-188.35 413.46,-178.17 407.75,-182.22"/>
</a>
</g>
</g>
</g>
</svg>
