<?xml version="1.0" encoding="UTF-8" standalone="no"?>
<!DOCTYPE svg PUBLIC "-//W3C//DTD SVG 1.1//EN"
 "http://www.w3.org/Graphics/SVG/1.1/DTD/svg11.dtd">
<!-- Generated by graphviz version 14.1.4 (0)
 -->
<!-- Title: /opt/unreal&#45;engine/Engine/Source/Runtime/Engine/Classes/Camera/CameraModifier.h Pages: 1 -->
<!--zoomable 294 -->

<svg id="main" version="1.1" xmlns="http://www.w3.org/2000/svg" xmlns:xlink="http://www.w3.org/1999/xlink" xml:space="preserve" onload="init(evt)">

<style type="text/css"><![CDATA[
.node, .edge {opacity: 0.7;}
.node.selected, .edge.selected {opacity: 1;}
.edge:hover path { stroke: red; }
.edge:hover polygon { stroke: red; fill: red; }
]]></style>

<defs>
  <circle id="rim" cx="0" cy="0" r="7"/>
  <circle id="rim2" cx="0" cy="0" r="3.5"/>
  <g id="zoomPlus">
    <use xlink:href="#rim" fill="#404040"><set attributeName="fill" to="#808080" begin="zoomplus.mouseover" end="zoomplus.mouseout"/></use>
    <path d="M-4,0h8M0,-4v8" fill="none" stroke="white" stroke-width="1.5" pointer-events="none"/>
  </g>
  <g id="zoomMin">
    <use xlink:href="#rim" fill="#404040"><set attributeName="fill" to="#808080" begin="zoomminus.mouseover" end="zoomminus.mouseout"/></use>
    <path d="M-4,0h8" fill="none" stroke="white" stroke-width="1.5" pointer-events="none"/>
  </g>
  <g id="arrowUp" transform="translate(30 24)">
    <use xlink:href="#rim"/>
    <path pointer-events="none" fill="none" stroke="white" stroke-width="1.5" d="M0,-3.0v7 M-2.5,-0.5L0,-3.0L2.5,-0.5"/>
  </g>
  <g id="arrowRight" transform="rotate(90) translate(36 -43)">
    <use xlink:href="#rim"/>
    <path pointer-events="none" fill="none" stroke="white" stroke-width="1.5" d="M0,-3.0v7 M-2.5,-0.5L0,-3.0L2.5,-0.5"/>
  </g>
  <g id="arrowDown" transform="rotate(180) translate(-30 -48)">
    <use xlink:href="#rim"/>
    <path pointer-events="none" fill="none" stroke="white" stroke-width="1.5" d="M0,-3.0v7 M-2.5,-0.5L0,-3.0L2.5,-0.5"/>
  </g>
  <g id="arrowLeft" transform="rotate(270) translate(-36 17)">
    <use xlink:href="#rim"/>
    <path pointer-events="none" fill="none" stroke="white" stroke-width="1.5" d="M0,-3.0v7 M-2.5,-0.5L0,-3.0L2.5,-0.5"/>
  </g>
  <g id="resetDef">
    <use xlink:href="#rim2" fill="#404040"><set attributeName="fill" to="#808080" begin="reset.mouseover" end="reset.mouseout"/></use>
  </g>
</defs>
<script type="application/ecmascript">
var viewWidth = 1803;
var viewHeight = 294;
var sectionId = 'dynsection-0';
</script>
<script type="application/ecmascript" xlink:href="svg.min.js"/>
<svg id="graph" class="graph">
<g id="viewport">
<title>/opt/unreal&#45;engine/Engine/Source/Runtime/Engine/Classes/Camera/CameraModifier.h</title>
<!-- Node1 -->
<g id="Node000001" class="node">
<title>Node1</title>
<g id="a_Node000001"><a xlink:title=" ">
<polygon fill="#999999" stroke="#666666" points="1414.75,-286 1281,-286 1281,-227 1414.75,-227 1414.75,-286"/>
<text xml:space="preserve" text-anchor="start" x="1289" y="-272.5" font-family="Helvetica,sans-Serif" font-size="10.00">/opt/unreal&#45;engine</text>
<text xml:space="preserve" text-anchor="start" x="1289" y="-259.75" font-family="Helvetica,sans-Serif" font-size="10.00">/Engine/Source/Runtime</text>
<text xml:space="preserve" text-anchor="start" x="1289" y="-247" font-family="Helvetica,sans-Serif" font-size="10.00">/Engine/Classes/Camera</text>
<text xml:space="preserve" text-anchor="middle" x="1347.88" y="-234.25" font-family="Helvetica,sans-Serif" font-size="10.00">/CameraModifier.h</text>
</a>
</g>
</g>
<!-- Node2 -->
<g id="Node000002" class="node">
<title>Node2</title>
<g id="a_Node000002"><a xlink:title=" ">
<polygon fill="#e0e0e0" stroke="#999999" points="621.5,-20.75 534.25,-20.75 534.25,0 621.5,0 621.5,-20.75"/>
<text xml:space="preserve" text-anchor="middle" x="577.88" y="-7.25" font-family="Helvetica,sans-Serif" font-size="10.00">CoreMinimal.h</text>
</a>
</g>
</g>
<!-- Node1&#45;&gt;Node2 -->
<g id="edge1_Node000001_Node000002" class="edge">
<title>Node1&#45;&gt;Node2</title>
<g id="a_edge1_Node000001_Node000002"><a xlink:title=" ">
<path fill="none" stroke="#63b8ff" d="M1280.64,-252.31C1094.53,-241.92 579.68,-202.24 477.88,-77.5 458.76,-54.07 493.54,-35.94 527.21,-24.64"/>
<polygon fill="#63b8ff" stroke="#63b8ff" points="528.11,-28.02 536.59,-21.67 526,-21.35 528.11,-28.02"/>
</a>
</g>
</g>
<!-- Node3 -->
<g id="Node000003" class="node">
<title>Node3</title>
<g id="a_Node000003"><a xlink:title=" ">
<polygon fill="#e0e0e0" stroke="#999999" points="133.75,-20.75 0,-20.75 0,0 133.75,0 133.75,-20.75"/>
<text xml:space="preserve" text-anchor="middle" x="66.88" y="-7.25" font-family="Helvetica,sans-Serif" font-size="10.00">UObject/ObjectMacros.h</text>
</a>
</g>
</g>
<!-- Node1&#45;&gt;Node3 -->
<g id="edge2_Node000001_Node000003" class="edge">
<title>Node1&#45;&gt;Node3</title>
<g id="a_edge2_Node000001_Node000003"><a xlink:title=" ">
<path fill="none" stroke="#63b8ff" d="M1280.52,-256.14C1051.15,-257.22 303.51,-251.48 99.88,-134.25 72.91,-118.73 68.45,-107.11 58.88,-77.5 54.08,-62.67 56.55,-45.14 59.96,-31.85"/>
<polygon fill="#63b8ff" stroke="#63b8ff" points="63.25,-33.07 62.75,-22.49 56.54,-31.07 63.25,-33.07"/>
</a>
</g>
</g>
<!-- Node4 -->
<g id="Node000004" class="node">
<title>Node4</title>
<g id="a_Node000004"><a xlink:title=" ">
<polygon fill="#e0e0e0" stroke="#999999" points="1455.12,-20.75 1356.62,-20.75 1356.62,0 1455.12,0 1455.12,-20.75"/>
<text xml:space="preserve" text-anchor="middle" x="1405.88" y="-7.25" font-family="Helvetica,sans-Serif" font-size="10.00">UObject/Object.h</text>
</a>
</g>
</g>
<!-- Node1&#45;&gt;Node4 -->
<g id="edge3_Node000001_Node000004" class="edge">
<title>Node1&#45;&gt;Node4</title>
<g id="a_edge3_Node000001_Node000004"><a xlink:title=" ">
<path fill="none" stroke="#63b8ff" d="M1362.52,-226.52C1379.04,-192.03 1404.91,-132.24 1414.88,-77.5 1417.64,-62.3 1415.08,-44.99 1412,-31.89"/>
<polygon fill="#63b8ff" stroke="#63b8ff" points="1415.39,-31.05 1409.42,-22.3 1408.63,-32.86 1415.39,-31.05"/>
</a>
</g>
</g>
<!-- Node5 -->
<g id="Node000005" class="node">
<title>Node5</title>
<g id="a_Node000005"><a xlink:title=" ">
<polygon fill="#e0e0e0" stroke="#999999" points="1620.88,-191 1490.88,-191 1490.88,-170.25 1620.88,-170.25 1620.88,-191"/>
<text xml:space="preserve" text-anchor="middle" x="1555.88" y="-177.5" font-family="Helvetica,sans-Serif" font-size="10.00">UObject/ScriptMacros.h</text>
</a>
</g>
</g>
<!-- Node1&#45;&gt;Node5 -->
<g id="edge4_Node000001_Node000005" class="edge">
<title>Node1&#45;&gt;Node5</title>
<g id="a_edge4_Node000001_Node000005"><a xlink:title=" ">
<path fill="none" stroke="#63b8ff" d="M1415.12,-231.62C1448.96,-219.6 1488.77,-205.46 1517.4,-195.29"/>
<polygon fill="#63b8ff" stroke="#63b8ff" points="1518.49,-198.62 1526.74,-191.97 1516.15,-192.02 1518.49,-198.62"/>
</a>
</g>
</g>
<!-- Node6 -->
<g id="Node000006" class="node">
<title>Node6</title>
<g id="a_Node000006"><a xlink:href="Scene_8h.html" target="_top" xlink:title=" ">
<polygon fill="white" stroke="#666666" points="1174,-191 1083.75,-191 1083.75,-170.25 1174,-170.25 1174,-191"/>
<text xml:space="preserve" text-anchor="middle" x="1128.88" y="-177.5" font-family="Helvetica,sans-Serif" font-size="10.00">Engine/Scene.h</text>
</a>
</g>
</g>
<!-- Node1&#45;&gt;Node6 -->
<g id="edge5_Node000001_Node000006" class="edge">
<title>Node1&#45;&gt;Node6</title>
<g id="a_edge5_Node000001_Node000006"><a xlink:title=" ">
<path fill="none" stroke="#63b8ff" d="M1280.68,-232.83C1244.06,-220.48 1199.98,-205.61 1168.78,-195.09"/>
<polygon fill="#63b8ff" stroke="#63b8ff" points="1169.93,-191.78 1159.34,-191.9 1167.7,-198.41 1169.93,-191.78"/>
</a>
</g>
</g>
<!-- Node23 -->
<g id="Node000023" class="node">
<title>Node23</title>
<g id="a_Node000023"><a xlink:title=" ">
<polygon fill="#e0e0e0" stroke="#999999" points="1795,-191 1638.75,-191 1638.75,-170.25 1795,-170.25 1795,-191"/>
<text xml:space="preserve" text-anchor="middle" x="1716.88" y="-177.5" font-family="Helvetica,sans-Serif" font-size="10.00">CameraModifier.generated.h</text>
</a>
</g>
</g>
<!-- Node1&#45;&gt;Node23 -->
<g id="edge30_Node000001_Node000023" class="edge">
<title>Node1&#45;&gt;Node23</title>
<g id="a_edge30_Node000001_Node000023"><a xlink:title=" ">
<path fill="none" stroke="#63b8ff" d="M1415.13,-242.04C1484.1,-228.23 1590.4,-206.94 1656.69,-193.68"/>
<polygon fill="#63b8ff" stroke="#63b8ff" points="1657.17,-197.15 1666.29,-191.75 1655.8,-190.28 1657.17,-197.15"/>
</a>
</g>
</g>
<!-- Node6&#45;&gt;Node3 -->
<g id="edge6_Node000006_Node000003" class="edge">
<title>Node6&#45;&gt;Node3</title>
<g id="a_edge6_Node000006_Node000003"><a xlink:title=" ">
<path fill="none" stroke="#63b8ff" d="M1083.35,-178.83C903.83,-175.5 250.39,-161.61 161.88,-134.25 115.98,-120.06 94.23,-118.91 69.88,-77.5 61.93,-64 61.6,-46.13 63.02,-32.38"/>
<polygon fill="#63b8ff" stroke="#63b8ff" points="66.46,-33.04 64.43,-22.64 59.53,-32.03 66.46,-33.04"/>
</a>
</g>
</g>
<!-- Node6&#45;&gt;Node4 -->
<g id="edge7_Node000006_Node000004" class="edge">
<title>Node6&#45;&gt;Node4</title>
<g id="a_edge7_Node000006_Node000004"><a xlink:title=" ">
<path fill="none" stroke="#63b8ff" d="M1174.35,-175.65C1234.06,-169.63 1334.72,-156.49 1363.88,-134.25 1395.59,-110.06 1403.53,-60.63 1405.41,-32.39"/>
<polygon fill="#63b8ff" stroke="#63b8ff" points="1408.89,-32.73 1405.84,-22.58 1401.9,-32.42 1408.89,-32.73"/>
</a>
</g>
</g>
<!-- Node7 -->
<g id="Node000007" class="node">
<title>Node7</title>
<g id="a_Node000007"><a xlink:title=" ">
<polygon fill="#e0e0e0" stroke="#999999" points="1135,-134.25 996.75,-134.25 996.75,-113.5 1135,-113.5 1135,-134.25"/>
<text xml:space="preserve" text-anchor="middle" x="1065.88" y="-120.75" font-family="Helvetica,sans-Serif" font-size="10.00">UObject/ScriptInterface.h</text>
</a>
</g>
</g>
<!-- Node6&#45;&gt;Node7 -->
<g id="edge8_Node000006_Node000007" class="edge">
<title>Node6&#45;&gt;Node7</title>
<g id="a_edge8_Node000006_Node000007"><a xlink:title=" ">
<path fill="none" stroke="#63b8ff" d="M1117.61,-169.84C1108.74,-162.13 1096.16,-151.2 1085.63,-142.04"/>
<polygon fill="#63b8ff" stroke="#63b8ff" points="1088.03,-139.49 1078.18,-135.57 1083.44,-144.77 1088.03,-139.49"/>
</a>
</g>
</g>
<!-- Node8 -->
<g id="Node000008" class="node">
<title>Node8</title>
<g id="a_Node000008"><a xlink:href="BlendableInterface_8h.html" target="_top" xlink:title=" ">
<polygon fill="white" stroke="#666666" points="324.5,-134.25 171.25,-134.25 171.25,-113.5 324.5,-113.5 324.5,-134.25"/>
<text xml:space="preserve" text-anchor="middle" x="247.88" y="-120.75" font-family="Helvetica,sans-Serif" font-size="10.00">Engine/BlendableInterface.h</text>
</a>
</g>
</g>
<!-- Node6&#45;&gt;Node8 -->
<g id="edge9_Node000006_Node000008" class="edge">
<title>Node6&#45;&gt;Node8</title>
<g id="a_edge9_Node000006_Node000008"><a xlink:title=" ">
<path fill="none" stroke="#63b8ff" d="M1083.36,-176.8C943.93,-168.13 520.95,-141.85 336.01,-130.35"/>
<polygon fill="#63b8ff" stroke="#63b8ff" points="336.42,-126.87 326.23,-129.74 335.99,-133.86 336.42,-126.87"/>
</a>
</g>
</g>
<!-- Node11 -->
<g id="Node000011" class="node">
<title>Node11</title>
<g id="a_Node000011"><a xlink:title=" ">
<polygon fill="#e0e0e0" stroke="#999999" points="1230.25,-134.25 1153.5,-134.25 1153.5,-113.5 1230.25,-113.5 1230.25,-134.25"/>
<text xml:space="preserve" text-anchor="middle" x="1191.88" y="-120.75" font-family="Helvetica,sans-Serif" font-size="10.00">SceneUtils.h</text>
</a>
</g>
</g>
<!-- Node6&#45;&gt;Node11 -->
<g id="edge13_Node000006_Node000011" class="edge">
<title>Node6&#45;&gt;Node11</title>
<g id="a_edge13_Node000006_Node000011"><a xlink:title=" ">
<path fill="none" stroke="#63b8ff" d="M1140.14,-169.84C1149.01,-162.13 1161.59,-151.2 1172.12,-142.04"/>
<polygon fill="#63b8ff" stroke="#63b8ff" points="1174.31,-144.77 1179.57,-135.57 1169.72,-139.49 1174.31,-144.77"/>
</a>
</g>
</g>
<!-- Node12 -->
<g id="Node000012" class="node">
<title>Node12</title>
<g id="a_Node000012"><a xlink:href="EngineTypes_8h.html" target="_top" xlink:title=" ">
<polygon fill="white" stroke="#666666" points="978.75,-134.25 857,-134.25 857,-113.5 978.75,-113.5 978.75,-134.25"/>
<text xml:space="preserve" text-anchor="middle" x="917.88" y="-120.75" font-family="Helvetica,sans-Serif" font-size="10.00">Engine/EngineTypes.h</text>
</a>
</g>
</g>
<!-- Node6&#45;&gt;Node12 -->
<g id="edge14_Node000006_Node000012" class="edge">
<title>Node6&#45;&gt;Node12</title>
<g id="a_edge14_Node000006_Node000012"><a xlink:title=" ">
<path fill="none" stroke="#63b8ff" d="M1091.15,-169.84C1056.3,-160.79 1004.35,-147.31 966.42,-137.47"/>
<polygon fill="#63b8ff" stroke="#63b8ff" points="967.65,-134.17 957.09,-135.05 965.89,-140.95 967.65,-134.17"/>
</a>
</g>
</g>
<!-- Node22 -->
<g id="Node000022" class="node">
<title>Node22</title>
<g id="a_Node000022"><a xlink:title=" ">
<polygon fill="#e0e0e0" stroke="#999999" points="1355.25,-134.25 1248.5,-134.25 1248.5,-113.5 1355.25,-113.5 1355.25,-134.25"/>
<text xml:space="preserve" text-anchor="middle" x="1301.88" y="-120.75" font-family="Helvetica,sans-Serif" font-size="10.00">Scene.generated.h</text>
</a>
</g>
</g>
<!-- Node6&#45;&gt;Node22 -->
<g id="edge29_Node000006_Node000022" class="edge">
<title>Node6&#45;&gt;Node22</title>
<g id="a_edge29_Node000006_Node000022"><a xlink:title=" ">
<path fill="none" stroke="#63b8ff" d="M1159.8,-169.84C1187.76,-160.99 1229.15,-147.89 1260.06,-138.11"/>
<polygon fill="#63b8ff" stroke="#63b8ff" points="1261,-141.48 1269.48,-135.13 1258.89,-134.81 1261,-141.48"/>
</a>
</g>
</g>
<!-- Node8&#45;&gt;Node3 -->
<g id="edge10_Node000008_Node000003" class="edge">
<title>Node8&#45;&gt;Node3</title>
<g id="a_edge10_Node000008_Node000003"><a xlink:title=" ">
<path fill="none" stroke="#63b8ff" d="M170.9,-117.29C140.88,-111.39 108.36,-99.83 85.88,-77.5 73.95,-65.65 69.39,-46.84 67.71,-32.31"/>
<polygon fill="#63b8ff" stroke="#63b8ff" points="71.2,-32.14 66.97,-22.43 64.22,-32.66 71.2,-32.14"/>
</a>
</g>
</g>
<!-- Node9 -->
<g id="Node000009" class="node">
<title>Node9</title>
<g id="a_Node000009"><a xlink:title=" ">
<polygon fill="#e0e0e0" stroke="#999999" points="393.12,-77.5 282.62,-77.5 282.62,-56.75 393.12,-56.75 393.12,-77.5"/>
<text xml:space="preserve" text-anchor="middle" x="337.88" y="-64" font-family="Helvetica,sans-Serif" font-size="10.00">UObject/Interface.h</text>
</a>
</g>
</g>
<!-- Node8&#45;&gt;Node9 -->
<g id="edge11_Node000008_Node000009" class="edge">
<title>Node8&#45;&gt;Node9</title>
<g id="a_edge11_Node000008_Node000009"><a xlink:title=" ">
<path fill="none" stroke="#63b8ff" d="M263.97,-113.09C277.4,-104.91 296.81,-93.11 312.36,-83.65"/>
<polygon fill="#63b8ff" stroke="#63b8ff" points="313.91,-86.8 320.63,-78.62 310.27,-80.82 313.91,-86.8"/>
</a>
</g>
</g>
<!-- Node10 -->
<g id="Node000010" class="node">
<title>Node10</title>
<g id="a_Node000010"><a xlink:title=" ">
<polygon fill="#e0e0e0" stroke="#999999" points="264.75,-77.5 95,-77.5 95,-56.75 264.75,-56.75 264.75,-77.5"/>
<text xml:space="preserve" text-anchor="middle" x="179.88" y="-64" font-family="Helvetica,sans-Serif" font-size="10.00">BlendableInterface.generated.h</text>
</a>
</g>
</g>
<!-- Node8&#45;&gt;Node10 -->
<g id="edge12_Node000008_Node000010" class="edge">
<title>Node8&#45;&gt;Node10</title>
<g id="a_edge12_Node000008_Node000010"><a xlink:title=" ">
<path fill="none" stroke="#63b8ff" d="M235.72,-113.09C226.05,-105.3 212.29,-94.22 200.85,-85.01"/>
<polygon fill="#63b8ff" stroke="#63b8ff" points="203.09,-82.32 193.11,-78.78 198.7,-87.78 203.09,-82.32"/>
</a>
</g>
</g>
<!-- Node12&#45;&gt;Node3 -->
<g id="edge16_Node000012_Node000003" class="edge">
<title>Node12&#45;&gt;Node3</title>
<g id="a_edge16_Node000012_Node000003"><a xlink:title=" ">
<path fill="none" stroke="#63b8ff" d="M856.57,-119.73C771.13,-114.63 611.68,-102.49 477.88,-77.5 443.46,-71.07 436.19,-63.73 401.88,-56.75 314.71,-39.03 213.33,-26.39 145.12,-19.02"/>
<polygon fill="#63b8ff" stroke="#63b8ff" points="145.87,-15.58 135.55,-18 145.13,-22.54 145.87,-15.58"/>
</a>
</g>
</g>
<!-- Node12&#45;&gt;Node4 -->
<g id="edge17_Node000012_Node000004" class="edge">
<title>Node12&#45;&gt;Node4</title>
<g id="a_edge17_Node000012_Node000004"><a xlink:title=" ">
<path fill="none" stroke="#63b8ff" d="M978.94,-114.56C981.96,-114.19 984.95,-113.83 987.88,-113.5 1072.15,-103.87 1296.55,-123.4 1367.88,-77.5 1384.11,-67.05 1394.18,-47.05 1399.84,-31.77"/>
<polygon fill="#63b8ff" stroke="#63b8ff" points="1403.03,-33.27 1402.86,-22.68 1396.39,-31.06 1403.03,-33.27"/>
</a>
</g>
</g>
<!-- Node13 -->
<g id="Node000013" class="node">
<title>Node13</title>
<g id="a_Node000013"><a xlink:title=" ">
<polygon fill="#e0e0e0" stroke="#999999" points="942.25,-77.5 811.5,-77.5 811.5,-56.75 942.25,-56.75 942.25,-77.5"/>
<text xml:space="preserve" text-anchor="middle" x="876.88" y="-64" font-family="Helvetica,sans-Serif" font-size="10.00">Misc/EnumClassFlags.h</text>
</a>
</g>
</g>
<!-- Node12&#45;&gt;Node13 -->
<g id="edge15_Node000012_Node000013" class="edge">
<title>Node12&#45;&gt;Node13</title>
<g id="a_edge15_Node000012_Node000013"><a xlink:title=" ">
<path fill="none" stroke="#63b8ff" d="M910.55,-113.09C905.12,-105.85 897.57,-95.76 890.99,-86.97"/>
<polygon fill="#63b8ff" stroke="#63b8ff" points="893.84,-84.95 885.05,-79.04 888.24,-89.14 893.84,-84.95"/>
</a>
</g>
</g>
<!-- Node14 -->
<g id="Node000014" class="node">
<title>Node14</title>
<g id="a_Node000014"><a xlink:title=" ">
<polygon fill="#e0e0e0" stroke="#999999" points="1053.5,-77.5 960.25,-77.5 960.25,-56.75 1053.5,-56.75 1053.5,-77.5"/>
<text xml:space="preserve" text-anchor="middle" x="1006.88" y="-64" font-family="Helvetica,sans-Serif" font-size="10.00">UObject/Class.h</text>
</a>
</g>
</g>
<!-- Node12&#45;&gt;Node14 -->
<g id="edge18_Node000012_Node000014" class="edge">
<title>Node12&#45;&gt;Node14</title>
<g id="a_edge18_Node000012_Node000014"><a xlink:title=" ">
<path fill="none" stroke="#63b8ff" d="M933.79,-113.09C947.08,-104.91 966.26,-93.11 981.64,-83.65"/>
<polygon fill="#63b8ff" stroke="#63b8ff" points="983.13,-86.84 989.81,-78.62 979.46,-80.88 983.13,-86.84"/>
</a>
</g>
</g>
<!-- Node15 -->
<g id="Node000015" class="node">
<title>Node15</title>
<g id="a_Node000015"><a xlink:title=" ">
<polygon fill="#e0e0e0" stroke="#999999" points="1202.62,-77.5 1071.12,-77.5 1071.12,-56.75 1202.62,-56.75 1202.62,-77.5"/>
<text xml:space="preserve" text-anchor="middle" x="1136.88" y="-64" font-family="Helvetica,sans-Serif" font-size="10.00">Templates/SubclassOf.h</text>
</a>
</g>
</g>
<!-- Node12&#45;&gt;Node15 -->
<g id="edge19_Node000012_Node000015" class="edge">
<title>Node12&#45;&gt;Node15</title>
<g id="a_edge19_Node000012_Node000015"><a xlink:title=" ">
<path fill="none" stroke="#63b8ff" d="M957.28,-113.02C993.45,-103.98 1047.22,-90.54 1086.5,-80.72"/>
<polygon fill="#63b8ff" stroke="#63b8ff" points="1087.1,-84.18 1095.95,-78.36 1085.4,-77.39 1087.1,-84.18"/>
</a>
</g>
</g>
<!-- Node16 -->
<g id="Node000016" class="node">
<title>Node16</title>
<g id="a_Node000016"><a xlink:href="TimerHandle_8h.html" target="_top" xlink:title=" ">
<polygon fill="white" stroke="#666666" points="610.5,-77.5 487.25,-77.5 487.25,-56.75 610.5,-56.75 610.5,-77.5"/>
<text xml:space="preserve" text-anchor="middle" x="548.88" y="-64" font-family="Helvetica,sans-Serif" font-size="10.00">Engine/TimerHandle.h</text>
</a>
</g>
</g>
<!-- Node12&#45;&gt;Node16 -->
<g id="edge20_Node000012_Node000016" class="edge">
<title>Node12&#45;&gt;Node16</title>
<g id="a_edge20_Node000012_Node000016"><a xlink:title=" ">
<path fill="none" stroke="#63b8ff" d="M856.53,-113.77C792.08,-104.21 690.73,-89.17 622.13,-78.99"/>
<polygon fill="#63b8ff" stroke="#63b8ff" points="622.89,-75.57 612.48,-77.56 621.86,-82.49 622.89,-75.57"/>
</a>
</g>
</g>
<!-- Node18 -->
<g id="Node000018" class="node">
<title>Node18</title>
<g id="a_Node000018"><a xlink:href="NaniteAssemblyData_8h.html" target="_top" xlink:title=" ">
<polygon fill="white" stroke="#666666" points="793.12,-77.5 628.62,-77.5 628.62,-56.75 793.12,-56.75 793.12,-77.5"/>
<text xml:space="preserve" text-anchor="middle" x="710.88" y="-64" font-family="Helvetica,sans-Serif" font-size="10.00">Engine/NaniteAssemblyData.h</text>
</a>
</g>
</g>
<!-- Node12&#45;&gt;Node18 -->
<g id="edge22_Node000012_Node000018" class="edge">
<title>Node12&#45;&gt;Node18</title>
<g id="a_edge22_Node000012_Node000018"><a xlink:title=" ">
<path fill="none" stroke="#63b8ff" d="M880.87,-113.09C846.83,-104.08 796.15,-90.68 758.98,-80.85"/>
<polygon fill="#63b8ff" stroke="#63b8ff" points="759.94,-77.48 749.37,-78.31 758.15,-84.25 759.94,-77.48"/>
</a>
</g>
</g>
<!-- Node21 -->
<g id="Node000021" class="node">
<title>Node21</title>
<g id="a_Node000021"><a xlink:title=" ">
<polygon fill="#e0e0e0" stroke="#999999" points="1359,-77.5 1220.75,-77.5 1220.75,-56.75 1359,-56.75 1359,-77.5"/>
<text xml:space="preserve" text-anchor="middle" x="1289.88" y="-64" font-family="Helvetica,sans-Serif" font-size="10.00">EngineTypes.generated.h</text>
</a>
</g>
</g>
<!-- Node12&#45;&gt;Node21 -->
<g id="edge28_Node000012_Node000021" class="edge">
<title>Node12&#45;&gt;Node21</title>
<g id="a_edge28_Node000012_Node000021"><a xlink:title=" ">
<path fill="none" stroke="#63b8ff" d="M978.89,-113.9C1042.44,-104.54 1142.23,-89.85 1211.57,-79.65"/>
<polygon fill="#63b8ff" stroke="#63b8ff" points="1211.97,-83.13 1221.36,-78.21 1210.95,-76.2 1211.97,-83.13"/>
</a>
</g>
</g>
<!-- Node17 -->
<g id="Node000017" class="node">
<title>Node17</title>
<g id="a_Node000017"><a xlink:title=" ">
<polygon fill="#e0e0e0" stroke="#999999" points="515.75,-20.75 376,-20.75 376,0 515.75,0 515.75,-20.75"/>
<text xml:space="preserve" text-anchor="middle" x="445.88" y="-7.25" font-family="Helvetica,sans-Serif" font-size="10.00">TimerHandle.generated.h</text>
</a>
</g>
</g>
<!-- Node16&#45;&gt;Node17 -->
<g id="edge21_Node000016_Node000017" class="edge">
<title>Node16&#45;&gt;Node17</title>
<g id="a_edge21_Node000016_Node000017"><a xlink:title=" ">
<path fill="none" stroke="#63b8ff" d="M530.46,-56.34C514.79,-48.01 492.03,-35.91 474.06,-26.36"/>
<polygon fill="#63b8ff" stroke="#63b8ff" points="475.94,-23.39 465.47,-21.79 472.65,-29.57 475.94,-23.39"/>
</a>
</g>
</g>
<!-- Node18&#45;&gt;Node2 -->
<g id="edge23_Node000018_Node000002" class="edge">
<title>Node18&#45;&gt;Node2</title>
<g id="a_edge23_Node000018_Node000002"><a xlink:title=" ">
<path fill="none" stroke="#63b8ff" d="M687.1,-56.34C666.2,-47.73 635.54,-35.11 612.02,-25.43"/>
<polygon fill="#63b8ff" stroke="#63b8ff" points="613.43,-22.22 602.85,-21.65 610.76,-28.7 613.43,-22.22"/>
</a>
</g>
</g>
<!-- Node18&#45;&gt;Node3 -->
<g id="edge24_Node000018_Node000003" class="edge">
<title>Node18&#45;&gt;Node3</title>
<g id="a_edge24_Node000018_Node000003"><a xlink:title=" ">
<path fill="none" stroke="#63b8ff" d="M628.54,-57.57C625.62,-57.29 622.72,-57.01 619.88,-56.75 450.98,-41.12 252.8,-25.53 145.52,-17.31"/>
<polygon fill="#63b8ff" stroke="#63b8ff" points="145.91,-13.83 135.67,-16.56 145.38,-20.81 145.91,-13.83"/>
</a>
</g>
</g>
<!-- Node18&#45;&gt;Node4 -->
<g id="edge26_Node000018_Node000004" class="edge">
<title>Node18&#45;&gt;Node4</title>
<g id="a_edge26_Node000018_Node000004"><a xlink:title=" ">
<path fill="none" stroke="#63b8ff" d="M793.62,-57.59C796.74,-57.3 799.84,-57.02 802.88,-56.75 1000.89,-39.21 1235.87,-22.8 1344.8,-15.43"/>
<polygon fill="#63b8ff" stroke="#63b8ff" points="1344.95,-18.93 1354.69,-14.77 1344.48,-11.95 1344.95,-18.93"/>
</a>
</g>
</g>
<!-- Node19 -->
<g id="Node000019" class="node">
<title>Node19</title>
<g id="a_Node000019"><a xlink:title=" ">
<polygon fill="#e0e0e0" stroke="#999999" points="782.25,-20.75 639.5,-20.75 639.5,0 782.25,0 782.25,-20.75"/>
<text xml:space="preserve" text-anchor="middle" x="710.88" y="-7.25" font-family="Helvetica,sans-Serif" font-size="10.00">UObject/UObjectGlobals.h</text>
</a>
</g>
</g>
<!-- Node18&#45;&gt;Node19 -->
<g id="edge25_Node000018_Node000019" class="edge">
<title>Node18&#45;&gt;Node19</title>
<g id="a_edge25_Node000018_Node000019"><a xlink:title=" ">
<path fill="none" stroke="#63b8ff" d="M710.88,-56.34C710.88,-49.72 710.88,-40.72 710.88,-32.52"/>
<polygon fill="#63b8ff" stroke="#63b8ff" points="714.38,-32.59 710.88,-22.59 707.38,-32.59 714.38,-32.59"/>
</a>
</g>
</g>
<!-- Node20 -->
<g id="Node000020" class="node">
<title>Node20</title>
<g id="a_Node000020"><a xlink:title=" ">
<polygon fill="#e0e0e0" stroke="#999999" points="981.38,-20.75 800.38,-20.75 800.38,0 981.38,0 981.38,-20.75"/>
<text xml:space="preserve" text-anchor="middle" x="890.88" y="-7.25" font-family="Helvetica,sans-Serif" font-size="10.00">NaniteAssemblyData.generated.h</text>
</a>
</g>
</g>
<!-- Node18&#45;&gt;Node20 -->
<g id="edge27_Node000018_Node000020" class="edge">
<title>Node18&#45;&gt;Node20</title>
<g id="a_edge27_Node000018_Node000020"><a xlink:title=" ">
<path fill="none" stroke="#63b8ff" d="M743.06,-56.34C772.27,-47.45 815.59,-34.27 847.79,-24.48"/>
<polygon fill="#63b8ff" stroke="#63b8ff" points="848.67,-27.87 857.22,-21.61 846.64,-21.17 848.67,-27.87"/>
</a>
</g>
</g>
</g>
</svg>

<g id="navigator" transform="translate(0 0)" fill="#404254">
  <rect fill="#f2f5e9" fill-opacity="0.5" stroke="#606060" stroke-width=".5" x="0" y="0" width="60" height="60"/>
  <use id="zoomplus" xlink:href="#zoomPlus" x="17" y="9" onmousedown="handleZoom(evt,'in')"/>
  <use id="zoomminus" xlink:href="#zoomMin" x="42" y="9" onmousedown="handleZoom(evt,'out')"/>
  <use id="reset" xlink:href="#resetDef" x="30" y="36" onmousedown="handleReset()"/>
   <use id="arrowup" xlink:href="#arrowUp" x="0" y="0" onmousedown="handlePan(0,-1)"/>
  <use id="arrowright" xlink:href="#arrowRight" x="0" y="0" onmousedown="handlePan(1,0)"/>
  <use id="arrowdown" xlink:href="#arrowDown" x="0" y="0" onmousedown="handlePan(0,1)"/>
  <use id="arrowleft" xlink:href="#arrowLeft" x="0" y="0" onmousedown="handlePan(-1,0)"/>
</g>
<svg viewBox="0 0 15 15" width="100%" height="30px" preserveAspectRatio="xMaxYMin meet">
 <g id="arrow_out" transform="scale(0.3 0.3)">
  <a xlink:href="CameraModifier_8h__incl_org.svg" target="_base">
   <rect id="button" ry="5" rx="5" y="6" x="6" height="38" width="38"
        fill="#f2f5e9" fill-opacity="0.5" stroke="#606060" stroke-width="1.0"/>
   <path id="arrow"
     d="M 11.500037,31.436501 C 11.940474,20.09759 22.043105,11.32322 32.158766,21.979434 L 37.068811,17.246167 C 37.068811,17.246167 37.088388,32 37.088388,32 L 22.160133,31.978069 C 22.160133,31.978069 26.997745,27.140456 26.997745,27.140456 C 18.528582,18.264221 13.291696,25.230495 11.500037,31.436501 z"
     style="fill:#404040;"/>
  </a>
 </g>
</svg>

<style type='text/css'>
<![CDATA[
[data-mouse-over-selected='false'] { opacity: 0.7; }
[data-mouse-over-selected='true']  { opacity: 1.0; }
]]>
</style>
<script type="application/ecmascript"><![CDATA[
document.addEventListener('DOMContentLoaded', (event) => {
  highlightEdges();
  highlightAdjacentNodes();
});
]]></script>
</svg>
