<?xml version="1.0" encoding="UTF-8" standalone="no"?>
<!DOCTYPE svg PUBLIC "-//W3C//DTD SVG 1.1//EN"
 "http://www.w3.org/Graphics/SVG/1.1/DTD/svg11.dtd">
<!-- Generated by graphviz version 14.1.4 (0)
 -->
<!-- Title: /opt/unreal&#45;engine/Engine/Source/Runtime/Engine/Classes/Engine/Channel.h Pages: 1 -->
<svg width="628pt" height="447pt"
 viewBox="0.00 0.00 628.00 447.00" xmlns="http://www.w3.org/2000/svg" xmlns:xlink="http://www.w3.org/1999/xlink">
<g id="graph0" class="graph" transform="scale(1 1) rotate(0) translate(4 443)">
<title>/opt/unreal&#45;engine/Engine/Source/Runtime/Engine/Classes/Engine/Channel.h</title>
<!-- Node1 -->
<g id="Node000001" class="node">
<title>Node1</title>
<g id="a_Node000001"><a xlink:title=" ">
<polygon fill="#999999" stroke="#666666" points="376.25,-439 244,-439 244,-380 376.25,-380 376.25,-439"/>
<text xml:space="preserve" text-anchor="start" x="252" y="-425.5" font-family="Helvetica,sans-Serif" font-size="10.00">/opt/unreal&#45;engine</text>
<text xml:space="preserve" text-anchor="start" x="252" y="-412.75" font-family="Helvetica,sans-Serif" font-size="10.00">/Engine/Source/Runtime</text>
<text xml:space="preserve" text-anchor="start" x="252" y="-400" font-family="Helvetica,sans-Serif" font-size="10.00">/Engine/Classes/Engine</text>
<text xml:space="preserve" text-anchor="middle" x="310.12" y="-387.25" font-family="Helvetica,sans-Serif" font-size="10.00">/Channel.h</text>
</a>
</g>
</g>
<!-- Node2 -->
<g id="Node000002" class="node">
<title>Node2</title>
<g id="a_Node000002"><a xlink:href="$ActorChannel_8h.html" xlink:title=" ">
<polygon fill="white" stroke="#666666" points="132.25,-344 0,-344 0,-285 132.25,-285 132.25,-344"/>
<text xml:space="preserve" text-anchor="start" x="8" y="-330.5" font-family="Helvetica,sans-Serif" font-size="10.00">/opt/unreal&#45;engine</text>
<text xml:space="preserve" text-anchor="start" x="8" y="-317.75" font-family="Helvetica,sans-Serif" font-size="10.00">/Engine/Source/Runtime</text>
<text xml:space="preserve" text-anchor="start" x="8" y="-305" font-family="Helvetica,sans-Serif" font-size="10.00">/Engine/Classes/Engine</text>
<text xml:space="preserve" text-anchor="middle" x="66.12" y="-292.25" font-family="Helvetica,sans-Serif" font-size="10.00">/ActorChannel.h</text>
</a>
</g>
</g>
<!-- Node1&#45;&gt;Node2 -->
<g id="edge1_Node000001_Node000002" class="edge">
<title>Node1&#45;&gt;Node2</title>
<g id="a_edge1_Node000001_Node000002"><a xlink:title=" ">
<path fill="none" stroke="#63b8ff" d="M233.02,-379.11C200.71,-366.8 163.52,-352.62 132.46,-340.78"/>
<polygon fill="#63b8ff" stroke="#63b8ff" points="231.77,-382.38 242.36,-382.67 234.26,-375.84 231.77,-382.38"/>
</a>
</g>
</g>
<!-- Node3 -->
<g id="Node000003" class="node">
<title>Node3</title>
<g id="a_Node000003"><a xlink:href="$ControlChannel_8h.html" xlink:title=" ">
<polygon fill="white" stroke="#666666" points="282.25,-344 150,-344 150,-285 282.25,-285 282.25,-344"/>
<text xml:space="preserve" text-anchor="start" x="158" y="-330.5" font-family="Helvetica,sans-Serif" font-size="10.00">/opt/unreal&#45;engine</text>
<text xml:space="preserve" text-anchor="start" x="158" y="-317.75" font-family="Helvetica,sans-Serif" font-size="10.00">/Engine/Source/Runtime</text>
<text xml:space="preserve" text-anchor="start" x="158" y="-305" font-family="Helvetica,sans-Serif" font-size="10.00">/Engine/Classes/Engine</text>
<text xml:space="preserve" text-anchor="middle" x="216.12" y="-292.25" font-family="Helvetica,sans-Serif" font-size="10.00">/ControlChannel.h</text>
</a>
</g>
</g>
<!-- Node1&#45;&gt;Node3 -->
<g id="edge2_Node000001_Node000003" class="edge">
<title>Node1&#45;&gt;Node3</title>
<g id="a_edge2_Node000001_Node000003"><a xlink:title=" ">
<path fill="none" stroke="#63b8ff" d="M272.72,-371.49C263.61,-362.48 254,-352.97 245.33,-344.4"/>
<polygon fill="#63b8ff" stroke="#63b8ff" points="270.25,-373.97 279.82,-378.52 275.17,-369 270.25,-373.97"/>
</a>
</g>
</g>
<!-- Node4 -->
<g id="Node000004" class="node">
<title>Node4</title>
<g id="a_Node000004"><a xlink:href="$NetConnection_8h.html" xlink:title=" ">
<polygon fill="white" stroke="#666666" points="376.25,-249 244,-249 244,-190 376.25,-190 376.25,-249"/>
<text xml:space="preserve" text-anchor="start" x="252" y="-235.5" font-family="Helvetica,sans-Serif" font-size="10.00">/opt/unreal&#45;engine</text>
<text xml:space="preserve" text-anchor="start" x="252" y="-222.75" font-family="Helvetica,sans-Serif" font-size="10.00">/Engine/Source/Runtime</text>
<text xml:space="preserve" text-anchor="start" x="252" y="-210" font-family="Helvetica,sans-Serif" font-size="10.00">/Engine/Classes/Engine</text>
<text xml:space="preserve" text-anchor="middle" x="310.12" y="-197.25" font-family="Helvetica,sans-Serif" font-size="10.00">/NetConnection.h</text>
</a>
</g>
</g>
<!-- Node1&#45;&gt;Node4 -->
<g id="edge3_Node000001_Node000004" class="edge">
<title>Node1&#45;&gt;Node4</title>
<g id="a_edge3_Node000001_Node000004"><a xlink:title=" ">
<path fill="none" stroke="#63b8ff" d="M310.12,-368.08C310.12,-332.4 310.12,-281.25 310.12,-249.5"/>
<polygon fill="#63b8ff" stroke="#63b8ff" points="306.63,-368.02 310.13,-378.02 313.63,-368.02 306.63,-368.02"/>
</a>
</g>
</g>
<!-- Node9 -->
<g id="Node000009" class="node">
<title>Node9</title>
<g id="a_Node000009"><a xlink:href="$NetDriver_8h.html" xlink:title=" ">
<polygon fill="white" stroke="#666666" points="470.25,-344 338,-344 338,-285 470.25,-285 470.25,-344"/>
<text xml:space="preserve" text-anchor="start" x="346" y="-330.5" font-family="Helvetica,sans-Serif" font-size="10.00">/opt/unreal&#45;engine</text>
<text xml:space="preserve" text-anchor="start" x="346" y="-317.75" font-family="Helvetica,sans-Serif" font-size="10.00">/Engine/Source/Runtime</text>
<text xml:space="preserve" text-anchor="start" x="346" y="-305" font-family="Helvetica,sans-Serif" font-size="10.00">/Engine/Classes/Engine</text>
<text xml:space="preserve" text-anchor="middle" x="404.12" y="-292.25" font-family="Helvetica,sans-Serif" font-size="10.00">/NetDriver.h</text>
</a>
</g>
</g>
<!-- Node1&#45;&gt;Node9 -->
<g id="edge8_Node000001_Node000009" class="edge">
<title>Node1&#45;&gt;Node9</title>
<g id="a_edge8_Node000001_Node000009"><a xlink:title=" ">
<path fill="none" stroke="#63b8ff" d="M347.53,-371.49C356.64,-362.48 366.25,-352.97 374.92,-344.4"/>
<polygon fill="#63b8ff" stroke="#63b8ff" points="345.08,-369 340.43,-378.52 350,-373.97 345.08,-369"/>
</a>
</g>
</g>
<!-- Node10 -->
<g id="Node000010" class="node">
<title>Node10</title>
<g id="a_Node000010"><a xlink:href="$VoiceChannel_8h.html" xlink:title=" ">
<polygon fill="white" stroke="#666666" points="620.25,-344 488,-344 488,-285 620.25,-285 620.25,-344"/>
<text xml:space="preserve" text-anchor="start" x="496" y="-330.5" font-family="Helvetica,sans-Serif" font-size="10.00">/opt/unreal&#45;engine</text>
<text xml:space="preserve" text-anchor="start" x="496" y="-317.75" font-family="Helvetica,sans-Serif" font-size="10.00">/Engine/Source/Runtime</text>
<text xml:space="preserve" text-anchor="start" x="496" y="-305" font-family="Helvetica,sans-Serif" font-size="10.00">/Engine/Classes/Engine</text>
<text xml:space="preserve" text-anchor="middle" x="554.12" y="-292.25" font-family="Helvetica,sans-Serif" font-size="10.00">/VoiceChannel.h</text>
</a>
</g>
</g>
<!-- Node1&#45;&gt;Node10 -->
<g id="edge11_Node000001_Node000010" class="edge">
<title>Node1&#45;&gt;Node10</title>
<g id="a_edge11_Node000001_Node000010"><a xlink:title=" ">
<path fill="none" stroke="#63b8ff" d="M387.23,-379.11C419.54,-366.8 456.73,-352.62 487.79,-340.78"/>
<polygon fill="#63b8ff" stroke="#63b8ff" points="385.99,-375.84 377.89,-382.67 388.48,-382.38 385.99,-375.84"/>
</a>
</g>
</g>
<!-- Node5 -->
<g id="Node000005" class="node">
<title>Node5</title>
<g id="a_Node000005"><a xlink:href="$ChildConnection_8h.html" xlink:title=" ">
<polygon fill="white" stroke="#666666" points="151.25,-154 19,-154 19,-95 151.25,-95 151.25,-154"/>
<text xml:space="preserve" text-anchor="start" x="27" y="-140.5" font-family="Helvetica,sans-Serif" font-size="10.00">/opt/unreal&#45;engine</text>
<text xml:space="preserve" text-anchor="start" x="27" y="-127.75" font-family="Helvetica,sans-Serif" font-size="10.00">/Engine/Source/Runtime</text>
<text xml:space="preserve" text-anchor="start" x="27" y="-115" font-family="Helvetica,sans-Serif" font-size="10.00">/Engine/Classes/Engine</text>
<text xml:space="preserve" text-anchor="middle" x="85.12" y="-102.25" font-family="Helvetica,sans-Serif" font-size="10.00">/ChildConnection.h</text>
</a>
</g>
</g>
<!-- Node4&#45;&gt;Node5 -->
<g id="edge4_Node000004_Node000005" class="edge">
<title>Node4&#45;&gt;Node5</title>
<g id="a_edge4_Node000004_Node000005"><a xlink:title=" ">
<path fill="none" stroke="#63b8ff" d="M233.14,-186.68C206.62,-175.72 177.16,-163.54 151.55,-152.95"/>
<polygon fill="#63b8ff" stroke="#63b8ff" points="231.55,-189.81 242.13,-190.4 234.23,-183.34 231.55,-189.81"/>
</a>
</g>
</g>
<!-- Node6 -->
<g id="Node000006" class="node">
<title>Node6</title>
<g id="a_Node000006"><a xlink:href="$DemoNetConnection_8h.html" xlink:title=" ">
<polygon fill="white" stroke="#666666" points="301.25,-154 169,-154 169,-95 301.25,-95 301.25,-154"/>
<text xml:space="preserve" text-anchor="start" x="177" y="-140.5" font-family="Helvetica,sans-Serif" font-size="10.00">/opt/unreal&#45;engine</text>
<text xml:space="preserve" text-anchor="start" x="177" y="-127.75" font-family="Helvetica,sans-Serif" font-size="10.00">/Engine/Source/Runtime</text>
<text xml:space="preserve" text-anchor="start" x="177" y="-115" font-family="Helvetica,sans-Serif" font-size="10.00">/Engine/Classes/Engine</text>
<text xml:space="preserve" text-anchor="middle" x="235.12" y="-102.25" font-family="Helvetica,sans-Serif" font-size="10.00">/DemoNetConnection.h</text>
</a>
</g>
</g>
<!-- Node4&#45;&gt;Node6 -->
<g id="edge5_Node000004_Node000006" class="edge">
<title>Node4&#45;&gt;Node6</title>
<g id="a_edge5_Node000004_Node000006"><a xlink:title=" ">
<path fill="none" stroke="#63b8ff" d="M279.61,-180.66C272.54,-171.9 265.13,-162.71 258.43,-154.4"/>
<polygon fill="#63b8ff" stroke="#63b8ff" points="276.85,-182.82 285.86,-188.41 282.3,-178.42 276.85,-182.82"/>
</a>
</g>
</g>
<!-- Node8 -->
<g id="Node000008" class="node">
<title>Node8</title>
<g id="a_Node000008"><a xlink:href="$NetworkObjectList_8h.html" xlink:title=" ">
<polygon fill="white" stroke="#666666" points="451.25,-154 319,-154 319,-95 451.25,-95 451.25,-154"/>
<text xml:space="preserve" text-anchor="start" x="327" y="-140.5" font-family="Helvetica,sans-Serif" font-size="10.00">/opt/unreal&#45;engine</text>
<text xml:space="preserve" text-anchor="start" x="327" y="-127.75" font-family="Helvetica,sans-Serif" font-size="10.00">/Engine/Source/Runtime</text>
<text xml:space="preserve" text-anchor="start" x="327" y="-115" font-family="Helvetica,sans-Serif" font-size="10.00">/Engine/Classes/Engine</text>
<text xml:space="preserve" text-anchor="middle" x="385.12" y="-102.25" font-family="Helvetica,sans-Serif" font-size="10.00">/NetworkObjectList.h</text>
</a>
</g>
</g>
<!-- Node4&#45;&gt;Node8 -->
<g id="edge7_Node000004_Node000008" class="edge">
<title>Node4&#45;&gt;Node8</title>
<g id="a_edge7_Node000004_Node000008"><a xlink:title=" ">
<path fill="none" stroke="#63b8ff" d="M340.64,-180.66C347.71,-171.9 355.12,-162.71 361.82,-154.4"/>
<polygon fill="#63b8ff" stroke="#63b8ff" points="337.95,-178.42 334.39,-188.41 343.4,-182.82 337.95,-178.42"/>
</a>
</g>
</g>
<!-- Node7 -->
<g id="Node000007" class="node">
<title>Node7</title>
<g id="a_Node000007"><a xlink:href="$DemoNetDriver_8h.html" xlink:title=" ">
<polygon fill="white" stroke="#666666" points="423.25,-59 291,-59 291,0 423.25,0 423.25,-59"/>
<text xml:space="preserve" text-anchor="start" x="299" y="-45.5" font-family="Helvetica,sans-Serif" font-size="10.00">/opt/unreal&#45;engine</text>
<text xml:space="preserve" text-anchor="start" x="299" y="-32.75" font-family="Helvetica,sans-Serif" font-size="10.00">/Engine/Source/Runtime</text>
<text xml:space="preserve" text-anchor="start" x="299" y="-20" font-family="Helvetica,sans-Serif" font-size="10.00">/Engine/Classes/Engine</text>
<text xml:space="preserve" text-anchor="middle" x="357.12" y="-7.25" font-family="Helvetica,sans-Serif" font-size="10.00">/DemoNetDriver.h</text>
</a>
</g>
</g>
<!-- Node6&#45;&gt;Node7 -->
<g id="edge6_Node000006_Node000007" class="edge">
<title>Node6&#45;&gt;Node7</title>
<g id="a_edge6_Node000006_Node000007"><a xlink:title=" ">
<path fill="none" stroke="#63b8ff" d="M281.87,-87.86C294.22,-78.45 307.4,-68.41 319.22,-59.4"/>
<polygon fill="#63b8ff" stroke="#63b8ff" points="280.09,-84.82 274.26,-93.67 284.34,-90.39 280.09,-84.82"/>
</a>
</g>
</g>
<!-- Node9&#45;&gt;Node4 -->
<g id="edge10_Node000009_Node000004" class="edge">
<title>Node9&#45;&gt;Node4</title>
<g id="a_edge10_Node000009_Node000004"><a xlink:title=" ">
<path fill="none" stroke="#63b8ff" d="M366.72,-276.49C357.61,-267.48 348,-257.97 339.33,-249.4"/>
<polygon fill="#63b8ff" stroke="#63b8ff" points="364.25,-278.97 373.82,-283.52 369.17,-274 364.25,-278.97"/>
</a>
</g>
</g>
<!-- Node9&#45;&gt;Node7 -->
<g id="edge9_Node000009_Node000007" class="edge">
<title>Node9&#45;&gt;Node7</title>
<g id="a_edge9_Node000009_Node000007"><a xlink:title=" ">
<path fill="none" stroke="#63b8ff" d="M430.37,-274.8C457.62,-229.34 492.13,-152.81 460.12,-95 451.74,-79.86 438.17,-67.81 423.58,-58.41"/>
<polygon fill="#63b8ff" stroke="#63b8ff" points="427.41,-272.92 425.13,-283.27 433.37,-276.6 427.41,-272.92"/>
</a>
</g>
</g>
</g>
</svg>
