<?xml version="1.0" encoding="UTF-8" standalone="no"?>
<!DOCTYPE svg PUBLIC "-//W3C//DTD SVG 1.1//EN"
 "http://www.w3.org/Graphics/SVG/1.1/DTD/svg11.dtd">
<!-- Generated by graphviz version 14.1.4 (0)
 -->
<!-- Title: /opt/unreal&#45;engine/Engine/Source/Runtime/Engine/Classes/GameFramework/CheatManager.h Pages: 1 -->
<svg width="1486pt" height="237pt"
 viewBox="0.00 0.00 1486.00 237.00" xmlns="http://www.w3.org/2000/svg" xmlns:xlink="http://www.w3.org/1999/xlink">
<g id="graph0" class="graph" transform="scale(1 1) rotate(0) translate(4 233.25)">
<title>/opt/unreal&#45;engine/Engine/Source/Runtime/Engine/Classes/GameFramework/CheatManager.h</title>
<!-- Node1 -->
<g id="Node000001" class="node">
<title>Node1</title>
<g id="a_Node000001"><a xlink:title=" ">
<polygon fill="#999999" stroke="#666666" points="799.62,-229.25 620.12,-229.25 620.12,-170.25 799.62,-170.25 799.62,-229.25"/>
<text xml:space="preserve" text-anchor="start" x="628.12" y="-215.75" font-family="Helvetica,sans-Serif" font-size="10.00">/opt/unreal&#45;engine</text>
<text xml:space="preserve" text-anchor="start" x="628.12" y="-203" font-family="Helvetica,sans-Serif" font-size="10.00">/Engine/Source/Runtime</text>
<text xml:space="preserve" text-anchor="start" x="628.12" y="-190.25" font-family="Helvetica,sans-Serif" font-size="10.00">/Engine/Classes/GameFramework</text>
<text xml:space="preserve" text-anchor="middle" x="709.88" y="-177.5" font-family="Helvetica,sans-Serif" font-size="10.00">/CheatManager.h</text>
</a>
</g>
</g>
<!-- Node2 -->
<g id="Node000002" class="node">
<title>Node2</title>
<g id="a_Node000002"><a xlink:href="CheatManagerDefines_8h.html" target="_top" xlink:title=" ">
<polygon fill="white" stroke="#666666" points="133.75,-134.25 0,-134.25 0,-113.5 133.75,-113.5 133.75,-134.25"/>
<text xml:space="preserve" text-anchor="middle" x="66.88" y="-120.75" font-family="Helvetica,sans-Serif" font-size="10.00">CheatManagerDefines.h</text>
</a>
</g>
</g>
<!-- Node1&#45;&gt;Node2 -->
<g id="edge1_Node000001_Node000002" class="edge">
<title>Node1&#45;&gt;Node2</title>
<g id="a_edge1_Node000001_Node000002"><a xlink:title=" ">
<path fill="none" stroke="#63b8ff" d="M619.84,-188.44C508.85,-175.73 314.47,-153.45 147.88,-134.25 147.03,-134.15 146.18,-134.05 145.33,-133.96"/>
<polygon fill="#63b8ff" stroke="#63b8ff" points="145.9,-130.5 135.56,-132.83 145.09,-137.45 145.9,-130.5"/>
</a>
</g>
</g>
<!-- Node3 -->
<g id="Node000003" class="node">
<title>Node3</title>
<g id="a_Node000003"><a xlink:title=" ">
<polygon fill="#e0e0e0" stroke="#999999" points="213.5,-20.75 126.25,-20.75 126.25,0 213.5,0 213.5,-20.75"/>
<text xml:space="preserve" text-anchor="middle" x="169.88" y="-7.25" font-family="Helvetica,sans-Serif" font-size="10.00">CoreMinimal.h</text>
</a>
</g>
</g>
<!-- Node1&#45;&gt;Node3 -->
<g id="edge2_Node000001_Node000003" class="edge">
<title>Node1&#45;&gt;Node3</title>
<g id="a_edge2_Node000001_Node000003"><a xlink:title=" ">
<path fill="none" stroke="#63b8ff" d="M619.82,-191.86C509.79,-182.35 330.86,-163.05 270.88,-134.25 225.82,-112.62 193.99,-60.16 179.21,-31.28"/>
<polygon fill="#63b8ff" stroke="#63b8ff" points="182.45,-29.93 174.89,-22.5 176.16,-33.02 182.45,-29.93"/>
</a>
</g>
</g>
<!-- Node4 -->
<g id="Node000004" class="node">
<title>Node4</title>
<g id="a_Node000004"><a xlink:title=" ">
<polygon fill="#e0e0e0" stroke="#999999" points="373.75,-20.75 240,-20.75 240,0 373.75,0 373.75,-20.75"/>
<text xml:space="preserve" text-anchor="middle" x="306.88" y="-7.25" font-family="Helvetica,sans-Serif" font-size="10.00">UObject/ObjectMacros.h</text>
</a>
</g>
</g>
<!-- Node1&#45;&gt;Node4 -->
<g id="edge3_Node000001_Node000004" class="edge">
<title>Node1&#45;&gt;Node4</title>
<g id="a_edge3_Node000001_Node000004"><a xlink:title=" ">
<path fill="none" stroke="#63b8ff" d="M619.85,-189.73C491.84,-174.82 267.34,-140.27 218.88,-77.5 201.74,-55.31 233.14,-36.84 263.08,-25.11"/>
<polygon fill="#63b8ff" stroke="#63b8ff" points="263.94,-28.52 272.11,-21.77 261.51,-21.96 263.94,-28.52"/>
</a>
</g>
</g>
<!-- Node5 -->
<g id="Node000005" class="node">
<title>Node5</title>
<g id="a_Node000005"><a xlink:title=" ">
<polygon fill="#e0e0e0" stroke="#999999" points="850.12,-20.75 751.62,-20.75 751.62,0 850.12,0 850.12,-20.75"/>
<text xml:space="preserve" text-anchor="middle" x="800.88" y="-7.25" font-family="Helvetica,sans-Serif" font-size="10.00">UObject/Object.h</text>
</a>
</g>
</g>
<!-- Node1&#45;&gt;Node5 -->
<g id="edge4_Node000001_Node000005" class="edge">
<title>Node1&#45;&gt;Node5</title>
<g id="a_edge4_Node000001_Node000005"><a xlink:title=" ">
<path fill="none" stroke="#63b8ff" d="M799.88,-175.73C867.1,-158.56 961.23,-134.52 1043.88,-113.5 1106.97,-97.45 1145.89,-128.88 1185.88,-77.5 1191.54,-70.22 1192,-63.64 1185.88,-56.75 1164.75,-32.99 965.04,-19.58 861.9,-14.19"/>
<polygon fill="#63b8ff" stroke="#63b8ff" points="862.1,-10.7 851.93,-13.68 861.74,-17.69 862.1,-10.7"/>
</a>
</g>
</g>
<!-- Node6 -->
<g id="Node000006" class="node">
<title>Node6</title>
<g id="a_Node000006"><a xlink:title=" ">
<polygon fill="#e0e0e0" stroke="#999999" points="359.62,-77.5 228.12,-77.5 228.12,-56.75 359.62,-56.75 359.62,-77.5"/>
<text xml:space="preserve" text-anchor="middle" x="293.88" y="-64" font-family="Helvetica,sans-Serif" font-size="10.00">Templates/SubclassOf.h</text>
</a>
</g>
</g>
<!-- Node1&#45;&gt;Node6 -->
<g id="edge5_Node000001_Node000006" class="edge">
<title>Node1&#45;&gt;Node6</title>
<g id="a_edge5_Node000001_Node000006"><a xlink:title=" ">
<path fill="none" stroke="#63b8ff" d="M619.87,-170.49C532.01,-142.9 402.2,-102.14 336.01,-81.36"/>
<polygon fill="#63b8ff" stroke="#63b8ff" points="337.22,-78.07 326.63,-78.41 335.12,-84.75 337.22,-78.07"/>
</a>
</g>
</g>
<!-- Node7 -->
<g id="Node000007" class="node">
<title>Node7</title>
<g id="a_Node000007"><a xlink:href="EngineTypes_8h.html" target="_top" xlink:title=" ">
<polygon fill="white" stroke="#666666" points="770.75,-134.25 649,-134.25 649,-113.5 770.75,-113.5 770.75,-134.25"/>
<text xml:space="preserve" text-anchor="middle" x="709.88" y="-120.75" font-family="Helvetica,sans-Serif" font-size="10.00">Engine/EngineTypes.h</text>
</a>
</g>
</g>
<!-- Node1&#45;&gt;Node7 -->
<g id="edge6_Node000001_Node000007" class="edge">
<title>Node1&#45;&gt;Node7</title>
<g id="a_edge6_Node000001_Node000007"><a xlink:title=" ">
<path fill="none" stroke="#63b8ff" d="M709.88,-169.98C709.88,-161.98 709.88,-153.45 709.88,-145.99"/>
<polygon fill="#63b8ff" stroke="#63b8ff" points="713.38,-146.22 709.88,-136.22 706.38,-146.22 713.38,-146.22"/>
</a>
</g>
</g>
<!-- Node16 -->
<g id="Node000016" class="node">
<title>Node16</title>
<g id="a_Node000016"><a xlink:title=" ">
<polygon fill="#e0e0e0" stroke="#999999" points="1182.88,-134.25 1052.88,-134.25 1052.88,-113.5 1182.88,-113.5 1182.88,-134.25"/>
<text xml:space="preserve" text-anchor="middle" x="1117.88" y="-120.75" font-family="Helvetica,sans-Serif" font-size="10.00">UObject/ScriptMacros.h</text>
</a>
</g>
</g>
<!-- Node1&#45;&gt;Node16 -->
<g id="edge21_Node000001_Node000016" class="edge">
<title>Node1&#45;&gt;Node16</title>
<g id="a_edge21_Node000001_Node000016"><a xlink:title=" ">
<path fill="none" stroke="#63b8ff" d="M799.92,-182.45C876.28,-168.62 984,-149.12 1052.38,-136.73"/>
<polygon fill="#63b8ff" stroke="#63b8ff" points="1052.72,-140.23 1061.93,-135 1051.47,-133.34 1052.72,-140.23"/>
</a>
</g>
</g>
<!-- Node17 -->
<g id="Node000017" class="node">
<title>Node17</title>
<g id="a_Node000017"><a xlink:title=" ">
<polygon fill="#e0e0e0" stroke="#999999" points="1311.12,-134.25 1200.62,-134.25 1200.62,-113.5 1311.12,-113.5 1311.12,-134.25"/>
<text xml:space="preserve" text-anchor="middle" x="1255.88" y="-120.75" font-family="Helvetica,sans-Serif" font-size="10.00">UObject/Interface.h</text>
</a>
</g>
</g>
<!-- Node1&#45;&gt;Node17 -->
<g id="edge22_Node000001_Node000017" class="edge">
<title>Node1&#45;&gt;Node17</title>
<g id="a_edge22_Node000001_Node000017"><a xlink:title=" ">
<path fill="none" stroke="#63b8ff" d="M800.09,-187.02C894.5,-174.66 1047.38,-154.44 1189.31,-134.6"/>
<polygon fill="#63b8ff" stroke="#63b8ff" points="1189.46,-138.11 1198.88,-133.26 1188.49,-131.18 1189.46,-138.11"/>
</a>
</g>
</g>
<!-- Node18 -->
<g id="Node000018" class="node">
<title>Node18</title>
<g id="a_Node000018"><a xlink:title=" ">
<polygon fill="#e0e0e0" stroke="#999999" points="1478.25,-134.25 1329.5,-134.25 1329.5,-113.5 1478.25,-113.5 1478.25,-134.25"/>
<text xml:space="preserve" text-anchor="middle" x="1403.88" y="-120.75" font-family="Helvetica,sans-Serif" font-size="10.00">CheatManager.generated.h</text>
</a>
</g>
</g>
<!-- Node1&#45;&gt;Node18 -->
<g id="edge23_Node000001_Node000018" class="edge">
<title>Node1&#45;&gt;Node18</title>
<g id="a_edge23_Node000001_Node000018"><a xlink:title=" ">
<path fill="none" stroke="#63b8ff" d="M800.07,-189.38C916.8,-177.21 1126.86,-155.19 1317.83,-134.47"/>
<polygon fill="#63b8ff" stroke="#63b8ff" points="1318.15,-137.95 1327.72,-133.39 1317.4,-130.99 1318.15,-137.95"/>
</a>
</g>
</g>
<!-- Node7&#45;&gt;Node4 -->
<g id="edge8_Node000007_Node000004" class="edge">
<title>Node7&#45;&gt;Node4</title>
<g id="a_edge8_Node000007_Node000004"><a xlink:title=" ">
<path fill="none" stroke="#63b8ff" d="M648.7,-121.44C586.06,-118.22 486.83,-108.18 406.88,-77.5 390.74,-71.31 353.44,-45.31 329.23,-27.82"/>
<polygon fill="#63b8ff" stroke="#63b8ff" points="331.43,-25.09 321.29,-22.03 327.32,-30.75 331.43,-25.09"/>
</a>
</g>
</g>
<!-- Node7&#45;&gt;Node5 -->
<g id="edge9_Node000007_Node000005" class="edge">
<title>Node7&#45;&gt;Node5</title>
<g id="a_edge9_Node000007_Node000005"><a xlink:title=" ">
<path fill="none" stroke="#63b8ff" d="M717.63,-113.37C732.67,-94.95 766.01,-54.09 785.63,-30.05"/>
<polygon fill="#63b8ff" stroke="#63b8ff" points="788.31,-32.31 791.92,-22.35 782.89,-27.88 788.31,-32.31"/>
</a>
</g>
</g>
<!-- Node7&#45;&gt;Node6 -->
<g id="edge11_Node000007_Node000006" class="edge">
<title>Node7&#45;&gt;Node6</title>
<g id="a_edge11_Node000007_Node000006"><a xlink:title=" ">
<path fill="none" stroke="#63b8ff" d="M648.94,-114.86C575.22,-105.15 451.05,-88.81 370.81,-78.25"/>
<polygon fill="#63b8ff" stroke="#63b8ff" points="371.66,-74.83 361.29,-77 370.74,-81.77 371.66,-74.83"/>
</a>
</g>
</g>
<!-- Node8 -->
<g id="Node000008" class="node">
<title>Node8</title>
<g id="a_Node000008"><a xlink:title=" ">
<polygon fill="#e0e0e0" stroke="#999999" points="729.25,-77.5 598.5,-77.5 598.5,-56.75 729.25,-56.75 729.25,-77.5"/>
<text xml:space="preserve" text-anchor="middle" x="663.88" y="-64" font-family="Helvetica,sans-Serif" font-size="10.00">Misc/EnumClassFlags.h</text>
</a>
</g>
</g>
<!-- Node7&#45;&gt;Node8 -->
<g id="edge7_Node000007_Node000008" class="edge">
<title>Node7&#45;&gt;Node8</title>
<g id="a_edge7_Node000007_Node000008"><a xlink:title=" ">
<path fill="none" stroke="#63b8ff" d="M701.65,-113.09C695.44,-105.69 686.73,-95.32 679.24,-86.41"/>
<polygon fill="#63b8ff" stroke="#63b8ff" points="682.11,-84.39 673,-78.99 676.75,-88.9 682.11,-84.39"/>
</a>
</g>
</g>
<!-- Node9 -->
<g id="Node000009" class="node">
<title>Node9</title>
<g id="a_Node000009"><a xlink:title=" ">
<polygon fill="#e0e0e0" stroke="#999999" points="878.5,-77.5 785.25,-77.5 785.25,-56.75 878.5,-56.75 878.5,-77.5"/>
<text xml:space="preserve" text-anchor="middle" x="831.88" y="-64" font-family="Helvetica,sans-Serif" font-size="10.00">UObject/Class.h</text>
</a>
</g>
</g>
<!-- Node7&#45;&gt;Node9 -->
<g id="edge10_Node000007_Node000009" class="edge">
<title>Node7&#45;&gt;Node9</title>
<g id="a_edge10_Node000007_Node000009"><a xlink:title=" ">
<path fill="none" stroke="#63b8ff" d="M731.69,-113.09C750.68,-104.56 778.47,-92.09 799.97,-82.44"/>
<polygon fill="#63b8ff" stroke="#63b8ff" points="801.18,-85.74 808.87,-78.45 798.32,-79.35 801.18,-85.74"/>
</a>
</g>
</g>
<!-- Node10 -->
<g id="Node000010" class="node">
<title>Node10</title>
<g id="a_Node000010"><a xlink:href="TimerHandle_8h.html" target="_top" xlink:title=" ">
<polygon fill="white" stroke="#666666" points="1176.5,-77.5 1053.25,-77.5 1053.25,-56.75 1176.5,-56.75 1176.5,-77.5"/>
<text xml:space="preserve" text-anchor="middle" x="1114.88" y="-64" font-family="Helvetica,sans-Serif" font-size="10.00">Engine/TimerHandle.h</text>
</a>
</g>
</g>
<!-- Node7&#45;&gt;Node10 -->
<g id="edge12_Node000007_Node000010" class="edge">
<title>Node7&#45;&gt;Node10</title>
<g id="a_edge12_Node000007_Node000010"><a xlink:title=" ">
<path fill="none" stroke="#63b8ff" d="M770.95,-114.62C843.5,-104.81 964.45,-88.46 1041.88,-77.99"/>
<polygon fill="#63b8ff" stroke="#63b8ff" points="1042.03,-81.5 1051.47,-76.7 1041.1,-74.57 1042.03,-81.5"/>
</a>
</g>
</g>
<!-- Node12 -->
<g id="Node000012" class="node">
<title>Node12</title>
<g id="a_Node000012"><a xlink:href="NaniteAssemblyData_8h.html" target="_top" xlink:title=" ">
<polygon fill="white" stroke="#666666" points="580.12,-77.5 415.62,-77.5 415.62,-56.75 580.12,-56.75 580.12,-77.5"/>
<text xml:space="preserve" text-anchor="middle" x="497.88" y="-64" font-family="Helvetica,sans-Serif" font-size="10.00">Engine/NaniteAssemblyData.h</text>
</a>
</g>
</g>
<!-- Node7&#45;&gt;Node12 -->
<g id="edge14_Node000007_Node000012" class="edge">
<title>Node7&#45;&gt;Node12</title>
<g id="a_edge14_Node000007_Node000012"><a xlink:title=" ">
<path fill="none" stroke="#63b8ff" d="M671.97,-113.09C636.96,-104.04 584.76,-90.56 546.65,-80.72"/>
<polygon fill="#63b8ff" stroke="#63b8ff" points="547.83,-77.41 537.27,-78.3 546.08,-84.19 547.83,-77.41"/>
</a>
</g>
</g>
<!-- Node15 -->
<g id="Node000015" class="node">
<title>Node15</title>
<g id="a_Node000015"><a xlink:title=" ">
<polygon fill="#e0e0e0" stroke="#999999" points="1035,-77.5 896.75,-77.5 896.75,-56.75 1035,-56.75 1035,-77.5"/>
<text xml:space="preserve" text-anchor="middle" x="965.88" y="-64" font-family="Helvetica,sans-Serif" font-size="10.00">EngineTypes.generated.h</text>
</a>
</g>
</g>
<!-- Node7&#45;&gt;Node15 -->
<g id="edge20_Node000007_Node000015" class="edge">
<title>Node7&#45;&gt;Node15</title>
<g id="a_edge20_Node000007_Node000015"><a xlink:title=" ">
<path fill="none" stroke="#63b8ff" d="M755.94,-113.02C798.76,-103.87 862.69,-90.19 908.74,-80.34"/>
<polygon fill="#63b8ff" stroke="#63b8ff" points="909.22,-83.82 918.27,-78.31 907.76,-76.97 909.22,-83.82"/>
</a>
</g>
</g>
<!-- Node11 -->
<g id="Node000011" class="node">
<title>Node11</title>
<g id="a_Node000011"><a xlink:title=" ">
<polygon fill="#e0e0e0" stroke="#999999" points="1184.75,-20.75 1045,-20.75 1045,0 1184.75,0 1184.75,-20.75"/>
<text xml:space="preserve" text-anchor="middle" x="1114.88" y="-7.25" font-family="Helvetica,sans-Serif" font-size="10.00">TimerHandle.generated.h</text>
</a>
</g>
</g>
<!-- Node10&#45;&gt;Node11 -->
<g id="edge13_Node000010_Node000011" class="edge">
<title>Node10&#45;&gt;Node11</title>
<g id="a_edge13_Node000010_Node000011"><a xlink:title=" ">
<path fill="none" stroke="#63b8ff" d="M1114.88,-56.34C1114.88,-49.72 1114.88,-40.72 1114.88,-32.52"/>
<polygon fill="#63b8ff" stroke="#63b8ff" points="1118.38,-32.59 1114.88,-22.59 1111.38,-32.59 1118.38,-32.59"/>
</a>
</g>
</g>
<!-- Node12&#45;&gt;Node3 -->
<g id="edge15_Node000012_Node000003" class="edge">
<title>Node12&#45;&gt;Node3</title>
<g id="a_edge15_Node000012_Node000003"><a xlink:title=" ">
<path fill="none" stroke="#63b8ff" d="M438.86,-56.27C378.04,-46.12 283.99,-30.42 224.74,-20.53"/>
<polygon fill="#63b8ff" stroke="#63b8ff" points="225.67,-17.14 215.23,-18.95 224.52,-24.04 225.67,-17.14"/>
</a>
</g>
</g>
<!-- Node12&#45;&gt;Node4 -->
<g id="edge16_Node000012_Node000004" class="edge">
<title>Node12&#45;&gt;Node4</title>
<g id="a_edge16_Node000012_Node000004"><a xlink:title=" ">
<path fill="none" stroke="#63b8ff" d="M463.73,-56.34C432.45,-47.37 385.96,-34.04 351.7,-24.23"/>
<polygon fill="#63b8ff" stroke="#63b8ff" points="353.08,-20.98 342.5,-21.59 351.15,-27.71 353.08,-20.98"/>
</a>
</g>
</g>
<!-- Node12&#45;&gt;Node5 -->
<g id="edge18_Node000012_Node000005" class="edge">
<title>Node12&#45;&gt;Node5</title>
<g id="a_edge18_Node000012_Node000005"><a xlink:title=" ">
<path fill="none" stroke="#63b8ff" d="M552.4,-56.27C605.21,-46.73 685.14,-32.29 740,-22.37"/>
<polygon fill="#63b8ff" stroke="#63b8ff" points="740.6,-25.82 749.82,-20.6 739.36,-18.93 740.6,-25.82"/>
</a>
</g>
</g>
<!-- Node13 -->
<g id="Node000013" class="node">
<title>Node13</title>
<g id="a_Node000013"><a xlink:title=" ">
<polygon fill="#e0e0e0" stroke="#999999" points="733.25,-20.75 590.5,-20.75 590.5,0 733.25,0 733.25,-20.75"/>
<text xml:space="preserve" text-anchor="middle" x="661.88" y="-7.25" font-family="Helvetica,sans-Serif" font-size="10.00">UObject/UObjectGlobals.h</text>
</a>
</g>
</g>
<!-- Node12&#45;&gt;Node13 -->
<g id="edge17_Node000012_Node000013" class="edge">
<title>Node12&#45;&gt;Node13</title>
<g id="a_edge17_Node000012_Node000013"><a xlink:title=" ">
<path fill="none" stroke="#63b8ff" d="M527.19,-56.34C553.58,-47.53 592.59,-34.5 621.85,-24.74"/>
<polygon fill="#63b8ff" stroke="#63b8ff" points="622.72,-28.14 631.1,-21.65 620.5,-21.5 622.72,-28.14"/>
</a>
</g>
</g>
<!-- Node14 -->
<g id="Node000014" class="node">
<title>Node14</title>
<g id="a_Node000014"><a xlink:title=" ">
<polygon fill="#e0e0e0" stroke="#999999" points="572.38,-20.75 391.38,-20.75 391.38,0 572.38,0 572.38,-20.75"/>
<text xml:space="preserve" text-anchor="middle" x="481.88" y="-7.25" font-family="Helvetica,sans-Serif" font-size="10.00">NaniteAssemblyData.generated.h</text>
</a>
</g>
</g>
<!-- Node12&#45;&gt;Node14 -->
<g id="edge19_Node000012_Node000014" class="edge">
<title>Node12&#45;&gt;Node14</title>
<g id="a_edge19_Node000012_Node000014"><a xlink:title=" ">
<path fill="none" stroke="#63b8ff" d="M495.01,-56.34C493.04,-49.56 490.33,-40.3 487.88,-31.94"/>
<polygon fill="#63b8ff" stroke="#63b8ff" points="491.3,-31.15 485.14,-22.53 484.58,-33.11 491.3,-31.15"/>
</a>
</g>
</g>
</g>
</svg>
