<?xml version="1.0" encoding="UTF-8" standalone="no"?>
<!DOCTYPE svg PUBLIC "-//W3C//DTD SVG 1.1//EN"
 "http://www.w3.org/Graphics/SVG/1.1/DTD/svg11.dtd">
<!-- Generated by graphviz version 14.1.4 (0)
 -->
<!-- Title: UE_STRING_CLASS::Format Pages: 1 -->
<svg width="527pt" height="54pt"
 viewBox="0.00 0.00 527.00 54.00" xmlns="http://www.w3.org/2000/svg" xmlns:xlink="http://www.w3.org/1999/xlink">
<g id="graph0" class="graph" transform="scale(1 1) rotate(0) translate(4 50.12)">
<title>UE_STRING_CLASS::Format</title>
<!-- Node1 -->
<g id="Node000001" class="node">
<title>Node1</title>
<g id="a_Node000001"><a xlink:title=" ">
<polygon fill="#999999" stroke="#666666" points="148.75,-27.12 0,-27.12 0,-6.38 148.75,-6.38 148.75,-27.12"/>
<text xml:space="preserve" text-anchor="middle" x="74.38" y="-13.62" font-family="Helvetica,sans-Serif" font-size="10.00">UE_STRING_CLASS::Format</text>
</a>
</g>
</g>
<!-- Node2 -->
<g id="Node000002" class="node">
<title>Node2</title>
<g id="a_Node000002"><a xlink:href="$classUE__STRING__CLASS.html#a0f19129ac5e10ecd5e98d2ebd35ba38e" xlink:title=" ">
<polygon fill="white" stroke="#666666" points="355.25,-46.12 184.75,-46.12 184.75,-25.38 355.25,-25.38 355.25,-46.12"/>
<text xml:space="preserve" text-anchor="middle" x="270" y="-32.62" font-family="Helvetica,sans-Serif" font-size="10.00">UE_STRING_CLASS::FormatImpl</text>
</a>
</g>
</g>
<!-- Node1&#45;&gt;Node2 -->
<g id="edge1_Node000001_Node000002" class="edge">
<title>Node1&#45;&gt;Node2</title>
<g id="a_edge1_Node000001_Node000002"><a xlink:title=" ">
<path fill="none" stroke="#63b8ff" d="M149.13,-23.99C156.97,-24.76 165.03,-25.55 173.08,-26.34"/>
<polygon fill="#63b8ff" stroke="#63b8ff" points="172.64,-29.81 182.93,-27.3 173.32,-22.84 172.64,-29.81"/>
</a>
</g>
</g>
<!-- Node3 -->
<g id="Node000003" class="node">
<title>Node3</title>
<g id="a_Node000003"><a xlink:href="$classUE__STRING__CLASS.html#a9fdb8a03064b85ab5477b07adeb213c9" xlink:title=" ">
<polygon fill="white" stroke="#666666" points="519,-33.5 391.25,-33.5 391.25,0 519,0 519,-33.5"/>
<text xml:space="preserve" text-anchor="start" x="399.25" y="-20" font-family="Helvetica,sans-Serif" font-size="10.00">UE_STRING_CLASS::UE</text>
<text xml:space="preserve" text-anchor="middle" x="455.12" y="-7.25" font-family="Helvetica,sans-Serif" font-size="10.00">_STRING_CLASS</text>
</a>
</g>
</g>
<!-- Node1&#45;&gt;Node3 -->
<g id="edge3_Node000001_Node000003" class="edge">
<title>Node1&#45;&gt;Node3</title>
<g id="a_edge3_Node000001_Node000003"><a xlink:title=" ">
<path fill="none" stroke="#63b8ff" d="M148.85,-16.75C215.35,-16.75 312.83,-16.75 379.64,-16.75"/>
<polygon fill="#63b8ff" stroke="#63b8ff" points="379.4,-20.25 389.4,-16.75 379.4,-13.25 379.4,-20.25"/>
</a>
</g>
</g>
<!-- Node2&#45;&gt;Node3 -->
<g id="edge2_Node000002_Node000003" class="edge">
<title>Node2&#45;&gt;Node3</title>
<g id="a_edge2_Node000002_Node000003"><a xlink:title=" ">
<path fill="none" stroke="#63b8ff" d="M355.59,-26.97C363.59,-26.14 371.66,-25.31 379.55,-24.49"/>
<polygon fill="#63b8ff" stroke="#63b8ff" points="379.87,-27.97 389.46,-23.46 379.15,-21.01 379.87,-27.97"/>
</a>
</g>
</g>
</g>
</svg>
