<?xml version="1.0" encoding="UTF-8" standalone="no"?>
<!DOCTYPE svg PUBLIC "-//W3C//DTD SVG 1.1//EN"
 "http://www.w3.org/Graphics/SVG/1.1/DTD/svg11.dtd">
<!-- Generated by graphviz version 14.1.4 (0)
 -->
<!-- Title: UAnimCompositeBase Pages: 1 -->
<svg width="433pt" height="1242pt"
 viewBox="0.00 0.00 433.00 1242.00" xmlns="http://www.w3.org/2000/svg" xmlns:xlink="http://www.w3.org/1999/xlink">
<g id="graph0" class="graph" transform="scale(1 1) rotate(0) translate(4 1237.5)">
<title>UAnimCompositeBase</title>
<!-- Node1 -->
<g id="Node000001" class="node">
<title>Node1</title>
<g id="a_Node000001"><a xlink:title=" ">
<polygon fill="#999999" stroke="none" points="311.75,-138 139.25,-138 139.25,0 311.75,0 311.75,-138"/>
<text xml:space="preserve" text-anchor="start" x="170.75" y="-124.25" font-family="Helvetica,sans-Serif" font-size="10.00">UAnimCompositeBase</text>
<text xml:space="preserve" text-anchor="start" x="143.25" y="-107.5" font-family="Helvetica,sans-Serif" font-size="10.00">#</text>
<text xml:space="preserve" text-anchor="start" x="155.5" y="-107.5" font-family="Helvetica,sans-Serif" font-size="10.00">CommonTargetFrameRate</text>
<text xml:space="preserve" text-anchor="start" x="145.5" y="-90.75" font-family="Helvetica,sans-Serif" font-size="10.00">&#45;</text>
<text xml:space="preserve" text-anchor="start" x="155.5" y="-90.75" font-family="Helvetica,sans-Serif" font-size="10.00">PostLoad()</text>
<text xml:space="preserve" text-anchor="start" x="145.5" y="-74" font-family="Helvetica,sans-Serif" font-size="10.00">&#45;</text>
<text xml:space="preserve" text-anchor="start" x="155.5" y="-74" font-family="Helvetica,sans-Serif" font-size="10.00">GetSamplingFrameRate()</text>
<text xml:space="preserve" text-anchor="start" x="145.5" y="-57.25" font-family="Helvetica,sans-Serif" font-size="10.00">&#45;</text>
<text xml:space="preserve" text-anchor="start" x="155.5" y="-57.25" font-family="Helvetica,sans-Serif" font-size="10.00">ExtractRootMotionFromTrack()</text>
<text xml:space="preserve" text-anchor="start" x="145.5" y="-40.5" font-family="Helvetica,sans-Serif" font-size="10.00">&#45;</text>
<text xml:space="preserve" text-anchor="start" x="155.5" y="-40.5" font-family="Helvetica,sans-Serif" font-size="10.00">ExtractRootMotionFromTrack()</text>
<text xml:space="preserve" text-anchor="start" x="145.5" y="-23.75" font-family="Helvetica,sans-Serif" font-size="10.00">&#45;</text>
<text xml:space="preserve" text-anchor="start" x="155.5" y="-23.75" font-family="Helvetica,sans-Serif" font-size="10.00">PopulateWithExistingModel()</text>
<text xml:space="preserve" text-anchor="start" x="145.5" y="-7" font-family="Helvetica,sans-Serif" font-size="10.00">&#45;</text>
<text xml:space="preserve" text-anchor="start" x="155.5" y="-7" font-family="Helvetica,sans-Serif" font-size="10.00">GetCommonTargetFrameRate()</text>
<polygon fill="#666666" stroke="#666666" points="139.25,-119.25 139.25,-119.25 311.75,-119.25 311.75,-119.25 139.25,-119.25"/>
<polygon fill="#666666" stroke="#666666" points="139.25,-102.5 139.25,-102.5 153.5,-102.5 153.5,-102.5 139.25,-102.5"/>
<polygon fill="#666666" stroke="#666666" points="153.5,-102.5 153.5,-102.5 311.75,-102.5 311.75,-102.5 153.5,-102.5"/>
<polygon fill="none" stroke="#666666" points="139.25,0 139.25,-138 311.75,-138 311.75,0 139.25,0"/>
</a>
</g>
</g>
<!-- Node1&#45;&gt;Node1 -->
<g id="edge7_Node000001_Node000001" class="edge">
<title>Node1&#45;&gt;Node1</title>
<g id="a_edge7_Node000001_Node000001"><a xlink:title=" ">
<path fill="none" stroke="#63b8ff" d="M311.39,-83.38C322.44,-80.89 329.75,-76.09 329.75,-69 329.75,-65.01 327.44,-61.75 323.45,-59.21"/>
<polygon fill="none" stroke="#63b8ff" points="323.44,-59.21 316.41,-60.82 312.23,-54.94 319.26,-53.34 323.44,-59.21"/>
</a>
</g>
<text xml:space="preserve" text-anchor="start" x="332.75" y="-65.62" font-family="Helvetica,sans-Serif" font-size="10.00" fill="grey">&#45;ContainRecursive</text>
</g>
<!-- Node2 -->
<g id="Node000002" class="node">
<title>Node2</title>
<g id="a_Node000002"><a xlink:href="classUAnimSequenceBase.html" target="_top" xlink:title=" ">
<polygon fill="white" stroke="none" points="320.75,-631.25 130.25,-631.25 130.25,-175 320.75,-175 320.75,-631.25"/>
<text xml:space="preserve" text-anchor="start" x="173.38" y="-617.5" font-family="Helvetica,sans-Serif" font-size="10.00">UAnimSequenceBase</text>
<text xml:space="preserve" text-anchor="start" x="134.25" y="-600.75" font-family="Helvetica,sans-Serif" font-size="10.00">+</text>
<text xml:space="preserve" text-anchor="start" x="146.5" y="-600.75" font-family="Helvetica,sans-Serif" font-size="10.00">Notifies</text>
<text xml:space="preserve" text-anchor="start" x="134.25" y="-584" font-family="Helvetica,sans-Serif" font-size="10.00">+</text>
<text xml:space="preserve" text-anchor="start" x="146.5" y="-584" font-family="Helvetica,sans-Serif" font-size="10.00">RateScale</text>
<text xml:space="preserve" text-anchor="start" x="134.25" y="-567.25" font-family="Helvetica,sans-Serif" font-size="10.00">+</text>
<text xml:space="preserve" text-anchor="start" x="146.5" y="-567.25" font-family="Helvetica,sans-Serif" font-size="10.00">bLoop</text>
<text xml:space="preserve" text-anchor="start" x="134.25" y="-550.5" font-family="Helvetica,sans-Serif" font-size="10.00">#</text>
<text xml:space="preserve" text-anchor="start" x="146.5" y="-550.5" font-family="Helvetica,sans-Serif" font-size="10.00">SequenceLength</text>
<text xml:space="preserve" text-anchor="start" x="134.25" y="-533.75" font-family="Helvetica,sans-Serif" font-size="10.00">#</text>
<text xml:space="preserve" text-anchor="start" x="146.5" y="-533.75" font-family="Helvetica,sans-Serif" font-size="10.00">RawCurveData</text>
<text xml:space="preserve" text-anchor="start" x="136.5" y="-517" font-family="Helvetica,sans-Serif" font-size="10.00">&#45;</text>
<text xml:space="preserve" text-anchor="start" x="146.5" y="-517" font-family="Helvetica,sans-Serif" font-size="10.00">OnNotifyChanged</text>
<text xml:space="preserve" text-anchor="start" x="134.25" y="-500.25" font-family="Helvetica,sans-Serif" font-size="10.00">+</text>
<text xml:space="preserve" text-anchor="start" x="146.5" y="-500.25" font-family="Helvetica,sans-Serif" font-size="10.00">PostLoad()</text>
<text xml:space="preserve" text-anchor="start" x="134.25" y="-483.5" font-family="Helvetica,sans-Serif" font-size="10.00">+</text>
<text xml:space="preserve" text-anchor="start" x="146.5" y="-483.5" font-family="Helvetica,sans-Serif" font-size="10.00">IsPostLoadThreadSafe()</text>
<text xml:space="preserve" text-anchor="start" x="134.25" y="-466.75" font-family="Helvetica,sans-Serif" font-size="10.00">+</text>
<text xml:space="preserve" text-anchor="start" x="146.5" y="-466.75" font-family="Helvetica,sans-Serif" font-size="10.00">PostDuplicate()</text>
<text xml:space="preserve" text-anchor="start" x="134.25" y="-450" font-family="Helvetica,sans-Serif" font-size="10.00">+</text>
<text xml:space="preserve" text-anchor="start" x="146.5" y="-450" font-family="Helvetica,sans-Serif" font-size="10.00">GetResourceSizeEx()</text>
<text xml:space="preserve" text-anchor="start" x="134.25" y="-433.25" font-family="Helvetica,sans-Serif" font-size="10.00">+</text>
<text xml:space="preserve" text-anchor="start" x="146.5" y="-433.25" font-family="Helvetica,sans-Serif" font-size="10.00">GetPlayLength()</text>
<text xml:space="preserve" text-anchor="start" x="134.25" y="-416.5" font-family="Helvetica,sans-Serif" font-size="10.00">+</text>
<text xml:space="preserve" text-anchor="start" x="146.5" y="-416.5" font-family="Helvetica,sans-Serif" font-size="10.00">SortNotifies()</text>
<text xml:space="preserve" text-anchor="start" x="134.25" y="-399.75" font-family="Helvetica,sans-Serif" font-size="10.00">+</text>
<text xml:space="preserve" text-anchor="start" x="146.5" y="-399.75" font-family="Helvetica,sans-Serif" font-size="10.00">RemoveNotifies()</text>
<text xml:space="preserve" text-anchor="start" x="134.25" y="-383" font-family="Helvetica,sans-Serif" font-size="10.00">+</text>
<text xml:space="preserve" text-anchor="start" x="146.5" y="-383" font-family="Helvetica,sans-Serif" font-size="10.00">RemoveNotifies()</text>
<text xml:space="preserve" text-anchor="start" x="134.25" y="-366.25" font-family="Helvetica,sans-Serif" font-size="10.00">+</text>
<text xml:space="preserve" text-anchor="start" x="146.5" y="-366.25" font-family="Helvetica,sans-Serif" font-size="10.00">RenameNotifies()</text>
<text xml:space="preserve" text-anchor="start" x="134.25" y="-349.5" font-family="Helvetica,sans-Serif" font-size="10.00">+</text>
<text xml:space="preserve" text-anchor="start" x="146.5" y="-349.5" font-family="Helvetica,sans-Serif" font-size="10.00">GetAnimNotifies()</text>
<text xml:space="preserve" text-anchor="start" x="146.5" y="-332.75" font-family="Helvetica,sans-Serif" font-size="10.00">and 54 more...</text>
<text xml:space="preserve" text-anchor="start" x="134.25" y="-316" font-family="Helvetica,sans-Serif" font-size="10.00">#</text>
<text xml:space="preserve" text-anchor="start" x="146.5" y="-316" font-family="Helvetica,sans-Serif" font-size="10.00">RefreshParentAssetData()</text>
<text xml:space="preserve" text-anchor="start" x="134.25" y="-299.25" font-family="Helvetica,sans-Serif" font-size="10.00">#</text>
<text xml:space="preserve" text-anchor="start" x="146.5" y="-299.25" font-family="Helvetica,sans-Serif" font-size="10.00">PopulateModel()</text>
<text xml:space="preserve" text-anchor="start" x="134.25" y="-282.5" font-family="Helvetica,sans-Serif" font-size="10.00">#</text>
<text xml:space="preserve" text-anchor="start" x="146.5" y="-282.5" font-family="Helvetica,sans-Serif" font-size="10.00">PopulateWithExistingModel()</text>
<text xml:space="preserve" text-anchor="start" x="134.25" y="-265.75" font-family="Helvetica,sans-Serif" font-size="10.00">#</text>
<text xml:space="preserve" text-anchor="start" x="146.5" y="-265.75" font-family="Helvetica,sans-Serif" font-size="10.00">OnModelModified()</text>
<text xml:space="preserve" text-anchor="start" x="134.25" y="-249" font-family="Helvetica,sans-Serif" font-size="10.00">#</text>
<text xml:space="preserve" text-anchor="start" x="146.5" y="-249" font-family="Helvetica,sans-Serif" font-size="10.00">ValidateModel()</text>
<text xml:space="preserve" text-anchor="start" x="134.25" y="-232.25" font-family="Helvetica,sans-Serif" font-size="10.00">#</text>
<text xml:space="preserve" text-anchor="start" x="146.5" y="-232.25" font-family="Helvetica,sans-Serif" font-size="10.00">BindToModelModificationEvent()</text>
<text xml:space="preserve" text-anchor="start" x="134.25" y="-215.5" font-family="Helvetica,sans-Serif" font-size="10.00">#</text>
<text xml:space="preserve" text-anchor="start" x="146.5" y="-215.5" font-family="Helvetica,sans-Serif" font-size="10.00">CopyDataModel()</text>
<text xml:space="preserve" text-anchor="start" x="136.5" y="-198.75" font-family="Helvetica,sans-Serif" font-size="10.00">&#45;</text>
<text xml:space="preserve" text-anchor="start" x="146.5" y="-198.75" font-family="Helvetica,sans-Serif" font-size="10.00">DECLARE_MULTICAST_DELEGATE()</text>
<text xml:space="preserve" text-anchor="start" x="136.5" y="-182" font-family="Helvetica,sans-Serif" font-size="10.00">&#45;</text>
<text xml:space="preserve" text-anchor="start" x="146.5" y="-182" font-family="Helvetica,sans-Serif" font-size="10.00">CreateModel()</text>
<polygon fill="#666666" stroke="#666666" points="130.25,-612.5 130.25,-612.5 320.75,-612.5 320.75,-612.5 130.25,-612.5"/>
<polygon fill="#666666" stroke="#666666" points="130.25,-512 130.25,-512 144.5,-512 144.5,-512 130.25,-512"/>
<polygon fill="#666666" stroke="#666666" points="144.5,-512 144.5,-512 320.75,-512 320.75,-512 144.5,-512"/>
<polygon fill="none" stroke="#666666" points="130.25,-175 130.25,-631.25 320.75,-631.25 320.75,-175 130.25,-175"/>
</a>
</g>
</g>
<!-- Node2&#45;&gt;Node1 -->
<g id="edge1_Node000001_Node000002" class="edge">
<title>Node2&#45;&gt;Node1</title>
<g id="a_edge1_Node000001_Node000002"><a xlink:title=" ">
<path fill="none" stroke="#63b8ff" d="M225.5,-163.57C225.5,-154.62 225.5,-146.02 225.5,-137.91"/>
<polygon fill="none" stroke="#63b8ff" points="222,-163.57 225.5,-173.57 229,-163.57 222,-163.57"/>
</a>
</g>
</g>
<!-- Node3 -->
<g id="Node000003" class="node">
<title>Node3</title>
<g id="a_Node000003"><a xlink:href="classUAnimationAsset.html" target="_top" xlink:title=" ">
<polygon fill="white" stroke="none" points="226.5,-1025 58.5,-1025 58.5,-702.75 226.5,-702.75 226.5,-1025"/>
<text xml:space="preserve" text-anchor="start" x="100.12" y="-1011.25" font-family="Helvetica,sans-Serif" font-size="10.00">UAnimationAsset</text>
<text xml:space="preserve" text-anchor="start" x="62.5" y="-994.5" font-family="Helvetica,sans-Serif" font-size="10.00">#</text>
<text xml:space="preserve" text-anchor="start" x="74.75" y="-994.5" font-family="Helvetica,sans-Serif" font-size="10.00">AssetUserData</text>
<text xml:space="preserve" text-anchor="start" x="64.75" y="-977.75" font-family="Helvetica,sans-Serif" font-size="10.00">&#45;</text>
<text xml:space="preserve" text-anchor="start" x="74.75" y="-977.75" font-family="Helvetica,sans-Serif" font-size="10.00">Skeleton</text>
<text xml:space="preserve" text-anchor="start" x="64.75" y="-961" font-family="Helvetica,sans-Serif" font-size="10.00">&#45;</text>
<text xml:space="preserve" text-anchor="start" x="74.75" y="-961" font-family="Helvetica,sans-Serif" font-size="10.00">SkeletonGuid</text>
<text xml:space="preserve" text-anchor="start" x="64.75" y="-944.25" font-family="Helvetica,sans-Serif" font-size="10.00">&#45;</text>
<text xml:space="preserve" text-anchor="start" x="74.75" y="-944.25" font-family="Helvetica,sans-Serif" font-size="10.00">SkeletonVirtualBoneGuid</text>
<text xml:space="preserve" text-anchor="start" x="64.75" y="-927.5" font-family="Helvetica,sans-Serif" font-size="10.00">&#45;</text>
<text xml:space="preserve" text-anchor="start" x="74.75" y="-927.5" font-family="Helvetica,sans-Serif" font-size="10.00">MetaData</text>
<text xml:space="preserve" text-anchor="start" x="62.5" y="-910.75" font-family="Helvetica,sans-Serif" font-size="10.00">+</text>
<text xml:space="preserve" text-anchor="start" x="74.75" y="-910.75" font-family="Helvetica,sans-Serif" font-size="10.00">TickAssetPlayer()</text>
<text xml:space="preserve" text-anchor="start" x="62.5" y="-894" font-family="Helvetica,sans-Serif" font-size="10.00">+</text>
<text xml:space="preserve" text-anchor="start" x="74.75" y="-894" font-family="Helvetica,sans-Serif" font-size="10.00">GetMaxCurrentTime()</text>
<text xml:space="preserve" text-anchor="start" x="62.5" y="-877.25" font-family="Helvetica,sans-Serif" font-size="10.00">+</text>
<text xml:space="preserve" text-anchor="start" x="74.75" y="-877.25" font-family="Helvetica,sans-Serif" font-size="10.00">GetPlayLength()</text>
<text xml:space="preserve" text-anchor="start" x="62.5" y="-860.5" font-family="Helvetica,sans-Serif" font-size="10.00">+</text>
<text xml:space="preserve" text-anchor="start" x="74.75" y="-860.5" font-family="Helvetica,sans-Serif" font-size="10.00">SetSkeleton()</text>
<text xml:space="preserve" text-anchor="start" x="62.5" y="-843.75" font-family="Helvetica,sans-Serif" font-size="10.00">+</text>
<text xml:space="preserve" text-anchor="start" x="74.75" y="-843.75" font-family="Helvetica,sans-Serif" font-size="10.00">ResetSkeleton()</text>
<text xml:space="preserve" text-anchor="start" x="62.5" y="-827" font-family="Helvetica,sans-Serif" font-size="10.00">+</text>
<text xml:space="preserve" text-anchor="start" x="74.75" y="-827" font-family="Helvetica,sans-Serif" font-size="10.00">PostLoad()</text>
<text xml:space="preserve" text-anchor="start" x="62.5" y="-810.25" font-family="Helvetica,sans-Serif" font-size="10.00">+</text>
<text xml:space="preserve" text-anchor="start" x="74.75" y="-810.25" font-family="Helvetica,sans-Serif" font-size="10.00">ValidateSkeleton()</text>
<text xml:space="preserve" text-anchor="start" x="62.5" y="-793.5" font-family="Helvetica,sans-Serif" font-size="10.00">+</text>
<text xml:space="preserve" text-anchor="start" x="74.75" y="-793.5" font-family="Helvetica,sans-Serif" font-size="10.00">Serialize()</text>
<text xml:space="preserve" text-anchor="start" x="62.5" y="-776.75" font-family="Helvetica,sans-Serif" font-size="10.00">+</text>
<text xml:space="preserve" text-anchor="start" x="74.75" y="-776.75" font-family="Helvetica,sans-Serif" font-size="10.00">GetMetaData()</text>
<text xml:space="preserve" text-anchor="start" x="62.5" y="-760" font-family="Helvetica,sans-Serif" font-size="10.00">+</text>
<text xml:space="preserve" text-anchor="start" x="74.75" y="-760" font-family="Helvetica,sans-Serif" font-size="10.00">FindMetaDataByClass()</text>
<text xml:space="preserve" text-anchor="start" x="74.75" y="-743.25" font-family="Helvetica,sans-Serif" font-size="10.00">and 33 more...</text>
<text xml:space="preserve" text-anchor="start" x="62.5" y="-726.5" font-family="Helvetica,sans-Serif" font-size="10.00">#</text>
<text xml:space="preserve" text-anchor="start" x="74.75" y="-726.5" font-family="Helvetica,sans-Serif" font-size="10.00">RefreshParentAssetData()</text>
<text xml:space="preserve" text-anchor="start" x="62.5" y="-709.75" font-family="Helvetica,sans-Serif" font-size="10.00">#</text>
<text xml:space="preserve" text-anchor="start" x="74.75" y="-709.75" font-family="Helvetica,sans-Serif" font-size="10.00">RemapTracksToNewSkeleton()</text>
<polygon fill="#666666" stroke="#666666" points="58.5,-1006.25 58.5,-1006.25 226.5,-1006.25 226.5,-1006.25 58.5,-1006.25"/>
<polygon fill="#666666" stroke="#666666" points="58.5,-922.5 58.5,-922.5 72.75,-922.5 72.75,-922.5 58.5,-922.5"/>
<polygon fill="#666666" stroke="#666666" points="72.75,-922.5 72.75,-922.5 226.5,-922.5 226.5,-922.5 72.75,-922.5"/>
<polygon fill="none" stroke="#666666" points="58.5,-702.75 58.5,-1025 226.5,-1025 226.5,-702.75 58.5,-702.75"/>
</a>
</g>
</g>
<!-- Node3&#45;&gt;Node2 -->
<g id="edge2_Node000002_Node000003" class="edge">
<title>Node3&#45;&gt;Node2</title>
<g id="a_edge2_Node000002_Node000003"><a xlink:title=" ">
<path fill="none" stroke="#63b8ff" d="M173.45,-691.81C177.03,-672.01 180.73,-651.58 184.42,-631.18"/>
<polygon fill="none" stroke="#63b8ff" points="170.02,-691.12 171.68,-701.58 176.91,-692.36 170.02,-691.12"/>
</a>
</g>
</g>
<!-- Node4 -->
<g id="Node000004" class="node">
<title>Node4</title>
<g id="a_Node000004"><a xlink:title=" ">
<polygon fill="white" stroke="none" points="47,-1174.88 0,-1174.88 0,-1120.62 47,-1120.62 47,-1174.88"/>
<text xml:space="preserve" text-anchor="start" x="4" y="-1161.12" font-family="Helvetica,sans-Serif" font-size="10.00">UObject</text>
<text xml:space="preserve" text-anchor="start" x="20.5" y="-1144.38" font-family="Helvetica,sans-Serif" font-size="10.00"> </text>
<text xml:space="preserve" text-anchor="start" x="20.5" y="-1127.62" font-family="Helvetica,sans-Serif" font-size="10.00"> </text>
<polygon fill="#666666" stroke="#666666" points="0,-1156.12 0,-1156.12 47,-1156.12 47,-1156.12 0,-1156.12"/>
<polygon fill="#666666" stroke="#666666" points="0,-1139.38 0,-1139.38 47,-1139.38 47,-1139.38 0,-1139.38"/>
<polygon fill="none" stroke="#666666" points="0,-1120.62 0,-1174.88 47,-1174.88 47,-1120.62 0,-1120.62"/>
</a>
</g>
</g>
<!-- Node4&#45;&gt;Node3 -->
<g id="edge3_Node000003_Node000004" class="edge">
<title>Node4&#45;&gt;Node3</title>
<g id="a_edge3_Node000003_Node000004"><a xlink:title=" ">
<path fill="none" stroke="#63b8ff" d="M37.34,-1110.26C43.13,-1095.25 50.01,-1077.74 56.5,-1062 61.48,-1049.92 66.71,-1037.46 72.03,-1024.94"/>
<polygon fill="none" stroke="#63b8ff" points="34.2,-1108.67 33.88,-1119.27 40.74,-1111.18 34.2,-1108.67"/>
</a>
</g>
</g>
<!-- Node5 -->
<g id="Node000005" class="node">
<title>Node5</title>
<g id="a_Node000005"><a xlink:href="classIInterface__AssetUserData.html" target="_top" xlink:title=" ">
<polygon fill="white" stroke="none" points="219.75,-1233.5 65.25,-1233.5 65.25,-1062 219.75,-1062 219.75,-1233.5"/>
<text xml:space="preserve" text-anchor="start" x="80.25" y="-1219.75" font-family="Helvetica,sans-Serif" font-size="10.00">IInterface_AssetUserData</text>
<text xml:space="preserve" text-anchor="start" x="139.5" y="-1203" font-family="Helvetica,sans-Serif" font-size="10.00"> </text>
<text xml:space="preserve" text-anchor="start" x="69.25" y="-1186.25" font-family="Helvetica,sans-Serif" font-size="10.00">&#45;</text>
<text xml:space="preserve" text-anchor="start" x="77" y="-1186.25" font-family="Helvetica,sans-Serif" font-size="10.00">AddAssetUserData()</text>
<text xml:space="preserve" text-anchor="start" x="69.25" y="-1169.5" font-family="Helvetica,sans-Serif" font-size="10.00">&#45;</text>
<text xml:space="preserve" text-anchor="start" x="77" y="-1169.5" font-family="Helvetica,sans-Serif" font-size="10.00">GetAssetUserDataOfClass()</text>
<text xml:space="preserve" text-anchor="start" x="69.25" y="-1152.75" font-family="Helvetica,sans-Serif" font-size="10.00">&#45;</text>
<text xml:space="preserve" text-anchor="start" x="77" y="-1152.75" font-family="Helvetica,sans-Serif" font-size="10.00">HasAssetUserDataOfClass()</text>
<text xml:space="preserve" text-anchor="start" x="69.25" y="-1136" font-family="Helvetica,sans-Serif" font-size="10.00">&#45;</text>
<text xml:space="preserve" text-anchor="start" x="77" y="-1136" font-family="Helvetica,sans-Serif" font-size="10.00">AddAssetUserDataOfClass()</text>
<text xml:space="preserve" text-anchor="start" x="69.25" y="-1119.25" font-family="Helvetica,sans-Serif" font-size="10.00">&#45;</text>
<text xml:space="preserve" text-anchor="start" x="77" y="-1119.25" font-family="Helvetica,sans-Serif" font-size="10.00">GetAssetUserDataArray()</text>
<text xml:space="preserve" text-anchor="start" x="69.25" y="-1102.5" font-family="Helvetica,sans-Serif" font-size="10.00">&#45;</text>
<text xml:space="preserve" text-anchor="start" x="77" y="-1102.5" font-family="Helvetica,sans-Serif" font-size="10.00">GetAssetUserData()</text>
<text xml:space="preserve" text-anchor="start" x="69.25" y="-1085.75" font-family="Helvetica,sans-Serif" font-size="10.00">&#45;</text>
<text xml:space="preserve" text-anchor="start" x="77" y="-1085.75" font-family="Helvetica,sans-Serif" font-size="10.00">GetAssetUserDataChecked()</text>
<text xml:space="preserve" text-anchor="start" x="69.25" y="-1069" font-family="Helvetica,sans-Serif" font-size="10.00">&#45;</text>
<text xml:space="preserve" text-anchor="start" x="77" y="-1069" font-family="Helvetica,sans-Serif" font-size="10.00">RemoveUserDataOfClass()</text>
<polygon fill="#666666" stroke="#666666" points="65.25,-1214.75 65.25,-1214.75 219.75,-1214.75 219.75,-1214.75 65.25,-1214.75"/>
<polygon fill="#666666" stroke="#666666" points="65.25,-1198 65.25,-1198 219.75,-1198 219.75,-1198 65.25,-1198"/>
<polygon fill="none" stroke="#666666" points="65.25,-1062 65.25,-1233.5 219.75,-1233.5 219.75,-1062 65.25,-1062"/>
</a>
</g>
</g>
<!-- Node5&#45;&gt;Node3 -->
<g id="edge4_Node000003_Node000005" class="edge">
<title>Node5&#45;&gt;Node3</title>
<g id="a_edge4_Node000003_Node000005"><a xlink:title=" ">
<path fill="none" stroke="#63b8ff" d="M142.5,-1050.83C142.5,-1042.39 142.5,-1033.7 142.5,-1024.92"/>
<polygon fill="none" stroke="#63b8ff" points="139,-1050.66 142.5,-1060.66 146,-1050.66 139,-1050.66"/>
</a>
</g>
</g>
<!-- Node6 -->
<g id="Node000006" class="node">
<title>Node6</title>
<g id="a_Node000006"><a xlink:href="classIInterface__PreviewMeshProvider.html" target="_top" xlink:title=" ">
<polygon fill="white" stroke="none" points="403.25,-1191.62 237.75,-1191.62 237.75,-1103.88 403.25,-1103.88 403.25,-1191.62"/>
<text xml:space="preserve" text-anchor="start" x="241.75" y="-1177.88" font-family="Helvetica,sans-Serif" font-size="10.00">IInterface_PreviewMeshProvider</text>
<text xml:space="preserve" text-anchor="start" x="317.5" y="-1161.12" font-family="Helvetica,sans-Serif" font-size="10.00"> </text>
<text xml:space="preserve" text-anchor="start" x="255.56" y="-1144.38" font-family="Helvetica,sans-Serif" font-size="10.00">+</text>
<text xml:space="preserve" text-anchor="start" x="281.62" y="-1144.38" font-family="Helvetica,sans-Serif" font-size="10.00">SetPreviewMesh()</text>
<text xml:space="preserve" text-anchor="start" x="255.56" y="-1127.62" font-family="Helvetica,sans-Serif" font-size="10.00">+</text>
<text xml:space="preserve" text-anchor="start" x="281.62" y="-1127.62" font-family="Helvetica,sans-Serif" font-size="10.00">GetPreviewMesh()</text>
<text xml:space="preserve" text-anchor="start" x="255.56" y="-1110.88" font-family="Helvetica,sans-Serif" font-size="10.00">+</text>
<text xml:space="preserve" text-anchor="start" x="281.62" y="-1110.88" font-family="Helvetica,sans-Serif" font-size="10.00">GetPreviewMesh()</text>
<polygon fill="#666666" stroke="#666666" points="237.75,-1172.88 237.75,-1172.88 403.25,-1172.88 403.25,-1172.88 237.75,-1172.88"/>
<polygon fill="#666666" stroke="#666666" points="237.75,-1156.12 237.75,-1156.12 403.25,-1156.12 403.25,-1156.12 237.75,-1156.12"/>
<polygon fill="none" stroke="#666666" points="237.75,-1103.88 237.75,-1191.62 403.25,-1191.62 403.25,-1103.88 237.75,-1103.88"/>
</a>
</g>
</g>
<!-- Node6&#45;&gt;Node3 -->
<g id="edge5_Node000003_Node000006" class="edge">
<title>Node6&#45;&gt;Node3</title>
<g id="a_edge5_Node000003_Node000006"><a xlink:title=" ">
<path fill="none" stroke="#63b8ff" d="M282.77,-1094.75C267.66,-1073.41 250.35,-1048.29 235.5,-1025 232.47,-1020.26 229.43,-1015.41 226.38,-1010.51"/>
<polygon fill="none" stroke="#63b8ff" points="279.79,-1096.6 288.44,-1102.72 285.5,-1092.54 279.79,-1096.6"/>
</a>
</g>
</g>
<!-- Node7 -->
<g id="Node000007" class="node">
<title>Node7</title>
<g id="a_Node000007"><a xlink:href="structFAnimationPoseData.html" target="_top" xlink:title=" ">
<polygon fill="white" stroke="none" points="374.38,-991.5 244.62,-991.5 244.62,-736.25 374.38,-736.25 374.38,-991.5"/>
<text xml:space="preserve" text-anchor="start" x="258.5" y="-977.75" font-family="Helvetica,sans-Serif" font-size="10.00">FAnimationPoseData</text>
<text xml:space="preserve" text-anchor="start" x="248.62" y="-961" font-family="Helvetica,sans-Serif" font-size="10.00">#</text>
<text xml:space="preserve" text-anchor="start" x="260.88" y="-961" font-family="Helvetica,sans-Serif" font-size="10.00">Pose</text>
<text xml:space="preserve" text-anchor="start" x="248.62" y="-944.25" font-family="Helvetica,sans-Serif" font-size="10.00">#</text>
<text xml:space="preserve" text-anchor="start" x="260.88" y="-944.25" font-family="Helvetica,sans-Serif" font-size="10.00">Curve</text>
<text xml:space="preserve" text-anchor="start" x="248.62" y="-927.5" font-family="Helvetica,sans-Serif" font-size="10.00">#</text>
<text xml:space="preserve" text-anchor="start" x="260.88" y="-927.5" font-family="Helvetica,sans-Serif" font-size="10.00">Attributes</text>
<text xml:space="preserve" text-anchor="start" x="248.62" y="-910.75" font-family="Helvetica,sans-Serif" font-size="10.00">+</text>
<text xml:space="preserve" text-anchor="start" x="260.88" y="-910.75" font-family="Helvetica,sans-Serif" font-size="10.00">FAnimationPoseData()</text>
<text xml:space="preserve" text-anchor="start" x="248.62" y="-894" font-family="Helvetica,sans-Serif" font-size="10.00">+</text>
<text xml:space="preserve" text-anchor="start" x="260.88" y="-894" font-family="Helvetica,sans-Serif" font-size="10.00">FAnimationPoseData()</text>
<text xml:space="preserve" text-anchor="start" x="248.62" y="-877.25" font-family="Helvetica,sans-Serif" font-size="10.00">+</text>
<text xml:space="preserve" text-anchor="start" x="260.88" y="-877.25" font-family="Helvetica,sans-Serif" font-size="10.00">FAnimationPoseData()</text>
<text xml:space="preserve" text-anchor="start" x="248.62" y="-860.5" font-family="Helvetica,sans-Serif" font-size="10.00">+</text>
<text xml:space="preserve" text-anchor="start" x="260.88" y="-860.5" font-family="Helvetica,sans-Serif" font-size="10.00">FAnimationPoseData()</text>
<text xml:space="preserve" text-anchor="start" x="248.62" y="-843.75" font-family="Helvetica,sans-Serif" font-size="10.00">+</text>
<text xml:space="preserve" text-anchor="start" x="260.88" y="-843.75" font-family="Helvetica,sans-Serif" font-size="10.00">operator=()</text>
<text xml:space="preserve" text-anchor="start" x="248.62" y="-827" font-family="Helvetica,sans-Serif" font-size="10.00">+</text>
<text xml:space="preserve" text-anchor="start" x="260.88" y="-827" font-family="Helvetica,sans-Serif" font-size="10.00">GetPose()</text>
<text xml:space="preserve" text-anchor="start" x="248.62" y="-810.25" font-family="Helvetica,sans-Serif" font-size="10.00">+</text>
<text xml:space="preserve" text-anchor="start" x="260.88" y="-810.25" font-family="Helvetica,sans-Serif" font-size="10.00">GetPose()</text>
<text xml:space="preserve" text-anchor="start" x="248.62" y="-793.5" font-family="Helvetica,sans-Serif" font-size="10.00">+</text>
<text xml:space="preserve" text-anchor="start" x="260.88" y="-793.5" font-family="Helvetica,sans-Serif" font-size="10.00">GetCurve()</text>
<text xml:space="preserve" text-anchor="start" x="248.62" y="-776.75" font-family="Helvetica,sans-Serif" font-size="10.00">+</text>
<text xml:space="preserve" text-anchor="start" x="260.88" y="-776.75" font-family="Helvetica,sans-Serif" font-size="10.00">GetCurve()</text>
<text xml:space="preserve" text-anchor="start" x="248.62" y="-760" font-family="Helvetica,sans-Serif" font-size="10.00">+</text>
<text xml:space="preserve" text-anchor="start" x="260.88" y="-760" font-family="Helvetica,sans-Serif" font-size="10.00">GetAttributes()</text>
<text xml:space="preserve" text-anchor="start" x="248.62" y="-743.25" font-family="Helvetica,sans-Serif" font-size="10.00">+</text>
<text xml:space="preserve" text-anchor="start" x="260.88" y="-743.25" font-family="Helvetica,sans-Serif" font-size="10.00">GetAttributes()</text>
<polygon fill="#666666" stroke="#666666" points="244.62,-972.75 244.62,-972.75 374.38,-972.75 374.38,-972.75 244.62,-972.75"/>
<polygon fill="#666666" stroke="#666666" points="244.62,-922.5 244.62,-922.5 258.88,-922.5 258.88,-922.5 244.62,-922.5"/>
<polygon fill="#666666" stroke="#666666" points="258.88,-922.5 258.88,-922.5 374.38,-922.5 374.38,-922.5 258.88,-922.5"/>
<polygon fill="none" stroke="#666666" points="244.62,-736.25 244.62,-991.5 374.38,-991.5 374.38,-736.25 244.62,-736.25"/>
</a>
</g>
</g>
<!-- Node7&#45;&gt;Node2 -->
<g id="edge6_Node000002_Node000007" class="edge">
<title>Node7&#45;&gt;Node2</title>
<g id="a_edge6_Node000002_Node000007"><a xlink:title=" ">
<path fill="none" stroke="#63b8ff" d="M286.32,-736.31C281.03,-707.39 275.23,-675.73 269.39,-643.8"/>
<polygon fill="none" stroke="#63b8ff" points="269.38,-643.76 264.36,-638.58 267.22,-631.96 272.23,-637.14 269.38,-643.76"/>
</a>
</g>
<text xml:space="preserve" text-anchor="start" x="278.02" y="-672" font-family="Helvetica,sans-Serif" font-size="10.00" fill="grey">+HandleAssetPlayerTicked</text>
<text xml:space="preserve" text-anchor="start" x="278.02" y="-655.25" font-family="Helvetica,sans-Serif" font-size="10.00" fill="grey">  Internal</text>
</g>
</g>
</svg>
