<?xml version="1.0" encoding="UTF-8" standalone="no"?>
<!DOCTYPE svg PUBLIC "-//W3C//DTD SVG 1.1//EN"
 "http://www.w3.org/Graphics/SVG/1.1/DTD/svg11.dtd">
<!-- Generated by graphviz version 14.1.4 (0)
 -->
<!-- Title: TSet::FindOrAddByHash Pages: 1 -->
<svg width="355pt" height="118pt"
 viewBox="0.00 0.00 355.00 118.00" xmlns="http://www.w3.org/2000/svg" xmlns:xlink="http://www.w3.org/1999/xlink">
<g id="graph0" class="graph" transform="scale(1 1) rotate(0) translate(4 114.25)">
<title>TSet::FindOrAddByHash</title>
<!-- Node1 -->
<g id="Node000001" class="node">
<title>Node1</title>
<g id="a_Node000001"><a xlink:title=" ">
<polygon fill="#999999" stroke="#666666" points="347,-65.5 216.25,-65.5 216.25,-44.75 347,-44.75 347,-65.5"/>
<text xml:space="preserve" text-anchor="middle" x="281.62" y="-52" font-family="Helvetica,sans-Serif" font-size="10.00">TSet::FindOrAddByHash</text>
</a>
</g>
</g>
<!-- Node2 -->
<g id="Node000002" class="node">
<title>Node2</title>
<g id="a_Node000002"><a xlink:href="$classTSet.html#a33400edfb1114428f9447d24e35457c8" xlink:title=" ">
<polygon fill="white" stroke="#666666" points="180.25,-110.25 0,-110.25 0,-64 180.25,-64 180.25,-110.25"/>
<text xml:space="preserve" text-anchor="start" x="8" y="-96.75" font-family="Helvetica,sans-Serif" font-size="10.00">TSet&lt; TSharedPtr&lt; FNetwork</text>
<text xml:space="preserve" text-anchor="start" x="8" y="-84" font-family="Helvetica,sans-Serif" font-size="10.00">ObjectInfo &gt;, FNetworkObjectKey</text>
<text xml:space="preserve" text-anchor="middle" x="90.12" y="-71.25" font-family="Helvetica,sans-Serif" font-size="10.00">Funcs &gt;::FindOrAdd</text>
</a>
</g>
</g>
<!-- Node1&#45;&gt;Node2 -->
<g id="edge1_Node000001_Node000002" class="edge">
<title>Node1&#45;&gt;Node2</title>
<g id="a_edge1_Node000001_Node000002"><a xlink:title=" ">
<path fill="none" stroke="#63b8ff" d="M205.14,-67.87C197.02,-69.24 188.7,-70.65 180.43,-72.04"/>
<polygon fill="#63b8ff" stroke="#63b8ff" points="205.7,-71.33 214.98,-66.21 204.53,-64.42 205.7,-71.33"/>
</a>
</g>
</g>
<!-- Node3 -->
<g id="Node000003" class="node">
<title>Node3</title>
<g id="a_Node000003"><a xlink:href="$classTSet.html#ad5d384c76a7e9f52d9936cc6fdcf3e22" xlink:title=" ">
<polygon fill="white" stroke="#666666" points="180.25,-46.25 0,-46.25 0,0 180.25,0 180.25,-46.25"/>
<text xml:space="preserve" text-anchor="start" x="8" y="-32.75" font-family="Helvetica,sans-Serif" font-size="10.00">TSet&lt; TSharedPtr&lt; FNetwork</text>
<text xml:space="preserve" text-anchor="start" x="8" y="-20" font-family="Helvetica,sans-Serif" font-size="10.00">ObjectInfo &gt;, FNetworkObjectKey</text>
<text xml:space="preserve" text-anchor="middle" x="90.12" y="-7.25" font-family="Helvetica,sans-Serif" font-size="10.00">Funcs &gt;::FindOrAdd</text>
</a>
</g>
</g>
<!-- Node1&#45;&gt;Node3 -->
<g id="edge2_Node000001_Node000003" class="edge">
<title>Node1&#45;&gt;Node3</title>
<g id="a_edge2_Node000001_Node000003"><a xlink:title=" ">
<path fill="none" stroke="#63b8ff" d="M205.14,-42.38C197.02,-41.01 188.7,-39.6 180.43,-38.21"/>
<polygon fill="#63b8ff" stroke="#63b8ff" points="204.53,-45.83 214.98,-44.04 205.7,-38.92 204.53,-45.83"/>
</a>
</g>
</g>
</g>
</svg>
