<?xml version="1.0" encoding="UTF-8" standalone="no"?>
<!DOCTYPE svg PUBLIC "-//W3C//DTD SVG 1.1//EN"
 "http://www.w3.org/Graphics/SVG/1.1/DTD/svg11.dtd">
<!-- Generated by graphviz version 14.1.4 (0)
 -->
<!-- Title: UParticleModuleRotationRateBase Pages: 1 -->
<!--zoomable 1027 -->

<svg id="main" version="1.1" xmlns="http://www.w3.org/2000/svg" xmlns:xlink="http://www.w3.org/1999/xlink" xml:space="preserve" onload="init(evt)">

<style type="text/css"><![CDATA[
.node, .edge {opacity: 0.7;}
.node.selected, .edge.selected {opacity: 1;}
.edge:hover path { stroke: red; }
.edge:hover polygon { stroke: red; fill: red; }
]]></style>

<defs>
  <circle id="rim" cx="0" cy="0" r="7"/>
  <circle id="rim2" cx="0" cy="0" r="3.5"/>
  <g id="zoomPlus">
    <use xlink:href="#rim" fill="#404040"><set attributeName="fill" to="#808080" begin="zoomplus.mouseover" end="zoomplus.mouseout"/></use>
    <path d="M-4,0h8M0,-4v8" fill="none" stroke="white" stroke-width="1.5" pointer-events="none"/>
  </g>
  <g id="zoomMin">
    <use xlink:href="#rim" fill="#404040"><set attributeName="fill" to="#808080" begin="zoomminus.mouseover" end="zoomminus.mouseout"/></use>
    <path d="M-4,0h8" fill="none" stroke="white" stroke-width="1.5" pointer-events="none"/>
  </g>
  <g id="arrowUp" transform="translate(30 24)">
    <use xlink:href="#rim"/>
    <path pointer-events="none" fill="none" stroke="white" stroke-width="1.5" d="M0,-3.0v7 M-2.5,-0.5L0,-3.0L2.5,-0.5"/>
  </g>
  <g id="arrowRight" transform="rotate(90) translate(36 -43)">
    <use xlink:href="#rim"/>
    <path pointer-events="none" fill="none" stroke="white" stroke-width="1.5" d="M0,-3.0v7 M-2.5,-0.5L0,-3.0L2.5,-0.5"/>
  </g>
  <g id="arrowDown" transform="rotate(180) translate(-30 -48)">
    <use xlink:href="#rim"/>
    <path pointer-events="none" fill="none" stroke="white" stroke-width="1.5" d="M0,-3.0v7 M-2.5,-0.5L0,-3.0L2.5,-0.5"/>
  </g>
  <g id="arrowLeft" transform="rotate(270) translate(-36 17)">
    <use xlink:href="#rim"/>
    <path pointer-events="none" fill="none" stroke="white" stroke-width="1.5" d="M0,-3.0v7 M-2.5,-0.5L0,-3.0L2.5,-0.5"/>
  </g>
  <g id="resetDef">
    <use xlink:href="#rim2" fill="#404040"><set attributeName="fill" to="#808080" begin="reset.mouseover" end="reset.mouseout"/></use>
  </g>
</defs>
<script type="application/ecmascript">
var viewWidth = 874;
var viewHeight = 1027;
var sectionId = 'dynsection-0';
</script>
<script type="application/ecmascript" xlink:href="svg.min.js"/>
<svg id="graph" class="graph">
<g id="viewport">
<title>UParticleModuleRotationRateBase</title>
<!-- Node1 -->
<g id="Node000001" class="node">
<title>Node1</title>
<g id="a_Node000001"><a xlink:title=" ">
<polygon fill="#999999" stroke="none" points="536.12,-394.25 360.12,-394.25 360.12,-340 536.12,-340 536.12,-394.25"/>
<text xml:space="preserve" text-anchor="start" x="364.12" y="-380.5" font-family="Helvetica,sans-Serif" font-size="10.00">UParticleModuleRotationRateBase</text>
<text xml:space="preserve" text-anchor="start" x="445.12" y="-363.75" font-family="Helvetica,sans-Serif" font-size="10.00"> </text>
<text xml:space="preserve" text-anchor="start" x="445.12" y="-347" font-family="Helvetica,sans-Serif" font-size="10.00"> </text>
<polygon fill="#666666" stroke="#666666" points="360.12,-375.5 360.12,-375.5 536.12,-375.5 536.12,-375.5 360.12,-375.5"/>
<polygon fill="#666666" stroke="#666666" points="360.12,-358.75 360.12,-358.75 536.12,-358.75 536.12,-358.75 360.12,-358.75"/>
<polygon fill="none" stroke="#666666" points="360.12,-340 360.12,-394.25 536.12,-394.25 536.12,-340 360.12,-340"/>
</a>
</g>
</g>
<!-- Node4 -->
<g id="Node000004" class="node">
<title>Node4</title>
<g id="a_Node000004"><a xlink:href="classUParticleModuleMeshRotationRate.html" target="_top" xlink:title=" ">
<polygon fill="white" stroke="none" points="178.25,-289.25 0,-289.25 0,-134.5 178.25,-134.5 178.25,-289.25"/>
<text xml:space="preserve" text-anchor="start" x="4" y="-275.5" font-family="Helvetica,sans-Serif" font-size="10.00">UParticleModuleMeshRotationRate</text>
<text xml:space="preserve" text-anchor="start" x="13.31" y="-258.75" font-family="Helvetica,sans-Serif" font-size="10.00">&#45;</text>
<text xml:space="preserve" text-anchor="start" x="30.38" y="-258.75" font-family="Helvetica,sans-Serif" font-size="10.00">StartRotationRate</text>
<text xml:space="preserve" text-anchor="start" x="13.31" y="-242" font-family="Helvetica,sans-Serif" font-size="10.00">&#45;</text>
<text xml:space="preserve" text-anchor="start" x="30.38" y="-242" font-family="Helvetica,sans-Serif" font-size="10.00">PostEditChangeProperty()</text>
<text xml:space="preserve" text-anchor="start" x="13.31" y="-225.25" font-family="Helvetica,sans-Serif" font-size="10.00">&#45;</text>
<text xml:space="preserve" text-anchor="start" x="30.38" y="-225.25" font-family="Helvetica,sans-Serif" font-size="10.00">PostInitProperties()</text>
<text xml:space="preserve" text-anchor="start" x="13.31" y="-208.5" font-family="Helvetica,sans-Serif" font-size="10.00">&#45;</text>
<text xml:space="preserve" text-anchor="start" x="30.38" y="-208.5" font-family="Helvetica,sans-Serif" font-size="10.00">Spawn()</text>
<text xml:space="preserve" text-anchor="start" x="13.31" y="-191.75" font-family="Helvetica,sans-Serif" font-size="10.00">&#45;</text>
<text xml:space="preserve" text-anchor="start" x="30.38" y="-191.75" font-family="Helvetica,sans-Serif" font-size="10.00">SetToSensibleDefaults()</text>
<text xml:space="preserve" text-anchor="start" x="13.31" y="-175" font-family="Helvetica,sans-Serif" font-size="10.00">&#45;</text>
<text xml:space="preserve" text-anchor="start" x="30.38" y="-175" font-family="Helvetica,sans-Serif" font-size="10.00">TouchesMeshRotation()</text>
<text xml:space="preserve" text-anchor="start" x="13.31" y="-158.25" font-family="Helvetica,sans-Serif" font-size="10.00">&#45;</text>
<text xml:space="preserve" text-anchor="start" x="30.38" y="-158.25" font-family="Helvetica,sans-Serif" font-size="10.00">InitializeDefaults()</text>
<text xml:space="preserve" text-anchor="start" x="13.31" y="-141.5" font-family="Helvetica,sans-Serif" font-size="10.00">&#45;</text>
<text xml:space="preserve" text-anchor="start" x="30.38" y="-141.5" font-family="Helvetica,sans-Serif" font-size="10.00">SpawnEx()</text>
<polygon fill="#666666" stroke="#666666" points="0,-270.5 0,-270.5 178.25,-270.5 178.25,-270.5 0,-270.5"/>
<polygon fill="#666666" stroke="#666666" points="0,-253.75 0,-253.75 28.38,-253.75 28.38,-253.75 0,-253.75"/>
<polygon fill="#666666" stroke="#666666" points="28.38,-253.75 28.38,-253.75 178.25,-253.75 178.25,-253.75 28.38,-253.75"/>
<polygon fill="none" stroke="#666666" points="0,-134.5 0,-289.25 178.25,-289.25 178.25,-134.5 0,-134.5"/>
</a>
</g>
</g>
<!-- Node1&#45;&gt;Node4 -->
<g id="edge3_Node000001_Node000004" class="edge">
<title>Node1&#45;&gt;Node4</title>
<g id="a_edge3_Node000001_Node000004"><a xlink:title=" ">
<path fill="none" stroke="#63b8ff" d="M349.08,-354.82C298.4,-346.07 237.05,-330.71 187.12,-304 179.14,-299.72 171.31,-294.64 163.77,-289.08"/>
<polygon fill="none" stroke="#63b8ff" points="348.46,-358.27 358.9,-356.45 349.6,-351.36 348.46,-358.27"/>
</a>
</g>
</g>
<!-- Node6 -->
<g id="Node000006" class="node">
<title>Node6</title>
<g id="a_Node000006"><a xlink:href="classUParticleModuleMeshRotationRateMultiplyLife.html" target="_top" xlink:title=" ">
<polygon fill="white" stroke="none" points="352,-287.25 196.25,-287.25 196.25,-136.5 352,-136.5 352,-287.25"/>
<text xml:space="preserve" text-anchor="start" x="200.25" y="-273.5" font-family="Helvetica,sans-Serif" font-size="10.00">UParticleModuleMeshRotation</text>
<text xml:space="preserve" text-anchor="start" x="234" y="-260.75" font-family="Helvetica,sans-Serif" font-size="10.00">RateMultiplyLife</text>
<text xml:space="preserve" text-anchor="start" x="203.94" y="-244" font-family="Helvetica,sans-Serif" font-size="10.00">&#45;</text>
<text xml:space="preserve" text-anchor="start" x="215.38" y="-244" font-family="Helvetica,sans-Serif" font-size="10.00">LifeMultiplier</text>
<text xml:space="preserve" text-anchor="start" x="203.94" y="-227.25" font-family="Helvetica,sans-Serif" font-size="10.00">&#45;</text>
<text xml:space="preserve" text-anchor="start" x="215.38" y="-227.25" font-family="Helvetica,sans-Serif" font-size="10.00">PostEditChangeProperty()</text>
<text xml:space="preserve" text-anchor="start" x="203.94" y="-210.5" font-family="Helvetica,sans-Serif" font-size="10.00">&#45;</text>
<text xml:space="preserve" text-anchor="start" x="215.38" y="-210.5" font-family="Helvetica,sans-Serif" font-size="10.00">PostInitProperties()</text>
<text xml:space="preserve" text-anchor="start" x="203.94" y="-193.75" font-family="Helvetica,sans-Serif" font-size="10.00">&#45;</text>
<text xml:space="preserve" text-anchor="start" x="215.38" y="-193.75" font-family="Helvetica,sans-Serif" font-size="10.00">Spawn()</text>
<text xml:space="preserve" text-anchor="start" x="203.94" y="-177" font-family="Helvetica,sans-Serif" font-size="10.00">&#45;</text>
<text xml:space="preserve" text-anchor="start" x="215.38" y="-177" font-family="Helvetica,sans-Serif" font-size="10.00">Update()</text>
<text xml:space="preserve" text-anchor="start" x="203.94" y="-160.25" font-family="Helvetica,sans-Serif" font-size="10.00">&#45;</text>
<text xml:space="preserve" text-anchor="start" x="215.38" y="-160.25" font-family="Helvetica,sans-Serif" font-size="10.00">SetToSensibleDefaults()</text>
<text xml:space="preserve" text-anchor="start" x="203.94" y="-143.5" font-family="Helvetica,sans-Serif" font-size="10.00">&#45;</text>
<text xml:space="preserve" text-anchor="start" x="215.38" y="-143.5" font-family="Helvetica,sans-Serif" font-size="10.00">InitializeDefaults()</text>
<polygon fill="#666666" stroke="#666666" points="196.25,-255.75 196.25,-255.75 352,-255.75 352,-255.75 196.25,-255.75"/>
<polygon fill="#666666" stroke="#666666" points="196.25,-239 196.25,-239 213.38,-239 213.38,-239 196.25,-239"/>
<polygon fill="#666666" stroke="#666666" points="213.38,-239 213.38,-239 352,-239 352,-239 213.38,-239"/>
<polygon fill="none" stroke="#666666" points="196.25,-136.5 196.25,-287.25 352,-287.25 352,-136.5 196.25,-136.5"/>
</a>
</g>
</g>
<!-- Node1&#45;&gt;Node6 -->
<g id="edge5_Node000001_Node000006" class="edge">
<title>Node1&#45;&gt;Node6</title>
<g id="a_edge5_Node000001_Node000006"><a xlink:title=" ">
<path fill="none" stroke="#63b8ff" d="M399.25,-333.67C386.48,-324.53 372.97,-314.27 361.12,-304 355.01,-298.7 348.85,-293.03 342.77,-287.2"/>
<polygon fill="none" stroke="#63b8ff" points="396.97,-336.34 407.16,-339.23 401,-330.61 396.97,-336.34"/>
</a>
</g>
</g>
<!-- Node7 -->
<g id="Node000007" class="node">
<title>Node7</title>
<g id="a_Node000007"><a xlink:href="classUParticleModuleMeshRotationRateOverLife.html" target="_top" xlink:title=" ">
<polygon fill="white" stroke="none" points="526,-304 370.25,-304 370.25,-119.75 526,-119.75 526,-304"/>
<text xml:space="preserve" text-anchor="start" x="374.25" y="-290.25" font-family="Helvetica,sans-Serif" font-size="10.00">UParticleModuleMeshRotation</text>
<text xml:space="preserve" text-anchor="start" x="416.25" y="-277.5" font-family="Helvetica,sans-Serif" font-size="10.00">RateOverLife</text>
<text xml:space="preserve" text-anchor="start" x="377.94" y="-260.75" font-family="Helvetica,sans-Serif" font-size="10.00">&#45;</text>
<text xml:space="preserve" text-anchor="start" x="389.38" y="-260.75" font-family="Helvetica,sans-Serif" font-size="10.00">RotRate</text>
<text xml:space="preserve" text-anchor="start" x="377.94" y="-244" font-family="Helvetica,sans-Serif" font-size="10.00">&#45;</text>
<text xml:space="preserve" text-anchor="start" x="389.38" y="-244" font-family="Helvetica,sans-Serif" font-size="10.00">bScaleRotRate</text>
<text xml:space="preserve" text-anchor="start" x="377.94" y="-227.25" font-family="Helvetica,sans-Serif" font-size="10.00">&#45;</text>
<text xml:space="preserve" text-anchor="start" x="389.38" y="-227.25" font-family="Helvetica,sans-Serif" font-size="10.00">PostEditChangeProperty()</text>
<text xml:space="preserve" text-anchor="start" x="377.94" y="-210.5" font-family="Helvetica,sans-Serif" font-size="10.00">&#45;</text>
<text xml:space="preserve" text-anchor="start" x="389.38" y="-210.5" font-family="Helvetica,sans-Serif" font-size="10.00">PostInitProperties()</text>
<text xml:space="preserve" text-anchor="start" x="377.94" y="-193.75" font-family="Helvetica,sans-Serif" font-size="10.00">&#45;</text>
<text xml:space="preserve" text-anchor="start" x="389.38" y="-193.75" font-family="Helvetica,sans-Serif" font-size="10.00">Spawn()</text>
<text xml:space="preserve" text-anchor="start" x="377.94" y="-177" font-family="Helvetica,sans-Serif" font-size="10.00">&#45;</text>
<text xml:space="preserve" text-anchor="start" x="389.38" y="-177" font-family="Helvetica,sans-Serif" font-size="10.00">Update()</text>
<text xml:space="preserve" text-anchor="start" x="377.94" y="-160.25" font-family="Helvetica,sans-Serif" font-size="10.00">&#45;</text>
<text xml:space="preserve" text-anchor="start" x="389.38" y="-160.25" font-family="Helvetica,sans-Serif" font-size="10.00">SetToSensibleDefaults()</text>
<text xml:space="preserve" text-anchor="start" x="377.94" y="-143.5" font-family="Helvetica,sans-Serif" font-size="10.00">&#45;</text>
<text xml:space="preserve" text-anchor="start" x="389.38" y="-143.5" font-family="Helvetica,sans-Serif" font-size="10.00">TouchesMeshRotation()</text>
<text xml:space="preserve" text-anchor="start" x="377.94" y="-126.75" font-family="Helvetica,sans-Serif" font-size="10.00">&#45;</text>
<text xml:space="preserve" text-anchor="start" x="389.38" y="-126.75" font-family="Helvetica,sans-Serif" font-size="10.00">InitializeDefaults()</text>
<polygon fill="#666666" stroke="#666666" points="370.25,-272.5 370.25,-272.5 526,-272.5 526,-272.5 370.25,-272.5"/>
<polygon fill="#666666" stroke="#666666" points="370.25,-239 370.25,-239 387.38,-239 387.38,-239 370.25,-239"/>
<polygon fill="#666666" stroke="#666666" points="387.38,-239 387.38,-239 526,-239 526,-239 387.38,-239"/>
<polygon fill="none" stroke="#666666" points="370.25,-119.75 370.25,-304 526,-304 526,-119.75 370.25,-119.75"/>
</a>
</g>
</g>
<!-- Node1&#45;&gt;Node7 -->
<g id="edge6_Node000001_Node000007" class="edge">
<title>Node1&#45;&gt;Node7</title>
<g id="a_edge6_Node000001_Node000007"><a xlink:title=" ">
<path fill="none" stroke="#63b8ff" d="M448.12,-328.65C448.12,-320.92 448.12,-312.47 448.12,-303.76"/>
<polygon fill="none" stroke="#63b8ff" points="444.63,-328.61 448.13,-338.61 451.63,-328.61 444.63,-328.61"/>
</a>
</g>
</g>
<!-- Node8 -->
<g id="Node000008" class="node">
<title>Node8</title>
<g id="a_Node000008"><a xlink:href="classUParticleModuleRotationRate.html" target="_top" xlink:title=" ">
<polygon fill="white" stroke="none" points="696.12,-289.25 544.12,-289.25 544.12,-134.5 696.12,-134.5 696.12,-289.25"/>
<text xml:space="preserve" text-anchor="start" x="548.12" y="-275.5" font-family="Helvetica,sans-Serif" font-size="10.00">UParticleModuleRotationRate</text>
<text xml:space="preserve" text-anchor="start" x="550.88" y="-258.75" font-family="Helvetica,sans-Serif" font-size="10.00">&#45;</text>
<text xml:space="preserve" text-anchor="start" x="561.38" y="-258.75" font-family="Helvetica,sans-Serif" font-size="10.00">StartRotationRate</text>
<text xml:space="preserve" text-anchor="start" x="550.88" y="-242" font-family="Helvetica,sans-Serif" font-size="10.00">&#45;</text>
<text xml:space="preserve" text-anchor="start" x="561.38" y="-242" font-family="Helvetica,sans-Serif" font-size="10.00">InitializeDefaults()</text>
<text xml:space="preserve" text-anchor="start" x="550.88" y="-225.25" font-family="Helvetica,sans-Serif" font-size="10.00">&#45;</text>
<text xml:space="preserve" text-anchor="start" x="561.38" y="-225.25" font-family="Helvetica,sans-Serif" font-size="10.00">PostEditChangeProperty()</text>
<text xml:space="preserve" text-anchor="start" x="550.88" y="-208.5" font-family="Helvetica,sans-Serif" font-size="10.00">&#45;</text>
<text xml:space="preserve" text-anchor="start" x="561.38" y="-208.5" font-family="Helvetica,sans-Serif" font-size="10.00">PostInitProperties()</text>
<text xml:space="preserve" text-anchor="start" x="550.88" y="-191.75" font-family="Helvetica,sans-Serif" font-size="10.00">&#45;</text>
<text xml:space="preserve" text-anchor="start" x="561.38" y="-191.75" font-family="Helvetica,sans-Serif" font-size="10.00">CompileModule()</text>
<text xml:space="preserve" text-anchor="start" x="550.88" y="-175" font-family="Helvetica,sans-Serif" font-size="10.00">&#45;</text>
<text xml:space="preserve" text-anchor="start" x="561.38" y="-175" font-family="Helvetica,sans-Serif" font-size="10.00">Spawn()</text>
<text xml:space="preserve" text-anchor="start" x="550.88" y="-158.25" font-family="Helvetica,sans-Serif" font-size="10.00">&#45;</text>
<text xml:space="preserve" text-anchor="start" x="561.38" y="-158.25" font-family="Helvetica,sans-Serif" font-size="10.00">SetToSensibleDefaults()</text>
<text xml:space="preserve" text-anchor="start" x="550.88" y="-141.5" font-family="Helvetica,sans-Serif" font-size="10.00">&#45;</text>
<text xml:space="preserve" text-anchor="start" x="561.38" y="-141.5" font-family="Helvetica,sans-Serif" font-size="10.00">SpawnEx()</text>
<polygon fill="#666666" stroke="#666666" points="544.12,-270.5 544.12,-270.5 696.12,-270.5 696.12,-270.5 544.12,-270.5"/>
<polygon fill="#666666" stroke="#666666" points="544.12,-253.75 544.12,-253.75 559.38,-253.75 559.38,-253.75 544.12,-253.75"/>
<polygon fill="#666666" stroke="#666666" points="559.38,-253.75 559.38,-253.75 696.12,-253.75 696.12,-253.75 559.38,-253.75"/>
<polygon fill="none" stroke="#666666" points="544.12,-134.5 544.12,-289.25 696.12,-289.25 696.12,-134.5 544.12,-134.5"/>
</a>
</g>
</g>
<!-- Node1&#45;&gt;Node8 -->
<g id="edge7_Node000001_Node000008" class="edge">
<title>Node1&#45;&gt;Node8</title>
<g id="a_edge7_Node000001_Node000008"><a xlink:title=" ">
<path fill="none" stroke="#63b8ff" d="M497.08,-333.76C509.85,-324.62 523.34,-314.34 535.12,-304 540.49,-299.29 545.89,-294.28 551.22,-289.13"/>
<polygon fill="none" stroke="#63b8ff" points="495.34,-330.71 489.17,-339.32 499.36,-336.43 495.34,-330.71"/>
</a>
</g>
</g>
<!-- Node10 -->
<g id="Node000010" class="node">
<title>Node10</title>
<g id="a_Node000010"><a xlink:href="classUParticleModuleRotationRateMultiplyLife.html" target="_top" xlink:title=" ">
<polygon fill="white" stroke="none" points="866.12,-287.25 714.12,-287.25 714.12,-136.5 866.12,-136.5 866.12,-287.25"/>
<text xml:space="preserve" text-anchor="start" x="718.12" y="-273.5" font-family="Helvetica,sans-Serif" font-size="10.00">UParticleModuleRotationRate</text>
<text xml:space="preserve" text-anchor="start" x="761.25" y="-260.75" font-family="Helvetica,sans-Serif" font-size="10.00">MultiplyLife</text>
<text xml:space="preserve" text-anchor="start" x="720.88" y="-244" font-family="Helvetica,sans-Serif" font-size="10.00">&#45;</text>
<text xml:space="preserve" text-anchor="start" x="731.38" y="-244" font-family="Helvetica,sans-Serif" font-size="10.00">LifeMultiplier</text>
<text xml:space="preserve" text-anchor="start" x="720.88" y="-227.25" font-family="Helvetica,sans-Serif" font-size="10.00">&#45;</text>
<text xml:space="preserve" text-anchor="start" x="731.38" y="-227.25" font-family="Helvetica,sans-Serif" font-size="10.00">InitializeDefaults()</text>
<text xml:space="preserve" text-anchor="start" x="720.88" y="-210.5" font-family="Helvetica,sans-Serif" font-size="10.00">&#45;</text>
<text xml:space="preserve" text-anchor="start" x="731.38" y="-210.5" font-family="Helvetica,sans-Serif" font-size="10.00">PostEditChangeProperty()</text>
<text xml:space="preserve" text-anchor="start" x="720.88" y="-193.75" font-family="Helvetica,sans-Serif" font-size="10.00">&#45;</text>
<text xml:space="preserve" text-anchor="start" x="731.38" y="-193.75" font-family="Helvetica,sans-Serif" font-size="10.00">PostInitProperties()</text>
<text xml:space="preserve" text-anchor="start" x="720.88" y="-177" font-family="Helvetica,sans-Serif" font-size="10.00">&#45;</text>
<text xml:space="preserve" text-anchor="start" x="731.38" y="-177" font-family="Helvetica,sans-Serif" font-size="10.00">Spawn()</text>
<text xml:space="preserve" text-anchor="start" x="720.88" y="-160.25" font-family="Helvetica,sans-Serif" font-size="10.00">&#45;</text>
<text xml:space="preserve" text-anchor="start" x="731.38" y="-160.25" font-family="Helvetica,sans-Serif" font-size="10.00">Update()</text>
<text xml:space="preserve" text-anchor="start" x="720.88" y="-143.5" font-family="Helvetica,sans-Serif" font-size="10.00">&#45;</text>
<text xml:space="preserve" text-anchor="start" x="731.38" y="-143.5" font-family="Helvetica,sans-Serif" font-size="10.00">SetToSensibleDefaults()</text>
<polygon fill="#666666" stroke="#666666" points="714.12,-255.75 714.12,-255.75 866.12,-255.75 866.12,-255.75 714.12,-255.75"/>
<polygon fill="#666666" stroke="#666666" points="714.12,-239 714.12,-239 729.38,-239 729.38,-239 714.12,-239"/>
<polygon fill="#666666" stroke="#666666" points="729.38,-239 729.38,-239 866.12,-239 866.12,-239 729.38,-239"/>
<polygon fill="none" stroke="#666666" points="714.12,-136.5 714.12,-287.25 866.12,-287.25 866.12,-136.5 714.12,-136.5"/>
</a>
</g>
</g>
<!-- Node1&#45;&gt;Node10 -->
<g id="edge9_Node000001_Node000010" class="edge">
<title>Node1&#45;&gt;Node10</title>
<g id="a_edge9_Node000001_Node000010"><a xlink:title=" ">
<path fill="none" stroke="#63b8ff" d="M547.03,-355.91C597.04,-347.45 657.13,-332.04 705.12,-304 713.25,-299.25 721.07,-293.49 728.45,-287.19"/>
<polygon fill="none" stroke="#63b8ff" points="546.68,-352.42 537.36,-357.47 547.79,-359.33 546.68,-352.42"/>
</a>
</g>
</g>
<!-- Node2 -->
<g id="Node000002" class="node">
<title>Node2</title>
<g id="a_Node000002"><a xlink:href="classUParticleModule.html" target="_top" xlink:title=" ">
<polygon fill="white" stroke="none" points="529.12,-928.75 367.12,-928.75 367.12,-430.25 529.12,-430.25 529.12,-928.75"/>
<text xml:space="preserve" text-anchor="start" x="408" y="-915" font-family="Helvetica,sans-Serif" font-size="10.00">UParticleModule</text>
<text xml:space="preserve" text-anchor="start" x="371.12" y="-898.25" font-family="Helvetica,sans-Serif" font-size="10.00">&#45;</text>
<text xml:space="preserve" text-anchor="start" x="378.88" y="-898.25" font-family="Helvetica,sans-Serif" font-size="10.00">bSpawnModule</text>
<text xml:space="preserve" text-anchor="start" x="371.12" y="-881.5" font-family="Helvetica,sans-Serif" font-size="10.00">&#45;</text>
<text xml:space="preserve" text-anchor="start" x="378.88" y="-881.5" font-family="Helvetica,sans-Serif" font-size="10.00">bUpdateModule</text>
<text xml:space="preserve" text-anchor="start" x="371.12" y="-864.75" font-family="Helvetica,sans-Serif" font-size="10.00">&#45;</text>
<text xml:space="preserve" text-anchor="start" x="378.88" y="-864.75" font-family="Helvetica,sans-Serif" font-size="10.00">bFinalUpdateModule</text>
<text xml:space="preserve" text-anchor="start" x="371.12" y="-848" font-family="Helvetica,sans-Serif" font-size="10.00">&#45;</text>
<text xml:space="preserve" text-anchor="start" x="378.88" y="-848" font-family="Helvetica,sans-Serif" font-size="10.00">bUpdateForGPUEmitter</text>
<text xml:space="preserve" text-anchor="start" x="371.12" y="-831.25" font-family="Helvetica,sans-Serif" font-size="10.00">&#45;</text>
<text xml:space="preserve" text-anchor="start" x="378.88" y="-831.25" font-family="Helvetica,sans-Serif" font-size="10.00">bCurvesAsColor</text>
<text xml:space="preserve" text-anchor="start" x="371.12" y="-814.5" font-family="Helvetica,sans-Serif" font-size="10.00">&#45;</text>
<text xml:space="preserve" text-anchor="start" x="378.88" y="-814.5" font-family="Helvetica,sans-Serif" font-size="10.00">b3DDrawMode</text>
<text xml:space="preserve" text-anchor="start" x="371.12" y="-797.75" font-family="Helvetica,sans-Serif" font-size="10.00">&#45;</text>
<text xml:space="preserve" text-anchor="start" x="378.88" y="-797.75" font-family="Helvetica,sans-Serif" font-size="10.00">bSupported3DDrawMode</text>
<text xml:space="preserve" text-anchor="start" x="371.12" y="-781" font-family="Helvetica,sans-Serif" font-size="10.00">&#45;</text>
<text xml:space="preserve" text-anchor="start" x="378.88" y="-781" font-family="Helvetica,sans-Serif" font-size="10.00">bEnabled</text>
<text xml:space="preserve" text-anchor="start" x="371.12" y="-764.25" font-family="Helvetica,sans-Serif" font-size="10.00">&#45;</text>
<text xml:space="preserve" text-anchor="start" x="378.88" y="-764.25" font-family="Helvetica,sans-Serif" font-size="10.00">bEditable</text>
<text xml:space="preserve" text-anchor="start" x="371.12" y="-747.5" font-family="Helvetica,sans-Serif" font-size="10.00">&#45;</text>
<text xml:space="preserve" text-anchor="start" x="378.88" y="-747.5" font-family="Helvetica,sans-Serif" font-size="10.00">LODDuplicate</text>
<text xml:space="preserve" text-anchor="start" x="371.12" y="-730.75" font-family="Helvetica,sans-Serif" font-size="10.00">&#45;</text>
<text xml:space="preserve" text-anchor="start" x="378.88" y="-730.75" font-family="Helvetica,sans-Serif" font-size="10.00">bSupportsRandomSeed</text>
<text xml:space="preserve" text-anchor="start" x="371.12" y="-714" font-family="Helvetica,sans-Serif" font-size="10.00">&#45;</text>
<text xml:space="preserve" text-anchor="start" x="378.88" y="-714" font-family="Helvetica,sans-Serif" font-size="10.00">bRequiresLoopingNotification</text>
<text xml:space="preserve" text-anchor="start" x="371.12" y="-697.25" font-family="Helvetica,sans-Serif" font-size="10.00">&#45;</text>
<text xml:space="preserve" text-anchor="start" x="378.88" y="-697.25" font-family="Helvetica,sans-Serif" font-size="10.00">LODValidity</text>
<text xml:space="preserve" text-anchor="start" x="371.12" y="-680.5" font-family="Helvetica,sans-Serif" font-size="10.00">&#45;</text>
<text xml:space="preserve" text-anchor="start" x="378.88" y="-680.5" font-family="Helvetica,sans-Serif" font-size="10.00">IsPostLoadThreadSafe()</text>
<text xml:space="preserve" text-anchor="start" x="371.12" y="-663.75" font-family="Helvetica,sans-Serif" font-size="10.00">&#45;</text>
<text xml:space="preserve" text-anchor="start" x="378.88" y="-663.75" font-family="Helvetica,sans-Serif" font-size="10.00">PostEditChangeProperty()</text>
<text xml:space="preserve" text-anchor="start" x="371.12" y="-647" font-family="Helvetica,sans-Serif" font-size="10.00">&#45;</text>
<text xml:space="preserve" text-anchor="start" x="378.88" y="-647" font-family="Helvetica,sans-Serif" font-size="10.00">CompileModule()</text>
<text xml:space="preserve" text-anchor="start" x="371.12" y="-630.25" font-family="Helvetica,sans-Serif" font-size="10.00">&#45;</text>
<text xml:space="preserve" text-anchor="start" x="378.88" y="-630.25" font-family="Helvetica,sans-Serif" font-size="10.00">Spawn()</text>
<text xml:space="preserve" text-anchor="start" x="371.12" y="-613.5" font-family="Helvetica,sans-Serif" font-size="10.00">&#45;</text>
<text xml:space="preserve" text-anchor="start" x="378.88" y="-613.5" font-family="Helvetica,sans-Serif" font-size="10.00">Update()</text>
<text xml:space="preserve" text-anchor="start" x="371.12" y="-596.75" font-family="Helvetica,sans-Serif" font-size="10.00">&#45;</text>
<text xml:space="preserve" text-anchor="start" x="378.88" y="-596.75" font-family="Helvetica,sans-Serif" font-size="10.00">FinalUpdate()</text>
<text xml:space="preserve" text-anchor="start" x="371.12" y="-580" font-family="Helvetica,sans-Serif" font-size="10.00">&#45;</text>
<text xml:space="preserve" text-anchor="start" x="378.88" y="-580" font-family="Helvetica,sans-Serif" font-size="10.00">RequiredBytes()</text>
<text xml:space="preserve" text-anchor="start" x="371.12" y="-563.25" font-family="Helvetica,sans-Serif" font-size="10.00">&#45;</text>
<text xml:space="preserve" text-anchor="start" x="378.88" y="-563.25" font-family="Helvetica,sans-Serif" font-size="10.00">RequiredBytesPerInstance()</text>
<text xml:space="preserve" text-anchor="start" x="371.12" y="-546.5" font-family="Helvetica,sans-Serif" font-size="10.00">&#45;</text>
<text xml:space="preserve" text-anchor="start" x="378.88" y="-546.5" font-family="Helvetica,sans-Serif" font-size="10.00">PrepPerInstanceBlock()</text>
<text xml:space="preserve" text-anchor="start" x="371.12" y="-529.75" font-family="Helvetica,sans-Serif" font-size="10.00">&#45;</text>
<text xml:space="preserve" text-anchor="start" x="378.88" y="-529.75" font-family="Helvetica,sans-Serif" font-size="10.00">SetToSensibleDefaults()</text>
<text xml:space="preserve" text-anchor="start" x="378.88" y="-513" font-family="Helvetica,sans-Serif" font-size="10.00">and 35 more...</text>
<text xml:space="preserve" text-anchor="start" x="371.12" y="-496.25" font-family="Helvetica,sans-Serif" font-size="10.00">&#45;</text>
<text xml:space="preserve" text-anchor="start" x="378.88" y="-496.25" font-family="Helvetica,sans-Serif" font-size="10.00">GetDistributionsRestricted</text>
<text xml:space="preserve" text-anchor="start" x="378.88" y="-483.5" font-family="Helvetica,sans-Serif" font-size="10.00">OnGPU()</text>
<text xml:space="preserve" text-anchor="start" x="371.12" y="-466.75" font-family="Helvetica,sans-Serif" font-size="10.00">&#45;</text>
<text xml:space="preserve" text-anchor="start" x="378.88" y="-466.75" font-family="Helvetica,sans-Serif" font-size="10.00">IsDistributionAllowedOnGPU()</text>
<text xml:space="preserve" text-anchor="start" x="371.12" y="-450" font-family="Helvetica,sans-Serif" font-size="10.00">&#45;</text>
<text xml:space="preserve" text-anchor="start" x="378.88" y="-450" font-family="Helvetica,sans-Serif" font-size="10.00">GetDistributionNotAllowed</text>
<text xml:space="preserve" text-anchor="start" x="378.88" y="-437.25" font-family="Helvetica,sans-Serif" font-size="10.00">OnGPUText()</text>
<polygon fill="#666666" stroke="#666666" points="367.12,-910 367.12,-910 529.12,-910 529.12,-910 367.12,-910"/>
<polygon fill="#666666" stroke="#666666" points="367.12,-692.25 367.12,-692.25 376.88,-692.25 376.88,-692.25 367.12,-692.25"/>
<polygon fill="#666666" stroke="#666666" points="376.88,-692.25 376.88,-692.25 529.12,-692.25 529.12,-692.25 376.88,-692.25"/>
<polygon fill="none" stroke="#666666" points="367.12,-430.25 367.12,-928.75 529.12,-928.75 529.12,-430.25 367.12,-430.25"/>
</a>
</g>
</g>
<!-- Node2&#45;&gt;Node1 -->
<g id="edge1_Node000001_Node000002" class="edge">
<title>Node2&#45;&gt;Node1</title>
<g id="a_edge1_Node000001_Node000002"><a xlink:title=" ">
<path fill="none" stroke="#63b8ff" d="M448.12,-419.11C448.12,-409.72 448.12,-401.27 448.12,-394.07"/>
<polygon fill="none" stroke="#63b8ff" points="444.63,-419.05 448.13,-429.05 451.63,-419.05 444.63,-419.05"/>
</a>
</g>
</g>
<!-- Node3 -->
<g id="Node000003" class="node">
<title>Node3</title>
<g id="a_Node000003"><a xlink:title=" ">
<polygon fill="white" stroke="none" points="471.62,-1019 424.62,-1019 424.62,-964.75 471.62,-964.75 471.62,-1019"/>
<text xml:space="preserve" text-anchor="start" x="428.62" y="-1005.25" font-family="Helvetica,sans-Serif" font-size="10.00">UObject</text>
<text xml:space="preserve" text-anchor="start" x="445.12" y="-988.5" font-family="Helvetica,sans-Serif" font-size="10.00"> </text>
<text xml:space="preserve" text-anchor="start" x="445.12" y="-971.75" font-family="Helvetica,sans-Serif" font-size="10.00"> </text>
<polygon fill="#666666" stroke="#666666" points="424.62,-1000.25 424.62,-1000.25 471.62,-1000.25 471.62,-1000.25 424.62,-1000.25"/>
<polygon fill="#666666" stroke="#666666" points="424.62,-983.5 424.62,-983.5 471.62,-983.5 471.62,-983.5 424.62,-983.5"/>
<polygon fill="none" stroke="#666666" points="424.62,-964.75 424.62,-1019 471.62,-1019 471.62,-964.75 424.62,-964.75"/>
</a>
</g>
</g>
<!-- Node3&#45;&gt;Node2 -->
<g id="edge2_Node000002_Node000003" class="edge">
<title>Node3&#45;&gt;Node2</title>
<g id="a_edge2_Node000002_Node000003"><a xlink:title=" ">
<path fill="none" stroke="#63b8ff" d="M448.12,-953.56C448.12,-946.05 448.12,-937.64 448.12,-928.57"/>
<polygon fill="none" stroke="#63b8ff" points="444.63,-953.43 448.13,-963.43 451.63,-953.43 444.63,-953.43"/>
</a>
</g>
</g>
<!-- Node5 -->
<g id="Node000005" class="node">
<title>Node5</title>
<g id="a_Node000005"><a xlink:href="classUParticleModuleMeshRotationRate__Seeded.html" target="_top" xlink:title=" ">
<polygon fill="white" stroke="none" points="167,-83.75 11.25,-83.75 11.25,0 167,0 167,-83.75"/>
<text xml:space="preserve" text-anchor="start" x="15.25" y="-70" font-family="Helvetica,sans-Serif" font-size="10.00">UParticleModuleMeshRotation</text>
<text xml:space="preserve" text-anchor="start" x="57.25" y="-57.25" font-family="Helvetica,sans-Serif" font-size="10.00">Rate_Seeded</text>
<text xml:space="preserve" text-anchor="start" x="22.31" y="-40.5" font-family="Helvetica,sans-Serif" font-size="10.00">&#45;</text>
<text xml:space="preserve" text-anchor="start" x="37.12" y="-40.5" font-family="Helvetica,sans-Serif" font-size="10.00">RandomSeedInfo</text>
<text xml:space="preserve" text-anchor="start" x="22.31" y="-23.75" font-family="Helvetica,sans-Serif" font-size="10.00">&#45;</text>
<text xml:space="preserve" text-anchor="start" x="37.12" y="-23.75" font-family="Helvetica,sans-Serif" font-size="10.00">GetRandomSeedInfo()</text>
<text xml:space="preserve" text-anchor="start" x="22.31" y="-7" font-family="Helvetica,sans-Serif" font-size="10.00">&#45;</text>
<text xml:space="preserve" text-anchor="start" x="37.12" y="-7" font-family="Helvetica,sans-Serif" font-size="10.00">EmitterLoopingNotify()</text>
<polygon fill="#666666" stroke="#666666" points="11.25,-52.25 11.25,-52.25 167,-52.25 167,-52.25 11.25,-52.25"/>
<polygon fill="#666666" stroke="#666666" points="11.25,-35.5 11.25,-35.5 35.12,-35.5 35.12,-35.5 11.25,-35.5"/>
<polygon fill="#666666" stroke="#666666" points="35.12,-35.5 35.12,-35.5 167,-35.5 167,-35.5 35.12,-35.5"/>
<polygon fill="none" stroke="#666666" points="11.25,0 11.25,-83.75 167,-83.75 167,0 11.25,0"/>
</a>
</g>
</g>
<!-- Node4&#45;&gt;Node5 -->
<g id="edge4_Node000004_Node000005" class="edge">
<title>Node4&#45;&gt;Node5</title>
<g id="a_edge4_Node000004_Node000005"><a xlink:title=" ">
<path fill="none" stroke="#63b8ff" d="M89.12,-123.5C89.12,-109.48 89.12,-95.59 89.12,-83.38"/>
<polygon fill="none" stroke="#63b8ff" points="85.63,-123.23 89.13,-133.23 92.63,-123.23 85.63,-123.23"/>
</a>
</g>
</g>
<!-- Node9 -->
<g id="Node000009" class="node">
<title>Node9</title>
<g id="a_Node000009"><a xlink:href="classUParticleModuleRotationRate__Seeded.html" target="_top" xlink:title=" ">
<polygon fill="white" stroke="none" points="696.12,-83.75 544.12,-83.75 544.12,0 696.12,0 696.12,-83.75"/>
<text xml:space="preserve" text-anchor="start" x="548.12" y="-70" font-family="Helvetica,sans-Serif" font-size="10.00">UParticleModuleRotationRate</text>
<text xml:space="preserve" text-anchor="start" x="599.5" y="-57.25" font-family="Helvetica,sans-Serif" font-size="10.00">_Seeded</text>
<text xml:space="preserve" text-anchor="start" x="554.25" y="-40.5" font-family="Helvetica,sans-Serif" font-size="10.00">&#45;</text>
<text xml:space="preserve" text-anchor="start" x="568.12" y="-40.5" font-family="Helvetica,sans-Serif" font-size="10.00">RandomSeedInfo</text>
<text xml:space="preserve" text-anchor="start" x="554.25" y="-23.75" font-family="Helvetica,sans-Serif" font-size="10.00">&#45;</text>
<text xml:space="preserve" text-anchor="start" x="568.12" y="-23.75" font-family="Helvetica,sans-Serif" font-size="10.00">GetRandomSeedInfo()</text>
<text xml:space="preserve" text-anchor="start" x="554.25" y="-7" font-family="Helvetica,sans-Serif" font-size="10.00">&#45;</text>
<text xml:space="preserve" text-anchor="start" x="568.12" y="-7" font-family="Helvetica,sans-Serif" font-size="10.00">EmitterLoopingNotify()</text>
<polygon fill="#666666" stroke="#666666" points="544.12,-52.25 544.12,-52.25 696.12,-52.25 696.12,-52.25 544.12,-52.25"/>
<polygon fill="#666666" stroke="#666666" points="544.12,-35.5 544.12,-35.5 566.12,-35.5 566.12,-35.5 544.12,-35.5"/>
<polygon fill="#666666" stroke="#666666" points="566.12,-35.5 566.12,-35.5 696.12,-35.5 696.12,-35.5 566.12,-35.5"/>
<polygon fill="none" stroke="#666666" points="544.12,0 544.12,-83.75 696.12,-83.75 696.12,0 544.12,0"/>
</a>
</g>
</g>
<!-- Node8&#45;&gt;Node9 -->
<g id="edge8_Node000008_Node000009" class="edge">
<title>Node8&#45;&gt;Node9</title>
<g id="a_edge8_Node000008_Node000009"><a xlink:title=" ">
<path fill="none" stroke="#63b8ff" d="M620.12,-123.5C620.12,-109.48 620.12,-95.59 620.12,-83.38"/>
<polygon fill="none" stroke="#63b8ff" points="616.63,-123.23 620.13,-133.23 623.63,-123.23 616.63,-123.23"/>
</a>
</g>
</g>
</g>
</svg>

<g id="navigator" transform="translate(0 0)" fill="#404254">
  <rect fill="#f2f5e9" fill-opacity="0.5" stroke="#606060" stroke-width=".5" x="0" y="0" width="60" height="60"/>
  <use id="zoomplus" xlink:href="#zoomPlus" x="17" y="9" onmousedown="handleZoom(evt,'in')"/>
  <use id="zoomminus" xlink:href="#zoomMin" x="42" y="9" onmousedown="handleZoom(evt,'out')"/>
  <use id="reset" xlink:href="#resetDef" x="30" y="36" onmousedown="handleReset()"/>
   <use id="arrowup" xlink:href="#arrowUp" x="0" y="0" onmousedown="handlePan(0,-1)"/>
  <use id="arrowright" xlink:href="#arrowRight" x="0" y="0" onmousedown="handlePan(1,0)"/>
  <use id="arrowdown" xlink:href="#arrowDown" x="0" y="0" onmousedown="handlePan(0,1)"/>
  <use id="arrowleft" xlink:href="#arrowLeft" x="0" y="0" onmousedown="handlePan(-1,0)"/>
</g>
<svg viewBox="0 0 15 15" width="100%" height="30px" preserveAspectRatio="xMaxYMin meet">
 <g id="arrow_out" transform="scale(0.3 0.3)">
  <a xlink:href="classUParticleModuleRotationRateBase__inherit__graph_org.svg" target="_base">
   <rect id="button" ry="5" rx="5" y="6" x="6" height="38" width="38"
        fill="#f2f5e9" fill-opacity="0.5" stroke="#606060" stroke-width="1.0"/>
   <path id="arrow"
     d="M 11.500037,31.436501 C 11.940474,20.09759 22.043105,11.32322 32.158766,21.979434 L 37.068811,17.246167 C 37.068811,17.246167 37.088388,32 37.088388,32 L 22.160133,31.978069 C 22.160133,31.978069 26.997745,27.140456 26.997745,27.140456 C 18.528582,18.264221 13.291696,25.230495 11.500037,31.436501 z"
     style="fill:#404040;"/>
  </a>
 </g>
</svg>

<style type='text/css'>
<![CDATA[
[data-mouse-over-selected='false'] { opacity: 0.7; }
[data-mouse-over-selected='true']  { opacity: 1.0; }
]]>
</style>
<script type="application/ecmascript"><![CDATA[
document.addEventListener('DOMContentLoaded', (event) => {
  highlightEdges();
  highlightAdjacentNodes();
});
]]></script>
</svg>
