<?xml version="1.0" encoding="UTF-8" standalone="no"?>
<!DOCTYPE svg PUBLIC "-//W3C//DTD SVG 1.1//EN"
 "http://www.w3.org/Graphics/SVG/1.1/DTD/svg11.dtd">
<!-- Generated by graphviz version 14.1.4 (0)
 -->
<!-- Title: TStringView::Equals Pages: 1 -->
<svg width="460pt" height="302pt"
 viewBox="0.00 0.00 460.00 302.00" xmlns="http://www.w3.org/2000/svg" xmlns:xlink="http://www.w3.org/1999/xlink">
<g id="graph0" class="graph" transform="scale(1 1) rotate(0) translate(4 297.5)">
<title>TStringView::Equals</title>
<!-- Node1 -->
<g id="Node000001" class="node">
<title>Node1</title>
<g id="a_Node000001"><a xlink:title=" ">
<polygon fill="#999999" stroke="#666666" points="451.5,-179.12 338.75,-179.12 338.75,-158.38 451.5,-158.38 451.5,-179.12"/>
<text xml:space="preserve" text-anchor="middle" x="395.12" y="-165.62" font-family="Helvetica,sans-Serif" font-size="10.00">TStringView::Equals</text>
</a>
</g>
</g>
<!-- Node2 -->
<g id="Node000002" class="node">
<title>Node2</title>
<g id="a_Node000002"><a xlink:href="$structTDirectoryTree_1_1FTreeNode.html#ab8175a05fbd95dcc4805a6eb2676a52f" xlink:title=" ">
<polygon fill="white" stroke="#666666" points="301.62,-260.5 156.62,-260.5 156.62,-227 301.62,-227 301.62,-260.5"/>
<text xml:space="preserve" text-anchor="start" x="164.62" y="-247" font-family="Helvetica,sans-Serif" font-size="10.00">TDirectoryTree::FTreeNode</text>
<text xml:space="preserve" text-anchor="middle" x="229.12" y="-234.25" font-family="Helvetica,sans-Serif" font-size="10.00">::FindOrAdd</text>
</a>
</g>
</g>
<!-- Node1&#45;&gt;Node2 -->
<g id="edge1_Node000001_Node000002" class="edge">
<title>Node1&#45;&gt;Node2</title>
<g id="a_edge1_Node000001_Node000002"><a xlink:title=" ">
<path fill="none" stroke="#63b8ff" d="M366.23,-185.1C348.41,-195.2 324.62,-208.04 302.75,-217.75 295.9,-220.79 288.57,-223.75 281.29,-226.51"/>
<polygon fill="#63b8ff" stroke="#63b8ff" points="367.73,-188.28 374.66,-180.27 364.25,-182.21 367.73,-188.28"/>
</a>
</g>
</g>
<!-- Node3 -->
<g id="Node000003" class="node">
<title>Node3</title>
<g id="a_Node000003"><a xlink:href="$classTStringView.html#a64f32fd569678470f2061e7adc9de659" xlink:title=" ">
<polygon fill="white" stroke="#666666" points="288.88,-208.5 169.38,-208.5 169.38,-175 288.88,-175 288.88,-208.5"/>
<text xml:space="preserve" text-anchor="start" x="177.38" y="-195" font-family="Helvetica,sans-Serif" font-size="10.00">TStringView&lt; TCHAR</text>
<text xml:space="preserve" text-anchor="middle" x="229.12" y="-182.25" font-family="Helvetica,sans-Serif" font-size="10.00"> &gt;::operator==</text>
</a>
</g>
</g>
<!-- Node1&#45;&gt;Node3 -->
<g id="edge3_Node000001_Node000003" class="edge">
<title>Node1&#45;&gt;Node3</title>
<g id="a_edge3_Node000001_Node000003"><a xlink:title=" ">
<path fill="none" stroke="#63b8ff" d="M327.22,-178.13C314.64,-179.9 301.56,-181.73 289.24,-183.46"/>
<polygon fill="#63b8ff" stroke="#63b8ff" points="327.69,-181.6 337.1,-176.75 326.71,-174.67 327.69,-181.6"/>
</a>
</g>
</g>
<!-- Node4 -->
<g id="Node000004" class="node">
<title>Node4</title>
<g id="a_Node000004"><a xlink:href="$classTStringView.html#ad3c2a7e16dfaf989b7cefb3f41364631" xlink:title=" ">
<polygon fill="white" stroke="#666666" points="302.75,-157.12 155.5,-157.12 155.5,-136.38 302.75,-136.38 302.75,-157.12"/>
<text xml:space="preserve" text-anchor="middle" x="229.12" y="-143.62" font-family="Helvetica,sans-Serif" font-size="10.00">TStringView::PrivateEquals</text>
</a>
</g>
</g>
<!-- Node1&#45;&gt;Node4 -->
<g id="edge4_Node000001_Node000004" class="edge">
<title>Node1&#45;&gt;Node4</title>
<g id="a_edge4_Node000001_Node000004"><a xlink:title=" ">
<path fill="none" stroke="#63b8ff" d="M327.42,-159.8C319.38,-158.72 311.15,-157.62 303.04,-156.53"/>
<polygon fill="#63b8ff" stroke="#63b8ff" points="326.73,-163.24 337.1,-161.1 327.66,-156.3 326.73,-163.24"/>
</a>
</g>
</g>
<!-- Node11 -->
<g id="Node000011" class="node">
<title>Node11</title>
<g id="a_Node000011"><a xlink:href="$classTStringView.html#a22b95e3e6d1bff838cf53e545ebcd2ff" xlink:title=" ">
<polygon fill="white" stroke="#666666" points="302.75,-118.12 155.5,-118.12 155.5,-97.38 302.75,-97.38 302.75,-118.12"/>
<text xml:space="preserve" text-anchor="middle" x="229.12" y="-104.62" font-family="Helvetica,sans-Serif" font-size="10.00">TStringView::PrivateEquals</text>
</a>
</g>
</g>
<!-- Node1&#45;&gt;Node11 -->
<g id="edge11_Node000001_Node000011" class="edge">
<title>Node1&#45;&gt;Node11</title>
<g id="a_edge11_Node000001_Node000011"><a xlink:title=" ">
<path fill="none" stroke="#63b8ff" d="M362.57,-153.15C345.19,-144.93 323.07,-135.06 302.75,-127.75 293.4,-124.39 283.2,-121.26 273.48,-118.52"/>
<polygon fill="#63b8ff" stroke="#63b8ff" points="360.83,-156.2 371.36,-157.37 363.86,-149.89 360.83,-156.2"/>
</a>
</g>
</g>
<!-- Node2&#45;&gt;Node2 -->
<g id="edge2_Node000002_Node000002" class="edge">
<title>Node2&#45;&gt;Node2</title>
<g id="a_edge2_Node000002_Node000002"><a xlink:title=" ">
<path fill="none" stroke="#63b8ff" d="M257,-271.89C252.46,-275.85 243.17,-278.5 229.12,-278.5 204.16,-278.5 194.21,-270.12 199.28,-260.91"/>
<polygon fill="#63b8ff" stroke="#63b8ff" points="260.38,-272.86 258.7,-262.4 253.49,-271.63 260.38,-272.86"/>
</a>
</g>
</g>
<!-- Node5 -->
<g id="Node000005" class="node">
<title>Node5</title>
<g id="a_Node000005"><a xlink:href="$classTStringView.html#a5c93ae3b2702a03ee1883ca9544ea075" xlink:title=" ">
<polygon fill="white" stroke="#666666" points="119.5,-293.5 0,-293.5 0,-260 119.5,-260 119.5,-293.5"/>
<text xml:space="preserve" text-anchor="start" x="8" y="-280" font-family="Helvetica,sans-Serif" font-size="10.00">TStringView&lt; TCHAR</text>
<text xml:space="preserve" text-anchor="middle" x="59.75" y="-267.25" font-family="Helvetica,sans-Serif" font-size="10.00"> &gt;::Equals</text>
</a>
</g>
</g>
<!-- Node4&#45;&gt;Node5 -->
<g id="edge5_Node000004_Node000005" class="edge">
<title>Node4&#45;&gt;Node5</title>
<g id="a_edge5_Node000004_Node000005"><a xlink:title=" ">
<path fill="none" stroke="#63b8ff" d="M158.4,-163.42C157.4,-164.16 156.44,-164.94 155.5,-165.75 124.47,-192.59 148.28,-221.51 119.5,-250.75 116.21,-254.09 112.43,-257.03 108.39,-259.62"/>
<polygon fill="#63b8ff" stroke="#63b8ff" points="159.97,-166.56 166.68,-158.36 156.32,-160.59 159.97,-166.56"/>
</a>
</g>
</g>
<!-- Node6 -->
<g id="Node000006" class="node">
<title>Node6</title>
<g id="a_Node000006"><a xlink:href="$classTStringView.html#aaf5870f26a327452ac074fdfaceeaa03" xlink:title=" ">
<polygon fill="white" stroke="#666666" points="119.5,-241.5 0,-241.5 0,-208 119.5,-208 119.5,-241.5"/>
<text xml:space="preserve" text-anchor="start" x="8" y="-228" font-family="Helvetica,sans-Serif" font-size="10.00">TStringView&lt; TCHAR</text>
<text xml:space="preserve" text-anchor="middle" x="59.75" y="-215.25" font-family="Helvetica,sans-Serif" font-size="10.00"> &gt;::operator!=</text>
</a>
</g>
</g>
<!-- Node4&#45;&gt;Node6 -->
<g id="edge6_Node000004_Node000006" class="edge">
<title>Node4&#45;&gt;Node6</title>
<g id="a_edge6_Node000004_Node000006"><a xlink:title=" ">
<path fill="none" stroke="#63b8ff" d="M163.9,-161.66C161.01,-162.92 158.2,-164.28 155.5,-165.75 136.44,-176.14 137.66,-186.87 119.5,-198.75 114.65,-201.93 109.34,-204.88 103.97,-207.58"/>
<polygon fill="#63b8ff" stroke="#63b8ff" points="165.12,-164.94 173.2,-158.08 162.61,-158.41 165.12,-164.94"/>
</a>
</g>
</g>
<!-- Node7 -->
<g id="Node000007" class="node">
<title>Node7</title>
<g id="a_Node000007"><a xlink:href="$classTStringView.html#a922b8b81dda552a544159f85ac2a9764" xlink:title=" ">
<polygon fill="white" stroke="#666666" points="119.5,-189.5 0,-189.5 0,-156 119.5,-156 119.5,-189.5"/>
<text xml:space="preserve" text-anchor="start" x="8" y="-176" font-family="Helvetica,sans-Serif" font-size="10.00">TStringView&lt; TCHAR</text>
<text xml:space="preserve" text-anchor="middle" x="59.75" y="-163.25" font-family="Helvetica,sans-Serif" font-size="10.00"> &gt;::operator!=</text>
</a>
</g>
</g>
<!-- Node4&#45;&gt;Node7 -->
<g id="edge7_Node000004_Node000007" class="edge">
<title>Node4&#45;&gt;Node7</title>
<g id="a_edge7_Node000004_Node000007"><a xlink:title=" ">
<path fill="none" stroke="#63b8ff" d="M147.37,-159.29C138.13,-160.73 128.84,-162.17 119.95,-163.55"/>
<polygon fill="#63b8ff" stroke="#63b8ff" points="147.76,-162.78 157.1,-157.78 146.68,-155.86 147.76,-162.78"/>
</a>
</g>
</g>
<!-- Node8 -->
<g id="Node000008" class="node">
<title>Node8</title>
<g id="a_Node000008"><a xlink:href="$classTStringView.html#a383cff847c96eec7696fe60bd33e89b3" xlink:title=" ">
<polygon fill="white" stroke="#666666" points="119.5,-137.5 0,-137.5 0,-104 119.5,-104 119.5,-137.5"/>
<text xml:space="preserve" text-anchor="start" x="8" y="-124" font-family="Helvetica,sans-Serif" font-size="10.00">TStringView&lt; TCHAR</text>
<text xml:space="preserve" text-anchor="middle" x="59.75" y="-111.25" font-family="Helvetica,sans-Serif" font-size="10.00"> &gt;::operator==</text>
</a>
</g>
</g>
<!-- Node4&#45;&gt;Node8 -->
<g id="edge8_Node000004_Node000008" class="edge">
<title>Node4&#45;&gt;Node8</title>
<g id="a_edge8_Node000004_Node000008"><a xlink:title=" ">
<path fill="none" stroke="#63b8ff" d="M147.37,-134.21C138.13,-132.77 128.84,-131.33 119.95,-129.95"/>
<polygon fill="#63b8ff" stroke="#63b8ff" points="146.68,-137.64 157.1,-135.72 147.76,-130.72 146.68,-137.64"/>
</a>
</g>
</g>
<!-- Node9 -->
<g id="Node000009" class="node">
<title>Node9</title>
<g id="a_Node000009"><a xlink:href="$classTStringView.html#af0de5c0cb0d86455411a283e59abe6c4" xlink:title=" ">
<polygon fill="white" stroke="#666666" points="119.5,-85.5 0,-85.5 0,-52 119.5,-52 119.5,-85.5"/>
<text xml:space="preserve" text-anchor="start" x="8" y="-72" font-family="Helvetica,sans-Serif" font-size="10.00">TStringView&lt; TCHAR</text>
<text xml:space="preserve" text-anchor="middle" x="59.75" y="-59.25" font-family="Helvetica,sans-Serif" font-size="10.00"> &gt;::operator==</text>
</a>
</g>
</g>
<!-- Node4&#45;&gt;Node9 -->
<g id="edge9_Node000004_Node000009" class="edge">
<title>Node4&#45;&gt;Node9</title>
<g id="a_edge9_Node000004_Node000009"><a xlink:title=" ">
<path fill="none" stroke="#63b8ff" d="M166.82,-132.1C162.91,-130.48 159.1,-128.71 155.5,-126.75 136.69,-116.53 137.5,-106.33 119.5,-94.75 114.62,-91.61 109.3,-88.68 103.92,-85.99"/>
<polygon fill="#63b8ff" stroke="#63b8ff" points="165.33,-135.28 175.92,-135.47 167.76,-128.71 165.33,-135.28"/>
</a>
</g>
</g>
<!-- Node10 -->
<g id="Node000010" class="node">
<title>Node10</title>
<g id="a_Node000010"><a xlink:href="$classTStringView.html#ad5d22b103aaac51bc6940a455773ab09" xlink:title=" ">
<polygon fill="white" stroke="#666666" points="119.5,-33.5 0,-33.5 0,0 119.5,0 119.5,-33.5"/>
<text xml:space="preserve" text-anchor="start" x="8" y="-20" font-family="Helvetica,sans-Serif" font-size="10.00">TStringView&lt; TCHAR</text>
<text xml:space="preserve" text-anchor="middle" x="59.75" y="-7.25" font-family="Helvetica,sans-Serif" font-size="10.00"> &gt;::operator==</text>
</a>
</g>
</g>
<!-- Node4&#45;&gt;Node10 -->
<g id="edge10_Node000004_Node000010" class="edge">
<title>Node4&#45;&gt;Node10</title>
<g id="a_edge10_Node000004_Node000010"><a xlink:title=" ">
<path fill="none" stroke="#63b8ff" d="M160.08,-130.33C158.49,-129.21 156.96,-128.02 155.5,-126.75 124.89,-100.05 148.05,-71.64 119.5,-42.75 116.21,-39.42 112.41,-36.48 108.37,-33.9"/>
<polygon fill="#63b8ff" stroke="#63b8ff" points="158.04,-133.19 168.45,-135.17 161.55,-127.13 158.04,-133.19"/>
</a>
</g>
</g>
</g>
</svg>
