<?xml version="1.0" encoding="UTF-8" standalone="no"?>
<!DOCTYPE svg PUBLIC "-//W3C//DTD SVG 1.1//EN"
 "http://www.w3.org/Graphics/SVG/1.1/DTD/svg11.dtd">
<!-- Generated by graphviz version 14.1.4 (0)
 -->
<!-- Title: FDefaultModuleImpl Pages: 1 -->
<svg width="177pt" height="270pt"
 viewBox="0.00 0.00 177.00 270.00" xmlns="http://www.w3.org/2000/svg" xmlns:xlink="http://www.w3.org/1999/xlink">
<g id="graph0" class="graph" transform="scale(1 1) rotate(0) translate(4 265.75)">
<title>FDefaultModuleImpl</title>
<!-- Node1 -->
<g id="Node000001" class="node">
<title>Node1</title>
<g id="a_Node000001"><a xlink:title=" ">
<polygon fill="#999999" stroke="none" points="138.25,-54.25 30.5,-54.25 30.5,0 138.25,0 138.25,-54.25"/>
<text xml:space="preserve" text-anchor="start" x="34.5" y="-40.5" font-family="Helvetica,sans-Serif" font-size="10.00">FDefaultModuleImpl</text>
<text xml:space="preserve" text-anchor="start" x="81.38" y="-23.75" font-family="Helvetica,sans-Serif" font-size="10.00"> </text>
<text xml:space="preserve" text-anchor="start" x="81.38" y="-7" font-family="Helvetica,sans-Serif" font-size="10.00"> </text>
<polygon fill="#666666" stroke="#666666" points="30.5,-35.5 30.5,-35.5 138.25,-35.5 138.25,-35.5 30.5,-35.5"/>
<polygon fill="#666666" stroke="#666666" points="30.5,-18.75 30.5,-18.75 138.25,-18.75 138.25,-18.75 30.5,-18.75"/>
<polygon fill="none" stroke="#666666" points="30.5,0 30.5,-54.25 138.25,-54.25 138.25,0 30.5,0"/>
</a>
</g>
</g>
<!-- Node2 -->
<g id="Node000002" class="node">
<title>Node2</title>
<g id="a_Node000002"><a xlink:href="$classIModuleInterface.html" xlink:title=" ">
<polygon fill="white" stroke="none" points="168.75,-261.75 0,-261.75 0,-90.25 168.75,-90.25 168.75,-261.75"/>
<text xml:space="preserve" text-anchor="start" x="43.12" y="-248" font-family="Helvetica,sans-Serif" font-size="10.00">IModuleInterface</text>
<text xml:space="preserve" text-anchor="start" x="81.38" y="-231.25" font-family="Helvetica,sans-Serif" font-size="10.00"> </text>
<text xml:space="preserve" text-anchor="start" x="4" y="-214.5" font-family="Helvetica,sans-Serif" font-size="10.00">+</text>
<text xml:space="preserve" text-anchor="start" x="16.25" y="-214.5" font-family="Helvetica,sans-Serif" font-size="10.00">~IModuleInterface()</text>
<text xml:space="preserve" text-anchor="start" x="4" y="-197.75" font-family="Helvetica,sans-Serif" font-size="10.00">+</text>
<text xml:space="preserve" text-anchor="start" x="16.25" y="-197.75" font-family="Helvetica,sans-Serif" font-size="10.00">StartupModule()</text>
<text xml:space="preserve" text-anchor="start" x="4" y="-181" font-family="Helvetica,sans-Serif" font-size="10.00">+</text>
<text xml:space="preserve" text-anchor="start" x="16.25" y="-181" font-family="Helvetica,sans-Serif" font-size="10.00">PreUnloadCallback()</text>
<text xml:space="preserve" text-anchor="start" x="4" y="-164.25" font-family="Helvetica,sans-Serif" font-size="10.00">+</text>
<text xml:space="preserve" text-anchor="start" x="16.25" y="-164.25" font-family="Helvetica,sans-Serif" font-size="10.00">PostLoadCallback()</text>
<text xml:space="preserve" text-anchor="start" x="4" y="-147.5" font-family="Helvetica,sans-Serif" font-size="10.00">+</text>
<text xml:space="preserve" text-anchor="start" x="16.25" y="-147.5" font-family="Helvetica,sans-Serif" font-size="10.00">ShutdownModule()</text>
<text xml:space="preserve" text-anchor="start" x="4" y="-130.75" font-family="Helvetica,sans-Serif" font-size="10.00">+</text>
<text xml:space="preserve" text-anchor="start" x="16.25" y="-130.75" font-family="Helvetica,sans-Serif" font-size="10.00">SupportsDynamicReloading()</text>
<text xml:space="preserve" text-anchor="start" x="4" y="-114" font-family="Helvetica,sans-Serif" font-size="10.00">+</text>
<text xml:space="preserve" text-anchor="start" x="16.25" y="-114" font-family="Helvetica,sans-Serif" font-size="10.00">SupportsAutomaticShutdown()</text>
<text xml:space="preserve" text-anchor="start" x="4" y="-97.25" font-family="Helvetica,sans-Serif" font-size="10.00">+</text>
<text xml:space="preserve" text-anchor="start" x="16.25" y="-97.25" font-family="Helvetica,sans-Serif" font-size="10.00">IsGameModule()</text>
<polygon fill="#666666" stroke="#666666" points="0,-243 0,-243 168.75,-243 168.75,-243 0,-243"/>
<polygon fill="#666666" stroke="#666666" points="0,-226.25 0,-226.25 168.75,-226.25 168.75,-226.25 0,-226.25"/>
<polygon fill="none" stroke="#666666" points="0,-90.25 0,-261.75 168.75,-261.75 168.75,-90.25 0,-90.25"/>
</a>
</g>
</g>
<!-- Node2&#45;&gt;Node1 -->
<g id="edge1_Node000001_Node000002" class="edge">
<title>Node2&#45;&gt;Node1</title>
<g id="a_edge1_Node000001_Node000002"><a xlink:title=" ">
<path fill="none" stroke="#63b8ff" d="M84.38,-79.19C84.38,-70.15 84.38,-61.61 84.38,-54.2"/>
<polygon fill="none" stroke="#63b8ff" points="80.88,-78.9 84.38,-88.9 87.88,-78.9 80.88,-78.9"/>
</a>
</g>
</g>
</g>
</svg>
