<?xml version="1.0" encoding="UTF-8" standalone="no"?>
<!DOCTYPE svg PUBLIC "-//W3C//DTD SVG 1.1//EN"
 "http://www.w3.org/Graphics/SVG/1.1/DTD/svg11.dtd">
<!-- Generated by graphviz version 14.1.4 (0)
 -->
<!-- Title: TMulticastScriptDelegate::Remove Pages: 1 -->
<svg width="322pt" height="94pt"
 viewBox="0.00 0.00 322.00 94.00" xmlns="http://www.w3.org/2000/svg" xmlns:xlink="http://www.w3.org/1999/xlink">
<g id="graph0" class="graph" transform="scale(1 1) rotate(0) translate(4 89.5)">
<title>TMulticastScriptDelegate::Remove</title>
<!-- Node1 -->
<g id="Node000001" class="node">
<title>Node1</title>
<g id="a_Node000001"><a xlink:title=" ">
<polygon fill="#999999" stroke="#666666" points="139,-59.5 0,-59.5 0,-26 139,-26 139,-59.5"/>
<text xml:space="preserve" text-anchor="start" x="8" y="-46" font-family="Helvetica,sans-Serif" font-size="10.00">TMulticastScriptDelegate</text>
<text xml:space="preserve" text-anchor="middle" x="69.5" y="-33.25" font-family="Helvetica,sans-Serif" font-size="10.00">::Remove</text>
</a>
</g>
</g>
<!-- Node2 -->
<g id="Node000002" class="node">
<title>Node2</title>
<g id="a_Node000002"><a xlink:href="$classTMulticastScriptDelegate.html#af0b88ac698a85f08cda71c854a9a29e5" xlink:title=" ">
<polygon fill="white" stroke="#666666" points="314,-85.5 175,-85.5 175,-52 314,-52 314,-85.5"/>
<text xml:space="preserve" text-anchor="start" x="183" y="-72" font-family="Helvetica,sans-Serif" font-size="10.00">TMulticastScriptDelegate</text>
<text xml:space="preserve" text-anchor="middle" x="244.5" y="-59.25" font-family="Helvetica,sans-Serif" font-size="10.00">::CompactInvocationList</text>
</a>
</g>
</g>
<!-- Node1&#45;&gt;Node2 -->
<g id="edge1_Node000001_Node000002" class="edge">
<title>Node1&#45;&gt;Node2</title>
<g id="a_edge1_Node000001_Node000002"><a xlink:title=" ">
<path fill="none" stroke="#63b8ff" d="M139.37,-53.1C147.25,-54.28 155.33,-55.5 163.34,-56.7"/>
<polygon fill="#63b8ff" stroke="#63b8ff" points="162.68,-60.14 173.09,-58.17 163.72,-53.22 162.68,-60.14"/>
</a>
</g>
</g>
<!-- Node3 -->
<g id="Node000003" class="node">
<title>Node3</title>
<g id="a_Node000003"><a xlink:href="$classTMulticastScriptDelegate.html#adc1d6c9e1659213e6d616e55bbc17df6" xlink:title=" ">
<polygon fill="white" stroke="#666666" points="314,-33.5 175,-33.5 175,0 314,0 314,-33.5"/>
<text xml:space="preserve" text-anchor="start" x="183" y="-20" font-family="Helvetica,sans-Serif" font-size="10.00">TMulticastScriptDelegate</text>
<text xml:space="preserve" text-anchor="middle" x="244.5" y="-7.25" font-family="Helvetica,sans-Serif" font-size="10.00">::RemoveInternal</text>
</a>
</g>
</g>
<!-- Node1&#45;&gt;Node3 -->
<g id="edge2_Node000001_Node000003" class="edge">
<title>Node1&#45;&gt;Node3</title>
<g id="a_edge2_Node000001_Node000003"><a xlink:title=" ">
<path fill="none" stroke="#63b8ff" d="M139.37,-32.4C147.25,-31.22 155.33,-30 163.34,-28.8"/>
<polygon fill="#63b8ff" stroke="#63b8ff" points="163.72,-32.28 173.09,-27.33 162.68,-25.36 163.72,-32.28"/>
</a>
</g>
</g>
</g>
</svg>
