<?xml version="1.0" encoding="UTF-8" standalone="no"?>
<!DOCTYPE svg PUBLIC "-//W3C//DTD SVG 1.1//EN"
 "http://www.w3.org/Graphics/SVG/1.1/DTD/svg11.dtd">
<!-- Generated by graphviz version 14.1.4 (0)
 -->
<!-- Title: FCoroSpinLock Pages: 1 -->
<svg width="123pt" height="255pt"
 viewBox="0.00 0.00 123.00 255.00" xmlns="http://www.w3.org/2000/svg" xmlns:xlink="http://www.w3.org/1999/xlink">
<g id="graph0" class="graph" transform="scale(1 1) rotate(0) translate(4 251)">
<title>FCoroSpinLock</title>
<!-- Node1 -->
<g id="Node000001" class="node">
<title>Node1</title>
<g id="a_Node000001"><a xlink:title=" ">
<polygon fill="#999999" stroke="none" points="97.25,-54.25 17.25,-54.25 17.25,0 97.25,0 97.25,-54.25"/>
<text xml:space="preserve" text-anchor="start" x="21.25" y="-40.5" font-family="Helvetica,sans-Serif" font-size="10.00">FCoroSpinLock</text>
<text xml:space="preserve" text-anchor="start" x="54.25" y="-23.75" font-family="Helvetica,sans-Serif" font-size="10.00"> </text>
<text xml:space="preserve" text-anchor="start" x="28.69" y="-7" font-family="Helvetica,sans-Serif" font-size="10.00">+</text>
<text xml:space="preserve" text-anchor="start" x="48.38" y="-7" font-family="Helvetica,sans-Serif" font-size="10.00">Lock()</text>
<polygon fill="#666666" stroke="#666666" points="17.25,-35.5 17.25,-35.5 97.25,-35.5 97.25,-35.5 17.25,-35.5"/>
<polygon fill="#666666" stroke="#666666" points="17.25,-18.75 17.25,-18.75 97.25,-18.75 97.25,-18.75 17.25,-18.75"/>
<polygon fill="none" stroke="#666666" points="17.25,0 17.25,-54.25 97.25,-54.25 97.25,0 17.25,0"/>
</a>
</g>
</g>
<!-- Node2 -->
<g id="Node000002" class="node">
<title>Node2</title>
<g id="a_Node000002"><a xlink:href="$classUE_1_1FPlatformRWLock.html" xlink:title=" ">
<polygon fill="white" stroke="none" points="114.5,-247 0,-247 0,-109 114.5,-109 114.5,-247"/>
<text xml:space="preserve" text-anchor="start" x="4" y="-233.25" font-family="Helvetica,sans-Serif" font-size="10.00">UE::FPlatformRWLock</text>
<text xml:space="preserve" text-anchor="start" x="12" y="-216.5" font-family="Helvetica,sans-Serif" font-size="10.00">&#45;</text>
<text xml:space="preserve" text-anchor="start" x="27.75" y="-216.5" font-family="Helvetica,sans-Serif" font-size="10.00">Mutex</text>
<text xml:space="preserve" text-anchor="start" x="9.75" y="-199.75" font-family="Helvetica,sans-Serif" font-size="10.00">+</text>
<text xml:space="preserve" text-anchor="start" x="27.75" y="-199.75" font-family="Helvetica,sans-Serif" font-size="10.00">TryWriteLock()</text>
<text xml:space="preserve" text-anchor="start" x="9.75" y="-183" font-family="Helvetica,sans-Serif" font-size="10.00">+</text>
<text xml:space="preserve" text-anchor="start" x="27.75" y="-183" font-family="Helvetica,sans-Serif" font-size="10.00">WriteLock()</text>
<text xml:space="preserve" text-anchor="start" x="9.75" y="-166.25" font-family="Helvetica,sans-Serif" font-size="10.00">+</text>
<text xml:space="preserve" text-anchor="start" x="27.75" y="-166.25" font-family="Helvetica,sans-Serif" font-size="10.00">WriteUnlock()</text>
<text xml:space="preserve" text-anchor="start" x="9.75" y="-149.5" font-family="Helvetica,sans-Serif" font-size="10.00">+</text>
<text xml:space="preserve" text-anchor="start" x="27.75" y="-149.5" font-family="Helvetica,sans-Serif" font-size="10.00">TryReadLock()</text>
<text xml:space="preserve" text-anchor="start" x="9.75" y="-132.75" font-family="Helvetica,sans-Serif" font-size="10.00">+</text>
<text xml:space="preserve" text-anchor="start" x="27.75" y="-132.75" font-family="Helvetica,sans-Serif" font-size="10.00">ReadLock()</text>
<text xml:space="preserve" text-anchor="start" x="9.75" y="-116" font-family="Helvetica,sans-Serif" font-size="10.00">+</text>
<text xml:space="preserve" text-anchor="start" x="27.75" y="-116" font-family="Helvetica,sans-Serif" font-size="10.00">ReadUnlock()</text>
<polygon fill="#666666" stroke="#666666" points="0,-228.25 0,-228.25 114.5,-228.25 114.5,-228.25 0,-228.25"/>
<polygon fill="#666666" stroke="#666666" points="0,-211.5 0,-211.5 25.75,-211.5 25.75,-211.5 0,-211.5"/>
<polygon fill="#666666" stroke="#666666" points="25.75,-211.5 25.75,-211.5 114.5,-211.5 114.5,-211.5 25.75,-211.5"/>
<polygon fill="none" stroke="#666666" points="0,-109 0,-247 114.5,-247 114.5,-109 0,-109"/>
</a>
</g>
</g>
<!-- Node2&#45;&gt;Node1 -->
<g id="edge1_Node000001_Node000002" class="edge">
<title>Node2&#45;&gt;Node1</title>
<g id="a_edge1_Node000001_Node000002"><a xlink:title=" ">
<path fill="none" stroke="#63b8ff" d="M57.25,-109.1C57.25,-94.64 57.25,-79.85 57.25,-66.94"/>
<polygon fill="none" stroke="#63b8ff" points="57.25,-67.15 53.25,-61.15 57.25,-55.15 61.25,-61.15 57.25,-67.15"/>
</a>
</g>
<text xml:space="preserve" text-anchor="start" x="60.25" y="-78.25" font-family="Helvetica,sans-Serif" font-size="10.00" fill="grey">&#45;CS</text>
</g>
</g>
</svg>
