<?xml version="1.0" encoding="UTF-8" standalone="no"?>
<!DOCTYPE svg PUBLIC "-//W3C//DTD SVG 1.1//EN"
 "http://www.w3.org/Graphics/SVG/1.1/DTD/svg11.dtd">
<!-- Generated by graphviz version 14.1.4 (0)
 -->
<!-- Title: FUniqueBuffer::GetView Pages: 1 -->
<svg width="311pt" height="68pt"
 viewBox="0.00 0.00 311.00 68.00" xmlns="http://www.w3.org/2000/svg" xmlns:xlink="http://www.w3.org/1999/xlink">
<g id="graph0" class="graph" transform="scale(1 1) rotate(0) translate(4 63.75)">
<title>FUniqueBuffer::GetView</title>
<!-- Node1 -->
<g id="Node000001" class="node">
<title>Node1</title>
<g id="a_Node000001"><a xlink:title=" ">
<polygon fill="#999999" stroke="#666666" points="133.75,-39.75 0,-39.75 0,-19 133.75,-19 133.75,-39.75"/>
<text xml:space="preserve" text-anchor="middle" x="66.88" y="-26.25" font-family="Helvetica,sans-Serif" font-size="10.00">FUniqueBuffer::GetView</text>
</a>
</g>
</g>
<!-- Node2 -->
<g id="Node000002" class="node">
<title>Node2</title>
<g id="a_Node000002"><a xlink:href="$classFUniqueBuffer.html#a965f454885d3c6cd465466e33c4a465a" xlink:title=" ">
<polygon fill="white" stroke="#666666" points="302.75,-59.75 169.75,-59.75 169.75,-39 302.75,-39 302.75,-59.75"/>
<text xml:space="preserve" text-anchor="middle" x="236.25" y="-46.25" font-family="Helvetica,sans-Serif" font-size="10.00">FUniqueBuffer::GetData</text>
</a>
</g>
</g>
<!-- Node1&#45;&gt;Node2 -->
<g id="edge1_Node000001_Node000002" class="edge">
<title>Node1&#45;&gt;Node2</title>
<g id="a_edge1_Node000001_Node000002"><a xlink:title=" ">
<path fill="none" stroke="#63b8ff" d="M134.03,-37.28C141.91,-38.22 150.02,-39.19 158.04,-40.15"/>
<polygon fill="#63b8ff" stroke="#63b8ff" points="157.46,-43.6 167.8,-41.32 158.29,-36.65 157.46,-43.6"/>
</a>
</g>
</g>
<!-- Node3 -->
<g id="Node000003" class="node">
<title>Node3</title>
<g id="a_Node000003"><a xlink:href="$classFUniqueBuffer.html#aa681e1307618ce480f72cc9ce4bd7556" xlink:title=" ">
<polygon fill="white" stroke="#666666" points="301.25,-20.75 171.25,-20.75 171.25,0 301.25,0 301.25,-20.75"/>
<text xml:space="preserve" text-anchor="middle" x="236.25" y="-7.25" font-family="Helvetica,sans-Serif" font-size="10.00">FUniqueBuffer::GetSize</text>
</a>
</g>
</g>
<!-- Node1&#45;&gt;Node3 -->
<g id="edge2_Node000001_Node000003" class="edge">
<title>Node1&#45;&gt;Node3</title>
<g id="a_edge2_Node000001_Node000003"><a xlink:title=" ">
<path fill="none" stroke="#63b8ff" d="M134.03,-21.87C142.48,-20.91 151.18,-19.92 159.76,-18.94"/>
<polygon fill="#63b8ff" stroke="#63b8ff" points="159.9,-22.45 169.44,-17.85 159.11,-15.5 159.9,-22.45"/>
</a>
</g>
</g>
</g>
</svg>
