<?xml version="1.0" encoding="UTF-8" standalone="no"?>
<!DOCTYPE svg PUBLIC "-//W3C//DTD SVG 1.1//EN"
 "http://www.w3.org/Graphics/SVG/1.1/DTD/svg11.dtd">
<!-- Generated by graphviz version 14.1.4 (0)
 -->
<!-- Title: TBlockAllocationCache&lt; BlockSize, Allocator &gt; Pages: 1 -->
<svg width="135pt" height="142pt"
 viewBox="0.00 0.00 135.00 142.00" xmlns="http://www.w3.org/2000/svg" xmlns:xlink="http://www.w3.org/1999/xlink">
<g id="graph0" class="graph" transform="scale(1 1) rotate(0) translate(4 138)">
<title>TBlockAllocationCache&lt; BlockSize, Allocator &gt;</title>
<!-- Node1 -->
<g id="Node000001" class="node">
<title>Node1</title>
<g id="a_Node000001"><a xlink:title=" ">
<polygon fill="#999999" stroke="none" points="127.25,-134 0,-134 0,0 127.25,0 127.25,-134"/>
<text xml:space="preserve" text-anchor="start" x="4" y="-120.25" font-family="Helvetica,sans-Serif" font-size="10.00">TBlockAllocationCache</text>
<text xml:space="preserve" text-anchor="start" x="4" y="-107.5" font-family="Helvetica,sans-Serif" font-size="10.00">&lt; BlockSize, Allocator &gt;</text>
<text xml:space="preserve" text-anchor="start" x="7.5" y="-90.75" font-family="Helvetica,sans-Serif" font-size="10.00">+</text>
<text xml:space="preserve" text-anchor="start" x="23.25" y="-90.75" font-family="Helvetica,sans-Serif" font-size="10.00">SupportsAlignment</text>
<text xml:space="preserve" text-anchor="start" x="7.5" y="-74" font-family="Helvetica,sans-Serif" font-size="10.00">+</text>
<text xml:space="preserve" text-anchor="start" x="23.25" y="-74" font-family="Helvetica,sans-Serif" font-size="10.00">UsesFMalloc</text>
<text xml:space="preserve" text-anchor="start" x="7.5" y="-57.25" font-family="Helvetica,sans-Serif" font-size="10.00">+</text>
<text xml:space="preserve" text-anchor="start" x="23.25" y="-57.25" font-family="Helvetica,sans-Serif" font-size="10.00">MaxAlignment</text>
<text xml:space="preserve" text-anchor="start" x="7.5" y="-40.5" font-family="Helvetica,sans-Serif" font-size="10.00">+</text>
<text xml:space="preserve" text-anchor="start" x="23.25" y="-40.5" font-family="Helvetica,sans-Serif" font-size="10.00">Malloc()</text>
<text xml:space="preserve" text-anchor="start" x="7.5" y="-23.75" font-family="Helvetica,sans-Serif" font-size="10.00">+</text>
<text xml:space="preserve" text-anchor="start" x="23.25" y="-23.75" font-family="Helvetica,sans-Serif" font-size="10.00">Free()</text>
<text xml:space="preserve" text-anchor="start" x="9.75" y="-7" font-family="Helvetica,sans-Serif" font-size="10.00">&#45;</text>
<text xml:space="preserve" text-anchor="start" x="23.25" y="-7" font-family="Helvetica,sans-Serif" font-size="10.00">SwapBlock()</text>
<polygon fill="#666666" stroke="#666666" points="0,-102.5 0,-102.5 127.25,-102.5 127.25,-102.5 0,-102.5"/>
<polygon fill="#666666" stroke="#666666" points="0,-52.25 0,-52.25 21.25,-52.25 21.25,-52.25 0,-52.25"/>
<polygon fill="#666666" stroke="#666666" points="21.25,-52.25 21.25,-52.25 127.25,-52.25 127.25,-52.25 21.25,-52.25"/>
<polygon fill="none" stroke="#666666" points="0,0 0,-134 127.25,-134 127.25,0 0,0"/>
</a>
</g>
</g>
</g>
</svg>
