<?xml version="1.0" encoding="UTF-8" standalone="no"?>
<!DOCTYPE svg PUBLIC "-//W3C//DTD SVG 1.1//EN"
 "http://www.w3.org/Graphics/SVG/1.1/DTD/svg11.dtd">
<!-- Generated by graphviz version 14.1.4 (0)
 -->
<!-- Title: TOctree_DEPRECATED::AddElementToNode Pages: 1 -->
<svg width="454pt" height="60pt"
 viewBox="0.00 0.00 454.00 60.00" xmlns="http://www.w3.org/2000/svg" xmlns:xlink="http://www.w3.org/1999/xlink">
<g id="graph0" class="graph" transform="scale(1 1) rotate(0) translate(4 55.5)">
<title>TOctree_DEPRECATED::AddElementToNode</title>
<!-- Node1 -->
<g id="Node000001" class="node">
<title>Node1</title>
<g id="a_Node000001"><a xlink:title=" ">
<polygon fill="#999999" stroke="#666666" points="446.25,-33.5 321.5,-33.5 321.5,0 446.25,0 446.25,-33.5"/>
<text xml:space="preserve" text-anchor="start" x="329.5" y="-20" font-family="Helvetica,sans-Serif" font-size="10.00">TOctree_DEPRECATED</text>
<text xml:space="preserve" text-anchor="middle" x="383.88" y="-7.25" font-family="Helvetica,sans-Serif" font-size="10.00">::AddElementToNode</text>
</a>
</g>
</g>
<!-- Node1&#45;&gt;Node1 -->
<g id="edge3_Node000001_Node000001" class="edge">
<title>Node1&#45;&gt;Node1</title>
<g id="a_edge3_Node000001_Node000001"><a xlink:title=" ">
<path fill="none" stroke="#63b8ff" d="M410.87,-44.89C406.47,-48.85 397.47,-51.5 383.88,-51.5 359.7,-51.5 350.07,-43.12 354.98,-33.91"/>
<polygon fill="#63b8ff" stroke="#63b8ff" points="414.25,-45.86 412.51,-35.41 407.35,-44.66 414.25,-45.86"/>
</a>
</g>
</g>
<!-- Node2 -->
<g id="Node000002" class="node">
<title>Node2</title>
<g id="a_Node000002"><a xlink:href="$classTOctree__DEPRECATED.html#aff4c7ca514bdb263de836a92f03f492b" xlink:title=" ">
<polygon fill="white" stroke="#666666" points="285.5,-33.5 160.75,-33.5 160.75,0 285.5,0 285.5,-33.5"/>
<text xml:space="preserve" text-anchor="start" x="168.75" y="-20" font-family="Helvetica,sans-Serif" font-size="10.00">TOctree_DEPRECATED</text>
<text xml:space="preserve" text-anchor="middle" x="223.12" y="-7.25" font-family="Helvetica,sans-Serif" font-size="10.00">::AddElement</text>
</a>
</g>
</g>
<!-- Node1&#45;&gt;Node2 -->
<g id="edge1_Node000001_Node000002" class="edge">
<title>Node1&#45;&gt;Node2</title>
<g id="a_edge1_Node000001_Node000002"><a xlink:title=" ">
<path fill="none" stroke="#63b8ff" d="M309.79,-16.75C301.77,-16.75 293.65,-16.75 285.79,-16.75"/>
<polygon fill="#63b8ff" stroke="#63b8ff" points="309.53,-20.25 319.53,-16.75 309.53,-13.25 309.53,-20.25"/>
</a>
</g>
</g>
<!-- Node3 -->
<g id="Node000003" class="node">
<title>Node3</title>
<g id="a_Node000003"><a xlink:href="$classTOctree__DEPRECATED.html#a9ca49ee8586fe4a12910c93213d646a3" xlink:title=" ">
<polygon fill="white" stroke="#666666" points="124.75,-33.5 0,-33.5 0,0 124.75,0 124.75,-33.5"/>
<text xml:space="preserve" text-anchor="start" x="8" y="-20" font-family="Helvetica,sans-Serif" font-size="10.00">TOctree_DEPRECATED</text>
<text xml:space="preserve" text-anchor="middle" x="62.38" y="-7.25" font-family="Helvetica,sans-Serif" font-size="10.00">::ApplyOffset</text>
</a>
</g>
</g>
<!-- Node2&#45;&gt;Node3 -->
<g id="edge2_Node000002_Node000003" class="edge">
<title>Node2&#45;&gt;Node3</title>
<g id="a_edge2_Node000002_Node000003"><a xlink:title=" ">
<path fill="none" stroke="#63b8ff" d="M149.04,-16.75C141.02,-16.75 132.9,-16.75 125.04,-16.75"/>
<polygon fill="#63b8ff" stroke="#63b8ff" points="148.78,-20.25 158.78,-16.75 148.78,-13.25 148.78,-20.25"/>
</a>
</g>
</g>
</g>
</svg>
