<?xml version="1.0" encoding="UTF-8" standalone="no"?>
<!DOCTYPE svg PUBLIC "-//W3C//DTD SVG 1.1//EN"
 "http://www.w3.org/Graphics/SVG/1.1/DTD/svg11.dtd">
<!-- Generated by graphviz version 14.1.4 (0)
 -->
<!-- Title: UParticleModuleSize_Seeded Pages: 1 -->
<svg width="420pt" height="1407pt"
 viewBox="0.00 0.00 420.00 1407.00" xmlns="http://www.w3.org/2000/svg" xmlns:xlink="http://www.w3.org/1999/xlink">
<g id="graph0" class="graph" transform="scale(1 1) rotate(0) translate(4 1402.5)">
<title>UParticleModuleSize_Seeded</title>
<!-- Node1 -->
<g id="Node000001" class="node">
<title>Node1</title>
<g id="a_Node000001"><a xlink:title=" ">
<polygon fill="#999999" stroke="none" points="306.75,-83.75 179.25,-83.75 179.25,0 306.75,0 306.75,-83.75"/>
<text xml:space="preserve" text-anchor="start" x="192.75" y="-70" font-family="Helvetica,sans-Serif" font-size="10.00">UParticleModuleSize</text>
<text xml:space="preserve" text-anchor="start" x="222.38" y="-57.25" font-family="Helvetica,sans-Serif" font-size="10.00">_Seeded</text>
<text xml:space="preserve" text-anchor="start" x="240" y="-40.5" font-family="Helvetica,sans-Serif" font-size="10.00"> </text>
<text xml:space="preserve" text-anchor="start" x="183.25" y="-23.75" font-family="Helvetica,sans-Serif" font-size="10.00">&#45;</text>
<text xml:space="preserve" text-anchor="start" x="191" y="-23.75" font-family="Helvetica,sans-Serif" font-size="10.00">GetRandomSeedInfo()</text>
<text xml:space="preserve" text-anchor="start" x="183.25" y="-7" font-family="Helvetica,sans-Serif" font-size="10.00">&#45;</text>
<text xml:space="preserve" text-anchor="start" x="191" y="-7" font-family="Helvetica,sans-Serif" font-size="10.00">EmitterLoopingNotify()</text>
<polygon fill="#666666" stroke="#666666" points="179.25,-52.25 179.25,-52.25 306.75,-52.25 306.75,-52.25 179.25,-52.25"/>
<polygon fill="#666666" stroke="#666666" points="179.25,-35.5 179.25,-35.5 306.75,-35.5 306.75,-35.5 179.25,-35.5"/>
<polygon fill="none" stroke="#666666" points="179.25,0 179.25,-83.75 306.75,-83.75 306.75,0 179.25,0"/>
</a>
</g>
</g>
<!-- Node2 -->
<g id="Node000002" class="node">
<title>Node2</title>
<g id="a_Node000002"><a xlink:href="classUParticleModuleSize.html" target="_top" xlink:title=" ">
<polygon fill="white" stroke="none" points="228.5,-284.88 87.5,-284.88 87.5,-146.88 228.5,-146.88 228.5,-284.88"/>
<text xml:space="preserve" text-anchor="start" x="107.75" y="-271.12" font-family="Helvetica,sans-Serif" font-size="10.00">UParticleModuleSize</text>
<text xml:space="preserve" text-anchor="start" x="155" y="-254.38" font-family="Helvetica,sans-Serif" font-size="10.00"> </text>
<text xml:space="preserve" text-anchor="start" x="91.5" y="-237.62" font-family="Helvetica,sans-Serif" font-size="10.00">&#45;</text>
<text xml:space="preserve" text-anchor="start" x="99.25" y="-237.62" font-family="Helvetica,sans-Serif" font-size="10.00">InitializeDefaults()</text>
<text xml:space="preserve" text-anchor="start" x="91.5" y="-220.88" font-family="Helvetica,sans-Serif" font-size="10.00">&#45;</text>
<text xml:space="preserve" text-anchor="start" x="99.25" y="-220.88" font-family="Helvetica,sans-Serif" font-size="10.00">PostEditChangeProperty()</text>
<text xml:space="preserve" text-anchor="start" x="91.5" y="-204.12" font-family="Helvetica,sans-Serif" font-size="10.00">&#45;</text>
<text xml:space="preserve" text-anchor="start" x="99.25" y="-204.12" font-family="Helvetica,sans-Serif" font-size="10.00">PostInitProperties()</text>
<text xml:space="preserve" text-anchor="start" x="91.5" y="-187.38" font-family="Helvetica,sans-Serif" font-size="10.00">&#45;</text>
<text xml:space="preserve" text-anchor="start" x="99.25" y="-187.38" font-family="Helvetica,sans-Serif" font-size="10.00">CompileModule()</text>
<text xml:space="preserve" text-anchor="start" x="91.5" y="-170.62" font-family="Helvetica,sans-Serif" font-size="10.00">&#45;</text>
<text xml:space="preserve" text-anchor="start" x="99.25" y="-170.62" font-family="Helvetica,sans-Serif" font-size="10.00">Spawn()</text>
<text xml:space="preserve" text-anchor="start" x="91.5" y="-153.88" font-family="Helvetica,sans-Serif" font-size="10.00">&#45;</text>
<text xml:space="preserve" text-anchor="start" x="99.25" y="-153.88" font-family="Helvetica,sans-Serif" font-size="10.00">SpawnEx()</text>
<polygon fill="#666666" stroke="#666666" points="87.5,-266.12 87.5,-266.12 228.5,-266.12 228.5,-266.12 87.5,-266.12"/>
<polygon fill="#666666" stroke="#666666" points="87.5,-249.38 87.5,-249.38 228.5,-249.38 228.5,-249.38 87.5,-249.38"/>
<polygon fill="none" stroke="#666666" points="87.5,-146.88 87.5,-284.88 228.5,-284.88 228.5,-146.88 87.5,-146.88"/>
</a>
</g>
</g>
<!-- Node2&#45;&gt;Node1 -->
<g id="edge1_Node000001_Node000002" class="edge">
<title>Node2&#45;&gt;Node1</title>
<g id="a_edge1_Node000001_Node000002"><a xlink:title=" ">
<path fill="none" stroke="#63b8ff" d="M196.6,-136.77C205.67,-118.41 214.98,-99.57 222.86,-83.62"/>
<polygon fill="none" stroke="#63b8ff" points="193.56,-135.02 192.26,-145.54 199.83,-138.12 193.56,-135.02"/>
</a>
</g>
</g>
<!-- Node3 -->
<g id="Node000003" class="node">
<title>Node3</title>
<g id="a_Node000003"><a xlink:href="classUParticleModuleSizeBase.html" target="_top" xlink:title=" ">
<polygon fill="white" stroke="none" points="147.25,-519.5 14.75,-519.5 14.75,-465.25 147.25,-465.25 147.25,-519.5"/>
<text xml:space="preserve" text-anchor="start" x="18.75" y="-505.75" font-family="Helvetica,sans-Serif" font-size="10.00">UParticleModuleSizeBase</text>
<text xml:space="preserve" text-anchor="start" x="78" y="-489" font-family="Helvetica,sans-Serif" font-size="10.00"> </text>
<text xml:space="preserve" text-anchor="start" x="78" y="-472.25" font-family="Helvetica,sans-Serif" font-size="10.00"> </text>
<polygon fill="#666666" stroke="#666666" points="14.75,-500.75 14.75,-500.75 147.25,-500.75 147.25,-500.75 14.75,-500.75"/>
<polygon fill="#666666" stroke="#666666" points="14.75,-484 14.75,-484 147.25,-484 147.25,-484 14.75,-484"/>
<polygon fill="none" stroke="#666666" points="14.75,-465.25 14.75,-519.5 147.25,-519.5 147.25,-465.25 14.75,-465.25"/>
</a>
</g>
</g>
<!-- Node3&#45;&gt;Node2 -->
<g id="edge2_Node000002_Node000003" class="edge">
<title>Node3&#45;&gt;Node2</title>
<g id="a_edge2_Node000002_Node000003"><a xlink:title=" ">
<path fill="none" stroke="#63b8ff" d="M91.29,-454.69C103.43,-411.4 123.87,-338.54 138.93,-284.84"/>
<polygon fill="none" stroke="#63b8ff" points="87.98,-453.52 88.65,-464.09 94.72,-455.41 87.98,-453.52"/>
</a>
</g>
</g>
<!-- Node4 -->
<g id="Node000004" class="node">
<title>Node4</title>
<g id="a_Node000004"><a xlink:href="classUParticleModule.html" target="_top" xlink:title=" ">
<polygon fill="white" stroke="none" points="162,-1172.25 0,-1172.25 0,-673.75 162,-673.75 162,-1172.25"/>
<text xml:space="preserve" text-anchor="start" x="40.88" y="-1158.5" font-family="Helvetica,sans-Serif" font-size="10.00">UParticleModule</text>
<text xml:space="preserve" text-anchor="start" x="4" y="-1141.75" font-family="Helvetica,sans-Serif" font-size="10.00">&#45;</text>
<text xml:space="preserve" text-anchor="start" x="11.75" y="-1141.75" font-family="Helvetica,sans-Serif" font-size="10.00">bSpawnModule</text>
<text xml:space="preserve" text-anchor="start" x="4" y="-1125" font-family="Helvetica,sans-Serif" font-size="10.00">&#45;</text>
<text xml:space="preserve" text-anchor="start" x="11.75" y="-1125" font-family="Helvetica,sans-Serif" font-size="10.00">bUpdateModule</text>
<text xml:space="preserve" text-anchor="start" x="4" y="-1108.25" font-family="Helvetica,sans-Serif" font-size="10.00">&#45;</text>
<text xml:space="preserve" text-anchor="start" x="11.75" y="-1108.25" font-family="Helvetica,sans-Serif" font-size="10.00">bFinalUpdateModule</text>
<text xml:space="preserve" text-anchor="start" x="4" y="-1091.5" font-family="Helvetica,sans-Serif" font-size="10.00">&#45;</text>
<text xml:space="preserve" text-anchor="start" x="11.75" y="-1091.5" font-family="Helvetica,sans-Serif" font-size="10.00">bUpdateForGPUEmitter</text>
<text xml:space="preserve" text-anchor="start" x="4" y="-1074.75" font-family="Helvetica,sans-Serif" font-size="10.00">&#45;</text>
<text xml:space="preserve" text-anchor="start" x="11.75" y="-1074.75" font-family="Helvetica,sans-Serif" font-size="10.00">bCurvesAsColor</text>
<text xml:space="preserve" text-anchor="start" x="4" y="-1058" font-family="Helvetica,sans-Serif" font-size="10.00">&#45;</text>
<text xml:space="preserve" text-anchor="start" x="11.75" y="-1058" font-family="Helvetica,sans-Serif" font-size="10.00">b3DDrawMode</text>
<text xml:space="preserve" text-anchor="start" x="4" y="-1041.25" font-family="Helvetica,sans-Serif" font-size="10.00">&#45;</text>
<text xml:space="preserve" text-anchor="start" x="11.75" y="-1041.25" font-family="Helvetica,sans-Serif" font-size="10.00">bSupported3DDrawMode</text>
<text xml:space="preserve" text-anchor="start" x="4" y="-1024.5" font-family="Helvetica,sans-Serif" font-size="10.00">&#45;</text>
<text xml:space="preserve" text-anchor="start" x="11.75" y="-1024.5" font-family="Helvetica,sans-Serif" font-size="10.00">bEnabled</text>
<text xml:space="preserve" text-anchor="start" x="4" y="-1007.75" font-family="Helvetica,sans-Serif" font-size="10.00">&#45;</text>
<text xml:space="preserve" text-anchor="start" x="11.75" y="-1007.75" font-family="Helvetica,sans-Serif" font-size="10.00">bEditable</text>
<text xml:space="preserve" text-anchor="start" x="4" y="-991" font-family="Helvetica,sans-Serif" font-size="10.00">&#45;</text>
<text xml:space="preserve" text-anchor="start" x="11.75" y="-991" font-family="Helvetica,sans-Serif" font-size="10.00">LODDuplicate</text>
<text xml:space="preserve" text-anchor="start" x="4" y="-974.25" font-family="Helvetica,sans-Serif" font-size="10.00">&#45;</text>
<text xml:space="preserve" text-anchor="start" x="11.75" y="-974.25" font-family="Helvetica,sans-Serif" font-size="10.00">bSupportsRandomSeed</text>
<text xml:space="preserve" text-anchor="start" x="4" y="-957.5" font-family="Helvetica,sans-Serif" font-size="10.00">&#45;</text>
<text xml:space="preserve" text-anchor="start" x="11.75" y="-957.5" font-family="Helvetica,sans-Serif" font-size="10.00">bRequiresLoopingNotification</text>
<text xml:space="preserve" text-anchor="start" x="4" y="-940.75" font-family="Helvetica,sans-Serif" font-size="10.00">&#45;</text>
<text xml:space="preserve" text-anchor="start" x="11.75" y="-940.75" font-family="Helvetica,sans-Serif" font-size="10.00">LODValidity</text>
<text xml:space="preserve" text-anchor="start" x="4" y="-924" font-family="Helvetica,sans-Serif" font-size="10.00">&#45;</text>
<text xml:space="preserve" text-anchor="start" x="11.75" y="-924" font-family="Helvetica,sans-Serif" font-size="10.00">IsPostLoadThreadSafe()</text>
<text xml:space="preserve" text-anchor="start" x="4" y="-907.25" font-family="Helvetica,sans-Serif" font-size="10.00">&#45;</text>
<text xml:space="preserve" text-anchor="start" x="11.75" y="-907.25" font-family="Helvetica,sans-Serif" font-size="10.00">PostEditChangeProperty()</text>
<text xml:space="preserve" text-anchor="start" x="4" y="-890.5" font-family="Helvetica,sans-Serif" font-size="10.00">&#45;</text>
<text xml:space="preserve" text-anchor="start" x="11.75" y="-890.5" font-family="Helvetica,sans-Serif" font-size="10.00">CompileModule()</text>
<text xml:space="preserve" text-anchor="start" x="4" y="-873.75" font-family="Helvetica,sans-Serif" font-size="10.00">&#45;</text>
<text xml:space="preserve" text-anchor="start" x="11.75" y="-873.75" font-family="Helvetica,sans-Serif" font-size="10.00">Spawn()</text>
<text xml:space="preserve" text-anchor="start" x="4" y="-857" font-family="Helvetica,sans-Serif" font-size="10.00">&#45;</text>
<text xml:space="preserve" text-anchor="start" x="11.75" y="-857" font-family="Helvetica,sans-Serif" font-size="10.00">Update()</text>
<text xml:space="preserve" text-anchor="start" x="4" y="-840.25" font-family="Helvetica,sans-Serif" font-size="10.00">&#45;</text>
<text xml:space="preserve" text-anchor="start" x="11.75" y="-840.25" font-family="Helvetica,sans-Serif" font-size="10.00">FinalUpdate()</text>
<text xml:space="preserve" text-anchor="start" x="4" y="-823.5" font-family="Helvetica,sans-Serif" font-size="10.00">&#45;</text>
<text xml:space="preserve" text-anchor="start" x="11.75" y="-823.5" font-family="Helvetica,sans-Serif" font-size="10.00">RequiredBytes()</text>
<text xml:space="preserve" text-anchor="start" x="4" y="-806.75" font-family="Helvetica,sans-Serif" font-size="10.00">&#45;</text>
<text xml:space="preserve" text-anchor="start" x="11.75" y="-806.75" font-family="Helvetica,sans-Serif" font-size="10.00">RequiredBytesPerInstance()</text>
<text xml:space="preserve" text-anchor="start" x="4" y="-790" font-family="Helvetica,sans-Serif" font-size="10.00">&#45;</text>
<text xml:space="preserve" text-anchor="start" x="11.75" y="-790" font-family="Helvetica,sans-Serif" font-size="10.00">PrepPerInstanceBlock()</text>
<text xml:space="preserve" text-anchor="start" x="4" y="-773.25" font-family="Helvetica,sans-Serif" font-size="10.00">&#45;</text>
<text xml:space="preserve" text-anchor="start" x="11.75" y="-773.25" font-family="Helvetica,sans-Serif" font-size="10.00">SetToSensibleDefaults()</text>
<text xml:space="preserve" text-anchor="start" x="11.75" y="-756.5" font-family="Helvetica,sans-Serif" font-size="10.00">and 35 more...</text>
<text xml:space="preserve" text-anchor="start" x="4" y="-739.75" font-family="Helvetica,sans-Serif" font-size="10.00">&#45;</text>
<text xml:space="preserve" text-anchor="start" x="11.75" y="-739.75" font-family="Helvetica,sans-Serif" font-size="10.00">GetDistributionsRestricted</text>
<text xml:space="preserve" text-anchor="start" x="11.75" y="-727" font-family="Helvetica,sans-Serif" font-size="10.00">OnGPU()</text>
<text xml:space="preserve" text-anchor="start" x="4" y="-710.25" font-family="Helvetica,sans-Serif" font-size="10.00">&#45;</text>
<text xml:space="preserve" text-anchor="start" x="11.75" y="-710.25" font-family="Helvetica,sans-Serif" font-size="10.00">IsDistributionAllowedOnGPU()</text>
<text xml:space="preserve" text-anchor="start" x="4" y="-693.5" font-family="Helvetica,sans-Serif" font-size="10.00">&#45;</text>
<text xml:space="preserve" text-anchor="start" x="11.75" y="-693.5" font-family="Helvetica,sans-Serif" font-size="10.00">GetDistributionNotAllowed</text>
<text xml:space="preserve" text-anchor="start" x="11.75" y="-680.75" font-family="Helvetica,sans-Serif" font-size="10.00">OnGPUText()</text>
<polygon fill="#666666" stroke="#666666" points="0,-1153.5 0,-1153.5 162,-1153.5 162,-1153.5 0,-1153.5"/>
<polygon fill="#666666" stroke="#666666" points="0,-935.75 0,-935.75 9.75,-935.75 9.75,-935.75 0,-935.75"/>
<polygon fill="#666666" stroke="#666666" points="9.75,-935.75 9.75,-935.75 162,-935.75 162,-935.75 9.75,-935.75"/>
<polygon fill="none" stroke="#666666" points="0,-673.75 0,-1172.25 162,-1172.25 162,-673.75 0,-673.75"/>
</a>
</g>
</g>
<!-- Node4&#45;&gt;Node3 -->
<g id="edge3_Node000003_Node000004" class="edge">
<title>Node4&#45;&gt;Node3</title>
<g id="a_edge3_Node000003_Node000004"><a xlink:title=" ">
<path fill="none" stroke="#63b8ff" d="M81,-662.52C81,-603.92 81,-550.04 81,-519.5"/>
<polygon fill="none" stroke="#63b8ff" points="77.5,-662.39 81,-672.39 84.5,-662.39 77.5,-662.39"/>
</a>
</g>
</g>
<!-- Node5 -->
<g id="Node000005" class="node">
<title>Node5</title>
<g id="a_Node000005"><a xlink:title=" ">
<polygon fill="white" stroke="none" points="104.5,-1339.88 57.5,-1339.88 57.5,-1285.62 104.5,-1285.62 104.5,-1339.88"/>
<text xml:space="preserve" text-anchor="start" x="61.5" y="-1326.12" font-family="Helvetica,sans-Serif" font-size="10.00">UObject</text>
<text xml:space="preserve" text-anchor="start" x="78" y="-1309.38" font-family="Helvetica,sans-Serif" font-size="10.00"> </text>
<text xml:space="preserve" text-anchor="start" x="78" y="-1292.62" font-family="Helvetica,sans-Serif" font-size="10.00"> </text>
<polygon fill="#666666" stroke="#666666" points="57.5,-1321.12 57.5,-1321.12 104.5,-1321.12 104.5,-1321.12 57.5,-1321.12"/>
<polygon fill="#666666" stroke="#666666" points="57.5,-1304.38 57.5,-1304.38 104.5,-1304.38 104.5,-1304.38 57.5,-1304.38"/>
<polygon fill="none" stroke="#666666" points="57.5,-1285.62 57.5,-1339.88 104.5,-1339.88 104.5,-1285.62 57.5,-1285.62"/>
</a>
</g>
</g>
<!-- Node5&#45;&gt;Node4 -->
<g id="edge4_Node000004_Node000005" class="edge">
<title>Node5&#45;&gt;Node4</title>
<g id="a_edge4_Node000004_Node000005"><a xlink:title=" ">
<path fill="none" stroke="#63b8ff" d="M81,-1274.34C81,-1248.64 81,-1212.04 81,-1172.1"/>
<polygon fill="none" stroke="#63b8ff" points="77.5,-1274.19 81,-1284.19 84.5,-1274.19 77.5,-1274.19"/>
</a>
</g>
</g>
<!-- Node6 -->
<g id="Node000006" class="node">
<title>Node6</title>
<g id="a_Node000006"><a xlink:href="structFRawDistributionVector.html" target="_top" xlink:title=" ">
<polygon fill="white" stroke="none" points="308.62,-636.75 165.38,-636.75 165.38,-348 308.62,-348 308.62,-636.75"/>
<text xml:space="preserve" text-anchor="start" x="179.25" y="-623" font-family="Helvetica,sans-Serif" font-size="10.00">FRawDistributionVector</text>
<text xml:space="preserve" text-anchor="start" x="169.38" y="-606.25" font-family="Helvetica,sans-Serif" font-size="10.00">+</text>
<text xml:space="preserve" text-anchor="start" x="181.62" y="-606.25" font-family="Helvetica,sans-Serif" font-size="10.00">Distribution</text>
<text xml:space="preserve" text-anchor="start" x="171.62" y="-589.5" font-family="Helvetica,sans-Serif" font-size="10.00">&#45;</text>
<text xml:space="preserve" text-anchor="start" x="181.62" y="-589.5" font-family="Helvetica,sans-Serif" font-size="10.00">MinValue</text>
<text xml:space="preserve" text-anchor="start" x="171.62" y="-572.75" font-family="Helvetica,sans-Serif" font-size="10.00">&#45;</text>
<text xml:space="preserve" text-anchor="start" x="181.62" y="-572.75" font-family="Helvetica,sans-Serif" font-size="10.00">MaxValue</text>
<text xml:space="preserve" text-anchor="start" x="171.62" y="-556" font-family="Helvetica,sans-Serif" font-size="10.00">&#45;</text>
<text xml:space="preserve" text-anchor="start" x="181.62" y="-556" font-family="Helvetica,sans-Serif" font-size="10.00">MinValueVec</text>
<text xml:space="preserve" text-anchor="start" x="171.62" y="-539.25" font-family="Helvetica,sans-Serif" font-size="10.00">&#45;</text>
<text xml:space="preserve" text-anchor="start" x="181.62" y="-539.25" font-family="Helvetica,sans-Serif" font-size="10.00">MaxValueVec</text>
<text xml:space="preserve" text-anchor="start" x="169.38" y="-522.5" font-family="Helvetica,sans-Serif" font-size="10.00">+</text>
<text xml:space="preserve" text-anchor="start" x="181.62" y="-522.5" font-family="Helvetica,sans-Serif" font-size="10.00">IsCreated()</text>
<text xml:space="preserve" text-anchor="start" x="169.38" y="-505.75" font-family="Helvetica,sans-Serif" font-size="10.00">+</text>
<text xml:space="preserve" text-anchor="start" x="181.62" y="-505.75" font-family="Helvetica,sans-Serif" font-size="10.00">FRawDistributionVector()</text>
<text xml:space="preserve" text-anchor="start" x="169.38" y="-489" font-family="Helvetica,sans-Serif" font-size="10.00">+</text>
<text xml:space="preserve" text-anchor="start" x="181.62" y="-489" font-family="Helvetica,sans-Serif" font-size="10.00">Initialize()</text>
<text xml:space="preserve" text-anchor="start" x="169.38" y="-472.25" font-family="Helvetica,sans-Serif" font-size="10.00">+</text>
<text xml:space="preserve" text-anchor="start" x="181.62" y="-472.25" font-family="Helvetica,sans-Serif" font-size="10.00">GetFastRawDistribution()</text>
<text xml:space="preserve" text-anchor="start" x="169.38" y="-455.5" font-family="Helvetica,sans-Serif" font-size="10.00">+</text>
<text xml:space="preserve" text-anchor="start" x="181.62" y="-455.5" font-family="Helvetica,sans-Serif" font-size="10.00">GetValue()</text>
<text xml:space="preserve" text-anchor="start" x="169.38" y="-438.75" font-family="Helvetica,sans-Serif" font-size="10.00">+</text>
<text xml:space="preserve" text-anchor="start" x="181.62" y="-438.75" font-family="Helvetica,sans-Serif" font-size="10.00">GetOutRange()</text>
<text xml:space="preserve" text-anchor="start" x="169.38" y="-422" font-family="Helvetica,sans-Serif" font-size="10.00">+</text>
<text xml:space="preserve" text-anchor="start" x="181.62" y="-422" font-family="Helvetica,sans-Serif" font-size="10.00">GetRange()</text>
<text xml:space="preserve" text-anchor="start" x="169.38" y="-405.25" font-family="Helvetica,sans-Serif" font-size="10.00">+</text>
<text xml:space="preserve" text-anchor="start" x="181.62" y="-405.25" font-family="Helvetica,sans-Serif" font-size="10.00">IsUniform()</text>
<text xml:space="preserve" text-anchor="start" x="169.38" y="-388.5" font-family="Helvetica,sans-Serif" font-size="10.00">+</text>
<text xml:space="preserve" text-anchor="start" x="181.62" y="-388.5" font-family="Helvetica,sans-Serif" font-size="10.00">InitLookupTable()</text>
<text xml:space="preserve" text-anchor="start" x="169.38" y="-371.75" font-family="Helvetica,sans-Serif" font-size="10.00">+</text>
<text xml:space="preserve" text-anchor="start" x="181.62" y="-371.75" font-family="Helvetica,sans-Serif" font-size="10.00">HasLookupTable()</text>
<text xml:space="preserve" text-anchor="start" x="169.38" y="-355" font-family="Helvetica,sans-Serif" font-size="10.00">+</text>
<text xml:space="preserve" text-anchor="start" x="181.62" y="-355" font-family="Helvetica,sans-Serif" font-size="10.00">OkForParallel()</text>
<polygon fill="#666666" stroke="#666666" points="165.38,-618 165.38,-618 308.62,-618 308.62,-618 165.38,-618"/>
<polygon fill="#666666" stroke="#666666" points="165.38,-534.25 165.38,-534.25 179.62,-534.25 179.62,-534.25 165.38,-534.25"/>
<polygon fill="#666666" stroke="#666666" points="179.62,-534.25 179.62,-534.25 308.62,-534.25 308.62,-534.25 179.62,-534.25"/>
<polygon fill="none" stroke="#666666" points="165.38,-348 165.38,-636.75 308.62,-636.75 308.62,-348 165.38,-348"/>
</a>
</g>
</g>
<!-- Node6&#45;&gt;Node2 -->
<g id="edge5_Node000002_Node000006" class="edge">
<title>Node6&#45;&gt;Node2</title>
<g id="a_edge5_Node000002_Node000006"><a xlink:title=" ">
<path fill="none" stroke="#63b8ff" d="M195.76,-348.1C190.7,-330.49 185.67,-313.01 181.01,-296.83"/>
<polygon fill="none" stroke="#63b8ff" points="181.09,-297.12 175.59,-292.46 177.78,-285.59 183.28,-290.25 181.09,-297.12"/>
</a>
</g>
<text xml:space="preserve" text-anchor="start" x="193.42" y="-317.25" font-family="Helvetica,sans-Serif" font-size="10.00" fill="grey">&#45;StartSize</text>
</g>
<!-- Node7 -->
<g id="Node000007" class="node">
<title>Node7</title>
<g id="a_Node000007"><a xlink:href="structFRawDistribution.html" target="_top" xlink:title=" ">
<polygon fill="white" stroke="none" points="283,-950.12 191,-950.12 191,-895.88 283,-895.88 283,-950.12"/>
<text xml:space="preserve" text-anchor="start" x="195" y="-936.38" font-family="Helvetica,sans-Serif" font-size="10.00">FRawDistribution</text>
<text xml:space="preserve" text-anchor="start" x="234" y="-919.62" font-family="Helvetica,sans-Serif" font-size="10.00"> </text>
<text xml:space="preserve" text-anchor="start" x="234" y="-902.88" font-family="Helvetica,sans-Serif" font-size="10.00"> </text>
<polygon fill="#666666" stroke="#666666" points="191,-931.38 191,-931.38 283,-931.38 283,-931.38 191,-931.38"/>
<polygon fill="#666666" stroke="#666666" points="191,-914.62 191,-914.62 283,-914.62 283,-914.62 191,-914.62"/>
<polygon fill="none" stroke="#666666" points="191,-895.88 191,-950.12 283,-950.12 283,-895.88 191,-895.88"/>
</a>
</g>
</g>
<!-- Node7&#45;&gt;Node6 -->
<g id="edge6_Node000006_Node000007" class="edge">
<title>Node7&#45;&gt;Node6</title>
<g id="a_edge6_Node000006_Node000007"><a xlink:title=" ">
<path fill="none" stroke="#63b8ff" d="M237,-884.93C237,-830.09 237,-724.36 237,-636.58"/>
<polygon fill="none" stroke="#63b8ff" points="233.5,-884.64 237,-894.64 240.5,-884.64 233.5,-884.64"/>
</a>
</g>
</g>
<!-- Node8 -->
<g id="Node000008" class="node">
<title>Node8</title>
<g id="a_Node000008"><a xlink:href="structFDistributionLookupTable.html" target="_top" xlink:title=" ">
<polygon fill="white" stroke="none" points="302.88,-1398.5 171.12,-1398.5 171.12,-1227 302.88,-1227 302.88,-1398.5"/>
<text xml:space="preserve" text-anchor="start" x="175.12" y="-1384.75" font-family="Helvetica,sans-Serif" font-size="10.00">FDistributionLookupTable</text>
<text xml:space="preserve" text-anchor="start" x="185" y="-1368" font-family="Helvetica,sans-Serif" font-size="10.00">+</text>
<text xml:space="preserve" text-anchor="start" x="207.12" y="-1368" font-family="Helvetica,sans-Serif" font-size="10.00">TimeScale</text>
<text xml:space="preserve" text-anchor="start" x="185" y="-1351.25" font-family="Helvetica,sans-Serif" font-size="10.00">+</text>
<text xml:space="preserve" text-anchor="start" x="207.12" y="-1351.25" font-family="Helvetica,sans-Serif" font-size="10.00">TimeBias</text>
<text xml:space="preserve" text-anchor="start" x="185" y="-1334.5" font-family="Helvetica,sans-Serif" font-size="10.00">+</text>
<text xml:space="preserve" text-anchor="start" x="207.12" y="-1334.5" font-family="Helvetica,sans-Serif" font-size="10.00">Values</text>
<text xml:space="preserve" text-anchor="start" x="185" y="-1317.75" font-family="Helvetica,sans-Serif" font-size="10.00">+</text>
<text xml:space="preserve" text-anchor="start" x="207.12" y="-1317.75" font-family="Helvetica,sans-Serif" font-size="10.00">Op</text>
<text xml:space="preserve" text-anchor="start" x="185" y="-1301" font-family="Helvetica,sans-Serif" font-size="10.00">+</text>
<text xml:space="preserve" text-anchor="start" x="207.12" y="-1301" font-family="Helvetica,sans-Serif" font-size="10.00">EntryCount</text>
<text xml:space="preserve" text-anchor="start" x="185" y="-1284.25" font-family="Helvetica,sans-Serif" font-size="10.00">+</text>
<text xml:space="preserve" text-anchor="start" x="207.12" y="-1284.25" font-family="Helvetica,sans-Serif" font-size="10.00">EntryStride</text>
<text xml:space="preserve" text-anchor="start" x="185" y="-1267.5" font-family="Helvetica,sans-Serif" font-size="10.00">+</text>
<text xml:space="preserve" text-anchor="start" x="207.12" y="-1267.5" font-family="Helvetica,sans-Serif" font-size="10.00">SubEntryStride</text>
<text xml:space="preserve" text-anchor="start" x="185" y="-1250.75" font-family="Helvetica,sans-Serif" font-size="10.00">+</text>
<text xml:space="preserve" text-anchor="start" x="207.12" y="-1250.75" font-family="Helvetica,sans-Serif" font-size="10.00">LockFlag</text>
<text xml:space="preserve" text-anchor="start" x="234" y="-1234" font-family="Helvetica,sans-Serif" font-size="10.00"> </text>
<polygon fill="#666666" stroke="#666666" points="171.12,-1379.75 171.12,-1379.75 302.88,-1379.75 302.88,-1379.75 171.12,-1379.75"/>
<polygon fill="#666666" stroke="#666666" points="171.12,-1245.75 171.12,-1245.75 205.12,-1245.75 205.12,-1245.75 171.12,-1245.75"/>
<polygon fill="#666666" stroke="#666666" points="205.12,-1245.75 205.12,-1245.75 302.88,-1245.75 302.88,-1245.75 205.12,-1245.75"/>
<polygon fill="none" stroke="#666666" points="171.12,-1227 171.12,-1398.5 302.88,-1398.5 302.88,-1227 171.12,-1227"/>
</a>
</g>
</g>
<!-- Node8&#45;&gt;Node7 -->
<g id="edge7_Node000007_Node000008" class="edge">
<title>Node8&#45;&gt;Node7</title>
<g id="a_edge7_Node000007_Node000008"><a xlink:title=" ">
<path fill="none" stroke="#63b8ff" d="M237,-1227.14C237,-1145.1 237,-1024.31 237,-962.91"/>
<polygon fill="none" stroke="#63b8ff" points="237,-962.94 233,-956.94 237,-950.94 241,-956.94 237,-962.94"/>
</a>
</g>
<text xml:space="preserve" text-anchor="start" x="240" y="-1196.25" font-family="Helvetica,sans-Serif" font-size="10.00" fill="grey">+Table</text>
</g>
<!-- Node9 -->
<g id="Node000009" class="node">
<title>Node9</title>
<g id="a_Node000009"><a xlink:href="structFParticleRandomSeedInfo.html" target="_top" xlink:title=" ">
<polygon fill="white" stroke="none" points="411.88,-293.25 246.12,-293.25 246.12,-138.5 411.88,-138.5 411.88,-293.25"/>
<text xml:space="preserve" text-anchor="start" x="266" y="-279.5" font-family="Helvetica,sans-Serif" font-size="10.00">FParticleRandomSeedInfo</text>
<text xml:space="preserve" text-anchor="start" x="250.12" y="-262.75" font-family="Helvetica,sans-Serif" font-size="10.00">+</text>
<text xml:space="preserve" text-anchor="start" x="262.38" y="-262.75" font-family="Helvetica,sans-Serif" font-size="10.00">ParameterName</text>
<text xml:space="preserve" text-anchor="start" x="250.12" y="-246" font-family="Helvetica,sans-Serif" font-size="10.00">+</text>
<text xml:space="preserve" text-anchor="start" x="262.38" y="-246" font-family="Helvetica,sans-Serif" font-size="10.00">bGetSeedFromInstance</text>
<text xml:space="preserve" text-anchor="start" x="250.12" y="-229.25" font-family="Helvetica,sans-Serif" font-size="10.00">+</text>
<text xml:space="preserve" text-anchor="start" x="262.38" y="-229.25" font-family="Helvetica,sans-Serif" font-size="10.00">bInstanceSeedIsIndex</text>
<text xml:space="preserve" text-anchor="start" x="250.12" y="-212.5" font-family="Helvetica,sans-Serif" font-size="10.00">+</text>
<text xml:space="preserve" text-anchor="start" x="262.38" y="-212.5" font-family="Helvetica,sans-Serif" font-size="10.00">bResetSeedOnEmitterLooping</text>
<text xml:space="preserve" text-anchor="start" x="250.12" y="-195.75" font-family="Helvetica,sans-Serif" font-size="10.00">+</text>
<text xml:space="preserve" text-anchor="start" x="262.38" y="-195.75" font-family="Helvetica,sans-Serif" font-size="10.00">bRandomlySelectSeedArray</text>
<text xml:space="preserve" text-anchor="start" x="250.12" y="-179" font-family="Helvetica,sans-Serif" font-size="10.00">+</text>
<text xml:space="preserve" text-anchor="start" x="262.38" y="-179" font-family="Helvetica,sans-Serif" font-size="10.00">RandomSeeds</text>
<text xml:space="preserve" text-anchor="start" x="250.12" y="-162.25" font-family="Helvetica,sans-Serif" font-size="10.00">+</text>
<text xml:space="preserve" text-anchor="start" x="262.38" y="-162.25" font-family="Helvetica,sans-Serif" font-size="10.00">FParticleRandomSeedInfo()</text>
<text xml:space="preserve" text-anchor="start" x="250.12" y="-145.5" font-family="Helvetica,sans-Serif" font-size="10.00">+</text>
<text xml:space="preserve" text-anchor="start" x="262.38" y="-145.5" font-family="Helvetica,sans-Serif" font-size="10.00">GetInstancePayloadSize()</text>
<polygon fill="#666666" stroke="#666666" points="246.12,-274.5 246.12,-274.5 411.88,-274.5 411.88,-274.5 246.12,-274.5"/>
<polygon fill="#666666" stroke="#666666" points="246.12,-174 246.12,-174 260.38,-174 260.38,-174 246.12,-174"/>
<polygon fill="#666666" stroke="#666666" points="260.38,-174 260.38,-174 411.88,-174 411.88,-174 260.38,-174"/>
<polygon fill="none" stroke="#666666" points="246.12,-138.5 246.12,-293.25 411.88,-293.25 411.88,-138.5 246.12,-138.5"/>
</a>
</g>
</g>
<!-- Node9&#45;&gt;Node1 -->
<g id="edge8_Node000001_Node000009" class="edge">
<title>Node9&#45;&gt;Node1</title>
<g id="a_edge8_Node000001_Node000009"><a xlink:title=" ">
<path fill="none" stroke="#63b8ff" d="M290.9,-138.68C283.46,-123.8 275.82,-108.52 268.89,-94.66"/>
<polygon fill="none" stroke="#63b8ff" points="269.03,-94.93 262.76,-91.35 263.66,-84.19 269.92,-87.77 269.03,-94.93"/>
</a>
</g>
<text xml:space="preserve" text-anchor="start" x="283.85" y="-107.75" font-family="Helvetica,sans-Serif" font-size="10.00" fill="grey">&#45;RandomSeedInfo</text>
</g>
</g>
</svg>
