<?xml version="1.0" encoding="UTF-8" standalone="no"?>
<!DOCTYPE svg PUBLIC "-//W3C//DTD SVG 1.1//EN"
 "http://www.w3.org/Graphics/SVG/1.1/DTD/svg11.dtd">
<!-- Generated by graphviz version 14.1.4 (0)
 -->
<!-- Title: TMatrix2x2&lt; T &gt; Pages: 1 -->
<svg width="117pt" height="339pt"
 viewBox="0.00 0.00 117.00 339.00" xmlns="http://www.w3.org/2000/svg" xmlns:xlink="http://www.w3.org/1999/xlink">
<g id="graph0" class="graph" transform="scale(1 1) rotate(0) translate(4 334.75)">
<title>TMatrix2x2&lt; T &gt;</title>
<!-- Node1 -->
<g id="Node000001" class="node">
<title>Node1</title>
<g id="a_Node000001"><a xlink:title=" ">
<polygon fill="#999999" stroke="none" points="108.75,-221.75 0,-221.75 0,0 108.75,0 108.75,-221.75"/>
<text xml:space="preserve" text-anchor="start" x="12.38" y="-208" font-family="Helvetica,sans-Serif" font-size="10.00">TMatrix2x2&lt; T &gt;</text>
<text xml:space="preserve" text-anchor="start" x="51.38" y="-191.25" font-family="Helvetica,sans-Serif" font-size="10.00"> </text>
<text xml:space="preserve" text-anchor="start" x="4" y="-174.5" font-family="Helvetica,sans-Serif" font-size="10.00">+</text>
<text xml:space="preserve" text-anchor="start" x="16.25" y="-174.5" font-family="Helvetica,sans-Serif" font-size="10.00">TMatrix2x2()</text>
<text xml:space="preserve" text-anchor="start" x="4" y="-157.75" font-family="Helvetica,sans-Serif" font-size="10.00">+</text>
<text xml:space="preserve" text-anchor="start" x="16.25" y="-157.75" font-family="Helvetica,sans-Serif" font-size="10.00">TMatrix2x2()</text>
<text xml:space="preserve" text-anchor="start" x="4" y="-141" font-family="Helvetica,sans-Serif" font-size="10.00">+</text>
<text xml:space="preserve" text-anchor="start" x="16.25" y="-141" font-family="Helvetica,sans-Serif" font-size="10.00">TMatrix2x2()</text>
<text xml:space="preserve" text-anchor="start" x="4" y="-124.25" font-family="Helvetica,sans-Serif" font-size="10.00">+</text>
<text xml:space="preserve" text-anchor="start" x="16.25" y="-124.25" font-family="Helvetica,sans-Serif" font-size="10.00">TMatrix2x2()</text>
<text xml:space="preserve" text-anchor="start" x="4" y="-107.5" font-family="Helvetica,sans-Serif" font-size="10.00">+</text>
<text xml:space="preserve" text-anchor="start" x="16.25" y="-107.5" font-family="Helvetica,sans-Serif" font-size="10.00">TMatrix2x2()</text>
<text xml:space="preserve" text-anchor="start" x="4" y="-90.75" font-family="Helvetica,sans-Serif" font-size="10.00">+</text>
<text xml:space="preserve" text-anchor="start" x="16.25" y="-90.75" font-family="Helvetica,sans-Serif" font-size="10.00">TMatrix2x2()</text>
<text xml:space="preserve" text-anchor="start" x="4" y="-74" font-family="Helvetica,sans-Serif" font-size="10.00">+</text>
<text xml:space="preserve" text-anchor="start" x="16.25" y="-74" font-family="Helvetica,sans-Serif" font-size="10.00">TransformPoint()</text>
<text xml:space="preserve" text-anchor="start" x="4" y="-57.25" font-family="Helvetica,sans-Serif" font-size="10.00">+</text>
<text xml:space="preserve" text-anchor="start" x="16.25" y="-57.25" font-family="Helvetica,sans-Serif" font-size="10.00">TransformVector()</text>
<text xml:space="preserve" text-anchor="start" x="4" y="-40.5" font-family="Helvetica,sans-Serif" font-size="10.00">+</text>
<text xml:space="preserve" text-anchor="start" x="16.25" y="-40.5" font-family="Helvetica,sans-Serif" font-size="10.00">Concatenate()</text>
<text xml:space="preserve" text-anchor="start" x="4" y="-23.75" font-family="Helvetica,sans-Serif" font-size="10.00">+</text>
<text xml:space="preserve" text-anchor="start" x="16.25" y="-23.75" font-family="Helvetica,sans-Serif" font-size="10.00">Inverse()</text>
<text xml:space="preserve" text-anchor="start" x="16.25" y="-7" font-family="Helvetica,sans-Serif" font-size="10.00">and 13 more...</text>
<polygon fill="#666666" stroke="#666666" points="0,-203 0,-203 108.75,-203 108.75,-203 0,-203"/>
<polygon fill="#666666" stroke="#666666" points="0,-186.25 0,-186.25 108.75,-186.25 108.75,-186.25 0,-186.25"/>
<polygon fill="none" stroke="#666666" points="0,0 0,-221.75 108.75,-221.75 108.75,0 0,0"/>
</a>
</g>
</g>
<!-- Node2 -->
<g id="Node000002" class="node">
<title>Node2</title>
<g id="a_Node000002"><a xlink:title=" ">
<polygon fill="white" stroke="none" points="61.38,-330.75 47.38,-330.75 47.38,-276.5 61.38,-276.5 61.38,-330.75"/>
<text xml:space="preserve" text-anchor="start" x="51.38" y="-317" font-family="Helvetica,sans-Serif" font-size="10.00">T</text>
<text xml:space="preserve" text-anchor="start" x="51.38" y="-300.25" font-family="Helvetica,sans-Serif" font-size="10.00"> </text>
<text xml:space="preserve" text-anchor="start" x="51.38" y="-283.5" font-family="Helvetica,sans-Serif" font-size="10.00"> </text>
<polygon fill="#666666" stroke="#666666" points="47.38,-312 47.38,-312 61.38,-312 61.38,-312 47.38,-312"/>
<polygon fill="#666666" stroke="#666666" points="47.38,-295.25 47.38,-295.25 61.38,-295.25 61.38,-295.25 47.38,-295.25"/>
<polygon fill="none" stroke="#666666" points="47.38,-276.5 47.38,-330.75 61.38,-330.75 61.38,-276.5 47.38,-276.5"/>
</a>
</g>
</g>
<!-- Node2&#45;&gt;Node1 -->
<g id="edge1_Node000001_Node000002" class="edge">
<title>Node2&#45;&gt;Node1</title>
<g id="a_edge1_Node000001_Node000002"><a xlink:title=" ">
<path fill="none" stroke="#63b8ff" d="M54.38,-276.5C54.38,-264.83 54.38,-250.15 54.38,-234.39"/>
<polygon fill="none" stroke="#63b8ff" points="54.38,-234.47 50.38,-228.47 54.38,-222.47 58.38,-228.47 54.38,-234.47"/>
</a>
</g>
<text xml:space="preserve" text-anchor="start" x="57.38" y="-245.75" font-family="Helvetica,sans-Serif" font-size="10.00" fill="grey">&#45;M</text>
</g>
</g>
</svg>
