<?xml version="1.0" encoding="UTF-8" standalone="no"?>
<!DOCTYPE svg PUBLIC "-//W3C//DTD SVG 1.1//EN"
 "http://www.w3.org/Graphics/SVG/1.1/DTD/svg11.dtd">
<!-- Generated by graphviz version 14.1.4 (0)
 -->
<!-- Title: UWorld::InternalGetNetMode Pages: 1 -->
<svg width="467pt" height="48pt"
 viewBox="0.00 0.00 467.00 48.00" xmlns="http://www.w3.org/2000/svg" xmlns:xlink="http://www.w3.org/1999/xlink">
<g id="graph0" class="graph" transform="scale(1 1) rotate(0) translate(4 43.75)">
<title>UWorld::InternalGetNetMode</title>
<!-- Node1 -->
<g id="Node000001" class="node">
<title>Node1</title>
<g id="a_Node000001"><a xlink:title=" ">
<polygon fill="#999999" stroke="#666666" points="459,-20.75 302,-20.75 302,0 459,0 459,-20.75"/>
<text xml:space="preserve" text-anchor="middle" x="380.5" y="-7.25" font-family="Helvetica,sans-Serif" font-size="10.00">UWorld::InternalGetNetMode</text>
</a>
</g>
</g>
<!-- Node2 -->
<g id="Node000002" class="node">
<title>Node2</title>
<g id="a_Node000002"><a xlink:href="classUWorld.html#adcd89cbd9925967f7d97daaccea7f80e" target="_top" xlink:title=" ">
<polygon fill="white" stroke="#666666" points="266,-39.75 146.5,-39.75 146.5,-19 266,-19 266,-39.75"/>
<text xml:space="preserve" text-anchor="middle" x="206.25" y="-26.25" font-family="Helvetica,sans-Serif" font-size="10.00">UWorld::GetNetMode</text>
</a>
</g>
</g>
<!-- Node1&#45;&gt;Node2 -->
<g id="edge1_Node000001_Node000002" class="edge">
<title>Node1&#45;&gt;Node2</title>
<g id="a_edge1_Node000001_Node000002"><a xlink:title=" ">
<path fill="none" stroke="#63b8ff" d="M290.26,-20.22C282.17,-21.11 274.12,-22 266.39,-22.85"/>
<polygon fill="#63b8ff" stroke="#63b8ff" points="290.63,-23.7 300.19,-19.12 289.86,-16.74 290.63,-23.7"/>
</a>
</g>
</g>
<!-- Node3 -->
<g id="Node000003" class="node">
<title>Node3</title>
<g id="a_Node000003"><a xlink:href="classUWorld.html#af0f3e1ee58252c995a2649220f91e427" target="_top" xlink:title=" ">
<polygon fill="white" stroke="#666666" points="110.5,-20.75 0,-20.75 0,0 110.5,0 110.5,-20.75"/>
<text xml:space="preserve" text-anchor="middle" x="55.25" y="-7.25" font-family="Helvetica,sans-Serif" font-size="10.00">UWorld::IsNetMode</text>
</a>
</g>
</g>
<!-- Node1&#45;&gt;Node3 -->
<g id="edge3_Node000001_Node000003" class="edge">
<title>Node1&#45;&gt;Node3</title>
<g id="a_edge3_Node000001_Node000003"><a xlink:title=" ">
<path fill="none" stroke="#63b8ff" d="M290.36,-10.38C232.78,-10.38 159.71,-10.38 110.65,-10.38"/>
<polygon fill="#63b8ff" stroke="#63b8ff" points="290.15,-13.88 300.15,-10.38 290.15,-6.88 290.15,-13.88"/>
</a>
</g>
</g>
<!-- Node2&#45;&gt;Node3 -->
<g id="edge2_Node000002_Node000003" class="edge">
<title>Node2&#45;&gt;Node3</title>
<g id="a_edge2_Node000002_Node000003"><a xlink:title=" ">
<path fill="none" stroke="#63b8ff" d="M134.98,-20.41C126.87,-19.38 118.69,-18.34 110.83,-17.34"/>
<polygon fill="#63b8ff" stroke="#63b8ff" points="134.5,-23.88 144.86,-21.67 135.38,-16.94 134.5,-23.88"/>
</a>
</g>
</g>
</g>
</svg>
