<?xml version="1.0" encoding="UTF-8" standalone="no"?>
<!DOCTYPE svg PUBLIC "-//W3C//DTD SVG 1.1//EN"
 "http://www.w3.org/Graphics/SVG/1.1/DTD/svg11.dtd">
<!-- Generated by graphviz version 14.1.4 (0)
 -->
<!-- Title: TIntrusiveDoubleLinkedList::PopTail Pages: 1 -->
<svg width="524pt" height="112pt"
 viewBox="0.00 0.00 524.00 112.00" xmlns="http://www.w3.org/2000/svg" xmlns:xlink="http://www.w3.org/1999/xlink">
<g id="graph0" class="graph" transform="scale(1 1) rotate(0) translate(4 107.5)">
<title>TIntrusiveDoubleLinkedList::PopTail</title>
<!-- Node1 -->
<g id="Node000001" class="node">
<title>Node1</title>
<g id="a_Node000001"><a xlink:title=" ">
<polygon fill="#999999" stroke="#666666" points="148,-68.5 0,-68.5 0,-35 148,-35 148,-68.5"/>
<text xml:space="preserve" text-anchor="start" x="8" y="-55" font-family="Helvetica,sans-Serif" font-size="10.00">TIntrusiveDoubleLinkedList</text>
<text xml:space="preserve" text-anchor="middle" x="74" y="-42.25" font-family="Helvetica,sans-Serif" font-size="10.00">::PopTail</text>
</a>
</g>
</g>
<!-- Node2 -->
<g id="Node000002" class="node">
<title>Node2</title>
<g id="a_Node000002"><a xlink:href="$classTIntrusiveDoubleLinkedList.html#abb8e8968cfcd8f36415e95ca2e61c8a8" xlink:title=" ">
<polygon fill="white" stroke="#666666" points="332,-103.5 184,-103.5 184,-70 332,-70 332,-103.5"/>
<text xml:space="preserve" text-anchor="start" x="192" y="-90" font-family="Helvetica,sans-Serif" font-size="10.00">TIntrusiveDoubleLinkedList</text>
<text xml:space="preserve" text-anchor="middle" x="258" y="-77.25" font-family="Helvetica,sans-Serif" font-size="10.00">::IsEmpty</text>
</a>
</g>
</g>
<!-- Node1&#45;&gt;Node2 -->
<g id="edge1_Node000001_Node000002" class="edge">
<title>Node1&#45;&gt;Node2</title>
<g id="a_edge1_Node000001_Node000002"><a xlink:title=" ">
<path fill="none" stroke="#63b8ff" d="M148.24,-65.83C156.16,-67.36 164.27,-68.92 172.31,-70.46"/>
<polygon fill="#63b8ff" stroke="#63b8ff" points="171.65,-73.9 182.13,-72.35 172.97,-67.03 171.65,-73.9"/>
</a>
</g>
</g>
<!-- Node4 -->
<g id="Node000004" class="node">
<title>Node4</title>
<g id="a_Node000004"><a xlink:href="$classTIntrusiveDoubleLinkedList.html#af654066700ff639c5be42b8f1764e7cf" xlink:title=" ">
<polygon fill="white" stroke="#666666" points="332,-33.5 184,-33.5 184,0 332,0 332,-33.5"/>
<text xml:space="preserve" text-anchor="start" x="192" y="-20" font-family="Helvetica,sans-Serif" font-size="10.00">TIntrusiveDoubleLinkedList</text>
<text xml:space="preserve" text-anchor="middle" x="258" y="-7.25" font-family="Helvetica,sans-Serif" font-size="10.00">::Remove</text>
</a>
</g>
</g>
<!-- Node1&#45;&gt;Node4 -->
<g id="edge3_Node000001_Node000004" class="edge">
<title>Node1&#45;&gt;Node4</title>
<g id="a_edge3_Node000001_Node000004"><a xlink:title=" ">
<path fill="none" stroke="#63b8ff" d="M148.24,-37.67C156.16,-36.14 164.27,-34.58 172.31,-33.04"/>
<polygon fill="#63b8ff" stroke="#63b8ff" points="172.97,-36.47 182.13,-31.15 171.65,-29.6 172.97,-36.47"/>
</a>
</g>
</g>
<!-- Node3 -->
<g id="Node000003" class="node">
<title>Node3</title>
<g id="a_Node000003"><a xlink:href="$classTIntrusiveDoubleLinkedList.html#a1e9917610e83629a7d251c5a76b26a44" xlink:title=" ">
<polygon fill="white" stroke="#666666" points="516,-103.5 368,-103.5 368,-70 516,-70 516,-103.5"/>
<text xml:space="preserve" text-anchor="start" x="376" y="-90" font-family="Helvetica,sans-Serif" font-size="10.00">TIntrusiveDoubleLinkedList</text>
<text xml:space="preserve" text-anchor="middle" x="442" y="-77.25" font-family="Helvetica,sans-Serif" font-size="10.00">::GetSentinel</text>
</a>
</g>
</g>
<!-- Node2&#45;&gt;Node3 -->
<g id="edge2_Node000002_Node000003" class="edge">
<title>Node2&#45;&gt;Node3</title>
<g id="a_edge2_Node000002_Node000003"><a xlink:title=" ">
<path fill="none" stroke="#63b8ff" d="M332.24,-86.75C340.16,-86.75 348.27,-86.75 356.31,-86.75"/>
<polygon fill="#63b8ff" stroke="#63b8ff" points="356.1,-90.25 366.1,-86.75 356.1,-83.25 356.1,-90.25"/>
</a>
</g>
</g>
<!-- Node4&#45;&gt;Node4 -->
<g id="edge4_Node000004_Node000004" class="edge">
<title>Node4&#45;&gt;Node4</title>
<g id="a_edge4_Node000004_Node000004"><a xlink:title=" ">
<path fill="none" stroke="#63b8ff" d="M224.92,-33.91C219.3,-43.12 230.33,-51.5 258,-51.5 273.57,-51.5 283.86,-48.85 288.9,-44.89"/>
<polygon fill="#63b8ff" stroke="#63b8ff" points="292.26,-45.89 290.78,-35.4 285.4,-44.52 292.26,-45.89"/>
</a>
</g>
</g>
</g>
</svg>
