<?xml version="1.0" encoding="UTF-8" standalone="no"?>
<!DOCTYPE svg PUBLIC "-//W3C//DTD SVG 1.1//EN"
 "http://www.w3.org/Graphics/SVG/1.1/DTD/svg11.dtd">
<!-- Generated by graphviz version 14.1.4 (0)
 -->
<!-- Title: FTraceAuxiliary::Start Pages: 1 -->
<svg width="305pt" height="60pt"
 viewBox="0.00 0.00 305.00 60.00" xmlns="http://www.w3.org/2000/svg" xmlns:xlink="http://www.w3.org/1999/xlink">
<g id="graph0" class="graph" transform="scale(1 1) rotate(0) translate(4 55.5)">
<title>FTraceAuxiliary::Start</title>
<!-- Node1 -->
<g id="Node000001" class="node">
<title>Node1</title>
<g id="a_Node000001"><a xlink:title=" ">
<polygon fill="#999999" stroke="#666666" points="296.75,-27.12 176.5,-27.12 176.5,-6.38 296.75,-6.38 296.75,-27.12"/>
<text xml:space="preserve" text-anchor="middle" x="236.62" y="-13.62" font-family="Helvetica,sans-Serif" font-size="10.00">FTraceAuxiliary::Start</text>
</a>
</g>
</g>
<!-- Node2 -->
<g id="Node000002" class="node">
<title>Node2</title>
<g id="a_Node000002"><a xlink:href="$classFTraceAuxiliary.html#a732d78cb5a01c015be433e039b5bed40" xlink:title=" ">
<polygon fill="white" stroke="#666666" points="140.5,-33.5 0,-33.5 0,0 140.5,0 140.5,-33.5"/>
<text xml:space="preserve" text-anchor="start" x="8" y="-20" font-family="Helvetica,sans-Serif" font-size="10.00">FTraceAuxiliary::GetTrace</text>
<text xml:space="preserve" text-anchor="middle" x="70.25" y="-7.25" font-family="Helvetica,sans-Serif" font-size="10.00">SystemStatus</text>
</a>
</g>
</g>
<!-- Node1&#45;&gt;Node2 -->
<g id="edge1_Node000001_Node000002" class="edge">
<title>Node1&#45;&gt;Node2</title>
<g id="a_edge1_Node000001_Node000002"><a xlink:title=" ">
<path fill="none" stroke="#63b8ff" d="M164.79,-16.75C156.86,-16.75 148.78,-16.75 140.86,-16.75"/>
<polygon fill="#63b8ff" stroke="#63b8ff" points="164.77,-20.25 174.77,-16.75 164.77,-13.25 164.77,-20.25"/>
</a>
</g>
</g>
<!-- Node2&#45;&gt;Node2 -->
<g id="edge2_Node000002_Node000002" class="edge">
<title>Node2&#45;&gt;Node2</title>
<g id="a_edge2_Node000002_Node000002"><a xlink:title=" ">
<path fill="none" stroke="#63b8ff" d="M98.19,-44.89C93.64,-48.85 84.32,-51.5 70.25,-51.5 45.23,-51.5 35.26,-43.12 40.34,-33.91"/>
<polygon fill="#63b8ff" stroke="#63b8ff" points="101.57,-45.87 99.89,-35.4 94.68,-44.63 101.57,-45.87"/>
</a>
</g>
</g>
</g>
</svg>
