<?xml version="1.0" encoding="UTF-8" standalone="no"?>
<!DOCTYPE svg PUBLIC "-//W3C//DTD SVG 1.1//EN"
 "http://www.w3.org/Graphics/SVG/1.1/DTD/svg11.dtd">
<!-- Generated by graphviz version 14.1.4 (0)
 -->
<!-- Title: UMovementComponent::GetPlaneConstraintAxisSetting Pages: 1 -->
<svg width="387pt" height="60pt"
 viewBox="0.00 0.00 387.00 60.00" xmlns="http://www.w3.org/2000/svg" xmlns:xlink="http://www.w3.org/1999/xlink">
<g id="graph0" class="graph" transform="scale(1 1) rotate(0) translate(4 55.5)">
<title>UMovementComponent::GetPlaneConstraintAxisSetting</title>
<!-- Node1 -->
<g id="Node000001" class="node">
<title>Node1</title>
<g id="a_Node000001"><a xlink:title=" ">
<polygon fill="#999999" stroke="#666666" points="378.5,-33.5 206.5,-33.5 206.5,0 378.5,0 378.5,-33.5"/>
<text xml:space="preserve" text-anchor="start" x="214.5" y="-20" font-family="Helvetica,sans-Serif" font-size="10.00">UMovementComponent</text>
<text xml:space="preserve" text-anchor="middle" x="292.5" y="-7.25" font-family="Helvetica,sans-Serif" font-size="10.00">::GetPlaneConstraintAxisSetting</text>
</a>
</g>
</g>
<!-- Node2 -->
<g id="Node000002" class="node">
<title>Node2</title>
<g id="a_Node000002"><a xlink:href="classUMovementComponent.html#a3c11536b4e36b50a4ae431c66ee7ddc3" target="_top" xlink:title=" ">
<polygon fill="white" stroke="#666666" points="170.5,-33.5 0,-33.5 0,0 170.5,0 170.5,-33.5"/>
<text xml:space="preserve" text-anchor="start" x="8" y="-20" font-family="Helvetica,sans-Serif" font-size="10.00">UMovementComponent</text>
<text xml:space="preserve" text-anchor="middle" x="85.25" y="-7.25" font-family="Helvetica,sans-Serif" font-size="10.00">::SetPlaneConstraintAxisSetting</text>
</a>
</g>
</g>
<!-- Node1&#45;&gt;Node2 -->
<g id="edge1_Node000001_Node000002" class="edge">
<title>Node1&#45;&gt;Node2</title>
<g id="a_edge1_Node000001_Node000002"><a xlink:title=" ">
<path fill="none" stroke="#63b8ff" d="M194.95,-16.75C186.92,-16.75 178.84,-16.75 170.92,-16.75"/>
<polygon fill="#63b8ff" stroke="#63b8ff" points="194.73,-20.25 204.73,-16.75 194.73,-13.25 194.73,-20.25"/>
</a>
</g>
</g>
<!-- Node2&#45;&gt;Node2 -->
<g id="edge2_Node000002_Node000002" class="edge">
<title>Node2&#45;&gt;Node2</title>
<g id="a_edge2_Node000002_Node000002"><a xlink:title=" ">
<path fill="none" stroke="#63b8ff" d="M119.81,-45.05C114.06,-48.92 102.54,-51.5 85.25,-51.5 54.08,-51.5 41.66,-43.12 47.99,-33.91"/>
<polygon fill="#63b8ff" stroke="#63b8ff" points="123.2,-45.93 122.15,-35.39 116.4,-44.28 123.2,-45.93"/>
</a>
</g>
</g>
</g>
</svg>
