<?xml version="1.0" encoding="UTF-8" standalone="no"?>
<!DOCTYPE svg PUBLIC "-//W3C//DTD SVG 1.1//EN"
 "http://www.w3.org/Graphics/SVG/1.1/DTD/svg11.dtd">
<!-- Generated by graphviz version 14.1.4 (0)
 -->
<!-- Title: TStripedMapBase::ForEachMap Pages: 1 -->
<svg width="413pt" height="710pt"
 viewBox="0.00 0.00 413.00 710.00" xmlns="http://www.w3.org/2000/svg" xmlns:xlink="http://www.w3.org/1999/xlink">
<g id="graph0" class="graph" transform="scale(1 1) rotate(0) translate(4 705.75)">
<title>TStripedMapBase::ForEachMap</title>
<!-- Node1 -->
<g id="Node000001" class="node">
<title>Node1</title>
<g id="a_Node000001"><a xlink:title=" ">
<polygon fill="#999999" stroke="#666666" points="404.75,-361.25 238,-361.25 238,-340.5 404.75,-340.5 404.75,-361.25"/>
<text xml:space="preserve" text-anchor="middle" x="321.38" y="-347.75" font-family="Helvetica,sans-Serif" font-size="10.00">TStripedMapBase::ForEachMap</text>
</a>
</g>
</g>
<!-- Node2 -->
<g id="Node000002" class="node">
<title>Node2</title>
<g id="a_Node000002"><a xlink:href="$classTStripedMapBase.html#aab37bd8613a6f4b95808f2d52e6faf44" xlink:title=" ">
<polygon fill="white" stroke="#666666" points="200.12,-701.75 1.88,-701.75 1.88,-630 200.12,-630 200.12,-701.75"/>
<text xml:space="preserve" text-anchor="start" x="9.88" y="-688.25" font-family="Helvetica,sans-Serif" font-size="10.00">TStripedMapBase&lt; BucketCount,</text>
<text xml:space="preserve" text-anchor="start" x="9.88" y="-675.5" font-family="Helvetica,sans-Serif" font-size="10.00"> TMap&lt; KeyType, ValueType,</text>
<text xml:space="preserve" text-anchor="start" x="9.88" y="-662.75" font-family="Helvetica,sans-Serif" font-size="10.00"> SetAllocator, KeyFuncs &gt;,</text>
<text xml:space="preserve" text-anchor="start" x="9.88" y="-650" font-family="Helvetica,sans-Serif" font-size="10.00"> KeyType, ValueType, SetAllocator,</text>
<text xml:space="preserve" text-anchor="middle" x="101" y="-637.25" font-family="Helvetica,sans-Serif" font-size="10.00"> KeyFuncs, LockingPolicy &gt;::Compact</text>
</a>
</g>
</g>
<!-- Node1&#45;&gt;Node2 -->
<g id="edge1_Node000001_Node000002" class="edge">
<title>Node1&#45;&gt;Node2</title>
<g id="a_edge1_Node000001_Node000002"><a xlink:title=" ">
<path fill="none" stroke="#63b8ff" d="M316.35,-372.81C306.07,-423.06 274.38,-547.79 202,-620.88 198.92,-623.99 195.58,-626.9 192.07,-629.63"/>
<polygon fill="#63b8ff" stroke="#63b8ff" points="319.75,-373.69 318.22,-363.2 312.87,-372.35 319.75,-373.69"/>
</a>
</g>
</g>
<!-- Node3 -->
<g id="Node000003" class="node">
<title>Node3</title>
<g id="a_Node000003"><a xlink:href="$classTStripedMapBase.html#a9667d96b3231819e0b8253c074c7bcc3" xlink:title=" ">
<polygon fill="white" stroke="#666666" points="194.12,-611.75 7.88,-611.75 7.88,-540 194.12,-540 194.12,-611.75"/>
<text xml:space="preserve" text-anchor="start" x="15.88" y="-598.25" font-family="Helvetica,sans-Serif" font-size="10.00">TStripedMapBase&lt; BucketCount,</text>
<text xml:space="preserve" text-anchor="start" x="15.88" y="-585.5" font-family="Helvetica,sans-Serif" font-size="10.00"> TMap&lt; KeyType, ValueType,</text>
<text xml:space="preserve" text-anchor="start" x="15.88" y="-572.75" font-family="Helvetica,sans-Serif" font-size="10.00"> SetAllocator, KeyFuncs &gt;,</text>
<text xml:space="preserve" text-anchor="start" x="15.88" y="-560" font-family="Helvetica,sans-Serif" font-size="10.00"> KeyType, ValueType, SetAllocator,</text>
<text xml:space="preserve" text-anchor="middle" x="101" y="-547.25" font-family="Helvetica,sans-Serif" font-size="10.00"> KeyFuncs, LockingPolicy &gt;::Empty</text>
</a>
</g>
</g>
<!-- Node1&#45;&gt;Node3 -->
<g id="edge2_Node000001_Node000003" class="edge">
<title>Node1&#45;&gt;Node3</title>
<g id="a_edge2_Node000001_Node000003"><a xlink:title=" ">
<path fill="none" stroke="#63b8ff" d="M311.24,-372.23C294.51,-409.09 255.68,-485.11 202,-530.88 198.38,-533.96 194.51,-536.88 190.48,-539.62"/>
<polygon fill="#63b8ff" stroke="#63b8ff" points="314.43,-373.67 315.27,-363.1 308.03,-370.83 314.43,-373.67"/>
</a>
</g>
</g>
<!-- Node4 -->
<g id="Node000004" class="node">
<title>Node4</title>
<g id="a_Node000004"><a xlink:href="$classTStripedMapBase.html#a41359b2a791118db4bee9bee8befed11" xlink:title=" ">
<polygon fill="white" stroke="#666666" points="197.5,-521.75 4.5,-521.75 4.5,-450 197.5,-450 197.5,-521.75"/>
<text xml:space="preserve" text-anchor="start" x="12.5" y="-508.25" font-family="Helvetica,sans-Serif" font-size="10.00">TStripedMapBase&lt; BucketCount,</text>
<text xml:space="preserve" text-anchor="start" x="12.5" y="-495.5" font-family="Helvetica,sans-Serif" font-size="10.00"> TMap&lt; KeyType, ValueType,</text>
<text xml:space="preserve" text-anchor="start" x="12.5" y="-482.75" font-family="Helvetica,sans-Serif" font-size="10.00"> SetAllocator, KeyFuncs &gt;,</text>
<text xml:space="preserve" text-anchor="start" x="12.5" y="-470" font-family="Helvetica,sans-Serif" font-size="10.00"> KeyType, ValueType, SetAllocator,</text>
<text xml:space="preserve" text-anchor="middle" x="101" y="-457.25" font-family="Helvetica,sans-Serif" font-size="10.00"> KeyFuncs, LockingPolicy &gt;::ForEach</text>
</a>
</g>
</g>
<!-- Node1&#45;&gt;Node4 -->
<g id="edge3_Node000001_Node000004" class="edge">
<title>Node1&#45;&gt;Node4</title>
<g id="a_edge3_Node000001_Node000004"><a xlink:title=" ">
<path fill="none" stroke="#63b8ff" d="M299.75,-368.88C276.9,-388.25 238.47,-419.19 202,-440.88 197.01,-443.84 191.79,-446.74 186.46,-449.55"/>
<polygon fill="#63b8ff" stroke="#63b8ff" points="301.79,-371.74 307.11,-362.57 297.24,-366.42 301.79,-371.74"/>
</a>
</g>
</g>
<!-- Node5 -->
<g id="Node000005" class="node">
<title>Node5</title>
<g id="a_Node000005"><a xlink:href="$classTStripedMapBase.html#a529ac63c3c324653c2cc3c7fb236a231" xlink:title=" ">
<polygon fill="white" stroke="#666666" points="197.5,-431.75 4.5,-431.75 4.5,-360 197.5,-360 197.5,-431.75"/>
<text xml:space="preserve" text-anchor="start" x="12.5" y="-418.25" font-family="Helvetica,sans-Serif" font-size="10.00">TStripedMapBase&lt; BucketCount,</text>
<text xml:space="preserve" text-anchor="start" x="12.5" y="-405.5" font-family="Helvetica,sans-Serif" font-size="10.00"> TMap&lt; KeyType, ValueType,</text>
<text xml:space="preserve" text-anchor="start" x="12.5" y="-392.75" font-family="Helvetica,sans-Serif" font-size="10.00"> SetAllocator, KeyFuncs &gt;,</text>
<text xml:space="preserve" text-anchor="start" x="12.5" y="-380" font-family="Helvetica,sans-Serif" font-size="10.00"> KeyType, ValueType, SetAllocator,</text>
<text xml:space="preserve" text-anchor="middle" x="101" y="-367.25" font-family="Helvetica,sans-Serif" font-size="10.00"> KeyFuncs, LockingPolicy &gt;::ForEach</text>
</a>
</g>
</g>
<!-- Node1&#45;&gt;Node5 -->
<g id="edge4_Node000001_Node000005" class="edge">
<title>Node1&#45;&gt;Node5</title>
<g id="a_edge4_Node000001_Node000005"><a xlink:title=" ">
<path fill="none" stroke="#63b8ff" d="M256.6,-364.02C238.16,-367.82 217.61,-372.05 197.67,-376.16"/>
<polygon fill="#63b8ff" stroke="#63b8ff" points="257.22,-367.46 266.31,-362.02 255.81,-360.61 257.22,-367.46"/>
</a>
</g>
</g>
<!-- Node6 -->
<g id="Node000006" class="node">
<title>Node6</title>
<g id="a_Node000006"><a xlink:href="$classTStripedMapBase.html#abfcd37f9c9897e170e209cf9d585aa45" xlink:title=" ">
<polygon fill="white" stroke="#666666" points="193,-341.75 9,-341.75 9,-270 193,-270 193,-341.75"/>
<text xml:space="preserve" text-anchor="start" x="17" y="-328.25" font-family="Helvetica,sans-Serif" font-size="10.00">TStripedMapBase&lt; BucketCount,</text>
<text xml:space="preserve" text-anchor="start" x="17" y="-315.5" font-family="Helvetica,sans-Serif" font-size="10.00"> TMap&lt; KeyType, ValueType,</text>
<text xml:space="preserve" text-anchor="start" x="17" y="-302.75" font-family="Helvetica,sans-Serif" font-size="10.00"> SetAllocator, KeyFuncs &gt;,</text>
<text xml:space="preserve" text-anchor="start" x="17" y="-290" font-family="Helvetica,sans-Serif" font-size="10.00"> KeyType, ValueType, SetAllocator,</text>
<text xml:space="preserve" text-anchor="middle" x="101" y="-277.25" font-family="Helvetica,sans-Serif" font-size="10.00"> KeyFuncs, LockingPolicy &gt;::Num</text>
</a>
</g>
</g>
<!-- Node1&#45;&gt;Node6 -->
<g id="edge5_Node000001_Node000006" class="edge">
<title>Node1&#45;&gt;Node6</title>
<g id="a_edge5_Node000001_Node000006"><a xlink:title=" ">
<path fill="none" stroke="#63b8ff" d="M256.75,-337.76C236.93,-333.68 214.68,-329.09 193.36,-324.7"/>
<polygon fill="#63b8ff" stroke="#63b8ff" points="255.81,-341.14 266.31,-339.73 257.22,-334.29 255.81,-341.14"/>
</a>
</g>
</g>
<!-- Node7 -->
<g id="Node000007" class="node">
<title>Node7</title>
<g id="a_Node000007"><a xlink:href="$classTStripedMapBase.html#ab9846351cc7f35ef95c8059ad647f96e" xlink:title=" ">
<polygon fill="white" stroke="#666666" points="202,-251.75 0,-251.75 0,-180 202,-180 202,-251.75"/>
<text xml:space="preserve" text-anchor="start" x="8" y="-238.25" font-family="Helvetica,sans-Serif" font-size="10.00">TStripedMapBase&lt; BucketCount,</text>
<text xml:space="preserve" text-anchor="start" x="8" y="-225.5" font-family="Helvetica,sans-Serif" font-size="10.00"> TMap&lt; KeyType, ValueType,</text>
<text xml:space="preserve" text-anchor="start" x="8" y="-212.75" font-family="Helvetica,sans-Serif" font-size="10.00"> SetAllocator, KeyFuncs &gt;,</text>
<text xml:space="preserve" text-anchor="start" x="8" y="-200" font-family="Helvetica,sans-Serif" font-size="10.00"> KeyType, ValueType, SetAllocator,</text>
<text xml:space="preserve" text-anchor="middle" x="101" y="-187.25" font-family="Helvetica,sans-Serif" font-size="10.00"> KeyFuncs, LockingPolicy &gt;::RemoveIf</text>
</a>
</g>
</g>
<!-- Node1&#45;&gt;Node7 -->
<g id="edge6_Node000001_Node000007" class="edge">
<title>Node1&#45;&gt;Node7</title>
<g id="a_edge6_Node000001_Node000007"><a xlink:title=" ">
<path fill="none" stroke="#63b8ff" d="M299.75,-332.87C276.9,-313.5 238.47,-282.56 202,-260.88 197.01,-257.91 191.79,-255.01 186.46,-252.2"/>
<polygon fill="#63b8ff" stroke="#63b8ff" points="297.24,-335.33 307.11,-339.18 301.79,-330.01 297.24,-335.33"/>
</a>
</g>
</g>
<!-- Node8 -->
<g id="Node000008" class="node">
<title>Node8</title>
<g id="a_Node000008"><a xlink:href="$classTStripedMapBase.html#ac3ee179752d2121a6a2aa9ff45ab2383" xlink:title=" ">
<polygon fill="white" stroke="#666666" points="193,-161.75 9,-161.75 9,-90 193,-90 193,-161.75"/>
<text xml:space="preserve" text-anchor="start" x="17" y="-148.25" font-family="Helvetica,sans-Serif" font-size="10.00">TStripedMapBase&lt; BucketCount,</text>
<text xml:space="preserve" text-anchor="start" x="17" y="-135.5" font-family="Helvetica,sans-Serif" font-size="10.00"> TMap&lt; KeyType, ValueType,</text>
<text xml:space="preserve" text-anchor="start" x="17" y="-122.75" font-family="Helvetica,sans-Serif" font-size="10.00"> SetAllocator, KeyFuncs &gt;,</text>
<text xml:space="preserve" text-anchor="start" x="17" y="-110" font-family="Helvetica,sans-Serif" font-size="10.00"> KeyType, ValueType, SetAllocator,</text>
<text xml:space="preserve" text-anchor="middle" x="101" y="-97.25" font-family="Helvetica,sans-Serif" font-size="10.00"> KeyFuncs, LockingPolicy &gt;::Reset</text>
</a>
</g>
</g>
<!-- Node1&#45;&gt;Node8 -->
<g id="edge7_Node000001_Node000008" class="edge">
<title>Node1&#45;&gt;Node8</title>
<g id="a_edge7_Node000001_Node000008"><a xlink:title=" ">
<path fill="none" stroke="#63b8ff" d="M311.24,-329.52C294.51,-292.66 255.68,-216.64 202,-170.88 198.38,-167.79 194.51,-164.87 190.48,-162.13"/>
<polygon fill="#63b8ff" stroke="#63b8ff" points="308.03,-330.92 315.27,-338.65 314.43,-328.08 308.03,-330.92"/>
</a>
</g>
</g>
<!-- Node9 -->
<g id="Node000009" class="node">
<title>Node9</title>
<g id="a_Node000009"><a xlink:href="$classTStripedMapBase.html#a0f81b2aaa3de9e9e1631825cd92a8ca1" xlink:title=" ">
<polygon fill="white" stroke="#666666" points="193.75,-71.75 8.25,-71.75 8.25,0 193.75,0 193.75,-71.75"/>
<text xml:space="preserve" text-anchor="start" x="16.25" y="-58.25" font-family="Helvetica,sans-Serif" font-size="10.00">TStripedMapBase&lt; BucketCount,</text>
<text xml:space="preserve" text-anchor="start" x="16.25" y="-45.5" font-family="Helvetica,sans-Serif" font-size="10.00"> TMap&lt; KeyType, ValueType,</text>
<text xml:space="preserve" text-anchor="start" x="16.25" y="-32.75" font-family="Helvetica,sans-Serif" font-size="10.00"> SetAllocator, KeyFuncs &gt;,</text>
<text xml:space="preserve" text-anchor="start" x="16.25" y="-20" font-family="Helvetica,sans-Serif" font-size="10.00"> KeyType, ValueType, SetAllocator,</text>
<text xml:space="preserve" text-anchor="middle" x="101" y="-7.25" font-family="Helvetica,sans-Serif" font-size="10.00"> KeyFuncs, LockingPolicy &gt;::Shrink</text>
</a>
</g>
</g>
<!-- Node1&#45;&gt;Node9 -->
<g id="edge8_Node000001_Node000009" class="edge">
<title>Node1&#45;&gt;Node9</title>
<g id="a_edge8_Node000001_Node000009"><a xlink:title=" ">
<path fill="none" stroke="#63b8ff" d="M316.35,-328.94C306.07,-278.69 274.38,-153.96 202,-80.88 198.92,-77.76 195.58,-74.85 192.07,-72.12"/>
<polygon fill="#63b8ff" stroke="#63b8ff" points="312.87,-329.4 318.22,-338.55 319.75,-328.06 312.87,-329.4"/>
</a>
</g>
</g>
</g>
</svg>
