<?xml version="1.0" encoding="UTF-8" standalone="no"?>
<!DOCTYPE svg PUBLIC "-//W3C//DTD SVG 1.1//EN"
 "http://www.w3.org/Graphics/SVG/1.1/DTD/svg11.dtd">
<!-- Generated by graphviz version 14.1.4 (0)
 -->
<!-- Title: APhysicsConstraintActor Pages: 1 -->
<svg width="184pt" height="327pt"
 viewBox="0.00 0.00 184.00 327.00" xmlns="http://www.w3.org/2000/svg" xmlns:xlink="http://www.w3.org/1999/xlink">
<g id="graph0" class="graph" transform="scale(1 1) rotate(0) translate(4 322.5)">
<title>APhysicsConstraintActor</title>
<!-- Node1 -->
<g id="Node000001" class="node">
<title>Node1</title>
<g id="a_Node000001"><a xlink:title=" ">
<polygon fill="#999999" stroke="none" points="175.5,-138 0,-138 0,0 175.5,0 175.5,-138"/>
<text xml:space="preserve" text-anchor="start" x="28.12" y="-124.25" font-family="Helvetica,sans-Serif" font-size="10.00">APhysicsConstraintActor</text>
<text xml:space="preserve" text-anchor="start" x="4" y="-107.5" font-family="Helvetica,sans-Serif" font-size="10.00">+</text>
<text xml:space="preserve" text-anchor="start" x="16.25" y="-107.5" font-family="Helvetica,sans-Serif" font-size="10.00">ConstraintActor1_DEPRECATED</text>
<text xml:space="preserve" text-anchor="start" x="4" y="-90.75" font-family="Helvetica,sans-Serif" font-size="10.00">+</text>
<text xml:space="preserve" text-anchor="start" x="16.25" y="-90.75" font-family="Helvetica,sans-Serif" font-size="10.00">ConstraintActor2_DEPRECATED</text>
<text xml:space="preserve" text-anchor="start" x="4" y="-74" font-family="Helvetica,sans-Serif" font-size="10.00">+</text>
<text xml:space="preserve" text-anchor="start" x="16.25" y="-74" font-family="Helvetica,sans-Serif" font-size="10.00">bDisableCollision_DEPRECATED</text>
<text xml:space="preserve" text-anchor="start" x="6.25" y="-57.25" font-family="Helvetica,sans-Serif" font-size="10.00">&#45;</text>
<text xml:space="preserve" text-anchor="start" x="16.25" y="-57.25" font-family="Helvetica,sans-Serif" font-size="10.00">ConstraintComp</text>
<text xml:space="preserve" text-anchor="start" x="4" y="-40.5" font-family="Helvetica,sans-Serif" font-size="10.00">+</text>
<text xml:space="preserve" text-anchor="start" x="16.25" y="-40.5" font-family="Helvetica,sans-Serif" font-size="10.00">PostLoad()</text>
<text xml:space="preserve" text-anchor="start" x="4" y="-23.75" font-family="Helvetica,sans-Serif" font-size="10.00">+</text>
<text xml:space="preserve" text-anchor="start" x="16.25" y="-23.75" font-family="Helvetica,sans-Serif" font-size="10.00">LoadedFromAnotherClass()</text>
<text xml:space="preserve" text-anchor="start" x="4" y="-7" font-family="Helvetica,sans-Serif" font-size="10.00">+</text>
<text xml:space="preserve" text-anchor="start" x="16.25" y="-7" font-family="Helvetica,sans-Serif" font-size="10.00">GetConstraintComp()</text>
<polygon fill="#666666" stroke="#666666" points="0,-119.25 0,-119.25 175.5,-119.25 175.5,-119.25 0,-119.25"/>
<polygon fill="#666666" stroke="#666666" points="0,-52.25 0,-52.25 14.25,-52.25 14.25,-52.25 0,-52.25"/>
<polygon fill="#666666" stroke="#666666" points="14.25,-52.25 14.25,-52.25 175.5,-52.25 175.5,-52.25 14.25,-52.25"/>
<polygon fill="none" stroke="#666666" points="0,0 0,-138 175.5,-138 175.5,0 0,0"/>
</a>
</g>
</g>
<!-- Node2 -->
<g id="Node000002" class="node">
<title>Node2</title>
<g id="a_Node000002"><a xlink:href="classARigidBodyBase.html" target="_top" xlink:title=" ">
<polygon fill="white" stroke="none" points="131.88,-228.25 43.62,-228.25 43.62,-174 131.88,-174 131.88,-228.25"/>
<text xml:space="preserve" text-anchor="start" x="47.62" y="-214.5" font-family="Helvetica,sans-Serif" font-size="10.00">ARigidBodyBase</text>
<text xml:space="preserve" text-anchor="start" x="84.75" y="-197.75" font-family="Helvetica,sans-Serif" font-size="10.00"> </text>
<text xml:space="preserve" text-anchor="start" x="84.75" y="-181" font-family="Helvetica,sans-Serif" font-size="10.00"> </text>
<polygon fill="#666666" stroke="#666666" points="43.62,-209.5 43.62,-209.5 131.88,-209.5 131.88,-209.5 43.62,-209.5"/>
<polygon fill="#666666" stroke="#666666" points="43.62,-192.75 43.62,-192.75 131.88,-192.75 131.88,-192.75 43.62,-192.75"/>
<polygon fill="none" stroke="#666666" points="43.62,-174 43.62,-228.25 131.88,-228.25 131.88,-174 43.62,-174"/>
</a>
</g>
</g>
<!-- Node2&#45;&gt;Node1 -->
<g id="edge1_Node000001_Node000002" class="edge">
<title>Node2&#45;&gt;Node1</title>
<g id="a_edge1_Node000001_Node000002"><a xlink:title=" ">
<path fill="none" stroke="#63b8ff" d="M87.75,-162.75C87.75,-154.88 87.75,-146.35 87.75,-137.75"/>
<polygon fill="none" stroke="#63b8ff" points="84.25,-162.59 87.75,-172.59 91.25,-162.59 84.25,-162.59"/>
</a>
</g>
</g>
<!-- Node3 -->
<g id="Node000003" class="node">
<title>Node3</title>
<g id="a_Node000003"><a xlink:title=" ">
<polygon fill="white" stroke="none" points="107.88,-318.5 67.62,-318.5 67.62,-264.25 107.88,-264.25 107.88,-318.5"/>
<text xml:space="preserve" text-anchor="start" x="71.62" y="-304.75" font-family="Helvetica,sans-Serif" font-size="10.00">AActor</text>
<text xml:space="preserve" text-anchor="start" x="84.75" y="-288" font-family="Helvetica,sans-Serif" font-size="10.00"> </text>
<text xml:space="preserve" text-anchor="start" x="84.75" y="-271.25" font-family="Helvetica,sans-Serif" font-size="10.00"> </text>
<polygon fill="#666666" stroke="#666666" points="67.62,-299.75 67.62,-299.75 107.88,-299.75 107.88,-299.75 67.62,-299.75"/>
<polygon fill="#666666" stroke="#666666" points="67.62,-283 67.62,-283 107.88,-283 107.88,-283 67.62,-283"/>
<polygon fill="none" stroke="#666666" points="67.62,-264.25 67.62,-318.5 107.88,-318.5 107.88,-264.25 67.62,-264.25"/>
</a>
</g>
</g>
<!-- Node3&#45;&gt;Node2 -->
<g id="edge2_Node000002_Node000003" class="edge">
<title>Node3&#45;&gt;Node2</title>
<g id="a_edge2_Node000002_Node000003"><a xlink:title=" ">
<path fill="none" stroke="#63b8ff" d="M87.75,-252.96C87.75,-244.64 87.75,-235.99 87.75,-228.24"/>
<polygon fill="none" stroke="#63b8ff" points="84.25,-252.86 87.75,-262.86 91.25,-252.86 84.25,-252.86"/>
</a>
</g>
</g>
</g>
</svg>
