<?xml version="1.0" encoding="UTF-8" standalone="no"?>
<!DOCTYPE svg PUBLIC "-//W3C//DTD SVG 1.1//EN"
 "http://www.w3.org/Graphics/SVG/1.1/DTD/svg11.dtd">
<!-- Generated by graphviz version 14.1.4 (0)
 -->
<!-- Title: FGPUDriverHelper::GetBestConfigEntry Pages: 1 -->
<svg width="376pt" height="94pt"
 viewBox="0.00 0.00 376.00 94.00" xmlns="http://www.w3.org/2000/svg" xmlns:xlink="http://www.w3.org/1999/xlink">
<g id="graph0" class="graph" transform="scale(1 1) rotate(0) translate(4 89.5)">
<title>FGPUDriverHelper::GetBestConfigEntry</title>
<!-- Node1 -->
<g id="Node000001" class="node">
<title>Node1</title>
<g id="a_Node000001"><a xlink:title=" ">
<polygon fill="#999999" stroke="#666666" points="368,-59.5 217.75,-59.5 217.75,-26 368,-26 368,-59.5"/>
<text xml:space="preserve" text-anchor="start" x="225.75" y="-46" font-family="Helvetica,sans-Serif" font-size="10.00">FGPUDriverHelper::GetBest</text>
<text xml:space="preserve" text-anchor="middle" x="292.88" y="-33.25" font-family="Helvetica,sans-Serif" font-size="10.00">ConfigEntry</text>
</a>
</g>
</g>
<!-- Node2 -->
<g id="Node000002" class="node">
<title>Node2</title>
<g id="a_Node000002"><a xlink:href="$classFGPUDriverHelper.html#a287e54cf7aa77beec50db090e4e574db" xlink:title=" ">
<polygon fill="white" stroke="#666666" points="171.25,-85.5 10.5,-85.5 10.5,-52 171.25,-52 171.25,-85.5"/>
<text xml:space="preserve" text-anchor="start" x="18.5" y="-72" font-family="Helvetica,sans-Serif" font-size="10.00">FGPUDriverHelper::FindDriver</text>
<text xml:space="preserve" text-anchor="middle" x="90.88" y="-59.25" font-family="Helvetica,sans-Serif" font-size="10.00">DenyListEntry</text>
</a>
</g>
</g>
<!-- Node1&#45;&gt;Node2 -->
<g id="edge1_Node000001_Node000002" class="edge">
<title>Node1&#45;&gt;Node2</title>
<g id="a_edge1_Node000001_Node000002"><a xlink:title=" ">
<path fill="none" stroke="#63b8ff" d="M206.03,-53.91C194.54,-55.4 182.81,-56.93 171.44,-58.41"/>
<polygon fill="#63b8ff" stroke="#63b8ff" points="206.44,-57.39 215.9,-52.63 205.53,-50.45 206.44,-57.39"/>
</a>
</g>
</g>
<!-- Node3 -->
<g id="Node000003" class="node">
<title>Node3</title>
<g id="a_Node000003"><a xlink:href="$classFGPUDriverHelper.html#af7ec8785a25691c4e23bfa2aa1a95b6b" xlink:title=" ">
<polygon fill="white" stroke="#666666" points="181.75,-33.5 0,-33.5 0,0 181.75,0 181.75,-33.5"/>
<text xml:space="preserve" text-anchor="start" x="8" y="-20" font-family="Helvetica,sans-Serif" font-size="10.00">FGPUDriverHelper::FindSuggested</text>
<text xml:space="preserve" text-anchor="middle" x="90.88" y="-7.25" font-family="Helvetica,sans-Serif" font-size="10.00">DriverVersion</text>
</a>
</g>
</g>
<!-- Node1&#45;&gt;Node3 -->
<g id="edge2_Node000001_Node000003" class="edge">
<title>Node1&#45;&gt;Node3</title>
<g id="a_edge2_Node000001_Node000003"><a xlink:title=" ">
<path fill="none" stroke="#63b8ff" d="M206.18,-31.61C198.16,-30.57 190.02,-29.51 181.97,-28.46"/>
<polygon fill="#63b8ff" stroke="#63b8ff" points="205.53,-35.05 215.9,-32.87 206.44,-28.11 205.53,-35.05"/>
</a>
</g>
</g>
</g>
</svg>
