<?xml version="1.0" encoding="UTF-8" standalone="no"?>
<!DOCTYPE svg PUBLIC "-//W3C//DTD SVG 1.1//EN"
 "http://www.w3.org/Graphics/SVG/1.1/DTD/svg11.dtd">
<!-- Generated by graphviz version 14.1.4 (0)
 -->
<!-- Title: TRingBuffer::Trim Pages: 1 -->
<svg width="847pt" height="271pt"
 viewBox="0.00 0.00 847.00 271.00" xmlns="http://www.w3.org/2000/svg" xmlns:xlink="http://www.w3.org/1999/xlink">
<g id="graph0" class="graph" transform="scale(1 1) rotate(0) translate(4 267.12)">
<title>TRingBuffer::Trim</title>
<!-- Node1 -->
<g id="Node000001" class="node">
<title>Node1</title>
<g id="a_Node000001"><a xlink:title=" ">
<polygon fill="#999999" stroke="#666666" points="101.5,-224.12 0,-224.12 0,-203.38 101.5,-203.38 101.5,-224.12"/>
<text xml:space="preserve" text-anchor="middle" x="50.75" y="-210.62" font-family="Helvetica,sans-Serif" font-size="10.00">TRingBuffer::Trim</text>
</a>
</g>
</g>
<!-- Node2 -->
<g id="Node000002" class="node">
<title>Node2</title>
<g id="a_Node000002"><a xlink:href="$classTRingBuffer.html#a58f96dab51dcdf981703af3cfc9da2fc" xlink:title=" ">
<polygon fill="white" stroke="#666666" points="477.75,-263.12 305,-263.12 305,-242.38 477.75,-242.38 477.75,-263.12"/>
<text xml:space="preserve" text-anchor="middle" x="391.38" y="-249.62" font-family="Helvetica,sans-Serif" font-size="10.00">TRingBuffer::NormalizeCapacity</text>
</a>
</g>
</g>
<!-- Node1&#45;&gt;Node2 -->
<g id="edge1_Node000001_Node000002" class="edge">
<title>Node1&#45;&gt;Node2</title>
<g id="a_edge1_Node000001_Node000002"><a xlink:title=" ">
<path fill="none" stroke="#63b8ff" d="M101.55,-222.43C113.32,-224.33 125.83,-226.22 137.5,-227.75 188.82,-234.47 246.22,-240.28 293.34,-244.61"/>
<polygon fill="#63b8ff" stroke="#63b8ff" points="292.99,-248.09 303.27,-245.51 293.62,-241.12 292.99,-248.09"/>
</a>
</g>
</g>
<!-- Node3 -->
<g id="Node000003" class="node">
<title>Node3</title>
<g id="a_Node000003"><a xlink:href="$classTRingBuffer.html#a5c37b30f4de47dfe15a368ba4c353568" xlink:title=" ">
<polygon fill="white" stroke="#666666" points="442.88,-224.12 339.88,-224.12 339.88,-203.38 442.88,-203.38 442.88,-224.12"/>
<text xml:space="preserve" text-anchor="middle" x="391.38" y="-210.62" font-family="Helvetica,sans-Serif" font-size="10.00">TRingBuffer::Num</text>
</a>
</g>
</g>
<!-- Node1&#45;&gt;Node3 -->
<g id="edge2_Node000001_Node000003" class="edge">
<title>Node1&#45;&gt;Node3</title>
<g id="a_edge2_Node000001_Node000003"><a xlink:title=" ">
<path fill="none" stroke="#63b8ff" d="M101.72,-213.75C161.94,-213.75 263.15,-213.75 328.32,-213.75"/>
<polygon fill="#63b8ff" stroke="#63b8ff" points="328.14,-217.25 338.14,-213.75 328.14,-210.25 328.14,-217.25"/>
</a>
</g>
</g>
<!-- Node4 -->
<g id="Node000004" class="node">
<title>Node4</title>
<g id="a_Node000004"><a xlink:href="$classTRingBuffer.html#a40faf3a6ccf66edf23df3483f309d523" xlink:title=" ">
<polygon fill="white" stroke="#666666" points="269,-167.12 137.5,-167.12 137.5,-146.38 269,-146.38 269,-167.12"/>
<text xml:space="preserve" text-anchor="middle" x="203.25" y="-153.62" font-family="Helvetica,sans-Serif" font-size="10.00">TRingBuffer::Reallocate</text>
</a>
</g>
</g>
<!-- Node1&#45;&gt;Node4 -->
<g id="edge3_Node000001_Node000004" class="edge">
<title>Node1&#45;&gt;Node4</title>
<g id="a_edge3_Node000001_Node000004"><a xlink:title=" ">
<path fill="none" stroke="#63b8ff" d="M80.41,-202.89C103.84,-194.02 137.21,-181.38 163.11,-171.58"/>
<polygon fill="#63b8ff" stroke="#63b8ff" points="164.17,-174.92 172.28,-168.1 161.69,-168.37 164.17,-174.92"/>
</a>
</g>
</g>
<!-- Node4&#45;&gt;Node2 -->
<g id="edge15_Node000004_Node000002" class="edge">
<title>Node4&#45;&gt;Node2</title>
<g id="a_edge15_Node000004_Node000002"><a xlink:title=" ">
<path fill="none" stroke="#63b8ff" d="M215.3,-167.62C232.81,-184.21 268.69,-215.74 305,-232.75 309.54,-234.88 314.33,-236.79 319.22,-238.51"/>
<polygon fill="#63b8ff" stroke="#63b8ff" points="318.02,-241.8 328.61,-241.5 320.15,-235.13 318.02,-241.8"/>
</a>
</g>
</g>
<!-- Node4&#45;&gt;Node3 -->
<g id="edge16_Node000004_Node000003" class="edge">
<title>Node4&#45;&gt;Node3</title>
<g id="a_edge16_Node000004_Node000003"><a xlink:title=" ">
<path fill="none" stroke="#63b8ff" d="M235.9,-167.5C255.7,-174.13 281.76,-182.68 305,-189.75 316.27,-193.18 328.44,-196.7 339.95,-199.96"/>
<polygon fill="#63b8ff" stroke="#63b8ff" points="338.71,-203.25 349.29,-202.58 340.6,-196.51 338.71,-203.25"/>
</a>
</g>
</g>
<!-- Node5 -->
<g id="Node000005" class="node">
<title>Node5</title>
<g id="a_Node000005"><a xlink:href="$classTRingBuffer.html#a207f4683db0ff774ffe850e793bac7b7" xlink:title=" ">
<polygon fill="white" stroke="#666666" points="469.12,-33.5 313.62,-33.5 313.62,0 469.12,0 469.12,-33.5"/>
<text xml:space="preserve" text-anchor="start" x="321.62" y="-20" font-family="Helvetica,sans-Serif" font-size="10.00">TRingBuffer::AllocatorResize</text>
<text xml:space="preserve" text-anchor="middle" x="391.38" y="-7.25" font-family="Helvetica,sans-Serif" font-size="10.00">Allocation</text>
</a>
</g>
</g>
<!-- Node4&#45;&gt;Node5 -->
<g id="edge4_Node000004_Node000005" class="edge">
<title>Node4&#45;&gt;Node5</title>
<g id="a_edge4_Node000004_Node000005"><a xlink:title=" ">
<path fill="none" stroke="#63b8ff" d="M210.65,-146.2C224.8,-123.76 261.01,-71.03 305,-42.75 307.12,-41.39 309.31,-40.1 311.56,-38.87"/>
<polygon fill="#63b8ff" stroke="#63b8ff" points="312.93,-42.09 320.38,-34.55 309.86,-35.8 312.93,-42.09"/>
</a>
</g>
</g>
<!-- Node6 -->
<g id="Node000006" class="node">
<title>Node6</title>
<g id="a_Node000006"><a xlink:href="$classTRingBuffer.html#a7859abfc28865cfa7f653b915bb17885" xlink:title=" ">
<polygon fill="white" stroke="#666666" points="467.25,-148.12 315.5,-148.12 315.5,-127.38 467.25,-127.38 467.25,-148.12"/>
<text xml:space="preserve" text-anchor="middle" x="391.38" y="-134.62" font-family="Helvetica,sans-Serif" font-size="10.00">TRingBuffer::DestructRange</text>
</a>
</g>
</g>
<!-- Node4&#45;&gt;Node6 -->
<g id="edge5_Node000004_Node000006" class="edge">
<title>Node4&#45;&gt;Node6</title>
<g id="a_edge5_Node000004_Node000006"><a xlink:title=" ">
<path fill="none" stroke="#63b8ff" d="M269.35,-150.1C280.55,-148.96 292.35,-147.76 304,-146.57"/>
<polygon fill="#63b8ff" stroke="#63b8ff" points="304.01,-150.08 313.61,-145.59 303.3,-143.12 304.01,-150.08"/>
</a>
</g>
</g>
<!-- Node8 -->
<g id="Node000008" class="node">
<title>Node8</title>
<g id="a_Node000008"><a xlink:href="$classTRingBuffer.html#ad7c20110073fd9f022ec9d9b668dd565" xlink:title=" ">
<polygon fill="white" stroke="#666666" points="656.88,-215.12 522.38,-215.12 522.38,-194.38 656.88,-194.38 656.88,-215.12"/>
<text xml:space="preserve" text-anchor="middle" x="589.62" y="-201.62" font-family="Helvetica,sans-Serif" font-size="10.00">TRingBuffer::GetStorage</text>
</a>
</g>
</g>
<!-- Node4&#45;&gt;Node8 -->
<g id="edge12_Node000004_Node000008" class="edge">
<title>Node4&#45;&gt;Node8</title>
<g id="a_edge12_Node000004_Node000008"><a xlink:title=" ">
<path fill="none" stroke="#63b8ff" d="M269.45,-164.89C336.24,-173.23 440.06,-186.2 511.03,-195.06"/>
<polygon fill="#63b8ff" stroke="#63b8ff" points="510.27,-198.49 520.63,-196.26 511.14,-191.55 510.27,-198.49"/>
</a>
</g>
</g>
<!-- Node10 -->
<g id="Node000010" class="node">
<title>Node10</title>
<g id="a_Node000010"><a xlink:href="$classTRingBuffer.html#a841b0cf4b4a9b0ba7a1340fa47e50bb1" xlink:title=" ">
<polygon fill="white" stroke="#666666" points="640,-86.12 539.25,-86.12 539.25,-65.38 640,-65.38 640,-86.12"/>
<text xml:space="preserve" text-anchor="middle" x="589.62" y="-72.62" font-family="Helvetica,sans-Serif" font-size="10.00">TRingBuffer::Max</text>
</a>
</g>
</g>
<!-- Node4&#45;&gt;Node10 -->
<g id="edge13_Node000004_Node000010" class="edge">
<title>Node4&#45;&gt;Node10</title>
<g id="a_edge13_Node000004_Node000010"><a xlink:title=" ">
<path fill="none" stroke="#63b8ff" d="M228.62,-145.9C248.74,-137.35 278.23,-125.74 305,-118.75 380.44,-99.04 469.69,-87.35 527.64,-81.25"/>
<polygon fill="#63b8ff" stroke="#63b8ff" points="527.7,-84.76 537.29,-80.26 526.99,-77.8 527.7,-84.76"/>
</a>
</g>
</g>
<!-- Node12 -->
<g id="Node000012" class="node">
<title>Node12</title>
<g id="a_Node000012"><a xlink:href="$UnrealTemplate_8h.html#a6affb55ac4c80f005e72b931da3d3a55" xlink:title=" ">
<polygon fill="white" stroke="#666666" points="426,-72.12 356.75,-72.12 356.75,-51.38 426,-51.38 426,-72.12"/>
<text xml:space="preserve" text-anchor="middle" x="391.38" y="-58.62" font-family="Helvetica,sans-Serif" font-size="10.00">MoveTemp</text>
</a>
</g>
</g>
<!-- Node4&#45;&gt;Node12 -->
<g id="edge14_Node000004_Node000012" class="edge">
<title>Node4&#45;&gt;Node12</title>
<g id="a_edge14_Node000004_Node000012"><a xlink:title=" ">
<path fill="none" stroke="#63b8ff" d="M216.42,-146.07C234.54,-130.67 270.22,-102.29 305,-85.75 317.71,-79.71 332.23,-74.92 345.64,-71.26"/>
<polygon fill="#63b8ff" stroke="#63b8ff" points="346.3,-74.7 355.12,-68.83 344.56,-67.92 346.3,-74.7"/>
</a>
</g>
</g>
<!-- Node7 -->
<g id="Node000007" class="node">
<title>Node7</title>
<g id="a_Node000007"><a xlink:href="$MemoryOps_8h.html#a64fb83a2ca369ceca2ff056d415ec2ed" xlink:title=" ">
<polygon fill="white" stroke="#666666" points="632.12,-125.12 547.12,-125.12 547.12,-104.38 632.12,-104.38 632.12,-125.12"/>
<text xml:space="preserve" text-anchor="middle" x="589.62" y="-111.62" font-family="Helvetica,sans-Serif" font-size="10.00">DestructItems</text>
</a>
</g>
</g>
<!-- Node6&#45;&gt;Node7 -->
<g id="edge6_Node000006_Node000007" class="edge">
<title>Node6&#45;&gt;Node7</title>
<g id="a_edge6_Node000006_Node000007"><a xlink:title=" ">
<path fill="none" stroke="#63b8ff" d="M467.69,-128.92C490.31,-126.27 514.64,-123.42 535.5,-120.98"/>
<polygon fill="#63b8ff" stroke="#63b8ff" points="535.68,-124.48 545.2,-119.84 534.86,-117.53 535.68,-124.48"/>
</a>
</g>
</g>
<!-- Node6&#45;&gt;Node8 -->
<g id="edge7_Node000006_Node000008" class="edge">
<title>Node6&#45;&gt;Node8</title>
<g id="a_edge7_Node000006_Node000008"><a xlink:title=" ">
<path fill="none" stroke="#63b8ff" d="M440.74,-148.5C453.08,-152.01 466.14,-156.41 477.75,-161.75 495.22,-169.78 496.18,-177.94 513.75,-185.75 517.53,-187.43 521.48,-188.98 525.51,-190.41"/>
<polygon fill="#63b8ff" stroke="#63b8ff" points="524.26,-193.68 534.85,-193.44 526.42,-187.02 524.26,-193.68"/>
</a>
</g>
</g>
<!-- Node6&#45;&gt;Node10 -->
<g id="edge10_Node000006_Node000010" class="edge">
<title>Node6&#45;&gt;Node10</title>
<g id="a_edge10_Node000006_Node000010"><a xlink:title=" ">
<path fill="none" stroke="#63b8ff" d="M436.77,-126.99C450.12,-123.29 464.68,-118.8 477.75,-113.75 494.44,-107.3 497.02,-102.09 513.75,-95.75 519.41,-93.6 525.4,-91.59 531.42,-89.74"/>
<polygon fill="#63b8ff" stroke="#63b8ff" points="532.16,-93.17 540.77,-87 530.19,-86.45 532.16,-93.17"/>
</a>
</g>
</g>
<!-- Node11 -->
<g id="Node000011" class="node">
<title>Node11</title>
<g id="a_Node000011"><a xlink:href="$classTRingBuffer.html#a4ddd780cb625faa57f3eafa584b58e6e" xlink:title=" ">
<polygon fill="white" stroke="#666666" points="665.5,-176.5 513.75,-176.5 513.75,-143 665.5,-143 665.5,-176.5"/>
<text xml:space="preserve" text-anchor="start" x="521.75" y="-163" font-family="Helvetica,sans-Serif" font-size="10.00">TRingBuffer::NeedsDestruct</text>
<text xml:space="preserve" text-anchor="middle" x="589.62" y="-150.25" font-family="Helvetica,sans-Serif" font-size="10.00">Elements</text>
</a>
</g>
</g>
<!-- Node6&#45;&gt;Node11 -->
<g id="edge11_Node000006_Node000011" class="edge">
<title>Node6&#45;&gt;Node11</title>
<g id="a_edge11_Node000006_Node000011"><a xlink:title=" ">
<path fill="none" stroke="#63b8ff" d="M467.69,-146.19C478.96,-147.46 490.65,-148.77 502.13,-150.05"/>
<polygon fill="#63b8ff" stroke="#63b8ff" points="501.68,-153.53 512.01,-151.16 502.46,-146.57 501.68,-153.53"/>
</a>
</g>
</g>
<!-- Node8&#45;&gt;Node8 -->
<g id="edge8_Node000008_Node000008" class="edge">
<title>Node8&#45;&gt;Node8</title>
<g id="a_edge8_Node000008_Node000008"><a xlink:title=" ">
<path fill="none" stroke="#63b8ff" d="M560.52,-215.52C548.88,-224.18 558.58,-233.12 589.62,-233.12 606.6,-233.12 617.2,-230.45 621.41,-226.61"/>
<polygon fill="#63b8ff" stroke="#63b8ff" points="624.84,-225.89 619.09,-216.99 618.03,-227.54 624.84,-225.89"/>
</a>
</g>
</g>
<!-- Node9 -->
<g id="Node000009" class="node">
<title>Node9</title>
<g id="a_Node000009"><a xlink:href="$classTRingBuffer.html#a8c285901c0c99ff13fe22f8035b51cb0" xlink:title=" ">
<polygon fill="white" stroke="#666666" points="839,-215.12 701.5,-215.12 701.5,-194.38 839,-194.38 839,-215.12"/>
<text xml:space="preserve" text-anchor="middle" x="770.25" y="-201.62" font-family="Helvetica,sans-Serif" font-size="10.00">TRingBuffer::TRingBuffer</text>
</a>
</g>
</g>
<!-- Node8&#45;&gt;Node9 -->
<g id="edge9_Node000008_Node000009" class="edge">
<title>Node8&#45;&gt;Node9</title>
<g id="a_edge9_Node000008_Node000009"><a xlink:title=" ">
<path fill="none" stroke="#63b8ff" d="M657.14,-204.75C667.81,-204.75 678.95,-204.75 689.89,-204.75"/>
<polygon fill="#63b8ff" stroke="#63b8ff" points="689.68,-208.25 699.68,-204.75 689.68,-201.25 689.68,-208.25"/>
</a>
</g>
</g>
</g>
</svg>
