<?xml version="1.0" encoding="UTF-8" standalone="no"?>
<!DOCTYPE svg PUBLIC "-//W3C//DTD SVG 1.1//EN"
 "http://www.w3.org/Graphics/SVG/1.1/DTD/svg11.dtd">
<!-- Generated by graphviz version 14.1.4 (0)
 -->
<!-- Title: FAutoConsoleCommand Pages: 1 -->
<svg width="173pt" height="669pt"
 viewBox="0.00 0.00 173.00 669.00" xmlns="http://www.w3.org/2000/svg" xmlns:xlink="http://www.w3.org/1999/xlink">
<g id="graph0" class="graph" transform="scale(1 1) rotate(0) translate(4 665.25)">
<title>FAutoConsoleCommand</title>
<!-- Node1 -->
<g id="Node000001" class="node">
<title>Node1</title>
<g id="a_Node000001"><a xlink:title=" ">
<polygon fill="#999999" stroke="none" points="154.88,-138 10.12,-138 10.12,0 154.88,0 154.88,-138"/>
<text xml:space="preserve" text-anchor="start" x="24" y="-124.25" font-family="Helvetica,sans-Serif" font-size="10.00">FAutoConsoleCommand</text>
<text xml:space="preserve" text-anchor="start" x="79.5" y="-107.5" font-family="Helvetica,sans-Serif" font-size="10.00"> </text>
<text xml:space="preserve" text-anchor="start" x="14.12" y="-90.75" font-family="Helvetica,sans-Serif" font-size="10.00">+</text>
<text xml:space="preserve" text-anchor="start" x="26.38" y="-90.75" font-family="Helvetica,sans-Serif" font-size="10.00">FAutoConsoleCommand()</text>
<text xml:space="preserve" text-anchor="start" x="14.12" y="-74" font-family="Helvetica,sans-Serif" font-size="10.00">+</text>
<text xml:space="preserve" text-anchor="start" x="26.38" y="-74" font-family="Helvetica,sans-Serif" font-size="10.00">FAutoConsoleCommand()</text>
<text xml:space="preserve" text-anchor="start" x="14.12" y="-57.25" font-family="Helvetica,sans-Serif" font-size="10.00">+</text>
<text xml:space="preserve" text-anchor="start" x="26.38" y="-57.25" font-family="Helvetica,sans-Serif" font-size="10.00">FAutoConsoleCommand()</text>
<text xml:space="preserve" text-anchor="start" x="14.12" y="-40.5" font-family="Helvetica,sans-Serif" font-size="10.00">+</text>
<text xml:space="preserve" text-anchor="start" x="26.38" y="-40.5" font-family="Helvetica,sans-Serif" font-size="10.00">FAutoConsoleCommand()</text>
<text xml:space="preserve" text-anchor="start" x="14.12" y="-23.75" font-family="Helvetica,sans-Serif" font-size="10.00">+</text>
<text xml:space="preserve" text-anchor="start" x="26.38" y="-23.75" font-family="Helvetica,sans-Serif" font-size="10.00">FAutoConsoleCommand()</text>
<text xml:space="preserve" text-anchor="start" x="14.12" y="-7" font-family="Helvetica,sans-Serif" font-size="10.00">+</text>
<text xml:space="preserve" text-anchor="start" x="26.38" y="-7" font-family="Helvetica,sans-Serif" font-size="10.00">FAutoConsoleCommand()</text>
<polygon fill="#666666" stroke="#666666" points="10.12,-119.25 10.12,-119.25 154.88,-119.25 154.88,-119.25 10.12,-119.25"/>
<polygon fill="#666666" stroke="#666666" points="10.12,-102.5 10.12,-102.5 154.88,-102.5 154.88,-102.5 10.12,-102.5"/>
<polygon fill="none" stroke="#666666" points="10.12,0 10.12,-138 154.88,-138 154.88,0 10.12,0"/>
</a>
</g>
</g>
<!-- Node2 -->
<g id="Node000002" class="node">
<title>Node2</title>
<g id="a_Node000002"><a xlink:href="$classFAutoConsoleObject.html" xlink:title=" ">
<polygon fill="white" stroke="none" points="165,-368 0,-368 0,-175 165,-175 165,-368"/>
<text xml:space="preserve" text-anchor="start" x="33.38" y="-354.25" font-family="Helvetica,sans-Serif" font-size="10.00">FAutoConsoleObject</text>
<text xml:space="preserve" text-anchor="start" x="79.5" y="-337.5" font-family="Helvetica,sans-Serif" font-size="10.00"> </text>
<text xml:space="preserve" text-anchor="start" x="4" y="-320.75" font-family="Helvetica,sans-Serif" font-size="10.00">+</text>
<text xml:space="preserve" text-anchor="start" x="16.25" y="-320.75" font-family="Helvetica,sans-Serif" font-size="10.00">~FAutoConsoleObject()</text>
<text xml:space="preserve" text-anchor="start" x="4" y="-304" font-family="Helvetica,sans-Serif" font-size="10.00">+</text>
<text xml:space="preserve" text-anchor="start" x="16.25" y="-304" font-family="Helvetica,sans-Serif" font-size="10.00">AsVariable()</text>
<text xml:space="preserve" text-anchor="start" x="4" y="-287.25" font-family="Helvetica,sans-Serif" font-size="10.00">+</text>
<text xml:space="preserve" text-anchor="start" x="16.25" y="-287.25" font-family="Helvetica,sans-Serif" font-size="10.00">AsVariable()</text>
<text xml:space="preserve" text-anchor="start" x="4" y="-270.5" font-family="Helvetica,sans-Serif" font-size="10.00">+</text>
<text xml:space="preserve" text-anchor="start" x="16.25" y="-270.5" font-family="Helvetica,sans-Serif" font-size="10.00">AccessGeneralShaderChange</text>
<text xml:space="preserve" text-anchor="start" x="16.25" y="-257.75" font-family="Helvetica,sans-Serif" font-size="10.00">Cvars()</text>
<text xml:space="preserve" text-anchor="start" x="4" y="-241" font-family="Helvetica,sans-Serif" font-size="10.00">+</text>
<text xml:space="preserve" text-anchor="start" x="16.25" y="-241" font-family="Helvetica,sans-Serif" font-size="10.00">AccessMobileShaderChange</text>
<text xml:space="preserve" text-anchor="start" x="16.25" y="-228.25" font-family="Helvetica,sans-Serif" font-size="10.00">Cvars()</text>
<text xml:space="preserve" text-anchor="start" x="4" y="-211.5" font-family="Helvetica,sans-Serif" font-size="10.00">+</text>
<text xml:space="preserve" text-anchor="start" x="16.25" y="-211.5" font-family="Helvetica,sans-Serif" font-size="10.00">AccessDesktopShaderChange</text>
<text xml:space="preserve" text-anchor="start" x="16.25" y="-198.75" font-family="Helvetica,sans-Serif" font-size="10.00">Cvars()</text>
<text xml:space="preserve" text-anchor="start" x="4" y="-182" font-family="Helvetica,sans-Serif" font-size="10.00">#</text>
<text xml:space="preserve" text-anchor="start" x="16.25" y="-182" font-family="Helvetica,sans-Serif" font-size="10.00">FAutoConsoleObject()</text>
<polygon fill="#666666" stroke="#666666" points="0,-349.25 0,-349.25 165,-349.25 165,-349.25 0,-349.25"/>
<polygon fill="#666666" stroke="#666666" points="0,-332.5 0,-332.5 165,-332.5 165,-332.5 0,-332.5"/>
<polygon fill="none" stroke="#666666" points="0,-175 0,-368 165,-368 165,-175 0,-175"/>
</a>
</g>
</g>
<!-- Node2&#45;&gt;Node1 -->
<g id="edge1_Node000001_Node000002" class="edge">
<title>Node2&#45;&gt;Node1</title>
<g id="a_edge1_Node000001_Node000002"><a xlink:title=" ">
<path fill="none" stroke="#8b1a1a" d="M82.5,-163.99C82.5,-155.11 82.5,-146.3 82.5,-137.84"/>
<polygon fill="none" stroke="#8b1a1a" points="79,-163.73 82.5,-173.73 86,-163.73 79,-163.73"/>
</a>
</g>
</g>
<!-- Node3 -->
<g id="Node000003" class="node">
<title>Node3</title>
<g id="a_Node000003"><a xlink:href="$classIConsoleObject.html" xlink:title=" ">
<polygon fill="white" stroke="none" points="137.25,-661.25 27.75,-661.25 27.75,-422.75 137.25,-422.75 137.25,-661.25"/>
<text xml:space="preserve" text-anchor="start" x="45.75" y="-647.5" font-family="Helvetica,sans-Serif" font-size="10.00">IConsoleObject</text>
<text xml:space="preserve" text-anchor="start" x="34" y="-630.75" font-family="Helvetica,sans-Serif" font-size="10.00">&#45;</text>
<text xml:space="preserve" text-anchor="start" x="44" y="-630.75" font-family="Helvetica,sans-Serif" font-size="10.00">FindCallCount</text>
<text xml:space="preserve" text-anchor="start" x="31.75" y="-614" font-family="Helvetica,sans-Serif" font-size="10.00">+</text>
<text xml:space="preserve" text-anchor="start" x="44" y="-614" font-family="Helvetica,sans-Serif" font-size="10.00">IConsoleObject()</text>
<text xml:space="preserve" text-anchor="start" x="31.75" y="-597.25" font-family="Helvetica,sans-Serif" font-size="10.00">+</text>
<text xml:space="preserve" text-anchor="start" x="44" y="-597.25" font-family="Helvetica,sans-Serif" font-size="10.00">~IConsoleObject()</text>
<text xml:space="preserve" text-anchor="start" x="31.75" y="-580.5" font-family="Helvetica,sans-Serif" font-size="10.00">+</text>
<text xml:space="preserve" text-anchor="start" x="44" y="-580.5" font-family="Helvetica,sans-Serif" font-size="10.00">GetHelp()</text>
<text xml:space="preserve" text-anchor="start" x="31.75" y="-563.75" font-family="Helvetica,sans-Serif" font-size="10.00">+</text>
<text xml:space="preserve" text-anchor="start" x="44" y="-563.75" font-family="Helvetica,sans-Serif" font-size="10.00">SetHelp()</text>
<text xml:space="preserve" text-anchor="start" x="31.75" y="-547" font-family="Helvetica,sans-Serif" font-size="10.00">+</text>
<text xml:space="preserve" text-anchor="start" x="44" y="-547" font-family="Helvetica,sans-Serif" font-size="10.00">GetFlags()</text>
<text xml:space="preserve" text-anchor="start" x="31.75" y="-530.25" font-family="Helvetica,sans-Serif" font-size="10.00">+</text>
<text xml:space="preserve" text-anchor="start" x="44" y="-530.25" font-family="Helvetica,sans-Serif" font-size="10.00">SetFlags()</text>
<text xml:space="preserve" text-anchor="start" x="31.75" y="-513.5" font-family="Helvetica,sans-Serif" font-size="10.00">+</text>
<text xml:space="preserve" text-anchor="start" x="44" y="-513.5" font-family="Helvetica,sans-Serif" font-size="10.00">GetDetailedHelp()</text>
<text xml:space="preserve" text-anchor="start" x="31.75" y="-496.75" font-family="Helvetica,sans-Serif" font-size="10.00">+</text>
<text xml:space="preserve" text-anchor="start" x="44" y="-496.75" font-family="Helvetica,sans-Serif" font-size="10.00">ClearFlags()</text>
<text xml:space="preserve" text-anchor="start" x="31.75" y="-480" font-family="Helvetica,sans-Serif" font-size="10.00">+</text>
<text xml:space="preserve" text-anchor="start" x="44" y="-480" font-family="Helvetica,sans-Serif" font-size="10.00">TestFlags()</text>
<text xml:space="preserve" text-anchor="start" x="31.75" y="-463.25" font-family="Helvetica,sans-Serif" font-size="10.00">+</text>
<text xml:space="preserve" text-anchor="start" x="44" y="-463.25" font-family="Helvetica,sans-Serif" font-size="10.00">IsEnabled()</text>
<text xml:space="preserve" text-anchor="start" x="44" y="-446.5" font-family="Helvetica,sans-Serif" font-size="10.00">and 14 more...</text>
<text xml:space="preserve" text-anchor="start" x="34" y="-429.75" font-family="Helvetica,sans-Serif" font-size="10.00">&#45;</text>
<text xml:space="preserve" text-anchor="start" x="44" y="-429.75" font-family="Helvetica,sans-Serif" font-size="10.00">Release()</text>
<polygon fill="#666666" stroke="#666666" points="27.75,-642.5 27.75,-642.5 137.25,-642.5 137.25,-642.5 27.75,-642.5"/>
<polygon fill="#666666" stroke="#666666" points="27.75,-625.75 27.75,-625.75 42,-625.75 42,-625.75 27.75,-625.75"/>
<polygon fill="#666666" stroke="#666666" points="42,-625.75 42,-625.75 137.25,-625.75 137.25,-625.75 42,-625.75"/>
<polygon fill="none" stroke="#666666" points="27.75,-422.75 27.75,-661.25 137.25,-661.25 137.25,-422.75 27.75,-422.75"/>
</a>
</g>
</g>
<!-- Node3&#45;&gt;Node2 -->
<g id="edge2_Node000002_Node000003" class="edge">
<title>Node3&#45;&gt;Node2</title>
<g id="a_edge2_Node000002_Node000003"><a xlink:title=" ">
<path fill="none" stroke="#63b8ff" d="M82.5,-422.84C82.5,-408.73 82.5,-394.38 82.5,-380.42"/>
<polygon fill="none" stroke="#63b8ff" points="82.5,-380.64 78.5,-374.64 82.5,-368.64 86.5,-374.63 82.5,-380.64"/>
</a>
</g>
<text xml:space="preserve" text-anchor="start" x="85.5" y="-392" font-family="Helvetica,sans-Serif" font-size="10.00" fill="grey">&#45;Target</text>
</g>
</g>
</svg>
