<?xml version="1.0" encoding="UTF-8" standalone="no"?>
<!DOCTYPE svg PUBLIC "-//W3C//DTD SVG 1.1//EN"
 "http://www.w3.org/Graphics/SVG/1.1/DTD/svg11.dtd">
<!-- Generated by graphviz version 14.1.4 (0)
 -->
<!-- Title: USceneComponent::GetRelativeRotation Pages: 1 -->
<!--zoomable 304 -->

<svg id="main" version="1.1" xmlns="http://www.w3.org/2000/svg" xmlns:xlink="http://www.w3.org/1999/xlink" xml:space="preserve" onload="init(evt)">

<style type="text/css"><![CDATA[
.node, .edge {opacity: 0.7;}
.node.selected, .edge.selected {opacity: 1;}
.edge:hover path { stroke: red; }
.edge:hover polygon { stroke: red; fill: red; }
]]></style>

<defs>
  <circle id="rim" cx="0" cy="0" r="7"/>
  <circle id="rim2" cx="0" cy="0" r="3.5"/>
  <g id="zoomPlus">
    <use xlink:href="#rim" fill="#404040"><set attributeName="fill" to="#808080" begin="zoomplus.mouseover" end="zoomplus.mouseout"/></use>
    <path d="M-4,0h8M0,-4v8" fill="none" stroke="white" stroke-width="1.5" pointer-events="none"/>
  </g>
  <g id="zoomMin">
    <use xlink:href="#rim" fill="#404040"><set attributeName="fill" to="#808080" begin="zoomminus.mouseover" end="zoomminus.mouseout"/></use>
    <path d="M-4,0h8" fill="none" stroke="white" stroke-width="1.5" pointer-events="none"/>
  </g>
  <g id="arrowUp" transform="translate(30 24)">
    <use xlink:href="#rim"/>
    <path pointer-events="none" fill="none" stroke="white" stroke-width="1.5" d="M0,-3.0v7 M-2.5,-0.5L0,-3.0L2.5,-0.5"/>
  </g>
  <g id="arrowRight" transform="rotate(90) translate(36 -43)">
    <use xlink:href="#rim"/>
    <path pointer-events="none" fill="none" stroke="white" stroke-width="1.5" d="M0,-3.0v7 M-2.5,-0.5L0,-3.0L2.5,-0.5"/>
  </g>
  <g id="arrowDown" transform="rotate(180) translate(-30 -48)">
    <use xlink:href="#rim"/>
    <path pointer-events="none" fill="none" stroke="white" stroke-width="1.5" d="M0,-3.0v7 M-2.5,-0.5L0,-3.0L2.5,-0.5"/>
  </g>
  <g id="arrowLeft" transform="rotate(270) translate(-36 17)">
    <use xlink:href="#rim"/>
    <path pointer-events="none" fill="none" stroke="white" stroke-width="1.5" d="M0,-3.0v7 M-2.5,-0.5L0,-3.0L2.5,-0.5"/>
  </g>
  <g id="resetDef">
    <use xlink:href="#rim2" fill="#404040"><set attributeName="fill" to="#808080" begin="reset.mouseover" end="reset.mouseout"/></use>
  </g>
</defs>
<script type="application/ecmascript">
var viewWidth = 1056;
var viewHeight = 304;
var sectionId = 'dynsection-100';
</script>
<script type="application/ecmascript" xlink:href="svg.min.js"/>
<svg id="graph" class="graph">
<g id="viewport">
<title>USceneComponent::GetRelativeRotation</title>
<!-- Node1 -->
<g id="Node000001" class="node">
<title>Node1</title>
<g id="a_Node000001"><a xlink:title=" ">
<polygon fill="#999999" stroke="#666666" points="1047.5,-129.5 874.75,-129.5 874.75,-96 1047.5,-96 1047.5,-129.5"/>
<text xml:space="preserve" text-anchor="start" x="882.75" y="-116" font-family="Helvetica,sans-Serif" font-size="10.00">USceneComponent::GetRelative</text>
<text xml:space="preserve" text-anchor="middle" x="961.12" y="-103.25" font-family="Helvetica,sans-Serif" font-size="10.00">Rotation</text>
</a>
</g>
</g>
<!-- Node2 -->
<g id="Node000002" class="node">
<title>Node2</title>
<g id="a_Node000002"><a xlink:href="classUSceneComponent.html#a58e4c0a7ca586c782331736c4bb43970" target="_top" xlink:title=" ">
<polygon fill="white" stroke="#666666" points="822.62,-242.5 648.38,-242.5 648.38,-209 822.62,-209 822.62,-242.5"/>
<text xml:space="preserve" text-anchor="start" x="656.38" y="-229" font-family="Helvetica,sans-Serif" font-size="10.00">USceneComponent::AddRelative</text>
<text xml:space="preserve" text-anchor="middle" x="735.5" y="-216.25" font-family="Helvetica,sans-Serif" font-size="10.00">Location</text>
</a>
</g>
</g>
<!-- Node1&#45;&gt;Node2 -->
<g id="edge1_Node000001_Node000002" class="edge">
<title>Node1&#45;&gt;Node2</title>
<g id="a_edge1_Node000001_Node000002"><a xlink:title=" ">
<path fill="none" stroke="#63b8ff" d="M916.04,-135.02C873.29,-156.63 809.34,-188.94 770.42,-208.61"/>
<polygon fill="#63b8ff" stroke="#63b8ff" points="917.46,-138.23 924.81,-130.59 914.31,-131.98 917.46,-138.23"/>
</a>
</g>
</g>
<!-- Node4 -->
<g id="Node000004" class="node">
<title>Node4</title>
<g id="a_Node000004"><a xlink:href="classUSceneComponent.html#a45b83868b04255a70bc28d3319cefb89" target="_top" xlink:title=" ">
<polygon fill="white" stroke="#666666" points="822.62,-155.5 648.38,-155.5 648.38,-122 822.62,-122 822.62,-155.5"/>
<text xml:space="preserve" text-anchor="start" x="656.38" y="-142" font-family="Helvetica,sans-Serif" font-size="10.00">USceneComponent::AddRelative</text>
<text xml:space="preserve" text-anchor="middle" x="735.5" y="-129.25" font-family="Helvetica,sans-Serif" font-size="10.00">Rotation</text>
</a>
</g>
</g>
<!-- Node1&#45;&gt;Node4 -->
<g id="edge4_Node000001_Node000004" class="edge">
<title>Node1&#45;&gt;Node4</title>
<g id="a_edge4_Node000001_Node000004"><a xlink:title=" ">
<path fill="none" stroke="#63b8ff" d="M863.13,-124.03C849.72,-125.59 836.03,-127.18 822.83,-128.71"/>
<polygon fill="#63b8ff" stroke="#63b8ff" points="863.27,-127.53 872.8,-122.9 862.46,-120.58 863.27,-127.53"/>
</a>
</g>
</g>
<!-- Node7 -->
<g id="Node000007" class="node">
<title>Node7</title>
<g id="a_Node000007"><a xlink:href="classUSceneComponent.html#a39ef25786d6753a8b7a13b76c5f597cc" target="_top" xlink:title=" ">
<polygon fill="white" stroke="#666666" points="821.12,-94.5 649.88,-94.5 649.88,-61 821.12,-61 821.12,-94.5"/>
<text xml:space="preserve" text-anchor="start" x="657.88" y="-81" font-family="Helvetica,sans-Serif" font-size="10.00">USceneComponent::SetRelative</text>
<text xml:space="preserve" text-anchor="middle" x="735.5" y="-68.25" font-family="Helvetica,sans-Serif" font-size="10.00">Location</text>
</a>
</g>
</g>
<!-- Node1&#45;&gt;Node7 -->
<g id="edge8_Node000001_Node000007" class="edge">
<title>Node1&#45;&gt;Node7</title>
<g id="a_edge8_Node000001_Node000007"><a xlink:title=" ">
<path fill="none" stroke="#63b8ff" d="M863.21,-97.58C849.28,-95.4 835.03,-93.17 821.35,-91.03"/>
<polygon fill="#63b8ff" stroke="#63b8ff" points="862.39,-101 872.81,-99.08 863.47,-94.08 862.39,-101"/>
</a>
</g>
</g>
<!-- Node9 -->
<g id="Node000009" class="node">
<title>Node9</title>
<g id="a_Node000009"><a xlink:href="classUSceneComponent.html#a23375c3a867b2f709bff71a90b713bc6" target="_top" xlink:title=" ">
<polygon fill="white" stroke="#666666" points="838.75,-42.5 632.25,-42.5 632.25,-9 838.75,-9 838.75,-42.5"/>
<text xml:space="preserve" text-anchor="start" x="640.25" y="-29" font-family="Helvetica,sans-Serif" font-size="10.00">USceneComponent::UpdateComponent</text>
<text xml:space="preserve" text-anchor="middle" x="735.5" y="-16.25" font-family="Helvetica,sans-Serif" font-size="10.00">ToWorld</text>
</a>
</g>
</g>
<!-- Node1&#45;&gt;Node9 -->
<g id="edge11_Node000001_Node000009" class="edge">
<title>Node1&#45;&gt;Node9</title>
<g id="a_edge11_Node000001_Node000009"><a xlink:title=" ">
<path fill="none" stroke="#63b8ff" d="M920.68,-90.18C897.4,-77.57 867.04,-62.31 838.75,-51.75 830.17,-48.55 821.04,-45.6 811.91,-42.94"/>
<polygon fill="#63b8ff" stroke="#63b8ff" points="918.74,-93.11 929.19,-94.86 922.11,-86.98 918.74,-93.11"/>
</a>
</g>
</g>
<!-- Node3 -->
<g id="Node000003" class="node">
<title>Node3</title>
<g id="a_Node000003"><a xlink:href="classUSceneComponent.html#a35830111a0e95582c9c88445b9924c09" target="_top" xlink:title=" ">
<polygon fill="white" stroke="#666666" points="573,-277.5 445.25,-277.5 445.25,-244 573,-244 573,-277.5"/>
<text xml:space="preserve" text-anchor="start" x="453.25" y="-264" font-family="Helvetica,sans-Serif" font-size="10.00">USceneComponent::K2</text>
<text xml:space="preserve" text-anchor="middle" x="509.12" y="-251.25" font-family="Helvetica,sans-Serif" font-size="10.00">_AddRelativeLocation</text>
</a>
</g>
</g>
<!-- Node2&#45;&gt;Node3 -->
<g id="edge2_Node000002_Node000003" class="edge">
<title>Node2&#45;&gt;Node3</title>
<g id="a_edge2_Node000002_Node000003"><a xlink:title=" ">
<path fill="none" stroke="#63b8ff" d="M636.87,-240.98C615.28,-244.35 592.95,-247.83 573.17,-250.92"/>
<polygon fill="#63b8ff" stroke="#63b8ff" points="637.24,-244.46 646.58,-239.47 636.16,-237.55 637.24,-244.46"/>
</a>
</g>
</g>
<!-- Node3&#45;&gt;Node3 -->
<g id="edge3_Node000003_Node000003" class="edge">
<title>Node3&#45;&gt;Node3</title>
<g id="a_edge3_Node000003_Node000003"><a xlink:title=" ">
<path fill="none" stroke="#63b8ff" d="M544.25,-289.05C538.4,-292.92 526.7,-295.5 509.12,-295.5 477.45,-295.5 464.83,-287.12 471.26,-277.91"/>
<polygon fill="#63b8ff" stroke="#63b8ff" points="547.64,-289.93 546.63,-279.38 540.84,-288.26 547.64,-289.93"/>
</a>
</g>
</g>
<!-- Node5 -->
<g id="Node000005" class="node">
<title>Node5</title>
<g id="a_Node000005"><a xlink:href="classUSceneComponent.html#a59ec9400af6faa4198bacfc0691375e7" target="_top" xlink:title=" ">
<polygon fill="white" stroke="#666666" points="596.25,-225.5 422,-225.5 422,-192 596.25,-192 596.25,-225.5"/>
<text xml:space="preserve" text-anchor="start" x="430" y="-212" font-family="Helvetica,sans-Serif" font-size="10.00">USceneComponent::AddRelative</text>
<text xml:space="preserve" text-anchor="middle" x="509.12" y="-199.25" font-family="Helvetica,sans-Serif" font-size="10.00">Rotation</text>
</a>
</g>
</g>
<!-- Node4&#45;&gt;Node5 -->
<g id="edge5_Node000004_Node000005" class="edge">
<title>Node4&#45;&gt;Node5</title>
<g id="a_edge5_Node000004_Node000005"><a xlink:title=" ">
<path fill="none" stroke="#63b8ff" d="M670.25,-159.42C646.97,-166.85 620.45,-175.25 596.25,-182.75 587,-185.62 577.18,-188.62 567.61,-191.53"/>
<polygon fill="#63b8ff" stroke="#63b8ff" points="671.15,-162.8 679.61,-156.43 669.02,-156.14 671.15,-162.8"/>
</a>
</g>
</g>
<!-- Node6 -->
<g id="Node000006" class="node">
<title>Node6</title>
<g id="a_Node000006"><a xlink:href="classUSceneComponent.html#a2aec13c75623dc66b0ea529ac29b4508" target="_top" xlink:title=" ">
<polygon fill="white" stroke="#666666" points="573,-155.5 445.25,-155.5 445.25,-122 573,-122 573,-155.5"/>
<text xml:space="preserve" text-anchor="start" x="453.25" y="-142" font-family="Helvetica,sans-Serif" font-size="10.00">USceneComponent::K2</text>
<text xml:space="preserve" text-anchor="middle" x="509.12" y="-129.25" font-family="Helvetica,sans-Serif" font-size="10.00">_AddRelativeRotation</text>
</a>
</g>
</g>
<!-- Node4&#45;&gt;Node6 -->
<g id="edge6_Node000004_Node000006" class="edge">
<title>Node4&#45;&gt;Node6</title>
<g id="a_edge6_Node000004_Node000006"><a xlink:title=" ">
<path fill="none" stroke="#63b8ff" d="M636.57,-138.75C615.07,-138.75 592.86,-138.75 573.17,-138.75"/>
<polygon fill="#63b8ff" stroke="#63b8ff" points="636.56,-142.25 646.56,-138.75 636.56,-135.25 636.56,-142.25"/>
</a>
</g>
</g>
<!-- Node6&#45;&gt;Node6 -->
<g id="edge7_Node000006_Node000006" class="edge">
<title>Node6&#45;&gt;Node6</title>
<g id="a_edge7_Node000006_Node000006"><a xlink:title=" ">
<path fill="none" stroke="#63b8ff" d="M544.25,-167.05C538.4,-170.92 526.7,-173.5 509.12,-173.5 477.45,-173.5 464.83,-165.12 471.26,-155.91"/>
<polygon fill="#63b8ff" stroke="#63b8ff" points="547.64,-167.93 546.63,-157.38 540.84,-166.26 547.64,-167.93"/>
</a>
</g>
</g>
<!-- Node8 -->
<g id="Node000008" class="node">
<title>Node8</title>
<g id="a_Node000008"><a xlink:href="classUSceneComponent.html#a00aab9a53c2f1569cec063e5ba468787" target="_top" xlink:title=" ">
<polygon fill="white" stroke="#666666" points="573,-85.5 445.25,-85.5 445.25,-52 573,-52 573,-85.5"/>
<text xml:space="preserve" text-anchor="start" x="453.25" y="-72" font-family="Helvetica,sans-Serif" font-size="10.00">USceneComponent::K2</text>
<text xml:space="preserve" text-anchor="middle" x="509.12" y="-59.25" font-family="Helvetica,sans-Serif" font-size="10.00">_SetRelativeLocation</text>
</a>
</g>
</g>
<!-- Node7&#45;&gt;Node8 -->
<g id="edge9_Node000007_Node000008" class="edge">
<title>Node7&#45;&gt;Node8</title>
<g id="a_edge9_Node000007_Node000008"><a xlink:title=" ">
<path fill="none" stroke="#63b8ff" d="M638.29,-73.89C616.33,-73.01 593.55,-72.1 573.38,-71.29"/>
<polygon fill="#63b8ff" stroke="#63b8ff" points="638.03,-77.38 648.16,-74.29 638.31,-70.39 638.03,-77.38"/>
</a>
</g>
</g>
<!-- Node8&#45;&gt;Node8 -->
<g id="edge10_Node000008_Node000008" class="edge">
<title>Node8&#45;&gt;Node8</title>
<g id="a_edge10_Node000008_Node000008"><a xlink:title=" ">
<path fill="none" stroke="#63b8ff" d="M544.25,-97.05C538.4,-100.92 526.7,-103.5 509.12,-103.5 477.45,-103.5 464.83,-95.12 471.26,-85.91"/>
<polygon fill="#63b8ff" stroke="#63b8ff" points="547.64,-97.93 546.63,-87.38 540.84,-96.26 547.64,-97.93"/>
</a>
</g>
</g>
<!-- Node10 -->
<g id="Node000010" class="node">
<title>Node10</title>
<g id="a_Node000010"><a xlink:href="classUSceneComponent.html#a82373c35cd36bddf23e7deca90db1462" target="_top" xlink:title=" ">
<polygon fill="white" stroke="#666666" points="594.38,-33.5 423.88,-33.5 423.88,0 594.38,0 594.38,-33.5"/>
<text xml:space="preserve" text-anchor="start" x="431.88" y="-20" font-family="Helvetica,sans-Serif" font-size="10.00">USceneComponent::Conditional</text>
<text xml:space="preserve" text-anchor="middle" x="509.12" y="-7.25" font-family="Helvetica,sans-Serif" font-size="10.00">UpdateComponentToWorld</text>
</a>
</g>
</g>
<!-- Node9&#45;&gt;Node10 -->
<g id="edge12_Node000009_Node000010" class="edge">
<title>Node9&#45;&gt;Node10</title>
<g id="a_edge12_Node000009_Node000010"><a xlink:title=" ">
<path fill="none" stroke="#63b8ff" d="M620.42,-21.17C611.72,-20.83 603.05,-20.48 594.59,-20.14"/>
<polygon fill="#63b8ff" stroke="#63b8ff" points="620.19,-24.67 630.32,-21.57 620.47,-17.67 620.19,-24.67"/>
</a>
</g>
</g>
<!-- Node11 -->
<g id="Node000011" class="node">
<title>Node11</title>
<g id="a_Node000011"><a xlink:href="classUSceneComponent.html#a47e74d7b1d5eb5f8a0191abc33a226ae" target="_top" xlink:title=" ">
<polygon fill="white" stroke="#666666" points="386,-33.5 211,-33.5 211,0 386,0 386,-33.5"/>
<text xml:space="preserve" text-anchor="start" x="219" y="-20" font-family="Helvetica,sans-Serif" font-size="10.00">USceneComponent::HasGrouped</text>
<text xml:space="preserve" text-anchor="middle" x="298.5" y="-7.25" font-family="Helvetica,sans-Serif" font-size="10.00">MovementUpdate</text>
</a>
</g>
</g>
<!-- Node10&#45;&gt;Node11 -->
<g id="edge13_Node000010_Node000011" class="edge">
<title>Node10&#45;&gt;Node11</title>
<g id="a_edge13_Node000010_Node000011"><a xlink:title=" ">
<path fill="none" stroke="#63b8ff" d="M412.23,-16.75C403.56,-16.75 394.8,-16.75 386.21,-16.75"/>
<polygon fill="#63b8ff" stroke="#63b8ff" points="412.06,-20.25 422.06,-16.75 412.06,-13.25 412.06,-20.25"/>
</a>
</g>
</g>
<!-- Node12 -->
<g id="Node000012" class="node">
<title>Node12</title>
<g id="a_Node000012"><a xlink:href="classUSceneComponent.html#a79d168efbcc2c703d1d75ec37fa919f5" target="_top" xlink:title=" ">
<polygon fill="white" stroke="#666666" points="175,-33.5 0,-33.5 0,0 175,0 175,-33.5"/>
<text xml:space="preserve" text-anchor="start" x="8" y="-20" font-family="Helvetica,sans-Serif" font-size="10.00">USceneComponent::HasGrouped</text>
<text xml:space="preserve" text-anchor="middle" x="87.5" y="-7.25" font-family="Helvetica,sans-Serif" font-size="10.00">MovementUpdates</text>
</a>
</g>
</g>
<!-- Node11&#45;&gt;Node12 -->
<g id="edge14_Node000011_Node000012" class="edge">
<title>Node11&#45;&gt;Node12</title>
<g id="a_edge14_Node000011_Node000012"><a xlink:title=" ">
<path fill="none" stroke="#63b8ff" d="M199.4,-10.01C191.38,-9.98 183.31,-10.01 175.39,-10.09"/>
<polygon fill="#63b8ff" stroke="#63b8ff" points="199.14,-13.51 209.17,-10.08 199.19,-6.51 199.14,-13.51"/>
</a>
</g>
</g>
<!-- Node12&#45;&gt;Node11 -->
<g id="edge15_Node000012_Node000011" class="edge">
<title>Node12&#45;&gt;Node11</title>
<g id="a_edge15_Node000012_Node000011"><a xlink:title=" ">
<path fill="none" stroke="#63b8ff" d="M186.67,-23.49C194.69,-23.52 202.75,-23.49 210.68,-23.41"/>
<polygon fill="#63b8ff" stroke="#63b8ff" points="186.92,-19.99 176.9,-23.42 186.88,-26.99 186.92,-19.99"/>
</a>
</g>
</g>
</g>
</svg>

<g id="navigator" transform="translate(0 0)" fill="#404254">
  <rect fill="#f2f5e9" fill-opacity="0.5" stroke="#606060" stroke-width=".5" x="0" y="0" width="60" height="60"/>
  <use id="zoomplus" xlink:href="#zoomPlus" x="17" y="9" onmousedown="handleZoom(evt,'in')"/>
  <use id="zoomminus" xlink:href="#zoomMin" x="42" y="9" onmousedown="handleZoom(evt,'out')"/>
  <use id="reset" xlink:href="#resetDef" x="30" y="36" onmousedown="handleReset()"/>
   <use id="arrowup" xlink:href="#arrowUp" x="0" y="0" onmousedown="handlePan(0,-1)"/>
  <use id="arrowright" xlink:href="#arrowRight" x="0" y="0" onmousedown="handlePan(1,0)"/>
  <use id="arrowdown" xlink:href="#arrowDown" x="0" y="0" onmousedown="handlePan(0,1)"/>
  <use id="arrowleft" xlink:href="#arrowLeft" x="0" y="0" onmousedown="handlePan(-1,0)"/>
</g>
<svg viewBox="0 0 15 15" width="100%" height="30px" preserveAspectRatio="xMaxYMin meet">
 <g id="arrow_out" transform="scale(0.3 0.3)">
  <a xlink:href="classUSceneComponent_ad8bdb63e3ae8abb9b2c5e2c70bc00930_icgraph_org.svg" target="_base">
   <rect id="button" ry="5" rx="5" y="6" x="6" height="38" width="38"
        fill="#f2f5e9" fill-opacity="0.5" stroke="#606060" stroke-width="1.0"/>
   <path id="arrow"
     d="M 11.500037,31.436501 C 11.940474,20.09759 22.043105,11.32322 32.158766,21.979434 L 37.068811,17.246167 C 37.068811,17.246167 37.088388,32 37.088388,32 L 22.160133,31.978069 C 22.160133,31.978069 26.997745,27.140456 26.997745,27.140456 C 18.528582,18.264221 13.291696,25.230495 11.500037,31.436501 z"
     style="fill:#404040;"/>
  </a>
 </g>
</svg>

<style type='text/css'>
<![CDATA[
[data-mouse-over-selected='false'] { opacity: 0.7; }
[data-mouse-over-selected='true']  { opacity: 1.0; }
]]>
</style>
<script type="application/ecmascript"><![CDATA[
document.addEventListener('DOMContentLoaded', (event) => {
  highlightEdges();
  highlightAdjacentNodes();
});
]]></script>
</svg>
