<?xml version="1.0" encoding="UTF-8" standalone="no"?>
<!DOCTYPE svg PUBLIC "-//W3C//DTD SVG 1.1//EN"
 "http://www.w3.org/Graphics/SVG/1.1/DTD/svg11.dtd">
<!-- Generated by graphviz version 14.1.4 (0)
 -->
<!-- Title: FAAArrayQueue&lt; T &gt;::EnqueueHazard Pages: 1 -->
<svg width="445pt" height="892pt"
 viewBox="0.00 0.00 445.00 892.00" xmlns="http://www.w3.org/2000/svg" xmlns:xlink="http://www.w3.org/1999/xlink">
<g id="graph0" class="graph" transform="scale(1 1) rotate(0) translate(4 887.75)">
<title>FAAArrayQueue&lt; T &gt;::EnqueueHazard</title>
<!-- Node1 -->
<g id="Node000001" class="node">
<title>Node1</title>
<g id="a_Node000001"><a xlink:title=" ">
<polygon fill="#999999" stroke="none" points="271,-117.25 158,-117.25 158,0 271,0 271,-117.25"/>
<text xml:space="preserve" text-anchor="start" x="162" y="-103.5" font-family="Helvetica,sans-Serif" font-size="10.00">FAAArrayQueue&lt; T &gt;</text>
<text xml:space="preserve" text-anchor="start" x="173.25" y="-90.75" font-family="Helvetica,sans-Serif" font-size="10.00">::EnqueueHazard</text>
<text xml:space="preserve" text-anchor="start" x="211.5" y="-74" font-family="Helvetica,sans-Serif" font-size="10.00"> </text>
<text xml:space="preserve" text-anchor="start" x="164.19" y="-57.25" font-family="Helvetica,sans-Serif" font-size="10.00">+</text>
<text xml:space="preserve" text-anchor="start" x="178.62" y="-57.25" font-family="Helvetica,sans-Serif" font-size="10.00">EnqueueHazard()</text>
<text xml:space="preserve" text-anchor="start" x="164.19" y="-40.5" font-family="Helvetica,sans-Serif" font-size="10.00">+</text>
<text xml:space="preserve" text-anchor="start" x="178.62" y="-40.5" font-family="Helvetica,sans-Serif" font-size="10.00">EnqueueHazard()</text>
<text xml:space="preserve" text-anchor="start" x="164.19" y="-23.75" font-family="Helvetica,sans-Serif" font-size="10.00">+</text>
<text xml:space="preserve" text-anchor="start" x="178.62" y="-23.75" font-family="Helvetica,sans-Serif" font-size="10.00">operator=()</text>
<text xml:space="preserve" text-anchor="start" x="166.44" y="-7" font-family="Helvetica,sans-Serif" font-size="10.00">&#45;</text>
<text xml:space="preserve" text-anchor="start" x="178.62" y="-7" font-family="Helvetica,sans-Serif" font-size="10.00">EnqueueHazard()</text>
<polygon fill="#666666" stroke="#666666" points="158,-85.75 158,-85.75 271,-85.75 271,-85.75 158,-85.75"/>
<polygon fill="#666666" stroke="#666666" points="158,-69 158,-69 271,-69 271,-69 158,-69"/>
<polygon fill="none" stroke="#666666" points="158,0 158,-117.25 271,-117.25 271,0 158,0"/>
</a>
</g>
</g>
<!-- Node2 -->
<g id="Node000002" class="node">
<title>Node2</title>
<g id="a_Node000002"><a xlink:href="$classTHazardPointer.html" xlink:title=" ">
<polygon fill="white" stroke="none" points="275.88,-321.75 153.12,-321.75 153.12,-154.25 275.88,-154.25 275.88,-321.75"/>
<text xml:space="preserve" text-anchor="start" x="157.12" y="-308" font-family="Helvetica,sans-Serif" font-size="10.00">THazardPointer&lt; Node,</text>
<text xml:space="preserve" text-anchor="start" x="197.62" y="-295.25" font-family="Helvetica,sans-Serif" font-size="10.00"> true &gt;</text>
<text xml:space="preserve" text-anchor="start" x="211.5" y="-278.5" font-family="Helvetica,sans-Serif" font-size="10.00"> </text>
<text xml:space="preserve" text-anchor="start" x="160.06" y="-261.75" font-family="Helvetica,sans-Serif" font-size="10.00">+</text>
<text xml:space="preserve" text-anchor="start" x="175.25" y="-261.75" font-family="Helvetica,sans-Serif" font-size="10.00">~THazardPointer()</text>
<text xml:space="preserve" text-anchor="start" x="160.06" y="-245" font-family="Helvetica,sans-Serif" font-size="10.00">+</text>
<text xml:space="preserve" text-anchor="start" x="175.25" y="-245" font-family="Helvetica,sans-Serif" font-size="10.00">Retire()</text>
<text xml:space="preserve" text-anchor="start" x="160.06" y="-228.25" font-family="Helvetica,sans-Serif" font-size="10.00">+</text>
<text xml:space="preserve" text-anchor="start" x="175.25" y="-228.25" font-family="Helvetica,sans-Serif" font-size="10.00">Destroy()</text>
<text xml:space="preserve" text-anchor="start" x="160.06" y="-211.5" font-family="Helvetica,sans-Serif" font-size="10.00">+</text>
<text xml:space="preserve" text-anchor="start" x="175.25" y="-211.5" font-family="Helvetica,sans-Serif" font-size="10.00">Get()</text>
<text xml:space="preserve" text-anchor="start" x="160.06" y="-194.75" font-family="Helvetica,sans-Serif" font-size="10.00">+</text>
<text xml:space="preserve" text-anchor="start" x="175.25" y="-194.75" font-family="Helvetica,sans-Serif" font-size="10.00">IsValid()</text>
<text xml:space="preserve" text-anchor="start" x="162.31" y="-178" font-family="Helvetica,sans-Serif" font-size="10.00">&#45;</text>
<text xml:space="preserve" text-anchor="start" x="175.25" y="-178" font-family="Helvetica,sans-Serif" font-size="10.00">THazardPointer()</text>
<text xml:space="preserve" text-anchor="start" x="162.31" y="-161.25" font-family="Helvetica,sans-Serif" font-size="10.00">&#45;</text>
<text xml:space="preserve" text-anchor="start" x="175.25" y="-161.25" font-family="Helvetica,sans-Serif" font-size="10.00">operator=()</text>
<polygon fill="#666666" stroke="#666666" points="153.12,-290.25 153.12,-290.25 275.88,-290.25 275.88,-290.25 153.12,-290.25"/>
<polygon fill="#666666" stroke="#666666" points="153.12,-273.5 153.12,-273.5 275.88,-273.5 275.88,-273.5 153.12,-273.5"/>
<polygon fill="none" stroke="#666666" points="153.12,-154.25 153.12,-321.75 275.88,-321.75 275.88,-154.25 153.12,-154.25"/>
</a>
</g>
</g>
<!-- Node2&#45;&gt;Node1 -->
<g id="edge1_Node000001_Node000002" class="edge">
<title>Node2&#45;&gt;Node1</title>
<g id="a_edge1_Node000001_Node000002"><a xlink:title=" ">
<path fill="none" stroke="#8b1a1a" d="M214.5,-142.79C214.5,-134.06 214.5,-125.4 214.5,-117.15"/>
<polygon fill="none" stroke="#8b1a1a" points="211,-142.77 214.5,-152.77 218,-142.77 211,-142.77"/>
</a>
</g>
</g>
<!-- Node3 -->
<g id="Node000003" class="node">
<title>Node3</title>
<g id="a_Node000003"><a xlink:title=" ">
<polygon fill="white" stroke="none" points="119,-470.62 0,-470.62 0,-416.38 119,-416.38 119,-470.62"/>
<text xml:space="preserve" text-anchor="start" x="4" y="-456.88" font-family="Helvetica,sans-Serif" font-size="10.00">std::atomic&lt; Node * &gt;</text>
<text xml:space="preserve" text-anchor="start" x="56.5" y="-440.12" font-family="Helvetica,sans-Serif" font-size="10.00"> </text>
<text xml:space="preserve" text-anchor="start" x="56.5" y="-423.38" font-family="Helvetica,sans-Serif" font-size="10.00"> </text>
<polygon fill="#666666" stroke="#666666" points="0,-451.88 0,-451.88 119,-451.88 119,-451.88 0,-451.88"/>
<polygon fill="#666666" stroke="#666666" points="0,-435.12 0,-435.12 119,-435.12 119,-435.12 0,-435.12"/>
<polygon fill="none" stroke="#666666" points="0,-416.38 0,-470.62 119,-470.62 119,-416.38 0,-416.38"/>
</a>
</g>
</g>
<!-- Node3&#45;&gt;Node2 -->
<g id="edge2_Node000002_Node000003" class="edge">
<title>Node3&#45;&gt;Node2</title>
<g id="a_edge2_Node000002_Node000003"><a xlink:title=" ">
<path fill="none" stroke="#63b8ff" d="M79.13,-416.73C95.96,-394.63 121.26,-361.42 145.44,-329.66"/>
<polygon fill="none" stroke="#63b8ff" points="145.43,-329.69 145.88,-322.49 152.7,-320.14 152.25,-327.34 145.43,-329.69"/>
</a>
</g>
<text xml:space="preserve" text-anchor="start" x="140" y="-345.75" font-family="Helvetica,sans-Serif" font-size="10.00" fill="grey">&#45;Hazard</text>
</g>
<!-- Node4 -->
<g id="Node000004" class="node">
<title>Node4</title>
<g id="a_Node000004"><a xlink:href="$structFAAArrayQueue_1_1Node.html" xlink:title=" ">
<polygon fill="white" stroke="none" points="218,-649 105,-649 105,-565.25 218,-565.25 218,-649"/>
<text xml:space="preserve" text-anchor="start" x="109" y="-635.25" font-family="Helvetica,sans-Serif" font-size="10.00">FAAArrayQueue&lt; T &gt;</text>
<text xml:space="preserve" text-anchor="start" x="145.75" y="-622.5" font-family="Helvetica,sans-Serif" font-size="10.00">::Node</text>
<text xml:space="preserve" text-anchor="start" x="158.5" y="-605.75" font-family="Helvetica,sans-Serif" font-size="10.00"> </text>
<text xml:space="preserve" text-anchor="start" x="120.38" y="-589" font-family="Helvetica,sans-Serif" font-size="10.00">+</text>
<text xml:space="preserve" text-anchor="start" x="144" y="-589" font-family="Helvetica,sans-Serif" font-size="10.00">Node()</text>
<text xml:space="preserve" text-anchor="start" x="120.38" y="-572.25" font-family="Helvetica,sans-Serif" font-size="10.00">+</text>
<text xml:space="preserve" text-anchor="start" x="144" y="-572.25" font-family="Helvetica,sans-Serif" font-size="10.00">casNext()</text>
<polygon fill="#666666" stroke="#666666" points="105,-617.5 105,-617.5 218,-617.5 218,-617.5 105,-617.5"/>
<polygon fill="#666666" stroke="#666666" points="105,-600.75 105,-600.75 218,-600.75 218,-600.75 105,-600.75"/>
<polygon fill="none" stroke="#666666" points="105,-565.25 105,-649 218,-649 218,-565.25 105,-565.25"/>
</a>
</g>
</g>
<!-- Node4&#45;&gt;Node3 -->
<g id="edge3_Node000003_Node000004" class="edge">
<title>Node4&#45;&gt;Node3</title>
<g id="a_edge3_Node000003_Node000004"><a xlink:title=" ">
<path fill="none" stroke="#63b8ff" d="M135.24,-565.31C131.38,-559.26 127.45,-553.1 123.75,-547.25 109.92,-525.41 94.56,-500.86 82.33,-481.24"/>
<polygon fill="none" stroke="#63b8ff" points="82.35,-481.26 75.78,-478.28 76,-471.07 82.57,-474.05 82.35,-481.26"/>
</a>
</g>
<text xml:space="preserve" text-anchor="start" x="126.75" y="-534.5" font-family="Helvetica,sans-Serif" font-size="10.00" fill="grey">+ptr</text>
</g>
<!-- Node8 -->
<g id="Node000008" class="node">
<title>Node8</title>
<g id="a_Node000008"><a xlink:title=" ">
<polygon fill="white" stroke="none" points="287.75,-477 137.25,-477 137.25,-410 287.75,-410 287.75,-477"/>
<text xml:space="preserve" text-anchor="start" x="141.25" y="-463.25" font-family="Helvetica,sans-Serif" font-size="10.00">std::atomic&lt; FAAArrayQueue</text>
<text xml:space="preserve" text-anchor="start" x="187" y="-450.5" font-family="Helvetica,sans-Serif" font-size="10.00">::Node * &gt;</text>
<text xml:space="preserve" text-anchor="start" x="209.5" y="-433.75" font-family="Helvetica,sans-Serif" font-size="10.00"> </text>
<text xml:space="preserve" text-anchor="start" x="209.5" y="-417" font-family="Helvetica,sans-Serif" font-size="10.00"> </text>
<polygon fill="#666666" stroke="#666666" points="137.25,-445.5 137.25,-445.5 287.75,-445.5 287.75,-445.5 137.25,-445.5"/>
<polygon fill="#666666" stroke="#666666" points="137.25,-428.75 137.25,-428.75 287.75,-428.75 287.75,-428.75 137.25,-428.75"/>
<polygon fill="none" stroke="#666666" points="137.25,-410 137.25,-477 287.75,-477 287.75,-410 137.25,-410"/>
</a>
</g>
</g>
<!-- Node4&#45;&gt;Node8 -->
<g id="edge8_Node000008_Node000004" class="edge">
<title>Node4&#45;&gt;Node8</title>
<g id="a_edge8_Node000008_Node000004"><a xlink:title=" ">
<path fill="none" stroke="#63b8ff" d="M155.25,-565.63C154.66,-553.49 155.3,-540.28 158.75,-528.5 162.96,-514.11 170.48,-499.83 178.58,-487.25"/>
<polygon fill="none" stroke="#63b8ff" points="178.52,-487.33 178.59,-480.12 185.27,-477.41 185.2,-484.62 178.52,-487.33"/>
</a>
</g>
<text xml:space="preserve" text-anchor="start" x="161.75" y="-534.5" font-family="Helvetica,sans-Serif" font-size="10.00" fill="grey">+ptr</text>
</g>
<!-- Node5 -->
<g id="Node000005" class="node">
<title>Node5</title>
<g id="a_Node000005"><a xlink:title=" ">
<polygon fill="white" stroke="none" points="175.5,-774.75 77.5,-774.75 77.5,-720.5 175.5,-720.5 175.5,-774.75"/>
<text xml:space="preserve" text-anchor="start" x="81.5" y="-761" font-family="Helvetica,sans-Serif" font-size="10.00">std::atomic&lt; int &gt;</text>
<text xml:space="preserve" text-anchor="start" x="97.56" y="-744.25" font-family="Helvetica,sans-Serif" font-size="10.00">+</text>
<text xml:space="preserve" text-anchor="start" x="125.88" y="-744.25" font-family="Helvetica,sans-Serif" font-size="10.00">ptr</text>
<text xml:space="preserve" text-anchor="start" x="123.5" y="-727.5" font-family="Helvetica,sans-Serif" font-size="10.00"> </text>
<polygon fill="#666666" stroke="#666666" points="77.5,-756 77.5,-756 175.5,-756 175.5,-756 77.5,-756"/>
<polygon fill="#666666" stroke="#666666" points="77.5,-739.25 77.5,-739.25 123.88,-739.25 123.88,-739.25 77.5,-739.25"/>
<polygon fill="#666666" stroke="#666666" points="123.88,-739.25 123.88,-739.25 175.5,-739.25 175.5,-739.25 123.88,-739.25"/>
<polygon fill="none" stroke="#666666" points="77.5,-720.5 77.5,-774.75 175.5,-774.75 175.5,-720.5 77.5,-720.5"/>
</a>
</g>
</g>
<!-- Node5&#45;&gt;Node4 -->
<g id="edge4_Node000004_Node000005" class="edge">
<title>Node5&#45;&gt;Node4</title>
<g id="a_edge4_Node000004_Node000005"><a xlink:title=" ">
<path fill="none" stroke="#63b8ff" d="M133.08,-720.57C137.29,-703.91 142.91,-681.69 148.04,-661.41"/>
<polygon fill="none" stroke="#63b8ff" points="148.07,-661.27 145.66,-654.48 151.01,-649.64 153.42,-656.44 148.07,-661.27"/>
</a>
</g>
<text xml:space="preserve" text-anchor="start" x="149.1" y="-689.75" font-family="Helvetica,sans-Serif" font-size="10.00" fill="grey">+deqidx</text>
<text xml:space="preserve" text-anchor="start" x="149.1" y="-673" font-family="Helvetica,sans-Serif" font-size="10.00" fill="grey">+enqidx</text>
</g>
<!-- Node6 -->
<g id="Node000006" class="node">
<title>Node6</title>
<g id="a_Node000006"><a xlink:title=" ">
<polygon fill="white" stroke="none" points="293.25,-774.75 193.75,-774.75 193.75,-720.5 293.25,-720.5 293.25,-774.75"/>
<text xml:space="preserve" text-anchor="start" x="197.75" y="-761" font-family="Helvetica,sans-Serif" font-size="10.00">std::atomic&lt; T * &gt;</text>
<text xml:space="preserve" text-anchor="start" x="240.5" y="-744.25" font-family="Helvetica,sans-Serif" font-size="10.00"> </text>
<text xml:space="preserve" text-anchor="start" x="240.5" y="-727.5" font-family="Helvetica,sans-Serif" font-size="10.00"> </text>
<polygon fill="#666666" stroke="#666666" points="193.75,-756 193.75,-756 293.25,-756 293.25,-756 193.75,-756"/>
<polygon fill="#666666" stroke="#666666" points="193.75,-739.25 193.75,-739.25 293.25,-739.25 293.25,-739.25 193.75,-739.25"/>
<polygon fill="none" stroke="#666666" points="193.75,-720.5 193.75,-774.75 293.25,-774.75 293.25,-720.5 193.75,-720.5"/>
</a>
</g>
</g>
<!-- Node6&#45;&gt;Node4 -->
<g id="edge5_Node000004_Node000006" class="edge">
<title>Node6&#45;&gt;Node4</title>
<g id="a_edge5_Node000004_Node000006"><a xlink:title=" ">
<path fill="none" stroke="#63b8ff" d="M228.75,-720.71C219.8,-705.09 208.11,-684.84 197.5,-667 196.14,-664.71 194.74,-662.37 193.32,-660.01"/>
<polygon fill="none" stroke="#63b8ff" points="193.28,-659.95 186.76,-656.88 187.08,-649.67 193.61,-652.74 193.28,-659.95"/>
</a>
</g>
<text xml:space="preserve" text-anchor="start" x="220.89" y="-681.38" font-family="Helvetica,sans-Serif" font-size="10.00" fill="grey">+items</text>
</g>
<!-- Node7 -->
<g id="Node000007" class="node">
<title>Node7</title>
<g id="a_Node000007"><a xlink:title=" ">
<polygon fill="white" stroke="none" points="250.5,-883.75 236.5,-883.75 236.5,-829.5 250.5,-829.5 250.5,-883.75"/>
<text xml:space="preserve" text-anchor="start" x="240.5" y="-870" font-family="Helvetica,sans-Serif" font-size="10.00">T</text>
<text xml:space="preserve" text-anchor="start" x="240.5" y="-853.25" font-family="Helvetica,sans-Serif" font-size="10.00"> </text>
<text xml:space="preserve" text-anchor="start" x="240.5" y="-836.5" font-family="Helvetica,sans-Serif" font-size="10.00"> </text>
<polygon fill="#666666" stroke="#666666" points="236.5,-865 236.5,-865 250.5,-865 250.5,-865 236.5,-865"/>
<polygon fill="#666666" stroke="#666666" points="236.5,-848.25 236.5,-848.25 250.5,-848.25 250.5,-848.25 236.5,-848.25"/>
<polygon fill="none" stroke="#666666" points="236.5,-829.5 236.5,-883.75 250.5,-883.75 250.5,-829.5 236.5,-829.5"/>
</a>
</g>
</g>
<!-- Node7&#45;&gt;Node6 -->
<g id="edge6_Node000006_Node000007" class="edge">
<title>Node7&#45;&gt;Node6</title>
<g id="a_edge6_Node000006_Node000007"><a xlink:title=" ">
<path fill="none" stroke="#63b8ff" d="M243.5,-829.72C243.5,-817.07 243.5,-801.58 243.5,-787.54"/>
<polygon fill="none" stroke="#63b8ff" points="243.5,-787.56 239.5,-781.56 243.5,-775.56 247.5,-781.56 243.5,-787.56"/>
</a>
</g>
<text xml:space="preserve" text-anchor="start" x="246.5" y="-798.75" font-family="Helvetica,sans-Serif" font-size="10.00" fill="grey">+ptr</text>
</g>
<!-- Node8&#45;&gt;Node4 -->
<g id="edge7_Node000004_Node000008" class="edge">
<title>Node8&#45;&gt;Node4</title>
<g id="a_edge7_Node000004_Node000008"><a xlink:title=" ">
<path fill="none" stroke="#63b8ff" d="M207.66,-476.99C204.09,-497.49 198.46,-524.33 190.5,-547.25 189.78,-549.32 189,-551.42 188.19,-553.51"/>
<polygon fill="none" stroke="#63b8ff" points="188.14,-553.62 189.48,-560.71 183.46,-564.68 182.12,-557.59 188.14,-553.62"/>
</a>
</g>
<text xml:space="preserve" text-anchor="start" x="198.65" y="-534.5" font-family="Helvetica,sans-Serif" font-size="10.00" fill="grey">+next</text>
</g>
<!-- Node9 -->
<g id="Node000009" class="node">
<title>Node9</title>
<g id="a_Node000009"><a xlink:href="$classFHazardPointerCollection_1_1FHazardRecord.html" xlink:title=" ">
<polygon fill="white" stroke="none" points="437.38,-510.5 305.62,-510.5 305.62,-376.5 437.38,-376.5 437.38,-510.5"/>
<text xml:space="preserve" text-anchor="start" x="309.62" y="-496.75" font-family="Helvetica,sans-Serif" font-size="10.00">FHazardPointerCollection</text>
<text xml:space="preserve" text-anchor="start" x="331.38" y="-484" font-family="Helvetica,sans-Serif" font-size="10.00">::FHazardRecord</text>
<text xml:space="preserve" text-anchor="start" x="318.19" y="-467.25" font-family="Helvetica,sans-Serif" font-size="10.00">&#45;</text>
<text xml:space="preserve" text-anchor="start" x="334.5" y="-467.25" font-family="Helvetica,sans-Serif" font-size="10.00">FreeHazardEntry</text>
<text xml:space="preserve" text-anchor="start" x="318.19" y="-450.5" font-family="Helvetica,sans-Serif" font-size="10.00">&#45;</text>
<text xml:space="preserve" text-anchor="start" x="334.5" y="-450.5" font-family="Helvetica,sans-Serif" font-size="10.00">FHazardRecord()</text>
<text xml:space="preserve" text-anchor="start" x="318.19" y="-433.75" font-family="Helvetica,sans-Serif" font-size="10.00">&#45;</text>
<text xml:space="preserve" text-anchor="start" x="334.5" y="-433.75" font-family="Helvetica,sans-Serif" font-size="10.00">GetHazard()</text>
<text xml:space="preserve" text-anchor="start" x="318.19" y="-417" font-family="Helvetica,sans-Serif" font-size="10.00">&#45;</text>
<text xml:space="preserve" text-anchor="start" x="334.5" y="-417" font-family="Helvetica,sans-Serif" font-size="10.00">SetHazard()</text>
<text xml:space="preserve" text-anchor="start" x="318.19" y="-400.25" font-family="Helvetica,sans-Serif" font-size="10.00">&#45;</text>
<text xml:space="preserve" text-anchor="start" x="334.5" y="-400.25" font-family="Helvetica,sans-Serif" font-size="10.00">Retire()</text>
<text xml:space="preserve" text-anchor="start" x="318.19" y="-383.5" font-family="Helvetica,sans-Serif" font-size="10.00">&#45;</text>
<text xml:space="preserve" text-anchor="start" x="334.5" y="-383.5" font-family="Helvetica,sans-Serif" font-size="10.00">Release()</text>
<polygon fill="#666666" stroke="#666666" points="305.62,-479 305.62,-479 437.38,-479 437.38,-479 305.62,-479"/>
<polygon fill="#666666" stroke="#666666" points="305.62,-462.25 305.62,-462.25 332.5,-462.25 332.5,-462.25 305.62,-462.25"/>
<polygon fill="#666666" stroke="#666666" points="332.5,-462.25 332.5,-462.25 437.38,-462.25 437.38,-462.25 332.5,-462.25"/>
<polygon fill="none" stroke="#666666" points="305.62,-376.5 305.62,-510.5 437.38,-510.5 437.38,-376.5 305.62,-376.5"/>
</a>
</g>
</g>
<!-- Node9&#45;&gt;Node2 -->
<g id="edge9_Node000002_Node000009" class="edge">
<title>Node9&#45;&gt;Node2</title>
<g id="a_edge9_Node000002_Node000009"><a xlink:title=" ">
<path fill="none" stroke="#63b8ff" d="M320.74,-376.71C308.87,-361.32 296.03,-344.68 283.52,-328.46"/>
<polygon fill="none" stroke="#63b8ff" points="283.66,-328.64 276.83,-326.33 276.33,-319.14 283.16,-321.45 283.66,-328.64"/>
</a>
</g>
<text xml:space="preserve" text-anchor="start" x="305.4" y="-345.75" font-family="Helvetica,sans-Serif" font-size="10.00" fill="grey">&#45;Record</text>
</g>
<!-- Node10 -->
<g id="Node000010" class="node">
<title>Node10</title>
<g id="a_Node000010"><a xlink:title=" ">
<polygon fill="white" stroke="none" points="434.75,-634.25 308.25,-634.25 308.25,-580 434.75,-580 434.75,-634.25"/>
<text xml:space="preserve" text-anchor="start" x="312.25" y="-620.5" font-family="Helvetica,sans-Serif" font-size="10.00">std::atomic&lt; uintptr_t &gt;</text>
<text xml:space="preserve" text-anchor="start" x="335.44" y="-603.75" font-family="Helvetica,sans-Serif" font-size="10.00">+</text>
<text xml:space="preserve" text-anchor="start" x="370.88" y="-603.75" font-family="Helvetica,sans-Serif" font-size="10.00">ptr</text>
<text xml:space="preserve" text-anchor="start" x="368.5" y="-587" font-family="Helvetica,sans-Serif" font-size="10.00"> </text>
<polygon fill="#666666" stroke="#666666" points="308.25,-615.5 308.25,-615.5 434.75,-615.5 434.75,-615.5 308.25,-615.5"/>
<polygon fill="#666666" stroke="#666666" points="308.25,-598.75 308.25,-598.75 368.88,-598.75 368.88,-598.75 308.25,-598.75"/>
<polygon fill="#666666" stroke="#666666" points="368.88,-598.75 368.88,-598.75 434.75,-598.75 434.75,-598.75 368.88,-598.75"/>
<polygon fill="none" stroke="#666666" points="308.25,-580 308.25,-634.25 434.75,-634.25 434.75,-580 308.25,-580"/>
</a>
</g>
</g>
<!-- Node10&#45;&gt;Node9 -->
<g id="edge10_Node000009_Node000010" class="edge">
<title>Node10&#45;&gt;Node9</title>
<g id="a_edge10_Node000009_Node000010"><a xlink:title=" ">
<path fill="none" stroke="#63b8ff" d="M371.5,-580.16C371.5,-564.49 371.5,-543.62 371.5,-522.95"/>
<polygon fill="none" stroke="#63b8ff" points="371.5,-523.06 367.5,-517.06 371.5,-511.06 375.5,-517.06 371.5,-523.06"/>
</a>
</g>
<text xml:space="preserve" text-anchor="start" x="374.5" y="-534.5" font-family="Helvetica,sans-Serif" font-size="10.00" fill="grey">&#45;Hazard</text>
</g>
</g>
</svg>
