<?xml version="1.0" encoding="UTF-8" standalone="no"?>
<!DOCTYPE svg PUBLIC "-//W3C//DTD SVG 1.1//EN"
 "http://www.w3.org/Graphics/SVG/1.1/DTD/svg11.dtd">
<!-- Generated by graphviz version 14.1.4 (0)
 -->
<!-- Title: SharedPointerInternals::TReferenceControllerWithDeleter::operator= Pages: 1 -->
<svg width="730pt" height="70pt"
 viewBox="0.00 0.00 730.00 70.00" xmlns="http://www.w3.org/2000/svg" xmlns:xlink="http://www.w3.org/1999/xlink">
<g id="graph0" class="graph" transform="scale(1 1) rotate(0) translate(4 65.88)">
<title>SharedPointerInternals::TReferenceControllerWithDeleter::operator=</title>
<!-- Node1 -->
<g id="Node000001" class="node">
<title>Node1</title>
<g id="a_Node000001"><a xlink:title=" ">
<polygon fill="#999999" stroke="#666666" points="184,-61.88 0,-61.88 0,-15.62 184,-15.62 184,-61.88"/>
<text xml:space="preserve" text-anchor="start" x="8" y="-48.38" font-family="Helvetica,sans-Serif" font-size="10.00">SharedPointerInternals</text>
<text xml:space="preserve" text-anchor="start" x="8" y="-35.62" font-family="Helvetica,sans-Serif" font-size="10.00">::TReferenceControllerWithDeleter</text>
<text xml:space="preserve" text-anchor="middle" x="92" y="-22.88" font-family="Helvetica,sans-Serif" font-size="10.00">::operator=</text>
</a>
</g>
</g>
<!-- Node2 -->
<g id="Node000002" class="node">
<title>Node2</title>
<g id="a_Node000002"><a xlink:href="$classSharedPointerInternals_1_1TReferenceControllerWithDeleter.html#a803ce2cc3af3f8c425505a8a4911aa60" xlink:title=" ">
<polygon fill="white" stroke="#666666" points="404,-61.88 220,-61.88 220,-15.62 404,-15.62 404,-61.88"/>
<text xml:space="preserve" text-anchor="start" x="228" y="-48.38" font-family="Helvetica,sans-Serif" font-size="10.00">SharedPointerInternals</text>
<text xml:space="preserve" text-anchor="start" x="228" y="-35.62" font-family="Helvetica,sans-Serif" font-size="10.00">::TReferenceControllerWithDeleter</text>
<text xml:space="preserve" text-anchor="middle" x="312" y="-22.88" font-family="Helvetica,sans-Serif" font-size="10.00">::TReferenceControllerWithDeleter</text>
</a>
</g>
</g>
<!-- Node1&#45;&gt;Node2 -->
<g id="edge1_Node000001_Node000002" class="edge">
<title>Node1&#45;&gt;Node2</title>
<g id="a_edge1_Node000001_Node000002"><a xlink:title=" ">
<path fill="none" stroke="#63b8ff" d="M184.19,-38.75C192.2,-38.75 200.34,-38.75 208.43,-38.75"/>
<polygon fill="#63b8ff" stroke="#63b8ff" points="208.31,-42.25 218.31,-38.75 208.31,-35.25 208.31,-42.25"/>
</a>
</g>
</g>
<!-- Node3 -->
<g id="Node000003" class="node">
<title>Node3</title>
<g id="a_Node000003"><a xlink:href="$UnrealTemplate_8h.html#a6affb55ac4c80f005e72b931da3d3a55" xlink:title=" ">
<polygon fill="white" stroke="#666666" points="721.75,-49.12 652.5,-49.12 652.5,-28.38 721.75,-28.38 721.75,-49.12"/>
<text xml:space="preserve" text-anchor="middle" x="687.12" y="-35.62" font-family="Helvetica,sans-Serif" font-size="10.00">MoveTemp</text>
</a>
</g>
</g>
<!-- Node2&#45;&gt;Node3 -->
<g id="edge2_Node000002_Node000003" class="edge">
<title>Node2&#45;&gt;Node3</title>
<g id="a_edge2_Node000002_Node000003"><a xlink:title=" ">
<path fill="none" stroke="#63b8ff" d="M404.32,-41.95C464.58,-43.56 545.26,-44.79 616.5,-42.75 624.4,-42.52 632.79,-42.15 640.92,-41.73"/>
<polygon fill="#63b8ff" stroke="#63b8ff" points="640.85,-45.23 650.63,-41.18 640.45,-38.25 640.85,-45.23"/>
</a>
</g>
</g>
<!-- Node4 -->
<g id="Node000004" class="node">
<title>Node4</title>
<g id="a_Node000004"><a xlink:href="$structSharedPointerInternals_1_1TDeleterHolder.html#ab1b50945be30e6cbb8206f4b99a4febd" xlink:title=" ">
<polygon fill="white" stroke="#666666" points="616.5,-33.5 440,-33.5 440,0 616.5,0 616.5,-33.5"/>
<text xml:space="preserve" text-anchor="start" x="448" y="-20" font-family="Helvetica,sans-Serif" font-size="10.00">SharedPointerInternals</text>
<text xml:space="preserve" text-anchor="middle" x="528.25" y="-7.25" font-family="Helvetica,sans-Serif" font-size="10.00">::TDeleterHolder::TDeleterHolder</text>
</a>
</g>
</g>
<!-- Node2&#45;&gt;Node4 -->
<g id="edge3_Node000002_Node000004" class="edge">
<title>Node2&#45;&gt;Node4</title>
<g id="a_edge3_Node000002_Node000004"><a xlink:title=" ">
<path fill="none" stroke="#63b8ff" d="M404.48,-29.36C412.45,-28.54 420.53,-27.71 428.54,-26.89"/>
<polygon fill="#63b8ff" stroke="#63b8ff" points="428.72,-30.39 438.31,-25.88 428,-23.42 428.72,-30.39"/>
</a>
</g>
</g>
<!-- Node4&#45;&gt;Node3 -->
<g id="edge4_Node000004_Node000003" class="edge">
<title>Node4&#45;&gt;Node3</title>
<g id="a_edge4_Node000004_Node000003"><a xlink:title=" ">
<path fill="none" stroke="#63b8ff" d="M616.86,-29.04C625.16,-30.2 633.31,-31.34 640.95,-32.42"/>
<polygon fill="#63b8ff" stroke="#63b8ff" points="640.22,-35.85 650.6,-33.77 641.19,-28.91 640.22,-35.85"/>
</a>
</g>
</g>
</g>
</svg>
