<?xml version="1.0" encoding="UTF-8" standalone="no"?>
<!DOCTYPE svg PUBLIC "-//W3C//DTD SVG 1.1//EN"
 "http://www.w3.org/Graphics/SVG/1.1/DTD/svg11.dtd">
<!-- Generated by graphviz version 14.1.4 (0)
 -->
<!-- Title: UDistributionFloatConstantCurve Pages: 1 -->
<!--zoomable 714 -->

<svg id="main" version="1.1" xmlns="http://www.w3.org/2000/svg" xmlns:xlink="http://www.w3.org/1999/xlink" xml:space="preserve" onload="init(evt)">

<style type="text/css"><![CDATA[
.node, .edge {opacity: 0.7;}
.node.selected, .edge.selected {opacity: 1;}
.edge:hover path { stroke: red; }
.edge:hover polygon { stroke: red; fill: red; }
]]></style>

<defs>
  <circle id="rim" cx="0" cy="0" r="7"/>
  <circle id="rim2" cx="0" cy="0" r="3.5"/>
  <g id="zoomPlus">
    <use xlink:href="#rim" fill="#404040"><set attributeName="fill" to="#808080" begin="zoomplus.mouseover" end="zoomplus.mouseout"/></use>
    <path d="M-4,0h8M0,-4v8" fill="none" stroke="white" stroke-width="1.5" pointer-events="none"/>
  </g>
  <g id="zoomMin">
    <use xlink:href="#rim" fill="#404040"><set attributeName="fill" to="#808080" begin="zoomminus.mouseover" end="zoomminus.mouseout"/></use>
    <path d="M-4,0h8" fill="none" stroke="white" stroke-width="1.5" pointer-events="none"/>
  </g>
  <g id="arrowUp" transform="translate(30 24)">
    <use xlink:href="#rim"/>
    <path pointer-events="none" fill="none" stroke="white" stroke-width="1.5" d="M0,-3.0v7 M-2.5,-0.5L0,-3.0L2.5,-0.5"/>
  </g>
  <g id="arrowRight" transform="rotate(90) translate(36 -43)">
    <use xlink:href="#rim"/>
    <path pointer-events="none" fill="none" stroke="white" stroke-width="1.5" d="M0,-3.0v7 M-2.5,-0.5L0,-3.0L2.5,-0.5"/>
  </g>
  <g id="arrowDown" transform="rotate(180) translate(-30 -48)">
    <use xlink:href="#rim"/>
    <path pointer-events="none" fill="none" stroke="white" stroke-width="1.5" d="M0,-3.0v7 M-2.5,-0.5L0,-3.0L2.5,-0.5"/>
  </g>
  <g id="arrowLeft" transform="rotate(270) translate(-36 17)">
    <use xlink:href="#rim"/>
    <path pointer-events="none" fill="none" stroke="white" stroke-width="1.5" d="M0,-3.0v7 M-2.5,-0.5L0,-3.0L2.5,-0.5"/>
  </g>
  <g id="resetDef">
    <use xlink:href="#rim2" fill="#404040"><set attributeName="fill" to="#808080" begin="reset.mouseover" end="reset.mouseout"/></use>
  </g>
</defs>
<script type="application/ecmascript">
var viewWidth = 173;
var viewHeight = 714;
var sectionId = 'dynsection-0';
</script>
<script type="application/ecmascript" xlink:href="svg.min.js"/>
<svg id="graph" class="graph">
<g id="viewport">
<title>UDistributionFloatConstantCurve</title>
<!-- Node1 -->
<g id="Node000001" class="node">
<title>Node1</title>
<g id="a_Node000001"><a xlink:title=" ">
<polygon fill="#999999" stroke="none" points="140.75,-234.5 0,-234.5 0,0 140.75,0 140.75,-234.5"/>
<text xml:space="preserve" text-anchor="start" x="4" y="-220.75" font-family="Helvetica,sans-Serif" font-size="10.00">UDistributionFloatConstant</text>
<text xml:space="preserve" text-anchor="start" x="56.12" y="-208" font-family="Helvetica,sans-Serif" font-size="10.00">Curve</text>
<text xml:space="preserve" text-anchor="start" x="10.31" y="-191.25" font-family="Helvetica,sans-Serif" font-size="10.00">&#45;</text>
<text xml:space="preserve" text-anchor="start" x="24.38" y="-191.25" font-family="Helvetica,sans-Serif" font-size="10.00">ConstantCurve</text>
<text xml:space="preserve" text-anchor="start" x="10.31" y="-174.5" font-family="Helvetica,sans-Serif" font-size="10.00">&#45;</text>
<text xml:space="preserve" text-anchor="start" x="24.38" y="-174.5" font-family="Helvetica,sans-Serif" font-size="10.00">GetValue()</text>
<text xml:space="preserve" text-anchor="start" x="10.31" y="-157.75" font-family="Helvetica,sans-Serif" font-size="10.00">&#45;</text>
<text xml:space="preserve" text-anchor="start" x="24.38" y="-157.75" font-family="Helvetica,sans-Serif" font-size="10.00">GetNumKeys()</text>
<text xml:space="preserve" text-anchor="start" x="10.31" y="-141" font-family="Helvetica,sans-Serif" font-size="10.00">&#45;</text>
<text xml:space="preserve" text-anchor="start" x="24.38" y="-141" font-family="Helvetica,sans-Serif" font-size="10.00">GetNumSubCurves()</text>
<text xml:space="preserve" text-anchor="start" x="10.31" y="-124.25" font-family="Helvetica,sans-Serif" font-size="10.00">&#45;</text>
<text xml:space="preserve" text-anchor="start" x="24.38" y="-124.25" font-family="Helvetica,sans-Serif" font-size="10.00">GetKeyIn()</text>
<text xml:space="preserve" text-anchor="start" x="10.31" y="-107.5" font-family="Helvetica,sans-Serif" font-size="10.00">&#45;</text>
<text xml:space="preserve" text-anchor="start" x="24.38" y="-107.5" font-family="Helvetica,sans-Serif" font-size="10.00">GetKeyOut()</text>
<text xml:space="preserve" text-anchor="start" x="10.31" y="-90.75" font-family="Helvetica,sans-Serif" font-size="10.00">&#45;</text>
<text xml:space="preserve" text-anchor="start" x="24.38" y="-90.75" font-family="Helvetica,sans-Serif" font-size="10.00">GetKeyColor()</text>
<text xml:space="preserve" text-anchor="start" x="10.31" y="-74" font-family="Helvetica,sans-Serif" font-size="10.00">&#45;</text>
<text xml:space="preserve" text-anchor="start" x="24.38" y="-74" font-family="Helvetica,sans-Serif" font-size="10.00">GetInRange()</text>
<text xml:space="preserve" text-anchor="start" x="10.31" y="-57.25" font-family="Helvetica,sans-Serif" font-size="10.00">&#45;</text>
<text xml:space="preserve" text-anchor="start" x="24.38" y="-57.25" font-family="Helvetica,sans-Serif" font-size="10.00">GetOutRange()</text>
<text xml:space="preserve" text-anchor="start" x="10.31" y="-40.5" font-family="Helvetica,sans-Serif" font-size="10.00">&#45;</text>
<text xml:space="preserve" text-anchor="start" x="24.38" y="-40.5" font-family="Helvetica,sans-Serif" font-size="10.00">GetKeyInterpMode()</text>
<text xml:space="preserve" text-anchor="start" x="10.31" y="-23.75" font-family="Helvetica,sans-Serif" font-size="10.00">&#45;</text>
<text xml:space="preserve" text-anchor="start" x="24.38" y="-23.75" font-family="Helvetica,sans-Serif" font-size="10.00">GetTangents()</text>
<text xml:space="preserve" text-anchor="start" x="24.38" y="-7" font-family="Helvetica,sans-Serif" font-size="10.00">and 7 more...</text>
<polygon fill="#666666" stroke="#666666" points="0,-203 0,-203 140.75,-203 140.75,-203 0,-203"/>
<polygon fill="#666666" stroke="#666666" points="0,-186.25 0,-186.25 22.38,-186.25 22.38,-186.25 0,-186.25"/>
<polygon fill="#666666" stroke="#666666" points="22.38,-186.25 22.38,-186.25 140.75,-186.25 140.75,-186.25 22.38,-186.25"/>
<polygon fill="none" stroke="#666666" points="0,0 0,-234.5 140.75,-234.5 140.75,0 0,0"/>
</a>
</g>
</g>
<!-- Node2 -->
<g id="Node000002" class="node">
<title>Node2</title>
<g id="a_Node000002"><a xlink:href="classUDistributionFloat.html" target="_top" xlink:title=" ">
<polygon fill="white" stroke="none" points="137.88,-525.75 2.88,-525.75 2.88,-270.5 137.88,-270.5 137.88,-525.75"/>
<text xml:space="preserve" text-anchor="start" x="25.75" y="-512" font-family="Helvetica,sans-Serif" font-size="10.00">UDistributionFloat</text>
<text xml:space="preserve" text-anchor="start" x="6.88" y="-495.25" font-family="Helvetica,sans-Serif" font-size="10.00">#</text>
<text xml:space="preserve" text-anchor="start" x="19.12" y="-495.25" font-family="Helvetica,sans-Serif" font-size="10.00">bBakedDataSuccesfully</text>
<text xml:space="preserve" text-anchor="start" x="9.12" y="-478.5" font-family="Helvetica,sans-Serif" font-size="10.00">&#45;</text>
<text xml:space="preserve" text-anchor="start" x="19.12" y="-478.5" font-family="Helvetica,sans-Serif" font-size="10.00">bCanBeBaked</text>
<text xml:space="preserve" text-anchor="start" x="9.12" y="-461.75" font-family="Helvetica,sans-Serif" font-size="10.00">&#45;</text>
<text xml:space="preserve" text-anchor="start" x="19.12" y="-461.75" font-family="Helvetica,sans-Serif" font-size="10.00">bIsDirty</text>
<text xml:space="preserve" text-anchor="start" x="6.88" y="-445" font-family="Helvetica,sans-Serif" font-size="10.00">+</text>
<text xml:space="preserve" text-anchor="start" x="19.12" y="-445" font-family="Helvetica,sans-Serif" font-size="10.00">GetFloatValue()</text>
<text xml:space="preserve" text-anchor="start" x="6.88" y="-428.25" font-family="Helvetica,sans-Serif" font-size="10.00">+</text>
<text xml:space="preserve" text-anchor="start" x="19.12" y="-428.25" font-family="Helvetica,sans-Serif" font-size="10.00">UDistributionFloat()</text>
<text xml:space="preserve" text-anchor="start" x="6.88" y="-411.5" font-family="Helvetica,sans-Serif" font-size="10.00">+</text>
<text xml:space="preserve" text-anchor="start" x="19.12" y="-411.5" font-family="Helvetica,sans-Serif" font-size="10.00">GetOperation()</text>
<text xml:space="preserve" text-anchor="start" x="6.88" y="-394.75" font-family="Helvetica,sans-Serif" font-size="10.00">+</text>
<text xml:space="preserve" text-anchor="start" x="19.12" y="-394.75" font-family="Helvetica,sans-Serif" font-size="10.00">GetLockFlag()</text>
<text xml:space="preserve" text-anchor="start" x="6.88" y="-378" font-family="Helvetica,sans-Serif" font-size="10.00">+</text>
<text xml:space="preserve" text-anchor="start" x="19.12" y="-378" font-family="Helvetica,sans-Serif" font-size="10.00">InitializeRawEntry()</text>
<text xml:space="preserve" text-anchor="start" x="6.88" y="-361.25" font-family="Helvetica,sans-Serif" font-size="10.00">+</text>
<text xml:space="preserve" text-anchor="start" x="19.12" y="-361.25" font-family="Helvetica,sans-Serif" font-size="10.00">GetValue()</text>
<text xml:space="preserve" text-anchor="start" x="6.88" y="-344.5" font-family="Helvetica,sans-Serif" font-size="10.00">+</text>
<text xml:space="preserve" text-anchor="start" x="19.12" y="-344.5" font-family="Helvetica,sans-Serif" font-size="10.00">GetInRange()</text>
<text xml:space="preserve" text-anchor="start" x="6.88" y="-327.75" font-family="Helvetica,sans-Serif" font-size="10.00">+</text>
<text xml:space="preserve" text-anchor="start" x="19.12" y="-327.75" font-family="Helvetica,sans-Serif" font-size="10.00">GetOutRange()</text>
<text xml:space="preserve" text-anchor="start" x="6.88" y="-311" font-family="Helvetica,sans-Serif" font-size="10.00">+</text>
<text xml:space="preserve" text-anchor="start" x="19.12" y="-311" font-family="Helvetica,sans-Serif" font-size="10.00">CanBeBaked()</text>
<text xml:space="preserve" text-anchor="start" x="6.88" y="-294.25" font-family="Helvetica,sans-Serif" font-size="10.00">+</text>
<text xml:space="preserve" text-anchor="start" x="19.12" y="-294.25" font-family="Helvetica,sans-Serif" font-size="10.00">HasBakedSuccesfully()</text>
<text xml:space="preserve" text-anchor="start" x="19.12" y="-277.5" font-family="Helvetica,sans-Serif" font-size="10.00">and 6 more...</text>
<polygon fill="#666666" stroke="#666666" points="2.88,-507 2.88,-507 137.88,-507 137.88,-507 2.88,-507"/>
<polygon fill="#666666" stroke="#666666" points="2.88,-456.75 2.88,-456.75 17.12,-456.75 17.12,-456.75 2.88,-456.75"/>
<polygon fill="#666666" stroke="#666666" points="17.12,-456.75 17.12,-456.75 137.88,-456.75 137.88,-456.75 17.12,-456.75"/>
<polygon fill="none" stroke="#666666" points="2.88,-270.5 2.88,-525.75 137.88,-525.75 137.88,-270.5 2.88,-270.5"/>
</a>
</g>
</g>
<!-- Node2&#45;&gt;Node1 -->
<g id="edge1_Node000001_Node000002" class="edge">
<title>Node2&#45;&gt;Node1</title>
<g id="a_edge1_Node000001_Node000002"><a xlink:title=" ">
<path fill="none" stroke="#63b8ff" d="M70.38,-259.37C70.38,-251.01 70.38,-242.65 70.38,-234.4"/>
<polygon fill="none" stroke="#63b8ff" points="66.88,-259.23 70.38,-269.23 73.88,-259.23 66.88,-259.23"/>
</a>
</g>
</g>
<!-- Node3 -->
<g id="Node000003" class="node">
<title>Node3</title>
<g id="a_Node000003"><a xlink:href="classUDistribution.html" target="_top" xlink:title=" ">
<polygon fill="white" stroke="none" points="136,-616 4.75,-616 4.75,-561.75 136,-561.75 136,-616"/>
<text xml:space="preserve" text-anchor="start" x="38.12" y="-602.25" font-family="Helvetica,sans-Serif" font-size="10.00">UDistribution</text>
<text xml:space="preserve" text-anchor="start" x="8.75" y="-585.5" font-family="Helvetica,sans-Serif" font-size="10.00">&#45;</text>
<text xml:space="preserve" text-anchor="start" x="16.5" y="-585.5" font-family="Helvetica,sans-Serif" font-size="10.00">DefaultValue</text>
<text xml:space="preserve" text-anchor="start" x="8.75" y="-568.75" font-family="Helvetica,sans-Serif" font-size="10.00">&#45;</text>
<text xml:space="preserve" text-anchor="start" x="16.5" y="-568.75" font-family="Helvetica,sans-Serif" font-size="10.00">IsPostLoadThreadSafe()</text>
<polygon fill="#666666" stroke="#666666" points="4.75,-597.25 4.75,-597.25 136,-597.25 136,-597.25 4.75,-597.25"/>
<polygon fill="#666666" stroke="#666666" points="4.75,-580.5 4.75,-580.5 14.5,-580.5 14.5,-580.5 4.75,-580.5"/>
<polygon fill="#666666" stroke="#666666" points="14.5,-580.5 14.5,-580.5 136,-580.5 136,-580.5 14.5,-580.5"/>
<polygon fill="none" stroke="#666666" points="4.75,-561.75 4.75,-616 136,-616 136,-561.75 4.75,-561.75"/>
</a>
</g>
</g>
<!-- Node3&#45;&gt;Node2 -->
<g id="edge2_Node000002_Node000003" class="edge">
<title>Node3&#45;&gt;Node2</title>
<g id="a_edge2_Node000002_Node000003"><a xlink:title=" ">
<path fill="none" stroke="#63b8ff" d="M70.38,-550.62C70.38,-542.9 70.38,-534.37 70.38,-525.39"/>
<polygon fill="none" stroke="#63b8ff" points="66.88,-550.51 70.38,-560.51 73.88,-550.51 66.88,-550.51"/>
</a>
</g>
</g>
<!-- Node4 -->
<g id="Node000004" class="node">
<title>Node4</title>
<g id="a_Node000004"><a xlink:title=" ">
<polygon fill="white" stroke="none" points="48.88,-706.25 1.87,-706.25 1.87,-652 48.88,-652 48.88,-706.25"/>
<text xml:space="preserve" text-anchor="start" x="5.88" y="-692.5" font-family="Helvetica,sans-Serif" font-size="10.00">UObject</text>
<text xml:space="preserve" text-anchor="start" x="22.38" y="-675.75" font-family="Helvetica,sans-Serif" font-size="10.00"> </text>
<text xml:space="preserve" text-anchor="start" x="22.38" y="-659" font-family="Helvetica,sans-Serif" font-size="10.00"> </text>
<polygon fill="#666666" stroke="#666666" points="1.88,-687.5 1.88,-687.5 48.88,-687.5 48.88,-687.5 1.88,-687.5"/>
<polygon fill="#666666" stroke="#666666" points="1.88,-670.75 1.88,-670.75 48.88,-670.75 48.88,-670.75 1.88,-670.75"/>
<polygon fill="none" stroke="#666666" points="1.88,-652 1.88,-706.25 48.88,-706.25 48.88,-652 1.88,-652"/>
</a>
</g>
</g>
<!-- Node4&#45;&gt;Node3 -->
<g id="edge3_Node000003_Node000004" class="edge">
<title>Node4&#45;&gt;Node3</title>
<g id="a_edge3_Node000003_Node000004"><a xlink:title=" ">
<path fill="none" stroke="#63b8ff" d="M43.72,-642.14C48.19,-633.39 52.88,-624.19 57.06,-615.99"/>
<polygon fill="none" stroke="#63b8ff" points="40.75,-640.28 39.32,-650.78 46.98,-643.46 40.75,-640.28"/>
</a>
</g>
</g>
<!-- Node5 -->
<g id="Node000005" class="node">
<title>Node5</title>
<g id="a_Node000005"><a xlink:title=" ">
<polygon fill="white" stroke="none" points="165.38,-706.25 67.38,-706.25 67.38,-652 165.38,-652 165.38,-706.25"/>
<text xml:space="preserve" text-anchor="start" x="71.38" y="-692.5" font-family="Helvetica,sans-Serif" font-size="10.00">FCurveEdInterface</text>
<text xml:space="preserve" text-anchor="start" x="113.38" y="-675.75" font-family="Helvetica,sans-Serif" font-size="10.00"> </text>
<text xml:space="preserve" text-anchor="start" x="113.38" y="-659" font-family="Helvetica,sans-Serif" font-size="10.00"> </text>
<polygon fill="#666666" stroke="#666666" points="67.38,-687.5 67.38,-687.5 165.38,-687.5 165.38,-687.5 67.38,-687.5"/>
<polygon fill="#666666" stroke="#666666" points="67.38,-670.75 67.38,-670.75 165.38,-670.75 165.38,-670.75 67.38,-670.75"/>
<polygon fill="none" stroke="#666666" points="67.38,-652 67.38,-706.25 165.38,-706.25 165.38,-652 67.38,-652"/>
</a>
</g>
</g>
<!-- Node5&#45;&gt;Node3 -->
<g id="edge4_Node000003_Node000005" class="edge">
<title>Node5&#45;&gt;Node3</title>
<g id="a_edge4_Node000003_Node000005"><a xlink:title=" ">
<path fill="none" stroke="#63b8ff" d="M97.62,-642.14C93.05,-633.39 88.26,-624.19 83.99,-615.99"/>
<polygon fill="none" stroke="#63b8ff" points="94.4,-643.53 102.12,-650.78 100.6,-640.3 94.4,-643.53"/>
</a>
</g>
</g>
</g>
</svg>

<g id="navigator" transform="translate(0 0)" fill="#404254">
  <rect fill="#f2f5e9" fill-opacity="0.5" stroke="#606060" stroke-width=".5" x="0" y="0" width="60" height="60"/>
  <use id="zoomplus" xlink:href="#zoomPlus" x="17" y="9" onmousedown="handleZoom(evt,'in')"/>
  <use id="zoomminus" xlink:href="#zoomMin" x="42" y="9" onmousedown="handleZoom(evt,'out')"/>
  <use id="reset" xlink:href="#resetDef" x="30" y="36" onmousedown="handleReset()"/>
   <use id="arrowup" xlink:href="#arrowUp" x="0" y="0" onmousedown="handlePan(0,-1)"/>
  <use id="arrowright" xlink:href="#arrowRight" x="0" y="0" onmousedown="handlePan(1,0)"/>
  <use id="arrowdown" xlink:href="#arrowDown" x="0" y="0" onmousedown="handlePan(0,1)"/>
  <use id="arrowleft" xlink:href="#arrowLeft" x="0" y="0" onmousedown="handlePan(-1,0)"/>
</g>
<svg viewBox="0 0 15 15" width="100%" height="30px" preserveAspectRatio="xMaxYMin meet">
 <g id="arrow_out" transform="scale(0.3 0.3)">
  <a xlink:href="classUDistributionFloatConstantCurve__inherit__graph_org.svg" target="_base">
   <rect id="button" ry="5" rx="5" y="6" x="6" height="38" width="38"
        fill="#f2f5e9" fill-opacity="0.5" stroke="#606060" stroke-width="1.0"/>
   <path id="arrow"
     d="M 11.500037,31.436501 C 11.940474,20.09759 22.043105,11.32322 32.158766,21.979434 L 37.068811,17.246167 C 37.068811,17.246167 37.088388,32 37.088388,32 L 22.160133,31.978069 C 22.160133,31.978069 26.997745,27.140456 26.997745,27.140456 C 18.528582,18.264221 13.291696,25.230495 11.500037,31.436501 z"
     style="fill:#404040;"/>
  </a>
 </g>
</svg>

<style type='text/css'>
<![CDATA[
[data-mouse-over-selected='false'] { opacity: 0.7; }
[data-mouse-over-selected='true']  { opacity: 1.0; }
]]>
</style>
<script type="application/ecmascript"><![CDATA[
document.addEventListener('DOMContentLoaded', (event) => {
  highlightEdges();
  highlightAdjacentNodes();
});
]]></script>
</svg>
