<?xml version="1.0" encoding="UTF-8" standalone="no"?>
<!DOCTYPE svg PUBLIC "-//W3C//DTD SVG 1.1//EN"
 "http://www.w3.org/Graphics/SVG/1.1/DTD/svg11.dtd">
<!-- Generated by graphviz version 14.1.4 (0)
 -->
<!-- Title: FTSTickerObjectBase Pages: 1 -->
<svg width="166pt" height="452pt"
 viewBox="0.00 0.00 166.00 452.00" xmlns="http://www.w3.org/2000/svg" xmlns:xlink="http://www.w3.org/1999/xlink">
<g id="graph0" class="graph" transform="scale(1 1) rotate(0) translate(4 448)">
<title>FTSTickerObjectBase</title>
<!-- Node1 -->
<g id="Node000001" class="node">
<title>Node1</title>
<g id="a_Node000001"><a xlink:title=" ">
<polygon fill="#999999" stroke="none" points="147.75,-104.5 9.75,-104.5 9.75,0 147.75,0 147.75,-104.5"/>
<text xml:space="preserve" text-anchor="start" x="27.75" y="-90.75" font-family="Helvetica,sans-Serif" font-size="10.00">FTSTickerObjectBase</text>
<text xml:space="preserve" text-anchor="start" x="75.75" y="-74" font-family="Helvetica,sans-Serif" font-size="10.00"> </text>
<text xml:space="preserve" text-anchor="start" x="13.75" y="-57.25" font-family="Helvetica,sans-Serif" font-size="10.00">+</text>
<text xml:space="preserve" text-anchor="start" x="26" y="-57.25" font-family="Helvetica,sans-Serif" font-size="10.00">UE_NONCOPYABLE()</text>
<text xml:space="preserve" text-anchor="start" x="13.75" y="-40.5" font-family="Helvetica,sans-Serif" font-size="10.00">+</text>
<text xml:space="preserve" text-anchor="start" x="26" y="-40.5" font-family="Helvetica,sans-Serif" font-size="10.00">FTSTickerObjectBase()</text>
<text xml:space="preserve" text-anchor="start" x="13.75" y="-23.75" font-family="Helvetica,sans-Serif" font-size="10.00">+</text>
<text xml:space="preserve" text-anchor="start" x="26" y="-23.75" font-family="Helvetica,sans-Serif" font-size="10.00">~FTSTickerObjectBase()</text>
<text xml:space="preserve" text-anchor="start" x="13.75" y="-7" font-family="Helvetica,sans-Serif" font-size="10.00">+</text>
<text xml:space="preserve" text-anchor="start" x="26" y="-7" font-family="Helvetica,sans-Serif" font-size="10.00">Tick()</text>
<polygon fill="#666666" stroke="#666666" points="9.75,-85.75 9.75,-85.75 147.75,-85.75 147.75,-85.75 9.75,-85.75"/>
<polygon fill="#666666" stroke="#666666" points="9.75,-69 9.75,-69 147.75,-69 147.75,-69 9.75,-69"/>
<polygon fill="none" stroke="#666666" points="9.75,0 9.75,-104.5 147.75,-104.5 147.75,0 9.75,0"/>
</a>
</g>
</g>
<!-- Node2 -->
<g id="Node000002" class="node">
<title>Node2</title>
<g id="a_Node000002"><a xlink:href="$classTWeakPtr.html" xlink:title=" ">
<polygon fill="white" stroke="none" points="157.5,-444 0,-444 0,-159.25 157.5,-159.25 157.5,-444"/>
<text xml:space="preserve" text-anchor="start" x="20.62" y="-430.25" font-family="Helvetica,sans-Serif" font-size="10.00">TWeakPtr&lt; FElement &gt;</text>
<text xml:space="preserve" text-anchor="start" x="4" y="-413.5" font-family="Helvetica,sans-Serif" font-size="10.00">+</text>
<text xml:space="preserve" text-anchor="start" x="16.25" y="-413.5" font-family="Helvetica,sans-Serif" font-size="10.00">Mode</text>
<text xml:space="preserve" text-anchor="start" x="4" y="-396.75" font-family="Helvetica,sans-Serif" font-size="10.00">+</text>
<text xml:space="preserve" text-anchor="start" x="16.25" y="-396.75" font-family="Helvetica,sans-Serif" font-size="10.00">bHasIntrusiveUnsetOptional</text>
<text xml:space="preserve" text-anchor="start" x="16.25" y="-384" font-family="Helvetica,sans-Serif" font-size="10.00">State</text>
<text xml:space="preserve" text-anchor="start" x="6.25" y="-367.25" font-family="Helvetica,sans-Serif" font-size="10.00">&#45;</text>
<text xml:space="preserve" text-anchor="start" x="16.25" y="-367.25" font-family="Helvetica,sans-Serif" font-size="10.00">Object</text>
<text xml:space="preserve" text-anchor="start" x="6.25" y="-350.5" font-family="Helvetica,sans-Serif" font-size="10.00">&#45;</text>
<text xml:space="preserve" text-anchor="start" x="16.25" y="-350.5" font-family="Helvetica,sans-Serif" font-size="10.00">WeakReferenceCount</text>
<text xml:space="preserve" text-anchor="start" x="4" y="-333.75" font-family="Helvetica,sans-Serif" font-size="10.00">+</text>
<text xml:space="preserve" text-anchor="start" x="16.25" y="-333.75" font-family="Helvetica,sans-Serif" font-size="10.00">TWeakPtr()</text>
<text xml:space="preserve" text-anchor="start" x="4" y="-317" font-family="Helvetica,sans-Serif" font-size="10.00">+</text>
<text xml:space="preserve" text-anchor="start" x="16.25" y="-317" font-family="Helvetica,sans-Serif" font-size="10.00">TWeakPtr()</text>
<text xml:space="preserve" text-anchor="start" x="4" y="-300.25" font-family="Helvetica,sans-Serif" font-size="10.00">+</text>
<text xml:space="preserve" text-anchor="start" x="16.25" y="-300.25" font-family="Helvetica,sans-Serif" font-size="10.00">TWeakPtr()</text>
<text xml:space="preserve" text-anchor="start" x="4" y="-283.5" font-family="Helvetica,sans-Serif" font-size="10.00">+</text>
<text xml:space="preserve" text-anchor="start" x="16.25" y="-283.5" font-family="Helvetica,sans-Serif" font-size="10.00">TWeakPtr()</text>
<text xml:space="preserve" text-anchor="start" x="4" y="-266.75" font-family="Helvetica,sans-Serif" font-size="10.00">+</text>
<text xml:space="preserve" text-anchor="start" x="16.25" y="-266.75" font-family="Helvetica,sans-Serif" font-size="10.00">TWeakPtr()</text>
<text xml:space="preserve" text-anchor="start" x="4" y="-250" font-family="Helvetica,sans-Serif" font-size="10.00">+</text>
<text xml:space="preserve" text-anchor="start" x="16.25" y="-250" font-family="Helvetica,sans-Serif" font-size="10.00">TWeakPtr()</text>
<text xml:space="preserve" text-anchor="start" x="4" y="-233.25" font-family="Helvetica,sans-Serif" font-size="10.00">+</text>
<text xml:space="preserve" text-anchor="start" x="16.25" y="-233.25" font-family="Helvetica,sans-Serif" font-size="10.00">TWeakPtr()</text>
<text xml:space="preserve" text-anchor="start" x="4" y="-216.5" font-family="Helvetica,sans-Serif" font-size="10.00">+</text>
<text xml:space="preserve" text-anchor="start" x="16.25" y="-216.5" font-family="Helvetica,sans-Serif" font-size="10.00">TWeakPtr()</text>
<text xml:space="preserve" text-anchor="start" x="4" y="-199.75" font-family="Helvetica,sans-Serif" font-size="10.00">+</text>
<text xml:space="preserve" text-anchor="start" x="16.25" y="-199.75" font-family="Helvetica,sans-Serif" font-size="10.00">TWeakPtr()</text>
<text xml:space="preserve" text-anchor="start" x="4" y="-183" font-family="Helvetica,sans-Serif" font-size="10.00">+</text>
<text xml:space="preserve" text-anchor="start" x="16.25" y="-183" font-family="Helvetica,sans-Serif" font-size="10.00">operator=()</text>
<text xml:space="preserve" text-anchor="start" x="16.25" y="-166.25" font-family="Helvetica,sans-Serif" font-size="10.00">and 14 more...</text>
<polygon fill="#666666" stroke="#666666" points="0,-425.25 0,-425.25 157.5,-425.25 157.5,-425.25 0,-425.25"/>
<polygon fill="#666666" stroke="#666666" points="0,-345.5 0,-345.5 14.25,-345.5 14.25,-345.5 0,-345.5"/>
<polygon fill="#666666" stroke="#666666" points="14.25,-345.5 14.25,-345.5 157.5,-345.5 157.5,-345.5 14.25,-345.5"/>
<polygon fill="none" stroke="#666666" points="0,-159.25 0,-444 157.5,-444 157.5,-159.25 0,-159.25"/>
</a>
</g>
</g>
<!-- Node2&#45;&gt;Node1 -->
<g id="edge1_Node000001_Node000002" class="edge">
<title>Node2&#45;&gt;Node1</title>
<g id="a_edge1_Node000001_Node000002"><a xlink:title=" ">
<path fill="none" stroke="#63b8ff" d="M78.75,-159.59C78.75,-144.87 78.75,-130.47 78.75,-117.27"/>
<polygon fill="none" stroke="#63b8ff" points="78.75,-117.4 74.75,-111.4 78.75,-105.4 82.75,-111.4 78.75,-117.4"/>
</a>
</g>
<text xml:space="preserve" text-anchor="start" x="81.75" y="-128.5" font-family="Helvetica,sans-Serif" font-size="10.00" fill="grey">&#45;TickHandle</text>
</g>
</g>
</svg>
