<?xml version="1.0" encoding="UTF-8" standalone="no"?>
<!DOCTYPE svg PUBLIC "-//W3C//DTD SVG 1.1//EN"
 "http://www.w3.org/Graphics/SVG/1.1/DTD/svg11.dtd">
<!-- Generated by graphviz version 14.1.4 (0)
 -->
<!-- Title: FThreadHeartBeat::FThreadHeartBeat Pages: 1 -->
<svg width="545pt" height="198pt"
 viewBox="0.00 0.00 545.00 198.00" xmlns="http://www.w3.org/2000/svg" xmlns:xlink="http://www.w3.org/1999/xlink">
<g id="graph0" class="graph" transform="scale(1 1) rotate(0) translate(4 193.5)">
<title>FThreadHeartBeat::FThreadHeartBeat</title>
<!-- Node1 -->
<g id="Node000001" class="node">
<title>Node1</title>
<g id="a_Node000001"><a xlink:title=" ">
<polygon fill="#999999" stroke="#666666" points="537,-130.5 386,-130.5 386,-97 537,-97 537,-130.5"/>
<text xml:space="preserve" text-anchor="start" x="394" y="-117" font-family="Helvetica,sans-Serif" font-size="10.00">FThreadHeartBeat::FThread</text>
<text xml:space="preserve" text-anchor="middle" x="461.5" y="-104.25" font-family="Helvetica,sans-Serif" font-size="10.00">HeartBeat</text>
</a>
</g>
</g>
<!-- Node2 -->
<g id="Node000002" class="node">
<title>Node2</title>
<g id="a_Node000002"><a xlink:href="$classFThreadHeartBeat.html#a13bef0e542c7f3610183a176cf20d026" xlink:title=" ">
<polygon fill="white" stroke="#666666" points="335.38,-144.12 206.88,-144.12 206.88,-123.38 335.38,-123.38 335.38,-144.12"/>
<text xml:space="preserve" text-anchor="middle" x="271.12" y="-130.62" font-family="Helvetica,sans-Serif" font-size="10.00">FThreadHeartBeat::Get</text>
</a>
</g>
</g>
<!-- Node1&#45;&gt;Node2 -->
<g id="edge1_Node000001_Node000002" class="edge">
<title>Node1&#45;&gt;Node2</title>
<g id="a_edge1_Node000001_Node000002"><a xlink:title=" ">
<path fill="none" stroke="#63b8ff" d="M374.18,-122.91C361.2,-124.29 348.02,-125.69 335.63,-127.01"/>
<polygon fill="#63b8ff" stroke="#63b8ff" points="374.43,-126.41 384,-121.87 373.69,-119.45 374.43,-126.41"/>
</a>
</g>
</g>
<!-- Node3 -->
<g id="Node000003" class="node">
<title>Node3</title>
<g id="a_Node000003"><a xlink:href="$classFThreadHeartBeat.html#a173bb52921c4ff3a7a9dcd8336dd442e" xlink:title=" ">
<polygon fill="white" stroke="#666666" points="350,-105.12 192.25,-105.12 192.25,-84.38 350,-84.38 350,-105.12"/>
<text xml:space="preserve" text-anchor="middle" x="271.12" y="-91.62" font-family="Helvetica,sans-Serif" font-size="10.00">FThreadHeartBeat::GetNoInit</text>
</a>
</g>
</g>
<!-- Node1&#45;&gt;Node3 -->
<g id="edge2_Node000001_Node000003" class="edge">
<title>Node1&#45;&gt;Node3</title>
<g id="a_edge2_Node000001_Node000003"><a xlink:title=" ">
<path fill="none" stroke="#63b8ff" d="M374.27,-105.05C366.26,-104.24 358.18,-103.43 350.25,-102.63"/>
<polygon fill="#63b8ff" stroke="#63b8ff" points="373.7,-108.51 384,-106.03 374.4,-101.55 373.7,-108.51"/>
</a>
</g>
</g>
<!-- Node4 -->
<g id="Node000004" class="node">
<title>Node4</title>
<g id="a_Node000004"><a xlink:href="$structFFunctionHeartBeatScope.html#a1e32cffef2743a157fae38696564d9b1" xlink:title=" ">
<polygon fill="white" stroke="#666666" points="152.12,-189.5 4.12,-189.5 4.12,-156 152.12,-156 152.12,-189.5"/>
<text xml:space="preserve" text-anchor="start" x="12.12" y="-176" font-family="Helvetica,sans-Serif" font-size="10.00">FFunctionHeartBeatScope</text>
<text xml:space="preserve" text-anchor="middle" x="78.12" y="-163.25" font-family="Helvetica,sans-Serif" font-size="10.00">::FFunctionHeartBeatScope</text>
</a>
</g>
</g>
<!-- Node3&#45;&gt;Node4 -->
<g id="edge3_Node000003_Node000004" class="edge">
<title>Node3&#45;&gt;Node4</title>
<g id="a_edge3_Node000003_Node000004"><a xlink:title=" ">
<path fill="none" stroke="#63b8ff" d="M203.75,-109.43C199.78,-111.03 195.92,-112.8 192.25,-114.75 173.35,-124.81 174.76,-136 156.25,-146.75 150.63,-150.01 144.54,-152.94 138.33,-155.55"/>
<polygon fill="#63b8ff" stroke="#63b8ff" points="204.79,-112.78 213.01,-106.09 202.42,-106.19 204.79,-112.78"/>
</a>
</g>
</g>
<!-- Node5 -->
<g id="Node000005" class="node">
<title>Node5</title>
<g id="a_Node000005"><a xlink:href="$structFSlowHeartBeatScope.html#ab13befcfbb6e636e33615b742c9a49f8" xlink:title=" ">
<polygon fill="white" stroke="#666666" points="143.12,-137.5 13.12,-137.5 13.12,-104 143.12,-104 143.12,-137.5"/>
<text xml:space="preserve" text-anchor="start" x="21.12" y="-124" font-family="Helvetica,sans-Serif" font-size="10.00">FSlowHeartBeatScope</text>
<text xml:space="preserve" text-anchor="middle" x="78.12" y="-111.25" font-family="Helvetica,sans-Serif" font-size="10.00">::FSlowHeartBeatScope</text>
</a>
</g>
</g>
<!-- Node3&#45;&gt;Node5 -->
<g id="edge4_Node000003_Node000005" class="edge">
<title>Node3&#45;&gt;Node5</title>
<g id="a_edge4_Node000003_Node000005"><a xlink:title=" ">
<path fill="none" stroke="#63b8ff" d="M180.5,-106.95C168.03,-108.65 155.43,-110.36 143.55,-111.98"/>
<polygon fill="#63b8ff" stroke="#63b8ff" points="180.95,-110.42 190.39,-105.6 180.01,-103.49 180.95,-110.42"/>
</a>
</g>
</g>
<!-- Node6 -->
<g id="Node000006" class="node">
<title>Node6</title>
<g id="a_Node000006"><a xlink:href="$structFFunctionHeartBeatScope.html#a9839a8a712e0a268c52fe431cdbed818" xlink:title=" ">
<polygon fill="white" stroke="#666666" points="156.25,-85.5 0,-85.5 0,-52 156.25,-52 156.25,-85.5"/>
<text xml:space="preserve" text-anchor="start" x="8" y="-72" font-family="Helvetica,sans-Serif" font-size="10.00">FFunctionHeartBeatScope</text>
<text xml:space="preserve" text-anchor="middle" x="78.12" y="-59.25" font-family="Helvetica,sans-Serif" font-size="10.00">::~FFunctionHeartBeatScope</text>
</a>
</g>
</g>
<!-- Node3&#45;&gt;Node6 -->
<g id="edge5_Node000003_Node000006" class="edge">
<title>Node3&#45;&gt;Node6</title>
<g id="a_edge5_Node000003_Node000006"><a xlink:title=" ">
<path fill="none" stroke="#63b8ff" d="M180.61,-82.57C172.6,-81.47 164.53,-80.38 156.62,-79.3"/>
<polygon fill="#63b8ff" stroke="#63b8ff" points="180.01,-86.01 190.39,-83.9 180.95,-79.08 180.01,-86.01"/>
</a>
</g>
</g>
<!-- Node7 -->
<g id="Node000007" class="node">
<title>Node7</title>
<g id="a_Node000007"><a xlink:href="$structFSlowHeartBeatScope.html#ae152b298b2287fadb44cd8cd9b09b29b" xlink:title=" ">
<polygon fill="white" stroke="#666666" points="147.25,-33.5 9,-33.5 9,0 147.25,0 147.25,-33.5"/>
<text xml:space="preserve" text-anchor="start" x="17" y="-20" font-family="Helvetica,sans-Serif" font-size="10.00">FSlowHeartBeatScope</text>
<text xml:space="preserve" text-anchor="middle" x="78.12" y="-7.25" font-family="Helvetica,sans-Serif" font-size="10.00">::~FSlowHeartBeatScope</text>
</a>
</g>
</g>
<!-- Node3&#45;&gt;Node7 -->
<g id="edge6_Node000003_Node000007" class="edge">
<title>Node3&#45;&gt;Node7</title>
<g id="a_edge6_Node000003_Node000007"><a xlink:title=" ">
<path fill="none" stroke="#63b8ff" d="M237.8,-78.91C215.21,-68.11 184.21,-53.81 156.25,-42.75 148.63,-39.73 140.5,-36.75 132.49,-33.94"/>
<polygon fill="#63b8ff" stroke="#63b8ff" points="236.27,-82.06 246.8,-83.24 239.31,-75.75 236.27,-82.06"/>
</a>
</g>
</g>
</g>
</svg>
