<?xml version="1.0" encoding="UTF-8" standalone="no"?>
<!DOCTYPE svg PUBLIC "-//W3C//DTD SVG 1.1//EN"
 "http://www.w3.org/Graphics/SVG/1.1/DTD/svg11.dtd">
<!-- Generated by graphviz version 14.1.4 (0)
 -->
<!-- Title: TMemoryImagePtr::SafeDelete Pages: 1 -->
<svg width="729pt" height="171pt"
 viewBox="0.00 0.00 729.00 171.00" xmlns="http://www.w3.org/2000/svg" xmlns:xlink="http://www.w3.org/1999/xlink">
<g id="graph0" class="graph" transform="scale(1 1) rotate(0) translate(4 166.75)">
<title>TMemoryImagePtr::SafeDelete</title>
<!-- Node1 -->
<g id="Node000001" class="node">
<title>Node1</title>
<g id="a_Node000001"><a xlink:title=" ">
<polygon fill="#999999" stroke="#666666" points="166.75,-62.75 0,-62.75 0,-42 166.75,-42 166.75,-62.75"/>
<text xml:space="preserve" text-anchor="middle" x="83.38" y="-49.25" font-family="Helvetica,sans-Serif" font-size="10.00">TMemoryImagePtr::SafeDelete</text>
</a>
</g>
</g>
<!-- Node2 -->
<g id="Node000002" class="node">
<title>Node2</title>
<g id="a_Node000002"><a xlink:href="$MemoryLayout_8h.html#a65b9987f118d07ff1b28973100634141" xlink:title=" ">
<polygon fill="white" stroke="#666666" points="340.25,-117.75 202.75,-117.75 202.75,-97 340.25,-97 340.25,-117.75"/>
<text xml:space="preserve" text-anchor="middle" x="271.5" y="-104.25" font-family="Helvetica,sans-Serif" font-size="10.00">DeleteObjectFromLayout</text>
</a>
</g>
</g>
<!-- Node1&#45;&gt;Node2 -->
<g id="edge1_Node000001_Node000002" class="edge">
<title>Node1&#45;&gt;Node2</title>
<g id="a_edge1_Node000001_Node000002"><a xlink:title=" ">
<path fill="none" stroke="#63b8ff" d="M121.15,-63.24C150.34,-71.87 191.36,-83.99 223.03,-93.35"/>
<polygon fill="#63b8ff" stroke="#63b8ff" points="221.77,-96.63 232.35,-96.1 223.75,-89.91 221.77,-96.63"/>
</a>
</g>
</g>
<!-- Node6 -->
<g id="Node000006" class="node">
<title>Node6</title>
<g id="a_Node000006"><a xlink:href="$classTMemoryImagePtr.html#a62be375285ef97a5156857f1a9a0eec5" xlink:title=" ">
<polygon fill="white" stroke="#666666" points="336.5,-62.75 206.5,-62.75 206.5,-42 336.5,-42 336.5,-62.75"/>
<text xml:space="preserve" text-anchor="middle" x="271.5" y="-49.25" font-family="Helvetica,sans-Serif" font-size="10.00">TMemoryImagePtr::Get</text>
</a>
</g>
</g>
<!-- Node1&#45;&gt;Node6 -->
<g id="edge5_Node000001_Node000006" class="edge">
<title>Node1&#45;&gt;Node6</title>
<g id="a_edge5_Node000001_Node000006"><a xlink:title=" ">
<path fill="none" stroke="#63b8ff" d="M167.1,-52.38C176.31,-52.38 185.66,-52.38 194.79,-52.38"/>
<polygon fill="#63b8ff" stroke="#63b8ff" points="194.68,-55.88 204.68,-52.38 194.68,-48.88 194.68,-55.88"/>
</a>
</g>
</g>
<!-- Node8 -->
<g id="Node000008" class="node">
<title>Node8</title>
<g id="a_Node000008"><a xlink:href="$classTMemoryImagePtr.html#a858b66bc94d0d7ee99ddf83514fd4826" xlink:title=" ">
<polygon fill="white" stroke="#666666" points="534,-20.75 380.75,-20.75 380.75,0 534,0 534,-20.75"/>
<text xml:space="preserve" text-anchor="middle" x="457.38" y="-7.25" font-family="Helvetica,sans-Serif" font-size="10.00">TMemoryImagePtr::IsFrozen</text>
</a>
</g>
</g>
<!-- Node1&#45;&gt;Node8 -->
<g id="edge8_Node000001_Node000008" class="edge">
<title>Node1&#45;&gt;Node8</title>
<g id="a_edge8_Node000001_Node000008"><a xlink:title=" ">
<path fill="none" stroke="#63b8ff" d="M146.92,-41.51C164.91,-38.61 184.58,-35.65 202.75,-33.38 258,-26.44 320.27,-20.77 369.28,-16.79"/>
<polygon fill="#63b8ff" stroke="#63b8ff" points="369.29,-20.3 378.98,-16.01 368.73,-13.32 369.29,-20.3"/>
</a>
</g>
</g>
<!-- Node3 -->
<g id="Node000003" class="node">
<title>Node3</title>
<g id="a_Node000003"><a xlink:href="$MemoryLayout_8h.html#a91f4a8346e3e85482c1d65ad254c8955" xlink:title=" ">
<polygon fill="white" stroke="#666666" points="513.75,-162.75 401,-162.75 401,-142 513.75,-142 513.75,-162.75"/>
<text xml:space="preserve" text-anchor="middle" x="457.38" y="-149.25" font-family="Helvetica,sans-Serif" font-size="10.00">GetTypeLayoutDesc</text>
</a>
</g>
</g>
<!-- Node2&#45;&gt;Node3 -->
<g id="edge2_Node000002_Node000003" class="edge">
<title>Node2&#45;&gt;Node3</title>
<g id="a_edge2_Node000002_Node000003"><a xlink:title=" ">
<path fill="none" stroke="#63b8ff" d="M315.38,-118.25C334.06,-122.96 356.23,-128.49 376.25,-133.38 383.62,-135.17 391.38,-137.04 399.05,-138.88"/>
<polygon fill="#63b8ff" stroke="#63b8ff" points="398.16,-142.26 408.7,-141.17 399.78,-135.45 398.16,-142.26"/>
</a>
</g>
</g>
<!-- Node5 -->
<g id="Node000005" class="node">
<title>Node5</title>
<g id="a_Node000005"><a xlink:href="$MemoryLayout_8h.html#aa382eea487da56f77aa558816ea66678" xlink:title=" ">
<polygon fill="white" stroke="#666666" points="528.38,-124.12 386.38,-124.12 386.38,-90.62 528.38,-90.62 528.38,-124.12"/>
<text xml:space="preserve" text-anchor="start" x="394.38" y="-110.62" font-family="Helvetica,sans-Serif" font-size="10.00">InternalDeleteObjectFrom</text>
<text xml:space="preserve" text-anchor="middle" x="457.38" y="-97.88" font-family="Helvetica,sans-Serif" font-size="10.00">Layout</text>
</a>
</g>
</g>
<!-- Node2&#45;&gt;Node5 -->
<g id="edge4_Node000002_Node000005" class="edge">
<title>Node2&#45;&gt;Node5</title>
<g id="a_edge4_Node000002_Node000005"><a xlink:title=" ">
<path fill="none" stroke="#63b8ff" d="M340.71,-107.38C351.82,-107.38 363.43,-107.38 374.83,-107.38"/>
<polygon fill="#63b8ff" stroke="#63b8ff" points="374.61,-110.88 384.61,-107.38 374.61,-103.88 374.61,-110.88"/>
</a>
</g>
</g>
<!-- Node4 -->
<g id="Node000004" class="node">
<title>Node4</title>
<g id="a_Node000004"><a xlink:href="$structTGetTypeLayoutHelper.html#ad78a462fc7b0f32fe21e020f91838267" xlink:title=" ">
<polygon fill="white" stroke="#666666" points="721,-162.75 574.5,-162.75 574.5,-142 721,-142 721,-162.75"/>
<text xml:space="preserve" text-anchor="middle" x="647.75" y="-149.25" font-family="Helvetica,sans-Serif" font-size="10.00">TGetTypeLayoutHelper::Do</text>
</a>
</g>
</g>
<!-- Node3&#45;&gt;Node4 -->
<g id="edge3_Node000003_Node000004" class="edge">
<title>Node3&#45;&gt;Node4</title>
<g id="a_edge3_Node000003_Node000004"><a xlink:title=" ">
<path fill="none" stroke="#63b8ff" d="M514.13,-152.38C529.38,-152.38 546.25,-152.38 562.71,-152.38"/>
<polygon fill="#63b8ff" stroke="#63b8ff" points="562.49,-155.88 572.49,-152.38 562.49,-148.88 562.49,-155.88"/>
</a>
</g>
</g>
<!-- Node7 -->
<g id="Node000007" class="node">
<title>Node7</title>
<g id="a_Node000007"><a xlink:href="$classTMemoryImagePtr.html#a574aafa749dfb83ac87f50d66b22150d" xlink:title=" ">
<polygon fill="white" stroke="#666666" points="538.5,-72.12 376.25,-72.12 376.25,-38.62 538.5,-38.62 538.5,-72.12"/>
<text xml:space="preserve" text-anchor="start" x="384.25" y="-58.62" font-family="Helvetica,sans-Serif" font-size="10.00">TMemoryImagePtr::GetFrozen</text>
<text xml:space="preserve" text-anchor="middle" x="457.38" y="-45.88" font-family="Helvetica,sans-Serif" font-size="10.00">PtrInternal</text>
</a>
</g>
</g>
<!-- Node6&#45;&gt;Node7 -->
<g id="edge6_Node000006_Node000007" class="edge">
<title>Node6&#45;&gt;Node7</title>
<g id="a_edge6_Node000006_Node000007"><a xlink:title=" ">
<path fill="none" stroke="#63b8ff" d="M336.81,-53.42C345.79,-53.57 355.16,-53.72 364.53,-53.88"/>
<polygon fill="#63b8ff" stroke="#63b8ff" points="364.36,-57.37 374.42,-54.04 364.48,-50.38 364.36,-57.37"/>
</a>
</g>
</g>
<!-- Node6&#45;&gt;Node8 -->
<g id="edge7_Node000006_Node000008" class="edge">
<title>Node6&#45;&gt;Node8</title>
<g id="a_edge7_Node000006_Node000008"><a xlink:title=" ">
<path fill="none" stroke="#63b8ff" d="M319.85,-41.56C343.67,-36.12 372.76,-29.47 397.96,-23.72"/>
<polygon fill="#63b8ff" stroke="#63b8ff" points="398.42,-27.2 407.39,-21.56 396.86,-20.38 398.42,-27.2"/>
</a>
</g>
</g>
</g>
</svg>
