<?xml version="1.0" encoding="UTF-8" standalone="no"?>
<!DOCTYPE svg PUBLIC "-//W3C//DTD SVG 1.1//EN"
 "http://www.w3.org/Graphics/SVG/1.1/DTD/svg11.dtd">
<!-- Generated by graphviz version 14.1.4 (0)
 -->
<!-- Title: USceneComponent::HasGroupedMovementUpdate Pages: 1 -->
<svg width="1123pt" height="262pt"
 viewBox="0.00 0.00 1123.00 262.00" xmlns="http://www.w3.org/2000/svg" xmlns:xlink="http://www.w3.org/1999/xlink">
<g id="graph0" class="graph" transform="scale(1 1) rotate(0) translate(4 257.5)">
<title>USceneComponent::HasGroupedMovementUpdate</title>
<!-- Node1 -->
<g id="Node000001" class="node">
<title>Node1</title>
<g id="a_Node000001"><a xlink:title=" ">
<polygon fill="#999999" stroke="#666666" points="175,-85.5 0,-85.5 0,-52 175,-52 175,-85.5"/>
<text xml:space="preserve" text-anchor="start" x="8" y="-72" font-family="Helvetica,sans-Serif" font-size="10.00">USceneComponent::HasGrouped</text>
<text xml:space="preserve" text-anchor="middle" x="87.5" y="-59.25" font-family="Helvetica,sans-Serif" font-size="10.00">MovementUpdate</text>
</a>
</g>
</g>
<!-- Node2 -->
<g id="Node000002" class="node">
<title>Node2</title>
<g id="a_Node000002"><a xlink:href="classUSceneComponent.html#a82373c35cd36bddf23e7deca90db1462" target="_top" xlink:title=" ">
<polygon fill="white" stroke="#666666" points="383.75,-175.5 213.25,-175.5 213.25,-142 383.75,-142 383.75,-175.5"/>
<text xml:space="preserve" text-anchor="start" x="221.25" y="-162" font-family="Helvetica,sans-Serif" font-size="10.00">USceneComponent::Conditional</text>
<text xml:space="preserve" text-anchor="middle" x="298.5" y="-149.25" font-family="Helvetica,sans-Serif" font-size="10.00">UpdateComponentToWorld</text>
</a>
</g>
</g>
<!-- Node1&#45;&gt;Node2 -->
<g id="edge1_Node000001_Node000002" class="edge">
<title>Node1&#45;&gt;Node2</title>
<g id="a_edge1_Node000001_Node000002"><a xlink:title=" ">
<path fill="none" stroke="#63b8ff" d="M121.86,-85.99C146.25,-98.3 180.3,-114.9 211,-127.75 219.07,-131.13 227.65,-134.48 236.16,-137.67"/>
<polygon fill="#63b8ff" stroke="#63b8ff" points="234.83,-140.91 245.42,-141.08 237.25,-134.34 234.83,-140.91"/>
</a>
</g>
</g>
<!-- Node9 -->
<g id="Node000009" class="node">
<title>Node9</title>
<g id="a_Node000009"><a xlink:href="classUSceneComponent.html#a11599a43e296e5736fb218ab3cc857ea" target="_top" xlink:title=" ">
<polygon fill="white" stroke="#666666" points="603.38,-69.5 447.12,-69.5 447.12,-36 603.38,-36 603.38,-69.5"/>
<text xml:space="preserve" text-anchor="start" x="455.12" y="-56" font-family="Helvetica,sans-Serif" font-size="10.00">USceneComponent::FScoped</text>
<text xml:space="preserve" text-anchor="middle" x="525.25" y="-43.25" font-family="Helvetica,sans-Serif" font-size="10.00">MovementUpdate</text>
</a>
</g>
</g>
<!-- Node1&#45;&gt;Node9 -->
<g id="edge9_Node000001_Node000009" class="edge">
<title>Node1&#45;&gt;Node9</title>
<g id="a_edge9_Node000001_Node000009"><a xlink:title=" ">
<path fill="none" stroke="#63b8ff" d="M157.09,-85.94C174.56,-89.59 193.38,-92.9 211,-94.75 288.35,-102.87 309.07,-106.18 386,-94.75 413.88,-90.61 443.92,-82.01 468.86,-73.67"/>
<polygon fill="#63b8ff" stroke="#63b8ff" points="469.81,-77.04 478.14,-70.48 467.54,-70.42 469.81,-77.04"/>
</a>
</g>
</g>
<!-- Node10 -->
<g id="Node000010" class="node">
<title>Node10</title>
<g id="a_Node000010"><a xlink:href="classUSceneComponent.html#a79d168efbcc2c703d1d75ec37fa919f5" target="_top" xlink:title=" ">
<polygon fill="white" stroke="#666666" points="386,-85.5 211,-85.5 211,-52 386,-52 386,-85.5"/>
<text xml:space="preserve" text-anchor="start" x="219" y="-72" font-family="Helvetica,sans-Serif" font-size="10.00">USceneComponent::HasGrouped</text>
<text xml:space="preserve" text-anchor="middle" x="298.5" y="-59.25" font-family="Helvetica,sans-Serif" font-size="10.00">MovementUpdates</text>
</a>
</g>
</g>
<!-- Node1&#45;&gt;Node10 -->
<g id="edge11_Node000001_Node000010" class="edge">
<title>Node1&#45;&gt;Node10</title>
<g id="a_edge11_Node000001_Node000010"><a xlink:title=" ">
<path fill="none" stroke="#63b8ff" d="M175.32,-62.09C183.25,-62.01 191.31,-61.98 199.33,-62.01"/>
<polygon fill="#63b8ff" stroke="#63b8ff" points="199.08,-65.51 209.1,-62.08 199.12,-58.51 199.08,-65.51"/>
</a>
</g>
</g>
<!-- Node11 -->
<g id="Node000011" class="node">
<title>Node11</title>
<g id="a_Node000011"><a xlink:href="classUSceneComponent.html#a8c3ea839ffbe9b212e43188cd0865885" target="_top" xlink:title=" ">
<polygon fill="white" stroke="#666666" points="383,-33.5 214,-33.5 214,0 383,0 383,-33.5"/>
<text xml:space="preserve" text-anchor="start" x="222" y="-20" font-family="Helvetica,sans-Serif" font-size="10.00">USceneComponent::IsDeferring</text>
<text xml:space="preserve" text-anchor="middle" x="298.5" y="-7.25" font-family="Helvetica,sans-Serif" font-size="10.00">MovementUpdates</text>
</a>
</g>
</g>
<!-- Node1&#45;&gt;Node11 -->
<g id="edge13_Node000001_Node000011" class="edge">
<title>Node1&#45;&gt;Node11</title>
<g id="a_edge13_Node000001_Node000011"><a xlink:title=" ">
<path fill="none" stroke="#63b8ff" d="M157.8,-51.51C176.86,-46.76 197.69,-41.58 217.31,-36.7"/>
<polygon fill="#63b8ff" stroke="#63b8ff" points="218.06,-40.12 226.92,-34.31 216.37,-33.33 218.06,-40.12"/>
</a>
</g>
</g>
<!-- Node3 -->
<g id="Node000003" class="node">
<title>Node3</title>
<g id="a_Node000003"><a xlink:href="classUSceneComponent.html#a23375c3a867b2f709bff71a90b713bc6" target="_top" xlink:title=" ">
<polygon fill="white" stroke="#666666" points="628.5,-175.5 422,-175.5 422,-142 628.5,-142 628.5,-175.5"/>
<text xml:space="preserve" text-anchor="start" x="430" y="-162" font-family="Helvetica,sans-Serif" font-size="10.00">USceneComponent::UpdateComponent</text>
<text xml:space="preserve" text-anchor="middle" x="525.25" y="-149.25" font-family="Helvetica,sans-Serif" font-size="10.00">ToWorld</text>
</a>
</g>
</g>
<!-- Node2&#45;&gt;Node3 -->
<g id="edge2_Node000002_Node000003" class="edge">
<title>Node2&#45;&gt;Node3</title>
<g id="a_edge2_Node000002_Node000003"><a xlink:title=" ">
<path fill="none" stroke="#63b8ff" d="M384.15,-158.75C392.63,-158.75 401.33,-158.75 410.05,-158.75"/>
<polygon fill="#63b8ff" stroke="#63b8ff" points="409.99,-162.25 419.99,-158.75 409.99,-155.25 409.99,-162.25"/>
</a>
</g>
</g>
<!-- Node4 -->
<g id="Node000004" class="node">
<title>Node4</title>
<g id="a_Node000004"><a xlink:href="classUSceneComponent.html#a25cc9b04c7027c3a18b621c4373b1baf" target="_top" xlink:title=" ">
<polygon fill="white" stroke="#666666" points="849.62,-253.5 685.88,-253.5 685.88,-220 849.62,-220 849.62,-253.5"/>
<text xml:space="preserve" text-anchor="start" x="693.88" y="-240" font-family="Helvetica,sans-Serif" font-size="10.00">USceneComponent::GetAttach</text>
<text xml:space="preserve" text-anchor="middle" x="767.75" y="-227.25" font-family="Helvetica,sans-Serif" font-size="10.00">Parent</text>
</a>
</g>
</g>
<!-- Node3&#45;&gt;Node4 -->
<g id="edge3_Node000003_Node000004" class="edge">
<title>Node3&#45;&gt;Node4</title>
<g id="a_edge3_Node000003_Node000004"><a xlink:title=" ">
<path fill="none" stroke="#63b8ff" d="M568.18,-175.91C595.38,-186.69 631.72,-200.45 664.5,-210.75 670.77,-212.72 677.29,-214.65 683.87,-216.51"/>
<polygon fill="#63b8ff" stroke="#63b8ff" points="682.93,-219.88 693.5,-219.16 684.79,-213.13 682.93,-219.88"/>
</a>
</g>
</g>
<!-- Node6 -->
<g id="Node000006" class="node">
<title>Node6</title>
<g id="a_Node000006"><a xlink:href="classUSceneComponent.html#a68cb693ed0e939252c5ac673fbf7d662" target="_top" xlink:title=" ">
<polygon fill="white" stroke="#666666" points="849.62,-201.5 685.88,-201.5 685.88,-168 849.62,-168 849.62,-201.5"/>
<text xml:space="preserve" text-anchor="start" x="693.88" y="-188" font-family="Helvetica,sans-Serif" font-size="10.00">USceneComponent::GetAttach</text>
<text xml:space="preserve" text-anchor="middle" x="767.75" y="-175.25" font-family="Helvetica,sans-Serif" font-size="10.00">SocketName</text>
</a>
</g>
</g>
<!-- Node3&#45;&gt;Node6 -->
<g id="edge5_Node000003_Node000006" class="edge">
<title>Node3&#45;&gt;Node6</title>
<g id="a_edge5_Node000003_Node000006"><a xlink:title=" ">
<path fill="none" stroke="#63b8ff" d="M628.94,-169.85C644,-171.48 659.43,-173.15 674.27,-174.75"/>
<polygon fill="#63b8ff" stroke="#63b8ff" points="673.66,-178.21 683.97,-175.8 674.41,-171.25 673.66,-178.21"/>
</a>
</g>
</g>
<!-- Node7 -->
<g id="Node000007" class="node">
<title>Node7</title>
<g id="a_Node000007"><a xlink:href="classUSceneComponent.html#ad8bdb63e3ae8abb9b2c5e2c70bc00930" target="_top" xlink:title=" ">
<polygon fill="white" stroke="#666666" points="854.12,-149.5 681.38,-149.5 681.38,-116 854.12,-116 854.12,-149.5"/>
<text xml:space="preserve" text-anchor="start" x="689.38" y="-136" font-family="Helvetica,sans-Serif" font-size="10.00">USceneComponent::GetRelative</text>
<text xml:space="preserve" text-anchor="middle" x="767.75" y="-123.25" font-family="Helvetica,sans-Serif" font-size="10.00">Rotation</text>
</a>
</g>
</g>
<!-- Node3&#45;&gt;Node7 -->
<g id="edge6_Node000003_Node000007" class="edge">
<title>Node3&#45;&gt;Node7</title>
<g id="a_edge6_Node000003_Node000007"><a xlink:title=" ">
<path fill="none" stroke="#63b8ff" d="M628.94,-147.65C642.51,-146.18 656.38,-144.68 669.84,-143.23"/>
<polygon fill="#63b8ff" stroke="#63b8ff" points="669.97,-146.73 679.53,-142.18 669.21,-139.77 669.97,-146.73"/>
</a>
</g>
</g>
<!-- Node8 -->
<g id="Node000008" class="node">
<title>Node8</title>
<g id="a_Node000008"><a xlink:href="classUSceneComponent.html#a065204c82294225ae47ee64e38b2aeb5" target="_top" xlink:title=" ">
<polygon fill="white" stroke="#666666" points="871,-97.5 664.5,-97.5 664.5,-64 871,-64 871,-97.5"/>
<text xml:space="preserve" text-anchor="start" x="672.5" y="-84" font-family="Helvetica,sans-Serif" font-size="10.00">USceneComponent::UpdateComponent</text>
<text xml:space="preserve" text-anchor="middle" x="767.75" y="-71.25" font-family="Helvetica,sans-Serif" font-size="10.00">ToWorldWithParent</text>
</a>
</g>
</g>
<!-- Node3&#45;&gt;Node8 -->
<g id="edge7_Node000003_Node000008" class="edge">
<title>Node3&#45;&gt;Node8</title>
<g id="a_edge7_Node000003_Node000008"><a xlink:title=" ">
<path fill="none" stroke="#63b8ff" d="M568.18,-141.59C595.38,-130.81 631.72,-117.05 664.5,-106.75 670.77,-104.78 677.29,-102.85 683.87,-100.99"/>
<polygon fill="#63b8ff" stroke="#63b8ff" points="684.79,-104.37 693.5,-98.34 682.93,-97.62 684.79,-104.37"/>
</a>
</g>
</g>
<!-- Node5 -->
<g id="Node000005" class="node">
<title>Node5</title>
<g id="a_Node000005"><a xlink:href="classUSceneComponent.html#ae5af9c34b0c572b18dcfec20c35d886b" target="_top" xlink:title=" ">
<polygon fill="white" stroke="#666666" points="1115,-169.12 907,-169.12 907,-148.38 1115,-148.38 1115,-169.12"/>
<text xml:space="preserve" text-anchor="middle" x="1011" y="-155.62" font-family="Helvetica,sans-Serif" font-size="10.00">USceneComponent::USceneComponent</text>
</a>
</g>
</g>
<!-- Node4&#45;&gt;Node5 -->
<g id="edge4_Node000004_Node000005" class="edge">
<title>Node4&#45;&gt;Node5</title>
<g id="a_edge4_Node000004_Node000005"><a xlink:title=" ">
<path fill="none" stroke="#63b8ff" d="M840.54,-219.55C850.81,-216.78 861.21,-213.82 871,-210.75 906.16,-199.74 945.42,-184.8 973.22,-173.76"/>
<polygon fill="#63b8ff" stroke="#63b8ff" points="974.26,-177.11 982.25,-170.15 971.66,-170.62 974.26,-177.11"/>
</a>
</g>
</g>
<!-- Node8&#45;&gt;Node5 -->
<g id="edge8_Node000008_Node000005" class="edge">
<title>Node8&#45;&gt;Node5</title>
<g id="a_edge8_Node000008_Node000005"><a xlink:title=" ">
<path fill="none" stroke="#63b8ff" d="M840.54,-97.95C850.81,-100.72 861.21,-103.68 871,-106.75 906.16,-117.76 945.42,-132.7 973.22,-143.74"/>
<polygon fill="#63b8ff" stroke="#63b8ff" points="971.66,-146.88 982.25,-147.35 974.26,-140.39 971.66,-146.88"/>
</a>
</g>
</g>
<!-- Node9&#45;&gt;Node9 -->
<g id="edge10_Node000009_Node000009" class="edge">
<title>Node9&#45;&gt;Node9</title>
<g id="a_edge10_Node000009_Node000009"><a xlink:title=" ">
<path fill="none" stroke="#63b8ff" d="M484.49,-69.91C477.56,-79.12 491.15,-87.5 525.25,-87.5 544.43,-87.5 557.12,-84.85 563.32,-80.89"/>
<polygon fill="#63b8ff" stroke="#63b8ff" points="566.67,-81.93 565.65,-71.38 559.87,-80.26 566.67,-81.93"/>
</a>
</g>
</g>
<!-- Node10&#45;&gt;Node1 -->
<g id="edge12_Node000010_Node000001" class="edge">
<title>Node10&#45;&gt;Node1</title>
<g id="a_edge12_Node000010_Node000001"><a xlink:title=" ">
<path fill="none" stroke="#63b8ff" d="M210.61,-75.41C202.69,-75.49 194.62,-75.52 186.6,-75.49"/>
<polygon fill="#63b8ff" stroke="#63b8ff" points="186.86,-71.99 176.83,-75.42 186.81,-78.99 186.86,-71.99"/>
</a>
</g>
</g>
<!-- Node11&#45;&gt;Node9 -->
<g id="edge14_Node000011_Node000009" class="edge">
<title>Node11&#45;&gt;Node9</title>
<g id="a_edge14_Node000011_Node000009"><a xlink:title=" ">
<path fill="none" stroke="#63b8ff" d="M383.19,-30.16C400.29,-32.89 418.33,-35.78 435.6,-38.55"/>
<polygon fill="#63b8ff" stroke="#63b8ff" points="434.89,-41.98 445.32,-40.11 436,-35.07 434.89,-41.98"/>
</a>
</g>
</g>
</g>
</svg>
