<?xml version="1.0" encoding="UTF-8" standalone="no"?>
<!DOCTYPE svg PUBLIC "-//W3C//DTD SVG 1.1//EN"
 "http://www.w3.org/Graphics/SVG/1.1/DTD/svg11.dtd">
<!-- Generated by graphviz version 14.1.4 (0)
 -->
<!-- Title: FThreadSafeBool Pages: 1 -->
<svg width="136pt" height="354pt"
 viewBox="0.00 0.00 136.00 354.00" xmlns="http://www.w3.org/2000/svg" xmlns:xlink="http://www.w3.org/1999/xlink">
<g id="graph0" class="graph" transform="scale(1 1) rotate(0) translate(4 349.5)">
<title>FThreadSafeBool</title>
<!-- Node1 -->
<g id="Node000001" class="node">
<title>Node1</title>
<g id="a_Node000001"><a xlink:title=" ">
<polygon fill="#999999" stroke="none" points="119.25,-104.5 8.25,-104.5 8.25,0 119.25,0 119.25,-104.5"/>
<text xml:space="preserve" text-anchor="start" x="22.12" y="-90.75" font-family="Helvetica,sans-Serif" font-size="10.00">FThreadSafeBool</text>
<text xml:space="preserve" text-anchor="start" x="60.75" y="-74" font-family="Helvetica,sans-Serif" font-size="10.00"> </text>
<text xml:space="preserve" text-anchor="start" x="12.25" y="-57.25" font-family="Helvetica,sans-Serif" font-size="10.00">+</text>
<text xml:space="preserve" text-anchor="start" x="24.5" y="-57.25" font-family="Helvetica,sans-Serif" font-size="10.00">FThreadSafeBool()</text>
<text xml:space="preserve" text-anchor="start" x="12.25" y="-40.5" font-family="Helvetica,sans-Serif" font-size="10.00">+</text>
<text xml:space="preserve" text-anchor="start" x="24.5" y="-40.5" font-family="Helvetica,sans-Serif" font-size="10.00">operator bool()</text>
<text xml:space="preserve" text-anchor="start" x="12.25" y="-23.75" font-family="Helvetica,sans-Serif" font-size="10.00">+</text>
<text xml:space="preserve" text-anchor="start" x="24.5" y="-23.75" font-family="Helvetica,sans-Serif" font-size="10.00">operator=()</text>
<text xml:space="preserve" text-anchor="start" x="12.25" y="-7" font-family="Helvetica,sans-Serif" font-size="10.00">+</text>
<text xml:space="preserve" text-anchor="start" x="24.5" y="-7" font-family="Helvetica,sans-Serif" font-size="10.00">AtomicSet()</text>
<polygon fill="#666666" stroke="#666666" points="8.25,-85.75 8.25,-85.75 119.25,-85.75 119.25,-85.75 8.25,-85.75"/>
<polygon fill="#666666" stroke="#666666" points="8.25,-69 8.25,-69 119.25,-69 119.25,-69 8.25,-69"/>
<polygon fill="none" stroke="#666666" points="8.25,0 8.25,-104.5 119.25,-104.5 119.25,0 8.25,0"/>
</a>
</g>
</g>
<!-- Node2 -->
<g id="Node000002" class="node">
<title>Node2</title>
<g id="a_Node000002"><a xlink:href="$classFThreadSafeCounter.html" xlink:title=" ">
<polygon fill="white" stroke="none" points="127.5,-345.5 0,-345.5 0,-140.5 127.5,-140.5 127.5,-345.5"/>
<text xml:space="preserve" text-anchor="start" x="13.88" y="-331.75" font-family="Helvetica,sans-Serif" font-size="10.00">FThreadSafeCounter</text>
<text xml:space="preserve" text-anchor="start" x="6.25" y="-315" font-family="Helvetica,sans-Serif" font-size="10.00">&#45;</text>
<text xml:space="preserve" text-anchor="start" x="16.25" y="-315" font-family="Helvetica,sans-Serif" font-size="10.00">Counter</text>
<text xml:space="preserve" text-anchor="start" x="4" y="-298.25" font-family="Helvetica,sans-Serif" font-size="10.00">+</text>
<text xml:space="preserve" text-anchor="start" x="16.25" y="-298.25" font-family="Helvetica,sans-Serif" font-size="10.00">FThreadSafeCounter()</text>
<text xml:space="preserve" text-anchor="start" x="4" y="-281.5" font-family="Helvetica,sans-Serif" font-size="10.00">+</text>
<text xml:space="preserve" text-anchor="start" x="16.25" y="-281.5" font-family="Helvetica,sans-Serif" font-size="10.00">FThreadSafeCounter()</text>
<text xml:space="preserve" text-anchor="start" x="4" y="-264.75" font-family="Helvetica,sans-Serif" font-size="10.00">+</text>
<text xml:space="preserve" text-anchor="start" x="16.25" y="-264.75" font-family="Helvetica,sans-Serif" font-size="10.00">Increment()</text>
<text xml:space="preserve" text-anchor="start" x="4" y="-248" font-family="Helvetica,sans-Serif" font-size="10.00">+</text>
<text xml:space="preserve" text-anchor="start" x="16.25" y="-248" font-family="Helvetica,sans-Serif" font-size="10.00">Add()</text>
<text xml:space="preserve" text-anchor="start" x="4" y="-231.25" font-family="Helvetica,sans-Serif" font-size="10.00">+</text>
<text xml:space="preserve" text-anchor="start" x="16.25" y="-231.25" font-family="Helvetica,sans-Serif" font-size="10.00">Decrement()</text>
<text xml:space="preserve" text-anchor="start" x="4" y="-214.5" font-family="Helvetica,sans-Serif" font-size="10.00">+</text>
<text xml:space="preserve" text-anchor="start" x="16.25" y="-214.5" font-family="Helvetica,sans-Serif" font-size="10.00">Subtract()</text>
<text xml:space="preserve" text-anchor="start" x="4" y="-197.75" font-family="Helvetica,sans-Serif" font-size="10.00">+</text>
<text xml:space="preserve" text-anchor="start" x="16.25" y="-197.75" font-family="Helvetica,sans-Serif" font-size="10.00">Set()</text>
<text xml:space="preserve" text-anchor="start" x="4" y="-181" font-family="Helvetica,sans-Serif" font-size="10.00">+</text>
<text xml:space="preserve" text-anchor="start" x="16.25" y="-181" font-family="Helvetica,sans-Serif" font-size="10.00">Reset()</text>
<text xml:space="preserve" text-anchor="start" x="4" y="-164.25" font-family="Helvetica,sans-Serif" font-size="10.00">+</text>
<text xml:space="preserve" text-anchor="start" x="16.25" y="-164.25" font-family="Helvetica,sans-Serif" font-size="10.00">GetValue()</text>
<text xml:space="preserve" text-anchor="start" x="6.25" y="-147.5" font-family="Helvetica,sans-Serif" font-size="10.00">&#45;</text>
<text xml:space="preserve" text-anchor="start" x="16.25" y="-147.5" font-family="Helvetica,sans-Serif" font-size="10.00">operator=()</text>
<polygon fill="#666666" stroke="#666666" points="0,-326.75 0,-326.75 127.5,-326.75 127.5,-326.75 0,-326.75"/>
<polygon fill="#666666" stroke="#666666" points="0,-310 0,-310 14.25,-310 14.25,-310 0,-310"/>
<polygon fill="#666666" stroke="#666666" points="14.25,-310 14.25,-310 127.5,-310 127.5,-310 14.25,-310"/>
<polygon fill="none" stroke="#666666" points="0,-140.5 0,-345.5 127.5,-345.5 127.5,-140.5 0,-140.5"/>
</a>
</g>
</g>
<!-- Node2&#45;&gt;Node1 -->
<g id="edge1_Node000001_Node000002" class="edge">
<title>Node2&#45;&gt;Node1</title>
<g id="a_edge1_Node000001_Node000002"><a xlink:title=" ">
<path fill="none" stroke="#8b1a1a" d="M63.75,-129.28C63.75,-120.65 63.75,-112.24 63.75,-104.34"/>
<polygon fill="none" stroke="#8b1a1a" points="60.25,-129.2 63.75,-139.2 67.25,-129.2 60.25,-129.2"/>
</a>
</g>
</g>
</g>
</svg>
