<?xml version="1.0" encoding="UTF-8" standalone="no"?>
<!DOCTYPE svg PUBLIC "-//W3C//DTD SVG 1.1//EN"
 "http://www.w3.org/Graphics/SVG/1.1/DTD/svg11.dtd">
<!-- Generated by graphviz version 14.1.4 (0)
 -->
<!-- Title: UAssetManager::LoadPrimaryAsset Pages: 1 -->
<svg width="339pt" height="60pt"
 viewBox="0.00 0.00 339.00 60.00" xmlns="http://www.w3.org/2000/svg" xmlns:xlink="http://www.w3.org/1999/xlink">
<g id="graph0" class="graph" transform="scale(1 1) rotate(0) translate(4 55.5)">
<title>UAssetManager::LoadPrimaryAsset</title>
<!-- Node1 -->
<g id="Node000001" class="node">
<title>Node1</title>
<g id="a_Node000001"><a xlink:title=" ">
<polygon fill="#999999" stroke="#666666" points="160.75,-33.5 0,-33.5 0,0 160.75,0 160.75,-33.5"/>
<text xml:space="preserve" text-anchor="start" x="8" y="-20" font-family="Helvetica,sans-Serif" font-size="10.00">UAssetManager::LoadPrimary</text>
<text xml:space="preserve" text-anchor="middle" x="80.38" y="-7.25" font-family="Helvetica,sans-Serif" font-size="10.00">Asset</text>
</a>
</g>
</g>
<!-- Node1&#45;&gt;Node1 -->
<g id="edge1_Node000001_Node000001" class="edge">
<title>Node1&#45;&gt;Node1</title>
<g id="a_edge1_Node000001_Node000001"><a xlink:title=" ">
<path fill="none" stroke="#63b8ff" d="M47.37,-33.91C41.76,-43.12 52.76,-51.5 80.38,-51.5 95.91,-51.5 106.19,-48.85 111.21,-44.89"/>
<polygon fill="#63b8ff" stroke="#63b8ff" points="114.58,-45.89 113.09,-35.4 107.71,-44.53 114.58,-45.89"/>
</a>
</g>
</g>
<!-- Node2 -->
<g id="Node000002" class="node">
<title>Node2</title>
<g id="a_Node000002"><a xlink:href="namespaceUE_1_1StreamableManager_1_1Private.html#a00637ebe99fe79a82195a3f86b486e9d" target="_top" xlink:title=" ">
<polygon fill="white" stroke="#666666" points="331.25,-33.5 196.75,-33.5 196.75,0 331.25,0 331.25,-33.5"/>
<text xml:space="preserve" text-anchor="start" x="204.75" y="-20" font-family="Helvetica,sans-Serif" font-size="10.00">UE::StreamableManager</text>
<text xml:space="preserve" text-anchor="middle" x="264" y="-7.25" font-family="Helvetica,sans-Serif" font-size="10.00">::Private::WrapDelegate</text>
</a>
</g>
</g>
<!-- Node1&#45;&gt;Node2 -->
<g id="edge2_Node000001_Node000002" class="edge">
<title>Node1&#45;&gt;Node2</title>
<g id="a_edge2_Node000001_Node000002"><a xlink:title=" ">
<path fill="none" stroke="#63b8ff" d="M161.04,-16.75C168.98,-16.75 177.04,-16.75 184.96,-16.75"/>
<polygon fill="#63b8ff" stroke="#63b8ff" points="184.93,-20.25 194.93,-16.75 184.93,-13.25 184.93,-20.25"/>
</a>
</g>
</g>
</g>
</svg>
