<?xml version="1.0" encoding="UTF-8" standalone="no"?>
<!DOCTYPE svg PUBLIC "-//W3C//DTD SVG 1.1//EN"
 "http://www.w3.org/Graphics/SVG/1.1/DTD/svg11.dtd">
<!-- Generated by graphviz version 14.1.4 (0)
 -->
<!-- Title: FTrackedActivity::FTrackedActivity Pages: 1 -->
<svg width="357pt" height="171pt"
 viewBox="0.00 0.00 357.00 171.00" xmlns="http://www.w3.org/2000/svg" xmlns:xlink="http://www.w3.org/1999/xlink">
<g id="graph0" class="graph" transform="scale(1 1) rotate(0) translate(4 167.12)">
<title>FTrackedActivity::FTrackedActivity</title>
<!-- Node1 -->
<g id="Node000001" class="node">
<title>Node1</title>
<g id="a_Node000001"><a xlink:title=" ">
<polygon fill="#999999" stroke="#666666" points="349.25,-88.12 203.5,-88.12 203.5,-54.62 349.25,-54.62 349.25,-88.12"/>
<text xml:space="preserve" text-anchor="start" x="211.5" y="-74.62" font-family="Helvetica,sans-Serif" font-size="10.00">FTrackedActivity::FTracked</text>
<text xml:space="preserve" text-anchor="middle" x="276.38" y="-61.88" font-family="Helvetica,sans-Serif" font-size="10.00">Activity</text>
</a>
</g>
</g>
<!-- Node2 -->
<g id="Node000002" class="node">
<title>Node2</title>
<g id="a_Node000002"><a xlink:href="$classFTrackedActivity.html#a4147e70d4f57a223136c636186adfd3e" xlink:title=" ">
<polygon fill="white" stroke="#666666" points="156.62,-163.12 10.88,-163.12 10.88,-129.62 156.62,-129.62 156.62,-163.12"/>
<text xml:space="preserve" text-anchor="start" x="18.88" y="-149.62" font-family="Helvetica,sans-Serif" font-size="10.00">FTrackedActivity::FTracked</text>
<text xml:space="preserve" text-anchor="middle" x="83.75" y="-136.88" font-family="Helvetica,sans-Serif" font-size="10.00">Activity</text>
</a>
</g>
</g>
<!-- Node1&#45;&gt;Node2 -->
<g id="edge1_Node000001_Node000002" class="edge">
<title>Node1&#45;&gt;Node2</title>
<g id="a_edge1_Node000001_Node000002"><a xlink:title=" ">
<path fill="none" stroke="#63b8ff" d="M230.15,-93.4C211.04,-102.32 188.41,-112.37 167.5,-120.38 159.48,-123.44 150.93,-126.43 142.49,-129.23"/>
<polygon fill="#63b8ff" stroke="#63b8ff" points="231.44,-96.66 239,-89.23 228.46,-90.33 231.44,-96.66"/>
</a>
</g>
</g>
<!-- Node3 -->
<g id="Node000003" class="node">
<title>Node3</title>
<g id="a_Node000003"><a xlink:href="$classFTrackedActivity.html#aedb32dd5e0b1d80133104597b7f06fd9" xlink:title=" ">
<polygon fill="white" stroke="#666666" points="160,-111.12 7.5,-111.12 7.5,-77.62 160,-77.62 160,-111.12"/>
<text xml:space="preserve" text-anchor="start" x="15.5" y="-97.62" font-family="Helvetica,sans-Serif" font-size="10.00">FTrackedActivity::GetEngine</text>
<text xml:space="preserve" text-anchor="middle" x="83.75" y="-84.88" font-family="Helvetica,sans-Serif" font-size="10.00">Activity</text>
</a>
</g>
</g>
<!-- Node1&#45;&gt;Node3 -->
<g id="edge2_Node000001_Node000003" class="edge">
<title>Node1&#45;&gt;Node3</title>
<g id="a_edge2_Node000001_Node000003"><a xlink:title=" ">
<path fill="none" stroke="#63b8ff" d="M191.75,-81.46C181.25,-82.73 170.57,-84.02 160.21,-85.27"/>
<polygon fill="#63b8ff" stroke="#63b8ff" points="192.02,-84.96 201.53,-80.28 191.19,-78.01 192.02,-84.96"/>
</a>
</g>
</g>
<!-- Node4 -->
<g id="Node000004" class="node">
<title>Node4</title>
<g id="a_Node000004"><a xlink:href="$classFTrackedActivity.html#a40be62714530c412278a4d2343b93ad0" xlink:title=" ">
<polygon fill="white" stroke="#666666" points="167.5,-59.75 0,-59.75 0,-39 167.5,-39 167.5,-59.75"/>
<text xml:space="preserve" text-anchor="middle" x="83.75" y="-46.25" font-family="Helvetica,sans-Serif" font-size="10.00">FTrackedActivity::GetIOActivity</text>
</a>
</g>
</g>
<!-- Node1&#45;&gt;Node4 -->
<g id="edge3_Node000001_Node000004" class="edge">
<title>Node1&#45;&gt;Node4</title>
<g id="a_edge3_Node000001_Node000004"><a xlink:title=" ">
<path fill="none" stroke="#63b8ff" d="M191.61,-61.71C183.74,-60.8 175.76,-59.88 167.9,-58.97"/>
<polygon fill="#63b8ff" stroke="#63b8ff" points="191.2,-65.18 201.53,-62.85 192,-58.23 191.2,-65.18"/>
</a>
</g>
</g>
<!-- Node5 -->
<g id="Node000005" class="node">
<title>Node5</title>
<g id="a_Node000005"><a xlink:href="$classFTrackedActivity.html#afc57a29ca5f23f3e026de11338bab737" xlink:title=" ">
<polygon fill="white" stroke="#666666" points="159.62,-20.75 7.88,-20.75 7.88,0 159.62,0 159.62,-20.75"/>
<text xml:space="preserve" text-anchor="middle" x="83.75" y="-7.25" font-family="Helvetica,sans-Serif" font-size="10.00">FTrackedActivity::operator=</text>
</a>
</g>
</g>
<!-- Node1&#45;&gt;Node5 -->
<g id="edge4_Node000001_Node000005" class="edge">
<title>Node1&#45;&gt;Node5</title>
<g id="a_edge4_Node000001_Node000005"><a xlink:title=" ">
<path fill="none" stroke="#63b8ff" d="M223.2,-50.03C205.66,-43.26 185.89,-36.07 167.5,-30.38 156.77,-27.05 145.12,-23.94 134.04,-21.21"/>
<polygon fill="#63b8ff" stroke="#63b8ff" points="221.8,-53.24 232.38,-53.62 224.34,-46.72 221.8,-53.24"/>
</a>
</g>
</g>
</g>
</svg>
