<?xml version="1.0" encoding="UTF-8" standalone="no"?>
<!DOCTYPE svg PUBLIC "-//W3C//DTD SVG 1.1//EN"
 "http://www.w3.org/Graphics/SVG/1.1/DTD/svg11.dtd">
<!-- Generated by graphviz version 14.1.4 (0)
 -->
<!-- Title: FPersistentStorageManager::IsReady Pages: 1 -->
<svg width="763pt" height="380pt"
 viewBox="0.00 0.00 763.00 380.00" xmlns="http://www.w3.org/2000/svg" xmlns:xlink="http://www.w3.org/1999/xlink">
<g id="graph0" class="graph" transform="scale(1 1) rotate(0) translate(4 375.5)">
<title>FPersistentStorageManager::IsReady</title>
<!-- Node1 -->
<g id="Node000001" class="node">
<title>Node1</title>
<g id="a_Node000001"><a xlink:title=" ">
<polygon fill="#999999" stroke="#666666" points="754.75,-189.5 603.75,-189.5 603.75,-156 754.75,-156 754.75,-189.5"/>
<text xml:space="preserve" text-anchor="start" x="611.75" y="-176" font-family="Helvetica,sans-Serif" font-size="10.00">FPersistentStorageManager</text>
<text xml:space="preserve" text-anchor="middle" x="679.25" y="-163.25" font-family="Helvetica,sans-Serif" font-size="10.00">::IsReady</text>
</a>
</g>
</g>
<!-- Node2 -->
<g id="Node000002" class="node">
<title>Node2</title>
<g id="a_Node000002"><a xlink:href="$classFManagedStorageFileWriteHandle.html#a81a876c143b3da9bc4aa7962d37ff3e1" xlink:title=" ">
<polygon fill="white" stroke="#666666" points="559.88,-254.5 412.62,-254.5 412.62,-221 559.88,-221 559.88,-254.5"/>
<text xml:space="preserve" text-anchor="start" x="420.62" y="-241" font-family="Helvetica,sans-Serif" font-size="10.00">FManagedStorageFileWrite</text>
<text xml:space="preserve" text-anchor="middle" x="486.25" y="-228.25" font-family="Helvetica,sans-Serif" font-size="10.00">Handle::IsReady</text>
</a>
</g>
</g>
<!-- Node1&#45;&gt;Node2 -->
<g id="edge1_Node000001_Node000002" class="edge">
<title>Node1&#45;&gt;Node2</title>
<g id="a_edge1_Node000001_Node000002"><a xlink:title=" ">
<path fill="none" stroke="#63b8ff" d="M616.88,-193.63C591.36,-202.32 562.1,-212.28 537.84,-220.53"/>
<polygon fill="#63b8ff" stroke="#63b8ff" points="617.79,-197.02 626.13,-190.49 615.54,-190.39 617.79,-197.02"/>
</a>
</g>
</g>
<!-- Node8 -->
<g id="Node000008" class="node">
<title>Node8</title>
<g id="a_Node000008"><a xlink:href="$classTManagedStoragePlatformFile.html#a993fa713aaf6512f05aff59cff6db8d2" xlink:title=" ">
<polygon fill="white" stroke="#666666" points="567.75,-163.5 404.75,-163.5 404.75,-130 567.75,-130 567.75,-163.5"/>
<text xml:space="preserve" text-anchor="start" x="412.75" y="-150" font-family="Helvetica,sans-Serif" font-size="10.00">TManagedStoragePlatformFile</text>
<text xml:space="preserve" text-anchor="middle" x="486.25" y="-137.25" font-family="Helvetica,sans-Serif" font-size="10.00">::IsReady</text>
</a>
</g>
</g>
<!-- Node1&#45;&gt;Node8 -->
<g id="edge7_Node000001_Node000008" class="edge">
<title>Node1&#45;&gt;Node8</title>
<g id="a_edge7_Node000001_Node000008"><a xlink:title=" ">
<path fill="none" stroke="#63b8ff" d="M592.06,-161.02C584.04,-159.93 575.93,-158.82 567.96,-157.74"/>
<polygon fill="#63b8ff" stroke="#63b8ff" points="591.43,-164.46 601.81,-162.34 592.37,-157.53 591.43,-164.46"/>
</a>
</g>
</g>
<!-- Node3 -->
<g id="Node000003" class="node">
<title>Node3</title>
<g id="a_Node000003"><a xlink:href="$classFManagedStorageFileWriteHandle.html#ae7781c1b8da4340157461f1a58d0f201" xlink:title=" ">
<polygon fill="white" stroke="#666666" points="360.88,-293.5 213.62,-293.5 213.62,-260 360.88,-260 360.88,-293.5"/>
<text xml:space="preserve" text-anchor="start" x="221.62" y="-280" font-family="Helvetica,sans-Serif" font-size="10.00">FManagedStorageFileWrite</text>
<text xml:space="preserve" text-anchor="middle" x="287.25" y="-267.25" font-family="Helvetica,sans-Serif" font-size="10.00">Handle::TryManageFile</text>
</a>
</g>
</g>
<!-- Node2&#45;&gt;Node3 -->
<g id="edge2_Node000002_Node000003" class="edge">
<title>Node2&#45;&gt;Node3</title>
<g id="a_edge2_Node000002_Node000003"><a xlink:title=" ">
<path fill="none" stroke="#63b8ff" d="M401.12,-254.4C387.84,-257.03 374.21,-259.73 361.21,-262.31"/>
<polygon fill="#63b8ff" stroke="#63b8ff" points="401.56,-257.89 410.69,-252.51 400.2,-251.02 401.56,-257.89"/>
</a>
</g>
</g>
<!-- Node4 -->
<g id="Node000004" class="node">
<title>Node4</title>
<g id="a_Node000004"><a xlink:href="$classFManagedStorageFileWriteHandle.html#a7dba8dff83b7680582558195a55f8e28" xlink:title=" ">
<polygon fill="white" stroke="#666666" points="158.5,-371.5 11.25,-371.5 11.25,-338 158.5,-338 158.5,-371.5"/>
<text xml:space="preserve" text-anchor="start" x="19.25" y="-358" font-family="Helvetica,sans-Serif" font-size="10.00">FManagedStorageFileWrite</text>
<text xml:space="preserve" text-anchor="middle" x="84.88" y="-345.25" font-family="Helvetica,sans-Serif" font-size="10.00">Handle::Flush</text>
</a>
</g>
</g>
<!-- Node3&#45;&gt;Node4 -->
<g id="edge3_Node000003_Node000004" class="edge">
<title>Node3&#45;&gt;Node4</title>
<g id="a_edge3_Node000003_Node000004"><a xlink:title=" ">
<path fill="none" stroke="#63b8ff" d="M240.41,-298.73C219.16,-308.52 193.42,-319.83 169.75,-328.75 161.62,-331.81 152.95,-334.8 144.39,-337.6"/>
<polygon fill="#63b8ff" stroke="#63b8ff" points="241.8,-301.94 249.39,-294.55 238.84,-295.6 241.8,-301.94"/>
</a>
</g>
</g>
<!-- Node5 -->
<g id="Node000005" class="node">
<title>Node5</title>
<g id="a_Node000005"><a xlink:href="$classFManagedStorageFileWriteHandle.html#a77f55f333514ea123c9911a218f01ff3" xlink:title=" ">
<polygon fill="white" stroke="#666666" points="158.5,-319.5 11.25,-319.5 11.25,-286 158.5,-286 158.5,-319.5"/>
<text xml:space="preserve" text-anchor="start" x="19.25" y="-306" font-family="Helvetica,sans-Serif" font-size="10.00">FManagedStorageFileWrite</text>
<text xml:space="preserve" text-anchor="middle" x="84.88" y="-293.25" font-family="Helvetica,sans-Serif" font-size="10.00">Handle::Truncate</text>
</a>
</g>
</g>
<!-- Node3&#45;&gt;Node5 -->
<g id="edge4_Node000003_Node000005" class="edge">
<title>Node3&#45;&gt;Node5</title>
<g id="a_edge4_Node000003_Node000005"><a xlink:title=" ">
<path fill="none" stroke="#63b8ff" d="M201.94,-287.69C187.58,-289.55 172.76,-291.48 158.73,-293.3"/>
<polygon fill="#63b8ff" stroke="#63b8ff" points="202.38,-291.16 211.84,-286.4 201.47,-284.22 202.38,-291.16"/>
</a>
</g>
</g>
<!-- Node6 -->
<g id="Node000006" class="node">
<title>Node6</title>
<g id="a_Node000006"><a xlink:href="$classFManagedStorageFileWriteHandle.html#a54da580b40fc9a20194008401e9c946a" xlink:title=" ">
<polygon fill="white" stroke="#666666" points="158.5,-267.5 11.25,-267.5 11.25,-234 158.5,-234 158.5,-267.5"/>
<text xml:space="preserve" text-anchor="start" x="19.25" y="-254" font-family="Helvetica,sans-Serif" font-size="10.00">FManagedStorageFileWrite</text>
<text xml:space="preserve" text-anchor="middle" x="84.88" y="-241.25" font-family="Helvetica,sans-Serif" font-size="10.00">Handle::Write</text>
</a>
</g>
</g>
<!-- Node3&#45;&gt;Node6 -->
<g id="edge5_Node000003_Node000006" class="edge">
<title>Node3&#45;&gt;Node6</title>
<g id="a_edge5_Node000003_Node000006"><a xlink:title=" ">
<path fill="none" stroke="#63b8ff" d="M201.94,-265.81C187.58,-263.95 172.76,-262.02 158.73,-260.2"/>
<polygon fill="#63b8ff" stroke="#63b8ff" points="201.47,-269.28 211.84,-267.1 202.38,-262.34 201.47,-269.28"/>
</a>
</g>
</g>
<!-- Node7 -->
<g id="Node000007" class="node">
<title>Node7</title>
<g id="a_Node000007"><a xlink:href="$classFManagedStorageFileWriteHandle.html#a3c179aa6c2a36e7126fab5555ecc25ce" xlink:title=" ">
<polygon fill="white" stroke="#666666" points="169.75,-215.88 0,-215.88 0,-169.62 169.75,-169.62 169.75,-215.88"/>
<text xml:space="preserve" text-anchor="start" x="8" y="-202.38" font-family="Helvetica,sans-Serif" font-size="10.00">FManagedStorageFileWrite</text>
<text xml:space="preserve" text-anchor="start" x="8" y="-189.62" font-family="Helvetica,sans-Serif" font-size="10.00">Handle::~FManagedStorageFile</text>
<text xml:space="preserve" text-anchor="middle" x="84.88" y="-176.88" font-family="Helvetica,sans-Serif" font-size="10.00">WriteHandle</text>
</a>
</g>
</g>
<!-- Node3&#45;&gt;Node7 -->
<g id="edge6_Node000003_Node000007" class="edge">
<title>Node3&#45;&gt;Node7</title>
<g id="a_edge6_Node000003_Node000007"><a xlink:title=" ">
<path fill="none" stroke="#63b8ff" d="M215.7,-255.41C212.29,-253.93 208.96,-252.38 205.75,-250.75 188.14,-241.83 187.12,-234.13 169.75,-224.75 164.26,-221.79 158.44,-218.97 152.53,-216.33"/>
<polygon fill="#63b8ff" stroke="#63b8ff" points="214.08,-258.53 224.66,-259.05 216.71,-252.04 214.08,-258.53"/>
</a>
</g>
</g>
<!-- Node9 -->
<g id="Node000009" class="node">
<title>Node9</title>
<g id="a_Node000009"><a xlink:href="$classTManagedStoragePlatformFile.html#a6d6452b55fc51228de7d191fadba265e" xlink:title=" ">
<polygon fill="white" stroke="#666666" points="368.75,-241.5 205.75,-241.5 205.75,-208 368.75,-208 368.75,-241.5"/>
<text xml:space="preserve" text-anchor="start" x="213.75" y="-228" font-family="Helvetica,sans-Serif" font-size="10.00">TManagedStoragePlatformFile</text>
<text xml:space="preserve" text-anchor="middle" x="287.25" y="-215.25" font-family="Helvetica,sans-Serif" font-size="10.00">::CopyFile</text>
</a>
</g>
</g>
<!-- Node8&#45;&gt;Node9 -->
<g id="edge8_Node000008_Node000009" class="edge">
<title>Node8&#45;&gt;Node9</title>
<g id="a_edge8_Node000008_Node000009"><a xlink:title=" ">
<path fill="none" stroke="#63b8ff" d="M439.12,-168.71C417.91,-178.45 392.28,-189.73 368.75,-198.75 360.8,-201.8 352.31,-204.8 343.95,-207.62"/>
<polygon fill="#63b8ff" stroke="#63b8ff" points="440.48,-171.94 448.09,-164.56 437.54,-165.59 440.48,-171.94"/>
</a>
</g>
</g>
<!-- Node10 -->
<g id="Node000010" class="node">
<title>Node10</title>
<g id="a_Node000010"><a xlink:href="$classTManagedStoragePlatformFile.html#acf2e844595edc8bc9d11983ff5bfda4a" xlink:title=" ">
<polygon fill="white" stroke="#666666" points="368.75,-189.5 205.75,-189.5 205.75,-156 368.75,-156 368.75,-189.5"/>
<text xml:space="preserve" text-anchor="start" x="213.75" y="-176" font-family="Helvetica,sans-Serif" font-size="10.00">TManagedStoragePlatformFile</text>
<text xml:space="preserve" text-anchor="middle" x="287.25" y="-163.25" font-family="Helvetica,sans-Serif" font-size="10.00">::DeleteFile</text>
</a>
</g>
</g>
<!-- Node8&#45;&gt;Node10 -->
<g id="edge9_Node000008_Node000010" class="edge">
<title>Node8&#45;&gt;Node10</title>
<g id="a_edge9_Node000008_Node000010"><a xlink:title=" ">
<path fill="none" stroke="#63b8ff" d="M393.07,-158.92C385.11,-159.97 377.1,-161.02 369.23,-162.06"/>
<polygon fill="#63b8ff" stroke="#63b8ff" points="393.31,-162.41 402.77,-157.64 392.4,-155.47 393.31,-162.41"/>
</a>
</g>
</g>
<!-- Node11 -->
<g id="Node000011" class="node">
<title>Node11</title>
<g id="a_Node000011"><a xlink:href="$classTManagedStoragePlatformFile.html#a84f57f838858e5efce621cfe99c3cf60" xlink:title=" ">
<polygon fill="white" stroke="#666666" points="368.75,-137.5 205.75,-137.5 205.75,-104 368.75,-104 368.75,-137.5"/>
<text xml:space="preserve" text-anchor="start" x="213.75" y="-124" font-family="Helvetica,sans-Serif" font-size="10.00">TManagedStoragePlatformFile</text>
<text xml:space="preserve" text-anchor="middle" x="287.25" y="-111.25" font-family="Helvetica,sans-Serif" font-size="10.00">::DeleteFiles</text>
</a>
</g>
</g>
<!-- Node8&#45;&gt;Node11 -->
<g id="edge10_Node000008_Node000011" class="edge">
<title>Node8&#45;&gt;Node11</title>
<g id="a_edge10_Node000008_Node000011"><a xlink:title=" ">
<path fill="none" stroke="#63b8ff" d="M393.07,-134.58C385.11,-133.53 377.1,-132.48 369.23,-131.44"/>
<polygon fill="#63b8ff" stroke="#63b8ff" points="392.4,-138.03 402.77,-135.86 393.31,-131.09 392.4,-138.03"/>
</a>
</g>
</g>
<!-- Node12 -->
<g id="Node000012" class="node">
<title>Node12</title>
<g id="a_Node000012"><a xlink:href="$classTManagedStoragePlatformFile.html#a31b1d2c4e44e2a02b6cfa5975e44679e" xlink:title=" ">
<polygon fill="white" stroke="#666666" points="368.75,-85.5 205.75,-85.5 205.75,-52 368.75,-52 368.75,-85.5"/>
<text xml:space="preserve" text-anchor="start" x="213.75" y="-72" font-family="Helvetica,sans-Serif" font-size="10.00">TManagedStoragePlatformFile</text>
<text xml:space="preserve" text-anchor="middle" x="287.25" y="-59.25" font-family="Helvetica,sans-Serif" font-size="10.00">::MoveFile</text>
</a>
</g>
</g>
<!-- Node8&#45;&gt;Node12 -->
<g id="edge11_Node000008_Node000012" class="edge">
<title>Node8&#45;&gt;Node12</title>
<g id="a_edge11_Node000008_Node000012"><a xlink:title=" ">
<path fill="none" stroke="#63b8ff" d="M439.12,-124.79C417.91,-115.05 392.28,-103.77 368.75,-94.75 360.8,-91.7 352.31,-88.7 343.95,-85.88"/>
<polygon fill="#63b8ff" stroke="#63b8ff" points="437.54,-127.91 448.09,-128.94 440.48,-121.56 437.54,-127.91"/>
</a>
</g>
</g>
<!-- Node13 -->
<g id="Node000013" class="node">
<title>Node13</title>
<g id="a_Node000013"><a xlink:href="$classTManagedStoragePlatformFile.html#ac6c3112dbe0da6db46aa424217f40c65" xlink:title=" ">
<polygon fill="white" stroke="#666666" points="368.75,-33.5 205.75,-33.5 205.75,0 368.75,0 368.75,-33.5"/>
<text xml:space="preserve" text-anchor="start" x="213.75" y="-20" font-family="Helvetica,sans-Serif" font-size="10.00">TManagedStoragePlatformFile</text>
<text xml:space="preserve" text-anchor="middle" x="287.25" y="-7.25" font-family="Helvetica,sans-Serif" font-size="10.00">::OpenWrite</text>
</a>
</g>
</g>
<!-- Node8&#45;&gt;Node13 -->
<g id="edge12_Node000008_Node000013" class="edge">
<title>Node8&#45;&gt;Node13</title>
<g id="a_edge12_Node000008_Node000013"><a xlink:title=" ">
<path fill="none" stroke="#63b8ff" d="M462.63,-121.2C440.7,-97.83 405.46,-63.8 368.75,-42.75 363.02,-39.46 356.81,-36.53 350.48,-33.92"/>
<polygon fill="#63b8ff" stroke="#63b8ff" points="459.98,-123.49 469.33,-128.47 465.13,-118.74 459.98,-123.49"/>
</a>
</g>
</g>
</g>
</svg>
