<?xml version="1.0" encoding="UTF-8" standalone="no"?>
<!DOCTYPE svg PUBLIC "-//W3C//DTD SVG 1.1//EN"
 "http://www.w3.org/Graphics/SVG/1.1/DTD/svg11.dtd">
<!-- Generated by graphviz version 14.1.4 (0)
 -->
<!-- Title: USoundSubmix::StopEnvelopeFollowing Pages: 1 -->
<svg width="370pt" height="60pt"
 viewBox="0.00 0.00 370.00 60.00" xmlns="http://www.w3.org/2000/svg" xmlns:xlink="http://www.w3.org/1999/xlink">
<g id="graph0" class="graph" transform="scale(1 1) rotate(0) translate(4 55.5)">
<title>USoundSubmix::StopEnvelopeFollowing</title>
<!-- Node1 -->
<g id="Node000001" class="node">
<title>Node1</title>
<g id="a_Node000001"><a xlink:title=" ">
<polygon fill="#999999" stroke="#666666" points="362,-33.5 199,-33.5 199,0 362,0 362,-33.5"/>
<text xml:space="preserve" text-anchor="start" x="207" y="-20" font-family="Helvetica,sans-Serif" font-size="10.00">USoundSubmix::StopEnvelope</text>
<text xml:space="preserve" text-anchor="middle" x="280.5" y="-7.25" font-family="Helvetica,sans-Serif" font-size="10.00">Following</text>
</a>
</g>
</g>
<!-- Node1&#45;&gt;Node1 -->
<g id="edge1_Node000001_Node000001" class="edge">
<title>Node1&#45;&gt;Node1</title>
<g id="a_edge1_Node000001_Node000001"><a xlink:title=" ">
<path fill="none" stroke="#63b8ff" d="M313.91,-44.89C308.47,-48.85 297.33,-51.5 280.5,-51.5 250.57,-51.5 238.65,-43.12 244.73,-33.91"/>
<polygon fill="#63b8ff" stroke="#63b8ff" points="317.27,-45.91 315.95,-35.39 310.43,-44.44 317.27,-45.91"/>
</a>
</g>
</g>
<!-- Node2 -->
<g id="Node000002" class="node">
<title>Node2</title>
<g id="a_Node000002"><a xlink:href="classUSoundSubmix.html#a872ac5cdf88fd08df8c429de70402ecd" target="_top" xlink:title=" ">
<polygon fill="white" stroke="#666666" points="163,-33.5 0,-33.5 0,0 163,0 163,-33.5"/>
<text xml:space="preserve" text-anchor="start" x="8" y="-20" font-family="Helvetica,sans-Serif" font-size="10.00">USoundSubmix::StopEnvelope</text>
<text xml:space="preserve" text-anchor="middle" x="81.5" y="-7.25" font-family="Helvetica,sans-Serif" font-size="10.00">Following</text>
</a>
</g>
</g>
<!-- Node1&#45;&gt;Node2 -->
<g id="edge2_Node000001_Node000002" class="edge">
<title>Node1&#45;&gt;Node2</title>
<g id="a_edge2_Node000001_Node000002"><a xlink:title=" ">
<path fill="none" stroke="#63b8ff" d="M187.05,-16.75C179.18,-16.75 171.26,-16.75 163.48,-16.75"/>
<polygon fill="#63b8ff" stroke="#63b8ff" points="187.01,-20.25 197.01,-16.75 187.01,-13.25 187.01,-20.25"/>
</a>
</g>
</g>
</g>
</svg>
