<?xml version="1.0" encoding="UTF-8" standalone="no"?>
<!DOCTYPE svg PUBLIC "-//W3C//DTD SVG 1.1//EN"
 "http://www.w3.org/Graphics/SVG/1.1/DTD/svg11.dtd">
<!-- Generated by graphviz version 14.1.4 (0)
 -->
<!-- Title: IDelegateInstance::IsSafeToExecute Pages: 1 -->
<svg width="536pt" height="170pt"
 viewBox="0.00 0.00 536.00 170.00" xmlns="http://www.w3.org/2000/svg" xmlns:xlink="http://www.w3.org/1999/xlink">
<g id="graph0" class="graph" transform="scale(1 1) rotate(0) translate(4 166.25)">
<title>IDelegateInstance::IsSafeToExecute</title>
<!-- Node1 -->
<g id="Node000001" class="node">
<title>Node1</title>
<g id="a_Node000001"><a xlink:title=" ">
<polygon fill="#999999" stroke="#666666" points="528,-123.88 417.5,-123.88 417.5,-90.38 528,-90.38 528,-123.88"/>
<text xml:space="preserve" text-anchor="start" x="425.5" y="-110.38" font-family="Helvetica,sans-Serif" font-size="10.00">IDelegateInstance::</text>
<text xml:space="preserve" text-anchor="middle" x="472.75" y="-97.62" font-family="Helvetica,sans-Serif" font-size="10.00">IsSafeToExecute</text>
</a>
</g>
</g>
<!-- Node2 -->
<g id="Node000002" class="node">
<title>Node2</title>
<g id="a_Node000002"><a xlink:href="$classTDelegateBase.html#a16e21dd26ce40b50d9fcbf690b982ce9" xlink:title=" ">
<polygon fill="white" stroke="#666666" points="381.5,-149.88 208.75,-149.88 208.75,-116.38 381.5,-116.38 381.5,-149.88"/>
<text xml:space="preserve" text-anchor="start" x="216.75" y="-136.38" font-family="Helvetica,sans-Serif" font-size="10.00">TDelegateBase&lt; FThreadSafety</text>
<text xml:space="preserve" text-anchor="middle" x="295.12" y="-123.62" font-family="Helvetica,sans-Serif" font-size="10.00">Mode &gt;::IsBound</text>
</a>
</g>
</g>
<!-- Node1&#45;&gt;Node2 -->
<g id="edge1_Node000001_Node000002" class="edge">
<title>Node1&#45;&gt;Node2</title>
<g id="a_edge1_Node000001_Node000002"><a xlink:title=" ">
<path fill="none" stroke="#63b8ff" d="M405.9,-116.87C398.08,-118.03 390.02,-119.22 381.98,-120.42"/>
<polygon fill="#63b8ff" stroke="#63b8ff" points="406.27,-120.36 415.65,-115.43 405.24,-113.43 406.27,-120.36"/>
</a>
</g>
</g>
<!-- Node3 -->
<g id="Node000003" class="node">
<title>Node3</title>
<g id="a_Node000003"><a xlink:href="$classIDelegateInstance.html#aef57c988c74391aa69105e7f7e481c3e" xlink:title=" ">
<polygon fill="white" stroke="#666666" points="350.38,-97.88 239.88,-97.88 239.88,-64.38 350.38,-64.38 350.38,-97.88"/>
<text xml:space="preserve" text-anchor="start" x="247.88" y="-84.38" font-family="Helvetica,sans-Serif" font-size="10.00">IDelegateInstance::</text>
<text xml:space="preserve" text-anchor="middle" x="295.12" y="-71.62" font-family="Helvetica,sans-Serif" font-size="10.00">IsCompactable</text>
</a>
</g>
</g>
<!-- Node1&#45;&gt;Node3 -->
<g id="edge2_Node000001_Node000003" class="edge">
<title>Node1&#45;&gt;Node3</title>
<g id="a_edge2_Node000001_Node000003"><a xlink:title=" ">
<path fill="none" stroke="#63b8ff" d="M406,-97.39C387.78,-94.69 368.21,-91.8 350.7,-89.2"/>
<polygon fill="#63b8ff" stroke="#63b8ff" points="405.24,-100.82 415.65,-98.82 406.27,-93.89 405.24,-100.82"/>
</a>
</g>
</g>
<!-- Node4 -->
<g id="Node000004" class="node">
<title>Node4</title>
<g id="a_Node000004"><a xlink:href="$classTMulticastDelegateBase.html#a96202ba470500d79ffc909919fa28825" xlink:title=" ">
<polygon fill="white" stroke="#666666" points="169,-162.25 3.75,-162.25 3.75,-116 169,-116 169,-162.25"/>
<text xml:space="preserve" text-anchor="start" x="11.75" y="-148.75" font-family="Helvetica,sans-Serif" font-size="10.00">TMulticastDelegateBase</text>
<text xml:space="preserve" text-anchor="start" x="11.75" y="-136" font-family="Helvetica,sans-Serif" font-size="10.00">&lt; FDefaultDelegateUserPolicy</text>
<text xml:space="preserve" text-anchor="middle" x="86.38" y="-123.25" font-family="Helvetica,sans-Serif" font-size="10.00"> &gt;::CompactInvocationList</text>
</a>
</g>
</g>
<!-- Node3&#45;&gt;Node4 -->
<g id="edge3_Node000003_Node000004" class="edge">
<title>Node3&#45;&gt;Node4</title>
<g id="a_edge3_Node000003_Node000004"><a xlink:title=" ">
<path fill="none" stroke="#63b8ff" d="M228.66,-99.49C209.77,-104.79 188.92,-110.64 169.17,-116.18"/>
<polygon fill="#63b8ff" stroke="#63b8ff" points="229.39,-102.92 238.08,-96.85 227.5,-96.18 229.39,-102.92"/>
</a>
</g>
</g>
<!-- Node5 -->
<g id="Node000005" class="node">
<title>Node5</title>
<g id="a_Node000005"><a xlink:href="$classTDelegateBase.html#a43c5f8cf81c24366ceb8151d9aacb9ca" xlink:title=" ">
<polygon fill="white" stroke="#666666" points="172.75,-97.88 0,-97.88 0,-64.38 172.75,-64.38 172.75,-97.88"/>
<text xml:space="preserve" text-anchor="start" x="8" y="-84.38" font-family="Helvetica,sans-Serif" font-size="10.00">TDelegateBase&lt; FThreadSafety</text>
<text xml:space="preserve" text-anchor="middle" x="86.38" y="-71.62" font-family="Helvetica,sans-Serif" font-size="10.00">Mode &gt;::IsCompactable</text>
</a>
</g>
</g>
<!-- Node3&#45;&gt;Node5 -->
<g id="edge4_Node000003_Node000005" class="edge">
<title>Node3&#45;&gt;Node5</title>
<g id="a_edge4_Node000003_Node000005"><a xlink:title=" ">
<path fill="none" stroke="#63b8ff" d="M228.03,-81.12C210.57,-81.12 191.46,-81.12 173.13,-81.12"/>
<polygon fill="#63b8ff" stroke="#63b8ff" points="228.02,-84.63 238.02,-81.13 228.02,-77.63 228.02,-84.63"/>
</a>
</g>
</g>
<!-- Node6 -->
<g id="Node000006" class="node">
<title>Node6</title>
<g id="a_Node000006"><a xlink:href="$classTMulticastDelegateBase.html#a7cad92baa7c54dc117e8a46f3582e75c" xlink:title=" ">
<polygon fill="white" stroke="#666666" points="169,-46.25 3.75,-46.25 3.75,0 169,0 169,-46.25"/>
<text xml:space="preserve" text-anchor="start" x="11.75" y="-32.75" font-family="Helvetica,sans-Serif" font-size="10.00">TMulticastDelegateBase</text>
<text xml:space="preserve" text-anchor="start" x="11.75" y="-20" font-family="Helvetica,sans-Serif" font-size="10.00">&lt; FDefaultDelegateUserPolicy</text>
<text xml:space="preserve" text-anchor="middle" x="86.38" y="-7.25" font-family="Helvetica,sans-Serif" font-size="10.00"> &gt;::RemoveAll</text>
</a>
</g>
</g>
<!-- Node3&#45;&gt;Node6 -->
<g id="edge5_Node000003_Node000006" class="edge">
<title>Node3&#45;&gt;Node6</title>
<g id="a_edge5_Node000003_Node000006"><a xlink:title=" ">
<path fill="none" stroke="#63b8ff" d="M228.66,-62.76C209.77,-57.46 188.92,-51.61 169.17,-46.07"/>
<polygon fill="#63b8ff" stroke="#63b8ff" points="227.5,-66.07 238.08,-65.4 229.39,-59.33 227.5,-66.07"/>
</a>
</g>
</g>
</g>
</svg>
