<?xml version="1.0" encoding="UTF-8" standalone="no"?>
<!DOCTYPE svg PUBLIC "-//W3C//DTD SVG 1.1//EN"
 "http://www.w3.org/Graphics/SVG/1.1/DTD/svg11.dtd">
<!-- Generated by graphviz version 14.1.4 (0)
 -->
<!-- Title: TAllocPlaybackLog::Load Pages: 1 -->
<svg width="578pt" height="158pt"
 viewBox="0.00 0.00 578.00 158.00" xmlns="http://www.w3.org/2000/svg" xmlns:xlink="http://www.w3.org/1999/xlink">
<g id="graph0" class="graph" transform="scale(1 1) rotate(0) translate(4 153.75)">
<title>TAllocPlaybackLog::Load</title>
<!-- Node1 -->
<g id="Node000001" class="node">
<title>Node1</title>
<g id="a_Node000001"><a xlink:title=" ">
<polygon fill="#999999" stroke="#666666" points="136.75,-87.75 0,-87.75 0,-67 136.75,-67 136.75,-87.75"/>
<text xml:space="preserve" text-anchor="middle" x="68.38" y="-74.25" font-family="Helvetica,sans-Serif" font-size="10.00">TAllocPlaybackLog::Load</text>
</a>
</g>
</g>
<!-- Node2 -->
<g id="Node000002" class="node">
<title>Node2</title>
<g id="a_Node000002"><a xlink:href="$classTMapBase.html#a65689cf87ee042170d4aec6112b8f606" xlink:title=" ">
<polygon fill="white" stroke="#666666" points="296.38,-149.75 204.62,-149.75 204.62,-129 296.38,-129 296.38,-149.75"/>
<text xml:space="preserve" text-anchor="middle" x="250.5" y="-136.25" font-family="Helvetica,sans-Serif" font-size="10.00">TMapBase::Add</text>
</a>
</g>
</g>
<!-- Node1&#45;&gt;Node2 -->
<g id="edge1_Node000001_Node000002" class="edge">
<title>Node1&#45;&gt;Node2</title>
<g id="a_edge1_Node000001_Node000002"><a xlink:title=" ">
<path fill="none" stroke="#63b8ff" d="M93.27,-88.13C114.01,-97.2 144.99,-110.16 172.75,-119.38 179.35,-121.57 186.34,-123.67 193.3,-125.64"/>
<polygon fill="#63b8ff" stroke="#63b8ff" points="192.13,-128.95 202.7,-128.21 193.98,-122.2 192.13,-128.95"/>
</a>
</g>
</g>
<!-- Node5 -->
<g id="Node000005" class="node">
<title>Node5</title>
<g id="a_Node000005"><a xlink:href="$classTMapBase.html#ad26860a91cd15f2175e4c5b8615e45be" xlink:title=" ">
<polygon fill="white" stroke="#666666" points="296.75,-110.75 204.25,-110.75 204.25,-90 296.75,-90 296.75,-110.75"/>
<text xml:space="preserve" text-anchor="middle" x="250.5" y="-97.25" font-family="Helvetica,sans-Serif" font-size="10.00">TMapBase::Find</text>
</a>
</g>
</g>
<!-- Node1&#45;&gt;Node5 -->
<g id="edge4_Node000001_Node000005" class="edge">
<title>Node1&#45;&gt;Node5</title>
<g id="a_edge4_Node000001_Node000005"><a xlink:title=" ">
<path fill="none" stroke="#63b8ff" d="M137.22,-86.04C155.46,-88.37 175,-90.86 192.58,-93.11"/>
<polygon fill="#63b8ff" stroke="#63b8ff" points="191.95,-96.56 202.32,-94.35 192.84,-89.61 191.95,-96.56"/>
</a>
</g>
</g>
<!-- Node6 -->
<g id="Node000006" class="node">
<title>Node6</title>
<g id="a_Node000006"><a xlink:href="$structFFileHelper.html#ae1677ecbab147fbcfb392977b3315ca3" xlink:title=" ">
<polygon fill="white" stroke="#666666" points="328.25,-72.12 172.75,-72.12 172.75,-38.62 328.25,-38.62 328.25,-72.12"/>
<text xml:space="preserve" text-anchor="start" x="180.75" y="-58.62" font-family="Helvetica,sans-Serif" font-size="10.00">FFileHelper::LoadFileToString</text>
<text xml:space="preserve" text-anchor="middle" x="250.5" y="-45.88" font-family="Helvetica,sans-Serif" font-size="10.00">Array</text>
</a>
</g>
</g>
<!-- Node1&#45;&gt;Node6 -->
<g id="edge5_Node000001_Node000006" class="edge">
<title>Node1&#45;&gt;Node6</title>
<g id="a_edge5_Node000001_Node000006"><a xlink:title=" ">
<path fill="none" stroke="#63b8ff" d="M137.22,-69.09C145.01,-68.14 153.04,-67.16 161.06,-66.18"/>
<polygon fill="#63b8ff" stroke="#63b8ff" points="161.35,-69.67 170.85,-64.98 160.5,-62.72 161.35,-69.67"/>
</a>
</g>
</g>
<!-- Node7 -->
<g id="Node000007" class="node">
<title>Node7</title>
<g id="a_Node000007"><a xlink:href="$classTArray.html#aa9fe9ac518f83c21f0fa5592dec9536e" xlink:title=" ">
<polygon fill="white" stroke="#666666" points="288.88,-20.75 212.12,-20.75 212.12,0 288.88,0 288.88,-20.75"/>
<text xml:space="preserve" text-anchor="middle" x="250.5" y="-7.25" font-family="Helvetica,sans-Serif" font-size="10.00">TArray::Num</text>
</a>
</g>
</g>
<!-- Node1&#45;&gt;Node7 -->
<g id="edge6_Node000001_Node000007" class="edge">
<title>Node1&#45;&gt;Node7</title>
<g id="a_edge6_Node000001_Node000007"><a xlink:title=" ">
<path fill="none" stroke="#63b8ff" d="M89.49,-66.63C109.97,-56.01 142.89,-39.89 172.75,-29.38 181.78,-26.2 191.58,-23.34 201.07,-20.86"/>
<polygon fill="#63b8ff" stroke="#63b8ff" points="201.67,-24.32 210.52,-18.51 199.97,-17.53 201.67,-24.32"/>
</a>
</g>
</g>
<!-- Node3 -->
<g id="Node000003" class="node">
<title>Node3</title>
<g id="a_Node000003"><a xlink:href="$classTMapBase.html#aedf2f4b6ff746fae0226902fbbff08f7" xlink:title=" ">
<polygon fill="white" stroke="#666666" points="479.25,-149.75 364.25,-149.75 364.25,-129 479.25,-129 479.25,-149.75"/>
<text xml:space="preserve" text-anchor="middle" x="421.75" y="-136.25" font-family="Helvetica,sans-Serif" font-size="10.00">TMapBase::Emplace</text>
</a>
</g>
</g>
<!-- Node2&#45;&gt;Node3 -->
<g id="edge2_Node000002_Node000003" class="edge">
<title>Node2&#45;&gt;Node3</title>
<g id="a_edge2_Node000002_Node000003"><a xlink:title=" ">
<path fill="none" stroke="#63b8ff" d="M296.86,-139.38C313.97,-139.38 333.83,-139.38 352.57,-139.38"/>
<polygon fill="#63b8ff" stroke="#63b8ff" points="352.55,-142.88 362.55,-139.38 352.55,-135.88 352.55,-142.88"/>
</a>
</g>
</g>
<!-- Node4 -->
<g id="Node000004" class="node">
<title>Node4</title>
<g id="a_Node000004"><a xlink:href="$UnrealTemplate_8h.html#aea228b8b6d93b902d974d3bfa72f888f" xlink:title=" ">
<polygon fill="white" stroke="#666666" points="570.25,-149.75 515.25,-149.75 515.25,-129 570.25,-129 570.25,-149.75"/>
<text xml:space="preserve" text-anchor="middle" x="542.75" y="-136.25" font-family="Helvetica,sans-Serif" font-size="10.00">Forward</text>
</a>
</g>
</g>
<!-- Node3&#45;&gt;Node4 -->
<g id="edge3_Node000003_Node000004" class="edge">
<title>Node3&#45;&gt;Node4</title>
<g id="a_edge3_Node000003_Node000004"><a xlink:title=" ">
<path fill="none" stroke="#63b8ff" d="M479.46,-139.38C487.55,-139.38 495.72,-139.38 503.35,-139.38"/>
<polygon fill="#63b8ff" stroke="#63b8ff" points="503.3,-142.88 513.3,-139.38 503.3,-135.88 503.3,-142.88"/>
</a>
</g>
</g>
</g>
</svg>
