<?xml version="1.0" encoding="UTF-8" standalone="no"?>
<!DOCTYPE svg PUBLIC "-//W3C//DTD SVG 1.1//EN"
 "http://www.w3.org/Graphics/SVG/1.1/DTD/svg11.dtd">
<!-- Generated by graphviz version 14.1.4 (0)
 -->
<!-- Title: AwaitableTask_Detail::TPromiseVTable&lt; PromiseType &gt; Pages: 1 -->
<svg width="185pt" height="565pt"
 viewBox="0.00 0.00 185.00 565.00" xmlns="http://www.w3.org/2000/svg" xmlns:xlink="http://www.w3.org/1999/xlink">
<g id="graph0" class="graph" transform="scale(1 1) rotate(0) translate(4 560.75)">
<title>AwaitableTask_Detail::TPromiseVTable&lt; PromiseType &gt;</title>
<!-- Node1 -->
<g id="Node000001" class="node">
<title>Node1</title>
<g id="a_Node000001"><a xlink:title=" ">
<polygon fill="#999999" stroke="none" points="176.75,-184.25 0,-184.25 0,0 176.75,0 176.75,-184.25"/>
<text xml:space="preserve" text-anchor="start" x="4" y="-170.5" font-family="Helvetica,sans-Serif" font-size="10.00">AwaitableTask_Detail</text>
<text xml:space="preserve" text-anchor="start" x="4" y="-157.75" font-family="Helvetica,sans-Serif" font-size="10.00">::TPromiseVTable&lt; PromiseType &gt;</text>
<text xml:space="preserve" text-anchor="start" x="85.38" y="-141" font-family="Helvetica,sans-Serif" font-size="10.00"> </text>
<text xml:space="preserve" text-anchor="start" x="17.62" y="-124.25" font-family="Helvetica,sans-Serif" font-size="10.00">+</text>
<text xml:space="preserve" text-anchor="start" x="43.5" y="-124.25" font-family="Helvetica,sans-Serif" font-size="10.00">TPromiseVTable()</text>
<text xml:space="preserve" text-anchor="start" x="17.62" y="-107.5" font-family="Helvetica,sans-Serif" font-size="10.00">+</text>
<text xml:space="preserve" text-anchor="start" x="43.5" y="-107.5" font-family="Helvetica,sans-Serif" font-size="10.00">TryLaunch()</text>
<text xml:space="preserve" text-anchor="start" x="17.62" y="-90.75" font-family="Helvetica,sans-Serif" font-size="10.00">+</text>
<text xml:space="preserve" text-anchor="start" x="43.5" y="-90.75" font-family="Helvetica,sans-Serif" font-size="10.00">IncrementRefCount()</text>
<text xml:space="preserve" text-anchor="start" x="17.62" y="-74" font-family="Helvetica,sans-Serif" font-size="10.00">+</text>
<text xml:space="preserve" text-anchor="start" x="43.5" y="-74" font-family="Helvetica,sans-Serif" font-size="10.00">GetResult()</text>
<text xml:space="preserve" text-anchor="start" x="17.62" y="-57.25" font-family="Helvetica,sans-Serif" font-size="10.00">+</text>
<text xml:space="preserve" text-anchor="start" x="43.5" y="-57.25" font-family="Helvetica,sans-Serif" font-size="10.00">IsLaunched()</text>
<text xml:space="preserve" text-anchor="start" x="17.62" y="-40.5" font-family="Helvetica,sans-Serif" font-size="10.00">+</text>
<text xml:space="preserve" text-anchor="start" x="43.5" y="-40.5" font-family="Helvetica,sans-Serif" font-size="10.00">IsValid()</text>
<text xml:space="preserve" text-anchor="start" x="17.62" y="-23.75" font-family="Helvetica,sans-Serif" font-size="10.00">+</text>
<text xml:space="preserve" text-anchor="start" x="43.5" y="-23.75" font-family="Helvetica,sans-Serif" font-size="10.00">IsCompleted()</text>
<text xml:space="preserve" text-anchor="start" x="17.62" y="-7" font-family="Helvetica,sans-Serif" font-size="10.00">+</text>
<text xml:space="preserve" text-anchor="start" x="43.5" y="-7" font-family="Helvetica,sans-Serif" font-size="10.00">Finish()</text>
<polygon fill="#666666" stroke="#666666" points="0,-152.75 0,-152.75 176.75,-152.75 176.75,-152.75 0,-152.75"/>
<polygon fill="#666666" stroke="#666666" points="0,-136 0,-136 176.75,-136 176.75,-136 0,-136"/>
<polygon fill="none" stroke="#666666" points="0,0 0,-184.25 176.75,-184.25 176.75,0 0,0"/>
</a>
</g>
</g>
<!-- Node2 -->
<g id="Node000002" class="node">
<title>Node2</title>
<g id="a_Node000002"><a xlink:href="$classAwaitableTask__Detail_1_1TPromiseVTableBase.html" xlink:title=" ">
<polygon fill="white" stroke="none" points="165.12,-435 11.62,-435 11.62,-221.25 165.12,-221.25 165.12,-435"/>
<text xml:space="preserve" text-anchor="start" x="15.62" y="-421.25" font-family="Helvetica,sans-Serif" font-size="10.00">AwaitableTask_Detail</text>
<text xml:space="preserve" text-anchor="start" x="15.62" y="-408.5" font-family="Helvetica,sans-Serif" font-size="10.00">::TPromiseVTableBase</text>
<text xml:space="preserve" text-anchor="start" x="15.62" y="-395.75" font-family="Helvetica,sans-Serif" font-size="10.00">&lt; PromiseType::ReturnType &gt;</text>
<text xml:space="preserve" text-anchor="start" x="85.38" y="-379" font-family="Helvetica,sans-Serif" font-size="10.00"> </text>
<text xml:space="preserve" text-anchor="start" x="21.56" y="-362.25" font-family="Helvetica,sans-Serif" font-size="10.00">+</text>
<text xml:space="preserve" text-anchor="start" x="39.75" y="-362.25" font-family="Helvetica,sans-Serif" font-size="10.00">TryLaunch()</text>
<text xml:space="preserve" text-anchor="start" x="21.56" y="-345.5" font-family="Helvetica,sans-Serif" font-size="10.00">+</text>
<text xml:space="preserve" text-anchor="start" x="39.75" y="-345.5" font-family="Helvetica,sans-Serif" font-size="10.00">IncrementRefCount()</text>
<text xml:space="preserve" text-anchor="start" x="21.56" y="-328.75" font-family="Helvetica,sans-Serif" font-size="10.00">+</text>
<text xml:space="preserve" text-anchor="start" x="39.75" y="-328.75" font-family="Helvetica,sans-Serif" font-size="10.00">GetResult()</text>
<text xml:space="preserve" text-anchor="start" x="21.56" y="-312" font-family="Helvetica,sans-Serif" font-size="10.00">+</text>
<text xml:space="preserve" text-anchor="start" x="39.75" y="-312" font-family="Helvetica,sans-Serif" font-size="10.00">IsLaunched()</text>
<text xml:space="preserve" text-anchor="start" x="21.56" y="-295.25" font-family="Helvetica,sans-Serif" font-size="10.00">+</text>
<text xml:space="preserve" text-anchor="start" x="39.75" y="-295.25" font-family="Helvetica,sans-Serif" font-size="10.00">IsValid()</text>
<text xml:space="preserve" text-anchor="start" x="21.56" y="-278.5" font-family="Helvetica,sans-Serif" font-size="10.00">+</text>
<text xml:space="preserve" text-anchor="start" x="39.75" y="-278.5" font-family="Helvetica,sans-Serif" font-size="10.00">IsCompleted()</text>
<text xml:space="preserve" text-anchor="start" x="21.56" y="-261.75" font-family="Helvetica,sans-Serif" font-size="10.00">+</text>
<text xml:space="preserve" text-anchor="start" x="39.75" y="-261.75" font-family="Helvetica,sans-Serif" font-size="10.00">Finish()</text>
<text xml:space="preserve" text-anchor="start" x="21.56" y="-245" font-family="Helvetica,sans-Serif" font-size="10.00">+</text>
<text xml:space="preserve" text-anchor="start" x="39.75" y="-245" font-family="Helvetica,sans-Serif" font-size="10.00">operator=()</text>
<text xml:space="preserve" text-anchor="start" x="21.56" y="-228.25" font-family="Helvetica,sans-Serif" font-size="10.00">#</text>
<text xml:space="preserve" text-anchor="start" x="39.75" y="-228.25" font-family="Helvetica,sans-Serif" font-size="10.00">TPromiseVTableBase()</text>
<polygon fill="#666666" stroke="#666666" points="11.62,-390.75 11.62,-390.75 165.12,-390.75 165.12,-390.75 11.62,-390.75"/>
<polygon fill="#666666" stroke="#666666" points="11.62,-374 11.62,-374 165.12,-374 165.12,-374 11.62,-374"/>
<polygon fill="none" stroke="#666666" points="11.62,-221.25 11.62,-435 165.12,-435 165.12,-221.25 11.62,-221.25"/>
</a>
</g>
</g>
<!-- Node2&#45;&gt;Node1 -->
<g id="edge1_Node000001_Node000002" class="edge">
<title>Node2&#45;&gt;Node1</title>
<g id="a_edge1_Node000001_Node000002"><a xlink:title=" ">
<path fill="none" stroke="#63b8ff" d="M88.38,-209.99C88.38,-201.28 88.38,-192.57 88.38,-184.05"/>
<polygon fill="none" stroke="#63b8ff" points="84.88,-209.91 88.38,-219.91 91.88,-209.91 84.88,-209.91"/>
</a>
</g>
</g>
<!-- Node3 -->
<g id="Node000003" class="node">
<title>Node3</title>
<g id="a_Node000003"><a xlink:href="$classAwaitableTask__Detail_1_1FPromiseBase.html" xlink:title=" ">
<polygon fill="white" stroke="none" points="144.88,-556.75 31.88,-556.75 31.88,-489.75 144.88,-489.75 144.88,-556.75"/>
<text xml:space="preserve" text-anchor="start" x="35.88" y="-543" font-family="Helvetica,sans-Serif" font-size="10.00">AwaitableTask_Detail</text>
<text xml:space="preserve" text-anchor="start" x="50.5" y="-530.25" font-family="Helvetica,sans-Serif" font-size="10.00">::FPromiseBase</text>
<text xml:space="preserve" text-anchor="start" x="85.38" y="-513.5" font-family="Helvetica,sans-Serif" font-size="10.00"> </text>
<text xml:space="preserve" text-anchor="start" x="85.38" y="-496.75" font-family="Helvetica,sans-Serif" font-size="10.00"> </text>
<polygon fill="#666666" stroke="#666666" points="31.88,-525.25 31.88,-525.25 144.88,-525.25 144.88,-525.25 31.88,-525.25"/>
<polygon fill="#666666" stroke="#666666" points="31.88,-508.5 31.88,-508.5 144.88,-508.5 144.88,-508.5 31.88,-508.5"/>
<polygon fill="none" stroke="#666666" points="31.88,-489.75 31.88,-556.75 144.88,-556.75 144.88,-489.75 31.88,-489.75"/>
</a>
</g>
</g>
<!-- Node3&#45;&gt;Node2 -->
<g id="edge2_Node000002_Node000003" class="edge">
<title>Node3&#45;&gt;Node2</title>
<g id="a_edge2_Node000002_Node000003"><a xlink:title=" ">
<path fill="none" stroke="#63b8ff" d="M88.38,-489.93C88.38,-477.85 88.38,-463.31 88.38,-447.98"/>
<polygon fill="none" stroke="#63b8ff" points="88.38,-447.86 84.38,-441.86 88.38,-435.86 92.38,-441.86 88.38,-447.86"/>
</a>
</g>
<text xml:space="preserve" text-anchor="start" x="91.38" y="-459" font-family="Helvetica,sans-Serif" font-size="10.00" fill="grey">#Promise</text>
</g>
</g>
</svg>
