<?xml version="1.0" encoding="UTF-8" standalone="no"?>
<!DOCTYPE svg PUBLIC "-//W3C//DTD SVG 1.1//EN"
 "http://www.w3.org/Graphics/SVG/1.1/DTD/svg11.dtd">
<!-- Generated by graphviz version 14.1.4 (0)
 -->
<!-- Title: UHapticFeedbackEffect_Base Pages: 1 -->
<!--zoomable 453 -->

<svg id="main" version="1.1" xmlns="http://www.w3.org/2000/svg" xmlns:xlink="http://www.w3.org/1999/xlink" xml:space="preserve" onload="init(evt)">

<style type="text/css"><![CDATA[
.node, .edge {opacity: 0.7;}
.node.selected, .edge.selected {opacity: 1;}
.edge:hover path { stroke: red; }
.edge:hover polygon { stroke: red; fill: red; }
]]></style>

<defs>
  <circle id="rim" cx="0" cy="0" r="7"/>
  <circle id="rim2" cx="0" cy="0" r="3.5"/>
  <g id="zoomPlus">
    <use xlink:href="#rim" fill="#404040"><set attributeName="fill" to="#808080" begin="zoomplus.mouseover" end="zoomplus.mouseout"/></use>
    <path d="M-4,0h8M0,-4v8" fill="none" stroke="white" stroke-width="1.5" pointer-events="none"/>
  </g>
  <g id="zoomMin">
    <use xlink:href="#rim" fill="#404040"><set attributeName="fill" to="#808080" begin="zoomminus.mouseover" end="zoomminus.mouseout"/></use>
    <path d="M-4,0h8" fill="none" stroke="white" stroke-width="1.5" pointer-events="none"/>
  </g>
  <g id="arrowUp" transform="translate(30 24)">
    <use xlink:href="#rim"/>
    <path pointer-events="none" fill="none" stroke="white" stroke-width="1.5" d="M0,-3.0v7 M-2.5,-0.5L0,-3.0L2.5,-0.5"/>
  </g>
  <g id="arrowRight" transform="rotate(90) translate(36 -43)">
    <use xlink:href="#rim"/>
    <path pointer-events="none" fill="none" stroke="white" stroke-width="1.5" d="M0,-3.0v7 M-2.5,-0.5L0,-3.0L2.5,-0.5"/>
  </g>
  <g id="arrowDown" transform="rotate(180) translate(-30 -48)">
    <use xlink:href="#rim"/>
    <path pointer-events="none" fill="none" stroke="white" stroke-width="1.5" d="M0,-3.0v7 M-2.5,-0.5L0,-3.0L2.5,-0.5"/>
  </g>
  <g id="arrowLeft" transform="rotate(270) translate(-36 17)">
    <use xlink:href="#rim"/>
    <path pointer-events="none" fill="none" stroke="white" stroke-width="1.5" d="M0,-3.0v7 M-2.5,-0.5L0,-3.0L2.5,-0.5"/>
  </g>
  <g id="resetDef">
    <use xlink:href="#rim2" fill="#404040"><set attributeName="fill" to="#808080" begin="reset.mouseover" end="reset.mouseout"/></use>
  </g>
</defs>
<script type="application/ecmascript">
var viewWidth = 484;
var viewHeight = 453;
var sectionId = 'dynsection-0';
</script>
<script type="application/ecmascript" xlink:href="svg.min.js"/>
<svg id="graph" class="graph">
<g id="viewport">
<title>UHapticFeedbackEffect_Base</title>
<!-- Node1 -->
<g id="Node000001" class="node">
<title>Node1</title>
<g id="a_Node000001"><a xlink:title=" ">
<polygon fill="#999999" stroke="none" points="292.62,-354.25 141.38,-354.25 141.38,-266.5 292.62,-266.5 292.62,-354.25"/>
<text xml:space="preserve" text-anchor="start" x="145.38" y="-340.5" font-family="Helvetica,sans-Serif" font-size="10.00">UHapticFeedbackEffect_Base</text>
<text xml:space="preserve" text-anchor="start" x="214" y="-323.75" font-family="Helvetica,sans-Serif" font-size="10.00"> </text>
<text xml:space="preserve" text-anchor="start" x="162.56" y="-307" font-family="Helvetica,sans-Serif" font-size="10.00">&#45;</text>
<text xml:space="preserve" text-anchor="start" x="187.5" y="-307" font-family="Helvetica,sans-Serif" font-size="10.00">Initialize()</text>
<text xml:space="preserve" text-anchor="start" x="162.56" y="-290.25" font-family="Helvetica,sans-Serif" font-size="10.00">&#45;</text>
<text xml:space="preserve" text-anchor="start" x="187.5" y="-290.25" font-family="Helvetica,sans-Serif" font-size="10.00">GetValues()</text>
<text xml:space="preserve" text-anchor="start" x="162.56" y="-273.5" font-family="Helvetica,sans-Serif" font-size="10.00">&#45;</text>
<text xml:space="preserve" text-anchor="start" x="187.5" y="-273.5" font-family="Helvetica,sans-Serif" font-size="10.00">GetDuration()</text>
<polygon fill="#666666" stroke="#666666" points="141.38,-335.5 141.38,-335.5 292.62,-335.5 292.62,-335.5 141.38,-335.5"/>
<polygon fill="#666666" stroke="#666666" points="141.38,-318.75 141.38,-318.75 292.62,-318.75 292.62,-318.75 141.38,-318.75"/>
<polygon fill="none" stroke="#666666" points="141.38,-266.5 141.38,-354.25 292.62,-354.25 292.62,-266.5 141.38,-266.5"/>
</a>
</g>
</g>
<!-- Node3 -->
<g id="Node000003" class="node">
<title>Node3</title>
<g id="a_Node000003"><a xlink:href="classUHapticFeedbackEffect__Buffer.html" target="_top" xlink:title=" ">
<polygon fill="white" stroke="none" points="138,-188.62 0,-188.62 0,-41.88 138,-41.88 138,-188.62"/>
<text xml:space="preserve" text-anchor="start" x="12" y="-174.88" font-family="Helvetica,sans-Serif" font-size="10.00">UHapticFeedbackEffect</text>
<text xml:space="preserve" text-anchor="start" x="51.38" y="-162.12" font-family="Helvetica,sans-Serif" font-size="10.00">_Buffer</text>
<text xml:space="preserve" text-anchor="start" x="4" y="-145.38" font-family="Helvetica,sans-Serif" font-size="10.00">&#45;</text>
<text xml:space="preserve" text-anchor="start" x="11.75" y="-145.38" font-family="Helvetica,sans-Serif" font-size="10.00">Amplitudes</text>
<text xml:space="preserve" text-anchor="start" x="4" y="-128.62" font-family="Helvetica,sans-Serif" font-size="10.00">&#45;</text>
<text xml:space="preserve" text-anchor="start" x="11.75" y="-128.62" font-family="Helvetica,sans-Serif" font-size="10.00">SampleRate</text>
<text xml:space="preserve" text-anchor="start" x="4" y="-111.88" font-family="Helvetica,sans-Serif" font-size="10.00">&#45;</text>
<text xml:space="preserve" text-anchor="start" x="11.75" y="-111.88" font-family="Helvetica,sans-Serif" font-size="10.00">~UHapticFeedbackEffect</text>
<text xml:space="preserve" text-anchor="start" x="11.75" y="-99.12" font-family="Helvetica,sans-Serif" font-size="10.00">_Buffer()</text>
<text xml:space="preserve" text-anchor="start" x="4" y="-82.38" font-family="Helvetica,sans-Serif" font-size="10.00">&#45;</text>
<text xml:space="preserve" text-anchor="start" x="11.75" y="-82.38" font-family="Helvetica,sans-Serif" font-size="10.00">GetValues()</text>
<text xml:space="preserve" text-anchor="start" x="4" y="-65.62" font-family="Helvetica,sans-Serif" font-size="10.00">&#45;</text>
<text xml:space="preserve" text-anchor="start" x="11.75" y="-65.62" font-family="Helvetica,sans-Serif" font-size="10.00">GetDuration()</text>
<text xml:space="preserve" text-anchor="start" x="4" y="-48.88" font-family="Helvetica,sans-Serif" font-size="10.00">&#45;</text>
<text xml:space="preserve" text-anchor="start" x="11.75" y="-48.88" font-family="Helvetica,sans-Serif" font-size="10.00">Initialize()</text>
<polygon fill="#666666" stroke="#666666" points="0,-157.12 0,-157.12 138,-157.12 138,-157.12 0,-157.12"/>
<polygon fill="#666666" stroke="#666666" points="0,-123.62 0,-123.62 9.75,-123.62 9.75,-123.62 0,-123.62"/>
<polygon fill="#666666" stroke="#666666" points="9.75,-123.62 9.75,-123.62 138,-123.62 138,-123.62 9.75,-123.62"/>
<polygon fill="none" stroke="#666666" points="0,-41.88 0,-188.62 138,-188.62 138,-41.88 0,-41.88"/>
</a>
</g>
</g>
<!-- Node1&#45;&gt;Node3 -->
<g id="edge2_Node000001_Node000003" class="edge">
<title>Node1&#45;&gt;Node3</title>
<g id="a_edge2_Node000001_Node000003"><a xlink:title=" ">
<path fill="none" stroke="#63b8ff" d="M169.97,-258.27C162.1,-249.19 154.17,-239.69 147,-230.5 136.66,-217.24 126.14,-202.7 116.32,-188.55"/>
<polygon fill="none" stroke="#63b8ff" points="167.25,-260.48 176.48,-265.69 172.52,-255.86 167.25,-260.48"/>
</a>
</g>
</g>
<!-- Node4 -->
<g id="Node000004" class="node">
<title>Node4</title>
<g id="a_Node000004"><a xlink:href="classUHapticFeedbackEffect__Curve.html" target="_top" xlink:title=" ">
<polygon fill="white" stroke="none" points="278,-157.12 156,-157.12 156,-73.38 278,-73.38 278,-157.12"/>
<text xml:space="preserve" text-anchor="start" x="160" y="-143.38" font-family="Helvetica,sans-Serif" font-size="10.00">UHapticFeedbackEffect</text>
<text xml:space="preserve" text-anchor="start" x="200.12" y="-130.62" font-family="Helvetica,sans-Serif" font-size="10.00">_Curve</text>
<text xml:space="preserve" text-anchor="start" x="169.88" y="-113.88" font-family="Helvetica,sans-Serif" font-size="10.00">&#45;</text>
<text xml:space="preserve" text-anchor="start" x="187.5" y="-113.88" font-family="Helvetica,sans-Serif" font-size="10.00">HapticDetails</text>
<text xml:space="preserve" text-anchor="start" x="169.88" y="-97.12" font-family="Helvetica,sans-Serif" font-size="10.00">&#45;</text>
<text xml:space="preserve" text-anchor="start" x="187.5" y="-97.12" font-family="Helvetica,sans-Serif" font-size="10.00">GetValues()</text>
<text xml:space="preserve" text-anchor="start" x="169.88" y="-80.38" font-family="Helvetica,sans-Serif" font-size="10.00">&#45;</text>
<text xml:space="preserve" text-anchor="start" x="187.5" y="-80.38" font-family="Helvetica,sans-Serif" font-size="10.00">GetDuration()</text>
<polygon fill="#666666" stroke="#666666" points="156,-125.62 156,-125.62 278,-125.62 278,-125.62 156,-125.62"/>
<polygon fill="#666666" stroke="#666666" points="156,-108.88 156,-108.88 185.5,-108.88 185.5,-108.88 156,-108.88"/>
<polygon fill="#666666" stroke="#666666" points="185.5,-108.88 185.5,-108.88 278,-108.88 278,-108.88 185.5,-108.88"/>
<polygon fill="none" stroke="#666666" points="156,-73.38 156,-157.12 278,-157.12 278,-73.38 156,-73.38"/>
</a>
</g>
</g>
<!-- Node1&#45;&gt;Node4 -->
<g id="edge3_Node000001_Node000004" class="edge">
<title>Node1&#45;&gt;Node4</title>
<g id="a_edge3_Node000001_Node000004"><a xlink:title=" ">
<path fill="none" stroke="#63b8ff" d="M217,-255.39C217,-224.22 217,-185.63 217,-157.01"/>
<polygon fill="none" stroke="#63b8ff" points="213.5,-255 217,-265 220.5,-255 213.5,-255"/>
</a>
</g>
</g>
<!-- Node5 -->
<g id="Node000005" class="node">
<title>Node5</title>
<g id="a_Node000005"><a xlink:href="classUHapticFeedbackEffect__SoundWave.html" target="_top" xlink:title=" ">
<polygon fill="white" stroke="none" points="476,-230.5 296,-230.5 296,0 476,0 476,-230.5"/>
<text xml:space="preserve" text-anchor="start" x="329" y="-216.75" font-family="Helvetica,sans-Serif" font-size="10.00">UHapticFeedbackEffect</text>
<text xml:space="preserve" text-anchor="start" x="354.5" y="-204" font-family="Helvetica,sans-Serif" font-size="10.00">_SoundWave</text>
<text xml:space="preserve" text-anchor="start" x="300" y="-187.25" font-family="Helvetica,sans-Serif" font-size="10.00">&#45;</text>
<text xml:space="preserve" text-anchor="start" x="307.75" y="-187.25" font-family="Helvetica,sans-Serif" font-size="10.00">SoundWave</text>
<text xml:space="preserve" text-anchor="start" x="300" y="-170.5" font-family="Helvetica,sans-Serif" font-size="10.00">&#45;</text>
<text xml:space="preserve" text-anchor="start" x="307.75" y="-170.5" font-family="Helvetica,sans-Serif" font-size="10.00">bUseStereo</text>
<text xml:space="preserve" text-anchor="start" x="300" y="-153.75" font-family="Helvetica,sans-Serif" font-size="10.00">&#45;</text>
<text xml:space="preserve" text-anchor="start" x="307.75" y="-153.75" font-family="Helvetica,sans-Serif" font-size="10.00">bPrepared</text>
<text xml:space="preserve" text-anchor="start" x="300" y="-137" font-family="Helvetica,sans-Serif" font-size="10.00">&#45;</text>
<text xml:space="preserve" text-anchor="start" x="307.75" y="-137" font-family="Helvetica,sans-Serif" font-size="10.00">RawData</text>
<text xml:space="preserve" text-anchor="start" x="300" y="-120.25" font-family="Helvetica,sans-Serif" font-size="10.00">&#45;</text>
<text xml:space="preserve" text-anchor="start" x="307.75" y="-120.25" font-family="Helvetica,sans-Serif" font-size="10.00">~UHapticFeedbackEffect</text>
<text xml:space="preserve" text-anchor="start" x="307.75" y="-107.5" font-family="Helvetica,sans-Serif" font-size="10.00">_SoundWave()</text>
<text xml:space="preserve" text-anchor="start" x="300" y="-90.75" font-family="Helvetica,sans-Serif" font-size="10.00">&#45;</text>
<text xml:space="preserve" text-anchor="start" x="307.75" y="-90.75" font-family="Helvetica,sans-Serif" font-size="10.00">Initialize()</text>
<text xml:space="preserve" text-anchor="start" x="300" y="-74" font-family="Helvetica,sans-Serif" font-size="10.00">&#45;</text>
<text xml:space="preserve" text-anchor="start" x="307.75" y="-74" font-family="Helvetica,sans-Serif" font-size="10.00">GetValues()</text>
<text xml:space="preserve" text-anchor="start" x="300" y="-57.25" font-family="Helvetica,sans-Serif" font-size="10.00">&#45;</text>
<text xml:space="preserve" text-anchor="start" x="307.75" y="-57.25" font-family="Helvetica,sans-Serif" font-size="10.00">GetDuration()</text>
<text xml:space="preserve" text-anchor="start" x="300" y="-40.5" font-family="Helvetica,sans-Serif" font-size="10.00">&#45;</text>
<text xml:space="preserve" text-anchor="start" x="307.75" y="-40.5" font-family="Helvetica,sans-Serif" font-size="10.00">PrepareSoundWaveBuffer()</text>
<text xml:space="preserve" text-anchor="start" x="300" y="-23.75" font-family="Helvetica,sans-Serif" font-size="10.00">&#45;</text>
<text xml:space="preserve" text-anchor="start" x="307.75" y="-23.75" font-family="Helvetica,sans-Serif" font-size="10.00">PrepareSoundWaveMonoBuffer()</text>
<text xml:space="preserve" text-anchor="start" x="300" y="-7" font-family="Helvetica,sans-Serif" font-size="10.00">&#45;</text>
<text xml:space="preserve" text-anchor="start" x="307.75" y="-7" font-family="Helvetica,sans-Serif" font-size="10.00">PrepareSoundWaveStereoBuffer()</text>
<polygon fill="#666666" stroke="#666666" points="296,-199 296,-199 476,-199 476,-199 296,-199"/>
<polygon fill="#666666" stroke="#666666" points="296,-132 296,-132 305.75,-132 305.75,-132 296,-132"/>
<polygon fill="#666666" stroke="#666666" points="305.75,-132 305.75,-132 476,-132 476,-132 305.75,-132"/>
<polygon fill="none" stroke="#666666" points="296,0 296,-230.5 476,-230.5 476,0 296,0"/>
</a>
</g>
</g>
<!-- Node1&#45;&gt;Node5 -->
<g id="edge4_Node000001_Node000005" class="edge">
<title>Node1&#45;&gt;Node5</title>
<g id="a_edge4_Node000001_Node000005"><a xlink:title=" ">
<path fill="none" stroke="#63b8ff" d="M262.33,-258.47C270.56,-249.18 279.05,-239.56 287,-230.5 290.03,-227.05 293.11,-223.53 296.21,-219.98"/>
<polygon fill="none" stroke="#63b8ff" points="259.89,-255.95 255.88,-265.75 265.13,-260.59 259.89,-255.95"/>
</a>
</g>
</g>
<!-- Node2 -->
<g id="Node000002" class="node">
<title>Node2</title>
<g id="a_Node000002"><a xlink:title=" ">
<polygon fill="white" stroke="none" points="240.5,-444.5 193.5,-444.5 193.5,-390.25 240.5,-390.25 240.5,-444.5"/>
<text xml:space="preserve" text-anchor="start" x="197.5" y="-430.75" font-family="Helvetica,sans-Serif" font-size="10.00">UObject</text>
<text xml:space="preserve" text-anchor="start" x="214" y="-414" font-family="Helvetica,sans-Serif" font-size="10.00"> </text>
<text xml:space="preserve" text-anchor="start" x="214" y="-397.25" font-family="Helvetica,sans-Serif" font-size="10.00"> </text>
<polygon fill="#666666" stroke="#666666" points="193.5,-425.75 193.5,-425.75 240.5,-425.75 240.5,-425.75 193.5,-425.75"/>
<polygon fill="#666666" stroke="#666666" points="193.5,-409 193.5,-409 240.5,-409 240.5,-409 193.5,-409"/>
<polygon fill="none" stroke="#666666" points="193.5,-390.25 193.5,-444.5 240.5,-444.5 240.5,-390.25 193.5,-390.25"/>
</a>
</g>
</g>
<!-- Node2&#45;&gt;Node1 -->
<g id="edge1_Node000001_Node000002" class="edge">
<title>Node2&#45;&gt;Node1</title>
<g id="a_edge1_Node000001_Node000002"><a xlink:title=" ">
<path fill="none" stroke="#63b8ff" d="M217,-379.09C217,-371.03 217,-362.44 217,-354.19"/>
<polygon fill="none" stroke="#63b8ff" points="213.5,-378.91 217,-388.91 220.5,-378.91 213.5,-378.91"/>
</a>
</g>
</g>
</g>
</svg>

<g id="navigator" transform="translate(0 0)" fill="#404254">
  <rect fill="#f2f5e9" fill-opacity="0.5" stroke="#606060" stroke-width=".5" x="0" y="0" width="60" height="60"/>
  <use id="zoomplus" xlink:href="#zoomPlus" x="17" y="9" onmousedown="handleZoom(evt,'in')"/>
  <use id="zoomminus" xlink:href="#zoomMin" x="42" y="9" onmousedown="handleZoom(evt,'out')"/>
  <use id="reset" xlink:href="#resetDef" x="30" y="36" onmousedown="handleReset()"/>
   <use id="arrowup" xlink:href="#arrowUp" x="0" y="0" onmousedown="handlePan(0,-1)"/>
  <use id="arrowright" xlink:href="#arrowRight" x="0" y="0" onmousedown="handlePan(1,0)"/>
  <use id="arrowdown" xlink:href="#arrowDown" x="0" y="0" onmousedown="handlePan(0,1)"/>
  <use id="arrowleft" xlink:href="#arrowLeft" x="0" y="0" onmousedown="handlePan(-1,0)"/>
</g>
<svg viewBox="0 0 15 15" width="100%" height="30px" preserveAspectRatio="xMaxYMin meet">
 <g id="arrow_out" transform="scale(0.3 0.3)">
  <a xlink:href="classUHapticFeedbackEffect__Base__inherit__graph_org.svg" target="_base">
   <rect id="button" ry="5" rx="5" y="6" x="6" height="38" width="38"
        fill="#f2f5e9" fill-opacity="0.5" stroke="#606060" stroke-width="1.0"/>
   <path id="arrow"
     d="M 11.500037,31.436501 C 11.940474,20.09759 22.043105,11.32322 32.158766,21.979434 L 37.068811,17.246167 C 37.068811,17.246167 37.088388,32 37.088388,32 L 22.160133,31.978069 C 22.160133,31.978069 26.997745,27.140456 26.997745,27.140456 C 18.528582,18.264221 13.291696,25.230495 11.500037,31.436501 z"
     style="fill:#404040;"/>
  </a>
 </g>
</svg>

<style type='text/css'>
<![CDATA[
[data-mouse-over-selected='false'] { opacity: 0.7; }
[data-mouse-over-selected='true']  { opacity: 1.0; }
]]>
</style>
<script type="application/ecmascript"><![CDATA[
document.addEventListener('DOMContentLoaded', (event) => {
  highlightEdges();
  highlightAdjacentNodes();
});
]]></script>
</svg>
