<?xml version="1.0" encoding="UTF-8" standalone="no"?>
<!DOCTYPE svg PUBLIC "-//W3C//DTD SVG 1.1//EN"
 "http://www.w3.org/Graphics/SVG/1.1/DTD/svg11.dtd">
<!-- Generated by graphviz version 14.1.4 (0)
 -->
<!-- Title: TPassthruPointer&lt; T &gt; Pages: 1 -->
<svg width="127pt" height="96pt"
 viewBox="0.00 0.00 127.00 96.00" xmlns="http://www.w3.org/2000/svg" xmlns:xlink="http://www.w3.org/1999/xlink">
<g id="graph0" class="graph" transform="scale(1 1) rotate(0) translate(4 91.75)">
<title>TPassthruPointer&lt; T &gt;</title>
<!-- Node1 -->
<g id="Node000001" class="node">
<title>Node1</title>
<g id="a_Node000001"><a xlink:title=" ">
<polygon fill="#999999" stroke="none" points="119,-87.75 0,-87.75 0,0 119,0 119,-87.75"/>
<text xml:space="preserve" text-anchor="start" x="4" y="-74" font-family="Helvetica,sans-Serif" font-size="10.00">TPassthruPointer&lt; T &gt;</text>
<text xml:space="preserve" text-anchor="start" x="8.44" y="-57.25" font-family="Helvetica,sans-Serif" font-size="10.00">&#45;</text>
<text xml:space="preserve" text-anchor="start" x="20.62" y="-57.25" font-family="Helvetica,sans-Serif" font-size="10.00">Ptr</text>
<text xml:space="preserve" text-anchor="start" x="6.19" y="-40.5" font-family="Helvetica,sans-Serif" font-size="10.00">+</text>
<text xml:space="preserve" text-anchor="start" x="20.62" y="-40.5" font-family="Helvetica,sans-Serif" font-size="10.00">TPassthruPointer()</text>
<text xml:space="preserve" text-anchor="start" x="6.19" y="-23.75" font-family="Helvetica,sans-Serif" font-size="10.00">+</text>
<text xml:space="preserve" text-anchor="start" x="20.62" y="-23.75" font-family="Helvetica,sans-Serif" font-size="10.00">Get()</text>
<text xml:space="preserve" text-anchor="start" x="6.19" y="-7" font-family="Helvetica,sans-Serif" font-size="10.00">+</text>
<text xml:space="preserve" text-anchor="start" x="20.62" y="-7" font-family="Helvetica,sans-Serif" font-size="10.00">Apply()</text>
<polygon fill="#666666" stroke="#666666" points="0,-69 0,-69 119,-69 119,-69 0,-69"/>
<polygon fill="#666666" stroke="#666666" points="0,-52.25 0,-52.25 18.62,-52.25 18.62,-52.25 0,-52.25"/>
<polygon fill="#666666" stroke="#666666" points="18.62,-52.25 18.62,-52.25 119,-52.25 119,-52.25 18.62,-52.25"/>
<polygon fill="none" stroke="#666666" points="0,0 0,-87.75 119,-87.75 119,0 0,0"/>
</a>
</g>
</g>
</g>
</svg>
