<?xml version="1.0" encoding="UTF-8" standalone="no"?>
<!DOCTYPE svg PUBLIC "-//W3C//DTD SVG 1.1//EN"
 "http://www.w3.org/Graphics/SVG/1.1/DTD/svg11.dtd">
<!-- Generated by graphviz version 14.1.4 (0)
 -->
<!-- Title: FAsyncTaskBase::StartSynchronousTask Pages: 1 -->
<svg width="789pt" height="280pt"
 viewBox="0.00 0.00 789.00 280.00" xmlns="http://www.w3.org/2000/svg" xmlns:xlink="http://www.w3.org/1999/xlink">
<g id="graph0" class="graph" transform="scale(1 1) rotate(0) translate(4 276.12)">
<title>FAsyncTaskBase::StartSynchronousTask</title>
<!-- Node1 -->
<g id="Node000001" class="node">
<title>Node1</title>
<g id="a_Node000001"><a xlink:title=" ">
<polygon fill="#999999" stroke="#666666" points="209.5,-147.75 0,-147.75 0,-127 209.5,-127 209.5,-147.75"/>
<text xml:space="preserve" text-anchor="middle" x="104.75" y="-134.25" font-family="Helvetica,sans-Serif" font-size="10.00">FAsyncTaskBase::StartSynchronousTask</text>
</a>
</g>
</g>
<!-- Node2 -->
<g id="Node000002" class="node">
<title>Node2</title>
<g id="a_Node000002"><a xlink:href="$classFAsyncTaskBase.html#a7d2f5aaf9d465aca330a062715982cf8" xlink:title=" ">
<polygon fill="white" stroke="#666666" points="371,-147.75 245.5,-147.75 245.5,-127 371,-127 371,-147.75"/>
<text xml:space="preserve" text-anchor="middle" x="308.25" y="-134.25" font-family="Helvetica,sans-Serif" font-size="10.00">FAsyncTaskBase::Start</text>
</a>
</g>
</g>
<!-- Node1&#45;&gt;Node2 -->
<g id="edge1_Node000001_Node000002" class="edge">
<title>Node1&#45;&gt;Node2</title>
<g id="a_edge1_Node000001_Node000002"><a xlink:title=" ">
<path fill="none" stroke="#63b8ff" d="M209.75,-137.38C217.89,-137.38 226.01,-137.38 233.89,-137.38"/>
<polygon fill="#63b8ff" stroke="#63b8ff" points="233.72,-140.88 243.72,-137.38 233.72,-133.88 233.72,-140.88"/>
</a>
</g>
</g>
<!-- Node3 -->
<g id="Node000003" class="node">
<title>Node3</title>
<g id="a_Node000003"><a xlink:href="$classUE_1_1FInheritedContextBase.html#a6098804b446b9aa6ba1093d69b90ff94" xlink:title=" ">
<polygon fill="white" stroke="#666666" points="564.75,-272.12 417.5,-272.12 417.5,-238.62 564.75,-238.62 564.75,-272.12"/>
<text xml:space="preserve" text-anchor="start" x="425.5" y="-258.62" font-family="Helvetica,sans-Serif" font-size="10.00">UE::FInheritedContextBase</text>
<text xml:space="preserve" text-anchor="middle" x="491.12" y="-245.88" font-family="Helvetica,sans-Serif" font-size="10.00">::CaptureInheritedContext</text>
</a>
</g>
</g>
<!-- Node2&#45;&gt;Node3 -->
<g id="edge2_Node000002_Node000003" class="edge">
<title>Node2&#45;&gt;Node3</title>
<g id="a_edge2_Node000002_Node000003"><a xlink:title=" ">
<path fill="none" stroke="#63b8ff" d="M319.54,-148.01C336.49,-165.06 371.91,-198.8 407,-220.38 414.78,-225.16 423.32,-229.57 431.88,-233.55"/>
<polygon fill="#63b8ff" stroke="#63b8ff" points="430.34,-236.69 440.9,-237.55 433.18,-230.29 430.34,-236.69"/>
</a>
</g>
</g>
<!-- Node5 -->
<g id="Node000005" class="node">
<title>Node5</title>
<g id="a_Node000005"><a xlink:href="$classFAsyncTaskBase.html#afd0990a2768264a1192c87bc6ef2537b" xlink:title=" ">
<polygon fill="white" stroke="#666666" points="566.25,-211.75 416,-211.75 416,-191 566.25,-191 566.25,-211.75"/>
<text xml:space="preserve" text-anchor="middle" x="491.12" y="-198.25" font-family="Helvetica,sans-Serif" font-size="10.00">FAsyncTaskBase::CheckIdle</text>
</a>
</g>
</g>
<!-- Node2&#45;&gt;Node5 -->
<g id="edge4_Node000002_Node000005" class="edge">
<title>Node2&#45;&gt;Node5</title>
<g id="a_edge4_Node000002_Node000005"><a xlink:title=" ">
<path fill="none" stroke="#63b8ff" d="M334.34,-148.09C353.95,-156.29 381.99,-167.64 407,-176.38 417.88,-180.17 429.69,-183.94 440.89,-187.34"/>
<polygon fill="#63b8ff" stroke="#63b8ff" points="439.79,-190.67 450.38,-190.18 441.8,-183.96 439.79,-190.67"/>
</a>
</g>
</g>
<!-- Node7 -->
<g id="Node000007" class="node">
<title>Node7</title>
<g id="a_Node000007"><a xlink:href="$classFAsyncTaskBase.html#ad47157ca02c56ad17cf8096e8181158e" xlink:title=" ">
<polygon fill="white" stroke="#666666" points="575.25,-167.75 407,-167.75 407,-147 575.25,-147 575.25,-167.75"/>
<text xml:space="preserve" text-anchor="middle" x="491.12" y="-154.25" font-family="Helvetica,sans-Serif" font-size="10.00">FAsyncTaskBase::DestroyEvent</text>
</a>
</g>
</g>
<!-- Node2&#45;&gt;Node7 -->
<g id="edge6_Node000002_Node000007" class="edge">
<title>Node2&#45;&gt;Node7</title>
<g id="a_edge6_Node000002_Node000007"><a xlink:title=" ">
<path fill="none" stroke="#63b8ff" d="M371.5,-144.26C379.21,-145.11 387.22,-146 395.28,-146.89"/>
<polygon fill="#63b8ff" stroke="#63b8ff" points="394.85,-150.36 405.18,-147.98 395.62,-143.4 394.85,-150.36"/>
</a>
</g>
</g>
<!-- Node9 -->
<g id="Node000009" class="node">
<title>Node9</title>
<g id="a_Node000009"><a xlink:href="$classFAsyncTaskBase.html#aaf21f53e538cb068a717a708fa98a8f9" xlink:title=" ">
<polygon fill="white" stroke="#666666" points="561.75,-128.75 420.5,-128.75 420.5,-108 561.75,-108 561.75,-128.75"/>
<text xml:space="preserve" text-anchor="middle" x="491.12" y="-115.25" font-family="Helvetica,sans-Serif" font-size="10.00">FAsyncTaskBase::DoWork</text>
</a>
</g>
</g>
<!-- Node2&#45;&gt;Node9 -->
<g id="edge9_Node000002_Node000009" class="edge">
<title>Node2&#45;&gt;Node9</title>
<g id="a_edge9_Node000002_Node000009"><a xlink:title=" ">
<path fill="none" stroke="#63b8ff" d="M371.5,-130.84C383.47,-129.58 396.17,-128.24 408.64,-126.93"/>
<polygon fill="#63b8ff" stroke="#63b8ff" points="408.92,-130.42 418.5,-125.9 408.19,-123.46 408.92,-130.42"/>
</a>
</g>
</g>
<!-- Node12 -->
<g id="Node000012" class="node">
<title>Node12</title>
<g id="a_Node000012"><a xlink:href="$structFGenericPlatformProcess.html#aaa0cdca0e5d7f2cafaa08f3b5218c727" xlink:title=" ">
<polygon fill="white" stroke="#666666" points="562.12,-72.12 420.12,-72.12 420.12,-38.62 562.12,-38.62 562.12,-72.12"/>
<text xml:space="preserve" text-anchor="start" x="428.12" y="-58.62" font-family="Helvetica,sans-Serif" font-size="10.00">FGenericPlatformProcess</text>
<text xml:space="preserve" text-anchor="middle" x="491.12" y="-45.88" font-family="Helvetica,sans-Serif" font-size="10.00">::GetSynchEventFromPool</text>
</a>
</g>
</g>
<!-- Node2&#45;&gt;Node12 -->
<g id="edge12_Node000002_Node000012" class="edge">
<title>Node2&#45;&gt;Node12</title>
<g id="a_edge12_Node000002_Node000012"><a xlink:title=" ">
<path fill="none" stroke="#63b8ff" d="M332.9,-126.65C360.52,-114.13 406.94,-93.09 442.2,-77.1"/>
<polygon fill="#63b8ff" stroke="#63b8ff" points="443.25,-80.47 450.91,-73.15 440.36,-74.1 443.25,-80.47"/>
</a>
</g>
</g>
<!-- Node13 -->
<g id="Node000013" class="node">
<title>Node13</title>
<g id="a_Node000013"><a xlink:href="$structFAndroidMisc.html#a2226435a3f250dacc9d193d7be95e4f5" xlink:title=" ">
<polygon fill="white" stroke="#666666" points="571.5,-20.75 410.75,-20.75 410.75,0 571.5,0 571.5,-20.75"/>
<text xml:space="preserve" text-anchor="middle" x="491.12" y="-7.25" font-family="Helvetica,sans-Serif" font-size="10.00">FAndroidMisc::MemoryBarrier</text>
</a>
</g>
</g>
<!-- Node2&#45;&gt;Node13 -->
<g id="edge14_Node000002_Node000013" class="edge">
<title>Node2&#45;&gt;Node13</title>
<g id="a_edge14_Node000002_Node000013"><a xlink:title=" ">
<path fill="none" stroke="#63b8ff" d="M315.58,-126.82C329.3,-104.94 364.01,-54.56 407,-29.38 409.46,-27.93 412.02,-26.6 414.65,-25.37"/>
<polygon fill="#63b8ff" stroke="#63b8ff" points="415.75,-28.7 423.68,-21.68 413.1,-22.22 415.75,-28.7"/>
</a>
</g>
</g>
<!-- Node4 -->
<g id="Node000004" class="node">
<title>Node4</title>
<g id="a_Node000004"><a xlink:href="$TagTrace_8h.html#a559140a1b13462c6fe06a75bf654d8d3" xlink:title=" ">
<polygon fill="white" stroke="#666666" points="772.38,-269.75 619.88,-269.75 619.88,-249 772.38,-249 772.38,-269.75"/>
<text xml:space="preserve" text-anchor="middle" x="696.12" y="-256.25" font-family="Helvetica,sans-Serif" font-size="10.00">MemoryTrace_GetActiveTag</text>
</a>
</g>
</g>
<!-- Node3&#45;&gt;Node4 -->
<g id="edge3_Node000003_Node000004" class="edge">
<title>Node3&#45;&gt;Node4</title>
<g id="a_edge3_Node000003_Node000004"><a xlink:title=" ">
<path fill="none" stroke="#63b8ff" d="M565.13,-256.81C579.12,-257.09 593.9,-257.38 608.27,-257.66"/>
<polygon fill="#63b8ff" stroke="#63b8ff" points="608.12,-261.16 618.18,-257.86 608.25,-254.16 608.12,-261.16"/>
</a>
</g>
</g>
<!-- Node6 -->
<g id="Node000006" class="node">
<title>Node6</title>
<g id="a_Node000006"><a xlink:href="$structFDebug.html#a3d793d7b06584d2713cfe1c96a3fca18" xlink:title=" ">
<polygon fill="white" stroke="#666666" points="781,-230.75 611.25,-230.75 611.25,-210 781,-210 781,-230.75"/>
<text xml:space="preserve" text-anchor="middle" x="696.12" y="-217.25" font-family="Helvetica,sans-Serif" font-size="10.00">FDebug::DumpStackTraceToLog</text>
</a>
</g>
</g>
<!-- Node5&#45;&gt;Node6 -->
<g id="edge5_Node000005_Node000006" class="edge">
<title>Node5&#45;&gt;Node6</title>
<g id="a_edge5_Node000005_Node000006"><a xlink:title=" ">
<path fill="none" stroke="#63b8ff" d="M566.56,-208.34C577.43,-209.36 588.73,-210.42 599.94,-211.47"/>
<polygon fill="#63b8ff" stroke="#63b8ff" points="599.3,-214.92 609.58,-212.37 599.95,-207.95 599.3,-214.92"/>
</a>
</g>
</g>
<!-- Node8 -->
<g id="Node000008" class="node">
<title>Node8</title>
<g id="a_Node000008"><a xlink:href="$structFGenericPlatformProcess.html#a049e0e436b6ede80ababbfaa2c4f6eb4" xlink:title=" ">
<polygon fill="white" stroke="#666666" points="767.5,-174.12 624.75,-174.12 624.75,-140.62 767.5,-140.62 767.5,-174.12"/>
<text xml:space="preserve" text-anchor="start" x="632.75" y="-160.62" font-family="Helvetica,sans-Serif" font-size="10.00">FGenericPlatformProcess</text>
<text xml:space="preserve" text-anchor="middle" x="696.12" y="-147.88" font-family="Helvetica,sans-Serif" font-size="10.00">::ReturnSynchEventToPool</text>
</a>
</g>
</g>
<!-- Node7&#45;&gt;Node8 -->
<g id="edge7_Node000007_Node000008" class="edge">
<title>Node7&#45;&gt;Node8</title>
<g id="a_edge7_Node000007_Node000008"><a xlink:title=" ">
<path fill="none" stroke="#63b8ff" d="M575.57,-157.38C587.96,-157.38 600.73,-157.38 613.09,-157.38"/>
<polygon fill="#63b8ff" stroke="#63b8ff" points="612.79,-160.88 622.79,-157.38 612.79,-153.88 612.79,-160.88"/>
</a>
</g>
</g>
<!-- Node8&#45;&gt;Node8 -->
<g id="edge8_Node000008_Node000008" class="edge">
<title>Node8&#45;&gt;Node8</title>
<g id="a_edge8_Node000008_Node000008"><a xlink:title=" ">
<path fill="none" stroke="#63b8ff" d="M659.27,-174.54C653.01,-183.74 665.29,-192.12 696.12,-192.12 713.23,-192.12 724.62,-189.55 730.31,-185.68"/>
<polygon fill="#63b8ff" stroke="#63b8ff" points="733.7,-186.55 732.62,-176.01 726.89,-184.92 733.7,-186.55"/>
</a>
</g>
</g>
<!-- Node10 -->
<g id="Node000010" class="node">
<title>Node10</title>
<g id="a_Node000010"><a xlink:href="$classFAsyncTaskBase.html#a7d8068c5e74cec1ab9ae93a3a2c8201b" xlink:title=" ">
<polygon fill="white" stroke="#666666" points="777.62,-122.75 614.62,-122.75 614.62,-102 777.62,-102 777.62,-122.75"/>
<text xml:space="preserve" text-anchor="middle" x="696.12" y="-109.25" font-family="Helvetica,sans-Serif" font-size="10.00">FAsyncTaskBase::DoTaskWork</text>
</a>
</g>
</g>
<!-- Node9&#45;&gt;Node10 -->
<g id="edge10_Node000009_Node000010" class="edge">
<title>Node9&#45;&gt;Node10</title>
<g id="a_edge10_Node000009_Node000010"><a xlink:title=" ">
<path fill="none" stroke="#63b8ff" d="M561.99,-116.31C575.16,-115.92 589.12,-115.51 602.85,-115.1"/>
<polygon fill="#63b8ff" stroke="#63b8ff" points="602.91,-118.6 612.8,-114.81 602.7,-111.61 602.91,-118.6"/>
</a>
</g>
</g>
<!-- Node11 -->
<g id="Node000011" class="node">
<title>Node11</title>
<g id="a_Node000011"><a xlink:href="$classUE_1_1FInheritedContextBase.html#a1e4b8cd31a018ccec3ab93bd4fc98651" xlink:title=" ">
<polygon fill="white" stroke="#666666" points="769.75,-84.12 622.5,-84.12 622.5,-50.62 769.75,-50.62 769.75,-84.12"/>
<text xml:space="preserve" text-anchor="start" x="630.5" y="-70.62" font-family="Helvetica,sans-Serif" font-size="10.00">UE::FInheritedContextBase</text>
<text xml:space="preserve" text-anchor="middle" x="696.12" y="-57.88" font-family="Helvetica,sans-Serif" font-size="10.00">::RestoreInheritedContext</text>
</a>
</g>
</g>
<!-- Node9&#45;&gt;Node11 -->
<g id="edge11_Node000009_Node000011" class="edge">
<title>Node9&#45;&gt;Node11</title>
<g id="a_edge11_Node000009_Node000011"><a xlink:title=" ">
<path fill="none" stroke="#63b8ff" d="M540.98,-107.52C552.26,-104.93 564.19,-102.12 575.25,-99.38 590.22,-95.67 606.2,-91.53 621.45,-87.49"/>
<polygon fill="#63b8ff" stroke="#63b8ff" points="622.17,-90.92 630.94,-84.97 620.37,-84.16 622.17,-90.92"/>
</a>
</g>
</g>
<!-- Node12&#45;&gt;Node12 -->
<g id="edge13_Node000012_Node000012" class="edge">
<title>Node12&#45;&gt;Node12</title>
<g id="a_edge13_Node000012_Node000012"><a xlink:title=" ">
<path fill="none" stroke="#63b8ff" d="M458.25,-72.54C452.66,-81.74 463.62,-90.12 491.12,-90.12 506.6,-90.12 516.83,-87.47 521.83,-83.51"/>
<polygon fill="#63b8ff" stroke="#63b8ff" points="525.2,-84.51 523.71,-74.02 518.33,-83.16 525.2,-84.51"/>
</a>
</g>
</g>
</g>
</svg>
