<?xml version="1.0" encoding="UTF-8" standalone="no"?>
<!DOCTYPE svg PUBLIC "-//W3C//DTD SVG 1.1//EN"
 "http://www.w3.org/Graphics/SVG/1.1/DTD/svg11.dtd">
<!-- Generated by graphviz version 14.1.4 (0)
 -->
<!-- Title: TDiscardableKeyValueCache::ApplyLock Pages: 1 -->
<svg width="576pt" height="335pt"
 viewBox="0.00 0.00 576.00 335.00" xmlns="http://www.w3.org/2000/svg" xmlns:xlink="http://www.w3.org/1999/xlink">
<g id="graph0" class="graph" transform="scale(1 1) rotate(0) translate(4 330.75)">
<title>TDiscardableKeyValueCache::ApplyLock</title>
<!-- Node1 -->
<g id="Node000001" class="node">
<title>Node1</title>
<g id="a_Node000001"><a xlink:title=" ">
<polygon fill="#999999" stroke="#666666" points="567.75,-162.12 412.25,-162.12 412.25,-128.62 567.75,-128.62 567.75,-162.12"/>
<text xml:space="preserve" text-anchor="start" x="420.25" y="-148.62" font-family="Helvetica,sans-Serif" font-size="10.00">TDiscardableKeyValueCache</text>
<text xml:space="preserve" text-anchor="middle" x="490" y="-135.88" font-family="Helvetica,sans-Serif" font-size="10.00">::ApplyLock</text>
</a>
</g>
</g>
<!-- Node2 -->
<g id="Node000002" class="node">
<title>Node2</title>
<g id="a_Node000002"><a xlink:href="$classTDiscardableKeyValueCache.html#ad8cda95876e8b67ac0bd7524162b7257" xlink:title=" ">
<polygon fill="white" stroke="#666666" points="374,-308.75 193.75,-308.75 193.75,-288 374,-288 374,-308.75"/>
<text xml:space="preserve" text-anchor="middle" x="283.88" y="-295.25" font-family="Helvetica,sans-Serif" font-size="10.00">TDiscardableKeyValueCache::Add</text>
</a>
</g>
</g>
<!-- Node1&#45;&gt;Node2 -->
<g id="edge1_Node000001_Node000002" class="edge">
<title>Node1&#45;&gt;Node2</title>
<g id="a_edge1_Node000001_Node000002"><a xlink:title=" ">
<path fill="none" stroke="#63b8ff" d="M474.04,-172.21C455.34,-203.13 420.34,-253.05 376.25,-279.38 370.82,-282.61 364.93,-285.31 358.84,-287.55"/>
<polygon fill="#63b8ff" stroke="#63b8ff" points="476.92,-174.21 478.98,-163.82 470.89,-170.66 476.92,-174.21"/>
</a>
</g>
</g>
<!-- Node3 -->
<g id="Node000003" class="node">
<title>Node3</title>
<g id="a_Node000003"><a xlink:href="$classTDiscardableKeyValueCache.html#aea6271a186728d82f2011bf03dbfbd60" xlink:title=" ">
<polygon fill="white" stroke="#666666" points="361.62,-252.12 206.12,-252.12 206.12,-218.62 361.62,-218.62 361.62,-252.12"/>
<text xml:space="preserve" text-anchor="start" x="214.12" y="-238.62" font-family="Helvetica,sans-Serif" font-size="10.00">TDiscardableKeyValueCache</text>
<text xml:space="preserve" text-anchor="middle" x="283.88" y="-225.88" font-family="Helvetica,sans-Serif" font-size="10.00">::Discard</text>
</a>
</g>
</g>
<!-- Node1&#45;&gt;Node3 -->
<g id="edge3_Node000001_Node000003" class="edge">
<title>Node1&#45;&gt;Node3</title>
<g id="a_edge3_Node000001_Node000003"><a xlink:title=" ">
<path fill="none" stroke="#63b8ff" d="M449.49,-167.97C428.19,-179.67 401.21,-193.69 376.25,-204.38 364.7,-209.32 352.08,-214.03 340,-218.22"/>
<polygon fill="#63b8ff" stroke="#63b8ff" points="451.09,-171.09 458.14,-163.18 447.7,-164.97 451.09,-171.09"/>
</a>
</g>
</g>
<!-- Node4 -->
<g id="Node000004" class="node">
<title>Node4</title>
<g id="a_Node000004"><a xlink:href="$classTDiscardableKeyValueCache.html#adf293419f78d9d5f7645a97a26669bbb" xlink:title=" ">
<polygon fill="white" stroke="#666666" points="155.5,-229.12 0,-229.12 0,-195.62 155.5,-195.62 155.5,-229.12"/>
<text xml:space="preserve" text-anchor="start" x="8" y="-215.62" font-family="Helvetica,sans-Serif" font-size="10.00">TDiscardableKeyValueCache</text>
<text xml:space="preserve" text-anchor="middle" x="77.75" y="-202.88" font-family="Helvetica,sans-Serif" font-size="10.00">::Discard</text>
</a>
</g>
</g>
<!-- Node1&#45;&gt;Node4 -->
<g id="edge6_Node000001_Node000004" class="edge">
<title>Node1&#45;&gt;Node4</title>
<g id="a_edge6_Node000001_Node000004"><a xlink:title=" ">
<path fill="none" stroke="#63b8ff" d="M407.86,-165C397.26,-167.3 386.51,-169.49 376.25,-171.38 301.77,-185.07 216.03,-196.42 155.79,-203.68"/>
<polygon fill="#63b8ff" stroke="#63b8ff" points="408.34,-168.48 417.35,-162.91 406.84,-161.64 408.34,-168.48"/>
</a>
</g>
</g>
<!-- Node5 -->
<g id="Node000005" class="node">
<title>Node5</title>
<g id="a_Node000005"><a xlink:href="$classTDiscardableKeyValueCache.html#abce862a36a3450683d8fb20290b39eed" xlink:title=" ">
<polygon fill="white" stroke="#666666" points="361.62,-162.12 206.12,-162.12 206.12,-128.62 361.62,-128.62 361.62,-162.12"/>
<text xml:space="preserve" text-anchor="start" x="214.12" y="-148.62" font-family="Helvetica,sans-Serif" font-size="10.00">TDiscardableKeyValueCache</text>
<text xml:space="preserve" text-anchor="middle" x="283.88" y="-135.88" font-family="Helvetica,sans-Serif" font-size="10.00">::Discard</text>
</a>
</g>
</g>
<!-- Node1&#45;&gt;Node5 -->
<g id="edge7_Node000001_Node000005" class="edge">
<title>Node1&#45;&gt;Node5</title>
<g id="a_edge7_Node000001_Node000005"><a xlink:title=" ">
<path fill="none" stroke="#63b8ff" d="M400.58,-145.38C387.68,-145.38 374.47,-145.38 361.82,-145.38"/>
<polygon fill="#63b8ff" stroke="#63b8ff" points="400.32,-148.88 410.32,-145.38 400.32,-141.88 400.32,-148.88"/>
</a>
</g>
</g>
<!-- Node6 -->
<g id="Node000006" class="node">
<title>Node6</title>
<g id="a_Node000006"><a xlink:href="$classTDiscardableKeyValueCache.html#a89366a068a3bb67575dac9da267489bb" xlink:title=" ">
<polygon fill="white" stroke="#666666" points="155.5,-117.12 0,-117.12 0,-83.62 155.5,-83.62 155.5,-117.12"/>
<text xml:space="preserve" text-anchor="start" x="8" y="-103.62" font-family="Helvetica,sans-Serif" font-size="10.00">TDiscardableKeyValueCache</text>
<text xml:space="preserve" text-anchor="middle" x="77.75" y="-90.88" font-family="Helvetica,sans-Serif" font-size="10.00">::Find</text>
</a>
</g>
</g>
<!-- Node1&#45;&gt;Node6 -->
<g id="edge8_Node000001_Node000006" class="edge">
<title>Node1&#45;&gt;Node6</title>
<g id="a_edge8_Node000001_Node000006"><a xlink:title=" ">
<path fill="none" stroke="#63b8ff" d="M411.43,-125.75C399.7,-123.29 387.7,-121.05 376.25,-119.38 301.87,-108.5 216.12,-103.85 155.85,-101.86"/>
<polygon fill="#63b8ff" stroke="#63b8ff" points="410.57,-129.14 421.09,-127.84 412.06,-122.3 410.57,-129.14"/>
</a>
</g>
</g>
<!-- Node7 -->
<g id="Node000007" class="node">
<title>Node7</title>
<g id="a_Node000007"><a xlink:href="$classTDiscardableKeyValueCache.html#ad2e56338e559b3d2bb24a1b464914773" xlink:title=" ">
<polygon fill="white" stroke="#666666" points="361.62,-72.12 206.12,-72.12 206.12,-38.62 361.62,-38.62 361.62,-72.12"/>
<text xml:space="preserve" text-anchor="start" x="214.12" y="-58.62" font-family="Helvetica,sans-Serif" font-size="10.00">TDiscardableKeyValueCache</text>
<text xml:space="preserve" text-anchor="middle" x="283.88" y="-45.88" font-family="Helvetica,sans-Serif" font-size="10.00">::InternalFindWhileLocked</text>
</a>
</g>
</g>
<!-- Node1&#45;&gt;Node7 -->
<g id="edge9_Node000001_Node000007" class="edge">
<title>Node1&#45;&gt;Node7</title>
<g id="a_edge9_Node000001_Node000007"><a xlink:title=" ">
<path fill="none" stroke="#63b8ff" d="M449.49,-122.78C428.19,-111.08 401.21,-97.06 376.25,-86.38 364.7,-81.43 352.08,-76.72 340,-72.53"/>
<polygon fill="#63b8ff" stroke="#63b8ff" points="447.7,-125.78 458.14,-127.57 451.09,-119.66 447.7,-125.78"/>
</a>
</g>
</g>
<!-- Node9 -->
<g id="Node000009" class="node">
<title>Node9</title>
<g id="a_Node000009"><a xlink:href="$classTDiscardableKeyValueCache.html#a9a0881291bfad52cc1b4e7ae82ac6d35" xlink:title=" ">
<polygon fill="white" stroke="#666666" points="376.25,-20.75 191.5,-20.75 191.5,0 376.25,0 376.25,-20.75"/>
<text xml:space="preserve" text-anchor="middle" x="283.88" y="-7.25" font-family="Helvetica,sans-Serif" font-size="10.00">TDiscardableKeyValueCache::Num</text>
</a>
</g>
</g>
<!-- Node1&#45;&gt;Node9 -->
<g id="edge12_Node000001_Node000009" class="edge">
<title>Node1&#45;&gt;Node9</title>
<g id="a_edge12_Node000001_Node000009"><a xlink:title=" ">
<path fill="none" stroke="#63b8ff" d="M471.05,-119.29C451.11,-92.41 416.37,-51.41 376.25,-29.38 370.29,-26.1 363.82,-23.39 357.17,-21.14"/>
<polygon fill="#63b8ff" stroke="#63b8ff" points="468.13,-121.22 476.83,-127.27 473.8,-117.11 468.13,-121.22"/>
</a>
</g>
</g>
<!-- Node2&#45;&gt;Node2 -->
<g id="edge2_Node000002_Node000002" class="edge">
<title>Node2&#45;&gt;Node2</title>
<g id="a_edge2_Node000002_Node000002"><a xlink:title=" ">
<path fill="none" stroke="#63b8ff" d="M320.15,-320.24C315.34,-324.08 303.25,-326.75 283.88,-326.75 248.45,-326.75 237.38,-317.81 250.66,-309.15"/>
<polygon fill="#63b8ff" stroke="#63b8ff" points="323.52,-319.32 317.49,-310.61 316.77,-321.18 323.52,-319.32"/>
</a>
</g>
</g>
<!-- Node3&#45;&gt;Node3 -->
<g id="edge4_Node000003_Node000003" class="edge">
<title>Node3&#45;&gt;Node3</title>
<g id="a_edge4_Node000003_Node000003"><a xlink:title=" ">
<path fill="none" stroke="#63b8ff" d="M318.25,-263.68C312.53,-267.55 301.07,-270.12 283.88,-270.12 252.88,-270.12 240.52,-261.74 246.82,-252.54"/>
<polygon fill="#63b8ff" stroke="#63b8ff" points="321.64,-264.55 320.57,-254.01 314.83,-262.91 321.64,-264.55"/>
</a>
</g>
</g>
<!-- Node3&#45;&gt;Node4 -->
<g id="edge5_Node000003_Node000004" class="edge">
<title>Node3&#45;&gt;Node4</title>
<g id="a_edge5_Node000003_Node000004"><a xlink:title=" ">
<path fill="none" stroke="#63b8ff" d="M194.46,-225.41C181.55,-223.96 168.35,-222.47 155.69,-221.04"/>
<polygon fill="#63b8ff" stroke="#63b8ff" points="193.87,-228.87 204.2,-226.51 194.65,-221.91 193.87,-228.87"/>
</a>
</g>
</g>
<!-- Node7&#45;&gt;Node6 -->
<g id="edge10_Node000007_Node000006" class="edge">
<title>Node7&#45;&gt;Node6</title>
<g id="a_edge10_Node000007_Node000006"><a xlink:title=" ">
<path fill="none" stroke="#63b8ff" d="M194.85,-74.78C181.82,-77.65 168.47,-80.6 155.69,-83.41"/>
<polygon fill="#63b8ff" stroke="#63b8ff" points="195.21,-78.28 204.23,-72.71 193.71,-71.45 195.21,-78.28"/>
</a>
</g>
</g>
<!-- Node8 -->
<g id="Node000008" class="node">
<title>Node8</title>
<g id="a_Node000008"><a xlink:href="$classTDiscardableKeyValueCache.html#a8d4c63c3f4c0b7c90b05b6f36ce9b538" xlink:title=" ">
<polygon fill="white" stroke="#666666" points="155.5,-65.12 0,-65.12 0,-31.62 155.5,-31.62 155.5,-65.12"/>
<text xml:space="preserve" text-anchor="start" x="8" y="-51.62" font-family="Helvetica,sans-Serif" font-size="10.00">TDiscardableKeyValueCache</text>
<text xml:space="preserve" text-anchor="middle" x="77.75" y="-38.88" font-family="Helvetica,sans-Serif" font-size="10.00">::Find</text>
</a>
</g>
</g>
<!-- Node7&#45;&gt;Node8 -->
<g id="edge11_Node000007_Node000008" class="edge">
<title>Node7&#45;&gt;Node8</title>
<g id="a_edge11_Node000007_Node000008"><a xlink:title=" ">
<path fill="none" stroke="#63b8ff" d="M194.46,-52.34C181.55,-51.9 168.35,-51.45 155.69,-51.01"/>
<polygon fill="#63b8ff" stroke="#63b8ff" points="194.08,-55.83 204.19,-52.68 194.32,-48.84 194.08,-55.83"/>
</a>
</g>
</g>
</g>
</svg>
