<?xml version="1.0" encoding="UTF-8" standalone="no"?>
<!DOCTYPE svg PUBLIC "-//W3C//DTD SVG 1.1//EN"
 "http://www.w3.org/Graphics/SVG/1.1/DTD/svg11.dtd">
<!-- Generated by graphviz version 14.1.4 (0)
 -->
<!-- Title: Audio::Quartz::PrivateDefs::TVisitorPatternBase&lt; Ts &gt;::TElementBase&lt; ListenerInterfaces &gt; Pages: 1 -->
<svg width="268pt" height="220pt"
 viewBox="0.00 0.00 268.00 220.00" xmlns="http://www.w3.org/2000/svg" xmlns:xlink="http://www.w3.org/1999/xlink">
<g id="graph0" class="graph" transform="scale(1 1) rotate(0) translate(4 216.25)">
<title>Audio::Quartz::PrivateDefs::TVisitorPatternBase&lt; Ts &gt;::TElementBase&lt; ListenerInterfaces &gt;</title>
<!-- Node1 -->
<g id="Node000001" class="node">
<title>Node1</title>
<g id="a_Node000001"><a xlink:title=" ">
<polygon fill="#999999" stroke="none" points="240.5,-79.75 34.5,-79.75 34.5,0 240.5,0 240.5,-79.75"/>
<text xml:space="preserve" text-anchor="start" x="38.5" y="-66" font-family="Helvetica,sans-Serif" font-size="10.00">Audio::Quartz::PrivateDefs</text>
<text xml:space="preserve" text-anchor="start" x="38.5" y="-53.25" font-family="Helvetica,sans-Serif" font-size="10.00">::TVisitorPatternBase&lt; Ts</text>
<text xml:space="preserve" text-anchor="start" x="38.5" y="-40.5" font-family="Helvetica,sans-Serif" font-size="10.00"> &gt;::TElementBase&lt; ListenerInterfaces &gt;</text>
<text xml:space="preserve" text-anchor="start" x="134.5" y="-23.75" font-family="Helvetica,sans-Serif" font-size="10.00"> </text>
<text xml:space="preserve" text-anchor="start" x="74.81" y="-7" font-family="Helvetica,sans-Serif" font-size="10.00">+</text>
<text xml:space="preserve" text-anchor="start" x="123.38" y="-7" font-family="Helvetica,sans-Serif" font-size="10.00">Accept()</text>
<polygon fill="#666666" stroke="#666666" points="34.5,-35.5 34.5,-35.5 240.5,-35.5 240.5,-35.5 34.5,-35.5"/>
<polygon fill="#666666" stroke="#666666" points="34.5,-18.75 34.5,-18.75 240.5,-18.75 240.5,-18.75 34.5,-18.75"/>
<polygon fill="none" stroke="#666666" points="34.5,0 34.5,-79.75 240.5,-79.75 240.5,0 34.5,0"/>
</a>
</g>
</g>
<!-- Node2 -->
<g id="Node000002" class="node">
<title>Node2</title>
<g id="a_Node000002"><a xlink:href="$classAudio_1_1Quartz_1_1PrivateDefs_1_1TVisitorPatternBase_1_1IListenerBase.html" xlink:title=" ">
<polygon fill="white" stroke="none" points="137,-212.25 0,-212.25 0,-115.75 137,-115.75 137,-212.25"/>
<text xml:space="preserve" text-anchor="start" x="4" y="-198.5" font-family="Helvetica,sans-Serif" font-size="10.00">Audio::Quartz::PrivateDefs</text>
<text xml:space="preserve" text-anchor="start" x="4" y="-185.75" font-family="Helvetica,sans-Serif" font-size="10.00">::TVisitorPatternBase&lt; Ts</text>
<text xml:space="preserve" text-anchor="start" x="26.88" y="-173" font-family="Helvetica,sans-Serif" font-size="10.00"> &gt;::IListenerBase</text>
<text xml:space="preserve" text-anchor="start" x="65.5" y="-156.25" font-family="Helvetica,sans-Serif" font-size="10.00"> </text>
<text xml:space="preserve" text-anchor="start" x="12.75" y="-139.5" font-family="Helvetica,sans-Serif" font-size="10.00">+</text>
<text xml:space="preserve" text-anchor="start" x="33.75" y="-139.5" font-family="Helvetica,sans-Serif" font-size="10.00">~IListenerBase()</text>
<text xml:space="preserve" text-anchor="start" x="12.75" y="-122.75" font-family="Helvetica,sans-Serif" font-size="10.00">+</text>
<text xml:space="preserve" text-anchor="start" x="33.75" y="-122.75" font-family="Helvetica,sans-Serif" font-size="10.00">Accept()</text>
<polygon fill="#666666" stroke="#666666" points="0,-168 0,-168 137,-168 137,-168 0,-168"/>
<polygon fill="#666666" stroke="#666666" points="0,-151.25 0,-151.25 137,-151.25 137,-151.25 0,-151.25"/>
<polygon fill="none" stroke="#666666" points="0,-115.75 0,-212.25 137,-212.25 137,-115.75 0,-115.75"/>
</a>
</g>
</g>
<!-- Node2&#45;&gt;Node1 -->
<g id="edge1_Node000001_Node000002" class="edge">
<title>Node2&#45;&gt;Node1</title>
<g id="a_edge1_Node000001_Node000002"><a xlink:title=" ">
<path fill="none" stroke="#63b8ff" d="M100.79,-105.86C105.8,-96.98 110.87,-88 115.58,-79.66"/>
<polygon fill="none" stroke="#63b8ff" points="97.79,-104.04 95.92,-114.47 103.89,-107.48 97.79,-104.04"/>
</a>
</g>
</g>
<!-- Node3 -->
<g id="Node000003" class="node">
<title>Node3</title>
<g id="a_Node000003"><a xlink:title=" ">
<polygon fill="white" stroke="none" points="259.88,-191.12 155.12,-191.12 155.12,-136.88 259.88,-136.88 259.88,-191.12"/>
<text xml:space="preserve" text-anchor="start" x="159.12" y="-177.38" font-family="Helvetica,sans-Serif" font-size="10.00">ListenerInterfaces...</text>
<text xml:space="preserve" text-anchor="start" x="204.5" y="-160.62" font-family="Helvetica,sans-Serif" font-size="10.00"> </text>
<text xml:space="preserve" text-anchor="start" x="204.5" y="-143.88" font-family="Helvetica,sans-Serif" font-size="10.00"> </text>
<polygon fill="#666666" stroke="#666666" points="155.12,-172.38 155.12,-172.38 259.88,-172.38 259.88,-172.38 155.12,-172.38"/>
<polygon fill="#666666" stroke="#666666" points="155.12,-155.62 155.12,-155.62 259.88,-155.62 259.88,-155.62 155.12,-155.62"/>
<polygon fill="none" stroke="#666666" points="155.12,-136.88 155.12,-191.12 259.88,-191.12 259.88,-136.88 155.12,-136.88"/>
</a>
</g>
</g>
<!-- Node3&#45;&gt;Node1 -->
<g id="edge2_Node000001_Node000003" class="edge">
<title>Node3&#45;&gt;Node1</title>
<g id="a_edge2_Node000001_Node000003"><a xlink:title=" ">
<path fill="none" stroke="#63b8ff" d="M186.99,-127.22C178.45,-112.31 168.5,-94.96 159.77,-79.74"/>
<polygon fill="none" stroke="#63b8ff" points="183.89,-128.85 191.9,-135.79 189.97,-125.37 183.89,-128.85"/>
</a>
</g>
</g>
</g>
</svg>
