<?xml version="1.0" encoding="UTF-8" standalone="no"?>
<!DOCTYPE svg PUBLIC "-//W3C//DTD SVG 1.1//EN"
 "http://www.w3.org/Graphics/SVG/1.1/DTD/svg11.dtd">
<!-- Generated by graphviz version 14.1.4 (0)
 -->
<!-- Title: UTexture::UpdateResourceWithParams Pages: 1 -->
<svg width="725pt" height="132pt"
 viewBox="0.00 0.00 725.00 132.00" xmlns="http://www.w3.org/2000/svg" xmlns:xlink="http://www.w3.org/1999/xlink">
<g id="graph0" class="graph" transform="scale(1 1) rotate(0) translate(4 127.5)">
<title>UTexture::UpdateResourceWithParams</title>
<!-- Node1 -->
<g id="Node000001" class="node">
<title>Node1</title>
<g id="a_Node000001"><a xlink:title=" ">
<polygon fill="#999999" stroke="#666666" points="716.5,-78.5 570.75,-78.5 570.75,-45 716.5,-45 716.5,-78.5"/>
<text xml:space="preserve" text-anchor="start" x="578.75" y="-65" font-family="Helvetica,sans-Serif" font-size="10.00">UTexture::UpdateResource</text>
<text xml:space="preserve" text-anchor="middle" x="643.62" y="-52.25" font-family="Helvetica,sans-Serif" font-size="10.00">WithParams</text>
</a>
</g>
</g>
<!-- Node2 -->
<g id="Node000002" class="node">
<title>Node2</title>
<g id="a_Node000002"><a xlink:href="classUTexture.html#a46b9682e00432f92165180632d153116" target="_top" xlink:title=" ">
<polygon fill="white" stroke="#666666" points="534.75,-72.12 389,-72.12 389,-51.38 534.75,-51.38 534.75,-72.12"/>
<text xml:space="preserve" text-anchor="middle" x="461.88" y="-58.62" font-family="Helvetica,sans-Serif" font-size="10.00">UTexture::UpdateResource</text>
</a>
</g>
</g>
<!-- Node1&#45;&gt;Node2 -->
<g id="edge1_Node000001_Node000002" class="edge">
<title>Node1&#45;&gt;Node2</title>
<g id="a_edge1_Node000001_Node000002"><a xlink:title=" ">
<path fill="none" stroke="#63b8ff" d="M559.04,-61.75C551.03,-61.75 542.95,-61.75 535.06,-61.75"/>
<polygon fill="#63b8ff" stroke="#63b8ff" points="558.78,-65.25 568.78,-61.75 558.78,-58.25 558.78,-65.25"/>
</a>
</g>
</g>
<!-- Node2&#45;&gt;Node2 -->
<g id="edge5_Node000002_Node000002" class="edge">
<title>Node2&#45;&gt;Node2</title>
<g id="a_edge5_Node000002_Node000002"><a xlink:title=" ">
<path fill="none" stroke="#63b8ff" d="M493.86,-83.61C489.62,-87.45 478.96,-90.12 461.88,-90.12 430.64,-90.12 420.87,-81.18 432.59,-72.52"/>
<polygon fill="#63b8ff" stroke="#63b8ff" points="497.28,-82.88 491.52,-73.99 490.48,-84.54 497.28,-82.88"/>
</a>
</g>
</g>
<!-- Node3 -->
<g id="Node000003" class="node">
<title>Node3</title>
<g id="a_Node000003"><a xlink:href="classUTexture2DArray.html#abac1a0d47420535b8bb04c19c620f388" target="_top" xlink:title=" ">
<polygon fill="white" stroke="#666666" points="343.25,-123.5 190,-123.5 190,-90 343.25,-90 343.25,-123.5"/>
<text xml:space="preserve" text-anchor="start" x="198" y="-110" font-family="Helvetica,sans-Serif" font-size="10.00">UTexture2DArray::Invalidate</text>
<text xml:space="preserve" text-anchor="middle" x="266.62" y="-97.25" font-family="Helvetica,sans-Serif" font-size="10.00">TextureSource</text>
</a>
</g>
</g>
<!-- Node2&#45;&gt;Node3 -->
<g id="edge2_Node000002_Node000003" class="edge">
<title>Node2&#45;&gt;Node3</title>
<g id="a_edge2_Node000002_Node000003"><a xlink:title=" ">
<path fill="none" stroke="#63b8ff" d="M403.46,-75.12C384.01,-79.65 362,-84.77 341.46,-89.56"/>
<polygon fill="#63b8ff" stroke="#63b8ff" points="404.17,-78.55 413.11,-72.87 402.58,-71.73 404.17,-78.55"/>
</a>
</g>
</g>
<!-- Node4 -->
<g id="Node000004" class="node">
<title>Node4</title>
<g id="a_Node000004"><a xlink:href="classUTexture2DArray.html#a2a811cf81970cc12c10ad70e74ffbc75" target="_top" xlink:title=" ">
<polygon fill="white" stroke="#666666" points="144.25,-78.5 0,-78.5 0,-45 144.25,-45 144.25,-78.5"/>
<text xml:space="preserve" text-anchor="start" x="8" y="-65" font-family="Helvetica,sans-Serif" font-size="10.00">UTexture2DArray::PostEdit</text>
<text xml:space="preserve" text-anchor="middle" x="72.12" y="-52.25" font-family="Helvetica,sans-Serif" font-size="10.00">ChangeProperty</text>
</a>
</g>
</g>
<!-- Node2&#45;&gt;Node4 -->
<g id="edge4_Node000002_Node000004" class="edge">
<title>Node2&#45;&gt;Node4</title>
<g id="a_edge4_Node000002_Node000004"><a xlink:title=" ">
<path fill="none" stroke="#63b8ff" d="M377.53,-61.75C308.1,-61.75 210.28,-61.75 144.44,-61.75"/>
<polygon fill="#63b8ff" stroke="#63b8ff" points="377.34,-65.25 387.34,-61.75 377.34,-58.25 377.34,-65.25"/>
</a>
</g>
</g>
<!-- Node5 -->
<g id="Node000005" class="node">
<title>Node5</title>
<g id="a_Node000005"><a xlink:href="classUTexture2DArray.html#a2a668fb42c29a4d46d6cc0830f932fdd" target="_top" xlink:title=" ">
<polygon fill="white" stroke="#666666" points="353,-33.5 180.25,-33.5 180.25,0 353,0 353,-33.5"/>
<text xml:space="preserve" text-anchor="start" x="188.25" y="-20" font-family="Helvetica,sans-Serif" font-size="10.00">UTexture2DArray::UpdateSource</text>
<text xml:space="preserve" text-anchor="middle" x="266.62" y="-7.25" font-family="Helvetica,sans-Serif" font-size="10.00">FromSourceTextures</text>
</a>
</g>
</g>
<!-- Node2&#45;&gt;Node5 -->
<g id="edge6_Node000002_Node000005" class="edge">
<title>Node2&#45;&gt;Node5</title>
<g id="a_edge6_Node000002_Node000005"><a xlink:title=" ">
<path fill="none" stroke="#63b8ff" d="M403.46,-48.38C384.01,-43.85 362,-38.73 341.46,-33.94"/>
<polygon fill="#63b8ff" stroke="#63b8ff" points="402.58,-51.77 413.11,-50.63 404.17,-44.95 402.58,-51.77"/>
</a>
</g>
</g>
<!-- Node3&#45;&gt;Node4 -->
<g id="edge3_Node000003_Node000004" class="edge">
<title>Node3&#45;&gt;Node4</title>
<g id="a_edge3_Node000003_Node000004"><a xlink:title=" ">
<path fill="none" stroke="#63b8ff" d="M180.94,-86.95C168.77,-84.11 156.34,-81.2 144.46,-78.43"/>
<polygon fill="#63b8ff" stroke="#63b8ff" points="180.02,-90.33 190.55,-89.2 181.61,-83.52 180.02,-90.33"/>
</a>
</g>
</g>
<!-- Node5&#45;&gt;Node4 -->
<g id="edge7_Node000005_Node000004" class="edge">
<title>Node5&#45;&gt;Node4</title>
<g id="a_edge7_Node000005_Node000004"><a xlink:title=" ">
<path fill="none" stroke="#63b8ff" d="M180.94,-36.55C168.77,-39.39 156.34,-42.3 144.46,-45.07"/>
<polygon fill="#63b8ff" stroke="#63b8ff" points="181.61,-39.98 190.55,-34.3 180.02,-33.17 181.61,-39.98"/>
</a>
</g>
</g>
</g>
</svg>
