<?xml version="1.0" encoding="UTF-8" standalone="no"?>
<!DOCTYPE svg PUBLIC "-//W3C//DTD SVG 1.1//EN"
 "http://www.w3.org/Graphics/SVG/1.1/DTD/svg11.dtd">
<!-- Generated by graphviz version 14.1.4 (0)
 -->
<!-- Title: IPlatformFile::AddLocalDirectories Pages: 1 -->
<svg width="562pt" height="47pt"
 viewBox="0.00 0.00 562.00 47.00" xmlns="http://www.w3.org/2000/svg" xmlns:xlink="http://www.w3.org/1999/xlink">
<g id="graph0" class="graph" transform="scale(1 1) rotate(0) translate(4 42.75)">
<title>IPlatformFile::AddLocalDirectories</title>
<!-- Node1 -->
<g id="Node000001" class="node">
<title>Node1</title>
<g id="a_Node000001"><a xlink:title=" ">
<polygon fill="#999999" stroke="#666666" points="181,-20.75 0,-20.75 0,0 181,0 181,-20.75"/>
<text xml:space="preserve" text-anchor="middle" x="90.5" y="-7.25" font-family="Helvetica,sans-Serif" font-size="10.00">IPlatformFile::AddLocalDirectories</text>
</a>
</g>
</g>
<!-- Node1&#45;&gt;Node1 -->
<g id="edge1_Node000001_Node000001" class="edge">
<title>Node1&#45;&gt;Node1</title>
<g id="a_edge1_Node000001_Node000001"><a xlink:title=" ">
<path fill="none" stroke="#63b8ff" d="M57.53,-21.15C44.34,-29.81 55.33,-38.75 90.5,-38.75 109.73,-38.75 121.74,-36.08 126.51,-32.24"/>
<polygon fill="#63b8ff" stroke="#63b8ff" points="129.89,-31.33 123.87,-22.61 123.14,-33.18 129.89,-31.33"/>
</a>
</g>
</g>
<!-- Node2 -->
<g id="Node000002" class="node">
<title>Node2</title>
<g id="a_Node000002"><a xlink:href="$classIPlatformFile.html#a398b3fbc176e60b3035f3a5ce861bb8b" xlink:title=" ">
<polygon fill="white" stroke="#666666" points="373.25,-20.75 217,-20.75 217,0 373.25,0 373.25,-20.75"/>
<text xml:space="preserve" text-anchor="middle" x="295.12" y="-7.25" font-family="Helvetica,sans-Serif" font-size="10.00">IPlatformFile::GetLowerLevel</text>
</a>
</g>
</g>
<!-- Node1&#45;&gt;Node2 -->
<g id="edge2_Node000001_Node000002" class="edge">
<title>Node1&#45;&gt;Node2</title>
<g id="a_edge2_Node000001_Node000002"><a xlink:title=" ">
<path fill="none" stroke="#63b8ff" d="M181.26,-10.38C189.32,-10.38 197.47,-10.38 205.52,-10.38"/>
<polygon fill="#63b8ff" stroke="#63b8ff" points="205.29,-13.88 215.29,-10.38 205.29,-6.88 205.29,-13.88"/>
</a>
</g>
</g>
<!-- Node3 -->
<g id="Node000003" class="node">
<title>Node3</title>
<g id="a_Node000003"><a xlink:href="$classIPlatformFile.html#a0d2c524077fe4bc273a760a5911e6be7" xlink:title=" ">
<polygon fill="white" stroke="#666666" points="554.25,-20.75 409.25,-20.75 409.25,0 554.25,0 554.25,-20.75"/>
<text xml:space="preserve" text-anchor="middle" x="481.75" y="-7.25" font-family="Helvetica,sans-Serif" font-size="10.00">IPlatformFile::IPlatformFile</text>
</a>
</g>
</g>
<!-- Node2&#45;&gt;Node3 -->
<g id="edge3_Node000002_Node000003" class="edge">
<title>Node2&#45;&gt;Node3</title>
<g id="a_edge3_Node000002_Node000003"><a xlink:title=" ">
<path fill="none" stroke="#63b8ff" d="M373.62,-10.38C381.44,-10.38 389.41,-10.38 397.3,-10.38"/>
<polygon fill="#63b8ff" stroke="#63b8ff" points="397.24,-13.88 407.24,-10.38 397.24,-6.88 397.24,-13.88"/>
</a>
</g>
</g>
</g>
</svg>
