<?xml version="1.0" encoding="UTF-8" standalone="no"?>
<!DOCTYPE svg PUBLIC "-//W3C//DTD SVG 1.1//EN"
 "http://www.w3.org/Graphics/SVG/1.1/DTD/svg11.dtd">
<!-- Generated by graphviz version 14.1.4 (0)
 -->
<!-- Title: ACameraActor Pages: 1 -->
<svg width="177pt" height="409pt"
 viewBox="0.00 0.00 177.00 409.00" xmlns="http://www.w3.org/2000/svg" xmlns:xlink="http://www.w3.org/1999/xlink">
<g id="graph0" class="graph" transform="scale(1 1) rotate(0) translate(4 404.5)">
<title>ACameraActor</title>
<!-- Node1 -->
<g id="Node000001" class="node">
<title>Node1</title>
<g id="a_Node000001"><a xlink:title=" ">
<polygon fill="#999999" stroke="none" points="168.75,-310.25 0,-310.25 0,0 168.75,0 168.75,-310.25"/>
<text xml:space="preserve" text-anchor="start" x="49.12" y="-296.5" font-family="Helvetica,sans-Serif" font-size="10.00">ACameraActor</text>
<text xml:space="preserve" text-anchor="start" x="6.25" y="-279.75" font-family="Helvetica,sans-Serif" font-size="10.00">&#45;</text>
<text xml:space="preserve" text-anchor="start" x="16.25" y="-279.75" font-family="Helvetica,sans-Serif" font-size="10.00">AutoActivateForPlayer</text>
<text xml:space="preserve" text-anchor="start" x="6.25" y="-263" font-family="Helvetica,sans-Serif" font-size="10.00">&#45;</text>
<text xml:space="preserve" text-anchor="start" x="16.25" y="-263" font-family="Helvetica,sans-Serif" font-size="10.00">CameraComponent</text>
<text xml:space="preserve" text-anchor="start" x="6.25" y="-246.25" font-family="Helvetica,sans-Serif" font-size="10.00">&#45;</text>
<text xml:space="preserve" text-anchor="start" x="16.25" y="-246.25" font-family="Helvetica,sans-Serif" font-size="10.00">SceneComponent</text>
<text xml:space="preserve" text-anchor="start" x="6.25" y="-229.5" font-family="Helvetica,sans-Serif" font-size="10.00">&#45;</text>
<text xml:space="preserve" text-anchor="start" x="16.25" y="-229.5" font-family="Helvetica,sans-Serif" font-size="10.00">bConstrainAspectRatio</text>
<text xml:space="preserve" text-anchor="start" x="16.25" y="-216.75" font-family="Helvetica,sans-Serif" font-size="10.00">_DEPRECATED</text>
<text xml:space="preserve" text-anchor="start" x="6.25" y="-200" font-family="Helvetica,sans-Serif" font-size="10.00">&#45;</text>
<text xml:space="preserve" text-anchor="start" x="16.25" y="-200" font-family="Helvetica,sans-Serif" font-size="10.00">AspectRatio_DEPRECATED</text>
<text xml:space="preserve" text-anchor="start" x="6.25" y="-183.25" font-family="Helvetica,sans-Serif" font-size="10.00">&#45;</text>
<text xml:space="preserve" text-anchor="start" x="16.25" y="-183.25" font-family="Helvetica,sans-Serif" font-size="10.00">FOVAngle_DEPRECATED</text>
<text xml:space="preserve" text-anchor="start" x="6.25" y="-166.5" font-family="Helvetica,sans-Serif" font-size="10.00">&#45;</text>
<text xml:space="preserve" text-anchor="start" x="16.25" y="-166.5" font-family="Helvetica,sans-Serif" font-size="10.00">PostProcessBlendWeight</text>
<text xml:space="preserve" text-anchor="start" x="16.25" y="-153.75" font-family="Helvetica,sans-Serif" font-size="10.00">_DEPRECATED</text>
<text xml:space="preserve" text-anchor="start" x="6.25" y="-137" font-family="Helvetica,sans-Serif" font-size="10.00">&#45;</text>
<text xml:space="preserve" text-anchor="start" x="16.25" y="-137" font-family="Helvetica,sans-Serif" font-size="10.00">PostProcessSettings</text>
<text xml:space="preserve" text-anchor="start" x="16.25" y="-124.25" font-family="Helvetica,sans-Serif" font-size="10.00">_DEPRECATED</text>
<text xml:space="preserve" text-anchor="start" x="4" y="-107.5" font-family="Helvetica,sans-Serif" font-size="10.00">+</text>
<text xml:space="preserve" text-anchor="start" x="16.25" y="-107.5" font-family="Helvetica,sans-Serif" font-size="10.00">GetAutoActivatePlayerIndex()</text>
<text xml:space="preserve" text-anchor="start" x="4" y="-90.75" font-family="Helvetica,sans-Serif" font-size="10.00">+</text>
<text xml:space="preserve" text-anchor="start" x="16.25" y="-90.75" font-family="Helvetica,sans-Serif" font-size="10.00">Serialize()</text>
<text xml:space="preserve" text-anchor="start" x="4" y="-74" font-family="Helvetica,sans-Serif" font-size="10.00">+</text>
<text xml:space="preserve" text-anchor="start" x="16.25" y="-74" font-family="Helvetica,sans-Serif" font-size="10.00">PostLoadSubobjects()</text>
<text xml:space="preserve" text-anchor="start" x="4" y="-57.25" font-family="Helvetica,sans-Serif" font-size="10.00">+</text>
<text xml:space="preserve" text-anchor="start" x="16.25" y="-57.25" font-family="Helvetica,sans-Serif" font-size="10.00">GetDefaultAttachComponent()</text>
<text xml:space="preserve" text-anchor="start" x="4" y="-40.5" font-family="Helvetica,sans-Serif" font-size="10.00">+</text>
<text xml:space="preserve" text-anchor="start" x="16.25" y="-40.5" font-family="Helvetica,sans-Serif" font-size="10.00">GetCameraComponent()</text>
<text xml:space="preserve" text-anchor="start" x="4" y="-23.75" font-family="Helvetica,sans-Serif" font-size="10.00">+</text>
<text xml:space="preserve" text-anchor="start" x="16.25" y="-23.75" font-family="Helvetica,sans-Serif" font-size="10.00">NotifyCameraCut()</text>
<text xml:space="preserve" text-anchor="start" x="4" y="-7" font-family="Helvetica,sans-Serif" font-size="10.00">#</text>
<text xml:space="preserve" text-anchor="start" x="16.25" y="-7" font-family="Helvetica,sans-Serif" font-size="10.00">BeginPlay()</text>
<polygon fill="#666666" stroke="#666666" points="0,-291.5 0,-291.5 168.75,-291.5 168.75,-291.5 0,-291.5"/>
<polygon fill="#666666" stroke="#666666" points="0,-119.25 0,-119.25 14.25,-119.25 14.25,-119.25 0,-119.25"/>
<polygon fill="#666666" stroke="#666666" points="14.25,-119.25 14.25,-119.25 168.75,-119.25 168.75,-119.25 14.25,-119.25"/>
<polygon fill="none" stroke="#666666" points="0,0 0,-310.25 168.75,-310.25 168.75,0 0,0"/>
</a>
</g>
</g>
<!-- Node2 -->
<g id="Node000002" class="node">
<title>Node2</title>
<g id="a_Node000002"><a xlink:title=" ">
<polygon fill="white" stroke="none" points="104.5,-400.5 64.25,-400.5 64.25,-346.25 104.5,-346.25 104.5,-400.5"/>
<text xml:space="preserve" text-anchor="start" x="68.25" y="-386.75" font-family="Helvetica,sans-Serif" font-size="10.00">AActor</text>
<text xml:space="preserve" text-anchor="start" x="81.38" y="-370" font-family="Helvetica,sans-Serif" font-size="10.00"> </text>
<text xml:space="preserve" text-anchor="start" x="81.38" y="-353.25" font-family="Helvetica,sans-Serif" font-size="10.00"> </text>
<polygon fill="#666666" stroke="#666666" points="64.25,-381.75 64.25,-381.75 104.5,-381.75 104.5,-381.75 64.25,-381.75"/>
<polygon fill="#666666" stroke="#666666" points="64.25,-365 64.25,-365 104.5,-365 104.5,-365 64.25,-365"/>
<polygon fill="none" stroke="#666666" points="64.25,-346.25 64.25,-400.5 104.5,-400.5 104.5,-346.25 64.25,-346.25"/>
</a>
</g>
</g>
<!-- Node2&#45;&gt;Node1 -->
<g id="edge1_Node000001_Node000002" class="edge">
<title>Node2&#45;&gt;Node1</title>
<g id="a_edge1_Node000001_Node000002"><a xlink:title=" ">
<path fill="none" stroke="#63b8ff" d="M84.38,-334.82C84.38,-327.29 84.38,-318.96 84.38,-310.12"/>
<polygon fill="none" stroke="#63b8ff" points="80.88,-334.78 84.38,-344.78 87.88,-334.78 80.88,-334.78"/>
</a>
</g>
</g>
</g>
</svg>
