<?xml version="1.0" encoding="UTF-8" standalone="no"?>
<!DOCTYPE svg PUBLIC "-//W3C//DTD SVG 1.1//EN"
 "http://www.w3.org/Graphics/SVG/1.1/DTD/svg11.dtd">
<!-- Generated by graphviz version 14.1.4 (0)
 -->
<!-- Title: UDeviceProfile::GetConsolidatedCVarValue Pages: 1 -->
<svg width="396pt" height="94pt"
 viewBox="0.00 0.00 396.00 94.00" xmlns="http://www.w3.org/2000/svg" xmlns:xlink="http://www.w3.org/1999/xlink">
<g id="graph0" class="graph" transform="scale(1 1) rotate(0) translate(4 89.5)">
<title>UDeviceProfile::GetConsolidatedCVarValue</title>
<!-- Node1 -->
<g id="Node000001" class="node">
<title>Node1</title>
<g id="a_Node000001"><a xlink:title=" ">
<polygon fill="#999999" stroke="#666666" points="387.5,-59.5 211.75,-59.5 211.75,-26 387.5,-26 387.5,-59.5"/>
<text xml:space="preserve" text-anchor="start" x="219.75" y="-46" font-family="Helvetica,sans-Serif" font-size="10.00">UDeviceProfile::GetConsolidated</text>
<text xml:space="preserve" text-anchor="middle" x="299.62" y="-33.25" font-family="Helvetica,sans-Serif" font-size="10.00">CVarValue</text>
</a>
</g>
</g>
<!-- Node1&#45;&gt;Node1 -->
<g id="edge2_Node000001_Node000001" class="edge">
<title>Node1&#45;&gt;Node1</title>
<g id="a_edge2_Node000001_Node000001"><a xlink:title=" ">
<path fill="none" stroke="#63b8ff" d="M334.93,-71.05C329.06,-74.92 317.29,-77.5 299.62,-77.5 267.78,-77.5 255.09,-69.12 261.56,-59.91"/>
<polygon fill="#63b8ff" stroke="#63b8ff" points="338.32,-71.93 337.33,-61.38 331.53,-70.25 338.32,-71.93"/>
</a>
</g>
</g>
<!-- Node2 -->
<g id="Node000002" class="node">
<title>Node2</title>
<g id="a_Node000002"><a xlink:href="classUDeviceProfile.html#a3b112c88cb96ba9026f9637b6b066215" target="_top" xlink:title=" ">
<polygon fill="white" stroke="#666666" points="175.75,-85.5 0,-85.5 0,-52 175.75,-52 175.75,-85.5"/>
<text xml:space="preserve" text-anchor="start" x="8" y="-72" font-family="Helvetica,sans-Serif" font-size="10.00">UDeviceProfile::GetConsolidated</text>
<text xml:space="preserve" text-anchor="middle" x="87.88" y="-59.25" font-family="Helvetica,sans-Serif" font-size="10.00">CVarValue</text>
</a>
</g>
</g>
<!-- Node1&#45;&gt;Node2 -->
<g id="edge1_Node000001_Node000002" class="edge">
<title>Node1&#45;&gt;Node2</title>
<g id="a_edge1_Node000001_Node000002"><a xlink:title=" ">
<path fill="none" stroke="#63b8ff" d="M200.17,-54.95C192.13,-55.95 184.03,-56.95 176.07,-57.94"/>
<polygon fill="#63b8ff" stroke="#63b8ff" points="200.5,-58.44 209.99,-53.74 199.64,-51.49 200.5,-58.44"/>
</a>
</g>
</g>
<!-- Node3 -->
<g id="Node000003" class="node">
<title>Node3</title>
<g id="a_Node000003"><a xlink:href="classUDeviceProfile.html#a1b2b627933fe16f11f0bff98f135f7b1" target="_top" xlink:title=" ">
<polygon fill="white" stroke="#666666" points="175.75,-33.5 0,-33.5 0,0 175.75,0 175.75,-33.5"/>
<text xml:space="preserve" text-anchor="start" x="8" y="-20" font-family="Helvetica,sans-Serif" font-size="10.00">UDeviceProfile::GetConsolidated</text>
<text xml:space="preserve" text-anchor="middle" x="87.88" y="-7.25" font-family="Helvetica,sans-Serif" font-size="10.00">CVarValue</text>
</a>
</g>
</g>
<!-- Node1&#45;&gt;Node3 -->
<g id="edge3_Node000001_Node000003" class="edge">
<title>Node1&#45;&gt;Node3</title>
<g id="a_edge3_Node000001_Node000003"><a xlink:title=" ">
<path fill="none" stroke="#63b8ff" d="M200.17,-30.55C192.13,-29.55 184.03,-28.55 176.07,-27.56"/>
<polygon fill="#63b8ff" stroke="#63b8ff" points="199.64,-34.01 209.99,-31.76 200.5,-27.06 199.64,-34.01"/>
</a>
</g>
</g>
</g>
</svg>
