<?xml version="1.0" encoding="UTF-8" standalone="no"?>
<!DOCTYPE svg PUBLIC "-//W3C//DTD SVG 1.1//EN"
 "http://www.w3.org/Graphics/SVG/1.1/DTD/svg11.dtd">
<!-- Generated by graphviz version 14.1.4 (0)
 -->
<!-- Title: USoundNodeDialoguePlayer Pages: 1 -->
<svg width="179pt" height="628pt"
 viewBox="0.00 0.00 179.00 628.00" xmlns="http://www.w3.org/2000/svg" xmlns:xlink="http://www.w3.org/1999/xlink">
<g id="graph0" class="graph" transform="scale(1 1) rotate(0) translate(4 624)">
<title>USoundNodeDialoguePlayer</title>
<!-- Node1 -->
<g id="Node000001" class="node">
<title>Node1</title>
<g id="a_Node000001"><a xlink:title=" ">
<polygon fill="#999999" stroke="none" points="158.12,-171.5 12.88,-171.5 12.88,0 158.12,0 158.12,-171.5"/>
<text xml:space="preserve" text-anchor="start" x="16.88" y="-157.75" font-family="Helvetica,sans-Serif" font-size="10.00">USoundNodeDialoguePlayer</text>
<text xml:space="preserve" text-anchor="start" x="19.81" y="-141" font-family="Helvetica,sans-Serif" font-size="10.00">&#45;</text>
<text xml:space="preserve" text-anchor="start" x="30.5" y="-141" font-family="Helvetica,sans-Serif" font-size="10.00">DialogueWaveParameter</text>
<text xml:space="preserve" text-anchor="start" x="19.81" y="-124.25" font-family="Helvetica,sans-Serif" font-size="10.00">&#45;</text>
<text xml:space="preserve" text-anchor="start" x="30.5" y="-124.25" font-family="Helvetica,sans-Serif" font-size="10.00">bLooping</text>
<text xml:space="preserve" text-anchor="start" x="17.56" y="-107.5" font-family="Helvetica,sans-Serif" font-size="10.00">+</text>
<text xml:space="preserve" text-anchor="start" x="30.5" y="-107.5" font-family="Helvetica,sans-Serif" font-size="10.00">GetDialogueWave()</text>
<text xml:space="preserve" text-anchor="start" x="17.56" y="-90.75" font-family="Helvetica,sans-Serif" font-size="10.00">+</text>
<text xml:space="preserve" text-anchor="start" x="30.5" y="-90.75" font-family="Helvetica,sans-Serif" font-size="10.00">SetDialogueWave()</text>
<text xml:space="preserve" text-anchor="start" x="17.56" y="-74" font-family="Helvetica,sans-Serif" font-size="10.00">+</text>
<text xml:space="preserve" text-anchor="start" x="30.5" y="-74" font-family="Helvetica,sans-Serif" font-size="10.00">GetMaxChildNodes()</text>
<text xml:space="preserve" text-anchor="start" x="17.56" y="-57.25" font-family="Helvetica,sans-Serif" font-size="10.00">+</text>
<text xml:space="preserve" text-anchor="start" x="30.5" y="-57.25" font-family="Helvetica,sans-Serif" font-size="10.00">GetDuration()</text>
<text xml:space="preserve" text-anchor="start" x="17.56" y="-40.5" font-family="Helvetica,sans-Serif" font-size="10.00">+</text>
<text xml:space="preserve" text-anchor="start" x="30.5" y="-40.5" font-family="Helvetica,sans-Serif" font-size="10.00">GetNumSounds()</text>
<text xml:space="preserve" text-anchor="start" x="17.56" y="-23.75" font-family="Helvetica,sans-Serif" font-size="10.00">+</text>
<text xml:space="preserve" text-anchor="start" x="30.5" y="-23.75" font-family="Helvetica,sans-Serif" font-size="10.00">ParseNodes()</text>
<text xml:space="preserve" text-anchor="start" x="17.56" y="-7" font-family="Helvetica,sans-Serif" font-size="10.00">+</text>
<text xml:space="preserve" text-anchor="start" x="30.5" y="-7" font-family="Helvetica,sans-Serif" font-size="10.00">GetTitle()</text>
<polygon fill="#666666" stroke="#666666" points="12.88,-152.75 12.88,-152.75 158.12,-152.75 158.12,-152.75 12.88,-152.75"/>
<polygon fill="#666666" stroke="#666666" points="12.88,-119.25 12.88,-119.25 28.5,-119.25 28.5,-119.25 12.88,-119.25"/>
<polygon fill="#666666" stroke="#666666" points="28.5,-119.25 28.5,-119.25 158.12,-119.25 158.12,-119.25 28.5,-119.25"/>
<polygon fill="none" stroke="#666666" points="12.88,0 12.88,-171.5 158.12,-171.5 158.12,0 12.88,0"/>
</a>
</g>
</g>
<!-- Node2 -->
<g id="Node000002" class="node">
<title>Node2</title>
<g id="a_Node000002"><a xlink:href="classUSoundNode.html" target="_top" xlink:title=" ">
<polygon fill="white" stroke="none" points="171,-529.75 0,-529.75 0,-207.5 171,-207.5 171,-529.75"/>
<text xml:space="preserve" text-anchor="start" x="54" y="-516" font-family="Helvetica,sans-Serif" font-size="10.00">USoundNode</text>
<text xml:space="preserve" text-anchor="start" x="6.25" y="-499.25" font-family="Helvetica,sans-Serif" font-size="10.00">&#45;</text>
<text xml:space="preserve" text-anchor="start" x="16.25" y="-499.25" font-family="Helvetica,sans-Serif" font-size="10.00">ChildNodes</text>
<text xml:space="preserve" text-anchor="start" x="6.25" y="-482.5" font-family="Helvetica,sans-Serif" font-size="10.00">&#45;</text>
<text xml:space="preserve" text-anchor="start" x="16.25" y="-482.5" font-family="Helvetica,sans-Serif" font-size="10.00">RandomStream</text>
<text xml:space="preserve" text-anchor="start" x="6.25" y="-465.75" font-family="Helvetica,sans-Serif" font-size="10.00">&#45;</text>
<text xml:space="preserve" text-anchor="start" x="16.25" y="-465.75" font-family="Helvetica,sans-Serif" font-size="10.00">bIsRetainingAudio</text>
<text xml:space="preserve" text-anchor="start" x="6.25" y="-449" font-family="Helvetica,sans-Serif" font-size="10.00">&#45;</text>
<text xml:space="preserve" text-anchor="start" x="16.25" y="-449" font-family="Helvetica,sans-Serif" font-size="10.00">MAX_ALLOWED_CHILD_NODES</text>
<text xml:space="preserve" text-anchor="start" x="4" y="-432.25" font-family="Helvetica,sans-Serif" font-size="10.00">+</text>
<text xml:space="preserve" text-anchor="start" x="16.25" y="-432.25" font-family="Helvetica,sans-Serif" font-size="10.00">PostEditChangeProperty()</text>
<text xml:space="preserve" text-anchor="start" x="4" y="-415.5" font-family="Helvetica,sans-Serif" font-size="10.00">+</text>
<text xml:space="preserve" text-anchor="start" x="16.25" y="-415.5" font-family="Helvetica,sans-Serif" font-size="10.00">PostLoad()</text>
<text xml:space="preserve" text-anchor="start" x="4" y="-398.75" font-family="Helvetica,sans-Serif" font-size="10.00">+</text>
<text xml:space="preserve" text-anchor="start" x="16.25" y="-398.75" font-family="Helvetica,sans-Serif" font-size="10.00">Serialize()</text>
<text xml:space="preserve" text-anchor="start" x="4" y="-382" font-family="Helvetica,sans-Serif" font-size="10.00">+</text>
<text xml:space="preserve" text-anchor="start" x="16.25" y="-382" font-family="Helvetica,sans-Serif" font-size="10.00">CanBeClusterRoot()</text>
<text xml:space="preserve" text-anchor="start" x="4" y="-365.25" font-family="Helvetica,sans-Serif" font-size="10.00">+</text>
<text xml:space="preserve" text-anchor="start" x="16.25" y="-365.25" font-family="Helvetica,sans-Serif" font-size="10.00">CanBeInCluster()</text>
<text xml:space="preserve" text-anchor="start" x="4" y="-348.5" font-family="Helvetica,sans-Serif" font-size="10.00">+</text>
<text xml:space="preserve" text-anchor="start" x="16.25" y="-348.5" font-family="Helvetica,sans-Serif" font-size="10.00">BeginDestroy()</text>
<text xml:space="preserve" text-anchor="start" x="4" y="-331.75" font-family="Helvetica,sans-Serif" font-size="10.00">+</text>
<text xml:space="preserve" text-anchor="start" x="16.25" y="-331.75" font-family="Helvetica,sans-Serif" font-size="10.00">NotifyWaveInstanceFinished()</text>
<text xml:space="preserve" text-anchor="start" x="4" y="-315" font-family="Helvetica,sans-Serif" font-size="10.00">+</text>
<text xml:space="preserve" text-anchor="start" x="16.25" y="-315" font-family="Helvetica,sans-Serif" font-size="10.00">GetMaxDistance()</text>
<text xml:space="preserve" text-anchor="start" x="4" y="-298.25" font-family="Helvetica,sans-Serif" font-size="10.00">+</text>
<text xml:space="preserve" text-anchor="start" x="16.25" y="-298.25" font-family="Helvetica,sans-Serif" font-size="10.00">SupportsSubtitles()</text>
<text xml:space="preserve" text-anchor="start" x="4" y="-281.5" font-family="Helvetica,sans-Serif" font-size="10.00">+</text>
<text xml:space="preserve" text-anchor="start" x="16.25" y="-281.5" font-family="Helvetica,sans-Serif" font-size="10.00">GetDuration()</text>
<text xml:space="preserve" text-anchor="start" x="16.25" y="-264.75" font-family="Helvetica,sans-Serif" font-size="10.00">and 24 more...</text>
<text xml:space="preserve" text-anchor="start" x="4" y="-248" font-family="Helvetica,sans-Serif" font-size="10.00">+</text>
<text xml:space="preserve" text-anchor="start" x="16.25" y="-248" font-family="Helvetica,sans-Serif" font-size="10.00">AddReferencedObjects()</text>
<text xml:space="preserve" text-anchor="start" x="4" y="-231.25" font-family="Helvetica,sans-Serif" font-size="10.00">+</text>
<text xml:space="preserve" text-anchor="start" x="16.25" y="-231.25" font-family="Helvetica,sans-Serif" font-size="10.00">GetNodeWaveInstanceHash()</text>
<text xml:space="preserve" text-anchor="start" x="4" y="-214.5" font-family="Helvetica,sans-Serif" font-size="10.00">+</text>
<text xml:space="preserve" text-anchor="start" x="16.25" y="-214.5" font-family="Helvetica,sans-Serif" font-size="10.00">GetNodeWaveInstanceHash()</text>
<polygon fill="#666666" stroke="#666666" points="0,-511 0,-511 171,-511 171,-511 0,-511"/>
<polygon fill="#666666" stroke="#666666" points="0,-444 0,-444 14.25,-444 14.25,-444 0,-444"/>
<polygon fill="#666666" stroke="#666666" points="14.25,-444 14.25,-444 171,-444 171,-444 14.25,-444"/>
<polygon fill="none" stroke="#666666" points="0,-207.5 0,-529.75 171,-529.75 171,-207.5 0,-207.5"/>
</a>
</g>
</g>
<!-- Node2&#45;&gt;Node1 -->
<g id="edge1_Node000001_Node000002" class="edge">
<title>Node2&#45;&gt;Node1</title>
<g id="a_edge1_Node000001_Node000002"><a xlink:title=" ">
<path fill="none" stroke="#63b8ff" d="M85.5,-196.46C85.5,-187.82 85.5,-179.34 85.5,-171.16"/>
<polygon fill="none" stroke="#63b8ff" points="82,-196.39 85.5,-206.39 89,-196.39 82,-196.39"/>
</a>
</g>
</g>
<!-- Node3 -->
<g id="Node000003" class="node">
<title>Node3</title>
<g id="a_Node000003"><a xlink:title=" ">
<polygon fill="white" stroke="none" points="109,-620 62,-620 62,-565.75 109,-565.75 109,-620"/>
<text xml:space="preserve" text-anchor="start" x="66" y="-606.25" font-family="Helvetica,sans-Serif" font-size="10.00">UObject</text>
<text xml:space="preserve" text-anchor="start" x="82.5" y="-589.5" font-family="Helvetica,sans-Serif" font-size="10.00"> </text>
<text xml:space="preserve" text-anchor="start" x="82.5" y="-572.75" font-family="Helvetica,sans-Serif" font-size="10.00"> </text>
<polygon fill="#666666" stroke="#666666" points="62,-601.25 62,-601.25 109,-601.25 109,-601.25 62,-601.25"/>
<polygon fill="#666666" stroke="#666666" points="62,-584.5 62,-584.5 109,-584.5 109,-584.5 62,-584.5"/>
<polygon fill="none" stroke="#666666" points="62,-565.75 62,-620 109,-620 109,-565.75 62,-565.75"/>
</a>
</g>
</g>
<!-- Node3&#45;&gt;Node2 -->
<g id="edge2_Node000002_Node000003" class="edge">
<title>Node3&#45;&gt;Node2</title>
<g id="a_edge2_Node000002_Node000003"><a xlink:title=" ">
<path fill="none" stroke="#63b8ff" d="M85.5,-554.63C85.5,-546.96 85.5,-538.42 85.5,-529.34"/>
<polygon fill="none" stroke="#63b8ff" points="82,-554.43 85.5,-564.43 89,-554.43 82,-554.43"/>
</a>
</g>
</g>
</g>
</svg>
