<?xml version="1.0" encoding="UTF-8" standalone="no"?>
<!DOCTYPE svg PUBLIC "-//W3C//DTD SVG 1.1//EN"
 "http://www.w3.org/Graphics/SVG/1.1/DTD/svg11.dtd">
<!-- Generated by graphviz version 14.1.4 (0)
 -->
<!-- Title: UParticleModuleRotationOverLifetime Pages: 1 -->
<svg width="327pt" height="1164pt"
 viewBox="0.00 0.00 327.00 1164.00" xmlns="http://www.w3.org/2000/svg" xmlns:xlink="http://www.w3.org/1999/xlink">
<g id="graph0" class="graph" transform="scale(1 1) rotate(0) translate(4 1159.5)">
<title>UParticleModuleRotationOverLifetime</title>
<!-- Node1 -->
<g id="Node000001" class="node">
<title>Node1</title>
<g id="a_Node000001"><a xlink:title=" ">
<polygon fill="#999999" stroke="none" points="239.38,-117.25 86.62,-117.25 86.62,0 239.38,0 239.38,-117.25"/>
<text xml:space="preserve" text-anchor="start" x="90.62" y="-103.5" font-family="Helvetica,sans-Serif" font-size="10.00">UParticleModuleRotationOver</text>
<text xml:space="preserve" text-anchor="start" x="142.75" y="-90.75" font-family="Helvetica,sans-Serif" font-size="10.00">Lifetime</text>
<text xml:space="preserve" text-anchor="start" x="93.56" y="-74" font-family="Helvetica,sans-Serif" font-size="10.00">&#45;</text>
<text xml:space="preserve" text-anchor="start" x="104.25" y="-74" font-family="Helvetica,sans-Serif" font-size="10.00">Scale</text>
<text xml:space="preserve" text-anchor="start" x="93.56" y="-57.25" font-family="Helvetica,sans-Serif" font-size="10.00">&#45;</text>
<text xml:space="preserve" text-anchor="start" x="104.25" y="-57.25" font-family="Helvetica,sans-Serif" font-size="10.00">InitializeDefaults()</text>
<text xml:space="preserve" text-anchor="start" x="93.56" y="-40.5" font-family="Helvetica,sans-Serif" font-size="10.00">&#45;</text>
<text xml:space="preserve" text-anchor="start" x="104.25" y="-40.5" font-family="Helvetica,sans-Serif" font-size="10.00">PostEditChangeProperty()</text>
<text xml:space="preserve" text-anchor="start" x="93.56" y="-23.75" font-family="Helvetica,sans-Serif" font-size="10.00">&#45;</text>
<text xml:space="preserve" text-anchor="start" x="104.25" y="-23.75" font-family="Helvetica,sans-Serif" font-size="10.00">PostInitProperties()</text>
<text xml:space="preserve" text-anchor="start" x="93.56" y="-7" font-family="Helvetica,sans-Serif" font-size="10.00">&#45;</text>
<text xml:space="preserve" text-anchor="start" x="104.25" y="-7" font-family="Helvetica,sans-Serif" font-size="10.00">Update()</text>
<polygon fill="#666666" stroke="#666666" points="86.62,-85.75 86.62,-85.75 239.38,-85.75 239.38,-85.75 86.62,-85.75"/>
<polygon fill="#666666" stroke="#666666" points="86.62,-69 86.62,-69 102.25,-69 102.25,-69 86.62,-69"/>
<polygon fill="#666666" stroke="#666666" points="102.25,-69 102.25,-69 239.38,-69 239.38,-69 102.25,-69"/>
<polygon fill="none" stroke="#666666" points="86.62,0 86.62,-117.25 239.38,-117.25 239.38,0 86.62,0"/>
</a>
</g>
</g>
<!-- Node2 -->
<g id="Node000002" class="node">
<title>Node2</title>
<g id="a_Node000002"><a xlink:href="classUParticleModuleRotationBase.html" target="_top" xlink:title=" ">
<polygon fill="white" stroke="none" points="157.75,-310 4.25,-310 4.25,-255.75 157.75,-255.75 157.75,-310"/>
<text xml:space="preserve" text-anchor="start" x="8.25" y="-296.25" font-family="Helvetica,sans-Serif" font-size="10.00">UParticleModuleRotationBase</text>
<text xml:space="preserve" text-anchor="start" x="78" y="-279.5" font-family="Helvetica,sans-Serif" font-size="10.00"> </text>
<text xml:space="preserve" text-anchor="start" x="78" y="-262.75" font-family="Helvetica,sans-Serif" font-size="10.00"> </text>
<polygon fill="#666666" stroke="#666666" points="4.25,-291.25 4.25,-291.25 157.75,-291.25 157.75,-291.25 4.25,-291.25"/>
<polygon fill="#666666" stroke="#666666" points="4.25,-274.5 4.25,-274.5 157.75,-274.5 157.75,-274.5 4.25,-274.5"/>
<polygon fill="none" stroke="#666666" points="4.25,-255.75 4.25,-310 157.75,-310 157.75,-255.75 4.25,-255.75"/>
</a>
</g>
</g>
<!-- Node2&#45;&gt;Node1 -->
<g id="edge1_Node000001_Node000002" class="edge">
<title>Node2&#45;&gt;Node1</title>
<g id="a_edge1_Node000001_Node000002"><a xlink:title=" ">
<path fill="none" stroke="#63b8ff" d="M94.5,-245.3C107.36,-210.42 126.94,-157.35 141.88,-116.87"/>
<polygon fill="none" stroke="#63b8ff" points="91.27,-243.93 91.09,-254.53 97.84,-246.35 91.27,-243.93"/>
</a>
</g>
</g>
<!-- Node3 -->
<g id="Node000003" class="node">
<title>Node3</title>
<g id="a_Node000003"><a xlink:href="classUParticleModule.html" target="_top" xlink:title=" ">
<polygon fill="white" stroke="none" points="162,-929.25 0,-929.25 0,-430.75 162,-430.75 162,-929.25"/>
<text xml:space="preserve" text-anchor="start" x="40.88" y="-915.5" font-family="Helvetica,sans-Serif" font-size="10.00">UParticleModule</text>
<text xml:space="preserve" text-anchor="start" x="4" y="-898.75" font-family="Helvetica,sans-Serif" font-size="10.00">&#45;</text>
<text xml:space="preserve" text-anchor="start" x="11.75" y="-898.75" font-family="Helvetica,sans-Serif" font-size="10.00">bSpawnModule</text>
<text xml:space="preserve" text-anchor="start" x="4" y="-882" font-family="Helvetica,sans-Serif" font-size="10.00">&#45;</text>
<text xml:space="preserve" text-anchor="start" x="11.75" y="-882" font-family="Helvetica,sans-Serif" font-size="10.00">bUpdateModule</text>
<text xml:space="preserve" text-anchor="start" x="4" y="-865.25" font-family="Helvetica,sans-Serif" font-size="10.00">&#45;</text>
<text xml:space="preserve" text-anchor="start" x="11.75" y="-865.25" font-family="Helvetica,sans-Serif" font-size="10.00">bFinalUpdateModule</text>
<text xml:space="preserve" text-anchor="start" x="4" y="-848.5" font-family="Helvetica,sans-Serif" font-size="10.00">&#45;</text>
<text xml:space="preserve" text-anchor="start" x="11.75" y="-848.5" font-family="Helvetica,sans-Serif" font-size="10.00">bUpdateForGPUEmitter</text>
<text xml:space="preserve" text-anchor="start" x="4" y="-831.75" font-family="Helvetica,sans-Serif" font-size="10.00">&#45;</text>
<text xml:space="preserve" text-anchor="start" x="11.75" y="-831.75" font-family="Helvetica,sans-Serif" font-size="10.00">bCurvesAsColor</text>
<text xml:space="preserve" text-anchor="start" x="4" y="-815" font-family="Helvetica,sans-Serif" font-size="10.00">&#45;</text>
<text xml:space="preserve" text-anchor="start" x="11.75" y="-815" font-family="Helvetica,sans-Serif" font-size="10.00">b3DDrawMode</text>
<text xml:space="preserve" text-anchor="start" x="4" y="-798.25" font-family="Helvetica,sans-Serif" font-size="10.00">&#45;</text>
<text xml:space="preserve" text-anchor="start" x="11.75" y="-798.25" font-family="Helvetica,sans-Serif" font-size="10.00">bSupported3DDrawMode</text>
<text xml:space="preserve" text-anchor="start" x="4" y="-781.5" font-family="Helvetica,sans-Serif" font-size="10.00">&#45;</text>
<text xml:space="preserve" text-anchor="start" x="11.75" y="-781.5" font-family="Helvetica,sans-Serif" font-size="10.00">bEnabled</text>
<text xml:space="preserve" text-anchor="start" x="4" y="-764.75" font-family="Helvetica,sans-Serif" font-size="10.00">&#45;</text>
<text xml:space="preserve" text-anchor="start" x="11.75" y="-764.75" font-family="Helvetica,sans-Serif" font-size="10.00">bEditable</text>
<text xml:space="preserve" text-anchor="start" x="4" y="-748" font-family="Helvetica,sans-Serif" font-size="10.00">&#45;</text>
<text xml:space="preserve" text-anchor="start" x="11.75" y="-748" font-family="Helvetica,sans-Serif" font-size="10.00">LODDuplicate</text>
<text xml:space="preserve" text-anchor="start" x="4" y="-731.25" font-family="Helvetica,sans-Serif" font-size="10.00">&#45;</text>
<text xml:space="preserve" text-anchor="start" x="11.75" y="-731.25" font-family="Helvetica,sans-Serif" font-size="10.00">bSupportsRandomSeed</text>
<text xml:space="preserve" text-anchor="start" x="4" y="-714.5" font-family="Helvetica,sans-Serif" font-size="10.00">&#45;</text>
<text xml:space="preserve" text-anchor="start" x="11.75" y="-714.5" font-family="Helvetica,sans-Serif" font-size="10.00">bRequiresLoopingNotification</text>
<text xml:space="preserve" text-anchor="start" x="4" y="-697.75" font-family="Helvetica,sans-Serif" font-size="10.00">&#45;</text>
<text xml:space="preserve" text-anchor="start" x="11.75" y="-697.75" font-family="Helvetica,sans-Serif" font-size="10.00">LODValidity</text>
<text xml:space="preserve" text-anchor="start" x="4" y="-681" font-family="Helvetica,sans-Serif" font-size="10.00">&#45;</text>
<text xml:space="preserve" text-anchor="start" x="11.75" y="-681" font-family="Helvetica,sans-Serif" font-size="10.00">IsPostLoadThreadSafe()</text>
<text xml:space="preserve" text-anchor="start" x="4" y="-664.25" font-family="Helvetica,sans-Serif" font-size="10.00">&#45;</text>
<text xml:space="preserve" text-anchor="start" x="11.75" y="-664.25" font-family="Helvetica,sans-Serif" font-size="10.00">PostEditChangeProperty()</text>
<text xml:space="preserve" text-anchor="start" x="4" y="-647.5" font-family="Helvetica,sans-Serif" font-size="10.00">&#45;</text>
<text xml:space="preserve" text-anchor="start" x="11.75" y="-647.5" font-family="Helvetica,sans-Serif" font-size="10.00">CompileModule()</text>
<text xml:space="preserve" text-anchor="start" x="4" y="-630.75" font-family="Helvetica,sans-Serif" font-size="10.00">&#45;</text>
<text xml:space="preserve" text-anchor="start" x="11.75" y="-630.75" font-family="Helvetica,sans-Serif" font-size="10.00">Spawn()</text>
<text xml:space="preserve" text-anchor="start" x="4" y="-614" font-family="Helvetica,sans-Serif" font-size="10.00">&#45;</text>
<text xml:space="preserve" text-anchor="start" x="11.75" y="-614" font-family="Helvetica,sans-Serif" font-size="10.00">Update()</text>
<text xml:space="preserve" text-anchor="start" x="4" y="-597.25" font-family="Helvetica,sans-Serif" font-size="10.00">&#45;</text>
<text xml:space="preserve" text-anchor="start" x="11.75" y="-597.25" font-family="Helvetica,sans-Serif" font-size="10.00">FinalUpdate()</text>
<text xml:space="preserve" text-anchor="start" x="4" y="-580.5" font-family="Helvetica,sans-Serif" font-size="10.00">&#45;</text>
<text xml:space="preserve" text-anchor="start" x="11.75" y="-580.5" font-family="Helvetica,sans-Serif" font-size="10.00">RequiredBytes()</text>
<text xml:space="preserve" text-anchor="start" x="4" y="-563.75" font-family="Helvetica,sans-Serif" font-size="10.00">&#45;</text>
<text xml:space="preserve" text-anchor="start" x="11.75" y="-563.75" font-family="Helvetica,sans-Serif" font-size="10.00">RequiredBytesPerInstance()</text>
<text xml:space="preserve" text-anchor="start" x="4" y="-547" font-family="Helvetica,sans-Serif" font-size="10.00">&#45;</text>
<text xml:space="preserve" text-anchor="start" x="11.75" y="-547" font-family="Helvetica,sans-Serif" font-size="10.00">PrepPerInstanceBlock()</text>
<text xml:space="preserve" text-anchor="start" x="4" y="-530.25" font-family="Helvetica,sans-Serif" font-size="10.00">&#45;</text>
<text xml:space="preserve" text-anchor="start" x="11.75" y="-530.25" font-family="Helvetica,sans-Serif" font-size="10.00">SetToSensibleDefaults()</text>
<text xml:space="preserve" text-anchor="start" x="11.75" y="-513.5" font-family="Helvetica,sans-Serif" font-size="10.00">and 35 more...</text>
<text xml:space="preserve" text-anchor="start" x="4" y="-496.75" font-family="Helvetica,sans-Serif" font-size="10.00">&#45;</text>
<text xml:space="preserve" text-anchor="start" x="11.75" y="-496.75" font-family="Helvetica,sans-Serif" font-size="10.00">GetDistributionsRestricted</text>
<text xml:space="preserve" text-anchor="start" x="11.75" y="-484" font-family="Helvetica,sans-Serif" font-size="10.00">OnGPU()</text>
<text xml:space="preserve" text-anchor="start" x="4" y="-467.25" font-family="Helvetica,sans-Serif" font-size="10.00">&#45;</text>
<text xml:space="preserve" text-anchor="start" x="11.75" y="-467.25" font-family="Helvetica,sans-Serif" font-size="10.00">IsDistributionAllowedOnGPU()</text>
<text xml:space="preserve" text-anchor="start" x="4" y="-450.5" font-family="Helvetica,sans-Serif" font-size="10.00">&#45;</text>
<text xml:space="preserve" text-anchor="start" x="11.75" y="-450.5" font-family="Helvetica,sans-Serif" font-size="10.00">GetDistributionNotAllowed</text>
<text xml:space="preserve" text-anchor="start" x="11.75" y="-437.75" font-family="Helvetica,sans-Serif" font-size="10.00">OnGPUText()</text>
<polygon fill="#666666" stroke="#666666" points="0,-910.5 0,-910.5 162,-910.5 162,-910.5 0,-910.5"/>
<polygon fill="#666666" stroke="#666666" points="0,-692.75 0,-692.75 9.75,-692.75 9.75,-692.75 0,-692.75"/>
<polygon fill="#666666" stroke="#666666" points="9.75,-692.75 9.75,-692.75 162,-692.75 162,-692.75 9.75,-692.75"/>
<polygon fill="none" stroke="#666666" points="0,-430.75 0,-929.25 162,-929.25 162,-430.75 0,-430.75"/>
</a>
</g>
</g>
<!-- Node3&#45;&gt;Node2 -->
<g id="edge2_Node000002_Node000003" class="edge">
<title>Node3&#45;&gt;Node2</title>
<g id="a_edge2_Node000002_Node000003"><a xlink:title=" ">
<path fill="none" stroke="#63b8ff" d="M81,-419.5C81,-374.63 81,-334.5 81,-309.75"/>
<polygon fill="none" stroke="#63b8ff" points="77.5,-419.49 81,-429.49 84.5,-419.49 77.5,-419.49"/>
</a>
</g>
</g>
<!-- Node4 -->
<g id="Node000004" class="node">
<title>Node4</title>
<g id="a_Node000004"><a xlink:title=" ">
<polygon fill="white" stroke="none" points="104.5,-1096.88 57.5,-1096.88 57.5,-1042.62 104.5,-1042.62 104.5,-1096.88"/>
<text xml:space="preserve" text-anchor="start" x="61.5" y="-1083.12" font-family="Helvetica,sans-Serif" font-size="10.00">UObject</text>
<text xml:space="preserve" text-anchor="start" x="78" y="-1066.38" font-family="Helvetica,sans-Serif" font-size="10.00"> </text>
<text xml:space="preserve" text-anchor="start" x="78" y="-1049.62" font-family="Helvetica,sans-Serif" font-size="10.00"> </text>
<polygon fill="#666666" stroke="#666666" points="57.5,-1078.12 57.5,-1078.12 104.5,-1078.12 104.5,-1078.12 57.5,-1078.12"/>
<polygon fill="#666666" stroke="#666666" points="57.5,-1061.38 57.5,-1061.38 104.5,-1061.38 104.5,-1061.38 57.5,-1061.38"/>
<polygon fill="none" stroke="#666666" points="57.5,-1042.62 57.5,-1096.88 104.5,-1096.88 104.5,-1042.62 57.5,-1042.62"/>
</a>
</g>
</g>
<!-- Node4&#45;&gt;Node3 -->
<g id="edge3_Node000003_Node000004" class="edge">
<title>Node4&#45;&gt;Node3</title>
<g id="a_edge3_Node000003_Node000004"><a xlink:title=" ">
<path fill="none" stroke="#63b8ff" d="M81,-1031.34C81,-1005.64 81,-969.04 81,-929.1"/>
<polygon fill="none" stroke="#63b8ff" points="77.5,-1031.19 81,-1041.19 84.5,-1031.19 77.5,-1031.19"/>
</a>
</g>
</g>
<!-- Node5 -->
<g id="Node000005" class="node">
<title>Node5</title>
<g id="a_Node000005"><a xlink:href="structFRawDistributionFloat.html" target="_top" xlink:title=" ">
<polygon fill="white" stroke="none" points="318.62,-393.75 175.38,-393.75 175.38,-172 318.62,-172 318.62,-393.75"/>
<text xml:space="preserve" text-anchor="start" x="192.62" y="-380" font-family="Helvetica,sans-Serif" font-size="10.00">FRawDistributionFloat</text>
<text xml:space="preserve" text-anchor="start" x="179.38" y="-363.25" font-family="Helvetica,sans-Serif" font-size="10.00">+</text>
<text xml:space="preserve" text-anchor="start" x="191.62" y="-363.25" font-family="Helvetica,sans-Serif" font-size="10.00">Distribution</text>
<text xml:space="preserve" text-anchor="start" x="181.62" y="-346.5" font-family="Helvetica,sans-Serif" font-size="10.00">&#45;</text>
<text xml:space="preserve" text-anchor="start" x="191.62" y="-346.5" font-family="Helvetica,sans-Serif" font-size="10.00">MinValue</text>
<text xml:space="preserve" text-anchor="start" x="181.62" y="-329.75" font-family="Helvetica,sans-Serif" font-size="10.00">&#45;</text>
<text xml:space="preserve" text-anchor="start" x="191.62" y="-329.75" font-family="Helvetica,sans-Serif" font-size="10.00">MaxValue</text>
<text xml:space="preserve" text-anchor="start" x="179.38" y="-313" font-family="Helvetica,sans-Serif" font-size="10.00">+</text>
<text xml:space="preserve" text-anchor="start" x="191.62" y="-313" font-family="Helvetica,sans-Serif" font-size="10.00">FRawDistributionFloat()</text>
<text xml:space="preserve" text-anchor="start" x="179.38" y="-296.25" font-family="Helvetica,sans-Serif" font-size="10.00">+</text>
<text xml:space="preserve" text-anchor="start" x="191.62" y="-296.25" font-family="Helvetica,sans-Serif" font-size="10.00">IsCreated()</text>
<text xml:space="preserve" text-anchor="start" x="179.38" y="-279.5" font-family="Helvetica,sans-Serif" font-size="10.00">+</text>
<text xml:space="preserve" text-anchor="start" x="191.62" y="-279.5" font-family="Helvetica,sans-Serif" font-size="10.00">GetFastRawDistribution()</text>
<text xml:space="preserve" text-anchor="start" x="179.38" y="-262.75" font-family="Helvetica,sans-Serif" font-size="10.00">+</text>
<text xml:space="preserve" text-anchor="start" x="191.62" y="-262.75" font-family="Helvetica,sans-Serif" font-size="10.00">GetValue()</text>
<text xml:space="preserve" text-anchor="start" x="179.38" y="-246" font-family="Helvetica,sans-Serif" font-size="10.00">+</text>
<text xml:space="preserve" text-anchor="start" x="191.62" y="-246" font-family="Helvetica,sans-Serif" font-size="10.00">GetOutRange()</text>
<text xml:space="preserve" text-anchor="start" x="179.38" y="-229.25" font-family="Helvetica,sans-Serif" font-size="10.00">+</text>
<text xml:space="preserve" text-anchor="start" x="191.62" y="-229.25" font-family="Helvetica,sans-Serif" font-size="10.00">IsUniform()</text>
<text xml:space="preserve" text-anchor="start" x="179.38" y="-212.5" font-family="Helvetica,sans-Serif" font-size="10.00">+</text>
<text xml:space="preserve" text-anchor="start" x="191.62" y="-212.5" font-family="Helvetica,sans-Serif" font-size="10.00">InitLookupTable()</text>
<text xml:space="preserve" text-anchor="start" x="179.38" y="-195.75" font-family="Helvetica,sans-Serif" font-size="10.00">+</text>
<text xml:space="preserve" text-anchor="start" x="191.62" y="-195.75" font-family="Helvetica,sans-Serif" font-size="10.00">HasLookupTable()</text>
<text xml:space="preserve" text-anchor="start" x="179.38" y="-179" font-family="Helvetica,sans-Serif" font-size="10.00">+</text>
<text xml:space="preserve" text-anchor="start" x="191.62" y="-179" font-family="Helvetica,sans-Serif" font-size="10.00">OkForParallel()</text>
<polygon fill="#666666" stroke="#666666" points="175.38,-375 175.38,-375 318.62,-375 318.62,-375 175.38,-375"/>
<polygon fill="#666666" stroke="#666666" points="175.38,-324.75 175.38,-324.75 189.62,-324.75 189.62,-324.75 175.38,-324.75"/>
<polygon fill="#666666" stroke="#666666" points="189.62,-324.75 189.62,-324.75 318.62,-324.75 318.62,-324.75 189.62,-324.75"/>
<polygon fill="none" stroke="#666666" points="175.38,-172 175.38,-393.75 318.62,-393.75 318.62,-172 175.38,-172"/>
</a>
</g>
</g>
<!-- Node5&#45;&gt;Node1 -->
<g id="edge4_Node000001_Node000005" class="edge">
<title>Node5&#45;&gt;Node1</title>
<g id="a_edge4_Node000001_Node000005"><a xlink:title=" ">
<path fill="none" stroke="#63b8ff" d="M205.49,-172.05C199.93,-157.33 194.36,-142.59 189.16,-128.84"/>
<polygon fill="none" stroke="#63b8ff" points="189.26,-129.11 183.4,-124.91 185.02,-117.89 190.88,-122.09 189.26,-129.11"/>
</a>
</g>
<text xml:space="preserve" text-anchor="start" x="200.48" y="-141.25" font-family="Helvetica,sans-Serif" font-size="10.00" fill="grey">&#45;RotationOverLife</text>
</g>
<!-- Node6 -->
<g id="Node000006" class="node">
<title>Node6</title>
<g id="a_Node000006"><a xlink:href="structFRawDistribution.html" target="_top" xlink:title=" ">
<polygon fill="white" stroke="none" points="293,-707.12 201,-707.12 201,-652.88 293,-652.88 293,-707.12"/>
<text xml:space="preserve" text-anchor="start" x="205" y="-693.38" font-family="Helvetica,sans-Serif" font-size="10.00">FRawDistribution</text>
<text xml:space="preserve" text-anchor="start" x="244" y="-676.62" font-family="Helvetica,sans-Serif" font-size="10.00"> </text>
<text xml:space="preserve" text-anchor="start" x="244" y="-659.88" font-family="Helvetica,sans-Serif" font-size="10.00"> </text>
<polygon fill="#666666" stroke="#666666" points="201,-688.38 201,-688.38 293,-688.38 293,-688.38 201,-688.38"/>
<polygon fill="#666666" stroke="#666666" points="201,-671.62 201,-671.62 293,-671.62 293,-671.62 201,-671.62"/>
<polygon fill="none" stroke="#666666" points="201,-652.88 201,-707.12 293,-707.12 293,-652.88 201,-652.88"/>
</a>
</g>
</g>
<!-- Node6&#45;&gt;Node5 -->
<g id="edge5_Node000005_Node000006" class="edge">
<title>Node6&#45;&gt;Node5</title>
<g id="a_edge5_Node000005_Node000006"><a xlink:title=" ">
<path fill="none" stroke="#63b8ff" d="M247,-641.9C247,-585.66 247,-476.58 247,-393.53"/>
<polygon fill="none" stroke="#63b8ff" points="243.5,-641.56 247,-651.56 250.5,-641.56 243.5,-641.56"/>
</a>
</g>
</g>
<!-- Node7 -->
<g id="Node000007" class="node">
<title>Node7</title>
<g id="a_Node000007"><a xlink:href="structFDistributionLookupTable.html" target="_top" xlink:title=" ">
<polygon fill="white" stroke="none" points="312.88,-1155.5 181.12,-1155.5 181.12,-984 312.88,-984 312.88,-1155.5"/>
<text xml:space="preserve" text-anchor="start" x="185.12" y="-1141.75" font-family="Helvetica,sans-Serif" font-size="10.00">FDistributionLookupTable</text>
<text xml:space="preserve" text-anchor="start" x="195" y="-1125" font-family="Helvetica,sans-Serif" font-size="10.00">+</text>
<text xml:space="preserve" text-anchor="start" x="217.12" y="-1125" font-family="Helvetica,sans-Serif" font-size="10.00">TimeScale</text>
<text xml:space="preserve" text-anchor="start" x="195" y="-1108.25" font-family="Helvetica,sans-Serif" font-size="10.00">+</text>
<text xml:space="preserve" text-anchor="start" x="217.12" y="-1108.25" font-family="Helvetica,sans-Serif" font-size="10.00">TimeBias</text>
<text xml:space="preserve" text-anchor="start" x="195" y="-1091.5" font-family="Helvetica,sans-Serif" font-size="10.00">+</text>
<text xml:space="preserve" text-anchor="start" x="217.12" y="-1091.5" font-family="Helvetica,sans-Serif" font-size="10.00">Values</text>
<text xml:space="preserve" text-anchor="start" x="195" y="-1074.75" font-family="Helvetica,sans-Serif" font-size="10.00">+</text>
<text xml:space="preserve" text-anchor="start" x="217.12" y="-1074.75" font-family="Helvetica,sans-Serif" font-size="10.00">Op</text>
<text xml:space="preserve" text-anchor="start" x="195" y="-1058" font-family="Helvetica,sans-Serif" font-size="10.00">+</text>
<text xml:space="preserve" text-anchor="start" x="217.12" y="-1058" font-family="Helvetica,sans-Serif" font-size="10.00">EntryCount</text>
<text xml:space="preserve" text-anchor="start" x="195" y="-1041.25" font-family="Helvetica,sans-Serif" font-size="10.00">+</text>
<text xml:space="preserve" text-anchor="start" x="217.12" y="-1041.25" font-family="Helvetica,sans-Serif" font-size="10.00">EntryStride</text>
<text xml:space="preserve" text-anchor="start" x="195" y="-1024.5" font-family="Helvetica,sans-Serif" font-size="10.00">+</text>
<text xml:space="preserve" text-anchor="start" x="217.12" y="-1024.5" font-family="Helvetica,sans-Serif" font-size="10.00">SubEntryStride</text>
<text xml:space="preserve" text-anchor="start" x="195" y="-1007.75" font-family="Helvetica,sans-Serif" font-size="10.00">+</text>
<text xml:space="preserve" text-anchor="start" x="217.12" y="-1007.75" font-family="Helvetica,sans-Serif" font-size="10.00">LockFlag</text>
<text xml:space="preserve" text-anchor="start" x="244" y="-991" font-family="Helvetica,sans-Serif" font-size="10.00"> </text>
<polygon fill="#666666" stroke="#666666" points="181.12,-1136.75 181.12,-1136.75 312.88,-1136.75 312.88,-1136.75 181.12,-1136.75"/>
<polygon fill="#666666" stroke="#666666" points="181.12,-1002.75 181.12,-1002.75 215.12,-1002.75 215.12,-1002.75 181.12,-1002.75"/>
<polygon fill="#666666" stroke="#666666" points="215.12,-1002.75 215.12,-1002.75 312.88,-1002.75 312.88,-1002.75 215.12,-1002.75"/>
<polygon fill="none" stroke="#666666" points="181.12,-984 181.12,-1155.5 312.88,-1155.5 312.88,-984 181.12,-984"/>
</a>
</g>
</g>
<!-- Node7&#45;&gt;Node6 -->
<g id="edge6_Node000006_Node000007" class="edge">
<title>Node7&#45;&gt;Node6</title>
<g id="a_edge6_Node000006_Node000007"><a xlink:title=" ">
<path fill="none" stroke="#63b8ff" d="M247,-984.14C247,-902.1 247,-781.31 247,-719.91"/>
<polygon fill="none" stroke="#63b8ff" points="247,-719.94 243,-713.94 247,-707.94 251,-713.94 247,-719.94"/>
</a>
</g>
<text xml:space="preserve" text-anchor="start" x="250" y="-953.25" font-family="Helvetica,sans-Serif" font-size="10.00" fill="grey">+Table</text>
</g>
</g>
</svg>
