<?xml version="1.0" encoding="UTF-8" standalone="no"?>
<!DOCTYPE svg PUBLIC "-//W3C//DTD SVG 1.1//EN"
 "http://www.w3.org/Graphics/SVG/1.1/DTD/svg11.dtd">
<!-- Generated by graphviz version 14.1.4 (0)
 -->
<!-- Title: TRingBuffer::PopFrontValue Pages: 1 -->
<svg width="916pt" height="215pt"
 viewBox="0.00 0.00 916.00 215.00" xmlns="http://www.w3.org/2000/svg" xmlns:xlink="http://www.w3.org/1999/xlink">
<g id="graph0" class="graph" transform="scale(1 1) rotate(0) translate(4 210.75)">
<title>TRingBuffer::PopFrontValue</title>
<!-- Node1 -->
<g id="Node000001" class="node">
<title>Node1</title>
<g id="a_Node000001"><a xlink:title=" ">
<polygon fill="#999999" stroke="#666666" points="150.25,-84.75 0,-84.75 0,-64 150.25,-64 150.25,-84.75"/>
<text xml:space="preserve" text-anchor="middle" x="75.12" y="-71.25" font-family="Helvetica,sans-Serif" font-size="10.00">TRingBuffer::PopFrontValue</text>
</a>
</g>
</g>
<!-- Node2 -->
<g id="Node000002" class="node">
<title>Node2</title>
<g id="a_Node000002"><a xlink:href="$classTRingBuffer.html#a1b5dacb59a22d7b38fee858e63ed7289" xlink:title=" ">
<polygon fill="white" stroke="#666666" points="319.25,-143.75 219.25,-143.75 219.25,-123 319.25,-123 319.25,-143.75"/>
<text xml:space="preserve" text-anchor="middle" x="269.25" y="-130.25" font-family="Helvetica,sans-Serif" font-size="10.00">TRingBuffer::First</text>
</a>
</g>
</g>
<!-- Node1&#45;&gt;Node2 -->
<g id="edge1_Node000001_Node000002" class="edge">
<title>Node1&#45;&gt;Node2</title>
<g id="a_edge1_Node000001_Node000002"><a xlink:title=" ">
<path fill="none" stroke="#63b8ff" d="M103.93,-85.1C126.04,-93.42 157.87,-104.91 186.25,-113.38 193.69,-115.59 201.57,-117.75 209.39,-119.78"/>
<polygon fill="#63b8ff" stroke="#63b8ff" points="208.31,-123.12 218.87,-122.18 210.03,-116.33 208.31,-123.12"/>
</a>
</g>
</g>
<!-- Node3 -->
<g id="Node000003" class="node">
<title>Node3</title>
<g id="a_Node000003"><a xlink:href="$UnrealTemplate_8h.html#a6affb55ac4c80f005e72b931da3d3a55" xlink:title=" ">
<polygon fill="white" stroke="#666666" points="303.88,-104.75 234.62,-104.75 234.62,-84 303.88,-84 303.88,-104.75"/>
<text xml:space="preserve" text-anchor="middle" x="269.25" y="-91.25" font-family="Helvetica,sans-Serif" font-size="10.00">MoveTemp</text>
</a>
</g>
</g>
<!-- Node1&#45;&gt;Node3 -->
<g id="edge2_Node000001_Node000003" class="edge">
<title>Node1&#45;&gt;Node3</title>
<g id="a_edge2_Node000001_Node000003"><a xlink:title=" ">
<path fill="none" stroke="#63b8ff" d="M150.68,-82.14C174.98,-84.67 201.21,-87.4 222.72,-89.63"/>
<polygon fill="#63b8ff" stroke="#63b8ff" points="222.32,-93.11 232.63,-90.67 223.05,-86.15 222.32,-93.11"/>
</a>
</g>
</g>
<!-- Node4 -->
<g id="Node000004" class="node">
<title>Node4</title>
<g id="a_Node000004"><a xlink:href="$classTRingBuffer.html#a031e34e20a32b7940da154f3524a5833" xlink:title=" ">
<polygon fill="white" stroke="#666666" points="352.25,-65.75 186.25,-65.75 186.25,-45 352.25,-45 352.25,-65.75"/>
<text xml:space="preserve" text-anchor="middle" x="269.25" y="-52.25" font-family="Helvetica,sans-Serif" font-size="10.00">TRingBuffer::PopFrontNoCheck</text>
</a>
</g>
</g>
<!-- Node1&#45;&gt;Node4 -->
<g id="edge3_Node000001_Node000004" class="edge">
<title>Node1&#45;&gt;Node4</title>
<g id="a_edge3_Node000001_Node000004"><a xlink:title=" ">
<path fill="none" stroke="#63b8ff" d="M150.68,-67C158.49,-66.23 166.51,-65.44 174.5,-64.65"/>
<polygon fill="#63b8ff" stroke="#63b8ff" points="174.65,-68.15 184.26,-63.68 173.96,-61.18 174.65,-68.15"/>
</a>
</g>
</g>
<!-- Node13 -->
<g id="Node000013" class="node">
<title>Node13</title>
<g id="a_Node000013"><a xlink:href="$classTRingBuffer.html#ad220f0b3db8564d64f2e6a5eb20e8b95" xlink:title=" ">
<polygon fill="white" stroke="#666666" points="546.75,-20.75 388.25,-20.75 388.25,0 546.75,0 546.75,-20.75"/>
<text xml:space="preserve" text-anchor="middle" x="467.5" y="-7.25" font-family="Helvetica,sans-Serif" font-size="10.00">TRingBuffer::PopRangeCheck</text>
</a>
</g>
</g>
<!-- Node1&#45;&gt;Node13 -->
<g id="edge13_Node000001_Node000013" class="edge">
<title>Node1&#45;&gt;Node13</title>
<g id="a_edge13_Node000001_Node000013"><a xlink:title=" ">
<path fill="none" stroke="#63b8ff" d="M101.88,-63.51C123.88,-54.72 156.59,-42.77 186.25,-36.38 249.04,-22.84 321.23,-16.35 376.62,-13.24"/>
<polygon fill="#63b8ff" stroke="#63b8ff" points="376.51,-16.75 386.31,-12.72 376.13,-9.76 376.51,-16.75"/>
</a>
</g>
</g>
<!-- Node5 -->
<g id="Node000005" class="node">
<title>Node5</title>
<g id="a_Node000005"><a xlink:href="$classTRingBuffer.html#a7859abfc28865cfa7f653b915bb17885" xlink:title=" ">
<polygon fill="white" stroke="#666666" points="543.38,-110.75 391.62,-110.75 391.62,-90 543.38,-90 543.38,-110.75"/>
<text xml:space="preserve" text-anchor="middle" x="467.5" y="-97.25" font-family="Helvetica,sans-Serif" font-size="10.00">TRingBuffer::DestructRange</text>
</a>
</g>
</g>
<!-- Node4&#45;&gt;Node5 -->
<g id="edge4_Node000004_Node000005" class="edge">
<title>Node4&#45;&gt;Node5</title>
<g id="a_edge4_Node000004_Node000005"><a xlink:title=" ">
<path fill="none" stroke="#63b8ff" d="M317.26,-66.15C344.49,-72.4 379,-80.31 407.98,-86.96"/>
<polygon fill="#63b8ff" stroke="#63b8ff" points="407.19,-90.37 417.72,-89.19 408.76,-83.54 407.19,-90.37"/>
</a>
</g>
</g>
<!-- Node11 -->
<g id="Node000011" class="node">
<title>Node11</title>
<g id="a_Node000011"><a xlink:href="$classTRingBuffer.html#a15b4c13937861b41854ce00000ffc290" xlink:title=" ">
<polygon fill="white" stroke="#666666" points="538.12,-72.12 396.88,-72.12 396.88,-38.62 538.12,-38.62 538.12,-72.12"/>
<text xml:space="preserve" text-anchor="start" x="404.88" y="-58.62" font-family="Helvetica,sans-Serif" font-size="10.00">TRingBuffer::SlackTracker</text>
<text xml:space="preserve" text-anchor="middle" x="467.5" y="-45.88" font-family="Helvetica,sans-Serif" font-size="10.00">NumChanged</text>
</a>
</g>
</g>
<!-- Node4&#45;&gt;Node11 -->
<g id="edge11_Node000004_Node000011" class="edge">
<title>Node4&#45;&gt;Node11</title>
<g id="a_edge11_Node000004_Node000011"><a xlink:title=" ">
<path fill="none" stroke="#63b8ff" d="M352.62,-55.38C363.33,-55.38 374.3,-55.38 384.99,-55.38"/>
<polygon fill="#63b8ff" stroke="#63b8ff" points="384.95,-58.88 394.95,-55.38 384.95,-51.88 384.95,-58.88"/>
</a>
</g>
</g>
<!-- Node6 -->
<g id="Node000006" class="node">
<title>Node6</title>
<g id="a_Node000006"><a xlink:href="$MemoryOps_8h.html#a64fb83a2ca369ceca2ff056d415ec2ed" xlink:title=" ">
<polygon fill="white" stroke="#666666" points="701.12,-206.75 616.12,-206.75 616.12,-186 701.12,-186 701.12,-206.75"/>
<text xml:space="preserve" text-anchor="middle" x="658.62" y="-193.25" font-family="Helvetica,sans-Serif" font-size="10.00">DestructItems</text>
</a>
</g>
</g>
<!-- Node5&#45;&gt;Node6 -->
<g id="edge5_Node000005_Node000006" class="edge">
<title>Node5&#45;&gt;Node6</title>
<g id="a_edge5_Node000005_Node000006"><a xlink:title=" ">
<path fill="none" stroke="#63b8ff" d="M481.38,-111.01C501.71,-127.31 543.01,-158.44 582.75,-176.38 589.75,-179.54 597.36,-182.28 604.95,-184.64"/>
<polygon fill="#63b8ff" stroke="#63b8ff" points="603.95,-188 614.53,-187.4 605.89,-181.27 603.95,-188"/>
</a>
</g>
</g>
<!-- Node7 -->
<g id="Node000007" class="node">
<title>Node7</title>
<g id="a_Node000007"><a xlink:href="$classTRingBuffer.html#ad7c20110073fd9f022ec9d9b668dd565" xlink:title=" ">
<polygon fill="white" stroke="#666666" points="725.88,-149.75 591.38,-149.75 591.38,-129 725.88,-129 725.88,-149.75"/>
<text xml:space="preserve" text-anchor="middle" x="658.62" y="-136.25" font-family="Helvetica,sans-Serif" font-size="10.00">TRingBuffer::GetStorage</text>
</a>
</g>
</g>
<!-- Node5&#45;&gt;Node7 -->
<g id="edge6_Node000005_Node000007" class="edge">
<title>Node5&#45;&gt;Node7</title>
<g id="a_edge6_Node000005_Node000007"><a xlink:title=" ">
<path fill="none" stroke="#63b8ff" d="M521.18,-111.24C543.73,-115.89 570.27,-121.36 593.91,-126.24"/>
<polygon fill="#63b8ff" stroke="#63b8ff" points="592.91,-129.6 603.42,-128.2 594.33,-122.75 592.91,-129.6"/>
</a>
</g>
</g>
<!-- Node9 -->
<g id="Node000009" class="node">
<title>Node9</title>
<g id="a_Node000009"><a xlink:href="$classTRingBuffer.html#a841b0cf4b4a9b0ba7a1340fa47e50bb1" xlink:title=" ">
<polygon fill="white" stroke="#666666" points="709,-110.75 608.25,-110.75 608.25,-90 709,-90 709,-110.75"/>
<text xml:space="preserve" text-anchor="middle" x="658.62" y="-97.25" font-family="Helvetica,sans-Serif" font-size="10.00">TRingBuffer::Max</text>
</a>
</g>
</g>
<!-- Node5&#45;&gt;Node9 -->
<g id="edge9_Node000005_Node000009" class="edge">
<title>Node5&#45;&gt;Node9</title>
<g id="a_edge9_Node000005_Node000009"><a xlink:title=" ">
<path fill="none" stroke="#63b8ff" d="M543.79,-100.38C561.28,-100.38 579.69,-100.38 596.49,-100.38"/>
<polygon fill="#63b8ff" stroke="#63b8ff" points="596.32,-103.88 606.32,-100.38 596.32,-96.88 596.32,-103.88"/>
</a>
</g>
</g>
<!-- Node10 -->
<g id="Node000010" class="node">
<title>Node10</title>
<g id="a_Node000010"><a xlink:href="$classTRingBuffer.html#a4ddd780cb625faa57f3eafa584b58e6e" xlink:title=" ">
<polygon fill="white" stroke="#666666" points="734.5,-72.12 582.75,-72.12 582.75,-38.62 734.5,-38.62 734.5,-72.12"/>
<text xml:space="preserve" text-anchor="start" x="590.75" y="-58.62" font-family="Helvetica,sans-Serif" font-size="10.00">TRingBuffer::NeedsDestruct</text>
<text xml:space="preserve" text-anchor="middle" x="658.62" y="-45.88" font-family="Helvetica,sans-Serif" font-size="10.00">Elements</text>
</a>
</g>
</g>
<!-- Node5&#45;&gt;Node10 -->
<g id="edge10_Node000005_Node000010" class="edge">
<title>Node5&#45;&gt;Node10</title>
<g id="a_edge10_Node000005_Node000010"><a xlink:title=" ">
<path fill="none" stroke="#63b8ff" d="M513.8,-89.6C531.96,-85.28 553.47,-80.16 574.26,-75.21"/>
<polygon fill="#63b8ff" stroke="#63b8ff" points="574.98,-78.64 583.9,-72.92 573.36,-71.83 574.98,-78.64"/>
</a>
</g>
</g>
<!-- Node7&#45;&gt;Node7 -->
<g id="edge7_Node000007_Node000007" class="edge">
<title>Node7&#45;&gt;Node7</title>
<g id="a_edge7_Node000007_Node000007"><a xlink:title=" ">
<path fill="none" stroke="#63b8ff" d="M629.52,-150.15C617.88,-158.81 627.58,-167.75 658.62,-167.75 675.6,-167.75 686.2,-165.08 690.41,-161.24"/>
<polygon fill="#63b8ff" stroke="#63b8ff" points="693.84,-160.52 688.09,-151.62 687.03,-162.16 693.84,-160.52"/>
</a>
</g>
</g>
<!-- Node8 -->
<g id="Node000008" class="node">
<title>Node8</title>
<g id="a_Node000008"><a xlink:href="$classTRingBuffer.html#a8c285901c0c99ff13fe22f8035b51cb0" xlink:title=" ">
<polygon fill="white" stroke="#666666" points="908,-149.75 770.5,-149.75 770.5,-129 908,-129 908,-149.75"/>
<text xml:space="preserve" text-anchor="middle" x="839.25" y="-136.25" font-family="Helvetica,sans-Serif" font-size="10.00">TRingBuffer::TRingBuffer</text>
</a>
</g>
</g>
<!-- Node7&#45;&gt;Node8 -->
<g id="edge8_Node000007_Node000008" class="edge">
<title>Node7&#45;&gt;Node8</title>
<g id="a_edge8_Node000007_Node000008"><a xlink:title=" ">
<path fill="none" stroke="#63b8ff" d="M726.14,-139.38C736.81,-139.38 747.95,-139.38 758.89,-139.38"/>
<polygon fill="#63b8ff" stroke="#63b8ff" points="758.68,-142.88 768.68,-139.38 758.68,-135.88 758.68,-142.88"/>
</a>
</g>
</g>
<!-- Node12 -->
<g id="Node000012" class="node">
<title>Node12</title>
<g id="a_Node000012"><a xlink:href="$classTRingBuffer.html#a5c37b30f4de47dfe15a368ba4c353568" xlink:title=" ">
<polygon fill="white" stroke="#666666" points="710.12,-20.75 607.12,-20.75 607.12,0 710.12,0 710.12,-20.75"/>
<text xml:space="preserve" text-anchor="middle" x="658.62" y="-7.25" font-family="Helvetica,sans-Serif" font-size="10.00">TRingBuffer::Num</text>
</a>
</g>
</g>
<!-- Node11&#45;&gt;Node12 -->
<g id="edge12_Node000011_Node000012" class="edge">
<title>Node11&#45;&gt;Node12</title>
<g id="a_edge12_Node000011_Node000012"><a xlink:title=" ">
<path fill="none" stroke="#63b8ff" d="M538.39,-38.75C559.06,-33.83 581.44,-28.5 601.15,-23.81"/>
<polygon fill="#63b8ff" stroke="#63b8ff" points="601.73,-27.27 610.64,-21.55 600.11,-20.46 601.73,-27.27"/>
</a>
</g>
</g>
<!-- Node13&#45;&gt;Node12 -->
<g id="edge14_Node000013_Node000012" class="edge">
<title>Node13&#45;&gt;Node12</title>
<g id="a_edge14_Node000013_Node000012"><a xlink:title=" ">
<path fill="none" stroke="#63b8ff" d="M547.06,-10.38C563.16,-10.38 579.89,-10.38 595.32,-10.38"/>
<polygon fill="#63b8ff" stroke="#63b8ff" points="595.32,-13.88 605.32,-10.38 595.32,-6.88 595.32,-13.88"/>
</a>
</g>
</g>
</g>
</svg>
