<?xml version="1.0" encoding="UTF-8" standalone="no"?>
<!DOCTYPE svg PUBLIC "-//W3C//DTD SVG 1.1//EN"
 "http://www.w3.org/Graphics/SVG/1.1/DTD/svg11.dtd">
<!-- Generated by graphviz version 14.1.4 (0)
 -->
<!-- Title: ACharacter::ServerMove_Validate Pages: 1 -->
<!--zoomable 145 -->

<svg id="main" version="1.1" xmlns="http://www.w3.org/2000/svg" xmlns:xlink="http://www.w3.org/1999/xlink" xml:space="preserve" onload="init(evt)">

<style type="text/css"><![CDATA[
.node, .edge {opacity: 0.7;}
.node.selected, .edge.selected {opacity: 1;}
.edge:hover path { stroke: red; }
.edge:hover polygon { stroke: red; fill: red; }
]]></style>

<defs>
  <circle id="rim" cx="0" cy="0" r="7"/>
  <circle id="rim2" cx="0" cy="0" r="3.5"/>
  <g id="zoomPlus">
    <use xlink:href="#rim" fill="#404040"><set attributeName="fill" to="#808080" begin="zoomplus.mouseover" end="zoomplus.mouseout"/></use>
    <path d="M-4,0h8M0,-4v8" fill="none" stroke="white" stroke-width="1.5" pointer-events="none"/>
  </g>
  <g id="zoomMin">
    <use xlink:href="#rim" fill="#404040"><set attributeName="fill" to="#808080" begin="zoomminus.mouseover" end="zoomminus.mouseout"/></use>
    <path d="M-4,0h8" fill="none" stroke="white" stroke-width="1.5" pointer-events="none"/>
  </g>
  <g id="arrowUp" transform="translate(30 24)">
    <use xlink:href="#rim"/>
    <path pointer-events="none" fill="none" stroke="white" stroke-width="1.5" d="M0,-3.0v7 M-2.5,-0.5L0,-3.0L2.5,-0.5"/>
  </g>
  <g id="arrowRight" transform="rotate(90) translate(36 -43)">
    <use xlink:href="#rim"/>
    <path pointer-events="none" fill="none" stroke="white" stroke-width="1.5" d="M0,-3.0v7 M-2.5,-0.5L0,-3.0L2.5,-0.5"/>
  </g>
  <g id="arrowDown" transform="rotate(180) translate(-30 -48)">
    <use xlink:href="#rim"/>
    <path pointer-events="none" fill="none" stroke="white" stroke-width="1.5" d="M0,-3.0v7 M-2.5,-0.5L0,-3.0L2.5,-0.5"/>
  </g>
  <g id="arrowLeft" transform="rotate(270) translate(-36 17)">
    <use xlink:href="#rim"/>
    <path pointer-events="none" fill="none" stroke="white" stroke-width="1.5" d="M0,-3.0v7 M-2.5,-0.5L0,-3.0L2.5,-0.5"/>
  </g>
  <g id="resetDef">
    <use xlink:href="#rim2" fill="#404040"><set attributeName="fill" to="#808080" begin="reset.mouseover" end="reset.mouseout"/></use>
  </g>
</defs>
<script type="application/ecmascript">
var viewWidth = 556;
var viewHeight = 145;
var sectionId = 'dynsection-193';
</script>
<script type="application/ecmascript" xlink:href="svg.min.js"/>
<svg id="graph" class="graph">
<g id="viewport">
<title>ACharacter::ServerMove_Validate</title>
<!-- Node1 -->
<g id="Node000001" class="node">
<title>Node1</title>
<g id="a_Node000001"><a xlink:title=" ">
<polygon fill="#999999" stroke="#666666" points="134.5,-55.12 0,-55.12 0,-21.62 134.5,-21.62 134.5,-55.12"/>
<text xml:space="preserve" text-anchor="start" x="8" y="-41.62" font-family="Helvetica,sans-Serif" font-size="10.00">ACharacter::ServerMove</text>
<text xml:space="preserve" text-anchor="middle" x="67.25" y="-28.88" font-family="Helvetica,sans-Serif" font-size="10.00">_Validate</text>
</a>
</g>
</g>
<!-- Node1&#45;&gt;Node1 -->
<g id="edge1_Node000001_Node000001" class="edge">
<title>Node1&#45;&gt;Node1</title>
<g id="a_edge1_Node000001_Node000001"><a xlink:title=" ">
<path fill="none" stroke="#63b8ff" d="M33.23,-55.54C27.45,-64.74 38.79,-73.12 67.25,-73.12 83.26,-73.12 93.85,-70.47 99.03,-66.51"/>
<polygon fill="#63b8ff" stroke="#63b8ff" points="102.39,-67.52 100.97,-57.02 95.54,-66.12 102.39,-67.52"/>
</a>
</g>
</g>
<!-- Node2 -->
<g id="Node000002" class="node">
<title>Node2</title>
<g id="a_Node000002"><a xlink:href="classACharacter.html#a130d49a73eedf70a0483f63b3ff97b31" target="_top" xlink:title=" ">
<polygon fill="white" stroke="#666666" points="342.5,-77.75 170.5,-77.75 170.5,-57 342.5,-57 342.5,-77.75"/>
<text xml:space="preserve" text-anchor="middle" x="256.5" y="-64.25" font-family="Helvetica,sans-Serif" font-size="10.00">ACharacter::ServerMoveNoBase</text>
</a>
</g>
</g>
<!-- Node1&#45;&gt;Node2 -->
<g id="edge2_Node000001_Node000002" class="edge">
<title>Node1&#45;&gt;Node2</title>
<g id="a_edge2_Node000001_Node000002"><a xlink:title=" ">
<path fill="none" stroke="#63b8ff" d="M134.79,-48.68C147.61,-50.67 161.16,-52.76 174.37,-54.81"/>
<polygon fill="#63b8ff" stroke="#63b8ff" points="173.45,-58.21 183.87,-56.28 174.52,-51.29 173.45,-58.21"/>
</a>
</g>
</g>
<!-- Node5 -->
<g id="Node000005" class="node">
<title>Node5</title>
<g id="a_Node000005"><a xlink:href="classACharacter.html#a3286bceb602d2f7f819a0babead70913" target="_top" xlink:title=" ">
<polygon fill="white" stroke="#666666" points="341,-20.75 172,-20.75 172,0 341,0 341,-20.75"/>
<text xml:space="preserve" text-anchor="middle" x="256.5" y="-7.25" font-family="Helvetica,sans-Serif" font-size="10.00">ACharacter::ServerMovePacked</text>
</a>
</g>
</g>
<!-- Node1&#45;&gt;Node5 -->
<g id="edge8_Node000001_Node000005" class="edge">
<title>Node1&#45;&gt;Node5</title>
<g id="a_edge8_Node000001_Node000005"><a xlink:title=" ">
<path fill="none" stroke="#63b8ff" d="M134.79,-28.42C146.71,-26.64 159.26,-24.77 171.58,-22.92"/>
<polygon fill="#63b8ff" stroke="#63b8ff" points="171.94,-26.41 181.31,-21.47 170.91,-19.49 171.94,-26.41"/>
</a>
</g>
</g>
<!-- Node2&#45;&gt;Node2 -->
<g id="edge3_Node000002_Node000002" class="edge">
<title>Node2&#45;&gt;Node2</title>
<g id="a_edge3_Node000002_Node000002"><a xlink:title=" ">
<path fill="none" stroke="#63b8ff" d="M226.01,-78.15C213.81,-86.81 223.97,-95.75 256.5,-95.75 274.29,-95.75 285.39,-93.08 289.8,-89.24"/>
<polygon fill="#63b8ff" stroke="#63b8ff" points="293.21,-88.45 287.37,-79.61 286.43,-90.17 293.21,-88.45"/>
</a>
</g>
</g>
<!-- Node3 -->
<g id="Node000003" class="node">
<title>Node3</title>
<g id="a_Node000003"><a xlink:href="classACharacter.html#a29255a9b8e52fb903c8d143f03e6276a" target="_top" xlink:title=" ">
<polygon fill="white" stroke="#666666" points="537,-119.12 389,-119.12 389,-85.62 537,-85.62 537,-119.12"/>
<text xml:space="preserve" text-anchor="start" x="397" y="-105.62" font-family="Helvetica,sans-Serif" font-size="10.00">ACharacter::ServerMoveNo</text>
<text xml:space="preserve" text-anchor="middle" x="463" y="-92.88" font-family="Helvetica,sans-Serif" font-size="10.00">Base_Implementation</text>
</a>
</g>
</g>
<!-- Node2&#45;&gt;Node3 -->
<g id="edge4_Node000002_Node000003" class="edge">
<title>Node2&#45;&gt;Node3</title>
<g id="a_edge4_Node000002_Node000003"><a xlink:title=" ">
<path fill="none" stroke="#63b8ff" d="M320.8,-78.21C338.67,-81.27 358.39,-84.64 377.29,-87.88"/>
<polygon fill="#63b8ff" stroke="#63b8ff" points="376.68,-91.32 387.12,-89.56 377.86,-84.42 376.68,-91.32"/>
</a>
</g>
</g>
<!-- Node4 -->
<g id="Node000004" class="node">
<title>Node4</title>
<g id="a_Node000004"><a xlink:href="classACharacter.html#afa6128b4870685d0a622862a9b053b71" target="_top" xlink:title=" ">
<polygon fill="white" stroke="#666666" points="547.5,-49.12 378.5,-49.12 378.5,-15.62 547.5,-15.62 547.5,-49.12"/>
<text xml:space="preserve" text-anchor="start" x="386.5" y="-35.62" font-family="Helvetica,sans-Serif" font-size="10.00">ACharacter::ServerMovePacked</text>
<text xml:space="preserve" text-anchor="middle" x="463" y="-22.88" font-family="Helvetica,sans-Serif" font-size="10.00">_Implementation</text>
</a>
</g>
</g>
<!-- Node2&#45;&gt;Node4 -->
<g id="edge6_Node000002_Node000004" class="edge">
<title>Node2&#45;&gt;Node4</title>
<g id="a_edge6_Node000002_Node000004"><a xlink:title=" ">
<path fill="none" stroke="#63b8ff" d="M320.8,-56.54C335.44,-54.04 351.32,-51.32 366.97,-48.64"/>
<polygon fill="#63b8ff" stroke="#63b8ff" points="367.55,-52.09 376.82,-46.95 366.37,-45.19 367.55,-52.09"/>
</a>
</g>
</g>
<!-- Node3&#45;&gt;Node3 -->
<g id="edge5_Node000003_Node000003" class="edge">
<title>Node3&#45;&gt;Node3</title>
<g id="a_edge5_Node000003_Node000003"><a xlink:title=" ">
<path fill="none" stroke="#63b8ff" d="M425.88,-119.54C419.57,-128.74 431.94,-137.12 463,-137.12 480.23,-137.12 491.7,-134.55 497.43,-130.68"/>
<polygon fill="#63b8ff" stroke="#63b8ff" points="500.82,-131.55 499.77,-121.01 494.02,-129.91 500.82,-131.55"/>
</a>
</g>
</g>
<!-- Node4&#45;&gt;Node4 -->
<g id="edge7_Node000004_Node000004" class="edge">
<title>Node4&#45;&gt;Node4</title>
<g id="a_edge7_Node000004_Node000004"><a xlink:title=" ">
<path fill="none" stroke="#63b8ff" d="M425.88,-49.54C419.57,-58.74 431.94,-67.12 463,-67.12 480.23,-67.12 491.7,-64.55 497.43,-60.68"/>
<polygon fill="#63b8ff" stroke="#63b8ff" points="500.82,-61.55 499.77,-51.01 494.02,-59.91 500.82,-61.55"/>
</a>
</g>
</g>
<!-- Node5&#45;&gt;Node5 -->
<g id="edge9_Node000005_Node000005" class="edge">
<title>Node5&#45;&gt;Node5</title>
<g id="a_edge9_Node000005_Node000005"><a xlink:title=" ">
<path fill="none" stroke="#63b8ff" d="M226.01,-21.15C213.81,-29.81 223.97,-38.75 256.5,-38.75 274.29,-38.75 285.39,-36.08 289.8,-32.24"/>
<polygon fill="#63b8ff" stroke="#63b8ff" points="293.21,-31.45 287.37,-22.61 286.43,-33.17 293.21,-31.45"/>
</a>
</g>
</g>
</g>
</svg>

<g id="navigator" transform="translate(0 0)" fill="#404254">
  <rect fill="#f2f5e9" fill-opacity="0.5" stroke="#606060" stroke-width=".5" x="0" y="0" width="60" height="60"/>
  <use id="zoomplus" xlink:href="#zoomPlus" x="17" y="9" onmousedown="handleZoom(evt,'in')"/>
  <use id="zoomminus" xlink:href="#zoomMin" x="42" y="9" onmousedown="handleZoom(evt,'out')"/>
  <use id="reset" xlink:href="#resetDef" x="30" y="36" onmousedown="handleReset()"/>
   <use id="arrowup" xlink:href="#arrowUp" x="0" y="0" onmousedown="handlePan(0,-1)"/>
  <use id="arrowright" xlink:href="#arrowRight" x="0" y="0" onmousedown="handlePan(1,0)"/>
  <use id="arrowdown" xlink:href="#arrowDown" x="0" y="0" onmousedown="handlePan(0,1)"/>
  <use id="arrowleft" xlink:href="#arrowLeft" x="0" y="0" onmousedown="handlePan(-1,0)"/>
</g>
<svg viewBox="0 0 15 15" width="100%" height="30px" preserveAspectRatio="xMaxYMin meet">
 <g id="arrow_out" transform="scale(0.3 0.3)">
  <a xlink:href="classACharacter_a935474142032e990c52d31b5f94bac28_cgraph_org.svg" target="_base">
   <rect id="button" ry="5" rx="5" y="6" x="6" height="38" width="38"
        fill="#f2f5e9" fill-opacity="0.5" stroke="#606060" stroke-width="1.0"/>
   <path id="arrow"
     d="M 11.500037,31.436501 C 11.940474,20.09759 22.043105,11.32322 32.158766,21.979434 L 37.068811,17.246167 C 37.068811,17.246167 37.088388,32 37.088388,32 L 22.160133,31.978069 C 22.160133,31.978069 26.997745,27.140456 26.997745,27.140456 C 18.528582,18.264221 13.291696,25.230495 11.500037,31.436501 z"
     style="fill:#404040;"/>
  </a>
 </g>
</svg>

<style type='text/css'>
<![CDATA[
[data-mouse-over-selected='false'] { opacity: 0.7; }
[data-mouse-over-selected='true']  { opacity: 1.0; }
]]>
</style>
<script type="application/ecmascript"><![CDATA[
document.addEventListener('DOMContentLoaded', (event) => {
  highlightEdges();
  highlightAdjacentNodes();
});
]]></script>
</svg>
