<?xml version="1.0" encoding="UTF-8" standalone="no"?>
<!DOCTYPE svg PUBLIC "-//W3C//DTD SVG 1.1//EN"
 "http://www.w3.org/Graphics/SVG/1.1/DTD/svg11.dtd">
<!-- Generated by graphviz version 14.1.4 (0)
 -->
<!-- Title: TRingBuffer::operator[] Pages: 1 -->
<svg width="665pt" height="92pt"
 viewBox="0.00 0.00 665.00 92.00" xmlns="http://www.w3.org/2000/svg" xmlns:xlink="http://www.w3.org/1999/xlink">
<g id="graph0" class="graph" transform="scale(1 1) rotate(0) translate(4 87.75)">
<title>TRingBuffer::operator[]</title>
<!-- Node1 -->
<g id="Node000001" class="node">
<title>Node1</title>
<g id="a_Node000001"><a xlink:title=" ">
<polygon fill="#999999" stroke="#666666" points="128.5,-42.75 0,-42.75 0,-22 128.5,-22 128.5,-42.75"/>
<text xml:space="preserve" text-anchor="middle" x="64.25" y="-29.25" font-family="Helvetica,sans-Serif" font-size="10.00">TRingBuffer::operator[]</text>
</a>
</g>
</g>
<!-- Node2 -->
<g id="Node000002" class="node">
<title>Node2</title>
<g id="a_Node000002"><a xlink:href="$classTRingBuffer.html#ac69e19bfd838e063c4ea5aab67cdb61d" xlink:title=" ">
<polygon fill="white" stroke="#666666" points="312.5,-72.12 164.5,-72.12 164.5,-38.62 312.5,-38.62 312.5,-72.12"/>
<text xml:space="preserve" text-anchor="start" x="172.5" y="-58.62" font-family="Helvetica,sans-Serif" font-size="10.00">TRingBuffer::GetAtIndexNo</text>
<text xml:space="preserve" text-anchor="middle" x="238.5" y="-45.88" font-family="Helvetica,sans-Serif" font-size="10.00">Check</text>
</a>
</g>
</g>
<!-- Node1&#45;&gt;Node2 -->
<g id="edge1_Node000001_Node000002" class="edge">
<title>Node1&#45;&gt;Node2</title>
<g id="a_edge1_Node000001_Node000002"><a xlink:title=" ">
<path fill="none" stroke="#63b8ff" d="M128.9,-40.87C136.72,-41.92 144.8,-43 152.86,-44.07"/>
<polygon fill="#63b8ff" stroke="#63b8ff" points="152.35,-47.54 162.72,-45.39 153.28,-40.6 152.35,-47.54"/>
</a>
</g>
</g>
<!-- Node5 -->
<g id="Node000005" class="node">
<title>Node5</title>
<g id="a_Node000005"><a xlink:href="$classTRingBuffer.html#a060645f3b6aae194f9e8a558aff8d7f1" xlink:title=" ">
<polygon fill="white" stroke="#666666" points="308.75,-20.75 168.25,-20.75 168.25,0 308.75,0 308.75,-20.75"/>
<text xml:space="preserve" text-anchor="middle" x="238.5" y="-7.25" font-family="Helvetica,sans-Serif" font-size="10.00">TRingBuffer::RangeCheck</text>
</a>
</g>
</g>
<!-- Node1&#45;&gt;Node5 -->
<g id="edge5_Node000001_Node000005" class="edge">
<title>Node1&#45;&gt;Node5</title>
<g id="a_edge5_Node000001_Node000005"><a xlink:title=" ">
<path fill="none" stroke="#63b8ff" d="M128.9,-24.25C137.96,-23.09 147.38,-21.89 156.71,-20.69"/>
<polygon fill="#63b8ff" stroke="#63b8ff" points="157.05,-24.18 166.53,-19.44 156.17,-17.23 157.05,-24.18"/>
</a>
</g>
</g>
<!-- Node3 -->
<g id="Node000003" class="node">
<title>Node3</title>
<g id="a_Node000003"><a xlink:href="$classTRingBuffer.html#ad7c20110073fd9f022ec9d9b668dd565" xlink:title=" ">
<polygon fill="white" stroke="#666666" points="483,-65.75 348.5,-65.75 348.5,-45 483,-45 483,-65.75"/>
<text xml:space="preserve" text-anchor="middle" x="415.75" y="-52.25" font-family="Helvetica,sans-Serif" font-size="10.00">TRingBuffer::GetStorage</text>
</a>
</g>
</g>
<!-- Node2&#45;&gt;Node3 -->
<g id="edge2_Node000002_Node000003" class="edge">
<title>Node2&#45;&gt;Node3</title>
<g id="a_edge2_Node000002_Node000003"><a xlink:title=" ">
<path fill="none" stroke="#63b8ff" d="M312.81,-55.38C320.68,-55.38 328.72,-55.38 336.65,-55.38"/>
<polygon fill="#63b8ff" stroke="#63b8ff" points="336.65,-58.88 346.65,-55.38 336.65,-51.88 336.65,-58.88"/>
</a>
</g>
</g>
<!-- Node3&#45;&gt;Node3 -->
<g id="edge3_Node000003_Node000003" class="edge">
<title>Node3&#45;&gt;Node3</title>
<g id="a_edge3_Node000003_Node000003"><a xlink:title=" ">
<path fill="none" stroke="#63b8ff" d="M388.04,-66.15C376.95,-74.81 386.19,-83.75 415.75,-83.75 431.92,-83.75 442.01,-81.08 446.02,-77.24"/>
<polygon fill="#63b8ff" stroke="#63b8ff" points="449.46,-76.58 443.8,-67.62 442.64,-78.15 449.46,-76.58"/>
</a>
</g>
</g>
<!-- Node4 -->
<g id="Node000004" class="node">
<title>Node4</title>
<g id="a_Node000004"><a xlink:href="$classTRingBuffer.html#a8c285901c0c99ff13fe22f8035b51cb0" xlink:title=" ">
<polygon fill="white" stroke="#666666" points="656.5,-65.75 519,-65.75 519,-45 656.5,-45 656.5,-65.75"/>
<text xml:space="preserve" text-anchor="middle" x="587.75" y="-52.25" font-family="Helvetica,sans-Serif" font-size="10.00">TRingBuffer::TRingBuffer</text>
</a>
</g>
</g>
<!-- Node3&#45;&gt;Node4 -->
<g id="edge4_Node000003_Node000004" class="edge">
<title>Node3&#45;&gt;Node4</title>
<g id="a_edge4_Node000003_Node000004"><a xlink:title=" ">
<path fill="none" stroke="#63b8ff" d="M483.45,-55.38C491.2,-55.38 499.16,-55.38 507.06,-55.38"/>
<polygon fill="#63b8ff" stroke="#63b8ff" points="507.05,-58.88 517.05,-55.38 507.05,-51.88 507.05,-58.88"/>
</a>
</g>
</g>
<!-- Node6 -->
<g id="Node000006" class="node">
<title>Node6</title>
<g id="a_Node000006"><a xlink:href="$classTRingBuffer.html#a5c37b30f4de47dfe15a368ba4c353568" xlink:title=" ">
<polygon fill="white" stroke="#666666" points="467.25,-20.75 364.25,-20.75 364.25,0 467.25,0 467.25,-20.75"/>
<text xml:space="preserve" text-anchor="middle" x="415.75" y="-7.25" font-family="Helvetica,sans-Serif" font-size="10.00">TRingBuffer::Num</text>
</a>
</g>
</g>
<!-- Node5&#45;&gt;Node6 -->
<g id="edge6_Node000005_Node000006" class="edge">
<title>Node5&#45;&gt;Node6</title>
<g id="a_edge6_Node000005_Node000006"><a xlink:title=" ">
<path fill="none" stroke="#63b8ff" d="M309.02,-10.38C323.49,-10.38 338.66,-10.38 352.84,-10.38"/>
<polygon fill="#63b8ff" stroke="#63b8ff" points="352.46,-13.88 362.46,-10.38 352.46,-6.88 352.46,-13.88"/>
</a>
</g>
</g>
</g>
</svg>
