<?xml version="1.0" encoding="UTF-8" standalone="no"?>
<!DOCTYPE svg PUBLIC "-//W3C//DTD SVG 1.1//EN"
 "http://www.w3.org/Graphics/SVG/1.1/DTD/svg11.dtd">
<!-- Generated by graphviz version 14.1.4 (0)
 -->
<!-- Title: UActorComponent::GetActorOwnerNoninline Pages: 1 -->
<svg width="554pt" height="150pt"
 viewBox="0.00 0.00 554.00 150.00" xmlns="http://www.w3.org/2000/svg" xmlns:xlink="http://www.w3.org/1999/xlink">
<g id="graph0" class="graph" transform="scale(1 1) rotate(0) translate(4 145.5)">
<title>UActorComponent::GetActorOwnerNoninline</title>
<!-- Node1 -->
<g id="Node000001" class="node">
<title>Node1</title>
<g id="a_Node000001"><a xlink:title=" ">
<polygon fill="#999999" stroke="#666666" points="546,-96.5 392,-96.5 392,-63 546,-63 546,-96.5"/>
<text xml:space="preserve" text-anchor="start" x="400" y="-83" font-family="Helvetica,sans-Serif" font-size="10.00">UActorComponent::GetActor</text>
<text xml:space="preserve" text-anchor="middle" x="469" y="-70.25" font-family="Helvetica,sans-Serif" font-size="10.00">OwnerNoninline</text>
</a>
</g>
</g>
<!-- Node1&#45;&gt;Node1 -->
<g id="edge1_Node000001_Node000001" class="edge">
<title>Node1&#45;&gt;Node1</title>
<g id="a_edge1_Node000001_Node000001"><a xlink:title=" ">
<path fill="none" stroke="#63b8ff" d="M501.41,-107.89C496.13,-111.85 485.33,-114.5 469,-114.5 439.97,-114.5 428.41,-106.12 434.31,-96.91"/>
<polygon fill="#63b8ff" stroke="#63b8ff" points="504.77,-108.9 503.39,-98.4 497.92,-107.47 504.77,-108.9"/>
</a>
</g>
</g>
<!-- Node2 -->
<g id="Node000002" class="node">
<title>Node2</title>
<g id="a_Node000002"><a xlink:href="classUActorComponent.html#aa2de9b4850c21c6f61df609bd3a7416c" target="_top" xlink:title=" ">
<polygon fill="white" stroke="#666666" points="356,-90.12 196,-90.12 196,-69.38 356,-69.38 356,-90.12"/>
<text xml:space="preserve" text-anchor="middle" x="276" y="-76.62" font-family="Helvetica,sans-Serif" font-size="10.00">UActorComponent::GetOwner</text>
</a>
</g>
</g>
<!-- Node1&#45;&gt;Node2 -->
<g id="edge2_Node000001_Node000002" class="edge">
<title>Node1&#45;&gt;Node2</title>
<g id="a_edge2_Node000001_Node000002"><a xlink:title=" ">
<path fill="none" stroke="#63b8ff" d="M380.41,-73.02C372.38,-72.98 364.27,-73 356.32,-73.09"/>
<polygon fill="#63b8ff" stroke="#63b8ff" points="380.14,-76.52 390.17,-73.11 380.21,-69.52 380.14,-76.52"/>
</a>
</g>
</g>
<!-- Node2&#45;&gt;Node1 -->
<g id="edge4_Node000002_Node000001" class="edge">
<title>Node2&#45;&gt;Node1</title>
<g id="a_edge4_Node000002_Node000001"><a xlink:title=" ">
<path fill="none" stroke="#63b8ff" d="M367.64,-86.49C375.69,-86.52 383.78,-86.48 391.69,-86.38"/>
<polygon fill="#63b8ff" stroke="#63b8ff" points="367.85,-82.99 357.83,-86.42 367.8,-89.99 367.85,-82.99"/>
</a>
</g>
</g>
<!-- Node3 -->
<g id="Node000003" class="node">
<title>Node3</title>
<g id="a_Node000003"><a xlink:href="classUNavMovementComponent.html#a6e35352cf4b33cd52d2377be7d1664f6" target="_top" xlink:title=" ">
<polygon fill="white" stroke="#666666" points="155.88,-141.5 4.12,-141.5 4.12,-108 155.88,-108 155.88,-141.5"/>
<text xml:space="preserve" text-anchor="start" x="12.12" y="-128" font-family="Helvetica,sans-Serif" font-size="10.00">UNavMovementComponent</text>
<text xml:space="preserve" text-anchor="middle" x="80" y="-115.25" font-family="Helvetica,sans-Serif" font-size="10.00">::GetActorNavLocation</text>
</a>
</g>
</g>
<!-- Node2&#45;&gt;Node3 -->
<g id="edge3_Node000002_Node000003" class="edge">
<title>Node2&#45;&gt;Node3</title>
<g id="a_edge3_Node000002_Node000003"><a xlink:title=" ">
<path fill="none" stroke="#63b8ff" d="M217.36,-93.12C197.83,-97.65 175.74,-102.77 155.12,-107.56"/>
<polygon fill="#63b8ff" stroke="#63b8ff" points="218.11,-96.54 227.06,-90.87 216.53,-89.72 218.11,-96.54"/>
</a>
</g>
</g>
<!-- Node4 -->
<g id="Node000004" class="node">
<title>Node4</title>
<g id="a_Node000004"><a xlink:href="classUActorComponent.html#aa236a9b5dbc4b69af8484c0c623fa655" target="_top" xlink:title=" ">
<polygon fill="white" stroke="#666666" points="160,-90.12 0,-90.12 0,-69.38 160,-69.38 160,-90.12"/>
<text xml:space="preserve" text-anchor="middle" x="80" y="-76.62" font-family="Helvetica,sans-Serif" font-size="10.00">UActorComponent::GetOwner</text>
</a>
</g>
</g>
<!-- Node2&#45;&gt;Node4 -->
<g id="edge5_Node000002_Node000004" class="edge">
<title>Node2&#45;&gt;Node4</title>
<g id="a_edge5_Node000002_Node000004"><a xlink:title=" ">
<path fill="none" stroke="#63b8ff" d="M184.29,-79.75C176.29,-79.75 168.24,-79.75 160.34,-79.75"/>
<polygon fill="#63b8ff" stroke="#63b8ff" points="184.02,-83.25 194.02,-79.75 184.02,-76.25 184.02,-83.25"/>
</a>
</g>
</g>
<!-- Node5 -->
<g id="Node000005" class="node">
<title>Node5</title>
<g id="a_Node000005"><a xlink:href="classUNavMovementComponent.html#aea755f7f95bf9f1d0c5cb8cdab81d344" target="_top" xlink:title=" ">
<polygon fill="white" stroke="#666666" points="155.88,-33.5 4.12,-33.5 4.12,0 155.88,0 155.88,-33.5"/>
<text xml:space="preserve" text-anchor="start" x="12.12" y="-20" font-family="Helvetica,sans-Serif" font-size="10.00">UNavMovementComponent</text>
<text xml:space="preserve" text-anchor="middle" x="80" y="-7.25" font-family="Helvetica,sans-Serif" font-size="10.00">::GetOwnerAsObject</text>
</a>
</g>
</g>
<!-- Node2&#45;&gt;Node5 -->
<g id="edge6_Node000002_Node000005" class="edge">
<title>Node2&#45;&gt;Node5</title>
<g id="a_edge6_Node000002_Node000005"><a xlink:title=" ">
<path fill="none" stroke="#63b8ff" d="M230.71,-65.37C201.96,-56.03 164.34,-43.81 134,-33.96"/>
<polygon fill="#63b8ff" stroke="#63b8ff" points="229.62,-68.69 240.21,-68.45 231.78,-62.03 229.62,-68.69"/>
</a>
</g>
</g>
<!-- Node5&#45;&gt;Node5 -->
<g id="edge7_Node000005_Node000005" class="edge">
<title>Node5&#45;&gt;Node5</title>
<g id="a_edge7_Node000005_Node000005"><a xlink:title=" ">
<path fill="none" stroke="#63b8ff" d="M112.91,-44.89C107.55,-48.85 96.58,-51.5 80,-51.5 50.52,-51.5 38.78,-43.12 44.77,-33.91"/>
<polygon fill="#63b8ff" stroke="#63b8ff" points="116.27,-45.9 114.92,-35.4 109.42,-44.45 116.27,-45.9"/>
</a>
</g>
</g>
</g>
</svg>
