<?xml version="1.0" encoding="UTF-8" standalone="no"?>
<!DOCTYPE svg PUBLIC "-//W3C//DTD SVG 1.1//EN"
 "http://www.w3.org/Graphics/SVG/1.1/DTD/svg11.dtd">
<!-- Generated by graphviz version 14.1.4 (0)
 -->
<!-- Title: ACharacter::ClientAckGoodMove_Implementation Pages: 1 -->
<svg width="1726pt" height="268pt"
 viewBox="0.00 0.00 1726.00 268.00" xmlns="http://www.w3.org/2000/svg" xmlns:xlink="http://www.w3.org/1999/xlink">
<g id="graph0" class="graph" transform="scale(1 1) rotate(0) translate(4 264)">
<title>ACharacter::ClientAckGoodMove_Implementation</title>
<!-- Node1 -->
<g id="Node000001" class="node">
<title>Node1</title>
<g id="a_Node000001"><a xlink:title=" ">
<polygon fill="#999999" stroke="#666666" points="148,-38.75 0,-38.75 0,-5.25 148,-5.25 148,-38.75"/>
<text xml:space="preserve" text-anchor="start" x="8" y="-25.25" font-family="Helvetica,sans-Serif" font-size="10.00">ACharacter::ClientAckGood</text>
<text xml:space="preserve" text-anchor="middle" x="74" y="-12.5" font-family="Helvetica,sans-Serif" font-size="10.00">Move_Implementation</text>
</a>
</g>
</g>
<!-- Node1&#45;&gt;Node1 -->
<g id="edge1_Node000001_Node000001" class="edge">
<title>Node1&#45;&gt;Node1</title>
<g id="a_edge1_Node000001_Node000001"><a xlink:title=" ">
<path fill="none" stroke="#63b8ff" d="M42.07,-39.16C36.64,-48.37 47.29,-56.75 74,-56.75 89.03,-56.75 98.97,-54.1 103.82,-50.14"/>
<polygon fill="#63b8ff" stroke="#63b8ff" points="107.2,-51.13 105.65,-40.65 100.32,-49.81 107.2,-51.13"/>
</a>
</g>
</g>
<!-- Node2 -->
<g id="Node000002" class="node">
<title>Node2</title>
<g id="a_Node000002"><a xlink:href="classACharacter.html#ad8748e564ceaf296793b192f5d337f15" target="_top" xlink:title=" ">
<polygon fill="white" stroke="#666666" points="319.25,-99.75 184,-99.75 184,-66.25 319.25,-66.25 319.25,-99.75"/>
<text xml:space="preserve" text-anchor="start" x="192" y="-86.25" font-family="Helvetica,sans-Serif" font-size="10.00">ACharacter::ClientAdjust</text>
<text xml:space="preserve" text-anchor="middle" x="251.62" y="-73.5" font-family="Helvetica,sans-Serif" font-size="10.00">Position</text>
</a>
</g>
</g>
<!-- Node1&#45;&gt;Node2 -->
<g id="edge2_Node000001_Node000002" class="edge">
<title>Node1&#45;&gt;Node2</title>
<g id="a_edge2_Node000001_Node000002"><a xlink:title=" ">
<path fill="none" stroke="#63b8ff" d="M124.39,-39.15C144.87,-46.27 168.83,-54.59 190.34,-62.06"/>
<polygon fill="#63b8ff" stroke="#63b8ff" points="188.97,-65.29 199.57,-65.27 191.27,-58.68 188.97,-65.29"/>
</a>
</g>
</g>
<!-- Node4 -->
<g id="Node000004" class="node">
<title>Node4</title>
<g id="a_Node000004"><a xlink:href="classACharacter.html#ad9bfc832e8114ebbe9cabcf189eb2ef2" target="_top" xlink:title=" ">
<polygon fill="white" stroke="#666666" points="1503.5,-61.75 1324.75,-61.75 1324.75,-28.25 1503.5,-28.25 1503.5,-61.75"/>
<text xml:space="preserve" text-anchor="start" x="1332.75" y="-48.25" font-family="Helvetica,sans-Serif" font-size="10.00">ACharacter::ClientMoveResponse</text>
<text xml:space="preserve" text-anchor="middle" x="1414.12" y="-35.5" font-family="Helvetica,sans-Serif" font-size="10.00">Packed</text>
</a>
</g>
</g>
<!-- Node1&#45;&gt;Node4 -->
<g id="edge27_Node000001_Node000004" class="edge">
<title>Node1&#45;&gt;Node4</title>
<g id="a_edge27_Node000001_Node000004"><a xlink:title=" ">
<path fill="none" stroke="#63b8ff" d="M148.32,-14.67C218.76,-8.27 328.23,0 423.38,0 423.38,0 423.38,0 991.62,0 1102.2,0 1228.18,-15.5 1313.38,-28.31"/>
<polygon fill="#63b8ff" stroke="#63b8ff" points="1312.7,-31.74 1323.11,-29.79 1313.75,-24.82 1312.7,-31.74"/>
</a>
</g>
</g>
<!-- Node2&#45;&gt;Node2 -->
<g id="edge3_Node000002_Node000002" class="edge">
<title>Node2&#45;&gt;Node2</title>
<g id="a_edge3_Node000002_Node000002"><a xlink:title=" ">
<path fill="none" stroke="#63b8ff" d="M220.57,-100.16C215.29,-109.37 225.65,-117.75 251.62,-117.75 266.24,-117.75 275.91,-115.1 280.63,-111.14"/>
<polygon fill="#63b8ff" stroke="#63b8ff" points="284.01,-112.12 282.4,-101.65 277.13,-110.84 284.01,-112.12"/>
</a>
</g>
</g>
<!-- Node3 -->
<g id="Node000003" class="node">
<title>Node3</title>
<g id="a_Node000003"><a xlink:href="classACharacter.html#afdf2149a2f65320e968ad0b2c0791765" target="_top" xlink:title=" ">
<polygon fill="white" stroke="#666666" points="493.5,-99.75 355.25,-99.75 355.25,-66.25 493.5,-66.25 493.5,-99.75"/>
<text xml:space="preserve" text-anchor="start" x="363.25" y="-86.25" font-family="Helvetica,sans-Serif" font-size="10.00">ACharacter::ClientAdjust</text>
<text xml:space="preserve" text-anchor="middle" x="424.38" y="-73.5" font-family="Helvetica,sans-Serif" font-size="10.00">Position_Implementation</text>
</a>
</g>
</g>
<!-- Node2&#45;&gt;Node3 -->
<g id="edge4_Node000002_Node000003" class="edge">
<title>Node2&#45;&gt;Node3</title>
<g id="a_edge4_Node000002_Node000003"><a xlink:title=" ">
<path fill="none" stroke="#63b8ff" d="M319.62,-83C327.49,-83 335.59,-83 343.61,-83"/>
<polygon fill="#63b8ff" stroke="#63b8ff" points="343.38,-86.5 353.38,-83 343.38,-79.5 343.38,-86.5"/>
</a>
</g>
</g>
<!-- Node6 -->
<g id="Node000006" class="node">
<title>Node6</title>
<g id="a_Node000006"><a xlink:href="classACharacter.html#a58b40bb30090e728a70c532915b8b331" target="_top" xlink:title=" ">
<polygon fill="white" stroke="#666666" points="1718.25,-225.75 1539.5,-225.75 1539.5,-192.25 1718.25,-192.25 1718.25,-225.75"/>
<text xml:space="preserve" text-anchor="start" x="1547.5" y="-212.25" font-family="Helvetica,sans-Serif" font-size="10.00">ACharacter::ClientMoveResponse</text>
<text xml:space="preserve" text-anchor="middle" x="1628.88" y="-199.5" font-family="Helvetica,sans-Serif" font-size="10.00">Packed_Implementation</text>
</a>
</g>
</g>
<!-- Node2&#45;&gt;Node6 -->
<g id="edge26_Node000002_Node000006" class="edge">
<title>Node2&#45;&gt;Node6</title>
<g id="a_edge26_Node000002_Node000006"><a xlink:title=" ">
<path fill="none" stroke="#63b8ff" d="M270.82,-99.97C320.3,-144.27 463.12,-260 604.75,-260 604.75,-260 604.75,-260 1192.5,-260 1308.06,-260 1439.7,-242.06 1527.7,-227.46"/>
<polygon fill="#63b8ff" stroke="#63b8ff" points="1528.24,-230.92 1537.52,-225.81 1527.08,-224.01 1528.24,-230.92"/>
</a>
</g>
</g>
<!-- Node3&#45;&gt;Node3 -->
<g id="edge5_Node000003_Node000003" class="edge">
<title>Node3&#45;&gt;Node3</title>
<g id="a_edge5_Node000003_Node000003"><a xlink:title=" ">
<path fill="none" stroke="#63b8ff" d="M393.32,-100.16C388.04,-109.37 398.4,-117.75 424.38,-117.75 438.99,-117.75 448.66,-115.1 453.38,-111.14"/>
<polygon fill="#63b8ff" stroke="#63b8ff" points="456.76,-112.12 455.15,-101.65 449.88,-110.84 456.76,-112.12"/>
</a>
</g>
</g>
<!-- Node3&#45;&gt;Node4 -->
<g id="edge6_Node000003_Node000004" class="edge">
<title>Node3&#45;&gt;Node4</title>
<g id="a_edge6_Node000003_Node000004"><a xlink:title=" ">
<path fill="none" stroke="#63b8ff" d="M493.72,-69.86C568.86,-56.58 693.32,-38 801.5,-38 801.5,-38 801.5,-38 991.62,-38 1101.59,-38 1227.67,-40.41 1313.07,-42.4"/>
<polygon fill="#63b8ff" stroke="#63b8ff" points="1312.73,-45.9 1322.81,-42.63 1312.9,-38.9 1312.73,-45.9"/>
</a>
</g>
</g>
<!-- Node5 -->
<g id="Node000005" class="node">
<title>Node5</title>
<g id="a_Node000005"><a xlink:href="classACharacter.html#a1aff7dc889d92776e88b2a501564f8b0" target="_top" xlink:title=" ">
<polygon fill="white" stroke="#666666" points="682,-118.75 529.5,-118.75 529.5,-85.25 682,-85.25 682,-118.75"/>
<text xml:space="preserve" text-anchor="start" x="537.5" y="-105.25" font-family="Helvetica,sans-Serif" font-size="10.00">ACharacter::ClientVeryShort</text>
<text xml:space="preserve" text-anchor="middle" x="605.75" y="-92.5" font-family="Helvetica,sans-Serif" font-size="10.00">AdjustPosition</text>
</a>
</g>
</g>
<!-- Node3&#45;&gt;Node5 -->
<g id="edge8_Node000003_Node000005" class="edge">
<title>Node3&#45;&gt;Node5</title>
<g id="a_edge8_Node000003_Node000005"><a xlink:title=" ">
<path fill="none" stroke="#63b8ff" d="M493.96,-90.26C501.75,-91.09 509.78,-91.94 517.77,-92.79"/>
<polygon fill="#63b8ff" stroke="#63b8ff" points="517.21,-96.25 527.53,-93.82 517.95,-89.29 517.21,-96.25"/>
</a>
</g>
</g>
<!-- Node4&#45;&gt;Node4 -->
<g id="edge7_Node000004_Node000004" class="edge">
<title>Node4&#45;&gt;Node4</title>
<g id="a_edge7_Node000004_Node000004"><a xlink:title=" ">
<path fill="none" stroke="#63b8ff" d="M1375.52,-62.16C1368.96,-71.37 1381.83,-79.75 1414.12,-79.75 1432.04,-79.75 1443.98,-77.17 1449.94,-73.3"/>
<polygon fill="#63b8ff" stroke="#63b8ff" points="1453.32,-74.18 1452.36,-63.63 1446.53,-72.48 1453.32,-74.18"/>
</a>
</g>
</g>
<!-- Node5&#45;&gt;Node5 -->
<g id="edge11_Node000005_Node000005" class="edge">
<title>Node5&#45;&gt;Node5</title>
<g id="a_edge11_Node000005_Node000005"><a xlink:title=" ">
<path fill="none" stroke="#63b8ff" d="M573.15,-119.16C567.6,-128.37 578.47,-136.75 605.75,-136.75 621.09,-136.75 631.24,-134.1 636.2,-130.14"/>
<polygon fill="#63b8ff" stroke="#63b8ff" points="639.58,-131.14 638.06,-120.65 632.71,-129.79 639.58,-131.14"/>
</a>
</g>
</g>
<!-- Node5&#45;&gt;Node6 -->
<g id="edge9_Node000005_Node000006" class="edge">
<title>Node5&#45;&gt;Node6</title>
<g id="a_edge9_Node000005_Node000006"><a xlink:title=" ">
<path fill="none" stroke="#63b8ff" d="M638.47,-119.19C702.74,-152.37 853.79,-222 989.62,-222 989.62,-222 989.62,-222 1192.5,-222 1307.51,-222 1439.52,-217.41 1527.75,-213.69"/>
<polygon fill="#63b8ff" stroke="#63b8ff" points="1527.74,-217.19 1537.58,-213.27 1527.44,-210.2 1527.74,-217.19"/>
</a>
</g>
</g>
<!-- Node7 -->
<g id="Node000007" class="node">
<title>Node7</title>
<g id="a_Node000007"><a xlink:href="classACharacter.html#aa79b4caec3622e3749f7a5b27f2331c2" target="_top" xlink:title=" ">
<polygon fill="white" stroke="#666666" points="887,-118.75 718,-118.75 718,-85.25 887,-85.25 887,-118.75"/>
<text xml:space="preserve" text-anchor="start" x="726" y="-105.25" font-family="Helvetica,sans-Serif" font-size="10.00">ACharacter::ClientVeryShort</text>
<text xml:space="preserve" text-anchor="middle" x="802.5" y="-92.5" font-family="Helvetica,sans-Serif" font-size="10.00">AdjustPosition_Implementation</text>
</a>
</g>
</g>
<!-- Node5&#45;&gt;Node7 -->
<g id="edge12_Node000005_Node000007" class="edge">
<title>Node5&#45;&gt;Node7</title>
<g id="a_edge12_Node000005_Node000007"><a xlink:title=" ">
<path fill="none" stroke="#63b8ff" d="M682.32,-102C690.17,-102 698.22,-102 706.25,-102"/>
<polygon fill="#63b8ff" stroke="#63b8ff" points="706.05,-105.5 716.05,-102 706.05,-98.5 706.05,-105.5"/>
</a>
</g>
</g>
<!-- Node6&#45;&gt;Node6 -->
<g id="edge10_Node000006_Node000006" class="edge">
<title>Node6&#45;&gt;Node6</title>
<g id="a_edge10_Node000006_Node000006"><a xlink:title=" ">
<path fill="none" stroke="#63b8ff" d="M1590.27,-226.16C1583.71,-235.37 1596.58,-243.75 1628.88,-243.75 1646.79,-243.75 1658.73,-241.17 1664.69,-237.3"/>
<polygon fill="#63b8ff" stroke="#63b8ff" points="1668.07,-238.18 1667.11,-227.63 1661.28,-236.48 1668.07,-238.18"/>
</a>
</g>
</g>
<!-- Node7&#45;&gt;Node4 -->
<g id="edge24_Node000007_Node000004" class="edge">
<title>Node7&#45;&gt;Node4</title>
<g id="a_edge24_Node000007_Node000004"><a xlink:title=" ">
<path fill="none" stroke="#63b8ff" d="M887.31,-94.16C998.44,-83.77 1194.33,-65.46 1313.08,-54.35"/>
<polygon fill="#63b8ff" stroke="#63b8ff" points="1313.19,-57.86 1322.82,-53.44 1312.54,-50.89 1313.19,-57.86"/>
</a>
</g>
</g>
<!-- Node7&#45;&gt;Node7 -->
<g id="edge25_Node000007_Node000007" class="edge">
<title>Node7&#45;&gt;Node7</title>
<g id="a_edge25_Node000007_Node000007"><a xlink:title=" ">
<path fill="none" stroke="#63b8ff" d="M768.68,-119.16C762.94,-128.37 774.21,-136.75 802.5,-136.75 818.41,-136.75 828.94,-134.1 834.09,-130.14"/>
<polygon fill="#63b8ff" stroke="#63b8ff" points="837.45,-131.14 836.02,-120.65 830.6,-129.75 837.45,-131.14"/>
</a>
</g>
</g>
<!-- Node8 -->
<g id="Node000008" class="node">
<title>Node8</title>
<g id="a_Node000008"><a xlink:href="classACharacter.html#a5493f24d5ccbc006667506073b49bef7" target="_top" xlink:title=" ">
<polygon fill="white" stroke="#666666" points="1058.25,-137.75 923,-137.75 923,-104.25 1058.25,-104.25 1058.25,-137.75"/>
<text xml:space="preserve" text-anchor="start" x="931" y="-124.25" font-family="Helvetica,sans-Serif" font-size="10.00">ACharacter::ClientAdjust</text>
<text xml:space="preserve" text-anchor="middle" x="990.62" y="-111.5" font-family="Helvetica,sans-Serif" font-size="10.00">RootMotionPosition</text>
</a>
</g>
</g>
<!-- Node7&#45;&gt;Node8 -->
<g id="edge13_Node000007_Node000008" class="edge">
<title>Node7&#45;&gt;Node8</title>
<g id="a_edge13_Node000007_Node000008"><a xlink:title=" ">
<path fill="none" stroke="#63b8ff" d="M887.31,-110.56C895.37,-111.38 903.53,-112.21 911.54,-113.03"/>
<polygon fill="#63b8ff" stroke="#63b8ff" points="910.93,-116.48 921.23,-114.02 911.64,-109.52 910.93,-116.48"/>
</a>
</g>
</g>
<!-- Node8&#45;&gt;Node6 -->
<g id="edge23_Node000008_Node000006" class="edge">
<title>Node8&#45;&gt;Node6</title>
<g id="a_edge23_Node000008_Node000006"><a xlink:title=" ">
<path fill="none" stroke="#63b8ff" d="M1023.96,-138.07C1043.71,-147.67 1069.79,-158.92 1094.25,-165 1173.74,-184.76 1396.69,-198.17 1527.9,-204.6"/>
<polygon fill="#63b8ff" stroke="#63b8ff" points="1527.46,-208.09 1537.62,-205.07 1527.8,-201.09 1527.46,-208.09"/>
</a>
</g>
</g>
<!-- Node8&#45;&gt;Node8 -->
<g id="edge14_Node000008_Node000008" class="edge">
<title>Node8&#45;&gt;Node8</title>
<g id="a_edge14_Node000008_Node000008"><a xlink:title=" ">
<path fill="none" stroke="#63b8ff" d="M956.81,-138.16C951.06,-147.37 962.33,-155.75 990.62,-155.75 1006.54,-155.75 1017.07,-153.1 1022.21,-149.14"/>
<polygon fill="#63b8ff" stroke="#63b8ff" points="1025.58,-150.14 1024.14,-139.65 1018.72,-148.75 1025.58,-150.14"/>
</a>
</g>
</g>
<!-- Node9 -->
<g id="Node000009" class="node">
<title>Node9</title>
<g id="a_Node000009"><a xlink:href="classACharacter.html#ae0a23043c0a5bf21a8d26970a889481b" target="_top" xlink:title=" ">
<polygon fill="white" stroke="#666666" points="1288.75,-137.75 1094.25,-137.75 1094.25,-104.25 1288.75,-104.25 1288.75,-137.75"/>
<text xml:space="preserve" text-anchor="start" x="1102.25" y="-124.25" font-family="Helvetica,sans-Serif" font-size="10.00">ACharacter::ClientAdjust</text>
<text xml:space="preserve" text-anchor="middle" x="1191.5" y="-111.5" font-family="Helvetica,sans-Serif" font-size="10.00">RootMotionPosition_Implementation</text>
</a>
</g>
</g>
<!-- Node8&#45;&gt;Node9 -->
<g id="edge15_Node000008_Node000009" class="edge">
<title>Node8&#45;&gt;Node9</title>
<g id="a_edge15_Node000008_Node000009"><a xlink:title=" ">
<path fill="none" stroke="#63b8ff" d="M1058.68,-121C1066.42,-121 1074.45,-121 1082.56,-121"/>
<polygon fill="#63b8ff" stroke="#63b8ff" points="1082.55,-124.5 1092.55,-121 1082.55,-117.5 1082.55,-124.5"/>
</a>
</g>
</g>
<!-- Node9&#45;&gt;Node4 -->
<g id="edge22_Node000009_Node000004" class="edge">
<title>Node9&#45;&gt;Node4</title>
<g id="a_edge22_Node000009_Node000004"><a xlink:title=" ">
<path fill="none" stroke="#63b8ff" d="M1247.08,-103.79C1260.72,-99.39 1275.29,-94.6 1288.75,-90 1310.86,-82.44 1335.05,-73.78 1356.16,-66.09"/>
<polygon fill="#63b8ff" stroke="#63b8ff" points="1357.29,-69.41 1365.48,-62.69 1354.88,-62.83 1357.29,-69.41"/>
</a>
</g>
</g>
<!-- Node9&#45;&gt;Node9 -->
<g id="edge16_Node000009_Node000009" class="edge">
<title>Node9&#45;&gt;Node9</title>
<g id="a_edge16_Node000009_Node000009"><a xlink:title=" ">
<path fill="none" stroke="#63b8ff" d="M1155.39,-138.16C1149.25,-147.37 1161.29,-155.75 1191.5,-155.75 1208.49,-155.75 1219.74,-153.1 1225.23,-149.14"/>
<polygon fill="#63b8ff" stroke="#63b8ff" points="1228.59,-150.16 1227.29,-139.64 1221.75,-148.67 1228.59,-150.16"/>
</a>
</g>
</g>
<!-- Node10 -->
<g id="Node000010" class="node">
<title>Node10</title>
<g id="a_Node000010"><a xlink:href="classACharacter.html#ab12d12ae249888a77d8d143d276e260d" target="_top" xlink:title=" ">
<polygon fill="white" stroke="#666666" points="1486.25,-137.75 1342,-137.75 1342,-104.25 1486.25,-104.25 1486.25,-137.75"/>
<text xml:space="preserve" text-anchor="start" x="1350" y="-124.25" font-family="Helvetica,sans-Serif" font-size="10.00">ACharacter::ClientAdjust</text>
<text xml:space="preserve" text-anchor="middle" x="1414.12" y="-111.5" font-family="Helvetica,sans-Serif" font-size="10.00">RootMotionSourcePosition</text>
</a>
</g>
</g>
<!-- Node9&#45;&gt;Node10 -->
<g id="edge17_Node000009_Node000010" class="edge">
<title>Node9&#45;&gt;Node10</title>
<g id="a_edge17_Node000009_Node000010"><a xlink:title=" ">
<path fill="none" stroke="#63b8ff" d="M1288.95,-121C1302.81,-121 1316.96,-121 1330.52,-121"/>
<polygon fill="#63b8ff" stroke="#63b8ff" points="1330.24,-124.5 1340.24,-121 1330.24,-117.5 1330.24,-124.5"/>
</a>
</g>
</g>
<!-- Node10&#45;&gt;Node6 -->
<g id="edge21_Node000010_Node000006" class="edge">
<title>Node10&#45;&gt;Node6</title>
<g id="a_edge21_Node000010_Node000006"><a xlink:title=" ">
<path fill="none" stroke="#63b8ff" d="M1456.65,-138.18C1490.77,-152.29 1539.28,-172.36 1575.96,-187.53"/>
<polygon fill="#63b8ff" stroke="#63b8ff" points="1574.48,-190.7 1585.06,-191.29 1577.15,-184.23 1574.48,-190.7"/>
</a>
</g>
</g>
<!-- Node10&#45;&gt;Node10 -->
<g id="edge18_Node000010_Node000010" class="edge">
<title>Node10&#45;&gt;Node10</title>
<g id="a_edge18_Node000010_Node000010"><a xlink:title=" ">
<path fill="none" stroke="#63b8ff" d="M1375.52,-138.16C1368.96,-147.37 1381.83,-155.75 1414.12,-155.75 1432.04,-155.75 1443.98,-153.17 1449.94,-149.3"/>
<polygon fill="#63b8ff" stroke="#63b8ff" points="1453.32,-150.18 1452.36,-139.63 1446.53,-148.48 1453.32,-150.18"/>
</a>
</g>
</g>
<!-- Node11 -->
<g id="Node000011" class="node">
<title>Node11</title>
<g id="a_Node000011"><a xlink:href="classACharacter.html#a43ab330736b6f634518c3aa8c5976eb8" target="_top" xlink:title=" ">
<polygon fill="white" stroke="#666666" points="1701,-144.12 1556.75,-144.12 1556.75,-97.88 1701,-97.88 1701,-144.12"/>
<text xml:space="preserve" text-anchor="start" x="1564.75" y="-130.62" font-family="Helvetica,sans-Serif" font-size="10.00">ACharacter::ClientAdjust</text>
<text xml:space="preserve" text-anchor="start" x="1564.75" y="-117.88" font-family="Helvetica,sans-Serif" font-size="10.00">RootMotionSourcePosition</text>
<text xml:space="preserve" text-anchor="middle" x="1628.88" y="-105.12" font-family="Helvetica,sans-Serif" font-size="10.00">_Implementation</text>
</a>
</g>
</g>
<!-- Node10&#45;&gt;Node11 -->
<g id="edge19_Node000010_Node000011" class="edge">
<title>Node10&#45;&gt;Node11</title>
<g id="a_edge19_Node000010_Node000011"><a xlink:title=" ">
<path fill="none" stroke="#63b8ff" d="M1486.56,-121C1505.24,-121 1525.54,-121 1544.77,-121"/>
<polygon fill="#63b8ff" stroke="#63b8ff" points="1544.75,-124.5 1554.75,-121 1544.75,-117.5 1544.75,-124.5"/>
</a>
</g>
</g>
<!-- Node11&#45;&gt;Node11 -->
<g id="edge20_Node000011_Node000011" class="edge">
<title>Node11&#45;&gt;Node11</title>
<g id="a_edge20_Node000011_Node000011"><a xlink:title=" ">
<path fill="none" stroke="#63b8ff" d="M1588.96,-144.25C1586.21,-153.93 1599.51,-162.12 1628.88,-162.12 1646.77,-162.12 1658.7,-159.08 1664.66,-154.51"/>
<polygon fill="#63b8ff" stroke="#63b8ff" points="1667.74,-156.24 1668.22,-145.66 1661.24,-153.63 1667.74,-156.24"/>
</a>
</g>
</g>
</g>
</svg>
