<?xml version="1.0" encoding="UTF-8" standalone="no"?>
<!DOCTYPE svg PUBLIC "-//W3C//DTD SVG 1.1//EN"
 "http://www.w3.org/Graphics/SVG/1.1/DTD/svg11.dtd">
<!-- Generated by graphviz version 14.1.4 (0)
 -->
<!-- Title: USkeletalMeshComponent::GetMirroringRequiredBones Pages: 1 -->
<svg width="346pt" height="60pt"
 viewBox="0.00 0.00 346.00 60.00" xmlns="http://www.w3.org/2000/svg" xmlns:xlink="http://www.w3.org/1999/xlink">

<svg id="main" version="1.1" xmlns="http://www.w3.org/2000/svg" xmlns:xlink="http://www.w3.org/1999/xlink" xml:space="preserve">

<style type="text/css"><![CDATA[
.node, .edge {opacity: 0.7;}
.node.selected, .edge.selected {opacity: 1;}
.edge:hover path { stroke: red; }
.edge:hover polygon { stroke: red; fill: red; }
]]></style>
<script type="application/ecmascript" xlink:href="svg.min.js"/>
<svg id="graph" class="graph">
<g id="graph0" class="graph" transform="scale(1 1) rotate(0) translate(4 55.5)">
<title>USkeletalMeshComponent::GetMirroringRequiredBones</title>
<!-- Node1 -->
<g id="Node000001" class="node">
<title>Node1</title>
<g id="a_Node000001"><a xlink:title=" ">
<polygon fill="#999999" stroke="#666666" points="157,-33.5 0,-33.5 0,0 157,0 157,-33.5"/>
<text xml:space="preserve" text-anchor="start" x="8" y="-20" font-family="Helvetica,sans-Serif" font-size="10.00">USkeletalMeshComponent</text>
<text xml:space="preserve" text-anchor="middle" x="78.5" y="-7.25" font-family="Helvetica,sans-Serif" font-size="10.00">::GetMirroringRequiredBones</text>
</a>
</g>
</g>
<!-- Node1&#45;&gt;Node1 -->
<g id="edge1_Node000001_Node000001" class="edge">
<title>Node1&#45;&gt;Node1</title>
<g id="a_edge1_Node000001_Node000001"><a xlink:title=" ">
<path fill="none" stroke="#63b8ff" d="M44.88,-33.91C39.17,-43.12 50.38,-51.5 78.5,-51.5 94.32,-51.5 104.79,-48.85 109.9,-44.89"/>
<polygon fill="#63b8ff" stroke="#63b8ff" points="113.27,-45.89 111.82,-35.4 106.41,-44.51 113.27,-45.89"/>
</a>
</g>
</g>
<!-- Node2 -->
<g id="Node000002" class="node">
<title>Node2</title>
<g id="a_Node000002"><a xlink:href="classUSkeletalMeshComponent.html#af8544166192af14b9382228a280356c2" target="_top" xlink:title=" ">
<polygon fill="white" stroke="#666666" points="338,-33.5 193,-33.5 193,0 338,0 338,-33.5"/>
<text xml:space="preserve" text-anchor="start" x="201" y="-20" font-family="Helvetica,sans-Serif" font-size="10.00">USkeletalMeshComponent</text>
<text xml:space="preserve" text-anchor="middle" x="265.5" y="-7.25" font-family="Helvetica,sans-Serif" font-size="10.00">::USkeletalMesh</text>
</a>
</g>
</g>
<!-- Node1&#45;&gt;Node2 -->
<g id="edge2_Node000001_Node000002" class="edge">
<title>Node1&#45;&gt;Node2</title>
<g id="a_edge2_Node000001_Node000002"><a xlink:title=" ">
<path fill="none" stroke="#63b8ff" d="M157.42,-16.75C165.25,-16.75 173.22,-16.75 181.1,-16.75"/>
<polygon fill="#63b8ff" stroke="#63b8ff" points="181.05,-20.25 191.05,-16.75 181.05,-13.25 181.05,-20.25"/>
</a>
</g>
</g>
<!-- Node2&#45;&gt;Node2 -->
<g id="edge3_Node000002_Node000002" class="edge">
<title>Node2&#45;&gt;Node2</title>
<g id="a_edge3_Node000002_Node000002"><a xlink:title=" ">
<path fill="none" stroke="#63b8ff" d="M231.88,-33.91C226.17,-43.12 237.38,-51.5 265.5,-51.5 281.32,-51.5 291.79,-48.85 296.9,-44.89"/>
<polygon fill="#63b8ff" stroke="#63b8ff" points="300.27,-45.89 298.82,-35.4 293.41,-44.51 300.27,-45.89"/>
</a>
</g>
</g>
</g>
</svg>
</svg>

<style type='text/css'>
<![CDATA[
[data-mouse-over-selected='false'] { opacity: 0.7; }
[data-mouse-over-selected='true']  { opacity: 1.0; }
]]>
</style>
<script type="application/ecmascript"><![CDATA[
document.addEventListener('DOMContentLoaded', (event) => {
  highlightEdges();
  highlightAdjacentNodes();
});
]]></script>
</svg>
