<?xml version="1.0" encoding="UTF-8" standalone="no"?>
<!DOCTYPE svg PUBLIC "-//W3C//DTD SVG 1.1//EN"
 "http://www.w3.org/Graphics/SVG/1.1/DTD/svg11.dtd">
<!-- Generated by graphviz version 14.1.4 (0)
 -->
<!-- Title: FHashedName::FHashedName Pages: 1 -->
<svg width="396pt" height="422pt"
 viewBox="0.00 0.00 396.00 422.00" xmlns="http://www.w3.org/2000/svg" xmlns:xlink="http://www.w3.org/1999/xlink">
<g id="graph0" class="graph" transform="scale(1 1) rotate(0) translate(4 418.12)">
<title>FHashedName::FHashedName</title>
<!-- Node1 -->
<g id="Node000001" class="node">
<title>Node1</title>
<g id="a_Node000001"><a xlink:title=" ">
<polygon fill="#999999" stroke="#666666" points="387.5,-195.75 221.5,-195.75 221.5,-175 387.5,-175 387.5,-195.75"/>
<text xml:space="preserve" text-anchor="middle" x="304.5" y="-182.25" font-family="Helvetica,sans-Serif" font-size="10.00">FHashedName::FHashedName</text>
</a>
</g>
</g>
<!-- Node2 -->
<g id="Node000002" class="node">
<title>Node2</title>
<g id="a_Node000002"><a xlink:href="$classFHashedName.html#a87f0cd64b65b11a04d2a7c2b9f164314" xlink:title=" ">
<polygon fill="white" stroke="#666666" points="166.38,-414.12 19.12,-414.12 19.12,-380.62 166.38,-380.62 166.38,-414.12"/>
<text xml:space="preserve" text-anchor="start" x="27.12" y="-400.62" font-family="Helvetica,sans-Serif" font-size="10.00">FHashedName::DECLARE</text>
<text xml:space="preserve" text-anchor="middle" x="92.75" y="-387.88" font-family="Helvetica,sans-Serif" font-size="10.00">_EXPORTED_TYPE_LAYOUT</text>
</a>
</g>
</g>
<!-- Node1&#45;&gt;Node2 -->
<g id="edge1_Node000001_Node000002" class="edge">
<title>Node1&#45;&gt;Node2</title>
<g id="a_edge1_Node000001_Node000002"><a xlink:title=" ">
<path fill="none" stroke="#63b8ff" d="M295.92,-206.68C281,-245.47 244.12,-327.66 185.5,-371.38 179.79,-375.63 173.41,-379.19 166.75,-382.17"/>
<polygon fill="#63b8ff" stroke="#63b8ff" points="299.11,-208.14 299.31,-197.54 292.55,-205.7 299.11,-208.14"/>
</a>
</g>
</g>
<!-- Node3 -->
<g id="Node000003" class="node">
<title>Node3</title>
<g id="a_Node000003"><a xlink:href="$classFHashedName.html#a08060eb346cc36d7dd83791b48aa8cb2" xlink:title=" ">
<polygon fill="white" stroke="#666666" points="175.75,-362.75 9.75,-362.75 9.75,-342 175.75,-342 175.75,-362.75"/>
<text xml:space="preserve" text-anchor="middle" x="92.75" y="-349.25" font-family="Helvetica,sans-Serif" font-size="10.00">FHashedName::FHashedName</text>
</a>
</g>
</g>
<!-- Node1&#45;&gt;Node3 -->
<g id="edge2_Node000001_Node000003" class="edge">
<title>Node1&#45;&gt;Node3</title>
<g id="a_edge2_Node000001_Node000003"><a xlink:title=" ">
<path fill="none" stroke="#63b8ff" d="M292.98,-206.05C275.37,-238.42 236.77,-300.62 185.5,-332.38 179.54,-336.07 172.99,-339.08 166.23,-341.54"/>
<polygon fill="#63b8ff" stroke="#63b8ff" points="296.03,-207.76 297.61,-197.28 289.84,-204.49 296.03,-207.76"/>
</a>
</g>
</g>
<!-- Node4 -->
<g id="Node000004" class="node">
<title>Node4</title>
<g id="a_Node000004"><a xlink:href="$classFHashedName.html#a887a37f63e55e30aba5ea547ea69fde2" xlink:title=" ">
<polygon fill="white" stroke="#666666" points="172,-305.75 13.5,-305.75 13.5,-285 172,-285 172,-305.75"/>
<text xml:space="preserve" text-anchor="middle" x="92.75" y="-292.25" font-family="Helvetica,sans-Serif" font-size="10.00">FHashedName::GetTypeHash</text>
</a>
</g>
</g>
<!-- Node1&#45;&gt;Node4 -->
<g id="edge3_Node000001_Node000004" class="edge">
<title>Node1&#45;&gt;Node4</title>
<g id="a_edge3_Node000001_Node000004"><a xlink:title=" ">
<path fill="none" stroke="#63b8ff" d="M285.21,-203.86C263.41,-224.76 224.97,-258.25 185.5,-276.38 178.4,-279.63 170.74,-282.34 162.98,-284.58"/>
<polygon fill="#63b8ff" stroke="#63b8ff" points="287.45,-206.56 292.14,-197.07 282.55,-201.56 287.45,-206.56"/>
</a>
</g>
</g>
<!-- Node5 -->
<g id="Node000005" class="node">
<title>Node5</title>
<g id="a_Node000005"><a xlink:href="$classFHashedName.html#ae3dd47639377420075ff4dfd14ee0f35" xlink:title=" ">
<polygon fill="white" stroke="#666666" points="185.5,-267.12 0,-267.12 0,-233.62 185.5,-233.62 185.5,-267.12"/>
<text xml:space="preserve" text-anchor="start" x="8" y="-253.62" font-family="Helvetica,sans-Serif" font-size="10.00">FHashedName::LoadFromCompact</text>
<text xml:space="preserve" text-anchor="middle" x="92.75" y="-240.88" font-family="Helvetica,sans-Serif" font-size="10.00">Binary</text>
</a>
</g>
</g>
<!-- Node1&#45;&gt;Node5 -->
<g id="edge5_Node000001_Node000005" class="edge">
<title>Node1&#45;&gt;Node5</title>
<g id="a_edge5_Node000001_Node000005"><a xlink:title=" ">
<path fill="none" stroke="#63b8ff" d="M261.22,-199.84C238.8,-207.39 210.73,-216.63 185.5,-224.38 175.84,-227.34 165.58,-230.36 155.55,-233.26"/>
<polygon fill="#63b8ff" stroke="#63b8ff" points="262.28,-203.18 270.63,-196.66 260.04,-196.54 262.28,-203.18"/>
</a>
</g>
</g>
<!-- Node6 -->
<g id="Node000006" class="node">
<title>Node6</title>
<g id="a_Node000006"><a xlink:href="$classFHashedName.html#a73e75afc026e4892f9411c64bd58ea49" xlink:title=" ">
<polygon fill="white" stroke="#666666" points="166.38,-215.75 19.12,-215.75 19.12,-195 166.38,-195 166.38,-215.75"/>
<text xml:space="preserve" text-anchor="middle" x="92.75" y="-202.25" font-family="Helvetica,sans-Serif" font-size="10.00">FHashedName::operator!=</text>
</a>
</g>
</g>
<!-- Node1&#45;&gt;Node6 -->
<g id="edge6_Node000001_Node000006" class="edge">
<title>Node1&#45;&gt;Node6</title>
<g id="a_edge6_Node000001_Node000006"><a xlink:title=" ">
<path fill="none" stroke="#63b8ff" d="M210.13,-194.28C195.54,-195.67 180.65,-197.09 166.61,-198.43"/>
<polygon fill="#63b8ff" stroke="#63b8ff" points="210.07,-197.8 219.7,-193.37 209.41,-190.83 210.07,-197.8"/>
</a>
</g>
</g>
<!-- Node7 -->
<g id="Node000007" class="node">
<title>Node7</title>
<g id="a_Node000007"><a xlink:href="$classFHashedName.html#add1d4f5efb42dd0fc56fd5d5bcb234a1" xlink:title=" ">
<polygon fill="white" stroke="#666666" points="164.5,-176.75 21,-176.75 21,-156 164.5,-156 164.5,-176.75"/>
<text xml:space="preserve" text-anchor="middle" x="92.75" y="-163.25" font-family="Helvetica,sans-Serif" font-size="10.00">FHashedName::operator&lt;</text>
</a>
</g>
</g>
<!-- Node1&#45;&gt;Node7 -->
<g id="edge7_Node000001_Node000007" class="edge">
<title>Node1&#45;&gt;Node7</title>
<g id="a_edge7_Node000001_Node000007"><a xlink:title=" ">
<path fill="none" stroke="#63b8ff" d="M209.77,-176.88C194.71,-175.52 179.35,-174.13 164.93,-172.82"/>
<polygon fill="#63b8ff" stroke="#63b8ff" points="209.42,-180.37 219.7,-177.78 210.05,-173.4 209.42,-180.37"/>
</a>
</g>
</g>
<!-- Node8 -->
<g id="Node000008" class="node">
<title>Node8</title>
<g id="a_Node000008"><a xlink:href="$classFHashedName.html#aae470a13b8f305d0d5549449bccd8059" xlink:title=" ">
<polygon fill="white" stroke="#666666" points="168.62,-137.75 16.88,-137.75 16.88,-117 168.62,-117 168.62,-137.75"/>
<text xml:space="preserve" text-anchor="middle" x="92.75" y="-124.25" font-family="Helvetica,sans-Serif" font-size="10.00">FHashedName::operator&lt;&lt;</text>
</a>
</g>
</g>
<!-- Node1&#45;&gt;Node8 -->
<g id="edge8_Node000001_Node000008" class="edge">
<title>Node1&#45;&gt;Node8</title>
<g id="a_edge8_Node000001_Node000008"><a xlink:title=" ">
<path fill="none" stroke="#63b8ff" d="M261.85,-170.87C239.39,-163.33 211.1,-154.27 185.5,-147.38 173.38,-144.11 160.25,-141 147.81,-138.25"/>
<polygon fill="#63b8ff" stroke="#63b8ff" points="260.66,-174.17 271.26,-174.06 262.91,-167.54 260.66,-174.17"/>
</a>
</g>
</g>
<!-- Node9 -->
<g id="Node000009" class="node">
<title>Node9</title>
<g id="a_Node000009"><a xlink:href="$classFHashedName.html#a782bb47f0fc8449bba1ee864da635b7d" xlink:title=" ">
<polygon fill="white" stroke="#666666" points="168.62,-98.75 16.88,-98.75 16.88,-78 168.62,-78 168.62,-98.75"/>
<text xml:space="preserve" text-anchor="middle" x="92.75" y="-85.25" font-family="Helvetica,sans-Serif" font-size="10.00">FHashedName::operator&lt;&lt;</text>
</a>
</g>
</g>
<!-- Node1&#45;&gt;Node9 -->
<g id="edge9_Node000001_Node000009" class="edge">
<title>Node1&#45;&gt;Node9</title>
<g id="a_edge9_Node000001_Node000009"><a xlink:title=" ">
<path fill="none" stroke="#63b8ff" d="M281.82,-167.72C259.14,-150.12 221.83,-123.58 185.5,-108.38 176.78,-104.72 167.3,-101.7 157.85,-99.21"/>
<polygon fill="#63b8ff" stroke="#63b8ff" points="279.4,-170.26 289.41,-173.71 283.74,-164.77 279.4,-170.26"/>
</a>
</g>
</g>
<!-- Node10 -->
<g id="Node000010" class="node">
<title>Node10</title>
<g id="a_Node000010"><a xlink:href="$classFHashedName.html#a52b9af0cbe23077b19e13e750ac2e244" xlink:title=" ">
<polygon fill="white" stroke="#666666" points="164.5,-59.75 21,-59.75 21,-39 164.5,-39 164.5,-59.75"/>
<text xml:space="preserve" text-anchor="middle" x="92.75" y="-46.25" font-family="Helvetica,sans-Serif" font-size="10.00">FHashedName::operator=</text>
</a>
</g>
</g>
<!-- Node1&#45;&gt;Node10 -->
<g id="edge10_Node000001_Node000010" class="edge">
<title>Node1&#45;&gt;Node10</title>
<g id="a_edge10_Node000001_Node000010"><a xlink:title=" ">
<path fill="none" stroke="#63b8ff" d="M289.32,-165.72C269.27,-139.47 230.09,-93.49 185.5,-69.38 178.62,-65.65 171.09,-62.62 163.4,-60.16"/>
<polygon fill="#63b8ff" stroke="#63b8ff" points="286.35,-167.59 295.13,-173.51 291.96,-163.41 286.35,-167.59"/>
</a>
</g>
</g>
<!-- Node11 -->
<g id="Node000011" class="node">
<title>Node11</title>
<g id="a_Node000011"><a xlink:href="$classFHashedName.html#a66ad24fc89be20a68421c84380e3bb22" xlink:title=" ">
<polygon fill="white" stroke="#666666" points="168.62,-20.75 16.88,-20.75 16.88,0 168.62,0 168.62,-20.75"/>
<text xml:space="preserve" text-anchor="middle" x="92.75" y="-7.25" font-family="Helvetica,sans-Serif" font-size="10.00">FHashedName::operator==</text>
</a>
</g>
</g>
<!-- Node1&#45;&gt;Node11 -->
<g id="edge11_Node000001_Node000011" class="edge">
<title>Node1&#45;&gt;Node11</title>
<g id="a_edge11_Node000001_Node000011"><a xlink:title=" ">
<path fill="none" stroke="#63b8ff" d="M293.75,-164.52C276.79,-130.67 238.54,-64.18 185.5,-30.38 179.73,-26.7 173.38,-23.68 166.8,-21.22"/>
<polygon fill="#63b8ff" stroke="#63b8ff" points="290.49,-165.82 298.01,-173.29 296.79,-162.76 290.49,-165.82"/>
</a>
</g>
</g>
<!-- Node4&#45;&gt;Node4 -->
<g id="edge4_Node000004_Node000004" class="edge">
<title>Node4&#45;&gt;Node4</title>
<g id="a_edge4_Node000004_Node000004"><a xlink:title=" ">
<path fill="none" stroke="#63b8ff" d="M130.42,-316.9C125.78,-320.92 113.22,-323.75 92.75,-323.75 56.36,-323.75 44.98,-314.81 58.63,-306.15"/>
<polygon fill="#63b8ff" stroke="#63b8ff" points="133.8,-315.99 127.34,-307.58 127.15,-318.18 133.8,-315.99"/>
</a>
</g>
</g>
</g>
</svg>
