<?xml version="1.0" encoding="UTF-8" standalone="no"?>
<!DOCTYPE svg PUBLIC "-//W3C//DTD SVG 1.1//EN"
 "http://www.w3.org/Graphics/SVG/1.1/DTD/svg11.dtd">
<!-- Generated by graphviz version 14.1.4 (0)
 -->
<!-- Title: UAssetManager::DownloadAssetList Pages: 1 -->
<svg width="672pt" height="145pt"
 viewBox="0.00 0.00 672.00 145.00" xmlns="http://www.w3.org/2000/svg" xmlns:xlink="http://www.w3.org/1999/xlink">
<g id="graph0" class="graph" transform="scale(1 1) rotate(0) translate(4 140.5)">
<title>UAssetManager::DownloadAssetList</title>
<!-- Node1 -->
<g id="Node000001" class="node">
<title>Node1</title>
<g id="a_Node000001"><a xlink:title=" ">
<polygon fill="#999999" stroke="#666666" points="192.25,-65.75 0,-65.75 0,-45 192.25,-45 192.25,-65.75"/>
<text xml:space="preserve" text-anchor="middle" x="96.12" y="-52.25" font-family="Helvetica,sans-Serif" font-size="10.00">UAssetManager::DownloadAssetList</text>
</a>
</g>
</g>
<!-- Node2 -->
<g id="Node000002" class="node">
<title>Node2</title>
<g id="a_Node000002"><a xlink:href="$classUE_1_1FSourceLocation.html#a49150b254865f0b73066473a2c752b51" xlink:title=" ">
<polygon fill="white" stroke="#666666" points="344,-72.12 228.25,-72.12 228.25,-38.62 344,-38.62 344,-72.12"/>
<text xml:space="preserve" text-anchor="start" x="236.25" y="-58.62" font-family="Helvetica,sans-Serif" font-size="10.00">UE::FSourceLocation</text>
<text xml:space="preserve" text-anchor="middle" x="286.12" y="-45.88" font-family="Helvetica,sans-Serif" font-size="10.00">::Current</text>
</a>
</g>
</g>
<!-- Node1&#45;&gt;Node2 -->
<g id="edge1_Node000001_Node000002" class="edge">
<title>Node1&#45;&gt;Node2</title>
<g id="a_edge1_Node000001_Node000002"><a xlink:title=" ">
<path fill="none" stroke="#63b8ff" d="M192.5,-55.38C200.62,-55.38 208.73,-55.38 216.58,-55.38"/>
<polygon fill="#63b8ff" stroke="#63b8ff" points="216.36,-58.88 226.36,-55.38 216.36,-51.88 216.36,-58.88"/>
</a>
</g>
</g>
<!-- Node3 -->
<g id="Node000003" class="node">
<title>Node3</title>
<g id="a_Node000003"><a xlink:href="$structUE_1_1FSourceLocation_1_1FSourceLocationImpl.html#a4b56236aecaca3ec6ae8fa2888d757b1" xlink:title=" ">
<polygon fill="white" stroke="#666666" points="504,-136.5 380,-136.5 380,-90.25 504,-90.25 504,-136.5"/>
<text xml:space="preserve" text-anchor="start" x="388" y="-123" font-family="Helvetica,sans-Serif" font-size="10.00">UE::FSourceLocation</text>
<text xml:space="preserve" text-anchor="start" x="388" y="-110.25" font-family="Helvetica,sans-Serif" font-size="10.00">::FSourceLocationImpl</text>
<text xml:space="preserve" text-anchor="middle" x="442" y="-97.5" font-family="Helvetica,sans-Serif" font-size="10.00">::current</text>
</a>
</g>
</g>
<!-- Node2&#45;&gt;Node3 -->
<g id="edge2_Node000002_Node000003" class="edge">
<title>Node2&#45;&gt;Node3</title>
<g id="a_edge2_Node000002_Node000003"><a xlink:title=" ">
<path fill="none" stroke="#63b8ff" d="M332.88,-72.62C344.25,-76.91 356.72,-81.61 369.02,-86.24"/>
<polygon fill="#63b8ff" stroke="#63b8ff" points="367.74,-89.5 378.33,-89.75 370.21,-82.95 367.74,-89.5"/>
</a>
</g>
</g>
<!-- Node5 -->
<g id="Node000005" class="node">
<title>Node5</title>
<g id="a_Node000005"><a xlink:href="$classUE_1_1FSourceLocation.html#a8e77f5040b6ea9ae6fa3da24066ee1df" xlink:title=" ">
<polygon fill="white" stroke="#666666" points="499.88,-72.12 384.12,-72.12 384.12,-38.62 499.88,-38.62 499.88,-72.12"/>
<text xml:space="preserve" text-anchor="start" x="392.12" y="-58.62" font-family="Helvetica,sans-Serif" font-size="10.00">UE::FSourceLocation</text>
<text xml:space="preserve" text-anchor="middle" x="442" y="-45.88" font-family="Helvetica,sans-Serif" font-size="10.00">::FSourceLocation</text>
</a>
</g>
</g>
<!-- Node2&#45;&gt;Node5 -->
<g id="edge4_Node000002_Node000005" class="edge">
<title>Node2&#45;&gt;Node5</title>
<g id="a_edge4_Node000002_Node000005"><a xlink:title=" ">
<path fill="none" stroke="#63b8ff" d="M344.42,-55.38C353.53,-55.38 363.04,-55.38 372.38,-55.38"/>
<polygon fill="#63b8ff" stroke="#63b8ff" points="372.14,-58.88 382.14,-55.38 372.14,-51.88 372.14,-58.88"/>
</a>
</g>
</g>
<!-- Node6 -->
<g id="Node000006" class="node">
<title>Node6</title>
<g id="a_Node000006"><a xlink:href="$UnrealTemplate_8h.html#a6affb55ac4c80f005e72b931da3d3a55" xlink:title=" ">
<polygon fill="white" stroke="#666666" points="476.62,-20.75 407.38,-20.75 407.38,0 476.62,0 476.62,-20.75"/>
<text xml:space="preserve" text-anchor="middle" x="442" y="-7.25" font-family="Helvetica,sans-Serif" font-size="10.00">MoveTemp</text>
</a>
</g>
</g>
<!-- Node2&#45;&gt;Node6 -->
<g id="edge5_Node000002_Node000006" class="edge">
<title>Node2&#45;&gt;Node6</title>
<g id="a_edge5_Node000002_Node000006"><a xlink:title=" ">
<path fill="none" stroke="#63b8ff" d="M344.42,-38.62C361.5,-33.62 379.96,-28.22 396.13,-23.5"/>
<polygon fill="#63b8ff" stroke="#63b8ff" points="396.84,-26.94 405.45,-20.77 394.87,-20.22 396.84,-26.94"/>
</a>
</g>
</g>
<!-- Node4 -->
<g id="Node000004" class="node">
<title>Node4</title>
<g id="a_Node000004"><a xlink:href="$structUE_1_1FSourceLocation_1_1FSourceLocationImpl.html#a537aa44a566301ea39101d1c8d591517" xlink:title=" ">
<polygon fill="white" stroke="#666666" points="664,-136.5 540,-136.5 540,-90.25 664,-90.25 664,-136.5"/>
<text xml:space="preserve" text-anchor="start" x="548" y="-123" font-family="Helvetica,sans-Serif" font-size="10.00">UE::FSourceLocation</text>
<text xml:space="preserve" text-anchor="start" x="548" y="-110.25" font-family="Helvetica,sans-Serif" font-size="10.00">::FSourceLocationImpl</text>
<text xml:space="preserve" text-anchor="middle" x="602" y="-97.5" font-family="Helvetica,sans-Serif" font-size="10.00">::FSourceLocationImpl</text>
</a>
</g>
</g>
<!-- Node3&#45;&gt;Node4 -->
<g id="edge3_Node000003_Node000004" class="edge">
<title>Node3&#45;&gt;Node4</title>
<g id="a_edge3_Node000003_Node000004"><a xlink:title=" ">
<path fill="none" stroke="#63b8ff" d="M504.09,-113.38C512,-113.38 520.16,-113.38 528.23,-113.38"/>
<polygon fill="#63b8ff" stroke="#63b8ff" points="528.04,-116.88 538.04,-113.38 528.04,-109.88 528.04,-116.88"/>
</a>
</g>
</g>
</g>
</svg>
