<?xml version="1.0" encoding="UTF-8" standalone="no"?>
<!DOCTYPE svg PUBLIC "-//W3C//DTD SVG 1.1//EN"
 "http://www.w3.org/Graphics/SVG/1.1/DTD/svg11.dtd">
<!-- Generated by graphviz version 14.1.4 (0)
 -->
<!-- Title: FIoBuffer::Data Pages: 1 -->
<svg width="246pt" height="146pt"
 viewBox="0.00 0.00 246.00 146.00" xmlns="http://www.w3.org/2000/svg" xmlns:xlink="http://www.w3.org/1999/xlink">
<g id="graph0" class="graph" transform="scale(1 1) rotate(0) translate(4 141.75)">
<title>FIoBuffer::Data</title>
<!-- Node1 -->
<g id="Node000001" class="node">
<title>Node1</title>
<g id="a_Node000001"><a xlink:title=" ">
<polygon fill="#999999" stroke="#666666" points="238.25,-78.75 148,-78.75 148,-58 238.25,-58 238.25,-78.75"/>
<text xml:space="preserve" text-anchor="middle" x="193.12" y="-65.25" font-family="Helvetica,sans-Serif" font-size="10.00">FIoBuffer::Data</text>
</a>
</g>
</g>
<!-- Node2 -->
<g id="Node000002" class="node">
<title>Node2</title>
<g id="a_Node000002"><a xlink:href="$classFIoBuffer.html#a47ba0e30355c44e95649a88a1571e9a2" xlink:title=" ">
<polygon fill="white" stroke="#666666" points="112,-137.75 0,-137.75 0,-117 112,-117 112,-137.75"/>
<text xml:space="preserve" text-anchor="middle" x="56" y="-124.25" font-family="Helvetica,sans-Serif" font-size="10.00">FIoBuffer::FIoBuffer</text>
</a>
</g>
</g>
<!-- Node1&#45;&gt;Node2 -->
<g id="edge1_Node000001_Node000002" class="edge">
<title>Node1&#45;&gt;Node2</title>
<g id="a_edge1_Node000001_Node000002"><a xlink:title=" ">
<path fill="none" stroke="#63b8ff" d="M161.22,-84.35C146.49,-91.73 128.51,-100.38 112,-107.38 104.52,-110.55 96.34,-113.69 88.63,-116.51"/>
<polygon fill="#63b8ff" stroke="#63b8ff" points="162.62,-87.57 169.96,-79.93 159.46,-81.32 162.62,-87.57"/>
</a>
</g>
</g>
<!-- Node3 -->
<g id="Node000003" class="node">
<title>Node3</title>
<g id="a_Node000003"><a xlink:href="$classFIoBuffer.html#ab47fde4db94bdb902354737cb4987ede" xlink:title=" ">
<polygon fill="white" stroke="#666666" points="112,-98.75 0,-98.75 0,-78 112,-78 112,-98.75"/>
<text xml:space="preserve" text-anchor="middle" x="56" y="-85.25" font-family="Helvetica,sans-Serif" font-size="10.00">FIoBuffer::FIoBuffer</text>
</a>
</g>
</g>
<!-- Node1&#45;&gt;Node3 -->
<g id="edge2_Node000001_Node000003" class="edge">
<title>Node1&#45;&gt;Node3</title>
<g id="a_edge2_Node000001_Node000003"><a xlink:title=" ">
<path fill="none" stroke="#63b8ff" d="M136.2,-76.65C128.34,-77.82 120.27,-79.01 112.42,-80.17"/>
<polygon fill="#63b8ff" stroke="#63b8ff" points="136.63,-80.13 146.01,-75.2 135.6,-73.2 136.63,-80.13"/>
</a>
</g>
</g>
<!-- Node4 -->
<g id="Node000004" class="node">
<title>Node4</title>
<g id="a_Node000004"><a xlink:href="$classFIoBuffer.html#af9c4873cafbc951ed13a3cea1b0cf29e" xlink:title=" ">
<polygon fill="white" stroke="#666666" points="112,-59.75 0,-59.75 0,-39 112,-39 112,-59.75"/>
<text xml:space="preserve" text-anchor="middle" x="56" y="-46.25" font-family="Helvetica,sans-Serif" font-size="10.00">FIoBuffer::FIoBuffer</text>
</a>
</g>
</g>
<!-- Node1&#45;&gt;Node4 -->
<g id="edge3_Node000001_Node000004" class="edge">
<title>Node1&#45;&gt;Node4</title>
<g id="a_edge3_Node000001_Node000004"><a xlink:title=" ">
<path fill="none" stroke="#63b8ff" d="M136.2,-60.51C128.34,-59.41 120.27,-58.27 112.42,-57.17"/>
<polygon fill="#63b8ff" stroke="#63b8ff" points="135.62,-63.96 146.01,-61.89 136.59,-57.03 135.62,-63.96"/>
</a>
</g>
</g>
<!-- Node5 -->
<g id="Node000005" class="node">
<title>Node5</title>
<g id="a_Node000005"><a xlink:href="$classFIoBuffer.html#a1e5b67b0b486c3208d404816c9c71831" xlink:title=" ">
<polygon fill="white" stroke="#666666" points="112,-20.75 0,-20.75 0,0 112,0 112,-20.75"/>
<text xml:space="preserve" text-anchor="middle" x="56" y="-7.25" font-family="Helvetica,sans-Serif" font-size="10.00">FIoBuffer::FIoBuffer</text>
</a>
</g>
</g>
<!-- Node1&#45;&gt;Node5 -->
<g id="edge4_Node000001_Node000005" class="edge">
<title>Node1&#45;&gt;Node5</title>
<g id="a_edge4_Node000001_Node000005"><a xlink:title=" ">
<path fill="none" stroke="#63b8ff" d="M160.87,-52.72C146.19,-45.57 128.35,-37.21 112,-30.38 104.41,-27.2 96.11,-24.03 88.32,-21.19"/>
<polygon fill="#63b8ff" stroke="#63b8ff" points="159.07,-55.73 169.59,-56.99 162.15,-49.44 159.07,-55.73"/>
</a>
</g>
</g>
</g>
</svg>
