<?xml version="1.0" encoding="UTF-8" standalone="no"?>
<!DOCTYPE svg PUBLIC "-//W3C//DTD SVG 1.1//EN"
 "http://www.w3.org/Graphics/SVG/1.1/DTD/svg11.dtd">
<!-- Generated by graphviz version 14.1.4 (0)
 -->
<!-- Title: FConfigCacheIni::GetFloat Pages: 1 -->
<svg width="334pt" height="80pt"
 viewBox="0.00 0.00 334.00 80.00" xmlns="http://www.w3.org/2000/svg" xmlns:xlink="http://www.w3.org/1999/xlink">
<g id="graph0" class="graph" transform="scale(1 1) rotate(0) translate(4 76.12)">
<title>FConfigCacheIni::GetFloat</title>
<!-- Node1 -->
<g id="Node000001" class="node">
<title>Node1</title>
<g id="a_Node000001"><a xlink:title=" ">
<polygon fill="#999999" stroke="#666666" points="326,-42.75 182.5,-42.75 182.5,-22 326,-22 326,-42.75"/>
<text xml:space="preserve" text-anchor="middle" x="254.25" y="-29.25" font-family="Helvetica,sans-Serif" font-size="10.00">FConfigCacheIni::GetFloat</text>
</a>
</g>
</g>
<!-- Node1&#45;&gt;Node1 -->
<g id="edge1_Node000001_Node000001" class="edge">
<title>Node1&#45;&gt;Node1</title>
<g id="a_edge1_Node000001_Node000001"><a xlink:title=" ">
<path fill="none" stroke="#63b8ff" d="M286.1,-54.24C281.88,-58.08 271.26,-60.75 254.25,-60.75 223.14,-60.75 213.42,-51.81 225.08,-43.15"/>
<polygon fill="#63b8ff" stroke="#63b8ff" points="289.53,-53.51 283.77,-44.62 282.72,-55.16 289.53,-53.51"/>
</a>
</g>
</g>
<!-- Node2 -->
<g id="Node000002" class="node">
<title>Node2</title>
<g id="a_Node000002"><a xlink:href="$classFConfigCacheIni.html#ac6d860cc22ab356bebe076f49b3edf23" xlink:title=" ">
<polygon fill="white" stroke="#666666" points="145,-72.12 1.5,-72.12 1.5,-38.62 145,-38.62 145,-72.12"/>
<text xml:space="preserve" text-anchor="start" x="9.5" y="-58.62" font-family="Helvetica,sans-Serif" font-size="10.00">FConfigCacheIni::GetFloat</text>
<text xml:space="preserve" text-anchor="middle" x="73.25" y="-45.88" font-family="Helvetica,sans-Serif" font-size="10.00">OrDefault</text>
</a>
</g>
</g>
<!-- Node1&#45;&gt;Node2 -->
<g id="edge2_Node000001_Node000002" class="edge">
<title>Node1&#45;&gt;Node2</title>
<g id="a_edge2_Node000001_Node000002"><a xlink:title=" ">
<path fill="none" stroke="#63b8ff" d="M171.08,-42.93C162.52,-44.03 153.88,-45.14 145.46,-46.23"/>
<polygon fill="#63b8ff" stroke="#63b8ff" points="171.27,-46.44 180.75,-41.69 170.38,-39.49 171.27,-46.44"/>
</a>
</g>
</g>
<!-- Node3 -->
<g id="Node000003" class="node">
<title>Node3</title>
<g id="a_Node000003"><a xlink:href="$classFConfigCacheIni.html#ad3d0d62d43c3652f2c4eef2ba169667f" xlink:title=" ">
<polygon fill="white" stroke="#666666" points="146.5,-20.75 0,-20.75 0,0 146.5,0 146.5,-20.75"/>
<text xml:space="preserve" text-anchor="middle" x="73.25" y="-7.25" font-family="Helvetica,sans-Serif" font-size="10.00">FConfigCacheIni::GetValue</text>
</a>
</g>
</g>
<!-- Node1&#45;&gt;Node3 -->
<g id="edge3_Node000001_Node000003" class="edge">
<title>Node1&#45;&gt;Node3</title>
<g id="a_edge3_Node000001_Node000003"><a xlink:title=" ">
<path fill="none" stroke="#63b8ff" d="M170.98,-22.26C162.95,-21.28 154.85,-20.28 146.93,-19.31"/>
<polygon fill="#63b8ff" stroke="#63b8ff" points="170.39,-25.72 180.75,-23.46 171.25,-18.77 170.39,-25.72"/>
</a>
</g>
</g>
</g>
</svg>
