<?xml version="1.0" encoding="UTF-8" standalone="no"?>
<!DOCTYPE svg PUBLIC "-//W3C//DTD SVG 1.1//EN"
 "http://www.w3.org/Graphics/SVG/1.1/DTD/svg11.dtd">
<!-- Generated by graphviz version 14.1.4 (0)
 -->
<!-- Title: FPackageId::FPackageId Pages: 1 -->
<svg width="331pt" height="341pt"
 viewBox="0.00 0.00 331.00 341.00" xmlns="http://www.w3.org/2000/svg" xmlns:xlink="http://www.w3.org/1999/xlink">
<g id="graph0" class="graph" transform="scale(1 1) rotate(0) translate(4 336.75)">
<title>FPackageId::FPackageId</title>
<!-- Node1 -->
<g id="Node000001" class="node">
<title>Node1</title>
<g id="a_Node000001"><a xlink:title=" ">
<polygon fill="#999999" stroke="#666666" points="323,-176.75 188.5,-176.75 188.5,-156 323,-156 323,-176.75"/>
<text xml:space="preserve" text-anchor="middle" x="255.75" y="-163.25" font-family="Helvetica,sans-Serif" font-size="10.00">FPackageId::FPackageId</text>
</a>
</g>
</g>
<!-- Node2 -->
<g id="Node000002" class="node">
<title>Node2</title>
<g id="a_Node000002"><a xlink:href="$classFPackageId.html#a4098ce3ebdf7d06fede033ee70f22ad0" xlink:title=" ">
<polygon fill="white" stroke="#666666" points="142.38,-332.75 10.12,-332.75 10.12,-312 142.38,-312 142.38,-332.75"/>
<text xml:space="preserve" text-anchor="middle" x="76.25" y="-319.25" font-family="Helvetica,sans-Serif" font-size="10.00">FPackageId::FromName</text>
</a>
</g>
</g>
<!-- Node1&#45;&gt;Node2 -->
<g id="edge1_Node000001_Node000002" class="edge">
<title>Node1&#45;&gt;Node2</title>
<g id="a_edge1_Node000001_Node000002"><a xlink:title=" ">
<path fill="none" stroke="#63b8ff" d="M244.73,-187.36C229.23,-217.49 196.6,-272.66 152.5,-302.38 147.01,-306.08 140.86,-309.09 134.51,-311.55"/>
<polygon fill="#63b8ff" stroke="#63b8ff" points="247.81,-189.01 249.14,-178.5 241.55,-185.89 247.81,-189.01"/>
</a>
</g>
</g>
<!-- Node3 -->
<g id="Node000003" class="node">
<title>Node3</title>
<g id="a_Node000003"><a xlink:href="$classFPackageId.html#a264ebd51382c11aa51cd9f4fe6cbbbc4" xlink:title=" ">
<polygon fill="white" stroke="#666666" points="141.62,-293.75 10.88,-293.75 10.88,-273 141.62,-273 141.62,-293.75"/>
<text xml:space="preserve" text-anchor="middle" x="76.25" y="-280.25" font-family="Helvetica,sans-Serif" font-size="10.00">FPackageId::FromValue</text>
</a>
</g>
</g>
<!-- Node1&#45;&gt;Node3 -->
<g id="edge2_Node000001_Node000003" class="edge">
<title>Node1&#45;&gt;Node3</title>
<g id="a_edge2_Node000001_Node000003"><a xlink:title=" ">
<path fill="none" stroke="#63b8ff" d="M239.29,-186.07C220.92,-208.14 188.23,-243.42 152.5,-263.38 145.89,-267.07 138.57,-270.1 131.17,-272.59"/>
<polygon fill="#63b8ff" stroke="#63b8ff" points="241.92,-188.38 245.51,-178.41 236.49,-183.96 241.92,-188.38"/>
</a>
</g>
</g>
<!-- Node4 -->
<g id="Node000004" class="node">
<title>Node4</title>
<g id="a_Node000004"><a xlink:href="$classFPackageId.html#a678459a253a15e2b528fab982bd1419d" xlink:title=" ">
<polygon fill="white" stroke="#666666" points="147.62,-254.75 4.88,-254.75 4.88,-234 147.62,-234 147.62,-254.75"/>
<text xml:space="preserve" text-anchor="middle" x="76.25" y="-241.25" font-family="Helvetica,sans-Serif" font-size="10.00">FPackageId::GetTypeHash</text>
</a>
</g>
</g>
<!-- Node1&#45;&gt;Node4 -->
<g id="edge3_Node000001_Node000004" class="edge">
<title>Node1&#45;&gt;Node4</title>
<g id="a_edge3_Node000001_Node000004"><a xlink:title=" ">
<path fill="none" stroke="#63b8ff" d="M229.1,-183.38C208.97,-196.12 179.85,-213.2 152.5,-224.38 143.87,-227.9 134.42,-230.98 125.23,-233.6"/>
<polygon fill="#63b8ff" stroke="#63b8ff" points="230.97,-186.34 237.49,-177.99 227.18,-180.46 230.97,-186.34"/>
</a>
</g>
</g>
<!-- Node5 -->
<g id="Node000005" class="node">
<title>Node5</title>
<g id="a_Node000005"><a xlink:href="$classFPackageId.html#a85a0baf9bf7e08a2fd5c6281c3ea3aba" xlink:title=" ">
<polygon fill="white" stroke="#666666" points="142,-215.75 10.5,-215.75 10.5,-195 142,-195 142,-215.75"/>
<text xml:space="preserve" text-anchor="middle" x="76.25" y="-202.25" font-family="Helvetica,sans-Serif" font-size="10.00">FPackageId::operator!=</text>
</a>
</g>
</g>
<!-- Node1&#45;&gt;Node5 -->
<g id="edge4_Node000001_Node000005" class="edge">
<title>Node1&#45;&gt;Node5</title>
<g id="a_edge4_Node000001_Node000005"><a xlink:title=" ">
<path fill="none" stroke="#63b8ff" d="M194.09,-179.7C172.13,-184.53 147.62,-189.91 126.74,-194.5"/>
<polygon fill="#63b8ff" stroke="#63b8ff" points="194.81,-183.13 203.83,-177.56 193.31,-176.29 194.81,-183.13"/>
</a>
</g>
</g>
<!-- Node6 -->
<g id="Node000006" class="node">
<title>Node6</title>
<g id="a_Node000006"><a xlink:href="$classFPackageId.html#aa2b5d592420b172bd487ef40a81cc7cd" xlink:title=" ">
<polygon fill="white" stroke="#666666" points="140.12,-176.75 12.38,-176.75 12.38,-156 140.12,-156 140.12,-176.75"/>
<text xml:space="preserve" text-anchor="middle" x="76.25" y="-163.25" font-family="Helvetica,sans-Serif" font-size="10.00">FPackageId::operator&lt;</text>
</a>
</g>
</g>
<!-- Node1&#45;&gt;Node6 -->
<g id="edge5_Node000001_Node000006" class="edge">
<title>Node1&#45;&gt;Node6</title>
<g id="a_edge5_Node000001_Node000006"><a xlink:title=" ">
<path fill="none" stroke="#63b8ff" d="M176.64,-166.38C164.52,-166.38 152.14,-166.38 140.4,-166.38"/>
<polygon fill="#63b8ff" stroke="#63b8ff" points="176.64,-169.88 186.64,-166.38 176.64,-162.88 176.64,-169.88"/>
</a>
</g>
</g>
<!-- Node7 -->
<g id="Node000007" class="node">
<title>Node7</title>
<g id="a_Node000007"><a xlink:href="$classFPackageId.html#a7704dc2127ec00562e0a5582e04efda9" xlink:title=" ">
<polygon fill="white" stroke="#666666" points="144.25,-137.75 8.25,-137.75 8.25,-117 144.25,-117 144.25,-137.75"/>
<text xml:space="preserve" text-anchor="middle" x="76.25" y="-124.25" font-family="Helvetica,sans-Serif" font-size="10.00">FPackageId::operator&lt;&lt;</text>
</a>
</g>
</g>
<!-- Node1&#45;&gt;Node7 -->
<g id="edge6_Node000001_Node000007" class="edge">
<title>Node1&#45;&gt;Node7</title>
<g id="a_edge6_Node000001_Node000007"><a xlink:title=" ">
<path fill="none" stroke="#63b8ff" d="M194.09,-153.05C172.13,-148.22 147.62,-142.84 126.74,-138.25"/>
<polygon fill="#63b8ff" stroke="#63b8ff" points="193.31,-156.46 203.83,-155.19 194.81,-149.62 193.31,-156.46"/>
</a>
</g>
</g>
<!-- Node8 -->
<g id="Node000008" class="node">
<title>Node8</title>
<g id="a_Node000008"><a xlink:href="$classFPackageId.html#ab66fcecbbcc791c10c9c5b22b8fe0218" xlink:title=" ">
<polygon fill="white" stroke="#666666" points="144.25,-98.75 8.25,-98.75 8.25,-78 144.25,-78 144.25,-98.75"/>
<text xml:space="preserve" text-anchor="middle" x="76.25" y="-85.25" font-family="Helvetica,sans-Serif" font-size="10.00">FPackageId::operator&lt;&lt;</text>
</a>
</g>
</g>
<!-- Node1&#45;&gt;Node8 -->
<g id="edge7_Node000001_Node000008" class="edge">
<title>Node1&#45;&gt;Node8</title>
<g id="a_edge7_Node000001_Node000008"><a xlink:title=" ">
<path fill="none" stroke="#63b8ff" d="M229.1,-149.37C208.97,-136.63 179.85,-119.55 152.5,-108.38 143.87,-104.85 134.42,-101.77 125.23,-99.15"/>
<polygon fill="#63b8ff" stroke="#63b8ff" points="227.18,-152.29 237.49,-154.76 230.97,-146.41 227.18,-152.29"/>
</a>
</g>
</g>
<!-- Node9 -->
<g id="Node000009" class="node">
<title>Node9</title>
<g id="a_Node000009"><a xlink:href="$classFPackageId.html#aed6a3af592e3807b151ee974f8e444a7" xlink:title=" ">
<polygon fill="white" stroke="#666666" points="144.25,-59.75 8.25,-59.75 8.25,-39 144.25,-39 144.25,-59.75"/>
<text xml:space="preserve" text-anchor="middle" x="76.25" y="-46.25" font-family="Helvetica,sans-Serif" font-size="10.00">FPackageId::operator==</text>
</a>
</g>
</g>
<!-- Node1&#45;&gt;Node9 -->
<g id="edge8_Node000001_Node000009" class="edge">
<title>Node1&#45;&gt;Node9</title>
<g id="a_edge8_Node000001_Node000009"><a xlink:title=" ">
<path fill="none" stroke="#63b8ff" d="M239.29,-146.68C220.92,-124.61 188.23,-89.33 152.5,-69.38 145.89,-65.68 138.57,-62.65 131.17,-60.16"/>
<polygon fill="#63b8ff" stroke="#63b8ff" points="236.49,-148.79 245.51,-154.34 241.92,-144.37 236.49,-148.79"/>
</a>
</g>
</g>
<!-- Node10 -->
<g id="Node000010" class="node">
<title>Node10</title>
<g id="a_Node000010"><a xlink:href="$classFPackageId.html#a97a79ef8b4c4554c9c6a38f9c713b0e1" xlink:title=" ">
<polygon fill="white" stroke="#666666" points="152.5,-20.75 0,-20.75 0,0 152.5,0 152.5,-20.75"/>
<text xml:space="preserve" text-anchor="middle" x="76.25" y="-7.25" font-family="Helvetica,sans-Serif" font-size="10.00">FPackageId::SerializeForLog</text>
</a>
</g>
</g>
<!-- Node1&#45;&gt;Node10 -->
<g id="edge9_Node000001_Node000010" class="edge">
<title>Node1&#45;&gt;Node10</title>
<g id="a_edge9_Node000001_Node000010"><a xlink:title=" ">
<path fill="none" stroke="#63b8ff" d="M244.73,-145.39C229.23,-115.26 196.6,-60.09 152.5,-30.38 147.01,-26.67 140.86,-23.66 134.51,-21.2"/>
<polygon fill="#63b8ff" stroke="#63b8ff" points="241.55,-146.86 249.14,-154.25 247.81,-143.74 241.55,-146.86"/>
</a>
</g>
</g>
</g>
</svg>
