<?xml version="1.0" encoding="UTF-8" standalone="no"?>
<!DOCTYPE svg PUBLIC "-//W3C//DTD SVG 1.1//EN"
 "http://www.w3.org/Graphics/SVG/1.1/DTD/svg11.dtd">
<!-- Generated by graphviz version 14.1.4 (0)
 -->
<!-- Title: UE::TSharedString::operator= Pages: 1 -->
<svg width="554pt" height="146pt"
 viewBox="0.00 0.00 554.00 146.00" xmlns="http://www.w3.org/2000/svg" xmlns:xlink="http://www.w3.org/1999/xlink">
<g id="graph0" class="graph" transform="scale(1 1) rotate(0) translate(4 141.5)">
<title>UE::TSharedString::operator=</title>
<!-- Node1 -->
<g id="Node000001" class="node">
<title>Node1</title>
<g id="a_Node000001"><a xlink:title=" ">
<polygon fill="#999999" stroke="#666666" points="109.75,-85.5 0,-85.5 0,-52 109.75,-52 109.75,-85.5"/>
<text xml:space="preserve" text-anchor="start" x="8" y="-72" font-family="Helvetica,sans-Serif" font-size="10.00">UE::TSharedString::</text>
<text xml:space="preserve" text-anchor="middle" x="54.88" y="-59.25" font-family="Helvetica,sans-Serif" font-size="10.00">operator=</text>
</a>
</g>
</g>
<!-- Node2 -->
<g id="Node000002" class="node">
<title>Node2</title>
<g id="a_Node000002"><a xlink:href="$classUE_1_1TSharedString.html#a39803ccc152564155a308551515e5251" xlink:title=" ">
<polygon fill="white" stroke="#666666" points="255.5,-137.5 145.75,-137.5 145.75,-104 255.5,-104 255.5,-137.5"/>
<text xml:space="preserve" text-anchor="start" x="153.75" y="-124" font-family="Helvetica,sans-Serif" font-size="10.00">UE::TSharedString::</text>
<text xml:space="preserve" text-anchor="middle" x="200.62" y="-111.25" font-family="Helvetica,sans-Serif" font-size="10.00">AddRef</text>
</a>
</g>
</g>
<!-- Node1&#45;&gt;Node2 -->
<g id="edge1_Node000001_Node000002" class="edge">
<title>Node1&#45;&gt;Node2</title>
<g id="a_edge1_Node000001_Node000002"><a xlink:title=" ">
<path fill="none" stroke="#63b8ff" d="M103.34,-85.92C115.61,-90.36 128.95,-95.19 141.69,-99.79"/>
<polygon fill="#63b8ff" stroke="#63b8ff" points="140.19,-102.97 150.78,-103.08 142.57,-96.39 140.19,-102.97"/>
</a>
</g>
</g>
<!-- Node3 -->
<g id="Node000003" class="node">
<title>Node3</title>
<g id="a_Node000003"><a xlink:href="$classUE_1_1TSharedString.html#a118ecff8573b6b6b734419799d99fa08" xlink:title=" ">
<polygon fill="white" stroke="#666666" points="255.5,-85.5 145.75,-85.5 145.75,-52 255.5,-52 255.5,-85.5"/>
<text xml:space="preserve" text-anchor="start" x="153.75" y="-72" font-family="Helvetica,sans-Serif" font-size="10.00">UE::TSharedString::</text>
<text xml:space="preserve" text-anchor="middle" x="200.62" y="-59.25" font-family="Helvetica,sans-Serif" font-size="10.00">Release</text>
</a>
</g>
</g>
<!-- Node1&#45;&gt;Node3 -->
<g id="edge2_Node000001_Node000003" class="edge">
<title>Node1&#45;&gt;Node3</title>
<g id="a_edge2_Node000001_Node000003"><a xlink:title=" ">
<path fill="none" stroke="#63b8ff" d="M110.22,-68.75C118.11,-68.75 126.3,-68.75 134.38,-68.75"/>
<polygon fill="#63b8ff" stroke="#63b8ff" points="134.17,-72.25 144.17,-68.75 134.17,-65.25 134.17,-72.25"/>
</a>
</g>
</g>
<!-- Node7 -->
<g id="Node000007" class="node">
<title>Node7</title>
<g id="a_Node000007"><a xlink:href="$classUE_1_1TSharedString.html#a6eb7f72716ff92852285bddabcb69785" xlink:title=" ">
<polygon fill="white" stroke="#666666" points="255.5,-33.5 145.75,-33.5 145.75,0 255.5,0 255.5,-33.5"/>
<text xml:space="preserve" text-anchor="start" x="153.75" y="-20" font-family="Helvetica,sans-Serif" font-size="10.00">UE::TSharedString::</text>
<text xml:space="preserve" text-anchor="middle" x="200.62" y="-7.25" font-family="Helvetica,sans-Serif" font-size="10.00">TSharedString</text>
</a>
</g>
</g>
<!-- Node1&#45;&gt;Node7 -->
<g id="edge7_Node000001_Node000007" class="edge">
<title>Node1&#45;&gt;Node7</title>
<g id="a_edge7_Node000001_Node000007"><a xlink:title=" ">
<path fill="none" stroke="#63b8ff" d="M103.34,-51.58C115.61,-47.14 128.95,-42.31 141.69,-37.71"/>
<polygon fill="#63b8ff" stroke="#63b8ff" points="142.57,-41.11 150.78,-34.42 140.19,-34.53 142.57,-41.11"/>
</a>
</g>
</g>
<!-- Node4 -->
<g id="Node000004" class="node">
<title>Node4</title>
<g id="a_Node000004"><a xlink:href="$structFMemory.html#a128d6bd210b904d184a2e2c72000ba0b" xlink:title=" ">
<polygon fill="white" stroke="#666666" points="380.25,-79.12 291.5,-79.12 291.5,-58.38 380.25,-58.38 380.25,-79.12"/>
<text xml:space="preserve" text-anchor="middle" x="335.88" y="-65.62" font-family="Helvetica,sans-Serif" font-size="10.00">FMemory::Free</text>
</a>
</g>
</g>
<!-- Node3&#45;&gt;Node4 -->
<g id="edge3_Node000003_Node000004" class="edge">
<title>Node3&#45;&gt;Node4</title>
<g id="a_edge3_Node000003_Node000004"><a xlink:title=" ">
<path fill="none" stroke="#63b8ff" d="M255.82,-68.75C263.76,-68.75 271.95,-68.75 279.9,-68.75"/>
<polygon fill="#63b8ff" stroke="#63b8ff" points="279.82,-72.25 289.82,-68.75 279.82,-65.25 279.82,-72.25"/>
</a>
</g>
</g>
<!-- Node5 -->
<g id="Node000005" class="node">
<title>Node5</title>
<g id="a_Node000005"><a xlink:href="$UnrealMemory_8h.html#ad8b6a9055e77cbb50c015482aec14dd5" xlink:title=" ">
<polygon fill="white" stroke="#666666" points="538.75,-108.12 423,-108.12 423,-87.38 538.75,-87.38 538.75,-108.12"/>
<text xml:space="preserve" text-anchor="middle" x="480.88" y="-94.62" font-family="Helvetica,sans-Serif" font-size="10.00">DoGamethreadHook</text>
</a>
</g>
</g>
<!-- Node4&#45;&gt;Node5 -->
<g id="edge4_Node000004_Node000005" class="edge">
<title>Node4&#45;&gt;Node5</title>
<g id="a_edge4_Node000004_Node000005"><a xlink:title=" ">
<path fill="none" stroke="#63b8ff" d="M380.56,-77.61C391.51,-79.83 403.5,-82.26 415.24,-84.64"/>
<polygon fill="#63b8ff" stroke="#63b8ff" points="414.39,-88.04 424.89,-86.6 415.78,-81.18 414.39,-88.04"/>
</a>
</g>
</g>
<!-- Node6 -->
<g id="Node000006" class="node">
<title>Node6</title>
<g id="a_Node000006"><a xlink:href="$structFMemory.html#ad40e43c43403a535bbf03ea37d0ba13a" xlink:title=" ">
<polygon fill="white" stroke="#666666" points="545.5,-51.12 416.25,-51.12 416.25,-30.38 545.5,-30.38 545.5,-51.12"/>
<text xml:space="preserve" text-anchor="middle" x="480.88" y="-37.62" font-family="Helvetica,sans-Serif" font-size="10.00">FMemory::FreeExternal</text>
</a>
</g>
</g>
<!-- Node4&#45;&gt;Node6 -->
<g id="edge5_Node000004_Node000006" class="edge">
<title>Node4&#45;&gt;Node6</title>
<g id="a_edge5_Node000004_Node000006"><a xlink:title=" ">
<path fill="none" stroke="#63b8ff" d="M380.56,-60.2C390.97,-58.16 402.31,-55.94 413.49,-53.75"/>
<polygon fill="#63b8ff" stroke="#63b8ff" points="413.94,-57.23 423.08,-51.87 412.59,-50.36 413.94,-57.23"/>
</a>
</g>
</g>
<!-- Node6&#45;&gt;Node6 -->
<g id="edge6_Node000006_Node000006" class="edge">
<title>Node6&#45;&gt;Node6</title>
<g id="a_edge6_Node000006_Node000006"><a xlink:title=" ">
<path fill="none" stroke="#63b8ff" d="M457.51,-51.52C448.17,-60.18 455.95,-69.12 480.88,-69.12 494.5,-69.12 503.01,-66.45 506.39,-62.61"/>
<polygon fill="#63b8ff" stroke="#63b8ff" points="509.87,-62.16 504.53,-53.01 503,-63.49 509.87,-62.16"/>
</a>
</g>
</g>
</g>
</svg>
