<?xml version="1.0" encoding="UTF-8" standalone="no"?>
<!DOCTYPE svg PUBLIC "-//W3C//DTD SVG 1.1//EN"
 "http://www.w3.org/Graphics/SVG/1.1/DTD/svg11.dtd">
<!-- Generated by graphviz version 14.1.4 (0)
 -->
<!-- Title: FSharedBuffer::MakeOwned Pages: 1 -->
<svg width="545pt" height="48pt"
 viewBox="0.00 0.00 545.00 48.00" xmlns="http://www.w3.org/2000/svg" xmlns:xlink="http://www.w3.org/1999/xlink">
<g id="graph0" class="graph" transform="scale(1 1) rotate(0) translate(4 43.75)">
<title>FSharedBuffer::MakeOwned</title>
<!-- Node1 -->
<g id="Node000001" class="node">
<title>Node1</title>
<g id="a_Node000001"><a xlink:title=" ">
<polygon fill="#999999" stroke="#666666" points="151.75,-39.75 0,-39.75 0,-19 151.75,-19 151.75,-39.75"/>
<text xml:space="preserve" text-anchor="middle" x="75.88" y="-26.25" font-family="Helvetica,sans-Serif" font-size="10.00">FSharedBuffer::MakeOwned</text>
</a>
</g>
</g>
<!-- Node2 -->
<g id="Node000002" class="node">
<title>Node2</title>
<g id="a_Node000002"><a xlink:href="$classFSharedBuffer.html#a501818a10e15626550853da572542025" xlink:title=" ">
<polygon fill="white" stroke="#666666" points="537,-39.75 375.5,-39.75 375.5,-19 537,-19 537,-39.75"/>
<text xml:space="preserve" text-anchor="middle" x="456.25" y="-26.25" font-family="Helvetica,sans-Serif" font-size="10.00">FSharedBuffer::FSharedBuffer</text>
</a>
</g>
</g>
<!-- Node1&#45;&gt;Node2 -->
<g id="edge1_Node000001_Node000002" class="edge">
<title>Node1&#45;&gt;Node2</title>
<g id="a_edge1_Node000001_Node000002"><a xlink:title=" ">
<path fill="none" stroke="#63b8ff" d="M152.08,-29.38C212.97,-29.38 298.98,-29.38 363.84,-29.38"/>
<polygon fill="#63b8ff" stroke="#63b8ff" points="363.77,-32.88 373.77,-29.38 363.77,-25.88 363.77,-32.88"/>
</a>
</g>
</g>
<!-- Node3 -->
<g id="Node000003" class="node">
<title>Node3</title>
<g id="a_Node000003"><a xlink:href="$classFSharedBuffer.html#a9bf003b9723132ceff95489fe2be0f16" xlink:title=" ">
<polygon fill="white" stroke="#666666" points="339.5,-20.75 187.75,-20.75 187.75,0 339.5,0 339.5,-20.75"/>
<text xml:space="preserve" text-anchor="middle" x="263.62" y="-7.25" font-family="Helvetica,sans-Serif" font-size="10.00">FSharedBuffer::MakeOwned</text>
</a>
</g>
</g>
<!-- Node1&#45;&gt;Node3 -->
<g id="edge2_Node000001_Node000003" class="edge">
<title>Node1&#45;&gt;Node3</title>
<g id="a_edge2_Node000001_Node000003"><a xlink:title=" ">
<path fill="none" stroke="#63b8ff" d="M152.16,-21.67C160.09,-20.86 168.19,-20.03 176.24,-19.21"/>
<polygon fill="#63b8ff" stroke="#63b8ff" points="176.44,-22.71 186.03,-18.21 175.73,-15.75 176.44,-22.71"/>
</a>
</g>
</g>
<!-- Node3&#45;&gt;Node2 -->
<g id="edge3_Node000003_Node000002" class="edge">
<title>Node3&#45;&gt;Node2</title>
<g id="a_edge3_Node000003_Node000002"><a xlink:title=" ">
<path fill="none" stroke="#63b8ff" d="M339.97,-17.88C347.82,-18.67 355.86,-19.47 363.86,-20.27"/>
<polygon fill="#63b8ff" stroke="#63b8ff" points="363.32,-23.73 373.62,-21.24 364.02,-16.76 363.32,-23.73"/>
</a>
</g>
</g>
</g>
</svg>
