<?xml version="1.0" encoding="UTF-8" standalone="no"?>
<!DOCTYPE svg PUBLIC "-//W3C//DTD SVG 1.1//EN"
 "http://www.w3.org/Graphics/SVG/1.1/DTD/svg11.dtd">
<!-- Generated by graphviz version 14.1.4 (0)
 -->
<!-- Title: FCbArrayView::Num Pages: 1 -->
<svg width="315pt" height="125pt"
 viewBox="0.00 0.00 315.00 125.00" xmlns="http://www.w3.org/2000/svg" xmlns:xlink="http://www.w3.org/1999/xlink">
<g id="graph0" class="graph" transform="scale(1 1) rotate(0) translate(4 120.75)">
<title>FCbArrayView::Num</title>
<!-- Node1 -->
<g id="Node000001" class="node">
<title>Node1</title>
<g id="a_Node000001"><a xlink:title=" ">
<polygon fill="#999999" stroke="#666666" points="306.5,-59.75 192.25,-59.75 192.25,-39 306.5,-39 306.5,-59.75"/>
<text xml:space="preserve" text-anchor="middle" x="249.38" y="-46.25" font-family="Helvetica,sans-Serif" font-size="10.00">FCbArrayView::Num</text>
</a>
</g>
</g>
<!-- Node2 -->
<g id="Node000002" class="node">
<title>Node2</title>
<g id="a_Node000002"><a xlink:href="$CompactBinarySerialization_8h.html#a796115c358319cf4665e5a60f4e240de" xlink:title=" ">
<polygon fill="white" stroke="#666666" points="147.62,-116.75 8.62,-116.75 8.62,-96 147.62,-96 147.62,-116.75"/>
<text xml:space="preserve" text-anchor="middle" x="78.12" y="-103.25" font-family="Helvetica,sans-Serif" font-size="10.00">LoadFromCompactBinary</text>
</a>
</g>
</g>
<!-- Node1&#45;&gt;Node2 -->
<g id="edge1_Node000001_Node000002" class="edge">
<title>Node1&#45;&gt;Node2</title>
<g id="a_edge1_Node000001_Node000002"><a xlink:title=" ">
<path fill="none" stroke="#63b8ff" d="M213.46,-64.62C196.4,-71.76 175.46,-80.06 156.25,-86.38 146.13,-89.7 135.12,-92.84 124.68,-95.6"/>
<polygon fill="#63b8ff" stroke="#63b8ff" points="214.82,-67.85 222.66,-60.73 212.09,-61.41 214.82,-67.85"/>
</a>
</g>
</g>
<!-- Node3 -->
<g id="Node000003" class="node">
<title>Node3</title>
<g id="a_Node000003"><a xlink:href="$CompactBinaryContainerSerialization_8h.html#a08d23593482dc34a0feae7585f9e9cae" xlink:title=" ">
<polygon fill="white" stroke="#666666" points="147.62,-59.75 8.62,-59.75 8.62,-39 147.62,-39 147.62,-59.75"/>
<text xml:space="preserve" text-anchor="middle" x="78.12" y="-46.25" font-family="Helvetica,sans-Serif" font-size="10.00">LoadFromCompactBinary</text>
</a>
</g>
</g>
<!-- Node1&#45;&gt;Node3 -->
<g id="edge2_Node000001_Node000003" class="edge">
<title>Node1&#45;&gt;Node3</title>
<g id="a_edge2_Node000001_Node000003"><a xlink:title=" ">
<path fill="none" stroke="#63b8ff" d="M180.54,-49.38C169.79,-49.38 158.66,-49.38 147.89,-49.38"/>
<polygon fill="#63b8ff" stroke="#63b8ff" points="180.5,-52.88 190.5,-49.38 180.5,-45.88 180.5,-52.88"/>
</a>
</g>
</g>
<!-- Node4 -->
<g id="Node000004" class="node">
<title>Node4</title>
<g id="a_Node000004"><a xlink:href="$classFCbArrayView.html#abd25fa69013e8ae155b42d459c925f3b" xlink:title=" ">
<polygon fill="white" stroke="#666666" points="156.25,-20.75 0,-20.75 0,0 156.25,0 156.25,-20.75"/>
<text xml:space="preserve" text-anchor="middle" x="78.12" y="-7.25" font-family="Helvetica,sans-Serif" font-size="10.00">FCbArrayView::operator bool</text>
</a>
</g>
</g>
<!-- Node1&#45;&gt;Node4 -->
<g id="edge4_Node000001_Node000004" class="edge">
<title>Node1&#45;&gt;Node4</title>
<g id="a_edge4_Node000001_Node000004"><a xlink:title=" ">
<path fill="none" stroke="#63b8ff" d="M190.25,-35.98C169.38,-31.17 146.13,-25.82 126.31,-21.25"/>
<polygon fill="#63b8ff" stroke="#63b8ff" points="189.22,-39.34 199.75,-38.17 190.8,-32.52 189.22,-39.34"/>
</a>
</g>
</g>
<!-- Node3&#45;&gt;Node3 -->
<g id="edge3_Node000003_Node000003" class="edge">
<title>Node3&#45;&gt;Node3</title>
<g id="a_edge3_Node000003_Node000003"><a xlink:title=" ">
<path fill="none" stroke="#63b8ff" d="M108.26,-71.24C104.27,-75.08 94.22,-77.75 78.12,-77.75 48.69,-77.75 39.49,-68.81 50.53,-60.15"/>
<polygon fill="#63b8ff" stroke="#63b8ff" points="111.7,-70.59 106.06,-61.62 104.88,-72.15 111.7,-70.59"/>
</a>
</g>
</g>
</g>
</svg>
