<?xml version="1.0" encoding="UTF-8" standalone="no"?>
<!DOCTYPE svg PUBLIC "-//W3C//DTD SVG 1.1//EN"
 "http://www.w3.org/Graphics/SVG/1.1/DTD/svg11.dtd">
<!-- Generated by graphviz version 14.1.4 (0)
 -->
<!-- Title: TAlignedHeapAllocator::ForAnyElementType::CalculateSlackShrink Pages: 1 -->
<svg width="494pt" height="54pt"
 viewBox="0.00 0.00 494.00 54.00" xmlns="http://www.w3.org/2000/svg" xmlns:xlink="http://www.w3.org/1999/xlink">
<g id="graph0" class="graph" transform="scale(1 1) rotate(0) translate(4 50.25)">
<title>TAlignedHeapAllocator::ForAnyElementType::CalculateSlackShrink</title>
<!-- Node1 -->
<g id="Node000001" class="node">
<title>Node1</title>
<g id="a_Node000001"><a xlink:title=" ">
<polygon fill="#999999" stroke="#666666" points="127.75,-46.25 0,-46.25 0,0 127.75,0 127.75,-46.25"/>
<text xml:space="preserve" text-anchor="start" x="8" y="-32.75" font-family="Helvetica,sans-Serif" font-size="10.00">TAlignedHeapAllocator</text>
<text xml:space="preserve" text-anchor="start" x="8" y="-20" font-family="Helvetica,sans-Serif" font-size="10.00">::ForAnyElementType::</text>
<text xml:space="preserve" text-anchor="middle" x="63.88" y="-7.25" font-family="Helvetica,sans-Serif" font-size="10.00">CalculateSlackShrink</text>
</a>
</g>
</g>
<!-- Node2 -->
<g id="Node000002" class="node">
<title>Node2</title>
<g id="a_Node000002"><a xlink:href="$ContainerAllocationPolicies_8h.html#afc5d7f68f8382d76b33edd8ecfef711d" xlink:title=" ">
<polygon fill="white" stroke="#666666" points="318.5,-33.5 163.75,-33.5 163.75,-12.75 318.5,-12.75 318.5,-33.5"/>
<text xml:space="preserve" text-anchor="middle" x="241.12" y="-20" font-family="Helvetica,sans-Serif" font-size="10.00">DefaultCalculateSlackShrink</text>
</a>
</g>
</g>
<!-- Node1&#45;&gt;Node2 -->
<g id="edge1_Node000001_Node000002" class="edge">
<title>Node1&#45;&gt;Node2</title>
<g id="a_edge1_Node000001_Node000002"><a xlink:title=" ">
<path fill="none" stroke="#63b8ff" d="M128.14,-23.12C135.94,-23.12 144.02,-23.12 152.1,-23.12"/>
<polygon fill="#63b8ff" stroke="#63b8ff" points="151.98,-26.63 161.98,-23.13 151.98,-19.63 151.98,-26.63"/>
</a>
</g>
</g>
<!-- Node3 -->
<g id="Node000003" class="node">
<title>Node3</title>
<g id="a_Node000003"><a xlink:href="$structFMemory.html#a24587823faeb4ea9b546c731f1167b13" xlink:title=" ">
<polygon fill="white" stroke="#666666" points="486,-33.5 354.5,-33.5 354.5,-12.75 486,-12.75 486,-33.5"/>
<text xml:space="preserve" text-anchor="middle" x="420.25" y="-20" font-family="Helvetica,sans-Serif" font-size="10.00">FMemory::QuantizeSize</text>
</a>
</g>
</g>
<!-- Node2&#45;&gt;Node3 -->
<g id="edge2_Node000002_Node000003" class="edge">
<title>Node2&#45;&gt;Node3</title>
<g id="a_edge2_Node000002_Node000003"><a xlink:title=" ">
<path fill="none" stroke="#63b8ff" d="M318.78,-23.12C326.7,-23.12 334.74,-23.12 342.66,-23.12"/>
<polygon fill="#63b8ff" stroke="#63b8ff" points="342.62,-26.63 352.62,-23.13 342.62,-19.63 342.62,-26.63"/>
</a>
</g>
</g>
</g>
</svg>
