<?xml version="1.0" encoding="UTF-8" standalone="no"?>
<!DOCTYPE svg PUBLIC "-//W3C//DTD SVG 1.1//EN"
 "http://www.w3.org/Graphics/SVG/1.1/DTD/svg11.dtd">
<!-- Generated by graphviz version 14.1.4 (0)
 -->
<!-- Title: FStructBuilder::AddMember Pages: 1 -->
<svg width="598pt" height="64pt"
 viewBox="0.00 0.00 598.00 64.00" xmlns="http://www.w3.org/2000/svg" xmlns:xlink="http://www.w3.org/1999/xlink">
<g id="graph0" class="graph" transform="scale(1 1) rotate(0) translate(4 59.5)">
<title>FStructBuilder::AddMember</title>
<!-- Node1 -->
<g id="Node000001" class="node">
<title>Node1</title>
<g id="a_Node000001"><a xlink:title=" ">
<polygon fill="#999999" stroke="#666666" points="589.5,-49.12 439.25,-49.12 439.25,-28.38 589.5,-28.38 589.5,-49.12"/>
<text xml:space="preserve" text-anchor="middle" x="514.38" y="-35.62" font-family="Helvetica,sans-Serif" font-size="10.00">FStructBuilder::AddMember</text>
</a>
</g>
</g>
<!-- Node2 -->
<g id="Node000002" class="node">
<title>Node2</title>
<g id="a_Node000002"><a xlink:href="$classTScriptMap.html#abc5a77a192bb5e4bbd2b3f59d842e10c" xlink:title=" ">
<polygon fill="white" stroke="#666666" points="186.25,-55.5 0,-55.5 0,-22 186.25,-22 186.25,-55.5"/>
<text xml:space="preserve" text-anchor="start" x="8" y="-42" font-family="Helvetica,sans-Serif" font-size="10.00">TScriptMap&lt; FDefaultSetAllocator,</text>
<text xml:space="preserve" text-anchor="middle" x="93.12" y="-29.25" font-family="Helvetica,sans-Serif" font-size="10.00"> FScriptMap &gt;::GetScriptLayout</text>
</a>
</g>
</g>
<!-- Node1&#45;&gt;Node2 -->
<g id="edge1_Node000001_Node000002" class="edge">
<title>Node1&#45;&gt;Node2</title>
<g id="a_edge1_Node000001_Node000002"><a xlink:title=" ">
<path fill="none" stroke="#63b8ff" d="M427.77,-42.16C419.48,-42.4 411.21,-42.61 403.25,-42.75 322.82,-44.21 302.68,-44.01 222.25,-42.75 210.68,-42.57 198.52,-42.3 186.5,-41.98"/>
<polygon fill="#63b8ff" stroke="#63b8ff" points="427.64,-45.67 437.53,-41.86 427.43,-38.67 427.64,-45.67"/>
</a>
</g>
</g>
<!-- Node3 -->
<g id="Node000003" class="node">
<title>Node3</title>
<g id="a_Node000003"><a xlink:href="$classTScriptSet.html#a9148da70562586cfadca889e5146cd6f" xlink:title=" ">
<polygon fill="white" stroke="#666666" points="403.25,-33.5 222.25,-33.5 222.25,0 403.25,0 403.25,-33.5"/>
<text xml:space="preserve" text-anchor="start" x="230.25" y="-20" font-family="Helvetica,sans-Serif" font-size="10.00">TScriptSet&lt; FDefaultSetAllocator,</text>
<text xml:space="preserve" text-anchor="middle" x="312.75" y="-7.25" font-family="Helvetica,sans-Serif" font-size="10.00"> FScriptSet &gt;::GetScriptLayout</text>
</a>
</g>
</g>
<!-- Node1&#45;&gt;Node3 -->
<g id="edge2_Node000001_Node000003" class="edge">
<title>Node1&#45;&gt;Node3</title>
<g id="a_edge2_Node000001_Node000003"><a xlink:title=" ">
<path fill="none" stroke="#63b8ff" d="M427.57,-29.29C419.58,-28.41 411.46,-27.52 403.44,-26.63"/>
<polygon fill="#63b8ff" stroke="#63b8ff" points="426.93,-32.74 437.25,-30.36 427.7,-25.79 426.93,-32.74"/>
</a>
</g>
</g>
<!-- Node3&#45;&gt;Node2 -->
<g id="edge3_Node000003_Node000002" class="edge">
<title>Node3&#45;&gt;Node2</title>
<g id="a_edge3_Node000003_Node000002"><a xlink:title=" ">
<path fill="none" stroke="#63b8ff" d="M210.65,-26.97C202.6,-27.78 194.49,-28.6 186.51,-29.41"/>
<polygon fill="#63b8ff" stroke="#63b8ff" points="210.87,-30.47 220.47,-25.98 210.17,-23.5 210.87,-30.47"/>
</a>
</g>
</g>
</g>
</svg>
