<?xml version="1.0" encoding="UTF-8" standalone="no"?>
<!DOCTYPE svg PUBLIC "-//W3C//DTD SVG 1.1//EN"
 "http://www.w3.org/Graphics/SVG/1.1/DTD/svg11.dtd">
<!-- Generated by graphviz version 14.1.4 (0)
 -->
<!-- Title: TStrongObjectPtr::IsValid Pages: 1 -->
<svg width="1194pt" height="466pt"
 viewBox="0.00 0.00 1194.00 466.00" xmlns="http://www.w3.org/2000/svg" xmlns:xlink="http://www.w3.org/1999/xlink">
<g id="graph0" class="graph" transform="scale(1 1) rotate(0) translate(4 461.75)">
<title>TStrongObjectPtr::IsValid</title>
<!-- Node1 -->
<g id="Node000001" class="node">
<title>Node1</title>
<g id="a_Node000001"><a xlink:title=" ">
<polygon fill="#999999" stroke="#666666" points="1185.75,-156.75 1048.25,-156.75 1048.25,-136 1185.75,-136 1185.75,-156.75"/>
<text xml:space="preserve" text-anchor="middle" x="1117" y="-143.25" font-family="Helvetica,sans-Serif" font-size="10.00">TStrongObjectPtr::IsValid</text>
</a>
</g>
</g>
<!-- Node2 -->
<g id="Node000002" class="node">
<title>Node2</title>
<g id="a_Node000002"><a xlink:href="$Texture2DArray_8cpp.html#af57fde33799bf316445c73b7e6d2c636" xlink:title=" ">
<polygon fill="white" stroke="#666666" points="999.88,-293.75 854.88,-293.75 854.88,-273 999.88,-273 999.88,-293.75"/>
<text xml:space="preserve" text-anchor="middle" x="927.38" y="-280.25" font-family="Helvetica,sans-Serif" font-size="10.00">GetDefaultTexture2DArray</text>
</a>
</g>
</g>
<!-- Node1&#45;&gt;Node2 -->
<g id="edge1_Node000001_Node000002" class="edge">
<title>Node1&#45;&gt;Node2</title>
<g id="a_edge1_Node000001_Node000002"><a xlink:title=" ">
<path fill="none" stroke="#63b8ff" d="M1103.85,-166.46C1086.78,-192.9 1053.16,-238.87 1012.25,-263.38 1006.09,-267.07 999.28,-270.08 992.3,-272.53"/>
<polygon fill="#63b8ff" stroke="#63b8ff" points="1106.59,-168.68 1108.95,-158.35 1100.67,-164.95 1106.59,-168.68"/>
</a>
</g>
</g>
<!-- Node18 -->
<g id="Node000018" class="node">
<title>Node18</title>
<g id="a_Node000018"><a xlink:href="$classTStrongObjectPtr.html#a73aba5ec3c417614e9388a8ed6645aa1" xlink:title=" ">
<polygon fill="white" stroke="#666666" points="1012.25,-254.75 842.5,-254.75 842.5,-234 1012.25,-234 1012.25,-254.75"/>
<text xml:space="preserve" text-anchor="middle" x="927.38" y="-241.25" font-family="Helvetica,sans-Serif" font-size="10.00">TStrongObjectPtr::operator bool</text>
</a>
</g>
</g>
<!-- Node1&#45;&gt;Node18 -->
<g id="edge35_Node000001_Node000018" class="edge">
<title>Node1&#45;&gt;Node18</title>
<g id="a_edge35_Node000001_Node000018"><a xlink:title=" ">
<path fill="none" stroke="#63b8ff" d="M1096.51,-164.97C1076.78,-182.79 1044.65,-209.15 1012.25,-224.38 1004.39,-228.07 995.79,-231.11 987.18,-233.62"/>
<polygon fill="#63b8ff" stroke="#63b8ff" points="1098.81,-167.61 1103.79,-158.26 1094.07,-162.47 1098.81,-167.61"/>
</a>
</g>
</g>
<!-- Node19 -->
<g id="Node000019" class="node">
<title>Node19</title>
<g id="a_Node000019"><a xlink:href="$classTStrongObjectPtr.html#ac8d630f670721daf3feb5f00d09ff0f3" xlink:title=" ">
<polygon fill="white" stroke="#666666" points="1006.25,-215.75 848.5,-215.75 848.5,-195 1006.25,-195 1006.25,-215.75"/>
<text xml:space="preserve" text-anchor="middle" x="927.38" y="-202.25" font-family="Helvetica,sans-Serif" font-size="10.00">TStrongObjectPtr::operator!=</text>
</a>
</g>
</g>
<!-- Node1&#45;&gt;Node19 -->
<g id="edge36_Node000001_Node000019" class="edge">
<title>Node1&#45;&gt;Node19</title>
<g id="a_edge36_Node000001_Node000019"><a xlink:title=" ">
<path fill="none" stroke="#63b8ff" d="M1079.23,-161.48C1059.56,-169.24 1034.81,-178.47 1012.25,-185.38 1001.37,-188.7 989.56,-191.82 978.33,-194.55"/>
<polygon fill="#63b8ff" stroke="#63b8ff" points="1080.48,-164.75 1088.47,-157.8 1077.89,-158.25 1080.48,-164.75"/>
</a>
</g>
</g>
<!-- Node20 -->
<g id="Node000020" class="node">
<title>Node20</title>
<g id="a_Node000020"><a xlink:href="$classTStrongObjectPtr.html#aac1777981a1c797ffe052a08fd128881" xlink:title=" ">
<polygon fill="white" stroke="#666666" points="1006.25,-176.75 848.5,-176.75 848.5,-156 1006.25,-156 1006.25,-176.75"/>
<text xml:space="preserve" text-anchor="middle" x="927.38" y="-163.25" font-family="Helvetica,sans-Serif" font-size="10.00">TStrongObjectPtr::operator!=</text>
</a>
</g>
</g>
<!-- Node1&#45;&gt;Node20 -->
<g id="edge37_Node000001_Node000020" class="edge">
<title>Node1&#45;&gt;Node20</title>
<g id="a_edge37_Node000001_Node000020"><a xlink:title=" ">
<path fill="none" stroke="#63b8ff" d="M1036.84,-154.81C1026.85,-155.88 1016.63,-156.97 1006.65,-158.03"/>
<polygon fill="#63b8ff" stroke="#63b8ff" points="1036.92,-158.32 1046.49,-153.78 1036.18,-151.36 1036.92,-158.32"/>
</a>
</g>
</g>
<!-- Node21 -->
<g id="Node000021" class="node">
<title>Node21</title>
<g id="a_Node000021"><a xlink:href="$classTStrongObjectPtr.html#a4306e02d5d0c183d9004bfce9068150a" xlink:title=" ">
<polygon fill="white" stroke="#666666" points="1002.88,-137.75 851.88,-137.75 851.88,-117 1002.88,-117 1002.88,-137.75"/>
<text xml:space="preserve" text-anchor="middle" x="927.38" y="-124.25" font-family="Helvetica,sans-Serif" font-size="10.00">TStrongObjectPtr::operator*</text>
</a>
</g>
</g>
<!-- Node1&#45;&gt;Node21 -->
<g id="edge38_Node000001_Node000021" class="edge">
<title>Node1&#45;&gt;Node21</title>
<g id="a_edge38_Node000001_Node000021"><a xlink:title=" ">
<path fill="none" stroke="#63b8ff" d="M1036.57,-138.33C1025.48,-137.21 1014.12,-136.06 1003.12,-134.94"/>
<polygon fill="#63b8ff" stroke="#63b8ff" points="1036.19,-141.81 1046.49,-139.34 1036.9,-134.85 1036.19,-141.81"/>
</a>
</g>
</g>
<!-- Node22 -->
<g id="Node000022" class="node">
<title>Node22</title>
<g id="a_Node000022"><a xlink:href="$classTStrongObjectPtr.html#a42f03ae0d2708401538ebaf79f0df3bd" xlink:title=" ">
<polygon fill="white" stroke="#666666" points="1005.88,-98.75 848.88,-98.75 848.88,-78 1005.88,-78 1005.88,-98.75"/>
<text xml:space="preserve" text-anchor="middle" x="927.38" y="-85.25" font-family="Helvetica,sans-Serif" font-size="10.00">TStrongObjectPtr::operator&#45;&gt;</text>
</a>
</g>
</g>
<!-- Node1&#45;&gt;Node22 -->
<g id="edge39_Node000001_Node000022" class="edge">
<title>Node1&#45;&gt;Node22</title>
<g id="a_edge39_Node000001_Node000022"><a xlink:title=" ">
<path fill="none" stroke="#63b8ff" d="M1078.79,-131.55C1059.18,-124.04 1034.62,-115.11 1012.25,-108.38 1001.21,-105.05 989.23,-101.92 977.86,-99.16"/>
<polygon fill="#63b8ff" stroke="#63b8ff" points="1077.42,-134.77 1088.01,-135.12 1079.95,-128.24 1077.42,-134.77"/>
</a>
</g>
</g>
<!-- Node23 -->
<g id="Node000023" class="node">
<title>Node23</title>
<g id="a_Node000023"><a xlink:href="$classTStrongObjectPtr.html#a1fe320844891e88a4e97b57e682d0a47" xlink:title=" ">
<polygon fill="white" stroke="#666666" points="1008.5,-59.75 846.25,-59.75 846.25,-39 1008.5,-39 1008.5,-59.75"/>
<text xml:space="preserve" text-anchor="middle" x="927.38" y="-46.25" font-family="Helvetica,sans-Serif" font-size="10.00">TStrongObjectPtr::operator==</text>
</a>
</g>
</g>
<!-- Node1&#45;&gt;Node23 -->
<g id="edge40_Node000001_Node000023" class="edge">
<title>Node1&#45;&gt;Node23</title>
<g id="a_edge40_Node000001_Node000023"><a xlink:title=" ">
<path fill="none" stroke="#63b8ff" d="M1096.47,-128.03C1076.7,-110.45 1044.54,-84.43 1012.25,-69.38 1004.38,-65.71 995.77,-62.67 987.16,-60.18"/>
<polygon fill="#63b8ff" stroke="#63b8ff" points="1094,-130.51 1103.75,-134.65 1098.71,-125.33 1094,-130.51"/>
</a>
</g>
</g>
<!-- Node24 -->
<g id="Node000024" class="node">
<title>Node24</title>
<g id="a_Node000024"><a xlink:href="$classTStrongObjectPtr.html#a4acc21d0e2a5133f88a3e688c32045cf" xlink:title=" ">
<polygon fill="white" stroke="#666666" points="1008.5,-20.75 846.25,-20.75 846.25,0 1008.5,0 1008.5,-20.75"/>
<text xml:space="preserve" text-anchor="middle" x="927.38" y="-7.25" font-family="Helvetica,sans-Serif" font-size="10.00">TStrongObjectPtr::operator==</text>
</a>
</g>
</g>
<!-- Node1&#45;&gt;Node24 -->
<g id="edge41_Node000001_Node000024" class="edge">
<title>Node1&#45;&gt;Node24</title>
<g id="a_edge41_Node000001_Node000024"><a xlink:title=" ">
<path fill="none" stroke="#63b8ff" d="M1103.58,-126.11C1086.4,-99.85 1052.84,-54.57 1012.25,-30.38 1006.08,-26.7 999.27,-23.69 992.29,-21.24"/>
<polygon fill="#63b8ff" stroke="#63b8ff" points="1100.6,-127.94 1108.92,-134.5 1106.5,-124.18 1100.6,-127.94"/>
</a>
</g>
</g>
<!-- Node3 -->
<g id="Node000003" class="node">
<title>Node3</title>
<g id="a_Node000003"><a xlink:href="$classUTexture2DArray.html#a467c195c003d8a9bf5ccfe6ce280e4a0" xlink:title=" ">
<polygon fill="white" stroke="#666666" points="592.12,-295.12 430.62,-295.12 430.62,-261.62 592.12,-261.62 592.12,-295.12"/>
<text xml:space="preserve" text-anchor="start" x="438.62" y="-281.62" font-family="Helvetica,sans-Serif" font-size="10.00">UTexture2DArray::CalcTexture</text>
<text xml:space="preserve" text-anchor="middle" x="511.38" y="-268.88" font-family="Helvetica,sans-Serif" font-size="10.00">MemorySize</text>
</a>
</g>
</g>
<!-- Node2&#45;&gt;Node3 -->
<g id="edge2_Node000002_Node000003" class="edge">
<title>Node2&#45;&gt;Node3</title>
<g id="a_edge2_Node000002_Node000003"><a xlink:title=" ">
<path fill="none" stroke="#63b8ff" d="M843.29,-282.37C770.19,-281.49 664.47,-280.21 592.32,-279.34"/>
<polygon fill="#63b8ff" stroke="#63b8ff" points="843.18,-285.87 853.22,-282.49 843.26,-278.87 843.18,-285.87"/>
</a>
</g>
</g>
<!-- Node7 -->
<g id="Node000007" class="node">
<title>Node7</title>
<g id="a_Node000007"><a xlink:href="$classUTexture2DArray.html#a4f62610d1e5bd15eeaa5202c880a1e46" xlink:title=" ">
<polygon fill="white" stroke="#666666" points="602.25,-403.75 420.5,-403.75 420.5,-383 602.25,-383 602.25,-403.75"/>
<text xml:space="preserve" text-anchor="middle" x="511.38" y="-390.25" font-family="Helvetica,sans-Serif" font-size="10.00">UTexture2DArray::CreateResource</text>
</a>
</g>
</g>
<!-- Node2&#45;&gt;Node7 -->
<g id="edge7_Node000002_Node000007" class="edge">
<title>Node2&#45;&gt;Node7</title>
<g id="a_edge7_Node000002_Node000007"><a xlink:title=" ">
<path fill="none" stroke="#63b8ff" d="M908.39,-302.04C886.54,-323.34 847.51,-357.17 806.5,-372.38 741.22,-396.57 662.29,-400.99 602.64,-399.81"/>
<polygon fill="#63b8ff" stroke="#63b8ff" points="910.73,-304.65 915.32,-295.11 905.78,-299.7 910.73,-304.65"/>
</a>
</g>
</g>
<!-- Node8 -->
<g id="Node000008" class="node">
<title>Node8</title>
<g id="a_Node000008"><a xlink:href="$classUTexture2DArray.html#a8369b822e52b9723795ec034116c6137" xlink:title=" ">
<polygon fill="white" stroke="#666666" points="806.5,-237.75 638.25,-237.75 638.25,-217 806.5,-217 806.5,-237.75"/>
<text xml:space="preserve" text-anchor="middle" x="722.38" y="-224.25" font-family="Helvetica,sans-Serif" font-size="10.00">UTexture2DArray::GetArraySize</text>
</a>
</g>
</g>
<!-- Node2&#45;&gt;Node8 -->
<g id="edge8_Node000002_Node000008" class="edge">
<title>Node2&#45;&gt;Node8</title>
<g id="a_edge8_Node000002_Node000008"><a xlink:title=" ">
<path fill="none" stroke="#63b8ff" d="M867.75,-269.87C859.26,-267.77 850.64,-265.57 842.5,-263.38 813.61,-255.57 781.11,-245.68 757.37,-238.23"/>
<polygon fill="#63b8ff" stroke="#63b8ff" points="866.77,-273.23 877.32,-272.19 868.43,-266.43 866.77,-273.23"/>
</a>
</g>
</g>
<!-- Node11 -->
<g id="Node000011" class="node">
<title>Node11</title>
<g id="a_Node000011"><a xlink:href="$classUTexture2DArray.html#a7b87bf8573dc1edf68dca65bfc83531d" xlink:title=" ">
<polygon fill="white" stroke="#666666" points="806.5,-439.75 638.25,-439.75 638.25,-419 806.5,-419 806.5,-439.75"/>
<text xml:space="preserve" text-anchor="middle" x="722.38" y="-426.25" font-family="Helvetica,sans-Serif" font-size="10.00">UTexture2DArray::GetNumMips</text>
</a>
</g>
</g>
<!-- Node2&#45;&gt;Node11 -->
<g id="edge13_Node000002_Node000011" class="edge">
<title>Node2&#45;&gt;Node11</title>
<g id="a_edge13_Node000002_Node000011"><a xlink:title=" ">
<path fill="none" stroke="#63b8ff" d="M912.19,-303.21C891.82,-330.26 851.73,-378.41 806.5,-405.38 797.21,-410.91 786.57,-415.23 776.08,-418.59"/>
<polygon fill="#63b8ff" stroke="#63b8ff" points="914.99,-305.31 918.1,-295.19 909.35,-301.16 914.99,-305.31"/>
</a>
</g>
</g>
<!-- Node12 -->
<g id="Node000012" class="node">
<title>Node12</title>
<g id="a_Node000012"><a xlink:href="$classUTexture2DArray.html#a1299a787b867917bbe53914bb009aa22" xlink:title=" ">
<polygon fill="white" stroke="#666666" points="795.25,-345.12 649.5,-345.12 649.5,-311.62 795.25,-311.62 795.25,-345.12"/>
<text xml:space="preserve" text-anchor="start" x="657.5" y="-331.62" font-family="Helvetica,sans-Serif" font-size="10.00">UTexture2DArray::GetPixel</text>
<text xml:space="preserve" text-anchor="middle" x="722.38" y="-318.88" font-family="Helvetica,sans-Serif" font-size="10.00">Format</text>
</a>
</g>
</g>
<!-- Node2&#45;&gt;Node12 -->
<g id="edge18_Node000002_Node000012" class="edge">
<title>Node2&#45;&gt;Node12</title>
<g id="a_edge18_Node000002_Node000012"><a xlink:title=" ">
<path fill="none" stroke="#63b8ff" d="M866.53,-296.64C844.31,-301.57 818.87,-307.21 795.65,-312.35"/>
<polygon fill="#63b8ff" stroke="#63b8ff" points="867.01,-300.12 876.02,-294.54 865.49,-293.29 867.01,-300.12"/>
</a>
</g>
</g>
<!-- Node14 -->
<g id="Node000014" class="node">
<title>Node14</title>
<g id="a_Node000014"><a xlink:href="$classUTexture2DArray.html#afcabacb6f77cda2b6b4fe0074473a455" xlink:title=" ">
<polygon fill="white" stroke="#666666" points="796.75,-180.75 648,-180.75 648,-160 796.75,-160 796.75,-180.75"/>
<text xml:space="preserve" text-anchor="middle" x="722.38" y="-167.25" font-family="Helvetica,sans-Serif" font-size="10.00">UTexture2DArray::GetSizeX</text>
</a>
</g>
</g>
<!-- Node2&#45;&gt;Node14 -->
<g id="edge24_Node000002_Node000014" class="edge">
<title>Node2&#45;&gt;Node14</title>
<g id="a_edge24_Node000002_Node000014"><a xlink:title=" ">
<path fill="none" stroke="#63b8ff" d="M849.46,-267.71C847.05,-266.38 844.72,-264.94 842.5,-263.38 818.6,-246.57 828.66,-227.42 806.5,-208.38 792.42,-196.27 773.85,-187.3 757.83,-181.11"/>
<polygon fill="#63b8ff" stroke="#63b8ff" points="847.84,-270.81 858.37,-271.92 850.83,-264.48 847.84,-270.81"/>
</a>
</g>
</g>
<!-- Node16 -->
<g id="Node000016" class="node">
<title>Node16</title>
<g id="a_Node000016"><a xlink:href="$classUTexture2DArray.html#a6d05766fec1176b801969b02ab305a3f" xlink:title=" ">
<polygon fill="white" stroke="#666666" points="796.38,-123.75 648.38,-123.75 648.38,-103 796.38,-103 796.38,-123.75"/>
<text xml:space="preserve" text-anchor="middle" x="722.38" y="-110.25" font-family="Helvetica,sans-Serif" font-size="10.00">UTexture2DArray::GetSizeY</text>
</a>
</g>
</g>
<!-- Node2&#45;&gt;Node16 -->
<g id="edge30_Node000002_Node000016" class="edge">
<title>Node2&#45;&gt;Node16</title>
<g id="a_edge30_Node000002_Node000016"><a xlink:title=" ">
<path fill="none" stroke="#63b8ff" d="M846.36,-266.62C845.02,-265.6 843.74,-264.52 842.5,-263.38 804.13,-227.85 841.23,-190.46 806.5,-151.38 795.22,-138.68 778.85,-129.96 763.61,-124.11"/>
<polygon fill="#63b8ff" stroke="#63b8ff" points="844.17,-269.38 854.49,-271.75 847.9,-263.46 844.17,-269.38"/>
</a>
</g>
</g>
<!-- Node3&#45;&gt;Node3 -->
<g id="edge4_Node000003_Node000003" class="edge">
<title>Node3&#45;&gt;Node3</title>
<g id="a_edge4_Node000003_Node000003"><a xlink:title=" ">
<path fill="none" stroke="#63b8ff" d="M546.56,-306.68C540.7,-310.55 528.98,-313.12 511.38,-313.12 479.64,-313.12 467,-304.74 473.44,-295.54"/>
<polygon fill="#63b8ff" stroke="#63b8ff" points="549.95,-307.56 548.94,-297.01 543.15,-305.88 549.95,-307.56"/>
</a>
</g>
</g>
<!-- Node4 -->
<g id="Node000004" class="node">
<title>Node4</title>
<g id="a_Node000004"><a xlink:href="$classUTexture2DArray.html#a4aa84f00592295efcdf2babdbc8cb068" xlink:title=" ">
<polygon fill="white" stroke="#666666" points="384.5,-295.12 202.75,-295.12 202.75,-261.62 384.5,-261.62 384.5,-295.12"/>
<text xml:space="preserve" text-anchor="start" x="210.75" y="-281.62" font-family="Helvetica,sans-Serif" font-size="10.00">UTexture2DArray::CalcCumulative</text>
<text xml:space="preserve" text-anchor="middle" x="293.62" y="-268.88" font-family="Helvetica,sans-Serif" font-size="10.00">LODSize</text>
</a>
</g>
</g>
<!-- Node3&#45;&gt;Node4 -->
<g id="edge3_Node000003_Node000004" class="edge">
<title>Node3&#45;&gt;Node4</title>
<g id="a_edge3_Node000003_Node000004"><a xlink:title=" ">
<path fill="none" stroke="#63b8ff" d="M419.07,-278.38C407.69,-278.38 396.06,-278.38 384.7,-278.38"/>
<polygon fill="#63b8ff" stroke="#63b8ff" points="418.83,-281.88 428.83,-278.38 418.83,-274.88 418.83,-281.88"/>
</a>
</g>
</g>
<!-- Node5 -->
<g id="Node000005" class="node">
<title>Node5</title>
<g id="a_Node000005"><a xlink:href="$classUTexture2DArray.html#a7bff8f6e2433b44dd5582d93855b236c" xlink:title=" ">
<polygon fill="white" stroke="#666666" points="374.38,-397.12 212.88,-397.12 212.88,-363.62 374.38,-363.62 374.38,-397.12"/>
<text xml:space="preserve" text-anchor="start" x="220.88" y="-383.62" font-family="Helvetica,sans-Serif" font-size="10.00">UTexture2DArray::CalcTexture</text>
<text xml:space="preserve" text-anchor="middle" x="293.62" y="-370.88" font-family="Helvetica,sans-Serif" font-size="10.00">MemorySizeEnum</text>
</a>
</g>
</g>
<!-- Node3&#45;&gt;Node5 -->
<g id="edge5_Node000003_Node000005" class="edge">
<title>Node3&#45;&gt;Node5</title>
<g id="a_edge5_Node000003_Node000005"><a xlink:title=" ">
<path fill="none" stroke="#63b8ff" d="M464.01,-300.3C424.15,-319.14 367.46,-345.94 330.85,-363.25"/>
<polygon fill="#63b8ff" stroke="#63b8ff" points="465.35,-303.53 472.89,-296.09 462.36,-297.2 465.35,-303.53"/>
</a>
</g>
</g>
<!-- Node6 -->
<g id="Node000006" class="node">
<title>Node6</title>
<g id="a_Node000006"><a xlink:href="$classUTexture2DArray.html#a29fcfaf859346880aabdf6bed2f20ada" xlink:title=" ">
<polygon fill="white" stroke="#666666" points="166.75,-397.12 0,-397.12 0,-363.62 166.75,-363.62 166.75,-397.12"/>
<text xml:space="preserve" text-anchor="start" x="8" y="-383.62" font-family="Helvetica,sans-Serif" font-size="10.00">UTexture2DArray::GetResource</text>
<text xml:space="preserve" text-anchor="middle" x="83.38" y="-370.88" font-family="Helvetica,sans-Serif" font-size="10.00">SizeEx</text>
</a>
</g>
</g>
<!-- Node5&#45;&gt;Node6 -->
<g id="edge6_Node000005_Node000006" class="edge">
<title>Node5&#45;&gt;Node6</title>
<g id="a_edge6_Node000005_Node000006"><a xlink:title=" ">
<path fill="none" stroke="#63b8ff" d="M201.13,-380.38C189.76,-380.38 178.19,-380.38 166.96,-380.38"/>
<polygon fill="#63b8ff" stroke="#63b8ff" points="200.89,-383.88 210.89,-380.38 200.89,-376.88 200.89,-383.88"/>
</a>
</g>
</g>
<!-- Node8&#45;&gt;Node3 -->
<g id="edge9_Node000008_Node000003" class="edge">
<title>Node8&#45;&gt;Node3</title>
<g id="a_edge9_Node000008_Node000003"><a xlink:title=" ">
<path fill="none" stroke="#63b8ff" d="M666.1,-240.86C640.62,-247.08 610.07,-254.53 582.95,-261.15"/>
<polygon fill="#63b8ff" stroke="#63b8ff" points="666.7,-244.32 675.58,-238.55 665.04,-237.52 666.7,-244.32"/>
</a>
</g>
</g>
<!-- Node8&#45;&gt;Node8 -->
<g id="edge10_Node000008_Node000008" class="edge">
<title>Node8&#45;&gt;Node8</title>
<g id="a_edge10_Node000008_Node000008"><a xlink:title=" ">
<path fill="none" stroke="#63b8ff" d="M758.45,-249.24C753.67,-253.08 741.64,-255.75 722.38,-255.75 687.14,-255.75 676.13,-246.81 689.34,-238.15"/>
<polygon fill="#63b8ff" stroke="#63b8ff" points="761.83,-248.33 755.81,-239.61 755.08,-250.18 761.83,-248.33"/>
</a>
</g>
</g>
<!-- Node9 -->
<g id="Node000009" class="node">
<title>Node9</title>
<g id="a_Node000009"><a xlink:href="$classUTexture2DArray.html#a46427feaedffc15ebc4f4b7f6ca28dbf" xlink:title=" ">
<polygon fill="white" stroke="#666666" points="584.25,-191.75 438.5,-191.75 438.5,-171 584.25,-171 584.25,-191.75"/>
<text xml:space="preserve" text-anchor="middle" x="511.38" y="-178.25" font-family="Helvetica,sans-Serif" font-size="10.00">UTexture2DArray::GetDesc</text>
</a>
</g>
</g>
<!-- Node8&#45;&gt;Node9 -->
<g id="edge11_Node000008_Node000009" class="edge">
<title>Node8&#45;&gt;Node9</title>
<g id="a_edge11_Node000008_Node000009"><a xlink:title=" ">
<path fill="none" stroke="#63b8ff" d="M663.07,-213.98C643.73,-209.59 622.08,-204.72 602.25,-200.38 589.94,-197.68 576.67,-194.84 564.21,-192.2"/>
<polygon fill="#63b8ff" stroke="#63b8ff" points="662.16,-217.36 672.69,-216.17 663.71,-210.54 662.16,-217.36"/>
</a>
</g>
</g>
<!-- Node10 -->
<g id="Node000010" class="node">
<title>Node10</title>
<g id="a_Node000010"><a xlink:href="$classUTexture2DArray.html#aa04736ed067c37d8c46fc99c94b6c775" xlink:title=" ">
<polygon fill="white" stroke="#666666" points="590.62,-243.12 432.12,-243.12 432.12,-209.62 590.62,-209.62 590.62,-243.12"/>
<text xml:space="preserve" text-anchor="start" x="440.12" y="-229.62" font-family="Helvetica,sans-Serif" font-size="10.00">UTexture2DArray::GetSurface</text>
<text xml:space="preserve" text-anchor="middle" x="511.38" y="-216.88" font-family="Helvetica,sans-Serif" font-size="10.00">ArraySize</text>
</a>
</g>
</g>
<!-- Node8&#45;&gt;Node10 -->
<g id="edge12_Node000008_Node000010" class="edge">
<title>Node8&#45;&gt;Node10</title>
<g id="a_edge12_Node000008_Node000010"><a xlink:title=" ">
<path fill="none" stroke="#63b8ff" d="M626.54,-226.92C614.65,-226.86 602.6,-226.81 590.99,-226.75"/>
<polygon fill="#63b8ff" stroke="#63b8ff" points="626.34,-230.42 636.36,-226.97 626.37,-223.42 626.34,-230.42"/>
</a>
</g>
</g>
<!-- Node11&#45;&gt;Node3 -->
<g id="edge14_Node000011_Node000003" class="edge">
<title>Node11&#45;&gt;Node3</title>
<g id="a_edge14_Node000011_Node000003"><a xlink:title=" ">
<path fill="none" stroke="#63b8ff" d="M691.97,-412.7C675.17,-402.36 654.31,-388.07 638.25,-372.38 618.67,-353.24 623.18,-340.04 602.25,-322.38 589.24,-311.39 573.02,-302.37 557.95,-295.42"/>
<polygon fill="#63b8ff" stroke="#63b8ff" points="690.15,-415.69 700.53,-417.83 693.75,-409.69 690.15,-415.69"/>
</a>
</g>
</g>
<!-- Node11&#45;&gt;Node5 -->
<g id="edge15_Node000011_Node000005" class="edge">
<title>Node11&#45;&gt;Node5</title>
<g id="a_edge15_Node000011_Node000005"><a xlink:title=" ">
<path fill="none" stroke="#63b8ff" d="M626.65,-428.68C567.16,-427.1 489,-422.92 420.5,-412.38 397.99,-408.91 373.65,-403.2 352.43,-397.55"/>
<polygon fill="#63b8ff" stroke="#63b8ff" points="626.32,-432.18 636.4,-428.92 626.49,-425.18 626.32,-432.18"/>
</a>
</g>
</g>
<!-- Node11&#45;&gt;Node7 -->
<g id="edge16_Node000011_Node000007" class="edge">
<title>Node11&#45;&gt;Node7</title>
<g id="a_edge16_Node000011_Node000007"><a xlink:title=" ">
<path fill="none" stroke="#63b8ff" d="M647.05,-416.57C623.56,-412.53 597.85,-408.1 575.24,-404.2"/>
<polygon fill="#63b8ff" stroke="#63b8ff" points="646.44,-420.02 656.89,-418.27 647.63,-413.12 646.44,-420.02"/>
</a>
</g>
</g>
<!-- Node11&#45;&gt;Node11 -->
<g id="edge17_Node000011_Node000011" class="edge">
<title>Node11&#45;&gt;Node11</title>
<g id="a_edge17_Node000011_Node000011"><a xlink:title=" ">
<path fill="none" stroke="#63b8ff" d="M758.45,-451.24C753.67,-455.08 741.64,-457.75 722.38,-457.75 687.14,-457.75 676.13,-448.81 689.34,-440.15"/>
<polygon fill="#63b8ff" stroke="#63b8ff" points="761.83,-450.33 755.81,-441.61 755.08,-452.18 761.83,-450.33"/>
</a>
</g>
</g>
<!-- Node12&#45;&gt;Node3 -->
<g id="edge19_Node000012_Node000003" class="edge">
<title>Node12&#45;&gt;Node3</title>
<g id="a_edge19_Node000012_Node000003"><a xlink:title=" ">
<path fill="none" stroke="#63b8ff" d="M638.46,-308.54C620.59,-304.26 601.85,-299.78 584.43,-295.61"/>
<polygon fill="#63b8ff" stroke="#63b8ff" points="637.44,-311.89 647.98,-310.82 639.07,-305.08 637.44,-311.89"/>
</a>
</g>
</g>
<!-- Node12&#45;&gt;Node7 -->
<g id="edge20_Node000012_Node000007" class="edge">
<title>Node12&#45;&gt;Node7</title>
<g id="a_edge20_Node000012_Node000007"><a xlink:title=" ">
<path fill="none" stroke="#63b8ff" d="M671.07,-349.86C650.06,-358.29 625.24,-367.56 602.25,-374.38 592.01,-377.41 580.97,-380.16 570.25,-382.57"/>
<polygon fill="#63b8ff" stroke="#63b8ff" points="672.33,-353.12 680.27,-346.11 669.69,-346.64 672.33,-353.12"/>
</a>
</g>
</g>
<!-- Node12&#45;&gt;Node9 -->
<g id="edge22_Node000012_Node000009" class="edge">
<title>Node12&#45;&gt;Node9</title>
<g id="a_edge22_Node000012_Node000009"><a xlink:title=" ">
<path fill="none" stroke="#63b8ff" d="M684.3,-304.74C668.86,-293.71 651.48,-279.66 638.25,-264.38 616.89,-239.7 628.56,-219.69 602.25,-200.38 596.85,-196.41 590.8,-193.24 584.47,-190.7"/>
<polygon fill="#63b8ff" stroke="#63b8ff" points="682.16,-307.51 692.37,-310.33 686.15,-301.76 682.16,-307.51"/>
</a>
</g>
</g>
<!-- Node12&#45;&gt;Node12 -->
<g id="edge23_Node000012_Node000012" class="edge">
<title>Node12&#45;&gt;Node12</title>
<g id="a_edge23_Node000012_Node000012"><a xlink:title=" ">
<path fill="none" stroke="#63b8ff" d="M756.56,-356.68C750.87,-360.55 739.48,-363.12 722.38,-363.12 691.54,-363.12 679.26,-354.74 685.52,-345.54"/>
<polygon fill="#63b8ff" stroke="#63b8ff" points="759.95,-357.55 758.87,-347.01 753.14,-355.92 759.95,-357.55"/>
</a>
</g>
</g>
<!-- Node13 -->
<g id="Node000013" class="node">
<title>Node13</title>
<g id="a_Node000013"><a xlink:href="$classUTexture2DArray.html#a10c95e417fa26f5d735e2d22fa150426" xlink:title=" ">
<polygon fill="white" stroke="#666666" points="585.75,-365.12 437,-365.12 437,-331.62 585.75,-331.62 585.75,-365.12"/>
<text xml:space="preserve" text-anchor="start" x="445" y="-351.62" font-family="Helvetica,sans-Serif" font-size="10.00">UTexture2DArray::GetAsset</text>
<text xml:space="preserve" text-anchor="middle" x="511.38" y="-338.88" font-family="Helvetica,sans-Serif" font-size="10.00">RegistryTags</text>
</a>
</g>
</g>
<!-- Node12&#45;&gt;Node13 -->
<g id="edge21_Node000012_Node000013" class="edge">
<title>Node12&#45;&gt;Node13</title>
<g id="a_edge21_Node000012_Node000013"><a xlink:title=" ">
<path fill="none" stroke="#63b8ff" d="M638,-336.35C620.81,-338 602.83,-339.72 586.02,-341.33"/>
<polygon fill="#63b8ff" stroke="#63b8ff" points="638.03,-339.87 647.65,-335.43 637.36,-332.9 638.03,-339.87"/>
</a>
</g>
</g>
<!-- Node14&#45;&gt;Node3 -->
<g id="edge25_Node000014_Node000003" class="edge">
<title>Node14&#45;&gt;Node3</title>
<g id="a_edge25_Node000014_Node000003"><a xlink:title=" ">
<path fill="none" stroke="#63b8ff" d="M678.46,-185.55C664.86,-191.49 650.25,-199.12 638.25,-208.38 618.24,-223.81 623.34,-238.46 602.25,-252.38 597.1,-255.77 591.5,-258.74 585.69,-261.32"/>
<polygon fill="#63b8ff" stroke="#63b8ff" points="679.79,-188.79 687.69,-181.73 677.11,-182.32 679.79,-188.79"/>
</a>
</g>
</g>
<!-- Node14&#45;&gt;Node9 -->
<g id="edge26_Node000014_Node000009" class="edge">
<title>Node14&#45;&gt;Node9</title>
<g id="a_edge26_Node000014_Node000009"><a xlink:title=" ">
<path fill="none" stroke="#63b8ff" d="M636.52,-174.84C619.33,-175.75 601.4,-176.69 584.69,-177.57"/>
<polygon fill="#63b8ff" stroke="#63b8ff" points="636.38,-178.35 646.18,-174.33 636.01,-171.36 636.38,-178.35"/>
</a>
</g>
</g>
<!-- Node14&#45;&gt;Node14 -->
<g id="edge27_Node000014_Node000014" class="edge">
<title>Node14&#45;&gt;Node14</title>
<g id="a_edge27_Node000014_Node000014"><a xlink:title=" ">
<path fill="none" stroke="#63b8ff" d="M758.45,-192.24C753.67,-196.08 741.64,-198.75 722.38,-198.75 687.14,-198.75 676.13,-189.81 689.34,-181.15"/>
<polygon fill="#63b8ff" stroke="#63b8ff" points="761.83,-191.33 755.81,-182.61 755.08,-193.18 761.83,-191.33"/>
</a>
</g>
</g>
<!-- Node15 -->
<g id="Node000015" class="node">
<title>Node15</title>
<g id="a_Node000015"><a xlink:href="$classUTexture2DArray.html#aa2bde0d15e3a1fb5e8563f0a01d72168" xlink:title=" ">
<polygon fill="white" stroke="#666666" points="590.62,-135.12 432.12,-135.12 432.12,-101.62 590.62,-101.62 590.62,-135.12"/>
<text xml:space="preserve" text-anchor="start" x="440.12" y="-121.62" font-family="Helvetica,sans-Serif" font-size="10.00">UTexture2DArray::GetSurface</text>
<text xml:space="preserve" text-anchor="middle" x="511.38" y="-108.88" font-family="Helvetica,sans-Serif" font-size="10.00">Width</text>
</a>
</g>
</g>
<!-- Node14&#45;&gt;Node15 -->
<g id="edge28_Node000014_Node000015" class="edge">
<title>Node14&#45;&gt;Node15</title>
<g id="a_edge28_Node000014_Node000015"><a xlink:title=" ">
<path fill="none" stroke="#63b8ff" d="M664.91,-156.89C655.98,-154.73 646.86,-152.51 638.25,-150.38 619.1,-145.64 598.33,-140.4 579.29,-135.56"/>
<polygon fill="#63b8ff" stroke="#63b8ff" points="664.04,-160.28 674.58,-159.23 665.68,-153.48 664.04,-160.28"/>
</a>
</g>
</g>
<!-- Node15&#45;&gt;Node15 -->
<g id="edge29_Node000015_Node000015" class="edge">
<title>Node15&#45;&gt;Node15</title>
<g id="a_edge29_Node000015_Node000015"><a xlink:title=" ">
<path fill="none" stroke="#63b8ff" d="M546.56,-146.68C540.7,-150.55 528.98,-153.12 511.38,-153.12 479.64,-153.12 467,-144.74 473.44,-135.54"/>
<polygon fill="#63b8ff" stroke="#63b8ff" points="549.95,-147.56 548.94,-137.01 543.15,-145.88 549.95,-147.56"/>
</a>
</g>
</g>
<!-- Node16&#45;&gt;Node3 -->
<g id="edge31_Node000016_Node000003" class="edge">
<title>Node16&#45;&gt;Node3</title>
<g id="a_edge31_Node000016_Node000003"><a xlink:title=" ">
<path fill="none" stroke="#63b8ff" d="M671.22,-128.58C659.17,-134.17 647.21,-141.61 638.25,-151.38 606.04,-186.5 636.96,-219.72 602.25,-252.38 598.7,-255.71 594.75,-258.63 590.54,-261.17"/>
<polygon fill="#63b8ff" stroke="#63b8ff" points="672.52,-131.83 680.37,-124.72 669.8,-125.38 672.52,-131.83"/>
</a>
</g>
</g>
<!-- Node16&#45;&gt;Node9 -->
<g id="edge32_Node000016_Node000009" class="edge">
<title>Node16&#45;&gt;Node9</title>
<g id="a_edge32_Node000016_Node000009"><a xlink:title=" ">
<path fill="none" stroke="#63b8ff" d="M688.08,-128.98C664.51,-139.55 631.95,-153.21 602.25,-162.38 592.34,-165.43 581.68,-168.16 571.27,-170.53"/>
<polygon fill="#63b8ff" stroke="#63b8ff" points="689.52,-132.18 697.17,-124.85 686.62,-125.8 689.52,-132.18"/>
</a>
</g>
</g>
<!-- Node16&#45;&gt;Node16 -->
<g id="edge33_Node000016_Node000016" class="edge">
<title>Node16&#45;&gt;Node16</title>
<g id="a_edge33_Node000016_Node000016"><a xlink:title=" ">
<path fill="none" stroke="#63b8ff" d="M758.45,-135.24C753.67,-139.08 741.64,-141.75 722.38,-141.75 687.14,-141.75 676.13,-132.81 689.34,-124.15"/>
<polygon fill="#63b8ff" stroke="#63b8ff" points="761.83,-134.33 755.81,-125.61 755.08,-136.18 761.83,-134.33"/>
</a>
</g>
</g>
<!-- Node17 -->
<g id="Node000017" class="node">
<title>Node17</title>
<g id="a_Node000017"><a xlink:href="$classUTexture2DArray.html#a941566ff7478a6f7c0c3ec74b8fa3ef9" xlink:title=" ">
<polygon fill="white" stroke="#666666" points="590.62,-83.12 432.12,-83.12 432.12,-49.62 590.62,-49.62 590.62,-83.12"/>
<text xml:space="preserve" text-anchor="start" x="440.12" y="-69.62" font-family="Helvetica,sans-Serif" font-size="10.00">UTexture2DArray::GetSurface</text>
<text xml:space="preserve" text-anchor="middle" x="511.38" y="-56.88" font-family="Helvetica,sans-Serif" font-size="10.00">Height</text>
</a>
</g>
</g>
<!-- Node16&#45;&gt;Node17 -->
<g id="edge34_Node000016_Node000017" class="edge">
<title>Node16&#45;&gt;Node17</title>
<g id="a_edge34_Node000016_Node000017"><a xlink:title=" ">
<path fill="none" stroke="#63b8ff" d="M661.99,-100.02C639.29,-94.92 613.08,-89.02 589,-83.61"/>
<polygon fill="#63b8ff" stroke="#63b8ff" points="661.16,-103.42 671.69,-102.2 662.7,-96.59 661.16,-103.42"/>
</a>
</g>
</g>
</g>
</svg>
