<?xml version="1.0" encoding="UTF-8" standalone="no"?>
<!DOCTYPE svg PUBLIC "-//W3C//DTD SVG 1.1//EN"
 "http://www.w3.org/Graphics/SVG/1.1/DTD/svg11.dtd">
<!-- Generated by graphviz version 14.1.4 (0)
 -->
<!-- Title: UE_STRING_CLASS::ReplaceEscapedCharWithChar Pages: 1 -->
<svg width="351pt" height="94pt"
 viewBox="0.00 0.00 351.00 94.00" xmlns="http://www.w3.org/2000/svg" xmlns:xlink="http://www.w3.org/1999/xlink">
<g id="graph0" class="graph" transform="scale(1 1) rotate(0) translate(4 89.5)">
<title>UE_STRING_CLASS::ReplaceEscapedCharWithChar</title>
<!-- Node1 -->
<g id="Node000001" class="node">
<title>Node1</title>
<g id="a_Node000001"><a xlink:title=" ">
<polygon fill="#999999" stroke="#666666" points="153.25,-59.5 0,-59.5 0,-26 153.25,-26 153.25,-59.5"/>
<text xml:space="preserve" text-anchor="start" x="8" y="-46" font-family="Helvetica,sans-Serif" font-size="10.00">UE_STRING_CLASS::Replace</text>
<text xml:space="preserve" text-anchor="middle" x="76.62" y="-33.25" font-family="Helvetica,sans-Serif" font-size="10.00">EscapedCharWithChar</text>
</a>
</g>
</g>
<!-- Node2 -->
<g id="Node000002" class="node">
<title>Node2</title>
<g id="a_Node000002"><a xlink:href="$classUE__STRING__CLASS.html#a2323e6c458ba23c3c281605eef93b109" xlink:title=" ">
<polygon fill="white" stroke="#666666" points="342.5,-85.5 189.25,-85.5 189.25,-52 342.5,-52 342.5,-85.5"/>
<text xml:space="preserve" text-anchor="start" x="197.25" y="-72" font-family="Helvetica,sans-Serif" font-size="10.00">UE_STRING_CLASS::Replace</text>
<text xml:space="preserve" text-anchor="middle" x="265.88" y="-59.25" font-family="Helvetica,sans-Serif" font-size="10.00">EscapedCharWithCharInline</text>
</a>
</g>
</g>
<!-- Node1&#45;&gt;Node2 -->
<g id="edge1_Node000001_Node000002" class="edge">
<title>Node1&#45;&gt;Node2</title>
<g id="a_edge1_Node000001_Node000002"><a xlink:title=" ">
<path fill="none" stroke="#63b8ff" d="M153.52,-53.29C161.44,-54.39 169.54,-55.51 177.58,-56.63"/>
<polygon fill="#63b8ff" stroke="#63b8ff" points="176.99,-60.08 187.38,-57.99 177.95,-53.15 176.99,-60.08"/>
</a>
</g>
</g>
<!-- Node3 -->
<g id="Node000003" class="node">
<title>Node3</title>
<g id="a_Node000003"><a xlink:href="$classUE__STRING__CLASS.html#a9fdb8a03064b85ab5477b07adeb213c9" xlink:title=" ">
<polygon fill="white" stroke="#666666" points="329.75,-33.5 202,-33.5 202,0 329.75,0 329.75,-33.5"/>
<text xml:space="preserve" text-anchor="start" x="210" y="-20" font-family="Helvetica,sans-Serif" font-size="10.00">UE_STRING_CLASS::UE</text>
<text xml:space="preserve" text-anchor="middle" x="265.88" y="-7.25" font-family="Helvetica,sans-Serif" font-size="10.00">_STRING_CLASS</text>
</a>
</g>
</g>
<!-- Node1&#45;&gt;Node3 -->
<g id="edge2_Node000001_Node000003" class="edge">
<title>Node1&#45;&gt;Node3</title>
<g id="a_edge2_Node000001_Node000003"><a xlink:title=" ">
<path fill="none" stroke="#63b8ff" d="M153.52,-32.21C165.78,-30.51 178.47,-28.75 190.69,-27.05"/>
<polygon fill="#63b8ff" stroke="#63b8ff" points="190.83,-30.56 200.26,-25.72 189.87,-23.63 190.83,-30.56"/>
</a>
</g>
</g>
</g>
</svg>
