<?xml version="1.0" encoding="UTF-8" standalone="no"?>
<!DOCTYPE svg PUBLIC "-//W3C//DTD SVG 1.1//EN"
 "http://www.w3.org/Graphics/SVG/1.1/DTD/svg11.dtd">
<!-- Generated by graphviz version 14.1.4 (0)
 -->
<!-- Title: APawn::GetController Pages: 1 -->
<svg width="304pt" height="86pt"
 viewBox="0.00 0.00 304.00 86.00" xmlns="http://www.w3.org/2000/svg" xmlns:xlink="http://www.w3.org/1999/xlink">
<g id="graph0" class="graph" transform="scale(1 1) rotate(0) translate(4 81.75)">
<title>APawn::GetController</title>
<!-- Node1 -->
<g id="Node000001" class="node">
<title>Node1</title>
<g id="a_Node000001"><a xlink:title=" ">
<polygon fill="#999999" stroke="#666666" points="296,-48.75 175.75,-48.75 175.75,-28 296,-28 296,-48.75"/>
<text xml:space="preserve" text-anchor="middle" x="235.88" y="-35.25" font-family="Helvetica,sans-Serif" font-size="10.00">APawn::GetController</text>
</a>
</g>
</g>
<!-- Node2 -->
<g id="Node000002" class="node">
<title>Node2</title>
<g id="a_Node000002"><a xlink:href="$classAPawn.html#a74aab5a0f3523d3ac69c15ea025f8371" xlink:title=" ">
<polygon fill="white" stroke="#666666" points="130,-77.75 9.75,-77.75 9.75,-57 130,-57 130,-77.75"/>
<text xml:space="preserve" text-anchor="middle" x="69.88" y="-64.25" font-family="Helvetica,sans-Serif" font-size="10.00">APawn::GetController</text>
</a>
</g>
</g>
<!-- Node1&#45;&gt;Node2 -->
<g id="edge1_Node000001_Node000002" class="edge">
<title>Node1&#45;&gt;Node2</title>
<g id="a_edge1_Node000001_Node000002"><a xlink:title=" ">
<path fill="none" stroke="#63b8ff" d="M164.42,-50.83C153.04,-52.85 141.36,-54.91 130.27,-56.87"/>
<polygon fill="#63b8ff" stroke="#63b8ff" points="164.94,-54.3 174.18,-49.11 163.72,-47.4 164.94,-54.3"/>
</a>
</g>
</g>
<!-- Node3 -->
<g id="Node000003" class="node">
<title>Node3</title>
<g id="a_Node000003"><a xlink:href="$classAPawn.html#ac175114c1c5acd037b680721b5525d8a" xlink:title=" ">
<polygon fill="white" stroke="#666666" points="139.75,-20.75 0,-20.75 0,0 139.75,0 139.75,-20.75"/>
<text xml:space="preserve" text-anchor="middle" x="69.88" y="-7.25" font-family="Helvetica,sans-Serif" font-size="10.00">APawn::IsPawnControlled</text>
</a>
</g>
</g>
<!-- Node1&#45;&gt;Node3 -->
<g id="edge2_Node000001_Node000003" class="edge">
<title>Node1&#45;&gt;Node3</title>
<g id="a_edge2_Node000001_Node000003"><a xlink:title=" ">
<path fill="none" stroke="#63b8ff" d="M164.51,-26.36C154.52,-24.66 144.29,-22.91 134.43,-21.23"/>
<polygon fill="#63b8ff" stroke="#63b8ff" points="163.73,-29.78 174.18,-28.01 164.91,-22.88 163.73,-29.78"/>
</a>
</g>
</g>
<!-- Node3&#45;&gt;Node3 -->
<g id="edge3_Node000003_Node000003" class="edge">
<title>Node3&#45;&gt;Node3</title>
<g id="a_edge3_Node000003_Node000003"><a xlink:title=" ">
<path fill="none" stroke="#63b8ff" d="M99.08,-32.24C95.21,-36.08 85.48,-38.75 69.88,-38.75 41.34,-38.75 32.43,-29.81 43.13,-21.15"/>
<polygon fill="#63b8ff" stroke="#63b8ff" points="102.54,-31.63 96.95,-22.62 95.7,-33.15 102.54,-31.63"/>
</a>
</g>
</g>
</g>
</svg>
