<?xml version="1.0" encoding="UTF-8" standalone="no"?>
<!DOCTYPE svg PUBLIC "-//W3C//DTD SVG 1.1//EN"
 "http://www.w3.org/Graphics/SVG/1.1/DTD/svg11.dtd">
<!-- Generated by graphviz version 14.1.4 (0)
 -->
<!-- Title: FUInt128::operator/= Pages: 1 -->
<svg width="432pt" height="164pt"
 viewBox="0.00 0.00 432.00 164.00" xmlns="http://www.w3.org/2000/svg" xmlns:xlink="http://www.w3.org/1999/xlink">
<g id="graph0" class="graph" transform="scale(1 1) rotate(0) translate(4 159.75)">
<title>FUInt128::operator/=</title>
<!-- Node1 -->
<g id="Node000001" class="node">
<title>Node1</title>
<g id="a_Node000001"><a xlink:title=" ">
<polygon fill="#999999" stroke="#666666" points="118.75,-117.75 0,-117.75 0,-97 118.75,-97 118.75,-117.75"/>
<text xml:space="preserve" text-anchor="middle" x="59.38" y="-104.25" font-family="Helvetica,sans-Serif" font-size="10.00">FUInt128::operator/=</text>
</a>
</g>
</g>
<!-- Node2 -->
<g id="Node000002" class="node">
<title>Node2</title>
<g id="a_Node000002"><a xlink:href="$classFUInt128.html#a4ede3b930ba5e3a2aaad73b69e877902" xlink:title=" ">
<polygon fill="white" stroke="#666666" points="252.5,-98.75 154.75,-98.75 154.75,-78 252.5,-78 252.5,-98.75"/>
<text xml:space="preserve" text-anchor="middle" x="203.62" y="-85.25" font-family="Helvetica,sans-Serif" font-size="10.00">FUInt128::Divide</text>
</a>
</g>
</g>
<!-- Node1&#45;&gt;Node2 -->
<g id="edge1_Node000001_Node000002" class="edge">
<title>Node1&#45;&gt;Node2</title>
<g id="a_edge1_Node000001_Node000002"><a xlink:title=" ">
<path fill="none" stroke="#63b8ff" d="M119.05,-99.54C127.07,-98.47 135.29,-97.37 143.32,-96.3"/>
<polygon fill="#63b8ff" stroke="#63b8ff" points="143.53,-99.8 152.97,-95.01 142.6,-92.86 143.53,-99.8"/>
</a>
</g>
</g>
<!-- Node4 -->
<g id="Node000004" class="node">
<title>Node4</title>
<g id="a_Node000004"><a xlink:href="$classFUInt128.html#a774b5dcf150e889c73e6276d9d4b9f82" xlink:title=" ">
<polygon fill="white" stroke="#666666" points="411.38,-137.75 300.88,-137.75 300.88,-117 411.38,-117 411.38,-137.75"/>
<text xml:space="preserve" text-anchor="middle" x="356.12" y="-124.25" font-family="Helvetica,sans-Serif" font-size="10.00">FUInt128::FUInt128</text>
</a>
</g>
</g>
<!-- Node1&#45;&gt;Node4 -->
<g id="edge7_Node000001_Node000004" class="edge">
<title>Node1&#45;&gt;Node4</title>
<g id="a_edge7_Node000001_Node000004"><a xlink:title=" ">
<path fill="none" stroke="#63b8ff" d="M118.96,-111.35C168.13,-114.69 238.31,-119.45 289.39,-122.91"/>
<polygon fill="#63b8ff" stroke="#63b8ff" points="288.91,-126.39 299.12,-123.57 289.38,-119.41 288.91,-126.39"/>
</a>
</g>
</g>
<!-- Node3 -->
<g id="Node000003" class="node">
<title>Node3</title>
<g id="a_Node000003"><a xlink:href="$classFUInt128.html#ac08a1ce19c6374fc6f43203aa5e37487" xlink:title=" ">
<polygon fill="white" stroke="#666666" points="423.75,-98.75 288.5,-98.75 288.5,-78 423.75,-78 423.75,-98.75"/>
<text xml:space="preserve" text-anchor="middle" x="356.12" y="-85.25" font-family="Helvetica,sans-Serif" font-size="10.00">FUInt128::DivideInternal</text>
</a>
</g>
</g>
<!-- Node2&#45;&gt;Node3 -->
<g id="edge2_Node000002_Node000003" class="edge">
<title>Node2&#45;&gt;Node3</title>
<g id="a_edge2_Node000002_Node000003"><a xlink:title=" ">
<path fill="none" stroke="#63b8ff" d="M252.66,-88.38C260.32,-88.38 268.41,-88.38 276.56,-88.38"/>
<polygon fill="#63b8ff" stroke="#63b8ff" points="276.56,-91.88 286.56,-88.38 276.56,-84.88 276.56,-91.88"/>
</a>
</g>
</g>
<!-- Node2&#45;&gt;Node4 -->
<g id="edge3_Node000002_Node000004" class="edge">
<title>Node2&#45;&gt;Node4</title>
<g id="a_edge3_Node000002_Node000004"><a xlink:title=" ">
<path fill="none" stroke="#63b8ff" d="M246.55,-99.24C263.76,-103.7 283.89,-108.92 302.11,-113.64"/>
<polygon fill="#63b8ff" stroke="#63b8ff" points="301.14,-117 311.7,-116.12 302.9,-110.23 301.14,-117"/>
</a>
</g>
</g>
<!-- Node5 -->
<g id="Node000005" class="node">
<title>Node5</title>
<g id="a_Node000005"><a xlink:href="$classFUInt128.html#ab137373464c7bc46f78ff112a058958c" xlink:title=" ">
<polygon fill="white" stroke="#666666" points="420.38,-59.75 291.88,-59.75 291.88,-39 420.38,-39 420.38,-59.75"/>
<text xml:space="preserve" text-anchor="middle" x="356.12" y="-46.25" font-family="Helvetica,sans-Serif" font-size="10.00">FUInt128::GetQuadPart</text>
</a>
</g>
</g>
<!-- Node2&#45;&gt;Node5 -->
<g id="edge5_Node000002_Node000005" class="edge">
<title>Node2&#45;&gt;Node5</title>
<g id="a_edge5_Node000002_Node000005"><a xlink:title=" ">
<path fill="none" stroke="#63b8ff" d="M246.55,-77.51C263.76,-73.05 283.89,-67.83 302.11,-63.11"/>
<polygon fill="#63b8ff" stroke="#63b8ff" points="302.9,-66.52 311.7,-60.63 301.14,-59.75 302.9,-66.52"/>
</a>
</g>
</g>
<!-- Node6 -->
<g id="Node000006" class="node">
<title>Node6</title>
<g id="a_Node000006"><a xlink:href="$classFUInt128.html#a3e70b41347bf0d59cc162b41ee2fd055" xlink:title=" ">
<polygon fill="white" stroke="#666666" points="419.62,-20.75 292.62,-20.75 292.62,0 419.62,0 419.62,-20.75"/>
<text xml:space="preserve" text-anchor="middle" x="356.12" y="-7.25" font-family="Helvetica,sans-Serif" font-size="10.00">FUInt128::SetQuadPart</text>
</a>
</g>
</g>
<!-- Node2&#45;&gt;Node6 -->
<g id="edge6_Node000002_Node000006" class="edge">
<title>Node2&#45;&gt;Node6</title>
<g id="a_edge6_Node000002_Node000006"><a xlink:title=" ">
<path fill="none" stroke="#63b8ff" d="M217.48,-77.55C233.29,-64.72 261.38,-43.42 288.5,-30.38 292.49,-28.46 296.7,-26.68 300.99,-25.04"/>
<polygon fill="#63b8ff" stroke="#63b8ff" points="302.03,-28.38 310.3,-21.75 299.7,-21.78 302.03,-28.38"/>
</a>
</g>
</g>
<!-- Node4&#45;&gt;Node4 -->
<g id="edge4_Node000004_Node000004" class="edge">
<title>Node4&#45;&gt;Node4</title>
<g id="a_edge4_Node000004_Node000004"><a xlink:title=" ">
<path fill="none" stroke="#63b8ff" d="M331.55,-138.15C321.72,-146.81 329.91,-155.75 356.12,-155.75 370.46,-155.75 379.4,-153.08 382.96,-149.24"/>
<polygon fill="#63b8ff" stroke="#63b8ff" points="386.43,-148.73 381,-139.63 379.57,-150.13 386.43,-148.73"/>
</a>
</g>
</g>
</g>
</svg>
