<?xml version="1.0" encoding="UTF-8" standalone="no"?>
<!DOCTYPE svg PUBLIC "-//W3C//DTD SVG 1.1//EN"
 "http://www.w3.org/Graphics/SVG/1.1/DTD/svg11.dtd">
<!-- Generated by graphviz version 14.1.4 (0)
 -->
<!-- Title: FSetElementId::AsInteger Pages: 1 -->
<svg width="364pt" height="822pt"
 viewBox="0.00 0.00 364.00 822.00" xmlns="http://www.w3.org/2000/svg" xmlns:xlink="http://www.w3.org/1999/xlink">
<g id="graph0" class="graph" transform="scale(1 1) rotate(0) translate(4 818.25)">
<title>FSetElementId::AsInteger</title>
<!-- Node1 -->
<g id="Node000001" class="node">
<title>Node1</title>
<g id="a_Node000001"><a xlink:title=" ">
<polygon fill="#999999" stroke="#666666" points="356,-417.5 216.25,-417.5 216.25,-396.75 356,-396.75 356,-417.5"/>
<text xml:space="preserve" text-anchor="middle" x="286.12" y="-404" font-family="Helvetica,sans-Serif" font-size="10.00">FSetElementId::AsInteger</text>
</a>
</g>
</g>
<!-- Node2 -->
<g id="Node000002" class="node">
<title>Node2</title>
<g id="a_Node000002"><a xlink:href="$classTSet.html#a12956fdc575757bcd1983c1430c292bc" xlink:title=" ">
<polygon fill="white" stroke="#666666" points="180.25,-814.25 0,-814.25 0,-768 180.25,-768 180.25,-814.25"/>
<text xml:space="preserve" text-anchor="start" x="8" y="-800.75" font-family="Helvetica,sans-Serif" font-size="10.00">TSet&lt; TSharedPtr&lt; FNetwork</text>
<text xml:space="preserve" text-anchor="start" x="8" y="-788" font-family="Helvetica,sans-Serif" font-size="10.00">ObjectInfo &gt;, FNetworkObjectKey</text>
<text xml:space="preserve" text-anchor="middle" x="90.12" y="-775.25" font-family="Helvetica,sans-Serif" font-size="10.00">Funcs &gt;::DumpHashElements</text>
</a>
</g>
</g>
<!-- Node1&#45;&gt;Node2 -->
<g id="edge1_Node000001_Node000002" class="edge">
<title>Node1&#45;&gt;Node2</title>
<g id="a_edge1_Node000001_Node000002"><a xlink:title=" ">
<path fill="none" stroke="#63b8ff" d="M285.07,-428.87C283.75,-489.53 271.7,-662.48 180.25,-759.12 177.31,-762.23 174.05,-765.03 170.56,-767.57"/>
<polygon fill="#63b8ff" stroke="#63b8ff" points="288.57,-429.26 285.2,-419.21 281.57,-429.17 288.57,-429.26"/>
</a>
</g>
</g>
<!-- Node3 -->
<g id="Node000003" class="node">
<title>Node3</title>
<g id="a_Node000003"><a xlink:href="$classTSet.html#a2036a264b7a3bda559d7cf021d141e85" xlink:title=" ">
<polygon fill="white" stroke="#666666" points="180.25,-750.25 0,-750.25 0,-704 180.25,-704 180.25,-750.25"/>
<text xml:space="preserve" text-anchor="start" x="8" y="-736.75" font-family="Helvetica,sans-Serif" font-size="10.00">TSet&lt; TSharedPtr&lt; FNetwork</text>
<text xml:space="preserve" text-anchor="start" x="8" y="-724" font-family="Helvetica,sans-Serif" font-size="10.00">ObjectInfo &gt;, FNetworkObjectKey</text>
<text xml:space="preserve" text-anchor="middle" x="90.12" y="-711.25" font-family="Helvetica,sans-Serif" font-size="10.00">Funcs &gt;::Get</text>
</a>
</g>
</g>
<!-- Node1&#45;&gt;Node3 -->
<g id="edge2_Node000001_Node000003" class="edge">
<title>Node1&#45;&gt;Node3</title>
<g id="a_edge2_Node000001_Node000003"><a xlink:title=" ">
<path fill="none" stroke="#63b8ff" d="M283.33,-429.42C277.85,-482.77 256.72,-619 180.25,-695.12 177.1,-698.26 173.63,-701.08 169.93,-703.64"/>
<polygon fill="#63b8ff" stroke="#63b8ff" points="286.81,-429.78 284.25,-419.5 279.84,-429.14 286.81,-429.78"/>
</a>
</g>
</g>
<!-- Node4 -->
<g id="Node000004" class="node">
<title>Node4</title>
<g id="a_Node000004"><a xlink:href="$classTSet.html#a0ae174512bb999b447881b9e2a246068" xlink:title=" ">
<polygon fill="white" stroke="#666666" points="180.25,-686.25 0,-686.25 0,-640 180.25,-640 180.25,-686.25"/>
<text xml:space="preserve" text-anchor="start" x="8" y="-672.75" font-family="Helvetica,sans-Serif" font-size="10.00">TSet&lt; TSharedPtr&lt; FNetwork</text>
<text xml:space="preserve" text-anchor="start" x="8" y="-660" font-family="Helvetica,sans-Serif" font-size="10.00">ObjectInfo &gt;, FNetworkObjectKey</text>
<text xml:space="preserve" text-anchor="middle" x="90.12" y="-647.25" font-family="Helvetica,sans-Serif" font-size="10.00">Funcs &gt;::Get</text>
</a>
</g>
</g>
<!-- Node1&#45;&gt;Node4 -->
<g id="edge3_Node000001_Node000004" class="edge">
<title>Node1&#45;&gt;Node4</title>
<g id="a_edge3_Node000001_Node000004"><a xlink:title=" ">
<path fill="none" stroke="#63b8ff" d="M280.74,-429.17C270.79,-473.62 242.36,-574.55 180.25,-631.12 176.85,-634.22 173.12,-637.03 169.19,-639.57"/>
<polygon fill="#63b8ff" stroke="#63b8ff" points="284.15,-429.98 282.8,-419.47 277.3,-428.52 284.15,-429.98"/>
</a>
</g>
</g>
<!-- Node5 -->
<g id="Node000005" class="node">
<title>Node5</title>
<g id="a_Node000005"><a xlink:href="$classTSortedMap.html#ade429d570c027328ce896f1a260f7e11" xlink:title=" ">
<polygon fill="white" stroke="#666666" points="164.12,-622.25 16.12,-622.25 16.12,-576 164.12,-576 164.12,-622.25"/>
<text xml:space="preserve" text-anchor="start" x="24.12" y="-608.75" font-family="Helvetica,sans-Serif" font-size="10.00">TSortedMap&lt; FName,</text>
<text xml:space="preserve" text-anchor="start" x="24.12" y="-596" font-family="Helvetica,sans-Serif" font-size="10.00"> FString, FDefaultAllocator,</text>
<text xml:space="preserve" text-anchor="middle" x="90.12" y="-583.25" font-family="Helvetica,sans-Serif" font-size="10.00"> FNameFastLess &gt;::Get</text>
</a>
</g>
</g>
<!-- Node1&#45;&gt;Node5 -->
<g id="edge4_Node000001_Node000005" class="edge">
<title>Node1&#45;&gt;Node5</title>
<g id="a_edge4_Node000001_Node000005"><a xlink:title=" ">
<path fill="none" stroke="#63b8ff" d="M276.57,-428.35C261.84,-462.35 228.54,-529.05 180.25,-567.12 175.34,-570.99 169.93,-574.42 164.27,-577.45"/>
<polygon fill="#63b8ff" stroke="#63b8ff" points="279.78,-429.76 280.42,-419.18 273.32,-427.05 279.78,-429.76"/>
</a>
</g>
</g>
<!-- Node6 -->
<g id="Node000006" class="node">
<title>Node6</title>
<g id="a_Node000006"><a xlink:href="$classTSortedMap.html#af407d421d89825cb9a595f9dfb9e92f9" xlink:title=" ">
<polygon fill="white" stroke="#666666" points="164.12,-558.25 16.12,-558.25 16.12,-512 164.12,-512 164.12,-558.25"/>
<text xml:space="preserve" text-anchor="start" x="24.12" y="-544.75" font-family="Helvetica,sans-Serif" font-size="10.00">TSortedMap&lt; FName,</text>
<text xml:space="preserve" text-anchor="start" x="24.12" y="-532" font-family="Helvetica,sans-Serif" font-size="10.00"> FString, FDefaultAllocator,</text>
<text xml:space="preserve" text-anchor="middle" x="90.12" y="-519.25" font-family="Helvetica,sans-Serif" font-size="10.00"> FNameFastLess &gt;::Get</text>
</a>
</g>
</g>
<!-- Node1&#45;&gt;Node6 -->
<g id="edge5_Node000001_Node000006" class="edge">
<title>Node1&#45;&gt;Node6</title>
<g id="a_edge5_Node000001_Node000006"><a xlink:title=" ">
<path fill="none" stroke="#63b8ff" d="M268.49,-426.38C249.17,-447.72 215.41,-481.91 180.25,-503.12 175.18,-506.18 169.78,-509.01 164.23,-511.62"/>
<polygon fill="#63b8ff" stroke="#63b8ff" points="271.05,-428.77 275.08,-418.97 265.82,-424.12 271.05,-428.77"/>
</a>
</g>
</g>
<!-- Node7 -->
<g id="Node000007" class="node">
<title>Node7</title>
<g id="a_Node000007"><a xlink:href="$classTSet.html#aaabd15f70f063b84e5f51edd8a3eaf58" xlink:title=" ">
<polygon fill="white" stroke="#666666" points="180.25,-494.25 0,-494.25 0,-448 180.25,-448 180.25,-494.25"/>
<text xml:space="preserve" text-anchor="start" x="8" y="-480.75" font-family="Helvetica,sans-Serif" font-size="10.00">TSet&lt; TSharedPtr&lt; FNetwork</text>
<text xml:space="preserve" text-anchor="start" x="8" y="-468" font-family="Helvetica,sans-Serif" font-size="10.00">ObjectInfo &gt;, FNetworkObjectKey</text>
<text xml:space="preserve" text-anchor="middle" x="90.12" y="-455.25" font-family="Helvetica,sans-Serif" font-size="10.00">Funcs &gt;::IsValidId</text>
</a>
</g>
</g>
<!-- Node1&#45;&gt;Node7 -->
<g id="edge6_Node000001_Node000007" class="edge">
<title>Node1&#45;&gt;Node7</title>
<g id="a_edge6_Node000001_Node000007"><a xlink:title=" ">
<path fill="none" stroke="#63b8ff" d="M241.31,-421.58C218.06,-429.25 188.91,-438.87 162.49,-447.58"/>
<polygon fill="#63b8ff" stroke="#63b8ff" points="242.38,-424.91 250.78,-418.46 240.19,-418.27 242.38,-424.91"/>
</a>
</g>
</g>
<!-- Node8 -->
<g id="Node000008" class="node">
<title>Node8</title>
<g id="a_Node000008"><a xlink:href="$classTSortedMap.html#a689cc650bc0bb52643a8d37294d594ba" xlink:title=" ">
<polygon fill="white" stroke="#666666" points="167.88,-430.25 12.38,-430.25 12.38,-384 167.88,-384 167.88,-430.25"/>
<text xml:space="preserve" text-anchor="start" x="20.38" y="-416.75" font-family="Helvetica,sans-Serif" font-size="10.00">TSortedMap&lt; FName,</text>
<text xml:space="preserve" text-anchor="start" x="20.38" y="-404" font-family="Helvetica,sans-Serif" font-size="10.00"> FString, FDefaultAllocator,</text>
<text xml:space="preserve" text-anchor="middle" x="90.12" y="-391.25" font-family="Helvetica,sans-Serif" font-size="10.00"> FNameFastLess &gt;::IsValidId</text>
</a>
</g>
</g>
<!-- Node1&#45;&gt;Node8 -->
<g id="edge7_Node000001_Node000008" class="edge">
<title>Node1&#45;&gt;Node8</title>
<g id="a_edge7_Node000001_Node000008"><a xlink:title=" ">
<path fill="none" stroke="#63b8ff" d="M204.53,-407.12C192.52,-407.12 180.16,-407.12 168.23,-407.12"/>
<polygon fill="#63b8ff" stroke="#63b8ff" points="204.39,-410.63 214.39,-407.13 204.39,-403.63 204.39,-410.63"/>
</a>
</g>
</g>
<!-- Node9 -->
<g id="Node000009" class="node">
<title>Node9</title>
<g id="a_Node000009"><a xlink:href="$classTSet.html#a7925f3be702bc3d6350fdf37a4340cd7" xlink:title=" ">
<polygon fill="white" stroke="#666666" points="180.25,-366.25 0,-366.25 0,-320 180.25,-320 180.25,-366.25"/>
<text xml:space="preserve" text-anchor="start" x="8" y="-352.75" font-family="Helvetica,sans-Serif" font-size="10.00">TSet&lt; TSharedPtr&lt; FNetwork</text>
<text xml:space="preserve" text-anchor="start" x="8" y="-340" font-family="Helvetica,sans-Serif" font-size="10.00">ObjectInfo &gt;, FNetworkObjectKey</text>
<text xml:space="preserve" text-anchor="middle" x="90.12" y="-327.25" font-family="Helvetica,sans-Serif" font-size="10.00">Funcs &gt;::operator[]</text>
</a>
</g>
</g>
<!-- Node1&#45;&gt;Node9 -->
<g id="edge8_Node000001_Node000009" class="edge">
<title>Node1&#45;&gt;Node9</title>
<g id="a_edge8_Node000001_Node000009"><a xlink:title=" ">
<path fill="none" stroke="#63b8ff" d="M241.31,-392.67C218.06,-385 188.91,-375.38 162.49,-366.67"/>
<polygon fill="#63b8ff" stroke="#63b8ff" points="240.19,-395.98 250.78,-395.79 242.38,-389.34 240.19,-395.98"/>
</a>
</g>
</g>
<!-- Node10 -->
<g id="Node000010" class="node">
<title>Node10</title>
<g id="a_Node000010"><a xlink:href="$classTSet.html#a77601250c8485709f50570316b273220" xlink:title=" ">
<polygon fill="white" stroke="#666666" points="180.25,-302.25 0,-302.25 0,-256 180.25,-256 180.25,-302.25"/>
<text xml:space="preserve" text-anchor="start" x="8" y="-288.75" font-family="Helvetica,sans-Serif" font-size="10.00">TSet&lt; TSharedPtr&lt; FNetwork</text>
<text xml:space="preserve" text-anchor="start" x="8" y="-276" font-family="Helvetica,sans-Serif" font-size="10.00">ObjectInfo &gt;, FNetworkObjectKey</text>
<text xml:space="preserve" text-anchor="middle" x="90.12" y="-263.25" font-family="Helvetica,sans-Serif" font-size="10.00">Funcs &gt;::operator[]</text>
</a>
</g>
</g>
<!-- Node1&#45;&gt;Node10 -->
<g id="edge9_Node000001_Node000010" class="edge">
<title>Node1&#45;&gt;Node10</title>
<g id="a_edge9_Node000001_Node000010"><a xlink:title=" ">
<path fill="none" stroke="#63b8ff" d="M268.49,-387.87C249.17,-366.53 215.41,-332.34 180.25,-311.12 175.18,-308.07 169.78,-305.24 164.23,-302.63"/>
<polygon fill="#63b8ff" stroke="#63b8ff" points="265.82,-390.13 275.08,-395.28 271.05,-385.48 265.82,-390.13"/>
</a>
</g>
</g>
<!-- Node11 -->
<g id="Node000011" class="node">
<title>Node11</title>
<g id="a_Node000011"><a xlink:href="$classTSet.html#ab2fcfc544958d3f31dabcb375e307123" xlink:title=" ">
<polygon fill="white" stroke="#666666" points="180.25,-238.25 0,-238.25 0,-192 180.25,-192 180.25,-238.25"/>
<text xml:space="preserve" text-anchor="start" x="8" y="-224.75" font-family="Helvetica,sans-Serif" font-size="10.00">TSet&lt; TSharedPtr&lt; FNetwork</text>
<text xml:space="preserve" text-anchor="start" x="8" y="-212" font-family="Helvetica,sans-Serif" font-size="10.00">ObjectInfo &gt;, FNetworkObjectKey</text>
<text xml:space="preserve" text-anchor="middle" x="90.12" y="-199.25" font-family="Helvetica,sans-Serif" font-size="10.00">Funcs &gt;::Remove</text>
</a>
</g>
</g>
<!-- Node1&#45;&gt;Node11 -->
<g id="edge10_Node000001_Node000011" class="edge">
<title>Node1&#45;&gt;Node11</title>
<g id="a_edge10_Node000001_Node000011"><a xlink:title=" ">
<path fill="none" stroke="#63b8ff" d="M276.57,-385.9C261.84,-351.9 228.54,-285.2 180.25,-247.12 176.25,-243.97 171.91,-241.11 167.37,-238.52"/>
<polygon fill="#63b8ff" stroke="#63b8ff" points="273.32,-387.2 280.42,-395.07 279.78,-384.49 273.32,-387.2"/>
</a>
</g>
</g>
<!-- Node12 -->
<g id="Node000012" class="node">
<title>Node12</title>
<g id="a_Node000012"><a xlink:href="$classTSet.html#ab19476a3c13baf9b86cf337a4e4c2dab" xlink:title=" ">
<polygon fill="white" stroke="#666666" points="180.25,-174.25 0,-174.25 0,-128 180.25,-128 180.25,-174.25"/>
<text xml:space="preserve" text-anchor="start" x="8" y="-160.75" font-family="Helvetica,sans-Serif" font-size="10.00">TSet&lt; TSharedPtr&lt; FNetwork</text>
<text xml:space="preserve" text-anchor="start" x="8" y="-148" font-family="Helvetica,sans-Serif" font-size="10.00">ObjectInfo &gt;, FNetworkObjectKey</text>
<text xml:space="preserve" text-anchor="middle" x="90.12" y="-135.25" font-family="Helvetica,sans-Serif" font-size="10.00">Funcs &gt;::RemoveByIndex</text>
</a>
</g>
</g>
<!-- Node1&#45;&gt;Node12 -->
<g id="edge11_Node000001_Node000012" class="edge">
<title>Node1&#45;&gt;Node12</title>
<g id="a_edge11_Node000001_Node000012"><a xlink:title=" ">
<path fill="none" stroke="#63b8ff" d="M280.74,-385.08C270.79,-340.63 242.36,-239.7 180.25,-183.12 176.85,-180.03 173.12,-177.22 169.19,-174.68"/>
<polygon fill="#63b8ff" stroke="#63b8ff" points="277.3,-385.73 282.8,-394.78 284.15,-384.27 277.3,-385.73"/>
</a>
</g>
</g>
<!-- Node13 -->
<g id="Node000013" class="node">
<title>Node13</title>
<g id="a_Node000013"><a xlink:href="$classTSet.html#a5d665c94282499568369644f68c17c21" xlink:title=" ">
<polygon fill="white" stroke="#666666" points="180.25,-110.25 0,-110.25 0,-64 180.25,-64 180.25,-110.25"/>
<text xml:space="preserve" text-anchor="start" x="8" y="-96.75" font-family="Helvetica,sans-Serif" font-size="10.00">TSet&lt; TSharedPtr&lt; FNetwork</text>
<text xml:space="preserve" text-anchor="start" x="8" y="-84" font-family="Helvetica,sans-Serif" font-size="10.00">ObjectInfo &gt;, FNetworkObjectKey</text>
<text xml:space="preserve" text-anchor="middle" x="90.12" y="-71.25" font-family="Helvetica,sans-Serif" font-size="10.00">Funcs &gt;::RemoveImpl</text>
</a>
</g>
</g>
<!-- Node1&#45;&gt;Node13 -->
<g id="edge12_Node000001_Node000013" class="edge">
<title>Node1&#45;&gt;Node13</title>
<g id="a_edge12_Node000001_Node000013"><a xlink:title=" ">
<path fill="none" stroke="#63b8ff" d="M283.33,-384.83C277.85,-331.48 256.72,-195.25 180.25,-119.12 177.1,-115.99 173.63,-113.17 169.93,-110.61"/>
<polygon fill="#63b8ff" stroke="#63b8ff" points="279.84,-385.11 284.25,-394.75 286.81,-384.47 279.84,-385.11"/>
</a>
</g>
</g>
<!-- Node14 -->
<g id="Node000014" class="node">
<title>Node14</title>
<g id="a_Node000014"><a xlink:href="$classTSet.html#a3f93026e6792545b93e99e3aeacef580" xlink:title=" ">
<polygon fill="white" stroke="#666666" points="180.25,-46.25 0,-46.25 0,0 180.25,0 180.25,-46.25"/>
<text xml:space="preserve" text-anchor="start" x="8" y="-32.75" font-family="Helvetica,sans-Serif" font-size="10.00">TSet&lt; TSharedPtr&lt; FNetwork</text>
<text xml:space="preserve" text-anchor="start" x="8" y="-20" font-family="Helvetica,sans-Serif" font-size="10.00">ObjectInfo &gt;, FNetworkObjectKey</text>
<text xml:space="preserve" text-anchor="middle" x="90.12" y="-7.25" font-family="Helvetica,sans-Serif" font-size="10.00">Funcs &gt;::VerifyHashElementsKey</text>
</a>
</g>
</g>
<!-- Node1&#45;&gt;Node14 -->
<g id="edge13_Node000001_Node000014" class="edge">
<title>Node1&#45;&gt;Node14</title>
<g id="a_edge13_Node000001_Node000014"><a xlink:title=" ">
<path fill="none" stroke="#63b8ff" d="M285.07,-385.38C283.75,-324.72 271.7,-151.77 180.25,-55.12 177.31,-52.02 174.05,-49.22 170.56,-46.68"/>
<polygon fill="#63b8ff" stroke="#63b8ff" points="281.57,-385.08 285.2,-395.04 288.57,-384.99 281.57,-385.08"/>
</a>
</g>
</g>
</g>
</svg>
