<?xml version="1.0" encoding="UTF-8" standalone="no"?>
<!DOCTYPE svg PUBLIC "-//W3C//DTD SVG 1.1//EN"
 "http://www.w3.org/Graphics/SVG/1.1/DTD/svg11.dtd">
<!-- Generated by graphviz version 14.1.4 (0)
 -->
<!-- Title: UAnimBank Pages: 1 -->
<!--zoomable 1047 -->

<svg id="main" version="1.1" xmlns="http://www.w3.org/2000/svg" xmlns:xlink="http://www.w3.org/1999/xlink" xml:space="preserve" onload="init(evt)">

<style type="text/css"><![CDATA[
.node, .edge {opacity: 0.7;}
.node.selected, .edge.selected {opacity: 1;}
.edge:hover path { stroke: red; }
.edge:hover polygon { stroke: red; fill: red; }
]]></style>

<defs>
  <circle id="rim" cx="0" cy="0" r="7"/>
  <circle id="rim2" cx="0" cy="0" r="3.5"/>
  <g id="zoomPlus">
    <use xlink:href="#rim" fill="#404040"><set attributeName="fill" to="#808080" begin="zoomplus.mouseover" end="zoomplus.mouseout"/></use>
    <path d="M-4,0h8M0,-4v8" fill="none" stroke="white" stroke-width="1.5" pointer-events="none"/>
  </g>
  <g id="zoomMin">
    <use xlink:href="#rim" fill="#404040"><set attributeName="fill" to="#808080" begin="zoomminus.mouseover" end="zoomminus.mouseout"/></use>
    <path d="M-4,0h8" fill="none" stroke="white" stroke-width="1.5" pointer-events="none"/>
  </g>
  <g id="arrowUp" transform="translate(30 24)">
    <use xlink:href="#rim"/>
    <path pointer-events="none" fill="none" stroke="white" stroke-width="1.5" d="M0,-3.0v7 M-2.5,-0.5L0,-3.0L2.5,-0.5"/>
  </g>
  <g id="arrowRight" transform="rotate(90) translate(36 -43)">
    <use xlink:href="#rim"/>
    <path pointer-events="none" fill="none" stroke="white" stroke-width="1.5" d="M0,-3.0v7 M-2.5,-0.5L0,-3.0L2.5,-0.5"/>
  </g>
  <g id="arrowDown" transform="rotate(180) translate(-30 -48)">
    <use xlink:href="#rim"/>
    <path pointer-events="none" fill="none" stroke="white" stroke-width="1.5" d="M0,-3.0v7 M-2.5,-0.5L0,-3.0L2.5,-0.5"/>
  </g>
  <g id="arrowLeft" transform="rotate(270) translate(-36 17)">
    <use xlink:href="#rim"/>
    <path pointer-events="none" fill="none" stroke="white" stroke-width="1.5" d="M0,-3.0v7 M-2.5,-0.5L0,-3.0L2.5,-0.5"/>
  </g>
  <g id="resetDef">
    <use xlink:href="#rim2" fill="#404040"><set attributeName="fill" to="#808080" begin="reset.mouseover" end="reset.mouseout"/></use>
  </g>
</defs>
<script type="application/ecmascript">
var viewWidth = 411;
var viewHeight = 1047;
var sectionId = 'dynsection-0';
</script>
<script type="application/ecmascript" xlink:href="svg.min.js"/>
<svg id="graph" class="graph">
<g id="viewport">
<title>UAnimBank</title>
<!-- Node1 -->
<g id="Node000001" class="node">
<title>Node1</title>
<g id="a_Node000001"><a xlink:title=" ">
<polygon fill="#999999" stroke="none" points="325.75,-473 135.25,-473 135.25,0 325.75,0 325.75,-473"/>
<text xml:space="preserve" text-anchor="start" x="201.62" y="-459.25" font-family="Helvetica,sans-Serif" font-size="10.00">UAnimBank</text>
<text xml:space="preserve" text-anchor="start" x="141.5" y="-442.5" font-family="Helvetica,sans-Serif" font-size="10.00">&#45;</text>
<text xml:space="preserve" text-anchor="start" x="151.5" y="-442.5" font-family="Helvetica,sans-Serif" font-size="10.00">bIsInitialized</text>
<text xml:space="preserve" text-anchor="start" x="141.5" y="-425.75" font-family="Helvetica,sans-Serif" font-size="10.00">&#45;</text>
<text xml:space="preserve" text-anchor="start" x="151.5" y="-425.75" font-family="Helvetica,sans-Serif" font-size="10.00">Data</text>
<text xml:space="preserve" text-anchor="start" x="141.5" y="-409" font-family="Helvetica,sans-Serif" font-size="10.00">&#45;</text>
<text xml:space="preserve" text-anchor="start" x="151.5" y="-409" font-family="Helvetica,sans-Serif" font-size="10.00">ReleaseResourcesFence</text>
<text xml:space="preserve" text-anchor="start" x="141.5" y="-392.25" font-family="Helvetica,sans-Serif" font-size="10.00">&#45;</text>
<text xml:space="preserve" text-anchor="start" x="151.5" y="-392.25" font-family="Helvetica,sans-Serif" font-size="10.00">DataKeyHash</text>
<text xml:space="preserve" text-anchor="start" x="141.5" y="-375.5" font-family="Helvetica,sans-Serif" font-size="10.00">&#45;</text>
<text xml:space="preserve" text-anchor="start" x="151.5" y="-375.5" font-family="Helvetica,sans-Serif" font-size="10.00">DataByPlatformKeyHash</text>
<text xml:space="preserve" text-anchor="start" x="141.5" y="-358.75" font-family="Helvetica,sans-Serif" font-size="10.00">&#45;</text>
<text xml:space="preserve" text-anchor="start" x="151.5" y="-358.75" font-family="Helvetica,sans-Serif" font-size="10.00">CacheTasksByKeyHash</text>
<text xml:space="preserve" text-anchor="start" x="141.5" y="-342" font-family="Helvetica,sans-Serif" font-size="10.00">&#45;</text>
<text xml:space="preserve" text-anchor="start" x="151.5" y="-342" font-family="Helvetica,sans-Serif" font-size="10.00">OnGPUDataChanged</text>
<text xml:space="preserve" text-anchor="start" x="141.5" y="-325.25" font-family="Helvetica,sans-Serif" font-size="10.00">&#45;</text>
<text xml:space="preserve" text-anchor="start" x="151.5" y="-325.25" font-family="Helvetica,sans-Serif" font-size="10.00">OnDependenciesChanged</text>
<text xml:space="preserve" text-anchor="start" x="139.25" y="-308.5" font-family="Helvetica,sans-Serif" font-size="10.00">+</text>
<text xml:space="preserve" text-anchor="start" x="151.5" y="-308.5" font-family="Helvetica,sans-Serif" font-size="10.00">Serialize()</text>
<text xml:space="preserve" text-anchor="start" x="139.25" y="-291.75" font-family="Helvetica,sans-Serif" font-size="10.00">+</text>
<text xml:space="preserve" text-anchor="start" x="151.5" y="-291.75" font-family="Helvetica,sans-Serif" font-size="10.00">PostLoad()</text>
<text xml:space="preserve" text-anchor="start" x="139.25" y="-275" font-family="Helvetica,sans-Serif" font-size="10.00">+</text>
<text xml:space="preserve" text-anchor="start" x="151.5" y="-275" font-family="Helvetica,sans-Serif" font-size="10.00">PreSave()</text>
<text xml:space="preserve" text-anchor="start" x="139.25" y="-258.25" font-family="Helvetica,sans-Serif" font-size="10.00">+</text>
<text xml:space="preserve" text-anchor="start" x="151.5" y="-258.25" font-family="Helvetica,sans-Serif" font-size="10.00">BeginDestroy()</text>
<text xml:space="preserve" text-anchor="start" x="139.25" y="-241.5" font-family="Helvetica,sans-Serif" font-size="10.00">+</text>
<text xml:space="preserve" text-anchor="start" x="151.5" y="-241.5" font-family="Helvetica,sans-Serif" font-size="10.00">IsReadyForFinishDestroy()</text>
<text xml:space="preserve" text-anchor="start" x="139.25" y="-224.75" font-family="Helvetica,sans-Serif" font-size="10.00">+</text>
<text xml:space="preserve" text-anchor="start" x="151.5" y="-224.75" font-family="Helvetica,sans-Serif" font-size="10.00">NeedsLoadForTargetPlatform()</text>
<text xml:space="preserve" text-anchor="start" x="139.25" y="-208" font-family="Helvetica,sans-Serif" font-size="10.00">+</text>
<text xml:space="preserve" text-anchor="start" x="151.5" y="-208" font-family="Helvetica,sans-Serif" font-size="10.00">InitResources()</text>
<text xml:space="preserve" text-anchor="start" x="139.25" y="-191.25" font-family="Helvetica,sans-Serif" font-size="10.00">+</text>
<text xml:space="preserve" text-anchor="start" x="151.5" y="-191.25" font-family="Helvetica,sans-Serif" font-size="10.00">ReleaseResources()</text>
<text xml:space="preserve" text-anchor="start" x="139.25" y="-174.5" font-family="Helvetica,sans-Serif" font-size="10.00">+</text>
<text xml:space="preserve" text-anchor="start" x="151.5" y="-174.5" font-family="Helvetica,sans-Serif" font-size="10.00">GetData()</text>
<text xml:space="preserve" text-anchor="start" x="139.25" y="-157.75" font-family="Helvetica,sans-Serif" font-size="10.00">+</text>
<text xml:space="preserve" text-anchor="start" x="151.5" y="-157.75" font-family="Helvetica,sans-Serif" font-size="10.00">PostEditChangeProperty()</text>
<text xml:space="preserve" text-anchor="start" x="151.5" y="-141" font-family="Helvetica,sans-Serif" font-size="10.00">and 14 more...</text>
<text xml:space="preserve" text-anchor="start" x="141.5" y="-124.25" font-family="Helvetica,sans-Serif" font-size="10.00">&#45;</text>
<text xml:space="preserve" text-anchor="start" x="151.5" y="-124.25" font-family="Helvetica,sans-Serif" font-size="10.00">DECLARE_MULTICAST_DELEGATE()</text>
<text xml:space="preserve" text-anchor="start" x="141.5" y="-107.5" font-family="Helvetica,sans-Serif" font-size="10.00">&#45;</text>
<text xml:space="preserve" text-anchor="start" x="151.5" y="-107.5" font-family="Helvetica,sans-Serif" font-size="10.00">Reschedule()</text>
<text xml:space="preserve" text-anchor="start" x="141.5" y="-90.75" font-family="Helvetica,sans-Serif" font-size="10.00">&#45;</text>
<text xml:space="preserve" text-anchor="start" x="151.5" y="-90.75" font-family="Helvetica,sans-Serif" font-size="10.00">CreateDerivedDataKeyHash()</text>
<text xml:space="preserve" text-anchor="start" x="141.5" y="-74" font-family="Helvetica,sans-Serif" font-size="10.00">&#45;</text>
<text xml:space="preserve" text-anchor="start" x="151.5" y="-74" font-family="Helvetica,sans-Serif" font-size="10.00">BeginCacheDerivedData()</text>
<text xml:space="preserve" text-anchor="start" x="141.5" y="-57.25" font-family="Helvetica,sans-Serif" font-size="10.00">&#45;</text>
<text xml:space="preserve" text-anchor="start" x="151.5" y="-57.25" font-family="Helvetica,sans-Serif" font-size="10.00">PollCacheDerivedData()</text>
<text xml:space="preserve" text-anchor="start" x="141.5" y="-40.5" font-family="Helvetica,sans-Serif" font-size="10.00">&#45;</text>
<text xml:space="preserve" text-anchor="start" x="151.5" y="-40.5" font-family="Helvetica,sans-Serif" font-size="10.00">EndCacheDerivedData()</text>
<text xml:space="preserve" text-anchor="start" x="141.5" y="-23.75" font-family="Helvetica,sans-Serif" font-size="10.00">&#45;</text>
<text xml:space="preserve" text-anchor="start" x="151.5" y="-23.75" font-family="Helvetica,sans-Serif" font-size="10.00">CacheDerivedData()</text>
<text xml:space="preserve" text-anchor="start" x="141.5" y="-7" font-family="Helvetica,sans-Serif" font-size="10.00">&#45;</text>
<text xml:space="preserve" text-anchor="start" x="151.5" y="-7" font-family="Helvetica,sans-Serif" font-size="10.00">DECLARE_EVENT_OneParam()</text>
<polygon fill="#666666" stroke="#666666" points="135.25,-454.25 135.25,-454.25 325.75,-454.25 325.75,-454.25 135.25,-454.25"/>
<polygon fill="#666666" stroke="#666666" points="135.25,-320.25 135.25,-320.25 149.5,-320.25 149.5,-320.25 135.25,-320.25"/>
<polygon fill="#666666" stroke="#666666" points="149.5,-320.25 149.5,-320.25 325.75,-320.25 325.75,-320.25 149.5,-320.25"/>
<polygon fill="none" stroke="#666666" points="135.25,0 135.25,-473 325.75,-473 325.75,0 135.25,0"/>
</a>
</g>
</g>
<!-- Node2 -->
<g id="Node000002" class="node">
<title>Node2</title>
<g id="a_Node000002"><a xlink:href="classUAnimationAsset.html" target="_top" xlink:title=" ">
<polygon fill="white" stroke="none" points="226.5,-831.25 58.5,-831.25 58.5,-509 226.5,-509 226.5,-831.25"/>
<text xml:space="preserve" text-anchor="start" x="100.12" y="-817.5" font-family="Helvetica,sans-Serif" font-size="10.00">UAnimationAsset</text>
<text xml:space="preserve" text-anchor="start" x="62.5" y="-800.75" font-family="Helvetica,sans-Serif" font-size="10.00">#</text>
<text xml:space="preserve" text-anchor="start" x="74.75" y="-800.75" font-family="Helvetica,sans-Serif" font-size="10.00">AssetUserData</text>
<text xml:space="preserve" text-anchor="start" x="64.75" y="-784" font-family="Helvetica,sans-Serif" font-size="10.00">&#45;</text>
<text xml:space="preserve" text-anchor="start" x="74.75" y="-784" font-family="Helvetica,sans-Serif" font-size="10.00">Skeleton</text>
<text xml:space="preserve" text-anchor="start" x="64.75" y="-767.25" font-family="Helvetica,sans-Serif" font-size="10.00">&#45;</text>
<text xml:space="preserve" text-anchor="start" x="74.75" y="-767.25" font-family="Helvetica,sans-Serif" font-size="10.00">SkeletonGuid</text>
<text xml:space="preserve" text-anchor="start" x="64.75" y="-750.5" font-family="Helvetica,sans-Serif" font-size="10.00">&#45;</text>
<text xml:space="preserve" text-anchor="start" x="74.75" y="-750.5" font-family="Helvetica,sans-Serif" font-size="10.00">SkeletonVirtualBoneGuid</text>
<text xml:space="preserve" text-anchor="start" x="64.75" y="-733.75" font-family="Helvetica,sans-Serif" font-size="10.00">&#45;</text>
<text xml:space="preserve" text-anchor="start" x="74.75" y="-733.75" font-family="Helvetica,sans-Serif" font-size="10.00">MetaData</text>
<text xml:space="preserve" text-anchor="start" x="62.5" y="-717" font-family="Helvetica,sans-Serif" font-size="10.00">+</text>
<text xml:space="preserve" text-anchor="start" x="74.75" y="-717" font-family="Helvetica,sans-Serif" font-size="10.00">TickAssetPlayer()</text>
<text xml:space="preserve" text-anchor="start" x="62.5" y="-700.25" font-family="Helvetica,sans-Serif" font-size="10.00">+</text>
<text xml:space="preserve" text-anchor="start" x="74.75" y="-700.25" font-family="Helvetica,sans-Serif" font-size="10.00">GetMaxCurrentTime()</text>
<text xml:space="preserve" text-anchor="start" x="62.5" y="-683.5" font-family="Helvetica,sans-Serif" font-size="10.00">+</text>
<text xml:space="preserve" text-anchor="start" x="74.75" y="-683.5" font-family="Helvetica,sans-Serif" font-size="10.00">GetPlayLength()</text>
<text xml:space="preserve" text-anchor="start" x="62.5" y="-666.75" font-family="Helvetica,sans-Serif" font-size="10.00">+</text>
<text xml:space="preserve" text-anchor="start" x="74.75" y="-666.75" font-family="Helvetica,sans-Serif" font-size="10.00">SetSkeleton()</text>
<text xml:space="preserve" text-anchor="start" x="62.5" y="-650" font-family="Helvetica,sans-Serif" font-size="10.00">+</text>
<text xml:space="preserve" text-anchor="start" x="74.75" y="-650" font-family="Helvetica,sans-Serif" font-size="10.00">ResetSkeleton()</text>
<text xml:space="preserve" text-anchor="start" x="62.5" y="-633.25" font-family="Helvetica,sans-Serif" font-size="10.00">+</text>
<text xml:space="preserve" text-anchor="start" x="74.75" y="-633.25" font-family="Helvetica,sans-Serif" font-size="10.00">PostLoad()</text>
<text xml:space="preserve" text-anchor="start" x="62.5" y="-616.5" font-family="Helvetica,sans-Serif" font-size="10.00">+</text>
<text xml:space="preserve" text-anchor="start" x="74.75" y="-616.5" font-family="Helvetica,sans-Serif" font-size="10.00">ValidateSkeleton()</text>
<text xml:space="preserve" text-anchor="start" x="62.5" y="-599.75" font-family="Helvetica,sans-Serif" font-size="10.00">+</text>
<text xml:space="preserve" text-anchor="start" x="74.75" y="-599.75" font-family="Helvetica,sans-Serif" font-size="10.00">Serialize()</text>
<text xml:space="preserve" text-anchor="start" x="62.5" y="-583" font-family="Helvetica,sans-Serif" font-size="10.00">+</text>
<text xml:space="preserve" text-anchor="start" x="74.75" y="-583" font-family="Helvetica,sans-Serif" font-size="10.00">GetMetaData()</text>
<text xml:space="preserve" text-anchor="start" x="62.5" y="-566.25" font-family="Helvetica,sans-Serif" font-size="10.00">+</text>
<text xml:space="preserve" text-anchor="start" x="74.75" y="-566.25" font-family="Helvetica,sans-Serif" font-size="10.00">FindMetaDataByClass()</text>
<text xml:space="preserve" text-anchor="start" x="74.75" y="-549.5" font-family="Helvetica,sans-Serif" font-size="10.00">and 33 more...</text>
<text xml:space="preserve" text-anchor="start" x="62.5" y="-532.75" font-family="Helvetica,sans-Serif" font-size="10.00">#</text>
<text xml:space="preserve" text-anchor="start" x="74.75" y="-532.75" font-family="Helvetica,sans-Serif" font-size="10.00">RefreshParentAssetData()</text>
<text xml:space="preserve" text-anchor="start" x="62.5" y="-516" font-family="Helvetica,sans-Serif" font-size="10.00">#</text>
<text xml:space="preserve" text-anchor="start" x="74.75" y="-516" font-family="Helvetica,sans-Serif" font-size="10.00">RemapTracksToNewSkeleton()</text>
<polygon fill="#666666" stroke="#666666" points="58.5,-812.5 58.5,-812.5 226.5,-812.5 226.5,-812.5 58.5,-812.5"/>
<polygon fill="#666666" stroke="#666666" points="58.5,-728.75 58.5,-728.75 72.75,-728.75 72.75,-728.75 58.5,-728.75"/>
<polygon fill="#666666" stroke="#666666" points="72.75,-728.75 72.75,-728.75 226.5,-728.75 226.5,-728.75 72.75,-728.75"/>
<polygon fill="none" stroke="#666666" points="58.5,-509 58.5,-831.25 226.5,-831.25 226.5,-509 58.5,-509"/>
</a>
</g>
</g>
<!-- Node2&#45;&gt;Node1 -->
<g id="edge1_Node000001_Node000002" class="edge">
<title>Node2&#45;&gt;Node1</title>
<g id="a_edge1_Node000001_Node000002"><a xlink:title=" ">
<path fill="none" stroke="#63b8ff" d="M177.43,-497.82C179.11,-489.56 180.81,-481.21 182.52,-472.82"/>
<polygon fill="none" stroke="#63b8ff" points="174.01,-497.04 175.45,-507.53 180.87,-498.43 174.01,-497.04"/>
</a>
</g>
</g>
<!-- Node3 -->
<g id="Node000003" class="node">
<title>Node3</title>
<g id="a_Node000003"><a xlink:title=" ">
<polygon fill="white" stroke="none" points="47,-980.12 0,-980.12 0,-925.88 47,-925.88 47,-980.12"/>
<text xml:space="preserve" text-anchor="start" x="4" y="-966.38" font-family="Helvetica,sans-Serif" font-size="10.00">UObject</text>
<text xml:space="preserve" text-anchor="start" x="20.5" y="-949.62" font-family="Helvetica,sans-Serif" font-size="10.00"> </text>
<text xml:space="preserve" text-anchor="start" x="20.5" y="-932.88" font-family="Helvetica,sans-Serif" font-size="10.00"> </text>
<polygon fill="#666666" stroke="#666666" points="0,-961.38 0,-961.38 47,-961.38 47,-961.38 0,-961.38"/>
<polygon fill="#666666" stroke="#666666" points="0,-944.62 0,-944.62 47,-944.62 47,-944.62 0,-944.62"/>
<polygon fill="none" stroke="#666666" points="0,-925.88 0,-980.12 47,-980.12 47,-925.88 0,-925.88"/>
</a>
</g>
</g>
<!-- Node3&#45;&gt;Node2 -->
<g id="edge2_Node000002_Node000003" class="edge">
<title>Node3&#45;&gt;Node2</title>
<g id="a_edge2_Node000002_Node000003"><a xlink:title=" ">
<path fill="none" stroke="#63b8ff" d="M37.33,-915.5C43.11,-900.5 49.99,-882.98 56.5,-867.25 61.37,-855.48 66.47,-843.35 71.66,-831.17"/>
<polygon fill="none" stroke="#63b8ff" points="34.19,-913.92 33.87,-924.51 40.72,-916.43 34.19,-913.92"/>
</a>
</g>
</g>
<!-- Node4 -->
<g id="Node000004" class="node">
<title>Node4</title>
<g id="a_Node000004"><a xlink:href="classIInterface__AssetUserData.html" target="_top" xlink:title=" ">
<polygon fill="white" stroke="none" points="219.75,-1038.75 65.25,-1038.75 65.25,-867.25 219.75,-867.25 219.75,-1038.75"/>
<text xml:space="preserve" text-anchor="start" x="80.25" y="-1025" font-family="Helvetica,sans-Serif" font-size="10.00">IInterface_AssetUserData</text>
<text xml:space="preserve" text-anchor="start" x="139.5" y="-1008.25" font-family="Helvetica,sans-Serif" font-size="10.00"> </text>
<text xml:space="preserve" text-anchor="start" x="69.25" y="-991.5" font-family="Helvetica,sans-Serif" font-size="10.00">&#45;</text>
<text xml:space="preserve" text-anchor="start" x="77" y="-991.5" font-family="Helvetica,sans-Serif" font-size="10.00">AddAssetUserData()</text>
<text xml:space="preserve" text-anchor="start" x="69.25" y="-974.75" font-family="Helvetica,sans-Serif" font-size="10.00">&#45;</text>
<text xml:space="preserve" text-anchor="start" x="77" y="-974.75" font-family="Helvetica,sans-Serif" font-size="10.00">GetAssetUserDataOfClass()</text>
<text xml:space="preserve" text-anchor="start" x="69.25" y="-958" font-family="Helvetica,sans-Serif" font-size="10.00">&#45;</text>
<text xml:space="preserve" text-anchor="start" x="77" y="-958" font-family="Helvetica,sans-Serif" font-size="10.00">HasAssetUserDataOfClass()</text>
<text xml:space="preserve" text-anchor="start" x="69.25" y="-941.25" font-family="Helvetica,sans-Serif" font-size="10.00">&#45;</text>
<text xml:space="preserve" text-anchor="start" x="77" y="-941.25" font-family="Helvetica,sans-Serif" font-size="10.00">AddAssetUserDataOfClass()</text>
<text xml:space="preserve" text-anchor="start" x="69.25" y="-924.5" font-family="Helvetica,sans-Serif" font-size="10.00">&#45;</text>
<text xml:space="preserve" text-anchor="start" x="77" y="-924.5" font-family="Helvetica,sans-Serif" font-size="10.00">GetAssetUserDataArray()</text>
<text xml:space="preserve" text-anchor="start" x="69.25" y="-907.75" font-family="Helvetica,sans-Serif" font-size="10.00">&#45;</text>
<text xml:space="preserve" text-anchor="start" x="77" y="-907.75" font-family="Helvetica,sans-Serif" font-size="10.00">GetAssetUserData()</text>
<text xml:space="preserve" text-anchor="start" x="69.25" y="-891" font-family="Helvetica,sans-Serif" font-size="10.00">&#45;</text>
<text xml:space="preserve" text-anchor="start" x="77" y="-891" font-family="Helvetica,sans-Serif" font-size="10.00">GetAssetUserDataChecked()</text>
<text xml:space="preserve" text-anchor="start" x="69.25" y="-874.25" font-family="Helvetica,sans-Serif" font-size="10.00">&#45;</text>
<text xml:space="preserve" text-anchor="start" x="77" y="-874.25" font-family="Helvetica,sans-Serif" font-size="10.00">RemoveUserDataOfClass()</text>
<polygon fill="#666666" stroke="#666666" points="65.25,-1020 65.25,-1020 219.75,-1020 219.75,-1020 65.25,-1020"/>
<polygon fill="#666666" stroke="#666666" points="65.25,-1003.25 65.25,-1003.25 219.75,-1003.25 219.75,-1003.25 65.25,-1003.25"/>
<polygon fill="none" stroke="#666666" points="65.25,-867.25 65.25,-1038.75 219.75,-1038.75 219.75,-867.25 65.25,-867.25"/>
</a>
</g>
</g>
<!-- Node4&#45;&gt;Node2 -->
<g id="edge3_Node000002_Node000004" class="edge">
<title>Node4&#45;&gt;Node2</title>
<g id="a_edge3_Node000002_Node000004"><a xlink:title=" ">
<path fill="none" stroke="#63b8ff" d="M142.5,-856C142.5,-847.86 142.5,-839.49 142.5,-831.03"/>
<polygon fill="none" stroke="#63b8ff" points="139,-855.83 142.5,-865.83 146,-855.83 139,-855.83"/>
</a>
</g>
</g>
<!-- Node5 -->
<g id="Node000005" class="node">
<title>Node5</title>
<g id="a_Node000005"><a xlink:href="classIInterface__PreviewMeshProvider.html" target="_top" xlink:title=" ">
<polygon fill="white" stroke="none" points="403.25,-996.88 237.75,-996.88 237.75,-909.12 403.25,-909.12 403.25,-996.88"/>
<text xml:space="preserve" text-anchor="start" x="241.75" y="-983.12" font-family="Helvetica,sans-Serif" font-size="10.00">IInterface_PreviewMeshProvider</text>
<text xml:space="preserve" text-anchor="start" x="317.5" y="-966.38" font-family="Helvetica,sans-Serif" font-size="10.00"> </text>
<text xml:space="preserve" text-anchor="start" x="255.56" y="-949.62" font-family="Helvetica,sans-Serif" font-size="10.00">+</text>
<text xml:space="preserve" text-anchor="start" x="281.62" y="-949.62" font-family="Helvetica,sans-Serif" font-size="10.00">SetPreviewMesh()</text>
<text xml:space="preserve" text-anchor="start" x="255.56" y="-932.88" font-family="Helvetica,sans-Serif" font-size="10.00">+</text>
<text xml:space="preserve" text-anchor="start" x="281.62" y="-932.88" font-family="Helvetica,sans-Serif" font-size="10.00">GetPreviewMesh()</text>
<text xml:space="preserve" text-anchor="start" x="255.56" y="-916.12" font-family="Helvetica,sans-Serif" font-size="10.00">+</text>
<text xml:space="preserve" text-anchor="start" x="281.62" y="-916.12" font-family="Helvetica,sans-Serif" font-size="10.00">GetPreviewMesh()</text>
<polygon fill="#666666" stroke="#666666" points="237.75,-978.12 237.75,-978.12 403.25,-978.12 403.25,-978.12 237.75,-978.12"/>
<polygon fill="#666666" stroke="#666666" points="237.75,-961.38 237.75,-961.38 403.25,-961.38 403.25,-961.38 237.75,-961.38"/>
<polygon fill="none" stroke="#666666" points="237.75,-909.12 237.75,-996.88 403.25,-996.88 403.25,-909.12 237.75,-909.12"/>
</a>
</g>
</g>
<!-- Node5&#45;&gt;Node2 -->
<g id="edge4_Node000002_Node000005" class="edge">
<title>Node5&#45;&gt;Node2</title>
<g id="a_edge4_Node000002_Node000005"><a xlink:title=" ">
<path fill="none" stroke="#63b8ff" d="M282.55,-900.2C267.48,-879.1 250.26,-854.28 235.5,-831.25 232.47,-826.51 229.41,-821.68 226.35,-816.77"/>
<polygon fill="none" stroke="#63b8ff" points="279.53,-901.99 288.2,-908.08 285.22,-897.91 279.53,-901.99"/>
</a>
</g>
</g>
<!-- Node6 -->
<g id="Node000006" class="node">
<title>Node6</title>
<g id="a_Node000006"><a xlink:href="classIInterface__AsyncCompilation.html" target="_top" xlink:title=" ">
<polygon fill="white" stroke="none" points="392.62,-697.25 244.38,-697.25 244.38,-643 392.62,-643 392.62,-697.25"/>
<text xml:space="preserve" text-anchor="start" x="248.38" y="-683.5" font-family="Helvetica,sans-Serif" font-size="10.00">IInterface_AsyncCompilation</text>
<text xml:space="preserve" text-anchor="start" x="315.5" y="-666.75" font-family="Helvetica,sans-Serif" font-size="10.00"> </text>
<text xml:space="preserve" text-anchor="start" x="265.19" y="-650" font-family="Helvetica,sans-Serif" font-size="10.00">&#45;</text>
<text xml:space="preserve" text-anchor="start" x="289.75" y="-650" font-family="Helvetica,sans-Serif" font-size="10.00">IsCompiling()</text>
<polygon fill="#666666" stroke="#666666" points="244.38,-678.5 244.38,-678.5 392.62,-678.5 392.62,-678.5 244.38,-678.5"/>
<polygon fill="#666666" stroke="#666666" points="244.38,-661.75 244.38,-661.75 392.62,-661.75 392.62,-661.75 244.38,-661.75"/>
<polygon fill="none" stroke="#666666" points="244.38,-643 244.38,-697.25 392.62,-697.25 392.62,-643 244.38,-643"/>
</a>
</g>
</g>
<!-- Node6&#45;&gt;Node1 -->
<g id="edge5_Node000001_Node000006" class="edge">
<title>Node6&#45;&gt;Node1</title>
<g id="a_edge5_Node000001_Node000006"><a xlink:title=" ">
<path fill="none" stroke="#63b8ff" d="M310.92,-631.94C303.39,-595.02 291.17,-535.08 278.5,-472.95"/>
<polygon fill="none" stroke="#63b8ff" points="307.46,-632.51 312.89,-641.61 314.32,-631.12 307.46,-632.51"/>
</a>
</g>
</g>
</g>
</svg>

<g id="navigator" transform="translate(0 0)" fill="#404254">
  <rect fill="#f2f5e9" fill-opacity="0.5" stroke="#606060" stroke-width=".5" x="0" y="0" width="60" height="60"/>
  <use id="zoomplus" xlink:href="#zoomPlus" x="17" y="9" onmousedown="handleZoom(evt,'in')"/>
  <use id="zoomminus" xlink:href="#zoomMin" x="42" y="9" onmousedown="handleZoom(evt,'out')"/>
  <use id="reset" xlink:href="#resetDef" x="30" y="36" onmousedown="handleReset()"/>
   <use id="arrowup" xlink:href="#arrowUp" x="0" y="0" onmousedown="handlePan(0,-1)"/>
  <use id="arrowright" xlink:href="#arrowRight" x="0" y="0" onmousedown="handlePan(1,0)"/>
  <use id="arrowdown" xlink:href="#arrowDown" x="0" y="0" onmousedown="handlePan(0,1)"/>
  <use id="arrowleft" xlink:href="#arrowLeft" x="0" y="0" onmousedown="handlePan(-1,0)"/>
</g>
<svg viewBox="0 0 15 15" width="100%" height="30px" preserveAspectRatio="xMaxYMin meet">
 <g id="arrow_out" transform="scale(0.3 0.3)">
  <a xlink:href="classUAnimBank__inherit__graph_org.svg" target="_base">
   <rect id="button" ry="5" rx="5" y="6" x="6" height="38" width="38"
        fill="#f2f5e9" fill-opacity="0.5" stroke="#606060" stroke-width="1.0"/>
   <path id="arrow"
     d="M 11.500037,31.436501 C 11.940474,20.09759 22.043105,11.32322 32.158766,21.979434 L 37.068811,17.246167 C 37.068811,17.246167 37.088388,32 37.088388,32 L 22.160133,31.978069 C 22.160133,31.978069 26.997745,27.140456 26.997745,27.140456 C 18.528582,18.264221 13.291696,25.230495 11.500037,31.436501 z"
     style="fill:#404040;"/>
  </a>
 </g>
</svg>

<style type='text/css'>
<![CDATA[
[data-mouse-over-selected='false'] { opacity: 0.7; }
[data-mouse-over-selected='true']  { opacity: 1.0; }
]]>
</style>
<script type="application/ecmascript"><![CDATA[
document.addEventListener('DOMContentLoaded', (event) => {
  highlightEdges();
  highlightAdjacentNodes();
});
]]></script>
</svg>
