<?xml version="1.0" encoding="UTF-8" standalone="no"?>
<!DOCTYPE svg PUBLIC "-//W3C//DTD SVG 1.1//EN"
 "http://www.w3.org/Graphics/SVG/1.1/DTD/svg11.dtd">
<!-- Generated by graphviz version 14.1.4 (0)
 -->
<!-- Title: TUniqueObj::TUniqueObj Pages: 1 -->
<svg width="316pt" height="146pt"
 viewBox="0.00 0.00 316.00 146.00" xmlns="http://www.w3.org/2000/svg" xmlns:xlink="http://www.w3.org/1999/xlink">
<g id="graph0" class="graph" transform="scale(1 1) rotate(0) translate(4 141.75)">
<title>TUniqueObj::TUniqueObj</title>
<!-- Node1 -->
<g id="Node000001" class="node">
<title>Node1</title>
<g id="a_Node000001"><a xlink:title=" ">
<polygon fill="#999999" stroke="#666666" points="308,-78.75 172,-78.75 172,-58 308,-58 308,-78.75"/>
<text xml:space="preserve" text-anchor="middle" x="240" y="-65.25" font-family="Helvetica,sans-Serif" font-size="10.00">TUniqueObj::TUniqueObj</text>
</a>
</g>
</g>
<!-- Node1&#45;&gt;Node1 -->
<g id="edge4_Node000001_Node000001" class="edge">
<title>Node1&#45;&gt;Node1</title>
<g id="a_edge4_Node000001_Node000001"><a xlink:title=" ">
<path fill="none" stroke="#63b8ff" d="M270.27,-90.24C266.26,-94.08 256.17,-96.75 240,-96.75 210.44,-96.75 201.2,-87.81 212.29,-79.15"/>
<polygon fill="#63b8ff" stroke="#63b8ff" points="273.71,-89.58 268.05,-80.62 266.89,-91.15 273.71,-89.58"/>
</a>
</g>
</g>
<!-- Node2 -->
<g id="Node000002" class="node">
<title>Node2</title>
<g id="a_Node000002"><a xlink:href="$classTUniqueObj.html#a4a6d52a8977de43aea60585deaf90865" xlink:title=" ">
<polygon fill="white" stroke="#666666" points="132.25,-137.75 3.75,-137.75 3.75,-117 132.25,-117 132.25,-137.75"/>
<text xml:space="preserve" text-anchor="middle" x="68" y="-124.25" font-family="Helvetica,sans-Serif" font-size="10.00">TUniqueObj::operator=</text>
</a>
</g>
</g>
<!-- Node1&#45;&gt;Node2 -->
<g id="edge1_Node000001_Node000002" class="edge">
<title>Node1&#45;&gt;Node2</title>
<g id="a_edge1_Node000001_Node000002"><a xlink:title=" ">
<path fill="none" stroke="#63b8ff" d="M201.53,-83.3C182.1,-90.86 157.91,-99.97 136,-107.38 126.69,-110.52 116.56,-113.68 107.06,-116.53"/>
<polygon fill="#63b8ff" stroke="#63b8ff" points="202.64,-86.63 210.67,-79.73 200.09,-80.11 202.64,-86.63"/>
</a>
</g>
</g>
<!-- Node3 -->
<g id="Node000003" class="node">
<title>Node3</title>
<g id="a_Node000003"><a xlink:href="$classTUniqueObj.html#a4dcb9e7437a3d1f53c80f09e4d500d1b" xlink:title=" ">
<polygon fill="white" stroke="#666666" points="132.25,-98.75 3.75,-98.75 3.75,-78 132.25,-78 132.25,-98.75"/>
<text xml:space="preserve" text-anchor="middle" x="68" y="-85.25" font-family="Helvetica,sans-Serif" font-size="10.00">TUniqueObj::operator=</text>
</a>
</g>
</g>
<!-- Node1&#45;&gt;Node3 -->
<g id="edge2_Node000001_Node000003" class="edge">
<title>Node1&#45;&gt;Node3</title>
<g id="a_edge2_Node000001_Node000003"><a xlink:title=" ">
<path fill="none" stroke="#63b8ff" d="M160.51,-77.61C151.18,-78.71 141.74,-79.82 132.65,-80.89"/>
<polygon fill="#63b8ff" stroke="#63b8ff" points="160.79,-81.1 170.31,-76.46 159.97,-74.15 160.79,-81.1"/>
</a>
</g>
</g>
<!-- Node4 -->
<g id="Node000004" class="node">
<title>Node4</title>
<g id="a_Node000004"><a xlink:href="$classTUniqueObj.html#a691c69fd228874c7c169c5f7804dee7c" xlink:title=" ">
<polygon fill="white" stroke="#666666" points="132.25,-59.75 3.75,-59.75 3.75,-39 132.25,-39 132.25,-59.75"/>
<text xml:space="preserve" text-anchor="middle" x="68" y="-46.25" font-family="Helvetica,sans-Serif" font-size="10.00">TUniqueObj::operator=</text>
</a>
</g>
</g>
<!-- Node1&#45;&gt;Node4 -->
<g id="edge3_Node000001_Node000004" class="edge">
<title>Node1&#45;&gt;Node4</title>
<g id="a_edge3_Node000001_Node000004"><a xlink:title=" ">
<path fill="none" stroke="#63b8ff" d="M160.51,-59.6C151.18,-58.56 141.74,-57.51 132.65,-56.49"/>
<polygon fill="#63b8ff" stroke="#63b8ff" points="159.98,-63.07 170.31,-60.7 160.76,-56.11 159.98,-63.07"/>
</a>
</g>
</g>
<!-- Node5 -->
<g id="Node000005" class="node">
<title>Node5</title>
<g id="a_Node000005"><a xlink:href="$classTUniqueObj.html#a120b9cc9086381e44ad158e845902c4a" xlink:title=" ">
<polygon fill="white" stroke="#666666" points="136,-20.75 0,-20.75 0,0 136,0 136,-20.75"/>
<text xml:space="preserve" text-anchor="middle" x="68" y="-7.25" font-family="Helvetica,sans-Serif" font-size="10.00">TUniqueObj::TUniqueObj</text>
</a>
</g>
</g>
<!-- Node1&#45;&gt;Node5 -->
<g id="edge5_Node000001_Node000005" class="edge">
<title>Node1&#45;&gt;Node5</title>
<g id="a_edge5_Node000001_Node000005"><a xlink:title=" ">
<path fill="none" stroke="#63b8ff" d="M200.69,-53.58C181.39,-46.3 157.56,-37.56 136,-30.38 126.56,-27.23 116.29,-24.04 106.69,-21.17"/>
<polygon fill="#63b8ff" stroke="#63b8ff" points="199.18,-56.76 209.78,-57.03 201.67,-50.21 199.18,-56.76"/>
</a>
</g>
</g>
</g>
</svg>
