<?xml version="1.0" encoding="UTF-8" standalone="no"?>
<!DOCTYPE svg PUBLIC "-//W3C//DTD SVG 1.1//EN"
 "http://www.w3.org/Graphics/SVG/1.1/DTD/svg11.dtd">
<!-- Generated by graphviz version 14.1.4 (0)
 -->
<!-- Title: UE_STRING_CLASS::Left Pages: 1 -->
<svg width="538pt" height="158pt"
 viewBox="0.00 0.00 538.00 158.00" xmlns="http://www.w3.org/2000/svg" xmlns:xlink="http://www.w3.org/1999/xlink">
<g id="graph0" class="graph" transform="scale(1 1) rotate(0) translate(4 154.12)">
<title>UE_STRING_CLASS::Left</title>
<!-- Node1 -->
<g id="Node000001" class="node">
<title>Node1</title>
<g id="a_Node000001"><a xlink:title=" ">
<polygon fill="#999999" stroke="#666666" points="133,-72.12 0,-72.12 0,-51.38 133,-51.38 133,-72.12"/>
<text xml:space="preserve" text-anchor="middle" x="66.5" y="-58.62" font-family="Helvetica,sans-Serif" font-size="10.00">UE_STRING_CLASS::Left</text>
</a>
</g>
</g>
<!-- Node2 -->
<g id="Node000002" class="node">
<title>Node2</title>
<g id="a_Node000002"><a xlink:href="$classUE__STRING__CLASS.html#a7bc7451ee329685bdb27652d7593985d" xlink:title=" ">
<polygon fill="white" stroke="#666666" points="329,-111.12 169,-111.12 169,-90.38 329,-90.38 329,-111.12"/>
<text xml:space="preserve" text-anchor="middle" x="249" y="-97.62" font-family="Helvetica,sans-Serif" font-size="10.00">UE_STRING_CLASS::LeftInline</text>
</a>
</g>
</g>
<!-- Node1&#45;&gt;Node2 -->
<g id="edge1_Node000001_Node000002" class="edge">
<title>Node1&#45;&gt;Node2</title>
<g id="a_edge1_Node000001_Node000002"><a xlink:title=" ">
<path fill="none" stroke="#63b8ff" d="M117.78,-72.61C139.11,-77.22 164.17,-82.64 186.58,-87.48"/>
<polygon fill="#63b8ff" stroke="#63b8ff" points="185.68,-90.87 196.2,-89.56 187.16,-84.02 185.68,-90.87"/>
</a>
</g>
</g>
<!-- Node6 -->
<g id="Node000006" class="node">
<title>Node6</title>
<g id="a_Node000006"><a xlink:href="$UnrealTemplate_8h.html#a6affb55ac4c80f005e72b931da3d3a55" xlink:title=" ">
<polygon fill="white" stroke="#666666" points="283.62,-72.12 214.38,-72.12 214.38,-51.38 283.62,-51.38 283.62,-72.12"/>
<text xml:space="preserve" text-anchor="middle" x="249" y="-58.62" font-family="Helvetica,sans-Serif" font-size="10.00">MoveTemp</text>
</a>
</g>
</g>
<!-- Node1&#45;&gt;Node6 -->
<g id="edge5_Node000001_Node000006" class="edge">
<title>Node1&#45;&gt;Node6</title>
<g id="a_edge5_Node000001_Node000006"><a xlink:title=" ">
<path fill="none" stroke="#63b8ff" d="M133.43,-61.75C156.35,-61.75 181.53,-61.75 202.44,-61.75"/>
<polygon fill="#63b8ff" stroke="#63b8ff" points="202.37,-65.25 212.37,-61.75 202.37,-58.25 202.37,-65.25"/>
</a>
</g>
</g>
<!-- Node7 -->
<g id="Node000007" class="node">
<title>Node7</title>
<g id="a_Node000007"><a xlink:href="$classUE__STRING__CLASS.html#a9fdb8a03064b85ab5477b07adeb213c9" xlink:title=" ">
<polygon fill="white" stroke="#666666" points="312.88,-33.5 185.12,-33.5 185.12,0 312.88,0 312.88,-33.5"/>
<text xml:space="preserve" text-anchor="start" x="193.12" y="-20" font-family="Helvetica,sans-Serif" font-size="10.00">UE_STRING_CLASS::UE</text>
<text xml:space="preserve" text-anchor="middle" x="249" y="-7.25" font-family="Helvetica,sans-Serif" font-size="10.00">_STRING_CLASS</text>
</a>
</g>
</g>
<!-- Node1&#45;&gt;Node7 -->
<g id="edge6_Node000001_Node000007" class="edge">
<title>Node1&#45;&gt;Node7</title>
<g id="a_edge6_Node000001_Node000007"><a xlink:title=" ">
<path fill="none" stroke="#63b8ff" d="M110.73,-50.97C129.65,-46.26 152.39,-40.59 173.87,-35.23"/>
<polygon fill="#63b8ff" stroke="#63b8ff" points="174.64,-38.65 183.5,-32.83 172.95,-31.85 174.64,-38.65"/>
</a>
</g>
</g>
<!-- Node3 -->
<g id="Node000003" class="node">
<title>Node3</title>
<g id="a_Node000003"><a xlink:href="$structFMath.html#a0d1c6457eaae0e89abc94c008d79a233" xlink:title=" ">
<polygon fill="white" stroke="#666666" points="489.75,-150.12 405.5,-150.12 405.5,-129.38 489.75,-129.38 489.75,-150.12"/>
<text xml:space="preserve" text-anchor="middle" x="447.62" y="-136.62" font-family="Helvetica,sans-Serif" font-size="10.00">FMath::Clamp</text>
</a>
</g>
</g>
<!-- Node2&#45;&gt;Node3 -->
<g id="edge2_Node000002_Node000003" class="edge">
<title>Node2&#45;&gt;Node3</title>
<g id="a_edge2_Node000002_Node000003"><a xlink:title=" ">
<path fill="none" stroke="#63b8ff" d="M304.77,-111.61C332.74,-117.16 366.59,-123.88 394.21,-129.35"/>
<polygon fill="#63b8ff" stroke="#63b8ff" points="393.27,-132.73 403.76,-131.25 394.63,-125.87 393.27,-132.73"/>
</a>
</g>
</g>
<!-- Node4 -->
<g id="Node000004" class="node">
<title>Node4</title>
<g id="a_Node000004"><a xlink:href="$classUE__STRING__CLASS.html#a6f1c67b105cf4c4025d95341f17d127e" xlink:title=" ">
<polygon fill="white" stroke="#666666" points="513.38,-111.12 381.88,-111.12 381.88,-90.38 513.38,-90.38 513.38,-111.12"/>
<text xml:space="preserve" text-anchor="middle" x="447.62" y="-97.62" font-family="Helvetica,sans-Serif" font-size="10.00">UE_STRING_CLASS::Len</text>
</a>
</g>
</g>
<!-- Node2&#45;&gt;Node4 -->
<g id="edge3_Node000002_Node000004" class="edge">
<title>Node2&#45;&gt;Node4</title>
<g id="a_edge3_Node000002_Node000004"><a xlink:title=" ">
<path fill="none" stroke="#63b8ff" d="M329.41,-100.75C342.76,-100.75 356.6,-100.75 369.89,-100.75"/>
<polygon fill="#63b8ff" stroke="#63b8ff" points="369.88,-104.25 379.88,-100.75 369.88,-97.25 369.88,-104.25"/>
</a>
</g>
</g>
<!-- Node5 -->
<g id="Node000005" class="node">
<title>Node5</title>
<g id="a_Node000005"><a xlink:href="$classUE__STRING__CLASS.html#ad7e5533b7118649e3e3e5b16a36b63e5" xlink:title=" ">
<polygon fill="white" stroke="#666666" points="530.25,-72.12 365,-72.12 365,-51.38 530.25,-51.38 530.25,-72.12"/>
<text xml:space="preserve" text-anchor="middle" x="447.62" y="-58.62" font-family="Helvetica,sans-Serif" font-size="10.00">UE_STRING_CLASS::RemoveAt</text>
</a>
</g>
</g>
<!-- Node2&#45;&gt;Node5 -->
<g id="edge4_Node000002_Node000005" class="edge">
<title>Node2&#45;&gt;Node5</title>
<g id="a_edge4_Node000002_Node000005"><a xlink:title=" ">
<path fill="none" stroke="#63b8ff" d="M304.77,-89.89C328.32,-85.22 356.05,-79.72 380.72,-74.82"/>
<polygon fill="#63b8ff" stroke="#63b8ff" points="381.19,-78.3 390.32,-72.92 379.83,-71.43 381.19,-78.3"/>
</a>
</g>
</g>
</g>
</svg>
