<?xml version="1.0" encoding="UTF-8" standalone="no"?>
<!DOCTYPE svg PUBLIC "-//W3C//DTD SVG 1.1//EN"
 "http://www.w3.org/Graphics/SVG/1.1/DTD/svg11.dtd">
<!-- Generated by graphviz version 14.1.4 (0)
 -->
<!-- Title: TNonRelocatableInlineAllocator::ForElementType::~ForElementType Pages: 1 -->
<svg width="642pt" height="137pt"
 viewBox="0.00 0.00 642.00 137.00" xmlns="http://www.w3.org/2000/svg" xmlns:xlink="http://www.w3.org/1999/xlink">
<g id="graph0" class="graph" transform="scale(1 1) rotate(0) translate(4 133.12)">
<title>TNonRelocatableInlineAllocator::ForElementType::~ForElementType</title>
<!-- Node1 -->
<g id="Node000001" class="node">
<title>Node1</title>
<g id="a_Node000001"><a xlink:title=" ">
<polygon fill="#999999" stroke="#666666" points="192.25,-55.5 0,-55.5 0,-22 192.25,-22 192.25,-55.5"/>
<text xml:space="preserve" text-anchor="start" x="8" y="-42" font-family="Helvetica,sans-Serif" font-size="10.00">TNonRelocatableInlineAllocator</text>
<text xml:space="preserve" text-anchor="middle" x="96.12" y="-29.25" font-family="Helvetica,sans-Serif" font-size="10.00">::ForElementType::~ForElementType</text>
</a>
</g>
</g>
<!-- Node2 -->
<g id="Node000002" class="node">
<title>Node2</title>
<g id="a_Node000002"><a xlink:href="$structFMemory.html#a128d6bd210b904d184a2e2c72000ba0b" xlink:title=" ">
<polygon fill="white" stroke="#666666" points="359.38,-72.12 270.62,-72.12 270.62,-51.38 359.38,-51.38 359.38,-72.12"/>
<text xml:space="preserve" text-anchor="middle" x="315" y="-58.62" font-family="Helvetica,sans-Serif" font-size="10.00">FMemory::Free</text>
</a>
</g>
</g>
<!-- Node1&#45;&gt;Node2 -->
<g id="edge1_Node000001_Node000002" class="edge">
<title>Node1&#45;&gt;Node2</title>
<g id="a_edge1_Node000001_Node000002"><a xlink:title=" ">
<path fill="none" stroke="#63b8ff" d="M192.57,-48.87C215.17,-51.27 238.55,-53.75 258.68,-55.88"/>
<polygon fill="#63b8ff" stroke="#63b8ff" points="258.31,-59.36 268.62,-56.94 259.05,-52.4 258.31,-59.36"/>
</a>
</g>
</g>
<!-- Node5 -->
<g id="Node000005" class="node">
<title>Node5</title>
<g id="a_Node000005"><a xlink:href="$classTNonRelocatableInlineAllocator_1_1ForElementType.html#af95b8eef16e3e047e7b0e5446adaf859" xlink:title=" ">
<polygon fill="white" stroke="#666666" points="401.75,-33.5 228.25,-33.5 228.25,0 401.75,0 401.75,-33.5"/>
<text xml:space="preserve" text-anchor="start" x="236.25" y="-20" font-family="Helvetica,sans-Serif" font-size="10.00">TNonRelocatableInlineAllocator</text>
<text xml:space="preserve" text-anchor="middle" x="315" y="-7.25" font-family="Helvetica,sans-Serif" font-size="10.00">::ForElementType::HasAllocation</text>
</a>
</g>
</g>
<!-- Node1&#45;&gt;Node5 -->
<g id="edge5_Node000001_Node000005" class="edge">
<title>Node1&#45;&gt;Node5</title>
<g id="a_edge5_Node000001_Node000005"><a xlink:title=" ">
<path fill="none" stroke="#63b8ff" d="M192.57,-29.07C200.6,-28.25 208.73,-27.43 216.77,-26.61"/>
<polygon fill="#63b8ff" stroke="#63b8ff" points="216.97,-30.11 226.57,-25.62 216.27,-23.15 216.97,-30.11"/>
</a>
</g>
</g>
<!-- Node3 -->
<g id="Node000003" class="node">
<title>Node3</title>
<g id="a_Node000003"><a xlink:href="$UnrealMemory_8h.html#ad8b6a9055e77cbb50c015482aec14dd5" xlink:title=" ">
<polygon fill="white" stroke="#666666" points="593.62,-129.12 477.88,-129.12 477.88,-108.38 593.62,-108.38 593.62,-129.12"/>
<text xml:space="preserve" text-anchor="middle" x="535.75" y="-115.62" font-family="Helvetica,sans-Serif" font-size="10.00">DoGamethreadHook</text>
</a>
</g>
</g>
<!-- Node2&#45;&gt;Node3 -->
<g id="edge2_Node000002_Node000003" class="edge">
<title>Node2&#45;&gt;Node3</title>
<g id="a_edge2_Node000002_Node000003"><a xlink:title=" ">
<path fill="none" stroke="#63b8ff" d="M348.84,-72.62C373.21,-80.48 407.35,-91.01 437.75,-98.75 446.97,-101.1 456.74,-103.36 466.39,-105.48"/>
<polygon fill="#63b8ff" stroke="#63b8ff" points="465.63,-108.89 476.14,-107.56 467.09,-102.05 465.63,-108.89"/>
</a>
</g>
</g>
<!-- Node4 -->
<g id="Node000004" class="node">
<title>Node4</title>
<g id="a_Node000004"><a xlink:href="$structFMemory.html#ad40e43c43403a535bbf03ea37d0ba13a" xlink:title=" ">
<polygon fill="white" stroke="#666666" points="600.38,-72.12 471.12,-72.12 471.12,-51.38 600.38,-51.38 600.38,-72.12"/>
<text xml:space="preserve" text-anchor="middle" x="535.75" y="-58.62" font-family="Helvetica,sans-Serif" font-size="10.00">FMemory::FreeExternal</text>
</a>
</g>
</g>
<!-- Node2&#45;&gt;Node4 -->
<g id="edge3_Node000002_Node000004" class="edge">
<title>Node2&#45;&gt;Node4</title>
<g id="a_edge3_Node000002_Node000004"><a xlink:title=" ">
<path fill="none" stroke="#63b8ff" d="M359.74,-61.75C388.31,-61.75 426.35,-61.75 459.67,-61.75"/>
<polygon fill="#63b8ff" stroke="#63b8ff" points="459.25,-65.25 469.25,-61.75 459.25,-58.25 459.25,-65.25"/>
</a>
</g>
</g>
<!-- Node4&#45;&gt;Node4 -->
<g id="edge4_Node000004_Node000004" class="edge">
<title>Node4&#45;&gt;Node4</title>
<g id="a_edge4_Node000004_Node000004"><a xlink:title=" ">
<path fill="none" stroke="#63b8ff" d="M500.18,-72.52C485.95,-81.18 497.81,-90.12 535.75,-90.12 557.09,-90.12 570.18,-87.3 575.02,-83.28"/>
<polygon fill="#63b8ff" stroke="#63b8ff" points="578.37,-82.27 571.81,-73.95 571.75,-84.55 578.37,-82.27"/>
</a>
</g>
</g>
<!-- Node6 -->
<g id="Node000006" class="node">
<title>Node6</title>
<g id="a_Node000006"><a xlink:href="$classTNonRelocatableInlineAllocator_1_1ForElementType.html#a4e28bc9b760fee03ea56b954a8eec2a3" xlink:title=" ">
<polygon fill="white" stroke="#666666" points="633.75,-33.5 437.75,-33.5 437.75,0 633.75,0 633.75,-33.5"/>
<text xml:space="preserve" text-anchor="start" x="445.75" y="-20" font-family="Helvetica,sans-Serif" font-size="10.00">TNonRelocatableInlineAllocator</text>
<text xml:space="preserve" text-anchor="middle" x="535.75" y="-7.25" font-family="Helvetica,sans-Serif" font-size="10.00">::ForElementType::GetInlineElements</text>
</a>
</g>
</g>
<!-- Node5&#45;&gt;Node6 -->
<g id="edge6_Node000005_Node000006" class="edge">
<title>Node5&#45;&gt;Node6</title>
<g id="a_edge6_Node000005_Node000006"><a xlink:title=" ">
<path fill="none" stroke="#63b8ff" d="M402.14,-16.75C410.02,-16.75 418.08,-16.75 426.12,-16.75"/>
<polygon fill="#63b8ff" stroke="#63b8ff" points="425.96,-20.25 435.96,-16.75 425.96,-13.25 425.96,-20.25"/>
</a>
</g>
</g>
</g>
</svg>
