<?xml version="1.0" encoding="UTF-8" standalone="no"?>
<!DOCTYPE svg PUBLIC "-//W3C//DTD SVG 1.1//EN"
 "http://www.w3.org/Graphics/SVG/1.1/DTD/svg11.dtd">
<!-- Generated by graphviz version 14.1.4 (0)
 -->
<!-- Title: FPaths::ProjectDir Pages: 1 -->
<svg width="340pt" height="47pt"
 viewBox="0.00 0.00 340.00 47.00" xmlns="http://www.w3.org/2000/svg" xmlns:xlink="http://www.w3.org/1999/xlink">
<g id="graph0" class="graph" transform="scale(1 1) rotate(0) translate(4 42.75)">
<title>FPaths::ProjectDir</title>
<!-- Node1 -->
<g id="Node000001" class="node">
<title>Node1</title>
<g id="a_Node000001"><a xlink:title=" ">
<polygon fill="#999999" stroke="#666666" points="332,-20.75 229,-20.75 229,0 332,0 332,-20.75"/>
<text xml:space="preserve" text-anchor="middle" x="280.5" y="-7.25" font-family="Helvetica,sans-Serif" font-size="10.00">FPaths::ProjectDir</text>
</a>
</g>
</g>
<!-- Node2 -->
<g id="Node000002" class="node">
<title>Node2</title>
<g id="a_Node000002"><a xlink:href="$classFPaths.html#a54981008f05d8cdfe753ec3978a3abf6" xlink:title=" ">
<polygon fill="white" stroke="#666666" points="193,-20.75 0,-20.75 0,0 193,0 193,-20.75"/>
<text xml:space="preserve" text-anchor="middle" x="96.5" y="-7.25" font-family="Helvetica,sans-Serif" font-size="10.00">FPaths::ProjectPlatformExtensionDir</text>
</a>
</g>
</g>
<!-- Node1&#45;&gt;Node2 -->
<g id="edge1_Node000001_Node000002" class="edge">
<title>Node1&#45;&gt;Node2</title>
<g id="a_edge1_Node000001_Node000002"><a xlink:title=" ">
<path fill="none" stroke="#63b8ff" d="M217.53,-10.38C209.66,-10.38 201.47,-10.38 193.22,-10.38"/>
<polygon fill="#63b8ff" stroke="#63b8ff" points="217.29,-13.88 227.29,-10.38 217.29,-6.88 217.29,-13.88"/>
</a>
</g>
</g>
<!-- Node2&#45;&gt;Node2 -->
<g id="edge2_Node000002_Node000002" class="edge">
<title>Node2&#45;&gt;Node2</title>
<g id="a_edge2_Node000002_Node000002"><a xlink:title=" ">
<path fill="none" stroke="#63b8ff" d="M128.88,-32.24C124.59,-36.08 113.79,-38.75 96.5,-38.75 64.88,-38.75 54.99,-29.81 66.85,-21.15"/>
<polygon fill="#63b8ff" stroke="#63b8ff" points="132.3,-31.49 126.51,-22.62 125.5,-33.16 132.3,-31.49"/>
</a>
</g>
</g>
</g>
</svg>
