<?xml version="1.0" encoding="UTF-8" standalone="no"?>
<!DOCTYPE svg PUBLIC "-//W3C//DTD SVG 1.1//EN"
 "http://www.w3.org/Graphics/SVG/1.1/DTD/svg11.dtd">
<!-- Generated by graphviz version 14.1.4 (0)
 -->
<!-- Title: FMessageLog::Notify Pages: 1 -->
<svg width="270pt" height="47pt"
 viewBox="0.00 0.00 270.00 47.00" xmlns="http://www.w3.org/2000/svg" xmlns:xlink="http://www.w3.org/1999/xlink">
<g id="graph0" class="graph" transform="scale(1 1) rotate(0) translate(4 42.75)">
<title>FMessageLog::Notify</title>
<!-- Node1 -->
<g id="Node000001" class="node">
<title>Node1</title>
<g id="a_Node000001"><a xlink:title=" ">
<polygon fill="#999999" stroke="#666666" points="118.75,-20.75 0,-20.75 0,0 118.75,0 118.75,-20.75"/>
<text xml:space="preserve" text-anchor="middle" x="59.38" y="-7.25" font-family="Helvetica,sans-Serif" font-size="10.00">FMessageLog::Notify</text>
</a>
</g>
</g>
<!-- Node1&#45;&gt;Node1 -->
<g id="edge3_Node000001_Node000001" class="edge">
<title>Node1&#45;&gt;Node1</title>
<g id="a_edge3_Node000001_Node000001"><a xlink:title=" ">
<path fill="none" stroke="#63b8ff" d="M35.35,-21.15C25.73,-29.81 33.74,-38.75 59.38,-38.75 73.39,-38.75 82.14,-36.08 85.62,-32.24"/>
<polygon fill="#63b8ff" stroke="#63b8ff" points="89.09,-31.75 83.7,-22.63 82.22,-33.12 89.09,-31.75"/>
</a>
</g>
</g>
<!-- Node2 -->
<g id="Node000002" class="node">
<title>Node2</title>
<g id="a_Node000002"><a xlink:href="$classFMessageLog.html#a580b7608c288b49c4e5e085402bffb32" xlink:title=" ">
<polygon fill="white" stroke="#666666" points="262.25,-20.75 154.75,-20.75 154.75,0 262.25,0 262.25,-20.75"/>
<text xml:space="preserve" text-anchor="middle" x="208.5" y="-7.25" font-family="Helvetica,sans-Serif" font-size="10.00">FMessageLog::Info</text>
</a>
</g>
</g>
<!-- Node1&#45;&gt;Node2 -->
<g id="edge1_Node000001_Node000002" class="edge">
<title>Node1&#45;&gt;Node2</title>
<g id="a_edge1_Node000001_Node000002"><a xlink:title=" ">
<path fill="none" stroke="#63b8ff" d="M118.95,-10.38C126.81,-10.38 134.91,-10.38 142.86,-10.38"/>
<polygon fill="#63b8ff" stroke="#63b8ff" points="142.86,-13.88 152.86,-10.38 142.86,-6.88 142.86,-13.88"/>
</a>
</g>
</g>
<!-- Node2&#45;&gt;Node2 -->
<g id="edge2_Node000002_Node000002" class="edge">
<title>Node2&#45;&gt;Node2</title>
<g id="a_edge2_Node000002_Node000002"><a xlink:title=" ">
<path fill="none" stroke="#63b8ff" d="M184.47,-21.15C174.86,-29.81 182.87,-38.75 208.5,-38.75 222.52,-38.75 231.26,-36.08 234.74,-32.24"/>
<polygon fill="#63b8ff" stroke="#63b8ff" points="238.21,-31.75 232.82,-22.63 231.35,-33.12 238.21,-31.75"/>
</a>
</g>
</g>
</g>
</svg>
