<?xml version="1.0" encoding="UTF-8" standalone="no"?>
<!DOCTYPE svg PUBLIC "-//W3C//DTD SVG 1.1//EN"
 "http://www.w3.org/Graphics/SVG/1.1/DTD/svg11.dtd">
<!-- Generated by graphviz version 14.1.4 (0)
 -->
<!-- Title: UVectorFieldStatic Pages: 1 -->
<!--zoomable 645 -->

<svg id="main" version="1.1" xmlns="http://www.w3.org/2000/svg" xmlns:xlink="http://www.w3.org/1999/xlink" xml:space="preserve" onload="init(evt)">

<style type="text/css"><![CDATA[
.node, .edge {opacity: 0.7;}
.node.selected, .edge.selected {opacity: 1;}
.edge:hover path { stroke: red; }
.edge:hover polygon { stroke: red; fill: red; }
]]></style>

<defs>
  <circle id="rim" cx="0" cy="0" r="7"/>
  <circle id="rim2" cx="0" cy="0" r="3.5"/>
  <g id="zoomPlus">
    <use xlink:href="#rim" fill="#404040"><set attributeName="fill" to="#808080" begin="zoomplus.mouseover" end="zoomplus.mouseout"/></use>
    <path d="M-4,0h8M0,-4v8" fill="none" stroke="white" stroke-width="1.5" pointer-events="none"/>
  </g>
  <g id="zoomMin">
    <use xlink:href="#rim" fill="#404040"><set attributeName="fill" to="#808080" begin="zoomminus.mouseover" end="zoomminus.mouseout"/></use>
    <path d="M-4,0h8" fill="none" stroke="white" stroke-width="1.5" pointer-events="none"/>
  </g>
  <g id="arrowUp" transform="translate(30 24)">
    <use xlink:href="#rim"/>
    <path pointer-events="none" fill="none" stroke="white" stroke-width="1.5" d="M0,-3.0v7 M-2.5,-0.5L0,-3.0L2.5,-0.5"/>
  </g>
  <g id="arrowRight" transform="rotate(90) translate(36 -43)">
    <use xlink:href="#rim"/>
    <path pointer-events="none" fill="none" stroke="white" stroke-width="1.5" d="M0,-3.0v7 M-2.5,-0.5L0,-3.0L2.5,-0.5"/>
  </g>
  <g id="arrowDown" transform="rotate(180) translate(-30 -48)">
    <use xlink:href="#rim"/>
    <path pointer-events="none" fill="none" stroke="white" stroke-width="1.5" d="M0,-3.0v7 M-2.5,-0.5L0,-3.0L2.5,-0.5"/>
  </g>
  <g id="arrowLeft" transform="rotate(270) translate(-36 17)">
    <use xlink:href="#rim"/>
    <path pointer-events="none" fill="none" stroke="white" stroke-width="1.5" d="M0,-3.0v7 M-2.5,-0.5L0,-3.0L2.5,-0.5"/>
  </g>
  <g id="resetDef">
    <use xlink:href="#rim2" fill="#404040"><set attributeName="fill" to="#808080" begin="reset.mouseover" end="reset.mouseout"/></use>
  </g>
</defs>
<script type="application/ecmascript">
var viewWidth = 154;
var viewHeight = 645;
var sectionId = 'dynsection-1';
</script>
<script type="application/ecmascript" xlink:href="svg.min.js"/>
<svg id="graph" class="graph">
<g id="viewport">
<title>UVectorFieldStatic</title>
<!-- Node1 -->
<g id="Node000001" class="node">
<title>Node1</title>
<g id="a_Node000001"><a xlink:title=" ">
<polygon fill="#999999" stroke="none" points="145.5,-439.5 0,-439.5 0,0 145.5,0 145.5,-439.5"/>
<text xml:space="preserve" text-anchor="start" x="28.12" y="-425.75" font-family="Helvetica,sans-Serif" font-size="10.00">UVectorFieldStatic</text>
<text xml:space="preserve" text-anchor="start" x="4" y="-409" font-family="Helvetica,sans-Serif" font-size="10.00">+</text>
<text xml:space="preserve" text-anchor="start" x="16.25" y="-409" font-family="Helvetica,sans-Serif" font-size="10.00">Resource</text>
<text xml:space="preserve" text-anchor="start" x="4" y="-392.25" font-family="Helvetica,sans-Serif" font-size="10.00">+</text>
<text xml:space="preserve" text-anchor="start" x="16.25" y="-392.25" font-family="Helvetica,sans-Serif" font-size="10.00">SourceData</text>
<text xml:space="preserve" text-anchor="start" x="6.25" y="-375.5" font-family="Helvetica,sans-Serif" font-size="10.00">&#45;</text>
<text xml:space="preserve" text-anchor="start" x="16.25" y="-375.5" font-family="Helvetica,sans-Serif" font-size="10.00">SizeX</text>
<text xml:space="preserve" text-anchor="start" x="6.25" y="-358.75" font-family="Helvetica,sans-Serif" font-size="10.00">&#45;</text>
<text xml:space="preserve" text-anchor="start" x="16.25" y="-358.75" font-family="Helvetica,sans-Serif" font-size="10.00">SizeY</text>
<text xml:space="preserve" text-anchor="start" x="6.25" y="-342" font-family="Helvetica,sans-Serif" font-size="10.00">&#45;</text>
<text xml:space="preserve" text-anchor="start" x="16.25" y="-342" font-family="Helvetica,sans-Serif" font-size="10.00">SizeZ</text>
<text xml:space="preserve" text-anchor="start" x="6.25" y="-325.25" font-family="Helvetica,sans-Serif" font-size="10.00">&#45;</text>
<text xml:space="preserve" text-anchor="start" x="16.25" y="-325.25" font-family="Helvetica,sans-Serif" font-size="10.00">bAllowCPUAccess</text>
<text xml:space="preserve" text-anchor="start" x="6.25" y="-308.5" font-family="Helvetica,sans-Serif" font-size="10.00">&#45;</text>
<text xml:space="preserve" text-anchor="start" x="16.25" y="-308.5" font-family="Helvetica,sans-Serif" font-size="10.00">CPUData</text>
<text xml:space="preserve" text-anchor="start" x="4" y="-291.75" font-family="Helvetica,sans-Serif" font-size="10.00">+</text>
<text xml:space="preserve" text-anchor="start" x="16.25" y="-291.75" font-family="Helvetica,sans-Serif" font-size="10.00">PostLoad()</text>
<text xml:space="preserve" text-anchor="start" x="4" y="-275" font-family="Helvetica,sans-Serif" font-size="10.00">+</text>
<text xml:space="preserve" text-anchor="start" x="16.25" y="-275" font-family="Helvetica,sans-Serif" font-size="10.00">BeginDestroy()</text>
<text xml:space="preserve" text-anchor="start" x="4" y="-258.25" font-family="Helvetica,sans-Serif" font-size="10.00">+</text>
<text xml:space="preserve" text-anchor="start" x="16.25" y="-258.25" font-family="Helvetica,sans-Serif" font-size="10.00">GetResourceSizeEx()</text>
<text xml:space="preserve" text-anchor="start" x="4" y="-241.5" font-family="Helvetica,sans-Serif" font-size="10.00">+</text>
<text xml:space="preserve" text-anchor="start" x="16.25" y="-241.5" font-family="Helvetica,sans-Serif" font-size="10.00">PostEditChangeProperty()</text>
<text xml:space="preserve" text-anchor="start" x="4" y="-224.75" font-family="Helvetica,sans-Serif" font-size="10.00">+</text>
<text xml:space="preserve" text-anchor="start" x="16.25" y="-224.75" font-family="Helvetica,sans-Serif" font-size="10.00">Serialize()</text>
<text xml:space="preserve" text-anchor="start" x="4" y="-208" font-family="Helvetica,sans-Serif" font-size="10.00">+</text>
<text xml:space="preserve" text-anchor="start" x="16.25" y="-208" font-family="Helvetica,sans-Serif" font-size="10.00">InitInstance()</text>
<text xml:space="preserve" text-anchor="start" x="4" y="-191.25" font-family="Helvetica,sans-Serif" font-size="10.00">+</text>
<text xml:space="preserve" text-anchor="start" x="16.25" y="-191.25" font-family="Helvetica,sans-Serif" font-size="10.00">InitResource()</text>
<text xml:space="preserve" text-anchor="start" x="4" y="-174.5" font-family="Helvetica,sans-Serif" font-size="10.00">+</text>
<text xml:space="preserve" text-anchor="start" x="16.25" y="-174.5" font-family="Helvetica,sans-Serif" font-size="10.00">UpdateCPUData()</text>
<text xml:space="preserve" text-anchor="start" x="4" y="-157.75" font-family="Helvetica,sans-Serif" font-size="10.00">+</text>
<text xml:space="preserve" text-anchor="start" x="16.25" y="-157.75" font-family="Helvetica,sans-Serif" font-size="10.00">UpdateCPUData()</text>
<text xml:space="preserve" text-anchor="start" x="4" y="-141" font-family="Helvetica,sans-Serif" font-size="10.00">+</text>
<text xml:space="preserve" text-anchor="start" x="16.25" y="-141" font-family="Helvetica,sans-Serif" font-size="10.00">SetCPUAccessEnabled()</text>
<text xml:space="preserve" text-anchor="start" x="4" y="-124.25" font-family="Helvetica,sans-Serif" font-size="10.00">+</text>
<text xml:space="preserve" text-anchor="start" x="16.25" y="-124.25" font-family="Helvetica,sans-Serif" font-size="10.00">GetVolumeTextureRef()</text>
<text xml:space="preserve" text-anchor="start" x="4" y="-107.5" font-family="Helvetica,sans-Serif" font-size="10.00">+</text>
<text xml:space="preserve" text-anchor="start" x="16.25" y="-107.5" font-family="Helvetica,sans-Serif" font-size="10.00">FilteredSample()</text>
<text xml:space="preserve" text-anchor="start" x="4" y="-90.75" font-family="Helvetica,sans-Serif" font-size="10.00">+</text>
<text xml:space="preserve" text-anchor="start" x="16.25" y="-90.75" font-family="Helvetica,sans-Serif" font-size="10.00">Sample()</text>
<text xml:space="preserve" text-anchor="start" x="4" y="-74" font-family="Helvetica,sans-Serif" font-size="10.00">+</text>
<text xml:space="preserve" text-anchor="start" x="16.25" y="-74" font-family="Helvetica,sans-Serif" font-size="10.00">ReadCPUData()</text>
<text xml:space="preserve" text-anchor="start" x="4" y="-57.25" font-family="Helvetica,sans-Serif" font-size="10.00">+</text>
<text xml:space="preserve" text-anchor="start" x="16.25" y="-57.25" font-family="Helvetica,sans-Serif" font-size="10.00">HasCPUData()</text>
<text xml:space="preserve" text-anchor="start" x="6.25" y="-40.5" font-family="Helvetica,sans-Serif" font-size="10.00">&#45;</text>
<text xml:space="preserve" text-anchor="start" x="16.25" y="-40.5" font-family="Helvetica,sans-Serif" font-size="10.00">UpdateResource()</text>
<text xml:space="preserve" text-anchor="start" x="6.25" y="-23.75" font-family="Helvetica,sans-Serif" font-size="10.00">&#45;</text>
<text xml:space="preserve" text-anchor="start" x="16.25" y="-23.75" font-family="Helvetica,sans-Serif" font-size="10.00">ReleaseResource()</text>
<text xml:space="preserve" text-anchor="start" x="6.25" y="-7" font-family="Helvetica,sans-Serif" font-size="10.00">&#45;</text>
<text xml:space="preserve" text-anchor="start" x="16.25" y="-7" font-family="Helvetica,sans-Serif" font-size="10.00">SampleInternal()</text>
<polygon fill="#666666" stroke="#666666" points="0,-420.75 0,-420.75 145.5,-420.75 145.5,-420.75 0,-420.75"/>
<polygon fill="#666666" stroke="#666666" points="0,-303.5 0,-303.5 14.25,-303.5 14.25,-303.5 0,-303.5"/>
<polygon fill="#666666" stroke="#666666" points="14.25,-303.5 14.25,-303.5 145.5,-303.5 145.5,-303.5 14.25,-303.5"/>
<polygon fill="none" stroke="#666666" points="0,0 0,-439.5 145.5,-439.5 145.5,0 0,0"/>
</a>
</g>
</g>
<!-- Node2 -->
<g id="Node000002" class="node">
<title>Node2</title>
<g id="a_Node000002"><a xlink:href="classUVectorField.html" target="_top" xlink:title=" ">
<polygon fill="white" stroke="none" points="112.88,-546.5 32.62,-546.5 32.62,-475.5 112.88,-475.5 112.88,-546.5"/>
<text xml:space="preserve" text-anchor="start" x="42" y="-532.75" font-family="Helvetica,sans-Serif" font-size="10.00">UVectorField</text>
<text xml:space="preserve" text-anchor="start" x="36.62" y="-516" font-family="Helvetica,sans-Serif" font-size="10.00">&#45;</text>
<text xml:space="preserve" text-anchor="start" x="44.38" y="-516" font-family="Helvetica,sans-Serif" font-size="10.00">Bounds</text>
<text xml:space="preserve" text-anchor="start" x="36.62" y="-499.25" font-family="Helvetica,sans-Serif" font-size="10.00">&#45;</text>
<text xml:space="preserve" text-anchor="start" x="44.38" y="-499.25" font-family="Helvetica,sans-Serif" font-size="10.00">Intensity</text>
<text xml:space="preserve" text-anchor="start" x="36.62" y="-482.5" font-family="Helvetica,sans-Serif" font-size="10.00">&#45;</text>
<text xml:space="preserve" text-anchor="start" x="44.38" y="-482.5" font-family="Helvetica,sans-Serif" font-size="10.00">InitInstance()</text>
<polygon fill="#666666" stroke="#666666" points="32.62,-527.75 32.62,-527.75 112.88,-527.75 112.88,-527.75 32.62,-527.75"/>
<polygon fill="#666666" stroke="#666666" points="32.62,-494.25 32.62,-494.25 42.38,-494.25 42.38,-494.25 32.62,-494.25"/>
<polygon fill="#666666" stroke="#666666" points="42.38,-494.25 42.38,-494.25 112.88,-494.25 112.88,-494.25 42.38,-494.25"/>
<polygon fill="none" stroke="#666666" points="32.62,-475.5 32.62,-546.5 112.88,-546.5 112.88,-475.5 32.62,-475.5"/>
</a>
</g>
</g>
<!-- Node2&#45;&gt;Node1 -->
<g id="edge1_Node000001_Node000002" class="edge">
<title>Node2&#45;&gt;Node1</title>
<g id="a_edge1_Node000001_Node000002"><a xlink:title=" ">
<path fill="none" stroke="#63b8ff" d="M72.75,-464.24C72.75,-456.56 72.75,-448.17 72.75,-439.27"/>
<polygon fill="none" stroke="#63b8ff" points="69.25,-464.17 72.75,-474.17 76.25,-464.17 69.25,-464.17"/>
</a>
</g>
</g>
<!-- Node3 -->
<g id="Node000003" class="node">
<title>Node3</title>
<g id="a_Node000003"><a xlink:title=" ">
<polygon fill="white" stroke="none" points="96.25,-636.75 49.25,-636.75 49.25,-582.5 96.25,-582.5 96.25,-636.75"/>
<text xml:space="preserve" text-anchor="start" x="53.25" y="-623" font-family="Helvetica,sans-Serif" font-size="10.00">UObject</text>
<text xml:space="preserve" text-anchor="start" x="69.75" y="-606.25" font-family="Helvetica,sans-Serif" font-size="10.00"> </text>
<text xml:space="preserve" text-anchor="start" x="69.75" y="-589.5" font-family="Helvetica,sans-Serif" font-size="10.00"> </text>
<polygon fill="#666666" stroke="#666666" points="49.25,-618 49.25,-618 96.25,-618 96.25,-618 49.25,-618"/>
<polygon fill="#666666" stroke="#666666" points="49.25,-601.25 49.25,-601.25 96.25,-601.25 96.25,-601.25 49.25,-601.25"/>
<polygon fill="none" stroke="#666666" points="49.25,-582.5 49.25,-636.75 96.25,-636.75 96.25,-582.5 49.25,-582.5"/>
</a>
</g>
</g>
<!-- Node3&#45;&gt;Node2 -->
<g id="edge2_Node000002_Node000003" class="edge">
<title>Node3&#45;&gt;Node2</title>
<g id="a_edge2_Node000002_Node000003"><a xlink:title=" ">
<path fill="none" stroke="#63b8ff" d="M72.75,-571.46C72.75,-563.2 72.75,-554.47 72.75,-546.33"/>
<polygon fill="none" stroke="#63b8ff" points="69.25,-571.22 72.75,-581.22 76.25,-571.22 69.25,-571.22"/>
</a>
</g>
</g>
</g>
</svg>

<g id="navigator" transform="translate(0 0)" fill="#404254">
  <rect fill="#f2f5e9" fill-opacity="0.5" stroke="#606060" stroke-width=".5" x="0" y="0" width="60" height="60"/>
  <use id="zoomplus" xlink:href="#zoomPlus" x="17" y="9" onmousedown="handleZoom(evt,'in')"/>
  <use id="zoomminus" xlink:href="#zoomMin" x="42" y="9" onmousedown="handleZoom(evt,'out')"/>
  <use id="reset" xlink:href="#resetDef" x="30" y="36" onmousedown="handleReset()"/>
   <use id="arrowup" xlink:href="#arrowUp" x="0" y="0" onmousedown="handlePan(0,-1)"/>
  <use id="arrowright" xlink:href="#arrowRight" x="0" y="0" onmousedown="handlePan(1,0)"/>
  <use id="arrowdown" xlink:href="#arrowDown" x="0" y="0" onmousedown="handlePan(0,1)"/>
  <use id="arrowleft" xlink:href="#arrowLeft" x="0" y="0" onmousedown="handlePan(-1,0)"/>
</g>
<svg viewBox="0 0 15 15" width="100%" height="30px" preserveAspectRatio="xMaxYMin meet">
 <g id="arrow_out" transform="scale(0.3 0.3)">
  <a xlink:href="classUVectorFieldStatic__coll__graph_org.svg" target="_base">
   <rect id="button" ry="5" rx="5" y="6" x="6" height="38" width="38"
        fill="#f2f5e9" fill-opacity="0.5" stroke="#606060" stroke-width="1.0"/>
   <path id="arrow"
     d="M 11.500037,31.436501 C 11.940474,20.09759 22.043105,11.32322 32.158766,21.979434 L 37.068811,17.246167 C 37.068811,17.246167 37.088388,32 37.088388,32 L 22.160133,31.978069 C 22.160133,31.978069 26.997745,27.140456 26.997745,27.140456 C 18.528582,18.264221 13.291696,25.230495 11.500037,31.436501 z"
     style="fill:#404040;"/>
  </a>
 </g>
</svg>

<style type='text/css'>
<![CDATA[
[data-mouse-over-selected='false'] { opacity: 0.7; }
[data-mouse-over-selected='true']  { opacity: 1.0; }
]]>
</style>
<script type="application/ecmascript"><![CDATA[
document.addEventListener('DOMContentLoaded', (event) => {
  highlightEdges();
  highlightAdjacentNodes();
});
]]></script>
</svg>
