<?xml version="1.0" encoding="UTF-8" standalone="no"?>
<!DOCTYPE svg PUBLIC "-//W3C//DTD SVG 1.1//EN"
 "http://www.w3.org/Graphics/SVG/1.1/DTD/svg11.dtd">
<!-- Generated by graphviz version 14.1.4 (0)
 -->
<!-- Title: IBreakIterator::SetString Pages: 1 -->
<svg width="265pt" height="68pt"
 viewBox="0.00 0.00 265.00 68.00" xmlns="http://www.w3.org/2000/svg" xmlns:xlink="http://www.w3.org/1999/xlink">
<g id="graph0" class="graph" transform="scale(1 1) rotate(0) translate(4 63.75)">
<title>IBreakIterator::SetString</title>
<!-- Node1 -->
<g id="Node000001" class="node">
<title>Node1</title>
<g id="a_Node000001"><a xlink:title=" ">
<polygon fill="#999999" stroke="#666666" points="133.75,-39.75 0,-39.75 0,-19 133.75,-19 133.75,-39.75"/>
<text xml:space="preserve" text-anchor="middle" x="66.88" y="-26.25" font-family="Helvetica,sans-Serif" font-size="10.00">IBreakIterator::SetString</text>
</a>
</g>
</g>
<!-- Node1&#45;&gt;Node1 -->
<g id="edge2_Node000001_Node000001" class="edge">
<title>Node1&#45;&gt;Node1</title>
<g id="a_edge2_Node000001_Node000001"><a xlink:title=" ">
<path fill="none" stroke="#63b8ff" d="M43.27,-40.15C33.83,-48.81 41.7,-57.75 66.88,-57.75 80.65,-57.75 89.24,-55.08 92.65,-51.24"/>
<polygon fill="#63b8ff" stroke="#63b8ff" points="96.13,-50.77 90.77,-41.63 89.26,-52.12 96.13,-50.77"/>
</a>
</g>
</g>
<!-- Node2 -->
<g id="Node000002" class="node">
<title>Node2</title>
<g id="a_Node000002"><a xlink:href="$UnrealTemplate_8h.html#a6375e5402b43d2537965056e01e4735b" xlink:title=" ">
<polygon fill="white" stroke="#666666" points="246.88,-59.75 179.88,-59.75 179.88,-39 246.88,-39 246.88,-59.75"/>
<text xml:space="preserve" text-anchor="middle" x="213.38" y="-46.25" font-family="Helvetica,sans-Serif" font-size="10.00">CopyTemp</text>
</a>
</g>
</g>
<!-- Node1&#45;&gt;Node2 -->
<g id="edge1_Node000001_Node000002" class="edge">
<title>Node1&#45;&gt;Node2</title>
<g id="a_edge1_Node000001_Node000002"><a xlink:title=" ">
<path fill="none" stroke="#63b8ff" d="M134.2,-38.56C145.76,-40.15 157.51,-41.78 168.27,-43.27"/>
<polygon fill="#63b8ff" stroke="#63b8ff" points="167.63,-46.71 178.01,-44.62 168.59,-39.78 167.63,-46.71"/>
</a>
</g>
</g>
<!-- Node3 -->
<g id="Node000003" class="node">
<title>Node3</title>
<g id="a_Node000003"><a xlink:href="$classFText.html#ac6fccceaae9c6b0f807a4cd02eaccae2" xlink:title=" ">
<polygon fill="white" stroke="#666666" points="257,-20.75 169.75,-20.75 169.75,0 257,0 257,-20.75"/>
<text xml:space="preserve" text-anchor="middle" x="213.38" y="-7.25" font-family="Helvetica,sans-Serif" font-size="10.00">FText::ToString</text>
</a>
</g>
</g>
<!-- Node1&#45;&gt;Node3 -->
<g id="edge3_Node000001_Node000003" class="edge">
<title>Node1&#45;&gt;Node3</title>
<g id="a_edge3_Node000001_Node000003"><a xlink:title=" ">
<path fill="none" stroke="#63b8ff" d="M134.2,-20.65C142.28,-19.59 150.45,-18.52 158.32,-17.48"/>
<polygon fill="#63b8ff" stroke="#63b8ff" points="158.62,-20.97 168.08,-16.2 157.71,-14.03 158.62,-20.97"/>
</a>
</g>
</g>
</g>
</svg>
