<?xml version="1.0" encoding="UTF-8" standalone="no"?>
<!DOCTYPE svg PUBLIC "-//W3C//DTD SVG 1.1//EN"
 "http://www.w3.org/Graphics/SVG/1.1/DTD/svg11.dtd">
<!-- Generated by graphviz version 14.1.4 (0)
 -->
<!-- Title: IBreakIterator::SetStringRef Pages: 1 -->
<svg width="468pt" height="47pt"
 viewBox="0.00 0.00 468.00 47.00" xmlns="http://www.w3.org/2000/svg" xmlns:xlink="http://www.w3.org/1999/xlink">
<g id="graph0" class="graph" transform="scale(1 1) rotate(0) translate(4 42.75)">
<title>IBreakIterator::SetStringRef</title>
<!-- Node1 -->
<g id="Node000001" class="node">
<title>Node1</title>
<g id="a_Node000001"><a xlink:title=" ">
<polygon fill="#999999" stroke="#666666" points="150.25,-20.75 0,-20.75 0,0 150.25,0 150.25,-20.75"/>
<text xml:space="preserve" text-anchor="middle" x="75.12" y="-7.25" font-family="Helvetica,sans-Serif" font-size="10.00">IBreakIterator::SetStringRef</text>
</a>
</g>
</g>
<!-- Node2 -->
<g id="Node000002" class="node">
<title>Node2</title>
<g id="a_Node000002"><a xlink:href="$classIBreakIterator.html#a4d7ad0dc190082aacefbc929d123b7bb" xlink:title=" ">
<polygon fill="white" stroke="#666666" points="336.5,-20.75 186.25,-20.75 186.25,0 336.5,0 336.5,-20.75"/>
<text xml:space="preserve" text-anchor="middle" x="261.38" y="-7.25" font-family="Helvetica,sans-Serif" font-size="10.00">IBreakIterator::SetStringRef</text>
</a>
</g>
</g>
<!-- Node1&#45;&gt;Node2 -->
<g id="edge1_Node000001_Node000002" class="edge">
<title>Node1&#45;&gt;Node2</title>
<g id="a_edge1_Node000001_Node000002"><a xlink:title=" ">
<path fill="none" stroke="#63b8ff" d="M150.54,-10.38C158.48,-10.38 166.6,-10.38 174.66,-10.38"/>
<polygon fill="#63b8ff" stroke="#63b8ff" points="174.47,-13.88 184.47,-10.38 174.47,-6.88 174.47,-13.88"/>
</a>
</g>
</g>
<!-- Node2&#45;&gt;Node2 -->
<g id="edge2_Node000002_Node000002" class="edge">
<title>Node2&#45;&gt;Node2</title>
<g id="a_edge2_Node000002_Node000002"><a xlink:title=" ">
<path fill="none" stroke="#63b8ff" d="M236.44,-21.15C226.47,-29.81 234.78,-38.75 261.38,-38.75 275.92,-38.75 285,-36.08 288.61,-32.24"/>
<polygon fill="#63b8ff" stroke="#63b8ff" points="292.07,-31.71 286.62,-22.63 285.22,-33.13 292.07,-31.71"/>
</a>
</g>
</g>
<!-- Node3 -->
<g id="Node000003" class="node">
<title>Node3</title>
<g id="a_Node000003"><a xlink:href="$classFText.html#ac6fccceaae9c6b0f807a4cd02eaccae2" xlink:title=" ">
<polygon fill="white" stroke="#666666" points="459.75,-20.75 372.5,-20.75 372.5,0 459.75,0 459.75,-20.75"/>
<text xml:space="preserve" text-anchor="middle" x="416.12" y="-7.25" font-family="Helvetica,sans-Serif" font-size="10.00">FText::ToString</text>
</a>
</g>
</g>
<!-- Node2&#45;&gt;Node3 -->
<g id="edge3_Node000002_Node000003" class="edge">
<title>Node2&#45;&gt;Node3</title>
<g id="a_edge3_Node000002_Node000003"><a xlink:title=" ">
<path fill="none" stroke="#63b8ff" d="M336.96,-10.38C345.01,-10.38 353.08,-10.38 360.82,-10.38"/>
<polygon fill="#63b8ff" stroke="#63b8ff" points="360.76,-13.88 370.76,-10.38 360.76,-6.88 360.76,-13.88"/>
</a>
</g>
</g>
</g>
</svg>
