<?xml version="1.0" encoding="UTF-8" standalone="no"?>
<!DOCTYPE svg PUBLIC "-//W3C//DTD SVG 1.1//EN"
 "http://www.w3.org/Graphics/SVG/1.1/DTD/svg11.dtd">
<!-- Generated by graphviz version 14.1.4 (0)
 -->
<!-- Title: UParticleModuleRequired Pages: 1 -->
<!--zoomable 1268 -->

<svg id="main" version="1.1" xmlns="http://www.w3.org/2000/svg" xmlns:xlink="http://www.w3.org/1999/xlink" xml:space="preserve" onload="init(evt)">

<style type="text/css"><![CDATA[
.node, .edge {opacity: 0.7;}
.node.selected, .edge.selected {opacity: 1;}
.edge:hover path { stroke: red; }
.edge:hover polygon { stroke: red; fill: red; }
]]></style>

<defs>
  <circle id="rim" cx="0" cy="0" r="7"/>
  <circle id="rim2" cx="0" cy="0" r="3.5"/>
  <g id="zoomPlus">
    <use xlink:href="#rim" fill="#404040"><set attributeName="fill" to="#808080" begin="zoomplus.mouseover" end="zoomplus.mouseout"/></use>
    <path d="M-4,0h8M0,-4v8" fill="none" stroke="white" stroke-width="1.5" pointer-events="none"/>
  </g>
  <g id="zoomMin">
    <use xlink:href="#rim" fill="#404040"><set attributeName="fill" to="#808080" begin="zoomminus.mouseover" end="zoomminus.mouseout"/></use>
    <path d="M-4,0h8" fill="none" stroke="white" stroke-width="1.5" pointer-events="none"/>
  </g>
  <g id="arrowUp" transform="translate(30 24)">
    <use xlink:href="#rim"/>
    <path pointer-events="none" fill="none" stroke="white" stroke-width="1.5" d="M0,-3.0v7 M-2.5,-0.5L0,-3.0L2.5,-0.5"/>
  </g>
  <g id="arrowRight" transform="rotate(90) translate(36 -43)">
    <use xlink:href="#rim"/>
    <path pointer-events="none" fill="none" stroke="white" stroke-width="1.5" d="M0,-3.0v7 M-2.5,-0.5L0,-3.0L2.5,-0.5"/>
  </g>
  <g id="arrowDown" transform="rotate(180) translate(-30 -48)">
    <use xlink:href="#rim"/>
    <path pointer-events="none" fill="none" stroke="white" stroke-width="1.5" d="M0,-3.0v7 M-2.5,-0.5L0,-3.0L2.5,-0.5"/>
  </g>
  <g id="arrowLeft" transform="rotate(270) translate(-36 17)">
    <use xlink:href="#rim"/>
    <path pointer-events="none" fill="none" stroke="white" stroke-width="1.5" d="M0,-3.0v7 M-2.5,-0.5L0,-3.0L2.5,-0.5"/>
  </g>
  <g id="resetDef">
    <use xlink:href="#rim2" fill="#404040"><set attributeName="fill" to="#808080" begin="reset.mouseover" end="reset.mouseout"/></use>
  </g>
</defs>
<script type="application/ecmascript">
var viewWidth = 681;
var viewHeight = 1268;
var sectionId = 'dynsection-1';
</script>
<script type="application/ecmascript" xlink:href="svg.min.js"/>
<svg id="graph" class="graph">
<g id="viewport">
<title>UParticleModuleRequired</title>
<!-- Node1 -->
<g id="Node000001" class="node">
<title>Node1</title>
<g id="a_Node000001"><a xlink:title=" ">
<polygon fill="#999999" stroke="none" points="442.5,-389.25 265.5,-389.25 265.5,0 442.5,0 442.5,-389.25"/>
<text xml:space="preserve" text-anchor="start" x="292.12" y="-375.5" font-family="Helvetica,sans-Serif" font-size="10.00">UParticleModuleRequired</text>
<text xml:space="preserve" text-anchor="start" x="269.5" y="-358.75" font-family="Helvetica,sans-Serif" font-size="10.00">&#45;</text>
<text xml:space="preserve" text-anchor="start" x="277.25" y="-358.75" font-family="Helvetica,sans-Serif" font-size="10.00">Material</text>
<text xml:space="preserve" text-anchor="start" x="269.5" y="-342" font-family="Helvetica,sans-Serif" font-size="10.00">&#45;</text>
<text xml:space="preserve" text-anchor="start" x="277.25" y="-342" font-family="Helvetica,sans-Serif" font-size="10.00">MinFacingCameraBlendDistance</text>
<text xml:space="preserve" text-anchor="start" x="269.5" y="-325.25" font-family="Helvetica,sans-Serif" font-size="10.00">&#45;</text>
<text xml:space="preserve" text-anchor="start" x="277.25" y="-325.25" font-family="Helvetica,sans-Serif" font-size="10.00">MaxFacingCameraBlendDistance</text>
<text xml:space="preserve" text-anchor="start" x="269.5" y="-308.5" font-family="Helvetica,sans-Serif" font-size="10.00">&#45;</text>
<text xml:space="preserve" text-anchor="start" x="277.25" y="-308.5" font-family="Helvetica,sans-Serif" font-size="10.00">EmitterOrigin</text>
<text xml:space="preserve" text-anchor="start" x="269.5" y="-291.75" font-family="Helvetica,sans-Serif" font-size="10.00">&#45;</text>
<text xml:space="preserve" text-anchor="start" x="277.25" y="-291.75" font-family="Helvetica,sans-Serif" font-size="10.00">EmitterRotation</text>
<text xml:space="preserve" text-anchor="start" x="269.5" y="-275" font-family="Helvetica,sans-Serif" font-size="10.00">&#45;</text>
<text xml:space="preserve" text-anchor="start" x="277.25" y="-275" font-family="Helvetica,sans-Serif" font-size="10.00">ScreenAlignment</text>
<text xml:space="preserve" text-anchor="start" x="269.5" y="-258.25" font-family="Helvetica,sans-Serif" font-size="10.00">&#45;</text>
<text xml:space="preserve" text-anchor="start" x="277.25" y="-258.25" font-family="Helvetica,sans-Serif" font-size="10.00">bUseLocalSpace</text>
<text xml:space="preserve" text-anchor="start" x="269.5" y="-241.5" font-family="Helvetica,sans-Serif" font-size="10.00">&#45;</text>
<text xml:space="preserve" text-anchor="start" x="277.25" y="-241.5" font-family="Helvetica,sans-Serif" font-size="10.00">bKillOnDeactivate</text>
<text xml:space="preserve" text-anchor="start" x="269.5" y="-224.75" font-family="Helvetica,sans-Serif" font-size="10.00">&#45;</text>
<text xml:space="preserve" text-anchor="start" x="277.25" y="-224.75" font-family="Helvetica,sans-Serif" font-size="10.00">bKillOnCompleted</text>
<text xml:space="preserve" text-anchor="start" x="269.5" y="-208" font-family="Helvetica,sans-Serif" font-size="10.00">&#45;</text>
<text xml:space="preserve" text-anchor="start" x="277.25" y="-208" font-family="Helvetica,sans-Serif" font-size="10.00">SortMode</text>
<text xml:space="preserve" text-anchor="start" x="277.25" y="-191.25" font-family="Helvetica,sans-Serif" font-size="10.00">and 38 more...</text>
<text xml:space="preserve" text-anchor="start" x="269.5" y="-174.5" font-family="Helvetica,sans-Serif" font-size="10.00">&#45;</text>
<text xml:space="preserve" text-anchor="start" x="277.25" y="-174.5" font-family="Helvetica,sans-Serif" font-size="10.00">InitializeDefaults()</text>
<text xml:space="preserve" text-anchor="start" x="269.5" y="-157.75" font-family="Helvetica,sans-Serif" font-size="10.00">&#45;</text>
<text xml:space="preserve" text-anchor="start" x="277.25" y="-157.75" font-family="Helvetica,sans-Serif" font-size="10.00">PostLoad()</text>
<text xml:space="preserve" text-anchor="start" x="269.5" y="-141" font-family="Helvetica,sans-Serif" font-size="10.00">&#45;</text>
<text xml:space="preserve" text-anchor="start" x="277.25" y="-141" font-family="Helvetica,sans-Serif" font-size="10.00">PostInitProperties()</text>
<text xml:space="preserve" text-anchor="start" x="269.5" y="-124.25" font-family="Helvetica,sans-Serif" font-size="10.00">&#45;</text>
<text xml:space="preserve" text-anchor="start" x="277.25" y="-124.25" font-family="Helvetica,sans-Serif" font-size="10.00">Serialize()</text>
<text xml:space="preserve" text-anchor="start" x="269.5" y="-107.5" font-family="Helvetica,sans-Serif" font-size="10.00">&#45;</text>
<text xml:space="preserve" text-anchor="start" x="277.25" y="-107.5" font-family="Helvetica,sans-Serif" font-size="10.00">PreEditChange()</text>
<text xml:space="preserve" text-anchor="start" x="269.5" y="-90.75" font-family="Helvetica,sans-Serif" font-size="10.00">&#45;</text>
<text xml:space="preserve" text-anchor="start" x="277.25" y="-90.75" font-family="Helvetica,sans-Serif" font-size="10.00">PostEditChangeProperty()</text>
<text xml:space="preserve" text-anchor="start" x="269.5" y="-74" font-family="Helvetica,sans-Serif" font-size="10.00">&#45;</text>
<text xml:space="preserve" text-anchor="start" x="277.25" y="-74" font-family="Helvetica,sans-Serif" font-size="10.00">IsValidForLODLevel()</text>
<text xml:space="preserve" text-anchor="start" x="269.5" y="-57.25" font-family="Helvetica,sans-Serif" font-size="10.00">&#45;</text>
<text xml:space="preserve" text-anchor="start" x="277.25" y="-57.25" font-family="Helvetica,sans-Serif" font-size="10.00">BeginDestroy()</text>
<text xml:space="preserve" text-anchor="start" x="269.5" y="-40.5" font-family="Helvetica,sans-Serif" font-size="10.00">&#45;</text>
<text xml:space="preserve" text-anchor="start" x="277.25" y="-40.5" font-family="Helvetica,sans-Serif" font-size="10.00">IsReadyForFinishDestroy()</text>
<text xml:space="preserve" text-anchor="start" x="269.5" y="-23.75" font-family="Helvetica,sans-Serif" font-size="10.00">&#45;</text>
<text xml:space="preserve" text-anchor="start" x="277.25" y="-23.75" font-family="Helvetica,sans-Serif" font-size="10.00">FinishDestroy()</text>
<text xml:space="preserve" text-anchor="start" x="277.25" y="-7" font-family="Helvetica,sans-Serif" font-size="10.00">and 15 more...</text>
<polygon fill="#666666" stroke="#666666" points="265.5,-370.5 265.5,-370.5 442.5,-370.5 442.5,-370.5 265.5,-370.5"/>
<polygon fill="#666666" stroke="#666666" points="265.5,-186.25 265.5,-186.25 275.25,-186.25 275.25,-186.25 265.5,-186.25"/>
<polygon fill="#666666" stroke="#666666" points="275.25,-186.25 275.25,-186.25 442.5,-186.25 442.5,-186.25 275.25,-186.25"/>
<polygon fill="none" stroke="#666666" points="265.5,0 265.5,-389.25 442.5,-389.25 442.5,0 265.5,0"/>
</a>
</g>
</g>
<!-- Node2 -->
<g id="Node000002" class="node">
<title>Node2</title>
<g id="a_Node000002"><a xlink:href="classUParticleModule.html" target="_top" xlink:title=" ">
<polygon fill="white" stroke="none" points="162,-942.5 0,-942.5 0,-444 162,-444 162,-942.5"/>
<text xml:space="preserve" text-anchor="start" x="40.88" y="-928.75" font-family="Helvetica,sans-Serif" font-size="10.00">UParticleModule</text>
<text xml:space="preserve" text-anchor="start" x="4" y="-912" font-family="Helvetica,sans-Serif" font-size="10.00">&#45;</text>
<text xml:space="preserve" text-anchor="start" x="11.75" y="-912" font-family="Helvetica,sans-Serif" font-size="10.00">bSpawnModule</text>
<text xml:space="preserve" text-anchor="start" x="4" y="-895.25" font-family="Helvetica,sans-Serif" font-size="10.00">&#45;</text>
<text xml:space="preserve" text-anchor="start" x="11.75" y="-895.25" font-family="Helvetica,sans-Serif" font-size="10.00">bUpdateModule</text>
<text xml:space="preserve" text-anchor="start" x="4" y="-878.5" font-family="Helvetica,sans-Serif" font-size="10.00">&#45;</text>
<text xml:space="preserve" text-anchor="start" x="11.75" y="-878.5" font-family="Helvetica,sans-Serif" font-size="10.00">bFinalUpdateModule</text>
<text xml:space="preserve" text-anchor="start" x="4" y="-861.75" font-family="Helvetica,sans-Serif" font-size="10.00">&#45;</text>
<text xml:space="preserve" text-anchor="start" x="11.75" y="-861.75" font-family="Helvetica,sans-Serif" font-size="10.00">bUpdateForGPUEmitter</text>
<text xml:space="preserve" text-anchor="start" x="4" y="-845" font-family="Helvetica,sans-Serif" font-size="10.00">&#45;</text>
<text xml:space="preserve" text-anchor="start" x="11.75" y="-845" font-family="Helvetica,sans-Serif" font-size="10.00">bCurvesAsColor</text>
<text xml:space="preserve" text-anchor="start" x="4" y="-828.25" font-family="Helvetica,sans-Serif" font-size="10.00">&#45;</text>
<text xml:space="preserve" text-anchor="start" x="11.75" y="-828.25" font-family="Helvetica,sans-Serif" font-size="10.00">b3DDrawMode</text>
<text xml:space="preserve" text-anchor="start" x="4" y="-811.5" font-family="Helvetica,sans-Serif" font-size="10.00">&#45;</text>
<text xml:space="preserve" text-anchor="start" x="11.75" y="-811.5" font-family="Helvetica,sans-Serif" font-size="10.00">bSupported3DDrawMode</text>
<text xml:space="preserve" text-anchor="start" x="4" y="-794.75" font-family="Helvetica,sans-Serif" font-size="10.00">&#45;</text>
<text xml:space="preserve" text-anchor="start" x="11.75" y="-794.75" font-family="Helvetica,sans-Serif" font-size="10.00">bEnabled</text>
<text xml:space="preserve" text-anchor="start" x="4" y="-778" font-family="Helvetica,sans-Serif" font-size="10.00">&#45;</text>
<text xml:space="preserve" text-anchor="start" x="11.75" y="-778" font-family="Helvetica,sans-Serif" font-size="10.00">bEditable</text>
<text xml:space="preserve" text-anchor="start" x="4" y="-761.25" font-family="Helvetica,sans-Serif" font-size="10.00">&#45;</text>
<text xml:space="preserve" text-anchor="start" x="11.75" y="-761.25" font-family="Helvetica,sans-Serif" font-size="10.00">LODDuplicate</text>
<text xml:space="preserve" text-anchor="start" x="4" y="-744.5" font-family="Helvetica,sans-Serif" font-size="10.00">&#45;</text>
<text xml:space="preserve" text-anchor="start" x="11.75" y="-744.5" font-family="Helvetica,sans-Serif" font-size="10.00">bSupportsRandomSeed</text>
<text xml:space="preserve" text-anchor="start" x="4" y="-727.75" font-family="Helvetica,sans-Serif" font-size="10.00">&#45;</text>
<text xml:space="preserve" text-anchor="start" x="11.75" y="-727.75" font-family="Helvetica,sans-Serif" font-size="10.00">bRequiresLoopingNotification</text>
<text xml:space="preserve" text-anchor="start" x="4" y="-711" font-family="Helvetica,sans-Serif" font-size="10.00">&#45;</text>
<text xml:space="preserve" text-anchor="start" x="11.75" y="-711" font-family="Helvetica,sans-Serif" font-size="10.00">LODValidity</text>
<text xml:space="preserve" text-anchor="start" x="4" y="-694.25" font-family="Helvetica,sans-Serif" font-size="10.00">&#45;</text>
<text xml:space="preserve" text-anchor="start" x="11.75" y="-694.25" font-family="Helvetica,sans-Serif" font-size="10.00">IsPostLoadThreadSafe()</text>
<text xml:space="preserve" text-anchor="start" x="4" y="-677.5" font-family="Helvetica,sans-Serif" font-size="10.00">&#45;</text>
<text xml:space="preserve" text-anchor="start" x="11.75" y="-677.5" font-family="Helvetica,sans-Serif" font-size="10.00">PostEditChangeProperty()</text>
<text xml:space="preserve" text-anchor="start" x="4" y="-660.75" font-family="Helvetica,sans-Serif" font-size="10.00">&#45;</text>
<text xml:space="preserve" text-anchor="start" x="11.75" y="-660.75" font-family="Helvetica,sans-Serif" font-size="10.00">CompileModule()</text>
<text xml:space="preserve" text-anchor="start" x="4" y="-644" font-family="Helvetica,sans-Serif" font-size="10.00">&#45;</text>
<text xml:space="preserve" text-anchor="start" x="11.75" y="-644" font-family="Helvetica,sans-Serif" font-size="10.00">Spawn()</text>
<text xml:space="preserve" text-anchor="start" x="4" y="-627.25" font-family="Helvetica,sans-Serif" font-size="10.00">&#45;</text>
<text xml:space="preserve" text-anchor="start" x="11.75" y="-627.25" font-family="Helvetica,sans-Serif" font-size="10.00">Update()</text>
<text xml:space="preserve" text-anchor="start" x="4" y="-610.5" font-family="Helvetica,sans-Serif" font-size="10.00">&#45;</text>
<text xml:space="preserve" text-anchor="start" x="11.75" y="-610.5" font-family="Helvetica,sans-Serif" font-size="10.00">FinalUpdate()</text>
<text xml:space="preserve" text-anchor="start" x="4" y="-593.75" font-family="Helvetica,sans-Serif" font-size="10.00">&#45;</text>
<text xml:space="preserve" text-anchor="start" x="11.75" y="-593.75" font-family="Helvetica,sans-Serif" font-size="10.00">RequiredBytes()</text>
<text xml:space="preserve" text-anchor="start" x="4" y="-577" font-family="Helvetica,sans-Serif" font-size="10.00">&#45;</text>
<text xml:space="preserve" text-anchor="start" x="11.75" y="-577" font-family="Helvetica,sans-Serif" font-size="10.00">RequiredBytesPerInstance()</text>
<text xml:space="preserve" text-anchor="start" x="4" y="-560.25" font-family="Helvetica,sans-Serif" font-size="10.00">&#45;</text>
<text xml:space="preserve" text-anchor="start" x="11.75" y="-560.25" font-family="Helvetica,sans-Serif" font-size="10.00">PrepPerInstanceBlock()</text>
<text xml:space="preserve" text-anchor="start" x="4" y="-543.5" font-family="Helvetica,sans-Serif" font-size="10.00">&#45;</text>
<text xml:space="preserve" text-anchor="start" x="11.75" y="-543.5" font-family="Helvetica,sans-Serif" font-size="10.00">SetToSensibleDefaults()</text>
<text xml:space="preserve" text-anchor="start" x="11.75" y="-526.75" font-family="Helvetica,sans-Serif" font-size="10.00">and 35 more...</text>
<text xml:space="preserve" text-anchor="start" x="4" y="-510" font-family="Helvetica,sans-Serif" font-size="10.00">&#45;</text>
<text xml:space="preserve" text-anchor="start" x="11.75" y="-510" font-family="Helvetica,sans-Serif" font-size="10.00">GetDistributionsRestricted</text>
<text xml:space="preserve" text-anchor="start" x="11.75" y="-497.25" font-family="Helvetica,sans-Serif" font-size="10.00">OnGPU()</text>
<text xml:space="preserve" text-anchor="start" x="4" y="-480.5" font-family="Helvetica,sans-Serif" font-size="10.00">&#45;</text>
<text xml:space="preserve" text-anchor="start" x="11.75" y="-480.5" font-family="Helvetica,sans-Serif" font-size="10.00">IsDistributionAllowedOnGPU()</text>
<text xml:space="preserve" text-anchor="start" x="4" y="-463.75" font-family="Helvetica,sans-Serif" font-size="10.00">&#45;</text>
<text xml:space="preserve" text-anchor="start" x="11.75" y="-463.75" font-family="Helvetica,sans-Serif" font-size="10.00">GetDistributionNotAllowed</text>
<text xml:space="preserve" text-anchor="start" x="11.75" y="-451" font-family="Helvetica,sans-Serif" font-size="10.00">OnGPUText()</text>
<polygon fill="#666666" stroke="#666666" points="0,-923.75 0,-923.75 162,-923.75 162,-923.75 0,-923.75"/>
<polygon fill="#666666" stroke="#666666" points="0,-706 0,-706 9.75,-706 9.75,-706 0,-706"/>
<polygon fill="#666666" stroke="#666666" points="9.75,-706 9.75,-706 162,-706 162,-706 9.75,-706"/>
<polygon fill="none" stroke="#666666" points="0,-444 0,-942.5 162,-942.5 162,-444 0,-444"/>
</a>
</g>
</g>
<!-- Node2&#45;&gt;Node1 -->
<g id="edge1_Node000001_Node000002" class="edge">
<title>Node2&#45;&gt;Node1</title>
<g id="a_edge1_Node000001_Node000002"><a xlink:title=" ">
<path fill="none" stroke="#63b8ff" d="M167.13,-451.36C168.41,-448.88 169.7,-446.43 171,-444 197.47,-394.53 232.92,-343.96 265.57,-301.48"/>
<polygon fill="none" stroke="#63b8ff" points="164.01,-449.78 162.63,-460.28 170.26,-452.93 164.01,-449.78"/>
</a>
</g>
</g>
<!-- Node3 -->
<g id="Node000003" class="node">
<title>Node3</title>
<g id="a_Node000003"><a xlink:title=" ">
<polygon fill="white" stroke="none" points="104.5,-1033.75 57.5,-1033.75 57.5,-979.5 104.5,-979.5 104.5,-1033.75"/>
<text xml:space="preserve" text-anchor="start" x="61.5" y="-1020" font-family="Helvetica,sans-Serif" font-size="10.00">UObject</text>
<text xml:space="preserve" text-anchor="start" x="78" y="-1003.25" font-family="Helvetica,sans-Serif" font-size="10.00"> </text>
<text xml:space="preserve" text-anchor="start" x="78" y="-986.5" font-family="Helvetica,sans-Serif" font-size="10.00"> </text>
<polygon fill="#666666" stroke="#666666" points="57.5,-1015 57.5,-1015 104.5,-1015 104.5,-1015 57.5,-1015"/>
<polygon fill="#666666" stroke="#666666" points="57.5,-998.25 57.5,-998.25 104.5,-998.25 104.5,-998.25 57.5,-998.25"/>
<polygon fill="none" stroke="#666666" points="57.5,-979.5 57.5,-1033.75 104.5,-1033.75 104.5,-979.5 57.5,-979.5"/>
</a>
</g>
</g>
<!-- Node3&#45;&gt;Node2 -->
<g id="edge2_Node000002_Node000003" class="edge">
<title>Node3&#45;&gt;Node2</title>
<g id="a_edge2_Node000002_Node000003"><a xlink:title=" ">
<path fill="none" stroke="#63b8ff" d="M81,-968.2C81,-960.41 81,-951.66 81,-942.19"/>
<polygon fill="none" stroke="#63b8ff" points="77.5,-968.1 81,-978.1 84.5,-968.1 77.5,-968.1"/>
</a>
</g>
</g>
<!-- Node4 -->
<g id="Node000004" class="node">
<title>Node4</title>
<g id="a_Node000004"><a xlink:href="structFRawDistributionFloat.html" target="_top" xlink:title=" ">
<polygon fill="white" stroke="none" points="323.62,-804.12 180.38,-804.12 180.38,-582.38 323.62,-582.38 323.62,-804.12"/>
<text xml:space="preserve" text-anchor="start" x="197.62" y="-790.38" font-family="Helvetica,sans-Serif" font-size="10.00">FRawDistributionFloat</text>
<text xml:space="preserve" text-anchor="start" x="184.38" y="-773.62" font-family="Helvetica,sans-Serif" font-size="10.00">+</text>
<text xml:space="preserve" text-anchor="start" x="196.62" y="-773.62" font-family="Helvetica,sans-Serif" font-size="10.00">Distribution</text>
<text xml:space="preserve" text-anchor="start" x="186.62" y="-756.88" font-family="Helvetica,sans-Serif" font-size="10.00">&#45;</text>
<text xml:space="preserve" text-anchor="start" x="196.62" y="-756.88" font-family="Helvetica,sans-Serif" font-size="10.00">MinValue</text>
<text xml:space="preserve" text-anchor="start" x="186.62" y="-740.12" font-family="Helvetica,sans-Serif" font-size="10.00">&#45;</text>
<text xml:space="preserve" text-anchor="start" x="196.62" y="-740.12" font-family="Helvetica,sans-Serif" font-size="10.00">MaxValue</text>
<text xml:space="preserve" text-anchor="start" x="184.38" y="-723.38" font-family="Helvetica,sans-Serif" font-size="10.00">+</text>
<text xml:space="preserve" text-anchor="start" x="196.62" y="-723.38" font-family="Helvetica,sans-Serif" font-size="10.00">FRawDistributionFloat()</text>
<text xml:space="preserve" text-anchor="start" x="184.38" y="-706.62" font-family="Helvetica,sans-Serif" font-size="10.00">+</text>
<text xml:space="preserve" text-anchor="start" x="196.62" y="-706.62" font-family="Helvetica,sans-Serif" font-size="10.00">IsCreated()</text>
<text xml:space="preserve" text-anchor="start" x="184.38" y="-689.88" font-family="Helvetica,sans-Serif" font-size="10.00">+</text>
<text xml:space="preserve" text-anchor="start" x="196.62" y="-689.88" font-family="Helvetica,sans-Serif" font-size="10.00">GetFastRawDistribution()</text>
<text xml:space="preserve" text-anchor="start" x="184.38" y="-673.12" font-family="Helvetica,sans-Serif" font-size="10.00">+</text>
<text xml:space="preserve" text-anchor="start" x="196.62" y="-673.12" font-family="Helvetica,sans-Serif" font-size="10.00">GetValue()</text>
<text xml:space="preserve" text-anchor="start" x="184.38" y="-656.38" font-family="Helvetica,sans-Serif" font-size="10.00">+</text>
<text xml:space="preserve" text-anchor="start" x="196.62" y="-656.38" font-family="Helvetica,sans-Serif" font-size="10.00">GetOutRange()</text>
<text xml:space="preserve" text-anchor="start" x="184.38" y="-639.62" font-family="Helvetica,sans-Serif" font-size="10.00">+</text>
<text xml:space="preserve" text-anchor="start" x="196.62" y="-639.62" font-family="Helvetica,sans-Serif" font-size="10.00">IsUniform()</text>
<text xml:space="preserve" text-anchor="start" x="184.38" y="-622.88" font-family="Helvetica,sans-Serif" font-size="10.00">+</text>
<text xml:space="preserve" text-anchor="start" x="196.62" y="-622.88" font-family="Helvetica,sans-Serif" font-size="10.00">InitLookupTable()</text>
<text xml:space="preserve" text-anchor="start" x="184.38" y="-606.12" font-family="Helvetica,sans-Serif" font-size="10.00">+</text>
<text xml:space="preserve" text-anchor="start" x="196.62" y="-606.12" font-family="Helvetica,sans-Serif" font-size="10.00">HasLookupTable()</text>
<text xml:space="preserve" text-anchor="start" x="184.38" y="-589.38" font-family="Helvetica,sans-Serif" font-size="10.00">+</text>
<text xml:space="preserve" text-anchor="start" x="196.62" y="-589.38" font-family="Helvetica,sans-Serif" font-size="10.00">OkForParallel()</text>
<polygon fill="#666666" stroke="#666666" points="180.38,-785.38 180.38,-785.38 323.62,-785.38 323.62,-785.38 180.38,-785.38"/>
<polygon fill="#666666" stroke="#666666" points="180.38,-735.12 180.38,-735.12 194.62,-735.12 194.62,-735.12 180.38,-735.12"/>
<polygon fill="#666666" stroke="#666666" points="194.62,-735.12 194.62,-735.12 323.62,-735.12 323.62,-735.12 194.62,-735.12"/>
<polygon fill="none" stroke="#666666" points="180.38,-582.38 180.38,-804.12 323.62,-804.12 323.62,-582.38 180.38,-582.38"/>
</a>
</g>
</g>
<!-- Node4&#45;&gt;Node1 -->
<g id="edge3_Node000001_Node000004" class="edge">
<title>Node4&#45;&gt;Node1</title>
<g id="a_edge3_Node000001_Node000004"><a xlink:title=" ">
<path fill="none" stroke="#63b8ff" d="M271.56,-582.43C281.28,-529.4 293.49,-464.91 305.5,-407.25 305.89,-405.38 306.28,-403.49 306.68,-401.6"/>
<polygon fill="none" stroke="#63b8ff" points="306.67,-401.64 304,-394.94 309.16,-389.9 311.83,-396.6 306.67,-401.64"/>
</a>
</g>
<text xml:space="preserve" text-anchor="start" x="308.5" y="-413.25" font-family="Helvetica,sans-Serif" font-size="10.00" fill="grey">&#45;SpawnRate</text>
</g>
<!-- Node5 -->
<g id="Node000005" class="node">
<title>Node5</title>
<g id="a_Node000005"><a xlink:href="structFRawDistribution.html" target="_top" xlink:title=" ">
<polygon fill="white" stroke="none" points="298,-1033.75 206,-1033.75 206,-979.5 298,-979.5 298,-1033.75"/>
<text xml:space="preserve" text-anchor="start" x="210" y="-1020" font-family="Helvetica,sans-Serif" font-size="10.00">FRawDistribution</text>
<text xml:space="preserve" text-anchor="start" x="249" y="-1003.25" font-family="Helvetica,sans-Serif" font-size="10.00"> </text>
<text xml:space="preserve" text-anchor="start" x="249" y="-986.5" font-family="Helvetica,sans-Serif" font-size="10.00"> </text>
<polygon fill="#666666" stroke="#666666" points="206,-1015 206,-1015 298,-1015 298,-1015 206,-1015"/>
<polygon fill="#666666" stroke="#666666" points="206,-998.25 206,-998.25 298,-998.25 298,-998.25 206,-998.25"/>
<polygon fill="none" stroke="#666666" points="206,-979.5 206,-1033.75 298,-1033.75 298,-979.5 206,-979.5"/>
</a>
</g>
</g>
<!-- Node5&#45;&gt;Node4 -->
<g id="edge4_Node000004_Node000005" class="edge">
<title>Node5&#45;&gt;Node4</title>
<g id="a_edge4_Node000004_Node000005"><a xlink:title=" ">
<path fill="none" stroke="#63b8ff" d="M252,-968.16C252,-927.63 252,-861.13 252,-803.81"/>
<polygon fill="none" stroke="#63b8ff" points="248.5,-968.1 252,-978.1 255.5,-968.1 248.5,-968.1"/>
</a>
</g>
</g>
<!-- Node6 -->
<g id="Node000006" class="node">
<title>Node6</title>
<g id="a_Node000006"><a xlink:href="structFDistributionLookupTable.html" target="_top" xlink:title=" ">
<polygon fill="white" stroke="none" points="317.88,-1260 186.12,-1260 186.12,-1088.5 317.88,-1088.5 317.88,-1260"/>
<text xml:space="preserve" text-anchor="start" x="190.12" y="-1246.25" font-family="Helvetica,sans-Serif" font-size="10.00">FDistributionLookupTable</text>
<text xml:space="preserve" text-anchor="start" x="200" y="-1229.5" font-family="Helvetica,sans-Serif" font-size="10.00">+</text>
<text xml:space="preserve" text-anchor="start" x="222.12" y="-1229.5" font-family="Helvetica,sans-Serif" font-size="10.00">TimeScale</text>
<text xml:space="preserve" text-anchor="start" x="200" y="-1212.75" font-family="Helvetica,sans-Serif" font-size="10.00">+</text>
<text xml:space="preserve" text-anchor="start" x="222.12" y="-1212.75" font-family="Helvetica,sans-Serif" font-size="10.00">TimeBias</text>
<text xml:space="preserve" text-anchor="start" x="200" y="-1196" font-family="Helvetica,sans-Serif" font-size="10.00">+</text>
<text xml:space="preserve" text-anchor="start" x="222.12" y="-1196" font-family="Helvetica,sans-Serif" font-size="10.00">Values</text>
<text xml:space="preserve" text-anchor="start" x="200" y="-1179.25" font-family="Helvetica,sans-Serif" font-size="10.00">+</text>
<text xml:space="preserve" text-anchor="start" x="222.12" y="-1179.25" font-family="Helvetica,sans-Serif" font-size="10.00">Op</text>
<text xml:space="preserve" text-anchor="start" x="200" y="-1162.5" font-family="Helvetica,sans-Serif" font-size="10.00">+</text>
<text xml:space="preserve" text-anchor="start" x="222.12" y="-1162.5" font-family="Helvetica,sans-Serif" font-size="10.00">EntryCount</text>
<text xml:space="preserve" text-anchor="start" x="200" y="-1145.75" font-family="Helvetica,sans-Serif" font-size="10.00">+</text>
<text xml:space="preserve" text-anchor="start" x="222.12" y="-1145.75" font-family="Helvetica,sans-Serif" font-size="10.00">EntryStride</text>
<text xml:space="preserve" text-anchor="start" x="200" y="-1129" font-family="Helvetica,sans-Serif" font-size="10.00">+</text>
<text xml:space="preserve" text-anchor="start" x="222.12" y="-1129" font-family="Helvetica,sans-Serif" font-size="10.00">SubEntryStride</text>
<text xml:space="preserve" text-anchor="start" x="200" y="-1112.25" font-family="Helvetica,sans-Serif" font-size="10.00">+</text>
<text xml:space="preserve" text-anchor="start" x="222.12" y="-1112.25" font-family="Helvetica,sans-Serif" font-size="10.00">LockFlag</text>
<text xml:space="preserve" text-anchor="start" x="249" y="-1095.5" font-family="Helvetica,sans-Serif" font-size="10.00"> </text>
<polygon fill="#666666" stroke="#666666" points="186.12,-1241.25 186.12,-1241.25 317.88,-1241.25 317.88,-1241.25 186.12,-1241.25"/>
<polygon fill="#666666" stroke="#666666" points="186.12,-1107.25 186.12,-1107.25 220.12,-1107.25 220.12,-1107.25 186.12,-1107.25"/>
<polygon fill="#666666" stroke="#666666" points="220.12,-1107.25 220.12,-1107.25 317.88,-1107.25 317.88,-1107.25 220.12,-1107.25"/>
<polygon fill="none" stroke="#666666" points="186.12,-1088.5 186.12,-1260 317.88,-1260 317.88,-1088.5 186.12,-1088.5"/>
</a>
</g>
</g>
<!-- Node6&#45;&gt;Node5 -->
<g id="edge5_Node000005_Node000006" class="edge">
<title>Node6&#45;&gt;Node5</title>
<g id="a_edge5_Node000005_Node000006"><a xlink:title=" ">
<path fill="none" stroke="#63b8ff" d="M252,-1088.98C252,-1074.19 252,-1059.47 252,-1046.69"/>
<polygon fill="none" stroke="#63b8ff" points="252,-1046.58 248,-1040.58 252,-1034.58 256,-1040.58 252,-1046.58"/>
</a>
</g>
<text xml:space="preserve" text-anchor="start" x="255" y="-1057.75" font-family="Helvetica,sans-Serif" font-size="10.00" fill="grey">+Table</text>
</g>
<!-- Node7 -->
<g id="Node000007" class="node">
<title>Node7</title>
<g id="a_Node000007"><a xlink:href="classFSubUVDerivedData.html" target="_top" xlink:title=" ">
<polygon fill="white" stroke="none" points="456.38,-745.5 341.62,-745.5 341.62,-641 456.38,-641 456.38,-745.5"/>
<text xml:space="preserve" text-anchor="start" x="349.12" y="-731.75" font-family="Helvetica,sans-Serif" font-size="10.00">FSubUVDerivedData</text>
<text xml:space="preserve" text-anchor="start" x="345.62" y="-715" font-family="Helvetica,sans-Serif" font-size="10.00">+</text>
<text xml:space="preserve" text-anchor="start" x="357.88" y="-715" font-family="Helvetica,sans-Serif" font-size="10.00">BoundingGeometry</text>
<text xml:space="preserve" text-anchor="start" x="345.62" y="-698.25" font-family="Helvetica,sans-Serif" font-size="10.00">+</text>
<text xml:space="preserve" text-anchor="start" x="357.88" y="-698.25" font-family="Helvetica,sans-Serif" font-size="10.00">Serialize()</text>
<text xml:space="preserve" text-anchor="start" x="345.62" y="-681.5" font-family="Helvetica,sans-Serif" font-size="10.00">+</text>
<text xml:space="preserve" text-anchor="start" x="357.88" y="-681.5" font-family="Helvetica,sans-Serif" font-size="10.00">Build()</text>
<text xml:space="preserve" text-anchor="start" x="345.62" y="-664.75" font-family="Helvetica,sans-Serif" font-size="10.00">+</text>
<text xml:space="preserve" text-anchor="start" x="357.88" y="-664.75" font-family="Helvetica,sans-Serif" font-size="10.00">GetDDCKeyString()</text>
<text xml:space="preserve" text-anchor="start" x="345.62" y="-648" font-family="Helvetica,sans-Serif" font-size="10.00">+</text>
<text xml:space="preserve" text-anchor="start" x="357.88" y="-648" font-family="Helvetica,sans-Serif" font-size="10.00">GetFeedback()</text>
<polygon fill="#666666" stroke="#666666" points="341.62,-726.75 341.62,-726.75 456.38,-726.75 456.38,-726.75 341.62,-726.75"/>
<polygon fill="#666666" stroke="#666666" points="341.62,-710 341.62,-710 355.88,-710 355.88,-710 341.62,-710"/>
<polygon fill="#666666" stroke="#666666" points="355.88,-710 355.88,-710 456.38,-710 456.38,-710 355.88,-710"/>
<polygon fill="none" stroke="#666666" points="341.62,-641 341.62,-745.5 456.38,-745.5 456.38,-641 341.62,-641"/>
</a>
</g>
</g>
<!-- Node7&#45;&gt;Node1 -->
<g id="edge6_Node000001_Node000007" class="edge">
<title>Node7&#45;&gt;Node1</title>
<g id="a_edge6_Node000001_Node000007"><a xlink:title=" ">
<path fill="none" stroke="#63b8ff" d="M394.4,-641.44C389.27,-584.89 380.66,-489.88 372.71,-402.06"/>
<polygon fill="none" stroke="#63b8ff" points="372.7,-402.02 368.18,-396.4 371.62,-390.06 376.14,-395.68 372.7,-402.02"/>
</a>
</g>
<text xml:space="preserve" text-anchor="start" x="376.81" y="-413.25" font-family="Helvetica,sans-Serif" font-size="10.00" fill="grey">&#45;DerivedData</text>
</g>
<!-- Node8 -->
<g id="Node000008" class="node">
<title>Node8</title>
<g id="a_Node000008"><a xlink:href="classFSubUVBoundingGeometryBuffer.html" target="_top" xlink:title=" ">
<polygon fill="white" stroke="none" points="673.38,-762.25 474.62,-762.25 474.62,-624.25 673.38,-624.25 673.38,-762.25"/>
<text xml:space="preserve" text-anchor="start" x="492.62" y="-748.5" font-family="Helvetica,sans-Serif" font-size="10.00">FSubUVBoundingGeometryBuffer</text>
<text xml:space="preserve" text-anchor="start" x="478.62" y="-731.75" font-family="Helvetica,sans-Serif" font-size="10.00">+</text>
<text xml:space="preserve" text-anchor="start" x="490.88" y="-731.75" font-family="Helvetica,sans-Serif" font-size="10.00">Vertices</text>
<text xml:space="preserve" text-anchor="start" x="478.62" y="-715" font-family="Helvetica,sans-Serif" font-size="10.00">+</text>
<text xml:space="preserve" text-anchor="start" x="490.88" y="-715" font-family="Helvetica,sans-Serif" font-size="10.00">ShaderResourceView</text>
<text xml:space="preserve" text-anchor="start" x="478.62" y="-698.25" font-family="Helvetica,sans-Serif" font-size="10.00">+</text>
<text xml:space="preserve" text-anchor="start" x="490.88" y="-698.25" font-family="Helvetica,sans-Serif" font-size="10.00">FSubUVBoundingGeometryBuffer()</text>
<text xml:space="preserve" text-anchor="start" x="478.62" y="-681.5" font-family="Helvetica,sans-Serif" font-size="10.00">+</text>
<text xml:space="preserve" text-anchor="start" x="490.88" y="-681.5" font-family="Helvetica,sans-Serif" font-size="10.00">FSubUVBoundingGeometryBuffer()</text>
<text xml:space="preserve" text-anchor="start" x="478.62" y="-664.75" font-family="Helvetica,sans-Serif" font-size="10.00">+</text>
<text xml:space="preserve" text-anchor="start" x="490.88" y="-664.75" font-family="Helvetica,sans-Serif" font-size="10.00">~FSubUVBoundingGeometryBuffer()</text>
<text xml:space="preserve" text-anchor="start" x="478.62" y="-648" font-family="Helvetica,sans-Serif" font-size="10.00">+</text>
<text xml:space="preserve" text-anchor="start" x="490.88" y="-648" font-family="Helvetica,sans-Serif" font-size="10.00">InitRHI()</text>
<text xml:space="preserve" text-anchor="start" x="478.62" y="-631.25" font-family="Helvetica,sans-Serif" font-size="10.00">+</text>
<text xml:space="preserve" text-anchor="start" x="490.88" y="-631.25" font-family="Helvetica,sans-Serif" font-size="10.00">ReleaseRHI()</text>
<polygon fill="#666666" stroke="#666666" points="474.62,-743.5 474.62,-743.5 673.38,-743.5 673.38,-743.5 474.62,-743.5"/>
<polygon fill="#666666" stroke="#666666" points="474.62,-710 474.62,-710 488.88,-710 488.88,-710 474.62,-710"/>
<polygon fill="#666666" stroke="#666666" points="488.88,-710 488.88,-710 673.38,-710 673.38,-710 488.88,-710"/>
<polygon fill="none" stroke="#666666" points="474.62,-624.25 474.62,-762.25 673.38,-762.25 673.38,-624.25 474.62,-624.25"/>
</a>
</g>
</g>
<!-- Node8&#45;&gt;Node1 -->
<g id="edge7_Node000001_Node000008" class="edge">
<title>Node8&#45;&gt;Node1</title>
<g id="a_edge7_Node000001_Node000008"><a xlink:title=" ">
<path fill="none" stroke="#63b8ff" d="M544.49,-624.52C519.26,-566.73 481.93,-481.45 449,-407.25 448.05,-405.1 447.09,-402.94 446.12,-400.77"/>
<polygon fill="none" stroke="#63b8ff" points="446.16,-400.85 440.07,-396.99 441.28,-389.88 447.38,-393.74 446.16,-400.85"/>
</a>
</g>
<text xml:space="preserve" text-anchor="start" x="458.79" y="-413.25" font-family="Helvetica,sans-Serif" font-size="10.00" fill="grey">&#45;BoundingGeometryBuffer</text>
</g>
<!-- Node9 -->
<g id="Node000009" class="node">
<title>Node9</title>
<g id="a_Node000009"><a xlink:title=" ">
<polygon fill="white" stroke="none" points="612.12,-1033.75 535.88,-1033.75 535.88,-979.5 612.12,-979.5 612.12,-1033.75"/>
<text xml:space="preserve" text-anchor="start" x="539.88" y="-1020" font-family="Helvetica,sans-Serif" font-size="10.00">FVertexBuffer</text>
<text xml:space="preserve" text-anchor="start" x="571" y="-1003.25" font-family="Helvetica,sans-Serif" font-size="10.00"> </text>
<text xml:space="preserve" text-anchor="start" x="571" y="-986.5" font-family="Helvetica,sans-Serif" font-size="10.00"> </text>
<polygon fill="#666666" stroke="#666666" points="535.88,-1015 535.88,-1015 612.12,-1015 612.12,-1015 535.88,-1015"/>
<polygon fill="#666666" stroke="#666666" points="535.88,-998.25 535.88,-998.25 612.12,-998.25 612.12,-998.25 535.88,-998.25"/>
<polygon fill="none" stroke="#666666" points="535.88,-979.5 535.88,-1033.75 612.12,-1033.75 612.12,-979.5 535.88,-979.5"/>
</a>
</g>
</g>
<!-- Node9&#45;&gt;Node8 -->
<g id="edge8_Node000008_Node000009" class="edge">
<title>Node9&#45;&gt;Node8</title>
<g id="a_edge8_Node000008_Node000009"><a xlink:title=" ">
<path fill="none" stroke="#63b8ff" d="M574,-968.19C574,-917.24 574,-825.18 574,-761.95"/>
<polygon fill="none" stroke="#63b8ff" points="570.5,-968.1 574,-978.1 577.5,-968.1 570.5,-968.1"/>
</a>
</g>
</g>
</g>
</svg>

<g id="navigator" transform="translate(0 0)" fill="#404254">
  <rect fill="#f2f5e9" fill-opacity="0.5" stroke="#606060" stroke-width=".5" x="0" y="0" width="60" height="60"/>
  <use id="zoomplus" xlink:href="#zoomPlus" x="17" y="9" onmousedown="handleZoom(evt,'in')"/>
  <use id="zoomminus" xlink:href="#zoomMin" x="42" y="9" onmousedown="handleZoom(evt,'out')"/>
  <use id="reset" xlink:href="#resetDef" x="30" y="36" onmousedown="handleReset()"/>
   <use id="arrowup" xlink:href="#arrowUp" x="0" y="0" onmousedown="handlePan(0,-1)"/>
  <use id="arrowright" xlink:href="#arrowRight" x="0" y="0" onmousedown="handlePan(1,0)"/>
  <use id="arrowdown" xlink:href="#arrowDown" x="0" y="0" onmousedown="handlePan(0,1)"/>
  <use id="arrowleft" xlink:href="#arrowLeft" x="0" y="0" onmousedown="handlePan(-1,0)"/>
</g>
<svg viewBox="0 0 15 15" width="100%" height="30px" preserveAspectRatio="xMaxYMin meet">
 <g id="arrow_out" transform="scale(0.3 0.3)">
  <a xlink:href="classUParticleModuleRequired__coll__graph_org.svg" target="_base">
   <rect id="button" ry="5" rx="5" y="6" x="6" height="38" width="38"
        fill="#f2f5e9" fill-opacity="0.5" stroke="#606060" stroke-width="1.0"/>
   <path id="arrow"
     d="M 11.500037,31.436501 C 11.940474,20.09759 22.043105,11.32322 32.158766,21.979434 L 37.068811,17.246167 C 37.068811,17.246167 37.088388,32 37.088388,32 L 22.160133,31.978069 C 22.160133,31.978069 26.997745,27.140456 26.997745,27.140456 C 18.528582,18.264221 13.291696,25.230495 11.500037,31.436501 z"
     style="fill:#404040;"/>
  </a>
 </g>
</svg>

<style type='text/css'>
<![CDATA[
[data-mouse-over-selected='false'] { opacity: 0.7; }
[data-mouse-over-selected='true']  { opacity: 1.0; }
]]>
</style>
<script type="application/ecmascript"><![CDATA[
document.addEventListener('DOMContentLoaded', (event) => {
  highlightEdges();
  highlightAdjacentNodes();
});
]]></script>
</svg>
