<?xml version="1.0" encoding="UTF-8" standalone="no"?>
<!DOCTYPE svg PUBLIC "-//W3C//DTD SVG 1.1//EN"
 "http://www.w3.org/Graphics/SVG/1.1/DTD/svg11.dtd">
<!-- Generated by graphviz version 14.1.4 (0)
 -->
<!-- Title: FAutomationSpecBase::RunTest Pages: 1 -->
<svg width="1258pt" height="506pt"
 viewBox="0.00 0.00 1258.00 506.00" xmlns="http://www.w3.org/2000/svg" xmlns:xlink="http://www.w3.org/1999/xlink">
<g id="graph0" class="graph" transform="scale(1 1) rotate(0) translate(4 501.5)">
<title>FAutomationSpecBase::RunTest</title>
<!-- Node1 -->
<g id="Node000001" class="node">
<title>Node1</title>
<g id="a_Node000001"><a xlink:title=" ">
<polygon fill="#999999" stroke="#666666" points="125.5,-175.5 0,-175.5 0,-142 125.5,-142 125.5,-175.5"/>
<text xml:space="preserve" text-anchor="start" x="8" y="-162" font-family="Helvetica,sans-Serif" font-size="10.00">FAutomationSpecBase</text>
<text xml:space="preserve" text-anchor="middle" x="62.75" y="-149.25" font-family="Helvetica,sans-Serif" font-size="10.00">::RunTest</text>
</a>
</g>
</g>
<!-- Node2 -->
<g id="Node000002" class="node">
<title>Node2</title>
<g id="a_Node000002"><a xlink:href="$classFAutomationTestFramework.html#abe42d181d1afb98203564ca4e6b72930" xlink:title=" ">
<polygon fill="white" stroke="#666666" points="314,-286.5 161.5,-286.5 161.5,-253 314,-253 314,-286.5"/>
<text xml:space="preserve" text-anchor="start" x="169.5" y="-273" font-family="Helvetica,sans-Serif" font-size="10.00">FAutomationTestFramework</text>
<text xml:space="preserve" text-anchor="middle" x="237.75" y="-260.25" font-family="Helvetica,sans-Serif" font-size="10.00">::EnqueueLatentCommand</text>
</a>
</g>
</g>
<!-- Node1&#45;&gt;Node2 -->
<g id="edge1_Node000001_Node000002" class="edge">
<title>Node1&#45;&gt;Node2</title>
<g id="a_edge1_Node000001_Node000002"><a xlink:title=" ">
<path fill="none" stroke="#63b8ff" d="M79.52,-175.95C97.67,-194.87 129.18,-225.06 161.5,-243.75 163.96,-245.17 166.51,-246.53 169.12,-247.84"/>
<polygon fill="#63b8ff" stroke="#63b8ff" points="167.5,-250.94 178.05,-251.93 170.42,-244.58 167.5,-250.94"/>
</a>
</g>
</g>
<!-- Node3 -->
<g id="Node000003" class="node">
<title>Node3</title>
<g id="a_Node000003"><a xlink:href="$classFAutomationSpecBase.html#a80393f1a5424eb929086cce52a3abdb2" xlink:title=" ">
<polygon fill="white" stroke="#666666" points="300.5,-234.5 175,-234.5 175,-201 300.5,-201 300.5,-234.5"/>
<text xml:space="preserve" text-anchor="start" x="183" y="-221" font-family="Helvetica,sans-Serif" font-size="10.00">FAutomationSpecBase</text>
<text xml:space="preserve" text-anchor="middle" x="237.75" y="-208.25" font-family="Helvetica,sans-Serif" font-size="10.00">::EnsureDefinitions</text>
</a>
</g>
</g>
<!-- Node1&#45;&gt;Node3 -->
<g id="edge2_Node000001_Node000003" class="edge">
<title>Node1&#45;&gt;Node3</title>
<g id="a_edge2_Node000001_Node000003"><a xlink:title=" ">
<path fill="none" stroke="#63b8ff" d="M114.25,-175.97C133.36,-182.49 155.31,-189.98 175.31,-196.79"/>
<polygon fill="#63b8ff" stroke="#63b8ff" points="174.16,-200.1 184.75,-200.02 176.42,-193.48 174.16,-200.1"/>
</a>
</g>
</g>
<!-- Node25 -->
<g id="Node000025" class="node">
<title>Node25</title>
<g id="a_Node000025"><a xlink:href="$classTArray.html#aa9fe9ac518f83c21f0fa5592dec9536e" xlink:title=" ">
<polygon fill="white" stroke="#666666" points="679.38,-72.12 602.62,-72.12 602.62,-51.38 679.38,-51.38 679.38,-72.12"/>
<text xml:space="preserve" text-anchor="middle" x="641" y="-58.62" font-family="Helvetica,sans-Serif" font-size="10.00">TArray::Num</text>
</a>
</g>
</g>
<!-- Node1&#45;&gt;Node25 -->
<g id="edge36_Node000001_Node000025" class="edge">
<title>Node1&#45;&gt;Node25</title>
<g id="a_edge36_Node000001_Node000025"><a xlink:title=" ">
<path fill="none" stroke="#63b8ff" d="M125.97,-148.28C241.4,-128.85 486.47,-87.59 591.05,-69.99"/>
<polygon fill="#63b8ff" stroke="#63b8ff" points="591.43,-73.48 600.71,-68.36 590.27,-66.57 591.43,-73.48"/>
</a>
</g>
</g>
<!-- Node28 -->
<g id="Node000028" class="node">
<title>Node28</title>
<g id="a_Node000028"><a xlink:href="$classFAutomationTestFramework.html#a14870beb67290f05db34398735fe95c2" xlink:title=" ">
<polygon fill="white" stroke="#666666" points="314,-71.5 161.5,-71.5 161.5,-38 314,-38 314,-71.5"/>
<text xml:space="preserve" text-anchor="start" x="169.5" y="-58" font-family="Helvetica,sans-Serif" font-size="10.00">FAutomationTestFramework</text>
<text xml:space="preserve" text-anchor="middle" x="237.75" y="-45.25" font-family="Helvetica,sans-Serif" font-size="10.00">::GetInstance</text>
</a>
</g>
</g>
<!-- Node1&#45;&gt;Node28 -->
<g id="edge32_Node000001_Node000028" class="edge">
<title>Node1&#45;&gt;Node28</title>
<g id="a_edge32_Node000001_Node000028"><a xlink:title=" ">
<path fill="none" stroke="#63b8ff" d="M92.32,-141.58C121.37,-124.11 166.55,-96.95 198.63,-77.66"/>
<polygon fill="#63b8ff" stroke="#63b8ff" points="200.08,-80.88 206.84,-72.73 196.47,-74.88 200.08,-80.88"/>
</a>
</g>
</g>
<!-- Node4 -->
<g id="Node000004" class="node">
<title>Node4</title>
<g id="a_Node000004"><a xlink:href="$classFAutomationSpecBase.html#a8a3737eecf5956df4dc52b75c58d42a8" xlink:title=" ">
<polygon fill="white" stroke="#666666" points="500.62,-421.5 375.12,-421.5 375.12,-388 500.62,-388 500.62,-421.5"/>
<text xml:space="preserve" text-anchor="start" x="383.12" y="-408" font-family="Helvetica,sans-Serif" font-size="10.00">FAutomationSpecBase</text>
<text xml:space="preserve" text-anchor="middle" x="437.88" y="-395.25" font-family="Helvetica,sans-Serif" font-size="10.00">::Define</text>
</a>
</g>
</g>
<!-- Node3&#45;&gt;Node4 -->
<g id="edge3_Node000003_Node000004" class="edge">
<title>Node3&#45;&gt;Node4</title>
<g id="a_edge3_Node000003_Node000004"><a xlink:title=" ">
<path fill="none" stroke="#63b8ff" d="M300.66,-233.18C305.59,-236.11 310.14,-239.6 314,-243.75 356.3,-289.21 306.76,-334.18 350,-378.75 354.32,-383.2 359.36,-386.89 364.81,-389.96"/>
<polygon fill="#63b8ff" stroke="#63b8ff" points="363.08,-393.02 373.61,-394.18 366.1,-386.7 363.08,-393.02"/>
</a>
</g>
</g>
<!-- Node5 -->
<g id="Node000005" class="node">
<title>Node5</title>
<g id="a_Node000005"><a xlink:href="$classFAutomationSpecBase.html#a6cb8f77e5b5b8673cefb6f9b42303d6d" xlink:title=" ">
<polygon fill="white" stroke="#666666" points="503.62,-369.5 372.12,-369.5 372.12,-336 503.62,-336 503.62,-369.5"/>
<text xml:space="preserve" text-anchor="start" x="380.12" y="-356" font-family="Helvetica,sans-Serif" font-size="10.00">FAutomationSpecBase</text>
<text xml:space="preserve" text-anchor="middle" x="437.88" y="-343.25" font-family="Helvetica,sans-Serif" font-size="10.00">::FAutomationSpecBase</text>
</a>
</g>
</g>
<!-- Node3&#45;&gt;Node5 -->
<g id="edge4_Node000003_Node000005" class="edge">
<title>Node3&#45;&gt;Node5</title>
<g id="a_edge4_Node000003_Node000005"><a xlink:title=" ">
<path fill="none" stroke="#63b8ff" d="M296.11,-234.89C302.31,-237.52 308.39,-240.47 314,-243.75 353.02,-266.57 390.84,-302.93 413.97,-327.3"/>
<polygon fill="#63b8ff" stroke="#63b8ff" points="411.39,-329.67 420.78,-334.59 416.51,-324.89 411.39,-329.67"/>
</a>
</g>
</g>
<!-- Node9 -->
<g id="Node000009" class="node">
<title>Node9</title>
<g id="a_Node000009"><a xlink:href="$classFAutomationSpecBase.html#a68d3eea3cea548b72628b262f39789f4" xlink:title=" ">
<polygon fill="white" stroke="#666666" points="500.62,-234.5 375.12,-234.5 375.12,-201 500.62,-201 500.62,-234.5"/>
<text xml:space="preserve" text-anchor="start" x="383.12" y="-221" font-family="Helvetica,sans-Serif" font-size="10.00">FAutomationSpecBase</text>
<text xml:space="preserve" text-anchor="middle" x="437.88" y="-208.25" font-family="Helvetica,sans-Serif" font-size="10.00">::PostDefine</text>
</a>
</g>
</g>
<!-- Node3&#45;&gt;Node9 -->
<g id="edge8_Node000003_Node000009" class="edge">
<title>Node3&#45;&gt;Node9</title>
<g id="a_edge8_Node000003_Node000009"><a xlink:title=" ">
<path fill="none" stroke="#63b8ff" d="M300.89,-217.75C320.81,-217.75 343.05,-217.75 363.68,-217.75"/>
<polygon fill="#63b8ff" stroke="#63b8ff" points="363.44,-221.25 373.44,-217.75 363.44,-214.25 363.44,-221.25"/>
</a>
</g>
</g>
<!-- Node6 -->
<g id="Node000006" class="node">
<title>Node6</title>
<g id="a_Node000006"><a xlink:href="$classFAutomationTestBase.html#add74e6564642aacf42f00123fe32ecd2" xlink:title=" ">
<polygon fill="white" stroke="#666666" points="704.88,-497.5 577.12,-497.5 577.12,-464 704.88,-464 704.88,-497.5"/>
<text xml:space="preserve" text-anchor="start" x="585.12" y="-484" font-family="Helvetica,sans-Serif" font-size="10.00">FAutomationTestBase</text>
<text xml:space="preserve" text-anchor="middle" x="641" y="-471.25" font-family="Helvetica,sans-Serif" font-size="10.00">::FAutomationTestBase</text>
</a>
</g>
</g>
<!-- Node5&#45;&gt;Node6 -->
<g id="edge5_Node000005_Node000006" class="edge">
<title>Node5&#45;&gt;Node6</title>
<g id="a_edge5_Node000005_Node000006"><a xlink:title=" ">
<path fill="none" stroke="#63b8ff" d="M504.04,-365.77C511.87,-369.15 519.35,-373.4 525.75,-378.75 552.9,-401.44 535.61,-425.91 561.75,-449.75 565.06,-452.77 568.69,-455.5 572.53,-457.99"/>
<polygon fill="#63b8ff" stroke="#63b8ff" points="570.69,-460.96 581.1,-462.9 574.16,-454.89 570.69,-460.96"/>
</a>
</g>
</g>
<!-- Node7 -->
<g id="Node000007" class="node">
<title>Node7</title>
<g id="a_Node000007"><a xlink:href="$SharedPointer_8h.html#a3c724550c96871a21f9d4db8c4a80ce9" xlink:title=" ">
<polygon fill="white" stroke="#666666" points="864.5,-374.12 773.5,-374.12 773.5,-353.38 864.5,-353.38 864.5,-374.12"/>
<text xml:space="preserve" text-anchor="middle" x="819" y="-360.62" font-family="Helvetica,sans-Serif" font-size="10.00">MakeShareable</text>
</a>
</g>
</g>
<!-- Node5&#45;&gt;Node7 -->
<g id="edge6_Node000005_Node000007" class="edge">
<title>Node5&#45;&gt;Node7</title>
<g id="a_edge6_Node000005_Node000007"><a xlink:title=" ">
<path fill="none" stroke="#63b8ff" d="M503.8,-368.61C511.42,-371.5 518.9,-374.86 525.75,-378.75 544.63,-389.47 541.52,-403.88 561.75,-411.75 627.4,-437.29 651.63,-427.69 720.25,-411.75 746.2,-405.72 773.2,-391.79 792.23,-380.48"/>
<polygon fill="#63b8ff" stroke="#63b8ff" points="793.94,-383.53 800.63,-375.32 790.28,-377.57 793.94,-383.53"/>
</a>
</g>
</g>
<!-- Node8 -->
<g id="Node000008" class="node">
<title>Node8</title>
<g id="a_Node000008"><a xlink:href="$SharedPointerInternals_8h.html#a814775cee105cc074718875745ffc188" xlink:title=" ">
<polygon fill="white" stroke="#666666" points="1086.75,-409.12 920.75,-409.12 920.75,-388.38 1086.75,-388.38 1086.75,-409.12"/>
<text xml:space="preserve" text-anchor="middle" x="1003.75" y="-395.62" font-family="Helvetica,sans-Serif" font-size="10.00">IsDerivedFromSharedFromThis</text>
</a>
</g>
</g>
<!-- Node7&#45;&gt;Node8 -->
<g id="edge7_Node000007_Node000008" class="edge">
<title>Node7&#45;&gt;Node8</title>
<g id="a_edge7_Node000007_Node000008"><a xlink:title=" ">
<path fill="none" stroke="#63b8ff" d="M864.71,-372.31C885.77,-376.35 911.37,-381.25 934.76,-385.73"/>
<polygon fill="#63b8ff" stroke="#63b8ff" points="934.08,-389.16 944.56,-387.61 935.4,-382.29 934.08,-389.16"/>
</a>
</g>
</g>
<!-- Node9&#45;&gt;Node7 -->
<g id="edge28_Node000009_Node000007" class="edge">
<title>Node9&#45;&gt;Node7</title>
<g id="a_edge28_Node000009_Node000007"><a xlink:title=" ">
<path fill="none" stroke="#63b8ff" d="M453.08,-234.84C470.59,-256.06 501.06,-293.54 525.75,-326.75 542.52,-349.31 536.85,-365.7 561.75,-378.75 630.89,-414.97 725.37,-394.61 778.15,-378.13"/>
<polygon fill="#63b8ff" stroke="#63b8ff" points="779.2,-381.47 787.63,-375.06 777.04,-374.81 779.2,-381.47"/>
</a>
</g>
</g>
<!-- Node10 -->
<g id="Node000010" class="node">
<title>Node10</title>
<g id="a_Node000010"><a xlink:href="$classFAutomationSpecBase.html#a6d70780cef5ad4cc20beb7054a230946" xlink:title=" ">
<polygon fill="white" stroke="#666666" points="703.75,-369.5 578.25,-369.5 578.25,-336 703.75,-336 703.75,-369.5"/>
<text xml:space="preserve" text-anchor="start" x="586.25" y="-356" font-family="Helvetica,sans-Serif" font-size="10.00">FAutomationSpecBase</text>
<text xml:space="preserve" text-anchor="middle" x="641" y="-343.25" font-family="Helvetica,sans-Serif" font-size="10.00">::AfterEach</text>
</a>
</g>
</g>
<!-- Node9&#45;&gt;Node10 -->
<g id="edge9_Node000009_Node000010" class="edge">
<title>Node9&#45;&gt;Node10</title>
<g id="a_edge9_Node000009_Node000010"><a xlink:title=" ">
<path fill="none" stroke="#63b8ff" d="M453.9,-234.88C475.55,-258.6 517.78,-301.39 561.75,-326.75 564.25,-328.19 566.83,-329.56 569.48,-330.87"/>
<polygon fill="#63b8ff" stroke="#63b8ff" points="568,-334.05 578.56,-334.98 570.89,-327.67 568,-334.05"/>
</a>
</g>
</g>
<!-- Node11 -->
<g id="Node000011" class="node">
<title>Node11</title>
<g id="a_Node000011"><a xlink:href="$classTArray.html#a74ede47cac56b1d41830719f29a4882d" xlink:title=" ">
<polygon fill="white" stroke="#666666" points="686.12,-318.12 595.88,-318.12 595.88,-297.38 686.12,-297.38 686.12,-318.12"/>
<text xml:space="preserve" text-anchor="middle" x="641" y="-304.62" font-family="Helvetica,sans-Serif" font-size="10.00">TArray::Append</text>
</a>
</g>
</g>
<!-- Node9&#45;&gt;Node11 -->
<g id="edge11_Node000009_Node000011" class="edge">
<title>Node9&#45;&gt;Node11</title>
<g id="a_edge11_Node000009_Node000011"><a xlink:title=" ">
<path fill="none" stroke="#63b8ff" d="M463.68,-234.94C487.76,-250.92 525.84,-274.36 561.75,-288.75 568.98,-291.65 576.77,-294.18 584.54,-296.38"/>
<polygon fill="#63b8ff" stroke="#63b8ff" points="583.41,-299.7 593.98,-298.87 585.2,-292.93 583.41,-299.7"/>
</a>
</g>
</g>
<!-- Node12 -->
<g id="Node000012" class="node">
<title>Node12</title>
<g id="a_Node000012"><a xlink:href="$classFAutomationSpecBase.html#aecd6e6de99086b8c3726d5def21c5931" xlink:title=" ">
<polygon fill="white" stroke="#666666" points="703.75,-279.5 578.25,-279.5 578.25,-246 703.75,-246 703.75,-279.5"/>
<text xml:space="preserve" text-anchor="start" x="586.25" y="-266" font-family="Helvetica,sans-Serif" font-size="10.00">FAutomationSpecBase</text>
<text xml:space="preserve" text-anchor="middle" x="641" y="-253.25" font-family="Helvetica,sans-Serif" font-size="10.00">::BeforeEach</text>
</a>
</g>
</g>
<!-- Node9&#45;&gt;Node12 -->
<g id="edge12_Node000009_Node000012" class="edge">
<title>Node9&#45;&gt;Node12</title>
<g id="a_edge12_Node000009_Node000012"><a xlink:title=" ">
<path fill="none" stroke="#63b8ff" d="M500.86,-231.62C521.7,-236.28 545.14,-241.53 566.76,-246.36"/>
<polygon fill="#63b8ff" stroke="#63b8ff" points="565.87,-249.75 576.4,-248.52 567.4,-242.92 565.87,-249.75"/>
</a>
</g>
</g>
<!-- Node13 -->
<g id="Node000013" class="node">
<title>Node13</title>
<g id="a_Node000013"><a xlink:href="$classFAutomationSpecBase.html#a8b5305d9d9999167b0dcd80b5d1d861b" xlink:title=" ">
<polygon fill="white" stroke="#666666" points="710.12,-228.12 571.88,-228.12 571.88,-207.38 710.12,-207.38 710.12,-228.12"/>
<text xml:space="preserve" text-anchor="middle" x="641" y="-214.62" font-family="Helvetica,sans-Serif" font-size="10.00">FAutomationSpecBase::It</text>
</a>
</g>
</g>
<!-- Node9&#45;&gt;Node13 -->
<g id="edge14_Node000009_Node000013" class="edge">
<title>Node9&#45;&gt;Node13</title>
<g id="a_edge14_Node000009_Node000013"><a xlink:title=" ">
<path fill="none" stroke="#63b8ff" d="M500.86,-217.75C519.58,-217.75 540.4,-217.75 560.11,-217.75"/>
<polygon fill="#63b8ff" stroke="#63b8ff" points="560.05,-221.25 570.05,-217.75 560.05,-214.25 560.05,-221.25"/>
</a>
</g>
</g>
<!-- Node24 -->
<g id="Node000024" class="node">
<title>Node24</title>
<g id="a_Node000024"><a xlink:href="$classTArray.html#a557a36e25ab2c982299aeabd84f750d9" xlink:title=" ">
<polygon fill="white" stroke="#666666" points="677.88,-189.12 604.12,-189.12 604.12,-168.38 677.88,-168.38 677.88,-189.12"/>
<text xml:space="preserve" text-anchor="middle" x="641" y="-175.62" font-family="Helvetica,sans-Serif" font-size="10.00">TArray::Last</text>
</a>
</g>
</g>
<!-- Node9&#45;&gt;Node24 -->
<g id="edge27_Node000009_Node000024" class="edge">
<title>Node9&#45;&gt;Node24</title>
<g id="a_edge27_Node000009_Node000024"><a xlink:title=" ">
<path fill="none" stroke="#63b8ff" d="M500.86,-205.73C530.35,-200.01 565.06,-193.28 592.43,-187.97"/>
<polygon fill="#63b8ff" stroke="#63b8ff" points="593.04,-191.42 602.19,-186.08 591.71,-184.55 593.04,-191.42"/>
</a>
</g>
</g>
<!-- Node9&#45;&gt;Node25 -->
<g id="edge29_Node000009_Node000025" class="edge">
<title>Node9&#45;&gt;Node25</title>
<g id="a_edge29_Node000009_Node000025"><a xlink:title=" ">
<path fill="none" stroke="#63b8ff" d="M466.88,-200.74C485.29,-188.53 508.99,-170.75 525.75,-150.75 547.96,-124.24 534.64,-103.23 561.75,-81.75 570.31,-74.96 580.92,-70.46 591.52,-67.47"/>
<polygon fill="#63b8ff" stroke="#63b8ff" points="592.09,-70.93 601.01,-65.22 590.48,-64.12 592.09,-70.93"/>
</a>
</g>
</g>
<!-- Node26 -->
<g id="Node000026" class="node">
<title>Node26</title>
<g id="a_Node000026"><a xlink:href="$classTArray.html#af75d51184a3b156af56c964be466bce7" xlink:title=" ">
<polygon fill="white" stroke="#666666" points="676.75,-150.12 605.25,-150.12 605.25,-129.38 676.75,-129.38 676.75,-150.12"/>
<text xml:space="preserve" text-anchor="middle" x="641" y="-136.62" font-family="Helvetica,sans-Serif" font-size="10.00">TArray::Pop</text>
</a>
</g>
</g>
<!-- Node9&#45;&gt;Node26 -->
<g id="edge30_Node000009_Node000026" class="edge">
<title>Node9&#45;&gt;Node26</title>
<g id="a_edge30_Node000009_Node000026"><a xlink:title=" ">
<path fill="none" stroke="#63b8ff" d="M471.01,-200.5C495.39,-187.94 530.01,-171.18 561.75,-159.75 572.03,-156.05 583.3,-152.75 594.01,-149.94"/>
<polygon fill="#63b8ff" stroke="#63b8ff" points="594.59,-153.41 603.43,-147.58 592.88,-146.62 594.59,-153.41"/>
</a>
</g>
</g>
<!-- Node27 -->
<g id="Node000027" class="node">
<title>Node27</title>
<g id="a_Node000027"><a xlink:href="$classTArray.html#abaf2acd642efd602bf85c71266453bab" xlink:title=" ">
<polygon fill="white" stroke="#666666" points="679.38,-111.12 602.62,-111.12 602.62,-90.38 679.38,-90.38 679.38,-111.12"/>
<text xml:space="preserve" text-anchor="middle" x="641" y="-97.62" font-family="Helvetica,sans-Serif" font-size="10.00">TArray::Push</text>
</a>
</g>
</g>
<!-- Node9&#45;&gt;Node27 -->
<g id="edge31_Node000009_Node000027" class="edge">
<title>Node9&#45;&gt;Node27</title>
<g id="a_edge31_Node000009_Node000027"><a xlink:title=" ">
<path fill="none" stroke="#63b8ff" d="M461.56,-200.63C479.19,-187.23 504.2,-168.03 525.75,-150.75 542,-137.72 543.2,-130.23 561.75,-120.75 570.82,-116.11 581.05,-112.5 591.04,-109.7"/>
<polygon fill="#63b8ff" stroke="#63b8ff" points="591.86,-113.1 600.68,-107.24 590.13,-106.32 591.86,-113.1"/>
</a>
</g>
</g>
<!-- Node10&#45;&gt;Node7 -->
<g id="edge10_Node000010_Node000007" class="edge">
<title>Node10&#45;&gt;Node7</title>
<g id="a_edge10_Node000010_Node000007"><a xlink:title=" ">
<path fill="none" stroke="#63b8ff" d="M704.05,-356.63C722.81,-357.8 743.3,-359.08 761.67,-360.23"/>
<polygon fill="#63b8ff" stroke="#63b8ff" points="761.38,-363.72 771.58,-360.85 761.82,-356.73 761.38,-363.72"/>
</a>
</g>
</g>
<!-- Node12&#45;&gt;Node7 -->
<g id="edge13_Node000012_Node000007" class="edge">
<title>Node12&#45;&gt;Node7</title>
<g id="a_edge13_Node000012_Node000007"><a xlink:title=" ">
<path fill="none" stroke="#63b8ff" d="M702.01,-279.98C708.33,-282.58 714.52,-285.5 720.25,-288.75 738.62,-299.17 739.63,-306.72 756.25,-319.75 767.95,-328.92 781.34,-338.56 792.66,-346.48"/>
<polygon fill="#63b8ff" stroke="#63b8ff" points="790.51,-349.25 800.73,-352.07 794.5,-343.5 790.51,-349.25"/>
</a>
</g>
</g>
<!-- Node13&#45;&gt;Node7 -->
<g id="edge24_Node000013_Node000007" class="edge">
<title>Node13&#45;&gt;Node7</title>
<g id="a_edge24_Node000013_Node000007"><a xlink:title=" ">
<path fill="none" stroke="#63b8ff" d="M707.51,-228.55C712.09,-230.8 716.4,-233.51 720.25,-236.75 751.01,-262.65 730.95,-288.5 756.25,-319.75 764.87,-330.4 776.7,-339.67 787.69,-346.92"/>
<polygon fill="#63b8ff" stroke="#63b8ff" points="785.82,-349.87 796.16,-352.18 789.52,-343.93 785.82,-349.87"/>
</a>
</g>
</g>
<!-- Node14 -->
<g id="Node000014" class="node">
<title>Node14</title>
<g id="a_Node000014"><a xlink:href="$classUE_1_1FSourceLocation.html#a49150b254865f0b73066473a2c752b51" xlink:title=" ">
<polygon fill="white" stroke="#666666" points="876.88,-310.5 761.12,-310.5 761.12,-277 876.88,-277 876.88,-310.5"/>
<text xml:space="preserve" text-anchor="start" x="769.12" y="-297" font-family="Helvetica,sans-Serif" font-size="10.00">UE::FSourceLocation</text>
<text xml:space="preserve" text-anchor="middle" x="819" y="-284.25" font-family="Helvetica,sans-Serif" font-size="10.00">::Current</text>
</a>
</g>
</g>
<!-- Node13&#45;&gt;Node14 -->
<g id="edge15_Node000013_Node000014" class="edge">
<title>Node13&#45;&gt;Node14</title>
<g id="a_edge15_Node000013_Node000014"><a xlink:title=" ">
<path fill="none" stroke="#63b8ff" d="M699.97,-228.52C706.99,-230.78 713.91,-233.49 720.25,-236.75 739.03,-246.4 738.3,-256.63 756.25,-267.75 758.26,-268.99 760.34,-270.21 762.46,-271.38"/>
<polygon fill="#63b8ff" stroke="#63b8ff" points="760.81,-274.47 771.31,-275.91 764,-268.24 760.81,-274.47"/>
</a>
</g>
</g>
<!-- Node19 -->
<g id="Node000019" class="node">
<title>Node19</title>
<g id="a_Node000019"><a xlink:href="$classFAutomationSpecBase.html#a416cb4fe7e3c441f8379bb403c59fd54" xlink:title=" ">
<polygon fill="white" stroke="#666666" points="881.75,-258.5 756.25,-258.5 756.25,-225 881.75,-225 881.75,-258.5"/>
<text xml:space="preserve" text-anchor="start" x="764.25" y="-245" font-family="Helvetica,sans-Serif" font-size="10.00">FAutomationSpecBase</text>
<text xml:space="preserve" text-anchor="middle" x="819" y="-232.25" font-family="Helvetica,sans-Serif" font-size="10.00">::GetDescription</text>
</a>
</g>
</g>
<!-- Node13&#45;&gt;Node19 -->
<g id="edge20_Node000013_Node000019" class="edge">
<title>Node13&#45;&gt;Node19</title>
<g id="a_edge20_Node000013_Node000019"><a xlink:title=" ">
<path fill="none" stroke="#63b8ff" d="M710.55,-227.1C721.77,-228.63 733.43,-230.22 744.76,-231.76"/>
<polygon fill="#63b8ff" stroke="#63b8ff" points="744.07,-235.2 754.45,-233.08 745.02,-228.27 744.07,-235.2"/>
</a>
</g>
</g>
<!-- Node21 -->
<g id="Node000021" class="node">
<title>Node21</title>
<g id="a_Node000021"><a xlink:href="$classFAutomationSpecBase.html#a5ac1a643c16587112867fffcb8d78b11" xlink:title=" ">
<polygon fill="white" stroke="#666666" points="881.75,-206.5 756.25,-206.5 756.25,-173 881.75,-173 881.75,-206.5"/>
<text xml:space="preserve" text-anchor="start" x="764.25" y="-193" font-family="Helvetica,sans-Serif" font-size="10.00">FAutomationSpecBase</text>
<text xml:space="preserve" text-anchor="middle" x="819" y="-180.25" font-family="Helvetica,sans-Serif" font-size="10.00">::GetId</text>
</a>
</g>
</g>
<!-- Node13&#45;&gt;Node21 -->
<g id="edge22_Node000013_Node000021" class="edge">
<title>Node13&#45;&gt;Node21</title>
<g id="a_edge22_Node000013_Node000021"><a xlink:title=" ">
<path fill="none" stroke="#63b8ff" d="M710.3,-206.88C721.53,-205.1 733.22,-203.24 744.57,-201.43"/>
<polygon fill="#63b8ff" stroke="#63b8ff" points="744.96,-204.91 754.28,-199.89 743.86,-198 744.96,-204.91"/>
</a>
</g>
</g>
<!-- Node22 -->
<g id="Node000022" class="node">
<title>Node22</title>
<g id="a_Node000022"><a xlink:href="$classFAutomationSpecBase.html#a31dc49fad773aa4eea0a12b613a8f3fd" xlink:title=" ">
<polygon fill="white" stroke="#666666" points="881.75,-154.5 756.25,-154.5 756.25,-121 881.75,-121 881.75,-154.5"/>
<text xml:space="preserve" text-anchor="start" x="764.25" y="-141" font-family="Helvetica,sans-Serif" font-size="10.00">FAutomationSpecBase</text>
<text xml:space="preserve" text-anchor="middle" x="819" y="-128.25" font-family="Helvetica,sans-Serif" font-size="10.00">::PopDescription</text>
</a>
</g>
</g>
<!-- Node13&#45;&gt;Node22 -->
<g id="edge25_Node000013_Node000022" class="edge">
<title>Node13&#45;&gt;Node22</title>
<g id="a_edge25_Node000013_Node000022"><a xlink:title=" ">
<path fill="none" stroke="#63b8ff" d="M698.47,-207C706.03,-204.52 713.5,-201.47 720.25,-197.75 739.53,-187.13 737.81,-175.77 756.25,-163.75 758.08,-162.56 759.97,-161.4 761.9,-160.28"/>
<polygon fill="#63b8ff" stroke="#63b8ff" points="763.34,-163.49 770.52,-155.7 760.05,-157.3 763.34,-163.49"/>
</a>
</g>
</g>
<!-- Node23 -->
<g id="Node000023" class="node">
<title>Node23</title>
<g id="a_Node000023"><a xlink:href="$classFAutomationSpecBase.html#ac6256141feea3a8d2da022e169d13b5c" xlink:title=" ">
<polygon fill="white" stroke="#666666" points="881.75,-102.5 756.25,-102.5 756.25,-69 881.75,-69 881.75,-102.5"/>
<text xml:space="preserve" text-anchor="start" x="764.25" y="-89" font-family="Helvetica,sans-Serif" font-size="10.00">FAutomationSpecBase</text>
<text xml:space="preserve" text-anchor="middle" x="819" y="-76.25" font-family="Helvetica,sans-Serif" font-size="10.00">::PushDescription</text>
</a>
</g>
</g>
<!-- Node13&#45;&gt;Node23 -->
<g id="edge26_Node000013_Node000023" class="edge">
<title>Node13&#45;&gt;Node23</title>
<g id="a_edge26_Node000013_Node000023"><a xlink:title=" ">
<path fill="none" stroke="#63b8ff" d="M706.05,-206.89C711.18,-204.42 716,-201.42 720.25,-197.75 751.61,-170.67 726.98,-141.08 756.25,-111.75 756.99,-111.01 757.75,-110.29 758.53,-109.59"/>
<polygon fill="#63b8ff" stroke="#63b8ff" points="760.48,-112.51 766.41,-103.72 756.3,-106.89 760.48,-112.51"/>
</a>
</g>
</g>
<!-- Node15 -->
<g id="Node000015" class="node">
<title>Node15</title>
<g id="a_Node000015"><a xlink:href="$structUE_1_1FSourceLocation_1_1FSourceLocationImpl.html#a4b56236aecaca3ec6ae8fa2888d757b1" xlink:title=" ">
<polygon fill="white" stroke="#666666" points="1065.75,-369.88 941.75,-369.88 941.75,-323.62 1065.75,-323.62 1065.75,-369.88"/>
<text xml:space="preserve" text-anchor="start" x="949.75" y="-356.38" font-family="Helvetica,sans-Serif" font-size="10.00">UE::FSourceLocation</text>
<text xml:space="preserve" text-anchor="start" x="949.75" y="-343.62" font-family="Helvetica,sans-Serif" font-size="10.00">::FSourceLocationImpl</text>
<text xml:space="preserve" text-anchor="middle" x="1003.75" y="-330.88" font-family="Helvetica,sans-Serif" font-size="10.00">::current</text>
</a>
</g>
</g>
<!-- Node14&#45;&gt;Node15 -->
<g id="edge16_Node000014_Node000015" class="edge">
<title>Node14&#45;&gt;Node15</title>
<g id="a_edge16_Node000014_Node000015"><a xlink:title=" ">
<path fill="none" stroke="#63b8ff" d="M877.32,-310.37C894.23,-315.28 912.94,-320.7 930.65,-325.84"/>
<polygon fill="#63b8ff" stroke="#63b8ff" points="929.49,-329.15 940.07,-328.57 931.44,-322.42 929.49,-329.15"/>
</a>
</g>
</g>
<!-- Node17 -->
<g id="Node000017" class="node">
<title>Node17</title>
<g id="a_Node000017"><a xlink:href="$classUE_1_1FSourceLocation.html#a8e77f5040b6ea9ae6fa3da24066ee1df" xlink:title=" ">
<polygon fill="white" stroke="#666666" points="1061.62,-305.5 945.88,-305.5 945.88,-272 1061.62,-272 1061.62,-305.5"/>
<text xml:space="preserve" text-anchor="start" x="953.88" y="-292" font-family="Helvetica,sans-Serif" font-size="10.00">UE::FSourceLocation</text>
<text xml:space="preserve" text-anchor="middle" x="1003.75" y="-279.25" font-family="Helvetica,sans-Serif" font-size="10.00">::FSourceLocation</text>
</a>
</g>
</g>
<!-- Node14&#45;&gt;Node17 -->
<g id="edge18_Node000014_Node000017" class="edge">
<title>Node14&#45;&gt;Node17</title>
<g id="a_edge18_Node000014_Node000017"><a xlink:title=" ">
<path fill="none" stroke="#63b8ff" d="M877.32,-292.18C895.35,-291.69 915.45,-291.14 934.18,-290.63"/>
<polygon fill="#63b8ff" stroke="#63b8ff" points="934.22,-294.13 944.12,-290.35 934.03,-287.13 934.22,-294.13"/>
</a>
</g>
</g>
<!-- Node18 -->
<g id="Node000018" class="node">
<title>Node18</title>
<g id="a_Node000018"><a xlink:href="$UnrealTemplate_8h.html#a6affb55ac4c80f005e72b931da3d3a55" xlink:title=" ">
<polygon fill="white" stroke="#666666" points="1038.38,-254.12 969.12,-254.12 969.12,-233.38 1038.38,-233.38 1038.38,-254.12"/>
<text xml:space="preserve" text-anchor="middle" x="1003.75" y="-240.62" font-family="Helvetica,sans-Serif" font-size="10.00">MoveTemp</text>
</a>
</g>
</g>
<!-- Node14&#45;&gt;Node18 -->
<g id="edge19_Node000014_Node000018" class="edge">
<title>Node14&#45;&gt;Node18</title>
<g id="a_edge19_Node000014_Node000018"><a xlink:title=" ">
<path fill="none" stroke="#63b8ff" d="M871.24,-276.57C886.16,-271.83 902.54,-266.85 917.75,-262.75 930.62,-259.28 944.71,-255.94 957.65,-253.06"/>
<polygon fill="#63b8ff" stroke="#63b8ff" points="958.17,-256.53 967.19,-250.98 956.67,-249.69 958.17,-256.53"/>
</a>
</g>
</g>
<!-- Node16 -->
<g id="Node000016" class="node">
<title>Node16</title>
<g id="a_Node000016"><a xlink:href="$structUE_1_1FSourceLocation_1_1FSourceLocationImpl.html#a537aa44a566301ea39101d1c8d591517" xlink:title=" ">
<polygon fill="white" stroke="#666666" points="1249.75,-369.88 1125.75,-369.88 1125.75,-323.62 1249.75,-323.62 1249.75,-369.88"/>
<text xml:space="preserve" text-anchor="start" x="1133.75" y="-356.38" font-family="Helvetica,sans-Serif" font-size="10.00">UE::FSourceLocation</text>
<text xml:space="preserve" text-anchor="start" x="1133.75" y="-343.62" font-family="Helvetica,sans-Serif" font-size="10.00">::FSourceLocationImpl</text>
<text xml:space="preserve" text-anchor="middle" x="1187.75" y="-330.88" font-family="Helvetica,sans-Serif" font-size="10.00">::FSourceLocationImpl</text>
</a>
</g>
</g>
<!-- Node15&#45;&gt;Node16 -->
<g id="edge17_Node000015_Node000016" class="edge">
<title>Node15&#45;&gt;Node16</title>
<g id="a_edge17_Node000015_Node000016"><a xlink:title=" ">
<path fill="none" stroke="#63b8ff" d="M1066.11,-346.75C1081.48,-346.75 1098.1,-346.75 1113.96,-346.75"/>
<polygon fill="#63b8ff" stroke="#63b8ff" points="1113.83,-350.25 1123.83,-346.75 1113.83,-343.25 1113.83,-350.25"/>
</a>
</g>
</g>
<!-- Node20 -->
<g id="Node000020" class="node">
<title>Node20</title>
<g id="a_Node000020"><a xlink:href="$structTChar.html#ac8808d6ab3463757224b615bc74d16aa" xlink:title=" ">
<polygon fill="white" stroke="#666666" points="1089.75,-210.12 917.75,-210.12 917.75,-189.38 1089.75,-189.38 1089.75,-210.12"/>
<text xml:space="preserve" text-anchor="middle" x="1003.75" y="-196.62" font-family="Helvetica,sans-Serif" font-size="10.00">TChar&lt; TCHAR &gt;::IsWhitespace</text>
</a>
</g>
</g>
<!-- Node19&#45;&gt;Node20 -->
<g id="edge21_Node000019_Node000020" class="edge">
<title>Node19&#45;&gt;Node20</title>
<g id="a_edge21_Node000019_Node000020"><a xlink:title=" ">
<path fill="none" stroke="#63b8ff" d="M882.13,-227.47C902.29,-222.84 924.57,-217.72 944.45,-213.15"/>
<polygon fill="#63b8ff" stroke="#63b8ff" points="945.08,-216.59 954.05,-210.94 943.52,-209.77 945.08,-216.59"/>
</a>
</g>
</g>
<!-- Node21&#45;&gt;Node20 -->
<g id="edge23_Node000021_Node000020" class="edge">
<title>Node21&#45;&gt;Node20</title>
<g id="a_edge23_Node000021_Node000020"><a xlink:title=" ">
<path fill="none" stroke="#63b8ff" d="M882.13,-193.15C889.86,-193.57 897.91,-194.01 906.02,-194.46"/>
<polygon fill="#63b8ff" stroke="#63b8ff" points="905.8,-197.95 915.98,-195 906.18,-190.96 905.8,-197.95"/>
</a>
</g>
</g>
<!-- Node29 -->
<g id="Node000029" class="node">
<title>Node29</title>
<g id="a_Node000029"><a xlink:href="$classFAutomationTestFramework.html#ae9ebf02ccc73cffb4b021e384b7eec50" xlink:title=" ">
<polygon fill="white" stroke="#666666" points="720.25,-33.5 561.75,-33.5 561.75,0 720.25,0 720.25,-33.5"/>
<text xml:space="preserve" text-anchor="start" x="569.75" y="-20" font-family="Helvetica,sans-Serif" font-size="10.00">FAutomationTestFramework</text>
<text xml:space="preserve" text-anchor="middle" x="641" y="-7.25" font-family="Helvetica,sans-Serif" font-size="10.00">::FAutomationTestFramework</text>
</a>
</g>
</g>
<!-- Node28&#45;&gt;Node29 -->
<g id="edge33_Node000028_Node000029" class="edge">
<title>Node28&#45;&gt;Node29</title>
<g id="a_edge33_Node000028_Node000029"><a xlink:title=" ">
<path fill="none" stroke="#63b8ff" d="M314.47,-51.78C372.44,-49.01 454.32,-44.03 525.75,-35.75 533.71,-34.83 541.97,-33.73 550.23,-32.54"/>
<polygon fill="#63b8ff" stroke="#63b8ff" points="550.61,-36.02 559.98,-31.08 549.57,-29.1 550.61,-36.02"/>
</a>
</g>
</g>
<!-- Node30 -->
<g id="Node000030" class="node">
<title>Node30</title>
<g id="a_Node000030"><a xlink:href="$classFAutomationTestFramework.html#a54447a0cd096235847a21588c57b5a03" xlink:title=" ">
<polygon fill="white" stroke="#666666" points="525.75,-27.12 350,-27.12 350,-6.38 525.75,-6.38 525.75,-27.12"/>
<text xml:space="preserve" text-anchor="middle" x="437.88" y="-13.62" font-family="Helvetica,sans-Serif" font-size="10.00">FAutomationTestFramework::Get</text>
</a>
</g>
</g>
<!-- Node28&#45;&gt;Node30 -->
<g id="edge34_Node000028_Node000030" class="edge">
<title>Node28&#45;&gt;Node30</title>
<g id="a_edge34_Node000028_Node000030"><a xlink:title=" ">
<path fill="none" stroke="#63b8ff" d="M314.22,-40.28C332.33,-36.8 351.57,-33.11 369.3,-29.71"/>
<polygon fill="#63b8ff" stroke="#63b8ff" points="369.77,-33.18 378.93,-27.86 368.45,-26.31 369.77,-33.18"/>
</a>
</g>
</g>
<!-- Node30&#45;&gt;Node29 -->
<g id="edge35_Node000030_Node000029" class="edge">
<title>Node30&#45;&gt;Node29</title>
<g id="a_edge35_Node000030_Node000029"><a xlink:title=" ">
<path fill="none" stroke="#63b8ff" d="M526.21,-16.75C534.05,-16.75 541.99,-16.75 549.85,-16.75"/>
<polygon fill="#63b8ff" stroke="#63b8ff" points="549.77,-20.25 559.77,-16.75 549.77,-13.25 549.77,-20.25"/>
</a>
</g>
</g>
</g>
</svg>
