<?xml version="1.0" encoding="UTF-8" standalone="no"?>
<!DOCTYPE svg PUBLIC "-//W3C//DTD SVG 1.1//EN"
 "http://www.w3.org/Graphics/SVG/1.1/DTD/svg11.dtd">
<!-- Generated by graphviz version 14.1.4 (0)
 -->
<!-- Title: UE::FUnixSystemWideMutex Pages: 1 -->
<svg width="165pt" height="146pt"
 viewBox="0.00 0.00 165.00 146.00" xmlns="http://www.w3.org/2000/svg" xmlns:xlink="http://www.w3.org/1999/xlink">
<g id="graph0" class="graph" transform="scale(1 1) rotate(0) translate(4 142)">
<title>UE::FUnixSystemWideMutex</title>
<!-- Node1 -->
<g id="Node000001" class="node">
<title>Node1</title>
<g id="a_Node000001"><a xlink:title=" ">
<polygon fill="#999999" stroke="none" points="156.75,-138 0,-138 0,0 156.75,0 156.75,-138"/>
<text xml:space="preserve" text-anchor="start" x="8.25" y="-124.25" font-family="Helvetica,sans-Serif" font-size="10.00">UE::FUnixSystemWideMutex</text>
<text xml:space="preserve" text-anchor="start" x="6.25" y="-107.5" font-family="Helvetica,sans-Serif" font-size="10.00">&#45;</text>
<text xml:space="preserve" text-anchor="start" x="16.25" y="-107.5" font-family="Helvetica,sans-Serif" font-size="10.00">FileHandle</text>
<text xml:space="preserve" text-anchor="start" x="4" y="-90.75" font-family="Helvetica,sans-Serif" font-size="10.00">+</text>
<text xml:space="preserve" text-anchor="start" x="16.25" y="-90.75" font-family="Helvetica,sans-Serif" font-size="10.00">FUnixSystemWideMutex()</text>
<text xml:space="preserve" text-anchor="start" x="4" y="-74" font-family="Helvetica,sans-Serif" font-size="10.00">+</text>
<text xml:space="preserve" text-anchor="start" x="16.25" y="-74" font-family="Helvetica,sans-Serif" font-size="10.00">operator=()</text>
<text xml:space="preserve" text-anchor="start" x="4" y="-57.25" font-family="Helvetica,sans-Serif" font-size="10.00">+</text>
<text xml:space="preserve" text-anchor="start" x="16.25" y="-57.25" font-family="Helvetica,sans-Serif" font-size="10.00">FUnixSystemWideMutex()</text>
<text xml:space="preserve" text-anchor="start" x="4" y="-40.5" font-family="Helvetica,sans-Serif" font-size="10.00">+</text>
<text xml:space="preserve" text-anchor="start" x="16.25" y="-40.5" font-family="Helvetica,sans-Serif" font-size="10.00">~FUnixSystemWideMutex()</text>
<text xml:space="preserve" text-anchor="start" x="4" y="-23.75" font-family="Helvetica,sans-Serif" font-size="10.00">+</text>
<text xml:space="preserve" text-anchor="start" x="16.25" y="-23.75" font-family="Helvetica,sans-Serif" font-size="10.00">IsValid()</text>
<text xml:space="preserve" text-anchor="start" x="4" y="-7" font-family="Helvetica,sans-Serif" font-size="10.00">+</text>
<text xml:space="preserve" text-anchor="start" x="16.25" y="-7" font-family="Helvetica,sans-Serif" font-size="10.00">Release()</text>
<polygon fill="#666666" stroke="#666666" points="0,-119.25 0,-119.25 156.75,-119.25 156.75,-119.25 0,-119.25"/>
<polygon fill="#666666" stroke="#666666" points="0,-102.5 0,-102.5 14.25,-102.5 14.25,-102.5 0,-102.5"/>
<polygon fill="#666666" stroke="#666666" points="14.25,-102.5 14.25,-102.5 156.75,-102.5 156.75,-102.5 14.25,-102.5"/>
<polygon fill="none" stroke="#666666" points="0,0 0,-138 156.75,-138 156.75,0 0,0"/>
</a>
</g>
</g>
</g>
</svg>
