<?xml version="1.0" encoding="UTF-8" standalone="no"?>
<!DOCTYPE svg PUBLIC "-//W3C//DTD SVG 1.1//EN"
 "http://www.w3.org/Graphics/SVG/1.1/DTD/svg11.dtd">
<!-- Generated by graphviz version 14.1.4 (0)
 -->
<!-- Title: UE::Tasks::FTaskEvent::Trigger Pages: 1 -->
<svg width="479pt" height="42pt"
 viewBox="0.00 0.00 479.00 42.00" xmlns="http://www.w3.org/2000/svg" xmlns:xlink="http://www.w3.org/1999/xlink">
<g id="graph0" class="graph" transform="scale(1 1) rotate(0) translate(4 37.5)">
<title>UE::Tasks::FTaskEvent::Trigger</title>
<!-- Node1 -->
<g id="Node000001" class="node">
<title>Node1</title>
<g id="a_Node000001"><a xlink:title=" ">
<polygon fill="#999999" stroke="#666666" points="124,-33.5 0,-33.5 0,0 124,0 124,-33.5"/>
<text xml:space="preserve" text-anchor="start" x="8" y="-20" font-family="Helvetica,sans-Serif" font-size="10.00">UE::Tasks::FTaskEvent</text>
<text xml:space="preserve" text-anchor="middle" x="62" y="-7.25" font-family="Helvetica,sans-Serif" font-size="10.00">::Trigger</text>
</a>
</g>
</g>
<!-- Node2 -->
<g id="Node000002" class="node">
<title>Node2</title>
<g id="a_Node000002"><a xlink:href="$classUE_1_1Tasks_1_1Private_1_1FTaskHandle.html#ad1b5c596bede0b48cab554148989d55a" xlink:title=" ">
<polygon fill="white" stroke="#666666" points="311.75,-33.5 160,-33.5 160,0 311.75,0 311.75,-33.5"/>
<text xml:space="preserve" text-anchor="start" x="168" y="-20" font-family="Helvetica,sans-Serif" font-size="10.00">UE::Tasks::Private</text>
<text xml:space="preserve" text-anchor="middle" x="235.88" y="-7.25" font-family="Helvetica,sans-Serif" font-size="10.00">::FTaskHandle::IsCompleted</text>
</a>
</g>
</g>
<!-- Node1&#45;&gt;Node2 -->
<g id="edge1_Node000001_Node000002" class="edge">
<title>Node1&#45;&gt;Node2</title>
<g id="a_edge1_Node000001_Node000002"><a xlink:title=" ">
<path fill="none" stroke="#63b8ff" d="M124.08,-16.75C131.88,-16.75 139.99,-16.75 148.1,-16.75"/>
<polygon fill="#63b8ff" stroke="#63b8ff" points="148.04,-20.25 158.04,-16.75 148.04,-13.25 148.04,-20.25"/>
</a>
</g>
</g>
<!-- Node3 -->
<g id="Node000003" class="node">
<title>Node3</title>
<g id="a_Node000003"><a xlink:href="$classUE_1_1Tasks_1_1Private_1_1FTaskHandle.html#a2b2d9271f8cb076bc68001f0115c4b0b" xlink:title=" ">
<polygon fill="white" stroke="#666666" points="471,-33.5 347.75,-33.5 347.75,0 471,0 471,-33.5"/>
<text xml:space="preserve" text-anchor="start" x="355.75" y="-20" font-family="Helvetica,sans-Serif" font-size="10.00">UE::Tasks::Private</text>
<text xml:space="preserve" text-anchor="middle" x="409.38" y="-7.25" font-family="Helvetica,sans-Serif" font-size="10.00">::FTaskHandle::IsValid</text>
</a>
</g>
</g>
<!-- Node2&#45;&gt;Node3 -->
<g id="edge2_Node000002_Node000003" class="edge">
<title>Node2&#45;&gt;Node3</title>
<g id="a_edge2_Node000002_Node000003"><a xlink:title=" ">
<path fill="none" stroke="#63b8ff" d="M312.1,-16.75C320.02,-16.75 328.06,-16.75 335.95,-16.75"/>
<polygon fill="#63b8ff" stroke="#63b8ff" points="335.85,-20.25 345.85,-16.75 335.85,-13.25 335.85,-20.25"/>
</a>
</g>
</g>
</g>
</svg>
