<?xml version="1.0" encoding="UTF-8" standalone="no"?>
<!DOCTYPE svg PUBLIC "-//W3C//DTD SVG 1.1//EN"
 "http://www.w3.org/Graphics/SVG/1.1/DTD/svg11.dtd">
<!-- Generated by graphviz version 14.1.4 (0)
 -->
<!-- Title: TRingBuffer::EmplaceFront Pages: 1 -->
<svg width="1478pt" height="381pt"
 viewBox="0.00 0.00 1478.00 381.00" xmlns="http://www.w3.org/2000/svg" xmlns:xlink="http://www.w3.org/1999/xlink">
<g id="graph0" class="graph" transform="scale(1 1) rotate(0) translate(4 376.77)">
<title>TRingBuffer::EmplaceFront</title>
<!-- Node1 -->
<g id="Node000001" class="node">
<title>Node1</title>
<g id="a_Node000001"><a xlink:title=" ">
<polygon fill="#999999" stroke="#666666" points="146.5,-215.39 0,-215.39 0,-194.64 146.5,-194.64 146.5,-215.39"/>
<text xml:space="preserve" text-anchor="middle" x="73.25" y="-201.89" font-family="Helvetica,sans-Serif" font-size="10.00">TRingBuffer::EmplaceFront</text>
</a>
</g>
</g>
<!-- Node2 -->
<g id="Node000002" class="node">
<title>Node2</title>
<g id="a_Node000002"><a xlink:href="$classTRingBuffer.html#a7b34a885ae96c31e27fda8137157d6fa" xlink:title=" ">
<polygon fill="white" stroke="#666666" points="367.25,-287.39 182.5,-287.39 182.5,-266.64 367.25,-266.64 367.25,-287.39"/>
<text xml:space="preserve" text-anchor="middle" x="274.88" y="-273.89" font-family="Helvetica,sans-Serif" font-size="10.00">TRingBuffer::AddFrontUninitialized</text>
</a>
</g>
</g>
<!-- Node1&#45;&gt;Node2 -->
<g id="edge1_Node000001_Node000002" class="edge">
<title>Node1&#45;&gt;Node2</title>
<g id="a_edge1_Node000001_Node000002"><a xlink:title=" ">
<path fill="none" stroke="#63b8ff" d="M104.14,-215.8C138.39,-228.15 194.72,-248.47 233.01,-262.28"/>
<polygon fill="#63b8ff" stroke="#63b8ff" points="231.77,-265.55 242.36,-265.65 234.14,-258.97 231.77,-265.55"/>
</a>
</g>
</g>
<!-- Node17 -->
<g id="Node000017" class="node">
<title>Node17</title>
<g id="a_Node000017"><a xlink:href="$UnrealTemplate_8h.html#aea228b8b6d93b902d974d3bfa72f888f" xlink:title=" ">
<polygon fill="white" stroke="#666666" points="302.38,-177.39 247.38,-177.39 247.38,-156.64 302.38,-156.64 302.38,-177.39"/>
<text xml:space="preserve" text-anchor="middle" x="274.88" y="-163.89" font-family="Helvetica,sans-Serif" font-size="10.00">Forward</text>
</a>
</g>
</g>
<!-- Node1&#45;&gt;Node17 -->
<g id="edge23_Node000001_Node000017" class="edge">
<title>Node1&#45;&gt;Node17</title>
<g id="a_edge23_Node000001_Node000017"><a xlink:title=" ">
<path fill="none" stroke="#63b8ff" d="M131.19,-194.18C164.76,-187.79 206.32,-179.88 235.92,-174.24"/>
<polygon fill="#63b8ff" stroke="#63b8ff" points="236.36,-177.72 245.53,-172.41 235.05,-170.85 236.36,-177.72"/>
</a>
</g>
</g>
<!-- Node18 -->
<g id="Node000018" class="node">
<title>Node18</title>
<g id="a_Node000018"><a xlink:href="$classTRingBuffer.html#ac69e19bfd838e063c4ea5aab67cdb61d" xlink:title=" ">
<polygon fill="white" stroke="#666666" points="722.5,-113.77 574.5,-113.77 574.5,-80.27 722.5,-80.27 722.5,-113.77"/>
<text xml:space="preserve" text-anchor="start" x="582.5" y="-100.27" font-family="Helvetica,sans-Serif" font-size="10.00">TRingBuffer::GetAtIndexNo</text>
<text xml:space="preserve" text-anchor="middle" x="648.5" y="-87.52" font-family="Helvetica,sans-Serif" font-size="10.00">Check</text>
</a>
</g>
</g>
<!-- Node1&#45;&gt;Node18 -->
<g id="edge24_Node000001_Node000018" class="edge">
<title>Node1&#45;&gt;Node18</title>
<g id="a_edge24_Node000001_Node000018"><a xlink:title=" ">
<path fill="none" stroke="#63b8ff" d="M146.81,-205.19C206.47,-204.16 292.98,-200 367.25,-186.02 448.14,-170.79 538.32,-139.43 593.99,-118.31"/>
<polygon fill="#63b8ff" stroke="#63b8ff" points="595.15,-121.61 603.24,-114.77 592.65,-115.08 595.15,-121.61"/>
</a>
</g>
</g>
<!-- Node3 -->
<g id="Node000003" class="node">
<title>Node3</title>
<g id="a_Node000003"><a xlink:href="$classTRingBuffer.html#aab531adcc3b46e2524b492a937e9a4ce" xlink:title=" ">
<polygon fill="white" stroke="#666666" points="538.5,-293.77 403.25,-293.77 403.25,-260.27 538.5,-260.27 538.5,-293.77"/>
<text xml:space="preserve" text-anchor="start" x="411.25" y="-280.27" font-family="Helvetica,sans-Serif" font-size="10.00">TRingBuffer::Conditional</text>
<text xml:space="preserve" text-anchor="middle" x="470.88" y="-267.52" font-family="Helvetica,sans-Serif" font-size="10.00">IncrementCapacity</text>
</a>
</g>
</g>
<!-- Node2&#45;&gt;Node3 -->
<g id="edge2_Node000002_Node000003" class="edge">
<title>Node2&#45;&gt;Node3</title>
<g id="a_edge2_Node000002_Node000003"><a xlink:title=" ">
<path fill="none" stroke="#63b8ff" d="M367.48,-277.02C375.52,-277.02 383.61,-277.02 391.53,-277.02"/>
<polygon fill="#63b8ff" stroke="#63b8ff" points="391.47,-280.52 401.47,-277.02 391.47,-273.52 391.47,-280.52"/>
</a>
</g>
</g>
<!-- Node16 -->
<g id="Node000016" class="node">
<title>Node16</title>
<g id="a_Node000016"><a xlink:href="$classTRingBuffer.html#a15b4c13937861b41854ce00000ffc290" xlink:title=" ">
<polygon fill="white" stroke="#666666" points="899.75,-372.77 758.5,-372.77 758.5,-339.27 899.75,-339.27 899.75,-372.77"/>
<text xml:space="preserve" text-anchor="start" x="766.5" y="-359.27" font-family="Helvetica,sans-Serif" font-size="10.00">TRingBuffer::SlackTracker</text>
<text xml:space="preserve" text-anchor="middle" x="829.12" y="-346.52" font-family="Helvetica,sans-Serif" font-size="10.00">NumChanged</text>
</a>
</g>
</g>
<!-- Node2&#45;&gt;Node16 -->
<g id="edge21_Node000002_Node000016" class="edge">
<title>Node2&#45;&gt;Node16</title>
<g id="a_edge21_Node000002_Node000016"><a xlink:title=" ">
<path fill="none" stroke="#63b8ff" d="M324.4,-287.84C348.1,-292.89 377.08,-298.72 403.25,-303.02 522.42,-322.58 661.44,-338.66 747.13,-347.8"/>
<polygon fill="#63b8ff" stroke="#63b8ff" points="746.52,-351.25 756.84,-348.83 747.26,-344.29 746.52,-351.25"/>
</a>
</g>
</g>
<!-- Node4 -->
<g id="Node000004" class="node">
<title>Node4</title>
<g id="a_Node000004"><a xlink:href="$classTRingBuffer.html#a5c37b30f4de47dfe15a368ba4c353568" xlink:title=" ">
<polygon fill="white" stroke="#666666" points="1073.62,-321.39 970.62,-321.39 970.62,-300.64 1073.62,-300.64 1073.62,-321.39"/>
<text xml:space="preserve" text-anchor="middle" x="1022.12" y="-307.89" font-family="Helvetica,sans-Serif" font-size="10.00">TRingBuffer::Num</text>
</a>
</g>
</g>
<!-- Node3&#45;&gt;Node4 -->
<g id="edge3_Node000003_Node000004" class="edge">
<title>Node3&#45;&gt;Node4</title>
<g id="a_edge3_Node000003_Node000004"><a xlink:title=" ">
<path fill="none" stroke="#63b8ff" d="M538.95,-281.17C646.25,-287.81 854.98,-300.73 959.04,-307.17"/>
<polygon fill="#63b8ff" stroke="#63b8ff" points="958.58,-310.65 968.78,-307.78 959.01,-303.67 958.58,-310.65"/>
</a>
</g>
</g>
<!-- Node5 -->
<g id="Node000005" class="node">
<title>Node5</title>
<g id="a_Node000005"><a xlink:href="$classTRingBuffer.html#ad5afdf357d92063d22eeae51e6a0b66d" xlink:title=" ">
<polygon fill="white" stroke="#666666" points="708.25,-206.39 588.75,-206.39 588.75,-185.64 708.25,-185.64 708.25,-206.39"/>
<text xml:space="preserve" text-anchor="middle" x="648.5" y="-192.89" font-family="Helvetica,sans-Serif" font-size="10.00">TRingBuffer::Reserve</text>
</a>
</g>
</g>
<!-- Node3&#45;&gt;Node5 -->
<g id="edge4_Node000003_Node000005" class="edge">
<title>Node3&#45;&gt;Node5</title>
<g id="a_edge4_Node000003_Node000005"><a xlink:title=" ">
<path fill="none" stroke="#63b8ff" d="M509.12,-259.84C540.06,-245.57 583.7,-225.44 613.66,-211.63"/>
<polygon fill="#63b8ff" stroke="#63b8ff" points="615.04,-214.85 622.65,-207.48 612.1,-208.49 615.04,-214.85"/>
</a>
</g>
</g>
<!-- Node6 -->
<g id="Node000006" class="node">
<title>Node6</title>
<g id="a_Node000006"><a xlink:href="$classTRingBuffer.html#a841b0cf4b4a9b0ba7a1340fa47e50bb1" xlink:title=" ">
<polygon fill="white" stroke="#666666" points="1270.75,-245.39 1170,-245.39 1170,-224.64 1270.75,-224.64 1270.75,-245.39"/>
<text xml:space="preserve" text-anchor="middle" x="1220.38" y="-231.89" font-family="Helvetica,sans-Serif" font-size="10.00">TRingBuffer::Max</text>
</a>
</g>
</g>
<!-- Node5&#45;&gt;Node6 -->
<g id="edge5_Node000005_Node000006" class="edge">
<title>Node5&#45;&gt;Node6</title>
<g id="a_edge5_Node000005_Node000006"><a xlink:title=" ">
<path fill="none" stroke="#63b8ff" d="M703.56,-206.85C760.9,-217.74 854.28,-233.79 935.75,-240.02 1012.3,-245.87 1031.74,-241.75 1108.5,-240.02 1124.78,-239.65 1142.39,-238.98 1158.68,-238.25"/>
<polygon fill="#63b8ff" stroke="#63b8ff" points="1158.38,-241.77 1168.21,-237.81 1158.05,-234.78 1158.38,-241.77"/>
</a>
</g>
</g>
<!-- Node7 -->
<g id="Node000007" class="node">
<title>Node7</title>
<g id="a_Node000007"><a xlink:href="$classTRingBuffer.html#a58f96dab51dcdf981703af3cfc9da2fc" xlink:title=" ">
<polygon fill="white" stroke="#666666" points="1108.5,-40.39 935.75,-40.39 935.75,-19.64 1108.5,-19.64 1108.5,-40.39"/>
<text xml:space="preserve" text-anchor="middle" x="1022.12" y="-26.89" font-family="Helvetica,sans-Serif" font-size="10.00">TRingBuffer::NormalizeCapacity</text>
</a>
</g>
</g>
<!-- Node5&#45;&gt;Node7 -->
<g id="edge6_Node000005_Node000007" class="edge">
<title>Node5&#45;&gt;Node7</title>
<g id="a_edge6_Node000005_Node000007"><a xlink:title=" ">
<path fill="none" stroke="#63b8ff" d="M669.18,-185.22C714.96,-160.37 832.59,-98.12 935.75,-57.02 947.36,-52.39 960.1,-48.01 972.11,-44.17"/>
<polygon fill="#63b8ff" stroke="#63b8ff" points="972.93,-47.58 981.44,-41.26 970.85,-40.9 972.93,-47.58"/>
</a>
</g>
</g>
<!-- Node8 -->
<g id="Node000008" class="node">
<title>Node8</title>
<g id="a_Node000008"><a xlink:href="$classTRingBuffer.html#a40faf3a6ccf66edf23df3483f309d523" xlink:title=" ">
<polygon fill="white" stroke="#666666" points="894.88,-177.39 763.38,-177.39 763.38,-156.64 894.88,-156.64 894.88,-177.39"/>
<text xml:space="preserve" text-anchor="middle" x="829.12" y="-163.89" font-family="Helvetica,sans-Serif" font-size="10.00">TRingBuffer::Reallocate</text>
</a>
</g>
</g>
<!-- Node5&#45;&gt;Node8 -->
<g id="edge7_Node000005_Node000008" class="edge">
<title>Node5&#45;&gt;Node8</title>
<g id="a_edge7_Node000005_Node000008"><a xlink:title=" ">
<path fill="none" stroke="#63b8ff" d="M708.48,-186.44C722.41,-184.18 737.46,-181.74 752.02,-179.37"/>
<polygon fill="#63b8ff" stroke="#63b8ff" points="752.24,-182.88 761.55,-177.83 751.12,-175.98 752.24,-182.88"/>
</a>
</g>
</g>
<!-- Node8&#45;&gt;Node4 -->
<g id="edge20_Node000008_Node000004" class="edge">
<title>Node8&#45;&gt;Node4</title>
<g id="a_edge20_Node000008_Node000004"><a xlink:title=" ">
<path fill="none" stroke="#63b8ff" d="M843.69,-177.77C863.69,-193.58 902.34,-223.93 935.75,-249.02 956.08,-264.28 979.45,-281.22 996.6,-293.52"/>
<polygon fill="#63b8ff" stroke="#63b8ff" points="994.51,-296.33 1004.67,-299.31 998.58,-290.64 994.51,-296.33"/>
</a>
</g>
</g>
<!-- Node8&#45;&gt;Node6 -->
<g id="edge17_Node000008_Node000006" class="edge">
<title>Node8&#45;&gt;Node6</title>
<g id="a_edge17_Node000008_Node000006"><a xlink:title=" ">
<path fill="none" stroke="#63b8ff" d="M848.06,-177.84C868.48,-189.56 903.24,-207.7 935.75,-216.02 1010.71,-235.21 1100.25,-238.02 1158.38,-237.32"/>
<polygon fill="#63b8ff" stroke="#63b8ff" points="1158.12,-240.82 1168.06,-237.16 1158.01,-233.82 1158.12,-240.82"/>
</a>
</g>
</g>
<!-- Node8&#45;&gt;Node7 -->
<g id="edge19_Node000008_Node000007" class="edge">
<title>Node8&#45;&gt;Node7</title>
<g id="a_edge19_Node000008_Node000007"><a xlink:title=" ">
<path fill="none" stroke="#63b8ff" d="M844.06,-156.21C858.76,-144.45 882.18,-124.7 899.75,-105.02 918.23,-84.32 913.09,-70.03 935.75,-54.02 940.7,-50.52 946.15,-47.53 951.82,-44.98"/>
<polygon fill="#63b8ff" stroke="#63b8ff" points="952.83,-48.34 960.82,-41.39 950.23,-41.84 952.83,-48.34"/>
</a>
</g>
</g>
<!-- Node9 -->
<g id="Node000009" class="node">
<title>Node9</title>
<g id="a_Node000009"><a xlink:href="$classTRingBuffer.html#a207f4683db0ff774ffe850e793bac7b7" xlink:title=" ">
<polygon fill="white" stroke="#666666" points="1099.88,-206.77 944.38,-206.77 944.38,-173.27 1099.88,-173.27 1099.88,-206.77"/>
<text xml:space="preserve" text-anchor="start" x="952.38" y="-193.27" font-family="Helvetica,sans-Serif" font-size="10.00">TRingBuffer::AllocatorResize</text>
<text xml:space="preserve" text-anchor="middle" x="1022.12" y="-180.52" font-family="Helvetica,sans-Serif" font-size="10.00">Allocation</text>
</a>
</g>
</g>
<!-- Node8&#45;&gt;Node9 -->
<g id="edge8_Node000008_Node000009" class="edge">
<title>Node8&#45;&gt;Node9</title>
<g id="a_edge8_Node000008_Node000009"><a xlink:title=" ">
<path fill="none" stroke="#63b8ff" d="M895.32,-174.87C907.44,-176.33 920.29,-177.88 932.96,-179.4"/>
<polygon fill="#63b8ff" stroke="#63b8ff" points="932.18,-182.83 942.53,-180.55 933.02,-175.88 932.18,-182.83"/>
</a>
</g>
</g>
<!-- Node10 -->
<g id="Node000010" class="node">
<title>Node10</title>
<g id="a_Node000010"><a xlink:href="$classTRingBuffer.html#a7859abfc28865cfa7f653b915bb17885" xlink:title=" ">
<polygon fill="white" stroke="#666666" points="1098,-155.39 946.25,-155.39 946.25,-134.64 1098,-134.64 1098,-155.39"/>
<text xml:space="preserve" text-anchor="middle" x="1022.12" y="-141.89" font-family="Helvetica,sans-Serif" font-size="10.00">TRingBuffer::DestructRange</text>
</a>
</g>
</g>
<!-- Node8&#45;&gt;Node10 -->
<g id="edge9_Node000008_Node000010" class="edge">
<title>Node8&#45;&gt;Node10</title>
<g id="a_edge9_Node000008_Node000010"><a xlink:title=" ">
<path fill="none" stroke="#63b8ff" d="M895.32,-159.51C908.07,-158.04 921.62,-156.48 934.93,-154.95"/>
<polygon fill="#63b8ff" stroke="#63b8ff" points="934.99,-158.46 944.53,-153.84 934.19,-151.51 934.99,-158.46"/>
</a>
</g>
</g>
<!-- Node12 -->
<g id="Node000012" class="node">
<title>Node12</title>
<g id="a_Node000012"><a xlink:href="$classTRingBuffer.html#ad7c20110073fd9f022ec9d9b668dd565" xlink:title=" ">
<polygon fill="white" stroke="#666666" points="1287.62,-78.39 1153.12,-78.39 1153.12,-57.64 1287.62,-57.64 1287.62,-78.39"/>
<text xml:space="preserve" text-anchor="middle" x="1220.38" y="-64.89" font-family="Helvetica,sans-Serif" font-size="10.00">TRingBuffer::GetStorage</text>
</a>
</g>
</g>
<!-- Node8&#45;&gt;Node12 -->
<g id="edge16_Node000008_Node000012" class="edge">
<title>Node8&#45;&gt;Node12</title>
<g id="a_edge16_Node000008_Node000012"><a xlink:title=" ">
<path fill="none" stroke="#63b8ff" d="M839.95,-156.29C857.26,-138.2 895.24,-102.15 935.75,-87.02 1001.95,-62.28 1082.84,-59.28 1141.27,-61.43"/>
<polygon fill="#63b8ff" stroke="#63b8ff" points="1140.99,-64.92 1151.13,-61.86 1141.29,-57.93 1140.99,-64.92"/>
</a>
</g>
</g>
<!-- Node15 -->
<g id="Node000015" class="node">
<title>Node15</title>
<g id="a_Node000015"><a xlink:href="$UnrealTemplate_8h.html#a6affb55ac4c80f005e72b931da3d3a55" xlink:title=" ">
<polygon fill="white" stroke="#666666" points="1056.75,-116.39 987.5,-116.39 987.5,-95.64 1056.75,-95.64 1056.75,-116.39"/>
<text xml:space="preserve" text-anchor="middle" x="1022.12" y="-102.89" font-family="Helvetica,sans-Serif" font-size="10.00">MoveTemp</text>
</a>
</g>
</g>
<!-- Node8&#45;&gt;Node15 -->
<g id="edge18_Node000008_Node000015" class="edge">
<title>Node8&#45;&gt;Node15</title>
<g id="a_edge18_Node000008_Node000015"><a xlink:title=" ">
<path fill="none" stroke="#63b8ff" d="M854.96,-156.24C876.14,-147.32 907.56,-134.74 935.75,-126.02 948.68,-122.01 962.94,-118.38 976.03,-115.34"/>
<polygon fill="#63b8ff" stroke="#63b8ff" points="976.71,-118.77 985.7,-113.16 975.18,-111.94 976.71,-118.77"/>
</a>
</g>
</g>
<!-- Node10&#45;&gt;Node6 -->
<g id="edge14_Node000010_Node000006" class="edge">
<title>Node10&#45;&gt;Node6</title>
<g id="a_edge14_Node000010_Node000006"><a xlink:title=" ">
<path fill="none" stroke="#63b8ff" d="M1089.84,-155.75C1096.35,-158 1102.69,-160.72 1108.5,-164.02 1128.74,-175.49 1125.48,-188.62 1144.5,-202.02 1154.44,-209.02 1166.11,-215.04 1177.24,-219.93"/>
<polygon fill="#63b8ff" stroke="#63b8ff" points="1175.7,-223.08 1186.27,-223.7 1178.39,-216.62 1175.7,-223.08"/>
</a>
</g>
</g>
<!-- Node11 -->
<g id="Node000011" class="node">
<title>Node11</title>
<g id="a_Node000011"><a xlink:href="$MemoryOps_8h.html#a64fb83a2ca369ceca2ff056d415ec2ed" xlink:title=" ">
<polygon fill="white" stroke="#666666" points="1262.88,-193.39 1177.88,-193.39 1177.88,-172.64 1262.88,-172.64 1262.88,-193.39"/>
<text xml:space="preserve" text-anchor="middle" x="1220.38" y="-179.89" font-family="Helvetica,sans-Serif" font-size="10.00">DestructItems</text>
</a>
</g>
</g>
<!-- Node10&#45;&gt;Node11 -->
<g id="edge10_Node000010_Node000011" class="edge">
<title>Node10&#45;&gt;Node11</title>
<g id="a_edge10_Node000010_Node000011"><a xlink:title=" ">
<path fill="none" stroke="#63b8ff" d="M1079.1,-155.86C1106.56,-161.17 1139.46,-167.54 1166.49,-172.78"/>
<polygon fill="#63b8ff" stroke="#63b8ff" points="1165.71,-176.19 1176.2,-174.66 1167.04,-169.32 1165.71,-176.19"/>
</a>
</g>
</g>
<!-- Node10&#45;&gt;Node12 -->
<g id="edge11_Node000010_Node000012" class="edge">
<title>Node10&#45;&gt;Node12</title>
<g id="a_edge11_Node000010_Node000012"><a xlink:title=" ">
<path fill="none" stroke="#63b8ff" d="M1078.36,-134.17C1088.52,-131.59 1098.93,-128.54 1108.5,-125.02 1138.18,-114.1 1170.09,-97.08 1192.02,-84.48"/>
<polygon fill="#63b8ff" stroke="#63b8ff" points="1193.76,-87.52 1200.63,-79.46 1190.23,-81.48 1193.76,-87.52"/>
</a>
</g>
</g>
<!-- Node14 -->
<g id="Node000014" class="node">
<title>Node14</title>
<g id="a_Node000014"><a xlink:href="$classTRingBuffer.html#a4ddd780cb625faa57f3eafa584b58e6e" xlink:title=" ">
<polygon fill="white" stroke="#666666" points="1296.25,-154.77 1144.5,-154.77 1144.5,-121.27 1296.25,-121.27 1296.25,-154.77"/>
<text xml:space="preserve" text-anchor="start" x="1152.5" y="-141.27" font-family="Helvetica,sans-Serif" font-size="10.00">TRingBuffer::NeedsDestruct</text>
<text xml:space="preserve" text-anchor="middle" x="1220.38" y="-128.52" font-family="Helvetica,sans-Serif" font-size="10.00">Elements</text>
</a>
</g>
</g>
<!-- Node10&#45;&gt;Node14 -->
<g id="edge15_Node000010_Node000014" class="edge">
<title>Node10&#45;&gt;Node14</title>
<g id="a_edge15_Node000010_Node000014"><a xlink:title=" ">
<path fill="none" stroke="#63b8ff" d="M1098.44,-142.33C1109.71,-141.93 1121.4,-141.51 1132.88,-141.1"/>
<polygon fill="#63b8ff" stroke="#63b8ff" points="1132.88,-144.61 1142.75,-140.75 1132.63,-137.61 1132.88,-144.61"/>
</a>
</g>
</g>
<!-- Node12&#45;&gt;Node12 -->
<g id="edge12_Node000012_Node000012" class="edge">
<title>Node12&#45;&gt;Node12</title>
<g id="a_edge12_Node000012_Node000012"><a xlink:title=" ">
<path fill="none" stroke="#63b8ff" d="M1191.27,-78.79C1179.63,-87.45 1189.33,-96.39 1220.38,-96.39 1237.35,-96.39 1247.95,-93.72 1252.16,-89.88"/>
<polygon fill="#63b8ff" stroke="#63b8ff" points="1255.59,-89.16 1249.84,-80.26 1248.78,-90.8 1255.59,-89.16"/>
</a>
</g>
</g>
<!-- Node13 -->
<g id="Node000013" class="node">
<title>Node13</title>
<g id="a_Node000013"><a xlink:href="$classTRingBuffer.html#a8c285901c0c99ff13fe22f8035b51cb0" xlink:title=" ">
<polygon fill="white" stroke="#666666" points="1469.75,-78.39 1332.25,-78.39 1332.25,-57.64 1469.75,-57.64 1469.75,-78.39"/>
<text xml:space="preserve" text-anchor="middle" x="1401" y="-64.89" font-family="Helvetica,sans-Serif" font-size="10.00">TRingBuffer::TRingBuffer</text>
</a>
</g>
</g>
<!-- Node12&#45;&gt;Node13 -->
<g id="edge13_Node000012_Node000013" class="edge">
<title>Node12&#45;&gt;Node13</title>
<g id="a_edge13_Node000012_Node000013"><a xlink:title=" ">
<path fill="none" stroke="#63b8ff" d="M1287.89,-68.02C1298.56,-68.02 1309.7,-68.02 1320.64,-68.02"/>
<polygon fill="#63b8ff" stroke="#63b8ff" points="1320.43,-71.52 1330.43,-68.02 1320.43,-64.52 1320.43,-71.52"/>
</a>
</g>
</g>
<!-- Node16&#45;&gt;Node4 -->
<g id="edge22_Node000016_Node000004" class="edge">
<title>Node16&#45;&gt;Node4</title>
<g id="a_edge22_Node000016_Node000004"><a xlink:title=" ">
<path fill="none" stroke="#63b8ff" d="M900.16,-339.52C921.17,-334.57 943.96,-329.2 964.03,-324.47"/>
<polygon fill="#63b8ff" stroke="#63b8ff" points="964.78,-327.89 973.71,-322.19 963.18,-321.07 964.78,-327.89"/>
</a>
</g>
</g>
<!-- Node18&#45;&gt;Node12 -->
<g id="edge25_Node000018_Node000012" class="edge">
<title>Node18&#45;&gt;Node12</title>
<g id="a_edge25_Node000018_Node000012"><a xlink:title=" ">
<path fill="none" stroke="#63b8ff" d="M685.77,-79.83C763.7,-45.17 952.67,26.69 1108.5,-11.02 1140.28,-18.71 1173.16,-37.17 1194.78,-51.02"/>
<polygon fill="#63b8ff" stroke="#63b8ff" points="1192.61,-53.78 1202.89,-56.35 1196.46,-47.93 1192.61,-53.78"/>
</a>
</g>
</g>
</g>
</svg>
