<?xml version="1.0" encoding="UTF-8" standalone="no"?>
<!DOCTYPE svg PUBLIC "-//W3C//DTD SVG 1.1//EN"
 "http://www.w3.org/Graphics/SVG/1.1/DTD/svg11.dtd">
<!-- Generated by graphviz version 14.1.4 (0)
 -->
<!-- Title: TMapBase::FindByHashChecked Pages: 1 -->
<svg width="387pt" height="86pt"
 viewBox="0.00 0.00 387.00 86.00" xmlns="http://www.w3.org/2000/svg" xmlns:xlink="http://www.w3.org/1999/xlink">
<g id="graph0" class="graph" transform="scale(1 1) rotate(0) translate(4 81.75)">
<title>TMapBase::FindByHashChecked</title>
<!-- Node1 -->
<g id="Node000001" class="node">
<title>Node1</title>
<g id="a_Node000001"><a xlink:title=" ">
<polygon fill="#999999" stroke="#666666" points="171.25,-48.75 0,-48.75 0,-28 171.25,-28 171.25,-48.75"/>
<text xml:space="preserve" text-anchor="middle" x="85.62" y="-35.25" font-family="Helvetica,sans-Serif" font-size="10.00">TMapBase::FindByHashChecked</text>
</a>
</g>
</g>
<!-- Node2 -->
<g id="Node000002" class="node">
<title>Node2</title>
<g id="a_Node000002"><a xlink:href="$classTMapBase.html#a5123dc6d897c163b819faf2ff262b661" xlink:title=" ">
<polygon fill="white" stroke="#666666" points="378.5,-77.75 207.25,-77.75 207.25,-57 378.5,-57 378.5,-77.75"/>
<text xml:space="preserve" text-anchor="middle" x="292.88" y="-64.25" font-family="Helvetica,sans-Serif" font-size="10.00">TMapBase::FindByHashChecked</text>
</a>
</g>
</g>
<!-- Node1&#45;&gt;Node2 -->
<g id="edge1_Node000001_Node000002" class="edge">
<title>Node1&#45;&gt;Node2</title>
<g id="a_edge1_Node000001_Node000002"><a xlink:title=" ">
<path fill="none" stroke="#63b8ff" d="M163.34,-49.21C176.51,-51.07 190.28,-53.02 203.72,-54.92"/>
<polygon fill="#63b8ff" stroke="#63b8ff" points="203.02,-58.35 213.41,-56.29 204,-51.42 203.02,-58.35"/>
</a>
</g>
</g>
<!-- Node3 -->
<g id="Node000003" class="node">
<title>Node3</title>
<g id="a_Node000003"><a xlink:href="$classTMapBase.html#a4056bc554c0b647db6361d6ebb19ecac" xlink:title=" ">
<polygon fill="white" stroke="#666666" points="354.88,-20.75 230.88,-20.75 230.88,0 354.88,0 354.88,-20.75"/>
<text xml:space="preserve" text-anchor="middle" x="292.88" y="-7.25" font-family="Helvetica,sans-Serif" font-size="10.00">TMapBase::TMapBase</text>
</a>
</g>
</g>
<!-- Node1&#45;&gt;Node3 -->
<g id="edge2_Node000001_Node000003" class="edge">
<title>Node1&#45;&gt;Node3</title>
<g id="a_edge2_Node000001_Node000003"><a xlink:title=" ">
<path fill="none" stroke="#63b8ff" d="M166.27,-27.51C183.74,-25.13 202.15,-22.62 219.33,-20.27"/>
<polygon fill="#63b8ff" stroke="#63b8ff" points="219.48,-23.78 228.91,-18.96 218.53,-16.85 219.48,-23.78"/>
</a>
</g>
</g>
<!-- Node3&#45;&gt;Node3 -->
<g id="edge3_Node000003_Node000003" class="edge">
<title>Node3&#45;&gt;Node3</title>
<g id="a_edge3_Node000003_Node000003"><a xlink:title=" ">
<path fill="none" stroke="#63b8ff" d="M259.48,-21.15C246.12,-29.81 257.25,-38.75 292.88,-38.75 312.36,-38.75 324.51,-36.08 329.34,-32.24"/>
<polygon fill="#63b8ff" stroke="#63b8ff" points="332.72,-31.31 326.67,-22.61 325.97,-33.18 332.72,-31.31"/>
</a>
</g>
</g>
</g>
</svg>
