<?xml version="1.0" encoding="UTF-8" standalone="no"?>
<!DOCTYPE svg PUBLIC "-//W3C//DTD SVG 1.1//EN"
 "http://www.w3.org/Graphics/SVG/1.1/DTD/svg11.dtd">
<!-- Generated by graphviz version 14.1.4 (0)
 -->
<!-- Title: USoundAttenuationEditorSettings Pages: 1 -->
<svg width="179pt" height="169pt"
 viewBox="0.00 0.00 179.00 169.00" xmlns="http://www.w3.org/2000/svg" xmlns:xlink="http://www.w3.org/1999/xlink">
<g id="graph0" class="graph" transform="scale(1 1) rotate(0) translate(4 165.25)">
<title>USoundAttenuationEditorSettings</title>
<!-- Node1 -->
<g id="Node000001" class="node">
<title>Node1</title>
<g id="a_Node000001"><a xlink:title=" ">
<polygon fill="#999999" stroke="none" points="170.75,-71 0,-71 0,0 170.75,0 170.75,-71"/>
<text xml:space="preserve" text-anchor="start" x="4" y="-57.25" font-family="Helvetica,sans-Serif" font-size="10.00">USoundAttenuationEditorSettings</text>
<text xml:space="preserve" text-anchor="start" x="11.25" y="-40.5" font-family="Helvetica,sans-Serif" font-size="10.00">+</text>
<text xml:space="preserve" text-anchor="start" x="30.75" y="-40.5" font-family="Helvetica,sans-Serif" font-size="10.00">bEnableReverbSend</text>
<text xml:space="preserve" text-anchor="start" x="11.25" y="-23.75" font-family="Helvetica,sans-Serif" font-size="10.00">+</text>
<text xml:space="preserve" text-anchor="start" x="30.75" y="-23.75" font-family="Helvetica,sans-Serif" font-size="10.00">bEnableSendToAudioLink</text>
<text xml:space="preserve" text-anchor="start" x="82.38" y="-7" font-family="Helvetica,sans-Serif" font-size="10.00"> </text>
<polygon fill="#666666" stroke="#666666" points="0,-52.25 0,-52.25 170.75,-52.25 170.75,-52.25 0,-52.25"/>
<polygon fill="#666666" stroke="#666666" points="0,-18.75 0,-18.75 28.75,-18.75 28.75,-18.75 0,-18.75"/>
<polygon fill="#666666" stroke="#666666" points="28.75,-18.75 28.75,-18.75 170.75,-18.75 170.75,-18.75 28.75,-18.75"/>
<polygon fill="none" stroke="#666666" points="0,0 0,-71 170.75,-71 170.75,0 0,0"/>
</a>
</g>
</g>
<!-- Node2 -->
<g id="Node000002" class="node">
<title>Node2</title>
<g id="a_Node000002"><a xlink:title=" ">
<polygon fill="white" stroke="none" points="108.88,-161.25 61.88,-161.25 61.88,-107 108.88,-107 108.88,-161.25"/>
<text xml:space="preserve" text-anchor="start" x="65.88" y="-147.5" font-family="Helvetica,sans-Serif" font-size="10.00">UObject</text>
<text xml:space="preserve" text-anchor="start" x="82.38" y="-130.75" font-family="Helvetica,sans-Serif" font-size="10.00"> </text>
<text xml:space="preserve" text-anchor="start" x="82.38" y="-114" font-family="Helvetica,sans-Serif" font-size="10.00"> </text>
<polygon fill="#666666" stroke="#666666" points="61.88,-142.5 61.88,-142.5 108.88,-142.5 108.88,-142.5 61.88,-142.5"/>
<polygon fill="#666666" stroke="#666666" points="61.88,-125.75 61.88,-125.75 108.88,-125.75 108.88,-125.75 61.88,-125.75"/>
<polygon fill="none" stroke="#666666" points="61.88,-107 61.88,-161.25 108.88,-161.25 108.88,-107 61.88,-107"/>
</a>
</g>
</g>
<!-- Node2&#45;&gt;Node1 -->
<g id="edge1_Node000001_Node000002" class="edge">
<title>Node2&#45;&gt;Node1</title>
<g id="a_edge1_Node000001_Node000002"><a xlink:title=" ">
<path fill="none" stroke="#63b8ff" d="M85.38,-95.96C85.38,-87.7 85.38,-78.97 85.38,-70.83"/>
<polygon fill="none" stroke="#63b8ff" points="81.88,-95.72 85.38,-105.72 88.88,-95.72 81.88,-95.72"/>
</a>
</g>
</g>
</g>
</svg>
