<?xml version="1.0" encoding="UTF-8" standalone="no"?>
<!DOCTYPE svg PUBLIC "-//W3C//DTD SVG 1.1//EN"
 "http://www.w3.org/Graphics/SVG/1.1/DTD/svg11.dtd">
<!-- Generated by graphviz version 14.1.4 (0)
 -->
<!-- Title: FArchive::IsNetArchive Pages: 1 -->
<svg width="393pt" height="42pt"
 viewBox="0.00 0.00 393.00 42.00" xmlns="http://www.w3.org/2000/svg" xmlns:xlink="http://www.w3.org/1999/xlink">
<g id="graph0" class="graph" transform="scale(1 1) rotate(0) translate(4 37.5)">
<title>FArchive::IsNetArchive</title>
<!-- Node1 -->
<g id="Node000001" class="node">
<title>Node1</title>
<g id="a_Node000001"><a xlink:title=" ">
<polygon fill="#999999" stroke="#666666" points="384.75,-27.12 258.5,-27.12 258.5,-6.38 384.75,-6.38 384.75,-27.12"/>
<text xml:space="preserve" text-anchor="middle" x="321.62" y="-13.62" font-family="Helvetica,sans-Serif" font-size="10.00">FArchive::IsNetArchive</text>
</a>
</g>
</g>
<!-- Node2 -->
<g id="Node000002" class="node">
<title>Node2</title>
<g id="a_Node000002"><a xlink:href="$structTArrayPrivateFriend.html#a1ec2b2386f6c912204e8ebb81d10426d" xlink:title=" ">
<polygon fill="white" stroke="#666666" points="222.5,-33.5 109.75,-33.5 109.75,0 222.5,0 222.5,-33.5"/>
<text xml:space="preserve" text-anchor="start" x="117.75" y="-20" font-family="Helvetica,sans-Serif" font-size="10.00">TArrayPrivateFriend</text>
<text xml:space="preserve" text-anchor="middle" x="166.12" y="-7.25" font-family="Helvetica,sans-Serif" font-size="10.00">::Serialize</text>
</a>
</g>
</g>
<!-- Node1&#45;&gt;Node2 -->
<g id="edge1_Node000001_Node000002" class="edge">
<title>Node1&#45;&gt;Node2</title>
<g id="a_edge1_Node000001_Node000002"><a xlink:title=" ">
<path fill="none" stroke="#63b8ff" d="M246.76,-16.75C238.63,-16.75 230.45,-16.75 222.6,-16.75"/>
<polygon fill="#63b8ff" stroke="#63b8ff" points="246.68,-20.25 256.68,-16.75 246.68,-13.25 246.68,-20.25"/>
</a>
</g>
</g>
<!-- Node3 -->
<g id="Node000003" class="node">
<title>Node3</title>
<g id="a_Node000003"><a xlink:href="$Array_8h.html#a5f5b773e6f2da9854fd4e39ec9c59030" xlink:title=" ">
<polygon fill="white" stroke="#666666" points="73.75,-27.12 0,-27.12 0,-6.38 73.75,-6.38 73.75,-27.12"/>
<text xml:space="preserve" text-anchor="middle" x="36.88" y="-13.62" font-family="Helvetica,sans-Serif" font-size="10.00">operator&lt;&lt;</text>
</a>
</g>
</g>
<!-- Node2&#45;&gt;Node3 -->
<g id="edge2_Node000002_Node000003" class="edge">
<title>Node2&#45;&gt;Node3</title>
<g id="a_edge2_Node000002_Node000003"><a xlink:title=" ">
<path fill="none" stroke="#63b8ff" d="M97.83,-16.75C89.71,-16.75 81.67,-16.75 74.24,-16.75"/>
<polygon fill="#63b8ff" stroke="#63b8ff" points="97.8,-20.25 107.8,-16.75 97.8,-13.25 97.8,-20.25"/>
</a>
</g>
</g>
</g>
</svg>
