<?xml version="1.0" encoding="UTF-8" standalone="no"?>
<!DOCTYPE svg PUBLIC "-//W3C//DTD SVG 1.1//EN"
 "http://www.w3.org/Graphics/SVG/1.1/DTD/svg11.dtd">
<!-- Generated by graphviz version 14.1.4 (0)
 -->
<!-- Title: UE_STRING_CLASS::MidInline Pages: 1 -->
<svg width="764pt" height="117pt"
 viewBox="0.00 0.00 764.00 117.00" xmlns="http://www.w3.org/2000/svg" xmlns:xlink="http://www.w3.org/1999/xlink">
<g id="graph0" class="graph" transform="scale(1 1) rotate(0) translate(4 113.12)">
<title>UE_STRING_CLASS::MidInline</title>
<!-- Node1 -->
<g id="Node000001" class="node">
<title>Node1</title>
<g id="a_Node000001"><a xlink:title=" ">
<polygon fill="#999999" stroke="#666666" points="159.25,-49.12 0,-49.12 0,-28.38 159.25,-28.38 159.25,-49.12"/>
<text xml:space="preserve" text-anchor="middle" x="79.62" y="-35.62" font-family="Helvetica,sans-Serif" font-size="10.00">UE_STRING_CLASS::MidInline</text>
</a>
</g>
</g>
<!-- Node2 -->
<g id="Node000002" class="node">
<title>Node2</title>
<g id="a_Node000002"><a xlink:href="$classUE__STRING__CLASS.html#a6e9dfd7e8834c4d37c46d52882742916" xlink:title=" ">
<polygon fill="white" stroke="#666666" points="354.5,-49.12 195.25,-49.12 195.25,-28.38 354.5,-28.38 354.5,-49.12"/>
<text xml:space="preserve" text-anchor="middle" x="274.88" y="-35.62" font-family="Helvetica,sans-Serif" font-size="10.00">UE_STRING_CLASS::MidInline</text>
</a>
</g>
</g>
<!-- Node1&#45;&gt;Node2 -->
<g id="edge1_Node000001_Node000002" class="edge">
<title>Node1&#45;&gt;Node2</title>
<g id="a_edge1_Node000001_Node000002"><a xlink:title=" ">
<path fill="none" stroke="#63b8ff" d="M159.51,-38.75C167.45,-38.75 175.56,-38.75 183.61,-38.75"/>
<polygon fill="#63b8ff" stroke="#63b8ff" points="183.42,-42.25 193.42,-38.75 183.42,-35.25 183.42,-42.25"/>
</a>
</g>
</g>
<!-- Node3 -->
<g id="Node000003" class="node">
<title>Node3</title>
<g id="a_Node000003"><a xlink:href="$classUE__STRING__CLASS.html#a7bc7451ee329685bdb27652d7593985d" xlink:title=" ">
<polygon fill="white" stroke="#666666" points="552.75,-72.12 392.75,-72.12 392.75,-51.38 552.75,-51.38 552.75,-72.12"/>
<text xml:space="preserve" text-anchor="middle" x="472.75" y="-58.62" font-family="Helvetica,sans-Serif" font-size="10.00">UE_STRING_CLASS::LeftInline</text>
</a>
</g>
</g>
<!-- Node2&#45;&gt;Node3 -->
<g id="edge2_Node000002_Node000003" class="edge">
<title>Node2&#45;&gt;Node3</title>
<g id="a_edge2_Node000002_Node000003"><a xlink:title=" ">
<path fill="none" stroke="#63b8ff" d="M354.98,-48.04C363.54,-49.04 372.31,-50.07 381,-51.09"/>
<polygon fill="#63b8ff" stroke="#63b8ff" points="380.51,-54.56 390.85,-52.25 381.32,-47.61 380.51,-54.56"/>
</a>
</g>
</g>
<!-- Node7 -->
<g id="Node000007" class="node">
<title>Node7</title>
<g id="a_Node000007"><a xlink:href="$classUE__STRING__CLASS.html#ab3d09a7358f940028e8f8313128c45bb" xlink:title=" ">
<polygon fill="white" stroke="#666666" points="555,-33.5 390.5,-33.5 390.5,0 555,0 555,-33.5"/>
<text xml:space="preserve" text-anchor="start" x="398.5" y="-20" font-family="Helvetica,sans-Serif" font-size="10.00">UE_STRING_CLASS::RightChop</text>
<text xml:space="preserve" text-anchor="middle" x="472.75" y="-7.25" font-family="Helvetica,sans-Serif" font-size="10.00">Inline</text>
</a>
</g>
</g>
<!-- Node2&#45;&gt;Node7 -->
<g id="edge6_Node000002_Node000007" class="edge">
<title>Node2&#45;&gt;Node7</title>
<g id="a_edge6_Node000002_Node000007"><a xlink:title=" ">
<path fill="none" stroke="#63b8ff" d="M354.98,-29.87C362.85,-28.98 370.88,-28.08 378.87,-27.18"/>
<polygon fill="#63b8ff" stroke="#63b8ff" points="379.06,-30.68 388.61,-26.09 378.28,-23.73 379.06,-30.68"/>
</a>
</g>
</g>
<!-- Node4 -->
<g id="Node000004" class="node">
<title>Node4</title>
<g id="a_Node000004"><a xlink:href="$structFMath.html#a0d1c6457eaae0e89abc94c008d79a233" xlink:title=" ">
<polygon fill="white" stroke="#666666" points="715.75,-109.12 631.5,-109.12 631.5,-88.38 715.75,-88.38 715.75,-109.12"/>
<text xml:space="preserve" text-anchor="middle" x="673.62" y="-95.62" font-family="Helvetica,sans-Serif" font-size="10.00">FMath::Clamp</text>
</a>
</g>
</g>
<!-- Node3&#45;&gt;Node4 -->
<g id="edge3_Node000003_Node000004" class="edge">
<title>Node3&#45;&gt;Node4</title>
<g id="a_edge3_Node000003_Node000004"><a xlink:title=" ">
<path fill="none" stroke="#63b8ff" d="M532.08,-72.6C559.85,-77.77 592.83,-83.9 619.86,-88.93"/>
<polygon fill="#63b8ff" stroke="#63b8ff" points="619.08,-92.35 629.55,-90.74 620.36,-85.47 619.08,-92.35"/>
</a>
</g>
</g>
<!-- Node5 -->
<g id="Node000005" class="node">
<title>Node5</title>
<g id="a_Node000005"><a xlink:href="$classUE__STRING__CLASS.html#a6f1c67b105cf4c4025d95341f17d127e" xlink:title=" ">
<polygon fill="white" stroke="#666666" points="739.38,-70.12 607.88,-70.12 607.88,-49.38 739.38,-49.38 739.38,-70.12"/>
<text xml:space="preserve" text-anchor="middle" x="673.62" y="-56.62" font-family="Helvetica,sans-Serif" font-size="10.00">UE_STRING_CLASS::Len</text>
</a>
</g>
</g>
<!-- Node3&#45;&gt;Node5 -->
<g id="edge4_Node000003_Node000005" class="edge">
<title>Node3&#45;&gt;Node5</title>
<g id="a_edge4_Node000003_Node000005"><a xlink:title=" ">
<path fill="none" stroke="#63b8ff" d="M553.21,-60.95C567.46,-60.81 582.29,-60.66 596.45,-60.52"/>
<polygon fill="#63b8ff" stroke="#63b8ff" points="596.17,-64.02 606.13,-60.42 596.1,-57.02 596.17,-64.02"/>
</a>
</g>
</g>
<!-- Node6 -->
<g id="Node000006" class="node">
<title>Node6</title>
<g id="a_Node000006"><a xlink:href="$classUE__STRING__CLASS.html#ad7e5533b7118649e3e3e5b16a36b63e5" xlink:title=" ">
<polygon fill="white" stroke="#666666" points="756.25,-30.12 591,-30.12 591,-9.38 756.25,-9.38 756.25,-30.12"/>
<text xml:space="preserve" text-anchor="middle" x="673.62" y="-16.62" font-family="Helvetica,sans-Serif" font-size="10.00">UE_STRING_CLASS::RemoveAt</text>
</a>
</g>
</g>
<!-- Node3&#45;&gt;Node6 -->
<g id="edge5_Node000003_Node000006" class="edge">
<title>Node3&#45;&gt;Node6</title>
<g id="a_edge5_Node000003_Node000006"><a xlink:title=" ">
<path fill="none" stroke="#63b8ff" d="M525.22,-50.88C551.22,-45.39 582.97,-38.68 610.33,-32.91"/>
<polygon fill="#63b8ff" stroke="#63b8ff" points="610.82,-36.38 619.89,-30.89 609.38,-29.53 610.82,-36.38"/>
</a>
</g>
</g>
<!-- Node7&#45;&gt;Node6 -->
<g id="edge7_Node000007_Node000006" class="edge">
<title>Node7&#45;&gt;Node6</title>
<g id="a_edge7_Node000007_Node000006"><a xlink:title=" ">
<path fill="none" stroke="#63b8ff" d="M555.21,-17.98C563.16,-18.1 571.27,-18.22 579.32,-18.34"/>
<polygon fill="#63b8ff" stroke="#63b8ff" points="579.08,-21.84 589.13,-18.49 579.18,-14.84 579.08,-21.84"/>
</a>
</g>
</g>
</g>
</svg>
