<?xml version="1.0" encoding="UTF-8" standalone="no"?>
<!DOCTYPE svg PUBLIC "-//W3C//DTD SVG 1.1//EN"
 "http://www.w3.org/Graphics/SVG/1.1/DTD/svg11.dtd">
<!-- Generated by graphviz version 14.1.4 (0)
 -->
<!-- Title: FCbFieldView::IsObjectId Pages: 1 -->
<svg width="476pt" height="29pt"
 viewBox="0.00 0.00 476.00 29.00" xmlns="http://www.w3.org/2000/svg" xmlns:xlink="http://www.w3.org/1999/xlink">
<g id="graph0" class="graph" transform="scale(1 1) rotate(0) translate(4 24.75)">
<title>FCbFieldView::IsObjectId</title>
<!-- Node1 -->
<g id="Node000001" class="node">
<title>Node1</title>
<g id="a_Node000001"><a xlink:title=" ">
<polygon fill="#999999" stroke="#666666" points="136,-20.75 0,-20.75 0,0 136,0 136,-20.75"/>
<text xml:space="preserve" text-anchor="middle" x="68" y="-7.25" font-family="Helvetica,sans-Serif" font-size="10.00">FCbFieldView::IsObjectId</text>
</a>
</g>
</g>
<!-- Node2 -->
<g id="Node000002" class="node">
<title>Node2</title>
<g id="a_Node000002"><a xlink:href="$classFCbFieldType.html#a145baec9db4711bd5363c09ab29a1a61" xlink:title=" ">
<polygon fill="white" stroke="#666666" points="306.5,-20.75 172,-20.75 172,0 306.5,0 306.5,-20.75"/>
<text xml:space="preserve" text-anchor="middle" x="239.25" y="-7.25" font-family="Helvetica,sans-Serif" font-size="10.00">FCbFieldType::IsObjectId</text>
</a>
</g>
</g>
<!-- Node1&#45;&gt;Node2 -->
<g id="edge1_Node000001_Node000002" class="edge">
<title>Node1&#45;&gt;Node2</title>
<g id="a_edge1_Node000001_Node000002"><a xlink:title=" ">
<path fill="none" stroke="#63b8ff" d="M136.38,-10.38C144.27,-10.38 152.38,-10.38 160.4,-10.38"/>
<polygon fill="#63b8ff" stroke="#63b8ff" points="160.14,-13.88 170.14,-10.38 160.14,-6.88 160.14,-13.88"/>
</a>
</g>
</g>
<!-- Node3 -->
<g id="Node000003" class="node">
<title>Node3</title>
<g id="a_Node000003"><a xlink:href="$classFCbFieldType.html#a00b110adec77562ed38c5b94b6d8b236" xlink:title=" ">
<polygon fill="white" stroke="#666666" points="468,-20.75 342.5,-20.75 342.5,0 468,0 468,-20.75"/>
<text xml:space="preserve" text-anchor="middle" x="405.25" y="-7.25" font-family="Helvetica,sans-Serif" font-size="10.00">FCbFieldType::GetType</text>
</a>
</g>
</g>
<!-- Node2&#45;&gt;Node3 -->
<g id="edge2_Node000002_Node000003" class="edge">
<title>Node2&#45;&gt;Node3</title>
<g id="a_edge2_Node000002_Node000003"><a xlink:title=" ">
<path fill="none" stroke="#63b8ff" d="M306.96,-10.38C314.76,-10.38 322.76,-10.38 330.65,-10.38"/>
<polygon fill="#63b8ff" stroke="#63b8ff" points="330.59,-13.88 340.59,-10.38 330.59,-6.88 330.59,-13.88"/>
</a>
</g>
</g>
</g>
</svg>
