<?xml version="1.0" encoding="UTF-8" standalone="no"?>
<!DOCTYPE svg PUBLIC "-//W3C//DTD SVG 1.1//EN"
 "http://www.w3.org/Graphics/SVG/1.1/DTD/svg11.dtd">
<!-- Generated by graphviz version 14.1.4 (0)
 -->
<!-- Title: FOctreeNodeContext::GetChildContext Pages: 1 -->
<svg width="618pt" height="358pt"
 viewBox="0.00 0.00 618.00 358.00" xmlns="http://www.w3.org/2000/svg" xmlns:xlink="http://www.w3.org/1999/xlink">
<g id="graph0" class="graph" transform="scale(1 1) rotate(0) translate(4 353.5)">
<title>FOctreeNodeContext::GetChildContext</title>
<!-- Node1 -->
<g id="Node000001" class="node">
<title>Node1</title>
<g id="a_Node000001"><a xlink:title=" ">
<polygon fill="#999999" stroke="#666666" points="118,-205.5 0,-205.5 0,-172 118,-172 118,-205.5"/>
<text xml:space="preserve" text-anchor="start" x="8" y="-192" font-family="Helvetica,sans-Serif" font-size="10.00">FOctreeNodeContext</text>
<text xml:space="preserve" text-anchor="middle" x="59" y="-179.25" font-family="Helvetica,sans-Serif" font-size="10.00">::GetChildContext</text>
</a>
</g>
</g>
<!-- Node2 -->
<g id="Node000002" class="node">
<title>Node2</title>
<g id="a_Node000002"><a xlink:href="$classFOctreeNodeContext.html#a81cea534b4675a4bcf325519c0ce8a1f" xlink:title=" ">
<polygon fill="white" stroke="#666666" points="278,-349.5 154,-349.5 154,-316 278,-316 278,-349.5"/>
<text xml:space="preserve" text-anchor="start" x="162" y="-336" font-family="Helvetica,sans-Serif" font-size="10.00">FOctreeNodeContext</text>
<text xml:space="preserve" text-anchor="middle" x="216" y="-323.25" font-family="Helvetica,sans-Serif" font-size="10.00">::FOctreeNodeContext</text>
</a>
</g>
</g>
<!-- Node1&#45;&gt;Node2 -->
<g id="edge1_Node000001_Node000002" class="edge">
<title>Node1&#45;&gt;Node2</title>
<g id="a_edge1_Node000001_Node000002"><a xlink:title=" ">
<path fill="none" stroke="#63b8ff" d="M69.76,-205.81C84.91,-230.94 116.27,-278.04 154,-306.75 155.35,-307.77 156.74,-308.77 158.17,-309.73"/>
<polygon fill="#63b8ff" stroke="#63b8ff" points="156.34,-312.71 166.72,-314.83 159.93,-306.7 156.34,-312.71"/>
</a>
</g>
</g>
<!-- Node3 -->
<g id="Node000003" class="node">
<title>Node3</title>
<g id="a_Node000003"><a xlink:href="$classFOctreeNodeContext.html#a8dff350b3e5a4aea9085732eeb50b71b" xlink:title=" ">
<polygon fill="white" stroke="#666666" points="275,-183.5 157,-183.5 157,-150 275,-150 275,-183.5"/>
<text xml:space="preserve" text-anchor="start" x="165" y="-170" font-family="Helvetica,sans-Serif" font-size="10.00">FOctreeNodeContext</text>
<text xml:space="preserve" text-anchor="middle" x="216" y="-157.25" font-family="Helvetica,sans-Serif" font-size="10.00">::GetChildOffsetVec</text>
</a>
</g>
</g>
<!-- Node1&#45;&gt;Node3 -->
<g id="edge2_Node000001_Node000003" class="edge">
<title>Node1&#45;&gt;Node3</title>
<g id="a_edge2_Node000001_Node000003"><a xlink:title=" ">
<path fill="none" stroke="#63b8ff" d="M118.16,-180.5C126.98,-179.24 136.15,-177.94 145.19,-176.66"/>
<polygon fill="#63b8ff" stroke="#63b8ff" points="145.61,-180.13 155.02,-175.26 144.63,-173.2 145.61,-180.13"/>
</a>
</g>
</g>
<!-- Node4 -->
<g id="Node000004" class="node">
<title>Node4</title>
<g id="a_Node000004"><a xlink:href="$UnrealMathFPU_8h.html#a2f97db83eb4910dec45008fdbb1c59e0" xlink:title=" ">
<polygon fill="white" stroke="#666666" points="430.12,-261.12 315.88,-261.12 315.88,-240.38 430.12,-240.38 430.12,-261.12"/>
<text xml:space="preserve" text-anchor="middle" x="373" y="-247.62" font-family="Helvetica,sans-Serif" font-size="10.00">MakeVectorRegister</text>
</a>
</g>
</g>
<!-- Node1&#45;&gt;Node4 -->
<g id="edge15_Node000001_Node000004" class="edge">
<title>Node1&#45;&gt;Node4</title>
<g id="a_edge15_Node000001_Node000004"><a xlink:title=" ">
<path fill="none" stroke="#63b8ff" d="M118.43,-205.94C130.15,-209.1 142.42,-212.2 154,-214.75 204.04,-225.77 261.2,-235.09 304.44,-241.48"/>
<polygon fill="#63b8ff" stroke="#63b8ff" points="303.78,-244.93 314.18,-242.91 304.79,-238 303.78,-244.93"/>
</a>
</g>
</g>
<!-- Node11 -->
<g id="Node000011" class="node">
<title>Node11</title>
<g id="a_Node000011"><a xlink:href="$UnrealMathFPU_8h.html#a51b91edc146dc12b096b44d0cdc1e732" xlink:title=" ">
<polygon fill="white" stroke="#666666" points="420,-222.12 326,-222.12 326,-201.38 420,-201.38 420,-222.12"/>
<text xml:space="preserve" text-anchor="middle" x="373" y="-208.62" font-family="Helvetica,sans-Serif" font-size="10.00">VectorSetFloat1</text>
</a>
</g>
</g>
<!-- Node1&#45;&gt;Node11 -->
<g id="edge21_Node000001_Node000011" class="edge">
<title>Node1&#45;&gt;Node11</title>
<g id="a_edge21_Node000001_Node000011"><a xlink:title=" ">
<path fill="none" stroke="#63b8ff" d="M118.32,-193.05C174.3,-197.18 258.38,-203.37 314.19,-207.49"/>
<polygon fill="#63b8ff" stroke="#63b8ff" points="313.91,-210.98 324.14,-208.22 314.43,-204 313.91,-210.98"/>
</a>
</g>
</g>
<!-- Node12 -->
<g id="Node000012" class="node">
<title>Node12</title>
<g id="a_Node000012"><a xlink:href="$UnrealMathFPU_8h.html#abf7bfa77d888eda9563159b57f10c55f" xlink:title=" ">
<polygon fill="white" stroke="#666666" points="249.12,-132.12 182.88,-132.12 182.88,-111.38 249.12,-111.38 249.12,-132.12"/>
<text xml:space="preserve" text-anchor="middle" x="216" y="-118.62" font-family="Helvetica,sans-Serif" font-size="10.00">VectorAdd</text>
</a>
</g>
</g>
<!-- Node1&#45;&gt;Node12 -->
<g id="edge16_Node000001_Node000012" class="edge">
<title>Node1&#45;&gt;Node12</title>
<g id="a_edge16_Node000001_Node000012"><a xlink:title=" ">
<path fill="none" stroke="#63b8ff" d="M90.29,-171.62C108.41,-161.79 132.11,-149.67 154,-140.75 159.71,-138.42 165.82,-136.21 171.89,-134.17"/>
<polygon fill="#63b8ff" stroke="#63b8ff" points="172.78,-137.56 181.22,-131.16 170.63,-130.9 172.78,-137.56"/>
</a>
</g>
</g>
<!-- Node13 -->
<g id="Node000013" class="node">
<title>Node13</title>
<g id="a_Node000013"><a xlink:href="$UnrealMathFPU_8h.html#a50d6614d62a81f173e926fe880c5f48a" xlink:title=" ">
<polygon fill="white" stroke="#666666" points="269.75,-298.12 162.25,-298.12 162.25,-277.38 269.75,-277.38 269.75,-298.12"/>
<text xml:space="preserve" text-anchor="middle" x="216" y="-284.62" font-family="Helvetica,sans-Serif" font-size="10.00">VectorLoadAligned</text>
</a>
</g>
</g>
<!-- Node1&#45;&gt;Node13 -->
<g id="edge17_Node000001_Node000013" class="edge">
<title>Node1&#45;&gt;Node13</title>
<g id="a_edge17_Node000001_Node000013"><a xlink:title=" ">
<path fill="none" stroke="#63b8ff" d="M77.88,-205.74C95.96,-222.23 125.26,-247.14 154,-263.75 159.62,-267 165.76,-269.99 171.91,-272.68"/>
<polygon fill="#63b8ff" stroke="#63b8ff" points="170.21,-275.76 180.79,-276.33 172.87,-269.29 170.21,-275.76"/>
</a>
</g>
</g>
<!-- Node15 -->
<g id="Node000015" class="node">
<title>Node15</title>
<g id="a_Node000015"><a xlink:href="$UnrealMathFPU_8h.html#af09862db8f156f4e6a18e7aacde5efd8" xlink:title=" ">
<polygon fill="white" stroke="#666666" points="259.62,-93.12 172.38,-93.12 172.38,-72.38 259.62,-72.38 259.62,-93.12"/>
<text xml:space="preserve" text-anchor="middle" x="216" y="-79.62" font-family="Helvetica,sans-Serif" font-size="10.00">VectorMultiply</text>
</a>
</g>
</g>
<!-- Node1&#45;&gt;Node15 -->
<g id="edge20_Node000001_Node000015" class="edge">
<title>Node1&#45;&gt;Node15</title>
<g id="a_edge20_Node000001_Node000015"><a xlink:title=" ">
<path fill="none" stroke="#63b8ff" d="M74.62,-171.55C91.82,-152.31 122.11,-121.39 154,-102.75 156.98,-101.01 160.14,-99.39 163.38,-97.9"/>
<polygon fill="#63b8ff" stroke="#63b8ff" points="164.61,-101.18 172.52,-94.13 161.94,-94.71 164.61,-101.18"/>
</a>
</g>
</g>
<!-- Node16 -->
<g id="Node000016" class="node">
<title>Node16</title>
<g id="a_Node000016"><a xlink:href="$UnrealMathFPU_8h.html#ac95bca38d084b294227bf707d8f51cfb" xlink:title=" ">
<polygon fill="white" stroke="#666666" points="270.88,-41.12 161.12,-41.12 161.12,-20.38 270.88,-20.38 270.88,-41.12"/>
<text xml:space="preserve" text-anchor="middle" x="216" y="-27.62" font-family="Helvetica,sans-Serif" font-size="10.00">VectorStoreAligned</text>
</a>
</g>
</g>
<!-- Node1&#45;&gt;Node16 -->
<g id="edge22_Node000001_Node000016" class="edge">
<title>Node1&#45;&gt;Node16</title>
<g id="a_edge22_Node000001_Node000016"><a xlink:title=" ">
<path fill="none" stroke="#63b8ff" d="M69.64,-171.54C84.84,-145.57 116.55,-96 154,-63.75 161.54,-57.26 170.57,-51.51 179.34,-46.72"/>
<polygon fill="#63b8ff" stroke="#63b8ff" points="180.78,-49.91 188.07,-42.22 177.58,-43.69 180.78,-49.91"/>
</a>
</g>
</g>
<!-- Node3&#45;&gt;Node4 -->
<g id="edge3_Node000003_Node000004" class="edge">
<title>Node3&#45;&gt;Node4</title>
<g id="a_edge3_Node000003_Node000004"><a xlink:title=" ">
<path fill="none" stroke="#63b8ff" d="M239.54,-183.98C258.6,-197.97 287.03,-217.47 314,-230.75 317.71,-232.58 321.62,-234.31 325.59,-235.93"/>
<polygon fill="#63b8ff" stroke="#63b8ff" points="324.15,-239.12 334.74,-239.43 326.65,-232.59 324.15,-239.12"/>
</a>
</g>
</g>
<!-- Node6 -->
<g id="Node000006" class="node">
<title>Node6</title>
<g id="a_Node000006"><a xlink:href="$UnrealMathFPU_8h.html#a942304590e6c13e02549a58b3465124e" xlink:title=" ">
<polygon fill="white" stroke="#666666" points="412.5,-66.12 333.5,-66.12 333.5,-45.38 412.5,-45.38 412.5,-66.12"/>
<text xml:space="preserve" text-anchor="middle" x="373" y="-52.62" font-family="Helvetica,sans-Serif" font-size="10.00">VectorIntAnd</text>
</a>
</g>
</g>
<!-- Node3&#45;&gt;Node6 -->
<g id="edge5_Node000003_Node000006" class="edge">
<title>Node3&#45;&gt;Node6</title>
<g id="a_edge5_Node000003_Node000006"><a xlink:title=" ">
<path fill="none" stroke="#63b8ff" d="M265.78,-149.59C270.16,-147 274.32,-144.07 278,-140.75 302.52,-118.63 288.71,-96.99 314,-75.75 316.69,-73.49 319.64,-71.49 322.75,-69.7"/>
<polygon fill="#63b8ff" stroke="#63b8ff" points="324.22,-72.88 331.71,-65.39 321.18,-66.57 324.22,-72.88"/>
</a>
</g>
</g>
<!-- Node8 -->
<g id="Node000008" class="node">
<title>Node8</title>
<g id="a_Node000008"><a xlink:href="$UnrealMathFPU_8h.html#a4747a02de4af1cb281045b7dedaae682" xlink:title=" ">
<polygon fill="white" stroke="#666666" points="432,-144.12 314,-144.12 314,-123.38 432,-123.38 432,-144.12"/>
<text xml:space="preserve" text-anchor="middle" x="373" y="-130.62" font-family="Helvetica,sans-Serif" font-size="10.00">VectorIntCompareEQ</text>
</a>
</g>
</g>
<!-- Node3&#45;&gt;Node8 -->
<g id="edge7_Node000003_Node000008" class="edge">
<title>Node3&#45;&gt;Node8</title>
<g id="a_edge7_Node000003_Node000008"><a xlink:title=" ">
<path fill="none" stroke="#63b8ff" d="M275.16,-154.37C286.61,-151.93 298.67,-149.36 310.25,-146.9"/>
<polygon fill="#63b8ff" stroke="#63b8ff" points="310.62,-150.4 319.67,-144.89 309.16,-143.55 310.62,-150.4"/>
</a>
</g>
</g>
<!-- Node9 -->
<g id="Node000009" class="node">
<title>Node9</title>
<g id="a_Node000009"><a xlink:href="$UnrealMathFPU_8h.html#a6ce60699ab4c8ba318bde27d0432d062" xlink:title=" ">
<polygon fill="white" stroke="#666666" points="417.75,-105.12 328.25,-105.12 328.25,-84.38 417.75,-84.38 417.75,-105.12"/>
<text xml:space="preserve" text-anchor="middle" x="373" y="-91.62" font-family="Helvetica,sans-Serif" font-size="10.00">VectorIntLoad1</text>
</a>
</g>
</g>
<!-- Node3&#45;&gt;Node9 -->
<g id="edge9_Node000003_Node000009" class="edge">
<title>Node3&#45;&gt;Node9</title>
<g id="a_edge9_Node000003_Node000009"><a xlink:title=" ">
<path fill="none" stroke="#63b8ff" d="M260.57,-149.59C266.53,-146.84 272.49,-143.86 278,-140.75 295.18,-131.04 296.48,-123.84 314,-114.75 317.46,-112.95 321.12,-111.26 324.84,-109.68"/>
<polygon fill="#63b8ff" stroke="#63b8ff" points="325.99,-112.99 334.02,-106.08 323.43,-106.48 325.99,-112.99"/>
</a>
</g>
</g>
<!-- Node10 -->
<g id="Node000010" class="node">
<title>Node10</title>
<g id="a_Node000010"><a xlink:href="$UnrealMathFPU_8h.html#a1fb34ce64d80111b789befcf54173f39" xlink:title=" ">
<polygon fill="white" stroke="#666666" points="411.75,-183.12 334.25,-183.12 334.25,-162.38 411.75,-162.38 411.75,-183.12"/>
<text xml:space="preserve" text-anchor="middle" x="373" y="-169.62" font-family="Helvetica,sans-Serif" font-size="10.00">VectorSelect</text>
</a>
</g>
</g>
<!-- Node3&#45;&gt;Node10 -->
<g id="edge11_Node000003_Node000010" class="edge">
<title>Node3&#45;&gt;Node10</title>
<g id="a_edge11_Node000003_Node000010"><a xlink:title=" ">
<path fill="none" stroke="#63b8ff" d="M275.16,-169C290.9,-169.61 307.78,-170.26 322.97,-170.85"/>
<polygon fill="#63b8ff" stroke="#63b8ff" points="322.57,-174.34 332.7,-171.23 322.84,-167.34 322.57,-174.34"/>
</a>
</g>
</g>
<!-- Node3&#45;&gt;Node11 -->
<g id="edge13_Node000003_Node000011" class="edge">
<title>Node3&#45;&gt;Node11</title>
<g id="a_edge13_Node000003_Node000011"><a xlink:title=" ">
<path fill="none" stroke="#63b8ff" d="M275.16,-183.63C291.19,-188.29 308.41,-193.29 323.82,-197.76"/>
<polygon fill="#63b8ff" stroke="#63b8ff" points="322.64,-201.06 333.22,-200.49 324.59,-194.34 322.64,-201.06"/>
</a>
</g>
</g>
<!-- Node5 -->
<g id="Node000005" class="node">
<title>Node5</title>
<g id="a_Node000005"><a xlink:href="$UnrealMathFPU_8h.html#a0455131f2d8e67175bd5edfbd9f5acc9" xlink:title=" ">
<polygon fill="white" stroke="#666666" points="608.5,-241.12 469.5,-241.12 469.5,-220.38 608.5,-220.38 608.5,-241.12"/>
<text xml:space="preserve" text-anchor="middle" x="539" y="-227.62" font-family="Helvetica,sans-Serif" font-size="10.00">MakeVectorRegisterFloat</text>
</a>
</g>
</g>
<!-- Node4&#45;&gt;Node5 -->
<g id="edge4_Node000004_Node000005" class="edge">
<title>Node4&#45;&gt;Node5</title>
<g id="a_edge4_Node000004_Node000005"><a xlink:title=" ">
<path fill="none" stroke="#63b8ff" d="M430.44,-243.87C439.33,-242.78 448.67,-241.64 457.97,-240.51"/>
<polygon fill="#63b8ff" stroke="#63b8ff" points="458.27,-244 467.77,-239.31 457.42,-237.05 458.27,-244"/>
</a>
</g>
</g>
<!-- Node7 -->
<g id="Node000007" class="node">
<title>Node7</title>
<g id="a_Node000007"><a xlink:href="$UnrealMathFPU_8h.html#a31b5ba09cd6eefa88c5afd030adbbe90" xlink:title=" ">
<polygon fill="white" stroke="#666666" points="602.5,-105.12 475.5,-105.12 475.5,-84.38 602.5,-84.38 602.5,-105.12"/>
<text xml:space="preserve" text-anchor="middle" x="539" y="-91.62" font-family="Helvetica,sans-Serif" font-size="10.00">MakeVectorRegisterInt</text>
</a>
</g>
</g>
<!-- Node6&#45;&gt;Node7 -->
<g id="edge6_Node000006_Node000007" class="edge">
<title>Node6&#45;&gt;Node7</title>
<g id="a_edge6_Node000006_Node000007"><a xlink:title=" ">
<path fill="none" stroke="#63b8ff" d="M412.87,-64.99C433.29,-69.85 458.69,-75.89 481.27,-81.26"/>
<polygon fill="#63b8ff" stroke="#63b8ff" points="480.42,-84.66 490.96,-83.56 482.04,-77.85 480.42,-84.66"/>
</a>
</g>
</g>
<!-- Node8&#45;&gt;Node7 -->
<g id="edge8_Node000008_Node000007" class="edge">
<title>Node8&#45;&gt;Node7</title>
<g id="a_edge8_Node000008_Node000007"><a xlink:title=" ">
<path fill="none" stroke="#63b8ff" d="M419.68,-122.89C438.8,-118.34 461.21,-113.01 481.35,-108.22"/>
<polygon fill="#63b8ff" stroke="#63b8ff" points="481.89,-111.69 490.81,-105.97 480.27,-104.88 481.89,-111.69"/>
</a>
</g>
</g>
<!-- Node9&#45;&gt;Node7 -->
<g id="edge10_Node000009_Node000007" class="edge">
<title>Node9&#45;&gt;Node7</title>
<g id="a_edge10_Node000009_Node000007"><a xlink:title=" ">
<path fill="none" stroke="#63b8ff" d="M417.95,-94.75C432.07,-94.75 448.13,-94.75 463.81,-94.75"/>
<polygon fill="#63b8ff" stroke="#63b8ff" points="463.61,-98.25 473.61,-94.75 463.61,-91.25 463.61,-98.25"/>
</a>
</g>
</g>
<!-- Node10&#45;&gt;Node5 -->
<g id="edge12_Node000010_Node000005" class="edge">
<title>Node10&#45;&gt;Node5</title>
<g id="a_edge12_Node000010_Node000005"><a xlink:title=" ">
<path fill="none" stroke="#63b8ff" d="M405.63,-183.58C414.2,-186.53 423.46,-189.75 432,-192.75 453.68,-200.38 477.81,-209.01 497.56,-216.12"/>
<polygon fill="#63b8ff" stroke="#63b8ff" points="496.32,-219.39 506.91,-219.49 498.69,-212.81 496.32,-219.39"/>
</a>
</g>
</g>
<!-- Node11&#45;&gt;Node5 -->
<g id="edge14_Node000011_Node000005" class="edge">
<title>Node11&#45;&gt;Node5</title>
<g id="a_edge14_Node000011_Node000005"><a xlink:title=" ">
<path fill="none" stroke="#63b8ff" d="M420.12,-217.09C431.92,-218.46 444.95,-219.97 457.92,-221.47"/>
<polygon fill="#63b8ff" stroke="#63b8ff" points="457.42,-224.94 467.76,-222.61 458.23,-217.98 457.42,-224.94"/>
</a>
</g>
</g>
<!-- Node14 -->
<g id="Node000014" class="node">
<title>Node14</title>
<g id="a_Node000014"><a xlink:href="$UnrealMathFPU_8h.html#a7b647256a2fdfa30b641b9fc152408d0" xlink:title=" ">
<polygon fill="white" stroke="#666666" points="408.38,-300.12 337.62,-300.12 337.62,-279.38 408.38,-279.38 408.38,-300.12"/>
<text xml:space="preserve" text-anchor="middle" x="373" y="-286.62" font-family="Helvetica,sans-Serif" font-size="10.00">VectorLoad</text>
</a>
</g>
</g>
<!-- Node13&#45;&gt;Node14 -->
<g id="edge18_Node000013_Node000014" class="edge">
<title>Node13&#45;&gt;Node14</title>
<g id="a_edge18_Node000013_Node000014"><a xlink:title=" ">
<path fill="none" stroke="#63b8ff" d="M269.91,-288.43C288.09,-288.67 308.3,-288.93 325.9,-289.16"/>
<polygon fill="#63b8ff" stroke="#63b8ff" points="325.77,-292.65 335.81,-289.28 325.86,-285.65 325.77,-292.65"/>
</a>
</g>
</g>
<!-- Node14&#45;&gt;Node5 -->
<g id="edge19_Node000014_Node000005" class="edge">
<title>Node14&#45;&gt;Node5</title>
<g id="a_edge19_Node000014_Node000005"><a xlink:title=" ">
<path fill="none" stroke="#63b8ff" d="M405.65,-278.97C414.21,-276.01 423.47,-272.79 432,-269.75 454.13,-261.86 478.76,-252.82 498.71,-245.42"/>
<polygon fill="#63b8ff" stroke="#63b8ff" points="499.69,-248.79 507.85,-242.03 497.25,-242.23 499.69,-248.79"/>
</a>
</g>
</g>
<!-- Node17 -->
<g id="Node000017" class="node">
<title>Node17</title>
<g id="a_Node000017"><a xlink:href="$structFMemory.html#a6bfb397a8ea2e226f6fe27664c9880ca" xlink:title=" ">
<polygon fill="white" stroke="#666666" points="427.88,-27.12 318.12,-27.12 318.12,-6.38 427.88,-6.38 427.88,-27.12"/>
<text xml:space="preserve" text-anchor="middle" x="373" y="-13.62" font-family="Helvetica,sans-Serif" font-size="10.00">FMemory::Memcpy</text>
</a>
</g>
</g>
<!-- Node16&#45;&gt;Node17 -->
<g id="edge23_Node000016_Node000017" class="edge">
<title>Node16&#45;&gt;Node17</title>
<g id="a_edge23_Node000016_Node000017"><a xlink:title=" ">
<path fill="none" stroke="#63b8ff" d="M271.21,-25.85C282.66,-24.82 294.85,-23.72 306.66,-22.65"/>
<polygon fill="#63b8ff" stroke="#63b8ff" points="306.67,-26.17 316.31,-21.78 306.04,-19.19 306.67,-26.17"/>
</a>
</g>
</g>
<!-- Node18 -->
<g id="Node000018" class="node">
<title>Node18</title>
<g id="a_Node000018"><a xlink:href="$structFGenericPlatformMemory.html#a039ab8ec901d143a5bee24861dbc1a4b" xlink:title=" ">
<polygon fill="white" stroke="#666666" points="610,-33.5 468,-33.5 468,0 610,0 610,-33.5"/>
<text xml:space="preserve" text-anchor="start" x="476" y="-20" font-family="Helvetica,sans-Serif" font-size="10.00">FGenericPlatformMemory</text>
<text xml:space="preserve" text-anchor="middle" x="539" y="-7.25" font-family="Helvetica,sans-Serif" font-size="10.00">::Memcpy</text>
</a>
</g>
</g>
<!-- Node17&#45;&gt;Node18 -->
<g id="edge24_Node000017_Node000018" class="edge">
<title>Node17&#45;&gt;Node18</title>
<g id="a_edge24_Node000017_Node000018"><a xlink:title=" ">
<path fill="none" stroke="#63b8ff" d="M428.15,-16.75C437.11,-16.75 446.57,-16.75 456.02,-16.75"/>
<polygon fill="#63b8ff" stroke="#63b8ff" points="456.01,-20.25 466.01,-16.75 456.01,-13.25 456.01,-20.25"/>
</a>
</g>
</g>
</g>
</svg>
