<?xml version="1.0" encoding="UTF-8" standalone="no"?>
<!DOCTYPE svg PUBLIC "-//W3C//DTD SVG 1.1//EN"
 "http://www.w3.org/Graphics/SVG/1.1/DTD/svg11.dtd">
<!-- Generated by graphviz version 14.1.4 (0)
 -->
<!-- Title: UDistributionVectorParameterBase Pages: 1 -->
<svg width="193pt" height="943pt"
 viewBox="0.00 0.00 193.00 943.00" xmlns="http://www.w3.org/2000/svg" xmlns:xlink="http://www.w3.org/1999/xlink">
<g id="graph0" class="graph" transform="scale(1 1) rotate(0) translate(4 938.5)">
<title>UDistributionVectorParameterBase</title>
<!-- Node1 -->
<g id="Node000001" class="node">
<title>Node1</title>
<g id="a_Node000001"><a xlink:title=" ">
<polygon fill="#999999" stroke="none" points="179,-171.5 0,-171.5 0,0 179,0 179,-171.5"/>
<text xml:space="preserve" text-anchor="start" x="4" y="-157.75" font-family="Helvetica,sans-Serif" font-size="10.00">UDistributionVectorParameterBase</text>
<text xml:space="preserve" text-anchor="start" x="23.81" y="-141" font-family="Helvetica,sans-Serif" font-size="10.00">&#45;</text>
<text xml:space="preserve" text-anchor="start" x="51.38" y="-141" font-family="Helvetica,sans-Serif" font-size="10.00">ParameterName</text>
<text xml:space="preserve" text-anchor="start" x="23.81" y="-124.25" font-family="Helvetica,sans-Serif" font-size="10.00">&#45;</text>
<text xml:space="preserve" text-anchor="start" x="51.38" y="-124.25" font-family="Helvetica,sans-Serif" font-size="10.00">MinInput</text>
<text xml:space="preserve" text-anchor="start" x="23.81" y="-107.5" font-family="Helvetica,sans-Serif" font-size="10.00">&#45;</text>
<text xml:space="preserve" text-anchor="start" x="51.38" y="-107.5" font-family="Helvetica,sans-Serif" font-size="10.00">MaxInput</text>
<text xml:space="preserve" text-anchor="start" x="23.81" y="-90.75" font-family="Helvetica,sans-Serif" font-size="10.00">&#45;</text>
<text xml:space="preserve" text-anchor="start" x="51.38" y="-90.75" font-family="Helvetica,sans-Serif" font-size="10.00">MinOutput</text>
<text xml:space="preserve" text-anchor="start" x="23.81" y="-74" font-family="Helvetica,sans-Serif" font-size="10.00">&#45;</text>
<text xml:space="preserve" text-anchor="start" x="51.38" y="-74" font-family="Helvetica,sans-Serif" font-size="10.00">MaxOutput</text>
<text xml:space="preserve" text-anchor="start" x="23.81" y="-57.25" font-family="Helvetica,sans-Serif" font-size="10.00">&#45;</text>
<text xml:space="preserve" text-anchor="start" x="51.38" y="-57.25" font-family="Helvetica,sans-Serif" font-size="10.00">ParamModes</text>
<text xml:space="preserve" text-anchor="start" x="23.81" y="-40.5" font-family="Helvetica,sans-Serif" font-size="10.00">&#45;</text>
<text xml:space="preserve" text-anchor="start" x="51.38" y="-40.5" font-family="Helvetica,sans-Serif" font-size="10.00">GetValue()</text>
<text xml:space="preserve" text-anchor="start" x="23.81" y="-23.75" font-family="Helvetica,sans-Serif" font-size="10.00">&#45;</text>
<text xml:space="preserve" text-anchor="start" x="51.38" y="-23.75" font-family="Helvetica,sans-Serif" font-size="10.00">CanBeBaked()</text>
<text xml:space="preserve" text-anchor="start" x="23.81" y="-7" font-family="Helvetica,sans-Serif" font-size="10.00">&#45;</text>
<text xml:space="preserve" text-anchor="start" x="51.38" y="-7" font-family="Helvetica,sans-Serif" font-size="10.00">GetParamValue()</text>
<polygon fill="#666666" stroke="#666666" points="0,-152.75 0,-152.75 179,-152.75 179,-152.75 0,-152.75"/>
<polygon fill="#666666" stroke="#666666" points="0,-52.25 0,-52.25 49.38,-52.25 49.38,-52.25 0,-52.25"/>
<polygon fill="#666666" stroke="#666666" points="49.38,-52.25 49.38,-52.25 179,-52.25 179,-52.25 49.38,-52.25"/>
<polygon fill="none" stroke="#666666" points="0,0 0,-171.5 179,-171.5 179,0 0,0"/>
</a>
</g>
</g>
<!-- Node2 -->
<g id="Node000002" class="node">
<title>Node2</title>
<g id="a_Node000002"><a xlink:href="classUDistributionVectorConstant.html" target="_top" xlink:title=" ">
<polygon fill="white" stroke="none" points="163.25,-462.75 15.75,-462.75 15.75,-207.5 163.25,-207.5 163.25,-462.75"/>
<text xml:space="preserve" text-anchor="start" x="19.75" y="-449" font-family="Helvetica,sans-Serif" font-size="10.00">UDistributionVectorConstant</text>
<text xml:space="preserve" text-anchor="start" x="20.44" y="-432.25" font-family="Helvetica,sans-Serif" font-size="10.00">&#45;</text>
<text xml:space="preserve" text-anchor="start" x="28.88" y="-432.25" font-family="Helvetica,sans-Serif" font-size="10.00">Constant</text>
<text xml:space="preserve" text-anchor="start" x="20.44" y="-415.5" font-family="Helvetica,sans-Serif" font-size="10.00">&#45;</text>
<text xml:space="preserve" text-anchor="start" x="28.88" y="-415.5" font-family="Helvetica,sans-Serif" font-size="10.00">bLockAxes</text>
<text xml:space="preserve" text-anchor="start" x="20.44" y="-398.75" font-family="Helvetica,sans-Serif" font-size="10.00">&#45;</text>
<text xml:space="preserve" text-anchor="start" x="28.88" y="-398.75" font-family="Helvetica,sans-Serif" font-size="10.00">LockedAxes</text>
<text xml:space="preserve" text-anchor="start" x="20.44" y="-382" font-family="Helvetica,sans-Serif" font-size="10.00">&#45;</text>
<text xml:space="preserve" text-anchor="start" x="28.88" y="-382" font-family="Helvetica,sans-Serif" font-size="10.00">GetValue()</text>
<text xml:space="preserve" text-anchor="start" x="20.44" y="-365.25" font-family="Helvetica,sans-Serif" font-size="10.00">&#45;</text>
<text xml:space="preserve" text-anchor="start" x="28.88" y="-365.25" font-family="Helvetica,sans-Serif" font-size="10.00">GetRange()</text>
<text xml:space="preserve" text-anchor="start" x="20.44" y="-348.5" font-family="Helvetica,sans-Serif" font-size="10.00">&#45;</text>
<text xml:space="preserve" text-anchor="start" x="28.88" y="-348.5" font-family="Helvetica,sans-Serif" font-size="10.00">PostInitProperties()</text>
<text xml:space="preserve" text-anchor="start" x="20.44" y="-331.75" font-family="Helvetica,sans-Serif" font-size="10.00">&#45;</text>
<text xml:space="preserve" text-anchor="start" x="28.88" y="-331.75" font-family="Helvetica,sans-Serif" font-size="10.00">PostLoad()</text>
<text xml:space="preserve" text-anchor="start" x="20.44" y="-315" font-family="Helvetica,sans-Serif" font-size="10.00">&#45;</text>
<text xml:space="preserve" text-anchor="start" x="28.88" y="-315" font-family="Helvetica,sans-Serif" font-size="10.00">GetNumKeys()</text>
<text xml:space="preserve" text-anchor="start" x="20.44" y="-298.25" font-family="Helvetica,sans-Serif" font-size="10.00">&#45;</text>
<text xml:space="preserve" text-anchor="start" x="28.88" y="-298.25" font-family="Helvetica,sans-Serif" font-size="10.00">GetNumSubCurves()</text>
<text xml:space="preserve" text-anchor="start" x="20.44" y="-281.5" font-family="Helvetica,sans-Serif" font-size="10.00">&#45;</text>
<text xml:space="preserve" text-anchor="start" x="28.88" y="-281.5" font-family="Helvetica,sans-Serif" font-size="10.00">GetSubCurveButtonColor()</text>
<text xml:space="preserve" text-anchor="start" x="20.44" y="-264.75" font-family="Helvetica,sans-Serif" font-size="10.00">&#45;</text>
<text xml:space="preserve" text-anchor="start" x="28.88" y="-264.75" font-family="Helvetica,sans-Serif" font-size="10.00">GetKeyIn()</text>
<text xml:space="preserve" text-anchor="start" x="20.44" y="-248" font-family="Helvetica,sans-Serif" font-size="10.00">&#45;</text>
<text xml:space="preserve" text-anchor="start" x="28.88" y="-248" font-family="Helvetica,sans-Serif" font-size="10.00">GetKeyOut()</text>
<text xml:space="preserve" text-anchor="start" x="20.44" y="-231.25" font-family="Helvetica,sans-Serif" font-size="10.00">&#45;</text>
<text xml:space="preserve" text-anchor="start" x="28.88" y="-231.25" font-family="Helvetica,sans-Serif" font-size="10.00">GetKeyColor()</text>
<text xml:space="preserve" text-anchor="start" x="28.88" y="-214.5" font-family="Helvetica,sans-Serif" font-size="10.00">and 11 more...</text>
<polygon fill="#666666" stroke="#666666" points="15.75,-444 15.75,-444 163.25,-444 163.25,-444 15.75,-444"/>
<polygon fill="#666666" stroke="#666666" points="15.75,-393.75 15.75,-393.75 26.88,-393.75 26.88,-393.75 15.75,-393.75"/>
<polygon fill="#666666" stroke="#666666" points="26.88,-393.75 26.88,-393.75 163.25,-393.75 163.25,-393.75 26.88,-393.75"/>
<polygon fill="none" stroke="#666666" points="15.75,-207.5 15.75,-462.75 163.25,-462.75 163.25,-207.5 15.75,-207.5"/>
</a>
</g>
</g>
<!-- Node2&#45;&gt;Node1 -->
<g id="edge1_Node000001_Node000002" class="edge">
<title>Node2&#45;&gt;Node1</title>
<g id="a_edge1_Node000001_Node000002"><a xlink:title=" ">
<path fill="none" stroke="#63b8ff" d="M89.5,-196.09C89.5,-187.72 89.5,-179.44 89.5,-171.4"/>
<polygon fill="none" stroke="#63b8ff" points="86,-196.03 89.5,-206.03 93,-196.03 86,-196.03"/>
</a>
</g>
</g>
<!-- Node3 -->
<g id="Node000003" class="node">
<title>Node3</title>
<g id="a_Node000003"><a xlink:href="classUDistributionVector.html" target="_top" xlink:title=" ">
<polygon fill="white" stroke="none" points="157,-754 22,-754 22,-498.75 157,-498.75 157,-754"/>
<text xml:space="preserve" text-anchor="start" x="41.5" y="-740.25" font-family="Helvetica,sans-Serif" font-size="10.00">UDistributionVector</text>
<text xml:space="preserve" text-anchor="start" x="26" y="-723.5" font-family="Helvetica,sans-Serif" font-size="10.00">#</text>
<text xml:space="preserve" text-anchor="start" x="38.25" y="-723.5" font-family="Helvetica,sans-Serif" font-size="10.00">bBakedDataSuccesfully</text>
<text xml:space="preserve" text-anchor="start" x="28.25" y="-706.75" font-family="Helvetica,sans-Serif" font-size="10.00">&#45;</text>
<text xml:space="preserve" text-anchor="start" x="38.25" y="-706.75" font-family="Helvetica,sans-Serif" font-size="10.00">bCanBeBaked</text>
<text xml:space="preserve" text-anchor="start" x="28.25" y="-690" font-family="Helvetica,sans-Serif" font-size="10.00">&#45;</text>
<text xml:space="preserve" text-anchor="start" x="38.25" y="-690" font-family="Helvetica,sans-Serif" font-size="10.00">bIsDirty</text>
<text xml:space="preserve" text-anchor="start" x="26" y="-673.25" font-family="Helvetica,sans-Serif" font-size="10.00">+</text>
<text xml:space="preserve" text-anchor="start" x="38.25" y="-673.25" font-family="Helvetica,sans-Serif" font-size="10.00">GetVectorValue()</text>
<text xml:space="preserve" text-anchor="start" x="26" y="-656.5" font-family="Helvetica,sans-Serif" font-size="10.00">+</text>
<text xml:space="preserve" text-anchor="start" x="38.25" y="-656.5" font-family="Helvetica,sans-Serif" font-size="10.00">UDistributionVector()</text>
<text xml:space="preserve" text-anchor="start" x="26" y="-639.75" font-family="Helvetica,sans-Serif" font-size="10.00">+</text>
<text xml:space="preserve" text-anchor="start" x="38.25" y="-639.75" font-family="Helvetica,sans-Serif" font-size="10.00">GetOperation()</text>
<text xml:space="preserve" text-anchor="start" x="26" y="-623" font-family="Helvetica,sans-Serif" font-size="10.00">+</text>
<text xml:space="preserve" text-anchor="start" x="38.25" y="-623" font-family="Helvetica,sans-Serif" font-size="10.00">GetLockFlag()</text>
<text xml:space="preserve" text-anchor="start" x="26" y="-606.25" font-family="Helvetica,sans-Serif" font-size="10.00">+</text>
<text xml:space="preserve" text-anchor="start" x="38.25" y="-606.25" font-family="Helvetica,sans-Serif" font-size="10.00">InitializeRawEntry()</text>
<text xml:space="preserve" text-anchor="start" x="26" y="-589.5" font-family="Helvetica,sans-Serif" font-size="10.00">+</text>
<text xml:space="preserve" text-anchor="start" x="38.25" y="-589.5" font-family="Helvetica,sans-Serif" font-size="10.00">GetValue()</text>
<text xml:space="preserve" text-anchor="start" x="26" y="-572.75" font-family="Helvetica,sans-Serif" font-size="10.00">+</text>
<text xml:space="preserve" text-anchor="start" x="38.25" y="-572.75" font-family="Helvetica,sans-Serif" font-size="10.00">GetInRange()</text>
<text xml:space="preserve" text-anchor="start" x="26" y="-556" font-family="Helvetica,sans-Serif" font-size="10.00">+</text>
<text xml:space="preserve" text-anchor="start" x="38.25" y="-556" font-family="Helvetica,sans-Serif" font-size="10.00">GetOutRange()</text>
<text xml:space="preserve" text-anchor="start" x="26" y="-539.25" font-family="Helvetica,sans-Serif" font-size="10.00">+</text>
<text xml:space="preserve" text-anchor="start" x="38.25" y="-539.25" font-family="Helvetica,sans-Serif" font-size="10.00">GetRange()</text>
<text xml:space="preserve" text-anchor="start" x="26" y="-522.5" font-family="Helvetica,sans-Serif" font-size="10.00">+</text>
<text xml:space="preserve" text-anchor="start" x="38.25" y="-522.5" font-family="Helvetica,sans-Serif" font-size="10.00">CanBeBaked()</text>
<text xml:space="preserve" text-anchor="start" x="38.25" y="-505.75" font-family="Helvetica,sans-Serif" font-size="10.00">and 7 more...</text>
<polygon fill="#666666" stroke="#666666" points="22,-735.25 22,-735.25 157,-735.25 157,-735.25 22,-735.25"/>
<polygon fill="#666666" stroke="#666666" points="22,-685 22,-685 36.25,-685 36.25,-685 22,-685"/>
<polygon fill="#666666" stroke="#666666" points="36.25,-685 36.25,-685 157,-685 157,-685 36.25,-685"/>
<polygon fill="none" stroke="#666666" points="22,-498.75 22,-754 157,-754 157,-498.75 22,-498.75"/>
</a>
</g>
</g>
<!-- Node3&#45;&gt;Node2 -->
<g id="edge2_Node000002_Node000003" class="edge">
<title>Node3&#45;&gt;Node2</title>
<g id="a_edge2_Node000002_Node000003"><a xlink:title=" ">
<path fill="none" stroke="#63b8ff" d="M89.5,-487.63C89.5,-479.32 89.5,-470.98 89.5,-462.73"/>
<polygon fill="none" stroke="#63b8ff" points="86,-487.41 89.5,-497.41 93,-487.41 86,-487.41"/>
</a>
</g>
</g>
<!-- Node4 -->
<g id="Node000004" class="node">
<title>Node4</title>
<g id="a_Node000004"><a xlink:href="classUDistribution.html" target="_top" xlink:title=" ">
<polygon fill="white" stroke="none" points="155.12,-844.25 23.88,-844.25 23.88,-790 155.12,-790 155.12,-844.25"/>
<text xml:space="preserve" text-anchor="start" x="57.25" y="-830.5" font-family="Helvetica,sans-Serif" font-size="10.00">UDistribution</text>
<text xml:space="preserve" text-anchor="start" x="27.88" y="-813.75" font-family="Helvetica,sans-Serif" font-size="10.00">&#45;</text>
<text xml:space="preserve" text-anchor="start" x="35.62" y="-813.75" font-family="Helvetica,sans-Serif" font-size="10.00">DefaultValue</text>
<text xml:space="preserve" text-anchor="start" x="27.88" y="-797" font-family="Helvetica,sans-Serif" font-size="10.00">&#45;</text>
<text xml:space="preserve" text-anchor="start" x="35.62" y="-797" font-family="Helvetica,sans-Serif" font-size="10.00">IsPostLoadThreadSafe()</text>
<polygon fill="#666666" stroke="#666666" points="23.88,-825.5 23.88,-825.5 155.12,-825.5 155.12,-825.5 23.88,-825.5"/>
<polygon fill="#666666" stroke="#666666" points="23.88,-808.75 23.88,-808.75 33.62,-808.75 33.62,-808.75 23.88,-808.75"/>
<polygon fill="#666666" stroke="#666666" points="33.62,-808.75 33.62,-808.75 155.12,-808.75 155.12,-808.75 33.62,-808.75"/>
<polygon fill="none" stroke="#666666" points="23.88,-790 23.88,-844.25 155.12,-844.25 155.12,-790 23.88,-790"/>
</a>
</g>
</g>
<!-- Node4&#45;&gt;Node3 -->
<g id="edge3_Node000003_Node000004" class="edge">
<title>Node4&#45;&gt;Node3</title>
<g id="a_edge3_Node000003_Node000004"><a xlink:title=" ">
<path fill="none" stroke="#63b8ff" d="M89.5,-778.87C89.5,-771.15 89.5,-762.62 89.5,-753.64"/>
<polygon fill="none" stroke="#63b8ff" points="86,-778.76 89.5,-788.76 93,-778.76 86,-778.76"/>
</a>
</g>
</g>
<!-- Node5 -->
<g id="Node000005" class="node">
<title>Node5</title>
<g id="a_Node000005"><a xlink:title=" ">
<polygon fill="white" stroke="none" points="68,-934.5 21,-934.5 21,-880.25 68,-880.25 68,-934.5"/>
<text xml:space="preserve" text-anchor="start" x="25" y="-920.75" font-family="Helvetica,sans-Serif" font-size="10.00">UObject</text>
<text xml:space="preserve" text-anchor="start" x="41.5" y="-904" font-family="Helvetica,sans-Serif" font-size="10.00"> </text>
<text xml:space="preserve" text-anchor="start" x="41.5" y="-887.25" font-family="Helvetica,sans-Serif" font-size="10.00"> </text>
<polygon fill="#666666" stroke="#666666" points="21,-915.75 21,-915.75 68,-915.75 68,-915.75 21,-915.75"/>
<polygon fill="#666666" stroke="#666666" points="21,-899 21,-899 68,-899 68,-899 21,-899"/>
<polygon fill="none" stroke="#666666" points="21,-880.25 21,-934.5 68,-934.5 68,-880.25 21,-880.25"/>
</a>
</g>
</g>
<!-- Node5&#45;&gt;Node4 -->
<g id="edge4_Node000004_Node000005" class="edge">
<title>Node5&#45;&gt;Node4</title>
<g id="a_edge4_Node000004_Node000005"><a xlink:title=" ">
<path fill="none" stroke="#63b8ff" d="M62.85,-870.39C67.31,-861.64 72,-852.44 76.18,-844.24"/>
<polygon fill="none" stroke="#63b8ff" points="59.87,-868.53 58.45,-879.03 66.11,-871.71 59.87,-868.53"/>
</a>
</g>
</g>
<!-- Node6 -->
<g id="Node000006" class="node">
<title>Node6</title>
<g id="a_Node000006"><a xlink:title=" ">
<polygon fill="white" stroke="none" points="184.5,-934.5 86.5,-934.5 86.5,-880.25 184.5,-880.25 184.5,-934.5"/>
<text xml:space="preserve" text-anchor="start" x="90.5" y="-920.75" font-family="Helvetica,sans-Serif" font-size="10.00">FCurveEdInterface</text>
<text xml:space="preserve" text-anchor="start" x="132.5" y="-904" font-family="Helvetica,sans-Serif" font-size="10.00"> </text>
<text xml:space="preserve" text-anchor="start" x="132.5" y="-887.25" font-family="Helvetica,sans-Serif" font-size="10.00"> </text>
<polygon fill="#666666" stroke="#666666" points="86.5,-915.75 86.5,-915.75 184.5,-915.75 184.5,-915.75 86.5,-915.75"/>
<polygon fill="#666666" stroke="#666666" points="86.5,-899 86.5,-899 184.5,-899 184.5,-899 86.5,-899"/>
<polygon fill="none" stroke="#666666" points="86.5,-880.25 86.5,-934.5 184.5,-934.5 184.5,-880.25 86.5,-880.25"/>
</a>
</g>
</g>
<!-- Node6&#45;&gt;Node4 -->
<g id="edge5_Node000004_Node000006" class="edge">
<title>Node6&#45;&gt;Node4</title>
<g id="a_edge5_Node000004_Node000006"><a xlink:title=" ">
<path fill="none" stroke="#63b8ff" d="M116.74,-870.39C112.18,-861.64 107.39,-852.44 103.11,-844.24"/>
<polygon fill="none" stroke="#63b8ff" points="113.52,-871.78 121.25,-879.03 119.73,-868.55 113.52,-871.78"/>
</a>
</g>
</g>
</g>
</svg>
