<?xml version="1.0" encoding="UTF-8" standalone="no"?>
<!DOCTYPE svg PUBLIC "-//W3C//DTD SVG 1.1//EN"
 "http://www.w3.org/Graphics/SVG/1.1/DTD/svg11.dtd">
<!-- Generated by graphviz version 14.1.4 (0)
 -->
<!-- Title: UPhysicsConstraintComponent::SetAngularVelocityDrive Pages: 1 -->
<svg width="425pt" height="60pt"
 viewBox="0.00 0.00 425.00 60.00" xmlns="http://www.w3.org/2000/svg" xmlns:xlink="http://www.w3.org/1999/xlink">

<svg id="main" version="1.1" xmlns="http://www.w3.org/2000/svg" xmlns:xlink="http://www.w3.org/1999/xlink" xml:space="preserve">

<style type="text/css"><![CDATA[
.node, .edge {opacity: 0.7;}
.node.selected, .edge.selected {opacity: 1;}
.edge:hover path { stroke: red; }
.edge:hover polygon { stroke: red; fill: red; }
]]></style>
<script type="application/ecmascript" xlink:href="svg.min.js"/>
<svg id="graph" class="graph">
<g id="graph0" class="graph" transform="scale(1 1) rotate(0) translate(4 55.5)">
<title>UPhysicsConstraintComponent::SetAngularVelocityDrive</title>
<!-- Node1 -->
<g id="Node000001" class="node">
<title>Node1</title>
<g id="a_Node000001"><a xlink:title=" ">
<polygon fill="#999999" stroke="#666666" points="166.75,-33.5 0,-33.5 0,0 166.75,0 166.75,-33.5"/>
<text xml:space="preserve" text-anchor="start" x="8" y="-20" font-family="Helvetica,sans-Serif" font-size="10.00">UPhysicsConstraintComponent</text>
<text xml:space="preserve" text-anchor="middle" x="83.38" y="-7.25" font-family="Helvetica,sans-Serif" font-size="10.00">::SetAngularVelocityDrive</text>
</a>
</g>
</g>
<!-- Node1&#45;&gt;Node1 -->
<g id="edge1_Node000001_Node000001" class="edge">
<title>Node1&#45;&gt;Node1</title>
<g id="a_edge1_Node000001_Node000001"><a xlink:title=" ">
<path fill="none" stroke="#63b8ff" d="M42.68,-33.91C35.77,-43.12 49.33,-51.5 83.38,-51.5 102.53,-51.5 115.2,-48.85 121.39,-44.89"/>
<polygon fill="#63b8ff" stroke="#63b8ff" points="124.73,-45.93 123.71,-35.38 117.93,-44.27 124.73,-45.93"/>
</a>
</g>
</g>
<!-- Node2 -->
<g id="Node000002" class="node">
<title>Node2</title>
<g id="a_Node000002"><a xlink:href="classUPhysicsConstraintComponent.html#afe07cd636d1aae7f596a84fbf21d13c7" target="_top" xlink:title=" ">
<polygon fill="white" stroke="#666666" points="416.75,-33.5 202.75,-33.5 202.75,0 416.75,0 416.75,-33.5"/>
<text xml:space="preserve" text-anchor="start" x="210.75" y="-20" font-family="Helvetica,sans-Serif" font-size="10.00">UPhysicsConstraintComponent</text>
<text xml:space="preserve" text-anchor="middle" x="309.75" y="-7.25" font-family="Helvetica,sans-Serif" font-size="10.00">::SetAngularVelocityDriveTwistAndSwing</text>
</a>
</g>
</g>
<!-- Node1&#45;&gt;Node2 -->
<g id="edge2_Node000001_Node000002" class="edge">
<title>Node1&#45;&gt;Node2</title>
<g id="a_edge2_Node000001_Node000002"><a xlink:title=" ">
<path fill="none" stroke="#63b8ff" d="M166.97,-16.75C174.78,-16.75 182.8,-16.75 190.86,-16.75"/>
<polygon fill="#63b8ff" stroke="#63b8ff" points="190.75,-20.25 200.75,-16.75 190.75,-13.25 190.75,-20.25"/>
</a>
</g>
</g>
<!-- Node2&#45;&gt;Node2 -->
<g id="edge3_Node000002_Node000002" class="edge">
<title>Node2&#45;&gt;Node2</title>
<g id="a_edge3_Node000002_Node000002"><a xlink:title=" ">
<path fill="none" stroke="#63b8ff" d="M269.06,-33.91C262.14,-43.12 275.71,-51.5 309.75,-51.5 328.9,-51.5 341.57,-48.85 347.76,-44.89"/>
<polygon fill="#63b8ff" stroke="#63b8ff" points="351.11,-45.93 350.08,-35.38 344.31,-44.27 351.11,-45.93"/>
</a>
</g>
</g>
</g>
</svg>
</svg>

<style type='text/css'>
<![CDATA[
[data-mouse-over-selected='false'] { opacity: 0.7; }
[data-mouse-over-selected='true']  { opacity: 1.0; }
]]>
</style>
<script type="application/ecmascript"><![CDATA[
document.addEventListener('DOMContentLoaded', (event) => {
  highlightEdges();
  highlightAdjacentNodes();
});
]]></script>
</svg>
