<?xml version="1.0" encoding="UTF-8" standalone="no"?>
<!DOCTYPE svg PUBLIC "-//W3C//DTD SVG 1.1//EN"
 "http://www.w3.org/Graphics/SVG/1.1/DTD/svg11.dtd">
<!-- Generated by graphviz version 14.1.4 (0)
 -->
<!-- Title: UParticleModuleColorBase Pages: 1 -->
<svg width="543pt" height="1107pt"
 viewBox="0.00 0.00 543.00 1107.00" xmlns="http://www.w3.org/2000/svg" xmlns:xlink="http://www.w3.org/1999/xlink">
<g id="graph0" class="graph" transform="scale(1 1) rotate(0) translate(4 1102.75)">
<title>UParticleModuleColorBase</title>
<!-- Node1 -->
<g id="Node000001" class="node">
<title>Node1</title>
<g id="a_Node000001"><a xlink:title=" ">
<polygon fill="#999999" stroke="none" points="315.25,-474 177.5,-474 177.5,-419.75 315.25,-419.75 315.25,-474"/>
<text xml:space="preserve" text-anchor="start" x="181.5" y="-460.25" font-family="Helvetica,sans-Serif" font-size="10.00">UParticleModuleColorBase</text>
<text xml:space="preserve" text-anchor="start" x="243.38" y="-443.5" font-family="Helvetica,sans-Serif" font-size="10.00"> </text>
<text xml:space="preserve" text-anchor="start" x="243.38" y="-426.75" font-family="Helvetica,sans-Serif" font-size="10.00"> </text>
<polygon fill="#666666" stroke="#666666" points="177.5,-455.25 177.5,-455.25 315.25,-455.25 315.25,-455.25 177.5,-455.25"/>
<polygon fill="#666666" stroke="#666666" points="177.5,-438.5 177.5,-438.5 315.25,-438.5 315.25,-438.5 177.5,-438.5"/>
<polygon fill="none" stroke="#666666" points="177.5,-419.75 177.5,-474 315.25,-474 315.25,-419.75 177.5,-419.75"/>
</a>
</g>
</g>
<!-- Node4 -->
<g id="Node000004" class="node">
<title>Node4</title>
<g id="a_Node000004"><a xlink:href="classUParticleModuleColor.html" target="_top" xlink:title=" ">
<polygon fill="white" stroke="none" points="150.75,-354.25 0,-354.25 0,-149.25 150.75,-149.25 150.75,-354.25"/>
<text xml:space="preserve" text-anchor="start" x="22.5" y="-340.5" font-family="Helvetica,sans-Serif" font-size="10.00">UParticleModuleColor</text>
<text xml:space="preserve" text-anchor="start" x="4" y="-323.75" font-family="Helvetica,sans-Serif" font-size="10.00">&#45;</text>
<text xml:space="preserve" text-anchor="start" x="11.75" y="-323.75" font-family="Helvetica,sans-Serif" font-size="10.00">StartColor</text>
<text xml:space="preserve" text-anchor="start" x="4" y="-307" font-family="Helvetica,sans-Serif" font-size="10.00">&#45;</text>
<text xml:space="preserve" text-anchor="start" x="11.75" y="-307" font-family="Helvetica,sans-Serif" font-size="10.00">StartAlpha</text>
<text xml:space="preserve" text-anchor="start" x="4" y="-290.25" font-family="Helvetica,sans-Serif" font-size="10.00">&#45;</text>
<text xml:space="preserve" text-anchor="start" x="11.75" y="-290.25" font-family="Helvetica,sans-Serif" font-size="10.00">bClampAlpha</text>
<text xml:space="preserve" text-anchor="start" x="4" y="-273.5" font-family="Helvetica,sans-Serif" font-size="10.00">&#45;</text>
<text xml:space="preserve" text-anchor="start" x="11.75" y="-273.5" font-family="Helvetica,sans-Serif" font-size="10.00">InitializeDefaults()</text>
<text xml:space="preserve" text-anchor="start" x="4" y="-256.75" font-family="Helvetica,sans-Serif" font-size="10.00">&#45;</text>
<text xml:space="preserve" text-anchor="start" x="11.75" y="-256.75" font-family="Helvetica,sans-Serif" font-size="10.00">PostEditChangeProperty()</text>
<text xml:space="preserve" text-anchor="start" x="4" y="-240" font-family="Helvetica,sans-Serif" font-size="10.00">&#45;</text>
<text xml:space="preserve" text-anchor="start" x="11.75" y="-240" font-family="Helvetica,sans-Serif" font-size="10.00">PostInitProperties()</text>
<text xml:space="preserve" text-anchor="start" x="4" y="-223.25" font-family="Helvetica,sans-Serif" font-size="10.00">&#45;</text>
<text xml:space="preserve" text-anchor="start" x="11.75" y="-223.25" font-family="Helvetica,sans-Serif" font-size="10.00">AddModuleCurvesToEditor()</text>
<text xml:space="preserve" text-anchor="start" x="4" y="-206.5" font-family="Helvetica,sans-Serif" font-size="10.00">&#45;</text>
<text xml:space="preserve" text-anchor="start" x="11.75" y="-206.5" font-family="Helvetica,sans-Serif" font-size="10.00">Spawn()</text>
<text xml:space="preserve" text-anchor="start" x="4" y="-189.75" font-family="Helvetica,sans-Serif" font-size="10.00">&#45;</text>
<text xml:space="preserve" text-anchor="start" x="11.75" y="-189.75" font-family="Helvetica,sans-Serif" font-size="10.00">CompileModule()</text>
<text xml:space="preserve" text-anchor="start" x="4" y="-173" font-family="Helvetica,sans-Serif" font-size="10.00">&#45;</text>
<text xml:space="preserve" text-anchor="start" x="11.75" y="-173" font-family="Helvetica,sans-Serif" font-size="10.00">SetToSensibleDefaults()</text>
<text xml:space="preserve" text-anchor="start" x="4" y="-156.25" font-family="Helvetica,sans-Serif" font-size="10.00">&#45;</text>
<text xml:space="preserve" text-anchor="start" x="11.75" y="-156.25" font-family="Helvetica,sans-Serif" font-size="10.00">SpawnEx()</text>
<polygon fill="#666666" stroke="#666666" points="0,-335.5 0,-335.5 150.75,-335.5 150.75,-335.5 0,-335.5"/>
<polygon fill="#666666" stroke="#666666" points="0,-285.25 0,-285.25 9.75,-285.25 9.75,-285.25 0,-285.25"/>
<polygon fill="#666666" stroke="#666666" points="9.75,-285.25 9.75,-285.25 150.75,-285.25 150.75,-285.25 9.75,-285.25"/>
<polygon fill="none" stroke="#666666" points="0,-149.25 0,-354.25 150.75,-354.25 150.75,-149.25 0,-149.25"/>
</a>
</g>
</g>
<!-- Node1&#45;&gt;Node4 -->
<g id="edge3_Node000001_Node000004" class="edge">
<title>Node1&#45;&gt;Node4</title>
<g id="a_edge3_Node000001_Node000004"><a xlink:title=" ">
<path fill="none" stroke="#63b8ff" d="M193.92,-413.31C181.85,-404.53 169.57,-394.47 159.38,-383.75 150.72,-374.65 142.43,-364.53 134.67,-354.07"/>
<polygon fill="none" stroke="#63b8ff" points="191.65,-415.99 201.84,-418.89 195.68,-410.27 191.65,-415.99"/>
</a>
</g>
</g>
<!-- Node6 -->
<g id="Node000006" class="node">
<title>Node6</title>
<g id="a_Node000006"><a xlink:href="classUParticleModuleColorOverLife.html" target="_top" xlink:title=" ">
<polygon fill="white" stroke="none" points="323.88,-354.25 168.88,-354.25 168.88,-149.25 323.88,-149.25 323.88,-354.25"/>
<text xml:space="preserve" text-anchor="start" x="172.88" y="-340.5" font-family="Helvetica,sans-Serif" font-size="10.00">UParticleModuleColorOverLife</text>
<text xml:space="preserve" text-anchor="start" x="173.94" y="-323.75" font-family="Helvetica,sans-Serif" font-size="10.00">&#45;</text>
<text xml:space="preserve" text-anchor="start" x="182.75" y="-323.75" font-family="Helvetica,sans-Serif" font-size="10.00">ColorOverLife</text>
<text xml:space="preserve" text-anchor="start" x="173.94" y="-307" font-family="Helvetica,sans-Serif" font-size="10.00">&#45;</text>
<text xml:space="preserve" text-anchor="start" x="182.75" y="-307" font-family="Helvetica,sans-Serif" font-size="10.00">AlphaOverLife</text>
<text xml:space="preserve" text-anchor="start" x="173.94" y="-290.25" font-family="Helvetica,sans-Serif" font-size="10.00">&#45;</text>
<text xml:space="preserve" text-anchor="start" x="182.75" y="-290.25" font-family="Helvetica,sans-Serif" font-size="10.00">bClampAlpha</text>
<text xml:space="preserve" text-anchor="start" x="173.94" y="-273.5" font-family="Helvetica,sans-Serif" font-size="10.00">&#45;</text>
<text xml:space="preserve" text-anchor="start" x="182.75" y="-273.5" font-family="Helvetica,sans-Serif" font-size="10.00">InitializeDefaults()</text>
<text xml:space="preserve" text-anchor="start" x="173.94" y="-256.75" font-family="Helvetica,sans-Serif" font-size="10.00">&#45;</text>
<text xml:space="preserve" text-anchor="start" x="182.75" y="-256.75" font-family="Helvetica,sans-Serif" font-size="10.00">PostEditChangeProperty()</text>
<text xml:space="preserve" text-anchor="start" x="173.94" y="-240" font-family="Helvetica,sans-Serif" font-size="10.00">&#45;</text>
<text xml:space="preserve" text-anchor="start" x="182.75" y="-240" font-family="Helvetica,sans-Serif" font-size="10.00">PostInitProperties()</text>
<text xml:space="preserve" text-anchor="start" x="173.94" y="-223.25" font-family="Helvetica,sans-Serif" font-size="10.00">&#45;</text>
<text xml:space="preserve" text-anchor="start" x="182.75" y="-223.25" font-family="Helvetica,sans-Serif" font-size="10.00">AddModuleCurvesToEditor()</text>
<text xml:space="preserve" text-anchor="start" x="173.94" y="-206.5" font-family="Helvetica,sans-Serif" font-size="10.00">&#45;</text>
<text xml:space="preserve" text-anchor="start" x="182.75" y="-206.5" font-family="Helvetica,sans-Serif" font-size="10.00">Spawn()</text>
<text xml:space="preserve" text-anchor="start" x="173.94" y="-189.75" font-family="Helvetica,sans-Serif" font-size="10.00">&#45;</text>
<text xml:space="preserve" text-anchor="start" x="182.75" y="-189.75" font-family="Helvetica,sans-Serif" font-size="10.00">Update()</text>
<text xml:space="preserve" text-anchor="start" x="173.94" y="-173" font-family="Helvetica,sans-Serif" font-size="10.00">&#45;</text>
<text xml:space="preserve" text-anchor="start" x="182.75" y="-173" font-family="Helvetica,sans-Serif" font-size="10.00">CompileModule()</text>
<text xml:space="preserve" text-anchor="start" x="173.94" y="-156.25" font-family="Helvetica,sans-Serif" font-size="10.00">&#45;</text>
<text xml:space="preserve" text-anchor="start" x="182.75" y="-156.25" font-family="Helvetica,sans-Serif" font-size="10.00">SetToSensibleDefaults()</text>
<polygon fill="#666666" stroke="#666666" points="168.88,-335.5 168.88,-335.5 323.88,-335.5 323.88,-335.5 168.88,-335.5"/>
<polygon fill="#666666" stroke="#666666" points="168.88,-285.25 168.88,-285.25 180.75,-285.25 180.75,-285.25 168.88,-285.25"/>
<polygon fill="#666666" stroke="#666666" points="180.75,-285.25 180.75,-285.25 323.88,-285.25 323.88,-285.25 180.75,-285.25"/>
<polygon fill="none" stroke="#666666" points="168.88,-149.25 168.88,-354.25 323.88,-354.25 323.88,-149.25 168.88,-149.25"/>
</a>
</g>
</g>
<!-- Node1&#45;&gt;Node6 -->
<g id="edge5_Node000001_Node000006" class="edge">
<title>Node1&#45;&gt;Node6</title>
<g id="a_edge5_Node000001_Node000006"><a xlink:title=" ">
<path fill="none" stroke="#63b8ff" d="M246.38,-408.52C246.38,-392.79 246.38,-373.65 246.38,-354.24"/>
<polygon fill="none" stroke="#63b8ff" points="242.88,-408.32 246.38,-418.32 249.88,-408.32 242.88,-408.32"/>
</a>
</g>
</g>
<!-- Node7 -->
<g id="Node000007" class="node">
<title>Node7</title>
<g id="a_Node000007"><a xlink:href="classUParticleModuleColorScaleOverLife.html" target="_top" xlink:title=" ">
<polygon fill="white" stroke="none" points="534.75,-383.75 342,-383.75 342,-119.75 534.75,-119.75 534.75,-383.75"/>
<text xml:space="preserve" text-anchor="start" x="372.38" y="-370" font-family="Helvetica,sans-Serif" font-size="10.00">UParticleModuleColorScale</text>
<text xml:space="preserve" text-anchor="start" x="417.75" y="-357.25" font-family="Helvetica,sans-Serif" font-size="10.00">OverLife</text>
<text xml:space="preserve" text-anchor="start" x="346" y="-340.5" font-family="Helvetica,sans-Serif" font-size="10.00">&#45;</text>
<text xml:space="preserve" text-anchor="start" x="353.75" y="-340.5" font-family="Helvetica,sans-Serif" font-size="10.00">ColorScaleOverLife</text>
<text xml:space="preserve" text-anchor="start" x="346" y="-323.75" font-family="Helvetica,sans-Serif" font-size="10.00">&#45;</text>
<text xml:space="preserve" text-anchor="start" x="353.75" y="-323.75" font-family="Helvetica,sans-Serif" font-size="10.00">AlphaScaleOverLife</text>
<text xml:space="preserve" text-anchor="start" x="346" y="-307" font-family="Helvetica,sans-Serif" font-size="10.00">&#45;</text>
<text xml:space="preserve" text-anchor="start" x="353.75" y="-307" font-family="Helvetica,sans-Serif" font-size="10.00">bEmitterTime</text>
<text xml:space="preserve" text-anchor="start" x="346" y="-290.25" font-family="Helvetica,sans-Serif" font-size="10.00">&#45;</text>
<text xml:space="preserve" text-anchor="start" x="353.75" y="-290.25" font-family="Helvetica,sans-Serif" font-size="10.00">InitializeDefaults()</text>
<text xml:space="preserve" text-anchor="start" x="346" y="-273.5" font-family="Helvetica,sans-Serif" font-size="10.00">&#45;</text>
<text xml:space="preserve" text-anchor="start" x="353.75" y="-273.5" font-family="Helvetica,sans-Serif" font-size="10.00">PostEditChangeProperty()</text>
<text xml:space="preserve" text-anchor="start" x="346" y="-256.75" font-family="Helvetica,sans-Serif" font-size="10.00">&#45;</text>
<text xml:space="preserve" text-anchor="start" x="353.75" y="-256.75" font-family="Helvetica,sans-Serif" font-size="10.00">PostInitProperties()</text>
<text xml:space="preserve" text-anchor="start" x="346" y="-240" font-family="Helvetica,sans-Serif" font-size="10.00">&#45;</text>
<text xml:space="preserve" text-anchor="start" x="353.75" y="-240" font-family="Helvetica,sans-Serif" font-size="10.00">CompileModule()</text>
<text xml:space="preserve" text-anchor="start" x="346" y="-223.25" font-family="Helvetica,sans-Serif" font-size="10.00">&#45;</text>
<text xml:space="preserve" text-anchor="start" x="353.75" y="-223.25" font-family="Helvetica,sans-Serif" font-size="10.00">Spawn()</text>
<text xml:space="preserve" text-anchor="start" x="346" y="-206.5" font-family="Helvetica,sans-Serif" font-size="10.00">&#45;</text>
<text xml:space="preserve" text-anchor="start" x="353.75" y="-206.5" font-family="Helvetica,sans-Serif" font-size="10.00">Update()</text>
<text xml:space="preserve" text-anchor="start" x="346" y="-189.75" font-family="Helvetica,sans-Serif" font-size="10.00">&#45;</text>
<text xml:space="preserve" text-anchor="start" x="353.75" y="-189.75" font-family="Helvetica,sans-Serif" font-size="10.00">SetToSensibleDefaults()</text>
<text xml:space="preserve" text-anchor="start" x="346" y="-173" font-family="Helvetica,sans-Serif" font-size="10.00">&#45;</text>
<text xml:space="preserve" text-anchor="start" x="353.75" y="-173" font-family="Helvetica,sans-Serif" font-size="10.00">GetNumberOfCustomMenuOptions()</text>
<text xml:space="preserve" text-anchor="start" x="346" y="-156.25" font-family="Helvetica,sans-Serif" font-size="10.00">&#45;</text>
<text xml:space="preserve" text-anchor="start" x="353.75" y="-156.25" font-family="Helvetica,sans-Serif" font-size="10.00">GetCustomMenuEntryDisplay</text>
<text xml:space="preserve" text-anchor="start" x="353.75" y="-143.5" font-family="Helvetica,sans-Serif" font-size="10.00">String()</text>
<text xml:space="preserve" text-anchor="start" x="346" y="-126.75" font-family="Helvetica,sans-Serif" font-size="10.00">&#45;</text>
<text xml:space="preserve" text-anchor="start" x="353.75" y="-126.75" font-family="Helvetica,sans-Serif" font-size="10.00">PerformCustomMenuEntry()</text>
<polygon fill="#666666" stroke="#666666" points="342,-352.25 342,-352.25 534.75,-352.25 534.75,-352.25 342,-352.25"/>
<polygon fill="#666666" stroke="#666666" points="342,-302 342,-302 351.75,-302 351.75,-302 342,-302"/>
<polygon fill="#666666" stroke="#666666" points="351.75,-302 351.75,-302 534.75,-302 534.75,-302 351.75,-302"/>
<polygon fill="none" stroke="#666666" points="342,-119.75 342,-383.75 534.75,-383.75 534.75,-119.75 342,-119.75"/>
</a>
</g>
</g>
<!-- Node1&#45;&gt;Node7 -->
<g id="edge6_Node000001_Node000007" class="edge">
<title>Node1&#45;&gt;Node7</title>
<g id="a_edge6_Node000001_Node000007"><a xlink:title=" ">
<path fill="none" stroke="#63b8ff" d="M296.96,-413.31C309.39,-404.36 322.31,-394.22 333.38,-383.75 336.34,-380.95 339.29,-378.06 342.23,-375.1"/>
<polygon fill="none" stroke="#63b8ff" points="294.98,-410.42 288.81,-419.03 299.01,-416.15 294.98,-410.42"/>
</a>
</g>
</g>
<!-- Node2 -->
<g id="Node000002" class="node">
<title>Node2</title>
<g id="a_Node000002"><a xlink:href="classUParticleModule.html" target="_top" xlink:title=" ">
<polygon fill="white" stroke="none" points="327.38,-1008.5 165.38,-1008.5 165.38,-510 327.38,-510 327.38,-1008.5"/>
<text xml:space="preserve" text-anchor="start" x="206.25" y="-994.75" font-family="Helvetica,sans-Serif" font-size="10.00">UParticleModule</text>
<text xml:space="preserve" text-anchor="start" x="169.38" y="-978" font-family="Helvetica,sans-Serif" font-size="10.00">&#45;</text>
<text xml:space="preserve" text-anchor="start" x="177.12" y="-978" font-family="Helvetica,sans-Serif" font-size="10.00">bSpawnModule</text>
<text xml:space="preserve" text-anchor="start" x="169.38" y="-961.25" font-family="Helvetica,sans-Serif" font-size="10.00">&#45;</text>
<text xml:space="preserve" text-anchor="start" x="177.12" y="-961.25" font-family="Helvetica,sans-Serif" font-size="10.00">bUpdateModule</text>
<text xml:space="preserve" text-anchor="start" x="169.38" y="-944.5" font-family="Helvetica,sans-Serif" font-size="10.00">&#45;</text>
<text xml:space="preserve" text-anchor="start" x="177.12" y="-944.5" font-family="Helvetica,sans-Serif" font-size="10.00">bFinalUpdateModule</text>
<text xml:space="preserve" text-anchor="start" x="169.38" y="-927.75" font-family="Helvetica,sans-Serif" font-size="10.00">&#45;</text>
<text xml:space="preserve" text-anchor="start" x="177.12" y="-927.75" font-family="Helvetica,sans-Serif" font-size="10.00">bUpdateForGPUEmitter</text>
<text xml:space="preserve" text-anchor="start" x="169.38" y="-911" font-family="Helvetica,sans-Serif" font-size="10.00">&#45;</text>
<text xml:space="preserve" text-anchor="start" x="177.12" y="-911" font-family="Helvetica,sans-Serif" font-size="10.00">bCurvesAsColor</text>
<text xml:space="preserve" text-anchor="start" x="169.38" y="-894.25" font-family="Helvetica,sans-Serif" font-size="10.00">&#45;</text>
<text xml:space="preserve" text-anchor="start" x="177.12" y="-894.25" font-family="Helvetica,sans-Serif" font-size="10.00">b3DDrawMode</text>
<text xml:space="preserve" text-anchor="start" x="169.38" y="-877.5" font-family="Helvetica,sans-Serif" font-size="10.00">&#45;</text>
<text xml:space="preserve" text-anchor="start" x="177.12" y="-877.5" font-family="Helvetica,sans-Serif" font-size="10.00">bSupported3DDrawMode</text>
<text xml:space="preserve" text-anchor="start" x="169.38" y="-860.75" font-family="Helvetica,sans-Serif" font-size="10.00">&#45;</text>
<text xml:space="preserve" text-anchor="start" x="177.12" y="-860.75" font-family="Helvetica,sans-Serif" font-size="10.00">bEnabled</text>
<text xml:space="preserve" text-anchor="start" x="169.38" y="-844" font-family="Helvetica,sans-Serif" font-size="10.00">&#45;</text>
<text xml:space="preserve" text-anchor="start" x="177.12" y="-844" font-family="Helvetica,sans-Serif" font-size="10.00">bEditable</text>
<text xml:space="preserve" text-anchor="start" x="169.38" y="-827.25" font-family="Helvetica,sans-Serif" font-size="10.00">&#45;</text>
<text xml:space="preserve" text-anchor="start" x="177.12" y="-827.25" font-family="Helvetica,sans-Serif" font-size="10.00">LODDuplicate</text>
<text xml:space="preserve" text-anchor="start" x="169.38" y="-810.5" font-family="Helvetica,sans-Serif" font-size="10.00">&#45;</text>
<text xml:space="preserve" text-anchor="start" x="177.12" y="-810.5" font-family="Helvetica,sans-Serif" font-size="10.00">bSupportsRandomSeed</text>
<text xml:space="preserve" text-anchor="start" x="169.38" y="-793.75" font-family="Helvetica,sans-Serif" font-size="10.00">&#45;</text>
<text xml:space="preserve" text-anchor="start" x="177.12" y="-793.75" font-family="Helvetica,sans-Serif" font-size="10.00">bRequiresLoopingNotification</text>
<text xml:space="preserve" text-anchor="start" x="169.38" y="-777" font-family="Helvetica,sans-Serif" font-size="10.00">&#45;</text>
<text xml:space="preserve" text-anchor="start" x="177.12" y="-777" font-family="Helvetica,sans-Serif" font-size="10.00">LODValidity</text>
<text xml:space="preserve" text-anchor="start" x="169.38" y="-760.25" font-family="Helvetica,sans-Serif" font-size="10.00">&#45;</text>
<text xml:space="preserve" text-anchor="start" x="177.12" y="-760.25" font-family="Helvetica,sans-Serif" font-size="10.00">IsPostLoadThreadSafe()</text>
<text xml:space="preserve" text-anchor="start" x="169.38" y="-743.5" font-family="Helvetica,sans-Serif" font-size="10.00">&#45;</text>
<text xml:space="preserve" text-anchor="start" x="177.12" y="-743.5" font-family="Helvetica,sans-Serif" font-size="10.00">PostEditChangeProperty()</text>
<text xml:space="preserve" text-anchor="start" x="169.38" y="-726.75" font-family="Helvetica,sans-Serif" font-size="10.00">&#45;</text>
<text xml:space="preserve" text-anchor="start" x="177.12" y="-726.75" font-family="Helvetica,sans-Serif" font-size="10.00">CompileModule()</text>
<text xml:space="preserve" text-anchor="start" x="169.38" y="-710" font-family="Helvetica,sans-Serif" font-size="10.00">&#45;</text>
<text xml:space="preserve" text-anchor="start" x="177.12" y="-710" font-family="Helvetica,sans-Serif" font-size="10.00">Spawn()</text>
<text xml:space="preserve" text-anchor="start" x="169.38" y="-693.25" font-family="Helvetica,sans-Serif" font-size="10.00">&#45;</text>
<text xml:space="preserve" text-anchor="start" x="177.12" y="-693.25" font-family="Helvetica,sans-Serif" font-size="10.00">Update()</text>
<text xml:space="preserve" text-anchor="start" x="169.38" y="-676.5" font-family="Helvetica,sans-Serif" font-size="10.00">&#45;</text>
<text xml:space="preserve" text-anchor="start" x="177.12" y="-676.5" font-family="Helvetica,sans-Serif" font-size="10.00">FinalUpdate()</text>
<text xml:space="preserve" text-anchor="start" x="169.38" y="-659.75" font-family="Helvetica,sans-Serif" font-size="10.00">&#45;</text>
<text xml:space="preserve" text-anchor="start" x="177.12" y="-659.75" font-family="Helvetica,sans-Serif" font-size="10.00">RequiredBytes()</text>
<text xml:space="preserve" text-anchor="start" x="169.38" y="-643" font-family="Helvetica,sans-Serif" font-size="10.00">&#45;</text>
<text xml:space="preserve" text-anchor="start" x="177.12" y="-643" font-family="Helvetica,sans-Serif" font-size="10.00">RequiredBytesPerInstance()</text>
<text xml:space="preserve" text-anchor="start" x="169.38" y="-626.25" font-family="Helvetica,sans-Serif" font-size="10.00">&#45;</text>
<text xml:space="preserve" text-anchor="start" x="177.12" y="-626.25" font-family="Helvetica,sans-Serif" font-size="10.00">PrepPerInstanceBlock()</text>
<text xml:space="preserve" text-anchor="start" x="169.38" y="-609.5" font-family="Helvetica,sans-Serif" font-size="10.00">&#45;</text>
<text xml:space="preserve" text-anchor="start" x="177.12" y="-609.5" font-family="Helvetica,sans-Serif" font-size="10.00">SetToSensibleDefaults()</text>
<text xml:space="preserve" text-anchor="start" x="177.12" y="-592.75" font-family="Helvetica,sans-Serif" font-size="10.00">and 35 more...</text>
<text xml:space="preserve" text-anchor="start" x="169.38" y="-576" font-family="Helvetica,sans-Serif" font-size="10.00">&#45;</text>
<text xml:space="preserve" text-anchor="start" x="177.12" y="-576" font-family="Helvetica,sans-Serif" font-size="10.00">GetDistributionsRestricted</text>
<text xml:space="preserve" text-anchor="start" x="177.12" y="-563.25" font-family="Helvetica,sans-Serif" font-size="10.00">OnGPU()</text>
<text xml:space="preserve" text-anchor="start" x="169.38" y="-546.5" font-family="Helvetica,sans-Serif" font-size="10.00">&#45;</text>
<text xml:space="preserve" text-anchor="start" x="177.12" y="-546.5" font-family="Helvetica,sans-Serif" font-size="10.00">IsDistributionAllowedOnGPU()</text>
<text xml:space="preserve" text-anchor="start" x="169.38" y="-529.75" font-family="Helvetica,sans-Serif" font-size="10.00">&#45;</text>
<text xml:space="preserve" text-anchor="start" x="177.12" y="-529.75" font-family="Helvetica,sans-Serif" font-size="10.00">GetDistributionNotAllowed</text>
<text xml:space="preserve" text-anchor="start" x="177.12" y="-517" font-family="Helvetica,sans-Serif" font-size="10.00">OnGPUText()</text>
<polygon fill="#666666" stroke="#666666" points="165.38,-989.75 165.38,-989.75 327.38,-989.75 327.38,-989.75 165.38,-989.75"/>
<polygon fill="#666666" stroke="#666666" points="165.38,-772 165.38,-772 175.12,-772 175.12,-772 165.38,-772"/>
<polygon fill="#666666" stroke="#666666" points="175.12,-772 175.12,-772 327.38,-772 327.38,-772 175.12,-772"/>
<polygon fill="none" stroke="#666666" points="165.38,-510 165.38,-1008.5 327.38,-1008.5 327.38,-510 165.38,-510"/>
</a>
</g>
</g>
<!-- Node2&#45;&gt;Node1 -->
<g id="edge1_Node000001_Node000002" class="edge">
<title>Node2&#45;&gt;Node1</title>
<g id="a_edge1_Node000001_Node000002"><a xlink:title=" ">
<path fill="none" stroke="#63b8ff" d="M246.38,-498.86C246.38,-489.47 246.38,-481.02 246.38,-473.82"/>
<polygon fill="none" stroke="#63b8ff" points="242.88,-498.8 246.38,-508.8 249.88,-498.8 242.88,-498.8"/>
</a>
</g>
</g>
<!-- Node3 -->
<g id="Node000003" class="node">
<title>Node3</title>
<g id="a_Node000003"><a xlink:title=" ">
<polygon fill="white" stroke="none" points="269.88,-1098.75 222.88,-1098.75 222.88,-1044.5 269.88,-1044.5 269.88,-1098.75"/>
<text xml:space="preserve" text-anchor="start" x="226.88" y="-1085" font-family="Helvetica,sans-Serif" font-size="10.00">UObject</text>
<text xml:space="preserve" text-anchor="start" x="243.38" y="-1068.25" font-family="Helvetica,sans-Serif" font-size="10.00"> </text>
<text xml:space="preserve" text-anchor="start" x="243.38" y="-1051.5" font-family="Helvetica,sans-Serif" font-size="10.00"> </text>
<polygon fill="#666666" stroke="#666666" points="222.88,-1080 222.88,-1080 269.88,-1080 269.88,-1080 222.88,-1080"/>
<polygon fill="#666666" stroke="#666666" points="222.88,-1063.25 222.88,-1063.25 269.88,-1063.25 269.88,-1063.25 222.88,-1063.25"/>
<polygon fill="none" stroke="#666666" points="222.88,-1044.5 222.88,-1098.75 269.88,-1098.75 269.88,-1044.5 222.88,-1044.5"/>
</a>
</g>
</g>
<!-- Node3&#45;&gt;Node2 -->
<g id="edge2_Node000002_Node000003" class="edge">
<title>Node3&#45;&gt;Node2</title>
<g id="a_edge2_Node000002_Node000003"><a xlink:title=" ">
<path fill="none" stroke="#63b8ff" d="M246.38,-1033.31C246.38,-1025.8 246.38,-1017.39 246.38,-1008.32"/>
<polygon fill="none" stroke="#63b8ff" points="242.88,-1033.18 246.38,-1043.18 249.88,-1033.18 242.88,-1033.18"/>
</a>
</g>
</g>
<!-- Node5 -->
<g id="Node000005" class="node">
<title>Node5</title>
<g id="a_Node000005"><a xlink:href="classUParticleModuleColor__Seeded.html" target="_top" xlink:title=" ">
<polygon fill="white" stroke="none" points="139.12,-83.75 11.62,-83.75 11.62,0 139.12,0 139.12,-83.75"/>
<text xml:space="preserve" text-anchor="start" x="22.5" y="-70" font-family="Helvetica,sans-Serif" font-size="10.00">UParticleModuleColor</text>
<text xml:space="preserve" text-anchor="start" x="54.75" y="-57.25" font-family="Helvetica,sans-Serif" font-size="10.00">_Seeded</text>
<text xml:space="preserve" text-anchor="start" x="15.62" y="-40.5" font-family="Helvetica,sans-Serif" font-size="10.00">&#45;</text>
<text xml:space="preserve" text-anchor="start" x="23.38" y="-40.5" font-family="Helvetica,sans-Serif" font-size="10.00">RandomSeedInfo</text>
<text xml:space="preserve" text-anchor="start" x="15.62" y="-23.75" font-family="Helvetica,sans-Serif" font-size="10.00">&#45;</text>
<text xml:space="preserve" text-anchor="start" x="23.38" y="-23.75" font-family="Helvetica,sans-Serif" font-size="10.00">GetRandomSeedInfo()</text>
<text xml:space="preserve" text-anchor="start" x="15.62" y="-7" font-family="Helvetica,sans-Serif" font-size="10.00">&#45;</text>
<text xml:space="preserve" text-anchor="start" x="23.38" y="-7" font-family="Helvetica,sans-Serif" font-size="10.00">EmitterLoopingNotify()</text>
<polygon fill="#666666" stroke="#666666" points="11.62,-52.25 11.62,-52.25 139.12,-52.25 139.12,-52.25 11.62,-52.25"/>
<polygon fill="#666666" stroke="#666666" points="11.62,-35.5 11.62,-35.5 21.38,-35.5 21.38,-35.5 11.62,-35.5"/>
<polygon fill="#666666" stroke="#666666" points="21.38,-35.5 21.38,-35.5 139.12,-35.5 139.12,-35.5 21.38,-35.5"/>
<polygon fill="none" stroke="#666666" points="11.62,0 11.62,-83.75 139.12,-83.75 139.12,0 11.62,0"/>
</a>
</g>
</g>
<!-- Node4&#45;&gt;Node5 -->
<g id="edge4_Node000004_Node000005" class="edge">
<title>Node4&#45;&gt;Node5</title>
<g id="a_edge4_Node000004_Node000005"><a xlink:title=" ">
<path fill="none" stroke="#63b8ff" d="M75.38,-138.07C75.38,-118.62 75.38,-99.58 75.38,-83.7"/>
<polygon fill="none" stroke="#63b8ff" points="71.88,-138.04 75.38,-148.04 78.88,-138.04 71.88,-138.04"/>
</a>
</g>
</g>
</g>
</svg>
