<?xml version="1.0" encoding="UTF-8" standalone="no"?>
<!DOCTYPE svg PUBLIC "-//W3C//DTD SVG 1.1//EN"
 "http://www.w3.org/Graphics/SVG/1.1/DTD/svg11.dtd">
<!-- Generated by graphviz version 14.1.4 (0)
 -->
<!-- Title: UE::FInheritedContextBase::CaptureInheritedContext Pages: 1 -->
<svg width="612pt" height="222pt"
 viewBox="0.00 0.00 612.00 222.00" xmlns="http://www.w3.org/2000/svg" xmlns:xlink="http://www.w3.org/1999/xlink">
<g id="graph0" class="graph" transform="scale(1 1) rotate(0) translate(4 218.12)">
<title>UE::FInheritedContextBase::CaptureInheritedContext</title>
<!-- Node1 -->
<g id="Node000001" class="node">
<title>Node1</title>
<g id="a_Node000001"><a xlink:title=" ">
<polygon fill="#999999" stroke="#666666" points="603.75,-152.5 456.5,-152.5 456.5,-119 603.75,-119 603.75,-152.5"/>
<text xml:space="preserve" text-anchor="start" x="464.5" y="-139" font-family="Helvetica,sans-Serif" font-size="10.00">UE::FInheritedContextBase</text>
<text xml:space="preserve" text-anchor="middle" x="530.12" y="-126.25" font-family="Helvetica,sans-Serif" font-size="10.00">::CaptureInheritedContext</text>
</a>
</g>
</g>
<!-- Node2 -->
<g id="Node000002" class="node">
<title>Node2</title>
<g id="a_Node000002"><a xlink:href="$classFIoRequestImpl.html#a26a76d08a386481e0a35ddaab209ebf3" xlink:title=" ">
<polygon fill="white" stroke="#666666" points="420.5,-214.12 245.5,-214.12 245.5,-193.38 420.5,-193.38 420.5,-214.12"/>
<text xml:space="preserve" text-anchor="middle" x="333" y="-200.62" font-family="Helvetica,sans-Serif" font-size="10.00">FIoRequestImpl::FIoRequestImpl</text>
</a>
</g>
</g>
<!-- Node1&#45;&gt;Node2 -->
<g id="edge1_Node000001_Node000002" class="edge">
<title>Node1&#45;&gt;Node2</title>
<g id="a_edge1_Node000001_Node000002"><a xlink:title=" ">
<path fill="none" stroke="#63b8ff" d="M485.95,-157.72C466.35,-167.04 442.64,-177.41 420.5,-184.75 411.16,-187.85 401.08,-190.58 391.22,-192.94"/>
<polygon fill="#63b8ff" stroke="#63b8ff" points="487.24,-160.98 494.72,-153.48 484.19,-154.68 487.24,-160.98"/>
</a>
</g>
</g>
<!-- Node3 -->
<g id="Node000003" class="node">
<title>Node3</title>
<g id="a_Node000003"><a xlink:href="$classUE_1_1Tasks_1_1Private_1_1FTaskBase.html#ad52bcdecdbb2647e87f25038017a7b3e" xlink:title=" ">
<polygon fill="white" stroke="#666666" points="384.5,-175.5 281.5,-175.5 281.5,-142 384.5,-142 384.5,-175.5"/>
<text xml:space="preserve" text-anchor="start" x="289.5" y="-162" font-family="Helvetica,sans-Serif" font-size="10.00">UE::Tasks::Private</text>
<text xml:space="preserve" text-anchor="middle" x="333" y="-149.25" font-family="Helvetica,sans-Serif" font-size="10.00">::FTaskBase::Init</text>
</a>
</g>
</g>
<!-- Node1&#45;&gt;Node3 -->
<g id="edge2_Node000001_Node000003" class="edge">
<title>Node1&#45;&gt;Node3</title>
<g id="a_edge2_Node000001_Node000003"><a xlink:title=" ">
<path fill="none" stroke="#63b8ff" d="M444.95,-145.67C424.53,-148.08 403.3,-150.58 384.96,-152.74"/>
<polygon fill="#63b8ff" stroke="#63b8ff" points="445.17,-149.17 454.69,-144.52 444.35,-142.22 445.17,-149.17"/>
</a>
</g>
</g>
<!-- Node4 -->
<g id="Node000004" class="node">
<title>Node4</title>
<g id="a_Node000004"><a xlink:href="$classFAsyncTaskBase.html#a7d2f5aaf9d465aca330a062715982cf8" xlink:title=" ">
<polygon fill="white" stroke="#666666" points="395.75,-124.12 270.25,-124.12 270.25,-103.38 395.75,-103.38 395.75,-124.12"/>
<text xml:space="preserve" text-anchor="middle" x="333" y="-110.62" font-family="Helvetica,sans-Serif" font-size="10.00">FAsyncTaskBase::Start</text>
</a>
</g>
</g>
<!-- Node1&#45;&gt;Node4 -->
<g id="edge3_Node000001_Node000004" class="edge">
<title>Node1&#45;&gt;Node4</title>
<g id="a_edge3_Node000001_Node000004"><a xlink:title=" ">
<path fill="none" stroke="#63b8ff" d="M444.92,-126.26C428.48,-124.4 411.53,-122.49 395.98,-120.74"/>
<polygon fill="#63b8ff" stroke="#63b8ff" points="444.36,-129.71 454.69,-127.36 445.14,-122.76 444.36,-129.71"/>
</a>
</g>
</g>
<!-- Node7 -->
<g id="Node000007" class="node">
<title>Node7</title>
<g id="a_Node000007"><a xlink:href="$classFAutoDeleteAsyncTask.html#a230a500469539a7995562c778a369627" xlink:title=" ">
<polygon fill="white" stroke="#666666" points="396.5,-85.5 269.5,-85.5 269.5,-52 396.5,-52 396.5,-85.5"/>
<text xml:space="preserve" text-anchor="start" x="277.5" y="-72" font-family="Helvetica,sans-Serif" font-size="10.00">FAutoDeleteAsyncTask</text>
<text xml:space="preserve" text-anchor="middle" x="333" y="-59.25" font-family="Helvetica,sans-Serif" font-size="10.00">::Start</text>
</a>
</g>
</g>
<!-- Node1&#45;&gt;Node7 -->
<g id="edge6_Node000001_Node000007" class="edge">
<title>Node1&#45;&gt;Node7</title>
<g id="a_edge6_Node000001_Node000007"><a xlink:title=" ">
<path fill="none" stroke="#63b8ff" d="M475.01,-114.48C457.69,-107.9 438.37,-100.8 420.5,-94.75 411.74,-91.78 402.42,-88.8 393.27,-85.97"/>
<polygon fill="#63b8ff" stroke="#63b8ff" points="473.5,-117.66 484.09,-117.96 476,-111.12 473.5,-117.66"/>
</a>
</g>
</g>
<!-- Node5 -->
<g id="Node000005" class="node">
<title>Node5</title>
<g id="a_Node000005"><a xlink:href="$classFAsyncTaskBase.html#a95b4dfb08548988b7236fb1b95f450f7" xlink:title=" ">
<polygon fill="white" stroke="#666666" points="207.25,-163.12 2.25,-163.12 2.25,-142.38 207.25,-142.38 207.25,-163.12"/>
<text xml:space="preserve" text-anchor="middle" x="104.75" y="-149.62" font-family="Helvetica,sans-Serif" font-size="10.00">FAsyncTaskBase::StartBackgroundTask</text>
</a>
</g>
</g>
<!-- Node4&#45;&gt;Node5 -->
<g id="edge4_Node000004_Node000005" class="edge">
<title>Node4&#45;&gt;Node5</title>
<g id="a_edge4_Node000004_Node000005"><a xlink:title=" ">
<path fill="none" stroke="#63b8ff" d="M258.54,-126.41C229.48,-131.42 196.43,-137.12 168.52,-141.93"/>
<polygon fill="#63b8ff" stroke="#63b8ff" points="259.13,-129.86 268.39,-124.72 257.94,-122.97 259.13,-129.86"/>
</a>
</g>
</g>
<!-- Node6 -->
<g id="Node000006" class="node">
<title>Node6</title>
<g id="a_Node000006"><a xlink:href="$classFAsyncTaskBase.html#a7fab90d0cea6b27bfd02d55ff98bcbb0" xlink:title=" ">
<polygon fill="white" stroke="#666666" points="209.5,-124.12 0,-124.12 0,-103.38 209.5,-103.38 209.5,-124.12"/>
<text xml:space="preserve" text-anchor="middle" x="104.75" y="-110.62" font-family="Helvetica,sans-Serif" font-size="10.00">FAsyncTaskBase::StartSynchronousTask</text>
</a>
</g>
</g>
<!-- Node4&#45;&gt;Node6 -->
<g id="edge5_Node000004_Node000006" class="edge">
<title>Node4&#45;&gt;Node6</title>
<g id="a_edge5_Node000004_Node000006"><a xlink:title=" ">
<path fill="none" stroke="#63b8ff" d="M258.75,-113.75C243.15,-113.75 226.4,-113.75 209.9,-113.75"/>
<polygon fill="#63b8ff" stroke="#63b8ff" points="258.36,-117.25 268.36,-113.75 258.36,-110.25 258.36,-117.25"/>
</a>
</g>
</g>
<!-- Node8 -->
<g id="Node000008" class="node">
<title>Node8</title>
<g id="a_Node000008"><a xlink:href="$classFAutoDeleteAsyncTask.html#a6d14d6e8e3c0a7cbada575942a9b8b0b" xlink:title=" ">
<polygon fill="white" stroke="#666666" points="168.25,-85.5 41.25,-85.5 41.25,-52 168.25,-52 168.25,-85.5"/>
<text xml:space="preserve" text-anchor="start" x="49.25" y="-72" font-family="Helvetica,sans-Serif" font-size="10.00">FAutoDeleteAsyncTask</text>
<text xml:space="preserve" text-anchor="middle" x="104.75" y="-59.25" font-family="Helvetica,sans-Serif" font-size="10.00">::StartBackgroundTask</text>
</a>
</g>
</g>
<!-- Node7&#45;&gt;Node8 -->
<g id="edge7_Node000007_Node000008" class="edge">
<title>Node7&#45;&gt;Node8</title>
<g id="a_edge7_Node000007_Node000008"><a xlink:title=" ">
<path fill="none" stroke="#63b8ff" d="M258,-68.75C229.1,-68.75 196.32,-68.75 168.59,-68.75"/>
<polygon fill="#63b8ff" stroke="#63b8ff" points="257.76,-72.25 267.76,-68.75 257.76,-65.25 257.76,-72.25"/>
</a>
</g>
</g>
<!-- Node9 -->
<g id="Node000009" class="node">
<title>Node9</title>
<g id="a_Node000009"><a xlink:href="$classFAutoDeleteAsyncTask.html#abf5f8b82963268117cfab98d13098782" xlink:title=" ">
<polygon fill="white" stroke="#666666" points="169.38,-33.5 40.12,-33.5 40.12,0 169.38,0 169.38,-33.5"/>
<text xml:space="preserve" text-anchor="start" x="48.12" y="-20" font-family="Helvetica,sans-Serif" font-size="10.00">FAutoDeleteAsyncTask</text>
<text xml:space="preserve" text-anchor="middle" x="104.75" y="-7.25" font-family="Helvetica,sans-Serif" font-size="10.00">::StartSynchronousTask</text>
</a>
</g>
</g>
<!-- Node7&#45;&gt;Node9 -->
<g id="edge8_Node000007_Node000009" class="edge">
<title>Node7&#45;&gt;Node9</title>
<g id="a_edge8_Node000007_Node000009"><a xlink:title=" ">
<path fill="none" stroke="#63b8ff" d="M258.14,-51.77C229.62,-45.22 197.29,-37.79 169.78,-31.47"/>
<polygon fill="#63b8ff" stroke="#63b8ff" points="257.27,-55.17 267.8,-54 258.84,-48.34 257.27,-55.17"/>
</a>
</g>
</g>
</g>
</svg>
