<?xml version="1.0" encoding="UTF-8" standalone="no"?>
<!DOCTYPE svg PUBLIC "-//W3C//DTD SVG 1.1//EN"
 "http://www.w3.org/Graphics/SVG/1.1/DTD/svg11.dtd">
<!-- Generated by graphviz version 14.1.4 (0)
 -->
<!-- Title: IPlatformFile::IterateDirectory Pages: 1 -->
<svg width="366pt" height="184pt"
 viewBox="0.00 0.00 366.00 184.00" xmlns="http://www.w3.org/2000/svg" xmlns:xlink="http://www.w3.org/1999/xlink">
<g id="graph0" class="graph" transform="scale(1 1) rotate(0) translate(4 180.12)">
<title>IPlatformFile::IterateDirectory</title>
<!-- Node1 -->
<g id="Node000001" class="node">
<title>Node1</title>
<g id="a_Node000001"><a xlink:title=" ">
<polygon fill="#999999" stroke="#666666" points="357.5,-105.12 196.75,-105.12 196.75,-84.38 357.5,-84.38 357.5,-105.12"/>
<text xml:space="preserve" text-anchor="middle" x="277.12" y="-91.62" font-family="Helvetica,sans-Serif" font-size="10.00">IPlatformFile::IterateDirectory</text>
</a>
</g>
</g>
<!-- Node2 -->
<g id="Node000002" class="node">
<title>Node2</title>
<g id="a_Node000002"><a xlink:href="$classIPlatformFile.html#a61831dac05fcdd8fec5c5e09f4980086" xlink:title=" ">
<polygon fill="white" stroke="#666666" points="160.75,-176.12 0,-176.12 0,-155.38 160.75,-155.38 160.75,-176.12"/>
<text xml:space="preserve" text-anchor="middle" x="80.38" y="-162.62" font-family="Helvetica,sans-Serif" font-size="10.00">IPlatformFile::IterateDirectory</text>
</a>
</g>
</g>
<!-- Node1&#45;&gt;Node2 -->
<g id="edge1_Node000001_Node000002" class="edge">
<title>Node1&#45;&gt;Node2</title>
<g id="a_edge1_Node000001_Node000002"><a xlink:title=" ">
<path fill="none" stroke="#63b8ff" d="M245.22,-110.6C222.35,-121.86 190.19,-136.69 160.75,-146.75 151.9,-149.77 142.34,-152.5 133.02,-154.88"/>
<polygon fill="#63b8ff" stroke="#63b8ff" points="246.6,-113.83 253.99,-106.23 243.48,-107.56 246.6,-113.83"/>
</a>
</g>
</g>
<!-- Node3 -->
<g id="Node000003" class="node">
<title>Node3</title>
<g id="a_Node000003"><a xlink:href="$classIAndroidPlatformFile.html#a150906c697eb4f066de4bede8969b89b" xlink:title=" ">
<polygon fill="white" stroke="#666666" points="139.75,-137.5 21,-137.5 21,-104 139.75,-104 139.75,-137.5"/>
<text xml:space="preserve" text-anchor="start" x="29" y="-124" font-family="Helvetica,sans-Serif" font-size="10.00">IAndroidPlatformFile</text>
<text xml:space="preserve" text-anchor="middle" x="80.38" y="-111.25" font-family="Helvetica,sans-Serif" font-size="10.00">::IterateDirectoryStat</text>
</a>
</g>
</g>
<!-- Node1&#45;&gt;Node3 -->
<g id="edge2_Node000001_Node000003" class="edge">
<title>Node1&#45;&gt;Node3</title>
<g id="a_edge2_Node000001_Node000003"><a xlink:title=" ">
<path fill="none" stroke="#63b8ff" d="M185.25,-106.88C169.93,-108.93 154.39,-111 140.16,-112.9"/>
<polygon fill="#63b8ff" stroke="#63b8ff" points="185.4,-110.39 194.85,-105.6 184.48,-103.45 185.4,-110.39"/>
</a>
</g>
</g>
<!-- Node4 -->
<g id="Node000004" class="node">
<title>Node4</title>
<g id="a_Node000004"><a xlink:href="$classFApplePlatformFile.html#ab2b4489ad06be8096da5840dc5d4d8c2" xlink:title=" ">
<polygon fill="white" stroke="#666666" points="139,-85.5 21.75,-85.5 21.75,-52 139,-52 139,-85.5"/>
<text xml:space="preserve" text-anchor="start" x="29.75" y="-72" font-family="Helvetica,sans-Serif" font-size="10.00">FApplePlatformFile</text>
<text xml:space="preserve" text-anchor="middle" x="80.38" y="-59.25" font-family="Helvetica,sans-Serif" font-size="10.00">::NormalizeDirectory</text>
</a>
</g>
</g>
<!-- Node1&#45;&gt;Node4 -->
<g id="edge3_Node000001_Node000004" class="edge">
<title>Node1&#45;&gt;Node4</title>
<g id="a_edge3_Node000001_Node000004"><a xlink:title=" ">
<path fill="none" stroke="#63b8ff" d="M185.06,-82.59C169.48,-80.51 153.68,-78.4 139.27,-76.48"/>
<polygon fill="#63b8ff" stroke="#63b8ff" points="184.48,-86.05 194.85,-83.9 185.4,-79.11 184.48,-86.05"/>
</a>
</g>
</g>
<!-- Node5 -->
<g id="Node000005" class="node">
<title>Node5</title>
<g id="a_Node000005"><a xlink:href="$classFUnixPlatformFile.html#acd7bec10797fd22cb03259e21a87405e" xlink:title=" ">
<polygon fill="white" stroke="#666666" points="136,-33.5 24.75,-33.5 24.75,0 136,0 136,-33.5"/>
<text xml:space="preserve" text-anchor="start" x="32.75" y="-20" font-family="Helvetica,sans-Serif" font-size="10.00">FUnixPlatformFile::</text>
<text xml:space="preserve" text-anchor="middle" x="80.38" y="-7.25" font-family="Helvetica,sans-Serif" font-size="10.00">NormalizeDirectory</text>
</a>
</g>
</g>
<!-- Node1&#45;&gt;Node5 -->
<g id="edge4_Node000001_Node000005" class="edge">
<title>Node1&#45;&gt;Node5</title>
<g id="a_edge4_Node000001_Node000005"><a xlink:title=" ">
<path fill="none" stroke="#63b8ff" d="M244.12,-79.21C221.18,-68.35 189.4,-53.86 160.75,-42.75 152.91,-39.71 144.55,-36.71 136.3,-33.89"/>
<polygon fill="#63b8ff" stroke="#63b8ff" points="242.41,-82.27 252.94,-83.42 245.42,-75.96 242.41,-82.27"/>
</a>
</g>
</g>
</g>
</svg>
