<?xml version="1.0" encoding="UTF-8" standalone="no"?>
<!DOCTYPE svg PUBLIC "-//W3C//DTD SVG 1.1//EN"
 "http://www.w3.org/Graphics/SVG/1.1/DTD/svg11.dtd">
<!-- Generated by graphviz version 14.1.4 (0)
 -->
<!-- Title: UBlendProfile Pages: 1 -->
<svg width="224pt" height="561pt"
 viewBox="0.00 0.00 224.00 561.00" xmlns="http://www.w3.org/2000/svg" xmlns:xlink="http://www.w3.org/1999/xlink">
<g id="graph0" class="graph" transform="scale(1 1) rotate(0) translate(4 557)">
<title>UBlendProfile</title>
<!-- Node1 -->
<g id="Node000001" class="node">
<title>Node1</title>
<g id="a_Node000001"><a xlink:title=" ">
<polygon fill="#999999" stroke="none" points="177.75,-288.75 0,-288.75 0,0 177.75,0 177.75,-288.75"/>
<text xml:space="preserve" text-anchor="start" x="55.5" y="-275" font-family="Helvetica,sans-Serif" font-size="10.00">UBlendProfile</text>
<text xml:space="preserve" text-anchor="start" x="4" y="-258.25" font-family="Helvetica,sans-Serif" font-size="10.00">+</text>
<text xml:space="preserve" text-anchor="start" x="16.25" y="-258.25" font-family="Helvetica,sans-Serif" font-size="10.00">OwningSkeleton</text>
<text xml:space="preserve" text-anchor="start" x="4" y="-241.5" font-family="Helvetica,sans-Serif" font-size="10.00">+</text>
<text xml:space="preserve" text-anchor="start" x="16.25" y="-241.5" font-family="Helvetica,sans-Serif" font-size="10.00">ProfileEntries</text>
<text xml:space="preserve" text-anchor="start" x="4" y="-224.75" font-family="Helvetica,sans-Serif" font-size="10.00">+</text>
<text xml:space="preserve" text-anchor="start" x="16.25" y="-224.75" font-family="Helvetica,sans-Serif" font-size="10.00">Mode</text>
<text xml:space="preserve" text-anchor="start" x="4" y="-208" font-family="Helvetica,sans-Serif" font-size="10.00">+</text>
<text xml:space="preserve" text-anchor="start" x="16.25" y="-208" font-family="Helvetica,sans-Serif" font-size="10.00">UBlendProfile()</text>
<text xml:space="preserve" text-anchor="start" x="4" y="-191.25" font-family="Helvetica,sans-Serif" font-size="10.00">+</text>
<text xml:space="preserve" text-anchor="start" x="16.25" y="-191.25" font-family="Helvetica,sans-Serif" font-size="10.00">GetNumBlendEntries()</text>
<text xml:space="preserve" text-anchor="start" x="4" y="-174.5" font-family="Helvetica,sans-Serif" font-size="10.00">+</text>
<text xml:space="preserve" text-anchor="start" x="16.25" y="-174.5" font-family="Helvetica,sans-Serif" font-size="10.00">SetBoneBlendScale()</text>
<text xml:space="preserve" text-anchor="start" x="4" y="-157.75" font-family="Helvetica,sans-Serif" font-size="10.00">+</text>
<text xml:space="preserve" text-anchor="start" x="16.25" y="-157.75" font-family="Helvetica,sans-Serif" font-size="10.00">SetBoneBlendScale()</text>
<text xml:space="preserve" text-anchor="start" x="4" y="-141" font-family="Helvetica,sans-Serif" font-size="10.00">+</text>
<text xml:space="preserve" text-anchor="start" x="16.25" y="-141" font-family="Helvetica,sans-Serif" font-size="10.00">RemoveEntry()</text>
<text xml:space="preserve" text-anchor="start" x="4" y="-124.25" font-family="Helvetica,sans-Serif" font-size="10.00">+</text>
<text xml:space="preserve" text-anchor="start" x="16.25" y="-124.25" font-family="Helvetica,sans-Serif" font-size="10.00">RefreshBoneEntry()</text>
<text xml:space="preserve" text-anchor="start" x="4" y="-107.5" font-family="Helvetica,sans-Serif" font-size="10.00">+</text>
<text xml:space="preserve" text-anchor="start" x="16.25" y="-107.5" font-family="Helvetica,sans-Serif" font-size="10.00">RefreshBoneEntriesFromName()</text>
<text xml:space="preserve" text-anchor="start" x="4" y="-90.75" font-family="Helvetica,sans-Serif" font-size="10.00">+</text>
<text xml:space="preserve" text-anchor="start" x="16.25" y="-90.75" font-family="Helvetica,sans-Serif" font-size="10.00">CleanupBoneEntries()</text>
<text xml:space="preserve" text-anchor="start" x="4" y="-74" font-family="Helvetica,sans-Serif" font-size="10.00">+</text>
<text xml:space="preserve" text-anchor="start" x="16.25" y="-74" font-family="Helvetica,sans-Serif" font-size="10.00">GetSkeleton()</text>
<text xml:space="preserve" text-anchor="start" x="4" y="-57.25" font-family="Helvetica,sans-Serif" font-size="10.00">+</text>
<text xml:space="preserve" text-anchor="start" x="16.25" y="-57.25" font-family="Helvetica,sans-Serif" font-size="10.00">GetEntry()</text>
<text xml:space="preserve" text-anchor="start" x="16.25" y="-40.5" font-family="Helvetica,sans-Serif" font-size="10.00">and 19 more...</text>
<text xml:space="preserve" text-anchor="start" x="4" y="-23.75" font-family="Helvetica,sans-Serif" font-size="10.00">+</text>
<text xml:space="preserve" text-anchor="start" x="16.25" y="-23.75" font-family="Helvetica,sans-Serif" font-size="10.00">CalculateBoneWeight()</text>
<text xml:space="preserve" text-anchor="start" x="6.25" y="-7" font-family="Helvetica,sans-Serif" font-size="10.00">&#45;</text>
<text xml:space="preserve" text-anchor="start" x="16.25" y="-7" font-family="Helvetica,sans-Serif" font-size="10.00">SetSingleBoneBlendScale()</text>
<polygon fill="#666666" stroke="#666666" points="0,-270 0,-270 177.75,-270 177.75,-270 0,-270"/>
<polygon fill="#666666" stroke="#666666" points="0,-219.75 0,-219.75 14.25,-219.75 14.25,-219.75 0,-219.75"/>
<polygon fill="#666666" stroke="#666666" points="14.25,-219.75 14.25,-219.75 177.75,-219.75 177.75,-219.75 14.25,-219.75"/>
<polygon fill="none" stroke="#666666" points="0,0 0,-288.75 177.75,-288.75 177.75,0 0,0"/>
</a>
</g>
</g>
<!-- Node2 -->
<g id="Node000002" class="node">
<title>Node2</title>
<g id="a_Node000002"><a xlink:title=" ">
<polygon fill="white" stroke="none" points="56.38,-420.88 9.37,-420.88 9.37,-366.62 56.38,-366.62 56.38,-420.88"/>
<text xml:space="preserve" text-anchor="start" x="13.38" y="-407.12" font-family="Helvetica,sans-Serif" font-size="10.00">UObject</text>
<text xml:space="preserve" text-anchor="start" x="29.88" y="-390.38" font-family="Helvetica,sans-Serif" font-size="10.00"> </text>
<text xml:space="preserve" text-anchor="start" x="29.88" y="-373.62" font-family="Helvetica,sans-Serif" font-size="10.00"> </text>
<polygon fill="#666666" stroke="#666666" points="9.38,-402.12 9.38,-402.12 56.38,-402.12 56.38,-402.12 9.38,-402.12"/>
<polygon fill="#666666" stroke="#666666" points="9.38,-385.38 9.38,-385.38 56.38,-385.38 56.38,-385.38 9.38,-385.38"/>
<polygon fill="none" stroke="#666666" points="9.38,-366.62 9.38,-420.88 56.38,-420.88 56.38,-366.62 9.38,-366.62"/>
</a>
</g>
</g>
<!-- Node2&#45;&gt;Node1 -->
<g id="edge1_Node000001_Node000002" class="edge">
<title>Node2&#45;&gt;Node1</title>
<g id="a_edge1_Node000001_Node000002"><a xlink:title=" ">
<path fill="none" stroke="#63b8ff" d="M41.27,-355.65C45.46,-337.15 50.82,-313.46 56.43,-288.69"/>
<polygon fill="none" stroke="#63b8ff" points="37.89,-354.74 39.1,-365.27 44.72,-356.29 37.89,-354.74"/>
</a>
</g>
</g>
<!-- Node3 -->
<g id="Node000003" class="node">
<title>Node3</title>
<g id="a_Node000003"><a xlink:href="classIBlendProfileInterface.html" target="_top" xlink:title=" ">
<polygon fill="white" stroke="none" points="215.75,-462.75 74,-462.75 74,-324.75 215.75,-324.75 215.75,-462.75"/>
<text xml:space="preserve" text-anchor="start" x="92" y="-449" font-family="Helvetica,sans-Serif" font-size="10.00">IBlendProfileInterface</text>
<text xml:space="preserve" text-anchor="start" x="141.88" y="-432.25" font-family="Helvetica,sans-Serif" font-size="10.00"> </text>
<text xml:space="preserve" text-anchor="start" x="78" y="-415.5" font-family="Helvetica,sans-Serif" font-size="10.00">+</text>
<text xml:space="preserve" text-anchor="start" x="90.25" y="-415.5" font-family="Helvetica,sans-Serif" font-size="10.00">~IBlendProfileInterface()</text>
<text xml:space="preserve" text-anchor="start" x="78" y="-398.75" font-family="Helvetica,sans-Serif" font-size="10.00">+</text>
<text xml:space="preserve" text-anchor="start" x="90.25" y="-398.75" font-family="Helvetica,sans-Serif" font-size="10.00">GetBoneBlendScale()</text>
<text xml:space="preserve" text-anchor="start" x="78" y="-382" font-family="Helvetica,sans-Serif" font-size="10.00">+</text>
<text xml:space="preserve" text-anchor="start" x="90.25" y="-382" font-family="Helvetica,sans-Serif" font-size="10.00">GetNumBlendEntries()</text>
<text xml:space="preserve" text-anchor="start" x="78" y="-365.25" font-family="Helvetica,sans-Serif" font-size="10.00">+</text>
<text xml:space="preserve" text-anchor="start" x="90.25" y="-365.25" font-family="Helvetica,sans-Serif" font-size="10.00">GetSkeleton()</text>
<text xml:space="preserve" text-anchor="start" x="78" y="-348.5" font-family="Helvetica,sans-Serif" font-size="10.00">+</text>
<text xml:space="preserve" text-anchor="start" x="90.25" y="-348.5" font-family="Helvetica,sans-Serif" font-size="10.00">GetMode()</text>
<text xml:space="preserve" text-anchor="start" x="78" y="-331.75" font-family="Helvetica,sans-Serif" font-size="10.00">+</text>
<text xml:space="preserve" text-anchor="start" x="90.25" y="-331.75" font-family="Helvetica,sans-Serif" font-size="10.00">UpdateBoneWeights()</text>
<polygon fill="#666666" stroke="#666666" points="74,-444 74,-444 215.75,-444 215.75,-444 74,-444"/>
<polygon fill="#666666" stroke="#666666" points="74,-427.25 74,-427.25 215.75,-427.25 215.75,-427.25 74,-427.25"/>
<polygon fill="none" stroke="#666666" points="74,-324.75 74,-462.75 215.75,-462.75 215.75,-324.75 74,-324.75"/>
</a>
</g>
</g>
<!-- Node3&#45;&gt;Node1 -->
<g id="edge2_Node000001_Node000003" class="edge">
<title>Node3&#45;&gt;Node1</title>
<g id="a_edge2_Node000001_Node000003"><a xlink:title=" ">
<path fill="none" stroke="#63b8ff" d="M126.96,-313.6C125.13,-305.51 123.23,-297.12 121.3,-288.61"/>
<polygon fill="none" stroke="#63b8ff" points="123.54,-314.37 129.16,-323.35 130.37,-312.82 123.54,-314.37"/>
</a>
</g>
</g>
<!-- Node4 -->
<g id="Node000004" class="node">
<title>Node4</title>
<g id="a_Node000004"><a xlink:title=" ">
<polygon fill="white" stroke="none" points="215.25,-553 74.5,-553 74.5,-498.75 215.25,-498.75 215.25,-553"/>
<text xml:space="preserve" text-anchor="start" x="78.5" y="-539.25" font-family="Helvetica,sans-Serif" font-size="10.00">IInterpolationIndexProvider</text>
<text xml:space="preserve" text-anchor="start" x="141.88" y="-522.5" font-family="Helvetica,sans-Serif" font-size="10.00"> </text>
<text xml:space="preserve" text-anchor="start" x="141.88" y="-505.75" font-family="Helvetica,sans-Serif" font-size="10.00"> </text>
<polygon fill="#666666" stroke="#666666" points="74.5,-534.25 74.5,-534.25 215.25,-534.25 215.25,-534.25 74.5,-534.25"/>
<polygon fill="#666666" stroke="#666666" points="74.5,-517.5 74.5,-517.5 215.25,-517.5 215.25,-517.5 74.5,-517.5"/>
<polygon fill="none" stroke="#666666" points="74.5,-498.75 74.5,-553 215.25,-553 215.25,-498.75 74.5,-498.75"/>
</a>
</g>
</g>
<!-- Node4&#45;&gt;Node3 -->
<g id="edge3_Node000003_Node000004" class="edge">
<title>Node4&#45;&gt;Node3</title>
<g id="a_edge3_Node000003_Node000004"><a xlink:title=" ">
<path fill="none" stroke="#63b8ff" d="M144.88,-487.5C144.88,-479.63 144.88,-471.1 144.88,-462.5"/>
<polygon fill="none" stroke="#63b8ff" points="141.38,-487.34 144.88,-497.34 148.38,-487.34 141.38,-487.34"/>
</a>
</g>
</g>
</g>
</svg>
