<?xml version="1.0" encoding="UTF-8" standalone="no"?>
<!DOCTYPE svg PUBLIC "-//W3C//DTD SVG 1.1//EN"
 "http://www.w3.org/Graphics/SVG/1.1/DTD/svg11.dtd">
<!-- Generated by graphviz version 14.1.4 (0)
 -->
<!-- Title: TRangeSet::GetMinBound Pages: 1 -->
<svg width="353pt" height="68pt"
 viewBox="0.00 0.00 353.00 68.00" xmlns="http://www.w3.org/2000/svg" xmlns:xlink="http://www.w3.org/1999/xlink">
<g id="graph0" class="graph" transform="scale(1 1) rotate(0) translate(4 63.75)">
<title>TRangeSet::GetMinBound</title>
<!-- Node1 -->
<g id="Node000001" class="node">
<title>Node1</title>
<g id="a_Node000001"><a xlink:title=" ">
<polygon fill="#999999" stroke="#666666" points="344.75,-39.75 204.25,-39.75 204.25,-19 344.75,-19 344.75,-39.75"/>
<text xml:space="preserve" text-anchor="middle" x="274.5" y="-26.25" font-family="Helvetica,sans-Serif" font-size="10.00">TRangeSet::GetMinBound</text>
</a>
</g>
</g>
<!-- Node2 -->
<g id="Node000002" class="node">
<title>Node2</title>
<g id="a_Node000002"><a xlink:href="$classTRangeSet.html#ab51397301612bfbabe169145655b58a7" xlink:title=" ">
<polygon fill="white" stroke="#666666" points="168.25,-59.75 0,-59.75 0,-39 168.25,-39 168.25,-59.75"/>
<text xml:space="preserve" text-anchor="middle" x="84.12" y="-46.25" font-family="Helvetica,sans-Serif" font-size="10.00">TRangeSet::GetMinBoundValue</text>
</a>
</g>
</g>
<!-- Node1&#45;&gt;Node2 -->
<g id="edge1_Node000001_Node000002" class="edge">
<title>Node1&#45;&gt;Node2</title>
<g id="a_edge1_Node000001_Node000002"><a xlink:title=" ">
<path fill="none" stroke="#63b8ff" d="M192.68,-37.96C184.66,-38.81 176.52,-39.67 168.48,-40.53"/>
<polygon fill="#63b8ff" stroke="#63b8ff" points="192.81,-41.46 202.39,-36.93 192.07,-34.5 192.81,-41.46"/>
</a>
</g>
</g>
<!-- Node3 -->
<g id="Node000003" class="node">
<title>Node3</title>
<g id="a_Node000003"><a xlink:href="$classTRangeSet.html#ac02c9ed2d81994990af2259606456529" xlink:title=" ">
<polygon fill="white" stroke="#666666" points="155.12,-20.75 13.12,-20.75 13.12,0 155.12,0 155.12,-20.75"/>
<text xml:space="preserve" text-anchor="middle" x="84.12" y="-7.25" font-family="Helvetica,sans-Serif" font-size="10.00">TRangeSet::HasMinBound</text>
</a>
</g>
</g>
<!-- Node1&#45;&gt;Node3 -->
<g id="edge2_Node000001_Node000003" class="edge">
<title>Node1&#45;&gt;Node3</title>
<g id="a_edge2_Node000001_Node000003"><a xlink:title=" ">
<path fill="none" stroke="#63b8ff" d="M192.63,-21.22C180.23,-19.97 167.53,-18.69 155.39,-17.46"/>
<polygon fill="#63b8ff" stroke="#63b8ff" points="192.08,-24.68 202.39,-22.2 192.79,-17.72 192.08,-24.68"/>
</a>
</g>
</g>
</g>
</svg>
