<?xml version="1.0" encoding="UTF-8" standalone="no"?>
<!DOCTYPE svg PUBLIC "-//W3C//DTD SVG 1.1//EN"
 "http://www.w3.org/Graphics/SVG/1.1/DTD/svg11.dtd">
<!-- Generated by graphviz version 14.1.4 (0)
 -->
<!-- Title: FStaticMeshInstanceBuffer Pages: 1 -->
<svg width="777pt" height="577pt"
 viewBox="0.00 0.00 777.00 577.00" xmlns="http://www.w3.org/2000/svg" xmlns:xlink="http://www.w3.org/1999/xlink">
<g id="graph0" class="graph" transform="scale(1 1) rotate(0) translate(4 572.75)">
<title>FStaticMeshInstanceBuffer</title>
<!-- Node1 -->
<g id="Node000001" class="node">
<title>Node1</title>
<g id="a_Node000001"><a xlink:title=" ">
<polygon fill="#999999" stroke="none" points="428.75,-355.75 248.75,-355.75 248.75,0 428.75,0 428.75,-355.75"/>
<text xml:space="preserve" text-anchor="start" x="273.12" y="-342" font-family="Helvetica,sans-Serif" font-size="10.00">FStaticMeshInstanceBuffer</text>
<text xml:space="preserve" text-anchor="start" x="252.75" y="-325.25" font-family="Helvetica,sans-Serif" font-size="10.00">+</text>
<text xml:space="preserve" text-anchor="start" x="265" y="-325.25" font-family="Helvetica,sans-Serif" font-size="10.00">InstanceData</text>
<text xml:space="preserve" text-anchor="start" x="252.75" y="-308.5" font-family="Helvetica,sans-Serif" font-size="10.00">+</text>
<text xml:space="preserve" text-anchor="start" x="265" y="-308.5" font-family="Helvetica,sans-Serif" font-size="10.00">RequireCPUAccess</text>
<text xml:space="preserve" text-anchor="start" x="255" y="-291.75" font-family="Helvetica,sans-Serif" font-size="10.00">&#45;</text>
<text xml:space="preserve" text-anchor="start" x="265" y="-291.75" font-family="Helvetica,sans-Serif" font-size="10.00">bFlushToGPUPending</text>
<text xml:space="preserve" text-anchor="start" x="255" y="-275" font-family="Helvetica,sans-Serif" font-size="10.00">&#45;</text>
<text xml:space="preserve" text-anchor="start" x="265" y="-275" font-family="Helvetica,sans-Serif" font-size="10.00">InstanceOriginSRV</text>
<text xml:space="preserve" text-anchor="start" x="255" y="-258.25" font-family="Helvetica,sans-Serif" font-size="10.00">&#45;</text>
<text xml:space="preserve" text-anchor="start" x="265" y="-258.25" font-family="Helvetica,sans-Serif" font-size="10.00">InstanceTransformSRV</text>
<text xml:space="preserve" text-anchor="start" x="255" y="-241.5" font-family="Helvetica,sans-Serif" font-size="10.00">&#45;</text>
<text xml:space="preserve" text-anchor="start" x="265" y="-241.5" font-family="Helvetica,sans-Serif" font-size="10.00">InstanceLightmapSRV</text>
<text xml:space="preserve" text-anchor="start" x="255" y="-224.75" font-family="Helvetica,sans-Serif" font-size="10.00">&#45;</text>
<text xml:space="preserve" text-anchor="start" x="265" y="-224.75" font-family="Helvetica,sans-Serif" font-size="10.00">InstanceCustomDataSRV</text>
<text xml:space="preserve" text-anchor="start" x="252.75" y="-208" font-family="Helvetica,sans-Serif" font-size="10.00">+</text>
<text xml:space="preserve" text-anchor="start" x="265" y="-208" font-family="Helvetica,sans-Serif" font-size="10.00">FStaticMeshInstanceBuffer()</text>
<text xml:space="preserve" text-anchor="start" x="252.75" y="-191.25" font-family="Helvetica,sans-Serif" font-size="10.00">+</text>
<text xml:space="preserve" text-anchor="start" x="265" y="-191.25" font-family="Helvetica,sans-Serif" font-size="10.00">~FStaticMeshInstanceBuffer()</text>
<text xml:space="preserve" text-anchor="start" x="252.75" y="-174.5" font-family="Helvetica,sans-Serif" font-size="10.00">+</text>
<text xml:space="preserve" text-anchor="start" x="265" y="-174.5" font-family="Helvetica,sans-Serif" font-size="10.00">InitFromPreallocatedData()</text>
<text xml:space="preserve" text-anchor="start" x="252.75" y="-157.75" font-family="Helvetica,sans-Serif" font-size="10.00">+</text>
<text xml:space="preserve" text-anchor="start" x="265" y="-157.75" font-family="Helvetica,sans-Serif" font-size="10.00">operator=()</text>
<text xml:space="preserve" text-anchor="start" x="252.75" y="-141" font-family="Helvetica,sans-Serif" font-size="10.00">+</text>
<text xml:space="preserve" text-anchor="start" x="265" y="-141" font-family="Helvetica,sans-Serif" font-size="10.00">GetNumInstances()</text>
<text xml:space="preserve" text-anchor="start" x="252.75" y="-124.25" font-family="Helvetica,sans-Serif" font-size="10.00">+</text>
<text xml:space="preserve" text-anchor="start" x="265" y="-124.25" font-family="Helvetica,sans-Serif" font-size="10.00">GetInstanceTransform()</text>
<text xml:space="preserve" text-anchor="start" x="252.75" y="-107.5" font-family="Helvetica,sans-Serif" font-size="10.00">+</text>
<text xml:space="preserve" text-anchor="start" x="265" y="-107.5" font-family="Helvetica,sans-Serif" font-size="10.00">GetInstanceRandomID()</text>
<text xml:space="preserve" text-anchor="start" x="252.75" y="-90.75" font-family="Helvetica,sans-Serif" font-size="10.00">+</text>
<text xml:space="preserve" text-anchor="start" x="265" y="-90.75" font-family="Helvetica,sans-Serif" font-size="10.00">GetInstanceEditorData()</text>
<text xml:space="preserve" text-anchor="start" x="252.75" y="-74" font-family="Helvetica,sans-Serif" font-size="10.00">+</text>
<text xml:space="preserve" text-anchor="start" x="265" y="-74" font-family="Helvetica,sans-Serif" font-size="10.00">GetInstanceLightMapData()</text>
<text xml:space="preserve" text-anchor="start" x="252.75" y="-57.25" font-family="Helvetica,sans-Serif" font-size="10.00">+</text>
<text xml:space="preserve" text-anchor="start" x="265" y="-57.25" font-family="Helvetica,sans-Serif" font-size="10.00">GetInstanceCustomDataValues()</text>
<text xml:space="preserve" text-anchor="start" x="265" y="-40.5" font-family="Helvetica,sans-Serif" font-size="10.00">and 13 more...</text>
<text xml:space="preserve" text-anchor="start" x="255" y="-23.75" font-family="Helvetica,sans-Serif" font-size="10.00">&#45;</text>
<text xml:space="preserve" text-anchor="start" x="265" y="-23.75" font-family="Helvetica,sans-Serif" font-size="10.00">CleanUp()</text>
<text xml:space="preserve" text-anchor="start" x="255" y="-7" font-family="Helvetica,sans-Serif" font-size="10.00">&#45;</text>
<text xml:space="preserve" text-anchor="start" x="265" y="-7" font-family="Helvetica,sans-Serif" font-size="10.00">CreateVertexBuffer()</text>
<polygon fill="#666666" stroke="#666666" points="248.75,-337 248.75,-337 428.75,-337 428.75,-337 248.75,-337"/>
<polygon fill="#666666" stroke="#666666" points="248.75,-219.75 248.75,-219.75 263,-219.75 263,-219.75 248.75,-219.75"/>
<polygon fill="#666666" stroke="#666666" points="263,-219.75 263,-219.75 428.75,-219.75 428.75,-219.75 263,-219.75"/>
<polygon fill="none" stroke="#666666" points="248.75,0 248.75,-355.75 428.75,-355.75 428.75,0 248.75,0"/>
</a>
</g>
</g>
<!-- Node2 -->
<g id="Node000002" class="node">
<title>Node2</title>
<g id="a_Node000002"><a xlink:title=" ">
<polygon fill="white" stroke="none" points="93.5,-471.12 0,-471.12 0,-416.88 93.5,-416.88 93.5,-471.12"/>
<text xml:space="preserve" text-anchor="start" x="4" y="-457.38" font-family="Helvetica,sans-Serif" font-size="10.00">FRenderResource</text>
<text xml:space="preserve" text-anchor="start" x="43.75" y="-440.62" font-family="Helvetica,sans-Serif" font-size="10.00"> </text>
<text xml:space="preserve" text-anchor="start" x="43.75" y="-423.88" font-family="Helvetica,sans-Serif" font-size="10.00"> </text>
<polygon fill="#666666" stroke="#666666" points="0,-452.38 0,-452.38 93.5,-452.38 93.5,-452.38 0,-452.38"/>
<polygon fill="#666666" stroke="#666666" points="0,-435.62 0,-435.62 93.5,-435.62 93.5,-435.62 0,-435.62"/>
<polygon fill="none" stroke="#666666" points="0,-416.88 0,-471.12 93.5,-471.12 93.5,-416.88 0,-416.88"/>
</a>
</g>
</g>
<!-- Node2&#45;&gt;Node1 -->
<g id="edge1_Node000001_Node000002" class="edge">
<title>Node2&#45;&gt;Node1</title>
<g id="a_edge1_Node000001_Node000002"><a xlink:title=" ">
<path fill="none" stroke="#63b8ff" d="M83.94,-409.36C125.23,-372.01 193.38,-310.37 248.81,-260.22"/>
<polygon fill="none" stroke="#63b8ff" points="81.74,-406.63 76.67,-415.94 86.43,-411.82 81.74,-406.63"/>
</a>
</g>
</g>
<!-- Node3 -->
<g id="Node000003" class="node">
<title>Node3</title>
<g id="a_Node000003"><a xlink:href="classFStaticMeshInstanceBuffer_1_1FInstanceOriginBuffer.html" target="_top" xlink:title=" ">
<polygon fill="white" stroke="none" points="250.38,-477.5 111.12,-477.5 111.12,-410.5 250.38,-410.5 250.38,-477.5"/>
<text xml:space="preserve" text-anchor="start" x="115.12" y="-463.75" font-family="Helvetica,sans-Serif" font-size="10.00">FStaticMeshInstanceBuffer</text>
<text xml:space="preserve" text-anchor="start" x="124.5" y="-451" font-family="Helvetica,sans-Serif" font-size="10.00">::FInstanceOriginBuffer</text>
<text xml:space="preserve" text-anchor="start" x="177.75" y="-434.25" font-family="Helvetica,sans-Serif" font-size="10.00"> </text>
<text xml:space="preserve" text-anchor="start" x="122.75" y="-417.5" font-family="Helvetica,sans-Serif" font-size="10.00">&#45;</text>
<text xml:space="preserve" text-anchor="start" x="138.12" y="-417.5" font-family="Helvetica,sans-Serif" font-size="10.00">GetFriendlyName()</text>
<polygon fill="#666666" stroke="#666666" points="111.12,-446 111.12,-446 250.38,-446 250.38,-446 111.12,-446"/>
<polygon fill="#666666" stroke="#666666" points="111.12,-429.25 111.12,-429.25 250.38,-429.25 250.38,-429.25 111.12,-429.25"/>
<polygon fill="none" stroke="#666666" points="111.12,-410.5 111.12,-477.5 250.38,-477.5 250.38,-410.5 111.12,-410.5"/>
</a>
</g>
</g>
<!-- Node3&#45;&gt;Node1 -->
<g id="edge2_Node000001_Node000003" class="edge">
<title>Node3&#45;&gt;Node1</title>
<g id="a_edge2_Node000001_Node000003"><a xlink:title=" ">
<path fill="none" stroke="#63b8ff" d="M200.12,-410.61C211.28,-391.97 226.22,-366.99 242.17,-340.32"/>
<polygon fill="none" stroke="#63b8ff" points="242.19,-340.29 241.84,-333.08 248.35,-329.99 248.71,-337.19 242.19,-340.29"/>
</a>
</g>
<text xml:space="preserve" text-anchor="start" x="221.93" y="-379.75" font-family="Helvetica,sans-Serif" font-size="10.00" fill="grey">&#45;InstanceOriginBuffer</text>
</g>
<!-- Node4 -->
<g id="Node000004" class="node">
<title>Node4</title>
<g id="a_Node000004"><a xlink:title=" ">
<polygon fill="white" stroke="none" points="454.88,-568.75 378.62,-568.75 378.62,-514.5 454.88,-514.5 454.88,-568.75"/>
<text xml:space="preserve" text-anchor="start" x="382.62" y="-555" font-family="Helvetica,sans-Serif" font-size="10.00">FVertexBuffer</text>
<text xml:space="preserve" text-anchor="start" x="413.75" y="-538.25" font-family="Helvetica,sans-Serif" font-size="10.00"> </text>
<text xml:space="preserve" text-anchor="start" x="413.75" y="-521.5" font-family="Helvetica,sans-Serif" font-size="10.00"> </text>
<polygon fill="#666666" stroke="#666666" points="378.62,-550 378.62,-550 454.88,-550 454.88,-550 378.62,-550"/>
<polygon fill="#666666" stroke="#666666" points="378.62,-533.25 378.62,-533.25 454.88,-533.25 454.88,-533.25 378.62,-533.25"/>
<polygon fill="none" stroke="#666666" points="378.62,-514.5 378.62,-568.75 454.88,-568.75 454.88,-514.5 378.62,-514.5"/>
</a>
</g>
</g>
<!-- Node4&#45;&gt;Node3 -->
<g id="edge3_Node000003_Node000004" class="edge">
<title>Node4&#45;&gt;Node3</title>
<g id="a_edge3_Node000003_Node000004"><a xlink:title=" ">
<path fill="none" stroke="#63b8ff" d="M368.11,-521.19C337.08,-508.75 296.02,-492.25 259.75,-477.5 256.59,-476.21 253.36,-474.9 250.1,-473.57"/>
<polygon fill="none" stroke="#63b8ff" points="366.66,-524.37 377.24,-524.84 369.26,-517.87 366.66,-524.37"/>
</a>
</g>
</g>
<!-- Node5 -->
<g id="Node000005" class="node">
<title>Node5</title>
<g id="a_Node000005"><a xlink:href="classFStaticMeshInstanceBuffer_1_1FInstanceTransformBuffer.html" target="_top" xlink:title=" ">
<polygon fill="white" stroke="none" points="409.12,-477.5 268.38,-477.5 268.38,-410.5 409.12,-410.5 409.12,-477.5"/>
<text xml:space="preserve" text-anchor="start" x="272.38" y="-463.75" font-family="Helvetica,sans-Serif" font-size="10.00">FStaticMeshInstanceBuffer</text>
<text xml:space="preserve" text-anchor="start" x="272.38" y="-451" font-family="Helvetica,sans-Serif" font-size="10.00">::FInstanceTransformBuffer</text>
<text xml:space="preserve" text-anchor="start" x="335.75" y="-434.25" font-family="Helvetica,sans-Serif" font-size="10.00"> </text>
<text xml:space="preserve" text-anchor="start" x="280.38" y="-417.5" font-family="Helvetica,sans-Serif" font-size="10.00">&#45;</text>
<text xml:space="preserve" text-anchor="start" x="296.12" y="-417.5" font-family="Helvetica,sans-Serif" font-size="10.00">GetFriendlyName()</text>
<polygon fill="#666666" stroke="#666666" points="268.38,-446 268.38,-446 409.12,-446 409.12,-446 268.38,-446"/>
<polygon fill="#666666" stroke="#666666" points="268.38,-429.25 268.38,-429.25 409.12,-429.25 409.12,-429.25 268.38,-429.25"/>
<polygon fill="none" stroke="#666666" points="268.38,-410.5 268.38,-477.5 409.12,-477.5 409.12,-410.5 268.38,-410.5"/>
</a>
</g>
</g>
<!-- Node4&#45;&gt;Node5 -->
<g id="edge5_Node000005_Node000004" class="edge">
<title>Node4&#45;&gt;Node5</title>
<g id="a_edge5_Node000005_Node000004"><a xlink:title=" ">
<path fill="none" stroke="#63b8ff" d="M388.56,-506.06C380.93,-496.71 372.7,-486.63 365.18,-477.4"/>
<polygon fill="none" stroke="#63b8ff" points="385.65,-508.04 394.69,-513.57 391.08,-503.61 385.65,-508.04"/>
</a>
</g>
</g>
<!-- Node6 -->
<g id="Node000006" class="node">
<title>Node6</title>
<g id="a_Node000006"><a xlink:href="classFStaticMeshInstanceBuffer_1_1FInstanceLightmapBuffer.html" target="_top" xlink:title=" ">
<polygon fill="white" stroke="none" points="566.38,-477.5 427.12,-477.5 427.12,-410.5 566.38,-410.5 566.38,-477.5"/>
<text xml:space="preserve" text-anchor="start" x="431.12" y="-463.75" font-family="Helvetica,sans-Serif" font-size="10.00">FStaticMeshInstanceBuffer</text>
<text xml:space="preserve" text-anchor="start" x="432.25" y="-451" font-family="Helvetica,sans-Serif" font-size="10.00">::FInstanceLightmapBuffer</text>
<text xml:space="preserve" text-anchor="start" x="493.75" y="-434.25" font-family="Helvetica,sans-Serif" font-size="10.00"> </text>
<text xml:space="preserve" text-anchor="start" x="438.75" y="-417.5" font-family="Helvetica,sans-Serif" font-size="10.00">&#45;</text>
<text xml:space="preserve" text-anchor="start" x="454.12" y="-417.5" font-family="Helvetica,sans-Serif" font-size="10.00">GetFriendlyName()</text>
<polygon fill="#666666" stroke="#666666" points="427.12,-446 427.12,-446 566.38,-446 566.38,-446 427.12,-446"/>
<polygon fill="#666666" stroke="#666666" points="427.12,-429.25 427.12,-429.25 566.38,-429.25 566.38,-429.25 427.12,-429.25"/>
<polygon fill="none" stroke="#666666" points="427.12,-410.5 427.12,-477.5 566.38,-477.5 566.38,-410.5 427.12,-410.5"/>
</a>
</g>
</g>
<!-- Node4&#45;&gt;Node6 -->
<g id="edge7_Node000006_Node000004" class="edge">
<title>Node4&#45;&gt;Node6</title>
<g id="a_edge7_Node000006_Node000004"><a xlink:title=" ">
<path fill="none" stroke="#63b8ff" d="M445.67,-506.06C453.49,-496.71 461.93,-486.63 469.64,-477.4"/>
<polygon fill="none" stroke="#63b8ff" points="443.1,-503.67 439.37,-513.59 448.47,-508.16 443.1,-503.67"/>
</a>
</g>
</g>
<!-- Node7 -->
<g id="Node000007" class="node">
<title>Node7</title>
<g id="a_Node000007"><a xlink:href="classFStaticMeshInstanceBuffer_1_1FInstanceCustomDataBuffer.html" target="_top" xlink:title=" ">
<polygon fill="white" stroke="none" points="736.75,-477.5 584.75,-477.5 584.75,-410.5 736.75,-410.5 736.75,-477.5"/>
<text xml:space="preserve" text-anchor="start" x="588.75" y="-463.75" font-family="Helvetica,sans-Serif" font-size="10.00">FStaticMeshInstanceBuffer</text>
<text xml:space="preserve" text-anchor="start" x="588.75" y="-451" font-family="Helvetica,sans-Serif" font-size="10.00">::FInstanceCustomDataBuffer</text>
<text xml:space="preserve" text-anchor="start" x="657.75" y="-434.25" font-family="Helvetica,sans-Serif" font-size="10.00"> </text>
<text xml:space="preserve" text-anchor="start" x="599.56" y="-417.5" font-family="Helvetica,sans-Serif" font-size="10.00">&#45;</text>
<text xml:space="preserve" text-anchor="start" x="618.12" y="-417.5" font-family="Helvetica,sans-Serif" font-size="10.00">GetFriendlyName()</text>
<polygon fill="#666666" stroke="#666666" points="584.75,-446 584.75,-446 736.75,-446 736.75,-446 584.75,-446"/>
<polygon fill="#666666" stroke="#666666" points="584.75,-429.25 584.75,-429.25 736.75,-429.25 736.75,-429.25 584.75,-429.25"/>
<polygon fill="none" stroke="#666666" points="584.75,-410.5 584.75,-477.5 736.75,-477.5 736.75,-410.5 584.75,-410.5"/>
</a>
</g>
</g>
<!-- Node4&#45;&gt;Node7 -->
<g id="edge9_Node000007_Node000004" class="edge">
<title>Node4&#45;&gt;Node7</title>
<g id="a_edge9_Node000007_Node000004"><a xlink:title=" ">
<path fill="none" stroke="#63b8ff" d="M465.5,-521.52C499.62,-508.15 545.88,-490.02 584.8,-474.76"/>
<polygon fill="none" stroke="#63b8ff" points="464.32,-518.22 456.28,-525.13 466.87,-524.74 464.32,-518.22"/>
</a>
</g>
</g>
<!-- Node5&#45;&gt;Node1 -->
<g id="edge4_Node000001_Node000005" class="edge">
<title>Node5&#45;&gt;Node1</title>
<g id="a_edge4_Node000001_Node000005"><a xlink:title=" ">
<path fill="none" stroke="#63b8ff" d="M338.75,-410.61C338.75,-398.77 338.75,-384.36 338.75,-368.59"/>
<polygon fill="none" stroke="#63b8ff" points="338.75,-368.57 334.75,-362.57 338.75,-356.57 342.75,-362.57 338.75,-368.57"/>
</a>
</g>
<text xml:space="preserve" text-anchor="start" x="341.75" y="-379.75" font-family="Helvetica,sans-Serif" font-size="10.00" fill="grey">&#45;InstanceTransformBuffer</text>
</g>
<!-- Node6&#45;&gt;Node1 -->
<g id="edge6_Node000001_Node000006" class="edge">
<title>Node6&#45;&gt;Node1</title>
<g id="a_edge6_Node000001_Node000006"><a xlink:title=" ">
<path fill="none" stroke="#63b8ff" d="M487.5,-410.55C483.6,-398.68 478.6,-385.33 472.75,-373.75 461.95,-352.37 449.11,-330.62 435.72,-309.78"/>
<polygon fill="none" stroke="#63b8ff" points="435.72,-309.77 429.1,-306.93 429.18,-299.72 435.8,-302.56 435.72,-309.77"/>
</a>
</g>
<text xml:space="preserve" text-anchor="start" x="483.89" y="-379.75" font-family="Helvetica,sans-Serif" font-size="10.00" fill="grey">&#45;InstanceLightmapBuffer</text>
</g>
<!-- Node7&#45;&gt;Node1 -->
<g id="edge8_Node000001_Node000007" class="edge">
<title>Node7&#45;&gt;Node1</title>
<g id="a_edge8_Node000001_Node000007"><a xlink:title=" ">
<path fill="none" stroke="#63b8ff" d="M641.11,-410.58C632.87,-398.33 622.66,-384.71 611.75,-373.75 560.23,-322.01 493.68,-274.2 439.19,-238.89"/>
<polygon fill="none" stroke="#63b8ff" points="439.31,-238.97 432.1,-239.09 429.22,-232.48 436.43,-232.36 439.31,-238.97"/>
</a>
</g>
<text xml:space="preserve" text-anchor="start" x="630.06" y="-379.75" font-family="Helvetica,sans-Serif" font-size="10.00" fill="grey">&#45;InstanceCustomDataBuffer</text>
</g>
</g>
</svg>
