<?xml version="1.0" encoding="UTF-8" standalone="no"?>
<!DOCTYPE svg PUBLIC "-//W3C//DTD SVG 1.1//EN"
 "http://www.w3.org/Graphics/SVG/1.1/DTD/svg11.dtd">
<!-- Generated by graphviz version 14.1.4 (0)
 -->
<!-- Title: FRefCountBase Pages: 1 -->
<svg width="149pt" height="333pt"
 viewBox="0.00 0.00 149.00 333.00" xmlns="http://www.w3.org/2000/svg" xmlns:xlink="http://www.w3.org/1999/xlink">
<g id="graph0" class="graph" transform="scale(1 1) rotate(0) translate(4 328.75)">
<title>FRefCountBase</title>
<!-- Node1 -->
<g id="Node000001" class="node">
<title>Node1</title>
<g id="a_Node000001"><a xlink:title=" ">
<polygon fill="#999999" stroke="none" points="125.88,-171.5 14.88,-171.5 14.88,0 125.88,0 125.88,-171.5"/>
<text xml:space="preserve" text-anchor="start" x="32.88" y="-157.75" font-family="Helvetica,sans-Serif" font-size="10.00">FRefCountBase</text>
<text xml:space="preserve" text-anchor="start" x="67.38" y="-141" font-family="Helvetica,sans-Serif" font-size="10.00"> </text>
<text xml:space="preserve" text-anchor="start" x="18.88" y="-124.25" font-family="Helvetica,sans-Serif" font-size="10.00">+</text>
<text xml:space="preserve" text-anchor="start" x="31.12" y="-124.25" font-family="Helvetica,sans-Serif" font-size="10.00">FRefCountBase()</text>
<text xml:space="preserve" text-anchor="start" x="18.88" y="-107.5" font-family="Helvetica,sans-Serif" font-size="10.00">+</text>
<text xml:space="preserve" text-anchor="start" x="31.12" y="-107.5" font-family="Helvetica,sans-Serif" font-size="10.00">~FRefCountBase()</text>
<text xml:space="preserve" text-anchor="start" x="18.88" y="-90.75" font-family="Helvetica,sans-Serif" font-size="10.00">+</text>
<text xml:space="preserve" text-anchor="start" x="31.12" y="-90.75" font-family="Helvetica,sans-Serif" font-size="10.00">FRefCountBase()</text>
<text xml:space="preserve" text-anchor="start" x="18.88" y="-74" font-family="Helvetica,sans-Serif" font-size="10.00">+</text>
<text xml:space="preserve" text-anchor="start" x="31.12" y="-74" font-family="Helvetica,sans-Serif" font-size="10.00">operator=()</text>
<text xml:space="preserve" text-anchor="start" x="18.88" y="-57.25" font-family="Helvetica,sans-Serif" font-size="10.00">+</text>
<text xml:space="preserve" text-anchor="start" x="31.12" y="-57.25" font-family="Helvetica,sans-Serif" font-size="10.00">AddRef()</text>
<text xml:space="preserve" text-anchor="start" x="18.88" y="-40.5" font-family="Helvetica,sans-Serif" font-size="10.00">+</text>
<text xml:space="preserve" text-anchor="start" x="31.12" y="-40.5" font-family="Helvetica,sans-Serif" font-size="10.00">Release()</text>
<text xml:space="preserve" text-anchor="start" x="18.88" y="-23.75" font-family="Helvetica,sans-Serif" font-size="10.00">+</text>
<text xml:space="preserve" text-anchor="start" x="31.12" y="-23.75" font-family="Helvetica,sans-Serif" font-size="10.00">GetRefCount()</text>
<text xml:space="preserve" text-anchor="start" x="21.12" y="-7" font-family="Helvetica,sans-Serif" font-size="10.00">&#45;</text>
<text xml:space="preserve" text-anchor="start" x="31.12" y="-7" font-family="Helvetica,sans-Serif" font-size="10.00">DeleteThis()</text>
<polygon fill="#666666" stroke="#666666" points="14.88,-152.75 14.88,-152.75 125.88,-152.75 125.88,-152.75 14.88,-152.75"/>
<polygon fill="#666666" stroke="#666666" points="14.88,-136 14.88,-136 125.88,-136 125.88,-136 14.88,-136"/>
<polygon fill="none" stroke="#666666" points="14.88,0 14.88,-171.5 125.88,-171.5 125.88,0 14.88,0"/>
</a>
</g>
</g>
<!-- Node2 -->
<g id="Node000002" class="node">
<title>Node2</title>
<g id="a_Node000002"><a xlink:href="$classUE_1_1Private_1_1TTransactionalAtomicRefCount.html" xlink:title=" ">
<polygon fill="white" stroke="none" points="140.75,-324.75 0,-324.75 0,-207.5 140.75,-207.5 140.75,-324.75"/>
<text xml:space="preserve" text-anchor="start" x="4" y="-311" font-family="Helvetica,sans-Serif" font-size="10.00">UE::Private::TTransactional</text>
<text xml:space="preserve" text-anchor="start" x="4" y="-298.25" font-family="Helvetica,sans-Serif" font-size="10.00">AtomicRefCount&lt; uint32 &gt;</text>
<text xml:space="preserve" text-anchor="start" x="9.19" y="-281.5" font-family="Helvetica,sans-Serif" font-size="10.00">&#45;</text>
<text xml:space="preserve" text-anchor="start" x="22.12" y="-281.5" font-family="Helvetica,sans-Serif" font-size="10.00">RefCount</text>
<text xml:space="preserve" text-anchor="start" x="6.94" y="-264.75" font-family="Helvetica,sans-Serif" font-size="10.00">+</text>
<text xml:space="preserve" text-anchor="start" x="22.12" y="-264.75" font-family="Helvetica,sans-Serif" font-size="10.00">AddRef()</text>
<text xml:space="preserve" text-anchor="start" x="6.94" y="-248" font-family="Helvetica,sans-Serif" font-size="10.00">+</text>
<text xml:space="preserve" text-anchor="start" x="22.12" y="-248" font-family="Helvetica,sans-Serif" font-size="10.00">Release()</text>
<text xml:space="preserve" text-anchor="start" x="6.94" y="-231.25" font-family="Helvetica,sans-Serif" font-size="10.00">+</text>
<text xml:space="preserve" text-anchor="start" x="22.12" y="-231.25" font-family="Helvetica,sans-Serif" font-size="10.00">GetRefCount()</text>
<text xml:space="preserve" text-anchor="start" x="9.19" y="-214.5" font-family="Helvetica,sans-Serif" font-size="10.00">&#45;</text>
<text xml:space="preserve" text-anchor="start" x="22.12" y="-214.5" font-family="Helvetica,sans-Serif" font-size="10.00">ImmediatelyRelease()</text>
<polygon fill="#666666" stroke="#666666" points="0,-293.25 0,-293.25 140.75,-293.25 140.75,-293.25 0,-293.25"/>
<polygon fill="#666666" stroke="#666666" points="0,-276.5 0,-276.5 20.12,-276.5 20.12,-276.5 0,-276.5"/>
<polygon fill="#666666" stroke="#666666" points="20.12,-276.5 20.12,-276.5 140.75,-276.5 140.75,-276.5 20.12,-276.5"/>
<polygon fill="none" stroke="#666666" points="0,-207.5 0,-324.75 140.75,-324.75 140.75,-207.5 0,-207.5"/>
</a>
</g>
</g>
<!-- Node2&#45;&gt;Node1 -->
<g id="edge1_Node000001_Node000002" class="edge">
<title>Node2&#45;&gt;Node1</title>
<g id="a_edge1_Node000001_Node000002"><a xlink:title=" ">
<path fill="none" stroke="#8b1a1a" d="M70.38,-196.32C70.38,-188.14 70.38,-179.71 70.38,-171.34"/>
<polygon fill="none" stroke="#8b1a1a" points="66.88,-196.19 70.38,-206.19 73.88,-196.19 66.88,-196.19"/>
</a>
</g>
</g>
</g>
</svg>
