<?xml version="1.0" encoding="UTF-8" standalone="no"?>
<!DOCTYPE svg PUBLIC "-//W3C//DTD SVG 1.1//EN"
 "http://www.w3.org/Graphics/SVG/1.1/DTD/svg11.dtd">
<!-- Generated by graphviz version 14.1.4 (0)
 -->
<!-- Title: TMapBase::FindOrAddImpl Pages: 1 -->
<svg width="866pt" height="515pt"
 viewBox="0.00 0.00 866.00 515.00" xmlns="http://www.w3.org/2000/svg" xmlns:xlink="http://www.w3.org/1999/xlink">
<g id="graph0" class="graph" transform="scale(1 1) rotate(0) translate(4 510.75)">
<title>TMapBase::FindOrAddImpl</title>
<!-- Node1 -->
<g id="Node000001" class="node">
<title>Node1</title>
<g id="a_Node000001"><a xlink:title=" ">
<polygon fill="#999999" stroke="#666666" points="857.75,-234.75 713.5,-234.75 713.5,-214 857.75,-214 857.75,-234.75"/>
<text xml:space="preserve" text-anchor="middle" x="785.62" y="-221.25" font-family="Helvetica,sans-Serif" font-size="10.00">TMapBase::FindOrAddImpl</text>
</a>
</g>
</g>
<!-- Node2 -->
<g id="Node000002" class="node">
<title>Node2</title>
<g id="a_Node000002"><a xlink:href="$classTMapBase.html#a7397a709beb8427950b65a571baf922d" xlink:title=" ">
<polygon fill="white" stroke="#666666" points="658.75,-449.75 536.25,-449.75 536.25,-429 658.75,-429 658.75,-449.75"/>
<text xml:space="preserve" text-anchor="middle" x="597.5" y="-436.25" font-family="Helvetica,sans-Serif" font-size="10.00">TMapBase::FindOrAdd</text>
</a>
</g>
</g>
<!-- Node1&#45;&gt;Node2 -->
<g id="edge1_Node000001_Node000002" class="edge">
<title>Node1&#45;&gt;Node2</title>
<g id="a_edge1_Node000001_Node000002"><a xlink:title=" ">
<path fill="none" stroke="#63b8ff" d="M778.91,-246.26C767.13,-286.89 736.21,-373.98 677.5,-419.38 672.02,-423.62 665.74,-426.97 659.17,-429.61"/>
<polygon fill="#63b8ff" stroke="#63b8ff" points="782.26,-247.27 781.56,-236.7 775.52,-245.4 782.26,-247.27"/>
</a>
</g>
</g>
<!-- Node8 -->
<g id="Node000008" class="node">
<title>Node8</title>
<g id="a_Node000008"><a xlink:href="$classTMapBase.html#ac8041ac5f32205de20ff9498c76a2cef" xlink:title=" ">
<polygon fill="white" stroke="#666666" points="658.75,-410.75 536.25,-410.75 536.25,-390 658.75,-390 658.75,-410.75"/>
<text xml:space="preserve" text-anchor="middle" x="597.5" y="-397.25" font-family="Helvetica,sans-Serif" font-size="10.00">TMapBase::FindOrAdd</text>
</a>
</g>
</g>
<!-- Node1&#45;&gt;Node8 -->
<g id="edge8_Node000001_Node000008" class="edge">
<title>Node1&#45;&gt;Node8</title>
<g id="a_edge8_Node000001_Node000008"><a xlink:title=" ">
<path fill="none" stroke="#63b8ff" d="M776.02,-245.61C761.17,-279.51 727.42,-345.6 677.5,-380.38 671.93,-384.26 665.67,-387.39 659.17,-389.91"/>
<polygon fill="#63b8ff" stroke="#63b8ff" points="779.22,-247.03 779.9,-236.45 772.78,-244.3 779.22,-247.03"/>
</a>
</g>
</g>
<!-- Node9 -->
<g id="Node000009" class="node">
<title>Node9</title>
<g id="a_Node000009"><a xlink:href="$classTMapBase.html#a23ecf30d486b62068192da240dce1200" xlink:title=" ">
<polygon fill="white" stroke="#666666" points="658.75,-371.75 536.25,-371.75 536.25,-351 658.75,-351 658.75,-371.75"/>
<text xml:space="preserve" text-anchor="middle" x="597.5" y="-358.25" font-family="Helvetica,sans-Serif" font-size="10.00">TMapBase::FindOrAdd</text>
</a>
</g>
</g>
<!-- Node1&#45;&gt;Node9 -->
<g id="edge9_Node000001_Node000009" class="edge">
<title>Node1&#45;&gt;Node9</title>
<g id="a_edge9_Node000001_Node000009"><a xlink:title=" ">
<path fill="none" stroke="#63b8ff" d="M771.87,-244.37C754.01,-270.7 719.03,-316.55 677.5,-341.38 671.31,-345.08 664.45,-348.1 657.43,-350.56"/>
<polygon fill="#63b8ff" stroke="#63b8ff" points="774.63,-246.55 777.22,-236.27 768.79,-242.69 774.63,-246.55"/>
</a>
</g>
</g>
<!-- Node10 -->
<g id="Node000010" class="node">
<title>Node10</title>
<g id="a_Node000010"><a xlink:href="$classTMapBase.html#ac9a95beffe4d003642837b10dee7d5d1" xlink:title=" ">
<polygon fill="white" stroke="#666666" points="658.75,-332.75 536.25,-332.75 536.25,-312 658.75,-312 658.75,-332.75"/>
<text xml:space="preserve" text-anchor="middle" x="597.5" y="-319.25" font-family="Helvetica,sans-Serif" font-size="10.00">TMapBase::FindOrAdd</text>
</a>
</g>
</g>
<!-- Node1&#45;&gt;Node10 -->
<g id="edge10_Node000001_Node000010" class="edge">
<title>Node1&#45;&gt;Node10</title>
<g id="a_edge10_Node000001_Node000010"><a xlink:title=" ">
<path fill="none" stroke="#63b8ff" d="M764.62,-242.6C744.16,-260.33 710.73,-286.78 677.5,-302.38 669.69,-306.04 661.11,-309.09 652.58,-311.62"/>
<polygon fill="#63b8ff" stroke="#63b8ff" points="766.75,-245.39 771.93,-236.15 762.12,-240.15 766.75,-245.39"/>
</a>
</g>
</g>
<!-- Node11 -->
<g id="Node000011" class="node">
<title>Node11</title>
<g id="a_Node000011"><a xlink:href="$classTMapBase.html#a8c61839e9d7d4ec44be67e6590054835" xlink:title=" ">
<polygon fill="white" stroke="#666666" points="658.75,-293.75 536.25,-293.75 536.25,-273 658.75,-273 658.75,-293.75"/>
<text xml:space="preserve" text-anchor="middle" x="597.5" y="-280.25" font-family="Helvetica,sans-Serif" font-size="10.00">TMapBase::FindOrAdd</text>
</a>
</g>
</g>
<!-- Node1&#45;&gt;Node11 -->
<g id="edge11_Node000001_Node000011" class="edge">
<title>Node1&#45;&gt;Node11</title>
<g id="a_edge11_Node000001_Node000011"><a xlink:title=" ">
<path fill="none" stroke="#63b8ff" d="M746.86,-239.18C726.48,-246.9 700.8,-256.2 677.5,-263.38 666.95,-266.62 655.5,-269.75 644.67,-272.52"/>
<polygon fill="#63b8ff" stroke="#63b8ff" points="748.08,-242.46 756.17,-235.62 745.58,-235.93 748.08,-242.46"/>
</a>
</g>
</g>
<!-- Node12 -->
<g id="Node000012" class="node">
<title>Node12</title>
<g id="a_Node000012"><a xlink:href="$classTMapBase.html#a87fee32fce2ccfbdd6b20fe39d5db0c7" xlink:title=" ">
<polygon fill="white" stroke="#666666" points="658.75,-254.75 536.25,-254.75 536.25,-234 658.75,-234 658.75,-254.75"/>
<text xml:space="preserve" text-anchor="middle" x="597.5" y="-241.25" font-family="Helvetica,sans-Serif" font-size="10.00">TMapBase::FindOrAdd</text>
</a>
</g>
</g>
<!-- Node1&#45;&gt;Node12 -->
<g id="edge12_Node000001_Node000012" class="edge">
<title>Node1&#45;&gt;Node12</title>
<g id="a_edge12_Node000001_Node000012"><a xlink:title=" ">
<path fill="none" stroke="#63b8ff" d="M701.79,-233.28C687.44,-234.82 672.76,-236.4 659.14,-237.86"/>
<polygon fill="#63b8ff" stroke="#63b8ff" points="702.12,-236.76 711.69,-232.21 701.37,-229.8 702.12,-236.76"/>
</a>
</g>
</g>
<!-- Node13 -->
<g id="Node000013" class="node">
<title>Node13</title>
<g id="a_Node000013"><a xlink:href="$classTMapBase.html#a9b95ef1e7ba579f0bcab5f7ea540cc3a" xlink:title=" ">
<polygon fill="white" stroke="#666666" points="677.5,-215.75 517.5,-215.75 517.5,-195 677.5,-195 677.5,-215.75"/>
<text xml:space="preserve" text-anchor="middle" x="597.5" y="-202.25" font-family="Helvetica,sans-Serif" font-size="10.00">TMapBase::FindOrAddByHash</text>
</a>
</g>
</g>
<!-- Node1&#45;&gt;Node13 -->
<g id="edge13_Node000001_Node000013" class="edge">
<title>Node1&#45;&gt;Node13</title>
<g id="a_edge13_Node000001_Node000013"><a xlink:title=" ">
<path fill="none" stroke="#63b8ff" d="M701.94,-215.93C693.92,-215.12 685.79,-214.29 677.8,-213.47"/>
<polygon fill="#63b8ff" stroke="#63b8ff" points="701.39,-219.4 711.69,-216.93 702.1,-212.43 701.39,-219.4"/>
</a>
</g>
</g>
<!-- Node14 -->
<g id="Node000014" class="node">
<title>Node14</title>
<g id="a_Node000014"><a xlink:href="$classTMapBase.html#a3ca8bf1e7bcfecda88a132c474972a54" xlink:title=" ">
<polygon fill="white" stroke="#666666" points="677.5,-176.75 517.5,-176.75 517.5,-156 677.5,-156 677.5,-176.75"/>
<text xml:space="preserve" text-anchor="middle" x="597.5" y="-163.25" font-family="Helvetica,sans-Serif" font-size="10.00">TMapBase::FindOrAddByHash</text>
</a>
</g>
</g>
<!-- Node1&#45;&gt;Node14 -->
<g id="edge14_Node000001_Node000014" class="edge">
<title>Node1&#45;&gt;Node14</title>
<g id="a_edge14_Node000001_Node000014"><a xlink:title=" ">
<path fill="none" stroke="#63b8ff" d="M745.99,-209.69C725.74,-202.25 700.44,-193.33 677.5,-186.38 666.8,-183.13 655.19,-179.99 644.23,-177.19"/>
<polygon fill="#63b8ff" stroke="#63b8ff" points="744.66,-212.93 755.25,-213.13 747.09,-206.37 744.66,-212.93"/>
</a>
</g>
</g>
<!-- Node15 -->
<g id="Node000015" class="node">
<title>Node15</title>
<g id="a_Node000015"><a xlink:href="$classTMapBase.html#a4d970136d92d263e0e34df3a7cb4e0e4" xlink:title=" ">
<polygon fill="white" stroke="#666666" points="677.5,-137.75 517.5,-137.75 517.5,-117 677.5,-117 677.5,-137.75"/>
<text xml:space="preserve" text-anchor="middle" x="597.5" y="-124.25" font-family="Helvetica,sans-Serif" font-size="10.00">TMapBase::FindOrAddByHash</text>
</a>
</g>
</g>
<!-- Node1&#45;&gt;Node15 -->
<g id="edge15_Node000001_Node000015" class="edge">
<title>Node1&#45;&gt;Node15</title>
<g id="a_edge15_Node000001_Node000015"><a xlink:title=" ">
<path fill="none" stroke="#63b8ff" d="M764.58,-206.39C744.08,-188.91 710.63,-162.8 677.5,-147.38 669.68,-143.73 661.09,-140.69 652.56,-138.17"/>
<polygon fill="#63b8ff" stroke="#63b8ff" points="762.05,-208.83 771.9,-212.76 766.65,-203.55 762.05,-208.83"/>
</a>
</g>
</g>
<!-- Node16 -->
<g id="Node000016" class="node">
<title>Node16</title>
<g id="a_Node000016"><a xlink:href="$classTMapBase.html#ab14b6bf16a864ac0a8e76b37d0f574fc" xlink:title=" ">
<polygon fill="white" stroke="#666666" points="677.5,-98.75 517.5,-98.75 517.5,-78 677.5,-78 677.5,-98.75"/>
<text xml:space="preserve" text-anchor="middle" x="597.5" y="-85.25" font-family="Helvetica,sans-Serif" font-size="10.00">TMapBase::FindOrAddByHash</text>
</a>
</g>
</g>
<!-- Node1&#45;&gt;Node16 -->
<g id="edge16_Node000001_Node000016" class="edge">
<title>Node1&#45;&gt;Node16</title>
<g id="a_edge16_Node000001_Node000016"><a xlink:title=" ">
<path fill="none" stroke="#63b8ff" d="M771.83,-204.55C753.92,-178.45 718.89,-132.99 677.5,-108.38 671.3,-104.69 664.43,-101.67 657.41,-99.21"/>
<polygon fill="#63b8ff" stroke="#63b8ff" points="768.72,-206.2 777.19,-212.57 774.54,-202.31 768.72,-206.2"/>
</a>
</g>
</g>
<!-- Node17 -->
<g id="Node000017" class="node">
<title>Node17</title>
<g id="a_Node000017"><a xlink:href="$classTMapBase.html#a7cbf13673894d96aaff3be792874aaeb" xlink:title=" ">
<polygon fill="white" stroke="#666666" points="677.5,-59.75 517.5,-59.75 517.5,-39 677.5,-39 677.5,-59.75"/>
<text xml:space="preserve" text-anchor="middle" x="597.5" y="-46.25" font-family="Helvetica,sans-Serif" font-size="10.00">TMapBase::FindOrAddByHash</text>
</a>
</g>
</g>
<!-- Node1&#45;&gt;Node17 -->
<g id="edge17_Node000001_Node000017" class="edge">
<title>Node1&#45;&gt;Node17</title>
<g id="a_edge17_Node000001_Node000017"><a xlink:title=" ">
<path fill="none" stroke="#63b8ff" d="M775.99,-203.28C761.08,-169.59 727.25,-103.92 677.5,-69.38 672.15,-65.66 666.18,-62.64 659.97,-60.18"/>
<polygon fill="#63b8ff" stroke="#63b8ff" points="772.72,-204.55 779.87,-212.37 779.16,-201.8 772.72,-204.55"/>
</a>
</g>
</g>
<!-- Node18 -->
<g id="Node000018" class="node">
<title>Node18</title>
<g id="a_Node000018"><a xlink:href="$classTMapBase.html#a9606a9a8fce4973826ab22fa932e2bbb" xlink:title=" ">
<polygon fill="white" stroke="#666666" points="677.5,-20.75 517.5,-20.75 517.5,0 677.5,0 677.5,-20.75"/>
<text xml:space="preserve" text-anchor="middle" x="597.5" y="-7.25" font-family="Helvetica,sans-Serif" font-size="10.00">TMapBase::FindOrAddByHash</text>
</a>
</g>
</g>
<!-- Node1&#45;&gt;Node18 -->
<g id="edge18_Node000001_Node000018" class="edge">
<title>Node1&#45;&gt;Node18</title>
<g id="a_edge18_Node000001_Node000018"><a xlink:title=" ">
<path fill="none" stroke="#63b8ff" d="M778.88,-202.6C767.04,-162.17 736.03,-75.53 677.5,-30.38 672.68,-26.66 667.26,-23.63 661.56,-21.15"/>
<polygon fill="#63b8ff" stroke="#63b8ff" points="775.47,-203.42 781.53,-212.11 782.21,-201.54 775.47,-203.42"/>
</a>
</g>
</g>
<!-- Node3 -->
<g id="Node000003" class="node">
<title>Node3</title>
<g id="a_Node000003"><a xlink:href="$namespaceUE_1_1Graph.html#aa5c899f112dccf29af8f5200170f4661" xlink:title=" ">
<polygon fill="white" stroke="#666666" points="481.5,-506.75 332.75,-506.75 332.75,-486 481.5,-486 481.5,-506.75"/>
<text xml:space="preserve" text-anchor="middle" x="407.12" y="-493.25" font-family="Helvetica,sans-Serif" font-size="10.00">UE::Graph::ConvertToGraph</text>
</a>
</g>
</g>
<!-- Node2&#45;&gt;Node3 -->
<g id="edge2_Node000002_Node000003" class="edge">
<title>Node2&#45;&gt;Node3</title>
<g id="a_edge2_Node000002_Node000003"><a xlink:title=" ">
<path fill="none" stroke="#63b8ff" d="M553.62,-453.68C532.05,-460.74 505.47,-469.26 481.5,-476.38 470.99,-479.49 459.59,-482.69 448.97,-485.59"/>
<polygon fill="#63b8ff" stroke="#63b8ff" points="554.56,-457.06 562.96,-450.6 552.37,-450.41 554.56,-457.06"/>
</a>
</g>
</g>
<!-- Node4 -->
<g id="Node000004" class="node">
<title>Node4</title>
<g id="a_Node000004"><a xlink:href="$classFConfigFile.html#a85fa43d01f8f46ee7ab99cc2c8fd51d0" xlink:title=" ">
<polygon fill="white" stroke="#666666" points="469.88,-449.75 344.38,-449.75 344.38,-429 469.88,-429 469.88,-449.75"/>
<text xml:space="preserve" text-anchor="middle" x="407.12" y="-436.25" font-family="Helvetica,sans-Serif" font-size="10.00">FConfigFile::FindOrAdd</text>
</a>
</g>
</g>
<!-- Node2&#45;&gt;Node4 -->
<g id="edge3_Node000002_Node000004" class="edge">
<title>Node2&#45;&gt;Node4</title>
<g id="a_edge3_Node000002_Node000004"><a xlink:title=" ">
<path fill="none" stroke="#63b8ff" d="M524.59,-439.38C506.69,-439.38 487.65,-439.38 470.27,-439.38"/>
<polygon fill="#63b8ff" stroke="#63b8ff" points="524.35,-442.88 534.35,-439.38 524.35,-435.88 524.35,-442.88"/>
</a>
</g>
</g>
<!-- Node5 -->
<g id="Node000005" class="node">
<title>Node5</title>
<g id="a_Node000005"><a xlink:href="$namespaceAlgoImpl.html#a834c07ecadcd8dd1c1dbe4be6a5cbeff" xlink:title=" ">
<polygon fill="white" stroke="#666666" points="479.62,-411.12 334.62,-411.12 334.62,-377.62 479.62,-377.62 479.62,-411.12"/>
<text xml:space="preserve" text-anchor="start" x="342.62" y="-397.62" font-family="Helvetica,sans-Serif" font-size="10.00">AlgoImpl::KahnTopological</text>
<text xml:space="preserve" text-anchor="middle" x="407.12" y="-384.88" font-family="Helvetica,sans-Serif" font-size="10.00">Sort_CreateWorkingGraph</text>
</a>
</g>
</g>
<!-- Node2&#45;&gt;Node5 -->
<g id="edge5_Node000002_Node000005" class="edge">
<title>Node2&#45;&gt;Node5</title>
<g id="a_edge5_Node000002_Node000005"><a xlink:title=" ">
<path fill="none" stroke="#63b8ff" d="M540.27,-425.94C521.37,-421.43 500.03,-416.33 480.09,-411.57"/>
<polygon fill="#63b8ff" stroke="#63b8ff" points="539.37,-429.33 549.91,-428.24 540.99,-422.52 539.37,-429.33"/>
</a>
</g>
</g>
<!-- Node4&#45;&gt;Node4 -->
<g id="edge4_Node000004_Node000004" class="edge">
<title>Node4&#45;&gt;Node4</title>
<g id="a_edge4_Node000004_Node000004"><a xlink:title=" ">
<path fill="none" stroke="#63b8ff" d="M439.11,-461.24C434.87,-465.08 424.21,-467.75 407.12,-467.75 375.89,-467.75 366.12,-458.81 377.84,-450.15"/>
<polygon fill="#63b8ff" stroke="#63b8ff" points="442.53,-460.51 436.77,-451.62 435.73,-462.16 442.53,-460.51"/>
</a>
</g>
</g>
<!-- Node6 -->
<g id="Node000006" class="node">
<title>Node6</title>
<g id="a_Node000006"><a xlink:href="$namespaceAlgo.html#a231003554c827f132ff7e767bf161b4d" xlink:title=" ">
<polygon fill="white" stroke="#666666" points="296.75,-404.75 154,-404.75 154,-384 296.75,-384 296.75,-404.75"/>
<text xml:space="preserve" text-anchor="middle" x="225.38" y="-391.25" font-family="Helvetica,sans-Serif" font-size="10.00">Algo::KahnTopologicalSort</text>
</a>
</g>
</g>
<!-- Node5&#45;&gt;Node6 -->
<g id="edge6_Node000005_Node000006" class="edge">
<title>Node5&#45;&gt;Node6</title>
<g id="a_edge6_Node000005_Node000006"><a xlink:title=" ">
<path fill="none" stroke="#63b8ff" d="M323.03,-394.38C314.4,-394.38 305.68,-394.38 297.2,-394.38"/>
<polygon fill="#63b8ff" stroke="#63b8ff" points="322.79,-397.88 332.79,-394.38 322.79,-390.88 322.79,-397.88"/>
</a>
</g>
</g>
<!-- Node7 -->
<g id="Node000007" class="node">
<title>Node7</title>
<g id="a_Node000007"><a xlink:href="$namespaceAlgo.html#a70179778f8c81a75af4593dd32233734" xlink:title=" ">
<polygon fill="white" stroke="#666666" points="118,-404.75 0,-404.75 0,-384 118,-384 118,-404.75"/>
<text xml:space="preserve" text-anchor="middle" x="59" y="-391.25" font-family="Helvetica,sans-Serif" font-size="10.00">Algo::TopologicalSort</text>
</a>
</g>
</g>
<!-- Node6&#45;&gt;Node7 -->
<g id="edge7_Node000006_Node000007" class="edge">
<title>Node6&#45;&gt;Node7</title>
<g id="a_edge7_Node000006_Node000007"><a xlink:title=" ">
<path fill="none" stroke="#63b8ff" d="M142.36,-394.38C134.3,-394.38 126.24,-394.38 118.49,-394.38"/>
<polygon fill="#63b8ff" stroke="#63b8ff" points="142.2,-397.88 152.2,-394.38 142.2,-390.88 142.2,-397.88"/>
</a>
</g>
</g>
</g>
</svg>
