<?xml version="1.0" encoding="UTF-8" standalone="no"?>
<!DOCTYPE svg PUBLIC "-//W3C//DTD SVG 1.1//EN"
 "http://www.w3.org/Graphics/SVG/1.1/DTD/svg11.dtd">
<!-- Generated by graphviz version 14.1.4 (0)
 -->
<!-- Title: TDelegate&lt; InRetValType(ParamTypes...), UserPolicy &gt;::CreateUFunction Pages: 1 -->
<svg width="343pt" height="133pt"
 viewBox="0.00 0.00 343.00 133.00" xmlns="http://www.w3.org/2000/svg" xmlns:xlink="http://www.w3.org/1999/xlink">
<g id="graph0" class="graph" transform="scale(1 1) rotate(0) translate(4 128.75)">
<title>TDelegate&lt; InRetValType(ParamTypes...), UserPolicy &gt;::CreateUFunction</title>
<!-- Node1 -->
<g id="Node000001" class="node">
<title>Node1</title>
<g id="a_Node000001"><a xlink:title=" ">
<polygon fill="#999999" stroke="#666666" points="149.5,-85.5 0,-85.5 0,-39.25 149.5,-39.25 149.5,-85.5"/>
<text xml:space="preserve" text-anchor="start" x="8" y="-72" font-family="Helvetica,sans-Serif" font-size="10.00">TDelegate&lt; InRetValType</text>
<text xml:space="preserve" text-anchor="start" x="8" y="-59.25" font-family="Helvetica,sans-Serif" font-size="10.00">(ParamTypes...), UserPolicy</text>
<text xml:space="preserve" text-anchor="middle" x="74.75" y="-46.5" font-family="Helvetica,sans-Serif" font-size="10.00"> &gt;::CreateUFunction</text>
</a>
</g>
</g>
<!-- Node2 -->
<g id="Node000002" class="node">
<title>Node2</title>
<g id="a_Node000002"><a xlink:href="$UnrealTemplate_8h.html#aea228b8b6d93b902d974d3bfa72f888f" xlink:title=" ">
<polygon fill="white" stroke="#666666" points="287.75,-124.75 232.75,-124.75 232.75,-104 287.75,-104 287.75,-124.75"/>
<text xml:space="preserve" text-anchor="middle" x="260.25" y="-111.25" font-family="Helvetica,sans-Serif" font-size="10.00">Forward</text>
</a>
</g>
</g>
<!-- Node1&#45;&gt;Node2 -->
<g id="edge1_Node000001_Node000002" class="edge">
<title>Node1&#45;&gt;Node2</title>
<g id="a_edge1_Node000001_Node000002"><a xlink:title=" ">
<path fill="none" stroke="#63b8ff" d="M149.79,-84.17C161.72,-87.62 173.94,-91.12 185.5,-94.38 197.18,-97.66 209.94,-101.16 221.5,-104.29"/>
<polygon fill="#63b8ff" stroke="#63b8ff" points="220.56,-107.66 231.13,-106.88 222.39,-100.9 220.56,-107.66"/>
</a>
</g>
</g>
<!-- Node3 -->
<g id="Node000003" class="node">
<title>Node3</title>
<g id="a_Node000003"><a xlink:href="$classTDelegate_3_01InRetValType_07ParamTypes_8_8_8_08_00_01UserPolicy_01_4.html#a5e6d64c62432a0172cd44053cb95ffd9" xlink:title=" ">
<polygon fill="white" stroke="#666666" points="335,-85.5 185.5,-85.5 185.5,-39.25 335,-39.25 335,-85.5"/>
<text xml:space="preserve" text-anchor="start" x="193.5" y="-72" font-family="Helvetica,sans-Serif" font-size="10.00">TDelegate&lt; InRetValType</text>
<text xml:space="preserve" text-anchor="start" x="193.5" y="-59.25" font-family="Helvetica,sans-Serif" font-size="10.00">(ParamTypes...), UserPolicy</text>
<text xml:space="preserve" text-anchor="middle" x="260.25" y="-46.5" font-family="Helvetica,sans-Serif" font-size="10.00"> &gt;::TDelegate</text>
</a>
</g>
</g>
<!-- Node1&#45;&gt;Node3 -->
<g id="edge2_Node000001_Node000003" class="edge">
<title>Node1&#45;&gt;Node3</title>
<g id="a_edge2_Node000001_Node000003"><a xlink:title=" ">
<path fill="none" stroke="#63b8ff" d="M149.86,-62.38C157.77,-62.38 165.86,-62.38 173.89,-62.38"/>
<polygon fill="#63b8ff" stroke="#63b8ff" points="173.65,-65.88 183.65,-62.38 173.65,-58.88 173.65,-65.88"/>
</a>
</g>
</g>
<!-- Node4 -->
<g id="Node000004" class="node">
<title>Node4</title>
<g id="a_Node000004"><a xlink:href="$DelegateSignatureImpl_8inl.html#a9ab6ebdfaf2237629faf2dd6d58190c4" xlink:title=" ">
<polygon fill="white" stroke="#666666" points="290.75,-20.75 229.75,-20.75 229.75,0 290.75,0 290.75,-20.75"/>
<text xml:space="preserve" text-anchor="middle" x="260.25" y="-7.25" font-family="Helvetica,sans-Serif" font-size="10.00">ToRawPtr</text>
</a>
</g>
</g>
<!-- Node1&#45;&gt;Node4 -->
<g id="edge3_Node000001_Node000004" class="edge">
<title>Node1&#45;&gt;Node4</title>
<g id="a_edge3_Node000001_Node000004"><a xlink:title=" ">
<path fill="none" stroke="#63b8ff" d="M149.79,-40.58C161.72,-37.13 173.94,-33.63 185.5,-30.38 196.21,-27.36 207.82,-24.18 218.59,-21.25"/>
<polygon fill="#63b8ff" stroke="#63b8ff" points="219.23,-24.71 227.97,-18.72 217.4,-17.95 219.23,-24.71"/>
</a>
</g>
</g>
</g>
</svg>
