<?xml version="1.0" encoding="UTF-8" standalone="no"?>
<!DOCTYPE svg PUBLIC "-//W3C//DTD SVG 1.1//EN"
 "http://www.w3.org/Graphics/SVG/1.1/DTD/svg11.dtd">
<!-- Generated by graphviz version 14.1.4 (0)
 -->
<!-- Title: TMatrix2x2::TMatrix2x2 Pages: 1 -->
<svg width="294pt" height="94pt"
 viewBox="0.00 0.00 294.00 94.00" xmlns="http://www.w3.org/2000/svg" xmlns:xlink="http://www.w3.org/1999/xlink">
<g id="graph0" class="graph" transform="scale(1 1) rotate(0) translate(4 89.5)">
<title>TMatrix2x2::TMatrix2x2</title>
<!-- Node1 -->
<g id="Node000001" class="node">
<title>Node1</title>
<g id="a_Node000001"><a xlink:title=" ">
<polygon fill="#999999" stroke="#666666" points="285.5,-53.12 152.5,-53.12 152.5,-32.38 285.5,-32.38 285.5,-53.12"/>
<text xml:space="preserve" text-anchor="middle" x="219" y="-39.62" font-family="Helvetica,sans-Serif" font-size="10.00">TMatrix2x2::TMatrix2x2</text>
</a>
</g>
</g>
<!-- Node2 -->
<g id="Node000002" class="node">
<title>Node2</title>
<g id="a_Node000002"><a xlink:href="$classTMatrix2x2.html#a7f8977b999f98e5553425b1e9d215538" xlink:title=" ">
<polygon fill="white" stroke="#666666" points="116.5,-85.5 0,-85.5 0,-52 116.5,-52 116.5,-85.5"/>
<text xml:space="preserve" text-anchor="start" x="8" y="-72" font-family="Helvetica,sans-Serif" font-size="10.00">TMatrix2x2&lt; float &gt;</text>
<text xml:space="preserve" text-anchor="middle" x="58.25" y="-59.25" font-family="Helvetica,sans-Serif" font-size="10.00">::Concatenate</text>
</a>
</g>
</g>
<!-- Node1&#45;&gt;Node2 -->
<g id="edge1_Node000001_Node000002" class="edge">
<title>Node1&#45;&gt;Node2</title>
<g id="a_edge1_Node000001_Node000002"><a xlink:title=" ">
<path fill="none" stroke="#63b8ff" d="M140.95,-55.37C132.76,-56.71 124.55,-58.06 116.64,-59.35"/>
<polygon fill="#63b8ff" stroke="#63b8ff" points="141.26,-58.87 150.56,-53.8 140.13,-51.96 141.26,-58.87"/>
</a>
</g>
</g>
<!-- Node3 -->
<g id="Node000003" class="node">
<title>Node3</title>
<g id="a_Node000003"><a xlink:href="$classTMatrix2x2.html#af9c95bd966d718b837eb625afad5707f" xlink:title=" ">
<polygon fill="white" stroke="#666666" points="116.5,-33.5 0,-33.5 0,0 116.5,0 116.5,-33.5"/>
<text xml:space="preserve" text-anchor="start" x="8" y="-20" font-family="Helvetica,sans-Serif" font-size="10.00">TMatrix2x2&lt; float &gt;</text>
<text xml:space="preserve" text-anchor="middle" x="58.25" y="-7.25" font-family="Helvetica,sans-Serif" font-size="10.00">::Inverse</text>
</a>
</g>
</g>
<!-- Node1&#45;&gt;Node3 -->
<g id="edge2_Node000001_Node000003" class="edge">
<title>Node1&#45;&gt;Node3</title>
<g id="a_edge2_Node000001_Node000003"><a xlink:title=" ">
<path fill="none" stroke="#63b8ff" d="M140.95,-30.13C132.76,-28.79 124.55,-27.44 116.64,-26.15"/>
<polygon fill="#63b8ff" stroke="#63b8ff" points="140.13,-33.54 150.56,-31.7 141.26,-26.63 140.13,-33.54"/>
</a>
</g>
</g>
</g>
</svg>
