<?xml version="1.0" encoding="UTF-8" standalone="no"?>
<!DOCTYPE svg PUBLIC "-//W3C//DTD SVG 1.1//EN"
 "http://www.w3.org/Graphics/SVG/1.1/DTD/svg11.dtd">
<!-- Generated by graphviz version 14.1.4 (0)
 -->
<!-- Title: TLockFreePointerListUnordered&lt; T, TPaddingForCacheContention &gt; Pages: 1 -->
<svg width="194pt" height="528pt"
 viewBox="0.00 0.00 194.00 528.00" xmlns="http://www.w3.org/2000/svg" xmlns:xlink="http://www.w3.org/1999/xlink">
<g id="graph0" class="graph" transform="scale(1 1) rotate(0) translate(4 524.25)">
<title>TLockFreePointerListUnordered&lt; T, TPaddingForCacheContention &gt;</title>
<!-- Node1 -->
<g id="Node000001" class="node">
<title>Node1</title>
<g id="a_Node000001"><a xlink:title=" ">
<polygon fill="#999999" stroke="none" points="185.75,-67 0,-67 0,0 185.75,0 185.75,-67"/>
<text xml:space="preserve" text-anchor="start" x="4" y="-53.25" font-family="Helvetica,sans-Serif" font-size="10.00">TLockFreePointerListUnordered</text>
<text xml:space="preserve" text-anchor="start" x="4" y="-40.5" font-family="Helvetica,sans-Serif" font-size="10.00">&lt; T, TPaddingForCacheContention &gt;</text>
<text xml:space="preserve" text-anchor="start" x="89.88" y="-23.75" font-family="Helvetica,sans-Serif" font-size="10.00"> </text>
<text xml:space="preserve" text-anchor="start" x="89.88" y="-7" font-family="Helvetica,sans-Serif" font-size="10.00"> </text>
<polygon fill="#666666" stroke="#666666" points="0,-35.5 0,-35.5 185.75,-35.5 185.75,-35.5 0,-35.5"/>
<polygon fill="#666666" stroke="#666666" points="0,-18.75 0,-18.75 185.75,-18.75 185.75,-18.75 0,-18.75"/>
<polygon fill="none" stroke="#666666" points="0,0 0,-67 185.75,-67 185.75,0 0,0"/>
</a>
</g>
</g>
<!-- Node2 -->
<g id="Node000002" class="node">
<title>Node2</title>
<g id="a_Node000002"><a xlink:href="$classTLockFreePointerListLIFOPad.html" xlink:title=" ">
<polygon fill="white" stroke="none" points="185.75,-237 0,-237 0,-103 185.75,-103 185.75,-237"/>
<text xml:space="preserve" text-anchor="start" x="4" y="-223.25" font-family="Helvetica,sans-Serif" font-size="10.00">TLockFreePointerListLIFOPad</text>
<text xml:space="preserve" text-anchor="start" x="4" y="-210.5" font-family="Helvetica,sans-Serif" font-size="10.00">&lt; T, TPaddingForCacheContention &gt;</text>
<text xml:space="preserve" text-anchor="start" x="89.88" y="-193.75" font-family="Helvetica,sans-Serif" font-size="10.00"> </text>
<text xml:space="preserve" text-anchor="start" x="24.19" y="-177" font-family="Helvetica,sans-Serif" font-size="10.00">+</text>
<text xml:space="preserve" text-anchor="start" x="56.62" y="-177" font-family="Helvetica,sans-Serif" font-size="10.00">Push()</text>
<text xml:space="preserve" text-anchor="start" x="24.19" y="-160.25" font-family="Helvetica,sans-Serif" font-size="10.00">+</text>
<text xml:space="preserve" text-anchor="start" x="56.62" y="-160.25" font-family="Helvetica,sans-Serif" font-size="10.00">Pop()</text>
<text xml:space="preserve" text-anchor="start" x="24.19" y="-143.5" font-family="Helvetica,sans-Serif" font-size="10.00">+</text>
<text xml:space="preserve" text-anchor="start" x="56.62" y="-143.5" font-family="Helvetica,sans-Serif" font-size="10.00">PopAll()</text>
<text xml:space="preserve" text-anchor="start" x="24.19" y="-126.75" font-family="Helvetica,sans-Serif" font-size="10.00">+</text>
<text xml:space="preserve" text-anchor="start" x="56.62" y="-126.75" font-family="Helvetica,sans-Serif" font-size="10.00">PopAllAndApply()</text>
<text xml:space="preserve" text-anchor="start" x="24.19" y="-110" font-family="Helvetica,sans-Serif" font-size="10.00">+</text>
<text xml:space="preserve" text-anchor="start" x="56.62" y="-110" font-family="Helvetica,sans-Serif" font-size="10.00">IsEmpty()</text>
<polygon fill="#666666" stroke="#666666" points="0,-205.5 0,-205.5 185.75,-205.5 185.75,-205.5 0,-205.5"/>
<polygon fill="#666666" stroke="#666666" points="0,-188.75 0,-188.75 185.75,-188.75 185.75,-188.75 0,-188.75"/>
<polygon fill="none" stroke="#666666" points="0,-103 0,-237 185.75,-237 185.75,-103 0,-103"/>
</a>
</g>
</g>
<!-- Node2&#45;&gt;Node1 -->
<g id="edge1_Node000001_Node000002" class="edge">
<title>Node2&#45;&gt;Node1</title>
<g id="a_edge1_Node000001_Node000002"><a xlink:title=" ">
<path fill="none" stroke="#63b8ff" d="M92.88,-92.07C92.88,-83.24 92.88,-74.64 92.88,-66.89"/>
<polygon fill="none" stroke="#63b8ff" points="89.38,-91.81 92.88,-101.81 96.38,-91.81 89.38,-91.81"/>
</a>
</g>
</g>
<!-- Node3 -->
<g id="Node000003" class="node">
<title>Node3</title>
<g id="a_Node000003"><a xlink:href="$classFLockFreePointerListLIFOBase.html" xlink:title=" ">
<polygon fill="white" stroke="none" points="184.38,-520.25 1.38,-520.25 1.38,-273 184.38,-273 184.38,-520.25"/>
<text xml:space="preserve" text-anchor="start" x="8.12" y="-506.5" font-family="Helvetica,sans-Serif" font-size="10.00">FLockFreePointerListLIFOBase</text>
<text xml:space="preserve" text-anchor="start" x="8.12" y="-493.75" font-family="Helvetica,sans-Serif" font-size="10.00">&lt; T, TPaddingForCacheContention,</text>
<text xml:space="preserve" text-anchor="start" x="65.5" y="-481" font-family="Helvetica,sans-Serif" font-size="10.00"> TABAInc &gt;</text>
<text xml:space="preserve" text-anchor="start" x="7.62" y="-464.25" font-family="Helvetica,sans-Serif" font-size="10.00">&#45;</text>
<text xml:space="preserve" text-anchor="start" x="17.62" y="-464.25" font-family="Helvetica,sans-Serif" font-size="10.00">RootList</text>
<text xml:space="preserve" text-anchor="start" x="5.38" y="-447.5" font-family="Helvetica,sans-Serif" font-size="10.00">+</text>
<text xml:space="preserve" text-anchor="start" x="17.62" y="-447.5" font-family="Helvetica,sans-Serif" font-size="10.00">FLockFreePointerListLIFOBase()</text>
<text xml:space="preserve" text-anchor="start" x="5.38" y="-430.75" font-family="Helvetica,sans-Serif" font-size="10.00">+</text>
<text xml:space="preserve" text-anchor="start" x="17.62" y="-430.75" font-family="Helvetica,sans-Serif" font-size="10.00">~FLockFreePointerListLIFOBase()</text>
<text xml:space="preserve" text-anchor="start" x="5.38" y="-414" font-family="Helvetica,sans-Serif" font-size="10.00">+</text>
<text xml:space="preserve" text-anchor="start" x="17.62" y="-414" font-family="Helvetica,sans-Serif" font-size="10.00">Reset()</text>
<text xml:space="preserve" text-anchor="start" x="5.38" y="-397.25" font-family="Helvetica,sans-Serif" font-size="10.00">+</text>
<text xml:space="preserve" text-anchor="start" x="17.62" y="-397.25" font-family="Helvetica,sans-Serif" font-size="10.00">Push()</text>
<text xml:space="preserve" text-anchor="start" x="5.38" y="-380.5" font-family="Helvetica,sans-Serif" font-size="10.00">+</text>
<text xml:space="preserve" text-anchor="start" x="17.62" y="-380.5" font-family="Helvetica,sans-Serif" font-size="10.00">PushIf()</text>
<text xml:space="preserve" text-anchor="start" x="5.38" y="-363.75" font-family="Helvetica,sans-Serif" font-size="10.00">+</text>
<text xml:space="preserve" text-anchor="start" x="17.62" y="-363.75" font-family="Helvetica,sans-Serif" font-size="10.00">Pop()</text>
<text xml:space="preserve" text-anchor="start" x="5.38" y="-347" font-family="Helvetica,sans-Serif" font-size="10.00">+</text>
<text xml:space="preserve" text-anchor="start" x="17.62" y="-347" font-family="Helvetica,sans-Serif" font-size="10.00">PopAll()</text>
<text xml:space="preserve" text-anchor="start" x="5.38" y="-330.25" font-family="Helvetica,sans-Serif" font-size="10.00">+</text>
<text xml:space="preserve" text-anchor="start" x="17.62" y="-330.25" font-family="Helvetica,sans-Serif" font-size="10.00">PopAllAndApply()</text>
<text xml:space="preserve" text-anchor="start" x="5.38" y="-313.5" font-family="Helvetica,sans-Serif" font-size="10.00">+</text>
<text xml:space="preserve" text-anchor="start" x="17.62" y="-313.5" font-family="Helvetica,sans-Serif" font-size="10.00">PopAllAndChangeState()</text>
<text xml:space="preserve" text-anchor="start" x="5.38" y="-296.75" font-family="Helvetica,sans-Serif" font-size="10.00">+</text>
<text xml:space="preserve" text-anchor="start" x="17.62" y="-296.75" font-family="Helvetica,sans-Serif" font-size="10.00">IsEmpty()</text>
<text xml:space="preserve" text-anchor="start" x="5.38" y="-280" font-family="Helvetica,sans-Serif" font-size="10.00">+</text>
<text xml:space="preserve" text-anchor="start" x="17.62" y="-280" font-family="Helvetica,sans-Serif" font-size="10.00">GetState()</text>
<polygon fill="#666666" stroke="#666666" points="1.38,-476 1.38,-476 184.38,-476 184.38,-476 1.38,-476"/>
<polygon fill="#666666" stroke="#666666" points="1.38,-459.25 1.38,-459.25 15.62,-459.25 15.62,-459.25 1.38,-459.25"/>
<polygon fill="#666666" stroke="#666666" points="15.62,-459.25 15.62,-459.25 184.38,-459.25 184.38,-459.25 15.62,-459.25"/>
<polygon fill="none" stroke="#666666" points="1.38,-273 1.38,-520.25 184.38,-520.25 184.38,-273 1.38,-273"/>
</a>
</g>
</g>
<!-- Node3&#45;&gt;Node2 -->
<g id="edge2_Node000002_Node000003" class="edge">
<title>Node3&#45;&gt;Node2</title>
<g id="a_edge2_Node000002_Node000003"><a xlink:title=" ">
<path fill="none" stroke="#8b1a1a" d="M92.88,-261.83C92.88,-253.31 92.88,-244.95 92.88,-236.98"/>
<polygon fill="none" stroke="#8b1a1a" points="89.38,-261.61 92.88,-271.61 96.38,-261.61 89.38,-261.61"/>
</a>
</g>
</g>
</g>
</svg>
