<?xml version="1.0" encoding="UTF-8" standalone="no"?>
<!DOCTYPE svg PUBLIC "-//W3C//DTD SVG 1.1//EN"
 "http://www.w3.org/Graphics/SVG/1.1/DTD/svg11.dtd">
<!-- Generated by graphviz version 14.1.4 (0)
 -->
<!-- Title: TThreadSingleton&lt; T &gt; Pages: 1 -->
<svg width="130pt" height="287pt"
 viewBox="0.00 0.00 130.00 287.00" xmlns="http://www.w3.org/2000/svg" xmlns:xlink="http://www.w3.org/1999/xlink">
<g id="graph0" class="graph" transform="scale(1 1) rotate(0) translate(4 282.5)">
<title>TThreadSingleton&lt; T &gt;</title>
<!-- Node1 -->
<g id="Node000001" class="node">
<title>Node1</title>
<g id="a_Node000001"><a xlink:title=" ">
<polygon fill="#999999" stroke="none" points="122,-171.5 0,-171.5 0,0 122,0 122,-171.5"/>
<text xml:space="preserve" text-anchor="start" x="4" y="-157.75" font-family="Helvetica,sans-Serif" font-size="10.00">TThreadSingleton&lt; T &gt;</text>
<text xml:space="preserve" text-anchor="start" x="4.12" y="-141" font-family="Helvetica,sans-Serif" font-size="10.00">#</text>
<text xml:space="preserve" text-anchor="start" x="16.5" y="-141" font-family="Helvetica,sans-Serif" font-size="10.00">ThreadId</text>
<text xml:space="preserve" text-anchor="start" x="4.12" y="-124.25" font-family="Helvetica,sans-Serif" font-size="10.00">+</text>
<text xml:space="preserve" text-anchor="start" x="16.5" y="-124.25" font-family="Helvetica,sans-Serif" font-size="10.00">Get()</text>
<text xml:space="preserve" text-anchor="start" x="4.12" y="-107.5" font-family="Helvetica,sans-Serif" font-size="10.00">+</text>
<text xml:space="preserve" text-anchor="start" x="16.5" y="-107.5" font-family="Helvetica,sans-Serif" font-size="10.00">Get()</text>
<text xml:space="preserve" text-anchor="start" x="4.12" y="-90.75" font-family="Helvetica,sans-Serif" font-size="10.00">+</text>
<text xml:space="preserve" text-anchor="start" x="16.5" y="-90.75" font-family="Helvetica,sans-Serif" font-size="10.00">TryGet()</text>
<text xml:space="preserve" text-anchor="start" x="4.12" y="-74" font-family="Helvetica,sans-Serif" font-size="10.00">+</text>
<text xml:space="preserve" text-anchor="start" x="16.5" y="-74" font-family="Helvetica,sans-Serif" font-size="10.00">Inject()</text>
<text xml:space="preserve" text-anchor="start" x="4.12" y="-57.25" font-family="Helvetica,sans-Serif" font-size="10.00">#</text>
<text xml:space="preserve" text-anchor="start" x="16.5" y="-57.25" font-family="Helvetica,sans-Serif" font-size="10.00">TThreadSingleton()</text>
<text xml:space="preserve" text-anchor="start" x="4.12" y="-40.5" font-family="Helvetica,sans-Serif" font-size="10.00">#</text>
<text xml:space="preserve" text-anchor="start" x="16.5" y="-40.5" font-family="Helvetica,sans-Serif" font-size="10.00">~TThreadSingleton()</text>
<text xml:space="preserve" text-anchor="start" x="4.12" y="-23.75" font-family="Helvetica,sans-Serif" font-size="10.00">#</text>
<text xml:space="preserve" text-anchor="start" x="16.5" y="-23.75" font-family="Helvetica,sans-Serif" font-size="10.00">CreateInstance()</text>
<text xml:space="preserve" text-anchor="start" x="6.38" y="-7" font-family="Helvetica,sans-Serif" font-size="10.00">&#45;</text>
<text xml:space="preserve" text-anchor="start" x="16.5" y="-7" font-family="Helvetica,sans-Serif" font-size="10.00">GetTlsSlot()</text>
<polygon fill="#666666" stroke="#666666" points="0,-152.75 0,-152.75 122,-152.75 122,-152.75 0,-152.75"/>
<polygon fill="#666666" stroke="#666666" points="0,-136 0,-136 14.5,-136 14.5,-136 0,-136"/>
<polygon fill="#666666" stroke="#666666" points="14.5,-136 14.5,-136 122,-136 122,-136 14.5,-136"/>
<polygon fill="none" stroke="#666666" points="0,0 0,-171.5 122,-171.5 122,0 0,0"/>
</a>
</g>
</g>
<!-- Node2 -->
<g id="Node000002" class="node">
<title>Node2</title>
<g id="a_Node000002"><a xlink:href="$classFTlsAutoCleanup.html" xlink:title=" ">
<polygon fill="white" stroke="none" points="120.25,-278.5 1.75,-278.5 1.75,-207.5 120.25,-207.5 120.25,-278.5"/>
<text xml:space="preserve" text-anchor="start" x="19.75" y="-264.75" font-family="Helvetica,sans-Serif" font-size="10.00">FTlsAutoCleanup</text>
<text xml:space="preserve" text-anchor="start" x="58" y="-248" font-family="Helvetica,sans-Serif" font-size="10.00"> </text>
<text xml:space="preserve" text-anchor="start" x="5.75" y="-231.25" font-family="Helvetica,sans-Serif" font-size="10.00">+</text>
<text xml:space="preserve" text-anchor="start" x="18" y="-231.25" font-family="Helvetica,sans-Serif" font-size="10.00">~FTlsAutoCleanup()</text>
<text xml:space="preserve" text-anchor="start" x="5.75" y="-214.5" font-family="Helvetica,sans-Serif" font-size="10.00">+</text>
<text xml:space="preserve" text-anchor="start" x="18" y="-214.5" font-family="Helvetica,sans-Serif" font-size="10.00">Register()</text>
<polygon fill="#666666" stroke="#666666" points="1.75,-259.75 1.75,-259.75 120.25,-259.75 120.25,-259.75 1.75,-259.75"/>
<polygon fill="#666666" stroke="#666666" points="1.75,-243 1.75,-243 120.25,-243 120.25,-243 1.75,-243"/>
<polygon fill="none" stroke="#666666" points="1.75,-207.5 1.75,-278.5 120.25,-278.5 120.25,-207.5 1.75,-207.5"/>
</a>
</g>
</g>
<!-- Node2&#45;&gt;Node1 -->
<g id="edge1_Node000001_Node000002" class="edge">
<title>Node2&#45;&gt;Node1</title>
<g id="a_edge1_Node000001_Node000002"><a xlink:title=" ">
<path fill="none" stroke="#63b8ff" d="M61,-196.05C61,-188.18 61,-179.78 61,-171.27"/>
<polygon fill="none" stroke="#63b8ff" points="57.5,-196.03 61,-206.03 64.5,-196.03 57.5,-196.03"/>
</a>
</g>
</g>
</g>
</svg>
