<?xml version="1.0" encoding="UTF-8" standalone="no"?>
<!DOCTYPE svg PUBLIC "-//W3C//DTD SVG 1.1//EN"
 "http://www.w3.org/Graphics/SVG/1.1/DTD/svg11.dtd">
<!-- Generated by graphviz version 14.1.4 (0)
 -->
<!-- Title: TMemoryView::GetData Pages: 1 -->
<svg width="312pt" height="248pt"
 viewBox="0.00 0.00 312.00 248.00" xmlns="http://www.w3.org/2000/svg" xmlns:xlink="http://www.w3.org/1999/xlink">
<g id="graph0" class="graph" transform="scale(1 1) rotate(0) translate(4 244.12)">
<title>TMemoryView::GetData</title>
<!-- Node1 -->
<g id="Node000001" class="node">
<title>Node1</title>
<g id="a_Node000001"><a xlink:title=" ">
<polygon fill="#999999" stroke="#666666" points="303.5,-139.12 170.5,-139.12 170.5,-118.38 303.5,-118.38 303.5,-139.12"/>
<text xml:space="preserve" text-anchor="middle" x="237" y="-125.62" font-family="Helvetica,sans-Serif" font-size="10.00">TMemoryView::GetData</text>
</a>
</g>
</g>
<!-- Node2 -->
<g id="Node000002" class="node">
<title>Node2</title>
<g id="a_Node000002"><a xlink:href="$structFBuzHash.html#a963f0e461bfd5a293918372db6cc44ed" xlink:title=" ">
<polygon fill="white" stroke="#666666" points="112,-240.12 22.5,-240.12 22.5,-219.38 112,-219.38 112,-240.12"/>
<text xml:space="preserve" text-anchor="middle" x="67.25" y="-226.62" font-family="Helvetica,sans-Serif" font-size="10.00">FBuzHash::Add</text>
</a>
</g>
</g>
<!-- Node1&#45;&gt;Node2 -->
<g id="edge1_Node000001_Node000002" class="edge">
<title>Node1&#45;&gt;Node2</title>
<g id="a_edge1_Node000001_Node000002"><a xlink:title=" ">
<path fill="none" stroke="#63b8ff" d="M217.25,-147.41C197.99,-165.64 166.38,-193.02 134.5,-209.75 127.59,-213.38 119.91,-216.46 112.31,-219.02"/>
<polygon fill="#63b8ff" stroke="#63b8ff" points="219.58,-150.03 224.34,-140.56 214.72,-144.99 219.58,-150.03"/>
</a>
</g>
</g>
<!-- Node3 -->
<g id="Node000003" class="node">
<title>Node3</title>
<g id="a_Node000003"><a xlink:href="$structFBlake3Hash.html#abd611beee5ada5f4f7f212bd208675b9" xlink:title=" ">
<polygon fill="white" stroke="#666666" points="134.5,-201.12 0,-201.12 0,-180.38 134.5,-180.38 134.5,-201.12"/>
<text xml:space="preserve" text-anchor="middle" x="67.25" y="-187.62" font-family="Helvetica,sans-Serif" font-size="10.00">FBlake3Hash::FromView</text>
</a>
</g>
</g>
<!-- Node1&#45;&gt;Node3 -->
<g id="edge2_Node000001_Node000003" class="edge">
<title>Node1&#45;&gt;Node3</title>
<g id="a_edge2_Node000001_Node000003"><a xlink:title=" ">
<path fill="none" stroke="#63b8ff" d="M201.17,-144.17C181.73,-152.51 156.98,-162.73 134.5,-170.75 125.45,-173.98 115.58,-177.14 106.3,-179.97"/>
<polygon fill="#63b8ff" stroke="#63b8ff" points="202.48,-147.41 210.26,-140.23 199.7,-140.99 202.48,-147.41"/>
</a>
</g>
</g>
<!-- Node4 -->
<g id="Node000004" class="node">
<title>Node4</title>
<g id="a_Node000004"><a xlink:href="$structFIoHash.html#ad168dc10987f8e825a2c30ee86eb7ef6" xlink:title=" ">
<polygon fill="white" stroke="#666666" points="122.5,-162.12 12,-162.12 12,-141.38 122.5,-141.38 122.5,-162.12"/>
<text xml:space="preserve" text-anchor="middle" x="67.25" y="-148.62" font-family="Helvetica,sans-Serif" font-size="10.00">FIoHash::FromView</text>
</a>
</g>
</g>
<!-- Node1&#45;&gt;Node4 -->
<g id="edge3_Node000001_Node000004" class="edge">
<title>Node1&#45;&gt;Node4</title>
<g id="a_edge3_Node000001_Node000004"><a xlink:title=" ">
<path fill="none" stroke="#63b8ff" d="M159.03,-139.3C146.79,-140.98 134.36,-142.69 122.78,-144.27"/>
<polygon fill="#63b8ff" stroke="#63b8ff" points="159.25,-142.81 168.68,-137.98 158.3,-135.87 159.25,-142.81"/>
</a>
</g>
</g>
<!-- Node5 -->
<g id="Node000005" class="node">
<title>Node5</title>
<g id="a_Node000005"><a xlink:href="$classFCbFieldViewIterator.html#a45b71263e899711f2c737582063ea11a" xlink:title=" ">
<polygon fill="white" stroke="#666666" points="125.88,-123.5 8.63,-123.5 8.63,-90 125.88,-90 125.88,-123.5"/>
<text xml:space="preserve" text-anchor="start" x="16.62" y="-110" font-family="Helvetica,sans-Serif" font-size="10.00">FCbFieldViewIterator</text>
<text xml:space="preserve" text-anchor="middle" x="67.25" y="-97.25" font-family="Helvetica,sans-Serif" font-size="10.00">::MakeRange</text>
</a>
</g>
</g>
<!-- Node1&#45;&gt;Node5 -->
<g id="edge4_Node000001_Node000005" class="edge">
<title>Node1&#45;&gt;Node5</title>
<g id="a_edge4_Node000001_Node000005"><a xlink:title=" ">
<path fill="none" stroke="#63b8ff" d="M158.85,-118.63C147.88,-117.19 136.77,-115.74 126.25,-114.36"/>
<polygon fill="#63b8ff" stroke="#63b8ff" points="158.31,-122.09 168.68,-119.92 159.22,-115.15 158.31,-122.09"/>
</a>
</g>
</g>
<!-- Node6 -->
<g id="Node000006" class="node">
<title>Node6</title>
<g id="a_Node000006"><a xlink:href="$classFIoChunkId.html#a351575de7533513bddbf019329b11e82" xlink:title=" ">
<polygon fill="white" stroke="#666666" points="113.5,-72.12 21,-72.12 21,-51.38 113.5,-51.38 113.5,-72.12"/>
<text xml:space="preserve" text-anchor="middle" x="67.25" y="-58.62" font-family="Helvetica,sans-Serif" font-size="10.00">FIoChunkId::Set</text>
</a>
</g>
</g>
<!-- Node1&#45;&gt;Node6 -->
<g id="edge5_Node000001_Node000006" class="edge">
<title>Node1&#45;&gt;Node6</title>
<g id="a_edge5_Node000001_Node000006"><a xlink:title=" ">
<path fill="none" stroke="#63b8ff" d="M205.81,-112.89C185.91,-102.83 159.08,-90.02 134.5,-80.75 126.66,-77.8 118.16,-75.04 109.94,-72.59"/>
<polygon fill="#63b8ff" stroke="#63b8ff" points="203.97,-115.88 214.47,-117.32 207.16,-109.65 203.97,-115.88"/>
</a>
</g>
</g>
<!-- Node7 -->
<g id="Node000007" class="node">
<title>Node7</title>
<g id="a_Node000007"><a xlink:href="$classTCbFieldIterator.html#a5f0f43d4124f594f1b10843b129ab84d" xlink:title=" ">
<polygon fill="white" stroke="#666666" points="133,-33.5 1.5,-33.5 1.5,0 133,0 133,-33.5"/>
<text xml:space="preserve" text-anchor="start" x="9.5" y="-20" font-family="Helvetica,sans-Serif" font-size="10.00">TCbFieldIterator::TryGet</text>
<text xml:space="preserve" text-anchor="middle" x="67.25" y="-7.25" font-family="Helvetica,sans-Serif" font-size="10.00">RangeView</text>
</a>
</g>
</g>
<!-- Node1&#45;&gt;Node7 -->
<g id="edge6_Node000001_Node000007" class="edge">
<title>Node1&#45;&gt;Node7</title>
<g id="a_edge6_Node000001_Node000007"><a xlink:title=" ">
<path fill="none" stroke="#63b8ff" d="M217.74,-109.99C198.46,-91.02 166.48,-61.85 134.5,-42.75 129.09,-39.52 123.21,-36.54 117.25,-33.85"/>
<polygon fill="#63b8ff" stroke="#63b8ff" points="215.04,-112.25 224.59,-116.85 219.99,-107.3 215.04,-112.25"/>
</a>
</g>
</g>
</g>
</svg>
