<?xml version="1.0" encoding="UTF-8" standalone="no"?>
<!DOCTYPE svg PUBLIC "-//W3C//DTD SVG 1.1//EN"
 "http://www.w3.org/Graphics/SVG/1.1/DTD/svg11.dtd">
<!-- Generated by graphviz version 14.1.4 (0)
 -->
<!-- Title: TStrongObjectPtr::Attach Pages: 1 -->
<svg width="494pt" height="42pt"
 viewBox="0.00 0.00 494.00 42.00" xmlns="http://www.w3.org/2000/svg" xmlns:xlink="http://www.w3.org/1999/xlink">
<g id="graph0" class="graph" transform="scale(1 1) rotate(0) translate(4 37.5)">
<title>TStrongObjectPtr::Attach</title>
<!-- Node1 -->
<g id="Node000001" class="node">
<title>Node1</title>
<g id="a_Node000001"><a xlink:title=" ">
<polygon fill="#999999" stroke="#666666" points="136,-27.12 0,-27.12 0,-6.38 136,-6.38 136,-27.12"/>
<text xml:space="preserve" text-anchor="middle" x="68" y="-13.62" font-family="Helvetica,sans-Serif" font-size="10.00">TStrongObjectPtr::Attach</text>
</a>
</g>
</g>
<!-- Node2 -->
<g id="Node000002" class="node">
<title>Node2</title>
<g id="a_Node000002"><a xlink:href="$classTStrongObjectPtr.html#a6b1b32f0fcf93090a069c9b6f7f04b8c" xlink:title=" ">
<polygon fill="white" stroke="#666666" points="304.25,-27.12 172,-27.12 172,-6.38 304.25,-6.38 304.25,-27.12"/>
<text xml:space="preserve" text-anchor="middle" x="238.12" y="-13.62" font-family="Helvetica,sans-Serif" font-size="10.00">TStrongObjectPtr::Reset</text>
</a>
</g>
</g>
<!-- Node1&#45;&gt;Node2 -->
<g id="edge1_Node000001_Node000002" class="edge">
<title>Node1&#45;&gt;Node2</title>
<g id="a_edge1_Node000001_Node000002"><a xlink:title=" ">
<path fill="none" stroke="#63b8ff" d="M136.41,-16.75C144.21,-16.75 152.2,-16.75 160.11,-16.75"/>
<polygon fill="#63b8ff" stroke="#63b8ff" points="160.1,-20.25 170.1,-16.75 160.1,-13.25 160.1,-20.25"/>
</a>
</g>
</g>
<!-- Node3 -->
<g id="Node000003" class="node">
<title>Node3</title>
<g id="a_Node000003"><a xlink:href="$namespaceUEStrongObjectPtr__Private.html#a64f9270a4938ccdcefd272587a084637" xlink:title=" ">
<polygon fill="white" stroke="#666666" points="486,-33.5 340.25,-33.5 340.25,0 486,0 486,-33.5"/>
<text xml:space="preserve" text-anchor="start" x="348.25" y="-20" font-family="Helvetica,sans-Serif" font-size="10.00">UEStrongObjectPtr_Private</text>
<text xml:space="preserve" text-anchor="middle" x="413.12" y="-7.25" font-family="Helvetica,sans-Serif" font-size="10.00">::ReleaseUObject</text>
</a>
</g>
</g>
<!-- Node2&#45;&gt;Node3 -->
<g id="edge2_Node000002_Node000003" class="edge">
<title>Node2&#45;&gt;Node3</title>
<g id="a_edge2_Node000002_Node000003"><a xlink:title=" ">
<path fill="none" stroke="#63b8ff" d="M304.53,-16.75C312.4,-16.75 320.52,-16.75 328.6,-16.75"/>
<polygon fill="#63b8ff" stroke="#63b8ff" points="328.46,-20.25 338.46,-16.75 328.46,-13.25 328.46,-20.25"/>
</a>
</g>
</g>
</g>
</svg>
