<?xml version="1.0" encoding="UTF-8" standalone="no"?>
<!DOCTYPE svg PUBLIC "-//W3C//DTD SVG 1.1//EN"
 "http://www.w3.org/Graphics/SVG/1.1/DTD/svg11.dtd">
<!-- Generated by graphviz version 14.1.4 (0)
 -->
<!-- Title: UConsole Pages: 1 -->
<svg width="173pt" height="563pt"
 viewBox="0.00 0.00 173.00 563.00" xmlns="http://www.w3.org/2000/svg" xmlns:xlink="http://www.w3.org/1999/xlink">
<g id="graph0" class="graph" transform="scale(1 1) rotate(0) translate(4 559.25)">
<title>UConsole</title>
<!-- Node1 -->
<g id="Node000001" class="node">
<title>Node1</title>
<g id="a_Node000001"><a xlink:title=" ">
<polygon fill="#999999" stroke="none" points="165,-465 0,-465 0,0 165,0 165,-465"/>
<text xml:space="preserve" text-anchor="start" x="59.25" y="-451.25" font-family="Helvetica,sans-Serif" font-size="10.00">UConsole</text>
<text xml:space="preserve" text-anchor="start" x="4" y="-434.5" font-family="Helvetica,sans-Serif" font-size="10.00">&#45;</text>
<text xml:space="preserve" text-anchor="start" x="11.75" y="-434.5" font-family="Helvetica,sans-Serif" font-size="10.00">ConsoleTargetPlayer</text>
<text xml:space="preserve" text-anchor="start" x="4" y="-417.75" font-family="Helvetica,sans-Serif" font-size="10.00">&#45;</text>
<text xml:space="preserve" text-anchor="start" x="11.75" y="-417.75" font-family="Helvetica,sans-Serif" font-size="10.00">DefaultTexture_Black</text>
<text xml:space="preserve" text-anchor="start" x="4" y="-401" font-family="Helvetica,sans-Serif" font-size="10.00">&#45;</text>
<text xml:space="preserve" text-anchor="start" x="11.75" y="-401" font-family="Helvetica,sans-Serif" font-size="10.00">DefaultTexture_White</text>
<text xml:space="preserve" text-anchor="start" x="4" y="-384.25" font-family="Helvetica,sans-Serif" font-size="10.00">&#45;</text>
<text xml:space="preserve" text-anchor="start" x="11.75" y="-384.25" font-family="Helvetica,sans-Serif" font-size="10.00">Scrollback</text>
<text xml:space="preserve" text-anchor="start" x="4" y="-367.5" font-family="Helvetica,sans-Serif" font-size="10.00">&#45;</text>
<text xml:space="preserve" text-anchor="start" x="11.75" y="-367.5" font-family="Helvetica,sans-Serif" font-size="10.00">SBHead</text>
<text xml:space="preserve" text-anchor="start" x="4" y="-350.75" font-family="Helvetica,sans-Serif" font-size="10.00">&#45;</text>
<text xml:space="preserve" text-anchor="start" x="11.75" y="-350.75" font-family="Helvetica,sans-Serif" font-size="10.00">SBPos</text>
<text xml:space="preserve" text-anchor="start" x="4" y="-334" font-family="Helvetica,sans-Serif" font-size="10.00">&#45;</text>
<text xml:space="preserve" text-anchor="start" x="11.75" y="-334" font-family="Helvetica,sans-Serif" font-size="10.00">HistoryBuffer</text>
<text xml:space="preserve" text-anchor="start" x="4" y="-317.25" font-family="Helvetica,sans-Serif" font-size="10.00">&#45;</text>
<text xml:space="preserve" text-anchor="start" x="11.75" y="-317.25" font-family="Helvetica,sans-Serif" font-size="10.00">TypedStr</text>
<text xml:space="preserve" text-anchor="start" x="4" y="-300.5" font-family="Helvetica,sans-Serif" font-size="10.00">&#45;</text>
<text xml:space="preserve" text-anchor="start" x="11.75" y="-300.5" font-family="Helvetica,sans-Serif" font-size="10.00">TypedStrPos</text>
<text xml:space="preserve" text-anchor="start" x="4" y="-283.75" font-family="Helvetica,sans-Serif" font-size="10.00">&#45;</text>
<text xml:space="preserve" text-anchor="start" x="11.75" y="-283.75" font-family="Helvetica,sans-Serif" font-size="10.00">PrecompletedInputLine</text>
<text xml:space="preserve" text-anchor="start" x="11.75" y="-267" font-family="Helvetica,sans-Serif" font-size="10.00">and 19 more...</text>
<text xml:space="preserve" text-anchor="start" x="4" y="-250.25" font-family="Helvetica,sans-Serif" font-size="10.00">&#45;</text>
<text xml:space="preserve" text-anchor="start" x="11.75" y="-250.25" font-family="Helvetica,sans-Serif" font-size="10.00">MAX_HISTORY_ENTRIES</text>
<text xml:space="preserve" text-anchor="start" x="4" y="-233.5" font-family="Helvetica,sans-Serif" font-size="10.00">&#45;</text>
<text xml:space="preserve" text-anchor="start" x="11.75" y="-233.5" font-family="Helvetica,sans-Serif" font-size="10.00">RegisterConsoleAutoComplete</text>
<text xml:space="preserve" text-anchor="start" x="11.75" y="-220.75" font-family="Helvetica,sans-Serif" font-size="10.00">Entries</text>
<text xml:space="preserve" text-anchor="start" x="4" y="-204" font-family="Helvetica,sans-Serif" font-size="10.00">&#45;</text>
<text xml:space="preserve" text-anchor="start" x="11.75" y="-204" font-family="Helvetica,sans-Serif" font-size="10.00">OnConsoleActivationState</text>
<text xml:space="preserve" text-anchor="start" x="11.75" y="-191.25" font-family="Helvetica,sans-Serif" font-size="10.00">Changed</text>
<text xml:space="preserve" text-anchor="start" x="4" y="-174.5" font-family="Helvetica,sans-Serif" font-size="10.00">&#45;</text>
<text xml:space="preserve" text-anchor="start" x="11.75" y="-174.5" font-family="Helvetica,sans-Serif" font-size="10.00">~UConsole()</text>
<text xml:space="preserve" text-anchor="start" x="4" y="-157.75" font-family="Helvetica,sans-Serif" font-size="10.00">&#45;</text>
<text xml:space="preserve" text-anchor="start" x="11.75" y="-157.75" font-family="Helvetica,sans-Serif" font-size="10.00">PostInitProperties()</text>
<text xml:space="preserve" text-anchor="start" x="4" y="-141" font-family="Helvetica,sans-Serif" font-size="10.00">&#45;</text>
<text xml:space="preserve" text-anchor="start" x="11.75" y="-141" font-family="Helvetica,sans-Serif" font-size="10.00">SetInputText()</text>
<text xml:space="preserve" text-anchor="start" x="4" y="-124.25" font-family="Helvetica,sans-Serif" font-size="10.00">&#45;</text>
<text xml:space="preserve" text-anchor="start" x="11.75" y="-124.25" font-family="Helvetica,sans-Serif" font-size="10.00">SetCursorPos()</text>
<text xml:space="preserve" text-anchor="start" x="4" y="-107.5" font-family="Helvetica,sans-Serif" font-size="10.00">&#45;</text>
<text xml:space="preserve" text-anchor="start" x="11.75" y="-107.5" font-family="Helvetica,sans-Serif" font-size="10.00">ConsoleCommand()</text>
<text xml:space="preserve" text-anchor="start" x="4" y="-90.75" font-family="Helvetica,sans-Serif" font-size="10.00">&#45;</text>
<text xml:space="preserve" text-anchor="start" x="11.75" y="-90.75" font-family="Helvetica,sans-Serif" font-size="10.00">ClearOutput()</text>
<text xml:space="preserve" text-anchor="start" x="4" y="-74" font-family="Helvetica,sans-Serif" font-size="10.00">&#45;</text>
<text xml:space="preserve" text-anchor="start" x="11.75" y="-74" font-family="Helvetica,sans-Serif" font-size="10.00">OutputText()</text>
<text xml:space="preserve" text-anchor="start" x="4" y="-57.25" font-family="Helvetica,sans-Serif" font-size="10.00">&#45;</text>
<text xml:space="preserve" text-anchor="start" x="11.75" y="-57.25" font-family="Helvetica,sans-Serif" font-size="10.00">StartTyping()</text>
<text xml:space="preserve" text-anchor="start" x="4" y="-40.5" font-family="Helvetica,sans-Serif" font-size="10.00">&#45;</text>
<text xml:space="preserve" text-anchor="start" x="11.75" y="-40.5" font-family="Helvetica,sans-Serif" font-size="10.00">FlushPlayerInput()</text>
<text xml:space="preserve" text-anchor="start" x="4" y="-23.75" font-family="Helvetica,sans-Serif" font-size="10.00">&#45;</text>
<text xml:space="preserve" text-anchor="start" x="11.75" y="-23.75" font-family="Helvetica,sans-Serif" font-size="10.00">ProcessControlKey()</text>
<text xml:space="preserve" text-anchor="start" x="11.75" y="-7" font-family="Helvetica,sans-Serif" font-size="10.00">and 37 more...</text>
<polygon fill="#666666" stroke="#666666" points="0,-446.25 0,-446.25 165,-446.25 165,-446.25 0,-446.25"/>
<polygon fill="#666666" stroke="#666666" points="0,-186.25 0,-186.25 9.75,-186.25 9.75,-186.25 0,-186.25"/>
<polygon fill="#666666" stroke="#666666" points="9.75,-186.25 9.75,-186.25 165,-186.25 165,-186.25 9.75,-186.25"/>
<polygon fill="none" stroke="#666666" points="0,0 0,-465 165,-465 165,0 0,0"/>
</a>
</g>
</g>
<!-- Node2 -->
<g id="Node000002" class="node">
<title>Node2</title>
<g id="a_Node000002"><a xlink:title=" ">
<polygon fill="white" stroke="none" points="65,-555.25 18,-555.25 18,-501 65,-501 65,-555.25"/>
<text xml:space="preserve" text-anchor="start" x="22" y="-541.5" font-family="Helvetica,sans-Serif" font-size="10.00">UObject</text>
<text xml:space="preserve" text-anchor="start" x="38.5" y="-524.75" font-family="Helvetica,sans-Serif" font-size="10.00"> </text>
<text xml:space="preserve" text-anchor="start" x="38.5" y="-508" font-family="Helvetica,sans-Serif" font-size="10.00"> </text>
<polygon fill="#666666" stroke="#666666" points="18,-536.5 18,-536.5 65,-536.5 65,-536.5 18,-536.5"/>
<polygon fill="#666666" stroke="#666666" points="18,-519.75 18,-519.75 65,-519.75 65,-519.75 18,-519.75"/>
<polygon fill="none" stroke="#666666" points="18,-501 18,-555.25 65,-555.25 65,-501 18,-501"/>
</a>
</g>
</g>
<!-- Node2&#45;&gt;Node1 -->
<g id="edge1_Node000001_Node000002" class="edge">
<title>Node2&#45;&gt;Node1</title>
<g id="a_edge1_Node000001_Node000002"><a xlink:title=" ">
<path fill="none" stroke="#63b8ff" d="M46.72,-489.71C47.77,-482.23 48.94,-473.88 50.19,-464.88"/>
<polygon fill="none" stroke="#63b8ff" points="43.26,-489.18 45.35,-499.57 50.2,-490.15 43.26,-489.18"/>
</a>
</g>
</g>
<!-- Node3 -->
<g id="Node000003" class="node">
<title>Node3</title>
<g id="a_Node000003"><a xlink:title=" ">
<polygon fill="white" stroke="none" points="163.88,-555.25 83.12,-555.25 83.12,-501 163.88,-501 163.88,-555.25"/>
<text xml:space="preserve" text-anchor="start" x="87.12" y="-541.5" font-family="Helvetica,sans-Serif" font-size="10.00">FOutputDevice</text>
<text xml:space="preserve" text-anchor="start" x="120.5" y="-524.75" font-family="Helvetica,sans-Serif" font-size="10.00"> </text>
<text xml:space="preserve" text-anchor="start" x="120.5" y="-508" font-family="Helvetica,sans-Serif" font-size="10.00"> </text>
<polygon fill="#666666" stroke="#666666" points="83.12,-536.5 83.12,-536.5 163.88,-536.5 163.88,-536.5 83.12,-536.5"/>
<polygon fill="#666666" stroke="#666666" points="83.12,-519.75 83.12,-519.75 163.88,-519.75 163.88,-519.75 83.12,-519.75"/>
<polygon fill="none" stroke="#666666" points="83.12,-501 83.12,-555.25 163.88,-555.25 163.88,-501 83.12,-501"/>
</a>
</g>
</g>
<!-- Node3&#45;&gt;Node1 -->
<g id="edge2_Node000001_Node000003" class="edge">
<title>Node3&#45;&gt;Node1</title>
<g id="a_edge2_Node000001_Node000003"><a xlink:title=" ">
<path fill="none" stroke="#63b8ff" d="M118.28,-489.71C117.23,-482.23 116.06,-473.88 114.81,-464.88"/>
<polygon fill="none" stroke="#63b8ff" points="114.8,-490.15 119.65,-499.57 121.74,-489.18 114.8,-490.15"/>
</a>
</g>
</g>
</g>
</svg>
