<?xml version="1.0" encoding="UTF-8" standalone="no"?>
<!DOCTYPE svg PUBLIC "-//W3C//DTD SVG 1.1//EN"
 "http://www.w3.org/Graphics/SVG/1.1/DTD/svg11.dtd">
<!-- Generated by graphviz version 14.1.4 (0)
 -->
<!-- Title: TNonRelocatableInlineAllocator::ForElementType::GetInlineElements Pages: 1 -->
<svg width="652pt" height="302pt"
 viewBox="0.00 0.00 652.00 302.00" xmlns="http://www.w3.org/2000/svg" xmlns:xlink="http://www.w3.org/1999/xlink">
<g id="graph0" class="graph" transform="scale(1 1) rotate(0) translate(4 297.5)">
<title>TNonRelocatableInlineAllocator::ForElementType::GetInlineElements</title>
<!-- Node1 -->
<g id="Node000001" class="node">
<title>Node1</title>
<g id="a_Node000001"><a xlink:title=" ">
<polygon fill="#999999" stroke="#666666" points="644.25,-159.5 448.25,-159.5 448.25,-126 644.25,-126 644.25,-159.5"/>
<text xml:space="preserve" text-anchor="start" x="456.25" y="-146" font-family="Helvetica,sans-Serif" font-size="10.00">TNonRelocatableInlineAllocator</text>
<text xml:space="preserve" text-anchor="middle" x="546.25" y="-133.25" font-family="Helvetica,sans-Serif" font-size="10.00">::ForElementType::GetInlineElements</text>
</a>
</g>
</g>
<!-- Node2 -->
<g id="Node000002" class="node">
<title>Node2</title>
<g id="a_Node000002"><a xlink:href="$classTNonRelocatableInlineAllocator_1_1ForElementType.html#a6318ce29f1c8205dc3e9c404e2ba4342" xlink:title=" ">
<polygon fill="white" stroke="#666666" points="412.25,-235.5 228.25,-235.5 228.25,-202 412.25,-202 412.25,-235.5"/>
<text xml:space="preserve" text-anchor="start" x="236.25" y="-222" font-family="Helvetica,sans-Serif" font-size="10.00">TNonRelocatableInlineAllocator</text>
<text xml:space="preserve" text-anchor="middle" x="320.25" y="-209.25" font-family="Helvetica,sans-Serif" font-size="10.00">::ForElementType::ForElementType</text>
</a>
</g>
</g>
<!-- Node1&#45;&gt;Node2 -->
<g id="edge1_Node000001_Node000002" class="edge">
<title>Node1&#45;&gt;Node2</title>
<g id="a_edge1_Node000001_Node000002"><a xlink:title=" ">
<path fill="none" stroke="#63b8ff" d="M483.8,-163.6C448.63,-175.53 405.06,-190.32 371.88,-201.57"/>
<polygon fill="#63b8ff" stroke="#63b8ff" points="484.64,-167.01 492.99,-160.48 482.39,-160.38 484.64,-167.01"/>
</a>
</g>
</g>
<!-- Node4 -->
<g id="Node000004" class="node">
<title>Node4</title>
<g id="a_Node000004"><a xlink:href="$classTNonRelocatableInlineAllocator_1_1ForElementType.html#a50f939fcaa77c3b3640fb9f7734c7b8f" xlink:title=" ">
<polygon fill="white" stroke="#666666" points="183.62,-189.5 8.62,-189.5 8.62,-156 183.62,-156 183.62,-189.5"/>
<text xml:space="preserve" text-anchor="start" x="16.62" y="-176" font-family="Helvetica,sans-Serif" font-size="10.00">TNonRelocatableInlineAllocator</text>
<text xml:space="preserve" text-anchor="middle" x="96.12" y="-163.25" font-family="Helvetica,sans-Serif" font-size="10.00">::ForElementType::MoveToEmpty</text>
</a>
</g>
</g>
<!-- Node1&#45;&gt;Node4 -->
<g id="edge10_Node000001_Node000004" class="edge">
<title>Node1&#45;&gt;Node4</title>
<g id="a_edge10_Node000001_Node000004"><a xlink:title=" ">
<path fill="none" stroke="#63b8ff" d="M436.76,-150.01C359.16,-155.21 256.1,-162.11 183.94,-166.94"/>
<polygon fill="#63b8ff" stroke="#63b8ff" points="436.76,-153.52 446.5,-149.36 436.29,-146.54 436.76,-153.52"/>
</a>
</g>
</g>
<!-- Node6 -->
<g id="Node000006" class="node">
<title>Node6</title>
<g id="a_Node000006"><a xlink:href="$classTNonRelocatableInlineAllocator_1_1ForElementType.html#af95b8eef16e3e047e7b0e5446adaf859" xlink:title=" ">
<polygon fill="white" stroke="#666666" points="407,-137.5 233.5,-137.5 233.5,-104 407,-104 407,-137.5"/>
<text xml:space="preserve" text-anchor="start" x="241.5" y="-124" font-family="Helvetica,sans-Serif" font-size="10.00">TNonRelocatableInlineAllocator</text>
<text xml:space="preserve" text-anchor="middle" x="320.25" y="-111.25" font-family="Helvetica,sans-Serif" font-size="10.00">::ForElementType::HasAllocation</text>
</a>
</g>
</g>
<!-- Node1&#45;&gt;Node6 -->
<g id="edge5_Node000001_Node000006" class="edge">
<title>Node1&#45;&gt;Node6</title>
<g id="a_edge5_Node000001_Node000006"><a xlink:title=" ">
<path fill="none" stroke="#63b8ff" d="M436.79,-132.1C426.85,-131.12 416.88,-130.14 407.18,-129.19"/>
<polygon fill="#63b8ff" stroke="#63b8ff" points="436.18,-135.55 446.47,-133.05 436.86,-128.59 436.18,-135.55"/>
</a>
</g>
</g>
<!-- Node8 -->
<g id="Node000008" class="node">
<title>Node8</title>
<g id="a_Node000008"><a xlink:href="$classTNonRelocatableInlineAllocator_1_1ForElementType.html#af67008d255cb33bfdde638d7416fe12c" xlink:title=" ">
<polygon fill="white" stroke="#666666" points="189.62,-33.5 2.62,-33.5 2.62,0 189.62,0 189.62,-33.5"/>
<text xml:space="preserve" text-anchor="start" x="10.62" y="-20" font-family="Helvetica,sans-Serif" font-size="10.00">TNonRelocatableInlineAllocator</text>
<text xml:space="preserve" text-anchor="middle" x="96.12" y="-7.25" font-family="Helvetica,sans-Serif" font-size="10.00">::ForElementType::ResizeAllocation</text>
</a>
</g>
</g>
<!-- Node1&#45;&gt;Node8 -->
<g id="edge11_Node000001_Node000008" class="edge">
<title>Node1&#45;&gt;Node8</title>
<g id="a_edge11_Node000001_Node000008"><a xlink:title=" ">
<path fill="none" stroke="#63b8ff" d="M490.68,-121.61C466.79,-112.73 438.33,-102.66 412.25,-94.75 332.83,-70.66 240.52,-48.48 176.42,-33.98"/>
<polygon fill="#63b8ff" stroke="#63b8ff" points="489.29,-124.83 499.88,-125.06 491.75,-118.27 489.29,-124.83"/>
</a>
</g>
</g>
<!-- Node3 -->
<g id="Node000003" class="node">
<title>Node3</title>
<g id="a_Node000003"><a xlink:href="$classTNonRelocatableInlineAllocator_1_1ForElementType.html#a72cbdd60cddc649536a5f97d8611779b" xlink:title=" ">
<polygon fill="white" stroke="#666666" points="188.12,-293.5 4.12,-293.5 4.12,-260 188.12,-260 188.12,-293.5"/>
<text xml:space="preserve" text-anchor="start" x="12.12" y="-280" font-family="Helvetica,sans-Serif" font-size="10.00">TNonRelocatableInlineAllocator</text>
<text xml:space="preserve" text-anchor="middle" x="96.12" y="-267.25" font-family="Helvetica,sans-Serif" font-size="10.00">::ForElementType::ForElementType</text>
</a>
</g>
</g>
<!-- Node2&#45;&gt;Node3 -->
<g id="edge2_Node000002_Node000003" class="edge">
<title>Node2&#45;&gt;Node3</title>
<g id="a_edge2_Node000002_Node000003"><a xlink:title=" ">
<path fill="none" stroke="#63b8ff" d="M242.31,-238.84C216.44,-245.59 187.84,-253.06 162.91,-259.57"/>
<polygon fill="#63b8ff" stroke="#63b8ff" points="242.95,-242.29 251.74,-236.38 241.18,-235.52 242.95,-242.29"/>
</a>
</g>
</g>
<!-- Node2&#45;&gt;Node4 -->
<g id="edge3_Node000002_Node000004" class="edge">
<title>Node2&#45;&gt;Node4</title>
<g id="a_edge3_Node000002_Node000004"><a xlink:title=" ">
<path fill="none" stroke="#63b8ff" d="M224.99,-199.23C210.18,-196.16 194.96,-193.01 180.42,-190"/>
<polygon fill="#63b8ff" stroke="#63b8ff" points="224.24,-202.65 234.74,-201.25 225.66,-195.79 224.24,-202.65"/>
</a>
</g>
</g>
<!-- Node5 -->
<g id="Node000005" class="node">
<title>Node5</title>
<g id="a_Node000005"><a xlink:href="$classTNonRelocatableInlineAllocator_1_1ForElementType.html#abe4034f0f17a723a85956e81586a87a5" xlink:title=" ">
<polygon fill="white" stroke="#666666" points="181,-241.5 11.25,-241.5 11.25,-208 181,-208 181,-241.5"/>
<text xml:space="preserve" text-anchor="start" x="19.25" y="-228" font-family="Helvetica,sans-Serif" font-size="10.00">TNonRelocatableInlineAllocator</text>
<text xml:space="preserve" text-anchor="middle" x="96.12" y="-215.25" font-family="Helvetica,sans-Serif" font-size="10.00">::ForElementType::operator=</text>
</a>
</g>
</g>
<!-- Node2&#45;&gt;Node5 -->
<g id="edge4_Node000002_Node000005" class="edge">
<title>Node2&#45;&gt;Node5</title>
<g id="a_edge4_Node000002_Node000005"><a xlink:title=" ">
<path fill="none" stroke="#63b8ff" d="M216.65,-221.52C204.82,-221.84 192.85,-222.16 181.3,-222.48"/>
<polygon fill="#63b8ff" stroke="#63b8ff" points="216.53,-225.03 226.43,-221.26 216.34,-218.03 216.53,-225.03"/>
</a>
</g>
</g>
<!-- Node6&#45;&gt;Node4 -->
<g id="edge7_Node000006_Node000004" class="edge">
<title>Node6&#45;&gt;Node4</title>
<g id="a_edge7_Node000006_Node000004"><a xlink:title=" ">
<path fill="none" stroke="#63b8ff" d="M234.4,-140.61C213.37,-145.54 191.02,-150.77 170.58,-155.55"/>
<polygon fill="#63b8ff" stroke="#63b8ff" points="235.18,-144.03 244.12,-138.34 233.59,-137.21 235.18,-144.03"/>
</a>
</g>
</g>
<!-- Node7 -->
<g id="Node000007" class="node">
<title>Node7</title>
<g id="a_Node000007"><a xlink:href="$classTNonRelocatableInlineAllocator_1_1ForElementType.html#ac47e12573a9b69170a6b49fe7c5c1c7b" xlink:title=" ">
<polygon fill="white" stroke="#666666" points="190.75,-137.5 1.5,-137.5 1.5,-104 190.75,-104 190.75,-137.5"/>
<text xml:space="preserve" text-anchor="start" x="9.5" y="-124" font-family="Helvetica,sans-Serif" font-size="10.00">TNonRelocatableInlineAllocator</text>
<text xml:space="preserve" text-anchor="middle" x="96.12" y="-111.25" font-family="Helvetica,sans-Serif" font-size="10.00">::ForElementType::GetAllocatedSize</text>
</a>
</g>
</g>
<!-- Node6&#45;&gt;Node7 -->
<g id="edge6_Node000006_Node000007" class="edge">
<title>Node6&#45;&gt;Node7</title>
<g id="a_edge6_Node000006_Node000007"><a xlink:title=" ">
<path fill="none" stroke="#63b8ff" d="M221.65,-120.75C211.47,-120.75 201.14,-120.75 191.01,-120.75"/>
<polygon fill="#63b8ff" stroke="#63b8ff" points="221.54,-124.25 231.54,-120.75 221.54,-117.25 221.54,-124.25"/>
</a>
</g>
</g>
<!-- Node6&#45;&gt;Node8 -->
<g id="edge8_Node000006_Node000008" class="edge">
<title>Node6&#45;&gt;Node8</title>
<g id="a_edge8_Node000006_Node000008"><a xlink:title=" ">
<path fill="none" stroke="#63b8ff" d="M283.72,-97.36C252.94,-77.39 210.57,-50.69 192.25,-42.75 184.79,-39.52 176.82,-36.59 168.79,-33.96"/>
<polygon fill="#63b8ff" stroke="#63b8ff" points="281.7,-100.22 291.99,-102.75 285.52,-94.35 281.7,-100.22"/>
</a>
</g>
</g>
<!-- Node9 -->
<g id="Node000009" class="node">
<title>Node9</title>
<g id="a_Node000009"><a xlink:href="$classTNonRelocatableInlineAllocator_1_1ForElementType.html#a686809eb838ed73bb2da6fcb90412ed2" xlink:title=" ">
<polygon fill="white" stroke="#666666" points="192.25,-85.5 0,-85.5 0,-52 192.25,-52 192.25,-85.5"/>
<text xml:space="preserve" text-anchor="start" x="8" y="-72" font-family="Helvetica,sans-Serif" font-size="10.00">TNonRelocatableInlineAllocator</text>
<text xml:space="preserve" text-anchor="middle" x="96.12" y="-59.25" font-family="Helvetica,sans-Serif" font-size="10.00">::ForElementType::~ForElementType</text>
</a>
</g>
</g>
<!-- Node6&#45;&gt;Node9 -->
<g id="edge9_Node000006_Node000009" class="edge">
<title>Node6&#45;&gt;Node9</title>
<g id="a_edge9_Node000006_Node000009"><a xlink:title=" ">
<path fill="none" stroke="#63b8ff" d="M234.4,-100.89C213.37,-95.96 191.02,-90.73 170.58,-85.95"/>
<polygon fill="#63b8ff" stroke="#63b8ff" points="233.59,-104.29 244.12,-103.16 235.18,-97.47 233.59,-104.29"/>
</a>
</g>
</g>
</g>
</svg>
