<?xml version="1.0" encoding="UTF-8" standalone="no"?>
<!DOCTYPE svg PUBLIC "-//W3C//DTD SVG 1.1//EN"
 "http://www.w3.org/Graphics/SVG/1.1/DTD/svg11.dtd">
<!-- Generated by graphviz version 14.1.4 (0)
 -->
<!-- Title: FAutomationSpecBase::GetId Pages: 1 -->
<svg width="792pt" height="314pt"
 viewBox="0.00 0.00 792.00 314.00" xmlns="http://www.w3.org/2000/svg" xmlns:xlink="http://www.w3.org/1999/xlink">
<g id="graph0" class="graph" transform="scale(1 1) rotate(0) translate(4 310.12)">
<title>FAutomationSpecBase::GetId</title>
<!-- Node1 -->
<g id="Node000001" class="node">
<title>Node1</title>
<g id="a_Node000001"><a xlink:title=" ">
<polygon fill="#999999" stroke="#666666" points="784.25,-189.5 658.75,-189.5 658.75,-156 784.25,-156 784.25,-189.5"/>
<text xml:space="preserve" text-anchor="start" x="666.75" y="-176" font-family="Helvetica,sans-Serif" font-size="10.00">FAutomationSpecBase</text>
<text xml:space="preserve" text-anchor="middle" x="721.5" y="-163.25" font-family="Helvetica,sans-Serif" font-size="10.00">::GetId</text>
</a>
</g>
</g>
<!-- Node2 -->
<g id="Node000002" class="node">
<title>Node2</title>
<g id="a_Node000002"><a xlink:href="$classFAutomationSpecBase.html#a61aa9914cd4c034ec2ae7cbefe109e69" xlink:title=" ">
<polygon fill="white" stroke="#666666" points="622.75,-306.12 484.5,-306.12 484.5,-285.38 622.75,-285.38 622.75,-306.12"/>
<text xml:space="preserve" text-anchor="middle" x="553.62" y="-292.62" font-family="Helvetica,sans-Serif" font-size="10.00">FAutomationSpecBase::It</text>
</a>
</g>
</g>
<!-- Node1&#45;&gt;Node2 -->
<g id="edge1_Node000001_Node000002" class="edge">
<title>Node1&#45;&gt;Node2</title>
<g id="a_edge1_Node000001_Node000002"><a xlink:title=" ">
<path fill="none" stroke="#63b8ff" d="M702.28,-198.64C684.52,-222.02 655.47,-255.75 622.75,-275.75 616.75,-279.41 610.05,-282.44 603.25,-284.92"/>
<polygon fill="#63b8ff" stroke="#63b8ff" points="704.92,-200.96 708.06,-190.84 699.29,-196.79 704.92,-200.96"/>
</a>
</g>
</g>
<!-- Node3 -->
<g id="Node000003" class="node">
<title>Node3</title>
<g id="a_Node000003"><a xlink:href="$classFAutomationSpecBase.html#a6df5040d8be116f9da4a00cf6b62cbee" xlink:title=" ">
<polygon fill="white" stroke="#666666" points="622.75,-267.12 484.5,-267.12 484.5,-246.38 622.75,-246.38 622.75,-267.12"/>
<text xml:space="preserve" text-anchor="middle" x="553.62" y="-253.62" font-family="Helvetica,sans-Serif" font-size="10.00">FAutomationSpecBase::It</text>
</a>
</g>
</g>
<!-- Node1&#45;&gt;Node3 -->
<g id="edge2_Node000001_Node000003" class="edge">
<title>Node1&#45;&gt;Node3</title>
<g id="a_edge2_Node000001_Node000003"><a xlink:title=" ">
<path fill="none" stroke="#63b8ff" d="M689.56,-196.4C670.98,-209.72 646.43,-225.81 622.75,-236.75 615.14,-240.26 606.77,-243.32 598.57,-245.92"/>
<polygon fill="#63b8ff" stroke="#63b8ff" points="691.45,-199.35 697.47,-190.63 687.33,-193.7 691.45,-199.35"/>
</a>
</g>
</g>
<!-- Node4 -->
<g id="Node000004" class="node">
<title>Node4</title>
<g id="a_Node000004"><a xlink:href="$classFAutomationSpecBase.html#a8b5305d9d9999167b0dcd80b5d1d861b" xlink:title=" ">
<polygon fill="white" stroke="#666666" points="622.75,-228.12 484.5,-228.12 484.5,-207.38 622.75,-207.38 622.75,-228.12"/>
<text xml:space="preserve" text-anchor="middle" x="553.62" y="-214.62" font-family="Helvetica,sans-Serif" font-size="10.00">FAutomationSpecBase::It</text>
</a>
</g>
</g>
<!-- Node1&#45;&gt;Node4 -->
<g id="edge3_Node000001_Node000004" class="edge">
<title>Node1&#45;&gt;Node4</title>
<g id="a_edge3_Node000001_Node000004"><a xlink:title=" ">
<path fill="none" stroke="#63b8ff" d="M647.38,-192.59C629.23,-197.51 610.45,-202.61 594.57,-206.91"/>
<polygon fill="#63b8ff" stroke="#63b8ff" points="648.07,-196.03 656.8,-190.03 646.23,-189.27 648.07,-196.03"/>
</a>
</g>
</g>
<!-- Node11 -->
<g id="Node000011" class="node">
<title>Node11</title>
<g id="a_Node000011"><a xlink:href="$classFAutomationSpecBase.html#adb5bf6befde30fd67ef36f49215eb443" xlink:title=" ">
<polygon fill="white" stroke="#666666" points="616.38,-189.5 490.88,-189.5 490.88,-156 616.38,-156 616.38,-189.5"/>
<text xml:space="preserve" text-anchor="start" x="498.88" y="-176" font-family="Helvetica,sans-Serif" font-size="10.00">FAutomationSpecBase</text>
<text xml:space="preserve" text-anchor="middle" x="553.62" y="-163.25" font-family="Helvetica,sans-Serif" font-size="10.00">::LatentIt</text>
</a>
</g>
</g>
<!-- Node1&#45;&gt;Node11 -->
<g id="edge10_Node000001_Node000011" class="edge">
<title>Node1&#45;&gt;Node11</title>
<g id="a_edge10_Node000001_Node000011"><a xlink:title=" ">
<path fill="none" stroke="#63b8ff" d="M646.96,-172.75C636.84,-172.75 626.54,-172.75 616.66,-172.75"/>
<polygon fill="#63b8ff" stroke="#63b8ff" points="646.75,-176.25 656.75,-172.75 646.75,-169.25 646.75,-176.25"/>
</a>
</g>
</g>
<!-- Node12 -->
<g id="Node000012" class="node">
<title>Node12</title>
<g id="a_Node000012"><a xlink:href="$classFAutomationSpecBase.html#a2fbaf274d6b9521bbe81664bd22aee51" xlink:title=" ">
<polygon fill="white" stroke="#666666" points="616.38,-137.5 490.88,-137.5 490.88,-104 616.38,-104 616.38,-137.5"/>
<text xml:space="preserve" text-anchor="start" x="498.88" y="-124" font-family="Helvetica,sans-Serif" font-size="10.00">FAutomationSpecBase</text>
<text xml:space="preserve" text-anchor="middle" x="553.62" y="-111.25" font-family="Helvetica,sans-Serif" font-size="10.00">::LatentIt</text>
</a>
</g>
</g>
<!-- Node1&#45;&gt;Node12 -->
<g id="edge11_Node000001_Node000012" class="edge">
<title>Node1&#45;&gt;Node12</title>
<g id="a_edge11_Node000001_Node000012"><a xlink:title=" ">
<path fill="none" stroke="#63b8ff" d="M654.97,-152.21C639.95,-147.5 624.14,-142.54 609.62,-137.99"/>
<polygon fill="#63b8ff" stroke="#63b8ff" points="653.69,-155.47 664.28,-155.13 655.79,-148.8 653.69,-155.47"/>
</a>
</g>
</g>
<!-- Node13 -->
<g id="Node000013" class="node">
<title>Node13</title>
<g id="a_Node000013"><a xlink:href="$classFAutomationSpecBase.html#a939033565cf8ef0f1b4f44372f5dc79d" xlink:title=" ">
<polygon fill="white" stroke="#666666" points="616.38,-85.5 490.88,-85.5 490.88,-52 616.38,-52 616.38,-85.5"/>
<text xml:space="preserve" text-anchor="start" x="498.88" y="-72" font-family="Helvetica,sans-Serif" font-size="10.00">FAutomationSpecBase</text>
<text xml:space="preserve" text-anchor="middle" x="553.62" y="-59.25" font-family="Helvetica,sans-Serif" font-size="10.00">::LatentIt</text>
</a>
</g>
</g>
<!-- Node1&#45;&gt;Node13 -->
<g id="edge12_Node000001_Node000013" class="edge">
<title>Node1&#45;&gt;Node13</title>
<g id="a_edge12_Node000001_Node000013"><a xlink:title=" ">
<path fill="none" stroke="#63b8ff" d="M694.33,-148.14C675.52,-131.43 648.95,-109.72 622.75,-94.75 617.14,-91.55 611.07,-88.59 604.93,-85.9"/>
<polygon fill="#63b8ff" stroke="#63b8ff" points="691.76,-150.54 701.52,-154.65 696.45,-145.34 691.76,-150.54"/>
</a>
</g>
</g>
<!-- Node14 -->
<g id="Node000014" class="node">
<title>Node14</title>
<g id="a_Node000014"><a xlink:href="$classFAutomationSpecBase.html#a68ca6c8b62d75956ae8433d7d8274c84" xlink:title=" ">
<polygon fill="white" stroke="#666666" points="616.38,-33.5 490.88,-33.5 490.88,0 616.38,0 616.38,-33.5"/>
<text xml:space="preserve" text-anchor="start" x="498.88" y="-20" font-family="Helvetica,sans-Serif" font-size="10.00">FAutomationSpecBase</text>
<text xml:space="preserve" text-anchor="middle" x="553.62" y="-7.25" font-family="Helvetica,sans-Serif" font-size="10.00">::LatentIt</text>
</a>
</g>
</g>
<!-- Node1&#45;&gt;Node14 -->
<g id="edge13_Node000001_Node000014" class="edge">
<title>Node1&#45;&gt;Node14</title>
<g id="a_edge13_Node000001_Node000014"><a xlink:title=" ">
<path fill="none" stroke="#63b8ff" d="M706.27,-145.65C689.74,-116.55 659.92,-70.73 622.75,-42.75 618.4,-39.48 613.59,-36.57 608.6,-34"/>
<polygon fill="#63b8ff" stroke="#63b8ff" points="703.11,-147.17 711.01,-154.22 709.23,-143.78 703.11,-147.17"/>
</a>
</g>
</g>
<!-- Node5 -->
<g id="Node000005" class="node">
<title>Node5</title>
<g id="a_Node000005"><a xlink:href="$classFAutomationSpecBase.html#aa3faa6cec2244382220eaba88c7460d7" xlink:title=" ">
<polygon fill="white" stroke="#666666" points="448.5,-260.5 323,-260.5 323,-227 448.5,-227 448.5,-260.5"/>
<text xml:space="preserve" text-anchor="start" x="331" y="-247" font-family="Helvetica,sans-Serif" font-size="10.00">FAutomationSpecBase</text>
<text xml:space="preserve" text-anchor="middle" x="385.75" y="-234.25" font-family="Helvetica,sans-Serif" font-size="10.00">::Describe</text>
</a>
</g>
</g>
<!-- Node4&#45;&gt;Node5 -->
<g id="edge4_Node000004_Node000005" class="edge">
<title>Node4&#45;&gt;Node5</title>
<g id="a_edge4_Node000004_Node000005"><a xlink:title=" ">
<path fill="none" stroke="#63b8ff" d="M472.88,-230.25C464.82,-231.51 456.73,-232.78 448.9,-234.01"/>
<polygon fill="#63b8ff" stroke="#63b8ff" points="473.37,-233.72 482.7,-228.71 472.28,-226.8 473.37,-233.72"/>
</a>
</g>
</g>
<!-- Node7 -->
<g id="Node000007" class="node">
<title>Node7</title>
<g id="a_Node000007"><a xlink:href="$classFAutomationSpecBase.html#a68d3eea3cea548b72628b262f39789f4" xlink:title=" ">
<polygon fill="white" stroke="#666666" points="448.5,-208.5 323,-208.5 323,-175 448.5,-175 448.5,-208.5"/>
<text xml:space="preserve" text-anchor="start" x="331" y="-195" font-family="Helvetica,sans-Serif" font-size="10.00">FAutomationSpecBase</text>
<text xml:space="preserve" text-anchor="middle" x="385.75" y="-182.25" font-family="Helvetica,sans-Serif" font-size="10.00">::PostDefine</text>
</a>
</g>
</g>
<!-- Node4&#45;&gt;Node7 -->
<g id="edge6_Node000004_Node000007" class="edge">
<title>Node4&#45;&gt;Node7</title>
<g id="a_edge6_Node000004_Node000007"><a xlink:title=" ">
<path fill="none" stroke="#63b8ff" d="M472.88,-205.25C464.82,-203.99 456.73,-202.72 448.9,-201.49"/>
<polygon fill="#63b8ff" stroke="#63b8ff" points="472.28,-208.7 482.7,-206.79 473.37,-201.78 472.28,-208.7"/>
</a>
</g>
</g>
<!-- Node6 -->
<g id="Node000006" class="node">
<title>Node6</title>
<g id="a_Node000006"><a xlink:href="$classFAutomationSpecBase.html#af038b1c3921e3a0192326176fc900ca9" xlink:title=" ">
<polygon fill="white" stroke="#666666" points="287,-260.5 161.5,-260.5 161.5,-227 287,-227 287,-260.5"/>
<text xml:space="preserve" text-anchor="start" x="169.5" y="-247" font-family="Helvetica,sans-Serif" font-size="10.00">FAutomationSpecBase</text>
<text xml:space="preserve" text-anchor="middle" x="224.25" y="-234.25" font-family="Helvetica,sans-Serif" font-size="10.00">::Describe</text>
</a>
</g>
</g>
<!-- Node5&#45;&gt;Node6 -->
<g id="edge5_Node000005_Node000006" class="edge">
<title>Node5&#45;&gt;Node6</title>
<g id="a_edge5_Node000005_Node000006"><a xlink:title=" ">
<path fill="none" stroke="#63b8ff" d="M311.13,-243.75C303.22,-243.75 295.23,-243.75 287.47,-243.75"/>
<polygon fill="#63b8ff" stroke="#63b8ff" points="311.11,-247.25 321.11,-243.75 311.11,-240.25 311.11,-247.25"/>
</a>
</g>
</g>
<!-- Node8 -->
<g id="Node000008" class="node">
<title>Node8</title>
<g id="a_Node000008"><a xlink:href="$classFAutomationSpecBase.html#a80393f1a5424eb929086cce52a3abdb2" xlink:title=" ">
<polygon fill="white" stroke="#666666" points="287,-208.5 161.5,-208.5 161.5,-175 287,-175 287,-208.5"/>
<text xml:space="preserve" text-anchor="start" x="169.5" y="-195" font-family="Helvetica,sans-Serif" font-size="10.00">FAutomationSpecBase</text>
<text xml:space="preserve" text-anchor="middle" x="224.25" y="-182.25" font-family="Helvetica,sans-Serif" font-size="10.00">::EnsureDefinitions</text>
</a>
</g>
</g>
<!-- Node7&#45;&gt;Node8 -->
<g id="edge7_Node000007_Node000008" class="edge">
<title>Node7&#45;&gt;Node8</title>
<g id="a_edge7_Node000007_Node000008"><a xlink:title=" ">
<path fill="none" stroke="#63b8ff" d="M311.13,-191.75C303.22,-191.75 295.23,-191.75 287.47,-191.75"/>
<polygon fill="#63b8ff" stroke="#63b8ff" points="311.11,-195.25 321.11,-191.75 311.11,-188.25 311.11,-195.25"/>
</a>
</g>
</g>
<!-- Node9 -->
<g id="Node000009" class="node">
<title>Node9</title>
<g id="a_Node000009"><a xlink:href="$classFAutomationSpecBase.html#adf88ef9047a148521ac5a9563337536d" xlink:title=" ">
<polygon fill="white" stroke="#666666" points="125.5,-234.5 0,-234.5 0,-201 125.5,-201 125.5,-234.5"/>
<text xml:space="preserve" text-anchor="start" x="8" y="-221" font-family="Helvetica,sans-Serif" font-size="10.00">FAutomationSpecBase</text>
<text xml:space="preserve" text-anchor="middle" x="62.75" y="-208.25" font-family="Helvetica,sans-Serif" font-size="10.00">::GetTests</text>
</a>
</g>
</g>
<!-- Node8&#45;&gt;Node9 -->
<g id="edge8_Node000008_Node000009" class="edge">
<title>Node8&#45;&gt;Node9</title>
<g id="a_edge8_Node000008_Node000009"><a xlink:title=" ">
<path fill="none" stroke="#63b8ff" d="M149.91,-203.71C141.9,-205.01 133.82,-206.33 125.97,-207.61"/>
<polygon fill="#63b8ff" stroke="#63b8ff" points="150.33,-207.18 159.63,-202.12 149.2,-200.27 150.33,-207.18"/>
</a>
</g>
</g>
<!-- Node10 -->
<g id="Node000010" class="node">
<title>Node10</title>
<g id="a_Node000010"><a xlink:href="$classFAutomationSpecBase.html#ab25c532bda8fd67c9554c031fcbe7bf9" xlink:title=" ">
<polygon fill="white" stroke="#666666" points="125.5,-182.5 0,-182.5 0,-149 125.5,-149 125.5,-182.5"/>
<text xml:space="preserve" text-anchor="start" x="8" y="-169" font-family="Helvetica,sans-Serif" font-size="10.00">FAutomationSpecBase</text>
<text xml:space="preserve" text-anchor="middle" x="62.75" y="-156.25" font-family="Helvetica,sans-Serif" font-size="10.00">::RunTest</text>
</a>
</g>
</g>
<!-- Node8&#45;&gt;Node10 -->
<g id="edge9_Node000008_Node000010" class="edge">
<title>Node8&#45;&gt;Node10</title>
<g id="a_edge9_Node000008_Node000010"><a xlink:title=" ">
<path fill="none" stroke="#63b8ff" d="M149.91,-179.79C141.9,-178.49 133.82,-177.17 125.97,-175.89"/>
<polygon fill="#63b8ff" stroke="#63b8ff" points="149.2,-183.23 159.63,-181.38 150.33,-176.32 149.2,-183.23"/>
</a>
</g>
</g>
</g>
</svg>
