<?xml version="1.0" encoding="UTF-8" standalone="no"?>
<!DOCTYPE svg PUBLIC "-//W3C//DTD SVG 1.1//EN"
 "http://www.w3.org/Graphics/SVG/1.1/DTD/svg11.dtd">
<!-- Generated by graphviz version 14.1.4 (0)
 -->
<!-- Title: TDirectoryTree::TryFindClosestPath Pages: 1 -->
<svg width="394pt" height="47pt"
 viewBox="0.00 0.00 394.00 47.00" xmlns="http://www.w3.org/2000/svg" xmlns:xlink="http://www.w3.org/1999/xlink">
<g id="graph0" class="graph" transform="scale(1 1) rotate(0) translate(4 42.75)">
<title>TDirectoryTree::TryFindClosestPath</title>
<!-- Node1 -->
<g id="Node000001" class="node">
<title>Node1</title>
<g id="a_Node000001"><a xlink:title=" ">
<polygon fill="#999999" stroke="#666666" points="185.5,-20.75 0,-20.75 0,0 185.5,0 185.5,-20.75"/>
<text xml:space="preserve" text-anchor="middle" x="92.75" y="-7.25" font-family="Helvetica,sans-Serif" font-size="10.00">TDirectoryTree::TryFindClosestPath</text>
</a>
</g>
</g>
<!-- Node1&#45;&gt;Node1 -->
<g id="edge2_Node000001_Node000001" class="edge">
<title>Node1&#45;&gt;Node1</title>
<g id="a_edge2_Node000001_Node000001"><a xlink:title=" ">
<path fill="none" stroke="#63b8ff" d="M58.75,-21.15C45.15,-29.81 56.48,-38.75 92.75,-38.75 113.15,-38.75 125.66,-35.92 130.28,-31.9"/>
<polygon fill="#63b8ff" stroke="#63b8ff" points="133.67,-30.99 127.22,-22.59 127.02,-33.18 133.67,-30.99"/>
</a>
</g>
</g>
<!-- Node2 -->
<g id="Node000002" class="node">
<title>Node2</title>
<g id="a_Node000002"><a xlink:href="$classTDirectoryTree.html#a79b1844b93f48e81db4b619e969ae6a7" xlink:title=" ">
<polygon fill="white" stroke="#666666" points="386,-20.75 221.5,-20.75 221.5,0 386,0 386,-20.75"/>
<text xml:space="preserve" text-anchor="middle" x="303.75" y="-7.25" font-family="Helvetica,sans-Serif" font-size="10.00">TDirectoryTree::TDirectoryTree</text>
</a>
</g>
</g>
<!-- Node1&#45;&gt;Node2 -->
<g id="edge1_Node000001_Node000002" class="edge">
<title>Node1&#45;&gt;Node2</title>
<g id="a_edge1_Node000001_Node000002"><a xlink:title=" ">
<path fill="none" stroke="#63b8ff" d="M185.72,-10.38C193.76,-10.38 201.9,-10.38 209.95,-10.38"/>
<polygon fill="#63b8ff" stroke="#63b8ff" points="209.73,-13.88 219.73,-10.38 209.73,-6.88 209.73,-13.88"/>
</a>
</g>
</g>
</g>
</svg>
