<?xml version="1.0" encoding="UTF-8" standalone="no"?>
<!DOCTYPE svg PUBLIC "-//W3C//DTD SVG 1.1//EN"
 "http://www.w3.org/Graphics/SVG/1.1/DTD/svg11.dtd">
<!-- Generated by graphviz version 14.1.4 (0)
 -->
<!-- Title: UE::FTimeout::GetElapsedSeconds Pages: 1 -->
<svg width="764pt" height="80pt"
 viewBox="0.00 0.00 764.00 80.00" xmlns="http://www.w3.org/2000/svg" xmlns:xlink="http://www.w3.org/1999/xlink">
<g id="graph0" class="graph" transform="scale(1 1) rotate(0) translate(4 76.12)">
<title>UE::FTimeout::GetElapsedSeconds</title>
<!-- Node1 -->
<g id="Node000001" class="node">
<title>Node1</title>
<g id="a_Node000001"><a xlink:title=" ">
<polygon fill="#999999" stroke="#666666" points="755.5,-55.5 612.75,-55.5 612.75,-22 755.5,-22 755.5,-55.5"/>
<text xml:space="preserve" text-anchor="start" x="620.75" y="-42" font-family="Helvetica,sans-Serif" font-size="10.00">UE::FTimeout::GetElapsed</text>
<text xml:space="preserve" text-anchor="middle" x="684.12" y="-29.25" font-family="Helvetica,sans-Serif" font-size="10.00">Seconds</text>
</a>
</g>
</g>
<!-- Node2 -->
<g id="Node000002" class="node">
<title>Node2</title>
<g id="a_Node000002"><a xlink:href="$classUE_1_1FTimeout.html#a495889c830f519839e28182a71ed56c6" xlink:title=" ">
<polygon fill="white" stroke="#666666" points="576.75,-72.12 410,-72.12 410,-51.38 576.75,-51.38 576.75,-72.12"/>
<text xml:space="preserve" text-anchor="middle" x="493.38" y="-58.62" font-family="Helvetica,sans-Serif" font-size="10.00">UE::FTimeout::GetElapsedTime</text>
</a>
</g>
</g>
<!-- Node1&#45;&gt;Node2 -->
<g id="edge1_Node000001_Node000002" class="edge">
<title>Node1&#45;&gt;Node2</title>
<g id="a_edge1_Node000001_Node000002"><a xlink:title=" ">
<path fill="none" stroke="#63b8ff" d="M601.12,-48.74C593.13,-49.72 585.03,-50.7 577.03,-51.68"/>
<polygon fill="#63b8ff" stroke="#63b8ff" points="601.3,-52.25 610.8,-47.56 600.45,-45.3 601.3,-52.25"/>
</a>
</g>
</g>
<!-- Node3 -->
<g id="Node000003" class="node">
<title>Node3</title>
<g id="a_Node000003"><a xlink:href="$classUE_1_1FTimeout.html#a930d9fd136a0576c15946dc75ad5215b" xlink:title=" ">
<polygon fill="white" stroke="#666666" points="571.88,-33.5 414.88,-33.5 414.88,0 571.88,0 571.88,-33.5"/>
<text xml:space="preserve" text-anchor="start" x="422.88" y="-20" font-family="Helvetica,sans-Serif" font-size="10.00">UE::FTimeout::GetRemaining</text>
<text xml:space="preserve" text-anchor="middle" x="493.38" y="-7.25" font-family="Helvetica,sans-Serif" font-size="10.00">Seconds</text>
</a>
</g>
</g>
<!-- Node1&#45;&gt;Node3 -->
<g id="edge2_Node000001_Node000003" class="edge">
<title>Node1&#45;&gt;Node3</title>
<g id="a_edge2_Node000001_Node000003"><a xlink:title=" ">
<path fill="none" stroke="#63b8ff" d="M601.14,-29.19C591.55,-28.08 581.78,-26.94 572.24,-25.83"/>
<polygon fill="#63b8ff" stroke="#63b8ff" points="600.46,-32.64 610.8,-30.32 601.27,-25.69 600.46,-32.64"/>
</a>
</g>
</g>
<!-- Node4 -->
<g id="Node000004" class="node">
<title>Node4</title>
<g id="a_Node000004"><a xlink:href="$classUE_1_1FTimeout.html#abf2af7d33cd432ed84869185fa6e2e34" xlink:title=" ">
<polygon fill="white" stroke="#666666" points="374,-27.12 193,-27.12 193,-6.38 374,-6.38 374,-27.12"/>
<text xml:space="preserve" text-anchor="middle" x="283.5" y="-13.62" font-family="Helvetica,sans-Serif" font-size="10.00">UE::FTimeout::GetRemainingTime</text>
</a>
</g>
</g>
<!-- Node3&#45;&gt;Node4 -->
<g id="edge3_Node000003_Node000004" class="edge">
<title>Node3&#45;&gt;Node4</title>
<g id="a_edge3_Node000003_Node000004"><a xlink:title=" ">
<path fill="none" stroke="#63b8ff" d="M402.97,-16.75C393.52,-16.75 383.92,-16.75 374.47,-16.75"/>
<polygon fill="#63b8ff" stroke="#63b8ff" points="402.87,-20.25 412.87,-16.75 402.87,-13.25 402.87,-20.25"/>
</a>
</g>
</g>
<!-- Node5 -->
<g id="Node000005" class="node">
<title>Node5</title>
<g id="a_Node000005"><a xlink:href="$classUE_1_1FTimeout.html#a8e1b9a0f459fc6515c10be996cbd9570" xlink:title=" ">
<polygon fill="white" stroke="#666666" points="157,-33.5 0,-33.5 0,0 157,0 157,-33.5"/>
<text xml:space="preserve" text-anchor="start" x="8" y="-20" font-family="Helvetica,sans-Serif" font-size="10.00">UE::FTimeout::GetRemaining</text>
<text xml:space="preserve" text-anchor="middle" x="78.5" y="-7.25" font-family="Helvetica,sans-Serif" font-size="10.00">RoundedUpMilliseconds</text>
</a>
</g>
</g>
<!-- Node4&#45;&gt;Node5 -->
<g id="edge4_Node000004_Node000005" class="edge">
<title>Node4&#45;&gt;Node5</title>
<g id="a_edge4_Node000004_Node000005"><a xlink:title=" ">
<path fill="none" stroke="#63b8ff" d="M181.22,-16.75C173.17,-16.75 165.12,-16.75 157.27,-16.75"/>
<polygon fill="#63b8ff" stroke="#63b8ff" points="181.06,-20.25 191.06,-16.75 181.06,-13.25 181.06,-20.25"/>
</a>
</g>
</g>
</g>
</svg>
