<?xml version="1.0" encoding="UTF-8" standalone="no"?>
<!DOCTYPE svg PUBLIC "-//W3C//DTD SVG 1.1//EN"
 "http://www.w3.org/Graphics/SVG/1.1/DTD/svg11.dtd">
<!-- Generated by graphviz version 14.1.4 (0)
 -->
<!-- Title: FLockFreePointerListLIFORoot::PopAllAndChangeState Pages: 1 -->
<svg width="733pt" height="275pt"
 viewBox="0.00 0.00 733.00 275.00" xmlns="http://www.w3.org/2000/svg" xmlns:xlink="http://www.w3.org/1999/xlink">
<g id="graph0" class="graph" transform="scale(1 1) rotate(0) translate(4 270.75)">
<title>FLockFreePointerListLIFORoot::PopAllAndChangeState</title>
<!-- Node1 -->
<g id="Node000001" class="node">
<title>Node1</title>
<g id="a_Node000001"><a xlink:title=" ">
<polygon fill="#999999" stroke="#666666" points="161.5,-124.12 0,-124.12 0,-90.62 161.5,-90.62 161.5,-124.12"/>
<text xml:space="preserve" text-anchor="start" x="8" y="-110.62" font-family="Helvetica,sans-Serif" font-size="10.00">FLockFreePointerListLIFORoot</text>
<text xml:space="preserve" text-anchor="middle" x="80.75" y="-97.88" font-family="Helvetica,sans-Serif" font-size="10.00">::PopAllAndChangeState</text>
</a>
</g>
</g>
<!-- Node2 -->
<g id="Node000002" class="node">
<title>Node2</title>
<g id="a_Node000002"><a xlink:href="$structFIndexedPointer.html#a9487ac7fee0a0a9f88dd1ea764d886f3" xlink:title=" ">
<polygon fill="white" stroke="#666666" points="349.62,-228.12 206.12,-228.12 206.12,-194.62 349.62,-194.62 349.62,-228.12"/>
<text xml:space="preserve" text-anchor="start" x="214.12" y="-214.62" font-family="Helvetica,sans-Serif" font-size="10.00">FIndexedPointer::Advance</text>
<text xml:space="preserve" text-anchor="middle" x="277.88" y="-201.88" font-family="Helvetica,sans-Serif" font-size="10.00">CounterAndState</text>
</a>
</g>
</g>
<!-- Node1&#45;&gt;Node2 -->
<g id="edge1_Node000001_Node000002" class="edge">
<title>Node1&#45;&gt;Node2</title>
<g id="a_edge1_Node000001_Node000002"><a xlink:title=" ">
<path fill="none" stroke="#63b8ff" d="M103.26,-124.55C125.71,-141.81 162.45,-168.24 197.5,-185.38 200.76,-186.97 204.13,-188.5 207.58,-189.96"/>
<polygon fill="#63b8ff" stroke="#63b8ff" points="206.06,-193.12 216.65,-193.59 208.66,-186.62 206.06,-193.12"/>
</a>
</g>
</g>
<!-- Node7 -->
<g id="Node000007" class="node">
<title>Node7</title>
<g id="a_Node000007"><a xlink:href="$structFIndexedPointer.html#a9b75defabb162e4a1a7e5b2e013abcf6" xlink:title=" ">
<polygon fill="white" stroke="#666666" points="358.25,-59.75 197.5,-59.75 197.5,-39 358.25,-39 358.25,-59.75"/>
<text xml:space="preserve" text-anchor="middle" x="277.88" y="-46.25" font-family="Helvetica,sans-Serif" font-size="10.00">FIndexedPointer::AtomicRead</text>
</a>
</g>
</g>
<!-- Node1&#45;&gt;Node7 -->
<g id="edge6_Node000001_Node000007" class="edge">
<title>Node1&#45;&gt;Node7</title>
<g id="a_edge6_Node000001_Node000007"><a xlink:title=" ">
<path fill="none" stroke="#63b8ff" d="M131.65,-90.14C151.98,-83.34 175.76,-75.67 197.5,-69.38 205.01,-67.2 212.97,-65.03 220.82,-62.97"/>
<polygon fill="#63b8ff" stroke="#63b8ff" points="221.53,-66.4 230.34,-60.52 219.79,-59.63 221.53,-66.4"/>
</a>
</g>
</g>
<!-- Node11 -->
<g id="Node000011" class="node">
<title>Node11</title>
<g id="a_Node000011"><a xlink:href="$structFIndexedPointer.html#a0c28b5ff095deb58ffd4c26581ab501a" xlink:title=" ">
<polygon fill="white" stroke="#666666" points="344,-20.75 211.75,-20.75 211.75,0 344,0 344,-20.75"/>
<text xml:space="preserve" text-anchor="middle" x="277.88" y="-7.25" font-family="Helvetica,sans-Serif" font-size="10.00">FIndexedPointer::GetPtr</text>
</a>
</g>
</g>
<!-- Node1&#45;&gt;Node11 -->
<g id="edge10_Node000001_Node000011" class="edge">
<title>Node1&#45;&gt;Node11</title>
<g id="a_edge10_Node000001_Node000011"><a xlink:title=" ">
<path fill="none" stroke="#63b8ff" d="M102.65,-90.26C124.89,-72.84 161.75,-46.21 197.5,-30.38 202.36,-28.22 207.5,-26.27 212.72,-24.51"/>
<polygon fill="#63b8ff" stroke="#63b8ff" points="213.56,-27.92 222.07,-21.6 211.48,-21.23 213.56,-27.92"/>
</a>
</g>
</g>
<!-- Node12 -->
<g id="Node000012" class="node">
<title>Node12</title>
<g id="a_Node000012"><a xlink:href="$structFIndexedPointer.html#aff8a79b9064e7b5ebbd2fb84dca08cb2" xlink:title=" ">
<polygon fill="white" stroke="#666666" points="350,-137.75 205.75,-137.75 205.75,-117 350,-117 350,-137.75"/>
<text xml:space="preserve" text-anchor="middle" x="277.88" y="-124.25" font-family="Helvetica,sans-Serif" font-size="10.00">FIndexedPointer::GetState</text>
</a>
</g>
</g>
<!-- Node1&#45;&gt;Node12 -->
<g id="edge11_Node000001_Node000012" class="edge">
<title>Node1&#45;&gt;Node12</title>
<g id="a_edge11_Node000001_Node000012"><a xlink:title=" ">
<path fill="none" stroke="#63b8ff" d="M161.96,-115.6C172.53,-116.68 183.39,-117.79 194.01,-118.88"/>
<polygon fill="#63b8ff" stroke="#63b8ff" points="193.6,-122.36 203.91,-119.9 194.32,-115.39 193.6,-122.36"/>
</a>
</g>
</g>
<!-- Node13 -->
<g id="Node000013" class="node">
<title>Node13</title>
<g id="a_Node000013"><a xlink:href="$structFIndexedPointer.html#a8e1e64d6af14c469b218adc598cbe1b5" xlink:title=" ">
<polygon fill="white" stroke="#666666" points="343.25,-98.75 212.5,-98.75 212.5,-78 343.25,-78 343.25,-98.75"/>
<text xml:space="preserve" text-anchor="middle" x="277.88" y="-85.25" font-family="Helvetica,sans-Serif" font-size="10.00">FIndexedPointer::SetPtr</text>
</a>
</g>
</g>
<!-- Node1&#45;&gt;Node13 -->
<g id="edge13_Node000001_Node000013" class="edge">
<title>Node1&#45;&gt;Node13</title>
<g id="a_edge13_Node000001_Node000013"><a xlink:title=" ">
<path fill="none" stroke="#63b8ff" d="M161.96,-99.56C174.89,-98.31 188.23,-97.01 201.05,-95.76"/>
<polygon fill="#63b8ff" stroke="#63b8ff" points="201.04,-99.28 210.65,-94.82 200.36,-92.31 201.04,-99.28"/>
</a>
</g>
</g>
<!-- Node15 -->
<g id="Node000015" class="node">
<title>Node15</title>
<g id="a_Node000015"><a xlink:href="$structFIndexedPointer.html#aa1ec7a4be17d3c70f8d8eb6d2fb91891" xlink:title=" ">
<polygon fill="white" stroke="#666666" points="349.25,-176.75 206.5,-176.75 206.5,-156 349.25,-156 349.25,-176.75"/>
<text xml:space="preserve" text-anchor="middle" x="277.88" y="-163.25" font-family="Helvetica,sans-Serif" font-size="10.00">FIndexedPointer::SetState</text>
</a>
</g>
</g>
<!-- Node1&#45;&gt;Node15 -->
<g id="edge16_Node000001_Node000015" class="edge">
<title>Node1&#45;&gt;Node15</title>
<g id="a_edge16_Node000001_Node000015"><a xlink:title=" ">
<path fill="none" stroke="#63b8ff" d="M129.92,-124.54C150.6,-131.67 175.12,-139.8 197.5,-146.38 204.83,-148.53 212.58,-150.66 220.25,-152.68"/>
<polygon fill="#63b8ff" stroke="#63b8ff" points="219.35,-156.07 229.91,-155.18 221.11,-149.29 219.35,-156.07"/>
</a>
</g>
</g>
<!-- Node3 -->
<g id="Node000003" class="node">
<title>Node3</title>
<g id="a_Node000003"><a xlink:href="$structFIndexedPointer.html#a93d0bfb88ae9aca51c7771c8fb74b379" xlink:title=" ">
<polygon fill="white" stroke="#666666" points="567.38,-228.12 410.38,-228.12 410.38,-194.62 567.38,-194.62 567.38,-228.12"/>
<text xml:space="preserve" text-anchor="start" x="418.38" y="-214.62" font-family="Helvetica,sans-Serif" font-size="10.00">FIndexedPointer::GetCounter</text>
<text xml:space="preserve" text-anchor="middle" x="488.88" y="-201.88" font-family="Helvetica,sans-Serif" font-size="10.00">AndState</text>
</a>
</g>
</g>
<!-- Node2&#45;&gt;Node3 -->
<g id="edge2_Node000002_Node000003" class="edge">
<title>Node2&#45;&gt;Node3</title>
<g id="a_edge2_Node000002_Node000003"><a xlink:title=" ">
<path fill="none" stroke="#63b8ff" d="M349.92,-211.38C365.69,-211.38 382.6,-211.38 398.98,-211.38"/>
<polygon fill="#63b8ff" stroke="#63b8ff" points="398.7,-214.88 408.7,-211.38 398.7,-207.88 398.7,-214.88"/>
</a>
</g>
</g>
<!-- Node4 -->
<g id="Node000004" class="node">
<title>Node4</title>
<g id="a_Node000004"><a xlink:href="$LockFreeList_8h.html#afcce3f6ce1f309adcb1153f53a0b6abc" xlink:title=" ">
<polygon fill="white" stroke="#666666" points="546.75,-137.75 431,-137.75 431,-117 546.75,-117 546.75,-137.75"/>
<text xml:space="preserve" text-anchor="middle" x="488.88" y="-124.25" font-family="Helvetica,sans-Serif" font-size="10.00">GetCounterAndState</text>
</a>
</g>
</g>
<!-- Node2&#45;&gt;Node4 -->
<g id="edge3_Node000002_Node000004" class="edge">
<title>Node2&#45;&gt;Node4</title>
<g id="a_edge3_Node000002_Node000004"><a xlink:title=" ">
<path fill="none" stroke="#63b8ff" d="M341.34,-194.26C347.24,-191.66 352.98,-188.71 358.25,-185.38 377.91,-172.93 373.96,-158.76 394.25,-147.38 402.18,-142.92 411.01,-139.46 419.97,-136.77"/>
<polygon fill="#63b8ff" stroke="#63b8ff" points="420.71,-140.19 429.47,-134.24 418.91,-133.43 420.71,-140.19"/>
</a>
</g>
</g>
<!-- Node5 -->
<g id="Node000005" class="node">
<title>Node5</title>
<g id="a_Node000005"><a xlink:href="$LockFreeList_8h.html#a35d839dac0219c8a20bcf15b35dd7baa" xlink:title=" ">
<polygon fill="white" stroke="#666666" points="583.5,-266.75 394.25,-266.75 394.25,-246 583.5,-246 583.5,-266.75"/>
<text xml:space="preserve" text-anchor="middle" x="488.88" y="-253.25" font-family="Helvetica,sans-Serif" font-size="10.00">LockFreeTagCounterHasOverflowed</text>
</a>
</g>
</g>
<!-- Node2&#45;&gt;Node5 -->
<g id="edge4_Node000002_Node000005" class="edge">
<title>Node2&#45;&gt;Node5</title>
<g id="a_edge4_Node000002_Node000005"><a xlink:title=" ">
<path fill="none" stroke="#63b8ff" d="M349.91,-227.63C364.56,-230.92 379.89,-234.3 394.25,-237.38 403.34,-239.32 412.94,-241.33 422.39,-243.27"/>
<polygon fill="#63b8ff" stroke="#63b8ff" points="421.39,-246.64 431.89,-245.22 422.8,-239.78 421.39,-246.64"/>
</a>
</g>
</g>
<!-- Node6 -->
<g id="Node000006" class="node">
<title>Node6</title>
<g id="a_Node000006"><a xlink:href="$LockFreeList_8h.html#a41dd8382f806cdcbc3643d1f087a31c5" xlink:title=" ">
<polygon fill="white" stroke="#666666" points="546,-176.75 431.75,-176.75 431.75,-156 546,-156 546,-176.75"/>
<text xml:space="preserve" text-anchor="middle" x="488.88" y="-163.25" font-family="Helvetica,sans-Serif" font-size="10.00">SetCounterAndState</text>
</a>
</g>
</g>
<!-- Node2&#45;&gt;Node6 -->
<g id="edge5_Node000002_Node000006" class="edge">
<title>Node2&#45;&gt;Node6</title>
<g id="a_edge5_Node000002_Node000006"><a xlink:title=" ">
<path fill="none" stroke="#63b8ff" d="M349.91,-195.12C364.56,-191.83 379.89,-188.45 394.25,-185.38 403.34,-183.43 412.94,-181.42 422.39,-179.48"/>
<polygon fill="#63b8ff" stroke="#63b8ff" points="422.8,-182.97 431.89,-177.53 421.39,-176.11 422.8,-182.97"/>
</a>
</g>
</g>
<!-- Node8 -->
<g id="Node000008" class="node">
<title>Node8</title>
<g id="a_Node000008"><a xlink:href="$AlignmentTemplates_8h.html#af98d475319aec8f128d9d0c5ccaa247f" xlink:title=" ">
<polygon fill="white" stroke="#666666" points="519.38,-20.75 458.38,-20.75 458.38,0 519.38,0 519.38,-20.75"/>
<text xml:space="preserve" text-anchor="middle" x="488.88" y="-7.25" font-family="Helvetica,sans-Serif" font-size="10.00">IsAligned</text>
</a>
</g>
</g>
<!-- Node7&#45;&gt;Node8 -->
<g id="edge7_Node000007_Node000008" class="edge">
<title>Node7&#45;&gt;Node8</title>
<g id="a_edge7_Node000007_Node000008"><a xlink:title=" ">
<path fill="none" stroke="#63b8ff" d="M337.09,-38.51C372.05,-31.99 415.68,-23.85 446.99,-18"/>
<polygon fill="#63b8ff" stroke="#63b8ff" points="447.26,-21.51 456.45,-16.24 445.98,-14.63 447.26,-21.51"/>
</a>
</g>
</g>
<!-- Node9 -->
<g id="Node000009" class="node">
<title>Node9</title>
<g id="a_Node000009"><a xlink:href="$LockFreeList_8h.html#af08ad35c9d4a4e33a44f92b0a4f8c8a7" xlink:title=" ">
<polygon fill="white" stroke="#666666" points="534.75,-59.75 443,-59.75 443,-39 534.75,-39 534.75,-59.75"/>
<text xml:space="preserve" text-anchor="middle" x="488.88" y="-46.25" font-family="Helvetica,sans-Serif" font-size="10.00">TestCriticalStall</text>
</a>
</g>
</g>
<!-- Node7&#45;&gt;Node9 -->
<g id="edge8_Node000007_Node000009" class="edge">
<title>Node7&#45;&gt;Node9</title>
<g id="a_edge8_Node000007_Node000009"><a xlink:title=" ">
<path fill="none" stroke="#63b8ff" d="M358.49,-49.38C382.75,-49.38 408.91,-49.38 431.32,-49.38"/>
<polygon fill="#63b8ff" stroke="#63b8ff" points="431.16,-52.88 441.16,-49.38 431.16,-45.88 431.16,-52.88"/>
</a>
</g>
</g>
<!-- Node10 -->
<g id="Node000010" class="node">
<title>Node10</title>
<g id="a_Node000010"><a xlink:href="$LockFreeList_8h.html#ab0584e61751faad3fb07d2306615c211" xlink:title=" ">
<polygon fill="white" stroke="#666666" points="724.75,-59.75 619.5,-59.75 619.5,-39 724.75,-39 724.75,-59.75"/>
<text xml:space="preserve" text-anchor="middle" x="672.12" y="-46.25" font-family="Helvetica,sans-Serif" font-size="10.00">DoTestCriticalStall</text>
</a>
</g>
</g>
<!-- Node9&#45;&gt;Node10 -->
<g id="edge9_Node000009_Node000010" class="edge">
<title>Node9&#45;&gt;Node10</title>
<g id="a_edge9_Node000009_Node000010"><a xlink:title=" ">
<path fill="none" stroke="#63b8ff" d="M535.14,-49.38C557.04,-49.38 583.7,-49.38 607.59,-49.38"/>
<polygon fill="#63b8ff" stroke="#63b8ff" points="607.55,-52.88 617.55,-49.38 607.55,-45.88 607.55,-52.88"/>
</a>
</g>
</g>
<!-- Node12&#45;&gt;Node4 -->
<g id="edge12_Node000012_Node000004" class="edge">
<title>Node12&#45;&gt;Node4</title>
<g id="a_edge12_Node000012_Node000004"><a xlink:title=" ">
<path fill="none" stroke="#63b8ff" d="M350.22,-127.38C372.57,-127.38 397.19,-127.38 419.34,-127.38"/>
<polygon fill="#63b8ff" stroke="#63b8ff" points="419.17,-130.88 429.17,-127.38 419.17,-123.88 419.17,-130.88"/>
</a>
</g>
</g>
<!-- Node13&#45;&gt;Node4 -->
<g id="edge14_Node000013_Node000004" class="edge">
<title>Node13&#45;&gt;Node4</title>
<g id="a_edge14_Node000013_Node000004"><a xlink:title=" ">
<path fill="none" stroke="#63b8ff" d="M337.09,-99.24C362.67,-104.01 392.88,-109.65 419.52,-114.62"/>
<polygon fill="#63b8ff" stroke="#63b8ff" points="418.73,-118.03 429.2,-116.43 420.02,-111.15 418.73,-118.03"/>
</a>
</g>
</g>
<!-- Node14 -->
<g id="Node000014" class="node">
<title>Node14</title>
<g id="a_Node000014"><a xlink:href="$LockFreeList_8h.html#a33ff26d719b3a204a549f96cca2d7345" xlink:title=" ">
<polygon fill="white" stroke="#666666" points="511.12,-98.75 466.62,-98.75 466.62,-78 511.12,-78 511.12,-98.75"/>
<text xml:space="preserve" text-anchor="middle" x="488.88" y="-85.25" font-family="Helvetica,sans-Serif" font-size="10.00">SetAll</text>
</a>
</g>
</g>
<!-- Node13&#45;&gt;Node14 -->
<g id="edge15_Node000013_Node000014" class="edge">
<title>Node13&#45;&gt;Node14</title>
<g id="a_edge15_Node000013_Node000014"><a xlink:title=" ">
<path fill="none" stroke="#63b8ff" d="M343.57,-88.38C380.45,-88.38 425.11,-88.38 454.88,-88.38"/>
<polygon fill="#63b8ff" stroke="#63b8ff" points="454.77,-91.88 464.77,-88.38 454.77,-84.88 454.77,-91.88"/>
</a>
</g>
</g>
<!-- Node15&#45;&gt;Node4 -->
<g id="edge17_Node000015_Node000004" class="edge">
<title>Node15&#45;&gt;Node4</title>
<g id="a_edge17_Node000015_Node000004"><a xlink:title=" ">
<path fill="none" stroke="#63b8ff" d="M337.09,-155.51C362.67,-150.74 392.88,-145.1 419.52,-140.13"/>
<polygon fill="#63b8ff" stroke="#63b8ff" points="420.02,-143.6 429.2,-138.32 418.73,-136.72 420.02,-143.6"/>
</a>
</g>
</g>
<!-- Node15&#45;&gt;Node6 -->
<g id="edge18_Node000015_Node000006" class="edge">
<title>Node15&#45;&gt;Node6</title>
<g id="a_edge18_Node000015_Node000006"><a xlink:title=" ">
<path fill="none" stroke="#63b8ff" d="M349.63,-166.38C372.32,-166.38 397.39,-166.38 419.88,-166.38"/>
<polygon fill="#63b8ff" stroke="#63b8ff" points="419.86,-169.88 429.86,-166.38 419.86,-162.88 419.86,-169.88"/>
</a>
</g>
</g>
</g>
</svg>
