<?xml version="1.0" encoding="UTF-8" standalone="no"?>
<!DOCTYPE svg PUBLIC "-//W3C//DTD SVG 1.1//EN"
 "http://www.w3.org/Graphics/SVG/1.1/DTD/svg11.dtd">
<!-- Generated by graphviz version 14.1.4 (0)
 -->
<!-- Title: TSetElement::operator= Pages: 1 -->
<svg width="324pt" height="47pt"
 viewBox="0.00 0.00 324.00 47.00" xmlns="http://www.w3.org/2000/svg" xmlns:xlink="http://www.w3.org/1999/xlink">
<g id="graph0" class="graph" transform="scale(1 1) rotate(0) translate(4 42.75)">
<title>TSetElement::operator=</title>
<!-- Node1 -->
<g id="Node000001" class="node">
<title>Node1</title>
<g id="a_Node000001"><a xlink:title=" ">
<polygon fill="#999999" stroke="#666666" points="133.75,-20.75 0,-20.75 0,0 133.75,0 133.75,-20.75"/>
<text xml:space="preserve" text-anchor="middle" x="66.88" y="-7.25" font-family="Helvetica,sans-Serif" font-size="10.00">TSetElement::operator=</text>
</a>
</g>
</g>
<!-- Node2 -->
<g id="Node000002" class="node">
<title>Node2</title>
<g id="a_Node000002"><a xlink:href="$classTSetElement.html#a86a81d133e748e8ffaf09d7cc779235a" xlink:title=" ">
<polygon fill="white" stroke="#666666" points="316.25,-20.75 169.75,-20.75 169.75,0 316.25,0 316.25,-20.75"/>
<text xml:space="preserve" text-anchor="middle" x="243" y="-7.25" font-family="Helvetica,sans-Serif" font-size="10.00">TSetElement::TSetElement</text>
</a>
</g>
</g>
<!-- Node1&#45;&gt;Node2 -->
<g id="edge1_Node000001_Node000002" class="edge">
<title>Node1&#45;&gt;Node2</title>
<g id="a_edge1_Node000001_Node000002"><a xlink:title=" ">
<path fill="none" stroke="#63b8ff" d="M134.2,-10.38C142.04,-10.38 150.12,-10.38 158.16,-10.38"/>
<polygon fill="#63b8ff" stroke="#63b8ff" points="157.96,-13.88 167.96,-10.38 157.96,-6.88 157.96,-13.88"/>
</a>
</g>
</g>
<!-- Node2&#45;&gt;Node2 -->
<g id="edge2_Node000002_Node000002" class="edge">
<title>Node2&#45;&gt;Node2</title>
<g id="a_edge2_Node000002_Node000002"><a xlink:title=" ">
<path fill="none" stroke="#63b8ff" d="M214.62,-21.15C203.27,-29.81 212.73,-38.75 243,-38.75 259.55,-38.75 269.89,-36.08 273.99,-32.24"/>
<polygon fill="#63b8ff" stroke="#63b8ff" points="277.43,-31.55 271.73,-22.62 270.61,-33.16 277.43,-31.55"/>
</a>
</g>
</g>
</g>
</svg>
