<?xml version="1.0" encoding="UTF-8" standalone="no"?>
<!DOCTYPE svg PUBLIC "-//W3C//DTD SVG 1.1//EN"
 "http://www.w3.org/Graphics/SVG/1.1/DTD/svg11.dtd">
<!-- Generated by graphviz version 14.1.4 (0)
 -->
<!-- Title: UE_STRING_CLASS::LeftInline Pages: 1 -->
<svg width="559pt" height="107pt"
 viewBox="0.00 0.00 559.00 107.00" xmlns="http://www.w3.org/2000/svg" xmlns:xlink="http://www.w3.org/1999/xlink">
<g id="graph0" class="graph" transform="scale(1 1) rotate(0) translate(4 102.75)">
<title>UE_STRING_CLASS::LeftInline</title>
<!-- Node1 -->
<g id="Node000001" class="node">
<title>Node1</title>
<g id="a_Node000001"><a xlink:title=" ">
<polygon fill="#999999" stroke="#666666" points="551.25,-59.75 391.25,-59.75 391.25,-39 551.25,-39 551.25,-59.75"/>
<text xml:space="preserve" text-anchor="middle" x="471.25" y="-46.25" font-family="Helvetica,sans-Serif" font-size="10.00">UE_STRING_CLASS::LeftInline</text>
</a>
</g>
</g>
<!-- Node2 -->
<g id="Node000002" class="node">
<title>Node2</title>
<g id="a_Node000002"><a xlink:href="$classUE__STRING__CLASS.html#abe7138b8c1d4704a11b54b1335e66f95" xlink:title=" ">
<polygon fill="white" stroke="#666666" points="341.75,-98.75 208.75,-98.75 208.75,-78 341.75,-78 341.75,-98.75"/>
<text xml:space="preserve" text-anchor="middle" x="275.25" y="-85.25" font-family="Helvetica,sans-Serif" font-size="10.00">UE_STRING_CLASS::Left</text>
</a>
</g>
</g>
<!-- Node1&#45;&gt;Node2 -->
<g id="edge1_Node000001_Node000002" class="edge">
<title>Node1&#45;&gt;Node2</title>
<g id="a_edge1_Node000001_Node000002"><a xlink:title=" ">
<path fill="none" stroke="#63b8ff" d="M404.94,-62.5C380.69,-67.38 353.47,-72.85 330.34,-77.5"/>
<polygon fill="#63b8ff" stroke="#63b8ff" points="405.61,-65.94 414.73,-60.54 404.23,-59.08 405.61,-65.94"/>
</a>
</g>
</g>
<!-- Node3 -->
<g id="Node000003" class="node">
<title>Node3</title>
<g id="a_Node000003"><a xlink:href="$classUE__STRING__CLASS.html#ac7235661038696a7fc567a31c58cadb2" xlink:title=" ">
<polygon fill="white" stroke="#666666" points="355.25,-59.75 195.25,-59.75 195.25,-39 355.25,-39 355.25,-59.75"/>
<text xml:space="preserve" text-anchor="middle" x="275.25" y="-46.25" font-family="Helvetica,sans-Serif" font-size="10.00">UE_STRING_CLASS::LeftInline</text>
</a>
</g>
</g>
<!-- Node1&#45;&gt;Node3 -->
<g id="edge2_Node000001_Node000003" class="edge">
<title>Node1&#45;&gt;Node3</title>
<g id="a_edge2_Node000001_Node000003"><a xlink:title=" ">
<path fill="none" stroke="#63b8ff" d="M379.54,-49.38C371.54,-49.38 363.49,-49.38 355.59,-49.38"/>
<polygon fill="#63b8ff" stroke="#63b8ff" points="379.27,-52.88 389.27,-49.38 379.27,-45.88 379.27,-52.88"/>
</a>
</g>
</g>
<!-- Node4 -->
<g id="Node000004" class="node">
<title>Node4</title>
<g id="a_Node000004"><a xlink:href="$classUE__STRING__CLASS.html#a6e9dfd7e8834c4d37c46d52882742916" xlink:title=" ">
<polygon fill="white" stroke="#666666" points="354.88,-20.75 195.62,-20.75 195.62,0 354.88,0 354.88,-20.75"/>
<text xml:space="preserve" text-anchor="middle" x="275.25" y="-7.25" font-family="Helvetica,sans-Serif" font-size="10.00">UE_STRING_CLASS::MidInline</text>
</a>
</g>
</g>
<!-- Node1&#45;&gt;Node4 -->
<g id="edge3_Node000001_Node000004" class="edge">
<title>Node1&#45;&gt;Node4</title>
<g id="a_edge3_Node000001_Node000004"><a xlink:title=" ">
<path fill="none" stroke="#63b8ff" d="M404.94,-36.25C380.69,-31.37 353.47,-25.9 330.34,-21.25"/>
<polygon fill="#63b8ff" stroke="#63b8ff" points="404.23,-39.67 414.73,-38.21 405.61,-32.81 404.23,-39.67"/>
</a>
</g>
</g>
<!-- Node5 -->
<g id="Node000005" class="node">
<title>Node5</title>
<g id="a_Node000005"><a xlink:href="$classUE__STRING__CLASS.html#ac2287d3aa2a7d807d1d4eea1c9aaab85" xlink:title=" ">
<polygon fill="white" stroke="#666666" points="159.25,-20.75 0,-20.75 0,0 159.25,0 159.25,-20.75"/>
<text xml:space="preserve" text-anchor="middle" x="79.62" y="-7.25" font-family="Helvetica,sans-Serif" font-size="10.00">UE_STRING_CLASS::MidInline</text>
</a>
</g>
</g>
<!-- Node4&#45;&gt;Node5 -->
<g id="edge4_Node000004_Node000005" class="edge">
<title>Node4&#45;&gt;Node5</title>
<g id="a_edge4_Node000004_Node000005"><a xlink:title=" ">
<path fill="none" stroke="#63b8ff" d="M183.87,-10.38C175.81,-10.38 167.68,-10.38 159.72,-10.38"/>
<polygon fill="#63b8ff" stroke="#63b8ff" points="183.7,-13.88 193.7,-10.38 183.7,-6.88 183.7,-13.88"/>
</a>
</g>
</g>
</g>
</svg>
