<?xml version="1.0" encoding="UTF-8" standalone="no"?>
<!DOCTYPE svg PUBLIC "-//W3C//DTD SVG 1.1//EN"
 "http://www.w3.org/Graphics/SVG/1.1/DTD/svg11.dtd">
<!-- Generated by graphviz version 14.1.4 (0)
 -->
<!-- Title: TDeque::PopLast Pages: 1 -->
<svg width="283pt" height="158pt"
 viewBox="0.00 0.00 283.00 158.00" xmlns="http://www.w3.org/2000/svg" xmlns:xlink="http://www.w3.org/1999/xlink">
<g id="graph0" class="graph" transform="scale(1 1) rotate(0) translate(4 154.12)">
<title>TDeque::PopLast</title>
<!-- Node1 -->
<g id="Node000001" class="node">
<title>Node1</title>
<g id="a_Node000001"><a xlink:title=" ">
<polygon fill="#999999" stroke="#666666" points="97.75,-91.12 0,-91.12 0,-70.38 97.75,-70.38 97.75,-91.12"/>
<text xml:space="preserve" text-anchor="middle" x="48.88" y="-77.62" font-family="Helvetica,sans-Serif" font-size="10.00">TDeque::PopLast</text>
</a>
</g>
</g>
<!-- Node2 -->
<g id="Node000002" class="node">
<title>Node2</title>
<g id="a_Node000002"><a xlink:href="$classTDeque.html#aefdf1428495762e654ffb921e9bec6e7" xlink:title=" ">
<polygon fill="white" stroke="#666666" points="275,-150.12 133.75,-150.12 133.75,-129.38 275,-129.38 275,-150.12"/>
<text xml:space="preserve" text-anchor="middle" x="204.38" y="-136.62" font-family="Helvetica,sans-Serif" font-size="10.00">TDeque::CheckValidIndex</text>
</a>
</g>
</g>
<!-- Node1&#45;&gt;Node2 -->
<g id="edge1_Node000001_Node000002" class="edge">
<title>Node1&#45;&gt;Node2</title>
<g id="a_edge1_Node000001_Node000002"><a xlink:title=" ">
<path fill="none" stroke="#63b8ff" d="M70.86,-91.62C87.59,-100.01 111.79,-111.55 133.75,-119.75 139.35,-121.84 145.26,-123.84 151.19,-125.72"/>
<polygon fill="#63b8ff" stroke="#63b8ff" points="149.76,-128.94 160.35,-128.51 151.8,-122.25 149.76,-128.94"/>
</a>
</g>
</g>
<!-- Node3 -->
<g id="Node000003" class="node">
<title>Node3</title>
<g id="a_Node000003"><a xlink:href="$MemoryOps_8h.html#a23b85738048b4e4af02acbe1cc084770" xlink:title=" ">
<polygon fill="white" stroke="#666666" points="244.25,-111.12 164.5,-111.12 164.5,-90.38 244.25,-90.38 244.25,-111.12"/>
<text xml:space="preserve" text-anchor="middle" x="204.38" y="-97.62" font-family="Helvetica,sans-Serif" font-size="10.00">DestructItem</text>
</a>
</g>
</g>
<!-- Node1&#45;&gt;Node3 -->
<g id="edge2_Node000001_Node000003" class="edge">
<title>Node1&#45;&gt;Node3</title>
<g id="a_edge2_Node000001_Node000003"><a xlink:title=" ">
<path fill="none" stroke="#63b8ff" d="M98.02,-87.02C115.48,-89.3 135.23,-91.87 152.88,-94.17"/>
<polygon fill="#63b8ff" stroke="#63b8ff" points="152.26,-97.62 162.63,-95.44 153.17,-90.68 152.26,-97.62"/>
</a>
</g>
</g>
<!-- Node4 -->
<g id="Node000004" class="node">
<title>Node4</title>
<g id="a_Node000004"><a xlink:href="$classTDeque.html#a458ee9d2233fccb7fa0f45bb396bb7ad" xlink:title=" ">
<polygon fill="white" stroke="#666666" points="254.38,-72.12 154.38,-72.12 154.38,-51.38 254.38,-51.38 254.38,-72.12"/>
<text xml:space="preserve" text-anchor="middle" x="204.38" y="-58.62" font-family="Helvetica,sans-Serif" font-size="10.00">TDeque::GetData</text>
</a>
</g>
</g>
<!-- Node1&#45;&gt;Node4 -->
<g id="edge3_Node000001_Node000004" class="edge">
<title>Node1&#45;&gt;Node4</title>
<g id="a_edge3_Node000001_Node000004"><a xlink:title=" ">
<path fill="none" stroke="#63b8ff" d="M98.02,-74.79C112.25,-73.03 128,-71.08 142.89,-69.24"/>
<polygon fill="#63b8ff" stroke="#63b8ff" points="143.08,-72.74 152.57,-68.04 142.22,-65.79 143.08,-72.74"/>
</a>
</g>
</g>
<!-- Node5 -->
<g id="Node000005" class="node">
<title>Node5</title>
<g id="a_Node000005"><a xlink:href="$namespaceUE_1_1Deque_1_1Private.html#a674e87b3d7a99926b87f6d7cd08ac867" xlink:title=" ">
<polygon fill="white" stroke="#666666" points="258.12,-33.5 150.62,-33.5 150.62,0 258.12,0 258.12,-33.5"/>
<text xml:space="preserve" text-anchor="start" x="158.62" y="-20" font-family="Helvetica,sans-Serif" font-size="10.00">UE::Deque::Private</text>
<text xml:space="preserve" text-anchor="middle" x="204.38" y="-7.25" font-family="Helvetica,sans-Serif" font-size="10.00">::WrapAround</text>
</a>
</g>
</g>
<!-- Node1&#45;&gt;Node5 -->
<g id="edge4_Node000001_Node000005" class="edge">
<title>Node1&#45;&gt;Node5</title>
<g id="a_edge4_Node000001_Node000005"><a xlink:title=" ">
<path fill="none" stroke="#63b8ff" d="M72.48,-70.01C89.25,-62.15 112.77,-51.41 133.75,-42.75 137.55,-41.18 141.49,-39.6 145.46,-38.03"/>
<polygon fill="#63b8ff" stroke="#63b8ff" points="146.55,-41.37 154.6,-34.49 144.02,-34.84 146.55,-41.37"/>
</a>
</g>
</g>
</g>
</svg>
