<?xml version="1.0" encoding="UTF-8" standalone="no"?>
<!DOCTYPE svg PUBLIC "-//W3C//DTD SVG 1.1//EN"
 "http://www.w3.org/Graphics/SVG/1.1/DTD/svg11.dtd">
<!-- Generated by graphviz version 14.1.4 (0)
 -->
<!-- Title: ATriggerBase Pages: 1 -->
<svg width="362pt" height="243pt"
 viewBox="0.00 0.00 362.00 243.00" xmlns="http://www.w3.org/2000/svg" xmlns:xlink="http://www.w3.org/1999/xlink">
<g id="graph0" class="graph" transform="scale(1 1) rotate(0) translate(4 238.75)">
<title>ATriggerBase</title>
<!-- Node1 -->
<g id="Node000001" class="node">
<title>Node1</title>
<g id="a_Node000001"><a xlink:title=" ">
<polygon fill="#999999" stroke="none" points="248.5,-144.5 105.25,-144.5 105.25,-90.25 248.5,-90.25 248.5,-144.5"/>
<text xml:space="preserve" text-anchor="start" x="144.62" y="-130.75" font-family="Helvetica,sans-Serif" font-size="10.00">ATriggerBase</text>
<text xml:space="preserve" text-anchor="start" x="111.5" y="-114" font-family="Helvetica,sans-Serif" font-size="10.00">&#45;</text>
<text xml:space="preserve" text-anchor="start" x="121.5" y="-114" font-family="Helvetica,sans-Serif" font-size="10.00">CollisionComponent</text>
<text xml:space="preserve" text-anchor="start" x="109.25" y="-97.25" font-family="Helvetica,sans-Serif" font-size="10.00">+</text>
<text xml:space="preserve" text-anchor="start" x="121.5" y="-97.25" font-family="Helvetica,sans-Serif" font-size="10.00">GetCollisionComponent()</text>
<polygon fill="#666666" stroke="#666666" points="105.25,-125.75 105.25,-125.75 248.5,-125.75 248.5,-125.75 105.25,-125.75"/>
<polygon fill="#666666" stroke="#666666" points="105.25,-109 105.25,-109 119.5,-109 119.5,-109 105.25,-109"/>
<polygon fill="#666666" stroke="#666666" points="119.5,-109 119.5,-109 248.5,-109 248.5,-109 119.5,-109"/>
<polygon fill="none" stroke="#666666" points="105.25,-90.25 105.25,-144.5 248.5,-144.5 248.5,-90.25 105.25,-90.25"/>
</a>
</g>
</g>
<!-- Node3 -->
<g id="Node000003" class="node">
<title>Node3</title>
<g id="a_Node000003"><a xlink:href="$classATriggerBox.html" xlink:title=" ">
<polygon fill="white" stroke="none" points="105.75,-54.25 0,-54.25 0,0 105.75,0 105.75,-54.25"/>
<text xml:space="preserve" text-anchor="start" x="23.25" y="-40.5" font-family="Helvetica,sans-Serif" font-size="10.00">ATriggerBox</text>
<text xml:space="preserve" text-anchor="start" x="49.88" y="-23.75" font-family="Helvetica,sans-Serif" font-size="10.00"> </text>
<text xml:space="preserve" text-anchor="start" x="4" y="-7" font-family="Helvetica,sans-Serif" font-size="10.00">&#45;</text>
<text xml:space="preserve" text-anchor="start" x="11.75" y="-7" font-family="Helvetica,sans-Serif" font-size="10.00">EditorApplyScale()</text>
<polygon fill="#666666" stroke="#666666" points="0,-35.5 0,-35.5 105.75,-35.5 105.75,-35.5 0,-35.5"/>
<polygon fill="#666666" stroke="#666666" points="0,-18.75 0,-18.75 105.75,-18.75 105.75,-18.75 0,-18.75"/>
<polygon fill="none" stroke="#666666" points="0,0 0,-54.25 105.75,-54.25 105.75,0 0,0"/>
</a>
</g>
</g>
<!-- Node1&#45;&gt;Node3 -->
<g id="edge2_Node000001_Node000003" class="edge">
<title>Node1&#45;&gt;Node3</title>
<g id="a_edge2_Node000001_Node000003"><a xlink:title=" ">
<path fill="none" stroke="#63b8ff" d="M131.09,-83.79C117.41,-74.05 102.59,-63.51 89.58,-54.24"/>
<polygon fill="none" stroke="#63b8ff" points="128.93,-86.55 139.11,-89.5 132.99,-80.85 128.93,-86.55"/>
</a>
</g>
</g>
<!-- Node4 -->
<g id="Node000004" class="node">
<title>Node4</title>
<g id="a_Node000004"><a xlink:href="$classATriggerCapsule.html" xlink:title=" ">
<polygon fill="white" stroke="none" points="229.75,-54.25 124,-54.25 124,0 229.75,0 229.75,-54.25"/>
<text xml:space="preserve" text-anchor="start" x="137.12" y="-40.5" font-family="Helvetica,sans-Serif" font-size="10.00">ATriggerCapsule</text>
<text xml:space="preserve" text-anchor="start" x="173.88" y="-23.75" font-family="Helvetica,sans-Serif" font-size="10.00"> </text>
<text xml:space="preserve" text-anchor="start" x="128" y="-7" font-family="Helvetica,sans-Serif" font-size="10.00">&#45;</text>
<text xml:space="preserve" text-anchor="start" x="135.75" y="-7" font-family="Helvetica,sans-Serif" font-size="10.00">EditorApplyScale()</text>
<polygon fill="#666666" stroke="#666666" points="124,-35.5 124,-35.5 229.75,-35.5 229.75,-35.5 124,-35.5"/>
<polygon fill="#666666" stroke="#666666" points="124,-18.75 124,-18.75 229.75,-18.75 229.75,-18.75 124,-18.75"/>
<polygon fill="none" stroke="#666666" points="124,0 124,-54.25 229.75,-54.25 229.75,0 124,0"/>
</a>
</g>
</g>
<!-- Node1&#45;&gt;Node4 -->
<g id="edge3_Node000001_Node000004" class="edge">
<title>Node1&#45;&gt;Node4</title>
<g id="a_edge3_Node000001_Node000004"><a xlink:title=" ">
<path fill="none" stroke="#63b8ff" d="M176.88,-78.96C176.88,-70.64 176.88,-61.99 176.88,-54.24"/>
<polygon fill="none" stroke="#63b8ff" points="173.38,-78.86 176.88,-88.86 180.38,-78.86 173.38,-78.86"/>
</a>
</g>
</g>
<!-- Node5 -->
<g id="Node000005" class="node">
<title>Node5</title>
<g id="a_Node000005"><a xlink:href="$classATriggerSphere.html" xlink:title=" ">
<polygon fill="white" stroke="none" points="353.75,-54.25 248,-54.25 248,0 353.75,0 353.75,-54.25"/>
<text xml:space="preserve" text-anchor="start" x="263.75" y="-40.5" font-family="Helvetica,sans-Serif" font-size="10.00">ATriggerSphere</text>
<text xml:space="preserve" text-anchor="start" x="297.88" y="-23.75" font-family="Helvetica,sans-Serif" font-size="10.00"> </text>
<text xml:space="preserve" text-anchor="start" x="252" y="-7" font-family="Helvetica,sans-Serif" font-size="10.00">&#45;</text>
<text xml:space="preserve" text-anchor="start" x="259.75" y="-7" font-family="Helvetica,sans-Serif" font-size="10.00">EditorApplyScale()</text>
<polygon fill="#666666" stroke="#666666" points="248,-35.5 248,-35.5 353.75,-35.5 353.75,-35.5 248,-35.5"/>
<polygon fill="#666666" stroke="#666666" points="248,-18.75 248,-18.75 353.75,-18.75 353.75,-18.75 248,-18.75"/>
<polygon fill="none" stroke="#666666" points="248,0 248,-54.25 353.75,-54.25 353.75,0 248,0"/>
</a>
</g>
</g>
<!-- Node1&#45;&gt;Node5 -->
<g id="edge4_Node000001_Node000005" class="edge">
<title>Node1&#45;&gt;Node5</title>
<g id="a_edge4_Node000001_Node000005"><a xlink:title=" ">
<path fill="none" stroke="#63b8ff" d="M222.66,-83.79C236.34,-74.05 251.16,-63.51 264.17,-54.24"/>
<polygon fill="none" stroke="#63b8ff" points="220.76,-80.85 214.64,-89.5 224.82,-86.55 220.76,-80.85"/>
</a>
</g>
</g>
<!-- Node2 -->
<g id="Node000002" class="node">
<title>Node2</title>
<g id="a_Node000002"><a xlink:title=" ">
<polygon fill="white" stroke="none" points="197,-234.75 156.75,-234.75 156.75,-180.5 197,-180.5 197,-234.75"/>
<text xml:space="preserve" text-anchor="start" x="160.75" y="-221" font-family="Helvetica,sans-Serif" font-size="10.00">AActor</text>
<text xml:space="preserve" text-anchor="start" x="173.88" y="-204.25" font-family="Helvetica,sans-Serif" font-size="10.00"> </text>
<text xml:space="preserve" text-anchor="start" x="173.88" y="-187.5" font-family="Helvetica,sans-Serif" font-size="10.00"> </text>
<polygon fill="#666666" stroke="#666666" points="156.75,-216 156.75,-216 197,-216 197,-216 156.75,-216"/>
<polygon fill="#666666" stroke="#666666" points="156.75,-199.25 156.75,-199.25 197,-199.25 197,-199.25 156.75,-199.25"/>
<polygon fill="none" stroke="#666666" points="156.75,-180.5 156.75,-234.75 197,-234.75 197,-180.5 156.75,-180.5"/>
</a>
</g>
</g>
<!-- Node2&#45;&gt;Node1 -->
<g id="edge1_Node000001_Node000002" class="edge">
<title>Node2&#45;&gt;Node1</title>
<g id="a_edge1_Node000001_Node000002"><a xlink:title=" ">
<path fill="none" stroke="#63b8ff" d="M176.88,-169.21C176.88,-160.89 176.88,-152.24 176.88,-144.49"/>
<polygon fill="none" stroke="#63b8ff" points="173.38,-169.11 176.88,-179.11 180.38,-169.11 173.38,-169.11"/>
</a>
</g>
</g>
</g>
</svg>
