<?xml version="1.0" encoding="UTF-8" standalone="no"?>
<!DOCTYPE svg PUBLIC "-//W3C//DTD SVG 1.1//EN"
 "http://www.w3.org/Graphics/SVG/1.1/DTD/svg11.dtd">
<!-- Generated by graphviz version 14.1.4 (0)
 -->
<!-- Title: TSparseArray&lt; InElementType, Allocator &gt;::TRangedForConstIterator Pages: 1 -->
<svg width="201pt" height="495pt"
 viewBox="0.00 0.00 201.00 495.00" xmlns="http://www.w3.org/2000/svg" xmlns:xlink="http://www.w3.org/1999/xlink">
<g id="graph0" class="graph" transform="scale(1 1) rotate(0) translate(4 490.75)">
<title>TSparseArray&lt; InElementType, Allocator &gt;::TRangedForConstIterator</title>
<!-- Node1 -->
<g id="Node000001" class="node">
<title>Node1</title>
<g id="a_Node000001"><a xlink:title=" ">
<polygon fill="#999999" stroke="none" points="193.25,-83.75 0,-83.75 0,0 193.25,0 193.25,-83.75"/>
<text xml:space="preserve" text-anchor="start" x="4" y="-70" font-family="Helvetica,sans-Serif" font-size="10.00">TSparseArray&lt; InElementType,</text>
<text xml:space="preserve" text-anchor="start" x="4" y="-57.25" font-family="Helvetica,sans-Serif" font-size="10.00"> Allocator &gt;::TRangedForConstIterator</text>
<text xml:space="preserve" text-anchor="start" x="17.25" y="-40.5" font-family="Helvetica,sans-Serif" font-size="10.00">&#45;</text>
<text xml:space="preserve" text-anchor="start" x="38.25" y="-40.5" font-family="Helvetica,sans-Serif" font-size="10.00">InitialNum</text>
<text xml:space="preserve" text-anchor="start" x="15" y="-23.75" font-family="Helvetica,sans-Serif" font-size="10.00">+</text>
<text xml:space="preserve" text-anchor="start" x="38.25" y="-23.75" font-family="Helvetica,sans-Serif" font-size="10.00">TRangedForConstIterator()</text>
<text xml:space="preserve" text-anchor="start" x="15" y="-7" font-family="Helvetica,sans-Serif" font-size="10.00">+</text>
<text xml:space="preserve" text-anchor="start" x="38.25" y="-7" font-family="Helvetica,sans-Serif" font-size="10.00">operator!=()</text>
<polygon fill="#666666" stroke="#666666" points="0,-52.25 0,-52.25 193.25,-52.25 193.25,-52.25 0,-52.25"/>
<polygon fill="#666666" stroke="#666666" points="0,-35.5 0,-35.5 36.25,-35.5 36.25,-35.5 0,-35.5"/>
<polygon fill="#666666" stroke="#666666" points="36.25,-35.5 36.25,-35.5 193.25,-35.5 193.25,-35.5 36.25,-35.5"/>
<polygon fill="none" stroke="#666666" points="0,0 0,-83.75 193.25,-83.75 193.25,0 0,0"/>
</a>
</g>
</g>
<!-- Node2 -->
<g id="Node000002" class="node">
<title>Node2</title>
<g id="a_Node000002"><a xlink:href="$classTSparseArray_1_1TConstIterator.html" xlink:title=" ">
<polygon fill="white" stroke="none" points="176.38,-203.5 16.88,-203.5 16.88,-119.75 176.38,-119.75 176.38,-203.5"/>
<text xml:space="preserve" text-anchor="start" x="20.88" y="-189.75" font-family="Helvetica,sans-Serif" font-size="10.00">TSparseArray&lt; InElementType,</text>
<text xml:space="preserve" text-anchor="start" x="29.88" y="-177" font-family="Helvetica,sans-Serif" font-size="10.00"> Allocator &gt;::TConstIterator</text>
<text xml:space="preserve" text-anchor="start" x="93.62" y="-160.25" font-family="Helvetica,sans-Serif" font-size="10.00"> </text>
<text xml:space="preserve" text-anchor="start" x="36.38" y="-143.5" font-family="Helvetica,sans-Serif" font-size="10.00">+</text>
<text xml:space="preserve" text-anchor="start" x="64.12" y="-143.5" font-family="Helvetica,sans-Serif" font-size="10.00">TConstIterator()</text>
<text xml:space="preserve" text-anchor="start" x="36.38" y="-126.75" font-family="Helvetica,sans-Serif" font-size="10.00">+</text>
<text xml:space="preserve" text-anchor="start" x="64.12" y="-126.75" font-family="Helvetica,sans-Serif" font-size="10.00">TConstIterator()</text>
<polygon fill="#666666" stroke="#666666" points="16.88,-172 16.88,-172 176.38,-172 176.38,-172 16.88,-172"/>
<polygon fill="#666666" stroke="#666666" points="16.88,-155.25 16.88,-155.25 176.38,-155.25 176.38,-155.25 16.88,-155.25"/>
<polygon fill="none" stroke="#666666" points="16.88,-119.75 16.88,-203.5 176.38,-203.5 176.38,-119.75 16.88,-119.75"/>
</a>
</g>
</g>
<!-- Node2&#45;&gt;Node1 -->
<g id="edge1_Node000001_Node000002" class="edge">
<title>Node2&#45;&gt;Node1</title>
<g id="a_edge1_Node000001_Node000002"><a xlink:title=" ">
<path fill="none" stroke="#63b8ff" d="M96.62,-108.28C96.62,-100.03 96.62,-91.6 96.62,-83.66"/>
<polygon fill="none" stroke="#63b8ff" points="93.13,-108.26 96.63,-118.26 100.13,-108.26 93.13,-108.26"/>
</a>
</g>
</g>
<!-- Node3 -->
<g id="Node000003" class="node">
<title>Node3</title>
<g id="a_Node000003"><a xlink:href="$classTSparseArray_1_1TBaseIterator.html" xlink:title=" ">
<polygon fill="white" stroke="none" points="176.38,-486.75 16.88,-486.75 16.88,-239.5 176.38,-239.5 176.38,-486.75"/>
<text xml:space="preserve" text-anchor="start" x="20.88" y="-473" font-family="Helvetica,sans-Serif" font-size="10.00">TSparseArray&lt; InElementType,</text>
<text xml:space="preserve" text-anchor="start" x="20.88" y="-460.25" font-family="Helvetica,sans-Serif" font-size="10.00"> Allocator &gt;::TBaseIterator</text>
<text xml:space="preserve" text-anchor="start" x="75.62" y="-447.5" font-family="Helvetica,sans-Serif" font-size="10.00">&lt; true &gt;</text>
<text xml:space="preserve" text-anchor="start" x="23.62" y="-430.75" font-family="Helvetica,sans-Serif" font-size="10.00">#</text>
<text xml:space="preserve" text-anchor="start" x="38.62" y="-430.75" font-family="Helvetica,sans-Serif" font-size="10.00">Array</text>
<text xml:space="preserve" text-anchor="start" x="23.62" y="-414" font-family="Helvetica,sans-Serif" font-size="10.00">#</text>
<text xml:space="preserve" text-anchor="start" x="38.62" y="-414" font-family="Helvetica,sans-Serif" font-size="10.00">BitArrayIt</text>
<text xml:space="preserve" text-anchor="start" x="23.62" y="-397.25" font-family="Helvetica,sans-Serif" font-size="10.00">+</text>
<text xml:space="preserve" text-anchor="start" x="38.62" y="-397.25" font-family="Helvetica,sans-Serif" font-size="10.00">TBaseIterator()</text>
<text xml:space="preserve" text-anchor="start" x="23.62" y="-380.5" font-family="Helvetica,sans-Serif" font-size="10.00">+</text>
<text xml:space="preserve" text-anchor="start" x="38.62" y="-380.5" font-family="Helvetica,sans-Serif" font-size="10.00">operator++()</text>
<text xml:space="preserve" text-anchor="start" x="23.62" y="-363.75" font-family="Helvetica,sans-Serif" font-size="10.00">+</text>
<text xml:space="preserve" text-anchor="start" x="38.62" y="-363.75" font-family="Helvetica,sans-Serif" font-size="10.00">GetIndex()</text>
<text xml:space="preserve" text-anchor="start" x="23.62" y="-347" font-family="Helvetica,sans-Serif" font-size="10.00">+</text>
<text xml:space="preserve" text-anchor="start" x="38.62" y="-347" font-family="Helvetica,sans-Serif" font-size="10.00">operator==()</text>
<text xml:space="preserve" text-anchor="start" x="23.62" y="-330.25" font-family="Helvetica,sans-Serif" font-size="10.00">+</text>
<text xml:space="preserve" text-anchor="start" x="38.62" y="-330.25" font-family="Helvetica,sans-Serif" font-size="10.00">operator!=()</text>
<text xml:space="preserve" text-anchor="start" x="23.62" y="-313.5" font-family="Helvetica,sans-Serif" font-size="10.00">+</text>
<text xml:space="preserve" text-anchor="start" x="38.62" y="-313.5" font-family="Helvetica,sans-Serif" font-size="10.00">operator bool()</text>
<text xml:space="preserve" text-anchor="start" x="23.62" y="-296.75" font-family="Helvetica,sans-Serif" font-size="10.00">+</text>
<text xml:space="preserve" text-anchor="start" x="38.62" y="-296.75" font-family="Helvetica,sans-Serif" font-size="10.00">operator!()</text>
<text xml:space="preserve" text-anchor="start" x="23.62" y="-280" font-family="Helvetica,sans-Serif" font-size="10.00">+</text>
<text xml:space="preserve" text-anchor="start" x="38.62" y="-280" font-family="Helvetica,sans-Serif" font-size="10.00">operator*()</text>
<text xml:space="preserve" text-anchor="start" x="23.62" y="-263.25" font-family="Helvetica,sans-Serif" font-size="10.00">+</text>
<text xml:space="preserve" text-anchor="start" x="38.62" y="-263.25" font-family="Helvetica,sans-Serif" font-size="10.00">operator&#45;&gt;()</text>
<text xml:space="preserve" text-anchor="start" x="23.62" y="-246.5" font-family="Helvetica,sans-Serif" font-size="10.00">+</text>
<text xml:space="preserve" text-anchor="start" x="38.62" y="-246.5" font-family="Helvetica,sans-Serif" font-size="10.00">GetRelativeBitReference()</text>
<polygon fill="#666666" stroke="#666666" points="16.88,-442.5 16.88,-442.5 176.38,-442.5 176.38,-442.5 16.88,-442.5"/>
<polygon fill="#666666" stroke="#666666" points="16.88,-409 16.88,-409 36.62,-409 36.62,-409 16.88,-409"/>
<polygon fill="#666666" stroke="#666666" points="36.62,-409 36.62,-409 176.38,-409 176.38,-409 36.62,-409"/>
<polygon fill="none" stroke="#666666" points="16.88,-239.5 16.88,-486.75 176.38,-486.75 176.38,-239.5 16.88,-239.5"/>
</a>
</g>
</g>
<!-- Node3&#45;&gt;Node2 -->
<g id="edge2_Node000002_Node000003" class="edge">
<title>Node3&#45;&gt;Node2</title>
<g id="a_edge2_Node000002_Node000003"><a xlink:title=" ">
<path fill="none" stroke="#63b8ff" d="M96.62,-228.29C96.62,-219.39 96.62,-210.9 96.62,-203.16"/>
<polygon fill="none" stroke="#63b8ff" points="93.13,-228.24 96.63,-238.24 100.13,-228.24 93.13,-228.24"/>
</a>
</g>
</g>
</g>
</svg>
