<?xml version="1.0" encoding="UTF-8" standalone="no"?>
<!DOCTYPE svg PUBLIC "-//W3C//DTD SVG 1.1//EN"
 "http://www.w3.org/Graphics/SVG/1.1/DTD/svg11.dtd">
<!-- Generated by graphviz version 14.1.4 (0)
 -->
<!-- Title: TOctree_DEPRECATED::Destroy Pages: 1 -->
<svg width="477pt" height="42pt"
 viewBox="0.00 0.00 477.00 42.00" xmlns="http://www.w3.org/2000/svg" xmlns:xlink="http://www.w3.org/1999/xlink">
<g id="graph0" class="graph" transform="scale(1 1) rotate(0) translate(4 37.5)">
<title>TOctree_DEPRECATED::Destroy</title>
<!-- Node1 -->
<g id="Node000001" class="node">
<title>Node1</title>
<g id="a_Node000001"><a xlink:title=" ">
<polygon fill="#999999" stroke="#666666" points="124.75,-33.5 0,-33.5 0,0 124.75,0 124.75,-33.5"/>
<text xml:space="preserve" text-anchor="start" x="8" y="-20" font-family="Helvetica,sans-Serif" font-size="10.00">TOctree_DEPRECATED</text>
<text xml:space="preserve" text-anchor="middle" x="62.38" y="-7.25" font-family="Helvetica,sans-Serif" font-size="10.00">::Destroy</text>
</a>
</g>
</g>
<!-- Node2 -->
<g id="Node000002" class="node">
<title>Node2</title>
<g id="a_Node000002"><a xlink:href="$classTOctree__DEPRECATED.html#a5472e280200ea0a55dd1bd528ee767e7" xlink:title=" ">
<polygon fill="white" stroke="#666666" points="302,-33.5 160.75,-33.5 160.75,0 302,0 302,-33.5"/>
<text xml:space="preserve" text-anchor="start" x="168.75" y="-20" font-family="Helvetica,sans-Serif" font-size="10.00">TOctree_DEPRECATED</text>
<text xml:space="preserve" text-anchor="middle" x="231.38" y="-7.25" font-family="Helvetica,sans-Serif" font-size="10.00">::SetOctreeMemoryUsage</text>
</a>
</g>
</g>
<!-- Node1&#45;&gt;Node2 -->
<g id="edge1_Node000001_Node000002" class="edge">
<title>Node1&#45;&gt;Node2</title>
<g id="a_edge1_Node000001_Node000002"><a xlink:title=" ">
<path fill="none" stroke="#63b8ff" d="M125.09,-16.75C132.92,-16.75 141.02,-16.75 149.1,-16.75"/>
<polygon fill="#63b8ff" stroke="#63b8ff" points="148.96,-20.25 158.96,-16.75 148.96,-13.25 148.96,-20.25"/>
</a>
</g>
</g>
<!-- Node3 -->
<g id="Node000003" class="node">
<title>Node3</title>
<g id="a_Node000003"><a xlink:href="$classTOctree__DEPRECATED.html#a15b0b2036ec506aac067d1ab0c5ae08b" xlink:title=" ">
<polygon fill="white" stroke="#666666" points="468.75,-33.5 338,-33.5 338,0 468.75,0 468.75,-33.5"/>
<text xml:space="preserve" text-anchor="start" x="346" y="-20" font-family="Helvetica,sans-Serif" font-size="10.00">TOctree_DEPRECATED</text>
<text xml:space="preserve" text-anchor="middle" x="403.38" y="-7.25" font-family="Helvetica,sans-Serif" font-size="10.00">::TOctree_DEPRECATED</text>
</a>
</g>
</g>
<!-- Node2&#45;&gt;Node3 -->
<g id="edge2_Node000002_Node000003" class="edge">
<title>Node2&#45;&gt;Node3</title>
<g id="a_edge2_Node000002_Node000003"><a xlink:title=" ">
<path fill="none" stroke="#63b8ff" d="M302.01,-16.75C310.05,-16.75 318.28,-16.75 326.4,-16.75"/>
<polygon fill="#63b8ff" stroke="#63b8ff" points="326.26,-20.25 336.26,-16.75 326.26,-13.25 326.26,-20.25"/>
</a>
</g>
</g>
</g>
</svg>
