<?xml version="1.0" encoding="UTF-8" standalone="no"?>
<!DOCTYPE svg PUBLIC "-//W3C//DTD SVG 1.1//EN"
 "http://www.w3.org/Graphics/SVG/1.1/DTD/svg11.dtd">
<!-- Generated by graphviz version 14.1.4 (0)
 -->
<!-- Title: FMallocDebug::Malloc Pages: 1 -->
<svg width="454pt" height="74pt"
 viewBox="0.00 0.00 454.00 74.00" xmlns="http://www.w3.org/2000/svg" xmlns:xlink="http://www.w3.org/1999/xlink">
<g id="graph0" class="graph" transform="scale(1 1) rotate(0) translate(4 70.12)">
<title>FMallocDebug::Malloc</title>
<!-- Node1 -->
<g id="Node000001" class="node">
<title>Node1</title>
<g id="a_Node000001"><a xlink:title=" ">
<polygon fill="#999999" stroke="#666666" points="124,-46.12 0,-46.12 0,-25.38 124,-25.38 124,-46.12"/>
<text xml:space="preserve" text-anchor="middle" x="62" y="-32.62" font-family="Helvetica,sans-Serif" font-size="10.00">FMallocDebug::Malloc</text>
</a>
</g>
</g>
<!-- Node2 -->
<g id="Node000002" class="node">
<title>Node2</title>
<g id="a_Node000002"><a xlink:href="$AlignmentTemplates_8h.html#a296467f9501e6479f04068aa5ecc78dc" xlink:title=" ">
<polygon fill="white" stroke="#666666" points="234.12,-66.12 193.38,-66.12 193.38,-45.38 234.12,-45.38 234.12,-66.12"/>
<text xml:space="preserve" text-anchor="middle" x="213.75" y="-52.62" font-family="Helvetica,sans-Serif" font-size="10.00">Align</text>
</a>
</g>
</g>
<!-- Node1&#45;&gt;Node2 -->
<g id="edge1_Node000001_Node000002" class="edge">
<title>Node1&#45;&gt;Node2</title>
<g id="a_edge1_Node000001_Node000002"><a xlink:title=" ">
<path fill="none" stroke="#63b8ff" d="M124.34,-43.94C144.1,-46.58 165.16,-49.39 181.77,-51.61"/>
<polygon fill="#63b8ff" stroke="#63b8ff" points="181.11,-55.06 191.49,-52.91 182.04,-48.12 181.11,-55.06"/>
</a>
</g>
</g>
<!-- Node3 -->
<g id="Node000003" class="node">
<title>Node3</title>
<g id="a_Node000003"><a xlink:href="$structFMemory.html#aedf1c48c1db4dc9f050e7efed5e8a9c9" xlink:title=" ">
<polygon fill="white" stroke="#666666" points="267.5,-27.12 160,-27.12 160,-6.38 267.5,-6.38 267.5,-27.12"/>
<text xml:space="preserve" text-anchor="middle" x="213.75" y="-13.62" font-family="Helvetica,sans-Serif" font-size="10.00">FMemory::Memset</text>
</a>
</g>
</g>
<!-- Node1&#45;&gt;Node3 -->
<g id="edge2_Node000001_Node000003" class="edge">
<title>Node1&#45;&gt;Node3</title>
<g id="a_edge2_Node000001_Node000003"><a xlink:title=" ">
<path fill="none" stroke="#63b8ff" d="M124.34,-27.97C132.36,-26.95 140.59,-25.91 148.65,-24.88"/>
<polygon fill="#63b8ff" stroke="#63b8ff" points="148.9,-28.38 158.38,-23.65 148.02,-21.43 148.9,-28.38"/>
</a>
</g>
</g>
<!-- Node4 -->
<g id="Node000004" class="node">
<title>Node4</title>
<g id="a_Node000004"><a xlink:href="$structFGenericPlatformMemory.html#ab251038ece3bfd3abd8566146912dadc" xlink:title=" ">
<polygon fill="white" stroke="#666666" points="445.5,-33.5 303.5,-33.5 303.5,0 445.5,0 445.5,-33.5"/>
<text xml:space="preserve" text-anchor="start" x="311.5" y="-20" font-family="Helvetica,sans-Serif" font-size="10.00">FGenericPlatformMemory</text>
<text xml:space="preserve" text-anchor="middle" x="374.5" y="-7.25" font-family="Helvetica,sans-Serif" font-size="10.00">::Memset</text>
</a>
</g>
</g>
<!-- Node3&#45;&gt;Node4 -->
<g id="edge3_Node000003_Node000004" class="edge">
<title>Node3&#45;&gt;Node4</title>
<g id="a_edge3_Node000003_Node000004"><a xlink:title=" ">
<path fill="none" stroke="#63b8ff" d="M267.61,-16.75C275.34,-16.75 283.44,-16.75 291.58,-16.75"/>
<polygon fill="#63b8ff" stroke="#63b8ff" points="291.56,-20.25 301.56,-16.75 291.56,-13.25 291.56,-20.25"/>
</a>
</g>
</g>
</g>
</svg>
