<?xml version="1.0" encoding="UTF-8" standalone="no"?>
<!DOCTYPE svg PUBLIC "-//W3C//DTD SVG 1.1//EN"
 "http://www.w3.org/Graphics/SVG/1.1/DTD/svg11.dtd">
<!-- Generated by graphviz version 14.1.4 (0)
 -->
<!-- Title: UParticleModuleVectorFieldRotation Pages: 1 -->
<svg width="174pt" height="807pt"
 viewBox="0.00 0.00 174.00 807.00" xmlns="http://www.w3.org/2000/svg" xmlns:xlink="http://www.w3.org/1999/xlink">
<g id="graph0" class="graph" transform="scale(1 1) rotate(0) translate(4 802.75)">
<title>UParticleModuleVectorFieldRotation</title>
<!-- Node1 -->
<g id="Node000001" class="node">
<title>Node1</title>
<g id="a_Node000001"><a xlink:title=" ">
<polygon fill="#999999" stroke="none" points="154.25,-83.75 12,-83.75 12,0 154.25,0 154.25,-83.75"/>
<text xml:space="preserve" text-anchor="start" x="16" y="-70" font-family="Helvetica,sans-Serif" font-size="10.00">UParticleModuleVectorField</text>
<text xml:space="preserve" text-anchor="start" x="62.5" y="-57.25" font-family="Helvetica,sans-Serif" font-size="10.00">Rotation</text>
<text xml:space="preserve" text-anchor="start" x="25.12" y="-40.5" font-family="Helvetica,sans-Serif" font-size="10.00">&#45;</text>
<text xml:space="preserve" text-anchor="start" x="42" y="-40.5" font-family="Helvetica,sans-Serif" font-size="10.00">MinInitialRotation</text>
<text xml:space="preserve" text-anchor="start" x="25.12" y="-23.75" font-family="Helvetica,sans-Serif" font-size="10.00">&#45;</text>
<text xml:space="preserve" text-anchor="start" x="42" y="-23.75" font-family="Helvetica,sans-Serif" font-size="10.00">MaxInitialRotation</text>
<text xml:space="preserve" text-anchor="start" x="25.12" y="-7" font-family="Helvetica,sans-Serif" font-size="10.00">&#45;</text>
<text xml:space="preserve" text-anchor="start" x="42" y="-7" font-family="Helvetica,sans-Serif" font-size="10.00">CompileModule()</text>
<polygon fill="#666666" stroke="#666666" points="12,-52.25 12,-52.25 154.25,-52.25 154.25,-52.25 12,-52.25"/>
<polygon fill="#666666" stroke="#666666" points="12,-18.75 12,-18.75 40,-18.75 40,-18.75 12,-18.75"/>
<polygon fill="#666666" stroke="#666666" points="40,-18.75 40,-18.75 154.25,-18.75 154.25,-18.75 40,-18.75"/>
<polygon fill="none" stroke="#666666" points="12,0 12,-83.75 154.25,-83.75 154.25,0 12,0"/>
</a>
</g>
</g>
<!-- Node2 -->
<g id="Node000002" class="node">
<title>Node2</title>
<g id="a_Node000002"><a xlink:href="classUParticleModuleVectorFieldBase.html" target="_top" xlink:title=" ">
<polygon fill="white" stroke="none" points="166.25,-174 0,-174 0,-119.75 166.25,-119.75 166.25,-174"/>
<text xml:space="preserve" text-anchor="start" x="4" y="-160.25" font-family="Helvetica,sans-Serif" font-size="10.00">UParticleModuleVectorFieldBase</text>
<text xml:space="preserve" text-anchor="start" x="80.12" y="-143.5" font-family="Helvetica,sans-Serif" font-size="10.00"> </text>
<text xml:space="preserve" text-anchor="start" x="80.12" y="-126.75" font-family="Helvetica,sans-Serif" font-size="10.00"> </text>
<polygon fill="#666666" stroke="#666666" points="0,-155.25 0,-155.25 166.25,-155.25 166.25,-155.25 0,-155.25"/>
<polygon fill="#666666" stroke="#666666" points="0,-138.5 0,-138.5 166.25,-138.5 166.25,-138.5 0,-138.5"/>
<polygon fill="none" stroke="#666666" points="0,-119.75 0,-174 166.25,-174 166.25,-119.75 0,-119.75"/>
</a>
</g>
</g>
<!-- Node2&#45;&gt;Node1 -->
<g id="edge1_Node000001_Node000002" class="edge">
<title>Node2&#45;&gt;Node1</title>
<g id="a_edge1_Node000001_Node000002"><a xlink:title=" ">
<path fill="none" stroke="#63b8ff" d="M83.12,-108.53C83.12,-100.46 83.12,-91.89 83.12,-83.69"/>
<polygon fill="none" stroke="#63b8ff" points="79.63,-108.37 83.13,-118.37 86.63,-108.37 79.63,-108.37"/>
</a>
</g>
</g>
<!-- Node3 -->
<g id="Node000003" class="node">
<title>Node3</title>
<g id="a_Node000003"><a xlink:href="classUParticleModule.html" target="_top" xlink:title=" ">
<polygon fill="white" stroke="none" points="164.12,-708.5 2.12,-708.5 2.12,-210 164.12,-210 164.12,-708.5"/>
<text xml:space="preserve" text-anchor="start" x="43" y="-694.75" font-family="Helvetica,sans-Serif" font-size="10.00">UParticleModule</text>
<text xml:space="preserve" text-anchor="start" x="6.12" y="-678" font-family="Helvetica,sans-Serif" font-size="10.00">&#45;</text>
<text xml:space="preserve" text-anchor="start" x="13.88" y="-678" font-family="Helvetica,sans-Serif" font-size="10.00">bSpawnModule</text>
<text xml:space="preserve" text-anchor="start" x="6.12" y="-661.25" font-family="Helvetica,sans-Serif" font-size="10.00">&#45;</text>
<text xml:space="preserve" text-anchor="start" x="13.88" y="-661.25" font-family="Helvetica,sans-Serif" font-size="10.00">bUpdateModule</text>
<text xml:space="preserve" text-anchor="start" x="6.12" y="-644.5" font-family="Helvetica,sans-Serif" font-size="10.00">&#45;</text>
<text xml:space="preserve" text-anchor="start" x="13.88" y="-644.5" font-family="Helvetica,sans-Serif" font-size="10.00">bFinalUpdateModule</text>
<text xml:space="preserve" text-anchor="start" x="6.12" y="-627.75" font-family="Helvetica,sans-Serif" font-size="10.00">&#45;</text>
<text xml:space="preserve" text-anchor="start" x="13.88" y="-627.75" font-family="Helvetica,sans-Serif" font-size="10.00">bUpdateForGPUEmitter</text>
<text xml:space="preserve" text-anchor="start" x="6.12" y="-611" font-family="Helvetica,sans-Serif" font-size="10.00">&#45;</text>
<text xml:space="preserve" text-anchor="start" x="13.88" y="-611" font-family="Helvetica,sans-Serif" font-size="10.00">bCurvesAsColor</text>
<text xml:space="preserve" text-anchor="start" x="6.12" y="-594.25" font-family="Helvetica,sans-Serif" font-size="10.00">&#45;</text>
<text xml:space="preserve" text-anchor="start" x="13.88" y="-594.25" font-family="Helvetica,sans-Serif" font-size="10.00">b3DDrawMode</text>
<text xml:space="preserve" text-anchor="start" x="6.12" y="-577.5" font-family="Helvetica,sans-Serif" font-size="10.00">&#45;</text>
<text xml:space="preserve" text-anchor="start" x="13.88" y="-577.5" font-family="Helvetica,sans-Serif" font-size="10.00">bSupported3DDrawMode</text>
<text xml:space="preserve" text-anchor="start" x="6.12" y="-560.75" font-family="Helvetica,sans-Serif" font-size="10.00">&#45;</text>
<text xml:space="preserve" text-anchor="start" x="13.88" y="-560.75" font-family="Helvetica,sans-Serif" font-size="10.00">bEnabled</text>
<text xml:space="preserve" text-anchor="start" x="6.12" y="-544" font-family="Helvetica,sans-Serif" font-size="10.00">&#45;</text>
<text xml:space="preserve" text-anchor="start" x="13.88" y="-544" font-family="Helvetica,sans-Serif" font-size="10.00">bEditable</text>
<text xml:space="preserve" text-anchor="start" x="6.12" y="-527.25" font-family="Helvetica,sans-Serif" font-size="10.00">&#45;</text>
<text xml:space="preserve" text-anchor="start" x="13.88" y="-527.25" font-family="Helvetica,sans-Serif" font-size="10.00">LODDuplicate</text>
<text xml:space="preserve" text-anchor="start" x="6.12" y="-510.5" font-family="Helvetica,sans-Serif" font-size="10.00">&#45;</text>
<text xml:space="preserve" text-anchor="start" x="13.88" y="-510.5" font-family="Helvetica,sans-Serif" font-size="10.00">bSupportsRandomSeed</text>
<text xml:space="preserve" text-anchor="start" x="6.12" y="-493.75" font-family="Helvetica,sans-Serif" font-size="10.00">&#45;</text>
<text xml:space="preserve" text-anchor="start" x="13.88" y="-493.75" font-family="Helvetica,sans-Serif" font-size="10.00">bRequiresLoopingNotification</text>
<text xml:space="preserve" text-anchor="start" x="6.12" y="-477" font-family="Helvetica,sans-Serif" font-size="10.00">&#45;</text>
<text xml:space="preserve" text-anchor="start" x="13.88" y="-477" font-family="Helvetica,sans-Serif" font-size="10.00">LODValidity</text>
<text xml:space="preserve" text-anchor="start" x="6.12" y="-460.25" font-family="Helvetica,sans-Serif" font-size="10.00">&#45;</text>
<text xml:space="preserve" text-anchor="start" x="13.88" y="-460.25" font-family="Helvetica,sans-Serif" font-size="10.00">IsPostLoadThreadSafe()</text>
<text xml:space="preserve" text-anchor="start" x="6.12" y="-443.5" font-family="Helvetica,sans-Serif" font-size="10.00">&#45;</text>
<text xml:space="preserve" text-anchor="start" x="13.88" y="-443.5" font-family="Helvetica,sans-Serif" font-size="10.00">PostEditChangeProperty()</text>
<text xml:space="preserve" text-anchor="start" x="6.12" y="-426.75" font-family="Helvetica,sans-Serif" font-size="10.00">&#45;</text>
<text xml:space="preserve" text-anchor="start" x="13.88" y="-426.75" font-family="Helvetica,sans-Serif" font-size="10.00">CompileModule()</text>
<text xml:space="preserve" text-anchor="start" x="6.12" y="-410" font-family="Helvetica,sans-Serif" font-size="10.00">&#45;</text>
<text xml:space="preserve" text-anchor="start" x="13.88" y="-410" font-family="Helvetica,sans-Serif" font-size="10.00">Spawn()</text>
<text xml:space="preserve" text-anchor="start" x="6.12" y="-393.25" font-family="Helvetica,sans-Serif" font-size="10.00">&#45;</text>
<text xml:space="preserve" text-anchor="start" x="13.88" y="-393.25" font-family="Helvetica,sans-Serif" font-size="10.00">Update()</text>
<text xml:space="preserve" text-anchor="start" x="6.12" y="-376.5" font-family="Helvetica,sans-Serif" font-size="10.00">&#45;</text>
<text xml:space="preserve" text-anchor="start" x="13.88" y="-376.5" font-family="Helvetica,sans-Serif" font-size="10.00">FinalUpdate()</text>
<text xml:space="preserve" text-anchor="start" x="6.12" y="-359.75" font-family="Helvetica,sans-Serif" font-size="10.00">&#45;</text>
<text xml:space="preserve" text-anchor="start" x="13.88" y="-359.75" font-family="Helvetica,sans-Serif" font-size="10.00">RequiredBytes()</text>
<text xml:space="preserve" text-anchor="start" x="6.12" y="-343" font-family="Helvetica,sans-Serif" font-size="10.00">&#45;</text>
<text xml:space="preserve" text-anchor="start" x="13.88" y="-343" font-family="Helvetica,sans-Serif" font-size="10.00">RequiredBytesPerInstance()</text>
<text xml:space="preserve" text-anchor="start" x="6.12" y="-326.25" font-family="Helvetica,sans-Serif" font-size="10.00">&#45;</text>
<text xml:space="preserve" text-anchor="start" x="13.88" y="-326.25" font-family="Helvetica,sans-Serif" font-size="10.00">PrepPerInstanceBlock()</text>
<text xml:space="preserve" text-anchor="start" x="6.12" y="-309.5" font-family="Helvetica,sans-Serif" font-size="10.00">&#45;</text>
<text xml:space="preserve" text-anchor="start" x="13.88" y="-309.5" font-family="Helvetica,sans-Serif" font-size="10.00">SetToSensibleDefaults()</text>
<text xml:space="preserve" text-anchor="start" x="13.88" y="-292.75" font-family="Helvetica,sans-Serif" font-size="10.00">and 35 more...</text>
<text xml:space="preserve" text-anchor="start" x="6.12" y="-276" font-family="Helvetica,sans-Serif" font-size="10.00">&#45;</text>
<text xml:space="preserve" text-anchor="start" x="13.88" y="-276" font-family="Helvetica,sans-Serif" font-size="10.00">GetDistributionsRestricted</text>
<text xml:space="preserve" text-anchor="start" x="13.88" y="-263.25" font-family="Helvetica,sans-Serif" font-size="10.00">OnGPU()</text>
<text xml:space="preserve" text-anchor="start" x="6.12" y="-246.5" font-family="Helvetica,sans-Serif" font-size="10.00">&#45;</text>
<text xml:space="preserve" text-anchor="start" x="13.88" y="-246.5" font-family="Helvetica,sans-Serif" font-size="10.00">IsDistributionAllowedOnGPU()</text>
<text xml:space="preserve" text-anchor="start" x="6.12" y="-229.75" font-family="Helvetica,sans-Serif" font-size="10.00">&#45;</text>
<text xml:space="preserve" text-anchor="start" x="13.88" y="-229.75" font-family="Helvetica,sans-Serif" font-size="10.00">GetDistributionNotAllowed</text>
<text xml:space="preserve" text-anchor="start" x="13.88" y="-217" font-family="Helvetica,sans-Serif" font-size="10.00">OnGPUText()</text>
<polygon fill="#666666" stroke="#666666" points="2.12,-689.75 2.12,-689.75 164.12,-689.75 164.12,-689.75 2.12,-689.75"/>
<polygon fill="#666666" stroke="#666666" points="2.12,-472 2.12,-472 11.88,-472 11.88,-472 2.12,-472"/>
<polygon fill="#666666" stroke="#666666" points="11.88,-472 11.88,-472 164.12,-472 164.12,-472 11.88,-472"/>
<polygon fill="none" stroke="#666666" points="2.12,-210 2.12,-708.5 164.12,-708.5 164.12,-210 2.12,-210"/>
</a>
</g>
</g>
<!-- Node3&#45;&gt;Node2 -->
<g id="edge2_Node000002_Node000003" class="edge">
<title>Node3&#45;&gt;Node2</title>
<g id="a_edge2_Node000002_Node000003"><a xlink:title=" ">
<path fill="none" stroke="#63b8ff" d="M83.12,-198.86C83.12,-189.47 83.12,-181.02 83.12,-173.82"/>
<polygon fill="none" stroke="#63b8ff" points="79.63,-198.8 83.13,-208.8 86.63,-198.8 79.63,-198.8"/>
</a>
</g>
</g>
<!-- Node4 -->
<g id="Node000004" class="node">
<title>Node4</title>
<g id="a_Node000004"><a xlink:title=" ">
<polygon fill="white" stroke="none" points="106.62,-798.75 59.62,-798.75 59.62,-744.5 106.62,-744.5 106.62,-798.75"/>
<text xml:space="preserve" text-anchor="start" x="63.62" y="-785" font-family="Helvetica,sans-Serif" font-size="10.00">UObject</text>
<text xml:space="preserve" text-anchor="start" x="80.12" y="-768.25" font-family="Helvetica,sans-Serif" font-size="10.00"> </text>
<text xml:space="preserve" text-anchor="start" x="80.12" y="-751.5" font-family="Helvetica,sans-Serif" font-size="10.00"> </text>
<polygon fill="#666666" stroke="#666666" points="59.62,-780 59.62,-780 106.62,-780 106.62,-780 59.62,-780"/>
<polygon fill="#666666" stroke="#666666" points="59.62,-763.25 59.62,-763.25 106.62,-763.25 106.62,-763.25 59.62,-763.25"/>
<polygon fill="none" stroke="#666666" points="59.62,-744.5 59.62,-798.75 106.62,-798.75 106.62,-744.5 59.62,-744.5"/>
</a>
</g>
</g>
<!-- Node4&#45;&gt;Node3 -->
<g id="edge3_Node000003_Node000004" class="edge">
<title>Node4&#45;&gt;Node3</title>
<g id="a_edge3_Node000003_Node000004"><a xlink:title=" ">
<path fill="none" stroke="#63b8ff" d="M83.12,-733.31C83.12,-725.8 83.12,-717.39 83.12,-708.32"/>
<polygon fill="none" stroke="#63b8ff" points="79.63,-733.18 83.13,-743.18 86.63,-733.18 79.63,-733.18"/>
</a>
</g>
</g>
</g>
</svg>
