<?xml version="1.0" encoding="UTF-8" standalone="no"?>
<!DOCTYPE svg PUBLIC "-//W3C//DTD SVG 1.1//EN"
 "http://www.w3.org/Graphics/SVG/1.1/DTD/svg11.dtd">
<!-- Generated by graphviz version 14.1.4 (0)
 -->
<!-- Title: FEmbeddedCommunication::KeepAwake Pages: 1 -->
<svg width="503pt" height="198pt"
 viewBox="0.00 0.00 503.00 198.00" xmlns="http://www.w3.org/2000/svg" xmlns:xlink="http://www.w3.org/1999/xlink">
<g id="graph0" class="graph" transform="scale(1 1) rotate(0) translate(4 193.5)">
<title>FEmbeddedCommunication::KeepAwake</title>
<!-- Node1 -->
<g id="Node000001" class="node">
<title>Node1</title>
<g id="a_Node000001"><a xlink:title=" ">
<polygon fill="#999999" stroke="#666666" points="495,-100.5 344,-100.5 344,-67 495,-67 495,-100.5"/>
<text xml:space="preserve" text-anchor="start" x="352" y="-87" font-family="Helvetica,sans-Serif" font-size="10.00">FEmbeddedCommunication</text>
<text xml:space="preserve" text-anchor="middle" x="419.5" y="-74.25" font-family="Helvetica,sans-Serif" font-size="10.00">::KeepAwake</text>
</a>
</g>
</g>
<!-- Node2 -->
<g id="Node000002" class="node">
<title>Node2</title>
<g id="a_Node000002"><a xlink:href="$classFEmbeddedKeepAwake.html#a784d612406aa6678ff59f54ef914ee38" xlink:title=" ">
<polygon fill="white" stroke="#666666" points="136,-189.5 0,-189.5 0,-156 136,-156 136,-189.5"/>
<text xml:space="preserve" text-anchor="start" x="8" y="-176" font-family="Helvetica,sans-Serif" font-size="10.00">FEmbeddedKeepAwake</text>
<text xml:space="preserve" text-anchor="middle" x="68" y="-163.25" font-family="Helvetica,sans-Serif" font-size="10.00">::FEmbeddedKeepAwake</text>
</a>
</g>
</g>
<!-- Node1&#45;&gt;Node2 -->
<g id="edge1_Node000001_Node000002" class="edge">
<title>Node1&#45;&gt;Node2</title>
<g id="a_edge1_Node000001_Node000002"><a xlink:title=" ">
<path fill="none" stroke="#63b8ff" d="M339.96,-103.75C278.76,-119.34 194.67,-140.75 136.48,-155.57"/>
<polygon fill="#63b8ff" stroke="#63b8ff" points="340.82,-107.14 349.65,-101.28 339.09,-100.36 340.82,-107.14"/>
</a>
</g>
</g>
<!-- Node3 -->
<g id="Node000003" class="node">
<title>Node3</title>
<g id="a_Node000003"><a xlink:href="$classFEmbeddedKeepAwake.html#aec5b20a8061ca171acea2fce6348bbcf" xlink:title=" ">
<polygon fill="white" stroke="#666666" points="308,-100.5 172,-100.5 172,-67 308,-67 308,-100.5"/>
<text xml:space="preserve" text-anchor="start" x="180" y="-87" font-family="Helvetica,sans-Serif" font-size="10.00">FEmbeddedKeepAwake</text>
<text xml:space="preserve" text-anchor="middle" x="240" y="-74.25" font-family="Helvetica,sans-Serif" font-size="10.00">::FEmbeddedKeepAwake</text>
</a>
</g>
</g>
<!-- Node1&#45;&gt;Node3 -->
<g id="edge2_Node000001_Node000003" class="edge">
<title>Node1&#45;&gt;Node3</title>
<g id="a_edge2_Node000001_Node000003"><a xlink:title=" ">
<path fill="none" stroke="#63b8ff" d="M332.37,-83.75C324.3,-83.75 316.2,-83.75 308.34,-83.75"/>
<polygon fill="#63b8ff" stroke="#63b8ff" points="332.22,-87.25 342.22,-83.75 332.22,-80.25 332.22,-87.25"/>
</a>
</g>
</g>
<!-- Node5 -->
<g id="Node000005" class="node">
<title>Node5</title>
<g id="a_Node000005"><a xlink:href="$classFEmbeddedKeepAwake.html#a15ef1f678a1d65eaa9660173286ef9f4" xlink:title=" ">
<polygon fill="white" stroke="#666666" points="133,-33.5 3,-33.5 3,0 133,0 133,-33.5"/>
<text xml:space="preserve" text-anchor="start" x="11" y="-20" font-family="Helvetica,sans-Serif" font-size="10.00">FEmbeddedKeepAwake</text>
<text xml:space="preserve" text-anchor="middle" x="68" y="-7.25" font-family="Helvetica,sans-Serif" font-size="10.00">::operator=</text>
</a>
</g>
</g>
<!-- Node1&#45;&gt;Node5 -->
<g id="edge7_Node000001_Node000005" class="edge">
<title>Node1&#45;&gt;Node5</title>
<g id="a_edge7_Node000001_Node000005"><a xlink:title=" ">
<path fill="none" stroke="#63b8ff" d="M337.18,-64.02C327.37,-61.82 317.47,-59.67 308,-57.75 249.11,-45.78 181.58,-34.41 133.36,-26.7"/>
<polygon fill="#63b8ff" stroke="#63b8ff" points="336.2,-67.39 346.72,-66.19 337.75,-60.56 336.2,-67.39"/>
</a>
</g>
</g>
<!-- Node3&#45;&gt;Node2 -->
<g id="edge3_Node000003_Node000002" class="edge">
<title>Node3&#45;&gt;Node2</title>
<g id="a_edge3_Node000003_Node000002"><a xlink:title=" ">
<path fill="none" stroke="#63b8ff" d="M204.49,-107C184.89,-119.65 159.63,-135.06 136,-146.75 129.74,-149.85 123.01,-152.84 116.32,-155.61"/>
<polygon fill="#63b8ff" stroke="#63b8ff" points="206.18,-110.08 212.64,-101.68 202.35,-104.22 206.18,-110.08"/>
</a>
</g>
</g>
<!-- Node4 -->
<g id="Node000004" class="node">
<title>Node4</title>
<g id="a_Node000004"><a xlink:href="$classFEmbeddedKeepAwake.html#a0341bb2a8f5570b814daddbf5b627af0" xlink:title=" ">
<polygon fill="white" stroke="#666666" points="136,-137.5 0,-137.5 0,-104 136,-104 136,-137.5"/>
<text xml:space="preserve" text-anchor="start" x="8" y="-124" font-family="Helvetica,sans-Serif" font-size="10.00">FEmbeddedKeepAwake</text>
<text xml:space="preserve" text-anchor="middle" x="68" y="-111.25" font-family="Helvetica,sans-Serif" font-size="10.00">::FEmbeddedKeepAwake</text>
</a>
</g>
</g>
<!-- Node3&#45;&gt;Node4 -->
<g id="edge4_Node000003_Node000004" class="edge">
<title>Node3&#45;&gt;Node4</title>
<g id="a_edge4_Node000003_Node000004"><a xlink:title=" ">
<path fill="none" stroke="#63b8ff" d="M160.74,-100.78C152.56,-102.56 144.3,-104.36 136.26,-106.11"/>
<polygon fill="#63b8ff" stroke="#63b8ff" points="161.31,-104.24 170.33,-98.7 159.82,-97.4 161.31,-104.24"/>
</a>
</g>
</g>
<!-- Node3&#45;&gt;Node5 -->
<g id="edge5_Node000003_Node000005" class="edge">
<title>Node3&#45;&gt;Node5</title>
<g id="a_edge5_Node000003_Node000005"><a xlink:title=" ">
<path fill="none" stroke="#63b8ff" d="M185.24,-62.25C169.39,-55.94 152.01,-49.04 136,-42.75 128.68,-39.87 120.91,-36.84 113.35,-33.9"/>
<polygon fill="#63b8ff" stroke="#63b8ff" points="183.94,-65.5 194.53,-65.95 186.54,-59 183.94,-65.5"/>
</a>
</g>
</g>
<!-- Node6 -->
<g id="Node000006" class="node">
<title>Node6</title>
<g id="a_Node000006"><a xlink:href="$classFEmbeddedKeepAwake.html#a10994a165de9ff6883ce9943ab985a17" xlink:title=" ">
<polygon fill="white" stroke="#666666" points="133,-85.5 3,-85.5 3,-52 133,-52 133,-85.5"/>
<text xml:space="preserve" text-anchor="start" x="11" y="-72" font-family="Helvetica,sans-Serif" font-size="10.00">FEmbeddedKeepAwake</text>
<text xml:space="preserve" text-anchor="middle" x="68" y="-59.25" font-family="Helvetica,sans-Serif" font-size="10.00">::operator=</text>
</a>
</g>
</g>
<!-- Node3&#45;&gt;Node6 -->
<g id="edge6_Node000003_Node000006" class="edge">
<title>Node3&#45;&gt;Node6</title>
<g id="a_edge6_Node000003_Node000006"><a xlink:title=" ">
<path fill="none" stroke="#63b8ff" d="M160.46,-76.82C151.43,-76.02 142.3,-75.22 133.48,-74.44"/>
<polygon fill="#63b8ff" stroke="#63b8ff" points="160.03,-80.3 170.3,-77.69 160.65,-73.32 160.03,-80.3"/>
</a>
</g>
</g>
</g>
</svg>
