<?xml version="1.0" encoding="UTF-8" standalone="no"?>
<!DOCTYPE svg PUBLIC "-//W3C//DTD SVG 1.1//EN"
 "http://www.w3.org/Graphics/SVG/1.1/DTD/svg11.dtd">
<!-- Generated by graphviz version 14.1.4 (0)
 -->
<!-- Title: FWeakSharedBuffer::FWeakSharedBuffer Pages: 1 -->
<svg width="439pt" height="564pt"
 viewBox="0.00 0.00 439.00 564.00" xmlns="http://www.w3.org/2000/svg" xmlns:xlink="http://www.w3.org/1999/xlink">
<g id="graph0" class="graph" transform="scale(1 1) rotate(0) translate(4 559.5)">
<title>FWeakSharedBuffer::FWeakSharedBuffer</title>
<!-- Node1 -->
<g id="Node000001" class="node">
<title>Node1</title>
<g id="a_Node000001"><a xlink:title=" ">
<polygon fill="#999999" stroke="#666666" points="430.5,-275.5 311,-275.5 311,-242 430.5,-242 430.5,-275.5"/>
<text xml:space="preserve" text-anchor="start" x="319" y="-262" font-family="Helvetica,sans-Serif" font-size="10.00">FWeakSharedBuffer::</text>
<text xml:space="preserve" text-anchor="middle" x="370.75" y="-249.25" font-family="Helvetica,sans-Serif" font-size="10.00">FWeakSharedBuffer</text>
</a>
</g>
</g>
<!-- Node2 -->
<g id="Node000002" class="node">
<title>Node2</title>
<g id="a_Node000002"><a xlink:href="$classFWeakSharedBuffer.html#afbf24fe36511039f0f27ef688d6a56ee" xlink:title=" ">
<polygon fill="white" stroke="#666666" points="119.5,-555.5 0,-555.5 0,-522 119.5,-522 119.5,-555.5"/>
<text xml:space="preserve" text-anchor="start" x="8" y="-542" font-family="Helvetica,sans-Serif" font-size="10.00">FWeakSharedBuffer::</text>
<text xml:space="preserve" text-anchor="middle" x="59.75" y="-529.25" font-family="Helvetica,sans-Serif" font-size="10.00">GetTypeHash</text>
</a>
</g>
</g>
<!-- Node1&#45;&gt;Node2 -->
<g id="edge1_Node000001_Node000002" class="edge">
<title>Node1&#45;&gt;Node2</title>
<g id="a_edge1_Node000001_Node000002"><a xlink:title=" ">
<path fill="none" stroke="#63b8ff" d="M361.91,-286.9C349.53,-326.67 321.91,-399.39 275,-443.75 231.25,-485.13 166.48,-510.42 119.61,-524.39"/>
<polygon fill="#63b8ff" stroke="#63b8ff" points="365.25,-287.95 364.77,-277.37 358.54,-285.94 365.25,-287.95"/>
</a>
</g>
</g>
<!-- Node3 -->
<g id="Node000003" class="node">
<title>Node3</title>
<g id="a_Node000003"><a xlink:href="$classFWeakSharedBuffer.html#a58a61c969e3c4be771cf4d89d3f103f2" xlink:title=" ">
<polygon fill="white" stroke="#666666" points="119.5,-503.5 0,-503.5 0,-470 119.5,-470 119.5,-503.5"/>
<text xml:space="preserve" text-anchor="start" x="8" y="-490" font-family="Helvetica,sans-Serif" font-size="10.00">FWeakSharedBuffer::</text>
<text xml:space="preserve" text-anchor="middle" x="59.75" y="-477.25" font-family="Helvetica,sans-Serif" font-size="10.00">operator!=</text>
</a>
</g>
</g>
<!-- Node1&#45;&gt;Node3 -->
<g id="edge2_Node000001_Node000003" class="edge">
<title>Node1&#45;&gt;Node3</title>
<g id="a_edge2_Node000001_Node000003"><a xlink:title=" ">
<path fill="none" stroke="#63b8ff" d="M357.54,-286.11C342.3,-317.44 313.49,-368.47 275,-399.75 229.36,-436.84 165.79,-459.97 119.76,-472.97"/>
<polygon fill="#63b8ff" stroke="#63b8ff" points="360.6,-287.81 361.71,-277.28 354.27,-284.82 360.6,-287.81"/>
</a>
</g>
</g>
<!-- Node4 -->
<g id="Node000004" class="node">
<title>Node4</title>
<g id="a_Node000004"><a xlink:href="$classFWeakSharedBuffer.html#a57b898c0ada1ed88def298d4017f9adb" xlink:title=" ">
<polygon fill="white" stroke="#666666" points="119.5,-451.5 0,-451.5 0,-418 119.5,-418 119.5,-451.5"/>
<text xml:space="preserve" text-anchor="start" x="8" y="-438" font-family="Helvetica,sans-Serif" font-size="10.00">FWeakSharedBuffer::</text>
<text xml:space="preserve" text-anchor="middle" x="59.75" y="-425.25" font-family="Helvetica,sans-Serif" font-size="10.00">operator!=</text>
</a>
</g>
</g>
<!-- Node1&#45;&gt;Node4 -->
<g id="edge3_Node000001_Node000004" class="edge">
<title>Node1&#45;&gt;Node4</title>
<g id="a_edge3_Node000001_Node000004"><a xlink:title=" ">
<path fill="none" stroke="#63b8ff" d="M351.09,-284.84C333.7,-307.47 305.85,-339.67 275,-359.75 227.11,-390.92 164.73,-410.84 119.65,-422.26"/>
<polygon fill="#63b8ff" stroke="#63b8ff" points="353.77,-287.1 356.98,-277 348.18,-282.9 353.77,-287.1"/>
</a>
</g>
</g>
<!-- Node5 -->
<g id="Node000005" class="node">
<title>Node5</title>
<g id="a_Node000005"><a xlink:href="$classFWeakSharedBuffer.html#a02530b739fd5ebb1f04e735a9f8bba7f" xlink:title=" ">
<polygon fill="white" stroke="#666666" points="119.5,-399.5 0,-399.5 0,-366 119.5,-366 119.5,-399.5"/>
<text xml:space="preserve" text-anchor="start" x="8" y="-386" font-family="Helvetica,sans-Serif" font-size="10.00">FWeakSharedBuffer::</text>
<text xml:space="preserve" text-anchor="middle" x="59.75" y="-373.25" font-family="Helvetica,sans-Serif" font-size="10.00">operator!=</text>
</a>
</g>
</g>
<!-- Node1&#45;&gt;Node5 -->
<g id="edge4_Node000001_Node000005" class="edge">
<title>Node1&#45;&gt;Node5</title>
<g id="a_edge4_Node000001_Node000005"><a xlink:title=" ">
<path fill="none" stroke="#63b8ff" d="M341.2,-283.02C323.21,-297.24 298.93,-314.55 275,-325.75 225.15,-349.08 164.14,-364.13 119.99,-372.87"/>
<polygon fill="#63b8ff" stroke="#63b8ff" points="343.24,-285.88 348.82,-276.87 338.84,-280.43 343.24,-285.88"/>
</a>
</g>
</g>
<!-- Node6 -->
<g id="Node000006" class="node">
<title>Node6</title>
<g id="a_Node000006"><a xlink:href="$classFWeakSharedBuffer.html#acf61edafc3b50ec259bda8ed7ff3468c" xlink:title=" ">
<polygon fill="white" stroke="#666666" points="119.5,-347.5 0,-347.5 0,-314 119.5,-314 119.5,-347.5"/>
<text xml:space="preserve" text-anchor="start" x="8" y="-334" font-family="Helvetica,sans-Serif" font-size="10.00">FWeakSharedBuffer::</text>
<text xml:space="preserve" text-anchor="middle" x="59.75" y="-321.25" font-family="Helvetica,sans-Serif" font-size="10.00">operator!=</text>
</a>
</g>
</g>
<!-- Node1&#45;&gt;Node6 -->
<g id="edge5_Node000001_Node000006" class="edge">
<title>Node1&#45;&gt;Node6</title>
<g id="a_edge5_Node000001_Node000006"><a xlink:title=" ">
<path fill="none" stroke="#63b8ff" d="M327.17,-280.65C311.17,-288.06 292.6,-295.72 275,-300.75 223.72,-315.4 163.41,-323.02 119.86,-326.91"/>
<polygon fill="#63b8ff" stroke="#63b8ff" points="328.37,-283.95 335.9,-276.5 325.37,-277.63 328.37,-283.95"/>
</a>
</g>
</g>
<!-- Node7 -->
<g id="Node000007" class="node">
<title>Node7</title>
<g id="a_Node000007"><a xlink:href="$classFWeakSharedBuffer.html#a2bec87352c6b9a33561f1acedbc97258" xlink:title=" ">
<polygon fill="white" stroke="#666666" points="119.5,-295.5 0,-295.5 0,-262 119.5,-262 119.5,-295.5"/>
<text xml:space="preserve" text-anchor="start" x="8" y="-282" font-family="Helvetica,sans-Serif" font-size="10.00">FWeakSharedBuffer::</text>
<text xml:space="preserve" text-anchor="middle" x="59.75" y="-269.25" font-family="Helvetica,sans-Serif" font-size="10.00">operator!=</text>
</a>
</g>
</g>
<!-- Node1&#45;&gt;Node7 -->
<g id="edge6_Node000001_Node000007" class="edge">
<title>Node1&#45;&gt;Node7</title>
<g id="a_edge6_Node000001_Node000007"><a xlink:title=" ">
<path fill="none" stroke="#63b8ff" d="M306.12,-278.7C295.81,-281.21 285.18,-283.38 275,-284.75 222.82,-291.78 162.87,-289.21 119.67,-285.5"/>
<polygon fill="#63b8ff" stroke="#63b8ff" points="306.87,-282.13 315.68,-276.25 305.13,-275.35 306.87,-282.13"/>
</a>
</g>
</g>
<!-- Node8 -->
<g id="Node000008" class="node">
<title>Node8</title>
<g id="a_Node000008"><a xlink:href="$classFWeakSharedBuffer.html#a86ff61e728aa2c4253efea7b2efae907" xlink:title=" ">
<polygon fill="white" stroke="#666666" points="275,-33.5 155.5,-33.5 155.5,0 275,0 275,-33.5"/>
<text xml:space="preserve" text-anchor="start" x="163.5" y="-20" font-family="Helvetica,sans-Serif" font-size="10.00">FWeakSharedBuffer::</text>
<text xml:space="preserve" text-anchor="middle" x="215.25" y="-7.25" font-family="Helvetica,sans-Serif" font-size="10.00">operator=</text>
</a>
</g>
</g>
<!-- Node1&#45;&gt;Node8 -->
<g id="edge7_Node000001_Node000008" class="edge">
<title>Node1&#45;&gt;Node8</title>
<g id="a_edge7_Node000001_Node000008"><a xlink:title=" ">
<path fill="none" stroke="#63b8ff" d="M363.42,-230.61C352.29,-186.74 325.47,-101.53 275,-47.75 269.95,-42.37 263.75,-37.74 257.3,-33.82"/>
<polygon fill="#63b8ff" stroke="#63b8ff" points="359.96,-231.22 365.73,-240.11 366.77,-229.56 359.96,-231.22"/>
</a>
</g>
</g>
<!-- Node9 -->
<g id="Node000009" class="node">
<title>Node9</title>
<g id="a_Node000009"><a xlink:href="$classFWeakSharedBuffer.html#a7d94d39687ab78d9dbfd67d7deddcd82" xlink:title=" ">
<polygon fill="white" stroke="#666666" points="119.5,-243.5 0,-243.5 0,-210 119.5,-210 119.5,-243.5"/>
<text xml:space="preserve" text-anchor="start" x="8" y="-230" font-family="Helvetica,sans-Serif" font-size="10.00">FWeakSharedBuffer::</text>
<text xml:space="preserve" text-anchor="middle" x="59.75" y="-217.25" font-family="Helvetica,sans-Serif" font-size="10.00">operator==</text>
</a>
</g>
</g>
<!-- Node1&#45;&gt;Node9 -->
<g id="edge8_Node000001_Node000009" class="edge">
<title>Node1&#45;&gt;Node9</title>
<g id="a_edge8_Node000001_Node000009"><a xlink:title=" ">
<path fill="none" stroke="#63b8ff" d="M304.83,-238.74C294.92,-236.32 284.75,-234.2 275,-232.75 222.92,-224.99 162.96,-223.98 119.74,-224.62"/>
<polygon fill="#63b8ff" stroke="#63b8ff" points="303.84,-242.1 314.4,-241.19 305.58,-235.32 303.84,-242.1"/>
</a>
</g>
</g>
<!-- Node10 -->
<g id="Node000010" class="node">
<title>Node10</title>
<g id="a_Node000010"><a xlink:href="$classFWeakSharedBuffer.html#aff3952dcd1454d7b2c7248c1faf5b3fa" xlink:title=" ">
<polygon fill="white" stroke="#666666" points="119.5,-191.5 0,-191.5 0,-158 119.5,-158 119.5,-191.5"/>
<text xml:space="preserve" text-anchor="start" x="8" y="-178" font-family="Helvetica,sans-Serif" font-size="10.00">FWeakSharedBuffer::</text>
<text xml:space="preserve" text-anchor="middle" x="59.75" y="-165.25" font-family="Helvetica,sans-Serif" font-size="10.00">operator==</text>
</a>
</g>
</g>
<!-- Node1&#45;&gt;Node10 -->
<g id="edge9_Node000001_Node000010" class="edge">
<title>Node1&#45;&gt;Node10</title>
<g id="a_edge9_Node000001_Node000010"><a xlink:title=" ">
<path fill="none" stroke="#63b8ff" d="M320.81,-237.28C306.25,-231.4 290.14,-225.37 275,-220.75 223.33,-204.97 163.07,-192.54 119.63,-184.6"/>
<polygon fill="#63b8ff" stroke="#63b8ff" points="319.12,-240.37 329.7,-240.94 321.79,-233.9 319.12,-240.37"/>
</a>
</g>
</g>
<!-- Node11 -->
<g id="Node000011" class="node">
<title>Node11</title>
<g id="a_Node000011"><a xlink:href="$classFWeakSharedBuffer.html#ab131f880b4b71988ca2cb037d1bea7ce" xlink:title=" ">
<polygon fill="white" stroke="#666666" points="119.5,-139.5 0,-139.5 0,-106 119.5,-106 119.5,-139.5"/>
<text xml:space="preserve" text-anchor="start" x="8" y="-126" font-family="Helvetica,sans-Serif" font-size="10.00">FWeakSharedBuffer::</text>
<text xml:space="preserve" text-anchor="middle" x="59.75" y="-113.25" font-family="Helvetica,sans-Serif" font-size="10.00">operator==</text>
</a>
</g>
</g>
<!-- Node1&#45;&gt;Node11 -->
<g id="edge10_Node000001_Node000011" class="edge">
<title>Node1&#45;&gt;Node11</title>
<g id="a_edge10_Node000001_Node000011"><a xlink:title=" ">
<path fill="none" stroke="#63b8ff" d="M341.9,-234.24C323.85,-219.38 299.25,-201 275,-188.75 225.14,-163.58 163.86,-145.89 119.63,-135.2"/>
<polygon fill="#63b8ff" stroke="#63b8ff" points="339.64,-236.91 349.55,-240.66 344.14,-231.55 339.64,-236.91"/>
</a>
</g>
</g>
<!-- Node12 -->
<g id="Node000012" class="node">
<title>Node12</title>
<g id="a_Node000012"><a xlink:href="$classFWeakSharedBuffer.html#a86b4dbb3635ce2b8bd9b07fb2058e7c6" xlink:title=" ">
<polygon fill="white" stroke="#666666" points="119.5,-87.5 0,-87.5 0,-54 119.5,-54 119.5,-87.5"/>
<text xml:space="preserve" text-anchor="start" x="8" y="-74" font-family="Helvetica,sans-Serif" font-size="10.00">FWeakSharedBuffer::</text>
<text xml:space="preserve" text-anchor="middle" x="59.75" y="-61.25" font-family="Helvetica,sans-Serif" font-size="10.00">operator==</text>
</a>
</g>
</g>
<!-- Node1&#45;&gt;Node12 -->
<g id="edge11_Node000001_Node000012" class="edge">
<title>Node1&#45;&gt;Node12</title>
<g id="a_edge11_Node000001_Node000012"><a xlink:title=" ">
<path fill="none" stroke="#63b8ff" d="M354.56,-231.84C338.18,-205.11 309.72,-164.76 275,-140.75 228.17,-108.37 165.36,-90.18 119.87,-80.52"/>
<polygon fill="#63b8ff" stroke="#63b8ff" points="351.53,-233.59 359.66,-240.39 357.55,-230.01 351.53,-233.59"/>
</a>
</g>
</g>
<!-- Node13 -->
<g id="Node000013" class="node">
<title>Node13</title>
<g id="a_Node000013"><a xlink:href="$classFWeakSharedBuffer.html#a7995dfb70ed73810406e1cfcea61ce20" xlink:title=" ">
<polygon fill="white" stroke="#666666" points="119.5,-35.5 0,-35.5 0,-2 119.5,-2 119.5,-35.5"/>
<text xml:space="preserve" text-anchor="start" x="8" y="-22" font-family="Helvetica,sans-Serif" font-size="10.00">FWeakSharedBuffer::</text>
<text xml:space="preserve" text-anchor="middle" x="59.75" y="-9.25" font-family="Helvetica,sans-Serif" font-size="10.00">operator==</text>
</a>
</g>
</g>
<!-- Node1&#45;&gt;Node13 -->
<g id="edge12_Node000001_Node000013" class="edge">
<title>Node1&#45;&gt;Node13</title>
<g id="a_edge12_Node000001_Node000013"><a xlink:title=" ">
<path fill="none" stroke="#63b8ff" d="M361.78,-230.87C349.42,-192.64 322.05,-124.3 275,-85.75 262.7,-75.67 178.96,-51.2 119.9,-34.79"/>
<polygon fill="#63b8ff" stroke="#63b8ff" points="358.38,-231.74 364.68,-240.26 365.07,-229.67 358.38,-231.74"/>
</a>
</g>
</g>
<!-- Node14 -->
<g id="Node000014" class="node">
<title>Node14</title>
<g id="a_Node000014"><a xlink:href="$classFWeakSharedBuffer.html#ae18781b83727d423362da89196da96a9" xlink:title=" ">
<polygon fill="white" stroke="#666666" points="275,-275.5 155.5,-275.5 155.5,-242 275,-242 275,-275.5"/>
<text xml:space="preserve" text-anchor="start" x="163.5" y="-262" font-family="Helvetica,sans-Serif" font-size="10.00">FWeakSharedBuffer::</text>
<text xml:space="preserve" text-anchor="middle" x="215.25" y="-249.25" font-family="Helvetica,sans-Serif" font-size="10.00">ToPrivateOwnerPtr</text>
</a>
</g>
</g>
<!-- Node1&#45;&gt;Node14 -->
<g id="edge13_Node000001_Node000014" class="edge">
<title>Node1&#45;&gt;Node14</title>
<g id="a_edge13_Node000001_Node000014"><a xlink:title=" ">
<path fill="none" stroke="#63b8ff" d="M299.49,-258.75C291.39,-258.75 283.19,-258.75 275.25,-258.75"/>
<polygon fill="#63b8ff" stroke="#63b8ff" points="299.33,-262.25 309.33,-258.75 299.33,-255.25 299.33,-262.25"/>
</a>
</g>
</g>
<!-- Node14&#45;&gt;Node2 -->
<g id="edge14_Node000014_Node000002" class="edge">
<title>Node14&#45;&gt;Node2</title>
<g id="a_edge14_Node000014_Node000002"><a xlink:title=" ">
<path fill="none" stroke="#63b8ff" d="M210.92,-287.14C203.48,-338.46 181.05,-447.42 119.5,-512.75 116.36,-516.08 112.73,-519.01 108.83,-521.58"/>
<polygon fill="#63b8ff" stroke="#63b8ff" points="214.35,-287.84 212.22,-277.46 207.42,-286.9 214.35,-287.84"/>
</a>
</g>
</g>
<!-- Node14&#45;&gt;Node3 -->
<g id="edge15_Node000014_Node000003" class="edge">
<title>Node14&#45;&gt;Node3</title>
<g id="a_edge15_Node000014_Node000003"><a xlink:title=" ">
<path fill="none" stroke="#63b8ff" d="M207.86,-286.7C196.76,-329.42 170.12,-411.23 119.5,-460.75 116.07,-464.1 112.14,-467.06 107.96,-469.67"/>
<polygon fill="#63b8ff" stroke="#63b8ff" points="211.2,-287.76 210.22,-277.21 204.41,-286.07 211.2,-287.76"/>
</a>
</g>
</g>
<!-- Node14&#45;&gt;Node4 -->
<g id="edge16_Node000014_Node000004" class="edge">
<title>Node14&#45;&gt;Node4</title>
<g id="a_edge16_Node000014_Node000004"><a xlink:title=" ">
<path fill="none" stroke="#63b8ff" d="M202.96,-286.17C188.15,-319.16 159.3,-374.4 119.5,-408.75 115.7,-412.03 111.42,-414.96 106.95,-417.56"/>
<polygon fill="#63b8ff" stroke="#63b8ff" points="206.05,-287.85 206.83,-277.28 199.63,-285.05 206.05,-287.85"/>
</a>
</g>
</g>
<!-- Node14&#45;&gt;Node5 -->
<g id="edge17_Node000014_Node000005" class="edge">
<title>Node14&#45;&gt;Node5</title>
<g id="a_edge17_Node000014_Node000005"><a xlink:title=" ">
<path fill="none" stroke="#63b8ff" d="M193.88,-284.86C176.07,-306.35 148.57,-336.45 119.5,-356.75 114.93,-359.94 109.9,-362.88 104.77,-365.54"/>
<polygon fill="#63b8ff" stroke="#63b8ff" points="196.58,-287.1 200.17,-277.13 191.14,-282.68 196.58,-287.1"/>
</a>
</g>
</g>
<!-- Node14&#45;&gt;Node6 -->
<g id="edge18_Node000014_Node000006" class="edge">
<title>Node14&#45;&gt;Node6</title>
<g id="a_edge18_Node000014_Node000006"><a xlink:title=" ">
<path fill="none" stroke="#63b8ff" d="M169.7,-280.78C153.91,-288.48 135.97,-297.11 119.5,-304.75 113.23,-307.66 106.55,-310.69 100.02,-313.6"/>
<polygon fill="#63b8ff" stroke="#63b8ff" points="170.93,-284.07 178.38,-276.53 167.86,-277.78 170.93,-284.07"/>
</a>
</g>
</g>
<!-- Node14&#45;&gt;Node7 -->
<g id="edge19_Node000014_Node000007" class="edge">
<title>Node14&#45;&gt;Node7</title>
<g id="a_edge19_Node000014_Node000007"><a xlink:title=" ">
<path fill="none" stroke="#63b8ff" d="M143.99,-267.9C135.89,-268.96 127.69,-270.03 119.75,-271.06"/>
<polygon fill="#63b8ff" stroke="#63b8ff" points="144.38,-271.38 153.84,-266.62 143.47,-264.44 144.38,-271.38"/>
</a>
</g>
</g>
<!-- Node14&#45;&gt;Node9 -->
<g id="edge20_Node000014_Node000009" class="edge">
<title>Node14&#45;&gt;Node9</title>
<g id="a_edge20_Node000014_Node000009"><a xlink:title=" ">
<path fill="none" stroke="#63b8ff" d="M144.27,-244.16C136.07,-242.45 127.78,-240.72 119.75,-239.05"/>
<polygon fill="#63b8ff" stroke="#63b8ff" points="143.36,-247.55 153.86,-246.16 144.78,-240.69 143.36,-247.55"/>
</a>
</g>
</g>
<!-- Node14&#45;&gt;Node10 -->
<g id="edge21_Node000014_Node000010" class="edge">
<title>Node14&#45;&gt;Node10</title>
<g id="a_edge21_Node000014_Node000010"><a xlink:title=" ">
<path fill="none" stroke="#63b8ff" d="M178.96,-235.61C161.41,-224.5 139.68,-211.33 119.5,-200.75 113.77,-197.75 107.62,-194.77 101.54,-191.96"/>
<polygon fill="#63b8ff" stroke="#63b8ff" points="176.66,-238.29 186.97,-240.73 180.43,-232.39 176.66,-238.29"/>
</a>
</g>
</g>
<!-- Node14&#45;&gt;Node11 -->
<g id="edge22_Node000014_Node000011" class="edge">
<title>Node14&#45;&gt;Node11</title>
<g id="a_edge22_Node000014_Node000011"><a xlink:title=" ">
<path fill="none" stroke="#63b8ff" d="M196.78,-232.44C179.52,-208.1 151.17,-172.24 119.5,-148.75 115.11,-145.49 110.25,-142.53 105.26,-139.87"/>
<polygon fill="#63b8ff" stroke="#63b8ff" points="193.82,-234.32 202.39,-240.54 199.57,-230.33 193.82,-234.32"/>
</a>
</g>
</g>
<!-- Node14&#45;&gt;Node12 -->
<g id="edge23_Node000014_Node000012" class="edge">
<title>Node14&#45;&gt;Node12</title>
<g id="a_edge23_Node000014_Node000012"><a xlink:title=" ">
<path fill="none" stroke="#63b8ff" d="M204.36,-231.25C190.41,-195.89 161.82,-134.55 119.5,-96.75 115.84,-93.48 111.7,-90.57 107.36,-87.98"/>
<polygon fill="#63b8ff" stroke="#63b8ff" points="201,-232.25 207.84,-240.34 207.54,-229.75 201,-232.25"/>
</a>
</g>
</g>
<!-- Node14&#45;&gt;Node13 -->
<g id="edge24_Node000014_Node000013" class="edge">
<title>Node14&#45;&gt;Node13</title>
<g id="a_edge24_Node000014_Node000013"><a xlink:title=" ">
<path fill="none" stroke="#63b8ff" d="M208.62,-230.45C198.35,-185.59 172.54,-97.78 119.5,-44.75 116.19,-41.44 112.38,-38.51 108.33,-35.94"/>
<polygon fill="#63b8ff" stroke="#63b8ff" points="205.19,-231.15 210.75,-240.17 212.03,-229.66 205.19,-231.15"/>
</a>
</g>
</g>
</g>
</svg>
