<?xml version="1.0" encoding="UTF-8" standalone="no"?>
<!DOCTYPE svg PUBLIC "-//W3C//DTD SVG 1.1//EN"
 "http://www.w3.org/Graphics/SVG/1.1/DTD/svg11.dtd">
<!-- Generated by graphviz version 14.1.4 (0)
 -->
<!-- Title: FAAArrayQueue::dequeueInternal Pages: 1 -->
<svg width="354pt" height="94pt"
 viewBox="0.00 0.00 354.00 94.00" xmlns="http://www.w3.org/2000/svg" xmlns:xlink="http://www.w3.org/1999/xlink">
<g id="graph0" class="graph" transform="scale(1 1) rotate(0) translate(4 89.5)">
<title>FAAArrayQueue::dequeueInternal</title>
<!-- Node1 -->
<g id="Node000001" class="node">
<title>Node1</title>
<g id="a_Node000001"><a xlink:title=" ">
<polygon fill="#999999" stroke="#666666" points="345.5,-53.12 167.5,-53.12 167.5,-32.38 345.5,-32.38 345.5,-53.12"/>
<text xml:space="preserve" text-anchor="middle" x="256.5" y="-39.62" font-family="Helvetica,sans-Serif" font-size="10.00">FAAArrayQueue::dequeueInternal</text>
</a>
</g>
</g>
<!-- Node2 -->
<g id="Node000002" class="node">
<title>Node2</title>
<g id="a_Node000002"><a xlink:href="$classFAAArrayQueue.html#a5af95cc1274438089906d4492b2c3ddc" xlink:title=" ">
<polygon fill="white" stroke="#666666" points="131.5,-85.5 0,-85.5 0,-52 131.5,-52 131.5,-85.5"/>
<text xml:space="preserve" text-anchor="start" x="8" y="-72" font-family="Helvetica,sans-Serif" font-size="10.00">FAAArrayQueue&lt; FTask</text>
<text xml:space="preserve" text-anchor="middle" x="65.75" y="-59.25" font-family="Helvetica,sans-Serif" font-size="10.00"> &gt;::dequeue</text>
</a>
</g>
</g>
<!-- Node1&#45;&gt;Node2 -->
<g id="edge1_Node000001_Node000002" class="edge">
<title>Node1&#45;&gt;Node2</title>
<g id="a_edge1_Node000001_Node000002"><a xlink:title=" ">
<path fill="none" stroke="#63b8ff" d="M165.51,-55.15C154.16,-56.71 142.71,-58.29 131.85,-59.78"/>
<polygon fill="#63b8ff" stroke="#63b8ff" points="165.89,-58.63 175.32,-53.79 164.94,-51.69 165.89,-58.63"/>
</a>
</g>
</g>
<!-- Node3 -->
<g id="Node000003" class="node">
<title>Node3</title>
<g id="a_Node000003"><a xlink:href="$classFAAArrayQueue.html#aa2c73cb806015d5ea27f363982731c5c" xlink:title=" ">
<polygon fill="white" stroke="#666666" points="131.5,-33.5 0,-33.5 0,0 131.5,0 131.5,-33.5"/>
<text xml:space="preserve" text-anchor="start" x="8" y="-20" font-family="Helvetica,sans-Serif" font-size="10.00">FAAArrayQueue&lt; FTask</text>
<text xml:space="preserve" text-anchor="middle" x="65.75" y="-7.25" font-family="Helvetica,sans-Serif" font-size="10.00"> &gt;::dequeue</text>
</a>
</g>
</g>
<!-- Node1&#45;&gt;Node3 -->
<g id="edge2_Node000001_Node000003" class="edge">
<title>Node1&#45;&gt;Node3</title>
<g id="a_edge2_Node000001_Node000003"><a xlink:title=" ">
<path fill="none" stroke="#63b8ff" d="M165.51,-30.35C154.16,-28.79 142.71,-27.21 131.85,-25.72"/>
<polygon fill="#63b8ff" stroke="#63b8ff" points="164.94,-33.81 175.32,-31.71 165.89,-26.87 164.94,-33.81"/>
</a>
</g>
</g>
</g>
</svg>
