<?xml version="1.0" encoding="UTF-8" standalone="no"?>
<!DOCTYPE svg PUBLIC "-//W3C//DTD SVG 1.1//EN"
 "http://www.w3.org/Graphics/SVG/1.1/DTD/svg11.dtd">
<!-- Generated by graphviz version 14.1.4 (0)
 -->
<!-- Title: FName::FastLess Pages: 1 -->
<svg width="433pt" height="86pt"
 viewBox="0.00 0.00 433.00 86.00" xmlns="http://www.w3.org/2000/svg" xmlns:xlink="http://www.w3.org/1999/xlink">
<g id="graph0" class="graph" transform="scale(1 1) rotate(0) translate(4 81.75)">
<title>FName::FastLess</title>
<!-- Node1 -->
<g id="Node000001" class="node">
<title>Node1</title>
<g id="a_Node000001"><a xlink:title=" ">
<polygon fill="#999999" stroke="#666666" points="99.25,-40.75 0,-40.75 0,-20 99.25,-20 99.25,-40.75"/>
<text xml:space="preserve" text-anchor="middle" x="49.62" y="-27.25" font-family="Helvetica,sans-Serif" font-size="10.00">FName::FastLess</text>
</a>
</g>
</g>
<!-- Node2 -->
<g id="Node000002" class="node">
<title>Node2</title>
<g id="a_Node000002"><a xlink:href="$classFName.html#af447ef7b6deae03f54de60a4043a3f4d" xlink:title=" ">
<polygon fill="white" stroke="#666666" points="275,-21.75 135.25,-21.75 135.25,-1 275,-1 275,-21.75"/>
<text xml:space="preserve" text-anchor="middle" x="205.12" y="-8.25" font-family="Helvetica,sans-Serif" font-size="10.00">FName::CompareIndexes</text>
</a>
</g>
</g>
<!-- Node1&#45;&gt;Node2 -->
<g id="edge1_Node000001_Node000002" class="edge">
<title>Node1&#45;&gt;Node2</title>
<g id="a_edge1_Node000001_Node000002"><a xlink:title=" ">
<path fill="none" stroke="#63b8ff" d="M99.62,-24.31C107.34,-23.36 115.49,-22.35 123.7,-21.33"/>
<polygon fill="#63b8ff" stroke="#63b8ff" points="123.9,-24.83 133.39,-20.13 123.04,-17.88 123.9,-24.83"/>
</a>
</g>
</g>
<!-- Node3 -->
<g id="Node000003" class="node">
<title>Node3</title>
<g id="a_Node000003"><a xlink:href="$classFName.html#a037b53332932ed33f7edfaf6138f954b" xlink:title=" ">
<polygon fill="white" stroke="#666666" points="414,-59.75 321.5,-59.75 321.5,-39 414,-39 414,-59.75"/>
<text xml:space="preserve" text-anchor="middle" x="367.75" y="-46.25" font-family="Helvetica,sans-Serif" font-size="10.00">FName::FName</text>
</a>
</g>
</g>
<!-- Node1&#45;&gt;Node3 -->
<g id="edge5_Node000001_Node000003" class="edge">
<title>Node1&#45;&gt;Node3</title>
<g id="a_edge5_Node000001_Node000003"><a xlink:title=" ">
<path fill="none" stroke="#63b8ff" d="M99.67,-33.32C156.53,-36.74 250.09,-42.36 310.03,-45.97"/>
<polygon fill="#63b8ff" stroke="#63b8ff" points="309.48,-49.44 319.67,-46.55 309.9,-42.45 309.48,-49.44"/>
</a>
</g>
</g>
<!-- Node2&#45;&gt;Node3 -->
<g id="edge2_Node000002_Node000003" class="edge">
<title>Node2&#45;&gt;Node3</title>
<g id="a_edge2_Node000002_Node000003"><a xlink:title=" ">
<path fill="none" stroke="#63b8ff" d="M251.72,-22.16C269.87,-26.45 290.94,-31.44 310.05,-35.96"/>
<polygon fill="#63b8ff" stroke="#63b8ff" points="309.03,-39.32 319.56,-38.21 310.64,-32.5 309.03,-39.32"/>
</a>
</g>
</g>
<!-- Node4 -->
<g id="Node000004" class="node">
<title>Node4</title>
<g id="a_Node000004"><a xlink:href="$classFName.html#a3208e2651f5d2758a3d020eba3332f7e" xlink:title=" ">
<polygon fill="white" stroke="#666666" points="424.5,-20.75 311,-20.75 311,0 424.5,0 424.5,-20.75"/>
<text xml:space="preserve" text-anchor="middle" x="367.75" y="-7.25" font-family="Helvetica,sans-Serif" font-size="10.00">FName::GetNumber</text>
</a>
</g>
</g>
<!-- Node2&#45;&gt;Node4 -->
<g id="edge4_Node000002_Node000004" class="edge">
<title>Node2&#45;&gt;Node4</title>
<g id="a_edge4_Node000002_Node000004"><a xlink:title=" ">
<path fill="none" stroke="#63b8ff" d="M275.18,-10.95C283.27,-10.89 291.51,-10.84 299.58,-10.79"/>
<polygon fill="#63b8ff" stroke="#63b8ff" points="299.33,-14.29 309.31,-10.73 299.29,-7.3 299.33,-14.29"/>
</a>
</g>
</g>
<!-- Node3&#45;&gt;Node3 -->
<g id="edge3_Node000003_Node000003" class="edge">
<title>Node3&#45;&gt;Node3</title>
<g id="a_edge3_Node000003_Node000003"><a xlink:title=" ">
<path fill="none" stroke="#63b8ff" d="M341.55,-60.15C331.06,-68.81 339.8,-77.75 367.75,-77.75 383.04,-77.75 392.57,-75.08 396.37,-71.24"/>
<polygon fill="#63b8ff" stroke="#63b8ff" points="399.82,-70.65 394.28,-61.63 392.98,-72.14 399.82,-70.65"/>
</a>
</g>
</g>
</g>
</svg>
