<?xml version="1.0" encoding="UTF-8" standalone="no"?>
<!DOCTYPE svg PUBLIC "-//W3C//DTD SVG 1.1//EN"
 "http://www.w3.org/Graphics/SVG/1.1/DTD/svg11.dtd">
<!-- Generated by graphviz version 14.1.4 (0)
 -->
<!-- Title: FPThreadEvent::LockEventMutex Pages: 1 -->
<svg width="505pt" height="93pt"
 viewBox="0.00 0.00 505.00 93.00" xmlns="http://www.w3.org/2000/svg" xmlns:xlink="http://www.w3.org/1999/xlink">
<g id="graph0" class="graph" transform="scale(1 1) rotate(0) translate(4 89.12)">
<title>FPThreadEvent::LockEventMutex</title>
<!-- Node1 -->
<g id="Node000001" class="node">
<title>Node1</title>
<g id="a_Node000001"><a xlink:title=" ">
<polygon fill="#999999" stroke="#666666" points="496.5,-52.5 350.75,-52.5 350.75,-19 496.5,-19 496.5,-52.5"/>
<text xml:space="preserve" text-anchor="start" x="358.75" y="-39" font-family="Helvetica,sans-Serif" font-size="10.00">FPThreadEvent::LockEvent</text>
<text xml:space="preserve" text-anchor="middle" x="423.62" y="-26.25" font-family="Helvetica,sans-Serif" font-size="10.00">Mutex</text>
</a>
</g>
</g>
<!-- Node2 -->
<g id="Node000002" class="node">
<title>Node2</title>
<g id="a_Node000002"><a xlink:href="$classFPThreadEvent.html#ac8035e6ef802eaf2dca35f60ab850617" xlink:title=" ">
<polygon fill="white" stroke="#666666" points="311.75,-85.12 188.5,-85.12 188.5,-64.38 311.75,-64.38 311.75,-85.12"/>
<text xml:space="preserve" text-anchor="middle" x="250.12" y="-71.62" font-family="Helvetica,sans-Serif" font-size="10.00">FPThreadEvent::Reset</text>
</a>
</g>
</g>
<!-- Node1&#45;&gt;Node2 -->
<g id="edge1_Node000001_Node000002" class="edge">
<title>Node1&#45;&gt;Node2</title>
<g id="a_edge1_Node000001_Node000002"><a xlink:title=" ">
<path fill="none" stroke="#63b8ff" d="M339.31,-54.7C325.44,-57.85 311.48,-61.03 298.89,-63.89"/>
<polygon fill="#63b8ff" stroke="#63b8ff" points="339.94,-58.14 348.91,-52.51 338.39,-51.32 339.94,-58.14"/>
</a>
</g>
</g>
<!-- Node3 -->
<g id="Node000003" class="node">
<title>Node3</title>
<g id="a_Node000003"><a xlink:href="$classFPThreadEvent.html#ae9c8d2ed432fba6c1c2e224947b6a5c1" xlink:title=" ">
<polygon fill="white" stroke="#666666" points="314.75,-46.12 185.5,-46.12 185.5,-25.38 314.75,-25.38 314.75,-46.12"/>
<text xml:space="preserve" text-anchor="middle" x="250.12" y="-32.62" font-family="Helvetica,sans-Serif" font-size="10.00">FPThreadEvent::Trigger</text>
</a>
</g>
</g>
<!-- Node1&#45;&gt;Node3 -->
<g id="edge2_Node000001_Node000003" class="edge">
<title>Node1&#45;&gt;Node3</title>
<g id="a_edge2_Node000001_Node000003"><a xlink:title=" ">
<path fill="none" stroke="#63b8ff" d="M339.05,-35.75C331,-35.75 322.93,-35.75 315.11,-35.75"/>
<polygon fill="#63b8ff" stroke="#63b8ff" points="338.88,-39.25 348.88,-35.75 338.88,-32.25 338.88,-39.25"/>
</a>
</g>
</g>
<!-- Node4 -->
<g id="Node000004" class="node">
<title>Node4</title>
<g id="a_Node000004"><a xlink:href="$classFPThreadEvent.html#ab559400b56ef2e46cbf3d497e9c8c3c9" xlink:title=" ">
<polygon fill="white" stroke="#666666" points="149.5,-33.5 0,-33.5 0,0 149.5,0 149.5,-33.5"/>
<text xml:space="preserve" text-anchor="start" x="8" y="-20" font-family="Helvetica,sans-Serif" font-size="10.00">FPThreadEvent::~FPThread</text>
<text xml:space="preserve" text-anchor="middle" x="74.75" y="-7.25" font-family="Helvetica,sans-Serif" font-size="10.00">Event</text>
</a>
</g>
</g>
<!-- Node1&#45;&gt;Node4 -->
<g id="edge4_Node000001_Node000004" class="edge">
<title>Node1&#45;&gt;Node4</title>
<g id="a_edge4_Node000001_Node000004"><a xlink:title=" ">
<path fill="none" stroke="#63b8ff" d="M339.15,-19.57C330.93,-18.42 322.69,-17.44 314.75,-16.75 259.67,-11.94 197.18,-12.13 149.91,-13.43"/>
<polygon fill="#63b8ff" stroke="#63b8ff" points="338.42,-23 348.82,-21.01 339.45,-16.07 338.42,-23"/>
</a>
</g>
</g>
<!-- Node3&#45;&gt;Node4 -->
<g id="edge3_Node000003_Node000004" class="edge">
<title>Node3&#45;&gt;Node4</title>
<g id="a_edge3_Node000003_Node000004"><a xlink:title=" ">
<path fill="none" stroke="#63b8ff" d="M173.88,-27.5C165.89,-26.63 157.77,-25.74 149.8,-24.87"/>
<polygon fill="#63b8ff" stroke="#63b8ff" points="173.23,-30.95 183.55,-28.56 174,-24 173.23,-30.95"/>
</a>
</g>
</g>
</g>
</svg>
