<?xml version="1.0" encoding="UTF-8" standalone="no"?>
<!DOCTYPE svg PUBLIC "-//W3C//DTD SVG 1.1//EN"
 "http://www.w3.org/Graphics/SVG/1.1/DTD/svg11.dtd">
<!-- Generated by graphviz version 14.1.4 (0)
 -->
<!-- Title: FCbWriter::AddFloat Pages: 1 -->
<svg width="430pt" height="47pt"
 viewBox="0.00 0.00 430.00 47.00" xmlns="http://www.w3.org/2000/svg" xmlns:xlink="http://www.w3.org/1999/xlink">
<g id="graph0" class="graph" transform="scale(1 1) rotate(0) translate(4 42.75)">
<title>FCbWriter::AddFloat</title>
<!-- Node1 -->
<g id="Node000001" class="node">
<title>Node1</title>
<g id="a_Node000001"><a xlink:title=" ">
<polygon fill="#999999" stroke="#666666" points="114.25,-20.75 0,-20.75 0,0 114.25,0 114.25,-20.75"/>
<text xml:space="preserve" text-anchor="middle" x="57.12" y="-7.25" font-family="Helvetica,sans-Serif" font-size="10.00">FCbWriter::AddFloat</text>
</a>
</g>
</g>
<!-- Node1&#45;&gt;Node1 -->
<g id="edge1_Node000001_Node000001" class="edge">
<title>Node1&#45;&gt;Node1</title>
<g id="a_edge1_Node000001_Node000001"><a xlink:title=" ">
<path fill="none" stroke="#63b8ff" d="M32.79,-21.15C23.06,-29.81 31.17,-38.75 57.12,-38.75 71.32,-38.75 80.17,-36.08 83.7,-32.24"/>
<polygon fill="#63b8ff" stroke="#63b8ff" points="87.17,-31.74 81.76,-22.63 80.3,-33.13 87.17,-31.74"/>
</a>
</g>
</g>
<!-- Node2 -->
<g id="Node000002" class="node">
<title>Node2</title>
<g id="a_Node000002"><a xlink:href="$classFCbWriter.html#ad3a504d3fc21af4cdc6fd3a842ccea14" xlink:title=" ">
<polygon fill="white" stroke="#666666" points="266,-20.75 150.25,-20.75 150.25,0 266,0 266,-20.75"/>
<text xml:space="preserve" text-anchor="middle" x="208.12" y="-7.25" font-family="Helvetica,sans-Serif" font-size="10.00">FCbWriter::SetName</text>
</a>
</g>
</g>
<!-- Node1&#45;&gt;Node2 -->
<g id="edge2_Node000001_Node000002" class="edge">
<title>Node1&#45;&gt;Node2</title>
<g id="a_edge2_Node000001_Node000002"><a xlink:title=" ">
<path fill="none" stroke="#63b8ff" d="M114.46,-10.38C122.41,-10.38 130.66,-10.38 138.81,-10.38"/>
<polygon fill="#63b8ff" stroke="#63b8ff" points="138.71,-13.88 148.71,-10.38 138.71,-6.88 138.71,-13.88"/>
</a>
</g>
</g>
<!-- Node3 -->
<g id="Node000003" class="node">
<title>Node3</title>
<g id="a_Node000003"><a xlink:href="$classFCbWriter.html#a7c09ba445af8c914c0f93fb548aa0030" xlink:title=" ">
<polygon fill="white" stroke="#666666" points="421.5,-20.75 302,-20.75 302,0 421.5,0 421.5,-20.75"/>
<text xml:space="preserve" text-anchor="middle" x="361.75" y="-7.25" font-family="Helvetica,sans-Serif" font-size="10.00">FCbWriter::FCbWriter</text>
</a>
</g>
</g>
<!-- Node2&#45;&gt;Node3 -->
<g id="edge3_Node000002_Node000003" class="edge">
<title>Node2&#45;&gt;Node3</title>
<g id="a_edge3_Node000002_Node000003"><a xlink:title=" ">
<path fill="none" stroke="#63b8ff" d="M266.45,-10.38C274.17,-10.38 282.16,-10.38 290.08,-10.38"/>
<polygon fill="#63b8ff" stroke="#63b8ff" points="290.07,-13.88 300.07,-10.38 290.07,-6.88 290.07,-13.88"/>
</a>
</g>
</g>
</g>
</svg>
