<?xml version="1.0" encoding="UTF-8" standalone="no"?>
<!DOCTYPE svg PUBLIC "-//W3C//DTD SVG 1.1//EN"
 "http://www.w3.org/Graphics/SVG/1.1/DTD/svg11.dtd">
<!-- Generated by graphviz version 14.1.4 (0)
 -->
<!-- Title: UE::Virtualization::Experimental::IVirtualizationSourceControlUtilities Pages: 1 -->
<svg width="162pt" height="178pt"
 viewBox="0.00 0.00 162.00 178.00" xmlns="http://www.w3.org/2000/svg" xmlns:xlink="http://www.w3.org/1999/xlink">
<g id="graph0" class="graph" transform="scale(1 1) rotate(0) translate(4 174)">
<title>UE::Virtualization::Experimental::IVirtualizationSourceControlUtilities</title>
<!-- Node1 -->
<g id="Node000001" class="node">
<title>Node1</title>
<g id="a_Node000001"><a xlink:title=" ">
<polygon fill="#999999" stroke="none" points="153.5,-79.75 0,-79.75 0,0 153.5,0 153.5,-79.75"/>
<text xml:space="preserve" text-anchor="start" x="4" y="-66" font-family="Helvetica,sans-Serif" font-size="10.00">UE::Virtualization</text>
<text xml:space="preserve" text-anchor="start" x="4" y="-53.25" font-family="Helvetica,sans-Serif" font-size="10.00">::Experimental::IVirtualization</text>
<text xml:space="preserve" text-anchor="start" x="23.5" y="-40.5" font-family="Helvetica,sans-Serif" font-size="10.00">SourceControlUtilities</text>
<text xml:space="preserve" text-anchor="start" x="73.75" y="-23.75" font-family="Helvetica,sans-Serif" font-size="10.00"> </text>
<text xml:space="preserve" text-anchor="start" x="6.75" y="-7" font-family="Helvetica,sans-Serif" font-size="10.00">+</text>
<text xml:space="preserve" text-anchor="start" x="21.75" y="-7" font-family="Helvetica,sans-Serif" font-size="10.00">SyncPayloadSidecarFile()</text>
<polygon fill="#666666" stroke="#666666" points="0,-35.5 0,-35.5 153.5,-35.5 153.5,-35.5 0,-35.5"/>
<polygon fill="#666666" stroke="#666666" points="0,-18.75 0,-18.75 153.5,-18.75 153.5,-18.75 0,-18.75"/>
<polygon fill="none" stroke="#666666" points="0,0 0,-79.75 153.5,-79.75 153.5,0 0,0"/>
</a>
</g>
</g>
<!-- Node2 -->
<g id="Node000002" class="node">
<title>Node2</title>
<g id="a_Node000002"><a xlink:href="$classIModularFeature.html" xlink:title=" ">
<polygon fill="white" stroke="none" points="120.5,-170 33,-170 33,-115.75 120.5,-115.75 120.5,-170"/>
<text xml:space="preserve" text-anchor="start" x="37" y="-156.25" font-family="Helvetica,sans-Serif" font-size="10.00">IModularFeature</text>
<text xml:space="preserve" text-anchor="start" x="73.75" y="-139.5" font-family="Helvetica,sans-Serif" font-size="10.00"> </text>
<text xml:space="preserve" text-anchor="start" x="73.75" y="-122.75" font-family="Helvetica,sans-Serif" font-size="10.00"> </text>
<polygon fill="#666666" stroke="#666666" points="33,-151.25 33,-151.25 120.5,-151.25 120.5,-151.25 33,-151.25"/>
<polygon fill="#666666" stroke="#666666" points="33,-134.5 33,-134.5 120.5,-134.5 120.5,-134.5 33,-134.5"/>
<polygon fill="none" stroke="#666666" points="33,-115.75 33,-170 120.5,-170 120.5,-115.75 33,-115.75"/>
</a>
</g>
</g>
<!-- Node2&#45;&gt;Node1 -->
<g id="edge1_Node000001_Node000002" class="edge">
<title>Node2&#45;&gt;Node1</title>
<g id="a_edge1_Node000001_Node000002"><a xlink:title=" ">
<path fill="none" stroke="#63b8ff" d="M76.75,-104.37C76.75,-96.21 76.75,-87.57 76.75,-79.37"/>
<polygon fill="none" stroke="#63b8ff" points="73.25,-104.35 76.75,-114.35 80.25,-104.35 73.25,-104.35"/>
</a>
</g>
</g>
</g>
</svg>
