<?xml version="1.0" encoding="UTF-8" standalone="no"?>
<!DOCTYPE svg PUBLIC "-//W3C//DTD SVG 1.1//EN"
 "http://www.w3.org/Graphics/SVG/1.1/DTD/svg11.dtd">
<!-- Generated by graphviz version 14.1.4 (0)
 -->
<!-- Title: TUTF32ToUTF16_Convert::Convert_Impl Pages: 1 -->
<svg width="705pt" height="185pt"
 viewBox="0.00 0.00 705.00 185.00" xmlns="http://www.w3.org/2000/svg" xmlns:xlink="http://www.w3.org/1999/xlink">
<g id="graph0" class="graph" transform="scale(1 1) rotate(0) translate(4 180.75)">
<title>TUTF32ToUTF16_Convert::Convert_Impl</title>
<!-- Node1 -->
<g id="Node000001" class="node">
<title>Node1</title>
<g id="a_Node000001"><a xlink:title=" ">
<polygon fill="#999999" stroke="#666666" points="139,-105.12 0,-105.12 0,-71.62 139,-71.62 139,-105.12"/>
<text xml:space="preserve" text-anchor="start" x="8" y="-91.62" font-family="Helvetica,sans-Serif" font-size="10.00">TUTF32ToUTF16_Convert</text>
<text xml:space="preserve" text-anchor="middle" x="69.5" y="-78.88" font-family="Helvetica,sans-Serif" font-size="10.00">::Convert_Impl</text>
</a>
</g>
</g>
<!-- Node2 -->
<g id="Node000002" class="node">
<title>Node2</title>
<g id="a_Node000002"><a xlink:href="$classTUTF32ToUTF16__Convert.html#ab02d0ebde86f2de52bde60145ce2f40e" xlink:title=" ">
<polygon fill="white" stroke="#666666" points="314,-105.12 175,-105.12 175,-71.62 314,-71.62 314,-105.12"/>
<text xml:space="preserve" text-anchor="start" x="183" y="-91.62" font-family="Helvetica,sans-Serif" font-size="10.00">TUTF32ToUTF16_Convert</text>
<text xml:space="preserve" text-anchor="middle" x="244.5" y="-78.88" font-family="Helvetica,sans-Serif" font-size="10.00">::WriteCodepointToBuffer</text>
</a>
</g>
</g>
<!-- Node1&#45;&gt;Node2 -->
<g id="edge1_Node000001_Node000002" class="edge">
<title>Node1&#45;&gt;Node2</title>
<g id="a_edge1_Node000001_Node000002"><a xlink:title=" ">
<path fill="none" stroke="#63b8ff" d="M139.37,-88.38C147.25,-88.38 155.33,-88.38 163.34,-88.38"/>
<polygon fill="#63b8ff" stroke="#63b8ff" points="163.07,-91.88 173.07,-88.38 163.07,-84.88 163.07,-91.88"/>
</a>
</g>
</g>
<!-- Node3 -->
<g id="Node000003" class="node">
<title>Node3</title>
<g id="a_Node000003"><a xlink:href="$classTUTF32ToUTF16__Convert.html#a71eece60222499e39c338b857313c95e" xlink:title=" ">
<polygon fill="white" stroke="#666666" points="489,-105.12 350,-105.12 350,-71.62 489,-71.62 489,-105.12"/>
<text xml:space="preserve" text-anchor="start" x="358" y="-91.62" font-family="Helvetica,sans-Serif" font-size="10.00">TUTF32ToUTF16_Convert</text>
<text xml:space="preserve" text-anchor="middle" x="419.5" y="-78.88" font-family="Helvetica,sans-Serif" font-size="10.00">::Utf16FromCodepoint</text>
</a>
</g>
</g>
<!-- Node2&#45;&gt;Node3 -->
<g id="edge2_Node000002_Node000003" class="edge">
<title>Node2&#45;&gt;Node3</title>
<g id="a_edge2_Node000002_Node000003"><a xlink:title=" ">
<path fill="none" stroke="#63b8ff" d="M314.37,-88.38C322.25,-88.38 330.33,-88.38 338.34,-88.38"/>
<polygon fill="#63b8ff" stroke="#63b8ff" points="338.07,-91.88 348.07,-88.38 338.07,-84.88 338.07,-91.88"/>
</a>
</g>
</g>
<!-- Node4 -->
<g id="Node000004" class="node">
<title>Node4</title>
<g id="a_Node000004"><a xlink:href="$namespaceStringConv.html#af8259d4c76fae8480c2c4401e57e4274" xlink:title=" ">
<polygon fill="white" stroke="#666666" points="690.62,-176.75 531.38,-176.75 531.38,-156 690.62,-156 690.62,-176.75"/>
<text xml:space="preserve" text-anchor="middle" x="611" y="-163.25" font-family="Helvetica,sans-Serif" font-size="10.00">StringConv::DecodeSurrogate</text>
</a>
</g>
</g>
<!-- Node3&#45;&gt;Node4 -->
<g id="edge3_Node000003_Node000004" class="edge">
<title>Node3&#45;&gt;Node4</title>
<g id="a_edge3_Node000003_Node000004"><a xlink:title=" ">
<path fill="none" stroke="#63b8ff" d="M446.57,-105.51C467.14,-118.36 496.94,-135.53 525,-146.38 530.74,-148.6 536.81,-150.62 542.94,-152.44"/>
<polygon fill="#63b8ff" stroke="#63b8ff" points="541.98,-155.81 552.55,-155.12 543.85,-149.06 541.98,-155.81"/>
</a>
</g>
</g>
<!-- Node5 -->
<g id="Node000005" class="node">
<title>Node5</title>
<g id="a_Node000005"><a xlink:href="$namespaceStringConv.html#a1bbaf2807ce51b9ea8a4218d8a494393" xlink:title=" ">
<polygon fill="white" stroke="#666666" points="697,-137.75 525,-137.75 525,-117 697,-117 697,-137.75"/>
<text xml:space="preserve" text-anchor="middle" x="611" y="-124.25" font-family="Helvetica,sans-Serif" font-size="10.00">StringConv::IsEncodedSurrogate</text>
</a>
</g>
</g>
<!-- Node3&#45;&gt;Node5 -->
<g id="edge4_Node000003_Node000005" class="edge">
<title>Node3&#45;&gt;Node5</title>
<g id="a_edge4_Node000003_Node000005"><a xlink:title=" ">
<path fill="none" stroke="#63b8ff" d="M489.45,-102.57C508.03,-106.39 528.04,-110.51 546.32,-114.27"/>
<polygon fill="#63b8ff" stroke="#63b8ff" points="545.46,-117.67 555.96,-116.25 546.87,-110.81 545.46,-117.67"/>
</a>
</g>
</g>
<!-- Node6 -->
<g id="Node000006" class="node">
<title>Node6</title>
<g id="a_Node000006"><a xlink:href="$namespaceStringConv.html#ae0ff4a46017b8bcfdaea24fd995c9034" xlink:title=" ">
<polygon fill="white" stroke="#666666" points="687.62,-98.75 534.38,-98.75 534.38,-78 687.62,-78 687.62,-98.75"/>
<text xml:space="preserve" text-anchor="middle" x="611" y="-85.25" font-family="Helvetica,sans-Serif" font-size="10.00">StringConv::IsHighSurrogate</text>
</a>
</g>
</g>
<!-- Node3&#45;&gt;Node6 -->
<g id="edge5_Node000003_Node000006" class="edge">
<title>Node3&#45;&gt;Node6</title>
<g id="a_edge5_Node000003_Node000006"><a xlink:title=" ">
<path fill="none" stroke="#63b8ff" d="M489.45,-88.38C500.21,-88.38 511.45,-88.38 522.56,-88.38"/>
<polygon fill="#63b8ff" stroke="#63b8ff" points="522.54,-91.88 532.54,-88.38 522.54,-84.88 522.54,-91.88"/>
</a>
</g>
</g>
<!-- Node7 -->
<g id="Node000007" class="node">
<title>Node7</title>
<g id="a_Node000007"><a xlink:href="$namespaceStringConv.html#a8b35bc5bb8d65ac88efdb1f22fb095c4" xlink:title=" ">
<polygon fill="white" stroke="#666666" points="686.12,-59.75 535.88,-59.75 535.88,-39 686.12,-39 686.12,-59.75"/>
<text xml:space="preserve" text-anchor="middle" x="611" y="-46.25" font-family="Helvetica,sans-Serif" font-size="10.00">StringConv::IsLowSurrogate</text>
</a>
</g>
</g>
<!-- Node3&#45;&gt;Node7 -->
<g id="edge6_Node000003_Node000007" class="edge">
<title>Node3&#45;&gt;Node7</title>
<g id="a_edge6_Node000003_Node000007"><a xlink:title=" ">
<path fill="none" stroke="#63b8ff" d="M489.45,-74.18C508.03,-70.36 528.04,-66.24 546.32,-62.48"/>
<polygon fill="#63b8ff" stroke="#63b8ff" points="546.87,-65.94 555.96,-60.5 545.46,-59.08 546.87,-65.94"/>
</a>
</g>
</g>
<!-- Node8 -->
<g id="Node000008" class="node">
<title>Node8</title>
<g id="a_Node000008"><a xlink:href="$namespaceStringConv.html#a6552e3eb89958e90df1734db6806cdbe" xlink:title=" ">
<polygon fill="white" stroke="#666666" points="689.88,-20.75 532.12,-20.75 532.12,0 689.88,0 689.88,-20.75"/>
<text xml:space="preserve" text-anchor="middle" x="611" y="-7.25" font-family="Helvetica,sans-Serif" font-size="10.00">StringConv::IsValidCodepoint</text>
</a>
</g>
</g>
<!-- Node3&#45;&gt;Node8 -->
<g id="edge7_Node000003_Node000008" class="edge">
<title>Node3&#45;&gt;Node8</title>
<g id="a_edge7_Node000003_Node000008"><a xlink:title=" ">
<path fill="none" stroke="#63b8ff" d="M446.57,-71.24C467.14,-58.39 496.94,-41.22 525,-30.38 530.74,-28.15 536.81,-26.13 542.94,-24.31"/>
<polygon fill="#63b8ff" stroke="#63b8ff" points="543.85,-27.69 552.55,-21.63 541.98,-20.94 543.85,-27.69"/>
</a>
</g>
</g>
</g>
</svg>
