<?xml version="1.0" encoding="UTF-8" standalone="no"?>
<!DOCTYPE svg PUBLIC "-//W3C//DTD SVG 1.1//EN"
 "http://www.w3.org/Graphics/SVG/1.1/DTD/svg11.dtd">
<!-- Generated by graphviz version 14.1.4 (0)
 -->
<!-- Title: FMallocPoisonProxy Pages: 1 -->
<svg width="262pt" height="645pt"
 viewBox="0.00 0.00 262.00 645.00" xmlns="http://www.w3.org/2000/svg" xmlns:xlink="http://www.w3.org/1999/xlink">
<g id="graph0" class="graph" transform="scale(1 1) rotate(0) translate(4 640.75)">
<title>FMallocPoisonProxy</title>
<!-- Node1 -->
<g id="Node000001" class="node">
<title>Node1</title>
<g id="a_Node000001"><a xlink:title=" ">
<polygon fill="#999999" stroke="none" points="207.75,-221.75 66.75,-221.75 66.75,0 207.75,0 207.75,-221.75"/>
<text xml:space="preserve" text-anchor="start" x="88.12" y="-208" font-family="Helvetica,sans-Serif" font-size="10.00">FMallocPoisonProxy</text>
<text xml:space="preserve" text-anchor="start" x="73" y="-191.25" font-family="Helvetica,sans-Serif" font-size="10.00">&#45;</text>
<text xml:space="preserve" text-anchor="start" x="83" y="-191.25" font-family="Helvetica,sans-Serif" font-size="10.00">UsedMalloc</text>
<text xml:space="preserve" text-anchor="start" x="70.75" y="-174.5" font-family="Helvetica,sans-Serif" font-size="10.00">+</text>
<text xml:space="preserve" text-anchor="start" x="83" y="-174.5" font-family="Helvetica,sans-Serif" font-size="10.00">FMallocPoisonProxy()</text>
<text xml:space="preserve" text-anchor="start" x="70.75" y="-157.75" font-family="Helvetica,sans-Serif" font-size="10.00">+</text>
<text xml:space="preserve" text-anchor="start" x="83" y="-157.75" font-family="Helvetica,sans-Serif" font-size="10.00">InitializeStatsMetadata()</text>
<text xml:space="preserve" text-anchor="start" x="70.75" y="-141" font-family="Helvetica,sans-Serif" font-size="10.00">+</text>
<text xml:space="preserve" text-anchor="start" x="83" y="-141" font-family="Helvetica,sans-Serif" font-size="10.00">Malloc()</text>
<text xml:space="preserve" text-anchor="start" x="70.75" y="-124.25" font-family="Helvetica,sans-Serif" font-size="10.00">+</text>
<text xml:space="preserve" text-anchor="start" x="83" y="-124.25" font-family="Helvetica,sans-Serif" font-size="10.00">Realloc()</text>
<text xml:space="preserve" text-anchor="start" x="70.75" y="-107.5" font-family="Helvetica,sans-Serif" font-size="10.00">+</text>
<text xml:space="preserve" text-anchor="start" x="83" y="-107.5" font-family="Helvetica,sans-Serif" font-size="10.00">Free()</text>
<text xml:space="preserve" text-anchor="start" x="70.75" y="-90.75" font-family="Helvetica,sans-Serif" font-size="10.00">+</text>
<text xml:space="preserve" text-anchor="start" x="83" y="-90.75" font-family="Helvetica,sans-Serif" font-size="10.00">QuantizeSize()</text>
<text xml:space="preserve" text-anchor="start" x="70.75" y="-74" font-family="Helvetica,sans-Serif" font-size="10.00">+</text>
<text xml:space="preserve" text-anchor="start" x="83" y="-74" font-family="Helvetica,sans-Serif" font-size="10.00">UpdateStats()</text>
<text xml:space="preserve" text-anchor="start" x="70.75" y="-57.25" font-family="Helvetica,sans-Serif" font-size="10.00">+</text>
<text xml:space="preserve" text-anchor="start" x="83" y="-57.25" font-family="Helvetica,sans-Serif" font-size="10.00">GetAllocatorStats()</text>
<text xml:space="preserve" text-anchor="start" x="70.75" y="-40.5" font-family="Helvetica,sans-Serif" font-size="10.00">+</text>
<text xml:space="preserve" text-anchor="start" x="83" y="-40.5" font-family="Helvetica,sans-Serif" font-size="10.00">DumpAllocatorStats()</text>
<text xml:space="preserve" text-anchor="start" x="70.75" y="-23.75" font-family="Helvetica,sans-Serif" font-size="10.00">+</text>
<text xml:space="preserve" text-anchor="start" x="83" y="-23.75" font-family="Helvetica,sans-Serif" font-size="10.00">IsInternallyThreadSafe()</text>
<text xml:space="preserve" text-anchor="start" x="83" y="-7" font-family="Helvetica,sans-Serif" font-size="10.00">and 11 more...</text>
<polygon fill="#666666" stroke="#666666" points="66.75,-203 66.75,-203 207.75,-203 207.75,-203 66.75,-203"/>
<polygon fill="#666666" stroke="#666666" points="66.75,-186.25 66.75,-186.25 81,-186.25 81,-186.25 66.75,-186.25"/>
<polygon fill="#666666" stroke="#666666" points="81,-186.25 81,-186.25 207.75,-186.25 207.75,-186.25 81,-186.25"/>
<polygon fill="none" stroke="#666666" points="66.75,0 66.75,-221.75 207.75,-221.75 207.75,0 66.75,0"/>
</a>
</g>
</g>
<!-- Node2 -->
<g id="Node000002" class="node">
<title>Node2</title>
<g id="a_Node000002"><a xlink:href="$classFMalloc.html" xlink:title=" ">
<polygon fill="white" stroke="none" points="194.25,-479.5 80.25,-479.5 80.25,-257.75 194.25,-257.75 194.25,-479.5"/>
<text xml:space="preserve" text-anchor="start" x="118.12" y="-465.75" font-family="Helvetica,sans-Serif" font-size="10.00">FMalloc</text>
<text xml:space="preserve" text-anchor="start" x="84.25" y="-449" font-family="Helvetica,sans-Serif" font-size="10.00">+</text>
<text xml:space="preserve" text-anchor="start" x="96.5" y="-449" font-family="Helvetica,sans-Serif" font-size="10.00">MaxSingleAlloc</text>
<text xml:space="preserve" text-anchor="start" x="84.25" y="-432.25" font-family="Helvetica,sans-Serif" font-size="10.00">+</text>
<text xml:space="preserve" text-anchor="start" x="96.5" y="-432.25" font-family="Helvetica,sans-Serif" font-size="10.00">Malloc()</text>
<text xml:space="preserve" text-anchor="start" x="84.25" y="-415.5" font-family="Helvetica,sans-Serif" font-size="10.00">+</text>
<text xml:space="preserve" text-anchor="start" x="96.5" y="-415.5" font-family="Helvetica,sans-Serif" font-size="10.00">TryMalloc()</text>
<text xml:space="preserve" text-anchor="start" x="84.25" y="-398.75" font-family="Helvetica,sans-Serif" font-size="10.00">+</text>
<text xml:space="preserve" text-anchor="start" x="96.5" y="-398.75" font-family="Helvetica,sans-Serif" font-size="10.00">Realloc()</text>
<text xml:space="preserve" text-anchor="start" x="84.25" y="-382" font-family="Helvetica,sans-Serif" font-size="10.00">+</text>
<text xml:space="preserve" text-anchor="start" x="96.5" y="-382" font-family="Helvetica,sans-Serif" font-size="10.00">TryRealloc()</text>
<text xml:space="preserve" text-anchor="start" x="84.25" y="-365.25" font-family="Helvetica,sans-Serif" font-size="10.00">+</text>
<text xml:space="preserve" text-anchor="start" x="96.5" y="-365.25" font-family="Helvetica,sans-Serif" font-size="10.00">Free()</text>
<text xml:space="preserve" text-anchor="start" x="84.25" y="-348.5" font-family="Helvetica,sans-Serif" font-size="10.00">+</text>
<text xml:space="preserve" text-anchor="start" x="96.5" y="-348.5" font-family="Helvetica,sans-Serif" font-size="10.00">MallocZeroed()</text>
<text xml:space="preserve" text-anchor="start" x="84.25" y="-331.75" font-family="Helvetica,sans-Serif" font-size="10.00">+</text>
<text xml:space="preserve" text-anchor="start" x="96.5" y="-331.75" font-family="Helvetica,sans-Serif" font-size="10.00">TryMallocZeroed()</text>
<text xml:space="preserve" text-anchor="start" x="84.25" y="-315" font-family="Helvetica,sans-Serif" font-size="10.00">+</text>
<text xml:space="preserve" text-anchor="start" x="96.5" y="-315" font-family="Helvetica,sans-Serif" font-size="10.00">QuantizeSize()</text>
<text xml:space="preserve" text-anchor="start" x="84.25" y="-298.25" font-family="Helvetica,sans-Serif" font-size="10.00">+</text>
<text xml:space="preserve" text-anchor="start" x="96.5" y="-298.25" font-family="Helvetica,sans-Serif" font-size="10.00">GetAllocationSize()</text>
<text xml:space="preserve" text-anchor="start" x="84.25" y="-281.5" font-family="Helvetica,sans-Serif" font-size="10.00">+</text>
<text xml:space="preserve" text-anchor="start" x="96.5" y="-281.5" font-family="Helvetica,sans-Serif" font-size="10.00">Trim()</text>
<text xml:space="preserve" text-anchor="start" x="96.5" y="-264.75" font-family="Helvetica,sans-Serif" font-size="10.00">and 16 more...</text>
<polygon fill="#666666" stroke="#666666" points="80.25,-460.75 80.25,-460.75 194.25,-460.75 194.25,-460.75 80.25,-460.75"/>
<polygon fill="#666666" stroke="#666666" points="80.25,-444 80.25,-444 94.5,-444 94.5,-444 80.25,-444"/>
<polygon fill="#666666" stroke="#666666" points="94.5,-444 94.5,-444 194.25,-444 194.25,-444 94.5,-444"/>
<polygon fill="none" stroke="#666666" points="80.25,-257.75 80.25,-479.5 194.25,-479.5 194.25,-257.75 80.25,-257.75"/>
</a>
</g>
</g>
<!-- Node2&#45;&gt;Node1 -->
<g id="edge1_Node000001_Node000002" class="edge">
<title>Node2&#45;&gt;Node1</title>
<g id="a_edge1_Node000001_Node000002"><a xlink:title=" ">
<path fill="none" stroke="#63b8ff" d="M137.25,-246.69C137.25,-238.33 137.25,-229.93 137.25,-221.63"/>
<polygon fill="none" stroke="#63b8ff" points="133.75,-246.54 137.25,-256.54 140.75,-246.54 133.75,-246.54"/>
</a>
</g>
</g>
<!-- Node3 -->
<g id="Node000003" class="node">
<title>Node3</title>
<g id="a_Node000003"><a xlink:href="$classFUseSystemMallocForNew.html" xlink:title=" ">
<polygon fill="white" stroke="none" points="138.5,-628.38 0,-628.38 0,-523.88 138.5,-523.88 138.5,-628.38"/>
<text xml:space="preserve" text-anchor="start" x="4" y="-614.62" font-family="Helvetica,sans-Serif" font-size="10.00">FUseSystemMallocForNew</text>
<text xml:space="preserve" text-anchor="start" x="66.25" y="-597.88" font-family="Helvetica,sans-Serif" font-size="10.00"> </text>
<text xml:space="preserve" text-anchor="start" x="11.06" y="-581.12" font-family="Helvetica,sans-Serif" font-size="10.00">+</text>
<text xml:space="preserve" text-anchor="start" x="30.38" y="-581.12" font-family="Helvetica,sans-Serif" font-size="10.00">operator new()</text>
<text xml:space="preserve" text-anchor="start" x="11.06" y="-564.38" font-family="Helvetica,sans-Serif" font-size="10.00">+</text>
<text xml:space="preserve" text-anchor="start" x="30.38" y="-564.38" font-family="Helvetica,sans-Serif" font-size="10.00">operator delete()</text>
<text xml:space="preserve" text-anchor="start" x="11.06" y="-547.62" font-family="Helvetica,sans-Serif" font-size="10.00">+</text>
<text xml:space="preserve" text-anchor="start" x="30.38" y="-547.62" font-family="Helvetica,sans-Serif" font-size="10.00">operator new[]()</text>
<text xml:space="preserve" text-anchor="start" x="11.06" y="-530.88" font-family="Helvetica,sans-Serif" font-size="10.00">+</text>
<text xml:space="preserve" text-anchor="start" x="30.38" y="-530.88" font-family="Helvetica,sans-Serif" font-size="10.00">operator delete[]()</text>
<polygon fill="#666666" stroke="#666666" points="0,-609.62 0,-609.62 138.5,-609.62 138.5,-609.62 0,-609.62"/>
<polygon fill="#666666" stroke="#666666" points="0,-592.88 0,-592.88 138.5,-592.88 138.5,-592.88 0,-592.88"/>
<polygon fill="none" stroke="#666666" points="0,-523.88 0,-628.38 138.5,-628.38 138.5,-523.88 0,-523.88"/>
</a>
</g>
</g>
<!-- Node3&#45;&gt;Node2 -->
<g id="edge2_Node000002_Node000003" class="edge">
<title>Node3&#45;&gt;Node2</title>
<g id="a_edge2_Node000002_Node000003"><a xlink:title=" ">
<path fill="none" stroke="#63b8ff" d="M89.67,-513.43C93.27,-502.53 97.12,-490.89 101.02,-479.13"/>
<polygon fill="none" stroke="#63b8ff" points="86.44,-512.03 86.62,-522.63 93.09,-514.23 86.44,-512.03"/>
</a>
</g>
</g>
<!-- Node4 -->
<g id="Node000004" class="node">
<title>Node4</title>
<g id="a_Node000004"><a xlink:href="$classFExec.html" xlink:title=" ">
<polygon fill="white" stroke="none" points="254,-636.75 156.5,-636.75 156.5,-515.5 254,-515.5 254,-636.75"/>
<text xml:space="preserve" text-anchor="start" x="190.62" y="-623" font-family="Helvetica,sans-Serif" font-size="10.00">FExec</text>
<text xml:space="preserve" text-anchor="start" x="202.25" y="-606.25" font-family="Helvetica,sans-Serif" font-size="10.00"> </text>
<text xml:space="preserve" text-anchor="start" x="160.5" y="-589.5" font-family="Helvetica,sans-Serif" font-size="10.00">+</text>
<text xml:space="preserve" text-anchor="start" x="172.75" y="-589.5" font-family="Helvetica,sans-Serif" font-size="10.00">~FExec()</text>
<text xml:space="preserve" text-anchor="start" x="160.5" y="-572.75" font-family="Helvetica,sans-Serif" font-size="10.00">+</text>
<text xml:space="preserve" text-anchor="start" x="172.75" y="-572.75" font-family="Helvetica,sans-Serif" font-size="10.00">Exec()</text>
<text xml:space="preserve" text-anchor="start" x="160.5" y="-556" font-family="Helvetica,sans-Serif" font-size="10.00">#</text>
<text xml:space="preserve" text-anchor="start" x="172.75" y="-556" font-family="Helvetica,sans-Serif" font-size="10.00">Exec_Runtime()</text>
<text xml:space="preserve" text-anchor="start" x="160.5" y="-539.25" font-family="Helvetica,sans-Serif" font-size="10.00">#</text>
<text xml:space="preserve" text-anchor="start" x="172.75" y="-539.25" font-family="Helvetica,sans-Serif" font-size="10.00">Exec_Dev()</text>
<text xml:space="preserve" text-anchor="start" x="160.5" y="-522.5" font-family="Helvetica,sans-Serif" font-size="10.00">#</text>
<text xml:space="preserve" text-anchor="start" x="172.75" y="-522.5" font-family="Helvetica,sans-Serif" font-size="10.00">Exec_Editor()</text>
<polygon fill="#666666" stroke="#666666" points="156.5,-618 156.5,-618 254,-618 254,-618 156.5,-618"/>
<polygon fill="#666666" stroke="#666666" points="156.5,-601.25 156.5,-601.25 254,-601.25 254,-601.25 156.5,-601.25"/>
<polygon fill="none" stroke="#666666" points="156.5,-515.5 156.5,-636.75 254,-636.75 254,-515.5 156.5,-515.5"/>
</a>
</g>
</g>
<!-- Node4&#45;&gt;Node2 -->
<g id="edge3_Node000002_Node000004" class="edge">
<title>Node4&#45;&gt;Node2</title>
<g id="a_edge3_Node000002_Node000004"><a xlink:title=" ">
<path fill="none" stroke="#63b8ff" d="M182.03,-504.95C179.28,-496.63 176.42,-487.99 173.54,-479.28"/>
<polygon fill="none" stroke="#63b8ff" points="178.64,-505.85 185.11,-514.25 185.29,-503.66 178.64,-505.85"/>
</a>
</g>
</g>
</g>
</svg>
