<?xml version="1.0" encoding="UTF-8" standalone="no"?>
<!DOCTYPE svg PUBLIC "-//W3C//DTD SVG 1.1//EN"
 "http://www.w3.org/Graphics/SVG/1.1/DTD/svg11.dtd">
<!-- Generated by graphviz version 14.1.4 (0)
 -->
<!-- Title: TDirectoryTree::TryGetChildren Pages: 1 -->
<svg width="571pt" height="150pt"
 viewBox="0.00 0.00 571.00 150.00" xmlns="http://www.w3.org/2000/svg" xmlns:xlink="http://www.w3.org/1999/xlink">
<g id="graph0" class="graph" transform="scale(1 1) rotate(0) translate(4 145.5)">
<title>TDirectoryTree::TryGetChildren</title>
<!-- Node1 -->
<g id="Node000001" class="node">
<title>Node1</title>
<g id="a_Node000001"><a xlink:title=" ">
<polygon fill="#999999" stroke="#666666" points="166,-94.12 0,-94.12 0,-73.38 166,-73.38 166,-94.12"/>
<text xml:space="preserve" text-anchor="middle" x="83" y="-80.62" font-family="Helvetica,sans-Serif" font-size="10.00">TDirectoryTree::TryGetChildren</text>
</a>
</g>
</g>
<!-- Node2 -->
<g id="Node000002" class="node">
<title>Node2</title>
<g id="a_Node000002"><a xlink:href="$EnumClassFlags_8h.html#a584482cc5c314e3e8ea8d24c7adf9f6e" xlink:title=" ">
<polygon fill="white" stroke="#666666" points="327.5,-117.12 220,-117.12 220,-96.38 327.5,-96.38 327.5,-117.12"/>
<text xml:space="preserve" text-anchor="middle" x="273.75" y="-103.62" font-family="Helvetica,sans-Serif" font-size="10.00">EnumHasAnyFlags</text>
</a>
</g>
</g>
<!-- Node1&#45;&gt;Node2 -->
<g id="edge1_Node000001_Node000002" class="edge">
<title>Node1&#45;&gt;Node2</title>
<g id="a_edge1_Node000001_Node000002"><a xlink:title=" ">
<path fill="none" stroke="#63b8ff" d="M166.24,-93.77C180.36,-95.49 194.86,-97.26 208.43,-98.91"/>
<polygon fill="#63b8ff" stroke="#63b8ff" points="207.73,-102.35 218.08,-100.09 208.57,-95.4 207.73,-102.35"/>
</a>
</g>
</g>
<!-- Node3 -->
<g id="Node000003" class="node">
<title>Node3</title>
<g id="a_Node000003"><a xlink:href="$classTDirectoryTree.html#a1d7894704413ad36f5c248a3fbb807f7" xlink:title=" ">
<polygon fill="white" stroke="#666666" points="345.5,-78.5 202,-78.5 202,-45 345.5,-45 345.5,-78.5"/>
<text xml:space="preserve" text-anchor="start" x="210" y="-65" font-family="Helvetica,sans-Serif" font-size="10.00">TDirectoryTree::Normalize</text>
<text xml:space="preserve" text-anchor="middle" x="273.75" y="-52.25" font-family="Helvetica,sans-Serif" font-size="10.00">PathForReading</text>
</a>
</g>
</g>
<!-- Node1&#45;&gt;Node3 -->
<g id="edge2_Node000001_Node000003" class="edge">
<title>Node1&#45;&gt;Node3</title>
<g id="a_edge2_Node000001_Node000003"><a xlink:title=" ">
<path fill="none" stroke="#63b8ff" d="M166.24,-74.16C174.27,-73.23 182.43,-72.28 190.46,-71.34"/>
<polygon fill="#63b8ff" stroke="#63b8ff" points="190.69,-74.84 200.22,-70.2 189.88,-67.89 190.69,-74.84"/>
</a>
</g>
</g>
<!-- Node4 -->
<g id="Node000004" class="node">
<title>Node4</title>
<g id="a_Node000004"><a xlink:href="$classFPathViews.html#ad12d429ed26f9ec9e7b8d0bc76c04486" xlink:title=" ">
<polygon fill="white" stroke="#666666" points="550.12,-123.5 393.88,-123.5 393.88,-90 550.12,-90 550.12,-123.5"/>
<text xml:space="preserve" text-anchor="start" x="401.88" y="-110" font-family="Helvetica,sans-Serif" font-size="10.00">FPathViews::IsDriveSpecifier</text>
<text xml:space="preserve" text-anchor="middle" x="472" y="-97.25" font-family="Helvetica,sans-Serif" font-size="10.00">WithoutRoot</text>
</a>
</g>
</g>
<!-- Node3&#45;&gt;Node4 -->
<g id="edge3_Node000003_Node000004" class="edge">
<title>Node3&#45;&gt;Node4</title>
<g id="a_edge3_Node000003_Node000004"><a xlink:title=" ">
<path fill="none" stroke="#63b8ff" d="M345.88,-78.06C358.56,-80.97 371.9,-84.03 384.94,-87.02"/>
<polygon fill="#63b8ff" stroke="#63b8ff" points="383.81,-90.35 394.34,-89.17 385.38,-83.53 383.81,-90.35"/>
</a>
</g>
</g>
<!-- Node5 -->
<g id="Node000005" class="node">
<title>Node5</title>
<g id="a_Node000005"><a xlink:href="$classFPathViews.html#a78a4ff6adad2d91e26180f2befaa1a52" xlink:title=" ">
<polygon fill="white" stroke="#666666" points="562.5,-72.12 381.5,-72.12 381.5,-51.38 562.5,-51.38 562.5,-72.12"/>
<text xml:space="preserve" text-anchor="middle" x="472" y="-58.62" font-family="Helvetica,sans-Serif" font-size="10.00">FPathViews::SplitVolumeSpecifier</text>
</a>
</g>
</g>
<!-- Node3&#45;&gt;Node5 -->
<g id="edge5_Node000003_Node000005" class="edge">
<title>Node3&#45;&gt;Node5</title>
<g id="a_edge5_Node000003_Node000005"><a xlink:title=" ">
<path fill="none" stroke="#63b8ff" d="M345.88,-61.75C353.63,-61.75 361.63,-61.75 369.66,-61.75"/>
<polygon fill="#63b8ff" stroke="#63b8ff" points="369.49,-65.25 379.49,-61.75 369.49,-58.25 369.49,-65.25"/>
</a>
</g>
</g>
<!-- Node6 -->
<g id="Node000006" class="node">
<title>Node6</title>
<g id="a_Node000006"><a xlink:href="$classTStringBuilderBase.html#a52fecc598618a8aee5177475d90003ac" xlink:title=" ">
<polygon fill="white" stroke="#666666" points="526.5,-33.5 417.5,-33.5 417.5,0 526.5,0 526.5,-33.5"/>
<text xml:space="preserve" text-anchor="start" x="425.5" y="-20" font-family="Helvetica,sans-Serif" font-size="10.00">TStringBuilderBase</text>
<text xml:space="preserve" text-anchor="middle" x="472" y="-7.25" font-family="Helvetica,sans-Serif" font-size="10.00">::ToView</text>
</a>
</g>
</g>
<!-- Node3&#45;&gt;Node6 -->
<g id="edge6_Node000003_Node000006" class="edge">
<title>Node3&#45;&gt;Node6</title>
<g id="a_edge6_Node000003_Node000006"><a xlink:title=" ">
<path fill="none" stroke="#63b8ff" d="M345.88,-45.44C365.5,-40.94 386.69,-36.08 405.95,-31.67"/>
<polygon fill="#63b8ff" stroke="#63b8ff" points="406.6,-35.11 415.56,-29.46 405.03,-28.29 406.6,-35.11"/>
</a>
</g>
</g>
<!-- Node4&#45;&gt;Node4 -->
<g id="edge4_Node000004_Node000004" class="edge">
<title>Node4&#45;&gt;Node4</title>
<g id="a_edge4_Node000004_Node000004"><a xlink:title=" ">
<path fill="none" stroke="#63b8ff" d="M436.36,-123.91C430.31,-133.12 442.19,-141.5 472,-141.5 488.77,-141.5 499.87,-138.85 505.29,-134.89"/>
<polygon fill="#63b8ff" stroke="#63b8ff" points="508.65,-135.91 507.32,-125.39 501.8,-134.44 508.65,-135.91"/>
</a>
</g>
</g>
</g>
</svg>
