<?xml version="1.0" encoding="UTF-8" standalone="no"?>
<!DOCTYPE svg PUBLIC "-//W3C//DTD SVG 1.1//EN"
 "http://www.w3.org/Graphics/SVG/1.1/DTD/svg11.dtd">
<!-- Generated by graphviz version 14.1.4 (0)
 -->
<!-- Title: IStringTableEngineBridge::CanFindOrLoadStringTableAsset Pages: 1 -->
<svg width="369pt" height="146pt"
 viewBox="0.00 0.00 369.00 146.00" xmlns="http://www.w3.org/2000/svg" xmlns:xlink="http://www.w3.org/1999/xlink">
<g id="graph0" class="graph" transform="scale(1 1) rotate(0) translate(4 141.5)">
<title>IStringTableEngineBridge::CanFindOrLoadStringTableAsset</title>
<!-- Node1 -->
<g id="Node000001" class="node">
<title>Node1</title>
<g id="a_Node000001"><a xlink:title=" ">
<polygon fill="#999999" stroke="#666666" points="361.25,-85.5 185.5,-85.5 185.5,-52 361.25,-52 361.25,-85.5"/>
<text xml:space="preserve" text-anchor="start" x="193.5" y="-72" font-family="Helvetica,sans-Serif" font-size="10.00">IStringTableEngineBridge</text>
<text xml:space="preserve" text-anchor="middle" x="273.38" y="-59.25" font-family="Helvetica,sans-Serif" font-size="10.00">::CanFindOrLoadStringTableAsset</text>
</a>
</g>
</g>
<!-- Node2 -->
<g id="Node000002" class="node">
<title>Node2</title>
<g id="a_Node000002"><a xlink:href="$classIStringTableEngineBridge.html#a99c1b5da843d1542ad9188d7c5a88f33" xlink:title=" ">
<polygon fill="white" stroke="#666666" points="149.5,-137.5 0,-137.5 0,-104 149.5,-104 149.5,-137.5"/>
<text xml:space="preserve" text-anchor="start" x="8" y="-124" font-family="Helvetica,sans-Serif" font-size="10.00">IStringTableEngineBridge</text>
<text xml:space="preserve" text-anchor="middle" x="74.75" y="-111.25" font-family="Helvetica,sans-Serif" font-size="10.00">::FullyLoadStringTableAsset</text>
</a>
</g>
</g>
<!-- Node1&#45;&gt;Node2 -->
<g id="edge1_Node000001_Node000002" class="edge">
<title>Node1&#45;&gt;Node2</title>
<g id="a_edge1_Node000001_Node000002"><a xlink:title=" ">
<path fill="none" stroke="#63b8ff" d="M196.24,-88.89C177.92,-93.73 158.53,-98.86 140.77,-103.55"/>
<polygon fill="#63b8ff" stroke="#63b8ff" points="196.94,-92.32 205.71,-86.38 195.15,-85.55 196.94,-92.32"/>
</a>
</g>
</g>
<!-- Node3 -->
<g id="Node000003" class="node">
<title>Node3</title>
<g id="a_Node000003"><a xlink:href="$classIStringTableEngineBridge.html#a5401ef217bc1b272c25050234bfeea5c" xlink:title=" ">
<polygon fill="white" stroke="#666666" points="143.5,-85.5 6,-85.5 6,-52 143.5,-52 143.5,-85.5"/>
<text xml:space="preserve" text-anchor="start" x="14" y="-72" font-family="Helvetica,sans-Serif" font-size="10.00">IStringTableEngineBridge</text>
<text xml:space="preserve" text-anchor="middle" x="74.75" y="-59.25" font-family="Helvetica,sans-Serif" font-size="10.00">::LoadStringTableAsset</text>
</a>
</g>
</g>
<!-- Node1&#45;&gt;Node3 -->
<g id="edge2_Node000001_Node000003" class="edge">
<title>Node1&#45;&gt;Node3</title>
<g id="a_edge2_Node000001_Node000003"><a xlink:title=" ">
<path fill="none" stroke="#63b8ff" d="M173.85,-68.75C163.72,-68.75 153.59,-68.75 143.89,-68.75"/>
<polygon fill="#63b8ff" stroke="#63b8ff" points="173.76,-72.25 183.76,-68.75 173.76,-65.25 173.76,-72.25"/>
</a>
</g>
</g>
<!-- Node4 -->
<g id="Node000004" class="node">
<title>Node4</title>
<g id="a_Node000004"><a xlink:href="$classIStringTableEngineBridge.html#abcdd44f95a25d2b309f0e239a0581dd3" xlink:title=" ">
<polygon fill="white" stroke="#666666" points="146.5,-33.5 3,-33.5 3,0 146.5,0 146.5,-33.5"/>
<text xml:space="preserve" text-anchor="start" x="11" y="-20" font-family="Helvetica,sans-Serif" font-size="10.00">IStringTableEngineBridge</text>
<text xml:space="preserve" text-anchor="middle" x="74.75" y="-7.25" font-family="Helvetica,sans-Serif" font-size="10.00">::RedirectStringTableAsset</text>
</a>
</g>
</g>
<!-- Node1&#45;&gt;Node4 -->
<g id="edge3_Node000001_Node000004" class="edge">
<title>Node1&#45;&gt;Node4</title>
<g id="a_edge3_Node000001_Node000004"><a xlink:title=" ">
<path fill="none" stroke="#63b8ff" d="M196.24,-48.61C177.92,-43.77 158.53,-38.64 140.77,-33.95"/>
<polygon fill="#63b8ff" stroke="#63b8ff" points="195.15,-51.95 205.71,-51.12 196.94,-45.18 195.15,-51.95"/>
</a>
</g>
</g>
</g>
</svg>
