<?xml version="1.0" encoding="UTF-8" standalone="no"?>
<!DOCTYPE svg PUBLIC "-//W3C//DTD SVG 1.1//EN"
 "http://www.w3.org/Graphics/SVG/1.1/DTD/svg11.dtd">
<!-- Generated by graphviz version 14.1.4 (0)
 -->
<!-- Title: FName::ToUnstableInt Pages: 1 -->
<svg width="652pt" height="126pt"
 viewBox="0.00 0.00 652.00 126.00" xmlns="http://www.w3.org/2000/svg" xmlns:xlink="http://www.w3.org/1999/xlink">
<g id="graph0" class="graph" transform="scale(1 1) rotate(0) translate(4 121.75)">
<title>FName::ToUnstableInt</title>
<!-- Node1 -->
<g id="Node000001" class="node">
<title>Node1</title>
<g id="a_Node000001"><a xlink:title=" ">
<polygon fill="#999999" stroke="#666666" points="643.75,-39.75 519.75,-39.75 519.75,-19 643.75,-19 643.75,-39.75"/>
<text xml:space="preserve" text-anchor="middle" x="581.75" y="-26.25" font-family="Helvetica,sans-Serif" font-size="10.00">FName::ToUnstableInt</text>
</a>
</g>
</g>
<!-- Node2 -->
<g id="Node000002" class="node">
<title>Node2</title>
<g id="a_Node000002"><a xlink:href="$classFName.html#a3e2ae193ae1c54d94efe65ad0816acc1" xlink:title=" ">
<polygon fill="white" stroke="#666666" points="471.75,-59.75 380.75,-59.75 380.75,-39 471.75,-39 471.75,-59.75"/>
<text xml:space="preserve" text-anchor="middle" x="426.25" y="-46.25" font-family="Helvetica,sans-Serif" font-size="10.00">FName::IsNone</text>
</a>
</g>
</g>
<!-- Node1&#45;&gt;Node2 -->
<g id="edge1_Node000001_Node000002" class="edge">
<title>Node1&#45;&gt;Node2</title>
<g id="a_edge1_Node000001_Node000002"><a xlink:title=" ">
<path fill="none" stroke="#63b8ff" d="M508.36,-38.81C495.98,-40.42 483.45,-42.05 472.07,-43.54"/>
<polygon fill="#63b8ff" stroke="#63b8ff" points="508.68,-42.3 518.14,-37.53 507.77,-35.35 508.68,-42.3"/>
</a>
</g>
</g>
<!-- Node8 -->
<g id="Node000008" class="node">
<title>Node8</title>
<g id="a_Node000008"><a xlink:href="$classFName.html#a072c9e4d62a34b07dae0c852958ba459" xlink:title=" ">
<polygon fill="white" stroke="#666666" points="483.75,-20.75 368.75,-20.75 368.75,0 483.75,0 483.75,-20.75"/>
<text xml:space="preserve" text-anchor="middle" x="426.25" y="-7.25" font-family="Helvetica,sans-Serif" font-size="10.00">FName::operator==</text>
</a>
</g>
</g>
<!-- Node1&#45;&gt;Node8 -->
<g id="edge7_Node000001_Node000008" class="edge">
<title>Node1&#45;&gt;Node8</title>
<g id="a_edge7_Node000001_Node000008"><a xlink:title=" ">
<path fill="none" stroke="#63b8ff" d="M508.28,-20.4C500.18,-19.4 492.02,-18.39 484.16,-17.42"/>
<polygon fill="#63b8ff" stroke="#63b8ff" points="507.79,-23.87 518.14,-21.63 508.65,-16.92 507.79,-23.87"/>
</a>
</g>
</g>
<!-- Node3 -->
<g id="Node000003" class="node">
<title>Node3</title>
<g id="a_Node000003"><a xlink:href="$classUCurveTable.html#a9c789ee47d509656f3ac3020a10b06d9" xlink:title=" ">
<polygon fill="white" stroke="#666666" points="332.75,-78.75 201.25,-78.75 201.25,-58 332.75,-58 332.75,-78.75"/>
<text xml:space="preserve" text-anchor="middle" x="267" y="-65.25" font-family="Helvetica,sans-Serif" font-size="10.00">UCurveTable::FindCurve</text>
</a>
</g>
</g>
<!-- Node2&#45;&gt;Node3 -->
<g id="edge2_Node000002_Node000003" class="edge">
<title>Node2&#45;&gt;Node3</title>
<g id="a_edge2_Node000002_Node000003"><a xlink:title=" ">
<path fill="none" stroke="#63b8ff" d="M369.18,-56.15C357.46,-57.57 345.02,-59.07 333.01,-60.52"/>
<polygon fill="#63b8ff" stroke="#63b8ff" points="369.6,-59.62 379.11,-54.95 368.76,-52.68 369.6,-59.62"/>
</a>
</g>
</g>
<!-- Node6 -->
<g id="Node000006" class="node">
<title>Node6</title>
<g id="a_Node000006"><a xlink:href="$classUDataTable.html#ac85f0d4c127001f02d3624c333bd878d" xlink:title=" ">
<polygon fill="white" stroke="#666666" points="326.38,-39.75 207.62,-39.75 207.62,-19 326.38,-19 326.38,-39.75"/>
<text xml:space="preserve" text-anchor="middle" x="267" y="-26.25" font-family="Helvetica,sans-Serif" font-size="10.00">UDataTable::FindRow</text>
</a>
</g>
</g>
<!-- Node2&#45;&gt;Node6 -->
<g id="edge5_Node000002_Node000006" class="edge">
<title>Node2&#45;&gt;Node6</title>
<g id="a_edge5_Node000002_Node000006"><a xlink:title=" ">
<path fill="none" stroke="#63b8ff" d="M369.32,-42.26C355.55,-40.51 340.77,-38.63 326.86,-36.86"/>
<polygon fill="#63b8ff" stroke="#63b8ff" points="368.75,-45.72 379.11,-43.51 369.63,-38.77 368.75,-45.72"/>
</a>
</g>
</g>
<!-- Node4 -->
<g id="Node000004" class="node">
<title>Node4</title>
<g id="a_Node000004"><a xlink:href="$classUCurveTable.html#a8326cb078ea6408e59d6d2ab7c819bcd" xlink:title=" ">
<polygon fill="white" stroke="#666666" points="158.88,-117.75 6.38,-117.75 6.38,-97 158.88,-97 158.88,-117.75"/>
<text xml:space="preserve" text-anchor="middle" x="82.62" y="-104.25" font-family="Helvetica,sans-Serif" font-size="10.00">UCurveTable::FindRichCurve</text>
</a>
</g>
</g>
<!-- Node3&#45;&gt;Node4 -->
<g id="edge3_Node000003_Node000004" class="edge">
<title>Node3&#45;&gt;Node4</title>
<g id="a_edge3_Node000003_Node000004"><a xlink:title=" ">
<path fill="none" stroke="#63b8ff" d="M203.98,-81.64C181.35,-86.48 156.02,-91.89 134.47,-96.5"/>
<polygon fill="#63b8ff" stroke="#63b8ff" points="204.67,-85.07 213.72,-79.56 203.21,-78.22 204.67,-85.07"/>
</a>
</g>
</g>
<!-- Node5 -->
<g id="Node000005" class="node">
<title>Node5</title>
<g id="a_Node000005"><a xlink:href="$classUCurveTable.html#a87ea228a1aeb2d21adc7b4a775eab161" xlink:title=" ">
<polygon fill="white" stroke="#666666" points="165.25,-78.75 0,-78.75 0,-58 165.25,-58 165.25,-78.75"/>
<text xml:space="preserve" text-anchor="middle" x="82.62" y="-65.25" font-family="Helvetica,sans-Serif" font-size="10.00">UCurveTable::FindSimpleCurve</text>
</a>
</g>
</g>
<!-- Node3&#45;&gt;Node5 -->
<g id="edge4_Node000003_Node000005" class="edge">
<title>Node3&#45;&gt;Node5</title>
<g id="a_edge4_Node000003_Node000005"><a xlink:title=" ">
<path fill="none" stroke="#63b8ff" d="M189.49,-68.38C181.58,-68.38 173.53,-68.38 165.57,-68.38"/>
<polygon fill="#63b8ff" stroke="#63b8ff" points="189.42,-71.88 199.42,-68.38 189.42,-64.88 189.42,-71.88"/>
</a>
</g>
</g>
<!-- Node7 -->
<g id="Node000007" class="node">
<title>Node7</title>
<g id="a_Node000007"><a xlink:href="$classUDataTable.html#aaeeea65ac56a60a452b4afba89b93265" xlink:title=" ">
<polygon fill="white" stroke="#666666" points="142,-39.75 23.25,-39.75 23.25,-19 142,-19 142,-39.75"/>
<text xml:space="preserve" text-anchor="middle" x="82.62" y="-26.25" font-family="Helvetica,sans-Serif" font-size="10.00">UDataTable::FindRow</text>
</a>
</g>
</g>
<!-- Node6&#45;&gt;Node7 -->
<g id="edge6_Node000006_Node000007" class="edge">
<title>Node6&#45;&gt;Node7</title>
<g id="a_edge6_Node000006_Node000007"><a xlink:title=" ">
<path fill="none" stroke="#63b8ff" d="M195.84,-29.38C178.13,-29.38 159.3,-29.38 142.22,-29.38"/>
<polygon fill="#63b8ff" stroke="#63b8ff" points="195.78,-32.88 205.78,-29.38 195.78,-25.88 195.78,-32.88"/>
</a>
</g>
</g>
</g>
</svg>
