<?xml version="1.0" encoding="UTF-8" standalone="no"?>
<!DOCTYPE svg PUBLIC "-//W3C//DTD SVG 1.1//EN"
 "http://www.w3.org/Graphics/SVG/1.1/DTD/svg11.dtd">
<!-- Generated by graphviz version 14.1.4 (0)
 -->
<!-- Title: TStringView::TStringView Pages: 1 -->
<svg width="719pt" height="1103pt"
 viewBox="0.00 0.00 719.00 1103.00" xmlns="http://www.w3.org/2000/svg" xmlns:xlink="http://www.w3.org/1999/xlink">
<g id="graph0" class="graph" transform="scale(1 1) rotate(0) translate(4 1098.5)">
<title>TStringView::TStringView</title>
<!-- Node1 -->
<g id="Node000001" class="node">
<title>Node1</title>
<g id="a_Node000001"><a xlink:title=" ">
<polygon fill="#999999" stroke="#666666" points="710.5,-433.12 571.5,-433.12 571.5,-412.38 710.5,-412.38 710.5,-433.12"/>
<text xml:space="preserve" text-anchor="middle" x="641" y="-419.62" font-family="Helvetica,sans-Serif" font-size="10.00">TStringView::TStringView</text>
</a>
</g>
</g>
<!-- Node2 -->
<g id="Node000002" class="node">
<title>Node2</title>
<g id="a_Node000002"><a xlink:href="$classTStringView.html#ab0cad127f78c5bca134552e184d92149" xlink:title=" ">
<polygon fill="white" stroke="#666666" points="505.5,-1043.12 406.25,-1043.12 406.25,-1022.38 505.5,-1022.38 505.5,-1043.12"/>
<text xml:space="preserve" text-anchor="middle" x="455.88" y="-1029.62" font-family="Helvetica,sans-Serif" font-size="10.00">TStringView::Left</text>
</a>
</g>
</g>
<!-- Node1&#45;&gt;Node2 -->
<g id="edge1_Node000001_Node000002" class="edge">
<title>Node1&#45;&gt;Node2</title>
<g id="a_edge1_Node000001_Node000002"><a xlink:title=" ">
<path fill="none" stroke="#63b8ff" d="M640.56,-444.98C641.52,-521.99 636.71,-782.45 535.5,-961.75 520.67,-988.02 492.57,-1009.77 474.29,-1022.01"/>
<polygon fill="#63b8ff" stroke="#63b8ff" points="644.06,-444.96 640.38,-435.02 637.06,-445.08 644.06,-444.96"/>
</a>
</g>
</g>
<!-- Node5 -->
<g id="Node000005" class="node">
<title>Node5</title>
<g id="a_Node000005"><a xlink:href="$classTStringView.html#a2c0d412b629efd25cced4013d29d8b0a" xlink:title=" ">
<polygon fill="white" stroke="#666666" points="517.88,-953.12 393.88,-953.12 393.88,-932.38 517.88,-932.38 517.88,-953.12"/>
<text xml:space="preserve" text-anchor="middle" x="455.88" y="-939.62" font-family="Helvetica,sans-Serif" font-size="10.00">TStringView::LeftChop</text>
</a>
</g>
</g>
<!-- Node1&#45;&gt;Node5 -->
<g id="edge4_Node000001_Node000005" class="edge">
<title>Node1&#45;&gt;Node5</title>
<g id="a_edge4_Node000001_Node000005"><a xlink:title=" ">
<path fill="none" stroke="#63b8ff" d="M639.03,-444.65C635.23,-511.8 617.16,-719.03 535.5,-864.75 519.52,-893.27 490.09,-918.3 472.12,-931.91"/>
<polygon fill="#63b8ff" stroke="#63b8ff" points="642.51,-445.15 639.53,-434.98 635.52,-444.79 642.51,-445.15"/>
</a>
</g>
</g>
<!-- Node8 -->
<g id="Node000008" class="node">
<title>Node8</title>
<g id="a_Node000008"><a xlink:href="$classTStringView.html#a8989fc07d01e1341826b5f21b1bc56f8" xlink:title=" ">
<polygon fill="white" stroke="#666666" points="505.12,-856.12 406.62,-856.12 406.62,-835.38 505.12,-835.38 505.12,-856.12"/>
<text xml:space="preserve" text-anchor="middle" x="455.88" y="-842.62" font-family="Helvetica,sans-Serif" font-size="10.00">TStringView::Mid</text>
</a>
</g>
</g>
<!-- Node1&#45;&gt;Node8 -->
<g id="edge7_Node000001_Node000008" class="edge">
<title>Node1&#45;&gt;Node8</title>
<g id="a_edge7_Node000001_Node000008"><a xlink:title=" ">
<path fill="none" stroke="#63b8ff" d="M634.71,-444.4C621.77,-495.56 585.85,-627.23 535.5,-728.75 514.73,-770.63 481.19,-815.14 465.49,-835.05"/>
<polygon fill="#63b8ff" stroke="#63b8ff" points="638.05,-445.47 637.07,-434.92 631.26,-443.78 638.05,-445.47"/>
</a>
</g>
</g>
<!-- Node11 -->
<g id="Node000011" class="node">
<title>Node11</title>
<g id="a_Node000011"><a xlink:href="$classTStringView.html#ab7f438a67aefb4702147939258e8804d" xlink:title=" ">
<polygon fill="white" stroke="#666666" points="535.5,-720.12 376.25,-720.12 376.25,-699.38 535.5,-699.38 535.5,-720.12"/>
<text xml:space="preserve" text-anchor="middle" x="455.88" y="-706.62" font-family="Helvetica,sans-Serif" font-size="10.00">TStringView::PrivateCompare</text>
</a>
</g>
</g>
<!-- Node1&#45;&gt;Node11 -->
<g id="edge10_Node000001_Node000011" class="edge">
<title>Node1&#45;&gt;Node11</title>
<g id="a_edge10_Node000001_Node000011"><a xlink:title=" ">
<path fill="none" stroke="#63b8ff" d="M629.18,-443.45C611.03,-477.73 572.75,-548.14 535.5,-604.75 511.97,-640.52 480.59,-680.38 465.59,-699.03"/>
<polygon fill="#63b8ff" stroke="#63b8ff" points="632.27,-445.09 633.83,-434.62 626.08,-441.83 632.27,-445.09"/>
</a>
</g>
</g>
<!-- Node13 -->
<g id="Node000013" class="node">
<title>Node13</title>
<g id="a_Node000013"><a xlink:href="$classTStringView.html#ad3c2a7e16dfaf989b7cefb3f41364631" xlink:title=" ">
<polygon fill="white" stroke="#666666" points="529.5,-596.12 382.25,-596.12 382.25,-575.38 529.5,-575.38 529.5,-596.12"/>
<text xml:space="preserve" text-anchor="middle" x="455.88" y="-582.62" font-family="Helvetica,sans-Serif" font-size="10.00">TStringView::PrivateEquals</text>
</a>
</g>
</g>
<!-- Node1&#45;&gt;Node13 -->
<g id="edge12_Node000001_Node000013" class="edge">
<title>Node1&#45;&gt;Node13</title>
<g id="a_edge12_Node000001_Node000013"><a xlink:title=" ">
<path fill="none" stroke="#63b8ff" d="M619.64,-440.87C581.25,-475.04 499.27,-548.01 468.7,-575.23"/>
<polygon fill="#63b8ff" stroke="#63b8ff" points="621.71,-443.71 626.85,-434.45 617.06,-438.49 621.71,-443.71"/>
</a>
</g>
</g>
<!-- Node20 -->
<g id="Node000020" class="node">
<title>Node20</title>
<g id="a_Node000020"><a xlink:href="$classTStringView.html#a22b95e3e6d1bff838cf53e545ebcd2ff" xlink:title=" ">
<polygon fill="white" stroke="#666666" points="529.5,-453.12 382.25,-453.12 382.25,-432.38 529.5,-432.38 529.5,-453.12"/>
<text xml:space="preserve" text-anchor="middle" x="455.88" y="-439.62" font-family="Helvetica,sans-Serif" font-size="10.00">TStringView::PrivateEquals</text>
</a>
</g>
</g>
<!-- Node1&#45;&gt;Node20 -->
<g id="edge19_Node000001_Node000020" class="edge">
<title>Node1&#45;&gt;Node20</title>
<g id="a_edge19_Node000001_Node000020"><a xlink:title=" ">
<path fill="none" stroke="#63b8ff" d="M559.84,-431.5C549.83,-432.6 539.64,-433.71 529.76,-434.79"/>
<polygon fill="#63b8ff" stroke="#63b8ff" points="559.96,-435.01 569.52,-430.45 559.2,-428.05 559.96,-435.01"/>
</a>
</g>
</g>
<!-- Node21 -->
<g id="Node000021" class="node">
<title>Node21</title>
<g id="a_Node000021"><a xlink:href="$classTStringView.html#a9f248decfbca0276e401602a7e4b5a21" xlink:title=" ">
<polygon fill="white" stroke="#666666" points="524.25,-414.12 387.5,-414.12 387.5,-393.38 524.25,-393.38 524.25,-414.12"/>
<text xml:space="preserve" text-anchor="middle" x="455.88" y="-400.62" font-family="Helvetica,sans-Serif" font-size="10.00">TStringView::PrivateLess</text>
</a>
</g>
</g>
<!-- Node1&#45;&gt;Node21 -->
<g id="edge20_Node000001_Node000021" class="edge">
<title>Node1&#45;&gt;Node21</title>
<g id="a_edge20_Node000001_Node000021"><a xlink:title=" ">
<path fill="none" stroke="#63b8ff" d="M559.85,-414.43C548.08,-413.21 536.06,-411.97 524.57,-410.77"/>
<polygon fill="#63b8ff" stroke="#63b8ff" points="559.22,-417.89 569.52,-415.44 559.94,-410.92 559.22,-417.89"/>
</a>
</g>
</g>
<!-- Node24 -->
<g id="Node000024" class="node">
<title>Node24</title>
<g id="a_Node000024"><a xlink:href="$classTStringView.html#a0a3b52ac065df027d065ce308fc3f33e" xlink:title=" ">
<polygon fill="white" stroke="#666666" points="508.88,-343.12 402.88,-343.12 402.88,-322.38 508.88,-322.38 508.88,-343.12"/>
<text xml:space="preserve" text-anchor="middle" x="455.88" y="-329.62" font-family="Helvetica,sans-Serif" font-size="10.00">TStringView::Right</text>
</a>
</g>
</g>
<!-- Node1&#45;&gt;Node24 -->
<g id="edge23_Node000001_Node000024" class="edge">
<title>Node1&#45;&gt;Node24</title>
<g id="a_edge23_Node000001_Node000024"><a xlink:title=" ">
<path fill="none" stroke="#63b8ff" d="M607.64,-406.85C570.54,-388.61 510.76,-359.23 478.76,-343.5"/>
<polygon fill="#63b8ff" stroke="#63b8ff" points="606.03,-409.96 616.55,-411.23 609.12,-403.67 606.03,-409.96"/>
</a>
</g>
</g>
<!-- Node27 -->
<g id="Node000027" class="node">
<title>Node27</title>
<g id="a_Node000027"><a xlink:href="$classTStringView.html#aa0e53f1bdf48ccfa7b193ae2f413b5e3" xlink:title=" ">
<polygon fill="white" stroke="#666666" points="521.25,-245.12 390.5,-245.12 390.5,-224.38 521.25,-224.38 521.25,-245.12"/>
<text xml:space="preserve" text-anchor="middle" x="455.88" y="-231.62" font-family="Helvetica,sans-Serif" font-size="10.00">TStringView::RightChop</text>
</a>
</g>
</g>
<!-- Node1&#45;&gt;Node27 -->
<g id="edge26_Node000001_Node000027" class="edge">
<title>Node1&#45;&gt;Node27</title>
<g id="a_edge26_Node000001_Node000027"><a xlink:title=" ">
<path fill="none" stroke="#63b8ff" d="M622.31,-404.08C601.61,-382.3 566.25,-345.23 535.5,-313.75 511.43,-289.11 482.82,-260.54 467.62,-245.42"/>
<polygon fill="#63b8ff" stroke="#63b8ff" points="619.51,-406.22 628.94,-411.07 624.59,-401.4 619.51,-406.22"/>
</a>
</g>
</g>
<!-- Node32 -->
<g id="Node000032" class="node">
<title>Node32</title>
<g id="a_Node000032"><a xlink:href="$classTStringView.html#afed36f899228540f3348610d928b8560" xlink:title=" ">
<polygon fill="white" stroke="#666666" points="516,-190.12 395.75,-190.12 395.75,-169.38 516,-169.38 516,-190.12"/>
<text xml:space="preserve" text-anchor="middle" x="455.88" y="-176.62" font-family="Helvetica,sans-Serif" font-size="10.00">TStringView::TrimEnd</text>
</a>
</g>
</g>
<!-- Node1&#45;&gt;Node32 -->
<g id="edge31_Node000001_Node000032" class="edge">
<title>Node1&#45;&gt;Node32</title>
<g id="a_edge31_Node000001_Node000032"><a xlink:title=" ">
<path fill="none" stroke="#63b8ff" d="M634.38,-401.39C622.59,-360.34 591.61,-269.76 535.5,-215.75 523.71,-204.4 507.71,-196.19 493.21,-190.5"/>
<polygon fill="#63b8ff" stroke="#63b8ff" points="630.94,-402.06 636.97,-410.77 637.68,-400.19 630.94,-402.06"/>
</a>
</g>
</g>
<!-- Node34 -->
<g id="Node000034" class="node">
<title>Node34</title>
<g id="a_Node000034"><a xlink:href="$classTStringView.html#aa67a3f0ffb42a32fe7702c07445f8b24" xlink:title=" ">
<polygon fill="white" stroke="#666666" points="518.62,-72.12 393.12,-72.12 393.12,-51.38 518.62,-51.38 518.62,-72.12"/>
<text xml:space="preserve" text-anchor="middle" x="455.88" y="-58.62" font-family="Helvetica,sans-Serif" font-size="10.00">TStringView::TrimStart</text>
</a>
</g>
</g>
<!-- Node1&#45;&gt;Node34 -->
<g id="edge33_Node000001_Node000034" class="edge">
<title>Node1&#45;&gt;Node34</title>
<g id="a_edge33_Node000001_Node000034"><a xlink:title=" ">
<path fill="none" stroke="#63b8ff" d="M639.13,-400.82C635.69,-343.22 618.76,-185.76 535.5,-94.75 526.21,-84.59 513.29,-77.46 500.61,-72.49"/>
<polygon fill="#63b8ff" stroke="#63b8ff" points="635.62,-400.79 639.62,-410.6 642.61,-400.43 635.62,-400.79"/>
</a>
</g>
</g>
<!-- Node35 -->
<g id="Node000035" class="node">
<title>Node35</title>
<g id="a_Node000035"><a xlink:href="$classTStringView.html#afcd6b434e9c2dbdaca1d5a5f7434568a" xlink:title=" ">
<polygon fill="white" stroke="#666666" points="340.25,-72.12 178,-72.12 178,-51.38 340.25,-51.38 340.25,-72.12"/>
<text xml:space="preserve" text-anchor="middle" x="259.12" y="-58.62" font-family="Helvetica,sans-Serif" font-size="10.00">TStringView::TrimStartAndEnd</text>
</a>
</g>
</g>
<!-- Node1&#45;&gt;Node35 -->
<g id="edge37_Node000001_Node000035" class="edge">
<title>Node1&#45;&gt;Node35</title>
<g id="a_edge37_Node000001_Node000035"><a xlink:title=" ">
<path fill="none" stroke="#63b8ff" d="M637.09,-400.67C629.46,-351.2 604.46,-230.36 535.5,-160.75 469.5,-94.13 429.54,-109.43 340.25,-80.75 330.86,-77.73 320.71,-74.96 310.89,-72.52"/>
<polygon fill="#63b8ff" stroke="#63b8ff" points="633.6,-400.99 638.49,-410.39 640.53,-399.99 633.6,-400.99"/>
</a>
</g>
</g>
<!-- Node3 -->
<g id="Node000003" class="node">
<title>Node3</title>
<g id="a_Node000003"><a xlink:href="$classTStringView.html#adae5a962e0022bdec3f71ff8c553ef7e" xlink:title=" ">
<polygon fill="white" stroke="#666666" points="318.88,-1094.5 199.38,-1094.5 199.38,-1061 318.88,-1061 318.88,-1094.5"/>
<text xml:space="preserve" text-anchor="start" x="207.38" y="-1081" font-family="Helvetica,sans-Serif" font-size="10.00">TStringView&lt; TCHAR</text>
<text xml:space="preserve" text-anchor="middle" x="259.12" y="-1068.25" font-family="Helvetica,sans-Serif" font-size="10.00"> &gt;::LeftInline</text>
</a>
</g>
</g>
<!-- Node2&#45;&gt;Node3 -->
<g id="edge2_Node000002_Node000003" class="edge">
<title>Node2&#45;&gt;Node3</title>
<g id="a_edge2_Node000002_Node000003"><a xlink:title=" ">
<path fill="none" stroke="#63b8ff" d="M397.26,-1046.06C372.69,-1051.74 344.06,-1058.36 319.32,-1064.07"/>
<polygon fill="#63b8ff" stroke="#63b8ff" points="397.8,-1049.53 406.75,-1043.87 396.22,-1042.71 397.8,-1049.53"/>
</a>
</g>
</g>
<!-- Node4 -->
<g id="Node000004" class="node">
<title>Node4</title>
<g id="a_Node000004"><a xlink:href="$classTStringView.html#af2f14ab0129713eed2fee04ac795c002" xlink:title=" ">
<polygon fill="white" stroke="#666666" points="324.88,-1043.12 193.38,-1043.12 193.38,-1022.38 324.88,-1022.38 324.88,-1043.12"/>
<text xml:space="preserve" text-anchor="middle" x="259.12" y="-1029.62" font-family="Helvetica,sans-Serif" font-size="10.00">TStringView::StartsWith</text>
</a>
</g>
</g>
<!-- Node2&#45;&gt;Node4 -->
<g id="edge3_Node000002_Node000004" class="edge">
<title>Node2&#45;&gt;Node4</title>
<g id="a_edge3_Node000002_Node000004"><a xlink:title=" ">
<path fill="none" stroke="#63b8ff" d="M394.76,-1032.75C372.73,-1032.75 347.69,-1032.75 325.24,-1032.75"/>
<polygon fill="#63b8ff" stroke="#63b8ff" points="394.47,-1036.25 404.47,-1032.75 394.47,-1029.25 394.47,-1036.25"/>
</a>
</g>
</g>
<!-- Node6 -->
<g id="Node000006" class="node">
<title>Node6</title>
<g id="a_Node000006"><a xlink:href="$classTStringView.html#a093034f226ff3671a5b9d1256849e881" xlink:title=" ">
<polygon fill="white" stroke="#666666" points="318.88,-1004.5 199.38,-1004.5 199.38,-971 318.88,-971 318.88,-1004.5"/>
<text xml:space="preserve" text-anchor="start" x="207.38" y="-991" font-family="Helvetica,sans-Serif" font-size="10.00">TStringView&lt; TCHAR</text>
<text xml:space="preserve" text-anchor="middle" x="259.12" y="-978.25" font-family="Helvetica,sans-Serif" font-size="10.00"> &gt;::LeftChopInline</text>
</a>
</g>
</g>
<!-- Node5&#45;&gt;Node6 -->
<g id="edge5_Node000005_Node000006" class="edge">
<title>Node5&#45;&gt;Node6</title>
<g id="a_edge5_Node000005_Node000006"><a xlink:title=" ">
<path fill="none" stroke="#63b8ff" d="M397.26,-956.06C372.69,-961.74 344.06,-968.36 319.32,-974.07"/>
<polygon fill="#63b8ff" stroke="#63b8ff" points="397.8,-959.53 406.75,-953.87 396.22,-952.71 397.8,-959.53"/>
</a>
</g>
</g>
<!-- Node7 -->
<g id="Node000007" class="node">
<title>Node7</title>
<g id="a_Node000007"><a xlink:href="$namespaceUE_1_1String.html#a1bf1749fe1f16beba494d23a5bb44070" xlink:title=" ">
<polygon fill="white" stroke="#666666" points="335.75,-953.12 182.5,-953.12 182.5,-932.38 335.75,-932.38 335.75,-953.12"/>
<text xml:space="preserve" text-anchor="middle" x="259.12" y="-939.62" font-family="Helvetica,sans-Serif" font-size="10.00">UE::String::RemoveFromEnd</text>
</a>
</g>
</g>
<!-- Node5&#45;&gt;Node7 -->
<g id="edge6_Node000005_Node000007" class="edge">
<title>Node5&#45;&gt;Node7</title>
<g id="a_edge6_Node000005_Node000007"><a xlink:title=" ">
<path fill="none" stroke="#63b8ff" d="M382.23,-942.75C367.22,-942.75 351.37,-942.75 336.24,-942.75"/>
<polygon fill="#63b8ff" stroke="#63b8ff" points="382.01,-946.25 392.01,-942.75 382.01,-939.25 382.01,-946.25"/>
</a>
</g>
</g>
<!-- Node9 -->
<g id="Node000009" class="node">
<title>Node9</title>
<g id="a_Node000009"><a xlink:href="$classTStringView.html#aba61d7c59f64e7b4521e4262b4745fc3" xlink:title=" ">
<polygon fill="white" stroke="#666666" points="318.88,-914.5 199.38,-914.5 199.38,-881 318.88,-881 318.88,-914.5"/>
<text xml:space="preserve" text-anchor="start" x="207.38" y="-901" font-family="Helvetica,sans-Serif" font-size="10.00">TStringView&lt; TCHAR</text>
<text xml:space="preserve" text-anchor="middle" x="259.12" y="-888.25" font-family="Helvetica,sans-Serif" font-size="10.00"> &gt;::MidInline</text>
</a>
</g>
</g>
<!-- Node8&#45;&gt;Node9 -->
<g id="edge8_Node000008_Node000009" class="edge">
<title>Node8&#45;&gt;Node9</title>
<g id="a_edge8_Node000008_Node000009"><a xlink:title=" ">
<path fill="none" stroke="#63b8ff" d="M403.45,-859.48C377.59,-866.39 346.13,-874.79 319.28,-881.96"/>
<polygon fill="#63b8ff" stroke="#63b8ff" points="404.3,-862.88 413.06,-856.91 402.5,-856.11 404.3,-862.88"/>
</a>
</g>
</g>
<!-- Node10 -->
<g id="Node000010" class="node">
<title>Node10</title>
<g id="a_Node000010"><a xlink:href="$classTStringView.html#a1700494a89400dd780ad2edf8783e8e8" xlink:title=" ">
<polygon fill="white" stroke="#666666" points="318.88,-862.5 199.38,-862.5 199.38,-829 318.88,-829 318.88,-862.5"/>
<text xml:space="preserve" text-anchor="start" x="207.38" y="-849" font-family="Helvetica,sans-Serif" font-size="10.00">TStringView&lt; TCHAR</text>
<text xml:space="preserve" text-anchor="middle" x="259.12" y="-836.25" font-family="Helvetica,sans-Serif" font-size="10.00"> &gt;::SubStr</text>
</a>
</g>
</g>
<!-- Node8&#45;&gt;Node10 -->
<g id="edge9_Node000008_Node000010" class="edge">
<title>Node8&#45;&gt;Node10</title>
<g id="a_edge9_Node000008_Node000010"><a xlink:title=" ">
<path fill="none" stroke="#63b8ff" d="M394.76,-845.75C370.75,-845.75 343.17,-845.75 319.26,-845.75"/>
<polygon fill="#63b8ff" stroke="#63b8ff" points="394.72,-849.25 404.72,-845.75 394.72,-842.25 394.72,-849.25"/>
</a>
</g>
</g>
<!-- Node12 -->
<g id="Node000012" class="node">
<title>Node12</title>
<g id="a_Node000012"><a xlink:href="$classTStringView.html#a6f07c9e7a6839cd0d068e2d6647b0e39" xlink:title=" ">
<polygon fill="white" stroke="#666666" points="318.88,-810.5 199.38,-810.5 199.38,-777 318.88,-777 318.88,-810.5"/>
<text xml:space="preserve" text-anchor="start" x="207.38" y="-797" font-family="Helvetica,sans-Serif" font-size="10.00">TStringView&lt; TCHAR</text>
<text xml:space="preserve" text-anchor="middle" x="259.12" y="-784.25" font-family="Helvetica,sans-Serif" font-size="10.00"> &gt;::Compare</text>
</a>
</g>
</g>
<!-- Node11&#45;&gt;Node12 -->
<g id="edge11_Node000011_Node000012" class="edge">
<title>Node11&#45;&gt;Node12</title>
<g id="a_edge11_Node000011_Node000012"><a xlink:title=" ">
<path fill="none" stroke="#63b8ff" d="M425.79,-726.05C402.96,-738.44 370.15,-755.42 340.25,-767.75 332.81,-770.82 324.87,-773.77 316.99,-776.51"/>
<polygon fill="#63b8ff" stroke="#63b8ff" points="427.42,-729.14 434.51,-721.26 424.05,-723.01 427.42,-729.14"/>
</a>
</g>
</g>
<!-- Node14 -->
<g id="Node000014" class="node">
<title>Node14</title>
<g id="a_Node000014"><a xlink:href="$classTStringView.html#a5c93ae3b2702a03ee1883ca9544ea075" xlink:title=" ">
<polygon fill="white" stroke="#666666" points="318.88,-758.5 199.38,-758.5 199.38,-725 318.88,-725 318.88,-758.5"/>
<text xml:space="preserve" text-anchor="start" x="207.38" y="-745" font-family="Helvetica,sans-Serif" font-size="10.00">TStringView&lt; TCHAR</text>
<text xml:space="preserve" text-anchor="middle" x="259.12" y="-732.25" font-family="Helvetica,sans-Serif" font-size="10.00"> &gt;::Equals</text>
</a>
</g>
</g>
<!-- Node13&#45;&gt;Node14 -->
<g id="edge13_Node000013_Node000014" class="edge">
<title>Node13&#45;&gt;Node14</title>
<g id="a_edge13_Node000013_Node000014"><a xlink:title=" ">
<path fill="none" stroke="#63b8ff" d="M442.23,-605.93C423.38,-634.4 385.28,-686.19 340.25,-715.75 333.77,-720 326.54,-723.61 319.15,-726.66"/>
<polygon fill="#63b8ff" stroke="#63b8ff" points="444.96,-608.14 447.45,-597.85 439.08,-604.34 444.96,-608.14"/>
</a>
</g>
</g>
<!-- Node15 -->
<g id="Node000015" class="node">
<title>Node15</title>
<g id="a_Node000015"><a xlink:href="$classTStringView.html#aaf5870f26a327452ac074fdfaceeaa03" xlink:title=" ">
<polygon fill="white" stroke="#666666" points="318.88,-706.5 199.38,-706.5 199.38,-673 318.88,-673 318.88,-706.5"/>
<text xml:space="preserve" text-anchor="start" x="207.38" y="-693" font-family="Helvetica,sans-Serif" font-size="10.00">TStringView&lt; TCHAR</text>
<text xml:space="preserve" text-anchor="middle" x="259.12" y="-680.25" font-family="Helvetica,sans-Serif" font-size="10.00"> &gt;::operator!=</text>
</a>
</g>
</g>
<!-- Node13&#45;&gt;Node15 -->
<g id="edge14_Node000013_Node000015" class="edge">
<title>Node13&#45;&gt;Node15</title>
<g id="a_edge14_Node000013_Node000015"><a xlink:title=" ">
<path fill="none" stroke="#63b8ff" d="M432.95,-603.47C410.7,-620.76 374.71,-646.87 340.25,-663.75 333.55,-667.03 326.34,-670.04 319.09,-672.75"/>
<polygon fill="#63b8ff" stroke="#63b8ff" points="435,-606.31 440.69,-597.37 430.67,-600.81 435,-606.31"/>
</a>
</g>
</g>
<!-- Node16 -->
<g id="Node000016" class="node">
<title>Node16</title>
<g id="a_Node000016"><a xlink:href="$classTStringView.html#a922b8b81dda552a544159f85ac2a9764" xlink:title=" ">
<polygon fill="white" stroke="#666666" points="318.88,-654.5 199.38,-654.5 199.38,-621 318.88,-621 318.88,-654.5"/>
<text xml:space="preserve" text-anchor="start" x="207.38" y="-641" font-family="Helvetica,sans-Serif" font-size="10.00">TStringView&lt; TCHAR</text>
<text xml:space="preserve" text-anchor="middle" x="259.12" y="-628.25" font-family="Helvetica,sans-Serif" font-size="10.00"> &gt;::operator!=</text>
</a>
</g>
</g>
<!-- Node13&#45;&gt;Node16 -->
<g id="edge15_Node000013_Node000016" class="edge">
<title>Node13&#45;&gt;Node16</title>
<g id="a_edge15_Node000013_Node000016"><a xlink:title=" ">
<path fill="none" stroke="#63b8ff" d="M403.45,-599.48C377.59,-606.39 346.13,-614.79 319.28,-621.96"/>
<polygon fill="#63b8ff" stroke="#63b8ff" points="404.3,-602.88 413.06,-596.91 402.5,-596.11 404.3,-602.88"/>
</a>
</g>
</g>
<!-- Node17 -->
<g id="Node000017" class="node">
<title>Node17</title>
<g id="a_Node000017"><a xlink:href="$classTStringView.html#a383cff847c96eec7696fe60bd33e89b3" xlink:title=" ">
<polygon fill="white" stroke="#666666" points="318.88,-602.5 199.38,-602.5 199.38,-569 318.88,-569 318.88,-602.5"/>
<text xml:space="preserve" text-anchor="start" x="207.38" y="-589" font-family="Helvetica,sans-Serif" font-size="10.00">TStringView&lt; TCHAR</text>
<text xml:space="preserve" text-anchor="middle" x="259.12" y="-576.25" font-family="Helvetica,sans-Serif" font-size="10.00"> &gt;::operator==</text>
</a>
</g>
</g>
<!-- Node13&#45;&gt;Node17 -->
<g id="edge16_Node000013_Node000017" class="edge">
<title>Node13&#45;&gt;Node17</title>
<g id="a_edge16_Node000013_Node000017"><a xlink:title=" ">
<path fill="none" stroke="#63b8ff" d="M370.56,-585.75C353.3,-585.75 335.48,-585.75 319.33,-585.75"/>
<polygon fill="#63b8ff" stroke="#63b8ff" points="370.29,-589.25 380.29,-585.75 370.29,-582.25 370.29,-589.25"/>
</a>
</g>
</g>
<!-- Node18 -->
<g id="Node000018" class="node">
<title>Node18</title>
<g id="a_Node000018"><a xlink:href="$classTStringView.html#af0de5c0cb0d86455411a283e59abe6c4" xlink:title=" ">
<polygon fill="white" stroke="#666666" points="318.88,-550.5 199.38,-550.5 199.38,-517 318.88,-517 318.88,-550.5"/>
<text xml:space="preserve" text-anchor="start" x="207.38" y="-537" font-family="Helvetica,sans-Serif" font-size="10.00">TStringView&lt; TCHAR</text>
<text xml:space="preserve" text-anchor="middle" x="259.12" y="-524.25" font-family="Helvetica,sans-Serif" font-size="10.00"> &gt;::operator==</text>
</a>
</g>
</g>
<!-- Node13&#45;&gt;Node18 -->
<g id="edge17_Node000013_Node000018" class="edge">
<title>Node13&#45;&gt;Node18</title>
<g id="a_edge17_Node000013_Node000018"><a xlink:title=" ">
<path fill="none" stroke="#63b8ff" d="M403.45,-572.02C377.59,-565.11 346.13,-556.71 319.28,-549.54"/>
<polygon fill="#63b8ff" stroke="#63b8ff" points="402.5,-575.39 413.06,-574.59 404.3,-568.62 402.5,-575.39"/>
</a>
</g>
</g>
<!-- Node19 -->
<g id="Node000019" class="node">
<title>Node19</title>
<g id="a_Node000019"><a xlink:href="$classTStringView.html#ad5d22b103aaac51bc6940a455773ab09" xlink:title=" ">
<polygon fill="white" stroke="#666666" points="318.88,-498.5 199.38,-498.5 199.38,-465 318.88,-465 318.88,-498.5"/>
<text xml:space="preserve" text-anchor="start" x="207.38" y="-485" font-family="Helvetica,sans-Serif" font-size="10.00">TStringView&lt; TCHAR</text>
<text xml:space="preserve" text-anchor="middle" x="259.12" y="-472.25" font-family="Helvetica,sans-Serif" font-size="10.00"> &gt;::operator==</text>
</a>
</g>
</g>
<!-- Node13&#45;&gt;Node19 -->
<g id="edge18_Node000013_Node000019" class="edge">
<title>Node13&#45;&gt;Node19</title>
<g id="a_edge18_Node000013_Node000019"><a xlink:title=" ">
<path fill="none" stroke="#63b8ff" d="M432.95,-568.03C410.7,-550.74 374.71,-524.63 340.25,-507.75 333.55,-504.47 326.34,-501.46 319.09,-498.75"/>
<polygon fill="#63b8ff" stroke="#63b8ff" points="430.67,-570.69 440.69,-574.13 435,-565.19 430.67,-570.69"/>
</a>
</g>
</g>
<!-- Node22 -->
<g id="Node000022" class="node">
<title>Node22</title>
<g id="a_Node000022"><a xlink:href="$classTStringView.html#a04c7741459134061a7a740a2d07f6fc9" xlink:title=" ">
<polygon fill="white" stroke="#666666" points="318.88,-446.5 199.38,-446.5 199.38,-413 318.88,-413 318.88,-446.5"/>
<text xml:space="preserve" text-anchor="start" x="207.38" y="-433" font-family="Helvetica,sans-Serif" font-size="10.00">TStringView&lt; TCHAR</text>
<text xml:space="preserve" text-anchor="middle" x="259.12" y="-420.25" font-family="Helvetica,sans-Serif" font-size="10.00"> &gt;::operator&lt;</text>
</a>
</g>
</g>
<!-- Node21&#45;&gt;Node22 -->
<g id="edge21_Node000021_Node000022" class="edge">
<title>Node21&#45;&gt;Node22</title>
<g id="a_edge21_Node000021_Node000022"><a xlink:title=" ">
<path fill="none" stroke="#63b8ff" d="M375.75,-414.31C356.89,-416.83 337.08,-419.48 319.29,-421.85"/>
<polygon fill="#63b8ff" stroke="#63b8ff" points="376.09,-417.8 385.53,-413.01 375.16,-410.86 376.09,-417.8"/>
</a>
</g>
</g>
<!-- Node23 -->
<g id="Node000023" class="node">
<title>Node23</title>
<g id="a_Node000023"><a xlink:href="$classTStringView.html#ae1c1535655ec614467729ccb0793b64f" xlink:title=" ">
<polygon fill="white" stroke="#666666" points="318.88,-394.5 199.38,-394.5 199.38,-361 318.88,-361 318.88,-394.5"/>
<text xml:space="preserve" text-anchor="start" x="207.38" y="-381" font-family="Helvetica,sans-Serif" font-size="10.00">TStringView&lt; TCHAR</text>
<text xml:space="preserve" text-anchor="middle" x="259.12" y="-368.25" font-family="Helvetica,sans-Serif" font-size="10.00"> &gt;::operator&lt;</text>
</a>
</g>
</g>
<!-- Node21&#45;&gt;Node23 -->
<g id="edge22_Node000021_Node000023" class="edge">
<title>Node21&#45;&gt;Node23</title>
<g id="a_edge22_Node000021_Node000023"><a xlink:title=" ">
<path fill="none" stroke="#63b8ff" d="M375.75,-393.19C356.89,-390.67 337.08,-388.02 319.29,-385.65"/>
<polygon fill="#63b8ff" stroke="#63b8ff" points="375.16,-396.64 385.53,-394.49 376.09,-389.7 375.16,-396.64"/>
</a>
</g>
</g>
<!-- Node25 -->
<g id="Node000025" class="node">
<title>Node25</title>
<g id="a_Node000025"><a xlink:href="$classTStringView.html#a62e64cda1d50afd68a2b528b3e1f7749" xlink:title=" ">
<polygon fill="white" stroke="#666666" points="322.25,-343.12 196,-343.12 196,-322.38 322.25,-322.38 322.25,-343.12"/>
<text xml:space="preserve" text-anchor="middle" x="259.12" y="-329.62" font-family="Helvetica,sans-Serif" font-size="10.00">TStringView::EndsWith</text>
</a>
</g>
</g>
<!-- Node24&#45;&gt;Node25 -->
<g id="edge24_Node000024_Node000025" class="edge">
<title>Node24&#45;&gt;Node25</title>
<g id="a_edge24_Node000024_Node000025"><a xlink:title=" ">
<path fill="none" stroke="#63b8ff" d="M391.2,-332.75C369.21,-332.75 344.61,-332.75 322.71,-332.75"/>
<polygon fill="#63b8ff" stroke="#63b8ff" points="390.92,-336.25 400.92,-332.75 390.92,-329.25 390.92,-336.25"/>
</a>
</g>
</g>
<!-- Node26 -->
<g id="Node000026" class="node">
<title>Node26</title>
<g id="a_Node000026"><a xlink:href="$classTStringView.html#a6045cb6e8acd514efd87b7c22129c7f2" xlink:title=" ">
<polygon fill="white" stroke="#666666" points="318.88,-304.5 199.38,-304.5 199.38,-271 318.88,-271 318.88,-304.5"/>
<text xml:space="preserve" text-anchor="start" x="207.38" y="-291" font-family="Helvetica,sans-Serif" font-size="10.00">TStringView&lt; TCHAR</text>
<text xml:space="preserve" text-anchor="middle" x="259.12" y="-278.25" font-family="Helvetica,sans-Serif" font-size="10.00"> &gt;::RightInline</text>
</a>
</g>
</g>
<!-- Node24&#45;&gt;Node26 -->
<g id="edge25_Node000024_Node000026" class="edge">
<title>Node24&#45;&gt;Node26</title>
<g id="a_edge25_Node000024_Node000026"><a xlink:title=" ">
<path fill="none" stroke="#63b8ff" d="M397.26,-319.44C372.69,-313.76 344.06,-307.14 319.32,-301.43"/>
<polygon fill="#63b8ff" stroke="#63b8ff" points="396.22,-322.79 406.75,-321.63 397.8,-315.97 396.22,-322.79"/>
</a>
</g>
</g>
<!-- Node28 -->
<g id="Node000028" class="node">
<title>Node28</title>
<g id="a_Node000028"><a xlink:href="$classTStringView.html#adbeb15525f32853e246d2dae3a12c2f8" xlink:title=" ">
<polygon fill="white" stroke="#666666" points="309.12,-253.12 209.12,-253.12 209.12,-232.38 309.12,-232.38 309.12,-253.12"/>
<text xml:space="preserve" text-anchor="middle" x="259.12" y="-239.62" font-family="Helvetica,sans-Serif" font-size="10.00">TStringView::Find</text>
</a>
</g>
</g>
<!-- Node27&#45;&gt;Node28 -->
<g id="edge27_Node000027_Node000028" class="edge">
<title>Node27&#45;&gt;Node28</title>
<g id="a_edge27_Node000027_Node000028"><a xlink:title=" ">
<path fill="none" stroke="#63b8ff" d="M378.78,-237.88C355.53,-238.83 330.59,-239.86 309.6,-240.72"/>
<polygon fill="#63b8ff" stroke="#63b8ff" points="378.67,-241.38 388.51,-237.48 378.38,-234.39 378.67,-241.38"/>
</a>
</g>
</g>
<!-- Node30 -->
<g id="Node000030" class="node">
<title>Node30</title>
<g id="a_Node000030"><a xlink:href="$namespaceUE_1_1String.html#a7268201a6b09ce0be36649662b689780" xlink:title=" ">
<polygon fill="white" stroke="#666666" points="338.38,-214.12 179.88,-214.12 179.88,-193.38 338.38,-193.38 338.38,-214.12"/>
<text xml:space="preserve" text-anchor="middle" x="259.12" y="-200.62" font-family="Helvetica,sans-Serif" font-size="10.00">UE::String::RemoveFromStart</text>
</a>
</g>
</g>
<!-- Node27&#45;&gt;Node30 -->
<g id="edge29_Node000027_Node000030" class="edge">
<title>Node27&#45;&gt;Node30</title>
<g id="a_edge29_Node000027_Node000030"><a xlink:title=" ">
<path fill="none" stroke="#63b8ff" d="M378.7,-222.62C362.1,-219.98 344.63,-217.2 328.36,-214.61"/>
<polygon fill="#63b8ff" stroke="#63b8ff" points="378.11,-226.07 388.53,-224.19 379.21,-219.16 378.11,-226.07"/>
</a>
</g>
</g>
<!-- Node31 -->
<g id="Node000031" class="node">
<title>Node31</title>
<g id="a_Node000031"><a xlink:href="$classTStringView.html#a12d2a9f4a14ddf1bd125009a69cc95e7" xlink:title=" ">
<polygon fill="white" stroke="#666666" points="318.88,-175.5 199.38,-175.5 199.38,-142 318.88,-142 318.88,-175.5"/>
<text xml:space="preserve" text-anchor="start" x="207.38" y="-162" font-family="Helvetica,sans-Serif" font-size="10.00">TStringView&lt; TCHAR</text>
<text xml:space="preserve" text-anchor="middle" x="259.12" y="-149.25" font-family="Helvetica,sans-Serif" font-size="10.00"> &gt;::RightChopInline</text>
</a>
</g>
</g>
<!-- Node27&#45;&gt;Node31 -->
<g id="edge30_Node000027_Node000031" class="edge">
<title>Node27&#45;&gt;Node31</title>
<g id="a_edge30_Node000027_Node000031"><a xlink:title=" ">
<path fill="none" stroke="#63b8ff" d="M421.45,-219.14C398.77,-208.81 367.99,-195.27 340.25,-184.75 332.32,-181.74 323.87,-178.76 315.54,-175.95"/>
<polygon fill="#63b8ff" stroke="#63b8ff" points="419.95,-222.31 430.5,-223.3 422.87,-215.94 419.95,-222.31"/>
</a>
</g>
</g>
<!-- Node29 -->
<g id="Node000029" class="node">
<title>Node29</title>
<g id="a_Node000029"><a xlink:href="$classTStringView.html#a6011c0a6c117741ccf21ee181a9dc3e5" xlink:title=" ">
<polygon fill="white" stroke="#666666" points="130.75,-259.5 11.25,-259.5 11.25,-226 130.75,-226 130.75,-259.5"/>
<text xml:space="preserve" text-anchor="start" x="19.25" y="-246" font-family="Helvetica,sans-Serif" font-size="10.00">TStringView&lt; TCHAR</text>
<text xml:space="preserve" text-anchor="middle" x="71" y="-233.25" font-family="Helvetica,sans-Serif" font-size="10.00"> &gt;::Contains</text>
</a>
</g>
</g>
<!-- Node28&#45;&gt;Node29 -->
<g id="edge28_Node000028_Node000029" class="edge">
<title>Node28&#45;&gt;Node29</title>
<g id="a_edge28_Node000028_Node000029"><a xlink:title=" ">
<path fill="none" stroke="#63b8ff" d="M197.25,-242.75C176.05,-242.75 152.3,-242.75 131.24,-242.75"/>
<polygon fill="#63b8ff" stroke="#63b8ff" points="197.22,-246.25 207.22,-242.75 197.22,-239.25 197.22,-246.25"/>
</a>
</g>
</g>
<!-- Node33 -->
<g id="Node000033" class="node">
<title>Node33</title>
<g id="a_Node000033"><a xlink:href="$classTStringView.html#ad11d5b65e92344d22de6808b6c9287c2" xlink:title=" ">
<polygon fill="white" stroke="#666666" points="318.88,-123.5 199.38,-123.5 199.38,-90 318.88,-90 318.88,-123.5"/>
<text xml:space="preserve" text-anchor="start" x="207.38" y="-110" font-family="Helvetica,sans-Serif" font-size="10.00">TStringView&lt; TCHAR</text>
<text xml:space="preserve" text-anchor="middle" x="259.12" y="-97.25" font-family="Helvetica,sans-Serif" font-size="10.00"> &gt;::TrimEndInline</text>
</a>
</g>
</g>
<!-- Node32&#45;&gt;Node33 -->
<g id="edge32_Node000032_Node000033" class="edge">
<title>Node32&#45;&gt;Node33</title>
<g id="a_edge32_Node000032_Node000033"><a xlink:title=" ">
<path fill="none" stroke="#63b8ff" d="M419.62,-164.49C397.09,-154.94 367.15,-142.61 340.25,-132.75 332.15,-129.78 323.53,-126.8 315.05,-123.97"/>
<polygon fill="#63b8ff" stroke="#63b8ff" points="418.08,-167.64 428.65,-168.34 420.83,-161.2 418.08,-167.64"/>
</a>
</g>
</g>
<!-- Node34&#45;&gt;Node35 -->
<g id="edge34_Node000034_Node000035" class="edge">
<title>Node34&#45;&gt;Node35</title>
<g id="a_edge34_Node000034_Node000035"><a xlink:title=" ">
<path fill="none" stroke="#63b8ff" d="M381.23,-61.75C367.94,-61.75 354.03,-61.75 340.56,-61.75"/>
<polygon fill="#63b8ff" stroke="#63b8ff" points="381.21,-65.25 391.21,-61.75 381.21,-58.25 381.21,-65.25"/>
</a>
</g>
</g>
<!-- Node37 -->
<g id="Node000037" class="node">
<title>Node37</title>
<g id="a_Node000037"><a xlink:href="$classTStringView.html#a702b54cac5df2c157d6e5a19fd22074e" xlink:title=" ">
<polygon fill="white" stroke="#666666" points="318.88,-33.5 199.38,-33.5 199.38,0 318.88,0 318.88,-33.5"/>
<text xml:space="preserve" text-anchor="start" x="207.38" y="-20" font-family="Helvetica,sans-Serif" font-size="10.00">TStringView&lt; TCHAR</text>
<text xml:space="preserve" text-anchor="middle" x="259.12" y="-7.25" font-family="Helvetica,sans-Serif" font-size="10.00"> &gt;::TrimStartInline</text>
</a>
</g>
</g>
<!-- Node34&#45;&gt;Node37 -->
<g id="edge36_Node000034_Node000037" class="edge">
<title>Node34&#45;&gt;Node37</title>
<g id="a_edge36_Node000034_Node000037"><a xlink:title=" ">
<path fill="none" stroke="#63b8ff" d="M397.26,-48.44C372.69,-42.76 344.06,-36.14 319.32,-30.43"/>
<polygon fill="#63b8ff" stroke="#63b8ff" points="396.22,-51.79 406.75,-50.63 397.8,-44.97 396.22,-51.79"/>
</a>
</g>
</g>
<!-- Node36 -->
<g id="Node000036" class="node">
<title>Node36</title>
<g id="a_Node000036"><a xlink:href="$classTStringView.html#a977ef66b22914e268349057e2c886882" xlink:title=" ">
<polygon fill="white" stroke="#666666" points="142,-78.5 0,-78.5 0,-45 142,-45 142,-78.5"/>
<text xml:space="preserve" text-anchor="start" x="8" y="-65" font-family="Helvetica,sans-Serif" font-size="10.00">TStringView&lt; TCHAR</text>
<text xml:space="preserve" text-anchor="middle" x="71" y="-52.25" font-family="Helvetica,sans-Serif" font-size="10.00"> &gt;::TrimStartAndEndInline</text>
</a>
</g>
</g>
<!-- Node35&#45;&gt;Node36 -->
<g id="edge35_Node000035_Node000036" class="edge">
<title>Node35&#45;&gt;Node36</title>
<g id="a_edge35_Node000035_Node000036"><a xlink:title=" ">
<path fill="none" stroke="#63b8ff" d="M166.28,-61.75C158.27,-61.75 150.24,-61.75 142.45,-61.75"/>
<polygon fill="#63b8ff" stroke="#63b8ff" points="166.06,-65.25 176.06,-61.75 166.06,-58.25 166.06,-65.25"/>
</a>
</g>
</g>
</g>
</svg>
