<?xml version="1.0" encoding="UTF-8" standalone="no"?>
<!DOCTYPE svg PUBLIC "-//W3C//DTD SVG 1.1//EN"
 "http://www.w3.org/Graphics/SVG/1.1/DTD/svg11.dtd">
<!-- Generated by graphviz version 14.1.4 (0)
 -->
<!-- Title: TRingBuffer::TRingBuffer Pages: 1 -->
<svg width="1579pt" height="370pt"
 viewBox="0.00 0.00 1579.00 370.00" xmlns="http://www.w3.org/2000/svg" xmlns:xlink="http://www.w3.org/1999/xlink">
<g id="graph0" class="graph" transform="scale(1 1) rotate(0) translate(4 365.67)">
<title>TRingBuffer::TRingBuffer</title>
<!-- Node1 -->
<g id="Node000001" class="node">
<title>Node1</title>
<g id="a_Node000001"><a xlink:title=" ">
<polygon fill="#999999" stroke="#666666" points="137.5,-32.38 0,-32.38 0,-11.62 137.5,-11.62 137.5,-32.38"/>
<text xml:space="preserve" text-anchor="middle" x="68.75" y="-18.88" font-family="Helvetica,sans-Serif" font-size="10.00">TRingBuffer::TRingBuffer</text>
</a>
</g>
</g>
<!-- Node2 -->
<g id="Node000002" class="node">
<title>Node2</title>
<g id="a_Node000002"><a xlink:href="$classTRingBuffer.html#afc0d4af47b8bdcdc564de8a0f981ca0e" xlink:title=" ">
<polygon fill="white" stroke="#666666" points="272,-77.38 173.5,-77.38 173.5,-56.62 272,-56.62 272,-77.38"/>
<text xml:space="preserve" text-anchor="middle" x="222.75" y="-63.88" font-family="Helvetica,sans-Serif" font-size="10.00">TRingBuffer::Add</text>
</a>
</g>
</g>
<!-- Node1&#45;&gt;Node2 -->
<g id="edge1_Node000001_Node000002" class="edge">
<title>Node1&#45;&gt;Node2</title>
<g id="a_edge1_Node000001_Node000002"><a xlink:title=" ">
<path fill="none" stroke="#63b8ff" d="M106.16,-32.78C126.59,-38.83 152.33,-46.45 174.33,-52.96"/>
<polygon fill="#63b8ff" stroke="#63b8ff" points="173.08,-56.24 183.66,-55.72 175.07,-49.53 173.08,-56.24"/>
</a>
</g>
</g>
<!-- Node14 -->
<g id="Node000014" class="node">
<title>Node14</title>
<g id="a_Node000014"><a xlink:href="$classTRingBuffer.html#a8c285901c0c99ff13fe22f8035b51cb0" xlink:title=" ">
<polygon fill="white" stroke="#666666" points="1570.5,-55.38 1433,-55.38 1433,-34.62 1570.5,-34.62 1570.5,-55.38"/>
<text xml:space="preserve" text-anchor="middle" x="1501.75" y="-41.88" font-family="Helvetica,sans-Serif" font-size="10.00">TRingBuffer::TRingBuffer</text>
</a>
</g>
</g>
<!-- Node1&#45;&gt;Node14 -->
<g id="edge27_Node000001_Node000014" class="edge">
<title>Node1&#45;&gt;Node14</title>
<g id="a_edge27_Node000001_Node000014"><a xlink:title=" ">
<path fill="none" stroke="#63b8ff" d="M137.73,-14.55C201.91,-8.17 300.87,0 387,0 387,0 387,0 1123.88,0 1233.09,0 1358.86,-18.86 1433.97,-32.16"/>
<polygon fill="#63b8ff" stroke="#63b8ff" points="1433.18,-35.58 1443.64,-33.9 1434.41,-28.69 1433.18,-35.58"/>
</a>
</g>
</g>
<!-- Node3 -->
<g id="Node000003" class="node">
<title>Node3</title>
<g id="a_Node000003"><a xlink:href="$classTRingBuffer.html#a5e16df156354a762285ba0f69c6e3260" xlink:title=" ">
<polygon fill="white" stroke="#666666" points="468,-98.38 308,-98.38 308,-77.62 468,-77.62 468,-98.38"/>
<text xml:space="preserve" text-anchor="middle" x="388" y="-84.88" font-family="Helvetica,sans-Serif" font-size="10.00">TRingBuffer::AddUninitialized</text>
</a>
</g>
</g>
<!-- Node2&#45;&gt;Node3 -->
<g id="edge2_Node000002_Node000003" class="edge">
<title>Node2&#45;&gt;Node3</title>
<g id="a_edge2_Node000002_Node000003"><a xlink:title=" ">
<path fill="none" stroke="#63b8ff" d="M272.29,-73.24C279.98,-74.23 288.14,-75.28 296.42,-76.35"/>
<polygon fill="#63b8ff" stroke="#63b8ff" points="295.9,-79.81 306.27,-77.61 296.79,-72.87 295.9,-79.81"/>
</a>
</g>
</g>
<!-- Node18 -->
<g id="Node000018" class="node">
<title>Node18</title>
<g id="a_Node000018"><a xlink:href="$classTRingBuffer.html#ac69e19bfd838e063c4ea5aab67cdb61d" xlink:title=" ">
<polygon fill="white" stroke="#666666" points="823.25,-61.75 675.25,-61.75 675.25,-28.25 823.25,-28.25 823.25,-61.75"/>
<text xml:space="preserve" text-anchor="start" x="683.25" y="-48.25" font-family="Helvetica,sans-Serif" font-size="10.00">TRingBuffer::GetAtIndexNo</text>
<text xml:space="preserve" text-anchor="middle" x="749.25" y="-35.5" font-family="Helvetica,sans-Serif" font-size="10.00">Check</text>
</a>
</g>
</g>
<!-- Node2&#45;&gt;Node18 -->
<g id="edge24_Node000002_Node000018" class="edge">
<title>Node2&#45;&gt;Node18</title>
<g id="a_edge24_Node000002_Node000018"><a xlink:title=" ">
<path fill="none" stroke="#63b8ff" d="M272.15,-64.97C361.31,-61.23 552.5,-53.21 663.56,-48.55"/>
<polygon fill="#63b8ff" stroke="#63b8ff" points="663.69,-52.05 673.53,-48.13 663.39,-45.06 663.69,-52.05"/>
</a>
</g>
</g>
<!-- Node19 -->
<g id="Node000019" class="node">
<title>Node19</title>
<g id="a_Node000019"><a xlink:href="$UnrealTemplate_8h.html#af100b15dc7208dfb10e5dae9e63fd425" xlink:title=" ">
<polygon fill="white" stroke="#666666" points="446.25,-137.38 329.75,-137.38 329.75,-116.62 446.25,-116.62 446.25,-137.38"/>
<text xml:space="preserve" text-anchor="middle" x="388" y="-123.88" font-family="Helvetica,sans-Serif" font-size="10.00">MoveTempIfPossible</text>
</a>
</g>
</g>
<!-- Node2&#45;&gt;Node19 -->
<g id="edge26_Node000002_Node000019" class="edge">
<title>Node2&#45;&gt;Node19</title>
<g id="a_edge26_Node000002_Node000019"><a xlink:title=" ">
<path fill="none" stroke="#63b8ff" d="M243.7,-77.84C260.48,-86.62 285.3,-98.83 308,-107 314.14,-109.21 320.63,-111.27 327.15,-113.17"/>
<polygon fill="#63b8ff" stroke="#63b8ff" points="326.06,-116.5 336.63,-115.8 327.93,-109.75 326.06,-116.5"/>
</a>
</g>
</g>
<!-- Node4 -->
<g id="Node000004" class="node">
<title>Node4</title>
<g id="a_Node000004"><a xlink:href="$classTRingBuffer.html#aab531adcc3b46e2524b492a937e9a4ce" xlink:title=" ">
<polygon fill="white" stroke="#666666" points="639.25,-151.75 504,-151.75 504,-118.25 639.25,-118.25 639.25,-151.75"/>
<text xml:space="preserve" text-anchor="start" x="512" y="-138.25" font-family="Helvetica,sans-Serif" font-size="10.00">TRingBuffer::Conditional</text>
<text xml:space="preserve" text-anchor="middle" x="571.62" y="-125.5" font-family="Helvetica,sans-Serif" font-size="10.00">IncrementCapacity</text>
</a>
</g>
</g>
<!-- Node3&#45;&gt;Node4 -->
<g id="edge3_Node000003_Node000004" class="edge">
<title>Node3&#45;&gt;Node4</title>
<g id="a_edge3_Node000003_Node000004"><a xlink:title=" ">
<path fill="none" stroke="#63b8ff" d="M432.07,-98.83C443.73,-101.78 456.36,-104.99 468,-108 476.62,-110.23 485.65,-112.57 494.62,-114.92"/>
<polygon fill="#63b8ff" stroke="#63b8ff" points="493.48,-118.24 504.04,-117.39 495.25,-111.47 493.48,-118.24"/>
</a>
</g>
</g>
<!-- Node17 -->
<g id="Node000017" class="node">
<title>Node17</title>
<g id="a_Node000017"><a xlink:href="$classTRingBuffer.html#a15b4c13937861b41854ce00000ffc290" xlink:title=" ">
<polygon fill="white" stroke="#666666" points="1000.5,-106.75 859.25,-106.75 859.25,-73.25 1000.5,-73.25 1000.5,-106.75"/>
<text xml:space="preserve" text-anchor="start" x="867.25" y="-93.25" font-family="Helvetica,sans-Serif" font-size="10.00">TRingBuffer::SlackTracker</text>
<text xml:space="preserve" text-anchor="middle" x="929.88" y="-80.5" font-family="Helvetica,sans-Serif" font-size="10.00">NumChanged</text>
</a>
</g>
</g>
<!-- Node3&#45;&gt;Node17 -->
<g id="edge22_Node000003_Node000017" class="edge">
<title>Node3&#45;&gt;Node17</title>
<g id="a_edge22_Node000003_Node000017"><a xlink:title=" ">
<path fill="none" stroke="#63b8ff" d="M468.37,-88.29C570.07,-88.67 745.44,-89.32 847.9,-89.7"/>
<polygon fill="#63b8ff" stroke="#63b8ff" points="847.59,-93.2 857.6,-89.74 847.61,-86.2 847.59,-93.2"/>
</a>
</g>
</g>
<!-- Node5 -->
<g id="Node000005" class="node">
<title>Node5</title>
<g id="a_Node000005"><a xlink:href="$classTRingBuffer.html#a5c37b30f4de47dfe15a368ba4c353568" xlink:title=" ">
<polygon fill="white" stroke="#666666" points="1174.38,-93.38 1071.38,-93.38 1071.38,-72.62 1174.38,-72.62 1174.38,-93.38"/>
<text xml:space="preserve" text-anchor="middle" x="1122.88" y="-79.88" font-family="Helvetica,sans-Serif" font-size="10.00">TRingBuffer::Num</text>
</a>
</g>
</g>
<!-- Node4&#45;&gt;Node5 -->
<g id="edge4_Node000004_Node000005" class="edge">
<title>Node4&#45;&gt;Node5</title>
<g id="a_edge4_Node000004_Node000005"><a xlink:title=" ">
<path fill="none" stroke="#63b8ff" d="M639.64,-139.64C724.78,-143.81 875.65,-145.4 1000.5,-116 1017.54,-111.99 1019.81,-105.3 1036.5,-100 1044.04,-97.61 1052.06,-95.48 1060.06,-93.61"/>
<polygon fill="#63b8ff" stroke="#63b8ff" points="1060.8,-97.04 1069.82,-91.47 1059.3,-90.2 1060.8,-97.04"/>
</a>
</g>
</g>
<!-- Node6 -->
<g id="Node000006" class="node">
<title>Node6</title>
<g id="a_Node000006"><a xlink:href="$classTRingBuffer.html#ad5afdf357d92063d22eeae51e6a0b66d" xlink:title=" ">
<polygon fill="white" stroke="#666666" points="809,-260.38 689.5,-260.38 689.5,-239.62 809,-239.62 809,-260.38"/>
<text xml:space="preserve" text-anchor="middle" x="749.25" y="-246.88" font-family="Helvetica,sans-Serif" font-size="10.00">TRingBuffer::Reserve</text>
</a>
</g>
</g>
<!-- Node4&#45;&gt;Node6 -->
<g id="edge5_Node000004_Node000006" class="edge">
<title>Node4&#45;&gt;Node6</title>
<g id="a_edge5_Node000004_Node000006"><a xlink:title=" ">
<path fill="none" stroke="#63b8ff" d="M598.92,-152.22C632.22,-174.02 689.24,-211.36 722.35,-233.04"/>
<polygon fill="#63b8ff" stroke="#63b8ff" points="720.26,-235.85 730.54,-238.4 724.09,-230 720.26,-235.85"/>
</a>
</g>
</g>
<!-- Node7 -->
<g id="Node000007" class="node">
<title>Node7</title>
<g id="a_Node000007"><a xlink:href="$classTRingBuffer.html#a841b0cf4b4a9b0ba7a1340fa47e50bb1" xlink:title=" ">
<polygon fill="white" stroke="#666666" points="1371.5,-298.38 1270.75,-298.38 1270.75,-277.62 1371.5,-277.62 1371.5,-298.38"/>
<text xml:space="preserve" text-anchor="middle" x="1321.12" y="-284.88" font-family="Helvetica,sans-Serif" font-size="10.00">TRingBuffer::Max</text>
</a>
</g>
</g>
<!-- Node6&#45;&gt;Node7 -->
<g id="edge6_Node000006_Node000007" class="edge">
<title>Node6&#45;&gt;Node7</title>
<g id="a_edge6_Node000006_Node000007"><a xlink:title=" ">
<path fill="none" stroke="#63b8ff" d="M770.68,-260.73C792.24,-271.73 827.45,-288.77 859.25,-300 1007.14,-352.21 1056.81,-381.89 1209.25,-345 1241.03,-337.31 1273.91,-318.84 1295.53,-305"/>
<polygon fill="#63b8ff" stroke="#63b8ff" points="1297.21,-308.09 1303.64,-299.66 1293.36,-302.24 1297.21,-308.09"/>
</a>
</g>
</g>
<!-- Node8 -->
<g id="Node000008" class="node">
<title>Node8</title>
<g id="a_Node000008"><a xlink:href="$classTRingBuffer.html#a58f96dab51dcdf981703af3cfc9da2fc" xlink:title=" ">
<polygon fill="white" stroke="#666666" points="1209.25,-336.38 1036.5,-336.38 1036.5,-315.62 1209.25,-315.62 1209.25,-336.38"/>
<text xml:space="preserve" text-anchor="middle" x="1122.88" y="-322.88" font-family="Helvetica,sans-Serif" font-size="10.00">TRingBuffer::NormalizeCapacity</text>
</a>
</g>
</g>
<!-- Node6&#45;&gt;Node8 -->
<g id="edge7_Node000006_Node000008" class="edge">
<title>Node6&#45;&gt;Node8</title>
<g id="a_edge7_Node000006_Node000008"><a xlink:title=" ">
<path fill="none" stroke="#63b8ff" d="M803.1,-260.81C870.15,-274.52 985.71,-298.15 1057.73,-312.88"/>
<polygon fill="#63b8ff" stroke="#63b8ff" points="1056.93,-316.29 1067.42,-314.86 1058.33,-309.43 1056.93,-316.29"/>
</a>
</g>
</g>
<!-- Node9 -->
<g id="Node000009" class="node">
<title>Node9</title>
<g id="a_Node000009"><a xlink:href="$classTRingBuffer.html#a40faf3a6ccf66edf23df3483f309d523" xlink:title=" ">
<polygon fill="white" stroke="#666666" points="995.62,-230.38 864.12,-230.38 864.12,-209.62 995.62,-209.62 995.62,-230.38"/>
<text xml:space="preserve" text-anchor="middle" x="929.88" y="-216.88" font-family="Helvetica,sans-Serif" font-size="10.00">TRingBuffer::Reallocate</text>
</a>
</g>
</g>
<!-- Node6&#45;&gt;Node9 -->
<g id="edge8_Node000006_Node000009" class="edge">
<title>Node6&#45;&gt;Node9</title>
<g id="a_edge8_Node000006_Node000009"><a xlink:title=" ">
<path fill="none" stroke="#63b8ff" d="M809.23,-240.09C823.32,-237.73 838.56,-235.17 853.28,-232.7"/>
<polygon fill="#63b8ff" stroke="#63b8ff" points="853.64,-236.19 862.92,-231.08 852.48,-229.28 853.64,-236.19"/>
</a>
</g>
</g>
<!-- Node9&#45;&gt;Node5 -->
<g id="edge21_Node000009_Node000005" class="edge">
<title>Node9&#45;&gt;Node5</title>
<g id="a_edge21_Node000009_Node000005"><a xlink:title=" ">
<path fill="none" stroke="#63b8ff" d="M941.96,-209.15C955.9,-195.41 980.43,-170.89 1000.5,-149 1017.12,-130.88 1015.78,-120.23 1036.5,-107 1043.72,-102.39 1051.83,-98.65 1060.11,-95.62"/>
<polygon fill="#63b8ff" stroke="#63b8ff" points="1061.18,-98.96 1069.59,-92.51 1058.99,-92.31 1061.18,-98.96"/>
</a>
</g>
</g>
<!-- Node9&#45;&gt;Node7 -->
<g id="edge18_Node000009_Node000007" class="edge">
<title>Node9&#45;&gt;Node7</title>
<g id="a_edge18_Node000009_Node000007"><a xlink:title=" ">
<path fill="none" stroke="#63b8ff" d="M948.81,-230.82C969.23,-242.55 1003.99,-260.68 1036.5,-269 1111.46,-288.19 1201,-291 1259.13,-290.3"/>
<polygon fill="#63b8ff" stroke="#63b8ff" points="1258.87,-293.8 1268.81,-290.14 1258.76,-286.8 1258.87,-293.8"/>
</a>
</g>
</g>
<!-- Node9&#45;&gt;Node8 -->
<g id="edge20_Node000009_Node000008" class="edge">
<title>Node9&#45;&gt;Node8</title>
<g id="a_edge20_Node000009_Node000008"><a xlink:title=" ">
<path fill="none" stroke="#63b8ff" d="M948.65,-230.77C963.1,-239.8 983.75,-253.39 1000.5,-267 1017.82,-281.08 1017.16,-290.86 1036.5,-302 1042.88,-305.67 1049.85,-308.81 1056.98,-311.49"/>
<polygon fill="#63b8ff" stroke="#63b8ff" points="1055.82,-314.79 1066.42,-314.71 1058.08,-308.17 1055.82,-314.79"/>
</a>
</g>
</g>
<!-- Node10 -->
<g id="Node000010" class="node">
<title>Node10</title>
<g id="a_Node000010"><a xlink:href="$classTRingBuffer.html#a207f4683db0ff774ffe850e793bac7b7" xlink:title=" ">
<polygon fill="white" stroke="#666666" points="1200.62,-259.75 1045.12,-259.75 1045.12,-226.25 1200.62,-226.25 1200.62,-259.75"/>
<text xml:space="preserve" text-anchor="start" x="1053.12" y="-246.25" font-family="Helvetica,sans-Serif" font-size="10.00">TRingBuffer::AllocatorResize</text>
<text xml:space="preserve" text-anchor="middle" x="1122.88" y="-233.5" font-family="Helvetica,sans-Serif" font-size="10.00">Allocation</text>
</a>
</g>
</g>
<!-- Node9&#45;&gt;Node10 -->
<g id="edge9_Node000009_Node000010" class="edge">
<title>Node9&#45;&gt;Node10</title>
<g id="a_edge9_Node000009_Node000010"><a xlink:title=" ">
<path fill="none" stroke="#63b8ff" d="M996.07,-227.85C1008.19,-229.31 1021.04,-230.86 1033.71,-232.38"/>
<polygon fill="#63b8ff" stroke="#63b8ff" points="1032.93,-235.81 1043.28,-233.54 1033.77,-228.86 1032.93,-235.81"/>
</a>
</g>
</g>
<!-- Node11 -->
<g id="Node000011" class="node">
<title>Node11</title>
<g id="a_Node000011"><a xlink:href="$classTRingBuffer.html#a7859abfc28865cfa7f653b915bb17885" xlink:title=" ">
<polygon fill="white" stroke="#666666" points="1198.75,-208.38 1047,-208.38 1047,-187.62 1198.75,-187.62 1198.75,-208.38"/>
<text xml:space="preserve" text-anchor="middle" x="1122.88" y="-194.88" font-family="Helvetica,sans-Serif" font-size="10.00">TRingBuffer::DestructRange</text>
</a>
</g>
</g>
<!-- Node9&#45;&gt;Node11 -->
<g id="edge10_Node000009_Node000011" class="edge">
<title>Node9&#45;&gt;Node11</title>
<g id="a_edge10_Node000009_Node000011"><a xlink:title=" ">
<path fill="none" stroke="#63b8ff" d="M996.07,-212.49C1008.82,-211.02 1022.37,-209.46 1035.68,-207.93"/>
<polygon fill="#63b8ff" stroke="#63b8ff" points="1035.74,-211.44 1045.28,-206.82 1034.94,-204.49 1035.74,-211.44"/>
</a>
</g>
</g>
<!-- Node13 -->
<g id="Node000013" class="node">
<title>Node13</title>
<g id="a_Node000013"><a xlink:href="$classTRingBuffer.html#ad7c20110073fd9f022ec9d9b668dd565" xlink:title=" ">
<polygon fill="white" stroke="#666666" points="1388.38,-100.38 1253.88,-100.38 1253.88,-79.62 1388.38,-79.62 1388.38,-100.38"/>
<text xml:space="preserve" text-anchor="middle" x="1321.12" y="-86.88" font-family="Helvetica,sans-Serif" font-size="10.00">TRingBuffer::GetStorage</text>
</a>
</g>
</g>
<!-- Node9&#45;&gt;Node13 -->
<g id="edge17_Node000009_Node000013" class="edge">
<title>Node9&#45;&gt;Node13</title>
<g id="a_edge17_Node000009_Node000013"><a xlink:title=" ">
<path fill="none" stroke="#63b8ff" d="M941.45,-209.16C959.29,-191.59 997.28,-157.11 1036.5,-140 1072.55,-124.27 1171.42,-108.99 1242.27,-99.55"/>
<polygon fill="#63b8ff" stroke="#63b8ff" points="1242.43,-103.06 1251.89,-98.28 1241.52,-96.12 1242.43,-103.06"/>
</a>
</g>
</g>
<!-- Node16 -->
<g id="Node000016" class="node">
<title>Node16</title>
<g id="a_Node000016"><a xlink:href="$UnrealTemplate_8h.html#a6affb55ac4c80f005e72b931da3d3a55" xlink:title=" ">
<polygon fill="white" stroke="#666666" points="1157.5,-169.38 1088.25,-169.38 1088.25,-148.62 1157.5,-148.62 1157.5,-169.38"/>
<text xml:space="preserve" text-anchor="middle" x="1122.88" y="-155.88" font-family="Helvetica,sans-Serif" font-size="10.00">MoveTemp</text>
</a>
</g>
</g>
<!-- Node9&#45;&gt;Node16 -->
<g id="edge19_Node000009_Node000016" class="edge">
<title>Node9&#45;&gt;Node16</title>
<g id="a_edge19_Node000009_Node000016"><a xlink:title=" ">
<path fill="none" stroke="#63b8ff" d="M955.71,-209.22C976.89,-200.3 1008.31,-187.72 1036.5,-179 1049.43,-175 1063.69,-171.36 1076.78,-168.32"/>
<polygon fill="#63b8ff" stroke="#63b8ff" points="1077.46,-171.75 1086.45,-166.14 1075.93,-164.92 1077.46,-171.75"/>
</a>
</g>
</g>
<!-- Node11&#45;&gt;Node7 -->
<g id="edge15_Node000011_Node000007" class="edge">
<title>Node11&#45;&gt;Node7</title>
<g id="a_edge15_Node000011_Node000007"><a xlink:title=" ">
<path fill="none" stroke="#63b8ff" d="M1184.86,-208.81C1193.2,-211.09 1201.54,-213.79 1209.25,-217 1213.82,-218.9 1262.99,-250.75 1294.29,-271.14"/>
<polygon fill="#63b8ff" stroke="#63b8ff" points="1292.19,-273.95 1302.48,-276.47 1296.02,-268.08 1292.19,-273.95"/>
</a>
</g>
</g>
<!-- Node12 -->
<g id="Node000012" class="node">
<title>Node12</title>
<g id="a_Node000012"><a xlink:href="$MemoryOps_8h.html#a64fb83a2ca369ceca2ff056d415ec2ed" xlink:title=" ">
<polygon fill="white" stroke="#666666" points="1363.62,-230.38 1278.62,-230.38 1278.62,-209.62 1363.62,-209.62 1363.62,-230.38"/>
<text xml:space="preserve" text-anchor="middle" x="1321.12" y="-216.88" font-family="Helvetica,sans-Serif" font-size="10.00">DestructItems</text>
</a>
</g>
</g>
<!-- Node11&#45;&gt;Node12 -->
<g id="edge11_Node000011_Node000012" class="edge">
<title>Node11&#45;&gt;Node12</title>
<g id="a_edge11_Node000011_Node000012"><a xlink:title=" ">
<path fill="none" stroke="#63b8ff" d="M1199.19,-206.44C1221.81,-208.98 1246.14,-211.71 1267,-214.04"/>
<polygon fill="#63b8ff" stroke="#63b8ff" points="1266.37,-217.5 1276.7,-215.13 1267.15,-210.54 1266.37,-217.5"/>
</a>
</g>
</g>
<!-- Node11&#45;&gt;Node13 -->
<g id="edge12_Node000011_Node000013" class="edge">
<title>Node11&#45;&gt;Node13</title>
<g id="a_edge12_Node000011_Node000013"><a xlink:title=" ">
<path fill="none" stroke="#63b8ff" d="M1185.21,-187.17C1193.49,-184.69 1201.73,-181.67 1209.25,-178 1227.71,-168.99 1229.18,-161.8 1245.25,-149 1262.66,-135.13 1282.45,-119.54 1297.31,-107.87"/>
<polygon fill="#63b8ff" stroke="#63b8ff" points="1299.39,-110.69 1305.1,-101.76 1295.07,-105.18 1299.39,-110.69"/>
</a>
</g>
</g>
<!-- Node15 -->
<g id="Node000015" class="node">
<title>Node15</title>
<g id="a_Node000015"><a xlink:href="$classTRingBuffer.html#a4ddd780cb625faa57f3eafa584b58e6e" xlink:title=" ">
<polygon fill="white" stroke="#666666" points="1397,-191.75 1245.25,-191.75 1245.25,-158.25 1397,-158.25 1397,-191.75"/>
<text xml:space="preserve" text-anchor="start" x="1253.25" y="-178.25" font-family="Helvetica,sans-Serif" font-size="10.00">TRingBuffer::NeedsDestruct</text>
<text xml:space="preserve" text-anchor="middle" x="1321.12" y="-165.5" font-family="Helvetica,sans-Serif" font-size="10.00">Elements</text>
</a>
</g>
</g>
<!-- Node11&#45;&gt;Node15 -->
<g id="edge16_Node000011_Node000015" class="edge">
<title>Node11&#45;&gt;Node15</title>
<g id="a_edge16_Node000011_Node000015"><a xlink:title=" ">
<path fill="none" stroke="#63b8ff" d="M1199.19,-189.17C1210.46,-187.85 1222.15,-186.48 1233.63,-185.14"/>
<polygon fill="#63b8ff" stroke="#63b8ff" points="1233.98,-188.62 1243.51,-183.98 1233.17,-181.67 1233.98,-188.62"/>
</a>
</g>
</g>
<!-- Node13&#45;&gt;Node13 -->
<g id="edge13_Node000013_Node000013" class="edge">
<title>Node13&#45;&gt;Node13</title>
<g id="a_edge13_Node000013_Node000013"><a xlink:title=" ">
<path fill="none" stroke="#63b8ff" d="M1292.02,-100.77C1280.38,-109.43 1290.08,-118.38 1321.12,-118.38 1338.1,-118.38 1348.7,-115.7 1352.91,-111.86"/>
<polygon fill="#63b8ff" stroke="#63b8ff" points="1356.34,-111.14 1350.59,-102.24 1349.53,-112.79 1356.34,-111.14"/>
</a>
</g>
</g>
<!-- Node13&#45;&gt;Node14 -->
<g id="edge14_Node000013_Node000014" class="edge">
<title>Node13&#45;&gt;Node14</title>
<g id="a_edge14_Node000013_Node000014"><a xlink:title=" ">
<path fill="none" stroke="#63b8ff" d="M1364.91,-79.22C1389.47,-73.03 1420.55,-65.2 1446.78,-58.6"/>
<polygon fill="#63b8ff" stroke="#63b8ff" points="1447.39,-62.05 1456.23,-56.22 1445.68,-55.27 1447.39,-62.05"/>
</a>
</g>
</g>
<!-- Node17&#45;&gt;Node5 -->
<g id="edge23_Node000017_Node000005" class="edge">
<title>Node17&#45;&gt;Node5</title>
<g id="a_edge23_Node000017_Node000005"><a xlink:title=" ">
<path fill="none" stroke="#63b8ff" d="M1000.91,-87.43C1020.13,-86.73 1040.84,-85.97 1059.59,-85.28"/>
<polygon fill="#63b8ff" stroke="#63b8ff" points="1059.61,-88.78 1069.47,-84.92 1059.35,-81.79 1059.61,-88.78"/>
</a>
</g>
</g>
<!-- Node18&#45;&gt;Node13 -->
<g id="edge25_Node000018_Node000013" class="edge">
<title>Node18&#45;&gt;Node13</title>
<g id="a_edge25_Node000018_Node000013"><a xlink:title=" ">
<path fill="none" stroke="#63b8ff" d="M823.36,-43.79C914.25,-43.25 1073.93,-45.5 1209.25,-64 1229.62,-66.78 1251.74,-71.6 1270.83,-76.33"/>
<polygon fill="#63b8ff" stroke="#63b8ff" points="1269.95,-79.72 1280.51,-78.8 1271.68,-72.94 1269.95,-79.72"/>
</a>
</g>
</g>
</g>
</svg>
