<?xml version="1.0" encoding="UTF-8" standalone="no"?>
<!DOCTYPE svg PUBLIC "-//W3C//DTD SVG 1.1//EN"
 "http://www.w3.org/Graphics/SVG/1.1/DTD/svg11.dtd">
<!-- Generated by graphviz version 14.1.4 (0)
 -->
<!-- Title: UE_STRING_CLASS::ReplaceQuotesWithEscapedQuotes Pages: 1 -->
<svg width="325pt" height="80pt"
 viewBox="0.00 0.00 325.00 80.00" xmlns="http://www.w3.org/2000/svg" xmlns:xlink="http://www.w3.org/1999/xlink">
<g id="graph0" class="graph" transform="scale(1 1) rotate(0) translate(4 76.12)">
<title>UE_STRING_CLASS::ReplaceQuotesWithEscapedQuotes</title>
<!-- Node1 -->
<g id="Node000001" class="node">
<title>Node1</title>
<g id="a_Node000001"><a xlink:title=" ">
<polygon fill="#999999" stroke="#666666" points="153.25,-55.5 0,-55.5 0,-22 153.25,-22 153.25,-55.5"/>
<text xml:space="preserve" text-anchor="start" x="8" y="-42" font-family="Helvetica,sans-Serif" font-size="10.00">UE_STRING_CLASS::Replace</text>
<text xml:space="preserve" text-anchor="middle" x="76.62" y="-29.25" font-family="Helvetica,sans-Serif" font-size="10.00">QuotesWithEscapedQuotes</text>
</a>
</g>
</g>
<!-- Node2 -->
<g id="Node000002" class="node">
<title>Node2</title>
<g id="a_Node000002"><a xlink:href="$UnrealTemplate_8h.html#a6affb55ac4c80f005e72b931da3d3a55" xlink:title=" ">
<polygon fill="white" stroke="#666666" points="287.75,-72.12 218.5,-72.12 218.5,-51.38 287.75,-51.38 287.75,-72.12"/>
<text xml:space="preserve" text-anchor="middle" x="253.12" y="-58.62" font-family="Helvetica,sans-Serif" font-size="10.00">MoveTemp</text>
</a>
</g>
</g>
<!-- Node1&#45;&gt;Node2 -->
<g id="edge1_Node000001_Node000002" class="edge">
<title>Node1&#45;&gt;Node2</title>
<g id="a_edge1_Node000001_Node000002"><a xlink:title=" ">
<path fill="none" stroke="#63b8ff" d="M153.66,-48.77C171.84,-51.17 190.68,-53.65 206.95,-55.8"/>
<polygon fill="#63b8ff" stroke="#63b8ff" points="206.43,-59.26 216.8,-57.09 207.34,-52.32 206.43,-59.26"/>
</a>
</g>
</g>
<!-- Node3 -->
<g id="Node000003" class="node">
<title>Node3</title>
<g id="a_Node000003"><a xlink:href="$classUE__STRING__CLASS.html#a9fdb8a03064b85ab5477b07adeb213c9" xlink:title=" ">
<polygon fill="white" stroke="#666666" points="317,-33.5 189.25,-33.5 189.25,0 317,0 317,-33.5"/>
<text xml:space="preserve" text-anchor="start" x="197.25" y="-20" font-family="Helvetica,sans-Serif" font-size="10.00">UE_STRING_CLASS::UE</text>
<text xml:space="preserve" text-anchor="middle" x="253.12" y="-7.25" font-family="Helvetica,sans-Serif" font-size="10.00">_STRING_CLASS</text>
</a>
</g>
</g>
<!-- Node1&#45;&gt;Node3 -->
<g id="edge2_Node000001_Node000003" class="edge">
<title>Node1&#45;&gt;Node3</title>
<g id="a_edge2_Node000001_Node000003"><a xlink:title=" ">
<path fill="none" stroke="#63b8ff" d="M153.66,-29.16C161.55,-28.17 169.58,-27.16 177.46,-26.16"/>
<polygon fill="#63b8ff" stroke="#63b8ff" points="177.89,-29.64 187.38,-24.91 177.02,-22.69 177.89,-29.64"/>
</a>
</g>
</g>
</g>
</svg>
