<?xml version="1.0" encoding="UTF-8" standalone="no"?>
<!DOCTYPE svg PUBLIC "-//W3C//DTD SVG 1.1//EN"
 "http://www.w3.org/Graphics/SVG/1.1/DTD/svg11.dtd">
<!-- Generated by graphviz version 14.1.4 (0)
 -->
<!-- Title: USoundWave::GetCompressedData Pages: 1 -->
<svg width="443pt" height="80pt"
 viewBox="0.00 0.00 443.00 80.00" xmlns="http://www.w3.org/2000/svg" xmlns:xlink="http://www.w3.org/1999/xlink">
<g id="graph0" class="graph" transform="scale(1 1) rotate(0) translate(4 76.12)">
<title>USoundWave::GetCompressedData</title>
<!-- Node1 -->
<g id="Node000001" class="node">
<title>Node1</title>
<g id="a_Node000001"><a xlink:title=" ">
<polygon fill="#999999" stroke="#666666" points="188.5,-42.75 0,-42.75 0,-22 188.5,-22 188.5,-42.75"/>
<text xml:space="preserve" text-anchor="middle" x="94.25" y="-29.25" font-family="Helvetica,sans-Serif" font-size="10.00">USoundWave::GetCompressedData</text>
</a>
</g>
</g>
<!-- Node2 -->
<g id="Node000002" class="node">
<title>Node2</title>
<g id="a_Node000002"><a xlink:href="classUSoundWave.html#af8a9468a92b89da9c03cb7ad978479b7" target="_top" xlink:title=" ">
<polygon fill="white" stroke="#666666" points="434.75,-72.12 224.5,-72.12 224.5,-38.62 434.75,-38.62 434.75,-72.12"/>
<text xml:space="preserve" text-anchor="start" x="232.5" y="-58.62" font-family="Helvetica,sans-Serif" font-size="10.00">USoundWave::GetPlatformCompression</text>
<text xml:space="preserve" text-anchor="middle" x="329.62" y="-45.88" font-family="Helvetica,sans-Serif" font-size="10.00">OverridesForCurrentPlatform</text>
</a>
</g>
</g>
<!-- Node1&#45;&gt;Node2 -->
<g id="edge1_Node000001_Node000002" class="edge">
<title>Node1&#45;&gt;Node2</title>
<g id="a_edge1_Node000001_Node000002"><a xlink:title=" ">
<path fill="none" stroke="#63b8ff" d="M188.83,-41.6C196.76,-42.38 204.84,-43.18 212.91,-43.97"/>
<polygon fill="#63b8ff" stroke="#63b8ff" points="212.5,-47.45 222.79,-44.94 213.18,-40.48 212.5,-47.45"/>
</a>
</g>
</g>
<!-- Node3 -->
<g id="Node000003" class="node">
<title>Node3</title>
<g id="a_Node000003"><a xlink:href="classUSoundWave.html#ab5947ad471ed5ba5875842eaa59a94e6" target="_top" xlink:title=" ">
<polygon fill="white" stroke="#666666" points="422.75,-20.75 236.5,-20.75 236.5,0 422.75,0 422.75,-20.75"/>
<text xml:space="preserve" text-anchor="middle" x="329.62" y="-7.25" font-family="Helvetica,sans-Serif" font-size="10.00">USoundWave::GetRunningPlatform</text>
</a>
</g>
</g>
<!-- Node1&#45;&gt;Node3 -->
<g id="edge2_Node000001_Node000003" class="edge">
<title>Node1&#45;&gt;Node3</title>
<g id="a_edge2_Node000001_Node000003"><a xlink:title=" ">
<path fill="none" stroke="#63b8ff" d="M188.83,-23.55C200.65,-22.44 212.8,-21.29 224.77,-20.17"/>
<polygon fill="#63b8ff" stroke="#63b8ff" points="225.03,-23.66 234.66,-19.23 224.38,-16.69 225.03,-23.66"/>
</a>
</g>
</g>
</g>
</svg>
