<?xml version="1.0" encoding="UTF-8" standalone="no"?>
<!DOCTYPE svg PUBLIC "-//W3C//DTD SVG 1.1//EN"
 "http://www.w3.org/Graphics/SVG/1.1/DTD/svg11.dtd">
<!-- Generated by graphviz version 14.1.4 (0)
 -->
<!-- Title: UE::Tasks::Private::FTaskBase::FSubsequents::Close Pages: 1 -->
<svg width="261pt" height="72pt"
 viewBox="0.00 0.00 261.00 72.00" xmlns="http://www.w3.org/2000/svg" xmlns:xlink="http://www.w3.org/1999/xlink">
<g id="graph0" class="graph" transform="scale(1 1) rotate(0) translate(4 68.25)">
<title>UE::Tasks::Private::FTaskBase::FSubsequents::Close</title>
<!-- Node1 -->
<g id="Node000001" class="node">
<title>Node1</title>
<g id="a_Node000001"><a xlink:title=" ">
<polygon fill="#999999" stroke="#666666" points="148,-46.25 0,-46.25 0,0 148,0 148,-46.25"/>
<text xml:space="preserve" text-anchor="start" x="8" y="-32.75" font-family="Helvetica,sans-Serif" font-size="10.00">UE::Tasks::Private</text>
<text xml:space="preserve" text-anchor="start" x="8" y="-20" font-family="Helvetica,sans-Serif" font-size="10.00">::FTaskBase::FSubsequents</text>
<text xml:space="preserve" text-anchor="middle" x="74" y="-7.25" font-family="Helvetica,sans-Serif" font-size="10.00">::Close</text>
</a>
</g>
</g>
<!-- Node1&#45;&gt;Node1 -->
<g id="edge1_Node000001_Node000001" class="edge">
<title>Node1&#45;&gt;Node1</title>
<g id="a_edge1_Node000001_Node000001"><a xlink:title=" ">
<path fill="none" stroke="#63b8ff" d="M47.12,-46.38C45.27,-56.05 54.23,-64.25 74,-64.25 85.43,-64.25 93.25,-61.51 97.45,-57.33"/>
<polygon fill="#63b8ff" stroke="#63b8ff" points="100.78,-58.41 100.43,-47.82 94.1,-56.32 100.78,-58.41"/>
</a>
</g>
</g>
<!-- Node2 -->
<g id="Node000002" class="node">
<title>Node2</title>
<g id="a_Node000002"><a xlink:href="$UnrealTemplate_8h.html#a6affb55ac4c80f005e72b931da3d3a55" xlink:title=" ">
<polygon fill="white" stroke="#666666" points="253.25,-33.5 184,-33.5 184,-12.75 253.25,-12.75 253.25,-33.5"/>
<text xml:space="preserve" text-anchor="middle" x="218.62" y="-20" font-family="Helvetica,sans-Serif" font-size="10.00">MoveTemp</text>
</a>
</g>
</g>
<!-- Node1&#45;&gt;Node2 -->
<g id="edge2_Node000001_Node000002" class="edge">
<title>Node1&#45;&gt;Node2</title>
<g id="a_edge2_Node000001_Node000002"><a xlink:title=" ">
<path fill="none" stroke="#63b8ff" d="M148.4,-23.12C156.46,-23.12 164.49,-23.12 172.07,-23.12"/>
<polygon fill="#63b8ff" stroke="#63b8ff" points="172.04,-26.63 182.04,-23.13 172.04,-19.63 172.04,-26.63"/>
</a>
</g>
</g>
</g>
</svg>
