<?xml version="1.0" encoding="UTF-8" standalone="no"?>
<!DOCTYPE svg PUBLIC "-//W3C//DTD SVG 1.1//EN"
 "http://www.w3.org/Graphics/SVG/1.1/DTD/svg11.dtd">
<!-- Generated by graphviz version 14.1.4 (0)
 -->
<!-- Title: UKismetInternationalizationLibrary Pages: 1 -->
<svg width="189pt" height="423pt"
 viewBox="0.00 0.00 189.00 423.00" xmlns="http://www.w3.org/2000/svg" xmlns:xlink="http://www.w3.org/1999/xlink">

<svg id="main" version="1.1" xmlns="http://www.w3.org/2000/svg" xmlns:xlink="http://www.w3.org/1999/xlink" xml:space="preserve">

<style type="text/css"><![CDATA[
.node, .edge {opacity: 0.7;}
.node.selected, .edge.selected {opacity: 1;}
.edge:hover path { stroke: red; }
.edge:hover polygon { stroke: red; fill: red; }
]]></style>
<script type="application/ecmascript" xlink:href="svg.min.js"/>
<svg id="graph" class="graph">
<g id="graph0" class="graph" transform="scale(1 1) rotate(0) translate(4 419)">
<title>UKismetInternationalizationLibrary</title>
<!-- Node1 -->
<g id="Node000001" class="node">
<title>Node1</title>
<g id="a_Node000001"><a xlink:title=" ">
<polygon fill="#999999" stroke="none" points="180.75,-234.5 0,-234.5 0,0 180.75,0 180.75,-234.5"/>
<text xml:space="preserve" text-anchor="start" x="21.75" y="-220.75" font-family="Helvetica,sans-Serif" font-size="10.00">UKismetInternationalization</text>
<text xml:space="preserve" text-anchor="start" x="73.5" y="-208" font-family="Helvetica,sans-Serif" font-size="10.00">Library</text>
<text xml:space="preserve" text-anchor="start" x="87.38" y="-191.25" font-family="Helvetica,sans-Serif" font-size="10.00"> </text>
<text xml:space="preserve" text-anchor="start" x="4" y="-174.5" font-family="Helvetica,sans-Serif" font-size="10.00">+</text>
<text xml:space="preserve" text-anchor="start" x="16.25" y="-174.5" font-family="Helvetica,sans-Serif" font-size="10.00">SetCurrentCulture()</text>
<text xml:space="preserve" text-anchor="start" x="4" y="-157.75" font-family="Helvetica,sans-Serif" font-size="10.00">+</text>
<text xml:space="preserve" text-anchor="start" x="16.25" y="-157.75" font-family="Helvetica,sans-Serif" font-size="10.00">GetCurrentCulture()</text>
<text xml:space="preserve" text-anchor="start" x="4" y="-141" font-family="Helvetica,sans-Serif" font-size="10.00">+</text>
<text xml:space="preserve" text-anchor="start" x="16.25" y="-141" font-family="Helvetica,sans-Serif" font-size="10.00">SetCurrentLanguage()</text>
<text xml:space="preserve" text-anchor="start" x="4" y="-124.25" font-family="Helvetica,sans-Serif" font-size="10.00">+</text>
<text xml:space="preserve" text-anchor="start" x="16.25" y="-124.25" font-family="Helvetica,sans-Serif" font-size="10.00">GetCurrentLanguage()</text>
<text xml:space="preserve" text-anchor="start" x="4" y="-107.5" font-family="Helvetica,sans-Serif" font-size="10.00">+</text>
<text xml:space="preserve" text-anchor="start" x="16.25" y="-107.5" font-family="Helvetica,sans-Serif" font-size="10.00">SetCurrentLocale()</text>
<text xml:space="preserve" text-anchor="start" x="4" y="-90.75" font-family="Helvetica,sans-Serif" font-size="10.00">+</text>
<text xml:space="preserve" text-anchor="start" x="16.25" y="-90.75" font-family="Helvetica,sans-Serif" font-size="10.00">GetCurrentLocale()</text>
<text xml:space="preserve" text-anchor="start" x="4" y="-74" font-family="Helvetica,sans-Serif" font-size="10.00">+</text>
<text xml:space="preserve" text-anchor="start" x="16.25" y="-74" font-family="Helvetica,sans-Serif" font-size="10.00">SetCurrentLanguageAndLocale()</text>
<text xml:space="preserve" text-anchor="start" x="4" y="-57.25" font-family="Helvetica,sans-Serif" font-size="10.00">+</text>
<text xml:space="preserve" text-anchor="start" x="16.25" y="-57.25" font-family="Helvetica,sans-Serif" font-size="10.00">SetCurrentAssetGroupCulture()</text>
<text xml:space="preserve" text-anchor="start" x="4" y="-40.5" font-family="Helvetica,sans-Serif" font-size="10.00">+</text>
<text xml:space="preserve" text-anchor="start" x="16.25" y="-40.5" font-family="Helvetica,sans-Serif" font-size="10.00">GetCurrentAssetGroupCulture()</text>
<text xml:space="preserve" text-anchor="start" x="4" y="-23.75" font-family="Helvetica,sans-Serif" font-size="10.00">+</text>
<text xml:space="preserve" text-anchor="start" x="16.25" y="-23.75" font-family="Helvetica,sans-Serif" font-size="10.00">ClearCurrentAssetGroupCulture()</text>
<text xml:space="preserve" text-anchor="start" x="16.25" y="-7" font-family="Helvetica,sans-Serif" font-size="10.00">and 6 more...</text>
<polygon fill="#666666" stroke="#666666" points="0,-203 0,-203 180.75,-203 180.75,-203 0,-203"/>
<polygon fill="#666666" stroke="#666666" points="0,-186.25 0,-186.25 180.75,-186.25 180.75,-186.25 0,-186.25"/>
<polygon fill="none" stroke="#666666" points="0,0 0,-234.5 180.75,-234.5 180.75,0 0,0"/>
</a>
</g>
</g>
<!-- Node2 -->
<g id="Node000002" class="node">
<title>Node2</title>
<g id="a_Node000002"><a xlink:href="classUBlueprintFunctionLibrary.html" target="_top" xlink:title=" ">
<polygon fill="white" stroke="none" points="157.75,-324.75 23,-324.75 23,-270.5 157.75,-270.5 157.75,-324.75"/>
<text xml:space="preserve" text-anchor="start" x="27" y="-311" font-family="Helvetica,sans-Serif" font-size="10.00">UBlueprintFunctionLibrary</text>
<text xml:space="preserve" text-anchor="start" x="87.38" y="-294.25" font-family="Helvetica,sans-Serif" font-size="10.00"> </text>
<text xml:space="preserve" text-anchor="start" x="28.44" y="-277.5" font-family="Helvetica,sans-Serif" font-size="10.00">&#45;</text>
<text xml:space="preserve" text-anchor="start" x="37.62" y="-277.5" font-family="Helvetica,sans-Serif" font-size="10.00">GetFunctionCallspace()</text>
<polygon fill="#666666" stroke="#666666" points="23,-306 23,-306 157.75,-306 157.75,-306 23,-306"/>
<polygon fill="#666666" stroke="#666666" points="23,-289.25 23,-289.25 157.75,-289.25 157.75,-289.25 23,-289.25"/>
<polygon fill="none" stroke="#666666" points="23,-270.5 23,-324.75 157.75,-324.75 157.75,-270.5 23,-270.5"/>
</a>
</g>
</g>
<!-- Node2&#45;&gt;Node1 -->
<g id="edge1_Node000001_Node000002" class="edge">
<title>Node2&#45;&gt;Node1</title>
<g id="a_edge1_Node000001_Node000002"><a xlink:title=" ">
<path fill="none" stroke="#63b8ff" d="M90.38,-259.37C90.38,-251.72 90.38,-243.29 90.38,-234.47"/>
<polygon fill="none" stroke="#63b8ff" points="86.88,-259.17 90.38,-269.17 93.88,-259.17 86.88,-259.17"/>
</a>
</g>
</g>
<!-- Node3 -->
<g id="Node000003" class="node">
<title>Node3</title>
<g id="a_Node000003"><a xlink:title=" ">
<polygon fill="white" stroke="none" points="113.88,-415 66.88,-415 66.88,-360.75 113.88,-360.75 113.88,-415"/>
<text xml:space="preserve" text-anchor="start" x="70.88" y="-401.25" font-family="Helvetica,sans-Serif" font-size="10.00">UObject</text>
<text xml:space="preserve" text-anchor="start" x="87.38" y="-384.5" font-family="Helvetica,sans-Serif" font-size="10.00"> </text>
<text xml:space="preserve" text-anchor="start" x="87.38" y="-367.75" font-family="Helvetica,sans-Serif" font-size="10.00"> </text>
<polygon fill="#666666" stroke="#666666" points="66.88,-396.25 66.88,-396.25 113.88,-396.25 113.88,-396.25 66.88,-396.25"/>
<polygon fill="#666666" stroke="#666666" points="66.88,-379.5 66.88,-379.5 113.88,-379.5 113.88,-379.5 66.88,-379.5"/>
<polygon fill="none" stroke="#666666" points="66.88,-360.75 66.88,-415 113.88,-415 113.88,-360.75 66.88,-360.75"/>
</a>
</g>
</g>
<!-- Node3&#45;&gt;Node2 -->
<g id="edge2_Node000002_Node000003" class="edge">
<title>Node3&#45;&gt;Node2</title>
<g id="a_edge2_Node000002_Node000003"><a xlink:title=" ">
<path fill="none" stroke="#63b8ff" d="M90.38,-349.46C90.38,-341.14 90.38,-332.49 90.38,-324.74"/>
<polygon fill="none" stroke="#63b8ff" points="86.88,-349.36 90.38,-359.36 93.88,-349.36 86.88,-349.36"/>
</a>
</g>
</g>
</g>
</svg>
</svg>

<style type='text/css'>
<![CDATA[
[data-mouse-over-selected='false'] { opacity: 0.7; }
[data-mouse-over-selected='true']  { opacity: 1.0; }
]]>
</style>
<script type="application/ecmascript"><![CDATA[
document.addEventListener('DOMContentLoaded', (event) => {
  highlightEdges();
  highlightAdjacentNodes();
});
]]></script>
</svg>
