<?xml version="1.0" encoding="UTF-8" standalone="no"?>
<!DOCTYPE svg PUBLIC "-//W3C//DTD SVG 1.1//EN"
 "http://www.w3.org/Graphics/SVG/1.1/DTD/svg11.dtd">
<!-- Generated by graphviz version 14.1.4 (0)
 -->
<!-- Title: IPlatformFile::IPlatformFile Pages: 1 -->
<svg width="562pt" height="1026pt"
 viewBox="0.00 0.00 562.00 1026.00" xmlns="http://www.w3.org/2000/svg" xmlns:xlink="http://www.w3.org/1999/xlink">
<g id="graph0" class="graph" transform="scale(1 1) rotate(0) translate(4 1022.12)">
<title>IPlatformFile::IPlatformFile</title>
<!-- Node1 -->
<g id="Node000001" class="node">
<title>Node1</title>
<g id="a_Node000001"><a xlink:title=" ">
<polygon fill="#999999" stroke="#666666" points="554.25,-512.75 409.25,-512.75 409.25,-492 554.25,-492 554.25,-512.75"/>
<text xml:space="preserve" text-anchor="middle" x="481.75" y="-499.25" font-family="Helvetica,sans-Serif" font-size="10.00">IPlatformFile::IPlatformFile</text>
</a>
</g>
</g>
<!-- Node2 -->
<g id="Node000002" class="node">
<title>Node2</title>
<g id="a_Node000002"><a xlink:href="$classFCachedReadPlatformFile.html#a03afa680a8a56def974f9bad27509ef3" xlink:title=" ">
<polygon fill="white" stroke="#666666" points="365.75,-1018.12 224.5,-1018.12 224.5,-984.62 365.75,-984.62 365.75,-1018.12"/>
<text xml:space="preserve" text-anchor="start" x="232.5" y="-1004.62" font-family="Helvetica,sans-Serif" font-size="10.00">FCachedReadPlatformFile</text>
<text xml:space="preserve" text-anchor="middle" x="295.12" y="-991.88" font-family="Helvetica,sans-Serif" font-size="10.00">::GetLowerLevel</text>
</a>
</g>
</g>
<!-- Node1&#45;&gt;Node2 -->
<g id="edge1_Node000001_Node000002" class="edge">
<title>Node1&#45;&gt;Node2</title>
<g id="a_edge1_Node000001_Node000002"><a xlink:title=" ">
<path fill="none" stroke="#63b8ff" d="M478.59,-524.3C469.94,-608.09 435.2,-906.79 373.25,-975.38 370.22,-978.73 366.74,-981.65 362.97,-984.2"/>
<polygon fill="#63b8ff" stroke="#63b8ff" points="482.07,-524.77 479.59,-514.47 475.1,-524.07 482.07,-524.77"/>
</a>
</g>
</g>
<!-- Node3 -->
<g id="Node000003" class="node">
<title>Node3</title>
<g id="a_Node000003"><a xlink:href="$classFLoggedPlatformFile.html#a12206394e0d276627d6064101beb09b1" xlink:title=" ">
<polygon fill="white" stroke="#666666" points="353,-966.12 237.25,-966.12 237.25,-932.62 353,-932.62 353,-966.12"/>
<text xml:space="preserve" text-anchor="start" x="245.25" y="-952.62" font-family="Helvetica,sans-Serif" font-size="10.00">FLoggedPlatformFile</text>
<text xml:space="preserve" text-anchor="middle" x="295.12" y="-939.88" font-family="Helvetica,sans-Serif" font-size="10.00">::GetLowerLevel</text>
</a>
</g>
</g>
<!-- Node1&#45;&gt;Node3 -->
<g id="edge2_Node000001_Node000003" class="edge">
<title>Node1&#45;&gt;Node3</title>
<g id="a_edge2_Node000001_Node000003"><a xlink:title=" ">
<path fill="none" stroke="#63b8ff" d="M477.96,-524.11C467.59,-601.64 429.01,-863.26 373.25,-923.38 367.68,-929.38 360.67,-934 353.17,-937.56"/>
<polygon fill="#63b8ff" stroke="#63b8ff" points="481.4,-524.81 479.23,-514.44 474.46,-523.89 481.4,-524.81"/>
</a>
</g>
</g>
<!-- Node4 -->
<g id="Node000004" class="node">
<title>Node4</title>
<g id="a_Node000004"><a xlink:href="$classFPlatformFileOpenLog.html#a667ba8b68e9c2939ad068785040021d8" xlink:title=" ">
<polygon fill="white" stroke="#666666" points="356.75,-914.12 233.5,-914.12 233.5,-880.62 356.75,-880.62 356.75,-914.12"/>
<text xml:space="preserve" text-anchor="start" x="241.5" y="-900.62" font-family="Helvetica,sans-Serif" font-size="10.00">FPlatformFileOpenLog</text>
<text xml:space="preserve" text-anchor="middle" x="295.12" y="-887.88" font-family="Helvetica,sans-Serif" font-size="10.00">::GetLowerLevel</text>
</a>
</g>
</g>
<!-- Node1&#45;&gt;Node4 -->
<g id="edge3_Node000001_Node000004" class="edge">
<title>Node1&#45;&gt;Node4</title>
<g id="a_edge3_Node000001_Node000004"><a xlink:title=" ">
<path fill="none" stroke="#63b8ff" d="M480.98,-524.43C480.4,-587.49 470.04,-770.46 373.25,-871.38 368.65,-876.17 363.14,-880.08 357.21,-883.27"/>
<polygon fill="#63b8ff" stroke="#63b8ff" points="484.48,-524.69 480.98,-514.69 477.48,-524.69 484.48,-524.69"/>
</a>
</g>
</g>
<!-- Node5 -->
<g id="Node000005" class="node">
<title>Node5</title>
<g id="a_Node000005"><a xlink:href="$classIPhysicalPlatformFile.html#aa1d182e4c599b73534f24bf14074e0b5" xlink:title=" ">
<polygon fill="white" stroke="#666666" points="354.12,-862.12 236.12,-862.12 236.12,-828.62 354.12,-828.62 354.12,-862.12"/>
<text xml:space="preserve" text-anchor="start" x="244.12" y="-848.62" font-family="Helvetica,sans-Serif" font-size="10.00">IPhysicalPlatformFile</text>
<text xml:space="preserve" text-anchor="middle" x="295.12" y="-835.88" font-family="Helvetica,sans-Serif" font-size="10.00">::GetLowerLevel</text>
</a>
</g>
</g>
<!-- Node1&#45;&gt;Node5 -->
<g id="edge4_Node000001_Node000005" class="edge">
<title>Node1&#45;&gt;Node5</title>
<g id="a_edge4_Node000001_Node000005"><a xlink:title=" ">
<path fill="none" stroke="#63b8ff" d="M479.74,-524.31C475.94,-581.18 457.95,-734.83 373.25,-819.38 367.85,-824.77 361.3,-829.04 354.32,-832.43"/>
<polygon fill="#63b8ff" stroke="#63b8ff" points="483.22,-524.84 480.3,-514.65 476.23,-524.43 483.22,-524.84"/>
</a>
</g>
</g>
<!-- Node6 -->
<g id="Node000006" class="node">
<title>Node6</title>
<g id="a_Node000006"><a xlink:href="$classIPlatformFile.html#a398b3fbc176e60b3035f3a5ce861bb8b" xlink:title=" ">
<polygon fill="white" stroke="#666666" points="373.25,-810.75 217,-810.75 217,-790 373.25,-790 373.25,-810.75"/>
<text xml:space="preserve" text-anchor="middle" x="295.12" y="-797.25" font-family="Helvetica,sans-Serif" font-size="10.00">IPlatformFile::GetLowerLevel</text>
</a>
</g>
</g>
<!-- Node1&#45;&gt;Node6 -->
<g id="edge5_Node000001_Node000006" class="edge">
<title>Node1&#45;&gt;Node6</title>
<g id="a_edge5_Node000001_Node000006"><a xlink:title=" ">
<path fill="none" stroke="#63b8ff" d="M478.98,-524.51C473.54,-577.39 452.23,-711.79 373.25,-781.38 369.53,-784.66 365.32,-787.39 360.85,-789.67"/>
<polygon fill="#63b8ff" stroke="#63b8ff" points="482.46,-524.97 479.89,-514.69 475.49,-524.32 482.46,-524.97"/>
</a>
</g>
</g>
<!-- Node9 -->
<g id="Node000009" class="node">
<title>Node9</title>
<g id="a_Node000009"><a xlink:href="$classIPlatformFile.html#a9ae6e2cfb08c28cb814b23189c8550e6" xlink:title=" ">
<polygon fill="white" stroke="#666666" points="366.5,-772.12 223.75,-772.12 223.75,-738.62 366.5,-738.62 366.5,-772.12"/>
<text xml:space="preserve" text-anchor="start" x="231.75" y="-758.62" font-family="Helvetica,sans-Serif" font-size="10.00">IPlatformFile::GetPlatform</text>
<text xml:space="preserve" text-anchor="middle" x="295.12" y="-745.88" font-family="Helvetica,sans-Serif" font-size="10.00">Physical</text>
</a>
</g>
</g>
<!-- Node1&#45;&gt;Node9 -->
<g id="edge10_Node000001_Node000009" class="edge">
<title>Node1&#45;&gt;Node9</title>
<g id="a_edge10_Node000001_Node000009"><a xlink:title=" ">
<path fill="none" stroke="#63b8ff" d="M476.41,-524.22C466.36,-569.14 437.29,-672.43 373.25,-729.38 369.45,-732.76 365.19,-735.7 360.68,-738.26"/>
<polygon fill="#63b8ff" stroke="#63b8ff" points="479.78,-525.17 478.44,-514.66 472.94,-523.72 479.78,-525.17"/>
</a>
</g>
</g>
<!-- Node11 -->
<g id="Node000011" class="node">
<title>Node11</title>
<g id="a_Node000011"><a xlink:href="$classFCachedReadPlatformFile.html#a281a4030ead03235202b0d480c1f167f" xlink:title=" ">
<polygon fill="white" stroke="#666666" points="365.75,-720.12 224.5,-720.12 224.5,-686.62 365.75,-686.62 365.75,-720.12"/>
<text xml:space="preserve" text-anchor="start" x="232.5" y="-706.62" font-family="Helvetica,sans-Serif" font-size="10.00">FCachedReadPlatformFile</text>
<text xml:space="preserve" text-anchor="middle" x="295.12" y="-693.88" font-family="Helvetica,sans-Serif" font-size="10.00">::Initialize</text>
</a>
</g>
</g>
<!-- Node1&#45;&gt;Node11 -->
<g id="edge12_Node000001_Node000011" class="edge">
<title>Node1&#45;&gt;Node11</title>
<g id="a_edge12_Node000001_Node000011"><a xlink:title=" ">
<path fill="none" stroke="#63b8ff" d="M473.26,-523.67C459.29,-560.34 425.85,-635.48 373.25,-677.38 369.05,-680.72 364.4,-683.64 359.52,-686.2"/>
<polygon fill="#63b8ff" stroke="#63b8ff" points="476.41,-525.22 476.58,-514.63 469.84,-522.81 476.41,-525.22"/>
</a>
</g>
</g>
<!-- Node12 -->
<g id="Node000012" class="node">
<title>Node12</title>
<g id="a_Node000012"><a xlink:href="$classFLoggedPlatformFile.html#af3cbd800f7fea41b87070d88a0e26835" xlink:title=" ">
<polygon fill="white" stroke="#666666" points="353,-668.12 237.25,-668.12 237.25,-634.62 353,-634.62 353,-668.12"/>
<text xml:space="preserve" text-anchor="start" x="245.25" y="-654.62" font-family="Helvetica,sans-Serif" font-size="10.00">FLoggedPlatformFile</text>
<text xml:space="preserve" text-anchor="middle" x="295.12" y="-641.88" font-family="Helvetica,sans-Serif" font-size="10.00">::Initialize</text>
</a>
</g>
</g>
<!-- Node1&#45;&gt;Node12 -->
<g id="edge13_Node000001_Node000012" class="edge">
<title>Node1&#45;&gt;Node12</title>
<g id="a_edge13_Node000001_Node000012"><a xlink:title=" ">
<path fill="none" stroke="#63b8ff" d="M468.15,-522.52C450.23,-549.61 414.89,-597.56 373.25,-625.38 367.14,-629.46 360.33,-632.95 353.36,-635.93"/>
<polygon fill="#63b8ff" stroke="#63b8ff" points="471.03,-524.51 473.52,-514.21 465.15,-520.71 471.03,-524.51"/>
</a>
</g>
</g>
<!-- Node13 -->
<g id="Node000013" class="node">
<title>Node13</title>
<g id="a_Node000013"><a xlink:href="$classFPlatformFileOpenLog.html#a7051cee07d752632169265d81609697e" xlink:title=" ">
<polygon fill="white" stroke="#666666" points="356.75,-616.12 233.5,-616.12 233.5,-582.62 356.75,-582.62 356.75,-616.12"/>
<text xml:space="preserve" text-anchor="start" x="241.5" y="-602.62" font-family="Helvetica,sans-Serif" font-size="10.00">FPlatformFileOpenLog</text>
<text xml:space="preserve" text-anchor="middle" x="295.12" y="-589.88" font-family="Helvetica,sans-Serif" font-size="10.00">::Initialize</text>
</a>
</g>
</g>
<!-- Node1&#45;&gt;Node13 -->
<g id="edge14_Node000001_Node000013" class="edge">
<title>Node1&#45;&gt;Node13</title>
<g id="a_edge14_Node000001_Node000013"><a xlink:title=" ">
<path fill="none" stroke="#63b8ff" d="M458.11,-519.85C437.04,-535.48 404.3,-558.2 373.25,-573.38 366.77,-576.54 359.82,-579.47 352.83,-582.14"/>
<polygon fill="#63b8ff" stroke="#63b8ff" points="460.09,-522.73 465.98,-513.92 455.88,-517.14 460.09,-522.73"/>
</a>
</g>
</g>
<!-- Node14 -->
<g id="Node000014" class="node">
<title>Node14</title>
<g id="a_Node000014"><a xlink:href="$classIPhysicalPlatformFile.html#a7d9a9681d8739eb09a36ccd0eaaa32a8" xlink:title=" ">
<polygon fill="white" stroke="#666666" points="354.12,-564.12 236.12,-564.12 236.12,-530.62 354.12,-530.62 354.12,-564.12"/>
<text xml:space="preserve" text-anchor="start" x="244.12" y="-550.62" font-family="Helvetica,sans-Serif" font-size="10.00">IPhysicalPlatformFile</text>
<text xml:space="preserve" text-anchor="middle" x="295.12" y="-537.88" font-family="Helvetica,sans-Serif" font-size="10.00">::Initialize</text>
</a>
</g>
</g>
<!-- Node1&#45;&gt;Node14 -->
<g id="edge15_Node000001_Node000014" class="edge">
<title>Node1&#45;&gt;Node14</title>
<g id="a_edge15_Node000001_Node000014"><a xlink:title=" ">
<path fill="none" stroke="#63b8ff" d="M425.48,-515.85C403.02,-521.32 377.06,-527.65 354.31,-533.19"/>
<polygon fill="#63b8ff" stroke="#63b8ff" points="426.17,-519.28 435.06,-513.51 424.51,-512.48 426.17,-519.28"/>
</a>
</g>
</g>
<!-- Node15 -->
<g id="Node000015" class="node">
<title>Node15</title>
<g id="a_Node000015"><a xlink:href="$classIPlatformFile.html#a8beb9aaf0ece2028f64d898e2cf810fc" xlink:title=" ">
<polygon fill="white" stroke="#666666" points="357.88,-512.75 232.38,-512.75 232.38,-492 357.88,-492 357.88,-512.75"/>
<text xml:space="preserve" text-anchor="middle" x="295.12" y="-499.25" font-family="Helvetica,sans-Serif" font-size="10.00">IPlatformFile::Initialize</text>
</a>
</g>
</g>
<!-- Node1&#45;&gt;Node15 -->
<g id="edge16_Node000001_Node000015" class="edge">
<title>Node1&#45;&gt;Node15</title>
<g id="a_edge16_Node000001_Node000015"><a xlink:title=" ">
<path fill="none" stroke="#63b8ff" d="M397.37,-502.38C384.21,-502.38 370.81,-502.38 358.25,-502.38"/>
<polygon fill="#63b8ff" stroke="#63b8ff" points="397.33,-505.88 407.33,-502.38 397.33,-498.88 397.33,-505.88"/>
</a>
</g>
</g>
<!-- Node16 -->
<g id="Node000016" class="node">
<title>Node16</title>
<g id="a_Node000016"><a xlink:href="$classFCachedReadPlatformFile.html#aefde3fef442495ba41c026916d6703ad" xlink:title=" ">
<polygon fill="white" stroke="#666666" points="365.75,-474.12 224.5,-474.12 224.5,-440.62 365.75,-440.62 365.75,-474.12"/>
<text xml:space="preserve" text-anchor="start" x="232.5" y="-460.62" font-family="Helvetica,sans-Serif" font-size="10.00">FCachedReadPlatformFile</text>
<text xml:space="preserve" text-anchor="middle" x="295.12" y="-447.88" font-family="Helvetica,sans-Serif" font-size="10.00">::SetLowerLevel</text>
</a>
</g>
</g>
<!-- Node1&#45;&gt;Node16 -->
<g id="edge17_Node000001_Node000016" class="edge">
<title>Node1&#45;&gt;Node16</title>
<g id="a_edge17_Node000001_Node000016"><a xlink:title=" ">
<path fill="none" stroke="#63b8ff" d="M425.52,-488.91C406.8,-484.35 385.64,-479.19 365.94,-474.39"/>
<polygon fill="#63b8ff" stroke="#63b8ff" points="424.51,-492.27 435.06,-491.24 426.17,-485.47 424.51,-492.27"/>
</a>
</g>
</g>
<!-- Node17 -->
<g id="Node000017" class="node">
<title>Node17</title>
<g id="a_Node000017"><a xlink:href="$classFLoggedPlatformFile.html#aca220fa967460e56401ccff6caab574e" xlink:title=" ">
<polygon fill="white" stroke="#666666" points="353,-422.12 237.25,-422.12 237.25,-388.62 353,-388.62 353,-422.12"/>
<text xml:space="preserve" text-anchor="start" x="245.25" y="-408.62" font-family="Helvetica,sans-Serif" font-size="10.00">FLoggedPlatformFile</text>
<text xml:space="preserve" text-anchor="middle" x="295.12" y="-395.88" font-family="Helvetica,sans-Serif" font-size="10.00">::SetLowerLevel</text>
</a>
</g>
</g>
<!-- Node1&#45;&gt;Node17 -->
<g id="edge18_Node000001_Node000017" class="edge">
<title>Node1&#45;&gt;Node17</title>
<g id="a_edge18_Node000001_Node000017"><a xlink:title=" ">
<path fill="none" stroke="#63b8ff" d="M458.11,-484.9C437.04,-469.27 404.3,-446.55 373.25,-431.38 366.77,-428.21 359.82,-425.28 352.83,-422.61"/>
<polygon fill="#63b8ff" stroke="#63b8ff" points="455.88,-487.61 465.98,-490.83 460.09,-482.02 455.88,-487.61"/>
</a>
</g>
</g>
<!-- Node18 -->
<g id="Node000018" class="node">
<title>Node18</title>
<g id="a_Node000018"><a xlink:href="$classFPlatformFileOpenLog.html#afd85d2b76e7c261b671f44a619dcc784" xlink:title=" ">
<polygon fill="white" stroke="#666666" points="356.75,-370.12 233.5,-370.12 233.5,-336.62 356.75,-336.62 356.75,-370.12"/>
<text xml:space="preserve" text-anchor="start" x="241.5" y="-356.62" font-family="Helvetica,sans-Serif" font-size="10.00">FPlatformFileOpenLog</text>
<text xml:space="preserve" text-anchor="middle" x="295.12" y="-343.88" font-family="Helvetica,sans-Serif" font-size="10.00">::SetLowerLevel</text>
</a>
</g>
</g>
<!-- Node1&#45;&gt;Node18 -->
<g id="edge19_Node000001_Node000018" class="edge">
<title>Node1&#45;&gt;Node18</title>
<g id="a_edge19_Node000001_Node000018"><a xlink:title=" ">
<path fill="none" stroke="#63b8ff" d="M468.15,-482.23C450.23,-455.14 414.89,-407.19 373.25,-379.38 368.2,-376 362.67,-373.03 356.96,-370.41"/>
<polygon fill="#63b8ff" stroke="#63b8ff" points="465.15,-484.04 473.52,-490.54 471.03,-480.24 465.15,-484.04"/>
</a>
</g>
</g>
<!-- Node19 -->
<g id="Node000019" class="node">
<title>Node19</title>
<g id="a_Node000019"><a xlink:href="$classIPhysicalPlatformFile.html#af9412169b0412d5b3853a11524c9e46f" xlink:title=" ">
<polygon fill="white" stroke="#666666" points="354.12,-318.12 236.12,-318.12 236.12,-284.62 354.12,-284.62 354.12,-318.12"/>
<text xml:space="preserve" text-anchor="start" x="244.12" y="-304.62" font-family="Helvetica,sans-Serif" font-size="10.00">IPhysicalPlatformFile</text>
<text xml:space="preserve" text-anchor="middle" x="295.12" y="-291.88" font-family="Helvetica,sans-Serif" font-size="10.00">::SetLowerLevel</text>
</a>
</g>
</g>
<!-- Node1&#45;&gt;Node19 -->
<g id="edge20_Node000001_Node000019" class="edge">
<title>Node1&#45;&gt;Node19</title>
<g id="a_edge20_Node000001_Node000019"><a xlink:title=" ">
<path fill="none" stroke="#63b8ff" d="M473.26,-481.08C459.29,-444.41 425.85,-369.27 373.25,-327.38 367.61,-322.89 361.16,-319.15 354.44,-316.05"/>
<polygon fill="#63b8ff" stroke="#63b8ff" points="469.84,-481.94 476.58,-490.12 476.41,-479.53 469.84,-481.94"/>
</a>
</g>
</g>
<!-- Node20 -->
<g id="Node000020" class="node">
<title>Node20</title>
<g id="a_Node000020"><a xlink:href="$classIPlatformFile.html#aeab6d197444d55d5f34a65622b0a100a" xlink:title=" ">
<polygon fill="white" stroke="#666666" points="372.5,-266.75 217.75,-266.75 217.75,-246 372.5,-246 372.5,-266.75"/>
<text xml:space="preserve" text-anchor="middle" x="295.12" y="-253.25" font-family="Helvetica,sans-Serif" font-size="10.00">IPlatformFile::SetLowerLevel</text>
</a>
</g>
</g>
<!-- Node1&#45;&gt;Node20 -->
<g id="edge21_Node000001_Node000020" class="edge">
<title>Node1&#45;&gt;Node20</title>
<g id="a_edge21_Node000001_Node000020"><a xlink:title=" ">
<path fill="none" stroke="#63b8ff" d="M476.85,-480.41C467.57,-434.83 439.77,-329.72 373.25,-275.38 369.3,-272.15 364.88,-269.45 360.21,-267.21"/>
<polygon fill="#63b8ff" stroke="#63b8ff" points="473.39,-480.94 478.71,-490.11 480.26,-479.63 473.39,-480.94"/>
</a>
</g>
</g>
<!-- Node21 -->
<g id="Node000021" class="node">
<title>Node21</title>
<g id="a_Node000021"><a xlink:href="$classFCachedReadPlatformFile.html#a708ffadff464fdb02f965c2f19d2766b" xlink:title=" ">
<polygon fill="white" stroke="#666666" points="365.75,-228.12 224.5,-228.12 224.5,-194.62 365.75,-194.62 365.75,-228.12"/>
<text xml:space="preserve" text-anchor="start" x="232.5" y="-214.62" font-family="Helvetica,sans-Serif" font-size="10.00">FCachedReadPlatformFile</text>
<text xml:space="preserve" text-anchor="middle" x="295.12" y="-201.88" font-family="Helvetica,sans-Serif" font-size="10.00">::ShouldBeUsed</text>
</a>
</g>
</g>
<!-- Node1&#45;&gt;Node21 -->
<g id="edge22_Node000001_Node000021" class="edge">
<title>Node1&#45;&gt;Node21</title>
<g id="a_edge22_Node000001_Node000021"><a xlink:title=" ">
<path fill="none" stroke="#63b8ff" d="M478.06,-480.41C470.74,-430.14 445.91,-305.78 373.25,-237.38 369.65,-233.98 365.59,-231.04 361.27,-228.47"/>
<polygon fill="#63b8ff" stroke="#63b8ff" points="474.58,-480.83 479.39,-490.27 481.52,-479.89 474.58,-480.83"/>
</a>
</g>
</g>
<!-- Node22 -->
<g id="Node000022" class="node">
<title>Node22</title>
<g id="a_Node000022"><a xlink:href="$classFLoggedPlatformFile.html#abbf1b94bc18105184a00df3c2914ed59" xlink:title=" ">
<polygon fill="white" stroke="#666666" points="353,-176.12 237.25,-176.12 237.25,-142.62 353,-142.62 353,-176.12"/>
<text xml:space="preserve" text-anchor="start" x="245.25" y="-162.62" font-family="Helvetica,sans-Serif" font-size="10.00">FLoggedPlatformFile</text>
<text xml:space="preserve" text-anchor="middle" x="295.12" y="-149.88" font-family="Helvetica,sans-Serif" font-size="10.00">::ShouldBeUsed</text>
</a>
</g>
</g>
<!-- Node1&#45;&gt;Node22 -->
<g id="edge23_Node000001_Node000022" class="edge">
<title>Node1&#45;&gt;Node22</title>
<g id="a_edge23_Node000001_Node000022"><a xlink:title=" ">
<path fill="none" stroke="#63b8ff" d="M479.74,-480.44C475.94,-423.57 457.95,-269.92 373.25,-185.38 367.55,-179.68 360.56,-175.24 353.15,-171.77"/>
<polygon fill="#63b8ff" stroke="#63b8ff" points="476.23,-480.32 480.3,-490.1 483.22,-479.91 476.23,-480.32"/>
</a>
</g>
</g>
<!-- Node23 -->
<g id="Node000023" class="node">
<title>Node23</title>
<g id="a_Node000023"><a xlink:href="$classFPlatformFileOpenLog.html#add4caee18c932930a49fac9195068d0d" xlink:title=" ">
<polygon fill="white" stroke="#666666" points="356.75,-124.12 233.5,-124.12 233.5,-90.62 356.75,-90.62 356.75,-124.12"/>
<text xml:space="preserve" text-anchor="start" x="241.5" y="-110.62" font-family="Helvetica,sans-Serif" font-size="10.00">FPlatformFileOpenLog</text>
<text xml:space="preserve" text-anchor="middle" x="295.12" y="-97.88" font-family="Helvetica,sans-Serif" font-size="10.00">::ShouldBeUsed</text>
</a>
</g>
</g>
<!-- Node1&#45;&gt;Node23 -->
<g id="edge24_Node000001_Node000023" class="edge">
<title>Node1&#45;&gt;Node23</title>
<g id="a_edge24_Node000001_Node000023"><a xlink:title=" ">
<path fill="none" stroke="#63b8ff" d="M480.98,-480.32C480.4,-417.26 470.04,-234.29 373.25,-133.38 368.65,-128.58 363.14,-124.67 357.21,-121.48"/>
<polygon fill="#63b8ff" stroke="#63b8ff" points="477.48,-480.06 480.98,-490.06 484.48,-480.06 477.48,-480.06"/>
</a>
</g>
</g>
<!-- Node24 -->
<g id="Node000024" class="node">
<title>Node24</title>
<g id="a_Node000024"><a xlink:href="$classIPhysicalPlatformFile.html#ad78a746d4a2bfa83823e6219323f2a6f" xlink:title=" ">
<polygon fill="white" stroke="#666666" points="354.12,-72.12 236.12,-72.12 236.12,-38.62 354.12,-38.62 354.12,-72.12"/>
<text xml:space="preserve" text-anchor="start" x="244.12" y="-58.62" font-family="Helvetica,sans-Serif" font-size="10.00">IPhysicalPlatformFile</text>
<text xml:space="preserve" text-anchor="middle" x="295.12" y="-45.88" font-family="Helvetica,sans-Serif" font-size="10.00">::ShouldBeUsed</text>
</a>
</g>
</g>
<!-- Node1&#45;&gt;Node24 -->
<g id="edge25_Node000001_Node000024" class="edge">
<title>Node1&#45;&gt;Node24</title>
<g id="a_edge25_Node000001_Node000024"><a xlink:title=" ">
<path fill="none" stroke="#63b8ff" d="M477.96,-480.64C467.59,-403.11 429.01,-141.49 373.25,-81.38 367.96,-75.68 361.39,-71.23 354.33,-67.75"/>
<polygon fill="#63b8ff" stroke="#63b8ff" points="474.46,-480.86 479.23,-490.31 481.4,-479.94 474.46,-480.86"/>
</a>
</g>
</g>
<!-- Node25 -->
<g id="Node000025" class="node">
<title>Node25</title>
<g id="a_Node000025"><a xlink:href="$classIPlatformFile.html#a1c9eb86d79fb5f44f80e979d06733ee5" xlink:title=" ">
<polygon fill="white" stroke="#666666" points="372.12,-20.75 218.12,-20.75 218.12,0 372.12,0 372.12,-20.75"/>
<text xml:space="preserve" text-anchor="middle" x="295.12" y="-7.25" font-family="Helvetica,sans-Serif" font-size="10.00">IPlatformFile::ShouldBeUsed</text>
</a>
</g>
</g>
<!-- Node1&#45;&gt;Node25 -->
<g id="edge26_Node000001_Node000025" class="edge">
<title>Node1&#45;&gt;Node25</title>
<g id="a_edge26_Node000001_Node000025"><a xlink:title=" ">
<path fill="none" stroke="#63b8ff" d="M478.77,-480.29C470.75,-395.9 438.01,-95.31 373.25,-29.38 370.06,-26.13 366.41,-23.4 362.48,-21.12"/>
<polygon fill="#63b8ff" stroke="#63b8ff" points="475.28,-480.57 479.68,-490.2 482.25,-479.92 475.28,-480.57"/>
</a>
</g>
</g>
<!-- Node7 -->
<g id="Node000007" class="node">
<title>Node7</title>
<g id="a_Node000007"><a xlink:href="$classIPlatformFile.html#a349c70aebf1a50c76f4381f9adc0aa5f" xlink:title=" ">
<polygon fill="white" stroke="#666666" points="181,-867.75 0,-867.75 0,-847 181,-847 181,-867.75"/>
<text xml:space="preserve" text-anchor="middle" x="90.5" y="-854.25" font-family="Helvetica,sans-Serif" font-size="10.00">IPlatformFile::AddLocalDirectories</text>
</a>
</g>
</g>
<!-- Node6&#45;&gt;Node7 -->
<g id="edge6_Node000006_Node000007" class="edge">
<title>Node6&#45;&gt;Node7</title>
<g id="a_edge6_Node000006_Node000007"><a xlink:title=" ">
<path fill="none" stroke="#63b8ff" d="M232.54,-814.23C227.24,-815.82 221.99,-817.54 217,-819.38 200.21,-825.55 197.85,-831.38 181,-837.38 170.95,-840.95 160.03,-844.02 149.38,-846.61"/>
<polygon fill="#63b8ff" stroke="#63b8ff" points="233.31,-817.65 241.98,-811.56 231.41,-810.92 233.31,-817.65"/>
</a>
</g>
</g>
<!-- Node8 -->
<g id="Node000008" class="node">
<title>Node8</title>
<g id="a_Node000008"><a xlink:href="$classIPlatformFile.html#a74e8c41d4155bc2ce2aee85fd192b1f9" xlink:title=" ">
<polygon fill="white" stroke="#666666" points="169.75,-810.75 11.25,-810.75 11.25,-790 169.75,-790 169.75,-810.75"/>
<text xml:space="preserve" text-anchor="middle" x="90.5" y="-797.25" font-family="Helvetica,sans-Serif" font-size="10.00">IPlatformFile::BypassSecurity</text>
</a>
</g>
</g>
<!-- Node6&#45;&gt;Node8 -->
<g id="edge8_Node000006_Node000008" class="edge">
<title>Node6&#45;&gt;Node8</title>
<g id="a_edge8_Node000006_Node000008"><a xlink:title=" ">
<path fill="none" stroke="#63b8ff" d="M205.42,-800.38C193.6,-800.38 181.56,-800.38 169.93,-800.38"/>
<polygon fill="#63b8ff" stroke="#63b8ff" points="205.14,-803.88 215.14,-800.38 205.14,-796.88 205.14,-803.88"/>
</a>
</g>
</g>
<!-- Node7&#45;&gt;Node7 -->
<g id="edge7_Node000007_Node000007" class="edge">
<title>Node7&#45;&gt;Node7</title>
<g id="a_edge7_Node000007_Node000007"><a xlink:title=" ">
<path fill="none" stroke="#63b8ff" d="M126.51,-879.24C121.74,-883.08 109.73,-885.75 90.5,-885.75 55.33,-885.75 44.34,-876.81 57.53,-868.15"/>
<polygon fill="#63b8ff" stroke="#63b8ff" points="129.89,-878.33 123.87,-869.61 123.14,-880.18 129.89,-878.33"/>
</a>
</g>
</g>
<!-- Node8&#45;&gt;Node8 -->
<g id="edge9_Node000008_Node000008" class="edge">
<title>Node8&#45;&gt;Node8</title>
<g id="a_edge9_Node000008_Node000008"><a xlink:title=" ">
<path fill="none" stroke="#63b8ff" d="M126.51,-822.24C121.74,-826.08 109.73,-828.75 90.5,-828.75 55.33,-828.75 44.34,-819.81 57.53,-811.15"/>
<polygon fill="#63b8ff" stroke="#63b8ff" points="129.89,-821.33 123.87,-812.61 123.14,-823.18 129.89,-821.33"/>
</a>
</g>
</g>
<!-- Node10 -->
<g id="Node000010" class="node">
<title>Node10</title>
<g id="a_Node000010"><a xlink:href="$classFPersistentStorageManager.html#a94fd1db5a0347546ed8148e12427c7d4" xlink:title=" ">
<polygon fill="white" stroke="#666666" points="166,-772.12 15,-772.12 15,-738.62 166,-738.62 166,-772.12"/>
<text xml:space="preserve" text-anchor="start" x="23" y="-758.62" font-family="Helvetica,sans-Serif" font-size="10.00">FPersistentStorageManager</text>
<text xml:space="preserve" text-anchor="middle" x="90.5" y="-745.88" font-family="Helvetica,sans-Serif" font-size="10.00">::Initialize</text>
</a>
</g>
</g>
<!-- Node9&#45;&gt;Node10 -->
<g id="edge11_Node000009_Node000010" class="edge">
<title>Node9&#45;&gt;Node10</title>
<g id="a_edge11_Node000009_Node000010"><a xlink:title=" ">
<path fill="none" stroke="#63b8ff" d="M211.9,-755.38C196.87,-755.38 181.26,-755.38 166.46,-755.38"/>
<polygon fill="#63b8ff" stroke="#63b8ff" points="211.74,-758.88 221.74,-755.38 211.74,-751.88 211.74,-758.88"/>
</a>
</g>
</g>
</g>
</svg>
