<?xml version="1.0" encoding="UTF-8" standalone="no"?>
<!DOCTYPE svg PUBLIC "-//W3C//DTD SVG 1.1//EN"
 "http://www.w3.org/Graphics/SVG/1.1/DTD/svg11.dtd">
<!-- Generated by graphviz version 14.1.4 (0)
 -->
<!-- Title: TRefCountingMixin&lt; T, ERefCountingMode::ThreadSafe &gt; Pages: 1 -->
<svg width="149pt" height="358pt"
 viewBox="0.00 0.00 149.00 358.00" xmlns="http://www.w3.org/2000/svg" xmlns:xlink="http://www.w3.org/1999/xlink">
<g id="graph0" class="graph" transform="scale(1 1) rotate(0) translate(4 354.25)">
<title>TRefCountingMixin&lt; T, ERefCountingMode::ThreadSafe &gt;</title>
<!-- Node1 -->
<g id="Node000001" class="node">
<title>Node1</title>
<g id="a_Node000001"><a xlink:title=" ">
<polygon fill="#999999" stroke="none" points="133,-197 7.75,-197 7.75,0 133,0 133,-197"/>
<text xml:space="preserve" text-anchor="start" x="16.38" y="-183.25" font-family="Helvetica,sans-Serif" font-size="10.00">TRefCountingMixin&lt;</text>
<text xml:space="preserve" text-anchor="start" x="16.38" y="-170.5" font-family="Helvetica,sans-Serif" font-size="10.00"> T, ERefCountingMode</text>
<text xml:space="preserve" text-anchor="start" x="34" y="-157.75" font-family="Helvetica,sans-Serif" font-size="10.00">::ThreadSafe &gt;</text>
<text xml:space="preserve" text-anchor="start" x="67.38" y="-141" font-family="Helvetica,sans-Serif" font-size="10.00"> </text>
<text xml:space="preserve" text-anchor="start" x="11.75" y="-124.25" font-family="Helvetica,sans-Serif" font-size="10.00">+</text>
<text xml:space="preserve" text-anchor="start" x="24" y="-124.25" font-family="Helvetica,sans-Serif" font-size="10.00">TRefCountingMixin()</text>
<text xml:space="preserve" text-anchor="start" x="11.75" y="-107.5" font-family="Helvetica,sans-Serif" font-size="10.00">+</text>
<text xml:space="preserve" text-anchor="start" x="24" y="-107.5" font-family="Helvetica,sans-Serif" font-size="10.00">TRefCountingMixin()</text>
<text xml:space="preserve" text-anchor="start" x="11.75" y="-90.75" font-family="Helvetica,sans-Serif" font-size="10.00">+</text>
<text xml:space="preserve" text-anchor="start" x="24" y="-90.75" font-family="Helvetica,sans-Serif" font-size="10.00">operator=()</text>
<text xml:space="preserve" text-anchor="start" x="11.75" y="-74" font-family="Helvetica,sans-Serif" font-size="10.00">+</text>
<text xml:space="preserve" text-anchor="start" x="24" y="-74" font-family="Helvetica,sans-Serif" font-size="10.00">AddRef()</text>
<text xml:space="preserve" text-anchor="start" x="11.75" y="-57.25" font-family="Helvetica,sans-Serif" font-size="10.00">+</text>
<text xml:space="preserve" text-anchor="start" x="24" y="-57.25" font-family="Helvetica,sans-Serif" font-size="10.00">Release()</text>
<text xml:space="preserve" text-anchor="start" x="11.75" y="-40.5" font-family="Helvetica,sans-Serif" font-size="10.00">+</text>
<text xml:space="preserve" text-anchor="start" x="24" y="-40.5" font-family="Helvetica,sans-Serif" font-size="10.00">GetRefCount()</text>
<text xml:space="preserve" text-anchor="start" x="11.75" y="-23.75" font-family="Helvetica,sans-Serif" font-size="10.00">+</text>
<text xml:space="preserve" text-anchor="start" x="24" y="-23.75" font-family="Helvetica,sans-Serif" font-size="10.00">StaticDestroyObject()</text>
<text xml:space="preserve" text-anchor="start" x="14" y="-7" font-family="Helvetica,sans-Serif" font-size="10.00">&#45;</text>
<text xml:space="preserve" text-anchor="start" x="24" y="-7" font-family="Helvetica,sans-Serif" font-size="10.00">StaticDestroyMixin()</text>
<polygon fill="#666666" stroke="#666666" points="7.75,-152.75 7.75,-152.75 133,-152.75 133,-152.75 7.75,-152.75"/>
<polygon fill="#666666" stroke="#666666" points="7.75,-136 7.75,-136 133,-136 133,-136 7.75,-136"/>
<polygon fill="none" stroke="#666666" points="7.75,0 7.75,-197 133,-197 133,0 7.75,0"/>
</a>
</g>
</g>
<!-- Node2 -->
<g id="Node000002" class="node">
<title>Node2</title>
<g id="a_Node000002"><a xlink:href="$classUE_1_1Private_1_1TTransactionalAtomicRefCount.html" xlink:title=" ">
<polygon fill="white" stroke="none" points="140.75,-350.25 0,-350.25 0,-233 140.75,-233 140.75,-350.25"/>
<text xml:space="preserve" text-anchor="start" x="4" y="-336.5" font-family="Helvetica,sans-Serif" font-size="10.00">UE::Private::TTransactional</text>
<text xml:space="preserve" text-anchor="start" x="4" y="-323.75" font-family="Helvetica,sans-Serif" font-size="10.00">AtomicRefCount&lt; uint32 &gt;</text>
<text xml:space="preserve" text-anchor="start" x="9.19" y="-307" font-family="Helvetica,sans-Serif" font-size="10.00">&#45;</text>
<text xml:space="preserve" text-anchor="start" x="22.12" y="-307" font-family="Helvetica,sans-Serif" font-size="10.00">RefCount</text>
<text xml:space="preserve" text-anchor="start" x="6.94" y="-290.25" font-family="Helvetica,sans-Serif" font-size="10.00">+</text>
<text xml:space="preserve" text-anchor="start" x="22.12" y="-290.25" font-family="Helvetica,sans-Serif" font-size="10.00">AddRef()</text>
<text xml:space="preserve" text-anchor="start" x="6.94" y="-273.5" font-family="Helvetica,sans-Serif" font-size="10.00">+</text>
<text xml:space="preserve" text-anchor="start" x="22.12" y="-273.5" font-family="Helvetica,sans-Serif" font-size="10.00">Release()</text>
<text xml:space="preserve" text-anchor="start" x="6.94" y="-256.75" font-family="Helvetica,sans-Serif" font-size="10.00">+</text>
<text xml:space="preserve" text-anchor="start" x="22.12" y="-256.75" font-family="Helvetica,sans-Serif" font-size="10.00">GetRefCount()</text>
<text xml:space="preserve" text-anchor="start" x="9.19" y="-240" font-family="Helvetica,sans-Serif" font-size="10.00">&#45;</text>
<text xml:space="preserve" text-anchor="start" x="22.12" y="-240" font-family="Helvetica,sans-Serif" font-size="10.00">ImmediatelyRelease()</text>
<polygon fill="#666666" stroke="#666666" points="0,-318.75 0,-318.75 140.75,-318.75 140.75,-318.75 0,-318.75"/>
<polygon fill="#666666" stroke="#666666" points="0,-302 0,-302 20.12,-302 20.12,-302 0,-302"/>
<polygon fill="#666666" stroke="#666666" points="20.12,-302 20.12,-302 140.75,-302 140.75,-302 20.12,-302"/>
<polygon fill="none" stroke="#666666" points="0,-233 0,-350.25 140.75,-350.25 140.75,-233 0,-233"/>
</a>
</g>
</g>
<!-- Node2&#45;&gt;Node1 -->
<g id="edge1_Node000001_Node000002" class="edge">
<title>Node2&#45;&gt;Node1</title>
<g id="a_edge1_Node000001_Node000002"><a xlink:title=" ">
<path fill="none" stroke="#8b1a1a" d="M70.38,-221.52C70.38,-213.52 70.38,-205.25 70.38,-196.96"/>
<polygon fill="none" stroke="#8b1a1a" points="66.88,-221.51 70.38,-231.51 73.88,-221.51 66.88,-221.51"/>
</a>
</g>
</g>
</g>
</svg>
