<?xml version="1.0" encoding="UTF-8" standalone="no"?>
<!DOCTYPE svg PUBLIC "-//W3C//DTD SVG 1.1//EN"
 "http://www.w3.org/Graphics/SVG/1.1/DTD/svg11.dtd">
<!-- Generated by graphviz version 14.1.4 (0)
 -->
<!-- Title: LowLevelTasks::FOversubscriptionScope::UE_NONCOPYABLE Pages: 1 -->
<svg width="803pt" height="151pt"
 viewBox="0.00 0.00 803.00 151.00" xmlns="http://www.w3.org/2000/svg" xmlns:xlink="http://www.w3.org/1999/xlink">
<g id="graph0" class="graph" transform="scale(1 1) rotate(0) translate(4 146.88)">
<title>LowLevelTasks::FOversubscriptionScope::UE_NONCOPYABLE</title>
<!-- Node1 -->
<g id="Node000001" class="node">
<title>Node1</title>
<g id="a_Node000001"><a xlink:title=" ">
<polygon fill="#999999" stroke="#666666" points="183.25,-97.88 0,-97.88 0,-64.38 183.25,-64.38 183.25,-97.88"/>
<text xml:space="preserve" text-anchor="start" x="8" y="-84.38" font-family="Helvetica,sans-Serif" font-size="10.00">LowLevelTasks::FOversubscription</text>
<text xml:space="preserve" text-anchor="middle" x="91.62" y="-71.62" font-family="Helvetica,sans-Serif" font-size="10.00">Scope::UE_NONCOPYABLE</text>
</a>
</g>
</g>
<!-- Node2 -->
<g id="Node000002" class="node">
<title>Node2</title>
<g id="a_Node000002"><a xlink:href="$classLowLevelTasks_1_1FOversubscriptionScope.html#a35f07baf58fa4cf683ce6f23c66db08c" xlink:title=" ">
<polygon fill="white" stroke="#666666" points="402.5,-97.88 219.25,-97.88 219.25,-64.38 402.5,-64.38 402.5,-97.88"/>
<text xml:space="preserve" text-anchor="start" x="227.25" y="-84.38" font-family="Helvetica,sans-Serif" font-size="10.00">LowLevelTasks::FOversubscription</text>
<text xml:space="preserve" text-anchor="middle" x="310.88" y="-71.62" font-family="Helvetica,sans-Serif" font-size="10.00">Scope::FOversubscriptionScope</text>
</a>
</g>
</g>
<!-- Node1&#45;&gt;Node2 -->
<g id="edge1_Node000001_Node000002" class="edge">
<title>Node1&#45;&gt;Node2</title>
<g id="a_edge1_Node000001_Node000002"><a xlink:title=" ">
<path fill="none" stroke="#63b8ff" d="M183.5,-81.12C191.48,-81.12 199.6,-81.12 207.66,-81.12"/>
<polygon fill="#63b8ff" stroke="#63b8ff" points="207.5,-84.63 217.5,-81.13 207.5,-77.63 207.5,-84.63"/>
</a>
</g>
</g>
<!-- Node3 -->
<g id="Node000003" class="node">
<title>Node3</title>
<g id="a_Node000003"><a xlink:href="$classLowLevelTasks_1_1FScheduler.html#a7cabeb5e582da946360f501f3cba0ee6" xlink:title=" ">
<polygon fill="white" stroke="#666666" points="610.5,-136.5 438.5,-136.5 438.5,-115.75 610.5,-115.75 610.5,-136.5"/>
<text xml:space="preserve" text-anchor="middle" x="524.5" y="-123" font-family="Helvetica,sans-Serif" font-size="10.00">LowLevelTasks::FScheduler::Get</text>
</a>
</g>
</g>
<!-- Node2&#45;&gt;Node3 -->
<g id="edge2_Node000002_Node000003" class="edge">
<title>Node2&#45;&gt;Node3</title>
<g id="a_edge2_Node000002_Node000003"><a xlink:title=" ">
<path fill="none" stroke="#63b8ff" d="M392.79,-98.33C415.64,-103.19 440.14,-108.4 461.68,-112.98"/>
<polygon fill="#63b8ff" stroke="#63b8ff" points="460.66,-116.34 471.16,-115 462.11,-109.49 460.66,-116.34"/>
</a>
</g>
</g>
<!-- Node5 -->
<g id="Node000005" class="node">
<title>Node5</title>
<g id="a_Node000005"><a xlink:href="$classLowLevelTasks_1_1FScheduler.html#a883a6cdaacbc342a1ccad39ce9e55bf9" xlink:title=" ">
<polygon fill="white" stroke="#666666" points="601.5,-97.88 447.5,-97.88 447.5,-64.38 601.5,-64.38 601.5,-97.88"/>
<text xml:space="preserve" text-anchor="start" x="455.5" y="-84.38" font-family="Helvetica,sans-Serif" font-size="10.00">LowLevelTasks::FScheduler</text>
<text xml:space="preserve" text-anchor="middle" x="524.5" y="-71.62" font-family="Helvetica,sans-Serif" font-size="10.00">::IncrementOversubscription</text>
</a>
</g>
</g>
<!-- Node2&#45;&gt;Node5 -->
<g id="edge4_Node000002_Node000005" class="edge">
<title>Node2&#45;&gt;Node5</title>
<g id="a_edge4_Node000002_Node000005"><a xlink:title=" ">
<path fill="none" stroke="#63b8ff" d="M402.85,-81.12C413.83,-81.12 425.02,-81.12 435.94,-81.12"/>
<polygon fill="#63b8ff" stroke="#63b8ff" points="435.7,-84.63 445.7,-81.13 435.7,-77.63 435.7,-84.63"/>
</a>
</g>
</g>
<!-- Node6 -->
<g id="Node000006" class="node">
<title>Node6</title>
<g id="a_Node000006"><a xlink:href="$classLowLevelTasks_1_1Private_1_1FOversubscriptionTls.html#a5db774b2a7cd143f79fe27c404de2c6f" xlink:title=" ">
<polygon fill="white" stroke="#666666" points="600.38,-46.25 448.62,-46.25 448.62,0 600.38,0 600.38,-46.25"/>
<text xml:space="preserve" text-anchor="start" x="456.62" y="-32.75" font-family="Helvetica,sans-Serif" font-size="10.00">LowLevelTasks::Private</text>
<text xml:space="preserve" text-anchor="start" x="456.62" y="-20" font-family="Helvetica,sans-Serif" font-size="10.00">::FOversubscriptionTls</text>
<text xml:space="preserve" text-anchor="middle" x="524.5" y="-7.25" font-family="Helvetica,sans-Serif" font-size="10.00">::IsOversubscriptionAllowed</text>
</a>
</g>
</g>
<!-- Node2&#45;&gt;Node6 -->
<g id="edge5_Node000002_Node000006" class="edge">
<title>Node2&#45;&gt;Node6</title>
<g id="a_edge5_Node000002_Node000006"><a xlink:title=" ">
<path fill="none" stroke="#63b8ff" d="M374.8,-63.88C394.51,-58.48 416.61,-52.42 437.63,-46.66"/>
<polygon fill="#63b8ff" stroke="#63b8ff" points="438.32,-50.1 447.04,-44.08 436.47,-43.35 438.32,-50.1"/>
</a>
</g>
</g>
<!-- Node4 -->
<g id="Node000004" class="node">
<title>Node4</title>
<g id="a_Node000004"><a xlink:href="$classLowLevelTasks_1_1FScheduler.html#a5de33ac0315d13706d2ba3ffcf47e9d3" xlink:title=" ">
<polygon fill="white" stroke="#666666" points="795.25,-142.88 646.5,-142.88 646.5,-109.38 795.25,-109.38 795.25,-142.88"/>
<text xml:space="preserve" text-anchor="start" x="654.5" y="-129.38" font-family="Helvetica,sans-Serif" font-size="10.00">LowLevelTasks::FScheduler</text>
<text xml:space="preserve" text-anchor="middle" x="720.88" y="-116.62" font-family="Helvetica,sans-Serif" font-size="10.00">::FScheduler</text>
</a>
</g>
</g>
<!-- Node3&#45;&gt;Node4 -->
<g id="edge3_Node000003_Node000004" class="edge">
<title>Node3&#45;&gt;Node4</title>
<g id="a_edge3_Node000003_Node000004"><a xlink:title=" ">
<path fill="none" stroke="#63b8ff" d="M610.76,-126.12C618.8,-126.12 626.95,-126.12 634.99,-126.12"/>
<polygon fill="#63b8ff" stroke="#63b8ff" points="634.74,-129.63 644.74,-126.13 634.74,-122.63 634.74,-129.63"/>
</a>
</g>
</g>
</g>
</svg>
