<?xml version="1.0" encoding="UTF-8" standalone="no"?>
<!DOCTYPE svg PUBLIC "-//W3C//DTD SVG 1.1//EN"
 "http://www.w3.org/Graphics/SVG/1.1/DTD/svg11.dtd">
<!-- Generated by graphviz version 14.1.4 (0)
 -->
<!-- Title: SharedPointerInternals::FWeakReferencer::FWeakReferencer Pages: 1 -->
<svg width="448pt" height="250pt"
 viewBox="0.00 0.00 448.00 250.00" xmlns="http://www.w3.org/2000/svg" xmlns:xlink="http://www.w3.org/1999/xlink">
<g id="graph0" class="graph" transform="scale(1 1) rotate(0) translate(4 245.5)">
<title>SharedPointerInternals::FWeakReferencer::FWeakReferencer</title>
<!-- Node1 -->
<g id="Node000001" class="node">
<title>Node1</title>
<g id="a_Node000001"><a xlink:title=" ">
<polygon fill="#999999" stroke="#666666" points="440,-137.5 238,-137.5 238,-104 440,-104 440,-137.5"/>
<text xml:space="preserve" text-anchor="start" x="246" y="-124" font-family="Helvetica,sans-Serif" font-size="10.00">SharedPointerInternals</text>
<text xml:space="preserve" text-anchor="middle" x="339" y="-111.25" font-family="Helvetica,sans-Serif" font-size="10.00">::FWeakReferencer::FWeakReferencer</text>
</a>
</g>
</g>
<!-- Node2 -->
<g id="Node000002" class="node">
<title>Node2</title>
<g id="a_Node000002"><a xlink:href="$classSharedPointerInternals_1_1FWeakReferencer.html#a9d32590387650d144c38f5db12add21b" xlink:title=" ">
<polygon fill="white" stroke="#666666" points="202,-241.5 0,-241.5 0,-208 202,-208 202,-241.5"/>
<text xml:space="preserve" text-anchor="start" x="8" y="-228" font-family="Helvetica,sans-Serif" font-size="10.00">SharedPointerInternals</text>
<text xml:space="preserve" text-anchor="middle" x="101" y="-215.25" font-family="Helvetica,sans-Serif" font-size="10.00">::FWeakReferencer::FWeakReferencer</text>
</a>
</g>
</g>
<!-- Node1&#45;&gt;Node2 -->
<g id="edge1_Node000001_Node000002" class="edge">
<title>Node1&#45;&gt;Node2</title>
<g id="a_edge1_Node000001_Node000002"><a xlink:title=" ">
<path fill="none" stroke="#63b8ff" d="M303.32,-144.1C276.6,-161.22 238.2,-183.97 202,-198.75 194.11,-201.97 185.71,-204.89 177.25,-207.51"/>
<polygon fill="#63b8ff" stroke="#63b8ff" points="305.22,-147.04 311.7,-138.66 301.41,-141.17 305.22,-147.04"/>
</a>
</g>
</g>
<!-- Node3 -->
<g id="Node000003" class="node">
<title>Node3</title>
<g id="a_Node000003"><a xlink:href="$classSharedPointerInternals_1_1FWeakReferencer.html#a1f0179046ea6a8f05a82ad7f20cb4834" xlink:title=" ">
<polygon fill="white" stroke="#666666" points="202,-189.5 0,-189.5 0,-156 202,-156 202,-189.5"/>
<text xml:space="preserve" text-anchor="start" x="8" y="-176" font-family="Helvetica,sans-Serif" font-size="10.00">SharedPointerInternals</text>
<text xml:space="preserve" text-anchor="middle" x="101" y="-163.25" font-family="Helvetica,sans-Serif" font-size="10.00">::FWeakReferencer::FWeakReferencer</text>
</a>
</g>
</g>
<!-- Node1&#45;&gt;Node3 -->
<g id="edge2_Node000001_Node000003" class="edge">
<title>Node1&#45;&gt;Node3</title>
<g id="a_edge2_Node000001_Node000003"><a xlink:title=" ">
<path fill="none" stroke="#63b8ff" d="M248.78,-140.41C226.17,-145.39 202.06,-150.7 180.05,-155.55"/>
<polygon fill="#63b8ff" stroke="#63b8ff" points="249.25,-143.89 258.27,-138.32 247.75,-137.05 249.25,-143.89"/>
</a>
</g>
</g>
<!-- Node4 -->
<g id="Node000004" class="node">
<title>Node4</title>
<g id="a_Node000004"><a xlink:href="$classSharedPointerInternals_1_1FWeakReferencer.html#a23ec47c020d4cbafb5a7e7a03cab66a9" xlink:title=" ">
<polygon fill="white" stroke="#666666" points="183.25,-137.5 18.75,-137.5 18.75,-104 183.25,-104 183.25,-137.5"/>
<text xml:space="preserve" text-anchor="start" x="26.75" y="-124" font-family="Helvetica,sans-Serif" font-size="10.00">SharedPointerInternals</text>
<text xml:space="preserve" text-anchor="middle" x="101" y="-111.25" font-family="Helvetica,sans-Serif" font-size="10.00">::FWeakReferencer::operator=</text>
</a>
</g>
</g>
<!-- Node1&#45;&gt;Node4 -->
<g id="edge3_Node000001_Node000004" class="edge">
<title>Node1&#45;&gt;Node4</title>
<g id="a_edge3_Node000001_Node000004"><a xlink:title=" ">
<path fill="none" stroke="#63b8ff" d="M226.08,-120.75C211.7,-120.75 197.2,-120.75 183.43,-120.75"/>
<polygon fill="#63b8ff" stroke="#63b8ff" points="226.06,-124.25 236.06,-120.75 226.06,-117.25 226.06,-124.25"/>
</a>
</g>
</g>
<!-- Node5 -->
<g id="Node000005" class="node">
<title>Node5</title>
<g id="a_Node000005"><a xlink:href="$classSharedPointerInternals_1_1FWeakReferencer.html#ab9360a8ecfc42a0b104e64a24bffc205" xlink:title=" ">
<polygon fill="white" stroke="#666666" points="183.25,-85.5 18.75,-85.5 18.75,-52 183.25,-52 183.25,-85.5"/>
<text xml:space="preserve" text-anchor="start" x="26.75" y="-72" font-family="Helvetica,sans-Serif" font-size="10.00">SharedPointerInternals</text>
<text xml:space="preserve" text-anchor="middle" x="101" y="-59.25" font-family="Helvetica,sans-Serif" font-size="10.00">::FWeakReferencer::operator=</text>
</a>
</g>
</g>
<!-- Node1&#45;&gt;Node5 -->
<g id="edge4_Node000001_Node000005" class="edge">
<title>Node1&#45;&gt;Node5</title>
<g id="a_edge4_Node000001_Node000005"><a xlink:title=" ">
<path fill="none" stroke="#63b8ff" d="M248.78,-101.09C226.17,-96.11 202.06,-90.8 180.05,-85.95"/>
<polygon fill="#63b8ff" stroke="#63b8ff" points="247.75,-104.45 258.27,-103.18 249.25,-97.61 247.75,-104.45"/>
</a>
</g>
</g>
<!-- Node6 -->
<g id="Node000006" class="node">
<title>Node6</title>
<g id="a_Node000006"><a xlink:href="$classSharedPointerInternals_1_1FWeakReferencer.html#a99125fc6e67d739b710f2d587951819c" xlink:title=" ">
<polygon fill="white" stroke="#666666" points="183.25,-33.5 18.75,-33.5 18.75,0 183.25,0 183.25,-33.5"/>
<text xml:space="preserve" text-anchor="start" x="26.75" y="-20" font-family="Helvetica,sans-Serif" font-size="10.00">SharedPointerInternals</text>
<text xml:space="preserve" text-anchor="middle" x="101" y="-7.25" font-family="Helvetica,sans-Serif" font-size="10.00">::FWeakReferencer::operator=</text>
</a>
</g>
</g>
<!-- Node1&#45;&gt;Node6 -->
<g id="edge5_Node000001_Node000006" class="edge">
<title>Node1&#45;&gt;Node6</title>
<g id="a_edge5_Node000001_Node000006"><a xlink:title=" ">
<path fill="none" stroke="#63b8ff" d="M303.32,-97.4C276.6,-80.28 238.2,-57.53 202,-42.75 194.11,-39.53 185.71,-36.61 177.25,-33.99"/>
<polygon fill="#63b8ff" stroke="#63b8ff" points="301.41,-100.33 311.7,-102.84 305.22,-94.46 301.41,-100.33"/>
</a>
</g>
</g>
</g>
</svg>
