<?xml version="1.0" encoding="UTF-8" standalone="no"?>
<!DOCTYPE svg PUBLIC "-//W3C//DTD SVG 1.1//EN"
 "http://www.w3.org/Graphics/SVG/1.1/DTD/svg11.dtd">
<!-- Generated by graphviz version 14.1.4 (0)
 -->
<!-- Title: TRange::IsEmpty Pages: 1 -->
<svg width="271pt" height="250pt"
 viewBox="0.00 0.00 271.00 250.00" xmlns="http://www.w3.org/2000/svg" xmlns:xlink="http://www.w3.org/1999/xlink">
<g id="graph0" class="graph" transform="scale(1 1) rotate(0) translate(4 245.5)">
<title>TRange::IsEmpty</title>
<!-- Node1 -->
<g id="Node000001" class="node">
<title>Node1</title>
<g id="a_Node000001"><a xlink:title=" ">
<polygon fill="#999999" stroke="#666666" points="263,-131.12 164.5,-131.12 164.5,-110.38 263,-110.38 263,-131.12"/>
<text xml:space="preserve" text-anchor="middle" x="213.75" y="-117.62" font-family="Helvetica,sans-Serif" font-size="10.00">TRange::IsEmpty</text>
</a>
</g>
</g>
<!-- Node2 -->
<g id="Node000002" class="node">
<title>Node2</title>
<g id="a_Node000002"><a xlink:href="$classTRange.html#a953725bf845dd960f5054fb002857744" xlink:title=" ">
<polygon fill="white" stroke="#666666" points="128.5,-241.5 0,-241.5 0,-208 128.5,-208 128.5,-241.5"/>
<text xml:space="preserve" text-anchor="start" x="8" y="-228" font-family="Helvetica,sans-Serif" font-size="10.00">TRange&lt; FDateTime &gt;</text>
<text xml:space="preserve" text-anchor="middle" x="64.25" y="-215.25" font-family="Helvetica,sans-Serif" font-size="10.00">::Adjoins</text>
</a>
</g>
</g>
<!-- Node1&#45;&gt;Node2 -->
<g id="edge1_Node000001_Node000002" class="edge">
<title>Node1&#45;&gt;Node2</title>
<g id="a_edge1_Node000001_Node000002"><a xlink:title=" ">
<path fill="none" stroke="#63b8ff" d="M196.17,-139.55C180.2,-156.76 154.68,-182.03 128.5,-198.75 123.5,-201.95 118.04,-204.88 112.49,-207.55"/>
<polygon fill="#63b8ff" stroke="#63b8ff" points="198.45,-142.25 202.59,-132.49 193.27,-137.54 198.45,-142.25"/>
</a>
</g>
</g>
<!-- Node3 -->
<g id="Node000003" class="node">
<title>Node3</title>
<g id="a_Node000003"><a xlink:href="$classTRange.html#a5f01081a39c79dd8d87abb25fd9c1f65" xlink:title=" ">
<polygon fill="white" stroke="#666666" points="128.5,-189.5 0,-189.5 0,-156 128.5,-156 128.5,-189.5"/>
<text xml:space="preserve" text-anchor="start" x="8" y="-176" font-family="Helvetica,sans-Serif" font-size="10.00">TRange&lt; FDateTime &gt;</text>
<text xml:space="preserve" text-anchor="middle" x="64.25" y="-163.25" font-family="Helvetica,sans-Serif" font-size="10.00">::Difference</text>
</a>
</g>
</g>
<!-- Node1&#45;&gt;Node3 -->
<g id="edge2_Node000001_Node000003" class="edge">
<title>Node1&#45;&gt;Node3</title>
<g id="a_edge2_Node000001_Node000003"><a xlink:title=" ">
<path fill="none" stroke="#63b8ff" d="M171.54,-135.28C153.7,-141.57 132.68,-148.98 114.06,-155.54"/>
<polygon fill="#63b8ff" stroke="#63b8ff" points="172.49,-138.65 180.76,-132.03 170.17,-132.05 172.49,-138.65"/>
</a>
</g>
</g>
<!-- Node4 -->
<g id="Node000004" class="node">
<title>Node4</title>
<g id="a_Node000004"><a xlink:href="$classTRange.html#a94af6b85f0a90a9c74f3096c545ace0e" xlink:title=" ">
<polygon fill="white" stroke="#666666" points="128.5,-137.5 0,-137.5 0,-104 128.5,-104 128.5,-137.5"/>
<text xml:space="preserve" text-anchor="start" x="8" y="-124" font-family="Helvetica,sans-Serif" font-size="10.00">TRange&lt; FDateTime &gt;</text>
<text xml:space="preserve" text-anchor="middle" x="64.25" y="-111.25" font-family="Helvetica,sans-Serif" font-size="10.00">::operator!=</text>
</a>
</g>
</g>
<!-- Node1&#45;&gt;Node4 -->
<g id="edge3_Node000001_Node000004" class="edge">
<title>Node1&#45;&gt;Node4</title>
<g id="a_edge3_Node000001_Node000004"><a xlink:title=" ">
<path fill="none" stroke="#63b8ff" d="M152.73,-120.75C144.88,-120.75 136.81,-120.75 128.9,-120.75"/>
<polygon fill="#63b8ff" stroke="#63b8ff" points="152.53,-124.25 162.53,-120.75 152.53,-117.25 152.53,-124.25"/>
</a>
</g>
</g>
<!-- Node5 -->
<g id="Node000005" class="node">
<title>Node5</title>
<g id="a_Node000005"><a xlink:href="$classTRange.html#ad47f32150e04faac9c5eb6f22d352877" xlink:title=" ">
<polygon fill="white" stroke="#666666" points="128.5,-85.5 0,-85.5 0,-52 128.5,-52 128.5,-85.5"/>
<text xml:space="preserve" text-anchor="start" x="8" y="-72" font-family="Helvetica,sans-Serif" font-size="10.00">TRange&lt; FDateTime &gt;</text>
<text xml:space="preserve" text-anchor="middle" x="64.25" y="-59.25" font-family="Helvetica,sans-Serif" font-size="10.00">::operator==</text>
</a>
</g>
</g>
<!-- Node1&#45;&gt;Node5 -->
<g id="edge4_Node000001_Node000005" class="edge">
<title>Node1&#45;&gt;Node5</title>
<g id="a_edge4_Node000001_Node000005"><a xlink:title=" ">
<path fill="none" stroke="#63b8ff" d="M171.54,-106.22C153.7,-99.93 132.68,-92.52 114.06,-85.96"/>
<polygon fill="#63b8ff" stroke="#63b8ff" points="170.17,-109.45 180.76,-109.47 172.49,-102.85 170.17,-109.45"/>
</a>
</g>
</g>
<!-- Node6 -->
<g id="Node000006" class="node">
<title>Node6</title>
<g id="a_Node000006"><a xlink:href="$classTRange.html#a2b18b44f713d6d4611de0adedfded920" xlink:title=" ">
<polygon fill="white" stroke="#666666" points="128.5,-33.5 0,-33.5 0,0 128.5,0 128.5,-33.5"/>
<text xml:space="preserve" text-anchor="start" x="8" y="-20" font-family="Helvetica,sans-Serif" font-size="10.00">TRange&lt; FDateTime &gt;</text>
<text xml:space="preserve" text-anchor="middle" x="64.25" y="-7.25" font-family="Helvetica,sans-Serif" font-size="10.00">::Overlaps</text>
</a>
</g>
</g>
<!-- Node1&#45;&gt;Node6 -->
<g id="edge5_Node000001_Node000006" class="edge">
<title>Node1&#45;&gt;Node6</title>
<g id="a_edge5_Node000001_Node000006"><a xlink:title=" ">
<path fill="none" stroke="#63b8ff" d="M196.17,-101.95C180.2,-84.74 154.68,-59.47 128.5,-42.75 123.5,-39.55 118.04,-36.62 112.49,-33.95"/>
<polygon fill="#63b8ff" stroke="#63b8ff" points="193.27,-103.96 202.59,-109.01 198.45,-99.25 193.27,-103.96"/>
</a>
</g>
</g>
</g>
</svg>
