<?xml version="1.0" encoding="UTF-8" standalone="no"?>
<!DOCTYPE svg PUBLIC "-//W3C//DTD SVG 1.1//EN"
 "http://www.w3.org/Graphics/SVG/1.1/DTD/svg11.dtd">
<!-- Generated by graphviz version 14.1.4 (0)
 -->
<!-- Title: UAnimCurveCompressionCodec Pages: 1 -->
<svg width="533pt" height="356pt"
 viewBox="0.00 0.00 533.00 356.00" xmlns="http://www.w3.org/2000/svg" xmlns:xlink="http://www.w3.org/1999/xlink">
<g id="graph0" class="graph" transform="scale(1 1) rotate(0) translate(4 352)">
<title>UAnimCurveCompressionCodec</title>
<!-- Node1 -->
<g id="Node000001" class="node">
<title>Node1</title>
<g id="a_Node000001"><a xlink:title=" ">
<polygon fill="#999999" stroke="none" points="344.25,-257.75 181,-257.75 181,-153.25 344.25,-153.25 344.25,-257.75"/>
<text xml:space="preserve" text-anchor="start" x="185" y="-244" font-family="Helvetica,sans-Serif" font-size="10.00">UAnimCurveCompressionCodec</text>
<text xml:space="preserve" text-anchor="start" x="188.88" y="-227.25" font-family="Helvetica,sans-Serif" font-size="10.00">&#45;</text>
<text xml:space="preserve" text-anchor="start" x="200.5" y="-227.25" font-family="Helvetica,sans-Serif" font-size="10.00">DecompressCurve</text>
<text xml:space="preserve" text-anchor="start" x="188.88" y="-210.5" font-family="Helvetica,sans-Serif" font-size="10.00">&#45;</text>
<text xml:space="preserve" text-anchor="start" x="200.5" y="-210.5" font-family="Helvetica,sans-Serif" font-size="10.00">GetCodec()</text>
<text xml:space="preserve" text-anchor="start" x="188.88" y="-193.75" font-family="Helvetica,sans-Serif" font-size="10.00">&#45;</text>
<text xml:space="preserve" text-anchor="start" x="200.5" y="-193.75" font-family="Helvetica,sans-Serif" font-size="10.00">Serialize()</text>
<text xml:space="preserve" text-anchor="start" x="188.88" y="-177" font-family="Helvetica,sans-Serif" font-size="10.00">&#45;</text>
<text xml:space="preserve" text-anchor="start" x="200.5" y="-177" font-family="Helvetica,sans-Serif" font-size="10.00">ValidateCompressedData()</text>
<text xml:space="preserve" text-anchor="start" x="188.88" y="-160.25" font-family="Helvetica,sans-Serif" font-size="10.00">&#45;</text>
<text xml:space="preserve" text-anchor="start" x="200.5" y="-160.25" font-family="Helvetica,sans-Serif" font-size="10.00">DecompressCurve()</text>
<polygon fill="#666666" stroke="#666666" points="181,-239 181,-239 344.25,-239 344.25,-239 181,-239"/>
<polygon fill="#666666" stroke="#666666" points="181,-222.25 181,-222.25 198.5,-222.25 198.5,-222.25 181,-222.25"/>
<polygon fill="#666666" stroke="#666666" points="198.5,-222.25 198.5,-222.25 344.25,-222.25 344.25,-222.25 198.5,-222.25"/>
<polygon fill="none" stroke="#666666" points="181,-153.25 181,-257.75 344.25,-257.75 344.25,-153.25 181,-153.25"/>
</a>
</g>
</g>
<!-- Node3 -->
<g id="Node000003" class="node">
<title>Node3</title>
<g id="a_Node000003"><a xlink:href="classUAnimCurveCompressionCodec__CompressedRichCurve.html" target="_top" xlink:title=" ">
<polygon fill="white" stroke="none" points="163.25,-100.5 0,-100.5 0,-16.75 163.25,-16.75 163.25,-100.5"/>
<text xml:space="preserve" text-anchor="start" x="4" y="-86.75" font-family="Helvetica,sans-Serif" font-size="10.00">UAnimCurveCompressionCodec</text>
<text xml:space="preserve" text-anchor="start" x="23.88" y="-74" font-family="Helvetica,sans-Serif" font-size="10.00">_CompressedRichCurve</text>
<text xml:space="preserve" text-anchor="start" x="78.62" y="-57.25" font-family="Helvetica,sans-Serif" font-size="10.00"> </text>
<text xml:space="preserve" text-anchor="start" x="15.38" y="-40.5" font-family="Helvetica,sans-Serif" font-size="10.00">&#45;</text>
<text xml:space="preserve" text-anchor="start" x="34.5" y="-40.5" font-family="Helvetica,sans-Serif" font-size="10.00">DecompressCurves()</text>
<text xml:space="preserve" text-anchor="start" x="15.38" y="-23.75" font-family="Helvetica,sans-Serif" font-size="10.00">&#45;</text>
<text xml:space="preserve" text-anchor="start" x="34.5" y="-23.75" font-family="Helvetica,sans-Serif" font-size="10.00">DecompressCurve()</text>
<polygon fill="#666666" stroke="#666666" points="0,-69 0,-69 163.25,-69 163.25,-69 0,-69"/>
<polygon fill="#666666" stroke="#666666" points="0,-52.25 0,-52.25 163.25,-52.25 163.25,-52.25 0,-52.25"/>
<polygon fill="none" stroke="#666666" points="0,-16.75 0,-100.5 163.25,-100.5 163.25,-16.75 0,-16.75"/>
</a>
</g>
</g>
<!-- Node1&#45;&gt;Node3 -->
<g id="edge2_Node000001_Node000003" class="edge">
<title>Node1&#45;&gt;Node3</title>
<g id="a_edge2_Node000001_Node000003"><a xlink:title=" ">
<path fill="none" stroke="#63b8ff" d="M190.07,-146.42C170.84,-131.03 150.48,-114.74 132.66,-100.48"/>
<polygon fill="none" stroke="#63b8ff" points="187.64,-148.96 197.63,-152.48 192.01,-143.5 187.64,-148.96"/>
</a>
</g>
</g>
<!-- Node4 -->
<g id="Node000004" class="node">
<title>Node4</title>
<g id="a_Node000004"><a xlink:href="classUAnimCurveCompressionCodec__UniformIndexable.html" target="_top" xlink:title=" ">
<polygon fill="white" stroke="none" points="344.25,-117.25 181,-117.25 181,0 344.25,0 344.25,-117.25"/>
<text xml:space="preserve" text-anchor="start" x="185" y="-103.5" font-family="Helvetica,sans-Serif" font-size="10.00">UAnimCurveCompressionCodec</text>
<text xml:space="preserve" text-anchor="start" x="216.12" y="-90.75" font-family="Helvetica,sans-Serif" font-size="10.00">_UniformIndexable</text>
<text xml:space="preserve" text-anchor="start" x="259.62" y="-74" font-family="Helvetica,sans-Serif" font-size="10.00"> </text>
<text xml:space="preserve" text-anchor="start" x="185.88" y="-57.25" font-family="Helvetica,sans-Serif" font-size="10.00">&#45;</text>
<text xml:space="preserve" text-anchor="start" x="194.5" y="-57.25" font-family="Helvetica,sans-Serif" font-size="10.00">DecompressCurves()</text>
<text xml:space="preserve" text-anchor="start" x="185.88" y="-40.5" font-family="Helvetica,sans-Serif" font-size="10.00">&#45;</text>
<text xml:space="preserve" text-anchor="start" x="194.5" y="-40.5" font-family="Helvetica,sans-Serif" font-size="10.00">DecompressCurve()</text>
<text xml:space="preserve" text-anchor="start" x="185.88" y="-23.75" font-family="Helvetica,sans-Serif" font-size="10.00">&#45;</text>
<text xml:space="preserve" text-anchor="start" x="194.5" y="-23.75" font-family="Helvetica,sans-Serif" font-size="10.00">GetCurveBufferAndSamples()</text>
<text xml:space="preserve" text-anchor="start" x="185.88" y="-7" font-family="Helvetica,sans-Serif" font-size="10.00">&#45;</text>
<text xml:space="preserve" text-anchor="start" x="194.5" y="-7" font-family="Helvetica,sans-Serif" font-size="10.00">GetCurveBufferAndSamples()</text>
<polygon fill="#666666" stroke="#666666" points="181,-85.75 181,-85.75 344.25,-85.75 344.25,-85.75 181,-85.75"/>
<polygon fill="#666666" stroke="#666666" points="181,-69 181,-69 344.25,-69 344.25,-69 181,-69"/>
<polygon fill="none" stroke="#666666" points="181,0 181,-117.25 344.25,-117.25 344.25,0 181,0"/>
</a>
</g>
</g>
<!-- Node1&#45;&gt;Node4 -->
<g id="edge3_Node000001_Node000004" class="edge">
<title>Node1&#45;&gt;Node4</title>
<g id="a_edge3_Node000001_Node000004"><a xlink:title=" ">
<path fill="none" stroke="#63b8ff" d="M262.62,-141.94C262.62,-133.71 262.62,-125.3 262.62,-117.16"/>
<polygon fill="none" stroke="#63b8ff" points="259.13,-141.91 262.63,-151.91 266.13,-141.91 259.13,-141.91"/>
</a>
</g>
</g>
<!-- Node5 -->
<g id="Node000005" class="node">
<title>Node5</title>
<g id="a_Node000005"><a xlink:href="classUAnimCurveCompressionCodec__UniformlySampled.html" target="_top" xlink:title=" ">
<polygon fill="white" stroke="none" points="525.25,-100.5 362,-100.5 362,-16.75 525.25,-16.75 525.25,-100.5"/>
<text xml:space="preserve" text-anchor="start" x="366" y="-86.75" font-family="Helvetica,sans-Serif" font-size="10.00">UAnimCurveCompressionCodec</text>
<text xml:space="preserve" text-anchor="start" x="395.25" y="-74" font-family="Helvetica,sans-Serif" font-size="10.00">_UniformlySampled</text>
<text xml:space="preserve" text-anchor="start" x="440.62" y="-57.25" font-family="Helvetica,sans-Serif" font-size="10.00"> </text>
<text xml:space="preserve" text-anchor="start" x="377.38" y="-40.5" font-family="Helvetica,sans-Serif" font-size="10.00">&#45;</text>
<text xml:space="preserve" text-anchor="start" x="396.5" y="-40.5" font-family="Helvetica,sans-Serif" font-size="10.00">DecompressCurves()</text>
<text xml:space="preserve" text-anchor="start" x="377.38" y="-23.75" font-family="Helvetica,sans-Serif" font-size="10.00">&#45;</text>
<text xml:space="preserve" text-anchor="start" x="396.5" y="-23.75" font-family="Helvetica,sans-Serif" font-size="10.00">DecompressCurve()</text>
<polygon fill="#666666" stroke="#666666" points="362,-69 362,-69 525.25,-69 525.25,-69 362,-69"/>
<polygon fill="#666666" stroke="#666666" points="362,-52.25 362,-52.25 525.25,-52.25 525.25,-52.25 362,-52.25"/>
<polygon fill="none" stroke="#666666" points="362,-16.75 362,-100.5 525.25,-100.5 525.25,-16.75 362,-16.75"/>
</a>
</g>
</g>
<!-- Node1&#45;&gt;Node5 -->
<g id="edge4_Node000001_Node000005" class="edge">
<title>Node1&#45;&gt;Node5</title>
<g id="a_edge4_Node000001_Node000005"><a xlink:title=" ">
<path fill="none" stroke="#63b8ff" d="M335.18,-146.42C354.41,-131.03 374.77,-114.74 392.59,-100.48"/>
<polygon fill="none" stroke="#63b8ff" points="333.24,-143.5 327.62,-152.48 337.61,-148.96 333.24,-143.5"/>
</a>
</g>
</g>
<!-- Node2 -->
<g id="Node000002" class="node">
<title>Node2</title>
<g id="a_Node000002"><a xlink:title=" ">
<polygon fill="white" stroke="none" points="286.12,-348 239.12,-348 239.12,-293.75 286.12,-293.75 286.12,-348"/>
<text xml:space="preserve" text-anchor="start" x="243.12" y="-334.25" font-family="Helvetica,sans-Serif" font-size="10.00">UObject</text>
<text xml:space="preserve" text-anchor="start" x="259.62" y="-317.5" font-family="Helvetica,sans-Serif" font-size="10.00"> </text>
<text xml:space="preserve" text-anchor="start" x="259.62" y="-300.75" font-family="Helvetica,sans-Serif" font-size="10.00"> </text>
<polygon fill="#666666" stroke="#666666" points="239.12,-329.25 239.12,-329.25 286.12,-329.25 286.12,-329.25 239.12,-329.25"/>
<polygon fill="#666666" stroke="#666666" points="239.12,-312.5 239.12,-312.5 286.12,-312.5 286.12,-312.5 239.12,-312.5"/>
<polygon fill="none" stroke="#666666" points="239.12,-293.75 239.12,-348 286.12,-348 286.12,-293.75 239.12,-293.75"/>
</a>
</g>
</g>
<!-- Node2&#45;&gt;Node1 -->
<g id="edge1_Node000001_Node000002" class="edge">
<title>Node2&#45;&gt;Node1</title>
<g id="a_edge1_Node000001_Node000002"><a xlink:title=" ">
<path fill="none" stroke="#63b8ff" d="M262.62,-282.58C262.62,-274.52 262.62,-265.87 262.62,-257.4"/>
<polygon fill="none" stroke="#63b8ff" points="259.13,-282.35 262.63,-292.35 266.13,-282.35 259.13,-282.35"/>
</a>
</g>
</g>
</g>
</svg>
