<?xml version="1.0" encoding="UTF-8" standalone="no"?>
<!DOCTYPE svg PUBLIC "-//W3C//DTD SVG 1.1//EN"
 "http://www.w3.org/Graphics/SVG/1.1/DTD/svg11.dtd">
<!-- Generated by graphviz version 14.1.4 (0)
 -->
<!-- Title: USceneComponent::AddRelativeLocation Pages: 1 -->
<svg width="391pt" height="164pt"
 viewBox="0.00 0.00 391.00 164.00" xmlns="http://www.w3.org/2000/svg" xmlns:xlink="http://www.w3.org/1999/xlink">

<svg id="main" version="1.1" xmlns="http://www.w3.org/2000/svg" xmlns:xlink="http://www.w3.org/1999/xlink" xml:space="preserve">

<style type="text/css"><![CDATA[
.node, .edge {opacity: 0.7;}
.node.selected, .edge.selected {opacity: 1;}
.edge:hover path { stroke: red; }
.edge:hover polygon { stroke: red; fill: red; }
]]></style>
<script type="application/ecmascript" xlink:href="svg.min.js"/>
<svg id="graph" class="graph">
<g id="graph0" class="graph" transform="scale(1 1) rotate(0) translate(4 159.5)">
<title>USceneComponent::AddRelativeLocation</title>
<!-- Node1 -->
<g id="Node000001" class="node">
<title>Node1</title>
<g id="a_Node000001"><a xlink:title=" ">
<polygon fill="#999999" stroke="#666666" points="174.25,-103.5 0,-103.5 0,-70 174.25,-70 174.25,-103.5"/>
<text xml:space="preserve" text-anchor="start" x="8" y="-90" font-family="Helvetica,sans-Serif" font-size="10.00">USceneComponent::AddRelative</text>
<text xml:space="preserve" text-anchor="middle" x="87.12" y="-77.25" font-family="Helvetica,sans-Serif" font-size="10.00">Location</text>
</a>
</g>
</g>
<!-- Node2 -->
<g id="Node000002" class="node">
<title>Node2</title>
<g id="a_Node000002"><a xlink:href="classUSceneComponent.html#a40715ae84e7c13b71432038946b4946a" target="_top" xlink:title=" ">
<polygon fill="white" stroke="#666666" points="383,-155.5 210.25,-155.5 210.25,-122 383,-122 383,-155.5"/>
<text xml:space="preserve" text-anchor="start" x="218.25" y="-142" font-family="Helvetica,sans-Serif" font-size="10.00">USceneComponent::GetRelative</text>
<text xml:space="preserve" text-anchor="middle" x="296.62" y="-129.25" font-family="Helvetica,sans-Serif" font-size="10.00">Location</text>
</a>
</g>
</g>
<!-- Node1&#45;&gt;Node2 -->
<g id="edge1_Node000001_Node000002" class="edge">
<title>Node1&#45;&gt;Node2</title>
<g id="a_edge1_Node000001_Node000002"><a xlink:title=" ">
<path fill="none" stroke="#63b8ff" d="M156.93,-103.99C175.86,-108.74 196.54,-113.92 216.01,-118.8"/>
<polygon fill="#63b8ff" stroke="#63b8ff" points="214.99,-122.15 225.54,-121.19 216.69,-115.36 214.99,-122.15"/>
</a>
</g>
</g>
<!-- Node3 -->
<g id="Node000003" class="node">
<title>Node3</title>
<g id="a_Node000003"><a xlink:href="classUSceneComponent.html#ad8bdb63e3ae8abb9b2c5e2c70bc00930" target="_top" xlink:title=" ">
<polygon fill="white" stroke="#666666" points="383,-103.5 210.25,-103.5 210.25,-70 383,-70 383,-103.5"/>
<text xml:space="preserve" text-anchor="start" x="218.25" y="-90" font-family="Helvetica,sans-Serif" font-size="10.00">USceneComponent::GetRelative</text>
<text xml:space="preserve" text-anchor="middle" x="296.62" y="-77.25" font-family="Helvetica,sans-Serif" font-size="10.00">Rotation</text>
</a>
</g>
</g>
<!-- Node1&#45;&gt;Node3 -->
<g id="edge2_Node000001_Node000003" class="edge">
<title>Node1&#45;&gt;Node3</title>
<g id="a_edge2_Node000001_Node000003"><a xlink:title=" ">
<path fill="none" stroke="#63b8ff" d="M174.62,-86.75C182.56,-86.75 190.63,-86.75 198.65,-86.75"/>
<polygon fill="#63b8ff" stroke="#63b8ff" points="198.42,-90.25 208.42,-86.75 198.42,-83.25 198.42,-90.25"/>
</a>
</g>
</g>
<!-- Node4 -->
<g id="Node000004" class="node">
<title>Node4</title>
<g id="a_Node000004"><a xlink:href="classUSceneComponent.html#a59af753075bfb835bfacb52558a3fe56" target="_top" xlink:title=" ">
<polygon fill="white" stroke="#666666" points="382.25,-33.5 211,-33.5 211,0 382.25,0 382.25,-33.5"/>
<text xml:space="preserve" text-anchor="start" x="219" y="-20" font-family="Helvetica,sans-Serif" font-size="10.00">USceneComponent::SetRelative</text>
<text xml:space="preserve" text-anchor="middle" x="296.62" y="-7.25" font-family="Helvetica,sans-Serif" font-size="10.00">LocationAndRotation</text>
</a>
</g>
</g>
<!-- Node1&#45;&gt;Node4 -->
<g id="edge3_Node000001_Node000004" class="edge">
<title>Node1&#45;&gt;Node4</title>
<g id="a_edge3_Node000001_Node000004"><a xlink:title=" ">
<path fill="none" stroke="#63b8ff" d="M139.15,-69.54C167.79,-59.87 203.74,-47.75 233.95,-37.56"/>
<polygon fill="#63b8ff" stroke="#63b8ff" points="235.01,-40.89 243.36,-34.38 232.77,-34.26 235.01,-40.89"/>
</a>
</g>
</g>
<!-- Node4&#45;&gt;Node4 -->
<g id="edge4_Node000004_Node000004" class="edge">
<title>Node4&#45;&gt;Node4</title>
<g id="a_edge4_Node000004_Node000004"><a xlink:title=" ">
<path fill="none" stroke="#63b8ff" d="M258.96,-33.91C252.56,-43.12 265.12,-51.5 296.62,-51.5 314.1,-51.5 325.75,-48.92 331.56,-45.05"/>
<polygon fill="#63b8ff" stroke="#63b8ff" points="334.95,-45.93 333.93,-35.38 328.15,-44.27 334.95,-45.93"/>
</a>
</g>
</g>
</g>
</svg>
</svg>

<style type='text/css'>
<![CDATA[
[data-mouse-over-selected='false'] { opacity: 0.7; }
[data-mouse-over-selected='true']  { opacity: 1.0; }
]]>
</style>
<script type="application/ecmascript"><![CDATA[
document.addEventListener('DOMContentLoaded', (event) => {
  highlightEdges();
  highlightAdjacentNodes();
});
]]></script>
</svg>
