<?xml version="1.0" encoding="UTF-8" standalone="no"?>
<!DOCTYPE svg PUBLIC "-//W3C//DTD SVG 1.1//EN"
 "http://www.w3.org/Graphics/SVG/1.1/DTD/svg11.dtd">
<!-- Generated by graphviz version 14.1.4 (0)
 -->
<!-- Title: FCbWriter::operator&lt;&lt; Pages: 1 -->
<svg width="592pt" height="66pt"
 viewBox="0.00 0.00 592.00 66.00" xmlns="http://www.w3.org/2000/svg" xmlns:xlink="http://www.w3.org/1999/xlink">
<g id="graph0" class="graph" transform="scale(1 1) rotate(0) translate(4 61.75)">
<title>FCbWriter::operator&lt;&lt;</title>
<!-- Node1 -->
<g id="Node000001" class="node">
<title>Node1</title>
<g id="a_Node000001"><a xlink:title=" ">
<polygon fill="#999999" stroke="#666666" points="128.5,-20.75 0,-20.75 0,0 128.5,0 128.5,-20.75"/>
<text xml:space="preserve" text-anchor="middle" x="64.25" y="-7.25" font-family="Helvetica,sans-Serif" font-size="10.00">FCbWriter::operator&lt;&lt;</text>
</a>
</g>
</g>
<!-- Node2 -->
<g id="Node000002" class="node">
<title>Node2</title>
<g id="a_Node000002"><a xlink:href="$classFCbWriter.html#a83c4a8d77dae4d9ee0ab9274455307e1" xlink:title=" ">
<polygon fill="white" stroke="#666666" points="276.5,-39.75 164.5,-39.75 164.5,-19 276.5,-19 276.5,-39.75"/>
<text xml:space="preserve" text-anchor="middle" x="220.5" y="-26.25" font-family="Helvetica,sans-Serif" font-size="10.00">FCbWriter::AddField</text>
</a>
</g>
</g>
<!-- Node1&#45;&gt;Node2 -->
<g id="edge1_Node000001_Node000002" class="edge">
<title>Node1&#45;&gt;Node2</title>
<g id="a_edge1_Node000001_Node000002"><a xlink:title=" ">
<path fill="none" stroke="#63b8ff" d="M128.88,-18.21C136.89,-19.2 145.1,-20.21 153.15,-21.2"/>
<polygon fill="#63b8ff" stroke="#63b8ff" points="152.53,-24.65 162.89,-22.4 153.39,-17.71 152.53,-24.65"/>
</a>
</g>
</g>
<!-- Node4 -->
<g id="Node000004" class="node">
<title>Node4</title>
<g id="a_Node000004"><a xlink:href="$classFCbWriter.html#a7c09ba445af8c914c0f93fb548aa0030" xlink:title=" ">
<polygon fill="white" stroke="#666666" points="583.75,-20.75 464.25,-20.75 464.25,0 583.75,0 583.75,-20.75"/>
<text xml:space="preserve" text-anchor="middle" x="524" y="-7.25" font-family="Helvetica,sans-Serif" font-size="10.00">FCbWriter::FCbWriter</text>
</a>
</g>
</g>
<!-- Node1&#45;&gt;Node4 -->
<g id="edge5_Node000001_Node000004" class="edge">
<title>Node1&#45;&gt;Node4</title>
<g id="a_edge5_Node000001_Node000004"><a xlink:title=" ">
<path fill="none" stroke="#63b8ff" d="M128.9,-10.38C213.97,-10.38 364.27,-10.38 452.63,-10.38"/>
<polygon fill="#63b8ff" stroke="#63b8ff" points="452.37,-13.88 462.37,-10.38 452.37,-6.88 452.37,-13.88"/>
</a>
</g>
</g>
<!-- Node2&#45;&gt;Node2 -->
<g id="edge2_Node000002_Node000002" class="edge">
<title>Node2&#45;&gt;Node2</title>
<g id="a_edge2_Node000002_Node000002"><a xlink:title=" ">
<path fill="none" stroke="#63b8ff" d="M196.35,-40.15C186.69,-48.81 194.74,-57.75 220.5,-57.75 234.59,-57.75 243.38,-55.08 246.87,-51.24"/>
<polygon fill="#63b8ff" stroke="#63b8ff" points="250.34,-50.75 244.95,-41.63 243.48,-52.12 250.34,-50.75"/>
</a>
</g>
</g>
<!-- Node3 -->
<g id="Node000003" class="node">
<title>Node3</title>
<g id="a_Node000003"><a xlink:href="$classFCbWriter.html#ad3a504d3fc21af4cdc6fd3a842ccea14" xlink:title=" ">
<polygon fill="white" stroke="#666666" points="428.25,-39.75 312.5,-39.75 312.5,-19 428.25,-19 428.25,-39.75"/>
<text xml:space="preserve" text-anchor="middle" x="370.38" y="-26.25" font-family="Helvetica,sans-Serif" font-size="10.00">FCbWriter::SetName</text>
</a>
</g>
</g>
<!-- Node2&#45;&gt;Node3 -->
<g id="edge3_Node000002_Node000003" class="edge">
<title>Node2&#45;&gt;Node3</title>
<g id="a_edge3_Node000002_Node000003"><a xlink:title=" ">
<path fill="none" stroke="#63b8ff" d="M276.98,-29.38C284.69,-29.38 292.69,-29.38 300.6,-29.38"/>
<polygon fill="#63b8ff" stroke="#63b8ff" points="300.59,-32.88 310.59,-29.38 300.59,-25.88 300.59,-32.88"/>
</a>
</g>
</g>
<!-- Node3&#45;&gt;Node4 -->
<g id="edge4_Node000003_Node000004" class="edge">
<title>Node3&#45;&gt;Node4</title>
<g id="a_edge4_Node000003_Node000004"><a xlink:title=" ">
<path fill="none" stroke="#63b8ff" d="M428.7,-22.19C436.51,-21.21 444.59,-20.2 452.6,-19.2"/>
<polygon fill="#63b8ff" stroke="#63b8ff" points="452.84,-22.69 462.33,-17.98 451.97,-15.75 452.84,-22.69"/>
</a>
</g>
</g>
</g>
</svg>
