<?xml version="1.0" encoding="UTF-8" standalone="no"?>
<!DOCTYPE svg PUBLIC "-//W3C//DTD SVG 1.1//EN"
 "http://www.w3.org/Graphics/SVG/1.1/DTD/svg11.dtd">
<!-- Generated by graphviz version 14.1.4 (0)
 -->
<!-- Title: TClosableLockFreePointerListUnorderedSingleConsumer::PopAllAndClose Pages: 1 -->
<svg width="522pt" height="94pt"
 viewBox="0.00 0.00 522.00 94.00" xmlns="http://www.w3.org/2000/svg" xmlns:xlink="http://www.w3.org/1999/xlink">
<g id="graph0" class="graph" transform="scale(1 1) rotate(0) translate(4 89.5)">
<title>TClosableLockFreePointerListUnorderedSingleConsumer::PopAllAndClose</title>
<!-- Node1 -->
<g id="Node000001" class="node">
<title>Node1</title>
<g id="a_Node000001"><a xlink:title=" ">
<polygon fill="#999999" stroke="#666666" points="163.75,-65.88 0,-65.88 0,-19.62 163.75,-19.62 163.75,-65.88"/>
<text xml:space="preserve" text-anchor="start" x="8" y="-52.38" font-family="Helvetica,sans-Serif" font-size="10.00">TClosableLockFreePointer</text>
<text xml:space="preserve" text-anchor="start" x="8" y="-39.62" font-family="Helvetica,sans-Serif" font-size="10.00">ListUnorderedSingleConsumer</text>
<text xml:space="preserve" text-anchor="middle" x="81.88" y="-26.88" font-family="Helvetica,sans-Serif" font-size="10.00">::PopAllAndClose</text>
</a>
</g>
</g>
<!-- Node2 -->
<g id="Node000002" class="node">
<title>Node2</title>
<g id="a_Node000002"><a xlink:href="$classFLockFreePointerListLIFOBase.html#a556e530f24c342555b14d3aa4dc7d34c" xlink:title=" ">
<polygon fill="white" stroke="#666666" points="362.75,-59.5 199.75,-59.5 199.75,-26 362.75,-26 362.75,-59.5"/>
<text xml:space="preserve" text-anchor="start" x="207.75" y="-46" font-family="Helvetica,sans-Serif" font-size="10.00">FLockFreePointerListLIFOBase</text>
<text xml:space="preserve" text-anchor="middle" x="281.25" y="-33.25" font-family="Helvetica,sans-Serif" font-size="10.00">::PopAllAndChangeState</text>
</a>
</g>
</g>
<!-- Node1&#45;&gt;Node2 -->
<g id="edge1_Node000001_Node000002" class="edge">
<title>Node1&#45;&gt;Node2</title>
<g id="a_edge1_Node000001_Node000002"><a xlink:title=" ">
<path fill="none" stroke="#63b8ff" d="M164.01,-42.75C171.96,-42.75 180.07,-42.75 188.11,-42.75"/>
<polygon fill="#63b8ff" stroke="#63b8ff" points="187.92,-46.25 197.92,-42.75 187.92,-39.25 187.92,-46.25"/>
</a>
</g>
</g>
<!-- Node3 -->
<g id="Node000003" class="node">
<title>Node3</title>
<g id="a_Node000003"><a xlink:href="$structFLockFreeLinkPolicy.html#a226780fa838832bba7b17766a6904d25" xlink:title=" ">
<polygon fill="white" stroke="#666666" points="513.75,-85.5 398.75,-85.5 398.75,-52 513.75,-52 513.75,-85.5"/>
<text xml:space="preserve" text-anchor="start" x="406.75" y="-72" font-family="Helvetica,sans-Serif" font-size="10.00">FLockFreeLinkPolicy</text>
<text xml:space="preserve" text-anchor="middle" x="456.25" y="-59.25" font-family="Helvetica,sans-Serif" font-size="10.00">::DerefLink</text>
</a>
</g>
</g>
<!-- Node2&#45;&gt;Node3 -->
<g id="edge2_Node000002_Node000003" class="edge">
<title>Node2&#45;&gt;Node3</title>
<g id="a_edge2_Node000002_Node000003"><a xlink:title=" ">
<path fill="none" stroke="#63b8ff" d="M363.18,-54.91C371.15,-56.11 379.19,-57.32 387.02,-58.5"/>
<polygon fill="#63b8ff" stroke="#63b8ff" points="386.41,-61.94 396.82,-59.97 387.45,-55.02 386.41,-61.94"/>
</a>
</g>
</g>
<!-- Node4 -->
<g id="Node000004" class="node">
<title>Node4</title>
<g id="a_Node000004"><a xlink:href="$structFLockFreeLinkPolicy.html#a434b12c7ff90c85908ced9bafb88cb65" xlink:title=" ">
<polygon fill="white" stroke="#666666" points="513.75,-33.5 398.75,-33.5 398.75,0 513.75,0 513.75,-33.5"/>
<text xml:space="preserve" text-anchor="start" x="406.75" y="-20" font-family="Helvetica,sans-Serif" font-size="10.00">FLockFreeLinkPolicy</text>
<text xml:space="preserve" text-anchor="middle" x="456.25" y="-7.25" font-family="Helvetica,sans-Serif" font-size="10.00">::FreeLockFreeLink</text>
</a>
</g>
</g>
<!-- Node2&#45;&gt;Node4 -->
<g id="edge3_Node000002_Node000004" class="edge">
<title>Node2&#45;&gt;Node4</title>
<g id="a_edge3_Node000002_Node000004"><a xlink:title=" ">
<path fill="none" stroke="#63b8ff" d="M363.18,-30.59C371.15,-29.39 379.19,-28.18 387.02,-27"/>
<polygon fill="#63b8ff" stroke="#63b8ff" points="387.45,-30.48 396.82,-25.53 386.41,-23.56 387.45,-30.48"/>
</a>
</g>
</g>
</g>
</svg>
