<?xml version="1.0" encoding="UTF-8" standalone="no"?>
<!DOCTYPE svg PUBLIC "-//W3C//DTD SVG 1.1//EN"
 "http://www.w3.org/Graphics/SVG/1.1/DTD/svg11.dtd">
<!-- Generated by graphviz version 14.1.4 (0)
 -->
<!-- Title: FLockFreePointerListLIFORoot&lt; TPaddingForCacheContention, TABAInc &gt; Pages: 1 -->
<svg width="181pt" height="641pt"
 viewBox="0.00 0.00 181.00 641.00" xmlns="http://www.w3.org/2000/svg" xmlns:xlink="http://www.w3.org/1999/xlink">
<g id="graph0" class="graph" transform="scale(1 1) rotate(0) translate(4 636.75)">
<title>FLockFreePointerListLIFORoot&lt; TPaddingForCacheContention, TABAInc &gt;</title>
<!-- Node1 -->
<g id="Node000001" class="node">
<title>Node1</title>
<g id="a_Node000001"><a xlink:title=" ">
<polygon fill="#999999" stroke="none" points="173.25,-213.75 0,-213.75 0,0 173.25,0 173.25,-213.75"/>
<text xml:space="preserve" text-anchor="start" x="7.88" y="-200" font-family="Helvetica,sans-Serif" font-size="10.00">FLockFreePointerListLIFORoot</text>
<text xml:space="preserve" text-anchor="start" x="7.88" y="-187.25" font-family="Helvetica,sans-Serif" font-size="10.00">&lt; TPaddingForCacheContention,</text>
<text xml:space="preserve" text-anchor="start" x="59.25" y="-174.5" font-family="Helvetica,sans-Serif" font-size="10.00"> TABAInc &gt;</text>
<text xml:space="preserve" text-anchor="start" x="83.62" y="-157.75" font-family="Helvetica,sans-Serif" font-size="10.00"> </text>
<text xml:space="preserve" text-anchor="start" x="4" y="-141" font-family="Helvetica,sans-Serif" font-size="10.00">+</text>
<text xml:space="preserve" text-anchor="start" x="16.25" y="-141" font-family="Helvetica,sans-Serif" font-size="10.00">FLockFreePointerListLIFORoot()</text>
<text xml:space="preserve" text-anchor="start" x="4" y="-124.25" font-family="Helvetica,sans-Serif" font-size="10.00">+</text>
<text xml:space="preserve" text-anchor="start" x="16.25" y="-124.25" font-family="Helvetica,sans-Serif" font-size="10.00">Reset()</text>
<text xml:space="preserve" text-anchor="start" x="4" y="-107.5" font-family="Helvetica,sans-Serif" font-size="10.00">+</text>
<text xml:space="preserve" text-anchor="start" x="16.25" y="-107.5" font-family="Helvetica,sans-Serif" font-size="10.00">Push()</text>
<text xml:space="preserve" text-anchor="start" x="4" y="-90.75" font-family="Helvetica,sans-Serif" font-size="10.00">+</text>
<text xml:space="preserve" text-anchor="start" x="16.25" y="-90.75" font-family="Helvetica,sans-Serif" font-size="10.00">PushIf()</text>
<text xml:space="preserve" text-anchor="start" x="4" y="-74" font-family="Helvetica,sans-Serif" font-size="10.00">+</text>
<text xml:space="preserve" text-anchor="start" x="16.25" y="-74" font-family="Helvetica,sans-Serif" font-size="10.00">Pop()</text>
<text xml:space="preserve" text-anchor="start" x="4" y="-57.25" font-family="Helvetica,sans-Serif" font-size="10.00">+</text>
<text xml:space="preserve" text-anchor="start" x="16.25" y="-57.25" font-family="Helvetica,sans-Serif" font-size="10.00">PopAll()</text>
<text xml:space="preserve" text-anchor="start" x="4" y="-40.5" font-family="Helvetica,sans-Serif" font-size="10.00">+</text>
<text xml:space="preserve" text-anchor="start" x="16.25" y="-40.5" font-family="Helvetica,sans-Serif" font-size="10.00">PopAllAndChangeState()</text>
<text xml:space="preserve" text-anchor="start" x="4" y="-23.75" font-family="Helvetica,sans-Serif" font-size="10.00">+</text>
<text xml:space="preserve" text-anchor="start" x="16.25" y="-23.75" font-family="Helvetica,sans-Serif" font-size="10.00">IsEmpty()</text>
<text xml:space="preserve" text-anchor="start" x="4" y="-7" font-family="Helvetica,sans-Serif" font-size="10.00">+</text>
<text xml:space="preserve" text-anchor="start" x="16.25" y="-7" font-family="Helvetica,sans-Serif" font-size="10.00">GetState()</text>
<polygon fill="#666666" stroke="#666666" points="0,-169.5 0,-169.5 173.25,-169.5 173.25,-169.5 0,-169.5"/>
<polygon fill="#666666" stroke="#666666" points="0,-152.75 0,-152.75 173.25,-152.75 173.25,-152.75 0,-152.75"/>
<polygon fill="none" stroke="#666666" points="0,0 0,-213.75 173.25,-213.75 173.25,0 0,0"/>
</a>
</g>
</g>
<!-- Node2 -->
<g id="Node000002" class="node">
<title>Node2</title>
<g id="a_Node000002"><a xlink:href="$structFIndexedPointer.html" xlink:title=" ">
<polygon fill="white" stroke="none" points="173.25,-523.75 0,-523.75 0,-268.5 173.25,-268.5 173.25,-523.75"/>
<text xml:space="preserve" text-anchor="start" x="46.88" y="-510" font-family="Helvetica,sans-Serif" font-size="10.00">FIndexedPointer</text>
<text xml:space="preserve" text-anchor="start" x="83.62" y="-493.25" font-family="Helvetica,sans-Serif" font-size="10.00"> </text>
<text xml:space="preserve" text-anchor="start" x="4" y="-476.5" font-family="Helvetica,sans-Serif" font-size="10.00">+</text>
<text xml:space="preserve" text-anchor="start" x="16.25" y="-476.5" font-family="Helvetica,sans-Serif" font-size="10.00">Init()</text>
<text xml:space="preserve" text-anchor="start" x="4" y="-459.75" font-family="Helvetica,sans-Serif" font-size="10.00">+</text>
<text xml:space="preserve" text-anchor="start" x="16.25" y="-459.75" font-family="Helvetica,sans-Serif" font-size="10.00">SetAll()</text>
<text xml:space="preserve" text-anchor="start" x="4" y="-443" font-family="Helvetica,sans-Serif" font-size="10.00">+</text>
<text xml:space="preserve" text-anchor="start" x="16.25" y="-443" font-family="Helvetica,sans-Serif" font-size="10.00">GetPtr()</text>
<text xml:space="preserve" text-anchor="start" x="4" y="-426.25" font-family="Helvetica,sans-Serif" font-size="10.00">+</text>
<text xml:space="preserve" text-anchor="start" x="16.25" y="-426.25" font-family="Helvetica,sans-Serif" font-size="10.00">SetPtr()</text>
<text xml:space="preserve" text-anchor="start" x="4" y="-409.5" font-family="Helvetica,sans-Serif" font-size="10.00">+</text>
<text xml:space="preserve" text-anchor="start" x="16.25" y="-409.5" font-family="Helvetica,sans-Serif" font-size="10.00">GetCounterAndState()</text>
<text xml:space="preserve" text-anchor="start" x="4" y="-392.75" font-family="Helvetica,sans-Serif" font-size="10.00">+</text>
<text xml:space="preserve" text-anchor="start" x="16.25" y="-392.75" font-family="Helvetica,sans-Serif" font-size="10.00">SetCounterAndState()</text>
<text xml:space="preserve" text-anchor="start" x="4" y="-376" font-family="Helvetica,sans-Serif" font-size="10.00">+</text>
<text xml:space="preserve" text-anchor="start" x="16.25" y="-376" font-family="Helvetica,sans-Serif" font-size="10.00">AdvanceCounterAndState()</text>
<text xml:space="preserve" text-anchor="start" x="4" y="-359.25" font-family="Helvetica,sans-Serif" font-size="10.00">+</text>
<text xml:space="preserve" text-anchor="start" x="16.25" y="-359.25" font-family="Helvetica,sans-Serif" font-size="10.00">GetState()</text>
<text xml:space="preserve" text-anchor="start" x="4" y="-342.5" font-family="Helvetica,sans-Serif" font-size="10.00">+</text>
<text xml:space="preserve" text-anchor="start" x="16.25" y="-342.5" font-family="Helvetica,sans-Serif" font-size="10.00">SetState()</text>
<text xml:space="preserve" text-anchor="start" x="4" y="-325.75" font-family="Helvetica,sans-Serif" font-size="10.00">+</text>
<text xml:space="preserve" text-anchor="start" x="16.25" y="-325.75" font-family="Helvetica,sans-Serif" font-size="10.00">AtomicRead()</text>
<text xml:space="preserve" text-anchor="start" x="4" y="-309" font-family="Helvetica,sans-Serif" font-size="10.00">+</text>
<text xml:space="preserve" text-anchor="start" x="16.25" y="-309" font-family="Helvetica,sans-Serif" font-size="10.00">InterlockedCompareExchange()</text>
<text xml:space="preserve" text-anchor="start" x="4" y="-292.25" font-family="Helvetica,sans-Serif" font-size="10.00">+</text>
<text xml:space="preserve" text-anchor="start" x="16.25" y="-292.25" font-family="Helvetica,sans-Serif" font-size="10.00">operator==()</text>
<text xml:space="preserve" text-anchor="start" x="4" y="-275.5" font-family="Helvetica,sans-Serif" font-size="10.00">+</text>
<text xml:space="preserve" text-anchor="start" x="16.25" y="-275.5" font-family="Helvetica,sans-Serif" font-size="10.00">operator!=()</text>
<polygon fill="#666666" stroke="#666666" points="0,-505 0,-505 173.25,-505 173.25,-505 0,-505"/>
<polygon fill="#666666" stroke="#666666" points="0,-488.25 0,-488.25 173.25,-488.25 173.25,-488.25 0,-488.25"/>
<polygon fill="none" stroke="#666666" points="0,-268.5 0,-523.75 173.25,-523.75 173.25,-268.5 0,-268.5"/>
</a>
</g>
</g>
<!-- Node2&#45;&gt;Node1 -->
<g id="edge1_Node000001_Node000002" class="edge">
<title>Node2&#45;&gt;Node1</title>
<g id="a_edge1_Node000001_Node000002"><a xlink:title=" ">
<path fill="none" stroke="#63b8ff" d="M86.62,-268.71C86.62,-254.66 86.62,-240.37 86.62,-226.42"/>
<polygon fill="none" stroke="#63b8ff" points="86.63,-226.61 82.63,-220.61 86.63,-214.61 90.63,-220.61 86.63,-226.61"/>
</a>
</g>
<text xml:space="preserve" text-anchor="start" x="89.62" y="-237.75" font-family="Helvetica,sans-Serif" font-size="10.00" fill="grey">&#45;Head</text>
</g>
<!-- Node3 -->
<g id="Node000003" class="node">
<title>Node3</title>
<g id="a_Node000003"><a xlink:title=" ">
<polygon fill="white" stroke="none" points="144.62,-632.75 28.62,-632.75 28.62,-578.5 144.62,-578.5 144.62,-632.75"/>
<text xml:space="preserve" text-anchor="start" x="32.62" y="-619" font-family="Helvetica,sans-Serif" font-size="10.00">std::atomic&lt; uint64 &gt;</text>
<text xml:space="preserve" text-anchor="start" x="53.19" y="-602.25" font-family="Helvetica,sans-Serif" font-size="10.00">+</text>
<text xml:space="preserve" text-anchor="start" x="86" y="-602.25" font-family="Helvetica,sans-Serif" font-size="10.00">ptr</text>
<text xml:space="preserve" text-anchor="start" x="83.62" y="-585.5" font-family="Helvetica,sans-Serif" font-size="10.00"> </text>
<polygon fill="#666666" stroke="#666666" points="28.62,-614 28.62,-614 144.62,-614 144.62,-614 28.62,-614"/>
<polygon fill="#666666" stroke="#666666" points="28.62,-597.25 28.62,-597.25 84,-597.25 84,-597.25 28.62,-597.25"/>
<polygon fill="#666666" stroke="#666666" points="84,-597.25 84,-597.25 144.62,-597.25 144.62,-597.25 84,-597.25"/>
<polygon fill="none" stroke="#666666" points="28.62,-578.5 28.62,-632.75 144.62,-632.75 144.62,-578.5 28.62,-578.5"/>
</a>
</g>
</g>
<!-- Node3&#45;&gt;Node2 -->
<g id="edge2_Node000002_Node000003" class="edge">
<title>Node3&#45;&gt;Node2</title>
<g id="a_edge2_Node000002_Node000003"><a xlink:title=" ">
<path fill="none" stroke="#63b8ff" d="M86.62,-578.76C86.62,-567.19 86.62,-552.57 86.62,-536.67"/>
<polygon fill="none" stroke="#63b8ff" points="86.63,-536.59 82.63,-530.59 86.63,-524.59 90.63,-530.59 86.63,-536.59"/>
</a>
</g>
<text xml:space="preserve" text-anchor="start" x="89.62" y="-547.75" font-family="Helvetica,sans-Serif" font-size="10.00" fill="grey">&#45;Ptrs</text>
</g>
</g>
</svg>
