<?xml version="1.0" encoding="UTF-8" standalone="no"?>
<!DOCTYPE svg PUBLIC "-//W3C//DTD SVG 1.1//EN"
 "http://www.w3.org/Graphics/SVG/1.1/DTD/svg11.dtd">
<!-- Generated by graphviz version 14.1.4 (0)
 -->
<!-- Title: FManagedStorageScopeFileLock::Lock Pages: 1 -->
<svg width="633pt" height="198pt"
 viewBox="0.00 0.00 633.00 198.00" xmlns="http://www.w3.org/2000/svg" xmlns:xlink="http://www.w3.org/1999/xlink">
<g id="graph0" class="graph" transform="scale(1 1) rotate(0) translate(4 193.5)">
<title>FManagedStorageScopeFileLock::Lock</title>
<!-- Node1 -->
<g id="Node000001" class="node">
<title>Node1</title>
<g id="a_Node000001"><a xlink:title=" ">
<polygon fill="#999999" stroke="#666666" points="624.75,-111.5 474.5,-111.5 474.5,-78 624.75,-78 624.75,-111.5"/>
<text xml:space="preserve" text-anchor="start" x="482.5" y="-98" font-family="Helvetica,sans-Serif" font-size="10.00">FManagedStorageScopeFile</text>
<text xml:space="preserve" text-anchor="middle" x="549.62" y="-85.25" font-family="Helvetica,sans-Serif" font-size="10.00">Lock::Lock</text>
</a>
</g>
</g>
<!-- Node2 -->
<g id="Node000002" class="node">
<title>Node2</title>
<g id="a_Node000002"><a xlink:href="$classFManagedStorageScopeFileLock.html#a48a3d1e00bed65d41d8f471ea5eef4c9" xlink:title=" ">
<polygon fill="white" stroke="#666666" points="438.5,-111.5 237.25,-111.5 237.25,-78 438.5,-78 438.5,-111.5"/>
<text xml:space="preserve" text-anchor="start" x="245.25" y="-98" font-family="Helvetica,sans-Serif" font-size="10.00">FManagedStorageScopeFile</text>
<text xml:space="preserve" text-anchor="middle" x="337.88" y="-85.25" font-family="Helvetica,sans-Serif" font-size="10.00">Lock::FManagedStorageScopeFileLock</text>
</a>
</g>
</g>
<!-- Node1&#45;&gt;Node2 -->
<g id="edge1_Node000001_Node000002" class="edge">
<title>Node1&#45;&gt;Node2</title>
<g id="a_edge1_Node000001_Node000002"><a xlink:title=" ">
<path fill="none" stroke="#63b8ff" d="M462.69,-94.75C454.83,-94.75 446.82,-94.75 438.85,-94.75"/>
<polygon fill="#63b8ff" stroke="#63b8ff" points="462.57,-98.25 472.57,-94.75 462.57,-91.25 462.57,-98.25"/>
</a>
</g>
</g>
<!-- Node3 -->
<g id="Node000003" class="node">
<title>Node3</title>
<g id="a_Node000003"><a xlink:href="$classFManagedStorageScopeFileLock.html#a7f90dbf8513a9dabc41f97ecf6d4267a" xlink:title=" ">
<polygon fill="white" stroke="#666666" points="201.25,-189.5 0,-189.5 0,-156 201.25,-156 201.25,-189.5"/>
<text xml:space="preserve" text-anchor="start" x="8" y="-176" font-family="Helvetica,sans-Serif" font-size="10.00">FManagedStorageScopeFile</text>
<text xml:space="preserve" text-anchor="middle" x="100.62" y="-163.25" font-family="Helvetica,sans-Serif" font-size="10.00">Lock::FManagedStorageScopeFileLock</text>
</a>
</g>
</g>
<!-- Node2&#45;&gt;Node3 -->
<g id="edge2_Node000002_Node000003" class="edge">
<title>Node2&#45;&gt;Node3</title>
<g id="a_edge2_Node000002_Node000003"><a xlink:title=" ">
<path fill="none" stroke="#63b8ff" d="M285.35,-116.05C260.22,-126.04 229.4,-137.71 201.25,-146.75 191.72,-149.81 181.59,-152.78 171.58,-155.54"/>
<polygon fill="#63b8ff" stroke="#63b8ff" points="286.36,-119.42 294.34,-112.45 283.76,-112.92 286.36,-119.42"/>
</a>
</g>
</g>
<!-- Node4 -->
<g id="Node000004" class="node">
<title>Node4</title>
<g id="a_Node000004"><a xlink:href="$classFManagedStorageScopeFileLock.html#afc9a9704576215e480cca653d83b2a9e" xlink:title=" ">
<polygon fill="white" stroke="#666666" points="201.25,-137.5 0,-137.5 0,-104 201.25,-104 201.25,-137.5"/>
<text xml:space="preserve" text-anchor="start" x="8" y="-124" font-family="Helvetica,sans-Serif" font-size="10.00">FManagedStorageScopeFile</text>
<text xml:space="preserve" text-anchor="middle" x="100.62" y="-111.25" font-family="Helvetica,sans-Serif" font-size="10.00">Lock::FManagedStorageScopeFileLock</text>
</a>
</g>
</g>
<!-- Node2&#45;&gt;Node4 -->
<g id="edge3_Node000002_Node000004" class="edge">
<title>Node2&#45;&gt;Node4</title>
<g id="a_edge3_Node000002_Node000004"><a xlink:title=" ">
<path fill="none" stroke="#63b8ff" d="M225.53,-107.06C217.56,-107.94 209.55,-108.82 201.64,-109.7"/>
<polygon fill="#63b8ff" stroke="#63b8ff" points="225.71,-110.56 235.26,-105.98 224.94,-103.6 225.71,-110.56"/>
</a>
</g>
</g>
<!-- Node5 -->
<g id="Node000005" class="node">
<title>Node5</title>
<g id="a_Node000005"><a xlink:href="$classFManagedStorageScopeFileLock.html#ac70c933fc55bc1998d99d59da0dfd504" xlink:title=" ">
<polygon fill="white" stroke="#666666" points="175.75,-85.5 25.5,-85.5 25.5,-52 175.75,-52 175.75,-85.5"/>
<text xml:space="preserve" text-anchor="start" x="33.5" y="-72" font-family="Helvetica,sans-Serif" font-size="10.00">FManagedStorageScopeFile</text>
<text xml:space="preserve" text-anchor="middle" x="100.62" y="-59.25" font-family="Helvetica,sans-Serif" font-size="10.00">Lock::operator=</text>
</a>
</g>
</g>
<!-- Node2&#45;&gt;Node5 -->
<g id="edge4_Node000002_Node000005" class="edge">
<title>Node2&#45;&gt;Node5</title>
<g id="a_edge4_Node000002_Node000005"><a xlink:title=" ">
<path fill="none" stroke="#63b8ff" d="M225.72,-82.47C208.86,-80.6 191.81,-78.72 175.98,-76.97"/>
<polygon fill="#63b8ff" stroke="#63b8ff" points="224.94,-85.9 235.26,-83.52 225.71,-78.94 224.94,-85.9"/>
</a>
</g>
</g>
<!-- Node6 -->
<g id="Node000006" class="node">
<title>Node6</title>
<g id="a_Node000006"><a xlink:href="$classFManagedStorageScopeFileLock.html#aeb1e2cd1fa8949c8c0257c4023a987fc" xlink:title=" ">
<polygon fill="white" stroke="#666666" points="175.75,-33.5 25.5,-33.5 25.5,0 175.75,0 175.75,-33.5"/>
<text xml:space="preserve" text-anchor="start" x="33.5" y="-20" font-family="Helvetica,sans-Serif" font-size="10.00">FManagedStorageScopeFile</text>
<text xml:space="preserve" text-anchor="middle" x="100.62" y="-7.25" font-family="Helvetica,sans-Serif" font-size="10.00">Lock::operator=</text>
</a>
</g>
</g>
<!-- Node2&#45;&gt;Node6 -->
<g id="edge5_Node000002_Node000006" class="edge">
<title>Node2&#45;&gt;Node6</title>
<g id="a_edge5_Node000002_Node000006"><a xlink:title=" ">
<path fill="none" stroke="#63b8ff" d="M285.35,-73.45C260.22,-63.46 229.4,-51.79 201.25,-42.75 191.72,-39.69 181.59,-36.72 171.58,-33.96"/>
<polygon fill="#63b8ff" stroke="#63b8ff" points="283.76,-76.58 294.34,-77.05 286.36,-70.08 283.76,-76.58"/>
</a>
</g>
</g>
</g>
</svg>
