<?xml version="1.0" encoding="UTF-8" standalone="no"?>
<!DOCTYPE svg PUBLIC "-//W3C//DTD SVG 1.1//EN"
 "http://www.w3.org/Graphics/SVG/1.1/DTD/svg11.dtd">
<!-- Generated by graphviz version 14.1.4 (0)
 -->
<!-- Title: UE::Anim::FNonBlendableAttributeBlendOperator Pages: 1 -->
<svg width="184pt" height="392pt"
 viewBox="0.00 0.00 184.00 392.00" xmlns="http://www.w3.org/2000/svg" xmlns:xlink="http://www.w3.org/1999/xlink">
<g id="graph0" class="graph" transform="scale(1 1) rotate(0) translate(4 387.75)">
<title>UE::Anim::FNonBlendableAttributeBlendOperator</title>
<!-- Node1 -->
<g id="Node000001" class="node">
<title>Node1</title>
<g id="a_Node000001"><a xlink:title=" ">
<polygon fill="#999999" stroke="none" points="176,-180.25 0,-180.25 0,0 176,0 176,-180.25"/>
<text xml:space="preserve" text-anchor="start" x="4" y="-166.5" font-family="Helvetica,sans-Serif" font-size="10.00">UE::Anim::FNonBlendableAttribute</text>
<text xml:space="preserve" text-anchor="start" x="52.75" y="-153.75" font-family="Helvetica,sans-Serif" font-size="10.00">BlendOperator</text>
<text xml:space="preserve" text-anchor="start" x="6.75" y="-137" font-family="Helvetica,sans-Serif" font-size="10.00">#</text>
<text xml:space="preserve" text-anchor="start" x="21.75" y="-137" font-family="Helvetica,sans-Serif" font-size="10.00">ScriptStructPtr</text>
<text xml:space="preserve" text-anchor="start" x="6.75" y="-120.25" font-family="Helvetica,sans-Serif" font-size="10.00">+</text>
<text xml:space="preserve" text-anchor="start" x="21.75" y="-120.25" font-family="Helvetica,sans-Serif" font-size="10.00">FNonBlendableAttributeBlend</text>
<text xml:space="preserve" text-anchor="start" x="21.75" y="-107.5" font-family="Helvetica,sans-Serif" font-size="10.00">Operator()</text>
<text xml:space="preserve" text-anchor="start" x="6.75" y="-90.75" font-family="Helvetica,sans-Serif" font-size="10.00">+</text>
<text xml:space="preserve" text-anchor="start" x="21.75" y="-90.75" font-family="Helvetica,sans-Serif" font-size="10.00">Accumulate()</text>
<text xml:space="preserve" text-anchor="start" x="6.75" y="-74" font-family="Helvetica,sans-Serif" font-size="10.00">+</text>
<text xml:space="preserve" text-anchor="start" x="21.75" y="-74" font-family="Helvetica,sans-Serif" font-size="10.00">Interpolate()</text>
<text xml:space="preserve" text-anchor="start" x="6.75" y="-57.25" font-family="Helvetica,sans-Serif" font-size="10.00">+</text>
<text xml:space="preserve" text-anchor="start" x="21.75" y="-57.25" font-family="Helvetica,sans-Serif" font-size="10.00">Override()</text>
<text xml:space="preserve" text-anchor="start" x="6.75" y="-40.5" font-family="Helvetica,sans-Serif" font-size="10.00">+</text>
<text xml:space="preserve" text-anchor="start" x="21.75" y="-40.5" font-family="Helvetica,sans-Serif" font-size="10.00">Blend()</text>
<text xml:space="preserve" text-anchor="start" x="6.75" y="-23.75" font-family="Helvetica,sans-Serif" font-size="10.00">+</text>
<text xml:space="preserve" text-anchor="start" x="21.75" y="-23.75" font-family="Helvetica,sans-Serif" font-size="10.00">BlendPerBone()</text>
<text xml:space="preserve" text-anchor="start" x="6.75" y="-7" font-family="Helvetica,sans-Serif" font-size="10.00">+</text>
<text xml:space="preserve" text-anchor="start" x="21.75" y="-7" font-family="Helvetica,sans-Serif" font-size="10.00">ConvertToAdditive()</text>
<polygon fill="#666666" stroke="#666666" points="0,-148.75 0,-148.75 176,-148.75 176,-148.75 0,-148.75"/>
<polygon fill="#666666" stroke="#666666" points="0,-132 0,-132 19.75,-132 19.75,-132 0,-132"/>
<polygon fill="#666666" stroke="#666666" points="19.75,-132 19.75,-132 176,-132 176,-132 19.75,-132"/>
<polygon fill="none" stroke="#666666" points="0,0 0,-180.25 176,-180.25 176,0 0,0"/>
</a>
</g>
</g>
<!-- Node2 -->
<g id="Node000002" class="node">
<title>Node2</title>
<g id="a_Node000002"><a xlink:href="classUE_1_1Anim_1_1IAttributeBlendOperator.html" target="_top" xlink:title=" ">
<polygon fill="white" stroke="none" points="164.12,-383.75 11.88,-383.75 11.88,-216.25 164.12,-216.25 164.12,-383.75"/>
<text xml:space="preserve" text-anchor="start" x="25.75" y="-370" font-family="Helvetica,sans-Serif" font-size="10.00">UE::Anim::IAttributeBlend</text>
<text xml:space="preserve" text-anchor="start" x="66.62" y="-357.25" font-family="Helvetica,sans-Serif" font-size="10.00">Operator</text>
<text xml:space="preserve" text-anchor="start" x="85" y="-340.5" font-family="Helvetica,sans-Serif" font-size="10.00"> </text>
<text xml:space="preserve" text-anchor="start" x="15.88" y="-323.75" font-family="Helvetica,sans-Serif" font-size="10.00">+</text>
<text xml:space="preserve" text-anchor="start" x="28.12" y="-323.75" font-family="Helvetica,sans-Serif" font-size="10.00">~IAttributeBlendOperator()</text>
<text xml:space="preserve" text-anchor="start" x="15.88" y="-307" font-family="Helvetica,sans-Serif" font-size="10.00">+</text>
<text xml:space="preserve" text-anchor="start" x="28.12" y="-307" font-family="Helvetica,sans-Serif" font-size="10.00">Blend()</text>
<text xml:space="preserve" text-anchor="start" x="15.88" y="-290.25" font-family="Helvetica,sans-Serif" font-size="10.00">+</text>
<text xml:space="preserve" text-anchor="start" x="28.12" y="-290.25" font-family="Helvetica,sans-Serif" font-size="10.00">BlendPerBone()</text>
<text xml:space="preserve" text-anchor="start" x="15.88" y="-273.5" font-family="Helvetica,sans-Serif" font-size="10.00">+</text>
<text xml:space="preserve" text-anchor="start" x="28.12" y="-273.5" font-family="Helvetica,sans-Serif" font-size="10.00">Override()</text>
<text xml:space="preserve" text-anchor="start" x="15.88" y="-256.75" font-family="Helvetica,sans-Serif" font-size="10.00">+</text>
<text xml:space="preserve" text-anchor="start" x="28.12" y="-256.75" font-family="Helvetica,sans-Serif" font-size="10.00">Accumulate()</text>
<text xml:space="preserve" text-anchor="start" x="15.88" y="-240" font-family="Helvetica,sans-Serif" font-size="10.00">+</text>
<text xml:space="preserve" text-anchor="start" x="28.12" y="-240" font-family="Helvetica,sans-Serif" font-size="10.00">ConvertToAdditive()</text>
<text xml:space="preserve" text-anchor="start" x="15.88" y="-223.25" font-family="Helvetica,sans-Serif" font-size="10.00">+</text>
<text xml:space="preserve" text-anchor="start" x="28.12" y="-223.25" font-family="Helvetica,sans-Serif" font-size="10.00">Interpolate()</text>
<polygon fill="#666666" stroke="#666666" points="11.88,-352.25 11.88,-352.25 164.12,-352.25 164.12,-352.25 11.88,-352.25"/>
<polygon fill="#666666" stroke="#666666" points="11.88,-335.5 11.88,-335.5 164.12,-335.5 164.12,-335.5 11.88,-335.5"/>
<polygon fill="none" stroke="#666666" points="11.88,-216.25 11.88,-383.75 164.12,-383.75 164.12,-216.25 11.88,-216.25"/>
</a>
</g>
</g>
<!-- Node2&#45;&gt;Node1 -->
<g id="edge1_Node000001_Node000002" class="edge">
<title>Node2&#45;&gt;Node1</title>
<g id="a_edge1_Node000001_Node000002"><a xlink:title=" ">
<path fill="none" stroke="#63b8ff" d="M88,-205.18C88,-196.8 88,-188.32 88,-179.98"/>
<polygon fill="none" stroke="#63b8ff" points="84.5,-205.03 88,-215.03 91.5,-205.03 84.5,-205.03"/>
</a>
</g>
</g>
</g>
</svg>
