<?xml version="1.0" encoding="UTF-8" standalone="no"?>
<!DOCTYPE svg PUBLIC "-//W3C//DTD SVG 1.1//EN"
 "http://www.w3.org/Graphics/SVG/1.1/DTD/svg11.dtd">
<!-- Generated by graphviz version 14.1.4 (0)
 -->
<!-- Title: FAsciiSet::operator&amp; Pages: 1 -->
<svg width="582pt" height="68pt"
 viewBox="0.00 0.00 582.00 68.00" xmlns="http://www.w3.org/2000/svg" xmlns:xlink="http://www.w3.org/1999/xlink">
<g id="graph0" class="graph" transform="scale(1 1) rotate(0) translate(4 63.75)">
<title>FAsciiSet::operator&amp;</title>
<!-- Node1 -->
<g id="Node000001" class="node">
<title>Node1</title>
<g id="a_Node000001"><a xlink:title=" ">
<polygon fill="#999999" stroke="#666666" points="115,-39.75 0,-39.75 0,-19 115,-19 115,-39.75"/>
<text xml:space="preserve" text-anchor="middle" x="57.5" y="-26.25" font-family="Helvetica,sans-Serif" font-size="10.00">FAsciiSet::operator&amp;</text>
</a>
</g>
</g>
<!-- Node2 -->
<g id="Node000002" class="node">
<title>Node2</title>
<g id="a_Node000002"><a xlink:href="$classFAsciiSet.html#a7b7d908591ae47262a153985cda8abfa" xlink:title=" ">
<polygon fill="white" stroke="#666666" points="261.5,-39.75 151,-39.75 151,-19 261.5,-19 261.5,-39.75"/>
<text xml:space="preserve" text-anchor="middle" x="206.25" y="-26.25" font-family="Helvetica,sans-Serif" font-size="10.00">FAsciiSet::FAsciiSet</text>
</a>
</g>
</g>
<!-- Node1&#45;&gt;Node2 -->
<g id="edge1_Node000001_Node000002" class="edge">
<title>Node1&#45;&gt;Node2</title>
<g id="a_edge1_Node000001_Node000002"><a xlink:title=" ">
<path fill="none" stroke="#63b8ff" d="M115.24,-29.38C123.13,-29.38 131.3,-29.38 139.34,-29.38"/>
<polygon fill="#63b8ff" stroke="#63b8ff" points="139.08,-32.88 149.08,-29.38 139.08,-25.88 139.08,-32.88"/>
</a>
</g>
</g>
<!-- Node2&#45;&gt;Node2 -->
<g id="edge2_Node000002_Node000002" class="edge">
<title>Node2&#45;&gt;Node2</title>
<g id="a_edge2_Node000002_Node000002"><a xlink:title=" ">
<path fill="none" stroke="#63b8ff" d="M182.28,-40.15C172.69,-48.81 180.68,-57.75 206.25,-57.75 220.23,-57.75 228.96,-55.08 232.42,-51.24"/>
<polygon fill="#63b8ff" stroke="#63b8ff" points="235.9,-50.76 230.51,-41.63 229.03,-52.12 235.9,-50.76"/>
</a>
</g>
</g>
<!-- Node3 -->
<g id="Node000003" class="node">
<title>Node3</title>
<g id="a_Node000003"><a xlink:href="$classFAsciiSet.html#acff49003da8d1a2b67ad3228a356511f" xlink:title=" ">
<polygon fill="white" stroke="#666666" points="431.25,-39.75 297.5,-39.75 297.5,-19 431.25,-19 431.25,-39.75"/>
<text xml:space="preserve" text-anchor="middle" x="364.38" y="-26.25" font-family="Helvetica,sans-Serif" font-size="10.00">FAsciiSet::StringToBitset</text>
</a>
</g>
</g>
<!-- Node2&#45;&gt;Node3 -->
<g id="edge3_Node000002_Node000003" class="edge">
<title>Node2&#45;&gt;Node3</title>
<g id="a_edge3_Node000002_Node000003"><a xlink:title=" ">
<path fill="none" stroke="#63b8ff" d="M261.85,-29.38C269.62,-29.38 277.74,-29.38 285.84,-29.38"/>
<polygon fill="#63b8ff" stroke="#63b8ff" points="285.74,-32.88 295.74,-29.38 285.74,-25.88 285.74,-32.88"/>
</a>
</g>
</g>
<!-- Node4 -->
<g id="Node000004" class="node">
<title>Node4</title>
<g id="a_Node000004"><a xlink:href="$classFAsciiSet.html#a888e0204c78986ba9cc6f94358e5ff0e" xlink:title=" ">
<polygon fill="white" stroke="#666666" points="572.5,-59.75 468.75,-59.75 468.75,-39 572.5,-39 572.5,-59.75"/>
<text xml:space="preserve" text-anchor="middle" x="520.62" y="-46.25" font-family="Helvetica,sans-Serif" font-size="10.00">FAsciiSet::SetImpl</text>
</a>
</g>
</g>
<!-- Node3&#45;&gt;Node4 -->
<g id="edge4_Node000003_Node000004" class="edge">
<title>Node3&#45;&gt;Node4</title>
<g id="a_edge4_Node000003_Node000004"><a xlink:title=" ">
<path fill="none" stroke="#63b8ff" d="M431.69,-37.97C440.11,-39.06 448.7,-40.18 457.06,-41.26"/>
<polygon fill="#63b8ff" stroke="#63b8ff" points="456.41,-44.71 466.77,-42.52 457.31,-37.77 456.41,-44.71"/>
</a>
</g>
</g>
<!-- Node5 -->
<g id="Node000005" class="node">
<title>Node5</title>
<g id="a_Node000005"><a xlink:href="$structTChar.html#a851381bbba58e9de2a4e3da972e49d84" xlink:title=" ">
<polygon fill="white" stroke="#666666" points="574,-20.75 467.25,-20.75 467.25,0 574,0 574,-20.75"/>
<text xml:space="preserve" text-anchor="middle" x="520.62" y="-7.25" font-family="Helvetica,sans-Serif" font-size="10.00">TChar::ToUnsigned</text>
</a>
</g>
</g>
<!-- Node3&#45;&gt;Node5 -->
<g id="edge5_Node000003_Node000005" class="edge">
<title>Node3&#45;&gt;Node5</title>
<g id="a_edge5_Node000003_Node000005"><a xlink:title=" ">
<path fill="none" stroke="#63b8ff" d="M431.69,-21.21C439.59,-20.23 447.64,-19.24 455.51,-18.27"/>
<polygon fill="#63b8ff" stroke="#63b8ff" points="455.87,-21.76 465.36,-17.06 455.01,-14.81 455.87,-21.76"/>
</a>
</g>
</g>
</g>
</svg>
