<?xml version="1.0" encoding="UTF-8" standalone="no"?>
<!DOCTYPE svg PUBLIC "-//W3C//DTD SVG 1.1//EN"
 "http://www.w3.org/Graphics/SVG/1.1/DTD/svg11.dtd">
<!-- Generated by graphviz version 14.1.4 (0)
 -->
<!-- Title: TBitArray::GetData Pages: 1 -->
<svg width="314pt" height="1530pt"
 viewBox="0.00 0.00 314.00 1530.00" xmlns="http://www.w3.org/2000/svg" xmlns:xlink="http://www.w3.org/1999/xlink">
<g id="graph0" class="graph" transform="scale(1 1) rotate(0) translate(4 1526.25)">
<title>TBitArray::GetData</title>
<!-- Node1 -->
<g id="Node000001" class="node">
<title>Node1</title>
<g id="a_Node000001"><a xlink:title=" ">
<polygon fill="#999999" stroke="#666666" points="305.75,-801.5 198.25,-801.5 198.25,-780.75 305.75,-780.75 305.75,-801.5"/>
<text xml:space="preserve" text-anchor="middle" x="252" y="-788" font-family="Helvetica,sans-Serif" font-size="10.00">TBitArray::GetData</text>
</a>
</g>
</g>
<!-- Node2 -->
<g id="Node000002" class="node">
<title>Node2</title>
<g id="a_Node000002"><a xlink:href="$classTBitArray.html#a8305cca20fe02bbb1ccaaea99b226456" xlink:title=" ">
<polygon fill="white" stroke="#666666" points="157,-1522.25 5.25,-1522.25 5.25,-1476 157,-1476 157,-1522.25"/>
<text xml:space="preserve" text-anchor="start" x="13.25" y="-1508.75" font-family="Helvetica,sans-Serif" font-size="10.00">TBitArray&lt; typename</text>
<text xml:space="preserve" text-anchor="start" x="13.25" y="-1496" font-family="Helvetica,sans-Serif" font-size="10.00"> Allocator::BitArrayAllocator</text>
<text xml:space="preserve" text-anchor="middle" x="81.12" y="-1483.25" font-family="Helvetica,sans-Serif" font-size="10.00"> &gt;::AccessCorrespondingBit</text>
</a>
</g>
</g>
<!-- Node1&#45;&gt;Node2 -->
<g id="edge1_Node000001_Node000002" class="edge">
<title>Node1&#45;&gt;Node2</title>
<g id="a_edge1_Node000001_Node000002"><a xlink:title=" ">
<path fill="none" stroke="#63b8ff" d="M251.01,-813.01C250.63,-917.14 244.18,-1361.71 162.25,-1467.12 159.77,-1470.32 156.92,-1473.19 153.81,-1475.78"/>
<polygon fill="#63b8ff" stroke="#63b8ff" points="254.51,-813.33 251.03,-803.32 247.51,-813.32 254.51,-813.33"/>
</a>
</g>
</g>
<!-- Node3 -->
<g id="Node000003" class="node">
<title>Node3</title>
<g id="a_Node000003"><a xlink:href="$classTBitArray.html#a64c5172d8b2750282f0dbdbe81d64640" xlink:title=" ">
<polygon fill="white" stroke="#666666" points="157,-1458.25 5.25,-1458.25 5.25,-1412 157,-1412 157,-1458.25"/>
<text xml:space="preserve" text-anchor="start" x="13.25" y="-1444.75" font-family="Helvetica,sans-Serif" font-size="10.00">TBitArray&lt; typename</text>
<text xml:space="preserve" text-anchor="start" x="13.25" y="-1432" font-family="Helvetica,sans-Serif" font-size="10.00"> Allocator::BitArrayAllocator</text>
<text xml:space="preserve" text-anchor="middle" x="81.12" y="-1419.25" font-family="Helvetica,sans-Serif" font-size="10.00"> &gt;::AccessCorrespondingBit</text>
</a>
</g>
</g>
<!-- Node1&#45;&gt;Node3 -->
<g id="edge2_Node000001_Node000003" class="edge">
<title>Node1&#45;&gt;Node3</title>
<g id="a_edge2_Node000001_Node000003"><a xlink:title=" ">
<path fill="none" stroke="#63b8ff" d="M250.67,-813.07C248.8,-911.15 236.66,-1308.71 162.25,-1403.12 159.75,-1406.3 156.88,-1409.16 153.75,-1411.74"/>
<polygon fill="#63b8ff" stroke="#63b8ff" points="254.17,-813.29 250.84,-803.23 247.17,-813.17 254.17,-813.29"/>
</a>
</g>
</g>
<!-- Node4 -->
<g id="Node000004" class="node">
<title>Node4</title>
<g id="a_Node000004"><a xlink:href="$classTBitArray.html#a463106c2852a9ec22c1ab47f082856ae" xlink:title=" ">
<polygon fill="white" stroke="#666666" points="157,-1394.25 5.25,-1394.25 5.25,-1348 157,-1348 157,-1394.25"/>
<text xml:space="preserve" text-anchor="start" x="13.25" y="-1380.75" font-family="Helvetica,sans-Serif" font-size="10.00">TBitArray&lt; typename</text>
<text xml:space="preserve" text-anchor="start" x="13.25" y="-1368" font-family="Helvetica,sans-Serif" font-size="10.00"> Allocator::BitArrayAllocator</text>
<text xml:space="preserve" text-anchor="middle" x="81.12" y="-1355.25" font-family="Helvetica,sans-Serif" font-size="10.00"> &gt;::Assign</text>
</a>
</g>
</g>
<!-- Node1&#45;&gt;Node4 -->
<g id="edge3_Node000001_Node000004" class="edge">
<title>Node1&#45;&gt;Node4</title>
<g id="a_edge3_Node000001_Node000004"><a xlink:title=" ">
<path fill="none" stroke="#63b8ff" d="M250.25,-813.35C246.74,-905.39 229.11,-1255.72 162.25,-1339.12 159.72,-1342.28 156.83,-1345.13 153.69,-1347.69"/>
<polygon fill="#63b8ff" stroke="#63b8ff" points="253.75,-813.55 250.61,-803.43 246.75,-813.3 253.75,-813.55"/>
</a>
</g>
</g>
<!-- Node5 -->
<g id="Node000005" class="node">
<title>Node5</title>
<g id="a_Node000005"><a xlink:href="$classTBitArray.html#a117d177767ea1ce0e578a1a11c20b5a9" xlink:title=" ">
<polygon fill="white" stroke="#666666" points="157,-1330.25 5.25,-1330.25 5.25,-1284 157,-1284 157,-1330.25"/>
<text xml:space="preserve" text-anchor="start" x="13.25" y="-1316.75" font-family="Helvetica,sans-Serif" font-size="10.00">TBitArray&lt; typename</text>
<text xml:space="preserve" text-anchor="start" x="13.25" y="-1304" font-family="Helvetica,sans-Serif" font-size="10.00"> Allocator::BitArrayAllocator</text>
<text xml:space="preserve" text-anchor="middle" x="81.12" y="-1291.25" font-family="Helvetica,sans-Serif" font-size="10.00"> &gt;::CheckInvariants</text>
</a>
</g>
</g>
<!-- Node1&#45;&gt;Node5 -->
<g id="edge4_Node000001_Node000005" class="edge">
<title>Node1&#45;&gt;Node5</title>
<g id="a_edge4_Node000001_Node000005"><a xlink:title=" ">
<path fill="none" stroke="#63b8ff" d="M249.74,-813.16C244.48,-898 221.71,-1202.51 162.25,-1275.12 159.69,-1278.25 156.77,-1281.08 153.61,-1283.63"/>
<polygon fill="#63b8ff" stroke="#63b8ff" points="253.22,-813.59 250.32,-803.4 246.23,-813.17 253.22,-813.59"/>
</a>
</g>
</g>
<!-- Node6 -->
<g id="Node000006" class="node">
<title>Node6</title>
<g id="a_Node000006"><a xlink:href="$classTBitArray.html#ac7e97a3025cd3d1bf9048199a957149b" xlink:title=" ">
<polygon fill="white" stroke="#666666" points="157,-1266.25 5.25,-1266.25 5.25,-1220 157,-1220 157,-1266.25"/>
<text xml:space="preserve" text-anchor="start" x="13.25" y="-1252.75" font-family="Helvetica,sans-Serif" font-size="10.00">TBitArray&lt; typename</text>
<text xml:space="preserve" text-anchor="start" x="13.25" y="-1240" font-family="Helvetica,sans-Serif" font-size="10.00"> Allocator::BitArrayAllocator</text>
<text xml:space="preserve" text-anchor="middle" x="81.12" y="-1227.25" font-family="Helvetica,sans-Serif" font-size="10.00"> &gt;::ClearPartialSlackBits</text>
</a>
</g>
</g>
<!-- Node1&#45;&gt;Node6 -->
<g id="edge5_Node000001_Node000006" class="edge">
<title>Node1&#45;&gt;Node6</title>
<g id="a_edge5_Node000001_Node000006"><a xlink:title=" ">
<path fill="none" stroke="#63b8ff" d="M249.07,-813.17C241.86,-890.68 214.3,-1149.28 162.25,-1211.12 159.65,-1214.22 156.7,-1217.02 153.51,-1219.55"/>
<polygon fill="#63b8ff" stroke="#63b8ff" points="252.53,-813.76 249.94,-803.48 245.56,-813.13 252.53,-813.76"/>
</a>
</g>
</g>
<!-- Node7 -->
<g id="Node000007" class="node">
<title>Node7</title>
<g id="a_Node000007"><a xlink:href="$structTBitArray_1_1FConstWordIterator.html#af26da52d6bcc45743ac0dd43dcf680a3" xlink:title=" ">
<polygon fill="white" stroke="#666666" points="162.25,-1201.88 0,-1201.88 0,-1168.38 162.25,-1168.38 162.25,-1201.88"/>
<text xml:space="preserve" text-anchor="start" x="8" y="-1188.38" font-family="Helvetica,sans-Serif" font-size="10.00">TBitArray::FConstWordIterator</text>
<text xml:space="preserve" text-anchor="middle" x="81.12" y="-1175.62" font-family="Helvetica,sans-Serif" font-size="10.00">::FConstWordIterator</text>
</a>
</g>
</g>
<!-- Node1&#45;&gt;Node7 -->
<g id="edge6_Node000001_Node000007" class="edge">
<title>Node1&#45;&gt;Node7</title>
<g id="a_edge6_Node000001_Node000007"><a xlink:title=" ">
<path fill="none" stroke="#63b8ff" d="M248.55,-812.81C240.11,-883.76 210.16,-1107.37 162.25,-1159.12 159.17,-1162.45 155.66,-1165.35 151.87,-1167.89"/>
<polygon fill="#63b8ff" stroke="#63b8ff" points="251.98,-813.59 249.66,-803.26 245.03,-812.78 251.98,-813.59"/>
</a>
</g>
</g>
<!-- Node8 -->
<g id="Node000008" class="node">
<title>Node8</title>
<g id="a_Node000008"><a xlink:href="$structTBitArray_1_1FConstWordIterator.html#ade5e02886274a6cb604c7679ad584a1b" xlink:title=" ">
<polygon fill="white" stroke="#666666" points="162.25,-1149.88 0,-1149.88 0,-1116.38 162.25,-1116.38 162.25,-1149.88"/>
<text xml:space="preserve" text-anchor="start" x="8" y="-1136.38" font-family="Helvetica,sans-Serif" font-size="10.00">TBitArray::FConstWordIterator</text>
<text xml:space="preserve" text-anchor="middle" x="81.12" y="-1123.62" font-family="Helvetica,sans-Serif" font-size="10.00">::FConstWordIterator</text>
</a>
</g>
</g>
<!-- Node1&#45;&gt;Node8 -->
<g id="edge7_Node000001_Node000008" class="edge">
<title>Node1&#45;&gt;Node8</title>
<g id="a_edge7_Node000001_Node000008"><a xlink:title=" ">
<path fill="none" stroke="#63b8ff" d="M251.47,-813.31C251.45,-870.2 243.38,-1022.69 162.25,-1107.12 159.01,-1110.5 155.32,-1113.44 151.36,-1115.99"/>
<polygon fill="#63b8ff" stroke="#63b8ff" points="254.97,-813.32 251.38,-803.35 247.97,-813.38 254.97,-813.32"/>
</a>
</g>
</g>
<!-- Node9 -->
<g id="Node000009" class="node">
<title>Node9</title>
<g id="a_Node000009"><a xlink:href="$classTBitArray.html#ab43d4278c3fbfab2694e34797a4ce677" xlink:title=" ">
<polygon fill="white" stroke="#666666" points="157,-1098.25 5.25,-1098.25 5.25,-1052 157,-1052 157,-1098.25"/>
<text xml:space="preserve" text-anchor="start" x="13.25" y="-1084.75" font-family="Helvetica,sans-Serif" font-size="10.00">TBitArray&lt; typename</text>
<text xml:space="preserve" text-anchor="start" x="13.25" y="-1072" font-family="Helvetica,sans-Serif" font-size="10.00"> Allocator::BitArrayAllocator</text>
<text xml:space="preserve" text-anchor="middle" x="81.12" y="-1059.25" font-family="Helvetica,sans-Serif" font-size="10.00"> &gt;::FindFromImpl</text>
</a>
</g>
</g>
<!-- Node1&#45;&gt;Node9 -->
<g id="edge8_Node000001_Node000009" class="edge">
<title>Node1&#45;&gt;Node9</title>
<g id="a_edge8_Node000001_Node000009"><a xlink:title=" ">
<path fill="none" stroke="#63b8ff" d="M249.28,-812.99C244.37,-860.96 226.22,-976.45 162.25,-1043.12 159.24,-1046.26 155.89,-1049.09 152.3,-1051.66"/>
<polygon fill="#63b8ff" stroke="#63b8ff" points="252.74,-813.62 250.16,-803.34 245.77,-812.98 252.74,-813.62"/>
</a>
</g>
</g>
<!-- Node10 -->
<g id="Node000010" class="node">
<title>Node10</title>
<g id="a_Node000010"><a xlink:href="$classTBitArray.html#a6889cc471b8f535584d74707682d939d" xlink:title=" ">
<polygon fill="white" stroke="#666666" points="157,-1034.25 5.25,-1034.25 5.25,-988 157,-988 157,-1034.25"/>
<text xml:space="preserve" text-anchor="start" x="13.25" y="-1020.75" font-family="Helvetica,sans-Serif" font-size="10.00">TBitArray&lt; typename</text>
<text xml:space="preserve" text-anchor="start" x="13.25" y="-1008" font-family="Helvetica,sans-Serif" font-size="10.00"> Allocator::BitArrayAllocator</text>
<text xml:space="preserve" text-anchor="middle" x="81.12" y="-995.25" font-family="Helvetica,sans-Serif" font-size="10.00"> &gt;::FindLastFromImpl</text>
</a>
</g>
</g>
<!-- Node1&#45;&gt;Node10 -->
<g id="edge9_Node000001_Node000010" class="edge">
<title>Node1&#45;&gt;Node10</title>
<g id="a_edge9_Node000001_Node000010"><a xlink:title=" ">
<path fill="none" stroke="#63b8ff" d="M246.3,-812.81C236.89,-851.35 212.19,-932.14 162.25,-979.12 158.98,-982.2 155.37,-985 151.55,-987.54"/>
<polygon fill="#63b8ff" stroke="#63b8ff" points="249.69,-813.68 248.54,-803.15 242.87,-812.1 249.69,-813.68"/>
</a>
</g>
</g>
<!-- Node11 -->
<g id="Node000011" class="node">
<title>Node11</title>
<g id="a_Node000011"><a xlink:href="$structTBitArray_1_1FWordIterator.html#a0b98c1f4cfd07134beb77131291b4cd8" xlink:title=" ">
<polygon fill="white" stroke="#666666" points="148.38,-969.88 13.88,-969.88 13.88,-936.38 148.38,-936.38 148.38,-969.88"/>
<text xml:space="preserve" text-anchor="start" x="21.88" y="-956.38" font-family="Helvetica,sans-Serif" font-size="10.00">TBitArray::FWordIterator</text>
<text xml:space="preserve" text-anchor="middle" x="81.12" y="-943.62" font-family="Helvetica,sans-Serif" font-size="10.00">::FWordIterator</text>
</a>
</g>
</g>
<!-- Node1&#45;&gt;Node11 -->
<g id="edge10_Node000001_Node000011" class="edge">
<title>Node1&#45;&gt;Node11</title>
<g id="a_edge10_Node000001_Node000011"><a xlink:title=" ">
<path fill="none" stroke="#63b8ff" d="M242.67,-812.21C229.81,-842.06 202.38,-896.42 162.25,-927.12 157.84,-930.5 152.97,-933.45 147.88,-936.02"/>
<polygon fill="#63b8ff" stroke="#63b8ff" points="245.83,-813.7 246.43,-803.12 239.37,-811.02 245.83,-813.7"/>
</a>
</g>
</g>
<!-- Node12 -->
<g id="Node000012" class="node">
<title>Node12</title>
<g id="a_Node000012"><a xlink:href="$classTBitArray.html#ab06c5e70e39bc61cfaac109bc2879005" xlink:title=" ">
<polygon fill="white" stroke="#666666" points="157,-918.25 5.25,-918.25 5.25,-872 157,-872 157,-918.25"/>
<text xml:space="preserve" text-anchor="start" x="13.25" y="-904.75" font-family="Helvetica,sans-Serif" font-size="10.00">TBitArray&lt; typename</text>
<text xml:space="preserve" text-anchor="start" x="13.25" y="-892" font-family="Helvetica,sans-Serif" font-size="10.00"> Allocator::BitArrayAllocator</text>
<text xml:space="preserve" text-anchor="middle" x="81.12" y="-879.25" font-family="Helvetica,sans-Serif" font-size="10.00"> &gt;::GetRange</text>
</a>
</g>
</g>
<!-- Node1&#45;&gt;Node12 -->
<g id="edge11_Node000001_Node000012" class="edge">
<title>Node1&#45;&gt;Node12</title>
<g id="a_edge11_Node000001_Node000012"><a xlink:title=" ">
<path fill="none" stroke="#63b8ff" d="M231.61,-809.35C214.38,-824.84 188.01,-846.93 162.25,-862.12 156.55,-865.49 150.44,-868.67 144.23,-871.63"/>
<polygon fill="#63b8ff" stroke="#63b8ff" points="233.6,-812.27 238.61,-802.94 228.87,-807.1 233.6,-812.27"/>
</a>
</g>
</g>
<!-- Node13 -->
<g id="Node000013" class="node">
<title>Node13</title>
<g id="a_Node000013"><a xlink:href="$BitArray_8h.html#a45e8fc74418098839766e62f5e592212" xlink:title=" ">
<polygon fill="white" stroke="#666666" points="121.38,-853.5 40.88,-853.5 40.88,-832.75 121.38,-832.75 121.38,-853.5"/>
<text xml:space="preserve" text-anchor="middle" x="81.12" y="-840" font-family="Helvetica,sans-Serif" font-size="10.00">GetTypeHash</text>
</a>
</g>
</g>
<!-- Node1&#45;&gt;Node13 -->
<g id="edge12_Node000001_Node000013" class="edge">
<title>Node1&#45;&gt;Node13</title>
<g id="a_edge12_Node000001_Node000013"><a xlink:title=" ">
<path fill="none" stroke="#63b8ff" d="M212.5,-805.97C197.01,-811.69 178.89,-818.06 162.25,-823.12 149.08,-827.13 134.52,-830.95 121.47,-834.15"/>
<polygon fill="#63b8ff" stroke="#63b8ff" points="213.7,-809.26 221.85,-802.48 211.25,-802.7 213.7,-809.26"/>
</a>
</g>
</g>
<!-- Node14 -->
<g id="Node000014" class="node">
<title>Node14</title>
<g id="a_Node000014"><a xlink:href="$classTBitArray.html#ad2c47ed90c6af8c35fb12313c1961e97" xlink:title=" ">
<polygon fill="white" stroke="#666666" points="157,-814.25 5.25,-814.25 5.25,-768 157,-768 157,-814.25"/>
<text xml:space="preserve" text-anchor="start" x="13.25" y="-800.75" font-family="Helvetica,sans-Serif" font-size="10.00">TBitArray&lt; typename</text>
<text xml:space="preserve" text-anchor="start" x="13.25" y="-788" font-family="Helvetica,sans-Serif" font-size="10.00"> Allocator::BitArrayAllocator</text>
<text xml:space="preserve" text-anchor="middle" x="81.12" y="-775.25" font-family="Helvetica,sans-Serif" font-size="10.00"> &gt;::Init</text>
</a>
</g>
</g>
<!-- Node1&#45;&gt;Node14 -->
<g id="edge13_Node000001_Node000014" class="edge">
<title>Node1&#45;&gt;Node14</title>
<g id="a_edge13_Node000001_Node000014"><a xlink:title=" ">
<path fill="none" stroke="#63b8ff" d="M186.62,-791.12C177.1,-791.12 167.21,-791.12 157.48,-791.12"/>
<polygon fill="#63b8ff" stroke="#63b8ff" points="186.52,-794.63 196.52,-791.13 186.52,-787.63 186.52,-794.63"/>
</a>
</g>
</g>
<!-- Node15 -->
<g id="Node000015" class="node">
<title>Node15</title>
<g id="a_Node000015"><a xlink:href="$classTBitArray.html#a9554b1f8ddf9e4f623a77fcc29367460" xlink:title=" ">
<polygon fill="white" stroke="#666666" points="157,-750.25 5.25,-750.25 5.25,-704 157,-704 157,-750.25"/>
<text xml:space="preserve" text-anchor="start" x="13.25" y="-736.75" font-family="Helvetica,sans-Serif" font-size="10.00">TBitArray&lt; typename</text>
<text xml:space="preserve" text-anchor="start" x="13.25" y="-724" font-family="Helvetica,sans-Serif" font-size="10.00"> Allocator::BitArrayAllocator</text>
<text xml:space="preserve" text-anchor="middle" x="81.12" y="-711.25" font-family="Helvetica,sans-Serif" font-size="10.00"> &gt;::InsertUninitialized</text>
</a>
</g>
</g>
<!-- Node1&#45;&gt;Node15 -->
<g id="edge14_Node000001_Node000015" class="edge">
<title>Node1&#45;&gt;Node15</title>
<g id="a_edge14_Node000001_Node000015"><a xlink:title=" ">
<path fill="none" stroke="#63b8ff" d="M211.75,-776.25C191.7,-768.65 166.83,-759.22 144.25,-750.67"/>
<polygon fill="#63b8ff" stroke="#63b8ff" points="210.35,-779.46 220.94,-779.73 212.83,-772.92 210.35,-779.46"/>
</a>
</g>
</g>
<!-- Node16 -->
<g id="Node000016" class="node">
<title>Node16</title>
<g id="a_Node000016"><a xlink:href="$classTBitArray.html#a02f6d08425b0cfe2232a0e97c50c7c18" xlink:title=" ">
<polygon fill="white" stroke="#666666" points="157,-686.25 5.25,-686.25 5.25,-640 157,-640 157,-686.25"/>
<text xml:space="preserve" text-anchor="start" x="13.25" y="-672.75" font-family="Helvetica,sans-Serif" font-size="10.00">TBitArray&lt; typename</text>
<text xml:space="preserve" text-anchor="start" x="13.25" y="-660" font-family="Helvetica,sans-Serif" font-size="10.00"> Allocator::BitArrayAllocator</text>
<text xml:space="preserve" text-anchor="middle" x="81.12" y="-647.25" font-family="Helvetica,sans-Serif" font-size="10.00"> &gt;::operator&lt;</text>
</a>
</g>
</g>
<!-- Node1&#45;&gt;Node16 -->
<g id="edge15_Node000001_Node000016" class="edge">
<title>Node1&#45;&gt;Node16</title>
<g id="a_edge15_Node000001_Node000016"><a xlink:title=" ">
<path fill="none" stroke="#63b8ff" d="M237,-771.36C221.02,-750.04 193.09,-716.33 162.25,-695.12 157.81,-692.07 153.03,-689.24 148.1,-686.64"/>
<polygon fill="#63b8ff" stroke="#63b8ff" points="234.03,-773.23 242.76,-779.23 239.68,-769.09 234.03,-773.23"/>
</a>
</g>
</g>
<!-- Node17 -->
<g id="Node000017" class="node">
<title>Node17</title>
<g id="a_Node000017"><a xlink:href="$classTBitArray.html#abd4a32d8b54aa05d8a03ad179cbe8c49" xlink:title=" ">
<polygon fill="white" stroke="#666666" points="157,-622.25 5.25,-622.25 5.25,-576 157,-576 157,-622.25"/>
<text xml:space="preserve" text-anchor="start" x="13.25" y="-608.75" font-family="Helvetica,sans-Serif" font-size="10.00">TBitArray&lt; typename</text>
<text xml:space="preserve" text-anchor="start" x="13.25" y="-596" font-family="Helvetica,sans-Serif" font-size="10.00"> Allocator::BitArrayAllocator</text>
<text xml:space="preserve" text-anchor="middle" x="81.12" y="-583.25" font-family="Helvetica,sans-Serif" font-size="10.00"> &gt;::operator==</text>
</a>
</g>
</g>
<!-- Node1&#45;&gt;Node17 -->
<g id="edge16_Node000001_Node000017" class="edge">
<title>Node1&#45;&gt;Node17</title>
<g id="a_edge16_Node000001_Node000017"><a xlink:title=" ">
<path fill="none" stroke="#63b8ff" d="M244.36,-769.64C232.87,-735.77 206.19,-669.83 162.25,-631.12 158.77,-628.06 154.95,-625.26 150.94,-622.72"/>
<polygon fill="#63b8ff" stroke="#63b8ff" points="241.02,-770.69 247.45,-779.12 247.68,-768.53 241.02,-770.69"/>
</a>
</g>
</g>
<!-- Node18 -->
<g id="Node000018" class="node">
<title>Node18</title>
<g id="a_Node000018"><a xlink:href="$classTBitArray.html#ac088d209ee0083c69d8c155eca3c0674" xlink:title=" ">
<polygon fill="white" stroke="#666666" points="157,-558.25 5.25,-558.25 5.25,-512 157,-512 157,-558.25"/>
<text xml:space="preserve" text-anchor="start" x="13.25" y="-544.75" font-family="Helvetica,sans-Serif" font-size="10.00">TBitArray&lt; typename</text>
<text xml:space="preserve" text-anchor="start" x="13.25" y="-532" font-family="Helvetica,sans-Serif" font-size="10.00"> Allocator::BitArrayAllocator</text>
<text xml:space="preserve" text-anchor="middle" x="81.12" y="-519.25" font-family="Helvetica,sans-Serif" font-size="10.00"> &gt;::operator[]</text>
</a>
</g>
</g>
<!-- Node1&#45;&gt;Node18 -->
<g id="edge17_Node000001_Node000018" class="edge">
<title>Node1&#45;&gt;Node18</title>
<g id="a_edge17_Node000001_Node000018"><a xlink:title=" ">
<path fill="none" stroke="#63b8ff" d="M248.17,-769.33C241.34,-725.32 220.05,-625.08 162.25,-567.12 159.18,-564.05 155.78,-561.26 152.16,-558.73"/>
<polygon fill="#63b8ff" stroke="#63b8ff" points="244.69,-769.73 249.57,-779.13 251.62,-768.74 244.69,-769.73"/>
</a>
</g>
</g>
<!-- Node19 -->
<g id="Node000019" class="node">
<title>Node19</title>
<g id="a_Node000019"><a xlink:href="$classTBitArray.html#a45be6f230b8766424565e7ed325b174b" xlink:title=" ">
<polygon fill="white" stroke="#666666" points="157,-494.25 5.25,-494.25 5.25,-448 157,-448 157,-494.25"/>
<text xml:space="preserve" text-anchor="start" x="13.25" y="-480.75" font-family="Helvetica,sans-Serif" font-size="10.00">TBitArray&lt; typename</text>
<text xml:space="preserve" text-anchor="start" x="13.25" y="-468" font-family="Helvetica,sans-Serif" font-size="10.00"> Allocator::BitArrayAllocator</text>
<text xml:space="preserve" text-anchor="middle" x="81.12" y="-455.25" font-family="Helvetica,sans-Serif" font-size="10.00"> &gt;::operator[]</text>
</a>
</g>
</g>
<!-- Node1&#45;&gt;Node19 -->
<g id="edge18_Node000001_Node000019" class="edge">
<title>Node1&#45;&gt;Node19</title>
<g id="a_edge18_Node000001_Node000019"><a xlink:title=" ">
<path fill="none" stroke="#63b8ff" d="M250.41,-769.07C247.84,-716.26 234.17,-581.12 162.25,-503.12 159.41,-500.04 156.23,-497.25 152.82,-494.72"/>
<polygon fill="#63b8ff" stroke="#63b8ff" points="246.91,-769.01 250.79,-778.87 253.9,-768.74 246.91,-769.01"/>
</a>
</g>
</g>
<!-- Node20 -->
<g id="Node000020" class="node">
<title>Node20</title>
<g id="a_Node000020"><a xlink:href="$classTBitArray.html#aef75b7c717e64e7ced93b89f4511d7e4" xlink:title=" ">
<polygon fill="white" stroke="#666666" points="157,-430.25 5.25,-430.25 5.25,-384 157,-384 157,-430.25"/>
<text xml:space="preserve" text-anchor="start" x="13.25" y="-416.75" font-family="Helvetica,sans-Serif" font-size="10.00">TBitArray&lt; typename</text>
<text xml:space="preserve" text-anchor="start" x="13.25" y="-404" font-family="Helvetica,sans-Serif" font-size="10.00"> Allocator::BitArrayAllocator</text>
<text xml:space="preserve" text-anchor="middle" x="81.12" y="-391.25" font-family="Helvetica,sans-Serif" font-size="10.00"> &gt;::RemoveAt</text>
</a>
</g>
</g>
<!-- Node1&#45;&gt;Node20 -->
<g id="edge19_Node000001_Node000020" class="edge">
<title>Node1&#45;&gt;Node20</title>
<g id="a_edge19_Node000001_Node000020"><a xlink:title=" ">
<path fill="none" stroke="#63b8ff" d="M248.1,-769.17C238.61,-700.23 206.5,-489.69 162.25,-439.12 159.49,-435.97 156.37,-433.12 153.01,-430.55"/>
<polygon fill="#63b8ff" stroke="#63b8ff" points="244.6,-769.38 249.41,-778.82 251.54,-768.44 244.6,-769.38"/>
</a>
</g>
</g>
<!-- Node21 -->
<g id="Node000021" class="node">
<title>Node21</title>
<g id="a_Node000021"><a xlink:href="$classTBitArray.html#ab002aaedbb1cac70f56818c9f236d3f1" xlink:title=" ">
<polygon fill="white" stroke="#666666" points="157,-366.25 5.25,-366.25 5.25,-320 157,-320 157,-366.25"/>
<text xml:space="preserve" text-anchor="start" x="13.25" y="-352.75" font-family="Helvetica,sans-Serif" font-size="10.00">TBitArray&lt; typename</text>
<text xml:space="preserve" text-anchor="start" x="13.25" y="-340" font-family="Helvetica,sans-Serif" font-size="10.00"> Allocator::BitArrayAllocator</text>
<text xml:space="preserve" text-anchor="middle" x="81.12" y="-327.25" font-family="Helvetica,sans-Serif" font-size="10.00"> &gt;::RemoveAtSwap</text>
</a>
</g>
</g>
<!-- Node1&#45;&gt;Node21 -->
<g id="edge20_Node000001_Node000021" class="edge">
<title>Node1&#45;&gt;Node21</title>
<g id="a_edge20_Node000001_Node000021"><a xlink:title=" ">
<path fill="none" stroke="#63b8ff" d="M249.04,-769.29C241.74,-692.51 213.88,-436.36 162.25,-375.12 159.64,-372.03 156.69,-369.24 153.51,-366.71"/>
<polygon fill="#63b8ff" stroke="#63b8ff" points="245.52,-769.24 249.93,-778.87 252.49,-768.59 245.52,-769.24"/>
</a>
</g>
</g>
<!-- Node22 -->
<g id="Node000022" class="node">
<title>Node22</title>
<g id="a_Node000022"><a xlink:href="$classTBitArray.html#a46ebad981e95a651c6b8dca235f03468" xlink:title=" ">
<polygon fill="white" stroke="#666666" points="157,-302.25 5.25,-302.25 5.25,-256 157,-256 157,-302.25"/>
<text xml:space="preserve" text-anchor="start" x="13.25" y="-288.75" font-family="Helvetica,sans-Serif" font-size="10.00">TBitArray&lt; typename</text>
<text xml:space="preserve" text-anchor="start" x="13.25" y="-276" font-family="Helvetica,sans-Serif" font-size="10.00"> Allocator::BitArrayAllocator</text>
<text xml:space="preserve" text-anchor="middle" x="81.12" y="-263.25" font-family="Helvetica,sans-Serif" font-size="10.00"> &gt;::Serialize</text>
</a>
</g>
</g>
<!-- Node1&#45;&gt;Node22 -->
<g id="edge21_Node000001_Node000022" class="edge">
<title>Node1&#45;&gt;Node22</title>
<g id="a_edge21_Node000001_Node000022"><a xlink:title=" ">
<path fill="none" stroke="#63b8ff" d="M249.7,-769.01C244.31,-684.5 221.22,-383.04 162.25,-311.12 159.69,-308 156.77,-305.17 153.61,-302.62"/>
<polygon fill="#63b8ff" stroke="#63b8ff" points="246.2,-769.17 250.31,-778.94 253.19,-768.74 246.2,-769.17"/>
</a>
</g>
</g>
<!-- Node23 -->
<g id="Node000023" class="node">
<title>Node23</title>
<g id="a_Node000023"><a xlink:href="$classTBitArray.html#a00adead00e63940058e7ff5a6c453bcb" xlink:title=" ">
<polygon fill="white" stroke="#666666" points="157,-238.25 5.25,-238.25 5.25,-192 157,-192 157,-238.25"/>
<text xml:space="preserve" text-anchor="start" x="13.25" y="-224.75" font-family="Helvetica,sans-Serif" font-size="10.00">TBitArray&lt; typename</text>
<text xml:space="preserve" text-anchor="start" x="13.25" y="-212" font-family="Helvetica,sans-Serif" font-size="10.00"> Allocator::BitArrayAllocator</text>
<text xml:space="preserve" text-anchor="middle" x="81.12" y="-199.25" font-family="Helvetica,sans-Serif" font-size="10.00"> &gt;::SetBitNoCheck</text>
</a>
</g>
</g>
<!-- Node1&#45;&gt;Node23 -->
<g id="edge22_Node000001_Node000023" class="edge">
<title>Node1&#45;&gt;Node23</title>
<g id="a_edge22_Node000001_Node000023"><a xlink:title=" ">
<path fill="none" stroke="#63b8ff" d="M250.23,-769.06C246.62,-677.69 228.68,-329.9 162.25,-247.12 159.72,-243.97 156.83,-241.13 153.69,-238.56"/>
<polygon fill="#63b8ff" stroke="#63b8ff" points="246.73,-769.03 250.6,-778.9 253.72,-768.77 246.73,-769.03"/>
</a>
</g>
</g>
<!-- Node24 -->
<g id="Node000024" class="node">
<title>Node24</title>
<g id="a_Node000024"><a xlink:href="$classTBitArray.html#a79026ef6f5417e6f73e79af3083450b3" xlink:title=" ">
<polygon fill="white" stroke="#666666" points="157,-174.25 5.25,-174.25 5.25,-128 157,-128 157,-174.25"/>
<text xml:space="preserve" text-anchor="start" x="13.25" y="-160.75" font-family="Helvetica,sans-Serif" font-size="10.00">TBitArray&lt; typename</text>
<text xml:space="preserve" text-anchor="start" x="13.25" y="-148" font-family="Helvetica,sans-Serif" font-size="10.00"> Allocator::BitArrayAllocator</text>
<text xml:space="preserve" text-anchor="middle" x="81.12" y="-135.25" font-family="Helvetica,sans-Serif" font-size="10.00"> &gt;::SetRange</text>
</a>
</g>
</g>
<!-- Node1&#45;&gt;Node24 -->
<g id="edge23_Node000001_Node000024" class="edge">
<title>Node1&#45;&gt;Node24</title>
<g id="a_edge23_Node000001_Node000024"><a xlink:title=" ">
<path fill="none" stroke="#63b8ff" d="M250.65,-769.33C248.69,-671.88 236.23,-276.91 162.25,-183.12 159.75,-179.95 156.88,-177.09 153.75,-174.51"/>
<polygon fill="#63b8ff" stroke="#63b8ff" points="247.15,-769.15 250.83,-779.08 254.15,-769.02 247.15,-769.15"/>
</a>
</g>
</g>
<!-- Node25 -->
<g id="Node000025" class="node">
<title>Node25</title>
<g id="a_Node000025"><a xlink:href="$classTBitArray.html#a178cab5eb1af85b9e101a1b5ac1efdeb" xlink:title=" ">
<polygon fill="white" stroke="#666666" points="157,-110.25 5.25,-110.25 5.25,-64 157,-64 157,-110.25"/>
<text xml:space="preserve" text-anchor="start" x="13.25" y="-96.75" font-family="Helvetica,sans-Serif" font-size="10.00">TBitArray&lt; typename</text>
<text xml:space="preserve" text-anchor="start" x="13.25" y="-84" font-family="Helvetica,sans-Serif" font-size="10.00"> Allocator::BitArrayAllocator</text>
<text xml:space="preserve" text-anchor="middle" x="81.12" y="-71.25" font-family="Helvetica,sans-Serif" font-size="10.00"> &gt;::SetRangeFromRange</text>
</a>
</g>
</g>
<!-- Node1&#45;&gt;Node25 -->
<g id="edge24_Node000001_Node000025" class="edge">
<title>Node1&#45;&gt;Node25</title>
<g id="a_edge24_Node000001_Node000025"><a xlink:title=" ">
<path fill="none" stroke="#63b8ff" d="M250.99,-769.05C250.51,-664.95 243.66,-223.79 162.25,-119.12 159.77,-115.93 156.92,-113.06 153.8,-110.47"/>
<polygon fill="#63b8ff" stroke="#63b8ff" points="247.49,-769 251.02,-778.99 254.49,-768.98 247.49,-769"/>
</a>
</g>
</g>
<!-- Node26 -->
<g id="Node000026" class="node">
<title>Node26</title>
<g id="a_Node000026"><a xlink:href="$classTBitArray.html#ab26be1c0b8dd15311a6c14c8862e6d74" xlink:title=" ">
<polygon fill="white" stroke="#666666" points="157,-46.25 5.25,-46.25 5.25,0 157,0 157,-46.25"/>
<text xml:space="preserve" text-anchor="start" x="13.25" y="-32.75" font-family="Helvetica,sans-Serif" font-size="10.00">TBitArray&lt; typename</text>
<text xml:space="preserve" text-anchor="start" x="13.25" y="-20" font-family="Helvetica,sans-Serif" font-size="10.00"> Allocator::BitArrayAllocator</text>
<text xml:space="preserve" text-anchor="middle" x="81.12" y="-7.25" font-family="Helvetica,sans-Serif" font-size="10.00"> &gt;::SetRangeFromRange</text>
</a>
</g>
</g>
<!-- Node1&#45;&gt;Node26 -->
<g id="edge25_Node000001_Node000026" class="edge">
<title>Node1&#45;&gt;Node26</title>
<g id="a_edge25_Node000001_Node000026"><a xlink:title=" ">
<path fill="none" stroke="#63b8ff" d="M251.27,-769.06C252.2,-659.07 251.19,-170.82 162.25,-55.12 159.88,-52.04 157.16,-49.25 154.19,-46.73"/>
<polygon fill="#63b8ff" stroke="#63b8ff" points="247.77,-768.75 251.17,-778.78 254.77,-768.82 247.77,-768.75"/>
</a>
</g>
</g>
</g>
</svg>
