<?xml version="1.0" encoding="UTF-8" standalone="no"?>
<!DOCTYPE svg PUBLIC "-//W3C//DTD SVG 1.1//EN"
 "http://www.w3.org/Graphics/SVG/1.1/DTD/svg11.dtd">
<!-- Generated by graphviz version 14.1.4 (0)
 -->
<!-- Title: ACharacter::ClientAdjustPosition Pages: 1 -->
<svg width="725pt" height="60pt"
 viewBox="0.00 0.00 725.00 60.00" xmlns="http://www.w3.org/2000/svg" xmlns:xlink="http://www.w3.org/1999/xlink">
<g id="graph0" class="graph" transform="scale(1 1) rotate(0) translate(4 55.5)">
<title>ACharacter::ClientAdjustPosition</title>
<!-- Node1 -->
<g id="Node000001" class="node">
<title>Node1</title>
<g id="a_Node000001"><a xlink:title=" ">
<polygon fill="#999999" stroke="#666666" points="717.25,-33.5 582,-33.5 582,0 717.25,0 717.25,-33.5"/>
<text xml:space="preserve" text-anchor="start" x="590" y="-20" font-family="Helvetica,sans-Serif" font-size="10.00">ACharacter::ClientAdjust</text>
<text xml:space="preserve" text-anchor="middle" x="649.62" y="-7.25" font-family="Helvetica,sans-Serif" font-size="10.00">Position</text>
</a>
</g>
</g>
<!-- Node1&#45;&gt;Node1 -->
<g id="edge7_Node000001_Node000001" class="edge">
<title>Node1&#45;&gt;Node1</title>
<g id="a_edge7_Node000001_Node000001"><a xlink:title=" ">
<path fill="none" stroke="#63b8ff" d="M679.45,-44.89C674.59,-48.85 664.65,-51.5 649.62,-51.5 622.91,-51.5 612.27,-43.12 617.69,-33.91"/>
<polygon fill="#63b8ff" stroke="#63b8ff" points="682.82,-45.88 681.27,-35.4 675.95,-44.56 682.82,-45.88"/>
</a>
</g>
</g>
<!-- Node2 -->
<g id="Node000002" class="node">
<title>Node2</title>
<g id="a_Node000002"><a xlink:href="classACharacter.html#a51eea92e20f91b60b802475aba2bbcfa" target="_top" xlink:title=" ">
<polygon fill="white" stroke="#666666" points="546,-33.5 398,-33.5 398,0 546,0 546,-33.5"/>
<text xml:space="preserve" text-anchor="start" x="406" y="-20" font-family="Helvetica,sans-Serif" font-size="10.00">ACharacter::ClientAckGood</text>
<text xml:space="preserve" text-anchor="middle" x="472" y="-7.25" font-family="Helvetica,sans-Serif" font-size="10.00">Move_Implementation</text>
</a>
</g>
</g>
<!-- Node1&#45;&gt;Node2 -->
<g id="edge1_Node000001_Node000002" class="edge">
<title>Node1&#45;&gt;Node2</title>
<g id="a_edge1_Node000001_Node000002"><a xlink:title=" ">
<path fill="none" stroke="#63b8ff" d="M570.24,-16.75C562.32,-16.75 554.31,-16.75 546.45,-16.75"/>
<polygon fill="#63b8ff" stroke="#63b8ff" points="570.21,-20.25 580.21,-16.75 570.21,-13.25 570.21,-20.25"/>
</a>
</g>
</g>
<!-- Node2&#45;&gt;Node2 -->
<g id="edge6_Node000002_Node000002" class="edge">
<title>Node2&#45;&gt;Node2</title>
<g id="a_edge6_Node000002_Node000002"><a xlink:title=" ">
<path fill="none" stroke="#63b8ff" d="M501.82,-44.89C496.97,-48.85 487.03,-51.5 472,-51.5 445.29,-51.5 434.64,-43.12 440.07,-33.91"/>
<polygon fill="#63b8ff" stroke="#63b8ff" points="505.2,-45.88 503.65,-35.4 498.32,-44.56 505.2,-45.88"/>
</a>
</g>
</g>
<!-- Node3 -->
<g id="Node000003" class="node">
<title>Node3</title>
<g id="a_Node000003"><a xlink:href="classACharacter.html#a68d08b4a12f44156816e714a09d73618" target="_top" xlink:title=" ">
<polygon fill="white" stroke="#666666" points="362,-27.12 187,-27.12 187,-6.38 362,-6.38 362,-27.12"/>
<text xml:space="preserve" text-anchor="middle" x="274.5" y="-13.62" font-family="Helvetica,sans-Serif" font-size="10.00">ACharacter::ClientAckGoodMove</text>
</a>
</g>
</g>
<!-- Node2&#45;&gt;Node3 -->
<g id="edge2_Node000002_Node000003" class="edge">
<title>Node2&#45;&gt;Node3</title>
<g id="a_edge2_Node000002_Node000003"><a xlink:title=" ">
<path fill="none" stroke="#63b8ff" d="M386.21,-16.75C378.33,-16.75 370.34,-16.75 362.44,-16.75"/>
<polygon fill="#63b8ff" stroke="#63b8ff" points="386.13,-20.25 396.13,-16.75 386.13,-13.25 386.13,-20.25"/>
</a>
</g>
</g>
<!-- Node3&#45;&gt;Node3 -->
<g id="edge3_Node000003_Node000003" class="edge">
<title>Node3&#45;&gt;Node3</title>
<g id="a_edge3_Node000003_Node000003"><a xlink:title=" ">
<path fill="none" stroke="#63b8ff" d="M309.25,-38.61C304.65,-42.45 293.06,-45.12 274.5,-45.12 240.55,-45.12 229.95,-36.18 242.68,-27.52"/>
<polygon fill="#63b8ff" stroke="#63b8ff" points="312.65,-37.76 306.71,-28.99 305.88,-39.55 312.65,-37.76"/>
</a>
</g>
</g>
<!-- Node4 -->
<g id="Node000004" class="node">
<title>Node4</title>
<g id="a_Node000004"><a xlink:href="classACharacter.html#a489af45b30e20a835e0283f33ec7749f" target="_top" xlink:title=" ">
<polygon fill="white" stroke="#666666" points="151,-33.5 0,-33.5 0,0 151,0 151,-33.5"/>
<text xml:space="preserve" text-anchor="start" x="8" y="-20" font-family="Helvetica,sans-Serif" font-size="10.00">ACharacter::ServerMoveOld</text>
<text xml:space="preserve" text-anchor="middle" x="75.5" y="-7.25" font-family="Helvetica,sans-Serif" font-size="10.00">_Validate</text>
</a>
</g>
</g>
<!-- Node3&#45;&gt;Node4 -->
<g id="edge4_Node000003_Node000004" class="edge">
<title>Node3&#45;&gt;Node4</title>
<g id="a_edge4_Node000003_Node000004"><a xlink:title=" ">
<path fill="none" stroke="#63b8ff" d="M175.18,-16.75C167.15,-16.75 159.11,-16.75 151.28,-16.75"/>
<polygon fill="#63b8ff" stroke="#63b8ff" points="175.01,-20.25 185.01,-16.75 175.01,-13.25 175.01,-20.25"/>
</a>
</g>
</g>
<!-- Node4&#45;&gt;Node4 -->
<g id="edge5_Node000004_Node000004" class="edge">
<title>Node4&#45;&gt;Node4</title>
<g id="a_edge5_Node000004_Node000004"><a xlink:title=" ">
<path fill="none" stroke="#63b8ff" d="M108.91,-44.89C103.47,-48.85 92.33,-51.5 75.5,-51.5 45.57,-51.5 33.65,-43.12 39.73,-33.91"/>
<polygon fill="#63b8ff" stroke="#63b8ff" points="112.27,-45.91 110.95,-35.39 105.43,-44.44 112.27,-45.91"/>
</a>
</g>
</g>
</g>
</svg>
