<?xml version="1.0" encoding="UTF-8" standalone="no"?>
<!DOCTYPE svg PUBLIC "-//W3C//DTD SVG 1.1//EN"
 "http://www.w3.org/Graphics/SVG/1.1/DTD/svg11.dtd">
<!-- Generated by graphviz version 14.1.4 (0)
 -->
<!-- Title: TStrongObjectPtr::operator&#45;&gt; Pages: 1 -->
<svg width="339pt" height="68pt"
 viewBox="0.00 0.00 339.00 68.00" xmlns="http://www.w3.org/2000/svg" xmlns:xlink="http://www.w3.org/1999/xlink">
<g id="graph0" class="graph" transform="scale(1 1) rotate(0) translate(4 63.75)">
<title>TStrongObjectPtr::operator&#45;&gt;</title>
<!-- Node1 -->
<g id="Node000001" class="node">
<title>Node1</title>
<g id="a_Node000001"><a xlink:title=" ">
<polygon fill="#999999" stroke="#666666" points="157,-39.75 0,-39.75 0,-19 157,-19 157,-39.75"/>
<text xml:space="preserve" text-anchor="middle" x="78.5" y="-26.25" font-family="Helvetica,sans-Serif" font-size="10.00">TStrongObjectPtr::operator&#45;&gt;</text>
</a>
</g>
</g>
<!-- Node2 -->
<g id="Node000002" class="node">
<title>Node2</title>
<g id="a_Node000002"><a xlink:href="$classTStrongObjectPtr.html#a5d8447273def059892f738d099df31cd" xlink:title=" ">
<polygon fill="white" stroke="#666666" points="322.62,-59.75 200.88,-59.75 200.88,-39 322.62,-39 322.62,-59.75"/>
<text xml:space="preserve" text-anchor="middle" x="261.75" y="-46.25" font-family="Helvetica,sans-Serif" font-size="10.00">TStrongObjectPtr::Get</text>
</a>
</g>
</g>
<!-- Node1&#45;&gt;Node2 -->
<g id="edge1_Node000001_Node000002" class="edge">
<title>Node1&#45;&gt;Node2</title>
<g id="a_edge1_Node000001_Node000002"><a xlink:title=" ">
<path fill="none" stroke="#63b8ff" d="M157.42,-37.97C167.99,-39.14 178.79,-40.33 189.24,-41.48"/>
<polygon fill="#63b8ff" stroke="#63b8ff" points="188.58,-44.93 198.91,-42.55 189.35,-37.98 188.58,-44.93"/>
</a>
</g>
</g>
<!-- Node3 -->
<g id="Node000003" class="node">
<title>Node3</title>
<g id="a_Node000003"><a xlink:href="$classTStrongObjectPtr.html#a6e924d90cf6622b6b2d91a37ffde9149" xlink:title=" ">
<polygon fill="white" stroke="#666666" points="330.5,-20.75 193,-20.75 193,0 330.5,0 330.5,-20.75"/>
<text xml:space="preserve" text-anchor="middle" x="261.75" y="-7.25" font-family="Helvetica,sans-Serif" font-size="10.00">TStrongObjectPtr::IsValid</text>
</a>
</g>
</g>
<!-- Node1&#45;&gt;Node3 -->
<g id="edge2_Node000001_Node000003" class="edge">
<title>Node1&#45;&gt;Node3</title>
<g id="a_edge2_Node000001_Node000003"><a xlink:title=" ">
<path fill="none" stroke="#63b8ff" d="M157.42,-21.21C165.28,-20.38 173.28,-19.54 181.16,-18.72"/>
<polygon fill="#63b8ff" stroke="#63b8ff" points="181.51,-22.2 191.09,-17.68 180.78,-15.24 181.51,-22.2"/>
</a>
</g>
</g>
</g>
</svg>
