<?xml version="1.0" encoding="UTF-8" standalone="no"?>
<!DOCTYPE svg PUBLIC "-//W3C//DTD SVG 1.1//EN"
 "http://www.w3.org/Graphics/SVG/1.1/DTD/svg11.dtd">
<!-- Generated by graphviz version 14.1.4 (0)
 -->
<!-- Title: FAsyncTaskBase::Start Pages: 1 -->
<svg width="379pt" height="68pt"
 viewBox="0.00 0.00 379.00 68.00" xmlns="http://www.w3.org/2000/svg" xmlns:xlink="http://www.w3.org/1999/xlink">
<g id="graph0" class="graph" transform="scale(1 1) rotate(0) translate(4 63.75)">
<title>FAsyncTaskBase::Start</title>
<!-- Node1 -->
<g id="Node000001" class="node">
<title>Node1</title>
<g id="a_Node000001"><a xlink:title=" ">
<polygon fill="#999999" stroke="#666666" points="371,-39.75 245.5,-39.75 245.5,-19 371,-19 371,-39.75"/>
<text xml:space="preserve" text-anchor="middle" x="308.25" y="-26.25" font-family="Helvetica,sans-Serif" font-size="10.00">FAsyncTaskBase::Start</text>
</a>
</g>
</g>
<!-- Node2 -->
<g id="Node000002" class="node">
<title>Node2</title>
<g id="a_Node000002"><a xlink:href="$classFAsyncTaskBase.html#a95b4dfb08548988b7236fb1b95f450f7" xlink:title=" ">
<polygon fill="white" stroke="#666666" points="207.25,-59.75 2.25,-59.75 2.25,-39 207.25,-39 207.25,-59.75"/>
<text xml:space="preserve" text-anchor="middle" x="104.75" y="-46.25" font-family="Helvetica,sans-Serif" font-size="10.00">FAsyncTaskBase::StartBackgroundTask</text>
</a>
</g>
</g>
<!-- Node1&#45;&gt;Node2 -->
<g id="edge1_Node000001_Node000002" class="edge">
<title>Node1&#45;&gt;Node2</title>
<g id="a_edge1_Node000001_Node000002"><a xlink:title=" ">
<path fill="none" stroke="#63b8ff" d="M233.76,-36.67C225.26,-37.51 216.48,-38.38 207.69,-39.26"/>
<polygon fill="#63b8ff" stroke="#63b8ff" points="234.04,-40.16 243.64,-35.69 233.35,-33.19 234.04,-40.16"/>
</a>
</g>
</g>
<!-- Node3 -->
<g id="Node000003" class="node">
<title>Node3</title>
<g id="a_Node000003"><a xlink:href="$classFAsyncTaskBase.html#a7fab90d0cea6b27bfd02d55ff98bcbb0" xlink:title=" ">
<polygon fill="white" stroke="#666666" points="209.5,-20.75 0,-20.75 0,0 209.5,0 209.5,-20.75"/>
<text xml:space="preserve" text-anchor="middle" x="104.75" y="-7.25" font-family="Helvetica,sans-Serif" font-size="10.00">FAsyncTaskBase::StartSynchronousTask</text>
</a>
</g>
</g>
<!-- Node1&#45;&gt;Node3 -->
<g id="edge2_Node000001_Node000003" class="edge">
<title>Node1&#45;&gt;Node3</title>
<g id="a_edge2_Node000001_Node000003"><a xlink:title=" ">
<path fill="none" stroke="#63b8ff" d="M233.89,-22.46C226.07,-21.72 218.01,-20.96 209.93,-20.2"/>
<polygon fill="#63b8ff" stroke="#63b8ff" points="233.36,-25.92 243.64,-23.38 234.02,-18.95 233.36,-25.92"/>
</a>
</g>
</g>
</g>
</svg>
