<?xml version="1.0" encoding="UTF-8" standalone="no"?>
<!DOCTYPE svg PUBLIC "-//W3C//DTD SVG 1.1//EN"
 "http://www.w3.org/Graphics/SVG/1.1/DTD/svg11.dtd">
<!-- Generated by graphviz version 14.1.4 (0)
 -->
<!-- Title: TDeque::CopyUnchecked Pages: 1 -->
<svg width="1287pt" height="227pt"
 viewBox="0.00 0.00 1287.00 227.00" xmlns="http://www.w3.org/2000/svg" xmlns:xlink="http://www.w3.org/1999/xlink">
<g id="graph0" class="graph" transform="scale(1 1) rotate(0) translate(4 223.12)">
<title>TDeque::CopyUnchecked</title>
<!-- Node1 -->
<g id="Node000001" class="node">
<title>Node1</title>
<g id="a_Node000001"><a xlink:title=" ">
<polygon fill="#999999" stroke="#666666" points="137.5,-59.75 0,-59.75 0,-39 137.5,-39 137.5,-59.75"/>
<text xml:space="preserve" text-anchor="middle" x="68.75" y="-46.25" font-family="Helvetica,sans-Serif" font-size="10.00">TDeque::CopyUnchecked</text>
</a>
</g>
</g>
<!-- Node2 -->
<g id="Node000002" class="node">
<title>Node2</title>
<g id="a_Node000002"><a xlink:href="$classTDeque.html#ae034f42a4621b2e56ac550168e16ea34" xlink:title=" ">
<polygon fill="white" stroke="#666666" points="303.5,-122.75 173.5,-122.75 173.5,-102 303.5,-102 303.5,-122.75"/>
<text xml:space="preserve" text-anchor="middle" x="238.5" y="-109.25" font-family="Helvetica,sans-Serif" font-size="10.00">TDeque::CopyElements</text>
</a>
</g>
</g>
<!-- Node1&#45;&gt;Node2 -->
<g id="edge1_Node000001_Node000002" class="edge">
<title>Node1&#45;&gt;Node2</title>
<g id="a_edge1_Node000001_Node000002"><a xlink:title=" ">
<path fill="none" stroke="#63b8ff" d="M98.59,-60.21C126.04,-70.51 167.56,-86.11 198.07,-97.57"/>
<polygon fill="#63b8ff" stroke="#63b8ff" points="196.75,-100.81 207.34,-101.05 199.21,-94.26 196.75,-100.81"/>
</a>
</g>
</g>
<!-- Node7 -->
<g id="Node000007" class="node">
<title>Node7</title>
<g id="a_Node000007"><a xlink:href="$classTDeque.html#a774f81d52adcdba622fd59eb3b904529" xlink:title=" ">
<polygon fill="white" stroke="#666666" points="441.75,-59.75 344.75,-59.75 344.75,-39 441.75,-39 441.75,-59.75"/>
<text xml:space="preserve" text-anchor="middle" x="393.25" y="-46.25" font-family="Helvetica,sans-Serif" font-size="10.00">TDeque::TDeque</text>
</a>
</g>
</g>
<!-- Node1&#45;&gt;Node7 -->
<g id="edge19_Node000001_Node000007" class="edge">
<title>Node1&#45;&gt;Node7</title>
<g id="a_edge19_Node000001_Node000007"><a xlink:title=" ">
<path fill="none" stroke="#63b8ff" d="M137.75,-49.38C195.72,-49.38 278.19,-49.38 333.37,-49.38"/>
<polygon fill="#63b8ff" stroke="#63b8ff" points="333.2,-52.88 343.2,-49.38 333.2,-45.88 333.2,-52.88"/>
</a>
</g>
</g>
<!-- Node9 -->
<g id="Node000009" class="node">
<title>Node9</title>
<g id="a_Node000009"><a xlink:href="$classTDeque.html#a19f0cb34dcef433e567b84758b64aa90" xlink:title=" ">
<polygon fill="white" stroke="#666666" points="288.12,-21.75 188.88,-21.75 188.88,-1 288.12,-1 288.12,-21.75"/>
<text xml:space="preserve" text-anchor="middle" x="238.5" y="-8.25" font-family="Helvetica,sans-Serif" font-size="10.00">TDeque::Reserve</text>
</a>
</g>
</g>
<!-- Node1&#45;&gt;Node9 -->
<g id="edge9_Node000001_Node000009" class="edge">
<title>Node1&#45;&gt;Node9</title>
<g id="a_edge9_Node000001_Node000009"><a xlink:title=" ">
<path fill="none" stroke="#63b8ff" d="M117.37,-38.59C136.41,-34.28 158.53,-29.26 178.56,-24.73"/>
<polygon fill="#63b8ff" stroke="#63b8ff" points="179.3,-28.15 188.28,-22.52 177.76,-21.32 179.3,-28.15"/>
</a>
</g>
</g>
<!-- Node3 -->
<g id="Node000003" class="node">
<title>Node3</title>
<g id="a_Node000003"><a xlink:href="$MemoryOps_8h.html#a4162e930aaf29d22bafac75be0804820" xlink:title=" ">
<polygon fill="white" stroke="#666666" points="438.38,-208.75 348.12,-208.75 348.12,-188 438.38,-188 438.38,-208.75"/>
<text xml:space="preserve" text-anchor="middle" x="393.25" y="-195.25" font-family="Helvetica,sans-Serif" font-size="10.00">ConstructItems</text>
</a>
</g>
</g>
<!-- Node2&#45;&gt;Node3 -->
<g id="edge2_Node000002_Node000003" class="edge">
<title>Node2&#45;&gt;Node3</title>
<g id="a_edge2_Node000002_Node000003"><a xlink:title=" ">
<path fill="none" stroke="#63b8ff" d="M257.02,-123.14C276.84,-135.22 310.18,-155.24 339.5,-171.38 346.22,-175.07 353.5,-178.91 360.45,-182.49"/>
<polygon fill="#63b8ff" stroke="#63b8ff" points="358.43,-185.39 368.93,-186.81 361.61,-179.15 358.43,-185.39"/>
</a>
</g>
</g>
<!-- Node6 -->
<g id="Node000006" class="node">
<title>Node6</title>
<g id="a_Node000006"><a xlink:href="$classTDeque.html#a458ee9d2233fccb7fa0f45bb396bb7ad" xlink:title=" ">
<polygon fill="white" stroke="#666666" points="927.75,-103.75 827.75,-103.75 827.75,-83 927.75,-83 927.75,-103.75"/>
<text xml:space="preserve" text-anchor="middle" x="877.75" y="-90.25" font-family="Helvetica,sans-Serif" font-size="10.00">TDeque::GetData</text>
</a>
</g>
</g>
<!-- Node2&#45;&gt;Node6 -->
<g id="edge5_Node000002_Node000006" class="edge">
<title>Node2&#45;&gt;Node6</title>
<g id="a_edge5_Node000002_Node000006"><a xlink:title=" ">
<path fill="none" stroke="#63b8ff" d="M272.42,-123.19C291.72,-128.96 316.72,-135.46 339.5,-138.38 512.48,-160.5 718.25,-126.58 817.46,-106.48"/>
<polygon fill="#63b8ff" stroke="#63b8ff" points="817.87,-109.97 826.96,-104.52 816.46,-103.11 817.87,-109.97"/>
</a>
</g>
</g>
<!-- Node2&#45;&gt;Node7 -->
<g id="edge6_Node000002_Node000007" class="edge">
<title>Node2&#45;&gt;Node7</title>
<g id="a_edge6_Node000002_Node000007"><a xlink:title=" ">
<path fill="none" stroke="#63b8ff" d="M265.76,-101.54C290.53,-91.33 327.91,-75.91 355.61,-64.49"/>
<polygon fill="#63b8ff" stroke="#63b8ff" points="356.77,-67.79 364.68,-60.75 354.1,-61.32 356.77,-67.79"/>
</a>
</g>
</g>
<!-- Node8 -->
<g id="Node000008" class="node">
<title>Node8</title>
<g id="a_Node000008"><a xlink:href="$namespaceUE_1_1Deque_1_1Private.html#a674e87b3d7a99926b87f6d7cd08ac867" xlink:title=" ">
<polygon fill="white" stroke="#666666" points="447,-129.12 339.5,-129.12 339.5,-95.62 447,-95.62 447,-129.12"/>
<text xml:space="preserve" text-anchor="start" x="347.5" y="-115.62" font-family="Helvetica,sans-Serif" font-size="10.00">UE::Deque::Private</text>
<text xml:space="preserve" text-anchor="middle" x="393.25" y="-102.88" font-family="Helvetica,sans-Serif" font-size="10.00">::WrapAround</text>
</a>
</g>
</g>
<!-- Node2&#45;&gt;Node8 -->
<g id="edge8_Node000002_Node000008" class="edge">
<title>Node2&#45;&gt;Node8</title>
<g id="a_edge8_Node000002_Node000008"><a xlink:title=" ">
<path fill="none" stroke="#63b8ff" d="M303.84,-112.38C311.73,-112.38 319.79,-112.38 327.68,-112.38"/>
<polygon fill="#63b8ff" stroke="#63b8ff" points="327.57,-115.88 337.57,-112.38 327.57,-108.88 327.57,-115.88"/>
</a>
</g>
</g>
<!-- Node4 -->
<g id="Node000004" class="node">
<title>Node4</title>
<g id="a_Node000004"><a xlink:href="$structFMemory.html#a6bfb397a8ea2e226f6fe27664c9880ca" xlink:title=" ">
<polygon fill="white" stroke="#666666" points="592.75,-210.75 483,-210.75 483,-190 592.75,-190 592.75,-210.75"/>
<text xml:space="preserve" text-anchor="middle" x="537.88" y="-197.25" font-family="Helvetica,sans-Serif" font-size="10.00">FMemory::Memcpy</text>
</a>
</g>
</g>
<!-- Node3&#45;&gt;Node4 -->
<g id="edge3_Node000003_Node000004" class="edge">
<title>Node3&#45;&gt;Node4</title>
<g id="a_edge3_Node000003_Node000004"><a xlink:title=" ">
<path fill="none" stroke="#63b8ff" d="M438.6,-199C448.91,-199.14 460.11,-199.3 471.14,-199.45"/>
<polygon fill="#63b8ff" stroke="#63b8ff" points="470.95,-202.95 481,-199.59 471.05,-195.95 470.95,-202.95"/>
</a>
</g>
</g>
<!-- Node5 -->
<g id="Node000005" class="node">
<title>Node5</title>
<g id="a_Node000005"><a xlink:href="$structFGenericPlatformMemory.html#a039ab8ec901d143a5bee24861dbc1a4b" xlink:title=" ">
<polygon fill="white" stroke="#666666" points="773,-219.12 631,-219.12 631,-185.62 773,-185.62 773,-219.12"/>
<text xml:space="preserve" text-anchor="start" x="639" y="-205.62" font-family="Helvetica,sans-Serif" font-size="10.00">FGenericPlatformMemory</text>
<text xml:space="preserve" text-anchor="middle" x="702" y="-192.88" font-family="Helvetica,sans-Serif" font-size="10.00">::Memcpy</text>
</a>
</g>
</g>
<!-- Node4&#45;&gt;Node5 -->
<g id="edge4_Node000004_Node000005" class="edge">
<title>Node4&#45;&gt;Node5</title>
<g id="a_edge4_Node000004_Node000005"><a xlink:title=" ">
<path fill="none" stroke="#63b8ff" d="M592.86,-201.04C601.34,-201.15 610.28,-201.26 619.22,-201.37"/>
<polygon fill="#63b8ff" stroke="#63b8ff" points="618.97,-204.86 629.01,-201.49 619.05,-197.86 618.97,-204.86"/>
</a>
</g>
</g>
<!-- Node7&#45;&gt;Node7 -->
<g id="edge7_Node000007_Node000007" class="edge">
<title>Node7&#45;&gt;Node7</title>
<g id="a_edge7_Node000007_Node000007"><a xlink:title=" ">
<path fill="none" stroke="#63b8ff" d="M369.95,-60.15C360.62,-68.81 368.39,-77.75 393.25,-77.75 406.84,-77.75 415.33,-75.08 418.7,-71.24"/>
<polygon fill="#63b8ff" stroke="#63b8ff" points="422.18,-70.79 416.84,-61.63 415.3,-72.12 422.18,-70.79"/>
</a>
</g>
</g>
<!-- Node10 -->
<g id="Node000010" class="node">
<title>Node10</title>
<g id="a_Node000010"><a xlink:href="$classTDeque.html#abf481b32f1b6a24f0f5e72e8558b2836" xlink:title=" ">
<polygon fill="white" stroke="#666666" points="435.75,-20.75 350.75,-20.75 350.75,0 435.75,0 435.75,-20.75"/>
<text xml:space="preserve" text-anchor="middle" x="393.25" y="-7.25" font-family="Helvetica,sans-Serif" font-size="10.00">TDeque::Grow</text>
</a>
</g>
</g>
<!-- Node9&#45;&gt;Node10 -->
<g id="edge10_Node000009_Node000010" class="edge">
<title>Node9&#45;&gt;Node10</title>
<g id="a_edge10_Node000009_Node000010"><a xlink:title=" ">
<path fill="none" stroke="#63b8ff" d="M288.25,-11.06C304.5,-10.95 322.67,-10.83 339.22,-10.72"/>
<polygon fill="#63b8ff" stroke="#63b8ff" points="338.89,-14.22 348.87,-10.66 338.84,-7.22 338.89,-14.22"/>
</a>
</g>
</g>
<!-- Node11 -->
<g id="Node000011" class="node">
<title>Node11</title>
<g id="a_Node000011"><a xlink:href="$classTDeque.html#a7dccdc8fc45c08eaf166d043a960b2de" xlink:title=" ">
<polygon fill="white" stroke="#666666" points="589.75,-46.75 486,-46.75 486,-26 589.75,-26 589.75,-46.75"/>
<text xml:space="preserve" text-anchor="middle" x="537.88" y="-33.25" font-family="Helvetica,sans-Serif" font-size="10.00">TDeque::Linearize</text>
</a>
</g>
</g>
<!-- Node10&#45;&gt;Node11 -->
<g id="edge11_Node000010_Node000011" class="edge">
<title>Node10&#45;&gt;Node11</title>
<g id="a_edge11_Node000010_Node000011"><a xlink:title=" ">
<path fill="none" stroke="#63b8ff" d="M435.89,-17.97C447.91,-20.16 461.29,-22.6 474.29,-24.97"/>
<polygon fill="#63b8ff" stroke="#63b8ff" points="473.61,-28.4 484.08,-26.75 474.87,-21.51 473.61,-28.4"/>
</a>
</g>
</g>
<!-- Node11&#45;&gt;Node6 -->
<g id="edge12_Node000011_Node000006" class="edge">
<title>Node11&#45;&gt;Node6</title>
<g id="a_edge12_Node000011_Node000006"><a xlink:title=" ">
<path fill="none" stroke="#63b8ff" d="M558.93,-47.09C576.73,-56.04 603.73,-68.3 628.75,-74.38 691.43,-89.6 765.39,-93.52 816.13,-94.15"/>
<polygon fill="#63b8ff" stroke="#63b8ff" points="816.01,-97.65 826.04,-94.23 816.07,-90.65 816.01,-97.65"/>
</a>
</g>
</g>
<!-- Node12 -->
<g id="Node000012" class="node">
<title>Node12</title>
<g id="a_Node000012"><a xlink:href="$MemoryOps_8h.html#a812c18177306ca6c11d04b26d7b780a7" xlink:title=" ">
<polygon fill="white" stroke="#666666" points="944.25,-46.75 811.25,-46.75 811.25,-26 944.25,-26 944.25,-46.75"/>
<text xml:space="preserve" text-anchor="middle" x="877.75" y="-33.25" font-family="Helvetica,sans-Serif" font-size="10.00">RelocateConstructItems</text>
</a>
</g>
</g>
<!-- Node11&#45;&gt;Node12 -->
<g id="edge13_Node000011_Node000012" class="edge">
<title>Node11&#45;&gt;Node12</title>
<g id="a_edge13_Node000011_Node000012"><a xlink:title=" ">
<path fill="none" stroke="#63b8ff" d="M590.19,-36.38C645.92,-36.38 735.55,-36.38 799.73,-36.38"/>
<polygon fill="#63b8ff" stroke="#63b8ff" points="799.49,-39.88 809.49,-36.38 799.49,-32.88 799.49,-39.88"/>
</a>
</g>
</g>
<!-- Node15 -->
<g id="Node000015" class="node">
<title>Node15</title>
<g id="a_Node000015"><a xlink:href="$classTDeque.html#a11074d2f7c0cc7ccfd2158fd68f3779f" xlink:title=" ">
<polygon fill="white" stroke="#666666" points="775.25,-65.75 628.75,-65.75 628.75,-45 775.25,-45 775.25,-65.75"/>
<text xml:space="preserve" text-anchor="middle" x="702" y="-52.25" font-family="Helvetica,sans-Serif" font-size="10.00">TDeque::ShiftElementsLeft</text>
</a>
</g>
</g>
<!-- Node11&#45;&gt;Node15 -->
<g id="edge16_Node000011_Node000015" class="edge">
<title>Node11&#45;&gt;Node15</title>
<g id="a_edge16_Node000011_Node000015"><a xlink:title=" ">
<path fill="none" stroke="#63b8ff" d="M590.17,-42.39C598.81,-43.4 607.98,-44.47 617.19,-45.55"/>
<polygon fill="#63b8ff" stroke="#63b8ff" points="616.57,-49 626.91,-46.69 617.39,-42.05 616.57,-49"/>
</a>
</g>
</g>
<!-- Node13 -->
<g id="Node000013" class="node">
<title>Node13</title>
<g id="a_Node000013"><a xlink:href="$structFMemory.html#a153a731cbc9f2dd08fc908289817ae9f" xlink:title=" ">
<polygon fill="white" stroke="#666666" points="1100.5,-46.75 980.25,-46.75 980.25,-26 1100.5,-26 1100.5,-46.75"/>
<text xml:space="preserve" text-anchor="middle" x="1040.38" y="-33.25" font-family="Helvetica,sans-Serif" font-size="10.00">FMemory::Memmove</text>
</a>
</g>
</g>
<!-- Node12&#45;&gt;Node13 -->
<g id="edge14_Node000012_Node000013" class="edge">
<title>Node12&#45;&gt;Node13</title>
<g id="a_edge14_Node000012_Node000013"><a xlink:title=" ">
<path fill="none" stroke="#63b8ff" d="M944.55,-36.38C952.4,-36.38 960.45,-36.38 968.38,-36.38"/>
<polygon fill="#63b8ff" stroke="#63b8ff" points="968.36,-39.88 978.36,-36.38 968.36,-32.88 968.36,-39.88"/>
</a>
</g>
</g>
<!-- Node14 -->
<g id="Node000014" class="node">
<title>Node14</title>
<g id="a_Node000014"><a xlink:href="$structFGenericPlatformMemory.html#a5a98b486820d320cd8e8e378b647e1d1" xlink:title=" ">
<polygon fill="white" stroke="#666666" points="1278.5,-53.12 1136.5,-53.12 1136.5,-19.62 1278.5,-19.62 1278.5,-53.12"/>
<text xml:space="preserve" text-anchor="start" x="1144.5" y="-39.62" font-family="Helvetica,sans-Serif" font-size="10.00">FGenericPlatformMemory</text>
<text xml:space="preserve" text-anchor="middle" x="1207.5" y="-26.88" font-family="Helvetica,sans-Serif" font-size="10.00">::Memmove</text>
</a>
</g>
</g>
<!-- Node13&#45;&gt;Node14 -->
<g id="edge15_Node000013_Node000014" class="edge">
<title>Node13&#45;&gt;Node14</title>
<g id="a_edge15_Node000013_Node000014"><a xlink:title=" ">
<path fill="none" stroke="#63b8ff" d="M1100.99,-36.38C1108.71,-36.38 1116.73,-36.38 1124.73,-36.38"/>
<polygon fill="#63b8ff" stroke="#63b8ff" points="1124.49,-39.88 1134.49,-36.38 1124.49,-32.88 1124.49,-39.88"/>
</a>
</g>
</g>
<!-- Node15&#45;&gt;Node6 -->
<g id="edge17_Node000015_Node000006" class="edge">
<title>Node15&#45;&gt;Node6</title>
<g id="a_edge17_Node000015_Node000006"><a xlink:title=" ">
<path fill="none" stroke="#63b8ff" d="M752.33,-66.16C772.23,-70.51 795.38,-75.58 816.28,-80.15"/>
<polygon fill="#63b8ff" stroke="#63b8ff" points="815.31,-83.52 825.82,-82.24 816.8,-76.68 815.31,-83.52"/>
</a>
</g>
</g>
<!-- Node15&#45;&gt;Node12 -->
<g id="edge18_Node000015_Node000012" class="edge">
<title>Node15&#45;&gt;Node12</title>
<g id="a_edge18_Node000015_Node000012"><a xlink:title=" ">
<path fill="none" stroke="#63b8ff" d="M775.68,-47.43C783.64,-46.56 791.77,-45.67 799.78,-44.79"/>
<polygon fill="#63b8ff" stroke="#63b8ff" points="799.94,-48.29 809.5,-43.73 799.18,-41.34 799.94,-48.29"/>
</a>
</g>
</g>
</g>
</svg>
