<?xml version="1.0" encoding="UTF-8" standalone="no"?>
<!DOCTYPE svg PUBLIC "-//W3C//DTD SVG 1.1//EN"
 "http://www.w3.org/Graphics/SVG/1.1/DTD/svg11.dtd">
<!-- Generated by graphviz version 14.1.4 (0)
 -->
<!-- Title: FMallocBinned2::ReallocInline Pages: 1 -->
<svg width="1192pt" height="505pt"
 viewBox="0.00 0.00 1192.00 505.00" xmlns="http://www.w3.org/2000/svg" xmlns:xlink="http://www.w3.org/1999/xlink">
<g id="graph0" class="graph" transform="scale(1 1) rotate(0) translate(4 500.88)">
<title>FMallocBinned2::ReallocInline</title>
<!-- Node1 -->
<g id="Node000001" class="node">
<title>Node1</title>
<g id="a_Node000001"><a xlink:title=" ">
<polygon fill="#999999" stroke="#666666" points="163,-148.75 0,-148.75 0,-128 163,-128 163,-148.75"/>
<text xml:space="preserve" text-anchor="middle" x="81.5" y="-135.25" font-family="Helvetica,sans-Serif" font-size="10.00">FMallocBinned2::ReallocInline</text>
</a>
</g>
</g>
<!-- Node2 -->
<g id="Node000002" class="node">
<title>Node2</title>
<g id="a_Node000002"><a xlink:href="$classTMallocBinnedCommon.html#a551612b231c440f039f9f5b75b47805e" xlink:title=" ">
<polygon fill="white" stroke="#666666" points="371.75,-496.88 202.75,-496.88 202.75,-437.88 371.75,-437.88 371.75,-496.88"/>
<text xml:space="preserve" text-anchor="start" x="210.75" y="-483.38" font-family="Helvetica,sans-Serif" font-size="10.00">TMallocBinnedCommon</text>
<text xml:space="preserve" text-anchor="start" x="210.75" y="-470.62" font-family="Helvetica,sans-Serif" font-size="10.00">&lt; FMallocBinned2, 51,</text>
<text xml:space="preserve" text-anchor="start" x="210.75" y="-457.88" font-family="Helvetica,sans-Serif" font-size="10.00">(32768&#45;16) &gt;::BoundSizeToPool</text>
<text xml:space="preserve" text-anchor="middle" x="287.25" y="-445.12" font-family="Helvetica,sans-Serif" font-size="10.00">Index</text>
</a>
</g>
</g>
<!-- Node1&#45;&gt;Node2 -->
<g id="edge1_Node000001_Node000002" class="edge">
<title>Node1&#45;&gt;Node2</title>
<g id="a_edge1_Node000001_Node000002"><a xlink:title=" ">
<path fill="none" stroke="#63b8ff" d="M84.12,-149.13C90.78,-189.95 119.56,-337.39 199,-423.38 201.34,-425.91 203.86,-428.32 206.52,-430.61"/>
<polygon fill="#63b8ff" stroke="#63b8ff" points="204.17,-433.22 214.22,-436.58 208.46,-427.69 204.17,-433.22"/>
</a>
</g>
</g>
<!-- Node3 -->
<g id="Node000003" class="node">
<title>Node3</title>
<g id="a_Node000003"><a xlink:href="$classFMallocBinned2.html#a1d6da8abfe4b1fcf7f797caa11b92c19" xlink:title=" ">
<polygon fill="white" stroke="#666666" points="347.75,-246.75 226.75,-246.75 226.75,-226 347.75,-226 347.75,-246.75"/>
<text xml:space="preserve" text-anchor="middle" x="287.25" y="-233.25" font-family="Helvetica,sans-Serif" font-size="10.00">FMallocBinned2::Free</text>
</a>
</g>
</g>
<!-- Node1&#45;&gt;Node3 -->
<g id="edge2_Node000001_Node000003" class="edge">
<title>Node1&#45;&gt;Node3</title>
<g id="a_edge2_Node000001_Node000003"><a xlink:title=" ">
<path fill="none" stroke="#63b8ff" d="M105.08,-149.24C141.21,-166.61 212.14,-200.73 253.73,-220.73"/>
<polygon fill="#63b8ff" stroke="#63b8ff" points="251.98,-223.78 262.51,-224.96 255.02,-217.47 251.98,-223.78"/>
</a>
</g>
</g>
<!-- Node6 -->
<g id="Node000006" class="node">
<title>Node6</title>
<g id="a_Node000006"><a xlink:href="$classFMallocBinned2.html#a24811f50cbbc899a2c6deb861ce80ee8" xlink:title=" ">
<polygon fill="white" stroke="#666666" points="995.75,-396.12 822.25,-396.12 822.25,-362.62 995.75,-362.62 995.75,-396.12"/>
<text xml:space="preserve" text-anchor="start" x="830.25" y="-382.62" font-family="Helvetica,sans-Serif" font-size="10.00">FMallocBinned2::GetPoolHeader</text>
<text xml:space="preserve" text-anchor="middle" x="909" y="-369.88" font-family="Helvetica,sans-Serif" font-size="10.00">FromPointer</text>
</a>
</g>
</g>
<!-- Node1&#45;&gt;Node6 -->
<g id="edge19_Node000001_Node000006" class="edge">
<title>Node1&#45;&gt;Node6</title>
<g id="a_edge19_Node000001_Node000006"><a xlink:title=" ">
<path fill="none" stroke="#63b8ff" d="M91.52,-149.16C126.9,-190.41 261.66,-337.98 411.5,-378.38 546.27,-414.71 709.2,-405.48 810.74,-393.79"/>
<polygon fill="#63b8ff" stroke="#63b8ff" points="810.87,-397.3 820.39,-392.64 810.05,-390.35 810.87,-397.3"/>
</a>
</g>
</g>
<!-- Node8 -->
<g id="Node000008" class="node">
<title>Node8</title>
<g id="a_Node000008"><a xlink:href="$classFMallocBinned2.html#a0c1726dac8824e35a6497bbcf22ba845" xlink:title=" ">
<polygon fill="white" stroke="#666666" points="994.62,-287.75 823.38,-287.75 823.38,-267 994.62,-267 994.62,-287.75"/>
<text xml:space="preserve" text-anchor="middle" x="909" y="-274.25" font-family="Helvetica,sans-Serif" font-size="10.00">FMallocBinned2::IsOSAllocation</text>
</a>
</g>
</g>
<!-- Node1&#45;&gt;Node8 -->
<g id="edge20_Node000001_Node000008" class="edge">
<title>Node1&#45;&gt;Node8</title>
<g id="a_edge20_Node000001_Node000008"><a xlink:title=" ">
<path fill="none" stroke="#63b8ff" d="M163.3,-132.18C324.36,-121.19 679.14,-104.1 786.25,-157.38 809.18,-168.78 804.54,-183.87 822.25,-202.38 842.4,-223.43 867.75,-245.09 885.65,-259.68"/>
<polygon fill="#63b8ff" stroke="#63b8ff" points="883.11,-262.13 893.09,-265.68 887.5,-256.68 883.11,-262.13"/>
</a>
</g>
</g>
<!-- Node16 -->
<g id="Node000016" class="node">
<title>Node16</title>
<g id="a_Node000016"><a xlink:href="$structFMemory.html#a6bfb397a8ea2e226f6fe27664c9880ca" xlink:title=" ">
<polygon fill="white" stroke="#666666" points="342.12,-110.75 232.38,-110.75 232.38,-90 342.12,-90 342.12,-110.75"/>
<text xml:space="preserve" text-anchor="middle" x="287.25" y="-97.25" font-family="Helvetica,sans-Serif" font-size="10.00">FMemory::Memcpy</text>
</a>
</g>
</g>
<!-- Node1&#45;&gt;Node16 -->
<g id="edge21_Node000001_Node000016" class="edge">
<title>Node1&#45;&gt;Node16</title>
<g id="a_edge21_Node000001_Node000016"><a xlink:title=" ">
<path fill="none" stroke="#63b8ff" d="M140.61,-127.54C165.61,-122.87 194.96,-117.4 220.73,-112.6"/>
<polygon fill="#63b8ff" stroke="#63b8ff" points="221.23,-116.06 230.42,-110.79 219.95,-109.18 221.23,-116.06"/>
</a>
</g>
</g>
<!-- Node18 -->
<g id="Node000018" class="node">
<title>Node18</title>
<g id="a_Node000018"><a xlink:href="$classFMallocBinned2.html#aa8b73a4243bf5ecf3549f511678d380b" xlink:title=" ">
<polygon fill="white" stroke="#666666" points="361.25,-72.12 213.25,-72.12 213.25,-38.62 361.25,-38.62 361.25,-72.12"/>
<text xml:space="preserve" text-anchor="start" x="221.25" y="-58.62" font-family="Helvetica,sans-Serif" font-size="10.00">FMallocBinned2::PoolIndex</text>
<text xml:space="preserve" text-anchor="middle" x="287.25" y="-45.88" font-family="Helvetica,sans-Serif" font-size="10.00">ToBinSize</text>
</a>
</g>
</g>
<!-- Node1&#45;&gt;Node18 -->
<g id="edge23_Node000001_Node000018" class="edge">
<title>Node1&#45;&gt;Node18</title>
<g id="a_edge23_Node000001_Node000018"><a xlink:title=" ">
<path fill="none" stroke="#63b8ff" d="M101.84,-127.68C124.6,-115.38 163.76,-95.14 199,-81.38 203.6,-79.58 208.37,-77.84 213.21,-76.16"/>
<polygon fill="#63b8ff" stroke="#63b8ff" points="214.05,-79.57 222.42,-73.07 211.83,-72.93 214.05,-79.57"/>
</a>
</g>
</g>
<!-- Node19 -->
<g id="Node000019" class="node">
<title>Node19</title>
<g id="a_Node000019"><a xlink:href="$classFMallocBinned2.html#a81df99269cf1a8c2af42d6aea20dc6b8" xlink:title=" ">
<polygon fill="white" stroke="#666666" points="375.5,-20.75 199,-20.75 199,0 375.5,0 375.5,-20.75"/>
<text xml:space="preserve" text-anchor="middle" x="287.25" y="-7.25" font-family="Helvetica,sans-Serif" font-size="10.00">FMallocBinned2::ReallocExternal</text>
</a>
</g>
</g>
<!-- Node1&#45;&gt;Node19 -->
<g id="edge24_Node000001_Node000019" class="edge">
<title>Node1&#45;&gt;Node19</title>
<g id="a_edge24_Node000001_Node000019"><a xlink:title=" ">
<path fill="none" stroke="#63b8ff" d="M90.51,-127.72C107.74,-105.61 150.68,-54.73 199,-29.38 201.9,-27.86 204.91,-26.46 207.99,-25.17"/>
<polygon fill="#63b8ff" stroke="#63b8ff" points="209.14,-28.48 217.31,-21.74 206.72,-21.91 209.14,-28.48"/>
</a>
</g>
</g>
<!-- Node4 -->
<g id="Node000004" class="node">
<title>Node4</title>
<g id="a_Node000004"><a xlink:href="$classFMallocBinned2.html#a62c1302f40a202d7a3ff9d39d2525b8c" xlink:title=" ">
<polygon fill="white" stroke="#666666" points="784,-367.75 636,-367.75 636,-347 784,-347 784,-367.75"/>
<text xml:space="preserve" text-anchor="middle" x="710" y="-354.25" font-family="Helvetica,sans-Serif" font-size="10.00">FMallocBinned2::FreeInline</text>
</a>
</g>
</g>
<!-- Node3&#45;&gt;Node4 -->
<g id="edge3_Node000003_Node000004" class="edge">
<title>Node3&#45;&gt;Node4</title>
<g id="a_edge3_Node000003_Node000004"><a xlink:title=" ">
<path fill="none" stroke="#63b8ff" d="M295.3,-247.06C312.01,-271.31 356.78,-330.14 411.5,-352.38 485.5,-382.44 578.64,-378.01 640.81,-369.79"/>
<polygon fill="#63b8ff" stroke="#63b8ff" points="641.12,-373.28 650.54,-368.43 640.15,-366.35 641.12,-373.28"/>
</a>
</g>
</g>
<!-- Node3&#45;&gt;Node8 -->
<g id="edge18_Node000003_Node000008" class="edge">
<title>Node3&#45;&gt;Node8</title>
<g id="a_edge18_Node000003_Node000008"><a xlink:title=" ">
<path fill="none" stroke="#63b8ff" d="M348.09,-240.86C410.81,-246.27 511.96,-257 597.75,-275.38 614.11,-278.88 617.2,-283.9 633.75,-286.38 700.78,-296.39 718.52,-288.88 786.25,-286.38 794.5,-286.07 803.05,-285.65 811.63,-285.16"/>
<polygon fill="#63b8ff" stroke="#63b8ff" points="811.62,-288.66 821.39,-284.56 811.19,-281.68 811.62,-288.66"/>
</a>
</g>
</g>
<!-- Node10 -->
<g id="Node000010" class="node">
<title>Node10</title>
<g id="a_Node000010"><a xlink:href="$classFMallocBinned2.html#a80e6434630824867e269ce3a336b400d" xlink:title=" ">
<polygon fill="white" stroke="#666666" points="597.75,-227.75 411.5,-227.75 411.5,-207 597.75,-207 597.75,-227.75"/>
<text xml:space="preserve" text-anchor="middle" x="504.62" y="-214.25" font-family="Helvetica,sans-Serif" font-size="10.00">FMallocBinned2::GetAllocationSize</text>
</a>
</g>
</g>
<!-- Node3&#45;&gt;Node10 -->
<g id="edge9_Node000003_Node000010" class="edge">
<title>Node3&#45;&gt;Node10</title>
<g id="a_edge9_Node000003_Node000010"><a xlink:title=" ">
<path fill="none" stroke="#63b8ff" d="M348.24,-231.08C364.35,-229.66 382.24,-228.08 399.98,-226.52"/>
<polygon fill="#63b8ff" stroke="#63b8ff" points="400.14,-230.02 409.79,-225.65 399.52,-223.05 400.14,-230.02"/>
</a>
</g>
</g>
<!-- Node15 -->
<g id="Node000015" class="node">
<title>Node15</title>
<g id="a_Node000015"><a xlink:href="$classTMallocBinnedCommon.html#aba0d885952ed15a4ebb411028c6268ae" xlink:title=" ">
<polygon fill="white" stroke="#666666" points="591,-342.88 418.25,-342.88 418.25,-283.88 591,-283.88 591,-342.88"/>
<text xml:space="preserve" text-anchor="start" x="426.25" y="-329.38" font-family="Helvetica,sans-Serif" font-size="10.00">TMallocBinnedCommon</text>
<text xml:space="preserve" text-anchor="start" x="426.25" y="-316.62" font-family="Helvetica,sans-Serif" font-size="10.00">&lt; FMallocBinned2, 51,</text>
<text xml:space="preserve" text-anchor="start" x="426.25" y="-303.88" font-family="Helvetica,sans-Serif" font-size="10.00">(32768&#45;16) &gt;::GetTotalAllocated</text>
<text xml:space="preserve" text-anchor="middle" x="504.62" y="-291.12" font-family="Helvetica,sans-Serif" font-size="10.00">SmallPoolMemory</text>
</a>
</g>
</g>
<!-- Node3&#45;&gt;Node15 -->
<g id="edge17_Node000003_Node000015" class="edge">
<title>Node3&#45;&gt;Node15</title>
<g id="a_edge17_Node000003_Node000015"><a xlink:title=" ">
<path fill="none" stroke="#63b8ff" d="M318.65,-247.24C342.4,-255.74 376.75,-268.02 409.42,-279.7"/>
<polygon fill="#63b8ff" stroke="#63b8ff" points="407.94,-282.88 418.53,-282.95 410.29,-276.29 407.94,-282.88"/>
</a>
</g>
</g>
<!-- Node5 -->
<g id="Node000005" class="node">
<title>Node5</title>
<g id="a_Node000005"><a xlink:href="$classFMallocBinned2.html#afe2c29f21512d49cc4d726d384f2809d" xlink:title=" ">
<polygon fill="white" stroke="#666666" points="989.75,-344.75 828.25,-344.75 828.25,-324 989.75,-324 989.75,-344.75"/>
<text xml:space="preserve" text-anchor="middle" x="909" y="-331.25" font-family="Helvetica,sans-Serif" font-size="10.00">FMallocBinned2::FreeExternal</text>
</a>
</g>
</g>
<!-- Node4&#45;&gt;Node5 -->
<g id="edge4_Node000004_Node000005" class="edge">
<title>Node4&#45;&gt;Node5</title>
<g id="a_edge4_Node000004_Node000005"><a xlink:title=" ">
<path fill="none" stroke="#63b8ff" d="M784.36,-348.81C794.91,-347.58 805.88,-346.3 816.73,-345.03"/>
<polygon fill="#63b8ff" stroke="#63b8ff" points="816.94,-348.53 826.47,-343.89 816.13,-341.58 816.94,-348.53"/>
</a>
</g>
</g>
<!-- Node4&#45;&gt;Node6 -->
<g id="edge5_Node000004_Node000006" class="edge">
<title>Node4&#45;&gt;Node6</title>
<g id="a_edge5_Node000004_Node000006"><a xlink:title=" ">
<path fill="none" stroke="#63b8ff" d="M784.36,-365.57C792.97,-366.53 801.86,-367.52 810.74,-368.51"/>
<polygon fill="#63b8ff" stroke="#63b8ff" points="810.12,-371.97 820.45,-369.6 810.9,-365.01 810.12,-371.97"/>
</a>
</g>
</g>
<!-- Node4&#45;&gt;Node8 -->
<g id="edge7_Node000004_Node000008" class="edge">
<title>Node4&#45;&gt;Node8</title>
<g id="a_edge7_Node000004_Node000008"><a xlink:title=" ">
<path fill="none" stroke="#63b8ff" d="M737.57,-346.59C771.94,-332.63 831.99,-308.24 870.86,-292.46"/>
<polygon fill="#63b8ff" stroke="#63b8ff" points="871.87,-295.82 879.82,-288.82 869.24,-289.34 871.87,-295.82"/>
</a>
</g>
</g>
<!-- Node7 -->
<g id="Node000007" class="node">
<title>Node7</title>
<g id="a_Node000007"><a xlink:href="$AlignmentTemplates_8h.html#a30c5c7218ede5e2e65f52e645600fb63" xlink:title=" ">
<polygon fill="white" stroke="#666666" points="1141.88,-389.75 1073.38,-389.75 1073.38,-369 1141.88,-369 1141.88,-389.75"/>
<text xml:space="preserve" text-anchor="middle" x="1107.62" y="-376.25" font-family="Helvetica,sans-Serif" font-size="10.00">AlignDown</text>
</a>
</g>
</g>
<!-- Node6&#45;&gt;Node7 -->
<g id="edge6_Node000006_Node000007" class="edge">
<title>Node6&#45;&gt;Node7</title>
<g id="a_edge6_Node000006_Node000007"><a xlink:title=" ">
<path fill="none" stroke="#63b8ff" d="M996.24,-379.38C1018.91,-379.38 1042.44,-379.38 1061.93,-379.38"/>
<polygon fill="#63b8ff" stroke="#63b8ff" points="1061.68,-382.88 1071.68,-379.38 1061.68,-375.88 1061.68,-382.88"/>
</a>
</g>
</g>
<!-- Node9 -->
<g id="Node000009" class="node">
<title>Node9</title>
<g id="a_Node000009"><a xlink:href="$AlignmentTemplates_8h.html#af98d475319aec8f128d9d0c5ccaa247f" xlink:title=" ">
<polygon fill="white" stroke="#666666" points="1138.12,-287.75 1077.12,-287.75 1077.12,-267 1138.12,-267 1138.12,-287.75"/>
<text xml:space="preserve" text-anchor="middle" x="1107.62" y="-274.25" font-family="Helvetica,sans-Serif" font-size="10.00">IsAligned</text>
</a>
</g>
</g>
<!-- Node8&#45;&gt;Node9 -->
<g id="edge8_Node000008_Node000009" class="edge">
<title>Node8&#45;&gt;Node9</title>
<g id="a_edge8_Node000008_Node000009"><a xlink:title=" ">
<path fill="none" stroke="#63b8ff" d="M995.1,-277.38C1019.57,-277.38 1045.14,-277.38 1065.62,-277.38"/>
<polygon fill="#63b8ff" stroke="#63b8ff" points="1065.53,-280.88 1075.53,-277.38 1065.53,-273.88 1065.53,-280.88"/>
</a>
</g>
</g>
<!-- Node11 -->
<g id="Node000011" class="node">
<title>Node11</title>
<g id="a_Node000011"><a xlink:href="$classTMallocBinnedCommon.html#acf298cb4c74b6912d1a63eac03158af1" xlink:title=" ">
<polygon fill="white" stroke="#666666" points="786.25,-276.88 633.75,-276.88 633.75,-217.88 786.25,-217.88 786.25,-276.88"/>
<text xml:space="preserve" text-anchor="start" x="641.75" y="-263.38" font-family="Helvetica,sans-Serif" font-size="10.00">TMallocBinnedCommon</text>
<text xml:space="preserve" text-anchor="start" x="641.75" y="-250.62" font-family="Helvetica,sans-Serif" font-size="10.00">&lt; FMallocBinned2, 51,</text>
<text xml:space="preserve" text-anchor="start" x="641.75" y="-237.88" font-family="Helvetica,sans-Serif" font-size="10.00">(32768&#45;16) &gt;::GetAllocation</text>
<text xml:space="preserve" text-anchor="middle" x="710" y="-225.12" font-family="Helvetica,sans-Serif" font-size="10.00">SizeExternal</text>
</a>
</g>
</g>
<!-- Node10&#45;&gt;Node11 -->
<g id="edge10_Node000010_Node000011" class="edge">
<title>Node10&#45;&gt;Node11</title>
<g id="a_edge10_Node000010_Node000011"><a xlink:title=" ">
<path fill="none" stroke="#63b8ff" d="M579.34,-228.25C593.24,-230.3 607.9,-232.46 622.16,-234.57"/>
<polygon fill="#63b8ff" stroke="#63b8ff" points="621.59,-238.02 631.99,-236.02 622.61,-231.09 621.59,-238.02"/>
</a>
</g>
</g>
<!-- Node12 -->
<g id="Node000012" class="node">
<title>Node12</title>
<g id="a_Node000012"><a xlink:href="$classFMallocBinned2.html#a05644a25811b0a8215f68394e86992a8" xlink:title=" ">
<polygon fill="white" stroke="#666666" points="782.5,-200.12 637.5,-200.12 637.5,-166.62 782.5,-166.62 782.5,-200.12"/>
<text xml:space="preserve" text-anchor="start" x="645.5" y="-186.62" font-family="Helvetica,sans-Serif" font-size="10.00">FMallocBinned2::GetSmall</text>
<text xml:space="preserve" text-anchor="middle" x="710" y="-173.88" font-family="Helvetica,sans-Serif" font-size="10.00">AllocationSize</text>
</a>
</g>
</g>
<!-- Node10&#45;&gt;Node12 -->
<g id="edge11_Node000010_Node000012" class="edge">
<title>Node10&#45;&gt;Node12</title>
<g id="a_edge11_Node000010_Node000012"><a xlink:title=" ">
<path fill="none" stroke="#63b8ff" d="M570.53,-206.52C588.23,-203.56 607.65,-200.32 626.2,-197.22"/>
<polygon fill="#63b8ff" stroke="#63b8ff" points="626.53,-200.71 635.81,-195.61 625.37,-193.81 626.53,-200.71"/>
</a>
</g>
</g>
<!-- Node12&#45;&gt;Node3 -->
<g id="edge14_Node000012_Node000003" class="edge">
<title>Node12&#45;&gt;Node3</title>
<g id="a_edge14_Node000012_Node000003"><a xlink:title=" ">
<path fill="none" stroke="#63b8ff" d="M637.21,-182.02C576.6,-182.07 487.76,-184.91 411.5,-198.38 382.57,-203.48 350.91,-213.34 326.93,-221.73"/>
<polygon fill="#63b8ff" stroke="#63b8ff" points="325.81,-218.41 317.58,-225.08 328.17,-225 325.81,-218.41"/>
</a>
</g>
</g>
<!-- Node12&#45;&gt;Node6 -->
<g id="edge15_Node000012_Node000006" class="edge">
<title>Node12&#45;&gt;Node6</title>
<g id="a_edge15_Node000012_Node000006"><a xlink:title=" ">
<path fill="none" stroke="#63b8ff" d="M775.81,-200.53C779.63,-203.08 783.17,-206.01 786.25,-209.38 830.81,-258.02 776.77,-305.59 822.25,-353.38 822.85,-354.01 823.47,-354.63 824.1,-355.23"/>
<polygon fill="#63b8ff" stroke="#63b8ff" points="821.82,-357.89 831.84,-361.33 826.15,-352.39 821.82,-357.89"/>
</a>
</g>
</g>
<!-- Node12&#45;&gt;Node8 -->
<g id="edge16_Node000012_Node000008" class="edge">
<title>Node12&#45;&gt;Node8</title>
<g id="a_edge16_Node000012_Node000008"><a xlink:title=" ">
<path fill="none" stroke="#63b8ff" d="M764.49,-200.54C771.88,-203.3 779.31,-206.27 786.25,-209.38 820.28,-224.61 857.42,-246.13 881.62,-260.85"/>
<polygon fill="#63b8ff" stroke="#63b8ff" points="879.51,-263.66 889.87,-265.91 883.18,-257.7 879.51,-263.66"/>
</a>
</g>
</g>
<!-- Node13 -->
<g id="Node000013" class="node">
<title>Node13</title>
<g id="a_Node000013"><a xlink:href="$classFMallocBinned2.html#a133e4c102229528f6f45140053adfe2d" xlink:title=" ">
<polygon fill="white" stroke="#666666" points="986,-193.75 832,-193.75 832,-173 986,-173 986,-193.75"/>
<text xml:space="preserve" text-anchor="middle" x="909" y="-180.25" font-family="Helvetica,sans-Serif" font-size="10.00">FMallocBinned2::CanaryTest</text>
</a>
</g>
</g>
<!-- Node12&#45;&gt;Node13 -->
<g id="edge12_Node000012_Node000013" class="edge">
<title>Node12&#45;&gt;Node13</title>
<g id="a_edge12_Node000012_Node000013"><a xlink:title=" ">
<path fill="none" stroke="#63b8ff" d="M782.96,-183.38C795.08,-183.38 807.77,-183.38 820.24,-183.38"/>
<polygon fill="#63b8ff" stroke="#63b8ff" points="820.08,-186.88 830.08,-183.38 820.08,-179.88 820.08,-186.88"/>
</a>
</g>
</g>
<!-- Node14 -->
<g id="Node000014" class="node">
<title>Node14</title>
<g id="a_Node000014"><a xlink:href="$classFMallocBinned2.html#a5e2cc2011acc54fe57bb5a982186b89f" xlink:title=" ">
<polygon fill="white" stroke="#666666" points="1183.5,-193.75 1031.75,-193.75 1031.75,-173 1183.5,-173 1183.5,-193.75"/>
<text xml:space="preserve" text-anchor="middle" x="1107.62" y="-180.25" font-family="Helvetica,sans-Serif" font-size="10.00">FMallocBinned2::CanaryFail</text>
</a>
</g>
</g>
<!-- Node13&#45;&gt;Node14 -->
<g id="edge13_Node000013_Node000014" class="edge">
<title>Node13&#45;&gt;Node14</title>
<g id="a_edge13_Node000013_Node000014"><a xlink:title=" ">
<path fill="none" stroke="#63b8ff" d="M986.3,-183.38C997.39,-183.38 1008.88,-183.38 1020.15,-183.38"/>
<polygon fill="#63b8ff" stroke="#63b8ff" points="1019.82,-186.88 1029.82,-183.38 1019.82,-179.88 1019.82,-186.88"/>
</a>
</g>
</g>
<!-- Node17 -->
<g id="Node000017" class="node">
<title>Node17</title>
<g id="a_Node000017"><a xlink:href="$structFGenericPlatformMemory.html#a039ab8ec901d143a5bee24861dbc1a4b" xlink:title=" ">
<polygon fill="white" stroke="#666666" points="575.62,-110.12 433.62,-110.12 433.62,-76.62 575.62,-76.62 575.62,-110.12"/>
<text xml:space="preserve" text-anchor="start" x="441.62" y="-96.62" font-family="Helvetica,sans-Serif" font-size="10.00">FGenericPlatformMemory</text>
<text xml:space="preserve" text-anchor="middle" x="504.62" y="-83.88" font-family="Helvetica,sans-Serif" font-size="10.00">::Memcpy</text>
</a>
</g>
</g>
<!-- Node16&#45;&gt;Node17 -->
<g id="edge22_Node000016_Node000017" class="edge">
<title>Node16&#45;&gt;Node17</title>
<g id="a_edge22_Node000016_Node000017"><a xlink:title=" ">
<path fill="none" stroke="#63b8ff" d="M342.6,-98.61C366.7,-97.83 395.56,-96.89 422.15,-96.02"/>
<polygon fill="#63b8ff" stroke="#63b8ff" points="422,-99.53 431.88,-95.71 421.77,-92.53 422,-99.53"/>
</a>
</g>
</g>
</g>
</svg>
