<?xml version="1.0" encoding="UTF-8" standalone="no"?>
<!DOCTYPE svg PUBLIC "-//W3C//DTD SVG 1.1//EN"
 "http://www.w3.org/Graphics/SVG/1.1/DTD/svg11.dtd">
<!-- Generated by graphviz version 14.1.4 (0)
 -->
<!-- Title: TMRUArray::AddZeroed Pages: 1 -->
<svg width="524pt" height="132pt"
 viewBox="0.00 0.00 524.00 132.00" xmlns="http://www.w3.org/2000/svg" xmlns:xlink="http://www.w3.org/1999/xlink">
<g id="graph0" class="graph" transform="scale(1 1) rotate(0) translate(4 127.5)">
<title>TMRUArray::AddZeroed</title>
<!-- Node1 -->
<g id="Node000001" class="node">
<title>Node1</title>
<g id="a_Node000001"><a xlink:title=" ">
<polygon fill="#999999" stroke="#666666" points="130,-72.12 0,-72.12 0,-51.38 130,-51.38 130,-72.12"/>
<text xml:space="preserve" text-anchor="middle" x="65" y="-58.62" font-family="Helvetica,sans-Serif" font-size="10.00">TMRUArray::AddZeroed</text>
</a>
</g>
</g>
<!-- Node2 -->
<g id="Node000002" class="node">
<title>Node2</title>
<g id="a_Node000002"><a xlink:href="$classTArray.html#a7beafbb0e2a3b7d746af8f1d8d5611c2" xlink:title=" ">
<polygon fill="white" stroke="#666666" points="306.5,-123.5 182.5,-123.5 182.5,-90 306.5,-90 306.5,-123.5"/>
<text xml:space="preserve" text-anchor="start" x="190.5" y="-110" font-family="Helvetica,sans-Serif" font-size="10.00">TArray&lt; T, InAllocator</text>
<text xml:space="preserve" text-anchor="middle" x="244.5" y="-97.25" font-family="Helvetica,sans-Serif" font-size="10.00"> &gt;::AddZeroed</text>
</a>
</g>
</g>
<!-- Node1&#45;&gt;Node2 -->
<g id="edge1_Node000001_Node000002" class="edge">
<title>Node1&#45;&gt;Node2</title>
<g id="a_edge1_Node000001_Node000002"><a xlink:title=" ">
<path fill="none" stroke="#63b8ff" d="M108.52,-72.53C127.29,-77.29 149.9,-83.02 171.2,-88.42"/>
<polygon fill="#63b8ff" stroke="#63b8ff" points="170.17,-91.77 180.73,-90.84 171.89,-84.99 170.17,-91.77"/>
</a>
</g>
</g>
<!-- Node3 -->
<g id="Node000003" class="node">
<title>Node3</title>
<g id="a_Node000003"><a xlink:href="$classTMRUArray.html#a06ae55394647bd4d3406223fd1408520" xlink:title=" ">
<polygon fill="white" stroke="#666666" points="305.38,-72.12 183.62,-72.12 183.62,-51.38 305.38,-51.38 305.38,-72.12"/>
<text xml:space="preserve" text-anchor="middle" x="244.5" y="-58.62" font-family="Helvetica,sans-Serif" font-size="10.00">TMRUArray::CullArray</text>
</a>
</g>
</g>
<!-- Node1&#45;&gt;Node3 -->
<g id="edge2_Node000001_Node000003" class="edge">
<title>Node1&#45;&gt;Node3</title>
<g id="a_edge2_Node000001_Node000003"><a xlink:title=" ">
<path fill="none" stroke="#63b8ff" d="M130.33,-61.75C143.82,-61.75 158.12,-61.75 171.86,-61.75"/>
<polygon fill="#63b8ff" stroke="#63b8ff" points="171.72,-65.25 181.72,-61.75 171.72,-58.25 171.72,-65.25"/>
</a>
</g>
</g>
<!-- Node6 -->
<g id="Node000006" class="node">
<title>Node6</title>
<g id="a_Node000006"><a xlink:href="$classTArray.html#ac73849db0ffbd8bb445f87ec29dd865d" xlink:title=" ">
<polygon fill="white" stroke="#666666" points="323,-33.5 166,-33.5 166,0 323,0 323,-33.5"/>
<text xml:space="preserve" text-anchor="start" x="174" y="-20" font-family="Helvetica,sans-Serif" font-size="10.00">TArray&lt; T, FDefaultAllocator</text>
<text xml:space="preserve" text-anchor="middle" x="244.5" y="-7.25" font-family="Helvetica,sans-Serif" font-size="10.00"> &gt;::Swap</text>
</a>
</g>
</g>
<!-- Node1&#45;&gt;Node6 -->
<g id="edge5_Node000001_Node000006" class="edge">
<title>Node1&#45;&gt;Node6</title>
<g id="a_edge5_Node000001_Node000006"><a xlink:title=" ">
<path fill="none" stroke="#63b8ff" d="M108.52,-50.97C125.4,-46.69 145.38,-41.63 164.72,-36.72"/>
<polygon fill="#63b8ff" stroke="#63b8ff" points="165.39,-40.16 174.22,-34.31 163.67,-33.38 165.39,-40.16"/>
</a>
</g>
</g>
<!-- Node4 -->
<g id="Node000004" class="node">
<title>Node4</title>
<g id="a_Node000004"><a xlink:href="$classTArray.html#aa9fe9ac518f83c21f0fa5592dec9536e" xlink:title=" ">
<polygon fill="white" stroke="#666666" points="516,-104.5 359,-104.5 359,-71 516,-71 516,-104.5"/>
<text xml:space="preserve" text-anchor="start" x="367" y="-91" font-family="Helvetica,sans-Serif" font-size="10.00">TArray&lt; T, FDefaultAllocator</text>
<text xml:space="preserve" text-anchor="middle" x="437.5" y="-78.25" font-family="Helvetica,sans-Serif" font-size="10.00"> &gt;::Num</text>
</a>
</g>
</g>
<!-- Node3&#45;&gt;Node4 -->
<g id="edge3_Node000003_Node000004" class="edge">
<title>Node3&#45;&gt;Node4</title>
<g id="a_edge3_Node000003_Node000004"><a xlink:title=" ">
<path fill="none" stroke="#63b8ff" d="M305.67,-69.94C318.96,-71.75 333.31,-73.7 347.47,-75.63"/>
<polygon fill="#63b8ff" stroke="#63b8ff" points="346.88,-79.08 357.26,-76.96 347.82,-72.15 346.88,-79.08"/>
</a>
</g>
</g>
<!-- Node5 -->
<g id="Node000005" class="node">
<title>Node5</title>
<g id="a_Node000005"><a xlink:href="$classTArray.html#a7209d84cfc369cd9c6d3930d01828a6a" xlink:title=" ">
<polygon fill="white" stroke="#666666" points="516,-52.5 359,-52.5 359,-19 516,-19 516,-52.5"/>
<text xml:space="preserve" text-anchor="start" x="367" y="-39" font-family="Helvetica,sans-Serif" font-size="10.00">TArray&lt; T, FDefaultAllocator</text>
<text xml:space="preserve" text-anchor="middle" x="437.5" y="-26.25" font-family="Helvetica,sans-Serif" font-size="10.00"> &gt;::RemoveAt</text>
</a>
</g>
</g>
<!-- Node3&#45;&gt;Node5 -->
<g id="edge4_Node000003_Node000005" class="edge">
<title>Node3&#45;&gt;Node5</title>
<g id="a_edge4_Node000003_Node000005"><a xlink:title=" ">
<path fill="none" stroke="#63b8ff" d="M305.67,-53.56C318.96,-51.75 333.31,-49.8 347.47,-47.87"/>
<polygon fill="#63b8ff" stroke="#63b8ff" points="347.82,-51.35 357.26,-46.54 346.88,-44.42 347.82,-51.35"/>
</a>
</g>
</g>
</g>
</svg>
