<?xml version="1.0" encoding="UTF-8" standalone="no"?>
<!DOCTYPE svg PUBLIC "-//W3C//DTD SVG 1.1//EN"
 "http://www.w3.org/Graphics/SVG/1.1/DTD/svg11.dtd">
<!-- Generated by graphviz version 14.1.4 (0)
 -->
<!-- Title: FText::Format Pages: 1 -->
<svg width="320pt" height="105pt"
 viewBox="0.00 0.00 320.00 105.00" xmlns="http://www.w3.org/2000/svg" xmlns:xlink="http://www.w3.org/1999/xlink">
<g id="graph0" class="graph" transform="scale(1 1) rotate(0) translate(4 100.75)">
<title>FText::Format</title>
<!-- Node1 -->
<g id="Node000001" class="node">
<title>Node1</title>
<g id="a_Node000001"><a xlink:title=" ">
<polygon fill="#999999" stroke="#666666" points="82.75,-58.75 0,-58.75 0,-38 82.75,-38 82.75,-58.75"/>
<text xml:space="preserve" text-anchor="middle" x="41.38" y="-45.25" font-family="Helvetica,sans-Serif" font-size="10.00">FText::Format</text>
</a>
</g>
</g>
<!-- Node2 -->
<g id="Node000002" class="node">
<title>Node2</title>
<g id="a_Node000002"><a xlink:href="$classFText.html#afe1d05aa19fd8ab54f611df4a0093eef" xlink:title=" ">
<polygon fill="white" stroke="#666666" points="201.5,-96.75 118.75,-96.75 118.75,-76 201.5,-76 201.5,-96.75"/>
<text xml:space="preserve" text-anchor="middle" x="160.12" y="-83.25" font-family="Helvetica,sans-Serif" font-size="10.00">FText::Format</text>
</a>
</g>
</g>
<!-- Node1&#45;&gt;Node2 -->
<g id="edge1_Node000001_Node000002" class="edge">
<title>Node1&#45;&gt;Node2</title>
<g id="a_edge1_Node000001_Node000002"><a xlink:title=" ">
<path fill="none" stroke="#63b8ff" d="M75.52,-59.16C87.84,-63.17 102.03,-67.79 115.17,-72.07"/>
<polygon fill="#63b8ff" stroke="#63b8ff" points="113.87,-75.33 124.46,-75.09 116.03,-68.67 113.87,-75.33"/>
</a>
</g>
</g>
<!-- Node3 -->
<g id="Node000003" class="node">
<title>Node3</title>
<g id="a_Node000003"><a xlink:href="$classFText.html#aab51beaa2304b367545a72756681d6c1" xlink:title=" ">
<polygon fill="white" stroke="#666666" points="312,-77.75 237.5,-77.75 237.5,-57 312,-57 312,-77.75"/>
<text xml:space="preserve" text-anchor="middle" x="274.75" y="-64.25" font-family="Helvetica,sans-Serif" font-size="10.00">FText::FText</text>
</a>
</g>
</g>
<!-- Node1&#45;&gt;Node3 -->
<g id="edge3_Node000001_Node000003" class="edge">
<title>Node1&#45;&gt;Node3</title>
<g id="a_edge3_Node000001_Node000003"><a xlink:title=" ">
<path fill="none" stroke="#63b8ff" d="M83.21,-51.73C123.05,-55 183.66,-59.98 225.78,-63.44"/>
<polygon fill="#63b8ff" stroke="#63b8ff" points="225.37,-66.91 235.63,-64.24 225.95,-59.94 225.37,-66.91"/>
</a>
</g>
</g>
<!-- Node4 -->
<g id="Node000004" class="node">
<title>Node4</title>
<g id="a_Node000004"><a xlink:href="$UnrealTemplate_8h.html#a6affb55ac4c80f005e72b931da3d3a55" xlink:title=" ">
<polygon fill="white" stroke="#666666" points="194.75,-20.75 125.5,-20.75 125.5,0 194.75,0 194.75,-20.75"/>
<text xml:space="preserve" text-anchor="middle" x="160.12" y="-7.25" font-family="Helvetica,sans-Serif" font-size="10.00">MoveTemp</text>
</a>
</g>
</g>
<!-- Node1&#45;&gt;Node4 -->
<g id="edge4_Node000001_Node000004" class="edge">
<title>Node1&#45;&gt;Node4</title>
<g id="a_edge4_Node000001_Node000004"><a xlink:title=" ">
<path fill="none" stroke="#63b8ff" d="M75.52,-37.59C87.84,-33.58 102.03,-28.96 115.17,-24.68"/>
<polygon fill="#63b8ff" stroke="#63b8ff" points="116.03,-28.08 124.46,-21.66 113.87,-21.42 116.03,-28.08"/>
</a>
</g>
</g>
<!-- Node2&#45;&gt;Node3 -->
<g id="edge2_Node000002_Node000003" class="edge">
<title>Node2&#45;&gt;Node3</title>
<g id="a_edge2_Node000002_Node000003"><a xlink:title=" ">
<path fill="none" stroke="#63b8ff" d="M201.79,-79.52C209.67,-78.19 217.99,-76.78 226.07,-75.42"/>
<polygon fill="#63b8ff" stroke="#63b8ff" points="226.49,-78.9 235.77,-73.78 225.33,-71.99 226.49,-78.9"/>
</a>
</g>
</g>
</g>
</svg>
