<?xml version="1.0" encoding="UTF-8" standalone="no"?>
<!DOCTYPE svg PUBLIC "-//W3C//DTD SVG 1.1//EN"
 "http://www.w3.org/Graphics/SVG/1.1/DTD/svg11.dtd">
<!-- Generated by graphviz version 14.1.4 (0)
 -->
<!-- Title: UParticleModuleLocationEmitter Pages: 1 -->
<svg width="174pt" height="878pt"
 viewBox="0.00 0.00 174.00 878.00" xmlns="http://www.w3.org/2000/svg" xmlns:xlink="http://www.w3.org/1999/xlink">
<g id="graph0" class="graph" transform="scale(1 1) rotate(0) translate(4 873.75)">
<title>UParticleModuleLocationEmitter</title>
<!-- Node1 -->
<g id="Node000001" class="node">
<title>Node1</title>
<g id="a_Node000001"><a xlink:title=" ">
<polygon fill="#999999" stroke="none" points="165.5,-154.75 0,-154.75 0,0 165.5,0 165.5,-154.75"/>
<text xml:space="preserve" text-anchor="start" x="4" y="-141" font-family="Helvetica,sans-Serif" font-size="10.00">UParticleModuleLocationEmitter</text>
<text xml:space="preserve" text-anchor="start" x="7.5" y="-124.25" font-family="Helvetica,sans-Serif" font-size="10.00">&#45;</text>
<text xml:space="preserve" text-anchor="start" x="18.75" y="-124.25" font-family="Helvetica,sans-Serif" font-size="10.00">EmitterName</text>
<text xml:space="preserve" text-anchor="start" x="7.5" y="-107.5" font-family="Helvetica,sans-Serif" font-size="10.00">&#45;</text>
<text xml:space="preserve" text-anchor="start" x="18.75" y="-107.5" font-family="Helvetica,sans-Serif" font-size="10.00">SelectionMethod</text>
<text xml:space="preserve" text-anchor="start" x="7.5" y="-90.75" font-family="Helvetica,sans-Serif" font-size="10.00">&#45;</text>
<text xml:space="preserve" text-anchor="start" x="18.75" y="-90.75" font-family="Helvetica,sans-Serif" font-size="10.00">InheritSourceVelocity</text>
<text xml:space="preserve" text-anchor="start" x="7.5" y="-74" font-family="Helvetica,sans-Serif" font-size="10.00">&#45;</text>
<text xml:space="preserve" text-anchor="start" x="18.75" y="-74" font-family="Helvetica,sans-Serif" font-size="10.00">InheritSourceVelocityScale</text>
<text xml:space="preserve" text-anchor="start" x="7.5" y="-57.25" font-family="Helvetica,sans-Serif" font-size="10.00">&#45;</text>
<text xml:space="preserve" text-anchor="start" x="18.75" y="-57.25" font-family="Helvetica,sans-Serif" font-size="10.00">bInheritSourceRotation</text>
<text xml:space="preserve" text-anchor="start" x="7.5" y="-40.5" font-family="Helvetica,sans-Serif" font-size="10.00">&#45;</text>
<text xml:space="preserve" text-anchor="start" x="18.75" y="-40.5" font-family="Helvetica,sans-Serif" font-size="10.00">InheritSourceRotationScale</text>
<text xml:space="preserve" text-anchor="start" x="7.5" y="-23.75" font-family="Helvetica,sans-Serif" font-size="10.00">&#45;</text>
<text xml:space="preserve" text-anchor="start" x="18.75" y="-23.75" font-family="Helvetica,sans-Serif" font-size="10.00">Spawn()</text>
<text xml:space="preserve" text-anchor="start" x="7.5" y="-7" font-family="Helvetica,sans-Serif" font-size="10.00">&#45;</text>
<text xml:space="preserve" text-anchor="start" x="18.75" y="-7" font-family="Helvetica,sans-Serif" font-size="10.00">RequiredBytesPerInstance()</text>
<polygon fill="#666666" stroke="#666666" points="0,-136 0,-136 165.5,-136 165.5,-136 0,-136"/>
<polygon fill="#666666" stroke="#666666" points="0,-35.5 0,-35.5 16.75,-35.5 16.75,-35.5 0,-35.5"/>
<polygon fill="#666666" stroke="#666666" points="16.75,-35.5 16.75,-35.5 165.5,-35.5 165.5,-35.5 16.75,-35.5"/>
<polygon fill="none" stroke="#666666" points="0,0 0,-154.75 165.5,-154.75 165.5,0 0,0"/>
</a>
</g>
</g>
<!-- Node2 -->
<g id="Node000002" class="node">
<title>Node2</title>
<g id="a_Node000002"><a xlink:href="classUParticleModuleLocationBase.html" target="_top" xlink:title=" ">
<polygon fill="white" stroke="none" points="159.5,-245 6,-245 6,-190.75 159.5,-190.75 159.5,-245"/>
<text xml:space="preserve" text-anchor="start" x="10" y="-231.25" font-family="Helvetica,sans-Serif" font-size="10.00">UParticleModuleLocationBase</text>
<text xml:space="preserve" text-anchor="start" x="79.75" y="-214.5" font-family="Helvetica,sans-Serif" font-size="10.00"> </text>
<text xml:space="preserve" text-anchor="start" x="79.75" y="-197.75" font-family="Helvetica,sans-Serif" font-size="10.00"> </text>
<polygon fill="#666666" stroke="#666666" points="6,-226.25 6,-226.25 159.5,-226.25 159.5,-226.25 6,-226.25"/>
<polygon fill="#666666" stroke="#666666" points="6,-209.5 6,-209.5 159.5,-209.5 159.5,-209.5 6,-209.5"/>
<polygon fill="none" stroke="#666666" points="6,-190.75 6,-245 159.5,-245 159.5,-190.75 6,-190.75"/>
</a>
</g>
</g>
<!-- Node2&#45;&gt;Node1 -->
<g id="edge1_Node000001_Node000002" class="edge">
<title>Node2&#45;&gt;Node1</title>
<g id="a_edge1_Node000001_Node000002"><a xlink:title=" ">
<path fill="none" stroke="#63b8ff" d="M82.75,-179.57C82.75,-171.75 82.75,-163.24 82.75,-154.58"/>
<polygon fill="none" stroke="#63b8ff" points="79.25,-179.31 82.75,-189.31 86.25,-179.31 79.25,-179.31"/>
</a>
</g>
</g>
<!-- Node3 -->
<g id="Node000003" class="node">
<title>Node3</title>
<g id="a_Node000003"><a xlink:href="classUParticleModule.html" target="_top" xlink:title=" ">
<polygon fill="white" stroke="none" points="163.75,-779.5 1.75,-779.5 1.75,-281 163.75,-281 163.75,-779.5"/>
<text xml:space="preserve" text-anchor="start" x="42.62" y="-765.75" font-family="Helvetica,sans-Serif" font-size="10.00">UParticleModule</text>
<text xml:space="preserve" text-anchor="start" x="5.75" y="-749" font-family="Helvetica,sans-Serif" font-size="10.00">&#45;</text>
<text xml:space="preserve" text-anchor="start" x="13.5" y="-749" font-family="Helvetica,sans-Serif" font-size="10.00">bSpawnModule</text>
<text xml:space="preserve" text-anchor="start" x="5.75" y="-732.25" font-family="Helvetica,sans-Serif" font-size="10.00">&#45;</text>
<text xml:space="preserve" text-anchor="start" x="13.5" y="-732.25" font-family="Helvetica,sans-Serif" font-size="10.00">bUpdateModule</text>
<text xml:space="preserve" text-anchor="start" x="5.75" y="-715.5" font-family="Helvetica,sans-Serif" font-size="10.00">&#45;</text>
<text xml:space="preserve" text-anchor="start" x="13.5" y="-715.5" font-family="Helvetica,sans-Serif" font-size="10.00">bFinalUpdateModule</text>
<text xml:space="preserve" text-anchor="start" x="5.75" y="-698.75" font-family="Helvetica,sans-Serif" font-size="10.00">&#45;</text>
<text xml:space="preserve" text-anchor="start" x="13.5" y="-698.75" font-family="Helvetica,sans-Serif" font-size="10.00">bUpdateForGPUEmitter</text>
<text xml:space="preserve" text-anchor="start" x="5.75" y="-682" font-family="Helvetica,sans-Serif" font-size="10.00">&#45;</text>
<text xml:space="preserve" text-anchor="start" x="13.5" y="-682" font-family="Helvetica,sans-Serif" font-size="10.00">bCurvesAsColor</text>
<text xml:space="preserve" text-anchor="start" x="5.75" y="-665.25" font-family="Helvetica,sans-Serif" font-size="10.00">&#45;</text>
<text xml:space="preserve" text-anchor="start" x="13.5" y="-665.25" font-family="Helvetica,sans-Serif" font-size="10.00">b3DDrawMode</text>
<text xml:space="preserve" text-anchor="start" x="5.75" y="-648.5" font-family="Helvetica,sans-Serif" font-size="10.00">&#45;</text>
<text xml:space="preserve" text-anchor="start" x="13.5" y="-648.5" font-family="Helvetica,sans-Serif" font-size="10.00">bSupported3DDrawMode</text>
<text xml:space="preserve" text-anchor="start" x="5.75" y="-631.75" font-family="Helvetica,sans-Serif" font-size="10.00">&#45;</text>
<text xml:space="preserve" text-anchor="start" x="13.5" y="-631.75" font-family="Helvetica,sans-Serif" font-size="10.00">bEnabled</text>
<text xml:space="preserve" text-anchor="start" x="5.75" y="-615" font-family="Helvetica,sans-Serif" font-size="10.00">&#45;</text>
<text xml:space="preserve" text-anchor="start" x="13.5" y="-615" font-family="Helvetica,sans-Serif" font-size="10.00">bEditable</text>
<text xml:space="preserve" text-anchor="start" x="5.75" y="-598.25" font-family="Helvetica,sans-Serif" font-size="10.00">&#45;</text>
<text xml:space="preserve" text-anchor="start" x="13.5" y="-598.25" font-family="Helvetica,sans-Serif" font-size="10.00">LODDuplicate</text>
<text xml:space="preserve" text-anchor="start" x="5.75" y="-581.5" font-family="Helvetica,sans-Serif" font-size="10.00">&#45;</text>
<text xml:space="preserve" text-anchor="start" x="13.5" y="-581.5" font-family="Helvetica,sans-Serif" font-size="10.00">bSupportsRandomSeed</text>
<text xml:space="preserve" text-anchor="start" x="5.75" y="-564.75" font-family="Helvetica,sans-Serif" font-size="10.00">&#45;</text>
<text xml:space="preserve" text-anchor="start" x="13.5" y="-564.75" font-family="Helvetica,sans-Serif" font-size="10.00">bRequiresLoopingNotification</text>
<text xml:space="preserve" text-anchor="start" x="5.75" y="-548" font-family="Helvetica,sans-Serif" font-size="10.00">&#45;</text>
<text xml:space="preserve" text-anchor="start" x="13.5" y="-548" font-family="Helvetica,sans-Serif" font-size="10.00">LODValidity</text>
<text xml:space="preserve" text-anchor="start" x="5.75" y="-531.25" font-family="Helvetica,sans-Serif" font-size="10.00">&#45;</text>
<text xml:space="preserve" text-anchor="start" x="13.5" y="-531.25" font-family="Helvetica,sans-Serif" font-size="10.00">IsPostLoadThreadSafe()</text>
<text xml:space="preserve" text-anchor="start" x="5.75" y="-514.5" font-family="Helvetica,sans-Serif" font-size="10.00">&#45;</text>
<text xml:space="preserve" text-anchor="start" x="13.5" y="-514.5" font-family="Helvetica,sans-Serif" font-size="10.00">PostEditChangeProperty()</text>
<text xml:space="preserve" text-anchor="start" x="5.75" y="-497.75" font-family="Helvetica,sans-Serif" font-size="10.00">&#45;</text>
<text xml:space="preserve" text-anchor="start" x="13.5" y="-497.75" font-family="Helvetica,sans-Serif" font-size="10.00">CompileModule()</text>
<text xml:space="preserve" text-anchor="start" x="5.75" y="-481" font-family="Helvetica,sans-Serif" font-size="10.00">&#45;</text>
<text xml:space="preserve" text-anchor="start" x="13.5" y="-481" font-family="Helvetica,sans-Serif" font-size="10.00">Spawn()</text>
<text xml:space="preserve" text-anchor="start" x="5.75" y="-464.25" font-family="Helvetica,sans-Serif" font-size="10.00">&#45;</text>
<text xml:space="preserve" text-anchor="start" x="13.5" y="-464.25" font-family="Helvetica,sans-Serif" font-size="10.00">Update()</text>
<text xml:space="preserve" text-anchor="start" x="5.75" y="-447.5" font-family="Helvetica,sans-Serif" font-size="10.00">&#45;</text>
<text xml:space="preserve" text-anchor="start" x="13.5" y="-447.5" font-family="Helvetica,sans-Serif" font-size="10.00">FinalUpdate()</text>
<text xml:space="preserve" text-anchor="start" x="5.75" y="-430.75" font-family="Helvetica,sans-Serif" font-size="10.00">&#45;</text>
<text xml:space="preserve" text-anchor="start" x="13.5" y="-430.75" font-family="Helvetica,sans-Serif" font-size="10.00">RequiredBytes()</text>
<text xml:space="preserve" text-anchor="start" x="5.75" y="-414" font-family="Helvetica,sans-Serif" font-size="10.00">&#45;</text>
<text xml:space="preserve" text-anchor="start" x="13.5" y="-414" font-family="Helvetica,sans-Serif" font-size="10.00">RequiredBytesPerInstance()</text>
<text xml:space="preserve" text-anchor="start" x="5.75" y="-397.25" font-family="Helvetica,sans-Serif" font-size="10.00">&#45;</text>
<text xml:space="preserve" text-anchor="start" x="13.5" y="-397.25" font-family="Helvetica,sans-Serif" font-size="10.00">PrepPerInstanceBlock()</text>
<text xml:space="preserve" text-anchor="start" x="5.75" y="-380.5" font-family="Helvetica,sans-Serif" font-size="10.00">&#45;</text>
<text xml:space="preserve" text-anchor="start" x="13.5" y="-380.5" font-family="Helvetica,sans-Serif" font-size="10.00">SetToSensibleDefaults()</text>
<text xml:space="preserve" text-anchor="start" x="13.5" y="-363.75" font-family="Helvetica,sans-Serif" font-size="10.00">and 35 more...</text>
<text xml:space="preserve" text-anchor="start" x="5.75" y="-347" font-family="Helvetica,sans-Serif" font-size="10.00">&#45;</text>
<text xml:space="preserve" text-anchor="start" x="13.5" y="-347" font-family="Helvetica,sans-Serif" font-size="10.00">GetDistributionsRestricted</text>
<text xml:space="preserve" text-anchor="start" x="13.5" y="-334.25" font-family="Helvetica,sans-Serif" font-size="10.00">OnGPU()</text>
<text xml:space="preserve" text-anchor="start" x="5.75" y="-317.5" font-family="Helvetica,sans-Serif" font-size="10.00">&#45;</text>
<text xml:space="preserve" text-anchor="start" x="13.5" y="-317.5" font-family="Helvetica,sans-Serif" font-size="10.00">IsDistributionAllowedOnGPU()</text>
<text xml:space="preserve" text-anchor="start" x="5.75" y="-300.75" font-family="Helvetica,sans-Serif" font-size="10.00">&#45;</text>
<text xml:space="preserve" text-anchor="start" x="13.5" y="-300.75" font-family="Helvetica,sans-Serif" font-size="10.00">GetDistributionNotAllowed</text>
<text xml:space="preserve" text-anchor="start" x="13.5" y="-288" font-family="Helvetica,sans-Serif" font-size="10.00">OnGPUText()</text>
<polygon fill="#666666" stroke="#666666" points="1.75,-760.75 1.75,-760.75 163.75,-760.75 163.75,-760.75 1.75,-760.75"/>
<polygon fill="#666666" stroke="#666666" points="1.75,-543 1.75,-543 11.5,-543 11.5,-543 1.75,-543"/>
<polygon fill="#666666" stroke="#666666" points="11.5,-543 11.5,-543 163.75,-543 163.75,-543 11.5,-543"/>
<polygon fill="none" stroke="#666666" points="1.75,-281 1.75,-779.5 163.75,-779.5 163.75,-281 1.75,-281"/>
</a>
</g>
</g>
<!-- Node3&#45;&gt;Node2 -->
<g id="edge2_Node000002_Node000003" class="edge">
<title>Node3&#45;&gt;Node2</title>
<g id="a_edge2_Node000002_Node000003"><a xlink:title=" ">
<path fill="none" stroke="#63b8ff" d="M82.75,-269.86C82.75,-260.47 82.75,-252.02 82.75,-244.82"/>
<polygon fill="none" stroke="#63b8ff" points="79.25,-269.8 82.75,-279.8 86.25,-269.8 79.25,-269.8"/>
</a>
</g>
</g>
<!-- Node4 -->
<g id="Node000004" class="node">
<title>Node4</title>
<g id="a_Node000004"><a xlink:title=" ">
<polygon fill="white" stroke="none" points="106.25,-869.75 59.25,-869.75 59.25,-815.5 106.25,-815.5 106.25,-869.75"/>
<text xml:space="preserve" text-anchor="start" x="63.25" y="-856" font-family="Helvetica,sans-Serif" font-size="10.00">UObject</text>
<text xml:space="preserve" text-anchor="start" x="79.75" y="-839.25" font-family="Helvetica,sans-Serif" font-size="10.00"> </text>
<text xml:space="preserve" text-anchor="start" x="79.75" y="-822.5" font-family="Helvetica,sans-Serif" font-size="10.00"> </text>
<polygon fill="#666666" stroke="#666666" points="59.25,-851 59.25,-851 106.25,-851 106.25,-851 59.25,-851"/>
<polygon fill="#666666" stroke="#666666" points="59.25,-834.25 59.25,-834.25 106.25,-834.25 106.25,-834.25 59.25,-834.25"/>
<polygon fill="none" stroke="#666666" points="59.25,-815.5 59.25,-869.75 106.25,-869.75 106.25,-815.5 59.25,-815.5"/>
</a>
</g>
</g>
<!-- Node4&#45;&gt;Node3 -->
<g id="edge3_Node000003_Node000004" class="edge">
<title>Node4&#45;&gt;Node3</title>
<g id="a_edge3_Node000003_Node000004"><a xlink:title=" ">
<path fill="none" stroke="#63b8ff" d="M82.75,-804.31C82.75,-796.8 82.75,-788.39 82.75,-779.32"/>
<polygon fill="none" stroke="#63b8ff" points="79.25,-804.18 82.75,-814.18 86.25,-804.18 79.25,-804.18"/>
</a>
</g>
</g>
</g>
</svg>
