<?xml version="1.0" encoding="UTF-8" standalone="no"?>
<!DOCTYPE svg PUBLIC "-//W3C//DTD SVG 1.1//EN"
 "http://www.w3.org/Graphics/SVG/1.1/DTD/svg11.dtd">
<!-- Generated by graphviz version 14.1.4 (0)
 -->
<!-- Title: ATowerPlayerStronghold::TakeDamage Pages: 1 -->
<svg width="315pt" height="60pt"
 viewBox="0.00 0.00 315.00 60.00" xmlns="http://www.w3.org/2000/svg" xmlns:xlink="http://www.w3.org/1999/xlink">
<g id="graph0" class="graph" transform="scale(1 1) rotate(0) translate(4 55.5)">
<title>ATowerPlayerStronghold::TakeDamage</title>
<!-- Node1 -->
<g id="Node000001" class="node">
<title>Node1</title>
<g id="a_Node000001"><a xlink:title=" ">
<polygon fill="#999999" stroke="#666666" points="133.75,-33.5 0,-33.5 0,0 133.75,0 133.75,-33.5"/>
<text xml:space="preserve" text-anchor="start" x="8" y="-20" font-family="Helvetica,sans-Serif" font-size="10.00">ATowerPlayerStronghold</text>
<text xml:space="preserve" text-anchor="middle" x="66.88" y="-7.25" font-family="Helvetica,sans-Serif" font-size="10.00">::TakeDamage</text>
</a>
</g>
</g>
<!-- Node2 -->
<g id="Node000002" class="node">
<title>Node2</title>
<g id="a_Node000002"><a xlink:href="classATowerPlayerStronghold.html#aa8d1d49d753f8388a83aff73226d49a4" target="_top" xlink:title="This function is called after health has been deducted to play any sort of cues to indicate stronghol...">
<polygon fill="white" stroke="#666666" points="306.5,-33.5 169.75,-33.5 169.75,0 306.5,0 306.5,-33.5"/>
<text xml:space="preserve" text-anchor="start" x="177.75" y="-20" font-family="Helvetica,sans-Serif" font-size="10.00">ATowerPlayerStronghold</text>
<text xml:space="preserve" text-anchor="middle" x="238.12" y="-7.25" font-family="Helvetica,sans-Serif" font-size="10.00">::PostTakeDamageAction</text>
</a>
</g>
</g>
<!-- Node1&#45;&gt;Node2 -->
<g id="edge1_Node000001_Node000002" class="edge">
<title>Node1&#45;&gt;Node2</title>
<g id="a_edge1_Node000001_Node000002"><a xlink:title=" ">
<path fill="none" stroke="#63b8ff" d="M133.8,-16.75C141.75,-16.75 149.93,-16.75 158.04,-16.75"/>
<polygon fill="#63b8ff" stroke="#63b8ff" points="157.92,-20.25 167.92,-16.75 157.92,-13.25 157.92,-20.25"/>
</a>
</g>
</g>
<!-- Node2&#45;&gt;Node2 -->
<g id="edge2_Node000002_Node000002" class="edge">
<title>Node2&#45;&gt;Node2</title>
<g id="a_edge2_Node000002_Node000002"><a xlink:title=" ">
<path fill="none" stroke="#63b8ff" d="M207.34,-33.91C202.11,-43.12 212.37,-51.5 238.12,-51.5 252.61,-51.5 262.2,-48.85 266.88,-44.89"/>
<polygon fill="#63b8ff" stroke="#63b8ff" points="270.26,-45.87 268.63,-35.4 263.37,-44.6 270.26,-45.87"/>
</a>
</g>
</g>
</g>
</svg>
