<?xml version="1.0" encoding="UTF-8" standalone="no"?>
<!DOCTYPE svg PUBLIC "-//W3C//DTD SVG 1.1//EN"
 "http://www.w3.org/Graphics/SVG/1.1/DTD/svg11.dtd">
<!-- Generated by graphviz version 14.1.4 (0)
 -->
<!-- Title: UPoseAsset::GetPoseNames Pages: 1 -->
<svg width="354pt" height="47pt"
 viewBox="0.00 0.00 354.00 47.00" xmlns="http://www.w3.org/2000/svg" xmlns:xlink="http://www.w3.org/1999/xlink">
<g id="graph0" class="graph" transform="scale(1 1) rotate(0) translate(4 42.75)">
<title>UPoseAsset::GetPoseNames</title>
<!-- Node1 -->
<g id="Node000001" class="node">
<title>Node1</title>
<g id="a_Node000001"><a xlink:title=" ">
<polygon fill="#999999" stroke="#666666" points="154.75,-20.75 0,-20.75 0,0 154.75,0 154.75,-20.75"/>
<text xml:space="preserve" text-anchor="middle" x="77.38" y="-7.25" font-family="Helvetica,sans-Serif" font-size="10.00">UPoseAsset::GetPoseNames</text>
</a>
</g>
</g>
<!-- Node2 -->
<g id="Node000002" class="node">
<title>Node2</title>
<g id="a_Node000002"><a xlink:href="classUPoseAsset.html#a52578701f0be86e397c449012ed2fdf4" target="_top" xlink:title=" ">
<polygon fill="white" stroke="#666666" points="345.5,-20.75 190.75,-20.75 190.75,0 345.5,0 345.5,-20.75"/>
<text xml:space="preserve" text-anchor="middle" x="268.12" y="-7.25" font-family="Helvetica,sans-Serif" font-size="10.00">UPoseAsset::GetPoseNames</text>
</a>
</g>
</g>
<!-- Node1&#45;&gt;Node2 -->
<g id="edge1_Node000001_Node000002" class="edge">
<title>Node1&#45;&gt;Node2</title>
<g id="a_edge1_Node000001_Node000002"><a xlink:title=" ">
<path fill="none" stroke="#63b8ff" d="M155.15,-10.38C163.06,-10.38 171.13,-10.38 179.15,-10.38"/>
<polygon fill="#63b8ff" stroke="#63b8ff" points="178.91,-13.88 188.91,-10.38 178.91,-6.88 178.91,-13.88"/>
</a>
</g>
</g>
<!-- Node2&#45;&gt;Node2 -->
<g id="edge2_Node000002_Node000002" class="edge">
<title>Node2&#45;&gt;Node2</title>
<g id="a_edge2_Node000002_Node000002"><a xlink:title=" ">
<path fill="none" stroke="#63b8ff" d="M237.39,-21.15C225.09,-29.81 235.34,-38.75 268.12,-38.75 286.05,-38.75 297.24,-36.08 301.69,-32.24"/>
<polygon fill="#63b8ff" stroke="#63b8ff" points="305.1,-31.44 299.24,-22.61 298.32,-33.17 305.1,-31.44"/>
</a>
</g>
</g>
</g>
</svg>
