<?xml version="1.0" encoding="UTF-8" standalone="no"?>
<!DOCTYPE svg PUBLIC "-//W3C//DTD SVG 1.1//EN"
 "http://www.w3.org/Graphics/SVG/1.1/DTD/svg11.dtd">
<!-- Generated by graphviz version 14.1.4 (0)
 -->
<!-- Title: FAutomationSpecBase::FAsyncLatentCommand::FAsyncLatentCommand Pages: 1 -->
<svg width="679pt" height="102pt"
 viewBox="0.00 0.00 679.00 102.00" xmlns="http://www.w3.org/2000/svg" xmlns:xlink="http://www.w3.org/1999/xlink">
<g id="graph0" class="graph" transform="scale(1 1) rotate(0) translate(4 98.12)">
<title>FAutomationSpecBase::FAsyncLatentCommand::FAsyncLatentCommand</title>
<!-- Node1 -->
<g id="Node000001" class="node">
<title>Node1</title>
<g id="a_Node000001"><a xlink:title=" ">
<polygon fill="#999999" stroke="#666666" points="137.5,-55.5 0,-55.5 0,-9.25 137.5,-9.25 137.5,-55.5"/>
<text xml:space="preserve" text-anchor="start" x="8" y="-42" font-family="Helvetica,sans-Serif" font-size="10.00">FAutomationSpecBase</text>
<text xml:space="preserve" text-anchor="start" x="8" y="-29.25" font-family="Helvetica,sans-Serif" font-size="10.00">::FAsyncLatentCommand</text>
<text xml:space="preserve" text-anchor="middle" x="68.75" y="-16.5" font-family="Helvetica,sans-Serif" font-size="10.00">::FAsyncLatentCommand</text>
</a>
</g>
</g>
<!-- Node2 -->
<g id="Node000002" class="node">
<title>Node2</title>
<g id="a_Node000002"><a xlink:href="$classFAutomationSpecBase.html#a6cb8f77e5b5b8673cefb6f9b42303d6d" xlink:title=" ">
<polygon fill="white" stroke="#666666" points="305,-72.12 173.5,-72.12 173.5,-38.62 305,-38.62 305,-72.12"/>
<text xml:space="preserve" text-anchor="start" x="181.5" y="-58.62" font-family="Helvetica,sans-Serif" font-size="10.00">FAutomationSpecBase</text>
<text xml:space="preserve" text-anchor="middle" x="239.25" y="-45.88" font-family="Helvetica,sans-Serif" font-size="10.00">::FAutomationSpecBase</text>
</a>
</g>
</g>
<!-- Node1&#45;&gt;Node2 -->
<g id="edge1_Node000001_Node000002" class="edge">
<title>Node1&#45;&gt;Node2</title>
<g id="a_edge1_Node000001_Node000002"><a xlink:title=" ">
<path fill="none" stroke="#63b8ff" d="M137.8,-41.66C145.75,-42.75 153.89,-43.86 161.94,-44.96"/>
<polygon fill="#63b8ff" stroke="#63b8ff" points="161.34,-48.41 171.72,-46.29 162.29,-41.47 161.34,-48.41"/>
</a>
</g>
</g>
<!-- Node6 -->
<g id="Node000006" class="node">
<title>Node6</title>
<g id="a_Node000006"><a xlink:href="$UnrealTemplate_8h.html#a6affb55ac4c80f005e72b931da3d3a55" xlink:title=" ">
<polygon fill="white" stroke="#666666" points="273.88,-20.75 204.62,-20.75 204.62,0 273.88,0 273.88,-20.75"/>
<text xml:space="preserve" text-anchor="middle" x="239.25" y="-7.25" font-family="Helvetica,sans-Serif" font-size="10.00">MoveTemp</text>
</a>
</g>
</g>
<!-- Node1&#45;&gt;Node6 -->
<g id="edge5_Node000001_Node000006" class="edge">
<title>Node1&#45;&gt;Node6</title>
<g id="a_edge5_Node000001_Node000006"><a xlink:title=" ">
<path fill="none" stroke="#63b8ff" d="M137.8,-23.49C156.35,-21.07 175.99,-18.5 192.94,-16.29"/>
<polygon fill="#63b8ff" stroke="#63b8ff" points="193.23,-19.78 202.7,-15.02 192.33,-12.84 193.23,-19.78"/>
</a>
</g>
</g>
<!-- Node3 -->
<g id="Node000003" class="node">
<title>Node3</title>
<g id="a_Node000003"><a xlink:href="$classFAutomationTestBase.html#add74e6564642aacf42f00123fe32ecd2" xlink:title=" ">
<polygon fill="white" stroke="#666666" points="468.75,-94.12 341,-94.12 341,-60.62 468.75,-60.62 468.75,-94.12"/>
<text xml:space="preserve" text-anchor="start" x="349" y="-80.62" font-family="Helvetica,sans-Serif" font-size="10.00">FAutomationTestBase</text>
<text xml:space="preserve" text-anchor="middle" x="404.88" y="-67.88" font-family="Helvetica,sans-Serif" font-size="10.00">::FAutomationTestBase</text>
</a>
</g>
</g>
<!-- Node2&#45;&gt;Node3 -->
<g id="edge2_Node000002_Node000003" class="edge">
<title>Node2&#45;&gt;Node3</title>
<g id="a_edge2_Node000002_Node000003"><a xlink:title=" ">
<path fill="none" stroke="#63b8ff" d="M305.39,-64.13C313.26,-65.19 321.35,-66.28 329.35,-67.35"/>
<polygon fill="#63b8ff" stroke="#63b8ff" points="328.68,-70.8 339.06,-68.66 329.62,-63.86 328.68,-70.8"/>
</a>
</g>
</g>
<!-- Node4 -->
<g id="Node000004" class="node">
<title>Node4</title>
<g id="a_Node000004"><a xlink:href="$SharedPointer_8h.html#a3c724550c96871a21f9d4db8c4a80ce9" xlink:title=" ">
<polygon fill="white" stroke="#666666" points="450.38,-42.75 359.38,-42.75 359.38,-22 450.38,-22 450.38,-42.75"/>
<text xml:space="preserve" text-anchor="middle" x="404.88" y="-29.25" font-family="Helvetica,sans-Serif" font-size="10.00">MakeShareable</text>
</a>
</g>
</g>
<!-- Node2&#45;&gt;Node4 -->
<g id="edge3_Node000002_Node000004" class="edge">
<title>Node2&#45;&gt;Node4</title>
<g id="a_edge3_Node000002_Node000004"><a xlink:title=" ">
<path fill="none" stroke="#63b8ff" d="M305.39,-46.22C319.45,-44.24 334.2,-42.17 347.88,-40.25"/>
<polygon fill="#63b8ff" stroke="#63b8ff" points="348.17,-43.74 357.58,-38.88 347.19,-36.81 348.17,-43.74"/>
</a>
</g>
</g>
<!-- Node5 -->
<g id="Node000005" class="node">
<title>Node5</title>
<g id="a_Node000005"><a xlink:href="$SharedPointerInternals_8h.html#a814775cee105cc074718875745ffc188" xlink:title=" ">
<polygon fill="white" stroke="#666666" points="670.75,-42.75 504.75,-42.75 504.75,-22 670.75,-22 670.75,-42.75"/>
<text xml:space="preserve" text-anchor="middle" x="587.75" y="-29.25" font-family="Helvetica,sans-Serif" font-size="10.00">IsDerivedFromSharedFromThis</text>
</a>
</g>
</g>
<!-- Node4&#45;&gt;Node5 -->
<g id="edge4_Node000004_Node000005" class="edge">
<title>Node4&#45;&gt;Node5</title>
<g id="a_edge4_Node000004_Node000005"><a xlink:title=" ">
<path fill="none" stroke="#63b8ff" d="M450.59,-32.38C463.59,-32.38 478.31,-32.38 493.14,-32.38"/>
<polygon fill="#63b8ff" stroke="#63b8ff" points="492.96,-35.88 502.96,-32.38 492.96,-28.88 492.96,-35.88"/>
</a>
</g>
</g>
</g>
</svg>
