<?xml version="1.0" encoding="UTF-8" standalone="no"?>
<!DOCTYPE svg PUBLIC "-//W3C//DTD SVG 1.1//EN"
 "http://www.w3.org/Graphics/SVG/1.1/DTD/svg11.dtd">
<!-- Generated by graphviz version 14.1.4 (0)
 -->
<!-- Title: FStaticallyLinkedModuleRegistrant&lt; ModuleClass &gt; Pages: 1 -->
<svg width="205pt" height="92pt"
 viewBox="0.00 0.00 205.00 92.00" xmlns="http://www.w3.org/2000/svg" xmlns:xlink="http://www.w3.org/1999/xlink">
<g id="graph0" class="graph" transform="scale(1 1) rotate(0) translate(4 87.75)">
<title>FStaticallyLinkedModuleRegistrant&lt; ModuleClass &gt;</title>
<!-- Node1 -->
<g id="Node000001" class="node">
<title>Node1</title>
<g id="a_Node000001"><a xlink:title=" ">
<polygon fill="#999999" stroke="none" points="197.25,-83.75 0,-83.75 0,0 197.25,0 197.25,-83.75"/>
<text xml:space="preserve" text-anchor="start" x="13.88" y="-70" font-family="Helvetica,sans-Serif" font-size="10.00">FStaticallyLinkedModuleRegistrant</text>
<text xml:space="preserve" text-anchor="start" x="56.25" y="-57.25" font-family="Helvetica,sans-Serif" font-size="10.00">&lt; ModuleClass &gt;</text>
<text xml:space="preserve" text-anchor="start" x="95.62" y="-40.5" font-family="Helvetica,sans-Serif" font-size="10.00"> </text>
<text xml:space="preserve" text-anchor="start" x="4" y="-23.75" font-family="Helvetica,sans-Serif" font-size="10.00">+</text>
<text xml:space="preserve" text-anchor="start" x="16.25" y="-23.75" font-family="Helvetica,sans-Serif" font-size="10.00">FStaticallyLinkedModuleRegistrant()</text>
<text xml:space="preserve" text-anchor="start" x="4" y="-7" font-family="Helvetica,sans-Serif" font-size="10.00">+</text>
<text xml:space="preserve" text-anchor="start" x="16.25" y="-7" font-family="Helvetica,sans-Serif" font-size="10.00">InitializeModule()</text>
<polygon fill="#666666" stroke="#666666" points="0,-52.25 0,-52.25 197.25,-52.25 197.25,-52.25 0,-52.25"/>
<polygon fill="#666666" stroke="#666666" points="0,-35.5 0,-35.5 197.25,-35.5 197.25,-35.5 0,-35.5"/>
<polygon fill="none" stroke="#666666" points="0,0 0,-83.75 197.25,-83.75 197.25,0 0,0"/>
</a>
</g>
</g>
</g>
</svg>
