<?xml version="1.0" encoding="UTF-8" standalone="no"?>
<!DOCTYPE svg PUBLIC "-//W3C//DTD SVG 1.1//EN"
 "http://www.w3.org/Graphics/SVG/1.1/DTD/svg11.dtd">
<!-- Generated by graphviz version 14.1.4 (0)
 -->
<!-- Title: FAutomationTestBase::FAutomationTestBase Pages: 1 -->
<svg width="706pt" height="376pt"
 viewBox="0.00 0.00 706.00 376.00" xmlns="http://www.w3.org/2000/svg" xmlns:xlink="http://www.w3.org/1999/xlink">
<g id="graph0" class="graph" transform="scale(1 1) rotate(0) translate(4 371.5)">
<title>FAutomationTestBase::FAutomationTestBase</title>
<!-- Node1 -->
<g id="Node000001" class="node">
<title>Node1</title>
<g id="a_Node000001"><a xlink:title=" ">
<polygon fill="#999999" stroke="#666666" points="697.75,-126.5 570,-126.5 570,-93 697.75,-93 697.75,-126.5"/>
<text xml:space="preserve" text-anchor="start" x="578" y="-113" font-family="Helvetica,sans-Serif" font-size="10.00">FAutomationTestBase</text>
<text xml:space="preserve" text-anchor="middle" x="633.88" y="-100.25" font-family="Helvetica,sans-Serif" font-size="10.00">::FAutomationTestBase</text>
</a>
</g>
</g>
<!-- Node2 -->
<g id="Node000002" class="node">
<title>Node2</title>
<g id="a_Node000002"><a xlink:href="$classFAutomationSpecBase.html#a6cb8f77e5b5b8673cefb6f9b42303d6d" xlink:title=" ">
<polygon fill="white" stroke="#666666" points="524.62,-187.5 393.12,-187.5 393.12,-154 524.62,-154 524.62,-187.5"/>
<text xml:space="preserve" text-anchor="start" x="401.12" y="-174" font-family="Helvetica,sans-Serif" font-size="10.00">FAutomationSpecBase</text>
<text xml:space="preserve" text-anchor="middle" x="458.88" y="-161.25" font-family="Helvetica,sans-Serif" font-size="10.00">::FAutomationSpecBase</text>
</a>
</g>
</g>
<!-- Node1&#45;&gt;Node2 -->
<g id="edge1_Node000001_Node000002" class="edge">
<title>Node1&#45;&gt;Node2</title>
<g id="a_edge1_Node000001_Node000002"><a xlink:title=" ">
<path fill="none" stroke="#63b8ff" d="M573.44,-130.71C552.35,-138.14 528.87,-146.42 508.76,-153.51"/>
<polygon fill="#63b8ff" stroke="#63b8ff" points="574.53,-134.03 582.8,-127.41 572.2,-127.43 574.53,-134.03"/>
</a>
</g>
</g>
<!-- Node10 -->
<g id="Node000010" class="node">
<title>Node10</title>
<g id="a_Node000010"><a xlink:href="$classFBDDAutomationTestBase.html#a6effac49233a7545066ed5da896bd6c8" xlink:title=" ">
<polygon fill="white" stroke="#666666" points="534,-100.5 383.75,-100.5 383.75,-67 534,-67 534,-100.5"/>
<text xml:space="preserve" text-anchor="start" x="391.75" y="-87" font-family="Helvetica,sans-Serif" font-size="10.00">FBDDAutomationTestBase</text>
<text xml:space="preserve" text-anchor="middle" x="458.88" y="-74.25" font-family="Helvetica,sans-Serif" font-size="10.00">::FBDDAutomationTestBase</text>
</a>
</g>
</g>
<!-- Node1&#45;&gt;Node10 -->
<g id="edge9_Node000001_Node000010" class="edge">
<title>Node1&#45;&gt;Node10</title>
<g id="a_edge9_Node000001_Node000010"><a xlink:title=" ">
<path fill="none" stroke="#63b8ff" d="M558.63,-98.59C550.55,-97.38 542.32,-96.14 534.24,-94.93"/>
<polygon fill="#63b8ff" stroke="#63b8ff" points="558.02,-102.04 568.43,-100.06 559.06,-95.12 558.02,-102.04"/>
</a>
</g>
</g>
<!-- Node3 -->
<g id="Node000003" class="node">
<title>Node3</title>
<g id="a_Node000003"><a xlink:href="$classFAutomationSpecBase.html#a80393f1a5424eb929086cce52a3abdb2" xlink:title=" ">
<polygon fill="white" stroke="#666666" points="317.38,-341.5 191.88,-341.5 191.88,-308 317.38,-308 317.38,-341.5"/>
<text xml:space="preserve" text-anchor="start" x="199.88" y="-328" font-family="Helvetica,sans-Serif" font-size="10.00">FAutomationSpecBase</text>
<text xml:space="preserve" text-anchor="middle" x="254.62" y="-315.25" font-family="Helvetica,sans-Serif" font-size="10.00">::EnsureDefinitions</text>
</a>
</g>
</g>
<!-- Node2&#45;&gt;Node3 -->
<g id="edge2_Node000002_Node000003" class="edge">
<title>Node2&#45;&gt;Node3</title>
<g id="a_edge2_Node000002_Node000003"><a xlink:title=" ">
<path fill="none" stroke="#63b8ff" d="M441.96,-197.18C423.06,-226.32 388.87,-272.52 347.75,-298.75 338.64,-304.56 328.22,-309.09 317.74,-312.63"/>
<polygon fill="#63b8ff" stroke="#63b8ff" points="444.79,-199.25 447.18,-188.93 438.87,-195.51 444.79,-199.25"/>
</a>
</g>
</g>
<!-- Node6 -->
<g id="Node000006" class="node">
<title>Node6</title>
<g id="a_Node000006"><a xlink:href="$classFAutomationSpecBase_1_1FAsyncLatentCommand.html#a4aeca62eddd3773afdfcb7f3e1d49fba" xlink:title=" ">
<polygon fill="white" stroke="#666666" points="323.38,-289.88 185.88,-289.88 185.88,-243.62 323.38,-243.62 323.38,-289.88"/>
<text xml:space="preserve" text-anchor="start" x="193.88" y="-276.38" font-family="Helvetica,sans-Serif" font-size="10.00">FAutomationSpecBase</text>
<text xml:space="preserve" text-anchor="start" x="193.88" y="-263.62" font-family="Helvetica,sans-Serif" font-size="10.00">::FAsyncLatentCommand</text>
<text xml:space="preserve" text-anchor="middle" x="254.62" y="-250.88" font-family="Helvetica,sans-Serif" font-size="10.00">::FAsyncLatentCommand</text>
</a>
</g>
</g>
<!-- Node2&#45;&gt;Node6 -->
<g id="edge5_Node000002_Node000006" class="edge">
<title>Node2&#45;&gt;Node6</title>
<g id="a_edge5_Node000002_Node000006"><a xlink:title=" ">
<path fill="none" stroke="#63b8ff" d="M422.42,-193.7C401.28,-206.78 373.6,-222.88 347.75,-234.75 340.06,-238.28 331.85,-241.66 323.63,-244.8"/>
<polygon fill="#63b8ff" stroke="#63b8ff" points="424.03,-196.82 430.65,-188.54 420.32,-190.88 424.03,-196.82"/>
</a>
</g>
</g>
<!-- Node7 -->
<g id="Node000007" class="node">
<title>Node7</title>
<g id="a_Node000007"><a xlink:href="$classFAutomationSpecBase_1_1FAsyncUntilDoneLatentCommand.html#a728be15fb530fea04646f71618e070b6" xlink:title=" ">
<polygon fill="white" stroke="#666666" points="347.75,-225.88 161.5,-225.88 161.5,-179.62 347.75,-179.62 347.75,-225.88"/>
<text xml:space="preserve" text-anchor="start" x="169.5" y="-212.38" font-family="Helvetica,sans-Serif" font-size="10.00">FAutomationSpecBase</text>
<text xml:space="preserve" text-anchor="start" x="169.5" y="-199.62" font-family="Helvetica,sans-Serif" font-size="10.00">::FAsyncUntilDoneLatentCommand</text>
<text xml:space="preserve" text-anchor="middle" x="254.62" y="-186.88" font-family="Helvetica,sans-Serif" font-size="10.00">::FAsyncUntilDoneLatentCommand</text>
</a>
</g>
</g>
<!-- Node2&#45;&gt;Node7 -->
<g id="edge6_Node000002_Node000007" class="edge">
<title>Node2&#45;&gt;Node7</title>
<g id="a_edge6_Node000002_Node000007"><a xlink:title=" ">
<path fill="none" stroke="#63b8ff" d="M381.59,-182.82C370.7,-184.54 359.39,-186.33 348.23,-188.1"/>
<polygon fill="#63b8ff" stroke="#63b8ff" points="381.94,-186.31 391.27,-181.29 380.85,-179.39 381.94,-186.31"/>
</a>
</g>
</g>
<!-- Node8 -->
<g id="Node000008" class="node">
<title>Node8</title>
<g id="a_Node000008"><a xlink:href="$classFAutomationSpecBase_1_1FSingleExecuteLatentCommand.html#abfbdae6351d13736d6de1bde1895ac97" xlink:title=" ">
<polygon fill="white" stroke="#666666" points="343.62,-161.88 165.62,-161.88 165.62,-115.62 343.62,-115.62 343.62,-161.88"/>
<text xml:space="preserve" text-anchor="start" x="173.62" y="-148.38" font-family="Helvetica,sans-Serif" font-size="10.00">FAutomationSpecBase</text>
<text xml:space="preserve" text-anchor="start" x="173.62" y="-135.62" font-family="Helvetica,sans-Serif" font-size="10.00">::FSingleExecuteLatentCommand</text>
<text xml:space="preserve" text-anchor="middle" x="254.62" y="-122.88" font-family="Helvetica,sans-Serif" font-size="10.00">::FSingleExecuteLatentCommand</text>
</a>
</g>
</g>
<!-- Node2&#45;&gt;Node8 -->
<g id="edge7_Node000002_Node000008" class="edge">
<title>Node2&#45;&gt;Node8</title>
<g id="a_edge7_Node000002_Node000008"><a xlink:title=" ">
<path fill="none" stroke="#63b8ff" d="M381.61,-158.68C369.28,-156.73 356.42,-154.7 343.84,-152.71"/>
<polygon fill="#63b8ff" stroke="#63b8ff" points="380.85,-162.11 391.27,-160.21 381.94,-155.19 380.85,-162.11"/>
</a>
</g>
</g>
<!-- Node9 -->
<g id="Node000009" class="node">
<title>Node9</title>
<g id="a_Node000009"><a xlink:href="$classFAutomationSpecBase_1_1FUntilDoneLatentCommand.html#a589cfe90d228098c9b2650f04f282b27" xlink:title=" ">
<polygon fill="white" stroke="#666666" points="333.5,-97.88 175.75,-97.88 175.75,-51.62 333.5,-51.62 333.5,-97.88"/>
<text xml:space="preserve" text-anchor="start" x="183.75" y="-84.38" font-family="Helvetica,sans-Serif" font-size="10.00">FAutomationSpecBase</text>
<text xml:space="preserve" text-anchor="start" x="183.75" y="-71.62" font-family="Helvetica,sans-Serif" font-size="10.00">::FUntilDoneLatentCommand</text>
<text xml:space="preserve" text-anchor="middle" x="254.62" y="-58.88" font-family="Helvetica,sans-Serif" font-size="10.00">::FUntilDoneLatentCommand</text>
</a>
</g>
</g>
<!-- Node2&#45;&gt;Node9 -->
<g id="edge8_Node000002_Node000009" class="edge">
<title>Node2&#45;&gt;Node9</title>
<g id="a_edge8_Node000002_Node000009"><a xlink:title=" ">
<path fill="none" stroke="#63b8ff" d="M422.42,-147.8C401.28,-134.72 373.6,-118.62 347.75,-106.75 341.29,-103.78 334.47,-100.93 327.58,-98.23"/>
<polygon fill="#63b8ff" stroke="#63b8ff" points="420.32,-150.62 430.65,-152.96 424.03,-144.68 420.32,-150.62"/>
</a>
</g>
</g>
<!-- Node4 -->
<g id="Node000004" class="node">
<title>Node4</title>
<g id="a_Node000004"><a xlink:href="$classFAutomationSpecBase.html#adf88ef9047a148521ac5a9563337536d" xlink:title=" ">
<polygon fill="white" stroke="#666666" points="125.5,-367.5 0,-367.5 0,-334 125.5,-334 125.5,-367.5"/>
<text xml:space="preserve" text-anchor="start" x="8" y="-354" font-family="Helvetica,sans-Serif" font-size="10.00">FAutomationSpecBase</text>
<text xml:space="preserve" text-anchor="middle" x="62.75" y="-341.25" font-family="Helvetica,sans-Serif" font-size="10.00">::GetTests</text>
</a>
</g>
</g>
<!-- Node3&#45;&gt;Node4 -->
<g id="edge3_Node000003_Node000004" class="edge">
<title>Node3&#45;&gt;Node4</title>
<g id="a_edge3_Node000003_Node000004"><a xlink:title=" ">
<path fill="none" stroke="#63b8ff" d="M180.13,-334.81C162.16,-337.27 143.11,-339.88 125.74,-342.26"/>
<polygon fill="#63b8ff" stroke="#63b8ff" points="180.52,-338.29 189.95,-333.47 179.57,-331.36 180.52,-338.29"/>
</a>
</g>
</g>
<!-- Node5 -->
<g id="Node000005" class="node">
<title>Node5</title>
<g id="a_Node000005"><a xlink:href="$classFAutomationSpecBase.html#ab25c532bda8fd67c9554c031fcbe7bf9" xlink:title=" ">
<polygon fill="white" stroke="#666666" points="125.5,-315.5 0,-315.5 0,-282 125.5,-282 125.5,-315.5"/>
<text xml:space="preserve" text-anchor="start" x="8" y="-302" font-family="Helvetica,sans-Serif" font-size="10.00">FAutomationSpecBase</text>
<text xml:space="preserve" text-anchor="middle" x="62.75" y="-289.25" font-family="Helvetica,sans-Serif" font-size="10.00">::RunTest</text>
</a>
</g>
</g>
<!-- Node3&#45;&gt;Node5 -->
<g id="edge4_Node000003_Node000005" class="edge">
<title>Node3&#45;&gt;Node5</title>
<g id="a_edge4_Node000003_Node000005"><a xlink:title=" ">
<path fill="none" stroke="#63b8ff" d="M180.13,-314.69C162.16,-312.23 143.11,-309.62 125.74,-307.24"/>
<polygon fill="#63b8ff" stroke="#63b8ff" points="179.57,-318.14 189.95,-316.03 180.52,-311.21 179.57,-318.14"/>
</a>
</g>
</g>
<!-- Node11 -->
<g id="Node000011" class="node">
<title>Node11</title>
<g id="a_Node000011"><a xlink:href="$classFBDDAutomationTestBase.html#a85f07726a93d4330f2766d80b48d7a1f" xlink:title=" ">
<polygon fill="white" stroke="#666666" points="326.75,-33.5 182.5,-33.5 182.5,0 326.75,0 326.75,-33.5"/>
<text xml:space="preserve" text-anchor="start" x="190.5" y="-20" font-family="Helvetica,sans-Serif" font-size="10.00">FBDDAutomationTestBase</text>
<text xml:space="preserve" text-anchor="middle" x="254.62" y="-7.25" font-family="Helvetica,sans-Serif" font-size="10.00">::GetTests</text>
</a>
</g>
</g>
<!-- Node10&#45;&gt;Node11 -->
<g id="edge10_Node000010_Node000011" class="edge">
<title>Node10&#45;&gt;Node11</title>
<g id="a_edge10_Node000010_Node000011"><a xlink:title=" ">
<path fill="none" stroke="#63b8ff" d="M403.52,-62.51C385.84,-55.88 366.06,-48.73 347.75,-42.75 338.59,-39.76 328.85,-36.79 319.26,-33.98"/>
<polygon fill="#63b8ff" stroke="#63b8ff" points="402.21,-65.76 412.81,-66.03 404.69,-59.22 402.21,-65.76"/>
</a>
</g>
</g>
</g>
</svg>
