<?xml version="1.0" encoding="UTF-8" standalone="no"?>
<!DOCTYPE svg PUBLIC "-//W3C//DTD SVG 1.1//EN"
 "http://www.w3.org/Graphics/SVG/1.1/DTD/svg11.dtd">
<!-- Generated by graphviz version 14.1.4 (0)
 -->
<!-- Title: TCheckedObjPtr&lt; T &gt; Pages: 1 -->
<svg width="122pt" height="180pt"
 viewBox="0.00 0.00 122.00 180.00" xmlns="http://www.w3.org/2000/svg" xmlns:xlink="http://www.w3.org/1999/xlink">
<g id="graph0" class="graph" transform="scale(1 1) rotate(0) translate(4 175.5)">
<title>TCheckedObjPtr&lt; T &gt;</title>
<!-- Node1 -->
<g id="Node000001" class="node">
<title>Node1</title>
<g id="a_Node000001"><a xlink:title=" ">
<polygon fill="#999999" stroke="none" points="113.75,-171.5 0,-171.5 0,0 113.75,0 113.75,-171.5"/>
<text xml:space="preserve" text-anchor="start" x="4" y="-157.75" font-family="Helvetica,sans-Serif" font-size="10.00">TCheckedObjPtr&lt; T &gt;</text>
<text xml:space="preserve" text-anchor="start" x="8.44" y="-141" font-family="Helvetica,sans-Serif" font-size="10.00">&#45;</text>
<text xml:space="preserve" text-anchor="start" x="20.62" y="-141" font-family="Helvetica,sans-Serif" font-size="10.00">Object</text>
<text xml:space="preserve" text-anchor="start" x="8.44" y="-124.25" font-family="Helvetica,sans-Serif" font-size="10.00">&#45;</text>
<text xml:space="preserve" text-anchor="start" x="20.62" y="-124.25" font-family="Helvetica,sans-Serif" font-size="10.00">bError</text>
<text xml:space="preserve" text-anchor="start" x="6.19" y="-107.5" font-family="Helvetica,sans-Serif" font-size="10.00">+</text>
<text xml:space="preserve" text-anchor="start" x="20.62" y="-107.5" font-family="Helvetica,sans-Serif" font-size="10.00">TCheckedObjPtr()</text>
<text xml:space="preserve" text-anchor="start" x="6.19" y="-90.75" font-family="Helvetica,sans-Serif" font-size="10.00">+</text>
<text xml:space="preserve" text-anchor="start" x="20.62" y="-90.75" font-family="Helvetica,sans-Serif" font-size="10.00">TCheckedObjPtr()</text>
<text xml:space="preserve" text-anchor="start" x="6.19" y="-74" font-family="Helvetica,sans-Serif" font-size="10.00">+</text>
<text xml:space="preserve" text-anchor="start" x="20.62" y="-74" font-family="Helvetica,sans-Serif" font-size="10.00">operator=()</text>
<text xml:space="preserve" text-anchor="start" x="6.19" y="-57.25" font-family="Helvetica,sans-Serif" font-size="10.00">+</text>
<text xml:space="preserve" text-anchor="start" x="20.62" y="-57.25" font-family="Helvetica,sans-Serif" font-size="10.00">operator&#45;&gt;()</text>
<text xml:space="preserve" text-anchor="start" x="6.19" y="-40.5" font-family="Helvetica,sans-Serif" font-size="10.00">+</text>
<text xml:space="preserve" text-anchor="start" x="20.62" y="-40.5" font-family="Helvetica,sans-Serif" font-size="10.00">Get()</text>
<text xml:space="preserve" text-anchor="start" x="6.19" y="-23.75" font-family="Helvetica,sans-Serif" font-size="10.00">+</text>
<text xml:space="preserve" text-anchor="start" x="20.62" y="-23.75" font-family="Helvetica,sans-Serif" font-size="10.00">IsValid()</text>
<text xml:space="preserve" text-anchor="start" x="6.19" y="-7" font-family="Helvetica,sans-Serif" font-size="10.00">+</text>
<text xml:space="preserve" text-anchor="start" x="20.62" y="-7" font-family="Helvetica,sans-Serif" font-size="10.00">IsError()</text>
<polygon fill="#666666" stroke="#666666" points="0,-152.75 0,-152.75 113.75,-152.75 113.75,-152.75 0,-152.75"/>
<polygon fill="#666666" stroke="#666666" points="0,-119.25 0,-119.25 18.62,-119.25 18.62,-119.25 0,-119.25"/>
<polygon fill="#666666" stroke="#666666" points="18.62,-119.25 18.62,-119.25 113.75,-119.25 113.75,-119.25 18.62,-119.25"/>
<polygon fill="none" stroke="#666666" points="0,0 0,-171.5 113.75,-171.5 113.75,0 0,0"/>
</a>
</g>
</g>
</g>
</svg>
