<?xml version="1.0" encoding="UTF-8" standalone="no"?>
<!DOCTYPE svg PUBLIC "-//W3C//DTD SVG 1.1//EN"
 "http://www.w3.org/Graphics/SVG/1.1/DTD/svg11.dtd">
<!-- Generated by graphviz version 14.1.4 (0)
 -->
<!-- Title: TQueue::TQueue Pages: 1 -->
<svg width="292pt" height="68pt"
 viewBox="0.00 0.00 292.00 68.00" xmlns="http://www.w3.org/2000/svg" xmlns:xlink="http://www.w3.org/1999/xlink">
<g id="graph0" class="graph" transform="scale(1 1) rotate(0) translate(4 63.75)">
<title>TQueue::TQueue</title>
<!-- Node1 -->
<g id="Node000001" class="node">
<title>Node1</title>
<g id="a_Node000001"><a xlink:title=" ">
<polygon fill="#999999" stroke="#666666" points="284,-39.75 187,-39.75 187,-19 284,-19 284,-39.75"/>
<text xml:space="preserve" text-anchor="middle" x="235.5" y="-26.25" font-family="Helvetica,sans-Serif" font-size="10.00">TQueue::TQueue</text>
</a>
</g>
</g>
<!-- Node2 -->
<g id="Node000002" class="node">
<title>Node2</title>
<g id="a_Node000002"><a xlink:href="$classTQueue.html#a7ae942a52b7953e74139137a1fd6cc9f" xlink:title=" ">
<polygon fill="white" stroke="#666666" points="117.25,-59.75 33.75,-59.75 33.75,-39 117.25,-39 117.25,-59.75"/>
<text xml:space="preserve" text-anchor="middle" x="75.5" y="-46.25" font-family="Helvetica,sans-Serif" font-size="10.00">TQueue::Peek</text>
</a>
</g>
</g>
<!-- Node1&#45;&gt;Node2 -->
<g id="edge1_Node000001_Node000002" class="edge">
<title>Node1&#45;&gt;Node2</title>
<g id="a_edge1_Node000001_Node000002"><a xlink:title=" ">
<path fill="none" stroke="#63b8ff" d="M175.26,-36.87C156.02,-39.31 135.1,-41.96 117.5,-44.19"/>
<polygon fill="#63b8ff" stroke="#63b8ff" points="175.68,-40.35 185.16,-35.62 174.8,-33.4 175.68,-40.35"/>
</a>
</g>
</g>
<!-- Node3 -->
<g id="Node000003" class="node">
<title>Node3</title>
<g id="a_Node000003"><a xlink:href="$classTQueue.html#a59a706b798734f84d92604665b78ffc9" xlink:title=" ">
<polygon fill="white" stroke="#666666" points="151,-20.75 0,-20.75 0,0 151,0 151,-20.75"/>
<text xml:space="preserve" text-anchor="middle" x="75.5" y="-7.25" font-family="Helvetica,sans-Serif" font-size="10.00">TQueue::UE_NONCOPYABLE</text>
</a>
</g>
</g>
<!-- Node1&#45;&gt;Node3 -->
<g id="edge2_Node000001_Node000003" class="edge">
<title>Node1&#45;&gt;Node3</title>
<g id="a_edge2_Node000001_Node000003"><a xlink:title=" ">
<path fill="none" stroke="#63b8ff" d="M175.39,-22.27C167.53,-21.32 159.38,-20.34 151.3,-19.37"/>
<polygon fill="#63b8ff" stroke="#63b8ff" points="174.82,-25.72 185.16,-23.44 175.65,-18.77 174.82,-25.72"/>
</a>
</g>
</g>
</g>
</svg>
