<?xml version="1.0" encoding="UTF-8" standalone="no"?>
<!DOCTYPE svg PUBLIC "-//W3C//DTD SVG 1.1//EN"
 "http://www.w3.org/Graphics/SVG/1.1/DTD/svg11.dtd">
<!-- Generated by graphviz version 14.1.4 (0)
 -->
<!-- Title: TSortedMap::CreateIterator Pages: 1 -->
<svg width="510pt" height="94pt"
 viewBox="0.00 0.00 510.00 94.00" xmlns="http://www.w3.org/2000/svg" xmlns:xlink="http://www.w3.org/1999/xlink">
<g id="graph0" class="graph" transform="scale(1 1) rotate(0) translate(4 89.5)">
<title>TSortedMap::CreateIterator</title>
<!-- Node1 -->
<g id="Node000001" class="node">
<title>Node1</title>
<g id="a_Node000001"><a xlink:title=" ">
<polygon fill="#999999" stroke="#666666" points="501.75,-53.12 353,-53.12 353,-32.38 501.75,-32.38 501.75,-53.12"/>
<text xml:space="preserve" text-anchor="middle" x="427.38" y="-39.62" font-family="Helvetica,sans-Serif" font-size="10.00">TSortedMap::CreateIterator</text>
</a>
</g>
</g>
<!-- Node2 -->
<g id="Node000002" class="node">
<title>Node2</title>
<g id="a_Node000002"><a xlink:href="$classTSortedMap_1_1TIterator.html#a62aa2547a85d95495fd90b56afbfec61" xlink:title=" ">
<polygon fill="white" stroke="#666666" points="308,-85.5 185.5,-85.5 185.5,-52 308,-52 308,-85.5"/>
<text xml:space="preserve" text-anchor="start" x="193.5" y="-72" font-family="Helvetica,sans-Serif" font-size="10.00">TSortedMap::TIterator</text>
<text xml:space="preserve" text-anchor="middle" x="246.75" y="-59.25" font-family="Helvetica,sans-Serif" font-size="10.00">::TIterator</text>
</a>
</g>
</g>
<!-- Node1&#45;&gt;Node2 -->
<g id="edge1_Node000001_Node000002" class="edge">
<title>Node1&#45;&gt;Node2</title>
<g id="a_edge1_Node000001_Node000002"><a xlink:title=" ">
<path fill="none" stroke="#63b8ff" d="M341.58,-55.09C330.41,-56.72 319.15,-58.36 308.49,-59.91"/>
<polygon fill="#63b8ff" stroke="#63b8ff" points="341.8,-58.6 351.19,-53.69 340.79,-51.67 341.8,-58.6"/>
</a>
</g>
</g>
<!-- Node3 -->
<g id="Node000003" class="node">
<title>Node3</title>
<g id="a_Node000003"><a xlink:href="$classTSortedMap_1_1TKeyIterator.html#ab6d8894c00c7e0f5bfc1c1472d9de856" xlink:title=" ">
<polygon fill="white" stroke="#666666" points="317,-33.5 176.5,-33.5 176.5,0 317,0 317,-33.5"/>
<text xml:space="preserve" text-anchor="start" x="184.5" y="-20" font-family="Helvetica,sans-Serif" font-size="10.00">TSortedMap::TKeyIterator</text>
<text xml:space="preserve" text-anchor="middle" x="246.75" y="-7.25" font-family="Helvetica,sans-Serif" font-size="10.00">::TKeyIterator</text>
</a>
</g>
</g>
<!-- Node1&#45;&gt;Node3 -->
<g id="edge2_Node000001_Node000003" class="edge">
<title>Node1&#45;&gt;Node3</title>
<g id="a_edge2_Node000001_Node000003"><a xlink:title=" ">
<path fill="none" stroke="#63b8ff" d="M341.34,-30.37C333.27,-29.2 325.15,-28.02 317.25,-26.87"/>
<polygon fill="#63b8ff" stroke="#63b8ff" points="340.79,-33.83 351.19,-31.81 341.8,-26.9 340.79,-33.83"/>
</a>
</g>
</g>
<!-- Node4 -->
<g id="Node000004" class="node">
<title>Node4</title>
<g id="a_Node000004"><a xlink:href="$classTSortedMap_1_1TKeyIterator.html#a849b1fbf86b7acd9a4348ddeb09c93a7" xlink:title=" ">
<polygon fill="white" stroke="#666666" points="140.5,-33.5 0,-33.5 0,0 140.5,0 140.5,-33.5"/>
<text xml:space="preserve" text-anchor="start" x="8" y="-20" font-family="Helvetica,sans-Serif" font-size="10.00">TSortedMap::TKeyIterator</text>
<text xml:space="preserve" text-anchor="middle" x="70.25" y="-7.25" font-family="Helvetica,sans-Serif" font-size="10.00">::operator++</text>
</a>
</g>
</g>
<!-- Node3&#45;&gt;Node4 -->
<g id="edge3_Node000003_Node000004" class="edge">
<title>Node3&#45;&gt;Node4</title>
<g id="a_edge3_Node000003_Node000004"><a xlink:title=" ">
<path fill="none" stroke="#63b8ff" d="M164.52,-16.75C156.61,-16.75 148.64,-16.75 140.86,-16.75"/>
<polygon fill="#63b8ff" stroke="#63b8ff" points="164.52,-20.25 174.52,-16.75 164.52,-13.25 164.52,-20.25"/>
</a>
</g>
</g>
</g>
</svg>
