<?xml version="1.0" encoding="UTF-8" standalone="no"?>
<!DOCTYPE svg PUBLIC "-//W3C//DTD SVG 1.1//EN"
 "http://www.w3.org/Graphics/SVG/1.1/DTD/svg11.dtd">
<!-- Generated by graphviz version 14.1.4 (0)
 -->
<!-- Title: TFutureBase::Wait Pages: 1 -->
<svg width="438pt" height="68pt"
 viewBox="0.00 0.00 438.00 68.00" xmlns="http://www.w3.org/2000/svg" xmlns:xlink="http://www.w3.org/1999/xlink">
<g id="graph0" class="graph" transform="scale(1 1) rotate(0) translate(4 63.75)">
<title>TFutureBase::Wait</title>
<!-- Node1 -->
<g id="Node000001" class="node">
<title>Node1</title>
<g id="a_Node000001"><a xlink:title=" ">
<polygon fill="#999999" stroke="#666666" points="105.25,-39.75 0,-39.75 0,-19 105.25,-19 105.25,-39.75"/>
<text xml:space="preserve" text-anchor="middle" x="52.62" y="-26.25" font-family="Helvetica,sans-Serif" font-size="10.00">TFutureBase::Wait</text>
</a>
</g>
</g>
<!-- Node2 -->
<g id="Node000002" class="node">
<title>Node2</title>
<g id="a_Node000002"><a xlink:href="$structFTimespan.html#aeef170d4c37ecdddde56efa06103f262" xlink:title=" ">
<polygon fill="white" stroke="#666666" points="265.25,-59.75 141.25,-59.75 141.25,-39 265.25,-39 265.25,-59.75"/>
<text xml:space="preserve" text-anchor="middle" x="203.25" y="-46.25" font-family="Helvetica,sans-Serif" font-size="10.00">FTimespan::MaxValue</text>
</a>
</g>
</g>
<!-- Node1&#45;&gt;Node2 -->
<g id="edge1_Node000001_Node000002" class="edge">
<title>Node1&#45;&gt;Node2</title>
<g id="a_edge1_Node000001_Node000002"><a xlink:title=" ">
<path fill="none" stroke="#63b8ff" d="M105.61,-36.37C113.34,-37.41 121.44,-38.5 129.51,-39.59"/>
<polygon fill="#63b8ff" stroke="#63b8ff" points="128.98,-43.05 139.36,-40.91 129.92,-36.11 128.98,-43.05"/>
</a>
</g>
</g>
<!-- Node4 -->
<g id="Node000004" class="node">
<title>Node4</title>
<g id="a_Node000004"><a xlink:href="$classTFutureBase.html#a0099e578c95671af73daf583de77c474" xlink:title=" ">
<polygon fill="white" stroke="#666666" points="263.38,-20.75 143.12,-20.75 143.12,0 263.38,0 263.38,-20.75"/>
<text xml:space="preserve" text-anchor="middle" x="203.25" y="-7.25" font-family="Helvetica,sans-Serif" font-size="10.00">TFutureBase::WaitFor</text>
</a>
</g>
</g>
<!-- Node1&#45;&gt;Node4 -->
<g id="edge3_Node000001_Node000004" class="edge">
<title>Node1&#45;&gt;Node4</title>
<g id="a_edge3_Node000001_Node000004"><a xlink:title=" ">
<path fill="none" stroke="#63b8ff" d="M105.61,-22.73C113.93,-21.67 122.67,-20.55 131.34,-19.44"/>
<polygon fill="#63b8ff" stroke="#63b8ff" points="131.69,-22.92 141.16,-18.18 130.8,-15.98 131.69,-22.92"/>
</a>
</g>
</g>
<!-- Node3 -->
<g id="Node000003" class="node">
<title>Node3</title>
<g id="a_Node000003"><a xlink:href="$structFTimespan.html#aca97170059e97d76b01788f7103fba7a" xlink:title=" ">
<polygon fill="white" stroke="#666666" points="429.75,-59.75 301.25,-59.75 301.25,-39 429.75,-39 429.75,-59.75"/>
<text xml:space="preserve" text-anchor="middle" x="365.5" y="-46.25" font-family="Helvetica,sans-Serif" font-size="10.00">FTimespan::FTimespan</text>
</a>
</g>
</g>
<!-- Node2&#45;&gt;Node3 -->
<g id="edge2_Node000002_Node000003" class="edge">
<title>Node2&#45;&gt;Node3</title>
<g id="a_edge2_Node000002_Node000003"><a xlink:title=" ">
<path fill="none" stroke="#63b8ff" d="M265.75,-49.38C273.46,-49.38 281.41,-49.38 289.3,-49.38"/>
<polygon fill="#63b8ff" stroke="#63b8ff" points="289.26,-52.88 299.26,-49.38 289.26,-45.88 289.26,-52.88"/>
</a>
</g>
</g>
</g>
</svg>
