<?xml version="1.0" encoding="UTF-8" standalone="no"?>
<!DOCTYPE svg PUBLIC "-//W3C//DTD SVG 1.1//EN"
 "http://www.w3.org/Graphics/SVG/1.1/DTD/svg11.dtd">
<!-- Generated by graphviz version 14.1.4 (0)
 -->
<!-- Title: TAlignedHeapAllocator&lt; Alignment &gt;::ForAnyElementType Pages: 1 -->
<svg width="192pt" height="385pt"
 viewBox="0.00 0.00 192.00 385.00" xmlns="http://www.w3.org/2000/svg" xmlns:xlink="http://www.w3.org/1999/xlink">
<g id="graph0" class="graph" transform="scale(1 1) rotate(0) translate(4 381)">
<title>TAlignedHeapAllocator&lt; Alignment &gt;::ForAnyElementType</title>
<!-- Node1 -->
<g id="Node000001" class="node">
<title>Node1</title>
<g id="a_Node000001"><a xlink:title=" ">
<polygon fill="#999999" stroke="none" points="183.5,-268 0,-268 0,0 183.5,0 183.5,-268"/>
<text xml:space="preserve" text-anchor="start" x="4" y="-254.25" font-family="Helvetica,sans-Serif" font-size="10.00">TAlignedHeapAllocator</text>
<text xml:space="preserve" text-anchor="start" x="4" y="-241.5" font-family="Helvetica,sans-Serif" font-size="10.00">&lt; Alignment &gt;::ForAnyElementType</text>
<text xml:space="preserve" text-anchor="start" x="88.75" y="-224.75" font-family="Helvetica,sans-Serif" font-size="10.00"> </text>
<text xml:space="preserve" text-anchor="start" x="15" y="-208" font-family="Helvetica,sans-Serif" font-size="10.00">+</text>
<text xml:space="preserve" text-anchor="start" x="38.25" y="-208" font-family="Helvetica,sans-Serif" font-size="10.00">ForAnyElementType()</text>
<text xml:space="preserve" text-anchor="start" x="15" y="-191.25" font-family="Helvetica,sans-Serif" font-size="10.00">+</text>
<text xml:space="preserve" text-anchor="start" x="38.25" y="-191.25" font-family="Helvetica,sans-Serif" font-size="10.00">MoveToEmpty()</text>
<text xml:space="preserve" text-anchor="start" x="15" y="-174.5" font-family="Helvetica,sans-Serif" font-size="10.00">+</text>
<text xml:space="preserve" text-anchor="start" x="38.25" y="-174.5" font-family="Helvetica,sans-Serif" font-size="10.00">~ForAnyElementType()</text>
<text xml:space="preserve" text-anchor="start" x="15" y="-157.75" font-family="Helvetica,sans-Serif" font-size="10.00">+</text>
<text xml:space="preserve" text-anchor="start" x="38.25" y="-157.75" font-family="Helvetica,sans-Serif" font-size="10.00">GetAllocation()</text>
<text xml:space="preserve" text-anchor="start" x="15" y="-141" font-family="Helvetica,sans-Serif" font-size="10.00">+</text>
<text xml:space="preserve" text-anchor="start" x="38.25" y="-141" font-family="Helvetica,sans-Serif" font-size="10.00">ResizeAllocation()</text>
<text xml:space="preserve" text-anchor="start" x="15" y="-124.25" font-family="Helvetica,sans-Serif" font-size="10.00">+</text>
<text xml:space="preserve" text-anchor="start" x="38.25" y="-124.25" font-family="Helvetica,sans-Serif" font-size="10.00">CalculateSlackReserve()</text>
<text xml:space="preserve" text-anchor="start" x="15" y="-107.5" font-family="Helvetica,sans-Serif" font-size="10.00">+</text>
<text xml:space="preserve" text-anchor="start" x="38.25" y="-107.5" font-family="Helvetica,sans-Serif" font-size="10.00">CalculateSlackShrink()</text>
<text xml:space="preserve" text-anchor="start" x="15" y="-90.75" font-family="Helvetica,sans-Serif" font-size="10.00">+</text>
<text xml:space="preserve" text-anchor="start" x="38.25" y="-90.75" font-family="Helvetica,sans-Serif" font-size="10.00">CalculateSlackGrow()</text>
<text xml:space="preserve" text-anchor="start" x="15" y="-74" font-family="Helvetica,sans-Serif" font-size="10.00">+</text>
<text xml:space="preserve" text-anchor="start" x="38.25" y="-74" font-family="Helvetica,sans-Serif" font-size="10.00">GetAllocatedSize()</text>
<text xml:space="preserve" text-anchor="start" x="15" y="-57.25" font-family="Helvetica,sans-Serif" font-size="10.00">+</text>
<text xml:space="preserve" text-anchor="start" x="38.25" y="-57.25" font-family="Helvetica,sans-Serif" font-size="10.00">HasAllocation()</text>
<text xml:space="preserve" text-anchor="start" x="15" y="-40.5" font-family="Helvetica,sans-Serif" font-size="10.00">+</text>
<text xml:space="preserve" text-anchor="start" x="38.25" y="-40.5" font-family="Helvetica,sans-Serif" font-size="10.00">GetInitialCapacity()</text>
<text xml:space="preserve" text-anchor="start" x="17.25" y="-23.75" font-family="Helvetica,sans-Serif" font-size="10.00">&#45;</text>
<text xml:space="preserve" text-anchor="start" x="38.25" y="-23.75" font-family="Helvetica,sans-Serif" font-size="10.00">ForAnyElementType()</text>
<text xml:space="preserve" text-anchor="start" x="17.25" y="-7" font-family="Helvetica,sans-Serif" font-size="10.00">&#45;</text>
<text xml:space="preserve" text-anchor="start" x="38.25" y="-7" font-family="Helvetica,sans-Serif" font-size="10.00">operator=()</text>
<polygon fill="#666666" stroke="#666666" points="0,-236.5 0,-236.5 183.5,-236.5 183.5,-236.5 0,-236.5"/>
<polygon fill="#666666" stroke="#666666" points="0,-219.75 0,-219.75 183.5,-219.75 183.5,-219.75 0,-219.75"/>
<polygon fill="none" stroke="#666666" points="0,0 0,-268 183.5,-268 183.5,0 0,0"/>
</a>
</g>
</g>
<!-- Node2 -->
<g id="Node000002" class="node">
<title>Node2</title>
<g id="a_Node000002"><a xlink:href="$structFScriptContainerElement.html" xlink:title=" ">
<polygon fill="white" stroke="none" points="156.5,-377 27,-377 27,-322.75 156.5,-322.75 156.5,-377"/>
<text xml:space="preserve" text-anchor="start" x="31" y="-363.25" font-family="Helvetica,sans-Serif" font-size="10.00">FScriptContainerElement</text>
<text xml:space="preserve" text-anchor="start" x="88.75" y="-346.5" font-family="Helvetica,sans-Serif" font-size="10.00"> </text>
<text xml:space="preserve" text-anchor="start" x="88.75" y="-329.75" font-family="Helvetica,sans-Serif" font-size="10.00"> </text>
<polygon fill="#666666" stroke="#666666" points="27,-358.25 27,-358.25 156.5,-358.25 156.5,-358.25 27,-358.25"/>
<polygon fill="#666666" stroke="#666666" points="27,-341.5 27,-341.5 156.5,-341.5 156.5,-341.5 27,-341.5"/>
<polygon fill="none" stroke="#666666" points="27,-322.75 27,-377 156.5,-377 156.5,-322.75 27,-322.75"/>
</a>
</g>
</g>
<!-- Node2&#45;&gt;Node1 -->
<g id="edge1_Node000001_Node000002" class="edge">
<title>Node2&#45;&gt;Node1</title>
<g id="a_edge1_Node000001_Node000002"><a xlink:title=" ">
<path fill="none" stroke="#63b8ff" d="M91.75,-323.08C91.75,-311.39 91.75,-296.57 91.75,-280.39"/>
<polygon fill="none" stroke="#63b8ff" points="91.75,-280.69 87.75,-274.69 91.75,-268.69 95.75,-274.69 91.75,-280.69"/>
</a>
</g>
<text xml:space="preserve" text-anchor="start" x="94.75" y="-292" font-family="Helvetica,sans-Serif" font-size="10.00" fill="grey">&#45;Data</text>
</g>
</g>
</svg>
