<?xml version="1.0" encoding="UTF-8" standalone="no"?>
<!DOCTYPE svg PUBLIC "-//W3C//DTD SVG 1.1//EN"
 "http://www.w3.org/Graphics/SVG/1.1/DTD/svg11.dtd">
<!-- Generated by graphviz version 14.1.4 (0)
 -->
<!-- Title: UPhysicalMaterialMask Pages: 1 -->
<svg width="159pt" height="370pt"
 viewBox="0.00 0.00 159.00 370.00" xmlns="http://www.w3.org/2000/svg" xmlns:xlink="http://www.w3.org/1999/xlink">
<g id="graph0" class="graph" transform="scale(1 1) rotate(0) translate(4 366.25)">
<title>UPhysicalMaterialMask</title>
<!-- Node1 -->
<g id="Node000001" class="node">
<title>Node1</title>
<g id="a_Node000001"><a xlink:title=" ">
<polygon fill="#999999" stroke="none" points="150.75,-272 0,-272 0,0 150.75,0 150.75,-272"/>
<text xml:space="preserve" text-anchor="start" x="18" y="-258.25" font-family="Helvetica,sans-Serif" font-size="10.00">UPhysicalMaterialMask</text>
<text xml:space="preserve" text-anchor="start" x="4" y="-241.5" font-family="Helvetica,sans-Serif" font-size="10.00">+</text>
<text xml:space="preserve" text-anchor="start" x="16.25" y="-241.5" font-family="Helvetica,sans-Serif" font-size="10.00">MaterialMaskHandle</text>
<text xml:space="preserve" text-anchor="start" x="6.25" y="-224.75" font-family="Helvetica,sans-Serif" font-size="10.00">&#45;</text>
<text xml:space="preserve" text-anchor="start" x="16.25" y="-224.75" font-family="Helvetica,sans-Serif" font-size="10.00">UVChannelIndex</text>
<text xml:space="preserve" text-anchor="start" x="6.25" y="-208" font-family="Helvetica,sans-Serif" font-size="10.00">&#45;</text>
<text xml:space="preserve" text-anchor="start" x="16.25" y="-208" font-family="Helvetica,sans-Serif" font-size="10.00">Category</text>
<text xml:space="preserve" text-anchor="start" x="6.25" y="-191.25" font-family="Helvetica,sans-Serif" font-size="10.00">&#45;</text>
<text xml:space="preserve" text-anchor="start" x="16.25" y="-191.25" font-family="Helvetica,sans-Serif" font-size="10.00">INVALID_MASK_INDEX</text>
<text xml:space="preserve" text-anchor="start" x="4" y="-174.5" font-family="Helvetica,sans-Serif" font-size="10.00">+</text>
<text xml:space="preserve" text-anchor="start" x="16.25" y="-174.5" font-family="Helvetica,sans-Serif" font-size="10.00">PostEditChangeProperty()</text>
<text xml:space="preserve" text-anchor="start" x="4" y="-157.75" font-family="Helvetica,sans-Serif" font-size="10.00">+</text>
<text xml:space="preserve" text-anchor="start" x="16.25" y="-157.75" font-family="Helvetica,sans-Serif" font-size="10.00">PostInitProperties()</text>
<text xml:space="preserve" text-anchor="start" x="4" y="-141" font-family="Helvetica,sans-Serif" font-size="10.00">+</text>
<text xml:space="preserve" text-anchor="start" x="16.25" y="-141" font-family="Helvetica,sans-Serif" font-size="10.00">PostLoad()</text>
<text xml:space="preserve" text-anchor="start" x="4" y="-124.25" font-family="Helvetica,sans-Serif" font-size="10.00">+</text>
<text xml:space="preserve" text-anchor="start" x="16.25" y="-124.25" font-family="Helvetica,sans-Serif" font-size="10.00">FinishDestroy()</text>
<text xml:space="preserve" text-anchor="start" x="4" y="-107.5" font-family="Helvetica,sans-Serif" font-size="10.00">+</text>
<text xml:space="preserve" text-anchor="start" x="16.25" y="-107.5" font-family="Helvetica,sans-Serif" font-size="10.00">~UPhysicalMaterialMask()</text>
<text xml:space="preserve" text-anchor="start" x="4" y="-90.75" font-family="Helvetica,sans-Serif" font-size="10.00">+</text>
<text xml:space="preserve" text-anchor="start" x="16.25" y="-90.75" font-family="Helvetica,sans-Serif" font-size="10.00">UPhysicalMaterialMask()</text>
<text xml:space="preserve" text-anchor="start" x="4" y="-74" font-family="Helvetica,sans-Serif" font-size="10.00">+</text>
<text xml:space="preserve" text-anchor="start" x="16.25" y="-74" font-family="Helvetica,sans-Serif" font-size="10.00">SetMaskTexture()</text>
<text xml:space="preserve" text-anchor="start" x="4" y="-57.25" font-family="Helvetica,sans-Serif" font-size="10.00">+</text>
<text xml:space="preserve" text-anchor="start" x="16.25" y="-57.25" font-family="Helvetica,sans-Serif" font-size="10.00">DumpMaskData()</text>
<text xml:space="preserve" text-anchor="start" x="4" y="-40.5" font-family="Helvetica,sans-Serif" font-size="10.00">+</text>
<text xml:space="preserve" text-anchor="start" x="16.25" y="-40.5" font-family="Helvetica,sans-Serif" font-size="10.00">GetPhysicsMaterialMask()</text>
<text xml:space="preserve" text-anchor="start" x="4" y="-23.75" font-family="Helvetica,sans-Serif" font-size="10.00">+</text>
<text xml:space="preserve" text-anchor="start" x="16.25" y="-23.75" font-family="Helvetica,sans-Serif" font-size="10.00">GenerateMaskData()</text>
<text xml:space="preserve" text-anchor="start" x="4" y="-7" font-family="Helvetica,sans-Serif" font-size="10.00">+</text>
<text xml:space="preserve" text-anchor="start" x="16.25" y="-7" font-family="Helvetica,sans-Serif" font-size="10.00">GetPhysMatIndex()</text>
<polygon fill="#666666" stroke="#666666" points="0,-253.25 0,-253.25 150.75,-253.25 150.75,-253.25 0,-253.25"/>
<polygon fill="#666666" stroke="#666666" points="0,-186.25 0,-186.25 14.25,-186.25 14.25,-186.25 0,-186.25"/>
<polygon fill="#666666" stroke="#666666" points="14.25,-186.25 14.25,-186.25 150.75,-186.25 150.75,-186.25 14.25,-186.25"/>
<polygon fill="none" stroke="#666666" points="0,0 0,-272 150.75,-272 150.75,0 0,0"/>
</a>
</g>
</g>
<!-- Node2 -->
<g id="Node000002" class="node">
<title>Node2</title>
<g id="a_Node000002"><a xlink:title=" ">
<polygon fill="white" stroke="none" points="98.88,-362.25 51.88,-362.25 51.88,-308 98.88,-308 98.88,-362.25"/>
<text xml:space="preserve" text-anchor="start" x="55.88" y="-348.5" font-family="Helvetica,sans-Serif" font-size="10.00">UObject</text>
<text xml:space="preserve" text-anchor="start" x="72.38" y="-331.75" font-family="Helvetica,sans-Serif" font-size="10.00"> </text>
<text xml:space="preserve" text-anchor="start" x="72.38" y="-315" font-family="Helvetica,sans-Serif" font-size="10.00"> </text>
<polygon fill="#666666" stroke="#666666" points="51.88,-343.5 51.88,-343.5 98.88,-343.5 98.88,-343.5 51.88,-343.5"/>
<polygon fill="#666666" stroke="#666666" points="51.88,-326.75 51.88,-326.75 98.88,-326.75 98.88,-326.75 51.88,-326.75"/>
<polygon fill="none" stroke="#666666" points="51.88,-308 51.88,-362.25 98.88,-362.25 98.88,-308 51.88,-308"/>
</a>
</g>
</g>
<!-- Node2&#45;&gt;Node1 -->
<g id="edge1_Node000001_Node000002" class="edge">
<title>Node2&#45;&gt;Node1</title>
<g id="a_edge1_Node000001_Node000002"><a xlink:title=" ">
<path fill="none" stroke="#63b8ff" d="M75.38,-297.02C75.38,-289.34 75.38,-280.84 75.38,-271.86"/>
<polygon fill="none" stroke="#63b8ff" points="71.88,-296.84 75.38,-306.84 78.88,-296.84 71.88,-296.84"/>
</a>
</g>
</g>
</g>
</svg>
