<?xml version="1.0" encoding="UTF-8" standalone="no"?>
<!DOCTYPE svg PUBLIC "-//W3C//DTD SVG 1.1//EN"
 "http://www.w3.org/Graphics/SVG/1.1/DTD/svg11.dtd">
<!-- Generated by graphviz version 14.1.4 (0)
 -->
<!-- Title: UE::Tasks::Private::FTaskBase::ReleasePrerequisites Pages: 1 -->
<svg width="1513pt" height="176pt"
 viewBox="0.00 0.00 1513.00 176.00" xmlns="http://www.w3.org/2000/svg" xmlns:xlink="http://www.w3.org/1999/xlink">
<g id="graph0" class="graph" transform="scale(1 1) rotate(0) translate(4 172.12)">
<title>UE::Tasks::Private::FTaskBase::ReleasePrerequisites</title>
<!-- Node1 -->
<g id="Node000001" class="node">
<title>Node1</title>
<g id="a_Node000001"><a xlink:title=" ">
<polygon fill="#999999" stroke="#666666" points="1505,-77.5 1322.5,-77.5 1322.5,-44 1505,-44 1505,-77.5"/>
<text xml:space="preserve" text-anchor="start" x="1330.5" y="-64" font-family="Helvetica,sans-Serif" font-size="10.00">UE::Tasks::Private</text>
<text xml:space="preserve" text-anchor="middle" x="1413.75" y="-51.25" font-family="Helvetica,sans-Serif" font-size="10.00">::FTaskBase::ReleasePrerequisites</text>
</a>
</g>
</g>
<!-- Node1&#45;&gt;Node1 -->
<g id="edge19_Node000001_Node000001" class="edge">
<title>Node1&#45;&gt;Node1</title>
<g id="a_edge19_Node000001_Node000001"><a xlink:title=" ">
<path fill="none" stroke="#63b8ff" d="M1444.08,-88.89C1439.14,-92.85 1429.03,-95.5 1413.75,-95.5 1386.59,-95.5 1375.76,-87.12 1381.28,-77.91"/>
<polygon fill="#63b8ff" stroke="#63b8ff" points="1447.45,-89.89 1445.93,-79.4 1440.58,-88.54 1447.45,-89.89"/>
</a>
</g>
</g>
<!-- Node2 -->
<g id="Node000002" class="node">
<title>Node2</title>
<g id="a_Node000002"><a xlink:href="$classUE_1_1Tasks_1_1Private_1_1FTaskBase.html#a6dedadff74d3bbce030bee969a1ede14" xlink:title=" ">
<polygon fill="white" stroke="#666666" points="1286.5,-77.5 1179.75,-77.5 1179.75,-44 1286.5,-44 1286.5,-77.5"/>
<text xml:space="preserve" text-anchor="start" x="1187.75" y="-64" font-family="Helvetica,sans-Serif" font-size="10.00">UE::Tasks::Private</text>
<text xml:space="preserve" text-anchor="middle" x="1233.12" y="-51.25" font-family="Helvetica,sans-Serif" font-size="10.00">::FTaskBase::Close</text>
</a>
</g>
</g>
<!-- Node1&#45;&gt;Node2 -->
<g id="edge1_Node000001_Node000002" class="edge">
<title>Node1&#45;&gt;Node2</title>
<g id="a_edge1_Node000001_Node000002"><a xlink:title=" ">
<path fill="none" stroke="#63b8ff" d="M1310.83,-60.75C1302.59,-60.75 1294.5,-60.75 1286.84,-60.75"/>
<polygon fill="#63b8ff" stroke="#63b8ff" points="1310.62,-64.25 1320.62,-60.75 1310.62,-57.25 1310.62,-64.25"/>
</a>
</g>
</g>
<!-- Node3 -->
<g id="Node000003" class="node">
<title>Node3</title>
<g id="a_Node000003"><a xlink:href="$classUE_1_1Tasks_1_1Private_1_1FTaskBase.html#aa348d5593dd632cb03949720858d758e" xlink:title=" ">
<polygon fill="white" stroke="#666666" points="1143.75,-129.5 988.25,-129.5 988.25,-96 1143.75,-96 1143.75,-129.5"/>
<text xml:space="preserve" text-anchor="start" x="996.25" y="-116" font-family="Helvetica,sans-Serif" font-size="10.00">UE::Tasks::Private</text>
<text xml:space="preserve" text-anchor="middle" x="1066" y="-103.25" font-family="Helvetica,sans-Serif" font-size="10.00">::FTaskBase::TryExecuteTask</text>
</a>
</g>
</g>
<!-- Node1&#45;&gt;Node3 -->
<g id="edge20_Node000001_Node000003" class="edge">
<title>Node1&#45;&gt;Node3</title>
<g id="a_edge20_Node000001_Node000003"><a xlink:title=" ">
<path fill="none" stroke="#63b8ff" d="M1362.76,-82.04C1339.94,-90.75 1312.3,-99.9 1286.5,-104.75 1239.75,-113.54 1186.44,-115.67 1144.06,-115.53"/>
<polygon fill="#63b8ff" stroke="#63b8ff" points="1363.77,-85.41 1371.81,-78.51 1361.22,-78.89 1363.77,-85.41"/>
</a>
</g>
</g>
<!-- Node6 -->
<g id="Node000006" class="node">
<title>Node6</title>
<g id="a_Node000006"><a xlink:href="$classUE_1_1Tasks_1_1Private_1_1FTaskBase.html#a76fa89ddd136c98a73e24293207db664" xlink:title=" ">
<polygon fill="white" stroke="#666666" points="945.5,-59.5 817,-59.5 817,-26 945.5,-26 945.5,-59.5"/>
<text xml:space="preserve" text-anchor="start" x="825" y="-46" font-family="Helvetica,sans-Serif" font-size="10.00">UE::Tasks::Private</text>
<text xml:space="preserve" text-anchor="middle" x="881.25" y="-33.25" font-family="Helvetica,sans-Serif" font-size="10.00">::FTaskBase::TryUnlock</text>
</a>
</g>
</g>
<!-- Node1&#45;&gt;Node6 -->
<g id="edge21_Node000001_Node000006" class="edge">
<title>Node1&#45;&gt;Node6</title>
<g id="a_edge21_Node000001_Node000006"><a xlink:title=" ">
<path fill="none" stroke="#63b8ff" d="M1330.91,-41.38C1316.21,-38.62 1300.96,-36.22 1286.5,-34.75 1166.56,-22.53 1025.6,-30.31 945.81,-36.75"/>
<polygon fill="#63b8ff" stroke="#63b8ff" points="1330.06,-44.78 1340.55,-43.26 1331.4,-37.91 1330.06,-44.78"/>
</a>
</g>
</g>
<!-- Node2&#45;&gt;Node2 -->
<g id="edge2_Node000002_Node000002" class="edge">
<title>Node2&#45;&gt;Node2</title>
<g id="a_edge2_Node000002_Node000002"><a xlink:title=" ">
<path fill="none" stroke="#63b8ff" d="M1261.19,-88.89C1256.62,-92.85 1247.26,-95.5 1233.12,-95.5 1207.99,-95.5 1197.98,-87.12 1203.08,-77.91"/>
<polygon fill="#63b8ff" stroke="#63b8ff" points="1264.57,-89.87 1262.9,-79.4 1257.68,-88.62 1264.57,-89.87"/>
</a>
</g>
</g>
<!-- Node2&#45;&gt;Node3 -->
<g id="edge3_Node000002_Node000003" class="edge">
<title>Node2&#45;&gt;Node3</title>
<g id="a_edge3_Node000002_Node000003"><a xlink:title=" ">
<path fill="none" stroke="#63b8ff" d="M1168.86,-80.67C1153.33,-85.56 1136.84,-90.76 1121.76,-95.51"/>
<polygon fill="#63b8ff" stroke="#63b8ff" points="1169.49,-84.14 1177.98,-77.8 1167.39,-77.47 1169.49,-84.14"/>
</a>
</g>
</g>
<!-- Node2&#45;&gt;Node6 -->
<g id="edge18_Node000002_Node000006" class="edge">
<title>Node2&#45;&gt;Node6</title>
<g id="a_edge18_Node000002_Node000006"><a xlink:title=" ">
<path fill="none" stroke="#63b8ff" d="M1167.96,-57.45C1104.77,-54.2 1008.82,-49.26 945.83,-46.02"/>
<polygon fill="#63b8ff" stroke="#63b8ff" points="1167.69,-60.94 1177.85,-57.96 1168.05,-53.95 1167.69,-60.94"/>
</a>
</g>
</g>
<!-- Node3&#45;&gt;Node3 -->
<g id="edge6_Node000003_Node000003" class="edge">
<title>Node3&#45;&gt;Node3</title>
<g id="a_edge6_Node000003_Node000003"><a xlink:title=" ">
<path fill="none" stroke="#63b8ff" d="M1094.06,-140.89C1089.49,-144.85 1080.14,-147.5 1066,-147.5 1040.87,-147.5 1030.85,-139.12 1035.96,-129.91"/>
<polygon fill="#63b8ff" stroke="#63b8ff" points="1097.44,-141.87 1095.77,-131.4 1090.55,-140.62 1097.44,-141.87"/>
</a>
</g>
</g>
<!-- Node4 -->
<g id="Node000004" class="node">
<title>Node4</title>
<g id="a_Node000004"><a xlink:href="$classFBaseGraphTask.html#a2f5b19d539c0b8576727436fb9258fb4" xlink:title=" ">
<polygon fill="white" stroke="#666666" points="952.25,-168.12 810.25,-168.12 810.25,-147.38 952.25,-147.38 952.25,-168.12"/>
<text xml:space="preserve" text-anchor="middle" x="881.25" y="-154.62" font-family="Helvetica,sans-Serif" font-size="10.00">FBaseGraphTask::Execute</text>
</a>
</g>
</g>
<!-- Node3&#45;&gt;Node4 -->
<g id="edge4_Node000003_Node000004" class="edge">
<title>Node3&#45;&gt;Node4</title>
<g id="a_edge4_Node000003_Node000004"><a xlink:title=" ">
<path fill="none" stroke="#63b8ff" d="M984.15,-132.66C964.21,-137.57 943.59,-142.65 926.17,-146.94"/>
<polygon fill="#63b8ff" stroke="#63b8ff" points="984.79,-136.11 993.66,-130.32 983.11,-129.31 984.79,-136.11"/>
</a>
</g>
</g>
<!-- Node5 -->
<g id="Node000005" class="node">
<title>Node5</title>
<g id="a_Node000005"><a xlink:href="$classUE_1_1Tasks_1_1Private_1_1FTaskBase.html#ad52bcdecdbb2647e87f25038017a7b3e" xlink:title=" ">
<polygon fill="white" stroke="#666666" points="932.75,-129.5 829.75,-129.5 829.75,-96 932.75,-96 932.75,-129.5"/>
<text xml:space="preserve" text-anchor="start" x="837.75" y="-116" font-family="Helvetica,sans-Serif" font-size="10.00">UE::Tasks::Private</text>
<text xml:space="preserve" text-anchor="middle" x="881.25" y="-103.25" font-family="Helvetica,sans-Serif" font-size="10.00">::FTaskBase::Init</text>
</a>
</g>
</g>
<!-- Node3&#45;&gt;Node5 -->
<g id="edge5_Node000003_Node000005" class="edge">
<title>Node3&#45;&gt;Node5</title>
<g id="a_edge5_Node000003_Node000005"><a xlink:title=" ">
<path fill="none" stroke="#63b8ff" d="M976.41,-112.75C961.51,-112.75 946.51,-112.75 932.99,-112.75"/>
<polygon fill="#63b8ff" stroke="#63b8ff" points="976.25,-116.25 986.25,-112.75 976.25,-109.25 976.25,-116.25"/>
</a>
</g>
</g>
<!-- Node3&#45;&gt;Node6 -->
<g id="edge7_Node000003_Node000006" class="edge">
<title>Node3&#45;&gt;Node6</title>
<g id="a_edge7_Node000003_Node000006"><a xlink:title=" ">
<path fill="none" stroke="#63b8ff" d="M1009.68,-91.56C983.26,-81.44 952.05,-69.48 927.13,-59.94"/>
<polygon fill="#63b8ff" stroke="#63b8ff" points="1008.29,-94.78 1018.88,-95.08 1010.79,-88.24 1008.29,-94.78"/>
</a>
</g>
</g>
<!-- Node6&#45;&gt;Node6 -->
<g id="edge17_Node000006_Node000006" class="edge">
<title>Node6&#45;&gt;Node6</title>
<g id="a_edge17_Node000006_Node000006"><a xlink:title=" ">
<path fill="none" stroke="#63b8ff" d="M910.07,-70.89C905.37,-74.85 895.77,-77.5 881.25,-77.5 855.44,-77.5 845.16,-69.12 850.4,-59.91"/>
<polygon fill="#63b8ff" stroke="#63b8ff" points="913.44,-71.87 911.83,-61.4 906.56,-70.6 913.44,-71.87"/>
</a>
</g>
</g>
<!-- Node7 -->
<g id="Node000007" class="node">
<title>Node7</title>
<g id="a_Node000007"><a xlink:href="$classUE_1_1Tasks_1_1Private_1_1FTaskBase.html#acb8de28b2de2ae146113053a640372f9" xlink:title=" ">
<polygon fill="white" stroke="#666666" points="774.25,-59.5 645,-59.5 645,-26 774.25,-26 774.25,-59.5"/>
<text xml:space="preserve" text-anchor="start" x="653" y="-46" font-family="Helvetica,sans-Serif" font-size="10.00">UE::Tasks::Private</text>
<text xml:space="preserve" text-anchor="middle" x="709.62" y="-33.25" font-family="Helvetica,sans-Serif" font-size="10.00">::FTaskBase::TryLaunch</text>
</a>
</g>
</g>
<!-- Node6&#45;&gt;Node7 -->
<g id="edge8_Node000006_Node000007" class="edge">
<title>Node6&#45;&gt;Node7</title>
<g id="a_edge8_Node000006_Node000007"><a xlink:title=" ">
<path fill="none" stroke="#63b8ff" d="M805.2,-42.75C795,-42.75 784.61,-42.75 774.63,-42.75"/>
<polygon fill="#63b8ff" stroke="#63b8ff" points="805.09,-46.25 815.09,-42.75 805.09,-39.25 805.09,-46.25"/>
</a>
</g>
</g>
<!-- Node8 -->
<g id="Node000008" class="node">
<title>Node8</title>
<g id="a_Node000008"><a xlink:href="$classTGraphTask_1_1FConstructor.html#aa24bfa2ce86004e70e9ded339f33f164" xlink:title=" ">
<polygon fill="white" stroke="#666666" points="609,-85.5 420.5,-85.5 420.5,-52 609,-52 609,-85.5"/>
<text xml:space="preserve" text-anchor="start" x="428.5" y="-72" font-family="Helvetica,sans-Serif" font-size="10.00">TGraphTask::FConstructor</text>
<text xml:space="preserve" text-anchor="middle" x="514.75" y="-59.25" font-family="Helvetica,sans-Serif" font-size="10.00">::ConstructAndDispatchWhenReady</text>
</a>
</g>
</g>
<!-- Node7&#45;&gt;Node8 -->
<g id="edge9_Node000007_Node000008" class="edge">
<title>Node7&#45;&gt;Node8</title>
<g id="a_edge9_Node000007_Node000008"><a xlink:title=" ">
<path fill="none" stroke="#63b8ff" d="M633.36,-52.9C625.53,-53.95 617.5,-55.03 609.49,-56.11"/>
<polygon fill="#63b8ff" stroke="#63b8ff" points="633.73,-56.38 643.17,-51.57 632.79,-49.44 633.73,-56.38"/>
</a>
</g>
</g>
<!-- Node13 -->
<g id="Node000013" class="node">
<title>Node13</title>
<g id="a_Node000013"><a xlink:href="$classFBaseGraphTask.html#a2ef724f88b13949572f4feb829b61b70" xlink:title=" ">
<polygon fill="white" stroke="#666666" points="583.12,-31.12 446.38,-31.12 446.38,-10.38 583.12,-10.38 583.12,-31.12"/>
<text xml:space="preserve" text-anchor="middle" x="514.75" y="-17.62" font-family="Helvetica,sans-Serif" font-size="10.00">FBaseGraphTask::Unlock</text>
</a>
</g>
</g>
<!-- Node7&#45;&gt;Node13 -->
<g id="edge14_Node000007_Node000013" class="edge">
<title>Node7&#45;&gt;Node13</title>
<g id="a_edge14_Node000007_Node000013"><a xlink:title=" ">
<path fill="none" stroke="#63b8ff" d="M633.44,-34.17C616.98,-32.3 599.65,-30.32 583.51,-28.48"/>
<polygon fill="#63b8ff" stroke="#63b8ff" points="632.83,-37.63 643.16,-35.28 633.63,-30.67 632.83,-37.63"/>
</a>
</g>
</g>
<!-- Node9 -->
<g id="Node000009" class="node">
<title>Node9</title>
<g id="a_Node000009"><a xlink:href="$classFDelegateGraphTask.html#ac0d36a4893d4304930bebe7ea7f86111" xlink:title=" ">
<polygon fill="white" stroke="#666666" points="384.5,-137.5 210.25,-137.5 210.25,-104 384.5,-104 384.5,-137.5"/>
<text xml:space="preserve" text-anchor="start" x="218.25" y="-124" font-family="Helvetica,sans-Serif" font-size="10.00">FDelegateGraphTask</text>
<text xml:space="preserve" text-anchor="middle" x="297.38" y="-111.25" font-family="Helvetica,sans-Serif" font-size="10.00">::CreateAndDispatchWhenReady</text>
</a>
</g>
</g>
<!-- Node8&#45;&gt;Node9 -->
<g id="edge10_Node000008_Node000009" class="edge">
<title>Node8&#45;&gt;Node9</title>
<g id="a_edge10_Node000008_Node000009"><a xlink:title=" ">
<path fill="none" stroke="#63b8ff" d="M431.2,-88.68C410.89,-93.58 389.32,-98.79 369.6,-103.55"/>
<polygon fill="#63b8ff" stroke="#63b8ff" points="431.96,-92.1 440.86,-86.35 430.32,-85.29 431.96,-92.1"/>
</a>
</g>
</g>
<!-- Node11 -->
<g id="Node000011" class="node">
<title>Node11</title>
<g id="a_Node000011"><a xlink:href="$classFSimpleDelegateGraphTask.html#a341701cb3401feddac7cfbb6b3fc9e1a" xlink:title=" ">
<polygon fill="white" stroke="#666666" points="384.5,-85.5 210.25,-85.5 210.25,-52 384.5,-52 384.5,-85.5"/>
<text xml:space="preserve" text-anchor="start" x="218.25" y="-72" font-family="Helvetica,sans-Serif" font-size="10.00">FSimpleDelegateGraphTask</text>
<text xml:space="preserve" text-anchor="middle" x="297.38" y="-59.25" font-family="Helvetica,sans-Serif" font-size="10.00">::CreateAndDispatchWhenReady</text>
</a>
</g>
</g>
<!-- Node8&#45;&gt;Node11 -->
<g id="edge12_Node000008_Node000011" class="edge">
<title>Node8&#45;&gt;Node11</title>
<g id="a_edge12_Node000008_Node000011"><a xlink:title=" ">
<path fill="none" stroke="#63b8ff" d="M408.83,-68.75C400.74,-68.75 392.64,-68.75 384.69,-68.75"/>
<polygon fill="#63b8ff" stroke="#63b8ff" points="408.71,-72.25 418.71,-68.75 408.71,-65.25 408.71,-72.25"/>
</a>
</g>
</g>
<!-- Node10 -->
<g id="Node000010" class="node">
<title>Node10</title>
<g id="a_Node000010"><a xlink:href="$classFDelegateGraphTask.html#a1275878d34a88209cb2e59664708fe9b" xlink:title=" ">
<polygon fill="white" stroke="#666666" points="174.25,-137.5 0,-137.5 0,-104 174.25,-104 174.25,-137.5"/>
<text xml:space="preserve" text-anchor="start" x="8" y="-124" font-family="Helvetica,sans-Serif" font-size="10.00">FDelegateGraphTask</text>
<text xml:space="preserve" text-anchor="middle" x="87.12" y="-111.25" font-family="Helvetica,sans-Serif" font-size="10.00">::CreateAndDispatchWhenReady</text>
</a>
</g>
</g>
<!-- Node9&#45;&gt;Node10 -->
<g id="edge11_Node000009_Node000010" class="edge">
<title>Node9&#45;&gt;Node10</title>
<g id="a_edge11_Node000009_Node000010"><a xlink:title=" ">
<path fill="none" stroke="#63b8ff" d="M198.63,-120.75C190.64,-120.75 182.6,-120.75 174.7,-120.75"/>
<polygon fill="#63b8ff" stroke="#63b8ff" points="198.35,-124.25 208.35,-120.75 198.35,-117.25 198.35,-124.25"/>
</a>
</g>
</g>
<!-- Node12 -->
<g id="Node000012" class="node">
<title>Node12</title>
<g id="a_Node000012"><a xlink:href="$classFSimpleDelegateGraphTask.html#a636c9be284b7b20a77a263a514a02be0" xlink:title=" ">
<polygon fill="white" stroke="#666666" points="174.25,-85.5 0,-85.5 0,-52 174.25,-52 174.25,-85.5"/>
<text xml:space="preserve" text-anchor="start" x="8" y="-72" font-family="Helvetica,sans-Serif" font-size="10.00">FSimpleDelegateGraphTask</text>
<text xml:space="preserve" text-anchor="middle" x="87.12" y="-59.25" font-family="Helvetica,sans-Serif" font-size="10.00">::CreateAndDispatchWhenReady</text>
</a>
</g>
</g>
<!-- Node11&#45;&gt;Node12 -->
<g id="edge13_Node000011_Node000012" class="edge">
<title>Node11&#45;&gt;Node12</title>
<g id="a_edge13_Node000011_Node000012"><a xlink:title=" ">
<path fill="none" stroke="#63b8ff" d="M198.63,-68.75C190.64,-68.75 182.6,-68.75 174.7,-68.75"/>
<polygon fill="#63b8ff" stroke="#63b8ff" points="198.35,-72.25 208.35,-68.75 198.35,-65.25 198.35,-72.25"/>
</a>
</g>
</g>
<!-- Node14 -->
<g id="Node000014" class="node">
<title>Node14</title>
<g id="a_Node000014"><a xlink:href="$classFBaseGraphTask.html#a93d3f1e60f08d0000d611bc21892bad5" xlink:title=" ">
<polygon fill="white" stroke="#666666" points="370.25,-33.5 224.5,-33.5 224.5,0 370.25,0 370.25,-33.5"/>
<text xml:space="preserve" text-anchor="start" x="232.5" y="-20" font-family="Helvetica,sans-Serif" font-size="10.00">FBaseGraphTask::Dispatch</text>
<text xml:space="preserve" text-anchor="middle" x="297.38" y="-7.25" font-family="Helvetica,sans-Serif" font-size="10.00">Subsequents</text>
</a>
</g>
</g>
<!-- Node13&#45;&gt;Node14 -->
<g id="edge15_Node000013_Node000014" class="edge">
<title>Node13&#45;&gt;Node14</title>
<g id="a_edge15_Node000013_Node000014"><a xlink:title=" ">
<path fill="none" stroke="#63b8ff" d="M434.49,-19.28C413.62,-18.89 391.21,-18.47 370.73,-18.09"/>
<polygon fill="#63b8ff" stroke="#63b8ff" points="434.32,-22.78 444.39,-19.46 434.45,-15.78 434.32,-22.78"/>
</a>
</g>
</g>
<!-- Node15 -->
<g id="Node000015" class="node">
<title>Node15</title>
<g id="a_Node000015"><a xlink:href="$classFBaseGraphTask.html#ab2f851cdb545609e7799294d08f54c82" xlink:title=" ">
<polygon fill="white" stroke="#666666" points="160,-33.5 14.25,-33.5 14.25,0 160,0 160,-33.5"/>
<text xml:space="preserve" text-anchor="start" x="22.25" y="-20" font-family="Helvetica,sans-Serif" font-size="10.00">FBaseGraphTask::Dispatch</text>
<text xml:space="preserve" text-anchor="middle" x="87.12" y="-7.25" font-family="Helvetica,sans-Serif" font-size="10.00">Subsequents</text>
</a>
</g>
</g>
<!-- Node14&#45;&gt;Node15 -->
<g id="edge16_Node000014_Node000015" class="edge">
<title>Node14&#45;&gt;Node15</title>
<g id="a_edge16_Node000014_Node000015"><a xlink:title=" ">
<path fill="none" stroke="#63b8ff" d="M212.82,-16.75C195.41,-16.75 177.2,-16.75 160.25,-16.75"/>
<polygon fill="#63b8ff" stroke="#63b8ff" points="212.61,-20.25 222.61,-16.75 212.61,-13.25 212.61,-20.25"/>
</a>
</g>
</g>
</g>
</svg>
