<?xml version="1.0" encoding="UTF-8" standalone="no"?>
<!DOCTYPE svg PUBLIC "-//W3C//DTD SVG 1.1//EN"
 "http://www.w3.org/Graphics/SVG/1.1/DTD/svg11.dtd">
<!-- Generated by graphviz version 14.1.4 (0)
 -->
<!-- Title: UKismetMathLibrary::BreakVector_NetQuantizeNormal Pages: 1 -->
<svg width="345pt" height="60pt"
 viewBox="0.00 0.00 345.00 60.00" xmlns="http://www.w3.org/2000/svg" xmlns:xlink="http://www.w3.org/1999/xlink">
<g id="graph0" class="graph" transform="scale(1 1) rotate(0) translate(4 55.5)">
<title>UKismetMathLibrary::BreakVector_NetQuantizeNormal</title>
<!-- Node1 -->
<g id="Node000001" class="node">
<title>Node1</title>
<g id="a_Node000001"><a xlink:title=" ">
<polygon fill="#999999" stroke="#666666" points="184,-33.5 0,-33.5 0,0 184,0 184,-33.5"/>
<text xml:space="preserve" text-anchor="start" x="8" y="-20" font-family="Helvetica,sans-Serif" font-size="10.00">UKismetMathLibrary</text>
<text xml:space="preserve" text-anchor="middle" x="92" y="-7.25" font-family="Helvetica,sans-Serif" font-size="10.00">::BreakVector_NetQuantizeNormal</text>
</a>
</g>
</g>
<!-- Node1&#45;&gt;Node1 -->
<g id="edge2_Node000001_Node000001" class="edge">
<title>Node1&#45;&gt;Node1</title>
<g id="a_edge2_Node000001_Node000001"><a xlink:title=" ">
<path fill="none" stroke="#63b8ff" d="M58.52,-33.91C52.83,-43.12 63.99,-51.5 92,-51.5 107.76,-51.5 118.18,-48.85 123.27,-44.89"/>
<polygon fill="#63b8ff" stroke="#63b8ff" points="126.64,-45.89 125.18,-35.4 119.78,-44.51 126.64,-45.89"/>
</a>
</g>
</g>
<!-- Node2 -->
<g id="Node000002" class="node">
<title>Node2</title>
<g id="a_Node000002"><a xlink:href="classUKismetMathLibrary.html#a2a7fb6f02f6941f1e71f5f7dfb642f4b" target="_top" xlink:title=" ">
<polygon fill="white" stroke="#666666" points="336.5,-33.5 220,-33.5 220,0 336.5,0 336.5,-33.5"/>
<text xml:space="preserve" text-anchor="start" x="228" y="-20" font-family="Helvetica,sans-Serif" font-size="10.00">UKismetMathLibrary</text>
<text xml:space="preserve" text-anchor="middle" x="278.25" y="-7.25" font-family="Helvetica,sans-Serif" font-size="10.00">::BreakVector</text>
</a>
</g>
</g>
<!-- Node1&#45;&gt;Node2 -->
<g id="edge1_Node000001_Node000002" class="edge">
<title>Node1&#45;&gt;Node2</title>
<g id="a_edge1_Node000001_Node000002"><a xlink:title=" ">
<path fill="none" stroke="#63b8ff" d="M184.32,-16.75C192.4,-16.75 200.5,-16.75 208.35,-16.75"/>
<polygon fill="#63b8ff" stroke="#63b8ff" points="208.14,-20.25 218.14,-16.75 208.14,-13.25 208.14,-20.25"/>
</a>
</g>
</g>
</g>
</svg>
