<?xml version="1.0" encoding="UTF-8" standalone="no"?>
<!DOCTYPE svg PUBLIC "-//W3C//DTD SVG 1.1//EN"
 "http://www.w3.org/Graphics/SVG/1.1/DTD/svg11.dtd">
<!-- Generated by graphviz version 14.1.4 (0)
 -->
<!-- Title: FCbValue::AsIntegerNegative Pages: 1 -->
<svg width="412pt" height="29pt"
 viewBox="0.00 0.00 412.00 29.00" xmlns="http://www.w3.org/2000/svg" xmlns:xlink="http://www.w3.org/1999/xlink">
<g id="graph0" class="graph" transform="scale(1 1) rotate(0) translate(4 24.75)">
<title>FCbValue::AsIntegerNegative</title>
<!-- Node1 -->
<g id="Node000001" class="node">
<title>Node1</title>
<g id="a_Node000001"><a xlink:title=" ">
<polygon fill="#999999" stroke="#666666" points="159.25,-20.75 0,-20.75 0,0 159.25,0 159.25,-20.75"/>
<text xml:space="preserve" text-anchor="middle" x="79.62" y="-7.25" font-family="Helvetica,sans-Serif" font-size="10.00">FCbValue::AsIntegerNegative</text>
</a>
</g>
</g>
<!-- Node2 -->
<g id="Node000002" class="node">
<title>Node2</title>
<g id="a_Node000002"><a xlink:href="$VarInt_8h.html#abdc1350db9c665b923513bf8018b3fc4" xlink:title=" ">
<polygon fill="white" stroke="#666666" points="272.75,-20.75 195.25,-20.75 195.25,0 272.75,0 272.75,-20.75"/>
<text xml:space="preserve" text-anchor="middle" x="234" y="-7.25" font-family="Helvetica,sans-Serif" font-size="10.00">ReadVarUInt</text>
</a>
</g>
</g>
<!-- Node1&#45;&gt;Node2 -->
<g id="edge1_Node000001_Node000002" class="edge">
<title>Node1&#45;&gt;Node2</title>
<g id="a_edge1_Node000001_Node000002"><a xlink:title=" ">
<path fill="none" stroke="#63b8ff" d="M159.49,-10.38C167.69,-10.38 175.84,-10.38 183.58,-10.38"/>
<polygon fill="#63b8ff" stroke="#63b8ff" points="183.43,-13.88 193.43,-10.38 183.43,-6.88 183.43,-13.88"/>
</a>
</g>
</g>
<!-- Node3 -->
<g id="Node000003" class="node">
<title>Node3</title>
<g id="a_Node000003"><a xlink:href="$VarInt_8h.html#a4ee3736ca6050125d81ce6cc06b557c3" xlink:title=" ">
<polygon fill="white" stroke="#666666" points="403.5,-20.75 308.75,-20.75 308.75,0 403.5,0 403.5,-20.75"/>
<text xml:space="preserve" text-anchor="middle" x="356.12" y="-7.25" font-family="Helvetica,sans-Serif" font-size="10.00">MeasureVarUInt</text>
</a>
</g>
</g>
<!-- Node2&#45;&gt;Node3 -->
<g id="edge2_Node000002_Node000003" class="edge">
<title>Node2&#45;&gt;Node3</title>
<g id="a_edge2_Node000002_Node000003"><a xlink:title=" ">
<path fill="none" stroke="#63b8ff" d="M273.01,-10.38C280.67,-10.38 288.89,-10.38 297.06,-10.38"/>
<polygon fill="#63b8ff" stroke="#63b8ff" points="297,-13.88 307,-10.38 297,-6.88 297,-13.88"/>
</a>
</g>
</g>
</g>
</svg>
