<?xml version="1.0" encoding="UTF-8" standalone="no"?>
<!DOCTYPE svg PUBLIC "-//W3C//DTD SVG 1.1//EN"
 "http://www.w3.org/Graphics/SVG/1.1/DTD/svg11.dtd">
<!-- Generated by graphviz version 14.1.4 (0)
 -->
<!-- Title: FIOSErrorOutputDevice Pages: 1 -->
<svg width="166pt" height="561pt"
 viewBox="0.00 0.00 166.00 561.00" xmlns="http://www.w3.org/2000/svg" xmlns:xlink="http://www.w3.org/1999/xlink">
<g id="graph0" class="graph" transform="scale(1 1) rotate(0) translate(4 557)">
<title>FIOSErrorOutputDevice</title>
<!-- Node1 -->
<g id="Node000001" class="node">
<title>Node1</title>
<g id="a_Node000001"><a xlink:title=" ">
<polygon fill="#999999" stroke="none" points="148.88,-87.75 8.62,-87.75 8.62,0 148.88,0 148.88,-87.75"/>
<text xml:space="preserve" text-anchor="start" x="22.5" y="-74" font-family="Helvetica,sans-Serif" font-size="10.00">FIOSErrorOutputDevice</text>
<text xml:space="preserve" text-anchor="start" x="14.88" y="-57.25" font-family="Helvetica,sans-Serif" font-size="10.00">&#45;</text>
<text xml:space="preserve" text-anchor="start" x="24.88" y="-57.25" font-family="Helvetica,sans-Serif" font-size="10.00">ErrorPos</text>
<text xml:space="preserve" text-anchor="start" x="12.62" y="-40.5" font-family="Helvetica,sans-Serif" font-size="10.00">+</text>
<text xml:space="preserve" text-anchor="start" x="24.88" y="-40.5" font-family="Helvetica,sans-Serif" font-size="10.00">FIOSErrorOutputDevice()</text>
<text xml:space="preserve" text-anchor="start" x="12.62" y="-23.75" font-family="Helvetica,sans-Serif" font-size="10.00">+</text>
<text xml:space="preserve" text-anchor="start" x="24.88" y="-23.75" font-family="Helvetica,sans-Serif" font-size="10.00">Serialize()</text>
<text xml:space="preserve" text-anchor="start" x="12.62" y="-7" font-family="Helvetica,sans-Serif" font-size="10.00">+</text>
<text xml:space="preserve" text-anchor="start" x="24.88" y="-7" font-family="Helvetica,sans-Serif" font-size="10.00">HandleError()</text>
<polygon fill="#666666" stroke="#666666" points="8.62,-69 8.62,-69 148.88,-69 148.88,-69 8.62,-69"/>
<polygon fill="#666666" stroke="#666666" points="8.62,-52.25 8.62,-52.25 22.88,-52.25 22.88,-52.25 8.62,-52.25"/>
<polygon fill="#666666" stroke="#666666" points="22.88,-52.25 22.88,-52.25 148.88,-52.25 148.88,-52.25 22.88,-52.25"/>
<polygon fill="none" stroke="#666666" points="8.62,0 8.62,-87.75 148.88,-87.75 148.88,0 8.62,0"/>
</a>
</g>
</g>
<!-- Node2 -->
<g id="Node000002" class="node">
<title>Node2</title>
<g id="a_Node000002"><a xlink:href="$classFOutputDeviceError.html" xlink:title=" ">
<polygon fill="white" stroke="none" points="157.5,-228.25 0,-228.25 0,-123.75 157.5,-123.75 157.5,-228.25"/>
<text xml:space="preserve" text-anchor="start" x="30.75" y="-214.5" font-family="Helvetica,sans-Serif" font-size="10.00">FOutputDeviceError</text>
<text xml:space="preserve" text-anchor="start" x="6.25" y="-197.75" font-family="Helvetica,sans-Serif" font-size="10.00">&#45;</text>
<text xml:space="preserve" text-anchor="start" x="16.25" y="-197.75" font-family="Helvetica,sans-Serif" font-size="10.00">ProgramCounter</text>
<text xml:space="preserve" text-anchor="start" x="4" y="-181" font-family="Helvetica,sans-Serif" font-size="10.00">+</text>
<text xml:space="preserve" text-anchor="start" x="16.25" y="-181" font-family="Helvetica,sans-Serif" font-size="10.00">CanBeUsedOnPanicThread()</text>
<text xml:space="preserve" text-anchor="start" x="4" y="-164.25" font-family="Helvetica,sans-Serif" font-size="10.00">+</text>
<text xml:space="preserve" text-anchor="start" x="16.25" y="-164.25" font-family="Helvetica,sans-Serif" font-size="10.00">HandleError()</text>
<text xml:space="preserve" text-anchor="start" x="4" y="-147.5" font-family="Helvetica,sans-Serif" font-size="10.00">+</text>
<text xml:space="preserve" text-anchor="start" x="16.25" y="-147.5" font-family="Helvetica,sans-Serif" font-size="10.00">SetErrorProgramCounter()</text>
<text xml:space="preserve" text-anchor="start" x="4" y="-130.75" font-family="Helvetica,sans-Serif" font-size="10.00">+</text>
<text xml:space="preserve" text-anchor="start" x="16.25" y="-130.75" font-family="Helvetica,sans-Serif" font-size="10.00">GetErrorProgramCounter()</text>
<polygon fill="#666666" stroke="#666666" points="0,-209.5 0,-209.5 157.5,-209.5 157.5,-209.5 0,-209.5"/>
<polygon fill="#666666" stroke="#666666" points="0,-192.75 0,-192.75 14.25,-192.75 14.25,-192.75 0,-192.75"/>
<polygon fill="#666666" stroke="#666666" points="14.25,-192.75 14.25,-192.75 157.5,-192.75 157.5,-192.75 14.25,-192.75"/>
<polygon fill="none" stroke="#666666" points="0,-123.75 0,-228.25 157.5,-228.25 157.5,-123.75 0,-123.75"/>
</a>
</g>
</g>
<!-- Node2&#45;&gt;Node1 -->
<g id="edge1_Node000001_Node000002" class="edge">
<title>Node2&#45;&gt;Node1</title>
<g id="a_edge1_Node000001_Node000002"><a xlink:title=" ">
<path fill="none" stroke="#63b8ff" d="M78.75,-112.45C78.75,-103.96 78.75,-95.41 78.75,-87.38"/>
<polygon fill="none" stroke="#63b8ff" points="75.25,-112.43 78.75,-122.43 82.25,-112.43 75.25,-112.43"/>
</a>
</g>
</g>
<!-- Node3 -->
<g id="Node000003" class="node">
<title>Node3</title>
<g id="a_Node000003"><a xlink:href="$classFOutputDevice.html" xlink:title=" ">
<polygon fill="white" stroke="none" points="150.75,-553 6.75,-553 6.75,-264.25 150.75,-264.25 150.75,-553"/>
<text xml:space="preserve" text-anchor="start" x="42.38" y="-539.25" font-family="Helvetica,sans-Serif" font-size="10.00">FOutputDevice</text>
<text xml:space="preserve" text-anchor="start" x="10.75" y="-522.5" font-family="Helvetica,sans-Serif" font-size="10.00">#</text>
<text xml:space="preserve" text-anchor="start" x="23" y="-522.5" font-family="Helvetica,sans-Serif" font-size="10.00">bSuppressEventTag</text>
<text xml:space="preserve" text-anchor="start" x="10.75" y="-505.75" font-family="Helvetica,sans-Serif" font-size="10.00">#</text>
<text xml:space="preserve" text-anchor="start" x="23" y="-505.75" font-family="Helvetica,sans-Serif" font-size="10.00">bAutoEmitLineTerminator</text>
<text xml:space="preserve" text-anchor="start" x="10.75" y="-489" font-family="Helvetica,sans-Serif" font-size="10.00">+</text>
<text xml:space="preserve" text-anchor="start" x="23" y="-489" font-family="Helvetica,sans-Serif" font-size="10.00">FOutputDevice()</text>
<text xml:space="preserve" text-anchor="start" x="10.75" y="-472.25" font-family="Helvetica,sans-Serif" font-size="10.00">+</text>
<text xml:space="preserve" text-anchor="start" x="23" y="-472.25" font-family="Helvetica,sans-Serif" font-size="10.00">FOutputDevice()</text>
<text xml:space="preserve" text-anchor="start" x="10.75" y="-455.5" font-family="Helvetica,sans-Serif" font-size="10.00">+</text>
<text xml:space="preserve" text-anchor="start" x="23" y="-455.5" font-family="Helvetica,sans-Serif" font-size="10.00">FOutputDevice()</text>
<text xml:space="preserve" text-anchor="start" x="10.75" y="-438.75" font-family="Helvetica,sans-Serif" font-size="10.00">+</text>
<text xml:space="preserve" text-anchor="start" x="23" y="-438.75" font-family="Helvetica,sans-Serif" font-size="10.00">operator=()</text>
<text xml:space="preserve" text-anchor="start" x="10.75" y="-422" font-family="Helvetica,sans-Serif" font-size="10.00">+</text>
<text xml:space="preserve" text-anchor="start" x="23" y="-422" font-family="Helvetica,sans-Serif" font-size="10.00">operator=()</text>
<text xml:space="preserve" text-anchor="start" x="10.75" y="-405.25" font-family="Helvetica,sans-Serif" font-size="10.00">+</text>
<text xml:space="preserve" text-anchor="start" x="23" y="-405.25" font-family="Helvetica,sans-Serif" font-size="10.00">~FOutputDevice()</text>
<text xml:space="preserve" text-anchor="start" x="10.75" y="-388.5" font-family="Helvetica,sans-Serif" font-size="10.00">+</text>
<text xml:space="preserve" text-anchor="start" x="23" y="-388.5" font-family="Helvetica,sans-Serif" font-size="10.00">Serialize()</text>
<text xml:space="preserve" text-anchor="start" x="10.75" y="-371.75" font-family="Helvetica,sans-Serif" font-size="10.00">+</text>
<text xml:space="preserve" text-anchor="start" x="23" y="-371.75" font-family="Helvetica,sans-Serif" font-size="10.00">Serialize()</text>
<text xml:space="preserve" text-anchor="start" x="10.75" y="-355" font-family="Helvetica,sans-Serif" font-size="10.00">+</text>
<text xml:space="preserve" text-anchor="start" x="23" y="-355" font-family="Helvetica,sans-Serif" font-size="10.00">SerializeRecord()</text>
<text xml:space="preserve" text-anchor="start" x="10.75" y="-338.25" font-family="Helvetica,sans-Serif" font-size="10.00">+</text>
<text xml:space="preserve" text-anchor="start" x="23" y="-338.25" font-family="Helvetica,sans-Serif" font-size="10.00">Flush()</text>
<text xml:space="preserve" text-anchor="start" x="23" y="-321.5" font-family="Helvetica,sans-Serif" font-size="10.00">and 21 more...</text>
<text xml:space="preserve" text-anchor="start" x="13" y="-304.75" font-family="Helvetica,sans-Serif" font-size="10.00">&#45;</text>
<text xml:space="preserve" text-anchor="start" x="23" y="-304.75" font-family="Helvetica,sans-Serif" font-size="10.00">LogfImpl()</text>
<text xml:space="preserve" text-anchor="start" x="13" y="-288" font-family="Helvetica,sans-Serif" font-size="10.00">&#45;</text>
<text xml:space="preserve" text-anchor="start" x="23" y="-288" font-family="Helvetica,sans-Serif" font-size="10.00">LogfImpl()</text>
<text xml:space="preserve" text-anchor="start" x="13" y="-271.25" font-family="Helvetica,sans-Serif" font-size="10.00">&#45;</text>
<text xml:space="preserve" text-anchor="start" x="23" y="-271.25" font-family="Helvetica,sans-Serif" font-size="10.00">CategorizedLogfImpl()</text>
<polygon fill="#666666" stroke="#666666" points="6.75,-534.25 6.75,-534.25 150.75,-534.25 150.75,-534.25 6.75,-534.25"/>
<polygon fill="#666666" stroke="#666666" points="6.75,-500.75 6.75,-500.75 21,-500.75 21,-500.75 6.75,-500.75"/>
<polygon fill="#666666" stroke="#666666" points="21,-500.75 21,-500.75 150.75,-500.75 150.75,-500.75 21,-500.75"/>
<polygon fill="none" stroke="#666666" points="6.75,-264.25 6.75,-553 150.75,-553 150.75,-264.25 6.75,-264.25"/>
</a>
</g>
</g>
<!-- Node3&#45;&gt;Node2 -->
<g id="edge2_Node000002_Node000003" class="edge">
<title>Node3&#45;&gt;Node2</title>
<g id="a_edge2_Node000002_Node000003"><a xlink:title=" ">
<path fill="none" stroke="#63b8ff" d="M78.75,-253.21C78.75,-244.41 78.75,-235.96 78.75,-228.1"/>
<polygon fill="none" stroke="#63b8ff" points="75.25,-253 78.75,-263 82.25,-253 75.25,-253"/>
</a>
</g>
</g>
</g>
</svg>
