<?xml version="1.0" encoding="UTF-8" standalone="no"?>
<!DOCTYPE svg PUBLIC "-//W3C//DTD SVG 1.1//EN"
 "http://www.w3.org/Graphics/SVG/1.1/DTD/svg11.dtd">
<!-- Generated by graphviz version 14.1.4 (0)
 -->
<!-- Title: FPlatformFileOpenLog::OpenRead Pages: 1 -->
<svg width="393pt" height="42pt"
 viewBox="0.00 0.00 393.00 42.00" xmlns="http://www.w3.org/2000/svg" xmlns:xlink="http://www.w3.org/1999/xlink">
<g id="graph0" class="graph" transform="scale(1 1) rotate(0) translate(4 37.5)">
<title>FPlatformFileOpenLog::OpenRead</title>
<!-- Node1 -->
<g id="Node000001" class="node">
<title>Node1</title>
<g id="a_Node000001"><a xlink:title=" ">
<polygon fill="#999999" stroke="#666666" points="123.25,-33.5 0,-33.5 0,0 123.25,0 123.25,-33.5"/>
<text xml:space="preserve" text-anchor="start" x="8" y="-20" font-family="Helvetica,sans-Serif" font-size="10.00">FPlatformFileOpenLog</text>
<text xml:space="preserve" text-anchor="middle" x="61.62" y="-7.25" font-family="Helvetica,sans-Serif" font-size="10.00">::OpenRead</text>
</a>
</g>
</g>
<!-- Node2 -->
<g id="Node000002" class="node">
<title>Node2</title>
<g id="a_Node000002"><a xlink:href="$classFPlatformFileOpenLog.html#ab4939298d7547cee2b9ba9fccf7eac50" xlink:title=" ">
<polygon fill="white" stroke="#666666" points="282.5,-33.5 159.25,-33.5 159.25,0 282.5,0 282.5,-33.5"/>
<text xml:space="preserve" text-anchor="start" x="167.25" y="-20" font-family="Helvetica,sans-Serif" font-size="10.00">FPlatformFileOpenLog</text>
<text xml:space="preserve" text-anchor="middle" x="220.88" y="-7.25" font-family="Helvetica,sans-Serif" font-size="10.00">::AddToOpenLog</text>
</a>
</g>
</g>
<!-- Node1&#45;&gt;Node2 -->
<g id="edge1_Node000001_Node000002" class="edge">
<title>Node1&#45;&gt;Node2</title>
<g id="a_edge1_Node000001_Node000002"><a xlink:title=" ">
<path fill="none" stroke="#63b8ff" d="M123.42,-16.75C131.35,-16.75 139.54,-16.75 147.63,-16.75"/>
<polygon fill="#63b8ff" stroke="#63b8ff" points="147.47,-20.25 157.47,-16.75 147.47,-13.25 147.47,-20.25"/>
</a>
</g>
</g>
<!-- Node3 -->
<g id="Node000003" class="node">
<title>Node3</title>
<g id="a_Node000003"><a xlink:href="$StringConv_8h.html#a1130947032c6437b2697a6be97a94c40" xlink:title=" ">
<polygon fill="white" stroke="#666666" points="384.75,-27.12 318.5,-27.12 318.5,-6.38 384.75,-6.38 384.75,-27.12"/>
<text xml:space="preserve" text-anchor="middle" x="351.62" y="-13.62" font-family="Helvetica,sans-Serif" font-size="10.00">StringCast</text>
</a>
</g>
</g>
<!-- Node2&#45;&gt;Node3 -->
<g id="edge2_Node000002_Node000003" class="edge">
<title>Node2&#45;&gt;Node3</title>
<g id="a_edge2_Node000002_Node000003"><a xlink:title=" ">
<path fill="none" stroke="#63b8ff" d="M282.86,-16.75C290.97,-16.75 299.16,-16.75 306.9,-16.75"/>
<polygon fill="#63b8ff" stroke="#63b8ff" points="306.72,-20.25 316.72,-16.75 306.72,-13.25 306.72,-20.25"/>
</a>
</g>
</g>
</g>
</svg>
