<?xml version="1.0" encoding="UTF-8" standalone="no"?>
<!DOCTYPE svg PUBLIC "-//W3C//DTD SVG 1.1//EN"
 "http://www.w3.org/Graphics/SVG/1.1/DTD/svg11.dtd">
<!-- Generated by graphviz version 14.1.4 (0)
 -->
<!-- Title: IConsoleObject::IConsoleObject Pages: 1 -->
<svg width="345pt" height="94pt"
 viewBox="0.00 0.00 345.00 94.00" xmlns="http://www.w3.org/2000/svg" xmlns:xlink="http://www.w3.org/1999/xlink">
<g id="graph0" class="graph" transform="scale(1 1) rotate(0) translate(4 89.5)">
<title>IConsoleObject::IConsoleObject</title>
<!-- Node1 -->
<g id="Node000001" class="node">
<title>Node1</title>
<g id="a_Node000001"><a xlink:title=" ">
<polygon fill="#999999" stroke="#666666" points="336.5,-59.5 199,-59.5 199,-26 336.5,-26 336.5,-59.5"/>
<text xml:space="preserve" text-anchor="start" x="207" y="-46" font-family="Helvetica,sans-Serif" font-size="10.00">IConsoleObject::IConsole</text>
<text xml:space="preserve" text-anchor="middle" x="267.75" y="-33.25" font-family="Helvetica,sans-Serif" font-size="10.00">Object</text>
</a>
</g>
</g>
<!-- Node2 -->
<g id="Node000002" class="node">
<title>Node2</title>
<g id="a_Node000002"><a xlink:href="$classIConsoleObject.html#a0c80952a85dc0fc1c4b559eb5b92ca4b" xlink:title=" ">
<polygon fill="white" stroke="#666666" points="153.62,-85.5 9.38,-85.5 9.38,-52 153.62,-52 153.62,-85.5"/>
<text xml:space="preserve" text-anchor="start" x="17.38" y="-72" font-family="Helvetica,sans-Serif" font-size="10.00">IConsoleObject::GetParent</text>
<text xml:space="preserve" text-anchor="middle" x="81.5" y="-59.25" font-family="Helvetica,sans-Serif" font-size="10.00">Object</text>
</a>
</g>
</g>
<!-- Node1&#45;&gt;Node2 -->
<g id="edge1_Node000001_Node000002" class="edge">
<title>Node1&#45;&gt;Node2</title>
<g id="a_edge1_Node000001_Node000002"><a xlink:title=" ">
<path fill="none" stroke="#63b8ff" d="M187.61,-53.92C176.45,-55.49 165.02,-57.11 154.01,-58.66"/>
<polygon fill="#63b8ff" stroke="#63b8ff" points="187.75,-57.43 197.17,-52.57 186.78,-50.5 187.75,-57.43"/>
</a>
</g>
</g>
<!-- Node3 -->
<g id="Node000003" class="node">
<title>Node3</title>
<g id="a_Node000003"><a xlink:href="$classIConsoleObject.html#a1319b9f471811cb56e756d5919a29713" xlink:title=" ">
<polygon fill="white" stroke="#666666" points="163,-33.5 0,-33.5 0,0 163,0 163,-33.5"/>
<text xml:space="preserve" text-anchor="start" x="8" y="-20" font-family="Helvetica,sans-Serif" font-size="10.00">IConsoleObject::GetShadowed</text>
<text xml:space="preserve" text-anchor="middle" x="81.5" y="-7.25" font-family="Helvetica,sans-Serif" font-size="10.00">Object</text>
</a>
</g>
</g>
<!-- Node1&#45;&gt;Node3 -->
<g id="edge2_Node000001_Node000003" class="edge">
<title>Node1&#45;&gt;Node3</title>
<g id="a_edge2_Node000001_Node000003"><a xlink:title=" ">
<path fill="none" stroke="#63b8ff" d="M187.49,-31.57C179.51,-30.44 171.4,-29.29 163.4,-28.17"/>
<polygon fill="#63b8ff" stroke="#63b8ff" points="186.78,-35 197.17,-32.93 187.75,-28.07 186.78,-35"/>
</a>
</g>
</g>
</g>
</svg>
