<?xml version="1.0" encoding="UTF-8" standalone="no"?>
<!DOCTYPE svg PUBLIC "-//W3C//DTD SVG 1.1//EN"
 "http://www.w3.org/Graphics/SVG/1.1/DTD/svg11.dtd">
<!-- Generated by graphviz version 14.1.4 (0)
 -->
<!-- Title: FLockFreePointerFIFOBase::FLockFreePointerFIFOBase Pages: 1 -->
<svg width="312pt" height="60pt"
 viewBox="0.00 0.00 312.00 60.00" xmlns="http://www.w3.org/2000/svg" xmlns:xlink="http://www.w3.org/1999/xlink">
<g id="graph0" class="graph" transform="scale(1 1) rotate(0) translate(4 55.5)">
<title>FLockFreePointerFIFOBase::FLockFreePointerFIFOBase</title>
<!-- Node1 -->
<g id="Node000001" class="node">
<title>Node1</title>
<g id="a_Node000001"><a xlink:title=" ">
<polygon fill="#999999" stroke="#666666" points="152.5,-33.5 0,-33.5 0,0 152.5,0 152.5,-33.5"/>
<text xml:space="preserve" text-anchor="start" x="8" y="-20" font-family="Helvetica,sans-Serif" font-size="10.00">FLockFreePointerFIFOBase</text>
<text xml:space="preserve" text-anchor="middle" x="76.25" y="-7.25" font-family="Helvetica,sans-Serif" font-size="10.00">::FLockFreePointerFIFOBase</text>
</a>
</g>
</g>
<!-- Node1&#45;&gt;Node1 -->
<g id="edge2_Node000001_Node000001" class="edge">
<title>Node1&#45;&gt;Node1</title>
<g id="a_edge2_Node000001_Node000001"><a xlink:title=" ">
<path fill="none" stroke="#63b8ff" d="M45.74,-33.91C40.55,-43.12 50.72,-51.5 76.25,-51.5 90.61,-51.5 100.11,-48.85 104.75,-44.89"/>
<polygon fill="#63b8ff" stroke="#63b8ff" points="108.13,-45.87 106.49,-35.4 101.25,-44.61 108.13,-45.87"/>
</a>
</g>
</g>
<!-- Node2 -->
<g id="Node000002" class="node">
<title>Node2</title>
<g id="a_Node000002"><a xlink:href="$structFLockFreeLinkPolicy.html#a2779cb714dd824d5a8cf6765f03bac42" xlink:title=" ">
<polygon fill="white" stroke="#666666" points="303.5,-33.5 188.5,-33.5 188.5,0 303.5,0 303.5,-33.5"/>
<text xml:space="preserve" text-anchor="start" x="196.5" y="-20" font-family="Helvetica,sans-Serif" font-size="10.00">FLockFreeLinkPolicy</text>
<text xml:space="preserve" text-anchor="middle" x="246" y="-7.25" font-family="Helvetica,sans-Serif" font-size="10.00">::AllocLockFreeLink</text>
</a>
</g>
</g>
<!-- Node1&#45;&gt;Node2 -->
<g id="edge1_Node000001_Node000002" class="edge">
<title>Node1&#45;&gt;Node2</title>
<g id="a_edge1_Node000001_Node000002"><a xlink:title=" ">
<path fill="none" stroke="#63b8ff" d="M152.78,-16.75C160.85,-16.75 169.01,-16.75 176.98,-16.75"/>
<polygon fill="#63b8ff" stroke="#63b8ff" points="176.97,-20.25 186.97,-16.75 176.97,-13.25 176.97,-20.25"/>
</a>
</g>
</g>
</g>
</svg>
