<?xml version="1.0" encoding="UTF-8" standalone="no"?>
<!DOCTYPE svg PUBLIC "-//W3C//DTD SVG 1.1//EN"
 "http://www.w3.org/Graphics/SVG/1.1/DTD/svg11.dtd">
<!-- Generated by graphviz version 14.1.4 (0)
 -->
<!-- Title: FVariant::FVariant Pages: 1 -->
<svg width="384pt" height="29pt"
 viewBox="0.00 0.00 384.00 29.00" xmlns="http://www.w3.org/2000/svg" xmlns:xlink="http://www.w3.org/1999/xlink">
<g id="graph0" class="graph" transform="scale(1 1) rotate(0) translate(4 24.75)">
<title>FVariant::FVariant</title>
<!-- Node1 -->
<g id="Node000001" class="node">
<title>Node1</title>
<g id="a_Node000001"><a xlink:title=" ">
<polygon fill="#999999" stroke="#666666" points="104.5,-20.75 0,-20.75 0,0 104.5,0 104.5,-20.75"/>
<text xml:space="preserve" text-anchor="middle" x="52.25" y="-7.25" font-family="Helvetica,sans-Serif" font-size="10.00">FVariant::FVariant</text>
</a>
</g>
</g>
<!-- Node2 -->
<g id="Node000002" class="node">
<title>Node2</title>
<g id="a_Node000002"><a xlink:href="$classFVariant.html#a18eb5432dea8ab59d5373d6a426c0e6a" xlink:title=" ">
<polygon fill="white" stroke="#666666" points="245,-20.75 140.5,-20.75 140.5,0 245,0 245,-20.75"/>
<text xml:space="preserve" text-anchor="middle" x="192.75" y="-7.25" font-family="Helvetica,sans-Serif" font-size="10.00">FVariant::FVariant</text>
</a>
</g>
</g>
<!-- Node1&#45;&gt;Node2 -->
<g id="edge1_Node000001_Node000002" class="edge">
<title>Node1&#45;&gt;Node2</title>
<g id="a_edge1_Node000001_Node000002"><a xlink:title=" ">
<path fill="none" stroke="#63b8ff" d="M104.82,-10.38C112.66,-10.38 120.83,-10.38 128.88,-10.38"/>
<polygon fill="#63b8ff" stroke="#63b8ff" points="128.62,-13.88 138.62,-10.38 128.62,-6.88 128.62,-13.88"/>
</a>
</g>
</g>
<!-- Node3 -->
<g id="Node000003" class="node">
<title>Node3</title>
<g id="a_Node000003"><a xlink:href="$classFVariant.html#a84dc95c679e32737efa2447b7399375a" xlink:title=" ">
<polygon fill="white" stroke="#666666" points="375.75,-20.75 281,-20.75 281,0 375.75,0 375.75,-20.75"/>
<text xml:space="preserve" text-anchor="middle" x="328.38" y="-7.25" font-family="Helvetica,sans-Serif" font-size="10.00">FVariant::Empty</text>
</a>
</g>
</g>
<!-- Node2&#45;&gt;Node3 -->
<g id="edge2_Node000002_Node000003" class="edge">
<title>Node2&#45;&gt;Node3</title>
<g id="a_edge2_Node000002_Node000003"><a xlink:title=" ">
<path fill="none" stroke="#63b8ff" d="M245.41,-10.38C253.21,-10.38 261.3,-10.38 269.22,-10.38"/>
<polygon fill="#63b8ff" stroke="#63b8ff" points="269.14,-13.88 279.14,-10.38 269.14,-6.88 269.14,-13.88"/>
</a>
</g>
</g>
</g>
</svg>
