<?xml version="1.0" encoding="UTF-8" standalone="no"?>
<!DOCTYPE svg PUBLIC "-//W3C//DTD SVG 1.1//EN"
 "http://www.w3.org/Graphics/SVG/1.1/DTD/svg11.dtd">
<!-- Generated by graphviz version 14.1.4 (0)
 -->
<!-- Title: ACharacter::ClientAckGoodMove Pages: 1 -->
<!--zoomable 311 -->

<svg id="main" version="1.1" xmlns="http://www.w3.org/2000/svg" xmlns:xlink="http://www.w3.org/1999/xlink" xml:space="preserve" onload="init(evt)">

<style type="text/css"><![CDATA[
.node, .edge {opacity: 0.7;}
.node.selected, .edge.selected {opacity: 1;}
.edge:hover path { stroke: red; }
.edge:hover polygon { stroke: red; fill: red; }
]]></style>

<defs>
  <circle id="rim" cx="0" cy="0" r="7"/>
  <circle id="rim2" cx="0" cy="0" r="3.5"/>
  <g id="zoomPlus">
    <use xlink:href="#rim" fill="#404040"><set attributeName="fill" to="#808080" begin="zoomplus.mouseover" end="zoomplus.mouseout"/></use>
    <path d="M-4,0h8M0,-4v8" fill="none" stroke="white" stroke-width="1.5" pointer-events="none"/>
  </g>
  <g id="zoomMin">
    <use xlink:href="#rim" fill="#404040"><set attributeName="fill" to="#808080" begin="zoomminus.mouseover" end="zoomminus.mouseout"/></use>
    <path d="M-4,0h8" fill="none" stroke="white" stroke-width="1.5" pointer-events="none"/>
  </g>
  <g id="arrowUp" transform="translate(30 24)">
    <use xlink:href="#rim"/>
    <path pointer-events="none" fill="none" stroke="white" stroke-width="1.5" d="M0,-3.0v7 M-2.5,-0.5L0,-3.0L2.5,-0.5"/>
  </g>
  <g id="arrowRight" transform="rotate(90) translate(36 -43)">
    <use xlink:href="#rim"/>
    <path pointer-events="none" fill="none" stroke="white" stroke-width="1.5" d="M0,-3.0v7 M-2.5,-0.5L0,-3.0L2.5,-0.5"/>
  </g>
  <g id="arrowDown" transform="rotate(180) translate(-30 -48)">
    <use xlink:href="#rim"/>
    <path pointer-events="none" fill="none" stroke="white" stroke-width="1.5" d="M0,-3.0v7 M-2.5,-0.5L0,-3.0L2.5,-0.5"/>
  </g>
  <g id="arrowLeft" transform="rotate(270) translate(-36 17)">
    <use xlink:href="#rim"/>
    <path pointer-events="none" fill="none" stroke="white" stroke-width="1.5" d="M0,-3.0v7 M-2.5,-0.5L0,-3.0L2.5,-0.5"/>
  </g>
  <g id="resetDef">
    <use xlink:href="#rim2" fill="#404040"><set attributeName="fill" to="#808080" begin="reset.mouseover" end="reset.mouseout"/></use>
  </g>
</defs>
<script type="application/ecmascript">
var viewWidth = 1937;
var viewHeight = 311;
var sectionId = 'dynsection-27';
</script>
<script type="application/ecmascript" xlink:href="svg.min.js"/>
<svg id="graph" class="graph">
<g id="viewport">
<title>ACharacter::ClientAckGoodMove</title>
<!-- Node1 -->
<g id="Node000001" class="node">
<title>Node1</title>
<g id="a_Node000001"><a xlink:title=" ">
<polygon fill="#999999" stroke="#666666" points="175,-285.38 0,-285.38 0,-264.62 175,-264.62 175,-285.38"/>
<text xml:space="preserve" text-anchor="middle" x="87.5" y="-271.88" font-family="Helvetica,sans-Serif" font-size="10.00">ACharacter::ClientAckGoodMove</text>
</a>
</g>
</g>
<!-- Node1&#45;&gt;Node1 -->
<g id="edge1_Node000001_Node000001" class="edge">
<title>Node1&#45;&gt;Node1</title>
<g id="a_edge1_Node000001_Node000001"><a xlink:title=" ">
<path fill="none" stroke="#63b8ff" d="M55.68,-285.77C42.95,-294.43 53.55,-303.38 87.5,-303.38 106.06,-303.38 117.65,-300.7 122.25,-296.86"/>
<polygon fill="#63b8ff" stroke="#63b8ff" points="125.65,-296.01 119.71,-287.24 118.88,-297.8 125.65,-296.01"/>
</a>
</g>
</g>
<!-- Node2 -->
<g id="Node000002" class="node">
<title>Node2</title>
<g id="a_Node000002"><a xlink:href="classACharacter.html#a51eea92e20f91b60b802475aba2bbcfa" target="_top" xlink:title=" ">
<polygon fill="white" stroke="#666666" points="359,-222.75 211,-222.75 211,-189.25 359,-189.25 359,-222.75"/>
<text xml:space="preserve" text-anchor="start" x="219" y="-209.25" font-family="Helvetica,sans-Serif" font-size="10.00">ACharacter::ClientAckGood</text>
<text xml:space="preserve" text-anchor="middle" x="285" y="-196.5" font-family="Helvetica,sans-Serif" font-size="10.00">Move_Implementation</text>
</a>
</g>
</g>
<!-- Node1&#45;&gt;Node2 -->
<g id="edge2_Node000001_Node000002" class="edge">
<title>Node1&#45;&gt;Node2</title>
<g id="a_edge2_Node000001_Node000002"><a xlink:title=" ">
<path fill="none" stroke="#63b8ff" d="M119.05,-264.22C147.27,-254.26 189.98,-239.18 224.87,-226.87"/>
<polygon fill="#63b8ff" stroke="#63b8ff" points="225.73,-230.28 234,-223.65 223.4,-223.68 225.73,-230.28"/>
</a>
</g>
</g>
<!-- Node7 -->
<g id="Node000007" class="node">
<title>Node7</title>
<g id="a_Node000007"><a xlink:href="classACharacter.html#a58b40bb30090e728a70c532915b8b331" target="_top" xlink:title=" ">
<polygon fill="white" stroke="#666666" points="1929.25,-238.75 1750.5,-238.75 1750.5,-205.25 1929.25,-205.25 1929.25,-238.75"/>
<text xml:space="preserve" text-anchor="start" x="1758.5" y="-225.25" font-family="Helvetica,sans-Serif" font-size="10.00">ACharacter::ClientMoveResponse</text>
<text xml:space="preserve" text-anchor="middle" x="1839.88" y="-212.5" font-family="Helvetica,sans-Serif" font-size="10.00">Packed_Implementation</text>
</a>
</g>
</g>
<!-- Node1&#45;&gt;Node7 -->
<g id="edge30_Node000001_Node000007" class="edge">
<title>Node1&#45;&gt;Node7</title>
<g id="a_edge30_Node000001_Node000007"><a xlink:title=" ">
<path fill="none" stroke="#63b8ff" d="M175.48,-283.4C251.05,-289.97 363.46,-298 461.62,-298 461.62,-298 461.62,-298 1403.5,-298 1542.7,-298 1578.39,-290.17 1714.5,-261 1736.35,-256.32 1759.85,-249.44 1780.48,-242.77"/>
<polygon fill="#63b8ff" stroke="#63b8ff" points="1781.45,-246.13 1789.86,-239.67 1779.26,-239.48 1781.45,-246.13"/>
</a>
</g>
</g>
<!-- Node2&#45;&gt;Node2 -->
<g id="edge3_Node000002_Node000002" class="edge">
<title>Node2&#45;&gt;Node2</title>
<g id="a_edge3_Node000002_Node000002"><a xlink:title=" ">
<path fill="none" stroke="#63b8ff" d="M253.07,-223.16C247.64,-232.37 258.29,-240.75 285,-240.75 300.03,-240.75 309.97,-238.1 314.82,-234.14"/>
<polygon fill="#63b8ff" stroke="#63b8ff" points="318.2,-235.13 316.65,-224.65 311.32,-233.81 318.2,-235.13"/>
</a>
</g>
</g>
<!-- Node3 -->
<g id="Node000003" class="node">
<title>Node3</title>
<g id="a_Node000003"><a xlink:href="classACharacter.html#ad8748e564ceaf296793b192f5d337f15" target="_top" xlink:title=" ">
<polygon fill="white" stroke="#666666" points="530.25,-222.75 395,-222.75 395,-189.25 530.25,-189.25 530.25,-222.75"/>
<text xml:space="preserve" text-anchor="start" x="403" y="-209.25" font-family="Helvetica,sans-Serif" font-size="10.00">ACharacter::ClientAdjust</text>
<text xml:space="preserve" text-anchor="middle" x="462.62" y="-196.5" font-family="Helvetica,sans-Serif" font-size="10.00">Position</text>
</a>
</g>
</g>
<!-- Node2&#45;&gt;Node3 -->
<g id="edge4_Node000002_Node000003" class="edge">
<title>Node2&#45;&gt;Node3</title>
<g id="a_edge4_Node000002_Node000003"><a xlink:title=" ">
<path fill="none" stroke="#63b8ff" d="M359.46,-206C367.29,-206 375.28,-206 383.17,-206"/>
<polygon fill="#63b8ff" stroke="#63b8ff" points="383.1,-209.5 393.1,-206 383.1,-202.5 383.1,-209.5"/>
</a>
</g>
</g>
<!-- Node5 -->
<g id="Node000005" class="node">
<title>Node5</title>
<g id="a_Node000005"><a xlink:href="classACharacter.html#ad9bfc832e8114ebbe9cabcf189eb2ef2" target="_top" xlink:title=" ">
<polygon fill="white" stroke="#666666" points="1714.5,-61.75 1535.75,-61.75 1535.75,-28.25 1714.5,-28.25 1714.5,-61.75"/>
<text xml:space="preserve" text-anchor="start" x="1543.75" y="-48.25" font-family="Helvetica,sans-Serif" font-size="10.00">ACharacter::ClientMoveResponse</text>
<text xml:space="preserve" text-anchor="middle" x="1625.12" y="-35.5" font-family="Helvetica,sans-Serif" font-size="10.00">Packed</text>
</a>
</g>
</g>
<!-- Node2&#45;&gt;Node5 -->
<g id="edge29_Node000002_Node000005" class="edge">
<title>Node2&#45;&gt;Node5</title>
<g id="a_edge29_Node000002_Node000005"><a xlink:title=" ">
<path fill="none" stroke="#63b8ff" d="M301.09,-188.79C346.26,-139.28 486.47,0 634.38,0 634.38,0 634.38,0 1202.62,0 1313.2,0 1439.18,-15.5 1524.38,-28.31"/>
<polygon fill="#63b8ff" stroke="#63b8ff" points="1523.7,-31.74 1534.11,-29.79 1524.75,-24.82 1523.7,-31.74"/>
</a>
</g>
</g>
<!-- Node3&#45;&gt;Node3 -->
<g id="edge5_Node000003_Node000003" class="edge">
<title>Node3&#45;&gt;Node3</title>
<g id="a_edge5_Node000003_Node000003"><a xlink:title=" ">
<path fill="none" stroke="#63b8ff" d="M431.57,-223.16C426.29,-232.37 436.65,-240.75 462.62,-240.75 477.24,-240.75 486.91,-238.1 491.63,-234.14"/>
<polygon fill="#63b8ff" stroke="#63b8ff" points="495.01,-235.12 493.4,-224.65 488.13,-233.84 495.01,-235.12"/>
</a>
</g>
</g>
<!-- Node4 -->
<g id="Node000004" class="node">
<title>Node4</title>
<g id="a_Node000004"><a xlink:href="classACharacter.html#afdf2149a2f65320e968ad0b2c0791765" target="_top" xlink:title=" ">
<polygon fill="white" stroke="#666666" points="704.5,-178.75 566.25,-178.75 566.25,-145.25 704.5,-145.25 704.5,-178.75"/>
<text xml:space="preserve" text-anchor="start" x="574.25" y="-165.25" font-family="Helvetica,sans-Serif" font-size="10.00">ACharacter::ClientAdjust</text>
<text xml:space="preserve" text-anchor="middle" x="635.38" y="-152.5" font-family="Helvetica,sans-Serif" font-size="10.00">Position_Implementation</text>
</a>
</g>
</g>
<!-- Node3&#45;&gt;Node4 -->
<g id="edge6_Node000003_Node000004" class="edge">
<title>Node3&#45;&gt;Node4</title>
<g id="a_edge6_Node000003_Node000004"><a xlink:title=" ">
<path fill="none" stroke="#63b8ff" d="M530.13,-188.86C538.76,-186.64 547.65,-184.35 556.44,-182.08"/>
<polygon fill="#63b8ff" stroke="#63b8ff" points="557.21,-185.5 566.02,-179.61 555.47,-178.72 557.21,-185.5"/>
</a>
</g>
</g>
<!-- Node3&#45;&gt;Node7 -->
<g id="edge28_Node000003_Node000007" class="edge">
<title>Node3&#45;&gt;Node7</title>
<g id="a_edge28_Node000003_Node000007"><a xlink:title=" ">
<path fill="none" stroke="#63b8ff" d="M530.66,-222.5C601.16,-238.38 715.56,-260 815.75,-260 815.75,-260 815.75,-260 1403.5,-260 1518.89,-260 1650.84,-246.59 1738.94,-235.7"/>
<polygon fill="#63b8ff" stroke="#63b8ff" points="1739.28,-239.19 1748.77,-234.47 1738.41,-232.24 1739.28,-239.19"/>
</a>
</g>
</g>
<!-- Node4&#45;&gt;Node4 -->
<g id="edge7_Node000004_Node000004" class="edge">
<title>Node4&#45;&gt;Node4</title>
<g id="a_edge7_Node000004_Node000004"><a xlink:title=" ">
<path fill="none" stroke="#63b8ff" d="M604.32,-179.16C599.04,-188.37 609.4,-196.75 635.38,-196.75 649.99,-196.75 659.66,-194.1 664.38,-190.14"/>
<polygon fill="#63b8ff" stroke="#63b8ff" points="667.76,-191.12 666.15,-180.65 660.88,-189.84 667.76,-191.12"/>
</a>
</g>
</g>
<!-- Node4&#45;&gt;Node5 -->
<g id="edge8_Node000004_Node000005" class="edge">
<title>Node4&#45;&gt;Node5</title>
<g id="a_edge8_Node000004_Node000005"><a xlink:title=" ">
<path fill="none" stroke="#63b8ff" d="M666.47,-144.76C728.85,-110.69 877.74,-38 1012.5,-38 1012.5,-38 1012.5,-38 1202.62,-38 1312.59,-38 1438.67,-40.41 1524.07,-42.4"/>
<polygon fill="#63b8ff" stroke="#63b8ff" points="1523.73,-45.9 1533.81,-42.63 1523.9,-38.9 1523.73,-45.9"/>
</a>
</g>
</g>
<!-- Node6 -->
<g id="Node000006" class="node">
<title>Node6</title>
<g id="a_Node000006"><a xlink:href="classACharacter.html#a1aff7dc889d92776e88b2a501564f8b0" target="_top" xlink:title=" ">
<polygon fill="white" stroke="#666666" points="893,-178.75 740.5,-178.75 740.5,-145.25 893,-145.25 893,-178.75"/>
<text xml:space="preserve" text-anchor="start" x="748.5" y="-165.25" font-family="Helvetica,sans-Serif" font-size="10.00">ACharacter::ClientVeryShort</text>
<text xml:space="preserve" text-anchor="middle" x="816.75" y="-152.5" font-family="Helvetica,sans-Serif" font-size="10.00">AdjustPosition</text>
</a>
</g>
</g>
<!-- Node4&#45;&gt;Node6 -->
<g id="edge10_Node000004_Node000006" class="edge">
<title>Node4&#45;&gt;Node6</title>
<g id="a_edge10_Node000004_Node000006"><a xlink:title=" ">
<path fill="none" stroke="#63b8ff" d="M704.96,-162C712.75,-162 720.78,-162 728.77,-162"/>
<polygon fill="#63b8ff" stroke="#63b8ff" points="728.52,-165.5 738.52,-162 728.52,-158.5 728.52,-165.5"/>
</a>
</g>
</g>
<!-- Node5&#45;&gt;Node5 -->
<g id="edge9_Node000005_Node000005" class="edge">
<title>Node5&#45;&gt;Node5</title>
<g id="a_edge9_Node000005_Node000005"><a xlink:title=" ">
<path fill="none" stroke="#63b8ff" d="M1586.52,-62.16C1579.96,-71.37 1592.83,-79.75 1625.12,-79.75 1643.04,-79.75 1654.98,-77.17 1660.94,-73.3"/>
<polygon fill="#63b8ff" stroke="#63b8ff" points="1664.32,-74.18 1663.36,-63.63 1657.53,-72.48 1664.32,-74.18"/>
</a>
</g>
</g>
<!-- Node6&#45;&gt;Node6 -->
<g id="edge13_Node000006_Node000006" class="edge">
<title>Node6&#45;&gt;Node6</title>
<g id="a_edge13_Node000006_Node000006"><a xlink:title=" ">
<path fill="none" stroke="#63b8ff" d="M784.15,-179.16C778.6,-188.37 789.47,-196.75 816.75,-196.75 832.09,-196.75 842.24,-194.1 847.2,-190.14"/>
<polygon fill="#63b8ff" stroke="#63b8ff" points="850.58,-191.14 849.06,-180.65 843.71,-189.79 850.58,-191.14"/>
</a>
</g>
</g>
<!-- Node6&#45;&gt;Node7 -->
<g id="edge11_Node000006_Node000007" class="edge">
<title>Node6&#45;&gt;Node7</title>
<g id="a_edge11_Node000006_Node000007"><a xlink:title=" ">
<path fill="none" stroke="#63b8ff" d="M885.72,-179.19C961.88,-196.92 1089.27,-222 1200.62,-222 1200.62,-222 1200.62,-222 1403.5,-222 1518.45,-222 1650.48,-222 1738.72,-222"/>
<polygon fill="#63b8ff" stroke="#63b8ff" points="1738.56,-225.5 1748.56,-222 1738.56,-218.5 1738.56,-225.5"/>
</a>
</g>
</g>
<!-- Node8 -->
<g id="Node000008" class="node">
<title>Node8</title>
<g id="a_Node000008"><a xlink:href="classACharacter.html#aa79b4caec3622e3749f7a5b27f2331c2" target="_top" xlink:title=" ">
<polygon fill="white" stroke="#666666" points="1098,-156.75 929,-156.75 929,-123.25 1098,-123.25 1098,-156.75"/>
<text xml:space="preserve" text-anchor="start" x="937" y="-143.25" font-family="Helvetica,sans-Serif" font-size="10.00">ACharacter::ClientVeryShort</text>
<text xml:space="preserve" text-anchor="middle" x="1013.5" y="-130.5" font-family="Helvetica,sans-Serif" font-size="10.00">AdjustPosition_Implementation</text>
</a>
</g>
</g>
<!-- Node6&#45;&gt;Node8 -->
<g id="edge14_Node000006_Node000008" class="edge">
<title>Node6&#45;&gt;Node8</title>
<g id="a_edge14_Node000006_Node000008"><a xlink:title=" ">
<path fill="none" stroke="#63b8ff" d="M893.32,-153.46C901.17,-152.58 909.22,-151.67 917.25,-150.76"/>
<polygon fill="#63b8ff" stroke="#63b8ff" points="917.52,-154.25 927.06,-149.65 916.73,-147.3 917.52,-154.25"/>
</a>
</g>
</g>
<!-- Node7&#45;&gt;Node7 -->
<g id="edge12_Node000007_Node000007" class="edge">
<title>Node7&#45;&gt;Node7</title>
<g id="a_edge12_Node000007_Node000007"><a xlink:title=" ">
<path fill="none" stroke="#63b8ff" d="M1801.27,-239.16C1794.71,-248.37 1807.58,-256.75 1839.88,-256.75 1857.79,-256.75 1869.73,-254.17 1875.69,-250.3"/>
<polygon fill="#63b8ff" stroke="#63b8ff" points="1879.07,-251.18 1878.11,-240.63 1872.28,-249.48 1879.07,-251.18"/>
</a>
</g>
</g>
<!-- Node8&#45;&gt;Node5 -->
<g id="edge26_Node000008_Node000005" class="edge">
<title>Node8&#45;&gt;Node5</title>
<g id="a_edge26_Node000008_Node000005"><a xlink:title=" ">
<path fill="none" stroke="#63b8ff" d="M1089.55,-122.78C1104.25,-119.66 1119.58,-116.58 1134,-114 1268.39,-89.95 1424.75,-69.18 1524.05,-56.88"/>
<polygon fill="#63b8ff" stroke="#63b8ff" points="1524.27,-60.37 1533.77,-55.68 1523.41,-53.43 1524.27,-60.37"/>
</a>
</g>
</g>
<!-- Node8&#45;&gt;Node8 -->
<g id="edge27_Node000008_Node000008" class="edge">
<title>Node8&#45;&gt;Node8</title>
<g id="a_edge27_Node000008_Node000008"><a xlink:title=" ">
<path fill="none" stroke="#63b8ff" d="M979.68,-157.16C973.94,-166.37 985.21,-174.75 1013.5,-174.75 1029.41,-174.75 1039.94,-172.1 1045.09,-168.14"/>
<polygon fill="#63b8ff" stroke="#63b8ff" points="1048.45,-169.14 1047.02,-158.65 1041.6,-167.75 1048.45,-169.14"/>
</a>
</g>
</g>
<!-- Node9 -->
<g id="Node000009" class="node">
<title>Node9</title>
<g id="a_Node000009"><a xlink:href="classACharacter.html#a5493f24d5ccbc006667506073b49bef7" target="_top" xlink:title=" ">
<polygon fill="white" stroke="#666666" points="1269.25,-156.75 1134,-156.75 1134,-123.25 1269.25,-123.25 1269.25,-156.75"/>
<text xml:space="preserve" text-anchor="start" x="1142" y="-143.25" font-family="Helvetica,sans-Serif" font-size="10.00">ACharacter::ClientAdjust</text>
<text xml:space="preserve" text-anchor="middle" x="1201.62" y="-130.5" font-family="Helvetica,sans-Serif" font-size="10.00">RootMotionPosition</text>
</a>
</g>
</g>
<!-- Node8&#45;&gt;Node9 -->
<g id="edge15_Node000008_Node000009" class="edge">
<title>Node8&#45;&gt;Node9</title>
<g id="a_edge15_Node000008_Node000009"><a xlink:title=" ">
<path fill="none" stroke="#63b8ff" d="M1098.31,-140C1106.28,-140 1114.35,-140 1122.27,-140"/>
<polygon fill="#63b8ff" stroke="#63b8ff" points="1122.22,-143.5 1132.22,-140 1122.22,-136.5 1122.22,-143.5"/>
</a>
</g>
</g>
<!-- Node9&#45;&gt;Node7 -->
<g id="edge25_Node000009_Node000007" class="edge">
<title>Node9&#45;&gt;Node7</title>
<g id="a_edge25_Node000009_Node000007"><a xlink:title=" ">
<path fill="none" stroke="#63b8ff" d="M1267.5,-157.2C1279.96,-160.1 1292.96,-162.87 1305.25,-165 1485.45,-196.27 1532.68,-188.22 1714.5,-208 1722.45,-208.86 1730.68,-209.77 1738.94,-210.69"/>
<polygon fill="#63b8ff" stroke="#63b8ff" points="1738.39,-214.15 1748.72,-211.77 1739.16,-207.19 1738.39,-214.15"/>
</a>
</g>
</g>
<!-- Node9&#45;&gt;Node9 -->
<g id="edge16_Node000009_Node000009" class="edge">
<title>Node9&#45;&gt;Node9</title>
<g id="a_edge16_Node000009_Node000009"><a xlink:title=" ">
<path fill="none" stroke="#63b8ff" d="M1167.81,-157.16C1162.06,-166.37 1173.33,-174.75 1201.62,-174.75 1217.54,-174.75 1228.07,-172.1 1233.21,-168.14"/>
<polygon fill="#63b8ff" stroke="#63b8ff" points="1236.58,-169.14 1235.14,-158.65 1229.72,-167.75 1236.58,-169.14"/>
</a>
</g>
</g>
<!-- Node10 -->
<g id="Node000010" class="node">
<title>Node10</title>
<g id="a_Node000010"><a xlink:href="classACharacter.html#ae0a23043c0a5bf21a8d26970a889481b" target="_top" xlink:title=" ">
<polygon fill="white" stroke="#666666" points="1499.75,-137.75 1305.25,-137.75 1305.25,-104.25 1499.75,-104.25 1499.75,-137.75"/>
<text xml:space="preserve" text-anchor="start" x="1313.25" y="-124.25" font-family="Helvetica,sans-Serif" font-size="10.00">ACharacter::ClientAdjust</text>
<text xml:space="preserve" text-anchor="middle" x="1402.5" y="-111.5" font-family="Helvetica,sans-Serif" font-size="10.00">RootMotionPosition_Implementation</text>
</a>
</g>
</g>
<!-- Node9&#45;&gt;Node10 -->
<g id="edge17_Node000009_Node000010" class="edge">
<title>Node9&#45;&gt;Node10</title>
<g id="a_edge17_Node000009_Node000010"><a xlink:title=" ">
<path fill="none" stroke="#63b8ff" d="M1269.68,-133.59C1277.51,-132.85 1285.64,-132.07 1293.84,-131.29"/>
<polygon fill="#63b8ff" stroke="#63b8ff" points="1293.93,-134.79 1303.55,-130.36 1293.27,-127.82 1293.93,-134.79"/>
</a>
</g>
</g>
<!-- Node10&#45;&gt;Node5 -->
<g id="edge24_Node000010_Node000005" class="edge">
<title>Node10&#45;&gt;Node5</title>
<g id="a_edge24_Node000010_Node000005"><a xlink:title=" ">
<path fill="none" stroke="#63b8ff" d="M1458.08,-103.79C1471.72,-99.39 1486.29,-94.6 1499.75,-90 1521.86,-82.44 1546.05,-73.78 1567.16,-66.09"/>
<polygon fill="#63b8ff" stroke="#63b8ff" points="1568.29,-69.41 1576.48,-62.69 1565.88,-62.83 1568.29,-69.41"/>
</a>
</g>
</g>
<!-- Node10&#45;&gt;Node10 -->
<g id="edge18_Node000010_Node000010" class="edge">
<title>Node10&#45;&gt;Node10</title>
<g id="a_edge18_Node000010_Node000010"><a xlink:title=" ">
<path fill="none" stroke="#63b8ff" d="M1366.39,-138.16C1360.25,-147.37 1372.29,-155.75 1402.5,-155.75 1419.49,-155.75 1430.74,-153.1 1436.23,-149.14"/>
<polygon fill="#63b8ff" stroke="#63b8ff" points="1439.59,-150.16 1438.29,-139.64 1432.75,-148.67 1439.59,-150.16"/>
</a>
</g>
</g>
<!-- Node11 -->
<g id="Node000011" class="node">
<title>Node11</title>
<g id="a_Node000011"><a xlink:href="classACharacter.html#ab12d12ae249888a77d8d143d276e260d" target="_top" xlink:title=" ">
<polygon fill="white" stroke="#666666" points="1697.25,-137.75 1553,-137.75 1553,-104.25 1697.25,-104.25 1697.25,-137.75"/>
<text xml:space="preserve" text-anchor="start" x="1561" y="-124.25" font-family="Helvetica,sans-Serif" font-size="10.00">ACharacter::ClientAdjust</text>
<text xml:space="preserve" text-anchor="middle" x="1625.12" y="-111.5" font-family="Helvetica,sans-Serif" font-size="10.00">RootMotionSourcePosition</text>
</a>
</g>
</g>
<!-- Node10&#45;&gt;Node11 -->
<g id="edge19_Node000010_Node000011" class="edge">
<title>Node10&#45;&gt;Node11</title>
<g id="a_edge19_Node000010_Node000011"><a xlink:title=" ">
<path fill="none" stroke="#63b8ff" d="M1499.95,-121C1513.81,-121 1527.96,-121 1541.52,-121"/>
<polygon fill="#63b8ff" stroke="#63b8ff" points="1541.24,-124.5 1551.24,-121 1541.24,-117.5 1541.24,-124.5"/>
</a>
</g>
</g>
<!-- Node11&#45;&gt;Node7 -->
<g id="edge23_Node000011_Node000007" class="edge">
<title>Node11&#45;&gt;Node7</title>
<g id="a_edge23_Node000011_Node000007"><a xlink:title=" ">
<path fill="none" stroke="#63b8ff" d="M1662.22,-138.13C1698.05,-155.15 1753.15,-181.3 1792.28,-199.88"/>
<polygon fill="#63b8ff" stroke="#63b8ff" points="1790.71,-203.01 1801.24,-204.13 1793.71,-196.68 1790.71,-203.01"/>
</a>
</g>
</g>
<!-- Node11&#45;&gt;Node11 -->
<g id="edge20_Node000011_Node000011" class="edge">
<title>Node11&#45;&gt;Node11</title>
<g id="a_edge20_Node000011_Node000011"><a xlink:title=" ">
<path fill="none" stroke="#63b8ff" d="M1586.52,-138.16C1579.96,-147.37 1592.83,-155.75 1625.12,-155.75 1643.04,-155.75 1654.98,-153.17 1660.94,-149.3"/>
<polygon fill="#63b8ff" stroke="#63b8ff" points="1664.32,-150.18 1663.36,-139.63 1657.53,-148.48 1664.32,-150.18"/>
</a>
</g>
</g>
<!-- Node12 -->
<g id="Node000012" class="node">
<title>Node12</title>
<g id="a_Node000012"><a xlink:href="classACharacter.html#a43ab330736b6f634518c3aa8c5976eb8" target="_top" xlink:title=" ">
<polygon fill="white" stroke="#666666" points="1912,-144.12 1767.75,-144.12 1767.75,-97.88 1912,-97.88 1912,-144.12"/>
<text xml:space="preserve" text-anchor="start" x="1775.75" y="-130.62" font-family="Helvetica,sans-Serif" font-size="10.00">ACharacter::ClientAdjust</text>
<text xml:space="preserve" text-anchor="start" x="1775.75" y="-117.88" font-family="Helvetica,sans-Serif" font-size="10.00">RootMotionSourcePosition</text>
<text xml:space="preserve" text-anchor="middle" x="1839.88" y="-105.12" font-family="Helvetica,sans-Serif" font-size="10.00">_Implementation</text>
</a>
</g>
</g>
<!-- Node11&#45;&gt;Node12 -->
<g id="edge21_Node000011_Node000012" class="edge">
<title>Node11&#45;&gt;Node12</title>
<g id="a_edge21_Node000011_Node000012"><a xlink:title=" ">
<path fill="none" stroke="#63b8ff" d="M1697.56,-121C1716.24,-121 1736.54,-121 1755.77,-121"/>
<polygon fill="#63b8ff" stroke="#63b8ff" points="1755.75,-124.5 1765.75,-121 1755.75,-117.5 1755.75,-124.5"/>
</a>
</g>
</g>
<!-- Node12&#45;&gt;Node12 -->
<g id="edge22_Node000012_Node000012" class="edge">
<title>Node12&#45;&gt;Node12</title>
<g id="a_edge22_Node000012_Node000012"><a xlink:title=" ">
<path fill="none" stroke="#63b8ff" d="M1799.96,-144.25C1797.21,-153.93 1810.51,-162.12 1839.88,-162.12 1857.77,-162.12 1869.7,-159.08 1875.66,-154.51"/>
<polygon fill="#63b8ff" stroke="#63b8ff" points="1878.74,-156.24 1879.22,-145.66 1872.24,-153.63 1878.74,-156.24"/>
</a>
</g>
</g>
</g>
</svg>

<g id="navigator" transform="translate(0 0)" fill="#404254">
  <rect fill="#f2f5e9" fill-opacity="0.5" stroke="#606060" stroke-width=".5" x="0" y="0" width="60" height="60"/>
  <use id="zoomplus" xlink:href="#zoomPlus" x="17" y="9" onmousedown="handleZoom(evt,'in')"/>
  <use id="zoomminus" xlink:href="#zoomMin" x="42" y="9" onmousedown="handleZoom(evt,'out')"/>
  <use id="reset" xlink:href="#resetDef" x="30" y="36" onmousedown="handleReset()"/>
   <use id="arrowup" xlink:href="#arrowUp" x="0" y="0" onmousedown="handlePan(0,-1)"/>
  <use id="arrowright" xlink:href="#arrowRight" x="0" y="0" onmousedown="handlePan(1,0)"/>
  <use id="arrowdown" xlink:href="#arrowDown" x="0" y="0" onmousedown="handlePan(0,1)"/>
  <use id="arrowleft" xlink:href="#arrowLeft" x="0" y="0" onmousedown="handlePan(-1,0)"/>
</g>
<svg viewBox="0 0 15 15" width="100%" height="30px" preserveAspectRatio="xMaxYMin meet">
 <g id="arrow_out" transform="scale(0.3 0.3)">
  <a xlink:href="classACharacter_a68d08b4a12f44156816e714a09d73618_cgraph_org.svg" target="_base">
   <rect id="button" ry="5" rx="5" y="6" x="6" height="38" width="38"
        fill="#f2f5e9" fill-opacity="0.5" stroke="#606060" stroke-width="1.0"/>
   <path id="arrow"
     d="M 11.500037,31.436501 C 11.940474,20.09759 22.043105,11.32322 32.158766,21.979434 L 37.068811,17.246167 C 37.068811,17.246167 37.088388,32 37.088388,32 L 22.160133,31.978069 C 22.160133,31.978069 26.997745,27.140456 26.997745,27.140456 C 18.528582,18.264221 13.291696,25.230495 11.500037,31.436501 z"
     style="fill:#404040;"/>
  </a>
 </g>
</svg>

<style type='text/css'>
<![CDATA[
[data-mouse-over-selected='false'] { opacity: 0.7; }
[data-mouse-over-selected='true']  { opacity: 1.0; }
]]>
</style>
<script type="application/ecmascript"><![CDATA[
document.addEventListener('DOMContentLoaded', (event) => {
  highlightEdges();
  highlightAdjacentNodes();
});
]]></script>
</svg>
