<?xml version="1.0" encoding="UTF-8" standalone="no"?>
<!DOCTYPE svg PUBLIC "-//W3C//DTD SVG 1.1//EN"
 "http://www.w3.org/Graphics/SVG/1.1/DTD/svg11.dtd">
<!-- Generated by graphviz version 14.1.4 (0)
 -->
<!-- Title: UBlueprint::RemoveAllExtension Pages: 1 -->
<svg width="358pt" height="29pt"
 viewBox="0.00 0.00 358.00 29.00" xmlns="http://www.w3.org/2000/svg" xmlns:xlink="http://www.w3.org/1999/xlink">
<g id="graph0" class="graph" transform="scale(1 1) rotate(0) translate(4 24.75)">
<title>UBlueprint::RemoveAllExtension</title>
<!-- Node1 -->
<g id="Node000001" class="node">
<title>Node1</title>
<g id="a_Node000001"><a xlink:title=" ">
<polygon fill="#999999" stroke="#666666" points="175,-20.75 0,-20.75 0,0 175,0 175,-20.75"/>
<text xml:space="preserve" text-anchor="middle" x="87.5" y="-7.25" font-family="Helvetica,sans-Serif" font-size="10.00">UBlueprint::RemoveAllExtension</text>
</a>
</g>
</g>
<!-- Node2 -->
<g id="Node000002" class="node">
<title>Node2</title>
<g id="a_Node000002"><a xlink:href="$Invoke_8h.html#a8fbe0d51fbbe51f6bf85c2e4e81a4aa7" xlink:title=" ">
<polygon fill="white" stroke="#666666" points="259.25,-20.75 211,-20.75 211,0 259.25,0 259.25,-20.75"/>
<text xml:space="preserve" text-anchor="middle" x="235.12" y="-7.25" font-family="Helvetica,sans-Serif" font-size="10.00">Invoke</text>
</a>
</g>
</g>
<!-- Node1&#45;&gt;Node2 -->
<g id="edge1_Node000001_Node000002" class="edge">
<title>Node1&#45;&gt;Node2</title>
<g id="a_edge1_Node000001_Node000002"><a xlink:title=" ">
<path fill="none" stroke="#63b8ff" d="M175.31,-10.38C183.69,-10.38 191.8,-10.38 199.2,-10.38"/>
<polygon fill="#63b8ff" stroke="#63b8ff" points="199,-13.88 209,-10.38 199,-6.88 199,-13.88"/>
</a>
</g>
</g>
<!-- Node3 -->
<g id="Node000003" class="node">
<title>Node3</title>
<g id="a_Node000003"><a xlink:href="$UnrealTemplate_8h.html#aea228b8b6d93b902d974d3bfa72f888f" xlink:title=" ">
<polygon fill="white" stroke="#666666" points="350.25,-20.75 295.25,-20.75 295.25,0 350.25,0 350.25,-20.75"/>
<text xml:space="preserve" text-anchor="middle" x="322.75" y="-7.25" font-family="Helvetica,sans-Serif" font-size="10.00">Forward</text>
</a>
</g>
</g>
<!-- Node2&#45;&gt;Node3 -->
<g id="edge2_Node000002_Node000003" class="edge">
<title>Node2&#45;&gt;Node3</title>
<g id="a_edge2_Node000002_Node000003"><a xlink:title=" ">
<path fill="none" stroke="#63b8ff" d="M259.52,-10.38C266.99,-10.38 275.47,-10.38 283.7,-10.38"/>
<polygon fill="#63b8ff" stroke="#63b8ff" points="283.54,-13.88 293.54,-10.38 283.54,-6.88 283.54,-13.88"/>
</a>
</g>
</g>
</g>
</svg>
