<?xml version="1.0" encoding="UTF-8" standalone="no"?>
<!DOCTYPE svg PUBLIC "-//W3C//DTD SVG 1.1//EN"
 "http://www.w3.org/Graphics/SVG/1.1/DTD/svg11.dtd">
<!-- Generated by graphviz version 14.1.4 (0)
 -->
<!-- Title: UE::Virtualization::IVirtualizationSystem::PullData Pages: 1 -->
<svg width="410pt" height="145pt"
 viewBox="0.00 0.00 410.00 145.00" xmlns="http://www.w3.org/2000/svg" xmlns:xlink="http://www.w3.org/1999/xlink">
<g id="graph0" class="graph" transform="scale(1 1) rotate(0) translate(4 140.88)">
<title>UE::Virtualization::IVirtualizationSystem::PullData</title>
<!-- Node1 -->
<g id="Node000001" class="node">
<title>Node1</title>
<g id="a_Node000001"><a xlink:title=" ">
<polygon fill="#999999" stroke="#666666" points="127,-98.25 0,-98.25 0,-52 127,-52 127,-98.25"/>
<text xml:space="preserve" text-anchor="start" x="8" y="-84.75" font-family="Helvetica,sans-Serif" font-size="10.00">UE::Virtualization</text>
<text xml:space="preserve" text-anchor="start" x="8" y="-72" font-family="Helvetica,sans-Serif" font-size="10.00">::IVirtualizationSystem</text>
<text xml:space="preserve" text-anchor="middle" x="63.5" y="-59.25" font-family="Helvetica,sans-Serif" font-size="10.00">::PullData</text>
</a>
</g>
</g>
<!-- Node2 -->
<g id="Node000002" class="node">
<title>Node2</title>
<g id="a_Node000002"><a xlink:href="$structUE_1_1Virtualization_1_1FPullRequest.html#acefb8bfffcec8546bdf901d16f5c2eaa" xlink:title=" ">
<polygon fill="white" stroke="#666666" points="311,-136.88 163,-136.88 163,-103.38 311,-103.38 311,-136.88"/>
<text xml:space="preserve" text-anchor="start" x="171" y="-123.38" font-family="Helvetica,sans-Serif" font-size="10.00">UE::Virtualization</text>
<text xml:space="preserve" text-anchor="middle" x="237" y="-110.62" font-family="Helvetica,sans-Serif" font-size="10.00">::FPullRequest::GetPayload</text>
</a>
</g>
</g>
<!-- Node1&#45;&gt;Node2 -->
<g id="edge1_Node000001_Node000002" class="edge">
<title>Node1&#45;&gt;Node2</title>
<g id="a_edge1_Node000001_Node000002"><a xlink:title=" ">
<path fill="none" stroke="#63b8ff" d="M127.39,-91.63C137.82,-94.36 148.73,-97.23 159.46,-100.04"/>
<polygon fill="#63b8ff" stroke="#63b8ff" points="158.51,-103.41 169.07,-102.56 160.28,-96.64 158.51,-103.41"/>
</a>
</g>
</g>
<!-- Node3 -->
<g id="Node000003" class="node">
<title>Node3</title>
<g id="a_Node000003"><a xlink:href="$ArrayView_8h.html#a661373f641b11e7cb580c1526b0a721b" xlink:title=" ">
<polygon fill="white" stroke="#666666" points="283.25,-85.5 190.75,-85.5 190.75,-64.75 283.25,-64.75 283.25,-85.5"/>
<text xml:space="preserve" text-anchor="middle" x="237" y="-72" font-family="Helvetica,sans-Serif" font-size="10.00">MakeArrayView</text>
</a>
</g>
</g>
<!-- Node1&#45;&gt;Node3 -->
<g id="edge2_Node000001_Node000003" class="edge">
<title>Node1&#45;&gt;Node3</title>
<g id="a_edge2_Node000001_Node000003"><a xlink:title=" ">
<path fill="none" stroke="#63b8ff" d="M127.39,-75.12C144.32,-75.12 162.54,-75.12 179.12,-75.12"/>
<polygon fill="#63b8ff" stroke="#63b8ff" points="178.79,-78.63 188.79,-75.13 178.79,-71.63 178.79,-78.63"/>
</a>
</g>
</g>
<!-- Node5 -->
<g id="Node000005" class="node">
<title>Node5</title>
<g id="a_Node000005"><a xlink:href="$classUE_1_1Virtualization_1_1IVirtualizationSystem.html#a6e35268fa46267263cdc49e4554baa74" xlink:title=" ">
<polygon fill="white" stroke="#666666" points="300.5,-46.25 173.5,-46.25 173.5,0 300.5,0 300.5,-46.25"/>
<text xml:space="preserve" text-anchor="start" x="181.5" y="-32.75" font-family="Helvetica,sans-Serif" font-size="10.00">UE::Virtualization</text>
<text xml:space="preserve" text-anchor="start" x="181.5" y="-20" font-family="Helvetica,sans-Serif" font-size="10.00">::IVirtualizationSystem</text>
<text xml:space="preserve" text-anchor="middle" x="237" y="-7.25" font-family="Helvetica,sans-Serif" font-size="10.00">::PullData</text>
</a>
</g>
</g>
<!-- Node1&#45;&gt;Node5 -->
<g id="edge4_Node000001_Node000005" class="edge">
<title>Node1&#45;&gt;Node5</title>
<g id="a_edge4_Node000001_Node000005"><a xlink:title=" ">
<path fill="none" stroke="#63b8ff" d="M127.39,-56.06C138.69,-52.63 150.56,-49.03 162.14,-45.52"/>
<polygon fill="#63b8ff" stroke="#63b8ff" points="163.12,-48.88 171.67,-42.63 161.09,-42.18 163.12,-48.88"/>
</a>
</g>
</g>
<!-- Node4 -->
<g id="Node000004" class="node">
<title>Node4</title>
<g id="a_Node000004"><a xlink:href="$UnrealTemplate_8h.html#aea228b8b6d93b902d974d3bfa72f888f" xlink:title=" ">
<polygon fill="white" stroke="#666666" points="402,-85.5 347,-85.5 347,-64.75 402,-64.75 402,-85.5"/>
<text xml:space="preserve" text-anchor="middle" x="374.5" y="-72" font-family="Helvetica,sans-Serif" font-size="10.00">Forward</text>
</a>
</g>
</g>
<!-- Node3&#45;&gt;Node4 -->
<g id="edge3_Node000003_Node000004" class="edge">
<title>Node3&#45;&gt;Node4</title>
<g id="a_edge3_Node000003_Node000004"><a xlink:title=" ">
<path fill="none" stroke="#63b8ff" d="M283.5,-75.12C300.45,-75.12 319.49,-75.12 335.68,-75.12"/>
<polygon fill="#63b8ff" stroke="#63b8ff" points="335.38,-78.63 345.38,-75.13 335.38,-71.63 335.38,-78.63"/>
</a>
</g>
</g>
</g>
</svg>
