<?xml version="1.0" encoding="UTF-8" standalone="no"?>
<!DOCTYPE svg PUBLIC "-//W3C//DTD SVG 1.1//EN"
 "http://www.w3.org/Graphics/SVG/1.1/DTD/svg11.dtd">
<!-- Generated by graphviz version 14.1.4 (0)
 -->
<!-- Title: UE::Net::FScopedIgnoreStaticActorDestruction Pages: 1 -->
<svg width="162pt" height="134pt"
 viewBox="0.00 0.00 162.00 134.00" xmlns="http://www.w3.org/2000/svg" xmlns:xlink="http://www.w3.org/1999/xlink">
<g id="graph0" class="graph" transform="scale(1 1) rotate(0) translate(4 130)">
<title>UE::Net::FScopedIgnoreStaticActorDestruction</title>
<!-- Node1 -->
<g id="Node000001" class="node">
<title>Node1</title>
<g id="a_Node000001"><a xlink:title=" ">
<polygon fill="#999999" stroke="none" points="153.75,-126 0,-126 0,0 153.75,0 153.75,-126"/>
<text xml:space="preserve" text-anchor="start" x="5.62" y="-112.25" font-family="Helvetica,sans-Serif" font-size="10.00">UE::Net::FScopedIgnoreStatic</text>
<text xml:space="preserve" text-anchor="start" x="36" y="-99.5" font-family="Helvetica,sans-Serif" font-size="10.00">ActorDestruction</text>
<text xml:space="preserve" text-anchor="start" x="6.25" y="-82.75" font-family="Helvetica,sans-Serif" font-size="10.00">&#45;</text>
<text xml:space="preserve" text-anchor="start" x="16.25" y="-82.75" font-family="Helvetica,sans-Serif" font-size="10.00">bCachedValue</text>
<text xml:space="preserve" text-anchor="start" x="4" y="-66" font-family="Helvetica,sans-Serif" font-size="10.00">+</text>
<text xml:space="preserve" text-anchor="start" x="16.25" y="-66" font-family="Helvetica,sans-Serif" font-size="10.00">FScopedIgnoreStaticActor</text>
<text xml:space="preserve" text-anchor="start" x="16.25" y="-53.25" font-family="Helvetica,sans-Serif" font-size="10.00">Destruction()</text>
<text xml:space="preserve" text-anchor="start" x="4" y="-36.5" font-family="Helvetica,sans-Serif" font-size="10.00">+</text>
<text xml:space="preserve" text-anchor="start" x="16.25" y="-36.5" font-family="Helvetica,sans-Serif" font-size="10.00">~FScopedIgnoreStaticActor</text>
<text xml:space="preserve" text-anchor="start" x="16.25" y="-23.75" font-family="Helvetica,sans-Serif" font-size="10.00">Destruction()</text>
<text xml:space="preserve" text-anchor="start" x="4" y="-7" font-family="Helvetica,sans-Serif" font-size="10.00">+</text>
<text xml:space="preserve" text-anchor="start" x="16.25" y="-7" font-family="Helvetica,sans-Serif" font-size="10.00">UE_NONCOPYABLE()</text>
<polygon fill="#666666" stroke="#666666" points="0,-94.5 0,-94.5 153.75,-94.5 153.75,-94.5 0,-94.5"/>
<polygon fill="#666666" stroke="#666666" points="0,-77.75 0,-77.75 14.25,-77.75 14.25,-77.75 0,-77.75"/>
<polygon fill="#666666" stroke="#666666" points="14.25,-77.75 14.25,-77.75 153.75,-77.75 153.75,-77.75 14.25,-77.75"/>
<polygon fill="none" stroke="#666666" points="0,0 0,-126 153.75,-126 153.75,0 0,0"/>
</a>
</g>
</g>
</g>
</svg>
