<?xml version="1.0" encoding="UTF-8" standalone="no"?>
<!DOCTYPE svg PUBLIC "-//W3C//DTD SVG 1.1//EN"
 "http://www.w3.org/Graphics/SVG/1.1/DTD/svg11.dtd">
<!-- Generated by graphviz version 14.1.4 (0)
 -->
<!-- Title: AwaitableTask_Detail::TPromise&lt; void, CallableType &gt; Pages: 1 -->
<svg width="527pt" height="1119pt"
 viewBox="0.00 0.00 527.00 1119.00" xmlns="http://www.w3.org/2000/svg" xmlns:xlink="http://www.w3.org/1999/xlink">
<g id="graph0" class="graph" transform="scale(1 1) rotate(0) translate(4 1114.75)">
<title>AwaitableTask_Detail::TPromise&lt; void, CallableType &gt;</title>
<!-- Node1 -->
<g id="Node000001" class="node">
<title>Node1</title>
<g id="a_Node000001"><a xlink:title=" ">
<polygon fill="#999999" stroke="none" points="220.25,-251.25 48.75,-251.25 48.75,0 220.25,0 220.25,-251.25"/>
<text xml:space="preserve" text-anchor="start" x="52.75" y="-237.5" font-family="Helvetica,sans-Serif" font-size="10.00">AwaitableTask_Detail</text>
<text xml:space="preserve" text-anchor="start" x="52.75" y="-224.75" font-family="Helvetica,sans-Serif" font-size="10.00">::TPromise&lt; void, CallableType &gt;</text>
<text xml:space="preserve" text-anchor="start" x="67.31" y="-208" font-family="Helvetica,sans-Serif" font-size="10.00">&#45;</text>
<text xml:space="preserve" text-anchor="start" x="89.62" y="-208" font-family="Helvetica,sans-Serif" font-size="10.00">Callable</text>
<text xml:space="preserve" text-anchor="start" x="67.31" y="-191.25" font-family="Helvetica,sans-Serif" font-size="10.00">&#45;</text>
<text xml:space="preserve" text-anchor="start" x="89.62" y="-191.25" font-family="Helvetica,sans-Serif" font-size="10.00">ReferenceCounter</text>
<text xml:space="preserve" text-anchor="start" x="67.31" y="-174.5" font-family="Helvetica,sans-Serif" font-size="10.00">&#45;</text>
<text xml:space="preserve" text-anchor="start" x="89.62" y="-174.5" font-family="Helvetica,sans-Serif" font-size="10.00">ReturnValue</text>
<text xml:space="preserve" text-anchor="start" x="65.06" y="-157.75" font-family="Helvetica,sans-Serif" font-size="10.00">+</text>
<text xml:space="preserve" text-anchor="start" x="89.62" y="-157.75" font-family="Helvetica,sans-Serif" font-size="10.00">TPromise()</text>
<text xml:space="preserve" text-anchor="start" x="65.06" y="-141" font-family="Helvetica,sans-Serif" font-size="10.00">+</text>
<text xml:space="preserve" text-anchor="start" x="89.62" y="-141" font-family="Helvetica,sans-Serif" font-size="10.00">TryLaunch()</text>
<text xml:space="preserve" text-anchor="start" x="65.06" y="-124.25" font-family="Helvetica,sans-Serif" font-size="10.00">+</text>
<text xml:space="preserve" text-anchor="start" x="89.62" y="-124.25" font-family="Helvetica,sans-Serif" font-size="10.00">IsLaunched()</text>
<text xml:space="preserve" text-anchor="start" x="65.06" y="-107.5" font-family="Helvetica,sans-Serif" font-size="10.00">+</text>
<text xml:space="preserve" text-anchor="start" x="89.62" y="-107.5" font-family="Helvetica,sans-Serif" font-size="10.00">IncrementRefCount()</text>
<text xml:space="preserve" text-anchor="start" x="65.06" y="-90.75" font-family="Helvetica,sans-Serif" font-size="10.00">+</text>
<text xml:space="preserve" text-anchor="start" x="89.62" y="-90.75" font-family="Helvetica,sans-Serif" font-size="10.00">IsCompleted()</text>
<text xml:space="preserve" text-anchor="start" x="65.06" y="-74" font-family="Helvetica,sans-Serif" font-size="10.00">+</text>
<text xml:space="preserve" text-anchor="start" x="89.62" y="-74" font-family="Helvetica,sans-Serif" font-size="10.00">Finish()</text>
<text xml:space="preserve" text-anchor="start" x="65.06" y="-57.25" font-family="Helvetica,sans-Serif" font-size="10.00">+</text>
<text xml:space="preserve" text-anchor="start" x="89.62" y="-57.25" font-family="Helvetica,sans-Serif" font-size="10.00">GetResult()</text>
<text xml:space="preserve" text-anchor="start" x="67.31" y="-40.5" font-family="Helvetica,sans-Serif" font-size="10.00">&#45;</text>
<text xml:space="preserve" text-anchor="start" x="89.62" y="-40.5" font-family="Helvetica,sans-Serif" font-size="10.00">Execute()</text>
<text xml:space="preserve" text-anchor="start" x="67.31" y="-23.75" font-family="Helvetica,sans-Serif" font-size="10.00">&#45;</text>
<text xml:space="preserve" text-anchor="start" x="89.62" y="-23.75" font-family="Helvetica,sans-Serif" font-size="10.00">TPromise()</text>
<text xml:space="preserve" text-anchor="start" x="67.31" y="-7" font-family="Helvetica,sans-Serif" font-size="10.00">&#45;</text>
<text xml:space="preserve" text-anchor="start" x="89.62" y="-7" font-family="Helvetica,sans-Serif" font-size="10.00">operator=()</text>
<polygon fill="#666666" stroke="#666666" points="48.75,-219.75 48.75,-219.75 220.25,-219.75 220.25,-219.75 48.75,-219.75"/>
<polygon fill="#666666" stroke="#666666" points="48.75,-169.5 48.75,-169.5 87.62,-169.5 87.62,-169.5 48.75,-169.5"/>
<polygon fill="#666666" stroke="#666666" points="87.62,-169.5 87.62,-169.5 220.25,-169.5 220.25,-169.5 87.62,-169.5"/>
<polygon fill="none" stroke="#666666" points="48.75,0 48.75,-251.25 220.25,-251.25 220.25,0 48.75,0"/>
</a>
</g>
</g>
<!-- Node2 -->
<g id="Node000002" class="node">
<title>Node2</title>
<g id="a_Node000002"><a xlink:href="$classAwaitableTask__Detail_1_1FPromiseBase.html" xlink:title=" ">
<polygon fill="white" stroke="none" points="113,-517.38 0,-517.38 0,-450.38 113,-450.38 113,-517.38"/>
<text xml:space="preserve" text-anchor="start" x="4" y="-503.62" font-family="Helvetica,sans-Serif" font-size="10.00">AwaitableTask_Detail</text>
<text xml:space="preserve" text-anchor="start" x="18.62" y="-490.88" font-family="Helvetica,sans-Serif" font-size="10.00">::FPromiseBase</text>
<text xml:space="preserve" text-anchor="start" x="53.5" y="-474.12" font-family="Helvetica,sans-Serif" font-size="10.00"> </text>
<text xml:space="preserve" text-anchor="start" x="53.5" y="-457.38" font-family="Helvetica,sans-Serif" font-size="10.00"> </text>
<polygon fill="#666666" stroke="#666666" points="0,-485.88 0,-485.88 113,-485.88 113,-485.88 0,-485.88"/>
<polygon fill="#666666" stroke="#666666" points="0,-469.12 0,-469.12 113,-469.12 113,-469.12 0,-469.12"/>
<polygon fill="none" stroke="#666666" points="0,-450.38 0,-517.38 113,-517.38 113,-450.38 0,-450.38"/>
</a>
</g>
</g>
<!-- Node2&#45;&gt;Node1 -->
<g id="edge1_Node000001_Node000002" class="edge">
<title>Node2&#45;&gt;Node1</title>
<g id="a_edge1_Node000001_Node000002"><a xlink:title=" ">
<path fill="none" stroke="#63b8ff" d="M61.4,-439.45C69.66,-392.86 85.7,-316.74 100.74,-251.24"/>
<polygon fill="none" stroke="#63b8ff" points="57.98,-438.69 59.74,-449.14 64.88,-439.88 57.98,-438.69"/>
</a>
</g>
</g>
<!-- Node2&#45;&gt;Node1 -->
<g id="edge2_Node000001_Node000002" class="edge">
<title>Node2&#45;&gt;Node1</title>
<g id="a_edge2_Node000001_Node000002"><a xlink:title=" ">
<path fill="none" stroke="#63b8ff" d="M70.53,-439.74C82.68,-393.19 100.02,-316.87 113.69,-251.24"/>
<polygon fill="none" stroke="#63b8ff" points="67.22,-438.61 68.03,-449.17 73.98,-440.4 67.22,-438.61"/>
</a>
</g>
</g>
<!-- Node3 -->
<g id="Node000003" class="node">
<title>Node3</title>
<g id="a_Node000003"><a xlink:href="$classLowLevelTasks_1_1FTask.html" xlink:title=" ">
<polygon fill="white" stroke="none" points="296,-661.75 131,-661.75 131,-306 296,-306 296,-661.75"/>
<text xml:space="preserve" text-anchor="start" x="160.25" y="-648" font-family="Helvetica,sans-Serif" font-size="10.00">LowLevelTasks::FTask</text>
<text xml:space="preserve" text-anchor="start" x="210.5" y="-631.25" font-family="Helvetica,sans-Serif" font-size="10.00"> </text>
<text xml:space="preserve" text-anchor="start" x="135" y="-614.5" font-family="Helvetica,sans-Serif" font-size="10.00">+</text>
<text xml:space="preserve" text-anchor="start" x="147.25" y="-614.5" font-family="Helvetica,sans-Serif" font-size="10.00">IsCompleted()</text>
<text xml:space="preserve" text-anchor="start" x="135" y="-597.75" font-family="Helvetica,sans-Serif" font-size="10.00">+</text>
<text xml:space="preserve" text-anchor="start" x="147.25" y="-597.75" font-family="Helvetica,sans-Serif" font-size="10.00">WasCanceled()</text>
<text xml:space="preserve" text-anchor="start" x="135" y="-581" font-family="Helvetica,sans-Serif" font-size="10.00">+</text>
<text xml:space="preserve" text-anchor="start" x="147.25" y="-581" font-family="Helvetica,sans-Serif" font-size="10.00">WasExpedited()</text>
<text xml:space="preserve" text-anchor="start" x="135" y="-564.25" font-family="Helvetica,sans-Serif" font-size="10.00">+</text>
<text xml:space="preserve" text-anchor="start" x="147.25" y="-564.25" font-family="Helvetica,sans-Serif" font-size="10.00">IsReady()</text>
<text xml:space="preserve" text-anchor="start" x="135" y="-547.5" font-family="Helvetica,sans-Serif" font-size="10.00">+</text>
<text xml:space="preserve" text-anchor="start" x="147.25" y="-547.5" font-family="Helvetica,sans-Serif" font-size="10.00">TryCancel()</text>
<text xml:space="preserve" text-anchor="start" x="135" y="-530.75" font-family="Helvetica,sans-Serif" font-size="10.00">+</text>
<text xml:space="preserve" text-anchor="start" x="147.25" y="-530.75" font-family="Helvetica,sans-Serif" font-size="10.00">TryRevive()</text>
<text xml:space="preserve" text-anchor="start" x="135" y="-514" font-family="Helvetica,sans-Serif" font-size="10.00">+</text>
<text xml:space="preserve" text-anchor="start" x="147.25" y="-514" font-family="Helvetica,sans-Serif" font-size="10.00">TryExpedite()</text>
<text xml:space="preserve" text-anchor="start" x="135" y="-497.25" font-family="Helvetica,sans-Serif" font-size="10.00">+</text>
<text xml:space="preserve" text-anchor="start" x="147.25" y="-497.25" font-family="Helvetica,sans-Serif" font-size="10.00">TryExpedite()</text>
<text xml:space="preserve" text-anchor="start" x="135" y="-480.5" font-family="Helvetica,sans-Serif" font-size="10.00">+</text>
<text xml:space="preserve" text-anchor="start" x="147.25" y="-480.5" font-family="Helvetica,sans-Serif" font-size="10.00">TryExecute()</text>
<text xml:space="preserve" text-anchor="start" x="135" y="-463.75" font-family="Helvetica,sans-Serif" font-size="10.00">+</text>
<text xml:space="preserve" text-anchor="start" x="147.25" y="-463.75" font-family="Helvetica,sans-Serif" font-size="10.00">TryExecute()</text>
<text xml:space="preserve" text-anchor="start" x="147.25" y="-447" font-family="Helvetica,sans-Serif" font-size="10.00">and 12 more...</text>
<text xml:space="preserve" text-anchor="start" x="135" y="-430.25" font-family="Helvetica,sans-Serif" font-size="10.00">+</text>
<text xml:space="preserve" text-anchor="start" x="147.25" y="-430.25" font-family="Helvetica,sans-Serif" font-size="10.00">GetActiveTask()</text>
<text xml:space="preserve" text-anchor="start" x="137.25" y="-413.5" font-family="Helvetica,sans-Serif" font-size="10.00">&#45;</text>
<text xml:space="preserve" text-anchor="start" x="147.25" y="-413.5" font-family="Helvetica,sans-Serif" font-size="10.00">UE_NONCOPYABLE()</text>
<text xml:space="preserve" text-anchor="start" x="137.25" y="-396.75" font-family="Helvetica,sans-Serif" font-size="10.00">&#45;</text>
<text xml:space="preserve" text-anchor="start" x="147.25" y="-396.75" font-family="Helvetica,sans-Serif" font-size="10.00">WasCanceledOrIsExpediting()</text>
<text xml:space="preserve" text-anchor="start" x="137.25" y="-380" font-family="Helvetica,sans-Serif" font-size="10.00">&#45;</text>
<text xml:space="preserve" text-anchor="start" x="147.25" y="-380" font-family="Helvetica,sans-Serif" font-size="10.00">TryPrepareLaunch()</text>
<text xml:space="preserve" text-anchor="start" x="137.25" y="-363.25" font-family="Helvetica,sans-Serif" font-size="10.00">&#45;</text>
<text xml:space="preserve" text-anchor="start" x="147.25" y="-363.25" font-family="Helvetica,sans-Serif" font-size="10.00">TryFinish()</text>
<text xml:space="preserve" text-anchor="start" x="137.25" y="-346.5" font-family="Helvetica,sans-Serif" font-size="10.00">&#45;</text>
<text xml:space="preserve" text-anchor="start" x="147.25" y="-346.5" font-family="Helvetica,sans-Serif" font-size="10.00">ExecuteTask()</text>
<text xml:space="preserve" text-anchor="start" x="137.25" y="-329.75" font-family="Helvetica,sans-Serif" font-size="10.00">&#45;</text>
<text xml:space="preserve" text-anchor="start" x="147.25" y="-329.75" font-family="Helvetica,sans-Serif" font-size="10.00">InheritParentData()</text>
<text xml:space="preserve" text-anchor="start" x="137.25" y="-313" font-family="Helvetica,sans-Serif" font-size="10.00">&#45;</text>
<text xml:space="preserve" text-anchor="start" x="147.25" y="-313" font-family="Helvetica,sans-Serif" font-size="10.00">PermitBackgroundWork()</text>
<polygon fill="#666666" stroke="#666666" points="131,-643 131,-643 296,-643 296,-643 131,-643"/>
<polygon fill="#666666" stroke="#666666" points="131,-626.25 131,-626.25 296,-626.25 296,-626.25 131,-626.25"/>
<polygon fill="none" stroke="#666666" points="131,-306 131,-661.75 296,-661.75 296,-306 131,-306"/>
</a>
</g>
</g>
<!-- Node3&#45;&gt;Node1 -->
<g id="edge3_Node000001_Node000003" class="edge">
<title>Node3&#45;&gt;Node1</title>
<g id="a_edge3_Node000001_Node000003"><a xlink:title=" ">
<path fill="none" stroke="#63b8ff" d="M174.29,-306.05C171.14,-291.87 168,-277.67 164.92,-263.82"/>
<polygon fill="none" stroke="#63b8ff" points="164.92,-263.81 159.72,-258.82 162.32,-252.1 167.53,-257.09 164.92,-263.81"/>
</a>
</g>
<text xml:space="preserve" text-anchor="start" x="172.27" y="-275.25" font-family="Helvetica,sans-Serif" font-size="10.00" fill="grey">&#45;Task</text>
</g>
<!-- Node3&#45;&gt;Node3 -->
<g id="edge8_Node000003_Node000003" class="edge">
<title>Node3&#45;&gt;Node3</title>
<g id="a_edge8_Node000003_Node000003"><a xlink:title=" ">
<path fill="none" stroke="#63b8ff" d="M295.91,-517.81C306.79,-512.02 314,-500.71 314,-483.88 314,-472.83 310.89,-464.16 305.68,-457.87"/>
<polygon fill="none" stroke="#63b8ff" points="305.93,-458.06 298.75,-457.39 296.61,-450.51 303.79,-451.18 305.93,-458.06"/>
</a>
</g>
<text xml:space="preserve" text-anchor="start" x="317" y="-480.5" font-family="Helvetica,sans-Serif" font-size="10.00" fill="grey">&#45;ActiveTask</text>
</g>
<!-- Node4 -->
<g id="Node000004" class="node">
<title>Node4</title>
<g id="a_Node000004"><a xlink:href="$classLowLevelTasks_1_1Tasks__Impl_1_1FTaskBase.html" xlink:title=" ">
<polygon fill="white" stroke="none" points="270.88,-800.25 156.12,-800.25 156.12,-716.5 270.88,-716.5 270.88,-800.25"/>
<text xml:space="preserve" text-anchor="start" x="160.62" y="-786.5" font-family="Helvetica,sans-Serif" font-size="10.00">LowLevelTasks::Tasks</text>
<text xml:space="preserve" text-anchor="start" x="171.12" y="-773.75" font-family="Helvetica,sans-Serif" font-size="10.00">_Impl::FTaskBase</text>
<text xml:space="preserve" text-anchor="start" x="160.12" y="-757" font-family="Helvetica,sans-Serif" font-size="10.00">&#45;</text>
<text xml:space="preserve" text-anchor="start" x="167.88" y="-757" font-family="Helvetica,sans-Serif" font-size="10.00">UserData</text>
<text xml:space="preserve" text-anchor="start" x="160.12" y="-740.25" font-family="Helvetica,sans-Serif" font-size="10.00">&#45;</text>
<text xml:space="preserve" text-anchor="start" x="167.88" y="-740.25" font-family="Helvetica,sans-Serif" font-size="10.00">UE_NONCOPYABLE()</text>
<text xml:space="preserve" text-anchor="start" x="160.12" y="-723.5" font-family="Helvetica,sans-Serif" font-size="10.00">&#45;</text>
<text xml:space="preserve" text-anchor="start" x="167.88" y="-723.5" font-family="Helvetica,sans-Serif" font-size="10.00">FTaskBase()</text>
<polygon fill="#666666" stroke="#666666" points="156.12,-768.75 156.12,-768.75 270.88,-768.75 270.88,-768.75 156.12,-768.75"/>
<polygon fill="#666666" stroke="#666666" points="156.12,-752 156.12,-752 165.88,-752 165.88,-752 156.12,-752"/>
<polygon fill="#666666" stroke="#666666" points="165.88,-752 165.88,-752 270.88,-752 270.88,-752 165.88,-752"/>
<polygon fill="none" stroke="#666666" points="156.12,-716.5 156.12,-800.25 270.88,-800.25 270.88,-716.5 156.12,-716.5"/>
</a>
</g>
</g>
<!-- Node4&#45;&gt;Node3 -->
<g id="edge4_Node000003_Node000004" class="edge">
<title>Node4&#45;&gt;Node3</title>
<g id="a_edge4_Node000003_Node000004"><a xlink:title=" ">
<path fill="none" stroke="#8b1a1a" d="M213.5,-705.44C213.5,-692.22 213.5,-677.25 213.5,-661.5"/>
<polygon fill="none" stroke="#8b1a1a" points="210,-705.07 213.5,-715.07 217,-705.07 210,-705.07"/>
</a>
</g>
</g>
<!-- Node5 -->
<g id="Node000005" class="node">
<title>Node5</title>
<g id="a_Node000005"><a xlink:href="$classLowLevelTasks_1_1TTaskDelegate.html" xlink:title=" ">
<polygon fill="white" stroke="none" points="256.12,-974.62 92.88,-974.62 92.88,-882.12 256.12,-882.12 256.12,-974.62"/>
<text xml:space="preserve" text-anchor="start" x="96.88" y="-960.88" font-family="Helvetica,sans-Serif" font-size="10.00">LowLevelTasks::TTaskDelegate</text>
<text xml:space="preserve" text-anchor="start" x="96.88" y="-948.12" font-family="Helvetica,sans-Serif" font-size="10.00">&lt; FTask *(bool), PLATFORM</text>
<text xml:space="preserve" text-anchor="start" x="96.88" y="-935.38" font-family="Helvetica,sans-Serif" font-size="10.00">_CACHE_LINE_SIZE &#45; sizeof</text>
<text xml:space="preserve" text-anchor="start" x="96.88" y="-922.62" font-family="Helvetica,sans-Serif" font-size="10.00">(FPackedData) &#45; sizeof(void *)&gt;</text>
<text xml:space="preserve" text-anchor="start" x="171.5" y="-905.88" font-family="Helvetica,sans-Serif" font-size="10.00"> </text>
<text xml:space="preserve" text-anchor="start" x="171.5" y="-889.12" font-family="Helvetica,sans-Serif" font-size="10.00"> </text>
<polygon fill="#666666" stroke="#666666" points="92.88,-917.62 92.88,-917.62 256.12,-917.62 256.12,-917.62 92.88,-917.62"/>
<polygon fill="#666666" stroke="#666666" points="92.88,-900.88 92.88,-900.88 256.12,-900.88 256.12,-900.88 92.88,-900.88"/>
<polygon fill="none" stroke="#666666" points="92.88,-882.12 92.88,-974.62 256.12,-974.62 256.12,-882.12 92.88,-882.12"/>
</a>
</g>
</g>
<!-- Node5&#45;&gt;Node4 -->
<g id="edge5_Node000004_Node000005" class="edge">
<title>Node5&#45;&gt;Node4</title>
<g id="a_edge5_Node000004_Node000005"><a xlink:title=" ">
<path fill="none" stroke="#63b8ff" d="M184.95,-882.35C189.93,-860.89 195.93,-835.05 201.14,-812.62"/>
<polygon fill="none" stroke="#63b8ff" points="201.1,-812.77 198.56,-806.02 203.82,-801.08 206.36,-807.83 201.1,-812.77"/>
</a>
</g>
<text xml:space="preserve" text-anchor="start" x="202.77" y="-824.25" font-family="Helvetica,sans-Serif" font-size="10.00" fill="grey">&#45;Runnable</text>
</g>
<!-- Node6 -->
<g id="Node000006" class="node">
<title>Node6</title>
<g id="a_Node000006"><a xlink:href="$classLowLevelTasks_1_1Tasks__Impl_1_1FTaskBase_1_1FPackedDataAtomic.html" xlink:title=" ">
<polygon fill="white" stroke="none" points="436.75,-1001.75 274.25,-1001.75 274.25,-855 436.75,-855 436.75,-1001.75"/>
<text xml:space="preserve" text-anchor="start" x="278.25" y="-988" font-family="Helvetica,sans-Serif" font-size="10.00">LowLevelTasks::Tasks</text>
<text xml:space="preserve" text-anchor="start" x="278.25" y="-975.25" font-family="Helvetica,sans-Serif" font-size="10.00">_Impl::FTaskBase::FPackedData</text>
<text xml:space="preserve" text-anchor="start" x="338.25" y="-962.5" font-family="Helvetica,sans-Serif" font-size="10.00">Atomic</text>
<text xml:space="preserve" text-anchor="start" x="352.5" y="-945.75" font-family="Helvetica,sans-Serif" font-size="10.00"> </text>
<text xml:space="preserve" text-anchor="start" x="279.12" y="-929" font-family="Helvetica,sans-Serif" font-size="10.00">+</text>
<text xml:space="preserve" text-anchor="start" x="292.25" y="-929" font-family="Helvetica,sans-Serif" font-size="10.00">fetch_or()</text>
<text xml:space="preserve" text-anchor="start" x="279.12" y="-912.25" font-family="Helvetica,sans-Serif" font-size="10.00">+</text>
<text xml:space="preserve" text-anchor="start" x="292.25" y="-912.25" font-family="Helvetica,sans-Serif" font-size="10.00">compare_exchange_strong()</text>
<text xml:space="preserve" text-anchor="start" x="279.12" y="-895.5" font-family="Helvetica,sans-Serif" font-size="10.00">+</text>
<text xml:space="preserve" text-anchor="start" x="292.25" y="-895.5" font-family="Helvetica,sans-Serif" font-size="10.00">compare_exchange_strong()</text>
<text xml:space="preserve" text-anchor="start" x="279.12" y="-878.75" font-family="Helvetica,sans-Serif" font-size="10.00">+</text>
<text xml:space="preserve" text-anchor="start" x="292.25" y="-878.75" font-family="Helvetica,sans-Serif" font-size="10.00">load()</text>
<text xml:space="preserve" text-anchor="start" x="279.12" y="-862" font-family="Helvetica,sans-Serif" font-size="10.00">+</text>
<text xml:space="preserve" text-anchor="start" x="292.25" y="-862" font-family="Helvetica,sans-Serif" font-size="10.00">store()</text>
<polygon fill="#666666" stroke="#666666" points="274.25,-957.5 274.25,-957.5 436.75,-957.5 436.75,-957.5 274.25,-957.5"/>
<polygon fill="#666666" stroke="#666666" points="274.25,-940.75 274.25,-940.75 436.75,-940.75 436.75,-940.75 274.25,-940.75"/>
<polygon fill="none" stroke="#666666" points="274.25,-855 274.25,-1001.75 436.75,-1001.75 436.75,-855 274.25,-855"/>
</a>
</g>
</g>
<!-- Node6&#45;&gt;Node4 -->
<g id="edge6_Node000004_Node000006" class="edge">
<title>Node6&#45;&gt;Node4</title>
<g id="a_edge6_Node000004_Node000006"><a xlink:title=" ">
<path fill="none" stroke="#63b8ff" d="M294.46,-855.15C281.51,-839.83 268.11,-823.98 256.03,-809.69"/>
<polygon fill="none" stroke="#63b8ff" points="256.23,-809.92 249.3,-807.92 248.48,-800.76 255.41,-802.76 256.23,-809.92"/>
</a>
</g>
<text xml:space="preserve" text-anchor="start" x="279" y="-824.25" font-family="Helvetica,sans-Serif" font-size="10.00" fill="grey">&#45;PackedData</text>
</g>
<!-- Node7 -->
<g id="Node000007" class="node">
<title>Node7</title>
<g id="a_Node000007"><a xlink:title=" ">
<polygon fill="white" stroke="none" points="418.75,-1110.75 292.25,-1110.75 292.25,-1056.5 418.75,-1056.5 418.75,-1110.75"/>
<text xml:space="preserve" text-anchor="start" x="296.25" y="-1097" font-family="Helvetica,sans-Serif" font-size="10.00">std::atomic&lt; uintptr_t &gt;</text>
<text xml:space="preserve" text-anchor="start" x="319.44" y="-1080.25" font-family="Helvetica,sans-Serif" font-size="10.00">+</text>
<text xml:space="preserve" text-anchor="start" x="354.88" y="-1080.25" font-family="Helvetica,sans-Serif" font-size="10.00">ptr</text>
<text xml:space="preserve" text-anchor="start" x="352.5" y="-1063.5" font-family="Helvetica,sans-Serif" font-size="10.00"> </text>
<polygon fill="#666666" stroke="#666666" points="292.25,-1092 292.25,-1092 418.75,-1092 418.75,-1092 292.25,-1092"/>
<polygon fill="#666666" stroke="#666666" points="292.25,-1075.25 292.25,-1075.25 352.88,-1075.25 352.88,-1075.25 292.25,-1075.25"/>
<polygon fill="#666666" stroke="#666666" points="352.88,-1075.25 352.88,-1075.25 418.75,-1075.25 418.75,-1075.25 352.88,-1075.25"/>
<polygon fill="none" stroke="#666666" points="292.25,-1056.5 292.25,-1110.75 418.75,-1110.75 418.75,-1056.5 292.25,-1056.5"/>
</a>
</g>
</g>
<!-- Node7&#45;&gt;Node6 -->
<g id="edge7_Node000006_Node000007" class="edge">
<title>Node7&#45;&gt;Node6</title>
<g id="a_edge7_Node000006_Node000007"><a xlink:title=" ">
<path fill="none" stroke="#63b8ff" d="M355.5,-1056.63C355.5,-1044.69 355.5,-1029.77 355.5,-1014.41"/>
<polygon fill="none" stroke="#63b8ff" points="355.5,-1014.35 351.5,-1008.35 355.5,-1002.35 359.5,-1008.35 355.5,-1014.35"/>
</a>
</g>
<text xml:space="preserve" text-anchor="start" x="358.5" y="-1025.75" font-family="Helvetica,sans-Serif" font-size="10.00" fill="grey">&#45;PackedData</text>
</g>
<!-- Node8 -->
<g id="Node000008" class="node">
<title>Node8</title>
<g id="a_Node000008"><a xlink:href="$classUE_1_1FManualResetEvent.html" xlink:title=" ">
<polygon fill="white" stroke="none" points="519.12,-586.38 393.88,-586.38 393.88,-381.38 519.12,-381.38 519.12,-586.38"/>
<text xml:space="preserve" text-anchor="start" x="398" y="-572.62" font-family="Helvetica,sans-Serif" font-size="10.00">UE::FManualResetEvent</text>
<text xml:space="preserve" text-anchor="start" x="400.12" y="-555.88" font-family="Helvetica,sans-Serif" font-size="10.00">&#45;</text>
<text xml:space="preserve" text-anchor="start" x="410.12" y="-555.88" font-family="Helvetica,sans-Serif" font-size="10.00">IsNotifiedFlag</text>
<text xml:space="preserve" text-anchor="start" x="400.12" y="-539.12" font-family="Helvetica,sans-Serif" font-size="10.00">&#45;</text>
<text xml:space="preserve" text-anchor="start" x="410.12" y="-539.12" font-family="Helvetica,sans-Serif" font-size="10.00">MaybeWaitingFlag</text>
<text xml:space="preserve" text-anchor="start" x="397.88" y="-522.38" font-family="Helvetica,sans-Serif" font-size="10.00">+</text>
<text xml:space="preserve" text-anchor="start" x="410.12" y="-522.38" font-family="Helvetica,sans-Serif" font-size="10.00">FManualResetEvent()</text>
<text xml:space="preserve" text-anchor="start" x="397.88" y="-505.62" font-family="Helvetica,sans-Serif" font-size="10.00">+</text>
<text xml:space="preserve" text-anchor="start" x="410.12" y="-505.62" font-family="Helvetica,sans-Serif" font-size="10.00">FManualResetEvent()</text>
<text xml:space="preserve" text-anchor="start" x="397.88" y="-488.88" font-family="Helvetica,sans-Serif" font-size="10.00">+</text>
<text xml:space="preserve" text-anchor="start" x="410.12" y="-488.88" font-family="Helvetica,sans-Serif" font-size="10.00">operator=()</text>
<text xml:space="preserve" text-anchor="start" x="397.88" y="-472.12" font-family="Helvetica,sans-Serif" font-size="10.00">+</text>
<text xml:space="preserve" text-anchor="start" x="410.12" y="-472.12" font-family="Helvetica,sans-Serif" font-size="10.00">IsNotified()</text>
<text xml:space="preserve" text-anchor="start" x="397.88" y="-455.38" font-family="Helvetica,sans-Serif" font-size="10.00">+</text>
<text xml:space="preserve" text-anchor="start" x="410.12" y="-455.38" font-family="Helvetica,sans-Serif" font-size="10.00">Wait()</text>
<text xml:space="preserve" text-anchor="start" x="397.88" y="-438.62" font-family="Helvetica,sans-Serif" font-size="10.00">+</text>
<text xml:space="preserve" text-anchor="start" x="410.12" y="-438.62" font-family="Helvetica,sans-Serif" font-size="10.00">WaitFor()</text>
<text xml:space="preserve" text-anchor="start" x="397.88" y="-421.88" font-family="Helvetica,sans-Serif" font-size="10.00">+</text>
<text xml:space="preserve" text-anchor="start" x="410.12" y="-421.88" font-family="Helvetica,sans-Serif" font-size="10.00">WaitUntil()</text>
<text xml:space="preserve" text-anchor="start" x="397.88" y="-405.12" font-family="Helvetica,sans-Serif" font-size="10.00">+</text>
<text xml:space="preserve" text-anchor="start" x="410.12" y="-405.12" font-family="Helvetica,sans-Serif" font-size="10.00">Notify()</text>
<text xml:space="preserve" text-anchor="start" x="397.88" y="-388.38" font-family="Helvetica,sans-Serif" font-size="10.00">+</text>
<text xml:space="preserve" text-anchor="start" x="410.12" y="-388.38" font-family="Helvetica,sans-Serif" font-size="10.00">Reset()</text>
<polygon fill="#666666" stroke="#666666" points="393.88,-567.62 393.88,-567.62 519.12,-567.62 519.12,-567.62 393.88,-567.62"/>
<polygon fill="#666666" stroke="#666666" points="393.88,-534.12 393.88,-534.12 408.12,-534.12 408.12,-534.12 393.88,-534.12"/>
<polygon fill="#666666" stroke="#666666" points="408.12,-534.12 408.12,-534.12 519.12,-534.12 519.12,-534.12 408.12,-534.12"/>
<polygon fill="none" stroke="#666666" points="393.88,-381.38 393.88,-586.38 519.12,-586.38 519.12,-381.38 393.88,-381.38"/>
</a>
</g>
</g>
<!-- Node8&#45;&gt;Node1 -->
<g id="edge9_Node000001_Node000008" class="edge">
<title>Node8&#45;&gt;Node1</title>
<g id="a_edge9_Node000001_Node000008"><a xlink:title=" ">
<path fill="none" stroke="#63b8ff" d="M427.23,-381.61C416.7,-355.36 402.98,-328.25 385.5,-306 343.96,-253.13 282.8,-208.98 231.25,-177.71"/>
<polygon fill="none" stroke="#63b8ff" points="231.15,-177.65 223.95,-178.01 220.85,-171.5 228.05,-171.14 231.15,-177.65"/>
</a>
</g>
<text xml:space="preserve" text-anchor="start" x="372.42" y="-275.25" font-family="Helvetica,sans-Serif" font-size="10.00" fill="grey">&#45;Completed</text>
</g>
<!-- Node9 -->
<g id="Node000009" class="node">
<title>Node9</title>
<g id="a_Node000009"><a xlink:title=" ">
<polygon fill="white" stroke="none" points="511.5,-785.5 401.5,-785.5 401.5,-731.25 511.5,-731.25 511.5,-785.5"/>
<text xml:space="preserve" text-anchor="start" x="405.5" y="-771.75" font-family="Helvetica,sans-Serif" font-size="10.00">std::atomic&lt; uint8 &gt;</text>
<text xml:space="preserve" text-anchor="start" x="424.56" y="-755" font-family="Helvetica,sans-Serif" font-size="10.00">+</text>
<text xml:space="preserve" text-anchor="start" x="455.88" y="-755" font-family="Helvetica,sans-Serif" font-size="10.00">ptr</text>
<text xml:space="preserve" text-anchor="start" x="453.5" y="-738.25" font-family="Helvetica,sans-Serif" font-size="10.00"> </text>
<polygon fill="#666666" stroke="#666666" points="401.5,-766.75 401.5,-766.75 511.5,-766.75 511.5,-766.75 401.5,-766.75"/>
<polygon fill="#666666" stroke="#666666" points="401.5,-750 401.5,-750 453.88,-750 453.88,-750 401.5,-750"/>
<polygon fill="#666666" stroke="#666666" points="453.88,-750 453.88,-750 511.5,-750 511.5,-750 453.88,-750"/>
<polygon fill="none" stroke="#666666" points="401.5,-731.25 401.5,-785.5 511.5,-785.5 511.5,-731.25 401.5,-731.25"/>
</a>
</g>
</g>
<!-- Node9&#45;&gt;Node8 -->
<g id="edge10_Node000008_Node000009" class="edge">
<title>Node9&#45;&gt;Node8</title>
<g id="a_edge10_Node000008_Node000009"><a xlink:title=" ">
<path fill="none" stroke="#63b8ff" d="M456.5,-731.74C456.5,-701.27 456.5,-648.38 456.5,-599.34"/>
<polygon fill="none" stroke="#63b8ff" points="456.5,-599.21 452.5,-593.21 456.5,-587.21 460.5,-593.21 456.5,-599.21"/>
</a>
</g>
<text xml:space="preserve" text-anchor="start" x="459.5" y="-685.75" font-family="Helvetica,sans-Serif" font-size="10.00" fill="grey">&#45;State</text>
</g>
</g>
</svg>
