<?xml version="1.0" encoding="UTF-8" standalone="no"?>
<!DOCTYPE svg PUBLIC "-//W3C//DTD SVG 1.1//EN"
 "http://www.w3.org/Graphics/SVG/1.1/DTD/svg11.dtd">
<!-- Generated by graphviz version 14.1.4 (0)
 -->
<!-- Title: FIoChunkHash::HashBuffer Pages: 1 -->
<svg width="671pt" height="179pt"
 viewBox="0.00 0.00 671.00 179.00" xmlns="http://www.w3.org/2000/svg" xmlns:xlink="http://www.w3.org/1999/xlink">
<g id="graph0" class="graph" transform="scale(1 1) rotate(0) translate(4 175.12)">
<title>FIoChunkHash::HashBuffer</title>
<!-- Node1 -->
<g id="Node000001" class="node">
<title>Node1</title>
<g id="a_Node000001"><a xlink:title=" ">
<polygon fill="#999999" stroke="#666666" points="147.25,-87.75 0,-87.75 0,-67 147.25,-67 147.25,-87.75"/>
<text xml:space="preserve" text-anchor="middle" x="73.62" y="-74.25" font-family="Helvetica,sans-Serif" font-size="10.00">FIoChunkHash::HashBuffer</text>
</a>
</g>
</g>
<!-- Node2 -->
<g id="Node000002" class="node">
<title>Node2</title>
<g id="a_Node000002"><a xlink:href="$classFIoChunkHash.html#a4548bda487f0794700aee91eb6114c90" xlink:title=" ">
<polygon fill="white" stroke="#666666" points="332.75,-123.12 183.25,-123.12 183.25,-89.62 332.75,-89.62 332.75,-123.12"/>
<text xml:space="preserve" text-anchor="start" x="191.25" y="-109.62" font-family="Helvetica,sans-Serif" font-size="10.00">FIoChunkHash::CreateFrom</text>
<text xml:space="preserve" text-anchor="middle" x="258" y="-96.88" font-family="Helvetica,sans-Serif" font-size="10.00">IoHash</text>
</a>
</g>
</g>
<!-- Node1&#45;&gt;Node2 -->
<g id="edge1_Node000001_Node000002" class="edge">
<title>Node1&#45;&gt;Node2</title>
<g id="a_edge1_Node000001_Node000002"><a xlink:title=" ">
<path fill="none" stroke="#63b8ff" d="M142.79,-88.21C152.17,-89.71 161.9,-91.25 171.55,-92.79"/>
<polygon fill="#63b8ff" stroke="#63b8ff" points="170.88,-96.22 181.31,-94.34 171.98,-89.31 170.88,-96.22"/>
</a>
</g>
</g>
<!-- Node7 -->
<g id="Node000007" class="node">
<title>Node7</title>
<g id="a_Node000007"><a xlink:href="$structFIoHash.html#aa84f4252a662d243adeea01de0f397a6" xlink:title=" ">
<polygon fill="white" stroke="#666666" points="316.25,-59.75 199.75,-59.75 199.75,-39 316.25,-39 316.25,-59.75"/>
<text xml:space="preserve" text-anchor="middle" x="258" y="-46.25" font-family="Helvetica,sans-Serif" font-size="10.00">FIoHash::HashBuffer</text>
</a>
</g>
</g>
<!-- Node1&#45;&gt;Node7 -->
<g id="edge6_Node000001_Node000007" class="edge">
<title>Node1&#45;&gt;Node7</title>
<g id="a_edge6_Node000001_Node000007"><a xlink:title=" ">
<path fill="none" stroke="#63b8ff" d="M145.4,-66.51C159.54,-64.34 174.37,-62.06 188.44,-59.9"/>
<polygon fill="#63b8ff" stroke="#63b8ff" points="188.68,-63.41 198.03,-58.43 187.61,-56.49 188.68,-63.41"/>
</a>
</g>
</g>
<!-- Node3 -->
<g id="Node000003" class="node">
<title>Node3</title>
<g id="a_Node000003"><a xlink:href="$structFMemory.html#a6bfb397a8ea2e226f6fe27664c9880ca" xlink:title=" ">
<polygon fill="white" stroke="#666666" points="481.5,-161.75 371.75,-161.75 371.75,-141 481.5,-141 481.5,-161.75"/>
<text xml:space="preserve" text-anchor="middle" x="426.62" y="-148.25" font-family="Helvetica,sans-Serif" font-size="10.00">FMemory::Memcpy</text>
</a>
</g>
</g>
<!-- Node2&#45;&gt;Node3 -->
<g id="edge2_Node000002_Node000003" class="edge">
<title>Node2&#45;&gt;Node3</title>
<g id="a_edge2_Node000002_Node000003"><a xlink:title=" ">
<path fill="none" stroke="#63b8ff" d="M322.47,-123.52C339.66,-128.16 358.04,-133.12 374.46,-137.56"/>
<polygon fill="#63b8ff" stroke="#63b8ff" points="373.44,-140.91 384.01,-140.14 375.26,-134.15 373.44,-140.91"/>
</a>
</g>
</g>
<!-- Node5 -->
<g id="Node000005" class="node">
<title>Node5</title>
<g id="a_Node000005"><a xlink:href="$structFMemory.html#aedf1c48c1db4dc9f050e7efed5e8a9c9" xlink:title=" ">
<polygon fill="white" stroke="#666666" points="480.38,-116.75 372.88,-116.75 372.88,-96 480.38,-96 480.38,-116.75"/>
<text xml:space="preserve" text-anchor="middle" x="426.62" y="-103.25" font-family="Helvetica,sans-Serif" font-size="10.00">FMemory::Memset</text>
</a>
</g>
</g>
<!-- Node2&#45;&gt;Node5 -->
<g id="edge4_Node000002_Node000005" class="edge">
<title>Node2&#45;&gt;Node5</title>
<g id="a_edge4_Node000002_Node000005"><a xlink:title=" ">
<path fill="none" stroke="#63b8ff" d="M333.05,-106.38C342.47,-106.38 352.04,-106.38 361.28,-106.38"/>
<polygon fill="#63b8ff" stroke="#63b8ff" points="361.26,-109.88 371.26,-106.38 361.26,-102.88 361.26,-109.88"/>
</a>
</g>
</g>
<!-- Node4 -->
<g id="Node000004" class="node">
<title>Node4</title>
<g id="a_Node000004"><a xlink:href="$structFGenericPlatformMemory.html#a039ab8ec901d143a5bee24861dbc1a4b" xlink:title=" ">
<polygon fill="white" stroke="#666666" points="662.5,-171.12 520.5,-171.12 520.5,-137.62 662.5,-137.62 662.5,-171.12"/>
<text xml:space="preserve" text-anchor="start" x="528.5" y="-157.62" font-family="Helvetica,sans-Serif" font-size="10.00">FGenericPlatformMemory</text>
<text xml:space="preserve" text-anchor="middle" x="591.5" y="-144.88" font-family="Helvetica,sans-Serif" font-size="10.00">::Memcpy</text>
</a>
</g>
</g>
<!-- Node3&#45;&gt;Node4 -->
<g id="edge3_Node000003_Node000004" class="edge">
<title>Node3&#45;&gt;Node4</title>
<g id="a_edge3_Node000003_Node000004"><a xlink:title=" ">
<path fill="none" stroke="#63b8ff" d="M481.86,-152.37C490.61,-152.54 499.83,-152.71 509.06,-152.87"/>
<polygon fill="#63b8ff" stroke="#63b8ff" points="508.7,-156.37 518.76,-153.05 508.83,-149.37 508.7,-156.37"/>
</a>
</g>
</g>
<!-- Node6 -->
<g id="Node000006" class="node">
<title>Node6</title>
<g id="a_Node000006"><a xlink:href="$structFGenericPlatformMemory.html#ab251038ece3bfd3abd8566146912dadc" xlink:title=" ">
<polygon fill="white" stroke="#666666" points="662.5,-119.12 520.5,-119.12 520.5,-85.62 662.5,-85.62 662.5,-119.12"/>
<text xml:space="preserve" text-anchor="start" x="528.5" y="-105.62" font-family="Helvetica,sans-Serif" font-size="10.00">FGenericPlatformMemory</text>
<text xml:space="preserve" text-anchor="middle" x="591.5" y="-92.88" font-family="Helvetica,sans-Serif" font-size="10.00">::Memset</text>
</a>
</g>
</g>
<!-- Node5&#45;&gt;Node6 -->
<g id="edge5_Node000005_Node000006" class="edge">
<title>Node5&#45;&gt;Node6</title>
<g id="a_edge5_Node000005_Node000006"><a xlink:title=" ">
<path fill="none" stroke="#63b8ff" d="M480.51,-105.08C489.59,-104.85 499.21,-104.62 508.83,-104.38"/>
<polygon fill="#63b8ff" stroke="#63b8ff" points="508.68,-107.89 518.59,-104.14 508.51,-100.89 508.68,-107.89"/>
</a>
</g>
</g>
<!-- Node8 -->
<g id="Node000008" class="node">
<title>Node8</title>
<g id="a_Node000008"><a xlink:href="$structFIoHash.html#a695b2f3ee21516d3eac98ae7ccc3485c" xlink:title=" ">
<polygon fill="white" stroke="#666666" points="477.38,-59.75 375.88,-59.75 375.88,-39 477.38,-39 477.38,-59.75"/>
<text xml:space="preserve" text-anchor="middle" x="426.62" y="-46.25" font-family="Helvetica,sans-Serif" font-size="10.00">FIoHash::FIoHash</text>
</a>
</g>
</g>
<!-- Node7&#45;&gt;Node8 -->
<g id="edge7_Node000007_Node000008" class="edge">
<title>Node7&#45;&gt;Node8</title>
<g id="a_edge7_Node000007_Node000008"><a xlink:title=" ">
<path fill="none" stroke="#63b8ff" d="M316.34,-49.38C331.8,-49.38 348.57,-49.38 364.24,-49.38"/>
<polygon fill="#63b8ff" stroke="#63b8ff" points="363.9,-52.88 373.9,-49.38 363.9,-45.88 363.9,-52.88"/>
</a>
</g>
</g>
<!-- Node9 -->
<g id="Node000009" class="node">
<title>Node9</title>
<g id="a_Node000009"><a xlink:href="$classFBlake3.html#a91b86fe6ee266b9b02ea4b504a64e98e" xlink:title=" ">
<polygon fill="white" stroke="#666666" points="484.5,-20.75 368.75,-20.75 368.75,0 484.5,0 484.5,-20.75"/>
<text xml:space="preserve" text-anchor="middle" x="426.62" y="-7.25" font-family="Helvetica,sans-Serif" font-size="10.00">FBlake3::HashBuffer</text>
</a>
</g>
</g>
<!-- Node7&#45;&gt;Node9 -->
<g id="edge9_Node000007_Node000009" class="edge">
<title>Node7&#45;&gt;Node9</title>
<g id="a_edge9_Node000007_Node000009"><a xlink:title=" ">
<path fill="none" stroke="#63b8ff" d="M305.41,-38.51C324.83,-33.97 347.6,-28.64 368.07,-23.85"/>
<polygon fill="#63b8ff" stroke="#63b8ff" points="368.76,-27.28 377.7,-21.59 367.16,-20.46 368.76,-27.28"/>
</a>
</g>
</g>
<!-- Node8&#45;&gt;Node8 -->
<g id="edge8_Node000008_Node000008" class="edge">
<title>Node8&#45;&gt;Node8</title>
<g id="a_edge8_Node000008_Node000008"><a xlink:title=" ">
<path fill="none" stroke="#63b8ff" d="M400.06,-60.15C389.43,-68.81 398.29,-77.75 426.62,-77.75 442.12,-77.75 451.79,-75.08 455.64,-71.24"/>
<polygon fill="#63b8ff" stroke="#63b8ff" points="459.09,-70.64 453.52,-61.63 452.25,-72.14 459.09,-70.64"/>
</a>
</g>
</g>
</g>
</svg>
