<?xml version="1.0" encoding="UTF-8" standalone="no"?>
<!DOCTYPE svg PUBLIC "-//W3C//DTD SVG 1.1//EN"
 "http://www.w3.org/Graphics/SVG/1.1/DTD/svg11.dtd">
<!-- Generated by graphviz version 14.1.4 (0)
 -->
<!-- Title: TArray::FindByPredicate Pages: 1 -->
<svg width="355pt" height="60pt"
 viewBox="0.00 0.00 355.00 60.00" xmlns="http://www.w3.org/2000/svg" xmlns:xlink="http://www.w3.org/1999/xlink">
<g id="graph0" class="graph" transform="scale(1 1) rotate(0) translate(4 55.5)">
<title>TArray::FindByPredicate</title>
<!-- Node1 -->
<g id="Node000001" class="node">
<title>Node1</title>
<g id="a_Node000001"><a xlink:title=" ">
<polygon fill="#999999" stroke="#666666" points="347,-33.5 215.5,-33.5 215.5,-12.75 347,-12.75 347,-33.5"/>
<text xml:space="preserve" text-anchor="middle" x="281.25" y="-20" font-family="Helvetica,sans-Serif" font-size="10.00">TArray::FindByPredicate</text>
</a>
</g>
</g>
<!-- Node1&#45;&gt;Node1 -->
<g id="edge2_Node000001_Node000001" class="edge">
<title>Node1&#45;&gt;Node1</title>
<g id="a_edge2_Node000001_Node000001"><a xlink:title=" ">
<path fill="none" stroke="#63b8ff" d="M314.95,-44.99C310.48,-48.83 299.25,-51.5 281.25,-51.5 248.34,-51.5 238.05,-42.56 250.39,-33.9"/>
<polygon fill="#63b8ff" stroke="#63b8ff" points="318.35,-44.18 312.48,-35.36 311.57,-45.92 318.35,-44.18"/>
</a>
</g>
</g>
<!-- Node2 -->
<g id="Node000002" class="node">
<title>Node2</title>
<g id="a_Node000002"><a xlink:href="$classTArray.html#a1510a11ec3fc7228cebfd4b15da14044" xlink:title=" ">
<polygon fill="white" stroke="#666666" points="179.5,-46.25 0,-46.25 0,0 179.5,0 179.5,-46.25"/>
<text xml:space="preserve" text-anchor="start" x="8" y="-32.75" font-family="Helvetica,sans-Serif" font-size="10.00">TArray&lt; InElementType,</text>
<text xml:space="preserve" text-anchor="start" x="8" y="-20" font-family="Helvetica,sans-Serif" font-size="10.00"> NavMeshMemory::FNavAllocator</text>
<text xml:space="preserve" text-anchor="middle" x="89.75" y="-7.25" font-family="Helvetica,sans-Serif" font-size="10.00"> &gt;::ContainsByPredicate</text>
</a>
</g>
</g>
<!-- Node1&#45;&gt;Node2 -->
<g id="edge1_Node000001_Node000002" class="edge">
<title>Node1&#45;&gt;Node2</title>
<g id="a_edge1_Node000001_Node000002"><a xlink:title=" ">
<path fill="none" stroke="#63b8ff" d="M203.69,-23.12C195.84,-23.12 187.82,-23.12 179.85,-23.12"/>
<polygon fill="#63b8ff" stroke="#63b8ff" points="203.52,-26.63 213.52,-23.13 203.52,-19.63 203.52,-26.63"/>
</a>
</g>
</g>
</g>
</svg>
