<?xml version="1.0" encoding="UTF-8" standalone="no"?>
<!DOCTYPE svg PUBLIC "-//W3C//DTD SVG 1.1//EN"
 "http://www.w3.org/Graphics/SVG/1.1/DTD/svg11.dtd">
<!-- Generated by graphviz version 14.1.4 (0)
 -->
<!-- Title: TRingBuffer::PopFront Pages: 1 -->
<svg width="882pt" height="215pt"
 viewBox="0.00 0.00 882.00 215.00" xmlns="http://www.w3.org/2000/svg" xmlns:xlink="http://www.w3.org/1999/xlink">
<g id="graph0" class="graph" transform="scale(1 1) rotate(0) translate(4 210.75)">
<title>TRingBuffer::PopFront</title>
<!-- Node1 -->
<g id="Node000001" class="node">
<title>Node1</title>
<g id="a_Node000001"><a xlink:title=" ">
<polygon fill="#999999" stroke="#666666" points="122.5,-42.75 0,-42.75 0,-22 122.5,-22 122.5,-42.75"/>
<text xml:space="preserve" text-anchor="middle" x="61.25" y="-29.25" font-family="Helvetica,sans-Serif" font-size="10.00">TRingBuffer::PopFront</text>
</a>
</g>
</g>
<!-- Node2 -->
<g id="Node000002" class="node">
<title>Node2</title>
<g id="a_Node000002"><a xlink:href="$classTRingBuffer.html#a031e34e20a32b7940da154f3524a5833" xlink:title=" ">
<polygon fill="white" stroke="#666666" points="324.5,-65.75 158.5,-65.75 158.5,-45 324.5,-45 324.5,-65.75"/>
<text xml:space="preserve" text-anchor="middle" x="241.5" y="-52.25" font-family="Helvetica,sans-Serif" font-size="10.00">TRingBuffer::PopFrontNoCheck</text>
</a>
</g>
</g>
<!-- Node1&#45;&gt;Node2 -->
<g id="edge1_Node000001_Node000002" class="edge">
<title>Node1&#45;&gt;Node2</title>
<g id="a_edge1_Node000001_Node000002"><a xlink:title=" ">
<path fill="none" stroke="#63b8ff" d="M122.6,-40.16C130.44,-41.17 138.62,-42.23 146.85,-43.29"/>
<polygon fill="#63b8ff" stroke="#63b8ff" points="146.22,-46.74 156.58,-44.55 147.11,-39.8 146.22,-46.74"/>
</a>
</g>
</g>
<!-- Node11 -->
<g id="Node000011" class="node">
<title>Node11</title>
<g id="a_Node000011"><a xlink:href="$classTRingBuffer.html#ad220f0b3db8564d64f2e6a5eb20e8b95" xlink:title=" ">
<polygon fill="white" stroke="#666666" points="320.75,-23.75 162.25,-23.75 162.25,-3 320.75,-3 320.75,-23.75"/>
<text xml:space="preserve" text-anchor="middle" x="241.5" y="-10.25" font-family="Helvetica,sans-Serif" font-size="10.00">TRingBuffer::PopRangeCheck</text>
</a>
</g>
</g>
<!-- Node1&#45;&gt;Node11 -->
<g id="edge11_Node000001_Node000011" class="edge">
<title>Node1&#45;&gt;Node11</title>
<g id="a_edge11_Node000001_Node000011"><a xlink:title=" ">
<path fill="none" stroke="#63b8ff" d="M122.6,-25.94C131.67,-24.98 141.19,-23.96 150.72,-22.94"/>
<polygon fill="#63b8ff" stroke="#63b8ff" points="150.81,-26.46 160.38,-21.91 150.07,-19.49 150.81,-26.46"/>
</a>
</g>
</g>
<!-- Node3 -->
<g id="Node000003" class="node">
<title>Node3</title>
<g id="a_Node000003"><a xlink:href="$classTRingBuffer.html#a7859abfc28865cfa7f653b915bb17885" xlink:title=" ">
<polygon fill="white" stroke="#666666" points="512.25,-110.75 360.5,-110.75 360.5,-90 512.25,-90 512.25,-110.75"/>
<text xml:space="preserve" text-anchor="middle" x="436.38" y="-97.25" font-family="Helvetica,sans-Serif" font-size="10.00">TRingBuffer::DestructRange</text>
</a>
</g>
</g>
<!-- Node2&#45;&gt;Node3 -->
<g id="edge2_Node000002_Node000003" class="edge">
<title>Node2&#45;&gt;Node3</title>
<g id="a_edge2_Node000002_Node000003"><a xlink:title=" ">
<path fill="none" stroke="#63b8ff" d="M288.7,-66.15C315.46,-72.4 349.38,-80.31 377.86,-86.96"/>
<polygon fill="#63b8ff" stroke="#63b8ff" points="376.88,-90.32 387.41,-89.18 378.47,-83.5 376.88,-90.32"/>
</a>
</g>
</g>
<!-- Node9 -->
<g id="Node000009" class="node">
<title>Node9</title>
<g id="a_Node000009"><a xlink:href="$classTRingBuffer.html#a15b4c13937861b41854ce00000ffc290" xlink:title=" ">
<polygon fill="white" stroke="#666666" points="507,-72.12 365.75,-72.12 365.75,-38.62 507,-38.62 507,-72.12"/>
<text xml:space="preserve" text-anchor="start" x="373.75" y="-58.62" font-family="Helvetica,sans-Serif" font-size="10.00">TRingBuffer::SlackTracker</text>
<text xml:space="preserve" text-anchor="middle" x="436.38" y="-45.88" font-family="Helvetica,sans-Serif" font-size="10.00">NumChanged</text>
</a>
</g>
</g>
<!-- Node2&#45;&gt;Node9 -->
<g id="edge9_Node000002_Node000009" class="edge">
<title>Node2&#45;&gt;Node9</title>
<g id="a_edge9_Node000002_Node000009"><a xlink:title=" ">
<path fill="none" stroke="#63b8ff" d="M324.86,-55.38C334.57,-55.38 344.48,-55.38 354.18,-55.38"/>
<polygon fill="#63b8ff" stroke="#63b8ff" points="353.93,-58.88 363.93,-55.38 353.93,-51.88 353.93,-58.88"/>
</a>
</g>
</g>
<!-- Node4 -->
<g id="Node000004" class="node">
<title>Node4</title>
<g id="a_Node000004"><a xlink:href="$MemoryOps_8h.html#a64fb83a2ca369ceca2ff056d415ec2ed" xlink:title=" ">
<polygon fill="white" stroke="#666666" points="666.62,-206.75 581.62,-206.75 581.62,-186 666.62,-186 666.62,-206.75"/>
<text xml:space="preserve" text-anchor="middle" x="624.12" y="-193.25" font-family="Helvetica,sans-Serif" font-size="10.00">DestructItems</text>
</a>
</g>
</g>
<!-- Node3&#45;&gt;Node4 -->
<g id="edge3_Node000003_Node000004" class="edge">
<title>Node3&#45;&gt;Node4</title>
<g id="a_edge3_Node000003_Node000004"><a xlink:title=" ">
<path fill="none" stroke="#63b8ff" d="M449.81,-111.04C469.46,-127.36 509.45,-158.53 548.25,-176.38 555.23,-179.58 562.82,-182.36 570.41,-184.73"/>
<polygon fill="#63b8ff" stroke="#63b8ff" points="569.41,-188.08 579.99,-187.5 571.35,-181.36 569.41,-188.08"/>
</a>
</g>
</g>
<!-- Node5 -->
<g id="Node000005" class="node">
<title>Node5</title>
<g id="a_Node000005"><a xlink:href="$classTRingBuffer.html#ad7c20110073fd9f022ec9d9b668dd565" xlink:title=" ">
<polygon fill="white" stroke="#666666" points="691.38,-149.75 556.88,-149.75 556.88,-129 691.38,-129 691.38,-149.75"/>
<text xml:space="preserve" text-anchor="middle" x="624.12" y="-136.25" font-family="Helvetica,sans-Serif" font-size="10.00">TRingBuffer::GetStorage</text>
</a>
</g>
</g>
<!-- Node3&#45;&gt;Node5 -->
<g id="edge4_Node000003_Node000005" class="edge">
<title>Node3&#45;&gt;Node5</title>
<g id="a_edge4_Node000003_Node000005"><a xlink:title=" ">
<path fill="none" stroke="#63b8ff" d="M489.12,-111.24C511.16,-115.87 537.09,-121.31 560.23,-126.17"/>
<polygon fill="#63b8ff" stroke="#63b8ff" points="559.35,-129.56 569.86,-128.19 560.79,-122.71 559.35,-129.56"/>
</a>
</g>
</g>
<!-- Node7 -->
<g id="Node000007" class="node">
<title>Node7</title>
<g id="a_Node000007"><a xlink:href="$classTRingBuffer.html#a841b0cf4b4a9b0ba7a1340fa47e50bb1" xlink:title=" ">
<polygon fill="white" stroke="#666666" points="674.5,-110.75 573.75,-110.75 573.75,-90 674.5,-90 674.5,-110.75"/>
<text xml:space="preserve" text-anchor="middle" x="624.12" y="-97.25" font-family="Helvetica,sans-Serif" font-size="10.00">TRingBuffer::Max</text>
</a>
</g>
</g>
<!-- Node3&#45;&gt;Node7 -->
<g id="edge7_Node000003_Node000007" class="edge">
<title>Node3&#45;&gt;Node7</title>
<g id="a_edge7_Node000003_Node000007"><a xlink:title=" ">
<path fill="none" stroke="#63b8ff" d="M512.66,-100.38C529.09,-100.38 546.28,-100.38 562.07,-100.38"/>
<polygon fill="#63b8ff" stroke="#63b8ff" points="561.78,-103.88 571.78,-100.38 561.78,-96.88 561.78,-103.88"/>
</a>
</g>
</g>
<!-- Node8 -->
<g id="Node000008" class="node">
<title>Node8</title>
<g id="a_Node000008"><a xlink:href="$classTRingBuffer.html#a4ddd780cb625faa57f3eafa584b58e6e" xlink:title=" ">
<polygon fill="white" stroke="#666666" points="700,-72.12 548.25,-72.12 548.25,-38.62 700,-38.62 700,-72.12"/>
<text xml:space="preserve" text-anchor="start" x="556.25" y="-58.62" font-family="Helvetica,sans-Serif" font-size="10.00">TRingBuffer::NeedsDestruct</text>
<text xml:space="preserve" text-anchor="middle" x="624.12" y="-45.88" font-family="Helvetica,sans-Serif" font-size="10.00">Elements</text>
</a>
</g>
</g>
<!-- Node3&#45;&gt;Node8 -->
<g id="edge8_Node000003_Node000008" class="edge">
<title>Node3&#45;&gt;Node8</title>
<g id="a_edge8_Node000003_Node000008"><a xlink:title=" ">
<path fill="none" stroke="#63b8ff" d="M481.87,-89.6C499.7,-85.28 520.83,-80.16 541.25,-75.21"/>
<polygon fill="#63b8ff" stroke="#63b8ff" points="541.79,-78.68 550.69,-72.92 540.15,-71.88 541.79,-78.68"/>
</a>
</g>
</g>
<!-- Node5&#45;&gt;Node5 -->
<g id="edge5_Node000005_Node000005" class="edge">
<title>Node5&#45;&gt;Node5</title>
<g id="a_edge5_Node000005_Node000005"><a xlink:title=" ">
<path fill="none" stroke="#63b8ff" d="M595.02,-150.15C583.38,-158.81 593.08,-167.75 624.12,-167.75 641.1,-167.75 651.7,-165.08 655.91,-161.24"/>
<polygon fill="#63b8ff" stroke="#63b8ff" points="659.34,-160.52 653.59,-151.62 652.53,-162.16 659.34,-160.52"/>
</a>
</g>
</g>
<!-- Node6 -->
<g id="Node000006" class="node">
<title>Node6</title>
<g id="a_Node000006"><a xlink:href="$classTRingBuffer.html#a8c285901c0c99ff13fe22f8035b51cb0" xlink:title=" ">
<polygon fill="white" stroke="#666666" points="873.5,-149.75 736,-149.75 736,-129 873.5,-129 873.5,-149.75"/>
<text xml:space="preserve" text-anchor="middle" x="804.75" y="-136.25" font-family="Helvetica,sans-Serif" font-size="10.00">TRingBuffer::TRingBuffer</text>
</a>
</g>
</g>
<!-- Node5&#45;&gt;Node6 -->
<g id="edge6_Node000005_Node000006" class="edge">
<title>Node5&#45;&gt;Node6</title>
<g id="a_edge6_Node000005_Node000006"><a xlink:title=" ">
<path fill="none" stroke="#63b8ff" d="M691.64,-139.38C702.31,-139.38 713.45,-139.38 724.39,-139.38"/>
<polygon fill="#63b8ff" stroke="#63b8ff" points="724.18,-142.88 734.18,-139.38 724.18,-135.88 724.18,-142.88"/>
</a>
</g>
</g>
<!-- Node10 -->
<g id="Node000010" class="node">
<title>Node10</title>
<g id="a_Node000010"><a xlink:href="$classTRingBuffer.html#a5c37b30f4de47dfe15a368ba4c353568" xlink:title=" ">
<polygon fill="white" stroke="#666666" points="675.62,-20.75 572.62,-20.75 572.62,0 675.62,0 675.62,-20.75"/>
<text xml:space="preserve" text-anchor="middle" x="624.12" y="-7.25" font-family="Helvetica,sans-Serif" font-size="10.00">TRingBuffer::Num</text>
</a>
</g>
</g>
<!-- Node9&#45;&gt;Node10 -->
<g id="edge10_Node000009_Node000010" class="edge">
<title>Node9&#45;&gt;Node10</title>
<g id="a_edge10_Node000009_Node000010"><a xlink:title=" ">
<path fill="none" stroke="#63b8ff" d="M507.33,-38.43C527.1,-33.64 548.34,-28.49 567.17,-23.93"/>
<polygon fill="#63b8ff" stroke="#63b8ff" points="567.88,-27.36 576.77,-21.6 566.23,-20.56 567.88,-27.36"/>
</a>
</g>
</g>
<!-- Node11&#45;&gt;Node10 -->
<g id="edge12_Node000011_Node000010" class="edge">
<title>Node11&#45;&gt;Node10</title>
<g id="a_edge12_Node000011_Node000010"><a xlink:title=" ">
<path fill="none" stroke="#63b8ff" d="M320.9,-12.76C391.94,-12.2 495.23,-11.38 560.78,-10.87"/>
<polygon fill="#63b8ff" stroke="#63b8ff" points="560.68,-14.37 570.65,-10.79 560.62,-7.37 560.68,-14.37"/>
</a>
</g>
</g>
</g>
</svg>
