<?xml version="1.0" encoding="UTF-8" standalone="no"?>
<!DOCTYPE svg PUBLIC "-//W3C//DTD SVG 1.1//EN"
 "http://www.w3.org/Graphics/SVG/1.1/DTD/svg11.dtd">
<!-- Generated by graphviz version 14.1.4 (0)
 -->
<!-- Title: FPathViews::Equals Pages: 1 -->
<svg width="300pt" height="130pt"
 viewBox="0.00 0.00 300.00 130.00" xmlns="http://www.w3.org/2000/svg" xmlns:xlink="http://www.w3.org/1999/xlink">
<g id="graph0" class="graph" transform="scale(1 1) rotate(0) translate(4 125.5)">
<title>FPathViews::Equals</title>
<!-- Node1 -->
<g id="Node000001" class="node">
<title>Node1</title>
<g id="a_Node000001"><a xlink:title=" ">
<polygon fill="#999999" stroke="#666666" points="292.25,-62.12 181,-62.12 181,-41.38 292.25,-41.38 292.25,-62.12"/>
<text xml:space="preserve" text-anchor="middle" x="236.62" y="-48.62" font-family="Helvetica,sans-Serif" font-size="10.00">FPathViews::Equals</text>
</a>
</g>
</g>
<!-- Node2 -->
<g id="Node000002" class="node">
<title>Node2</title>
<g id="a_Node000002"><a xlink:href="$structTDirectoryTree_1_1FTreeNode.html#a945536fcf725e8cf57fe73358c5c17c2" xlink:title=" ">
<polygon fill="white" stroke="#666666" points="145,-103.5 0,-103.5 0,-70 145,-70 145,-103.5"/>
<text xml:space="preserve" text-anchor="start" x="8" y="-90" font-family="Helvetica,sans-Serif" font-size="10.00">TDirectoryTree::FTreeNode</text>
<text xml:space="preserve" text-anchor="middle" x="72.5" y="-77.25" font-family="Helvetica,sans-Serif" font-size="10.00">::ContainsChildPaths</text>
</a>
</g>
</g>
<!-- Node1&#45;&gt;Node2 -->
<g id="edge1_Node000001_Node000002" class="edge">
<title>Node1&#45;&gt;Node2</title>
<g id="a_edge1_Node000001_Node000002"><a xlink:title=" ">
<path fill="none" stroke="#63b8ff" d="M174.65,-64.91C165.09,-66.98 155.13,-69.13 145.35,-71.24"/>
<polygon fill="#63b8ff" stroke="#63b8ff" points="175.14,-68.39 184.18,-62.86 173.67,-61.55 175.14,-68.39"/>
</a>
</g>
</g>
<!-- Node3 -->
<g id="Node000003" class="node">
<title>Node3</title>
<g id="a_Node000003"><a xlink:href="$structTDirectoryTree_1_1FTreeNode.html#a81cdb4e026c8f14e7e939e03df5f2022" xlink:title=" ">
<polygon fill="white" stroke="#666666" points="145,-33.5 0,-33.5 0,0 145,0 145,-33.5"/>
<text xml:space="preserve" text-anchor="start" x="8" y="-20" font-family="Helvetica,sans-Serif" font-size="10.00">TDirectoryTree::FTreeNode</text>
<text xml:space="preserve" text-anchor="middle" x="72.5" y="-7.25" font-family="Helvetica,sans-Serif" font-size="10.00">::TryGetChildren</text>
</a>
</g>
</g>
<!-- Node1&#45;&gt;Node3 -->
<g id="edge3_Node000001_Node000003" class="edge">
<title>Node1&#45;&gt;Node3</title>
<g id="a_edge3_Node000001_Node000003"><a xlink:title=" ">
<path fill="none" stroke="#63b8ff" d="M174.65,-38.59C165.09,-36.52 155.13,-34.37 145.35,-32.26"/>
<polygon fill="#63b8ff" stroke="#63b8ff" points="173.67,-41.95 184.18,-40.64 175.14,-35.11 173.67,-41.95"/>
</a>
</g>
</g>
<!-- Node2&#45;&gt;Node2 -->
<g id="edge2_Node000002_Node000002" class="edge">
<title>Node2&#45;&gt;Node2</title>
<g id="a_edge2_Node000002_Node000002"><a xlink:title=" ">
<path fill="none" stroke="#63b8ff" d="M100.06,-114.89C95.57,-118.85 86.38,-121.5 72.5,-121.5 47.82,-121.5 37.98,-113.12 43,-103.91"/>
<polygon fill="#63b8ff" stroke="#63b8ff" points="103.44,-115.86 101.74,-105.4 96.55,-114.64 103.44,-115.86"/>
</a>
</g>
</g>
<!-- Node3&#45;&gt;Node3 -->
<g id="edge4_Node000003_Node000003" class="edge">
<title>Node3&#45;&gt;Node3</title>
<g id="a_edge4_Node000003_Node000003"><a xlink:title=" ">
<path fill="none" stroke="#63b8ff" d="M100.06,-44.89C95.57,-48.85 86.38,-51.5 72.5,-51.5 47.82,-51.5 37.98,-43.12 43,-33.91"/>
<polygon fill="#63b8ff" stroke="#63b8ff" points="103.44,-45.86 101.74,-35.4 96.55,-44.64 103.44,-45.86"/>
</a>
</g>
</g>
</g>
</svg>
