<?xml version="1.0" encoding="UTF-8" standalone="no"?>
<!DOCTYPE svg PUBLIC "-//W3C//DTD SVG 1.1//EN"
 "http://www.w3.org/Graphics/SVG/1.1/DTD/svg11.dtd">
<!-- Generated by graphviz version 14.1.4 (0)
 -->
<!-- Title: TLockFreeFixedSizeAllocator_TLSCacheBase::GetTLS Pages: 1 -->
<svg width="561pt" height="94pt"
 viewBox="0.00 0.00 561.00 94.00" xmlns="http://www.w3.org/2000/svg" xmlns:xlink="http://www.w3.org/1999/xlink">
<g id="graph0" class="graph" transform="scale(1 1) rotate(0) translate(4 89.5)">
<title>TLockFreeFixedSizeAllocator_TLSCacheBase::GetTLS</title>
<!-- Node1 -->
<g id="Node000001" class="node">
<title>Node1</title>
<g id="a_Node000001"><a xlink:title=" ">
<polygon fill="#999999" stroke="#666666" points="552.75,-59.5 398,-59.5 398,-26 552.75,-26 552.75,-59.5"/>
<text xml:space="preserve" text-anchor="start" x="406" y="-46" font-family="Helvetica,sans-Serif" font-size="10.00">TLockFreeFixedSizeAllocator</text>
<text xml:space="preserve" text-anchor="middle" x="475.38" y="-33.25" font-family="Helvetica,sans-Serif" font-size="10.00">_TLSCacheBase::GetTLS</text>
</a>
</g>
</g>
<!-- Node2 -->
<g id="Node000002" class="node">
<title>Node2</title>
<g id="a_Node000002"><a xlink:href="$classTLockFreeFixedSizeAllocator__TLSCacheBase.html#a3ae2c51dabb29489479276449f738921" xlink:title=" ">
<polygon fill="white" stroke="#666666" points="362,-85.5 207.25,-85.5 207.25,-52 362,-52 362,-85.5"/>
<text xml:space="preserve" text-anchor="start" x="215.25" y="-72" font-family="Helvetica,sans-Serif" font-size="10.00">TLockFreeFixedSizeAllocator</text>
<text xml:space="preserve" text-anchor="middle" x="284.62" y="-59.25" font-family="Helvetica,sans-Serif" font-size="10.00">_TLSCacheBase::Allocate</text>
</a>
</g>
</g>
<!-- Node1&#45;&gt;Node2 -->
<g id="edge1_Node000001_Node000002" class="edge">
<title>Node1&#45;&gt;Node2</title>
<g id="a_edge1_Node000001_Node000002"><a xlink:title=" ">
<path fill="none" stroke="#63b8ff" d="M386.33,-54.88C378.32,-55.98 370.24,-57.09 362.33,-58.18"/>
<polygon fill="#63b8ff" stroke="#63b8ff" points="386.67,-58.36 396.1,-53.53 385.72,-51.43 386.67,-58.36"/>
</a>
</g>
</g>
<!-- Node4 -->
<g id="Node000004" class="node">
<title>Node4</title>
<g id="a_Node000004"><a xlink:href="$classTLockFreeFixedSizeAllocator__TLSCacheBase.html#ae98e8c0f56be0f31019f4c1d40a445a5" xlink:title=" ">
<polygon fill="white" stroke="#666666" points="362,-33.5 207.25,-33.5 207.25,0 362,0 362,-33.5"/>
<text xml:space="preserve" text-anchor="start" x="215.25" y="-20" font-family="Helvetica,sans-Serif" font-size="10.00">TLockFreeFixedSizeAllocator</text>
<text xml:space="preserve" text-anchor="middle" x="284.62" y="-7.25" font-family="Helvetica,sans-Serif" font-size="10.00">_TLSCacheBase::Free</text>
</a>
</g>
</g>
<!-- Node1&#45;&gt;Node4 -->
<g id="edge3_Node000001_Node000004" class="edge">
<title>Node1&#45;&gt;Node4</title>
<g id="a_edge3_Node000001_Node000004"><a xlink:title=" ">
<path fill="none" stroke="#63b8ff" d="M386.33,-30.62C378.32,-29.52 370.24,-28.41 362.33,-27.32"/>
<polygon fill="#63b8ff" stroke="#63b8ff" points="385.72,-34.07 396.1,-31.97 386.67,-27.14 385.72,-34.07"/>
</a>
</g>
</g>
<!-- Node3 -->
<g id="Node000003" class="node">
<title>Node3</title>
<g id="a_Node000003"><a xlink:href="$classFGraphEventImpl.html#a8d1cd1641668cac3eecc2aabc7d21730" xlink:title=" ">
<polygon fill="white" stroke="#666666" points="171.25,-79.12 0,-79.12 0,-58.38 171.25,-58.38 171.25,-79.12"/>
<text xml:space="preserve" text-anchor="middle" x="85.62" y="-65.62" font-family="Helvetica,sans-Serif" font-size="10.00">FGraphEventImpl::operator new</text>
</a>
</g>
</g>
<!-- Node2&#45;&gt;Node3 -->
<g id="edge2_Node000002_Node000003" class="edge">
<title>Node2&#45;&gt;Node3</title>
<g id="a_edge2_Node000002_Node000003"><a xlink:title=" ">
<path fill="none" stroke="#63b8ff" d="M195.4,-68.75C187.5,-68.75 179.51,-68.75 171.63,-68.75"/>
<polygon fill="#63b8ff" stroke="#63b8ff" points="195.38,-72.25 205.38,-68.75 195.38,-65.25 195.38,-72.25"/>
</a>
</g>
</g>
<!-- Node5 -->
<g id="Node000005" class="node">
<title>Node5</title>
<g id="a_Node000005"><a xlink:href="$classFGraphEventImpl.html#a79604e5806cf51a49a34cd03d59af405" xlink:title=" ">
<polygon fill="white" stroke="#666666" points="159.62,-33.5 11.62,-33.5 11.62,0 159.62,0 159.62,-33.5"/>
<text xml:space="preserve" text-anchor="start" x="19.62" y="-20" font-family="Helvetica,sans-Serif" font-size="10.00">FGraphEventImpl::operator</text>
<text xml:space="preserve" text-anchor="middle" x="85.62" y="-7.25" font-family="Helvetica,sans-Serif" font-size="10.00"> delete</text>
</a>
</g>
</g>
<!-- Node4&#45;&gt;Node5 -->
<g id="edge4_Node000004_Node000005" class="edge">
<title>Node4&#45;&gt;Node5</title>
<g id="a_edge4_Node000004_Node000005"><a xlink:title=" ">
<path fill="none" stroke="#63b8ff" d="M195.56,-16.75C183.65,-16.75 171.53,-16.75 159.92,-16.75"/>
<polygon fill="#63b8ff" stroke="#63b8ff" points="195.38,-20.25 205.38,-16.75 195.38,-13.25 195.38,-20.25"/>
</a>
</g>
</g>
</g>
</svg>
