<?xml version="1.0" encoding="UTF-8" standalone="no"?>
<!DOCTYPE svg PUBLIC "-//W3C//DTD SVG 1.1//EN"
 "http://www.w3.org/Graphics/SVG/1.1/DTD/svg11.dtd">
<!-- Generated by graphviz version 14.1.4 (0)
 -->
<!-- Title: FScopeLock Pages: 1 -->
<svg width="145pt" height="216pt"
 viewBox="0.00 0.00 145.00 216.00" xmlns="http://www.w3.org/2000/svg" xmlns:xlink="http://www.w3.org/1999/xlink">
<g id="graph0" class="graph" transform="scale(1 1) rotate(0) translate(4 211.5)">
<title>FScopeLock</title>
<!-- Node1 -->
<g id="Node000001" class="node">
<title>Node1</title>
<g id="a_Node000001"><a xlink:title=" ">
<polygon fill="#999999" stroke="none" points="111.25,-54.25 25.75,-54.25 25.75,0 111.25,0 111.25,-54.25"/>
<text xml:space="preserve" text-anchor="start" x="39.62" y="-40.5" font-family="Helvetica,sans-Serif" font-size="10.00">FScopeLock</text>
<text xml:space="preserve" text-anchor="start" x="65.5" y="-23.75" font-family="Helvetica,sans-Serif" font-size="10.00"> </text>
<text xml:space="preserve" text-anchor="start" x="29.75" y="-7" font-family="Helvetica,sans-Serif" font-size="10.00">+</text>
<text xml:space="preserve" text-anchor="start" x="42" y="-7" font-family="Helvetica,sans-Serif" font-size="10.00">FScopeLock()</text>
<polygon fill="#666666" stroke="#666666" points="25.75,-35.5 25.75,-35.5 111.25,-35.5 111.25,-35.5 25.75,-35.5"/>
<polygon fill="#666666" stroke="#666666" points="25.75,-18.75 25.75,-18.75 111.25,-18.75 111.25,-18.75 25.75,-18.75"/>
<polygon fill="none" stroke="#666666" points="25.75,0 25.75,-54.25 111.25,-54.25 111.25,0 25.75,0"/>
</a>
</g>
</g>
<!-- Node2 -->
<g id="Node000002" class="node">
<title>Node2</title>
<g id="a_Node000002"><a xlink:href="$classUE_1_1TScopeLock.html" xlink:title=" ">
<polygon fill="white" stroke="none" points="137,-207.5 0,-207.5 0,-90.25 137,-90.25 137,-207.5"/>
<text xml:space="preserve" text-anchor="start" x="4" y="-193.75" font-family="Helvetica,sans-Serif" font-size="10.00">UE::TScopeLock&lt; FCritical</text>
<text xml:space="preserve" text-anchor="start" x="44.88" y="-181" font-family="Helvetica,sans-Serif" font-size="10.00">Section &gt;</text>
<text xml:space="preserve" text-anchor="start" x="10.69" y="-164.25" font-family="Helvetica,sans-Serif" font-size="10.00">&#45;</text>
<text xml:space="preserve" text-anchor="start" x="25.12" y="-164.25" font-family="Helvetica,sans-Serif" font-size="10.00">Mutex</text>
<text xml:space="preserve" text-anchor="start" x="8.44" y="-147.5" font-family="Helvetica,sans-Serif" font-size="10.00">+</text>
<text xml:space="preserve" text-anchor="start" x="25.12" y="-147.5" font-family="Helvetica,sans-Serif" font-size="10.00">UE_NONCOPYABLE()</text>
<text xml:space="preserve" text-anchor="start" x="8.44" y="-130.75" font-family="Helvetica,sans-Serif" font-size="10.00">+</text>
<text xml:space="preserve" text-anchor="start" x="25.12" y="-130.75" font-family="Helvetica,sans-Serif" font-size="10.00">TScopeLock()</text>
<text xml:space="preserve" text-anchor="start" x="8.44" y="-114" font-family="Helvetica,sans-Serif" font-size="10.00">+</text>
<text xml:space="preserve" text-anchor="start" x="25.12" y="-114" font-family="Helvetica,sans-Serif" font-size="10.00">~TScopeLock()</text>
<text xml:space="preserve" text-anchor="start" x="8.44" y="-97.25" font-family="Helvetica,sans-Serif" font-size="10.00">+</text>
<text xml:space="preserve" text-anchor="start" x="25.12" y="-97.25" font-family="Helvetica,sans-Serif" font-size="10.00">Unlock()</text>
<polygon fill="#666666" stroke="#666666" points="0,-176 0,-176 137,-176 137,-176 0,-176"/>
<polygon fill="#666666" stroke="#666666" points="0,-159.25 0,-159.25 23.12,-159.25 23.12,-159.25 0,-159.25"/>
<polygon fill="#666666" stroke="#666666" points="23.12,-159.25 23.12,-159.25 137,-159.25 137,-159.25 23.12,-159.25"/>
<polygon fill="none" stroke="#666666" points="0,-90.25 0,-207.5 137,-207.5 137,-90.25 0,-90.25"/>
</a>
</g>
</g>
<!-- Node2&#45;&gt;Node1 -->
<g id="edge1_Node000001_Node000002" class="edge">
<title>Node2&#45;&gt;Node1</title>
<g id="a_edge1_Node000001_Node000002"><a xlink:title=" ">
<path fill="none" stroke="#8b1a1a" d="M68.5,-79.14C68.5,-70.28 68.5,-61.67 68.5,-54.14"/>
<polygon fill="none" stroke="#8b1a1a" points="65,-78.94 68.5,-88.94 72,-78.94 65,-78.94"/>
</a>
</g>
</g>
</g>
</svg>
