<?xml version="1.0" encoding="UTF-8" standalone="no"?>
<!DOCTYPE svg PUBLIC "-//W3C//DTD SVG 1.1//EN"
 "http://www.w3.org/Graphics/SVG/1.1/DTD/svg11.dtd">
<!-- Generated by graphviz version 14.1.4 (0)
 -->
<!-- Title: FStaticLightingTextureMapping_InstancedStaticMesh::Apply Pages: 1 -->
<svg width="569pt" height="199pt"
 viewBox="0.00 0.00 569.00 199.00" xmlns="http://www.w3.org/2000/svg" xmlns:xlink="http://www.w3.org/1999/xlink">
<g id="graph0" class="graph" transform="scale(1 1) rotate(0) translate(4 194.88)">
<title>FStaticLightingTextureMapping_InstancedStaticMesh::Apply</title>
<!-- Node1 -->
<g id="Node000001" class="node">
<title>Node1</title>
<g id="a_Node000001"><a xlink:title=" ">
<polygon fill="#999999" stroke="#666666" points="166.75,-109.88 0,-109.88 0,-76.38 166.75,-76.38 166.75,-109.88"/>
<text xml:space="preserve" text-anchor="start" x="8" y="-96.38" font-family="Helvetica,sans-Serif" font-size="10.00">FStaticLightingTextureMapping</text>
<text xml:space="preserve" text-anchor="middle" x="83.38" y="-83.62" font-family="Helvetica,sans-Serif" font-size="10.00">_InstancedStaticMesh::Apply</text>
</a>
</g>
</g>
<!-- Node2 -->
<g id="Node000002" class="node">
<title>Node2</title>
<g id="a_Node000002"><a xlink:href="classUInstancedStaticMeshComponent.html#a70395847a2ce1c06e3f49415d56b04ab" target="_top" xlink:title=" ">
<polygon fill="white" stroke="#666666" points="384.88,-172.88 203.88,-172.88 203.88,-139.38 384.88,-139.38 384.88,-172.88"/>
<text xml:space="preserve" text-anchor="start" x="211.88" y="-159.38" font-family="Helvetica,sans-Serif" font-size="10.00">UInstancedStaticMeshComponent</text>
<text xml:space="preserve" text-anchor="middle" x="294.38" y="-146.62" font-family="Helvetica,sans-Serif" font-size="10.00">::ApplyLightMapping</text>
</a>
</g>
</g>
<!-- Node1&#45;&gt;Node2 -->
<g id="edge1_Node000001_Node000002" class="edge">
<title>Node1&#45;&gt;Node2</title>
<g id="a_edge1_Node000001_Node000002"><a xlink:title=" ">
<path fill="none" stroke="#63b8ff" d="M138.51,-110.34C158.65,-116.67 181.71,-123.82 202.75,-130.12 208.98,-131.99 215.45,-133.9 221.95,-135.8"/>
<polygon fill="#63b8ff" stroke="#63b8ff" points="220.84,-139.13 231.42,-138.56 222.79,-132.4 220.84,-139.13"/>
</a>
</g>
</g>
<!-- Node3 -->
<g id="Node000003" class="node">
<title>Node3</title>
<g id="a_Node000003"><a xlink:href="PawnIterator_8h.html#a60de95b890b12253839b1151d564a100" target="_top" xlink:title=" ">
<polygon fill="white" stroke="#666666" points="313.25,-103.5 275.5,-103.5 275.5,-82.75 313.25,-82.75 313.25,-103.5"/>
<text xml:space="preserve" text-anchor="middle" x="294.38" y="-90" font-family="Helvetica,sans-Serif" font-size="10.00">Cast</text>
</a>
</g>
</g>
<!-- Node1&#45;&gt;Node3 -->
<g id="edge3_Node000001_Node000003" class="edge">
<title>Node1&#45;&gt;Node3</title>
<g id="a_edge3_Node000001_Node000003"><a xlink:title=" ">
<path fill="none" stroke="#63b8ff" d="M166.98,-93.12C201.3,-93.12 238.91,-93.12 264.11,-93.12"/>
<polygon fill="#63b8ff" stroke="#63b8ff" points="263.9,-96.63 273.9,-93.13 263.9,-89.63 263.9,-96.63"/>
</a>
</g>
</g>
<!-- Node5 -->
<g id="Node000005" class="node">
<title>Node5</title>
<g id="a_Node000005"><a xlink:href="classFStaticLightingTextureMapping__InstancedStaticMesh.html#a4276471660708356390f9f9e72460194" target="_top" xlink:title=" ">
<polygon fill="white" stroke="#666666" points="386,-46.25 202.75,-46.25 202.75,0 386,0 386,-46.25"/>
<text xml:space="preserve" text-anchor="start" x="210.75" y="-32.75" font-family="Helvetica,sans-Serif" font-size="10.00">FStaticLightingTextureMapping</text>
<text xml:space="preserve" text-anchor="start" x="210.75" y="-20" font-family="Helvetica,sans-Serif" font-size="10.00">_InstancedStaticMesh::UInstanced</text>
<text xml:space="preserve" text-anchor="middle" x="294.38" y="-7.25" font-family="Helvetica,sans-Serif" font-size="10.00">StaticMeshComponent</text>
</a>
</g>
</g>
<!-- Node1&#45;&gt;Node5 -->
<g id="edge6_Node000001_Node000005" class="edge">
<title>Node1&#45;&gt;Node5</title>
<g id="a_edge6_Node000001_Node000005"><a xlink:title=" ">
<path fill="none" stroke="#63b8ff" d="M135.77,-75.91C158.82,-68.19 186.58,-58.89 212.33,-50.27"/>
<polygon fill="#63b8ff" stroke="#63b8ff" points="213.41,-53.6 221.78,-47.1 211.19,-46.96 213.41,-53.6"/>
</a>
</g>
</g>
<!-- Node2&#45;&gt;Node2 -->
<g id="edge2_Node000002_Node000002" class="edge">
<title>Node2&#45;&gt;Node2</title>
<g id="a_edge2_Node000002_Node000002"><a xlink:title=" ">
<path fill="none" stroke="#63b8ff" d="M258.94,-173.29C252.92,-182.49 264.73,-190.88 294.38,-190.88 311.05,-190.88 322.08,-188.22 327.47,-184.26"/>
<polygon fill="#63b8ff" stroke="#63b8ff" points="330.84,-185.28 329.5,-174.77 323.99,-183.82 330.84,-185.28"/>
</a>
</g>
</g>
<!-- Node3&#45;&gt;Node3 -->
<g id="edge4_Node000003_Node000003" class="edge">
<title>Node3&#45;&gt;Node3</title>
<g id="a_edge4_Node000003_Node000003"><a xlink:title=" ">
<path fill="none" stroke="#63b8ff" d="M275.28,-98.01C246.24,-107.91 252.6,-121.5 294.38,-121.5 330.27,-121.5 340.02,-111.46 323.62,-102.35"/>
<polygon fill="#63b8ff" stroke="#63b8ff" points="325.43,-99.32 314.86,-98.6 322.67,-105.76 325.43,-99.32"/>
</a>
</g>
</g>
<!-- Node4 -->
<g id="Node000004" class="node">
<title>Node4</title>
<g id="a_Node000004"><a xlink:href="structFPawnIteratorObject.html#a684316caab3954b0e82449d86f7ff960" target="_top" xlink:title=" ">
<polygon fill="white" stroke="#666666" points="561,-103.5 422,-103.5 422,-82.75 561,-82.75 561,-103.5"/>
<text xml:space="preserve" text-anchor="middle" x="491.5" y="-90" font-family="Helvetica,sans-Serif" font-size="10.00">FPawnIteratorObject::Get</text>
</a>
</g>
</g>
<!-- Node3&#45;&gt;Node4 -->
<g id="edge5_Node000003_Node000004" class="edge">
<title>Node3&#45;&gt;Node4</title>
<g id="a_edge5_Node000003_Node000004"><a xlink:title=" ">
<path fill="none" stroke="#63b8ff" d="M313.73,-93.12C335.9,-93.12 374.67,-93.12 410.25,-93.12"/>
<polygon fill="#63b8ff" stroke="#63b8ff" points="410.16,-96.63 420.16,-93.13 410.16,-89.63 410.16,-96.63"/>
</a>
</g>
</g>
<!-- Node5&#45;&gt;Node5 -->
<g id="edge7_Node000005_Node000005" class="edge">
<title>Node5&#45;&gt;Node5</title>
<g id="a_edge7_Node000005_Node000005"><a xlink:title=" ">
<path fill="none" stroke="#63b8ff" d="M257.74,-46.38C255.21,-56.05 267.42,-64.25 294.38,-64.25 310.38,-64.25 321.18,-61.36 326.79,-56.99"/>
<polygon fill="#63b8ff" stroke="#63b8ff" points="330.01,-58.37 330.45,-47.78 323.5,-55.78 330.01,-58.37"/>
</a>
</g>
</g>
</g>
</svg>
