<?xml version="1.0" encoding="UTF-8" standalone="no"?>
<!DOCTYPE svg PUBLIC "-//W3C//DTD SVG 1.1//EN"
 "http://www.w3.org/Graphics/SVG/1.1/DTD/svg11.dtd">
<!-- Generated by graphviz version 14.1.4 (0)
 -->
<!-- Title: APawn::GetController Pages: 1 -->
<svg width="460pt" height="86pt"
 viewBox="0.00 0.00 460.00 86.00" xmlns="http://www.w3.org/2000/svg" xmlns:xlink="http://www.w3.org/1999/xlink">
<g id="graph0" class="graph" transform="scale(1 1) rotate(0) translate(4 81.75)">
<title>APawn::GetController</title>
<!-- Node1 -->
<g id="Node000001" class="node">
<title>Node1</title>
<g id="a_Node000001"><a xlink:title=" ">
<polygon fill="#999999" stroke="#666666" points="120.25,-39.75 0,-39.75 0,-19 120.25,-19 120.25,-39.75"/>
<text xml:space="preserve" text-anchor="middle" x="60.12" y="-26.25" font-family="Helvetica,sans-Serif" font-size="10.00">APawn::GetController</text>
</a>
</g>
</g>
<!-- Node2 -->
<g id="Node000002" class="node">
<title>Node2</title>
<g id="a_Node000002"><a xlink:href="$PawnIterator_8h.html#a60de95b890b12253839b1151d564a100" xlink:title=" ">
<polygon fill="white" stroke="#666666" points="235.25,-59.75 197.5,-59.75 197.5,-39 235.25,-39 235.25,-59.75"/>
<text xml:space="preserve" text-anchor="middle" x="216.38" y="-46.25" font-family="Helvetica,sans-Serif" font-size="10.00">Cast</text>
</a>
</g>
</g>
<!-- Node1&#45;&gt;Node2 -->
<g id="edge1_Node000001_Node000002" class="edge">
<title>Node1&#45;&gt;Node2</title>
<g id="a_edge1_Node000001_Node000002"><a xlink:title=" ">
<path fill="none" stroke="#63b8ff" d="M120.32,-37.05C142.76,-39.96 167.35,-43.15 185.89,-45.55"/>
<polygon fill="#63b8ff" stroke="#63b8ff" points="185.25,-49 195.62,-46.81 186.15,-42.06 185.25,-49"/>
</a>
</g>
</g>
<!-- Node4 -->
<g id="Node000004" class="node">
<title>Node4</title>
<g id="a_Node000004"><a xlink:href="$classAPawn.html#a5ea0ef2603176a7db4935e0347e52d2c" xlink:title=" ">
<polygon fill="white" stroke="#666666" points="276.5,-20.75 156.25,-20.75 156.25,0 276.5,0 276.5,-20.75"/>
<text xml:space="preserve" text-anchor="middle" x="216.38" y="-7.25" font-family="Helvetica,sans-Serif" font-size="10.00">APawn::GetController</text>
</a>
</g>
</g>
<!-- Node1&#45;&gt;Node4 -->
<g id="edge4_Node000001_Node000004" class="edge">
<title>Node1&#45;&gt;Node4</title>
<g id="a_edge4_Node000001_Node000004"><a xlink:title=" ">
<path fill="none" stroke="#63b8ff" d="M120.32,-22.08C128.23,-21.11 136.41,-20.1 144.5,-19.11"/>
<polygon fill="#63b8ff" stroke="#63b8ff" points="144.83,-22.59 154.33,-17.89 143.97,-15.64 144.83,-22.59"/>
</a>
</g>
</g>
<!-- Node2&#45;&gt;Node2 -->
<g id="edge2_Node000002_Node000002" class="edge">
<title>Node2&#45;&gt;Node2</title>
<g id="a_edge2_Node000002_Node000002"><a xlink:title=" ">
<path fill="none" stroke="#63b8ff" d="M197.14,-56.21C178.99,-65.86 185.4,-77.75 216.38,-77.75 240.09,-77.75 249.41,-70.78 244.33,-63.18"/>
<polygon fill="#63b8ff" stroke="#63b8ff" points="246.79,-60.67 236.8,-57.16 242.42,-66.14 246.79,-60.67"/>
</a>
</g>
</g>
<!-- Node3 -->
<g id="Node000003" class="node">
<title>Node3</title>
<g id="a_Node000003"><a xlink:href="$structFPawnIteratorObject.html#a684316caab3954b0e82449d86f7ff960" xlink:title=" ">
<polygon fill="white" stroke="#666666" points="451.5,-59.75 312.5,-59.75 312.5,-39 451.5,-39 451.5,-59.75"/>
<text xml:space="preserve" text-anchor="middle" x="382" y="-46.25" font-family="Helvetica,sans-Serif" font-size="10.00">FPawnIteratorObject::Get</text>
</a>
</g>
</g>
<!-- Node2&#45;&gt;Node3 -->
<g id="edge3_Node000002_Node000003" class="edge">
<title>Node2&#45;&gt;Node3</title>
<g id="a_edge3_Node000002_Node000003"><a xlink:title=" ">
<path fill="none" stroke="#63b8ff" d="M235.51,-49.38C251.6,-49.38 276.29,-49.38 300.79,-49.38"/>
<polygon fill="#63b8ff" stroke="#63b8ff" points="300.49,-52.88 310.49,-49.38 300.49,-45.88 300.49,-52.88"/>
</a>
</g>
</g>
</g>
</svg>
