<?xml version="1.0" encoding="UTF-8" standalone="no"?>
<!DOCTYPE svg PUBLIC "-//W3C//DTD SVG 1.1//EN"
 "http://www.w3.org/Graphics/SVG/1.1/DTD/svg11.dtd">
<!-- Generated by graphviz version 14.1.4 (0)
 -->
<!-- Title: TRingBuffer::AddFrontUninitialized_GetRef Pages: 1 -->
<svg width="1516pt" height="381pt"
 viewBox="0.00 0.00 1516.00 381.00" xmlns="http://www.w3.org/2000/svg" xmlns:xlink="http://www.w3.org/1999/xlink">
<g id="graph0" class="graph" transform="scale(1 1) rotate(0) translate(4 376.77)">
<title>TRingBuffer::AddFrontUninitialized_GetRef</title>
<!-- Node1 -->
<g id="Node000001" class="node">
<title>Node1</title>
<g id="a_Node000001"><a xlink:title=" ">
<polygon fill="#999999" stroke="#666666" points="184.75,-243.77 0,-243.77 0,-210.27 184.75,-210.27 184.75,-243.77"/>
<text xml:space="preserve" text-anchor="start" x="8" y="-230.27" font-family="Helvetica,sans-Serif" font-size="10.00">TRingBuffer::AddFrontUninitialized</text>
<text xml:space="preserve" text-anchor="middle" x="92.38" y="-217.52" font-family="Helvetica,sans-Serif" font-size="10.00">_GetRef</text>
</a>
</g>
</g>
<!-- Node2 -->
<g id="Node000002" class="node">
<title>Node2</title>
<g id="a_Node000002"><a xlink:href="$classTRingBuffer.html#a7b34a885ae96c31e27fda8137157d6fa" xlink:title=" ">
<polygon fill="white" stroke="#666666" points="405.5,-287.39 220.75,-287.39 220.75,-266.64 405.5,-266.64 405.5,-287.39"/>
<text xml:space="preserve" text-anchor="middle" x="313.12" y="-273.89" font-family="Helvetica,sans-Serif" font-size="10.00">TRingBuffer::AddFrontUninitialized</text>
</a>
</g>
</g>
<!-- Node1&#45;&gt;Node2 -->
<g id="edge1_Node000001_Node000002" class="edge">
<title>Node1&#45;&gt;Node2</title>
<g id="a_edge1_Node000001_Node000002"><a xlink:title=" ">
<path fill="none" stroke="#63b8ff" d="M168.66,-244.23C196.56,-250.6 227.74,-257.73 253.9,-263.71"/>
<polygon fill="#63b8ff" stroke="#63b8ff" points="252.77,-267.04 263.3,-265.86 254.33,-260.22 252.77,-267.04"/>
</a>
</g>
</g>
<!-- Node17 -->
<g id="Node000017" class="node">
<title>Node17</title>
<g id="a_Node000017"><a xlink:href="$classTRingBuffer.html#ac69e19bfd838e063c4ea5aab67cdb61d" xlink:title=" ">
<polygon fill="white" stroke="#666666" points="760.75,-113.77 612.75,-113.77 612.75,-80.27 760.75,-80.27 760.75,-113.77"/>
<text xml:space="preserve" text-anchor="start" x="620.75" y="-100.27" font-family="Helvetica,sans-Serif" font-size="10.00">TRingBuffer::GetAtIndexNo</text>
<text xml:space="preserve" text-anchor="middle" x="686.75" y="-87.52" font-family="Helvetica,sans-Serif" font-size="10.00">Check</text>
</a>
</g>
</g>
<!-- Node1&#45;&gt;Node17 -->
<g id="edge23_Node000001_Node000017" class="edge">
<title>Node1&#45;&gt;Node17</title>
<g id="a_edge23_Node000001_Node000017"><a xlink:title=" ">
<path fill="none" stroke="#63b8ff" d="M171.73,-209.82C283.11,-185.38 486.39,-140.77 601.11,-115.59"/>
<polygon fill="#63b8ff" stroke="#63b8ff" points="601.78,-119.03 610.79,-113.47 600.28,-112.19 601.78,-119.03"/>
</a>
</g>
</g>
<!-- Node3 -->
<g id="Node000003" class="node">
<title>Node3</title>
<g id="a_Node000003"><a xlink:href="$classTRingBuffer.html#aab531adcc3b46e2524b492a937e9a4ce" xlink:title=" ">
<polygon fill="white" stroke="#666666" points="576.75,-293.77 441.5,-293.77 441.5,-260.27 576.75,-260.27 576.75,-293.77"/>
<text xml:space="preserve" text-anchor="start" x="449.5" y="-280.27" font-family="Helvetica,sans-Serif" font-size="10.00">TRingBuffer::Conditional</text>
<text xml:space="preserve" text-anchor="middle" x="509.12" y="-267.52" font-family="Helvetica,sans-Serif" font-size="10.00">IncrementCapacity</text>
</a>
</g>
</g>
<!-- Node2&#45;&gt;Node3 -->
<g id="edge2_Node000002_Node000003" class="edge">
<title>Node2&#45;&gt;Node3</title>
<g id="a_edge2_Node000002_Node000003"><a xlink:title=" ">
<path fill="none" stroke="#63b8ff" d="M405.73,-277.02C413.77,-277.02 421.86,-277.02 429.78,-277.02"/>
<polygon fill="#63b8ff" stroke="#63b8ff" points="429.72,-280.52 439.72,-277.02 429.72,-273.52 429.72,-280.52"/>
</a>
</g>
</g>
<!-- Node16 -->
<g id="Node000016" class="node">
<title>Node16</title>
<g id="a_Node000016"><a xlink:href="$classTRingBuffer.html#a15b4c13937861b41854ce00000ffc290" xlink:title=" ">
<polygon fill="white" stroke="#666666" points="938,-372.77 796.75,-372.77 796.75,-339.27 938,-339.27 938,-372.77"/>
<text xml:space="preserve" text-anchor="start" x="804.75" y="-359.27" font-family="Helvetica,sans-Serif" font-size="10.00">TRingBuffer::SlackTracker</text>
<text xml:space="preserve" text-anchor="middle" x="867.38" y="-346.52" font-family="Helvetica,sans-Serif" font-size="10.00">NumChanged</text>
</a>
</g>
</g>
<!-- Node2&#45;&gt;Node16 -->
<g id="edge21_Node000002_Node000016" class="edge">
<title>Node2&#45;&gt;Node16</title>
<g id="a_edge21_Node000002_Node000016"><a xlink:title=" ">
<path fill="none" stroke="#63b8ff" d="M362.65,-287.84C386.35,-292.89 415.33,-298.72 441.5,-303.02 560.67,-322.58 699.69,-338.66 785.38,-347.8"/>
<polygon fill="#63b8ff" stroke="#63b8ff" points="784.77,-351.25 795.09,-348.83 785.51,-344.29 784.77,-351.25"/>
</a>
</g>
</g>
<!-- Node4 -->
<g id="Node000004" class="node">
<title>Node4</title>
<g id="a_Node000004"><a xlink:href="$classTRingBuffer.html#a5c37b30f4de47dfe15a368ba4c353568" xlink:title=" ">
<polygon fill="white" stroke="#666666" points="1111.88,-321.39 1008.88,-321.39 1008.88,-300.64 1111.88,-300.64 1111.88,-321.39"/>
<text xml:space="preserve" text-anchor="middle" x="1060.38" y="-307.89" font-family="Helvetica,sans-Serif" font-size="10.00">TRingBuffer::Num</text>
</a>
</g>
</g>
<!-- Node3&#45;&gt;Node4 -->
<g id="edge3_Node000003_Node000004" class="edge">
<title>Node3&#45;&gt;Node4</title>
<g id="a_edge3_Node000003_Node000004"><a xlink:title=" ">
<path fill="none" stroke="#63b8ff" d="M577.2,-281.17C684.5,-287.81 893.23,-300.73 997.29,-307.17"/>
<polygon fill="#63b8ff" stroke="#63b8ff" points="996.83,-310.65 1007.03,-307.78 997.26,-303.67 996.83,-310.65"/>
</a>
</g>
</g>
<!-- Node5 -->
<g id="Node000005" class="node">
<title>Node5</title>
<g id="a_Node000005"><a xlink:href="$classTRingBuffer.html#ad5afdf357d92063d22eeae51e6a0b66d" xlink:title=" ">
<polygon fill="white" stroke="#666666" points="746.5,-206.39 627,-206.39 627,-185.64 746.5,-185.64 746.5,-206.39"/>
<text xml:space="preserve" text-anchor="middle" x="686.75" y="-192.89" font-family="Helvetica,sans-Serif" font-size="10.00">TRingBuffer::Reserve</text>
</a>
</g>
</g>
<!-- Node3&#45;&gt;Node5 -->
<g id="edge4_Node000003_Node000005" class="edge">
<title>Node3&#45;&gt;Node5</title>
<g id="a_edge4_Node000003_Node000005"><a xlink:title=" ">
<path fill="none" stroke="#63b8ff" d="M547.37,-259.84C578.31,-245.57 621.95,-225.44 651.91,-211.63"/>
<polygon fill="#63b8ff" stroke="#63b8ff" points="653.29,-214.85 660.9,-207.48 650.35,-208.49 653.29,-214.85"/>
</a>
</g>
</g>
<!-- Node6 -->
<g id="Node000006" class="node">
<title>Node6</title>
<g id="a_Node000006"><a xlink:href="$classTRingBuffer.html#a841b0cf4b4a9b0ba7a1340fa47e50bb1" xlink:title=" ">
<polygon fill="white" stroke="#666666" points="1309,-245.39 1208.25,-245.39 1208.25,-224.64 1309,-224.64 1309,-245.39"/>
<text xml:space="preserve" text-anchor="middle" x="1258.62" y="-231.89" font-family="Helvetica,sans-Serif" font-size="10.00">TRingBuffer::Max</text>
</a>
</g>
</g>
<!-- Node5&#45;&gt;Node6 -->
<g id="edge5_Node000005_Node000006" class="edge">
<title>Node5&#45;&gt;Node6</title>
<g id="a_edge5_Node000005_Node000006"><a xlink:title=" ">
<path fill="none" stroke="#63b8ff" d="M741.81,-206.85C799.15,-217.74 892.53,-233.79 974,-240.02 1050.55,-245.87 1069.99,-241.75 1146.75,-240.02 1163.03,-239.65 1180.64,-238.98 1196.93,-238.25"/>
<polygon fill="#63b8ff" stroke="#63b8ff" points="1196.63,-241.77 1206.46,-237.81 1196.3,-234.78 1196.63,-241.77"/>
</a>
</g>
</g>
<!-- Node7 -->
<g id="Node000007" class="node">
<title>Node7</title>
<g id="a_Node000007"><a xlink:href="$classTRingBuffer.html#a58f96dab51dcdf981703af3cfc9da2fc" xlink:title=" ">
<polygon fill="white" stroke="#666666" points="1146.75,-40.39 974,-40.39 974,-19.64 1146.75,-19.64 1146.75,-40.39"/>
<text xml:space="preserve" text-anchor="middle" x="1060.38" y="-26.89" font-family="Helvetica,sans-Serif" font-size="10.00">TRingBuffer::NormalizeCapacity</text>
</a>
</g>
</g>
<!-- Node5&#45;&gt;Node7 -->
<g id="edge6_Node000005_Node000007" class="edge">
<title>Node5&#45;&gt;Node7</title>
<g id="a_edge6_Node000005_Node000007"><a xlink:title=" ">
<path fill="none" stroke="#63b8ff" d="M707.43,-185.22C753.21,-160.37 870.84,-98.12 974,-57.02 985.61,-52.39 998.35,-48.01 1010.36,-44.17"/>
<polygon fill="#63b8ff" stroke="#63b8ff" points="1011.18,-47.58 1019.69,-41.26 1009.1,-40.9 1011.18,-47.58"/>
</a>
</g>
</g>
<!-- Node8 -->
<g id="Node000008" class="node">
<title>Node8</title>
<g id="a_Node000008"><a xlink:href="$classTRingBuffer.html#a40faf3a6ccf66edf23df3483f309d523" xlink:title=" ">
<polygon fill="white" stroke="#666666" points="933.12,-177.39 801.62,-177.39 801.62,-156.64 933.12,-156.64 933.12,-177.39"/>
<text xml:space="preserve" text-anchor="middle" x="867.38" y="-163.89" font-family="Helvetica,sans-Serif" font-size="10.00">TRingBuffer::Reallocate</text>
</a>
</g>
</g>
<!-- Node5&#45;&gt;Node8 -->
<g id="edge7_Node000005_Node000008" class="edge">
<title>Node5&#45;&gt;Node8</title>
<g id="a_edge7_Node000005_Node000008"><a xlink:title=" ">
<path fill="none" stroke="#63b8ff" d="M746.73,-186.44C760.66,-184.18 775.71,-181.74 790.27,-179.37"/>
<polygon fill="#63b8ff" stroke="#63b8ff" points="790.49,-182.88 799.8,-177.83 789.37,-175.98 790.49,-182.88"/>
</a>
</g>
</g>
<!-- Node8&#45;&gt;Node4 -->
<g id="edge20_Node000008_Node000004" class="edge">
<title>Node8&#45;&gt;Node4</title>
<g id="a_edge20_Node000008_Node000004"><a xlink:title=" ">
<path fill="none" stroke="#63b8ff" d="M881.94,-177.77C901.94,-193.58 940.59,-223.93 974,-249.02 994.33,-264.28 1017.7,-281.22 1034.85,-293.52"/>
<polygon fill="#63b8ff" stroke="#63b8ff" points="1032.76,-296.33 1042.92,-299.31 1036.83,-290.64 1032.76,-296.33"/>
</a>
</g>
</g>
<!-- Node8&#45;&gt;Node6 -->
<g id="edge17_Node000008_Node000006" class="edge">
<title>Node8&#45;&gt;Node6</title>
<g id="a_edge17_Node000008_Node000006"><a xlink:title=" ">
<path fill="none" stroke="#63b8ff" d="M886.31,-177.84C906.73,-189.56 941.49,-207.7 974,-216.02 1048.96,-235.21 1138.5,-238.02 1196.63,-237.32"/>
<polygon fill="#63b8ff" stroke="#63b8ff" points="1196.37,-240.82 1206.31,-237.16 1196.26,-233.82 1196.37,-240.82"/>
</a>
</g>
</g>
<!-- Node8&#45;&gt;Node7 -->
<g id="edge19_Node000008_Node000007" class="edge">
<title>Node8&#45;&gt;Node7</title>
<g id="a_edge19_Node000008_Node000007"><a xlink:title=" ">
<path fill="none" stroke="#63b8ff" d="M882.31,-156.21C897.01,-144.45 920.43,-124.7 938,-105.02 956.48,-84.32 951.34,-70.03 974,-54.02 978.95,-50.52 984.4,-47.53 990.07,-44.98"/>
<polygon fill="#63b8ff" stroke="#63b8ff" points="991.08,-48.34 999.07,-41.39 988.48,-41.84 991.08,-48.34"/>
</a>
</g>
</g>
<!-- Node9 -->
<g id="Node000009" class="node">
<title>Node9</title>
<g id="a_Node000009"><a xlink:href="$classTRingBuffer.html#a207f4683db0ff774ffe850e793bac7b7" xlink:title=" ">
<polygon fill="white" stroke="#666666" points="1138.12,-206.77 982.62,-206.77 982.62,-173.27 1138.12,-173.27 1138.12,-206.77"/>
<text xml:space="preserve" text-anchor="start" x="990.62" y="-193.27" font-family="Helvetica,sans-Serif" font-size="10.00">TRingBuffer::AllocatorResize</text>
<text xml:space="preserve" text-anchor="middle" x="1060.38" y="-180.52" font-family="Helvetica,sans-Serif" font-size="10.00">Allocation</text>
</a>
</g>
</g>
<!-- Node8&#45;&gt;Node9 -->
<g id="edge8_Node000008_Node000009" class="edge">
<title>Node8&#45;&gt;Node9</title>
<g id="a_edge8_Node000008_Node000009"><a xlink:title=" ">
<path fill="none" stroke="#63b8ff" d="M933.57,-174.87C945.69,-176.33 958.54,-177.88 971.21,-179.4"/>
<polygon fill="#63b8ff" stroke="#63b8ff" points="970.43,-182.83 980.78,-180.55 971.27,-175.88 970.43,-182.83"/>
</a>
</g>
</g>
<!-- Node10 -->
<g id="Node000010" class="node">
<title>Node10</title>
<g id="a_Node000010"><a xlink:href="$classTRingBuffer.html#a7859abfc28865cfa7f653b915bb17885" xlink:title=" ">
<polygon fill="white" stroke="#666666" points="1136.25,-155.39 984.5,-155.39 984.5,-134.64 1136.25,-134.64 1136.25,-155.39"/>
<text xml:space="preserve" text-anchor="middle" x="1060.38" y="-141.89" font-family="Helvetica,sans-Serif" font-size="10.00">TRingBuffer::DestructRange</text>
</a>
</g>
</g>
<!-- Node8&#45;&gt;Node10 -->
<g id="edge9_Node000008_Node000010" class="edge">
<title>Node8&#45;&gt;Node10</title>
<g id="a_edge9_Node000008_Node000010"><a xlink:title=" ">
<path fill="none" stroke="#63b8ff" d="M933.57,-159.51C946.32,-158.04 959.87,-156.48 973.18,-154.95"/>
<polygon fill="#63b8ff" stroke="#63b8ff" points="973.24,-158.46 982.78,-153.84 972.44,-151.51 973.24,-158.46"/>
</a>
</g>
</g>
<!-- Node12 -->
<g id="Node000012" class="node">
<title>Node12</title>
<g id="a_Node000012"><a xlink:href="$classTRingBuffer.html#ad7c20110073fd9f022ec9d9b668dd565" xlink:title=" ">
<polygon fill="white" stroke="#666666" points="1325.88,-78.39 1191.38,-78.39 1191.38,-57.64 1325.88,-57.64 1325.88,-78.39"/>
<text xml:space="preserve" text-anchor="middle" x="1258.62" y="-64.89" font-family="Helvetica,sans-Serif" font-size="10.00">TRingBuffer::GetStorage</text>
</a>
</g>
</g>
<!-- Node8&#45;&gt;Node12 -->
<g id="edge16_Node000008_Node000012" class="edge">
<title>Node8&#45;&gt;Node12</title>
<g id="a_edge16_Node000008_Node000012"><a xlink:title=" ">
<path fill="none" stroke="#63b8ff" d="M878.2,-156.29C895.51,-138.2 933.49,-102.15 974,-87.02 1040.2,-62.28 1121.09,-59.28 1179.52,-61.43"/>
<polygon fill="#63b8ff" stroke="#63b8ff" points="1179.24,-64.92 1189.38,-61.86 1179.54,-57.93 1179.24,-64.92"/>
</a>
</g>
</g>
<!-- Node15 -->
<g id="Node000015" class="node">
<title>Node15</title>
<g id="a_Node000015"><a xlink:href="$UnrealTemplate_8h.html#a6affb55ac4c80f005e72b931da3d3a55" xlink:title=" ">
<polygon fill="white" stroke="#666666" points="1095,-116.39 1025.75,-116.39 1025.75,-95.64 1095,-95.64 1095,-116.39"/>
<text xml:space="preserve" text-anchor="middle" x="1060.38" y="-102.89" font-family="Helvetica,sans-Serif" font-size="10.00">MoveTemp</text>
</a>
</g>
</g>
<!-- Node8&#45;&gt;Node15 -->
<g id="edge18_Node000008_Node000015" class="edge">
<title>Node8&#45;&gt;Node15</title>
<g id="a_edge18_Node000008_Node000015"><a xlink:title=" ">
<path fill="none" stroke="#63b8ff" d="M893.21,-156.24C914.39,-147.32 945.81,-134.74 974,-126.02 986.93,-122.01 1001.19,-118.38 1014.28,-115.34"/>
<polygon fill="#63b8ff" stroke="#63b8ff" points="1014.96,-118.77 1023.95,-113.16 1013.43,-111.94 1014.96,-118.77"/>
</a>
</g>
</g>
<!-- Node10&#45;&gt;Node6 -->
<g id="edge14_Node000010_Node000006" class="edge">
<title>Node10&#45;&gt;Node6</title>
<g id="a_edge14_Node000010_Node000006"><a xlink:title=" ">
<path fill="none" stroke="#63b8ff" d="M1128.09,-155.75C1134.6,-158 1140.94,-160.72 1146.75,-164.02 1166.99,-175.49 1163.73,-188.62 1182.75,-202.02 1192.69,-209.02 1204.36,-215.04 1215.49,-219.93"/>
<polygon fill="#63b8ff" stroke="#63b8ff" points="1213.95,-223.08 1224.52,-223.7 1216.64,-216.62 1213.95,-223.08"/>
</a>
</g>
</g>
<!-- Node11 -->
<g id="Node000011" class="node">
<title>Node11</title>
<g id="a_Node000011"><a xlink:href="$MemoryOps_8h.html#a64fb83a2ca369ceca2ff056d415ec2ed" xlink:title=" ">
<polygon fill="white" stroke="#666666" points="1301.12,-193.39 1216.12,-193.39 1216.12,-172.64 1301.12,-172.64 1301.12,-193.39"/>
<text xml:space="preserve" text-anchor="middle" x="1258.62" y="-179.89" font-family="Helvetica,sans-Serif" font-size="10.00">DestructItems</text>
</a>
</g>
</g>
<!-- Node10&#45;&gt;Node11 -->
<g id="edge10_Node000010_Node000011" class="edge">
<title>Node10&#45;&gt;Node11</title>
<g id="a_edge10_Node000010_Node000011"><a xlink:title=" ">
<path fill="none" stroke="#63b8ff" d="M1117.35,-155.86C1144.81,-161.17 1177.71,-167.54 1204.74,-172.78"/>
<polygon fill="#63b8ff" stroke="#63b8ff" points="1203.96,-176.19 1214.45,-174.66 1205.29,-169.32 1203.96,-176.19"/>
</a>
</g>
</g>
<!-- Node10&#45;&gt;Node12 -->
<g id="edge11_Node000010_Node000012" class="edge">
<title>Node10&#45;&gt;Node12</title>
<g id="a_edge11_Node000010_Node000012"><a xlink:title=" ">
<path fill="none" stroke="#63b8ff" d="M1116.61,-134.17C1126.77,-131.59 1137.18,-128.54 1146.75,-125.02 1176.43,-114.1 1208.34,-97.08 1230.27,-84.48"/>
<polygon fill="#63b8ff" stroke="#63b8ff" points="1232.01,-87.52 1238.88,-79.46 1228.48,-81.48 1232.01,-87.52"/>
</a>
</g>
</g>
<!-- Node14 -->
<g id="Node000014" class="node">
<title>Node14</title>
<g id="a_Node000014"><a xlink:href="$classTRingBuffer.html#a4ddd780cb625faa57f3eafa584b58e6e" xlink:title=" ">
<polygon fill="white" stroke="#666666" points="1334.5,-154.77 1182.75,-154.77 1182.75,-121.27 1334.5,-121.27 1334.5,-154.77"/>
<text xml:space="preserve" text-anchor="start" x="1190.75" y="-141.27" font-family="Helvetica,sans-Serif" font-size="10.00">TRingBuffer::NeedsDestruct</text>
<text xml:space="preserve" text-anchor="middle" x="1258.62" y="-128.52" font-family="Helvetica,sans-Serif" font-size="10.00">Elements</text>
</a>
</g>
</g>
<!-- Node10&#45;&gt;Node14 -->
<g id="edge15_Node000010_Node000014" class="edge">
<title>Node10&#45;&gt;Node14</title>
<g id="a_edge15_Node000010_Node000014"><a xlink:title=" ">
<path fill="none" stroke="#63b8ff" d="M1136.69,-142.33C1147.96,-141.93 1159.65,-141.51 1171.13,-141.1"/>
<polygon fill="#63b8ff" stroke="#63b8ff" points="1171.13,-144.61 1181,-140.75 1170.88,-137.61 1171.13,-144.61"/>
</a>
</g>
</g>
<!-- Node12&#45;&gt;Node12 -->
<g id="edge12_Node000012_Node000012" class="edge">
<title>Node12&#45;&gt;Node12</title>
<g id="a_edge12_Node000012_Node000012"><a xlink:title=" ">
<path fill="none" stroke="#63b8ff" d="M1229.52,-78.79C1217.88,-87.45 1227.58,-96.39 1258.62,-96.39 1275.6,-96.39 1286.2,-93.72 1290.41,-89.88"/>
<polygon fill="#63b8ff" stroke="#63b8ff" points="1293.84,-89.16 1288.09,-80.26 1287.03,-90.8 1293.84,-89.16"/>
</a>
</g>
</g>
<!-- Node13 -->
<g id="Node000013" class="node">
<title>Node13</title>
<g id="a_Node000013"><a xlink:href="$classTRingBuffer.html#a8c285901c0c99ff13fe22f8035b51cb0" xlink:title=" ">
<polygon fill="white" stroke="#666666" points="1508,-78.39 1370.5,-78.39 1370.5,-57.64 1508,-57.64 1508,-78.39"/>
<text xml:space="preserve" text-anchor="middle" x="1439.25" y="-64.89" font-family="Helvetica,sans-Serif" font-size="10.00">TRingBuffer::TRingBuffer</text>
</a>
</g>
</g>
<!-- Node12&#45;&gt;Node13 -->
<g id="edge13_Node000012_Node000013" class="edge">
<title>Node12&#45;&gt;Node13</title>
<g id="a_edge13_Node000012_Node000013"><a xlink:title=" ">
<path fill="none" stroke="#63b8ff" d="M1326.14,-68.02C1336.81,-68.02 1347.95,-68.02 1358.89,-68.02"/>
<polygon fill="#63b8ff" stroke="#63b8ff" points="1358.68,-71.52 1368.68,-68.02 1358.68,-64.52 1358.68,-71.52"/>
</a>
</g>
</g>
<!-- Node16&#45;&gt;Node4 -->
<g id="edge22_Node000016_Node000004" class="edge">
<title>Node16&#45;&gt;Node4</title>
<g id="a_edge22_Node000016_Node000004"><a xlink:title=" ">
<path fill="none" stroke="#63b8ff" d="M938.41,-339.52C959.42,-334.57 982.21,-329.2 1002.28,-324.47"/>
<polygon fill="#63b8ff" stroke="#63b8ff" points="1003.03,-327.89 1011.96,-322.19 1001.43,-321.07 1003.03,-327.89"/>
</a>
</g>
</g>
<!-- Node17&#45;&gt;Node12 -->
<g id="edge24_Node000017_Node000012" class="edge">
<title>Node17&#45;&gt;Node12</title>
<g id="a_edge24_Node000017_Node000012"><a xlink:title=" ">
<path fill="none" stroke="#63b8ff" d="M724.02,-79.83C801.95,-45.17 990.92,26.69 1146.75,-11.02 1178.53,-18.71 1211.41,-37.17 1233.03,-51.02"/>
<polygon fill="#63b8ff" stroke="#63b8ff" points="1230.86,-53.78 1241.14,-56.35 1234.71,-47.93 1230.86,-53.78"/>
</a>
</g>
</g>
</g>
</svg>
