<?xml version="1.0" encoding="UTF-8" standalone="no"?>
<!DOCTYPE svg PUBLIC "-//W3C//DTD SVG 1.1//EN"
 "http://www.w3.org/Graphics/SVG/1.1/DTD/svg11.dtd">
<!-- Generated by graphviz version 14.1.4 (0)
 -->
<!-- Title: Audio::Quartz::PrivateDefs::TQuartzCommandQueue&lt; Ts &gt; Pages: 1 -->
<svg width="174pt" height="228pt"
 viewBox="0.00 0.00 174.00 228.00" xmlns="http://www.w3.org/2000/svg" xmlns:xlink="http://www.w3.org/1999/xlink">
<g id="graph0" class="graph" transform="scale(1 1) rotate(0) translate(4 224.25)">
<title>Audio::Quartz::PrivateDefs::TQuartzCommandQueue&lt; Ts &gt;</title>
<!-- Node1 -->
<g id="Node000001" class="node">
<title>Node1</title>
<g id="a_Node000001"><a xlink:title=" ">
<polygon fill="#999999" stroke="none" points="166.25,-117.25 0,-117.25 0,0 166.25,0 166.25,-117.25"/>
<text xml:space="preserve" text-anchor="start" x="4" y="-103.5" font-family="Helvetica,sans-Serif" font-size="10.00">Audio::Quartz::PrivateDefs</text>
<text xml:space="preserve" text-anchor="start" x="4" y="-90.75" font-family="Helvetica,sans-Serif" font-size="10.00">::TQuartzCommandQueue&lt; Ts &gt;</text>
<text xml:space="preserve" text-anchor="start" x="8.81" y="-74" font-family="Helvetica,sans-Serif" font-size="10.00">&#45;</text>
<text xml:space="preserve" text-anchor="start" x="21.38" y="-74" font-family="Helvetica,sans-Serif" font-size="10.00">Queue</text>
<text xml:space="preserve" text-anchor="start" x="6.56" y="-57.25" font-family="Helvetica,sans-Serif" font-size="10.00">+</text>
<text xml:space="preserve" text-anchor="start" x="21.38" y="-57.25" font-family="Helvetica,sans-Serif" font-size="10.00">TQuartzCommandQueue()</text>
<text xml:space="preserve" text-anchor="start" x="6.56" y="-40.5" font-family="Helvetica,sans-Serif" font-size="10.00">+</text>
<text xml:space="preserve" text-anchor="start" x="21.38" y="-40.5" font-family="Helvetica,sans-Serif" font-size="10.00">~TQuartzCommandQueue()</text>
<text xml:space="preserve" text-anchor="start" x="6.56" y="-23.75" font-family="Helvetica,sans-Serif" font-size="10.00">+</text>
<text xml:space="preserve" text-anchor="start" x="21.38" y="-23.75" font-family="Helvetica,sans-Serif" font-size="10.00">PushLambda()</text>
<text xml:space="preserve" text-anchor="start" x="6.56" y="-7" font-family="Helvetica,sans-Serif" font-size="10.00">+</text>
<text xml:space="preserve" text-anchor="start" x="21.38" y="-7" font-family="Helvetica,sans-Serif" font-size="10.00">PumpCommandQueue()</text>
<polygon fill="#666666" stroke="#666666" points="0,-85.75 0,-85.75 166.25,-85.75 166.25,-85.75 0,-85.75"/>
<polygon fill="#666666" stroke="#666666" points="0,-69 0,-69 19.38,-69 19.38,-69 0,-69"/>
<polygon fill="#666666" stroke="#666666" points="19.38,-69 19.38,-69 166.25,-69 166.25,-69 19.38,-69"/>
<polygon fill="none" stroke="#666666" points="0,0 0,-117.25 166.25,-117.25 166.25,0 0,0"/>
</a>
</g>
</g>
<!-- Node2 -->
<g id="Node000002" class="node">
<title>Node2</title>
<g id="a_Node000002"><a xlink:href="classAudio_1_1Quartz_1_1PrivateDefs_1_1TVisitorPatternBase.html" target="_top" xlink:title=" ">
<polygon fill="white" stroke="none" points="159.12,-220.25 7.12,-220.25 7.12,-153.25 159.12,-153.25 159.12,-220.25"/>
<text xml:space="preserve" text-anchor="start" x="11.12" y="-206.5" font-family="Helvetica,sans-Serif" font-size="10.00">Audio::Quartz::PrivateDefs</text>
<text xml:space="preserve" text-anchor="start" x="11.12" y="-193.75" font-family="Helvetica,sans-Serif" font-size="10.00">::TVisitorPatternBase&lt; Ts... &gt;</text>
<text xml:space="preserve" text-anchor="start" x="80.12" y="-177" font-family="Helvetica,sans-Serif" font-size="10.00"> </text>
<text xml:space="preserve" text-anchor="start" x="80.12" y="-160.25" font-family="Helvetica,sans-Serif" font-size="10.00"> </text>
<polygon fill="#666666" stroke="#666666" points="7.12,-188.75 7.12,-188.75 159.12,-188.75 159.12,-188.75 7.12,-188.75"/>
<polygon fill="#666666" stroke="#666666" points="7.12,-172 7.12,-172 159.12,-172 159.12,-172 7.12,-172"/>
<polygon fill="none" stroke="#666666" points="7.12,-153.25 7.12,-220.25 159.12,-220.25 159.12,-153.25 7.12,-153.25"/>
</a>
</g>
</g>
<!-- Node2&#45;&gt;Node1 -->
<g id="edge1_Node000001_Node000002" class="edge">
<title>Node2&#45;&gt;Node1</title>
<g id="a_edge1_Node000001_Node000002"><a xlink:title=" ">
<path fill="none" stroke="#63b8ff" d="M83.12,-141.88C83.12,-133.83 83.12,-125.33 83.12,-116.96"/>
<polygon fill="none" stroke="#63b8ff" points="79.63,-141.76 83.13,-151.76 86.63,-141.76 79.63,-141.76"/>
</a>
</g>
</g>
</g>
</svg>
