<?xml version="1.0" encoding="UTF-8" standalone="no"?>
<!DOCTYPE svg PUBLIC "-//W3C//DTD SVG 1.1//EN"
 "http://www.w3.org/Graphics/SVG/1.1/DTD/svg11.dtd">
<!-- Generated by graphviz version 14.1.4 (0)
 -->
<!-- Title: FUnixPlatformMemory::FPlatformVirtualMemoryBlock::GetActualSize Pages: 1 -->
<svg width="589pt" height="154pt"
 viewBox="0.00 0.00 589.00 154.00" xmlns="http://www.w3.org/2000/svg" xmlns:xlink="http://www.w3.org/1999/xlink">
<g id="graph0" class="graph" transform="scale(1 1) rotate(0) translate(4 150.25)">
<title>FUnixPlatformMemory::FPlatformVirtualMemoryBlock::GetActualSize</title>
<!-- Node1 -->
<g id="Node000001" class="node">
<title>Node1</title>
<g id="a_Node000001"><a xlink:title=" ">
<polygon fill="#999999" stroke="#666666" points="581.25,-87.25 411.5,-87.25 411.5,-41 581.25,-41 581.25,-87.25"/>
<text xml:space="preserve" text-anchor="start" x="419.5" y="-73.75" font-family="Helvetica,sans-Serif" font-size="10.00">FUnixPlatformMemory</text>
<text xml:space="preserve" text-anchor="start" x="419.5" y="-61" font-family="Helvetica,sans-Serif" font-size="10.00">::FPlatformVirtualMemoryBlock</text>
<text xml:space="preserve" text-anchor="middle" x="496.38" y="-48.25" font-family="Helvetica,sans-Serif" font-size="10.00">::GetActualSize</text>
</a>
</g>
</g>
<!-- Node2 -->
<g id="Node000002" class="node">
<title>Node2</title>
<g id="a_Node000002"><a xlink:href="$classFUnixPlatformMemory_1_1FPlatformVirtualMemoryBlock.html#aaa9068628aae5ee9f47a8359b21e5081" xlink:title=" ">
<polygon fill="white" stroke="#666666" points="375.5,-128.25 205.75,-128.25 205.75,-82 375.5,-82 375.5,-128.25"/>
<text xml:space="preserve" text-anchor="start" x="213.75" y="-114.75" font-family="Helvetica,sans-Serif" font-size="10.00">FUnixPlatformMemory</text>
<text xml:space="preserve" text-anchor="start" x="213.75" y="-102" font-family="Helvetica,sans-Serif" font-size="10.00">::FPlatformVirtualMemoryBlock</text>
<text xml:space="preserve" text-anchor="middle" x="290.62" y="-89.25" font-family="Helvetica,sans-Serif" font-size="10.00">::Commit</text>
</a>
</g>
</g>
<!-- Node1&#45;&gt;Node2 -->
<g id="edge1_Node000001_Node000002" class="edge">
<title>Node1&#45;&gt;Node2</title>
<g id="a_edge1_Node000001_Node000002"><a xlink:title=" ">
<path fill="none" stroke="#63b8ff" d="M399.8,-83.36C391.82,-84.96 383.79,-86.58 375.91,-88.17"/>
<polygon fill="#63b8ff" stroke="#63b8ff" points="400.43,-86.8 409.55,-81.4 399.05,-79.94 400.43,-86.8"/>
</a>
</g>
</g>
<!-- Node4 -->
<g id="Node000004" class="node">
<title>Node4</title>
<g id="a_Node000004"><a xlink:href="$classFUnixPlatformMemory_1_1FPlatformVirtualMemoryBlock.html#a6b41dae645ed5bcd2802c4fb98ef7e2f" xlink:title=" ">
<polygon fill="white" stroke="#666666" points="375.5,-46.25 205.75,-46.25 205.75,0 375.5,0 375.5,-46.25"/>
<text xml:space="preserve" text-anchor="start" x="213.75" y="-32.75" font-family="Helvetica,sans-Serif" font-size="10.00">FUnixPlatformMemory</text>
<text xml:space="preserve" text-anchor="start" x="213.75" y="-20" font-family="Helvetica,sans-Serif" font-size="10.00">::FPlatformVirtualMemoryBlock</text>
<text xml:space="preserve" text-anchor="middle" x="290.62" y="-7.25" font-family="Helvetica,sans-Serif" font-size="10.00">::Decommit</text>
</a>
</g>
</g>
<!-- Node1&#45;&gt;Node4 -->
<g id="edge4_Node000001_Node000004" class="edge">
<title>Node1&#45;&gt;Node4</title>
<g id="a_edge4_Node000001_Node000004"><a xlink:title=" ">
<path fill="none" stroke="#63b8ff" d="M399.8,-44.89C391.82,-43.29 383.79,-41.67 375.91,-40.08"/>
<polygon fill="#63b8ff" stroke="#63b8ff" points="399.05,-48.31 409.55,-46.85 400.43,-41.45 399.05,-48.31"/>
</a>
</g>
</g>
<!-- Node2&#45;&gt;Node2 -->
<g id="edge2_Node000002_Node000002" class="edge">
<title>Node2&#45;&gt;Node2</title>
<g id="a_edge2_Node000002_Node000002"><a xlink:title=" ">
<path fill="none" stroke="#63b8ff" d="M324.46,-138.99C318.61,-143.36 307.33,-146.25 290.62,-146.25 262.5,-146.25 249.75,-138.05 252.39,-128.38"/>
<polygon fill="#63b8ff" stroke="#63b8ff" points="327.68,-140.35 328.28,-129.78 321.22,-137.67 327.68,-140.35"/>
</a>
</g>
</g>
<!-- Node3 -->
<g id="Node000003" class="node">
<title>Node3</title>
<g id="a_Node000003"><a xlink:href="$classFUnixPlatformMemory_1_1FPlatformVirtualMemoryBlock.html#aa918eeb24fb81abfc87b62ec5bae1bd2" xlink:title=" ">
<polygon fill="white" stroke="#666666" points="169.75,-128.25 0,-128.25 0,-82 169.75,-82 169.75,-128.25"/>
<text xml:space="preserve" text-anchor="start" x="8" y="-114.75" font-family="Helvetica,sans-Serif" font-size="10.00">FUnixPlatformMemory</text>
<text xml:space="preserve" text-anchor="start" x="8" y="-102" font-family="Helvetica,sans-Serif" font-size="10.00">::FPlatformVirtualMemoryBlock</text>
<text xml:space="preserve" text-anchor="middle" x="84.88" y="-89.25" font-family="Helvetica,sans-Serif" font-size="10.00">::CommitByPtr</text>
</a>
</g>
</g>
<!-- Node2&#45;&gt;Node3 -->
<g id="edge3_Node000002_Node000003" class="edge">
<title>Node2&#45;&gt;Node3</title>
<g id="a_edge3_Node000002_Node000003"><a xlink:title=" ">
<path fill="none" stroke="#63b8ff" d="M193.78,-105.12C185.89,-105.12 177.95,-105.12 170.16,-105.12"/>
<polygon fill="#63b8ff" stroke="#63b8ff" points="193.77,-108.63 203.77,-105.13 193.77,-101.63 193.77,-108.63"/>
</a>
</g>
</g>
<!-- Node4&#45;&gt;Node4 -->
<g id="edge5_Node000004_Node000004" class="edge">
<title>Node4&#45;&gt;Node4</title>
<g id="a_edge5_Node000004_Node000004"><a xlink:title=" ">
<path fill="none" stroke="#63b8ff" d="M324.46,-56.99C318.61,-61.36 307.33,-64.25 290.62,-64.25 262.5,-64.25 249.75,-56.05 252.39,-46.38"/>
<polygon fill="#63b8ff" stroke="#63b8ff" points="327.68,-58.35 328.28,-47.78 321.22,-55.67 327.68,-58.35"/>
</a>
</g>
</g>
<!-- Node5 -->
<g id="Node000005" class="node">
<title>Node5</title>
<g id="a_Node000005"><a xlink:href="$classFUnixPlatformMemory_1_1FPlatformVirtualMemoryBlock.html#a66105868d9984342155982db45af73a7" xlink:title=" ">
<polygon fill="white" stroke="#666666" points="169.75,-46.25 0,-46.25 0,0 169.75,0 169.75,-46.25"/>
<text xml:space="preserve" text-anchor="start" x="8" y="-32.75" font-family="Helvetica,sans-Serif" font-size="10.00">FUnixPlatformMemory</text>
<text xml:space="preserve" text-anchor="start" x="8" y="-20" font-family="Helvetica,sans-Serif" font-size="10.00">::FPlatformVirtualMemoryBlock</text>
<text xml:space="preserve" text-anchor="middle" x="84.88" y="-7.25" font-family="Helvetica,sans-Serif" font-size="10.00">::DecommitByPtr</text>
</a>
</g>
</g>
<!-- Node4&#45;&gt;Node5 -->
<g id="edge6_Node000004_Node000005" class="edge">
<title>Node4&#45;&gt;Node5</title>
<g id="a_edge6_Node000004_Node000005"><a xlink:title=" ">
<path fill="none" stroke="#63b8ff" d="M193.78,-23.12C185.89,-23.12 177.95,-23.12 170.16,-23.12"/>
<polygon fill="#63b8ff" stroke="#63b8ff" points="193.77,-26.63 203.77,-23.13 193.77,-19.63 193.77,-26.63"/>
</a>
</g>
</g>
</g>
</svg>
