<?xml version="1.0" encoding="UTF-8" standalone="no"?>
<!DOCTYPE svg PUBLIC "-//W3C//DTD SVG 1.1//EN"
 "http://www.w3.org/Graphics/SVG/1.1/DTD/svg11.dtd">
<!-- Generated by graphviz version 14.1.4 (0)
 -->
<!-- Title: ULevel::ULevel Pages: 1 -->
<svg width="288pt" height="379pt"
 viewBox="0.00 0.00 288.00 379.00" xmlns="http://www.w3.org/2000/svg" xmlns:xlink="http://www.w3.org/1999/xlink">

<svg id="main" version="1.1" xmlns="http://www.w3.org/2000/svg" xmlns:xlink="http://www.w3.org/1999/xlink" xml:space="preserve">

<style type="text/css"><![CDATA[
.node, .edge {opacity: 0.7;}
.node.selected, .edge.selected {opacity: 1;}
.edge:hover path { stroke: red; }
.edge:hover polygon { stroke: red; fill: red; }
]]></style>
<script type="application/ecmascript" xlink:href="svg.min.js"/>
<svg id="graph" class="graph">
<g id="graph0" class="graph" transform="scale(1 1) rotate(0) translate(4 375.12)">
<title>ULevel::ULevel</title>
<!-- Node1 -->
<g id="Node000001" class="node">
<title>Node1</title>
<g id="a_Node000001"><a xlink:title=" ">
<polygon fill="#999999" stroke="#666666" points="279.5,-209.12 190,-209.12 190,-188.38 279.5,-188.38 279.5,-209.12"/>
<text xml:space="preserve" text-anchor="middle" x="234.75" y="-195.62" font-family="Helvetica,sans-Serif" font-size="10.00">ULevel::ULevel</text>
</a>
</g>
</g>
<!-- Node2 -->
<g id="Node000002" class="node">
<title>Node2</title>
<g id="a_Node000002"><a xlink:href="classULevel.html#ac80a5314e7af95c44bcb00b126a59172" target="_top" xlink:title=" ">
<polygon fill="white" stroke="#666666" points="154,-371.12 0,-371.12 0,-350.38 154,-350.38 154,-371.12"/>
<text xml:space="preserve" text-anchor="middle" x="77" y="-357.62" font-family="Helvetica,sans-Serif" font-size="10.00">ULevel::BuildStreamingData</text>
</a>
</g>
</g>
<!-- Node1&#45;&gt;Node2 -->
<g id="edge1_Node000001_Node000002" class="edge">
<title>Node1&#45;&gt;Node2</title>
<g id="a_edge1_Node000001_Node000002"><a xlink:title=" ">
<path fill="none" stroke="#63b8ff" d="M227.5,-220.58C217.36,-252 194.28,-309.6 154,-340.75 149.14,-344.51 143.65,-347.56 137.88,-350.04"/>
<polygon fill="#63b8ff" stroke="#63b8ff" points="230.84,-221.61 230.42,-211.03 224.15,-219.57 230.84,-221.61"/>
</a>
</g>
</g>
<!-- Node3 -->
<g id="Node000003" class="node">
<title>Node3</title>
<g id="a_Node000003"><a xlink:href="classULevel.html#a22c8d8e641a11acfe05d29f714c56cdb" target="_top" xlink:title=" ">
<polygon fill="white" stroke="#666666" points="146.5,-332.12 7.5,-332.12 7.5,-311.38 146.5,-311.38 146.5,-332.12"/>
<text xml:space="preserve" text-anchor="middle" x="77" y="-318.62" font-family="Helvetica,sans-Serif" font-size="10.00">ULevel::DECLARE_EVENT</text>
</a>
</g>
</g>
<!-- Node1&#45;&gt;Node3 -->
<g id="edge2_Node000001_Node000003" class="edge">
<title>Node1&#45;&gt;Node3</title>
<g id="a_edge2_Node000001_Node000003"><a xlink:title=" ">
<path fill="none" stroke="#63b8ff" d="M223.37,-219.59C210.41,-243.39 186.02,-281.73 154,-302.75 149,-306.03 143.47,-308.75 137.74,-311"/>
<polygon fill="#63b8ff" stroke="#63b8ff" points="226.41,-221.33 227.94,-210.85 220.2,-218.08 226.41,-221.33"/>
</a>
</g>
</g>
<!-- Node4 -->
<g id="Node000004" class="node">
<title>Node4</title>
<g id="a_Node000004"><a xlink:href="classULevel.html#a25fcdd4ee8f548760ad7323c88522376" target="_top" xlink:title=" ">
<polygon fill="white" stroke="#666666" points="146.5,-293.5 7.5,-293.5 7.5,-260 146.5,-260 146.5,-293.5"/>
<text xml:space="preserve" text-anchor="start" x="15.5" y="-280" font-family="Helvetica,sans-Serif" font-size="10.00">ULevel::DECLARE_EVENT</text>
<text xml:space="preserve" text-anchor="middle" x="77" y="-267.25" font-family="Helvetica,sans-Serif" font-size="10.00">_OneParam</text>
</a>
</g>
</g>
<!-- Node1&#45;&gt;Node4 -->
<g id="edge3_Node000001_Node000004" class="edge">
<title>Node1&#45;&gt;Node4</title>
<g id="a_edge3_Node000001_Node000004"><a xlink:title=" ">
<path fill="none" stroke="#63b8ff" d="M210.42,-216.18C194.99,-227.14 173.99,-241 154,-250.75 147.48,-253.93 140.48,-256.89 133.45,-259.59"/>
<polygon fill="#63b8ff" stroke="#63b8ff" points="212.42,-219.05 218.47,-210.35 208.32,-213.38 212.42,-219.05"/>
</a>
</g>
</g>
<!-- Node5 -->
<g id="Node000005" class="node">
<title>Node5</title>
<g id="a_Node000005"><a xlink:href="classULevel.html#aa79e25b5e20756c67d39840dcdab14ee" target="_top" xlink:title=" ">
<polygon fill="white" stroke="#666666" points="146.5,-241.5 7.5,-241.5 7.5,-208 146.5,-208 146.5,-241.5"/>
<text xml:space="preserve" text-anchor="start" x="15.5" y="-228" font-family="Helvetica,sans-Serif" font-size="10.00">ULevel::DECLARE_EVENT</text>
<text xml:space="preserve" text-anchor="middle" x="77" y="-215.25" font-family="Helvetica,sans-Serif" font-size="10.00">_OneParam</text>
</a>
</g>
</g>
<!-- Node1&#45;&gt;Node5 -->
<g id="edge4_Node000001_Node000005" class="edge">
<title>Node1&#45;&gt;Node5</title>
<g id="a_edge4_Node000001_Node000005"><a xlink:title=" ">
<path fill="none" stroke="#63b8ff" d="M178.29,-208.01C168.09,-209.71 157.32,-211.51 146.78,-213.27"/>
<polygon fill="#63b8ff" stroke="#63b8ff" points="178.75,-211.48 188.04,-206.38 177.6,-204.57 178.75,-211.48"/>
</a>
</g>
</g>
<!-- Node6 -->
<g id="Node000006" class="node">
<title>Node6</title>
<g id="a_Node000006"><a xlink:href="classULevel.html#a56e4f0429854f13479d6712548d67b17" target="_top" xlink:title=" ">
<polygon fill="white" stroke="#666666" points="146.5,-189.5 7.5,-189.5 7.5,-156 146.5,-156 146.5,-189.5"/>
<text xml:space="preserve" text-anchor="start" x="15.5" y="-176" font-family="Helvetica,sans-Serif" font-size="10.00">ULevel::DECLARE_EVENT</text>
<text xml:space="preserve" text-anchor="middle" x="77" y="-163.25" font-family="Helvetica,sans-Serif" font-size="10.00">_OneParam</text>
</a>
</g>
</g>
<!-- Node1&#45;&gt;Node6 -->
<g id="edge5_Node000001_Node000006" class="edge">
<title>Node1&#45;&gt;Node6</title>
<g id="a_edge5_Node000001_Node000006"><a xlink:title=" ">
<path fill="none" stroke="#63b8ff" d="M178.29,-189.49C168.09,-187.79 157.32,-185.99 146.78,-184.23"/>
<polygon fill="#63b8ff" stroke="#63b8ff" points="177.6,-192.93 188.04,-191.12 178.75,-186.02 177.6,-192.93"/>
</a>
</g>
</g>
<!-- Node7 -->
<g id="Node000007" class="node">
<title>Node7</title>
<g id="a_Node000007"><a xlink:href="classULevel.html#a9304cf73e872d0fb5e4c3205df0f8d8a" target="_top" xlink:title=" ">
<polygon fill="white" stroke="#666666" points="146.5,-137.5 7.5,-137.5 7.5,-104 146.5,-104 146.5,-137.5"/>
<text xml:space="preserve" text-anchor="start" x="15.5" y="-124" font-family="Helvetica,sans-Serif" font-size="10.00">ULevel::DECLARE_EVENT</text>
<text xml:space="preserve" text-anchor="middle" x="77" y="-111.25" font-family="Helvetica,sans-Serif" font-size="10.00">_OneParam</text>
</a>
</g>
</g>
<!-- Node1&#45;&gt;Node7 -->
<g id="edge6_Node000001_Node000007" class="edge">
<title>Node1&#45;&gt;Node7</title>
<g id="a_edge6_Node000001_Node000007"><a xlink:title=" ">
<path fill="none" stroke="#63b8ff" d="M210.42,-181.32C194.99,-170.36 173.99,-156.5 154,-146.75 147.48,-143.57 140.48,-140.61 133.45,-137.91"/>
<polygon fill="#63b8ff" stroke="#63b8ff" points="208.32,-184.12 218.47,-187.15 212.42,-178.45 208.32,-184.12"/>
</a>
</g>
</g>
<!-- Node8 -->
<g id="Node000008" class="node">
<title>Node8</title>
<g id="a_Node000008"><a xlink:href="classULevel.html#a35ab3f7fcfa048015ae37a79938bfbac" target="_top" xlink:title=" ">
<polygon fill="white" stroke="#666666" points="146.5,-85.5 7.5,-85.5 7.5,-52 146.5,-52 146.5,-85.5"/>
<text xml:space="preserve" text-anchor="start" x="15.5" y="-72" font-family="Helvetica,sans-Serif" font-size="10.00">ULevel::DECLARE_EVENT</text>
<text xml:space="preserve" text-anchor="middle" x="77" y="-59.25" font-family="Helvetica,sans-Serif" font-size="10.00">_OneParam</text>
</a>
</g>
</g>
<!-- Node1&#45;&gt;Node8 -->
<g id="edge7_Node000001_Node000008" class="edge">
<title>Node1&#45;&gt;Node8</title>
<g id="a_edge7_Node000001_Node000008"><a xlink:title=" ">
<path fill="none" stroke="#63b8ff" d="M222.84,-178.02C209.53,-154.64 184.94,-116.99 154,-94.75 149.36,-91.41 144.25,-88.48 138.95,-85.9"/>
<polygon fill="#63b8ff" stroke="#63b8ff" points="219.68,-179.53 227.56,-186.61 225.81,-176.16 219.68,-179.53"/>
</a>
</g>
</g>
<!-- Node9 -->
<g id="Node000009" class="node">
<title>Node9</title>
<g id="a_Node000009"><a xlink:href="classULevel.html#a139a582250a290f2d4a2ef4f357c0d87" target="_top" xlink:title=" ">
<polygon fill="white" stroke="#666666" points="146.5,-33.5 7.5,-33.5 7.5,0 146.5,0 146.5,-33.5"/>
<text xml:space="preserve" text-anchor="start" x="15.5" y="-20" font-family="Helvetica,sans-Serif" font-size="10.00">ULevel::DECLARE_EVENT</text>
<text xml:space="preserve" text-anchor="middle" x="77" y="-7.25" font-family="Helvetica,sans-Serif" font-size="10.00">_OneParam</text>
</a>
</g>
</g>
<!-- Node1&#45;&gt;Node9 -->
<g id="edge8_Node000001_Node000009" class="edge">
<title>Node1&#45;&gt;Node9</title>
<g id="a_edge8_Node000001_Node000009"><a xlink:title=" ">
<path fill="none" stroke="#63b8ff" d="M228.33,-177.08C218.86,-143.58 196.18,-79.29 154,-42.75 150.1,-39.37 145.74,-36.43 141.13,-33.86"/>
<polygon fill="#63b8ff" stroke="#63b8ff" points="224.87,-177.7 230.84,-186.46 231.63,-175.89 224.87,-177.7"/>
</a>
</g>
</g>
</g>
</svg>
</svg>

<style type='text/css'>
<![CDATA[
[data-mouse-over-selected='false'] { opacity: 0.7; }
[data-mouse-over-selected='true']  { opacity: 1.0; }
]]>
</style>
<script type="application/ecmascript"><![CDATA[
document.addEventListener('DOMContentLoaded', (event) => {
  highlightEdges();
  highlightAdjacentNodes();
});
]]></script>
</svg>
