<?xml version="1.0" encoding="UTF-8" standalone="no"?>
<!DOCTYPE svg PUBLIC "-//W3C//DTD SVG 1.1//EN"
 "http://www.w3.org/Graphics/SVG/1.1/DTD/svg11.dtd">
<!-- Generated by graphviz version 14.1.4 (0)
 -->
<!-- Title: UParticleModuleRotationRate Pages: 1 -->
<svg width="184pt" height="998pt"
 viewBox="0.00 0.00 184.00 998.00" xmlns="http://www.w3.org/2000/svg" xmlns:xlink="http://www.w3.org/1999/xlink">
<g id="graph0" class="graph" transform="scale(1 1) rotate(0) translate(4 993.5)">
<title>UParticleModuleRotationRate</title>
<!-- Node1 -->
<g id="Node000001" class="node">
<title>Node1</title>
<g id="a_Node000001"><a xlink:title=" ">
<polygon fill="#999999" stroke="none" points="164,-274.5 12,-274.5 12,-119.75 164,-119.75 164,-274.5"/>
<text xml:space="preserve" text-anchor="start" x="16" y="-260.75" font-family="Helvetica,sans-Serif" font-size="10.00">UParticleModuleRotationRate</text>
<text xml:space="preserve" text-anchor="start" x="18.75" y="-244" font-family="Helvetica,sans-Serif" font-size="10.00">&#45;</text>
<text xml:space="preserve" text-anchor="start" x="29.25" y="-244" font-family="Helvetica,sans-Serif" font-size="10.00">StartRotationRate</text>
<text xml:space="preserve" text-anchor="start" x="18.75" y="-227.25" font-family="Helvetica,sans-Serif" font-size="10.00">&#45;</text>
<text xml:space="preserve" text-anchor="start" x="29.25" y="-227.25" font-family="Helvetica,sans-Serif" font-size="10.00">InitializeDefaults()</text>
<text xml:space="preserve" text-anchor="start" x="18.75" y="-210.5" font-family="Helvetica,sans-Serif" font-size="10.00">&#45;</text>
<text xml:space="preserve" text-anchor="start" x="29.25" y="-210.5" font-family="Helvetica,sans-Serif" font-size="10.00">PostEditChangeProperty()</text>
<text xml:space="preserve" text-anchor="start" x="18.75" y="-193.75" font-family="Helvetica,sans-Serif" font-size="10.00">&#45;</text>
<text xml:space="preserve" text-anchor="start" x="29.25" y="-193.75" font-family="Helvetica,sans-Serif" font-size="10.00">PostInitProperties()</text>
<text xml:space="preserve" text-anchor="start" x="18.75" y="-177" font-family="Helvetica,sans-Serif" font-size="10.00">&#45;</text>
<text xml:space="preserve" text-anchor="start" x="29.25" y="-177" font-family="Helvetica,sans-Serif" font-size="10.00">CompileModule()</text>
<text xml:space="preserve" text-anchor="start" x="18.75" y="-160.25" font-family="Helvetica,sans-Serif" font-size="10.00">&#45;</text>
<text xml:space="preserve" text-anchor="start" x="29.25" y="-160.25" font-family="Helvetica,sans-Serif" font-size="10.00">Spawn()</text>
<text xml:space="preserve" text-anchor="start" x="18.75" y="-143.5" font-family="Helvetica,sans-Serif" font-size="10.00">&#45;</text>
<text xml:space="preserve" text-anchor="start" x="29.25" y="-143.5" font-family="Helvetica,sans-Serif" font-size="10.00">SetToSensibleDefaults()</text>
<text xml:space="preserve" text-anchor="start" x="18.75" y="-126.75" font-family="Helvetica,sans-Serif" font-size="10.00">&#45;</text>
<text xml:space="preserve" text-anchor="start" x="29.25" y="-126.75" font-family="Helvetica,sans-Serif" font-size="10.00">SpawnEx()</text>
<polygon fill="#666666" stroke="#666666" points="12,-255.75 12,-255.75 164,-255.75 164,-255.75 12,-255.75"/>
<polygon fill="#666666" stroke="#666666" points="12,-239 12,-239 27.25,-239 27.25,-239 12,-239"/>
<polygon fill="#666666" stroke="#666666" points="27.25,-239 27.25,-239 164,-239 164,-239 27.25,-239"/>
<polygon fill="none" stroke="#666666" points="12,-119.75 12,-274.5 164,-274.5 164,-119.75 12,-119.75"/>
</a>
</g>
</g>
<!-- Node5 -->
<g id="Node000005" class="node">
<title>Node5</title>
<g id="a_Node000005"><a xlink:href="classUParticleModuleRotationRate__Seeded.html" target="_top" xlink:title=" ">
<polygon fill="white" stroke="none" points="164,-83.75 12,-83.75 12,0 164,0 164,-83.75"/>
<text xml:space="preserve" text-anchor="start" x="16" y="-70" font-family="Helvetica,sans-Serif" font-size="10.00">UParticleModuleRotationRate</text>
<text xml:space="preserve" text-anchor="start" x="67.38" y="-57.25" font-family="Helvetica,sans-Serif" font-size="10.00">_Seeded</text>
<text xml:space="preserve" text-anchor="start" x="22.12" y="-40.5" font-family="Helvetica,sans-Serif" font-size="10.00">&#45;</text>
<text xml:space="preserve" text-anchor="start" x="36" y="-40.5" font-family="Helvetica,sans-Serif" font-size="10.00">RandomSeedInfo</text>
<text xml:space="preserve" text-anchor="start" x="22.12" y="-23.75" font-family="Helvetica,sans-Serif" font-size="10.00">&#45;</text>
<text xml:space="preserve" text-anchor="start" x="36" y="-23.75" font-family="Helvetica,sans-Serif" font-size="10.00">GetRandomSeedInfo()</text>
<text xml:space="preserve" text-anchor="start" x="22.12" y="-7" font-family="Helvetica,sans-Serif" font-size="10.00">&#45;</text>
<text xml:space="preserve" text-anchor="start" x="36" y="-7" font-family="Helvetica,sans-Serif" font-size="10.00">EmitterLoopingNotify()</text>
<polygon fill="#666666" stroke="#666666" points="12,-52.25 12,-52.25 164,-52.25 164,-52.25 12,-52.25"/>
<polygon fill="#666666" stroke="#666666" points="12,-35.5 12,-35.5 34,-35.5 34,-35.5 12,-35.5"/>
<polygon fill="#666666" stroke="#666666" points="34,-35.5 34,-35.5 164,-35.5 164,-35.5 34,-35.5"/>
<polygon fill="none" stroke="#666666" points="12,0 12,-83.75 164,-83.75 164,0 12,0"/>
</a>
</g>
</g>
<!-- Node1&#45;&gt;Node5 -->
<g id="edge4_Node000001_Node000005" class="edge">
<title>Node1&#45;&gt;Node5</title>
<g id="a_edge4_Node000001_Node000005"><a xlink:title=" ">
<path fill="none" stroke="#63b8ff" d="M88,-108.45C88,-99.75 88,-91.25 88,-83.41"/>
<polygon fill="none" stroke="#63b8ff" points="84.5,-108.44 88,-118.44 91.5,-108.44 84.5,-108.44"/>
</a>
</g>
</g>
<!-- Node2 -->
<g id="Node000002" class="node">
<title>Node2</title>
<g id="a_Node000002"><a xlink:href="classUParticleModuleRotationRateBase.html" target="_top" xlink:title=" ">
<polygon fill="white" stroke="none" points="176,-364.75 0,-364.75 0,-310.5 176,-310.5 176,-364.75"/>
<text xml:space="preserve" text-anchor="start" x="4" y="-351" font-family="Helvetica,sans-Serif" font-size="10.00">UParticleModuleRotationRateBase</text>
<text xml:space="preserve" text-anchor="start" x="85" y="-334.25" font-family="Helvetica,sans-Serif" font-size="10.00"> </text>
<text xml:space="preserve" text-anchor="start" x="85" y="-317.5" font-family="Helvetica,sans-Serif" font-size="10.00"> </text>
<polygon fill="#666666" stroke="#666666" points="0,-346 0,-346 176,-346 176,-346 0,-346"/>
<polygon fill="#666666" stroke="#666666" points="0,-329.25 0,-329.25 176,-329.25 176,-329.25 0,-329.25"/>
<polygon fill="none" stroke="#666666" points="0,-310.5 0,-364.75 176,-364.75 176,-310.5 0,-310.5"/>
</a>
</g>
</g>
<!-- Node2&#45;&gt;Node1 -->
<g id="edge1_Node000001_Node000002" class="edge">
<title>Node2&#45;&gt;Node1</title>
<g id="a_edge1_Node000001_Node000002"><a xlink:title=" ">
<path fill="none" stroke="#63b8ff" d="M88,-299.32C88,-291.5 88,-282.99 88,-274.33"/>
<polygon fill="none" stroke="#63b8ff" points="84.5,-299.06 88,-309.06 91.5,-299.06 84.5,-299.06"/>
</a>
</g>
</g>
<!-- Node3 -->
<g id="Node000003" class="node">
<title>Node3</title>
<g id="a_Node000003"><a xlink:href="classUParticleModule.html" target="_top" xlink:title=" ">
<polygon fill="white" stroke="none" points="169,-899.25 7,-899.25 7,-400.75 169,-400.75 169,-899.25"/>
<text xml:space="preserve" text-anchor="start" x="47.88" y="-885.5" font-family="Helvetica,sans-Serif" font-size="10.00">UParticleModule</text>
<text xml:space="preserve" text-anchor="start" x="11" y="-868.75" font-family="Helvetica,sans-Serif" font-size="10.00">&#45;</text>
<text xml:space="preserve" text-anchor="start" x="18.75" y="-868.75" font-family="Helvetica,sans-Serif" font-size="10.00">bSpawnModule</text>
<text xml:space="preserve" text-anchor="start" x="11" y="-852" font-family="Helvetica,sans-Serif" font-size="10.00">&#45;</text>
<text xml:space="preserve" text-anchor="start" x="18.75" y="-852" font-family="Helvetica,sans-Serif" font-size="10.00">bUpdateModule</text>
<text xml:space="preserve" text-anchor="start" x="11" y="-835.25" font-family="Helvetica,sans-Serif" font-size="10.00">&#45;</text>
<text xml:space="preserve" text-anchor="start" x="18.75" y="-835.25" font-family="Helvetica,sans-Serif" font-size="10.00">bFinalUpdateModule</text>
<text xml:space="preserve" text-anchor="start" x="11" y="-818.5" font-family="Helvetica,sans-Serif" font-size="10.00">&#45;</text>
<text xml:space="preserve" text-anchor="start" x="18.75" y="-818.5" font-family="Helvetica,sans-Serif" font-size="10.00">bUpdateForGPUEmitter</text>
<text xml:space="preserve" text-anchor="start" x="11" y="-801.75" font-family="Helvetica,sans-Serif" font-size="10.00">&#45;</text>
<text xml:space="preserve" text-anchor="start" x="18.75" y="-801.75" font-family="Helvetica,sans-Serif" font-size="10.00">bCurvesAsColor</text>
<text xml:space="preserve" text-anchor="start" x="11" y="-785" font-family="Helvetica,sans-Serif" font-size="10.00">&#45;</text>
<text xml:space="preserve" text-anchor="start" x="18.75" y="-785" font-family="Helvetica,sans-Serif" font-size="10.00">b3DDrawMode</text>
<text xml:space="preserve" text-anchor="start" x="11" y="-768.25" font-family="Helvetica,sans-Serif" font-size="10.00">&#45;</text>
<text xml:space="preserve" text-anchor="start" x="18.75" y="-768.25" font-family="Helvetica,sans-Serif" font-size="10.00">bSupported3DDrawMode</text>
<text xml:space="preserve" text-anchor="start" x="11" y="-751.5" font-family="Helvetica,sans-Serif" font-size="10.00">&#45;</text>
<text xml:space="preserve" text-anchor="start" x="18.75" y="-751.5" font-family="Helvetica,sans-Serif" font-size="10.00">bEnabled</text>
<text xml:space="preserve" text-anchor="start" x="11" y="-734.75" font-family="Helvetica,sans-Serif" font-size="10.00">&#45;</text>
<text xml:space="preserve" text-anchor="start" x="18.75" y="-734.75" font-family="Helvetica,sans-Serif" font-size="10.00">bEditable</text>
<text xml:space="preserve" text-anchor="start" x="11" y="-718" font-family="Helvetica,sans-Serif" font-size="10.00">&#45;</text>
<text xml:space="preserve" text-anchor="start" x="18.75" y="-718" font-family="Helvetica,sans-Serif" font-size="10.00">LODDuplicate</text>
<text xml:space="preserve" text-anchor="start" x="11" y="-701.25" font-family="Helvetica,sans-Serif" font-size="10.00">&#45;</text>
<text xml:space="preserve" text-anchor="start" x="18.75" y="-701.25" font-family="Helvetica,sans-Serif" font-size="10.00">bSupportsRandomSeed</text>
<text xml:space="preserve" text-anchor="start" x="11" y="-684.5" font-family="Helvetica,sans-Serif" font-size="10.00">&#45;</text>
<text xml:space="preserve" text-anchor="start" x="18.75" y="-684.5" font-family="Helvetica,sans-Serif" font-size="10.00">bRequiresLoopingNotification</text>
<text xml:space="preserve" text-anchor="start" x="11" y="-667.75" font-family="Helvetica,sans-Serif" font-size="10.00">&#45;</text>
<text xml:space="preserve" text-anchor="start" x="18.75" y="-667.75" font-family="Helvetica,sans-Serif" font-size="10.00">LODValidity</text>
<text xml:space="preserve" text-anchor="start" x="11" y="-651" font-family="Helvetica,sans-Serif" font-size="10.00">&#45;</text>
<text xml:space="preserve" text-anchor="start" x="18.75" y="-651" font-family="Helvetica,sans-Serif" font-size="10.00">IsPostLoadThreadSafe()</text>
<text xml:space="preserve" text-anchor="start" x="11" y="-634.25" font-family="Helvetica,sans-Serif" font-size="10.00">&#45;</text>
<text xml:space="preserve" text-anchor="start" x="18.75" y="-634.25" font-family="Helvetica,sans-Serif" font-size="10.00">PostEditChangeProperty()</text>
<text xml:space="preserve" text-anchor="start" x="11" y="-617.5" font-family="Helvetica,sans-Serif" font-size="10.00">&#45;</text>
<text xml:space="preserve" text-anchor="start" x="18.75" y="-617.5" font-family="Helvetica,sans-Serif" font-size="10.00">CompileModule()</text>
<text xml:space="preserve" text-anchor="start" x="11" y="-600.75" font-family="Helvetica,sans-Serif" font-size="10.00">&#45;</text>
<text xml:space="preserve" text-anchor="start" x="18.75" y="-600.75" font-family="Helvetica,sans-Serif" font-size="10.00">Spawn()</text>
<text xml:space="preserve" text-anchor="start" x="11" y="-584" font-family="Helvetica,sans-Serif" font-size="10.00">&#45;</text>
<text xml:space="preserve" text-anchor="start" x="18.75" y="-584" font-family="Helvetica,sans-Serif" font-size="10.00">Update()</text>
<text xml:space="preserve" text-anchor="start" x="11" y="-567.25" font-family="Helvetica,sans-Serif" font-size="10.00">&#45;</text>
<text xml:space="preserve" text-anchor="start" x="18.75" y="-567.25" font-family="Helvetica,sans-Serif" font-size="10.00">FinalUpdate()</text>
<text xml:space="preserve" text-anchor="start" x="11" y="-550.5" font-family="Helvetica,sans-Serif" font-size="10.00">&#45;</text>
<text xml:space="preserve" text-anchor="start" x="18.75" y="-550.5" font-family="Helvetica,sans-Serif" font-size="10.00">RequiredBytes()</text>
<text xml:space="preserve" text-anchor="start" x="11" y="-533.75" font-family="Helvetica,sans-Serif" font-size="10.00">&#45;</text>
<text xml:space="preserve" text-anchor="start" x="18.75" y="-533.75" font-family="Helvetica,sans-Serif" font-size="10.00">RequiredBytesPerInstance()</text>
<text xml:space="preserve" text-anchor="start" x="11" y="-517" font-family="Helvetica,sans-Serif" font-size="10.00">&#45;</text>
<text xml:space="preserve" text-anchor="start" x="18.75" y="-517" font-family="Helvetica,sans-Serif" font-size="10.00">PrepPerInstanceBlock()</text>
<text xml:space="preserve" text-anchor="start" x="11" y="-500.25" font-family="Helvetica,sans-Serif" font-size="10.00">&#45;</text>
<text xml:space="preserve" text-anchor="start" x="18.75" y="-500.25" font-family="Helvetica,sans-Serif" font-size="10.00">SetToSensibleDefaults()</text>
<text xml:space="preserve" text-anchor="start" x="18.75" y="-483.5" font-family="Helvetica,sans-Serif" font-size="10.00">and 35 more...</text>
<text xml:space="preserve" text-anchor="start" x="11" y="-466.75" font-family="Helvetica,sans-Serif" font-size="10.00">&#45;</text>
<text xml:space="preserve" text-anchor="start" x="18.75" y="-466.75" font-family="Helvetica,sans-Serif" font-size="10.00">GetDistributionsRestricted</text>
<text xml:space="preserve" text-anchor="start" x="18.75" y="-454" font-family="Helvetica,sans-Serif" font-size="10.00">OnGPU()</text>
<text xml:space="preserve" text-anchor="start" x="11" y="-437.25" font-family="Helvetica,sans-Serif" font-size="10.00">&#45;</text>
<text xml:space="preserve" text-anchor="start" x="18.75" y="-437.25" font-family="Helvetica,sans-Serif" font-size="10.00">IsDistributionAllowedOnGPU()</text>
<text xml:space="preserve" text-anchor="start" x="11" y="-420.5" font-family="Helvetica,sans-Serif" font-size="10.00">&#45;</text>
<text xml:space="preserve" text-anchor="start" x="18.75" y="-420.5" font-family="Helvetica,sans-Serif" font-size="10.00">GetDistributionNotAllowed</text>
<text xml:space="preserve" text-anchor="start" x="18.75" y="-407.75" font-family="Helvetica,sans-Serif" font-size="10.00">OnGPUText()</text>
<polygon fill="#666666" stroke="#666666" points="7,-880.5 7,-880.5 169,-880.5 169,-880.5 7,-880.5"/>
<polygon fill="#666666" stroke="#666666" points="7,-662.75 7,-662.75 16.75,-662.75 16.75,-662.75 7,-662.75"/>
<polygon fill="#666666" stroke="#666666" points="16.75,-662.75 16.75,-662.75 169,-662.75 169,-662.75 16.75,-662.75"/>
<polygon fill="none" stroke="#666666" points="7,-400.75 7,-899.25 169,-899.25 169,-400.75 7,-400.75"/>
</a>
</g>
</g>
<!-- Node3&#45;&gt;Node2 -->
<g id="edge2_Node000002_Node000003" class="edge">
<title>Node3&#45;&gt;Node2</title>
<g id="a_edge2_Node000002_Node000003"><a xlink:title=" ">
<path fill="none" stroke="#63b8ff" d="M88,-389.61C88,-380.22 88,-371.77 88,-364.57"/>
<polygon fill="none" stroke="#63b8ff" points="84.5,-389.55 88,-399.55 91.5,-389.55 84.5,-389.55"/>
</a>
</g>
</g>
<!-- Node4 -->
<g id="Node000004" class="node">
<title>Node4</title>
<g id="a_Node000004"><a xlink:title=" ">
<polygon fill="white" stroke="none" points="111.5,-989.5 64.5,-989.5 64.5,-935.25 111.5,-935.25 111.5,-989.5"/>
<text xml:space="preserve" text-anchor="start" x="68.5" y="-975.75" font-family="Helvetica,sans-Serif" font-size="10.00">UObject</text>
<text xml:space="preserve" text-anchor="start" x="85" y="-959" font-family="Helvetica,sans-Serif" font-size="10.00"> </text>
<text xml:space="preserve" text-anchor="start" x="85" y="-942.25" font-family="Helvetica,sans-Serif" font-size="10.00"> </text>
<polygon fill="#666666" stroke="#666666" points="64.5,-970.75 64.5,-970.75 111.5,-970.75 111.5,-970.75 64.5,-970.75"/>
<polygon fill="#666666" stroke="#666666" points="64.5,-954 64.5,-954 111.5,-954 111.5,-954 64.5,-954"/>
<polygon fill="none" stroke="#666666" points="64.5,-935.25 64.5,-989.5 111.5,-989.5 111.5,-935.25 64.5,-935.25"/>
</a>
</g>
</g>
<!-- Node4&#45;&gt;Node3 -->
<g id="edge3_Node000003_Node000004" class="edge">
<title>Node4&#45;&gt;Node3</title>
<g id="a_edge3_Node000003_Node000004"><a xlink:title=" ">
<path fill="none" stroke="#63b8ff" d="M88,-924.06C88,-916.55 88,-908.14 88,-899.07"/>
<polygon fill="none" stroke="#63b8ff" points="84.5,-923.93 88,-933.93 91.5,-923.93 84.5,-923.93"/>
</a>
</g>
</g>
</g>
</svg>
