<?xml version="1.0" encoding="UTF-8" standalone="no"?>
<!DOCTYPE svg PUBLIC "-//W3C//DTD SVG 1.1//EN"
 "http://www.w3.org/Graphics/SVG/1.1/DTD/svg11.dtd">
<!-- Generated by graphviz version 14.1.4 (0)
 -->
<!-- Title: UActorComponent::GetOwner Pages: 1 -->
<!--zoomable 104 -->

<svg id="main" version="1.1" xmlns="http://www.w3.org/2000/svg" xmlns:xlink="http://www.w3.org/1999/xlink" xml:space="preserve" onload="init(evt)">

<style type="text/css"><![CDATA[
.node, .edge {opacity: 0.7;}
.node.selected, .edge.selected {opacity: 1;}
.edge:hover path { stroke: red; }
.edge:hover polygon { stroke: red; fill: red; }
]]></style>

<defs>
  <circle id="rim" cx="0" cy="0" r="7"/>
  <circle id="rim2" cx="0" cy="0" r="3.5"/>
  <g id="zoomPlus">
    <use xlink:href="#rim" fill="#404040"><set attributeName="fill" to="#808080" begin="zoomplus.mouseover" end="zoomplus.mouseout"/></use>
    <path d="M-4,0h8M0,-4v8" fill="none" stroke="white" stroke-width="1.5" pointer-events="none"/>
  </g>
  <g id="zoomMin">
    <use xlink:href="#rim" fill="#404040"><set attributeName="fill" to="#808080" begin="zoomminus.mouseover" end="zoomminus.mouseout"/></use>
    <path d="M-4,0h8" fill="none" stroke="white" stroke-width="1.5" pointer-events="none"/>
  </g>
  <g id="arrowUp" transform="translate(30 24)">
    <use xlink:href="#rim"/>
    <path pointer-events="none" fill="none" stroke="white" stroke-width="1.5" d="M0,-3.0v7 M-2.5,-0.5L0,-3.0L2.5,-0.5"/>
  </g>
  <g id="arrowRight" transform="rotate(90) translate(36 -43)">
    <use xlink:href="#rim"/>
    <path pointer-events="none" fill="none" stroke="white" stroke-width="1.5" d="M0,-3.0v7 M-2.5,-0.5L0,-3.0L2.5,-0.5"/>
  </g>
  <g id="arrowDown" transform="rotate(180) translate(-30 -48)">
    <use xlink:href="#rim"/>
    <path pointer-events="none" fill="none" stroke="white" stroke-width="1.5" d="M0,-3.0v7 M-2.5,-0.5L0,-3.0L2.5,-0.5"/>
  </g>
  <g id="arrowLeft" transform="rotate(270) translate(-36 17)">
    <use xlink:href="#rim"/>
    <path pointer-events="none" fill="none" stroke="white" stroke-width="1.5" d="M0,-3.0v7 M-2.5,-0.5L0,-3.0L2.5,-0.5"/>
  </g>
  <g id="resetDef">
    <use xlink:href="#rim2" fill="#404040"><set attributeName="fill" to="#808080" begin="reset.mouseover" end="reset.mouseout"/></use>
  </g>
</defs>
<script type="application/ecmascript">
var viewWidth = 554;
var viewHeight = 104;
var sectionId = 'dynsection-39';
</script>
<script type="application/ecmascript" xlink:href="svg.min.js"/>
<svg id="graph" class="graph">
<g id="viewport">
<title>UActorComponent::GetOwner</title>
<!-- Node1 -->
<g id="Node000001" class="node">
<title>Node1</title>
<g id="a_Node000001"><a xlink:title=" ">
<polygon fill="#999999" stroke="#666666" points="160,-46.12 0,-46.12 0,-25.38 160,-25.38 160,-46.12"/>
<text xml:space="preserve" text-anchor="middle" x="80" y="-32.62" font-family="Helvetica,sans-Serif" font-size="10.00">UActorComponent::GetOwner</text>
</a>
</g>
</g>
<!-- Node2 -->
<g id="Node000002" class="node">
<title>Node2</title>
<g id="a_Node000002"><a xlink:href="PawnIterator_8h.html#a60de95b890b12253839b1151d564a100" target="_top" xlink:title=" ">
<polygon fill="white" stroke="#666666" points="294.88,-78.12 257.12,-78.12 257.12,-57.38 294.88,-57.38 294.88,-78.12"/>
<text xml:space="preserve" text-anchor="middle" x="276" y="-64.62" font-family="Helvetica,sans-Serif" font-size="10.00">Cast</text>
</a>
</g>
</g>
<!-- Node1&#45;&gt;Node2 -->
<g id="edge1_Node000001_Node000002" class="edge">
<title>Node1&#45;&gt;Node2</title>
<g id="a_edge1_Node000001_Node000002"><a xlink:title=" ">
<path fill="none" stroke="#63b8ff" d="M146.68,-46.58C180.42,-52.15 219.83,-58.65 245.99,-62.96"/>
<polygon fill="#63b8ff" stroke="#63b8ff" points="245.07,-66.36 255.51,-64.53 246.21,-59.45 245.07,-66.36"/>
</a>
</g>
</g>
<!-- Node4 -->
<g id="Node000004" class="node">
<title>Node4</title>
<g id="a_Node000004"><a xlink:href="classUActorComponent.html#aa2de9b4850c21c6f61df609bd3a7416c" target="_top" xlink:title=" ">
<polygon fill="white" stroke="#666666" points="356,-27.12 196,-27.12 196,-6.38 356,-6.38 356,-27.12"/>
<text xml:space="preserve" text-anchor="middle" x="276" y="-13.62" font-family="Helvetica,sans-Serif" font-size="10.00">UActorComponent::GetOwner</text>
</a>
</g>
</g>
<!-- Node1&#45;&gt;Node4 -->
<g id="edge4_Node000001_Node000004" class="edge">
<title>Node1&#45;&gt;Node4</title>
<g id="a_edge4_Node000001_Node000004"><a xlink:title=" ">
<path fill="none" stroke="#63b8ff" d="M160.47,-27.97C168.36,-27.19 176.42,-26.41 184.41,-25.62"/>
<polygon fill="#63b8ff" stroke="#63b8ff" points="184.54,-29.13 194.15,-24.67 183.86,-22.16 184.54,-29.13"/>
</a>
</g>
</g>
<!-- Node2&#45;&gt;Node2 -->
<g id="edge2_Node000002_Node000002" class="edge">
<title>Node2&#45;&gt;Node2</title>
<g id="a_edge2_Node000002_Node000002"><a xlink:title=" ">
<path fill="none" stroke="#63b8ff" d="M256.92,-72.77C228.93,-82.66 235.29,-96.12 276,-96.12 310.67,-96.12 320.43,-86.36 305.28,-77.35"/>
<polygon fill="#63b8ff" stroke="#63b8ff" points="307.02,-74.3 296.46,-73.39 304.15,-80.68 307.02,-74.3"/>
</a>
</g>
</g>
<!-- Node3 -->
<g id="Node000003" class="node">
<title>Node3</title>
<g id="a_Node000003"><a xlink:href="structFPawnIteratorObject.html#a684316caab3954b0e82449d86f7ff960" target="_top" xlink:title=" ">
<polygon fill="white" stroke="#666666" points="538.5,-90.12 399.5,-90.12 399.5,-69.38 538.5,-69.38 538.5,-90.12"/>
<text xml:space="preserve" text-anchor="middle" x="469" y="-76.62" font-family="Helvetica,sans-Serif" font-size="10.00">FPawnIteratorObject::Get</text>
</a>
</g>
</g>
<!-- Node2&#45;&gt;Node3 -->
<g id="edge3_Node000002_Node000003" class="edge">
<title>Node2&#45;&gt;Node3</title>
<g id="a_edge3_Node000002_Node000003"><a xlink:title=" ">
<path fill="none" stroke="#63b8ff" d="M295.31,-68.9C316.71,-70.24 353.53,-72.56 387.69,-74.7"/>
<polygon fill="#63b8ff" stroke="#63b8ff" points="387.44,-78.2 397.64,-75.33 387.88,-71.21 387.44,-78.2"/>
</a>
</g>
</g>
<!-- Node5 -->
<g id="Node000005" class="node">
<title>Node5</title>
<g id="a_Node000005"><a xlink:href="classUActorComponent.html#af37280e29255920461a86aec8ed7856c" target="_top" xlink:title=" ">
<polygon fill="white" stroke="#666666" points="546,-33.5 392,-33.5 392,0 546,0 546,-33.5"/>
<text xml:space="preserve" text-anchor="start" x="400" y="-20" font-family="Helvetica,sans-Serif" font-size="10.00">UActorComponent::GetActor</text>
<text xml:space="preserve" text-anchor="middle" x="469" y="-7.25" font-family="Helvetica,sans-Serif" font-size="10.00">OwnerNoninline</text>
</a>
</g>
</g>
<!-- Node4&#45;&gt;Node5 -->
<g id="edge5_Node000004_Node000005" class="edge">
<title>Node4&#45;&gt;Node5</title>
<g id="a_edge5_Node000004_Node000005"><a xlink:title=" ">
<path fill="none" stroke="#63b8ff" d="M356.34,-10.09C364.28,-10 372.38,-9.98 380.4,-10.02"/>
<polygon fill="#63b8ff" stroke="#63b8ff" points="380.12,-13.52 390.15,-10.11 380.18,-6.52 380.12,-13.52"/>
</a>
</g>
</g>
<!-- Node5&#45;&gt;Node4 -->
<g id="edge7_Node000005_Node000004" class="edge">
<title>Node5&#45;&gt;Node4</title>
<g id="a_edge7_Node000005_Node000004"><a xlink:title=" ">
<path fill="none" stroke="#63b8ff" d="M391.66,-23.38C383.77,-23.48 375.68,-23.52 367.65,-23.49"/>
<polygon fill="#63b8ff" stroke="#63b8ff" points="367.88,-19.99 357.86,-23.42 367.83,-26.99 367.88,-19.99"/>
</a>
</g>
</g>
<!-- Node5&#45;&gt;Node5 -->
<g id="edge6_Node000005_Node000005" class="edge">
<title>Node5&#45;&gt;Node5</title>
<g id="a_edge6_Node000005_Node000005"><a xlink:title=" ">
<path fill="none" stroke="#63b8ff" d="M434.31,-33.91C428.41,-43.12 439.97,-51.5 469,-51.5 485.33,-51.5 496.13,-48.85 501.41,-44.89"/>
<polygon fill="#63b8ff" stroke="#63b8ff" points="504.77,-45.9 503.39,-35.4 497.92,-44.47 504.77,-45.9"/>
</a>
</g>
</g>
</g>
</svg>

<g id="navigator" transform="translate(0 0)" fill="#404254">
  <rect fill="#f2f5e9" fill-opacity="0.5" stroke="#606060" stroke-width=".5" x="0" y="0" width="60" height="60"/>
  <use id="zoomplus" xlink:href="#zoomPlus" x="17" y="9" onmousedown="handleZoom(evt,'in')"/>
  <use id="zoomminus" xlink:href="#zoomMin" x="42" y="9" onmousedown="handleZoom(evt,'out')"/>
  <use id="reset" xlink:href="#resetDef" x="30" y="36" onmousedown="handleReset()"/>
   <use id="arrowup" xlink:href="#arrowUp" x="0" y="0" onmousedown="handlePan(0,-1)"/>
  <use id="arrowright" xlink:href="#arrowRight" x="0" y="0" onmousedown="handlePan(1,0)"/>
  <use id="arrowdown" xlink:href="#arrowDown" x="0" y="0" onmousedown="handlePan(0,1)"/>
  <use id="arrowleft" xlink:href="#arrowLeft" x="0" y="0" onmousedown="handlePan(-1,0)"/>
</g>
<svg viewBox="0 0 15 15" width="100%" height="30px" preserveAspectRatio="xMaxYMin meet">
 <g id="arrow_out" transform="scale(0.3 0.3)">
  <a xlink:href="classUActorComponent_aa236a9b5dbc4b69af8484c0c623fa655_cgraph_org.svg" target="_base">
   <rect id="button" ry="5" rx="5" y="6" x="6" height="38" width="38"
        fill="#f2f5e9" fill-opacity="0.5" stroke="#606060" stroke-width="1.0"/>
   <path id="arrow"
     d="M 11.500037,31.436501 C 11.940474,20.09759 22.043105,11.32322 32.158766,21.979434 L 37.068811,17.246167 C 37.068811,17.246167 37.088388,32 37.088388,32 L 22.160133,31.978069 C 22.160133,31.978069 26.997745,27.140456 26.997745,27.140456 C 18.528582,18.264221 13.291696,25.230495 11.500037,31.436501 z"
     style="fill:#404040;"/>
  </a>
 </g>
</svg>

<style type='text/css'>
<![CDATA[
[data-mouse-over-selected='false'] { opacity: 0.7; }
[data-mouse-over-selected='true']  { opacity: 1.0; }
]]>
</style>
<script type="application/ecmascript"><![CDATA[
document.addEventListener('DOMContentLoaded', (event) => {
  highlightEdges();
  highlightAdjacentNodes();
});
]]></script>
</svg>
