<?xml version="1.0" encoding="UTF-8" standalone="no"?>
<!DOCTYPE svg PUBLIC "-//W3C//DTD SVG 1.1//EN"
 "http://www.w3.org/Graphics/SVG/1.1/DTD/svg11.dtd">
<!-- Generated by graphviz version 14.1.4 (0)
 -->
<!-- Title: USplineMeshComponent::CalcSliceTransformAtSplineOffset Pages: 1 -->
<svg width="336pt" height="112pt"
 viewBox="0.00 0.00 336.00 112.00" xmlns="http://www.w3.org/2000/svg" xmlns:xlink="http://www.w3.org/1999/xlink">
<g id="graph0" class="graph" transform="scale(1 1) rotate(0) translate(4 107.5)">
<title>USplineMeshComponent::CalcSliceTransformAtSplineOffset</title>
<!-- Node1 -->
<g id="Node000001" class="node">
<title>Node1</title>
<g id="a_Node000001"><a xlink:title=" ">
<polygon fill="#999999" stroke="#666666" points="156.25,-74.88 0,-74.88 0,-28.62 156.25,-28.62 156.25,-74.88"/>
<text xml:space="preserve" text-anchor="start" x="8" y="-61.38" font-family="Helvetica,sans-Serif" font-size="10.00">USplineMeshComponent</text>
<text xml:space="preserve" text-anchor="start" x="8" y="-48.62" font-family="Helvetica,sans-Serif" font-size="10.00">::CalcSliceTransformAtSpline</text>
<text xml:space="preserve" text-anchor="middle" x="78.12" y="-35.88" font-family="Helvetica,sans-Serif" font-size="10.00">Offset</text>
</a>
</g>
</g>
<!-- Node2 -->
<g id="Node000002" class="node">
<title>Node2</title>
<g id="a_Node000002"><a xlink:href="classUSplineMeshComponent.html#a37daad399b5e6a7b1e7bc326f255a0c9" target="_top" xlink:title=" ">
<polygon fill="white" stroke="#666666" points="328.25,-103.5 192.25,-103.5 192.25,-70 328.25,-70 328.25,-103.5"/>
<text xml:space="preserve" text-anchor="start" x="200.25" y="-90" font-family="Helvetica,sans-Serif" font-size="10.00">USplineMeshComponent</text>
<text xml:space="preserve" text-anchor="middle" x="260.25" y="-77.25" font-family="Helvetica,sans-Serif" font-size="10.00">::GetAxisMask</text>
</a>
</g>
</g>
<!-- Node1&#45;&gt;Node2 -->
<g id="edge1_Node000001_Node000002" class="edge">
<title>Node1&#45;&gt;Node2</title>
<g id="a_edge1_Node000001_Node000002"><a xlink:title=" ">
<path fill="none" stroke="#63b8ff" d="M156.56,-66.8C164.53,-68.35 172.64,-69.92 180.62,-71.47"/>
<polygon fill="#63b8ff" stroke="#63b8ff" points="179.83,-74.88 190.32,-73.36 181.17,-68.01 179.83,-74.88"/>
</a>
</g>
</g>
<!-- Node3 -->
<g id="Node000003" class="node">
<title>Node3</title>
<g id="a_Node000003"><a xlink:href="classUSplineMeshComponent.html#ad1befe4479ff6277b4a3e239bd6948fe" target="_top" xlink:title=" ">
<polygon fill="white" stroke="#666666" points="328.25,-33.5 192.25,-33.5 192.25,0 328.25,0 328.25,-33.5"/>
<text xml:space="preserve" text-anchor="start" x="200.25" y="-20" font-family="Helvetica,sans-Serif" font-size="10.00">USplineMeshComponent</text>
<text xml:space="preserve" text-anchor="middle" x="260.25" y="-7.25" font-family="Helvetica,sans-Serif" font-size="10.00">::GetAxisValueRef</text>
</a>
</g>
</g>
<!-- Node1&#45;&gt;Node3 -->
<g id="edge2_Node000001_Node000003" class="edge">
<title>Node1&#45;&gt;Node3</title>
<g id="a_edge2_Node000001_Node000003"><a xlink:title=" ">
<path fill="none" stroke="#63b8ff" d="M156.56,-36.7C164.53,-35.15 172.64,-33.58 180.62,-32.03"/>
<polygon fill="#63b8ff" stroke="#63b8ff" points="181.17,-35.49 190.32,-30.14 179.83,-28.62 181.17,-35.49"/>
</a>
</g>
</g>
<!-- Node3&#45;&gt;Node3 -->
<g id="edge3_Node000003_Node000003" class="edge">
<title>Node3&#45;&gt;Node3</title>
<g id="a_edge3_Node000003_Node000003"><a xlink:title=" ">
<path fill="none" stroke="#63b8ff" d="M227.51,-33.91C221.95,-43.12 232.86,-51.5 260.25,-51.5 275.66,-51.5 285.85,-48.85 290.83,-44.89"/>
<polygon fill="#63b8ff" stroke="#63b8ff" points="294.2,-45.89 292.7,-35.4 287.33,-44.54 294.2,-45.89"/>
</a>
</g>
</g>
</g>
</svg>
