<?xml version="1.0" encoding="UTF-8" standalone="no"?>
<!DOCTYPE svg PUBLIC "-//W3C//DTD SVG 1.1//EN"
 "http://www.w3.org/Graphics/SVG/1.1/DTD/svg11.dtd">
<!-- Generated by graphviz version 14.1.4 (0)
 -->
<!-- Title: TDeque::EmplaceLast Pages: 1 -->
<svg width="1248pt" height="168pt"
 viewBox="0.00 0.00 1248.00 168.00" xmlns="http://www.w3.org/2000/svg" xmlns:xlink="http://www.w3.org/1999/xlink">
<g id="graph0" class="graph" transform="scale(1 1) rotate(0) translate(4 164.12)">
<title>TDeque::EmplaceLast</title>
<!-- Node1 -->
<g id="Node000001" class="node">
<title>Node1</title>
<g id="a_Node000001"><a xlink:title=" ">
<polygon fill="#999999" stroke="#666666" points="121.75,-103.12 0,-103.12 0,-82.38 121.75,-82.38 121.75,-103.12"/>
<text xml:space="preserve" text-anchor="middle" x="60.88" y="-89.62" font-family="Helvetica,sans-Serif" font-size="10.00">TDeque::EmplaceLast</text>
</a>
</g>
</g>
<!-- Node2 -->
<g id="Node000002" class="node">
<title>Node2</title>
<g id="a_Node000002"><a xlink:href="$UnrealTemplate_8h.html#aea228b8b6d93b902d974d3bfa72f888f" xlink:title=" ">
<polygon fill="white" stroke="#666666" points="252.88,-160.12 197.88,-160.12 197.88,-139.38 252.88,-139.38 252.88,-160.12"/>
<text xml:space="preserve" text-anchor="middle" x="225.38" y="-146.62" font-family="Helvetica,sans-Serif" font-size="10.00">Forward</text>
</a>
</g>
</g>
<!-- Node1&#45;&gt;Node2 -->
<g id="edge1_Node000001_Node000002" class="edge">
<title>Node1&#45;&gt;Node2</title>
<g id="a_edge1_Node000001_Node000002"><a xlink:title=" ">
<path fill="none" stroke="#63b8ff" d="M92.82,-103.61C119.57,-112.99 158.3,-126.57 186.82,-136.58"/>
<polygon fill="#63b8ff" stroke="#63b8ff" points="185.56,-139.84 196.15,-139.85 187.88,-133.24 185.56,-139.84"/>
</a>
</g>
</g>
<!-- Node3 -->
<g id="Node000003" class="node">
<title>Node3</title>
<g id="a_Node000003"><a xlink:href="$classTDeque.html#a458ee9d2233fccb7fa0f45bb396bb7ad" xlink:title=" ">
<polygon fill="white" stroke="#666666" points="888.75,-84.12 788.75,-84.12 788.75,-63.38 888.75,-63.38 888.75,-84.12"/>
<text xml:space="preserve" text-anchor="middle" x="838.75" y="-70.62" font-family="Helvetica,sans-Serif" font-size="10.00">TDeque::GetData</text>
</a>
</g>
</g>
<!-- Node1&#45;&gt;Node3 -->
<g id="edge2_Node000001_Node000003" class="edge">
<title>Node1&#45;&gt;Node3</title>
<g id="a_edge2_Node000001_Node000003"><a xlink:title=" ">
<path fill="none" stroke="#63b8ff" d="M122.13,-98.66C184.29,-104.24 284.07,-111.75 370.5,-111.75 370.5,-111.75 370.5,-111.75 502.88,-111.75 599.25,-111.75 710.25,-96.02 777.15,-84.8"/>
<polygon fill="#63b8ff" stroke="#63b8ff" points="777.54,-88.28 786.81,-83.15 776.37,-81.38 777.54,-88.28"/>
</a>
</g>
</g>
<!-- Node4 -->
<g id="Node000004" class="node">
<title>Node4</title>
<g id="a_Node000004"><a xlink:href="$classTDeque.html#a52fb92a308bbb1a1773d99754cc90ec2" xlink:title=" ">
<polygon fill="white" stroke="#666666" points="293,-84.12 157.75,-84.12 157.75,-63.38 293,-63.38 293,-84.12"/>
<text xml:space="preserve" text-anchor="middle" x="225.38" y="-70.62" font-family="Helvetica,sans-Serif" font-size="10.00">TDeque::GrowIfRequired</text>
</a>
</g>
</g>
<!-- Node1&#45;&gt;Node4 -->
<g id="edge3_Node000001_Node000004" class="edge">
<title>Node1&#45;&gt;Node4</title>
<g id="a_edge3_Node000001_Node000004"><a xlink:title=" ">
<path fill="none" stroke="#63b8ff" d="M121.92,-85.73C129.79,-84.81 137.94,-83.86 146.05,-82.91"/>
<polygon fill="#63b8ff" stroke="#63b8ff" points="146.43,-86.39 155.96,-81.75 145.62,-79.43 146.43,-86.39"/>
</a>
</g>
</g>
<!-- Node11 -->
<g id="Node000011" class="node">
<title>Node11</title>
<g id="a_Node000011"><a xlink:href="$namespaceUE_1_1Deque_1_1Private.html#a674e87b3d7a99926b87f6d7cd08ac867" xlink:title=" ">
<polygon fill="white" stroke="#666666" points="279.12,-45.5 171.62,-45.5 171.62,-12 279.12,-12 279.12,-45.5"/>
<text xml:space="preserve" text-anchor="start" x="179.62" y="-32" font-family="Helvetica,sans-Serif" font-size="10.00">UE::Deque::Private</text>
<text xml:space="preserve" text-anchor="middle" x="225.38" y="-19.25" font-family="Helvetica,sans-Serif" font-size="10.00">::WrapAround</text>
</a>
</g>
</g>
<!-- Node1&#45;&gt;Node11 -->
<g id="edge13_Node000001_Node000011" class="edge">
<title>Node1&#45;&gt;Node11</title>
<g id="a_edge13_Node000001_Node000011"><a xlink:title=" ">
<path fill="none" stroke="#63b8ff" d="M89.14,-81.9C108.31,-74.28 134.59,-63.86 157.75,-54.75 161.62,-53.23 165.61,-51.66 169.64,-50.09"/>
<polygon fill="#63b8ff" stroke="#63b8ff" points="170.83,-53.37 178.87,-46.47 168.28,-46.86 170.83,-53.37"/>
</a>
</g>
</g>
<!-- Node5 -->
<g id="Node000005" class="node">
<title>Node5</title>
<g id="a_Node000005"><a xlink:href="$classTDeque.html#abf481b32f1b6a24f0f5e72e8558b2836" xlink:title=" ">
<polygon fill="white" stroke="#666666" points="414,-75.12 329,-75.12 329,-54.38 414,-54.38 414,-75.12"/>
<text xml:space="preserve" text-anchor="middle" x="371.5" y="-61.62" font-family="Helvetica,sans-Serif" font-size="10.00">TDeque::Grow</text>
</a>
</g>
</g>
<!-- Node4&#45;&gt;Node5 -->
<g id="edge4_Node000004_Node000005" class="edge">
<title>Node4&#45;&gt;Node5</title>
<g id="a_edge4_Node000004_Node000005"><a xlink:title=" ">
<path fill="none" stroke="#63b8ff" d="M293.37,-69.57C301.47,-69.06 309.66,-68.55 317.52,-68.06"/>
<polygon fill="#63b8ff" stroke="#63b8ff" points="317.48,-71.57 327.24,-67.45 317.04,-64.58 317.48,-71.57"/>
</a>
</g>
</g>
<!-- Node6 -->
<g id="Node000006" class="node">
<title>Node6</title>
<g id="a_Node000006"><a xlink:href="$classTDeque.html#a7dccdc8fc45c08eaf166d043a960b2de" xlink:title=" ">
<polygon fill="white" stroke="#666666" points="553.75,-65.12 450,-65.12 450,-44.38 553.75,-44.38 553.75,-65.12"/>
<text xml:space="preserve" text-anchor="middle" x="501.88" y="-51.62" font-family="Helvetica,sans-Serif" font-size="10.00">TDeque::Linearize</text>
</a>
</g>
</g>
<!-- Node5&#45;&gt;Node6 -->
<g id="edge5_Node000005_Node000006" class="edge">
<title>Node5&#45;&gt;Node6</title>
<g id="a_edge5_Node000005_Node000006"><a xlink:title=" ">
<path fill="none" stroke="#63b8ff" d="M414.18,-61.5C421.84,-60.91 430,-60.27 438.12,-59.64"/>
<polygon fill="#63b8ff" stroke="#63b8ff" points="438.32,-63.13 448.02,-58.87 437.78,-56.15 438.32,-63.13"/>
</a>
</g>
</g>
<!-- Node6&#45;&gt;Node3 -->
<g id="edge6_Node000006_Node000003" class="edge">
<title>Node6&#45;&gt;Node3</title>
<g id="a_edge6_Node000006_Node000003"><a xlink:title=" ">
<path fill="none" stroke="#63b8ff" d="M554.1,-57.66C614.04,-61.06 713.18,-66.68 776.96,-70.3"/>
<polygon fill="#63b8ff" stroke="#63b8ff" points="776.75,-73.79 786.93,-70.87 777.14,-66.81 776.75,-73.79"/>
</a>
</g>
</g>
<!-- Node7 -->
<g id="Node000007" class="node">
<title>Node7</title>
<g id="a_Node000007"><a xlink:href="$MemoryOps_8h.html#a812c18177306ca6c11d04b26d7b780a7" xlink:title=" ">
<polygon fill="white" stroke="#666666" points="905.25,-27.12 772.25,-27.12 772.25,-6.38 905.25,-6.38 905.25,-27.12"/>
<text xml:space="preserve" text-anchor="middle" x="838.75" y="-13.62" font-family="Helvetica,sans-Serif" font-size="10.00">RelocateConstructItems</text>
</a>
</g>
</g>
<!-- Node6&#45;&gt;Node7 -->
<g id="edge7_Node000006_Node000007" class="edge">
<title>Node6&#45;&gt;Node7</title>
<g id="a_edge7_Node000006_Node000007"><a xlink:title=" ">
<path fill="none" stroke="#63b8ff" d="M521.44,-43.93C538.54,-34.64 564.94,-21.94 589.75,-16.75 646.15,-4.95 711.35,-5.49 760.75,-8.69"/>
<polygon fill="#63b8ff" stroke="#63b8ff" points="760.26,-12.16 770.48,-9.38 760.75,-5.18 760.26,-12.16"/>
</a>
</g>
</g>
<!-- Node10 -->
<g id="Node000010" class="node">
<title>Node10</title>
<g id="a_Node000010"><a xlink:href="$classTDeque.html#a11074d2f7c0cc7ccfd2158fd68f3779f" xlink:title=" ">
<polygon fill="white" stroke="#666666" points="736.25,-46.12 589.75,-46.12 589.75,-25.38 736.25,-25.38 736.25,-46.12"/>
<text xml:space="preserve" text-anchor="middle" x="663" y="-32.62" font-family="Helvetica,sans-Serif" font-size="10.00">TDeque::ShiftElementsLeft</text>
</a>
</g>
</g>
<!-- Node6&#45;&gt;Node10 -->
<g id="edge10_Node000006_Node000010" class="edge">
<title>Node6&#45;&gt;Node10</title>
<g id="a_edge10_Node000006_Node000010"><a xlink:title=" ">
<path fill="none" stroke="#63b8ff" d="M554.1,-48.63C561.84,-47.71 570,-46.73 578.22,-45.75"/>
<polygon fill="#63b8ff" stroke="#63b8ff" points="578.41,-49.26 587.93,-44.59 577.58,-42.3 578.41,-49.26"/>
</a>
</g>
</g>
<!-- Node8 -->
<g id="Node000008" class="node">
<title>Node8</title>
<g id="a_Node000008"><a xlink:href="$structFMemory.html#a153a731cbc9f2dd08fc908289817ae9f" xlink:title=" ">
<polygon fill="white" stroke="#666666" points="1061.5,-27.12 941.25,-27.12 941.25,-6.38 1061.5,-6.38 1061.5,-27.12"/>
<text xml:space="preserve" text-anchor="middle" x="1001.38" y="-13.62" font-family="Helvetica,sans-Serif" font-size="10.00">FMemory::Memmove</text>
</a>
</g>
</g>
<!-- Node7&#45;&gt;Node8 -->
<g id="edge8_Node000007_Node000008" class="edge">
<title>Node7&#45;&gt;Node8</title>
<g id="a_edge8_Node000007_Node000008"><a xlink:title=" ">
<path fill="none" stroke="#63b8ff" d="M905.55,-16.75C913.4,-16.75 921.45,-16.75 929.38,-16.75"/>
<polygon fill="#63b8ff" stroke="#63b8ff" points="929.36,-20.25 939.36,-16.75 929.36,-13.25 929.36,-20.25"/>
</a>
</g>
</g>
<!-- Node9 -->
<g id="Node000009" class="node">
<title>Node9</title>
<g id="a_Node000009"><a xlink:href="$structFGenericPlatformMemory.html#a5a98b486820d320cd8e8e378b647e1d1" xlink:title=" ">
<polygon fill="white" stroke="#666666" points="1239.5,-33.5 1097.5,-33.5 1097.5,0 1239.5,0 1239.5,-33.5"/>
<text xml:space="preserve" text-anchor="start" x="1105.5" y="-20" font-family="Helvetica,sans-Serif" font-size="10.00">FGenericPlatformMemory</text>
<text xml:space="preserve" text-anchor="middle" x="1168.5" y="-7.25" font-family="Helvetica,sans-Serif" font-size="10.00">::Memmove</text>
</a>
</g>
</g>
<!-- Node8&#45;&gt;Node9 -->
<g id="edge9_Node000008_Node000009" class="edge">
<title>Node8&#45;&gt;Node9</title>
<g id="a_edge9_Node000008_Node000009"><a xlink:title=" ">
<path fill="none" stroke="#63b8ff" d="M1061.99,-16.75C1069.71,-16.75 1077.73,-16.75 1085.73,-16.75"/>
<polygon fill="#63b8ff" stroke="#63b8ff" points="1085.49,-20.25 1095.49,-16.75 1085.49,-13.25 1085.49,-20.25"/>
</a>
</g>
</g>
<!-- Node10&#45;&gt;Node3 -->
<g id="edge11_Node000010_Node000003" class="edge">
<title>Node10&#45;&gt;Node3</title>
<g id="a_edge11_Node000010_Node000003"><a xlink:title=" ">
<path fill="none" stroke="#63b8ff" d="M713.33,-46.54C733.23,-50.89 756.38,-55.95 777.28,-60.53"/>
<polygon fill="#63b8ff" stroke="#63b8ff" points="776.31,-63.89 786.82,-62.61 777.8,-57.06 776.31,-63.89"/>
</a>
</g>
</g>
<!-- Node10&#45;&gt;Node7 -->
<g id="edge12_Node000010_Node000007" class="edge">
<title>Node10&#45;&gt;Node7</title>
<g id="a_edge12_Node000010_Node000007"><a xlink:title=" ">
<path fill="none" stroke="#63b8ff" d="M736.68,-27.8C744.64,-26.93 752.77,-26.04 760.78,-25.17"/>
<polygon fill="#63b8ff" stroke="#63b8ff" points="760.94,-28.67 770.5,-24.1 760.18,-21.71 760.94,-28.67"/>
</a>
</g>
</g>
</g>
</svg>
