<?xml version="1.0" encoding="UTF-8" standalone="no"?>
<!DOCTYPE svg PUBLIC "-//W3C//DTD SVG 1.1//EN"
 "http://www.w3.org/Graphics/SVG/1.1/DTD/svg11.dtd">
<!-- Generated by graphviz version 14.1.4 (0)
 -->
<!-- Title: FAsyncGraphTaskBase Pages: 1 -->
<svg width="178pt" height="253pt"
 viewBox="0.00 0.00 178.00 253.00" xmlns="http://www.w3.org/2000/svg" xmlns:xlink="http://www.w3.org/1999/xlink">
<g id="graph0" class="graph" transform="scale(1 1) rotate(0) translate(4 249)">
<title>FAsyncGraphTaskBase</title>
<!-- Node1 -->
<g id="Node000001" class="node">
<title>Node1</title>
<g id="a_Node000001"><a xlink:title=" ">
<polygon fill="#999999" stroke="none" points="152.12,-245 17.88,-245 17.88,-174 152.12,-174 152.12,-245"/>
<text xml:space="preserve" text-anchor="start" x="30.25" y="-231.25" font-family="Helvetica,sans-Serif" font-size="10.00">FAsyncGraphTaskBase</text>
<text xml:space="preserve" text-anchor="start" x="82" y="-214.5" font-family="Helvetica,sans-Serif" font-size="10.00"> </text>
<text xml:space="preserve" text-anchor="start" x="21.88" y="-197.75" font-family="Helvetica,sans-Serif" font-size="10.00">+</text>
<text xml:space="preserve" text-anchor="start" x="34.12" y="-197.75" font-family="Helvetica,sans-Serif" font-size="10.00">GetStatId()</text>
<text xml:space="preserve" text-anchor="start" x="21.88" y="-181" font-family="Helvetica,sans-Serif" font-size="10.00">+</text>
<text xml:space="preserve" text-anchor="start" x="34.12" y="-181" font-family="Helvetica,sans-Serif" font-size="10.00">GetSubsequentsMode()</text>
<polygon fill="#666666" stroke="#666666" points="17.88,-226.25 17.88,-226.25 152.12,-226.25 152.12,-226.25 17.88,-226.25"/>
<polygon fill="#666666" stroke="#666666" points="17.88,-209.5 17.88,-209.5 152.12,-209.5 152.12,-209.5 17.88,-209.5"/>
<polygon fill="none" stroke="#666666" points="17.88,-174 17.88,-245 152.12,-245 152.12,-174 17.88,-174"/>
</a>
</g>
</g>
<!-- Node2 -->
<g id="Node000002" class="node">
<title>Node2</title>
<g id="a_Node000002"><a xlink:href="$classTAsyncGraphTask.html" xlink:title=" ">
<polygon fill="white" stroke="none" points="170,-138 0,-138 0,0 170,0 170,-138"/>
<text xml:space="preserve" text-anchor="start" x="4" y="-124.25" font-family="Helvetica,sans-Serif" font-size="10.00">TAsyncGraphTask&lt; ResultType &gt;</text>
<text xml:space="preserve" text-anchor="start" x="19.69" y="-107.5" font-family="Helvetica,sans-Serif" font-size="10.00">&#45;</text>
<text xml:space="preserve" text-anchor="start" x="43.12" y="-107.5" font-family="Helvetica,sans-Serif" font-size="10.00">Function</text>
<text xml:space="preserve" text-anchor="start" x="19.69" y="-90.75" font-family="Helvetica,sans-Serif" font-size="10.00">&#45;</text>
<text xml:space="preserve" text-anchor="start" x="43.12" y="-90.75" font-family="Helvetica,sans-Serif" font-size="10.00">Promise</text>
<text xml:space="preserve" text-anchor="start" x="19.69" y="-74" font-family="Helvetica,sans-Serif" font-size="10.00">&#45;</text>
<text xml:space="preserve" text-anchor="start" x="43.12" y="-74" font-family="Helvetica,sans-Serif" font-size="10.00">DesiredThread</text>
<text xml:space="preserve" text-anchor="start" x="17.44" y="-57.25" font-family="Helvetica,sans-Serif" font-size="10.00">+</text>
<text xml:space="preserve" text-anchor="start" x="43.12" y="-57.25" font-family="Helvetica,sans-Serif" font-size="10.00">TAsyncGraphTask()</text>
<text xml:space="preserve" text-anchor="start" x="17.44" y="-40.5" font-family="Helvetica,sans-Serif" font-size="10.00">+</text>
<text xml:space="preserve" text-anchor="start" x="43.12" y="-40.5" font-family="Helvetica,sans-Serif" font-size="10.00">DoTask()</text>
<text xml:space="preserve" text-anchor="start" x="17.44" y="-23.75" font-family="Helvetica,sans-Serif" font-size="10.00">+</text>
<text xml:space="preserve" text-anchor="start" x="43.12" y="-23.75" font-family="Helvetica,sans-Serif" font-size="10.00">GetDesiredThread()</text>
<text xml:space="preserve" text-anchor="start" x="17.44" y="-7" font-family="Helvetica,sans-Serif" font-size="10.00">+</text>
<text xml:space="preserve" text-anchor="start" x="43.12" y="-7" font-family="Helvetica,sans-Serif" font-size="10.00">GetFuture()</text>
<polygon fill="#666666" stroke="#666666" points="0,-119.25 0,-119.25 170,-119.25 170,-119.25 0,-119.25"/>
<polygon fill="#666666" stroke="#666666" points="0,-69 0,-69 41.12,-69 41.12,-69 0,-69"/>
<polygon fill="#666666" stroke="#666666" points="41.12,-69 41.12,-69 170,-69 170,-69 41.12,-69"/>
<polygon fill="none" stroke="#666666" points="0,0 0,-138 170,-138 170,0 0,0"/>
</a>
</g>
</g>
<!-- Node1&#45;&gt;Node2 -->
<g id="edge1_Node000001_Node000002" class="edge">
<title>Node1&#45;&gt;Node2</title>
<g id="a_edge1_Node000001_Node000002"><a xlink:title=" ">
<path fill="none" stroke="#63b8ff" d="M85,-162.92C85,-154.9 85,-146.4 85,-137.93"/>
<polygon fill="none" stroke="#63b8ff" points="81.5,-162.75 85,-172.75 88.5,-162.75 81.5,-162.75"/>
</a>
</g>
</g>
</g>
</svg>
