<?xml version="1.0" encoding="UTF-8" standalone="no"?>
<!DOCTYPE svg PUBLIC "-//W3C//DTD SVG 1.1//EN"
 "http://www.w3.org/Graphics/SVG/1.1/DTD/svg11.dtd">
<!-- Generated by graphviz version 14.1.4 (0)
 -->
<!-- Title: TMulticastScriptDelegate::ProcessMulticastDelegate Pages: 1 -->
<svg width="338pt" height="94pt"
 viewBox="0.00 0.00 338.00 94.00" xmlns="http://www.w3.org/2000/svg" xmlns:xlink="http://www.w3.org/1999/xlink">
<g id="graph0" class="graph" transform="scale(1 1) rotate(0) translate(4 89.5)">
<title>TMulticastScriptDelegate::ProcessMulticastDelegate</title>
<!-- Node1 -->
<g id="Node000001" class="node">
<title>Node1</title>
<g id="a_Node000001"><a xlink:title=" ">
<polygon fill="#999999" stroke="#666666" points="148.75,-59.5 0,-59.5 0,-26 148.75,-26 148.75,-59.5"/>
<text xml:space="preserve" text-anchor="start" x="8" y="-46" font-family="Helvetica,sans-Serif" font-size="10.00">TMulticastScriptDelegate</text>
<text xml:space="preserve" text-anchor="middle" x="74.38" y="-33.25" font-family="Helvetica,sans-Serif" font-size="10.00">::ProcessMulticastDelegate</text>
</a>
</g>
</g>
<!-- Node2 -->
<g id="Node000002" class="node">
<title>Node2</title>
<g id="a_Node000002"><a xlink:href="$classTMulticastScriptDelegate.html#af0b88ac698a85f08cda71c854a9a29e5" xlink:title=" ">
<polygon fill="white" stroke="#666666" points="326.75,-85.5 187.75,-85.5 187.75,-52 326.75,-52 326.75,-85.5"/>
<text xml:space="preserve" text-anchor="start" x="195.75" y="-72" font-family="Helvetica,sans-Serif" font-size="10.00">TMulticastScriptDelegate</text>
<text xml:space="preserve" text-anchor="middle" x="257.25" y="-59.25" font-family="Helvetica,sans-Serif" font-size="10.00">::CompactInvocationList</text>
</a>
</g>
</g>
<!-- Node1&#45;&gt;Node2 -->
<g id="edge1_Node000001_Node000002" class="edge">
<title>Node1&#45;&gt;Node2</title>
<g id="a_edge1_Node000001_Node000002"><a xlink:title=" ">
<path fill="none" stroke="#63b8ff" d="M149.2,-53.36C158.06,-54.64 167.15,-55.94 176.09,-57.23"/>
<polygon fill="#63b8ff" stroke="#63b8ff" points="175.43,-60.67 185.82,-58.63 176.42,-53.74 175.43,-60.67"/>
</a>
</g>
</g>
<!-- Node3 -->
<g id="Node000003" class="node">
<title>Node3</title>
<g id="a_Node000003"><a xlink:href="$classTMulticastScriptDelegate.html#a65eca979635785c1af3fbd8e416f76b4" xlink:title=" ">
<polygon fill="white" stroke="#666666" points="329.75,-33.5 184.75,-33.5 184.75,0 329.75,0 329.75,-33.5"/>
<text xml:space="preserve" text-anchor="start" x="192.75" y="-20" font-family="Helvetica,sans-Serif" font-size="10.00">TMulticastScriptDelegate</text>
<text xml:space="preserve" text-anchor="middle" x="257.25" y="-7.25" font-family="Helvetica,sans-Serif" font-size="10.00">::TMulticastScriptDelegate</text>
</a>
</g>
</g>
<!-- Node1&#45;&gt;Node3 -->
<g id="edge2_Node000001_Node000003" class="edge">
<title>Node1&#45;&gt;Node3</title>
<g id="a_edge2_Node000001_Node000003"><a xlink:title=" ">
<path fill="none" stroke="#63b8ff" d="M149.2,-32.14C157.11,-31 165.18,-29.84 173.18,-28.69"/>
<polygon fill="#63b8ff" stroke="#63b8ff" points="173.51,-32.18 182.91,-27.29 172.52,-25.25 173.51,-32.18"/>
</a>
</g>
</g>
</g>
</svg>
