<?xml version="1.0" encoding="UTF-8" standalone="no"?>
<!DOCTYPE svg PUBLIC "-//W3C//DTD SVG 1.1//EN"
 "http://www.w3.org/Graphics/SVG/1.1/DTD/svg11.dtd">
<!-- Generated by graphviz version 14.1.4 (0)
 -->
<!-- Title: FSoundEffectBase::GetPreset Pages: 1 -->
<svg width="351pt" height="60pt"
 viewBox="0.00 0.00 351.00 60.00" xmlns="http://www.w3.org/2000/svg" xmlns:xlink="http://www.w3.org/1999/xlink">
<g id="graph0" class="graph" transform="scale(1 1) rotate(0) translate(4 55.5)">
<title>FSoundEffectBase::GetPreset</title>
<!-- Node1 -->
<g id="Node000001" class="node">
<title>Node1</title>
<g id="a_Node000001"><a xlink:title=" ">
<polygon fill="#999999" stroke="#666666" points="158.5,-27.12 0,-27.12 0,-6.38 158.5,-6.38 158.5,-27.12"/>
<text xml:space="preserve" text-anchor="middle" x="79.25" y="-13.62" font-family="Helvetica,sans-Serif" font-size="10.00">FSoundEffectBase::GetPreset</text>
</a>
</g>
</g>
<!-- Node2 -->
<g id="Node000002" class="node">
<title>Node2</title>
<g id="a_Node000002"><a xlink:href="classFSoundEffectBase.html#a5670321e46cec2fb7cbf724bf7712e5d" target="_top" xlink:title=" ">
<polygon fill="white" stroke="#666666" points="342.5,-33.5 194.5,-33.5 194.5,0 342.5,0 342.5,-33.5"/>
<text xml:space="preserve" text-anchor="start" x="202.5" y="-20" font-family="Helvetica,sans-Serif" font-size="10.00">FSoundEffectBase::USound</text>
<text xml:space="preserve" text-anchor="middle" x="268.5" y="-7.25" font-family="Helvetica,sans-Serif" font-size="10.00">EffectPreset</text>
</a>
</g>
</g>
<!-- Node1&#45;&gt;Node2 -->
<g id="edge1_Node000001_Node000002" class="edge">
<title>Node1&#45;&gt;Node2</title>
<g id="a_edge1_Node000001_Node000002"><a xlink:title=" ">
<path fill="none" stroke="#63b8ff" d="M158.85,-16.75C166.81,-16.75 174.91,-16.75 182.93,-16.75"/>
<polygon fill="#63b8ff" stroke="#63b8ff" points="182.67,-20.25 192.67,-16.75 182.67,-13.25 182.67,-20.25"/>
</a>
</g>
</g>
<!-- Node2&#45;&gt;Node2 -->
<g id="edge2_Node000002_Node000002" class="edge">
<title>Node2&#45;&gt;Node2</title>
<g id="a_edge2_Node000002_Node000002"><a xlink:title=" ">
<path fill="none" stroke="#63b8ff" d="M234.48,-33.91C228.7,-43.12 240.04,-51.5 268.5,-51.5 284.51,-51.5 295.1,-48.85 300.28,-44.89"/>
<polygon fill="#63b8ff" stroke="#63b8ff" points="303.64,-45.9 302.22,-35.4 296.79,-44.49 303.64,-45.9"/>
</a>
</g>
</g>
</g>
</svg>
