<?xml version="1.0" encoding="UTF-8" standalone="no"?>
<!DOCTYPE svg PUBLIC "-//W3C//DTD SVG 1.1//EN"
 "http://www.w3.org/Graphics/SVG/1.1/DTD/svg11.dtd">
<!-- Generated by graphviz version 14.1.4 (0)
 -->
<!-- Title: TMemoryView::Equals Pages: 1 -->
<svg width="293pt" height="94pt"
 viewBox="0.00 0.00 293.00 94.00" xmlns="http://www.w3.org/2000/svg" xmlns:xlink="http://www.w3.org/1999/xlink">
<g id="graph0" class="graph" transform="scale(1 1) rotate(0) translate(4 89.5)">
<title>TMemoryView::Equals</title>
<!-- Node1 -->
<g id="Node000001" class="node">
<title>Node1</title>
<g id="a_Node000001"><a xlink:title=" ">
<polygon fill="#999999" stroke="#666666" points="284.75,-53.12 160,-53.12 160,-32.38 284.75,-32.38 284.75,-53.12"/>
<text xml:space="preserve" text-anchor="middle" x="222.38" y="-39.62" font-family="Helvetica,sans-Serif" font-size="10.00">TMemoryView::Equals</text>
</a>
</g>
</g>
<!-- Node2 -->
<g id="Node000002" class="node">
<title>Node2</title>
<g id="a_Node000002"><a xlink:href="$classTMemoryView.html#af944868b791bd0ef07a42ee506977260" xlink:title=" ">
<polygon fill="white" stroke="#666666" points="124,-85.5 0,-85.5 0,-52 124,-52 124,-85.5"/>
<text xml:space="preserve" text-anchor="start" x="8" y="-72" font-family="Helvetica,sans-Serif" font-size="10.00">TMemoryView&lt; const</text>
<text xml:space="preserve" text-anchor="middle" x="62" y="-59.25" font-family="Helvetica,sans-Serif" font-size="10.00"> void &gt;::operator!=</text>
</a>
</g>
</g>
<!-- Node1&#45;&gt;Node2 -->
<g id="edge1_Node000001_Node000002" class="edge">
<title>Node1&#45;&gt;Node2</title>
<g id="a_edge1_Node000001_Node000002"><a xlink:title=" ">
<path fill="none" stroke="#63b8ff" d="M148.38,-54.73C140.31,-56.06 132.16,-57.4 124.26,-58.69"/>
<polygon fill="#63b8ff" stroke="#63b8ff" points="148.9,-58.2 158.2,-53.12 147.76,-51.29 148.9,-58.2"/>
</a>
</g>
</g>
<!-- Node3 -->
<g id="Node000003" class="node">
<title>Node3</title>
<g id="a_Node000003"><a xlink:href="$classTMemoryView.html#ab071bca6617f8b56345cffa64d4588e9" xlink:title=" ">
<polygon fill="white" stroke="#666666" points="124,-33.5 0,-33.5 0,0 124,0 124,-33.5"/>
<text xml:space="preserve" text-anchor="start" x="8" y="-20" font-family="Helvetica,sans-Serif" font-size="10.00">TMemoryView&lt; const</text>
<text xml:space="preserve" text-anchor="middle" x="62" y="-7.25" font-family="Helvetica,sans-Serif" font-size="10.00"> void &gt;::operator==</text>
</a>
</g>
</g>
<!-- Node1&#45;&gt;Node3 -->
<g id="edge2_Node000001_Node000003" class="edge">
<title>Node1&#45;&gt;Node3</title>
<g id="a_edge2_Node000001_Node000003"><a xlink:title=" ">
<path fill="none" stroke="#63b8ff" d="M148.38,-30.77C140.31,-29.44 132.16,-28.1 124.26,-26.81"/>
<polygon fill="#63b8ff" stroke="#63b8ff" points="147.76,-34.21 158.2,-32.38 148.9,-27.3 147.76,-34.21"/>
</a>
</g>
</g>
</g>
</svg>
