<?xml version="1.0" encoding="UTF-8" standalone="no"?>
<!DOCTYPE svg PUBLIC "-//W3C//DTD SVG 1.1//EN"
 "http://www.w3.org/Graphics/SVG/1.1/DTD/svg11.dtd">
<!-- Generated by graphviz version 14.1.4 (0)
 -->
<!-- Title: TPatchedPtrBase::Get Pages: 1 -->
<svg width="285pt" height="94pt"
 viewBox="0.00 0.00 285.00 94.00" xmlns="http://www.w3.org/2000/svg" xmlns:xlink="http://www.w3.org/1999/xlink">
<g id="graph0" class="graph" transform="scale(1 1) rotate(0) translate(4 89.5)">
<title>TPatchedPtrBase::Get</title>
<!-- Node1 -->
<g id="Node000001" class="node">
<title>Node1</title>
<g id="a_Node000001"><a xlink:title=" ">
<polygon fill="#999999" stroke="#666666" points="276.5,-53.12 154.75,-53.12 154.75,-32.38 276.5,-32.38 276.5,-53.12"/>
<text xml:space="preserve" text-anchor="middle" x="215.62" y="-39.62" font-family="Helvetica,sans-Serif" font-size="10.00">TPatchedPtrBase::Get</text>
</a>
</g>
</g>
<!-- Node2 -->
<g id="Node000002" class="node">
<title>Node2</title>
<g id="a_Node000002"><a xlink:href="$classTPatchedPtrBase.html#adaab1e8311e419cbbc08a75036066b7b" xlink:title=" ">
<polygon fill="white" stroke="#666666" points="118.75,-85.5 0,-85.5 0,-52 118.75,-52 118.75,-85.5"/>
<text xml:space="preserve" text-anchor="start" x="8" y="-72" font-family="Helvetica,sans-Serif" font-size="10.00">TPatchedPtrBase&lt; T,</text>
<text xml:space="preserve" text-anchor="middle" x="59.38" y="-59.25" font-family="Helvetica,sans-Serif" font-size="10.00"> T * &gt;::GetChecked</text>
</a>
</g>
</g>
<!-- Node1&#45;&gt;Node2 -->
<g id="edge1_Node000001_Node000002" class="edge">
<title>Node1&#45;&gt;Node2</title>
<g id="a_edge1_Node000001_Node000002"><a xlink:title=" ">
<path fill="none" stroke="#63b8ff" d="M143.2,-54.79C135.1,-56.15 126.93,-57.53 119.02,-58.86"/>
<polygon fill="#63b8ff" stroke="#63b8ff" points="143.77,-58.24 153.05,-53.13 142.61,-51.34 143.77,-58.24"/>
</a>
</g>
</g>
<!-- Node3 -->
<g id="Node000003" class="node">
<title>Node3</title>
<g id="a_Node000003"><a xlink:href="$classTPatchedPtrBase.html#a02009195cf76075521de31428a9cf4f0" xlink:title=" ">
<polygon fill="white" stroke="#666666" points="118.75,-33.5 0,-33.5 0,0 118.75,0 118.75,-33.5"/>
<text xml:space="preserve" text-anchor="start" x="8" y="-20" font-family="Helvetica,sans-Serif" font-size="10.00">TPatchedPtrBase&lt; T,</text>
<text xml:space="preserve" text-anchor="middle" x="59.38" y="-7.25" font-family="Helvetica,sans-Serif" font-size="10.00"> T * &gt;::operator T*</text>
</a>
</g>
</g>
<!-- Node1&#45;&gt;Node3 -->
<g id="edge2_Node000001_Node000003" class="edge">
<title>Node1&#45;&gt;Node3</title>
<g id="a_edge2_Node000001_Node000003"><a xlink:title=" ">
<path fill="none" stroke="#63b8ff" d="M143.2,-30.71C135.1,-29.35 126.93,-27.97 119.02,-26.64"/>
<polygon fill="#63b8ff" stroke="#63b8ff" points="142.61,-34.16 153.05,-32.37 143.77,-27.26 142.61,-34.16"/>
</a>
</g>
</g>
</g>
</svg>
