<?xml version="1.0" encoding="UTF-8" standalone="no"?>
<!DOCTYPE svg PUBLIC "-//W3C//DTD SVG 1.1//EN"
 "http://www.w3.org/Graphics/SVG/1.1/DTD/svg11.dtd">
<!-- Generated by graphviz version 14.1.4 (0)
 -->
<!-- Title: FFloat16::FFloat16 Pages: 1 -->
<svg width="341pt" height="236pt"
 viewBox="0.00 0.00 341.00 236.00" xmlns="http://www.w3.org/2000/svg" xmlns:xlink="http://www.w3.org/1999/xlink">
<g id="graph0" class="graph" transform="scale(1 1) rotate(0) translate(4 231.75)">
<title>FFloat16::FFloat16</title>
<!-- Node1 -->
<g id="Node000001" class="node">
<title>Node1</title>
<g id="a_Node000001"><a xlink:title=" ">
<polygon fill="#999999" stroke="#666666" points="332.75,-120.75 225.25,-120.75 225.25,-100 332.75,-100 332.75,-120.75"/>
<text xml:space="preserve" text-anchor="middle" x="279" y="-107.25" font-family="Helvetica,sans-Serif" font-size="10.00">FFloat16::FFloat16</text>
</a>
</g>
</g>
<!-- Node2 -->
<g id="Node000002" class="node">
<title>Node2</title>
<g id="a_Node000002"><a xlink:href="$classFFloat16.html#a3fce88bcddc0845cdc46fa273e313c6f" xlink:title=" ">
<polygon fill="white" stroke="#666666" points="148.38,-227.75 40.88,-227.75 40.88,-207 148.38,-207 148.38,-227.75"/>
<text xml:space="preserve" text-anchor="middle" x="94.62" y="-214.25" font-family="Helvetica,sans-Serif" font-size="10.00">FFloat16::FFloat16</text>
</a>
</g>
</g>
<!-- Node1&#45;&gt;Node2 -->
<g id="edge1_Node000001_Node000002" class="edge">
<title>Node1&#45;&gt;Node2</title>
<g id="a_edge1_Node000001_Node000002"><a xlink:title=" ">
<path fill="none" stroke="#63b8ff" d="M263.47,-130.1C247.55,-150.23 220.12,-180.79 189.25,-197.38 176.8,-204.06 162.3,-208.51 148.48,-211.47"/>
<polygon fill="#63b8ff" stroke="#63b8ff" points="266.09,-132.43 269.41,-122.37 260.54,-128.17 266.09,-132.43"/>
</a>
</g>
</g>
<!-- Node3 -->
<g id="Node000003" class="node">
<title>Node3</title>
<g id="a_Node000003"><a xlink:href="$classFFloat16.html#a8db6676521508ef663ac53746594e807" xlink:title=" ">
<polygon fill="white" stroke="#666666" points="170.5,-188.75 18.75,-188.75 18.75,-168 170.5,-168 170.5,-188.75"/>
<text xml:space="preserve" text-anchor="middle" x="94.62" y="-175.25" font-family="Helvetica,sans-Serif" font-size="10.00">FFloat16::GetClampedFinite</text>
</a>
</g>
</g>
<!-- Node1&#45;&gt;Node3 -->
<g id="edge2_Node000001_Node000003" class="edge">
<title>Node1&#45;&gt;Node3</title>
<g id="a_edge2_Node000001_Node000003"><a xlink:title=" ">
<path fill="none" stroke="#63b8ff" d="M252.69,-127.08C235.45,-137.75 211.76,-151.1 189.25,-159.38 180.61,-162.55 171.32,-165.24 162.06,-167.51"/>
<polygon fill="#63b8ff" stroke="#63b8ff" points="254.18,-130.27 260.75,-121.97 250.43,-124.36 254.18,-130.27"/>
</a>
</g>
</g>
<!-- Node4 -->
<g id="Node000004" class="node">
<title>Node4</title>
<g id="a_Node000004"><a xlink:href="$classFFloat16.html#a45cea8e2c152e5de2b9f2fd7575b6d99" xlink:title=" ">
<polygon fill="white" stroke="#666666" points="189.25,-150.12 0,-150.12 0,-116.62 189.25,-116.62 189.25,-150.12"/>
<text xml:space="preserve" text-anchor="start" x="8" y="-136.62" font-family="Helvetica,sans-Serif" font-size="10.00">FFloat16::GetClampedNonNegative</text>
<text xml:space="preserve" text-anchor="middle" x="94.62" y="-123.88" font-family="Helvetica,sans-Serif" font-size="10.00">AndFinite</text>
</a>
</g>
</g>
<!-- Node1&#45;&gt;Node4 -->
<g id="edge3_Node000001_Node000004" class="edge">
<title>Node1&#45;&gt;Node4</title>
<g id="a_edge3_Node000001_Node000004"><a xlink:title=" ">
<path fill="none" stroke="#63b8ff" d="M213.52,-118.51C205.69,-119.49 197.57,-120.52 189.42,-121.55"/>
<polygon fill="#63b8ff" stroke="#63b8ff" points="213.77,-122 223.26,-117.28 212.9,-115.06 213.77,-122"/>
</a>
</g>
</g>
<!-- Node5 -->
<g id="Node000005" class="node">
<title>Node5</title>
<g id="a_Node000005"><a xlink:href="$classFFloat16.html#ac8a3f0f21716e880a6aa6c27185fb0f6" xlink:title=" ">
<polygon fill="white" stroke="#666666" points="155.88,-98.75 33.38,-98.75 33.38,-78 155.88,-78 155.88,-98.75"/>
<text xml:space="preserve" text-anchor="middle" x="94.62" y="-85.25" font-family="Helvetica,sans-Serif" font-size="10.00">FFloat16::operator&lt;&lt;</text>
</a>
</g>
</g>
<!-- Node1&#45;&gt;Node5 -->
<g id="edge4_Node000001_Node000005" class="edge">
<title>Node1&#45;&gt;Node5</title>
<g id="a_edge4_Node000001_Node000005"><a xlink:title=" ">
<path fill="none" stroke="#63b8ff" d="M213.43,-102.59C194.85,-100.34 174.65,-97.91 156.31,-95.7"/>
<polygon fill="#63b8ff" stroke="#63b8ff" points="212.91,-106.05 223.26,-103.77 213.75,-99.1 212.91,-106.05"/>
</a>
</g>
</g>
<!-- Node6 -->
<g id="Node000006" class="node">
<title>Node6</title>
<g id="a_Node000006"><a xlink:href="$classFFloat16.html#aeeba1b61cd22d68b1615cd16c6f85da8" xlink:title=" ">
<polygon fill="white" stroke="#666666" points="151.75,-59.75 37.5,-59.75 37.5,-39 151.75,-39 151.75,-59.75"/>
<text xml:space="preserve" text-anchor="middle" x="94.62" y="-46.25" font-family="Helvetica,sans-Serif" font-size="10.00">FFloat16::operator=</text>
</a>
</g>
</g>
<!-- Node1&#45;&gt;Node6 -->
<g id="edge5_Node000001_Node000006" class="edge">
<title>Node1&#45;&gt;Node6</title>
<g id="a_edge5_Node000001_Node000006"><a xlink:title=" ">
<path fill="none" stroke="#63b8ff" d="M248.23,-94.6C231.31,-86.15 209.52,-76.13 189.25,-69.38 177.42,-65.43 164.49,-62.09 152.11,-59.32"/>
<polygon fill="#63b8ff" stroke="#63b8ff" points="246.23,-97.51 256.73,-98.92 249.4,-91.27 246.23,-97.51"/>
</a>
</g>
</g>
<!-- Node7 -->
<g id="Node000007" class="node">
<title>Node7</title>
<g id="a_Node000007"><a xlink:href="$classFFloat16.html#ac2cfaad6a5ea1f963cedb7d1fbcfd96e" xlink:title=" ">
<polygon fill="white" stroke="#666666" points="151.75,-20.75 37.5,-20.75 37.5,0 151.75,0 151.75,-20.75"/>
<text xml:space="preserve" text-anchor="middle" x="94.62" y="-7.25" font-family="Helvetica,sans-Serif" font-size="10.00">FFloat16::operator=</text>
</a>
</g>
</g>
<!-- Node1&#45;&gt;Node7 -->
<g id="edge6_Node000001_Node000007" class="edge">
<title>Node1&#45;&gt;Node7</title>
<g id="a_edge6_Node000001_Node000007"><a xlink:title=" ">
<path fill="none" stroke="#63b8ff" d="M262.12,-91.12C245.79,-72.64 218.65,-45.38 189.25,-30.38 177.85,-24.56 164.84,-20.43 152.22,-17.5"/>
<polygon fill="#63b8ff" stroke="#63b8ff" points="259.27,-93.18 268.44,-98.49 264.58,-88.62 259.27,-93.18"/>
</a>
</g>
</g>
</g>
</svg>
