<?xml version="1.0" encoding="UTF-8" standalone="no"?>
<!DOCTYPE svg PUBLIC "-//W3C//DTD SVG 1.1//EN"
 "http://www.w3.org/Graphics/SVG/1.1/DTD/svg11.dtd">
<!-- Generated by graphviz version 14.1.4 (0)
 -->
<!-- Title: FCoroSpinLock::FScope::operator= Pages: 1 -->
<svg width="303pt" height="80pt"
 viewBox="0.00 0.00 303.00 80.00" xmlns="http://www.w3.org/2000/svg" xmlns:xlink="http://www.w3.org/1999/xlink">
<g id="graph0" class="graph" transform="scale(1 1) rotate(0) translate(4 76.12)">
<title>FCoroSpinLock::FScope::operator=</title>
<!-- Node1 -->
<g id="Node000001" class="node">
<title>Node1</title>
<g id="a_Node000001"><a xlink:title=" ">
<polygon fill="#999999" stroke="#666666" points="129.25,-49.12 0,-49.12 0,-15.62 129.25,-15.62 129.25,-49.12"/>
<text xml:space="preserve" text-anchor="start" x="8" y="-35.62" font-family="Helvetica,sans-Serif" font-size="10.00">FCoroSpinLock::FScope</text>
<text xml:space="preserve" text-anchor="middle" x="64.62" y="-22.88" font-family="Helvetica,sans-Serif" font-size="10.00">::operator=</text>
</a>
</g>
</g>
<!-- Node2 -->
<g id="Node000002" class="node">
<title>Node2</title>
<g id="a_Node000002"><a xlink:href="$classFCoroSpinLock_1_1FScope.html#ac951d4d9a771233db0de38a9b5a55c9c" xlink:title=" ">
<polygon fill="white" stroke="#666666" points="294.5,-72.12 165.25,-72.12 165.25,-38.62 294.5,-38.62 294.5,-72.12"/>
<text xml:space="preserve" text-anchor="start" x="173.25" y="-58.62" font-family="Helvetica,sans-Serif" font-size="10.00">FCoroSpinLock::FScope</text>
<text xml:space="preserve" text-anchor="middle" x="229.88" y="-45.88" font-family="Helvetica,sans-Serif" font-size="10.00">::FScope</text>
</a>
</g>
</g>
<!-- Node1&#45;&gt;Node2 -->
<g id="edge1_Node000001_Node000002" class="edge">
<title>Node1&#45;&gt;Node2</title>
<g id="a_edge1_Node000001_Node000002"><a xlink:title=" ">
<path fill="none" stroke="#63b8ff" d="M129.68,-41.4C137.57,-42.51 145.69,-43.66 153.73,-44.79"/>
<polygon fill="#63b8ff" stroke="#63b8ff" points="153.12,-48.24 163.51,-46.17 154.09,-41.3 153.12,-48.24"/>
</a>
</g>
</g>
<!-- Node3 -->
<g id="Node000003" class="node">
<title>Node3</title>
<g id="a_Node000003"><a xlink:href="$UnrealTemplate_8h.html#a6affb55ac4c80f005e72b931da3d3a55" xlink:title=" ">
<polygon fill="white" stroke="#666666" points="264.5,-20.75 195.25,-20.75 195.25,0 264.5,0 264.5,-20.75"/>
<text xml:space="preserve" text-anchor="middle" x="229.88" y="-7.25" font-family="Helvetica,sans-Serif" font-size="10.00">MoveTemp</text>
</a>
</g>
</g>
<!-- Node1&#45;&gt;Node3 -->
<g id="edge2_Node000001_Node000003" class="edge">
<title>Node1&#45;&gt;Node3</title>
<g id="a_edge2_Node000001_Node000003"><a xlink:title=" ">
<path fill="none" stroke="#63b8ff" d="M129.68,-23.74C147.82,-21.3 167.18,-18.69 183.94,-16.43"/>
<polygon fill="#63b8ff" stroke="#63b8ff" points="184.13,-19.94 193.58,-15.13 183.2,-13 184.13,-19.94"/>
</a>
</g>
</g>
</g>
</svg>
