<?xml version="1.0" encoding="UTF-8" standalone="no"?>
<!DOCTYPE svg PUBLIC "-//W3C//DTD SVG 1.1//EN"
 "http://www.w3.org/Graphics/SVG/1.1/DTD/svg11.dtd">
<!-- Generated by graphviz version 14.1.4 (0)
 -->
<!-- Title: UAnimCompress_RemoveTrivialKeys Pages: 1 -->
<!--zoomable 870 -->

<svg id="main" version="1.1" xmlns="http://www.w3.org/2000/svg" xmlns:xlink="http://www.w3.org/1999/xlink" xml:space="preserve" onload="init(evt)">

<style type="text/css"><![CDATA[
.node, .edge {opacity: 0.7;}
.node.selected, .edge.selected {opacity: 1;}
.edge:hover path { stroke: red; }
.edge:hover polygon { stroke: red; fill: red; }
]]></style>

<defs>
  <circle id="rim" cx="0" cy="0" r="7"/>
  <circle id="rim2" cx="0" cy="0" r="3.5"/>
  <g id="zoomPlus">
    <use xlink:href="#rim" fill="#404040"><set attributeName="fill" to="#808080" begin="zoomplus.mouseover" end="zoomplus.mouseout"/></use>
    <path d="M-4,0h8M0,-4v8" fill="none" stroke="white" stroke-width="1.5" pointer-events="none"/>
  </g>
  <g id="zoomMin">
    <use xlink:href="#rim" fill="#404040"><set attributeName="fill" to="#808080" begin="zoomminus.mouseover" end="zoomminus.mouseout"/></use>
    <path d="M-4,0h8" fill="none" stroke="white" stroke-width="1.5" pointer-events="none"/>
  </g>
  <g id="arrowUp" transform="translate(30 24)">
    <use xlink:href="#rim"/>
    <path pointer-events="none" fill="none" stroke="white" stroke-width="1.5" d="M0,-3.0v7 M-2.5,-0.5L0,-3.0L2.5,-0.5"/>
  </g>
  <g id="arrowRight" transform="rotate(90) translate(36 -43)">
    <use xlink:href="#rim"/>
    <path pointer-events="none" fill="none" stroke="white" stroke-width="1.5" d="M0,-3.0v7 M-2.5,-0.5L0,-3.0L2.5,-0.5"/>
  </g>
  <g id="arrowDown" transform="rotate(180) translate(-30 -48)">
    <use xlink:href="#rim"/>
    <path pointer-events="none" fill="none" stroke="white" stroke-width="1.5" d="M0,-3.0v7 M-2.5,-0.5L0,-3.0L2.5,-0.5"/>
  </g>
  <g id="arrowLeft" transform="rotate(270) translate(-36 17)">
    <use xlink:href="#rim"/>
    <path pointer-events="none" fill="none" stroke="white" stroke-width="1.5" d="M0,-3.0v7 M-2.5,-0.5L0,-3.0L2.5,-0.5"/>
  </g>
  <g id="resetDef">
    <use xlink:href="#rim2" fill="#404040"><set attributeName="fill" to="#808080" begin="reset.mouseover" end="reset.mouseout"/></use>
  </g>
</defs>
<script type="application/ecmascript">
var viewWidth = 197;
var viewHeight = 870;
var sectionId = 'dynsection-0';
</script>
<script type="application/ecmascript" xlink:href="svg.min.js"/>
<svg id="graph" class="graph">
<g id="viewport">
<title>UAnimCompress_RemoveTrivialKeys</title>
<!-- Node1 -->
<g id="Node000001" class="node">
<title>Node1</title>
<g id="a_Node000001"><a xlink:title=" ">
<polygon fill="#999999" stroke="none" points="188.75,-104.5 0,-104.5 0,0 188.75,0 188.75,-104.5"/>
<text xml:space="preserve" text-anchor="start" x="4" y="-90.75" font-family="Helvetica,sans-Serif" font-size="10.00">UAnimCompress_RemoveTrivialKeys</text>
<text xml:space="preserve" text-anchor="start" x="25.88" y="-74" font-family="Helvetica,sans-Serif" font-size="10.00">&#45;</text>
<text xml:space="preserve" text-anchor="start" x="55.5" y="-74" font-family="Helvetica,sans-Serif" font-size="10.00">MaxPosDiff</text>
<text xml:space="preserve" text-anchor="start" x="25.88" y="-57.25" font-family="Helvetica,sans-Serif" font-size="10.00">&#45;</text>
<text xml:space="preserve" text-anchor="start" x="55.5" y="-57.25" font-family="Helvetica,sans-Serif" font-size="10.00">MaxAngleDiff</text>
<text xml:space="preserve" text-anchor="start" x="25.88" y="-40.5" font-family="Helvetica,sans-Serif" font-size="10.00">&#45;</text>
<text xml:space="preserve" text-anchor="start" x="55.5" y="-40.5" font-family="Helvetica,sans-Serif" font-size="10.00">MaxScaleDiff</text>
<text xml:space="preserve" text-anchor="start" x="23.62" y="-23.75" font-family="Helvetica,sans-Serif" font-size="10.00">#</text>
<text xml:space="preserve" text-anchor="start" x="55.5" y="-23.75" font-family="Helvetica,sans-Serif" font-size="10.00">DoReduction()</text>
<text xml:space="preserve" text-anchor="start" x="23.62" y="-7" font-family="Helvetica,sans-Serif" font-size="10.00">#</text>
<text xml:space="preserve" text-anchor="start" x="55.5" y="-7" font-family="Helvetica,sans-Serif" font-size="10.00">PopulateDDCKey()</text>
<polygon fill="#666666" stroke="#666666" points="0,-85.75 0,-85.75 188.75,-85.75 188.75,-85.75 0,-85.75"/>
<polygon fill="#666666" stroke="#666666" points="0,-35.5 0,-35.5 53.5,-35.5 53.5,-35.5 0,-35.5"/>
<polygon fill="#666666" stroke="#666666" points="53.5,-35.5 53.5,-35.5 188.75,-35.5 188.75,-35.5 53.5,-35.5"/>
<polygon fill="none" stroke="#666666" points="0,0 0,-104.5 188.75,-104.5 188.75,0 0,0"/>
</a>
</g>
</g>
<!-- Node2 -->
<g id="Node000002" class="node">
<title>Node2</title>
<g id="a_Node000002"><a xlink:href="classUAnimCompress.html" target="_top" xlink:title=" ">
<polygon fill="white" stroke="none" points="180.62,-631 8.12,-631 8.12,-140.5 180.62,-140.5 180.62,-631"/>
<text xml:space="preserve" text-anchor="start" x="53.5" y="-617.25" font-family="Helvetica,sans-Serif" font-size="10.00">UAnimCompress</text>
<text xml:space="preserve" text-anchor="start" x="12.12" y="-600.5" font-family="Helvetica,sans-Serif" font-size="10.00">#</text>
<text xml:space="preserve" text-anchor="start" x="24.38" y="-600.5" font-family="Helvetica,sans-Serif" font-size="10.00">DoReduction</text>
<text xml:space="preserve" text-anchor="start" x="12.12" y="-583.75" font-family="Helvetica,sans-Serif" font-size="10.00">#</text>
<text xml:space="preserve" text-anchor="start" x="24.38" y="-583.75" font-family="Helvetica,sans-Serif" font-size="10.00">AnimationPadSentinel</text>
<text xml:space="preserve" text-anchor="start" x="14.38" y="-567" font-family="Helvetica,sans-Serif" font-size="10.00">&#45;</text>
<text xml:space="preserve" text-anchor="start" x="24.38" y="-567" font-family="Helvetica,sans-Serif" font-size="10.00">bNeedsSkeleton</text>
<text xml:space="preserve" text-anchor="start" x="14.38" y="-550.25" font-family="Helvetica,sans-Serif" font-size="10.00">&#45;</text>
<text xml:space="preserve" text-anchor="start" x="24.38" y="-550.25" font-family="Helvetica,sans-Serif" font-size="10.00">TranslationCompressionFormat</text>
<text xml:space="preserve" text-anchor="start" x="14.38" y="-533.5" font-family="Helvetica,sans-Serif" font-size="10.00">&#45;</text>
<text xml:space="preserve" text-anchor="start" x="24.38" y="-533.5" font-family="Helvetica,sans-Serif" font-size="10.00">RotationCompressionFormat</text>
<text xml:space="preserve" text-anchor="start" x="14.38" y="-516.75" font-family="Helvetica,sans-Serif" font-size="10.00">&#45;</text>
<text xml:space="preserve" text-anchor="start" x="24.38" y="-516.75" font-family="Helvetica,sans-Serif" font-size="10.00">ScaleCompressionFormat</text>
<text xml:space="preserve" text-anchor="start" x="12.12" y="-500" font-family="Helvetica,sans-Serif" font-size="10.00">+</text>
<text xml:space="preserve" text-anchor="start" x="24.38" y="-500" font-family="Helvetica,sans-Serif" font-size="10.00">AllocateAnimData()</text>
<text xml:space="preserve" text-anchor="start" x="12.12" y="-483.25" font-family="Helvetica,sans-Serif" font-size="10.00">+</text>
<text xml:space="preserve" text-anchor="start" x="24.38" y="-483.25" font-family="Helvetica,sans-Serif" font-size="10.00">ByteSwapIn()</text>
<text xml:space="preserve" text-anchor="start" x="12.12" y="-466.5" font-family="Helvetica,sans-Serif" font-size="10.00">+</text>
<text xml:space="preserve" text-anchor="start" x="24.38" y="-466.5" font-family="Helvetica,sans-Serif" font-size="10.00">ByteSwapOut()</text>
<text xml:space="preserve" text-anchor="start" x="12.12" y="-449.75" font-family="Helvetica,sans-Serif" font-size="10.00">+</text>
<text xml:space="preserve" text-anchor="start" x="24.38" y="-449.75" font-family="Helvetica,sans-Serif" font-size="10.00">DecompressPose()</text>
<text xml:space="preserve" text-anchor="start" x="12.12" y="-433" font-family="Helvetica,sans-Serif" font-size="10.00">+</text>
<text xml:space="preserve" text-anchor="start" x="24.38" y="-433" font-family="Helvetica,sans-Serif" font-size="10.00">DecompressBone()</text>
<text xml:space="preserve" text-anchor="start" x="12.12" y="-416.25" font-family="Helvetica,sans-Serif" font-size="10.00">+</text>
<text xml:space="preserve" text-anchor="start" x="24.38" y="-416.25" font-family="Helvetica,sans-Serif" font-size="10.00">PopulateDDCKeyArchive()</text>
<text xml:space="preserve" text-anchor="start" x="12.12" y="-399.5" font-family="Helvetica,sans-Serif" font-size="10.00">+</text>
<text xml:space="preserve" text-anchor="start" x="24.38" y="-399.5" font-family="Helvetica,sans-Serif" font-size="10.00">BitwiseCompressAnimation</text>
<text xml:space="preserve" text-anchor="start" x="24.38" y="-386.75" font-family="Helvetica,sans-Serif" font-size="10.00">Tracks()</text>
<text xml:space="preserve" text-anchor="start" x="12.12" y="-370" font-family="Helvetica,sans-Serif" font-size="10.00">#</text>
<text xml:space="preserve" text-anchor="start" x="24.38" y="-370" font-family="Helvetica,sans-Serif" font-size="10.00">PopulateDDCKey()</text>
<text xml:space="preserve" text-anchor="start" x="12.12" y="-353.25" font-family="Helvetica,sans-Serif" font-size="10.00">#</text>
<text xml:space="preserve" text-anchor="start" x="24.38" y="-353.25" font-family="Helvetica,sans-Serif" font-size="10.00">FilterTrivialPositionKeys()</text>
<text xml:space="preserve" text-anchor="start" x="12.12" y="-336.5" font-family="Helvetica,sans-Serif" font-size="10.00">#</text>
<text xml:space="preserve" text-anchor="start" x="24.38" y="-336.5" font-family="Helvetica,sans-Serif" font-size="10.00">FilterTrivialPositionKeys()</text>
<text xml:space="preserve" text-anchor="start" x="12.12" y="-319.75" font-family="Helvetica,sans-Serif" font-size="10.00">#</text>
<text xml:space="preserve" text-anchor="start" x="24.38" y="-319.75" font-family="Helvetica,sans-Serif" font-size="10.00">FilterTrivialRotationKeys()</text>
<text xml:space="preserve" text-anchor="start" x="12.12" y="-303" font-family="Helvetica,sans-Serif" font-size="10.00">#</text>
<text xml:space="preserve" text-anchor="start" x="24.38" y="-303" font-family="Helvetica,sans-Serif" font-size="10.00">FilterTrivialRotationKeys()</text>
<text xml:space="preserve" text-anchor="start" x="12.12" y="-286.25" font-family="Helvetica,sans-Serif" font-size="10.00">#</text>
<text xml:space="preserve" text-anchor="start" x="24.38" y="-286.25" font-family="Helvetica,sans-Serif" font-size="10.00">FilterTrivialScaleKeys()</text>
<text xml:space="preserve" text-anchor="start" x="12.12" y="-269.5" font-family="Helvetica,sans-Serif" font-size="10.00">#</text>
<text xml:space="preserve" text-anchor="start" x="24.38" y="-269.5" font-family="Helvetica,sans-Serif" font-size="10.00">FilterTrivialScaleKeys()</text>
<text xml:space="preserve" text-anchor="start" x="12.12" y="-252.75" font-family="Helvetica,sans-Serif" font-size="10.00">#</text>
<text xml:space="preserve" text-anchor="start" x="24.38" y="-252.75" font-family="Helvetica,sans-Serif" font-size="10.00">FilterTrivialKeys()</text>
<text xml:space="preserve" text-anchor="start" x="12.12" y="-236" font-family="Helvetica,sans-Serif" font-size="10.00">#</text>
<text xml:space="preserve" text-anchor="start" x="24.38" y="-236" font-family="Helvetica,sans-Serif" font-size="10.00">FilterIntermittentPosition</text>
<text xml:space="preserve" text-anchor="start" x="24.38" y="-223.25" font-family="Helvetica,sans-Serif" font-size="10.00">Keys()</text>
<text xml:space="preserve" text-anchor="start" x="12.12" y="-206.5" font-family="Helvetica,sans-Serif" font-size="10.00">#</text>
<text xml:space="preserve" text-anchor="start" x="24.38" y="-206.5" font-family="Helvetica,sans-Serif" font-size="10.00">FilterIntermittentPosition</text>
<text xml:space="preserve" text-anchor="start" x="24.38" y="-193.75" font-family="Helvetica,sans-Serif" font-size="10.00">Keys()</text>
<text xml:space="preserve" text-anchor="start" x="12.12" y="-177" font-family="Helvetica,sans-Serif" font-size="10.00">#</text>
<text xml:space="preserve" text-anchor="start" x="24.38" y="-177" font-family="Helvetica,sans-Serif" font-size="10.00">FilterIntermittentRotation</text>
<text xml:space="preserve" text-anchor="start" x="24.38" y="-164.25" font-family="Helvetica,sans-Serif" font-size="10.00">Keys()</text>
<text xml:space="preserve" text-anchor="start" x="24.38" y="-147.5" font-family="Helvetica,sans-Serif" font-size="10.00">and 9 more...</text>
<polygon fill="#666666" stroke="#666666" points="8.12,-612.25 8.12,-612.25 180.62,-612.25 180.62,-612.25 8.12,-612.25"/>
<polygon fill="#666666" stroke="#666666" points="8.12,-511.75 8.12,-511.75 22.38,-511.75 22.38,-511.75 8.12,-511.75"/>
<polygon fill="#666666" stroke="#666666" points="22.38,-511.75 22.38,-511.75 180.62,-511.75 180.62,-511.75 22.38,-511.75"/>
<polygon fill="none" stroke="#666666" points="8.12,-140.5 8.12,-631 180.62,-631 180.62,-140.5 8.12,-140.5"/>
</a>
</g>
</g>
<!-- Node2&#45;&gt;Node1 -->
<g id="edge1_Node000001_Node000002" class="edge">
<title>Node2&#45;&gt;Node1</title>
<g id="a_edge1_Node000001_Node000002"><a xlink:title=" ">
<path fill="none" stroke="#63b8ff" d="M94.38,-129.52C94.38,-120.48 94.38,-111.94 94.38,-104.09"/>
<polygon fill="none" stroke="#63b8ff" points="90.88,-129.27 94.38,-139.27 97.88,-129.27 90.88,-129.27"/>
</a>
</g>
</g>
<!-- Node3 -->
<g id="Node000003" class="node">
<title>Node3</title>
<g id="a_Node000003"><a xlink:href="classUAnimBoneCompressionCodec.html" target="_top" xlink:title=" ">
<polygon fill="white" stroke="none" points="174.12,-771.5 14.62,-771.5 14.62,-667 174.12,-667 174.12,-771.5"/>
<text xml:space="preserve" text-anchor="start" x="18.62" y="-757.75" font-family="Helvetica,sans-Serif" font-size="10.00">UAnimBoneCompressionCodec</text>
<text xml:space="preserve" text-anchor="start" x="26.81" y="-741" font-family="Helvetica,sans-Serif" font-size="10.00">&#45;</text>
<text xml:space="preserve" text-anchor="start" x="42.75" y="-741" font-family="Helvetica,sans-Serif" font-size="10.00">Description</text>
<text xml:space="preserve" text-anchor="start" x="26.81" y="-724.25" font-family="Helvetica,sans-Serif" font-size="10.00">&#45;</text>
<text xml:space="preserve" text-anchor="start" x="42.75" y="-724.25" font-family="Helvetica,sans-Serif" font-size="10.00">AllocateAnimData</text>
<text xml:space="preserve" text-anchor="start" x="26.81" y="-707.5" font-family="Helvetica,sans-Serif" font-size="10.00">&#45;</text>
<text xml:space="preserve" text-anchor="start" x="42.75" y="-707.5" font-family="Helvetica,sans-Serif" font-size="10.00">DecompressPose</text>
<text xml:space="preserve" text-anchor="start" x="26.81" y="-690.75" font-family="Helvetica,sans-Serif" font-size="10.00">&#45;</text>
<text xml:space="preserve" text-anchor="start" x="42.75" y="-690.75" font-family="Helvetica,sans-Serif" font-size="10.00">GetCodec()</text>
<text xml:space="preserve" text-anchor="start" x="26.81" y="-674" font-family="Helvetica,sans-Serif" font-size="10.00">&#45;</text>
<text xml:space="preserve" text-anchor="start" x="42.75" y="-674" font-family="Helvetica,sans-Serif" font-size="10.00">GetCodecDDCHandle()</text>
<polygon fill="#666666" stroke="#666666" points="14.62,-752.75 14.62,-752.75 174.12,-752.75 174.12,-752.75 14.62,-752.75"/>
<polygon fill="#666666" stroke="#666666" points="14.62,-702.5 14.62,-702.5 40.75,-702.5 40.75,-702.5 14.62,-702.5"/>
<polygon fill="#666666" stroke="#666666" points="40.75,-702.5 40.75,-702.5 174.12,-702.5 174.12,-702.5 40.75,-702.5"/>
<polygon fill="none" stroke="#666666" points="14.62,-667 14.62,-771.5 174.12,-771.5 174.12,-667 14.62,-667"/>
</a>
</g>
</g>
<!-- Node3&#45;&gt;Node2 -->
<g id="edge2_Node000002_Node000003" class="edge">
<title>Node3&#45;&gt;Node2</title>
<g id="a_edge2_Node000002_Node000003"><a xlink:title=" ">
<path fill="none" stroke="#63b8ff" d="M94.38,-655.68C94.38,-647.83 94.38,-639.46 94.38,-630.72"/>
<polygon fill="none" stroke="#63b8ff" points="90.88,-655.67 94.38,-665.67 97.88,-655.67 90.88,-655.67"/>
</a>
</g>
</g>
<!-- Node4 -->
<g id="Node000004" class="node">
<title>Node4</title>
<g id="a_Node000004"><a xlink:title=" ">
<polygon fill="white" stroke="none" points="117.88,-861.75 70.88,-861.75 70.88,-807.5 117.88,-807.5 117.88,-861.75"/>
<text xml:space="preserve" text-anchor="start" x="74.88" y="-848" font-family="Helvetica,sans-Serif" font-size="10.00">UObject</text>
<text xml:space="preserve" text-anchor="start" x="91.38" y="-831.25" font-family="Helvetica,sans-Serif" font-size="10.00"> </text>
<text xml:space="preserve" text-anchor="start" x="91.38" y="-814.5" font-family="Helvetica,sans-Serif" font-size="10.00"> </text>
<polygon fill="#666666" stroke="#666666" points="70.88,-843 70.88,-843 117.88,-843 117.88,-843 70.88,-843"/>
<polygon fill="#666666" stroke="#666666" points="70.88,-826.25 70.88,-826.25 117.88,-826.25 117.88,-826.25 70.88,-826.25"/>
<polygon fill="none" stroke="#666666" points="70.88,-807.5 70.88,-861.75 117.88,-861.75 117.88,-807.5 70.88,-807.5"/>
</a>
</g>
</g>
<!-- Node4&#45;&gt;Node3 -->
<g id="edge3_Node000003_Node000004" class="edge">
<title>Node4&#45;&gt;Node3</title>
<g id="a_edge3_Node000003_Node000004"><a xlink:title=" ">
<path fill="none" stroke="#63b8ff" d="M94.38,-796.33C94.38,-788.27 94.38,-779.62 94.38,-771.15"/>
<polygon fill="none" stroke="#63b8ff" points="90.88,-796.1 94.38,-806.1 97.88,-796.1 90.88,-796.1"/>
</a>
</g>
</g>
</g>
</svg>

<g id="navigator" transform="translate(0 0)" fill="#404254">
  <rect fill="#f2f5e9" fill-opacity="0.5" stroke="#606060" stroke-width=".5" x="0" y="0" width="60" height="60"/>
  <use id="zoomplus" xlink:href="#zoomPlus" x="17" y="9" onmousedown="handleZoom(evt,'in')"/>
  <use id="zoomminus" xlink:href="#zoomMin" x="42" y="9" onmousedown="handleZoom(evt,'out')"/>
  <use id="reset" xlink:href="#resetDef" x="30" y="36" onmousedown="handleReset()"/>
   <use id="arrowup" xlink:href="#arrowUp" x="0" y="0" onmousedown="handlePan(0,-1)"/>
  <use id="arrowright" xlink:href="#arrowRight" x="0" y="0" onmousedown="handlePan(1,0)"/>
  <use id="arrowdown" xlink:href="#arrowDown" x="0" y="0" onmousedown="handlePan(0,1)"/>
  <use id="arrowleft" xlink:href="#arrowLeft" x="0" y="0" onmousedown="handlePan(-1,0)"/>
</g>
<svg viewBox="0 0 15 15" width="100%" height="30px" preserveAspectRatio="xMaxYMin meet">
 <g id="arrow_out" transform="scale(0.3 0.3)">
  <a xlink:href="classUAnimCompress__RemoveTrivialKeys__inherit__graph_org.svg" target="_base">
   <rect id="button" ry="5" rx="5" y="6" x="6" height="38" width="38"
        fill="#f2f5e9" fill-opacity="0.5" stroke="#606060" stroke-width="1.0"/>
   <path id="arrow"
     d="M 11.500037,31.436501 C 11.940474,20.09759 22.043105,11.32322 32.158766,21.979434 L 37.068811,17.246167 C 37.068811,17.246167 37.088388,32 37.088388,32 L 22.160133,31.978069 C 22.160133,31.978069 26.997745,27.140456 26.997745,27.140456 C 18.528582,18.264221 13.291696,25.230495 11.500037,31.436501 z"
     style="fill:#404040;"/>
  </a>
 </g>
</svg>

<style type='text/css'>
<![CDATA[
[data-mouse-over-selected='false'] { opacity: 0.7; }
[data-mouse-over-selected='true']  { opacity: 1.0; }
]]>
</style>
<script type="application/ecmascript"><![CDATA[
document.addEventListener('DOMContentLoaded', (event) => {
  highlightEdges();
  highlightAdjacentNodes();
});
]]></script>
</svg>
