<?xml version="1.0" encoding="UTF-8" standalone="no"?>
<!DOCTYPE svg PUBLIC "-//W3C//DTD SVG 1.1//EN"
 "http://www.w3.org/Graphics/SVG/1.1/DTD/svg11.dtd">
<!-- Generated by graphviz version 14.1.4 (0)
 -->
<!-- Title: UAnimCompress Pages: 1 -->
<!--zoomable 1505 -->

<svg id="main" version="1.1" xmlns="http://www.w3.org/2000/svg" xmlns:xlink="http://www.w3.org/1999/xlink" xml:space="preserve" onload="init(evt)">

<style type="text/css"><![CDATA[
.node, .edge {opacity: 0.7;}
.node.selected, .edge.selected {opacity: 1;}
.edge:hover path { stroke: red; }
.edge:hover polygon { stroke: red; fill: red; }
]]></style>

<defs>
  <circle id="rim" cx="0" cy="0" r="7"/>
  <circle id="rim2" cx="0" cy="0" r="3.5"/>
  <g id="zoomPlus">
    <use xlink:href="#rim" fill="#404040"><set attributeName="fill" to="#808080" begin="zoomplus.mouseover" end="zoomplus.mouseout"/></use>
    <path d="M-4,0h8M0,-4v8" fill="none" stroke="white" stroke-width="1.5" pointer-events="none"/>
  </g>
  <g id="zoomMin">
    <use xlink:href="#rim" fill="#404040"><set attributeName="fill" to="#808080" begin="zoomminus.mouseover" end="zoomminus.mouseout"/></use>
    <path d="M-4,0h8" fill="none" stroke="white" stroke-width="1.5" pointer-events="none"/>
  </g>
  <g id="arrowUp" transform="translate(30 24)">
    <use xlink:href="#rim"/>
    <path pointer-events="none" fill="none" stroke="white" stroke-width="1.5" d="M0,-3.0v7 M-2.5,-0.5L0,-3.0L2.5,-0.5"/>
  </g>
  <g id="arrowRight" transform="rotate(90) translate(36 -43)">
    <use xlink:href="#rim"/>
    <path pointer-events="none" fill="none" stroke="white" stroke-width="1.5" d="M0,-3.0v7 M-2.5,-0.5L0,-3.0L2.5,-0.5"/>
  </g>
  <g id="arrowDown" transform="rotate(180) translate(-30 -48)">
    <use xlink:href="#rim"/>
    <path pointer-events="none" fill="none" stroke="white" stroke-width="1.5" d="M0,-3.0v7 M-2.5,-0.5L0,-3.0L2.5,-0.5"/>
  </g>
  <g id="arrowLeft" transform="rotate(270) translate(-36 17)">
    <use xlink:href="#rim"/>
    <path pointer-events="none" fill="none" stroke="white" stroke-width="1.5" d="M0,-3.0v7 M-2.5,-0.5L0,-3.0L2.5,-0.5"/>
  </g>
  <g id="resetDef">
    <use xlink:href="#rim2" fill="#404040"><set attributeName="fill" to="#808080" begin="reset.mouseover" end="reset.mouseout"/></use>
  </g>
</defs>
<script type="application/ecmascript">
var viewWidth = 833;
var viewHeight = 1505;
var sectionId = 'dynsection-0';
</script>
<script type="application/ecmascript" xlink:href="svg.min.js"/>
<svg id="graph" class="graph">
<g id="viewport">
<title>UAnimCompress</title>
<!-- Node1 -->
<g id="Node000001" class="node">
<title>Node1</title>
<g id="a_Node000001"><a xlink:title=" ">
<polygon fill="#999999" stroke="none" points="492.38,-1266 319.88,-1266 319.88,-775.5 492.38,-775.5 492.38,-1266"/>
<text xml:space="preserve" text-anchor="start" x="365.25" y="-1252.25" font-family="Helvetica,sans-Serif" font-size="10.00">UAnimCompress</text>
<text xml:space="preserve" text-anchor="start" x="323.88" y="-1235.5" font-family="Helvetica,sans-Serif" font-size="10.00">#</text>
<text xml:space="preserve" text-anchor="start" x="336.12" y="-1235.5" font-family="Helvetica,sans-Serif" font-size="10.00">DoReduction</text>
<text xml:space="preserve" text-anchor="start" x="323.88" y="-1218.75" font-family="Helvetica,sans-Serif" font-size="10.00">#</text>
<text xml:space="preserve" text-anchor="start" x="336.12" y="-1218.75" font-family="Helvetica,sans-Serif" font-size="10.00">AnimationPadSentinel</text>
<text xml:space="preserve" text-anchor="start" x="326.12" y="-1202" font-family="Helvetica,sans-Serif" font-size="10.00">&#45;</text>
<text xml:space="preserve" text-anchor="start" x="336.12" y="-1202" font-family="Helvetica,sans-Serif" font-size="10.00">bNeedsSkeleton</text>
<text xml:space="preserve" text-anchor="start" x="326.12" y="-1185.25" font-family="Helvetica,sans-Serif" font-size="10.00">&#45;</text>
<text xml:space="preserve" text-anchor="start" x="336.12" y="-1185.25" font-family="Helvetica,sans-Serif" font-size="10.00">TranslationCompressionFormat</text>
<text xml:space="preserve" text-anchor="start" x="326.12" y="-1168.5" font-family="Helvetica,sans-Serif" font-size="10.00">&#45;</text>
<text xml:space="preserve" text-anchor="start" x="336.12" y="-1168.5" font-family="Helvetica,sans-Serif" font-size="10.00">RotationCompressionFormat</text>
<text xml:space="preserve" text-anchor="start" x="326.12" y="-1151.75" font-family="Helvetica,sans-Serif" font-size="10.00">&#45;</text>
<text xml:space="preserve" text-anchor="start" x="336.12" y="-1151.75" font-family="Helvetica,sans-Serif" font-size="10.00">ScaleCompressionFormat</text>
<text xml:space="preserve" text-anchor="start" x="323.88" y="-1135" font-family="Helvetica,sans-Serif" font-size="10.00">+</text>
<text xml:space="preserve" text-anchor="start" x="336.12" y="-1135" font-family="Helvetica,sans-Serif" font-size="10.00">AllocateAnimData()</text>
<text xml:space="preserve" text-anchor="start" x="323.88" y="-1118.25" font-family="Helvetica,sans-Serif" font-size="10.00">+</text>
<text xml:space="preserve" text-anchor="start" x="336.12" y="-1118.25" font-family="Helvetica,sans-Serif" font-size="10.00">ByteSwapIn()</text>
<text xml:space="preserve" text-anchor="start" x="323.88" y="-1101.5" font-family="Helvetica,sans-Serif" font-size="10.00">+</text>
<text xml:space="preserve" text-anchor="start" x="336.12" y="-1101.5" font-family="Helvetica,sans-Serif" font-size="10.00">ByteSwapOut()</text>
<text xml:space="preserve" text-anchor="start" x="323.88" y="-1084.75" font-family="Helvetica,sans-Serif" font-size="10.00">+</text>
<text xml:space="preserve" text-anchor="start" x="336.12" y="-1084.75" font-family="Helvetica,sans-Serif" font-size="10.00">DecompressPose()</text>
<text xml:space="preserve" text-anchor="start" x="323.88" y="-1068" font-family="Helvetica,sans-Serif" font-size="10.00">+</text>
<text xml:space="preserve" text-anchor="start" x="336.12" y="-1068" font-family="Helvetica,sans-Serif" font-size="10.00">DecompressBone()</text>
<text xml:space="preserve" text-anchor="start" x="323.88" y="-1051.25" font-family="Helvetica,sans-Serif" font-size="10.00">+</text>
<text xml:space="preserve" text-anchor="start" x="336.12" y="-1051.25" font-family="Helvetica,sans-Serif" font-size="10.00">PopulateDDCKeyArchive()</text>
<text xml:space="preserve" text-anchor="start" x="323.88" y="-1034.5" font-family="Helvetica,sans-Serif" font-size="10.00">+</text>
<text xml:space="preserve" text-anchor="start" x="336.12" y="-1034.5" font-family="Helvetica,sans-Serif" font-size="10.00">BitwiseCompressAnimation</text>
<text xml:space="preserve" text-anchor="start" x="336.12" y="-1021.75" font-family="Helvetica,sans-Serif" font-size="10.00">Tracks()</text>
<text xml:space="preserve" text-anchor="start" x="323.88" y="-1005" font-family="Helvetica,sans-Serif" font-size="10.00">#</text>
<text xml:space="preserve" text-anchor="start" x="336.12" y="-1005" font-family="Helvetica,sans-Serif" font-size="10.00">PopulateDDCKey()</text>
<text xml:space="preserve" text-anchor="start" x="323.88" y="-988.25" font-family="Helvetica,sans-Serif" font-size="10.00">#</text>
<text xml:space="preserve" text-anchor="start" x="336.12" y="-988.25" font-family="Helvetica,sans-Serif" font-size="10.00">FilterTrivialPositionKeys()</text>
<text xml:space="preserve" text-anchor="start" x="323.88" y="-971.5" font-family="Helvetica,sans-Serif" font-size="10.00">#</text>
<text xml:space="preserve" text-anchor="start" x="336.12" y="-971.5" font-family="Helvetica,sans-Serif" font-size="10.00">FilterTrivialPositionKeys()</text>
<text xml:space="preserve" text-anchor="start" x="323.88" y="-954.75" font-family="Helvetica,sans-Serif" font-size="10.00">#</text>
<text xml:space="preserve" text-anchor="start" x="336.12" y="-954.75" font-family="Helvetica,sans-Serif" font-size="10.00">FilterTrivialRotationKeys()</text>
<text xml:space="preserve" text-anchor="start" x="323.88" y="-938" font-family="Helvetica,sans-Serif" font-size="10.00">#</text>
<text xml:space="preserve" text-anchor="start" x="336.12" y="-938" font-family="Helvetica,sans-Serif" font-size="10.00">FilterTrivialRotationKeys()</text>
<text xml:space="preserve" text-anchor="start" x="323.88" y="-921.25" font-family="Helvetica,sans-Serif" font-size="10.00">#</text>
<text xml:space="preserve" text-anchor="start" x="336.12" y="-921.25" font-family="Helvetica,sans-Serif" font-size="10.00">FilterTrivialScaleKeys()</text>
<text xml:space="preserve" text-anchor="start" x="323.88" y="-904.5" font-family="Helvetica,sans-Serif" font-size="10.00">#</text>
<text xml:space="preserve" text-anchor="start" x="336.12" y="-904.5" font-family="Helvetica,sans-Serif" font-size="10.00">FilterTrivialScaleKeys()</text>
<text xml:space="preserve" text-anchor="start" x="323.88" y="-887.75" font-family="Helvetica,sans-Serif" font-size="10.00">#</text>
<text xml:space="preserve" text-anchor="start" x="336.12" y="-887.75" font-family="Helvetica,sans-Serif" font-size="10.00">FilterTrivialKeys()</text>
<text xml:space="preserve" text-anchor="start" x="323.88" y="-871" font-family="Helvetica,sans-Serif" font-size="10.00">#</text>
<text xml:space="preserve" text-anchor="start" x="336.12" y="-871" font-family="Helvetica,sans-Serif" font-size="10.00">FilterIntermittentPosition</text>
<text xml:space="preserve" text-anchor="start" x="336.12" y="-858.25" font-family="Helvetica,sans-Serif" font-size="10.00">Keys()</text>
<text xml:space="preserve" text-anchor="start" x="323.88" y="-841.5" font-family="Helvetica,sans-Serif" font-size="10.00">#</text>
<text xml:space="preserve" text-anchor="start" x="336.12" y="-841.5" font-family="Helvetica,sans-Serif" font-size="10.00">FilterIntermittentPosition</text>
<text xml:space="preserve" text-anchor="start" x="336.12" y="-828.75" font-family="Helvetica,sans-Serif" font-size="10.00">Keys()</text>
<text xml:space="preserve" text-anchor="start" x="323.88" y="-812" font-family="Helvetica,sans-Serif" font-size="10.00">#</text>
<text xml:space="preserve" text-anchor="start" x="336.12" y="-812" font-family="Helvetica,sans-Serif" font-size="10.00">FilterIntermittentRotation</text>
<text xml:space="preserve" text-anchor="start" x="336.12" y="-799.25" font-family="Helvetica,sans-Serif" font-size="10.00">Keys()</text>
<text xml:space="preserve" text-anchor="start" x="336.12" y="-782.5" font-family="Helvetica,sans-Serif" font-size="10.00">and 9 more...</text>
<polygon fill="#666666" stroke="#666666" points="319.88,-1247.25 319.88,-1247.25 492.38,-1247.25 492.38,-1247.25 319.88,-1247.25"/>
<polygon fill="#666666" stroke="#666666" points="319.88,-1146.75 319.88,-1146.75 334.12,-1146.75 334.12,-1146.75 319.88,-1146.75"/>
<polygon fill="#666666" stroke="#666666" points="334.12,-1146.75 334.12,-1146.75 492.38,-1146.75 492.38,-1146.75 334.12,-1146.75"/>
<polygon fill="none" stroke="#666666" points="319.88,-775.5 319.88,-1266 492.38,-1266 492.38,-775.5 319.88,-775.5"/>
</a>
</g>
</g>
<!-- Node4 -->
<g id="Node000004" class="node">
<title>Node4</title>
<g id="a_Node000004"><a xlink:href="classUAnimCompress__BitwiseCompressOnly.html" target="_top" xlink:title=" ">
<polygon fill="white" stroke="none" points="202.25,-567.62 0,-567.62 0,-513.38 202.25,-513.38 202.25,-567.62"/>
<text xml:space="preserve" text-anchor="start" x="4" y="-553.88" font-family="Helvetica,sans-Serif" font-size="10.00">UAnimCompress_BitwiseCompressOnly</text>
<text xml:space="preserve" text-anchor="start" x="98.12" y="-537.12" font-family="Helvetica,sans-Serif" font-size="10.00"> </text>
<text xml:space="preserve" text-anchor="start" x="32.06" y="-520.38" font-family="Helvetica,sans-Serif" font-size="10.00">#</text>
<text xml:space="preserve" text-anchor="start" x="72.38" y="-520.38" font-family="Helvetica,sans-Serif" font-size="10.00">DoReduction()</text>
<polygon fill="#666666" stroke="#666666" points="0,-548.88 0,-548.88 202.25,-548.88 202.25,-548.88 0,-548.88"/>
<polygon fill="#666666" stroke="#666666" points="0,-532.12 0,-532.12 202.25,-532.12 202.25,-532.12 0,-532.12"/>
<polygon fill="none" stroke="#666666" points="0,-513.38 0,-567.62 202.25,-567.62 202.25,-513.38 0,-513.38"/>
</a>
</g>
</g>
<!-- Node1&#45;&gt;Node4 -->
<g id="edge3_Node000001_Node000004" class="edge">
<title>Node1&#45;&gt;Node4</title>
<g id="a_edge3_Node000001_Node000004"><a xlink:title=" ">
<path fill="none" stroke="#63b8ff" d="M313.31,-892.17C280.02,-844.91 242.88,-790.43 211.12,-739.5 173.68,-679.44 134.51,-605.95 114.55,-567.61"/>
<polygon fill="none" stroke="#63b8ff" points="310.42,-894.13 319.05,-900.28 316.14,-890.1 310.42,-894.13"/>
</a>
</g>
</g>
<!-- Node6 -->
<g id="Node000006" class="node">
<title>Node6</title>
<g id="a_Node000006"><a xlink:href="classUAnimCompress__RemoveEverySecondKey.html" target="_top" xlink:title=" ">
<polygon fill="white" stroke="none" points="383.75,-590.75 220.5,-590.75 220.5,-490.25 383.75,-490.25 383.75,-590.75"/>
<text xml:space="preserve" text-anchor="start" x="224.5" y="-577" font-family="Helvetica,sans-Serif" font-size="10.00">UAnimCompress_RemoveEvery</text>
<text xml:space="preserve" text-anchor="start" x="275.5" y="-564.25" font-family="Helvetica,sans-Serif" font-size="10.00">SecondKey</text>
<text xml:space="preserve" text-anchor="start" x="239.25" y="-547.5" font-family="Helvetica,sans-Serif" font-size="10.00">&#45;</text>
<text xml:space="preserve" text-anchor="start" x="261.75" y="-547.5" font-family="Helvetica,sans-Serif" font-size="10.00">MinKeys</text>
<text xml:space="preserve" text-anchor="start" x="239.25" y="-530.75" font-family="Helvetica,sans-Serif" font-size="10.00">&#45;</text>
<text xml:space="preserve" text-anchor="start" x="261.75" y="-530.75" font-family="Helvetica,sans-Serif" font-size="10.00">bStartAtSecondKey</text>
<text xml:space="preserve" text-anchor="start" x="237" y="-514" font-family="Helvetica,sans-Serif" font-size="10.00">#</text>
<text xml:space="preserve" text-anchor="start" x="261.75" y="-514" font-family="Helvetica,sans-Serif" font-size="10.00">DoReduction()</text>
<text xml:space="preserve" text-anchor="start" x="237" y="-497.25" font-family="Helvetica,sans-Serif" font-size="10.00">#</text>
<text xml:space="preserve" text-anchor="start" x="261.75" y="-497.25" font-family="Helvetica,sans-Serif" font-size="10.00">PopulateDDCKey()</text>
<polygon fill="#666666" stroke="#666666" points="220.5,-559.25 220.5,-559.25 383.75,-559.25 383.75,-559.25 220.5,-559.25"/>
<polygon fill="#666666" stroke="#666666" points="220.5,-525.75 220.5,-525.75 259.75,-525.75 259.75,-525.75 220.5,-525.75"/>
<polygon fill="#666666" stroke="#666666" points="259.75,-525.75 259.75,-525.75 383.75,-525.75 383.75,-525.75 259.75,-525.75"/>
<polygon fill="none" stroke="#666666" points="220.5,-490.25 220.5,-590.75 383.75,-590.75 383.75,-490.25 220.5,-490.25"/>
</a>
</g>
</g>
<!-- Node1&#45;&gt;Node6 -->
<g id="edge5_Node000001_Node000006" class="edge">
<title>Node1&#45;&gt;Node6</title>
<g id="a_edge5_Node000001_Node000006"><a xlink:title=" ">
<path fill="none" stroke="#63b8ff" d="M350.64,-764.58C336.15,-697.95 322.02,-632.99 312.78,-590.52"/>
<polygon fill="none" stroke="#63b8ff" points="347.19,-765.21 352.74,-774.24 354.03,-763.73 347.19,-765.21"/>
</a>
</g>
</g>
<!-- Node7 -->
<g id="Node000007" class="node">
<title>Node7</title>
<g id="a_Node000007"><a xlink:href="classUAnimCompress__RemoveLinearKeys.html" target="_top" xlink:title=" ">
<polygon fill="white" stroke="none" points="618.12,-739.5 402.12,-739.5 402.12,-341.5 618.12,-341.5 618.12,-739.5"/>
<text xml:space="preserve" text-anchor="start" x="419.75" y="-725.75" font-family="Helvetica,sans-Serif" font-size="10.00">UAnimCompress_RemoveLinearKeys</text>
<text xml:space="preserve" text-anchor="start" x="408.38" y="-709" font-family="Helvetica,sans-Serif" font-size="10.00">&#45;</text>
<text xml:space="preserve" text-anchor="start" x="418.38" y="-709" font-family="Helvetica,sans-Serif" font-size="10.00">MaxPosDiff</text>
<text xml:space="preserve" text-anchor="start" x="408.38" y="-692.25" font-family="Helvetica,sans-Serif" font-size="10.00">&#45;</text>
<text xml:space="preserve" text-anchor="start" x="418.38" y="-692.25" font-family="Helvetica,sans-Serif" font-size="10.00">MaxAngleDiff</text>
<text xml:space="preserve" text-anchor="start" x="408.38" y="-675.5" font-family="Helvetica,sans-Serif" font-size="10.00">&#45;</text>
<text xml:space="preserve" text-anchor="start" x="418.38" y="-675.5" font-family="Helvetica,sans-Serif" font-size="10.00">MaxScaleDiff</text>
<text xml:space="preserve" text-anchor="start" x="408.38" y="-658.75" font-family="Helvetica,sans-Serif" font-size="10.00">&#45;</text>
<text xml:space="preserve" text-anchor="start" x="418.38" y="-658.75" font-family="Helvetica,sans-Serif" font-size="10.00">MaxEffectorDiff</text>
<text xml:space="preserve" text-anchor="start" x="408.38" y="-642" font-family="Helvetica,sans-Serif" font-size="10.00">&#45;</text>
<text xml:space="preserve" text-anchor="start" x="418.38" y="-642" font-family="Helvetica,sans-Serif" font-size="10.00">MinEffectorDiff</text>
<text xml:space="preserve" text-anchor="start" x="408.38" y="-625.25" font-family="Helvetica,sans-Serif" font-size="10.00">&#45;</text>
<text xml:space="preserve" text-anchor="start" x="418.38" y="-625.25" font-family="Helvetica,sans-Serif" font-size="10.00">EffectorDiffSocket</text>
<text xml:space="preserve" text-anchor="start" x="408.38" y="-608.5" font-family="Helvetica,sans-Serif" font-size="10.00">&#45;</text>
<text xml:space="preserve" text-anchor="start" x="418.38" y="-608.5" font-family="Helvetica,sans-Serif" font-size="10.00">ParentKeyScale</text>
<text xml:space="preserve" text-anchor="start" x="408.38" y="-591.75" font-family="Helvetica,sans-Serif" font-size="10.00">&#45;</text>
<text xml:space="preserve" text-anchor="start" x="418.38" y="-591.75" font-family="Helvetica,sans-Serif" font-size="10.00">bRetarget</text>
<text xml:space="preserve" text-anchor="start" x="408.38" y="-575" font-family="Helvetica,sans-Serif" font-size="10.00">&#45;</text>
<text xml:space="preserve" text-anchor="start" x="418.38" y="-575" font-family="Helvetica,sans-Serif" font-size="10.00">bActuallyFilterLinearKeys</text>
<text xml:space="preserve" text-anchor="start" x="406.12" y="-558.25" font-family="Helvetica,sans-Serif" font-size="10.00">#</text>
<text xml:space="preserve" text-anchor="start" x="418.38" y="-558.25" font-family="Helvetica,sans-Serif" font-size="10.00">DoReduction()</text>
<text xml:space="preserve" text-anchor="start" x="406.12" y="-541.5" font-family="Helvetica,sans-Serif" font-size="10.00">#</text>
<text xml:space="preserve" text-anchor="start" x="418.38" y="-541.5" font-family="Helvetica,sans-Serif" font-size="10.00">PopulateDDCKey()</text>
<text xml:space="preserve" text-anchor="start" x="406.12" y="-524.75" font-family="Helvetica,sans-Serif" font-size="10.00">#</text>
<text xml:space="preserve" text-anchor="start" x="418.38" y="-524.75" font-family="Helvetica,sans-Serif" font-size="10.00">FilterBeforeMainKeyRemoval()</text>
<text xml:space="preserve" text-anchor="start" x="406.12" y="-508" font-family="Helvetica,sans-Serif" font-size="10.00">#</text>
<text xml:space="preserve" text-anchor="start" x="418.38" y="-508" font-family="Helvetica,sans-Serif" font-size="10.00">CompressUsingUnderlyingCompressor()</text>
<text xml:space="preserve" text-anchor="start" x="406.12" y="-491.25" font-family="Helvetica,sans-Serif" font-size="10.00">#</text>
<text xml:space="preserve" text-anchor="start" x="418.38" y="-491.25" font-family="Helvetica,sans-Serif" font-size="10.00">UpdateWorldBoneTransform</text>
<text xml:space="preserve" text-anchor="start" x="418.38" y="-478.5" font-family="Helvetica,sans-Serif" font-size="10.00">Range()</text>
<text xml:space="preserve" text-anchor="start" x="406.12" y="-461.75" font-family="Helvetica,sans-Serif" font-size="10.00">#</text>
<text xml:space="preserve" text-anchor="start" x="418.38" y="-461.75" font-family="Helvetica,sans-Serif" font-size="10.00">UpdateWorldBoneTransform</text>
<text xml:space="preserve" text-anchor="start" x="418.38" y="-449" font-family="Helvetica,sans-Serif" font-size="10.00">Table()</text>
<text xml:space="preserve" text-anchor="start" x="406.12" y="-432.25" font-family="Helvetica,sans-Serif" font-size="10.00">#</text>
<text xml:space="preserve" text-anchor="start" x="418.38" y="-432.25" font-family="Helvetica,sans-Serif" font-size="10.00">ConvertFromRelativeSpace()</text>
<text xml:space="preserve" text-anchor="start" x="406.12" y="-415.5" font-family="Helvetica,sans-Serif" font-size="10.00">#</text>
<text xml:space="preserve" text-anchor="start" x="418.38" y="-415.5" font-family="Helvetica,sans-Serif" font-size="10.00">ConvertToRelativeSpaceBoth()</text>
<text xml:space="preserve" text-anchor="start" x="406.12" y="-398.75" font-family="Helvetica,sans-Serif" font-size="10.00">#</text>
<text xml:space="preserve" text-anchor="start" x="418.38" y="-398.75" font-family="Helvetica,sans-Serif" font-size="10.00">ConvertToRelativeSpace()</text>
<text xml:space="preserve" text-anchor="start" x="406.12" y="-382" font-family="Helvetica,sans-Serif" font-size="10.00">#</text>
<text xml:space="preserve" text-anchor="start" x="418.38" y="-382" font-family="Helvetica,sans-Serif" font-size="10.00">ConvertToRelativeSpace()</text>
<text xml:space="preserve" text-anchor="start" x="406.12" y="-365.25" font-family="Helvetica,sans-Serif" font-size="10.00">#</text>
<text xml:space="preserve" text-anchor="start" x="418.38" y="-365.25" font-family="Helvetica,sans-Serif" font-size="10.00">ProcessAnimationTracks()</text>
<text xml:space="preserve" text-anchor="start" x="406.12" y="-348.5" font-family="Helvetica,sans-Serif" font-size="10.00">#</text>
<text xml:space="preserve" text-anchor="start" x="418.38" y="-348.5" font-family="Helvetica,sans-Serif" font-size="10.00">UpdateBoneAtomList()</text>
<polygon fill="#666666" stroke="#666666" points="402.12,-720.75 402.12,-720.75 618.12,-720.75 618.12,-720.75 402.12,-720.75"/>
<polygon fill="#666666" stroke="#666666" points="402.12,-570 402.12,-570 416.38,-570 416.38,-570 402.12,-570"/>
<polygon fill="#666666" stroke="#666666" points="416.38,-570 416.38,-570 618.12,-570 618.12,-570 416.38,-570"/>
<polygon fill="none" stroke="#666666" points="402.12,-341.5 402.12,-739.5 618.12,-739.5 618.12,-341.5 402.12,-341.5"/>
</a>
</g>
</g>
<!-- Node1&#45;&gt;Node7 -->
<g id="edge6_Node000001_Node000007" class="edge">
<title>Node1&#45;&gt;Node7</title>
<g id="a_edge6_Node000001_Node000007"><a xlink:title=" ">
<path fill="none" stroke="#63b8ff" d="M461.62,-764.57C463.46,-756.1 465.29,-747.66 467.11,-739.28"/>
<polygon fill="none" stroke="#63b8ff" points="458.22,-763.73 459.51,-774.24 465.06,-765.21 458.22,-763.73"/>
</a>
</g>
</g>
<!-- Node9 -->
<g id="Node000009" class="node">
<title>Node9</title>
<g id="a_Node000009"><a xlink:href="classUAnimCompress__RemoveTrivialKeys.html" target="_top" xlink:title=" ">
<polygon fill="white" stroke="none" points="824.5,-592.75 635.75,-592.75 635.75,-488.25 824.5,-488.25 824.5,-592.75"/>
<text xml:space="preserve" text-anchor="start" x="639.75" y="-579" font-family="Helvetica,sans-Serif" font-size="10.00">UAnimCompress_RemoveTrivialKeys</text>
<text xml:space="preserve" text-anchor="start" x="661.62" y="-562.25" font-family="Helvetica,sans-Serif" font-size="10.00">&#45;</text>
<text xml:space="preserve" text-anchor="start" x="691.25" y="-562.25" font-family="Helvetica,sans-Serif" font-size="10.00">MaxPosDiff</text>
<text xml:space="preserve" text-anchor="start" x="661.62" y="-545.5" font-family="Helvetica,sans-Serif" font-size="10.00">&#45;</text>
<text xml:space="preserve" text-anchor="start" x="691.25" y="-545.5" font-family="Helvetica,sans-Serif" font-size="10.00">MaxAngleDiff</text>
<text xml:space="preserve" text-anchor="start" x="661.62" y="-528.75" font-family="Helvetica,sans-Serif" font-size="10.00">&#45;</text>
<text xml:space="preserve" text-anchor="start" x="691.25" y="-528.75" font-family="Helvetica,sans-Serif" font-size="10.00">MaxScaleDiff</text>
<text xml:space="preserve" text-anchor="start" x="659.38" y="-512" font-family="Helvetica,sans-Serif" font-size="10.00">#</text>
<text xml:space="preserve" text-anchor="start" x="691.25" y="-512" font-family="Helvetica,sans-Serif" font-size="10.00">DoReduction()</text>
<text xml:space="preserve" text-anchor="start" x="659.38" y="-495.25" font-family="Helvetica,sans-Serif" font-size="10.00">#</text>
<text xml:space="preserve" text-anchor="start" x="691.25" y="-495.25" font-family="Helvetica,sans-Serif" font-size="10.00">PopulateDDCKey()</text>
<polygon fill="#666666" stroke="#666666" points="635.75,-574 635.75,-574 824.5,-574 824.5,-574 635.75,-574"/>
<polygon fill="#666666" stroke="#666666" points="635.75,-523.75 635.75,-523.75 689.25,-523.75 689.25,-523.75 635.75,-523.75"/>
<polygon fill="#666666" stroke="#666666" points="689.25,-523.75 689.25,-523.75 824.5,-523.75 824.5,-523.75 689.25,-523.75"/>
<polygon fill="none" stroke="#666666" points="635.75,-488.25 635.75,-592.75 824.5,-592.75 824.5,-488.25 635.75,-488.25"/>
</a>
</g>
</g>
<!-- Node1&#45;&gt;Node9 -->
<g id="edge8_Node000001_Node000009" class="edge">
<title>Node1&#45;&gt;Node9</title>
<g id="a_edge8_Node000001_Node000009"><a xlink:title=" ">
<path fill="none" stroke="#63b8ff" d="M499.39,-911.37C540.84,-860.79 588.82,-798.78 627.12,-739.5 658.04,-691.66 687.41,-633.48 706.82,-592.6"/>
<polygon fill="none" stroke="#63b8ff" points="496.88,-908.91 493.23,-918.86 502.28,-913.36 496.88,-908.91"/>
</a>
</g>
</g>
<!-- Node2 -->
<g id="Node000002" class="node">
<title>Node2</title>
<g id="a_Node000002"><a xlink:href="classUAnimBoneCompressionCodec.html" target="_top" xlink:title=" ">
<polygon fill="white" stroke="none" points="485.88,-1406.5 326.38,-1406.5 326.38,-1302 485.88,-1302 485.88,-1406.5"/>
<text xml:space="preserve" text-anchor="start" x="330.38" y="-1392.75" font-family="Helvetica,sans-Serif" font-size="10.00">UAnimBoneCompressionCodec</text>
<text xml:space="preserve" text-anchor="start" x="338.56" y="-1376" font-family="Helvetica,sans-Serif" font-size="10.00">&#45;</text>
<text xml:space="preserve" text-anchor="start" x="354.5" y="-1376" font-family="Helvetica,sans-Serif" font-size="10.00">Description</text>
<text xml:space="preserve" text-anchor="start" x="338.56" y="-1359.25" font-family="Helvetica,sans-Serif" font-size="10.00">&#45;</text>
<text xml:space="preserve" text-anchor="start" x="354.5" y="-1359.25" font-family="Helvetica,sans-Serif" font-size="10.00">AllocateAnimData</text>
<text xml:space="preserve" text-anchor="start" x="338.56" y="-1342.5" font-family="Helvetica,sans-Serif" font-size="10.00">&#45;</text>
<text xml:space="preserve" text-anchor="start" x="354.5" y="-1342.5" font-family="Helvetica,sans-Serif" font-size="10.00">DecompressPose</text>
<text xml:space="preserve" text-anchor="start" x="338.56" y="-1325.75" font-family="Helvetica,sans-Serif" font-size="10.00">&#45;</text>
<text xml:space="preserve" text-anchor="start" x="354.5" y="-1325.75" font-family="Helvetica,sans-Serif" font-size="10.00">GetCodec()</text>
<text xml:space="preserve" text-anchor="start" x="338.56" y="-1309" font-family="Helvetica,sans-Serif" font-size="10.00">&#45;</text>
<text xml:space="preserve" text-anchor="start" x="354.5" y="-1309" font-family="Helvetica,sans-Serif" font-size="10.00">GetCodecDDCHandle()</text>
<polygon fill="#666666" stroke="#666666" points="326.38,-1387.75 326.38,-1387.75 485.88,-1387.75 485.88,-1387.75 326.38,-1387.75"/>
<polygon fill="#666666" stroke="#666666" points="326.38,-1337.5 326.38,-1337.5 352.5,-1337.5 352.5,-1337.5 326.38,-1337.5"/>
<polygon fill="#666666" stroke="#666666" points="352.5,-1337.5 352.5,-1337.5 485.88,-1337.5 485.88,-1337.5 352.5,-1337.5"/>
<polygon fill="none" stroke="#666666" points="326.38,-1302 326.38,-1406.5 485.88,-1406.5 485.88,-1302 326.38,-1302"/>
</a>
</g>
</g>
<!-- Node2&#45;&gt;Node1 -->
<g id="edge1_Node000001_Node000002" class="edge">
<title>Node2&#45;&gt;Node1</title>
<g id="a_edge1_Node000001_Node000002"><a xlink:title=" ">
<path fill="none" stroke="#63b8ff" d="M406.12,-1290.68C406.12,-1282.83 406.12,-1274.46 406.12,-1265.72"/>
<polygon fill="none" stroke="#63b8ff" points="402.63,-1290.67 406.13,-1300.67 409.63,-1290.67 402.63,-1290.67"/>
</a>
</g>
</g>
<!-- Node3 -->
<g id="Node000003" class="node">
<title>Node3</title>
<g id="a_Node000003"><a xlink:title=" ">
<polygon fill="white" stroke="none" points="429.62,-1496.75 382.62,-1496.75 382.62,-1442.5 429.62,-1442.5 429.62,-1496.75"/>
<text xml:space="preserve" text-anchor="start" x="386.62" y="-1483" font-family="Helvetica,sans-Serif" font-size="10.00">UObject</text>
<text xml:space="preserve" text-anchor="start" x="403.12" y="-1466.25" font-family="Helvetica,sans-Serif" font-size="10.00"> </text>
<text xml:space="preserve" text-anchor="start" x="403.12" y="-1449.5" font-family="Helvetica,sans-Serif" font-size="10.00"> </text>
<polygon fill="#666666" stroke="#666666" points="382.62,-1478 382.62,-1478 429.62,-1478 429.62,-1478 382.62,-1478"/>
<polygon fill="#666666" stroke="#666666" points="382.62,-1461.25 382.62,-1461.25 429.62,-1461.25 429.62,-1461.25 382.62,-1461.25"/>
<polygon fill="none" stroke="#666666" points="382.62,-1442.5 382.62,-1496.75 429.62,-1496.75 429.62,-1442.5 382.62,-1442.5"/>
</a>
</g>
</g>
<!-- Node3&#45;&gt;Node2 -->
<g id="edge2_Node000002_Node000003" class="edge">
<title>Node3&#45;&gt;Node2</title>
<g id="a_edge2_Node000002_Node000003"><a xlink:title=" ">
<path fill="none" stroke="#63b8ff" d="M406.12,-1431.33C406.12,-1423.27 406.12,-1414.62 406.12,-1406.15"/>
<polygon fill="none" stroke="#63b8ff" points="402.63,-1431.1 406.13,-1441.1 409.63,-1431.1 402.63,-1431.1"/>
</a>
</g>
</g>
<!-- Node5 -->
<g id="Node000005" class="node">
<title>Node5</title>
<g id="a_Node000005"><a xlink:href="classUAnimCompress__LeastDestructive.html" target="_top" xlink:title=" ">
<polygon fill="white" stroke="none" points="189.88,-179.88 12.38,-179.88 12.38,-125.62 189.88,-125.62 189.88,-179.88"/>
<text xml:space="preserve" text-anchor="start" x="16.38" y="-166.12" font-family="Helvetica,sans-Serif" font-size="10.00">UAnimCompress_LeastDestructive</text>
<text xml:space="preserve" text-anchor="start" x="98.12" y="-149.38" font-family="Helvetica,sans-Serif" font-size="10.00"> </text>
<text xml:space="preserve" text-anchor="start" x="98.12" y="-132.62" font-family="Helvetica,sans-Serif" font-size="10.00"> </text>
<polygon fill="#666666" stroke="#666666" points="12.38,-161.12 12.38,-161.12 189.88,-161.12 189.88,-161.12 12.38,-161.12"/>
<polygon fill="#666666" stroke="#666666" points="12.38,-144.38 12.38,-144.38 189.88,-144.38 189.88,-144.38 12.38,-144.38"/>
<polygon fill="none" stroke="#666666" points="12.38,-125.62 12.38,-179.88 189.88,-179.88 189.88,-125.62 12.38,-125.62"/>
</a>
</g>
</g>
<!-- Node4&#45;&gt;Node5 -->
<g id="edge4_Node000004_Node000005" class="edge">
<title>Node4&#45;&gt;Node5</title>
<g id="a_edge4_Node000004_Node000005"><a xlink:title=" ">
<path fill="none" stroke="#63b8ff" d="M101.12,-502.46C101.12,-424.82 101.12,-246.72 101.12,-179.8"/>
<polygon fill="none" stroke="#63b8ff" points="97.63,-502.08 101.13,-512.08 104.63,-502.08 97.63,-502.08"/>
</a>
</g>
</g>
<!-- Node8 -->
<g id="Node000008" class="node">
<title>Node8</title>
<g id="a_Node000008"><a xlink:href="classUAnimCompress__PerTrackCompression.html" target="_top" xlink:title=" ">
<polygon fill="white" stroke="none" points="618.12,-305.5 402.12,-305.5 402.12,0 618.12,0 618.12,-305.5"/>
<text xml:space="preserve" text-anchor="start" x="413.75" y="-291.75" font-family="Helvetica,sans-Serif" font-size="10.00">UAnimCompress_PerTrackCompression</text>
<text xml:space="preserve" text-anchor="start" x="408.38" y="-275" font-family="Helvetica,sans-Serif" font-size="10.00">&#45;</text>
<text xml:space="preserve" text-anchor="start" x="418.38" y="-275" font-family="Helvetica,sans-Serif" font-size="10.00">MaxZeroingThreshold</text>
<text xml:space="preserve" text-anchor="start" x="408.38" y="-258.25" font-family="Helvetica,sans-Serif" font-size="10.00">&#45;</text>
<text xml:space="preserve" text-anchor="start" x="418.38" y="-258.25" font-family="Helvetica,sans-Serif" font-size="10.00">MaxPosDiffBitwise</text>
<text xml:space="preserve" text-anchor="start" x="408.38" y="-241.5" font-family="Helvetica,sans-Serif" font-size="10.00">&#45;</text>
<text xml:space="preserve" text-anchor="start" x="418.38" y="-241.5" font-family="Helvetica,sans-Serif" font-size="10.00">MaxAngleDiffBitwise</text>
<text xml:space="preserve" text-anchor="start" x="408.38" y="-224.75" font-family="Helvetica,sans-Serif" font-size="10.00">&#45;</text>
<text xml:space="preserve" text-anchor="start" x="418.38" y="-224.75" font-family="Helvetica,sans-Serif" font-size="10.00">MaxScaleDiffBitwise</text>
<text xml:space="preserve" text-anchor="start" x="408.38" y="-208" font-family="Helvetica,sans-Serif" font-size="10.00">&#45;</text>
<text xml:space="preserve" text-anchor="start" x="418.38" y="-208" font-family="Helvetica,sans-Serif" font-size="10.00">AllowedRotationFormats</text>
<text xml:space="preserve" text-anchor="start" x="408.38" y="-191.25" font-family="Helvetica,sans-Serif" font-size="10.00">&#45;</text>
<text xml:space="preserve" text-anchor="start" x="418.38" y="-191.25" font-family="Helvetica,sans-Serif" font-size="10.00">AllowedTranslationFormats</text>
<text xml:space="preserve" text-anchor="start" x="408.38" y="-174.5" font-family="Helvetica,sans-Serif" font-size="10.00">&#45;</text>
<text xml:space="preserve" text-anchor="start" x="418.38" y="-174.5" font-family="Helvetica,sans-Serif" font-size="10.00">AllowedScaleFormats</text>
<text xml:space="preserve" text-anchor="start" x="408.38" y="-157.75" font-family="Helvetica,sans-Serif" font-size="10.00">&#45;</text>
<text xml:space="preserve" text-anchor="start" x="418.38" y="-157.75" font-family="Helvetica,sans-Serif" font-size="10.00">bResampleAnimation</text>
<text xml:space="preserve" text-anchor="start" x="408.38" y="-141" font-family="Helvetica,sans-Serif" font-size="10.00">&#45;</text>
<text xml:space="preserve" text-anchor="start" x="418.38" y="-141" font-family="Helvetica,sans-Serif" font-size="10.00">ResampledFramerate</text>
<text xml:space="preserve" text-anchor="start" x="408.38" y="-124.25" font-family="Helvetica,sans-Serif" font-size="10.00">&#45;</text>
<text xml:space="preserve" text-anchor="start" x="418.38" y="-124.25" font-family="Helvetica,sans-Serif" font-size="10.00">MinKeysForResampling</text>
<text xml:space="preserve" text-anchor="start" x="418.38" y="-107.5" font-family="Helvetica,sans-Serif" font-size="10.00">and 11 more...</text>
<text xml:space="preserve" text-anchor="start" x="406.12" y="-90.75" font-family="Helvetica,sans-Serif" font-size="10.00">+</text>
<text xml:space="preserve" text-anchor="start" x="418.38" y="-90.75" font-family="Helvetica,sans-Serif" font-size="10.00">DecompressBone()</text>
<text xml:space="preserve" text-anchor="start" x="406.12" y="-74" font-family="Helvetica,sans-Serif" font-size="10.00">#</text>
<text xml:space="preserve" text-anchor="start" x="418.38" y="-74" font-family="Helvetica,sans-Serif" font-size="10.00">PostEditChangeProperty()</text>
<text xml:space="preserve" text-anchor="start" x="406.12" y="-57.25" font-family="Helvetica,sans-Serif" font-size="10.00">#</text>
<text xml:space="preserve" text-anchor="start" x="418.38" y="-57.25" font-family="Helvetica,sans-Serif" font-size="10.00">DoReduction()</text>
<text xml:space="preserve" text-anchor="start" x="406.12" y="-40.5" font-family="Helvetica,sans-Serif" font-size="10.00">#</text>
<text xml:space="preserve" text-anchor="start" x="418.38" y="-40.5" font-family="Helvetica,sans-Serif" font-size="10.00">PopulateDDCKey()</text>
<text xml:space="preserve" text-anchor="start" x="406.12" y="-23.75" font-family="Helvetica,sans-Serif" font-size="10.00">#</text>
<text xml:space="preserve" text-anchor="start" x="418.38" y="-23.75" font-family="Helvetica,sans-Serif" font-size="10.00">CompressUsingUnderlyingCompressor()</text>
<text xml:space="preserve" text-anchor="start" x="406.12" y="-7" font-family="Helvetica,sans-Serif" font-size="10.00">#</text>
<text xml:space="preserve" text-anchor="start" x="418.38" y="-7" font-family="Helvetica,sans-Serif" font-size="10.00">FilterBeforeMainKeyRemoval()</text>
<polygon fill="#666666" stroke="#666666" points="402.12,-286.75 402.12,-286.75 618.12,-286.75 618.12,-286.75 402.12,-286.75"/>
<polygon fill="#666666" stroke="#666666" points="402.12,-102.5 402.12,-102.5 416.38,-102.5 416.38,-102.5 402.12,-102.5"/>
<polygon fill="#666666" stroke="#666666" points="416.38,-102.5 416.38,-102.5 618.12,-102.5 618.12,-102.5 416.38,-102.5"/>
<polygon fill="none" stroke="#666666" points="402.12,0 402.12,-305.5 618.12,-305.5 618.12,0 402.12,0"/>
</a>
</g>
</g>
<!-- Node7&#45;&gt;Node8 -->
<g id="edge7_Node000007_Node000008" class="edge">
<title>Node7&#45;&gt;Node8</title>
<g id="a_edge7_Node000007_Node000008"><a xlink:title=" ">
<path fill="none" stroke="#63b8ff" d="M510.12,-330.19C510.12,-321.89 510.12,-313.62 510.12,-305.46"/>
<polygon fill="none" stroke="#63b8ff" points="506.63,-330.03 510.13,-340.03 513.63,-330.03 506.63,-330.03"/>
</a>
</g>
</g>
</g>
</svg>

<g id="navigator" transform="translate(0 0)" fill="#404254">
  <rect fill="#f2f5e9" fill-opacity="0.5" stroke="#606060" stroke-width=".5" x="0" y="0" width="60" height="60"/>
  <use id="zoomplus" xlink:href="#zoomPlus" x="17" y="9" onmousedown="handleZoom(evt,'in')"/>
  <use id="zoomminus" xlink:href="#zoomMin" x="42" y="9" onmousedown="handleZoom(evt,'out')"/>
  <use id="reset" xlink:href="#resetDef" x="30" y="36" onmousedown="handleReset()"/>
   <use id="arrowup" xlink:href="#arrowUp" x="0" y="0" onmousedown="handlePan(0,-1)"/>
  <use id="arrowright" xlink:href="#arrowRight" x="0" y="0" onmousedown="handlePan(1,0)"/>
  <use id="arrowdown" xlink:href="#arrowDown" x="0" y="0" onmousedown="handlePan(0,1)"/>
  <use id="arrowleft" xlink:href="#arrowLeft" x="0" y="0" onmousedown="handlePan(-1,0)"/>
</g>
<svg viewBox="0 0 15 15" width="100%" height="30px" preserveAspectRatio="xMaxYMin meet">
 <g id="arrow_out" transform="scale(0.3 0.3)">
  <a xlink:href="classUAnimCompress__inherit__graph_org.svg" target="_base">
   <rect id="button" ry="5" rx="5" y="6" x="6" height="38" width="38"
        fill="#f2f5e9" fill-opacity="0.5" stroke="#606060" stroke-width="1.0"/>
   <path id="arrow"
     d="M 11.500037,31.436501 C 11.940474,20.09759 22.043105,11.32322 32.158766,21.979434 L 37.068811,17.246167 C 37.068811,17.246167 37.088388,32 37.088388,32 L 22.160133,31.978069 C 22.160133,31.978069 26.997745,27.140456 26.997745,27.140456 C 18.528582,18.264221 13.291696,25.230495 11.500037,31.436501 z"
     style="fill:#404040;"/>
  </a>
 </g>
</svg>

<style type='text/css'>
<![CDATA[
[data-mouse-over-selected='false'] { opacity: 0.7; }
[data-mouse-over-selected='true']  { opacity: 1.0; }
]]>
</style>
<script type="application/ecmascript"><![CDATA[
document.addEventListener('DOMContentLoaded', (event) => {
  highlightEdges();
  highlightAdjacentNodes();
});
]]></script>
</svg>
