<?xml version="1.0" encoding="UTF-8" standalone="no"?>
<!DOCTYPE svg PUBLIC "-//W3C//DTD SVG 1.1//EN"
 "http://www.w3.org/Graphics/SVG/1.1/DTD/svg11.dtd">
<!-- Generated by graphviz version 14.1.4 (0)
 -->
<!-- Title: FBufferOwner::FBufferOwner Pages: 1 -->
<svg width="563pt" height="133pt"
 viewBox="0.00 0.00 563.00 133.00" xmlns="http://www.w3.org/2000/svg" xmlns:xlink="http://www.w3.org/1999/xlink">
<g id="graph0" class="graph" transform="scale(1 1) rotate(0) translate(4 128.5)">
<title>FBufferOwner::FBufferOwner</title>
<!-- Node1 -->
<g id="Node000001" class="node">
<title>Node1</title>
<g id="a_Node000001"><a xlink:title=" ">
<polygon fill="#999999" stroke="#666666" points="555,-85.5 398,-85.5 398,-64.75 555,-64.75 555,-85.5"/>
<text xml:space="preserve" text-anchor="middle" x="476.5" y="-72" font-family="Helvetica,sans-Serif" font-size="10.00">FBufferOwner::FBufferOwner</text>
</a>
</g>
</g>
<!-- Node2 -->
<g id="Node000002" class="node">
<title>Node2</title>
<g id="a_Node000002"><a xlink:href="$classFBufferOwner.html#abba127bfdc14a0a57d4f4a6f2a37c025" xlink:title=" ">
<polygon fill="white" stroke="#666666" points="359,-124.5 202,-124.5 202,-103.75 359,-103.75 359,-124.5"/>
<text xml:space="preserve" text-anchor="middle" x="280.5" y="-111" font-family="Helvetica,sans-Serif" font-size="10.00">FBufferOwner::FBufferOwner</text>
</a>
</g>
</g>
<!-- Node1&#45;&gt;Node2 -->
<g id="edge1_Node000001_Node000002" class="edge">
<title>Node1&#45;&gt;Node2</title>
<g id="a_edge1_Node000001_Node000002"><a xlink:title=" ">
<path fill="none" stroke="#63b8ff" d="M410.19,-88.25C385.94,-93.13 358.72,-98.6 335.59,-103.25"/>
<polygon fill="#63b8ff" stroke="#63b8ff" points="410.86,-91.69 419.98,-86.29 409.48,-84.83 410.86,-91.69"/>
</a>
</g>
</g>
<!-- Node3 -->
<g id="Node000003" class="node">
<title>Node3</title>
<g id="a_Node000003"><a xlink:href="$classFBufferOwner.html#a9afad0b2b51c2cb90373083f302c6dd6" xlink:title=" ">
<polygon fill="white" stroke="#666666" points="350,-85.5 211,-85.5 211,-64.75 350,-64.75 350,-85.5"/>
<text xml:space="preserve" text-anchor="middle" x="280.5" y="-72" font-family="Helvetica,sans-Serif" font-size="10.00">FBufferOwner::operator=</text>
</a>
</g>
</g>
<!-- Node1&#45;&gt;Node3 -->
<g id="edge2_Node000001_Node000003" class="edge">
<title>Node1&#45;&gt;Node3</title>
<g id="a_edge2_Node000001_Node000003"><a xlink:title=" ">
<path fill="none" stroke="#63b8ff" d="M386.2,-75.12C374.12,-75.12 361.87,-75.12 350.23,-75.12"/>
<polygon fill="#63b8ff" stroke="#63b8ff" points="386.2,-78.63 396.2,-75.13 386.2,-71.63 386.2,-78.63"/>
</a>
</g>
</g>
<!-- Node4 -->
<g id="Node000004" class="node">
<title>Node4</title>
<g id="a_Node000004"><a xlink:href="$classUE_1_1SharedBuffer_1_1Private_1_1TBufferOwnerDeleteFunction.html#a2e448b63af2982ba632e94726c2c6a37" xlink:title=" ">
<polygon fill="white" stroke="#666666" points="362,-46.25 199,-46.25 199,0 362,0 362,-46.25"/>
<text xml:space="preserve" text-anchor="start" x="207" y="-32.75" font-family="Helvetica,sans-Serif" font-size="10.00">UE::SharedBuffer::Private</text>
<text xml:space="preserve" text-anchor="start" x="207" y="-20" font-family="Helvetica,sans-Serif" font-size="10.00">::TBufferOwnerDeleteFunction</text>
<text xml:space="preserve" text-anchor="middle" x="280.5" y="-7.25" font-family="Helvetica,sans-Serif" font-size="10.00">::TBufferOwnerDeleteFunction</text>
</a>
</g>
</g>
<!-- Node1&#45;&gt;Node4 -->
<g id="edge3_Node000001_Node000004" class="edge">
<title>Node1&#45;&gt;Node4</title>
<g id="a_edge3_Node000001_Node000004"><a xlink:title=" ">
<path fill="none" stroke="#63b8ff" d="M424.24,-61.39C405.32,-56.31 383.38,-50.43 362.46,-44.83"/>
<polygon fill="#63b8ff" stroke="#63b8ff" points="423.28,-64.75 433.84,-63.96 425.09,-57.99 423.28,-64.75"/>
</a>
</g>
</g>
<!-- Node5 -->
<g id="Node000005" class="node">
<title>Node5</title>
<g id="a_Node000005"><a xlink:href="$classUE_1_1SharedBuffer_1_1Private_1_1TBufferOwnerDeleteFunction.html#aea21f0782c91aa760939ed1556a01f64" xlink:title=" ">
<polygon fill="white" stroke="#666666" points="163,-46.25 0,-46.25 0,0 163,0 163,-46.25"/>
<text xml:space="preserve" text-anchor="start" x="8" y="-32.75" font-family="Helvetica,sans-Serif" font-size="10.00">UE::SharedBuffer::Private</text>
<text xml:space="preserve" text-anchor="start" x="8" y="-20" font-family="Helvetica,sans-Serif" font-size="10.00">::TBufferOwnerDeleteFunction</text>
<text xml:space="preserve" text-anchor="middle" x="81.5" y="-7.25" font-family="Helvetica,sans-Serif" font-size="10.00">::TBufferOwnerDeleteFunction</text>
</a>
</g>
</g>
<!-- Node4&#45;&gt;Node5 -->
<g id="edge4_Node000004_Node000005" class="edge">
<title>Node4&#45;&gt;Node5</title>
<g id="a_edge4_Node000004_Node000005"><a xlink:title=" ">
<path fill="none" stroke="#63b8ff" d="M187.05,-23.12C179.18,-23.12 171.26,-23.12 163.48,-23.12"/>
<polygon fill="#63b8ff" stroke="#63b8ff" points="187.01,-26.63 197.01,-23.13 187.01,-19.63 187.01,-26.63"/>
</a>
</g>
</g>
</g>
</svg>
