<?xml version="1.0" encoding="UTF-8" standalone="no"?>
<!DOCTYPE svg PUBLIC "-//W3C//DTD SVG 1.1//EN"
 "http://www.w3.org/Graphics/SVG/1.1/DTD/svg11.dtd">
<!-- Generated by graphviz version 14.1.4 (0)
 -->
<!-- Title: UAssetManager::LoadPrimaryAsset Pages: 1 -->
<svg width="536pt" height="60pt"
 viewBox="0.00 0.00 536.00 60.00" xmlns="http://www.w3.org/2000/svg" xmlns:xlink="http://www.w3.org/1999/xlink">
<g id="graph0" class="graph" transform="scale(1 1) rotate(0) translate(4 55.5)">
<title>UAssetManager::LoadPrimaryAsset</title>
<!-- Node1 -->
<g id="Node000001" class="node">
<title>Node1</title>
<g id="a_Node000001"><a xlink:title=" ">
<polygon fill="#999999" stroke="#666666" points="160.75,-33.5 0,-33.5 0,0 160.75,0 160.75,-33.5"/>
<text xml:space="preserve" text-anchor="start" x="8" y="-20" font-family="Helvetica,sans-Serif" font-size="10.00">UAssetManager::LoadPrimary</text>
<text xml:space="preserve" text-anchor="middle" x="80.38" y="-7.25" font-family="Helvetica,sans-Serif" font-size="10.00">Asset</text>
</a>
</g>
</g>
<!-- Node2 -->
<g id="Node000002" class="node">
<title>Node2</title>
<g id="a_Node000002"><a xlink:href="classUAssetManager.html#abe6f0432a4ef8d7057df7586558cf504" target="_top" xlink:title=" ">
<polygon fill="white" stroke="#666666" points="357.5,-33.5 196.75,-33.5 196.75,0 357.5,0 357.5,-33.5"/>
<text xml:space="preserve" text-anchor="start" x="204.75" y="-20" font-family="Helvetica,sans-Serif" font-size="10.00">UAssetManager::LoadPrimary</text>
<text xml:space="preserve" text-anchor="middle" x="277.12" y="-7.25" font-family="Helvetica,sans-Serif" font-size="10.00">AssetsWithType</text>
</a>
</g>
</g>
<!-- Node1&#45;&gt;Node2 -->
<g id="edge1_Node000001_Node000002" class="edge">
<title>Node1&#45;&gt;Node2</title>
<g id="a_edge1_Node000001_Node000002"><a xlink:title=" ">
<path fill="none" stroke="#63b8ff" d="M161.15,-16.75C169.07,-16.75 177.16,-16.75 185.19,-16.75"/>
<polygon fill="#63b8ff" stroke="#63b8ff" points="184.96,-20.25 194.96,-16.75 184.96,-13.25 184.96,-20.25"/>
</a>
</g>
</g>
<!-- Node2&#45;&gt;Node2 -->
<g id="edge2_Node000002_Node000002" class="edge">
<title>Node2&#45;&gt;Node2</title>
<g id="a_edge2_Node000002_Node000002"><a xlink:title=" ">
<path fill="none" stroke="#63b8ff" d="M244.12,-33.91C238.51,-43.12 249.51,-51.5 277.12,-51.5 292.66,-51.5 302.94,-48.85 307.96,-44.89"/>
<polygon fill="#63b8ff" stroke="#63b8ff" points="311.33,-45.89 309.84,-35.4 304.46,-44.53 311.33,-45.89"/>
</a>
</g>
</g>
<!-- Node3 -->
<g id="Node000003" class="node">
<title>Node3</title>
<g id="a_Node000003"><a xlink:href="namespaceUE_1_1StreamableManager_1_1Private.html#a00637ebe99fe79a82195a3f86b486e9d" target="_top" xlink:title=" ">
<polygon fill="white" stroke="#666666" points="528,-33.5 393.5,-33.5 393.5,0 528,0 528,-33.5"/>
<text xml:space="preserve" text-anchor="start" x="401.5" y="-20" font-family="Helvetica,sans-Serif" font-size="10.00">UE::StreamableManager</text>
<text xml:space="preserve" text-anchor="middle" x="460.75" y="-7.25" font-family="Helvetica,sans-Serif" font-size="10.00">::Private::WrapDelegate</text>
</a>
</g>
</g>
<!-- Node2&#45;&gt;Node3 -->
<g id="edge3_Node000002_Node000003" class="edge">
<title>Node2&#45;&gt;Node3</title>
<g id="a_edge3_Node000002_Node000003"><a xlink:title=" ">
<path fill="none" stroke="#63b8ff" d="M357.79,-16.75C365.73,-16.75 373.79,-16.75 381.71,-16.75"/>
<polygon fill="#63b8ff" stroke="#63b8ff" points="381.68,-20.25 391.68,-16.75 381.68,-13.25 381.68,-20.25"/>
</a>
</g>
</g>
</g>
</svg>
