<?xml version="1.0" encoding="UTF-8" standalone="no"?>
<!DOCTYPE svg PUBLIC "-//W3C//DTD SVG 1.1//EN"
 "http://www.w3.org/Graphics/SVG/1.1/DTD/svg11.dtd">
<!-- Generated by graphviz version 14.1.4 (0)
 -->
<!-- Title: UParticleModuleTrailBase Pages: 1 -->
<!--zoomable 704 -->

<svg id="main" version="1.1" xmlns="http://www.w3.org/2000/svg" xmlns:xlink="http://www.w3.org/1999/xlink" xml:space="preserve" onload="init(evt)">

<style type="text/css"><![CDATA[
.node, .edge {opacity: 0.7;}
.node.selected, .edge.selected {opacity: 1;}
.edge:hover path { stroke: red; }
.edge:hover polygon { stroke: red; fill: red; }
]]></style>

<defs>
  <circle id="rim" cx="0" cy="0" r="7"/>
  <circle id="rim2" cx="0" cy="0" r="3.5"/>
  <g id="zoomPlus">
    <use xlink:href="#rim" fill="#404040"><set attributeName="fill" to="#808080" begin="zoomplus.mouseover" end="zoomplus.mouseout"/></use>
    <path d="M-4,0h8M0,-4v8" fill="none" stroke="white" stroke-width="1.5" pointer-events="none"/>
  </g>
  <g id="zoomMin">
    <use xlink:href="#rim" fill="#404040"><set attributeName="fill" to="#808080" begin="zoomminus.mouseover" end="zoomminus.mouseout"/></use>
    <path d="M-4,0h8" fill="none" stroke="white" stroke-width="1.5" pointer-events="none"/>
  </g>
  <g id="arrowUp" transform="translate(30 24)">
    <use xlink:href="#rim"/>
    <path pointer-events="none" fill="none" stroke="white" stroke-width="1.5" d="M0,-3.0v7 M-2.5,-0.5L0,-3.0L2.5,-0.5"/>
  </g>
  <g id="arrowRight" transform="rotate(90) translate(36 -43)">
    <use xlink:href="#rim"/>
    <path pointer-events="none" fill="none" stroke="white" stroke-width="1.5" d="M0,-3.0v7 M-2.5,-0.5L0,-3.0L2.5,-0.5"/>
  </g>
  <g id="arrowDown" transform="rotate(180) translate(-30 -48)">
    <use xlink:href="#rim"/>
    <path pointer-events="none" fill="none" stroke="white" stroke-width="1.5" d="M0,-3.0v7 M-2.5,-0.5L0,-3.0L2.5,-0.5"/>
  </g>
  <g id="arrowLeft" transform="rotate(270) translate(-36 17)">
    <use xlink:href="#rim"/>
    <path pointer-events="none" fill="none" stroke="white" stroke-width="1.5" d="M0,-3.0v7 M-2.5,-0.5L0,-3.0L2.5,-0.5"/>
  </g>
  <g id="resetDef">
    <use xlink:href="#rim2" fill="#404040"><set attributeName="fill" to="#808080" begin="reset.mouseover" end="reset.mouseout"/></use>
  </g>
</defs>
<script type="application/ecmascript">
var viewWidth = 170;
var viewHeight = 704;
var sectionId = 'dynsection-1';
</script>
<script type="application/ecmascript" xlink:href="svg.min.js"/>
<svg id="graph" class="graph">
<g id="viewport">
<title>UParticleModuleTrailBase</title>
<!-- Node1 -->
<g id="Node000001" class="node">
<title>Node1</title>
<g id="a_Node000001"><a xlink:title=" ">
<polygon fill="#999999" stroke="none" points="147.62,-71 14.38,-71 14.38,0 147.62,0 147.62,-71"/>
<text xml:space="preserve" text-anchor="start" x="18.38" y="-57.25" font-family="Helvetica,sans-Serif" font-size="10.00">UParticleModuleTrailBase</text>
<text xml:space="preserve" text-anchor="start" x="78" y="-40.5" font-family="Helvetica,sans-Serif" font-size="10.00"> </text>
<text xml:space="preserve" text-anchor="start" x="20.94" y="-23.75" font-family="Helvetica,sans-Serif" font-size="10.00">&#45;</text>
<text xml:space="preserve" text-anchor="start" x="31.25" y="-23.75" font-family="Helvetica,sans-Serif" font-size="10.00">GetModuleType()</text>
<text xml:space="preserve" text-anchor="start" x="20.94" y="-7" font-family="Helvetica,sans-Serif" font-size="10.00">&#45;</text>
<text xml:space="preserve" text-anchor="start" x="31.25" y="-7" font-family="Helvetica,sans-Serif" font-size="10.00">CanTickInAnyThread()</text>
<polygon fill="#666666" stroke="#666666" points="14.38,-52.25 14.38,-52.25 147.62,-52.25 147.62,-52.25 14.38,-52.25"/>
<polygon fill="#666666" stroke="#666666" points="14.38,-35.5 14.38,-35.5 147.62,-35.5 147.62,-35.5 14.38,-35.5"/>
<polygon fill="none" stroke="#666666" points="14.38,0 14.38,-71 147.62,-71 147.62,0 14.38,0"/>
</a>
</g>
</g>
<!-- Node2 -->
<g id="Node000002" class="node">
<title>Node2</title>
<g id="a_Node000002"><a xlink:href="classUParticleModule.html" target="_top" xlink:title=" ">
<polygon fill="white" stroke="none" points="162,-605.5 0,-605.5 0,-107 162,-107 162,-605.5"/>
<text xml:space="preserve" text-anchor="start" x="40.88" y="-591.75" font-family="Helvetica,sans-Serif" font-size="10.00">UParticleModule</text>
<text xml:space="preserve" text-anchor="start" x="4" y="-575" font-family="Helvetica,sans-Serif" font-size="10.00">&#45;</text>
<text xml:space="preserve" text-anchor="start" x="11.75" y="-575" font-family="Helvetica,sans-Serif" font-size="10.00">bSpawnModule</text>
<text xml:space="preserve" text-anchor="start" x="4" y="-558.25" font-family="Helvetica,sans-Serif" font-size="10.00">&#45;</text>
<text xml:space="preserve" text-anchor="start" x="11.75" y="-558.25" font-family="Helvetica,sans-Serif" font-size="10.00">bUpdateModule</text>
<text xml:space="preserve" text-anchor="start" x="4" y="-541.5" font-family="Helvetica,sans-Serif" font-size="10.00">&#45;</text>
<text xml:space="preserve" text-anchor="start" x="11.75" y="-541.5" font-family="Helvetica,sans-Serif" font-size="10.00">bFinalUpdateModule</text>
<text xml:space="preserve" text-anchor="start" x="4" y="-524.75" font-family="Helvetica,sans-Serif" font-size="10.00">&#45;</text>
<text xml:space="preserve" text-anchor="start" x="11.75" y="-524.75" font-family="Helvetica,sans-Serif" font-size="10.00">bUpdateForGPUEmitter</text>
<text xml:space="preserve" text-anchor="start" x="4" y="-508" font-family="Helvetica,sans-Serif" font-size="10.00">&#45;</text>
<text xml:space="preserve" text-anchor="start" x="11.75" y="-508" font-family="Helvetica,sans-Serif" font-size="10.00">bCurvesAsColor</text>
<text xml:space="preserve" text-anchor="start" x="4" y="-491.25" font-family="Helvetica,sans-Serif" font-size="10.00">&#45;</text>
<text xml:space="preserve" text-anchor="start" x="11.75" y="-491.25" font-family="Helvetica,sans-Serif" font-size="10.00">b3DDrawMode</text>
<text xml:space="preserve" text-anchor="start" x="4" y="-474.5" font-family="Helvetica,sans-Serif" font-size="10.00">&#45;</text>
<text xml:space="preserve" text-anchor="start" x="11.75" y="-474.5" font-family="Helvetica,sans-Serif" font-size="10.00">bSupported3DDrawMode</text>
<text xml:space="preserve" text-anchor="start" x="4" y="-457.75" font-family="Helvetica,sans-Serif" font-size="10.00">&#45;</text>
<text xml:space="preserve" text-anchor="start" x="11.75" y="-457.75" font-family="Helvetica,sans-Serif" font-size="10.00">bEnabled</text>
<text xml:space="preserve" text-anchor="start" x="4" y="-441" font-family="Helvetica,sans-Serif" font-size="10.00">&#45;</text>
<text xml:space="preserve" text-anchor="start" x="11.75" y="-441" font-family="Helvetica,sans-Serif" font-size="10.00">bEditable</text>
<text xml:space="preserve" text-anchor="start" x="4" y="-424.25" font-family="Helvetica,sans-Serif" font-size="10.00">&#45;</text>
<text xml:space="preserve" text-anchor="start" x="11.75" y="-424.25" font-family="Helvetica,sans-Serif" font-size="10.00">LODDuplicate</text>
<text xml:space="preserve" text-anchor="start" x="4" y="-407.5" font-family="Helvetica,sans-Serif" font-size="10.00">&#45;</text>
<text xml:space="preserve" text-anchor="start" x="11.75" y="-407.5" font-family="Helvetica,sans-Serif" font-size="10.00">bSupportsRandomSeed</text>
<text xml:space="preserve" text-anchor="start" x="4" y="-390.75" font-family="Helvetica,sans-Serif" font-size="10.00">&#45;</text>
<text xml:space="preserve" text-anchor="start" x="11.75" y="-390.75" font-family="Helvetica,sans-Serif" font-size="10.00">bRequiresLoopingNotification</text>
<text xml:space="preserve" text-anchor="start" x="4" y="-374" font-family="Helvetica,sans-Serif" font-size="10.00">&#45;</text>
<text xml:space="preserve" text-anchor="start" x="11.75" y="-374" font-family="Helvetica,sans-Serif" font-size="10.00">LODValidity</text>
<text xml:space="preserve" text-anchor="start" x="4" y="-357.25" font-family="Helvetica,sans-Serif" font-size="10.00">&#45;</text>
<text xml:space="preserve" text-anchor="start" x="11.75" y="-357.25" font-family="Helvetica,sans-Serif" font-size="10.00">IsPostLoadThreadSafe()</text>
<text xml:space="preserve" text-anchor="start" x="4" y="-340.5" font-family="Helvetica,sans-Serif" font-size="10.00">&#45;</text>
<text xml:space="preserve" text-anchor="start" x="11.75" y="-340.5" font-family="Helvetica,sans-Serif" font-size="10.00">PostEditChangeProperty()</text>
<text xml:space="preserve" text-anchor="start" x="4" y="-323.75" font-family="Helvetica,sans-Serif" font-size="10.00">&#45;</text>
<text xml:space="preserve" text-anchor="start" x="11.75" y="-323.75" font-family="Helvetica,sans-Serif" font-size="10.00">CompileModule()</text>
<text xml:space="preserve" text-anchor="start" x="4" y="-307" font-family="Helvetica,sans-Serif" font-size="10.00">&#45;</text>
<text xml:space="preserve" text-anchor="start" x="11.75" y="-307" font-family="Helvetica,sans-Serif" font-size="10.00">Spawn()</text>
<text xml:space="preserve" text-anchor="start" x="4" y="-290.25" font-family="Helvetica,sans-Serif" font-size="10.00">&#45;</text>
<text xml:space="preserve" text-anchor="start" x="11.75" y="-290.25" font-family="Helvetica,sans-Serif" font-size="10.00">Update()</text>
<text xml:space="preserve" text-anchor="start" x="4" y="-273.5" font-family="Helvetica,sans-Serif" font-size="10.00">&#45;</text>
<text xml:space="preserve" text-anchor="start" x="11.75" y="-273.5" font-family="Helvetica,sans-Serif" font-size="10.00">FinalUpdate()</text>
<text xml:space="preserve" text-anchor="start" x="4" y="-256.75" font-family="Helvetica,sans-Serif" font-size="10.00">&#45;</text>
<text xml:space="preserve" text-anchor="start" x="11.75" y="-256.75" font-family="Helvetica,sans-Serif" font-size="10.00">RequiredBytes()</text>
<text xml:space="preserve" text-anchor="start" x="4" y="-240" font-family="Helvetica,sans-Serif" font-size="10.00">&#45;</text>
<text xml:space="preserve" text-anchor="start" x="11.75" y="-240" font-family="Helvetica,sans-Serif" font-size="10.00">RequiredBytesPerInstance()</text>
<text xml:space="preserve" text-anchor="start" x="4" y="-223.25" font-family="Helvetica,sans-Serif" font-size="10.00">&#45;</text>
<text xml:space="preserve" text-anchor="start" x="11.75" y="-223.25" font-family="Helvetica,sans-Serif" font-size="10.00">PrepPerInstanceBlock()</text>
<text xml:space="preserve" text-anchor="start" x="4" y="-206.5" font-family="Helvetica,sans-Serif" font-size="10.00">&#45;</text>
<text xml:space="preserve" text-anchor="start" x="11.75" y="-206.5" font-family="Helvetica,sans-Serif" font-size="10.00">SetToSensibleDefaults()</text>
<text xml:space="preserve" text-anchor="start" x="11.75" y="-189.75" font-family="Helvetica,sans-Serif" font-size="10.00">and 35 more...</text>
<text xml:space="preserve" text-anchor="start" x="4" y="-173" font-family="Helvetica,sans-Serif" font-size="10.00">&#45;</text>
<text xml:space="preserve" text-anchor="start" x="11.75" y="-173" font-family="Helvetica,sans-Serif" font-size="10.00">GetDistributionsRestricted</text>
<text xml:space="preserve" text-anchor="start" x="11.75" y="-160.25" font-family="Helvetica,sans-Serif" font-size="10.00">OnGPU()</text>
<text xml:space="preserve" text-anchor="start" x="4" y="-143.5" font-family="Helvetica,sans-Serif" font-size="10.00">&#45;</text>
<text xml:space="preserve" text-anchor="start" x="11.75" y="-143.5" font-family="Helvetica,sans-Serif" font-size="10.00">IsDistributionAllowedOnGPU()</text>
<text xml:space="preserve" text-anchor="start" x="4" y="-126.75" font-family="Helvetica,sans-Serif" font-size="10.00">&#45;</text>
<text xml:space="preserve" text-anchor="start" x="11.75" y="-126.75" font-family="Helvetica,sans-Serif" font-size="10.00">GetDistributionNotAllowed</text>
<text xml:space="preserve" text-anchor="start" x="11.75" y="-114" font-family="Helvetica,sans-Serif" font-size="10.00">OnGPUText()</text>
<polygon fill="#666666" stroke="#666666" points="0,-586.75 0,-586.75 162,-586.75 162,-586.75 0,-586.75"/>
<polygon fill="#666666" stroke="#666666" points="0,-369 0,-369 9.75,-369 9.75,-369 0,-369"/>
<polygon fill="#666666" stroke="#666666" points="9.75,-369 9.75,-369 162,-369 162,-369 9.75,-369"/>
<polygon fill="none" stroke="#666666" points="0,-107 0,-605.5 162,-605.5 162,-107 0,-107"/>
</a>
</g>
</g>
<!-- Node2&#45;&gt;Node1 -->
<g id="edge1_Node000001_Node000002" class="edge">
<title>Node2&#45;&gt;Node1</title>
<g id="a_edge1_Node000001_Node000002"><a xlink:title=" ">
<path fill="none" stroke="#63b8ff" d="M81,-95.73C81,-86.58 81,-78.17 81,-70.73"/>
<polygon fill="none" stroke="#63b8ff" points="77.5,-95.73 81,-105.73 84.5,-95.73 77.5,-95.73"/>
</a>
</g>
</g>
<!-- Node3 -->
<g id="Node000003" class="node">
<title>Node3</title>
<g id="a_Node000003"><a xlink:title=" ">
<polygon fill="white" stroke="none" points="104.5,-695.75 57.5,-695.75 57.5,-641.5 104.5,-641.5 104.5,-695.75"/>
<text xml:space="preserve" text-anchor="start" x="61.5" y="-682" font-family="Helvetica,sans-Serif" font-size="10.00">UObject</text>
<text xml:space="preserve" text-anchor="start" x="78" y="-665.25" font-family="Helvetica,sans-Serif" font-size="10.00"> </text>
<text xml:space="preserve" text-anchor="start" x="78" y="-648.5" font-family="Helvetica,sans-Serif" font-size="10.00"> </text>
<polygon fill="#666666" stroke="#666666" points="57.5,-677 57.5,-677 104.5,-677 104.5,-677 57.5,-677"/>
<polygon fill="#666666" stroke="#666666" points="57.5,-660.25 57.5,-660.25 104.5,-660.25 104.5,-660.25 57.5,-660.25"/>
<polygon fill="none" stroke="#666666" points="57.5,-641.5 57.5,-695.75 104.5,-695.75 104.5,-641.5 57.5,-641.5"/>
</a>
</g>
</g>
<!-- Node3&#45;&gt;Node2 -->
<g id="edge2_Node000002_Node000003" class="edge">
<title>Node3&#45;&gt;Node2</title>
<g id="a_edge2_Node000002_Node000003"><a xlink:title=" ">
<path fill="none" stroke="#63b8ff" d="M81,-630.31C81,-622.8 81,-614.39 81,-605.32"/>
<polygon fill="none" stroke="#63b8ff" points="77.5,-630.18 81,-640.18 84.5,-630.18 77.5,-630.18"/>
</a>
</g>
</g>
</g>
</svg>

<g id="navigator" transform="translate(0 0)" fill="#404254">
  <rect fill="#f2f5e9" fill-opacity="0.5" stroke="#606060" stroke-width=".5" x="0" y="0" width="60" height="60"/>
  <use id="zoomplus" xlink:href="#zoomPlus" x="17" y="9" onmousedown="handleZoom(evt,'in')"/>
  <use id="zoomminus" xlink:href="#zoomMin" x="42" y="9" onmousedown="handleZoom(evt,'out')"/>
  <use id="reset" xlink:href="#resetDef" x="30" y="36" onmousedown="handleReset()"/>
   <use id="arrowup" xlink:href="#arrowUp" x="0" y="0" onmousedown="handlePan(0,-1)"/>
  <use id="arrowright" xlink:href="#arrowRight" x="0" y="0" onmousedown="handlePan(1,0)"/>
  <use id="arrowdown" xlink:href="#arrowDown" x="0" y="0" onmousedown="handlePan(0,1)"/>
  <use id="arrowleft" xlink:href="#arrowLeft" x="0" y="0" onmousedown="handlePan(-1,0)"/>
</g>
<svg viewBox="0 0 15 15" width="100%" height="30px" preserveAspectRatio="xMaxYMin meet">
 <g id="arrow_out" transform="scale(0.3 0.3)">
  <a xlink:href="classUParticleModuleTrailBase__coll__graph_org.svg" target="_base">
   <rect id="button" ry="5" rx="5" y="6" x="6" height="38" width="38"
        fill="#f2f5e9" fill-opacity="0.5" stroke="#606060" stroke-width="1.0"/>
   <path id="arrow"
     d="M 11.500037,31.436501 C 11.940474,20.09759 22.043105,11.32322 32.158766,21.979434 L 37.068811,17.246167 C 37.068811,17.246167 37.088388,32 37.088388,32 L 22.160133,31.978069 C 22.160133,31.978069 26.997745,27.140456 26.997745,27.140456 C 18.528582,18.264221 13.291696,25.230495 11.500037,31.436501 z"
     style="fill:#404040;"/>
  </a>
 </g>
</svg>

<style type='text/css'>
<![CDATA[
[data-mouse-over-selected='false'] { opacity: 0.7; }
[data-mouse-over-selected='true']  { opacity: 1.0; }
]]>
</style>
<script type="application/ecmascript"><![CDATA[
document.addEventListener('DOMContentLoaded', (event) => {
  highlightEdges();
  highlightAdjacentNodes();
});
]]></script>
</svg>
