<?xml version="1.0" encoding="UTF-8" standalone="no"?>
<!DOCTYPE svg PUBLIC "-//W3C//DTD SVG 1.1//EN"
 "http://www.w3.org/Graphics/SVG/1.1/DTD/svg11.dtd">
<!-- Generated by graphviz version 14.1.4 (0)
 -->
<!-- Title: FBDDAutomationTestBase::GetTests Pages: 1 -->
<svg width="502pt" height="132pt"
 viewBox="0.00 0.00 502.00 132.00" xmlns="http://www.w3.org/2000/svg" xmlns:xlink="http://www.w3.org/1999/xlink">
<g id="graph0" class="graph" transform="scale(1 1) rotate(0) translate(4 128.12)">
<title>FBDDAutomationTestBase::GetTests</title>
<!-- Node1 -->
<g id="Node000001" class="node">
<title>Node1</title>
<g id="a_Node000001"><a xlink:title=" ">
<polygon fill="#999999" stroke="#666666" points="144.25,-85.5 0,-85.5 0,-52 144.25,-52 144.25,-85.5"/>
<text xml:space="preserve" text-anchor="start" x="8" y="-72" font-family="Helvetica,sans-Serif" font-size="10.00">FBDDAutomationTestBase</text>
<text xml:space="preserve" text-anchor="middle" x="72.12" y="-59.25" font-family="Helvetica,sans-Serif" font-size="10.00">::GetTests</text>
</a>
</g>
</g>
<!-- Node2 -->
<g id="Node000002" class="node">
<title>Node2</title>
<g id="a_Node000002"><a xlink:href="$classTArray.html#a74ede47cac56b1d41830719f29a4882d" xlink:title=" ">
<polygon fill="white" stroke="#666666" points="300.5,-124.12 210.25,-124.12 210.25,-103.38 300.5,-103.38 300.5,-124.12"/>
<text xml:space="preserve" text-anchor="middle" x="255.38" y="-110.62" font-family="Helvetica,sans-Serif" font-size="10.00">TArray::Append</text>
</a>
</g>
</g>
<!-- Node1&#45;&gt;Node2 -->
<g id="edge1_Node000001_Node000002" class="edge">
<title>Node1&#45;&gt;Node2</title>
<g id="a_edge1_Node000001_Node000002"><a xlink:title=" ">
<path fill="none" stroke="#63b8ff" d="M142.42,-85.96C161.46,-90.68 181.82,-95.74 199.9,-100.22"/>
<polygon fill="#63b8ff" stroke="#63b8ff" points="198.8,-103.56 209.35,-102.57 200.49,-96.77 198.8,-103.56"/>
</a>
</g>
</g>
<!-- Node3 -->
<g id="Node000003" class="node">
<title>Node3</title>
<g id="a_Node000003"><a xlink:href="$classFBDDAutomationTestBase.html#a6effac49233a7545066ed5da896bd6c8" xlink:title=" ">
<polygon fill="white" stroke="#666666" points="330.5,-85.5 180.25,-85.5 180.25,-52 330.5,-52 330.5,-85.5"/>
<text xml:space="preserve" text-anchor="start" x="188.25" y="-72" font-family="Helvetica,sans-Serif" font-size="10.00">FBDDAutomationTestBase</text>
<text xml:space="preserve" text-anchor="middle" x="255.38" y="-59.25" font-family="Helvetica,sans-Serif" font-size="10.00">::FBDDAutomationTestBase</text>
</a>
</g>
</g>
<!-- Node1&#45;&gt;Node3 -->
<g id="edge2_Node000001_Node000003" class="edge">
<title>Node1&#45;&gt;Node3</title>
<g id="a_edge2_Node000001_Node000003"><a xlink:title=" ">
<path fill="none" stroke="#63b8ff" d="M144.5,-68.75C152.38,-68.75 160.46,-68.75 168.49,-68.75"/>
<polygon fill="#63b8ff" stroke="#63b8ff" points="168.27,-72.25 178.27,-68.75 168.27,-65.25 168.27,-72.25"/>
</a>
</g>
</g>
<!-- Node5 -->
<g id="Node000005" class="node">
<title>Node5</title>
<g id="a_Node000005"><a xlink:href="$classFBDDAutomationTestBase.html#a923fc99c459e14327336d8afad5c2011" xlink:title=" ">
<polygon fill="white" stroke="#666666" points="327.5,-33.5 183.25,-33.5 183.25,0 327.5,0 327.5,-33.5"/>
<text xml:space="preserve" text-anchor="start" x="191.25" y="-20" font-family="Helvetica,sans-Serif" font-size="10.00">FBDDAutomationTestBase</text>
<text xml:space="preserve" text-anchor="middle" x="255.38" y="-7.25" font-family="Helvetica,sans-Serif" font-size="10.00">::RunTest</text>
</a>
</g>
</g>
<!-- Node1&#45;&gt;Node5 -->
<g id="edge4_Node000001_Node000005" class="edge">
<title>Node1&#45;&gt;Node5</title>
<g id="a_edge4_Node000001_Node000005"><a xlink:title=" ">
<path fill="none" stroke="#63b8ff" d="M133.23,-51.51C149.37,-46.87 166.98,-41.82 183.65,-37.04"/>
<polygon fill="#63b8ff" stroke="#63b8ff" points="184.33,-40.49 192.98,-34.36 182.4,-33.76 184.33,-40.49"/>
</a>
</g>
</g>
<!-- Node4 -->
<g id="Node000004" class="node">
<title>Node4</title>
<g id="a_Node000004"><a xlink:href="$classFAutomationTestBase.html#add74e6564642aacf42f00123fe32ecd2" xlink:title=" ">
<polygon fill="white" stroke="#666666" points="494.25,-85.5 366.5,-85.5 366.5,-52 494.25,-52 494.25,-85.5"/>
<text xml:space="preserve" text-anchor="start" x="374.5" y="-72" font-family="Helvetica,sans-Serif" font-size="10.00">FAutomationTestBase</text>
<text xml:space="preserve" text-anchor="middle" x="430.38" y="-59.25" font-family="Helvetica,sans-Serif" font-size="10.00">::FAutomationTestBase</text>
</a>
</g>
</g>
<!-- Node3&#45;&gt;Node4 -->
<g id="edge3_Node000003_Node000004" class="edge">
<title>Node3&#45;&gt;Node4</title>
<g id="a_edge3_Node000003_Node000004"><a xlink:title=" ">
<path fill="none" stroke="#63b8ff" d="M331,-68.75C338.86,-68.75 346.86,-68.75 354.73,-68.75"/>
<polygon fill="#63b8ff" stroke="#63b8ff" points="354.61,-72.25 364.61,-68.75 354.61,-65.25 354.61,-72.25"/>
</a>
</g>
</g>
</g>
</svg>
