<?xml version="1.0" encoding="UTF-8" standalone="no"?>
<!DOCTYPE svg PUBLIC "-//W3C//DTD SVG 1.1//EN"
 "http://www.w3.org/Graphics/SVG/1.1/DTD/svg11.dtd">
<!-- Generated by graphviz version 14.1.4 (0)
 -->
<!-- Title: UTexture2DArray::GetPlatformData Pages: 1 -->
<!--zoomable 145 -->

<svg id="main" version="1.1" xmlns="http://www.w3.org/2000/svg" xmlns:xlink="http://www.w3.org/1999/xlink" xml:space="preserve" onload="init(evt)">

<style type="text/css"><![CDATA[
.node, .edge {opacity: 0.7;}
.node.selected, .edge.selected {opacity: 1;}
.edge:hover path { stroke: red; }
.edge:hover polygon { stroke: red; fill: red; }
]]></style>

<defs>
  <circle id="rim" cx="0" cy="0" r="7"/>
  <circle id="rim2" cx="0" cy="0" r="3.5"/>
  <g id="zoomPlus">
    <use xlink:href="#rim" fill="#404040"><set attributeName="fill" to="#808080" begin="zoomplus.mouseover" end="zoomplus.mouseout"/></use>
    <path d="M-4,0h8M0,-4v8" fill="none" stroke="white" stroke-width="1.5" pointer-events="none"/>
  </g>
  <g id="zoomMin">
    <use xlink:href="#rim" fill="#404040"><set attributeName="fill" to="#808080" begin="zoomminus.mouseover" end="zoomminus.mouseout"/></use>
    <path d="M-4,0h8" fill="none" stroke="white" stroke-width="1.5" pointer-events="none"/>
  </g>
  <g id="arrowUp" transform="translate(30 24)">
    <use xlink:href="#rim"/>
    <path pointer-events="none" fill="none" stroke="white" stroke-width="1.5" d="M0,-3.0v7 M-2.5,-0.5L0,-3.0L2.5,-0.5"/>
  </g>
  <g id="arrowRight" transform="rotate(90) translate(36 -43)">
    <use xlink:href="#rim"/>
    <path pointer-events="none" fill="none" stroke="white" stroke-width="1.5" d="M0,-3.0v7 M-2.5,-0.5L0,-3.0L2.5,-0.5"/>
  </g>
  <g id="arrowDown" transform="rotate(180) translate(-30 -48)">
    <use xlink:href="#rim"/>
    <path pointer-events="none" fill="none" stroke="white" stroke-width="1.5" d="M0,-3.0v7 M-2.5,-0.5L0,-3.0L2.5,-0.5"/>
  </g>
  <g id="arrowLeft" transform="rotate(270) translate(-36 17)">
    <use xlink:href="#rim"/>
    <path pointer-events="none" fill="none" stroke="white" stroke-width="1.5" d="M0,-3.0v7 M-2.5,-0.5L0,-3.0L2.5,-0.5"/>
  </g>
  <g id="resetDef">
    <use xlink:href="#rim2" fill="#404040"><set attributeName="fill" to="#808080" begin="reset.mouseover" end="reset.mouseout"/></use>
  </g>
</defs>
<script type="application/ecmascript">
var viewWidth = 833;
var viewHeight = 145;
var sectionId = 'dynsection-21';
</script>
<script type="application/ecmascript" xlink:href="svg.min.js"/>
<svg id="graph" class="graph">
<g id="viewport">
<title>UTexture2DArray::GetPlatformData</title>
<!-- Node1 -->
<g id="Node000001" class="node">
<title>Node1</title>
<g id="a_Node000001"><a xlink:title=" ">
<polygon fill="#999999" stroke="#666666" points="825.25,-59.75 638.25,-59.75 638.25,-39 825.25,-39 825.25,-59.75"/>
<text xml:space="preserve" text-anchor="middle" x="731.75" y="-46.25" font-family="Helvetica,sans-Serif" font-size="10.00">UTexture2DArray::GetPlatformData</text>
</a>
</g>
</g>
<!-- Node1&#45;&gt;Node1 -->
<g id="edge8_Node000001_Node000001" class="edge">
<title>Node1&#45;&gt;Node1</title>
<g id="a_edge8_Node000001_Node000001"><a xlink:title=" ">
<path fill="none" stroke="#63b8ff" d="M770.95,-70.9C766.12,-74.92 753.06,-77.75 731.75,-77.75 693.87,-77.75 682.04,-68.81 696.24,-60.15"/>
<polygon fill="#63b8ff" stroke="#63b8ff" points="774.31,-69.9 767.75,-61.58 767.68,-72.17 774.31,-69.9"/>
</a>
</g>
</g>
<!-- Node2 -->
<g id="Node000002" class="node">
<title>Node2</title>
<g id="a_Node000002"><a xlink:href="classUTexture2DArray.html#a467c195c003d8a9bf5ccfe6ce280e4a0" target="_top" xlink:title=" ">
<polygon fill="white" stroke="#666666" points="592.12,-111.12 430.62,-111.12 430.62,-77.62 592.12,-77.62 592.12,-111.12"/>
<text xml:space="preserve" text-anchor="start" x="438.62" y="-97.62" font-family="Helvetica,sans-Serif" font-size="10.00">UTexture2DArray::CalcTexture</text>
<text xml:space="preserve" text-anchor="middle" x="511.38" y="-84.88" font-family="Helvetica,sans-Serif" font-size="10.00">MemorySize</text>
</a>
</g>
</g>
<!-- Node1&#45;&gt;Node2 -->
<g id="edge1_Node000001_Node000002" class="edge">
<title>Node1&#45;&gt;Node2</title>
<g id="a_edge1_Node000001_Node000002"><a xlink:title=" ">
<path fill="none" stroke="#63b8ff" d="M666.98,-62.52C643.6,-67.33 616.84,-72.85 592.23,-77.92"/>
<polygon fill="#63b8ff" stroke="#63b8ff" points="667.6,-65.96 676.68,-60.52 666.18,-59.11 667.6,-65.96"/>
</a>
</g>
</g>
<!-- Node6 -->
<g id="Node000006" class="node">
<title>Node6</title>
<g id="a_Node000006"><a xlink:href="classUTexture2DArray.html#a4f62610d1e5bd15eeaa5202c880a1e46" target="_top" xlink:title=" ">
<polygon fill="white" stroke="#666666" points="602.25,-59.75 420.5,-59.75 420.5,-39 602.25,-39 602.25,-59.75"/>
<text xml:space="preserve" text-anchor="middle" x="511.38" y="-46.25" font-family="Helvetica,sans-Serif" font-size="10.00">UTexture2DArray::CreateResource</text>
</a>
</g>
</g>
<!-- Node1&#45;&gt;Node6 -->
<g id="edge6_Node000001_Node000006" class="edge">
<title>Node1&#45;&gt;Node6</title>
<g id="a_edge6_Node000001_Node000006"><a xlink:title=" ">
<path fill="none" stroke="#63b8ff" d="M626.5,-49.38C618.45,-49.38 610.38,-49.38 602.44,-49.38"/>
<polygon fill="#63b8ff" stroke="#63b8ff" points="626.31,-52.88 636.31,-49.38 626.31,-45.88 626.31,-52.88"/>
</a>
</g>
</g>
<!-- Node7 -->
<g id="Node000007" class="node">
<title>Node7</title>
<g id="a_Node000007"><a xlink:href="classUTexture2DArray.html#a62a8cf5ce72bf0ebed594f659939758e" target="_top" xlink:title=" ">
<polygon fill="white" stroke="#666666" points="602.25,-20.75 420.5,-20.75 420.5,0 602.25,0 602.25,-20.75"/>
<text xml:space="preserve" text-anchor="middle" x="511.38" y="-7.25" font-family="Helvetica,sans-Serif" font-size="10.00">UTexture2DArray::CreateTransient</text>
</a>
</g>
</g>
<!-- Node1&#45;&gt;Node7 -->
<g id="edge7_Node000001_Node000007" class="edge">
<title>Node1&#45;&gt;Node7</title>
<g id="a_edge7_Node000001_Node000007"><a xlink:title=" ">
<path fill="none" stroke="#63b8ff" d="M658.71,-36.51C631.05,-31.57 599.77,-25.98 573.26,-21.25"/>
<polygon fill="#63b8ff" stroke="#63b8ff" points="657.97,-39.93 668.43,-38.25 659.2,-33.04 657.97,-39.93"/>
</a>
</g>
</g>
<!-- Node2&#45;&gt;Node2 -->
<g id="edge3_Node000002_Node000002" class="edge">
<title>Node2&#45;&gt;Node2</title>
<g id="a_edge3_Node000002_Node000002"><a xlink:title=" ">
<path fill="none" stroke="#63b8ff" d="M547.69,-122.68C541.64,-126.55 529.54,-129.12 511.38,-129.12 478.63,-129.12 465.58,-120.74 472.23,-111.54"/>
<polygon fill="#63b8ff" stroke="#63b8ff" points="551.07,-123.56 550.15,-113.01 544.29,-121.83 551.07,-123.56"/>
</a>
</g>
</g>
<!-- Node3 -->
<g id="Node000003" class="node">
<title>Node3</title>
<g id="a_Node000003"><a xlink:href="classUTexture2DArray.html#a4aa84f00592295efcdf2babdbc8cb068" target="_top" xlink:title=" ">
<polygon fill="white" stroke="#666666" points="384.5,-137.12 202.75,-137.12 202.75,-103.62 384.5,-103.62 384.5,-137.12"/>
<text xml:space="preserve" text-anchor="start" x="210.75" y="-123.62" font-family="Helvetica,sans-Serif" font-size="10.00">UTexture2DArray::CalcCumulative</text>
<text xml:space="preserve" text-anchor="middle" x="293.62" y="-110.88" font-family="Helvetica,sans-Serif" font-size="10.00">LODSize</text>
</a>
</g>
</g>
<!-- Node2&#45;&gt;Node3 -->
<g id="edge2_Node000002_Node000003" class="edge">
<title>Node2&#45;&gt;Node3</title>
<g id="a_edge2_Node000002_Node000003"><a xlink:title=" ">
<path fill="none" stroke="#63b8ff" d="M419.07,-105.38C407.69,-106.75 396.06,-108.15 384.7,-109.52"/>
<polygon fill="#63b8ff" stroke="#63b8ff" points="419.33,-108.87 428.84,-104.2 418.49,-101.92 419.33,-108.87"/>
</a>
</g>
</g>
<!-- Node4 -->
<g id="Node000004" class="node">
<title>Node4</title>
<g id="a_Node000004"><a xlink:href="classUTexture2DArray.html#a7bff8f6e2433b44dd5582d93855b236c" target="_top" xlink:title=" ">
<polygon fill="white" stroke="#666666" points="374.38,-85.12 212.88,-85.12 212.88,-51.62 374.38,-51.62 374.38,-85.12"/>
<text xml:space="preserve" text-anchor="start" x="220.88" y="-71.62" font-family="Helvetica,sans-Serif" font-size="10.00">UTexture2DArray::CalcTexture</text>
<text xml:space="preserve" text-anchor="middle" x="293.62" y="-58.88" font-family="Helvetica,sans-Serif" font-size="10.00">MemorySizeEnum</text>
</a>
</g>
</g>
<!-- Node2&#45;&gt;Node4 -->
<g id="edge4_Node000002_Node000004" class="edge">
<title>Node2&#45;&gt;Node4</title>
<g id="a_edge4_Node000002_Node000004"><a xlink:title=" ">
<path fill="none" stroke="#63b8ff" d="M419.11,-83.38C404.3,-81.59 389.05,-79.75 374.53,-78"/>
<polygon fill="#63b8ff" stroke="#63b8ff" points="418.49,-86.83 428.84,-84.55 419.33,-79.88 418.49,-86.83"/>
</a>
</g>
</g>
<!-- Node5 -->
<g id="Node000005" class="node">
<title>Node5</title>
<g id="a_Node000005"><a xlink:href="classUTexture2DArray.html#a29fcfaf859346880aabdf6bed2f20ada" target="_top" xlink:title=" ">
<polygon fill="white" stroke="#666666" points="166.75,-85.12 0,-85.12 0,-51.62 166.75,-51.62 166.75,-85.12"/>
<text xml:space="preserve" text-anchor="start" x="8" y="-71.62" font-family="Helvetica,sans-Serif" font-size="10.00">UTexture2DArray::GetResource</text>
<text xml:space="preserve" text-anchor="middle" x="83.38" y="-58.88" font-family="Helvetica,sans-Serif" font-size="10.00">SizeEx</text>
</a>
</g>
</g>
<!-- Node4&#45;&gt;Node5 -->
<g id="edge5_Node000004_Node000005" class="edge">
<title>Node4&#45;&gt;Node5</title>
<g id="a_edge5_Node000004_Node000005"><a xlink:title=" ">
<path fill="none" stroke="#63b8ff" d="M201.13,-68.38C189.76,-68.38 178.19,-68.38 166.96,-68.38"/>
<polygon fill="#63b8ff" stroke="#63b8ff" points="200.89,-71.88 210.89,-68.38 200.89,-64.88 200.89,-71.88"/>
</a>
</g>
</g>
</g>
</svg>

<g id="navigator" transform="translate(0 0)" fill="#404254">
  <rect fill="#f2f5e9" fill-opacity="0.5" stroke="#606060" stroke-width=".5" x="0" y="0" width="60" height="60"/>
  <use id="zoomplus" xlink:href="#zoomPlus" x="17" y="9" onmousedown="handleZoom(evt,'in')"/>
  <use id="zoomminus" xlink:href="#zoomMin" x="42" y="9" onmousedown="handleZoom(evt,'out')"/>
  <use id="reset" xlink:href="#resetDef" x="30" y="36" onmousedown="handleReset()"/>
   <use id="arrowup" xlink:href="#arrowUp" x="0" y="0" onmousedown="handlePan(0,-1)"/>
  <use id="arrowright" xlink:href="#arrowRight" x="0" y="0" onmousedown="handlePan(1,0)"/>
  <use id="arrowdown" xlink:href="#arrowDown" x="0" y="0" onmousedown="handlePan(0,1)"/>
  <use id="arrowleft" xlink:href="#arrowLeft" x="0" y="0" onmousedown="handlePan(-1,0)"/>
</g>
<svg viewBox="0 0 15 15" width="100%" height="30px" preserveAspectRatio="xMaxYMin meet">
 <g id="arrow_out" transform="scale(0.3 0.3)">
  <a xlink:href="classUTexture2DArray_af2d38e639288084bb90e02571dd0a080_icgraph_org.svg" target="_base">
   <rect id="button" ry="5" rx="5" y="6" x="6" height="38" width="38"
        fill="#f2f5e9" fill-opacity="0.5" stroke="#606060" stroke-width="1.0"/>
   <path id="arrow"
     d="M 11.500037,31.436501 C 11.940474,20.09759 22.043105,11.32322 32.158766,21.979434 L 37.068811,17.246167 C 37.068811,17.246167 37.088388,32 37.088388,32 L 22.160133,31.978069 C 22.160133,31.978069 26.997745,27.140456 26.997745,27.140456 C 18.528582,18.264221 13.291696,25.230495 11.500037,31.436501 z"
     style="fill:#404040;"/>
  </a>
 </g>
</svg>

<style type='text/css'>
<![CDATA[
[data-mouse-over-selected='false'] { opacity: 0.7; }
[data-mouse-over-selected='true']  { opacity: 1.0; }
]]>
</style>
<script type="application/ecmascript"><![CDATA[
document.addEventListener('DOMContentLoaded', (event) => {
  highlightEdges();
  highlightAdjacentNodes();
});
]]></script>
</svg>
