<?xml version="1.0" encoding="UTF-8" standalone="no"?>
<!DOCTYPE svg PUBLIC "-//W3C//DTD SVG 1.1//EN"
 "http://www.w3.org/Graphics/SVG/1.1/DTD/svg11.dtd">
<!-- Generated by graphviz version 14.1.4 (0)
 -->
<!-- Title: UE_STRING_CLASS::RightInline Pages: 1 -->
<svg width="378pt" height="68pt"
 viewBox="0.00 0.00 378.00 68.00" xmlns="http://www.w3.org/2000/svg" xmlns:xlink="http://www.w3.org/1999/xlink">
<g id="graph0" class="graph" transform="scale(1 1) rotate(0) translate(4 63.75)">
<title>UE_STRING_CLASS::RightInline</title>
<!-- Node1 -->
<g id="Node000001" class="node">
<title>Node1</title>
<g id="a_Node000001"><a xlink:title=" ">
<polygon fill="#999999" stroke="#666666" points="369.5,-39.75 202.75,-39.75 202.75,-19 369.5,-19 369.5,-39.75"/>
<text xml:space="preserve" text-anchor="middle" x="286.12" y="-26.25" font-family="Helvetica,sans-Serif" font-size="10.00">UE_STRING_CLASS::RightInline</text>
</a>
</g>
</g>
<!-- Node2 -->
<g id="Node000002" class="node">
<title>Node2</title>
<g id="a_Node000002"><a xlink:href="$classUE__STRING__CLASS.html#a2b4d66ea3773898550935e42cfef5915" xlink:title=" ">
<polygon fill="white" stroke="#666666" points="153.25,-59.75 13.5,-59.75 13.5,-39 153.25,-39 153.25,-59.75"/>
<text xml:space="preserve" text-anchor="middle" x="83.38" y="-46.25" font-family="Helvetica,sans-Serif" font-size="10.00">UE_STRING_CLASS::Right</text>
</a>
</g>
</g>
<!-- Node1&#45;&gt;Node2 -->
<g id="edge1_Node000001_Node000002" class="edge">
<title>Node1&#45;&gt;Node2</title>
<g id="a_edge1_Node000001_Node000002"><a xlink:title=" ">
<path fill="none" stroke="#63b8ff" d="M191.23,-38.73C178.54,-39.99 165.72,-41.27 153.58,-42.48"/>
<polygon fill="#63b8ff" stroke="#63b8ff" points="191.2,-42.25 200.81,-37.78 190.51,-35.28 191.2,-42.25"/>
</a>
</g>
</g>
<!-- Node3 -->
<g id="Node000003" class="node">
<title>Node3</title>
<g id="a_Node000003"><a xlink:href="$classUE__STRING__CLASS.html#a5d0b3ca4ac273ea0fb3861754c970bb1" xlink:title=" ">
<polygon fill="white" stroke="#666666" points="166.75,-20.75 0,-20.75 0,0 166.75,0 166.75,-20.75"/>
<text xml:space="preserve" text-anchor="middle" x="83.38" y="-7.25" font-family="Helvetica,sans-Serif" font-size="10.00">UE_STRING_CLASS::RightInline</text>
</a>
</g>
</g>
<!-- Node1&#45;&gt;Node3 -->
<g id="edge2_Node000001_Node000003" class="edge">
<title>Node1&#45;&gt;Node3</title>
<g id="a_edge2_Node000001_Node000003"><a xlink:title=" ">
<path fill="none" stroke="#63b8ff" d="M191.03,-20.47C183,-19.71 174.92,-18.94 167,-18.19"/>
<polygon fill="#63b8ff" stroke="#63b8ff" points="190.52,-23.94 200.81,-21.39 191.18,-16.97 190.52,-23.94"/>
</a>
</g>
</g>
</g>
</svg>
