<?xml version="1.0" encoding="UTF-8" standalone="no"?>
<!DOCTYPE svg PUBLIC "-//W3C//DTD SVG 1.1//EN"
 "http://www.w3.org/Graphics/SVG/1.1/DTD/svg11.dtd">
<!-- Generated by graphviz version 14.1.4 (0)
 -->
<!-- Title: FStringTableEntry::NewStringTableEntry Pages: 1 -->
<svg width="548pt" height="189pt"
 viewBox="0.00 0.00 548.00 189.00" xmlns="http://www.w3.org/2000/svg" xmlns:xlink="http://www.w3.org/1999/xlink">
<g id="graph0" class="graph" transform="scale(1 1) rotate(0) translate(4 185.09)">
<title>FStringTableEntry::NewStringTableEntry</title>
<!-- Node1 -->
<g id="Node000001" class="node">
<title>Node1</title>
<g id="a_Node000001"><a xlink:title=" ">
<polygon fill="#999999" stroke="#666666" points="117.25,-94.5 0,-94.5 0,-61 117.25,-61 117.25,-94.5"/>
<text xml:space="preserve" text-anchor="start" x="8" y="-81" font-family="Helvetica,sans-Serif" font-size="10.00">FStringTableEntry::</text>
<text xml:space="preserve" text-anchor="middle" x="58.62" y="-68.25" font-family="Helvetica,sans-Serif" font-size="10.00">NewStringTableEntry</text>
</a>
</g>
</g>
<!-- Node2 -->
<g id="Node000002" class="node">
<title>Node2</title>
<g id="a_Node000002"><a xlink:href="$SharedPointer_8h.html#a1af9d23e1e2b412bb8fbbcbc533985f4" xlink:title=" ">
<polygon fill="white" stroke="#666666" points="229.25,-108.12 153.25,-108.12 153.25,-87.38 229.25,-87.38 229.25,-108.12"/>
<text xml:space="preserve" text-anchor="middle" x="191.25" y="-94.62" font-family="Helvetica,sans-Serif" font-size="10.00">MakeShared</text>
</a>
</g>
</g>
<!-- Node1&#45;&gt;Node2 -->
<g id="edge1_Node000001_Node000002" class="edge">
<title>Node1&#45;&gt;Node2</title>
<g id="a_edge1_Node000001_Node000002"><a xlink:title=" ">
<path fill="none" stroke="#63b8ff" d="M117.68,-86.64C125.74,-87.87 133.94,-89.13 141.8,-90.33"/>
<polygon fill="#63b8ff" stroke="#63b8ff" points="141.09,-93.76 151.51,-91.82 142.15,-86.84 141.09,-93.76"/>
</a>
</g>
</g>
<!-- Node7 -->
<g id="Node000007" class="node">
<title>Node7</title>
<g id="a_Node000007"><a xlink:href="$UnrealTemplate_8h.html#a6affb55ac4c80f005e72b931da3d3a55" xlink:title=" ">
<polygon fill="white" stroke="#666666" points="225.88,-69.12 156.62,-69.12 156.62,-48.38 225.88,-48.38 225.88,-69.12"/>
<text xml:space="preserve" text-anchor="middle" x="191.25" y="-55.62" font-family="Helvetica,sans-Serif" font-size="10.00">MoveTemp</text>
</a>
</g>
</g>
<!-- Node1&#45;&gt;Node7 -->
<g id="edge7_Node000001_Node000007" class="edge">
<title>Node1&#45;&gt;Node7</title>
<g id="a_edge7_Node000001_Node000007"><a xlink:title=" ">
<path fill="none" stroke="#63b8ff" d="M117.68,-69.31C126.87,-67.97 136.26,-66.6 145.1,-65.32"/>
<polygon fill="#63b8ff" stroke="#63b8ff" points="145.45,-68.8 154.84,-63.9 144.44,-61.88 145.45,-68.8"/>
</a>
</g>
</g>
<!-- Node3 -->
<g id="Node000003" class="node">
<title>Node3</title>
<g id="a_Node000003"><a xlink:href="$UnrealTemplate_8h.html#aea228b8b6d93b902d974d3bfa72f888f" xlink:title=" ">
<polygon fill="white" stroke="#666666" points="540.25,-107.12 485.25,-107.12 485.25,-86.38 540.25,-86.38 540.25,-107.12"/>
<text xml:space="preserve" text-anchor="middle" x="512.75" y="-93.62" font-family="Helvetica,sans-Serif" font-size="10.00">Forward</text>
</a>
</g>
</g>
<!-- Node2&#45;&gt;Node3 -->
<g id="edge2_Node000002_Node000003" class="edge">
<title>Node2&#45;&gt;Node3</title>
<g id="a_edge2_Node000002_Node000003"><a xlink:title=" ">
<path fill="none" stroke="#63b8ff" d="M200.75,-108.5C213.12,-123.15 237.61,-148.72 265.25,-158.75 342.12,-186.64 373.63,-189.89 449.25,-158.75 469.69,-150.33 486.98,-131.64 498.16,-116.96"/>
<polygon fill="#63b8ff" stroke="#63b8ff" points="501,-119.01 504,-108.85 495.32,-114.92 501,-119.01"/>
</a>
</g>
</g>
<!-- Node4 -->
<g id="Node000004" class="node">
<title>Node4</title>
<g id="a_Node000004"><a xlink:href="$classSharedPointerInternals_1_1TIntrusiveReferenceController.html#abbed2fe02963777a4ec2fb6c2d619beb" xlink:title=" ">
<polygon fill="white" stroke="#666666" points="441.38,-149.88 273.12,-149.88 273.12,-103.62 441.38,-103.62 441.38,-149.88"/>
<text xml:space="preserve" text-anchor="start" x="281.12" y="-136.38" font-family="Helvetica,sans-Serif" font-size="10.00">SharedPointerInternals</text>
<text xml:space="preserve" text-anchor="start" x="281.12" y="-123.62" font-family="Helvetica,sans-Serif" font-size="10.00">::TIntrusiveReferenceController</text>
<text xml:space="preserve" text-anchor="middle" x="357.25" y="-110.88" font-family="Helvetica,sans-Serif" font-size="10.00">::GetObjectPtr</text>
</a>
</g>
</g>
<!-- Node2&#45;&gt;Node4 -->
<g id="edge3_Node000002_Node000004" class="edge">
<title>Node2&#45;&gt;Node4</title>
<g id="a_edge3_Node000002_Node000004"><a xlink:title=" ">
<path fill="none" stroke="#63b8ff" d="M229.46,-104.33C239.17,-106.05 250.09,-107.98 261.35,-109.97"/>
<polygon fill="#63b8ff" stroke="#63b8ff" points="260.73,-113.41 271.19,-111.71 261.95,-106.52 260.73,-113.41"/>
</a>
</g>
</g>
<!-- Node5 -->
<g id="Node000005" class="node">
<title>Node5</title>
<g id="a_Node000005"><a xlink:href="$namespaceUE_1_1Core_1_1Private.html#adb58860be76a3f751261f8b30f3dc322" xlink:title=" ">
<polygon fill="white" stroke="#666666" points="409.5,-85.5 305,-85.5 305,-52 409.5,-52 409.5,-85.5"/>
<text xml:space="preserve" text-anchor="start" x="313" y="-72" font-family="Helvetica,sans-Serif" font-size="10.00">UE::Core::Private::</text>
<text xml:space="preserve" text-anchor="middle" x="357.25" y="-59.25" font-family="Helvetica,sans-Serif" font-size="10.00">MakeSharedRef</text>
</a>
</g>
</g>
<!-- Node2&#45;&gt;Node5 -->
<g id="edge4_Node000002_Node000005" class="edge">
<title>Node2&#45;&gt;Node5</title>
<g id="a_edge4_Node000002_Node000005"><a xlink:title=" ">
<path fill="none" stroke="#63b8ff" d="M229.46,-91.17C248.38,-87.83 271.87,-83.67 293.48,-79.85"/>
<polygon fill="#63b8ff" stroke="#63b8ff" points="293.85,-83.34 303.09,-78.15 292.63,-76.45 293.85,-83.34"/>
</a>
</g>
</g>
<!-- Node6 -->
<g id="Node000006" class="node">
<title>Node6</title>
<g id="a_Node000006"><a xlink:href="$namespaceSharedPointerInternals.html#a27870bf9f0653ce64eb0333857178446" xlink:title=" ">
<polygon fill="white" stroke="#666666" points="449.25,-33.5 265.25,-33.5 265.25,0 449.25,0 449.25,-33.5"/>
<text xml:space="preserve" text-anchor="start" x="273.25" y="-20" font-family="Helvetica,sans-Serif" font-size="10.00">SharedPointerInternals</text>
<text xml:space="preserve" text-anchor="middle" x="357.25" y="-7.25" font-family="Helvetica,sans-Serif" font-size="10.00">::NewIntrusiveReferenceController</text>
</a>
</g>
</g>
<!-- Node2&#45;&gt;Node6 -->
<g id="edge5_Node000002_Node000006" class="edge">
<title>Node2&#45;&gt;Node6</title>
<g id="a_edge5_Node000002_Node000006"><a xlink:title=" ">
<path fill="none" stroke="#63b8ff" d="M214.38,-87.08C219.43,-84.29 224.66,-81.12 229.25,-77.75 247.24,-64.54 245.94,-53.93 265.25,-42.75 267.89,-41.22 270.63,-39.78 273.43,-38.41"/>
<polygon fill="#63b8ff" stroke="#63b8ff" points="274.72,-41.67 282.46,-34.43 271.89,-35.27 274.72,-41.67"/>
</a>
</g>
</g>
<!-- Node6&#45;&gt;Node3 -->
<g id="edge6_Node000006_Node000003" class="edge">
<title>Node6&#45;&gt;Node3</title>
<g id="a_edge6_Node000006_Node000003"><a xlink:title=" ">
<path fill="none" stroke="#63b8ff" d="M429.5,-33.82C436.34,-36.43 443.03,-39.39 449.25,-42.75 466.14,-51.88 482.46,-66.23 494.18,-77.84"/>
<polygon fill="#63b8ff" stroke="#63b8ff" points="491.64,-80.25 501.13,-84.97 496.66,-75.37 491.64,-80.25"/>
</a>
</g>
</g>
</g>
</svg>
