<?xml version="1.0" encoding="UTF-8" standalone="no"?>
<!DOCTYPE svg PUBLIC "-//W3C//DTD SVG 1.1//EN"
 "http://www.w3.org/Graphics/SVG/1.1/DTD/svg11.dtd">
<!-- Generated by graphviz version 14.1.4 (0)
 -->
<!-- Title: FQuartzTickableObject::OnMetronomeEvent Pages: 1 -->
<svg width="536pt" height="94pt"
 viewBox="0.00 0.00 536.00 94.00" xmlns="http://www.w3.org/2000/svg" xmlns:xlink="http://www.w3.org/1999/xlink">
<g id="graph0" class="graph" transform="scale(1 1) rotate(0) translate(4 89.5)">
<title>FQuartzTickableObject::OnMetronomeEvent</title>
<!-- Node1 -->
<g id="Node000001" class="node">
<title>Node1</title>
<g id="a_Node000001"><a xlink:title=" ">
<polygon fill="#999999" stroke="#666666" points="126.25,-59.5 0,-59.5 0,-26 126.25,-26 126.25,-59.5"/>
<text xml:space="preserve" text-anchor="start" x="8" y="-46" font-family="Helvetica,sans-Serif" font-size="10.00">FQuartzTickableObject</text>
<text xml:space="preserve" text-anchor="middle" x="63.12" y="-33.25" font-family="Helvetica,sans-Serif" font-size="10.00">::OnMetronomeEvent</text>
</a>
</g>
</g>
<!-- Node2 -->
<g id="Node000002" class="node">
<title>Node2</title>
<g id="a_Node000002"><a xlink:href="classFQuartzTickableObject.html#abfa85be1f31b4f416d8b518d4cf66e86" target="_top" xlink:title=" ">
<polygon fill="white" stroke="#666666" points="300.5,-85.5 174.25,-85.5 174.25,-52 300.5,-52 300.5,-85.5"/>
<text xml:space="preserve" text-anchor="start" x="182.25" y="-72" font-family="Helvetica,sans-Serif" font-size="10.00">FQuartzTickableObject</text>
<text xml:space="preserve" text-anchor="middle" x="237.38" y="-59.25" font-family="Helvetica,sans-Serif" font-size="10.00">::ProcessCommand</text>
</a>
</g>
</g>
<!-- Node1&#45;&gt;Node2 -->
<g id="edge1_Node000001_Node000002" class="edge">
<title>Node1&#45;&gt;Node2</title>
<g id="a_edge1_Node000001_Node000002"><a xlink:title=" ">
<path fill="none" stroke="#63b8ff" d="M126.31,-52.14C138.19,-53.93 150.73,-55.82 162.92,-57.66"/>
<polygon fill="#63b8ff" stroke="#63b8ff" points="162.08,-61.08 172.49,-59.11 163.13,-54.15 162.08,-61.08"/>
</a>
</g>
</g>
<!-- Node3 -->
<g id="Node000003" class="node">
<title>Node3</title>
<g id="a_Node000003"><a xlink:href="classAudio_1_1FQuartzCrossThreadMessage.html#abab21685bbd0b6e4b9eb22414a167641" target="_top" xlink:title=" ">
<polygon fill="white" stroke="#666666" points="312.5,-33.5 162.25,-33.5 162.25,0 312.5,0 312.5,-33.5"/>
<text xml:space="preserve" text-anchor="start" x="170.25" y="-20" font-family="Helvetica,sans-Serif" font-size="10.00">Audio::FQuartzCrossThread</text>
<text xml:space="preserve" text-anchor="middle" x="237.38" y="-7.25" font-family="Helvetica,sans-Serif" font-size="10.00">Message::RequestReceived</text>
</a>
</g>
</g>
<!-- Node1&#45;&gt;Node3 -->
<g id="edge2_Node000001_Node000003" class="edge">
<title>Node1&#45;&gt;Node3</title>
<g id="a_edge2_Node000001_Node000003"><a xlink:title=" ">
<path fill="none" stroke="#63b8ff" d="M126.31,-33.36C134.26,-32.16 142.51,-30.92 150.75,-29.68"/>
<polygon fill="#63b8ff" stroke="#63b8ff" points="151.09,-33.16 160.45,-28.21 150.04,-26.24 151.09,-33.16"/>
</a>
</g>
</g>
<!-- Node4 -->
<g id="Node000004" class="node">
<title>Node4</title>
<g id="a_Node000004"><a xlink:href="classAudio_1_1FQuartzCrossThreadMessage.html#a55bb88c74da70151ed4c92d38698b6f8" target="_top" xlink:title=" ">
<polygon fill="white" stroke="#666666" points="528,-33.5 348.5,-33.5 348.5,0 528,0 528,-33.5"/>
<text xml:space="preserve" text-anchor="start" x="356.5" y="-20" font-family="Helvetica,sans-Serif" font-size="10.00">Audio::FQuartzCrossThread</text>
<text xml:space="preserve" text-anchor="middle" x="438.25" y="-7.25" font-family="Helvetica,sans-Serif" font-size="10.00">Message::GetResultsMilliseconds</text>
</a>
</g>
</g>
<!-- Node3&#45;&gt;Node4 -->
<g id="edge3_Node000003_Node000004" class="edge">
<title>Node3&#45;&gt;Node4</title>
<g id="a_edge3_Node000003_Node000004"><a xlink:title=" ">
<path fill="none" stroke="#63b8ff" d="M312.99,-16.75C320.79,-16.75 328.79,-16.75 336.81,-16.75"/>
<polygon fill="#63b8ff" stroke="#63b8ff" points="336.62,-20.25 346.62,-16.75 336.62,-13.25 336.62,-20.25"/>
</a>
</g>
</g>
</g>
</svg>
