<?xml version="1.0" encoding="UTF-8" standalone="no"?>
<!DOCTYPE svg PUBLIC "-//W3C//DTD SVG 1.1//EN"
 "http://www.w3.org/Graphics/SVG/1.1/DTD/svg11.dtd">
<!-- Generated by graphviz version 14.1.4 (0)
 -->
<!-- Title: UParticleModuleEventReceiverSpawn Pages: 1 -->
<!--zoomable 1272 -->

<svg id="main" version="1.1" xmlns="http://www.w3.org/2000/svg" xmlns:xlink="http://www.w3.org/1999/xlink" xml:space="preserve" onload="init(evt)">

<style type="text/css"><![CDATA[
.node, .edge {opacity: 0.7;}
.node.selected, .edge.selected {opacity: 1;}
.edge:hover path { stroke: red; }
.edge:hover polygon { stroke: red; fill: red; }
]]></style>

<defs>
  <circle id="rim" cx="0" cy="0" r="7"/>
  <circle id="rim2" cx="0" cy="0" r="3.5"/>
  <g id="zoomPlus">
    <use xlink:href="#rim" fill="#404040"><set attributeName="fill" to="#808080" begin="zoomplus.mouseover" end="zoomplus.mouseout"/></use>
    <path d="M-4,0h8M0,-4v8" fill="none" stroke="white" stroke-width="1.5" pointer-events="none"/>
  </g>
  <g id="zoomMin">
    <use xlink:href="#rim" fill="#404040"><set attributeName="fill" to="#808080" begin="zoomminus.mouseover" end="zoomminus.mouseout"/></use>
    <path d="M-4,0h8" fill="none" stroke="white" stroke-width="1.5" pointer-events="none"/>
  </g>
  <g id="arrowUp" transform="translate(30 24)">
    <use xlink:href="#rim"/>
    <path pointer-events="none" fill="none" stroke="white" stroke-width="1.5" d="M0,-3.0v7 M-2.5,-0.5L0,-3.0L2.5,-0.5"/>
  </g>
  <g id="arrowRight" transform="rotate(90) translate(36 -43)">
    <use xlink:href="#rim"/>
    <path pointer-events="none" fill="none" stroke="white" stroke-width="1.5" d="M0,-3.0v7 M-2.5,-0.5L0,-3.0L2.5,-0.5"/>
  </g>
  <g id="arrowDown" transform="rotate(180) translate(-30 -48)">
    <use xlink:href="#rim"/>
    <path pointer-events="none" fill="none" stroke="white" stroke-width="1.5" d="M0,-3.0v7 M-2.5,-0.5L0,-3.0L2.5,-0.5"/>
  </g>
  <g id="arrowLeft" transform="rotate(270) translate(-36 17)">
    <use xlink:href="#rim"/>
    <path pointer-events="none" fill="none" stroke="white" stroke-width="1.5" d="M0,-3.0v7 M-2.5,-0.5L0,-3.0L2.5,-0.5"/>
  </g>
  <g id="resetDef">
    <use xlink:href="#rim2" fill="#404040"><set attributeName="fill" to="#808080" begin="reset.mouseover" end="reset.mouseout"/></use>
  </g>
</defs>
<script type="application/ecmascript">
var viewWidth = 513;
var viewHeight = 1272;
var sectionId = 'dynsection-1';
</script>
<script type="application/ecmascript" xlink:href="svg.min.js"/>
<svg id="graph" class="graph">
<g id="viewport">
<title>UParticleModuleEventReceiverSpawn</title>
<!-- Node1 -->
<g id="Node000001" class="node">
<title>Node1</title>
<g id="a_Node000001"><a xlink:title=" ">
<polygon fill="#999999" stroke="none" points="351.75,-184.25 193,-184.25 193,0 351.75,0 351.75,-184.25"/>
<text xml:space="preserve" text-anchor="start" x="197" y="-170.5" font-family="Helvetica,sans-Serif" font-size="10.00">UParticleModuleEventReceiver</text>
<text xml:space="preserve" text-anchor="start" x="256.25" y="-157.75" font-family="Helvetica,sans-Serif" font-size="10.00">Spawn</text>
<text xml:space="preserve" text-anchor="start" x="201.44" y="-141" font-family="Helvetica,sans-Serif" font-size="10.00">&#45;</text>
<text xml:space="preserve" text-anchor="start" x="213.62" y="-141" font-family="Helvetica,sans-Serif" font-size="10.00">bUseParticleTime</text>
<text xml:space="preserve" text-anchor="start" x="201.44" y="-124.25" font-family="Helvetica,sans-Serif" font-size="10.00">&#45;</text>
<text xml:space="preserve" text-anchor="start" x="213.62" y="-124.25" font-family="Helvetica,sans-Serif" font-size="10.00">bUsePSysLocation</text>
<text xml:space="preserve" text-anchor="start" x="201.44" y="-107.5" font-family="Helvetica,sans-Serif" font-size="10.00">&#45;</text>
<text xml:space="preserve" text-anchor="start" x="213.62" y="-107.5" font-family="Helvetica,sans-Serif" font-size="10.00">bInheritVelocity</text>
<text xml:space="preserve" text-anchor="start" x="201.44" y="-90.75" font-family="Helvetica,sans-Serif" font-size="10.00">&#45;</text>
<text xml:space="preserve" text-anchor="start" x="213.62" y="-90.75" font-family="Helvetica,sans-Serif" font-size="10.00">PhysicalMaterials</text>
<text xml:space="preserve" text-anchor="start" x="201.44" y="-74" font-family="Helvetica,sans-Serif" font-size="10.00">&#45;</text>
<text xml:space="preserve" text-anchor="start" x="213.62" y="-74" font-family="Helvetica,sans-Serif" font-size="10.00">bBanPhysicalMaterials</text>
<text xml:space="preserve" text-anchor="start" x="201.44" y="-57.25" font-family="Helvetica,sans-Serif" font-size="10.00">&#45;</text>
<text xml:space="preserve" text-anchor="start" x="213.62" y="-57.25" font-family="Helvetica,sans-Serif" font-size="10.00">InitializeDefaults()</text>
<text xml:space="preserve" text-anchor="start" x="201.44" y="-40.5" font-family="Helvetica,sans-Serif" font-size="10.00">&#45;</text>
<text xml:space="preserve" text-anchor="start" x="213.62" y="-40.5" font-family="Helvetica,sans-Serif" font-size="10.00">PostEditChangeProperty()</text>
<text xml:space="preserve" text-anchor="start" x="201.44" y="-23.75" font-family="Helvetica,sans-Serif" font-size="10.00">&#45;</text>
<text xml:space="preserve" text-anchor="start" x="213.62" y="-23.75" font-family="Helvetica,sans-Serif" font-size="10.00">PostInitProperties()</text>
<text xml:space="preserve" text-anchor="start" x="201.44" y="-7" font-family="Helvetica,sans-Serif" font-size="10.00">&#45;</text>
<text xml:space="preserve" text-anchor="start" x="213.62" y="-7" font-family="Helvetica,sans-Serif" font-size="10.00">ProcessParticleEvent()</text>
<polygon fill="#666666" stroke="#666666" points="193,-152.75 193,-152.75 351.75,-152.75 351.75,-152.75 193,-152.75"/>
<polygon fill="#666666" stroke="#666666" points="193,-69 193,-69 211.62,-69 211.62,-69 193,-69"/>
<polygon fill="#666666" stroke="#666666" points="211.62,-69 211.62,-69 351.75,-69 351.75,-69 211.62,-69"/>
<polygon fill="none" stroke="#666666" points="193,0 193,-184.25 351.75,-184.25 351.75,0 193,0"/>
</a>
</g>
</g>
<!-- Node2 -->
<g id="Node000002" class="node">
<title>Node2</title>
<g id="a_Node000002"><a xlink:href="classUParticleModuleEventReceiverBase.html" target="_top" xlink:title=" ">
<polygon fill="white" stroke="none" points="182.75,-427.25 0,-427.25 0,-339.5 182.75,-339.5 182.75,-427.25"/>
<text xml:space="preserve" text-anchor="start" x="4" y="-413.5" font-family="Helvetica,sans-Serif" font-size="10.00">UParticleModuleEventReceiverBase</text>
<text xml:space="preserve" text-anchor="start" x="13.69" y="-396.75" font-family="Helvetica,sans-Serif" font-size="10.00">&#45;</text>
<text xml:space="preserve" text-anchor="start" x="31.12" y="-396.75" font-family="Helvetica,sans-Serif" font-size="10.00">EventGeneratorType</text>
<text xml:space="preserve" text-anchor="start" x="13.69" y="-380" font-family="Helvetica,sans-Serif" font-size="10.00">&#45;</text>
<text xml:space="preserve" text-anchor="start" x="31.12" y="-380" font-family="Helvetica,sans-Serif" font-size="10.00">EventName</text>
<text xml:space="preserve" text-anchor="start" x="13.69" y="-363.25" font-family="Helvetica,sans-Serif" font-size="10.00">&#45;</text>
<text xml:space="preserve" text-anchor="start" x="31.12" y="-363.25" font-family="Helvetica,sans-Serif" font-size="10.00">WillProcessParticleEvent()</text>
<text xml:space="preserve" text-anchor="start" x="13.69" y="-346.5" font-family="Helvetica,sans-Serif" font-size="10.00">&#45;</text>
<text xml:space="preserve" text-anchor="start" x="31.12" y="-346.5" font-family="Helvetica,sans-Serif" font-size="10.00">ProcessParticleEvent()</text>
<polygon fill="#666666" stroke="#666666" points="0,-408.5 0,-408.5 182.75,-408.5 182.75,-408.5 0,-408.5"/>
<polygon fill="#666666" stroke="#666666" points="0,-375 0,-375 29.12,-375 29.12,-375 0,-375"/>
<polygon fill="#666666" stroke="#666666" points="29.12,-375 29.12,-375 182.75,-375 182.75,-375 29.12,-375"/>
<polygon fill="none" stroke="#666666" points="0,-339.5 0,-427.25 182.75,-427.25 182.75,-339.5 0,-339.5"/>
</a>
</g>
</g>
<!-- Node2&#45;&gt;Node1 -->
<g id="edge1_Node000001_Node000002" class="edge">
<title>Node2&#45;&gt;Node1</title>
<g id="a_edge1_Node000001_Node000002"><a xlink:title=" ">
<path fill="none" stroke="#63b8ff" d="M124.14,-330.01C149.55,-289.41 185.37,-232.17 215.43,-184.13"/>
<polygon fill="none" stroke="#63b8ff" points="121.22,-328.08 118.89,-338.41 127.16,-331.79 121.22,-328.08"/>
</a>
</g>
</g>
<!-- Node3 -->
<g id="Node000003" class="node">
<title>Node3</title>
<g id="a_Node000003"><a xlink:href="classUParticleModuleEventBase.html" target="_top" xlink:title=" ">
<polygon fill="white" stroke="none" points="161.38,-619 21.38,-619 21.38,-564.75 161.38,-564.75 161.38,-619"/>
<text xml:space="preserve" text-anchor="start" x="25.38" y="-605.25" font-family="Helvetica,sans-Serif" font-size="10.00">UParticleModuleEventBase</text>
<text xml:space="preserve" text-anchor="start" x="88.38" y="-588.5" font-family="Helvetica,sans-Serif" font-size="10.00"> </text>
<text xml:space="preserve" text-anchor="start" x="35.62" y="-571.75" font-family="Helvetica,sans-Serif" font-size="10.00">&#45;</text>
<text xml:space="preserve" text-anchor="start" x="53.62" y="-571.75" font-family="Helvetica,sans-Serif" font-size="10.00">GetModuleType()</text>
<polygon fill="#666666" stroke="#666666" points="21.38,-600.25 21.38,-600.25 161.38,-600.25 161.38,-600.25 21.38,-600.25"/>
<polygon fill="#666666" stroke="#666666" points="21.38,-583.5 21.38,-583.5 161.38,-583.5 161.38,-583.5 21.38,-583.5"/>
<polygon fill="none" stroke="#666666" points="21.38,-564.75 21.38,-619 161.38,-619 161.38,-564.75 21.38,-564.75"/>
</a>
</g>
</g>
<!-- Node3&#45;&gt;Node2 -->
<g id="edge2_Node000002_Node000003" class="edge">
<title>Node3&#45;&gt;Node2</title>
<g id="a_edge2_Node000002_Node000003"><a xlink:title=" ">
<path fill="none" stroke="#63b8ff" d="M91.38,-553.8C91.38,-518.17 91.38,-464.35 91.38,-426.97"/>
<polygon fill="none" stroke="#63b8ff" points="87.88,-553.63 91.38,-563.63 94.88,-553.63 87.88,-553.63"/>
</a>
</g>
</g>
<!-- Node4 -->
<g id="Node000004" class="node">
<title>Node4</title>
<g id="a_Node000004"><a xlink:href="classUParticleModule.html" target="_top" xlink:title=" ">
<polygon fill="white" stroke="none" points="172.38,-1172.25 10.38,-1172.25 10.38,-673.75 172.38,-673.75 172.38,-1172.25"/>
<text xml:space="preserve" text-anchor="start" x="51.25" y="-1158.5" font-family="Helvetica,sans-Serif" font-size="10.00">UParticleModule</text>
<text xml:space="preserve" text-anchor="start" x="14.38" y="-1141.75" font-family="Helvetica,sans-Serif" font-size="10.00">&#45;</text>
<text xml:space="preserve" text-anchor="start" x="22.12" y="-1141.75" font-family="Helvetica,sans-Serif" font-size="10.00">bSpawnModule</text>
<text xml:space="preserve" text-anchor="start" x="14.38" y="-1125" font-family="Helvetica,sans-Serif" font-size="10.00">&#45;</text>
<text xml:space="preserve" text-anchor="start" x="22.12" y="-1125" font-family="Helvetica,sans-Serif" font-size="10.00">bUpdateModule</text>
<text xml:space="preserve" text-anchor="start" x="14.38" y="-1108.25" font-family="Helvetica,sans-Serif" font-size="10.00">&#45;</text>
<text xml:space="preserve" text-anchor="start" x="22.12" y="-1108.25" font-family="Helvetica,sans-Serif" font-size="10.00">bFinalUpdateModule</text>
<text xml:space="preserve" text-anchor="start" x="14.38" y="-1091.5" font-family="Helvetica,sans-Serif" font-size="10.00">&#45;</text>
<text xml:space="preserve" text-anchor="start" x="22.12" y="-1091.5" font-family="Helvetica,sans-Serif" font-size="10.00">bUpdateForGPUEmitter</text>
<text xml:space="preserve" text-anchor="start" x="14.38" y="-1074.75" font-family="Helvetica,sans-Serif" font-size="10.00">&#45;</text>
<text xml:space="preserve" text-anchor="start" x="22.12" y="-1074.75" font-family="Helvetica,sans-Serif" font-size="10.00">bCurvesAsColor</text>
<text xml:space="preserve" text-anchor="start" x="14.38" y="-1058" font-family="Helvetica,sans-Serif" font-size="10.00">&#45;</text>
<text xml:space="preserve" text-anchor="start" x="22.12" y="-1058" font-family="Helvetica,sans-Serif" font-size="10.00">b3DDrawMode</text>
<text xml:space="preserve" text-anchor="start" x="14.38" y="-1041.25" font-family="Helvetica,sans-Serif" font-size="10.00">&#45;</text>
<text xml:space="preserve" text-anchor="start" x="22.12" y="-1041.25" font-family="Helvetica,sans-Serif" font-size="10.00">bSupported3DDrawMode</text>
<text xml:space="preserve" text-anchor="start" x="14.38" y="-1024.5" font-family="Helvetica,sans-Serif" font-size="10.00">&#45;</text>
<text xml:space="preserve" text-anchor="start" x="22.12" y="-1024.5" font-family="Helvetica,sans-Serif" font-size="10.00">bEnabled</text>
<text xml:space="preserve" text-anchor="start" x="14.38" y="-1007.75" font-family="Helvetica,sans-Serif" font-size="10.00">&#45;</text>
<text xml:space="preserve" text-anchor="start" x="22.12" y="-1007.75" font-family="Helvetica,sans-Serif" font-size="10.00">bEditable</text>
<text xml:space="preserve" text-anchor="start" x="14.38" y="-991" font-family="Helvetica,sans-Serif" font-size="10.00">&#45;</text>
<text xml:space="preserve" text-anchor="start" x="22.12" y="-991" font-family="Helvetica,sans-Serif" font-size="10.00">LODDuplicate</text>
<text xml:space="preserve" text-anchor="start" x="14.38" y="-974.25" font-family="Helvetica,sans-Serif" font-size="10.00">&#45;</text>
<text xml:space="preserve" text-anchor="start" x="22.12" y="-974.25" font-family="Helvetica,sans-Serif" font-size="10.00">bSupportsRandomSeed</text>
<text xml:space="preserve" text-anchor="start" x="14.38" y="-957.5" font-family="Helvetica,sans-Serif" font-size="10.00">&#45;</text>
<text xml:space="preserve" text-anchor="start" x="22.12" y="-957.5" font-family="Helvetica,sans-Serif" font-size="10.00">bRequiresLoopingNotification</text>
<text xml:space="preserve" text-anchor="start" x="14.38" y="-940.75" font-family="Helvetica,sans-Serif" font-size="10.00">&#45;</text>
<text xml:space="preserve" text-anchor="start" x="22.12" y="-940.75" font-family="Helvetica,sans-Serif" font-size="10.00">LODValidity</text>
<text xml:space="preserve" text-anchor="start" x="14.38" y="-924" font-family="Helvetica,sans-Serif" font-size="10.00">&#45;</text>
<text xml:space="preserve" text-anchor="start" x="22.12" y="-924" font-family="Helvetica,sans-Serif" font-size="10.00">IsPostLoadThreadSafe()</text>
<text xml:space="preserve" text-anchor="start" x="14.38" y="-907.25" font-family="Helvetica,sans-Serif" font-size="10.00">&#45;</text>
<text xml:space="preserve" text-anchor="start" x="22.12" y="-907.25" font-family="Helvetica,sans-Serif" font-size="10.00">PostEditChangeProperty()</text>
<text xml:space="preserve" text-anchor="start" x="14.38" y="-890.5" font-family="Helvetica,sans-Serif" font-size="10.00">&#45;</text>
<text xml:space="preserve" text-anchor="start" x="22.12" y="-890.5" font-family="Helvetica,sans-Serif" font-size="10.00">CompileModule()</text>
<text xml:space="preserve" text-anchor="start" x="14.38" y="-873.75" font-family="Helvetica,sans-Serif" font-size="10.00">&#45;</text>
<text xml:space="preserve" text-anchor="start" x="22.12" y="-873.75" font-family="Helvetica,sans-Serif" font-size="10.00">Spawn()</text>
<text xml:space="preserve" text-anchor="start" x="14.38" y="-857" font-family="Helvetica,sans-Serif" font-size="10.00">&#45;</text>
<text xml:space="preserve" text-anchor="start" x="22.12" y="-857" font-family="Helvetica,sans-Serif" font-size="10.00">Update()</text>
<text xml:space="preserve" text-anchor="start" x="14.38" y="-840.25" font-family="Helvetica,sans-Serif" font-size="10.00">&#45;</text>
<text xml:space="preserve" text-anchor="start" x="22.12" y="-840.25" font-family="Helvetica,sans-Serif" font-size="10.00">FinalUpdate()</text>
<text xml:space="preserve" text-anchor="start" x="14.38" y="-823.5" font-family="Helvetica,sans-Serif" font-size="10.00">&#45;</text>
<text xml:space="preserve" text-anchor="start" x="22.12" y="-823.5" font-family="Helvetica,sans-Serif" font-size="10.00">RequiredBytes()</text>
<text xml:space="preserve" text-anchor="start" x="14.38" y="-806.75" font-family="Helvetica,sans-Serif" font-size="10.00">&#45;</text>
<text xml:space="preserve" text-anchor="start" x="22.12" y="-806.75" font-family="Helvetica,sans-Serif" font-size="10.00">RequiredBytesPerInstance()</text>
<text xml:space="preserve" text-anchor="start" x="14.38" y="-790" font-family="Helvetica,sans-Serif" font-size="10.00">&#45;</text>
<text xml:space="preserve" text-anchor="start" x="22.12" y="-790" font-family="Helvetica,sans-Serif" font-size="10.00">PrepPerInstanceBlock()</text>
<text xml:space="preserve" text-anchor="start" x="14.38" y="-773.25" font-family="Helvetica,sans-Serif" font-size="10.00">&#45;</text>
<text xml:space="preserve" text-anchor="start" x="22.12" y="-773.25" font-family="Helvetica,sans-Serif" font-size="10.00">SetToSensibleDefaults()</text>
<text xml:space="preserve" text-anchor="start" x="22.12" y="-756.5" font-family="Helvetica,sans-Serif" font-size="10.00">and 35 more...</text>
<text xml:space="preserve" text-anchor="start" x="14.38" y="-739.75" font-family="Helvetica,sans-Serif" font-size="10.00">&#45;</text>
<text xml:space="preserve" text-anchor="start" x="22.12" y="-739.75" font-family="Helvetica,sans-Serif" font-size="10.00">GetDistributionsRestricted</text>
<text xml:space="preserve" text-anchor="start" x="22.12" y="-727" font-family="Helvetica,sans-Serif" font-size="10.00">OnGPU()</text>
<text xml:space="preserve" text-anchor="start" x="14.38" y="-710.25" font-family="Helvetica,sans-Serif" font-size="10.00">&#45;</text>
<text xml:space="preserve" text-anchor="start" x="22.12" y="-710.25" font-family="Helvetica,sans-Serif" font-size="10.00">IsDistributionAllowedOnGPU()</text>
<text xml:space="preserve" text-anchor="start" x="14.38" y="-693.5" font-family="Helvetica,sans-Serif" font-size="10.00">&#45;</text>
<text xml:space="preserve" text-anchor="start" x="22.12" y="-693.5" font-family="Helvetica,sans-Serif" font-size="10.00">GetDistributionNotAllowed</text>
<text xml:space="preserve" text-anchor="start" x="22.12" y="-680.75" font-family="Helvetica,sans-Serif" font-size="10.00">OnGPUText()</text>
<polygon fill="#666666" stroke="#666666" points="10.38,-1153.5 10.38,-1153.5 172.38,-1153.5 172.38,-1153.5 10.38,-1153.5"/>
<polygon fill="#666666" stroke="#666666" points="10.38,-935.75 10.38,-935.75 20.12,-935.75 20.12,-935.75 10.38,-935.75"/>
<polygon fill="#666666" stroke="#666666" points="20.12,-935.75 20.12,-935.75 172.38,-935.75 172.38,-935.75 20.12,-935.75"/>
<polygon fill="none" stroke="#666666" points="10.38,-673.75 10.38,-1172.25 172.38,-1172.25 172.38,-673.75 10.38,-673.75"/>
</a>
</g>
</g>
<!-- Node4&#45;&gt;Node3 -->
<g id="edge3_Node000003_Node000004" class="edge">
<title>Node4&#45;&gt;Node3</title>
<g id="a_edge3_Node000003_Node000004"><a xlink:title=" ">
<path fill="none" stroke="#63b8ff" d="M91.38,-662.32C91.38,-645.27 91.38,-630.3 91.38,-618.66"/>
<polygon fill="none" stroke="#63b8ff" points="87.88,-662.3 91.38,-672.3 94.88,-662.3 87.88,-662.3"/>
</a>
</g>
</g>
<!-- Node5 -->
<g id="Node000005" class="node">
<title>Node5</title>
<g id="a_Node000005"><a xlink:title=" ">
<polygon fill="white" stroke="none" points="114.88,-1263.5 67.88,-1263.5 67.88,-1209.25 114.88,-1209.25 114.88,-1263.5"/>
<text xml:space="preserve" text-anchor="start" x="71.88" y="-1249.75" font-family="Helvetica,sans-Serif" font-size="10.00">UObject</text>
<text xml:space="preserve" text-anchor="start" x="88.38" y="-1233" font-family="Helvetica,sans-Serif" font-size="10.00"> </text>
<text xml:space="preserve" text-anchor="start" x="88.38" y="-1216.25" font-family="Helvetica,sans-Serif" font-size="10.00"> </text>
<polygon fill="#666666" stroke="#666666" points="67.88,-1244.75 67.88,-1244.75 114.88,-1244.75 114.88,-1244.75 67.88,-1244.75"/>
<polygon fill="#666666" stroke="#666666" points="67.88,-1228 67.88,-1228 114.88,-1228 114.88,-1228 67.88,-1228"/>
<polygon fill="none" stroke="#666666" points="67.88,-1209.25 67.88,-1263.5 114.88,-1263.5 114.88,-1209.25 67.88,-1209.25"/>
</a>
</g>
</g>
<!-- Node5&#45;&gt;Node4 -->
<g id="edge4_Node000004_Node000005" class="edge">
<title>Node5&#45;&gt;Node4</title>
<g id="a_edge4_Node000004_Node000005"><a xlink:title=" ">
<path fill="none" stroke="#63b8ff" d="M91.38,-1197.95C91.38,-1190.16 91.38,-1181.41 91.38,-1171.94"/>
<polygon fill="none" stroke="#63b8ff" points="87.88,-1197.85 91.38,-1207.85 94.88,-1197.85 87.88,-1197.85"/>
</a>
</g>
</g>
<!-- Node6 -->
<g id="Node000006" class="node">
<title>Node6</title>
<g id="a_Node000006"><a xlink:href="structFRawDistributionFloat.html" target="_top" xlink:title=" ">
<polygon fill="white" stroke="none" points="344,-494.25 200.75,-494.25 200.75,-272.5 344,-272.5 344,-494.25"/>
<text xml:space="preserve" text-anchor="start" x="218" y="-480.5" font-family="Helvetica,sans-Serif" font-size="10.00">FRawDistributionFloat</text>
<text xml:space="preserve" text-anchor="start" x="204.75" y="-463.75" font-family="Helvetica,sans-Serif" font-size="10.00">+</text>
<text xml:space="preserve" text-anchor="start" x="217" y="-463.75" font-family="Helvetica,sans-Serif" font-size="10.00">Distribution</text>
<text xml:space="preserve" text-anchor="start" x="207" y="-447" font-family="Helvetica,sans-Serif" font-size="10.00">&#45;</text>
<text xml:space="preserve" text-anchor="start" x="217" y="-447" font-family="Helvetica,sans-Serif" font-size="10.00">MinValue</text>
<text xml:space="preserve" text-anchor="start" x="207" y="-430.25" font-family="Helvetica,sans-Serif" font-size="10.00">&#45;</text>
<text xml:space="preserve" text-anchor="start" x="217" y="-430.25" font-family="Helvetica,sans-Serif" font-size="10.00">MaxValue</text>
<text xml:space="preserve" text-anchor="start" x="204.75" y="-413.5" font-family="Helvetica,sans-Serif" font-size="10.00">+</text>
<text xml:space="preserve" text-anchor="start" x="217" y="-413.5" font-family="Helvetica,sans-Serif" font-size="10.00">FRawDistributionFloat()</text>
<text xml:space="preserve" text-anchor="start" x="204.75" y="-396.75" font-family="Helvetica,sans-Serif" font-size="10.00">+</text>
<text xml:space="preserve" text-anchor="start" x="217" y="-396.75" font-family="Helvetica,sans-Serif" font-size="10.00">IsCreated()</text>
<text xml:space="preserve" text-anchor="start" x="204.75" y="-380" font-family="Helvetica,sans-Serif" font-size="10.00">+</text>
<text xml:space="preserve" text-anchor="start" x="217" y="-380" font-family="Helvetica,sans-Serif" font-size="10.00">GetFastRawDistribution()</text>
<text xml:space="preserve" text-anchor="start" x="204.75" y="-363.25" font-family="Helvetica,sans-Serif" font-size="10.00">+</text>
<text xml:space="preserve" text-anchor="start" x="217" y="-363.25" font-family="Helvetica,sans-Serif" font-size="10.00">GetValue()</text>
<text xml:space="preserve" text-anchor="start" x="204.75" y="-346.5" font-family="Helvetica,sans-Serif" font-size="10.00">+</text>
<text xml:space="preserve" text-anchor="start" x="217" y="-346.5" font-family="Helvetica,sans-Serif" font-size="10.00">GetOutRange()</text>
<text xml:space="preserve" text-anchor="start" x="204.75" y="-329.75" font-family="Helvetica,sans-Serif" font-size="10.00">+</text>
<text xml:space="preserve" text-anchor="start" x="217" y="-329.75" font-family="Helvetica,sans-Serif" font-size="10.00">IsUniform()</text>
<text xml:space="preserve" text-anchor="start" x="204.75" y="-313" font-family="Helvetica,sans-Serif" font-size="10.00">+</text>
<text xml:space="preserve" text-anchor="start" x="217" y="-313" font-family="Helvetica,sans-Serif" font-size="10.00">InitLookupTable()</text>
<text xml:space="preserve" text-anchor="start" x="204.75" y="-296.25" font-family="Helvetica,sans-Serif" font-size="10.00">+</text>
<text xml:space="preserve" text-anchor="start" x="217" y="-296.25" font-family="Helvetica,sans-Serif" font-size="10.00">HasLookupTable()</text>
<text xml:space="preserve" text-anchor="start" x="204.75" y="-279.5" font-family="Helvetica,sans-Serif" font-size="10.00">+</text>
<text xml:space="preserve" text-anchor="start" x="217" y="-279.5" font-family="Helvetica,sans-Serif" font-size="10.00">OkForParallel()</text>
<polygon fill="#666666" stroke="#666666" points="200.75,-475.5 200.75,-475.5 344,-475.5 344,-475.5 200.75,-475.5"/>
<polygon fill="#666666" stroke="#666666" points="200.75,-425.25 200.75,-425.25 215,-425.25 215,-425.25 200.75,-425.25"/>
<polygon fill="#666666" stroke="#666666" points="215,-425.25 215,-425.25 344,-425.25 344,-425.25 215,-425.25"/>
<polygon fill="none" stroke="#666666" points="200.75,-272.5 200.75,-494.25 344,-494.25 344,-272.5 200.75,-272.5"/>
</a>
</g>
</g>
<!-- Node6&#45;&gt;Node1 -->
<g id="edge5_Node000001_Node000006" class="edge">
<title>Node6&#45;&gt;Node1</title>
<g id="a_edge5_Node000001_Node000006"><a xlink:title=" ">
<path fill="none" stroke="#63b8ff" d="M272.38,-272.61C272.38,-247.82 272.38,-221.57 272.38,-197.03"/>
<polygon fill="none" stroke="#63b8ff" points="272.38,-196.89 268.38,-190.89 272.38,-184.89 276.38,-190.89 272.38,-196.89"/>
</a>
</g>
<text xml:space="preserve" text-anchor="start" x="275.38" y="-208.25" font-family="Helvetica,sans-Serif" font-size="10.00" fill="grey">&#45;SpawnCount</text>
</g>
<!-- Node7 -->
<g id="Node000007" class="node">
<title>Node7</title>
<g id="a_Node000007"><a xlink:href="structFRawDistribution.html" target="_top" xlink:title=" ">
<polygon fill="white" stroke="none" points="399.38,-619 307.38,-619 307.38,-564.75 399.38,-564.75 399.38,-619"/>
<text xml:space="preserve" text-anchor="start" x="311.38" y="-605.25" font-family="Helvetica,sans-Serif" font-size="10.00">FRawDistribution</text>
<text xml:space="preserve" text-anchor="start" x="350.38" y="-588.5" font-family="Helvetica,sans-Serif" font-size="10.00"> </text>
<text xml:space="preserve" text-anchor="start" x="350.38" y="-571.75" font-family="Helvetica,sans-Serif" font-size="10.00"> </text>
<polygon fill="#666666" stroke="#666666" points="307.38,-600.25 307.38,-600.25 399.38,-600.25 399.38,-600.25 307.38,-600.25"/>
<polygon fill="#666666" stroke="#666666" points="307.38,-583.5 307.38,-583.5 399.38,-583.5 399.38,-583.5 307.38,-583.5"/>
<polygon fill="none" stroke="#666666" points="307.38,-564.75 307.38,-619 399.38,-619 399.38,-564.75 307.38,-564.75"/>
</a>
</g>
</g>
<!-- Node7&#45;&gt;Node6 -->
<g id="edge6_Node000006_Node000007" class="edge">
<title>Node7&#45;&gt;Node6</title>
<g id="a_edge6_Node000006_Node000007"><a xlink:title=" ">
<path fill="none" stroke="#63b8ff" d="M339.12,-554.52C332.38,-537.36 323.95,-515.86 315.37,-493.99"/>
<polygon fill="none" stroke="#63b8ff" points="335.82,-555.7 342.73,-563.73 342.33,-553.14 335.82,-555.7"/>
</a>
</g>
</g>
<!-- Node9 -->
<g id="Node000009" class="node">
<title>Node9</title>
<g id="a_Node000009"><a xlink:href="structFRawDistributionVector.html" target="_top" xlink:title=" ">
<polygon fill="white" stroke="none" points="505,-527.75 361.75,-527.75 361.75,-239 505,-239 505,-527.75"/>
<text xml:space="preserve" text-anchor="start" x="375.62" y="-514" font-family="Helvetica,sans-Serif" font-size="10.00">FRawDistributionVector</text>
<text xml:space="preserve" text-anchor="start" x="365.75" y="-497.25" font-family="Helvetica,sans-Serif" font-size="10.00">+</text>
<text xml:space="preserve" text-anchor="start" x="378" y="-497.25" font-family="Helvetica,sans-Serif" font-size="10.00">Distribution</text>
<text xml:space="preserve" text-anchor="start" x="368" y="-480.5" font-family="Helvetica,sans-Serif" font-size="10.00">&#45;</text>
<text xml:space="preserve" text-anchor="start" x="378" y="-480.5" font-family="Helvetica,sans-Serif" font-size="10.00">MinValue</text>
<text xml:space="preserve" text-anchor="start" x="368" y="-463.75" font-family="Helvetica,sans-Serif" font-size="10.00">&#45;</text>
<text xml:space="preserve" text-anchor="start" x="378" y="-463.75" font-family="Helvetica,sans-Serif" font-size="10.00">MaxValue</text>
<text xml:space="preserve" text-anchor="start" x="368" y="-447" font-family="Helvetica,sans-Serif" font-size="10.00">&#45;</text>
<text xml:space="preserve" text-anchor="start" x="378" y="-447" font-family="Helvetica,sans-Serif" font-size="10.00">MinValueVec</text>
<text xml:space="preserve" text-anchor="start" x="368" y="-430.25" font-family="Helvetica,sans-Serif" font-size="10.00">&#45;</text>
<text xml:space="preserve" text-anchor="start" x="378" y="-430.25" font-family="Helvetica,sans-Serif" font-size="10.00">MaxValueVec</text>
<text xml:space="preserve" text-anchor="start" x="365.75" y="-413.5" font-family="Helvetica,sans-Serif" font-size="10.00">+</text>
<text xml:space="preserve" text-anchor="start" x="378" y="-413.5" font-family="Helvetica,sans-Serif" font-size="10.00">IsCreated()</text>
<text xml:space="preserve" text-anchor="start" x="365.75" y="-396.75" font-family="Helvetica,sans-Serif" font-size="10.00">+</text>
<text xml:space="preserve" text-anchor="start" x="378" y="-396.75" font-family="Helvetica,sans-Serif" font-size="10.00">FRawDistributionVector()</text>
<text xml:space="preserve" text-anchor="start" x="365.75" y="-380" font-family="Helvetica,sans-Serif" font-size="10.00">+</text>
<text xml:space="preserve" text-anchor="start" x="378" y="-380" font-family="Helvetica,sans-Serif" font-size="10.00">Initialize()</text>
<text xml:space="preserve" text-anchor="start" x="365.75" y="-363.25" font-family="Helvetica,sans-Serif" font-size="10.00">+</text>
<text xml:space="preserve" text-anchor="start" x="378" y="-363.25" font-family="Helvetica,sans-Serif" font-size="10.00">GetFastRawDistribution()</text>
<text xml:space="preserve" text-anchor="start" x="365.75" y="-346.5" font-family="Helvetica,sans-Serif" font-size="10.00">+</text>
<text xml:space="preserve" text-anchor="start" x="378" y="-346.5" font-family="Helvetica,sans-Serif" font-size="10.00">GetValue()</text>
<text xml:space="preserve" text-anchor="start" x="365.75" y="-329.75" font-family="Helvetica,sans-Serif" font-size="10.00">+</text>
<text xml:space="preserve" text-anchor="start" x="378" y="-329.75" font-family="Helvetica,sans-Serif" font-size="10.00">GetOutRange()</text>
<text xml:space="preserve" text-anchor="start" x="365.75" y="-313" font-family="Helvetica,sans-Serif" font-size="10.00">+</text>
<text xml:space="preserve" text-anchor="start" x="378" y="-313" font-family="Helvetica,sans-Serif" font-size="10.00">GetRange()</text>
<text xml:space="preserve" text-anchor="start" x="365.75" y="-296.25" font-family="Helvetica,sans-Serif" font-size="10.00">+</text>
<text xml:space="preserve" text-anchor="start" x="378" y="-296.25" font-family="Helvetica,sans-Serif" font-size="10.00">IsUniform()</text>
<text xml:space="preserve" text-anchor="start" x="365.75" y="-279.5" font-family="Helvetica,sans-Serif" font-size="10.00">+</text>
<text xml:space="preserve" text-anchor="start" x="378" y="-279.5" font-family="Helvetica,sans-Serif" font-size="10.00">InitLookupTable()</text>
<text xml:space="preserve" text-anchor="start" x="365.75" y="-262.75" font-family="Helvetica,sans-Serif" font-size="10.00">+</text>
<text xml:space="preserve" text-anchor="start" x="378" y="-262.75" font-family="Helvetica,sans-Serif" font-size="10.00">HasLookupTable()</text>
<text xml:space="preserve" text-anchor="start" x="365.75" y="-246" font-family="Helvetica,sans-Serif" font-size="10.00">+</text>
<text xml:space="preserve" text-anchor="start" x="378" y="-246" font-family="Helvetica,sans-Serif" font-size="10.00">OkForParallel()</text>
<polygon fill="#666666" stroke="#666666" points="361.75,-509 361.75,-509 505,-509 505,-509 361.75,-509"/>
<polygon fill="#666666" stroke="#666666" points="361.75,-425.25 361.75,-425.25 376,-425.25 376,-425.25 361.75,-425.25"/>
<polygon fill="#666666" stroke="#666666" points="376,-425.25 376,-425.25 505,-425.25 505,-425.25 376,-425.25"/>
<polygon fill="none" stroke="#666666" points="361.75,-239 361.75,-527.75 505,-527.75 505,-239 361.75,-239"/>
</a>
</g>
</g>
<!-- Node7&#45;&gt;Node9 -->
<g id="edge9_Node000009_Node000007" class="edge">
<title>Node7&#45;&gt;Node9</title>
<g id="a_edge9_Node000009_Node000007"><a xlink:title=" ">
<path fill="none" stroke="#63b8ff" d="M367.42,-554.61C370.6,-546.41 374.16,-537.22 377.94,-527.46"/>
<polygon fill="none" stroke="#63b8ff" points="364.24,-553.14 363.89,-563.73 370.77,-555.67 364.24,-553.14"/>
</a>
</g>
</g>
<!-- Node8 -->
<g id="Node000008" class="node">
<title>Node8</title>
<g id="a_Node000008"><a xlink:href="structFDistributionLookupTable.html" target="_top" xlink:title=" ">
<polygon fill="white" stroke="none" points="419.25,-1008.75 287.5,-1008.75 287.5,-837.25 419.25,-837.25 419.25,-1008.75"/>
<text xml:space="preserve" text-anchor="start" x="291.5" y="-995" font-family="Helvetica,sans-Serif" font-size="10.00">FDistributionLookupTable</text>
<text xml:space="preserve" text-anchor="start" x="301.38" y="-978.25" font-family="Helvetica,sans-Serif" font-size="10.00">+</text>
<text xml:space="preserve" text-anchor="start" x="323.5" y="-978.25" font-family="Helvetica,sans-Serif" font-size="10.00">TimeScale</text>
<text xml:space="preserve" text-anchor="start" x="301.38" y="-961.5" font-family="Helvetica,sans-Serif" font-size="10.00">+</text>
<text xml:space="preserve" text-anchor="start" x="323.5" y="-961.5" font-family="Helvetica,sans-Serif" font-size="10.00">TimeBias</text>
<text xml:space="preserve" text-anchor="start" x="301.38" y="-944.75" font-family="Helvetica,sans-Serif" font-size="10.00">+</text>
<text xml:space="preserve" text-anchor="start" x="323.5" y="-944.75" font-family="Helvetica,sans-Serif" font-size="10.00">Values</text>
<text xml:space="preserve" text-anchor="start" x="301.38" y="-928" font-family="Helvetica,sans-Serif" font-size="10.00">+</text>
<text xml:space="preserve" text-anchor="start" x="323.5" y="-928" font-family="Helvetica,sans-Serif" font-size="10.00">Op</text>
<text xml:space="preserve" text-anchor="start" x="301.38" y="-911.25" font-family="Helvetica,sans-Serif" font-size="10.00">+</text>
<text xml:space="preserve" text-anchor="start" x="323.5" y="-911.25" font-family="Helvetica,sans-Serif" font-size="10.00">EntryCount</text>
<text xml:space="preserve" text-anchor="start" x="301.38" y="-894.5" font-family="Helvetica,sans-Serif" font-size="10.00">+</text>
<text xml:space="preserve" text-anchor="start" x="323.5" y="-894.5" font-family="Helvetica,sans-Serif" font-size="10.00">EntryStride</text>
<text xml:space="preserve" text-anchor="start" x="301.38" y="-877.75" font-family="Helvetica,sans-Serif" font-size="10.00">+</text>
<text xml:space="preserve" text-anchor="start" x="323.5" y="-877.75" font-family="Helvetica,sans-Serif" font-size="10.00">SubEntryStride</text>
<text xml:space="preserve" text-anchor="start" x="301.38" y="-861" font-family="Helvetica,sans-Serif" font-size="10.00">+</text>
<text xml:space="preserve" text-anchor="start" x="323.5" y="-861" font-family="Helvetica,sans-Serif" font-size="10.00">LockFlag</text>
<text xml:space="preserve" text-anchor="start" x="350.38" y="-844.25" font-family="Helvetica,sans-Serif" font-size="10.00"> </text>
<polygon fill="#666666" stroke="#666666" points="287.5,-990 287.5,-990 419.25,-990 419.25,-990 287.5,-990"/>
<polygon fill="#666666" stroke="#666666" points="287.5,-856 287.5,-856 321.5,-856 321.5,-856 287.5,-856"/>
<polygon fill="#666666" stroke="#666666" points="321.5,-856 321.5,-856 419.25,-856 419.25,-856 321.5,-856"/>
<polygon fill="none" stroke="#666666" points="287.5,-837.25 287.5,-1008.75 419.25,-1008.75 419.25,-837.25 287.5,-837.25"/>
</a>
</g>
</g>
<!-- Node8&#45;&gt;Node7 -->
<g id="edge7_Node000007_Node000008" class="edge">
<title>Node8&#45;&gt;Node7</title>
<g id="a_edge7_Node000007_Node000008"><a xlink:title=" ">
<path fill="none" stroke="#63b8ff" d="M353.38,-837.67C353.38,-771.37 353.38,-682.08 353.38,-631.69"/>
<polygon fill="none" stroke="#63b8ff" points="353.38,-631.77 349.38,-625.77 353.38,-619.77 357.38,-625.77 353.38,-631.77"/>
</a>
</g>
<text xml:space="preserve" text-anchor="start" x="356.38" y="-643" font-family="Helvetica,sans-Serif" font-size="10.00" fill="grey">+Table</text>
</g>
<!-- Node9&#45;&gt;Node1 -->
<g id="edge8_Node000001_Node000009" class="edge">
<title>Node9&#45;&gt;Node1</title>
<g id="a_edge8_Node000001_Node000009"><a xlink:title=" ">
<path fill="none" stroke="#63b8ff" d="M367.58,-239.22C361,-226.59 354.22,-214.1 347.38,-202.25 346.03,-199.92 344.65,-197.57 343.24,-195.21"/>
<polygon fill="none" stroke="#63b8ff" points="343.2,-195.15 336.65,-192.12 336.93,-184.91 343.48,-187.94 343.2,-195.15"/>
</a>
</g>
<text xml:space="preserve" text-anchor="start" x="358.32" y="-208.25" font-family="Helvetica,sans-Serif" font-size="10.00" fill="grey">&#45;InheritVelocityScale</text>
</g>
</g>
</svg>

<g id="navigator" transform="translate(0 0)" fill="#404254">
  <rect fill="#f2f5e9" fill-opacity="0.5" stroke="#606060" stroke-width=".5" x="0" y="0" width="60" height="60"/>
  <use id="zoomplus" xlink:href="#zoomPlus" x="17" y="9" onmousedown="handleZoom(evt,'in')"/>
  <use id="zoomminus" xlink:href="#zoomMin" x="42" y="9" onmousedown="handleZoom(evt,'out')"/>
  <use id="reset" xlink:href="#resetDef" x="30" y="36" onmousedown="handleReset()"/>
   <use id="arrowup" xlink:href="#arrowUp" x="0" y="0" onmousedown="handlePan(0,-1)"/>
  <use id="arrowright" xlink:href="#arrowRight" x="0" y="0" onmousedown="handlePan(1,0)"/>
  <use id="arrowdown" xlink:href="#arrowDown" x="0" y="0" onmousedown="handlePan(0,1)"/>
  <use id="arrowleft" xlink:href="#arrowLeft" x="0" y="0" onmousedown="handlePan(-1,0)"/>
</g>
<svg viewBox="0 0 15 15" width="100%" height="30px" preserveAspectRatio="xMaxYMin meet">
 <g id="arrow_out" transform="scale(0.3 0.3)">
  <a xlink:href="classUParticleModuleEventReceiverSpawn__coll__graph_org.svg" target="_base">
   <rect id="button" ry="5" rx="5" y="6" x="6" height="38" width="38"
        fill="#f2f5e9" fill-opacity="0.5" stroke="#606060" stroke-width="1.0"/>
   <path id="arrow"
     d="M 11.500037,31.436501 C 11.940474,20.09759 22.043105,11.32322 32.158766,21.979434 L 37.068811,17.246167 C 37.068811,17.246167 37.088388,32 37.088388,32 L 22.160133,31.978069 C 22.160133,31.978069 26.997745,27.140456 26.997745,27.140456 C 18.528582,18.264221 13.291696,25.230495 11.500037,31.436501 z"
     style="fill:#404040;"/>
  </a>
 </g>
</svg>

<style type='text/css'>
<![CDATA[
[data-mouse-over-selected='false'] { opacity: 0.7; }
[data-mouse-over-selected='true']  { opacity: 1.0; }
]]>
</style>
<script type="application/ecmascript"><![CDATA[
document.addEventListener('DOMContentLoaded', (event) => {
  highlightEdges();
  highlightAdjacentNodes();
});
]]></script>
</svg>
