<?xml version="1.0" encoding="UTF-8" standalone="no"?>
<!DOCTYPE svg PUBLIC "-//W3C//DTD SVG 1.1//EN"
 "http://www.w3.org/Graphics/SVG/1.1/DTD/svg11.dtd">
<!-- Generated by graphviz version 14.1.4 (0)
 -->
<!-- Title: FFloat3PackedSE::ToLinearColor Pages: 1 -->
<svg width="406pt" height="42pt"
 viewBox="0.00 0.00 406.00 42.00" xmlns="http://www.w3.org/2000/svg" xmlns:xlink="http://www.w3.org/1999/xlink">
<g id="graph0" class="graph" transform="scale(1 1) rotate(0) translate(4 37.5)">
<title>FFloat3PackedSE::ToLinearColor</title>
<!-- Node1 -->
<g id="Node000001" class="node">
<title>Node1</title>
<g id="a_Node000001"><a xlink:title=" ">
<polygon fill="#999999" stroke="#666666" points="145.75,-33.5 0,-33.5 0,0 145.75,0 145.75,-33.5"/>
<text xml:space="preserve" text-anchor="start" x="8" y="-20" font-family="Helvetica,sans-Serif" font-size="10.00">FFloat3PackedSE::ToLinear</text>
<text xml:space="preserve" text-anchor="middle" x="72.88" y="-7.25" font-family="Helvetica,sans-Serif" font-size="10.00">Color</text>
</a>
</g>
</g>
<!-- Node2 -->
<g id="Node000002" class="node">
<title>Node2</title>
<g id="a_Node000002"><a xlink:href="$TypeCompatibleBytes_8h.html#a9f51593011f2657d9cd7fc1bccc239d5" xlink:title=" ">
<polygon fill="white" stroke="#666666" points="233,-27.12 181.75,-27.12 181.75,-6.38 233,-6.38 233,-27.12"/>
<text xml:space="preserve" text-anchor="middle" x="207.38" y="-13.62" font-family="Helvetica,sans-Serif" font-size="10.00">BitCast</text>
</a>
</g>
</g>
<!-- Node1&#45;&gt;Node2 -->
<g id="edge1_Node000001_Node000002" class="edge">
<title>Node1&#45;&gt;Node2</title>
<g id="a_edge1_Node000001_Node000002"><a xlink:title=" ">
<path fill="none" stroke="#63b8ff" d="M145.94,-16.75C154.31,-16.75 162.55,-16.75 170.12,-16.75"/>
<polygon fill="#63b8ff" stroke="#63b8ff" points="169.89,-20.25 179.89,-16.75 169.89,-13.25 169.89,-20.25"/>
</a>
</g>
</g>
<!-- Node3 -->
<g id="Node000003" class="node">
<title>Node3</title>
<g id="a_Node000003"><a xlink:href="$structTTypeCompatibleBytes.html#a656bdec8c8ede689b2fa6343bbc26dd9" xlink:title=" ">
<polygon fill="white" stroke="#666666" points="397.5,-33.5 269,-33.5 269,0 397.5,0 397.5,-33.5"/>
<text xml:space="preserve" text-anchor="start" x="277" y="-20" font-family="Helvetica,sans-Serif" font-size="10.00">TTypeCompatibleBytes</text>
<text xml:space="preserve" text-anchor="middle" x="333.25" y="-7.25" font-family="Helvetica,sans-Serif" font-size="10.00">::GetTypedPtr</text>
</a>
</g>
</g>
<!-- Node2&#45;&gt;Node3 -->
<g id="edge2_Node000002_Node000003" class="edge">
<title>Node2&#45;&gt;Node3</title>
<g id="a_edge2_Node000002_Node000003"><a xlink:title=" ">
<path fill="none" stroke="#63b8ff" d="M233.44,-16.75C240.57,-16.75 248.72,-16.75 257.22,-16.75"/>
<polygon fill="#63b8ff" stroke="#63b8ff" points="257.02,-20.25 267.02,-16.75 257.02,-13.25 257.02,-20.25"/>
</a>
</g>
</g>
</g>
</svg>
