<?xml version="1.0" encoding="UTF-8" standalone="no"?>
<!DOCTYPE svg PUBLIC "-//W3C//DTD SVG 1.1//EN"
 "http://www.w3.org/Graphics/SVG/1.1/DTD/svg11.dtd">
<!-- Generated by graphviz version 14.1.4 (0)
 -->
<!-- Title: URuntimeVirtualTexture::GetClampedTileCount Pages: 1 -->
<svg width="518pt" height="142pt"
 viewBox="0.00 0.00 518.00 142.00" xmlns="http://www.w3.org/2000/svg" xmlns:xlink="http://www.w3.org/1999/xlink">
<g id="graph0" class="graph" transform="scale(1 1) rotate(0) translate(4 137.88)">
<title>URuntimeVirtualTexture::GetClampedTileCount</title>
<!-- Node1 -->
<g id="Node000001" class="node">
<title>Node1</title>
<g id="a_Node000001"><a xlink:title=" ">
<polygon fill="#999999" stroke="#666666" points="510,-71.5 377,-71.5 377,-38 510,-38 510,-71.5"/>
<text xml:space="preserve" text-anchor="start" x="385" y="-58" font-family="Helvetica,sans-Serif" font-size="10.00">URuntimeVirtualTexture</text>
<text xml:space="preserve" text-anchor="middle" x="443.5" y="-45.25" font-family="Helvetica,sans-Serif" font-size="10.00">::GetClampedTileCount</text>
</a>
</g>
</g>
<!-- Node2 -->
<g id="Node000002" class="node">
<title>Node2</title>
<g id="a_Node000002"><a xlink:href="classURuntimeVirtualTexture.html#ade9da54b86791b08414c628d8dede4c9" target="_top" xlink:title=" ">
<polygon fill="white" stroke="#666666" points="341,-71.5 208,-71.5 208,-38 341,-38 341,-71.5"/>
<text xml:space="preserve" text-anchor="start" x="216" y="-58" font-family="Helvetica,sans-Serif" font-size="10.00">URuntimeVirtualTexture</text>
<text xml:space="preserve" text-anchor="middle" x="274.5" y="-45.25" font-family="Helvetica,sans-Serif" font-size="10.00">::GetTileCount</text>
</a>
</g>
</g>
<!-- Node1&#45;&gt;Node2 -->
<g id="edge1_Node000001_Node000002" class="edge">
<title>Node1&#45;&gt;Node2</title>
<g id="a_edge1_Node000001_Node000002"><a xlink:title=" ">
<path fill="none" stroke="#63b8ff" d="M365.62,-54.75C357.52,-54.75 349.34,-54.75 341.38,-54.75"/>
<polygon fill="#63b8ff" stroke="#63b8ff" points="365.46,-58.25 375.46,-54.75 365.46,-51.25 365.46,-58.25"/>
</a>
</g>
</g>
<!-- Node2&#45;&gt;Node2 -->
<g id="edge6_Node000002_Node000002" class="edge">
<title>Node2&#45;&gt;Node2</title>
<g id="a_edge6_Node000002_Node000002"><a xlink:title=" ">
<path fill="none" stroke="#63b8ff" d="M302.88,-82.89C298.26,-86.85 288.8,-89.5 274.5,-89.5 249.08,-89.5 238.96,-81.12 244.12,-71.91"/>
<polygon fill="#63b8ff" stroke="#63b8ff" points="306.26,-83.87 304.61,-73.4 299.37,-82.61 306.26,-83.87"/>
</a>
</g>
</g>
<!-- Node3 -->
<g id="Node000003" class="node">
<title>Node3</title>
<g id="a_Node000003"><a xlink:href="classURuntimeVirtualTexture.html#afa3b0c035fedf14dec2686d6e33c27a2" target="_top" xlink:title=" ">
<polygon fill="white" stroke="#666666" points="172,-115.88 0,-115.88 0,-69.62 172,-69.62 172,-115.88"/>
<text xml:space="preserve" text-anchor="start" x="8" y="-102.38" font-family="Helvetica,sans-Serif" font-size="10.00">URuntimeVirtualTexture</text>
<text xml:space="preserve" text-anchor="start" x="8" y="-89.62" font-family="Helvetica,sans-Serif" font-size="10.00">::FRuntimeVirtualTextureDetails</text>
<text xml:space="preserve" text-anchor="middle" x="86" y="-76.88" font-family="Helvetica,sans-Serif" font-size="10.00">Customization</text>
</a>
</g>
</g>
<!-- Node2&#45;&gt;Node3 -->
<g id="edge2_Node000002_Node000003" class="edge">
<title>Node2&#45;&gt;Node3</title>
<g id="a_edge2_Node000002_Node000003"><a xlink:title=" ">
<path fill="none" stroke="#63b8ff" d="M196.6,-70.42C188.62,-72.04 180.48,-73.7 172.41,-75.35"/>
<polygon fill="#63b8ff" stroke="#63b8ff" points="197.16,-73.88 206.26,-68.45 195.77,-67.02 197.16,-73.88"/>
</a>
</g>
</g>
<!-- Node4 -->
<g id="Node000004" class="node">
<title>Node4</title>
<g id="a_Node000004"><a xlink:href="classURuntimeVirtualTexture.html#aa871bbf484aab4055326dd5a1e84fbeb" target="_top" xlink:title=" ">
<polygon fill="white" stroke="#666666" points="152.5,-33.5 19.5,-33.5 19.5,0 152.5,0 152.5,-33.5"/>
<text xml:space="preserve" text-anchor="start" x="27.5" y="-20" font-family="Helvetica,sans-Serif" font-size="10.00">URuntimeVirtualTexture</text>
<text xml:space="preserve" text-anchor="middle" x="86" y="-7.25" font-family="Helvetica,sans-Serif" font-size="10.00">::GetSize</text>
</a>
</g>
</g>
<!-- Node2&#45;&gt;Node4 -->
<g id="edge4_Node000002_Node000004" class="edge">
<title>Node2&#45;&gt;Node4</title>
<g id="a_edge4_Node000002_Node000004"><a xlink:title=" ">
<path fill="none" stroke="#63b8ff" d="M196.73,-39.11C182.14,-36.13 167,-33.05 152.79,-30.15"/>
<polygon fill="#63b8ff" stroke="#63b8ff" points="195.77,-42.48 206.26,-41.05 197.16,-35.62 195.77,-42.48"/>
</a>
</g>
</g>
<!-- Node3&#45;&gt;Node3 -->
<g id="edge3_Node000003_Node000003" class="edge">
<title>Node3&#45;&gt;Node3</title>
<g id="a_edge3_Node000003_Node000003"><a xlink:title=" ">
<path fill="none" stroke="#63b8ff" d="M117,-126.61C111.64,-130.98 101.3,-133.88 86,-133.88 60.23,-133.88 48.55,-125.68 50.97,-116"/>
<polygon fill="#63b8ff" stroke="#63b8ff" points="120.21,-128.01 120.5,-117.42 113.67,-125.52 120.21,-128.01"/>
</a>
</g>
</g>
<!-- Node4&#45;&gt;Node4 -->
<g id="edge5_Node000004_Node000004" class="edge">
<title>Node4&#45;&gt;Node4</title>
<g id="a_edge5_Node000004_Node000004"><a xlink:title=" ">
<path fill="none" stroke="#63b8ff" d="M117.65,-44.89C112.5,-48.85 101.95,-51.5 86,-51.5 57.65,-51.5 46.36,-43.12 52.11,-33.91"/>
<polygon fill="#63b8ff" stroke="#63b8ff" points="121.02,-45.89 119.58,-35.4 114.16,-44.5 121.02,-45.89"/>
</a>
</g>
</g>
</g>
</svg>
