<?xml version="1.0" encoding="UTF-8" standalone="no"?>
<!DOCTYPE svg PUBLIC "-//W3C//DTD SVG 1.1//EN"
 "http://www.w3.org/Graphics/SVG/1.1/DTD/svg11.dtd">
<!-- Generated by graphviz version 14.1.4 (0)
 -->
<!-- Title: TIoStatusOr&lt; T &gt; Pages: 1 -->
<svg width="394pt" height="573pt"
 viewBox="0.00 0.00 394.00 573.00" xmlns="http://www.w3.org/2000/svg" xmlns:xlink="http://www.w3.org/1999/xlink">
<g id="graph0" class="graph" transform="scale(1 1) rotate(0) translate(4 569.25)">
<title>TIoStatusOr&lt; T &gt;</title>
<!-- Node1 -->
<g id="Node000001" class="node">
<title>Node1</title>
<g id="a_Node000001"><a xlink:title=" ">
<polygon fill="#999999" stroke="none" points="297.25,-221.75 203.75,-221.75 203.75,0 297.25,0 297.25,-221.75"/>
<text xml:space="preserve" text-anchor="start" x="207.75" y="-208" font-family="Helvetica,sans-Serif" font-size="10.00">TIoStatusOr&lt; T &gt;</text>
<text xml:space="preserve" text-anchor="start" x="247.5" y="-191.25" font-family="Helvetica,sans-Serif" font-size="10.00"> </text>
<text xml:space="preserve" text-anchor="start" x="207.88" y="-174.5" font-family="Helvetica,sans-Serif" font-size="10.00">+</text>
<text xml:space="preserve" text-anchor="start" x="220.25" y="-174.5" font-family="Helvetica,sans-Serif" font-size="10.00">TIoStatusOr()</text>
<text xml:space="preserve" text-anchor="start" x="207.88" y="-157.75" font-family="Helvetica,sans-Serif" font-size="10.00">+</text>
<text xml:space="preserve" text-anchor="start" x="220.25" y="-157.75" font-family="Helvetica,sans-Serif" font-size="10.00">TIoStatusOr()</text>
<text xml:space="preserve" text-anchor="start" x="207.88" y="-141" font-family="Helvetica,sans-Serif" font-size="10.00">+</text>
<text xml:space="preserve" text-anchor="start" x="220.25" y="-141" font-family="Helvetica,sans-Serif" font-size="10.00">TIoStatusOr()</text>
<text xml:space="preserve" text-anchor="start" x="207.88" y="-124.25" font-family="Helvetica,sans-Serif" font-size="10.00">+</text>
<text xml:space="preserve" text-anchor="start" x="220.25" y="-124.25" font-family="Helvetica,sans-Serif" font-size="10.00">TIoStatusOr()</text>
<text xml:space="preserve" text-anchor="start" x="207.88" y="-107.5" font-family="Helvetica,sans-Serif" font-size="10.00">+</text>
<text xml:space="preserve" text-anchor="start" x="220.25" y="-107.5" font-family="Helvetica,sans-Serif" font-size="10.00">TIoStatusOr()</text>
<text xml:space="preserve" text-anchor="start" x="207.88" y="-90.75" font-family="Helvetica,sans-Serif" font-size="10.00">+</text>
<text xml:space="preserve" text-anchor="start" x="220.25" y="-90.75" font-family="Helvetica,sans-Serif" font-size="10.00">TIoStatusOr()</text>
<text xml:space="preserve" text-anchor="start" x="207.88" y="-74" font-family="Helvetica,sans-Serif" font-size="10.00">+</text>
<text xml:space="preserve" text-anchor="start" x="220.25" y="-74" font-family="Helvetica,sans-Serif" font-size="10.00">~TIoStatusOr()</text>
<text xml:space="preserve" text-anchor="start" x="207.88" y="-57.25" font-family="Helvetica,sans-Serif" font-size="10.00">+</text>
<text xml:space="preserve" text-anchor="start" x="220.25" y="-57.25" font-family="Helvetica,sans-Serif" font-size="10.00">TIoStatusOr()</text>
<text xml:space="preserve" text-anchor="start" x="207.88" y="-40.5" font-family="Helvetica,sans-Serif" font-size="10.00">+</text>
<text xml:space="preserve" text-anchor="start" x="220.25" y="-40.5" font-family="Helvetica,sans-Serif" font-size="10.00">TIoStatusOr()</text>
<text xml:space="preserve" text-anchor="start" x="207.88" y="-23.75" font-family="Helvetica,sans-Serif" font-size="10.00">+</text>
<text xml:space="preserve" text-anchor="start" x="220.25" y="-23.75" font-family="Helvetica,sans-Serif" font-size="10.00">operator=()</text>
<text xml:space="preserve" text-anchor="start" x="220.25" y="-7" font-family="Helvetica,sans-Serif" font-size="10.00">and 10 more...</text>
<polygon fill="#666666" stroke="#666666" points="203.75,-203 203.75,-203 297.25,-203 297.25,-203 203.75,-203"/>
<polygon fill="#666666" stroke="#666666" points="203.75,-186.25 203.75,-186.25 297.25,-186.25 297.25,-186.25 203.75,-186.25"/>
<polygon fill="none" stroke="#666666" points="203.75,0 203.75,-221.75 297.25,-221.75 297.25,0 203.75,0"/>
</a>
</g>
</g>
<!-- Node2 -->
<g id="Node000002" class="node">
<title>Node2</title>
<g id="a_Node000002"><a xlink:href="$classFIoStatus.html" xlink:title=" ">
<polygon fill="white" stroke="none" points="141,-565.25 0,-565.25 0,-276.5 141,-276.5 141,-565.25"/>
<text xml:space="preserve" text-anchor="start" x="47.62" y="-551.5" font-family="Helvetica,sans-Serif" font-size="10.00">FIoStatus</text>
<text xml:space="preserve" text-anchor="start" x="4" y="-534.75" font-family="Helvetica,sans-Serif" font-size="10.00">+</text>
<text xml:space="preserve" text-anchor="start" x="16.25" y="-534.75" font-family="Helvetica,sans-Serif" font-size="10.00">MaxErrorMessageLength</text>
<text xml:space="preserve" text-anchor="start" x="6.25" y="-518" font-family="Helvetica,sans-Serif" font-size="10.00">&#45;</text>
<text xml:space="preserve" text-anchor="start" x="16.25" y="-518" font-family="Helvetica,sans-Serif" font-size="10.00">ErrorCode</text>
<text xml:space="preserve" text-anchor="start" x="6.25" y="-501.25" font-family="Helvetica,sans-Serif" font-size="10.00">&#45;</text>
<text xml:space="preserve" text-anchor="start" x="16.25" y="-501.25" font-family="Helvetica,sans-Serif" font-size="10.00">ErrorMessage</text>
<text xml:space="preserve" text-anchor="start" x="4" y="-484.5" font-family="Helvetica,sans-Serif" font-size="10.00">+</text>
<text xml:space="preserve" text-anchor="start" x="16.25" y="-484.5" font-family="Helvetica,sans-Serif" font-size="10.00">FIoStatus()</text>
<text xml:space="preserve" text-anchor="start" x="4" y="-467.75" font-family="Helvetica,sans-Serif" font-size="10.00">+</text>
<text xml:space="preserve" text-anchor="start" x="16.25" y="-467.75" font-family="Helvetica,sans-Serif" font-size="10.00">~FIoStatus()</text>
<text xml:space="preserve" text-anchor="start" x="4" y="-451" font-family="Helvetica,sans-Serif" font-size="10.00">+</text>
<text xml:space="preserve" text-anchor="start" x="16.25" y="-451" font-family="Helvetica,sans-Serif" font-size="10.00">FIoStatus()</text>
<text xml:space="preserve" text-anchor="start" x="4" y="-434.25" font-family="Helvetica,sans-Serif" font-size="10.00">+</text>
<text xml:space="preserve" text-anchor="start" x="16.25" y="-434.25" font-family="Helvetica,sans-Serif" font-size="10.00">FIoStatus()</text>
<text xml:space="preserve" text-anchor="start" x="4" y="-417.5" font-family="Helvetica,sans-Serif" font-size="10.00">+</text>
<text xml:space="preserve" text-anchor="start" x="16.25" y="-417.5" font-family="Helvetica,sans-Serif" font-size="10.00">operator=()</text>
<text xml:space="preserve" text-anchor="start" x="4" y="-400.75" font-family="Helvetica,sans-Serif" font-size="10.00">+</text>
<text xml:space="preserve" text-anchor="start" x="16.25" y="-400.75" font-family="Helvetica,sans-Serif" font-size="10.00">operator=()</text>
<text xml:space="preserve" text-anchor="start" x="4" y="-384" font-family="Helvetica,sans-Serif" font-size="10.00">+</text>
<text xml:space="preserve" text-anchor="start" x="16.25" y="-384" font-family="Helvetica,sans-Serif" font-size="10.00">operator==()</text>
<text xml:space="preserve" text-anchor="start" x="4" y="-367.25" font-family="Helvetica,sans-Serif" font-size="10.00">+</text>
<text xml:space="preserve" text-anchor="start" x="16.25" y="-367.25" font-family="Helvetica,sans-Serif" font-size="10.00">operator!=()</text>
<text xml:space="preserve" text-anchor="start" x="4" y="-350.5" font-family="Helvetica,sans-Serif" font-size="10.00">+</text>
<text xml:space="preserve" text-anchor="start" x="16.25" y="-350.5" font-family="Helvetica,sans-Serif" font-size="10.00">IsOk()</text>
<text xml:space="preserve" text-anchor="start" x="4" y="-333.75" font-family="Helvetica,sans-Serif" font-size="10.00">+</text>
<text xml:space="preserve" text-anchor="start" x="16.25" y="-333.75" font-family="Helvetica,sans-Serif" font-size="10.00">IsCompleted()</text>
<text xml:space="preserve" text-anchor="start" x="4" y="-317" font-family="Helvetica,sans-Serif" font-size="10.00">+</text>
<text xml:space="preserve" text-anchor="start" x="16.25" y="-317" font-family="Helvetica,sans-Serif" font-size="10.00">GetErrorCode()</text>
<text xml:space="preserve" text-anchor="start" x="4" y="-300.25" font-family="Helvetica,sans-Serif" font-size="10.00">+</text>
<text xml:space="preserve" text-anchor="start" x="16.25" y="-300.25" font-family="Helvetica,sans-Serif" font-size="10.00">ToString()</text>
<text xml:space="preserve" text-anchor="start" x="4" y="-283.5" font-family="Helvetica,sans-Serif" font-size="10.00">+</text>
<text xml:space="preserve" text-anchor="start" x="16.25" y="-283.5" font-family="Helvetica,sans-Serif" font-size="10.00">GetErrorMessage()</text>
<polygon fill="#666666" stroke="#666666" points="0,-546.5 0,-546.5 141,-546.5 141,-546.5 0,-546.5"/>
<polygon fill="#666666" stroke="#666666" points="0,-496.25 0,-496.25 14.25,-496.25 14.25,-496.25 0,-496.25"/>
<polygon fill="#666666" stroke="#666666" points="14.25,-496.25 14.25,-496.25 141,-496.25 141,-496.25 14.25,-496.25"/>
<polygon fill="none" stroke="#666666" points="0,-276.5 0,-565.25 141,-565.25 141,-276.5 0,-276.5"/>
</a>
</g>
</g>
<!-- Node2&#45;&gt;Node1 -->
<g id="edge1_Node000001_Node000002" class="edge">
<title>Node2&#45;&gt;Node1</title>
<g id="a_edge1_Node000001_Node000002"><a xlink:title=" ">
<path fill="none" stroke="#63b8ff" d="M140.87,-299.47C159.66,-267.31 179.65,-233.1 197.35,-202.82"/>
<polygon fill="none" stroke="#63b8ff" points="197.25,-202.99 196.82,-195.8 203.3,-192.63 203.73,-199.83 197.25,-202.99"/>
</a>
</g>
<text xml:space="preserve" text-anchor="start" x="174.28" y="-245.75" font-family="Helvetica,sans-Serif" font-size="10.00" fill="grey">&#45;StatusValue</text>
</g>
<!-- Node2&#45;&gt;Node2 -->
<g id="edge2_Node000002_Node000002" class="edge">
<title>Node2&#45;&gt;Node2</title>
<g id="a_edge2_Node000002_Node000002"><a xlink:title=" ">
<path fill="none" stroke="#63b8ff" d="M140.97,-450.24C151.71,-445.76 159,-435.97 159,-420.88 159,-411.44 156.15,-404.08 151.39,-398.79"/>
<polygon fill="none" stroke="#63b8ff" points="151.55,-398.9 144.34,-398.74 141.71,-392.03 148.92,-392.18 151.55,-398.9"/>
</a>
</g>
<text xml:space="preserve" text-anchor="start" x="162" y="-434.25" font-family="Helvetica,sans-Serif" font-size="10.00" fill="grey">+Invalid</text>
<text xml:space="preserve" text-anchor="start" x="162" y="-417.5" font-family="Helvetica,sans-Serif" font-size="10.00" fill="grey">+Ok</text>
<text xml:space="preserve" text-anchor="start" x="162" y="-400.75" font-family="Helvetica,sans-Serif" font-size="10.00" fill="grey">+Unknown</text>
</g>
<!-- Node3 -->
<g id="Node000003" class="node">
<title>Node3</title>
<g id="a_Node000003"><a xlink:href="$structTTypeCompatibleBytes.html" xlink:title=" ">
<polygon fill="white" stroke="none" points="386,-498.25 237,-498.25 237,-343.5 386,-343.5 386,-498.25"/>
<text xml:space="preserve" text-anchor="start" x="241" y="-484.5" font-family="Helvetica,sans-Serif" font-size="10.00">TTypeCompatibleBytes&lt; T &gt;</text>
<text xml:space="preserve" text-anchor="start" x="241.12" y="-467.75" font-family="Helvetica,sans-Serif" font-size="10.00">+</text>
<text xml:space="preserve" text-anchor="start" x="253.5" y="-467.75" font-family="Helvetica,sans-Serif" font-size="10.00">Pad</text>
<text xml:space="preserve" text-anchor="start" x="241.12" y="-451" font-family="Helvetica,sans-Serif" font-size="10.00">+</text>
<text xml:space="preserve" text-anchor="start" x="253.5" y="-451" font-family="Helvetica,sans-Serif" font-size="10.00">TTypeCompatibleBytes()</text>
<text xml:space="preserve" text-anchor="start" x="241.12" y="-434.25" font-family="Helvetica,sans-Serif" font-size="10.00">+</text>
<text xml:space="preserve" text-anchor="start" x="253.5" y="-434.25" font-family="Helvetica,sans-Serif" font-size="10.00">~TTypeCompatibleBytes()</text>
<text xml:space="preserve" text-anchor="start" x="241.12" y="-417.5" font-family="Helvetica,sans-Serif" font-size="10.00">+</text>
<text xml:space="preserve" text-anchor="start" x="253.5" y="-417.5" font-family="Helvetica,sans-Serif" font-size="10.00">operator=()</text>
<text xml:space="preserve" text-anchor="start" x="241.12" y="-400.75" font-family="Helvetica,sans-Serif" font-size="10.00">+</text>
<text xml:space="preserve" text-anchor="start" x="253.5" y="-400.75" font-family="Helvetica,sans-Serif" font-size="10.00">GetTypedPtr()</text>
<text xml:space="preserve" text-anchor="start" x="241.12" y="-384" font-family="Helvetica,sans-Serif" font-size="10.00">+</text>
<text xml:space="preserve" text-anchor="start" x="253.5" y="-384" font-family="Helvetica,sans-Serif" font-size="10.00">GetUnchecked()</text>
<text xml:space="preserve" text-anchor="start" x="241.12" y="-367.25" font-family="Helvetica,sans-Serif" font-size="10.00">+</text>
<text xml:space="preserve" text-anchor="start" x="253.5" y="-367.25" font-family="Helvetica,sans-Serif" font-size="10.00">EmplaceUnchecked()</text>
<text xml:space="preserve" text-anchor="start" x="241.12" y="-350.5" font-family="Helvetica,sans-Serif" font-size="10.00">+</text>
<text xml:space="preserve" text-anchor="start" x="253.5" y="-350.5" font-family="Helvetica,sans-Serif" font-size="10.00">DestroyUnchecked()</text>
<polygon fill="#666666" stroke="#666666" points="237,-479.5 237,-479.5 386,-479.5 386,-479.5 237,-479.5"/>
<polygon fill="#666666" stroke="#666666" points="237,-462.75 237,-462.75 251.5,-462.75 251.5,-462.75 237,-462.75"/>
<polygon fill="#666666" stroke="#666666" points="251.5,-462.75 251.5,-462.75 386,-462.75 386,-462.75 251.5,-462.75"/>
<polygon fill="none" stroke="#666666" points="237,-343.5 237,-498.25 386,-498.25 386,-343.5 237,-343.5"/>
</a>
</g>
</g>
<!-- Node3&#45;&gt;Node1 -->
<g id="edge3_Node000001_Node000003" class="edge">
<title>Node3&#45;&gt;Node1</title>
<g id="a_edge3_Node000001_Node000003"><a xlink:title=" ">
<path fill="none" stroke="#63b8ff" d="M296.42,-343.74C289.88,-310.69 282.04,-271.15 274.72,-234.16"/>
<polygon fill="none" stroke="#63b8ff" points="274.76,-234.38 269.67,-229.27 272.43,-222.61 277.52,-227.72 274.76,-234.38"/>
</a>
</g>
<text xml:space="preserve" text-anchor="start" x="282.17" y="-245.75" font-family="Helvetica,sans-Serif" font-size="10.00" fill="grey">&#45;Value</text>
</g>
</g>
</svg>
