<?xml version="1.0" encoding="UTF-8" standalone="no"?>
<!DOCTYPE svg PUBLIC "-//W3C//DTD SVG 1.1//EN"
 "http://www.w3.org/Graphics/SVG/1.1/DTD/svg11.dtd">
<!-- Generated by graphviz version 14.1.4 (0)
 -->
<!-- Title: FThreadManager::GetThreadName Pages: 1 -->
<svg width="607pt" height="80pt"
 viewBox="0.00 0.00 607.00 80.00" xmlns="http://www.w3.org/2000/svg" xmlns:xlink="http://www.w3.org/1999/xlink">
<g id="graph0" class="graph" transform="scale(1 1) rotate(0) translate(4 76.12)">
<title>FThreadManager::GetThreadName</title>
<!-- Node1 -->
<g id="Node000001" class="node">
<title>Node1</title>
<g id="a_Node000001"><a xlink:title=" ">
<polygon fill="#999999" stroke="#666666" points="184.75,-49.12 0,-49.12 0,-28.38 184.75,-28.38 184.75,-49.12"/>
<text xml:space="preserve" text-anchor="middle" x="92.38" y="-35.62" font-family="Helvetica,sans-Serif" font-size="10.00">FThreadManager::GetThreadName</text>
</a>
</g>
</g>
<!-- Node2 -->
<g id="Node000002" class="node">
<title>Node2</title>
<g id="a_Node000002"><a xlink:href="$classFThreadManager.html#a5b9ea0112c681caaee9edc062940818f" xlink:title=" ">
<polygon fill="white" stroke="#666666" points="359.38,-72.12 237.62,-72.12 237.62,-51.38 359.38,-51.38 359.38,-72.12"/>
<text xml:space="preserve" text-anchor="middle" x="298.5" y="-58.62" font-family="Helvetica,sans-Serif" font-size="10.00">FThreadManager::Get</text>
</a>
</g>
</g>
<!-- Node1&#45;&gt;Node2 -->
<g id="edge1_Node000001_Node000002" class="edge">
<title>Node1&#45;&gt;Node2</title>
<g id="a_edge1_Node000001_Node000002"><a xlink:title=" ">
<path fill="none" stroke="#63b8ff" d="M184.99,-49.07C198.68,-50.62 212.62,-52.19 225.82,-53.67"/>
<polygon fill="#63b8ff" stroke="#63b8ff" points="225.37,-57.14 235.69,-54.79 226.15,-50.19 225.37,-57.14"/>
</a>
</g>
</g>
<!-- Node4 -->
<g id="Node000004" class="node">
<title>Node4</title>
<g id="a_Node000004"><a xlink:href="$classFThreadManager.html#aab78b79c3d18735c68793ee1e10047d3" xlink:title=" ">
<polygon fill="white" stroke="#666666" points="376.25,-33.5 220.75,-33.5 220.75,0 376.25,0 376.25,-33.5"/>
<text xml:space="preserve" text-anchor="start" x="228.75" y="-20" font-family="Helvetica,sans-Serif" font-size="10.00">FThreadManager::GetThread</text>
<text xml:space="preserve" text-anchor="middle" x="298.5" y="-7.25" font-family="Helvetica,sans-Serif" font-size="10.00">NameInternal</text>
</a>
</g>
</g>
<!-- Node1&#45;&gt;Node4 -->
<g id="edge3_Node000001_Node000004" class="edge">
<title>Node1&#45;&gt;Node4</title>
<g id="a_edge3_Node000001_Node000004"><a xlink:title=" ">
<path fill="none" stroke="#63b8ff" d="M184.99,-28.88C193.06,-28.01 201.21,-27.13 209.25,-26.26"/>
<polygon fill="#63b8ff" stroke="#63b8ff" points="209.45,-29.76 219.02,-25.21 208.7,-22.8 209.45,-29.76"/>
</a>
</g>
</g>
<!-- Node3 -->
<g id="Node000003" class="node">
<title>Node3</title>
<g id="a_Node000003"><a xlink:href="$classFThreadManager.html#a90692562e55b2cc531eaef3ce6105950" xlink:title=" ">
<polygon fill="white" stroke="#666666" points="599.25,-72.12 412.25,-72.12 412.25,-51.38 599.25,-51.38 599.25,-72.12"/>
<text xml:space="preserve" text-anchor="middle" x="505.75" y="-58.62" font-family="Helvetica,sans-Serif" font-size="10.00">FThreadManager::FThreadManager</text>
</a>
</g>
</g>
<!-- Node2&#45;&gt;Node3 -->
<g id="edge2_Node000002_Node000003" class="edge">
<title>Node2&#45;&gt;Node3</title>
<g id="a_edge2_Node000002_Node000003"><a xlink:title=" ">
<path fill="none" stroke="#63b8ff" d="M359.69,-61.75C372.58,-61.75 386.54,-61.75 400.54,-61.75"/>
<polygon fill="#63b8ff" stroke="#63b8ff" points="400.24,-65.25 410.24,-61.75 400.24,-58.25 400.24,-65.25"/>
</a>
</g>
</g>
</g>
</svg>
