<?xml version="1.0" encoding="UTF-8" standalone="no"?>
<!DOCTYPE svg PUBLIC "-//W3C//DTD SVG 1.1//EN"
 "http://www.w3.org/Graphics/SVG/1.1/DTD/svg11.dtd">
<!-- Generated by graphviz version 14.1.4 (0)
 -->
<!-- Title: UAnimCurveCompressionCodec_UniformIndexable Pages: 1 -->
<svg width="288pt" height="358pt"
 viewBox="0.00 0.00 288.00 358.00" xmlns="http://www.w3.org/2000/svg" xmlns:xlink="http://www.w3.org/1999/xlink">
<g id="graph0" class="graph" transform="scale(1 1) rotate(0) translate(4 354)">
<title>UAnimCurveCompressionCodec_UniformIndexable</title>
<!-- Node1 -->
<g id="Node000001" class="node">
<title>Node1</title>
<g id="a_Node000001"><a xlink:title=" ">
<polygon fill="#999999" stroke="none" points="163.25,-117.25 0,-117.25 0,0 163.25,0 163.25,-117.25"/>
<text xml:space="preserve" text-anchor="start" x="4" y="-103.5" font-family="Helvetica,sans-Serif" font-size="10.00">UAnimCurveCompressionCodec</text>
<text xml:space="preserve" text-anchor="start" x="35.12" y="-90.75" font-family="Helvetica,sans-Serif" font-size="10.00">_UniformIndexable</text>
<text xml:space="preserve" text-anchor="start" x="78.62" y="-74" font-family="Helvetica,sans-Serif" font-size="10.00"> </text>
<text xml:space="preserve" text-anchor="start" x="4.88" y="-57.25" font-family="Helvetica,sans-Serif" font-size="10.00">&#45;</text>
<text xml:space="preserve" text-anchor="start" x="13.5" y="-57.25" font-family="Helvetica,sans-Serif" font-size="10.00">DecompressCurves()</text>
<text xml:space="preserve" text-anchor="start" x="4.88" y="-40.5" font-family="Helvetica,sans-Serif" font-size="10.00">&#45;</text>
<text xml:space="preserve" text-anchor="start" x="13.5" y="-40.5" font-family="Helvetica,sans-Serif" font-size="10.00">DecompressCurve()</text>
<text xml:space="preserve" text-anchor="start" x="4.88" y="-23.75" font-family="Helvetica,sans-Serif" font-size="10.00">&#45;</text>
<text xml:space="preserve" text-anchor="start" x="13.5" y="-23.75" font-family="Helvetica,sans-Serif" font-size="10.00">GetCurveBufferAndSamples()</text>
<text xml:space="preserve" text-anchor="start" x="4.88" y="-7" font-family="Helvetica,sans-Serif" font-size="10.00">&#45;</text>
<text xml:space="preserve" text-anchor="start" x="13.5" y="-7" font-family="Helvetica,sans-Serif" font-size="10.00">GetCurveBufferAndSamples()</text>
<polygon fill="#666666" stroke="#666666" points="0,-85.75 0,-85.75 163.25,-85.75 163.25,-85.75 0,-85.75"/>
<polygon fill="#666666" stroke="#666666" points="0,-69 0,-69 163.25,-69 163.25,-69 0,-69"/>
<polygon fill="none" stroke="#666666" points="0,0 0,-117.25 163.25,-117.25 163.25,0 0,0"/>
</a>
</g>
</g>
<!-- Node2 -->
<g id="Node000002" class="node">
<title>Node2</title>
<g id="a_Node000002"><a xlink:href="classUAnimCurveCompressionCodec.html" target="_top" xlink:title=" ">
<polygon fill="white" stroke="none" points="163.25,-258.75 0,-258.75 0,-154.25 163.25,-154.25 163.25,-258.75"/>
<text xml:space="preserve" text-anchor="start" x="4" y="-245" font-family="Helvetica,sans-Serif" font-size="10.00">UAnimCurveCompressionCodec</text>
<text xml:space="preserve" text-anchor="start" x="78.62" y="-228.25" font-family="Helvetica,sans-Serif" font-size="10.00"> </text>
<text xml:space="preserve" text-anchor="start" x="7.88" y="-211.5" font-family="Helvetica,sans-Serif" font-size="10.00">&#45;</text>
<text xml:space="preserve" text-anchor="start" x="19.5" y="-211.5" font-family="Helvetica,sans-Serif" font-size="10.00">GetCodec()</text>
<text xml:space="preserve" text-anchor="start" x="7.88" y="-194.75" font-family="Helvetica,sans-Serif" font-size="10.00">&#45;</text>
<text xml:space="preserve" text-anchor="start" x="19.5" y="-194.75" font-family="Helvetica,sans-Serif" font-size="10.00">Serialize()</text>
<text xml:space="preserve" text-anchor="start" x="7.88" y="-178" font-family="Helvetica,sans-Serif" font-size="10.00">&#45;</text>
<text xml:space="preserve" text-anchor="start" x="19.5" y="-178" font-family="Helvetica,sans-Serif" font-size="10.00">ValidateCompressedData()</text>
<text xml:space="preserve" text-anchor="start" x="7.88" y="-161.25" font-family="Helvetica,sans-Serif" font-size="10.00">&#45;</text>
<text xml:space="preserve" text-anchor="start" x="19.5" y="-161.25" font-family="Helvetica,sans-Serif" font-size="10.00">DecompressCurve()</text>
<polygon fill="#666666" stroke="#666666" points="0,-240 0,-240 163.25,-240 163.25,-240 0,-240"/>
<polygon fill="#666666" stroke="#666666" points="0,-223.25 0,-223.25 163.25,-223.25 163.25,-223.25 0,-223.25"/>
<polygon fill="none" stroke="#666666" points="0,-154.25 0,-258.75 163.25,-258.75 163.25,-154.25 0,-154.25"/>
</a>
</g>
</g>
<!-- Node2&#45;&gt;Node1 -->
<g id="edge1_Node000001_Node000002" class="edge">
<title>Node2&#45;&gt;Node1</title>
<g id="a_edge1_Node000001_Node000002"><a xlink:title=" ">
<path fill="none" stroke="#63b8ff" d="M81.62,-143.24C81.62,-134.56 81.62,-125.68 81.62,-117.1"/>
<polygon fill="none" stroke="#63b8ff" points="78.13,-142.97 81.63,-152.97 85.13,-142.97 78.13,-142.97"/>
</a>
</g>
</g>
<!-- Node2&#45;&gt;Node2 -->
<g id="edge3_Node000002_Node000002" class="edge">
<title>Node2&#45;&gt;Node2</title>
<g id="a_edge3_Node000002_Node000002"><a xlink:title=" ">
<path fill="none" stroke="#63b8ff" d="M162.93,-218.27C173.93,-216.3 181.25,-212.37 181.25,-206.5 181.25,-203.29 179.06,-200.66 175.28,-198.61"/>
<polygon fill="none" stroke="#63b8ff" points="175.24,-198.6 168.31,-200.62 163.79,-195 170.71,-192.99 175.24,-198.6"/>
</a>
</g>
<text xml:space="preserve" text-anchor="start" x="184.25" y="-203.12" font-family="Helvetica,sans-Serif" font-size="10.00" fill="grey">&#45;DecompressCurve</text>
</g>
<!-- Node3 -->
<g id="Node000003" class="node">
<title>Node3</title>
<g id="a_Node000003"><a xlink:title=" ">
<polygon fill="white" stroke="none" points="105.12,-350 58.12,-350 58.12,-295.75 105.12,-295.75 105.12,-350"/>
<text xml:space="preserve" text-anchor="start" x="62.12" y="-336.25" font-family="Helvetica,sans-Serif" font-size="10.00">UObject</text>
<text xml:space="preserve" text-anchor="start" x="78.62" y="-319.5" font-family="Helvetica,sans-Serif" font-size="10.00"> </text>
<text xml:space="preserve" text-anchor="start" x="78.62" y="-302.75" font-family="Helvetica,sans-Serif" font-size="10.00"> </text>
<polygon fill="#666666" stroke="#666666" points="58.12,-331.25 58.12,-331.25 105.12,-331.25 105.12,-331.25 58.12,-331.25"/>
<polygon fill="#666666" stroke="#666666" points="58.12,-314.5 58.12,-314.5 105.12,-314.5 105.12,-314.5 58.12,-314.5"/>
<polygon fill="none" stroke="#666666" points="58.12,-295.75 58.12,-350 105.12,-350 105.12,-295.75 58.12,-295.75"/>
</a>
</g>
</g>
<!-- Node3&#45;&gt;Node2 -->
<g id="edge2_Node000002_Node000003" class="edge">
<title>Node3&#45;&gt;Node2</title>
<g id="a_edge2_Node000002_Node000003"><a xlink:title=" ">
<path fill="none" stroke="#63b8ff" d="M81.62,-284.68C81.62,-276.35 81.62,-267.39 81.62,-258.61"/>
<polygon fill="none" stroke="#63b8ff" points="78.13,-284.41 81.63,-294.41 85.13,-284.41 78.13,-284.41"/>
</a>
</g>
</g>
</g>
</svg>
