<?xml version="1.0" encoding="UTF-8" standalone="no"?>
<!DOCTYPE svg PUBLIC "-//W3C//DTD SVG 1.1//EN"
 "http://www.w3.org/Graphics/SVG/1.1/DTD/svg11.dtd">
<!-- Generated by graphviz version 14.1.4 (0)
 -->
<!-- Title: UParticleModuleRotationRate_Seeded Pages: 1 -->
<!--zoomable 1340 -->

<svg id="main" version="1.1" xmlns="http://www.w3.org/2000/svg" xmlns:xlink="http://www.w3.org/1999/xlink" xml:space="preserve" onload="init(evt)">

<style type="text/css"><![CDATA[
.node, .edge {opacity: 0.7;}
.node.selected, .edge.selected {opacity: 1;}
.edge:hover path { stroke: red; }
.edge:hover polygon { stroke: red; fill: red; }
]]></style>

<defs>
  <circle id="rim" cx="0" cy="0" r="7"/>
  <circle id="rim2" cx="0" cy="0" r="3.5"/>
  <g id="zoomPlus">
    <use xlink:href="#rim" fill="#404040"><set attributeName="fill" to="#808080" begin="zoomplus.mouseover" end="zoomplus.mouseout"/></use>
    <path d="M-4,0h8M0,-4v8" fill="none" stroke="white" stroke-width="1.5" pointer-events="none"/>
  </g>
  <g id="zoomMin">
    <use xlink:href="#rim" fill="#404040"><set attributeName="fill" to="#808080" begin="zoomminus.mouseover" end="zoomminus.mouseout"/></use>
    <path d="M-4,0h8" fill="none" stroke="white" stroke-width="1.5" pointer-events="none"/>
  </g>
  <g id="arrowUp" transform="translate(30 24)">
    <use xlink:href="#rim"/>
    <path pointer-events="none" fill="none" stroke="white" stroke-width="1.5" d="M0,-3.0v7 M-2.5,-0.5L0,-3.0L2.5,-0.5"/>
  </g>
  <g id="arrowRight" transform="rotate(90) translate(36 -43)">
    <use xlink:href="#rim"/>
    <path pointer-events="none" fill="none" stroke="white" stroke-width="1.5" d="M0,-3.0v7 M-2.5,-0.5L0,-3.0L2.5,-0.5"/>
  </g>
  <g id="arrowDown" transform="rotate(180) translate(-30 -48)">
    <use xlink:href="#rim"/>
    <path pointer-events="none" fill="none" stroke="white" stroke-width="1.5" d="M0,-3.0v7 M-2.5,-0.5L0,-3.0L2.5,-0.5"/>
  </g>
  <g id="arrowLeft" transform="rotate(270) translate(-36 17)">
    <use xlink:href="#rim"/>
    <path pointer-events="none" fill="none" stroke="white" stroke-width="1.5" d="M0,-3.0v7 M-2.5,-0.5L0,-3.0L2.5,-0.5"/>
  </g>
  <g id="resetDef">
    <use xlink:href="#rim2" fill="#404040"><set attributeName="fill" to="#808080" begin="reset.mouseover" end="reset.mouseout"/></use>
  </g>
</defs>
<script type="application/ecmascript">
var viewWidth = 444;
var viewHeight = 1340;
var sectionId = 'dynsection-1';
</script>
<script type="application/ecmascript" xlink:href="svg.min.js"/>
<svg id="graph" class="graph">
<g id="viewport">
<title>UParticleModuleRotationRate_Seeded</title>
<!-- Node1 -->
<g id="Node000001" class="node">
<title>Node1</title>
<g id="a_Node000001"><a xlink:title=" ">
<polygon fill="#999999" stroke="none" points="340,-83.75 188,-83.75 188,0 340,0 340,-83.75"/>
<text xml:space="preserve" text-anchor="start" x="192" y="-70" font-family="Helvetica,sans-Serif" font-size="10.00">UParticleModuleRotationRate</text>
<text xml:space="preserve" text-anchor="start" x="243.38" y="-57.25" font-family="Helvetica,sans-Serif" font-size="10.00">_Seeded</text>
<text xml:space="preserve" text-anchor="start" x="261" y="-40.5" font-family="Helvetica,sans-Serif" font-size="10.00"> </text>
<text xml:space="preserve" text-anchor="start" x="198.12" y="-23.75" font-family="Helvetica,sans-Serif" font-size="10.00">&#45;</text>
<text xml:space="preserve" text-anchor="start" x="212" y="-23.75" font-family="Helvetica,sans-Serif" font-size="10.00">GetRandomSeedInfo()</text>
<text xml:space="preserve" text-anchor="start" x="198.12" y="-7" font-family="Helvetica,sans-Serif" font-size="10.00">&#45;</text>
<text xml:space="preserve" text-anchor="start" x="212" y="-7" font-family="Helvetica,sans-Serif" font-size="10.00">EmitterLoopingNotify()</text>
<polygon fill="#666666" stroke="#666666" points="188,-52.25 188,-52.25 340,-52.25 340,-52.25 188,-52.25"/>
<polygon fill="#666666" stroke="#666666" points="188,-35.5 188,-35.5 340,-35.5 340,-35.5 188,-35.5"/>
<polygon fill="none" stroke="#666666" points="188,0 188,-83.75 340,-83.75 340,0 188,0"/>
</a>
</g>
</g>
<!-- Node2 -->
<g id="Node000002" class="node">
<title>Node2</title>
<g id="a_Node000002"><a xlink:href="classUParticleModuleRotationRate.html" target="_top" xlink:title=" ">
<polygon fill="white" stroke="none" points="252,-293.25 100,-293.25 100,-138.5 252,-138.5 252,-293.25"/>
<text xml:space="preserve" text-anchor="start" x="104" y="-279.5" font-family="Helvetica,sans-Serif" font-size="10.00">UParticleModuleRotationRate</text>
<text xml:space="preserve" text-anchor="start" x="173" y="-262.75" font-family="Helvetica,sans-Serif" font-size="10.00"> </text>
<text xml:space="preserve" text-anchor="start" x="106.75" y="-246" font-family="Helvetica,sans-Serif" font-size="10.00">&#45;</text>
<text xml:space="preserve" text-anchor="start" x="117.25" y="-246" font-family="Helvetica,sans-Serif" font-size="10.00">InitializeDefaults()</text>
<text xml:space="preserve" text-anchor="start" x="106.75" y="-229.25" font-family="Helvetica,sans-Serif" font-size="10.00">&#45;</text>
<text xml:space="preserve" text-anchor="start" x="117.25" y="-229.25" font-family="Helvetica,sans-Serif" font-size="10.00">PostEditChangeProperty()</text>
<text xml:space="preserve" text-anchor="start" x="106.75" y="-212.5" font-family="Helvetica,sans-Serif" font-size="10.00">&#45;</text>
<text xml:space="preserve" text-anchor="start" x="117.25" y="-212.5" font-family="Helvetica,sans-Serif" font-size="10.00">PostInitProperties()</text>
<text xml:space="preserve" text-anchor="start" x="106.75" y="-195.75" font-family="Helvetica,sans-Serif" font-size="10.00">&#45;</text>
<text xml:space="preserve" text-anchor="start" x="117.25" y="-195.75" font-family="Helvetica,sans-Serif" font-size="10.00">CompileModule()</text>
<text xml:space="preserve" text-anchor="start" x="106.75" y="-179" font-family="Helvetica,sans-Serif" font-size="10.00">&#45;</text>
<text xml:space="preserve" text-anchor="start" x="117.25" y="-179" font-family="Helvetica,sans-Serif" font-size="10.00">Spawn()</text>
<text xml:space="preserve" text-anchor="start" x="106.75" y="-162.25" font-family="Helvetica,sans-Serif" font-size="10.00">&#45;</text>
<text xml:space="preserve" text-anchor="start" x="117.25" y="-162.25" font-family="Helvetica,sans-Serif" font-size="10.00">SetToSensibleDefaults()</text>
<text xml:space="preserve" text-anchor="start" x="106.75" y="-145.5" font-family="Helvetica,sans-Serif" font-size="10.00">&#45;</text>
<text xml:space="preserve" text-anchor="start" x="117.25" y="-145.5" font-family="Helvetica,sans-Serif" font-size="10.00">SpawnEx()</text>
<polygon fill="#666666" stroke="#666666" points="100,-274.5 100,-274.5 252,-274.5 252,-274.5 100,-274.5"/>
<polygon fill="#666666" stroke="#666666" points="100,-257.75 100,-257.75 252,-257.75 252,-257.75 100,-257.75"/>
<polygon fill="none" stroke="#666666" points="100,-138.5 100,-293.25 252,-293.25 252,-138.5 100,-138.5"/>
</a>
</g>
</g>
<!-- Node2&#45;&gt;Node1 -->
<g id="edge1_Node000001_Node000002" class="edge">
<title>Node2&#45;&gt;Node1</title>
<g id="a_edge1_Node000001_Node000002"><a xlink:title=" ">
<path fill="none" stroke="#63b8ff" d="M220.03,-128.82C228.15,-112.95 236.26,-97.09 243.27,-83.39"/>
<polygon fill="none" stroke="#63b8ff" points="217.11,-126.84 215.67,-137.33 223.34,-130.03 217.11,-126.84"/>
</a>
</g>
</g>
<!-- Node3 -->
<g id="Node000003" class="node">
<title>Node3</title>
<g id="a_Node000003"><a xlink:href="classUParticleModuleRotationRateBase.html" target="_top" xlink:title=" ">
<polygon fill="white" stroke="none" points="176,-486 0,-486 0,-431.75 176,-431.75 176,-486"/>
<text xml:space="preserve" text-anchor="start" x="4" y="-472.25" font-family="Helvetica,sans-Serif" font-size="10.00">UParticleModuleRotationRateBase</text>
<text xml:space="preserve" text-anchor="start" x="85" y="-455.5" font-family="Helvetica,sans-Serif" font-size="10.00"> </text>
<text xml:space="preserve" text-anchor="start" x="85" y="-438.75" font-family="Helvetica,sans-Serif" font-size="10.00"> </text>
<polygon fill="#666666" stroke="#666666" points="0,-467.25 0,-467.25 176,-467.25 176,-467.25 0,-467.25"/>
<polygon fill="#666666" stroke="#666666" points="0,-450.5 0,-450.5 176,-450.5 176,-450.5 0,-450.5"/>
<polygon fill="none" stroke="#666666" points="0,-431.75 0,-486 176,-486 176,-431.75 0,-431.75"/>
</a>
</g>
</g>
<!-- Node3&#45;&gt;Node2 -->
<g id="edge2_Node000002_Node000003" class="edge">
<title>Node3&#45;&gt;Node2</title>
<g id="a_edge2_Node000002_Node000003"><a xlink:title=" ">
<path fill="none" stroke="#63b8ff" d="M101.35,-421.31C113.72,-387.43 132.51,-335.97 148.14,-293.16"/>
<polygon fill="none" stroke="#63b8ff" points="98.08,-420.07 97.94,-430.66 104.65,-422.47 98.08,-420.07"/>
</a>
</g>
</g>
<!-- Node4 -->
<g id="Node000004" class="node">
<title>Node4</title>
<g id="a_Node000004"><a xlink:href="classUParticleModule.html" target="_top" xlink:title=" ">
<polygon fill="white" stroke="none" points="169,-1105.25 7,-1105.25 7,-606.75 169,-606.75 169,-1105.25"/>
<text xml:space="preserve" text-anchor="start" x="47.88" y="-1091.5" font-family="Helvetica,sans-Serif" font-size="10.00">UParticleModule</text>
<text xml:space="preserve" text-anchor="start" x="11" y="-1074.75" font-family="Helvetica,sans-Serif" font-size="10.00">&#45;</text>
<text xml:space="preserve" text-anchor="start" x="18.75" y="-1074.75" font-family="Helvetica,sans-Serif" font-size="10.00">bSpawnModule</text>
<text xml:space="preserve" text-anchor="start" x="11" y="-1058" font-family="Helvetica,sans-Serif" font-size="10.00">&#45;</text>
<text xml:space="preserve" text-anchor="start" x="18.75" y="-1058" font-family="Helvetica,sans-Serif" font-size="10.00">bUpdateModule</text>
<text xml:space="preserve" text-anchor="start" x="11" y="-1041.25" font-family="Helvetica,sans-Serif" font-size="10.00">&#45;</text>
<text xml:space="preserve" text-anchor="start" x="18.75" y="-1041.25" font-family="Helvetica,sans-Serif" font-size="10.00">bFinalUpdateModule</text>
<text xml:space="preserve" text-anchor="start" x="11" y="-1024.5" font-family="Helvetica,sans-Serif" font-size="10.00">&#45;</text>
<text xml:space="preserve" text-anchor="start" x="18.75" y="-1024.5" font-family="Helvetica,sans-Serif" font-size="10.00">bUpdateForGPUEmitter</text>
<text xml:space="preserve" text-anchor="start" x="11" y="-1007.75" font-family="Helvetica,sans-Serif" font-size="10.00">&#45;</text>
<text xml:space="preserve" text-anchor="start" x="18.75" y="-1007.75" font-family="Helvetica,sans-Serif" font-size="10.00">bCurvesAsColor</text>
<text xml:space="preserve" text-anchor="start" x="11" y="-991" font-family="Helvetica,sans-Serif" font-size="10.00">&#45;</text>
<text xml:space="preserve" text-anchor="start" x="18.75" y="-991" font-family="Helvetica,sans-Serif" font-size="10.00">b3DDrawMode</text>
<text xml:space="preserve" text-anchor="start" x="11" y="-974.25" font-family="Helvetica,sans-Serif" font-size="10.00">&#45;</text>
<text xml:space="preserve" text-anchor="start" x="18.75" y="-974.25" font-family="Helvetica,sans-Serif" font-size="10.00">bSupported3DDrawMode</text>
<text xml:space="preserve" text-anchor="start" x="11" y="-957.5" font-family="Helvetica,sans-Serif" font-size="10.00">&#45;</text>
<text xml:space="preserve" text-anchor="start" x="18.75" y="-957.5" font-family="Helvetica,sans-Serif" font-size="10.00">bEnabled</text>
<text xml:space="preserve" text-anchor="start" x="11" y="-940.75" font-family="Helvetica,sans-Serif" font-size="10.00">&#45;</text>
<text xml:space="preserve" text-anchor="start" x="18.75" y="-940.75" font-family="Helvetica,sans-Serif" font-size="10.00">bEditable</text>
<text xml:space="preserve" text-anchor="start" x="11" y="-924" font-family="Helvetica,sans-Serif" font-size="10.00">&#45;</text>
<text xml:space="preserve" text-anchor="start" x="18.75" y="-924" font-family="Helvetica,sans-Serif" font-size="10.00">LODDuplicate</text>
<text xml:space="preserve" text-anchor="start" x="11" y="-907.25" font-family="Helvetica,sans-Serif" font-size="10.00">&#45;</text>
<text xml:space="preserve" text-anchor="start" x="18.75" y="-907.25" font-family="Helvetica,sans-Serif" font-size="10.00">bSupportsRandomSeed</text>
<text xml:space="preserve" text-anchor="start" x="11" y="-890.5" font-family="Helvetica,sans-Serif" font-size="10.00">&#45;</text>
<text xml:space="preserve" text-anchor="start" x="18.75" y="-890.5" font-family="Helvetica,sans-Serif" font-size="10.00">bRequiresLoopingNotification</text>
<text xml:space="preserve" text-anchor="start" x="11" y="-873.75" font-family="Helvetica,sans-Serif" font-size="10.00">&#45;</text>
<text xml:space="preserve" text-anchor="start" x="18.75" y="-873.75" font-family="Helvetica,sans-Serif" font-size="10.00">LODValidity</text>
<text xml:space="preserve" text-anchor="start" x="11" y="-857" font-family="Helvetica,sans-Serif" font-size="10.00">&#45;</text>
<text xml:space="preserve" text-anchor="start" x="18.75" y="-857" font-family="Helvetica,sans-Serif" font-size="10.00">IsPostLoadThreadSafe()</text>
<text xml:space="preserve" text-anchor="start" x="11" y="-840.25" font-family="Helvetica,sans-Serif" font-size="10.00">&#45;</text>
<text xml:space="preserve" text-anchor="start" x="18.75" y="-840.25" font-family="Helvetica,sans-Serif" font-size="10.00">PostEditChangeProperty()</text>
<text xml:space="preserve" text-anchor="start" x="11" y="-823.5" font-family="Helvetica,sans-Serif" font-size="10.00">&#45;</text>
<text xml:space="preserve" text-anchor="start" x="18.75" y="-823.5" font-family="Helvetica,sans-Serif" font-size="10.00">CompileModule()</text>
<text xml:space="preserve" text-anchor="start" x="11" y="-806.75" font-family="Helvetica,sans-Serif" font-size="10.00">&#45;</text>
<text xml:space="preserve" text-anchor="start" x="18.75" y="-806.75" font-family="Helvetica,sans-Serif" font-size="10.00">Spawn()</text>
<text xml:space="preserve" text-anchor="start" x="11" y="-790" font-family="Helvetica,sans-Serif" font-size="10.00">&#45;</text>
<text xml:space="preserve" text-anchor="start" x="18.75" y="-790" font-family="Helvetica,sans-Serif" font-size="10.00">Update()</text>
<text xml:space="preserve" text-anchor="start" x="11" y="-773.25" font-family="Helvetica,sans-Serif" font-size="10.00">&#45;</text>
<text xml:space="preserve" text-anchor="start" x="18.75" y="-773.25" font-family="Helvetica,sans-Serif" font-size="10.00">FinalUpdate()</text>
<text xml:space="preserve" text-anchor="start" x="11" y="-756.5" font-family="Helvetica,sans-Serif" font-size="10.00">&#45;</text>
<text xml:space="preserve" text-anchor="start" x="18.75" y="-756.5" font-family="Helvetica,sans-Serif" font-size="10.00">RequiredBytes()</text>
<text xml:space="preserve" text-anchor="start" x="11" y="-739.75" font-family="Helvetica,sans-Serif" font-size="10.00">&#45;</text>
<text xml:space="preserve" text-anchor="start" x="18.75" y="-739.75" font-family="Helvetica,sans-Serif" font-size="10.00">RequiredBytesPerInstance()</text>
<text xml:space="preserve" text-anchor="start" x="11" y="-723" font-family="Helvetica,sans-Serif" font-size="10.00">&#45;</text>
<text xml:space="preserve" text-anchor="start" x="18.75" y="-723" font-family="Helvetica,sans-Serif" font-size="10.00">PrepPerInstanceBlock()</text>
<text xml:space="preserve" text-anchor="start" x="11" y="-706.25" font-family="Helvetica,sans-Serif" font-size="10.00">&#45;</text>
<text xml:space="preserve" text-anchor="start" x="18.75" y="-706.25" font-family="Helvetica,sans-Serif" font-size="10.00">SetToSensibleDefaults()</text>
<text xml:space="preserve" text-anchor="start" x="18.75" y="-689.5" font-family="Helvetica,sans-Serif" font-size="10.00">and 35 more...</text>
<text xml:space="preserve" text-anchor="start" x="11" y="-672.75" font-family="Helvetica,sans-Serif" font-size="10.00">&#45;</text>
<text xml:space="preserve" text-anchor="start" x="18.75" y="-672.75" font-family="Helvetica,sans-Serif" font-size="10.00">GetDistributionsRestricted</text>
<text xml:space="preserve" text-anchor="start" x="18.75" y="-660" font-family="Helvetica,sans-Serif" font-size="10.00">OnGPU()</text>
<text xml:space="preserve" text-anchor="start" x="11" y="-643.25" font-family="Helvetica,sans-Serif" font-size="10.00">&#45;</text>
<text xml:space="preserve" text-anchor="start" x="18.75" y="-643.25" font-family="Helvetica,sans-Serif" font-size="10.00">IsDistributionAllowedOnGPU()</text>
<text xml:space="preserve" text-anchor="start" x="11" y="-626.5" font-family="Helvetica,sans-Serif" font-size="10.00">&#45;</text>
<text xml:space="preserve" text-anchor="start" x="18.75" y="-626.5" font-family="Helvetica,sans-Serif" font-size="10.00">GetDistributionNotAllowed</text>
<text xml:space="preserve" text-anchor="start" x="18.75" y="-613.75" font-family="Helvetica,sans-Serif" font-size="10.00">OnGPUText()</text>
<polygon fill="#666666" stroke="#666666" points="7,-1086.5 7,-1086.5 169,-1086.5 169,-1086.5 7,-1086.5"/>
<polygon fill="#666666" stroke="#666666" points="7,-868.75 7,-868.75 16.75,-868.75 16.75,-868.75 7,-868.75"/>
<polygon fill="#666666" stroke="#666666" points="16.75,-868.75 16.75,-868.75 169,-868.75 169,-868.75 16.75,-868.75"/>
<polygon fill="none" stroke="#666666" points="7,-606.75 7,-1105.25 169,-1105.25 169,-606.75 7,-606.75"/>
</a>
</g>
</g>
<!-- Node4&#45;&gt;Node3 -->
<g id="edge3_Node000003_Node000004" class="edge">
<title>Node4&#45;&gt;Node3</title>
<g id="a_edge3_Node000003_Node000004"><a xlink:title=" ">
<path fill="none" stroke="#63b8ff" d="M88,-595.5C88,-550.63 88,-510.5 88,-485.75"/>
<polygon fill="none" stroke="#63b8ff" points="84.5,-595.49 88,-605.49 91.5,-595.49 84.5,-595.49"/>
</a>
</g>
</g>
<!-- Node5 -->
<g id="Node000005" class="node">
<title>Node5</title>
<g id="a_Node000005"><a xlink:title=" ">
<polygon fill="white" stroke="none" points="111.5,-1272.88 64.5,-1272.88 64.5,-1218.62 111.5,-1218.62 111.5,-1272.88"/>
<text xml:space="preserve" text-anchor="start" x="68.5" y="-1259.12" font-family="Helvetica,sans-Serif" font-size="10.00">UObject</text>
<text xml:space="preserve" text-anchor="start" x="85" y="-1242.38" font-family="Helvetica,sans-Serif" font-size="10.00"> </text>
<text xml:space="preserve" text-anchor="start" x="85" y="-1225.62" font-family="Helvetica,sans-Serif" font-size="10.00"> </text>
<polygon fill="#666666" stroke="#666666" points="64.5,-1254.12 64.5,-1254.12 111.5,-1254.12 111.5,-1254.12 64.5,-1254.12"/>
<polygon fill="#666666" stroke="#666666" points="64.5,-1237.38 64.5,-1237.38 111.5,-1237.38 111.5,-1237.38 64.5,-1237.38"/>
<polygon fill="none" stroke="#666666" points="64.5,-1218.62 64.5,-1272.88 111.5,-1272.88 111.5,-1218.62 64.5,-1218.62"/>
</a>
</g>
</g>
<!-- Node5&#45;&gt;Node4 -->
<g id="edge4_Node000004_Node000005" class="edge">
<title>Node5&#45;&gt;Node4</title>
<g id="a_edge4_Node000004_Node000005"><a xlink:title=" ">
<path fill="none" stroke="#63b8ff" d="M88,-1207.34C88,-1181.64 88,-1145.04 88,-1105.1"/>
<polygon fill="none" stroke="#63b8ff" points="84.5,-1207.19 88,-1217.19 91.5,-1207.19 84.5,-1207.19"/>
</a>
</g>
</g>
<!-- Node6 -->
<g id="Node000006" class="node">
<title>Node6</title>
<g id="a_Node000006"><a xlink:href="structFRawDistributionFloat.html" target="_top" xlink:title=" ">
<polygon fill="white" stroke="none" points="337.62,-569.75 194.38,-569.75 194.38,-348 337.62,-348 337.62,-569.75"/>
<text xml:space="preserve" text-anchor="start" x="211.62" y="-556" font-family="Helvetica,sans-Serif" font-size="10.00">FRawDistributionFloat</text>
<text xml:space="preserve" text-anchor="start" x="198.38" y="-539.25" font-family="Helvetica,sans-Serif" font-size="10.00">+</text>
<text xml:space="preserve" text-anchor="start" x="210.62" y="-539.25" font-family="Helvetica,sans-Serif" font-size="10.00">Distribution</text>
<text xml:space="preserve" text-anchor="start" x="200.62" y="-522.5" font-family="Helvetica,sans-Serif" font-size="10.00">&#45;</text>
<text xml:space="preserve" text-anchor="start" x="210.62" y="-522.5" font-family="Helvetica,sans-Serif" font-size="10.00">MinValue</text>
<text xml:space="preserve" text-anchor="start" x="200.62" y="-505.75" font-family="Helvetica,sans-Serif" font-size="10.00">&#45;</text>
<text xml:space="preserve" text-anchor="start" x="210.62" y="-505.75" font-family="Helvetica,sans-Serif" font-size="10.00">MaxValue</text>
<text xml:space="preserve" text-anchor="start" x="198.38" y="-489" font-family="Helvetica,sans-Serif" font-size="10.00">+</text>
<text xml:space="preserve" text-anchor="start" x="210.62" y="-489" font-family="Helvetica,sans-Serif" font-size="10.00">FRawDistributionFloat()</text>
<text xml:space="preserve" text-anchor="start" x="198.38" y="-472.25" font-family="Helvetica,sans-Serif" font-size="10.00">+</text>
<text xml:space="preserve" text-anchor="start" x="210.62" y="-472.25" font-family="Helvetica,sans-Serif" font-size="10.00">IsCreated()</text>
<text xml:space="preserve" text-anchor="start" x="198.38" y="-455.5" font-family="Helvetica,sans-Serif" font-size="10.00">+</text>
<text xml:space="preserve" text-anchor="start" x="210.62" y="-455.5" font-family="Helvetica,sans-Serif" font-size="10.00">GetFastRawDistribution()</text>
<text xml:space="preserve" text-anchor="start" x="198.38" y="-438.75" font-family="Helvetica,sans-Serif" font-size="10.00">+</text>
<text xml:space="preserve" text-anchor="start" x="210.62" y="-438.75" font-family="Helvetica,sans-Serif" font-size="10.00">GetValue()</text>
<text xml:space="preserve" text-anchor="start" x="198.38" y="-422" font-family="Helvetica,sans-Serif" font-size="10.00">+</text>
<text xml:space="preserve" text-anchor="start" x="210.62" y="-422" font-family="Helvetica,sans-Serif" font-size="10.00">GetOutRange()</text>
<text xml:space="preserve" text-anchor="start" x="198.38" y="-405.25" font-family="Helvetica,sans-Serif" font-size="10.00">+</text>
<text xml:space="preserve" text-anchor="start" x="210.62" y="-405.25" font-family="Helvetica,sans-Serif" font-size="10.00">IsUniform()</text>
<text xml:space="preserve" text-anchor="start" x="198.38" y="-388.5" font-family="Helvetica,sans-Serif" font-size="10.00">+</text>
<text xml:space="preserve" text-anchor="start" x="210.62" y="-388.5" font-family="Helvetica,sans-Serif" font-size="10.00">InitLookupTable()</text>
<text xml:space="preserve" text-anchor="start" x="198.38" y="-371.75" font-family="Helvetica,sans-Serif" font-size="10.00">+</text>
<text xml:space="preserve" text-anchor="start" x="210.62" y="-371.75" font-family="Helvetica,sans-Serif" font-size="10.00">HasLookupTable()</text>
<text xml:space="preserve" text-anchor="start" x="198.38" y="-355" font-family="Helvetica,sans-Serif" font-size="10.00">+</text>
<text xml:space="preserve" text-anchor="start" x="210.62" y="-355" font-family="Helvetica,sans-Serif" font-size="10.00">OkForParallel()</text>
<polygon fill="#666666" stroke="#666666" points="194.38,-551 194.38,-551 337.62,-551 337.62,-551 194.38,-551"/>
<polygon fill="#666666" stroke="#666666" points="194.38,-500.75 194.38,-500.75 208.62,-500.75 208.62,-500.75 194.38,-500.75"/>
<polygon fill="#666666" stroke="#666666" points="208.62,-500.75 208.62,-500.75 337.62,-500.75 337.62,-500.75 208.62,-500.75"/>
<polygon fill="none" stroke="#666666" points="194.38,-348 194.38,-569.75 337.62,-569.75 337.62,-348 194.38,-348"/>
</a>
</g>
</g>
<!-- Node6&#45;&gt;Node2 -->
<g id="edge5_Node000002_Node000006" class="edge">
<title>Node6&#45;&gt;Node2</title>
<g id="a_edge5_Node000002_Node000006"><a xlink:title=" ">
<path fill="none" stroke="#63b8ff" d="M225.08,-348.31C219.69,-333.88 214.23,-319.24 209,-305.23"/>
<polygon fill="none" stroke="#63b8ff" points="208.98,-305.19 203.13,-300.97 204.78,-293.95 210.63,-298.17 208.98,-305.19"/>
</a>
</g>
<text xml:space="preserve" text-anchor="start" x="218.61" y="-317.25" font-family="Helvetica,sans-Serif" font-size="10.00" fill="grey">&#45;StartRotationRate</text>
</g>
<!-- Node7 -->
<g id="Node000007" class="node">
<title>Node7</title>
<g id="a_Node000007"><a xlink:href="structFRawDistribution.html" target="_top" xlink:title=" ">
<polygon fill="white" stroke="none" points="312,-883.12 220,-883.12 220,-828.88 312,-828.88 312,-883.12"/>
<text xml:space="preserve" text-anchor="start" x="224" y="-869.38" font-family="Helvetica,sans-Serif" font-size="10.00">FRawDistribution</text>
<text xml:space="preserve" text-anchor="start" x="263" y="-852.62" font-family="Helvetica,sans-Serif" font-size="10.00"> </text>
<text xml:space="preserve" text-anchor="start" x="263" y="-835.88" font-family="Helvetica,sans-Serif" font-size="10.00"> </text>
<polygon fill="#666666" stroke="#666666" points="220,-864.38 220,-864.38 312,-864.38 312,-864.38 220,-864.38"/>
<polygon fill="#666666" stroke="#666666" points="220,-847.62 220,-847.62 312,-847.62 312,-847.62 220,-847.62"/>
<polygon fill="none" stroke="#666666" points="220,-828.88 220,-883.12 312,-883.12 312,-828.88 220,-828.88"/>
</a>
</g>
</g>
<!-- Node7&#45;&gt;Node6 -->
<g id="edge6_Node000006_Node000007" class="edge">
<title>Node7&#45;&gt;Node6</title>
<g id="a_edge6_Node000006_Node000007"><a xlink:title=" ">
<path fill="none" stroke="#63b8ff" d="M266,-817.9C266,-761.66 266,-652.58 266,-569.53"/>
<polygon fill="none" stroke="#63b8ff" points="262.5,-817.56 266,-827.56 269.5,-817.56 262.5,-817.56"/>
</a>
</g>
</g>
<!-- Node8 -->
<g id="Node000008" class="node">
<title>Node8</title>
<g id="a_Node000008"><a xlink:href="structFDistributionLookupTable.html" target="_top" xlink:title=" ">
<polygon fill="white" stroke="none" points="331.88,-1331.5 200.12,-1331.5 200.12,-1160 331.88,-1160 331.88,-1331.5"/>
<text xml:space="preserve" text-anchor="start" x="204.12" y="-1317.75" font-family="Helvetica,sans-Serif" font-size="10.00">FDistributionLookupTable</text>
<text xml:space="preserve" text-anchor="start" x="214" y="-1301" font-family="Helvetica,sans-Serif" font-size="10.00">+</text>
<text xml:space="preserve" text-anchor="start" x="236.12" y="-1301" font-family="Helvetica,sans-Serif" font-size="10.00">TimeScale</text>
<text xml:space="preserve" text-anchor="start" x="214" y="-1284.25" font-family="Helvetica,sans-Serif" font-size="10.00">+</text>
<text xml:space="preserve" text-anchor="start" x="236.12" y="-1284.25" font-family="Helvetica,sans-Serif" font-size="10.00">TimeBias</text>
<text xml:space="preserve" text-anchor="start" x="214" y="-1267.5" font-family="Helvetica,sans-Serif" font-size="10.00">+</text>
<text xml:space="preserve" text-anchor="start" x="236.12" y="-1267.5" font-family="Helvetica,sans-Serif" font-size="10.00">Values</text>
<text xml:space="preserve" text-anchor="start" x="214" y="-1250.75" font-family="Helvetica,sans-Serif" font-size="10.00">+</text>
<text xml:space="preserve" text-anchor="start" x="236.12" y="-1250.75" font-family="Helvetica,sans-Serif" font-size="10.00">Op</text>
<text xml:space="preserve" text-anchor="start" x="214" y="-1234" font-family="Helvetica,sans-Serif" font-size="10.00">+</text>
<text xml:space="preserve" text-anchor="start" x="236.12" y="-1234" font-family="Helvetica,sans-Serif" font-size="10.00">EntryCount</text>
<text xml:space="preserve" text-anchor="start" x="214" y="-1217.25" font-family="Helvetica,sans-Serif" font-size="10.00">+</text>
<text xml:space="preserve" text-anchor="start" x="236.12" y="-1217.25" font-family="Helvetica,sans-Serif" font-size="10.00">EntryStride</text>
<text xml:space="preserve" text-anchor="start" x="214" y="-1200.5" font-family="Helvetica,sans-Serif" font-size="10.00">+</text>
<text xml:space="preserve" text-anchor="start" x="236.12" y="-1200.5" font-family="Helvetica,sans-Serif" font-size="10.00">SubEntryStride</text>
<text xml:space="preserve" text-anchor="start" x="214" y="-1183.75" font-family="Helvetica,sans-Serif" font-size="10.00">+</text>
<text xml:space="preserve" text-anchor="start" x="236.12" y="-1183.75" font-family="Helvetica,sans-Serif" font-size="10.00">LockFlag</text>
<text xml:space="preserve" text-anchor="start" x="263" y="-1167" font-family="Helvetica,sans-Serif" font-size="10.00"> </text>
<polygon fill="#666666" stroke="#666666" points="200.12,-1312.75 200.12,-1312.75 331.88,-1312.75 331.88,-1312.75 200.12,-1312.75"/>
<polygon fill="#666666" stroke="#666666" points="200.12,-1178.75 200.12,-1178.75 234.12,-1178.75 234.12,-1178.75 200.12,-1178.75"/>
<polygon fill="#666666" stroke="#666666" points="234.12,-1178.75 234.12,-1178.75 331.88,-1178.75 331.88,-1178.75 234.12,-1178.75"/>
<polygon fill="none" stroke="#666666" points="200.12,-1160 200.12,-1331.5 331.88,-1331.5 331.88,-1160 200.12,-1160"/>
</a>
</g>
</g>
<!-- Node8&#45;&gt;Node7 -->
<g id="edge7_Node000007_Node000008" class="edge">
<title>Node8&#45;&gt;Node7</title>
<g id="a_edge7_Node000007_Node000008"><a xlink:title=" ">
<path fill="none" stroke="#63b8ff" d="M266,-1160.14C266,-1078.1 266,-957.31 266,-895.91"/>
<polygon fill="none" stroke="#63b8ff" points="266,-895.94 262,-889.94 266,-883.94 270,-889.94 266,-895.94"/>
</a>
</g>
<text xml:space="preserve" text-anchor="start" x="269" y="-1129.25" font-family="Helvetica,sans-Serif" font-size="10.00" fill="grey">+Table</text>
</g>
<!-- Node9 -->
<g id="Node000009" class="node">
<title>Node9</title>
<g id="a_Node000009"><a xlink:href="structFParticleRandomSeedInfo.html" target="_top" xlink:title=" ">
<polygon fill="white" stroke="none" points="435.88,-293.25 270.12,-293.25 270.12,-138.5 435.88,-138.5 435.88,-293.25"/>
<text xml:space="preserve" text-anchor="start" x="290" y="-279.5" font-family="Helvetica,sans-Serif" font-size="10.00">FParticleRandomSeedInfo</text>
<text xml:space="preserve" text-anchor="start" x="274.12" y="-262.75" font-family="Helvetica,sans-Serif" font-size="10.00">+</text>
<text xml:space="preserve" text-anchor="start" x="286.38" y="-262.75" font-family="Helvetica,sans-Serif" font-size="10.00">ParameterName</text>
<text xml:space="preserve" text-anchor="start" x="274.12" y="-246" font-family="Helvetica,sans-Serif" font-size="10.00">+</text>
<text xml:space="preserve" text-anchor="start" x="286.38" y="-246" font-family="Helvetica,sans-Serif" font-size="10.00">bGetSeedFromInstance</text>
<text xml:space="preserve" text-anchor="start" x="274.12" y="-229.25" font-family="Helvetica,sans-Serif" font-size="10.00">+</text>
<text xml:space="preserve" text-anchor="start" x="286.38" y="-229.25" font-family="Helvetica,sans-Serif" font-size="10.00">bInstanceSeedIsIndex</text>
<text xml:space="preserve" text-anchor="start" x="274.12" y="-212.5" font-family="Helvetica,sans-Serif" font-size="10.00">+</text>
<text xml:space="preserve" text-anchor="start" x="286.38" y="-212.5" font-family="Helvetica,sans-Serif" font-size="10.00">bResetSeedOnEmitterLooping</text>
<text xml:space="preserve" text-anchor="start" x="274.12" y="-195.75" font-family="Helvetica,sans-Serif" font-size="10.00">+</text>
<text xml:space="preserve" text-anchor="start" x="286.38" y="-195.75" font-family="Helvetica,sans-Serif" font-size="10.00">bRandomlySelectSeedArray</text>
<text xml:space="preserve" text-anchor="start" x="274.12" y="-179" font-family="Helvetica,sans-Serif" font-size="10.00">+</text>
<text xml:space="preserve" text-anchor="start" x="286.38" y="-179" font-family="Helvetica,sans-Serif" font-size="10.00">RandomSeeds</text>
<text xml:space="preserve" text-anchor="start" x="274.12" y="-162.25" font-family="Helvetica,sans-Serif" font-size="10.00">+</text>
<text xml:space="preserve" text-anchor="start" x="286.38" y="-162.25" font-family="Helvetica,sans-Serif" font-size="10.00">FParticleRandomSeedInfo()</text>
<text xml:space="preserve" text-anchor="start" x="274.12" y="-145.5" font-family="Helvetica,sans-Serif" font-size="10.00">+</text>
<text xml:space="preserve" text-anchor="start" x="286.38" y="-145.5" font-family="Helvetica,sans-Serif" font-size="10.00">GetInstancePayloadSize()</text>
<polygon fill="#666666" stroke="#666666" points="270.12,-274.5 270.12,-274.5 435.88,-274.5 435.88,-274.5 270.12,-274.5"/>
<polygon fill="#666666" stroke="#666666" points="270.12,-174 270.12,-174 284.38,-174 284.38,-174 270.12,-174"/>
<polygon fill="#666666" stroke="#666666" points="284.38,-174 284.38,-174 435.88,-174 435.88,-174 284.38,-174"/>
<polygon fill="none" stroke="#666666" points="270.12,-138.5 270.12,-293.25 435.88,-293.25 435.88,-138.5 270.12,-138.5"/>
</a>
</g>
</g>
<!-- Node9&#45;&gt;Node1 -->
<g id="edge8_Node000001_Node000009" class="edge">
<title>Node9&#45;&gt;Node1</title>
<g id="a_edge8_Node000001_Node000009"><a xlink:title=" ">
<path fill="none" stroke="#63b8ff" d="M313.57,-138.68C305.87,-123.8 297.97,-108.52 290.79,-94.66"/>
<polygon fill="none" stroke="#63b8ff" points="290.89,-94.84 284.58,-91.35 285.38,-84.19 291.69,-87.68 290.89,-94.84"/>
</a>
</g>
<text xml:space="preserve" text-anchor="start" x="306.17" y="-107.75" font-family="Helvetica,sans-Serif" font-size="10.00" fill="grey">&#45;RandomSeedInfo</text>
</g>
</g>
</svg>

<g id="navigator" transform="translate(0 0)" fill="#404254">
  <rect fill="#f2f5e9" fill-opacity="0.5" stroke="#606060" stroke-width=".5" x="0" y="0" width="60" height="60"/>
  <use id="zoomplus" xlink:href="#zoomPlus" x="17" y="9" onmousedown="handleZoom(evt,'in')"/>
  <use id="zoomminus" xlink:href="#zoomMin" x="42" y="9" onmousedown="handleZoom(evt,'out')"/>
  <use id="reset" xlink:href="#resetDef" x="30" y="36" onmousedown="handleReset()"/>
   <use id="arrowup" xlink:href="#arrowUp" x="0" y="0" onmousedown="handlePan(0,-1)"/>
  <use id="arrowright" xlink:href="#arrowRight" x="0" y="0" onmousedown="handlePan(1,0)"/>
  <use id="arrowdown" xlink:href="#arrowDown" x="0" y="0" onmousedown="handlePan(0,1)"/>
  <use id="arrowleft" xlink:href="#arrowLeft" x="0" y="0" onmousedown="handlePan(-1,0)"/>
</g>
<svg viewBox="0 0 15 15" width="100%" height="30px" preserveAspectRatio="xMaxYMin meet">
 <g id="arrow_out" transform="scale(0.3 0.3)">
  <a xlink:href="classUParticleModuleRotationRate__Seeded__coll__graph_org.svg" target="_base">
   <rect id="button" ry="5" rx="5" y="6" x="6" height="38" width="38"
        fill="#f2f5e9" fill-opacity="0.5" stroke="#606060" stroke-width="1.0"/>
   <path id="arrow"
     d="M 11.500037,31.436501 C 11.940474,20.09759 22.043105,11.32322 32.158766,21.979434 L 37.068811,17.246167 C 37.068811,17.246167 37.088388,32 37.088388,32 L 22.160133,31.978069 C 22.160133,31.978069 26.997745,27.140456 26.997745,27.140456 C 18.528582,18.264221 13.291696,25.230495 11.500037,31.436501 z"
     style="fill:#404040;"/>
  </a>
 </g>
</svg>

<style type='text/css'>
<![CDATA[
[data-mouse-over-selected='false'] { opacity: 0.7; }
[data-mouse-over-selected='true']  { opacity: 1.0; }
]]>
</style>
<script type="application/ecmascript"><![CDATA[
document.addEventListener('DOMContentLoaded', (event) => {
  highlightEdges();
  highlightAdjacentNodes();
});
]]></script>
</svg>
