<?xml version="1.0" encoding="UTF-8" standalone="no"?>
<!DOCTYPE svg PUBLIC "-//W3C//DTD SVG 1.1//EN"
 "http://www.w3.org/Graphics/SVG/1.1/DTD/svg11.dtd">
<!-- Generated by graphviz version 14.1.4 (0)
 -->
<!-- Title: ACharacter::ClientMoveResponsePacked_Implementation Pages: 1 -->
<svg width="2090pt" height="198pt"
 viewBox="0.00 0.00 2090.00 198.00" xmlns="http://www.w3.org/2000/svg" xmlns:xlink="http://www.w3.org/1999/xlink">
<g id="graph0" class="graph" transform="scale(1 1) rotate(0) translate(4 194.23)">
<title>ACharacter::ClientMoveResponsePacked_Implementation</title>
<!-- Node1 -->
<g id="Node000001" class="node">
<title>Node1</title>
<g id="a_Node000001"><a xlink:title=" ">
<polygon fill="#999999" stroke="#666666" points="2081.75,-92.75 1903,-92.75 1903,-59.25 2081.75,-59.25 2081.75,-92.75"/>
<text xml:space="preserve" text-anchor="start" x="1911" y="-79.25" font-family="Helvetica,sans-Serif" font-size="10.00">ACharacter::ClientMoveResponse</text>
<text xml:space="preserve" text-anchor="middle" x="1992.38" y="-66.5" font-family="Helvetica,sans-Serif" font-size="10.00">Packed_Implementation</text>
</a>
</g>
</g>
<!-- Node1&#45;&gt;Node1 -->
<g id="edge24_Node000001_Node000001" class="edge">
<title>Node1&#45;&gt;Node1</title>
<g id="a_edge24_Node000001_Node000001"><a xlink:title=" ">
<path fill="none" stroke="#63b8ff" d="M2025.54,-104.14C2020.14,-108.1 2009.08,-110.75 1992.38,-110.75 1962.67,-110.75 1950.84,-102.37 1956.87,-93.16"/>
<polygon fill="#63b8ff" stroke="#63b8ff" points="2028.9,-105.15 2027.56,-94.64 2022.05,-103.69 2028.9,-105.15"/>
</a>
</g>
</g>
<!-- Node2 -->
<g id="Node000002" class="node">
<title>Node2</title>
<g id="a_Node000002"><a xlink:href="classACharacter.html#a68d08b4a12f44156816e714a09d73618" target="_top" xlink:title=" ">
<polygon fill="white" stroke="#666666" points="362,-124.38 187,-124.38 187,-103.62 362,-103.62 362,-124.38"/>
<text xml:space="preserve" text-anchor="middle" x="274.5" y="-110.88" font-family="Helvetica,sans-Serif" font-size="10.00">ACharacter::ClientAckGoodMove</text>
</a>
</g>
</g>
<!-- Node1&#45;&gt;Node2 -->
<g id="edge1_Node000001_Node000002" class="edge">
<title>Node1&#45;&gt;Node2</title>
<g id="a_edge1_Node000001_Node000002"><a xlink:title=" ">
<path fill="none" stroke="#63b8ff" d="M1965.93,-100.79C1942.39,-122.01 1905.33,-151.23 1867,-165 1751.07,-206.64 1713.68,-184 1590.5,-184 1590.5,-184 1590.5,-184 648.62,-184 521.92,-184 375.09,-144.52 309.82,-124.86"/>
<polygon fill="#63b8ff" stroke="#63b8ff" points="1968.17,-103.48 1973.15,-94.13 1963.43,-98.34 1968.17,-103.48"/>
</a>
</g>
</g>
<!-- Node4 -->
<g id="Node000004" class="node">
<title>Node4</title>
<g id="a_Node000004"><a xlink:href="classACharacter.html#ad8748e564ceaf296793b192f5d337f15" target="_top" xlink:title=" ">
<polygon fill="white" stroke="#666666" points="717.25,-80.75 582,-80.75 582,-47.25 717.25,-47.25 717.25,-80.75"/>
<text xml:space="preserve" text-anchor="start" x="590" y="-67.25" font-family="Helvetica,sans-Serif" font-size="10.00">ACharacter::ClientAdjust</text>
<text xml:space="preserve" text-anchor="middle" x="649.62" y="-54.5" font-family="Helvetica,sans-Serif" font-size="10.00">Position</text>
</a>
</g>
</g>
<!-- Node1&#45;&gt;Node4 -->
<g id="edge5_Node000001_Node000004" class="edge">
<title>Node1&#45;&gt;Node4</title>
<g id="a_edge5_Node000001_Node000004"><a xlink:title=" ">
<path fill="none" stroke="#63b8ff" d="M1925.49,-55.65C1846.65,-33.14 1710.25,0 1590.5,0 1590.5,0 1590.5,0 1002.75,0 897.9,0 778.27,-27.81 708.91,-46.76"/>
<polygon fill="#63b8ff" stroke="#63b8ff" points="1924.2,-58.92 1934.78,-58.33 1926.14,-52.2 1924.2,-58.92"/>
</a>
</g>
</g>
<!-- Node6 -->
<g id="Node000006" class="node">
<title>Node6</title>
<g id="a_Node000006"><a xlink:href="classACharacter.html#a5493f24d5ccbc006667506073b49bef7" target="_top" xlink:title=" ">
<polygon fill="white" stroke="#666666" points="1456.25,-99.75 1321,-99.75 1321,-66.25 1456.25,-66.25 1456.25,-99.75"/>
<text xml:space="preserve" text-anchor="start" x="1329" y="-86.25" font-family="Helvetica,sans-Serif" font-size="10.00">ACharacter::ClientAdjust</text>
<text xml:space="preserve" text-anchor="middle" x="1388.62" y="-73.5" font-family="Helvetica,sans-Serif" font-size="10.00">RootMotionPosition</text>
</a>
</g>
</g>
<!-- Node1&#45;&gt;Node6 -->
<g id="edge10_Node000001_Node000006" class="edge">
<title>Node1&#45;&gt;Node6</title>
<g id="a_edge10_Node000001_Node000006"><a xlink:title=" ">
<path fill="none" stroke="#63b8ff" d="M1891.29,-77.16C1768.01,-78.6 1561.99,-80.99 1456.43,-82.22"/>
<polygon fill="#63b8ff" stroke="#63b8ff" points="1891.11,-80.67 1901.07,-77.05 1891.03,-73.67 1891.11,-80.67"/>
</a>
</g>
</g>
<!-- Node8 -->
<g id="Node000008" class="node">
<title>Node8</title>
<g id="a_Node000008"><a xlink:href="classACharacter.html#a1aff7dc889d92776e88b2a501564f8b0" target="_top" xlink:title=" ">
<polygon fill="white" stroke="#666666" points="1080,-80.75 927.5,-80.75 927.5,-47.25 1080,-47.25 1080,-80.75"/>
<text xml:space="preserve" text-anchor="start" x="935.5" y="-67.25" font-family="Helvetica,sans-Serif" font-size="10.00">ACharacter::ClientVeryShort</text>
<text xml:space="preserve" text-anchor="middle" x="1003.75" y="-54.5" font-family="Helvetica,sans-Serif" font-size="10.00">AdjustPosition</text>
</a>
</g>
</g>
<!-- Node1&#45;&gt;Node8 -->
<g id="edge25_Node000001_Node000008" class="edge">
<title>Node1&#45;&gt;Node8</title>
<g id="a_edge25_Node000001_Node000008"><a xlink:title=" ">
<path fill="none" stroke="#63b8ff" d="M1891.66,-61.27C1810.7,-50.58 1693.49,-38 1590.5,-38 1590.5,-38 1590.5,-38 1387.62,-38 1280.69,-38 1157.35,-48.22 1080.2,-55.84"/>
<polygon fill="#63b8ff" stroke="#63b8ff" points="1890.96,-64.71 1901.34,-62.56 1891.89,-57.77 1890.96,-64.71"/>
</a>
</g>
</g>
<!-- Node10 -->
<g id="Node000010" class="node">
<title>Node10</title>
<g id="a_Node000010"><a xlink:href="classACharacter.html#ab12d12ae249888a77d8d143d276e260d" target="_top" xlink:title=" ">
<polygon fill="white" stroke="#666666" points="1867,-137.75 1722.75,-137.75 1722.75,-104.25 1867,-104.25 1867,-137.75"/>
<text xml:space="preserve" text-anchor="start" x="1730.75" y="-124.25" font-family="Helvetica,sans-Serif" font-size="10.00">ACharacter::ClientAdjust</text>
<text xml:space="preserve" text-anchor="middle" x="1794.88" y="-111.5" font-family="Helvetica,sans-Serif" font-size="10.00">RootMotionSourcePosition</text>
</a>
</g>
</g>
<!-- Node1&#45;&gt;Node10 -->
<g id="edge19_Node000001_Node000010" class="edge">
<title>Node1&#45;&gt;Node10</title>
<g id="a_edge19_Node000001_Node000010"><a xlink:title=" ">
<path fill="none" stroke="#63b8ff" d="M1905.52,-95.76C1892.78,-98.69 1879.77,-101.69 1867.36,-104.55"/>
<polygon fill="#63b8ff" stroke="#63b8ff" points="1906.19,-99.2 1915.15,-93.54 1904.62,-92.38 1906.19,-99.2"/>
</a>
</g>
</g>
<!-- Node2&#45;&gt;Node2 -->
<g id="edge2_Node000002_Node000002" class="edge">
<title>Node2&#45;&gt;Node2</title>
<g id="a_edge2_Node000002_Node000002"><a xlink:title=" ">
<path fill="none" stroke="#63b8ff" d="M309.25,-135.86C304.65,-139.7 293.06,-142.38 274.5,-142.38 240.55,-142.38 229.95,-133.43 242.68,-124.77"/>
<polygon fill="#63b8ff" stroke="#63b8ff" points="312.65,-135.01 306.71,-126.24 305.88,-136.8 312.65,-135.01"/>
</a>
</g>
</g>
<!-- Node3 -->
<g id="Node000003" class="node">
<title>Node3</title>
<g id="a_Node000003"><a xlink:href="classACharacter.html#a489af45b30e20a835e0283f33ec7749f" target="_top" xlink:title=" ">
<polygon fill="white" stroke="#666666" points="151,-130.75 0,-130.75 0,-97.25 151,-97.25 151,-130.75"/>
<text xml:space="preserve" text-anchor="start" x="8" y="-117.25" font-family="Helvetica,sans-Serif" font-size="10.00">ACharacter::ServerMoveOld</text>
<text xml:space="preserve" text-anchor="middle" x="75.5" y="-104.5" font-family="Helvetica,sans-Serif" font-size="10.00">_Validate</text>
</a>
</g>
</g>
<!-- Node2&#45;&gt;Node3 -->
<g id="edge3_Node000002_Node000003" class="edge">
<title>Node2&#45;&gt;Node3</title>
<g id="a_edge3_Node000002_Node000003"><a xlink:title=" ">
<path fill="none" stroke="#63b8ff" d="M175.18,-114C167.15,-114 159.11,-114 151.28,-114"/>
<polygon fill="#63b8ff" stroke="#63b8ff" points="175.01,-117.5 185.01,-114 175.01,-110.5 175.01,-117.5"/>
</a>
</g>
</g>
<!-- Node3&#45;&gt;Node3 -->
<g id="edge4_Node000003_Node000003" class="edge">
<title>Node3&#45;&gt;Node3</title>
<g id="a_edge4_Node000003_Node000003"><a xlink:title=" ">
<path fill="none" stroke="#63b8ff" d="M108.91,-142.14C103.47,-146.1 92.33,-148.75 75.5,-148.75 45.57,-148.75 33.65,-140.37 39.73,-131.16"/>
<polygon fill="#63b8ff" stroke="#63b8ff" points="112.27,-143.16 110.95,-132.64 105.43,-141.69 112.27,-143.16"/>
</a>
</g>
</g>
<!-- Node4&#45;&gt;Node4 -->
<g id="edge9_Node000004_Node000004" class="edge">
<title>Node4&#45;&gt;Node4</title>
<g id="a_edge9_Node000004_Node000004"><a xlink:title=" ">
<path fill="none" stroke="#63b8ff" d="M678.63,-92.14C673.91,-96.1 664.24,-98.75 649.62,-98.75 623.65,-98.75 613.29,-90.37 618.57,-81.16"/>
<polygon fill="#63b8ff" stroke="#63b8ff" points="682.01,-93.12 680.4,-82.65 675.13,-91.84 682.01,-93.12"/>
</a>
</g>
</g>
<!-- Node5 -->
<g id="Node000005" class="node">
<title>Node5</title>
<g id="a_Node000005"><a xlink:href="classACharacter.html#a51eea92e20f91b60b802475aba2bbcfa" target="_top" xlink:title=" ">
<polygon fill="white" stroke="#666666" points="546,-99.75 398,-99.75 398,-66.25 546,-66.25 546,-99.75"/>
<text xml:space="preserve" text-anchor="start" x="406" y="-86.25" font-family="Helvetica,sans-Serif" font-size="10.00">ACharacter::ClientAckGood</text>
<text xml:space="preserve" text-anchor="middle" x="472" y="-73.5" font-family="Helvetica,sans-Serif" font-size="10.00">Move_Implementation</text>
</a>
</g>
</g>
<!-- Node4&#45;&gt;Node5 -->
<g id="edge6_Node000004_Node000005" class="edge">
<title>Node4&#45;&gt;Node5</title>
<g id="a_edge6_Node000004_Node000005"><a xlink:title=" ">
<path fill="none" stroke="#63b8ff" d="M570.51,-72.45C562.51,-73.32 554.4,-74.19 546.45,-75.05"/>
<polygon fill="#63b8ff" stroke="#63b8ff" points="570.66,-75.96 580.22,-71.4 569.9,-69 570.66,-75.96"/>
</a>
</g>
</g>
<!-- Node5&#45;&gt;Node2 -->
<g id="edge7_Node000005_Node000002" class="edge">
<title>Node5&#45;&gt;Node2</title>
<g id="a_edge7_Node000005_Node000002"><a xlink:title=" ">
<path fill="none" stroke="#63b8ff" d="M386.34,-96.42C372.12,-98.68 357.52,-100.99 343.77,-103.17"/>
<polygon fill="#63b8ff" stroke="#63b8ff" points="386.82,-99.89 396.15,-94.87 385.73,-92.98 386.82,-99.89"/>
</a>
</g>
</g>
<!-- Node5&#45;&gt;Node5 -->
<g id="edge8_Node000005_Node000005" class="edge">
<title>Node5&#45;&gt;Node5</title>
<g id="a_edge8_Node000005_Node000005"><a xlink:title=" ">
<path fill="none" stroke="#63b8ff" d="M501.82,-111.14C496.97,-115.1 487.03,-117.75 472,-117.75 445.29,-117.75 434.64,-109.37 440.07,-100.16"/>
<polygon fill="#63b8ff" stroke="#63b8ff" points="505.2,-112.13 503.65,-101.65 498.32,-110.81 505.2,-112.13"/>
</a>
</g>
</g>
<!-- Node6&#45;&gt;Node6 -->
<g id="edge11_Node000006_Node000006" class="edge">
<title>Node6&#45;&gt;Node6</title>
<g id="a_edge11_Node000006_Node000006"><a xlink:title=" ">
<path fill="none" stroke="#63b8ff" d="M1420.21,-111.14C1415.07,-115.1 1404.54,-117.75 1388.62,-117.75 1360.33,-117.75 1349.06,-109.37 1354.81,-100.16"/>
<polygon fill="#63b8ff" stroke="#63b8ff" points="1423.58,-112.14 1422.14,-101.65 1416.72,-110.75 1423.58,-112.14"/>
</a>
</g>
</g>
<!-- Node7 -->
<g id="Node000007" class="node">
<title>Node7</title>
<g id="a_Node000007"><a xlink:href="classACharacter.html#aa79b4caec3622e3749f7a5b27f2331c2" target="_top" xlink:title=" ">
<polygon fill="white" stroke="#666666" points="1285,-99.75 1116,-99.75 1116,-66.25 1285,-66.25 1285,-99.75"/>
<text xml:space="preserve" text-anchor="start" x="1124" y="-86.25" font-family="Helvetica,sans-Serif" font-size="10.00">ACharacter::ClientVeryShort</text>
<text xml:space="preserve" text-anchor="middle" x="1200.5" y="-73.5" font-family="Helvetica,sans-Serif" font-size="10.00">AdjustPosition_Implementation</text>
</a>
</g>
</g>
<!-- Node6&#45;&gt;Node7 -->
<g id="edge12_Node000006_Node000007" class="edge">
<title>Node6&#45;&gt;Node7</title>
<g id="a_edge12_Node000006_Node000007"><a xlink:title=" ">
<path fill="none" stroke="#63b8ff" d="M1309.25,-83C1301.35,-83 1293.3,-83 1285.35,-83"/>
<polygon fill="#63b8ff" stroke="#63b8ff" points="1309.18,-86.5 1319.18,-83 1309.18,-79.5 1309.18,-86.5"/>
</a>
</g>
</g>
<!-- Node7&#45;&gt;Node7 -->
<g id="edge18_Node000007_Node000007" class="edge">
<title>Node7&#45;&gt;Node7</title>
<g id="a_edge18_Node000007_Node000007"><a xlink:title=" ">
<path fill="none" stroke="#63b8ff" d="M1232.09,-111.14C1226.94,-115.1 1216.41,-117.75 1200.5,-117.75 1172.21,-117.75 1160.94,-109.37 1166.68,-100.16"/>
<polygon fill="#63b8ff" stroke="#63b8ff" points="1235.45,-112.14 1234.02,-101.65 1228.6,-110.75 1235.45,-112.14"/>
</a>
</g>
</g>
<!-- Node7&#45;&gt;Node8 -->
<g id="edge13_Node000007_Node000008" class="edge">
<title>Node7&#45;&gt;Node8</title>
<g id="a_edge13_Node000007_Node000008"><a xlink:title=" ">
<path fill="none" stroke="#63b8ff" d="M1104.42,-73.72C1096.37,-72.94 1088.29,-72.15 1080.41,-71.38"/>
<polygon fill="#63b8ff" stroke="#63b8ff" points="1103.98,-77.2 1114.27,-74.69 1104.66,-70.23 1103.98,-77.2"/>
</a>
</g>
</g>
<!-- Node8&#45;&gt;Node8 -->
<g id="edge17_Node000008_Node000008" class="edge">
<title>Node8&#45;&gt;Node8</title>
<g id="a_edge17_Node000008_Node000008"><a xlink:title=" ">
<path fill="none" stroke="#63b8ff" d="M1034.2,-92.14C1029.24,-96.1 1019.09,-98.75 1003.75,-98.75 976.47,-98.75 965.6,-90.37 971.15,-81.16"/>
<polygon fill="#63b8ff" stroke="#63b8ff" points="1037.58,-93.14 1036.06,-82.65 1030.71,-91.79 1037.58,-93.14"/>
</a>
</g>
</g>
<!-- Node9 -->
<g id="Node000009" class="node">
<title>Node9</title>
<g id="a_Node000009"><a xlink:href="classACharacter.html#afdf2149a2f65320e968ad0b2c0791765" target="_top" xlink:title=" ">
<polygon fill="white" stroke="#666666" points="891.5,-80.75 753.25,-80.75 753.25,-47.25 891.5,-47.25 891.5,-80.75"/>
<text xml:space="preserve" text-anchor="start" x="761.25" y="-67.25" font-family="Helvetica,sans-Serif" font-size="10.00">ACharacter::ClientAdjust</text>
<text xml:space="preserve" text-anchor="middle" x="822.38" y="-54.5" font-family="Helvetica,sans-Serif" font-size="10.00">Position_Implementation</text>
</a>
</g>
</g>
<!-- Node8&#45;&gt;Node9 -->
<g id="edge14_Node000008_Node000009" class="edge">
<title>Node8&#45;&gt;Node9</title>
<g id="a_edge14_Node000008_Node000009"><a xlink:title=" ">
<path fill="none" stroke="#63b8ff" d="M915.9,-64C907.87,-64 899.82,-64 891.99,-64"/>
<polygon fill="#63b8ff" stroke="#63b8ff" points="915.69,-67.5 925.69,-64 915.69,-60.5 915.69,-67.5"/>
</a>
</g>
</g>
<!-- Node9&#45;&gt;Node4 -->
<g id="edge15_Node000009_Node000004" class="edge">
<title>Node9&#45;&gt;Node4</title>
<g id="a_edge15_Node000009_Node000004"><a xlink:title=" ">
<path fill="none" stroke="#63b8ff" d="M741.66,-64C733.65,-64 725.58,-64 717.72,-64"/>
<polygon fill="#63b8ff" stroke="#63b8ff" points="741.39,-67.5 751.39,-64 741.39,-60.5 741.39,-67.5"/>
</a>
</g>
</g>
<!-- Node9&#45;&gt;Node9 -->
<g id="edge16_Node000009_Node000009" class="edge">
<title>Node9&#45;&gt;Node9</title>
<g id="a_edge16_Node000009_Node000009"><a xlink:title=" ">
<path fill="none" stroke="#63b8ff" d="M851.38,-92.14C846.66,-96.1 836.99,-98.75 822.38,-98.75 796.4,-98.75 786.04,-90.37 791.32,-81.16"/>
<polygon fill="#63b8ff" stroke="#63b8ff" points="854.76,-93.12 853.15,-82.65 847.88,-91.84 854.76,-93.12"/>
</a>
</g>
</g>
<!-- Node10&#45;&gt;Node10 -->
<g id="edge23_Node000010_Node000010" class="edge">
<title>Node10&#45;&gt;Node10</title>
<g id="a_edge23_Node000010_Node000010"><a xlink:title=" ">
<path fill="none" stroke="#63b8ff" d="M1828.04,-149.14C1822.64,-153.1 1811.58,-155.75 1794.88,-155.75 1765.17,-155.75 1753.34,-147.37 1759.37,-138.16"/>
<polygon fill="#63b8ff" stroke="#63b8ff" points="1831.4,-150.15 1830.06,-139.64 1824.55,-148.69 1831.4,-150.15"/>
</a>
</g>
</g>
<!-- Node11 -->
<g id="Node000011" class="node">
<title>Node11</title>
<g id="a_Node000011"><a xlink:href="classACharacter.html#ae0a23043c0a5bf21a8d26970a889481b" target="_top" xlink:title=" ">
<polygon fill="white" stroke="#666666" points="1686.75,-137.75 1492.25,-137.75 1492.25,-104.25 1686.75,-104.25 1686.75,-137.75"/>
<text xml:space="preserve" text-anchor="start" x="1500.25" y="-124.25" font-family="Helvetica,sans-Serif" font-size="10.00">ACharacter::ClientAdjust</text>
<text xml:space="preserve" text-anchor="middle" x="1589.5" y="-111.5" font-family="Helvetica,sans-Serif" font-size="10.00">RootMotionPosition_Implementation</text>
</a>
</g>
</g>
<!-- Node10&#45;&gt;Node11 -->
<g id="edge20_Node000010_Node000011" class="edge">
<title>Node10&#45;&gt;Node11</title>
<g id="a_edge20_Node000010_Node000011"><a xlink:title=" ">
<path fill="none" stroke="#63b8ff" d="M1711.03,-121C1703.14,-121 1695.1,-121 1687.09,-121"/>
<polygon fill="#63b8ff" stroke="#63b8ff" points="1710.95,-124.5 1720.95,-121 1710.94,-117.5 1710.95,-124.5"/>
</a>
</g>
</g>
<!-- Node11&#45;&gt;Node6 -->
<g id="edge21_Node000011_Node000006" class="edge">
<title>Node11&#45;&gt;Node6</title>
<g id="a_edge21_Node000011_Node000006"><a xlink:title=" ">
<path fill="none" stroke="#63b8ff" d="M1487.12,-101.63C1476.74,-99.65 1466.39,-97.67 1456.52,-95.78"/>
<polygon fill="#63b8ff" stroke="#63b8ff" points="1486.41,-105.06 1496.89,-103.49 1487.72,-98.18 1486.41,-105.06"/>
</a>
</g>
</g>
<!-- Node11&#45;&gt;Node11 -->
<g id="edge22_Node000011_Node000011" class="edge">
<title>Node11&#45;&gt;Node11</title>
<g id="a_edge22_Node000011_Node000011"><a xlink:title=" ">
<path fill="none" stroke="#63b8ff" d="M1623.23,-149.14C1617.74,-153.1 1606.49,-155.75 1589.5,-155.75 1559.29,-155.75 1547.25,-147.37 1553.39,-138.16"/>
<polygon fill="#63b8ff" stroke="#63b8ff" points="1626.59,-150.16 1625.29,-139.64 1619.75,-148.67 1626.59,-150.16"/>
</a>
</g>
</g>
</g>
</svg>
