<?xml version="1.0" encoding="UTF-8" standalone="no"?>
<!DOCTYPE svg PUBLIC "-//W3C//DTD SVG 1.1//EN"
 "http://www.w3.org/Graphics/SVG/1.1/DTD/svg11.dtd">
<!-- Generated by graphviz version 14.1.4 (0)
 -->
<!-- Title: FSkyTextureCubeResource Pages: 1 -->
<svg width="218pt" height="354pt"
 viewBox="0.00 0.00 218.00 354.00" xmlns="http://www.w3.org/2000/svg" xmlns:xlink="http://www.w3.org/1999/xlink">

<svg id="main" version="1.1" xmlns="http://www.w3.org/2000/svg" xmlns:xlink="http://www.w3.org/1999/xlink" xml:space="preserve">

<style type="text/css"><![CDATA[
.node, .edge {opacity: 0.7;}
.node.selected, .edge.selected {opacity: 1;}
.edge:hover path { stroke: red; }
.edge:hover polygon { stroke: red; fill: red; }
]]></style>
<script type="application/ecmascript" xlink:href="svg.min.js"/>
<svg id="graph" class="graph">
<g id="graph0" class="graph" transform="scale(1 1) rotate(0) translate(4 349.5)">
<title>FSkyTextureCubeResource</title>
<!-- Node1 -->
<g id="Node000001" class="node">
<title>Node1</title>
<g id="a_Node000001"><a xlink:title=" ">
<polygon fill="#999999" stroke="none" points="165,-255.25 0,-255.25 0,0 165,0 165,-255.25"/>
<text xml:space="preserve" text-anchor="start" x="18" y="-241.5" font-family="Helvetica,sans-Serif" font-size="10.00">FSkyTextureCubeResource</text>
<text xml:space="preserve" text-anchor="start" x="6.25" y="-224.75" font-family="Helvetica,sans-Serif" font-size="10.00">&#45;</text>
<text xml:space="preserve" text-anchor="start" x="16.25" y="-224.75" font-family="Helvetica,sans-Serif" font-size="10.00">Size</text>
<text xml:space="preserve" text-anchor="start" x="6.25" y="-208" font-family="Helvetica,sans-Serif" font-size="10.00">&#45;</text>
<text xml:space="preserve" text-anchor="start" x="16.25" y="-208" font-family="Helvetica,sans-Serif" font-size="10.00">NumMips</text>
<text xml:space="preserve" text-anchor="start" x="6.25" y="-191.25" font-family="Helvetica,sans-Serif" font-size="10.00">&#45;</text>
<text xml:space="preserve" text-anchor="start" x="16.25" y="-191.25" font-family="Helvetica,sans-Serif" font-size="10.00">Format</text>
<text xml:space="preserve" text-anchor="start" x="6.25" y="-174.5" font-family="Helvetica,sans-Serif" font-size="10.00">&#45;</text>
<text xml:space="preserve" text-anchor="start" x="16.25" y="-174.5" font-family="Helvetica,sans-Serif" font-size="10.00">TextureCubeRHI</text>
<text xml:space="preserve" text-anchor="start" x="6.25" y="-157.75" font-family="Helvetica,sans-Serif" font-size="10.00">&#45;</text>
<text xml:space="preserve" text-anchor="start" x="16.25" y="-157.75" font-family="Helvetica,sans-Serif" font-size="10.00">NumRefs</text>
<text xml:space="preserve" text-anchor="start" x="4" y="-141" font-family="Helvetica,sans-Serif" font-size="10.00">+</text>
<text xml:space="preserve" text-anchor="start" x="16.25" y="-141" font-family="Helvetica,sans-Serif" font-size="10.00">FSkyTextureCubeResource()</text>
<text xml:space="preserve" text-anchor="start" x="4" y="-124.25" font-family="Helvetica,sans-Serif" font-size="10.00">+</text>
<text xml:space="preserve" text-anchor="start" x="16.25" y="-124.25" font-family="Helvetica,sans-Serif" font-size="10.00">~FSkyTextureCubeResource()</text>
<text xml:space="preserve" text-anchor="start" x="4" y="-107.5" font-family="Helvetica,sans-Serif" font-size="10.00">+</text>
<text xml:space="preserve" text-anchor="start" x="16.25" y="-107.5" font-family="Helvetica,sans-Serif" font-size="10.00">SetupParameters()</text>
<text xml:space="preserve" text-anchor="start" x="4" y="-90.75" font-family="Helvetica,sans-Serif" font-size="10.00">+</text>
<text xml:space="preserve" text-anchor="start" x="16.25" y="-90.75" font-family="Helvetica,sans-Serif" font-size="10.00">InitRHI()</text>
<text xml:space="preserve" text-anchor="start" x="4" y="-74" font-family="Helvetica,sans-Serif" font-size="10.00">+</text>
<text xml:space="preserve" text-anchor="start" x="16.25" y="-74" font-family="Helvetica,sans-Serif" font-size="10.00">ReleaseRHI()</text>
<text xml:space="preserve" text-anchor="start" x="4" y="-57.25" font-family="Helvetica,sans-Serif" font-size="10.00">+</text>
<text xml:space="preserve" text-anchor="start" x="16.25" y="-57.25" font-family="Helvetica,sans-Serif" font-size="10.00">GetSizeX()</text>
<text xml:space="preserve" text-anchor="start" x="4" y="-40.5" font-family="Helvetica,sans-Serif" font-size="10.00">+</text>
<text xml:space="preserve" text-anchor="start" x="16.25" y="-40.5" font-family="Helvetica,sans-Serif" font-size="10.00">GetSizeY()</text>
<text xml:space="preserve" text-anchor="start" x="4" y="-23.75" font-family="Helvetica,sans-Serif" font-size="10.00">+</text>
<text xml:space="preserve" text-anchor="start" x="16.25" y="-23.75" font-family="Helvetica,sans-Serif" font-size="10.00">AddRef()</text>
<text xml:space="preserve" text-anchor="start" x="4" y="-7" font-family="Helvetica,sans-Serif" font-size="10.00">+</text>
<text xml:space="preserve" text-anchor="start" x="16.25" y="-7" font-family="Helvetica,sans-Serif" font-size="10.00">Release()</text>
<polygon fill="#666666" stroke="#666666" points="0,-236.5 0,-236.5 165,-236.5 165,-236.5 0,-236.5"/>
<polygon fill="#666666" stroke="#666666" points="0,-152.75 0,-152.75 14.25,-152.75 14.25,-152.75 0,-152.75"/>
<polygon fill="#666666" stroke="#666666" points="14.25,-152.75 14.25,-152.75 165,-152.75 165,-152.75 14.25,-152.75"/>
<polygon fill="none" stroke="#666666" points="0,0 0,-255.25 165,-255.25 165,0 0,0"/>
</a>
</g>
</g>
<!-- Node2 -->
<g id="Node000002" class="node">
<title>Node2</title>
<g id="a_Node000002"><a xlink:title=" ">
<polygon fill="white" stroke="none" points="51.5,-345.5 1.5,-345.5 1.5,-291.25 51.5,-291.25 51.5,-345.5"/>
<text xml:space="preserve" text-anchor="start" x="5.5" y="-331.75" font-family="Helvetica,sans-Serif" font-size="10.00">FTexture</text>
<text xml:space="preserve" text-anchor="start" x="23.5" y="-315" font-family="Helvetica,sans-Serif" font-size="10.00"> </text>
<text xml:space="preserve" text-anchor="start" x="23.5" y="-298.25" font-family="Helvetica,sans-Serif" font-size="10.00"> </text>
<polygon fill="#666666" stroke="#666666" points="1.5,-326.75 1.5,-326.75 51.5,-326.75 51.5,-326.75 1.5,-326.75"/>
<polygon fill="#666666" stroke="#666666" points="1.5,-310 1.5,-310 51.5,-310 51.5,-310 1.5,-310"/>
<polygon fill="none" stroke="#666666" points="1.5,-291.25 1.5,-345.5 51.5,-345.5 51.5,-291.25 1.5,-291.25"/>
</a>
</g>
</g>
<!-- Node2&#45;&gt;Node1 -->
<g id="edge1_Node000001_Node000002" class="edge">
<title>Node2&#45;&gt;Node1</title>
<g id="a_edge1_Node000001_Node000002"><a xlink:title=" ">
<path fill="none" stroke="#63b8ff" d="M37.39,-280.67C39.72,-272.81 42.31,-264.08 45.04,-254.89"/>
<polygon fill="none" stroke="#63b8ff" points="34.09,-279.49 34.6,-290.07 40.8,-281.48 34.09,-279.49"/>
</a>
</g>
</g>
<!-- Node3 -->
<g id="Node000003" class="node">
<title>Node3</title>
<g id="a_Node000003"><a xlink:title=" ">
<polygon fill="white" stroke="none" points="209.5,-345.5 69.5,-345.5 69.5,-291.25 209.5,-291.25 209.5,-345.5"/>
<text xml:space="preserve" text-anchor="start" x="73.5" y="-331.75" font-family="Helvetica,sans-Serif" font-size="10.00">FDeferredCleanupInterface</text>
<text xml:space="preserve" text-anchor="start" x="136.5" y="-315" font-family="Helvetica,sans-Serif" font-size="10.00"> </text>
<text xml:space="preserve" text-anchor="start" x="136.5" y="-298.25" font-family="Helvetica,sans-Serif" font-size="10.00"> </text>
<polygon fill="#666666" stroke="#666666" points="69.5,-326.75 69.5,-326.75 209.5,-326.75 209.5,-326.75 69.5,-326.75"/>
<polygon fill="#666666" stroke="#666666" points="69.5,-310 69.5,-310 209.5,-310 209.5,-310 69.5,-310"/>
<polygon fill="none" stroke="#666666" points="69.5,-291.25 69.5,-345.5 209.5,-345.5 209.5,-291.25 69.5,-291.25"/>
</a>
</g>
</g>
<!-- Node3&#45;&gt;Node1 -->
<g id="edge2_Node000001_Node000003" class="edge">
<title>Node3&#45;&gt;Node1</title>
<g id="a_edge2_Node000001_Node000003"><a xlink:title=" ">
<path fill="none" stroke="#8b1a1a" d="M128.42,-280.67C126.04,-272.81 123.41,-264.08 120.63,-254.89"/>
<polygon fill="none" stroke="#8b1a1a" points="125.01,-281.52 131.26,-290.08 131.72,-279.49 125.01,-281.52"/>
</a>
</g>
</g>
</g>
</svg>
</svg>

<style type='text/css'>
<![CDATA[
[data-mouse-over-selected='false'] { opacity: 0.7; }
[data-mouse-over-selected='true']  { opacity: 1.0; }
]]>
</style>
<script type="application/ecmascript"><![CDATA[
document.addEventListener('DOMContentLoaded', (event) => {
  highlightEdges();
  highlightAdjacentNodes();
});
]]></script>
</svg>
