<?xml version="1.0" encoding="UTF-8" standalone="no"?>
<!DOCTYPE svg PUBLIC "-//W3C//DTD SVG 1.1//EN"
 "http://www.w3.org/Graphics/SVG/1.1/DTD/svg11.dtd">
<!-- Generated by graphviz version 14.1.4 (0)
 -->
<!-- Title: UInputDeviceProperty::GetDeviceSpecificDataMutable Pages: 1 -->
<svg width="548pt" height="186pt"
 viewBox="0.00 0.00 548.00 186.00" xmlns="http://www.w3.org/2000/svg" xmlns:xlink="http://www.w3.org/1999/xlink">
<g id="graph0" class="graph" transform="scale(1 1) rotate(0) translate(4 182.12)">
<title>UInputDeviceProperty::GetDeviceSpecificDataMutable</title>
<!-- Node1 -->
<g id="Node000001" class="node">
<title>Node1</title>
<g id="a_Node000001"><a xlink:title=" ">
<polygon fill="#999999" stroke="#666666" points="174.25,-103.5 0,-103.5 0,-70 174.25,-70 174.25,-103.5"/>
<text xml:space="preserve" text-anchor="start" x="8" y="-90" font-family="Helvetica,sans-Serif" font-size="10.00">UInputDeviceProperty</text>
<text xml:space="preserve" text-anchor="middle" x="87.12" y="-77.25" font-family="Helvetica,sans-Serif" font-size="10.00">::GetDeviceSpecificDataMutable</text>
</a>
</g>
</g>
<!-- Node2 -->
<g id="Node000002" class="node">
<title>Node2</title>
<g id="a_Node000002"><a xlink:href="classUInputDeviceProperty.html#a6fe79ef8a1e782d507f28a3f585ed890" target="_top" xlink:title=" ">
<polygon fill="white" stroke="#666666" points="344.75,-103.5 210.25,-103.5 210.25,-70 344.75,-70 344.75,-103.5"/>
<text xml:space="preserve" text-anchor="start" x="218.25" y="-90" font-family="Helvetica,sans-Serif" font-size="10.00">UInputDeviceProperty</text>
<text xml:space="preserve" text-anchor="middle" x="277.5" y="-77.25" font-family="Helvetica,sans-Serif" font-size="10.00">::GetDeviceSpecificData</text>
</a>
</g>
</g>
<!-- Node1&#45;&gt;Node2 -->
<g id="edge1_Node000001_Node000002" class="edge">
<title>Node1&#45;&gt;Node2</title>
<g id="a_edge1_Node000001_Node000002"><a xlink:title=" ">
<path fill="none" stroke="#63b8ff" d="M174.59,-86.75C182.59,-86.75 190.65,-86.75 198.56,-86.75"/>
<polygon fill="#63b8ff" stroke="#63b8ff" points="198.5,-90.25 208.5,-86.75 198.5,-83.25 198.5,-90.25"/>
</a>
</g>
</g>
<!-- Node2&#45;&gt;Node2 -->
<g id="edge4_Node000002_Node000002" class="edge">
<title>Node2&#45;&gt;Node2</title>
<g id="a_edge4_Node000002_Node000002"><a xlink:title=" ">
<path fill="none" stroke="#63b8ff" d="M244.63,-103.91C239.04,-113.12 250,-121.5 277.5,-121.5 292.97,-121.5 303.21,-118.85 308.21,-114.89"/>
<polygon fill="#63b8ff" stroke="#63b8ff" points="311.58,-115.89 310.08,-105.4 304.71,-114.53 311.58,-115.89"/>
</a>
</g>
</g>
<!-- Node3 -->
<g id="Node000003" class="node">
<title>Node3</title>
<g id="a_Node000003"><a xlink:href="classUInputDeviceSubsystem.html#a9ef8b89f60758201a5cb5fa313fcc9c6" target="_top" xlink:title=" ">
<polygon fill="white" stroke="#666666" points="540,-160.12 380.75,-160.12 380.75,-139.38 540,-139.38 540,-160.12"/>
<text xml:space="preserve" text-anchor="middle" x="460.38" y="-146.62" font-family="Helvetica,sans-Serif" font-size="10.00">UInputDeviceSubsystem::Get</text>
</a>
</g>
</g>
<!-- Node2&#45;&gt;Node3 -->
<g id="edge2_Node000002_Node000003" class="edge">
<title>Node2&#45;&gt;Node3</title>
<g id="a_edge2_Node000002_Node000003"><a xlink:title=" ">
<path fill="none" stroke="#63b8ff" d="M314.36,-103.95C333.71,-112.78 358.2,-123.23 380.75,-130.75 386.41,-132.64 392.36,-134.42 398.35,-136.09"/>
<polygon fill="#63b8ff" stroke="#63b8ff" points="397.08,-139.37 407.64,-138.56 398.88,-132.6 397.08,-139.37"/>
</a>
</g>
</g>
<!-- Node4 -->
<g id="Node000004" class="node">
<title>Node4</title>
<g id="a_Node000004"><a xlink:href="classUInputDeviceProperty.html#abca5009fcea4abfac41cc9ae91e58e77" target="_top" xlink:title=" ">
<polygon fill="white" stroke="#666666" points="525,-103.5 395.75,-103.5 395.75,-70 525,-70 525,-103.5"/>
<text xml:space="preserve" text-anchor="start" x="403.75" y="-90" font-family="Helvetica,sans-Serif" font-size="10.00">UInputDeviceProperty</text>
<text xml:space="preserve" text-anchor="middle" x="460.38" y="-77.25" font-family="Helvetica,sans-Serif" font-size="10.00">::UInputDeviceProperty</text>
</a>
</g>
</g>
<!-- Node2&#45;&gt;Node4 -->
<g id="edge5_Node000002_Node000004" class="edge">
<title>Node2&#45;&gt;Node4</title>
<g id="a_edge5_Node000002_Node000004"><a xlink:title=" ">
<path fill="none" stroke="#63b8ff" d="M345.08,-86.75C357.78,-86.75 371.15,-86.75 384.1,-86.75"/>
<polygon fill="#63b8ff" stroke="#63b8ff" points="383.83,-90.25 393.83,-86.75 383.83,-83.25 383.83,-90.25"/>
</a>
</g>
</g>
<!-- Node5 -->
<g id="Node000005" class="node">
<title>Node5</title>
<g id="a_Node000005"><a xlink:href="classUInputDeviceProperty.html#a4a9afe4399209a75560a47c8dad7d4cb" target="_top" xlink:title=" ">
<polygon fill="white" stroke="#666666" points="531.38,-33.5 389.38,-33.5 389.38,0 531.38,0 531.38,-33.5"/>
<text xml:space="preserve" text-anchor="start" x="397.38" y="-20" font-family="Helvetica,sans-Serif" font-size="10.00">UInputDeviceProperty</text>
<text xml:space="preserve" text-anchor="middle" x="460.38" y="-7.25" font-family="Helvetica,sans-Serif" font-size="10.00">::UInputDeviceSubsystem</text>
</a>
</g>
</g>
<!-- Node2&#45;&gt;Node5 -->
<g id="edge7_Node000002_Node000005" class="edge">
<title>Node2&#45;&gt;Node5</title>
<g id="a_edge7_Node000002_Node000005"><a xlink:title=" ">
<path fill="none" stroke="#63b8ff" d="M322.75,-69.63C347.38,-60.09 378.27,-48.14 404.44,-38.01"/>
<polygon fill="#63b8ff" stroke="#63b8ff" points="405.48,-41.36 413.55,-34.49 402.96,-34.83 405.48,-41.36"/>
</a>
</g>
</g>
<!-- Node3&#45;&gt;Node3 -->
<g id="edge3_Node000003_Node000003" class="edge">
<title>Node3&#45;&gt;Node3</title>
<g id="a_edge3_Node000003_Node000003"><a xlink:title=" ">
<path fill="none" stroke="#63b8ff" d="M430.91,-160.52C419.12,-169.18 428.94,-178.12 460.38,-178.12 477.56,-178.12 488.29,-175.45 492.55,-171.61"/>
<polygon fill="#63b8ff" stroke="#63b8ff" points="495.98,-170.87 490.2,-161.99 489.18,-172.54 495.98,-170.87"/>
</a>
</g>
</g>
<!-- Node4&#45;&gt;Node4 -->
<g id="edge6_Node000004_Node000004" class="edge">
<title>Node4&#45;&gt;Node4</title>
<g id="a_edge6_Node000004_Node000004"><a xlink:title=" ">
<path fill="none" stroke="#63b8ff" d="M427.5,-103.91C421.91,-113.12 432.87,-121.5 460.38,-121.5 475.85,-121.5 486.08,-118.85 491.08,-114.89"/>
<polygon fill="#63b8ff" stroke="#63b8ff" points="494.45,-115.89 492.96,-105.4 487.58,-114.53 494.45,-115.89"/>
</a>
</g>
</g>
<!-- Node5&#45;&gt;Node5 -->
<g id="edge8_Node000005_Node000005" class="edge">
<title>Node5&#45;&gt;Node5</title>
<g id="a_edge8_Node000005_Node000005"><a xlink:title=" ">
<path fill="none" stroke="#63b8ff" d="M427.5,-33.91C421.91,-43.12 432.87,-51.5 460.38,-51.5 475.85,-51.5 486.08,-48.85 491.08,-44.89"/>
<polygon fill="#63b8ff" stroke="#63b8ff" points="494.45,-45.89 492.96,-35.4 487.58,-44.53 494.45,-45.89"/>
</a>
</g>
</g>
</g>
</svg>
