<?xml version="1.0" encoding="UTF-8" standalone="no"?>
<!DOCTYPE svg PUBLIC "-//W3C//DTD SVG 1.1//EN"
 "http://www.w3.org/Graphics/SVG/1.1/DTD/svg11.dtd">
<!-- Generated by graphviz version 14.1.4 (0)
 -->
<!-- Title: FAsyncTaskBase::WaitCompletionWithTimeout Pages: 1 -->
<svg width="981pt" height="118pt"
 viewBox="0.00 0.00 981.00 118.00" xmlns="http://www.w3.org/2000/svg" xmlns:xlink="http://www.w3.org/1999/xlink">
<g id="graph0" class="graph" transform="scale(1 1) rotate(0) translate(4 114.28)">
<title>FAsyncTaskBase::WaitCompletionWithTimeout</title>
<!-- Node1 -->
<g id="Node000001" class="node">
<title>Node1</title>
<g id="a_Node000001"><a xlink:title=" ">
<polygon fill="#999999" stroke="#666666" points="181,-74.12 0,-74.12 0,-40.62 181,-40.62 181,-74.12"/>
<text xml:space="preserve" text-anchor="start" x="8" y="-60.62" font-family="Helvetica,sans-Serif" font-size="10.00">FAsyncTaskBase::WaitCompletion</text>
<text xml:space="preserve" text-anchor="middle" x="90.5" y="-47.88" font-family="Helvetica,sans-Serif" font-size="10.00">WithTimeout</text>
</a>
</g>
</g>
<!-- Node2 -->
<g id="Node000002" class="node">
<title>Node2</title>
<g id="a_Node000002"><a xlink:href="$classFAsyncTaskBase.html#afd0990a2768264a1192c87bc6ef2537b" xlink:title=" ">
<polygon fill="white" stroke="#666666" points="762.25,-96.75 612,-96.75 612,-76 762.25,-76 762.25,-96.75"/>
<text xml:space="preserve" text-anchor="middle" x="687.12" y="-83.25" font-family="Helvetica,sans-Serif" font-size="10.00">FAsyncTaskBase::CheckIdle</text>
</a>
</g>
</g>
<!-- Node1&#45;&gt;Node2 -->
<g id="edge1_Node000001_Node000002" class="edge">
<title>Node1&#45;&gt;Node2</title>
<g id="a_edge1_Node000001_Node000002"><a xlink:title=" ">
<path fill="none" stroke="#63b8ff" d="M175.38,-74.59C234.74,-85.86 316.38,-99.55 389,-105.38 469.52,-111.83 490.24,-111.96 570.75,-105.38 587.02,-104.04 604.46,-101.67 620.73,-99.05"/>
<polygon fill="#63b8ff" stroke="#63b8ff" points="620.99,-102.55 630.28,-97.45 619.84,-95.65 620.99,-102.55"/>
</a>
</g>
</g>
<!-- Node4 -->
<g id="Node000004" class="node">
<title>Node4</title>
<g id="a_Node000004"><a xlink:href="$classFAsyncTaskBase.html#a9de541265bab966e6972b01f130dcf81" xlink:title=" ">
<polygon fill="white" stroke="#666666" points="353,-67.75 217,-67.75 217,-47 353,-47 353,-67.75"/>
<text xml:space="preserve" text-anchor="middle" x="285" y="-54.25" font-family="Helvetica,sans-Serif" font-size="10.00">FAsyncTaskBase::IsDone</text>
</a>
</g>
</g>
<!-- Node1&#45;&gt;Node4 -->
<g id="edge3_Node000001_Node000004" class="edge">
<title>Node1&#45;&gt;Node4</title>
<g id="a_edge3_Node000001_Node000004"><a xlink:title=" ">
<path fill="none" stroke="#63b8ff" d="M181.27,-57.38C189.24,-57.38 197.27,-57.38 205.13,-57.38"/>
<polygon fill="#63b8ff" stroke="#63b8ff" points="205.01,-60.88 215.01,-57.38 205.01,-53.88 205.01,-60.88"/>
</a>
</g>
</g>
<!-- Node7 -->
<g id="Node000007" class="node">
<title>Node7</title>
<g id="a_Node000007"><a xlink:href="$structFAndroidMisc.html#a2226435a3f250dacc9d193d7be95e4f5" xlink:title=" ">
<polygon fill="white" stroke="#666666" points="767.5,-20.75 606.75,-20.75 606.75,0 767.5,0 767.5,-20.75"/>
<text xml:space="preserve" text-anchor="middle" x="687.12" y="-7.25" font-family="Helvetica,sans-Serif" font-size="10.00">FAndroidMisc::MemoryBarrier</text>
</a>
</g>
</g>
<!-- Node1&#45;&gt;Node7 -->
<g id="edge9_Node000001_Node000007" class="edge">
<title>Node1&#45;&gt;Node7</title>
<g id="a_edge9_Node000001_Node000007"><a xlink:title=" ">
<path fill="none" stroke="#63b8ff" d="M177.32,-40.16C236.52,-29.19 317.19,-16.01 389,-10.38 457.94,-4.96 536.16,-5.22 595.03,-6.69"/>
<polygon fill="#63b8ff" stroke="#63b8ff" points="594.94,-10.19 605.03,-6.96 595.13,-3.19 594.94,-10.19"/>
</a>
</g>
</g>
<!-- Node3 -->
<g id="Node000003" class="node">
<title>Node3</title>
<g id="a_Node000003"><a xlink:href="$structFDebug.html#a3d793d7b06584d2713cfe1c96a3fca18" xlink:title=" ">
<polygon fill="white" stroke="#666666" points="973.25,-96.75 803.5,-96.75 803.5,-76 973.25,-76 973.25,-96.75"/>
<text xml:space="preserve" text-anchor="middle" x="888.38" y="-83.25" font-family="Helvetica,sans-Serif" font-size="10.00">FDebug::DumpStackTraceToLog</text>
</a>
</g>
</g>
<!-- Node2&#45;&gt;Node3 -->
<g id="edge2_Node000002_Node000003" class="edge">
<title>Node2&#45;&gt;Node3</title>
<g id="a_edge2_Node000002_Node000003"><a xlink:title=" ">
<path fill="none" stroke="#63b8ff" d="M762.6,-86.38C772.14,-86.38 782,-86.38 791.81,-86.38"/>
<polygon fill="#63b8ff" stroke="#63b8ff" points="791.76,-89.88 801.76,-86.38 791.76,-82.88 791.76,-89.88"/>
</a>
</g>
</g>
<!-- Node5 -->
<g id="Node000005" class="node">
<title>Node5</title>
<g id="a_Node000005"><a xlink:href="$classFAsyncTaskBase.html#a140dde501ff21c850615f33ba3a3cc13" xlink:title=" ">
<polygon fill="white" stroke="#666666" points="560.62,-96.75 399.12,-96.75 399.12,-76 560.62,-76 560.62,-96.75"/>
<text xml:space="preserve" text-anchor="middle" x="479.88" y="-83.25" font-family="Helvetica,sans-Serif" font-size="10.00">FAsyncTaskBase::IsWorkDone</text>
</a>
</g>
</g>
<!-- Node4&#45;&gt;Node5 -->
<g id="edge4_Node000004_Node000005" class="edge">
<title>Node4&#45;&gt;Node5</title>
<g id="a_edge4_Node000004_Node000005"><a xlink:title=" ">
<path fill="none" stroke="#63b8ff" d="M353.46,-67.52C367.09,-69.57 381.57,-71.74 395.66,-73.86"/>
<polygon fill="#63b8ff" stroke="#63b8ff" points="394.96,-77.3 405.37,-75.32 396,-70.37 394.96,-77.3"/>
</a>
</g>
</g>
<!-- Node6 -->
<g id="Node000006" class="node">
<title>Node6</title>
<g id="a_Node000006"><a xlink:href="$classFAsyncTaskBase.html#a0245a88fb083c9032b342ea4670423c8" xlink:title=" ">
<polygon fill="white" stroke="#666666" points="570.75,-39.75 389,-39.75 389,-19 570.75,-19 570.75,-39.75"/>
<text xml:space="preserve" text-anchor="middle" x="479.88" y="-26.25" font-family="Helvetica,sans-Serif" font-size="10.00">FAsyncTaskBase::SyncCompletion</text>
</a>
</g>
</g>
<!-- Node4&#45;&gt;Node6 -->
<g id="edge5_Node000004_Node000006" class="edge">
<title>Node4&#45;&gt;Node6</title>
<g id="a_edge5_Node000004_Node000006"><a xlink:title=" ">
<path fill="none" stroke="#63b8ff" d="M353.46,-47.58C366.27,-45.72 379.84,-43.75 393.13,-41.82"/>
<polygon fill="#63b8ff" stroke="#63b8ff" points="393.32,-45.33 402.72,-40.43 392.32,-38.4 393.32,-45.33"/>
</a>
</g>
</g>
<!-- Node6&#45;&gt;Node2 -->
<g id="edge6_Node000006_Node000002" class="edge">
<title>Node6&#45;&gt;Node2</title>
<g id="a_edge6_Node000006_Node000002"><a xlink:title=" ">
<path fill="none" stroke="#63b8ff" d="M519.96,-40.23C553.06,-49.42 600.7,-62.65 636.48,-72.59"/>
<polygon fill="#63b8ff" stroke="#63b8ff" points="635.15,-75.85 645.72,-75.15 637.02,-69.11 635.15,-75.85"/>
</a>
</g>
</g>
<!-- Node6&#45;&gt;Node6 -->
<g id="edge8_Node000006_Node000006" class="edge">
<title>Node6&#45;&gt;Node6</title>
<g id="a_edge8_Node000006_Node000006"><a xlink:title=" ">
<path fill="none" stroke="#63b8ff" d="M448.47,-40.15C435.91,-48.81 446.38,-57.75 479.88,-57.75 498.19,-57.75 509.62,-55.08 514.17,-51.24"/>
<polygon fill="#63b8ff" stroke="#63b8ff" points="517.57,-50.41 511.66,-41.61 510.79,-52.17 517.57,-50.41"/>
</a>
</g>
</g>
<!-- Node6&#45;&gt;Node7 -->
<g id="edge7_Node000006_Node000007" class="edge">
<title>Node6&#45;&gt;Node7</title>
<g id="a_edge7_Node000006_Node000007"><a xlink:title=" ">
<path fill="none" stroke="#63b8ff" d="M571.2,-21.01C579.08,-20.28 587.05,-19.55 594.93,-18.82"/>
<polygon fill="#63b8ff" stroke="#63b8ff" points="595.25,-22.3 604.89,-17.9 594.61,-15.33 595.25,-22.3"/>
</a>
</g>
</g>
</g>
</svg>
