<?xml version="1.0" encoding="UTF-8" standalone="no"?>
<!DOCTYPE svg PUBLIC "-//W3C//DTD SVG 1.1//EN"
 "http://www.w3.org/Graphics/SVG/1.1/DTD/svg11.dtd">
<!-- Generated by graphviz version 14.1.4 (0)
 -->
<!-- Title: UE::UnifiedError::IErrorDetails Pages: 1 -->
<svg width="163pt" height="333pt"
 viewBox="0.00 0.00 163.00 333.00" xmlns="http://www.w3.org/2000/svg" xmlns:xlink="http://www.w3.org/1999/xlink">
<g id="graph0" class="graph" transform="scale(1 1) rotate(0) translate(4 328.75)">
<title>UE::UnifiedError::IErrorDetails</title>
<!-- Node1 -->
<g id="Node000001" class="node">
<title>Node1</title>
<g id="a_Node000001"><a xlink:title=" ">
<polygon fill="#999999" stroke="none" points="154.5,-184.25 0,-184.25 0,0 154.5,0 154.5,-184.25"/>
<text xml:space="preserve" text-anchor="start" x="22.12" y="-170.5" font-family="Helvetica,sans-Serif" font-size="10.00">UE::UnifiedError::IError</text>
<text xml:space="preserve" text-anchor="start" x="60" y="-157.75" font-family="Helvetica,sans-Serif" font-size="10.00">Details</text>
<text xml:space="preserve" text-anchor="start" x="74.25" y="-141" font-family="Helvetica,sans-Serif" font-size="10.00"> </text>
<text xml:space="preserve" text-anchor="start" x="4" y="-124.25" font-family="Helvetica,sans-Serif" font-size="10.00">+</text>
<text xml:space="preserve" text-anchor="start" x="16.25" y="-124.25" font-family="Helvetica,sans-Serif" font-size="10.00">~IErrorDetails()</text>
<text xml:space="preserve" text-anchor="start" x="4" y="-107.5" font-family="Helvetica,sans-Serif" font-size="10.00">+</text>
<text xml:space="preserve" text-anchor="start" x="16.25" y="-107.5" font-family="Helvetica,sans-Serif" font-size="10.00">GetErrorFormatString()</text>
<text xml:space="preserve" text-anchor="start" x="4" y="-90.75" font-family="Helvetica,sans-Serif" font-size="10.00">+</text>
<text xml:space="preserve" text-anchor="start" x="16.25" y="-90.75" font-family="Helvetica,sans-Serif" font-size="10.00">GetErrorProperties()</text>
<text xml:space="preserve" text-anchor="start" x="4" y="-74" font-family="Helvetica,sans-Serif" font-size="10.00">+</text>
<text xml:space="preserve" text-anchor="start" x="16.25" y="-74" font-family="Helvetica,sans-Serif" font-size="10.00">GetInnerErrorDetails()</text>
<text xml:space="preserve" text-anchor="start" x="4" y="-57.25" font-family="Helvetica,sans-Serif" font-size="10.00">+</text>
<text xml:space="preserve" text-anchor="start" x="16.25" y="-57.25" font-family="Helvetica,sans-Serif" font-size="10.00">SetInnerErrorDetails()</text>
<text xml:space="preserve" text-anchor="start" x="4" y="-40.5" font-family="Helvetica,sans-Serif" font-size="10.00">+</text>
<text xml:space="preserve" text-anchor="start" x="16.25" y="-40.5" font-family="Helvetica,sans-Serif" font-size="10.00">GetErrorDetailsTypeId()</text>
<text xml:space="preserve" text-anchor="start" x="4" y="-23.75" font-family="Helvetica,sans-Serif" font-size="10.00">+</text>
<text xml:space="preserve" text-anchor="start" x="16.25" y="-23.75" font-family="Helvetica,sans-Serif" font-size="10.00">GetErrorDetailsTypeName()</text>
<text xml:space="preserve" text-anchor="start" x="4" y="-7" font-family="Helvetica,sans-Serif" font-size="10.00">+</text>
<text xml:space="preserve" text-anchor="start" x="16.25" y="-7" font-family="Helvetica,sans-Serif" font-size="10.00">SerializeForLog()</text>
<polygon fill="#666666" stroke="#666666" points="0,-152.75 0,-152.75 154.5,-152.75 154.5,-152.75 0,-152.75"/>
<polygon fill="#666666" stroke="#666666" points="0,-136 0,-136 154.5,-136 154.5,-136 0,-136"/>
<polygon fill="none" stroke="#666666" points="0,0 0,-184.25 154.5,-184.25 154.5,0 0,0"/>
</a>
</g>
</g>
<!-- Node2 -->
<g id="Node000002" class="node">
<title>Node2</title>
<g id="a_Node000002"><a xlink:href="$classIRefCountedObject.html" xlink:title=" ">
<polygon fill="white" stroke="none" points="141,-324.75 13.5,-324.75 13.5,-220.25 141,-220.25 141,-324.75"/>
<text xml:space="preserve" text-anchor="start" x="31.5" y="-311" font-family="Helvetica,sans-Serif" font-size="10.00">IRefCountedObject</text>
<text xml:space="preserve" text-anchor="start" x="74.25" y="-294.25" font-family="Helvetica,sans-Serif" font-size="10.00"> </text>
<text xml:space="preserve" text-anchor="start" x="17.5" y="-277.5" font-family="Helvetica,sans-Serif" font-size="10.00">+</text>
<text xml:space="preserve" text-anchor="start" x="29.75" y="-277.5" font-family="Helvetica,sans-Serif" font-size="10.00">~IRefCountedObject()</text>
<text xml:space="preserve" text-anchor="start" x="17.5" y="-260.75" font-family="Helvetica,sans-Serif" font-size="10.00">+</text>
<text xml:space="preserve" text-anchor="start" x="29.75" y="-260.75" font-family="Helvetica,sans-Serif" font-size="10.00">AddRef()</text>
<text xml:space="preserve" text-anchor="start" x="17.5" y="-244" font-family="Helvetica,sans-Serif" font-size="10.00">+</text>
<text xml:space="preserve" text-anchor="start" x="29.75" y="-244" font-family="Helvetica,sans-Serif" font-size="10.00">Release()</text>
<text xml:space="preserve" text-anchor="start" x="17.5" y="-227.25" font-family="Helvetica,sans-Serif" font-size="10.00">+</text>
<text xml:space="preserve" text-anchor="start" x="29.75" y="-227.25" font-family="Helvetica,sans-Serif" font-size="10.00">GetRefCount()</text>
<polygon fill="#666666" stroke="#666666" points="13.5,-306 13.5,-306 141,-306 141,-306 13.5,-306"/>
<polygon fill="#666666" stroke="#666666" points="13.5,-289.25 13.5,-289.25 141,-289.25 141,-289.25 13.5,-289.25"/>
<polygon fill="none" stroke="#666666" points="13.5,-220.25 13.5,-324.75 141,-324.75 141,-220.25 13.5,-220.25"/>
</a>
</g>
</g>
<!-- Node2&#45;&gt;Node1 -->
<g id="edge1_Node000001_Node000002" class="edge">
<title>Node2&#45;&gt;Node1</title>
<g id="a_edge1_Node000001_Node000002"><a xlink:title=" ">
<path fill="none" stroke="#63b8ff" d="M77.25,-209.12C77.25,-200.97 77.25,-192.5 77.25,-184.01"/>
<polygon fill="none" stroke="#63b8ff" points="73.75,-208.87 77.25,-218.87 80.75,-208.87 73.75,-208.87"/>
</a>
</g>
</g>
</g>
</svg>
