<?xml version="1.0" encoding="UTF-8" standalone="no"?>
<!DOCTYPE svg PUBLIC "-//W3C//DTD SVG 1.1//EN"
 "http://www.w3.org/Graphics/SVG/1.1/DTD/svg11.dtd">
<!-- Generated by graphviz version 14.1.4 (0)
 -->
<!-- Title: UTexture2DArray::GetSizeY Pages: 1 -->
<svg width="774pt" height="158pt"
 viewBox="0.00 0.00 774.00 158.00" xmlns="http://www.w3.org/2000/svg" xmlns:xlink="http://www.w3.org/1999/xlink">
<g id="graph0" class="graph" transform="scale(1 1) rotate(0) translate(4 153.5)">
<title>UTexture2DArray::GetSizeY</title>
<!-- Node1 -->
<g id="Node000001" class="node">
<title>Node1</title>
<g id="a_Node000001"><a xlink:title=" ">
<polygon fill="#999999" stroke="#666666" points="766,-72.12 618,-72.12 618,-51.38 766,-51.38 766,-72.12"/>
<text xml:space="preserve" text-anchor="middle" x="692" y="-58.62" font-family="Helvetica,sans-Serif" font-size="10.00">UTexture2DArray::GetSizeY</text>
</a>
</g>
</g>
<!-- Node1&#45;&gt;Node1 -->
<g id="edge7_Node000001_Node000001" class="edge">
<title>Node1&#45;&gt;Node1</title>
<g id="a_edge7_Node000001_Node000001"><a xlink:title=" ">
<path fill="none" stroke="#63b8ff" d="M725.57,-83.61C721.12,-87.45 709.93,-90.12 692,-90.12 659.21,-90.12 648.97,-81.18 661.26,-72.52"/>
<polygon fill="#63b8ff" stroke="#63b8ff" points="728.97,-82.81 723.11,-73.99 722.19,-84.54 728.97,-82.81"/>
</a>
</g>
</g>
<!-- Node2 -->
<g id="Node000002" class="node">
<title>Node2</title>
<g id="a_Node000002"><a xlink:href="classUTexture2DArray.html#a467c195c003d8a9bf5ccfe6ce280e4a0" target="_top" xlink:title=" ">
<polygon fill="white" stroke="#666666" points="582,-123.5 420.5,-123.5 420.5,-90 582,-90 582,-123.5"/>
<text xml:space="preserve" text-anchor="start" x="428.5" y="-110" font-family="Helvetica,sans-Serif" font-size="10.00">UTexture2DArray::CalcTexture</text>
<text xml:space="preserve" text-anchor="middle" x="501.25" y="-97.25" font-family="Helvetica,sans-Serif" font-size="10.00">MemorySize</text>
</a>
</g>
</g>
<!-- Node1&#45;&gt;Node2 -->
<g id="edge1_Node000001_Node000002" class="edge">
<title>Node1&#45;&gt;Node2</title>
<g id="a_edge1_Node000001_Node000002"><a xlink:title=" ">
<path fill="none" stroke="#63b8ff" d="M634.65,-75.18C615.72,-79.7 594.34,-84.8 574.36,-89.56"/>
<polygon fill="#63b8ff" stroke="#63b8ff" points="635.4,-78.6 644.32,-72.88 633.78,-71.79 635.4,-78.6"/>
</a>
</g>
</g>
<!-- Node6 -->
<g id="Node000006" class="node">
<title>Node6</title>
<g id="a_Node000006"><a xlink:href="classUTexture2DArray.html#a46427feaedffc15ebc4f4b7f6ca28dbf" target="_top" xlink:title=" ">
<polygon fill="white" stroke="#666666" points="574.12,-72.12 428.38,-72.12 428.38,-51.38 574.12,-51.38 574.12,-72.12"/>
<text xml:space="preserve" text-anchor="middle" x="501.25" y="-58.62" font-family="Helvetica,sans-Serif" font-size="10.00">UTexture2DArray::GetDesc</text>
</a>
</g>
</g>
<!-- Node1&#45;&gt;Node6 -->
<g id="edge6_Node000001_Node000006" class="edge">
<title>Node1&#45;&gt;Node6</title>
<g id="a_edge6_Node000001_Node000006"><a xlink:title=" ">
<path fill="none" stroke="#63b8ff" d="M606.32,-61.75C595.71,-61.75 584.93,-61.75 574.52,-61.75"/>
<polygon fill="#63b8ff" stroke="#63b8ff" points="606.24,-65.25 616.24,-61.75 606.24,-58.25 606.24,-65.25"/>
</a>
</g>
</g>
<!-- Node7 -->
<g id="Node000007" class="node">
<title>Node7</title>
<g id="a_Node000007"><a xlink:href="classUTexture2DArray.html#a941566ff7478a6f7c0c3ec74b8fa3ef9" target="_top" xlink:title=" ">
<polygon fill="white" stroke="#666666" points="580.5,-33.5 422,-33.5 422,0 580.5,0 580.5,-33.5"/>
<text xml:space="preserve" text-anchor="start" x="430" y="-20" font-family="Helvetica,sans-Serif" font-size="10.00">UTexture2DArray::GetSurface</text>
<text xml:space="preserve" text-anchor="middle" x="501.25" y="-7.25" font-family="Helvetica,sans-Serif" font-size="10.00">Height</text>
</a>
</g>
</g>
<!-- Node1&#45;&gt;Node7 -->
<g id="edge8_Node000001_Node000007" class="edge">
<title>Node1&#45;&gt;Node7</title>
<g id="a_edge8_Node000001_Node000007"><a xlink:title=" ">
<path fill="none" stroke="#63b8ff" d="M634.65,-48.32C615.72,-43.8 594.34,-38.7 574.36,-33.94"/>
<polygon fill="#63b8ff" stroke="#63b8ff" points="633.78,-51.71 644.32,-50.62 635.4,-44.9 633.78,-51.71"/>
</a>
</g>
</g>
<!-- Node2&#45;&gt;Node2 -->
<g id="edge3_Node000002_Node000002" class="edge">
<title>Node2&#45;&gt;Node2</title>
<g id="a_edge3_Node000002_Node000002"><a xlink:title=" ">
<path fill="none" stroke="#63b8ff" d="M533.28,-134.89C528.06,-138.85 517.39,-141.5 501.25,-141.5 472.56,-141.5 461.13,-133.12 466.96,-123.91"/>
<polygon fill="#63b8ff" stroke="#63b8ff" points="536.64,-135.9 535.23,-125.4 529.79,-134.48 536.64,-135.9"/>
</a>
</g>
</g>
<!-- Node3 -->
<g id="Node000003" class="node">
<title>Node3</title>
<g id="a_Node000003"><a xlink:href="classUTexture2DArray.html#a4aa84f00592295efcdf2babdbc8cb068" target="_top" xlink:title=" ">
<polygon fill="white" stroke="#666666" points="384.5,-149.5 202.75,-149.5 202.75,-116 384.5,-116 384.5,-149.5"/>
<text xml:space="preserve" text-anchor="start" x="210.75" y="-136" font-family="Helvetica,sans-Serif" font-size="10.00">UTexture2DArray::CalcCumulative</text>
<text xml:space="preserve" text-anchor="middle" x="293.62" y="-123.25" font-family="Helvetica,sans-Serif" font-size="10.00">LODSize</text>
</a>
</g>
</g>
<!-- Node2&#45;&gt;Node3 -->
<g id="edge2_Node000002_Node000003" class="edge">
<title>Node2&#45;&gt;Node3</title>
<g id="a_edge2_Node000002_Node000003"><a xlink:title=" ">
<path fill="none" stroke="#63b8ff" d="M408.9,-118.3C400.87,-119.32 392.75,-120.34 384.73,-121.36"/>
<polygon fill="#63b8ff" stroke="#63b8ff" points="409.18,-121.79 418.66,-117.07 408.3,-114.85 409.18,-121.79"/>
</a>
</g>
</g>
<!-- Node4 -->
<g id="Node000004" class="node">
<title>Node4</title>
<g id="a_Node000004"><a xlink:href="classUTexture2DArray.html#a7bff8f6e2433b44dd5582d93855b236c" target="_top" xlink:title=" ">
<polygon fill="white" stroke="#666666" points="374.38,-97.5 212.88,-97.5 212.88,-64 374.38,-64 374.38,-97.5"/>
<text xml:space="preserve" text-anchor="start" x="220.88" y="-84" font-family="Helvetica,sans-Serif" font-size="10.00">UTexture2DArray::CalcTexture</text>
<text xml:space="preserve" text-anchor="middle" x="293.62" y="-71.25" font-family="Helvetica,sans-Serif" font-size="10.00">MemorySizeEnum</text>
</a>
</g>
</g>
<!-- Node2&#45;&gt;Node4 -->
<g id="edge4_Node000002_Node000004" class="edge">
<title>Node2&#45;&gt;Node4</title>
<g id="a_edge4_Node000002_Node000004"><a xlink:title=" ">
<path fill="none" stroke="#63b8ff" d="M408.89,-95.2C397.54,-93.76 386,-92.3 374.83,-90.89"/>
<polygon fill="#63b8ff" stroke="#63b8ff" points="408.3,-98.65 418.66,-96.43 409.18,-91.71 408.3,-98.65"/>
</a>
</g>
</g>
<!-- Node5 -->
<g id="Node000005" class="node">
<title>Node5</title>
<g id="a_Node000005"><a xlink:href="classUTexture2DArray.html#a29fcfaf859346880aabdf6bed2f20ada" target="_top" xlink:title=" ">
<polygon fill="white" stroke="#666666" points="166.75,-97.5 0,-97.5 0,-64 166.75,-64 166.75,-97.5"/>
<text xml:space="preserve" text-anchor="start" x="8" y="-84" font-family="Helvetica,sans-Serif" font-size="10.00">UTexture2DArray::GetResource</text>
<text xml:space="preserve" text-anchor="middle" x="83.38" y="-71.25" font-family="Helvetica,sans-Serif" font-size="10.00">SizeEx</text>
</a>
</g>
</g>
<!-- Node4&#45;&gt;Node5 -->
<g id="edge5_Node000004_Node000005" class="edge">
<title>Node4&#45;&gt;Node5</title>
<g id="a_edge5_Node000004_Node000005"><a xlink:title=" ">
<path fill="none" stroke="#63b8ff" d="M201.13,-80.75C189.76,-80.75 178.19,-80.75 166.96,-80.75"/>
<polygon fill="#63b8ff" stroke="#63b8ff" points="200.89,-84.25 210.89,-80.75 200.89,-77.25 200.89,-84.25"/>
</a>
</g>
</g>
</g>
</svg>
