<?xml version="1.0" encoding="UTF-8" standalone="no"?>
<!DOCTYPE svg PUBLIC "-//W3C//DTD SVG 1.1//EN"
 "http://www.w3.org/Graphics/SVG/1.1/DTD/svg11.dtd">
<!-- Generated by graphviz version 14.1.4 (0)
 -->
<!-- Title: TOctree2::FindFirstElementWithBoundsTestInternal Pages: 1 -->
<svg width="840pt" height="567pt"
 viewBox="0.00 0.00 840.00 567.00" xmlns="http://www.w3.org/2000/svg" xmlns:xlink="http://www.w3.org/1999/xlink">
<g id="graph0" class="graph" transform="scale(1 1) rotate(0) translate(4 563.12)">
<title>TOctree2::FindFirstElementWithBoundsTestInternal</title>
<!-- Node1 -->
<g id="Node000001" class="node">
<title>Node1</title>
<g id="a_Node000001"><a xlink:title=" ">
<polygon fill="#999999" stroke="#666666" points="146.5,-261.12 0,-261.12 0,-227.62 146.5,-227.62 146.5,-261.12"/>
<text xml:space="preserve" text-anchor="start" x="8" y="-247.62" font-family="Helvetica,sans-Serif" font-size="10.00">TOctree2::FindFirstElement</text>
<text xml:space="preserve" text-anchor="middle" x="73.25" y="-234.88" font-family="Helvetica,sans-Serif" font-size="10.00">WithBoundsTestInternal</text>
</a>
</g>
</g>
<!-- Node1&#45;&gt;Node1 -->
<g id="edge3_Node000001_Node000001" class="edge">
<title>Node1&#45;&gt;Node1</title>
<g id="a_edge3_Node000001_Node000001"><a xlink:title=" ">
<path fill="none" stroke="#63b8ff" d="M41.25,-261.54C35.81,-270.74 46.48,-279.12 73.25,-279.12 88.31,-279.12 98.27,-276.47 103.14,-272.51"/>
<polygon fill="#63b8ff" stroke="#63b8ff" points="106.51,-273.51 104.96,-263.03 99.64,-272.18 106.51,-273.51"/>
</a>
</g>
</g>
<!-- Node2 -->
<g id="Node000002" class="node">
<title>Node2</title>
<g id="a_Node000002"><a xlink:href="$classFOctreeChildNodeSubset.html#a47c1deb332aef3eac8e3ad150c956fe7" xlink:title=" ">
<polygon fill="white" stroke="#666666" points="320,-476.12 182.5,-476.12 182.5,-442.62 320,-442.62 320,-476.12"/>
<text xml:space="preserve" text-anchor="start" x="190.5" y="-462.62" font-family="Helvetica,sans-Serif" font-size="10.00">FOctreeChildNodeSubset</text>
<text xml:space="preserve" text-anchor="middle" x="251.25" y="-449.88" font-family="Helvetica,sans-Serif" font-size="10.00">::Contains</text>
</a>
</g>
</g>
<!-- Node1&#45;&gt;Node2 -->
<g id="edge1_Node000001_Node000002" class="edge">
<title>Node1&#45;&gt;Node2</title>
<g id="a_edge1_Node000001_Node000002"><a xlink:title=" ">
<path fill="none" stroke="#63b8ff" d="M88.36,-261.61C119.2,-299.28 192.78,-389.17 229.15,-433.6"/>
<polygon fill="#63b8ff" stroke="#63b8ff" points="226.32,-435.67 235.36,-441.19 231.74,-431.23 226.32,-435.67"/>
</a>
</g>
</g>
<!-- Node4 -->
<g id="Node000004" class="node">
<title>Node4</title>
<g id="a_Node000004"><a xlink:href="$classFOctreeNodeContext.html#a1185662f38eb6b1db47776cc98525d18" xlink:title=" ">
<polygon fill="white" stroke="#666666" points="310.25,-341.12 192.25,-341.12 192.25,-307.62 310.25,-307.62 310.25,-341.12"/>
<text xml:space="preserve" text-anchor="start" x="200.25" y="-327.62" font-family="Helvetica,sans-Serif" font-size="10.00">FOctreeNodeContext</text>
<text xml:space="preserve" text-anchor="middle" x="251.25" y="-314.88" font-family="Helvetica,sans-Serif" font-size="10.00">::GetChildContext</text>
</a>
</g>
</g>
<!-- Node1&#45;&gt;Node4 -->
<g id="edge4_Node000001_Node000004" class="edge">
<title>Node1&#45;&gt;Node4</title>
<g id="a_edge4_Node000001_Node000004"><a xlink:title=" ">
<path fill="none" stroke="#63b8ff" d="M112.01,-261.54C138.45,-273.56 174.01,-289.72 202.43,-302.64"/>
<polygon fill="#63b8ff" stroke="#63b8ff" points="200.63,-305.66 211.18,-306.62 203.52,-299.29 200.63,-305.66"/>
</a>
</g>
</g>
<!-- Node22 -->
<g id="Node000022" class="node">
<title>Node22</title>
<g id="a_Node000022"><a xlink:href="$classFOctreeNodeContext.html#aee8d68487242aefa2cc0e42a5d571bbe" xlink:title=" ">
<polygon fill="white" stroke="#666666" points="320,-181.12 182.5,-181.12 182.5,-147.62 320,-147.62 320,-181.12"/>
<text xml:space="preserve" text-anchor="start" x="190.5" y="-167.62" font-family="Helvetica,sans-Serif" font-size="10.00">FOctreeNodeContext</text>
<text xml:space="preserve" text-anchor="middle" x="251.25" y="-154.88" font-family="Helvetica,sans-Serif" font-size="10.00">::GetIntersectingChildren</text>
</a>
</g>
</g>
<!-- Node1&#45;&gt;Node22 -->
<g id="edge29_Node000001_Node000022" class="edge">
<title>Node1&#45;&gt;Node22</title>
<g id="a_edge29_Node000001_Node000022"><a xlink:title=" ">
<path fill="none" stroke="#63b8ff" d="M112.01,-227.21C138.45,-215.19 174.01,-199.03 202.43,-186.11"/>
<polygon fill="#63b8ff" stroke="#63b8ff" points="203.52,-189.46 211.18,-182.13 200.63,-183.09 203.52,-189.46"/>
</a>
</g>
</g>
<!-- Node28 -->
<g id="Node000028" class="node">
<title>Node28</title>
<g id="a_Node000028"><a xlink:href="$classFOctreeElementId2.html#a454204b857972527a1e7759fbb5a4f93" xlink:title=" ">
<polygon fill="white" stroke="#666666" points="309.12,-129.12 193.38,-129.12 193.38,-95.62 309.12,-95.62 309.12,-129.12"/>
<text xml:space="preserve" text-anchor="start" x="201.38" y="-115.62" font-family="Helvetica,sans-Serif" font-size="10.00">FOctreeElementId2::</text>
<text xml:space="preserve" text-anchor="middle" x="251.25" y="-102.88" font-family="Helvetica,sans-Serif" font-size="10.00">IsValidId</text>
</a>
</g>
</g>
<!-- Node1&#45;&gt;Node28 -->
<g id="edge40_Node000001_Node000028" class="edge">
<title>Node1&#45;&gt;Node28</title>
<g id="a_edge40_Node000001_Node000028"><a xlink:title=" ">
<path fill="none" stroke="#63b8ff" d="M87.62,-227.51C106.57,-204.57 143.32,-163.52 182.5,-138.38 184.49,-137.1 186.55,-135.87 188.66,-134.69"/>
<polygon fill="#63b8ff" stroke="#63b8ff" points="190.16,-137.85 197.48,-130.19 186.98,-131.61 190.16,-137.85"/>
</a>
</g>
</g>
<!-- Node3 -->
<g id="Node000003" class="node">
<title>Node3</title>
<g id="a_Node000003"><a xlink:href="$classFOctreeChildNodeSubset.html#a07cec96756768b345819eae5dd47ce0b" xlink:title=" ">
<polygon fill="white" stroke="#666666" points="499.5,-559.12 356,-559.12 356,-525.62 499.5,-525.62 499.5,-559.12"/>
<text xml:space="preserve" text-anchor="start" x="364" y="-545.62" font-family="Helvetica,sans-Serif" font-size="10.00">FOctreeChildNodeSubset</text>
<text xml:space="preserve" text-anchor="middle" x="427.75" y="-532.88" font-family="Helvetica,sans-Serif" font-size="10.00">::FOctreeChildNodeSubset</text>
</a>
</g>
</g>
<!-- Node2&#45;&gt;Node3 -->
<g id="edge2_Node000002_Node000003" class="edge">
<title>Node2&#45;&gt;Node3</title>
<g id="a_edge2_Node000002_Node000003"><a xlink:title=" ">
<path fill="none" stroke="#63b8ff" d="M280.72,-476.53C301.24,-488.52 329.81,-504.45 356,-516.38 359.5,-517.97 363.13,-519.54 366.81,-521.07"/>
<polygon fill="#63b8ff" stroke="#63b8ff" points="365.28,-524.23 375.86,-524.71 367.89,-517.73 365.28,-524.23"/>
</a>
</g>
</g>
<!-- Node5 -->
<g id="Node000005" class="node">
<title>Node5</title>
<g id="a_Node000005"><a xlink:href="$classFOctreeNodeContext.html#a81cea534b4675a4bcf325519c0ce8a1f" xlink:title=" ">
<polygon fill="white" stroke="#666666" points="489.75,-341.12 365.75,-341.12 365.75,-307.62 489.75,-307.62 489.75,-341.12"/>
<text xml:space="preserve" text-anchor="start" x="373.75" y="-327.62" font-family="Helvetica,sans-Serif" font-size="10.00">FOctreeNodeContext</text>
<text xml:space="preserve" text-anchor="middle" x="427.75" y="-314.88" font-family="Helvetica,sans-Serif" font-size="10.00">::FOctreeNodeContext</text>
</a>
</g>
</g>
<!-- Node4&#45;&gt;Node5 -->
<g id="edge5_Node000004_Node000005" class="edge">
<title>Node4&#45;&gt;Node5</title>
<g id="a_edge5_Node000004_Node000005"><a xlink:title=" ">
<path fill="none" stroke="#63b8ff" d="M310.36,-324.38C324.28,-324.38 339.33,-324.38 353.83,-324.38"/>
<polygon fill="#63b8ff" stroke="#63b8ff" points="353.79,-327.88 363.79,-324.38 353.79,-320.88 353.79,-327.88"/>
</a>
</g>
</g>
<!-- Node6 -->
<g id="Node000006" class="node">
<title>Node6</title>
<g id="a_Node000006"><a xlink:href="$classFOctreeNodeContext.html#a8dff350b3e5a4aea9085732eeb50b71b" xlink:title=" ">
<polygon fill="white" stroke="#666666" points="486.75,-469.12 368.75,-469.12 368.75,-435.62 486.75,-435.62 486.75,-469.12"/>
<text xml:space="preserve" text-anchor="start" x="376.75" y="-455.62" font-family="Helvetica,sans-Serif" font-size="10.00">FOctreeNodeContext</text>
<text xml:space="preserve" text-anchor="middle" x="427.75" y="-442.88" font-family="Helvetica,sans-Serif" font-size="10.00">::GetChildOffsetVec</text>
</a>
</g>
</g>
<!-- Node4&#45;&gt;Node6 -->
<g id="edge6_Node000004_Node000006" class="edge">
<title>Node4&#45;&gt;Node6</title>
<g id="a_edge6_Node000004_Node000006"><a xlink:title=" ">
<path fill="none" stroke="#63b8ff" d="M266.99,-341.32C285.92,-362.28 320.58,-398.05 356,-421.38 360.78,-424.52 365.93,-427.48 371.19,-430.23"/>
<polygon fill="#63b8ff" stroke="#63b8ff" points="369.52,-433.3 380.03,-434.57 372.6,-427.02 369.52,-433.3"/>
</a>
</g>
</g>
<!-- Node7 -->
<g id="Node000007" class="node">
<title>Node7</title>
<g id="a_Node000007"><a xlink:href="$UnrealMathFPU_8h.html#a2f97db83eb4910dec45008fdbb1c59e0" xlink:title=" ">
<polygon fill="white" stroke="#666666" points="651.62,-345.75 537.38,-345.75 537.38,-325 651.62,-325 651.62,-345.75"/>
<text xml:space="preserve" text-anchor="middle" x="594.5" y="-332.25" font-family="Helvetica,sans-Serif" font-size="10.00">MakeVectorRegister</text>
</a>
</g>
</g>
<!-- Node4&#45;&gt;Node7 -->
<g id="edge19_Node000004_Node000007" class="edge">
<title>Node4&#45;&gt;Node7</title>
<g id="a_edge19_Node000004_Node000007"><a xlink:title=" ">
<path fill="none" stroke="#63b8ff" d="M272.46,-341.62C292.25,-357.29 324.03,-379.31 356,-388.38 417.36,-405.78 440.06,-411.5 499.5,-388.38 519.73,-380.51 516.85,-366.48 535.5,-355.38 538.29,-353.71 541.23,-352.17 544.26,-350.73"/>
<polygon fill="#63b8ff" stroke="#63b8ff" points="545.54,-353.99 553.36,-346.84 542.79,-347.55 545.54,-353.99"/>
</a>
</g>
</g>
<!-- Node14 -->
<g id="Node000014" class="node">
<title>Node14</title>
<g id="a_Node000014"><a xlink:href="$UnrealMathFPU_8h.html#a51b91edc146dc12b096b44d0cdc1e732" xlink:title=" ">
<polygon fill="white" stroke="#666666" points="641.5,-289.75 547.5,-289.75 547.5,-269 641.5,-269 641.5,-289.75"/>
<text xml:space="preserve" text-anchor="middle" x="594.5" y="-276.25" font-family="Helvetica,sans-Serif" font-size="10.00">VectorSetFloat1</text>
</a>
</g>
</g>
<!-- Node4&#45;&gt;Node14 -->
<g id="edge25_Node000004_Node000014" class="edge">
<title>Node4&#45;&gt;Node14</title>
<g id="a_edge25_Node000004_Node000014"><a xlink:title=" ">
<path fill="none" stroke="#63b8ff" d="M310.61,-307.95C325.32,-304.31 341.16,-300.81 356,-298.38 416.9,-288.38 487.48,-283.58 535.78,-281.32"/>
<polygon fill="#63b8ff" stroke="#63b8ff" points="535.91,-284.82 545.74,-280.87 535.59,-277.82 535.91,-284.82"/>
</a>
</g>
</g>
<!-- Node15 -->
<g id="Node000015" class="node">
<title>Node15</title>
<g id="a_Node000015"><a xlink:href="$UnrealMathFPU_8h.html#abf7bfa77d888eda9563159b57f10c55f" xlink:title=" ">
<polygon fill="white" stroke="#666666" points="460.88,-212.75 394.62,-212.75 394.62,-192 460.88,-192 460.88,-212.75"/>
<text xml:space="preserve" text-anchor="middle" x="427.75" y="-199.25" font-family="Helvetica,sans-Serif" font-size="10.00">VectorAdd</text>
</a>
</g>
</g>
<!-- Node4&#45;&gt;Node15 -->
<g id="edge20_Node000004_Node000015" class="edge">
<title>Node4&#45;&gt;Node15</title>
<g id="a_edge20_Node000004_Node000015"><a xlink:title=" ">
<path fill="none" stroke="#63b8ff" d="M265.05,-307.26C282.94,-284.54 317.56,-244.7 356,-222.38 364.41,-217.49 374.08,-213.74 383.52,-210.89"/>
<polygon fill="#63b8ff" stroke="#63b8ff" points="384.2,-214.33 392.93,-208.33 382.37,-207.57 384.2,-214.33"/>
</a>
</g>
</g>
<!-- Node16 -->
<g id="Node000016" class="node">
<title>Node16</title>
<g id="a_Node000016"><a xlink:href="$UnrealMathFPU_8h.html#a50d6614d62a81f173e926fe880c5f48a" xlink:title=" ">
<polygon fill="white" stroke="#666666" points="481.5,-251.75 374,-251.75 374,-231 481.5,-231 481.5,-251.75"/>
<text xml:space="preserve" text-anchor="middle" x="427.75" y="-238.25" font-family="Helvetica,sans-Serif" font-size="10.00">VectorLoadAligned</text>
</a>
</g>
</g>
<!-- Node4&#45;&gt;Node16 -->
<g id="edge21_Node000004_Node000016" class="edge">
<title>Node4&#45;&gt;Node16</title>
<g id="a_edge21_Node000004_Node000016"><a xlink:title=" ">
<path fill="none" stroke="#63b8ff" d="M279.25,-307.13C299.76,-294.5 328.97,-277.51 356,-265.38 363.57,-261.98 371.76,-258.78 379.81,-255.9"/>
<polygon fill="#63b8ff" stroke="#63b8ff" points="380.87,-259.23 389.18,-252.66 378.59,-252.62 380.87,-259.23"/>
</a>
</g>
</g>
<!-- Node18 -->
<g id="Node000018" class="node">
<title>Node18</title>
<g id="a_Node000018"><a xlink:href="$UnrealMathFPU_8h.html#af09862db8f156f4e6a18e7aacde5efd8" xlink:title=" ">
<polygon fill="white" stroke="#666666" points="471.38,-379.75 384.12,-379.75 384.12,-359 471.38,-359 471.38,-379.75"/>
<text xml:space="preserve" text-anchor="middle" x="427.75" y="-366.25" font-family="Helvetica,sans-Serif" font-size="10.00">VectorMultiply</text>
</a>
</g>
</g>
<!-- Node4&#45;&gt;Node18 -->
<g id="edge24_Node000004_Node000018" class="edge">
<title>Node4&#45;&gt;Node18</title>
<g id="a_edge24_Node000004_Node000018"><a xlink:title=" ">
<path fill="none" stroke="#63b8ff" d="M310.36,-339.36C330.76,-344.62 353.56,-350.5 373.54,-355.65"/>
<polygon fill="#63b8ff" stroke="#63b8ff" points="372.6,-359.02 383.16,-358.13 374.35,-352.25 372.6,-359.02"/>
</a>
</g>
</g>
<!-- Node19 -->
<g id="Node000019" class="node">
<title>Node19</title>
<g id="a_Node000019"><a xlink:href="$UnrealMathFPU_8h.html#ac95bca38d084b294227bf707d8f51cfb" xlink:title=" ">
<polygon fill="white" stroke="#666666" points="482.62,-507.75 372.88,-507.75 372.88,-487 482.62,-487 482.62,-507.75"/>
<text xml:space="preserve" text-anchor="middle" x="427.75" y="-494.25" font-family="Helvetica,sans-Serif" font-size="10.00">VectorStoreAligned</text>
</a>
</g>
</g>
<!-- Node4&#45;&gt;Node19 -->
<g id="edge26_Node000004_Node000019" class="edge">
<title>Node4&#45;&gt;Node19</title>
<g id="a_edge26_Node000004_Node000019"><a xlink:title=" ">
<path fill="none" stroke="#63b8ff" d="M262.73,-341.34C286.38,-379.39 342.82,-468.96 356,-478.38 358.06,-479.85 360.23,-481.2 362.47,-482.46"/>
<polygon fill="#63b8ff" stroke="#63b8ff" points="360.83,-485.55 371.36,-486.65 363.82,-479.22 360.83,-485.55"/>
</a>
</g>
</g>
<!-- Node6&#45;&gt;Node7 -->
<g id="edge7_Node000006_Node000007" class="edge">
<title>Node6&#45;&gt;Node7</title>
<g id="a_edge7_Node000006_Node000007"><a xlink:title=" ">
<path fill="none" stroke="#63b8ff" d="M479.23,-435.25C486.53,-431.41 493.57,-426.81 499.5,-421.38 524.12,-398.79 509.98,-376.95 535.5,-355.38 537.15,-353.98 538.9,-352.69 540.72,-351.48"/>
<polygon fill="#63b8ff" stroke="#63b8ff" points="541.98,-354.78 549.03,-346.88 538.59,-348.66 541.98,-354.78"/>
</a>
</g>
</g>
<!-- Node9 -->
<g id="Node000009" class="node">
<title>Node9</title>
<g id="a_Node000009"><a xlink:href="$UnrealMathFPU_8h.html#a942304590e6c13e02549a58b3465124e" xlink:title=" ">
<polygon fill="white" stroke="#666666" points="634,-423.75 555,-423.75 555,-403 634,-403 634,-423.75"/>
<text xml:space="preserve" text-anchor="middle" x="594.5" y="-410.25" font-family="Helvetica,sans-Serif" font-size="10.00">VectorIntAnd</text>
</a>
</g>
</g>
<!-- Node6&#45;&gt;Node9 -->
<g id="edge9_Node000006_Node000009" class="edge">
<title>Node6&#45;&gt;Node9</title>
<g id="a_edge9_Node000006_Node000009"><a xlink:title=" ">
<path fill="none" stroke="#63b8ff" d="M486.83,-438.63C505.31,-434.25 525.58,-429.45 543.44,-425.22"/>
<polygon fill="#63b8ff" stroke="#63b8ff" points="544.1,-428.67 553.03,-422.96 542.49,-421.85 544.1,-428.67"/>
</a>
</g>
</g>
<!-- Node11 -->
<g id="Node000011" class="node">
<title>Node11</title>
<g id="a_Node000011"><a xlink:href="$UnrealMathFPU_8h.html#a4747a02de4af1cb281045b7dedaae682" xlink:title=" ">
<polygon fill="white" stroke="#666666" points="653.5,-501.75 535.5,-501.75 535.5,-481 653.5,-481 653.5,-501.75"/>
<text xml:space="preserve" text-anchor="middle" x="594.5" y="-488.25" font-family="Helvetica,sans-Serif" font-size="10.00">VectorIntCompareEQ</text>
</a>
</g>
</g>
<!-- Node6&#45;&gt;Node11 -->
<g id="edge11_Node000006_Node000011" class="edge">
<title>Node6&#45;&gt;Node11</title>
<g id="a_edge11_Node000006_Node000011"><a xlink:title=" ">
<path fill="none" stroke="#63b8ff" d="M486.83,-466.12C503.02,-469.96 520.58,-474.11 536.68,-477.93"/>
<polygon fill="#63b8ff" stroke="#63b8ff" points="535.56,-481.26 546.1,-480.15 537.17,-474.44 535.56,-481.26"/>
</a>
</g>
</g>
<!-- Node12 -->
<g id="Node000012" class="node">
<title>Node12</title>
<g id="a_Node000012"><a xlink:href="$UnrealMathFPU_8h.html#a6ce60699ab4c8ba318bde27d0432d062" xlink:title=" ">
<polygon fill="white" stroke="#666666" points="639.25,-462.75 549.75,-462.75 549.75,-442 639.25,-442 639.25,-462.75"/>
<text xml:space="preserve" text-anchor="middle" x="594.5" y="-449.25" font-family="Helvetica,sans-Serif" font-size="10.00">VectorIntLoad1</text>
</a>
</g>
</g>
<!-- Node6&#45;&gt;Node12 -->
<g id="edge13_Node000006_Node000012" class="edge">
<title>Node6&#45;&gt;Node12</title>
<g id="a_edge13_Node000006_Node000012"><a xlink:title=" ">
<path fill="none" stroke="#63b8ff" d="M486.83,-452.38C503.54,-452.38 521.72,-452.38 538.25,-452.38"/>
<polygon fill="#63b8ff" stroke="#63b8ff" points="537.89,-455.88 547.89,-452.38 537.89,-448.88 537.89,-455.88"/>
</a>
</g>
</g>
<!-- Node13 -->
<g id="Node000013" class="node">
<title>Node13</title>
<g id="a_Node000013"><a xlink:href="$UnrealMathFPU_8h.html#a1fb34ce64d80111b789befcf54173f39" xlink:title=" ">
<polygon fill="white" stroke="#666666" points="633.25,-384.75 555.75,-384.75 555.75,-364 633.25,-364 633.25,-384.75"/>
<text xml:space="preserve" text-anchor="middle" x="594.5" y="-371.25" font-family="Helvetica,sans-Serif" font-size="10.00">VectorSelect</text>
</a>
</g>
</g>
<!-- Node6&#45;&gt;Node13 -->
<g id="edge15_Node000006_Node000013" class="edge">
<title>Node6&#45;&gt;Node13</title>
<g id="a_edge15_Node000006_Node000013"><a xlink:title=" ">
<path fill="none" stroke="#63b8ff" d="M472.19,-435.23C481.4,-431.08 490.93,-426.38 499.5,-421.38 516.77,-411.29 517.83,-403.75 535.5,-394.38 538.9,-392.57 542.49,-390.88 546.15,-389.31"/>
<polygon fill="#63b8ff" stroke="#63b8ff" points="547.16,-392.67 555.16,-385.73 544.58,-386.17 547.16,-392.67"/>
</a>
</g>
</g>
<!-- Node6&#45;&gt;Node14 -->
<g id="edge17_Node000006_Node000014" class="edge">
<title>Node6&#45;&gt;Node14</title>
<g id="a_edge17_Node000006_Node000014"><a xlink:title=" ">
<path fill="none" stroke="#63b8ff" d="M451.83,-435.2C466.76,-423.25 485.88,-406.31 499.5,-388.38 521.14,-359.88 511.55,-342.96 535.5,-316.38 542.64,-308.44 551.87,-301.54 560.85,-295.92"/>
<polygon fill="#63b8ff" stroke="#63b8ff" points="562.59,-298.95 569.46,-290.88 559.06,-292.91 562.59,-298.95"/>
</a>
</g>
</g>
<!-- Node8 -->
<g id="Node000008" class="node">
<title>Node8</title>
<g id="a_Node000008"><a xlink:href="$UnrealMathFPU_8h.html#a0455131f2d8e67175bd5edfbd9f5acc9" xlink:title=" ">
<polygon fill="white" stroke="#666666" points="830,-250.75 691,-250.75 691,-230 830,-230 830,-250.75"/>
<text xml:space="preserve" text-anchor="middle" x="760.5" y="-237.25" font-family="Helvetica,sans-Serif" font-size="10.00">MakeVectorRegisterFloat</text>
</a>
</g>
</g>
<!-- Node7&#45;&gt;Node8 -->
<g id="edge8_Node000007_Node000008" class="edge">
<title>Node7&#45;&gt;Node8</title>
<g id="a_edge8_Node000007_Node000008"><a xlink:title=" ">
<path fill="none" stroke="#63b8ff" d="M613.99,-324.66C642.54,-308.13 697.54,-276.27 731.14,-256.81"/>
<polygon fill="#63b8ff" stroke="#63b8ff" points="732.61,-259.99 739.51,-251.95 729.1,-253.94 732.61,-259.99"/>
</a>
</g>
</g>
<!-- Node10 -->
<g id="Node000010" class="node">
<title>Node10</title>
<g id="a_Node000010"><a xlink:href="$UnrealMathFPU_8h.html#a31b5ba09cd6eefa88c5afd030adbbe90" xlink:title=" ">
<polygon fill="white" stroke="#666666" points="824,-462.75 697,-462.75 697,-442 824,-442 824,-462.75"/>
<text xml:space="preserve" text-anchor="middle" x="760.5" y="-449.25" font-family="Helvetica,sans-Serif" font-size="10.00">MakeVectorRegisterInt</text>
</a>
</g>
</g>
<!-- Node9&#45;&gt;Node10 -->
<g id="edge10_Node000009_Node000010" class="edge">
<title>Node9&#45;&gt;Node10</title>
<g id="a_edge10_Node000009_Node000010"><a xlink:title=" ">
<path fill="none" stroke="#63b8ff" d="M634.37,-422.62C654.79,-427.47 680.19,-433.52 702.77,-438.88"/>
<polygon fill="#63b8ff" stroke="#63b8ff" points="701.92,-442.28 712.46,-441.19 703.54,-435.47 701.92,-442.28"/>
</a>
</g>
</g>
<!-- Node11&#45;&gt;Node10 -->
<g id="edge12_Node000011_Node000010" class="edge">
<title>Node11&#45;&gt;Node10</title>
<g id="a_edge12_Node000011_Node000010"><a xlink:title=" ">
<path fill="none" stroke="#63b8ff" d="M641.18,-480.51C660.3,-475.97 682.71,-470.64 702.85,-465.85"/>
<polygon fill="#63b8ff" stroke="#63b8ff" points="703.39,-469.32 712.31,-463.6 701.77,-462.51 703.39,-469.32"/>
</a>
</g>
</g>
<!-- Node12&#45;&gt;Node10 -->
<g id="edge14_Node000012_Node000010" class="edge">
<title>Node12&#45;&gt;Node10</title>
<g id="a_edge14_Node000012_Node000010"><a xlink:title=" ">
<path fill="none" stroke="#63b8ff" d="M639.45,-452.38C653.57,-452.38 669.63,-452.38 685.31,-452.38"/>
<polygon fill="#63b8ff" stroke="#63b8ff" points="685.11,-455.88 695.11,-452.38 685.11,-448.88 685.11,-455.88"/>
</a>
</g>
</g>
<!-- Node13&#45;&gt;Node8 -->
<g id="edge16_Node000013_Node000008" class="edge">
<title>Node13&#45;&gt;Node8</title>
<g id="a_edge16_Node000013_Node000008"><a xlink:title=" ">
<path fill="none" stroke="#63b8ff" d="M633.58,-364.25C640.49,-361.59 647.43,-358.33 653.5,-354.38 692.72,-328.85 727.38,-285.71 745.7,-260.45"/>
<polygon fill="#63b8ff" stroke="#63b8ff" points="748.51,-262.54 751.44,-252.36 742.8,-258.49 748.51,-262.54"/>
</a>
</g>
</g>
<!-- Node14&#45;&gt;Node8 -->
<g id="edge18_Node000014_Node000008" class="edge">
<title>Node14&#45;&gt;Node8</title>
<g id="a_edge18_Node000014_Node000008"><a xlink:title=" ">
<path fill="none" stroke="#63b8ff" d="M641.18,-268.51C660.3,-263.97 682.71,-258.64 702.85,-253.85"/>
<polygon fill="#63b8ff" stroke="#63b8ff" points="703.39,-257.32 712.31,-251.6 701.77,-250.51 703.39,-257.32"/>
</a>
</g>
</g>
<!-- Node17 -->
<g id="Node000017" class="node">
<title>Node17</title>
<g id="a_Node000017"><a xlink:href="$UnrealMathFPU_8h.html#a7b647256a2fdfa30b641b9fc152408d0" xlink:title=" ">
<polygon fill="white" stroke="#666666" points="629.88,-250.75 559.12,-250.75 559.12,-230 629.88,-230 629.88,-250.75"/>
<text xml:space="preserve" text-anchor="middle" x="594.5" y="-237.25" font-family="Helvetica,sans-Serif" font-size="10.00">VectorLoad</text>
</a>
</g>
</g>
<!-- Node16&#45;&gt;Node17 -->
<g id="edge22_Node000016_Node000017" class="edge">
<title>Node16&#45;&gt;Node17</title>
<g id="a_edge22_Node000016_Node000017"><a xlink:title=" ">
<path fill="none" stroke="#63b8ff" d="M481.78,-241.05C502.86,-240.93 526.88,-240.78 547.23,-240.66"/>
<polygon fill="#63b8ff" stroke="#63b8ff" points="547.25,-244.16 557.23,-240.6 547.21,-237.16 547.25,-244.16"/>
</a>
</g>
</g>
<!-- Node17&#45;&gt;Node8 -->
<g id="edge23_Node000017_Node000008" class="edge">
<title>Node17&#45;&gt;Node8</title>
<g id="a_edge23_Node000017_Node000008"><a xlink:title=" ">
<path fill="none" stroke="#63b8ff" d="M630.28,-240.38C644.7,-240.38 662.08,-240.38 679.35,-240.38"/>
<polygon fill="#63b8ff" stroke="#63b8ff" points="679.14,-243.88 689.14,-240.38 679.14,-236.88 679.14,-243.88"/>
</a>
</g>
</g>
<!-- Node20 -->
<g id="Node000020" class="node">
<title>Node20</title>
<g id="a_Node000020"><a xlink:href="$structFMemory.html#a6bfb397a8ea2e226f6fe27664c9880ca" xlink:title=" ">
<polygon fill="white" stroke="#666666" points="649.38,-540.75 539.62,-540.75 539.62,-520 649.38,-520 649.38,-540.75"/>
<text xml:space="preserve" text-anchor="middle" x="594.5" y="-527.25" font-family="Helvetica,sans-Serif" font-size="10.00">FMemory::Memcpy</text>
</a>
</g>
</g>
<!-- Node19&#45;&gt;Node20 -->
<g id="edge27_Node000019_Node000020" class="edge">
<title>Node19&#45;&gt;Node20</title>
<g id="a_edge27_Node000019_Node000020"><a xlink:title=" ">
<path fill="none" stroke="#63b8ff" d="M482.7,-508.18C497.35,-511.11 513.36,-514.32 528.55,-517.37"/>
<polygon fill="#63b8ff" stroke="#63b8ff" points="527.46,-520.72 537.95,-519.25 528.83,-513.85 527.46,-520.72"/>
</a>
</g>
</g>
<!-- Node21 -->
<g id="Node000021" class="node">
<title>Node21</title>
<g id="a_Node000021"><a xlink:href="$structFGenericPlatformMemory.html#a039ab8ec901d143a5bee24861dbc1a4b" xlink:title=" ">
<polygon fill="white" stroke="#666666" points="831.5,-547.12 689.5,-547.12 689.5,-513.62 831.5,-513.62 831.5,-547.12"/>
<text xml:space="preserve" text-anchor="start" x="697.5" y="-533.62" font-family="Helvetica,sans-Serif" font-size="10.00">FGenericPlatformMemory</text>
<text xml:space="preserve" text-anchor="middle" x="760.5" y="-520.88" font-family="Helvetica,sans-Serif" font-size="10.00">::Memcpy</text>
</a>
</g>
</g>
<!-- Node20&#45;&gt;Node21 -->
<g id="edge28_Node000020_Node000021" class="edge">
<title>Node20&#45;&gt;Node21</title>
<g id="a_edge28_Node000020_Node000021"><a xlink:title=" ">
<path fill="none" stroke="#63b8ff" d="M649.65,-530.38C658.61,-530.38 668.07,-530.38 677.52,-530.38"/>
<polygon fill="#63b8ff" stroke="#63b8ff" points="677.51,-533.88 687.51,-530.38 677.51,-526.88 677.51,-533.88"/>
</a>
</g>
</g>
<!-- Node22&#45;&gt;Node15 -->
<g id="edge30_Node000022_Node000015" class="edge">
<title>Node22&#45;&gt;Node15</title>
<g id="a_edge30_Node000022_Node000015"><a xlink:title=" ">
<path fill="none" stroke="#63b8ff" d="M320.47,-179.23C341.62,-183.84 364.35,-188.79 383.33,-192.92"/>
<polygon fill="#63b8ff" stroke="#63b8ff" points="382.34,-196.28 392.85,-194.99 383.82,-189.45 382.34,-196.28"/>
</a>
</g>
</g>
<!-- Node22&#45;&gt;Node16 -->
<g id="edge35_Node000022_Node000016" class="edge">
<title>Node22&#45;&gt;Node16</title>
<g id="a_edge35_Node000022_Node000016"><a xlink:title=" ">
<path fill="none" stroke="#63b8ff" d="M279.15,-181.37C299.62,-193.75 328.81,-210.23 356,-221.38 360.98,-223.42 366.24,-225.33 371.55,-227.09"/>
<polygon fill="#63b8ff" stroke="#63b8ff" points="370.41,-230.41 381,-230.07 372.51,-223.73 370.41,-230.41"/>
</a>
</g>
</g>
<!-- Node23 -->
<g id="Node000023" class="node">
<title>Node23</title>
<g id="a_Node000023"><a xlink:href="$UnrealMathFPU_8h.html#af23667ab0a63e2cd34f34a26bc481b30" xlink:title=" ">
<polygon fill="white" stroke="#666666" points="647.12,-207.75 541.88,-207.75 541.88,-187 647.12,-187 647.12,-207.75"/>
<text xml:space="preserve" text-anchor="middle" x="594.5" y="-194.25" font-family="Helvetica,sans-Serif" font-size="10.00">VectorCompareGT</text>
</a>
</g>
</g>
<!-- Node22&#45;&gt;Node23 -->
<g id="edge31_Node000022_Node000023" class="edge">
<title>Node22&#45;&gt;Node23</title>
<g id="a_edge31_Node000022_Node000023"><a xlink:title=" ">
<path fill="none" stroke="#63b8ff" d="M320.32,-168.3C370.06,-171.48 439.07,-176.56 499.5,-183.38 509.39,-184.49 519.83,-185.86 530.02,-187.29"/>
<polygon fill="#63b8ff" stroke="#63b8ff" points="529.48,-190.75 539.88,-188.72 530.49,-183.82 529.48,-190.75"/>
</a>
</g>
</g>
<!-- Node24 -->
<g id="Node000024" class="node">
<title>Node24</title>
<g id="a_Node000024"><a xlink:href="$UnrealMathFPU_8h.html#aa474bd43d8d73f00b57891b5e36d46d2" xlink:title=" ">
<polygon fill="white" stroke="#666666" points="646,-159.75 543,-159.75 543,-139 646,-139 646,-159.75"/>
<text xml:space="preserve" text-anchor="middle" x="594.5" y="-146.25" font-family="Helvetica,sans-Serif" font-size="10.00">VectorCompareLE</text>
</a>
</g>
</g>
<!-- Node22&#45;&gt;Node24 -->
<g id="edge33_Node000022_Node000024" class="edge">
<title>Node22&#45;&gt;Node24</title>
<g id="a_edge33_Node000022_Node000024"><a xlink:title=" ">
<path fill="none" stroke="#63b8ff" d="M320.49,-153.88C332.3,-152.44 344.49,-151.17 356,-150.38 415.47,-146.25 483.52,-146.47 531.49,-147.44"/>
<polygon fill="#63b8ff" stroke="#63b8ff" points="531.34,-150.93 541.42,-147.66 531.5,-143.94 531.34,-150.93"/>
</a>
</g>
</g>
<!-- Node25 -->
<g id="Node000025" class="node">
<title>Node25</title>
<g id="a_Node000025"><a xlink:href="$UnrealMathFPU_8h.html#a4902f8e7011c5f7bfcd1953ca1f08ea1" xlink:title=" ">
<polygon fill="white" stroke="#666666" points="478.5,-98.75 377,-98.75 377,-78 478.5,-78 478.5,-98.75"/>
<text xml:space="preserve" text-anchor="middle" x="427.75" y="-85.25" font-family="Helvetica,sans-Serif" font-size="10.00">VectorLoadFloat1</text>
</a>
</g>
</g>
<!-- Node22&#45;&gt;Node25 -->
<g id="edge36_Node000022_Node000025" class="edge">
<title>Node22&#45;&gt;Node25</title>
<g id="a_edge36_Node000022_Node000025"><a xlink:title=" ">
<path fill="none" stroke="#63b8ff" d="M301.41,-147.25C307.78,-144.53 314.13,-141.55 320,-138.38 337.36,-128.98 338.46,-121.42 356,-112.38 362.74,-108.9 370.09,-105.76 377.42,-102.98"/>
<polygon fill="#63b8ff" stroke="#63b8ff" points="378.4,-106.35 386.65,-99.69 376.05,-99.75 378.4,-106.35"/>
</a>
</g>
</g>
<!-- Node26 -->
<g id="Node000026" class="node">
<title>Node26</title>
<g id="a_Node000026"><a xlink:href="$UnrealMathFPU_8h.html#a0f12e1775d1f92209a292597cfe89b80" xlink:title=" ">
<polygon fill="white" stroke="#666666" points="474,-59.75 381.5,-59.75 381.5,-39 474,-39 474,-59.75"/>
<text xml:space="preserve" text-anchor="middle" x="427.75" y="-46.25" font-family="Helvetica,sans-Serif" font-size="10.00">VectorMaskBits</text>
</a>
</g>
</g>
<!-- Node22&#45;&gt;Node26 -->
<g id="edge38_Node000022_Node000026" class="edge">
<title>Node22&#45;&gt;Node26</title>
<g id="a_edge38_Node000022_Node000026"><a xlink:title=" ">
<path fill="none" stroke="#63b8ff" d="M307.52,-147.24C312,-144.67 316.24,-141.73 320,-138.38 345.82,-115.36 329.16,-91.2 356,-69.38 360.41,-65.79 365.42,-62.85 370.69,-60.44"/>
<polygon fill="#63b8ff" stroke="#63b8ff" points="371.59,-63.84 379.65,-56.96 369.06,-57.31 371.59,-63.84"/>
</a>
</g>
</g>
<!-- Node27 -->
<g id="Node000027" class="node">
<title>Node27</title>
<g id="a_Node000027"><a xlink:href="$UnrealMathFPU_8h.html#a9d54d08ff950ce0c68c873cd0a050e71" xlink:title=" ">
<polygon fill="white" stroke="#666666" points="471.75,-20.75 383.75,-20.75 383.75,0 471.75,0 471.75,-20.75"/>
<text xml:space="preserve" text-anchor="middle" x="427.75" y="-7.25" font-family="Helvetica,sans-Serif" font-size="10.00">VectorSubtract</text>
</a>
</g>
</g>
<!-- Node22&#45;&gt;Node27 -->
<g id="edge39_Node000022_Node000027" class="edge">
<title>Node22&#45;&gt;Node27</title>
<g id="a_edge39_Node000022_Node000027"><a xlink:title=" ">
<path fill="none" stroke="#63b8ff" d="M309.09,-147.24C313.07,-144.68 316.78,-141.74 320,-138.38 354.97,-101.81 319.41,-65.32 356,-30.38 360.79,-25.8 366.55,-22.26 372.68,-19.52"/>
<polygon fill="#63b8ff" stroke="#63b8ff" points="373.66,-22.89 381.83,-16.15 371.24,-16.32 373.66,-22.89"/>
</a>
</g>
</g>
<!-- Node23&#45;&gt;Node8 -->
<g id="edge32_Node000023_Node000008" class="edge">
<title>Node23&#45;&gt;Node8</title>
<g id="a_edge32_Node000023_Node000008"><a xlink:title=" ">
<path fill="none" stroke="#63b8ff" d="M636.88,-208.23C658.25,-213.83 684.54,-220.72 707.28,-226.68"/>
<polygon fill="#63b8ff" stroke="#63b8ff" points="706.1,-229.99 716.67,-229.14 707.88,-223.22 706.1,-229.99"/>
</a>
</g>
</g>
<!-- Node24&#45;&gt;Node8 -->
<g id="edge34_Node000024_Node000008" class="edge">
<title>Node24&#45;&gt;Node8</title>
<g id="a_edge34_Node000024_Node000008"><a xlink:title=" ">
<path fill="none" stroke="#63b8ff" d="M617.99,-160.19C628.81,-165.5 641.92,-172.1 653.5,-178.38 680.73,-193.12 711.18,-211.09 732.43,-223.88"/>
<polygon fill="#63b8ff" stroke="#63b8ff" points="730.41,-226.75 740.78,-228.92 734.03,-220.76 730.41,-226.75"/>
</a>
</g>
</g>
<!-- Node25&#45;&gt;Node8 -->
<g id="edge37_Node000025_Node000008" class="edge">
<title>Node25&#45;&gt;Node8</title>
<g id="a_edge37_Node000025_Node000008"><a xlink:title=" ">
<path fill="none" stroke="#63b8ff" d="M478.98,-89.09C526.54,-91.71 598.64,-100.81 653.5,-130.38 694.13,-152.27 728.5,-195.23 746.35,-220.5"/>
<polygon fill="#63b8ff" stroke="#63b8ff" points="743.36,-222.32 751.9,-228.58 749.13,-218.36 743.36,-222.32"/>
</a>
</g>
</g>
</g>
</svg>
