<?xml version="1.0" encoding="UTF-8" standalone="no"?>
<!DOCTYPE svg PUBLIC "-//W3C//DTD SVG 1.1//EN"
 "http://www.w3.org/Graphics/SVG/1.1/DTD/svg11.dtd">
<!-- Generated by graphviz version 14.1.4 (0)
 -->
<!-- Title: FSoundWaveLoadingBehaviorUtil::FSoundWaveLoadingBehaviorUtil Pages: 1 -->
<!--zoomable 128 -->

<svg id="main" version="1.1" xmlns="http://www.w3.org/2000/svg" xmlns:xlink="http://www.w3.org/1999/xlink" xml:space="preserve" onload="init(evt)">

<style type="text/css"><![CDATA[
.node, .edge {opacity: 0.7;}
.node.selected, .edge.selected {opacity: 1;}
.edge:hover path { stroke: red; }
.edge:hover polygon { stroke: red; fill: red; }
]]></style>

<defs>
  <circle id="rim" cx="0" cy="0" r="7"/>
  <circle id="rim2" cx="0" cy="0" r="3.5"/>
  <g id="zoomPlus">
    <use xlink:href="#rim" fill="#404040"><set attributeName="fill" to="#808080" begin="zoomplus.mouseover" end="zoomplus.mouseout"/></use>
    <path d="M-4,0h8M0,-4v8" fill="none" stroke="white" stroke-width="1.5" pointer-events="none"/>
  </g>
  <g id="zoomMin">
    <use xlink:href="#rim" fill="#404040"><set attributeName="fill" to="#808080" begin="zoomminus.mouseover" end="zoomminus.mouseout"/></use>
    <path d="M-4,0h8" fill="none" stroke="white" stroke-width="1.5" pointer-events="none"/>
  </g>
  <g id="arrowUp" transform="translate(30 24)">
    <use xlink:href="#rim"/>
    <path pointer-events="none" fill="none" stroke="white" stroke-width="1.5" d="M0,-3.0v7 M-2.5,-0.5L0,-3.0L2.5,-0.5"/>
  </g>
  <g id="arrowRight" transform="rotate(90) translate(36 -43)">
    <use xlink:href="#rim"/>
    <path pointer-events="none" fill="none" stroke="white" stroke-width="1.5" d="M0,-3.0v7 M-2.5,-0.5L0,-3.0L2.5,-0.5"/>
  </g>
  <g id="arrowDown" transform="rotate(180) translate(-30 -48)">
    <use xlink:href="#rim"/>
    <path pointer-events="none" fill="none" stroke="white" stroke-width="1.5" d="M0,-3.0v7 M-2.5,-0.5L0,-3.0L2.5,-0.5"/>
  </g>
  <g id="arrowLeft" transform="rotate(270) translate(-36 17)">
    <use xlink:href="#rim"/>
    <path pointer-events="none" fill="none" stroke="white" stroke-width="1.5" d="M0,-3.0v7 M-2.5,-0.5L0,-3.0L2.5,-0.5"/>
  </g>
  <g id="resetDef">
    <use xlink:href="#rim2" fill="#404040"><set attributeName="fill" to="#808080" begin="reset.mouseover" end="reset.mouseout"/></use>
  </g>
</defs>
<script type="application/ecmascript">
var viewWidth = 1051;
var viewHeight = 128;
var sectionId = 'dynsection-2';
</script>
<script type="application/ecmascript" xlink:href="svg.min.js"/>
<svg id="graph" class="graph">
<g id="viewport">
<title>FSoundWaveLoadingBehaviorUtil::FSoundWaveLoadingBehaviorUtil</title>
<!-- Node1 -->
<g id="Node000001" class="node">
<title>Node1</title>
<g id="a_Node000001"><a xlink:title=" ">
<polygon fill="#999999" stroke="#666666" points="202,-59.5 0,-59.5 0,-26 202,-26 202,-59.5"/>
<text xml:space="preserve" text-anchor="start" x="8" y="-46" font-family="Helvetica,sans-Serif" font-size="10.00">FSoundWaveLoadingBehavior</text>
<text xml:space="preserve" text-anchor="middle" x="101" y="-33.25" font-family="Helvetica,sans-Serif" font-size="10.00">Util::FSoundWaveLoadingBehaviorUtil</text>
</a>
</g>
</g>
<!-- Node2 -->
<g id="Node000002" class="node">
<title>Node2</title>
<g id="a_Node000002"><a xlink:href="classFSoundWaveLoadingBehaviorUtil.html#aa80e6b6c4251f38e790528032fd8f246" target="_top" xlink:title=" ">
<polygon fill="white" stroke="#666666" points="433.25,-85.5 238,-85.5 238,-52 433.25,-52 433.25,-85.5"/>
<text xml:space="preserve" text-anchor="start" x="246" y="-72" font-family="Helvetica,sans-Serif" font-size="10.00">FSoundWaveLoadingBehavior</text>
<text xml:space="preserve" text-anchor="middle" x="335.62" y="-59.25" font-family="Helvetica,sans-Serif" font-size="10.00">Util::CacheAllClassLoadingBehaviors</text>
</a>
</g>
</g>
<!-- Node1&#45;&gt;Node2 -->
<g id="edge1_Node000001_Node000002" class="edge">
<title>Node1&#45;&gt;Node2</title>
<g id="a_edge1_Node000001_Node000002"><a xlink:title=" ">
<path fill="none" stroke="#63b8ff" d="M202.34,-53.96C210.28,-54.85 218.32,-55.75 226.31,-56.64"/>
<polygon fill="#63b8ff" stroke="#63b8ff" points="225.73,-60.1 236.06,-57.73 226.51,-53.14 225.73,-60.1"/>
</a>
</g>
</g>
<!-- Node8 -->
<g id="Node000008" class="node">
<title>Node8</title>
<g id="a_Node000008"><a xlink:href="classISoundWaveLoadingBehaviorUtil.html#ab37832cb81c1350ac3bd3f9464fd9116" target="_top" xlink:title=" ">
<polygon fill="white" stroke="#666666" points="414.88,-33.5 256.38,-33.5 256.38,0 414.88,0 414.88,-33.5"/>
<text xml:space="preserve" text-anchor="start" x="264.38" y="-20" font-family="Helvetica,sans-Serif" font-size="10.00">ISoundWaveLoadingBehavior</text>
<text xml:space="preserve" text-anchor="middle" x="335.62" y="-7.25" font-family="Helvetica,sans-Serif" font-size="10.00">Util::Get</text>
</a>
</g>
</g>
<!-- Node1&#45;&gt;Node8 -->
<g id="edge8_Node000001_Node000008" class="edge">
<title>Node1&#45;&gt;Node8</title>
<g id="a_edge8_Node000001_Node000008"><a xlink:title=" ">
<path fill="none" stroke="#63b8ff" d="M202.34,-31.54C216.51,-29.95 231,-28.33 244.95,-26.77"/>
<polygon fill="#63b8ff" stroke="#63b8ff" points="244.95,-30.3 254.5,-25.71 244.17,-23.34 244.95,-30.3"/>
</a>
</g>
</g>
<!-- Node3 -->
<g id="Node000003" class="node">
<title>Node3</title>
<g id="a_Node000003"><a xlink:href="classFSoundWaveLoadingBehaviorUtil.html#abd359922793a065a0cf6fe241abc854c" target="_top" xlink:title=" ">
<polygon fill="white" stroke="#666666" points="630.75,-85.5 469.25,-85.5 469.25,-52 630.75,-52 630.75,-85.5"/>
<text xml:space="preserve" text-anchor="start" x="477.25" y="-72" font-family="Helvetica,sans-Serif" font-size="10.00">FSoundWaveLoadingBehavior</text>
<text xml:space="preserve" text-anchor="middle" x="550" y="-59.25" font-family="Helvetica,sans-Serif" font-size="10.00">Util::LoadAndCacheClass</text>
</a>
</g>
</g>
<!-- Node2&#45;&gt;Node3 -->
<g id="edge2_Node000002_Node000003" class="edge">
<title>Node2&#45;&gt;Node3</title>
<g id="a_edge2_Node000002_Node000003"><a xlink:title=" ">
<path fill="none" stroke="#63b8ff" d="M433.49,-68.75C441.43,-68.75 449.44,-68.75 457.34,-68.75"/>
<polygon fill="#63b8ff" stroke="#63b8ff" points="457.3,-72.25 467.3,-68.75 457.3,-65.25 457.3,-72.25"/>
</a>
</g>
</g>
<!-- Node4 -->
<g id="Node000004" class="node">
<title>Node4</title>
<g id="a_Node000004"><a xlink:href="PawnIterator_8h.html#a60de95b890b12253839b1151d564a100" target="_top" xlink:title=" ">
<polygon fill="white" stroke="#666666" points="766.38,-102.12 728.62,-102.12 728.62,-81.38 766.38,-81.38 766.38,-102.12"/>
<text xml:space="preserve" text-anchor="middle" x="747.5" y="-88.62" font-family="Helvetica,sans-Serif" font-size="10.00">Cast</text>
</a>
</g>
</g>
<!-- Node3&#45;&gt;Node4 -->
<g id="edge3_Node000003_Node000004" class="edge">
<title>Node3&#45;&gt;Node4</title>
<g id="a_edge3_Node000003_Node000004"><a xlink:title=" ">
<path fill="none" stroke="#63b8ff" d="M631.08,-78.17C661.47,-81.75 694.22,-85.6 717.04,-88.28"/>
<polygon fill="#63b8ff" stroke="#63b8ff" points="716.47,-91.74 726.81,-89.43 717.29,-84.79 716.47,-91.74"/>
</a>
</g>
</g>
<!-- Node6 -->
<g id="Node000006" class="node">
<title>Node6</title>
<g id="a_Node000006"><a xlink:href="classFSoundWaveLoadingBehaviorUtil.html#a9a192184d4d7576416768ce4bc138489" target="_top" xlink:title=" ">
<polygon fill="white" stroke="#666666" points="828.25,-63.5 666.75,-63.5 666.75,-30 828.25,-30 828.25,-63.5"/>
<text xml:space="preserve" text-anchor="start" x="674.75" y="-50" font-family="Helvetica,sans-Serif" font-size="10.00">FSoundWaveLoadingBehavior</text>
<text xml:space="preserve" text-anchor="middle" x="747.5" y="-37.25" font-family="Helvetica,sans-Serif" font-size="10.00">Util::WalkClassHierarchy</text>
</a>
</g>
</g>
<!-- Node3&#45;&gt;Node6 -->
<g id="edge6_Node000003_Node000006" class="edge">
<title>Node3&#45;&gt;Node6</title>
<g id="a_edge6_Node000003_Node000006"><a xlink:title=" ">
<path fill="none" stroke="#63b8ff" d="M631.08,-59.74C639.04,-58.84 647.15,-57.93 655.21,-57.02"/>
<polygon fill="#63b8ff" stroke="#63b8ff" points="655.49,-60.51 665.04,-55.92 654.71,-53.56 655.49,-60.51"/>
</a>
</g>
</g>
<!-- Node4&#45;&gt;Node4 -->
<g id="edge4_Node000004_Node000004" class="edge">
<title>Node4&#45;&gt;Node4</title>
<g id="a_edge4_Node000004_Node000004"><a xlink:title=" ">
<path fill="none" stroke="#63b8ff" d="M728.37,-96.63C699.27,-106.53 705.65,-120.12 747.5,-120.12 783.47,-120.12 793.23,-110.09 776.8,-100.98"/>
<polygon fill="#63b8ff" stroke="#63b8ff" points="778.59,-97.94 768.02,-97.23 775.84,-104.37 778.59,-97.94"/>
</a>
</g>
</g>
<!-- Node5 -->
<g id="Node000005" class="node">
<title>Node5</title>
<g id="a_Node000005"><a xlink:href="structFPawnIteratorObject.html#a684316caab3954b0e82449d86f7ff960" target="_top" xlink:title=" ">
<polygon fill="white" stroke="#666666" points="1023.12,-102.12 884.12,-102.12 884.12,-81.38 1023.12,-81.38 1023.12,-102.12"/>
<text xml:space="preserve" text-anchor="middle" x="953.62" y="-88.62" font-family="Helvetica,sans-Serif" font-size="10.00">FPawnIteratorObject::Get</text>
</a>
</g>
</g>
<!-- Node4&#45;&gt;Node5 -->
<g id="edge5_Node000004_Node000005" class="edge">
<title>Node4&#45;&gt;Node5</title>
<g id="a_edge5_Node000004_Node000005"><a xlink:title=" ">
<path fill="none" stroke="#63b8ff" d="M766.61,-91.75C790.41,-91.75 833.76,-91.75 872.62,-91.75"/>
<polygon fill="#63b8ff" stroke="#63b8ff" points="872.46,-95.25 882.46,-91.75 872.46,-88.25 872.46,-95.25"/>
</a>
</g>
</g>
<!-- Node7 -->
<g id="Node000007" class="node">
<title>Node7</title>
<g id="a_Node000007"><a xlink:href="classUSoundWave.html#af055d5ccd4b61b86ceea25c76d4efb35" target="_top" xlink:title=" ">
<polygon fill="white" stroke="#666666" points="1043,-63.5 864.25,-63.5 864.25,-30 1043,-30 1043,-63.5"/>
<text xml:space="preserve" text-anchor="start" x="872.25" y="-50" font-family="Helvetica,sans-Serif" font-size="10.00">USoundWave::GetDefaultLoading</text>
<text xml:space="preserve" text-anchor="middle" x="953.62" y="-37.25" font-family="Helvetica,sans-Serif" font-size="10.00">Behavior</text>
</a>
</g>
</g>
<!-- Node6&#45;&gt;Node7 -->
<g id="edge7_Node000006_Node000007" class="edge">
<title>Node6&#45;&gt;Node7</title>
<g id="a_edge7_Node000006_Node000007"><a xlink:title=" ">
<path fill="none" stroke="#63b8ff" d="M828.59,-46.75C836.49,-46.75 844.56,-46.75 852.63,-46.75"/>
<polygon fill="#63b8ff" stroke="#63b8ff" points="852.48,-50.25 862.48,-46.75 852.48,-43.25 852.48,-50.25"/>
</a>
</g>
</g>
</g>
</svg>

<g id="navigator" transform="translate(0 0)" fill="#404254">
  <rect fill="#f2f5e9" fill-opacity="0.5" stroke="#606060" stroke-width=".5" x="0" y="0" width="60" height="60"/>
  <use id="zoomplus" xlink:href="#zoomPlus" x="17" y="9" onmousedown="handleZoom(evt,'in')"/>
  <use id="zoomminus" xlink:href="#zoomMin" x="42" y="9" onmousedown="handleZoom(evt,'out')"/>
  <use id="reset" xlink:href="#resetDef" x="30" y="36" onmousedown="handleReset()"/>
   <use id="arrowup" xlink:href="#arrowUp" x="0" y="0" onmousedown="handlePan(0,-1)"/>
  <use id="arrowright" xlink:href="#arrowRight" x="0" y="0" onmousedown="handlePan(1,0)"/>
  <use id="arrowdown" xlink:href="#arrowDown" x="0" y="0" onmousedown="handlePan(0,1)"/>
  <use id="arrowleft" xlink:href="#arrowLeft" x="0" y="0" onmousedown="handlePan(-1,0)"/>
</g>
<svg viewBox="0 0 15 15" width="100%" height="30px" preserveAspectRatio="xMaxYMin meet">
 <g id="arrow_out" transform="scale(0.3 0.3)">
  <a xlink:href="classFSoundWaveLoadingBehaviorUtil_ac6d3a8d3580801cf2dfb38db8985723c_cgraph_org.svg" target="_base">
   <rect id="button" ry="5" rx="5" y="6" x="6" height="38" width="38"
        fill="#f2f5e9" fill-opacity="0.5" stroke="#606060" stroke-width="1.0"/>
   <path id="arrow"
     d="M 11.500037,31.436501 C 11.940474,20.09759 22.043105,11.32322 32.158766,21.979434 L 37.068811,17.246167 C 37.068811,17.246167 37.088388,32 37.088388,32 L 22.160133,31.978069 C 22.160133,31.978069 26.997745,27.140456 26.997745,27.140456 C 18.528582,18.264221 13.291696,25.230495 11.500037,31.436501 z"
     style="fill:#404040;"/>
  </a>
 </g>
</svg>

<style type='text/css'>
<![CDATA[
[data-mouse-over-selected='false'] { opacity: 0.7; }
[data-mouse-over-selected='true']  { opacity: 1.0; }
]]>
</style>
<script type="application/ecmascript"><![CDATA[
document.addEventListener('DOMContentLoaded', (event) => {
  highlightEdges();
  highlightAdjacentNodes();
});
]]></script>
</svg>
