<?xml version="1.0" encoding="UTF-8" standalone="no"?>
<!DOCTYPE svg PUBLIC "-//W3C//DTD SVG 1.1//EN"
 "http://www.w3.org/Graphics/SVG/1.1/DTD/svg11.dtd">
<!-- Generated by graphviz version 14.1.4 (0)
 -->
<!-- Title: FConsoleVariableSinkHandle Pages: 1 -->
<svg width="177pt" height="322pt"
 viewBox="0.00 0.00 177.00 322.00" xmlns="http://www.w3.org/2000/svg" xmlns:xlink="http://www.w3.org/1999/xlink">
<g id="graph0" class="graph" transform="scale(1 1) rotate(0) translate(4 318)">
<title>FConsoleVariableSinkHandle</title>
<!-- Node1 -->
<g id="Node000001" class="node">
<title>Node1</title>
<g id="a_Node000001"><a xlink:title=" ">
<polygon fill="#999999" stroke="none" points="168.75,-104.5 0,-104.5 0,0 168.75,0 168.75,-104.5"/>
<text xml:space="preserve" text-anchor="start" x="13.88" y="-90.75" font-family="Helvetica,sans-Serif" font-size="10.00">FConsoleVariableSinkHandle</text>
<text xml:space="preserve" text-anchor="start" x="81.38" y="-74" font-family="Helvetica,sans-Serif" font-size="10.00"> </text>
<text xml:space="preserve" text-anchor="start" x="4" y="-57.25" font-family="Helvetica,sans-Serif" font-size="10.00">+</text>
<text xml:space="preserve" text-anchor="start" x="16.25" y="-57.25" font-family="Helvetica,sans-Serif" font-size="10.00">FConsoleVariableSinkHandle()</text>
<text xml:space="preserve" text-anchor="start" x="4" y="-40.5" font-family="Helvetica,sans-Serif" font-size="10.00">+</text>
<text xml:space="preserve" text-anchor="start" x="16.25" y="-40.5" font-family="Helvetica,sans-Serif" font-size="10.00">FConsoleVariableSinkHandle()</text>
<text xml:space="preserve" text-anchor="start" x="4" y="-23.75" font-family="Helvetica,sans-Serif" font-size="10.00">+</text>
<text xml:space="preserve" text-anchor="start" x="16.25" y="-23.75" font-family="Helvetica,sans-Serif" font-size="10.00">RemoveFromDelegate()</text>
<text xml:space="preserve" text-anchor="start" x="4" y="-7" font-family="Helvetica,sans-Serif" font-size="10.00">+</text>
<text xml:space="preserve" text-anchor="start" x="16.25" y="-7" font-family="Helvetica,sans-Serif" font-size="10.00">HasSameHandle()</text>
<polygon fill="#666666" stroke="#666666" points="0,-85.75 0,-85.75 168.75,-85.75 168.75,-85.75 0,-85.75"/>
<polygon fill="#666666" stroke="#666666" points="0,-69 0,-69 168.75,-69 168.75,-69 0,-69"/>
<polygon fill="none" stroke="#666666" points="0,0 0,-104.5 168.75,-104.5 168.75,0 0,0"/>
</a>
</g>
</g>
<!-- Node2 -->
<g id="Node000002" class="node">
<title>Node2</title>
<g id="a_Node000002"><a xlink:href="$classFDelegateHandle.html" xlink:title=" ">
<polygon fill="white" stroke="none" points="140.62,-314 28.12,-314 28.12,-159.25 140.62,-159.25 140.62,-314"/>
<text xml:space="preserve" text-anchor="start" x="42" y="-300.25" font-family="Helvetica,sans-Serif" font-size="10.00">FDelegateHandle</text>
<text xml:space="preserve" text-anchor="start" x="34.38" y="-283.5" font-family="Helvetica,sans-Serif" font-size="10.00">&#45;</text>
<text xml:space="preserve" text-anchor="start" x="44.38" y="-283.5" font-family="Helvetica,sans-Serif" font-size="10.00">ID</text>
<text xml:space="preserve" text-anchor="start" x="32.12" y="-266.75" font-family="Helvetica,sans-Serif" font-size="10.00">+</text>
<text xml:space="preserve" text-anchor="start" x="44.38" y="-266.75" font-family="Helvetica,sans-Serif" font-size="10.00">FDelegateHandle()</text>
<text xml:space="preserve" text-anchor="start" x="32.12" y="-250" font-family="Helvetica,sans-Serif" font-size="10.00">+</text>
<text xml:space="preserve" text-anchor="start" x="44.38" y="-250" font-family="Helvetica,sans-Serif" font-size="10.00">FDelegateHandle()</text>
<text xml:space="preserve" text-anchor="start" x="32.12" y="-233.25" font-family="Helvetica,sans-Serif" font-size="10.00">+</text>
<text xml:space="preserve" text-anchor="start" x="44.38" y="-233.25" font-family="Helvetica,sans-Serif" font-size="10.00">IsValid()</text>
<text xml:space="preserve" text-anchor="start" x="32.12" y="-216.5" font-family="Helvetica,sans-Serif" font-size="10.00">+</text>
<text xml:space="preserve" text-anchor="start" x="44.38" y="-216.5" font-family="Helvetica,sans-Serif" font-size="10.00">Reset()</text>
<text xml:space="preserve" text-anchor="start" x="32.12" y="-199.75" font-family="Helvetica,sans-Serif" font-size="10.00">+</text>
<text xml:space="preserve" text-anchor="start" x="44.38" y="-199.75" font-family="Helvetica,sans-Serif" font-size="10.00">operator==()</text>
<text xml:space="preserve" text-anchor="start" x="32.12" y="-183" font-family="Helvetica,sans-Serif" font-size="10.00">+</text>
<text xml:space="preserve" text-anchor="start" x="44.38" y="-183" font-family="Helvetica,sans-Serif" font-size="10.00">operator!=()</text>
<text xml:space="preserve" text-anchor="start" x="34.38" y="-166.25" font-family="Helvetica,sans-Serif" font-size="10.00">&#45;</text>
<text xml:space="preserve" text-anchor="start" x="44.38" y="-166.25" font-family="Helvetica,sans-Serif" font-size="10.00">GenerateNewID()</text>
<polygon fill="#666666" stroke="#666666" points="28.12,-295.25 28.12,-295.25 140.62,-295.25 140.62,-295.25 28.12,-295.25"/>
<polygon fill="#666666" stroke="#666666" points="28.12,-278.5 28.12,-278.5 42.38,-278.5 42.38,-278.5 28.12,-278.5"/>
<polygon fill="#666666" stroke="#666666" points="42.38,-278.5 42.38,-278.5 140.62,-278.5 140.62,-278.5 42.38,-278.5"/>
<polygon fill="none" stroke="#666666" points="28.12,-159.25 28.12,-314 140.62,-314 140.62,-159.25 28.12,-159.25"/>
</a>
</g>
</g>
<!-- Node2&#45;&gt;Node1 -->
<g id="edge1_Node000001_Node000002" class="edge">
<title>Node2&#45;&gt;Node1</title>
<g id="a_edge1_Node000001_Node000002"><a xlink:title=" ">
<path fill="none" stroke="#63b8ff" d="M84.38,-159.34C84.38,-145.28 84.38,-130.74 84.38,-117.1"/>
<polygon fill="none" stroke="#63b8ff" points="84.38,-117.25 80.38,-111.25 84.38,-105.25 88.38,-111.25 84.38,-117.25"/>
</a>
</g>
<text xml:space="preserve" text-anchor="start" x="87.38" y="-128.5" font-family="Helvetica,sans-Serif" font-size="10.00" fill="grey">&#45;Handle</text>
</g>
</g>
</svg>
