<?xml version="1.0" encoding="UTF-8" standalone="no"?>
<!DOCTYPE svg PUBLIC "-//W3C//DTD SVG 1.1//EN"
 "http://www.w3.org/Graphics/SVG/1.1/DTD/svg11.dtd">
<!-- Generated by graphviz version 14.1.4 (0)
 -->
<!-- Title: UWorld::DECLARE_EVENT Pages: 1 -->
<svg width="457pt" height="66pt"
 viewBox="0.00 0.00 457.00 66.00" xmlns="http://www.w3.org/2000/svg" xmlns:xlink="http://www.w3.org/1999/xlink">

<svg id="main" version="1.1" xmlns="http://www.w3.org/2000/svg" xmlns:xlink="http://www.w3.org/1999/xlink" xml:space="preserve">

<style type="text/css"><![CDATA[
.node, .edge {opacity: 0.7;}
.node.selected, .edge.selected {opacity: 1;}
.edge:hover path { stroke: red; }
.edge:hover polygon { stroke: red; fill: red; }
]]></style>
<script type="application/ecmascript" xlink:href="svg.min.js"/>
<svg id="graph" class="graph">
<g id="graph0" class="graph" transform="scale(1 1) rotate(0) translate(4 61.75)">
<title>UWorld::DECLARE_EVENT</title>
<!-- Node1 -->
<g id="Node000001" class="node">
<title>Node1</title>
<g id="a_Node000001"><a xlink:title=" ">
<polygon fill="#999999" stroke="#666666" points="141.25,-20.75 0,-20.75 0,0 141.25,0 141.25,-20.75"/>
<text xml:space="preserve" text-anchor="middle" x="70.62" y="-7.25" font-family="Helvetica,sans-Serif" font-size="10.00">UWorld::DECLARE_EVENT</text>
</a>
</g>
</g>
<!-- Node2 -->
<g id="Node000002" class="node">
<title>Node2</title>
<g id="a_Node000002"><a xlink:href="classUWorld.html#a428bceec639e9cb10a0dc700ef01d8bb" target="_top" xlink:title=" ">
<polygon fill="white" stroke="#666666" points="318.5,-39.75 177.25,-39.75 177.25,-19 318.5,-19 318.5,-39.75"/>
<text xml:space="preserve" text-anchor="middle" x="247.88" y="-26.25" font-family="Helvetica,sans-Serif" font-size="10.00">UWorld::DECLARE_EVENT</text>
</a>
</g>
</g>
<!-- Node1&#45;&gt;Node2 -->
<g id="edge1_Node000001_Node000002" class="edge">
<title>Node1&#45;&gt;Node2</title>
<g id="a_edge1_Node000001_Node000002"><a xlink:title=" ">
<path fill="none" stroke="#63b8ff" d="M141.64,-17.97C149.55,-18.82 157.65,-19.7 165.69,-20.57"/>
<polygon fill="#63b8ff" stroke="#63b8ff" points="165.14,-24.03 175.46,-21.63 165.9,-17.08 165.14,-24.03"/>
</a>
</g>
</g>
<!-- Node3 -->
<g id="Node000003" class="node">
<title>Node3</title>
<g id="a_Node000003"><a xlink:href="classUWorld.html#a980bb4faeb553c37dc3818b9c29030b2" target="_top" xlink:title=" ">
<polygon fill="white" stroke="#666666" points="448.5,-20.75 354.5,-20.75 354.5,0 448.5,0 448.5,-20.75"/>
<text xml:space="preserve" text-anchor="middle" x="401.5" y="-7.25" font-family="Helvetica,sans-Serif" font-size="10.00">UWorld::UWorld</text>
</a>
</g>
</g>
<!-- Node1&#45;&gt;Node3 -->
<g id="edge4_Node000001_Node000003" class="edge">
<title>Node1&#45;&gt;Node3</title>
<g id="a_edge4_Node000001_Node000003"><a xlink:title=" ">
<path fill="none" stroke="#63b8ff" d="M141.37,-10.38C201.35,-10.38 286.82,-10.38 342.95,-10.38"/>
<polygon fill="#63b8ff" stroke="#63b8ff" points="342.61,-13.88 352.61,-10.38 342.61,-6.88 342.61,-13.88"/>
</a>
</g>
</g>
<!-- Node2&#45;&gt;Node2 -->
<g id="edge2_Node000002_Node000002" class="edge">
<title>Node2&#45;&gt;Node2</title>
<g id="a_edge2_Node000002_Node000002"><a xlink:title=" ">
<path fill="none" stroke="#63b8ff" d="M223.12,-40.15C213.22,-48.81 221.47,-57.75 247.88,-57.75 262.31,-57.75 271.33,-55.08 274.91,-51.24"/>
<polygon fill="#63b8ff" stroke="#63b8ff" points="278.37,-50.72 272.93,-41.63 271.52,-52.13 278.37,-50.72"/>
</a>
</g>
</g>
<!-- Node2&#45;&gt;Node3 -->
<g id="edge3_Node000002_Node000003" class="edge">
<title>Node2&#45;&gt;Node3</title>
<g id="a_edge3_Node000002_Node000003"><a xlink:title=" ">
<path fill="none" stroke="#63b8ff" d="M318.92,-20.6C326.95,-19.59 335.06,-18.58 342.9,-17.59"/>
<polygon fill="#63b8ff" stroke="#63b8ff" points="343.16,-21.09 352.64,-16.37 342.29,-14.14 343.16,-21.09"/>
</a>
</g>
</g>
</g>
</svg>
</svg>

<style type='text/css'>
<![CDATA[
[data-mouse-over-selected='false'] { opacity: 0.7; }
[data-mouse-over-selected='true']  { opacity: 1.0; }
]]>
</style>
<script type="application/ecmascript"><![CDATA[
document.addEventListener('DOMContentLoaded', (event) => {
  highlightEdges();
  highlightAdjacentNodes();
});
]]></script>
</svg>
