<?xml version="1.0" encoding="UTF-8" standalone="no"?>
<!DOCTYPE svg PUBLIC "-//W3C//DTD SVG 1.1//EN"
 "http://www.w3.org/Graphics/SVG/1.1/DTD/svg11.dtd">
<!-- Generated by graphviz version 14.1.4 (0)
 -->
<!-- Title: UInstancedSkinnedMeshComponent::~UInstancedSkinnedMeshComponent Pages: 1 -->
<svg width="449pt" height="60pt"
 viewBox="0.00 0.00 449.00 60.00" xmlns="http://www.w3.org/2000/svg" xmlns:xlink="http://www.w3.org/1999/xlink">
<g id="graph0" class="graph" transform="scale(1 1) rotate(0) translate(4 55.5)">
<title>UInstancedSkinnedMeshComponent::~UInstancedSkinnedMeshComponent</title>
<!-- Node1 -->
<g id="Node000001" class="node">
<title>Node1</title>
<g id="a_Node000001"><a xlink:title=" ">
<polygon fill="#999999" stroke="#666666" points="206.5,-33.5 0,-33.5 0,0 206.5,0 206.5,-33.5"/>
<text xml:space="preserve" text-anchor="start" x="8" y="-20" font-family="Helvetica,sans-Serif" font-size="10.00">UInstancedSkinnedMeshComponent</text>
<text xml:space="preserve" text-anchor="middle" x="103.25" y="-7.25" font-family="Helvetica,sans-Serif" font-size="10.00">::~UInstancedSkinnedMeshComponent</text>
</a>
</g>
</g>
<!-- Node2 -->
<g id="Node000002" class="node">
<title>Node2</title>
<g id="a_Node000002"><a xlink:href="classUInstancedSkinnedMeshComponent.html#a12b1fb530f656f324d8b8db0d176b1b5" target="_top" xlink:title=" ">
<polygon fill="white" stroke="#666666" points="440.75,-33.5 242.5,-33.5 242.5,0 440.75,0 440.75,-33.5"/>
<text xml:space="preserve" text-anchor="start" x="250.5" y="-20" font-family="Helvetica,sans-Serif" font-size="10.00">UInstancedSkinnedMeshComponent</text>
<text xml:space="preserve" text-anchor="middle" x="341.62" y="-7.25" font-family="Helvetica,sans-Serif" font-size="10.00">::UInstancedSkinnedMeshComponent</text>
</a>
</g>
</g>
<!-- Node1&#45;&gt;Node2 -->
<g id="edge1_Node000001_Node000002" class="edge">
<title>Node1&#45;&gt;Node2</title>
<g id="a_edge1_Node000001_Node000002"><a xlink:title=" ">
<path fill="none" stroke="#63b8ff" d="M206.9,-16.75C214.86,-16.75 222.91,-16.75 230.92,-16.75"/>
<polygon fill="#63b8ff" stroke="#63b8ff" points="230.67,-20.25 240.67,-16.75 230.67,-13.25 230.67,-20.25"/>
</a>
</g>
</g>
<!-- Node2&#45;&gt;Node2 -->
<g id="edge2_Node000002_Node000002" class="edge">
<title>Node2&#45;&gt;Node2</title>
<g id="a_edge2_Node000002_Node000002"><a xlink:title=" ">
<path fill="none" stroke="#63b8ff" d="M298.77,-33.91C291.49,-43.12 305.78,-51.5 341.62,-51.5 361.79,-51.5 375.13,-48.85 381.65,-44.89"/>
<polygon fill="#63b8ff" stroke="#63b8ff" points="384.99,-45.94 384.1,-35.38 378.22,-44.19 384.99,-45.94"/>
</a>
</g>
</g>
</g>
</svg>
