<?xml version="1.0" encoding="UTF-8" standalone="no"?>
<!DOCTYPE svg PUBLIC "-//W3C//DTD SVG 1.1//EN"
 "http://www.w3.org/Graphics/SVG/1.1/DTD/svg11.dtd">
<!-- Generated by graphviz version 14.1.4 (0)
 -->
<!-- Title: USoundSubmixWithParentBase Pages: 1 -->
<svg width="168pt" height="678pt"
 viewBox="0.00 0.00 168.00 678.00" xmlns="http://www.w3.org/2000/svg" xmlns:xlink="http://www.w3.org/1999/xlink">
<g id="graph0" class="graph" transform="scale(1 1) rotate(0) translate(4 674.25)">
<title>USoundSubmixWithParentBase</title>
<!-- Node1 -->
<g id="Node000001" class="node">
<title>Node1</title>
<g id="a_Node000001"><a xlink:title=" ">
<polygon fill="#999999" stroke="none" points="160.25,-255.25 0,-255.25 0,0 160.25,0 160.25,-255.25"/>
<text xml:space="preserve" text-anchor="start" x="4" y="-241.5" font-family="Helvetica,sans-Serif" font-size="10.00">USoundSubmixWithParentBase</text>
<text xml:space="preserve" text-anchor="start" x="7.69" y="-224.75" font-family="Helvetica,sans-Serif" font-size="10.00">+</text>
<text xml:space="preserve" text-anchor="start" x="23.62" y="-224.75" font-family="Helvetica,sans-Serif" font-size="10.00">ParentSubmix</text>
<text xml:space="preserve" text-anchor="start" x="7.69" y="-208" font-family="Helvetica,sans-Serif" font-size="10.00">+</text>
<text xml:space="preserve" text-anchor="start" x="23.62" y="-208" font-family="Helvetica,sans-Serif" font-size="10.00">DynamicParentSubmix</text>
<text xml:space="preserve" text-anchor="start" x="7.69" y="-191.25" font-family="Helvetica,sans-Serif" font-size="10.00">#</text>
<text xml:space="preserve" text-anchor="start" x="23.62" y="-191.25" font-family="Helvetica,sans-Serif" font-size="10.00">bIsDynamic</text>
<text xml:space="preserve" text-anchor="start" x="7.69" y="-174.5" font-family="Helvetica,sans-Serif" font-size="10.00">+</text>
<text xml:space="preserve" text-anchor="start" x="23.62" y="-174.5" font-family="Helvetica,sans-Serif" font-size="10.00">GetParent()</text>
<text xml:space="preserve" text-anchor="start" x="7.69" y="-157.75" font-family="Helvetica,sans-Serif" font-size="10.00">+</text>
<text xml:space="preserve" text-anchor="start" x="23.62" y="-157.75" font-family="Helvetica,sans-Serif" font-size="10.00">SetParentSubmix()</text>
<text xml:space="preserve" text-anchor="start" x="7.69" y="-141" font-family="Helvetica,sans-Serif" font-size="10.00">+</text>
<text xml:space="preserve" text-anchor="start" x="23.62" y="-141" font-family="Helvetica,sans-Serif" font-size="10.00">DynamicConnect()</text>
<text xml:space="preserve" text-anchor="start" x="7.69" y="-124.25" font-family="Helvetica,sans-Serif" font-size="10.00">+</text>
<text xml:space="preserve" text-anchor="start" x="23.62" y="-124.25" font-family="Helvetica,sans-Serif" font-size="10.00">DynamicConnect()</text>
<text xml:space="preserve" text-anchor="start" x="7.69" y="-107.5" font-family="Helvetica,sans-Serif" font-size="10.00">+</text>
<text xml:space="preserve" text-anchor="start" x="23.62" y="-107.5" font-family="Helvetica,sans-Serif" font-size="10.00">DynamicDisconnect()</text>
<text xml:space="preserve" text-anchor="start" x="7.69" y="-90.75" font-family="Helvetica,sans-Serif" font-size="10.00">+</text>
<text xml:space="preserve" text-anchor="start" x="23.62" y="-90.75" font-family="Helvetica,sans-Serif" font-size="10.00">DynamicDisconnect()</text>
<text xml:space="preserve" text-anchor="start" x="7.69" y="-74" font-family="Helvetica,sans-Serif" font-size="10.00">+</text>
<text xml:space="preserve" text-anchor="start" x="23.62" y="-74" font-family="Helvetica,sans-Serif" font-size="10.00">IsDynamic()</text>
<text xml:space="preserve" text-anchor="start" x="7.69" y="-57.25" font-family="Helvetica,sans-Serif" font-size="10.00">+</text>
<text xml:space="preserve" text-anchor="start" x="23.62" y="-57.25" font-family="Helvetica,sans-Serif" font-size="10.00">FindDynamicAncestor()</text>
<text xml:space="preserve" text-anchor="start" x="7.69" y="-40.5" font-family="Helvetica,sans-Serif" font-size="10.00">#</text>
<text xml:space="preserve" text-anchor="start" x="23.62" y="-40.5" font-family="Helvetica,sans-Serif" font-size="10.00">FindDynamicAncestor()</text>
<text xml:space="preserve" text-anchor="start" x="7.69" y="-23.75" font-family="Helvetica,sans-Serif" font-size="10.00">#</text>
<text xml:space="preserve" text-anchor="start" x="23.62" y="-23.75" font-family="Helvetica,sans-Serif" font-size="10.00">PostEditChangeProperty()</text>
<text xml:space="preserve" text-anchor="start" x="7.69" y="-7" font-family="Helvetica,sans-Serif" font-size="10.00">#</text>
<text xml:space="preserve" text-anchor="start" x="23.62" y="-7" font-family="Helvetica,sans-Serif" font-size="10.00">PostDuplicate()</text>
<polygon fill="#666666" stroke="#666666" points="0,-236.5 0,-236.5 160.25,-236.5 160.25,-236.5 0,-236.5"/>
<polygon fill="#666666" stroke="#666666" points="0,-186.25 0,-186.25 21.62,-186.25 21.62,-186.25 0,-186.25"/>
<polygon fill="#666666" stroke="#666666" points="21.62,-186.25 21.62,-186.25 160.25,-186.25 160.25,-186.25 21.62,-186.25"/>
<polygon fill="none" stroke="#666666" points="0,0 0,-255.25 160.25,-255.25 160.25,0 0,0"/>
</a>
</g>
</g>
<!-- Node2 -->
<g id="Node000002" class="node">
<title>Node2</title>
<g id="a_Node000002"><a xlink:href="classUSoundSubmixBase.html" target="_top" xlink:title=" ">
<polygon fill="white" stroke="none" points="152.88,-580 7.38,-580 7.38,-291.25 152.88,-291.25 152.88,-580"/>
<text xml:space="preserve" text-anchor="start" x="31" y="-566.25" font-family="Helvetica,sans-Serif" font-size="10.00">USoundSubmixBase</text>
<text xml:space="preserve" text-anchor="start" x="11.38" y="-549.5" font-family="Helvetica,sans-Serif" font-size="10.00">+</text>
<text xml:space="preserve" text-anchor="start" x="23.62" y="-549.5" font-family="Helvetica,sans-Serif" font-size="10.00">bAutoDisable</text>
<text xml:space="preserve" text-anchor="start" x="11.38" y="-532.75" font-family="Helvetica,sans-Serif" font-size="10.00">+</text>
<text xml:space="preserve" text-anchor="start" x="23.62" y="-532.75" font-family="Helvetica,sans-Serif" font-size="10.00">AutoDisableTime</text>
<text xml:space="preserve" text-anchor="start" x="11.38" y="-516" font-family="Helvetica,sans-Serif" font-size="10.00">+</text>
<text xml:space="preserve" text-anchor="start" x="23.62" y="-516" font-family="Helvetica,sans-Serif" font-size="10.00">ChildSubmixes</text>
<text xml:space="preserve" text-anchor="start" x="11.38" y="-499.25" font-family="Helvetica,sans-Serif" font-size="10.00">+</text>
<text xml:space="preserve" text-anchor="start" x="23.62" y="-499.25" font-family="Helvetica,sans-Serif" font-size="10.00">DynamicChildSubmixes</text>
<text xml:space="preserve" text-anchor="start" x="13.62" y="-482.5" font-family="Helvetica,sans-Serif" font-size="10.00">&#45;</text>
<text xml:space="preserve" text-anchor="start" x="23.62" y="-482.5" font-family="Helvetica,sans-Serif" font-size="10.00">BackupChildSubmixes</text>
<text xml:space="preserve" text-anchor="start" x="11.38" y="-465.75" font-family="Helvetica,sans-Serif" font-size="10.00">+</text>
<text xml:space="preserve" text-anchor="start" x="23.62" y="-465.75" font-family="Helvetica,sans-Serif" font-size="10.00">DynamicConnect()</text>
<text xml:space="preserve" text-anchor="start" x="11.38" y="-449" font-family="Helvetica,sans-Serif" font-size="10.00">+</text>
<text xml:space="preserve" text-anchor="start" x="23.62" y="-449" font-family="Helvetica,sans-Serif" font-size="10.00">DynamicDisconnect()</text>
<text xml:space="preserve" text-anchor="start" x="11.38" y="-432.25" font-family="Helvetica,sans-Serif" font-size="10.00">+</text>
<text xml:space="preserve" text-anchor="start" x="23.62" y="-432.25" font-family="Helvetica,sans-Serif" font-size="10.00">FindDynamicAncestor()</text>
<text xml:space="preserve" text-anchor="start" x="11.38" y="-415.5" font-family="Helvetica,sans-Serif" font-size="10.00">+</text>
<text xml:space="preserve" text-anchor="start" x="23.62" y="-415.5" font-family="Helvetica,sans-Serif" font-size="10.00">IsDynamic()</text>
<text xml:space="preserve" text-anchor="start" x="11.38" y="-398.75" font-family="Helvetica,sans-Serif" font-size="10.00">+</text>
<text xml:space="preserve" text-anchor="start" x="23.62" y="-398.75" font-family="Helvetica,sans-Serif" font-size="10.00">AddReferencedObjects()</text>
<text xml:space="preserve" text-anchor="start" x="11.38" y="-382" font-family="Helvetica,sans-Serif" font-size="10.00">#</text>
<text xml:space="preserve" text-anchor="start" x="23.62" y="-382" font-family="Helvetica,sans-Serif" font-size="10.00">GetDesc()</text>
<text xml:space="preserve" text-anchor="start" x="11.38" y="-365.25" font-family="Helvetica,sans-Serif" font-size="10.00">#</text>
<text xml:space="preserve" text-anchor="start" x="23.62" y="-365.25" font-family="Helvetica,sans-Serif" font-size="10.00">BeginDestroy()</text>
<text xml:space="preserve" text-anchor="start" x="11.38" y="-348.5" font-family="Helvetica,sans-Serif" font-size="10.00">#</text>
<text xml:space="preserve" text-anchor="start" x="23.62" y="-348.5" font-family="Helvetica,sans-Serif" font-size="10.00">PostLoad()</text>
<text xml:space="preserve" text-anchor="start" x="11.38" y="-331.75" font-family="Helvetica,sans-Serif" font-size="10.00">#</text>
<text xml:space="preserve" text-anchor="start" x="23.62" y="-331.75" font-family="Helvetica,sans-Serif" font-size="10.00">PostDuplicate()</text>
<text xml:space="preserve" text-anchor="start" x="11.38" y="-315" font-family="Helvetica,sans-Serif" font-size="10.00">#</text>
<text xml:space="preserve" text-anchor="start" x="23.62" y="-315" font-family="Helvetica,sans-Serif" font-size="10.00">PreEditChange()</text>
<text xml:space="preserve" text-anchor="start" x="11.38" y="-298.25" font-family="Helvetica,sans-Serif" font-size="10.00">#</text>
<text xml:space="preserve" text-anchor="start" x="23.62" y="-298.25" font-family="Helvetica,sans-Serif" font-size="10.00">PostEditChangeProperty()</text>
<polygon fill="#666666" stroke="#666666" points="7.38,-561.25 7.38,-561.25 152.88,-561.25 152.88,-561.25 7.38,-561.25"/>
<polygon fill="#666666" stroke="#666666" points="7.38,-477.5 7.38,-477.5 21.62,-477.5 21.62,-477.5 7.38,-477.5"/>
<polygon fill="#666666" stroke="#666666" points="21.62,-477.5 21.62,-477.5 152.88,-477.5 152.88,-477.5 21.62,-477.5"/>
<polygon fill="none" stroke="#666666" points="7.38,-291.25 7.38,-580 152.88,-580 152.88,-291.25 7.38,-291.25"/>
</a>
</g>
</g>
<!-- Node2&#45;&gt;Node1 -->
<g id="edge1_Node000001_Node000002" class="edge">
<title>Node2&#45;&gt;Node1</title>
<g id="a_edge1_Node000001_Node000002"><a xlink:title=" ">
<path fill="none" stroke="#63b8ff" d="M80.12,-280.09C80.12,-271.73 80.12,-263.38 80.12,-255.14"/>
<polygon fill="none" stroke="#63b8ff" points="76.63,-279.97 80.13,-289.97 83.63,-279.97 76.63,-279.97"/>
</a>
</g>
</g>
<!-- Node3 -->
<g id="Node000003" class="node">
<title>Node3</title>
<g id="a_Node000003"><a xlink:title=" ">
<polygon fill="white" stroke="none" points="103.62,-670.25 56.62,-670.25 56.62,-616 103.62,-616 103.62,-670.25"/>
<text xml:space="preserve" text-anchor="start" x="60.62" y="-656.5" font-family="Helvetica,sans-Serif" font-size="10.00">UObject</text>
<text xml:space="preserve" text-anchor="start" x="77.12" y="-639.75" font-family="Helvetica,sans-Serif" font-size="10.00"> </text>
<text xml:space="preserve" text-anchor="start" x="77.12" y="-623" font-family="Helvetica,sans-Serif" font-size="10.00"> </text>
<polygon fill="#666666" stroke="#666666" points="56.62,-651.5 56.62,-651.5 103.62,-651.5 103.62,-651.5 56.62,-651.5"/>
<polygon fill="#666666" stroke="#666666" points="56.62,-634.75 56.62,-634.75 103.62,-634.75 103.62,-634.75 56.62,-634.75"/>
<polygon fill="none" stroke="#666666" points="56.62,-616 56.62,-670.25 103.62,-670.25 103.62,-616 56.62,-616"/>
</a>
</g>
</g>
<!-- Node3&#45;&gt;Node2 -->
<g id="edge2_Node000002_Node000003" class="edge">
<title>Node3&#45;&gt;Node2</title>
<g id="a_edge2_Node000002_Node000003"><a xlink:title=" ">
<path fill="none" stroke="#63b8ff" d="M80.12,-604.85C80.12,-597.24 80.12,-588.8 80.12,-579.87"/>
<polygon fill="none" stroke="#63b8ff" points="76.63,-604.58 80.13,-614.58 83.63,-604.58 76.63,-604.58"/>
</a>
</g>
</g>
</g>
</svg>
