<?xml version="1.0" encoding="UTF-8" standalone="no"?>
<!DOCTYPE svg PUBLIC "-//W3C//DTD SVG 1.1//EN"
 "http://www.w3.org/Graphics/SVG/1.1/DTD/svg11.dtd">
<!-- Generated by graphviz version 14.1.4 (0)
 -->
<!-- Title: USoundNodeModulatorContinuous Pages: 1 -->
<svg width="372pt" height="547pt"
 viewBox="0.00 0.00 372.00 547.00" xmlns="http://www.w3.org/2000/svg" xmlns:xlink="http://www.w3.org/1999/xlink">
<g id="graph0" class="graph" transform="scale(1 1) rotate(0) translate(4 543.25)">
<title>USoundNodeModulatorContinuous</title>
<!-- Node1 -->
<g id="Node000001" class="node">
<title>Node1</title>
<g id="a_Node000001"><a xlink:title=" ">
<polygon fill="#999999" stroke="none" points="268.12,-54.25 92.88,-54.25 92.88,0 268.12,0 268.12,-54.25"/>
<text xml:space="preserve" text-anchor="start" x="96.88" y="-40.5" font-family="Helvetica,sans-Serif" font-size="10.00">USoundNodeModulatorContinuous</text>
<text xml:space="preserve" text-anchor="start" x="177.5" y="-23.75" font-family="Helvetica,sans-Serif" font-size="10.00"> </text>
<text xml:space="preserve" text-anchor="start" x="119.31" y="-7" font-family="Helvetica,sans-Serif" font-size="10.00">+</text>
<text xml:space="preserve" text-anchor="start" x="154" y="-7" font-family="Helvetica,sans-Serif" font-size="10.00">ParseNodes()</text>
<polygon fill="#666666" stroke="#666666" points="92.88,-35.5 92.88,-35.5 268.12,-35.5 268.12,-35.5 92.88,-35.5"/>
<polygon fill="#666666" stroke="#666666" points="92.88,-18.75 92.88,-18.75 268.12,-18.75 268.12,-18.75 92.88,-18.75"/>
<polygon fill="none" stroke="#666666" points="92.88,0 92.88,-54.25 268.12,-54.25 268.12,0 92.88,0"/>
</a>
</g>
</g>
<!-- Node2 -->
<g id="Node000002" class="node">
<title>Node2</title>
<g id="a_Node000002"><a xlink:href="classUSoundNode.html" target="_top" xlink:title=" ">
<polygon fill="white" stroke="none" points="171,-448 0,-448 0,-125.75 171,-125.75 171,-448"/>
<text xml:space="preserve" text-anchor="start" x="54" y="-434.25" font-family="Helvetica,sans-Serif" font-size="10.00">USoundNode</text>
<text xml:space="preserve" text-anchor="start" x="6.25" y="-417.5" font-family="Helvetica,sans-Serif" font-size="10.00">&#45;</text>
<text xml:space="preserve" text-anchor="start" x="16.25" y="-417.5" font-family="Helvetica,sans-Serif" font-size="10.00">ChildNodes</text>
<text xml:space="preserve" text-anchor="start" x="6.25" y="-400.75" font-family="Helvetica,sans-Serif" font-size="10.00">&#45;</text>
<text xml:space="preserve" text-anchor="start" x="16.25" y="-400.75" font-family="Helvetica,sans-Serif" font-size="10.00">RandomStream</text>
<text xml:space="preserve" text-anchor="start" x="6.25" y="-384" font-family="Helvetica,sans-Serif" font-size="10.00">&#45;</text>
<text xml:space="preserve" text-anchor="start" x="16.25" y="-384" font-family="Helvetica,sans-Serif" font-size="10.00">bIsRetainingAudio</text>
<text xml:space="preserve" text-anchor="start" x="6.25" y="-367.25" font-family="Helvetica,sans-Serif" font-size="10.00">&#45;</text>
<text xml:space="preserve" text-anchor="start" x="16.25" y="-367.25" font-family="Helvetica,sans-Serif" font-size="10.00">MAX_ALLOWED_CHILD_NODES</text>
<text xml:space="preserve" text-anchor="start" x="4" y="-350.5" font-family="Helvetica,sans-Serif" font-size="10.00">+</text>
<text xml:space="preserve" text-anchor="start" x="16.25" y="-350.5" font-family="Helvetica,sans-Serif" font-size="10.00">PostEditChangeProperty()</text>
<text xml:space="preserve" text-anchor="start" x="4" y="-333.75" font-family="Helvetica,sans-Serif" font-size="10.00">+</text>
<text xml:space="preserve" text-anchor="start" x="16.25" y="-333.75" font-family="Helvetica,sans-Serif" font-size="10.00">PostLoad()</text>
<text xml:space="preserve" text-anchor="start" x="4" y="-317" font-family="Helvetica,sans-Serif" font-size="10.00">+</text>
<text xml:space="preserve" text-anchor="start" x="16.25" y="-317" font-family="Helvetica,sans-Serif" font-size="10.00">Serialize()</text>
<text xml:space="preserve" text-anchor="start" x="4" y="-300.25" font-family="Helvetica,sans-Serif" font-size="10.00">+</text>
<text xml:space="preserve" text-anchor="start" x="16.25" y="-300.25" font-family="Helvetica,sans-Serif" font-size="10.00">CanBeClusterRoot()</text>
<text xml:space="preserve" text-anchor="start" x="4" y="-283.5" font-family="Helvetica,sans-Serif" font-size="10.00">+</text>
<text xml:space="preserve" text-anchor="start" x="16.25" y="-283.5" font-family="Helvetica,sans-Serif" font-size="10.00">CanBeInCluster()</text>
<text xml:space="preserve" text-anchor="start" x="4" y="-266.75" font-family="Helvetica,sans-Serif" font-size="10.00">+</text>
<text xml:space="preserve" text-anchor="start" x="16.25" y="-266.75" font-family="Helvetica,sans-Serif" font-size="10.00">BeginDestroy()</text>
<text xml:space="preserve" text-anchor="start" x="4" y="-250" font-family="Helvetica,sans-Serif" font-size="10.00">+</text>
<text xml:space="preserve" text-anchor="start" x="16.25" y="-250" font-family="Helvetica,sans-Serif" font-size="10.00">NotifyWaveInstanceFinished()</text>
<text xml:space="preserve" text-anchor="start" x="4" y="-233.25" font-family="Helvetica,sans-Serif" font-size="10.00">+</text>
<text xml:space="preserve" text-anchor="start" x="16.25" y="-233.25" font-family="Helvetica,sans-Serif" font-size="10.00">GetMaxDistance()</text>
<text xml:space="preserve" text-anchor="start" x="4" y="-216.5" font-family="Helvetica,sans-Serif" font-size="10.00">+</text>
<text xml:space="preserve" text-anchor="start" x="16.25" y="-216.5" font-family="Helvetica,sans-Serif" font-size="10.00">SupportsSubtitles()</text>
<text xml:space="preserve" text-anchor="start" x="4" y="-199.75" font-family="Helvetica,sans-Serif" font-size="10.00">+</text>
<text xml:space="preserve" text-anchor="start" x="16.25" y="-199.75" font-family="Helvetica,sans-Serif" font-size="10.00">GetDuration()</text>
<text xml:space="preserve" text-anchor="start" x="16.25" y="-183" font-family="Helvetica,sans-Serif" font-size="10.00">and 24 more...</text>
<text xml:space="preserve" text-anchor="start" x="4" y="-166.25" font-family="Helvetica,sans-Serif" font-size="10.00">+</text>
<text xml:space="preserve" text-anchor="start" x="16.25" y="-166.25" font-family="Helvetica,sans-Serif" font-size="10.00">AddReferencedObjects()</text>
<text xml:space="preserve" text-anchor="start" x="4" y="-149.5" font-family="Helvetica,sans-Serif" font-size="10.00">+</text>
<text xml:space="preserve" text-anchor="start" x="16.25" y="-149.5" font-family="Helvetica,sans-Serif" font-size="10.00">GetNodeWaveInstanceHash()</text>
<text xml:space="preserve" text-anchor="start" x="4" y="-132.75" font-family="Helvetica,sans-Serif" font-size="10.00">+</text>
<text xml:space="preserve" text-anchor="start" x="16.25" y="-132.75" font-family="Helvetica,sans-Serif" font-size="10.00">GetNodeWaveInstanceHash()</text>
<polygon fill="#666666" stroke="#666666" points="0,-429.25 0,-429.25 171,-429.25 171,-429.25 0,-429.25"/>
<polygon fill="#666666" stroke="#666666" points="0,-362.25 0,-362.25 14.25,-362.25 14.25,-362.25 0,-362.25"/>
<polygon fill="#666666" stroke="#666666" points="14.25,-362.25 14.25,-362.25 171,-362.25 171,-362.25 14.25,-362.25"/>
<polygon fill="none" stroke="#666666" points="0,-125.75 0,-448 171,-448 171,-125.75 0,-125.75"/>
</a>
</g>
</g>
<!-- Node2&#45;&gt;Node1 -->
<g id="edge1_Node000001_Node000002" class="edge">
<title>Node2&#45;&gt;Node1</title>
<g id="a_edge1_Node000001_Node000002"><a xlink:title=" ">
<path fill="none" stroke="#63b8ff" d="M148.39,-115.25C157.15,-91.47 165.13,-69.81 170.95,-54.04"/>
<polygon fill="none" stroke="#63b8ff" points="145.15,-113.92 144.97,-124.52 151.71,-116.34 145.15,-113.92"/>
</a>
</g>
</g>
<!-- Node3 -->
<g id="Node000003" class="node">
<title>Node3</title>
<g id="a_Node000003"><a xlink:title=" ">
<polygon fill="white" stroke="none" points="109,-539.25 62,-539.25 62,-485 109,-485 109,-539.25"/>
<text xml:space="preserve" text-anchor="start" x="66" y="-525.5" font-family="Helvetica,sans-Serif" font-size="10.00">UObject</text>
<text xml:space="preserve" text-anchor="start" x="82.5" y="-508.75" font-family="Helvetica,sans-Serif" font-size="10.00"> </text>
<text xml:space="preserve" text-anchor="start" x="82.5" y="-492" font-family="Helvetica,sans-Serif" font-size="10.00"> </text>
<polygon fill="#666666" stroke="#666666" points="62,-520.5 62,-520.5 109,-520.5 109,-520.5 62,-520.5"/>
<polygon fill="#666666" stroke="#666666" points="62,-503.75 62,-503.75 109,-503.75 109,-503.75 62,-503.75"/>
<polygon fill="none" stroke="#666666" points="62,-485 62,-539.25 109,-539.25 109,-485 62,-485"/>
</a>
</g>
</g>
<!-- Node3&#45;&gt;Node2 -->
<g id="edge2_Node000002_Node000003" class="edge">
<title>Node3&#45;&gt;Node2</title>
<g id="a_edge2_Node000002_Node000003"><a xlink:title=" ">
<path fill="none" stroke="#63b8ff" d="M85.5,-473.58C85.5,-465.77 85.5,-457.08 85.5,-447.84"/>
<polygon fill="none" stroke="#63b8ff" points="82,-473.56 85.5,-483.56 89,-473.56 82,-473.56"/>
</a>
</g>
</g>
<!-- Node4 -->
<g id="Node000004" class="node">
<title>Node4</title>
<g id="a_Node000004"><a xlink:href="structFModulatorContinuousParams.html" target="_top" xlink:title=" ">
<polygon fill="white" stroke="none" points="363.88,-372.62 189.12,-372.62 189.12,-201.12 363.88,-201.12 363.88,-372.62"/>
<text xml:space="preserve" text-anchor="start" x="203" y="-358.88" font-family="Helvetica,sans-Serif" font-size="10.00">FModulatorContinuousParams</text>
<text xml:space="preserve" text-anchor="start" x="193.12" y="-342.12" font-family="Helvetica,sans-Serif" font-size="10.00">+</text>
<text xml:space="preserve" text-anchor="start" x="205.38" y="-342.12" font-family="Helvetica,sans-Serif" font-size="10.00">ParameterName</text>
<text xml:space="preserve" text-anchor="start" x="193.12" y="-325.38" font-family="Helvetica,sans-Serif" font-size="10.00">+</text>
<text xml:space="preserve" text-anchor="start" x="205.38" y="-325.38" font-family="Helvetica,sans-Serif" font-size="10.00">Default</text>
<text xml:space="preserve" text-anchor="start" x="193.12" y="-308.62" font-family="Helvetica,sans-Serif" font-size="10.00">+</text>
<text xml:space="preserve" text-anchor="start" x="205.38" y="-308.62" font-family="Helvetica,sans-Serif" font-size="10.00">MinInput</text>
<text xml:space="preserve" text-anchor="start" x="193.12" y="-291.88" font-family="Helvetica,sans-Serif" font-size="10.00">+</text>
<text xml:space="preserve" text-anchor="start" x="205.38" y="-291.88" font-family="Helvetica,sans-Serif" font-size="10.00">MaxInput</text>
<text xml:space="preserve" text-anchor="start" x="193.12" y="-275.12" font-family="Helvetica,sans-Serif" font-size="10.00">+</text>
<text xml:space="preserve" text-anchor="start" x="205.38" y="-275.12" font-family="Helvetica,sans-Serif" font-size="10.00">MinOutput</text>
<text xml:space="preserve" text-anchor="start" x="193.12" y="-258.38" font-family="Helvetica,sans-Serif" font-size="10.00">+</text>
<text xml:space="preserve" text-anchor="start" x="205.38" y="-258.38" font-family="Helvetica,sans-Serif" font-size="10.00">MaxOutput</text>
<text xml:space="preserve" text-anchor="start" x="193.12" y="-241.62" font-family="Helvetica,sans-Serif" font-size="10.00">+</text>
<text xml:space="preserve" text-anchor="start" x="205.38" y="-241.62" font-family="Helvetica,sans-Serif" font-size="10.00">ParamMode</text>
<text xml:space="preserve" text-anchor="start" x="193.12" y="-224.88" font-family="Helvetica,sans-Serif" font-size="10.00">+</text>
<text xml:space="preserve" text-anchor="start" x="205.38" y="-224.88" font-family="Helvetica,sans-Serif" font-size="10.00">FModulatorContinuousParams()</text>
<text xml:space="preserve" text-anchor="start" x="193.12" y="-208.12" font-family="Helvetica,sans-Serif" font-size="10.00">+</text>
<text xml:space="preserve" text-anchor="start" x="205.38" y="-208.12" font-family="Helvetica,sans-Serif" font-size="10.00">GetValue()</text>
<polygon fill="#666666" stroke="#666666" points="189.12,-353.88 189.12,-353.88 363.88,-353.88 363.88,-353.88 189.12,-353.88"/>
<polygon fill="#666666" stroke="#666666" points="189.12,-236.62 189.12,-236.62 203.38,-236.62 203.38,-236.62 189.12,-236.62"/>
<polygon fill="#666666" stroke="#666666" points="203.38,-236.62 203.38,-236.62 363.88,-236.62 363.88,-236.62 203.38,-236.62"/>
<polygon fill="none" stroke="#666666" points="189.12,-201.12 189.12,-372.62 363.88,-372.62 363.88,-201.12 189.12,-201.12"/>
</a>
</g>
</g>
<!-- Node4&#45;&gt;Node1 -->
<g id="edge3_Node000001_Node000004" class="edge">
<title>Node4&#45;&gt;Node1</title>
<g id="a_edge3_Node000001_Node000004"><a xlink:title=" ">
<path fill="none" stroke="#63b8ff" d="M245.07,-201.48C228.07,-155.84 207.91,-101.73 194.7,-66.25"/>
<polygon fill="none" stroke="#63b8ff" points="194.67,-66.16 188.82,-61.93 190.48,-54.91 196.32,-59.14 194.67,-66.16"/>
</a>
</g>
<text xml:space="preserve" text-anchor="start" x="211.87" y="-95" font-family="Helvetica,sans-Serif" font-size="10.00" fill="grey">&#45;PitchModulationParams</text>
<text xml:space="preserve" text-anchor="start" x="211.87" y="-78.25" font-family="Helvetica,sans-Serif" font-size="10.00" fill="grey">&#45;VolumeModulationParams</text>
</g>
</g>
</svg>
