<?xml version="1.0" encoding="UTF-8" standalone="no"?>
<!DOCTYPE svg PUBLIC "-//W3C//DTD SVG 1.1//EN"
 "http://www.w3.org/Graphics/SVG/1.1/DTD/svg11.dtd">
<!-- Generated by graphviz version 14.1.4 (0)
 -->
<!-- Title: UE::FWordMutex::FWordMutex Pages: 1 -->
<svg width="376pt" height="68pt"
 viewBox="0.00 0.00 376.00 68.00" xmlns="http://www.w3.org/2000/svg" xmlns:xlink="http://www.w3.org/1999/xlink">
<g id="graph0" class="graph" transform="scale(1 1) rotate(0) translate(4 63.75)">
<title>UE::FWordMutex::FWordMutex</title>
<!-- Node1 -->
<g id="Node000001" class="node">
<title>Node1</title>
<g id="a_Node000001"><a xlink:title=" ">
<polygon fill="#999999" stroke="#666666" points="368,-39.75 202,-39.75 202,-19 368,-19 368,-39.75"/>
<text xml:space="preserve" text-anchor="middle" x="285" y="-26.25" font-family="Helvetica,sans-Serif" font-size="10.00">UE::FWordMutex::FWordMutex</text>
</a>
</g>
</g>
<!-- Node2 -->
<g id="Node000002" class="node">
<title>Node2</title>
<g id="a_Node000002"><a xlink:href="$classUE_1_1FWordMutex.html#a1701ade5a0f3503ebd089505725c7aa9" xlink:title=" ">
<polygon fill="white" stroke="#666666" points="166,-59.75 0,-59.75 0,-39 166,-39 166,-59.75"/>
<text xml:space="preserve" text-anchor="middle" x="83" y="-46.25" font-family="Helvetica,sans-Serif" font-size="10.00">UE::FWordMutex::FWordMutex</text>
</a>
</g>
</g>
<!-- Node1&#45;&gt;Node2 -->
<g id="edge1_Node000001_Node000002" class="edge">
<title>Node1&#45;&gt;Node2</title>
<g id="a_edge1_Node000001_Node000002"><a xlink:title=" ">
<path fill="none" stroke="#63b8ff" d="M190.42,-38.73C182.34,-39.54 174.2,-40.36 166.22,-41.15"/>
<polygon fill="#63b8ff" stroke="#63b8ff" points="190.68,-42.22 200.28,-37.75 189.98,-35.26 190.68,-42.22"/>
</a>
</g>
</g>
<!-- Node3 -->
<g id="Node000003" class="node">
<title>Node3</title>
<g id="a_Node000003"><a xlink:href="$classUE_1_1FWordMutex.html#a5dcf17f0a08ce88aacfbcfe1787bc275" xlink:title=" ">
<polygon fill="white" stroke="#666666" points="159.62,-20.75 6.38,-20.75 6.38,0 159.62,0 159.62,-20.75"/>
<text xml:space="preserve" text-anchor="middle" x="83" y="-7.25" font-family="Helvetica,sans-Serif" font-size="10.00">UE::FWordMutex::operator=</text>
</a>
</g>
</g>
<!-- Node1&#45;&gt;Node3 -->
<g id="edge2_Node000001_Node000003" class="edge">
<title>Node1&#45;&gt;Node3</title>
<g id="a_edge2_Node000001_Node000003"><a xlink:title=" ">
<path fill="none" stroke="#63b8ff" d="M190.39,-20.48C180.25,-19.52 170.01,-18.55 160.11,-17.61"/>
<polygon fill="#63b8ff" stroke="#63b8ff" points="189.99,-23.96 200.28,-21.42 190.66,-16.99 189.99,-23.96"/>
</a>
</g>
</g>
</g>
</svg>
