<?xml version="1.0" encoding="UTF-8" standalone="no"?>
<!DOCTYPE svg PUBLIC "-//W3C//DTD SVG 1.1//EN"
 "http://www.w3.org/Graphics/SVG/1.1/DTD/svg11.dtd">
<!-- Generated by graphviz version 14.1.4 (0)
 -->
<!-- Title: FTSTicker::GetCoreTicker Pages: 1 -->
<svg width="550pt" height="313pt"
 viewBox="0.00 0.00 550.00 313.00" xmlns="http://www.w3.org/2000/svg" xmlns:xlink="http://www.w3.org/1999/xlink">
<g id="graph0" class="graph" transform="scale(1 1) rotate(0) translate(4 308.5)">
<title>FTSTicker::GetCoreTicker</title>
<!-- Node1 -->
<g id="Node000001" class="node">
<title>Node1</title>
<g id="a_Node000001"><a xlink:title=" ">
<polygon fill="#999999" stroke="#666666" points="541.5,-124.12 404.75,-124.12 404.75,-103.38 541.5,-103.38 541.5,-124.12"/>
<text xml:space="preserve" text-anchor="middle" x="473.12" y="-110.62" font-family="Helvetica,sans-Serif" font-size="10.00">FTSTicker::GetCoreTicker</text>
</a>
</g>
</g>
<!-- Node2 -->
<g id="Node000002" class="node">
<title>Node2</title>
<g id="a_Node000002"><a xlink:href="$Async_8h.html#a974ce2dd50eecf01a05bec0d82846034" xlink:title=" ">
<polygon fill="white" stroke="#666666" points="325.62,-169.12 280.38,-169.12 280.38,-148.38 325.62,-148.38 325.62,-169.12"/>
<text xml:space="preserve" text-anchor="middle" x="303" y="-155.62" font-family="Helvetica,sans-Serif" font-size="10.00">Async</text>
</a>
</g>
</g>
<!-- Node1&#45;&gt;Node2 -->
<g id="edge1_Node000001_Node000002" class="edge">
<title>Node1&#45;&gt;Node2</title>
<g id="a_edge1_Node000001_Node000002"><a xlink:title=" ">
<path fill="none" stroke="#63b8ff" d="M420.96,-127.45C389.16,-135.96 349.92,-146.46 325.94,-152.88"/>
<polygon fill="#63b8ff" stroke="#63b8ff" points="421.64,-130.89 430.39,-124.92 419.83,-124.12 421.64,-130.89"/>
</a>
</g>
</g>
<!-- Node8 -->
<g id="Node000008" class="node">
<title>Node8</title>
<g id="a_Node000008"><a xlink:href="$Ticker_8h.html#a9f14b995dc37eec7a54cae8344aa9b84" xlink:title=" ">
<polygon fill="white" stroke="#666666" points="368.75,-124.12 237.25,-124.12 237.25,-103.38 368.75,-103.38 368.75,-124.12"/>
<text xml:space="preserve" text-anchor="middle" x="303" y="-110.62" font-family="Helvetica,sans-Serif" font-size="10.00">ExecuteOnGameThread</text>
</a>
</g>
</g>
<!-- Node1&#45;&gt;Node8 -->
<g id="edge7_Node000001_Node000008" class="edge">
<title>Node1&#45;&gt;Node8</title>
<g id="a_edge7_Node000001_Node000008"><a xlink:title=" ">
<path fill="none" stroke="#63b8ff" d="M393.37,-113.75C385.29,-113.75 377.15,-113.75 369.24,-113.75"/>
<polygon fill="#63b8ff" stroke="#63b8ff" points="393.2,-117.25 403.2,-113.75 393.2,-110.25 393.2,-117.25"/>
</a>
</g>
</g>
<!-- Node9 -->
<g id="Node000009" class="node">
<title>Node9</title>
<g id="a_Node000009"><a xlink:href="$classFTSTickerObjectBase.html#ae5d73c514fcb7c2e169e76b0903d4bbf" xlink:title=" ">
<polygon fill="white" stroke="#666666" points="365,-72.5 241,-72.5 241,-39 365,-39 365,-72.5"/>
<text xml:space="preserve" text-anchor="start" x="249" y="-59" font-family="Helvetica,sans-Serif" font-size="10.00">FTSTickerObjectBase</text>
<text xml:space="preserve" text-anchor="middle" x="303" y="-46.25" font-family="Helvetica,sans-Serif" font-size="10.00">::FTSTickerObjectBase</text>
</a>
</g>
</g>
<!-- Node1&#45;&gt;Node9 -->
<g id="edge8_Node000001_Node000009" class="edge">
<title>Node1&#45;&gt;Node9</title>
<g id="a_edge8_Node000001_Node000009"><a xlink:title=" ">
<path fill="none" stroke="#63b8ff" d="M430.05,-99.24C406.94,-91.26 378.13,-81.32 353.89,-72.96"/>
<polygon fill="#63b8ff" stroke="#63b8ff" points="428.87,-102.53 439.47,-102.48 431.15,-95.91 428.87,-102.53"/>
</a>
</g>
</g>
<!-- Node3 -->
<g id="Node000003" class="node">
<title>Node3</title>
<g id="a_Node000003"><a xlink:href="$classUHierarchicalInstancedStaticMeshComponent.html#a5a77aa6e4a1d4b16b5b47ebfd2336932" xlink:title=" ">
<polygon fill="white" stroke="#666666" points="201.25,-304.5 0,-304.5 0,-271 201.25,-271 201.25,-304.5"/>
<text xml:space="preserve" text-anchor="start" x="8" y="-291" font-family="Helvetica,sans-Serif" font-size="10.00">UHierarchicalInstancedStatic</text>
<text xml:space="preserve" text-anchor="middle" x="100.62" y="-278.25" font-family="Helvetica,sans-Serif" font-size="10.00">MeshComponent::BuildTreeIfOutdated</text>
</a>
</g>
</g>
<!-- Node2&#45;&gt;Node3 -->
<g id="edge2_Node000002_Node000003" class="edge">
<title>Node2&#45;&gt;Node3</title>
<g id="a_edge2_Node000002_Node000003"><a xlink:title=" ">
<path fill="none" stroke="#63b8ff" d="M288.17,-178.33C270.63,-201.71 238.16,-240.33 201.25,-261.75 195.53,-265.07 189.38,-267.97 183.05,-270.51"/>
<polygon fill="#63b8ff" stroke="#63b8ff" points="290.78,-180.7 293.86,-170.56 285.13,-176.56 290.78,-180.7"/>
</a>
</g>
</g>
<!-- Node4 -->
<g id="Node000004" class="node">
<title>Node4</title>
<g id="a_Node000004"><a xlink:href="$classTAsyncRunnable.html#af8087058e710df4564942cd6f0f07b93" xlink:title=" ">
<polygon fill="white" stroke="#666666" points="161.5,-253.12 39.75,-253.12 39.75,-232.38 161.5,-232.38 161.5,-253.12"/>
<text xml:space="preserve" text-anchor="middle" x="100.62" y="-239.62" font-family="Helvetica,sans-Serif" font-size="10.00">TAsyncRunnable::Run</text>
</a>
</g>
</g>
<!-- Node2&#45;&gt;Node4 -->
<g id="edge3_Node000002_Node000004" class="edge">
<title>Node2&#45;&gt;Node4</title>
<g id="a_edge3_Node000002_Node000004"><a xlink:title=" ">
<path fill="none" stroke="#63b8ff" d="M279.54,-176.46C259.95,-191.03 230.2,-211.12 201.25,-222.75 188.89,-227.72 175.16,-231.49 161.93,-234.35"/>
<polygon fill="#63b8ff" stroke="#63b8ff" points="281.5,-179.36 287.34,-170.53 277.26,-173.79 281.5,-179.36"/>
</a>
</g>
</g>
<!-- Node5 -->
<g id="Node000005" class="node">
<title>Node5</title>
<g id="a_Node000005"><a xlink:href="$classFAutomationSpecBase_1_1FAsyncLatentCommand.html#a9d5f5bebc9518d1ecd1163d63a3177bb" xlink:title=" ">
<polygon fill="white" stroke="#666666" points="169.38,-213.88 31.88,-213.88 31.88,-167.62 169.38,-167.62 169.38,-213.88"/>
<text xml:space="preserve" text-anchor="start" x="39.88" y="-200.38" font-family="Helvetica,sans-Serif" font-size="10.00">FAutomationSpecBase</text>
<text xml:space="preserve" text-anchor="start" x="39.88" y="-187.62" font-family="Helvetica,sans-Serif" font-size="10.00">::FAsyncLatentCommand</text>
<text xml:space="preserve" text-anchor="middle" x="100.62" y="-174.88" font-family="Helvetica,sans-Serif" font-size="10.00">::Update</text>
</a>
</g>
</g>
<!-- Node2&#45;&gt;Node5 -->
<g id="edge4_Node000002_Node000005" class="edge">
<title>Node2&#45;&gt;Node5</title>
<g id="a_edge4_Node000002_Node000005"><a xlink:title=" ">
<path fill="none" stroke="#63b8ff" d="M269.07,-164.01C242.16,-168.31 203.2,-174.53 169.64,-179.89"/>
<polygon fill="#63b8ff" stroke="#63b8ff" points="269.36,-167.51 278.68,-162.47 268.25,-160.6 269.36,-167.51"/>
</a>
</g>
</g>
<!-- Node6 -->
<g id="Node000006" class="node">
<title>Node6</title>
<g id="a_Node000006"><a xlink:href="$classFAutomationSpecBase_1_1FAsyncUntilDoneLatentCommand.html#a783b5a26decbc898bf7e39b24c44a91e" xlink:title=" ">
<polygon fill="white" stroke="#666666" points="193.75,-149.88 7.5,-149.88 7.5,-103.62 193.75,-103.62 193.75,-149.88"/>
<text xml:space="preserve" text-anchor="start" x="15.5" y="-136.38" font-family="Helvetica,sans-Serif" font-size="10.00">FAutomationSpecBase</text>
<text xml:space="preserve" text-anchor="start" x="15.5" y="-123.62" font-family="Helvetica,sans-Serif" font-size="10.00">::FAsyncUntilDoneLatentCommand</text>
<text xml:space="preserve" text-anchor="middle" x="100.62" y="-110.88" font-family="Helvetica,sans-Serif" font-size="10.00">::Update</text>
</a>
</g>
</g>
<!-- Node2&#45;&gt;Node6 -->
<g id="edge5_Node000002_Node000006" class="edge">
<title>Node2&#45;&gt;Node6</title>
<g id="a_edge5_Node000002_Node000006"><a xlink:title=" ">
<path fill="none" stroke="#63b8ff" d="M268.91,-153.47C248.31,-150.18 220.71,-145.77 193.87,-141.48"/>
<polygon fill="#63b8ff" stroke="#63b8ff" points="268.25,-156.9 278.68,-155.03 269.36,-149.99 268.25,-156.9"/>
</a>
</g>
</g>
<!-- Node7 -->
<g id="Node000007" class="node">
<title>Node7</title>
<g id="a_Node000007"><a xlink:href="$classFThreadedAutomationLatentCommand.html#a65452de4c8a1899546b7e840a35e1dcc" xlink:title=" ">
<polygon fill="white" stroke="#666666" points="178.38,-85.5 22.88,-85.5 22.88,-52 178.38,-52 178.38,-85.5"/>
<text xml:space="preserve" text-anchor="start" x="30.88" y="-72" font-family="Helvetica,sans-Serif" font-size="10.00">FThreadedAutomationLatent</text>
<text xml:space="preserve" text-anchor="middle" x="100.62" y="-59.25" font-family="Helvetica,sans-Serif" font-size="10.00">Command::Update</text>
</a>
</g>
</g>
<!-- Node2&#45;&gt;Node7 -->
<g id="edge6_Node000002_Node000007" class="edge">
<title>Node2&#45;&gt;Node7</title>
<g id="a_edge6_Node000002_Node000007"><a xlink:title=" ">
<path fill="none" stroke="#63b8ff" d="M269.41,-148.79C258.67,-144.71 246.99,-139.37 237.25,-132.75 218.01,-119.67 221.28,-106.59 201.25,-94.75 194.25,-90.61 186.59,-87.12 178.73,-84.18"/>
<polygon fill="#63b8ff" stroke="#63b8ff" points="268.13,-152.05 278.72,-152.08 270.46,-145.45 268.13,-152.05"/>
</a>
</g>
</g>
<!-- Node10 -->
<g id="Node000010" class="node">
<title>Node10</title>
<g id="a_Node000010"><a xlink:href="$classFTSTickerObjectBase.html#a8128bb9620e3ecd3865972af7a500240" xlink:title=" ">
<polygon fill="white" stroke="#666666" points="159.62,-33.5 41.62,-33.5 41.62,0 159.62,0 159.62,-33.5"/>
<text xml:space="preserve" text-anchor="start" x="49.62" y="-20" font-family="Helvetica,sans-Serif" font-size="10.00">FTSTickerObjectBase</text>
<text xml:space="preserve" text-anchor="middle" x="100.62" y="-7.25" font-family="Helvetica,sans-Serif" font-size="10.00">::UE_NONCOPYABLE</text>
</a>
</g>
</g>
<!-- Node9&#45;&gt;Node10 -->
<g id="edge9_Node000009_Node000010" class="edge">
<title>Node9&#45;&gt;Node10</title>
<g id="a_edge9_Node000009_Node000010"><a xlink:title=" ">
<path fill="none" stroke="#63b8ff" d="M229.48,-41.64C206.61,-37.18 181.65,-32.33 159.91,-28.09"/>
<polygon fill="#63b8ff" stroke="#63b8ff" points="228.55,-45.02 239.03,-43.49 229.89,-38.15 228.55,-45.02"/>
</a>
</g>
</g>
</g>
</svg>
