<?xml version="1.0" encoding="UTF-8" standalone="no"?>
<!DOCTYPE svg PUBLIC "-//W3C//DTD SVG 1.1//EN"
 "http://www.w3.org/Graphics/SVG/1.1/DTD/svg11.dtd">
<!-- Generated by graphviz version 14.1.4 (0)
 -->
<!-- Title: TTripleBuffer::IsDirty Pages: 1 -->
<svg width="523pt" height="29pt"
 viewBox="0.00 0.00 523.00 29.00" xmlns="http://www.w3.org/2000/svg" xmlns:xlink="http://www.w3.org/1999/xlink">
<g id="graph0" class="graph" transform="scale(1 1) rotate(0) translate(4 24.75)">
<title>TTripleBuffer::IsDirty</title>
<!-- Node1 -->
<g id="Node000001" class="node">
<title>Node1</title>
<g id="a_Node000001"><a xlink:title=" ">
<polygon fill="#999999" stroke="#666666" points="515.25,-20.75 398,-20.75 398,0 515.25,0 515.25,-20.75"/>
<text xml:space="preserve" text-anchor="middle" x="456.62" y="-7.25" font-family="Helvetica,sans-Serif" font-size="10.00">TTripleBuffer::IsDirty</text>
</a>
</g>
</g>
<!-- Node2 -->
<g id="Node000002" class="node">
<title>Node2</title>
<g id="a_Node000002"><a xlink:href="$classTTripleBuffer.html#a4b9b2c1b42b9b2812aceea8d1932f148" xlink:title=" ">
<polygon fill="white" stroke="#666666" points="362,-20.75 190.75,-20.75 190.75,0 362,0 362,-20.75"/>
<text xml:space="preserve" text-anchor="middle" x="276.38" y="-7.25" font-family="Helvetica,sans-Serif" font-size="10.00">TTripleBuffer::SwapReadBuffers</text>
</a>
</g>
</g>
<!-- Node1&#45;&gt;Node2 -->
<g id="edge1_Node000001_Node000002" class="edge">
<title>Node1&#45;&gt;Node2</title>
<g id="a_edge1_Node000001_Node000002"><a xlink:title=" ">
<path fill="none" stroke="#63b8ff" d="M386.43,-10.38C378.57,-10.38 370.5,-10.38 362.47,-10.38"/>
<polygon fill="#63b8ff" stroke="#63b8ff" points="386.24,-13.88 396.24,-10.38 386.24,-6.88 386.24,-13.88"/>
</a>
</g>
</g>
<!-- Node3 -->
<g id="Node000003" class="node">
<title>Node3</title>
<g id="a_Node000003"><a xlink:href="$classTTripleBuffer.html#aa56b19d6194e05449e6d5c6228eb50a7" xlink:title=" ">
<polygon fill="white" stroke="#666666" points="154.75,-20.75 0,-20.75 0,0 154.75,0 154.75,-20.75"/>
<text xml:space="preserve" text-anchor="middle" x="77.38" y="-7.25" font-family="Helvetica,sans-Serif" font-size="10.00">TTripleBuffer::SwapAndRead</text>
</a>
</g>
</g>
<!-- Node2&#45;&gt;Node3 -->
<g id="edge2_Node000002_Node000003" class="edge">
<title>Node2&#45;&gt;Node3</title>
<g id="a_edge2_Node000002_Node000003"><a xlink:title=" ">
<path fill="none" stroke="#63b8ff" d="M179.03,-10.38C170.97,-10.38 162.89,-10.38 155,-10.38"/>
<polygon fill="#63b8ff" stroke="#63b8ff" points="178.89,-13.88 188.89,-10.38 178.89,-6.88 178.89,-13.88"/>
</a>
</g>
</g>
</g>
</svg>
