<?xml version="1.0" encoding="UTF-8" standalone="no"?>
<!DOCTYPE svg PUBLIC "-//W3C//DTD SVG 1.1//EN"
 "http://www.w3.org/Graphics/SVG/1.1/DTD/svg11.dtd">
<!-- Generated by graphviz version 14.1.4 (0)
 -->
<!-- Title: UNullNavSysConfig Pages: 1 -->
<!--zoomable 728 -->

<svg id="main" version="1.1" xmlns="http://www.w3.org/2000/svg" xmlns:xlink="http://www.w3.org/1999/xlink" xml:space="preserve" onload="init(evt)">

<style type="text/css"><![CDATA[
.node, .edge {opacity: 0.7;}
.node.selected, .edge.selected {opacity: 1;}
.edge:hover path { stroke: red; }
.edge:hover polygon { stroke: red; fill: red; }
]]></style>

<defs>
  <circle id="rim" cx="0" cy="0" r="7"/>
  <circle id="rim2" cx="0" cy="0" r="3.5"/>
  <g id="zoomPlus">
    <use xlink:href="#rim" fill="#404040"><set attributeName="fill" to="#808080" begin="zoomplus.mouseover" end="zoomplus.mouseout"/></use>
    <path d="M-4,0h8M0,-4v8" fill="none" stroke="white" stroke-width="1.5" pointer-events="none"/>
  </g>
  <g id="zoomMin">
    <use xlink:href="#rim" fill="#404040"><set attributeName="fill" to="#808080" begin="zoomminus.mouseover" end="zoomminus.mouseout"/></use>
    <path d="M-4,0h8" fill="none" stroke="white" stroke-width="1.5" pointer-events="none"/>
  </g>
  <g id="arrowUp" transform="translate(30 24)">
    <use xlink:href="#rim"/>
    <path pointer-events="none" fill="none" stroke="white" stroke-width="1.5" d="M0,-3.0v7 M-2.5,-0.5L0,-3.0L2.5,-0.5"/>
  </g>
  <g id="arrowRight" transform="rotate(90) translate(36 -43)">
    <use xlink:href="#rim"/>
    <path pointer-events="none" fill="none" stroke="white" stroke-width="1.5" d="M0,-3.0v7 M-2.5,-0.5L0,-3.0L2.5,-0.5"/>
  </g>
  <g id="arrowDown" transform="rotate(180) translate(-30 -48)">
    <use xlink:href="#rim"/>
    <path pointer-events="none" fill="none" stroke="white" stroke-width="1.5" d="M0,-3.0v7 M-2.5,-0.5L0,-3.0L2.5,-0.5"/>
  </g>
  <g id="arrowLeft" transform="rotate(270) translate(-36 17)">
    <use xlink:href="#rim"/>
    <path pointer-events="none" fill="none" stroke="white" stroke-width="1.5" d="M0,-3.0v7 M-2.5,-0.5L0,-3.0L2.5,-0.5"/>
  </g>
  <g id="resetDef">
    <use xlink:href="#rim2" fill="#404040"><set attributeName="fill" to="#808080" begin="reset.mouseover" end="reset.mouseout"/></use>
  </g>
</defs>
<script type="application/ecmascript">
var viewWidth = 234;
var viewHeight = 728;
var sectionId = 'dynsection-1';
</script>
<script type="application/ecmascript" xlink:href="svg.min.js"/>
<svg id="graph" class="graph">
<g id="viewport">
<title>UNullNavSysConfig</title>
<!-- Node1 -->
<g id="Node000001" class="node">
<title>Node1</title>
<g id="a_Node000001"><a xlink:title=" ">
<polygon fill="#999999" stroke="none" points="147.38,-54.25 24.38,-54.25 24.38,0 147.38,0 147.38,-54.25"/>
<text xml:space="preserve" text-anchor="start" x="38.25" y="-40.5" font-family="Helvetica,sans-Serif" font-size="10.00">UNullNavSysConfig</text>
<text xml:space="preserve" text-anchor="start" x="82.88" y="-23.75" font-family="Helvetica,sans-Serif" font-size="10.00"> </text>
<text xml:space="preserve" text-anchor="start" x="28.38" y="-7" font-family="Helvetica,sans-Serif" font-size="10.00">+</text>
<text xml:space="preserve" text-anchor="start" x="40.62" y="-7" font-family="Helvetica,sans-Serif" font-size="10.00">UNullNavSysConfig()</text>
<polygon fill="#666666" stroke="#666666" points="24.38,-35.5 24.38,-35.5 147.38,-35.5 147.38,-35.5 24.38,-35.5"/>
<polygon fill="#666666" stroke="#666666" points="24.38,-18.75 24.38,-18.75 147.38,-18.75 147.38,-18.75 24.38,-18.75"/>
<polygon fill="none" stroke="#666666" points="24.38,0 24.38,-54.25 147.38,-54.25 147.38,0 24.38,0"/>
</a>
</g>
</g>
<!-- Node2 -->
<g id="Node000002" class="node">
<title>Node2</title>
<g id="a_Node000002"><a xlink:href="classUNavigationSystemConfig.html" target="_top" xlink:title=" ">
<polygon fill="white" stroke="none" points="171.75,-258.75 0,-258.75 0,-91.25 171.75,-91.25 171.75,-258.75"/>
<text xml:space="preserve" text-anchor="start" x="21.38" y="-245" font-family="Helvetica,sans-Serif" font-size="10.00">UNavigationSystemConfig</text>
<text xml:space="preserve" text-anchor="start" x="4" y="-228.25" font-family="Helvetica,sans-Serif" font-size="10.00">+</text>
<text xml:space="preserve" text-anchor="start" x="16.25" y="-228.25" font-family="Helvetica,sans-Serif" font-size="10.00">NavigationSystemClass</text>
<text xml:space="preserve" text-anchor="start" x="4" y="-211.5" font-family="Helvetica,sans-Serif" font-size="10.00">+</text>
<text xml:space="preserve" text-anchor="start" x="16.25" y="-211.5" font-family="Helvetica,sans-Serif" font-size="10.00">DefaultAgentName</text>
<text xml:space="preserve" text-anchor="start" x="4" y="-194.75" font-family="Helvetica,sans-Serif" font-size="10.00">#</text>
<text xml:space="preserve" text-anchor="start" x="16.25" y="-194.75" font-family="Helvetica,sans-Serif" font-size="10.00">bIsOverriden</text>
<text xml:space="preserve" text-anchor="start" x="4" y="-178" font-family="Helvetica,sans-Serif" font-size="10.00">+</text>
<text xml:space="preserve" text-anchor="start" x="16.25" y="-178" font-family="Helvetica,sans-Serif" font-size="10.00">UNavigationSystemConfig()</text>
<text xml:space="preserve" text-anchor="start" x="4" y="-161.25" font-family="Helvetica,sans-Serif" font-size="10.00">+</text>
<text xml:space="preserve" text-anchor="start" x="16.25" y="-161.25" font-family="Helvetica,sans-Serif" font-size="10.00">CreateAndConfigureNavigation</text>
<text xml:space="preserve" text-anchor="start" x="16.25" y="-148.5" font-family="Helvetica,sans-Serif" font-size="10.00">System()</text>
<text xml:space="preserve" text-anchor="start" x="4" y="-131.75" font-family="Helvetica,sans-Serif" font-size="10.00">+</text>
<text xml:space="preserve" text-anchor="start" x="16.25" y="-131.75" font-family="Helvetica,sans-Serif" font-size="10.00">PostEditChangeProperty()</text>
<text xml:space="preserve" text-anchor="start" x="4" y="-115" font-family="Helvetica,sans-Serif" font-size="10.00">+</text>
<text xml:space="preserve" text-anchor="start" x="16.25" y="-115" font-family="Helvetica,sans-Serif" font-size="10.00">SetIsOverriden()</text>
<text xml:space="preserve" text-anchor="start" x="4" y="-98.25" font-family="Helvetica,sans-Serif" font-size="10.00">+</text>
<text xml:space="preserve" text-anchor="start" x="16.25" y="-98.25" font-family="Helvetica,sans-Serif" font-size="10.00">GetDefaultConfigClass()</text>
<polygon fill="#666666" stroke="#666666" points="0,-240 0,-240 171.75,-240 171.75,-240 0,-240"/>
<polygon fill="#666666" stroke="#666666" points="0,-189.75 0,-189.75 14.25,-189.75 14.25,-189.75 0,-189.75"/>
<polygon fill="#666666" stroke="#666666" points="14.25,-189.75 14.25,-189.75 171.75,-189.75 171.75,-189.75 14.25,-189.75"/>
<polygon fill="none" stroke="#666666" points="0,-91.25 0,-258.75 171.75,-258.75 171.75,-91.25 0,-91.25"/>
</a>
</g>
</g>
<!-- Node2&#45;&gt;Node1 -->
<g id="edge1_Node000001_Node000002" class="edge">
<title>Node2&#45;&gt;Node1</title>
<g id="a_edge1_Node000001_Node000002"><a xlink:title=" ">
<path fill="none" stroke="#63b8ff" d="M85.88,-80.02C85.88,-70.6 85.88,-61.7 85.88,-54.01"/>
<polygon fill="none" stroke="#63b8ff" points="82.38,-79.75 85.88,-89.75 89.38,-79.75 82.38,-79.75"/>
</a>
</g>
</g>
<!-- Node3 -->
<g id="Node000003" class="node">
<title>Node3</title>
<g id="a_Node000003"><a xlink:title=" ">
<polygon fill="white" stroke="none" points="58.38,-543.62 11.37,-543.62 11.37,-489.38 58.38,-489.38 58.38,-543.62"/>
<text xml:space="preserve" text-anchor="start" x="15.38" y="-529.88" font-family="Helvetica,sans-Serif" font-size="10.00">UObject</text>
<text xml:space="preserve" text-anchor="start" x="31.88" y="-513.12" font-family="Helvetica,sans-Serif" font-size="10.00"> </text>
<text xml:space="preserve" text-anchor="start" x="31.88" y="-496.38" font-family="Helvetica,sans-Serif" font-size="10.00"> </text>
<polygon fill="#666666" stroke="#666666" points="11.38,-524.88 11.38,-524.88 58.38,-524.88 58.38,-524.88 11.38,-524.88"/>
<polygon fill="#666666" stroke="#666666" points="11.38,-508.12 11.38,-508.12 58.38,-508.12 58.38,-508.12 11.38,-508.12"/>
<polygon fill="none" stroke="#666666" points="11.38,-489.38 11.38,-543.62 58.38,-543.62 58.38,-489.38 11.38,-489.38"/>
</a>
</g>
</g>
<!-- Node3&#45;&gt;Node2 -->
<g id="edge2_Node000002_Node000003" class="edge">
<title>Node3&#45;&gt;Node2</title>
<g id="a_edge2_Node000002_Node000003"><a xlink:title=" ">
<path fill="none" stroke="#63b8ff" d="M40.46,-478.31C48.35,-425.8 62.96,-328.53 73.48,-258.49"/>
<polygon fill="none" stroke="#63b8ff" points="37.04,-477.52 39.02,-487.93 43.96,-478.56 37.04,-477.52"/>
</a>
</g>
</g>
<!-- Node4 -->
<g id="Node000004" class="node">
<title>Node4</title>
<g id="a_Node000004"><a xlink:href="structFNavAgentSelector.html" target="_top" xlink:title=" ">
<polygon fill="white" stroke="none" points="197.62,-719.5 76.12,-719.5 76.12,-313.5 197.62,-313.5 197.62,-719.5"/>
<text xml:space="preserve" text-anchor="start" x="90" y="-705.75" font-family="Helvetica,sans-Serif" font-size="10.00">FNavAgentSelector</text>
<text xml:space="preserve" text-anchor="start" x="80.12" y="-689" font-family="Helvetica,sans-Serif" font-size="10.00">+</text>
<text xml:space="preserve" text-anchor="start" x="92.38" y="-689" font-family="Helvetica,sans-Serif" font-size="10.00">bSupportsAgent0</text>
<text xml:space="preserve" text-anchor="start" x="80.12" y="-672.25" font-family="Helvetica,sans-Serif" font-size="10.00">+</text>
<text xml:space="preserve" text-anchor="start" x="92.38" y="-672.25" font-family="Helvetica,sans-Serif" font-size="10.00">bSupportsAgent1</text>
<text xml:space="preserve" text-anchor="start" x="80.12" y="-655.5" font-family="Helvetica,sans-Serif" font-size="10.00">+</text>
<text xml:space="preserve" text-anchor="start" x="92.38" y="-655.5" font-family="Helvetica,sans-Serif" font-size="10.00">bSupportsAgent2</text>
<text xml:space="preserve" text-anchor="start" x="80.12" y="-638.75" font-family="Helvetica,sans-Serif" font-size="10.00">+</text>
<text xml:space="preserve" text-anchor="start" x="92.38" y="-638.75" font-family="Helvetica,sans-Serif" font-size="10.00">bSupportsAgent3</text>
<text xml:space="preserve" text-anchor="start" x="80.12" y="-622" font-family="Helvetica,sans-Serif" font-size="10.00">+</text>
<text xml:space="preserve" text-anchor="start" x="92.38" y="-622" font-family="Helvetica,sans-Serif" font-size="10.00">bSupportsAgent4</text>
<text xml:space="preserve" text-anchor="start" x="80.12" y="-605.25" font-family="Helvetica,sans-Serif" font-size="10.00">+</text>
<text xml:space="preserve" text-anchor="start" x="92.38" y="-605.25" font-family="Helvetica,sans-Serif" font-size="10.00">bSupportsAgent5</text>
<text xml:space="preserve" text-anchor="start" x="80.12" y="-588.5" font-family="Helvetica,sans-Serif" font-size="10.00">+</text>
<text xml:space="preserve" text-anchor="start" x="92.38" y="-588.5" font-family="Helvetica,sans-Serif" font-size="10.00">bSupportsAgent6</text>
<text xml:space="preserve" text-anchor="start" x="80.12" y="-571.75" font-family="Helvetica,sans-Serif" font-size="10.00">+</text>
<text xml:space="preserve" text-anchor="start" x="92.38" y="-571.75" font-family="Helvetica,sans-Serif" font-size="10.00">bSupportsAgent7</text>
<text xml:space="preserve" text-anchor="start" x="80.12" y="-555" font-family="Helvetica,sans-Serif" font-size="10.00">+</text>
<text xml:space="preserve" text-anchor="start" x="92.38" y="-555" font-family="Helvetica,sans-Serif" font-size="10.00">bSupportsAgent8</text>
<text xml:space="preserve" text-anchor="start" x="80.12" y="-538.25" font-family="Helvetica,sans-Serif" font-size="10.00">+</text>
<text xml:space="preserve" text-anchor="start" x="92.38" y="-538.25" font-family="Helvetica,sans-Serif" font-size="10.00">bSupportsAgent9</text>
<text xml:space="preserve" text-anchor="start" x="92.38" y="-521.5" font-family="Helvetica,sans-Serif" font-size="10.00">and 6 more...</text>
<text xml:space="preserve" text-anchor="start" x="80.12" y="-504.75" font-family="Helvetica,sans-Serif" font-size="10.00">+</text>
<text xml:space="preserve" text-anchor="start" x="92.38" y="-504.75" font-family="Helvetica,sans-Serif" font-size="10.00">InitializedBit</text>
<text xml:space="preserve" text-anchor="start" x="80.12" y="-488" font-family="Helvetica,sans-Serif" font-size="10.00">+</text>
<text xml:space="preserve" text-anchor="start" x="92.38" y="-488" font-family="Helvetica,sans-Serif" font-size="10.00">AllAgentsMask</text>
<text xml:space="preserve" text-anchor="start" x="80.12" y="-471.25" font-family="Helvetica,sans-Serif" font-size="10.00">+</text>
<text xml:space="preserve" text-anchor="start" x="92.38" y="-471.25" font-family="Helvetica,sans-Serif" font-size="10.00">FNavAgentSelector()</text>
<text xml:space="preserve" text-anchor="start" x="80.12" y="-454.5" font-family="Helvetica,sans-Serif" font-size="10.00">+</text>
<text xml:space="preserve" text-anchor="start" x="92.38" y="-454.5" font-family="Helvetica,sans-Serif" font-size="10.00">Contains()</text>
<text xml:space="preserve" text-anchor="start" x="80.12" y="-437.75" font-family="Helvetica,sans-Serif" font-size="10.00">+</text>
<text xml:space="preserve" text-anchor="start" x="92.38" y="-437.75" font-family="Helvetica,sans-Serif" font-size="10.00">ContainsAnyAgent()</text>
<text xml:space="preserve" text-anchor="start" x="80.12" y="-421" font-family="Helvetica,sans-Serif" font-size="10.00">+</text>
<text xml:space="preserve" text-anchor="start" x="92.38" y="-421" font-family="Helvetica,sans-Serif" font-size="10.00">Set()</text>
<text xml:space="preserve" text-anchor="start" x="80.12" y="-404.25" font-family="Helvetica,sans-Serif" font-size="10.00">+</text>
<text xml:space="preserve" text-anchor="start" x="92.38" y="-404.25" font-family="Helvetica,sans-Serif" font-size="10.00">IsInitialized()</text>
<text xml:space="preserve" text-anchor="start" x="80.12" y="-387.5" font-family="Helvetica,sans-Serif" font-size="10.00">+</text>
<text xml:space="preserve" text-anchor="start" x="92.38" y="-387.5" font-family="Helvetica,sans-Serif" font-size="10.00">MarkInitialized()</text>
<text xml:space="preserve" text-anchor="start" x="80.12" y="-370.75" font-family="Helvetica,sans-Serif" font-size="10.00">+</text>
<text xml:space="preserve" text-anchor="start" x="92.38" y="-370.75" font-family="Helvetica,sans-Serif" font-size="10.00">Empty()</text>
<text xml:space="preserve" text-anchor="start" x="80.12" y="-354" font-family="Helvetica,sans-Serif" font-size="10.00">+</text>
<text xml:space="preserve" text-anchor="start" x="92.38" y="-354" font-family="Helvetica,sans-Serif" font-size="10.00">IsSame()</text>
<text xml:space="preserve" text-anchor="start" x="80.12" y="-337.25" font-family="Helvetica,sans-Serif" font-size="10.00">+</text>
<text xml:space="preserve" text-anchor="start" x="92.38" y="-337.25" font-family="Helvetica,sans-Serif" font-size="10.00">Serialize()</text>
<text xml:space="preserve" text-anchor="start" x="80.12" y="-320.5" font-family="Helvetica,sans-Serif" font-size="10.00">+</text>
<text xml:space="preserve" text-anchor="start" x="92.38" y="-320.5" font-family="Helvetica,sans-Serif" font-size="10.00">GetAgentBits()</text>
<polygon fill="#666666" stroke="#666666" points="76.12,-700.75 76.12,-700.75 197.62,-700.75 197.62,-700.75 76.12,-700.75"/>
<polygon fill="#666666" stroke="#666666" points="76.12,-483 76.12,-483 90.38,-483 90.38,-483 76.12,-483"/>
<polygon fill="#666666" stroke="#666666" points="90.38,-483 90.38,-483 197.62,-483 197.62,-483 90.38,-483"/>
<polygon fill="none" stroke="#666666" points="76.12,-313.5 76.12,-719.5 197.62,-719.5 197.62,-313.5 76.12,-313.5"/>
</a>
</g>
</g>
<!-- Node4&#45;&gt;Node2 -->
<g id="edge3_Node000002_Node000004" class="edge">
<title>Node4&#45;&gt;Node2</title>
<g id="a_edge3_Node000002_Node000004"><a xlink:title=" ">
<path fill="none" stroke="#63b8ff" d="M106.55,-313.6C104.36,-299.03 102.22,-284.79 100.2,-271.33"/>
<polygon fill="none" stroke="#63b8ff" points="100.21,-271.44 95.36,-266.1 98.43,-259.57 103.28,-264.91 100.21,-271.44"/>
</a>
</g>
<text xml:space="preserve" text-anchor="start" x="105.37" y="-282.75" font-family="Helvetica,sans-Serif" font-size="10.00" fill="grey">+SupportedAgentsMask</text>
</g>
</g>
</svg>

<g id="navigator" transform="translate(0 0)" fill="#404254">
  <rect fill="#f2f5e9" fill-opacity="0.5" stroke="#606060" stroke-width=".5" x="0" y="0" width="60" height="60"/>
  <use id="zoomplus" xlink:href="#zoomPlus" x="17" y="9" onmousedown="handleZoom(evt,'in')"/>
  <use id="zoomminus" xlink:href="#zoomMin" x="42" y="9" onmousedown="handleZoom(evt,'out')"/>
  <use id="reset" xlink:href="#resetDef" x="30" y="36" onmousedown="handleReset()"/>
   <use id="arrowup" xlink:href="#arrowUp" x="0" y="0" onmousedown="handlePan(0,-1)"/>
  <use id="arrowright" xlink:href="#arrowRight" x="0" y="0" onmousedown="handlePan(1,0)"/>
  <use id="arrowdown" xlink:href="#arrowDown" x="0" y="0" onmousedown="handlePan(0,1)"/>
  <use id="arrowleft" xlink:href="#arrowLeft" x="0" y="0" onmousedown="handlePan(-1,0)"/>
</g>
<svg viewBox="0 0 15 15" width="100%" height="30px" preserveAspectRatio="xMaxYMin meet">
 <g id="arrow_out" transform="scale(0.3 0.3)">
  <a xlink:href="classUNullNavSysConfig__coll__graph_org.svg" target="_base">
   <rect id="button" ry="5" rx="5" y="6" x="6" height="38" width="38"
        fill="#f2f5e9" fill-opacity="0.5" stroke="#606060" stroke-width="1.0"/>
   <path id="arrow"
     d="M 11.500037,31.436501 C 11.940474,20.09759 22.043105,11.32322 32.158766,21.979434 L 37.068811,17.246167 C 37.068811,17.246167 37.088388,32 37.088388,32 L 22.160133,31.978069 C 22.160133,31.978069 26.997745,27.140456 26.997745,27.140456 C 18.528582,18.264221 13.291696,25.230495 11.500037,31.436501 z"
     style="fill:#404040;"/>
  </a>
 </g>
</svg>

<style type='text/css'>
<![CDATA[
[data-mouse-over-selected='false'] { opacity: 0.7; }
[data-mouse-over-selected='true']  { opacity: 1.0; }
]]>
</style>
<script type="application/ecmascript"><![CDATA[
document.addEventListener('DOMContentLoaded', (event) => {
  highlightEdges();
  highlightAdjacentNodes();
});
]]></script>
</svg>
