<?xml version="1.0" encoding="UTF-8" standalone="no"?>
<!DOCTYPE svg PUBLIC "-//W3C//DTD SVG 1.1//EN"
 "http://www.w3.org/Graphics/SVG/1.1/DTD/svg11.dtd">
<!-- Generated by graphviz version 14.1.4 (0)
 -->
<!-- Title: UNavMovementComponent::IsJumpAllowed Pages: 1 -->
<svg width="520pt" height="42pt"
 viewBox="0.00 0.00 520.00 42.00" xmlns="http://www.w3.org/2000/svg" xmlns:xlink="http://www.w3.org/1999/xlink">
<g id="graph0" class="graph" transform="scale(1 1) rotate(0) translate(4 37.5)">
<title>UNavMovementComponent::IsJumpAllowed</title>
<!-- Node1 -->
<g id="Node000001" class="node">
<title>Node1</title>
<g id="a_Node000001"><a xlink:title=" ">
<polygon fill="#999999" stroke="#666666" points="151.75,-33.5 0,-33.5 0,0 151.75,0 151.75,-33.5"/>
<text xml:space="preserve" text-anchor="start" x="8" y="-20" font-family="Helvetica,sans-Serif" font-size="10.00">UNavMovementComponent</text>
<text xml:space="preserve" text-anchor="middle" x="75.88" y="-7.25" font-family="Helvetica,sans-Serif" font-size="10.00">::IsJumpAllowed</text>
</a>
</g>
</g>
<!-- Node2 -->
<g id="Node000002" class="node">
<title>Node2</title>
<g id="a_Node000002"><a xlink:href="classINavMovementInterface.html#ae6376e2f3fa561e4eb1c834264fb2e0d" target="_top" xlink:title=" ">
<polygon fill="white" stroke="#666666" points="322.25,-33.5 187.75,-33.5 187.75,0 322.25,0 322.25,-33.5"/>
<text xml:space="preserve" text-anchor="start" x="195.75" y="-20" font-family="Helvetica,sans-Serif" font-size="10.00">INavMovementInterface</text>
<text xml:space="preserve" text-anchor="middle" x="255" y="-7.25" font-family="Helvetica,sans-Serif" font-size="10.00">::CanEverJump</text>
</a>
</g>
</g>
<!-- Node1&#45;&gt;Node2 -->
<g id="edge1_Node000001_Node000002" class="edge">
<title>Node1&#45;&gt;Node2</title>
<g id="a_edge1_Node000001_Node000002"><a xlink:title=" ">
<path fill="none" stroke="#63b8ff" d="M152.25,-16.75C160.09,-16.75 168.08,-16.75 175.95,-16.75"/>
<polygon fill="#63b8ff" stroke="#63b8ff" points="175.86,-20.25 185.86,-16.75 175.86,-13.25 175.86,-20.25"/>
</a>
</g>
</g>
<!-- Node3 -->
<g id="Node000003" class="node">
<title>Node3</title>
<g id="a_Node000003"><a xlink:href="classINavMovementInterface.html#a701e2a153c2caf5186deea7f23656cef" target="_top" xlink:title=" ">
<polygon fill="white" stroke="#666666" points="511.5,-33.5 358.25,-33.5 358.25,0 511.5,0 511.5,-33.5"/>
<text xml:space="preserve" text-anchor="start" x="366.25" y="-20" font-family="Helvetica,sans-Serif" font-size="10.00">INavMovementInterface</text>
<text xml:space="preserve" text-anchor="middle" x="434.88" y="-7.25" font-family="Helvetica,sans-Serif" font-size="10.00">::GetNavAgentPropertiesRef</text>
</a>
</g>
</g>
<!-- Node2&#45;&gt;Node3 -->
<g id="edge2_Node000002_Node000003" class="edge">
<title>Node2&#45;&gt;Node3</title>
<g id="a_edge2_Node000002_Node000003"><a xlink:title=" ">
<path fill="none" stroke="#63b8ff" d="M322.74,-16.75C330.51,-16.75 338.53,-16.75 346.52,-16.75"/>
<polygon fill="#63b8ff" stroke="#63b8ff" points="346.28,-20.25 356.28,-16.75 346.28,-13.25 346.28,-20.25"/>
</a>
</g>
</g>
</g>
</svg>
