<?xml version="1.0" encoding="UTF-8" standalone="no"?>
<!DOCTYPE svg PUBLIC "-//W3C//DTD SVG 1.1//EN"
 "http://www.w3.org/Graphics/SVG/1.1/DTD/svg11.dtd">
<!-- Generated by graphviz version 14.1.4 (0)
 -->
<!-- Title: UBookmarkBase Pages: 1 -->
<svg width="98pt" height="153pt"
 viewBox="0.00 0.00 98.00 153.00" xmlns="http://www.w3.org/2000/svg" xmlns:xlink="http://www.w3.org/1999/xlink">
<g id="graph0" class="graph" transform="scale(1 1) rotate(0) translate(4 148.5)">
<title>UBookmarkBase</title>
<!-- Node1 -->
<g id="Node000001" class="node">
<title>Node1</title>
<g id="a_Node000001"><a xlink:title=" ">
<polygon fill="#999999" stroke="none" points="89.75,-54.25 0,-54.25 0,0 89.75,0 89.75,-54.25"/>
<text xml:space="preserve" text-anchor="start" x="4" y="-40.5" font-family="Helvetica,sans-Serif" font-size="10.00">UBookmarkBase</text>
<text xml:space="preserve" text-anchor="start" x="41.88" y="-23.75" font-family="Helvetica,sans-Serif" font-size="10.00"> </text>
<text xml:space="preserve" text-anchor="start" x="6.75" y="-7" font-family="Helvetica,sans-Serif" font-size="10.00">+</text>
<text xml:space="preserve" text-anchor="start" x="21.75" y="-7" font-family="Helvetica,sans-Serif" font-size="10.00">OnCleared()</text>
<polygon fill="#666666" stroke="#666666" points="0,-35.5 0,-35.5 89.75,-35.5 89.75,-35.5 0,-35.5"/>
<polygon fill="#666666" stroke="#666666" points="0,-18.75 0,-18.75 89.75,-18.75 89.75,-18.75 0,-18.75"/>
<polygon fill="none" stroke="#666666" points="0,0 0,-54.25 89.75,-54.25 89.75,0 0,0"/>
</a>
</g>
</g>
<!-- Node2 -->
<g id="Node000002" class="node">
<title>Node2</title>
<g id="a_Node000002"><a xlink:title=" ">
<polygon fill="white" stroke="none" points="68.38,-144.5 21.37,-144.5 21.37,-90.25 68.38,-90.25 68.38,-144.5"/>
<text xml:space="preserve" text-anchor="start" x="25.38" y="-130.75" font-family="Helvetica,sans-Serif" font-size="10.00">UObject</text>
<text xml:space="preserve" text-anchor="start" x="41.88" y="-114" font-family="Helvetica,sans-Serif" font-size="10.00"> </text>
<text xml:space="preserve" text-anchor="start" x="41.88" y="-97.25" font-family="Helvetica,sans-Serif" font-size="10.00"> </text>
<polygon fill="#666666" stroke="#666666" points="21.38,-125.75 21.38,-125.75 68.38,-125.75 68.38,-125.75 21.38,-125.75"/>
<polygon fill="#666666" stroke="#666666" points="21.38,-109 21.38,-109 68.38,-109 68.38,-109 21.38,-109"/>
<polygon fill="none" stroke="#666666" points="21.38,-90.25 21.38,-144.5 68.38,-144.5 68.38,-90.25 21.38,-90.25"/>
</a>
</g>
</g>
<!-- Node2&#45;&gt;Node1 -->
<g id="edge1_Node000001_Node000002" class="edge">
<title>Node2&#45;&gt;Node1</title>
<g id="a_edge1_Node000001_Node000002"><a xlink:title=" ">
<path fill="none" stroke="#63b8ff" d="M44.88,-78.96C44.88,-70.64 44.88,-61.99 44.88,-54.24"/>
<polygon fill="none" stroke="#63b8ff" points="41.38,-78.86 44.88,-88.86 48.38,-78.86 41.38,-78.86"/>
</a>
</g>
</g>
</g>
</svg>
