<?xml version="1.0" encoding="UTF-8" standalone="no"?>
<!DOCTYPE svg PUBLIC "-//W3C//DTD SVG 1.1//EN"
 "http://www.w3.org/Graphics/SVG/1.1/DTD/svg11.dtd">
<!-- Generated by graphviz version 14.1.4 (0)
 -->
<!-- Title: FLazyPrintf Pages: 1 -->
<svg width="139pt" height="129pt"
 viewBox="0.00 0.00 139.00 129.00" xmlns="http://www.w3.org/2000/svg" xmlns:xlink="http://www.w3.org/1999/xlink">
<g id="graph0" class="graph" transform="scale(1 1) rotate(0) translate(4 125.25)">
<title>FLazyPrintf</title>
<!-- Node1 -->
<g id="Node000001" class="node">
<title>Node1</title>
<g id="a_Node000001"><a xlink:title=" ">
<polygon fill="#999999" stroke="none" points="131.25,-121.25 0,-121.25 0,0 131.25,0 131.25,-121.25"/>
<text xml:space="preserve" text-anchor="start" x="38.25" y="-107.5" font-family="Helvetica,sans-Serif" font-size="10.00">FLazyPrintf</text>
<text xml:space="preserve" text-anchor="start" x="6.25" y="-90.75" font-family="Helvetica,sans-Serif" font-size="10.00">&#45;</text>
<text xml:space="preserve" text-anchor="start" x="16.25" y="-90.75" font-family="Helvetica,sans-Serif" font-size="10.00">CurrentInputPos</text>
<text xml:space="preserve" text-anchor="start" x="6.25" y="-74" font-family="Helvetica,sans-Serif" font-size="10.00">&#45;</text>
<text xml:space="preserve" text-anchor="start" x="16.25" y="-74" font-family="Helvetica,sans-Serif" font-size="10.00">CurrentState</text>
<text xml:space="preserve" text-anchor="start" x="4" y="-57.25" font-family="Helvetica,sans-Serif" font-size="10.00">+</text>
<text xml:space="preserve" text-anchor="start" x="16.25" y="-57.25" font-family="Helvetica,sans-Serif" font-size="10.00">FLazyPrintf()</text>
<text xml:space="preserve" text-anchor="start" x="4" y="-40.5" font-family="Helvetica,sans-Serif" font-size="10.00">+</text>
<text xml:space="preserve" text-anchor="start" x="16.25" y="-40.5" font-family="Helvetica,sans-Serif" font-size="10.00">GetResultString()</text>
<text xml:space="preserve" text-anchor="start" x="4" y="-23.75" font-family="Helvetica,sans-Serif" font-size="10.00">+</text>
<text xml:space="preserve" text-anchor="start" x="16.25" y="-23.75" font-family="Helvetica,sans-Serif" font-size="10.00">PushParam()</text>
<text xml:space="preserve" text-anchor="start" x="6.25" y="-7" font-family="Helvetica,sans-Serif" font-size="10.00">&#45;</text>
<text xml:space="preserve" text-anchor="start" x="16.25" y="-7" font-family="Helvetica,sans-Serif" font-size="10.00">ProcessUntilPercentS()</text>
<polygon fill="#666666" stroke="#666666" points="0,-102.5 0,-102.5 131.25,-102.5 131.25,-102.5 0,-102.5"/>
<polygon fill="#666666" stroke="#666666" points="0,-69 0,-69 14.25,-69 14.25,-69 0,-69"/>
<polygon fill="#666666" stroke="#666666" points="14.25,-69 14.25,-69 131.25,-69 131.25,-69 14.25,-69"/>
<polygon fill="none" stroke="#666666" points="0,0 0,-121.25 131.25,-121.25 131.25,0 0,0"/>
</a>
</g>
</g>
</g>
</svg>
