<?xml version="1.0" encoding="UTF-8" standalone="no"?>
<!DOCTYPE svg PUBLIC "-//W3C//DTD SVG 1.1//EN"
 "http://www.w3.org/Graphics/SVG/1.1/DTD/svg11.dtd">
<!-- Generated by graphviz version 14.1.4 (0)
 -->
<!-- Title: TLruCache::FindAndTouchRef Pages: 1 -->
<svg width="684pt" height="94pt"
 viewBox="0.00 0.00 684.00 94.00" xmlns="http://www.w3.org/2000/svg" xmlns:xlink="http://www.w3.org/1999/xlink">
<g id="graph0" class="graph" transform="scale(1 1) rotate(0) translate(4 89.5)">
<title>TLruCache::FindAndTouchRef</title>
<!-- Node1 -->
<g id="Node000001" class="node">
<title>Node1</title>
<g id="a_Node000001"><a xlink:title=" ">
<polygon fill="#999999" stroke="#666666" points="155.5,-53.12 0,-53.12 0,-32.38 155.5,-32.38 155.5,-53.12"/>
<text xml:space="preserve" text-anchor="middle" x="77.75" y="-39.62" font-family="Helvetica,sans-Serif" font-size="10.00">TLruCache::FindAndTouchRef</text>
</a>
</g>
</g>
<!-- Node2 -->
<g id="Node000002" class="node">
<title>Node2</title>
<g id="a_Node000002"><a xlink:href="$classTLruCache.html#a46c14bbed73512576c3197db25dacd2b" xlink:title=" ">
<polygon fill="white" stroke="#666666" points="335,-53.12 191.5,-53.12 191.5,-32.38 335,-32.38 335,-53.12"/>
<text xml:space="preserve" text-anchor="middle" x="263.25" y="-39.62" font-family="Helvetica,sans-Serif" font-size="10.00">TLruCache::MarkAsRecent</text>
</a>
</g>
</g>
<!-- Node1&#45;&gt;Node2 -->
<g id="edge1_Node000001_Node000002" class="edge">
<title>Node1&#45;&gt;Node2</title>
<g id="a_edge1_Node000001_Node000002"><a xlink:title=" ">
<path fill="none" stroke="#63b8ff" d="M155.77,-42.75C163.77,-42.75 171.93,-42.75 179.98,-42.75"/>
<polygon fill="#63b8ff" stroke="#63b8ff" points="179.76,-46.25 189.76,-42.75 179.76,-39.25 179.76,-46.25"/>
</a>
</g>
</g>
<!-- Node3 -->
<g id="Node000003" class="node">
<title>Node3</title>
<g id="a_Node000003"><a xlink:href="$structTLruCache_1_1FCacheEntry.html#aa829c19a492c788f84e0bcb8e5dcebf0" xlink:title=" ">
<polygon fill="white" stroke="#666666" points="505.5,-85.5 371,-85.5 371,-52 505.5,-52 505.5,-85.5"/>
<text xml:space="preserve" text-anchor="start" x="379" y="-72" font-family="Helvetica,sans-Serif" font-size="10.00">TLruCache::FCacheEntry</text>
<text xml:space="preserve" text-anchor="middle" x="438.25" y="-59.25" font-family="Helvetica,sans-Serif" font-size="10.00">::LinkBefore</text>
</a>
</g>
</g>
<!-- Node2&#45;&gt;Node3 -->
<g id="edge2_Node000002_Node000003" class="edge">
<title>Node2&#45;&gt;Node3</title>
<g id="a_edge2_Node000002_Node000003"><a xlink:title=" ">
<path fill="none" stroke="#63b8ff" d="M335.11,-53.4C343.11,-54.6 351.28,-55.83 359.36,-57.04"/>
<polygon fill="#63b8ff" stroke="#63b8ff" points="358.77,-60.49 369.18,-58.52 359.81,-53.57 358.77,-60.49"/>
</a>
</g>
</g>
<!-- Node5 -->
<g id="Node000005" class="node">
<title>Node5</title>
<g id="a_Node000005"><a xlink:href="$structTLruCache_1_1FCacheEntry.html#a8b571d31cb250703cc1ba08282e29298" xlink:title=" ">
<polygon fill="white" stroke="#666666" points="505.5,-33.5 371,-33.5 371,0 505.5,0 505.5,-33.5"/>
<text xml:space="preserve" text-anchor="start" x="379" y="-20" font-family="Helvetica,sans-Serif" font-size="10.00">TLruCache::FCacheEntry</text>
<text xml:space="preserve" text-anchor="middle" x="438.25" y="-7.25" font-family="Helvetica,sans-Serif" font-size="10.00">::Unlink</text>
</a>
</g>
</g>
<!-- Node2&#45;&gt;Node5 -->
<g id="edge4_Node000002_Node000005" class="edge">
<title>Node2&#45;&gt;Node5</title>
<g id="a_edge4_Node000002_Node000005"><a xlink:title=" ">
<path fill="none" stroke="#63b8ff" d="M335.11,-32.1C343.11,-30.9 351.28,-29.67 359.36,-28.46"/>
<polygon fill="#63b8ff" stroke="#63b8ff" points="359.81,-31.93 369.18,-26.98 358.77,-25.01 359.81,-31.93"/>
</a>
</g>
</g>
<!-- Node4 -->
<g id="Node000004" class="node">
<title>Node4</title>
<g id="a_Node000004"><a xlink:href="$structTLruCache_1_1FCacheEntry.html#ae6d1c18baa3217d8481c99c202a5dd04" xlink:title=" ">
<polygon fill="white" stroke="#666666" points="676,-85.5 541.5,-85.5 541.5,-52 676,-52 676,-85.5"/>
<text xml:space="preserve" text-anchor="start" x="549.5" y="-72" font-family="Helvetica,sans-Serif" font-size="10.00">TLruCache::FCacheEntry</text>
<text xml:space="preserve" text-anchor="middle" x="608.75" y="-59.25" font-family="Helvetica,sans-Serif" font-size="10.00">::FCacheEntry</text>
</a>
</g>
</g>
<!-- Node3&#45;&gt;Node4 -->
<g id="edge3_Node000003_Node000004" class="edge">
<title>Node3&#45;&gt;Node4</title>
<g id="a_edge3_Node000003_Node000004"><a xlink:title=" ">
<path fill="none" stroke="#63b8ff" d="M505.85,-68.75C513.72,-68.75 521.82,-68.75 529.83,-68.75"/>
<polygon fill="#63b8ff" stroke="#63b8ff" points="529.57,-72.25 539.57,-68.75 529.57,-65.25 529.57,-72.25"/>
</a>
</g>
</g>
</g>
</svg>
