<?xml version="1.0" encoding="UTF-8" standalone="no"?>
<!DOCTYPE svg PUBLIC "-//W3C//DTD SVG 1.1//EN"
 "http://www.w3.org/Graphics/SVG/1.1/DTD/svg11.dtd">
<!-- Generated by graphviz version 14.1.4 (0)
 -->
<!-- Title: FMemoryReaderView::FMemoryReaderView Pages: 1 -->
<svg width="308pt" height="68pt"
 viewBox="0.00 0.00 308.00 68.00" xmlns="http://www.w3.org/2000/svg" xmlns:xlink="http://www.w3.org/1999/xlink">
<g id="graph0" class="graph" transform="scale(1 1) rotate(0) translate(4 63.75)">
<title>FMemoryReaderView::FMemoryReaderView</title>
<!-- Node1 -->
<g id="Node000001" class="node">
<title>Node1</title>
<g id="a_Node000001"><a xlink:title=" ">
<polygon fill="#999999" stroke="#666666" points="127,-46.12 0,-46.12 0,-12.62 127,-12.62 127,-46.12"/>
<text xml:space="preserve" text-anchor="start" x="8" y="-32.62" font-family="Helvetica,sans-Serif" font-size="10.00">FMemoryReaderView::</text>
<text xml:space="preserve" text-anchor="middle" x="63.5" y="-19.88" font-family="Helvetica,sans-Serif" font-size="10.00">FMemoryReaderView</text>
</a>
</g>
</g>
<!-- Node2 -->
<g id="Node000002" class="node">
<title>Node2</title>
<g id="a_Node000002"><a xlink:href="$classFArchive.html#af14916438b24d8a329ecac6fd2edfc2d" xlink:title=" ">
<polygon fill="white" stroke="#666666" points="294.5,-59.75 168.25,-59.75 168.25,-39 294.5,-39 294.5,-59.75"/>
<text xml:space="preserve" text-anchor="middle" x="231.38" y="-46.25" font-family="Helvetica,sans-Serif" font-size="10.00">FArchive::SetIsLoading</text>
</a>
</g>
</g>
<!-- Node1&#45;&gt;Node2 -->
<g id="edge1_Node000001_Node000002" class="edge">
<title>Node1&#45;&gt;Node2</title>
<g id="a_edge1_Node000001_Node000002"><a xlink:title=" ">
<path fill="none" stroke="#63b8ff" d="M127.21,-36.94C136.77,-38.09 146.72,-39.29 156.49,-40.47"/>
<polygon fill="#63b8ff" stroke="#63b8ff" points="156,-43.93 166.35,-41.66 156.84,-36.98 156,-43.93"/>
</a>
</g>
</g>
<!-- Node3 -->
<g id="Node000003" class="node">
<title>Node3</title>
<g id="a_Node000003"><a xlink:href="$classFArchive.html#a7c40a5409ec45a40e1b631a458fd3075" xlink:title=" ">
<polygon fill="white" stroke="#666666" points="299.75,-20.75 163,-20.75 163,0 299.75,0 299.75,-20.75"/>
<text xml:space="preserve" text-anchor="middle" x="231.38" y="-7.25" font-family="Helvetica,sans-Serif" font-size="10.00">FArchive::SetIsPersistent</text>
</a>
</g>
</g>
<!-- Node1&#45;&gt;Node3 -->
<g id="edge2_Node000001_Node000003" class="edge">
<title>Node1&#45;&gt;Node3</title>
<g id="a_edge2_Node000001_Node000003"><a xlink:title=" ">
<path fill="none" stroke="#63b8ff" d="M127.21,-22.19C135.07,-21.29 143.18,-20.36 151.25,-19.44"/>
<polygon fill="#63b8ff" stroke="#63b8ff" points="151.55,-22.93 161.09,-18.31 150.75,-15.97 151.55,-22.93"/>
</a>
</g>
</g>
</g>
</svg>
