<?xml version="1.0" encoding="UTF-8" standalone="no"?>
<!DOCTYPE svg PUBLIC "-//W3C//DTD SVG 1.1//EN"
 "http://www.w3.org/Graphics/SVG/1.1/DTD/svg11.dtd">
<!-- Generated by graphviz version 14.1.4 (0)
 -->
<!-- Title: TDelegate&lt; InRetValType(ParamTypes...), UserPolicy &gt;::CreateSP Pages: 1 -->
<svg width="343pt" height="133pt"
 viewBox="0.00 0.00 343.00 133.00" xmlns="http://www.w3.org/2000/svg" xmlns:xlink="http://www.w3.org/1999/xlink">
<g id="graph0" class="graph" transform="scale(1 1) rotate(0) translate(4 128.5)">
<title>TDelegate&lt; InRetValType(ParamTypes...), UserPolicy &gt;::CreateSP</title>
<!-- Node1 -->
<g id="Node000001" class="node">
<title>Node1</title>
<g id="a_Node000001"><a xlink:title=" ">
<polygon fill="#999999" stroke="#666666" points="149.5,-98.25 0,-98.25 0,-52 149.5,-52 149.5,-98.25"/>
<text xml:space="preserve" text-anchor="start" x="8" y="-84.75" font-family="Helvetica,sans-Serif" font-size="10.00">TDelegate&lt; InRetValType</text>
<text xml:space="preserve" text-anchor="start" x="8" y="-72" font-family="Helvetica,sans-Serif" font-size="10.00">(ParamTypes...), UserPolicy</text>
<text xml:space="preserve" text-anchor="middle" x="74.75" y="-59.25" font-family="Helvetica,sans-Serif" font-size="10.00"> &gt;::CreateSP</text>
</a>
</g>
</g>
<!-- Node2 -->
<g id="Node000002" class="node">
<title>Node2</title>
<g id="a_Node000002"><a xlink:href="$UnrealTemplate_8h.html#aea228b8b6d93b902d974d3bfa72f888f" xlink:title=" ">
<polygon fill="white" stroke="#666666" points="287.75,-124.5 232.75,-124.5 232.75,-103.75 287.75,-103.75 287.75,-124.5"/>
<text xml:space="preserve" text-anchor="middle" x="260.25" y="-111" font-family="Helvetica,sans-Serif" font-size="10.00">Forward</text>
</a>
</g>
</g>
<!-- Node1&#45;&gt;Node2 -->
<g id="edge1_Node000001_Node000002" class="edge">
<title>Node1&#45;&gt;Node2</title>
<g id="a_edge1_Node000001_Node000002"><a xlink:title=" ">
<path fill="none" stroke="#63b8ff" d="M149.86,-90.88C174.42,-96.1 200.73,-101.69 221.39,-106.08"/>
<polygon fill="#63b8ff" stroke="#63b8ff" points="220.56,-109.48 231.07,-108.14 222.01,-102.63 220.56,-109.48"/>
</a>
</g>
</g>
<!-- Node3 -->
<g id="Node000003" class="node">
<title>Node3</title>
<g id="a_Node000003"><a xlink:href="$SharedPointer_8h.html#a495418f2c99af5e06c6efcc59824c91d" xlink:title=" ">
<polygon fill="white" stroke="#666666" points="318.12,-85.5 202.38,-85.5 202.38,-64.75 318.12,-64.75 318.12,-85.5"/>
<text xml:space="preserve" text-anchor="middle" x="260.25" y="-72" font-family="Helvetica,sans-Serif" font-size="10.00">StaticCastSharedRef</text>
</a>
</g>
</g>
<!-- Node1&#45;&gt;Node3 -->
<g id="edge2_Node000001_Node000003" class="edge">
<title>Node1&#45;&gt;Node3</title>
<g id="a_edge2_Node000001_Node000003"><a xlink:title=" ">
<path fill="none" stroke="#63b8ff" d="M149.86,-75.12C163.32,-75.12 177.31,-75.12 190.61,-75.12"/>
<polygon fill="#63b8ff" stroke="#63b8ff" points="190.57,-78.63 200.57,-75.13 190.57,-71.63 190.57,-78.63"/>
</a>
</g>
</g>
<!-- Node4 -->
<g id="Node000004" class="node">
<title>Node4</title>
<g id="a_Node000004"><a xlink:href="$classTDelegate_3_01InRetValType_07ParamTypes_8_8_8_08_00_01UserPolicy_01_4.html#a5e6d64c62432a0172cd44053cb95ffd9" xlink:title=" ">
<polygon fill="white" stroke="#666666" points="335,-46.25 185.5,-46.25 185.5,0 335,0 335,-46.25"/>
<text xml:space="preserve" text-anchor="start" x="193.5" y="-32.75" font-family="Helvetica,sans-Serif" font-size="10.00">TDelegate&lt; InRetValType</text>
<text xml:space="preserve" text-anchor="start" x="193.5" y="-20" font-family="Helvetica,sans-Serif" font-size="10.00">(ParamTypes...), UserPolicy</text>
<text xml:space="preserve" text-anchor="middle" x="260.25" y="-7.25" font-family="Helvetica,sans-Serif" font-size="10.00"> &gt;::TDelegate</text>
</a>
</g>
</g>
<!-- Node1&#45;&gt;Node4 -->
<g id="edge3_Node000001_Node000004" class="edge">
<title>Node1&#45;&gt;Node4</title>
<g id="a_edge3_Node000001_Node000004"><a xlink:title=" ">
<path fill="none" stroke="#63b8ff" d="M149.86,-54.12C157.86,-51.86 166.05,-49.54 174.16,-47.24"/>
<polygon fill="#63b8ff" stroke="#63b8ff" points="175.04,-50.63 183.71,-44.53 173.13,-43.89 175.04,-50.63"/>
</a>
</g>
</g>
</g>
</svg>
