<?xml version="1.0" encoding="UTF-8" standalone="no"?>
<!DOCTYPE svg PUBLIC "-//W3C//DTD SVG 1.1//EN"
 "http://www.w3.org/Graphics/SVG/1.1/DTD/svg11.dtd">
<!-- Generated by graphviz version 14.1.4 (0)
 -->
<!-- Title: TRangeSet::GetMaxBound Pages: 1 -->
<svg width="359pt" height="68pt"
 viewBox="0.00 0.00 359.00 68.00" xmlns="http://www.w3.org/2000/svg" xmlns:xlink="http://www.w3.org/1999/xlink">
<g id="graph0" class="graph" transform="scale(1 1) rotate(0) translate(4 63.75)">
<title>TRangeSet::GetMaxBound</title>
<!-- Node1 -->
<g id="Node000001" class="node">
<title>Node1</title>
<g id="a_Node000001"><a xlink:title=" ">
<polygon fill="#999999" stroke="#666666" points="350.75,-39.75 207.25,-39.75 207.25,-19 350.75,-19 350.75,-39.75"/>
<text xml:space="preserve" text-anchor="middle" x="279" y="-26.25" font-family="Helvetica,sans-Serif" font-size="10.00">TRangeSet::GetMaxBound</text>
</a>
</g>
</g>
<!-- Node2 -->
<g id="Node000002" class="node">
<title>Node2</title>
<g id="a_Node000002"><a xlink:href="$classTRangeSet.html#ae117c3131d0df94511dd5ecd59f0fdca" xlink:title=" ">
<polygon fill="white" stroke="#666666" points="171.25,-59.75 0,-59.75 0,-39 171.25,-39 171.25,-59.75"/>
<text xml:space="preserve" text-anchor="middle" x="85.62" y="-46.25" font-family="Helvetica,sans-Serif" font-size="10.00">TRangeSet::GetMaxBoundValue</text>
</a>
</g>
</g>
<!-- Node1&#45;&gt;Node2 -->
<g id="edge1_Node000001_Node000002" class="edge">
<title>Node1&#45;&gt;Node2</title>
<g id="a_edge1_Node000001_Node000002"><a xlink:title=" ">
<path fill="none" stroke="#63b8ff" d="M195.56,-37.99C187.67,-38.81 179.66,-39.65 171.74,-40.48"/>
<polygon fill="#63b8ff" stroke="#63b8ff" points="195.92,-41.47 205.51,-36.95 195.2,-34.51 195.92,-41.47"/>
</a>
</g>
</g>
<!-- Node3 -->
<g id="Node000003" class="node">
<title>Node3</title>
<g id="a_Node000003"><a xlink:href="$classTRangeSet.html#a056fa31907de71c0b3e1d8e29b56b25e" xlink:title=" ">
<polygon fill="white" stroke="#666666" points="158.12,-20.75 13.12,-20.75 13.12,0 158.12,0 158.12,-20.75"/>
<text xml:space="preserve" text-anchor="middle" x="85.62" y="-7.25" font-family="Helvetica,sans-Serif" font-size="10.00">TRangeSet::HasMaxBound</text>
</a>
</g>
</g>
<!-- Node1&#45;&gt;Node3 -->
<g id="edge2_Node000001_Node000003" class="edge">
<title>Node1&#45;&gt;Node3</title>
<g id="a_edge2_Node000001_Node000003"><a xlink:title=" ">
<path fill="none" stroke="#63b8ff" d="M195.73,-21.21C183.33,-19.98 170.62,-18.71 158.46,-17.51"/>
<polygon fill="#63b8ff" stroke="#63b8ff" points="195.21,-24.67 205.5,-22.18 195.9,-17.71 195.21,-24.67"/>
</a>
</g>
</g>
</g>
</svg>
