<?xml version="1.0" encoding="UTF-8" standalone="no"?>
<!DOCTYPE svg PUBLIC "-//W3C//DTD SVG 1.1//EN"
 "http://www.w3.org/Graphics/SVG/1.1/DTD/svg11.dtd">
<!-- Generated by graphviz version 14.1.4 (0)
 -->
<!-- Title: UCharacterMovementComponent::ClientAckGoodMove Pages: 1 -->
<svg width="403pt" height="60pt"
 viewBox="0.00 0.00 403.00 60.00" xmlns="http://www.w3.org/2000/svg" xmlns:xlink="http://www.w3.org/1999/xlink">

<svg id="main" version="1.1" xmlns="http://www.w3.org/2000/svg" xmlns:xlink="http://www.w3.org/1999/xlink" xml:space="preserve">

<style type="text/css"><![CDATA[
.node, .edge {opacity: 0.7;}
.node.selected, .edge.selected {opacity: 1;}
.edge:hover path { stroke: red; }
.edge:hover polygon { stroke: red; fill: red; }
]]></style>
<script type="application/ecmascript" xlink:href="svg.min.js"/>
<svg id="graph" class="graph">
<g id="graph0" class="graph" transform="scale(1 1) rotate(0) translate(4 55.5)">
<title>UCharacterMovementComponent::ClientAckGoodMove</title>
<!-- Node1 -->
<g id="Node000001" class="node">
<title>Node1</title>
<g id="a_Node000001"><a xlink:title=" ">
<polygon fill="#999999" stroke="#666666" points="395,-33.5 215.5,-33.5 215.5,0 395,0 395,-33.5"/>
<text xml:space="preserve" text-anchor="start" x="223.5" y="-20" font-family="Helvetica,sans-Serif" font-size="10.00">UCharacterMovementComponent</text>
<text xml:space="preserve" text-anchor="middle" x="305.25" y="-7.25" font-family="Helvetica,sans-Serif" font-size="10.00">::ClientAckGoodMove</text>
</a>
</g>
</g>
<!-- Node1&#45;&gt;Node1 -->
<g id="edge1_Node000001_Node000001" class="edge">
<title>Node1&#45;&gt;Node1</title>
<g id="a_edge1_Node000001_Node000001"><a xlink:title=" ">
<path fill="none" stroke="#63b8ff" d="M341.19,-45.05C335.21,-48.92 323.23,-51.5 305.25,-51.5 272.84,-51.5 259.93,-43.12 266.51,-33.91"/>
<polygon fill="#63b8ff" stroke="#63b8ff" points="344.57,-45.93 343.62,-35.38 337.78,-44.23 344.57,-45.93"/>
</a>
</g>
</g>
<!-- Node2 -->
<g id="Node000002" class="node">
<title>Node2</title>
<g id="a_Node000002"><a xlink:href="classUCharacterMovementComponent.html#ae5cd60c77426a5c81624471232a62180" target="_top" xlink:title=" ">
<polygon fill="white" stroke="#666666" points="179.5,-33.5 0,-33.5 0,0 179.5,0 179.5,-33.5"/>
<text xml:space="preserve" text-anchor="start" x="8" y="-20" font-family="Helvetica,sans-Serif" font-size="10.00">UCharacterMovementComponent</text>
<text xml:space="preserve" text-anchor="middle" x="89.75" y="-7.25" font-family="Helvetica,sans-Serif" font-size="10.00">::ServerMoveOld_Validate</text>
</a>
</g>
</g>
<!-- Node1&#45;&gt;Node2 -->
<g id="edge2_Node000001_Node000002" class="edge">
<title>Node1&#45;&gt;Node2</title>
<g id="a_edge2_Node000001_Node000002"><a xlink:title=" ">
<path fill="none" stroke="#63b8ff" d="M203.97,-16.75C195.95,-16.75 187.88,-16.75 179.95,-16.75"/>
<polygon fill="#63b8ff" stroke="#63b8ff" points="203.74,-20.25 213.74,-16.75 203.74,-13.25 203.74,-20.25"/>
</a>
</g>
</g>
<!-- Node2&#45;&gt;Node2 -->
<g id="edge3_Node000002_Node000002" class="edge">
<title>Node2&#45;&gt;Node2</title>
<g id="a_edge3_Node000002_Node000002"><a xlink:title=" ">
<path fill="none" stroke="#63b8ff" d="M125.69,-45.05C119.71,-48.92 107.73,-51.5 89.75,-51.5 57.34,-51.5 44.43,-43.12 51.01,-33.91"/>
<polygon fill="#63b8ff" stroke="#63b8ff" points="129.07,-45.93 128.12,-35.38 122.28,-44.23 129.07,-45.93"/>
</a>
</g>
</g>
</g>
</svg>
</svg>

<style type='text/css'>
<![CDATA[
[data-mouse-over-selected='false'] { opacity: 0.7; }
[data-mouse-over-selected='true']  { opacity: 1.0; }
]]>
</style>
<script type="application/ecmascript"><![CDATA[
document.addEventListener('DOMContentLoaded', (event) => {
  highlightEdges();
  highlightAdjacentNodes();
});
]]></script>
</svg>
