<?xml version="1.0" encoding="UTF-8" standalone="no"?>
<!DOCTYPE svg PUBLIC "-//W3C//DTD SVG 1.1//EN"
 "http://www.w3.org/Graphics/SVG/1.1/DTD/svg11.dtd">
<!-- Generated by graphviz version 14.1.4 (0)
 -->
<!-- Title: FQueuedLowLevelThreadPool::Destroy Pages: 1 -->
<svg width="364pt" height="106pt"
 viewBox="0.00 0.00 364.00 106.00" xmlns="http://www.w3.org/2000/svg" xmlns:xlink="http://www.w3.org/1999/xlink">
<g id="graph0" class="graph" transform="scale(1 1) rotate(0) translate(4 101.88)">
<title>FQueuedLowLevelThreadPool::Destroy</title>
<!-- Node1 -->
<g id="Node000001" class="node">
<title>Node1</title>
<g id="a_Node000001"><a xlink:title=" ">
<polygon fill="#999999" stroke="#666666" points="160,-68.88 0,-68.88 0,-35.38 160,-35.38 160,-68.88"/>
<text xml:space="preserve" text-anchor="start" x="8" y="-55.38" font-family="Helvetica,sans-Serif" font-size="10.00">FQueuedLowLevelThreadPool</text>
<text xml:space="preserve" text-anchor="middle" x="80" y="-42.62" font-family="Helvetica,sans-Serif" font-size="10.00">::Destroy</text>
</a>
</g>
</g>
<!-- Node2 -->
<g id="Node000002" class="node">
<title>Node2</title>
<g id="a_Node000002"><a xlink:href="$classFQueuedLowLevelThreadPool.html#af7974984f4c087eb10a9ef531e75f311" xlink:title=" ">
<polygon fill="white" stroke="#666666" points="356,-97.88 196,-97.88 196,-64.38 356,-64.38 356,-97.88"/>
<text xml:space="preserve" text-anchor="start" x="204" y="-84.38" font-family="Helvetica,sans-Serif" font-size="10.00">FQueuedLowLevelThreadPool</text>
<text xml:space="preserve" text-anchor="middle" x="276" y="-71.62" font-family="Helvetica,sans-Serif" font-size="10.00">::Dequeue</text>
</a>
</g>
</g>
<!-- Node1&#45;&gt;Node2 -->
<g id="edge1_Node000001_Node000002" class="edge">
<title>Node1&#45;&gt;Node2</title>
<g id="a_edge1_Node000001_Node000002"><a xlink:title=" ">
<path fill="none" stroke="#63b8ff" d="M160.47,-64C168.36,-65.18 176.42,-66.39 184.41,-67.58"/>
<polygon fill="#63b8ff" stroke="#63b8ff" points="183.75,-71.02 194.16,-69.04 184.79,-64.1 183.75,-71.02"/>
</a>
</g>
</g>
<!-- Node3 -->
<g id="Node000003" class="node">
<title>Node3</title>
<g id="a_Node000003"><a xlink:href="$structFQueuedLowLevelThreadPool_1_1FQueuedWorkInternalData.html#a965d9868dd5877c2adce2bf684c6b5b6" xlink:title=" ">
<polygon fill="white" stroke="#666666" points="356,-46.25 196,-46.25 196,0 356,0 356,-46.25"/>
<text xml:space="preserve" text-anchor="start" x="204" y="-32.75" font-family="Helvetica,sans-Serif" font-size="10.00">FQueuedLowLevelThreadPool</text>
<text xml:space="preserve" text-anchor="start" x="204" y="-20" font-family="Helvetica,sans-Serif" font-size="10.00">::FQueuedWorkInternalData</text>
<text xml:space="preserve" text-anchor="middle" x="276" y="-7.25" font-family="Helvetica,sans-Serif" font-size="10.00">::Retract</text>
</a>
</g>
</g>
<!-- Node1&#45;&gt;Node3 -->
<g id="edge2_Node000001_Node000003" class="edge">
<title>Node1&#45;&gt;Node3</title>
<g id="a_edge2_Node000001_Node000003"><a xlink:title=" ">
<path fill="none" stroke="#63b8ff" d="M160.47,-40.25C168.36,-39.07 176.42,-37.86 184.41,-36.67"/>
<polygon fill="#63b8ff" stroke="#63b8ff" points="184.79,-40.15 194.16,-35.21 183.75,-33.23 184.79,-40.15"/>
</a>
</g>
</g>
</g>
</svg>
