<?xml version="1.0" encoding="UTF-8" standalone="no"?>
<!DOCTYPE svg PUBLIC "-//W3C//DTD SVG 1.1//EN"
 "http://www.w3.org/Graphics/SVG/1.1/DTD/svg11.dtd">
<!-- Generated by graphviz version 14.1.4 (0)
 -->
<!-- Title: FName::ToString Pages: 1 -->
<svg width="552pt" height="622pt"
 viewBox="0.00 0.00 552.00 622.00" xmlns="http://www.w3.org/2000/svg" xmlns:xlink="http://www.w3.org/1999/xlink">
<g id="graph0" class="graph" transform="scale(1 1) rotate(0) translate(4 618.38)">
<title>FName::ToString</title>
<!-- Node1 -->
<g id="Node000001" class="node">
<title>Node1</title>
<g id="a_Node000001"><a xlink:title=" ">
<polygon fill="#999999" stroke="#666666" points="543.75,-324.25 447.5,-324.25 447.5,-303.5 543.75,-303.5 543.75,-324.25"/>
<text xml:space="preserve" text-anchor="middle" x="495.62" y="-310.75" font-family="Helvetica,sans-Serif" font-size="10.00">FName::ToString</text>
</a>
</g>
</g>
<!-- Node2 -->
<g id="Node000002" class="node">
<title>Node2</title>
<g id="a_Node000002"><a xlink:href="$classTBaseDynamicDelegate.html#a8b6c191b04d133ecb5375559704151f4" xlink:title=" ">
<polygon fill="white" stroke="#666666" points="398,-614.38 214.75,-614.38 214.75,-555.38 398,-555.38 398,-614.38"/>
<text xml:space="preserve" text-anchor="start" x="222.75" y="-600.88" font-family="Helvetica,sans-Serif" font-size="10.00">TBaseDynamicDelegate</text>
<text xml:space="preserve" text-anchor="start" x="222.75" y="-588.12" font-family="Helvetica,sans-Serif" font-size="10.00">&lt; ThreadSafetyMode, RetValType,</text>
<text xml:space="preserve" text-anchor="start" x="222.75" y="-575.38" font-family="Helvetica,sans-Serif" font-size="10.00"> ParamTypes... &gt;::__Internal</text>
<text xml:space="preserve" text-anchor="middle" x="306.38" y="-562.62" font-family="Helvetica,sans-Serif" font-size="10.00">_BindDynamic</text>
</a>
</g>
</g>
<!-- Node1&#45;&gt;Node2 -->
<g id="edge1_Node000001_Node000002" class="edge">
<title>Node1&#45;&gt;Node2</title>
<g id="a_edge1_Node000001_Node000002"><a xlink:title=" ">
<path fill="none" stroke="#63b8ff" d="M492.88,-336.04C488.12,-381.69 470.98,-486.97 411.5,-546.88 407.43,-550.97 402.89,-554.63 398.04,-557.9"/>
<polygon fill="#63b8ff" stroke="#63b8ff" points="496.36,-336.38 493.8,-326.1 489.39,-335.74 496.36,-336.38"/>
</a>
</g>
</g>
<!-- Node3 -->
<g id="Node000003" class="node">
<title>Node3</title>
<g id="a_Node000003"><a xlink:href="$structFDynamicStats.html#a0e157b63518ffc1e7fc402baf316fcc1" xlink:title=" ">
<polygon fill="white" stroke="#666666" points="390.88,-537.62 221.88,-537.62 221.88,-504.12 390.88,-504.12 390.88,-537.62"/>
<text xml:space="preserve" text-anchor="start" x="229.88" y="-524.12" font-family="Helvetica,sans-Serif" font-size="10.00">FDynamicStats::CreateMemory</text>
<text xml:space="preserve" text-anchor="middle" x="306.38" y="-511.38" font-family="Helvetica,sans-Serif" font-size="10.00">StatId</text>
</a>
</g>
</g>
<!-- Node1&#45;&gt;Node3 -->
<g id="edge2_Node000001_Node000003" class="edge">
<title>Node1&#45;&gt;Node3</title>
<g id="a_edge2_Node000001_Node000003"><a xlink:title=" ">
<path fill="none" stroke="#63b8ff" d="M490.93,-335.66C483.27,-373.9 461.95,-453.02 411.5,-494.88 405.41,-499.93 398.46,-504.02 391.13,-507.34"/>
<polygon fill="#63b8ff" stroke="#63b8ff" points="494.37,-336.33 492.75,-325.86 487.48,-335.05 494.37,-336.33"/>
</a>
</g>
</g>
<!-- Node4 -->
<g id="Node000004" class="node">
<title>Node4</title>
<g id="a_Node000004"><a xlink:href="$classUEdGraphNode.html#af007ed6307f5adc867dc03378d95b3b4" xlink:title=" ">
<polygon fill="white" stroke="#666666" points="387.88,-485.62 224.88,-485.62 224.88,-452.12 387.88,-452.12 387.88,-485.62"/>
<text xml:space="preserve" text-anchor="start" x="232.88" y="-472.12" font-family="Helvetica,sans-Serif" font-size="10.00">UEdGraphNode::CreateUnique</text>
<text xml:space="preserve" text-anchor="middle" x="306.38" y="-459.38" font-family="Helvetica,sans-Serif" font-size="10.00">PinName</text>
</a>
</g>
</g>
<!-- Node1&#45;&gt;Node4 -->
<g id="edge3_Node000001_Node000004" class="edge">
<title>Node1&#45;&gt;Node4</title>
<g id="a_edge3_Node000001_Node000004"><a xlink:title=" ">
<path fill="none" stroke="#63b8ff" d="M486.82,-335.04C475.05,-363.95 449.96,-415.33 411.5,-442.88 404.46,-447.92 396.54,-451.99 388.29,-455.27"/>
<polygon fill="#63b8ff" stroke="#63b8ff" points="490.01,-336.49 490.38,-325.9 483.49,-333.95 490.01,-336.49"/>
</a>
</g>
</g>
<!-- Node5 -->
<g id="Node000005" class="node">
<title>Node5</title>
<g id="a_Node000005"><a xlink:href="$classUCurveTable.html#a9c789ee47d509656f3ac3020a10b06d9" xlink:title=" ">
<polygon fill="white" stroke="#666666" points="372.12,-434.25 240.62,-434.25 240.62,-413.5 372.12,-413.5 372.12,-434.25"/>
<text xml:space="preserve" text-anchor="middle" x="306.38" y="-420.75" font-family="Helvetica,sans-Serif" font-size="10.00">UCurveTable::FindCurve</text>
</a>
</g>
</g>
<!-- Node1&#45;&gt;Node5 -->
<g id="edge4_Node000001_Node000005" class="edge">
<title>Node1&#45;&gt;Node5</title>
<g id="a_edge4_Node000001_Node000005"><a xlink:title=" ">
<path fill="none" stroke="#63b8ff" d="M481.79,-334.06C467.34,-354.99 441.87,-386.99 411.5,-403.88 399.59,-410.49 385.87,-414.96 372.38,-417.96"/>
<polygon fill="#63b8ff" stroke="#63b8ff" points="484.67,-336.04 487.3,-325.78 478.84,-332.16 484.67,-336.04"/>
</a>
</g>
</g>
<!-- Node8 -->
<g id="Node000008" class="node">
<title>Node8</title>
<g id="a_Node000008"><a xlink:href="$classUDataTable.html#ac85f0d4c127001f02d3624c333bd878d" xlink:title=" ">
<polygon fill="white" stroke="#666666" points="365.75,-395.25 247,-395.25 247,-374.5 365.75,-374.5 365.75,-395.25"/>
<text xml:space="preserve" text-anchor="middle" x="306.38" y="-381.75" font-family="Helvetica,sans-Serif" font-size="10.00">UDataTable::FindRow</text>
</a>
</g>
</g>
<!-- Node1&#45;&gt;Node8 -->
<g id="edge7_Node000001_Node000008" class="edge">
<title>Node1&#45;&gt;Node8</title>
<g id="a_edge7_Node000001_Node000008"><a xlink:title=" ">
<path fill="none" stroke="#63b8ff" d="M471.99,-331.35C455.94,-342.88 433.45,-357.37 411.5,-365.88 397.19,-371.42 381.14,-375.37 366.01,-378.17"/>
<polygon fill="#63b8ff" stroke="#63b8ff" points="473.9,-334.29 479.86,-325.53 469.74,-328.66 473.9,-334.29"/>
</a>
</g>
</g>
<!-- Node10 -->
<g id="Node000010" class="node">
<title>Node10</title>
<g id="a_Node000010"><a xlink:href="$classUBlueprint.html#ab25cecc282f053df3a381daf030a861a" xlink:title=" ">
<polygon fill="white" stroke="#666666" points="374,-356.62 238.75,-356.62 238.75,-323.12 374,-323.12 374,-356.62"/>
<text xml:space="preserve" text-anchor="start" x="246.75" y="-343.12" font-family="Helvetica,sans-Serif" font-size="10.00">UBlueprint::GetBlueprint</text>
<text xml:space="preserve" text-anchor="middle" x="306.38" y="-330.38" font-family="Helvetica,sans-Serif" font-size="10.00">CDONames</text>
</a>
</g>
</g>
<!-- Node1&#45;&gt;Node10 -->
<g id="edge9_Node000001_Node000010" class="edge">
<title>Node1&#45;&gt;Node10</title>
<g id="a_edge9_Node000001_Node000010"><a xlink:title=" ">
<path fill="none" stroke="#63b8ff" d="M436.15,-321.99C416.58,-324.71 394.6,-327.76 374.41,-330.57"/>
<polygon fill="#63b8ff" stroke="#63b8ff" points="436.45,-325.49 445.87,-320.64 435.49,-318.55 436.45,-325.49"/>
</a>
</g>
</g>
<!-- Node11 -->
<g id="Node000011" class="node">
<title>Node11</title>
<g id="a_Node000011"><a xlink:href="$classUBlueprint.html#ac7e1ee548c86a3dd8c53fe59a97ce09e" xlink:title=" ">
<polygon fill="white" stroke="#666666" points="374,-304.62 238.75,-304.62 238.75,-271.12 374,-271.12 374,-304.62"/>
<text xml:space="preserve" text-anchor="start" x="246.75" y="-291.12" font-family="Helvetica,sans-Serif" font-size="10.00">UBlueprint::GetBlueprint</text>
<text xml:space="preserve" text-anchor="middle" x="306.38" y="-278.38" font-family="Helvetica,sans-Serif" font-size="10.00">ClassNames</text>
</a>
</g>
</g>
<!-- Node1&#45;&gt;Node11 -->
<g id="edge10_Node000001_Node000011" class="edge">
<title>Node1&#45;&gt;Node11</title>
<g id="a_edge10_Node000001_Node000011"><a xlink:title=" ">
<path fill="none" stroke="#63b8ff" d="M436.15,-305.76C416.58,-303.04 394.6,-299.99 374.41,-297.18"/>
<polygon fill="#63b8ff" stroke="#63b8ff" points="435.49,-309.2 445.87,-307.11 436.45,-302.26 435.49,-309.2"/>
</a>
</g>
</g>
<!-- Node12 -->
<g id="Node000012" class="node">
<title>Node12</title>
<g id="a_Node000012"><a xlink:href="$classFModuleManager.html#ad6b07e263e8862f6f71891440a632208" xlink:title=" ">
<polygon fill="white" stroke="#666666" points="386.38,-252.62 226.38,-252.62 226.38,-219.12 386.38,-219.12 386.38,-252.62"/>
<text xml:space="preserve" text-anchor="start" x="234.38" y="-239.12" font-family="Helvetica,sans-Serif" font-size="10.00">FModuleManager::GetModule</text>
<text xml:space="preserve" text-anchor="middle" x="306.38" y="-226.38" font-family="Helvetica,sans-Serif" font-size="10.00">Checked</text>
</a>
</g>
</g>
<!-- Node1&#45;&gt;Node12 -->
<g id="edge11_Node000001_Node000012" class="edge">
<title>Node1&#45;&gt;Node12</title>
<g id="a_edge11_Node000001_Node000012"><a xlink:title=" ">
<path fill="none" stroke="#63b8ff" d="M471.52,-296.64C455.41,-285.34 433.04,-271.03 411.5,-261.88 403.61,-258.52 395.2,-255.54 386.7,-252.89"/>
<polygon fill="#63b8ff" stroke="#63b8ff" points="469.28,-299.34 479.44,-302.33 473.36,-293.65 469.28,-299.34"/>
</a>
</g>
</g>
<!-- Node13 -->
<g id="Node000013" class="node">
<title>Node13</title>
<g id="a_Node000013"><a xlink:href="$structFRandomStream.html#a63d05c8eb066a460631188e7bc949d15" xlink:title=" ">
<polygon fill="white" stroke="#666666" points="379.25,-201.25 233.5,-201.25 233.5,-180.5 379.25,-180.5 379.25,-201.25"/>
<text xml:space="preserve" text-anchor="middle" x="306.38" y="-187.75" font-family="Helvetica,sans-Serif" font-size="10.00">FRandomStream::Initialize</text>
</a>
</g>
</g>
<!-- Node1&#45;&gt;Node13 -->
<g id="edge12_Node000001_Node000013" class="edge">
<title>Node1&#45;&gt;Node13</title>
<g id="a_edge12_Node000001_Node000013"><a xlink:title=" ">
<path fill="none" stroke="#63b8ff" d="M484.2,-293.36C470.81,-269.26 445.23,-230.02 411.5,-209.88 401.8,-204.08 390.75,-199.97 379.56,-197.08"/>
<polygon fill="#63b8ff" stroke="#63b8ff" points="480.97,-294.74 488.76,-301.91 487.14,-291.44 480.97,-294.74"/>
</a>
</g>
</g>
<!-- Node14 -->
<g id="Node000014" class="node">
<title>Node14</title>
<g id="a_Node000014"><a xlink:href="$classFMemoryArchive.html#ac6184172b81e7714914a209788721ef8" xlink:title=" ">
<polygon fill="white" stroke="#666666" points="387.88,-162.25 224.88,-162.25 224.88,-141.5 387.88,-141.5 387.88,-162.25"/>
<text xml:space="preserve" text-anchor="middle" x="306.38" y="-148.75" font-family="Helvetica,sans-Serif" font-size="10.00">FMemoryArchive::operator&lt;&lt;</text>
</a>
</g>
</g>
<!-- Node1&#45;&gt;Node14 -->
<g id="edge13_Node000001_Node000014" class="edge">
<title>Node1&#45;&gt;Node14</title>
<g id="a_edge13_Node000001_Node000014"><a xlink:title=" ">
<path fill="none" stroke="#63b8ff" d="M488.41,-292.55C478,-260.86 453.9,-201.85 411.5,-171.88 404.44,-166.88 396.46,-163.04 388.13,-160.11"/>
<polygon fill="#63b8ff" stroke="#63b8ff" points="484.97,-293.29 491.29,-301.79 491.65,-291.21 484.97,-293.29"/>
</a>
</g>
</g>
<!-- Node15 -->
<g id="Node000015" class="node">
<title>Node15</title>
<g id="a_Node000015"><a xlink:href="$classUTexture2DArray.html#a2a811cf81970cc12c10ad70e74ffbc75" xlink:title=" ">
<polygon fill="white" stroke="#666666" points="378.5,-123.62 234.25,-123.62 234.25,-90.12 378.5,-90.12 378.5,-123.62"/>
<text xml:space="preserve" text-anchor="start" x="242.25" y="-110.12" font-family="Helvetica,sans-Serif" font-size="10.00">UTexture2DArray::PostEdit</text>
<text xml:space="preserve" text-anchor="middle" x="306.38" y="-97.38" font-family="Helvetica,sans-Serif" font-size="10.00">ChangeProperty</text>
</a>
</g>
</g>
<!-- Node1&#45;&gt;Node15 -->
<g id="edge14_Node000001_Node000015" class="edge">
<title>Node1&#45;&gt;Node15</title>
<g id="a_edge14_Node000001_Node000015"><a xlink:title=" ">
<path fill="none" stroke="#63b8ff" d="M490.93,-292.09C483.27,-253.85 461.95,-174.73 411.5,-132.88 402.11,-125.08 390.7,-119.58 378.93,-115.7"/>
<polygon fill="#63b8ff" stroke="#63b8ff" points="487.48,-292.7 492.75,-301.89 494.37,-291.42 487.48,-292.7"/>
</a>
</g>
</g>
<!-- Node16 -->
<g id="Node000016" class="node">
<title>Node16</title>
<g id="a_Node000016"><a xlink:href="$classTScriptDelegate.html#ade6904b4ac99e3adab5cf22f3a7733ee" xlink:title=" ">
<polygon fill="white" stroke="#666666" points="411.5,-71.75 201.25,-71.75 201.25,0 411.5,0 411.5,-71.75"/>
<text xml:space="preserve" text-anchor="start" x="209.25" y="-58.25" font-family="Helvetica,sans-Serif" font-size="10.00">TScriptDelegate&lt; typename</text>
<text xml:space="preserve" text-anchor="start" x="209.25" y="-45.5" font-family="Helvetica,sans-Serif" font-size="10.00"> UE::Core::Private::TScriptDelegate</text>
<text xml:space="preserve" text-anchor="start" x="209.25" y="-32.75" font-family="Helvetica,sans-Serif" font-size="10.00">Traits&lt; InThreadSafetyMode &gt;::</text>
<text xml:space="preserve" text-anchor="start" x="209.25" y="-20" font-family="Helvetica,sans-Serif" font-size="10.00">UnicastThreadSafetyModeForMulticasts</text>
<text xml:space="preserve" text-anchor="middle" x="306.38" y="-7.25" font-family="Helvetica,sans-Serif" font-size="10.00"> &gt;::ToString</text>
</a>
</g>
</g>
<!-- Node1&#45;&gt;Node16 -->
<g id="edge15_Node000001_Node000016" class="edge">
<title>Node1&#45;&gt;Node16</title>
<g id="a_edge15_Node000001_Node000016"><a xlink:title=" ">
<path fill="none" stroke="#63b8ff" d="M492.56,-291.67C487.22,-246.36 469.08,-142.34 411.5,-80.88 408.54,-77.71 405.32,-74.76 401.9,-72.01"/>
<polygon fill="#63b8ff" stroke="#63b8ff" points="489.07,-291.97 493.61,-301.54 496.03,-291.23 489.07,-291.97"/>
</a>
</g>
</g>
<!-- Node6 -->
<g id="Node000006" class="node">
<title>Node6</title>
<g id="a_Node000006"><a xlink:href="$classUCurveTable.html#a8326cb078ea6408e59d6d2ab7c819bcd" xlink:title=" ">
<polygon fill="white" stroke="#666666" points="158.88,-473.25 6.38,-473.25 6.38,-452.5 158.88,-452.5 158.88,-473.25"/>
<text xml:space="preserve" text-anchor="middle" x="82.62" y="-459.75" font-family="Helvetica,sans-Serif" font-size="10.00">UCurveTable::FindRichCurve</text>
</a>
</g>
</g>
<!-- Node5&#45;&gt;Node6 -->
<g id="edge5_Node000005_Node000006" class="edge">
<title>Node5&#45;&gt;Node6</title>
<g id="a_edge5_Node000005_Node000006"><a xlink:title=" ">
<path fill="none" stroke="#63b8ff" d="M232.6,-436.67C204.42,-441.63 172.49,-447.25 145.45,-452"/>
<polygon fill="#63b8ff" stroke="#63b8ff" points="232.87,-440.18 242.11,-435 231.66,-433.29 232.87,-440.18"/>
</a>
</g>
</g>
<!-- Node7 -->
<g id="Node000007" class="node">
<title>Node7</title>
<g id="a_Node000007"><a xlink:href="$classUCurveTable.html#a87ea228a1aeb2d21adc7b4a775eab161" xlink:title=" ">
<polygon fill="white" stroke="#666666" points="165.25,-434.25 0,-434.25 0,-413.5 165.25,-413.5 165.25,-434.25"/>
<text xml:space="preserve" text-anchor="middle" x="82.62" y="-420.75" font-family="Helvetica,sans-Serif" font-size="10.00">UCurveTable::FindSimpleCurve</text>
</a>
</g>
</g>
<!-- Node5&#45;&gt;Node7 -->
<g id="edge6_Node000005_Node000007" class="edge">
<title>Node5&#45;&gt;Node7</title>
<g id="a_edge6_Node000005_Node000007"><a xlink:title=" ">
<path fill="none" stroke="#63b8ff" d="M228.87,-423.88C208.46,-423.88 186.32,-423.88 165.62,-423.88"/>
<polygon fill="#63b8ff" stroke="#63b8ff" points="228.83,-427.38 238.83,-423.88 228.83,-420.38 228.83,-427.38"/>
</a>
</g>
</g>
<!-- Node9 -->
<g id="Node000009" class="node">
<title>Node9</title>
<g id="a_Node000009"><a xlink:href="$classUDataTable.html#aaeeea65ac56a60a452b4afba89b93265" xlink:title=" ">
<polygon fill="white" stroke="#666666" points="142,-395.25 23.25,-395.25 23.25,-374.5 142,-374.5 142,-395.25"/>
<text xml:space="preserve" text-anchor="middle" x="82.62" y="-381.75" font-family="Helvetica,sans-Serif" font-size="10.00">UDataTable::FindRow</text>
</a>
</g>
</g>
<!-- Node8&#45;&gt;Node9 -->
<g id="edge8_Node000008_Node000009" class="edge">
<title>Node8&#45;&gt;Node9</title>
<g id="a_edge8_Node000008_Node000009"><a xlink:title=" ">
<path fill="none" stroke="#63b8ff" d="M235.32,-384.88C205.41,-384.88 170.9,-384.88 142.36,-384.88"/>
<polygon fill="#63b8ff" stroke="#63b8ff" points="235.02,-388.38 245.02,-384.88 235.02,-381.38 235.02,-388.38"/>
</a>
</g>
</g>
</g>
</svg>
