<?xml version="1.0" encoding="UTF-8" standalone="no"?>
<!DOCTYPE svg PUBLIC "-//W3C//DTD SVG 1.1//EN"
 "http://www.w3.org/Graphics/SVG/1.1/DTD/svg11.dtd">
<!-- Generated by graphviz version 14.1.4 (0)
 -->
<!-- Title: UActorChannel::FindOrCreateReplicator Pages: 1 -->
<svg width="384pt" height="60pt"
 viewBox="0.00 0.00 384.00 60.00" xmlns="http://www.w3.org/2000/svg" xmlns:xlink="http://www.w3.org/1999/xlink">
<g id="graph0" class="graph" transform="scale(1 1) rotate(0) translate(4 55.5)">
<title>UActorChannel::FindOrCreateReplicator</title>
<!-- Node1 -->
<g id="Node000001" class="node">
<title>Node1</title>
<g id="a_Node000001"><a xlink:title=" ">
<polygon fill="#999999" stroke="#666666" points="157.75,-33.5 0,-33.5 0,0 157.75,0 157.75,-33.5"/>
<text xml:space="preserve" text-anchor="start" x="8" y="-20" font-family="Helvetica,sans-Serif" font-size="10.00">UActorChannel::FindOrCreate</text>
<text xml:space="preserve" text-anchor="middle" x="78.88" y="-7.25" font-family="Helvetica,sans-Serif" font-size="10.00">Replicator</text>
</a>
</g>
</g>
<!-- Node1&#45;&gt;Node1 -->
<g id="edge1_Node000001_Node000001" class="edge">
<title>Node1&#45;&gt;Node1</title>
<g id="a_edge1_Node000001_Node000001"><a xlink:title=" ">
<path fill="none" stroke="#63b8ff" d="M41.89,-33.91C35.6,-43.12 47.93,-51.5 78.88,-51.5 96.04,-51.5 107.48,-48.92 113.18,-45.05"/>
<polygon fill="#63b8ff" stroke="#63b8ff" points="116.57,-45.93 115.51,-35.39 109.77,-44.29 116.57,-45.93"/>
</a>
</g>
</g>
<!-- Node2 -->
<g id="Node000002" class="node">
<title>Node2</title>
<g id="a_Node000002"><a xlink:href="classUActorChannel.html#a0e60f25e936f3c80c0e8e7988c3d343a" target="_top" xlink:title=" ">
<polygon fill="white" stroke="#666666" points="375.5,-27.12 193.75,-27.12 193.75,-6.38 375.5,-6.38 375.5,-27.12"/>
<text xml:space="preserve" text-anchor="middle" x="284.62" y="-13.62" font-family="Helvetica,sans-Serif" font-size="10.00">UActorChannel::FObjectReplicator</text>
</a>
</g>
</g>
<!-- Node1&#45;&gt;Node2 -->
<g id="edge2_Node000001_Node000002" class="edge">
<title>Node1&#45;&gt;Node2</title>
<g id="a_edge2_Node000001_Node000002"><a xlink:title=" ">
<path fill="none" stroke="#63b8ff" d="M158.07,-16.75C165.92,-16.75 173.98,-16.75 182.03,-16.75"/>
<polygon fill="#63b8ff" stroke="#63b8ff" points="181.88,-20.25 191.88,-16.75 181.88,-13.25 181.88,-20.25"/>
</a>
</g>
</g>
<!-- Node2&#45;&gt;Node2 -->
<g id="edge3_Node000002_Node000002" class="edge">
<title>Node2&#45;&gt;Node2</title>
<g id="a_edge3_Node000002_Node000002"><a xlink:title=" ">
<path fill="none" stroke="#63b8ff" d="M251.47,-27.52C238.21,-36.18 249.26,-45.12 284.62,-45.12 303.96,-45.12 316.03,-42.45 320.83,-38.61"/>
<polygon fill="#63b8ff" stroke="#63b8ff" points="324.21,-37.69 318.18,-28.98 317.46,-39.55 324.21,-37.69"/>
</a>
</g>
</g>
</g>
</svg>
