<?xml version="1.0" encoding="UTF-8" standalone="no"?>
<!DOCTYPE svg PUBLIC "-//W3C//DTD SVG 1.1//EN"
 "http://www.w3.org/Graphics/SVG/1.1/DTD/svg11.dtd">
<!-- Generated by graphviz version 14.1.4 (0)
 -->
<!-- Title: TRangeBound::MinLower Pages: 1 -->
<svg width="526pt" height="107pt"
 viewBox="0.00 0.00 526.00 107.00" xmlns="http://www.w3.org/2000/svg" xmlns:xlink="http://www.w3.org/1999/xlink">
<g id="graph0" class="graph" transform="scale(1 1) rotate(0) translate(4 102.75)">
<title>TRangeBound::MinLower</title>
<!-- Node1 -->
<g id="Node000001" class="node">
<title>Node1</title>
<g id="a_Node000001"><a xlink:title=" ">
<polygon fill="#999999" stroke="#666666" points="517.5,-78.75 380.75,-78.75 380.75,-58 517.5,-58 517.5,-78.75"/>
<text xml:space="preserve" text-anchor="middle" x="449.12" y="-65.25" font-family="Helvetica,sans-Serif" font-size="10.00">TRangeBound::MinLower</text>
</a>
</g>
</g>
<!-- Node2 -->
<g id="Node000002" class="node">
<title>Node2</title>
<g id="a_Node000002"><a xlink:href="$classTRangeSet.html#ac431bef0c0f97e9942cb09b3e82dc26f" xlink:title=" ">
<polygon fill="white" stroke="#666666" points="321.12,-98.75 227.88,-98.75 227.88,-78 321.12,-78 321.12,-98.75"/>
<text xml:space="preserve" text-anchor="middle" x="274.5" y="-85.25" font-family="Helvetica,sans-Serif" font-size="10.00">TRangeSet::Add</text>
</a>
</g>
</g>
<!-- Node1&#45;&gt;Node2 -->
<g id="edge1_Node000001_Node000002" class="edge">
<title>Node1&#45;&gt;Node2</title>
<g id="a_edge1_Node000001_Node000002"><a xlink:title=" ">
<path fill="none" stroke="#63b8ff" d="M369.18,-77.52C352.85,-79.41 336.16,-81.35 321.49,-83.05"/>
<polygon fill="#63b8ff" stroke="#63b8ff" points="369.36,-81.02 378.89,-76.4 368.55,-74.07 369.36,-81.02"/>
</a>
</g>
</g>
<!-- Node4 -->
<g id="Node000004" class="node">
<title>Node4</title>
<g id="a_Node000004"><a xlink:href="$classTRangeSet.html#a39bc5ca248463ed09ac6cecad8a08509" xlink:title=" ">
<polygon fill="white" stroke="#666666" points="344.75,-59.75 204.25,-59.75 204.25,-39 344.75,-39 344.75,-59.75"/>
<text xml:space="preserve" text-anchor="middle" x="274.5" y="-46.25" font-family="Helvetica,sans-Serif" font-size="10.00">TRangeSet::GetMinBound</text>
</a>
</g>
</g>
<!-- Node1&#45;&gt;Node4 -->
<g id="edge3_Node000001_Node000004" class="edge">
<title>Node1&#45;&gt;Node4</title>
<g id="a_edge3_Node000001_Node000004"><a xlink:title=" ">
<path fill="none" stroke="#63b8ff" d="M369.11,-59.68C361.07,-58.79 352.95,-57.9 345.02,-57.03"/>
<polygon fill="#63b8ff" stroke="#63b8ff" points="368.57,-63.14 378.89,-60.75 369.33,-56.18 368.57,-63.14"/>
</a>
</g>
</g>
<!-- Node3 -->
<g id="Node000003" class="node">
<title>Node3</title>
<g id="a_Node000003"><a xlink:href="$classTRangeSet.html#af70b4f1629020c17bf87253d25c64775" xlink:title=" ">
<polygon fill="white" stroke="#666666" points="136.75,-98.75 31.5,-98.75 31.5,-78 136.75,-78 136.75,-98.75"/>
<text xml:space="preserve" text-anchor="middle" x="84.12" y="-85.25" font-family="Helvetica,sans-Serif" font-size="10.00">TRangeSet::Merge</text>
</a>
</g>
</g>
<!-- Node2&#45;&gt;Node3 -->
<g id="edge2_Node000002_Node000003" class="edge">
<title>Node2&#45;&gt;Node3</title>
<g id="a_edge2_Node000002_Node000003"><a xlink:title=" ">
<path fill="none" stroke="#63b8ff" d="M216.17,-88.38C190.97,-88.38 161.59,-88.38 137.04,-88.38"/>
<polygon fill="#63b8ff" stroke="#63b8ff" points="215.9,-91.88 225.9,-88.38 215.9,-84.88 215.9,-91.88"/>
</a>
</g>
</g>
<!-- Node5 -->
<g id="Node000005" class="node">
<title>Node5</title>
<g id="a_Node000005"><a xlink:href="$classTRangeSet.html#ab51397301612bfbabe169145655b58a7" xlink:title=" ">
<polygon fill="white" stroke="#666666" points="168.25,-59.75 0,-59.75 0,-39 168.25,-39 168.25,-59.75"/>
<text xml:space="preserve" text-anchor="middle" x="84.12" y="-46.25" font-family="Helvetica,sans-Serif" font-size="10.00">TRangeSet::GetMinBoundValue</text>
</a>
</g>
</g>
<!-- Node4&#45;&gt;Node5 -->
<g id="edge4_Node000004_Node000005" class="edge">
<title>Node4&#45;&gt;Node5</title>
<g id="a_edge4_Node000004_Node000005"><a xlink:title=" ">
<path fill="none" stroke="#63b8ff" d="M192.4,-49.38C184.48,-49.38 176.43,-49.38 168.48,-49.38"/>
<polygon fill="#63b8ff" stroke="#63b8ff" points="192.38,-52.88 202.38,-49.38 192.38,-45.88 192.38,-52.88"/>
</a>
</g>
</g>
<!-- Node6 -->
<g id="Node000006" class="node">
<title>Node6</title>
<g id="a_Node000006"><a xlink:href="$classTRangeSet.html#ac02c9ed2d81994990af2259606456529" xlink:title=" ">
<polygon fill="white" stroke="#666666" points="155.12,-20.75 13.12,-20.75 13.12,0 155.12,0 155.12,-20.75"/>
<text xml:space="preserve" text-anchor="middle" x="84.12" y="-7.25" font-family="Helvetica,sans-Serif" font-size="10.00">TRangeSet::HasMinBound</text>
</a>
</g>
</g>
<!-- Node4&#45;&gt;Node6 -->
<g id="edge5_Node000004_Node000006" class="edge">
<title>Node4&#45;&gt;Node6</title>
<g id="a_edge5_Node000004_Node000006"><a xlink:title=" ">
<path fill="none" stroke="#63b8ff" d="M209.76,-36.18C186.3,-31.32 160.01,-25.88 137.64,-21.25"/>
<polygon fill="#63b8ff" stroke="#63b8ff" points="209.04,-39.6 219.54,-38.2 210.46,-32.75 209.04,-39.6"/>
</a>
</g>
</g>
</g>
</svg>
