<?xml version="1.0" encoding="UTF-8" standalone="no"?>
<!DOCTYPE svg PUBLIC "-//W3C//DTD SVG 1.1//EN"
 "http://www.w3.org/Graphics/SVG/1.1/DTD/svg11.dtd">
<!-- Generated by graphviz version 14.1.4 (0)
 -->
<!-- Title: UGraphNodeContextMenuContext Pages: 1 -->
<svg width="202pt" height="236pt"
 viewBox="0.00 0.00 202.00 236.00" xmlns="http://www.w3.org/2000/svg" xmlns:xlink="http://www.w3.org/1999/xlink">
<g id="graph0" class="graph" transform="scale(1 1) rotate(0) translate(4 232.25)">
<title>UGraphNodeContextMenuContext</title>
<!-- Node1 -->
<g id="Node000001" class="node">
<title>Node1</title>
<g id="a_Node000001"><a xlink:title=" ">
<polygon fill="#999999" stroke="none" points="193.5,-138 0,-138 0,0 193.5,0 193.5,-138"/>
<text xml:space="preserve" text-anchor="start" x="13.88" y="-124.25" font-family="Helvetica,sans-Serif" font-size="10.00">UGraphNodeContextMenuContext</text>
<text xml:space="preserve" text-anchor="start" x="4" y="-107.5" font-family="Helvetica,sans-Serif" font-size="10.00">+</text>
<text xml:space="preserve" text-anchor="start" x="16.25" y="-107.5" font-family="Helvetica,sans-Serif" font-size="10.00">Blueprint</text>
<text xml:space="preserve" text-anchor="start" x="4" y="-90.75" font-family="Helvetica,sans-Serif" font-size="10.00">+</text>
<text xml:space="preserve" text-anchor="start" x="16.25" y="-90.75" font-family="Helvetica,sans-Serif" font-size="10.00">Graph</text>
<text xml:space="preserve" text-anchor="start" x="4" y="-74" font-family="Helvetica,sans-Serif" font-size="10.00">+</text>
<text xml:space="preserve" text-anchor="start" x="16.25" y="-74" font-family="Helvetica,sans-Serif" font-size="10.00">Node</text>
<text xml:space="preserve" text-anchor="start" x="4" y="-57.25" font-family="Helvetica,sans-Serif" font-size="10.00">+</text>
<text xml:space="preserve" text-anchor="start" x="16.25" y="-57.25" font-family="Helvetica,sans-Serif" font-size="10.00">Pin</text>
<text xml:space="preserve" text-anchor="start" x="4" y="-40.5" font-family="Helvetica,sans-Serif" font-size="10.00">+</text>
<text xml:space="preserve" text-anchor="start" x="16.25" y="-40.5" font-family="Helvetica,sans-Serif" font-size="10.00">bIsDebugging</text>
<text xml:space="preserve" text-anchor="start" x="4" y="-23.75" font-family="Helvetica,sans-Serif" font-size="10.00">+</text>
<text xml:space="preserve" text-anchor="start" x="16.25" y="-23.75" font-family="Helvetica,sans-Serif" font-size="10.00">UGraphNodeContextMenuContext()</text>
<text xml:space="preserve" text-anchor="start" x="4" y="-7" font-family="Helvetica,sans-Serif" font-size="10.00">+</text>
<text xml:space="preserve" text-anchor="start" x="16.25" y="-7" font-family="Helvetica,sans-Serif" font-size="10.00">Init()</text>
<polygon fill="#666666" stroke="#666666" points="0,-119.25 0,-119.25 193.5,-119.25 193.5,-119.25 0,-119.25"/>
<polygon fill="#666666" stroke="#666666" points="0,-35.5 0,-35.5 14.25,-35.5 14.25,-35.5 0,-35.5"/>
<polygon fill="#666666" stroke="#666666" points="14.25,-35.5 14.25,-35.5 193.5,-35.5 193.5,-35.5 14.25,-35.5"/>
<polygon fill="none" stroke="#666666" points="0,0 0,-138 193.5,-138 193.5,0 0,0"/>
</a>
</g>
</g>
<!-- Node2 -->
<g id="Node000002" class="node">
<title>Node2</title>
<g id="a_Node000002"><a xlink:title=" ">
<polygon fill="white" stroke="none" points="120.25,-228.25 73.25,-228.25 73.25,-174 120.25,-174 120.25,-228.25"/>
<text xml:space="preserve" text-anchor="start" x="77.25" y="-214.5" font-family="Helvetica,sans-Serif" font-size="10.00">UObject</text>
<text xml:space="preserve" text-anchor="start" x="93.75" y="-197.75" font-family="Helvetica,sans-Serif" font-size="10.00"> </text>
<text xml:space="preserve" text-anchor="start" x="93.75" y="-181" font-family="Helvetica,sans-Serif" font-size="10.00"> </text>
<polygon fill="#666666" stroke="#666666" points="73.25,-209.5 73.25,-209.5 120.25,-209.5 120.25,-209.5 73.25,-209.5"/>
<polygon fill="#666666" stroke="#666666" points="73.25,-192.75 73.25,-192.75 120.25,-192.75 120.25,-192.75 73.25,-192.75"/>
<polygon fill="none" stroke="#666666" points="73.25,-174 73.25,-228.25 120.25,-228.25 120.25,-174 73.25,-174"/>
</a>
</g>
</g>
<!-- Node2&#45;&gt;Node1 -->
<g id="edge1_Node000001_Node000002" class="edge">
<title>Node2&#45;&gt;Node1</title>
<g id="a_edge1_Node000001_Node000002"><a xlink:title=" ">
<path fill="none" stroke="#63b8ff" d="M96.75,-162.75C96.75,-154.88 96.75,-146.35 96.75,-137.75"/>
<polygon fill="none" stroke="#63b8ff" points="93.25,-162.59 96.75,-172.59 100.25,-162.59 93.25,-162.59"/>
</a>
</g>
</g>
</g>
</svg>
