<?xml version="1.0" encoding="UTF-8" standalone="no"?>
<!DOCTYPE svg PUBLIC "-//W3C//DTD SVG 1.1//EN"
 "http://www.w3.org/Graphics/SVG/1.1/DTD/svg11.dtd">
<!-- Generated by graphviz version 14.1.4 (0)
 -->
<!-- Title: UViewportStatsSubsystem Pages: 1 -->
<svg width="157pt" height="253pt"
 viewBox="0.00 0.00 157.00 253.00" xmlns="http://www.w3.org/2000/svg" xmlns:xlink="http://www.w3.org/1999/xlink">

<svg id="main" version="1.1" xmlns="http://www.w3.org/2000/svg" xmlns:xlink="http://www.w3.org/1999/xlink" xml:space="preserve">

<style type="text/css"><![CDATA[
.node, .edge {opacity: 0.7;}
.node.selected, .edge.selected {opacity: 1;}
.edge:hover path { stroke: red; }
.edge:hover polygon { stroke: red; fill: red; }
]]></style>
<script type="application/ecmascript" xlink:href="svg.min.js"/>
<svg id="graph" class="graph">
<g id="graph0" class="graph" transform="scale(1 1) rotate(0) translate(4 249)">
<title>UViewportStatsSubsystem</title>
<!-- Node1 -->
<g id="Node000001" class="node">
<title>Node1</title>
<g id="a_Node000001"><a xlink:title=" ">
<polygon fill="#999999" stroke="none" points="149.25,-154.75 0,-154.75 0,0 149.25,0 149.25,-154.75"/>
<text xml:space="preserve" text-anchor="start" x="9.75" y="-141" font-family="Helvetica,sans-Serif" font-size="10.00">UViewportStatsSubsystem</text>
<text xml:space="preserve" text-anchor="start" x="4" y="-124.25" font-family="Helvetica,sans-Serif" font-size="10.00">#</text>
<text xml:space="preserve" text-anchor="start" x="16.25" y="-124.25" font-family="Helvetica,sans-Serif" font-size="10.00">DisplayDelegates</text>
<text xml:space="preserve" text-anchor="start" x="4" y="-107.5" font-family="Helvetica,sans-Serif" font-size="10.00">#</text>
<text xml:space="preserve" text-anchor="start" x="16.25" y="-107.5" font-family="Helvetica,sans-Serif" font-size="10.00">UniqueDisplayMessages</text>
<text xml:space="preserve" text-anchor="start" x="4" y="-90.75" font-family="Helvetica,sans-Serif" font-size="10.00">+</text>
<text xml:space="preserve" text-anchor="start" x="16.25" y="-90.75" font-family="Helvetica,sans-Serif" font-size="10.00">Draw()</text>
<text xml:space="preserve" text-anchor="start" x="4" y="-74" font-family="Helvetica,sans-Serif" font-size="10.00">+</text>
<text xml:space="preserve" text-anchor="start" x="16.25" y="-74" font-family="Helvetica,sans-Serif" font-size="10.00">AddTimedDisplay()</text>
<text xml:space="preserve" text-anchor="start" x="4" y="-57.25" font-family="Helvetica,sans-Serif" font-size="10.00">+</text>
<text xml:space="preserve" text-anchor="start" x="16.25" y="-57.25" font-family="Helvetica,sans-Serif" font-size="10.00">AddDisplayDelegate()</text>
<text xml:space="preserve" text-anchor="start" x="4" y="-40.5" font-family="Helvetica,sans-Serif" font-size="10.00">+</text>
<text xml:space="preserve" text-anchor="start" x="16.25" y="-40.5" font-family="Helvetica,sans-Serif" font-size="10.00">AddDisplayDelegate()</text>
<text xml:space="preserve" text-anchor="start" x="4" y="-23.75" font-family="Helvetica,sans-Serif" font-size="10.00">+</text>
<text xml:space="preserve" text-anchor="start" x="16.25" y="-23.75" font-family="Helvetica,sans-Serif" font-size="10.00">RemoveDisplayDelegate()</text>
<text xml:space="preserve" text-anchor="start" x="4" y="-7" font-family="Helvetica,sans-Serif" font-size="10.00">#</text>
<text xml:space="preserve" text-anchor="start" x="16.25" y="-7" font-family="Helvetica,sans-Serif" font-size="10.00">Deinitialize()</text>
<polygon fill="#666666" stroke="#666666" points="0,-136 0,-136 149.25,-136 149.25,-136 0,-136"/>
<polygon fill="#666666" stroke="#666666" points="0,-102.5 0,-102.5 14.25,-102.5 14.25,-102.5 0,-102.5"/>
<polygon fill="#666666" stroke="#666666" points="14.25,-102.5 14.25,-102.5 149.25,-102.5 149.25,-102.5 14.25,-102.5"/>
<polygon fill="none" stroke="#666666" points="0,0 0,-154.75 149.25,-154.75 149.25,0 0,0"/>
</a>
</g>
</g>
<!-- Node2 -->
<g id="Node000002" class="node">
<title>Node2</title>
<g id="a_Node000002"><a xlink:title=" ">
<polygon fill="white" stroke="none" points="123.62,-245 25.62,-245 25.62,-190.75 123.62,-190.75 123.62,-245"/>
<text xml:space="preserve" text-anchor="start" x="29.62" y="-231.25" font-family="Helvetica,sans-Serif" font-size="10.00">UWorldSubsystem</text>
<text xml:space="preserve" text-anchor="start" x="71.62" y="-214.5" font-family="Helvetica,sans-Serif" font-size="10.00"> </text>
<text xml:space="preserve" text-anchor="start" x="71.62" y="-197.75" font-family="Helvetica,sans-Serif" font-size="10.00"> </text>
<polygon fill="#666666" stroke="#666666" points="25.62,-226.25 25.62,-226.25 123.62,-226.25 123.62,-226.25 25.62,-226.25"/>
<polygon fill="#666666" stroke="#666666" points="25.62,-209.5 25.62,-209.5 123.62,-209.5 123.62,-209.5 25.62,-209.5"/>
<polygon fill="none" stroke="#666666" points="25.62,-190.75 25.62,-245 123.62,-245 123.62,-190.75 25.62,-190.75"/>
</a>
</g>
</g>
<!-- Node2&#45;&gt;Node1 -->
<g id="edge1_Node000001_Node000002" class="edge">
<title>Node2&#45;&gt;Node1</title>
<g id="a_edge1_Node000001_Node000002"><a xlink:title=" ">
<path fill="none" stroke="#63b8ff" d="M74.62,-179.57C74.62,-171.75 74.62,-163.24 74.62,-154.58"/>
<polygon fill="none" stroke="#63b8ff" points="71.13,-179.31 74.63,-189.31 78.13,-179.31 71.13,-179.31"/>
</a>
</g>
</g>
</g>
</svg>
</svg>

<style type='text/css'>
<![CDATA[
[data-mouse-over-selected='false'] { opacity: 0.7; }
[data-mouse-over-selected='true']  { opacity: 1.0; }
]]>
</style>
<script type="application/ecmascript"><![CDATA[
document.addEventListener('DOMContentLoaded', (event) => {
  highlightEdges();
  highlightAdjacentNodes();
});
]]></script>
</svg>
