<?xml version="1.0" encoding="UTF-8" standalone="no"?>
<!DOCTYPE svg PUBLIC "-//W3C//DTD SVG 1.1//EN"
 "http://www.w3.org/Graphics/SVG/1.1/DTD/svg11.dtd">
<!-- Generated by graphviz version 14.1.4 (0)
 -->
<!-- Title: TSparseArray::Empty Pages: 1 -->
<svg width="311pt" height="260pt"
 viewBox="0.00 0.00 311.00 260.00" xmlns="http://www.w3.org/2000/svg" xmlns:xlink="http://www.w3.org/1999/xlink">
<g id="graph0" class="graph" transform="scale(1 1) rotate(0) translate(4 256)">
<title>TSparseArray::Empty</title>
<!-- Node1 -->
<g id="Node000001" class="node">
<title>Node1</title>
<g id="a_Node000001"><a xlink:title=" ">
<polygon fill="#999999" stroke="#666666" points="302.75,-145.88 184.75,-145.88 184.75,-125.12 302.75,-125.12 302.75,-145.88"/>
<text xml:space="preserve" text-anchor="middle" x="243.75" y="-132.38" font-family="Helvetica,sans-Serif" font-size="10.00">TSparseArray::Empty</text>
</a>
</g>
</g>
<!-- Node2 -->
<g id="Node000002" class="node">
<title>Node2</title>
<g id="a_Node000002"><a xlink:href="$classTSparseArray.html#adf0d4dec7c3f816cfc427cabfa4f5f59" xlink:title=" ">
<polygon fill="white" stroke="#666666" points="148.75,-252 0,-252 0,-193 148.75,-193 148.75,-252"/>
<text xml:space="preserve" text-anchor="start" x="8" y="-238.5" font-family="Helvetica,sans-Serif" font-size="10.00">TSparseArray&lt; SetElement</text>
<text xml:space="preserve" text-anchor="start" x="8" y="-225.75" font-family="Helvetica,sans-Serif" font-size="10.00">Type, typename Allocator</text>
<text xml:space="preserve" text-anchor="start" x="8" y="-213" font-family="Helvetica,sans-Serif" font-size="10.00">::SparseArrayAllocator &gt;</text>
<text xml:space="preserve" text-anchor="middle" x="74.38" y="-200.25" font-family="Helvetica,sans-Serif" font-size="10.00">::CompactStable</text>
</a>
</g>
</g>
<!-- Node1&#45;&gt;Node2 -->
<g id="edge1_Node000001_Node000002" class="edge">
<title>Node1&#45;&gt;Node2</title>
<g id="a_edge1_Node000001_Node000002"><a xlink:title=" ">
<path fill="none" stroke="#63b8ff" d="M211.77,-151.6C189.69,-163.08 159.36,-178.85 132.9,-192.6"/>
<polygon fill="#63b8ff" stroke="#63b8ff" points="213.29,-154.76 220.55,-147.04 210.06,-148.55 213.29,-154.76"/>
</a>
</g>
</g>
<!-- Node3 -->
<g id="Node000003" class="node">
<title>Node3</title>
<g id="a_Node000003"><a xlink:href="$SparseArray_8h.html#af34a659fb7e3ca48c538f88d483a0f07" xlink:title=" ">
<polygon fill="white" stroke="#666666" points="111.25,-174.88 37.5,-174.88 37.5,-154.12 111.25,-154.12 111.25,-174.88"/>
<text xml:space="preserve" text-anchor="middle" x="74.38" y="-161.38" font-family="Helvetica,sans-Serif" font-size="10.00">operator&lt;&lt;</text>
</a>
</g>
</g>
<!-- Node1&#45;&gt;Node3 -->
<g id="edge2_Node000001_Node000003" class="edge">
<title>Node1&#45;&gt;Node3</title>
<g id="a_edge2_Node000001_Node000003"><a xlink:title=" ">
<path fill="none" stroke="#63b8ff" d="M173.36,-147.52C152.07,-151.21 129.5,-155.12 111.4,-158.26"/>
<polygon fill="#63b8ff" stroke="#63b8ff" points="173.93,-150.98 183.19,-145.82 172.74,-144.08 173.93,-150.98"/>
</a>
</g>
</g>
<!-- Node4 -->
<g id="Node000004" class="node">
<title>Node4</title>
<g id="a_Node000004"><a xlink:href="$classTSparseArray.html#a688af56d8bd1a2e273e2b9c4aa031b57" xlink:title=" ">
<polygon fill="white" stroke="#666666" points="148.75,-136 0,-136 0,-77 148.75,-77 148.75,-136"/>
<text xml:space="preserve" text-anchor="start" x="8" y="-122.5" font-family="Helvetica,sans-Serif" font-size="10.00">TSparseArray&lt; SetElement</text>
<text xml:space="preserve" text-anchor="start" x="8" y="-109.75" font-family="Helvetica,sans-Serif" font-size="10.00">Type, typename Allocator</text>
<text xml:space="preserve" text-anchor="start" x="8" y="-97" font-family="Helvetica,sans-Serif" font-size="10.00">::SparseArrayAllocator &gt;</text>
<text xml:space="preserve" text-anchor="middle" x="74.38" y="-84.25" font-family="Helvetica,sans-Serif" font-size="10.00">::operator=</text>
</a>
</g>
</g>
<!-- Node1&#45;&gt;Node4 -->
<g id="edge3_Node000001_Node000004" class="edge">
<title>Node1&#45;&gt;Node4</title>
<g id="a_edge3_Node000001_Node000004"><a xlink:title=" ">
<path fill="none" stroke="#63b8ff" d="M173.42,-123.49C165.35,-122.09 157.1,-120.66 148.97,-119.25"/>
<polygon fill="#63b8ff" stroke="#63b8ff" points="172.74,-126.92 183.19,-125.18 173.93,-120.02 172.74,-126.92"/>
</a>
</g>
</g>
<!-- Node5 -->
<g id="Node000005" class="node">
<title>Node5</title>
<g id="a_Node000005"><a xlink:href="$classTSparseArray.html#a91c70e4265aee7e6477a03fc5c6a260a" xlink:title=" ">
<polygon fill="white" stroke="#666666" points="148.75,-59 0,-59 0,0 148.75,0 148.75,-59"/>
<text xml:space="preserve" text-anchor="start" x="8" y="-45.5" font-family="Helvetica,sans-Serif" font-size="10.00">TSparseArray&lt; SetElement</text>
<text xml:space="preserve" text-anchor="start" x="8" y="-32.75" font-family="Helvetica,sans-Serif" font-size="10.00">Type, typename Allocator</text>
<text xml:space="preserve" text-anchor="start" x="8" y="-20" font-family="Helvetica,sans-Serif" font-size="10.00">::SparseArrayAllocator &gt;</text>
<text xml:space="preserve" text-anchor="middle" x="74.38" y="-7.25" font-family="Helvetica,sans-Serif" font-size="10.00">::~TSparseArray</text>
</a>
</g>
</g>
<!-- Node1&#45;&gt;Node5 -->
<g id="edge4_Node000001_Node000005" class="edge">
<title>Node1&#45;&gt;Node5</title>
<g id="a_edge4_Node000001_Node000005"><a xlink:title=" ">
<path fill="none" stroke="#63b8ff" d="M219.89,-117.92C201.2,-103.87 173.86,-84.03 148.75,-68.5 143.84,-65.46 138.68,-62.43 133.45,-59.46"/>
<polygon fill="#63b8ff" stroke="#63b8ff" points="217.52,-120.52 227.61,-123.77 221.75,-114.95 217.52,-120.52"/>
</a>
</g>
</g>
</g>
</svg>
