<?xml version="1.0" encoding="UTF-8" standalone="no"?>
<!DOCTYPE svg PUBLIC "-//W3C//DTD SVG 1.1//EN"
 "http://www.w3.org/Graphics/SVG/1.1/DTD/svg11.dtd">
<!-- Generated by graphviz version 14.1.4 (0)
 -->
<!-- Title: UPlayer Pages: 1 -->
<svg width="160pt" height="253pt"
 viewBox="0.00 0.00 160.00 253.00" xmlns="http://www.w3.org/2000/svg" xmlns:xlink="http://www.w3.org/1999/xlink">

<svg id="main" version="1.1" xmlns="http://www.w3.org/2000/svg" xmlns:xlink="http://www.w3.org/1999/xlink" xml:space="preserve">

<style type="text/css"><![CDATA[
.node, .edge {opacity: 0.7;}
.node.selected, .edge.selected {opacity: 1;}
.edge:hover path { stroke: red; }
.edge:hover polygon { stroke: red; fill: red; }
]]></style>
<script type="application/ecmascript" xlink:href="svg.min.js"/>
<svg id="graph" class="graph">
<g id="graph0" class="graph" transform="scale(1 1) rotate(0) translate(4 249)">
<title>UPlayer</title>
<!-- Node1 -->
<g id="Node000001" class="node">
<title>Node1</title>
<g id="a_Node000001"><a xlink:title=" ">
<polygon fill="#999999" stroke="none" points="151.5,-154.75 0,-154.75 0,0 151.5,0 151.5,-154.75"/>
<text xml:space="preserve" text-anchor="start" x="56.62" y="-141" font-family="Helvetica,sans-Serif" font-size="10.00">UPlayer</text>
<text xml:space="preserve" text-anchor="start" x="6.25" y="-124.25" font-family="Helvetica,sans-Serif" font-size="10.00">&#45;</text>
<text xml:space="preserve" text-anchor="start" x="16.25" y="-124.25" font-family="Helvetica,sans-Serif" font-size="10.00">PlayerController</text>
<text xml:space="preserve" text-anchor="start" x="6.25" y="-107.5" font-family="Helvetica,sans-Serif" font-size="10.00">&#45;</text>
<text xml:space="preserve" text-anchor="start" x="16.25" y="-107.5" font-family="Helvetica,sans-Serif" font-size="10.00">CurrentNetSpeed</text>
<text xml:space="preserve" text-anchor="start" x="6.25" y="-90.75" font-family="Helvetica,sans-Serif" font-size="10.00">&#45;</text>
<text xml:space="preserve" text-anchor="start" x="16.25" y="-90.75" font-family="Helvetica,sans-Serif" font-size="10.00">ConfiguredInternetSpeed</text>
<text xml:space="preserve" text-anchor="start" x="6.25" y="-74" font-family="Helvetica,sans-Serif" font-size="10.00">&#45;</text>
<text xml:space="preserve" text-anchor="start" x="16.25" y="-74" font-family="Helvetica,sans-Serif" font-size="10.00">ConfiguredLanSpeed</text>
<text xml:space="preserve" text-anchor="start" x="4" y="-57.25" font-family="Helvetica,sans-Serif" font-size="10.00">+</text>
<text xml:space="preserve" text-anchor="start" x="16.25" y="-57.25" font-family="Helvetica,sans-Serif" font-size="10.00">SwitchController()</text>
<text xml:space="preserve" text-anchor="start" x="4" y="-40.5" font-family="Helvetica,sans-Serif" font-size="10.00">+</text>
<text xml:space="preserve" text-anchor="start" x="16.25" y="-40.5" font-family="Helvetica,sans-Serif" font-size="10.00">ConsoleCommand()</text>
<text xml:space="preserve" text-anchor="start" x="4" y="-23.75" font-family="Helvetica,sans-Serif" font-size="10.00">+</text>
<text xml:space="preserve" text-anchor="start" x="16.25" y="-23.75" font-family="Helvetica,sans-Serif" font-size="10.00">GetPlayerController()</text>
<text xml:space="preserve" text-anchor="start" x="4" y="-7" font-family="Helvetica,sans-Serif" font-size="10.00">+</text>
<text xml:space="preserve" text-anchor="start" x="16.25" y="-7" font-family="Helvetica,sans-Serif" font-size="10.00">ReceivedPlayerController()</text>
<polygon fill="#666666" stroke="#666666" points="0,-136 0,-136 151.5,-136 151.5,-136 0,-136"/>
<polygon fill="#666666" stroke="#666666" points="0,-69 0,-69 14.25,-69 14.25,-69 0,-69"/>
<polygon fill="#666666" stroke="#666666" points="14.25,-69 14.25,-69 151.5,-69 151.5,-69 14.25,-69"/>
<polygon fill="none" stroke="#666666" points="0,0 0,-154.75 151.5,-154.75 151.5,0 0,0"/>
</a>
</g>
</g>
<!-- Node2 -->
<g id="Node000002" class="node">
<title>Node2</title>
<g id="a_Node000002"><a xlink:title=" ">
<polygon fill="white" stroke="none" points="69.25,-245 22.25,-245 22.25,-190.75 69.25,-190.75 69.25,-245"/>
<text xml:space="preserve" text-anchor="start" x="26.25" y="-231.25" font-family="Helvetica,sans-Serif" font-size="10.00">UObject</text>
<text xml:space="preserve" text-anchor="start" x="42.75" y="-214.5" font-family="Helvetica,sans-Serif" font-size="10.00"> </text>
<text xml:space="preserve" text-anchor="start" x="42.75" y="-197.75" font-family="Helvetica,sans-Serif" font-size="10.00"> </text>
<polygon fill="#666666" stroke="#666666" points="22.25,-226.25 22.25,-226.25 69.25,-226.25 69.25,-226.25 22.25,-226.25"/>
<polygon fill="#666666" stroke="#666666" points="22.25,-209.5 22.25,-209.5 69.25,-209.5 69.25,-209.5 22.25,-209.5"/>
<polygon fill="none" stroke="#666666" points="22.25,-190.75 22.25,-245 69.25,-245 69.25,-190.75 22.25,-190.75"/>
</a>
</g>
</g>
<!-- Node2&#45;&gt;Node1 -->
<g id="edge1_Node000001_Node000002" class="edge">
<title>Node2&#45;&gt;Node1</title>
<g id="a_edge1_Node000001_Node000002"><a xlink:title=" ">
<path fill="none" stroke="#63b8ff" d="M53.77,-179.84C55.48,-171.95 57.35,-163.34 59.24,-154.58"/>
<polygon fill="none" stroke="#63b8ff" points="50.41,-178.83 51.71,-189.34 57.25,-180.31 50.41,-178.83"/>
</a>
</g>
</g>
<!-- Node3 -->
<g id="Node000003" class="node">
<title>Node3</title>
<g id="a_Node000003"><a xlink:title=" ">
<polygon fill="white" stroke="none" points="124.38,-245 87.12,-245 87.12,-190.75 124.38,-190.75 124.38,-245"/>
<text xml:space="preserve" text-anchor="start" x="91.12" y="-231.25" font-family="Helvetica,sans-Serif" font-size="10.00">FExec</text>
<text xml:space="preserve" text-anchor="start" x="102.75" y="-214.5" font-family="Helvetica,sans-Serif" font-size="10.00"> </text>
<text xml:space="preserve" text-anchor="start" x="102.75" y="-197.75" font-family="Helvetica,sans-Serif" font-size="10.00"> </text>
<polygon fill="#666666" stroke="#666666" points="87.12,-226.25 87.12,-226.25 124.38,-226.25 124.38,-226.25 87.12,-226.25"/>
<polygon fill="#666666" stroke="#666666" points="87.12,-209.5 87.12,-209.5 124.38,-209.5 124.38,-209.5 87.12,-209.5"/>
<polygon fill="none" stroke="#666666" points="87.12,-190.75 87.12,-245 124.38,-245 124.38,-190.75 87.12,-190.75"/>
</a>
</g>
</g>
<!-- Node3&#45;&gt;Node1 -->
<g id="edge2_Node000001_Node000003" class="edge">
<title>Node3&#45;&gt;Node1</title>
<g id="a_edge2_Node000001_Node000003"><a xlink:title=" ">
<path fill="none" stroke="#63b8ff" d="M97.73,-179.84C96.02,-171.95 94.15,-163.34 92.26,-154.58"/>
<polygon fill="none" stroke="#63b8ff" points="94.25,-180.31 99.79,-189.34 101.09,-178.83 94.25,-180.31"/>
</a>
</g>
</g>
</g>
</svg>
</svg>

<style type='text/css'>
<![CDATA[
[data-mouse-over-selected='false'] { opacity: 0.7; }
[data-mouse-over-selected='true']  { opacity: 1.0; }
]]>
</style>
<script type="application/ecmascript"><![CDATA[
document.addEventListener('DOMContentLoaded', (event) => {
  highlightEdges();
  highlightAdjacentNodes();
});
]]></script>
</svg>
