<?xml version="1.0" encoding="UTF-8" standalone="no"?>
<!DOCTYPE svg PUBLIC "-//W3C//DTD SVG 1.1//EN"
 "http://www.w3.org/Graphics/SVG/1.1/DTD/svg11.dtd">
<!-- Generated by graphviz version 14.1.4 (0)
 -->
<!-- Title: TStringConvert&lt; From, To &gt; Pages: 1 -->
<svg width="128pt" height="92pt"
 viewBox="0.00 0.00 128.00 92.00" xmlns="http://www.w3.org/2000/svg" xmlns:xlink="http://www.w3.org/1999/xlink">
<g id="graph0" class="graph" transform="scale(1 1) rotate(0) translate(4 87.75)">
<title>TStringConvert&lt; From, To &gt;</title>
<!-- Node1 -->
<g id="Node000001" class="node">
<title>Node1</title>
<g id="a_Node000001"><a xlink:title=" ">
<polygon fill="#999999" stroke="none" points="119.75,-83.75 0,-83.75 0,0 119.75,0 119.75,-83.75"/>
<text xml:space="preserve" text-anchor="start" x="4" y="-70" font-family="Helvetica,sans-Serif" font-size="10.00">TStringConvert&lt; From,</text>
<text xml:space="preserve" text-anchor="start" x="47.5" y="-57.25" font-family="Helvetica,sans-Serif" font-size="10.00"> To &gt;</text>
<text xml:space="preserve" text-anchor="start" x="56.88" y="-40.5" font-family="Helvetica,sans-Serif" font-size="10.00"> </text>
<text xml:space="preserve" text-anchor="start" x="6.19" y="-23.75" font-family="Helvetica,sans-Serif" font-size="10.00">+</text>
<text xml:space="preserve" text-anchor="start" x="20.62" y="-23.75" font-family="Helvetica,sans-Serif" font-size="10.00">Convert()</text>
<text xml:space="preserve" text-anchor="start" x="6.19" y="-7" font-family="Helvetica,sans-Serif" font-size="10.00">+</text>
<text xml:space="preserve" text-anchor="start" x="20.62" y="-7" font-family="Helvetica,sans-Serif" font-size="10.00">ConvertedLength()</text>
<polygon fill="#666666" stroke="#666666" points="0,-52.25 0,-52.25 119.75,-52.25 119.75,-52.25 0,-52.25"/>
<polygon fill="#666666" stroke="#666666" points="0,-35.5 0,-35.5 119.75,-35.5 119.75,-35.5 0,-35.5"/>
<polygon fill="none" stroke="#666666" points="0,0 0,-83.75 119.75,-83.75 119.75,0 0,0"/>
</a>
</g>
</g>
</g>
</svg>
