<?xml version="1.0" encoding="UTF-8" standalone="no"?>
<!DOCTYPE svg PUBLIC "-//W3C//DTD SVG 1.1//EN"
 "http://www.w3.org/Graphics/SVG/1.1/DTD/svg11.dtd">
<!-- Generated by graphviz version 14.1.4 (0)
 -->
<!-- Title: ACharacter::ServerMovePacked Pages: 1 -->
<svg width="392pt" height="410pt"
 viewBox="0.00 0.00 392.00 410.00" xmlns="http://www.w3.org/2000/svg" xmlns:xlink="http://www.w3.org/1999/xlink">

<svg id="main" version="1.1" xmlns="http://www.w3.org/2000/svg" xmlns:xlink="http://www.w3.org/1999/xlink" xml:space="preserve">

<style type="text/css"><![CDATA[
.node, .edge {opacity: 0.7;}
.node.selected, .edge.selected {opacity: 1;}
.edge:hover path { stroke: red; }
.edge:hover polygon { stroke: red; fill: red; }
]]></style>
<script type="application/ecmascript" xlink:href="svg.min.js"/>
<svg id="graph" class="graph">
<g id="graph0" class="graph" transform="scale(1 1) rotate(0) translate(4 405.5)">
<title>ACharacter::ServerMovePacked</title>
<!-- Node1 -->
<g id="Node000001" class="node">
<title>Node1</title>
<g id="a_Node000001"><a xlink:title=" ">
<polygon fill="#999999" stroke="#666666" points="383.75,-202.12 214.75,-202.12 214.75,-181.38 383.75,-181.38 383.75,-202.12"/>
<text xml:space="preserve" text-anchor="middle" x="299.25" y="-188.62" font-family="Helvetica,sans-Serif" font-size="10.00">ACharacter::ServerMovePacked</text>
</a>
</g>
</g>
<!-- Node1&#45;&gt;Node1 -->
<g id="edge13_Node000001_Node000001" class="edge">
<title>Node1&#45;&gt;Node1</title>
<g id="a_edge13_Node000001_Node000001"><a xlink:title=" ">
<path fill="none" stroke="#63b8ff" d="M336.58,-213.28C331.98,-217.3 319.54,-220.12 299.25,-220.12 263.18,-220.12 251.91,-211.18 265.43,-202.52"/>
<polygon fill="#63b8ff" stroke="#63b8ff" points="339.97,-212.38 333.54,-203.96 333.32,-214.55 339.97,-212.38"/>
</a>
</g>
</g>
<!-- Node2 -->
<g id="Node000002" class="node">
<title>Node2</title>
<g id="a_Node000002"><a xlink:href="classACharacter.html#a6303c3a36dbbf8dab48069f60590427c" target="_top" xlink:title=" ">
<polygon fill="white" stroke="#666666" points="178.75,-383.5 0,-383.5 0,-350 178.75,-350 178.75,-383.5"/>
<text xml:space="preserve" text-anchor="start" x="8" y="-370" font-family="Helvetica,sans-Serif" font-size="10.00">ACharacter::ClientMoveResponse</text>
<text xml:space="preserve" text-anchor="middle" x="89.38" y="-357.25" font-family="Helvetica,sans-Serif" font-size="10.00">Packed_Validate</text>
</a>
</g>
</g>
<!-- Node1&#45;&gt;Node2 -->
<g id="edge1_Node000001_Node000002" class="edge">
<title>Node1&#45;&gt;Node2</title>
<g id="a_edge1_Node000001_Node000002"><a xlink:title=" ">
<path fill="none" stroke="#63b8ff" d="M287.32,-212.27C269.11,-244.48 229.51,-306.73 178.75,-340.75 173.7,-344.13 168.2,-347.09 162.5,-349.66"/>
<polygon fill="#63b8ff" stroke="#63b8ff" points="290.36,-214 292.12,-203.55 284.23,-210.63 290.36,-214"/>
</a>
</g>
</g>
<!-- Node3 -->
<g id="Node000003" class="node">
<title>Node3</title>
<g id="a_Node000003"><a xlink:href="classACharacter.html#a935474142032e990c52d31b5f94bac28" target="_top" xlink:title=" ">
<polygon fill="white" stroke="#666666" points="156.62,-313.5 22.12,-313.5 22.12,-280 156.62,-280 156.62,-313.5"/>
<text xml:space="preserve" text-anchor="start" x="30.12" y="-300" font-family="Helvetica,sans-Serif" font-size="10.00">ACharacter::ServerMove</text>
<text xml:space="preserve" text-anchor="middle" x="89.38" y="-287.25" font-family="Helvetica,sans-Serif" font-size="10.00">_Validate</text>
</a>
</g>
</g>
<!-- Node1&#45;&gt;Node3 -->
<g id="edge3_Node000001_Node000003" class="edge">
<title>Node1&#45;&gt;Node3</title>
<g id="a_edge3_Node000001_Node000003"><a xlink:title=" ">
<path fill="none" stroke="#63b8ff" d="M276.1,-209.34C252.96,-226.98 215.06,-253.87 178.75,-270.75 171.79,-273.99 164.33,-276.92 156.81,-279.56"/>
<polygon fill="#63b8ff" stroke="#63b8ff" points="278.09,-212.22 283.86,-203.33 273.81,-206.68 278.09,-212.22"/>
</a>
</g>
</g>
<!-- Node4 -->
<g id="Node000004" class="node">
<title>Node4</title>
<g id="a_Node000004"><a xlink:href="classACharacter.html#a3af5ae2e52dd579b0f3bb2f6acaaaece" target="_top" xlink:title=" ">
<polygon fill="white" stroke="#666666" points="167.88,-243.5 10.88,-243.5 10.88,-210 167.88,-210 167.88,-243.5"/>
<text xml:space="preserve" text-anchor="start" x="18.88" y="-230" font-family="Helvetica,sans-Serif" font-size="10.00">ACharacter::ServerMoveDual</text>
<text xml:space="preserve" text-anchor="middle" x="89.38" y="-217.25" font-family="Helvetica,sans-Serif" font-size="10.00">_Validate</text>
</a>
</g>
</g>
<!-- Node1&#45;&gt;Node4 -->
<g id="edge5_Node000001_Node000004" class="edge">
<title>Node1&#45;&gt;Node4</title>
<g id="a_edge5_Node000001_Node000004"><a xlink:title=" ">
<path fill="none" stroke="#63b8ff" d="M222.75,-204.46C205.04,-207.44 186.13,-210.63 168.31,-213.63"/>
<polygon fill="#63b8ff" stroke="#63b8ff" points="223.13,-207.95 232.41,-202.84 221.97,-201.04 223.13,-207.95"/>
</a>
</g>
</g>
<!-- Node5 -->
<g id="Node000005" class="node">
<title>Node5</title>
<g id="a_Node000005"><a xlink:href="classACharacter.html#ae01d92e376da27cc284318c4c3050c22" target="_top" xlink:title=" ">
<polygon fill="white" stroke="#666666" points="167.88,-173.5 10.88,-173.5 10.88,-140 167.88,-140 167.88,-173.5"/>
<text xml:space="preserve" text-anchor="start" x="18.88" y="-160" font-family="Helvetica,sans-Serif" font-size="10.00">ACharacter::ServerMoveDual</text>
<text xml:space="preserve" text-anchor="middle" x="89.38" y="-147.25" font-family="Helvetica,sans-Serif" font-size="10.00">HybridRootMotion_Validate</text>
</a>
</g>
</g>
<!-- Node1&#45;&gt;Node5 -->
<g id="edge7_Node000001_Node000005" class="edge">
<title>Node1&#45;&gt;Node5</title>
<g id="a_edge7_Node000001_Node000005"><a xlink:title=" ">
<path fill="none" stroke="#63b8ff" d="M222.75,-179.04C205.04,-176.06 186.13,-172.87 168.31,-169.87"/>
<polygon fill="#63b8ff" stroke="#63b8ff" points="221.97,-182.46 232.41,-180.66 223.13,-175.55 221.97,-182.46"/>
</a>
</g>
</g>
<!-- Node6 -->
<g id="Node000006" class="node">
<title>Node6</title>
<g id="a_Node000006"><a xlink:href="classACharacter.html#ab3b0b993f624afc5a252d42118e9b690" target="_top" xlink:title=" ">
<polygon fill="white" stroke="#666666" points="167.88,-103.5 10.88,-103.5 10.88,-70 167.88,-70 167.88,-103.5"/>
<text xml:space="preserve" text-anchor="start" x="18.88" y="-90" font-family="Helvetica,sans-Serif" font-size="10.00">ACharacter::ServerMoveDual</text>
<text xml:space="preserve" text-anchor="middle" x="89.38" y="-77.25" font-family="Helvetica,sans-Serif" font-size="10.00">NoBase_Validate</text>
</a>
</g>
</g>
<!-- Node1&#45;&gt;Node6 -->
<g id="edge9_Node000001_Node000006" class="edge">
<title>Node1&#45;&gt;Node6</title>
<g id="a_edge9_Node000001_Node000006"><a xlink:title=" ">
<path fill="none" stroke="#63b8ff" d="M267.14,-175.76C243.05,-163.41 208.83,-145.91 178.75,-130.75 161,-121.8 141.19,-111.93 124.83,-103.8"/>
<polygon fill="#63b8ff" stroke="#63b8ff" points="265.29,-178.74 275.78,-180.2 268.48,-172.52 265.29,-178.74"/>
</a>
</g>
</g>
<!-- Node7 -->
<g id="Node000007" class="node">
<title>Node7</title>
<g id="a_Node000007"><a xlink:href="classACharacter.html#a10b19d5bfd7a9946bdf4e17b92322b66" target="_top" xlink:title=" ">
<polygon fill="white" stroke="#666666" points="163.38,-33.5 15.38,-33.5 15.38,0 163.38,0 163.38,-33.5"/>
<text xml:space="preserve" text-anchor="start" x="23.38" y="-20" font-family="Helvetica,sans-Serif" font-size="10.00">ACharacter::ServerMoveNo</text>
<text xml:space="preserve" text-anchor="middle" x="89.38" y="-7.25" font-family="Helvetica,sans-Serif" font-size="10.00">Base_Validate</text>
</a>
</g>
</g>
<!-- Node1&#45;&gt;Node7 -->
<g id="edge11_Node000001_Node000007" class="edge">
<title>Node1&#45;&gt;Node7</title>
<g id="a_edge11_Node000001_Node000007"><a xlink:title=" ">
<path fill="none" stroke="#63b8ff" d="M283.95,-171.93C263.23,-144.27 222.51,-93.79 178.75,-60.75 164.8,-50.22 147.93,-41.09 132.69,-33.93"/>
<polygon fill="#63b8ff" stroke="#63b8ff" points="281,-173.82 289.75,-179.79 286.63,-169.67 281,-173.82"/>
</a>
</g>
</g>
<!-- Node2&#45;&gt;Node2 -->
<g id="edge2_Node000002_Node000002" class="edge">
<title>Node2&#45;&gt;Node2</title>
<g id="a_edge2_Node000002_Node000002"><a xlink:title=" ">
<path fill="none" stroke="#63b8ff" d="M124.37,-395.05C118.55,-398.92 106.88,-401.5 89.38,-401.5 57.81,-401.5 45.24,-393.12 51.65,-383.91"/>
<polygon fill="#63b8ff" stroke="#63b8ff" points="127.76,-395.93 126.74,-385.38 120.96,-394.26 127.76,-395.93"/>
</a>
</g>
</g>
<!-- Node3&#45;&gt;Node3 -->
<g id="edge4_Node000003_Node000003" class="edge">
<title>Node3&#45;&gt;Node3</title>
<g id="a_edge4_Node000003_Node000003"><a xlink:title=" ">
<path fill="none" stroke="#63b8ff" d="M124.37,-325.05C118.55,-328.92 106.88,-331.5 89.38,-331.5 57.81,-331.5 45.24,-323.12 51.65,-313.91"/>
<polygon fill="#63b8ff" stroke="#63b8ff" points="127.76,-325.93 126.74,-315.38 120.96,-324.26 127.76,-325.93"/>
</a>
</g>
</g>
<!-- Node4&#45;&gt;Node4 -->
<g id="edge6_Node000004_Node000004" class="edge">
<title>Node4&#45;&gt;Node4</title>
<g id="a_edge6_Node000004_Node000004"><a xlink:title=" ">
<path fill="none" stroke="#63b8ff" d="M124.37,-255.05C118.55,-258.92 106.88,-261.5 89.38,-261.5 57.81,-261.5 45.24,-253.12 51.65,-243.91"/>
<polygon fill="#63b8ff" stroke="#63b8ff" points="127.76,-255.93 126.74,-245.38 120.96,-254.26 127.76,-255.93"/>
</a>
</g>
</g>
<!-- Node5&#45;&gt;Node5 -->
<g id="edge8_Node000005_Node000005" class="edge">
<title>Node5&#45;&gt;Node5</title>
<g id="a_edge8_Node000005_Node000005"><a xlink:title=" ">
<path fill="none" stroke="#63b8ff" d="M124.37,-185.05C118.55,-188.92 106.88,-191.5 89.38,-191.5 57.81,-191.5 45.24,-183.12 51.65,-173.91"/>
<polygon fill="#63b8ff" stroke="#63b8ff" points="127.76,-185.93 126.74,-175.38 120.96,-184.26 127.76,-185.93"/>
</a>
</g>
</g>
<!-- Node6&#45;&gt;Node6 -->
<g id="edge10_Node000006_Node000006" class="edge">
<title>Node6&#45;&gt;Node6</title>
<g id="a_edge10_Node000006_Node000006"><a xlink:title=" ">
<path fill="none" stroke="#63b8ff" d="M124.37,-115.05C118.55,-118.92 106.88,-121.5 89.38,-121.5 57.81,-121.5 45.24,-113.12 51.65,-103.91"/>
<polygon fill="#63b8ff" stroke="#63b8ff" points="127.76,-115.93 126.74,-105.38 120.96,-114.26 127.76,-115.93"/>
</a>
</g>
</g>
<!-- Node7&#45;&gt;Node7 -->
<g id="edge12_Node000007_Node000007" class="edge">
<title>Node7&#45;&gt;Node7</title>
<g id="a_edge12_Node000007_Node000007"><a xlink:title=" ">
<path fill="none" stroke="#63b8ff" d="M124.37,-45.05C118.55,-48.92 106.88,-51.5 89.38,-51.5 57.81,-51.5 45.24,-43.12 51.65,-33.91"/>
<polygon fill="#63b8ff" stroke="#63b8ff" points="127.76,-45.93 126.74,-35.38 120.96,-44.26 127.76,-45.93"/>
</a>
</g>
</g>
</g>
</svg>
</svg>

<style type='text/css'>
<![CDATA[
[data-mouse-over-selected='false'] { opacity: 0.7; }
[data-mouse-over-selected='true']  { opacity: 1.0; }
]]>
</style>
<script type="application/ecmascript"><![CDATA[
document.addEventListener('DOMContentLoaded', (event) => {
  highlightEdges();
  highlightAdjacentNodes();
});
]]></script>
</svg>
