<?xml version="1.0" encoding="UTF-8" standalone="no"?>
<!DOCTYPE svg PUBLIC "-//W3C//DTD SVG 1.1//EN"
 "http://www.w3.org/Graphics/SVG/1.1/DTD/svg11.dtd">
<!-- Generated by graphviz version 14.1.4 (0)
 -->
<!-- Title: FCbPackage::FCbPackage Pages: 1 -->
<svg width="421pt" height="58pt"
 viewBox="0.00 0.00 421.00 58.00" xmlns="http://www.w3.org/2000/svg" xmlns:xlink="http://www.w3.org/1999/xlink">
<g id="graph0" class="graph" transform="scale(1 1) rotate(0) translate(4 53.83)">
<title>FCbPackage::FCbPackage</title>
<!-- Node1 -->
<g id="Node000001" class="node">
<title>Node1</title>
<g id="a_Node000001"><a xlink:title=" ">
<polygon fill="#999999" stroke="#666666" points="142,-48.75 0,-48.75 0,-28 142,-28 142,-48.75"/>
<text xml:space="preserve" text-anchor="middle" x="71" y="-35.25" font-family="Helvetica,sans-Serif" font-size="10.00">FCbPackage::FCbPackage</text>
</a>
</g>
</g>
<!-- Node2 -->
<g id="Node000002" class="node">
<title>Node2</title>
<g id="a_Node000002"><a xlink:href="$UnrealTemplate_8h.html#a6affb55ac4c80f005e72b931da3d3a55" xlink:title=" ">
<polygon fill="white" stroke="#666666" points="412.5,-48.75 343.25,-48.75 343.25,-28 412.5,-28 412.5,-48.75"/>
<text xml:space="preserve" text-anchor="middle" x="377.88" y="-35.25" font-family="Helvetica,sans-Serif" font-size="10.00">MoveTemp</text>
</a>
</g>
</g>
<!-- Node1&#45;&gt;Node2 -->
<g id="edge1_Node000001_Node000002" class="edge">
<title>Node1&#45;&gt;Node2</title>
<g id="a_edge1_Node000001_Node000002"><a xlink:title=" ">
<path fill="none" stroke="#63b8ff" d="M142.36,-45.19C154.25,-46.1 166.47,-46.89 178,-47.38 235.39,-49.81 249.92,-51.06 307.25,-47.38 315.19,-46.86 323.6,-46.03 331.73,-45.07"/>
<polygon fill="#63b8ff" stroke="#63b8ff" points="331.98,-48.56 341.46,-43.84 331.1,-41.62 331.98,-48.56"/>
</a>
</g>
</g>
<!-- Node3 -->
<g id="Node000003" class="node">
<title>Node3</title>
<g id="a_Node000003"><a xlink:href="$classFCbPackage.html#a86dcc201d9327f61c2d18a0bd84f8ebf" xlink:title=" ">
<polygon fill="white" stroke="#666666" points="307.25,-20.75 178,-20.75 178,0 307.25,0 307.25,-20.75"/>
<text xml:space="preserve" text-anchor="middle" x="242.62" y="-7.25" font-family="Helvetica,sans-Serif" font-size="10.00">FCbPackage::SetObject</text>
</a>
</g>
</g>
<!-- Node1&#45;&gt;Node3 -->
<g id="edge2_Node000001_Node000003" class="edge">
<title>Node1&#45;&gt;Node3</title>
<g id="a_edge2_Node000001_Node000003"><a xlink:title=" ">
<path fill="none" stroke="#63b8ff" d="M137.58,-27.55C147.03,-25.99 156.81,-24.37 166.43,-22.79"/>
<polygon fill="#63b8ff" stroke="#63b8ff" points="166.82,-26.27 176.12,-21.19 165.68,-19.36 166.82,-26.27"/>
</a>
</g>
</g>
<!-- Node3&#45;&gt;Node2 -->
<g id="edge3_Node000003_Node000002" class="edge">
<title>Node3&#45;&gt;Node2</title>
<g id="a_edge3_Node000003_Node000002"><a xlink:title=" ">
<path fill="none" stroke="#63b8ff" d="M295.14,-21.2C307.24,-23.74 320.04,-26.43 331.83,-28.91"/>
<polygon fill="#63b8ff" stroke="#63b8ff" points="330.78,-32.27 341.29,-30.9 332.22,-25.42 330.78,-32.27"/>
</a>
</g>
</g>
<!-- Node3&#45;&gt;Node3 -->
<g id="edge4_Node000003_Node000003" class="edge">
<title>Node3&#45;&gt;Node3</title>
<g id="a_edge4_Node000003_Node000003"><a xlink:title=" ">
<path fill="none" stroke="#63b8ff" d="M220.83,-21.15C212.11,-29.81 219.38,-38.75 242.62,-38.75 255.34,-38.75 263.27,-36.08 266.42,-32.24"/>
<polygon fill="#63b8ff" stroke="#63b8ff" points="269.91,-31.85 264.69,-22.64 263.02,-33.1 269.91,-31.85"/>
</a>
</g>
</g>
</g>
</svg>
