<?xml version="1.0" encoding="UTF-8" standalone="no"?>
<!DOCTYPE svg PUBLIC "-//W3C//DTD SVG 1.1//EN"
 "http://www.w3.org/Graphics/SVG/1.1/DTD/svg11.dtd">
<!-- Generated by graphviz version 14.1.4 (0)
 -->
<!-- Title: FOctreeChildNodeRef::IsNULL Pages: 1 -->
<svg width="695pt" height="186pt"
 viewBox="0.00 0.00 695.00 186.00" xmlns="http://www.w3.org/2000/svg" xmlns:xlink="http://www.w3.org/1999/xlink">
<g id="graph0" class="graph" transform="scale(1 1) rotate(0) translate(4 182.12)">
<title>FOctreeChildNodeRef::IsNULL</title>
<!-- Node1 -->
<g id="Node000001" class="node">
<title>Node1</title>
<g id="a_Node000001"><a xlink:title=" ">
<polygon fill="#999999" stroke="#666666" points="687.25,-103.5 566.25,-103.5 566.25,-70 687.25,-70 687.25,-103.5"/>
<text xml:space="preserve" text-anchor="start" x="574.25" y="-90" font-family="Helvetica,sans-Serif" font-size="10.00">FOctreeChildNodeRef</text>
<text xml:space="preserve" text-anchor="middle" x="626.75" y="-77.25" font-family="Helvetica,sans-Serif" font-size="10.00">::IsNULL</text>
</a>
</g>
</g>
<!-- Node2 -->
<g id="Node000002" class="node">
<title>Node2</title>
<g id="a_Node000002"><a xlink:href="$classTOctree2.html#a5110dbbe8a7f5325c1924565400d3596" xlink:title=" ">
<polygon fill="white" stroke="#666666" points="528.38,-160.12 365.38,-160.12 365.38,-139.38 528.38,-139.38 528.38,-160.12"/>
<text xml:space="preserve" text-anchor="middle" x="446.88" y="-146.62" font-family="Helvetica,sans-Serif" font-size="10.00">TOctree2::AddElementInternal</text>
</a>
</g>
</g>
<!-- Node1&#45;&gt;Node2 -->
<g id="edge1_Node000001_Node000002" class="edge">
<title>Node1&#45;&gt;Node2</title>
<g id="a_edge1_Node000001_Node000002"><a xlink:title=" ">
<path fill="none" stroke="#63b8ff" d="M582.65,-108.89C566.51,-116.57 547.82,-124.75 530.25,-130.75 521.22,-133.83 511.47,-136.58 501.94,-138.95"/>
<polygon fill="#63b8ff" stroke="#63b8ff" points="584.01,-112.12 591.49,-104.6 580.96,-105.82 584.01,-112.12"/>
</a>
</g>
</g>
<!-- Node5 -->
<g id="Node000005" class="node">
<title>Node5</title>
<g id="a_Node000005"><a xlink:href="$classTOctree__DEPRECATED.html#abd2d9475a8392920066214535c864fdc" xlink:title=" ">
<polygon fill="white" stroke="#666666" points="509.25,-103.5 384.5,-103.5 384.5,-70 509.25,-70 509.25,-103.5"/>
<text xml:space="preserve" text-anchor="start" x="392.5" y="-90" font-family="Helvetica,sans-Serif" font-size="10.00">TOctree_DEPRECATED</text>
<text xml:space="preserve" text-anchor="middle" x="446.88" y="-77.25" font-family="Helvetica,sans-Serif" font-size="10.00">::AddElementToNode</text>
</a>
</g>
</g>
<!-- Node1&#45;&gt;Node5 -->
<g id="edge5_Node000001_Node000005" class="edge">
<title>Node1&#45;&gt;Node5</title>
<g id="a_edge5_Node000001_Node000005"><a xlink:title=" ">
<path fill="none" stroke="#63b8ff" d="M554.76,-86.75C539.81,-86.75 524.15,-86.75 509.57,-86.75"/>
<polygon fill="#63b8ff" stroke="#63b8ff" points="554.51,-90.25 564.51,-86.75 554.51,-83.25 554.51,-90.25"/>
</a>
</g>
</g>
<!-- Node8 -->
<g id="Node000008" class="node">
<title>Node8</title>
<g id="a_Node000008"><a xlink:href="$classTOctree2.html#a45503122961c2f78eb00f821735fb9a2" xlink:title=" ">
<polygon fill="white" stroke="#666666" points="530.25,-33.5 363.5,-33.5 363.5,0 530.25,0 530.25,-33.5"/>
<text xml:space="preserve" text-anchor="start" x="371.5" y="-20" font-family="Helvetica,sans-Serif" font-size="10.00">TOctree2::FindNearbyElements</text>
<text xml:space="preserve" text-anchor="middle" x="446.88" y="-7.25" font-family="Helvetica,sans-Serif" font-size="10.00">Internal</text>
</a>
</g>
</g>
<!-- Node1&#45;&gt;Node8 -->
<g id="edge9_Node000001_Node000008" class="edge">
<title>Node1&#45;&gt;Node8</title>
<g id="a_edge9_Node000001_Node000008"><a xlink:title=" ">
<path fill="none" stroke="#63b8ff" d="M571.56,-65.42C545.92,-55.33 515.7,-43.44 491.56,-33.94"/>
<polygon fill="#63b8ff" stroke="#63b8ff" points="570.24,-68.67 580.83,-69.07 572.8,-62.15 570.24,-68.67"/>
</a>
</g>
</g>
<!-- Node2&#45;&gt;Node2 -->
<g id="edge4_Node000002_Node000002" class="edge">
<title>Node2&#45;&gt;Node2</title>
<g id="a_edge4_Node000002_Node000002"><a xlink:title=" ">
<path fill="none" stroke="#63b8ff" d="M478.53,-171.61C474.33,-175.45 463.78,-178.12 446.88,-178.12 415.96,-178.12 406.3,-169.18 417.89,-160.52"/>
<polygon fill="#63b8ff" stroke="#63b8ff" points="481.95,-170.9 476.21,-161.99 475.15,-172.54 481.95,-170.9"/>
</a>
</g>
</g>
<!-- Node3 -->
<g id="Node000003" class="node">
<title>Node3</title>
<g id="a_Node000003"><a xlink:href="$classTOctree2.html#a4cd446fa10b1491a7a8ba1b813eb62e8" xlink:title=" ">
<polygon fill="white" stroke="#666666" points="306.88,-160.12 181.38,-160.12 181.38,-139.38 306.88,-139.38 306.88,-160.12"/>
<text xml:space="preserve" text-anchor="middle" x="244.12" y="-146.62" font-family="Helvetica,sans-Serif" font-size="10.00">TOctree2::AddElement</text>
</a>
</g>
</g>
<!-- Node2&#45;&gt;Node3 -->
<g id="edge2_Node000002_Node000003" class="edge">
<title>Node2&#45;&gt;Node3</title>
<g id="a_edge2_Node000002_Node000003"><a xlink:title=" ">
<path fill="none" stroke="#63b8ff" d="M353.7,-149.75C337.96,-149.75 321.94,-149.75 307.22,-149.75"/>
<polygon fill="#63b8ff" stroke="#63b8ff" points="353.58,-153.25 363.58,-149.75 353.58,-146.25 353.58,-153.25"/>
</a>
</g>
</g>
<!-- Node4 -->
<g id="Node000004" class="node">
<title>Node4</title>
<g id="a_Node000004"><a xlink:href="$classTOctree2.html#aee8b7946ce5fbf327e1eb0adfaab2579" xlink:title=" ">
<polygon fill="white" stroke="#666666" points="124.38,-160.12 0.38,-160.12 0.38,-139.38 124.38,-139.38 124.38,-160.12"/>
<text xml:space="preserve" text-anchor="middle" x="62.38" y="-146.62" font-family="Helvetica,sans-Serif" font-size="10.00">TOctree2::ApplyOffset</text>
</a>
</g>
</g>
<!-- Node3&#45;&gt;Node4 -->
<g id="edge3_Node000003_Node000004" class="edge">
<title>Node3&#45;&gt;Node4</title>
<g id="a_edge3_Node000003_Node000004"><a xlink:title=" ">
<path fill="none" stroke="#63b8ff" d="M169.7,-149.75C154.71,-149.75 139.09,-149.75 124.58,-149.75"/>
<polygon fill="#63b8ff" stroke="#63b8ff" points="169.5,-153.25 179.5,-149.75 169.5,-146.25 169.5,-153.25"/>
</a>
</g>
</g>
<!-- Node5&#45;&gt;Node5 -->
<g id="edge8_Node000005_Node000005" class="edge">
<title>Node5&#45;&gt;Node5</title>
<g id="a_edge8_Node000005_Node000005"><a xlink:title=" ">
<path fill="none" stroke="#63b8ff" d="M477.08,-114.89C472.16,-118.85 462.09,-121.5 446.88,-121.5 419.82,-121.5 409.05,-113.12 414.54,-103.91"/>
<polygon fill="#63b8ff" stroke="#63b8ff" points="480.45,-115.88 478.92,-105.4 473.58,-114.55 480.45,-115.88"/>
</a>
</g>
</g>
<!-- Node6 -->
<g id="Node000006" class="node">
<title>Node6</title>
<g id="a_Node000006"><a xlink:href="$classTOctree__DEPRECATED.html#aff4c7ca514bdb263de836a92f03f492b" xlink:title=" ">
<polygon fill="white" stroke="#666666" points="306.5,-103.5 181.75,-103.5 181.75,-70 306.5,-70 306.5,-103.5"/>
<text xml:space="preserve" text-anchor="start" x="189.75" y="-90" font-family="Helvetica,sans-Serif" font-size="10.00">TOctree_DEPRECATED</text>
<text xml:space="preserve" text-anchor="middle" x="244.12" y="-77.25" font-family="Helvetica,sans-Serif" font-size="10.00">::AddElement</text>
</a>
</g>
</g>
<!-- Node5&#45;&gt;Node6 -->
<g id="edge6_Node000005_Node000006" class="edge">
<title>Node5&#45;&gt;Node6</title>
<g id="a_edge6_Node000005_Node000006"><a xlink:title=" ">
<path fill="none" stroke="#63b8ff" d="M372.56,-86.75C350.97,-86.75 327.57,-86.75 306.79,-86.75"/>
<polygon fill="#63b8ff" stroke="#63b8ff" points="372.49,-90.25 382.49,-86.75 372.49,-83.25 372.49,-90.25"/>
</a>
</g>
</g>
<!-- Node7 -->
<g id="Node000007" class="node">
<title>Node7</title>
<g id="a_Node000007"><a xlink:href="$classTOctree__DEPRECATED.html#a9ca49ee8586fe4a12910c93213d646a3" xlink:title=" ">
<polygon fill="white" stroke="#666666" points="124.75,-103.5 0,-103.5 0,-70 124.75,-70 124.75,-103.5"/>
<text xml:space="preserve" text-anchor="start" x="8" y="-90" font-family="Helvetica,sans-Serif" font-size="10.00">TOctree_DEPRECATED</text>
<text xml:space="preserve" text-anchor="middle" x="62.38" y="-77.25" font-family="Helvetica,sans-Serif" font-size="10.00">::ApplyOffset</text>
</a>
</g>
</g>
<!-- Node6&#45;&gt;Node7 -->
<g id="edge7_Node000006_Node000007" class="edge">
<title>Node6&#45;&gt;Node7</title>
<g id="a_edge7_Node000006_Node000007"><a xlink:title=" ">
<path fill="none" stroke="#63b8ff" d="M170.01,-86.75C155.08,-86.75 139.52,-86.75 125.04,-86.75"/>
<polygon fill="#63b8ff" stroke="#63b8ff" points="169.75,-90.25 179.75,-86.75 169.75,-83.25 169.75,-90.25"/>
</a>
</g>
</g>
<!-- Node8&#45;&gt;Node8 -->
<g id="edge11_Node000008_Node000008" class="edge">
<title>Node8&#45;&gt;Node8</title>
<g id="a_edge11_Node000008_Node000008"><a xlink:title=" ">
<path fill="none" stroke="#63b8ff" d="M477.08,-44.89C472.16,-48.85 462.09,-51.5 446.88,-51.5 419.82,-51.5 409.05,-43.12 414.54,-33.91"/>
<polygon fill="#63b8ff" stroke="#63b8ff" points="480.45,-45.88 478.92,-35.4 473.58,-44.55 480.45,-45.88"/>
</a>
</g>
</g>
<!-- Node9 -->
<g id="Node000009" class="node">
<title>Node9</title>
<g id="a_Node000009"><a xlink:href="$classTOctree2.html#a21dc1e8f07892cae81acd4720a955cf0" xlink:title=" ">
<polygon fill="white" stroke="#666666" points="327.5,-27.12 160.75,-27.12 160.75,-6.38 327.5,-6.38 327.5,-27.12"/>
<text xml:space="preserve" text-anchor="middle" x="244.12" y="-13.62" font-family="Helvetica,sans-Serif" font-size="10.00">TOctree2::FindNearbyElements</text>
</a>
</g>
</g>
<!-- Node8&#45;&gt;Node9 -->
<g id="edge10_Node000008_Node000009" class="edge">
<title>Node8&#45;&gt;Node9</title>
<g id="a_edge10_Node000008_Node000009"><a xlink:title=" ">
<path fill="none" stroke="#63b8ff" d="M351.78,-16.75C343.75,-16.75 335.67,-16.75 327.75,-16.75"/>
<polygon fill="#63b8ff" stroke="#63b8ff" points="351.55,-20.25 361.55,-16.75 351.55,-13.25 351.55,-20.25"/>
</a>
</g>
</g>
</g>
</svg>
