<?xml version="1.0" encoding="UTF-8" standalone="no"?>
<!DOCTYPE svg PUBLIC "-//W3C//DTD SVG 1.1//EN"
 "http://www.w3.org/Graphics/SVG/1.1/DTD/svg11.dtd">
<!-- Generated by graphviz version 14.1.4 (0)
 -->
<!-- Title: UKismetMathLibrary::HSVToRGB Pages: 1 -->
<svg width="507pt" height="53pt"
 viewBox="0.00 0.00 507.00 53.00" xmlns="http://www.w3.org/2000/svg" xmlns:xlink="http://www.w3.org/1999/xlink">
<g id="graph0" class="graph" transform="scale(1 1) rotate(0) translate(4 49.12)">
<title>UKismetMathLibrary::HSVToRGB</title>
<!-- Node1 -->
<g id="Node000001" class="node">
<title>Node1</title>
<g id="a_Node000001"><a xlink:title=" ">
<polygon fill="#999999" stroke="#666666" points="116.5,-33.5 0,-33.5 0,0 116.5,0 116.5,-33.5"/>
<text xml:space="preserve" text-anchor="start" x="8" y="-20" font-family="Helvetica,sans-Serif" font-size="10.00">UKismetMathLibrary</text>
<text xml:space="preserve" text-anchor="middle" x="58.25" y="-7.25" font-family="Helvetica,sans-Serif" font-size="10.00">::HSVToRGB</text>
</a>
</g>
</g>
<!-- Node2 -->
<g id="Node000002" class="node">
<title>Node2</title>
<g id="a_Node000002"><a xlink:href="$structFLinearColor.html#a87bc212d9923feb720fc0ab293ead425" xlink:title=" ">
<polygon fill="white" stroke="#666666" points="317.75,-27.12 152.5,-27.12 152.5,-6.38 317.75,-6.38 317.75,-27.12"/>
<text xml:space="preserve" text-anchor="middle" x="235.12" y="-13.62" font-family="Helvetica,sans-Serif" font-size="10.00">FLinearColor::HSVToLinearRGB</text>
</a>
</g>
</g>
<!-- Node1&#45;&gt;Node2 -->
<g id="edge1_Node000001_Node000002" class="edge">
<title>Node1&#45;&gt;Node2</title>
<g id="a_edge1_Node000001_Node000002"><a xlink:title=" ">
<path fill="none" stroke="#63b8ff" d="M117,-16.75C124.64,-16.75 132.62,-16.75 140.67,-16.75"/>
<polygon fill="#63b8ff" stroke="#63b8ff" points="140.56,-20.25 150.56,-16.75 140.56,-13.25 140.56,-20.25"/>
</a>
</g>
</g>
<!-- Node3 -->
<g id="Node000003" class="node">
<title>Node3</title>
<g id="a_Node000003"><a xlink:href="$structFLinearColor.html#a64e751b82e233d7a58cf4813b4710bd2" xlink:title=" ">
<polygon fill="white" stroke="#666666" points="498.75,-27.12 353.75,-27.12 353.75,-6.38 498.75,-6.38 498.75,-27.12"/>
<text xml:space="preserve" text-anchor="middle" x="426.25" y="-13.62" font-family="Helvetica,sans-Serif" font-size="10.00">FLinearColor::FLinearColor</text>
</a>
</g>
</g>
<!-- Node2&#45;&gt;Node3 -->
<g id="edge2_Node000002_Node000003" class="edge">
<title>Node2&#45;&gt;Node3</title>
<g id="a_edge2_Node000002_Node000003"><a xlink:title=" ">
<path fill="none" stroke="#63b8ff" d="M317.98,-16.75C325.98,-16.75 334.12,-16.75 342.13,-16.75"/>
<polygon fill="#63b8ff" stroke="#63b8ff" points="341.86,-20.25 351.86,-16.75 341.86,-13.25 341.86,-20.25"/>
</a>
</g>
</g>
<!-- Node3&#45;&gt;Node3 -->
<g id="edge3_Node000003_Node000003" class="edge">
<title>Node3&#45;&gt;Node3</title>
<g id="a_edge3_Node000003_Node000003"><a xlink:title=" ">
<path fill="none" stroke="#63b8ff" d="M395.45,-27.52C383.13,-36.18 393.4,-45.12 426.25,-45.12 444.21,-45.12 455.42,-42.45 459.88,-38.61"/>
<polygon fill="#63b8ff" stroke="#63b8ff" points="463.29,-37.81 457.42,-28.99 456.51,-39.54 463.29,-37.81"/>
</a>
</g>
</g>
</g>
</svg>
