<?xml version="1.0" encoding="UTF-8" standalone="no"?>
<!DOCTYPE svg PUBLIC "-//W3C//DTD SVG 1.1//EN"
 "http://www.w3.org/Graphics/SVG/1.1/DTD/svg11.dtd">
<!-- Generated by graphviz version 14.1.4 (0)
 -->
<!-- Title: TUTF32ToUTF16_Convert::Utf16FromCodepoint Pages: 1 -->
<svg width="672pt" height="94pt"
 viewBox="0.00 0.00 672.00 94.00" xmlns="http://www.w3.org/2000/svg" xmlns:xlink="http://www.w3.org/1999/xlink">
<g id="graph0" class="graph" transform="scale(1 1) rotate(0) translate(4 89.5)">
<title>TUTF32ToUTF16_Convert::Utf16FromCodepoint</title>
<!-- Node1 -->
<g id="Node000001" class="node">
<title>Node1</title>
<g id="a_Node000001"><a xlink:title=" ">
<polygon fill="#999999" stroke="#666666" points="664,-59.5 525,-59.5 525,-26 664,-26 664,-59.5"/>
<text xml:space="preserve" text-anchor="start" x="533" y="-46" font-family="Helvetica,sans-Serif" font-size="10.00">TUTF32ToUTF16_Convert</text>
<text xml:space="preserve" text-anchor="middle" x="594.5" y="-33.25" font-family="Helvetica,sans-Serif" font-size="10.00">::Utf16FromCodepoint</text>
</a>
</g>
</g>
<!-- Node2 -->
<g id="Node000002" class="node">
<title>Node2</title>
<g id="a_Node000002"><a xlink:href="$classTUTF32ToUTF16__Convert.html#ab02d0ebde86f2de52bde60145ce2f40e" xlink:title=" ">
<polygon fill="white" stroke="#666666" points="489,-59.5 350,-59.5 350,-26 489,-26 489,-59.5"/>
<text xml:space="preserve" text-anchor="start" x="358" y="-46" font-family="Helvetica,sans-Serif" font-size="10.00">TUTF32ToUTF16_Convert</text>
<text xml:space="preserve" text-anchor="middle" x="419.5" y="-33.25" font-family="Helvetica,sans-Serif" font-size="10.00">::WriteCodepointToBuffer</text>
</a>
</g>
</g>
<!-- Node1&#45;&gt;Node2 -->
<g id="edge1_Node000001_Node000002" class="edge">
<title>Node1&#45;&gt;Node2</title>
<g id="a_edge1_Node000001_Node000002"><a xlink:title=" ">
<path fill="none" stroke="#63b8ff" d="M513.38,-42.75C505.38,-42.75 497.3,-42.75 489.42,-42.75"/>
<polygon fill="#63b8ff" stroke="#63b8ff" points="513.12,-46.25 523.12,-42.75 513.12,-39.25 513.12,-46.25"/>
</a>
</g>
</g>
<!-- Node3 -->
<g id="Node000003" class="node">
<title>Node3</title>
<g id="a_Node000003"><a xlink:href="$classTUTF32ToUTF16__Convert.html#aac9b4981d53a6d332066020da8b3762c" xlink:title=" ">
<polygon fill="white" stroke="#666666" points="314,-59.5 175,-59.5 175,-26 314,-26 314,-59.5"/>
<text xml:space="preserve" text-anchor="start" x="183" y="-46" font-family="Helvetica,sans-Serif" font-size="10.00">TUTF32ToUTF16_Convert</text>
<text xml:space="preserve" text-anchor="middle" x="244.5" y="-33.25" font-family="Helvetica,sans-Serif" font-size="10.00">::Convert_Impl</text>
</a>
</g>
</g>
<!-- Node2&#45;&gt;Node3 -->
<g id="edge2_Node000002_Node000003" class="edge">
<title>Node2&#45;&gt;Node3</title>
<g id="a_edge2_Node000002_Node000003"><a xlink:title=" ">
<path fill="none" stroke="#63b8ff" d="M338.38,-42.75C330.38,-42.75 322.3,-42.75 314.42,-42.75"/>
<polygon fill="#63b8ff" stroke="#63b8ff" points="338.12,-46.25 348.12,-42.75 338.12,-39.25 338.12,-46.25"/>
</a>
</g>
</g>
<!-- Node4 -->
<g id="Node000004" class="node">
<title>Node4</title>
<g id="a_Node000004"><a xlink:href="$classTUTF32ToUTF16__Convert.html#ac55ac1377c3313b3c1783680658e3cb3" xlink:title=" ">
<polygon fill="white" stroke="#666666" points="139,-85.5 0,-85.5 0,-52 139,-52 139,-85.5"/>
<text xml:space="preserve" text-anchor="start" x="8" y="-72" font-family="Helvetica,sans-Serif" font-size="10.00">TUTF32ToUTF16_Convert</text>
<text xml:space="preserve" text-anchor="middle" x="69.5" y="-59.25" font-family="Helvetica,sans-Serif" font-size="10.00">::Convert</text>
</a>
</g>
</g>
<!-- Node3&#45;&gt;Node4 -->
<g id="edge3_Node000003_Node000004" class="edge">
<title>Node3&#45;&gt;Node4</title>
<g id="a_edge3_Node000003_Node000004"><a xlink:title=" ">
<path fill="none" stroke="#63b8ff" d="M163.38,-54.79C155.38,-55.99 147.3,-57.21 139.42,-58.39"/>
<polygon fill="#63b8ff" stroke="#63b8ff" points="163.76,-58.27 173.13,-53.33 162.72,-51.35 163.76,-58.27"/>
</a>
</g>
</g>
<!-- Node5 -->
<g id="Node000005" class="node">
<title>Node5</title>
<g id="a_Node000005"><a xlink:href="$classTUTF32ToUTF16__Convert.html#a003bfeba2deb396580e8e4bedeb0f456" xlink:title=" ">
<polygon fill="white" stroke="#666666" points="139,-33.5 0,-33.5 0,0 139,0 139,-33.5"/>
<text xml:space="preserve" text-anchor="start" x="8" y="-20" font-family="Helvetica,sans-Serif" font-size="10.00">TUTF32ToUTF16_Convert</text>
<text xml:space="preserve" text-anchor="middle" x="69.5" y="-7.25" font-family="Helvetica,sans-Serif" font-size="10.00">::ConvertedLength</text>
</a>
</g>
</g>
<!-- Node3&#45;&gt;Node5 -->
<g id="edge4_Node000003_Node000005" class="edge">
<title>Node3&#45;&gt;Node5</title>
<g id="a_edge4_Node000003_Node000005"><a xlink:title=" ">
<path fill="none" stroke="#63b8ff" d="M163.38,-30.71C155.38,-29.51 147.3,-28.29 139.42,-27.11"/>
<polygon fill="#63b8ff" stroke="#63b8ff" points="162.72,-34.15 173.13,-32.17 163.76,-27.23 162.72,-34.15"/>
</a>
</g>
</g>
</g>
</svg>
