<?xml version="1.0" encoding="UTF-8" standalone="no"?>
<!DOCTYPE svg PUBLIC "-//W3C//DTD SVG 1.1//EN"
 "http://www.w3.org/Graphics/SVG/1.1/DTD/svg11.dtd">
<!-- Generated by graphviz version 14.1.4 (0)
 -->
<!-- Title: UStreamingSettings Pages: 1 -->
<svg width="194pt" height="350pt"
 viewBox="0.00 0.00 194.00 350.00" xmlns="http://www.w3.org/2000/svg" xmlns:xlink="http://www.w3.org/1999/xlink">
<g id="graph0" class="graph" transform="scale(1 1) rotate(0) translate(4 345.5)">
<title>UStreamingSettings</title>
<!-- Node1 -->
<g id="Node000001" class="node">
<title>Node1</title>
<g id="a_Node000001"><a xlink:title=" ">
<polygon fill="#999999" stroke="none" points="186,-251.25 0,-251.25 0,0 186,0 186,-251.25"/>
<text xml:space="preserve" text-anchor="start" x="44.25" y="-237.5" font-family="Helvetica,sans-Serif" font-size="10.00">UStreamingSettings</text>
<text xml:space="preserve" text-anchor="start" x="4" y="-220.75" font-family="Helvetica,sans-Serif" font-size="10.00">#</text>
<text xml:space="preserve" text-anchor="start" x="16.25" y="-220.75" font-family="Helvetica,sans-Serif" font-size="10.00">AsyncLoadingThreadEnabled</text>
<text xml:space="preserve" text-anchor="start" x="4" y="-204" font-family="Helvetica,sans-Serif" font-size="10.00">#</text>
<text xml:space="preserve" text-anchor="start" x="16.25" y="-204" font-family="Helvetica,sans-Serif" font-size="10.00">WarnIfTimeLimitExceeded</text>
<text xml:space="preserve" text-anchor="start" x="4" y="-187.25" font-family="Helvetica,sans-Serif" font-size="10.00">#</text>
<text xml:space="preserve" text-anchor="start" x="16.25" y="-187.25" font-family="Helvetica,sans-Serif" font-size="10.00">TimeLimitExceededMultiplier</text>
<text xml:space="preserve" text-anchor="start" x="4" y="-170.5" font-family="Helvetica,sans-Serif" font-size="10.00">#</text>
<text xml:space="preserve" text-anchor="start" x="16.25" y="-170.5" font-family="Helvetica,sans-Serif" font-size="10.00">TimeLimitExceededMinTime</text>
<text xml:space="preserve" text-anchor="start" x="4" y="-153.75" font-family="Helvetica,sans-Serif" font-size="10.00">#</text>
<text xml:space="preserve" text-anchor="start" x="16.25" y="-153.75" font-family="Helvetica,sans-Serif" font-size="10.00">MinBulkDataSizeForAsyncLoading</text>
<text xml:space="preserve" text-anchor="start" x="4" y="-137" font-family="Helvetica,sans-Serif" font-size="10.00">#</text>
<text xml:space="preserve" text-anchor="start" x="16.25" y="-137" font-family="Helvetica,sans-Serif" font-size="10.00">UseBackgroundLevelStreaming</text>
<text xml:space="preserve" text-anchor="start" x="4" y="-120.25" font-family="Helvetica,sans-Serif" font-size="10.00">#</text>
<text xml:space="preserve" text-anchor="start" x="16.25" y="-120.25" font-family="Helvetica,sans-Serif" font-size="10.00">AsyncLoadingUseFullTimeLimit</text>
<text xml:space="preserve" text-anchor="start" x="4" y="-103.5" font-family="Helvetica,sans-Serif" font-size="10.00">#</text>
<text xml:space="preserve" text-anchor="start" x="16.25" y="-103.5" font-family="Helvetica,sans-Serif" font-size="10.00">AsyncLoadingTimeLimit</text>
<text xml:space="preserve" text-anchor="start" x="4" y="-86.75" font-family="Helvetica,sans-Serif" font-size="10.00">#</text>
<text xml:space="preserve" text-anchor="start" x="16.25" y="-86.75" font-family="Helvetica,sans-Serif" font-size="10.00">PriorityAsyncLoadingExtraTime</text>
<text xml:space="preserve" text-anchor="start" x="4" y="-70" font-family="Helvetica,sans-Serif" font-size="10.00">#</text>
<text xml:space="preserve" text-anchor="start" x="16.25" y="-70" font-family="Helvetica,sans-Serif" font-size="10.00">LevelStreamingActorsUpdate</text>
<text xml:space="preserve" text-anchor="start" x="16.25" y="-57.25" font-family="Helvetica,sans-Serif" font-size="10.00">TimeLimit</text>
<text xml:space="preserve" text-anchor="start" x="16.25" y="-40.5" font-family="Helvetica,sans-Serif" font-size="10.00">and 7 more...</text>
<text xml:space="preserve" text-anchor="start" x="4" y="-23.75" font-family="Helvetica,sans-Serif" font-size="10.00">+</text>
<text xml:space="preserve" text-anchor="start" x="16.25" y="-23.75" font-family="Helvetica,sans-Serif" font-size="10.00">UStreamingSettings()</text>
<text xml:space="preserve" text-anchor="start" x="4" y="-7" font-family="Helvetica,sans-Serif" font-size="10.00">#</text>
<text xml:space="preserve" text-anchor="start" x="16.25" y="-7" font-family="Helvetica,sans-Serif" font-size="10.00">PostInitProperties()</text>
<polygon fill="#666666" stroke="#666666" points="0,-232.5 0,-232.5 186,-232.5 186,-232.5 0,-232.5"/>
<polygon fill="#666666" stroke="#666666" points="0,-35.5 0,-35.5 14.25,-35.5 14.25,-35.5 0,-35.5"/>
<polygon fill="#666666" stroke="#666666" points="14.25,-35.5 14.25,-35.5 186,-35.5 186,-35.5 14.25,-35.5"/>
<polygon fill="none" stroke="#666666" points="0,0 0,-251.25 186,-251.25 186,0 0,0"/>
</a>
</g>
</g>
<!-- Node2 -->
<g id="Node000002" class="node">
<title>Node2</title>
<g id="a_Node000002"><a xlink:title=" ">
<polygon fill="white" stroke="none" points="145.75,-341.5 40.25,-341.5 40.25,-287.25 145.75,-287.25 145.75,-341.5"/>
<text xml:space="preserve" text-anchor="start" x="44.25" y="-327.75" font-family="Helvetica,sans-Serif" font-size="10.00">UDeveloperSettings</text>
<text xml:space="preserve" text-anchor="start" x="90" y="-311" font-family="Helvetica,sans-Serif" font-size="10.00"> </text>
<text xml:space="preserve" text-anchor="start" x="90" y="-294.25" font-family="Helvetica,sans-Serif" font-size="10.00"> </text>
<polygon fill="#666666" stroke="#666666" points="40.25,-322.75 40.25,-322.75 145.75,-322.75 145.75,-322.75 40.25,-322.75"/>
<polygon fill="#666666" stroke="#666666" points="40.25,-306 40.25,-306 145.75,-306 145.75,-306 40.25,-306"/>
<polygon fill="none" stroke="#666666" points="40.25,-287.25 40.25,-341.5 145.75,-341.5 145.75,-287.25 40.25,-287.25"/>
</a>
</g>
</g>
<!-- Node2&#45;&gt;Node1 -->
<g id="edge1_Node000001_Node000002" class="edge">
<title>Node2&#45;&gt;Node1</title>
<g id="a_edge1_Node000001_Node000002"><a xlink:title=" ">
<path fill="none" stroke="#63b8ff" d="M93,-276.1C93,-268.45 93,-260.01 93,-251.14"/>
<polygon fill="none" stroke="#63b8ff" points="89.5,-275.89 93,-285.89 96.5,-275.89 89.5,-275.89"/>
</a>
</g>
</g>
</g>
</svg>
