<?xml version="1.0" encoding="UTF-8" standalone="no"?>
<!DOCTYPE svg PUBLIC "-//W3C//DTD SVG 1.1//EN"
 "http://www.w3.org/Graphics/SVG/1.1/DTD/svg11.dtd">
<!-- Generated by graphviz version 14.1.4 (0)
 -->
<!-- Title: FTextFormatPatternDefinition Pages: 1 -->
<svg width="395pt" height="1023pt"
 viewBox="0.00 0.00 395.00 1023.00" xmlns="http://www.w3.org/2000/svg" xmlns:xlink="http://www.w3.org/1999/xlink">
<g id="graph0" class="graph" transform="scale(1 1) rotate(0) translate(4 1018.5)">
<title>FTextFormatPatternDefinition</title>
<!-- Node1 -->
<g id="Node000001" class="node">
<title>Node1</title>
<g id="a_Node000001"><a xlink:title=" ">
<polygon fill="#999999" stroke="none" points="356.25,-792.25 184.5,-792.25 184.5,-553.75 356.25,-553.75 356.25,-792.25"/>
<text xml:space="preserve" text-anchor="start" x="198.38" y="-778.5" font-family="Helvetica,sans-Serif" font-size="10.00">FTextFormatPatternDefinition</text>
<text xml:space="preserve" text-anchor="start" x="188.5" y="-761.75" font-family="Helvetica,sans-Serif" font-size="10.00">+</text>
<text xml:space="preserve" text-anchor="start" x="200.75" y="-761.75" font-family="Helvetica,sans-Serif" font-size="10.00">EscapeChar</text>
<text xml:space="preserve" text-anchor="start" x="188.5" y="-745" font-family="Helvetica,sans-Serif" font-size="10.00">+</text>
<text xml:space="preserve" text-anchor="start" x="200.75" y="-745" font-family="Helvetica,sans-Serif" font-size="10.00">ArgStartChar</text>
<text xml:space="preserve" text-anchor="start" x="188.5" y="-728.25" font-family="Helvetica,sans-Serif" font-size="10.00">+</text>
<text xml:space="preserve" text-anchor="start" x="200.75" y="-728.25" font-family="Helvetica,sans-Serif" font-size="10.00">ArgEndChar</text>
<text xml:space="preserve" text-anchor="start" x="188.5" y="-711.5" font-family="Helvetica,sans-Serif" font-size="10.00">+</text>
<text xml:space="preserve" text-anchor="start" x="200.75" y="-711.5" font-family="Helvetica,sans-Serif" font-size="10.00">ArgModChar</text>
<text xml:space="preserve" text-anchor="start" x="188.5" y="-694.75" font-family="Helvetica,sans-Serif" font-size="10.00">+</text>
<text xml:space="preserve" text-anchor="start" x="200.75" y="-694.75" font-family="Helvetica,sans-Serif" font-size="10.00">FTextFormatPatternDefinition()</text>
<text xml:space="preserve" text-anchor="start" x="188.5" y="-678" font-family="Helvetica,sans-Serif" font-size="10.00">+</text>
<text xml:space="preserve" text-anchor="start" x="200.75" y="-678" font-family="Helvetica,sans-Serif" font-size="10.00">GetTextFormatDefinitions()</text>
<text xml:space="preserve" text-anchor="start" x="188.5" y="-661.25" font-family="Helvetica,sans-Serif" font-size="10.00">+</text>
<text xml:space="preserve" text-anchor="start" x="200.75" y="-661.25" font-family="Helvetica,sans-Serif" font-size="10.00">IsValidEscapeChar()</text>
<text xml:space="preserve" text-anchor="start" x="188.5" y="-644.5" font-family="Helvetica,sans-Serif" font-size="10.00">+</text>
<text xml:space="preserve" text-anchor="start" x="200.75" y="-644.5" font-family="Helvetica,sans-Serif" font-size="10.00">IsLiteralBreakChar()</text>
<text xml:space="preserve" text-anchor="start" x="188.5" y="-627.75" font-family="Helvetica,sans-Serif" font-size="10.00">+</text>
<text xml:space="preserve" text-anchor="start" x="200.75" y="-627.75" font-family="Helvetica,sans-Serif" font-size="10.00">SetEscapeChar()</text>
<text xml:space="preserve" text-anchor="start" x="188.5" y="-611" font-family="Helvetica,sans-Serif" font-size="10.00">+</text>
<text xml:space="preserve" text-anchor="start" x="200.75" y="-611" font-family="Helvetica,sans-Serif" font-size="10.00">SetArgStartChar()</text>
<text xml:space="preserve" text-anchor="start" x="188.5" y="-594.25" font-family="Helvetica,sans-Serif" font-size="10.00">+</text>
<text xml:space="preserve" text-anchor="start" x="200.75" y="-594.25" font-family="Helvetica,sans-Serif" font-size="10.00">SetArgEndChar()</text>
<text xml:space="preserve" text-anchor="start" x="188.5" y="-577.5" font-family="Helvetica,sans-Serif" font-size="10.00">+</text>
<text xml:space="preserve" text-anchor="start" x="200.75" y="-577.5" font-family="Helvetica,sans-Serif" font-size="10.00">SetArgModChar()</text>
<text xml:space="preserve" text-anchor="start" x="188.5" y="-560.75" font-family="Helvetica,sans-Serif" font-size="10.00">+</text>
<text xml:space="preserve" text-anchor="start" x="200.75" y="-560.75" font-family="Helvetica,sans-Serif" font-size="10.00">GetDefault()</text>
<polygon fill="#666666" stroke="#666666" points="184.5,-773.5 184.5,-773.5 356.25,-773.5 356.25,-773.5 184.5,-773.5"/>
<polygon fill="#666666" stroke="#666666" points="184.5,-706.5 184.5,-706.5 198.75,-706.5 198.75,-706.5 184.5,-706.5"/>
<polygon fill="#666666" stroke="#666666" points="198.75,-706.5 198.75,-706.5 356.25,-706.5 356.25,-706.5 198.75,-706.5"/>
<polygon fill="none" stroke="#666666" points="184.5,-553.75 184.5,-792.25 356.25,-792.25 356.25,-553.75 184.5,-553.75"/>
</a>
</g>
</g>
<!-- Node4 -->
<g id="Node000004" class="node">
<title>Node4</title>
<g id="a_Node000004"><a xlink:href="$classTWeakPtr.html" xlink:title=" ">
<polygon fill="white" stroke="none" points="297.62,-499 135.12,-499 135.12,-285.25 297.62,-285.25 297.62,-499"/>
<text xml:space="preserve" text-anchor="start" x="139.12" y="-485.25" font-family="Helvetica,sans-Serif" font-size="10.00">TWeakPtr&lt; FTextFormatPattern</text>
<text xml:space="preserve" text-anchor="start" x="170.25" y="-472.5" font-family="Helvetica,sans-Serif" font-size="10.00">Definition, Mode &gt;</text>
<text xml:space="preserve" text-anchor="start" x="140.38" y="-455.75" font-family="Helvetica,sans-Serif" font-size="10.00">+</text>
<text xml:space="preserve" text-anchor="start" x="153.88" y="-455.75" font-family="Helvetica,sans-Serif" font-size="10.00">Mode</text>
<text xml:space="preserve" text-anchor="start" x="140.38" y="-439" font-family="Helvetica,sans-Serif" font-size="10.00">+</text>
<text xml:space="preserve" text-anchor="start" x="153.88" y="-439" font-family="Helvetica,sans-Serif" font-size="10.00">bHasIntrusiveUnsetOptional</text>
<text xml:space="preserve" text-anchor="start" x="153.88" y="-426.25" font-family="Helvetica,sans-Serif" font-size="10.00">State</text>
<text xml:space="preserve" text-anchor="start" x="142.62" y="-409.5" font-family="Helvetica,sans-Serif" font-size="10.00">&#45;</text>
<text xml:space="preserve" text-anchor="start" x="153.88" y="-409.5" font-family="Helvetica,sans-Serif" font-size="10.00">WeakReferenceCount</text>
<text xml:space="preserve" text-anchor="start" x="140.38" y="-392.75" font-family="Helvetica,sans-Serif" font-size="10.00">+</text>
<text xml:space="preserve" text-anchor="start" x="153.88" y="-392.75" font-family="Helvetica,sans-Serif" font-size="10.00">operator=()</text>
<text xml:space="preserve" text-anchor="start" x="140.38" y="-376" font-family="Helvetica,sans-Serif" font-size="10.00">+</text>
<text xml:space="preserve" text-anchor="start" x="153.88" y="-376" font-family="Helvetica,sans-Serif" font-size="10.00">Pin()</text>
<text xml:space="preserve" text-anchor="start" x="140.38" y="-359.25" font-family="Helvetica,sans-Serif" font-size="10.00">+</text>
<text xml:space="preserve" text-anchor="start" x="153.88" y="-359.25" font-family="Helvetica,sans-Serif" font-size="10.00">IsValid()</text>
<text xml:space="preserve" text-anchor="start" x="140.38" y="-342.5" font-family="Helvetica,sans-Serif" font-size="10.00">+</text>
<text xml:space="preserve" text-anchor="start" x="153.88" y="-342.5" font-family="Helvetica,sans-Serif" font-size="10.00">Reset()</text>
<text xml:space="preserve" text-anchor="start" x="140.38" y="-325.75" font-family="Helvetica,sans-Serif" font-size="10.00">+</text>
<text xml:space="preserve" text-anchor="start" x="153.88" y="-325.75" font-family="Helvetica,sans-Serif" font-size="10.00">HasSameObject()</text>
<text xml:space="preserve" text-anchor="start" x="140.38" y="-309" font-family="Helvetica,sans-Serif" font-size="10.00">+</text>
<text xml:space="preserve" text-anchor="start" x="153.88" y="-309" font-family="Helvetica,sans-Serif" font-size="10.00">GetWeakPtrTypeHash()</text>
<text xml:space="preserve" text-anchor="start" x="140.38" y="-292.25" font-family="Helvetica,sans-Serif" font-size="10.00">+</text>
<text xml:space="preserve" text-anchor="start" x="153.88" y="-292.25" font-family="Helvetica,sans-Serif" font-size="10.00">operator==()</text>
<polygon fill="#666666" stroke="#666666" points="135.12,-467.5 135.12,-467.5 297.62,-467.5 297.62,-467.5 135.12,-467.5"/>
<polygon fill="#666666" stroke="#666666" points="135.12,-404.5 135.12,-404.5 151.88,-404.5 151.88,-404.5 135.12,-404.5"/>
<polygon fill="#666666" stroke="#666666" points="151.88,-404.5 151.88,-404.5 297.62,-404.5 297.62,-404.5 151.88,-404.5"/>
<polygon fill="none" stroke="#666666" points="135.12,-285.25 135.12,-499 297.62,-499 297.62,-285.25 135.12,-285.25"/>
</a>
</g>
</g>
<!-- Node1&#45;&gt;Node4 -->
<g id="edge4_Node000004_Node000001" class="edge">
<title>Node1&#45;&gt;Node4</title>
<g id="a_edge4_Node000004_Node000001"><a xlink:title=" ">
<path fill="none" stroke="#63b8ff" d="M247.55,-554.14C244.79,-539.88 241.97,-525.31 239.21,-511.06"/>
<polygon fill="none" stroke="#63b8ff" points="239.26,-511.29 234.19,-506.16 236.97,-499.51 242.04,-504.64 239.26,-511.29"/>
</a>
</g>
<text xml:space="preserve" text-anchor="start" x="246.38" y="-523" font-family="Helvetica,sans-Serif" font-size="10.00" fill="grey">&#45;Object</text>
</g>
<!-- Node2 -->
<g id="Node000002" class="node">
<title>Node2</title>
<g id="a_Node000002"><a xlink:href="$classTSharedFromThis.html" xlink:title=" ">
<polygon fill="white" stroke="none" points="305.25,-230.5 127.5,-230.5 127.5,0 305.25,0 305.25,-230.5"/>
<text xml:space="preserve" text-anchor="start" x="138" y="-216.75" font-family="Helvetica,sans-Serif" font-size="10.00">TSharedFromThis&lt; FTextFormat</text>
<text xml:space="preserve" text-anchor="start" x="138" y="-204" font-family="Helvetica,sans-Serif" font-size="10.00">PatternDefinition, ESPMode</text>
<text xml:space="preserve" text-anchor="start" x="180" y="-191.25" font-family="Helvetica,sans-Serif" font-size="10.00">::ThreadSafe &gt;</text>
<text xml:space="preserve" text-anchor="start" x="213.38" y="-174.5" font-family="Helvetica,sans-Serif" font-size="10.00"> </text>
<text xml:space="preserve" text-anchor="start" x="131.5" y="-157.75" font-family="Helvetica,sans-Serif" font-size="10.00">+</text>
<text xml:space="preserve" text-anchor="start" x="143.75" y="-157.75" font-family="Helvetica,sans-Serif" font-size="10.00">AsShared()</text>
<text xml:space="preserve" text-anchor="start" x="131.5" y="-141" font-family="Helvetica,sans-Serif" font-size="10.00">+</text>
<text xml:space="preserve" text-anchor="start" x="143.75" y="-141" font-family="Helvetica,sans-Serif" font-size="10.00">AsSharedSubobject()</text>
<text xml:space="preserve" text-anchor="start" x="131.5" y="-124.25" font-family="Helvetica,sans-Serif" font-size="10.00">+</text>
<text xml:space="preserve" text-anchor="start" x="143.75" y="-124.25" font-family="Helvetica,sans-Serif" font-size="10.00">AsWeak()</text>
<text xml:space="preserve" text-anchor="start" x="131.5" y="-107.5" font-family="Helvetica,sans-Serif" font-size="10.00">+</text>
<text xml:space="preserve" text-anchor="start" x="143.75" y="-107.5" font-family="Helvetica,sans-Serif" font-size="10.00">AsWeakSubobject()</text>
<text xml:space="preserve" text-anchor="start" x="131.5" y="-90.75" font-family="Helvetica,sans-Serif" font-size="10.00">+</text>
<text xml:space="preserve" text-anchor="start" x="143.75" y="-90.75" font-family="Helvetica,sans-Serif" font-size="10.00">UpdateWeakReferenceInternal()</text>
<text xml:space="preserve" text-anchor="start" x="131.5" y="-74" font-family="Helvetica,sans-Serif" font-size="10.00">+</text>
<text xml:space="preserve" text-anchor="start" x="143.75" y="-74" font-family="Helvetica,sans-Serif" font-size="10.00">DoesSharedInstanceExist()</text>
<text xml:space="preserve" text-anchor="start" x="131.5" y="-57.25" font-family="Helvetica,sans-Serif" font-size="10.00">#</text>
<text xml:space="preserve" text-anchor="start" x="143.75" y="-57.25" font-family="Helvetica,sans-Serif" font-size="10.00">TSharedFromThis()</text>
<text xml:space="preserve" text-anchor="start" x="131.5" y="-40.5" font-family="Helvetica,sans-Serif" font-size="10.00">#</text>
<text xml:space="preserve" text-anchor="start" x="143.75" y="-40.5" font-family="Helvetica,sans-Serif" font-size="10.00">operator=()</text>
<text xml:space="preserve" text-anchor="start" x="131.5" y="-23.75" font-family="Helvetica,sans-Serif" font-size="10.00">#</text>
<text xml:space="preserve" text-anchor="start" x="143.75" y="-23.75" font-family="Helvetica,sans-Serif" font-size="10.00">~TSharedFromThis()</text>
<text xml:space="preserve" text-anchor="start" x="131.5" y="-7" font-family="Helvetica,sans-Serif" font-size="10.00">#</text>
<text xml:space="preserve" text-anchor="start" x="143.75" y="-7" font-family="Helvetica,sans-Serif" font-size="10.00">SharedThis()</text>
<polygon fill="#666666" stroke="#666666" points="127.5,-186.25 127.5,-186.25 305.25,-186.25 305.25,-186.25 127.5,-186.25"/>
<polygon fill="#666666" stroke="#666666" points="127.5,-169.5 127.5,-169.5 305.25,-169.5 305.25,-169.5 127.5,-169.5"/>
<polygon fill="none" stroke="#666666" points="127.5,0 127.5,-230.5 305.25,-230.5 305.25,0 127.5,0"/>
</a>
</g>
</g>
<!-- Node2&#45;&gt;Node1 -->
<g id="edge1_Node000001_Node000002" class="edge">
<title>Node2&#45;&gt;Node1</title>
<g id="a_edge1_Node000001_Node000002"><a xlink:title=" ">
<path fill="none" stroke="#63b8ff" d="M290.93,-240.21C297.23,-254.99 302.61,-270.18 306.38,-285.25 328.47,-373.74 317.17,-476.68 301.59,-554.1"/>
<polygon fill="none" stroke="#63b8ff" points="294.3,-239.17 287.05,-231.44 287.9,-242 294.3,-239.17"/>
</a>
</g>
</g>
<!-- Node3 -->
<g id="Node000003" class="node">
<title>Node3</title>
<g id="a_Node000003"><a xlink:href="$structUE_1_1Core_1_1Private_1_1FSharedFromThisBase.html" xlink:title=" ">
<polygon fill="white" stroke="none" points="116.75,-425.62 0,-425.62 0,-358.62 116.75,-358.62 116.75,-425.62"/>
<text xml:space="preserve" text-anchor="start" x="4" y="-411.88" font-family="Helvetica,sans-Serif" font-size="10.00">UE::Core::Private::</text>
<text xml:space="preserve" text-anchor="start" x="4" y="-399.12" font-family="Helvetica,sans-Serif" font-size="10.00">FSharedFromThisBase</text>
<text xml:space="preserve" text-anchor="start" x="55.38" y="-382.38" font-family="Helvetica,sans-Serif" font-size="10.00"> </text>
<text xml:space="preserve" text-anchor="start" x="55.38" y="-365.62" font-family="Helvetica,sans-Serif" font-size="10.00"> </text>
<polygon fill="#666666" stroke="#666666" points="0,-394.12 0,-394.12 116.75,-394.12 116.75,-394.12 0,-394.12"/>
<polygon fill="#666666" stroke="#666666" points="0,-377.38 0,-377.38 116.75,-377.38 116.75,-377.38 0,-377.38"/>
<polygon fill="none" stroke="#666666" points="0,-358.62 0,-425.62 116.75,-425.62 116.75,-358.62 0,-358.62"/>
</a>
</g>
</g>
<!-- Node3&#45;&gt;Node2 -->
<g id="edge2_Node000002_Node000003" class="edge">
<title>Node3&#45;&gt;Node2</title>
<g id="a_edge2_Node000002_Node000003"><a xlink:title=" ">
<path fill="none" stroke="#8b1a1a" d="M82.6,-348.98C100.82,-317.29 126.69,-272.28 150.83,-230.27"/>
<polygon fill="none" stroke="#8b1a1a" points="79.67,-347.06 77.72,-357.47 85.74,-350.55 79.67,-347.06"/>
</a>
</g>
</g>
<!-- Node4&#45;&gt;Node2 -->
<g id="edge3_Node000002_Node000004" class="edge">
<title>Node4&#45;&gt;Node2</title>
<g id="a_edge3_Node000002_Node000004"><a xlink:title=" ">
<path fill="none" stroke="#63b8ff" d="M216.38,-285.64C216.38,-271.73 216.38,-257.36 216.38,-243.14"/>
<polygon fill="none" stroke="#63b8ff" points="216.38,-243.04 212.38,-237.04 216.38,-231.04 220.38,-237.04 216.38,-243.04"/>
</a>
</g>
<text xml:space="preserve" text-anchor="start" x="219.38" y="-254.5" font-family="Helvetica,sans-Serif" font-size="10.00" fill="grey">&#45;WeakThis</text>
</g>
<!-- Node5 -->
<g id="Node000005" class="node">
<title>Node5</title>
<g id="a_Node000005"><a xlink:href="$classTTokenDefinitions.html" xlink:title=" ">
<polygon fill="white" stroke="none" points="340.5,-1014.5 200.25,-1014.5 200.25,-847 340.5,-847 340.5,-1014.5"/>
<text xml:space="preserve" text-anchor="start" x="222.75" y="-1000.75" font-family="Helvetica,sans-Serif" font-size="10.00">TTokenDefinitions&lt;</text>
<text xml:space="preserve" text-anchor="start" x="246.38" y="-988" font-family="Helvetica,sans-Serif" font-size="10.00"> TCHAR &gt;</text>
<text xml:space="preserve" text-anchor="start" x="206.5" y="-971.25" font-family="Helvetica,sans-Serif" font-size="10.00">&#45;</text>
<text xml:space="preserve" text-anchor="start" x="216.5" y="-971.25" font-family="Helvetica,sans-Serif" font-size="10.00">bIgnoreWhitespace</text>
<text xml:space="preserve" text-anchor="start" x="206.5" y="-954.5" font-family="Helvetica,sans-Serif" font-size="10.00">&#45;</text>
<text xml:space="preserve" text-anchor="start" x="216.5" y="-954.5" font-family="Helvetica,sans-Serif" font-size="10.00">Definitions</text>
<text xml:space="preserve" text-anchor="start" x="204.25" y="-937.75" font-family="Helvetica,sans-Serif" font-size="10.00">+</text>
<text xml:space="preserve" text-anchor="start" x="216.5" y="-937.75" font-family="Helvetica,sans-Serif" font-size="10.00">TTokenDefinitions()</text>
<text xml:space="preserve" text-anchor="start" x="204.25" y="-921" font-family="Helvetica,sans-Serif" font-size="10.00">+</text>
<text xml:space="preserve" text-anchor="start" x="216.5" y="-921" font-family="Helvetica,sans-Serif" font-size="10.00">IgnoreWhitespace()</text>
<text xml:space="preserve" text-anchor="start" x="204.25" y="-904.25" font-family="Helvetica,sans-Serif" font-size="10.00">+</text>
<text xml:space="preserve" text-anchor="start" x="216.5" y="-904.25" font-family="Helvetica,sans-Serif" font-size="10.00">DefineToken()</text>
<text xml:space="preserve" text-anchor="start" x="204.25" y="-887.5" font-family="Helvetica,sans-Serif" font-size="10.00">+</text>
<text xml:space="preserve" text-anchor="start" x="216.5" y="-887.5" font-family="Helvetica,sans-Serif" font-size="10.00">DoesIgnoreWhitespace()</text>
<text xml:space="preserve" text-anchor="start" x="204.25" y="-870.75" font-family="Helvetica,sans-Serif" font-size="10.00">+</text>
<text xml:space="preserve" text-anchor="start" x="216.5" y="-870.75" font-family="Helvetica,sans-Serif" font-size="10.00">ConsumeTokens()</text>
<text xml:space="preserve" text-anchor="start" x="206.5" y="-854" font-family="Helvetica,sans-Serif" font-size="10.00">&#45;</text>
<text xml:space="preserve" text-anchor="start" x="216.5" y="-854" font-family="Helvetica,sans-Serif" font-size="10.00">ConsumeToken()</text>
<polygon fill="#666666" stroke="#666666" points="200.25,-983 200.25,-983 340.5,-983 340.5,-983 200.25,-983"/>
<polygon fill="#666666" stroke="#666666" points="200.25,-949.5 200.25,-949.5 214.5,-949.5 214.5,-949.5 200.25,-949.5"/>
<polygon fill="#666666" stroke="#666666" points="214.5,-949.5 214.5,-949.5 340.5,-949.5 340.5,-949.5 214.5,-949.5"/>
<polygon fill="none" stroke="#666666" points="200.25,-847 200.25,-1014.5 340.5,-1014.5 340.5,-847 200.25,-847"/>
</a>
</g>
</g>
<!-- Node5&#45;&gt;Node1 -->
<g id="edge5_Node000001_Node000005" class="edge">
<title>Node5&#45;&gt;Node1</title>
<g id="a_edge5_Node000001_Node000005"><a xlink:title=" ">
<path fill="none" stroke="#63b8ff" d="M270.38,-847.07C270.38,-833.52 270.38,-819.2 270.38,-804.83"/>
<polygon fill="none" stroke="#63b8ff" points="270.38,-805.11 266.38,-799.11 270.38,-793.11 274.38,-799.11 270.38,-805.11"/>
</a>
</g>
<text xml:space="preserve" text-anchor="start" x="273.38" y="-816.25" font-family="Helvetica,sans-Serif" font-size="10.00" fill="grey">&#45;TextFormatDefinitions</text>
</g>
</g>
</svg>
