<?xml version="1.0" encoding="UTF-8" standalone="no"?>
<!DOCTYPE svg PUBLIC "-//W3C//DTD SVG 1.1//EN"
 "http://www.w3.org/Graphics/SVG/1.1/DTD/svg11.dtd">
<!-- Generated by graphviz version 14.1.4 (0)
 -->
<!-- Title: FXxHash64Builder::FXxHash64Builder Pages: 1 -->
<svg width="555pt" height="42pt"
 viewBox="0.00 0.00 555.00 42.00" xmlns="http://www.w3.org/2000/svg" xmlns:xlink="http://www.w3.org/1999/xlink">
<g id="graph0" class="graph" transform="scale(1 1) rotate(0) translate(4 37.5)">
<title>FXxHash64Builder::FXxHash64Builder</title>
<!-- Node1 -->
<g id="Node000001" class="node">
<title>Node1</title>
<g id="a_Node000001"><a xlink:title=" ">
<polygon fill="#999999" stroke="#666666" points="167.5,-33.5 0,-33.5 0,0 167.5,0 167.5,-33.5"/>
<text xml:space="preserve" text-anchor="start" x="8" y="-20" font-family="Helvetica,sans-Serif" font-size="10.00">FXxHash64Builder::FXxHash64</text>
<text xml:space="preserve" text-anchor="middle" x="83.75" y="-7.25" font-family="Helvetica,sans-Serif" font-size="10.00">Builder</text>
</a>
</g>
</g>
<!-- Node2 -->
<g id="Node000002" class="node">
<title>Node2</title>
<g id="a_Node000002"><a xlink:href="$classFXxHash64Builder.html#a4e2f1c56db79cf0e9e83faf00434b872" xlink:title=" ">
<polygon fill="white" stroke="#666666" points="371,-33.5 203.5,-33.5 203.5,0 371,0 371,-33.5"/>
<text xml:space="preserve" text-anchor="start" x="211.5" y="-20" font-family="Helvetica,sans-Serif" font-size="10.00">FXxHash64Builder::FXxHash64</text>
<text xml:space="preserve" text-anchor="middle" x="287.25" y="-7.25" font-family="Helvetica,sans-Serif" font-size="10.00">Builder</text>
</a>
</g>
</g>
<!-- Node1&#45;&gt;Node2 -->
<g id="edge1_Node000001_Node000002" class="edge">
<title>Node1&#45;&gt;Node2</title>
<g id="a_edge1_Node000001_Node000002"><a xlink:title=" ">
<path fill="none" stroke="#63b8ff" d="M167.87,-16.75C175.83,-16.75 183.94,-16.75 191.99,-16.75"/>
<polygon fill="#63b8ff" stroke="#63b8ff" points="191.81,-20.25 201.81,-16.75 191.81,-13.25 191.81,-20.25"/>
</a>
</g>
</g>
<!-- Node3 -->
<g id="Node000003" class="node">
<title>Node3</title>
<g id="a_Node000003"><a xlink:href="$classFXxHash64Builder.html#aa84d98acf25b00052608742d146a4480" xlink:title=" ">
<polygon fill="white" stroke="#666666" points="546.75,-27.12 407,-27.12 407,-6.38 546.75,-6.38 546.75,-27.12"/>
<text xml:space="preserve" text-anchor="middle" x="476.88" y="-13.62" font-family="Helvetica,sans-Serif" font-size="10.00">FXxHash64Builder::Reset</text>
</a>
</g>
</g>
<!-- Node2&#45;&gt;Node3 -->
<g id="edge2_Node000002_Node000003" class="edge">
<title>Node2&#45;&gt;Node3</title>
<g id="a_edge2_Node000002_Node000003"><a xlink:title=" ">
<path fill="none" stroke="#63b8ff" d="M371.36,-16.75C379.27,-16.75 387.27,-16.75 395.15,-16.75"/>
<polygon fill="#63b8ff" stroke="#63b8ff" points="395.07,-20.25 405.07,-16.75 395.07,-13.25 395.07,-20.25"/>
</a>
</g>
</g>
</g>
</svg>
