<?xml version="1.0" encoding="UTF-8" standalone="no"?>
<!DOCTYPE svg PUBLIC "-//W3C//DTD SVG 1.1//EN"
 "http://www.w3.org/Graphics/SVG/1.1/DTD/svg11.dtd">
<!-- Generated by graphviz version 14.1.4 (0)
 -->
<!-- Title: UPrimaryAssetLabel Pages: 1 -->
<svg width="405pt" height="588pt"
 viewBox="0.00 0.00 405.00 588.00" xmlns="http://www.w3.org/2000/svg" xmlns:xlink="http://www.w3.org/1999/xlink">
<g id="graph0" class="graph" transform="scale(1 1) rotate(0) translate(4 584.25)">
<title>UPrimaryAssetLabel</title>
<!-- Node1 -->
<g id="Node000001" class="node">
<title>Node1</title>
<g id="a_Node000001"><a xlink:title=" ">
<polygon fill="#999999" stroke="none" points="278.5,-171.5 124.75,-171.5 124.75,0 278.5,0 278.5,-171.5"/>
<text xml:space="preserve" text-anchor="start" x="152.12" y="-157.75" font-family="Helvetica,sans-Serif" font-size="10.00">UPrimaryAssetLabel</text>
<text xml:space="preserve" text-anchor="start" x="128.75" y="-141" font-family="Helvetica,sans-Serif" font-size="10.00">+</text>
<text xml:space="preserve" text-anchor="start" x="141" y="-141" font-family="Helvetica,sans-Serif" font-size="10.00">bLabelAssetsInMyDirectory</text>
<text xml:space="preserve" text-anchor="start" x="128.75" y="-124.25" font-family="Helvetica,sans-Serif" font-size="10.00">+</text>
<text xml:space="preserve" text-anchor="start" x="141" y="-124.25" font-family="Helvetica,sans-Serif" font-size="10.00">bIsRuntimeLabel</text>
<text xml:space="preserve" text-anchor="start" x="128.75" y="-107.5" font-family="Helvetica,sans-Serif" font-size="10.00">+</text>
<text xml:space="preserve" text-anchor="start" x="141" y="-107.5" font-family="Helvetica,sans-Serif" font-size="10.00">bIncludeRedirectors</text>
<text xml:space="preserve" text-anchor="start" x="128.75" y="-90.75" font-family="Helvetica,sans-Serif" font-size="10.00">+</text>
<text xml:space="preserve" text-anchor="start" x="141" y="-90.75" font-family="Helvetica,sans-Serif" font-size="10.00">ExplicitAssets</text>
<text xml:space="preserve" text-anchor="start" x="128.75" y="-74" font-family="Helvetica,sans-Serif" font-size="10.00">+</text>
<text xml:space="preserve" text-anchor="start" x="141" y="-74" font-family="Helvetica,sans-Serif" font-size="10.00">ExplicitBlueprints</text>
<text xml:space="preserve" text-anchor="start" x="128.75" y="-57.25" font-family="Helvetica,sans-Serif" font-size="10.00">+</text>
<text xml:space="preserve" text-anchor="start" x="141" y="-57.25" font-family="Helvetica,sans-Serif" font-size="10.00">DirectoryBundle</text>
<text xml:space="preserve" text-anchor="start" x="128.75" y="-40.5" font-family="Helvetica,sans-Serif" font-size="10.00">+</text>
<text xml:space="preserve" text-anchor="start" x="141" y="-40.5" font-family="Helvetica,sans-Serif" font-size="10.00">CollectionBundle</text>
<text xml:space="preserve" text-anchor="start" x="128.75" y="-23.75" font-family="Helvetica,sans-Serif" font-size="10.00">+</text>
<text xml:space="preserve" text-anchor="start" x="141" y="-23.75" font-family="Helvetica,sans-Serif" font-size="10.00">UPrimaryAssetLabel()</text>
<text xml:space="preserve" text-anchor="start" x="128.75" y="-7" font-family="Helvetica,sans-Serif" font-size="10.00">+</text>
<text xml:space="preserve" text-anchor="start" x="141" y="-7" font-family="Helvetica,sans-Serif" font-size="10.00">IsEditorOnly()</text>
<polygon fill="#666666" stroke="#666666" points="124.75,-152.75 124.75,-152.75 278.5,-152.75 278.5,-152.75 124.75,-152.75"/>
<polygon fill="#666666" stroke="#666666" points="124.75,-35.5 124.75,-35.5 139,-35.5 139,-35.5 124.75,-35.5"/>
<polygon fill="#666666" stroke="#666666" points="139,-35.5 139,-35.5 278.5,-35.5 278.5,-35.5 139,-35.5"/>
<polygon fill="none" stroke="#666666" points="124.75,0 124.75,-171.5 278.5,-171.5 278.5,0 124.75,0"/>
</a>
</g>
</g>
<!-- Node2 -->
<g id="Node000002" class="node">
<title>Node2</title>
<g id="a_Node000002"><a xlink:href="classUPrimaryDataAsset.html" target="_top" xlink:title=" ">
<polygon fill="white" stroke="none" points="119.25,-347.5 0,-347.5 0,-276.5 119.25,-276.5 119.25,-347.5"/>
<text xml:space="preserve" text-anchor="start" x="11.62" y="-333.75" font-family="Helvetica,sans-Serif" font-size="10.00">UPrimaryDataAsset</text>
<text xml:space="preserve" text-anchor="start" x="56.62" y="-317" font-family="Helvetica,sans-Serif" font-size="10.00"> </text>
<text xml:space="preserve" text-anchor="start" x="4" y="-300.25" font-family="Helvetica,sans-Serif" font-size="10.00">+</text>
<text xml:space="preserve" text-anchor="start" x="16.25" y="-300.25" font-family="Helvetica,sans-Serif" font-size="10.00">GetPrimaryAssetId()</text>
<text xml:space="preserve" text-anchor="start" x="4" y="-283.5" font-family="Helvetica,sans-Serif" font-size="10.00">+</text>
<text xml:space="preserve" text-anchor="start" x="16.25" y="-283.5" font-family="Helvetica,sans-Serif" font-size="10.00">PostLoad()</text>
<polygon fill="#666666" stroke="#666666" points="0,-328.75 0,-328.75 119.25,-328.75 119.25,-328.75 0,-328.75"/>
<polygon fill="#666666" stroke="#666666" points="0,-312 0,-312 119.25,-312 119.25,-312 0,-312"/>
<polygon fill="none" stroke="#666666" points="0,-276.5 0,-347.5 119.25,-347.5 119.25,-276.5 0,-276.5"/>
</a>
</g>
</g>
<!-- Node2&#45;&gt;Node1 -->
<g id="edge1_Node000001_Node000002" class="edge">
<title>Node2&#45;&gt;Node1</title>
<g id="a_edge1_Node000001_Node000002"><a xlink:title=" ">
<path fill="none" stroke="#63b8ff" d="M87.3,-267.29C104.61,-239.96 127.47,-203.86 148.2,-171.12"/>
<polygon fill="none" stroke="#63b8ff" points="84.39,-265.34 82,-275.66 90.31,-269.09 84.39,-265.34"/>
</a>
</g>
</g>
<!-- Node3 -->
<g id="Node000003" class="node">
<title>Node3</title>
<g id="a_Node000003"><a xlink:href="classUDataAsset.html" target="_top" xlink:title=" ">
<polygon fill="white" stroke="none" points="96.75,-489 22.5,-489 22.5,-434.75 96.75,-434.75 96.75,-489"/>
<text xml:space="preserve" text-anchor="start" x="30.75" y="-475.25" font-family="Helvetica,sans-Serif" font-size="10.00">UDataAsset</text>
<text xml:space="preserve" text-anchor="start" x="26.5" y="-458.5" font-family="Helvetica,sans-Serif" font-size="10.00">&#45;</text>
<text xml:space="preserve" text-anchor="start" x="34.25" y="-458.5" font-family="Helvetica,sans-Serif" font-size="10.00">NativeClass</text>
<text xml:space="preserve" text-anchor="start" x="56.62" y="-441.75" font-family="Helvetica,sans-Serif" font-size="10.00"> </text>
<polygon fill="#666666" stroke="#666666" points="22.5,-470.25 22.5,-470.25 96.75,-470.25 96.75,-470.25 22.5,-470.25"/>
<polygon fill="#666666" stroke="#666666" points="22.5,-453.5 22.5,-453.5 32.25,-453.5 32.25,-453.5 22.5,-453.5"/>
<polygon fill="#666666" stroke="#666666" points="32.25,-453.5 32.25,-453.5 96.75,-453.5 96.75,-453.5 32.25,-453.5"/>
<polygon fill="none" stroke="#666666" points="22.5,-434.75 22.5,-489 96.75,-489 96.75,-434.75 22.5,-434.75"/>
</a>
</g>
</g>
<!-- Node3&#45;&gt;Node2 -->
<g id="edge2_Node000002_Node000003" class="edge">
<title>Node3&#45;&gt;Node2</title>
<g id="a_edge2_Node000002_Node000003"><a xlink:title=" ">
<path fill="none" stroke="#63b8ff" d="M59.62,-423.55C59.62,-400.17 59.62,-370.26 59.62,-347.45"/>
<polygon fill="none" stroke="#63b8ff" points="56.13,-423.26 59.63,-433.26 63.13,-423.26 56.13,-423.26"/>
</a>
</g>
</g>
<!-- Node4 -->
<g id="Node000004" class="node">
<title>Node4</title>
<g id="a_Node000004"><a xlink:title=" ">
<polygon fill="white" stroke="none" points="83.12,-580.25 36.12,-580.25 36.12,-526 83.12,-526 83.12,-580.25"/>
<text xml:space="preserve" text-anchor="start" x="40.12" y="-566.5" font-family="Helvetica,sans-Serif" font-size="10.00">UObject</text>
<text xml:space="preserve" text-anchor="start" x="56.62" y="-549.75" font-family="Helvetica,sans-Serif" font-size="10.00"> </text>
<text xml:space="preserve" text-anchor="start" x="56.62" y="-533" font-family="Helvetica,sans-Serif" font-size="10.00"> </text>
<polygon fill="#666666" stroke="#666666" points="36.12,-561.5 36.12,-561.5 83.12,-561.5 83.12,-561.5 36.12,-561.5"/>
<polygon fill="#666666" stroke="#666666" points="36.12,-544.75 36.12,-544.75 83.12,-544.75 83.12,-544.75 36.12,-544.75"/>
<polygon fill="none" stroke="#666666" points="36.12,-526 36.12,-580.25 83.12,-580.25 83.12,-526 36.12,-526"/>
</a>
</g>
</g>
<!-- Node4&#45;&gt;Node3 -->
<g id="edge3_Node000003_Node000004" class="edge">
<title>Node4&#45;&gt;Node3</title>
<g id="a_edge3_Node000003_Node000004"><a xlink:title=" ">
<path fill="none" stroke="#63b8ff" d="M59.62,-514.81C59.62,-506.11 59.62,-497.03 59.62,-488.94"/>
<polygon fill="none" stroke="#63b8ff" points="56.13,-514.8 59.63,-524.8 63.13,-514.8 56.13,-514.8"/>
</a>
</g>
</g>
<!-- Node5 -->
<g id="Node000005" class="node">
<title>Node5</title>
<g id="a_Node000005"><a xlink:href="structFPrimaryAssetRules.html" target="_top" xlink:title=" ">
<polygon fill="white" stroke="none" points="266.12,-397.75 137.12,-397.75 137.12,-226.25 266.12,-226.25 266.12,-397.75"/>
<text xml:space="preserve" text-anchor="start" x="152.5" y="-384" font-family="Helvetica,sans-Serif" font-size="10.00">FPrimaryAssetRules</text>
<text xml:space="preserve" text-anchor="start" x="141.12" y="-367.25" font-family="Helvetica,sans-Serif" font-size="10.00">+</text>
<text xml:space="preserve" text-anchor="start" x="153.38" y="-367.25" font-family="Helvetica,sans-Serif" font-size="10.00">Priority</text>
<text xml:space="preserve" text-anchor="start" x="141.12" y="-350.5" font-family="Helvetica,sans-Serif" font-size="10.00">+</text>
<text xml:space="preserve" text-anchor="start" x="153.38" y="-350.5" font-family="Helvetica,sans-Serif" font-size="10.00">ChunkId</text>
<text xml:space="preserve" text-anchor="start" x="141.12" y="-333.75" font-family="Helvetica,sans-Serif" font-size="10.00">+</text>
<text xml:space="preserve" text-anchor="start" x="153.38" y="-333.75" font-family="Helvetica,sans-Serif" font-size="10.00">bApplyRecursively</text>
<text xml:space="preserve" text-anchor="start" x="141.12" y="-317" font-family="Helvetica,sans-Serif" font-size="10.00">+</text>
<text xml:space="preserve" text-anchor="start" x="153.38" y="-317" font-family="Helvetica,sans-Serif" font-size="10.00">CookRule</text>
<text xml:space="preserve" text-anchor="start" x="141.12" y="-300.25" font-family="Helvetica,sans-Serif" font-size="10.00">+</text>
<text xml:space="preserve" text-anchor="start" x="153.38" y="-300.25" font-family="Helvetica,sans-Serif" font-size="10.00">FPrimaryAssetRules()</text>
<text xml:space="preserve" text-anchor="start" x="141.12" y="-283.5" font-family="Helvetica,sans-Serif" font-size="10.00">+</text>
<text xml:space="preserve" text-anchor="start" x="153.38" y="-283.5" font-family="Helvetica,sans-Serif" font-size="10.00">operator==()</text>
<text xml:space="preserve" text-anchor="start" x="141.12" y="-266.75" font-family="Helvetica,sans-Serif" font-size="10.00">+</text>
<text xml:space="preserve" text-anchor="start" x="153.38" y="-266.75" font-family="Helvetica,sans-Serif" font-size="10.00">IsDefault()</text>
<text xml:space="preserve" text-anchor="start" x="141.12" y="-250" font-family="Helvetica,sans-Serif" font-size="10.00">+</text>
<text xml:space="preserve" text-anchor="start" x="153.38" y="-250" font-family="Helvetica,sans-Serif" font-size="10.00">OverrideRules()</text>
<text xml:space="preserve" text-anchor="start" x="141.12" y="-233.25" font-family="Helvetica,sans-Serif" font-size="10.00">+</text>
<text xml:space="preserve" text-anchor="start" x="153.38" y="-233.25" font-family="Helvetica,sans-Serif" font-size="10.00">PropagateCookRules()</text>
<polygon fill="#666666" stroke="#666666" points="137.12,-379 137.12,-379 266.12,-379 266.12,-379 137.12,-379"/>
<polygon fill="#666666" stroke="#666666" points="137.12,-312 137.12,-312 151.38,-312 151.38,-312 137.12,-312"/>
<polygon fill="#666666" stroke="#666666" points="151.38,-312 151.38,-312 266.12,-312 266.12,-312 151.38,-312"/>
<polygon fill="none" stroke="#666666" points="137.12,-226.25 137.12,-397.75 266.12,-397.75 266.12,-226.25 137.12,-226.25"/>
</a>
</g>
</g>
<!-- Node5&#45;&gt;Node1 -->
<g id="edge4_Node000001_Node000005" class="edge">
<title>Node5&#45;&gt;Node1</title>
<g id="a_edge4_Node000001_Node000005"><a xlink:title=" ">
<path fill="none" stroke="#63b8ff" d="M201.62,-226.54C201.62,-212.66 201.62,-198.18 201.62,-184.02"/>
<polygon fill="none" stroke="#63b8ff" points="201.63,-184.04 197.63,-178.04 201.63,-172.04 205.63,-178.04 201.63,-184.04"/>
</a>
</g>
<text xml:space="preserve" text-anchor="start" x="204.62" y="-195.5" font-family="Helvetica,sans-Serif" font-size="10.00" fill="grey">+Rules</text>
</g>
<!-- Node6 -->
<g id="Node000006" class="node">
<title>Node6</title>
<g id="a_Node000006"><a xlink:href="structFCollectionReference.html" target="_top" xlink:title=" ">
<polygon fill="white" stroke="none" points="396.75,-339.12 284.5,-339.12 284.5,-284.88 396.75,-284.88 396.75,-339.12"/>
<text xml:space="preserve" text-anchor="start" x="288.5" y="-325.38" font-family="Helvetica,sans-Serif" font-size="10.00">FCollectionReference</text>
<text xml:space="preserve" text-anchor="start" x="292" y="-308.62" font-family="Helvetica,sans-Serif" font-size="10.00">+</text>
<text xml:space="preserve" text-anchor="start" x="307.75" y="-308.62" font-family="Helvetica,sans-Serif" font-size="10.00">CollectionName</text>
<text xml:space="preserve" text-anchor="start" x="337.62" y="-291.88" font-family="Helvetica,sans-Serif" font-size="10.00"> </text>
<polygon fill="#666666" stroke="#666666" points="284.5,-320.38 284.5,-320.38 396.75,-320.38 396.75,-320.38 284.5,-320.38"/>
<polygon fill="#666666" stroke="#666666" points="284.5,-303.62 284.5,-303.62 305.75,-303.62 305.75,-303.62 284.5,-303.62"/>
<polygon fill="#666666" stroke="#666666" points="305.75,-303.62 305.75,-303.62 396.75,-303.62 396.75,-303.62 305.75,-303.62"/>
<polygon fill="none" stroke="#666666" points="284.5,-284.88 284.5,-339.12 396.75,-339.12 396.75,-284.88 284.5,-284.88"/>
</a>
</g>
</g>
<!-- Node6&#45;&gt;Node1 -->
<g id="edge5_Node000001_Node000006" class="edge">
<title>Node6&#45;&gt;Node1</title>
<g id="a_edge5_Node000001_Node000006"><a xlink:title=" ">
<path fill="none" stroke="#63b8ff" d="M324.68,-285.28C309.04,-260.04 284.21,-219.99 260.94,-182.45"/>
<polygon fill="none" stroke="#63b8ff" points="260.91,-182.39 254.35,-179.4 254.58,-172.19 261.15,-175.18 260.91,-182.39"/>
</a>
</g>
<text xml:space="preserve" text-anchor="start" x="278.29" y="-195.5" font-family="Helvetica,sans-Serif" font-size="10.00" fill="grey">+AssetCollection</text>
</g>
</g>
</svg>
