<?xml version="1.0" encoding="UTF-8" standalone="no"?>
<!DOCTYPE svg PUBLIC "-//W3C//DTD SVG 1.1//EN"
 "http://www.w3.org/Graphics/SVG/1.1/DTD/svg11.dtd">
<!-- Generated by graphviz version 14.1.4 (0)
 -->
<!-- Title: TAllocRecordingLog::TAllocRecordingLog Pages: 1 -->
<svg width="476pt" height="158pt"
 viewBox="0.00 0.00 476.00 158.00" xmlns="http://www.w3.org/2000/svg" xmlns:xlink="http://www.w3.org/1999/xlink">
<g id="graph0" class="graph" transform="scale(1 1) rotate(0) translate(4 154.12)">
<title>TAllocRecordingLog::TAllocRecordingLog</title>
<!-- Node1 -->
<g id="Node000001" class="node">
<title>Node1</title>
<g id="a_Node000001"><a xlink:title=" ">
<polygon fill="#999999" stroke="#666666" points="118,-97.5 0,-97.5 0,-64 118,-64 118,-97.5"/>
<text xml:space="preserve" text-anchor="start" x="8" y="-84" font-family="Helvetica,sans-Serif" font-size="10.00">TAllocRecordingLog</text>
<text xml:space="preserve" text-anchor="middle" x="59" y="-71.25" font-family="Helvetica,sans-Serif" font-size="10.00">::TAllocRecordingLog</text>
</a>
</g>
</g>
<!-- Node2 -->
<g id="Node000002" class="node">
<title>Node2</title>
<g id="a_Node000002"><a xlink:href="$UnrealTemplate_8h.html#aea228b8b6d93b902d974d3bfa72f888f" xlink:title=" ">
<polygon fill="white" stroke="#666666" points="237.5,-150.12 182.5,-150.12 182.5,-129.38 237.5,-129.38 237.5,-150.12"/>
<text xml:space="preserve" text-anchor="middle" x="210" y="-136.62" font-family="Helvetica,sans-Serif" font-size="10.00">Forward</text>
</a>
</g>
</g>
<!-- Node1&#45;&gt;Node2 -->
<g id="edge1_Node000001_Node000002" class="edge">
<title>Node1&#45;&gt;Node2</title>
<g id="a_edge1_Node000001_Node000002"><a xlink:title=" ">
<path fill="none" stroke="#63b8ff" d="M100.09,-97.85C116.71,-104.81 136.22,-112.83 154,-119.75 159.68,-121.96 165.72,-124.23 171.64,-126.42"/>
<polygon fill="#63b8ff" stroke="#63b8ff" points="170.04,-129.56 180.63,-129.7 172.44,-122.98 170.04,-129.56"/>
</a>
</g>
</g>
<!-- Node3 -->
<g id="Node000003" class="node">
<title>Node3</title>
<g id="a_Node000003"><a xlink:href="$classIFileManager.html#a537767df892419ee42aa1b23c73f220c" xlink:title=" ">
<polygon fill="white" stroke="#666666" points="260.75,-111.12 159.25,-111.12 159.25,-90.38 260.75,-90.38 260.75,-111.12"/>
<text xml:space="preserve" text-anchor="middle" x="210" y="-97.62" font-family="Helvetica,sans-Serif" font-size="10.00">IFileManager::Get</text>
</a>
</g>
</g>
<!-- Node1&#45;&gt;Node3 -->
<g id="edge2_Node000001_Node000003" class="edge">
<title>Node1&#45;&gt;Node3</title>
<g id="a_edge2_Node000001_Node000003"><a xlink:title=" ">
<path fill="none" stroke="#63b8ff" d="M118.46,-88.6C128.07,-89.89 138.06,-91.23 147.73,-92.53"/>
<polygon fill="#63b8ff" stroke="#63b8ff" points="147.03,-95.96 157.41,-93.83 147.96,-89.03 147.03,-95.96"/>
</a>
</g>
</g>
<!-- Node5 -->
<g id="Node000005" class="node">
<title>Node5</title>
<g id="a_Node000005"><a xlink:href="$SharedPointer_8h.html#a3c724550c96871a21f9d4db8c4a80ce9" xlink:title=" ">
<polygon fill="white" stroke="#666666" points="255.5,-72.12 164.5,-72.12 164.5,-51.38 255.5,-51.38 255.5,-72.12"/>
<text xml:space="preserve" text-anchor="middle" x="210" y="-58.62" font-family="Helvetica,sans-Serif" font-size="10.00">MakeShareable</text>
</a>
</g>
</g>
<!-- Node1&#45;&gt;Node5 -->
<g id="edge4_Node000001_Node000005" class="edge">
<title>Node1&#45;&gt;Node5</title>
<g id="a_edge4_Node000001_Node000005"><a xlink:title=" ">
<path fill="none" stroke="#63b8ff" d="M118.46,-73.3C129.72,-71.86 141.48,-70.36 152.67,-68.93"/>
<polygon fill="#63b8ff" stroke="#63b8ff" points="153.09,-72.41 162.57,-67.67 152.21,-65.46 153.09,-72.41"/>
</a>
</g>
</g>
<!-- Node7 -->
<g id="Node000007" class="node">
<title>Node7</title>
<g id="a_Node000007"><a xlink:href="$classTAllocRecordingLog.html#a1e304c7e73b91e7d01731b4756ef1954" xlink:title=" ">
<polygon fill="white" stroke="#666666" points="266,-33.5 154,-33.5 154,0 266,0 266,-33.5"/>
<text xml:space="preserve" text-anchor="start" x="162" y="-20" font-family="Helvetica,sans-Serif" font-size="10.00">TAllocRecordingLog</text>
<text xml:space="preserve" text-anchor="middle" x="210" y="-7.25" font-family="Helvetica,sans-Serif" font-size="10.00">::WriteLineBuffer</text>
</a>
</g>
</g>
<!-- Node1&#45;&gt;Node7 -->
<g id="edge6_Node000001_Node000007" class="edge">
<title>Node1&#45;&gt;Node7</title>
<g id="a_edge6_Node000001_Node000007"><a xlink:title=" ">
<path fill="none" stroke="#63b8ff" d="M99.93,-63.6C117.97,-55.85 139.48,-46.61 158.61,-38.39"/>
<polygon fill="#63b8ff" stroke="#63b8ff" points="159.76,-41.71 167.57,-34.55 157,-35.28 159.76,-41.71"/>
</a>
</g>
</g>
<!-- Node4 -->
<g id="Node000004" class="node">
<title>Node4</title>
<g id="a_Node000004"><a xlink:href="$classIFileManager.html#adebb53bb6ca5667c05e416aaf26e333f" xlink:title=" ">
<polygon fill="white" stroke="#666666" points="458.25,-111.12 311.75,-111.12 311.75,-90.38 458.25,-90.38 458.25,-111.12"/>
<text xml:space="preserve" text-anchor="middle" x="385" y="-97.62" font-family="Helvetica,sans-Serif" font-size="10.00">IFileManager::IFileManager</text>
</a>
</g>
</g>
<!-- Node3&#45;&gt;Node4 -->
<g id="edge3_Node000003_Node000004" class="edge">
<title>Node3&#45;&gt;Node4</title>
<g id="a_edge3_Node000003_Node000004"><a xlink:title=" ">
<path fill="none" stroke="#63b8ff" d="M261.04,-100.75C273.36,-100.75 286.88,-100.75 300.32,-100.75"/>
<polygon fill="#63b8ff" stroke="#63b8ff" points="300.04,-104.25 310.04,-100.75 300.04,-97.25 300.04,-104.25"/>
</a>
</g>
</g>
<!-- Node6 -->
<g id="Node000006" class="node">
<title>Node6</title>
<g id="a_Node000006"><a xlink:href="$SharedPointerInternals_8h.html#a814775cee105cc074718875745ffc188" xlink:title=" ">
<polygon fill="white" stroke="#666666" points="468,-72.12 302,-72.12 302,-51.38 468,-51.38 468,-72.12"/>
<text xml:space="preserve" text-anchor="middle" x="385" y="-58.62" font-family="Helvetica,sans-Serif" font-size="10.00">IsDerivedFromSharedFromThis</text>
</a>
</g>
</g>
<!-- Node5&#45;&gt;Node6 -->
<g id="edge5_Node000005_Node000006" class="edge">
<title>Node5&#45;&gt;Node6</title>
<g id="a_edge5_Node000005_Node000006"><a xlink:title=" ">
<path fill="none" stroke="#63b8ff" d="M255.55,-61.75C266.36,-61.75 278.32,-61.75 290.47,-61.75"/>
<polygon fill="#63b8ff" stroke="#63b8ff" points="290.13,-65.25 300.13,-61.75 290.13,-58.25 290.13,-65.25"/>
</a>
</g>
</g>
</g>
</svg>
