<?xml version="1.0" encoding="UTF-8" standalone="no"?>
<!DOCTYPE svg PUBLIC "-//W3C//DTD SVG 1.1//EN"
 "http://www.w3.org/Graphics/SVG/1.1/DTD/svg11.dtd">
<!-- Generated by graphviz version 14.1.4 (0)
 -->
<!-- Title: FCbAttachment::FCbAttachment Pages: 1 -->
<svg width="391pt" height="185pt"
 viewBox="0.00 0.00 391.00 185.00" xmlns="http://www.w3.org/2000/svg" xmlns:xlink="http://www.w3.org/1999/xlink">
<g id="graph0" class="graph" transform="scale(1 1) rotate(0) translate(4 180.75)">
<title>FCbAttachment::FCbAttachment</title>
<!-- Node1 -->
<g id="Node000001" class="node">
<title>Node1</title>
<g id="a_Node000001"><a xlink:title=" ">
<polygon fill="#999999" stroke="#666666" points="383,-98.75 209.5,-98.75 209.5,-78 383,-78 383,-98.75"/>
<text xml:space="preserve" text-anchor="middle" x="296.25" y="-85.25" font-family="Helvetica,sans-Serif" font-size="10.00">FCbAttachment::FCbAttachment</text>
</a>
</g>
</g>
<!-- Node2 -->
<g id="Node000002" class="node">
<title>Node2</title>
<g id="a_Node000002"><a xlink:href="$classFCbAttachment.html#ae2fbb4f7ca734149250390545e2974a5" xlink:title=" ">
<polygon fill="white" stroke="#666666" points="173.5,-176.75 0,-176.75 0,-156 173.5,-156 173.5,-176.75"/>
<text xml:space="preserve" text-anchor="middle" x="86.75" y="-163.25" font-family="Helvetica,sans-Serif" font-size="10.00">FCbAttachment::FCbAttachment</text>
</a>
</g>
</g>
<!-- Node1&#45;&gt;Node2 -->
<g id="edge1_Node000001_Node000002" class="edge">
<title>Node1&#45;&gt;Node2</title>
<g id="a_edge1_Node000001_Node000002"><a xlink:title=" ">
<path fill="none" stroke="#63b8ff" d="M266.03,-104.5C241.83,-117.31 206.22,-134.92 173.5,-146.38 163.54,-149.86 152.73,-152.92 142.23,-155.53"/>
<polygon fill="#63b8ff" stroke="#63b8ff" points="267.49,-107.69 274.65,-99.88 264.18,-101.52 267.49,-107.69"/>
</a>
</g>
</g>
<!-- Node3 -->
<g id="Node000003" class="node">
<title>Node3</title>
<g id="a_Node000003"><a xlink:href="$classFCbAttachment.html#acfd47373d37d93525c3c8c28f2f14479" xlink:title=" ">
<polygon fill="white" stroke="#666666" points="173.5,-137.75 0,-137.75 0,-117 173.5,-117 173.5,-137.75"/>
<text xml:space="preserve" text-anchor="middle" x="86.75" y="-124.25" font-family="Helvetica,sans-Serif" font-size="10.00">FCbAttachment::FCbAttachment</text>
</a>
</g>
</g>
<!-- Node1&#45;&gt;Node3 -->
<g id="edge2_Node000001_Node000003" class="edge">
<title>Node1&#45;&gt;Node3</title>
<g id="a_edge2_Node000001_Node000003"><a xlink:title=" ">
<path fill="none" stroke="#63b8ff" d="M226.45,-101.31C200.25,-106.23 170.68,-111.79 145.6,-116.5"/>
<polygon fill="#63b8ff" stroke="#63b8ff" points="226.78,-104.81 235.96,-99.52 225.49,-97.93 226.78,-104.81"/>
</a>
</g>
</g>
<!-- Node4 -->
<g id="Node000004" class="node">
<title>Node4</title>
<g id="a_Node000004"><a xlink:href="$classFCbAttachment.html#ac88136f68fb7a74eec2acba8ca7a8d98" xlink:title=" ">
<polygon fill="white" stroke="#666666" points="162.25,-98.75 11.25,-98.75 11.25,-78 162.25,-78 162.25,-98.75"/>
<text xml:space="preserve" text-anchor="middle" x="86.75" y="-85.25" font-family="Helvetica,sans-Serif" font-size="10.00">FCbAttachment::operator!=</text>
</a>
</g>
</g>
<!-- Node1&#45;&gt;Node4 -->
<g id="edge3_Node000001_Node000004" class="edge">
<title>Node1&#45;&gt;Node4</title>
<g id="a_edge3_Node000001_Node000004"><a xlink:title=" ">
<path fill="none" stroke="#63b8ff" d="M197.73,-88.38C185.87,-88.38 173.9,-88.38 162.44,-88.38"/>
<polygon fill="#63b8ff" stroke="#63b8ff" points="197.54,-91.88 207.54,-88.38 197.54,-84.88 197.54,-91.88"/>
</a>
</g>
</g>
<!-- Node5 -->
<g id="Node000005" class="node">
<title>Node5</title>
<g id="a_Node000005"><a xlink:href="$classFCbAttachment.html#a7e10d3385df21dfcd0e95ced67fae5f9" xlink:title=" ">
<polygon fill="white" stroke="#666666" points="160.38,-59.75 13.12,-59.75 13.12,-39 160.38,-39 160.38,-59.75"/>
<text xml:space="preserve" text-anchor="middle" x="86.75" y="-46.25" font-family="Helvetica,sans-Serif" font-size="10.00">FCbAttachment::operator&lt;</text>
</a>
</g>
</g>
<!-- Node1&#45;&gt;Node5 -->
<g id="edge4_Node000001_Node000005" class="edge">
<title>Node1&#45;&gt;Node5</title>
<g id="a_edge4_Node000001_Node000005"><a xlink:title=" ">
<path fill="none" stroke="#63b8ff" d="M226.45,-75.44C200.25,-70.52 170.68,-64.96 145.6,-60.25"/>
<polygon fill="#63b8ff" stroke="#63b8ff" points="225.49,-78.82 235.96,-77.23 226.78,-71.94 225.49,-78.82"/>
</a>
</g>
</g>
<!-- Node6 -->
<g id="Node000006" class="node">
<title>Node6</title>
<g id="a_Node000006"><a xlink:href="$classFCbAttachment.html#a459453f51a7a3ae14955caaf2d8c3d7c" xlink:title=" ">
<polygon fill="white" stroke="#666666" points="164.5,-20.75 9,-20.75 9,0 164.5,0 164.5,-20.75"/>
<text xml:space="preserve" text-anchor="middle" x="86.75" y="-7.25" font-family="Helvetica,sans-Serif" font-size="10.00">FCbAttachment::operator==</text>
</a>
</g>
</g>
<!-- Node1&#45;&gt;Node6 -->
<g id="edge5_Node000001_Node000006" class="edge">
<title>Node1&#45;&gt;Node6</title>
<g id="a_edge5_Node000001_Node000006"><a xlink:title=" ">
<path fill="none" stroke="#63b8ff" d="M266.03,-72.25C241.83,-59.44 206.22,-41.83 173.5,-30.38 163.54,-26.89 152.73,-23.83 142.23,-21.22"/>
<polygon fill="#63b8ff" stroke="#63b8ff" points="264.18,-75.23 274.65,-76.87 267.49,-69.06 264.18,-75.23"/>
</a>
</g>
</g>
</g>
</svg>
