<?xml version="1.0" encoding="UTF-8" standalone="no"?>
<!DOCTYPE svg PUBLIC "-//W3C//DTD SVG 1.1//EN"
 "http://www.w3.org/Graphics/SVG/1.1/DTD/svg11.dtd">
<!-- Generated by graphviz version 14.1.4 (0)
 -->
<!-- Title: TStringConversion&lt; Converter, DefaultConversionSize &gt; Pages: 1 -->
<svg width="230pt" height="421pt"
 viewBox="0.00 0.00 230.00 421.00" xmlns="http://www.w3.org/2000/svg" xmlns:xlink="http://www.w3.org/1999/xlink">
<g id="graph0" class="graph" transform="scale(1 1) rotate(0) translate(4 417.25)">
<title>TStringConversion&lt; Converter, DefaultConversionSize &gt;</title>
<!-- Node1 -->
<g id="Node000001" class="node">
<title>Node1</title>
<g id="a_Node000001"><a xlink:title=" ">
<polygon fill="#999999" stroke="none" points="165.88,-297.5 10.12,-297.5 10.12,0 165.88,0 165.88,-297.5"/>
<text xml:space="preserve" text-anchor="start" x="14.12" y="-283.75" font-family="Helvetica,sans-Serif" font-size="10.00">TStringConversion&lt;</text>
<text xml:space="preserve" text-anchor="start" x="14.12" y="-271" font-family="Helvetica,sans-Serif" font-size="10.00"> Converter, DefaultConversion</text>
<text xml:space="preserve" text-anchor="start" x="72.25" y="-258.25" font-family="Helvetica,sans-Serif" font-size="10.00">Size &gt;</text>
<text xml:space="preserve" text-anchor="start" x="26.06" y="-241.5" font-family="Helvetica,sans-Serif" font-size="10.00">&#45;</text>
<text xml:space="preserve" text-anchor="start" x="45.75" y="-241.5" font-family="Helvetica,sans-Serif" font-size="10.00">Ptr</text>
<text xml:space="preserve" text-anchor="start" x="26.06" y="-224.75" font-family="Helvetica,sans-Serif" font-size="10.00">&#45;</text>
<text xml:space="preserve" text-anchor="start" x="45.75" y="-224.75" font-family="Helvetica,sans-Serif" font-size="10.00">StringLength</text>
<text xml:space="preserve" text-anchor="start" x="23.81" y="-208" font-family="Helvetica,sans-Serif" font-size="10.00">+</text>
<text xml:space="preserve" text-anchor="start" x="45.75" y="-208" font-family="Helvetica,sans-Serif" font-size="10.00">TStringConversion()</text>
<text xml:space="preserve" text-anchor="start" x="23.81" y="-191.25" font-family="Helvetica,sans-Serif" font-size="10.00">+</text>
<text xml:space="preserve" text-anchor="start" x="45.75" y="-191.25" font-family="Helvetica,sans-Serif" font-size="10.00">TStringConversion()</text>
<text xml:space="preserve" text-anchor="start" x="23.81" y="-174.5" font-family="Helvetica,sans-Serif" font-size="10.00">+</text>
<text xml:space="preserve" text-anchor="start" x="45.75" y="-174.5" font-family="Helvetica,sans-Serif" font-size="10.00">operator=()</text>
<text xml:space="preserve" text-anchor="start" x="23.81" y="-157.75" font-family="Helvetica,sans-Serif" font-size="10.00">+</text>
<text xml:space="preserve" text-anchor="start" x="45.75" y="-157.75" font-family="Helvetica,sans-Serif" font-size="10.00">operator=()</text>
<text xml:space="preserve" text-anchor="start" x="23.81" y="-141" font-family="Helvetica,sans-Serif" font-size="10.00">+</text>
<text xml:space="preserve" text-anchor="start" x="45.75" y="-141" font-family="Helvetica,sans-Serif" font-size="10.00">TStringConversion()</text>
<text xml:space="preserve" text-anchor="start" x="23.81" y="-124.25" font-family="Helvetica,sans-Serif" font-size="10.00">+</text>
<text xml:space="preserve" text-anchor="start" x="45.75" y="-124.25" font-family="Helvetica,sans-Serif" font-size="10.00">TStringConversion()</text>
<text xml:space="preserve" text-anchor="start" x="23.81" y="-107.5" font-family="Helvetica,sans-Serif" font-size="10.00">+</text>
<text xml:space="preserve" text-anchor="start" x="45.75" y="-107.5" font-family="Helvetica,sans-Serif" font-size="10.00">TStringConversion()</text>
<text xml:space="preserve" text-anchor="start" x="23.81" y="-90.75" font-family="Helvetica,sans-Serif" font-size="10.00">+</text>
<text xml:space="preserve" text-anchor="start" x="45.75" y="-90.75" font-family="Helvetica,sans-Serif" font-size="10.00">TStringConversion()</text>
<text xml:space="preserve" text-anchor="start" x="23.81" y="-74" font-family="Helvetica,sans-Serif" font-size="10.00">+</text>
<text xml:space="preserve" text-anchor="start" x="45.75" y="-74" font-family="Helvetica,sans-Serif" font-size="10.00">TStringConversion()</text>
<text xml:space="preserve" text-anchor="start" x="23.81" y="-57.25" font-family="Helvetica,sans-Serif" font-size="10.00">+</text>
<text xml:space="preserve" text-anchor="start" x="45.75" y="-57.25" font-family="Helvetica,sans-Serif" font-size="10.00">TStringConversion()</text>
<text xml:space="preserve" text-anchor="start" x="23.81" y="-40.5" font-family="Helvetica,sans-Serif" font-size="10.00">+</text>
<text xml:space="preserve" text-anchor="start" x="45.75" y="-40.5" font-family="Helvetica,sans-Serif" font-size="10.00">Get()</text>
<text xml:space="preserve" text-anchor="start" x="23.81" y="-23.75" font-family="Helvetica,sans-Serif" font-size="10.00">+</text>
<text xml:space="preserve" text-anchor="start" x="45.75" y="-23.75" font-family="Helvetica,sans-Serif" font-size="10.00">Length()</text>
<text xml:space="preserve" text-anchor="start" x="26.06" y="-7" font-family="Helvetica,sans-Serif" font-size="10.00">&#45;</text>
<text xml:space="preserve" text-anchor="start" x="45.75" y="-7" font-family="Helvetica,sans-Serif" font-size="10.00">Init()</text>
<polygon fill="#666666" stroke="#666666" points="10.12,-253.25 10.12,-253.25 165.88,-253.25 165.88,-253.25 10.12,-253.25"/>
<polygon fill="#666666" stroke="#666666" points="10.12,-219.75 10.12,-219.75 43.75,-219.75 43.75,-219.75 10.12,-219.75"/>
<polygon fill="#666666" stroke="#666666" points="43.75,-219.75 43.75,-219.75 165.88,-219.75 165.88,-219.75 43.75,-219.75"/>
<polygon fill="none" stroke="#666666" points="10.12,0 10.12,-297.5 165.88,-297.5 165.88,0 10.12,0"/>
</a>
</g>
</g>
<!-- Node2 -->
<g id="Node000002" class="node">
<title>Node2</title>
<g id="a_Node000002"><a xlink:title=" ">
<polygon fill="white" stroke="none" points="56,-400.5 0,-400.5 0,-346.25 56,-346.25 56,-400.5"/>
<text xml:space="preserve" text-anchor="start" x="4" y="-386.75" font-family="Helvetica,sans-Serif" font-size="10.00">Converter</text>
<text xml:space="preserve" text-anchor="start" x="25" y="-370" font-family="Helvetica,sans-Serif" font-size="10.00"> </text>
<text xml:space="preserve" text-anchor="start" x="25" y="-353.25" font-family="Helvetica,sans-Serif" font-size="10.00"> </text>
<polygon fill="#666666" stroke="#666666" points="0,-381.75 0,-381.75 56,-381.75 56,-381.75 0,-381.75"/>
<polygon fill="#666666" stroke="#666666" points="0,-365 0,-365 56,-365 56,-365 0,-365"/>
<polygon fill="none" stroke="#666666" points="0,-346.25 0,-400.5 56,-400.5 56,-346.25 0,-346.25"/>
</a>
</g>
</g>
<!-- Node2&#45;&gt;Node1 -->
<g id="edge1_Node000001_Node000002" class="edge">
<title>Node2&#45;&gt;Node1</title>
<g id="a_edge1_Node000001_Node000002"><a xlink:title=" ">
<path fill="none" stroke="#8b1a1a" d="M37.95,-335.44C40.97,-324.25 44.49,-311.2 48.23,-297.3"/>
<polygon fill="none" stroke="#8b1a1a" points="34.62,-334.37 35.39,-344.94 41.38,-336.2 34.62,-334.37"/>
</a>
</g>
</g>
<!-- Node3 -->
<g id="Node000003" class="node">
<title>Node3</title>
<g id="a_Node000003"><a xlink:title=" ">
<polygon fill="white" stroke="none" points="222.12,-413.25 73.88,-413.25 73.88,-333.5 222.12,-333.5 222.12,-413.25"/>
<text xml:space="preserve" text-anchor="start" x="77.88" y="-399.5" font-family="Helvetica,sans-Serif" font-size="10.00">TInlineAllocator::template</text>
<text xml:space="preserve" text-anchor="start" x="77.88" y="-386.75" font-family="Helvetica,sans-Serif" font-size="10.00"> ForElementType&lt; Converter</text>
<text xml:space="preserve" text-anchor="start" x="122.88" y="-374" font-family="Helvetica,sans-Serif" font-size="10.00">::ToType &gt;</text>
<text xml:space="preserve" text-anchor="start" x="145" y="-357.25" font-family="Helvetica,sans-Serif" font-size="10.00"> </text>
<text xml:space="preserve" text-anchor="start" x="145" y="-340.5" font-family="Helvetica,sans-Serif" font-size="10.00"> </text>
<polygon fill="#666666" stroke="#666666" points="73.88,-369 73.88,-369 222.12,-369 222.12,-369 73.88,-369"/>
<polygon fill="#666666" stroke="#666666" points="73.88,-352.25 73.88,-352.25 222.12,-352.25 222.12,-352.25 73.88,-352.25"/>
<polygon fill="none" stroke="#666666" points="73.88,-333.5 73.88,-413.25 222.12,-413.25 222.12,-333.5 73.88,-333.5"/>
</a>
</g>
</g>
<!-- Node3&#45;&gt;Node1 -->
<g id="edge2_Node000001_Node000003" class="edge">
<title>Node3&#45;&gt;Node1</title>
<g id="a_edge2_Node000001_Node000003"><a xlink:title=" ">
<path fill="none" stroke="#8b1a1a" d="M134.61,-322.71C132.45,-314.7 130.13,-306.06 127.71,-297.07"/>
<polygon fill="none" stroke="#8b1a1a" points="131.17,-323.39 137.15,-332.14 137.93,-321.57 131.17,-323.39"/>
</a>
</g>
</g>
</g>
</svg>
