<?xml version="1.0" encoding="UTF-8" standalone="no"?>
<!DOCTYPE svg PUBLIC "-//W3C//DTD SVG 1.1//EN"
 "http://www.w3.org/Graphics/SVG/1.1/DTD/svg11.dtd">
<!-- Generated by graphviz version 14.1.4 (0)
 -->
<!-- Title: ACharacter::ClientAdjustRootMotionPosition_Implementation Pages: 1 -->
<svg width="1695pt" height="60pt"
 viewBox="0.00 0.00 1695.00 60.00" xmlns="http://www.w3.org/2000/svg" xmlns:xlink="http://www.w3.org/1999/xlink">
<g id="graph0" class="graph" transform="scale(1 1) rotate(0) translate(4 55.5)">
<title>ACharacter::ClientAdjustRootMotionPosition_Implementation</title>
<!-- Node1 -->
<g id="Node000001" class="node">
<title>Node1</title>
<g id="a_Node000001"><a xlink:title=" ">
<polygon fill="#999999" stroke="#666666" points="1686.75,-33.5 1492.25,-33.5 1492.25,0 1686.75,0 1686.75,-33.5"/>
<text xml:space="preserve" text-anchor="start" x="1500.25" y="-20" font-family="Helvetica,sans-Serif" font-size="10.00">ACharacter::ClientAdjust</text>
<text xml:space="preserve" text-anchor="middle" x="1589.5" y="-7.25" font-family="Helvetica,sans-Serif" font-size="10.00">RootMotionPosition_Implementation</text>
</a>
</g>
</g>
<!-- Node1&#45;&gt;Node1 -->
<g id="edge17_Node000001_Node000001" class="edge">
<title>Node1&#45;&gt;Node1</title>
<g id="a_edge17_Node000001_Node000001"><a xlink:title=" ">
<path fill="none" stroke="#63b8ff" d="M1623.23,-44.89C1617.74,-48.85 1606.49,-51.5 1589.5,-51.5 1559.29,-51.5 1547.25,-43.12 1553.39,-33.91"/>
<polygon fill="#63b8ff" stroke="#63b8ff" points="1626.59,-45.91 1625.29,-35.39 1619.75,-44.42 1626.59,-45.91"/>
</a>
</g>
</g>
<!-- Node2 -->
<g id="Node000002" class="node">
<title>Node2</title>
<g id="a_Node000002"><a xlink:href="classACharacter.html#a5493f24d5ccbc006667506073b49bef7" target="_top" xlink:title=" ">
<polygon fill="white" stroke="#666666" points="1456.25,-33.5 1321,-33.5 1321,0 1456.25,0 1456.25,-33.5"/>
<text xml:space="preserve" text-anchor="start" x="1329" y="-20" font-family="Helvetica,sans-Serif" font-size="10.00">ACharacter::ClientAdjust</text>
<text xml:space="preserve" text-anchor="middle" x="1388.62" y="-7.25" font-family="Helvetica,sans-Serif" font-size="10.00">RootMotionPosition</text>
</a>
</g>
</g>
<!-- Node1&#45;&gt;Node2 -->
<g id="edge1_Node000001_Node000002" class="edge">
<title>Node1&#45;&gt;Node2</title>
<g id="a_edge1_Node000001_Node000002"><a xlink:title=" ">
<path fill="none" stroke="#63b8ff" d="M1480.47,-16.75C1472.36,-16.75 1464.32,-16.75 1456.58,-16.75"/>
<polygon fill="#63b8ff" stroke="#63b8ff" points="1480.46,-20.25 1490.46,-16.75 1480.46,-13.25 1480.46,-20.25"/>
</a>
</g>
</g>
<!-- Node2&#45;&gt;Node2 -->
<g id="edge2_Node000002_Node000002" class="edge">
<title>Node2&#45;&gt;Node2</title>
<g id="a_edge2_Node000002_Node000002"><a xlink:title=" ">
<path fill="none" stroke="#63b8ff" d="M1420.21,-44.89C1415.07,-48.85 1404.54,-51.5 1388.62,-51.5 1360.33,-51.5 1349.06,-43.12 1354.81,-33.91"/>
<polygon fill="#63b8ff" stroke="#63b8ff" points="1423.58,-45.89 1422.14,-35.4 1416.72,-44.5 1423.58,-45.89"/>
</a>
</g>
</g>
<!-- Node3 -->
<g id="Node000003" class="node">
<title>Node3</title>
<g id="a_Node000003"><a xlink:href="classACharacter.html#aa79b4caec3622e3749f7a5b27f2331c2" target="_top" xlink:title=" ">
<polygon fill="white" stroke="#666666" points="1285,-33.5 1116,-33.5 1116,0 1285,0 1285,-33.5"/>
<text xml:space="preserve" text-anchor="start" x="1124" y="-20" font-family="Helvetica,sans-Serif" font-size="10.00">ACharacter::ClientVeryShort</text>
<text xml:space="preserve" text-anchor="middle" x="1200.5" y="-7.25" font-family="Helvetica,sans-Serif" font-size="10.00">AdjustPosition_Implementation</text>
</a>
</g>
</g>
<!-- Node2&#45;&gt;Node3 -->
<g id="edge3_Node000002_Node000003" class="edge">
<title>Node2&#45;&gt;Node3</title>
<g id="a_edge3_Node000002_Node000003"><a xlink:title=" ">
<path fill="none" stroke="#63b8ff" d="M1309.25,-16.75C1301.35,-16.75 1293.3,-16.75 1285.35,-16.75"/>
<polygon fill="#63b8ff" stroke="#63b8ff" points="1309.18,-20.25 1319.18,-16.75 1309.18,-13.25 1309.18,-20.25"/>
</a>
</g>
</g>
<!-- Node3&#45;&gt;Node3 -->
<g id="edge16_Node000003_Node000003" class="edge">
<title>Node3&#45;&gt;Node3</title>
<g id="a_edge16_Node000003_Node000003"><a xlink:title=" ">
<path fill="none" stroke="#63b8ff" d="M1232.09,-44.89C1226.94,-48.85 1216.41,-51.5 1200.5,-51.5 1172.21,-51.5 1160.94,-43.12 1166.68,-33.91"/>
<polygon fill="#63b8ff" stroke="#63b8ff" points="1235.45,-45.89 1234.02,-35.4 1228.6,-44.5 1235.45,-45.89"/>
</a>
</g>
</g>
<!-- Node4 -->
<g id="Node000004" class="node">
<title>Node4</title>
<g id="a_Node000004"><a xlink:href="classACharacter.html#a1aff7dc889d92776e88b2a501564f8b0" target="_top" xlink:title=" ">
<polygon fill="white" stroke="#666666" points="1080,-33.5 927.5,-33.5 927.5,0 1080,0 1080,-33.5"/>
<text xml:space="preserve" text-anchor="start" x="935.5" y="-20" font-family="Helvetica,sans-Serif" font-size="10.00">ACharacter::ClientVeryShort</text>
<text xml:space="preserve" text-anchor="middle" x="1003.75" y="-7.25" font-family="Helvetica,sans-Serif" font-size="10.00">AdjustPosition</text>
</a>
</g>
</g>
<!-- Node3&#45;&gt;Node4 -->
<g id="edge4_Node000003_Node000004" class="edge">
<title>Node3&#45;&gt;Node4</title>
<g id="a_edge4_Node000003_Node000004"><a xlink:title=" ">
<path fill="none" stroke="#63b8ff" d="M1104.42,-16.75C1096.37,-16.75 1088.29,-16.75 1080.41,-16.75"/>
<polygon fill="#63b8ff" stroke="#63b8ff" points="1104.26,-20.25 1114.26,-16.75 1104.26,-13.25 1104.26,-20.25"/>
</a>
</g>
</g>
<!-- Node4&#45;&gt;Node4 -->
<g id="edge15_Node000004_Node000004" class="edge">
<title>Node4&#45;&gt;Node4</title>
<g id="a_edge15_Node000004_Node000004"><a xlink:title=" ">
<path fill="none" stroke="#63b8ff" d="M1034.2,-44.89C1029.24,-48.85 1019.09,-51.5 1003.75,-51.5 976.47,-51.5 965.6,-43.12 971.15,-33.91"/>
<polygon fill="#63b8ff" stroke="#63b8ff" points="1037.58,-45.89 1036.06,-35.4 1030.71,-44.54 1037.58,-45.89"/>
</a>
</g>
</g>
<!-- Node5 -->
<g id="Node000005" class="node">
<title>Node5</title>
<g id="a_Node000005"><a xlink:href="classACharacter.html#afdf2149a2f65320e968ad0b2c0791765" target="_top" xlink:title=" ">
<polygon fill="white" stroke="#666666" points="891.5,-33.5 753.25,-33.5 753.25,0 891.5,0 891.5,-33.5"/>
<text xml:space="preserve" text-anchor="start" x="761.25" y="-20" font-family="Helvetica,sans-Serif" font-size="10.00">ACharacter::ClientAdjust</text>
<text xml:space="preserve" text-anchor="middle" x="822.38" y="-7.25" font-family="Helvetica,sans-Serif" font-size="10.00">Position_Implementation</text>
</a>
</g>
</g>
<!-- Node4&#45;&gt;Node5 -->
<g id="edge5_Node000004_Node000005" class="edge">
<title>Node4&#45;&gt;Node5</title>
<g id="a_edge5_Node000004_Node000005"><a xlink:title=" ">
<path fill="none" stroke="#63b8ff" d="M915.9,-16.75C907.87,-16.75 899.82,-16.75 891.99,-16.75"/>
<polygon fill="#63b8ff" stroke="#63b8ff" points="915.69,-20.25 925.69,-16.75 915.69,-13.25 915.69,-20.25"/>
</a>
</g>
</g>
<!-- Node5&#45;&gt;Node5 -->
<g id="edge14_Node000005_Node000005" class="edge">
<title>Node5&#45;&gt;Node5</title>
<g id="a_edge14_Node000005_Node000005"><a xlink:title=" ">
<path fill="none" stroke="#63b8ff" d="M851.38,-44.89C846.66,-48.85 836.99,-51.5 822.38,-51.5 796.4,-51.5 786.04,-43.12 791.32,-33.91"/>
<polygon fill="#63b8ff" stroke="#63b8ff" points="854.76,-45.87 853.15,-35.4 847.88,-44.59 854.76,-45.87"/>
</a>
</g>
</g>
<!-- Node6 -->
<g id="Node000006" class="node">
<title>Node6</title>
<g id="a_Node000006"><a xlink:href="classACharacter.html#ad8748e564ceaf296793b192f5d337f15" target="_top" xlink:title=" ">
<polygon fill="white" stroke="#666666" points="717.25,-33.5 582,-33.5 582,0 717.25,0 717.25,-33.5"/>
<text xml:space="preserve" text-anchor="start" x="590" y="-20" font-family="Helvetica,sans-Serif" font-size="10.00">ACharacter::ClientAdjust</text>
<text xml:space="preserve" text-anchor="middle" x="649.62" y="-7.25" font-family="Helvetica,sans-Serif" font-size="10.00">Position</text>
</a>
</g>
</g>
<!-- Node5&#45;&gt;Node6 -->
<g id="edge6_Node000005_Node000006" class="edge">
<title>Node5&#45;&gt;Node6</title>
<g id="a_edge6_Node000005_Node000006"><a xlink:title=" ">
<path fill="none" stroke="#63b8ff" d="M741.66,-16.75C733.65,-16.75 725.58,-16.75 717.72,-16.75"/>
<polygon fill="#63b8ff" stroke="#63b8ff" points="741.39,-20.25 751.39,-16.75 741.39,-13.25 741.39,-20.25"/>
</a>
</g>
</g>
<!-- Node6&#45;&gt;Node6 -->
<g id="edge13_Node000006_Node000006" class="edge">
<title>Node6&#45;&gt;Node6</title>
<g id="a_edge13_Node000006_Node000006"><a xlink:title=" ">
<path fill="none" stroke="#63b8ff" d="M678.63,-44.89C673.91,-48.85 664.24,-51.5 649.62,-51.5 623.65,-51.5 613.29,-43.12 618.57,-33.91"/>
<polygon fill="#63b8ff" stroke="#63b8ff" points="682.01,-45.87 680.4,-35.4 675.13,-44.59 682.01,-45.87"/>
</a>
</g>
</g>
<!-- Node7 -->
<g id="Node000007" class="node">
<title>Node7</title>
<g id="a_Node000007"><a xlink:href="classACharacter.html#a51eea92e20f91b60b802475aba2bbcfa" target="_top" xlink:title=" ">
<polygon fill="white" stroke="#666666" points="546,-33.5 398,-33.5 398,0 546,0 546,-33.5"/>
<text xml:space="preserve" text-anchor="start" x="406" y="-20" font-family="Helvetica,sans-Serif" font-size="10.00">ACharacter::ClientAckGood</text>
<text xml:space="preserve" text-anchor="middle" x="472" y="-7.25" font-family="Helvetica,sans-Serif" font-size="10.00">Move_Implementation</text>
</a>
</g>
</g>
<!-- Node6&#45;&gt;Node7 -->
<g id="edge7_Node000006_Node000007" class="edge">
<title>Node6&#45;&gt;Node7</title>
<g id="a_edge7_Node000006_Node000007"><a xlink:title=" ">
<path fill="none" stroke="#63b8ff" d="M570.24,-16.75C562.32,-16.75 554.31,-16.75 546.45,-16.75"/>
<polygon fill="#63b8ff" stroke="#63b8ff" points="570.21,-20.25 580.21,-16.75 570.21,-13.25 570.21,-20.25"/>
</a>
</g>
</g>
<!-- Node7&#45;&gt;Node7 -->
<g id="edge12_Node000007_Node000007" class="edge">
<title>Node7&#45;&gt;Node7</title>
<g id="a_edge12_Node000007_Node000007"><a xlink:title=" ">
<path fill="none" stroke="#63b8ff" d="M501.82,-44.89C496.97,-48.85 487.03,-51.5 472,-51.5 445.29,-51.5 434.64,-43.12 440.07,-33.91"/>
<polygon fill="#63b8ff" stroke="#63b8ff" points="505.2,-45.88 503.65,-35.4 498.32,-44.56 505.2,-45.88"/>
</a>
</g>
</g>
<!-- Node8 -->
<g id="Node000008" class="node">
<title>Node8</title>
<g id="a_Node000008"><a xlink:href="classACharacter.html#a68d08b4a12f44156816e714a09d73618" target="_top" xlink:title=" ">
<polygon fill="white" stroke="#666666" points="362,-27.12 187,-27.12 187,-6.38 362,-6.38 362,-27.12"/>
<text xml:space="preserve" text-anchor="middle" x="274.5" y="-13.62" font-family="Helvetica,sans-Serif" font-size="10.00">ACharacter::ClientAckGoodMove</text>
</a>
</g>
</g>
<!-- Node7&#45;&gt;Node8 -->
<g id="edge8_Node000007_Node000008" class="edge">
<title>Node7&#45;&gt;Node8</title>
<g id="a_edge8_Node000007_Node000008"><a xlink:title=" ">
<path fill="none" stroke="#63b8ff" d="M386.21,-16.75C378.33,-16.75 370.34,-16.75 362.44,-16.75"/>
<polygon fill="#63b8ff" stroke="#63b8ff" points="386.13,-20.25 396.13,-16.75 386.13,-13.25 386.13,-20.25"/>
</a>
</g>
</g>
<!-- Node8&#45;&gt;Node8 -->
<g id="edge9_Node000008_Node000008" class="edge">
<title>Node8&#45;&gt;Node8</title>
<g id="a_edge9_Node000008_Node000008"><a xlink:title=" ">
<path fill="none" stroke="#63b8ff" d="M309.25,-38.61C304.65,-42.45 293.06,-45.12 274.5,-45.12 240.55,-45.12 229.95,-36.18 242.68,-27.52"/>
<polygon fill="#63b8ff" stroke="#63b8ff" points="312.65,-37.76 306.71,-28.99 305.88,-39.55 312.65,-37.76"/>
</a>
</g>
</g>
<!-- Node9 -->
<g id="Node000009" class="node">
<title>Node9</title>
<g id="a_Node000009"><a xlink:href="classACharacter.html#a489af45b30e20a835e0283f33ec7749f" target="_top" xlink:title=" ">
<polygon fill="white" stroke="#666666" points="151,-33.5 0,-33.5 0,0 151,0 151,-33.5"/>
<text xml:space="preserve" text-anchor="start" x="8" y="-20" font-family="Helvetica,sans-Serif" font-size="10.00">ACharacter::ServerMoveOld</text>
<text xml:space="preserve" text-anchor="middle" x="75.5" y="-7.25" font-family="Helvetica,sans-Serif" font-size="10.00">_Validate</text>
</a>
</g>
</g>
<!-- Node8&#45;&gt;Node9 -->
<g id="edge10_Node000008_Node000009" class="edge">
<title>Node8&#45;&gt;Node9</title>
<g id="a_edge10_Node000008_Node000009"><a xlink:title=" ">
<path fill="none" stroke="#63b8ff" d="M175.18,-16.75C167.15,-16.75 159.11,-16.75 151.28,-16.75"/>
<polygon fill="#63b8ff" stroke="#63b8ff" points="175.01,-20.25 185.01,-16.75 175.01,-13.25 175.01,-20.25"/>
</a>
</g>
</g>
<!-- Node9&#45;&gt;Node9 -->
<g id="edge11_Node000009_Node000009" class="edge">
<title>Node9&#45;&gt;Node9</title>
<g id="a_edge11_Node000009_Node000009"><a xlink:title=" ">
<path fill="none" stroke="#63b8ff" d="M108.91,-44.89C103.47,-48.85 92.33,-51.5 75.5,-51.5 45.57,-51.5 33.65,-43.12 39.73,-33.91"/>
<polygon fill="#63b8ff" stroke="#63b8ff" points="112.27,-45.91 110.95,-35.39 105.43,-44.44 112.27,-45.91"/>
</a>
</g>
</g>
</g>
</svg>
