<?xml version="1.0" encoding="UTF-8" standalone="no"?>
<!DOCTYPE svg PUBLIC "-//W3C//DTD SVG 1.1//EN"
 "http://www.w3.org/Graphics/SVG/1.1/DTD/svg11.dtd">
<!-- Generated by graphviz version 14.1.4 (0)
 -->
<!-- Title: /opt/unreal&#45;engine/Engine/Source/Runtime/Engine/Classes/Engine/CollisionProfile.h Pages: 1 -->
<svg width="1448pt" height="365pt"
 viewBox="0.00 0.00 1448.00 365.00" xmlns="http://www.w3.org/2000/svg" xmlns:xlink="http://www.w3.org/1999/xlink">
<g id="graph0" class="graph" transform="scale(1 1) rotate(0) translate(4 360.75)">
<title>/opt/unreal&#45;engine/Engine/Source/Runtime/Engine/Classes/Engine/CollisionProfile.h</title>
<!-- Node1 -->
<g id="Node000001" class="node">
<title>Node1</title>
<g id="a_Node000001"><a xlink:title=" ">
<polygon fill="#999999" stroke="#666666" points="994.88,-356.75 862.62,-356.75 862.62,-297.75 994.88,-297.75 994.88,-356.75"/>
<text xml:space="preserve" text-anchor="start" x="870.62" y="-343.25" font-family="Helvetica,sans-Serif" font-size="10.00">/opt/unreal&#45;engine</text>
<text xml:space="preserve" text-anchor="start" x="870.62" y="-330.5" font-family="Helvetica,sans-Serif" font-size="10.00">/Engine/Source/Runtime</text>
<text xml:space="preserve" text-anchor="start" x="870.62" y="-317.75" font-family="Helvetica,sans-Serif" font-size="10.00">/Engine/Classes/Engine</text>
<text xml:space="preserve" text-anchor="middle" x="928.75" y="-305" font-family="Helvetica,sans-Serif" font-size="10.00">/CollisionProfile.h</text>
</a>
</g>
</g>
<!-- Node2 -->
<g id="Node000002" class="node">
<title>Node2</title>
<g id="a_Node000002"><a xlink:href="$World_8h.html" xlink:title=" ">
<polygon fill="white" stroke="#666666" points="758.88,-261.75 626.62,-261.75 626.62,-202.75 758.88,-202.75 758.88,-261.75"/>
<text xml:space="preserve" text-anchor="start" x="634.62" y="-248.25" font-family="Helvetica,sans-Serif" font-size="10.00">/opt/unreal&#45;engine</text>
<text xml:space="preserve" text-anchor="start" x="634.62" y="-235.5" font-family="Helvetica,sans-Serif" font-size="10.00">/Engine/Source/Runtime</text>
<text xml:space="preserve" text-anchor="start" x="634.62" y="-222.75" font-family="Helvetica,sans-Serif" font-size="10.00">/Engine/Classes/Engine</text>
<text xml:space="preserve" text-anchor="middle" x="692.75" y="-210" font-family="Helvetica,sans-Serif" font-size="10.00">/World.h</text>
</a>
</g>
</g>
<!-- Node1&#45;&gt;Node2 -->
<g id="edge1_Node000001_Node000002" class="edge">
<title>Node1&#45;&gt;Node2</title>
<g id="a_edge1_Node000001_Node000002"><a xlink:title=" ">
<path fill="none" stroke="#63b8ff" d="M851.96,-295.99C821.97,-284.17 787.92,-270.75 759.03,-259.37"/>
<polygon fill="#63b8ff" stroke="#63b8ff" points="850.39,-299.13 860.97,-299.54 852.95,-292.62 850.39,-299.13"/>
</a>
</g>
</g>
<!-- Node11 -->
<g id="Node000011" class="node">
<title>Node11</title>
<g id="a_Node000011"><a xlink:href="$KismetSystemLibrary_8h.html" xlink:title=" ">
<polygon fill="white" stroke="#666666" points="1338.88,-261.75 1206.62,-261.75 1206.62,-202.75 1338.88,-202.75 1338.88,-261.75"/>
<text xml:space="preserve" text-anchor="start" x="1214.62" y="-248.25" font-family="Helvetica,sans-Serif" font-size="10.00">/opt/unreal&#45;engine</text>
<text xml:space="preserve" text-anchor="start" x="1214.62" y="-235.5" font-family="Helvetica,sans-Serif" font-size="10.00">/Engine/Source/Runtime</text>
<text xml:space="preserve" text-anchor="start" x="1214.62" y="-222.75" font-family="Helvetica,sans-Serif" font-size="10.00">/Engine/Classes/Kismet</text>
<text xml:space="preserve" text-anchor="middle" x="1272.75" y="-210" font-family="Helvetica,sans-Serif" font-size="10.00">/KismetSystemLibrary.h</text>
</a>
</g>
</g>
<!-- Node1&#45;&gt;Node11 -->
<g id="edge10_Node000001_Node000011" class="edge">
<title>Node1&#45;&gt;Node11</title>
<g id="a_edge10_Node000001_Node000011"><a xlink:title=" ">
<path fill="none" stroke="#63b8ff" d="M1006.05,-305.35C1066.29,-289.07 1149.05,-266.69 1206.33,-251.21"/>
<polygon fill="#63b8ff" stroke="#63b8ff" points="1005.28,-301.94 996.54,-307.92 1007.1,-308.69 1005.28,-301.94"/>
</a>
</g>
</g>
<!-- Node3 -->
<g id="Node000003" class="node">
<title>Node3</title>
<g id="a_Node000003"><a xlink:href="$NavigationSystemBase_8h.html" xlink:title=" ">
<polygon fill="white" stroke="#666666" points="161.5,-160.38 0,-160.38 0,-101.38 161.5,-101.38 161.5,-160.38"/>
<text xml:space="preserve" text-anchor="start" x="8" y="-146.88" font-family="Helvetica,sans-Serif" font-size="10.00">/opt/unreal&#45;engine</text>
<text xml:space="preserve" text-anchor="start" x="8" y="-134.12" font-family="Helvetica,sans-Serif" font-size="10.00">/Engine/Source/Runtime</text>
<text xml:space="preserve" text-anchor="start" x="8" y="-121.38" font-family="Helvetica,sans-Serif" font-size="10.00">/Engine/Classes/AI/Navigation</text>
<text xml:space="preserve" text-anchor="middle" x="80.75" y="-108.62" font-family="Helvetica,sans-Serif" font-size="10.00">SystemBase.h</text>
</a>
</g>
</g>
<!-- Node2&#45;&gt;Node3 -->
<g id="edge2_Node000002_Node000003" class="edge">
<title>Node2&#45;&gt;Node3</title>
<g id="a_edge2_Node000002_Node000003"><a xlink:title=" ">
<path fill="none" stroke="#63b8ff" d="M615.06,-227.64C512.11,-221.49 325.46,-205.65 170.75,-166.75 164.09,-165.07 157.25,-163.04 150.46,-160.81"/>
<polygon fill="#63b8ff" stroke="#63b8ff" points="614.58,-231.11 624.77,-228.2 614.99,-224.13 614.58,-231.11"/>
</a>
</g>
</g>
<!-- Node4 -->
<g id="Node000004" class="node">
<title>Node4</title>
<g id="a_Node000004"><a xlink:href="$CurveLinearColorAtlas_8h.html" xlink:title=" ">
<polygon fill="white" stroke="#666666" points="316.12,-160.38 179.38,-160.38 179.38,-101.38 316.12,-101.38 316.12,-160.38"/>
<text xml:space="preserve" text-anchor="start" x="187.38" y="-146.88" font-family="Helvetica,sans-Serif" font-size="10.00">/opt/unreal&#45;engine</text>
<text xml:space="preserve" text-anchor="start" x="187.38" y="-134.12" font-family="Helvetica,sans-Serif" font-size="10.00">/Engine/Source/Runtime</text>
<text xml:space="preserve" text-anchor="start" x="187.38" y="-121.38" font-family="Helvetica,sans-Serif" font-size="10.00">/Engine/Classes/Curves</text>
<text xml:space="preserve" text-anchor="middle" x="247.75" y="-108.62" font-family="Helvetica,sans-Serif" font-size="10.00">/CurveLinearColorAtlas.h</text>
</a>
</g>
</g>
<!-- Node2&#45;&gt;Node4 -->
<g id="edge3_Node000002_Node000004" class="edge">
<title>Node2&#45;&gt;Node4</title>
<g id="a_edge3_Node000002_Node000004"><a xlink:title=" ">
<path fill="none" stroke="#63b8ff" d="M615.06,-223.23C539.87,-214.16 423.27,-196.62 325.75,-166.75 320.08,-165.01 314.27,-162.97 308.52,-160.75"/>
<polygon fill="#63b8ff" stroke="#63b8ff" points="614.46,-226.68 624.8,-224.38 615.28,-219.73 614.46,-226.68"/>
</a>
</g>
</g>
<!-- Node5 -->
<g id="Node000005" class="node">
<title>Node5</title>
<g id="a_Node000005"><a xlink:href="$Engine_8h.html" xlink:title=" ">
<polygon fill="white" stroke="#666666" points="466.88,-160.38 334.62,-160.38 334.62,-101.38 466.88,-101.38 466.88,-160.38"/>
<text xml:space="preserve" text-anchor="start" x="342.62" y="-146.88" font-family="Helvetica,sans-Serif" font-size="10.00">/opt/unreal&#45;engine</text>
<text xml:space="preserve" text-anchor="start" x="342.62" y="-134.12" font-family="Helvetica,sans-Serif" font-size="10.00">/Engine/Source/Runtime</text>
<text xml:space="preserve" text-anchor="start" x="342.62" y="-121.38" font-family="Helvetica,sans-Serif" font-size="10.00">/Engine/Classes/Engine</text>
<text xml:space="preserve" text-anchor="middle" x="400.75" y="-108.62" font-family="Helvetica,sans-Serif" font-size="10.00">/Engine.h</text>
</a>
</g>
</g>
<!-- Node2&#45;&gt;Node5 -->
<g id="edge4_Node000002_Node000005" class="edge">
<title>Node2&#45;&gt;Node5</title>
<g id="a_edge4_Node000002_Node000005"><a xlink:title=" ">
<path fill="none" stroke="#63b8ff" d="M615.44,-211.24C573.6,-199.67 521.3,-184 475.75,-166.75 470.92,-164.92 465.96,-162.91 461.01,-160.82"/>
<polygon fill="#63b8ff" stroke="#63b8ff" points="614.37,-214.57 624.94,-213.84 616.22,-207.82 614.37,-214.57"/>
</a>
</g>
</g>
<!-- Node7 -->
<g id="Node000007" class="node">
<title>Node7</title>
<g id="a_Node000007"><a xlink:href="$ExternalAssetDependencyGatherer_8h.html" xlink:title=" ">
<polygon fill="white" stroke="#666666" points="684.25,-160.38 485.25,-160.38 485.25,-101.38 684.25,-101.38 684.25,-160.38"/>
<text xml:space="preserve" text-anchor="start" x="493.25" y="-146.88" font-family="Helvetica,sans-Serif" font-size="10.00">/opt/unreal&#45;engine</text>
<text xml:space="preserve" text-anchor="start" x="493.25" y="-134.12" font-family="Helvetica,sans-Serif" font-size="10.00">/Engine/Source/Runtime</text>
<text xml:space="preserve" text-anchor="start" x="493.25" y="-121.38" font-family="Helvetica,sans-Serif" font-size="10.00">/Engine/Classes/Engine</text>
<text xml:space="preserve" text-anchor="middle" x="584.75" y="-108.62" font-family="Helvetica,sans-Serif" font-size="10.00">/ExternalAssetDependencyGatherer.h</text>
</a>
</g>
</g>
<!-- Node2&#45;&gt;Node7 -->
<g id="edge6_Node000002_Node000007" class="edge">
<title>Node2&#45;&gt;Node7</title>
<g id="a_edge6_Node000002_Node000007"><a xlink:title=" ">
<path fill="none" stroke="#63b8ff" d="M653.21,-194.87C640.92,-183.56 627.55,-171.26 615.92,-160.55"/>
<polygon fill="#63b8ff" stroke="#63b8ff" points="650.67,-197.29 660.4,-201.48 655.41,-192.14 650.67,-197.29"/>
</a>
</g>
</g>
<!-- Node8 -->
<g id="Node000008" class="node">
<title>Node8</title>
<g id="a_Node000008"><a xlink:href="$ExternalObjectAndActorDependencyGatherer_8h.html" xlink:title=" ">
<polygon fill="white" stroke="#666666" points="898.75,-166.75 702.75,-166.75 702.75,-95 898.75,-95 898.75,-166.75"/>
<text xml:space="preserve" text-anchor="start" x="710.75" y="-153.25" font-family="Helvetica,sans-Serif" font-size="10.00">/opt/unreal&#45;engine</text>
<text xml:space="preserve" text-anchor="start" x="710.75" y="-140.5" font-family="Helvetica,sans-Serif" font-size="10.00">/Engine/Source/Runtime</text>
<text xml:space="preserve" text-anchor="start" x="710.75" y="-127.75" font-family="Helvetica,sans-Serif" font-size="10.00">/Engine/Classes/Engine</text>
<text xml:space="preserve" text-anchor="start" x="710.75" y="-115" font-family="Helvetica,sans-Serif" font-size="10.00">/ExternalObjectAndActorDependency</text>
<text xml:space="preserve" text-anchor="middle" x="800.75" y="-102.25" font-family="Helvetica,sans-Serif" font-size="10.00">Gatherer.h</text>
</a>
</g>
</g>
<!-- Node2&#45;&gt;Node8 -->
<g id="edge7_Node000002_Node000008" class="edge">
<title>Node2&#45;&gt;Node8</title>
<g id="a_edge7_Node000002_Node000008"><a xlink:title=" ">
<path fill="none" stroke="#63b8ff" d="M732.45,-194.72C742.33,-185.63 752.89,-175.91 762.69,-166.9"/>
<polygon fill="#63b8ff" stroke="#63b8ff" points="730.09,-192.14 725.1,-201.48 734.83,-197.29 730.09,-192.14"/>
</a>
</g>
</g>
<!-- Node9 -->
<g id="Node000009" class="node">
<title>Node9</title>
<g id="a_Node000009"><a xlink:href="$ParticleSystemManager_8h.html" xlink:title=" ">
<polygon fill="white" stroke="#666666" points="1060.88,-160.38 916.62,-160.38 916.62,-101.38 1060.88,-101.38 1060.88,-160.38"/>
<text xml:space="preserve" text-anchor="start" x="924.62" y="-146.88" font-family="Helvetica,sans-Serif" font-size="10.00">/opt/unreal&#45;engine</text>
<text xml:space="preserve" text-anchor="start" x="924.62" y="-134.12" font-family="Helvetica,sans-Serif" font-size="10.00">/Engine/Source/Runtime</text>
<text xml:space="preserve" text-anchor="start" x="924.62" y="-121.38" font-family="Helvetica,sans-Serif" font-size="10.00">/Engine/Classes/Particles</text>
<text xml:space="preserve" text-anchor="middle" x="988.75" y="-108.62" font-family="Helvetica,sans-Serif" font-size="10.00">/ParticleSystemManager.h</text>
</a>
</g>
</g>
<!-- Node2&#45;&gt;Node9 -->
<g id="edge8_Node000002_Node000009" class="edge">
<title>Node2&#45;&gt;Node9</title>
<g id="a_edge8_Node000002_Node000009"><a xlink:title=" ">
<path fill="none" stroke="#63b8ff" d="M770.33,-210.31C811.53,-198.61 862.8,-183.11 907.75,-166.75 912.93,-164.87 918.25,-162.82 923.58,-160.7"/>
<polygon fill="#63b8ff" stroke="#63b8ff" points="769.39,-206.94 760.72,-213.02 771.29,-213.68 769.39,-206.94"/>
</a>
</g>
</g>
<!-- Node10 -->
<g id="Node000010" class="node">
<title>Node10</title>
<g id="a_Node000010"><a xlink:href="$PhysicsCollisionHandler_8h.html" xlink:title=" ">
<polygon fill="white" stroke="#666666" points="1244.38,-160.38 1079.12,-160.38 1079.12,-101.38 1244.38,-101.38 1244.38,-160.38"/>
<text xml:space="preserve" text-anchor="start" x="1087.12" y="-146.88" font-family="Helvetica,sans-Serif" font-size="10.00">/opt/unreal&#45;engine</text>
<text xml:space="preserve" text-anchor="start" x="1087.12" y="-134.12" font-family="Helvetica,sans-Serif" font-size="10.00">/Engine/Source/Runtime</text>
<text xml:space="preserve" text-anchor="start" x="1087.12" y="-121.38" font-family="Helvetica,sans-Serif" font-size="10.00">/Engine/Classes/PhysicsEngine</text>
<text xml:space="preserve" text-anchor="middle" x="1161.75" y="-108.62" font-family="Helvetica,sans-Serif" font-size="10.00">/PhysicsCollisionHandler.h</text>
</a>
</g>
</g>
<!-- Node2&#45;&gt;Node10 -->
<g id="edge9_Node000002_Node000010" class="edge">
<title>Node2&#45;&gt;Node10</title>
<g id="a_edge9_Node000002_Node000010"><a xlink:title=" ">
<path fill="none" stroke="#63b8ff" d="M770.33,-222.42C847.22,-212.64 967.92,-194.48 1069.75,-166.75 1076.18,-165 1082.78,-162.97 1089.36,-160.8"/>
<polygon fill="#63b8ff" stroke="#63b8ff" points="770.3,-218.9 760.81,-223.62 771.17,-225.85 770.3,-218.9"/>
</a>
</g>
</g>
<!-- Node6 -->
<g id="Node000006" class="node">
<title>Node6</title>
<g id="a_Node000006"><a xlink:href="$GameEngine_8h.html" xlink:title=" ">
<polygon fill="white" stroke="#666666" points="466.88,-59 334.62,-59 334.62,0 466.88,0 466.88,-59"/>
<text xml:space="preserve" text-anchor="start" x="342.62" y="-45.5" font-family="Helvetica,sans-Serif" font-size="10.00">/opt/unreal&#45;engine</text>
<text xml:space="preserve" text-anchor="start" x="342.62" y="-32.75" font-family="Helvetica,sans-Serif" font-size="10.00">/Engine/Source/Runtime</text>
<text xml:space="preserve" text-anchor="start" x="342.62" y="-20" font-family="Helvetica,sans-Serif" font-size="10.00">/Engine/Classes/Engine</text>
<text xml:space="preserve" text-anchor="middle" x="400.75" y="-7.25" font-family="Helvetica,sans-Serif" font-size="10.00">/GameEngine.h</text>
</a>
</g>
</g>
<!-- Node5&#45;&gt;Node6 -->
<g id="edge5_Node000005_Node000006" class="edge">
<title>Node5&#45;&gt;Node6</title>
<g id="a_edge5_Node000005_Node000006"><a xlink:title=" ">
<path fill="none" stroke="#63b8ff" d="M400.75,-89.87C400.75,-79.6 400.75,-68.75 400.75,-59.18"/>
<polygon fill="#63b8ff" stroke="#63b8ff" points="397.25,-89.62 400.75,-99.62 404.25,-89.62 397.25,-89.62"/>
</a>
</g>
</g>
<!-- Node12 -->
<g id="Node000012" class="node">
<title>Node12</title>
<g id="a_Node000012"><a xlink:href="$GameplayStatics_8h.html" xlink:title=" ">
<polygon fill="white" stroke="#666666" points="1387.88,-59 1255.62,-59 1255.62,0 1387.88,0 1387.88,-59"/>
<text xml:space="preserve" text-anchor="start" x="1263.62" y="-45.5" font-family="Helvetica,sans-Serif" font-size="10.00">/opt/unreal&#45;engine</text>
<text xml:space="preserve" text-anchor="start" x="1263.62" y="-32.75" font-family="Helvetica,sans-Serif" font-size="10.00">/Engine/Source/Runtime</text>
<text xml:space="preserve" text-anchor="start" x="1263.62" y="-20" font-family="Helvetica,sans-Serif" font-size="10.00">/Engine/Classes/Kismet</text>
<text xml:space="preserve" text-anchor="middle" x="1321.75" y="-7.25" font-family="Helvetica,sans-Serif" font-size="10.00">/GameplayStatics.h</text>
</a>
</g>
</g>
<!-- Node11&#45;&gt;Node12 -->
<g id="edge11_Node000011_Node000012" class="edge">
<title>Node11&#45;&gt;Node12</title>
<g id="a_edge11_Node000011_Node000012"><a xlink:title=" ">
<path fill="none" stroke="#63b8ff" d="M1275.7,-191.17C1278.43,-163.69 1283.51,-126.63 1292.75,-95 1296.26,-82.98 1301.58,-70.3 1306.7,-59.39"/>
<polygon fill="#63b8ff" stroke="#63b8ff" points="1272.24,-190.53 1274.81,-200.81 1279.21,-191.17 1272.24,-190.53"/>
</a>
</g>
</g>
<!-- Node13 -->
<g id="Node000013" class="node">
<title>Node13</title>
<g id="a_Node000013"><a xlink:href="$GameplayStaticsTypes_8h.html" xlink:title=" ">
<polygon fill="white" stroke="#666666" points="1440.25,-160.38 1301.25,-160.38 1301.25,-101.38 1440.25,-101.38 1440.25,-160.38"/>
<text xml:space="preserve" text-anchor="start" x="1309.25" y="-146.88" font-family="Helvetica,sans-Serif" font-size="10.00">/opt/unreal&#45;engine</text>
<text xml:space="preserve" text-anchor="start" x="1309.25" y="-134.12" font-family="Helvetica,sans-Serif" font-size="10.00">/Engine/Source/Runtime</text>
<text xml:space="preserve" text-anchor="start" x="1309.25" y="-121.38" font-family="Helvetica,sans-Serif" font-size="10.00">/Engine/Classes/Kismet</text>
<text xml:space="preserve" text-anchor="middle" x="1370.75" y="-108.62" font-family="Helvetica,sans-Serif" font-size="10.00">/GameplayStaticsTypes.h</text>
</a>
</g>
</g>
<!-- Node11&#45;&gt;Node13 -->
<g id="edge12_Node000011_Node000013" class="edge">
<title>Node11&#45;&gt;Node13</title>
<g id="a_edge12_Node000011_Node000013"><a xlink:title=" ">
<path fill="none" stroke="#63b8ff" d="M1308.95,-194.54C1320.01,-183.32 1332.01,-171.16 1342.47,-160.55"/>
<polygon fill="#63b8ff" stroke="#63b8ff" points="1306.69,-191.85 1302.16,-201.43 1311.67,-196.77 1306.69,-191.85"/>
</a>
</g>
</g>
<!-- Node13&#45;&gt;Node12 -->
<g id="edge13_Node000013_Node000012" class="edge">
<title>Node13&#45;&gt;Node12</title>
<g id="a_edge13_Node000013_Node000012"><a xlink:title=" ">
<path fill="none" stroke="#63b8ff" d="M1351.52,-90.87C1346.31,-80.3 1340.76,-69.06 1335.89,-59.18"/>
<polygon fill="#63b8ff" stroke="#63b8ff" points="1348.35,-92.35 1355.91,-99.77 1354.62,-89.26 1348.35,-92.35"/>
</a>
</g>
</g>
</g>
</svg>
