<?xml version="1.0" encoding="UTF-8" standalone="no"?>
<!DOCTYPE svg PUBLIC "-//W3C//DTD SVG 1.1//EN"
 "http://www.w3.org/Graphics/SVG/1.1/DTD/svg11.dtd">
<!-- Generated by graphviz version 14.1.4 (0)
 -->
<!-- Title: /opt/unreal&#45;engine/Engine/Source/Runtime/Engine/Classes/PhysicsEngine/ConstraintInstance.h Pages: 1 -->
<svg width="953pt" height="257pt"
 viewBox="0.00 0.00 953.00 257.00" xmlns="http://www.w3.org/2000/svg" xmlns:xlink="http://www.w3.org/1999/xlink">
<g id="graph0" class="graph" transform="scale(1 1) rotate(0) translate(4 253)">
<title>/opt/unreal&#45;engine/Engine/Source/Runtime/Engine/Classes/PhysicsEngine/ConstraintInstance.h</title>
<!-- Node1 -->
<g id="Node000001" class="node">
<title>Node1</title>
<g id="a_Node000001"><a xlink:title=" ">
<polygon fill="#999999" stroke="#666666" points="575.62,-249 410.38,-249 410.38,-190 575.62,-190 575.62,-249"/>
<text xml:space="preserve" text-anchor="start" x="418.38" y="-235.5" font-family="Helvetica,sans-Serif" font-size="10.00">/opt/unreal&#45;engine</text>
<text xml:space="preserve" text-anchor="start" x="418.38" y="-222.75" font-family="Helvetica,sans-Serif" font-size="10.00">/Engine/Source/Runtime</text>
<text xml:space="preserve" text-anchor="start" x="418.38" y="-210" font-family="Helvetica,sans-Serif" font-size="10.00">/Engine/Classes/PhysicsEngine</text>
<text xml:space="preserve" text-anchor="middle" x="493" y="-197.25" font-family="Helvetica,sans-Serif" font-size="10.00">/ConstraintInstance.h</text>
</a>
</g>
</g>
<!-- Node2 -->
<g id="Node000002" class="node">
<title>Node2</title>
<g id="a_Node000002"><a xlink:href="$ConstraintInstanceBlueprintLibrary_8h.html" xlink:title=" ">
<polygon fill="white" stroke="#666666" points="196,-154 0,-154 0,-95 196,-95 196,-154"/>
<text xml:space="preserve" text-anchor="start" x="8" y="-140.5" font-family="Helvetica,sans-Serif" font-size="10.00">/opt/unreal&#45;engine</text>
<text xml:space="preserve" text-anchor="start" x="8" y="-127.75" font-family="Helvetica,sans-Serif" font-size="10.00">/Engine/Source/Runtime</text>
<text xml:space="preserve" text-anchor="start" x="8" y="-115" font-family="Helvetica,sans-Serif" font-size="10.00">/Engine/Classes/PhysicsEngine</text>
<text xml:space="preserve" text-anchor="middle" x="98" y="-102.25" font-family="Helvetica,sans-Serif" font-size="10.00">/ConstraintInstanceBlueprintLibrary.h</text>
</a>
</g>
</g>
<!-- Node1&#45;&gt;Node2 -->
<g id="edge1_Node000001_Node000002" class="edge">
<title>Node1&#45;&gt;Node2</title>
<g id="a_edge1_Node000001_Node000002"><a xlink:title=" ">
<path fill="none" stroke="#63b8ff" d="M398.92,-198.27C342.79,-185.98 270.18,-169.68 206,-154 202.8,-153.22 199.54,-152.41 196.26,-151.59"/>
<polygon fill="#63b8ff" stroke="#63b8ff" points="397.92,-201.64 408.44,-200.36 399.42,-194.8 397.92,-201.64"/>
</a>
</g>
</g>
<!-- Node3 -->
<g id="Node000003" class="node">
<title>Node3</title>
<g id="a_Node000003"><a xlink:href="$PhysicalAnimationComponent_8h.html" xlink:title=" ">
<polygon fill="white" stroke="#666666" points="389.5,-154 214.5,-154 214.5,-95 389.5,-95 389.5,-154"/>
<text xml:space="preserve" text-anchor="start" x="222.5" y="-140.5" font-family="Helvetica,sans-Serif" font-size="10.00">/opt/unreal&#45;engine</text>
<text xml:space="preserve" text-anchor="start" x="222.5" y="-127.75" font-family="Helvetica,sans-Serif" font-size="10.00">/Engine/Source/Runtime</text>
<text xml:space="preserve" text-anchor="start" x="222.5" y="-115" font-family="Helvetica,sans-Serif" font-size="10.00">/Engine/Classes/PhysicsEngine</text>
<text xml:space="preserve" text-anchor="middle" x="302" y="-102.25" font-family="Helvetica,sans-Serif" font-size="10.00">/PhysicalAnimationComponent.h</text>
</a>
</g>
</g>
<!-- Node1&#45;&gt;Node3 -->
<g id="edge2_Node000001_Node000003" class="edge">
<title>Node1&#45;&gt;Node3</title>
<g id="a_edge2_Node000001_Node000003"><a xlink:title=" ">
<path fill="none" stroke="#63b8ff" d="M423.46,-184.64C403.09,-174.72 381.02,-163.98 361.35,-154.4"/>
<polygon fill="#63b8ff" stroke="#63b8ff" points="421.73,-187.69 432.25,-188.92 424.79,-181.4 421.73,-187.69"/>
</a>
</g>
</g>
<!-- Node5 -->
<g id="Node000005" class="node">
<title>Node5</title>
<g id="a_Node000005"><a xlink:href="$PhysicsConstraintComponent_8h.html" xlink:title=" ">
<polygon fill="white" stroke="#666666" points="578.62,-154 407.38,-154 407.38,-95 578.62,-95 578.62,-154"/>
<text xml:space="preserve" text-anchor="start" x="415.38" y="-140.5" font-family="Helvetica,sans-Serif" font-size="10.00">/opt/unreal&#45;engine</text>
<text xml:space="preserve" text-anchor="start" x="415.38" y="-127.75" font-family="Helvetica,sans-Serif" font-size="10.00">/Engine/Source/Runtime</text>
<text xml:space="preserve" text-anchor="start" x="415.38" y="-115" font-family="Helvetica,sans-Serif" font-size="10.00">/Engine/Classes/PhysicsEngine</text>
<text xml:space="preserve" text-anchor="middle" x="493" y="-102.25" font-family="Helvetica,sans-Serif" font-size="10.00">/PhysicsConstraintComponent.h</text>
</a>
</g>
</g>
<!-- Node1&#45;&gt;Node5 -->
<g id="edge4_Node000001_Node000005" class="edge">
<title>Node1&#45;&gt;Node5</title>
<g id="a_edge4_Node000001_Node000005"><a xlink:title=" ">
<path fill="none" stroke="#63b8ff" d="M493,-178.16C493,-170.16 493,-161.92 493,-154.4"/>
<polygon fill="#63b8ff" stroke="#63b8ff" points="489.5,-178.07 493,-188.07 496.5,-178.07 489.5,-178.07"/>
</a>
</g>
</g>
<!-- Node6 -->
<g id="Node000006" class="node">
<title>Node6</title>
<g id="a_Node000006"><a xlink:href="$PhysicsConstraintTemplate_8h.html" xlink:title=" ">
<polygon fill="white" stroke="#666666" points="761.62,-154 596.38,-154 596.38,-95 761.62,-95 761.62,-154"/>
<text xml:space="preserve" text-anchor="start" x="604.38" y="-140.5" font-family="Helvetica,sans-Serif" font-size="10.00">/opt/unreal&#45;engine</text>
<text xml:space="preserve" text-anchor="start" x="604.38" y="-127.75" font-family="Helvetica,sans-Serif" font-size="10.00">/Engine/Source/Runtime</text>
<text xml:space="preserve" text-anchor="start" x="604.38" y="-115" font-family="Helvetica,sans-Serif" font-size="10.00">/Engine/Classes/PhysicsEngine</text>
<text xml:space="preserve" text-anchor="middle" x="679" y="-102.25" font-family="Helvetica,sans-Serif" font-size="10.00">/PhysicsConstraintTemplate.h</text>
</a>
</g>
</g>
<!-- Node1&#45;&gt;Node6 -->
<g id="edge5_Node000001_Node000006" class="edge">
<title>Node1&#45;&gt;Node6</title>
<g id="a_edge5_Node000001_Node000006"><a xlink:title=" ">
<path fill="none" stroke="#63b8ff" d="M560.99,-184.5C580.75,-174.62 602.14,-163.93 621.2,-154.4"/>
<polygon fill="#63b8ff" stroke="#63b8ff" points="559.56,-181.3 552.19,-188.91 562.7,-187.57 559.56,-181.3"/>
</a>
</g>
</g>
<!-- Node7 -->
<g id="Node000007" class="node">
<title>Node7</title>
<g id="a_Node000007"><a xlink:href="$PhysicsHandleComponent_8h.html" xlink:title=" ">
<polygon fill="white" stroke="#666666" points="944.62,-154 779.38,-154 779.38,-95 944.62,-95 944.62,-154"/>
<text xml:space="preserve" text-anchor="start" x="787.38" y="-140.5" font-family="Helvetica,sans-Serif" font-size="10.00">/opt/unreal&#45;engine</text>
<text xml:space="preserve" text-anchor="start" x="787.38" y="-127.75" font-family="Helvetica,sans-Serif" font-size="10.00">/Engine/Source/Runtime</text>
<text xml:space="preserve" text-anchor="start" x="787.38" y="-115" font-family="Helvetica,sans-Serif" font-size="10.00">/Engine/Classes/PhysicsEngine</text>
<text xml:space="preserve" text-anchor="middle" x="862" y="-102.25" font-family="Helvetica,sans-Serif" font-size="10.00">/PhysicsHandleComponent.h</text>
</a>
</g>
</g>
<!-- Node1&#45;&gt;Node7 -->
<g id="edge6_Node000001_Node000007" class="edge">
<title>Node1&#45;&gt;Node7</title>
<g id="a_edge6_Node000001_Node000007"><a xlink:title=" ">
<path fill="none" stroke="#63b8ff" d="M586.78,-198.59C640.88,-186.65 710.06,-170.59 771,-154 773.72,-153.26 776.47,-152.49 779.25,-151.71"/>
<polygon fill="#63b8ff" stroke="#63b8ff" points="586.32,-195.11 577.3,-200.68 587.82,-201.95 586.32,-195.11"/>
</a>
</g>
</g>
<!-- Node4 -->
<g id="Node000004" class="node">
<title>Node4</title>
<g id="a_Node000004"><a xlink:href="$SkeletalBodySetup_8h.html" xlink:title=" ">
<polygon fill="white" stroke="#666666" points="384.62,-59 219.38,-59 219.38,0 384.62,0 384.62,-59"/>
<text xml:space="preserve" text-anchor="start" x="227.38" y="-45.5" font-family="Helvetica,sans-Serif" font-size="10.00">/opt/unreal&#45;engine</text>
<text xml:space="preserve" text-anchor="start" x="227.38" y="-32.75" font-family="Helvetica,sans-Serif" font-size="10.00">/Engine/Source/Runtime</text>
<text xml:space="preserve" text-anchor="start" x="227.38" y="-20" font-family="Helvetica,sans-Serif" font-size="10.00">/Engine/Classes/PhysicsEngine</text>
<text xml:space="preserve" text-anchor="middle" x="302" y="-7.25" font-family="Helvetica,sans-Serif" font-size="10.00">/SkeletalBodySetup.h</text>
</a>
</g>
</g>
<!-- Node3&#45;&gt;Node4 -->
<g id="edge3_Node000003_Node000004" class="edge">
<title>Node3&#45;&gt;Node4</title>
<g id="a_edge3_Node000003_Node000004"><a xlink:title=" ">
<path fill="none" stroke="#63b8ff" d="M302,-83.16C302,-75.16 302,-66.92 302,-59.4"/>
<polygon fill="#63b8ff" stroke="#63b8ff" points="298.5,-83.07 302,-93.07 305.5,-83.07 298.5,-83.07"/>
</a>
</g>
</g>
</g>
</svg>
