<?xml version="1.0" encoding="UTF-8" standalone="no"?>
<!DOCTYPE svg PUBLIC "-//W3C//DTD SVG 1.1//EN"
 "http://www.w3.org/Graphics/SVG/1.1/DTD/svg11.dtd">
<!-- Generated by graphviz version 14.1.4 (0)
 -->
<!-- Title: /opt/unreal&#45;engine/Engine/Source/Runtime/Core/Public/ProfilingDebugging/CountersTrace.h Pages: 1 -->
<svg width="1798pt" height="402pt"
 viewBox="0.00 0.00 1798.00 402.00" xmlns="http://www.w3.org/2000/svg" xmlns:xlink="http://www.w3.org/1999/xlink">
<g id="graph0" class="graph" transform="scale(1 1) rotate(0) translate(4 397.75)">
<title>/opt/unreal&#45;engine/Engine/Source/Runtime/Core/Public/ProfilingDebugging/CountersTrace.h</title>
<!-- Node1 -->
<g id="Node000001" class="node">
<title>Node1</title>
<g id="a_Node000001"><a xlink:title=" ">
<polygon fill="#999999" stroke="#666666" points="1371.5,-393.75 1201.75,-393.75 1201.75,-334.75 1371.5,-334.75 1371.5,-393.75"/>
<text xml:space="preserve" text-anchor="start" x="1209.75" y="-380.25" font-family="Helvetica,sans-Serif" font-size="10.00">/opt/unreal&#45;engine</text>
<text xml:space="preserve" text-anchor="start" x="1209.75" y="-367.5" font-family="Helvetica,sans-Serif" font-size="10.00">/Engine/Source/Runtime</text>
<text xml:space="preserve" text-anchor="start" x="1209.75" y="-354.75" font-family="Helvetica,sans-Serif" font-size="10.00">/Core/Public/ProfilingDebugging</text>
<text xml:space="preserve" text-anchor="middle" x="1286.62" y="-342" font-family="Helvetica,sans-Serif" font-size="10.00">/CountersTrace.h</text>
</a>
</g>
</g>
<!-- Node2 -->
<g id="Node000002" class="node">
<title>Node2</title>
<g id="a_Node000002"><a xlink:href="$CoreTypes_8h.html" xlink:title=" ">
<polygon fill="white" stroke="#666666" points="1042.25,-229.25 967,-229.25 967,-208.5 1042.25,-208.5 1042.25,-229.25"/>
<text xml:space="preserve" text-anchor="middle" x="1004.62" y="-215.75" font-family="Helvetica,sans-Serif" font-size="10.00">CoreTypes.h</text>
</a>
</g>
</g>
<!-- Node1&#45;&gt;Node2 -->
<g id="edge1_Node000001_Node000002" class="edge">
<title>Node1&#45;&gt;Node2</title>
<g id="a_edge1_Node000001_Node000002"><a xlink:title=" ">
<path fill="none" stroke="#63b8ff" d="M1201.56,-351.01C1136.72,-340.05 1054.46,-322.11 1029.62,-298.75 1013.72,-283.79 1007.89,-258.78 1005.78,-240.94"/>
<polygon fill="#63b8ff" stroke="#63b8ff" points="1009.28,-240.87 1004.94,-231.21 1002.31,-241.47 1009.28,-240.87"/>
</a>
</g>
</g>
<!-- Node4 -->
<g id="Node000004" class="node">
<title>Node4</title>
<g id="a_Node000004"><a xlink:href="$Build_8h.html" xlink:title=" ">
<polygon fill="white" stroke="#666666" points="75.25,-33.5 0,-33.5 0,-12.75 75.25,-12.75 75.25,-33.5"/>
<text xml:space="preserve" text-anchor="middle" x="37.62" y="-20" font-family="Helvetica,sans-Serif" font-size="10.00">Misc/Build.h</text>
</a>
</g>
</g>
<!-- Node1&#45;&gt;Node4 -->
<g id="edge18_Node000001_Node000004" class="edge">
<title>Node1&#45;&gt;Node4</title>
<g id="a_edge18_Node000001_Node000004"><a xlink:title=" ">
<path fill="none" stroke="#63b8ff" d="M1201.31,-359.57C964.36,-348.22 315.62,-309.02 315.62,-219.88 315.62,-219.88 315.62,-219.88 315.62,-154.75 315.62,-41.32 187.27,-94.52 84.62,-46.25 79.35,-43.77 73.75,-41.13 68.32,-38.58"/>
<polygon fill="#63b8ff" stroke="#63b8ff" points="70.12,-35.56 59.58,-34.47 67.14,-41.89 70.12,-35.56"/>
</a>
</g>
</g>
<!-- Node7 -->
<g id="Node000007" class="node">
<title>Node7</title>
<g id="a_Node000007"><a xlink:href="$PreprocessorHelpers_8h.html" xlink:title=" ">
<polygon fill="white" stroke="#666666" points="1542.38,-33.5 1416.88,-33.5 1416.88,-12.75 1542.38,-12.75 1542.38,-33.5"/>
<text xml:space="preserve" text-anchor="middle" x="1479.62" y="-20" font-family="Helvetica,sans-Serif" font-size="10.00">PreprocessorHelpers.h</text>
</a>
</g>
</g>
<!-- Node1&#45;&gt;Node7 -->
<g id="edge17_Node000001_Node000007" class="edge">
<title>Node1&#45;&gt;Node7</title>
<g id="a_edge17_Node000001_Node000007"><a xlink:title=" ">
<path fill="none" stroke="#63b8ff" d="M1258.77,-334.32C1249.93,-323.81 1240.85,-311.4 1234.62,-298.75 1218.7,-266.4 1215.62,-255.93 1215.62,-219.88 1215.62,-219.88 1215.62,-219.88 1215.62,-154.75 1215.62,-129.64 1371.04,-66.17 1443.38,-37.98"/>
<polygon fill="#63b8ff" stroke="#63b8ff" points="1444.36,-41.35 1452.42,-34.47 1441.83,-34.82 1444.36,-41.35"/>
</a>
</g>
</g>
<!-- Node16 -->
<g id="Node000016" class="node">
<title>Node16</title>
<g id="a_Node000016"><a xlink:href="$IsArrayOrRefOfTypeByPredicate_8h.html" xlink:title=" ">
<polygon fill="white" stroke="#666666" points="1181,-298.75 1038.25,-298.75 1038.25,-265.25 1181,-265.25 1181,-298.75"/>
<text xml:space="preserve" text-anchor="start" x="1046.25" y="-285.25" font-family="Helvetica,sans-Serif" font-size="10.00">Templates/IsArrayOrRefOf</text>
<text xml:space="preserve" text-anchor="middle" x="1109.62" y="-272.5" font-family="Helvetica,sans-Serif" font-size="10.00">TypeByPredicate.h</text>
</a>
</g>
</g>
<!-- Node1&#45;&gt;Node16 -->
<g id="edge19_Node000001_Node000016" class="edge">
<title>Node1&#45;&gt;Node16</title>
<g id="a_edge19_Node000001_Node000016"><a xlink:title=" ">
<path fill="none" stroke="#63b8ff" d="M1222.72,-334.28C1200.55,-324.22 1176.13,-313.15 1155.68,-303.88"/>
<polygon fill="#63b8ff" stroke="#63b8ff" points="1157.31,-300.78 1146.76,-299.83 1154.42,-307.15 1157.31,-300.78"/>
</a>
</g>
</g>
<!-- Node17 -->
<g id="Node000017" class="node">
<title>Node17</title>
<g id="a_Node000017"><a xlink:title=" ">
<polygon fill="#e0e0e0" stroke="#999999" points="1329.5,-292.38 1243.75,-292.38 1243.75,-271.62 1329.5,-271.62 1329.5,-292.38"/>
<text xml:space="preserve" text-anchor="middle" x="1286.62" y="-278.88" font-family="Helvetica,sans-Serif" font-size="10.00">Trace/Config.h</text>
</a>
</g>
</g>
<!-- Node1&#45;&gt;Node17 -->
<g id="edge21_Node000001_Node000017" class="edge">
<title>Node1&#45;&gt;Node17</title>
<g id="a_edge21_Node000001_Node000017"><a xlink:title=" ">
<path fill="none" stroke="#63b8ff" d="M1286.62,-334.28C1286.62,-324.28 1286.62,-313.27 1286.62,-304.03"/>
<polygon fill="#63b8ff" stroke="#63b8ff" points="1290.13,-304.29 1286.63,-294.29 1283.13,-304.29 1290.13,-304.29"/>
</a>
</g>
</g>
<!-- Node18 -->
<g id="Node000018" class="node">
<title>Node18</title>
<g id="a_Node000018"><a xlink:title=" ">
<polygon fill="#e0e0e0" stroke="#999999" points="1473.75,-292.38 1347.5,-292.38 1347.5,-271.62 1473.75,-271.62 1473.75,-292.38"/>
<text xml:space="preserve" text-anchor="middle" x="1410.62" y="-278.88" font-family="Helvetica,sans-Serif" font-size="10.00">Trace/Detail/Channel.h</text>
</a>
</g>
</g>
<!-- Node1&#45;&gt;Node18 -->
<g id="edge22_Node000001_Node000018" class="edge">
<title>Node1&#45;&gt;Node18</title>
<g id="a_edge22_Node000001_Node000018"><a xlink:title=" ">
<path fill="none" stroke="#63b8ff" d="M1331.39,-334.28C1349.83,-322.35 1370.48,-308.98 1386.07,-298.89"/>
<polygon fill="#63b8ff" stroke="#63b8ff" points="1387.75,-301.97 1394.24,-293.6 1383.95,-296.1 1387.75,-301.97"/>
</a>
</g>
</g>
<!-- Node19 -->
<g id="Node000019" class="node">
<title>Node19</title>
<g id="a_Node000019"><a xlink:title=" ">
<polygon fill="#e0e0e0" stroke="#999999" points="1623.75,-292.38 1491.5,-292.38 1491.5,-271.62 1623.75,-271.62 1623.75,-292.38"/>
<text xml:space="preserve" text-anchor="middle" x="1557.62" y="-278.88" font-family="Helvetica,sans-Serif" font-size="10.00">Trace/Detail/Channel.inl</text>
</a>
</g>
</g>
<!-- Node1&#45;&gt;Node19 -->
<g id="edge23_Node000001_Node000019" class="edge">
<title>Node1&#45;&gt;Node19</title>
<g id="a_edge23_Node000001_Node000019"><a xlink:title=" ">
<path fill="none" stroke="#63b8ff" d="M1372,-337.97C1419.02,-324.04 1475.42,-307.34 1513.62,-296.03"/>
<polygon fill="#63b8ff" stroke="#63b8ff" points="1514.32,-299.47 1522.92,-293.28 1512.33,-292.76 1514.32,-299.47"/>
</a>
</g>
</g>
<!-- Node20 -->
<g id="Node000020" class="node">
<title>Node20</title>
<g id="a_Node000020"><a xlink:title=" ">
<polygon fill="#e0e0e0" stroke="#999999" points="1721.88,-292.38 1641.38,-292.38 1641.38,-271.62 1721.88,-271.62 1721.88,-292.38"/>
<text xml:space="preserve" text-anchor="middle" x="1681.62" y="-278.88" font-family="Helvetica,sans-Serif" font-size="10.00">Trace/Trace.h</text>
</a>
</g>
</g>
<!-- Node1&#45;&gt;Node20 -->
<g id="edge24_Node000001_Node000020" class="edge">
<title>Node1&#45;&gt;Node20</title>
<g id="a_edge24_Node000001_Node000020"><a xlink:title=" ">
<path fill="none" stroke="#63b8ff" d="M1371.88,-350.45C1442.32,-339.13 1544.65,-320.99 1632.62,-298.75 1635.75,-297.96 1638.97,-297.08 1642.19,-296.15"/>
<polygon fill="#63b8ff" stroke="#63b8ff" points="1643.04,-299.55 1651.59,-293.3 1641.01,-292.85 1643.04,-299.55"/>
</a>
</g>
</g>
<!-- Node21 -->
<g id="Node000021" class="node">
<title>Node21</title>
<g id="a_Node000021"><a xlink:title=" ">
<polygon fill="#e0e0e0" stroke="#999999" points="1789.5,-292.38 1739.75,-292.38 1739.75,-271.62 1789.5,-271.62 1789.5,-292.38"/>
<text xml:space="preserve" text-anchor="middle" x="1764.62" y="-278.88" font-family="Helvetica,sans-Serif" font-size="10.00">atomic</text>
</a>
</g>
</g>
<!-- Node1&#45;&gt;Node21 -->
<g id="edge25_Node000001_Node000021" class="edge">
<title>Node1&#45;&gt;Node21</title>
<g id="a_edge25_Node000001_Node000021"><a xlink:title=" ">
<path fill="none" stroke="#63b8ff" d="M1371.66,-358.23C1462.2,-351.19 1608.93,-334.94 1730.62,-298.75 1732.22,-298.27 1733.84,-297.74 1735.46,-297.15"/>
<polygon fill="#63b8ff" stroke="#63b8ff" points="1736.63,-300.46 1744.54,-293.41 1733.96,-293.99 1736.63,-300.46"/>
</a>
</g>
</g>
<!-- Node3 -->
<g id="Node000003" class="node">
<title>Node3</title>
<g id="a_Node000003"><a xlink:href="$Platform_8h.html" xlink:title=" ">
<polygon fill="white" stroke="#666666" points="811.38,-103 721.88,-103 721.88,-82.25 811.38,-82.25 811.38,-103"/>
<text xml:space="preserve" text-anchor="middle" x="766.62" y="-89.5" font-family="Helvetica,sans-Serif" font-size="10.00">HAL/Platform.h</text>
</a>
</g>
</g>
<!-- Node2&#45;&gt;Node3 -->
<g id="edge2_Node000002_Node000003" class="edge">
<title>Node2&#45;&gt;Node3</title>
<g id="a_edge2_Node000002_Node000003"><a xlink:title=" ">
<path fill="none" stroke="#63b8ff" d="M966.67,-214.85C910.99,-209.64 811.01,-197.08 785.62,-172.5 770.24,-157.6 766.43,-132.59 765.87,-114.72"/>
<polygon fill="#63b8ff" stroke="#63b8ff" points="769.37,-114.99 765.9,-104.98 762.37,-114.97 769.37,-114.99"/>
</a>
</g>
</g>
<!-- Node13 -->
<g id="Node000013" class="node">
<title>Node13</title>
<g id="a_Node000013"><a xlink:href="$UMemoryDefines_8h.html" xlink:title=" ">
<polygon fill="white" stroke="#666666" points="1059.38,-172.5 945.88,-172.5 945.88,-139 1059.38,-139 1059.38,-172.5"/>
<text xml:space="preserve" text-anchor="start" x="953.88" y="-159" font-family="Helvetica,sans-Serif" font-size="10.00">ProfilingDebugging</text>
<text xml:space="preserve" text-anchor="middle" x="1002.62" y="-146.25" font-family="Helvetica,sans-Serif" font-size="10.00">/UMemoryDefines.h</text>
</a>
</g>
</g>
<!-- Node2&#45;&gt;Node13 -->
<g id="edge12_Node000002_Node000013" class="edge">
<title>Node2&#45;&gt;Node13</title>
<g id="a_edge12_Node000002_Node000013"><a xlink:title=" ">
<path fill="none" stroke="#63b8ff" d="M1004.3,-208.05C1004.09,-201.63 1003.81,-192.9 1003.53,-184.45"/>
<polygon fill="#63b8ff" stroke="#63b8ff" points="1007.03,-184.38 1003.21,-174.5 1000.03,-184.61 1007.03,-184.38"/>
</a>
</g>
</g>
<!-- Node14 -->
<g id="Node000014" class="node">
<title>Node14</title>
<g id="a_Node000014"><a xlink:href="$CoreMiscDefines_8h.html" xlink:title=" ">
<polygon fill="white" stroke="#666666" points="928.12,-166.12 795.12,-166.12 795.12,-145.38 928.12,-145.38 928.12,-166.12"/>
<text xml:space="preserve" text-anchor="middle" x="861.62" y="-152.62" font-family="Helvetica,sans-Serif" font-size="10.00">Misc/CoreMiscDefines.h</text>
</a>
</g>
</g>
<!-- Node2&#45;&gt;Node14 -->
<g id="edge13_Node000002_Node000014" class="edge">
<title>Node2&#45;&gt;Node14</title>
<g id="a_edge13_Node000002_Node000014"><a xlink:title=" ">
<path fill="none" stroke="#63b8ff" d="M981.65,-208.05C958.2,-198.03 921.55,-182.37 894.92,-170.98"/>
<polygon fill="#63b8ff" stroke="#63b8ff" points="896.51,-167.85 885.94,-167.14 893.75,-174.29 896.51,-167.85"/>
</a>
</g>
</g>
<!-- Node15 -->
<g id="Node000015" class="node">
<title>Node15</title>
<g id="a_Node000015"><a xlink:href="$CoreDefines_8h.html" xlink:title=" ">
<polygon fill="white" stroke="#666666" points="1187.88,-166.12 1077.38,-166.12 1077.38,-145.38 1187.88,-145.38 1187.88,-166.12"/>
<text xml:space="preserve" text-anchor="middle" x="1132.62" y="-152.62" font-family="Helvetica,sans-Serif" font-size="10.00">Misc/CoreDefines.h</text>
</a>
</g>
</g>
<!-- Node2&#45;&gt;Node15 -->
<g id="edge16_Node000002_Node000015" class="edge">
<title>Node2&#45;&gt;Node15</title>
<g id="a_edge16_Node000002_Node000015"><a xlink:title=" ">
<path fill="none" stroke="#63b8ff" d="M1025.19,-208.05C1045.9,-198.16 1078.11,-182.78 1101.86,-171.44"/>
<polygon fill="#63b8ff" stroke="#63b8ff" points="1103.23,-174.67 1110.74,-167.2 1100.21,-168.35 1103.23,-174.67"/>
</a>
</g>
</g>
<!-- Node3&#45;&gt;Node4 -->
<g id="edge3_Node000003_Node000004" class="edge">
<title>Node3&#45;&gt;Node4</title>
<g id="a_edge3_Node000003_Node000004"><a xlink:title=" ">
<path fill="none" stroke="#63b8ff" d="M721.58,-90.81C589.63,-88.08 205.68,-77.57 84.62,-46.25 77.91,-44.51 70.99,-41.82 64.6,-38.91"/>
<polygon fill="#63b8ff" stroke="#63b8ff" points="66.33,-35.86 55.81,-34.6 63.24,-42.15 66.33,-35.86"/>
</a>
</g>
</g>
<!-- Node5 -->
<g id="Node000005" class="node">
<title>Node5</title>
<g id="a_Node000005"><a xlink:href="$LargeWorldCoordinates_8h.html" xlink:title=" ">
<polygon fill="white" stroke="#666666" points="257.88,-33.5 93.38,-33.5 93.38,-12.75 257.88,-12.75 257.88,-33.5"/>
<text xml:space="preserve" text-anchor="middle" x="175.62" y="-20" font-family="Helvetica,sans-Serif" font-size="10.00">Misc/LargeWorldCoordinates.h</text>
</a>
</g>
</g>
<!-- Node3&#45;&gt;Node5 -->
<g id="edge4_Node000003_Node000005" class="edge">
<title>Node3&#45;&gt;Node5</title>
<g id="a_edge4_Node000003_Node000005"><a xlink:title=" ">
<path fill="none" stroke="#63b8ff" d="M721.62,-89.73C633.81,-85.54 433.71,-73.62 267.62,-46.25 252.64,-43.78 236.48,-40.21 221.95,-36.65"/>
<polygon fill="#63b8ff" stroke="#63b8ff" points="223.22,-33.37 212.67,-34.33 221.52,-40.16 223.22,-33.37"/>
</a>
</g>
</g>
<!-- Node6 -->
<g id="Node000006" class="node">
<title>Node6</title>
<g id="a_Node000006"><a xlink:title=" ">
<polygon fill="#e0e0e0" stroke="#999999" points="344.88,-33.5 276.38,-33.5 276.38,-12.75 344.88,-12.75 344.88,-33.5"/>
<text xml:space="preserve" text-anchor="middle" x="310.62" y="-20" font-family="Helvetica,sans-Serif" font-size="10.00">type_traits</text>
</a>
</g>
</g>
<!-- Node3&#45;&gt;Node6 -->
<g id="edge5_Node000003_Node000006" class="edge">
<title>Node3&#45;&gt;Node6</title>
<g id="a_edge5_Node000003_Node000006"><a xlink:title=" ">
<path fill="none" stroke="#63b8ff" d="M721.4,-91.84C644.45,-91.07 483.83,-84.5 354.62,-46.25 348.58,-44.46 342.36,-41.87 336.58,-39.08"/>
<polygon fill="#63b8ff" stroke="#63b8ff" points="338.6,-36.18 328.11,-34.68 335.37,-42.39 338.6,-36.18"/>
</a>
</g>
</g>
<!-- Node3&#45;&gt;Node7 -->
<g id="edge6_Node000003_Node000007" class="edge">
<title>Node3&#45;&gt;Node7</title>
<g id="a_edge6_Node000003_Node000007"><a xlink:title=" ">
<path fill="none" stroke="#63b8ff" d="M811.47,-89.78C937.46,-84.38 1292.88,-67.65 1407.62,-46.25 1418.98,-44.13 1431.07,-40.84 1442.03,-37.44"/>
<polygon fill="#63b8ff" stroke="#63b8ff" points="1443.1,-40.77 1451.54,-34.37 1440.95,-34.11 1443.1,-40.77"/>
</a>
</g>
</g>
<!-- Node8 -->
<g id="Node000008" class="node">
<title>Node8</title>
<g id="a_Node000008"><a xlink:title=" ">
<polygon fill="#e0e0e0" stroke="#999999" points="560,-46.25 363.25,-46.25 363.25,0 560,0 560,-46.25"/>
<text xml:space="preserve" text-anchor="start" x="371.25" y="-32.75" font-family="Helvetica,sans-Serif" font-size="10.00">UBT_COMPILED_PLATFORM</text>
<text xml:space="preserve" text-anchor="start" x="371.25" y="-20" font-family="Helvetica,sans-Serif" font-size="10.00">/UBT_COMPILED_PLATFORMPlatform</text>
<text xml:space="preserve" text-anchor="middle" x="461.62" y="-7.25" font-family="Helvetica,sans-Serif" font-size="10.00">CompilerPreSetup.h</text>
</a>
</g>
</g>
<!-- Node3&#45;&gt;Node8 -->
<g id="edge7_Node000003_Node000008" class="edge">
<title>Node3&#45;&gt;Node8</title>
<g id="a_edge7_Node000003_Node000008"><a xlink:title=" ">
<path fill="none" stroke="#63b8ff" d="M722.28,-81.81C682.79,-73.07 623.37,-59.92 571.23,-48.38"/>
<polygon fill="#63b8ff" stroke="#63b8ff" points="572.23,-45.02 561.71,-46.27 570.71,-51.85 572.23,-45.02"/>
</a>
</g>
</g>
<!-- Node9 -->
<g id="Node000009" class="node">
<title>Node9</title>
<g id="a_Node000009"><a xlink:href="$GenericPlatformCompilerPreSetup_8h.html" xlink:title=" ">
<polygon fill="white" stroke="#666666" points="755.62,-39.88 577.62,-39.88 577.62,-6.38 755.62,-6.38 755.62,-39.88"/>
<text xml:space="preserve" text-anchor="start" x="585.62" y="-26.38" font-family="Helvetica,sans-Serif" font-size="10.00">GenericPlatform/GenericPlatform</text>
<text xml:space="preserve" text-anchor="middle" x="666.62" y="-13.62" font-family="Helvetica,sans-Serif" font-size="10.00">CompilerPreSetup.h</text>
</a>
</g>
</g>
<!-- Node3&#45;&gt;Node9 -->
<g id="edge8_Node000003_Node000009" class="edge">
<title>Node3&#45;&gt;Node9</title>
<g id="a_edge8_Node000003_Node000009"><a xlink:title=" ">
<path fill="none" stroke="#63b8ff" d="M752.3,-81.95C738.72,-72.79 717.81,-58.68 700.06,-46.69"/>
<polygon fill="#63b8ff" stroke="#63b8ff" points="702.08,-43.83 691.83,-41.14 698.16,-49.64 702.08,-43.83"/>
</a>
</g>
</g>
<!-- Node10 -->
<g id="Node000010" class="node">
<title>Node10</title>
<g id="a_Node000010"><a xlink:href="$GenericPlatform_8h.html" xlink:title=" ">
<polygon fill="white" stroke="#666666" points="961.12,-33.5 774.12,-33.5 774.12,-12.75 961.12,-12.75 961.12,-33.5"/>
<text xml:space="preserve" text-anchor="middle" x="867.62" y="-20" font-family="Helvetica,sans-Serif" font-size="10.00">GenericPlatform/GenericPlatform.h</text>
</a>
</g>
</g>
<!-- Node3&#45;&gt;Node10 -->
<g id="edge9_Node000003_Node000010" class="edge">
<title>Node3&#45;&gt;Node10</title>
<g id="a_edge9_Node000003_Node000010"><a xlink:title=" ">
<path fill="none" stroke="#63b8ff" d="M781.1,-81.95C797.35,-71.09 824,-53.28 843.44,-40.29"/>
<polygon fill="#63b8ff" stroke="#63b8ff" points="845.22,-43.31 851.59,-34.84 841.34,-37.49 845.22,-43.31"/>
</a>
</g>
</g>
<!-- Node11 -->
<g id="Node000011" class="node">
<title>Node11</title>
<g id="a_Node000011"><a xlink:title=" ">
<polygon fill="#e0e0e0" stroke="#999999" points="1184.5,-39.88 978.75,-39.88 978.75,-6.38 1184.5,-6.38 1184.5,-39.88"/>
<text xml:space="preserve" text-anchor="start" x="986.75" y="-26.38" font-family="Helvetica,sans-Serif" font-size="10.00">UBT_COMPILED_PLATFORM</text>
<text xml:space="preserve" text-anchor="middle" x="1081.62" y="-13.62" font-family="Helvetica,sans-Serif" font-size="10.00">/UBT_COMPILED_PLATFORMPlatform.h</text>
</a>
</g>
</g>
<!-- Node3&#45;&gt;Node11 -->
<g id="edge10_Node000003_Node000011" class="edge">
<title>Node3&#45;&gt;Node11</title>
<g id="a_edge10_Node000003_Node000011"><a xlink:title=" ">
<path fill="none" stroke="#63b8ff" d="M811.76,-81.95C859.3,-71.77 935.36,-55.47 994.62,-42.77"/>
<polygon fill="#63b8ff" stroke="#63b8ff" points="995.34,-46.19 1004.38,-40.68 993.87,-39.35 995.34,-46.19"/>
</a>
</g>
</g>
<!-- Node12 -->
<g id="Node000012" class="node">
<title>Node12</title>
<g id="a_Node000012"><a xlink:title=" ">
<polygon fill="#e0e0e0" stroke="#999999" points="1399,-46.25 1202.25,-46.25 1202.25,0 1399,0 1399,-46.25"/>
<text xml:space="preserve" text-anchor="start" x="1210.25" y="-32.75" font-family="Helvetica,sans-Serif" font-size="10.00">UBT_COMPILED_PLATFORM</text>
<text xml:space="preserve" text-anchor="start" x="1210.25" y="-20" font-family="Helvetica,sans-Serif" font-size="10.00">/UBT_COMPILED_PLATFORMPlatform</text>
<text xml:space="preserve" text-anchor="middle" x="1300.62" y="-7.25" font-family="Helvetica,sans-Serif" font-size="10.00">CompilerSetup.h</text>
</a>
</g>
</g>
<!-- Node3&#45;&gt;Node12 -->
<g id="edge11_Node000003_Node000012" class="edge">
<title>Node3&#45;&gt;Node12</title>
<g id="a_edge11_Node000003_Node000012"><a xlink:title=" ">
<path fill="none" stroke="#63b8ff" d="M811.69,-88.3C887.79,-82.36 1046.81,-68.59 1190.66,-46.64"/>
<polygon fill="#63b8ff" stroke="#63b8ff" points="1191.03,-50.13 1200.38,-45.14 1189.96,-43.21 1191.03,-50.13"/>
</a>
</g>
</g>
<!-- Node14&#45;&gt;Node3 -->
<g id="edge14_Node000014_Node000003" class="edge">
<title>Node14&#45;&gt;Node3</title>
<g id="a_edge14_Node000014_Node000003"><a xlink:title=" ">
<path fill="none" stroke="#63b8ff" d="M846.36,-144.93C831.54,-135.39 808.8,-120.76 791.39,-109.56"/>
<polygon fill="#63b8ff" stroke="#63b8ff" points="793.43,-106.71 783.12,-104.24 789.64,-112.59 793.43,-106.71"/>
</a>
</g>
</g>
<!-- Node14&#45;&gt;Node7 -->
<g id="edge15_Node000014_Node000007" class="edge">
<title>Node14&#45;&gt;Node7</title>
<g id="a_edge15_Node000014_Node000007"><a xlink:title=" ">
<path fill="none" stroke="#63b8ff" d="M905.26,-144.9C969.86,-130.45 1094.83,-102.96 1201.62,-82.25 1292.87,-64.56 1317.25,-67.94 1407.62,-46.25 1418.18,-43.72 1429.45,-40.5 1439.88,-37.31"/>
<polygon fill="#63b8ff" stroke="#63b8ff" points="1440.84,-40.68 1449.33,-34.35 1438.74,-34 1440.84,-40.68"/>
</a>
</g>
</g>
<!-- Node16&#45;&gt;Node2 -->
<g id="edge20_Node000016_Node000002" class="edge">
<title>Node16&#45;&gt;Node2</title>
<g id="a_edge20_Node000016_Node000002"><a xlink:title=" ">
<path fill="none" stroke="#63b8ff" d="M1081.76,-264.78C1066.01,-255.61 1046.44,-244.22 1030.95,-235.2"/>
<polygon fill="#63b8ff" stroke="#63b8ff" points="1033.15,-232.43 1022.75,-230.43 1029.63,-238.48 1033.15,-232.43"/>
</a>
</g>
</g>
</g>
</svg>
