<?xml version="1.0" encoding="UTF-8" standalone="no"?>
<!DOCTYPE svg PUBLIC "-//W3C//DTD SVG 1.1//EN"
 "http://www.w3.org/Graphics/SVG/1.1/DTD/svg11.dtd">
<!-- Generated by graphviz version 14.1.4 (0)
 -->
<!-- Title: /opt/unreal&#45;engine/Engine/Source/Runtime/Engine/Classes/Curves/CurveOwnerInterface.h Pages: 1 -->
<svg width="1417pt" height="637pt"
 viewBox="0.00 0.00 1417.00 637.00" xmlns="http://www.w3.org/2000/svg" xmlns:xlink="http://www.w3.org/1999/xlink">
<g id="graph0" class="graph" transform="scale(1 1) rotate(0) translate(4 633)">
<title>/opt/unreal&#45;engine/Engine/Source/Runtime/Engine/Classes/Curves/CurveOwnerInterface.h</title>
<!-- Node1 -->
<g id="Node000001" class="node">
<title>Node1</title>
<g id="a_Node000001"><a xlink:title=" ">
<polygon fill="#999999" stroke="#666666" points="995.25,-629 863,-629 863,-570 995.25,-570 995.25,-629"/>
<text xml:space="preserve" text-anchor="start" x="871" y="-615.5" font-family="Helvetica,sans-Serif" font-size="10.00">/opt/unreal&#45;engine</text>
<text xml:space="preserve" text-anchor="start" x="871" y="-602.75" font-family="Helvetica,sans-Serif" font-size="10.00">/Engine/Source/Runtime</text>
<text xml:space="preserve" text-anchor="start" x="871" y="-590" font-family="Helvetica,sans-Serif" font-size="10.00">/Engine/Classes/Curves</text>
<text xml:space="preserve" text-anchor="middle" x="929.12" y="-577.25" font-family="Helvetica,sans-Serif" font-size="10.00">/CurveOwnerInterface.h</text>
</a>
</g>
</g>
<!-- Node2 -->
<g id="Node000002" class="node">
<title>Node2</title>
<g id="a_Node000002"><a xlink:href="$CurveBase_8h.html" xlink:title=" ">
<polygon fill="white" stroke="#666666" points="920.25,-534 788,-534 788,-475 920.25,-475 920.25,-534"/>
<text xml:space="preserve" text-anchor="start" x="796" y="-520.5" font-family="Helvetica,sans-Serif" font-size="10.00">/opt/unreal&#45;engine</text>
<text xml:space="preserve" text-anchor="start" x="796" y="-507.75" font-family="Helvetica,sans-Serif" font-size="10.00">/Engine/Source/Runtime</text>
<text xml:space="preserve" text-anchor="start" x="796" y="-495" font-family="Helvetica,sans-Serif" font-size="10.00">/Engine/Classes/Curves</text>
<text xml:space="preserve" text-anchor="middle" x="854.12" y="-482.25" font-family="Helvetica,sans-Serif" font-size="10.00">/CurveBase.h</text>
</a>
</g>
</g>
<!-- Node1&#45;&gt;Node2 -->
<g id="edge1_Node000001_Node000002" class="edge">
<title>Node1&#45;&gt;Node2</title>
<g id="a_edge1_Node000001_Node000002"><a xlink:title=" ">
<path fill="none" stroke="#63b8ff" d="M898.61,-560.66C891.54,-551.9 884.13,-542.71 877.43,-534.4"/>
<polygon fill="#63b8ff" stroke="#63b8ff" points="895.85,-562.82 904.86,-568.41 901.3,-558.42 895.85,-562.82"/>
</a>
</g>
</g>
<!-- Node26 -->
<g id="Node000026" class="node">
<title>Node26</title>
<g id="a_Node000026"><a xlink:href="$CurveTable_8h.html" xlink:title=" ">
<polygon fill="white" stroke="#666666" points="1108.25,-534 976,-534 976,-475 1108.25,-475 1108.25,-534"/>
<text xml:space="preserve" text-anchor="start" x="984" y="-520.5" font-family="Helvetica,sans-Serif" font-size="10.00">/opt/unreal&#45;engine</text>
<text xml:space="preserve" text-anchor="start" x="984" y="-507.75" font-family="Helvetica,sans-Serif" font-size="10.00">/Engine/Source/Runtime</text>
<text xml:space="preserve" text-anchor="start" x="984" y="-495" font-family="Helvetica,sans-Serif" font-size="10.00">/Engine/Classes/Engine</text>
<text xml:space="preserve" text-anchor="middle" x="1042.12" y="-482.25" font-family="Helvetica,sans-Serif" font-size="10.00">/CurveTable.h</text>
</a>
</g>
</g>
<!-- Node1&#45;&gt;Node26 -->
<g id="edge28_Node000001_Node000026" class="edge">
<title>Node1&#45;&gt;Node26</title>
<g id="a_edge28_Node000001_Node000026"><a xlink:title=" ">
<path fill="none" stroke="#63b8ff" d="M973.09,-562.32C984.34,-553.06 996.28,-543.23 1007.01,-534.4"/>
<polygon fill="#63b8ff" stroke="#63b8ff" points="970.93,-559.57 965.43,-568.62 975.37,-564.97 970.93,-559.57"/>
</a>
</g>
</g>
<!-- Node3 -->
<g id="Node000003" class="node">
<title>Node3</title>
<g id="a_Node000003"><a xlink:href="$CurveFloat_8h.html" xlink:title=" ">
<polygon fill="white" stroke="#666666" points="845.25,-439 713,-439 713,-380 845.25,-380 845.25,-439"/>
<text xml:space="preserve" text-anchor="start" x="721" y="-425.5" font-family="Helvetica,sans-Serif" font-size="10.00">/opt/unreal&#45;engine</text>
<text xml:space="preserve" text-anchor="start" x="721" y="-412.75" font-family="Helvetica,sans-Serif" font-size="10.00">/Engine/Source/Runtime</text>
<text xml:space="preserve" text-anchor="start" x="721" y="-400" font-family="Helvetica,sans-Serif" font-size="10.00">/Engine/Classes/Curves</text>
<text xml:space="preserve" text-anchor="middle" x="779.12" y="-387.25" font-family="Helvetica,sans-Serif" font-size="10.00">/CurveFloat.h</text>
</a>
</g>
</g>
<!-- Node2&#45;&gt;Node3 -->
<g id="edge2_Node000002_Node000003" class="edge">
<title>Node2&#45;&gt;Node3</title>
<g id="a_edge2_Node000002_Node000003"><a xlink:title=" ">
<path fill="none" stroke="#63b8ff" d="M823.61,-465.66C816.54,-456.9 809.13,-447.71 802.43,-439.4"/>
<polygon fill="#63b8ff" stroke="#63b8ff" points="820.85,-467.82 829.86,-473.41 826.3,-463.42 820.85,-467.82"/>
</a>
</g>
</g>
<!-- Node23 -->
<g id="Node000023" class="node">
<title>Node23</title>
<g id="a_Node000023"><a xlink:href="$CurveLinearColor_8h.html" xlink:title=" ">
<polygon fill="white" stroke="#666666" points="995.25,-439 863,-439 863,-380 995.25,-380 995.25,-439"/>
<text xml:space="preserve" text-anchor="start" x="871" y="-425.5" font-family="Helvetica,sans-Serif" font-size="10.00">/opt/unreal&#45;engine</text>
<text xml:space="preserve" text-anchor="start" x="871" y="-412.75" font-family="Helvetica,sans-Serif" font-size="10.00">/Engine/Source/Runtime</text>
<text xml:space="preserve" text-anchor="start" x="871" y="-400" font-family="Helvetica,sans-Serif" font-size="10.00">/Engine/Classes/Curves</text>
<text xml:space="preserve" text-anchor="middle" x="929.12" y="-387.25" font-family="Helvetica,sans-Serif" font-size="10.00">/CurveLinearColor.h</text>
</a>
</g>
</g>
<!-- Node2&#45;&gt;Node23 -->
<g id="edge25_Node000002_Node000023" class="edge">
<title>Node2&#45;&gt;Node23</title>
<g id="a_edge25_Node000002_Node000023"><a xlink:title=" ">
<path fill="none" stroke="#63b8ff" d="M884.64,-465.66C891.71,-456.9 899.12,-447.71 905.82,-439.4"/>
<polygon fill="#63b8ff" stroke="#63b8ff" points="881.95,-463.42 878.39,-473.41 887.4,-467.82 881.95,-463.42"/>
</a>
</g>
</g>
<!-- Node25 -->
<g id="Node000025" class="node">
<title>Node25</title>
<g id="a_Node000025"><a xlink:href="$CurveVector_8h.html" xlink:title=" ">
<polygon fill="white" stroke="#666666" points="695.25,-439 563,-439 563,-380 695.25,-380 695.25,-439"/>
<text xml:space="preserve" text-anchor="start" x="571" y="-425.5" font-family="Helvetica,sans-Serif" font-size="10.00">/opt/unreal&#45;engine</text>
<text xml:space="preserve" text-anchor="start" x="571" y="-412.75" font-family="Helvetica,sans-Serif" font-size="10.00">/Engine/Source/Runtime</text>
<text xml:space="preserve" text-anchor="start" x="571" y="-400" font-family="Helvetica,sans-Serif" font-size="10.00">/Engine/Classes/Curves</text>
<text xml:space="preserve" text-anchor="middle" x="629.12" y="-387.25" font-family="Helvetica,sans-Serif" font-size="10.00">/CurveVector.h</text>
</a>
</g>
</g>
<!-- Node2&#45;&gt;Node25 -->
<g id="edge27_Node000002_Node000025" class="edge">
<title>Node2&#45;&gt;Node25</title>
<g id="a_edge27_Node000002_Node000025"><a xlink:title=" ">
<path fill="none" stroke="#63b8ff" d="M777.14,-471.68C750.62,-460.72 721.16,-448.54 695.55,-437.95"/>
<polygon fill="#63b8ff" stroke="#63b8ff" points="775.55,-474.81 786.13,-475.4 778.23,-468.34 775.55,-474.81"/>
</a>
</g>
</g>
<!-- Node4 -->
<g id="Node000004" class="node">
<title>Node4</title>
<g id="a_Node000004"><a xlink:href="$Attenuation_8h.html" xlink:title=" ">
<polygon fill="white" stroke="#666666" points="1259.25,-344 1127,-344 1127,-285 1259.25,-285 1259.25,-344"/>
<text xml:space="preserve" text-anchor="start" x="1135" y="-330.5" font-family="Helvetica,sans-Serif" font-size="10.00">/opt/unreal&#45;engine</text>
<text xml:space="preserve" text-anchor="start" x="1135" y="-317.75" font-family="Helvetica,sans-Serif" font-size="10.00">/Engine/Source/Runtime</text>
<text xml:space="preserve" text-anchor="start" x="1135" y="-305" font-family="Helvetica,sans-Serif" font-size="10.00">/Engine/Classes/Engine</text>
<text xml:space="preserve" text-anchor="middle" x="1193.12" y="-292.25" font-family="Helvetica,sans-Serif" font-size="10.00">/Attenuation.h</text>
</a>
</g>
</g>
<!-- Node3&#45;&gt;Node4 -->
<g id="edge3_Node000003_Node000004" class="edge">
<title>Node3&#45;&gt;Node4</title>
<g id="a_edge3_Node000003_Node000004"><a xlink:title=" ">
<path fill="none" stroke="#63b8ff" d="M856.49,-379.65C971.04,-352.09 1006.84,-372.34 1118.12,-344 1120.96,-343.28 1123.83,-342.48 1126.72,-341.63"/>
<polygon fill="#63b8ff" stroke="#63b8ff" points="855.86,-376.2 847,-382 857.55,-382.99 855.86,-376.2"/>
</a>
</g>
</g>
<!-- Node12 -->
<g id="Node000012" class="node">
<title>Node12</title>
<g id="a_Node000012"><a xlink:href="$UserInterfaceSettings_8h.html" xlink:title=" ">
<polygon fill="white" stroke="#666666" points="575,-344 441.25,-344 441.25,-285 575,-285 575,-344"/>
<text xml:space="preserve" text-anchor="start" x="449.25" y="-330.5" font-family="Helvetica,sans-Serif" font-size="10.00">/opt/unreal&#45;engine</text>
<text xml:space="preserve" text-anchor="start" x="449.25" y="-317.75" font-family="Helvetica,sans-Serif" font-size="10.00">/Engine/Source/Runtime</text>
<text xml:space="preserve" text-anchor="start" x="449.25" y="-305" font-family="Helvetica,sans-Serif" font-size="10.00">/Engine/Classes/Engine</text>
<text xml:space="preserve" text-anchor="middle" x="508.12" y="-292.25" font-family="Helvetica,sans-Serif" font-size="10.00">/UserInterfaceSettings.h</text>
</a>
</g>
</g>
<!-- Node3&#45;&gt;Node12 -->
<g id="edge11_Node000003_Node000012" class="edge">
<title>Node3&#45;&gt;Node12</title>
<g id="a_edge11_Node000003_Node000012"><a xlink:title=" ">
<path fill="none" stroke="#63b8ff" d="M701.94,-379.36C649.5,-362 633.69,-360.71 584.12,-344 581.19,-343.01 578.19,-341.98 575.17,-340.92"/>
<polygon fill="#63b8ff" stroke="#63b8ff" points="700.53,-382.57 711.12,-382.44 702.76,-375.94 700.53,-382.57"/>
</a>
</g>
</g>
<!-- Node13 -->
<g id="Node000013" class="node">
<title>Node13</title>
<g id="a_Node000013"><a xlink:href="$ForceFeedbackEffect_8h.html" xlink:title=" ">
<polygon fill="white" stroke="#666666" points="772.88,-344 593.38,-344 593.38,-285 772.88,-285 772.88,-344"/>
<text xml:space="preserve" text-anchor="start" x="601.38" y="-330.5" font-family="Helvetica,sans-Serif" font-size="10.00">/opt/unreal&#45;engine</text>
<text xml:space="preserve" text-anchor="start" x="601.38" y="-317.75" font-family="Helvetica,sans-Serif" font-size="10.00">/Engine/Source/Runtime</text>
<text xml:space="preserve" text-anchor="start" x="601.38" y="-305" font-family="Helvetica,sans-Serif" font-size="10.00">/Engine/Classes/GameFramework</text>
<text xml:space="preserve" text-anchor="middle" x="683.12" y="-292.25" font-family="Helvetica,sans-Serif" font-size="10.00">/ForceFeedbackEffect.h</text>
</a>
</g>
</g>
<!-- Node3&#45;&gt;Node13 -->
<g id="edge12_Node000003_Node000013" class="edge">
<title>Node3&#45;&gt;Node13</title>
<g id="a_edge12_Node000003_Node000013"><a xlink:title=" ">
<path fill="none" stroke="#63b8ff" d="M741.2,-371.76C731.82,-362.67 721.89,-353.06 712.96,-344.4"/>
<polygon fill="#63b8ff" stroke="#63b8ff" points="738.57,-374.09 748.19,-378.53 743.44,-369.06 738.57,-374.09"/>
</a>
</g>
</g>
<!-- Node14 -->
<g id="Node000014" class="node">
<title>Node14</title>
<g id="a_Node000014"><a xlink:href="$HapticFeedbackEffect__Curve_8h.html" xlink:title=" ">
<polygon fill="white" stroke="#666666" points="959.25,-344 791,-344 791,-285 959.25,-285 959.25,-344"/>
<text xml:space="preserve" text-anchor="start" x="799" y="-330.5" font-family="Helvetica,sans-Serif" font-size="10.00">/opt/unreal&#45;engine</text>
<text xml:space="preserve" text-anchor="start" x="799" y="-317.75" font-family="Helvetica,sans-Serif" font-size="10.00">/Engine/Source/Runtime</text>
<text xml:space="preserve" text-anchor="start" x="799" y="-305" font-family="Helvetica,sans-Serif" font-size="10.00">/Engine/Classes/Haptics</text>
<text xml:space="preserve" text-anchor="middle" x="875.12" y="-292.25" font-family="Helvetica,sans-Serif" font-size="10.00">/HapticFeedbackEffect_Curve.h</text>
</a>
</g>
</g>
<!-- Node3&#45;&gt;Node14 -->
<g id="edge13_Node000003_Node000014" class="edge">
<title>Node3&#45;&gt;Node14</title>
<g id="a_edge13_Node000003_Node000014"><a xlink:title=" ">
<path fill="none" stroke="#63b8ff" d="M817.05,-371.76C826.43,-362.67 836.36,-353.06 845.29,-344.4"/>
<polygon fill="#63b8ff" stroke="#63b8ff" points="814.81,-369.06 810.06,-378.53 819.68,-374.09 814.81,-369.06"/>
</a>
</g>
</g>
<!-- Node15 -->
<g id="Node000015" class="node">
<title>Node15</title>
<g id="a_Node000015"><a xlink:href="$SoundNodeEnveloper_8h.html" xlink:title=" ">
<polygon fill="white" stroke="#666666" points="1109.25,-344 977,-344 977,-285 1109.25,-285 1109.25,-344"/>
<text xml:space="preserve" text-anchor="start" x="985" y="-330.5" font-family="Helvetica,sans-Serif" font-size="10.00">/opt/unreal&#45;engine</text>
<text xml:space="preserve" text-anchor="start" x="985" y="-317.75" font-family="Helvetica,sans-Serif" font-size="10.00">/Engine/Source/Runtime</text>
<text xml:space="preserve" text-anchor="start" x="985" y="-305" font-family="Helvetica,sans-Serif" font-size="10.00">/Engine/Classes/Sound</text>
<text xml:space="preserve" text-anchor="middle" x="1043.12" y="-292.25" font-family="Helvetica,sans-Serif" font-size="10.00">/SoundNodeEnveloper.h</text>
</a>
</g>
</g>
<!-- Node3&#45;&gt;Node15 -->
<g id="edge14_Node000003_Node000015" class="edge">
<title>Node3&#45;&gt;Node15</title>
<g id="a_edge14_Node000003_Node000015"><a xlink:title=" ">
<path fill="none" stroke="#63b8ff" d="M856.5,-379.26C906.22,-362.34 921.17,-360.32 968.12,-344 970.89,-343.04 973.7,-342.05 976.54,-341.03"/>
<polygon fill="#63b8ff" stroke="#63b8ff" points="855.46,-375.91 847.14,-382.48 857.73,-382.53 855.46,-375.91"/>
</a>
</g>
</g>
<!-- Node16 -->
<g id="Node000016" class="node">
<title>Node16</title>
<g id="a_Node000016"><a xlink:href="$SoundSourceBusSend_8h.html" xlink:title=" ">
<polygon fill="white" stroke="#666666" points="226.62,-344 93.62,-344 93.62,-285 226.62,-285 226.62,-344"/>
<text xml:space="preserve" text-anchor="start" x="101.62" y="-330.5" font-family="Helvetica,sans-Serif" font-size="10.00">/opt/unreal&#45;engine</text>
<text xml:space="preserve" text-anchor="start" x="101.62" y="-317.75" font-family="Helvetica,sans-Serif" font-size="10.00">/Engine/Source/Runtime</text>
<text xml:space="preserve" text-anchor="start" x="101.62" y="-305" font-family="Helvetica,sans-Serif" font-size="10.00">/Engine/Classes/Sound</text>
<text xml:space="preserve" text-anchor="middle" x="160.12" y="-292.25" font-family="Helvetica,sans-Serif" font-size="10.00">/SoundSourceBusSend.h</text>
</a>
</g>
</g>
<!-- Node3&#45;&gt;Node16 -->
<g id="edge15_Node000003_Node000016" class="edge">
<title>Node3&#45;&gt;Node16</title>
<g id="a_edge15_Node000003_Node000016"><a xlink:title=" ">
<path fill="none" stroke="#63b8ff" d="M701.66,-379.7C518.49,-339.52 464.41,-372.91 282.12,-344 264.08,-341.14 244.74,-337.09 226.9,-332.93"/>
<polygon fill="#63b8ff" stroke="#63b8ff" points="700.77,-383.08 711.29,-381.86 702.3,-376.25 700.77,-383.08"/>
</a>
</g>
</g>
<!-- Node18 -->
<g id="Node000018" class="node">
<title>Node18</title>
<g id="a_Node000018"><a xlink:href="$SoundSubmixSend_8h.html" xlink:title=" ">
<polygon fill="white" stroke="#666666" points="423.25,-344 291,-344 291,-285 423.25,-285 423.25,-344"/>
<text xml:space="preserve" text-anchor="start" x="299" y="-330.5" font-family="Helvetica,sans-Serif" font-size="10.00">/opt/unreal&#45;engine</text>
<text xml:space="preserve" text-anchor="start" x="299" y="-317.75" font-family="Helvetica,sans-Serif" font-size="10.00">/Engine/Source/Runtime</text>
<text xml:space="preserve" text-anchor="start" x="299" y="-305" font-family="Helvetica,sans-Serif" font-size="10.00">/Engine/Classes/Sound</text>
<text xml:space="preserve" text-anchor="middle" x="357.12" y="-292.25" font-family="Helvetica,sans-Serif" font-size="10.00">/SoundSubmixSend.h</text>
</a>
</g>
</g>
<!-- Node3&#45;&gt;Node18 -->
<g id="edge18_Node000003_Node000018" class="edge">
<title>Node3&#45;&gt;Node18</title>
<g id="a_edge18_Node000003_Node000018"><a xlink:title=" ">
<path fill="none" stroke="#63b8ff" d="M701.81,-379.66C583.74,-351.49 546.89,-372.98 432.12,-344 429.29,-343.28 426.41,-342.49 423.52,-341.65"/>
<polygon fill="#63b8ff" stroke="#63b8ff" points="700.71,-383 711.26,-381.99 702.38,-376.2 700.71,-383"/>
</a>
</g>
</g>
<!-- Node5 -->
<g id="Node000005" class="node">
<title>Node5</title>
<g id="a_Node000005"><a xlink:href="$ForceFeedbackAttenuation_8h.html" xlink:title=" ">
<polygon fill="white" stroke="#666666" points="1282.88,-249 1103.38,-249 1103.38,-190 1282.88,-190 1282.88,-249"/>
<text xml:space="preserve" text-anchor="start" x="1111.38" y="-235.5" font-family="Helvetica,sans-Serif" font-size="10.00">/opt/unreal&#45;engine</text>
<text xml:space="preserve" text-anchor="start" x="1111.38" y="-222.75" font-family="Helvetica,sans-Serif" font-size="10.00">/Engine/Source/Runtime</text>
<text xml:space="preserve" text-anchor="start" x="1111.38" y="-210" font-family="Helvetica,sans-Serif" font-size="10.00">/Engine/Classes/GameFramework</text>
<text xml:space="preserve" text-anchor="middle" x="1193.12" y="-197.25" font-family="Helvetica,sans-Serif" font-size="10.00">/ForceFeedbackAttenuation.h</text>
</a>
</g>
</g>
<!-- Node4&#45;&gt;Node5 -->
<g id="edge4_Node000004_Node000005" class="edge">
<title>Node4&#45;&gt;Node5</title>
<g id="a_edge4_Node000004_Node000005"><a xlink:title=" ">
<path fill="none" stroke="#63b8ff" d="M1193.12,-273.16C1193.12,-265.16 1193.12,-256.92 1193.12,-249.4"/>
<polygon fill="#63b8ff" stroke="#63b8ff" points="1189.63,-273.07 1193.13,-283.07 1196.63,-273.07 1189.63,-273.07"/>
</a>
</g>
</g>
<!-- Node7 -->
<g id="Node000007" class="node">
<title>Node7</title>
<g id="a_Node000007"><a xlink:href="$SoundAttenuation_8h.html" xlink:title=" ">
<polygon fill="white" stroke="#666666" points="702.25,-249 570,-249 570,-190 702.25,-190 702.25,-249"/>
<text xml:space="preserve" text-anchor="start" x="578" y="-235.5" font-family="Helvetica,sans-Serif" font-size="10.00">/opt/unreal&#45;engine</text>
<text xml:space="preserve" text-anchor="start" x="578" y="-222.75" font-family="Helvetica,sans-Serif" font-size="10.00">/Engine/Source/Runtime</text>
<text xml:space="preserve" text-anchor="start" x="578" y="-210" font-family="Helvetica,sans-Serif" font-size="10.00">/Engine/Classes/Sound</text>
<text xml:space="preserve" text-anchor="middle" x="636.12" y="-197.25" font-family="Helvetica,sans-Serif" font-size="10.00">/SoundAttenuation.h</text>
</a>
</g>
</g>
<!-- Node4&#45;&gt;Node7 -->
<g id="edge6_Node000004_Node000007" class="edge">
<title>Node4&#45;&gt;Node7</title>
<g id="a_edge6_Node000004_Node000007"><a xlink:title=" ">
<path fill="none" stroke="#63b8ff" d="M1115.84,-284.64C964.24,-247.32 794.13,-231.17 702.52,-224.54"/>
<polygon fill="#63b8ff" stroke="#63b8ff" points="1114.71,-287.96 1125.26,-286.99 1116.41,-281.17 1114.71,-287.96"/>
</a>
</g>
</g>
<!-- Node6 -->
<g id="Node000006" class="node">
<title>Node6</title>
<g id="a_Node000006"><a xlink:href="$ForceFeedbackComponent_8h.html" xlink:title=" ">
<polygon fill="white" stroke="#666666" points="1271.62,-154 1114.62,-154 1114.62,-95 1271.62,-95 1271.62,-154"/>
<text xml:space="preserve" text-anchor="start" x="1122.62" y="-140.5" font-family="Helvetica,sans-Serif" font-size="10.00">/opt/unreal&#45;engine</text>
<text xml:space="preserve" text-anchor="start" x="1122.62" y="-127.75" font-family="Helvetica,sans-Serif" font-size="10.00">/Engine/Source/Runtime</text>
<text xml:space="preserve" text-anchor="start" x="1122.62" y="-115" font-family="Helvetica,sans-Serif" font-size="10.00">/Engine/Classes/Components</text>
<text xml:space="preserve" text-anchor="middle" x="1193.12" y="-102.25" font-family="Helvetica,sans-Serif" font-size="10.00">/ForceFeedbackComponent.h</text>
</a>
</g>
</g>
<!-- Node5&#45;&gt;Node6 -->
<g id="edge5_Node000005_Node000006" class="edge">
<title>Node5&#45;&gt;Node6</title>
<g id="a_edge5_Node000005_Node000006"><a xlink:title=" ">
<path fill="none" stroke="#63b8ff" d="M1193.12,-178.16C1193.12,-170.16 1193.12,-161.92 1193.12,-154.4"/>
<polygon fill="#63b8ff" stroke="#63b8ff" points="1189.63,-178.07 1193.13,-188.07 1196.63,-178.07 1189.63,-178.07"/>
</a>
</g>
</g>
<!-- Node8 -->
<g id="Node000008" class="node">
<title>Node8</title>
<g id="a_Node000008"><a xlink:href="$AudioComponent_8h.html" xlink:title=" ">
<polygon fill="white" stroke="#666666" points="547.62,-154 390.62,-154 390.62,-95 547.62,-95 547.62,-154"/>
<text xml:space="preserve" text-anchor="start" x="398.62" y="-140.5" font-family="Helvetica,sans-Serif" font-size="10.00">/opt/unreal&#45;engine</text>
<text xml:space="preserve" text-anchor="start" x="398.62" y="-127.75" font-family="Helvetica,sans-Serif" font-size="10.00">/Engine/Source/Runtime</text>
<text xml:space="preserve" text-anchor="start" x="398.62" y="-115" font-family="Helvetica,sans-Serif" font-size="10.00">/Engine/Classes/Components</text>
<text xml:space="preserve" text-anchor="middle" x="469.12" y="-102.25" font-family="Helvetica,sans-Serif" font-size="10.00">/AudioComponent.h</text>
</a>
</g>
</g>
<!-- Node7&#45;&gt;Node8 -->
<g id="edge7_Node000007_Node000008" class="edge">
<title>Node7&#45;&gt;Node8</title>
<g id="a_edge7_Node000007_Node000008"><a xlink:title=" ">
<path fill="none" stroke="#63b8ff" d="M574.59,-184.23C556.98,-174.43 537.98,-163.84 521.02,-154.4"/>
<polygon fill="#63b8ff" stroke="#63b8ff" points="572.44,-187.04 582.88,-188.85 575.84,-180.92 572.44,-187.04"/>
</a>
</g>
</g>
<!-- Node9 -->
<g id="Node000009" class="node">
<title>Node9</title>
<g id="a_Node000009"><a xlink:href="$SoundCue_8h.html" xlink:title=" ">
<polygon fill="white" stroke="#666666" points="856.25,-154 724,-154 724,-95 856.25,-95 856.25,-154"/>
<text xml:space="preserve" text-anchor="start" x="732" y="-140.5" font-family="Helvetica,sans-Serif" font-size="10.00">/opt/unreal&#45;engine</text>
<text xml:space="preserve" text-anchor="start" x="732" y="-127.75" font-family="Helvetica,sans-Serif" font-size="10.00">/Engine/Source/Runtime</text>
<text xml:space="preserve" text-anchor="start" x="732" y="-115" font-family="Helvetica,sans-Serif" font-size="10.00">/Engine/Classes/Sound</text>
<text xml:space="preserve" text-anchor="middle" x="790.12" y="-102.25" font-family="Helvetica,sans-Serif" font-size="10.00">/SoundCue.h</text>
</a>
</g>
</g>
<!-- Node7&#45;&gt;Node9 -->
<g id="edge8_Node000007_Node000009" class="edge">
<title>Node7&#45;&gt;Node9</title>
<g id="a_edge8_Node000007_Node000009"><a xlink:title=" ">
<path fill="none" stroke="#63b8ff" d="M693.78,-183.69C709.75,-174.04 726.92,-163.67 742.27,-154.4"/>
<polygon fill="#63b8ff" stroke="#63b8ff" points="692.05,-180.64 685.3,-188.8 695.67,-186.63 692.05,-180.64"/>
</a>
</g>
</g>
<!-- Node11 -->
<g id="Node000011" class="node">
<title>Node11</title>
<g id="a_Node000011"><a xlink:href="$SoundNodeAttenuation_8h.html" xlink:title=" ">
<polygon fill="white" stroke="#666666" points="706.38,-154 565.88,-154 565.88,-95 706.38,-95 706.38,-154"/>
<text xml:space="preserve" text-anchor="start" x="573.88" y="-140.5" font-family="Helvetica,sans-Serif" font-size="10.00">/opt/unreal&#45;engine</text>
<text xml:space="preserve" text-anchor="start" x="573.88" y="-127.75" font-family="Helvetica,sans-Serif" font-size="10.00">/Engine/Source/Runtime</text>
<text xml:space="preserve" text-anchor="start" x="573.88" y="-115" font-family="Helvetica,sans-Serif" font-size="10.00">/Engine/Classes/Sound</text>
<text xml:space="preserve" text-anchor="middle" x="636.12" y="-102.25" font-family="Helvetica,sans-Serif" font-size="10.00">/SoundNodeAttenuation.h</text>
</a>
</g>
</g>
<!-- Node7&#45;&gt;Node11 -->
<g id="edge10_Node000007_Node000011" class="edge">
<title>Node7&#45;&gt;Node11</title>
<g id="a_edge10_Node000007_Node000011"><a xlink:title=" ">
<path fill="none" stroke="#63b8ff" d="M636.12,-178.16C636.12,-170.16 636.12,-161.92 636.12,-154.4"/>
<polygon fill="#63b8ff" stroke="#63b8ff" points="632.63,-178.07 636.13,-188.07 639.63,-178.07 632.63,-178.07"/>
</a>
</g>
</g>
<!-- Node10 -->
<g id="Node000010" class="node">
<title>Node10</title>
<g id="a_Node000010"><a xlink:href="$SoundWaveLoadingBehavior_8cpp.html" xlink:title=" ">
<polygon fill="white" stroke="#666666" points="879.5,-59 700.75,-59 700.75,0 879.5,0 879.5,-59"/>
<text xml:space="preserve" text-anchor="start" x="708.75" y="-45.5" font-family="Helvetica,sans-Serif" font-size="10.00">/opt/unreal&#45;engine</text>
<text xml:space="preserve" text-anchor="start" x="708.75" y="-32.75" font-family="Helvetica,sans-Serif" font-size="10.00">/Engine/Source/Runtime</text>
<text xml:space="preserve" text-anchor="start" x="708.75" y="-20" font-family="Helvetica,sans-Serif" font-size="10.00">/Engine/Classes/Sound</text>
<text xml:space="preserve" text-anchor="middle" x="790.12" y="-7.25" font-family="Helvetica,sans-Serif" font-size="10.00">/SoundWaveLoadingBehavior.cpp</text>
</a>
</g>
</g>
<!-- Node9&#45;&gt;Node10 -->
<g id="edge9_Node000009_Node000010" class="edge">
<title>Node9&#45;&gt;Node10</title>
<g id="a_edge9_Node000009_Node000010"><a xlink:title=" ">
<path fill="none" stroke="#63b8ff" d="M790.12,-83.16C790.12,-75.16 790.12,-66.92 790.12,-59.4"/>
<polygon fill="#63b8ff" stroke="#63b8ff" points="786.63,-83.07 790.13,-93.07 793.63,-83.07 786.63,-83.07"/>
</a>
</g>
</g>
<!-- Node16&#45;&gt;Node8 -->
<g id="edge16_Node000016_Node000008" class="edge">
<title>Node16&#45;&gt;Node8</title>
<g id="a_edge16_Node000016_Node000008"><a xlink:title=" ">
<path fill="none" stroke="#63b8ff" d="M155.38,-273.1C154.57,-246.15 158.43,-211.78 179.12,-190 233.51,-132.74 276.1,-171.42 353.12,-154 365.16,-151.28 377.87,-148.28 390.28,-145.28"/>
<polygon fill="#63b8ff" stroke="#63b8ff" points="151.88,-273.21 155.93,-283 158.87,-272.83 151.88,-273.21"/>
</a>
</g>
</g>
<!-- Node17 -->
<g id="Node000017" class="node">
<title>Node17</title>
<g id="a_Node000017"><a xlink:href="$SoundSourceBus_8h.html" xlink:title=" ">
<polygon fill="white" stroke="#666666" points="132.25,-249 0,-249 0,-190 132.25,-190 132.25,-249"/>
<text xml:space="preserve" text-anchor="start" x="8" y="-235.5" font-family="Helvetica,sans-Serif" font-size="10.00">/opt/unreal&#45;engine</text>
<text xml:space="preserve" text-anchor="start" x="8" y="-222.75" font-family="Helvetica,sans-Serif" font-size="10.00">/Engine/Source/Runtime</text>
<text xml:space="preserve" text-anchor="start" x="8" y="-210" font-family="Helvetica,sans-Serif" font-size="10.00">/Engine/Classes/Sound</text>
<text xml:space="preserve" text-anchor="middle" x="66.12" y="-197.25" font-family="Helvetica,sans-Serif" font-size="10.00">/SoundSourceBus.h</text>
</a>
</g>
</g>
<!-- Node16&#45;&gt;Node17 -->
<g id="edge17_Node000016_Node000017" class="edge">
<title>Node16&#45;&gt;Node17</title>
<g id="a_edge17_Node000016_Node000017"><a xlink:title=" ">
<path fill="none" stroke="#63b8ff" d="M122.72,-276.49C113.61,-267.48 104,-257.97 95.33,-249.4"/>
<polygon fill="#63b8ff" stroke="#63b8ff" points="120.25,-278.97 129.82,-283.52 125.17,-274 120.25,-278.97"/>
</a>
</g>
</g>
<!-- Node18&#45;&gt;Node7 -->
<g id="edge23_Node000018_Node000007" class="edge">
<title>Node18&#45;&gt;Node7</title>
<g id="a_edge23_Node000018_Node000007"><a xlink:title=" ">
<path fill="none" stroke="#63b8ff" d="M434.44,-284.25C484.57,-266.98 532.29,-251.94 569.66,-240.47"/>
<polygon fill="#63b8ff" stroke="#63b8ff" points="433.44,-280.9 425.14,-287.48 435.73,-287.51 433.44,-280.9"/>
</a>
</g>
</g>
<!-- Node18&#45;&gt;Node8 -->
<g id="edge19_Node000018_Node000008" class="edge">
<title>Node18&#45;&gt;Node8</title>
<g id="a_edge19_Node000018_Node000008"><a xlink:title=" ">
<path fill="none" stroke="#63b8ff" d="M433.68,-280.89C454.62,-270.34 473.2,-258.83 479.12,-249 496.39,-220.35 488.99,-180.94 480.52,-154.41"/>
<polygon fill="#63b8ff" stroke="#63b8ff" points="432.41,-277.62 424.96,-285.16 435.48,-283.91 432.41,-277.62"/>
</a>
</g>
</g>
<!-- Node19 -->
<g id="Node000019" class="node">
<title>Node19</title>
<g id="a_Node000019"><a xlink:href="$AudioVolume_8h.html" xlink:title=" ">
<polygon fill="white" stroke="#666666" points="320.25,-249 188,-249 188,-190 320.25,-190 320.25,-249"/>
<text xml:space="preserve" text-anchor="start" x="196" y="-235.5" font-family="Helvetica,sans-Serif" font-size="10.00">/opt/unreal&#45;engine</text>
<text xml:space="preserve" text-anchor="start" x="196" y="-222.75" font-family="Helvetica,sans-Serif" font-size="10.00">/Engine/Source/Runtime</text>
<text xml:space="preserve" text-anchor="start" x="196" y="-210" font-family="Helvetica,sans-Serif" font-size="10.00">/Engine/Classes/Sound</text>
<text xml:space="preserve" text-anchor="middle" x="254.12" y="-197.25" font-family="Helvetica,sans-Serif" font-size="10.00">/AudioVolume.h</text>
</a>
</g>
</g>
<!-- Node18&#45;&gt;Node19 -->
<g id="edge20_Node000018_Node000019" class="edge">
<title>Node18&#45;&gt;Node19</title>
<g id="a_edge20_Node000018_Node000019"><a xlink:title=" ">
<path fill="none" stroke="#63b8ff" d="M316.74,-277.04C306.58,-267.87 295.82,-258.14 286.13,-249.4"/>
<polygon fill="#63b8ff" stroke="#63b8ff" points="314.21,-279.47 323.98,-283.57 318.9,-274.27 314.21,-279.47"/>
</a>
</g>
</g>
<!-- Node22 -->
<g id="Node000022" class="node">
<title>Node22</title>
<g id="a_Node000022"><a xlink:href="$SoundSubmix_8h.html" xlink:title=" ">
<polygon fill="white" stroke="#666666" points="470.25,-249 338,-249 338,-190 470.25,-190 470.25,-249"/>
<text xml:space="preserve" text-anchor="start" x="346" y="-235.5" font-family="Helvetica,sans-Serif" font-size="10.00">/opt/unreal&#45;engine</text>
<text xml:space="preserve" text-anchor="start" x="346" y="-222.75" font-family="Helvetica,sans-Serif" font-size="10.00">/Engine/Source/Runtime</text>
<text xml:space="preserve" text-anchor="start" x="346" y="-210" font-family="Helvetica,sans-Serif" font-size="10.00">/Engine/Classes/Sound</text>
<text xml:space="preserve" text-anchor="middle" x="404.12" y="-197.25" font-family="Helvetica,sans-Serif" font-size="10.00">/SoundSubmix.h</text>
</a>
</g>
</g>
<!-- Node18&#45;&gt;Node22 -->
<g id="edge24_Node000018_Node000022" class="edge">
<title>Node18&#45;&gt;Node22</title>
<g id="a_edge24_Node000018_Node000022"><a xlink:title=" ">
<path fill="none" stroke="#63b8ff" d="M376.81,-274.55C381.07,-266.12 385.5,-257.36 389.52,-249.4"/>
<polygon fill="#63b8ff" stroke="#63b8ff" points="373.81,-272.73 372.42,-283.23 380.06,-275.89 373.81,-272.73"/>
</a>
</g>
</g>
<!-- Node20 -->
<g id="Node000020" class="node">
<title>Node20</title>
<g id="a_Node000020"><a xlink:href="$WorldSettings_8h.html" xlink:title=" ">
<polygon fill="white" stroke="#666666" points="343.88,-154 164.38,-154 164.38,-95 343.88,-95 343.88,-154"/>
<text xml:space="preserve" text-anchor="start" x="172.38" y="-140.5" font-family="Helvetica,sans-Serif" font-size="10.00">/opt/unreal&#45;engine</text>
<text xml:space="preserve" text-anchor="start" x="172.38" y="-127.75" font-family="Helvetica,sans-Serif" font-size="10.00">/Engine/Source/Runtime</text>
<text xml:space="preserve" text-anchor="start" x="172.38" y="-115" font-family="Helvetica,sans-Serif" font-size="10.00">/Engine/Classes/GameFramework</text>
<text xml:space="preserve" text-anchor="middle" x="254.12" y="-102.25" font-family="Helvetica,sans-Serif" font-size="10.00">/WorldSettings.h</text>
</a>
</g>
</g>
<!-- Node19&#45;&gt;Node20 -->
<g id="edge21_Node000019_Node000020" class="edge">
<title>Node19&#45;&gt;Node20</title>
<g id="a_edge21_Node000019_Node000020"><a xlink:title=" ">
<path fill="none" stroke="#63b8ff" d="M254.12,-178.16C254.12,-170.16 254.12,-161.92 254.12,-154.4"/>
<polygon fill="#63b8ff" stroke="#63b8ff" points="250.63,-178.07 254.13,-188.07 257.63,-178.07 250.63,-178.07"/>
</a>
</g>
</g>
<!-- Node21 -->
<g id="Node000021" class="node">
<title>Node21</title>
<g id="a_Node000021"><a xlink:href="$PhysicsSettings_8h.html" xlink:title=" ">
<polygon fill="white" stroke="#666666" points="336.75,-59 171.5,-59 171.5,0 336.75,0 336.75,-59"/>
<text xml:space="preserve" text-anchor="start" x="179.5" y="-45.5" font-family="Helvetica,sans-Serif" font-size="10.00">/opt/unreal&#45;engine</text>
<text xml:space="preserve" text-anchor="start" x="179.5" y="-32.75" font-family="Helvetica,sans-Serif" font-size="10.00">/Engine/Source/Runtime</text>
<text xml:space="preserve" text-anchor="start" x="179.5" y="-20" font-family="Helvetica,sans-Serif" font-size="10.00">/Engine/Classes/PhysicsEngine</text>
<text xml:space="preserve" text-anchor="middle" x="254.12" y="-7.25" font-family="Helvetica,sans-Serif" font-size="10.00">/PhysicsSettings.h</text>
</a>
</g>
</g>
<!-- Node20&#45;&gt;Node21 -->
<g id="edge22_Node000020_Node000021" class="edge">
<title>Node20&#45;&gt;Node21</title>
<g id="a_edge22_Node000020_Node000021"><a xlink:title=" ">
<path fill="none" stroke="#63b8ff" d="M254.12,-83.16C254.12,-75.16 254.12,-66.92 254.12,-59.4"/>
<polygon fill="#63b8ff" stroke="#63b8ff" points="250.63,-83.07 254.13,-93.07 257.63,-83.07 250.63,-83.07"/>
</a>
</g>
</g>
<!-- Node24 -->
<g id="Node000024" class="node">
<title>Node24</title>
<g id="a_Node000024"><a xlink:href="$SpecularProfile_8h.html" xlink:title=" ">
<polygon fill="white" stroke="#666666" points="1409.25,-344 1277,-344 1277,-285 1409.25,-285 1409.25,-344"/>
<text xml:space="preserve" text-anchor="start" x="1285" y="-330.5" font-family="Helvetica,sans-Serif" font-size="10.00">/opt/unreal&#45;engine</text>
<text xml:space="preserve" text-anchor="start" x="1285" y="-317.75" font-family="Helvetica,sans-Serif" font-size="10.00">/Engine/Source/Runtime</text>
<text xml:space="preserve" text-anchor="start" x="1285" y="-305" font-family="Helvetica,sans-Serif" font-size="10.00">/Engine/Classes/Engine</text>
<text xml:space="preserve" text-anchor="middle" x="1343.12" y="-292.25" font-family="Helvetica,sans-Serif" font-size="10.00">/SpecularProfile.h</text>
</a>
</g>
</g>
<!-- Node23&#45;&gt;Node24 -->
<g id="edge26_Node000023_Node000024" class="edge">
<title>Node23&#45;&gt;Node24</title>
<g id="a_edge26_Node000023_Node000024"><a xlink:title=" ">
<path fill="none" stroke="#63b8ff" d="M1006.49,-379.65C1121.04,-352.09 1156.84,-372.34 1268.12,-344 1270.96,-343.28 1273.83,-342.48 1276.72,-341.63"/>
<polygon fill="#63b8ff" stroke="#63b8ff" points="1005.86,-376.2 997,-382 1007.55,-382.99 1005.86,-376.2"/>
</a>
</g>
</g>
<!-- Node27 -->
<g id="Node000027" class="node">
<title>Node27</title>
<g id="a_Node000027"><a xlink:href="$CompositeCurveTable_8h.html" xlink:title=" ">
<polygon fill="white" stroke="#666666" points="1147.38,-439 1012.88,-439 1012.88,-380 1147.38,-380 1147.38,-439"/>
<text xml:space="preserve" text-anchor="start" x="1020.88" y="-425.5" font-family="Helvetica,sans-Serif" font-size="10.00">/opt/unreal&#45;engine</text>
<text xml:space="preserve" text-anchor="start" x="1020.88" y="-412.75" font-family="Helvetica,sans-Serif" font-size="10.00">/Engine/Source/Runtime</text>
<text xml:space="preserve" text-anchor="start" x="1020.88" y="-400" font-family="Helvetica,sans-Serif" font-size="10.00">/Engine/Classes/Engine</text>
<text xml:space="preserve" text-anchor="middle" x="1080.12" y="-387.25" font-family="Helvetica,sans-Serif" font-size="10.00">/CompositeCurveTable.h</text>
</a>
</g>
</g>
<!-- Node26&#45;&gt;Node27 -->
<g id="edge29_Node000026_Node000027" class="edge">
<title>Node26&#45;&gt;Node27</title>
<g id="a_edge29_Node000026_Node000027"><a xlink:title=" ">
<path fill="none" stroke="#63b8ff" d="M1058.27,-463.99C1061.64,-455.74 1065.14,-447.18 1068.32,-439.4"/>
<polygon fill="#63b8ff" stroke="#63b8ff" points="1055.06,-462.6 1054.51,-473.18 1061.54,-465.25 1055.06,-462.6"/>
</a>
</g>
</g>
</g>
</svg>
