<?xml version="1.0" encoding="UTF-8" standalone="no"?>
<!DOCTYPE svg PUBLIC "-//W3C//DTD SVG 1.1//EN"
 "http://www.w3.org/Graphics/SVG/1.1/DTD/svg11.dtd">
<!-- Generated by graphviz version 14.1.4 (0)
 -->
<!-- Title: /opt/unreal&#45;engine/Engine/Source/Runtime/Engine/Classes/Engine/DataAsset.h Pages: 1 -->
<svg width="777pt" height="162pt"
 viewBox="0.00 0.00 777.00 162.00" xmlns="http://www.w3.org/2000/svg" xmlns:xlink="http://www.w3.org/1999/xlink">
<g id="graph0" class="graph" transform="scale(1 1) rotate(0) translate(4 158)">
<title>/opt/unreal&#45;engine/Engine/Source/Runtime/Engine/Classes/Engine/DataAsset.h</title>
<!-- Node1 -->
<g id="Node000001" class="node">
<title>Node1</title>
<g id="a_Node000001"><a xlink:title=" ">
<polygon fill="#999999" stroke="#666666" points="453.12,-154 320.88,-154 320.88,-95 453.12,-95 453.12,-154"/>
<text xml:space="preserve" text-anchor="start" x="328.88" y="-140.5" font-family="Helvetica,sans-Serif" font-size="10.00">/opt/unreal&#45;engine</text>
<text xml:space="preserve" text-anchor="start" x="328.88" y="-127.75" font-family="Helvetica,sans-Serif" font-size="10.00">/Engine/Source/Runtime</text>
<text xml:space="preserve" text-anchor="start" x="328.88" y="-115" font-family="Helvetica,sans-Serif" font-size="10.00">/Engine/Classes/Engine</text>
<text xml:space="preserve" text-anchor="middle" x="387" y="-102.25" font-family="Helvetica,sans-Serif" font-size="10.00">/DataAsset.h</text>
</a>
</g>
</g>
<!-- Node2 -->
<g id="Node000002" class="node">
<title>Node2</title>
<g id="a_Node000002"><a xlink:href="$PreviewMeshCollection_8h.html" xlink:title=" ">
<polygon fill="white" stroke="#666666" points="142,-59 0,-59 0,0 142,0 142,-59"/>
<text xml:space="preserve" text-anchor="start" x="8" y="-45.5" font-family="Helvetica,sans-Serif" font-size="10.00">/opt/unreal&#45;engine</text>
<text xml:space="preserve" text-anchor="start" x="8" y="-32.75" font-family="Helvetica,sans-Serif" font-size="10.00">/Engine/Source/Runtime</text>
<text xml:space="preserve" text-anchor="start" x="8" y="-20" font-family="Helvetica,sans-Serif" font-size="10.00">/Engine/Classes/Engine</text>
<text xml:space="preserve" text-anchor="middle" x="71" y="-7.25" font-family="Helvetica,sans-Serif" font-size="10.00">/PreviewMeshCollection.h</text>
</a>
</g>
</g>
<!-- Node1&#45;&gt;Node2 -->
<g id="edge1_Node000001_Node000002" class="edge">
<title>Node1&#45;&gt;Node2</title>
<g id="a_edge1_Node000001_Node000002"><a xlink:title=" ">
<path fill="none" stroke="#63b8ff" d="M309.63,-103.93C263.35,-91.83 203.52,-75.51 151,-59 148.19,-58.12 145.33,-57.2 142.44,-56.25"/>
<polygon fill="#63b8ff" stroke="#63b8ff" points="308.46,-107.24 319.02,-106.37 310.23,-100.47 308.46,-107.24"/>
</a>
</g>
</g>
<!-- Node3 -->
<g id="Node000003" class="node">
<title>Node3</title>
<g id="a_Node000003"><a xlink:href="$PrimaryAssetLabel_8h.html" xlink:title=" ">
<polygon fill="white" stroke="#666666" points="292.12,-59 159.88,-59 159.88,0 292.12,0 292.12,-59"/>
<text xml:space="preserve" text-anchor="start" x="167.88" y="-45.5" font-family="Helvetica,sans-Serif" font-size="10.00">/opt/unreal&#45;engine</text>
<text xml:space="preserve" text-anchor="start" x="167.88" y="-32.75" font-family="Helvetica,sans-Serif" font-size="10.00">/Engine/Source/Runtime</text>
<text xml:space="preserve" text-anchor="start" x="167.88" y="-20" font-family="Helvetica,sans-Serif" font-size="10.00">/Engine/Classes/Engine</text>
<text xml:space="preserve" text-anchor="middle" x="226" y="-7.25" font-family="Helvetica,sans-Serif" font-size="10.00">/PrimaryAssetLabel.h</text>
</a>
</g>
</g>
<!-- Node1&#45;&gt;Node3 -->
<g id="edge2_Node000001_Node000003" class="edge">
<title>Node1&#45;&gt;Node3</title>
<g id="a_edge2_Node000001_Node000003"><a xlink:title=" ">
<path fill="none" stroke="#63b8ff" d="M327.2,-88.96C310.36,-79.23 292.23,-68.76 276.03,-59.4"/>
<polygon fill="#63b8ff" stroke="#63b8ff" points="325.22,-91.86 335.63,-93.83 328.72,-85.79 325.22,-91.86"/>
</a>
</g>
</g>
<!-- Node4 -->
<g id="Node000004" class="node">
<title>Node4</title>
<g id="a_Node000004"><a xlink:href="$SkeletalMeshLODSettings_8h.html" xlink:title=" ">
<polygon fill="white" stroke="#666666" points="463.62,-59 310.38,-59 310.38,0 463.62,0 463.62,-59"/>
<text xml:space="preserve" text-anchor="start" x="318.38" y="-45.5" font-family="Helvetica,sans-Serif" font-size="10.00">/opt/unreal&#45;engine</text>
<text xml:space="preserve" text-anchor="start" x="318.38" y="-32.75" font-family="Helvetica,sans-Serif" font-size="10.00">/Engine/Source/Runtime</text>
<text xml:space="preserve" text-anchor="start" x="318.38" y="-20" font-family="Helvetica,sans-Serif" font-size="10.00">/Engine/Classes/Engine</text>
<text xml:space="preserve" text-anchor="middle" x="387" y="-7.25" font-family="Helvetica,sans-Serif" font-size="10.00">/SkeletalMeshLODSettings.h</text>
</a>
</g>
</g>
<!-- Node1&#45;&gt;Node4 -->
<g id="edge3_Node000001_Node000004" class="edge">
<title>Node1&#45;&gt;Node4</title>
<g id="a_edge3_Node000001_Node000004"><a xlink:title=" ">
<path fill="none" stroke="#63b8ff" d="M387,-83.16C387,-75.16 387,-66.92 387,-59.4"/>
<polygon fill="#63b8ff" stroke="#63b8ff" points="383.5,-83.07 387,-93.07 390.5,-83.07 383.5,-83.07"/>
</a>
</g>
</g>
<!-- Node5 -->
<g id="Node000005" class="node">
<title>Node5</title>
<g id="a_Node000005"><a xlink:href="$TextureCollection_8h.html" xlink:title=" ">
<polygon fill="white" stroke="#666666" points="614.12,-59 481.88,-59 481.88,0 614.12,0 614.12,-59"/>
<text xml:space="preserve" text-anchor="start" x="489.88" y="-45.5" font-family="Helvetica,sans-Serif" font-size="10.00">/opt/unreal&#45;engine</text>
<text xml:space="preserve" text-anchor="start" x="489.88" y="-32.75" font-family="Helvetica,sans-Serif" font-size="10.00">/Engine/Source/Runtime</text>
<text xml:space="preserve" text-anchor="start" x="489.88" y="-20" font-family="Helvetica,sans-Serif" font-size="10.00">/Engine/Classes/Engine</text>
<text xml:space="preserve" text-anchor="middle" x="548" y="-7.25" font-family="Helvetica,sans-Serif" font-size="10.00">/TextureCollection.h</text>
</a>
</g>
</g>
<!-- Node1&#45;&gt;Node5 -->
<g id="edge4_Node000001_Node000005" class="edge">
<title>Node1&#45;&gt;Node5</title>
<g id="a_edge4_Node000001_Node000005"><a xlink:title=" ">
<path fill="none" stroke="#63b8ff" d="M446.8,-88.96C463.64,-79.23 481.77,-68.76 497.97,-59.4"/>
<polygon fill="#63b8ff" stroke="#63b8ff" points="445.28,-85.79 438.37,-93.83 448.78,-91.86 445.28,-85.79"/>
</a>
</g>
</g>
<!-- Node6 -->
<g id="Node000006" class="node">
<title>Node6</title>
<g id="a_Node000006"><a xlink:href="$TireType_8h.html" xlink:title=" ">
<polygon fill="white" stroke="#666666" points="769.38,-59 632.62,-59 632.62,0 769.38,0 769.38,-59"/>
<text xml:space="preserve" text-anchor="start" x="640.62" y="-45.5" font-family="Helvetica,sans-Serif" font-size="10.00">/opt/unreal&#45;engine</text>
<text xml:space="preserve" text-anchor="start" x="640.62" y="-32.75" font-family="Helvetica,sans-Serif" font-size="10.00">/Engine/Source/Runtime</text>
<text xml:space="preserve" text-anchor="start" x="640.62" y="-20" font-family="Helvetica,sans-Serif" font-size="10.00">/Engine/Classes/Vehicles</text>
<text xml:space="preserve" text-anchor="middle" x="701" y="-7.25" font-family="Helvetica,sans-Serif" font-size="10.00">/TireType.h</text>
</a>
</g>
</g>
<!-- Node1&#45;&gt;Node6 -->
<g id="edge5_Node000001_Node000006" class="edge">
<title>Node1&#45;&gt;Node6</title>
<g id="a_edge5_Node000001_Node000006"><a xlink:title=" ">
<path fill="none" stroke="#63b8ff" d="M464.42,-104.08C510.71,-92.04 570.55,-75.72 623,-59 626.02,-58.04 629.1,-57.03 632.2,-55.99"/>
<polygon fill="#63b8ff" stroke="#63b8ff" points="463.83,-100.62 455.02,-106.52 465.58,-107.4 463.83,-100.62"/>
</a>
</g>
</g>
</g>
</svg>
