<?xml version="1.0" encoding="UTF-8" standalone="no"?>
<!DOCTYPE svg PUBLIC "-//W3C//DTD SVG 1.1//EN"
 "http://www.w3.org/Graphics/SVG/1.1/DTD/svg11.dtd">
<!-- Generated by graphviz version 14.1.4 (0)
 -->
<!-- Title: /opt/unreal&#45;engine/Engine/Source/Runtime/Engine/Classes/Kismet/DataTableFunctionLibrary.h Pages: 1 -->
<!--zoomable 206 -->

<svg id="main" version="1.1" xmlns="http://www.w3.org/2000/svg" xmlns:xlink="http://www.w3.org/1999/xlink" xml:space="preserve" onload="init(evt)">

<style type="text/css"><![CDATA[
.node, .edge {opacity: 0.7;}
.node.selected, .edge.selected {opacity: 1;}
.edge:hover path { stroke: red; }
.edge:hover polygon { stroke: red; fill: red; }
]]></style>

<defs>
  <circle id="rim" cx="0" cy="0" r="7"/>
  <circle id="rim2" cx="0" cy="0" r="3.5"/>
  <g id="zoomPlus">
    <use xlink:href="#rim" fill="#404040"><set attributeName="fill" to="#808080" begin="zoomplus.mouseover" end="zoomplus.mouseout"/></use>
    <path d="M-4,0h8M0,-4v8" fill="none" stroke="white" stroke-width="1.5" pointer-events="none"/>
  </g>
  <g id="zoomMin">
    <use xlink:href="#rim" fill="#404040"><set attributeName="fill" to="#808080" begin="zoomminus.mouseover" end="zoomminus.mouseout"/></use>
    <path d="M-4,0h8" fill="none" stroke="white" stroke-width="1.5" pointer-events="none"/>
  </g>
  <g id="arrowUp" transform="translate(30 24)">
    <use xlink:href="#rim"/>
    <path pointer-events="none" fill="none" stroke="white" stroke-width="1.5" d="M0,-3.0v7 M-2.5,-0.5L0,-3.0L2.5,-0.5"/>
  </g>
  <g id="arrowRight" transform="rotate(90) translate(36 -43)">
    <use xlink:href="#rim"/>
    <path pointer-events="none" fill="none" stroke="white" stroke-width="1.5" d="M0,-3.0v7 M-2.5,-0.5L0,-3.0L2.5,-0.5"/>
  </g>
  <g id="arrowDown" transform="rotate(180) translate(-30 -48)">
    <use xlink:href="#rim"/>
    <path pointer-events="none" fill="none" stroke="white" stroke-width="1.5" d="M0,-3.0v7 M-2.5,-0.5L0,-3.0L2.5,-0.5"/>
  </g>
  <g id="arrowLeft" transform="rotate(270) translate(-36 17)">
    <use xlink:href="#rim"/>
    <path pointer-events="none" fill="none" stroke="white" stroke-width="1.5" d="M0,-3.0v7 M-2.5,-0.5L0,-3.0L2.5,-0.5"/>
  </g>
  <g id="resetDef">
    <use xlink:href="#rim2" fill="#404040"><set attributeName="fill" to="#808080" begin="reset.mouseover" end="reset.mouseout"/></use>
  </g>
</defs>
<script type="application/ecmascript">
var viewWidth = 1563;
var viewHeight = 206;
var sectionId = 'dynsection-0';
</script>
<script type="application/ecmascript" xlink:href="svg.min.js"/>
<svg id="graph" class="graph">
<g id="viewport">
<title>/opt/unreal&#45;engine/Engine/Source/Runtime/Engine/Classes/Kismet/DataTableFunctionLibrary.h</title>
<!-- Node1 -->
<g id="Node000001" class="node">
<title>Node1</title>
<g id="a_Node000001"><a xlink:title=" ">
<polygon fill="#999999" stroke="#666666" points="787.75,-198 637.5,-198 637.5,-139 787.75,-139 787.75,-198"/>
<text xml:space="preserve" text-anchor="start" x="645.5" y="-184.5" font-family="Helvetica,sans-Serif" font-size="10.00">/opt/unreal&#45;engine</text>
<text xml:space="preserve" text-anchor="start" x="645.5" y="-171.75" font-family="Helvetica,sans-Serif" font-size="10.00">/Engine/Source/Runtime</text>
<text xml:space="preserve" text-anchor="start" x="645.5" y="-159" font-family="Helvetica,sans-Serif" font-size="10.00">/Engine/Classes/Kismet</text>
<text xml:space="preserve" text-anchor="middle" x="712.62" y="-146.25" font-family="Helvetica,sans-Serif" font-size="10.00">/DataTableFunctionLibrary.h</text>
</a>
</g>
</g>
<!-- Node2 -->
<g id="Node000002" class="node">
<title>Node2</title>
<g id="a_Node000002"><a xlink:title=" ">
<polygon fill="#e0e0e0" stroke="#999999" points="87.25,-27.12 0,-27.12 0,-6.38 87.25,-6.38 87.25,-27.12"/>
<text xml:space="preserve" text-anchor="middle" x="43.62" y="-13.62" font-family="Helvetica,sans-Serif" font-size="10.00">CoreMinimal.h</text>
</a>
</g>
</g>
<!-- Node1&#45;&gt;Node2 -->
<g id="edge1_Node000001_Node000002" class="edge">
<title>Node1&#45;&gt;Node2</title>
<g id="a_edge1_Node000001_Node000002"><a xlink:title=" ">
<path fill="none" stroke="#63b8ff" d="M637.13,-153.14C520.38,-130.46 289.26,-83.76 95.62,-33.5 92.31,-32.64 88.89,-31.71 85.45,-30.74"/>
<polygon fill="#63b8ff" stroke="#63b8ff" points="86.61,-27.43 76.03,-27.99 84.66,-34.15 86.61,-27.43"/>
</a>
</g>
</g>
<!-- Node3 -->
<g id="Node000003" class="node">
<title>Node3</title>
<g id="a_Node000003"><a xlink:title=" ">
<polygon fill="#e0e0e0" stroke="#999999" points="963,-96.62 868.25,-96.62 868.25,-75.88 963,-75.88 963,-96.62"/>
<text xml:space="preserve" text-anchor="middle" x="915.62" y="-83.12" font-family="Helvetica,sans-Serif" font-size="10.00">UObject/Script.h</text>
</a>
</g>
</g>
<!-- Node1&#45;&gt;Node3 -->
<g id="edge2_Node000001_Node000003" class="edge">
<title>Node1&#45;&gt;Node3</title>
<g id="a_edge2_Node000001_Node000003"><a xlink:title=" ">
<path fill="none" stroke="#63b8ff" d="M785.91,-138.53C818.11,-125.8 854.42,-111.45 880.42,-101.17"/>
<polygon fill="#63b8ff" stroke="#63b8ff" points="881.46,-104.52 889.48,-97.59 878.89,-98.01 881.46,-104.52"/>
</a>
</g>
</g>
<!-- Node4 -->
<g id="Node000004" class="node">
<title>Node4</title>
<g id="a_Node000004"><a xlink:title=" ">
<polygon fill="#e0e0e0" stroke="#999999" points="452.5,-27.12 318.75,-27.12 318.75,-6.38 452.5,-6.38 452.5,-27.12"/>
<text xml:space="preserve" text-anchor="middle" x="385.62" y="-13.62" font-family="Helvetica,sans-Serif" font-size="10.00">UObject/ObjectMacros.h</text>
</a>
</g>
</g>
<!-- Node1&#45;&gt;Node4 -->
<g id="edge3_Node000001_Node000004" class="edge">
<title>Node1&#45;&gt;Node4</title>
<g id="a_edge3_Node000001_Node000004"><a xlink:title=" ">
<path fill="none" stroke="#63b8ff" d="M637.25,-160.77C583.78,-153.17 512.13,-137.07 457.62,-103 431.01,-86.37 409.25,-56.65 396.85,-37.06"/>
<polygon fill="#63b8ff" stroke="#63b8ff" points="399.93,-35.39 391.75,-28.67 393.95,-39.03 399.93,-35.39"/>
</a>
</g>
</g>
<!-- Node5 -->
<g id="Node000005" class="node">
<title>Node5</title>
<g id="a_Node000005"><a xlink:title=" ">
<polygon fill="#e0e0e0" stroke="#999999" points="856.5,-27.12 734.75,-27.12 734.75,-6.38 856.5,-6.38 856.5,-27.12"/>
<text xml:space="preserve" text-anchor="middle" x="795.62" y="-13.62" font-family="Helvetica,sans-Serif" font-size="10.00">UObject/UnrealType.h</text>
</a>
</g>
</g>
<!-- Node1&#45;&gt;Node5 -->
<g id="edge4_Node000001_Node000005" class="edge">
<title>Node1&#45;&gt;Node5</title>
<g id="a_edge4_Node000001_Node000005"><a xlink:title=" ">
<path fill="none" stroke="#63b8ff" d="M713.06,-138.62C714.55,-118.05 719.04,-90.44 731.62,-69.5 740.42,-54.86 754.96,-42.61 767.95,-33.71"/>
<polygon fill="#63b8ff" stroke="#63b8ff" points="769.69,-36.75 776.2,-28.39 765.9,-30.87 769.69,-36.75"/>
</a>
</g>
</g>
<!-- Node6 -->
<g id="Node000006" class="node">
<title>Node6</title>
<g id="a_Node000006"><a xlink:title=" ">
<polygon fill="#e0e0e0" stroke="#999999" points="600.62,-27.12 470.62,-27.12 470.62,-6.38 600.62,-6.38 600.62,-27.12"/>
<text xml:space="preserve" text-anchor="middle" x="535.62" y="-13.62" font-family="Helvetica,sans-Serif" font-size="10.00">UObject/ScriptMacros.h</text>
</a>
</g>
</g>
<!-- Node1&#45;&gt;Node6 -->
<g id="edge5_Node000001_Node000006" class="edge">
<title>Node1&#45;&gt;Node6</title>
<g id="a_edge5_Node000001_Node000006"><a xlink:title=" ">
<path fill="none" stroke="#63b8ff" d="M687,-138.9C668,-118.46 640.95,-90.9 614.62,-69.5 598.14,-56.09 578.09,-43 562.32,-33.33"/>
<polygon fill="#63b8ff" stroke="#63b8ff" points="564.32,-30.45 553.95,-28.29 560.71,-36.45 564.32,-30.45"/>
</a>
</g>
</g>
<!-- Node7 -->
<g id="Node000007" class="node">
<title>Node7</title>
<g id="a_Node000007"><a xlink:href="BlueprintFunctionLibrary_8h.html" target="_top" xlink:title=" ">
<polygon fill="white" stroke="#666666" points="605.12,-103 466.12,-103 466.12,-69.5 605.12,-69.5 605.12,-103"/>
<text xml:space="preserve" text-anchor="start" x="474.12" y="-89.5" font-family="Helvetica,sans-Serif" font-size="10.00">Kismet/BlueprintFunction</text>
<text xml:space="preserve" text-anchor="middle" x="535.62" y="-76.75" font-family="Helvetica,sans-Serif" font-size="10.00">Library.h</text>
</a>
</g>
</g>
<!-- Node1&#45;&gt;Node7 -->
<g id="edge6_Node000001_Node000007" class="edge">
<title>Node1&#45;&gt;Node7</title>
<g id="a_edge6_Node000001_Node000007"><a xlink:title=" ">
<path fill="none" stroke="#63b8ff" d="M648.72,-138.53C626.55,-128.47 602.13,-117.4 581.68,-108.13"/>
<polygon fill="#63b8ff" stroke="#63b8ff" points="583.31,-105.03 572.76,-104.08 580.42,-111.4 583.31,-105.03"/>
</a>
</g>
</g>
<!-- Node10 -->
<g id="Node000010" class="node">
<title>Node10</title>
<g id="a_Node000010"><a xlink:href="DataTable_8h.html" target="_top" xlink:title=" ">
<polygon fill="white" stroke="#666666" points="850.5,-96.62 740.75,-96.62 740.75,-75.88 850.5,-75.88 850.5,-96.62"/>
<text xml:space="preserve" text-anchor="middle" x="795.62" y="-83.12" font-family="Helvetica,sans-Serif" font-size="10.00">Engine/DataTable.h</text>
</a>
</g>
</g>
<!-- Node1&#45;&gt;Node10 -->
<g id="edge13_Node000001_Node000010" class="edge">
<title>Node1&#45;&gt;Node10</title>
<g id="a_edge13_Node000001_Node000010"><a xlink:title=" ">
<path fill="none" stroke="#63b8ff" d="M742.59,-138.53C754.23,-127.28 767.18,-114.76 777.37,-104.9"/>
<polygon fill="#63b8ff" stroke="#63b8ff" points="779.67,-107.55 784.42,-98.08 774.8,-102.52 779.67,-107.55"/>
</a>
</g>
</g>
<!-- Node16 -->
<g id="Node000016" class="node">
<title>Node16</title>
<g id="a_Node000016"><a xlink:title=" ">
<polygon fill="#e0e0e0" stroke="#999999" points="1136.38,-103 980.88,-103 980.88,-69.5 1136.38,-69.5 1136.38,-103"/>
<text xml:space="preserve" text-anchor="start" x="988.88" y="-89.5" font-family="Helvetica,sans-Serif" font-size="10.00">Blueprint/BlueprintException</text>
<text xml:space="preserve" text-anchor="middle" x="1058.62" y="-76.75" font-family="Helvetica,sans-Serif" font-size="10.00">Info.h</text>
</a>
</g>
</g>
<!-- Node1&#45;&gt;Node16 -->
<g id="edge22_Node000001_Node000016" class="edge">
<title>Node1&#45;&gt;Node16</title>
<g id="a_edge22_Node000001_Node000016"><a xlink:title=" ">
<path fill="none" stroke="#63b8ff" d="M788.13,-149.99C844.05,-137.02 920.16,-119.37 977.4,-106.09"/>
<polygon fill="#63b8ff" stroke="#63b8ff" points="978.16,-109.51 987.11,-103.84 976.58,-102.69 978.16,-109.51"/>
</a>
</g>
</g>
<!-- Node17 -->
<g id="Node000017" class="node">
<title>Node17</title>
<g id="a_Node000017"><a xlink:title=" ">
<polygon fill="#e0e0e0" stroke="#999999" points="1354.5,-96.62 1154.75,-96.62 1154.75,-75.88 1354.5,-75.88 1354.5,-96.62"/>
<text xml:space="preserve" text-anchor="middle" x="1254.62" y="-83.12" font-family="Helvetica,sans-Serif" font-size="10.00">DataTableFunctionLibrary.generated.h</text>
</a>
</g>
</g>
<!-- Node1&#45;&gt;Node17 -->
<g id="edge23_Node000001_Node000017" class="edge">
<title>Node1&#45;&gt;Node17</title>
<g id="a_edge23_Node000001_Node000017"><a xlink:title=" ">
<path fill="none" stroke="#63b8ff" d="M787.99,-156.34C890.46,-141.17 1072.84,-114.17 1176.65,-98.79"/>
<polygon fill="#63b8ff" stroke="#63b8ff" points="1177.11,-102.27 1186.49,-97.34 1176.08,-95.34 1177.11,-102.27"/>
</a>
</g>
</g>
<!-- Node7&#45;&gt;Node2 -->
<g id="edge7_Node000007_Node000002" class="edge">
<title>Node7&#45;&gt;Node2</title>
<g id="a_edge7_Node000007_Node000002"><a xlink:title=" ">
<path fill="none" stroke="#63b8ff" d="M465.66,-80.86C378.34,-74.5 224.76,-60.43 95.62,-33.5 91.77,-32.7 87.79,-31.73 83.82,-30.69"/>
<polygon fill="#63b8ff" stroke="#63b8ff" points="84.85,-27.34 74.27,-27.99 82.94,-34.08 84.85,-27.34"/>
</a>
</g>
</g>
<!-- Node7&#45;&gt;Node4 -->
<g id="edge8_Node000007_Node000004" class="edge">
<title>Node7&#45;&gt;Node4</title>
<g id="a_edge8_Node000007_Node000004"><a xlink:title=" ">
<path fill="none" stroke="#63b8ff" d="M499.7,-69.08C474.74,-57.85 441.78,-43.02 417.71,-32.19"/>
<polygon fill="#63b8ff" stroke="#63b8ff" points="419.27,-29.05 408.72,-28.14 416.4,-35.44 419.27,-29.05"/>
</a>
</g>
</g>
<!-- Node7&#45;&gt;Node5 -->
<g id="edge10_Node000007_Node000005" class="edge">
<title>Node7&#45;&gt;Node5</title>
<g id="a_edge10_Node000007_Node000005"><a xlink:title=" ">
<path fill="none" stroke="#63b8ff" d="M597.9,-69.08C643.45,-57.26 704.39,-41.44 746.52,-30.5"/>
<polygon fill="#63b8ff" stroke="#63b8ff" points="747.34,-33.9 756.14,-28 745.59,-27.13 747.34,-33.9"/>
</a>
</g>
</g>
<!-- Node7&#45;&gt;Node6 -->
<g id="edge11_Node000007_Node000006" class="edge">
<title>Node7&#45;&gt;Node6</title>
<g id="a_edge11_Node000007_Node000006"><a xlink:title=" ">
<path fill="none" stroke="#63b8ff" d="M535.62,-69.25C535.62,-60.15 535.62,-48.64 535.62,-38.82"/>
<polygon fill="#63b8ff" stroke="#63b8ff" points="539.13,-39.09 535.63,-29.09 532.13,-39.09 539.13,-39.09"/>
</a>
</g>
</g>
<!-- Node8 -->
<g id="Node000008" class="node">
<title>Node8</title>
<g id="a_Node000008"><a xlink:title=" ">
<polygon fill="#e0e0e0" stroke="#999999" points="716.88,-27.12 618.38,-27.12 618.38,-6.38 716.88,-6.38 716.88,-27.12"/>
<text xml:space="preserve" text-anchor="middle" x="667.62" y="-13.62" font-family="Helvetica,sans-Serif" font-size="10.00">UObject/Object.h</text>
</a>
</g>
</g>
<!-- Node7&#45;&gt;Node8 -->
<g id="edge9_Node000007_Node000008" class="edge">
<title>Node7&#45;&gt;Node8</title>
<g id="a_edge9_Node000007_Node000008"><a xlink:title=" ">
<path fill="none" stroke="#63b8ff" d="M567.24,-69.08C588.9,-58 617.42,-43.42 638.53,-32.63"/>
<polygon fill="#63b8ff" stroke="#63b8ff" points="639.86,-35.88 647.17,-28.21 636.67,-29.65 639.86,-35.88"/>
</a>
</g>
</g>
<!-- Node9 -->
<g id="Node000009" class="node">
<title>Node9</title>
<g id="a_Node000009"><a xlink:title=" ">
<polygon fill="#e0e0e0" stroke="#999999" points="300.25,-27.12 105,-27.12 105,-6.38 300.25,-6.38 300.25,-27.12"/>
<text xml:space="preserve" text-anchor="middle" x="202.62" y="-13.62" font-family="Helvetica,sans-Serif" font-size="10.00">BlueprintFunctionLibrary.generated.h</text>
</a>
</g>
</g>
<!-- Node7&#45;&gt;Node9 -->
<g id="edge12_Node000007_Node000009" class="edge">
<title>Node7&#45;&gt;Node9</title>
<g id="a_edge12_Node000007_Node000009"><a xlink:title=" ">
<path fill="none" stroke="#63b8ff" d="M465.82,-71.1C405.56,-58.89 319.45,-41.43 262.34,-29.85"/>
<polygon fill="#63b8ff" stroke="#63b8ff" points="263.3,-26.48 252.81,-27.92 261.91,-33.34 263.3,-26.48"/>
</a>
</g>
</g>
<!-- Node10&#45;&gt;Node4 -->
<g id="edge14_Node000010_Node000004" class="edge">
<title>Node10&#45;&gt;Node4</title>
<g id="a_edge14_Node000010_Node000004"><a xlink:title=" ">
<path fill="none" stroke="#63b8ff" d="M740.52,-77.58C674.19,-68.16 559.49,-51.21 461.62,-33.5 455.34,-32.36 448.78,-31.11 442.25,-29.81"/>
<polygon fill="#63b8ff" stroke="#63b8ff" points="443.35,-26.46 432.85,-27.92 441.96,-33.33 443.35,-26.46"/>
</a>
</g>
</g>
<!-- Node10&#45;&gt;Node5 -->
<g id="edge17_Node000010_Node000005" class="edge">
<title>Node10&#45;&gt;Node5</title>
<g id="a_edge17_Node000010_Node000005"><a xlink:title=" ">
<path fill="none" stroke="#63b8ff" d="M795.62,-75.58C795.62,-65.96 795.62,-50.88 795.62,-38.54"/>
<polygon fill="#63b8ff" stroke="#63b8ff" points="799.13,-38.92 795.63,-28.92 792.13,-38.92 799.13,-38.92"/>
</a>
</g>
</g>
<!-- Node10&#45;&gt;Node8 -->
<g id="edge15_Node000010_Node000008" class="edge">
<title>Node10&#45;&gt;Node8</title>
<g id="a_edge15_Node000010_Node000008"><a xlink:title=" ">
<path fill="none" stroke="#63b8ff" d="M777.01,-75.43C755.78,-64.24 720.81,-45.8 696.13,-32.78"/>
<polygon fill="#63b8ff" stroke="#63b8ff" points="698.08,-29.85 687.6,-28.28 694.81,-36.04 698.08,-29.85"/>
</a>
</g>
</g>
<!-- Node11 -->
<g id="Node000011" class="node">
<title>Node11</title>
<g id="a_Node000011"><a xlink:title=" ">
<polygon fill="#e0e0e0" stroke="#999999" points="1382.25,-27.12 1289,-27.12 1289,-6.38 1382.25,-6.38 1382.25,-27.12"/>
<text xml:space="preserve" text-anchor="middle" x="1335.62" y="-13.62" font-family="Helvetica,sans-Serif" font-size="10.00">UObject/Class.h</text>
</a>
</g>
</g>
<!-- Node10&#45;&gt;Node11 -->
<g id="edge16_Node000010_Node000011" class="edge">
<title>Node10&#45;&gt;Node11</title>
<g id="a_edge16_Node000010_Node000011"><a xlink:title=" ">
<path fill="none" stroke="#63b8ff" d="M831.3,-75.43C840.47,-73.19 850.37,-71.03 859.62,-69.5 1044.48,-39.02 1095.3,-67.01 1279.62,-33.5 1284.26,-32.66 1289.07,-31.6 1293.84,-30.43"/>
<polygon fill="#63b8ff" stroke="#63b8ff" points="1294.52,-33.87 1303.3,-27.94 1292.74,-27.1 1294.52,-33.87"/>
</a>
</g>
</g>
<!-- Node12 -->
<g id="Node000012" class="node">
<title>Node12</title>
<g id="a_Node000012"><a xlink:title=" ">
<polygon fill="#e0e0e0" stroke="#999999" points="1554.62,-27.12 1400.62,-27.12 1400.62,-6.38 1554.62,-6.38 1554.62,-27.12"/>
<text xml:space="preserve" text-anchor="middle" x="1477.62" y="-13.62" font-family="Helvetica,sans-Serif" font-size="10.00">UObject/PropertyPortFlags.h</text>
</a>
</g>
</g>
<!-- Node10&#45;&gt;Node12 -->
<g id="edge18_Node000010_Node000012" class="edge">
<title>Node10&#45;&gt;Node12</title>
<g id="a_edge18_Node000010_Node000012"><a xlink:title=" ">
<path fill="none" stroke="#63b8ff" d="M830.95,-75.39C840.21,-73.13 850.24,-70.96 859.62,-69.5 1093.79,-33.05 1156.47,-62.89 1391.62,-33.5 1400.31,-32.41 1409.44,-31.02 1418.39,-29.51"/>
<polygon fill="#63b8ff" stroke="#63b8ff" points="1418.82,-32.98 1428.07,-27.81 1417.61,-26.09 1418.82,-32.98"/>
</a>
</g>
</g>
<!-- Node13 -->
<g id="Node000013" class="node">
<title>Node13</title>
<g id="a_Node000013"><a xlink:title=" ">
<polygon fill="#e0e0e0" stroke="#999999" points="1012.38,-33.5 874.88,-33.5 874.88,0 1012.38,0 1012.38,-33.5"/>
<text xml:space="preserve" text-anchor="start" x="882.88" y="-20" font-family="Helvetica,sans-Serif" font-size="10.00">Misc/TransactionallySafe</text>
<text xml:space="preserve" text-anchor="middle" x="943.62" y="-7.25" font-family="Helvetica,sans-Serif" font-size="10.00">CriticalSection.h</text>
</a>
</g>
</g>
<!-- Node10&#45;&gt;Node13 -->
<g id="edge19_Node000010_Node000013" class="edge">
<title>Node10&#45;&gt;Node13</title>
<g id="a_edge19_Node000010_Node000013"><a xlink:title=" ">
<path fill="none" stroke="#63b8ff" d="M817.15,-75.43C838.17,-65.85 870.83,-50.95 897.69,-38.7"/>
<polygon fill="#63b8ff" stroke="#63b8ff" points="899.02,-41.94 906.67,-34.61 896.12,-35.57 899.02,-41.94"/>
</a>
</g>
</g>
<!-- Node14 -->
<g id="Node000014" class="node">
<title>Node14</title>
<g id="a_Node000014"><a xlink:title=" ">
<polygon fill="#e0e0e0" stroke="#999999" points="1126.75,-27.12 1030.5,-27.12 1030.5,-6.38 1126.75,-6.38 1126.75,-27.12"/>
<text xml:space="preserve" text-anchor="middle" x="1078.62" y="-13.62" font-family="Helvetica,sans-Serif" font-size="10.00">DataTableUtils.h</text>
</a>
</g>
</g>
<!-- Node10&#45;&gt;Node14 -->
<g id="edge20_Node000010_Node000014" class="edge">
<title>Node10&#45;&gt;Node14</title>
<g id="a_edge20_Node000010_Node000014"><a xlink:title=" ">
<path fill="none" stroke="#63b8ff" d="M834.85,-75.45C843.03,-73.45 851.6,-71.38 859.62,-69.5 931.44,-52.69 950.06,-51.33 1021.62,-33.5 1025.37,-32.57 1029.25,-31.57 1033.14,-30.54"/>
<polygon fill="#63b8ff" stroke="#63b8ff" points="1033.83,-33.98 1042.57,-28 1032.01,-27.22 1033.83,-33.98"/>
</a>
</g>
</g>
<!-- Node15 -->
<g id="Node000015" class="node">
<title>Node15</title>
<g id="a_Node000015"><a xlink:title=" ">
<polygon fill="#e0e0e0" stroke="#999999" points="1270.75,-27.12 1144.5,-27.12 1144.5,-6.38 1270.75,-6.38 1270.75,-27.12"/>
<text xml:space="preserve" text-anchor="middle" x="1207.62" y="-13.62" font-family="Helvetica,sans-Serif" font-size="10.00">DataTable.generated.h</text>
</a>
</g>
</g>
<!-- Node10&#45;&gt;Node15 -->
<g id="edge21_Node000010_Node000015" class="edge">
<title>Node10&#45;&gt;Node15</title>
<g id="a_edge21_Node000010_Node000015"><a xlink:title=" ">
<path fill="none" stroke="#63b8ff" d="M832.7,-75.38C841.48,-73.25 850.85,-71.15 859.62,-69.5 981.21,-46.68 1013.76,-54.74 1135.62,-33.5 1141.69,-32.44 1148.02,-31.23 1154.3,-29.95"/>
<polygon fill="#63b8ff" stroke="#63b8ff" points="1154.94,-33.39 1164,-27.91 1153.5,-26.54 1154.94,-33.39"/>
</a>
</g>
</g>
</g>
</svg>

<g id="navigator" transform="translate(0 0)" fill="#404254">
  <rect fill="#f2f5e9" fill-opacity="0.5" stroke="#606060" stroke-width=".5" x="0" y="0" width="60" height="60"/>
  <use id="zoomplus" xlink:href="#zoomPlus" x="17" y="9" onmousedown="handleZoom(evt,'in')"/>
  <use id="zoomminus" xlink:href="#zoomMin" x="42" y="9" onmousedown="handleZoom(evt,'out')"/>
  <use id="reset" xlink:href="#resetDef" x="30" y="36" onmousedown="handleReset()"/>
   <use id="arrowup" xlink:href="#arrowUp" x="0" y="0" onmousedown="handlePan(0,-1)"/>
  <use id="arrowright" xlink:href="#arrowRight" x="0" y="0" onmousedown="handlePan(1,0)"/>
  <use id="arrowdown" xlink:href="#arrowDown" x="0" y="0" onmousedown="handlePan(0,1)"/>
  <use id="arrowleft" xlink:href="#arrowLeft" x="0" y="0" onmousedown="handlePan(-1,0)"/>
</g>
<svg viewBox="0 0 15 15" width="100%" height="30px" preserveAspectRatio="xMaxYMin meet">
 <g id="arrow_out" transform="scale(0.3 0.3)">
  <a xlink:href="DataTableFunctionLibrary_8h__incl_org.svg" target="_base">
   <rect id="button" ry="5" rx="5" y="6" x="6" height="38" width="38"
        fill="#f2f5e9" fill-opacity="0.5" stroke="#606060" stroke-width="1.0"/>
   <path id="arrow"
     d="M 11.500037,31.436501 C 11.940474,20.09759 22.043105,11.32322 32.158766,21.979434 L 37.068811,17.246167 C 37.068811,17.246167 37.088388,32 37.088388,32 L 22.160133,31.978069 C 22.160133,31.978069 26.997745,27.140456 26.997745,27.140456 C 18.528582,18.264221 13.291696,25.230495 11.500037,31.436501 z"
     style="fill:#404040;"/>
  </a>
 </g>
</svg>

<style type='text/css'>
<![CDATA[
[data-mouse-over-selected='false'] { opacity: 0.7; }
[data-mouse-over-selected='true']  { opacity: 1.0; }
]]>
</style>
<script type="application/ecmascript"><![CDATA[
document.addEventListener('DOMContentLoaded', (event) => {
  highlightEdges();
  highlightAdjacentNodes();
});
]]></script>
</svg>
