<?xml version="1.0" encoding="UTF-8" standalone="no"?>
<!DOCTYPE svg PUBLIC "-//W3C//DTD SVG 1.1//EN"
 "http://www.w3.org/Graphics/SVG/1.1/DTD/svg11.dtd">
<!-- Generated by graphviz version 14.1.4 (0)
 -->
<!-- Title: /opt/unreal&#45;engine/Engine/Source/Runtime/Engine/Classes/Sound/DialogueTypes.h Pages: 1 -->
<svg width="616pt" height="162pt"
 viewBox="0.00 0.00 616.00 162.00" xmlns="http://www.w3.org/2000/svg" xmlns:xlink="http://www.w3.org/1999/xlink">
<g id="graph0" class="graph" transform="scale(1 1) rotate(0) translate(4 158)">
<title>/opt/unreal&#45;engine/Engine/Source/Runtime/Engine/Classes/Sound/DialogueTypes.h</title>
<!-- Node1 -->
<g id="Node000001" class="node">
<title>Node1</title>
<g id="a_Node000001"><a xlink:title=" ">
<polygon fill="#999999" stroke="#666666" points="357.25,-154 225,-154 225,-95 357.25,-95 357.25,-154"/>
<text xml:space="preserve" text-anchor="start" x="233" y="-140.5" font-family="Helvetica,sans-Serif" font-size="10.00">/opt/unreal&#45;engine</text>
<text xml:space="preserve" text-anchor="start" x="233" y="-127.75" font-family="Helvetica,sans-Serif" font-size="10.00">/Engine/Source/Runtime</text>
<text xml:space="preserve" text-anchor="start" x="233" y="-115" font-family="Helvetica,sans-Serif" font-size="10.00">/Engine/Classes/Sound</text>
<text xml:space="preserve" text-anchor="middle" x="291.12" y="-102.25" font-family="Helvetica,sans-Serif" font-size="10.00">/DialogueTypes.h</text>
</a>
</g>
</g>
<!-- Node2 -->
<g id="Node000002" class="node">
<title>Node2</title>
<g id="a_Node000002"><a xlink:href="$GameplayStatics_8h.html" xlink:title=" ">
<polygon fill="white" stroke="#666666" points="132.25,-59 0,-59 0,0 132.25,0 132.25,-59"/>
<text xml:space="preserve" text-anchor="start" x="8" y="-45.5" font-family="Helvetica,sans-Serif" font-size="10.00">/opt/unreal&#45;engine</text>
<text xml:space="preserve" text-anchor="start" x="8" y="-32.75" font-family="Helvetica,sans-Serif" font-size="10.00">/Engine/Source/Runtime</text>
<text xml:space="preserve" text-anchor="start" x="8" y="-20" font-family="Helvetica,sans-Serif" font-size="10.00">/Engine/Classes/Kismet</text>
<text xml:space="preserve" text-anchor="middle" x="66.12" y="-7.25" font-family="Helvetica,sans-Serif" font-size="10.00">/GameplayStatics.h</text>
</a>
</g>
</g>
<!-- Node1&#45;&gt;Node2 -->
<g id="edge1_Node000001_Node000002" class="edge">
<title>Node1&#45;&gt;Node2</title>
<g id="a_edge1_Node000001_Node000002"><a xlink:title=" ">
<path fill="none" stroke="#63b8ff" d="M214.14,-91.68C187.62,-80.72 158.16,-68.54 132.55,-57.95"/>
<polygon fill="#63b8ff" stroke="#63b8ff" points="212.55,-94.81 223.13,-95.4 215.23,-88.34 212.55,-94.81"/>
</a>
</g>
</g>
<!-- Node3 -->
<g id="Node000003" class="node">
<title>Node3</title>
<g id="a_Node000003"><a xlink:href="$DialogueVoice_8h.html" xlink:title=" ">
<polygon fill="white" stroke="#666666" points="282.25,-59 150,-59 150,0 282.25,0 282.25,-59"/>
<text xml:space="preserve" text-anchor="start" x="158" y="-45.5" font-family="Helvetica,sans-Serif" font-size="10.00">/opt/unreal&#45;engine</text>
<text xml:space="preserve" text-anchor="start" x="158" y="-32.75" font-family="Helvetica,sans-Serif" font-size="10.00">/Engine/Source/Runtime</text>
<text xml:space="preserve" text-anchor="start" x="158" y="-20" font-family="Helvetica,sans-Serif" font-size="10.00">/Engine/Classes/Sound</text>
<text xml:space="preserve" text-anchor="middle" x="216.12" y="-7.25" font-family="Helvetica,sans-Serif" font-size="10.00">/DialogueVoice.h</text>
</a>
</g>
</g>
<!-- Node1&#45;&gt;Node3 -->
<g id="edge2_Node000001_Node000003" class="edge">
<title>Node1&#45;&gt;Node3</title>
<g id="a_edge2_Node000001_Node000003"><a xlink:title=" ">
<path fill="none" stroke="#63b8ff" d="M260.61,-85.66C253.54,-76.9 246.13,-67.71 239.43,-59.4"/>
<polygon fill="#63b8ff" stroke="#63b8ff" points="257.85,-87.82 266.86,-93.41 263.3,-83.42 257.85,-87.82"/>
</a>
</g>
</g>
<!-- Node4 -->
<g id="Node000004" class="node">
<title>Node4</title>
<g id="a_Node000004"><a xlink:href="$DialogueWave_8h.html" xlink:title=" ">
<polygon fill="white" stroke="#666666" points="432.25,-59 300,-59 300,0 432.25,0 432.25,-59"/>
<text xml:space="preserve" text-anchor="start" x="308" y="-45.5" font-family="Helvetica,sans-Serif" font-size="10.00">/opt/unreal&#45;engine</text>
<text xml:space="preserve" text-anchor="start" x="308" y="-32.75" font-family="Helvetica,sans-Serif" font-size="10.00">/Engine/Source/Runtime</text>
<text xml:space="preserve" text-anchor="start" x="308" y="-20" font-family="Helvetica,sans-Serif" font-size="10.00">/Engine/Classes/Sound</text>
<text xml:space="preserve" text-anchor="middle" x="366.12" y="-7.25" font-family="Helvetica,sans-Serif" font-size="10.00">/DialogueWave.h</text>
</a>
</g>
</g>
<!-- Node1&#45;&gt;Node4 -->
<g id="edge3_Node000001_Node000004" class="edge">
<title>Node1&#45;&gt;Node4</title>
<g id="a_edge3_Node000001_Node000004"><a xlink:title=" ">
<path fill="none" stroke="#63b8ff" d="M321.64,-85.66C328.71,-76.9 336.12,-67.71 342.82,-59.4"/>
<polygon fill="#63b8ff" stroke="#63b8ff" points="318.95,-83.42 315.39,-93.41 324.4,-87.82 318.95,-83.42"/>
</a>
</g>
</g>
<!-- Node5 -->
<g id="Node000005" class="node">
<title>Node5</title>
<g id="a_Node000005"><a xlink:href="$SoundNodeDialoguePlayer_8h.html" xlink:title=" ">
<polygon fill="white" stroke="#666666" points="608,-59 450.25,-59 450.25,0 608,0 608,-59"/>
<text xml:space="preserve" text-anchor="start" x="458.25" y="-45.5" font-family="Helvetica,sans-Serif" font-size="10.00">/opt/unreal&#45;engine</text>
<text xml:space="preserve" text-anchor="start" x="458.25" y="-32.75" font-family="Helvetica,sans-Serif" font-size="10.00">/Engine/Source/Runtime</text>
<text xml:space="preserve" text-anchor="start" x="458.25" y="-20" font-family="Helvetica,sans-Serif" font-size="10.00">/Engine/Classes/Sound</text>
<text xml:space="preserve" text-anchor="middle" x="529.12" y="-7.25" font-family="Helvetica,sans-Serif" font-size="10.00">/SoundNodeDialoguePlayer.h</text>
</a>
</g>
</g>
<!-- Node1&#45;&gt;Node5 -->
<g id="edge4_Node000001_Node000005" class="edge">
<title>Node1&#45;&gt;Node5</title>
<g id="a_edge4_Node000001_Node000005"><a xlink:title=" ">
<path fill="none" stroke="#63b8ff" d="M368.22,-93.37C396.06,-82.49 427.41,-70.24 455,-59.47"/>
<polygon fill="#63b8ff" stroke="#63b8ff" points="367.19,-90.02 359.15,-96.92 369.74,-96.54 367.19,-90.02"/>
</a>
</g>
</g>
</g>
</svg>
