<?xml version="1.0" encoding="UTF-8" standalone="no"?>
<!DOCTYPE svg PUBLIC "-//W3C//DTD SVG 1.1//EN"
 "http://www.w3.org/Graphics/SVG/1.1/DTD/svg11.dtd">
<!-- Generated by graphviz version 14.1.4 (0)
 -->
<!-- Title: Source/Tower/Private Pages: 1 -->
<!--zoomable 146 -->

<svg id="main" version="1.1" xmlns="http://www.w3.org/2000/svg" xmlns:xlink="http://www.w3.org/1999/xlink" xml:space="preserve" onload="init(evt)">

<style type="text/css"><![CDATA[
.node, .edge {opacity: 0.7;}
.node.selected, .edge.selected {opacity: 1;}
.edge:hover path { stroke: red; }
.edge:hover polygon { stroke: red; fill: red; }
]]></style>

<defs>
  <circle id="rim" cx="0" cy="0" r="7"/>
  <circle id="rim2" cx="0" cy="0" r="3.5"/>
  <g id="zoomPlus">
    <use xlink:href="#rim" fill="#404040"><set attributeName="fill" to="#808080" begin="zoomplus.mouseover" end="zoomplus.mouseout"/></use>
    <path d="M-4,0h8M0,-4v8" fill="none" stroke="white" stroke-width="1.5" pointer-events="none"/>
  </g>
  <g id="zoomMin">
    <use xlink:href="#rim" fill="#404040"><set attributeName="fill" to="#808080" begin="zoomminus.mouseover" end="zoomminus.mouseout"/></use>
    <path d="M-4,0h8" fill="none" stroke="white" stroke-width="1.5" pointer-events="none"/>
  </g>
  <g id="arrowUp" transform="translate(30 24)">
    <use xlink:href="#rim"/>
    <path pointer-events="none" fill="none" stroke="white" stroke-width="1.5" d="M0,-3.0v7 M-2.5,-0.5L0,-3.0L2.5,-0.5"/>
  </g>
  <g id="arrowRight" transform="rotate(90) translate(36 -43)">
    <use xlink:href="#rim"/>
    <path pointer-events="none" fill="none" stroke="white" stroke-width="1.5" d="M0,-3.0v7 M-2.5,-0.5L0,-3.0L2.5,-0.5"/>
  </g>
  <g id="arrowDown" transform="rotate(180) translate(-30 -48)">
    <use xlink:href="#rim"/>
    <path pointer-events="none" fill="none" stroke="white" stroke-width="1.5" d="M0,-3.0v7 M-2.5,-0.5L0,-3.0L2.5,-0.5"/>
  </g>
  <g id="arrowLeft" transform="rotate(270) translate(-36 17)">
    <use xlink:href="#rim"/>
    <path pointer-events="none" fill="none" stroke="white" stroke-width="1.5" d="M0,-3.0v7 M-2.5,-0.5L0,-3.0L2.5,-0.5"/>
  </g>
  <g id="resetDef">
    <use xlink:href="#rim2" fill="#404040"><set attributeName="fill" to="#808080" begin="reset.mouseover" end="reset.mouseout"/></use>
  </g>
</defs>
<script type="application/ecmascript">
var viewWidth = 568;
var viewHeight = 146;
var sectionId = 'dynsection-0';
</script>
<script type="application/ecmascript" xlink:href="svg.min.js"/>
<svg id="graph" class="graph">
<g id="viewport">
<title>Source/Tower/Private</title>
<g id="clust1" class="cluster">
<title>clusterdir_c741984e83f6fd1cd753aca68f0e9841</title>
<g id="a_clust1"><a xlink:href="dir_c741984e83f6fd1cd753aca68f0e9841.html" target="_top" xlink:title="Tower">
<polygon fill="#edf0f7" stroke="#7f7f7f" stroke-dasharray="5,2" points="8,-8 8,-130.25 520,-130.25 520,-8 8,-8"/>
<text xml:space="preserve" text-anchor="middle" x="264" y="-116.75" font-family="Helvetica,sans-Serif" font-size="10.00">Tower</text>
</a>
</g>
</g>
<g id="clust2" class="cluster">
<title>clusterdir_9db33ce12b825608c80f8c18be10da08</title>
<g id="a_clust2"><a xlink:href="dir_9db33ce12b825608c80f8c18be10da08.html" target="_top">
<polygon fill="#edf0f7" stroke="#404040" stroke-width="2" points="16,-64.75 16,-101.5 512,-101.5 512,-64.75 16,-64.75"/>
</a>
</g>
</g>
<!-- dir_94a85361d2a461d600741464eb85c864 -->
<g id="node1" class="node">
<title>dir_94a85361d2a461d600741464eb85c864</title>
<g id="a_node1"><a xlink:href="dir_94a85361d2a461d600741464eb85c864.html" target="_top" xlink:title="Public">
<polygon fill="#a2b4d6" stroke="red" points="349.62,-36.75 304.38,-36.75 304.38,-16 349.62,-16 349.62,-36.75"/>
<text xml:space="preserve" text-anchor="middle" x="327" y="-23.25" font-family="Helvetica,sans-Serif" font-size="10.00">Public</text>
</a>
</g>
</g>
<!-- dir_9db33ce12b825608c80f8c18be10da08 -->
<g id="node2" class="node">
<title>dir_9db33ce12b825608c80f8c18be10da08</title>
<text xml:space="preserve" text-anchor="middle" x="49" y="-80" font-family="Helvetica,sans-Serif" font-size="10.00">Private</text>
</g>
<!-- dir_892fc137919b851460d7866c578676fd -->
<g id="node3" class="node">
<title>dir_892fc137919b851460d7866c578676fd</title>
<g id="a_node3"><a xlink:href="dir_892fc137919b851460d7866c578676fd.html" target="_top" xlink:title="Actor">
<polygon fill="#a2b4d6" stroke="#404040" points="376.75,-93.5 335.25,-93.5 335.25,-72.75 376.75,-72.75 376.75,-93.5"/>
<text xml:space="preserve" text-anchor="middle" x="356" y="-80" font-family="Helvetica,sans-Serif" font-size="10.00">Actor</text>
</a>
</g>
</g>
<!-- dir_892fc137919b851460d7866c578676fd&#45;&gt;dir_94a85361d2a461d600741464eb85c864 -->
<g id="edge1" class="edge">
<title>dir_892fc137919b851460d7866c578676fd&#45;&gt;dir_94a85361d2a461d600741464eb85c864</title>
<g id="a_edge1"><a xlink:href="dir_000001_000069.html" target="_top">
<path fill="none" stroke="#63b8ff" d="M350.82,-72.34C347.1,-65.33 341.98,-55.66 337.44,-47.08"/>
<polygon fill="#63b8ff" stroke="#63b8ff" points="340.62,-45.61 332.85,-38.42 334.44,-48.89 340.62,-45.61"/>
</a>
</g>
<g id="a_edge1&#45;headlabel"><a xlink:href="dir_000001_000069.html" target="_top" xlink:title="18">
<text xml:space="preserve" text-anchor="middle" x="344.1" y="-43" font-family="Helvetica,sans-Serif" font-size="10.00" fill="#63b8ff">18</text>
</a>
</g>
</g>
<!-- dir_a5c23e4d4d2f2652fc21caa9afd4c5c7 -->
<g id="node9" class="node">
<title>dir_a5c23e4d4d2f2652fc21caa9afd4c5c7</title>
<g id="a_node9"><a xlink:href="dir_a5c23e4d4d2f2652fc21caa9afd4c5c7.html" target="_top" xlink:title="opt">
<polygon fill="#edf0f7" stroke="red" points="559.88,-36.75 528.12,-36.75 528.12,-16 559.88,-16 559.88,-36.75"/>
<text xml:space="preserve" text-anchor="middle" x="544" y="-23.25" font-family="Helvetica,sans-Serif" font-size="10.00">opt</text>
</a>
</g>
</g>
<!-- dir_892fc137919b851460d7866c578676fd&#45;&gt;dir_a5c23e4d4d2f2652fc21caa9afd4c5c7 -->
<g id="edge2" class="edge">
<title>dir_892fc137919b851460d7866c578676fd&#45;&gt;dir_a5c23e4d4d2f2652fc21caa9afd4c5c7</title>
<g id="a_edge2"><a xlink:href="dir_000001_000055.html" target="_top">
<path fill="none" stroke="#63b8ff" d="M370.26,-72.27C374.8,-69.49 379.96,-66.7 385,-64.75 440.33,-43.34 461.63,-54.92 517.19,-38.66"/>
<polygon fill="#63b8ff" stroke="#63b8ff" points="518.04,-42.06 526.54,-35.74 515.95,-35.38 518.04,-42.06"/>
</a>
</g>
<g id="a_edge2&#45;headlabel"><a xlink:href="dir_000001_000055.html" target="_top" xlink:title="17">
<text xml:space="preserve" text-anchor="middle" x="516.9" y="-42.27" font-family="Helvetica,sans-Serif" font-size="10.00" fill="#63b8ff">17</text>
</a>
</g>
</g>
<!-- dir_1ac79d0482d4e2dffdfee99f44a2e06e -->
<g id="node4" class="node">
<title>dir_1ac79d0482d4e2dffdfee99f44a2e06e</title>
<g id="a_node4"><a xlink:href="dir_1ac79d0482d4e2dffdfee99f44a2e06e.html" target="_top" xlink:title="Data">
<polygon fill="#a2b4d6" stroke="#404040" points="317.62,-93.5 278.38,-93.5 278.38,-72.75 317.62,-72.75 317.62,-93.5"/>
<text xml:space="preserve" text-anchor="middle" x="298" y="-80" font-family="Helvetica,sans-Serif" font-size="10.00">Data</text>
</a>
</g>
</g>
<!-- dir_1ac79d0482d4e2dffdfee99f44a2e06e&#45;&gt;dir_94a85361d2a461d600741464eb85c864 -->
<g id="edge3" class="edge">
<title>dir_1ac79d0482d4e2dffdfee99f44a2e06e&#45;&gt;dir_94a85361d2a461d600741464eb85c864</title>
<g id="a_edge3"><a xlink:href="dir_000019_000069.html" target="_top">
<path fill="none" stroke="#63b8ff" d="M303.18,-72.34C306.9,-65.33 312.02,-55.66 316.56,-47.08"/>
<polygon fill="#63b8ff" stroke="#63b8ff" points="319.56,-48.89 321.15,-38.42 313.38,-45.61 319.56,-48.89"/>
</a>
</g>
<g id="a_edge3&#45;headlabel"><a xlink:href="dir_000019_000069.html" target="_top" xlink:title="1">
<text xml:space="preserve" text-anchor="middle" x="321.1" y="-48.93" font-family="Helvetica,sans-Serif" font-size="10.00" fill="#63b8ff">1</text>
</a>
</g>
</g>
<!-- dir_1b3cf1837999b948b6bc939057cf17c0 -->
<g id="node5" class="node">
<title>dir_1b3cf1837999b948b6bc939057cf17c0</title>
<g id="a_node5"><a xlink:href="dir_1b3cf1837999b948b6bc939057cf17c0.html" target="_top" xlink:title="Game">
<polygon fill="#a2b4d6" stroke="#404040" points="439.62,-93.5 394.38,-93.5 394.38,-72.75 439.62,-72.75 439.62,-93.5"/>
<text xml:space="preserve" text-anchor="middle" x="417" y="-80" font-family="Helvetica,sans-Serif" font-size="10.00">Game</text>
</a>
</g>
</g>
<!-- dir_1b3cf1837999b948b6bc939057cf17c0&#45;&gt;dir_94a85361d2a461d600741464eb85c864 -->
<g id="edge4" class="edge">
<title>dir_1b3cf1837999b948b6bc939057cf17c0&#45;&gt;dir_94a85361d2a461d600741464eb85c864</title>
<g id="a_edge4"><a xlink:href="dir_000035_000069.html" target="_top">
<path fill="none" stroke="#63b8ff" d="M400.91,-72.34C387.47,-64.16 368.07,-52.36 352.51,-42.9"/>
<polygon fill="#63b8ff" stroke="#63b8ff" points="354.61,-40.07 344.24,-37.87 350.97,-46.05 354.61,-40.07"/>
</a>
</g>
<g id="a_edge4&#45;headlabel"><a xlink:href="dir_000035_000069.html" target="_top" xlink:title="4">
<text xml:space="preserve" text-anchor="middle" x="357.86" y="-35.6" font-family="Helvetica,sans-Serif" font-size="10.00" fill="#63b8ff">4</text>
</a>
</g>
</g>
<!-- dir_1b3cf1837999b948b6bc939057cf17c0&#45;&gt;dir_a5c23e4d4d2f2652fc21caa9afd4c5c7 -->
<g id="edge5" class="edge">
<title>dir_1b3cf1837999b948b6bc939057cf17c0&#45;&gt;dir_a5c23e4d4d2f2652fc21caa9afd4c5c7</title>
<g id="a_edge5"><a xlink:href="dir_000035_000055.html" target="_top">
<path fill="none" stroke="#63b8ff" d="M434.05,-72.3C438.82,-69.7 444.05,-67 449,-64.75 478.09,-51.5 488.97,-50.58 517.49,-39.31"/>
<polygon fill="#63b8ff" stroke="#63b8ff" points="518.56,-42.66 526.49,-35.63 515.91,-36.18 518.56,-42.66"/>
</a>
</g>
<g id="a_edge5&#45;headlabel"><a xlink:href="dir_000035_000055.html" target="_top" xlink:title="2">
<text xml:space="preserve" text-anchor="middle" x="517.71" y="-42.95" font-family="Helvetica,sans-Serif" font-size="10.00" fill="#63b8ff">2</text>
</a>
</g>
</g>
<!-- dir_44559aeb7c336e3e23dd7f1cf23bb2c0 -->
<g id="node6" class="node">
<title>dir_44559aeb7c336e3e23dd7f1cf23bb2c0</title>
<g id="a_node6"><a xlink:href="dir_44559aeb7c336e3e23dd7f1cf23bb2c0.html" target="_top" xlink:title="Interaction">
<polygon fill="#a2b4d6" stroke="#404040" points="260.25,-93.5 191.75,-93.5 191.75,-72.75 260.25,-72.75 260.25,-93.5"/>
<text xml:space="preserve" text-anchor="middle" x="226" y="-80" font-family="Helvetica,sans-Serif" font-size="10.00">Interaction</text>
</a>
</g>
</g>
<!-- dir_44559aeb7c336e3e23dd7f1cf23bb2c0&#45;&gt;dir_94a85361d2a461d600741464eb85c864 -->
<g id="edge6" class="edge">
<title>dir_44559aeb7c336e3e23dd7f1cf23bb2c0&#45;&gt;dir_94a85361d2a461d600741464eb85c864</title>
<g id="a_edge6"><a xlink:href="dir_000039_000069.html" target="_top">
<path fill="none" stroke="#63b8ff" d="M244.06,-72.34C259.42,-64.01 281.74,-51.91 299.36,-42.36"/>
<polygon fill="#63b8ff" stroke="#63b8ff" points="300.65,-45.64 307.77,-37.8 297.31,-39.49 300.65,-45.64"/>
</a>
</g>
<g id="a_edge6&#45;headlabel"><a xlink:href="dir_000039_000069.html" target="_top" xlink:title="3">
<text xml:space="preserve" text-anchor="middle" x="300.17" y="-46.01" font-family="Helvetica,sans-Serif" font-size="10.00" fill="#63b8ff">3</text>
</a>
</g>
</g>
<!-- dir_83f75f38f4314c780cd8ab258917befb -->
<g id="node7" class="node">
<title>dir_83f75f38f4314c780cd8ab258917befb</title>
<g id="a_node7"><a xlink:href="dir_83f75f38f4314c780cd8ab258917befb.html" target="_top" xlink:title="Player">
<polygon fill="#a2b4d6" stroke="#404040" points="504.38,-93.5 457.62,-93.5 457.62,-72.75 504.38,-72.75 504.38,-93.5"/>
<text xml:space="preserve" text-anchor="middle" x="481" y="-80" font-family="Helvetica,sans-Serif" font-size="10.00">Player</text>
</a>
</g>
</g>
<!-- dir_83f75f38f4314c780cd8ab258917befb&#45;&gt;dir_94a85361d2a461d600741464eb85c864 -->
<g id="edge7" class="edge">
<title>dir_83f75f38f4314c780cd8ab258917befb&#45;&gt;dir_94a85361d2a461d600741464eb85c864</title>
<g id="a_edge7"><a xlink:href="dir_000064_000069.html" target="_top">
<path fill="none" stroke="#63b8ff" d="M464.37,-72.28C459.51,-69.63 454.13,-66.9 449,-64.75 420.08,-52.61 385.83,-42.47 361,-35.83"/>
<polygon fill="#63b8ff" stroke="#63b8ff" points="361.99,-32.47 351.43,-33.32 360.22,-39.24 361.99,-32.47"/>
</a>
</g>
<g id="a_edge7&#45;headlabel"><a xlink:href="dir_000064_000069.html" target="_top" xlink:title="10">
<text xml:space="preserve" text-anchor="middle" x="364.72" y="-27.12" font-family="Helvetica,sans-Serif" font-size="10.00" fill="#63b8ff">10</text>
</a>
</g>
</g>
<!-- dir_83f75f38f4314c780cd8ab258917befb&#45;&gt;dir_a5c23e4d4d2f2652fc21caa9afd4c5c7 -->
<g id="edge8" class="edge">
<title>dir_83f75f38f4314c780cd8ab258917befb&#45;&gt;dir_a5c23e4d4d2f2652fc21caa9afd4c5c7</title>
<g id="a_edge8"><a xlink:href="dir_000064_000055.html" target="_top">
<path fill="none" stroke="#63b8ff" d="M492.26,-72.34C501.13,-64.63 513.71,-53.7 524.25,-44.54"/>
<polygon fill="#63b8ff" stroke="#63b8ff" points="526.44,-47.27 531.69,-38.07 521.85,-41.99 526.44,-47.27"/>
</a>
</g>
<g id="a_edge8&#45;headlabel"><a xlink:href="dir_000064_000055.html" target="_top" xlink:title="6">
<text xml:space="preserve" text-anchor="middle" x="526.73" y="-47.66" font-family="Helvetica,sans-Serif" font-size="10.00" fill="#63b8ff">6</text>
</a>
</g>
</g>
<!-- dir_7e8432d820685d42cd083f2b430ed039 -->
<g id="node8" class="node">
<title>dir_7e8432d820685d42cd083f2b430ed039</title>
<g id="a_node8"><a xlink:href="dir_7e8432d820685d42cd083f2b430ed039.html" target="_top" xlink:title="UserInterface">
<polygon fill="#a2b4d6" stroke="#404040" points="174,-93.5 92,-93.5 92,-72.75 174,-72.75 174,-93.5"/>
<text xml:space="preserve" text-anchor="middle" x="133" y="-80" font-family="Helvetica,sans-Serif" font-size="10.00">UserInterface</text>
</a>
</g>
</g>
<!-- dir_7e8432d820685d42cd083f2b430ed039&#45;&gt;dir_94a85361d2a461d600741464eb85c864 -->
<g id="edge9" class="edge">
<title>dir_7e8432d820685d42cd083f2b430ed039&#45;&gt;dir_94a85361d2a461d600741464eb85c864</title>
<g id="a_edge9"><a xlink:href="dir_000086_000069.html" target="_top">
<path fill="none" stroke="#63b8ff" d="M160.12,-72.26C167.5,-69.69 175.52,-67.02 183,-64.75 220.32,-53.44 263.7,-42.48 293.01,-35.38"/>
<polygon fill="#63b8ff" stroke="#63b8ff" points="293.52,-38.86 302.42,-33.12 291.88,-32.05 293.52,-38.86"/>
</a>
</g>
<g id="a_edge9&#45;headlabel"><a xlink:href="dir_000086_000069.html" target="_top" xlink:title="2">
<text xml:space="preserve" text-anchor="middle" x="292.16" y="-38.98" font-family="Helvetica,sans-Serif" font-size="10.00" fill="#63b8ff">2</text>
</a>
</g>
</g>
</g>
</svg>

<g id="navigator" transform="translate(0 0)" fill="#404254">
  <rect fill="#f2f5e9" fill-opacity="0.5" stroke="#606060" stroke-width=".5" x="0" y="0" width="60" height="60"/>
  <use id="zoomplus" xlink:href="#zoomPlus" x="17" y="9" onmousedown="handleZoom(evt,'in')"/>
  <use id="zoomminus" xlink:href="#zoomMin" x="42" y="9" onmousedown="handleZoom(evt,'out')"/>
  <use id="reset" xlink:href="#resetDef" x="30" y="36" onmousedown="handleReset()"/>
   <use id="arrowup" xlink:href="#arrowUp" x="0" y="0" onmousedown="handlePan(0,-1)"/>
  <use id="arrowright" xlink:href="#arrowRight" x="0" y="0" onmousedown="handlePan(1,0)"/>
  <use id="arrowdown" xlink:href="#arrowDown" x="0" y="0" onmousedown="handlePan(0,1)"/>
  <use id="arrowleft" xlink:href="#arrowLeft" x="0" y="0" onmousedown="handlePan(-1,0)"/>
</g>
<svg viewBox="0 0 15 15" width="100%" height="30px" preserveAspectRatio="xMaxYMin meet">
 <g id="arrow_out" transform="scale(0.3 0.3)">
  <a xlink:href="dir_9db33ce12b825608c80f8c18be10da08_dep_org.svg" target="_base">
   <rect id="button" ry="5" rx="5" y="6" x="6" height="38" width="38"
        fill="#f2f5e9" fill-opacity="0.5" stroke="#606060" stroke-width="1.0"/>
   <path id="arrow"
     d="M 11.500037,31.436501 C 11.940474,20.09759 22.043105,11.32322 32.158766,21.979434 L 37.068811,17.246167 C 37.068811,17.246167 37.088388,32 37.088388,32 L 22.160133,31.978069 C 22.160133,31.978069 26.997745,27.140456 26.997745,27.140456 C 18.528582,18.264221 13.291696,25.230495 11.500037,31.436501 z"
     style="fill:#404040;"/>
  </a>
 </g>
</svg>

<style type='text/css'>
<![CDATA[
[data-mouse-over-selected='false'] { opacity: 0.7; }
[data-mouse-over-selected='true']  { opacity: 1.0; }
]]>
</style>
<script type="application/ecmascript"><![CDATA[
document.addEventListener('DOMContentLoaded', (event) => {
  highlightEdges();
  highlightAdjacentNodes();
});
]]></script>
</svg>
