<?xml version="1.0" encoding="UTF-8" standalone="no"?>
<!DOCTYPE svg PUBLIC "-//W3C//DTD SVG 1.1//EN"
 "http://www.w3.org/Graphics/SVG/1.1/DTD/svg11.dtd">
<!-- Generated by graphviz version 14.1.4 (0)
 -->
<!-- Title: /opt/unreal&#45;engine/Engine/Source/Runtime/Engine/Classes/Engine/DynamicBlueprintBinding.h Pages: 1 -->
<svg width="916pt" height="352pt"
 viewBox="0.00 0.00 916.00 352.00" xmlns="http://www.w3.org/2000/svg" xmlns:xlink="http://www.w3.org/1999/xlink">
<g id="graph0" class="graph" transform="scale(1 1) rotate(0) translate(4 348)">
<title>/opt/unreal&#45;engine/Engine/Source/Runtime/Engine/Classes/Engine/DynamicBlueprintBinding.h</title>
<!-- Node1 -->
<g id="Node000001" class="node">
<title>Node1</title>
<g id="a_Node000001"><a xlink:title=" ">
<polygon fill="#999999" stroke="#666666" points="361.88,-344 209.38,-344 209.38,-285 361.88,-285 361.88,-344"/>
<text xml:space="preserve" text-anchor="start" x="217.38" y="-330.5" font-family="Helvetica,sans-Serif" font-size="10.00">/opt/unreal&#45;engine</text>
<text xml:space="preserve" text-anchor="start" x="217.38" y="-317.75" font-family="Helvetica,sans-Serif" font-size="10.00">/Engine/Source/Runtime</text>
<text xml:space="preserve" text-anchor="start" x="217.38" y="-305" font-family="Helvetica,sans-Serif" font-size="10.00">/Engine/Classes/Engine</text>
<text xml:space="preserve" text-anchor="middle" x="285.62" y="-292.25" font-family="Helvetica,sans-Serif" font-size="10.00">/DynamicBlueprintBinding.h</text>
</a>
</g>
</g>
<!-- Node2 -->
<g id="Node000002" class="node">
<title>Node2</title>
<g id="a_Node000002"><a xlink:href="$ComponentDelegateBinding_8h.html" xlink:title=" ">
<polygon fill="white" stroke="#666666" points="165.25,-249 0,-249 0,-190 165.25,-190 165.25,-249"/>
<text xml:space="preserve" text-anchor="start" x="8" y="-235.5" font-family="Helvetica,sans-Serif" font-size="10.00">/opt/unreal&#45;engine</text>
<text xml:space="preserve" text-anchor="start" x="8" y="-222.75" font-family="Helvetica,sans-Serif" font-size="10.00">/Engine/Source/Runtime</text>
<text xml:space="preserve" text-anchor="start" x="8" y="-210" font-family="Helvetica,sans-Serif" font-size="10.00">/Engine/Classes/Engine</text>
<text xml:space="preserve" text-anchor="middle" x="82.62" y="-197.25" font-family="Helvetica,sans-Serif" font-size="10.00">/ComponentDelegateBinding.h</text>
</a>
</g>
</g>
<!-- Node1&#45;&gt;Node2 -->
<g id="edge1_Node000001_Node000002" class="edge">
<title>Node1&#45;&gt;Node2</title>
<g id="a_edge1_Node000001_Node000002"><a xlink:title=" ">
<path fill="none" stroke="#63b8ff" d="M212.3,-279.91C190.5,-269.92 166.8,-259.06 145.7,-249.4"/>
<polygon fill="#63b8ff" stroke="#63b8ff" points="210.58,-282.97 221.13,-283.95 213.5,-276.61 210.58,-282.97"/>
</a>
</g>
</g>
<!-- Node3 -->
<g id="Node000003" class="node">
<title>Node3</title>
<g id="a_Node000003"><a xlink:href="$GeneratedBlueprintDelegateBinding_8h.html" xlink:title=" ">
<polygon fill="white" stroke="#666666" points="387.75,-249 183.5,-249 183.5,-190 387.75,-190 387.75,-249"/>
<text xml:space="preserve" text-anchor="start" x="191.5" y="-235.5" font-family="Helvetica,sans-Serif" font-size="10.00">/opt/unreal&#45;engine</text>
<text xml:space="preserve" text-anchor="start" x="191.5" y="-222.75" font-family="Helvetica,sans-Serif" font-size="10.00">/Engine/Source/Runtime</text>
<text xml:space="preserve" text-anchor="start" x="191.5" y="-210" font-family="Helvetica,sans-Serif" font-size="10.00">/Engine/Classes/Engine</text>
<text xml:space="preserve" text-anchor="middle" x="285.62" y="-197.25" font-family="Helvetica,sans-Serif" font-size="10.00">/GeneratedBlueprintDelegateBinding.h</text>
</a>
</g>
</g>
<!-- Node1&#45;&gt;Node3 -->
<g id="edge2_Node000001_Node000003" class="edge">
<title>Node1&#45;&gt;Node3</title>
<g id="a_edge2_Node000001_Node000003"><a xlink:title=" ">
<path fill="none" stroke="#63b8ff" d="M285.62,-273.16C285.62,-265.16 285.62,-256.92 285.62,-249.4"/>
<polygon fill="#63b8ff" stroke="#63b8ff" points="282.13,-273.07 285.63,-283.07 289.13,-273.07 282.13,-273.07"/>
</a>
</g>
</g>
<!-- Node4 -->
<g id="Node000004" class="node">
<title>Node4</title>
<g id="a_Node000004"><a xlink:href="$InputDelegateBinding_8h.html" xlink:title=" ">
<polygon fill="white" stroke="#666666" points="539.5,-249 405.75,-249 405.75,-190 539.5,-190 539.5,-249"/>
<text xml:space="preserve" text-anchor="start" x="413.75" y="-235.5" font-family="Helvetica,sans-Serif" font-size="10.00">/opt/unreal&#45;engine</text>
<text xml:space="preserve" text-anchor="start" x="413.75" y="-222.75" font-family="Helvetica,sans-Serif" font-size="10.00">/Engine/Source/Runtime</text>
<text xml:space="preserve" text-anchor="start" x="413.75" y="-210" font-family="Helvetica,sans-Serif" font-size="10.00">/Engine/Classes/Engine</text>
<text xml:space="preserve" text-anchor="middle" x="472.62" y="-197.25" font-family="Helvetica,sans-Serif" font-size="10.00">/InputDelegateBinding.h</text>
</a>
</g>
</g>
<!-- Node1&#45;&gt;Node4 -->
<g id="edge3_Node000001_Node000004" class="edge">
<title>Node1&#45;&gt;Node4</title>
<g id="a_edge3_Node000001_Node000004"><a xlink:title=" ">
<path fill="none" stroke="#63b8ff" d="M353.99,-279.5C373.85,-269.62 395.35,-258.93 414.52,-249.4"/>
<polygon fill="#63b8ff" stroke="#63b8ff" points="352.52,-276.32 345.12,-283.91 355.64,-282.59 352.52,-276.32"/>
</a>
</g>
</g>
<!-- Node5 -->
<g id="Node000005" class="node">
<title>Node5</title>
<g id="a_Node000005"><a xlink:href="$InputActionDelegateBinding_8h.html" xlink:title=" ">
<polygon fill="white" stroke="#666666" points="194.88,-154 30.38,-154 30.38,-95 194.88,-95 194.88,-154"/>
<text xml:space="preserve" text-anchor="start" x="38.38" y="-140.5" font-family="Helvetica,sans-Serif" font-size="10.00">/opt/unreal&#45;engine</text>
<text xml:space="preserve" text-anchor="start" x="38.38" y="-127.75" font-family="Helvetica,sans-Serif" font-size="10.00">/Engine/Source/Runtime</text>
<text xml:space="preserve" text-anchor="start" x="38.38" y="-115" font-family="Helvetica,sans-Serif" font-size="10.00">/Engine/Classes/Engine</text>
<text xml:space="preserve" text-anchor="middle" x="112.62" y="-102.25" font-family="Helvetica,sans-Serif" font-size="10.00">/InputActionDelegateBinding.h</text>
</a>
</g>
</g>
<!-- Node4&#45;&gt;Node5 -->
<g id="edge4_Node000004_Node000005" class="edge">
<title>Node4&#45;&gt;Node5</title>
<g id="a_edge4_Node000004_Node000005"><a xlink:title=" ">
<path fill="none" stroke="#63b8ff" d="M394.26,-189.54C310.92,-167.29 285.44,-174.02 204.62,-154 201.54,-153.24 198.41,-152.43 195.25,-151.59"/>
<polygon fill="#63b8ff" stroke="#63b8ff" points="393.25,-192.89 403.82,-192.15 395.1,-186.14 393.25,-192.89"/>
</a>
</g>
</g>
<!-- Node6 -->
<g id="Node000006" class="node">
<title>Node6</title>
<g id="a_Node000006"><a xlink:href="$InputAxisDelegateBinding_8h.html" xlink:title=" ">
<polygon fill="white" stroke="#666666" points="368,-154 213.25,-154 213.25,-95 368,-95 368,-154"/>
<text xml:space="preserve" text-anchor="start" x="221.25" y="-140.5" font-family="Helvetica,sans-Serif" font-size="10.00">/opt/unreal&#45;engine</text>
<text xml:space="preserve" text-anchor="start" x="221.25" y="-127.75" font-family="Helvetica,sans-Serif" font-size="10.00">/Engine/Source/Runtime</text>
<text xml:space="preserve" text-anchor="start" x="221.25" y="-115" font-family="Helvetica,sans-Serif" font-size="10.00">/Engine/Classes/Engine</text>
<text xml:space="preserve" text-anchor="middle" x="290.62" y="-102.25" font-family="Helvetica,sans-Serif" font-size="10.00">/InputAxisDelegateBinding.h</text>
</a>
</g>
</g>
<!-- Node4&#45;&gt;Node6 -->
<g id="edge5_Node000004_Node000006" class="edge">
<title>Node4&#45;&gt;Node6</title>
<g id="a_edge5_Node000004_Node000006"><a xlink:title=" ">
<path fill="none" stroke="#63b8ff" d="M405.83,-184.37C386.57,-174.53 365.75,-163.89 347.18,-154.4"/>
<polygon fill="#63b8ff" stroke="#63b8ff" points="404.19,-187.46 414.69,-188.9 407.38,-181.23 404.19,-187.46"/>
</a>
</g>
</g>
<!-- Node7 -->
<g id="Node000007" class="node">
<title>Node7</title>
<g id="a_Node000007"><a xlink:href="$InputAxisKeyDelegateBinding_8h.html" xlink:title=" ">
<polygon fill="white" stroke="#666666" points="559,-154 386.25,-154 386.25,-95 559,-95 559,-154"/>
<text xml:space="preserve" text-anchor="start" x="394.25" y="-140.5" font-family="Helvetica,sans-Serif" font-size="10.00">/opt/unreal&#45;engine</text>
<text xml:space="preserve" text-anchor="start" x="394.25" y="-127.75" font-family="Helvetica,sans-Serif" font-size="10.00">/Engine/Source/Runtime</text>
<text xml:space="preserve" text-anchor="start" x="394.25" y="-115" font-family="Helvetica,sans-Serif" font-size="10.00">/Engine/Classes/Engine</text>
<text xml:space="preserve" text-anchor="middle" x="472.62" y="-102.25" font-family="Helvetica,sans-Serif" font-size="10.00">/InputAxisKeyDelegateBinding.h</text>
</a>
</g>
</g>
<!-- Node4&#45;&gt;Node7 -->
<g id="edge6_Node000004_Node000007" class="edge">
<title>Node4&#45;&gt;Node7</title>
<g id="a_edge6_Node000004_Node000007"><a xlink:title=" ">
<path fill="none" stroke="#63b8ff" d="M472.62,-178.16C472.62,-170.16 472.62,-161.92 472.62,-154.4"/>
<polygon fill="#63b8ff" stroke="#63b8ff" points="469.13,-178.07 472.63,-188.07 476.13,-178.07 469.13,-178.07"/>
</a>
</g>
</g>
<!-- Node9 -->
<g id="Node000009" class="node">
<title>Node9</title>
<g id="a_Node000009"><a xlink:href="$InputKeyDelegateBinding_8h.html" xlink:title=" ">
<polygon fill="white" stroke="#666666" points="728.5,-154 576.75,-154 576.75,-95 728.5,-95 728.5,-154"/>
<text xml:space="preserve" text-anchor="start" x="584.75" y="-140.5" font-family="Helvetica,sans-Serif" font-size="10.00">/opt/unreal&#45;engine</text>
<text xml:space="preserve" text-anchor="start" x="584.75" y="-127.75" font-family="Helvetica,sans-Serif" font-size="10.00">/Engine/Source/Runtime</text>
<text xml:space="preserve" text-anchor="start" x="584.75" y="-115" font-family="Helvetica,sans-Serif" font-size="10.00">/Engine/Classes/Engine</text>
<text xml:space="preserve" text-anchor="middle" x="652.62" y="-102.25" font-family="Helvetica,sans-Serif" font-size="10.00">/InputKeyDelegateBinding.h</text>
</a>
</g>
</g>
<!-- Node4&#45;&gt;Node9 -->
<g id="edge8_Node000004_Node000009" class="edge">
<title>Node4&#45;&gt;Node9</title>
<g id="a_edge8_Node000004_Node000009"><a xlink:title=" ">
<path fill="none" stroke="#63b8ff" d="M538.69,-184.37C557.74,-174.53 578.33,-163.89 596.69,-154.4"/>
<polygon fill="#63b8ff" stroke="#63b8ff" points="537.21,-181.19 529.94,-188.89 540.43,-187.41 537.21,-181.19"/>
</a>
</g>
</g>
<!-- Node10 -->
<g id="Node000010" class="node">
<title>Node10</title>
<g id="a_Node000010"><a xlink:href="$InputTouchDelegateBinding_8h.html" xlink:title=" ">
<polygon fill="white" stroke="#666666" points="908.38,-154 746.88,-154 746.88,-95 908.38,-95 908.38,-154"/>
<text xml:space="preserve" text-anchor="start" x="754.88" y="-140.5" font-family="Helvetica,sans-Serif" font-size="10.00">/opt/unreal&#45;engine</text>
<text xml:space="preserve" text-anchor="start" x="754.88" y="-127.75" font-family="Helvetica,sans-Serif" font-size="10.00">/Engine/Source/Runtime</text>
<text xml:space="preserve" text-anchor="start" x="754.88" y="-115" font-family="Helvetica,sans-Serif" font-size="10.00">/Engine/Classes/Engine</text>
<text xml:space="preserve" text-anchor="middle" x="827.62" y="-102.25" font-family="Helvetica,sans-Serif" font-size="10.00">/InputTouchDelegateBinding.h</text>
</a>
</g>
</g>
<!-- Node4&#45;&gt;Node10 -->
<g id="edge9_Node000004_Node000010" class="edge">
<title>Node4&#45;&gt;Node10</title>
<g id="a_edge9_Node000004_Node000010"><a xlink:title=" ">
<path fill="none" stroke="#63b8ff" d="M550.94,-200.91C603.89,-188.66 675.26,-171.44 737.62,-154 740.62,-153.16 743.67,-152.29 746.75,-151.4"/>
<polygon fill="#63b8ff" stroke="#63b8ff" points="550.37,-197.45 541.41,-203.11 551.94,-204.27 550.37,-197.45"/>
</a>
</g>
</g>
<!-- Node8 -->
<g id="Node000008" class="node">
<title>Node8</title>
<g id="a_Node000008"><a xlink:href="$InputVectorAxisDelegateBinding_8h.html" xlink:title=" ">
<polygon fill="white" stroke="#666666" points="565.75,-59 379.5,-59 379.5,0 565.75,0 565.75,-59"/>
<text xml:space="preserve" text-anchor="start" x="387.5" y="-45.5" font-family="Helvetica,sans-Serif" font-size="10.00">/opt/unreal&#45;engine</text>
<text xml:space="preserve" text-anchor="start" x="387.5" y="-32.75" font-family="Helvetica,sans-Serif" font-size="10.00">/Engine/Source/Runtime</text>
<text xml:space="preserve" text-anchor="start" x="387.5" y="-20" font-family="Helvetica,sans-Serif" font-size="10.00">/Engine/Classes/Engine</text>
<text xml:space="preserve" text-anchor="middle" x="472.62" y="-7.25" font-family="Helvetica,sans-Serif" font-size="10.00">/InputVectorAxisDelegateBinding.h</text>
</a>
</g>
</g>
<!-- Node7&#45;&gt;Node8 -->
<g id="edge7_Node000007_Node000008" class="edge">
<title>Node7&#45;&gt;Node8</title>
<g id="a_edge7_Node000007_Node000008"><a xlink:title=" ">
<path fill="none" stroke="#63b8ff" d="M472.62,-83.16C472.62,-75.16 472.62,-66.92 472.62,-59.4"/>
<polygon fill="#63b8ff" stroke="#63b8ff" points="469.13,-83.07 472.63,-93.07 476.13,-83.07 469.13,-83.07"/>
</a>
</g>
</g>
</g>
</svg>
