<?xml version="1.0" encoding="UTF-8" standalone="no"?>
<!DOCTYPE svg PUBLIC "-//W3C//DTD SVG 1.1//EN"
 "http://www.w3.org/Graphics/SVG/1.1/DTD/svg11.dtd">
<!-- Generated by graphviz version 14.1.4 (0)
 -->
<!-- Title: /opt/unreal&#45;engine/Engine/Source/Runtime/Engine/Classes/GameFramework/EngineMessage.h Pages: 1 -->
<svg width="540pt" height="181pt"
 viewBox="0.00 0.00 540.00 181.00" xmlns="http://www.w3.org/2000/svg" xmlns:xlink="http://www.w3.org/1999/xlink">
<g id="graph0" class="graph" transform="scale(1 1) rotate(0) translate(4 176.5)">
<title>/opt/unreal&#45;engine/Engine/Source/Runtime/Engine/Classes/GameFramework/EngineMessage.h</title>
<!-- Node1 -->
<g id="Node000001" class="node">
<title>Node1</title>
<g id="a_Node000001"><a xlink:title=" ">
<polygon fill="#999999" stroke="#666666" points="298.38,-172.5 118.88,-172.5 118.88,-113.5 298.38,-113.5 298.38,-172.5"/>
<text xml:space="preserve" text-anchor="start" x="126.88" y="-159" font-family="Helvetica,sans-Serif" font-size="10.00">/opt/unreal&#45;engine</text>
<text xml:space="preserve" text-anchor="start" x="126.88" y="-146.25" font-family="Helvetica,sans-Serif" font-size="10.00">/Engine/Source/Runtime</text>
<text xml:space="preserve" text-anchor="start" x="126.88" y="-133.5" font-family="Helvetica,sans-Serif" font-size="10.00">/Engine/Classes/GameFramework</text>
<text xml:space="preserve" text-anchor="middle" x="208.62" y="-120.75" font-family="Helvetica,sans-Serif" font-size="10.00">/EngineMessage.h</text>
</a>
</g>
</g>
<!-- Node2 -->
<g id="Node000002" class="node">
<title>Node2</title>
<g id="a_Node000002"><a xlink:title=" ">
<polygon fill="#e0e0e0" stroke="#999999" points="87.25,-20.75 0,-20.75 0,0 87.25,0 87.25,-20.75"/>
<text xml:space="preserve" text-anchor="middle" x="43.62" y="-7.25" font-family="Helvetica,sans-Serif" font-size="10.00">CoreMinimal.h</text>
</a>
</g>
</g>
<!-- Node1&#45;&gt;Node2 -->
<g id="edge1_Node000001_Node000002" class="edge">
<title>Node1&#45;&gt;Node2</title>
<g id="a_edge1_Node000001_Node000002"><a xlink:title=" ">
<path fill="none" stroke="#63b8ff" d="M172.01,-113.01C139.2,-87.04 92.19,-49.83 65.1,-28.38"/>
<polygon fill="#63b8ff" stroke="#63b8ff" points="67.29,-25.64 57.27,-22.18 62.94,-31.13 67.29,-25.64"/>
</a>
</g>
</g>
<!-- Node3 -->
<g id="Node000003" class="node">
<title>Node3</title>
<g id="a_Node000003"><a xlink:title=" ">
<polygon fill="#e0e0e0" stroke="#999999" points="239.5,-20.75 105.75,-20.75 105.75,0 239.5,0 239.5,-20.75"/>
<text xml:space="preserve" text-anchor="middle" x="172.62" y="-7.25" font-family="Helvetica,sans-Serif" font-size="10.00">UObject/ObjectMacros.h</text>
</a>
</g>
</g>
<!-- Node1&#45;&gt;Node3 -->
<g id="edge2_Node000001_Node000003" class="edge">
<title>Node1&#45;&gt;Node3</title>
<g id="a_edge2_Node000001_Node000003"><a xlink:title=" ">
<path fill="none" stroke="#63b8ff" d="M186.54,-113.06C179.73,-102.45 173.1,-89.98 169.62,-77.5 165.51,-62.74 166.5,-45.41 168.39,-32.19"/>
<polygon fill="#63b8ff" stroke="#63b8ff" points="171.81,-32.95 170.08,-22.49 164.91,-31.74 171.81,-32.95"/>
</a>
</g>
</g>
<!-- Node4 -->
<g id="Node000004" class="node">
<title>Node4</title>
<g id="a_Node000004"><a xlink:href="LocalMessage_8h.html" target="_top" xlink:title=" ">
<polygon fill="white" stroke="#666666" points="359.12,-77.5 178.12,-77.5 178.12,-56.75 359.12,-56.75 359.12,-77.5"/>
<text xml:space="preserve" text-anchor="middle" x="268.62" y="-64" font-family="Helvetica,sans-Serif" font-size="10.00">GameFramework/LocalMessage.h</text>
</a>
</g>
</g>
<!-- Node1&#45;&gt;Node4 -->
<g id="edge3_Node000001_Node000004" class="edge">
<title>Node1&#45;&gt;Node4</title>
<g id="a_edge3_Node000001_Node000004"><a xlink:title=" ">
<path fill="none" stroke="#63b8ff" d="M231.99,-113.23C239.2,-104.36 246.94,-94.82 253.44,-86.82"/>
<polygon fill="#63b8ff" stroke="#63b8ff" points="256.1,-89.1 259.69,-79.13 250.66,-84.69 256.1,-89.1"/>
</a>
</g>
</g>
<!-- Node7 -->
<g id="Node000007" class="node">
<title>Node7</title>
<g id="a_Node000007"><a xlink:title=" ">
<polygon fill="#e0e0e0" stroke="#999999" points="531.62,-77.5 377.62,-77.5 377.62,-56.75 531.62,-56.75 531.62,-77.5"/>
<text xml:space="preserve" text-anchor="middle" x="454.62" y="-64" font-family="Helvetica,sans-Serif" font-size="10.00">EngineMessage.generated.h</text>
</a>
</g>
</g>
<!-- Node1&#45;&gt;Node7 -->
<g id="edge8_Node000001_Node000007" class="edge">
<title>Node1&#45;&gt;Node7</title>
<g id="a_edge8_Node000001_Node000007"><a xlink:title=" ">
<path fill="none" stroke="#63b8ff" d="M298.83,-114.91C337.06,-103.43 379.84,-90.58 410.89,-81.26"/>
<polygon fill="#63b8ff" stroke="#63b8ff" points="411.74,-84.66 420.32,-78.43 409.73,-77.95 411.74,-84.66"/>
</a>
</g>
</g>
<!-- Node4&#45;&gt;Node2 -->
<g id="edge4_Node000004_Node000002" class="edge">
<title>Node4&#45;&gt;Node2</title>
<g id="a_edge4_Node000004_Node000002"><a xlink:title=" ">
<path fill="none" stroke="#63b8ff" d="M228.14,-56.27C190.9,-47.21 135.5,-33.73 95.13,-23.91"/>
<polygon fill="#63b8ff" stroke="#63b8ff" points="96.18,-20.56 85.63,-21.6 94.52,-27.36 96.18,-20.56"/>
</a>
</g>
</g>
<!-- Node4&#45;&gt;Node3 -->
<g id="edge5_Node000004_Node000003" class="edge">
<title>Node4&#45;&gt;Node3</title>
<g id="a_edge5_Node000004_Node000003"><a xlink:title=" ">
<path fill="none" stroke="#63b8ff" d="M251.46,-56.34C236.99,-48.08 216.04,-36.13 199.37,-26.63"/>
<polygon fill="#63b8ff" stroke="#63b8ff" points="201.37,-23.74 190.95,-21.83 197.91,-29.82 201.37,-23.74"/>
</a>
</g>
</g>
<!-- Node5 -->
<g id="Node000005" class="node">
<title>Node5</title>
<g id="a_Node000005"><a xlink:title=" ">
<polygon fill="#e0e0e0" stroke="#999999" points="355.88,-20.75 257.38,-20.75 257.38,0 355.88,0 355.88,-20.75"/>
<text xml:space="preserve" text-anchor="middle" x="306.62" y="-7.25" font-family="Helvetica,sans-Serif" font-size="10.00">UObject/Object.h</text>
</a>
</g>
</g>
<!-- Node4&#45;&gt;Node5 -->
<g id="edge6_Node000004_Node000005" class="edge">
<title>Node4&#45;&gt;Node5</title>
<g id="a_edge6_Node000004_Node000005"><a xlink:title=" ">
<path fill="none" stroke="#63b8ff" d="M275.42,-56.34C280.39,-49.17 287.29,-39.23 293.35,-30.51"/>
<polygon fill="#63b8ff" stroke="#63b8ff" points="296.2,-32.53 299.03,-22.32 290.45,-28.54 296.2,-32.53"/>
</a>
</g>
</g>
<!-- Node6 -->
<g id="Node000006" class="node">
<title>Node6</title>
<g id="a_Node000006"><a xlink:title=" ">
<polygon fill="#e0e0e0" stroke="#999999" points="520.88,-20.75 374.38,-20.75 374.38,0 520.88,0 520.88,-20.75"/>
<text xml:space="preserve" text-anchor="middle" x="447.62" y="-7.25" font-family="Helvetica,sans-Serif" font-size="10.00">LocalMessage.generated.h</text>
</a>
</g>
</g>
<!-- Node4&#45;&gt;Node6 -->
<g id="edge7_Node000004_Node000006" class="edge">
<title>Node4&#45;&gt;Node6</title>
<g id="a_edge7_Node000004_Node000006"><a xlink:title=" ">
<path fill="none" stroke="#63b8ff" d="M300.63,-56.34C329.68,-47.45 372.76,-34.27 404.78,-24.48"/>
<polygon fill="#63b8ff" stroke="#63b8ff" points="405.61,-27.89 414.15,-21.61 403.57,-21.19 405.61,-27.89"/>
</a>
</g>
</g>
</g>
</svg>
