<?xml version="1.0" encoding="UTF-8" standalone="no"?>
<!DOCTYPE svg PUBLIC "-//W3C//DTD SVG 1.1//EN"
 "http://www.w3.org/Graphics/SVG/1.1/DTD/svg11.dtd">
<!-- Generated by graphviz version 14.1.4 (0)
 -->
<!-- Title: /opt/unreal&#45;engine/Engine/Source/Runtime/Engine/Classes/Engine/EngineCustomTimeStep.h Pages: 1 -->
<svg width="576pt" height="124pt"
 viewBox="0.00 0.00 576.00 124.00" xmlns="http://www.w3.org/2000/svg" xmlns:xlink="http://www.w3.org/1999/xlink">
<g id="graph0" class="graph" transform="scale(1 1) rotate(0) translate(4 119.75)">
<title>/opt/unreal&#45;engine/Engine/Source/Runtime/Engine/Classes/Engine/EngineCustomTimeStep.h</title>
<!-- Node1 -->
<g id="Node000001" class="node">
<title>Node1</title>
<g id="a_Node000001"><a xlink:title=" ">
<polygon fill="#999999" stroke="#666666" points="293.75,-115.75 149.5,-115.75 149.5,-56.75 293.75,-56.75 293.75,-115.75"/>
<text xml:space="preserve" text-anchor="start" x="157.5" y="-102.25" font-family="Helvetica,sans-Serif" font-size="10.00">/opt/unreal&#45;engine</text>
<text xml:space="preserve" text-anchor="start" x="157.5" y="-89.5" font-family="Helvetica,sans-Serif" font-size="10.00">/Engine/Source/Runtime</text>
<text xml:space="preserve" text-anchor="start" x="157.5" y="-76.75" font-family="Helvetica,sans-Serif" font-size="10.00">/Engine/Classes/Engine</text>
<text xml:space="preserve" text-anchor="middle" x="221.62" y="-64" font-family="Helvetica,sans-Serif" font-size="10.00">/EngineCustomTimeStep.h</text>
</a>
</g>
</g>
<!-- Node2 -->
<g id="Node000002" class="node">
<title>Node2</title>
<g id="a_Node000002"><a xlink:title=" ">
<polygon fill="#e0e0e0" stroke="#999999" points="87.25,-20.75 0,-20.75 0,0 87.25,0 87.25,-20.75"/>
<text xml:space="preserve" text-anchor="middle" x="43.62" y="-7.25" font-family="Helvetica,sans-Serif" font-size="10.00">CoreMinimal.h</text>
</a>
</g>
</g>
<!-- Node1&#45;&gt;Node2 -->
<g id="edge1_Node000001_Node000002" class="edge">
<title>Node1&#45;&gt;Node2</title>
<g id="a_edge1_Node000001_Node000002"><a xlink:title=" ">
<path fill="none" stroke="#63b8ff" d="M151.79,-56.26C126.36,-45.71 98.74,-34.25 77.77,-25.55"/>
<polygon fill="#63b8ff" stroke="#63b8ff" points="79.14,-22.33 68.57,-21.73 76.46,-28.79 79.14,-22.33"/>
</a>
</g>
</g>
<!-- Node3 -->
<g id="Node000003" class="node">
<title>Node3</title>
<g id="a_Node000003"><a xlink:title=" ">
<polygon fill="#e0e0e0" stroke="#999999" points="203.88,-20.75 105.38,-20.75 105.38,0 203.88,0 203.88,-20.75"/>
<text xml:space="preserve" text-anchor="middle" x="154.62" y="-7.25" font-family="Helvetica,sans-Serif" font-size="10.00">UObject/Object.h</text>
</a>
</g>
</g>
<!-- Node1&#45;&gt;Node3 -->
<g id="edge2_Node000001_Node000003" class="edge">
<title>Node1&#45;&gt;Node3</title>
<g id="a_edge2_Node000001_Node000003"><a xlink:title=" ">
<path fill="none" stroke="#63b8ff" d="M195.53,-56.48C187.31,-47.41 178.46,-37.65 171.1,-29.54"/>
<polygon fill="#63b8ff" stroke="#63b8ff" points="173.87,-27.38 164.56,-22.33 168.68,-32.09 173.87,-27.38"/>
</a>
</g>
</g>
<!-- Node4 -->
<g id="Node000004" class="node">
<title>Node4</title>
<g id="a_Node000004"><a xlink:title=" ">
<polygon fill="#e0e0e0" stroke="#999999" points="355.5,-20.75 221.75,-20.75 221.75,0 355.5,0 355.5,-20.75"/>
<text xml:space="preserve" text-anchor="middle" x="288.62" y="-7.25" font-family="Helvetica,sans-Serif" font-size="10.00">UObject/ObjectMacros.h</text>
</a>
</g>
</g>
<!-- Node1&#45;&gt;Node4 -->
<g id="edge3_Node000001_Node000004" class="edge">
<title>Node1&#45;&gt;Node4</title>
<g id="a_edge3_Node000001_Node000004"><a xlink:title=" ">
<path fill="none" stroke="#63b8ff" d="M247.72,-56.48C255.94,-47.41 264.79,-37.65 272.15,-29.54"/>
<polygon fill="#63b8ff" stroke="#63b8ff" points="274.57,-32.09 278.69,-22.33 269.38,-27.38 274.57,-32.09"/>
</a>
</g>
</g>
<!-- Node5 -->
<g id="Node000005" class="node">
<title>Node5</title>
<g id="a_Node000005"><a xlink:title=" ">
<polygon fill="#e0e0e0" stroke="#999999" points="567.5,-20.75 373.75,-20.75 373.75,0 567.5,0 567.5,-20.75"/>
<text xml:space="preserve" text-anchor="middle" x="470.62" y="-7.25" font-family="Helvetica,sans-Serif" font-size="10.00">EngineCustomTimeStep.generated.h</text>
</a>
</g>
</g>
<!-- Node1&#45;&gt;Node5 -->
<g id="edge4_Node000001_Node000005" class="edge">
<title>Node1&#45;&gt;Node5</title>
<g id="a_edge4_Node000001_Node000005"><a xlink:title=" ">
<path fill="none" stroke="#63b8ff" d="M293.98,-63.78C336.92,-51.04 389.97,-35.31 426.66,-24.42"/>
<polygon fill="#63b8ff" stroke="#63b8ff" points="427.45,-27.83 436.04,-21.63 425.46,-21.12 427.45,-27.83"/>
</a>
</g>
</g>
</g>
</svg>
