<?xml version="1.0" encoding="UTF-8" standalone="no"?>
<!DOCTYPE svg PUBLIC "-//W3C//DTD SVG 1.1//EN"
 "http://www.w3.org/Graphics/SVG/1.1/DTD/svg11.dtd">
<!-- Generated by graphviz version 14.1.4 (0)
 -->
<!-- Title: EnumHasAllFlags Pages: 1 -->
<svg width="322pt" height="80pt"
 viewBox="0.00 0.00 322.00 80.00" xmlns="http://www.w3.org/2000/svg" xmlns:xlink="http://www.w3.org/1999/xlink">
<g id="graph0" class="graph" transform="scale(1 1) rotate(0) translate(4 76.12)">
<title>EnumHasAllFlags</title>
<!-- Node1 -->
<g id="Node000001" class="node">
<title>Node1</title>
<g id="a_Node000001"><a xlink:title=" ">
<polygon fill="#999999" stroke="#666666" points="314,-49.12 212.5,-49.12 212.5,-28.38 314,-28.38 314,-49.12"/>
<text xml:space="preserve" text-anchor="middle" x="263.25" y="-35.62" font-family="Helvetica,sans-Serif" font-size="10.00">EnumHasAllFlags</text>
</a>
</g>
</g>
<!-- Node2 -->
<g id="Node000002" class="node">
<title>Node2</title>
<g id="a_Node000002"><a xlink:href="$namespaceUE_1_1PixelFormat.html#a7dd931dcfa0a4ed99b947d543ff8f954" xlink:title=" ">
<polygon fill="white" stroke="#666666" points="176.5,-72.12 0,-72.12 0,-51.38 176.5,-51.38 176.5,-72.12"/>
<text xml:space="preserve" text-anchor="middle" x="88.25" y="-58.62" font-family="Helvetica,sans-Serif" font-size="10.00">UE::PixelFormat::HasCapabilities</text>
</a>
</g>
</g>
<!-- Node1&#45;&gt;Node2 -->
<g id="edge1_Node000001_Node000002" class="edge">
<title>Node1&#45;&gt;Node2</title>
<g id="a_edge1_Node000001_Node000002"><a xlink:title=" ">
<path fill="none" stroke="#63b8ff" d="M200.98,-46.9C191.2,-48.2 180.95,-49.56 170.79,-50.91"/>
<polygon fill="#63b8ff" stroke="#63b8ff" points="201.26,-50.39 210.71,-45.6 200.34,-43.45 201.26,-50.39"/>
</a>
</g>
</g>
<!-- Node3 -->
<g id="Node000003" class="node">
<title>Node3</title>
<g id="a_Node000003"><a xlink:href="$classLowLevelTasks_1_1FTask.html#a9d9553807e98eb84669bdeec3f6a7bbd" xlink:title=" ">
<polygon fill="white" stroke="#666666" points="149.5,-33.5 27,-33.5 27,0 149.5,0 149.5,-33.5"/>
<text xml:space="preserve" text-anchor="start" x="35" y="-20" font-family="Helvetica,sans-Serif" font-size="10.00">LowLevelTasks::FTask</text>
<text xml:space="preserve" text-anchor="middle" x="88.25" y="-7.25" font-family="Helvetica,sans-Serif" font-size="10.00">::TryCancel</text>
</a>
</g>
</g>
<!-- Node1&#45;&gt;Node3 -->
<g id="edge2_Node000001_Node000003" class="edge">
<title>Node1&#45;&gt;Node3</title>
<g id="a_edge2_Node000001_Node000003"><a xlink:title=" ">
<path fill="none" stroke="#63b8ff" d="M200.98,-30.96C184.4,-28.85 166.46,-26.57 149.91,-24.46"/>
<polygon fill="#63b8ff" stroke="#63b8ff" points="200.35,-34.41 210.71,-32.2 201.23,-27.46 200.35,-34.41"/>
</a>
</g>
</g>
</g>
</svg>
