<?xml version="1.0" encoding="UTF-8" standalone="no"?>
<!DOCTYPE svg PUBLIC "-//W3C//DTD SVG 1.1//EN"
 "http://www.w3.org/Graphics/SVG/1.1/DTD/svg11.dtd">
<!-- Generated by graphviz version 14.1.4 (0)
 -->
<!-- Title: /opt/unreal&#45;engine/Engine/Source/Runtime/Engine/Classes/Engine/GameViewportClient.h Pages: 1 -->
<svg width="2463pt" height="250pt"
 viewBox="0.00 0.00 2463.00 250.00" xmlns="http://www.w3.org/2000/svg" xmlns:xlink="http://www.w3.org/1999/xlink">
<g id="graph0" class="graph" transform="scale(1 1) rotate(0) translate(4 246)">
<title>/opt/unreal&#45;engine/Engine/Source/Runtime/Engine/Classes/Engine/GameViewportClient.h</title>
<!-- Node1 -->
<g id="Node000001" class="node">
<title>Node1</title>
<g id="a_Node000001"><a xlink:title=" ">
<polygon fill="#999999" stroke="#666666" points="1256.88,-242 1124.62,-242 1124.62,-183 1256.88,-183 1256.88,-242"/>
<text xml:space="preserve" text-anchor="start" x="1132.62" y="-228.5" font-family="Helvetica,sans-Serif" font-size="10.00">/opt/unreal&#45;engine</text>
<text xml:space="preserve" text-anchor="start" x="1132.62" y="-215.75" font-family="Helvetica,sans-Serif" font-size="10.00">/Engine/Source/Runtime</text>
<text xml:space="preserve" text-anchor="start" x="1132.62" y="-203" font-family="Helvetica,sans-Serif" font-size="10.00">/Engine/Classes/Engine</text>
<text xml:space="preserve" text-anchor="middle" x="1190.75" y="-190.25" font-family="Helvetica,sans-Serif" font-size="10.00">/GameViewportClient.h</text>
</a>
</g>
</g>
<!-- Node2 -->
<g id="Node000002" class="node">
<title>Node2</title>
<g id="a_Node000002"><a xlink:title=" ">
<polygon fill="#e0e0e0" stroke="#999999" points="911.38,-90.25 824.12,-90.25 824.12,-69.5 911.38,-69.5 911.38,-90.25"/>
<text xml:space="preserve" text-anchor="middle" x="867.75" y="-76.75" font-family="Helvetica,sans-Serif" font-size="10.00">CoreMinimal.h</text>
</a>
</g>
</g>
<!-- Node1&#45;&gt;Node2 -->
<g id="edge1_Node000001_Node000002" class="edge">
<title>Node1&#45;&gt;Node2</title>
<g id="a_edge1_Node000001_Node000002"><a xlink:title=" ">
<path fill="none" stroke="#63b8ff" d="M1124.51,-207.39C999.01,-198.94 736.66,-177.76 709.75,-147 703.68,-140.06 704.2,-133.62 709.75,-126.25 716.23,-117.65 769.94,-103.43 812.97,-93.2"/>
<polygon fill="#63b8ff" stroke="#63b8ff" points="813.52,-96.66 822.45,-90.97 811.92,-89.85 813.52,-96.66"/>
</a>
</g>
</g>
<!-- Node3 -->
<g id="Node000003" class="node">
<title>Node3</title>
<g id="a_Node000003"><a xlink:title=" ">
<polygon fill="#e0e0e0" stroke="#999999" points="422.75,-147 256.75,-147 256.75,-126.25 422.75,-126.25 422.75,-147"/>
<text xml:space="preserve" text-anchor="middle" x="339.75" y="-133.5" font-family="Helvetica,sans-Serif" font-size="10.00">Delegates/IDelegateInstance.h</text>
</a>
</g>
</g>
<!-- Node1&#45;&gt;Node3 -->
<g id="edge2_Node000001_Node000003" class="edge">
<title>Node1&#45;&gt;Node3</title>
<g id="a_edge2_Node000001_Node000003"><a xlink:title=" ">
<path fill="none" stroke="#63b8ff" d="M1124.16,-206.05C992.7,-195.24 690.58,-170.12 436.75,-147 435.91,-146.92 435.07,-146.85 434.23,-146.77"/>
<polygon fill="#63b8ff" stroke="#63b8ff" points="434.87,-143.31 424.59,-145.88 434.22,-150.28 434.87,-143.31"/>
</a>
</g>
</g>
<!-- Node4 -->
<g id="Node000004" class="node">
<title>Node4</title>
<g id="a_Node000004"><a xlink:title=" ">
<polygon fill="#e0e0e0" stroke="#999999" points="1393.62,-27.12 1259.88,-27.12 1259.88,-6.38 1393.62,-6.38 1393.62,-27.12"/>
<text xml:space="preserve" text-anchor="middle" x="1326.75" y="-13.62" font-family="Helvetica,sans-Serif" font-size="10.00">UObject/ObjectMacros.h</text>
</a>
</g>
</g>
<!-- Node1&#45;&gt;Node4 -->
<g id="edge3_Node000001_Node000004" class="edge">
<title>Node1&#45;&gt;Node4</title>
<g id="a_edge3_Node000001_Node000004"><a xlink:title=" ">
<path fill="none" stroke="#63b8ff" d="M1257.3,-207.86C1394.9,-199.79 1706.34,-178.59 1807.75,-147 1826.12,-141.28 1828.41,-134.59 1845.75,-126.25 1883.09,-108.3 1908.79,-124.75 1931.75,-90.25 1936.86,-82.57 1937.99,-76.29 1931.75,-69.5 1896.82,-31.46 1560.83,-21.33 1405.19,-18.68"/>
<polygon fill="#63b8ff" stroke="#63b8ff" points="1405.42,-15.18 1395.36,-18.52 1405.3,-22.18 1405.42,-15.18"/>
</a>
</g>
</g>
<!-- Node5 -->
<g id="Node000005" class="node">
<title>Node5</title>
<g id="a_Node000005"><a xlink:title=" ">
<polygon fill="#e0e0e0" stroke="#999999" points="587.75,-90.25 487.75,-90.25 487.75,-69.5 587.75,-69.5 587.75,-90.25"/>
<text xml:space="preserve" text-anchor="middle" x="537.75" y="-76.75" font-family="Helvetica,sans-Serif" font-size="10.00">InputCoreTypes.h</text>
</a>
</g>
</g>
<!-- Node1&#45;&gt;Node5 -->
<g id="edge4_Node000001_Node000005" class="edge">
<title>Node1&#45;&gt;Node5</title>
<g id="a_edge4_Node000001_Node000005"><a xlink:title=" ">
<path fill="none" stroke="#63b8ff" d="M1124.29,-210.55C954.21,-207.44 513.46,-194.79 469.75,-147 452.85,-128.52 480.02,-108.67 504.86,-95.59"/>
<polygon fill="#63b8ff" stroke="#63b8ff" points="506.14,-98.86 513.52,-91.27 503.01,-92.6 506.14,-98.86"/>
</a>
</g>
</g>
<!-- Node6 -->
<g id="Node000006" class="node">
<title>Node6</title>
<g id="a_Node000006"><a xlink:href="EngineBaseTypes_8h.html" target="_top" xlink:title=" ">
<polygon fill="white" stroke="#666666" points="469.62,-90.25 323.88,-90.25 323.88,-69.5 469.62,-69.5 469.62,-90.25"/>
<text xml:space="preserve" text-anchor="middle" x="396.75" y="-76.75" font-family="Helvetica,sans-Serif" font-size="10.00">Engine/EngineBaseTypes.h</text>
</a>
</g>
</g>
<!-- Node1&#45;&gt;Node6 -->
<g id="edge5_Node000001_Node000006" class="edge">
<title>Node1&#45;&gt;Node6</title>
<g id="a_edge5_Node000001_Node000006"><a xlink:title=" ">
<path fill="none" stroke="#63b8ff" d="M1124.2,-212.06C919.16,-213.1 307.32,-210.79 247.75,-147 221.42,-118.8 265.38,-101.89 312.24,-92.23"/>
<polygon fill="#63b8ff" stroke="#63b8ff" points="312.89,-95.67 322.04,-90.33 311.56,-88.8 312.89,-95.67"/>
</a>
</g>
</g>
<!-- Node15 -->
<g id="Node000015" class="node">
<title>Node15</title>
<g id="a_Node000015"><a xlink:title=" ">
<polygon fill="#e0e0e0" stroke="#999999" points="848.75,-147 718.75,-147 718.75,-126.25 848.75,-126.25 848.75,-147"/>
<text xml:space="preserve" text-anchor="middle" x="783.75" y="-133.5" font-family="Helvetica,sans-Serif" font-size="10.00">UObject/ScriptMacros.h</text>
</a>
</g>
</g>
<!-- Node1&#45;&gt;Node15 -->
<g id="edge15_Node000001_Node000015" class="edge">
<title>Node1&#45;&gt;Node15</title>
<g id="a_edge15_Node000001_Node000015"><a xlink:title=" ">
<path fill="none" stroke="#63b8ff" d="M1124.45,-199.47C1048.5,-185.68 924.82,-163.23 849.22,-149.51"/>
<polygon fill="#63b8ff" stroke="#63b8ff" points="849.92,-146.08 839.46,-147.74 848.67,-152.97 849.92,-146.08"/>
</a>
</g>
</g>
<!-- Node16 -->
<g id="Node000016" class="node">
<title>Node16</title>
<g id="a_Node000016"><a xlink:title=" ">
<polygon fill="#e0e0e0" stroke="#999999" points="1012.62,-147 866.88,-147 866.88,-126.25 1012.62,-126.25 1012.62,-147"/>
<text xml:space="preserve" text-anchor="middle" x="939.75" y="-133.5" font-family="Helvetica,sans-Serif" font-size="10.00">Input/PopupMethodReply.h</text>
</a>
</g>
</g>
<!-- Node1&#45;&gt;Node16 -->
<g id="edge16_Node000001_Node000016" class="edge">
<title>Node1&#45;&gt;Node16</title>
<g id="a_edge16_Node000001_Node000016"><a xlink:title=" ">
<path fill="none" stroke="#63b8ff" d="M1124.15,-191.9C1079.86,-178.86 1022.93,-162.11 984.12,-150.68"/>
<polygon fill="#63b8ff" stroke="#63b8ff" points="985.21,-147.36 974.63,-147.89 983.24,-154.07 985.21,-147.36"/>
</a>
</g>
</g>
<!-- Node17 -->
<g id="Node000017" class="node">
<title>Node17</title>
<g id="a_Node000017"><a xlink:title=" ">
<polygon fill="#e0e0e0" stroke="#999999" points="1108.5,-147 1031,-147 1031,-126.25 1108.5,-126.25 1108.5,-147"/>
<text xml:space="preserve" text-anchor="middle" x="1069.75" y="-133.5" font-family="Helvetica,sans-Serif" font-size="10.00">ShowFlags.h</text>
</a>
</g>
</g>
<!-- Node1&#45;&gt;Node17 -->
<g id="edge17_Node000001_Node000017" class="edge">
<title>Node1&#45;&gt;Node17</title>
<g id="a_edge17_Node000001_Node000017"><a xlink:title=" ">
<path fill="none" stroke="#63b8ff" d="M1143.27,-182.51C1127.02,-172.59 1109.46,-161.87 1095.57,-153.39"/>
<polygon fill="#63b8ff" stroke="#63b8ff" points="1097.4,-150.41 1087.05,-148.18 1093.76,-156.38 1097.4,-150.41"/>
</a>
</g>
</g>
<!-- Node18 -->
<g id="Node000018" class="node">
<title>Node18</title>
<g id="a_Node000018"><a xlink:href="ScriptViewportClient_8h.html" target="_top" xlink:title=" ">
<polygon fill="white" stroke="#666666" points="1434.12,-147 1273.38,-147 1273.38,-126.25 1434.12,-126.25 1434.12,-147"/>
<text xml:space="preserve" text-anchor="middle" x="1353.75" y="-133.5" font-family="Helvetica,sans-Serif" font-size="10.00">Engine/ScriptViewportClient.h</text>
</a>
</g>
</g>
<!-- Node1&#45;&gt;Node18 -->
<g id="edge18_Node000001_Node000018" class="edge">
<title>Node1&#45;&gt;Node18</title>
<g id="a_edge18_Node000001_Node000018"><a xlink:title=" ">
<path fill="none" stroke="#63b8ff" d="M1254.7,-182.51C1277.78,-172.06 1302.82,-160.71 1321.95,-152.04"/>
<polygon fill="#63b8ff" stroke="#63b8ff" points="1323.15,-155.34 1330.81,-148.02 1320.26,-148.96 1323.15,-155.34"/>
</a>
</g>
</g>
<!-- Node21 -->
<g id="Node000021" class="node">
<title>Node21</title>
<g id="a_Node000021"><a xlink:href="ViewportSplitScreen_8h.html" target="_top" xlink:title=" ">
<polygon fill="white" stroke="#666666" points="1798.38,-147 1639.12,-147 1639.12,-126.25 1798.38,-126.25 1798.38,-147"/>
<text xml:space="preserve" text-anchor="middle" x="1718.75" y="-133.5" font-family="Helvetica,sans-Serif" font-size="10.00">Engine/ViewportSplitScreen.h</text>
</a>
</g>
</g>
<!-- Node1&#45;&gt;Node21 -->
<g id="edge24_Node000001_Node000021" class="edge">
<title>Node1&#45;&gt;Node21</title>
<g id="a_edge24_Node000001_Node000021"><a xlink:title=" ">
<path fill="none" stroke="#63b8ff" d="M1257.35,-202.18C1354.05,-188.65 1533.13,-163.6 1637.47,-149"/>
<polygon fill="#63b8ff" stroke="#63b8ff" points="1637.65,-152.51 1647.07,-147.65 1636.68,-145.57 1637.65,-152.51"/>
</a>
</g>
</g>
<!-- Node23 -->
<g id="Node000023" class="node">
<title>Node23</title>
<g id="a_Node000023"><a xlink:href="TitleSafeZone_8h.html" target="_top" xlink:title=" ">
<polygon fill="white" stroke="#666666" points="1255,-147 1126.5,-147 1126.5,-126.25 1255,-126.25 1255,-147"/>
<text xml:space="preserve" text-anchor="middle" x="1190.75" y="-133.5" font-family="Helvetica,sans-Serif" font-size="10.00">Engine/TitleSafeZone.h</text>
</a>
</g>
</g>
<!-- Node1&#45;&gt;Node23 -->
<g id="edge27_Node000001_Node000023" class="edge">
<title>Node1&#45;&gt;Node23</title>
<g id="a_edge27_Node000001_Node000023"><a xlink:title=" ">
<path fill="none" stroke="#63b8ff" d="M1190.75,-182.73C1190.75,-174.73 1190.75,-166.2 1190.75,-158.74"/>
<polygon fill="#63b8ff" stroke="#63b8ff" points="1194.25,-158.97 1190.75,-148.97 1187.25,-158.97 1194.25,-158.97"/>
</a>
</g>
</g>
<!-- Node24 -->
<g id="Node000024" class="node">
<title>Node24</title>
<g id="a_Node000024"><a xlink:href="GameViewportDelegates_8h.html" target="_top" xlink:title=" ">
<polygon fill="white" stroke="#666666" points="662.38,-147 479.12,-147 479.12,-126.25 662.38,-126.25 662.38,-147"/>
<text xml:space="preserve" text-anchor="middle" x="570.75" y="-133.5" font-family="Helvetica,sans-Serif" font-size="10.00">Engine/GameViewportDelegates.h</text>
</a>
</g>
</g>
<!-- Node1&#45;&gt;Node24 -->
<g id="edge29_Node000001_Node000024" class="edge">
<title>Node1&#45;&gt;Node24</title>
<g id="a_edge29_Node000001_Node000024"><a xlink:title=" ">
<path fill="none" stroke="#63b8ff" d="M1124.4,-203.59C1013.79,-190.42 791.4,-163.92 664.72,-148.82"/>
<polygon fill="#63b8ff" stroke="#63b8ff" points="665.36,-145.37 655.02,-147.67 664.54,-152.32 665.36,-145.37"/>
</a>
</g>
</g>
<!-- Node26 -->
<g id="Node000026" class="node">
<title>Node26</title>
<g id="a_Node000026"><a xlink:href="DebugDisplayProperty_8h.html" target="_top" xlink:title=" ">
<polygon fill="white" stroke="#666666" points="1621.25,-147 1452.25,-147 1452.25,-126.25 1621.25,-126.25 1621.25,-147"/>
<text xml:space="preserve" text-anchor="middle" x="1536.75" y="-133.5" font-family="Helvetica,sans-Serif" font-size="10.00">Engine/DebugDisplayProperty.h</text>
</a>
</g>
</g>
<!-- Node1&#45;&gt;Node26 -->
<g id="edge34_Node000001_Node000026" class="edge">
<title>Node1&#45;&gt;Node26</title>
<g id="a_edge34_Node000001_Node000026"><a xlink:title=" ">
<path fill="none" stroke="#63b8ff" d="M1257.05,-197.34C1321.52,-183.58 1418.43,-162.89 1479.59,-149.83"/>
<polygon fill="#63b8ff" stroke="#63b8ff" points="1480.05,-153.31 1489.1,-147.8 1478.59,-146.46 1480.05,-153.31"/>
</a>
</g>
</g>
<!-- Node29 -->
<g id="Node000029" class="node">
<title>Node29</title>
<g id="a_Node000029"><a xlink:title=" ">
<polygon fill="#e0e0e0" stroke="#999999" points="1994.62,-147 1854.88,-147 1854.88,-126.25 1994.62,-126.25 1994.62,-147"/>
<text xml:space="preserve" text-anchor="middle" x="1924.75" y="-133.5" font-family="Helvetica,sans-Serif" font-size="10.00">UObject/SoftObjectPath.h</text>
</a>
</g>
</g>
<!-- Node1&#45;&gt;Node29 -->
<g id="edge39_Node000001_Node000029" class="edge">
<title>Node1&#45;&gt;Node29</title>
<g id="a_edge39_Node000001_Node000029"><a xlink:title=" ">
<path fill="none" stroke="#63b8ff" d="M1257.21,-205.18C1374.89,-193.92 1627.6,-169.47 1840.75,-147 1841.6,-146.91 1842.45,-146.82 1843.31,-146.73"/>
<polygon fill="#63b8ff" stroke="#63b8ff" points="1843.56,-150.22 1853.13,-145.68 1842.81,-143.26 1843.56,-150.22"/>
</a>
</g>
</g>
<!-- Node30 -->
<g id="Node000030" class="node">
<title>Node30</title>
<g id="a_Node000030"><a xlink:title=" ">
<polygon fill="#e0e0e0" stroke="#999999" points="2118.75,-147 2012.75,-147 2012.75,-126.25 2118.75,-126.25 2118.75,-147"/>
<text xml:space="preserve" text-anchor="middle" x="2065.75" y="-133.5" font-family="Helvetica,sans-Serif" font-size="10.00">StereoRendering.h</text>
</a>
</g>
</g>
<!-- Node1&#45;&gt;Node30 -->
<g id="edge40_Node000001_Node000030" class="edge">
<title>Node1&#45;&gt;Node30</title>
<g id="a_edge40_Node000001_Node000030"><a xlink:title=" ">
<path fill="none" stroke="#63b8ff" d="M1257.3,-207.82C1394.44,-199.9 1718.66,-179.37 2001.05,-147.24"/>
<polygon fill="#63b8ff" stroke="#63b8ff" points="2001.31,-150.73 2010.84,-146.12 2000.51,-143.78 2001.31,-150.73"/>
</a>
</g>
</g>
<!-- Node31 -->
<g id="Node000031" class="node">
<title>Node31</title>
<g id="a_Node000031"><a xlink:title=" ">
<polygon fill="#e0e0e0" stroke="#999999" points="2258.25,-147 2137.25,-147 2137.25,-126.25 2258.25,-126.25 2258.25,-147"/>
<text xml:space="preserve" text-anchor="middle" x="2197.75" y="-133.5" font-family="Helvetica,sans-Serif" font-size="10.00">AudioDeviceHandle.h</text>
</a>
</g>
</g>
<!-- Node1&#45;&gt;Node31 -->
<g id="edge41_Node000001_Node000031" class="edge">
<title>Node1&#45;&gt;Node31</title>
<g id="a_edge41_Node000001_Node000031"><a xlink:title=" ">
<path fill="none" stroke="#63b8ff" d="M1257.34,-208.39C1409.25,-200.98 1793.32,-180.45 2125.76,-147.13"/>
<polygon fill="#63b8ff" stroke="#63b8ff" points="2125.97,-150.63 2135.57,-146.15 2125.27,-143.67 2125.97,-150.63"/>
</a>
</g>
</g>
<!-- Node32 -->
<g id="Node000032" class="node">
<title>Node32</title>
<g id="a_Node000032"><a xlink:title=" ">
<polygon fill="#e0e0e0" stroke="#999999" points="2455.12,-147 2276.38,-147 2276.38,-126.25 2455.12,-126.25 2455.12,-147"/>
<text xml:space="preserve" text-anchor="middle" x="2365.75" y="-133.5" font-family="Helvetica,sans-Serif" font-size="10.00">GameViewportClient.generated.h</text>
</a>
</g>
</g>
<!-- Node1&#45;&gt;Node32 -->
<g id="edge42_Node000001_Node000032" class="edge">
<title>Node1&#45;&gt;Node32</title>
<g id="a_edge42_Node000001_Node000032"><a xlink:title=" ">
<path fill="none" stroke="#63b8ff" d="M1257.3,-208.34C1424.62,-200.21 1876.67,-177.17 2264.58,-147.22"/>
<polygon fill="#63b8ff" stroke="#63b8ff" points="2264.83,-150.71 2274.53,-146.45 2264.29,-143.74 2264.83,-150.71"/>
</a>
</g>
</g>
<!-- Node6&#45;&gt;Node4 -->
<g id="edge7_Node000006_Node000004" class="edge">
<title>Node6&#45;&gt;Node4</title>
<g id="a_edge7_Node000006_Node000004"><a xlink:title=" ">
<path fill="none" stroke="#63b8ff" d="M470.05,-70.3C472.99,-70.02 475.9,-69.75 478.75,-69.5 497.78,-67.83 1041.56,-34.96 1248.15,-22.49"/>
<polygon fill="#63b8ff" stroke="#63b8ff" points="1248.22,-25.99 1257.99,-21.9 1247.8,-19.01 1248.22,-25.99"/>
</a>
</g>
</g>
<!-- Node7 -->
<g id="Node000007" class="node">
<title>Node7</title>
<g id="a_Node000007"><a xlink:title=" ">
<polygon fill="#e0e0e0" stroke="#999999" points="624,-27.12 495.5,-27.12 495.5,-6.38 624,-6.38 624,-27.12"/>
<text xml:space="preserve" text-anchor="middle" x="559.75" y="-13.62" font-family="Helvetica,sans-Serif" font-size="10.00">Async/TaskGraphFwd.h</text>
</a>
</g>
</g>
<!-- Node6&#45;&gt;Node7 -->
<g id="edge6_Node000006_Node000007" class="edge">
<title>Node6&#45;&gt;Node7</title>
<g id="a_edge6_Node000006_Node000007"><a xlink:title=" ">
<path fill="none" stroke="#63b8ff" d="M422.94,-69.05C450.03,-58.9 492.56,-42.95 523.01,-31.53"/>
<polygon fill="#63b8ff" stroke="#63b8ff" points="524.07,-34.87 532.21,-28.08 521.62,-28.31 524.07,-34.87"/>
</a>
</g>
</g>
<!-- Node8 -->
<g id="Node000008" class="node">
<title>Node8</title>
<g id="a_Node000008"><a xlink:title=" ">
<polygon fill="#e0e0e0" stroke="#999999" points="1057,-27.12 958.5,-27.12 958.5,-6.38 1057,-6.38 1057,-27.12"/>
<text xml:space="preserve" text-anchor="middle" x="1007.75" y="-13.62" font-family="Helvetica,sans-Serif" font-size="10.00">UObject/Object.h</text>
</a>
</g>
</g>
<!-- Node6&#45;&gt;Node8 -->
<g id="edge8_Node000006_Node000008" class="edge">
<title>Node6&#45;&gt;Node8</title>
<g id="a_edge8_Node000006_Node000008"><a xlink:title=" ">
<path fill="none" stroke="#63b8ff" d="M470.06,-70.39C472.99,-70.08 475.9,-69.78 478.75,-69.5 666.94,-50.76 714.92,-55.54 902.75,-33.5 917.05,-31.82 932.4,-29.7 946.83,-27.56"/>
<polygon fill="#63b8ff" stroke="#63b8ff" points="947.3,-31.03 956.67,-26.08 946.26,-24.11 947.3,-31.03"/>
</a>
</g>
</g>
<!-- Node9 -->
<g id="Node000009" class="node">
<title>Node9</title>
<g id="a_Node000009"><a xlink:title=" ">
<polygon fill="#e0e0e0" stroke="#999999" points="735.38,-27.12 642.12,-27.12 642.12,-6.38 735.38,-6.38 735.38,-27.12"/>
<text xml:space="preserve" text-anchor="middle" x="688.75" y="-13.62" font-family="Helvetica,sans-Serif" font-size="10.00">UObject/Class.h</text>
</a>
</g>
</g>
<!-- Node6&#45;&gt;Node9 -->
<g id="edge9_Node000006_Node000009" class="edge">
<title>Node6&#45;&gt;Node9</title>
<g id="a_edge9_Node000006_Node000009"><a xlink:title=" ">
<path fill="none" stroke="#63b8ff" d="M455.23,-69.04C503.17,-60.65 572.66,-47.7 632.75,-33.5 636.55,-32.6 640.48,-31.62 644.42,-30.59"/>
<polygon fill="#63b8ff" stroke="#63b8ff" points="645.2,-34 653.95,-28.02 643.38,-27.24 645.2,-34"/>
</a>
</g>
</g>
<!-- Node10 -->
<g id="Node000010" class="node">
<title>Node10</title>
<g id="a_Node000010"><a xlink:title=" ">
<polygon fill="#e0e0e0" stroke="#999999" points="893.62,-27.12 753.88,-27.12 753.88,-6.38 893.62,-6.38 893.62,-27.12"/>
<text xml:space="preserve" text-anchor="middle" x="823.75" y="-13.62" font-family="Helvetica,sans-Serif" font-size="10.00">UObject/WeakObjectPtr.h</text>
</a>
</g>
</g>
<!-- Node6&#45;&gt;Node10 -->
<g id="edge10_Node000006_Node000010" class="edge">
<title>Node6&#45;&gt;Node10</title>
<g id="a_edge10_Node000006_Node000010"><a xlink:title=" ">
<path fill="none" stroke="#63b8ff" d="M470.12,-69.9C556.15,-59.27 693.5,-41.94 744.75,-33.5 751.63,-32.37 758.83,-31.08 765.96,-29.74"/>
<polygon fill="#63b8ff" stroke="#63b8ff" points="766.41,-33.21 775.57,-27.88 765.09,-26.34 766.41,-33.21"/>
</a>
</g>
</g>
<!-- Node11 -->
<g id="Node000011" class="node">
<title>Node11</title>
<g id="a_Node000011"><a xlink:title=" ">
<polygon fill="#e0e0e0" stroke="#999999" points="95.5,-27.12 0,-27.12 0,-6.38 95.5,-6.38 95.5,-27.12"/>
<text xml:space="preserve" text-anchor="middle" x="47.75" y="-13.62" font-family="Helvetica,sans-Serif" font-size="10.00">Misc/CoreMisc.h</text>
</a>
</g>
</g>
<!-- Node6&#45;&gt;Node11 -->
<g id="edge11_Node000006_Node000011" class="edge">
<title>Node6&#45;&gt;Node11</title>
<g id="a_edge11_Node000006_Node000011"><a xlink:title=" ">
<path fill="none" stroke="#63b8ff" d="M323.42,-69.87C264.11,-62.01 178.6,-49.39 104.75,-33.5 100.47,-32.58 96.03,-31.53 91.61,-30.42"/>
<polygon fill="#63b8ff" stroke="#63b8ff" points="92.77,-27.1 82.21,-27.95 90.99,-33.87 92.77,-27.1"/>
</a>
</g>
</g>
<!-- Node12 -->
<g id="Node000012" class="node">
<title>Node12</title>
<g id="a_Node000012"><a xlink:title=" ">
<polygon fill="#e0e0e0" stroke="#999999" points="230,-33.5 113.5,-33.5 113.5,0 230,0 230,-33.5"/>
<text xml:space="preserve" text-anchor="start" x="121.5" y="-20" font-family="Helvetica,sans-Serif" font-size="10.00">Net/Core/Connection</text>
<text xml:space="preserve" text-anchor="middle" x="171.75" y="-7.25" font-family="Helvetica,sans-Serif" font-size="10.00">/NetEnums.h</text>
</a>
</g>
</g>
<!-- Node6&#45;&gt;Node12 -->
<g id="edge12_Node000006_Node000012" class="edge">
<title>Node6&#45;&gt;Node12</title>
<g id="a_edge12_Node000006_Node000012"><a xlink:title=" ">
<path fill="none" stroke="#63b8ff" d="M360.6,-69.05C328.47,-60.32 280.6,-47.32 241.09,-36.59"/>
<polygon fill="#63b8ff" stroke="#63b8ff" points="242.22,-33.27 231.65,-34.02 240.39,-40.02 242.22,-33.27"/>
</a>
</g>
</g>
<!-- Node13 -->
<g id="Node000013" class="node">
<title>Node13</title>
<g id="a_Node000013"><a xlink:title=" ">
<polygon fill="#e0e0e0" stroke="#999999" points="297.62,-27.12 247.88,-27.12 247.88,-6.38 297.62,-6.38 297.62,-27.12"/>
<text xml:space="preserve" text-anchor="middle" x="272.75" y="-13.62" font-family="Helvetica,sans-Serif" font-size="10.00">atomic</text>
</a>
</g>
</g>
<!-- Node6&#45;&gt;Node13 -->
<g id="edge13_Node000006_Node000013" class="edge">
<title>Node6&#45;&gt;Node13</title>
<g id="a_edge13_Node000006_Node000013"><a xlink:title=" ">
<path fill="none" stroke="#63b8ff" d="M376.83,-69.05C356.85,-59.21 325.84,-43.92 302.86,-32.59"/>
<polygon fill="#63b8ff" stroke="#63b8ff" points="304.5,-29.5 293.98,-28.22 301.4,-35.78 304.5,-29.5"/>
</a>
</g>
</g>
<!-- Node14 -->
<g id="Node000014" class="node">
<title>Node14</title>
<g id="a_Node000014"><a xlink:title=" ">
<polygon fill="#e0e0e0" stroke="#999999" points="477.88,-27.12 315.62,-27.12 315.62,-6.38 477.88,-6.38 477.88,-27.12"/>
<text xml:space="preserve" text-anchor="middle" x="396.75" y="-13.62" font-family="Helvetica,sans-Serif" font-size="10.00">EngineBaseTypes.generated.h</text>
</a>
</g>
</g>
<!-- Node6&#45;&gt;Node14 -->
<g id="edge14_Node000006_Node000014" class="edge">
<title>Node6&#45;&gt;Node14</title>
<g id="a_edge14_Node000006_Node000014"><a xlink:title=" ">
<path fill="none" stroke="#63b8ff" d="M396.75,-69.05C396.75,-60.9 396.75,-49.01 396.75,-38.73"/>
<polygon fill="#63b8ff" stroke="#63b8ff" points="400.25,-38.86 396.75,-28.86 393.25,-38.86 400.25,-38.86"/>
</a>
</g>
</g>
<!-- Node18&#45;&gt;Node2 -->
<g id="edge19_Node000018_Node000002" class="edge">
<title>Node18&#45;&gt;Node2</title>
<g id="a_edge19_Node000018_Node000002"><a xlink:title=" ">
<path fill="none" stroke="#63b8ff" d="M1273.05,-127.2C1162.3,-115.64 972.03,-95.76 922.89,-90.23"/>
<polygon fill="#63b8ff" stroke="#63b8ff" points="923.52,-86.78 913.17,-89.07 922.69,-93.73 923.52,-86.78"/>
</a>
</g>
</g>
<!-- Node18&#45;&gt;Node4 -->
<g id="edge20_Node000018_Node000004" class="edge">
<title>Node18&#45;&gt;Node4</title>
<g id="a_edge20_Node000018_Node000004"><a xlink:title=" ">
<path fill="none" stroke="#63b8ff" d="M1341.03,-126.04C1331.22,-117.79 1318.39,-104.91 1312.75,-90.25 1306.21,-73.26 1311.24,-52.8 1317.01,-37.96"/>
<polygon fill="#63b8ff" stroke="#63b8ff" points="1320.2,-39.39 1320.99,-28.82 1313.79,-36.59 1320.2,-39.39"/>
</a>
</g>
</g>
<!-- Node18&#45;&gt;Node8 -->
<g id="edge21_Node000018_Node000008" class="edge">
<title>Node18&#45;&gt;Node8</title>
<g id="a_edge21_Node000018_Node000008"><a xlink:title=" ">
<path fill="none" stroke="#63b8ff" d="M1276.73,-125.8C1200.08,-115.59 1091.39,-99.81 1073.75,-90.25 1050.57,-77.69 1031.29,-53.8 1019.66,-36.88"/>
<polygon fill="#63b8ff" stroke="#63b8ff" points="1022.69,-35.11 1014.28,-28.67 1016.84,-38.95 1022.69,-35.11"/>
</a>
</g>
</g>
<!-- Node19 -->
<g id="Node000019" class="node">
<title>Node19</title>
<g id="a_Node000019"><a xlink:title=" ">
<polygon fill="#e0e0e0" stroke="#999999" points="1026.25,-90.25 929.25,-90.25 929.25,-69.5 1026.25,-69.5 1026.25,-90.25"/>
<text xml:space="preserve" text-anchor="middle" x="977.75" y="-76.75" font-family="Helvetica,sans-Serif" font-size="10.00">ViewportClient.h</text>
</a>
</g>
</g>
<!-- Node18&#45;&gt;Node19 -->
<g id="edge22_Node000018_Node000019" class="edge">
<title>Node18&#45;&gt;Node19</title>
<g id="a_edge22_Node000018_Node000019"><a xlink:title=" ">
<path fill="none" stroke="#63b8ff" d="M1285.35,-125.79C1221.94,-116.64 1124.95,-102.62 1040.75,-90.25 1039.74,-90.1 1038.73,-89.95 1037.71,-89.8"/>
<polygon fill="#63b8ff" stroke="#63b8ff" points="1038.49,-86.38 1028.08,-88.38 1037.47,-93.3 1038.49,-86.38"/>
</a>
</g>
</g>
<!-- Node20 -->
<g id="Node000020" class="node">
<title>Node20</title>
<g id="a_Node000020"><a xlink:title=" ">
<polygon fill="#e0e0e0" stroke="#999999" points="1260.38,-90.25 1083.12,-90.25 1083.12,-69.5 1260.38,-69.5 1260.38,-90.25"/>
<text xml:space="preserve" text-anchor="middle" x="1171.75" y="-76.75" font-family="Helvetica,sans-Serif" font-size="10.00">ScriptViewportClient.generated.h</text>
</a>
</g>
</g>
<!-- Node18&#45;&gt;Node20 -->
<g id="edge23_Node000018_Node000020" class="edge">
<title>Node18&#45;&gt;Node20</title>
<g id="a_edge23_Node000018_Node000020"><a xlink:title=" ">
<path fill="none" stroke="#63b8ff" d="M1321.21,-125.84C1291.67,-116.95 1247.87,-103.77 1215.32,-93.98"/>
<polygon fill="#63b8ff" stroke="#63b8ff" points="1216.35,-90.64 1205.76,-91.11 1214.33,-97.34 1216.35,-90.64"/>
</a>
</g>
</g>
<!-- Node21&#45;&gt;Node4 -->
<g id="edge25_Node000021_Node000004" class="edge">
<title>Node21&#45;&gt;Node4</title>
<g id="a_edge25_Node000021_Node000004"><a xlink:title=" ">
<path fill="none" stroke="#63b8ff" d="M1719.02,-125.81C1718.85,-111.16 1716.17,-83.74 1699.75,-69.5 1657.04,-32.46 1501.76,-21.84 1405.53,-18.86"/>
<polygon fill="#63b8ff" stroke="#63b8ff" points="1405.71,-15.36 1395.61,-18.58 1405.51,-22.36 1405.71,-15.36"/>
</a>
</g>
</g>
<!-- Node22 -->
<g id="Node000022" class="node">
<title>Node22</title>
<g id="a_Node000022"><a xlink:title=" ">
<polygon fill="#e0e0e0" stroke="#999999" points="1922.62,-90.25 1746.88,-90.25 1746.88,-69.5 1922.62,-69.5 1922.62,-90.25"/>
<text xml:space="preserve" text-anchor="middle" x="1834.75" y="-76.75" font-family="Helvetica,sans-Serif" font-size="10.00">ViewportSplitScreen.generated.h</text>
</a>
</g>
</g>
<!-- Node21&#45;&gt;Node22 -->
<g id="edge26_Node000021_Node000022" class="edge">
<title>Node21&#45;&gt;Node22</title>
<g id="a_edge26_Node000021_Node000022"><a xlink:title=" ">
<path fill="none" stroke="#63b8ff" d="M1739.49,-125.84C1757.39,-117.39 1783.49,-105.07 1803.85,-95.46"/>
<polygon fill="#63b8ff" stroke="#63b8ff" points="1805.27,-98.66 1812.82,-91.22 1802.29,-92.33 1805.27,-98.66"/>
</a>
</g>
</g>
<!-- Node23&#45;&gt;Node2 -->
<g id="edge28_Node000023_Node000002" class="edge">
<title>Node23&#45;&gt;Node2</title>
<g id="a_edge28_Node000023_Node000002"><a xlink:title=" ">
<path fill="none" stroke="#63b8ff" d="M1131.2,-125.77C1078.94,-117.08 1000.55,-103.97 922.69,-90.57"/>
<polygon fill="#63b8ff" stroke="#63b8ff" points="923.65,-87.19 913.2,-88.94 922.46,-94.08 923.65,-87.19"/>
</a>
</g>
</g>
<!-- Node24&#45;&gt;Node2 -->
<g id="edge30_Node000024_Node000002" class="edge">
<title>Node24&#45;&gt;Node2</title>
<g id="a_edge30_Node000024_Node000002"><a xlink:title=" ">
<path fill="none" stroke="#63b8ff" d="M624.19,-125.77C677.51,-115.94 759.05,-100.91 812.87,-90.99"/>
<polygon fill="#63b8ff" stroke="#63b8ff" points="813.23,-94.48 822.43,-89.23 811.96,-87.6 813.23,-94.48"/>
</a>
</g>
</g>
<!-- Node24&#45;&gt;Node5 -->
<g id="edge31_Node000024_Node000005" class="edge">
<title>Node24&#45;&gt;Node5</title>
<g id="a_edge31_Node000024_Node000005"><a xlink:title=" ">
<path fill="none" stroke="#63b8ff" d="M564.85,-125.84C560.58,-118.75 554.67,-108.94 549.45,-100.29"/>
<polygon fill="#63b8ff" stroke="#63b8ff" points="552.54,-98.63 544.38,-91.87 546.54,-102.25 552.54,-98.63"/>
</a>
</g>
</g>
<!-- Node24&#45;&gt;Node6 -->
<g id="edge32_Node000024_Node000006" class="edge">
<title>Node24&#45;&gt;Node6</title>
<g id="a_edge32_Node000024_Node000006"><a xlink:title=" ">
<path fill="none" stroke="#63b8ff" d="M539.64,-125.84C511.52,-116.99 469.89,-103.89 438.81,-94.11"/>
<polygon fill="#63b8ff" stroke="#63b8ff" points="439.91,-90.79 429.32,-91.12 437.81,-97.47 439.91,-90.79"/>
</a>
</g>
</g>
<!-- Node25 -->
<g id="Node000025" class="node">
<title>Node25</title>
<g id="a_Node000025"><a xlink:title=" ">
<polygon fill="#e0e0e0" stroke="#999999" points="805.62,-90.25 605.88,-90.25 605.88,-69.5 805.62,-69.5 805.62,-90.25"/>
<text xml:space="preserve" text-anchor="middle" x="705.75" y="-76.75" font-family="Helvetica,sans-Serif" font-size="10.00">GenericPlatform/GenericApplication.h</text>
</a>
</g>
</g>
<!-- Node24&#45;&gt;Node25 -->
<g id="edge33_Node000024_Node000025" class="edge">
<title>Node24&#45;&gt;Node25</title>
<g id="a_edge33_Node000024_Node000025"><a xlink:title=" ">
<path fill="none" stroke="#63b8ff" d="M594.89,-125.84C616.19,-117.19 647.5,-104.5 671.42,-94.8"/>
<polygon fill="#63b8ff" stroke="#63b8ff" points="672.47,-98.15 680.42,-91.15 669.84,-91.66 672.47,-98.15"/>
</a>
</g>
</g>
<!-- Node26&#45;&gt;Node2 -->
<g id="edge35_Node000026_Node000002" class="edge">
<title>Node26&#45;&gt;Node2</title>
<g id="a_edge35_Node000026_Node000002"><a xlink:title=" ">
<path fill="none" stroke="#63b8ff" d="M1451.96,-127.05C1448.85,-126.77 1445.77,-126.5 1442.75,-126.25 1214.64,-107.01 1153.47,-118.18 922.77,-90.37"/>
<polygon fill="#63b8ff" stroke="#63b8ff" points="923.51,-86.93 913.16,-89.19 922.66,-93.88 923.51,-86.93"/>
</a>
</g>
</g>
<!-- Node26&#45;&gt;Node4 -->
<g id="edge36_Node000026_Node000004" class="edge">
<title>Node26&#45;&gt;Node4</title>
<g id="a_edge36_Node000026_Node000004"><a xlink:title=" ">
<path fill="none" stroke="#63b8ff" d="M1461.37,-125.78C1415.39,-118.28 1362.36,-106.48 1345.75,-90.25 1331.96,-76.77 1327.77,-54.6 1326.68,-38.31"/>
<polygon fill="#63b8ff" stroke="#63b8ff" points="1330.19,-38.66 1326.4,-28.77 1323.2,-38.87 1330.19,-38.66"/>
</a>
</g>
</g>
<!-- Node27 -->
<g id="Node000027" class="node">
<title>Node27</title>
<g id="a_Node000027"><a xlink:title=" ">
<polygon fill="#e0e0e0" stroke="#999999" points="1486.5,-90.25 1355,-90.25 1355,-69.5 1486.5,-69.5 1486.5,-90.25"/>
<text xml:space="preserve" text-anchor="middle" x="1420.75" y="-76.75" font-family="Helvetica,sans-Serif" font-size="10.00">Templates/SubclassOf.h</text>
</a>
</g>
</g>
<!-- Node26&#45;&gt;Node27 -->
<g id="edge37_Node000026_Node000027" class="edge">
<title>Node26&#45;&gt;Node27</title>
<g id="a_edge37_Node000026_Node000027"><a xlink:title=" ">
<path fill="none" stroke="#63b8ff" d="M1516.01,-125.84C1498.11,-117.39 1472.01,-105.07 1451.65,-95.46"/>
<polygon fill="#63b8ff" stroke="#63b8ff" points="1453.21,-92.33 1442.68,-91.22 1450.23,-98.66 1453.21,-92.33"/>
</a>
</g>
</g>
<!-- Node28 -->
<g id="Node000028" class="node">
<title>Node28</title>
<g id="a_Node000028"><a xlink:title=" ">
<polygon fill="#e0e0e0" stroke="#999999" points="1690.5,-90.25 1505,-90.25 1505,-69.5 1690.5,-69.5 1690.5,-90.25"/>
<text xml:space="preserve" text-anchor="middle" x="1597.75" y="-76.75" font-family="Helvetica,sans-Serif" font-size="10.00">DebugDisplayProperty.generated.h</text>
</a>
</g>
</g>
<!-- Node26&#45;&gt;Node28 -->
<g id="edge38_Node000026_Node000028" class="edge">
<title>Node26&#45;&gt;Node28</title>
<g id="a_edge38_Node000026_Node000028"><a xlink:title=" ">
<path fill="none" stroke="#63b8ff" d="M1547.66,-125.84C1556.24,-118.13 1568.42,-107.2 1578.63,-98.04"/>
<polygon fill="#63b8ff" stroke="#63b8ff" points="1580.71,-100.87 1585.81,-91.59 1576.03,-95.66 1580.71,-100.87"/>
</a>
</g>
</g>
</g>
</svg>
