<?xml version="1.0" encoding="UTF-8" standalone="no"?>
<!DOCTYPE svg PUBLIC "-//W3C//DTD SVG 1.1//EN"
 "http://www.w3.org/Graphics/SVG/1.1/DTD/svg11.dtd">
<!-- Generated by graphviz version 14.1.4 (0)
 -->
<!-- Title: /opt/unreal&#45;engine/Engine/Source/Runtime/Engine/Classes/Engine/HitResult.h Pages: 1 -->
<svg width="1142pt" height="339pt"
 viewBox="0.00 0.00 1142.00 339.00" xmlns="http://www.w3.org/2000/svg" xmlns:xlink="http://www.w3.org/1999/xlink">
<g id="graph0" class="graph" transform="scale(1 1) rotate(0) translate(4 335.25)">
<title>/opt/unreal&#45;engine/Engine/Source/Runtime/Engine/Classes/Engine/HitResult.h</title>
<!-- Node1 -->
<g id="Node000001" class="node">
<title>Node1</title>
<g id="a_Node000001"><a xlink:title=" ">
<polygon fill="#999999" stroke="#666666" points="472.62,-331.25 340.38,-331.25 340.38,-272.25 472.62,-272.25 472.62,-331.25"/>
<text xml:space="preserve" text-anchor="start" x="348.38" y="-317.75" font-family="Helvetica,sans-Serif" font-size="10.00">/opt/unreal&#45;engine</text>
<text xml:space="preserve" text-anchor="start" x="348.38" y="-305" font-family="Helvetica,sans-Serif" font-size="10.00">/Engine/Source/Runtime</text>
<text xml:space="preserve" text-anchor="start" x="348.38" y="-292.25" font-family="Helvetica,sans-Serif" font-size="10.00">/Engine/Classes/Engine</text>
<text xml:space="preserve" text-anchor="middle" x="406.5" y="-279.5" font-family="Helvetica,sans-Serif" font-size="10.00">/HitResult.h</text>
</a>
</g>
</g>
<!-- Node2 -->
<g id="Node000002" class="node">
<title>Node2</title>
<g id="a_Node000002"><a xlink:href="DamageEvents_8h.html" target="_top" xlink:title=" ">
<polygon fill="white" stroke="#666666" points="315.62,-236.25 183.38,-236.25 183.38,-177.25 315.62,-177.25 315.62,-236.25"/>
<text xml:space="preserve" text-anchor="start" x="191.38" y="-222.75" font-family="Helvetica,sans-Serif" font-size="10.00">/opt/unreal&#45;engine</text>
<text xml:space="preserve" text-anchor="start" x="191.38" y="-210" font-family="Helvetica,sans-Serif" font-size="10.00">/Engine/Source/Runtime</text>
<text xml:space="preserve" text-anchor="start" x="191.38" y="-197.25" font-family="Helvetica,sans-Serif" font-size="10.00">/Engine/Classes/Engine</text>
<text xml:space="preserve" text-anchor="middle" x="249.5" y="-184.5" font-family="Helvetica,sans-Serif" font-size="10.00">/DamageEvents.h</text>
</a>
</g>
</g>
<!-- Node1&#45;&gt;Node2 -->
<g id="edge1_Node000001_Node000002" class="edge">
<title>Node1&#45;&gt;Node2</title>
<g id="a_edge1_Node000001_Node000002"><a xlink:title=" ">
<path fill="none" stroke="#63b8ff" d="M348.19,-266.21C331.77,-256.48 314.08,-246.01 298.28,-236.65"/>
<polygon fill="#63b8ff" stroke="#63b8ff" points="345.99,-268.98 356.38,-271.06 349.56,-262.95 345.99,-268.98"/>
</a>
</g>
</g>
<!-- Node3 -->
<g id="Node000003" class="node">
<title>Node3</title>
<g id="a_Node000003"><a xlink:href="DebugCameraController_8h.html" target="_top" xlink:title=" ">
<polygon fill="white" stroke="#666666" points="479.38,-236.25 333.62,-236.25 333.62,-177.25 479.38,-177.25 479.38,-236.25"/>
<text xml:space="preserve" text-anchor="start" x="341.62" y="-222.75" font-family="Helvetica,sans-Serif" font-size="10.00">/opt/unreal&#45;engine</text>
<text xml:space="preserve" text-anchor="start" x="341.62" y="-210" font-family="Helvetica,sans-Serif" font-size="10.00">/Engine/Source/Runtime</text>
<text xml:space="preserve" text-anchor="start" x="341.62" y="-197.25" font-family="Helvetica,sans-Serif" font-size="10.00">/Engine/Classes/Engine</text>
<text xml:space="preserve" text-anchor="middle" x="406.5" y="-184.5" font-family="Helvetica,sans-Serif" font-size="10.00">/DebugCameraController.h</text>
</a>
</g>
</g>
<!-- Node1&#45;&gt;Node3 -->
<g id="edge2_Node000001_Node000003" class="edge">
<title>Node1&#45;&gt;Node3</title>
<g id="a_edge2_Node000001_Node000003"><a xlink:title=" ">
<path fill="none" stroke="#63b8ff" d="M406.5,-260.41C406.5,-252.41 406.5,-244.17 406.5,-236.65"/>
<polygon fill="#63b8ff" stroke="#63b8ff" points="403,-260.32 406.5,-270.32 410,-260.32 403,-260.32"/>
</a>
</g>
</g>
<!-- Node4 -->
<g id="Node000004" class="node">
<title>Node4</title>
<g id="a_Node000004"><a xlink:href="GameplayStaticsTypes_8h.html" target="_top" xlink:title=" ">
<polygon fill="white" stroke="#666666" points="636,-236.25 497,-236.25 497,-177.25 636,-177.25 636,-236.25"/>
<text xml:space="preserve" text-anchor="start" x="505" y="-222.75" font-family="Helvetica,sans-Serif" font-size="10.00">/opt/unreal&#45;engine</text>
<text xml:space="preserve" text-anchor="start" x="505" y="-210" font-family="Helvetica,sans-Serif" font-size="10.00">/Engine/Source/Runtime</text>
<text xml:space="preserve" text-anchor="start" x="505" y="-197.25" font-family="Helvetica,sans-Serif" font-size="10.00">/Engine/Classes/Kismet</text>
<text xml:space="preserve" text-anchor="middle" x="566.5" y="-184.5" font-family="Helvetica,sans-Serif" font-size="10.00">/GameplayStaticsTypes.h</text>
</a>
</g>
</g>
<!-- Node1&#45;&gt;Node4 -->
<g id="edge3_Node000001_Node000004" class="edge">
<title>Node1&#45;&gt;Node4</title>
<g id="a_edge3_Node000001_Node000004"><a xlink:title=" ">
<path fill="none" stroke="#63b8ff" d="M465.93,-266.21C482.66,-256.48 500.68,-246.01 516.78,-236.65"/>
<polygon fill="#63b8ff" stroke="#63b8ff" points="464.44,-263.02 457.56,-271.07 467.96,-269.07 464.44,-263.02"/>
</a>
</g>
</g>
<!-- Node5 -->
<g id="Node000005" class="node">
<title>Node5</title>
<g id="a_Node000005"><a xlink:href="GameplayStatics_8h.html" target="_top" xlink:title=" ">
<polygon fill="white" stroke="#666666" points="632.62,-141.25 500.38,-141.25 500.38,-82.25 632.62,-82.25 632.62,-141.25"/>
<text xml:space="preserve" text-anchor="start" x="508.38" y="-127.75" font-family="Helvetica,sans-Serif" font-size="10.00">/opt/unreal&#45;engine</text>
<text xml:space="preserve" text-anchor="start" x="508.38" y="-115" font-family="Helvetica,sans-Serif" font-size="10.00">/Engine/Source/Runtime</text>
<text xml:space="preserve" text-anchor="start" x="508.38" y="-102.25" font-family="Helvetica,sans-Serif" font-size="10.00">/Engine/Classes/Kismet</text>
<text xml:space="preserve" text-anchor="middle" x="566.5" y="-89.5" font-family="Helvetica,sans-Serif" font-size="10.00">/GameplayStatics.h</text>
</a>
</g>
</g>
<!-- Node4&#45;&gt;Node5 -->
<g id="edge4_Node000004_Node000005" class="edge">
<title>Node4&#45;&gt;Node5</title>
<g id="a_edge4_Node000004_Node000005"><a xlink:title=" ">
<path fill="none" stroke="#63b8ff" d="M566.5,-165.41C566.5,-157.41 566.5,-149.17 566.5,-141.65"/>
<polygon fill="#63b8ff" stroke="#63b8ff" points="563,-165.32 566.5,-175.32 570,-165.32 563,-165.32"/>
</a>
</g>
</g>
<!-- Node6 -->
<g id="Node000006" class="node">
<title>Node6</title>
<g id="a_Node000006"><a xlink:href="TowerEnemyPawn_8cpp.html" target="_top" xlink:title=" ">
<polygon fill="white" stroke="#666666" points="193,-39.88 0,-39.88 0,-6.38 193,-6.38 193,-39.88"/>
<text xml:space="preserve" text-anchor="start" x="8" y="-26.38" font-family="Helvetica,sans-Serif" font-size="10.00">Source/Tower/Private</text>
<text xml:space="preserve" text-anchor="middle" x="96.5" y="-13.62" font-family="Helvetica,sans-Serif" font-size="10.00">/Actor/Enemy/TowerEnemyPawn.cpp</text>
</a>
</g>
</g>
<!-- Node5&#45;&gt;Node6 -->
<g id="edge5_Node000005_Node000006" class="edge">
<title>Node5&#45;&gt;Node6</title>
<g id="a_edge5_Node000005_Node000006"><a xlink:title=" ">
<path fill="none" stroke="#63b8ff" d="M488.93,-97.71C415.15,-85.14 301.1,-65.27 202.5,-46.25 192.9,-44.4 182.83,-42.39 172.87,-40.35"/>
<polygon fill="#63b8ff" stroke="#63b8ff" points="488.03,-101.1 498.47,-99.33 489.2,-94.2 488.03,-101.1"/>
</a>
</g>
</g>
<!-- Node7 -->
<g id="Node000007" class="node">
<title>Node7</title>
<g id="a_Node000007"><a xlink:href="TowerLinearProjectile_8cpp.html" target="_top" xlink:title=" ">
<polygon fill="white" stroke="#666666" points="365.88,-46.25 211.12,-46.25 211.12,0 365.88,0 365.88,-46.25"/>
<text xml:space="preserve" text-anchor="start" x="219.12" y="-32.75" font-family="Helvetica,sans-Serif" font-size="10.00">Source/Tower/Private</text>
<text xml:space="preserve" text-anchor="start" x="219.12" y="-20" font-family="Helvetica,sans-Serif" font-size="10.00">/Actor/Projectile/TowerLinear</text>
<text xml:space="preserve" text-anchor="middle" x="288.5" y="-7.25" font-family="Helvetica,sans-Serif" font-size="10.00">Projectile.cpp</text>
</a>
</g>
</g>
<!-- Node5&#45;&gt;Node7 -->
<g id="edge6_Node000005_Node000007" class="edge">
<title>Node5&#45;&gt;Node7</title>
<g id="a_edge6_Node000005_Node000007"><a xlink:title=" ">
<path fill="none" stroke="#63b8ff" d="M489.1,-86.63C448.98,-74.13 400.26,-58.95 360.88,-46.68"/>
<polygon fill="#63b8ff" stroke="#63b8ff" points="487.88,-89.92 498.47,-89.55 489.96,-83.23 487.88,-89.92"/>
</a>
</g>
</g>
<!-- Node8 -->
<g id="Node000008" class="node">
<title>Node8</title>
<g id="a_Node000008"><a xlink:href="TowerPlayerStronghold_8cpp.html" target="_top" xlink:title=" ">
<polygon fill="white" stroke="#666666" points="563.25,-39.88 383.75,-39.88 383.75,-6.38 563.25,-6.38 563.25,-39.88"/>
<text xml:space="preserve" text-anchor="start" x="391.75" y="-26.38" font-family="Helvetica,sans-Serif" font-size="10.00">Source/Tower/Private</text>
<text xml:space="preserve" text-anchor="middle" x="473.5" y="-13.62" font-family="Helvetica,sans-Serif" font-size="10.00">/Actor/TowerPlayerStronghold.cpp</text>
</a>
</g>
</g>
<!-- Node5&#45;&gt;Node8 -->
<g id="edge7_Node000005_Node000008" class="edge">
<title>Node5&#45;&gt;Node8</title>
<g id="a_edge7_Node000005_Node000008"><a xlink:title=" ">
<path fill="none" stroke="#63b8ff" d="M527.31,-74.25C514.57,-62.38 501.07,-49.81 490.79,-40.23"/>
<polygon fill="#63b8ff" stroke="#63b8ff" points="524.72,-76.62 534.42,-80.87 529.49,-71.5 524.72,-76.62"/>
</a>
</g>
</g>
<!-- Node9 -->
<g id="Node000009" class="node">
<title>Node9</title>
<g id="a_Node000009"><a xlink:href="TowerGameMode_8cpp.html" target="_top" xlink:title=" ">
<polygon fill="white" stroke="#666666" points="737.62,-39.88 581.38,-39.88 581.38,-6.38 737.62,-6.38 737.62,-39.88"/>
<text xml:space="preserve" text-anchor="start" x="589.38" y="-26.38" font-family="Helvetica,sans-Serif" font-size="10.00">Source/Tower/Private</text>
<text xml:space="preserve" text-anchor="middle" x="659.5" y="-13.62" font-family="Helvetica,sans-Serif" font-size="10.00">/Game/TowerGameMode.cpp</text>
</a>
</g>
</g>
<!-- Node5&#45;&gt;Node9 -->
<g id="edge8_Node000005_Node000009" class="edge">
<title>Node5&#45;&gt;Node9</title>
<g id="a_edge8_Node000005_Node000009"><a xlink:title=" ">
<path fill="none" stroke="#63b8ff" d="M605.69,-74.25C618.43,-62.38 631.93,-49.81 642.21,-40.23"/>
<polygon fill="#63b8ff" stroke="#63b8ff" points="603.51,-71.5 598.58,-80.87 608.28,-76.62 603.51,-71.5"/>
</a>
</g>
</g>
<!-- Node10 -->
<g id="Node000010" class="node">
<title>Node10</title>
<g id="a_Node000010"><a xlink:href="TowerPlayerCharacter_8cpp.html" target="_top" xlink:title=" ">
<polygon fill="white" stroke="#666666" points="935.25,-39.88 755.75,-39.88 755.75,-6.38 935.25,-6.38 935.25,-39.88"/>
<text xml:space="preserve" text-anchor="start" x="763.75" y="-26.38" font-family="Helvetica,sans-Serif" font-size="10.00">Source/Tower/Private</text>
<text xml:space="preserve" text-anchor="middle" x="845.5" y="-13.62" font-family="Helvetica,sans-Serif" font-size="10.00">/Player/TowerPlayerCharacter.cpp</text>
</a>
</g>
</g>
<!-- Node5&#45;&gt;Node10 -->
<g id="edge9_Node000005_Node000010" class="edge">
<title>Node5&#45;&gt;Node10</title>
<g id="a_edge9_Node000005_Node000010"><a xlink:title=" ">
<path fill="none" stroke="#63b8ff" d="M643.88,-86.72C691.56,-71.92 751.42,-53.34 793.48,-40.28"/>
<polygon fill="#63b8ff" stroke="#63b8ff" points="642.93,-83.35 634.42,-89.66 645.01,-90.04 642.93,-83.35"/>
</a>
</g>
</g>
<!-- Node11 -->
<g id="Node000011" class="node">
<title>Node11</title>
<g id="a_Node000011"><a xlink:href="TowerPlayerController_8cpp.html" target="_top" xlink:title=" ">
<polygon fill="white" stroke="#666666" points="1133.62,-39.88 953.38,-39.88 953.38,-6.38 1133.62,-6.38 1133.62,-39.88"/>
<text xml:space="preserve" text-anchor="start" x="961.38" y="-26.38" font-family="Helvetica,sans-Serif" font-size="10.00">Source/Tower/Private</text>
<text xml:space="preserve" text-anchor="middle" x="1043.5" y="-13.62" font-family="Helvetica,sans-Serif" font-size="10.00">/Player/TowerPlayerController.cpp</text>
</a>
</g>
</g>
<!-- Node5&#45;&gt;Node11 -->
<g id="edge10_Node000005_Node000011" class="edge">
<title>Node5&#45;&gt;Node11</title>
<g id="a_edge10_Node000005_Node000011"><a xlink:title=" ">
<path fill="none" stroke="#63b8ff" d="M643.89,-98.73C720.44,-86.55 840.84,-66.66 944.5,-46.25 953.74,-44.43 963.45,-42.4 973.02,-40.34"/>
<polygon fill="#63b8ff" stroke="#63b8ff" points="643.74,-95.21 634.42,-100.23 644.84,-102.12 643.74,-95.21"/>
</a>
</g>
</g>
</g>
</svg>
