<?xml version="1.0" encoding="UTF-8" standalone="no"?>
<!DOCTYPE svg PUBLIC "-//W3C//DTD SVG 1.1//EN"
 "http://www.w3.org/Graphics/SVG/1.1/DTD/svg11.dtd">
<!-- Generated by graphviz version 14.1.4 (0)
 -->
<!-- Title: /opt/unreal&#45;engine/Engine/Source/Runtime/Engine/Classes/Engine/HitResult.h Pages: 1 -->
<svg width="1534pt" height="193pt"
 viewBox="0.00 0.00 1534.00 193.00" xmlns="http://www.w3.org/2000/svg" xmlns:xlink="http://www.w3.org/1999/xlink">
<g id="graph0" class="graph" transform="scale(1 1) rotate(0) translate(4 189.25)">
<title>/opt/unreal&#45;engine/Engine/Source/Runtime/Engine/Classes/Engine/HitResult.h</title>
<!-- Node1 -->
<g id="Node000001" class="node">
<title>Node1</title>
<g id="a_Node000001"><a xlink:title=" ">
<polygon fill="#999999" stroke="#666666" points="737.88,-185.25 605.62,-185.25 605.62,-126.25 737.88,-126.25 737.88,-185.25"/>
<text xml:space="preserve" text-anchor="start" x="613.62" y="-171.75" font-family="Helvetica,sans-Serif" font-size="10.00">/opt/unreal&#45;engine</text>
<text xml:space="preserve" text-anchor="start" x="613.62" y="-159" font-family="Helvetica,sans-Serif" font-size="10.00">/Engine/Source/Runtime</text>
<text xml:space="preserve" text-anchor="start" x="613.62" y="-146.25" font-family="Helvetica,sans-Serif" font-size="10.00">/Engine/Classes/Engine</text>
<text xml:space="preserve" text-anchor="middle" x="671.75" y="-133.5" font-family="Helvetica,sans-Serif" font-size="10.00">/HitResult.h</text>
</a>
</g>
</g>
<!-- Node2 -->
<g id="Node000002" class="node">
<title>Node2</title>
<g id="a_Node000002"><a xlink:title=" ">
<polygon fill="#e0e0e0" stroke="#999999" points="439.38,-90.25 352.12,-90.25 352.12,-69.5 439.38,-69.5 439.38,-90.25"/>
<text xml:space="preserve" text-anchor="middle" x="395.75" y="-76.75" font-family="Helvetica,sans-Serif" font-size="10.00">CoreMinimal.h</text>
</a>
</g>
</g>
<!-- Node1&#45;&gt;Node2 -->
<g id="edge1_Node000001_Node000002" class="edge">
<title>Node1&#45;&gt;Node2</title>
<g id="a_edge1_Node000001_Node000002"><a xlink:title=" ">
<path fill="none" stroke="#63b8ff" d="M605.29,-136.96C555.29,-123.58 487.98,-105.56 443.29,-93.6"/>
<polygon fill="#63b8ff" stroke="#63b8ff" points="444.47,-90.29 433.91,-91.09 442.66,-97.05 444.47,-90.29"/>
</a>
</g>
</g>
<!-- Node3 -->
<g id="Node000003" class="node">
<title>Node3</title>
<g id="a_Node000003"><a xlink:title=" ">
<polygon fill="#e0e0e0" stroke="#999999" points="583.88,-90.25 457.62,-90.25 457.62,-69.5 583.88,-69.5 583.88,-90.25"/>
<text xml:space="preserve" text-anchor="middle" x="520.75" y="-76.75" font-family="Helvetica,sans-Serif" font-size="10.00">Chaos/PhysicsObject.h</text>
</a>
</g>
</g>
<!-- Node1&#45;&gt;Node3 -->
<g id="edge2_Node000001_Node000003" class="edge">
<title>Node1&#45;&gt;Node3</title>
<g id="a_edge2_Node000001_Node000003"><a xlink:title=" ">
<path fill="none" stroke="#63b8ff" d="M612.5,-125.76C591.43,-115.45 568.58,-104.28 550.96,-95.65"/>
<polygon fill="#63b8ff" stroke="#63b8ff" points="552.6,-92.56 542.08,-91.31 549.53,-98.85 552.6,-92.56"/>
</a>
</g>
</g>
<!-- Node4 -->
<g id="Node000004" class="node">
<title>Node4</title>
<g id="a_Node000004"><a xlink:href="NetSerialization_8h.html" target="_top" xlink:title=" ">
<polygon fill="white" stroke="#666666" points="741.25,-90.25 602.25,-90.25 602.25,-69.5 741.25,-69.5 741.25,-90.25"/>
<text xml:space="preserve" text-anchor="middle" x="671.75" y="-76.75" font-family="Helvetica,sans-Serif" font-size="10.00">Engine/NetSerialization.h</text>
</a>
</g>
</g>
<!-- Node1&#45;&gt;Node4 -->
<g id="edge3_Node000001_Node000004" class="edge">
<title>Node1&#45;&gt;Node4</title>
<g id="a_edge3_Node000001_Node000004"><a xlink:title=" ">
<path fill="none" stroke="#63b8ff" d="M671.75,-125.98C671.75,-117.98 671.75,-109.45 671.75,-101.99"/>
<polygon fill="#63b8ff" stroke="#63b8ff" points="675.25,-102.22 671.75,-92.22 668.25,-102.22 675.25,-102.22"/>
</a>
</g>
</g>
<!-- Node14 -->
<g id="Node000014" class="node">
<title>Node14</title>
<g id="a_Node000014"><a xlink:href="ActorInstanceHandle_8h.html" target="_top" xlink:title=" ">
<polygon fill="white" stroke="#666666" points="1127.88,-90.25 965.62,-90.25 965.62,-69.5 1127.88,-69.5 1127.88,-90.25"/>
<text xml:space="preserve" text-anchor="middle" x="1046.75" y="-76.75" font-family="Helvetica,sans-Serif" font-size="10.00">Engine/ActorInstanceHandle.h</text>
</a>
</g>
</g>
<!-- Node1&#45;&gt;Node14 -->
<g id="edge13_Node000001_Node000014" class="edge">
<title>Node1&#45;&gt;Node14</title>
<g id="a_edge13_Node000001_Node000014"><a xlink:title=" ">
<path fill="none" stroke="#63b8ff" d="M738.36,-141.63C808.44,-127.82 917.79,-106.28 985.7,-92.9"/>
<polygon fill="#63b8ff" stroke="#63b8ff" points="986.03,-96.41 995.16,-91.04 984.67,-89.54 986.03,-96.41"/>
</a>
</g>
</g>
<!-- Node17 -->
<g id="Node000017" class="node">
<title>Node17</title>
<g id="a_Node000017"><a xlink:title=" ">
<polygon fill="#e0e0e0" stroke="#999999" points="1268,-90.25 1145.5,-90.25 1145.5,-69.5 1268,-69.5 1268,-90.25"/>
<text xml:space="preserve" text-anchor="middle" x="1206.75" y="-76.75" font-family="Helvetica,sans-Serif" font-size="10.00">HitResult.generated.h</text>
</a>
</g>
</g>
<!-- Node1&#45;&gt;Node17 -->
<g id="edge16_Node000001_Node000017" class="edge">
<title>Node1&#45;&gt;Node17</title>
<g id="a_edge16_Node000001_Node000017"><a xlink:title=" ">
<path fill="none" stroke="#63b8ff" d="M738.16,-145.58C838.9,-131.67 1029.64,-105.33 1134.01,-90.92"/>
<polygon fill="#63b8ff" stroke="#63b8ff" points="1134.45,-94.39 1143.88,-89.56 1133.49,-87.46 1134.45,-94.39"/>
</a>
</g>
</g>
<!-- Node5 -->
<g id="Node000005" class="node">
<title>Node5</title>
<g id="a_Node000005"><a xlink:title=" ">
<polygon fill="#e0e0e0" stroke="#999999" points="77.5,-27.12 0,-27.12 0,-6.38 77.5,-6.38 77.5,-27.12"/>
<text xml:space="preserve" text-anchor="middle" x="38.75" y="-13.62" font-family="Helvetica,sans-Serif" font-size="10.00">Stats/Stats.h</text>
</a>
</g>
</g>
<!-- Node4&#45;&gt;Node5 -->
<g id="edge4_Node000004_Node000005" class="edge">
<title>Node4&#45;&gt;Node5</title>
<g id="a_edge4_Node000004_Node000005"><a xlink:title=" ">
<path fill="none" stroke="#63b8ff" d="M601.98,-70.42C598.86,-70.09 595.77,-69.79 592.75,-69.5 368.3,-48.21 307.98,-76.97 86.75,-33.5 83.14,-32.79 79.42,-31.89 75.72,-30.88"/>
<polygon fill="#63b8ff" stroke="#63b8ff" points="76.88,-27.57 66.3,-28.04 74.86,-34.27 76.88,-27.57"/>
</a>
</g>
</g>
<!-- Node6 -->
<g id="Node000006" class="node">
<title>Node6</title>
<g id="a_Node000006"><a xlink:title=" ">
<polygon fill="#e0e0e0" stroke="#999999" points="229.62,-27.12 95.88,-27.12 95.88,-6.38 229.62,-6.38 229.62,-27.12"/>
<text xml:space="preserve" text-anchor="middle" x="162.75" y="-13.62" font-family="Helvetica,sans-Serif" font-size="10.00">UObject/ObjectMacros.h</text>
</a>
</g>
</g>
<!-- Node4&#45;&gt;Node6 -->
<g id="edge5_Node000004_Node000006" class="edge">
<title>Node4&#45;&gt;Node6</title>
<g id="a_edge5_Node000004_Node000006"><a xlink:title=" ">
<path fill="none" stroke="#63b8ff" d="M601.97,-70.53C598.85,-70.18 595.77,-69.83 592.75,-69.5 435.56,-52.18 395.05,-57.58 238.75,-33.5 231.85,-32.44 224.62,-31.16 217.49,-29.79"/>
<polygon fill="#63b8ff" stroke="#63b8ff" points="218.39,-26.41 207.9,-27.9 217.03,-33.27 218.39,-26.41"/>
</a>
</g>
</g>
<!-- Node7 -->
<g id="Node000007" class="node">
<title>Node7</title>
<g id="a_Node000007"><a xlink:title=" ">
<polygon fill="#e0e0e0" stroke="#999999" points="341.38,-27.12 248.12,-27.12 248.12,-6.38 341.38,-6.38 341.38,-27.12"/>
<text xml:space="preserve" text-anchor="middle" x="294.75" y="-13.62" font-family="Helvetica,sans-Serif" font-size="10.00">UObject/Class.h</text>
</a>
</g>
</g>
<!-- Node4&#45;&gt;Node7 -->
<g id="edge6_Node000004_Node000007" class="edge">
<title>Node4&#45;&gt;Node7</title>
<g id="a_edge6_Node000004_Node000007"><a xlink:title=" ">
<path fill="none" stroke="#63b8ff" d="M601.85,-70.11C522.28,-59.93 397.29,-43.29 350.75,-33.5 346.48,-32.6 342.06,-31.56 337.65,-30.44"/>
<polygon fill="#63b8ff" stroke="#63b8ff" points="338.87,-27.15 328.31,-27.96 337.07,-33.91 338.87,-27.15"/>
</a>
</g>
</g>
<!-- Node8 -->
<g id="Node000008" class="node">
<title>Node8</title>
<g id="a_Node000008"><a xlink:title=" ">
<polygon fill="#e0e0e0" stroke="#999999" points="488,-27.12 359.5,-27.12 359.5,-6.38 488,-6.38 488,-27.12"/>
<text xml:space="preserve" text-anchor="middle" x="423.75" y="-13.62" font-family="Helvetica,sans-Serif" font-size="10.00">Misc/NetworkVersion.h</text>
</a>
</g>
</g>
<!-- Node4&#45;&gt;Node8 -->
<g id="edge7_Node000004_Node000008" class="edge">
<title>Node4&#45;&gt;Node8</title>
<g id="a_edge7_Node000004_Node000008"><a xlink:title=" ">
<path fill="none" stroke="#63b8ff" d="M631.9,-69.05C589.15,-58.52 521.12,-41.75 474.55,-30.27"/>
<polygon fill="#63b8ff" stroke="#63b8ff" points="475.51,-26.9 464.97,-27.91 473.84,-33.7 475.51,-26.9"/>
</a>
</g>
</g>
<!-- Node9 -->
<g id="Node000009" class="node">
<title>Node9</title>
<g id="a_Node000009"><a xlink:title=" ">
<polygon fill="#e0e0e0" stroke="#999999" points="613.12,-27.12 506.38,-27.12 506.38,-6.38 613.12,-6.38 613.12,-27.12"/>
<text xml:space="preserve" text-anchor="middle" x="559.75" y="-13.62" font-family="Helvetica,sans-Serif" font-size="10.00">UObject/CoreNet.h</text>
</a>
</g>
</g>
<!-- Node4&#45;&gt;Node9 -->
<g id="edge8_Node000004_Node000009" class="edge">
<title>Node4&#45;&gt;Node9</title>
<g id="a_edge8_Node000004_Node000009"><a xlink:title=" ">
<path fill="none" stroke="#63b8ff" d="M653.76,-69.05C635.96,-59.34 608.46,-44.33 587.8,-33.06"/>
<polygon fill="#63b8ff" stroke="#63b8ff" points="589.48,-29.99 579.03,-28.27 586.13,-36.13 589.48,-29.99"/>
</a>
</g>
</g>
<!-- Node10 -->
<g id="Node000010" class="node">
<title>Node10</title>
<g id="a_Node000010"><a xlink:title=" ">
<polygon fill="#e0e0e0" stroke="#999999" points="712,-27.12 631.5,-27.12 631.5,-6.38 712,-6.38 712,-27.12"/>
<text xml:space="preserve" text-anchor="middle" x="671.75" y="-13.62" font-family="Helvetica,sans-Serif" font-size="10.00">EngineLogs.h</text>
</a>
</g>
</g>
<!-- Node4&#45;&gt;Node10 -->
<g id="edge9_Node000004_Node000010" class="edge">
<title>Node4&#45;&gt;Node10</title>
<g id="a_edge9_Node000004_Node000010"><a xlink:title=" ">
<path fill="none" stroke="#63b8ff" d="M671.75,-69.05C671.75,-60.9 671.75,-49.01 671.75,-38.73"/>
<polygon fill="#63b8ff" stroke="#63b8ff" points="675.25,-38.86 671.75,-28.86 668.25,-38.86 675.25,-38.86"/>
</a>
</g>
</g>
<!-- Node11 -->
<g id="Node000011" class="node">
<title>Node11</title>
<g id="a_Node000011"><a xlink:title=" ">
<polygon fill="#e0e0e0" stroke="#999999" points="899.62,-33.5 729.88,-33.5 729.88,0 899.62,0 899.62,-33.5"/>
<text xml:space="preserve" text-anchor="start" x="737.88" y="-20" font-family="Helvetica,sans-Serif" font-size="10.00">Net/Core/Serialization</text>
<text xml:space="preserve" text-anchor="middle" x="814.75" y="-7.25" font-family="Helvetica,sans-Serif" font-size="10.00">/QuantizedVectorSerialization.h</text>
</a>
</g>
</g>
<!-- Node4&#45;&gt;Node11 -->
<g id="edge10_Node000004_Node000011" class="edge">
<title>Node4&#45;&gt;Node11</title>
<g id="a_edge10_Node000004_Node000011"><a xlink:title=" ">
<path fill="none" stroke="#63b8ff" d="M694.73,-69.05C713.98,-60.82 742.13,-48.79 766.33,-38.45"/>
<polygon fill="#63b8ff" stroke="#63b8ff" points="767.56,-41.73 775.38,-34.58 764.81,-35.29 767.56,-41.73"/>
</a>
</g>
</g>
<!-- Node12 -->
<g id="Node000012" class="node">
<title>Node12</title>
<g id="a_Node000012"><a xlink:title=" ">
<polygon fill="#e0e0e0" stroke="#999999" points="986,-27.12 917.5,-27.12 917.5,-6.38 986,-6.38 986,-27.12"/>
<text xml:space="preserve" text-anchor="middle" x="951.75" y="-13.62" font-family="Helvetica,sans-Serif" font-size="10.00">type_traits</text>
</a>
</g>
</g>
<!-- Node4&#45;&gt;Node12 -->
<g id="edge11_Node000004_Node000012" class="edge">
<title>Node4&#45;&gt;Node12</title>
<g id="a_edge11_Node000004_Node000012"><a xlink:title=" ">
<path fill="none" stroke="#63b8ff" d="M738.82,-69.01C786.65,-61.25 852.23,-49.15 908.75,-33.5 911.18,-32.83 913.66,-32.08 916.16,-31.29"/>
<polygon fill="#63b8ff" stroke="#63b8ff" points="917.19,-34.63 925.53,-28.09 914.93,-28.01 917.19,-34.63"/>
</a>
</g>
</g>
<!-- Node13 -->
<g id="Node000013" class="node">
<title>Node13</title>
<g id="a_Node000013"><a xlink:title=" ">
<polygon fill="#e0e0e0" stroke="#999999" points="1159.5,-27.12 1004,-27.12 1004,-6.38 1159.5,-6.38 1159.5,-27.12"/>
<text xml:space="preserve" text-anchor="middle" x="1081.75" y="-13.62" font-family="Helvetica,sans-Serif" font-size="10.00">NetSerialization.generated.h</text>
</a>
</g>
</g>
<!-- Node4&#45;&gt;Node13 -->
<g id="edge12_Node000004_Node000013" class="edge">
<title>Node4&#45;&gt;Node13</title>
<g id="a_edge12_Node000004_Node000013"><a xlink:title=" ">
<path fill="none" stroke="#63b8ff" d="M741.49,-69.89C806.99,-61.25 907.67,-47.49 994.75,-33.5 1002.37,-32.28 1010.36,-30.92 1018.27,-29.54"/>
<polygon fill="#63b8ff" stroke="#63b8ff" points="1018.63,-33.03 1027.87,-27.84 1017.41,-26.14 1018.63,-33.03"/>
</a>
</g>
</g>
<!-- Node15 -->
<g id="Node000015" class="node">
<title>Node15</title>
<g id="a_Node000015"><a xlink:title=" ">
<polygon fill="#e0e0e0" stroke="#999999" points="1329.62,-27.12 1177.88,-27.12 1177.88,-6.38 1329.62,-6.38 1329.62,-27.12"/>
<text xml:space="preserve" text-anchor="middle" x="1253.75" y="-13.62" font-family="Helvetica,sans-Serif" font-size="10.00">UObject/WeakInterfacePtr.h</text>
</a>
</g>
</g>
<!-- Node14&#45;&gt;Node15 -->
<g id="edge14_Node000014_Node000015" class="edge">
<title>Node14&#45;&gt;Node15</title>
<g id="a_edge14_Node000014_Node000015"><a xlink:title=" ">
<path fill="none" stroke="#63b8ff" d="M1080.01,-69.05C1115.17,-58.67 1170.8,-42.24 1209.61,-30.78"/>
<polygon fill="#63b8ff" stroke="#63b8ff" points="1210.52,-34.16 1219.12,-27.98 1208.54,-27.45 1210.52,-34.16"/>
</a>
</g>
</g>
<!-- Node16 -->
<g id="Node000016" class="node">
<title>Node16</title>
<g id="a_Node000016"><a xlink:title=" ">
<polygon fill="#e0e0e0" stroke="#999999" points="1526.12,-27.12 1347.38,-27.12 1347.38,-6.38 1526.12,-6.38 1526.12,-27.12"/>
<text xml:space="preserve" text-anchor="middle" x="1436.75" y="-13.62" font-family="Helvetica,sans-Serif" font-size="10.00">ActorInstanceHandle.generated.h</text>
</a>
</g>
</g>
<!-- Node14&#45;&gt;Node16 -->
<g id="edge15_Node000014_Node000016" class="edge">
<title>Node14&#45;&gt;Node16</title>
<g id="a_edge15_Node000014_Node000016"><a xlink:title=" ">
<path fill="none" stroke="#63b8ff" d="M1110.85,-69.01C1170.02,-59.88 1260.33,-45.89 1338.75,-33.5 1347.09,-32.18 1355.84,-30.79 1364.52,-29.4"/>
<polygon fill="#63b8ff" stroke="#63b8ff" points="1365.04,-32.86 1374.36,-27.83 1363.93,-25.95 1365.04,-32.86"/>
</a>
</g>
</g>
</g>
</svg>
