<?xml version="1.0" encoding="UTF-8" standalone="no"?>
<!DOCTYPE svg PUBLIC "-//W3C//DTD SVG 1.1//EN"
 "http://www.w3.org/Graphics/SVG/1.1/DTD/svg11.dtd">
<!-- Generated by graphviz version 14.1.4 (0)
 -->
<!-- Title: /opt/unreal&#45;engine/Engine/Source/Runtime/Core/Public/Misc/IFilter.h Pages: 1 -->
<svg width="582pt" height="219pt"
 viewBox="0.00 0.00 582.00 219.00" xmlns="http://www.w3.org/2000/svg" xmlns:xlink="http://www.w3.org/1999/xlink">
<g id="graph0" class="graph" transform="scale(1 1) rotate(0) translate(4 214.75)">
<title>/opt/unreal&#45;engine/Engine/Source/Runtime/Core/Public/Misc/IFilter.h</title>
<!-- Node1 -->
<g id="Node000001" class="node">
<title>Node1</title>
<g id="a_Node000001"><a xlink:title=" ">
<polygon fill="#999999" stroke="#666666" points="277.09,-210.75 138.84,-210.75 138.84,-164.5 277.09,-164.5 277.09,-210.75"/>
<text xml:space="preserve" text-anchor="start" x="146.84" y="-197.25" font-family="Helvetica,sans-Serif" font-size="10.00">/opt/unreal&#45;engine</text>
<text xml:space="preserve" text-anchor="start" x="146.84" y="-184.5" font-family="Helvetica,sans-Serif" font-size="10.00">/Engine/Source/Runtime</text>
<text xml:space="preserve" text-anchor="middle" x="207.96" y="-171.75" font-family="Helvetica,sans-Serif" font-size="10.00">/Core/Public/Misc/IFilter.h</text>
</a>
</g>
</g>
<!-- Node2 -->
<g id="Node000002" class="node">
<title>Node2</title>
<g id="a_Node000002"><a xlink:href="$CoreSharedPCH_8h.html" xlink:title=" ">
<polygon fill="white" stroke="#666666" points="230.09,-46.25 67.84,-46.25 67.84,0 230.09,0 230.09,-46.25"/>
<text xml:space="preserve" text-anchor="start" x="75.84" y="-32.75" font-family="Helvetica,sans-Serif" font-size="10.00">/opt/unreal&#45;engine</text>
<text xml:space="preserve" text-anchor="start" x="75.84" y="-20" font-family="Helvetica,sans-Serif" font-size="10.00">/Engine/Source/Runtime</text>
<text xml:space="preserve" text-anchor="middle" x="148.96" y="-7.25" font-family="Helvetica,sans-Serif" font-size="10.00">/Core/Public/CoreSharedPCH.h</text>
</a>
</g>
</g>
<!-- Node1&#45;&gt;Node2 -->
<g id="edge1_Node000001_Node000002" class="edge">
<title>Node1&#45;&gt;Node2</title>
<g id="a_edge1_Node000001_Node000002"><a xlink:title=" ">
<path fill="none" stroke="#63b8ff" d="M127.36,-173.17C78.82,-163.24 23.63,-148.07 8.96,-128.5 -3.37,-112.05 -2.45,-99.35 8.96,-82.25 22.55,-61.89 44.74,-48.66 67.49,-40.05"/>
<polygon fill="#63b8ff" stroke="#63b8ff" points="126.59,-176.59 137.08,-175.1 127.95,-169.72 126.59,-176.59"/>
</a>
</g>
</g>
<!-- Node3 -->
<g id="Node000003" class="node">
<title>Node3</title>
<g id="a_Node000003"><a xlink:href="$DelegateFilter_8h.html" xlink:title=" ">
<polygon fill="white" stroke="#666666" points="197.71,-128.5 18.21,-128.5 18.21,-82.25 197.71,-82.25 197.71,-128.5"/>
<text xml:space="preserve" text-anchor="start" x="26.21" y="-115" font-family="Helvetica,sans-Serif" font-size="10.00">/opt/unreal&#45;engine</text>
<text xml:space="preserve" text-anchor="start" x="26.21" y="-102.25" font-family="Helvetica,sans-Serif" font-size="10.00">/Engine/Source/Runtime</text>
<text xml:space="preserve" text-anchor="middle" x="107.96" y="-89.5" font-family="Helvetica,sans-Serif" font-size="10.00">/Core/Public/Misc/DelegateFilter.h</text>
</a>
</g>
</g>
<!-- Node1&#45;&gt;Node3 -->
<g id="edge2_Node000001_Node000003" class="edge">
<title>Node1&#45;&gt;Node3</title>
<g id="a_edge2_Node000001_Node000003"><a xlink:title=" ">
<path fill="none" stroke="#63b8ff" d="M171.17,-157.1C159.5,-147.74 146.81,-137.55 135.87,-128.77"/>
<polygon fill="#63b8ff" stroke="#63b8ff" points="168.67,-159.58 178.66,-163.11 173.05,-154.12 168.67,-159.58"/>
</a>
</g>
</g>
<!-- Node4 -->
<g id="Node000004" class="node">
<title>Node4</title>
<g id="a_Node000004"><a xlink:href="$FilterCollection_8h.html" xlink:title=" ">
<polygon fill="white" stroke="#666666" points="399.96,-128.5 215.96,-128.5 215.96,-82.25 399.96,-82.25 399.96,-128.5"/>
<text xml:space="preserve" text-anchor="start" x="223.96" y="-115" font-family="Helvetica,sans-Serif" font-size="10.00">/opt/unreal&#45;engine</text>
<text xml:space="preserve" text-anchor="start" x="223.96" y="-102.25" font-family="Helvetica,sans-Serif" font-size="10.00">/Engine/Source/Runtime</text>
<text xml:space="preserve" text-anchor="middle" x="307.96" y="-89.5" font-family="Helvetica,sans-Serif" font-size="10.00">/Core/Public/Misc/FilterCollection.h</text>
</a>
</g>
</g>
<!-- Node1&#45;&gt;Node4 -->
<g id="edge3_Node000001_Node000004" class="edge">
<title>Node1&#45;&gt;Node4</title>
<g id="a_edge3_Node000001_Node000004"><a xlink:title=" ">
<path fill="none" stroke="#63b8ff" d="M244.75,-157.1C256.42,-147.74 269.12,-137.55 280.05,-128.77"/>
<polygon fill="#63b8ff" stroke="#63b8ff" points="242.87,-154.12 237.26,-163.11 247.25,-159.58 242.87,-154.12"/>
</a>
</g>
</g>
<!-- Node5 -->
<g id="Node000005" class="node">
<title>Node5</title>
<g id="a_Node000005"><a xlink:href="$TextFilter_8h.html" xlink:title=" ">
<polygon fill="white" stroke="#666666" points="573.71,-128.5 418.21,-128.5 418.21,-82.25 573.71,-82.25 573.71,-128.5"/>
<text xml:space="preserve" text-anchor="start" x="426.21" y="-115" font-family="Helvetica,sans-Serif" font-size="10.00">/opt/unreal&#45;engine</text>
<text xml:space="preserve" text-anchor="start" x="426.21" y="-102.25" font-family="Helvetica,sans-Serif" font-size="10.00">/Engine/Source/Runtime</text>
<text xml:space="preserve" text-anchor="middle" x="495.96" y="-89.5" font-family="Helvetica,sans-Serif" font-size="10.00">/Core/Public/Misc/TextFilter.h</text>
</a>
</g>
</g>
<!-- Node1&#45;&gt;Node5 -->
<g id="edge5_Node000001_Node000005" class="edge">
<title>Node1&#45;&gt;Node5</title>
<g id="a_edge5_Node000001_Node000005"><a xlink:title=" ">
<path fill="none" stroke="#63b8ff" d="M288.22,-164.26C328.71,-152.98 377.63,-139.35 417.82,-128.15"/>
<polygon fill="#63b8ff" stroke="#63b8ff" points="287.46,-160.84 278.77,-166.89 289.34,-167.58 287.46,-160.84"/>
</a>
</g>
</g>
<!-- Node4&#45;&gt;Node2 -->
<g id="edge4_Node000004_Node000002" class="edge">
<title>Node4&#45;&gt;Node2</title>
<g id="a_edge4_Node000004_Node000002"><a xlink:title=" ">
<path fill="none" stroke="#63b8ff" d="M253.03,-76.65C233.63,-66.86 212.06,-55.97 193.61,-46.66"/>
<polygon fill="#63b8ff" stroke="#63b8ff" points="251.39,-79.74 261.9,-81.13 254.55,-73.49 251.39,-79.74"/>
</a>
</g>
</g>
</g>
</svg>
