<?xml version="1.0" encoding="UTF-8" standalone="no"?>
<!DOCTYPE svg PUBLIC "-//W3C//DTD SVG 1.1//EN"
 "http://www.w3.org/Graphics/SVG/1.1/DTD/svg11.dtd">
<!-- Generated by graphviz version 14.1.4 (0)
 -->
<!-- Title: Graphical Class Hierarchy Pages: 1 -->
<svg width="390pt" height="250pt"
 viewBox="0.00 0.00 390.00 250.00" xmlns="http://www.w3.org/2000/svg" xmlns:xlink="http://www.w3.org/1999/xlink">
<g id="graph0" class="graph" transform="scale(1 1) rotate(0) translate(4 245.5)">
<title>Graphical Class Hierarchy</title>
<!-- Node0 -->
<g id="Node000000" class="node">
<title>Node0</title>
<g id="a_Node000000"><a xlink:href="structFBlueprintInputDelegateBinding.html" target="_top" xlink:title=" ">
<polygon fill="white" stroke="#666666" points="172,-131.12 0,-131.12 0,-110.38 172,-110.38 172,-131.12"/>
<text xml:space="preserve" text-anchor="middle" x="86" y="-117.62" font-family="Helvetica,sans-Serif" font-size="10.00">FBlueprintInputDelegateBinding</text>
</a>
</g>
</g>
<!-- Node1 -->
<g id="Node000001" class="node">
<title>Node1</title>
<g id="a_Node000001"><a xlink:href="structFBlueprintInputActionDelegateBinding.html" target="_top" xlink:title=" ">
<polygon fill="white" stroke="#666666" points="378.12,-241.5 212.12,-241.5 212.12,-208 378.12,-208 378.12,-241.5"/>
<text xml:space="preserve" text-anchor="start" x="220.12" y="-228" font-family="Helvetica,sans-Serif" font-size="10.00">FBlueprintInputActionDelegate</text>
<text xml:space="preserve" text-anchor="middle" x="295.12" y="-215.25" font-family="Helvetica,sans-Serif" font-size="10.00">Binding</text>
</a>
</g>
</g>
<!-- Node0&#45;&gt;Node1 -->
<g id="edge816_Node000000_Node000001" class="edge">
<title>Node0&#45;&gt;Node1</title>
<g id="a_edge816_Node000000_Node000001"><a xlink:title=" ">
<path fill="none" stroke="#63b8ff" d="M109.92,-138.31C133.45,-155.66 171.67,-181.96 208,-198.75 214.95,-201.96 222.39,-204.89 229.88,-207.54"/>
<polygon fill="#63b8ff" stroke="#63b8ff" points="112.09,-135.57 101.99,-132.39 107.9,-141.18 112.09,-135.57"/>
</a>
</g>
</g>
<!-- Node2 -->
<g id="Node000002" class="node">
<title>Node2</title>
<g id="a_Node000002"><a xlink:href="structFBlueprintInputAxisDelegateBinding.html" target="_top" xlink:title=" ">
<polygon fill="white" stroke="#666666" points="373.25,-189.5 217,-189.5 217,-156 373.25,-156 373.25,-189.5"/>
<text xml:space="preserve" text-anchor="start" x="225" y="-176" font-family="Helvetica,sans-Serif" font-size="10.00">FBlueprintInputAxisDelegate</text>
<text xml:space="preserve" text-anchor="middle" x="295.12" y="-163.25" font-family="Helvetica,sans-Serif" font-size="10.00">Binding</text>
</a>
</g>
</g>
<!-- Node0&#45;&gt;Node2 -->
<g id="edge817_Node000000_Node000002" class="edge">
<title>Node0&#45;&gt;Node2</title>
<g id="a_edge817_Node000000_Node000002"><a xlink:title=" ">
<path fill="none" stroke="#63b8ff" d="M141.26,-134.37C167.1,-140.86 198.29,-148.69 225.74,-155.58"/>
<polygon fill="#63b8ff" stroke="#63b8ff" points="142.19,-131 131.64,-131.96 140.48,-137.79 142.19,-131"/>
</a>
</g>
</g>
<!-- Node3 -->
<g id="Node000003" class="node">
<title>Node3</title>
<g id="a_Node000003"><a xlink:href="structFBlueprintInputAxisKeyDelegateBinding.html" target="_top" xlink:title=" ">
<polygon fill="white" stroke="#666666" points="382.25,-137.5 208,-137.5 208,-104 382.25,-104 382.25,-137.5"/>
<text xml:space="preserve" text-anchor="start" x="216" y="-124" font-family="Helvetica,sans-Serif" font-size="10.00">FBlueprintInputAxisKeyDelegate</text>
<text xml:space="preserve" text-anchor="middle" x="295.12" y="-111.25" font-family="Helvetica,sans-Serif" font-size="10.00">Binding</text>
</a>
</g>
</g>
<!-- Node0&#45;&gt;Node3 -->
<g id="edge818_Node000000_Node000003" class="edge">
<title>Node0&#45;&gt;Node3</title>
<g id="a_edge818_Node000000_Node000003"><a xlink:title=" ">
<path fill="none" stroke="#63b8ff" d="M183.93,-120.75C191.81,-120.75 199.74,-120.75 207.54,-120.75"/>
<polygon fill="#63b8ff" stroke="#63b8ff" points="183.96,-117.25 173.96,-120.75 183.96,-124.25 183.96,-117.25"/>
</a>
</g>
</g>
<!-- Node4 -->
<g id="Node000004" class="node">
<title>Node4</title>
<g id="a_Node000004"><a xlink:href="structFBlueprintInputKeyDelegateBinding.html" target="_top" xlink:title=" ">
<polygon fill="white" stroke="#666666" points="371.75,-85.5 218.5,-85.5 218.5,-52 371.75,-52 371.75,-85.5"/>
<text xml:space="preserve" text-anchor="start" x="226.5" y="-72" font-family="Helvetica,sans-Serif" font-size="10.00">FBlueprintInputKeyDelegate</text>
<text xml:space="preserve" text-anchor="middle" x="295.12" y="-59.25" font-family="Helvetica,sans-Serif" font-size="10.00">Binding</text>
</a>
</g>
</g>
<!-- Node0&#45;&gt;Node4 -->
<g id="edge819_Node000000_Node000004" class="edge">
<title>Node0&#45;&gt;Node4</title>
<g id="a_edge819_Node000000_Node000004"><a xlink:title=" ">
<path fill="none" stroke="#63b8ff" d="M141.26,-107.13C167.1,-100.64 198.29,-92.81 225.74,-85.92"/>
<polygon fill="#63b8ff" stroke="#63b8ff" points="140.48,-103.71 131.64,-109.54 142.19,-110.5 140.48,-103.71"/>
</a>
</g>
</g>
<!-- Node5 -->
<g id="Node000005" class="node">
<title>Node5</title>
<g id="a_Node000005"><a xlink:href="structFBlueprintInputTouchDelegateBinding.html" target="_top" xlink:title=" ">
<polygon fill="white" stroke="#666666" points="376.62,-33.5 213.62,-33.5 213.62,0 376.62,0 376.62,-33.5"/>
<text xml:space="preserve" text-anchor="start" x="221.62" y="-20" font-family="Helvetica,sans-Serif" font-size="10.00">FBlueprintInputTouchDelegate</text>
<text xml:space="preserve" text-anchor="middle" x="295.12" y="-7.25" font-family="Helvetica,sans-Serif" font-size="10.00">Binding</text>
</a>
</g>
</g>
<!-- Node0&#45;&gt;Node5 -->
<g id="edge820_Node000000_Node000005" class="edge">
<title>Node0&#45;&gt;Node5</title>
<g id="a_edge820_Node000000_Node000005"><a xlink:title=" ">
<path fill="none" stroke="#63b8ff" d="M109.92,-103.19C133.45,-85.84 171.67,-59.54 208,-42.75 214.95,-39.54 222.39,-36.61 229.88,-33.96"/>
<polygon fill="#63b8ff" stroke="#63b8ff" points="107.9,-100.32 101.99,-109.11 112.09,-105.93 107.9,-100.32"/>
</a>
</g>
</g>
</g>
</svg>
