<?xml version="1.0" encoding="UTF-8" standalone="no"?>
<!DOCTYPE svg PUBLIC "-//W3C//DTD SVG 1.1//EN"
 "http://www.w3.org/Graphics/SVG/1.1/DTD/svg11.dtd">
<!-- Generated by graphviz version 14.1.4 (0)
 -->
<!-- Title: Graphical Class Hierarchy Pages: 1 -->
<svg width="612pt" height="210pt"
 viewBox="0.00 0.00 612.00 210.00" xmlns="http://www.w3.org/2000/svg" xmlns:xlink="http://www.w3.org/1999/xlink">
<g id="graph0" class="graph" transform="scale(1 1) rotate(0) translate(4 205.75)">
<title>Graphical Class Hierarchy</title>
<!-- Node0 -->
<g id="Node000000" class="node">
<title>Node0</title>
<g id="a_Node000000"><a xlink:title=" ">
<polygon fill="#e0e0e0" stroke="#999999" points="166.75,-104.75 0,-104.75 0,-84 166.75,-84 166.75,-104.75"/>
<text xml:space="preserve" text-anchor="middle" x="83.38" y="-91.25" font-family="Helvetica,sans-Serif" font-size="10.00">FActorComponentInstanceData</text>
</a>
</g>
</g>
<!-- Node1 -->
<g id="Node000001" class="node">
<title>Node1</title>
<g id="a_Node000001"><a xlink:href="structFSceneComponentInstanceData.html" target="_top" xlink:title=" ">
<polygon fill="white" stroke="#666666" points="374.75,-104.75 202.75,-104.75 202.75,-84 374.75,-84 374.75,-104.75"/>
<text xml:space="preserve" text-anchor="middle" x="288.75" y="-91.25" font-family="Helvetica,sans-Serif" font-size="10.00">FSceneComponentInstanceData</text>
</a>
</g>
</g>
<!-- Node0&#45;&gt;Node1 -->
<g id="edge777_Node000000_Node000001" class="edge">
<title>Node0&#45;&gt;Node1</title>
<g id="a_edge777_Node000000_Node000001"><a xlink:title=" ">
<path fill="none" stroke="#63b8ff" d="M178.38,-94.38C186.41,-94.38 194.5,-94.38 202.46,-94.38"/>
<polygon fill="#63b8ff" stroke="#63b8ff" points="178.61,-90.88 168.61,-94.38 178.61,-97.88 178.61,-90.88"/>
</a>
</g>
</g>
<!-- Node2 -->
<g id="Node000002" class="node">
<title>Node2</title>
<g id="a_Node000002"><a xlink:href="structFChildActorComponentInstanceData.html" target="_top" xlink:title=" ">
<polygon fill="white" stroke="#666666" points="603.75,-201.75 410.75,-201.75 410.75,-181 603.75,-181 603.75,-201.75"/>
<text xml:space="preserve" text-anchor="middle" x="507.25" y="-188.25" font-family="Helvetica,sans-Serif" font-size="10.00">FChildActorComponentInstanceData</text>
</a>
</g>
</g>
<!-- Node1&#45;&gt;Node2 -->
<g id="edge778_Node000001_Node000002" class="edge">
<title>Node1&#45;&gt;Node2</title>
<g id="a_edge778_Node000001_Node000002"><a xlink:title=" ">
<path fill="none" stroke="#63b8ff" d="M311.58,-112.1C334.79,-130.03 373.25,-157.2 410.75,-172.38 418.74,-175.61 427.34,-178.31 435.99,-180.56"/>
<polygon fill="#63b8ff" stroke="#63b8ff" points="313.83,-109.41 303.81,-105.98 309.5,-114.92 313.83,-109.41"/>
</a>
</g>
</g>
<!-- Node3 -->
<g id="Node000003" class="node">
<title>Node3</title>
<g id="a_Node000003"><a xlink:href="structFInstancedSkinnedMeshComponentInstanceData.html" target="_top" xlink:title=" ">
<polygon fill="white" stroke="#666666" points="602.62,-163.12 411.88,-163.12 411.88,-129.62 602.62,-129.62 602.62,-163.12"/>
<text xml:space="preserve" text-anchor="start" x="419.88" y="-149.62" font-family="Helvetica,sans-Serif" font-size="10.00">FInstancedSkinnedMeshComponent</text>
<text xml:space="preserve" text-anchor="middle" x="507.25" y="-136.88" font-family="Helvetica,sans-Serif" font-size="10.00">InstanceData</text>
</a>
</g>
</g>
<!-- Node1&#45;&gt;Node3 -->
<g id="edge779_Node000001_Node000003" class="edge">
<title>Node1&#45;&gt;Node3</title>
<g id="a_edge779_Node000001_Node000003"><a xlink:title=" ">
<path fill="none" stroke="#63b8ff" d="M345.74,-107.82C372.9,-114.35 405.82,-122.25 434.77,-129.21"/>
<polygon fill="#63b8ff" stroke="#63b8ff" points="346.88,-104.5 336.34,-105.57 345.25,-111.3 346.88,-104.5"/>
</a>
</g>
</g>
<!-- Node4 -->
<g id="Node000004" class="node">
<title>Node4</title>
<g id="a_Node000004"><a xlink:href="structFInstancedStaticMeshComponentInstanceData.html" target="_top" xlink:title=" ">
<polygon fill="white" stroke="#666666" points="597,-111.12 417.5,-111.12 417.5,-77.62 597,-77.62 597,-111.12"/>
<text xml:space="preserve" text-anchor="start" x="425.5" y="-97.62" font-family="Helvetica,sans-Serif" font-size="10.00">FInstancedStaticMeshComponent</text>
<text xml:space="preserve" text-anchor="middle" x="507.25" y="-84.88" font-family="Helvetica,sans-Serif" font-size="10.00">InstanceData</text>
</a>
</g>
</g>
<!-- Node1&#45;&gt;Node4 -->
<g id="edge780_Node000001_Node000004" class="edge">
<title>Node1&#45;&gt;Node4</title>
<g id="a_edge780_Node000001_Node000004"><a xlink:title=" ">
<path fill="none" stroke="#63b8ff" d="M386.46,-94.38C396.68,-94.38 407.03,-94.38 417.15,-94.38"/>
<polygon fill="#63b8ff" stroke="#63b8ff" points="386.52,-90.88 376.52,-94.38 386.52,-97.88 386.52,-90.88"/>
</a>
</g>
</g>
<!-- Node5 -->
<g id="Node000005" class="node">
<title>Node5</title>
<g id="a_Node000005"><a xlink:href="structFPrecomputedLightInstanceData.html" target="_top" xlink:title=" ">
<polygon fill="white" stroke="#666666" points="594.75,-59.75 419.75,-59.75 419.75,-39 594.75,-39 594.75,-59.75"/>
<text xml:space="preserve" text-anchor="middle" x="507.25" y="-46.25" font-family="Helvetica,sans-Serif" font-size="10.00">FPrecomputedLightInstanceData</text>
</a>
</g>
</g>
<!-- Node1&#45;&gt;Node5 -->
<g id="edge781_Node000001_Node000005" class="edge">
<title>Node1&#45;&gt;Node5</title>
<g id="a_edge781_Node000001_Node000005"><a xlink:title=" ">
<path fill="none" stroke="#63b8ff" d="M350.52,-81.13C369.77,-76.98 391.14,-72.43 410.75,-68.38 423.75,-65.69 437.75,-62.86 450.92,-60.23"/>
<polygon fill="#63b8ff" stroke="#63b8ff" points="349.98,-77.66 340.94,-83.2 351.45,-84.51 349.98,-77.66"/>
</a>
</g>
</g>
<!-- Node6 -->
<g id="Node000006" class="node">
<title>Node6</title>
<g id="a_Node000006"><a xlink:href="structFPrecomputedSkyLightInstanceData.html" target="_top" xlink:title=" ">
<polygon fill="white" stroke="#666666" points="603.38,-20.75 411.12,-20.75 411.12,0 603.38,0 603.38,-20.75"/>
<text xml:space="preserve" text-anchor="middle" x="507.25" y="-7.25" font-family="Helvetica,sans-Serif" font-size="10.00">FPrecomputedSkyLightInstanceData</text>
</a>
</g>
</g>
<!-- Node1&#45;&gt;Node6 -->
<g id="edge782_Node000001_Node000006" class="edge">
<title>Node1&#45;&gt;Node6</title>
<g id="a_edge782_Node000001_Node000006"><a xlink:title=" ">
<path fill="none" stroke="#63b8ff" d="M316,-77.72C339.86,-63.25 376.48,-42.75 410.75,-30.38 420.71,-26.78 431.5,-23.75 442.12,-21.22"/>
<polygon fill="#63b8ff" stroke="#63b8ff" points="314.26,-74.68 307.58,-82.9 317.93,-80.64 314.26,-74.68"/>
</a>
</g>
</g>
</g>
</svg>
