<?xml version="1.0" encoding="UTF-8" standalone="no"?>
<!DOCTYPE svg PUBLIC "-//W3C//DTD SVG 1.1//EN"
 "http://www.w3.org/Graphics/SVG/1.1/DTD/svg11.dtd">
<!-- Generated by graphviz version 14.1.4 (0)
 -->
<!-- Title: /opt/unreal&#45;engine/Engine/Source/Runtime/Engine/Classes/Animation/InputScaleBias.h Pages: 1 -->
<svg width="513pt" height="124pt"
 viewBox="0.00 0.00 513.00 124.00" xmlns="http://www.w3.org/2000/svg" xmlns:xlink="http://www.w3.org/1999/xlink">
<g id="graph0" class="graph" transform="scale(1 1) rotate(0) translate(4 119.75)">
<title>/opt/unreal&#45;engine/Engine/Source/Runtime/Engine/Classes/Animation/InputScaleBias.h</title>
<!-- Node1 -->
<g id="Node000001" class="node">
<title>Node1</title>
<g id="a_Node000001"><a xlink:title=" ">
<polygon fill="#999999" stroke="#666666" points="307.5,-115.75 161.75,-115.75 161.75,-56.75 307.5,-56.75 307.5,-115.75"/>
<text xml:space="preserve" text-anchor="start" x="169.75" y="-102.25" font-family="Helvetica,sans-Serif" font-size="10.00">/opt/unreal&#45;engine</text>
<text xml:space="preserve" text-anchor="start" x="169.75" y="-89.5" font-family="Helvetica,sans-Serif" font-size="10.00">/Engine/Source/Runtime</text>
<text xml:space="preserve" text-anchor="start" x="169.75" y="-76.75" font-family="Helvetica,sans-Serif" font-size="10.00">/Engine/Classes/Animation</text>
<text xml:space="preserve" text-anchor="middle" x="234.62" y="-64" font-family="Helvetica,sans-Serif" font-size="10.00">/InputScaleBias.h</text>
</a>
</g>
</g>
<!-- Node2 -->
<g id="Node000002" class="node">
<title>Node2</title>
<g id="a_Node000002"><a xlink:title=" ">
<polygon fill="#e0e0e0" stroke="#999999" points="87.25,-20.75 0,-20.75 0,0 87.25,0 87.25,-20.75"/>
<text xml:space="preserve" text-anchor="middle" x="43.62" y="-7.25" font-family="Helvetica,sans-Serif" font-size="10.00">CoreMinimal.h</text>
</a>
</g>
</g>
<!-- Node1&#45;&gt;Node2 -->
<g id="edge1_Node000001_Node000002" class="edge">
<title>Node1&#45;&gt;Node2</title>
<g id="a_edge1_Node000001_Node000002"><a xlink:title=" ">
<path fill="none" stroke="#63b8ff" d="M161.33,-56.9C133.3,-46.06 102.57,-34.17 79.54,-25.27"/>
<polygon fill="#63b8ff" stroke="#63b8ff" points="80.9,-22.04 70.31,-21.7 78.38,-28.57 80.9,-22.04"/>
</a>
</g>
</g>
<!-- Node3 -->
<g id="Node000003" class="node">
<title>Node3</title>
<g id="a_Node000003"><a xlink:title=" ">
<polygon fill="#e0e0e0" stroke="#999999" points="239.5,-20.75 105.75,-20.75 105.75,0 239.5,0 239.5,-20.75"/>
<text xml:space="preserve" text-anchor="middle" x="172.62" y="-7.25" font-family="Helvetica,sans-Serif" font-size="10.00">UObject/ObjectMacros.h</text>
</a>
</g>
</g>
<!-- Node1&#45;&gt;Node3 -->
<g id="edge2_Node000001_Node000003" class="edge">
<title>Node1&#45;&gt;Node3</title>
<g id="a_edge2_Node000001_Node000003"><a xlink:title=" ">
<path fill="none" stroke="#63b8ff" d="M210.48,-56.48C202.95,-47.51 194.86,-37.86 188.09,-29.8"/>
<polygon fill="#63b8ff" stroke="#63b8ff" points="190.96,-27.78 181.85,-22.37 185.6,-32.28 190.96,-27.78"/>
</a>
</g>
</g>
<!-- Node4 -->
<g id="Node000004" class="node">
<title>Node4</title>
<g id="a_Node000004"><a xlink:title=" ">
<polygon fill="#e0e0e0" stroke="#999999" points="337.88,-20.75 257.38,-20.75 257.38,0 337.88,0 337.88,-20.75"/>
<text xml:space="preserve" text-anchor="middle" x="297.62" y="-7.25" font-family="Helvetica,sans-Serif" font-size="10.00">AlphaBlend.h</text>
</a>
</g>
</g>
<!-- Node1&#45;&gt;Node4 -->
<g id="edge3_Node000001_Node000004" class="edge">
<title>Node1&#45;&gt;Node4</title>
<g id="a_edge3_Node000001_Node000004"><a xlink:title=" ">
<path fill="none" stroke="#63b8ff" d="M259.16,-56.48C266.81,-47.51 275.04,-37.86 281.91,-29.8"/>
<polygon fill="#63b8ff" stroke="#63b8ff" points="284.43,-32.24 288.26,-22.36 279.11,-27.7 284.43,-32.24"/>
</a>
</g>
</g>
<!-- Node5 -->
<g id="Node000005" class="node">
<title>Node5</title>
<g id="a_Node000005"><a xlink:title=" ">
<polygon fill="#e0e0e0" stroke="#999999" points="505.38,-20.75 355.88,-20.75 355.88,0 505.38,0 505.38,-20.75"/>
<text xml:space="preserve" text-anchor="middle" x="430.62" y="-7.25" font-family="Helvetica,sans-Serif" font-size="10.00">InputScaleBias.generated.h</text>
</a>
</g>
</g>
<!-- Node1&#45;&gt;Node5 -->
<g id="edge4_Node000001_Node000005" class="edge">
<title>Node1&#45;&gt;Node5</title>
<g id="a_edge4_Node000001_Node000005"><a xlink:title=" ">
<path fill="none" stroke="#63b8ff" d="M307.89,-57.64C337.31,-46.55 369.91,-34.26 394.11,-25.14"/>
<polygon fill="#63b8ff" stroke="#63b8ff" points="395.06,-28.52 403.18,-21.72 392.59,-21.97 395.06,-28.52"/>
</a>
</g>
</g>
</g>
</svg>
