<?xml version="1.0" encoding="UTF-8" standalone="no"?>
<!DOCTYPE svg PUBLIC "-//W3C//DTD SVG 1.1//EN"
 "http://www.w3.org/Graphics/SVG/1.1/DTD/svg11.dtd">
<!-- Generated by graphviz version 14.1.4 (0)
 -->
<!-- Title: /opt/unreal&#45;engine/Engine/Source/Runtime/Core/Public/IOS/IOSPlatformMemory.h Pages: 1 -->
<svg width="1550pt" height="654pt"
 viewBox="0.00 0.00 1550.00 654.00" xmlns="http://www.w3.org/2000/svg" xmlns:xlink="http://www.w3.org/1999/xlink">
<g id="graph0" class="graph" transform="scale(1 1) rotate(0) translate(4 650.25)">
<title>/opt/unreal&#45;engine/Engine/Source/Runtime/Core/Public/IOS/IOSPlatformMemory.h</title>
<!-- Node1 -->
<g id="Node000001" class="node">
<title>Node1</title>
<g id="a_Node000001"><a xlink:title=" ">
<polygon fill="#999999" stroke="#666666" points="758.12,-646.25 603.38,-646.25 603.38,-587.25 758.12,-587.25 758.12,-646.25"/>
<text xml:space="preserve" text-anchor="start" x="611.38" y="-632.75" font-family="Helvetica,sans-Serif" font-size="10.00">/opt/unreal&#45;engine</text>
<text xml:space="preserve" text-anchor="start" x="611.38" y="-620" font-family="Helvetica,sans-Serif" font-size="10.00">/Engine/Source/Runtime</text>
<text xml:space="preserve" text-anchor="start" x="611.38" y="-607.25" font-family="Helvetica,sans-Serif" font-size="10.00">/Core/Public/IOS/IOSPlatform</text>
<text xml:space="preserve" text-anchor="middle" x="680.75" y="-594.5" font-family="Helvetica,sans-Serif" font-size="10.00">Memory.h</text>
</a>
</g>
</g>
<!-- Node2 -->
<g id="Node000002" class="node">
<title>Node2</title>
<g id="a_Node000002"><a xlink:href="$GenericPlatformMemory_8h.html" xlink:title=" ">
<polygon fill="white" stroke="#666666" points="683.75,-494.5 505.75,-494.5 505.75,-461 683.75,-461 683.75,-494.5"/>
<text xml:space="preserve" text-anchor="start" x="513.75" y="-481" font-family="Helvetica,sans-Serif" font-size="10.00">GenericPlatform/GenericPlatform</text>
<text xml:space="preserve" text-anchor="middle" x="594.75" y="-468.25" font-family="Helvetica,sans-Serif" font-size="10.00">Memory.h</text>
</a>
</g>
</g>
<!-- Node1&#45;&gt;Node2 -->
<g id="edge1_Node000001_Node000002" class="edge">
<title>Node1&#45;&gt;Node2</title>
<g id="a_edge1_Node000001_Node000002"><a xlink:title=" ">
<path fill="none" stroke="#63b8ff" d="M662.72,-587.03C647.36,-562.56 625.5,-527.73 610.75,-504.24"/>
<polygon fill="#63b8ff" stroke="#63b8ff" points="613.8,-502.51 605.52,-495.9 607.87,-506.23 613.8,-502.51"/>
</a>
</g>
</g>
<!-- Node28 -->
<g id="Node000028" class="node">
<title>Node28</title>
<g id="a_Node000028"><a xlink:href="$ApplePlatformMemory_8h.html" xlink:title=" ">
<polygon fill="white" stroke="#666666" points="848,-551.25 683.5,-551.25 683.5,-530.5 848,-530.5 848,-551.25"/>
<text xml:space="preserve" text-anchor="middle" x="765.75" y="-537.75" font-family="Helvetica,sans-Serif" font-size="10.00">Apple/ApplePlatformMemory.h</text>
</a>
</g>
</g>
<!-- Node1&#45;&gt;Node28 -->
<g id="edge35_Node000001_Node000028" class="edge">
<title>Node1&#45;&gt;Node28</title>
<g id="a_edge35_Node000001_Node000028"><a xlink:title=" ">
<path fill="none" stroke="#63b8ff" d="M713.86,-586.98C724.74,-577.52 736.48,-567.31 746.04,-559"/>
<polygon fill="#63b8ff" stroke="#63b8ff" points="748.04,-561.9 753.3,-552.7 743.45,-556.62 748.04,-561.9"/>
</a>
</g>
</g>
<!-- Node3 -->
<g id="Node000003" class="node">
<title>Node3</title>
<g id="a_Node000003"><a xlink:href="$CoreFwd_8h.html" xlink:title=" ">
<polygon fill="white" stroke="#666666" points="501.62,-425 433.88,-425 433.88,-404.25 501.62,-404.25 501.62,-425"/>
<text xml:space="preserve" text-anchor="middle" x="467.75" y="-411.5" font-family="Helvetica,sans-Serif" font-size="10.00">CoreFwd.h</text>
</a>
</g>
</g>
<!-- Node2&#45;&gt;Node3 -->
<g id="edge2_Node000002_Node000003" class="edge">
<title>Node2&#45;&gt;Node3</title>
<g id="a_edge2_Node000002_Node000003"><a xlink:title=" ">
<path fill="none" stroke="#63b8ff" d="M561.05,-460.53C541.55,-451.14 517.2,-439.42 498.26,-430.31"/>
<polygon fill="#63b8ff" stroke="#63b8ff" points="499.98,-427.25 489.45,-426.07 496.95,-433.56 499.98,-427.25"/>
</a>
</g>
</g>
<!-- Node4 -->
<g id="Node000004" class="node">
<title>Node4</title>
<g id="a_Node000004"><a xlink:href="$CoreTypes_8h.html" xlink:title=" ">
<polygon fill="white" stroke="#666666" points="376.38,-235.62 301.12,-235.62 301.12,-214.88 376.38,-214.88 376.38,-235.62"/>
<text xml:space="preserve" text-anchor="middle" x="338.75" y="-222.12" font-family="Helvetica,sans-Serif" font-size="10.00">CoreTypes.h</text>
</a>
</g>
</g>
<!-- Node2&#45;&gt;Node4 -->
<g id="edge29_Node000002_Node000004" class="edge">
<title>Node2&#45;&gt;Node4</title>
<g id="a_edge29_Node000002_Node000004"><a xlink:title=" ">
<path fill="none" stroke="#63b8ff" d="M505.66,-464.46C402.44,-448.18 241.89,-415.85 205.75,-368.25 180.65,-335.19 201.04,-307.98 229.75,-278 246.59,-260.41 270.61,-248.13 291.82,-239.96"/>
<polygon fill="#63b8ff" stroke="#63b8ff" points="292.97,-243.26 301.18,-236.57 290.58,-236.68 292.97,-243.26"/>
</a>
</g>
</g>
<!-- Node24 -->
<g id="Node000024" class="node">
<title>Node24</title>
<g id="a_Node000024"><a xlink:href="$PlatformString_8h.html" xlink:title=" ">
<polygon fill="white" stroke="#666666" points="653.75,-425 535.75,-425 535.75,-404.25 653.75,-404.25 653.75,-425"/>
<text xml:space="preserve" text-anchor="middle" x="594.75" y="-411.5" font-family="Helvetica,sans-Serif" font-size="10.00">HAL/PlatformString.h</text>
</a>
</g>
</g>
<!-- Node2&#45;&gt;Node24 -->
<g id="edge30_Node000002_Node000024" class="edge">
<title>Node2&#45;&gt;Node24</title>
<g id="a_edge30_Node000002_Node000024"><a xlink:title=" ">
<path fill="none" stroke="#63b8ff" d="M594.75,-460.69C594.75,-453.35 594.75,-444.57 594.75,-436.71"/>
<polygon fill="#63b8ff" stroke="#63b8ff" points="598.25,-436.98 594.75,-426.98 591.25,-436.98 598.25,-436.98"/>
</a>
</g>
</g>
<!-- Node26 -->
<g id="Node000026" class="node">
<title>Node26</title>
<g id="a_Node000026"><a xlink:title=" ">
<polygon fill="#e0e0e0" stroke="#999999" points="724.12,-425 671.38,-425 671.38,-404.25 724.12,-404.25 724.12,-425"/>
<text xml:space="preserve" text-anchor="middle" x="697.75" y="-411.5" font-family="Helvetica,sans-Serif" font-size="10.00">string.h</text>
</a>
</g>
</g>
<!-- Node2&#45;&gt;Node26 -->
<g id="edge33_Node000002_Node000026" class="edge">
<title>Node2&#45;&gt;Node26</title>
<g id="a_edge33_Node000002_Node000026"><a xlink:title=" ">
<path fill="none" stroke="#63b8ff" d="M622.08,-460.53C637.38,-451.45 656.37,-440.18 671.49,-431.21"/>
<polygon fill="#63b8ff" stroke="#63b8ff" points="673.14,-434.3 679.95,-426.19 669.57,-428.28 673.14,-434.3"/>
</a>
</g>
</g>
<!-- Node27 -->
<g id="Node000027" class="node">
<title>Node27</title>
<g id="a_Node000027"><a xlink:title=" ">
<polygon fill="#e0e0e0" stroke="#999999" points="796.88,-425 742.62,-425 742.62,-404.25 796.88,-404.25 796.88,-425"/>
<text xml:space="preserve" text-anchor="middle" x="769.75" y="-411.5" font-family="Helvetica,sans-Serif" font-size="10.00">wchar.h</text>
</a>
</g>
</g>
<!-- Node2&#45;&gt;Node27 -->
<g id="edge34_Node000002_Node000027" class="edge">
<title>Node2&#45;&gt;Node27</title>
<g id="a_edge34_Node000002_Node000027"><a xlink:title=" ">
<path fill="none" stroke="#63b8ff" d="M641.19,-460.53C669.36,-450.69 704.88,-438.28 731.45,-429"/>
<polygon fill="#63b8ff" stroke="#63b8ff" points="732.52,-432.34 740.8,-425.74 730.21,-425.73 732.52,-432.34"/>
</a>
</g>
</g>
<!-- Node3&#45;&gt;Node4 -->
<g id="edge3_Node000003_Node000004" class="edge">
<title>Node3&#45;&gt;Node4</title>
<g id="a_edge3_Node000003_Node000004"><a xlink:title=" ">
<path fill="none" stroke="#63b8ff" d="M433.56,-412.57C372.05,-409.86 246.59,-400.44 219.75,-368.25 181.17,-321.97 262.77,-267.38 309.33,-241.43"/>
<polygon fill="#63b8ff" stroke="#63b8ff" points="310.78,-244.62 317.89,-236.77 307.44,-238.47 310.78,-244.62"/>
</a>
</g>
</g>
<!-- Node18 -->
<g id="Node000018" class="node">
<title>Node18</title>
<g id="a_Node000018"><a xlink:href="$ContainersFwd_8h.html" xlink:title=" ">
<polygon fill="white" stroke="#666666" points="544.38,-361.88 391.12,-361.88 391.12,-341.12 544.38,-341.12 544.38,-361.88"/>
<text xml:space="preserve" text-anchor="middle" x="467.75" y="-348.38" font-family="Helvetica,sans-Serif" font-size="10.00">Containers/ContainersFwd.h</text>
</a>
</g>
</g>
<!-- Node3&#45;&gt;Node18 -->
<g id="edge19_Node000003_Node000018" class="edge">
<title>Node3&#45;&gt;Node18</title>
<g id="a_edge19_Node000003_Node000018"><a xlink:title=" ">
<path fill="none" stroke="#63b8ff" d="M467.75,-403.8C467.75,-395.65 467.75,-383.76 467.75,-373.48"/>
<polygon fill="#63b8ff" stroke="#63b8ff" points="471.25,-373.61 467.75,-363.61 464.25,-373.61 471.25,-373.61"/>
</a>
</g>
</g>
<!-- Node22 -->
<g id="Node000022" class="node">
<title>Node22</title>
<g id="a_Node000022"><a xlink:href="$MathFwd_8h.html" xlink:title=" ">
<polygon fill="white" stroke="#666666" points="796.62,-298.75 698.88,-298.75 698.88,-278 796.62,-278 796.62,-298.75"/>
<text xml:space="preserve" text-anchor="middle" x="747.75" y="-285.25" font-family="Helvetica,sans-Serif" font-size="10.00">Math/MathFwd.h</text>
</a>
</g>
</g>
<!-- Node3&#45;&gt;Node22 -->
<g id="edge26_Node000003_Node000022" class="edge">
<title>Node3&#45;&gt;Node22</title>
<g id="a_edge26_Node000003_Node000022"><a xlink:title=" ">
<path fill="none" stroke="#63b8ff" d="M486.46,-403.86C516.37,-388.41 576.96,-357.7 629.75,-334.75 656.16,-323.27 686.5,-311.63 709.8,-303.02"/>
<polygon fill="#63b8ff" stroke="#63b8ff" points="710.69,-306.42 718.88,-299.69 708.28,-299.85 710.69,-306.42"/>
</a>
</g>
</g>
<!-- Node23 -->
<g id="Node000023" class="node">
<title>Node23</title>
<g id="a_Node000023"><a xlink:href="$UObjectHierarchyFwd_8h.html" xlink:title=" ">
<polygon fill="white" stroke="#666666" points="372.88,-368.25 228.62,-368.25 228.62,-334.75 372.88,-334.75 372.88,-368.25"/>
<text xml:space="preserve" text-anchor="start" x="236.62" y="-354.75" font-family="Helvetica,sans-Serif" font-size="10.00">UObject/UObjectHierarchy</text>
<text xml:space="preserve" text-anchor="middle" x="300.75" y="-342" font-family="Helvetica,sans-Serif" font-size="10.00">Fwd.h</text>
</a>
</g>
</g>
<!-- Node3&#45;&gt;Node23 -->
<g id="edge28_Node000003_Node000023" class="edge">
<title>Node3&#45;&gt;Node23</title>
<g id="a_edge28_Node000003_Node000023"><a xlink:title=" ">
<path fill="none" stroke="#63b8ff" d="M440.92,-403.8C418.03,-395.43 384.38,-383.11 355.78,-372.64"/>
<polygon fill="#63b8ff" stroke="#63b8ff" points="357.12,-369.41 346.53,-369.26 354.71,-375.98 357.12,-369.41"/>
</a>
</g>
</g>
<!-- Node5 -->
<g id="Node000005" class="node">
<title>Node5</title>
<g id="a_Node000005"><a xlink:href="$Platform_8h.html" xlink:title=" ">
<polygon fill="white" stroke="#666666" points="715.5,-103 626,-103 626,-82.25 715.5,-82.25 715.5,-103"/>
<text xml:space="preserve" text-anchor="middle" x="670.75" y="-89.5" font-family="Helvetica,sans-Serif" font-size="10.00">HAL/Platform.h</text>
</a>
</g>
</g>
<!-- Node4&#45;&gt;Node5 -->
<g id="edge4_Node000004_Node000005" class="edge">
<title>Node4&#45;&gt;Node5</title>
<g id="a_edge4_Node000004_Node000005"><a xlink:title=" ">
<path fill="none" stroke="#63b8ff" d="M366.46,-214.54C372.77,-212.45 379.47,-210.32 385.75,-208.5 450.36,-189.8 470.28,-197.43 532.75,-172.5 575.48,-155.45 621.07,-127.16 647.69,-109.5"/>
<polygon fill="#63b8ff" stroke="#63b8ff" points="649.31,-112.62 655.66,-104.14 645.4,-106.81 649.31,-112.62"/>
</a>
</g>
</g>
<!-- Node15 -->
<g id="Node000015" class="node">
<title>Node15</title>
<g id="a_Node000015"><a xlink:href="$UMemoryDefines_8h.html" xlink:title=" ">
<polygon fill="white" stroke="#666666" points="395.5,-172.5 282,-172.5 282,-139 395.5,-139 395.5,-172.5"/>
<text xml:space="preserve" text-anchor="start" x="290" y="-159" font-family="Helvetica,sans-Serif" font-size="10.00">ProfilingDebugging</text>
<text xml:space="preserve" text-anchor="middle" x="338.75" y="-146.25" font-family="Helvetica,sans-Serif" font-size="10.00">/UMemoryDefines.h</text>
</a>
</g>
</g>
<!-- Node4&#45;&gt;Node15 -->
<g id="edge14_Node000004_Node000015" class="edge">
<title>Node4&#45;&gt;Node15</title>
<g id="a_edge14_Node000004_Node000015"><a xlink:title=" ">
<path fill="none" stroke="#63b8ff" d="M338.75,-214.58C338.75,-206.69 338.75,-195.13 338.75,-184.41"/>
<polygon fill="#63b8ff" stroke="#63b8ff" points="342.25,-184.43 338.75,-174.43 335.25,-184.43 342.25,-184.43"/>
</a>
</g>
</g>
<!-- Node16 -->
<g id="Node000016" class="node">
<title>Node16</title>
<g id="a_Node000016"><a xlink:href="$CoreMiscDefines_8h.html" xlink:title=" ">
<polygon fill="white" stroke="#666666" points="264.25,-166.12 131.25,-166.12 131.25,-145.38 264.25,-145.38 264.25,-166.12"/>
<text xml:space="preserve" text-anchor="middle" x="197.75" y="-152.62" font-family="Helvetica,sans-Serif" font-size="10.00">Misc/CoreMiscDefines.h</text>
</a>
</g>
</g>
<!-- Node4&#45;&gt;Node16 -->
<g id="edge15_Node000004_Node000016" class="edge">
<title>Node4&#45;&gt;Node16</title>
<g id="a_edge15_Node000004_Node000016"><a xlink:title=" ">
<path fill="none" stroke="#63b8ff" d="M318.25,-214.43C294.65,-203.14 255.65,-184.47 228.43,-171.44"/>
<polygon fill="#63b8ff" stroke="#63b8ff" points="230.17,-168.39 219.64,-167.23 227.15,-174.71 230.17,-168.39"/>
</a>
</g>
</g>
<!-- Node17 -->
<g id="Node000017" class="node">
<title>Node17</title>
<g id="a_Node000017"><a xlink:href="$CoreDefines_8h.html" xlink:title=" ">
<polygon fill="white" stroke="#666666" points="524,-166.12 413.5,-166.12 413.5,-145.38 524,-145.38 524,-166.12"/>
<text xml:space="preserve" text-anchor="middle" x="468.75" y="-152.62" font-family="Helvetica,sans-Serif" font-size="10.00">Misc/CoreDefines.h</text>
</a>
</g>
</g>
<!-- Node4&#45;&gt;Node17 -->
<g id="edge18_Node000004_Node000017" class="edge">
<title>Node4&#45;&gt;Node17</title>
<g id="a_edge18_Node000004_Node000017"><a xlink:title=" ">
<path fill="none" stroke="#63b8ff" d="M357.65,-214.43C379.22,-203.24 414.73,-184.8 439.79,-171.78"/>
<polygon fill="#63b8ff" stroke="#63b8ff" points="441.22,-174.99 448.48,-167.27 437.99,-168.78 441.22,-174.99"/>
</a>
</g>
</g>
<!-- Node6 -->
<g id="Node000006" class="node">
<title>Node6</title>
<g id="a_Node000006"><a xlink:href="$Build_8h.html" xlink:title=" ">
<polygon fill="white" stroke="#666666" points="1542.38,-33.5 1467.12,-33.5 1467.12,-12.75 1542.38,-12.75 1542.38,-33.5"/>
<text xml:space="preserve" text-anchor="middle" x="1504.75" y="-20" font-family="Helvetica,sans-Serif" font-size="10.00">Misc/Build.h</text>
</a>
</g>
</g>
<!-- Node5&#45;&gt;Node6 -->
<g id="edge5_Node000005_Node000006" class="edge">
<title>Node5&#45;&gt;Node6</title>
<g id="a_edge5_Node000005_Node000006"><a xlink:title=" ">
<path fill="none" stroke="#63b8ff" d="M715.89,-91.27C861.23,-89.79 1315.82,-82.31 1457.75,-46.25 1464.47,-44.54 1471.39,-41.87 1477.79,-38.96"/>
<polygon fill="#63b8ff" stroke="#63b8ff" points="1479.14,-42.19 1486.57,-34.64 1476.05,-35.91 1479.14,-42.19"/>
</a>
</g>
</g>
<!-- Node7 -->
<g id="Node000007" class="node">
<title>Node7</title>
<g id="a_Node000007"><a xlink:href="$LargeWorldCoordinates_8h.html" xlink:title=" ">
<polygon fill="white" stroke="#666666" points="308,-33.5 143.5,-33.5 143.5,-12.75 308,-12.75 308,-33.5"/>
<text xml:space="preserve" text-anchor="middle" x="225.75" y="-20" font-family="Helvetica,sans-Serif" font-size="10.00">Misc/LargeWorldCoordinates.h</text>
</a>
</g>
</g>
<!-- Node5&#45;&gt;Node7 -->
<g id="edge6_Node000005_Node000007" class="edge">
<title>Node5&#45;&gt;Node7</title>
<g id="a_edge6_Node000005_Node000007"><a xlink:title=" ">
<path fill="none" stroke="#63b8ff" d="M625.65,-87.41C558.3,-80.75 427.59,-66.46 317.75,-46.25 303.34,-43.6 287.81,-40.11 273.69,-36.69"/>
<polygon fill="#63b8ff" stroke="#63b8ff" points="274.73,-33.34 264.18,-34.34 273.05,-40.14 274.73,-33.34"/>
</a>
</g>
</g>
<!-- Node8 -->
<g id="Node000008" class="node">
<title>Node8</title>
<g id="a_Node000008"><a xlink:title=" ">
<polygon fill="#e0e0e0" stroke="#999999" points="395,-33.5 326.5,-33.5 326.5,-12.75 395,-12.75 395,-33.5"/>
<text xml:space="preserve" text-anchor="middle" x="360.75" y="-20" font-family="Helvetica,sans-Serif" font-size="10.00">type_traits</text>
</a>
</g>
</g>
<!-- Node5&#45;&gt;Node8 -->
<g id="edge7_Node000005_Node000008" class="edge">
<title>Node5&#45;&gt;Node8</title>
<g id="a_edge7_Node000005_Node000008"><a xlink:title=" ">
<path fill="none" stroke="#63b8ff" d="M625.53,-88.03C571.8,-82.82 479.97,-70.96 404.75,-46.25 399.01,-44.36 393.08,-41.83 387.51,-39.16"/>
<polygon fill="#63b8ff" stroke="#63b8ff" points="389.22,-36.1 378.73,-34.65 386.03,-42.33 389.22,-36.1"/>
</a>
</g>
</g>
<!-- Node9 -->
<g id="Node000009" class="node">
<title>Node9</title>
<g id="a_Node000009"><a xlink:href="$PreprocessorHelpers_8h.html" xlink:title=" ">
<polygon fill="white" stroke="#666666" points="125.5,-33.5 0,-33.5 0,-12.75 125.5,-12.75 125.5,-33.5"/>
<text xml:space="preserve" text-anchor="middle" x="62.75" y="-20" font-family="Helvetica,sans-Serif" font-size="10.00">PreprocessorHelpers.h</text>
</a>
</g>
</g>
<!-- Node5&#45;&gt;Node9 -->
<g id="edge8_Node000005_Node000009" class="edge">
<title>Node5&#45;&gt;Node9</title>
<g id="a_edge8_Node000005_Node000009"><a xlink:title=" ">
<path fill="none" stroke="#63b8ff" d="M625.84,-91.05C533.18,-89.16 314.45,-81.05 134.75,-46.25 123.51,-44.07 111.53,-40.8 100.64,-37.43"/>
<polygon fill="#63b8ff" stroke="#63b8ff" points="101.79,-34.12 91.19,-34.39 99.64,-40.78 101.79,-34.12"/>
</a>
</g>
</g>
<!-- Node10 -->
<g id="Node000010" class="node">
<title>Node10</title>
<g id="a_Node000010"><a xlink:title=" ">
<polygon fill="#e0e0e0" stroke="#999999" points="610.12,-46.25 413.38,-46.25 413.38,0 610.12,0 610.12,-46.25"/>
<text xml:space="preserve" text-anchor="start" x="421.38" y="-32.75" font-family="Helvetica,sans-Serif" font-size="10.00">UBT_COMPILED_PLATFORM</text>
<text xml:space="preserve" text-anchor="start" x="421.38" y="-20" font-family="Helvetica,sans-Serif" font-size="10.00">/UBT_COMPILED_PLATFORMPlatform</text>
<text xml:space="preserve" text-anchor="middle" x="511.75" y="-7.25" font-family="Helvetica,sans-Serif" font-size="10.00">CompilerPreSetup.h</text>
</a>
</g>
</g>
<!-- Node5&#45;&gt;Node10 -->
<g id="edge9_Node000005_Node000010" class="edge">
<title>Node5&#45;&gt;Node10</title>
<g id="a_edge9_Node000005_Node000010"><a xlink:title=" ">
<path fill="none" stroke="#63b8ff" d="M647.63,-81.81C628.63,-73.74 600.78,-61.92 575.23,-51.07"/>
<polygon fill="#63b8ff" stroke="#63b8ff" points="576.79,-47.94 566.22,-47.25 574.06,-54.38 576.79,-47.94"/>
</a>
</g>
</g>
<!-- Node11 -->
<g id="Node000011" class="node">
<title>Node11</title>
<g id="a_Node000011"><a xlink:href="$GenericPlatformCompilerPreSetup_8h.html" xlink:title=" ">
<polygon fill="white" stroke="#666666" points="805.75,-39.88 627.75,-39.88 627.75,-6.38 805.75,-6.38 805.75,-39.88"/>
<text xml:space="preserve" text-anchor="start" x="635.75" y="-26.38" font-family="Helvetica,sans-Serif" font-size="10.00">GenericPlatform/GenericPlatform</text>
<text xml:space="preserve" text-anchor="middle" x="716.75" y="-13.62" font-family="Helvetica,sans-Serif" font-size="10.00">CompilerPreSetup.h</text>
</a>
</g>
</g>
<!-- Node5&#45;&gt;Node11 -->
<g id="edge10_Node000005_Node000011" class="edge">
<title>Node5&#45;&gt;Node11</title>
<g id="a_edge10_Node000005_Node000011"><a xlink:title=" ">
<path fill="none" stroke="#63b8ff" d="M677.34,-81.95C683.07,-73.55 691.62,-61 699.3,-49.73"/>
<polygon fill="#63b8ff" stroke="#63b8ff" points="702.14,-51.78 704.88,-41.54 696.35,-47.84 702.14,-51.78"/>
</a>
</g>
</g>
<!-- Node12 -->
<g id="Node000012" class="node">
<title>Node12</title>
<g id="a_Node000012"><a xlink:href="$GenericPlatform_8h.html" xlink:title=" ">
<polygon fill="white" stroke="#666666" points="1011.25,-33.5 824.25,-33.5 824.25,-12.75 1011.25,-12.75 1011.25,-33.5"/>
<text xml:space="preserve" text-anchor="middle" x="917.75" y="-20" font-family="Helvetica,sans-Serif" font-size="10.00">GenericPlatform/GenericPlatform.h</text>
</a>
</g>
</g>
<!-- Node5&#45;&gt;Node12 -->
<g id="edge11_Node000005_Node000012" class="edge">
<title>Node5&#45;&gt;Node12</title>
<g id="a_edge11_Node000005_Node000012"><a xlink:title=" ">
<path fill="none" stroke="#63b8ff" d="M706.67,-81.81C750.02,-69.96 823.04,-50.01 870.82,-36.95"/>
<polygon fill="#63b8ff" stroke="#63b8ff" points="871.61,-40.36 880.33,-34.35 869.76,-33.61 871.61,-40.36"/>
</a>
</g>
</g>
<!-- Node13 -->
<g id="Node000013" class="node">
<title>Node13</title>
<g id="a_Node000013"><a xlink:title=" ">
<polygon fill="#e0e0e0" stroke="#999999" points="1234.62,-39.88 1028.88,-39.88 1028.88,-6.38 1234.62,-6.38 1234.62,-39.88"/>
<text xml:space="preserve" text-anchor="start" x="1036.88" y="-26.38" font-family="Helvetica,sans-Serif" font-size="10.00">UBT_COMPILED_PLATFORM</text>
<text xml:space="preserve" text-anchor="middle" x="1131.75" y="-13.62" font-family="Helvetica,sans-Serif" font-size="10.00">/UBT_COMPILED_PLATFORMPlatform.h</text>
</a>
</g>
</g>
<!-- Node5&#45;&gt;Node13 -->
<g id="edge12_Node000005_Node000013" class="edge">
<title>Node5&#45;&gt;Node13</title>
<g id="a_edge12_Node000005_Node000013"><a xlink:title=" ">
<path fill="none" stroke="#63b8ff" d="M715.92,-86.76C782.74,-79.34 911.77,-64.15 1020.75,-46.25 1027.9,-45.08 1035.29,-43.78 1042.7,-42.43"/>
<polygon fill="#63b8ff" stroke="#63b8ff" points="1043.27,-45.88 1052.45,-40.61 1041.98,-39 1043.27,-45.88"/>
</a>
</g>
</g>
<!-- Node14 -->
<g id="Node000014" class="node">
<title>Node14</title>
<g id="a_Node000014"><a xlink:title=" ">
<polygon fill="#e0e0e0" stroke="#999999" points="1449.12,-46.25 1252.38,-46.25 1252.38,0 1449.12,0 1449.12,-46.25"/>
<text xml:space="preserve" text-anchor="start" x="1260.38" y="-32.75" font-family="Helvetica,sans-Serif" font-size="10.00">UBT_COMPILED_PLATFORM</text>
<text xml:space="preserve" text-anchor="start" x="1260.38" y="-20" font-family="Helvetica,sans-Serif" font-size="10.00">/UBT_COMPILED_PLATFORMPlatform</text>
<text xml:space="preserve" text-anchor="middle" x="1350.75" y="-7.25" font-family="Helvetica,sans-Serif" font-size="10.00">CompilerSetup.h</text>
</a>
</g>
</g>
<!-- Node5&#45;&gt;Node14 -->
<g id="edge13_Node000005_Node000014" class="edge">
<title>Node5&#45;&gt;Node14</title>
<g id="a_edge13_Node000005_Node000014"><a xlink:title=" ">
<path fill="none" stroke="#63b8ff" d="M715.9,-89.97C811.14,-86.06 1039.7,-74.51 1240.64,-46.61"/>
<polygon fill="#63b8ff" stroke="#63b8ff" points="1241.1,-50.08 1250.51,-45.22 1240.12,-43.15 1241.1,-50.08"/>
</a>
</g>
</g>
<!-- Node16&#45;&gt;Node5 -->
<g id="edge16_Node000016_Node000005" class="edge">
<title>Node16&#45;&gt;Node5</title>
<g id="a_edge16_Node000016_Node000005"><a xlink:title=" ">
<path fill="none" stroke="#63b8ff" d="M241.25,-144.9C251.54,-142.76 262.51,-140.66 272.75,-139 393.88,-119.42 537.1,-105.28 614.42,-98.37"/>
<polygon fill="#63b8ff" stroke="#63b8ff" points="614.64,-101.87 624.29,-97.5 614.02,-94.9 614.64,-101.87"/>
</a>
</g>
</g>
<!-- Node16&#45;&gt;Node9 -->
<g id="edge17_Node000016_Node000009" class="edge">
<title>Node16&#45;&gt;Node9</title>
<g id="a_edge17_Node000016_Node000009"><a xlink:title=" ">
<path fill="none" stroke="#63b8ff" d="M187.6,-144.93C164.82,-122.89 109.35,-69.21 80.63,-41.43"/>
<polygon fill="#63b8ff" stroke="#63b8ff" points="83.36,-39.19 73.74,-34.75 78.49,-44.22 83.36,-39.19"/>
</a>
</g>
</g>
<!-- Node18&#45;&gt;Node4 -->
<g id="edge21_Node000018_Node000004" class="edge">
<title>Node18&#45;&gt;Node4</title>
<g id="a_edge21_Node000018_Node000004"><a xlink:title=" ">
<path fill="none" stroke="#63b8ff" d="M457.63,-340.75C435.87,-319.79 384.38,-270.2 356.85,-243.69"/>
<polygon fill="#63b8ff" stroke="#63b8ff" points="359.55,-241.42 349.92,-237 354.69,-246.46 359.55,-241.42"/>
</a>
</g>
</g>
<!-- Node18&#45;&gt;Node5 -->
<g id="edge20_Node000018_Node000005" class="edge">
<title>Node18&#45;&gt;Node5</title>
<g id="a_edge20_Node000018_Node000005"><a xlink:title=" ">
<path fill="none" stroke="#63b8ff" d="M512.58,-340.68C564.09,-328.96 642.7,-309.62 651.75,-298.75 696.25,-245.32 684.12,-154.73 675.71,-114.25"/>
<polygon fill="#63b8ff" stroke="#63b8ff" points="679.16,-113.65 673.56,-104.65 672.33,-115.18 679.16,-113.65"/>
</a>
</g>
</g>
<!-- Node19 -->
<g id="Node000019" class="node">
<title>Node19</title>
<g id="a_Node000019"><a xlink:href="$IsContiguousContainer_8h.html" xlink:title=" ">
<polygon fill="white" stroke="#666666" points="642.38,-298.75 477.12,-298.75 477.12,-278 642.38,-278 642.38,-298.75"/>
<text xml:space="preserve" text-anchor="middle" x="559.75" y="-285.25" font-family="Helvetica,sans-Serif" font-size="10.00">Traits/IsContiguousContainer.h</text>
</a>
</g>
</g>
<!-- Node18&#45;&gt;Node19 -->
<g id="edge22_Node000018_Node000019" class="edge">
<title>Node18&#45;&gt;Node19</title>
<g id="a_edge22_Node000018_Node000019"><a xlink:title=" ">
<path fill="none" stroke="#63b8ff" d="M482.53,-340.68C496.88,-331.14 518.91,-316.51 535.77,-305.31"/>
<polygon fill="#63b8ff" stroke="#63b8ff" points="537.35,-308.46 543.74,-300.01 533.48,-302.63 537.35,-308.46"/>
</a>
</g>
</g>
<!-- Node19&#45;&gt;Node4 -->
<g id="edge23_Node000019_Node000004" class="edge">
<title>Node19&#45;&gt;Node4</title>
<g id="a_edge23_Node000019_Node000004"><a xlink:title=" ">
<path fill="none" stroke="#63b8ff" d="M518.75,-277.52C483.35,-268.82 430.93,-255.44 385.75,-242 383.17,-241.23 380.53,-240.42 377.87,-239.58"/>
<polygon fill="#63b8ff" stroke="#63b8ff" points="379.02,-236.28 368.42,-236.52 376.86,-242.93 379.02,-236.28"/>
</a>
</g>
</g>
<!-- Node20 -->
<g id="Node000020" class="node">
<title>Node20</title>
<g id="a_Node000020"><a xlink:href="$StaticAssertCompleteType_8h.html" xlink:title=" ">
<polygon fill="white" stroke="#666666" points="642.38,-242 495.12,-242 495.12,-208.5 642.38,-208.5 642.38,-242"/>
<text xml:space="preserve" text-anchor="start" x="503.12" y="-228.5" font-family="Helvetica,sans-Serif" font-size="10.00">Misc/StaticAssertComplete</text>
<text xml:space="preserve" text-anchor="middle" x="568.75" y="-215.75" font-family="Helvetica,sans-Serif" font-size="10.00">Type.h</text>
</a>
</g>
</g>
<!-- Node19&#45;&gt;Node20 -->
<g id="edge24_Node000019_Node000020" class="edge">
<title>Node19&#45;&gt;Node20</title>
<g id="a_edge24_Node000019_Node000020"><a xlink:title=" ">
<path fill="none" stroke="#63b8ff" d="M561.2,-277.55C562.15,-271.06 563.46,-262.19 564.71,-253.66"/>
<polygon fill="#63b8ff" stroke="#63b8ff" points="568.14,-254.39 566.14,-243.98 561.22,-253.37 568.14,-254.39"/>
</a>
</g>
</g>
<!-- Node21 -->
<g id="Node000021" class="node">
<title>Node21</title>
<g id="a_Node000021"><a xlink:title=" ">
<polygon fill="#e0e0e0" stroke="#999999" points="476.75,-235.62 394.75,-235.62 394.75,-214.88 476.75,-214.88 476.75,-235.62"/>
<text xml:space="preserve" text-anchor="middle" x="435.75" y="-222.12" font-family="Helvetica,sans-Serif" font-size="10.00">initializer_list</text>
</a>
</g>
</g>
<!-- Node19&#45;&gt;Node21 -->
<g id="edge25_Node000019_Node000021" class="edge">
<title>Node19&#45;&gt;Node21</title>
<g id="a_edge25_Node000019_Node000021"><a xlink:title=" ">
<path fill="none" stroke="#63b8ff" d="M539.83,-277.55C519.85,-267.71 488.84,-252.42 465.86,-241.09"/>
<polygon fill="#63b8ff" stroke="#63b8ff" points="467.5,-238 456.98,-236.72 464.4,-244.28 467.5,-238"/>
</a>
</g>
</g>
<!-- Node22&#45;&gt;Node5 -->
<g id="edge27_Node000022_Node000005" class="edge">
<title>Node22&#45;&gt;Node5</title>
<g id="a_edge27_Node000022_Node000005"><a xlink:title=" ">
<path fill="none" stroke="#63b8ff" d="M743.83,-277.5C731.78,-247.18 695.14,-154.99 678.78,-113.84"/>
<polygon fill="#63b8ff" stroke="#63b8ff" points="682.08,-112.66 675.13,-104.66 675.57,-115.24 682.08,-112.66"/>
</a>
</g>
</g>
<!-- Node24&#45;&gt;Node4 -->
<g id="edge31_Node000024_Node000004" class="edge">
<title>Node24&#45;&gt;Node4</title>
<g id="a_edge31_Node000024_Node000004"><a xlink:title=" ">
<path fill="none" stroke="#63b8ff" d="M592.05,-403.78C587.07,-387.37 574.99,-354.29 553.75,-334.75 523.26,-306.69 504.98,-316.93 467.75,-298.75 431.03,-280.82 390.13,-257.18 364.43,-241.85"/>
<polygon fill="#63b8ff" stroke="#63b8ff" points="366.39,-238.94 356.02,-236.8 362.79,-244.94 366.39,-238.94"/>
</a>
</g>
</g>
<!-- Node25 -->
<g id="Node000025" class="node">
<title>Node25</title>
<g id="a_Node000025"><a xlink:title=" ">
<polygon fill="#e0e0e0" stroke="#999999" points="810.75,-368.25 638.75,-368.25 638.75,-334.75 810.75,-334.75 810.75,-368.25"/>
<text xml:space="preserve" text-anchor="start" x="646.75" y="-354.75" font-family="Helvetica,sans-Serif" font-size="10.00">COMPILED_PLATFORM_HEADER</text>
<text xml:space="preserve" text-anchor="middle" x="724.75" y="-342" font-family="Helvetica,sans-Serif" font-size="10.00">(PlatformString.h)</text>
</a>
</g>
</g>
<!-- Node24&#45;&gt;Node25 -->
<g id="edge32_Node000024_Node000025" class="edge">
<title>Node24&#45;&gt;Node25</title>
<g id="a_edge32_Node000024_Node000025"><a xlink:title=" ">
<path fill="none" stroke="#63b8ff" d="M615.64,-403.8C632.91,-395.68 658.04,-383.86 679.84,-373.62"/>
<polygon fill="#63b8ff" stroke="#63b8ff" points="681.29,-376.8 688.85,-369.38 678.31,-370.47 681.29,-376.8"/>
</a>
</g>
</g>
<!-- Node28&#45;&gt;Node2 -->
<g id="edge36_Node000028_Node000002" class="edge">
<title>Node28&#45;&gt;Node2</title>
<g id="a_edge36_Node000028_Node000002"><a xlink:title=" ">
<path fill="none" stroke="#63b8ff" d="M738.28,-530.05C714.73,-521.64 680.07,-509.25 650.71,-498.75"/>
<polygon fill="#63b8ff" stroke="#63b8ff" points="652.19,-495.56 641.59,-495.49 649.83,-502.16 652.19,-495.56"/>
</a>
</g>
</g>
<!-- Node29 -->
<g id="Node000029" class="node">
<title>Node29</title>
<g id="a_Node000029"><a xlink:title=" ">
<polygon fill="#e0e0e0" stroke="#999999" points="1057.62,-488.12 947.88,-488.12 947.88,-467.38 1057.62,-467.38 1057.62,-488.12"/>
<text xml:space="preserve" text-anchor="middle" x="1002.75" y="-474.62" font-family="Helvetica,sans-Serif" font-size="10.00">libkern/OSAtomic.h</text>
</a>
</g>
</g>
<!-- Node28&#45;&gt;Node29 -->
<g id="edge37_Node000028_Node000029" class="edge">
<title>Node28&#45;&gt;Node29</title>
<g id="a_edge37_Node000028_Node000029"><a xlink:title=" ">
<path fill="none" stroke="#63b8ff" d="M803.83,-530.05C844.51,-519.56 909.15,-502.89 953.64,-491.42"/>
<polygon fill="#63b8ff" stroke="#63b8ff" points="954.49,-494.81 963.3,-488.92 952.74,-488.03 954.49,-494.81"/>
</a>
</g>
</g>
<!-- Node30 -->
<g id="Node000030" class="node">
<title>Node30</title>
<g id="a_Node000030"><a xlink:title=" ">
<polygon fill="#e0e0e0" stroke="#999999" points="829.25,-488.12 702.25,-488.12 702.25,-467.38 829.25,-467.38 829.25,-488.12"/>
<text xml:space="preserve" text-anchor="middle" x="765.75" y="-474.62" font-family="Helvetica,sans-Serif" font-size="10.00">Foundation/NSObject.h</text>
</a>
</g>
</g>
<!-- Node28&#45;&gt;Node30 -->
<g id="edge38_Node000028_Node000030" class="edge">
<title>Node28&#45;&gt;Node30</title>
<g id="a_edge38_Node000028_Node000030"><a xlink:title=" ">
<path fill="none" stroke="#63b8ff" d="M765.75,-530.05C765.75,-521.9 765.75,-510.01 765.75,-499.73"/>
<polygon fill="#63b8ff" stroke="#63b8ff" points="769.25,-499.86 765.75,-489.86 762.25,-499.86 769.25,-499.86"/>
</a>
</g>
</g>
<!-- Node31 -->
<g id="Node000031" class="node">
<title>Node31</title>
<g id="a_Node000031"><a xlink:title=" ">
<polygon fill="#e0e0e0" stroke="#999999" points="929.75,-488.12 847.75,-488.12 847.75,-467.38 929.75,-467.38 929.75,-488.12"/>
<text xml:space="preserve" text-anchor="middle" x="888.75" y="-474.62" font-family="Helvetica,sans-Serif" font-size="10.00">mach/mach.h</text>
</a>
</g>
</g>
<!-- Node28&#45;&gt;Node31 -->
<g id="edge39_Node000028_Node000031" class="edge">
<title>Node28&#45;&gt;Node31</title>
<g id="a_edge39_Node000028_Node000031"><a xlink:title=" ">
<path fill="none" stroke="#63b8ff" d="M785.51,-530.05C805.33,-520.21 836.09,-504.92 858.88,-493.59"/>
<polygon fill="#63b8ff" stroke="#63b8ff" points="860.28,-496.8 867.68,-489.22 857.17,-490.54 860.28,-496.8"/>
</a>
</g>
</g>
</g>
</svg>
