<?xml version="1.0" encoding="UTF-8" standalone="no"?>
<!DOCTYPE svg PUBLIC "-//W3C//DTD SVG 1.1//EN"
 "http://www.w3.org/Graphics/SVG/1.1/DTD/svg11.dtd">
<!-- Generated by graphviz version 14.1.4 (0)
 -->
<!-- Title: /opt/unreal&#45;engine/Engine/Source/Runtime/Core/Public/Templates/IsTrivial.h Pages: 1 -->
<svg width="1551pt" height="402pt"
 viewBox="0.00 0.00 1551.00 402.00" xmlns="http://www.w3.org/2000/svg" xmlns:xlink="http://www.w3.org/1999/xlink">
<g id="graph0" class="graph" transform="scale(1 1) rotate(0) translate(4 397.75)">
<title>/opt/unreal&#45;engine/Engine/Source/Runtime/Core/Public/Templates/IsTrivial.h</title>
<!-- Node1 -->
<g id="Node000001" class="node">
<title>Node1</title>
<g id="a_Node000001"><a xlink:title=" ">
<polygon fill="#999999" stroke="#666666" points="1395.88,-393.75 1263.62,-393.75 1263.62,-334.75 1395.88,-334.75 1395.88,-393.75"/>
<text xml:space="preserve" text-anchor="start" x="1271.62" y="-380.25" font-family="Helvetica,sans-Serif" font-size="10.00">/opt/unreal&#45;engine</text>
<text xml:space="preserve" text-anchor="start" x="1271.62" y="-367.5" font-family="Helvetica,sans-Serif" font-size="10.00">/Engine/Source/Runtime</text>
<text xml:space="preserve" text-anchor="start" x="1271.62" y="-354.75" font-family="Helvetica,sans-Serif" font-size="10.00">/Core/Public/Templates</text>
<text xml:space="preserve" text-anchor="middle" x="1329.75" y="-342" font-family="Helvetica,sans-Serif" font-size="10.00">/IsTrivial.h</text>
</a>
</g>
</g>
<!-- Node2 -->
<g id="Node000002" class="node">
<title>Node2</title>
<g id="a_Node000002"><a xlink:href="$AndOrNot_8h.html" xlink:title=" ">
<polygon fill="white" stroke="#666666" points="1162.5,-292.38 1037,-292.38 1037,-271.62 1162.5,-271.62 1162.5,-292.38"/>
<text xml:space="preserve" text-anchor="middle" x="1099.75" y="-278.88" font-family="Helvetica,sans-Serif" font-size="10.00">Templates/AndOrNot.h</text>
</a>
</g>
</g>
<!-- Node1&#45;&gt;Node2 -->
<g id="edge1_Node000001_Node000002" class="edge">
<title>Node1&#45;&gt;Node2</title>
<g id="a_edge1_Node000001_Node000002"><a xlink:title=" ">
<path fill="none" stroke="#63b8ff" d="M1263.22,-340.04C1222.76,-325.92 1172.5,-308.38 1138.47,-296.51"/>
<polygon fill="#63b8ff" stroke="#63b8ff" points="1140.04,-293.35 1129.45,-293.36 1137.74,-299.96 1140.04,-293.35"/>
</a>
</g>
</g>
<!-- Node7 -->
<g id="Node000007" class="node">
<title>Node7</title>
<g id="a_Node000007"><a xlink:title=" ">
<polygon fill="#e0e0e0" stroke="#999999" points="1543,-33.5 1474.5,-33.5 1474.5,-12.75 1543,-12.75 1543,-33.5"/>
<text xml:space="preserve" text-anchor="middle" x="1508.75" y="-20" font-family="Helvetica,sans-Serif" font-size="10.00">type_traits</text>
</a>
</g>
</g>
<!-- Node1&#45;&gt;Node7 -->
<g id="edge24_Node000001_Node000007" class="edge">
<title>Node1&#45;&gt;Node7</title>
<g id="a_edge24_Node000001_Node000007"><a xlink:title=" ">
<path fill="none" stroke="#63b8ff" d="M1396.15,-351.36C1428.73,-342.23 1465.98,-326.3 1489.75,-298.75 1513.31,-271.45 1508.75,-255.93 1508.75,-219.88 1508.75,-219.88 1508.75,-219.88 1508.75,-154.75 1508.75,-116.14 1508.75,-71.12 1508.75,-45.28"/>
<polygon fill="#63b8ff" stroke="#63b8ff" points="1512.25,-45.47 1508.75,-35.47 1505.25,-45.47 1512.25,-45.47"/>
</a>
</g>
</g>
<!-- Node17 -->
<g id="Node000017" class="node">
<title>Node17</title>
<g id="a_Node000017"><a xlink:href="$IsTriviallyCopyConstructible_8h.html" xlink:title=" ">
<polygon fill="white" stroke="#666666" points="1321.38,-298.75 1180.12,-298.75 1180.12,-265.25 1321.38,-265.25 1321.38,-298.75"/>
<text xml:space="preserve" text-anchor="start" x="1188.12" y="-285.25" font-family="Helvetica,sans-Serif" font-size="10.00">Templates/IsTriviallyCopy</text>
<text xml:space="preserve" text-anchor="middle" x="1250.75" y="-272.5" font-family="Helvetica,sans-Serif" font-size="10.00">Constructible.h</text>
</a>
</g>
</g>
<!-- Node1&#45;&gt;Node17 -->
<g id="edge18_Node000001_Node000017" class="edge">
<title>Node1&#45;&gt;Node17</title>
<g id="a_edge18_Node000001_Node000017"><a xlink:title=" ">
<path fill="none" stroke="#63b8ff" d="M1301.23,-334.28C1292.48,-325.39 1282.95,-315.71 1274.55,-307.17"/>
<polygon fill="#63b8ff" stroke="#63b8ff" points="1277.17,-304.84 1267.66,-300.17 1272.18,-309.76 1277.17,-304.84"/>
</a>
</g>
</g>
<!-- Node18 -->
<g id="Node000018" class="node">
<title>Node18</title>
<g id="a_Node000018"><a xlink:href="$IsTriviallyCopyAssignable_8h.html" xlink:title=" ">
<polygon fill="white" stroke="#666666" points="1480.38,-298.75 1339.12,-298.75 1339.12,-265.25 1480.38,-265.25 1480.38,-298.75"/>
<text xml:space="preserve" text-anchor="start" x="1347.12" y="-285.25" font-family="Helvetica,sans-Serif" font-size="10.00">Templates/IsTriviallyCopy</text>
<text xml:space="preserve" text-anchor="middle" x="1409.75" y="-272.5" font-family="Helvetica,sans-Serif" font-size="10.00">Assignable.h</text>
</a>
</g>
</g>
<!-- Node1&#45;&gt;Node18 -->
<g id="edge21_Node000001_Node000018" class="edge">
<title>Node1&#45;&gt;Node18</title>
<g id="a_edge21_Node000001_Node000018"><a xlink:title=" ">
<path fill="none" stroke="#63b8ff" d="M1358.63,-334.28C1367.49,-325.39 1377.15,-315.71 1385.65,-307.17"/>
<polygon fill="#63b8ff" stroke="#63b8ff" points="1388.06,-309.72 1392.64,-300.17 1383.1,-304.78 1388.06,-309.72"/>
</a>
</g>
</g>
<!-- Node3 -->
<g id="Node000003" class="node">
<title>Node3</title>
<g id="a_Node000003"><a xlink:href="$CoreTypes_8h.html" xlink:title=" ">
<polygon fill="white" stroke="#666666" points="1137.38,-229.25 1062.12,-229.25 1062.12,-208.5 1137.38,-208.5 1137.38,-229.25"/>
<text xml:space="preserve" text-anchor="middle" x="1099.75" y="-215.75" font-family="Helvetica,sans-Serif" font-size="10.00">CoreTypes.h</text>
</a>
</g>
</g>
<!-- Node2&#45;&gt;Node3 -->
<g id="edge2_Node000002_Node000003" class="edge">
<title>Node2&#45;&gt;Node3</title>
<g id="a_edge2_Node000002_Node000003"><a xlink:title=" ">
<path fill="none" stroke="#63b8ff" d="M1099.75,-271.18C1099.75,-263.02 1099.75,-251.13 1099.75,-240.85"/>
<polygon fill="#63b8ff" stroke="#63b8ff" points="1103.25,-240.98 1099.75,-230.98 1096.25,-240.98 1103.25,-240.98"/>
</a>
</g>
</g>
<!-- Node4 -->
<g id="Node000004" class="node">
<title>Node4</title>
<g id="a_Node000004"><a xlink:href="$Platform_8h.html" xlink:title=" ">
<polygon fill="white" stroke="#666666" points="840.5,-103 751,-103 751,-82.25 840.5,-82.25 840.5,-103"/>
<text xml:space="preserve" text-anchor="middle" x="795.75" y="-89.5" font-family="Helvetica,sans-Serif" font-size="10.00">HAL/Platform.h</text>
</a>
</g>
</g>
<!-- Node3&#45;&gt;Node4 -->
<g id="edge3_Node000003_Node000004" class="edge">
<title>Node3&#45;&gt;Node4</title>
<g id="a_edge3_Node000003_Node000004"><a xlink:title=" ">
<path fill="none" stroke="#63b8ff" d="M1095.02,-208C1086.28,-190.92 1065.9,-156.07 1037.75,-139 980.83,-104.49 903.61,-95.18 851.85,-93.17"/>
<polygon fill="#63b8ff" stroke="#63b8ff" points="852.18,-89.68 842.08,-92.88 851.97,-96.68 852.18,-89.68"/>
</a>
</g>
</g>
<!-- Node14 -->
<g id="Node000014" class="node">
<title>Node14</title>
<g id="a_Node000014"><a xlink:href="$UMemoryDefines_8h.html" xlink:title=" ">
<polygon fill="white" stroke="#666666" points="1198.5,-172.5 1085,-172.5 1085,-139 1198.5,-139 1198.5,-172.5"/>
<text xml:space="preserve" text-anchor="start" x="1093" y="-159" font-family="Helvetica,sans-Serif" font-size="10.00">ProfilingDebugging</text>
<text xml:space="preserve" text-anchor="middle" x="1141.75" y="-146.25" font-family="Helvetica,sans-Serif" font-size="10.00">/UMemoryDefines.h</text>
</a>
</g>
</g>
<!-- Node3&#45;&gt;Node14 -->
<g id="edge13_Node000003_Node000014" class="edge">
<title>Node3&#45;&gt;Node14</title>
<g id="a_edge13_Node000003_Node000014"><a xlink:title=" ">
<path fill="none" stroke="#63b8ff" d="M1106.5,-208.05C1111.27,-201.11 1117.89,-191.47 1124.11,-182.42"/>
<polygon fill="#63b8ff" stroke="#63b8ff" points="1126.96,-184.46 1129.74,-174.23 1121.19,-180.49 1126.96,-184.46"/>
</a>
</g>
</g>
<!-- Node15 -->
<g id="Node000015" class="node">
<title>Node15</title>
<g id="a_Node000015"><a xlink:href="$CoreMiscDefines_8h.html" xlink:title=" ">
<polygon fill="white" stroke="#666666" points="862.25,-166.12 729.25,-166.12 729.25,-145.38 862.25,-145.38 862.25,-166.12"/>
<text xml:space="preserve" text-anchor="middle" x="795.75" y="-152.62" font-family="Helvetica,sans-Serif" font-size="10.00">Misc/CoreMiscDefines.h</text>
</a>
</g>
</g>
<!-- Node3&#45;&gt;Node15 -->
<g id="edge14_Node000003_Node000015" class="edge">
<title>Node3&#45;&gt;Node15</title>
<g id="a_edge14_Node000003_Node000015"><a xlink:title=" ">
<path fill="none" stroke="#63b8ff" d="M1061.86,-210.26C1010.17,-199.86 916.98,-181.12 855.74,-168.81"/>
<polygon fill="#63b8ff" stroke="#63b8ff" points="856.67,-165.43 846.17,-166.89 855.29,-172.29 856.67,-165.43"/>
</a>
</g>
</g>
<!-- Node16 -->
<g id="Node000016" class="node">
<title>Node16</title>
<g id="a_Node000016"><a xlink:href="$CoreDefines_8h.html" xlink:title=" ">
<polygon fill="white" stroke="#666666" points="1029,-166.12 918.5,-166.12 918.5,-145.38 1029,-145.38 1029,-166.12"/>
<text xml:space="preserve" text-anchor="middle" x="973.75" y="-152.62" font-family="Helvetica,sans-Serif" font-size="10.00">Misc/CoreDefines.h</text>
</a>
</g>
</g>
<!-- Node3&#45;&gt;Node16 -->
<g id="edge17_Node000003_Node000016" class="edge">
<title>Node3&#45;&gt;Node16</title>
<g id="a_edge17_Node000003_Node000016"><a xlink:title=" ">
<path fill="none" stroke="#63b8ff" d="M1079.51,-208.05C1059.12,-198.16 1027.41,-182.78 1004.03,-171.44"/>
<polygon fill="#63b8ff" stroke="#63b8ff" points="1005.83,-168.42 995.31,-167.21 1002.78,-174.72 1005.83,-168.42"/>
</a>
</g>
</g>
<!-- Node5 -->
<g id="Node000005" class="node">
<title>Node5</title>
<g id="a_Node000005"><a xlink:href="$Build_8h.html" xlink:title=" ">
<polygon fill="white" stroke="#666666" points="657.38,-33.5 582.12,-33.5 582.12,-12.75 657.38,-12.75 657.38,-33.5"/>
<text xml:space="preserve" text-anchor="middle" x="619.75" y="-20" font-family="Helvetica,sans-Serif" font-size="10.00">Misc/Build.h</text>
</a>
</g>
</g>
<!-- Node4&#45;&gt;Node5 -->
<g id="edge4_Node000004_Node000005" class="edge">
<title>Node4&#45;&gt;Node5</title>
<g id="a_edge4_Node000004_Node000005"><a xlink:title=" ">
<path fill="none" stroke="#63b8ff" d="M764.93,-81.76C738.58,-73.1 699.81,-59.8 666.75,-46.25 661.16,-43.96 655.27,-41.35 649.63,-38.74"/>
<polygon fill="#63b8ff" stroke="#63b8ff" points="651.12,-35.58 640.59,-34.48 648.14,-41.91 651.12,-35.58"/>
</a>
</g>
</g>
<!-- Node6 -->
<g id="Node000006" class="node">
<title>Node6</title>
<g id="a_Node000006"><a xlink:href="$LargeWorldCoordinates_8h.html" xlink:title=" ">
<polygon fill="white" stroke="#666666" points="840,-33.5 675.5,-33.5 675.5,-12.75 840,-12.75 840,-33.5"/>
<text xml:space="preserve" text-anchor="middle" x="757.75" y="-20" font-family="Helvetica,sans-Serif" font-size="10.00">Misc/LargeWorldCoordinates.h</text>
</a>
</g>
</g>
<!-- Node4&#45;&gt;Node6 -->
<g id="edge5_Node000004_Node000006" class="edge">
<title>Node4&#45;&gt;Node6</title>
<g id="a_edge5_Node000004_Node000006"><a xlink:title=" ">
<path fill="none" stroke="#63b8ff" d="M790.31,-81.95C784.72,-72.03 775.87,-56.31 768.8,-43.76"/>
<polygon fill="#63b8ff" stroke="#63b8ff" points="771.88,-42.09 763.93,-35.1 765.78,-45.53 771.88,-42.09"/>
</a>
</g>
</g>
<!-- Node4&#45;&gt;Node7 -->
<g id="edge6_Node000004_Node000007" class="edge">
<title>Node4&#45;&gt;Node7</title>
<g id="a_edge6_Node000004_Node000007"><a xlink:title=" ">
<path fill="none" stroke="#63b8ff" d="M840.98,-90.94C971.62,-88.6 1347.68,-79.11 1465.75,-46.25 1471.66,-44.6 1477.71,-42.09 1483.33,-39.35"/>
<polygon fill="#63b8ff" stroke="#63b8ff" points="1484.95,-42.45 1492.12,-34.65 1481.65,-36.27 1484.95,-42.45"/>
</a>
</g>
</g>
<!-- Node8 -->
<g id="Node000008" class="node">
<title>Node8</title>
<g id="a_Node000008"><a xlink:href="$PreprocessorHelpers_8h.html" xlink:title=" ">
<polygon fill="white" stroke="#666666" points="125.5,-33.5 0,-33.5 0,-12.75 125.5,-12.75 125.5,-33.5"/>
<text xml:space="preserve" text-anchor="middle" x="62.75" y="-20" font-family="Helvetica,sans-Serif" font-size="10.00">PreprocessorHelpers.h</text>
</a>
</g>
</g>
<!-- Node4&#45;&gt;Node8 -->
<g id="edge7_Node000004_Node000008" class="edge">
<title>Node4&#45;&gt;Node8</title>
<g id="a_edge7_Node000004_Node000008"><a xlink:title=" ">
<path fill="none" stroke="#63b8ff" d="M750.82,-92.07C643.38,-92.38 363.49,-88.66 134.75,-46.25 123.39,-44.14 111.3,-40.86 100.34,-37.46"/>
<polygon fill="#63b8ff" stroke="#63b8ff" points="101.43,-34.13 90.83,-34.38 99.27,-40.79 101.43,-34.13"/>
</a>
</g>
</g>
<!-- Node9 -->
<g id="Node000009" class="node">
<title>Node9</title>
<g id="a_Node000009"><a xlink:title=" ">
<polygon fill="#e0e0e0" stroke="#999999" points="1055.12,-46.25 858.38,-46.25 858.38,0 1055.12,0 1055.12,-46.25"/>
<text xml:space="preserve" text-anchor="start" x="866.38" y="-32.75" font-family="Helvetica,sans-Serif" font-size="10.00">UBT_COMPILED_PLATFORM</text>
<text xml:space="preserve" text-anchor="start" x="866.38" y="-20" font-family="Helvetica,sans-Serif" font-size="10.00">/UBT_COMPILED_PLATFORMPlatform</text>
<text xml:space="preserve" text-anchor="middle" x="956.75" y="-7.25" font-family="Helvetica,sans-Serif" font-size="10.00">CompilerPreSetup.h</text>
</a>
</g>
</g>
<!-- Node4&#45;&gt;Node9 -->
<g id="edge8_Node000004_Node000009" class="edge">
<title>Node4&#45;&gt;Node9</title>
<g id="a_edge8_Node000004_Node000009"><a xlink:title=" ">
<path fill="none" stroke="#63b8ff" d="M819.16,-81.81C838.4,-73.74 866.6,-61.92 892.47,-51.07"/>
<polygon fill="#63b8ff" stroke="#63b8ff" points="893.74,-54.34 901.61,-47.24 891.03,-47.88 893.74,-54.34"/>
</a>
</g>
</g>
<!-- Node10 -->
<g id="Node000010" class="node">
<title>Node10</title>
<g id="a_Node000010"><a xlink:href="$GenericPlatformCompilerPreSetup_8h.html" xlink:title=" ">
<polygon fill="white" stroke="#666666" points="1250.75,-39.88 1072.75,-39.88 1072.75,-6.38 1250.75,-6.38 1250.75,-39.88"/>
<text xml:space="preserve" text-anchor="start" x="1080.75" y="-26.38" font-family="Helvetica,sans-Serif" font-size="10.00">GenericPlatform/GenericPlatform</text>
<text xml:space="preserve" text-anchor="middle" x="1161.75" y="-13.62" font-family="Helvetica,sans-Serif" font-size="10.00">CompilerPreSetup.h</text>
</a>
</g>
</g>
<!-- Node4&#45;&gt;Node10 -->
<g id="edge9_Node000004_Node000010" class="edge">
<title>Node4&#45;&gt;Node10</title>
<g id="a_edge9_Node000004_Node000010"><a xlink:title=" ">
<path fill="none" stroke="#63b8ff" d="M840.93,-84.74C894.32,-76.43 985.74,-61.65 1063.75,-46.25 1069.33,-45.15 1075.08,-43.97 1080.86,-42.75"/>
<polygon fill="#63b8ff" stroke="#63b8ff" points="1081.46,-46.2 1090.51,-40.68 1079.99,-39.35 1081.46,-46.2"/>
</a>
</g>
</g>
<!-- Node11 -->
<g id="Node000011" class="node">
<title>Node11</title>
<g id="a_Node000011"><a xlink:href="$GenericPlatform_8h.html" xlink:title=" ">
<polygon fill="white" stroke="#666666" points="1456.25,-33.5 1269.25,-33.5 1269.25,-12.75 1456.25,-12.75 1456.25,-33.5"/>
<text xml:space="preserve" text-anchor="middle" x="1362.75" y="-20" font-family="Helvetica,sans-Serif" font-size="10.00">GenericPlatform/GenericPlatform.h</text>
</a>
</g>
</g>
<!-- Node4&#45;&gt;Node11 -->
<g id="edge10_Node000004_Node000011" class="edge">
<title>Node4&#45;&gt;Node11</title>
<g id="a_edge10_Node000004_Node000011"><a xlink:title=" ">
<path fill="none" stroke="#63b8ff" d="M840.76,-88.94C923.89,-83.59 1107,-70.05 1259.75,-46.25 1276.64,-43.62 1294.92,-39.96 1311.33,-36.38"/>
<polygon fill="#63b8ff" stroke="#63b8ff" points="1311.87,-39.84 1320.87,-34.25 1310.35,-33.01 1311.87,-39.84"/>
</a>
</g>
</g>
<!-- Node12 -->
<g id="Node000012" class="node">
<title>Node12</title>
<g id="a_Node000012"><a xlink:title=" ">
<polygon fill="#e0e0e0" stroke="#999999" points="349.62,-39.88 143.88,-39.88 143.88,-6.38 349.62,-6.38 349.62,-39.88"/>
<text xml:space="preserve" text-anchor="start" x="151.88" y="-26.38" font-family="Helvetica,sans-Serif" font-size="10.00">UBT_COMPILED_PLATFORM</text>
<text xml:space="preserve" text-anchor="middle" x="246.75" y="-13.62" font-family="Helvetica,sans-Serif" font-size="10.00">/UBT_COMPILED_PLATFORMPlatform.h</text>
</a>
</g>
</g>
<!-- Node4&#45;&gt;Node12 -->
<g id="edge11_Node000004_Node000012" class="edge">
<title>Node4&#45;&gt;Node12</title>
<g id="a_edge11_Node000004_Node000012"><a xlink:title=" ">
<path fill="none" stroke="#63b8ff" d="M750.6,-88.31C671.11,-82.16 501.12,-67.66 358.75,-46.25 351.09,-45.1 343.16,-43.78 335.22,-42.38"/>
<polygon fill="#63b8ff" stroke="#63b8ff" points="335.96,-38.96 325.5,-40.62 334.71,-45.85 335.96,-38.96"/>
</a>
</g>
</g>
<!-- Node13 -->
<g id="Node000013" class="node">
<title>Node13</title>
<g id="a_Node000013"><a xlink:title=" ">
<polygon fill="#e0e0e0" stroke="#999999" points="564.12,-46.25 367.38,-46.25 367.38,0 564.12,0 564.12,-46.25"/>
<text xml:space="preserve" text-anchor="start" x="375.38" y="-32.75" font-family="Helvetica,sans-Serif" font-size="10.00">UBT_COMPILED_PLATFORM</text>
<text xml:space="preserve" text-anchor="start" x="375.38" y="-20" font-family="Helvetica,sans-Serif" font-size="10.00">/UBT_COMPILED_PLATFORMPlatform</text>
<text xml:space="preserve" text-anchor="middle" x="465.75" y="-7.25" font-family="Helvetica,sans-Serif" font-size="10.00">CompilerSetup.h</text>
</a>
</g>
</g>
<!-- Node4&#45;&gt;Node13 -->
<g id="edge12_Node000004_Node000013" class="edge">
<title>Node4&#45;&gt;Node13</title>
<g id="a_edge12_Node000004_Node000013"><a xlink:title=" ">
<path fill="none" stroke="#63b8ff" d="M750.89,-82.54C708.23,-73.89 641.94,-60.43 575.63,-46.84"/>
<polygon fill="#63b8ff" stroke="#63b8ff" points="576.55,-43.45 566.05,-44.87 575.14,-50.31 576.55,-43.45"/>
</a>
</g>
</g>
<!-- Node15&#45;&gt;Node4 -->
<g id="edge15_Node000015_Node000004" class="edge">
<title>Node15&#45;&gt;Node4</title>
<g id="a_edge15_Node000015_Node000004"><a xlink:title=" ">
<path fill="none" stroke="#63b8ff" d="M795.75,-144.93C795.75,-136.77 795.75,-124.88 795.75,-114.6"/>
<polygon fill="#63b8ff" stroke="#63b8ff" points="799.25,-114.73 795.75,-104.73 792.25,-114.73 799.25,-114.73"/>
</a>
</g>
</g>
<!-- Node15&#45;&gt;Node8 -->
<g id="edge16_Node000015_Node000008" class="edge">
<title>Node15&#45;&gt;Node8</title>
<g id="a_edge16_Node000015_Node000008"><a xlink:title=" ">
<path fill="none" stroke="#63b8ff" d="M729.02,-146.84C609.09,-131.94 349.58,-96.65 134.75,-46.25 124.19,-43.77 112.9,-40.58 102.48,-37.39"/>
<polygon fill="#63b8ff" stroke="#63b8ff" points="103.62,-34.07 93.03,-34.42 101.52,-40.75 103.62,-34.07"/>
</a>
</g>
</g>
<!-- Node17&#45;&gt;Node3 -->
<g id="edge19_Node000017_Node000003" class="edge">
<title>Node17&#45;&gt;Node3</title>
<g id="a_edge19_Node000017_Node000003"><a xlink:title=" ">
<path fill="none" stroke="#63b8ff" d="M1210.68,-264.78C1186.95,-255.18 1157.19,-243.13 1134.47,-233.93"/>
<polygon fill="#63b8ff" stroke="#63b8ff" points="1135.92,-230.74 1125.34,-230.23 1133.29,-237.23 1135.92,-230.74"/>
</a>
</g>
</g>
<!-- Node17&#45;&gt;Node7 -->
<g id="edge20_Node000017_Node000007" class="edge">
<title>Node17&#45;&gt;Node7</title>
<g id="a_edge20_Node000017_Node000007"><a xlink:title=" ">
<path fill="none" stroke="#63b8ff" d="M1266.89,-264.93C1312.69,-219.33 1443.24,-89.35 1490.98,-41.82"/>
<polygon fill="#63b8ff" stroke="#63b8ff" points="1493.2,-44.54 1497.82,-35.01 1488.27,-39.58 1493.2,-44.54"/>
</a>
</g>
</g>
<!-- Node18&#45;&gt;Node3 -->
<g id="edge22_Node000018_Node000003" class="edge">
<title>Node18&#45;&gt;Node3</title>
<g id="a_edge22_Node000018_Node000003"><a xlink:title=" ">
<path fill="none" stroke="#63b8ff" d="M1338.69,-266.82C1336.01,-266.29 1333.36,-265.77 1330.75,-265.25 1267.97,-252.83 1195.56,-238.62 1148.8,-229.47"/>
<polygon fill="#63b8ff" stroke="#63b8ff" points="1149.74,-226.09 1139.26,-227.6 1148.4,-232.96 1149.74,-226.09"/>
</a>
</g>
</g>
<!-- Node18&#45;&gt;Node7 -->
<g id="edge23_Node000018_Node000007" class="edge">
<title>Node18&#45;&gt;Node7</title>
<g id="a_edge23_Node000018_Node000007"><a xlink:title=" ">
<path fill="none" stroke="#63b8ff" d="M1415.94,-264.93C1433.19,-220.18 1481.75,-94.18 1500.87,-44.56"/>
<polygon fill="#63b8ff" stroke="#63b8ff" points="1504.09,-45.94 1504.42,-35.35 1497.56,-43.42 1504.09,-45.94"/>
</a>
</g>
</g>
</g>
</svg>
