<?xml version="1.0" encoding="UTF-8" standalone="no"?>
<!DOCTYPE svg PUBLIC "-//W3C//DTD SVG 1.1//EN"
 "http://www.w3.org/Graphics/SVG/1.1/DTD/svg11.dtd">
<!-- Generated by graphviz version 14.1.4 (0)
 -->
<!-- Title: /opt/unreal&#45;engine/Engine/Source/Runtime/Engine/Classes/Kismet/KismetInputLibrary.h Pages: 1 -->
<!--zoomable 193 -->

<svg id="main" version="1.1" xmlns="http://www.w3.org/2000/svg" xmlns:xlink="http://www.w3.org/1999/xlink" xml:space="preserve" onload="init(evt)">

<style type="text/css"><![CDATA[
.node, .edge {opacity: 0.7;}
.node.selected, .edge.selected {opacity: 1;}
.edge:hover path { stroke: red; }
.edge:hover polygon { stroke: red; fill: red; }
]]></style>

<defs>
  <circle id="rim" cx="0" cy="0" r="7"/>
  <circle id="rim2" cx="0" cy="0" r="3.5"/>
  <g id="zoomPlus">
    <use xlink:href="#rim" fill="#404040"><set attributeName="fill" to="#808080" begin="zoomplus.mouseover" end="zoomplus.mouseout"/></use>
    <path d="M-4,0h8M0,-4v8" fill="none" stroke="white" stroke-width="1.5" pointer-events="none"/>
  </g>
  <g id="zoomMin">
    <use xlink:href="#rim" fill="#404040"><set attributeName="fill" to="#808080" begin="zoomminus.mouseover" end="zoomminus.mouseout"/></use>
    <path d="M-4,0h8" fill="none" stroke="white" stroke-width="1.5" pointer-events="none"/>
  </g>
  <g id="arrowUp" transform="translate(30 24)">
    <use xlink:href="#rim"/>
    <path pointer-events="none" fill="none" stroke="white" stroke-width="1.5" d="M0,-3.0v7 M-2.5,-0.5L0,-3.0L2.5,-0.5"/>
  </g>
  <g id="arrowRight" transform="rotate(90) translate(36 -43)">
    <use xlink:href="#rim"/>
    <path pointer-events="none" fill="none" stroke="white" stroke-width="1.5" d="M0,-3.0v7 M-2.5,-0.5L0,-3.0L2.5,-0.5"/>
  </g>
  <g id="arrowDown" transform="rotate(180) translate(-30 -48)">
    <use xlink:href="#rim"/>
    <path pointer-events="none" fill="none" stroke="white" stroke-width="1.5" d="M0,-3.0v7 M-2.5,-0.5L0,-3.0L2.5,-0.5"/>
  </g>
  <g id="arrowLeft" transform="rotate(270) translate(-36 17)">
    <use xlink:href="#rim"/>
    <path pointer-events="none" fill="none" stroke="white" stroke-width="1.5" d="M0,-3.0v7 M-2.5,-0.5L0,-3.0L2.5,-0.5"/>
  </g>
  <g id="resetDef">
    <use xlink:href="#rim2" fill="#404040"><set attributeName="fill" to="#808080" begin="reset.mouseover" end="reset.mouseout"/></use>
  </g>
</defs>
<script type="application/ecmascript">
var viewWidth = 944;
var viewHeight = 193;
var sectionId = 'dynsection-0';
</script>
<script type="application/ecmascript" xlink:href="svg.min.js"/>
<svg id="graph" class="graph">
<g id="viewport">
<title>/opt/unreal&#45;engine/Engine/Source/Runtime/Engine/Classes/Kismet/KismetInputLibrary.h</title>
<!-- Node1 -->
<g id="Node000001" class="node">
<title>Node1</title>
<g id="a_Node000001"><a xlink:title=" ">
<polygon fill="#999999" stroke="#666666" points="513.75,-185.25 381.5,-185.25 381.5,-126.25 513.75,-126.25 513.75,-185.25"/>
<text xml:space="preserve" text-anchor="start" x="389.5" y="-171.75" font-family="Helvetica,sans-Serif" font-size="10.00">/opt/unreal&#45;engine</text>
<text xml:space="preserve" text-anchor="start" x="389.5" y="-159" font-family="Helvetica,sans-Serif" font-size="10.00">/Engine/Source/Runtime</text>
<text xml:space="preserve" text-anchor="start" x="389.5" y="-146.25" font-family="Helvetica,sans-Serif" font-size="10.00">/Engine/Classes/Kismet</text>
<text xml:space="preserve" text-anchor="middle" x="447.62" y="-133.5" font-family="Helvetica,sans-Serif" font-size="10.00">/KismetInputLibrary.h</text>
</a>
</g>
</g>
<!-- Node2 -->
<g id="Node000002" class="node">
<title>Node2</title>
<g id="a_Node000002"><a xlink:title=" ">
<polygon fill="#e0e0e0" stroke="#999999" points="87.25,-20.75 0,-20.75 0,0 87.25,0 87.25,-20.75"/>
<text xml:space="preserve" text-anchor="middle" x="43.62" y="-7.25" font-family="Helvetica,sans-Serif" font-size="10.00">CoreMinimal.h</text>
</a>
</g>
</g>
<!-- Node1&#45;&gt;Node2 -->
<g id="edge1_Node000001_Node000002" class="edge">
<title>Node1&#45;&gt;Node2</title>
<g id="a_edge1_Node000001_Node000002"><a xlink:title=" ">
<path fill="none" stroke="#63b8ff" d="M381.08,-142.06C329.52,-131.19 256.8,-113.6 195.62,-90.25 149.16,-72.52 98.52,-44.28 69,-26.84"/>
<polygon fill="#63b8ff" stroke="#63b8ff" points="71.16,-24.05 60.78,-21.93 67.57,-30.06 71.16,-24.05"/>
</a>
</g>
</g>
<!-- Node3 -->
<g id="Node000003" class="node">
<title>Node3</title>
<g id="a_Node000003"><a xlink:title=" ">
<polygon fill="#e0e0e0" stroke="#999999" points="239.5,-20.75 105.75,-20.75 105.75,0 239.5,0 239.5,-20.75"/>
<text xml:space="preserve" text-anchor="middle" x="172.62" y="-7.25" font-family="Helvetica,sans-Serif" font-size="10.00">UObject/ObjectMacros.h</text>
</a>
</g>
</g>
<!-- Node1&#45;&gt;Node3 -->
<g id="edge2_Node000001_Node000003" class="edge">
<title>Node1&#45;&gt;Node3</title>
<g id="a_edge2_Node000001_Node000003"><a xlink:title=" ">
<path fill="none" stroke="#63b8ff" d="M381.47,-146.16C336.08,-137.73 276.23,-121.39 231.62,-90.25 209.79,-75.01 192.69,-49.14 182.65,-31.2"/>
<polygon fill="#63b8ff" stroke="#63b8ff" points="185.83,-29.73 178.03,-22.55 179.65,-33.02 185.83,-29.73"/>
</a>
</g>
</g>
<!-- Node4 -->
<g id="Node000004" class="node">
<title>Node4</title>
<g id="a_Node000004"><a xlink:title=" ">
<polygon fill="#e0e0e0" stroke="#999999" points="497.62,-83.88 397.62,-83.88 397.62,-63.12 497.62,-63.12 497.62,-83.88"/>
<text xml:space="preserve" text-anchor="middle" x="447.62" y="-70.38" font-family="Helvetica,sans-Serif" font-size="10.00">InputCoreTypes.h</text>
</a>
</g>
</g>
<!-- Node1&#45;&gt;Node4 -->
<g id="edge3_Node000001_Node000004" class="edge">
<title>Node1&#45;&gt;Node4</title>
<g id="a_edge3_Node000001_Node000004"><a xlink:title=" ">
<path fill="none" stroke="#63b8ff" d="M447.62,-125.78C447.62,-115.78 447.62,-104.77 447.62,-95.53"/>
<polygon fill="#63b8ff" stroke="#63b8ff" points="451.13,-95.79 447.63,-85.79 444.13,-95.79 451.13,-95.79"/>
</a>
</g>
</g>
<!-- Node5 -->
<g id="Node000005" class="node">
<title>Node5</title>
<g id="a_Node000005"><a xlink:title=" ">
<polygon fill="#e0e0e0" stroke="#999999" points="645.25,-90.25 516,-90.25 516,-56.75 645.25,-56.75 645.25,-90.25"/>
<text xml:space="preserve" text-anchor="start" x="524" y="-76.75" font-family="Helvetica,sans-Serif" font-size="10.00">Framework/Commands</text>
<text xml:space="preserve" text-anchor="middle" x="580.62" y="-64" font-family="Helvetica,sans-Serif" font-size="10.00">/InputChord.h</text>
</a>
</g>
</g>
<!-- Node1&#45;&gt;Node5 -->
<g id="edge4_Node000001_Node000005" class="edge">
<title>Node1&#45;&gt;Node5</title>
<g id="a_edge4_Node000001_Node000005"><a xlink:title=" ">
<path fill="none" stroke="#63b8ff" d="M495.64,-125.78C511.75,-116.06 529.44,-105.38 544.49,-96.3"/>
<polygon fill="#63b8ff" stroke="#63b8ff" points="545.9,-99.54 552.65,-91.38 542.28,-93.55 545.9,-99.54"/>
</a>
</g>
</g>
<!-- Node6 -->
<g id="Node000006" class="node">
<title>Node6</title>
<g id="a_Node000006"><a xlink:title=" ">
<polygon fill="#e0e0e0" stroke="#999999" points="749.5,-83.88 663.75,-83.88 663.75,-63.12 749.5,-63.12 749.5,-83.88"/>
<text xml:space="preserve" text-anchor="middle" x="706.62" y="-70.38" font-family="Helvetica,sans-Serif" font-size="10.00">Input/Events.h</text>
</a>
</g>
</g>
<!-- Node1&#45;&gt;Node6 -->
<g id="edge5_Node000001_Node000006" class="edge">
<title>Node1&#45;&gt;Node6</title>
<g id="a_edge5_Node000001_Node000006"><a xlink:title=" ">
<path fill="none" stroke="#63b8ff" d="M513.99,-134.19C561.25,-119.54 623.37,-100.3 664.12,-87.67"/>
<polygon fill="#63b8ff" stroke="#63b8ff" points="665.05,-91.05 673.57,-84.74 662.98,-84.36 665.05,-91.05"/>
</a>
</g>
</g>
<!-- Node7 -->
<g id="Node000007" class="node">
<title>Node7</title>
<g id="a_Node000007"><a xlink:href="BlueprintFunctionLibrary_8h.html" target="_top" xlink:title=" ">
<polygon fill="white" stroke="#666666" points="379.12,-90.25 240.12,-90.25 240.12,-56.75 379.12,-56.75 379.12,-90.25"/>
<text xml:space="preserve" text-anchor="start" x="248.12" y="-76.75" font-family="Helvetica,sans-Serif" font-size="10.00">Kismet/BlueprintFunction</text>
<text xml:space="preserve" text-anchor="middle" x="309.62" y="-64" font-family="Helvetica,sans-Serif" font-size="10.00">Library.h</text>
</a>
</g>
</g>
<!-- Node1&#45;&gt;Node7 -->
<g id="edge6_Node000001_Node000007" class="edge">
<title>Node1&#45;&gt;Node7</title>
<g id="a_edge6_Node000001_Node000007"><a xlink:title=" ">
<path fill="none" stroke="#63b8ff" d="M397.8,-125.78C381.08,-116.06 362.73,-105.38 347.12,-96.3"/>
<polygon fill="#63b8ff" stroke="#63b8ff" points="349.01,-93.36 338.61,-91.36 345.5,-99.41 349.01,-93.36"/>
</a>
</g>
</g>
<!-- Node12 -->
<g id="Node000012" class="node">
<title>Node12</title>
<g id="a_Node000012"><a xlink:title=" ">
<polygon fill="#e0e0e0" stroke="#999999" points="936.12,-83.88 767.12,-83.88 767.12,-63.12 936.12,-63.12 936.12,-83.88"/>
<text xml:space="preserve" text-anchor="middle" x="851.62" y="-70.38" font-family="Helvetica,sans-Serif" font-size="10.00">KismetInputLibrary.generated.h</text>
</a>
</g>
</g>
<!-- Node1&#45;&gt;Node12 -->
<g id="edge13_Node000001_Node000012" class="edge">
<title>Node1&#45;&gt;Node12</title>
<g id="a_edge13_Node000001_Node000012"><a xlink:title=" ">
<path fill="none" stroke="#63b8ff" d="M513.88,-141.59C590.86,-126.3 716.77,-101.29 791.17,-86.51"/>
<polygon fill="#63b8ff" stroke="#63b8ff" points="791.6,-89.99 800.73,-84.61 790.24,-83.13 791.6,-89.99"/>
</a>
</g>
</g>
<!-- Node7&#45;&gt;Node2 -->
<g id="edge7_Node000007_Node000002" class="edge">
<title>Node7&#45;&gt;Node2</title>
<g id="a_edge7_Node000007_Node000002"><a xlink:title=" ">
<path fill="none" stroke="#63b8ff" d="M239.74,-56.44C195.28,-46.22 138.56,-33.19 97.58,-23.77"/>
<polygon fill="#63b8ff" stroke="#63b8ff" points="98.46,-20.38 87.93,-21.56 96.89,-27.21 98.46,-20.38"/>
</a>
</g>
</g>
<!-- Node7&#45;&gt;Node3 -->
<g id="edge8_Node000007_Node000003" class="edge">
<title>Node7&#45;&gt;Node3</title>
<g id="a_edge8_Node000007_Node000003"><a xlink:title=" ">
<path fill="none" stroke="#63b8ff" d="M273.27,-56.28C252.04,-46.81 225.47,-34.95 204.97,-25.81"/>
<polygon fill="#63b8ff" stroke="#63b8ff" points="206.51,-22.66 195.95,-21.78 203.66,-29.05 206.51,-22.66"/>
</a>
</g>
</g>
<!-- Node8 -->
<g id="Node000008" class="node">
<title>Node8</title>
<g id="a_Node000008"><a xlink:title=" ">
<polygon fill="#e0e0e0" stroke="#999999" points="717.88,-20.75 619.38,-20.75 619.38,0 717.88,0 717.88,-20.75"/>
<text xml:space="preserve" text-anchor="middle" x="668.62" y="-7.25" font-family="Helvetica,sans-Serif" font-size="10.00">UObject/Object.h</text>
</a>
</g>
</g>
<!-- Node7&#45;&gt;Node8 -->
<g id="edge9_Node000007_Node000008" class="edge">
<title>Node7&#45;&gt;Node8</title>
<g id="a_edge9_Node000007_Node000008"><a xlink:title=" ">
<path fill="none" stroke="#63b8ff" d="M379.39,-58.45C382.51,-57.87 385.6,-57.3 388.62,-56.75 394.02,-55.78 527.46,-34.19 608.15,-21.15"/>
<polygon fill="#63b8ff" stroke="#63b8ff" points="608.36,-24.66 617.67,-19.61 607.24,-17.75 608.36,-24.66"/>
</a>
</g>
</g>
<!-- Node9 -->
<g id="Node000009" class="node">
<title>Node9</title>
<g id="a_Node000009"><a xlink:title=" ">
<polygon fill="#e0e0e0" stroke="#999999" points="857.5,-20.75 735.75,-20.75 735.75,0 857.5,0 857.5,-20.75"/>
<text xml:space="preserve" text-anchor="middle" x="796.62" y="-7.25" font-family="Helvetica,sans-Serif" font-size="10.00">UObject/UnrealType.h</text>
</a>
</g>
</g>
<!-- Node7&#45;&gt;Node9 -->
<g id="edge10_Node000007_Node000009" class="edge">
<title>Node7&#45;&gt;Node9</title>
<g id="a_edge10_Node000007_Node000009"><a xlink:title=" ">
<path fill="none" stroke="#63b8ff" d="M379.35,-58.24C382.48,-57.71 385.58,-57.21 388.62,-56.75 534.32,-34.51 574.68,-38.56 724.13,-21.01"/>
<polygon fill="#63b8ff" stroke="#63b8ff" points="724.53,-24.49 734.05,-19.83 723.71,-17.54 724.53,-24.49"/>
</a>
</g>
</g>
<!-- Node10 -->
<g id="Node000010" class="node">
<title>Node10</title>
<g id="a_Node000010"><a xlink:title=" ">
<polygon fill="#e0e0e0" stroke="#999999" points="387.62,-20.75 257.62,-20.75 257.62,0 387.62,0 387.62,-20.75"/>
<text xml:space="preserve" text-anchor="middle" x="322.62" y="-7.25" font-family="Helvetica,sans-Serif" font-size="10.00">UObject/ScriptMacros.h</text>
</a>
</g>
</g>
<!-- Node7&#45;&gt;Node10 -->
<g id="edge11_Node000007_Node000010" class="edge">
<title>Node7&#45;&gt;Node10</title>
<g id="a_edge11_Node000007_Node000010"><a xlink:title=" ">
<path fill="none" stroke="#63b8ff" d="M313.04,-56.44C314.6,-49.1 316.47,-40.32 318.14,-32.46"/>
<polygon fill="#63b8ff" stroke="#63b8ff" points="321.56,-33.21 320.22,-22.7 314.71,-31.75 321.56,-33.21"/>
</a>
</g>
</g>
<!-- Node11 -->
<g id="Node000011" class="node">
<title>Node11</title>
<g id="a_Node000011"><a xlink:title=" ">
<polygon fill="#e0e0e0" stroke="#999999" points="601.25,-20.75 406,-20.75 406,0 601.25,0 601.25,-20.75"/>
<text xml:space="preserve" text-anchor="middle" x="503.62" y="-7.25" font-family="Helvetica,sans-Serif" font-size="10.00">BlueprintFunctionLibrary.generated.h</text>
</a>
</g>
</g>
<!-- Node7&#45;&gt;Node11 -->
<g id="edge12_Node000007_Node000011" class="edge">
<title>Node7&#45;&gt;Node11</title>
<g id="a_edge12_Node000007_Node000011"><a xlink:title=" ">
<path fill="none" stroke="#63b8ff" d="M361.1,-56.28C392.56,-46.37 432.27,-33.86 461.78,-24.56"/>
<polygon fill="#63b8ff" stroke="#63b8ff" points="462.62,-27.96 471.11,-21.62 460.52,-21.29 462.62,-27.96"/>
</a>
</g>
</g>
</g>
</svg>

<g id="navigator" transform="translate(0 0)" fill="#404254">
  <rect fill="#f2f5e9" fill-opacity="0.5" stroke="#606060" stroke-width=".5" x="0" y="0" width="60" height="60"/>
  <use id="zoomplus" xlink:href="#zoomPlus" x="17" y="9" onmousedown="handleZoom(evt,'in')"/>
  <use id="zoomminus" xlink:href="#zoomMin" x="42" y="9" onmousedown="handleZoom(evt,'out')"/>
  <use id="reset" xlink:href="#resetDef" x="30" y="36" onmousedown="handleReset()"/>
   <use id="arrowup" xlink:href="#arrowUp" x="0" y="0" onmousedown="handlePan(0,-1)"/>
  <use id="arrowright" xlink:href="#arrowRight" x="0" y="0" onmousedown="handlePan(1,0)"/>
  <use id="arrowdown" xlink:href="#arrowDown" x="0" y="0" onmousedown="handlePan(0,1)"/>
  <use id="arrowleft" xlink:href="#arrowLeft" x="0" y="0" onmousedown="handlePan(-1,0)"/>
</g>
<svg viewBox="0 0 15 15" width="100%" height="30px" preserveAspectRatio="xMaxYMin meet">
 <g id="arrow_out" transform="scale(0.3 0.3)">
  <a xlink:href="KismetInputLibrary_8h__incl_org.svg" target="_base">
   <rect id="button" ry="5" rx="5" y="6" x="6" height="38" width="38"
        fill="#f2f5e9" fill-opacity="0.5" stroke="#606060" stroke-width="1.0"/>
   <path id="arrow"
     d="M 11.500037,31.436501 C 11.940474,20.09759 22.043105,11.32322 32.158766,21.979434 L 37.068811,17.246167 C 37.068811,17.246167 37.088388,32 37.088388,32 L 22.160133,31.978069 C 22.160133,31.978069 26.997745,27.140456 26.997745,27.140456 C 18.528582,18.264221 13.291696,25.230495 11.500037,31.436501 z"
     style="fill:#404040;"/>
  </a>
 </g>
</svg>

<style type='text/css'>
<![CDATA[
[data-mouse-over-selected='false'] { opacity: 0.7; }
[data-mouse-over-selected='true']  { opacity: 1.0; }
]]>
</style>
<script type="application/ecmascript"><![CDATA[
document.addEventListener('DOMContentLoaded', (event) => {
  highlightEdges();
  highlightAdjacentNodes();
});
]]></script>
</svg>
