<?xml version="1.0" encoding="UTF-8" standalone="no"?>
<!DOCTYPE svg PUBLIC "-//W3C//DTD SVG 1.1//EN"
 "http://www.w3.org/Graphics/SVG/1.1/DTD/svg11.dtd">
<!-- Generated by graphviz version 14.1.4 (0)
 -->
<!-- Title: /opt/unreal&#45;engine/Engine/Source/Runtime/Engine/Classes/Engine/MemberReference.h Pages: 1 -->
<!--zoomable 307 -->

<svg id="main" version="1.1" xmlns="http://www.w3.org/2000/svg" xmlns:xlink="http://www.w3.org/1999/xlink" xml:space="preserve" onload="init(evt)">

<style type="text/css"><![CDATA[
.node, .edge {opacity: 0.7;}
.node.selected, .edge.selected {opacity: 1;}
.edge:hover path { stroke: red; }
.edge:hover polygon { stroke: red; fill: red; }
]]></style>

<defs>
  <circle id="rim" cx="0" cy="0" r="7"/>
  <circle id="rim2" cx="0" cy="0" r="3.5"/>
  <g id="zoomPlus">
    <use xlink:href="#rim" fill="#404040"><set attributeName="fill" to="#808080" begin="zoomplus.mouseover" end="zoomplus.mouseout"/></use>
    <path d="M-4,0h8M0,-4v8" fill="none" stroke="white" stroke-width="1.5" pointer-events="none"/>
  </g>
  <g id="zoomMin">
    <use xlink:href="#rim" fill="#404040"><set attributeName="fill" to="#808080" begin="zoomminus.mouseover" end="zoomminus.mouseout"/></use>
    <path d="M-4,0h8" fill="none" stroke="white" stroke-width="1.5" pointer-events="none"/>
  </g>
  <g id="arrowUp" transform="translate(30 24)">
    <use xlink:href="#rim"/>
    <path pointer-events="none" fill="none" stroke="white" stroke-width="1.5" d="M0,-3.0v7 M-2.5,-0.5L0,-3.0L2.5,-0.5"/>
  </g>
  <g id="arrowRight" transform="rotate(90) translate(36 -43)">
    <use xlink:href="#rim"/>
    <path pointer-events="none" fill="none" stroke="white" stroke-width="1.5" d="M0,-3.0v7 M-2.5,-0.5L0,-3.0L2.5,-0.5"/>
  </g>
  <g id="arrowDown" transform="rotate(180) translate(-30 -48)">
    <use xlink:href="#rim"/>
    <path pointer-events="none" fill="none" stroke="white" stroke-width="1.5" d="M0,-3.0v7 M-2.5,-0.5L0,-3.0L2.5,-0.5"/>
  </g>
  <g id="arrowLeft" transform="rotate(270) translate(-36 17)">
    <use xlink:href="#rim"/>
    <path pointer-events="none" fill="none" stroke="white" stroke-width="1.5" d="M0,-3.0v7 M-2.5,-0.5L0,-3.0L2.5,-0.5"/>
  </g>
  <g id="resetDef">
    <use xlink:href="#rim2" fill="#404040"><set attributeName="fill" to="#808080" begin="reset.mouseover" end="reset.mouseout"/></use>
  </g>
</defs>
<script type="application/ecmascript">
var viewWidth = 2473;
var viewHeight = 307;
var sectionId = 'dynsection-0';
</script>
<script type="application/ecmascript" xlink:href="svg.min.js"/>
<svg id="graph" class="graph">
<g id="viewport">
<title>/opt/unreal&#45;engine/Engine/Source/Runtime/Engine/Classes/Engine/MemberReference.h</title>
<!-- Node1 -->
<g id="Node000001" class="node">
<title>Node1</title>
<g id="a_Node000001"><a xlink:title=" ">
<polygon fill="#999999" stroke="#666666" points="1831.7,-298.75 1699.45,-298.75 1699.45,-239.75 1831.7,-239.75 1831.7,-298.75"/>
<text xml:space="preserve" text-anchor="start" x="1707.45" y="-285.25" font-family="Helvetica,sans-Serif" font-size="10.00">/opt/unreal&#45;engine</text>
<text xml:space="preserve" text-anchor="start" x="1707.45" y="-272.5" font-family="Helvetica,sans-Serif" font-size="10.00">/Engine/Source/Runtime</text>
<text xml:space="preserve" text-anchor="start" x="1707.45" y="-259.75" font-family="Helvetica,sans-Serif" font-size="10.00">/Engine/Classes/Engine</text>
<text xml:space="preserve" text-anchor="middle" x="1765.58" y="-247" font-family="Helvetica,sans-Serif" font-size="10.00">/MemberReference.h</text>
</a>
</g>
</g>
<!-- Node2 -->
<g id="Node000002" class="node">
<title>Node2</title>
<g id="a_Node000002"><a xlink:title=" ">
<polygon fill="#e0e0e0" stroke="#999999" points="1654.2,-20.75 1566.95,-20.75 1566.95,0 1654.2,0 1654.2,-20.75"/>
<text xml:space="preserve" text-anchor="middle" x="1610.58" y="-7.25" font-family="Helvetica,sans-Serif" font-size="10.00">CoreMinimal.h</text>
</a>
</g>
</g>
<!-- Node1&#45;&gt;Node2 -->
<g id="edge1_Node000001_Node000002" class="edge">
<title>Node1&#45;&gt;Node2</title>
<g id="a_edge1_Node000001_Node000002"><a xlink:title=" ">
<path fill="none" stroke="#63b8ff" d="M1767.37,-239.26C1768.04,-206.42 1764.95,-152.43 1741.58,-113.5 1727.86,-90.64 1714.68,-93.81 1693.58,-77.5 1672.26,-61.02 1648.2,-41.78 1631.5,-28.32"/>
<polygon fill="#63b8ff" stroke="#63b8ff" points="1633.74,-25.63 1623.77,-22.07 1629.35,-31.08 1633.74,-25.63"/>
</a>
</g>
</g>
<!-- Node3 -->
<g id="Node000003" class="node">
<title>Node3</title>
<g id="a_Node000003"><a xlink:title=" ">
<polygon fill="#e0e0e0" stroke="#999999" points="1517.45,-20.75 1383.7,-20.75 1383.7,0 1517.45,0 1517.45,-20.75"/>
<text xml:space="preserve" text-anchor="middle" x="1450.58" y="-7.25" font-family="Helvetica,sans-Serif" font-size="10.00">UObject/ObjectMacros.h</text>
</a>
</g>
</g>
<!-- Node1&#45;&gt;Node3 -->
<g id="edge2_Node000001_Node000003" class="edge">
<title>Node1&#45;&gt;Node3</title>
<g id="a_edge2_Node000001_Node000003"><a xlink:title=" ">
<path fill="none" stroke="#63b8ff" d="M1762.11,-239.38C1756.56,-205.14 1742.58,-148.33 1708.58,-113.5 1659.2,-62.93 1581.68,-36.78 1524.49,-23.67"/>
<polygon fill="#63b8ff" stroke="#63b8ff" points="1525.34,-20.27 1514.82,-21.54 1523.83,-27.11 1525.34,-20.27"/>
</a>
</g>
</g>
<!-- Node4 -->
<g id="Node000004" class="node">
<title>Node4</title>
<g id="a_Node000004"><a xlink:title=" ">
<polygon fill="#e0e0e0" stroke="#999999" points="2465.08,-20.75 2392.08,-20.75 2392.08,0 2465.08,0 2465.08,-20.75"/>
<text xml:space="preserve" text-anchor="middle" x="2428.58" y="-7.25" font-family="Helvetica,sans-Serif" font-size="10.00">Misc/Guid.h</text>
</a>
</g>
</g>
<!-- Node1&#45;&gt;Node4 -->
<g id="edge3_Node000001_Node000004" class="edge">
<title>Node1&#45;&gt;Node4</title>
<g id="a_edge3_Node000001_Node000004"><a xlink:title=" ">
<path fill="none" stroke="#63b8ff" d="M1777.22,-239.26C1786.53,-220.02 1801.53,-196.01 1822.58,-183 1931.19,-115.88 1982.13,-170.74 2107.58,-147 2231.02,-123.64 2277.93,-148.51 2381.58,-77.5 2398.43,-65.96 2411.27,-46.27 2419.24,-31.37"/>
<polygon fill="#63b8ff" stroke="#63b8ff" points="2422.35,-32.99 2423.69,-22.48 2416.09,-29.85 2422.35,-32.99"/>
</a>
</g>
</g>
<!-- Node5 -->
<g id="Node000005" class="node">
<title>Node5</title>
<g id="a_Node000005"><a xlink:title=" ">
<polygon fill="#e0e0e0" stroke="#999999" points="812.2,-77.5 718.95,-77.5 718.95,-56.75 812.2,-56.75 812.2,-77.5"/>
<text xml:space="preserve" text-anchor="middle" x="765.58" y="-64" font-family="Helvetica,sans-Serif" font-size="10.00">UObject/Class.h</text>
</a>
</g>
</g>
<!-- Node1&#45;&gt;Node5 -->
<g id="edge4_Node000001_Node000005" class="edge">
<title>Node1&#45;&gt;Node5</title>
<g id="a_edge4_Node000001_Node000005"><a xlink:title=" ">
<path fill="none" stroke="#63b8ff" d="M1699.1,-268.27C1490.58,-267.72 851.46,-261.26 653.58,-203.75 603.76,-189.27 577.87,-191.72 551.58,-147 544.03,-134.17 542.21,-125.07 551.58,-113.5 556.56,-107.35 645.72,-89.98 707.37,-78.61"/>
<polygon fill="#63b8ff" stroke="#63b8ff" points="707.84,-82.08 717.04,-76.83 706.57,-75.19 707.84,-82.08"/>
</a>
</g>
</g>
<!-- Node6 -->
<g id="Node000006" class="node">
<title>Node6</title>
<g id="a_Node000006"><a xlink:title=" ">
<polygon fill="#e0e0e0" stroke="#999999" points="961.33,-77.5 829.83,-77.5 829.83,-56.75 961.33,-56.75 961.33,-77.5"/>
<text xml:space="preserve" text-anchor="middle" x="895.58" y="-64" font-family="Helvetica,sans-Serif" font-size="10.00">Templates/SubclassOf.h</text>
</a>
</g>
</g>
<!-- Node1&#45;&gt;Node6 -->
<g id="edge5_Node000001_Node000006" class="edge">
<title>Node1&#45;&gt;Node6</title>
<g id="a_edge5_Node000001_Node000006"><a xlink:title=" ">
<path fill="none" stroke="#63b8ff" d="M1699.37,-266.69C1458.45,-260.34 638.63,-232.55 562.58,-147 552.69,-135.87 552.79,-124.72 562.58,-113.5 564.68,-111.09 720.49,-90.65 818.21,-78.04"/>
<polygon fill="#63b8ff" stroke="#63b8ff" points="818.56,-81.52 828.03,-76.77 817.67,-74.58 818.56,-81.52"/>
</a>
</g>
</g>
<!-- Node7 -->
<g id="Node000007" class="node">
<title>Node7</title>
<g id="a_Node000007"><a xlink:title=" ">
<polygon fill="#e0e0e0" stroke="#999999" points="1953.45,-203.75 1831.7,-203.75 1831.7,-183 1953.45,-183 1953.45,-203.75"/>
<text xml:space="preserve" text-anchor="middle" x="1892.58" y="-190.25" font-family="Helvetica,sans-Serif" font-size="10.00">UObject/UnrealType.h</text>
</a>
</g>
</g>
<!-- Node1&#45;&gt;Node7 -->
<g id="edge6_Node000001_Node000007" class="edge">
<title>Node1&#45;&gt;Node7</title>
<g id="a_edge6_Node000001_Node000007"><a xlink:title=" ">
<path fill="none" stroke="#63b8ff" d="M1815.41,-239.26C1832.63,-229.25 1851.26,-218.41 1865.9,-209.89"/>
<polygon fill="#63b8ff" stroke="#63b8ff" points="1867.59,-212.96 1874.47,-204.91 1864.07,-206.91 1867.59,-212.96"/>
</a>
</g>
</g>
<!-- Node8 -->
<g id="Node000008" class="node">
<title>Node8</title>
<g id="a_Node000008"><a xlink:title=" ">
<polygon fill="#e0e0e0" stroke="#999999" points="2079.7,-203.75 1971.45,-203.75 1971.45,-183 2079.7,-183 2079.7,-203.75"/>
<text xml:space="preserve" text-anchor="middle" x="2025.58" y="-190.25" font-family="Helvetica,sans-Serif" font-size="10.00">UObject/Package.h</text>
</a>
</g>
</g>
<!-- Node1&#45;&gt;Node8 -->
<g id="edge7_Node000001_Node000008" class="edge">
<title>Node1&#45;&gt;Node8</title>
<g id="a_edge7_Node000001_Node000008"><a xlink:title=" ">
<path fill="none" stroke="#63b8ff" d="M1832.2,-249.32C1878.54,-236.15 1939.12,-218.94 1980.03,-207.32"/>
<polygon fill="#63b8ff" stroke="#63b8ff" points="1980.9,-210.71 1989.56,-204.61 1978.99,-203.98 1980.9,-210.71"/>
</a>
</g>
</g>
<!-- Node9 -->
<g id="Node000009" class="node">
<title>Node9</title>
<g id="a_Node000009"><a xlink:title=" ">
<polygon fill="#e0e0e0" stroke="#999999" points="2239.58,-203.75 2097.58,-203.75 2097.58,-183 2239.58,-183 2239.58,-203.75"/>
<text xml:space="preserve" text-anchor="middle" x="2168.58" y="-190.25" font-family="Helvetica,sans-Serif" font-size="10.00">UObject/UObjectIterator.h</text>
</a>
</g>
</g>
<!-- Node1&#45;&gt;Node9 -->
<g id="edge8_Node000001_Node000009" class="edge">
<title>Node1&#45;&gt;Node9</title>
<g id="a_edge8_Node000001_Node000009"><a xlink:title=" ">
<path fill="none" stroke="#63b8ff" d="M1832.13,-256.05C1907.4,-242.25 2029.18,-219.93 2103.75,-206.26"/>
<polygon fill="#63b8ff" stroke="#63b8ff" points="2104.15,-209.74 2113.35,-204.5 2102.89,-202.86 2104.15,-209.74"/>
</a>
</g>
</g>
<!-- Node10 -->
<g id="Node000010" class="node">
<title>Node10</title>
<g id="a_Node000010"><a xlink:href="Blueprint_8h.html" target="_top" xlink:title=" ">
<polygon fill="white" stroke="#666666" points="1158.2,-203.75 1052.95,-203.75 1052.95,-183 1158.2,-183 1158.2,-203.75"/>
<text xml:space="preserve" text-anchor="middle" x="1105.58" y="-190.25" font-family="Helvetica,sans-Serif" font-size="10.00">Engine/Blueprint.h</text>
</a>
</g>
</g>
<!-- Node1&#45;&gt;Node10 -->
<g id="edge9_Node000001_Node000010" class="edge">
<title>Node1&#45;&gt;Node10</title>
<g id="a_edge9_Node000001_Node000010"><a xlink:title=" ">
<path fill="none" stroke="#63b8ff" d="M1698.97,-260.79C1571.69,-246.55 1295.46,-215.63 1169.95,-201.58"/>
<polygon fill="#63b8ff" stroke="#63b8ff" points="1170.48,-198.12 1160.15,-200.48 1169.7,-205.07 1170.48,-198.12"/>
</a>
</g>
</g>
<!-- Node33 -->
<g id="Node000033" class="node">
<title>Node33</title>
<g id="a_Node000033"><a xlink:title=" ">
<polygon fill="#e0e0e0" stroke="#999999" points="1699.83,-140.62 1619.33,-140.62 1619.33,-119.88 1699.83,-119.88 1699.83,-140.62"/>
<text xml:space="preserve" text-anchor="middle" x="1659.58" y="-127.12" font-family="Helvetica,sans-Serif" font-size="10.00">EngineLogs.h</text>
</a>
</g>
</g>
<!-- Node1&#45;&gt;Node33 -->
<g id="edge62_Node000001_Node000033" class="edge">
<title>Node1&#45;&gt;Node33</title>
<g id="a_edge62_Node000001_Node000033"><a xlink:title=" ">
<path fill="none" stroke="#63b8ff" d="M1742.04,-239.54C1733.04,-228.44 1722.74,-215.57 1713.58,-203.75 1699.52,-185.61 1683.9,-164.53 1673.09,-149.8"/>
<polygon fill="#63b8ff" stroke="#63b8ff" points="1676.08,-147.95 1667.35,-141.94 1670.43,-152.08 1676.08,-147.95"/>
</a>
</g>
</g>
<!-- Node36 -->
<g id="Node000036" class="node">
<title>Node36</title>
<g id="a_Node000036"><a xlink:title=" ">
<polygon fill="#e0e0e0" stroke="#999999" points="2425.33,-203.75 2257.83,-203.75 2257.83,-183 2425.33,-183 2425.33,-203.75"/>
<text xml:space="preserve" text-anchor="middle" x="2341.58" y="-190.25" font-family="Helvetica,sans-Serif" font-size="10.00">MemberReference.generated.h</text>
</a>
</g>
</g>
<!-- Node1&#45;&gt;Node36 -->
<g id="edge63_Node000001_Node000036" class="edge">
<title>Node1&#45;&gt;Node36</title>
<g id="a_edge63_Node000001_Node000036"><a xlink:title=" ">
<path fill="none" stroke="#63b8ff" d="M1831.93,-259.74C1936,-246.39 2137.66,-220.53 2253.67,-205.65"/>
<polygon fill="#63b8ff" stroke="#63b8ff" points="2253.99,-209.14 2263.47,-204.39 2253.1,-202.19 2253.99,-209.14"/>
</a>
</g>
</g>
<!-- Node10&#45;&gt;Node2 -->
<g id="edge10_Node000010_Node000002" class="edge">
<title>Node10&#45;&gt;Node2</title>
<g id="a_edge10_Node000010_Node000002"><a xlink:title=" ">
<path fill="none" stroke="#63b8ff" d="M1158.36,-190.57C1273.88,-186.14 1541.36,-173.15 1572.58,-147 1606.37,-118.7 1611.41,-63.01 1611.44,-32.54"/>
<polygon fill="#63b8ff" stroke="#63b8ff" points="1614.94,-32.62 1611.25,-22.69 1607.95,-32.75 1614.94,-32.62"/>
</a>
</g>
</g>
<!-- Node10&#45;&gt;Node3 -->
<g id="edge11_Node000010_Node000003" class="edge">
<title>Node10&#45;&gt;Node3</title>
<g id="a_edge11_Node000010_Node000003"><a xlink:title=" ">
<path fill="none" stroke="#63b8ff" d="M1052.75,-191.51C930.49,-188.96 636.24,-179.48 606.58,-147 596.54,-136.01 596.58,-124.53 606.58,-113.5 633.87,-83.38 930.22,-82.27 970.58,-77.5 1113.27,-60.62 1279.23,-36.83 1373.89,-22.86"/>
<polygon fill="#63b8ff" stroke="#63b8ff" points="1374.2,-26.36 1383.58,-21.43 1373.17,-19.43 1374.2,-26.36"/>
</a>
</g>
</g>
<!-- Node10&#45;&gt;Node4 -->
<g id="edge13_Node000010_Node000004" class="edge">
<title>Node10&#45;&gt;Node4</title>
<g id="a_edge13_Node000010_Node000004"><a xlink:title=" ">
<path fill="none" stroke="#63b8ff" d="M1158.7,-191.43C1289.79,-188.66 1639.1,-178.67 1928.58,-147 2117.97,-126.28 2178.9,-158 2351.58,-77.5 2376.14,-66.05 2398.99,-44.49 2413.31,-29.1"/>
<polygon fill="#63b8ff" stroke="#63b8ff" points="2415.61,-31.77 2419.69,-22 2410.4,-27.09 2415.61,-31.77"/>
</a>
</g>
</g>
<!-- Node10&#45;&gt;Node5 -->
<g id="edge14_Node000010_Node000005" class="edge">
<title>Node10&#45;&gt;Node5</title>
<g id="a_edge14_Node000010_Node000005"><a xlink:title=" ">
<path fill="none" stroke="#63b8ff" d="M1052.47,-191.93C922.26,-190.28 595.32,-182.59 562.58,-147 552.5,-136.04 553.27,-125.12 562.58,-113.5 571.73,-102.07 650.77,-86.91 707.47,-77.34"/>
<polygon fill="#63b8ff" stroke="#63b8ff" points="707.7,-80.84 716.99,-75.75 706.55,-73.94 707.7,-80.84"/>
</a>
</g>
</g>
<!-- Node10&#45;&gt;Node6 -->
<g id="edge15_Node000010_Node000006" class="edge">
<title>Node10&#45;&gt;Node6</title>
<g id="a_edge15_Node000010_Node000006"><a xlink:title=" ">
<path fill="none" stroke="#63b8ff" d="M1052.6,-191.83C924.39,-189.96 605.56,-181.82 573.58,-147 563.51,-136.03 563.81,-124.74 573.58,-113.5 575.59,-111.18 723.51,-91.07 818.14,-78.41"/>
<polygon fill="#63b8ff" stroke="#63b8ff" points="818.45,-81.9 827.9,-77.11 817.52,-74.96 818.45,-81.9"/>
</a>
</g>
</g>
<!-- Node11 -->
<g id="Node000011" class="node">
<title>Node11</title>
<g id="a_Node000011"><a xlink:title=" ">
<polygon fill="#e0e0e0" stroke="#999999" points="838.83,-20.75 740.33,-20.75 740.33,0 838.83,0 838.83,-20.75"/>
<text xml:space="preserve" text-anchor="middle" x="789.58" y="-7.25" font-family="Helvetica,sans-Serif" font-size="10.00">UObject/Object.h</text>
</a>
</g>
</g>
<!-- Node10&#45;&gt;Node11 -->
<g id="edge12_Node000010_Node000011" class="edge">
<title>Node10&#45;&gt;Node11</title>
<g id="a_edge12_Node000010_Node000011"><a xlink:title=" ">
<path fill="none" stroke="#63b8ff" d="M1052.84,-193.05C921.07,-193.95 567.21,-191.65 276.58,-147 153.25,-128.06 81.11,-176.05 4.58,-77.5 -1.08,-70.22 -1.75,-63.46 4.58,-56.75 6.13,-55.1 544.47,-25.01 728.64,-14.76"/>
<polygon fill="#63b8ff" stroke="#63b8ff" points="728.69,-18.26 738.48,-14.21 728.3,-11.27 728.69,-18.26"/>
</a>
</g>
</g>
<!-- Node12 -->
<g id="Node000012" class="node">
<title>Node12</title>
<g id="a_Node000012"><a xlink:href="EngineTypes_8h.html" target="_top" xlink:title=" ">
<polygon fill="white" stroke="#666666" points="407.45,-140.62 285.7,-140.62 285.7,-119.88 407.45,-119.88 407.45,-140.62"/>
<text xml:space="preserve" text-anchor="middle" x="346.58" y="-127.12" font-family="Helvetica,sans-Serif" font-size="10.00">Engine/EngineTypes.h</text>
</a>
</g>
</g>
<!-- Node10&#45;&gt;Node12 -->
<g id="edge16_Node000010_Node000012" class="edge">
<title>Node10&#45;&gt;Node12</title>
<g id="a_edge16_Node000010_Node000012"><a xlink:title=" ">
<path fill="none" stroke="#63b8ff" d="M1052.67,-188.95C947.07,-182.01 702.64,-165.34 497.58,-147 471.97,-144.71 443.95,-141.88 419.07,-139.25"/>
<polygon fill="#63b8ff" stroke="#63b8ff" points="419.71,-135.8 409.39,-138.22 418.96,-142.76 419.71,-135.8"/>
</a>
</g>
</g>
<!-- Node20 -->
<g id="Node000020" class="node">
<title>Node20</title>
<g id="a_Node000020"><a xlink:href="EdGraphPin_8h.html" target="_top" xlink:title=" ">
<polygon fill="white" stroke="#666666" points="1919.33,-140.62 1793.83,-140.62 1793.83,-119.88 1919.33,-119.88 1919.33,-140.62"/>
<text xml:space="preserve" text-anchor="middle" x="1856.58" y="-127.12" font-family="Helvetica,sans-Serif" font-size="10.00">EdGraph/EdGraphPin.h</text>
</a>
</g>
</g>
<!-- Node10&#45;&gt;Node20 -->
<g id="edge31_Node000010_Node000020" class="edge">
<title>Node10&#45;&gt;Node20</title>
<g id="a_edge31_Node000010_Node000020"><a xlink:title=" ">
<path fill="none" stroke="#63b8ff" d="M1158.46,-188.95C1263.42,-182.02 1505.48,-165.44 1708.58,-147 1732.57,-144.82 1758.72,-142.14 1782.27,-139.61"/>
<polygon fill="#63b8ff" stroke="#63b8ff" points="1782.54,-143.1 1792.1,-138.55 1781.78,-136.14 1782.54,-143.1"/>
</a>
</g>
</g>
<!-- Node28 -->
<g id="Node000028" class="node">
<title>Node28</title>
<g id="a_Node000028"><a xlink:href="BlueprintCore_8h.html" target="_top" xlink:title=" ">
<polygon fill="white" stroke="#666666" points="1563.45,-140.62 1435.7,-140.62 1435.7,-119.88 1563.45,-119.88 1563.45,-140.62"/>
<text xml:space="preserve" text-anchor="middle" x="1499.58" y="-127.12" font-family="Helvetica,sans-Serif" font-size="10.00">Engine/BlueprintCore.h</text>
</a>
</g>
</g>
<!-- Node10&#45;&gt;Node28 -->
<g id="edge49_Node000010_Node000028" class="edge">
<title>Node10&#45;&gt;Node28</title>
<g id="a_edge49_Node000010_Node000028"><a xlink:title=" ">
<path fill="none" stroke="#63b8ff" d="M1158.59,-186.07C1222.39,-178.21 1332.66,-163.75 1426.58,-147 1432.64,-145.92 1438.97,-144.7 1445.25,-143.42"/>
<polygon fill="#63b8ff" stroke="#63b8ff" points="1445.89,-146.87 1454.97,-141.4 1444.46,-140.01 1445.89,-146.87"/>
</a>
</g>
</g>
<!-- Node30 -->
<g id="Node000030" class="node">
<title>Node30</title>
<g id="a_Node000030"><a xlink:title=" ">
<polygon fill="#e0e0e0" stroke="#999999" points="763.95,-147 615.2,-147 615.2,-113.5 763.95,-113.5 763.95,-147"/>
<text xml:space="preserve" text-anchor="start" x="623.2" y="-133.5" font-family="Helvetica,sans-Serif" font-size="10.00">Blueprint/BlueprintProperty</text>
<text xml:space="preserve" text-anchor="middle" x="689.58" y="-120.75" font-family="Helvetica,sans-Serif" font-size="10.00">GuidProvider.h</text>
</a>
</g>
</g>
<!-- Node10&#45;&gt;Node30 -->
<g id="edge56_Node000010_Node000030" class="edge">
<title>Node10&#45;&gt;Node30</title>
<g id="a_edge56_Node000010_Node000030"><a xlink:title=" ">
<path fill="none" stroke="#63b8ff" d="M1052.68,-186.03C989.2,-178.23 879.27,-164.1 775.52,-147.43"/>
<polygon fill="#63b8ff" stroke="#63b8ff" points="776.13,-143.99 765.7,-145.84 775.01,-150.9 776.13,-143.99"/>
</a>
</g>
</g>
<!-- Node31 -->
<g id="Node000031" class="node">
<title>Node31</title>
<g id="a_Node000031"><a xlink:title=" ">
<polygon fill="#e0e0e0" stroke="#999999" points="921.45,-140.62 781.7,-140.62 781.7,-119.88 921.45,-119.88 921.45,-140.62"/>
<text xml:space="preserve" text-anchor="middle" x="851.58" y="-127.12" font-family="Helvetica,sans-Serif" font-size="10.00">UObject/SoftObjectPath.h</text>
</a>
</g>
</g>
<!-- Node10&#45;&gt;Node31 -->
<g id="edge57_Node000010_Node000031" class="edge">
<title>Node10&#45;&gt;Node31</title>
<g id="a_edge57_Node000010_Node000031"><a xlink:title=" ">
<path fill="none" stroke="#63b8ff" d="M1064.77,-182.55C1020.89,-171.99 951.01,-155.18 903.31,-143.7"/>
<polygon fill="#63b8ff" stroke="#63b8ff" points="904.3,-140.34 893.76,-141.4 902.66,-147.14 904.3,-140.34"/>
</a>
</g>
</g>
<!-- Node32 -->
<g id="Node000032" class="node">
<title>Node32</title>
<g id="a_Node000032"><a xlink:title=" ">
<polygon fill="#e0e0e0" stroke="#999999" points="1093.58,-140.62 939.58,-140.62 939.58,-119.88 1093.58,-119.88 1093.58,-140.62"/>
<text xml:space="preserve" text-anchor="middle" x="1016.58" y="-127.12" font-family="Helvetica,sans-Serif" font-size="10.00">Blueprint/BlueprintSupport.h</text>
</a>
</g>
</g>
<!-- Node10&#45;&gt;Node32 -->
<g id="edge58_Node000010_Node000032" class="edge">
<title>Node10&#45;&gt;Node32</title>
<g id="a_edge58_Node000010_Node000032"><a xlink:title=" ">
<path fill="none" stroke="#63b8ff" d="M1091.28,-182.55C1077.53,-173.11 1056.48,-158.66 1040.23,-147.5"/>
<polygon fill="#63b8ff" stroke="#63b8ff" points="1042.32,-144.68 1032.09,-141.9 1038.35,-150.45 1042.32,-144.68"/>
</a>
</g>
</g>
<!-- Node10&#45;&gt;Node33 -->
<g id="edge59_Node000010_Node000033" class="edge">
<title>Node10&#45;&gt;Node33</title>
<g id="a_edge59_Node000010_Node000033"><a xlink:title=" ">
<path fill="none" stroke="#63b8ff" d="M1158.59,-190.92C1250.39,-187.67 1444.58,-177.49 1605.58,-147 1609.88,-146.19 1614.33,-145.17 1618.75,-144.06"/>
<polygon fill="#63b8ff" stroke="#63b8ff" points="1619.36,-147.52 1628.09,-141.52 1617.53,-140.76 1619.36,-147.52"/>
</a>
</g>
</g>
<!-- Node34 -->
<g id="Node000034" class="node">
<title>Node34</title>
<g id="a_Node000034"><a xlink:title=" ">
<polygon fill="#e0e0e0" stroke="#999999" points="1277.58,-140.62 1111.58,-140.62 1111.58,-119.88 1277.58,-119.88 1277.58,-140.62"/>
<text xml:space="preserve" text-anchor="middle" x="1194.58" y="-127.12" font-family="Helvetica,sans-Serif" font-size="10.00">Kismet2/CompilerResultsLog.h</text>
</a>
</g>
</g>
<!-- Node10&#45;&gt;Node34 -->
<g id="edge60_Node000010_Node000034" class="edge">
<title>Node10&#45;&gt;Node34</title>
<g id="a_edge60_Node000010_Node000034"><a xlink:title=" ">
<path fill="none" stroke="#63b8ff" d="M1119.88,-182.55C1133.63,-173.11 1154.67,-158.66 1170.92,-147.5"/>
<polygon fill="#63b8ff" stroke="#63b8ff" points="1172.81,-150.45 1179.07,-141.9 1168.84,-144.68 1172.81,-150.45"/>
</a>
</g>
</g>
<!-- Node35 -->
<g id="Node000035" class="node">
<title>Node35</title>
<g id="a_Node000035"><a xlink:title=" ">
<polygon fill="#e0e0e0" stroke="#999999" points="1417.45,-140.62 1295.7,-140.62 1295.7,-119.88 1417.45,-119.88 1417.45,-140.62"/>
<text xml:space="preserve" text-anchor="middle" x="1356.58" y="-127.12" font-family="Helvetica,sans-Serif" font-size="10.00">Blueprint.generated.h</text>
</a>
</g>
</g>
<!-- Node10&#45;&gt;Node35 -->
<g id="edge61_Node000010_Node000035" class="edge">
<title>Node10&#45;&gt;Node35</title>
<g id="a_edge61_Node000010_Node000035"><a xlink:title=" ">
<path fill="none" stroke="#63b8ff" d="M1145.91,-182.55C1189.27,-171.99 1258.32,-155.18 1305.46,-143.7"/>
<polygon fill="#63b8ff" stroke="#63b8ff" points="1305.99,-147.17 1314.88,-141.4 1304.34,-140.37 1305.99,-147.17"/>
</a>
</g>
</g>
<!-- Node12&#45;&gt;Node3 -->
<g id="edge18_Node000012_Node000003" class="edge">
<title>Node12&#45;&gt;Node3</title>
<g id="a_edge18_Node000012_Node000003"><a xlink:title=" ">
<path fill="none" stroke="#63b8ff" d="M390.91,-119.45C400.97,-117.36 411.62,-115.26 421.58,-113.5 532.12,-93.95 565.07,-112.96 671.58,-77.5 689.84,-71.42 691.09,-62.08 709.58,-56.75 832.04,-21.47 1207.47,-13.62 1371.97,-11.87"/>
<polygon fill="#63b8ff" stroke="#63b8ff" points="1371.97,-15.37 1381.93,-11.77 1371.9,-8.37 1371.97,-15.37"/>
</a>
</g>
</g>
<!-- Node12&#45;&gt;Node5 -->
<g id="edge20_Node000012_Node000005" class="edge">
<title>Node12&#45;&gt;Node5</title>
<g id="a_edge20_Node000012_Node000005"><a xlink:title=" ">
<path fill="none" stroke="#63b8ff" d="M390.49,-119.41C400.67,-117.3 411.48,-115.2 421.58,-113.5 546.61,-92.45 579.02,-95.13 704.58,-77.5 705.58,-77.36 706.58,-77.22 707.6,-77.07"/>
<polygon fill="#63b8ff" stroke="#63b8ff" points="707.75,-80.59 717.14,-75.68 706.74,-73.66 707.75,-80.59"/>
</a>
</g>
</g>
<!-- Node12&#45;&gt;Node6 -->
<g id="edge21_Node000012_Node000006" class="edge">
<title>Node12&#45;&gt;Node6</title>
<g id="a_edge21_Node000012_Node000006"><a xlink:title=" ">
<path fill="none" stroke="#63b8ff" d="M407.81,-120.27C424.57,-117.93 442.76,-115.51 459.58,-113.5 616.52,-94.77 659.03,-95.61 818.26,-77.85"/>
<polygon fill="#63b8ff" stroke="#63b8ff" points="818.37,-81.36 827.92,-76.76 817.59,-74.4 818.37,-81.36"/>
</a>
</g>
</g>
<!-- Node12&#45;&gt;Node11 -->
<g id="edge19_Node000012_Node000011" class="edge">
<title>Node12&#45;&gt;Node11</title>
<g id="a_edge19_Node000012_Node000011"><a xlink:title=" ">
<path fill="none" stroke="#63b8ff" d="M285.26,-122.2C226.13,-113.07 150.26,-93.74 184.58,-56.75 193.77,-46.85 576.77,-23.68 728.55,-14.86"/>
<polygon fill="#63b8ff" stroke="#63b8ff" points="728.64,-18.36 738.42,-14.29 728.23,-11.37 728.64,-18.36"/>
</a>
</g>
</g>
<!-- Node13 -->
<g id="Node000013" class="node">
<title>Node13</title>
<g id="a_Node000013"><a xlink:title=" ">
<polygon fill="#e0e0e0" stroke="#999999" points="662.95,-77.5 532.2,-77.5 532.2,-56.75 662.95,-56.75 662.95,-77.5"/>
<text xml:space="preserve" text-anchor="middle" x="597.58" y="-64" font-family="Helvetica,sans-Serif" font-size="10.00">Misc/EnumClassFlags.h</text>
</a>
</g>
</g>
<!-- Node12&#45;&gt;Node13 -->
<g id="edge17_Node000012_Node000013" class="edge">
<title>Node12&#45;&gt;Node13</title>
<g id="a_edge17_Node000012_Node000013"><a xlink:title=" ">
<path fill="none" stroke="#63b8ff" d="M386.91,-119.43C430.27,-108.87 499.32,-92.05 546.46,-80.57"/>
<polygon fill="#63b8ff" stroke="#63b8ff" points="546.99,-84.05 555.88,-78.28 545.34,-77.25 546.99,-84.05"/>
</a>
</g>
</g>
<!-- Node14 -->
<g id="Node000014" class="node">
<title>Node14</title>
<g id="a_Node000014"><a xlink:href="TimerHandle_8h.html" target="_top" xlink:title=" ">
<polygon fill="white" stroke="#666666" points="137.2,-77.5 13.95,-77.5 13.95,-56.75 137.2,-56.75 137.2,-77.5"/>
<text xml:space="preserve" text-anchor="middle" x="75.58" y="-64" font-family="Helvetica,sans-Serif" font-size="10.00">Engine/TimerHandle.h</text>
</a>
</g>
</g>
<!-- Node12&#45;&gt;Node14 -->
<g id="edge22_Node000012_Node000014" class="edge">
<title>Node12&#45;&gt;Node14</title>
<g id="a_edge22_Node000012_Node000014"><a xlink:title=" ">
<path fill="none" stroke="#63b8ff" d="M303.04,-119.43C256.02,-108.82 181.04,-91.91 130.13,-80.43"/>
<polygon fill="#63b8ff" stroke="#63b8ff" points="131.01,-77.04 120.49,-78.25 129.47,-83.87 131.01,-77.04"/>
</a>
</g>
</g>
<!-- Node16 -->
<g id="Node000016" class="node">
<title>Node16</title>
<g id="a_Node000016"><a xlink:href="NaniteAssemblyData_8h.html" target="_top" xlink:title=" ">
<polygon fill="white" stroke="#666666" points="513.83,-77.5 349.33,-77.5 349.33,-56.75 513.83,-56.75 513.83,-77.5"/>
<text xml:space="preserve" text-anchor="middle" x="431.58" y="-64" font-family="Helvetica,sans-Serif" font-size="10.00">Engine/NaniteAssemblyData.h</text>
</a>
</g>
</g>
<!-- Node12&#45;&gt;Node16 -->
<g id="edge24_Node000012_Node000016" class="edge">
<title>Node12&#45;&gt;Node16</title>
<g id="a_edge24_Node000012_Node000016"><a xlink:title=" ">
<path fill="none" stroke="#63b8ff" d="M360.24,-119.43C373.37,-109.98 393.47,-95.53 408.99,-84.37"/>
<polygon fill="#63b8ff" stroke="#63b8ff" points="410.65,-87.49 416.73,-78.81 406.57,-81.8 410.65,-87.49"/>
</a>
</g>
</g>
<!-- Node19 -->
<g id="Node000019" class="node">
<title>Node19</title>
<g id="a_Node000019"><a xlink:title=" ">
<polygon fill="#e0e0e0" stroke="#999999" points="331.7,-77.5 193.45,-77.5 193.45,-56.75 331.7,-56.75 331.7,-77.5"/>
<text xml:space="preserve" text-anchor="middle" x="262.58" y="-64" font-family="Helvetica,sans-Serif" font-size="10.00">EngineTypes.generated.h</text>
</a>
</g>
</g>
<!-- Node12&#45;&gt;Node19 -->
<g id="edge30_Node000012_Node000019" class="edge">
<title>Node12&#45;&gt;Node19</title>
<g id="a_edge30_Node000012_Node000019"><a xlink:title=" ">
<path fill="none" stroke="#63b8ff" d="M333.08,-119.43C320.22,-110.07 300.62,-95.8 285.34,-84.69"/>
<polygon fill="#63b8ff" stroke="#63b8ff" points="287.41,-81.87 277.27,-78.81 283.29,-87.53 287.41,-81.87"/>
</a>
</g>
</g>
<!-- Node15 -->
<g id="Node000015" class="node">
<title>Node15</title>
<g id="a_Node000015"><a xlink:title=" ">
<polygon fill="#e0e0e0" stroke="#999999" points="145.45,-20.75 5.7,-20.75 5.7,0 145.45,0 145.45,-20.75"/>
<text xml:space="preserve" text-anchor="middle" x="75.58" y="-7.25" font-family="Helvetica,sans-Serif" font-size="10.00">TimerHandle.generated.h</text>
</a>
</g>
</g>
<!-- Node14&#45;&gt;Node15 -->
<g id="edge23_Node000014_Node000015" class="edge">
<title>Node14&#45;&gt;Node15</title>
<g id="a_edge23_Node000014_Node000015"><a xlink:title=" ">
<path fill="none" stroke="#63b8ff" d="M75.58,-56.34C75.58,-49.72 75.58,-40.72 75.58,-32.52"/>
<polygon fill="#63b8ff" stroke="#63b8ff" points="79.08,-32.59 75.58,-22.59 72.08,-32.59 79.08,-32.59"/>
</a>
</g>
</g>
<!-- Node16&#45;&gt;Node2 -->
<g id="edge25_Node000016_Node000002" class="edge">
<title>Node16&#45;&gt;Node2</title>
<g id="a_edge25_Node000016_Node000002"><a xlink:title=" ">
<path fill="none" stroke="#63b8ff" d="M514.31,-57.44C517.44,-57.19 520.54,-56.96 523.58,-56.75 968.59,-26.12 1081.72,-53.51 1526.58,-20.75 1535.84,-20.07 1545.65,-19.15 1555.18,-18.16"/>
<polygon fill="#63b8ff" stroke="#63b8ff" points="1555.54,-21.64 1565.1,-17.08 1554.78,-14.68 1555.54,-21.64"/>
</a>
</g>
</g>
<!-- Node16&#45;&gt;Node3 -->
<g id="edge26_Node000016_Node000003" class="edge">
<title>Node16&#45;&gt;Node3</title>
<g id="a_edge26_Node000016_Node000003"><a xlink:title=" ">
<path fill="none" stroke="#63b8ff" d="M514.31,-57.49C517.44,-57.23 520.54,-56.98 523.58,-56.75 837.59,-33.08 1212.42,-19.11 1372.2,-13.82"/>
<polygon fill="#63b8ff" stroke="#63b8ff" points="1371.94,-17.33 1381.82,-13.5 1371.71,-10.33 1371.94,-17.33"/>
</a>
</g>
</g>
<!-- Node16&#45;&gt;Node11 -->
<g id="edge28_Node000016_Node000011" class="edge">
<title>Node16&#45;&gt;Node11</title>
<g id="a_edge28_Node000016_Node000011"><a xlink:title=" ">
<path fill="none" stroke="#63b8ff" d="M496,-56.27C562.08,-46.17 664.12,-30.56 728.84,-20.66"/>
<polygon fill="#63b8ff" stroke="#63b8ff" points="729.22,-24.15 738.58,-19.17 728.16,-17.23 729.22,-24.15"/>
</a>
</g>
</g>
<!-- Node17 -->
<g id="Node000017" class="node">
<title>Node17</title>
<g id="a_Node000017"><a xlink:title=" ">
<polygon fill="#e0e0e0" stroke="#999999" points="412.95,-20.75 270.2,-20.75 270.2,0 412.95,0 412.95,-20.75"/>
<text xml:space="preserve" text-anchor="middle" x="341.58" y="-7.25" font-family="Helvetica,sans-Serif" font-size="10.00">UObject/UObjectGlobals.h</text>
</a>
</g>
</g>
<!-- Node16&#45;&gt;Node17 -->
<g id="edge27_Node000016_Node000017" class="edge">
<title>Node16&#45;&gt;Node17</title>
<g id="a_edge27_Node000016_Node000017"><a xlink:title=" ">
<path fill="none" stroke="#63b8ff" d="M415.49,-56.34C402.05,-48.16 382.65,-36.36 367.09,-26.9"/>
<polygon fill="#63b8ff" stroke="#63b8ff" points="369.19,-24.07 358.82,-21.87 365.55,-30.05 369.19,-24.07"/>
</a>
</g>
</g>
<!-- Node18 -->
<g id="Node000018" class="node">
<title>Node18</title>
<g id="a_Node000018"><a xlink:title=" ">
<polygon fill="#e0e0e0" stroke="#999999" points="612.08,-20.75 431.08,-20.75 431.08,0 612.08,0 612.08,-20.75"/>
<text xml:space="preserve" text-anchor="middle" x="521.58" y="-7.25" font-family="Helvetica,sans-Serif" font-size="10.00">NaniteAssemblyData.generated.h</text>
</a>
</g>
</g>
<!-- Node16&#45;&gt;Node18 -->
<g id="edge29_Node000016_Node000018" class="edge">
<title>Node16&#45;&gt;Node18</title>
<g id="a_edge29_Node000016_Node000018"><a xlink:title=" ">
<path fill="none" stroke="#63b8ff" d="M447.67,-56.34C461.11,-48.16 480.51,-36.36 496.06,-26.9"/>
<polygon fill="#63b8ff" stroke="#63b8ff" points="497.61,-30.05 504.34,-21.87 493.97,-24.07 497.61,-30.05"/>
</a>
</g>
</g>
<!-- Node20&#45;&gt;Node2 -->
<g id="edge32_Node000020_Node000002" class="edge">
<title>Node20&#45;&gt;Node2</title>
<g id="a_edge32_Node000020_Node000002"><a xlink:title=" ">
<path fill="none" stroke="#63b8ff" d="M1832.21,-119.52C1807.59,-109.53 1768.57,-93.25 1735.58,-77.5 1701.27,-61.12 1662.72,-40.36 1637.62,-26.51"/>
<polygon fill="#63b8ff" stroke="#63b8ff" points="1639.51,-23.55 1629.06,-21.77 1636.11,-29.68 1639.51,-23.55"/>
</a>
</g>
</g>
<!-- Node20&#45;&gt;Node3 -->
<g id="edge33_Node000020_Node000003" class="edge">
<title>Node20&#45;&gt;Node3</title>
<g id="a_edge33_Node000020_Node000003"><a xlink:title=" ">
<path fill="none" stroke="#63b8ff" d="M1825.21,-119.48C1779.45,-105.3 1691.66,-78.35 1616.58,-56.75 1576.85,-45.32 1531.58,-32.99 1498.36,-24.07"/>
<polygon fill="#63b8ff" stroke="#63b8ff" points="1499.61,-20.79 1489.04,-21.58 1497.79,-27.55 1499.61,-20.79"/>
</a>
</g>
</g>
<!-- Node20&#45;&gt;Node4 -->
<g id="edge36_Node000020_Node000004" class="edge">
<title>Node20&#45;&gt;Node4</title>
<g id="a_edge36_Node000020_Node000004"><a xlink:title=" ">
<path fill="none" stroke="#63b8ff" d="M1919.8,-130.21C2009.79,-129.79 2178.95,-122.3 2314.58,-77.5 2349.06,-66.11 2384.6,-43.43 2406.63,-27.84"/>
<polygon fill="#63b8ff" stroke="#63b8ff" points="2408.48,-30.82 2414.53,-22.12 2404.38,-25.15 2408.48,-30.82"/>
</a>
</g>
</g>
<!-- Node20&#45;&gt;Node5 -->
<g id="edge37_Node000020_Node000005" class="edge">
<title>Node20&#45;&gt;Node5</title>
<g id="a_edge37_Node000020_Node000005"><a xlink:title=" ">
<path fill="none" stroke="#63b8ff" d="M1793.65,-121.63C1767.38,-118.69 1736.54,-115.55 1708.58,-113.5 1318.4,-84.86 1215.36,-118.12 824,-77.74"/>
<polygon fill="#63b8ff" stroke="#63b8ff" points="824.44,-74.27 814.13,-76.71 823.72,-81.23 824.44,-74.27"/>
</a>
</g>
</g>
<!-- Node20&#45;&gt;Node11 -->
<g id="edge34_Node000020_Node000011" class="edge">
<title>Node20&#45;&gt;Node11</title>
<g id="a_edge34_Node000020_Node000011"><a xlink:title=" ">
<path fill="none" stroke="#63b8ff" d="M1808.37,-119.43C1729.79,-103.79 1569.06,-73.29 1431.58,-56.75 1218.95,-31.16 964.84,-18.45 850.55,-13.68"/>
<polygon fill="#63b8ff" stroke="#63b8ff" points="850.92,-10.2 840.79,-13.28 850.64,-17.19 850.92,-10.2"/>
</a>
</g>
</g>
<!-- Node21 -->
<g id="Node000021" class="node">
<title>Node21</title>
<g id="a_Node000021"><a xlink:title=" ">
<polygon fill="#e0e0e0" stroke="#999999" points="1856.58,-77.5 1744.58,-77.5 1744.58,-56.75 1856.58,-56.75 1856.58,-77.5"/>
<text xml:space="preserve" text-anchor="middle" x="1800.58" y="-64" font-family="Helvetica,sans-Serif" font-size="10.00">UObject/ObjectPtr.h</text>
</a>
</g>
</g>
<!-- Node20&#45;&gt;Node21 -->
<g id="edge35_Node000020_Node000021" class="edge">
<title>Node20&#45;&gt;Node21</title>
<g id="a_edge35_Node000020_Node000021"><a xlink:title=" ">
<path fill="none" stroke="#63b8ff" d="M1847.58,-119.43C1839.37,-110.47 1827.03,-96.99 1817.05,-86.1"/>
<polygon fill="#63b8ff" stroke="#63b8ff" points="1819.73,-83.85 1810.39,-78.84 1814.57,-88.57 1819.73,-83.85"/>
</a>
</g>
</g>
<!-- Node22 -->
<g id="Node000022" class="node">
<title>Node22</title>
<g id="a_Node000022"><a xlink:title=" ">
<polygon fill="#e0e0e0" stroke="#999999" points="2374.45,-20.75 2234.7,-20.75 2234.7,0 2374.45,0 2374.45,-20.75"/>
<text xml:space="preserve" text-anchor="middle" x="2304.58" y="-7.25" font-family="Helvetica,sans-Serif" font-size="10.00">UObject/WeakObjectPtr.h</text>
</a>
</g>
</g>
<!-- Node20&#45;&gt;Node22 -->
<g id="edge38_Node000020_Node000022" class="edge">
<title>Node20&#45;&gt;Node22</title>
<g id="a_edge38_Node000020_Node000022"><a xlink:title=" ">
<path fill="none" stroke="#63b8ff" d="M1919.8,-126.03C2034.89,-119.56 2269.27,-103.35 2295.58,-77.5 2307.33,-65.96 2308.81,-46.84 2307.79,-32.12"/>
<polygon fill="#63b8ff" stroke="#63b8ff" points="2311.31,-32.09 2306.7,-22.56 2304.36,-32.89 2311.31,-32.09"/>
</a>
</g>
</g>
<!-- Node23 -->
<g id="Node000023" class="node">
<title>Node23</title>
<g id="a_Node000023"><a xlink:title=" ">
<polygon fill="#e0e0e0" stroke="#999999" points="1980.2,-77.5 1874.95,-77.5 1874.95,-56.75 1980.2,-56.75 1980.2,-77.5"/>
<text xml:space="preserve" text-anchor="middle" x="1927.58" y="-64" font-family="Helvetica,sans-Serif" font-size="10.00">Templates/Casts.h</text>
</a>
</g>
</g>
<!-- Node20&#45;&gt;Node23 -->
<g id="edge39_Node000020_Node000023" class="edge">
<title>Node20&#45;&gt;Node23</title>
<g id="a_edge39_Node000020_Node000023"><a xlink:title=" ">
<path fill="none" stroke="#63b8ff" d="M1867.99,-119.43C1878.71,-110.2 1894.99,-96.18 1907.83,-85.13"/>
<polygon fill="#63b8ff" stroke="#63b8ff" points="1909.99,-87.88 1915.29,-78.71 1905.43,-82.58 1909.99,-87.88"/>
</a>
</g>
</g>
<!-- Node24 -->
<g id="Node000024" class="node">
<title>Node24</title>
<g id="a_Node000024"><a xlink:href="EdGraphNode_8h.html" target="_top" xlink:title=" ">
<polygon fill="white" stroke="#666666" points="2286.58,-77.5 2150.58,-77.5 2150.58,-56.75 2286.58,-56.75 2286.58,-77.5"/>
<text xml:space="preserve" text-anchor="middle" x="2218.58" y="-64" font-family="Helvetica,sans-Serif" font-size="10.00">EdGraph/EdGraphNode.h</text>
</a>
</g>
</g>
<!-- Node20&#45;&gt;Node24 -->
<g id="edge40_Node000020_Node000024" class="edge">
<title>Node20&#45;&gt;Node24</title>
<g id="a_edge40_Node000020_Node000024"><a xlink:title=" ">
<path fill="none" stroke="#63b8ff" d="M1914.74,-119.43C1978.64,-108.64 2081.2,-91.32 2149.23,-79.83"/>
<polygon fill="#63b8ff" stroke="#63b8ff" points="2149.49,-83.34 2158.77,-78.22 2148.33,-76.44 2149.49,-83.34"/>
</a>
</g>
</g>
<!-- Node27 -->
<g id="Node000027" class="node">
<title>Node27</title>
<g id="a_Node000027"><a xlink:title=" ">
<polygon fill="#e0e0e0" stroke="#999999" points="2132.45,-77.5 1998.7,-77.5 1998.7,-56.75 2132.45,-56.75 2132.45,-77.5"/>
<text xml:space="preserve" text-anchor="middle" x="2065.58" y="-64" font-family="Helvetica,sans-Serif" font-size="10.00">EdGraphPin.generated.h</text>
</a>
</g>
</g>
<!-- Node20&#45;&gt;Node27 -->
<g id="edge48_Node000020_Node000027" class="edge">
<title>Node20&#45;&gt;Node27</title>
<g id="a_edge48_Node000020_Node000027"><a xlink:title=" ">
<path fill="none" stroke="#63b8ff" d="M1890.16,-119.43C1925.73,-109.03 1982.07,-92.55 2021.26,-81.09"/>
<polygon fill="#63b8ff" stroke="#63b8ff" points="2022.01,-84.51 2030.63,-78.35 2020.05,-77.79 2022.01,-84.51"/>
</a>
</g>
</g>
<!-- Node24&#45;&gt;Node2 -->
<g id="edge41_Node000024_Node000002" class="edge">
<title>Node24&#45;&gt;Node2</title>
<g id="a_edge41_Node000024_Node000002"><a xlink:title=" ">
<path fill="none" stroke="#63b8ff" d="M2150.16,-57.67C2147.26,-57.35 2144.39,-57.04 2141.58,-56.75 1968.24,-38.8 1762.54,-22.7 1665.92,-15.45"/>
<polygon fill="#63b8ff" stroke="#63b8ff" points="1666.43,-11.97 1656.2,-14.72 1665.91,-18.95 1666.43,-11.97"/>
</a>
</g>
</g>
<!-- Node24&#45;&gt;Node3 -->
<g id="edge42_Node000024_Node000003" class="edge">
<title>Node24&#45;&gt;Node3</title>
<g id="a_edge42_Node000024_Node000003"><a xlink:title=" ">
<path fill="none" stroke="#63b8ff" d="M2150.17,-57.58C2147.27,-57.29 2144.4,-57.01 2141.58,-56.75 1882.62,-33.02 1816.91,-40.1 1557.58,-20.75 1548.36,-20.06 1538.69,-19.29 1529.1,-18.49"/>
<polygon fill="#63b8ff" stroke="#63b8ff" points="1529.68,-15.03 1519.42,-17.67 1529.09,-22 1529.68,-15.03"/>
</a>
</g>
</g>
<!-- Node24&#45;&gt;Node4 -->
<g id="edge44_Node000024_Node000004" class="edge">
<title>Node24&#45;&gt;Node4</title>
<g id="a_edge44_Node000024_Node000004"><a xlink:title=" ">
<path fill="none" stroke="#63b8ff" d="M2256.12,-56.34C2291.02,-47.24 2343.16,-33.65 2380.97,-23.79"/>
<polygon fill="#63b8ff" stroke="#63b8ff" points="2381.45,-27.28 2390.25,-21.37 2379.69,-20.5 2381.45,-27.28"/>
</a>
</g>
</g>
<!-- Node24&#45;&gt;Node11 -->
<g id="edge43_Node000024_Node000011" class="edge">
<title>Node24&#45;&gt;Node11</title>
<g id="a_edge43_Node000024_Node000011"><a xlink:title=" ">
<path fill="none" stroke="#63b8ff" d="M2150.18,-57.48C2147.27,-57.21 2144.4,-56.97 2141.58,-56.75 1885.39,-36.89 1079.36,-17.83 850.64,-12.71"/>
<polygon fill="#63b8ff" stroke="#63b8ff" points="850.82,-9.22 840.75,-12.49 850.67,-16.21 850.82,-9.22"/>
</a>
</g>
</g>
<!-- Node24&#45;&gt;Node22 -->
<g id="edge45_Node000024_Node000022" class="edge">
<title>Node24&#45;&gt;Node22</title>
<g id="a_edge45_Node000024_Node000022"><a xlink:title=" ">
<path fill="none" stroke="#63b8ff" d="M2233.95,-56.34C2246.67,-48.24 2264.98,-36.58 2279.77,-27.17"/>
<polygon fill="#63b8ff" stroke="#63b8ff" points="2281.5,-30.21 2288.06,-21.89 2277.75,-24.31 2281.5,-30.21"/>
</a>
</g>
</g>
<!-- Node25 -->
<g id="Node000025" class="node">
<title>Node25</title>
<g id="a_Node000025"><a xlink:title=" ">
<polygon fill="#e0e0e0" stroke="#999999" points="2054.58,-20.75 1936.58,-20.75 1936.58,0 2054.58,0 2054.58,-20.75"/>
<text xml:space="preserve" text-anchor="middle" x="1995.58" y="-7.25" font-family="Helvetica,sans-Serif" font-size="10.00">Types/SlateVector2.h</text>
</a>
</g>
</g>
<!-- Node24&#45;&gt;Node25 -->
<g id="edge46_Node000024_Node000025" class="edge">
<title>Node24&#45;&gt;Node25</title>
<g id="a_edge46_Node000024_Node000025"><a xlink:title=" ">
<path fill="none" stroke="#63b8ff" d="M2178.45,-56.27C2141.62,-47.23 2086.87,-33.79 2046.88,-23.97"/>
<polygon fill="#63b8ff" stroke="#63b8ff" points="2047.77,-20.59 2037.23,-21.6 2046.11,-27.38 2047.77,-20.59"/>
</a>
</g>
</g>
<!-- Node26 -->
<g id="Node000026" class="node">
<title>Node26</title>
<g id="a_Node000026"><a xlink:title=" ">
<polygon fill="#e0e0e0" stroke="#999999" points="2216.7,-20.75 2072.45,-20.75 2072.45,0 2216.7,0 2216.7,-20.75"/>
<text xml:space="preserve" text-anchor="middle" x="2144.58" y="-7.25" font-family="Helvetica,sans-Serif" font-size="10.00">EdGraphNode.generated.h</text>
</a>
</g>
</g>
<!-- Node24&#45;&gt;Node26 -->
<g id="edge47_Node000024_Node000026" class="edge">
<title>Node24&#45;&gt;Node26</title>
<g id="a_edge47_Node000024_Node000026"><a xlink:title=" ">
<path fill="none" stroke="#63b8ff" d="M2205.35,-56.34C2194.62,-48.4 2179.25,-37.03 2166.66,-27.71"/>
<polygon fill="#63b8ff" stroke="#63b8ff" points="2169.03,-25.11 2158.91,-21.98 2164.87,-30.74 2169.03,-25.11"/>
</a>
</g>
</g>
<!-- Node28&#45;&gt;Node2 -->
<g id="edge50_Node000028_Node000002" class="edge">
<title>Node28&#45;&gt;Node2</title>
<g id="a_edge50_Node000028_Node000002"><a xlink:title=" ">
<path fill="none" stroke="#63b8ff" d="M1505.02,-119.63C1513.55,-105.04 1531.12,-76.89 1550.58,-56.75 1561.04,-45.93 1574.24,-35.65 1585.59,-27.63"/>
<polygon fill="#63b8ff" stroke="#63b8ff" points="1587.46,-30.59 1593.73,-22.05 1583.51,-24.81 1587.46,-30.59"/>
</a>
</g>
</g>
<!-- Node28&#45;&gt;Node3 -->
<g id="edge51_Node000028_Node000003" class="edge">
<title>Node28&#45;&gt;Node3</title>
<g id="a_edge51_Node000028_Node000003"><a xlink:title=" ">
<path fill="none" stroke="#63b8ff" d="M1495.57,-119.6C1487.6,-100.44 1469.63,-57.2 1458.97,-31.55"/>
<polygon fill="#63b8ff" stroke="#63b8ff" points="1462.3,-30.44 1455.23,-22.55 1455.83,-33.13 1462.3,-30.44"/>
</a>
</g>
</g>
<!-- Node28&#45;&gt;Node4 -->
<g id="edge53_Node000028_Node000004" class="edge">
<title>Node28&#45;&gt;Node4</title>
<g id="a_edge53_Node000028_Node000004"><a xlink:title=" ">
<path fill="none" stroke="#63b8ff" d="M1561.98,-119.41C1577.8,-117.18 1594.79,-115.03 1610.58,-113.5 1762.3,-98.78 2150.27,-123.55 2295.58,-77.5 2312.09,-72.27 2313.32,-64.96 2328.58,-56.75 2349.87,-45.29 2374.61,-34.05 2394.15,-25.63"/>
<polygon fill="#63b8ff" stroke="#63b8ff" points="2395.48,-28.86 2403.31,-21.72 2392.74,-22.42 2395.48,-28.86"/>
</a>
</g>
</g>
<!-- Node28&#45;&gt;Node6 -->
<g id="edge54_Node000028_Node000006" class="edge">
<title>Node28&#45;&gt;Node6</title>
<g id="a_edge54_Node000028_Node000006"><a xlink:title=" ">
<path fill="none" stroke="#63b8ff" d="M1458.44,-119.38C1448.09,-117.17 1436.97,-115.03 1426.58,-113.5 1227.64,-84.23 1175.69,-97.21 975.58,-77.5 974.57,-77.4 973.56,-77.3 972.55,-77.2"/>
<polygon fill="#63b8ff" stroke="#63b8ff" points="973.29,-73.76 962.98,-76.2 972.57,-80.72 973.29,-73.76"/>
</a>
</g>
</g>
<!-- Node28&#45;&gt;Node11 -->
<g id="edge52_Node000028_Node000011" class="edge">
<title>Node28&#45;&gt;Node11</title>
<g id="a_edge52_Node000028_Node000011"><a xlink:title=" ">
<path fill="none" stroke="#63b8ff" d="M1456.04,-119.46C1446.36,-117.39 1436.14,-115.3 1426.58,-113.5 1215.86,-73.91 964.1,-36.42 850.5,-20.03"/>
<polygon fill="#63b8ff" stroke="#63b8ff" points="851.19,-16.6 840.79,-18.64 850.19,-23.52 851.19,-16.6"/>
</a>
</g>
</g>
<!-- Node29 -->
<g id="Node000029" class="node">
<title>Node29</title>
<g id="a_Node000029"><a xlink:title=" ">
<polygon fill="#e0e0e0" stroke="#999999" points="1422.7,-77.5 1278.45,-77.5 1278.45,-56.75 1422.7,-56.75 1422.7,-77.5"/>
<text xml:space="preserve" text-anchor="middle" x="1350.58" y="-64" font-family="Helvetica,sans-Serif" font-size="10.00">BlueprintCore.generated.h</text>
</a>
</g>
</g>
<!-- Node28&#45;&gt;Node29 -->
<g id="edge55_Node000028_Node000029" class="edge">
<title>Node28&#45;&gt;Node29</title>
<g id="a_edge55_Node000028_Node000029"><a xlink:title=" ">
<path fill="none" stroke="#63b8ff" d="M1475.64,-119.43C1451.09,-109.36 1412.68,-93.6 1384.9,-82.21"/>
<polygon fill="#63b8ff" stroke="#63b8ff" points="1386.44,-79.05 1375.86,-78.5 1383.78,-85.53 1386.44,-79.05"/>
</a>
</g>
</g>
</g>
</svg>

<g id="navigator" transform="translate(0 0)" fill="#404254">
  <rect fill="#f2f5e9" fill-opacity="0.5" stroke="#606060" stroke-width=".5" x="0" y="0" width="60" height="60"/>
  <use id="zoomplus" xlink:href="#zoomPlus" x="17" y="9" onmousedown="handleZoom(evt,'in')"/>
  <use id="zoomminus" xlink:href="#zoomMin" x="42" y="9" onmousedown="handleZoom(evt,'out')"/>
  <use id="reset" xlink:href="#resetDef" x="30" y="36" onmousedown="handleReset()"/>
   <use id="arrowup" xlink:href="#arrowUp" x="0" y="0" onmousedown="handlePan(0,-1)"/>
  <use id="arrowright" xlink:href="#arrowRight" x="0" y="0" onmousedown="handlePan(1,0)"/>
  <use id="arrowdown" xlink:href="#arrowDown" x="0" y="0" onmousedown="handlePan(0,1)"/>
  <use id="arrowleft" xlink:href="#arrowLeft" x="0" y="0" onmousedown="handlePan(-1,0)"/>
</g>
<svg viewBox="0 0 15 15" width="100%" height="30px" preserveAspectRatio="xMaxYMin meet">
 <g id="arrow_out" transform="scale(0.3 0.3)">
  <a xlink:href="MemberReference_8h__incl_org.svg" target="_base">
   <rect id="button" ry="5" rx="5" y="6" x="6" height="38" width="38"
        fill="#f2f5e9" fill-opacity="0.5" stroke="#606060" stroke-width="1.0"/>
   <path id="arrow"
     d="M 11.500037,31.436501 C 11.940474,20.09759 22.043105,11.32322 32.158766,21.979434 L 37.068811,17.246167 C 37.068811,17.246167 37.088388,32 37.088388,32 L 22.160133,31.978069 C 22.160133,31.978069 26.997745,27.140456 26.997745,27.140456 C 18.528582,18.264221 13.291696,25.230495 11.500037,31.436501 z"
     style="fill:#404040;"/>
  </a>
 </g>
</svg>

<style type='text/css'>
<![CDATA[
[data-mouse-over-selected='false'] { opacity: 0.7; }
[data-mouse-over-selected='true']  { opacity: 1.0; }
]]>
</style>
<script type="application/ecmascript"><![CDATA[
document.addEventListener('DOMContentLoaded', (event) => {
  highlightEdges();
  highlightAdjacentNodes();
});
]]></script>
</svg>
