<?xml version="1.0" encoding="UTF-8" standalone="no"?>
<!DOCTYPE svg PUBLIC "-//W3C//DTD SVG 1.1//EN"
 "http://www.w3.org/Graphics/SVG/1.1/DTD/svg11.dtd">
<!-- Generated by graphviz version 14.1.4 (0)
 -->
<!-- Title: DefaultConstructItems Pages: 1 -->
<svg width="565pt" height="606pt"
 viewBox="0.00 0.00 565.00 606.00" xmlns="http://www.w3.org/2000/svg" xmlns:xlink="http://www.w3.org/1999/xlink">
<g id="graph0" class="graph" transform="scale(1 1) rotate(0) translate(4 602.25)">
<title>DefaultConstructItems</title>
<!-- Node1 -->
<g id="Node000001" class="node">
<title>Node1</title>
<g id="a_Node000001"><a xlink:title=" ">
<polygon fill="#999999" stroke="#666666" points="557.25,-312.5 431,-312.5 431,-291.75 557.25,-291.75 557.25,-312.5"/>
<text xml:space="preserve" text-anchor="middle" x="494.12" y="-299" font-family="Helvetica,sans-Serif" font-size="10.00">DefaultConstructItems</text>
</a>
</g>
</g>
<!-- Node2 -->
<g id="Node000002" class="node">
<title>Node2</title>
<g id="a_Node000002"><a xlink:href="$classTArray.html#a287d1892bc39dd2a51b0c2ecd646998a" xlink:title=" ">
<polygon fill="white" stroke="#666666" points="395,-598.25 215.5,-598.25 215.5,-552 395,-552 395,-598.25"/>
<text xml:space="preserve" text-anchor="start" x="223.5" y="-584.75" font-family="Helvetica,sans-Serif" font-size="10.00">TArray&lt; InElementType,</text>
<text xml:space="preserve" text-anchor="start" x="223.5" y="-572" font-family="Helvetica,sans-Serif" font-size="10.00"> NavMeshMemory::FNavAllocator</text>
<text xml:space="preserve" text-anchor="middle" x="305.25" y="-559.25" font-family="Helvetica,sans-Serif" font-size="10.00"> &gt;::AddDefaulted</text>
</a>
</g>
</g>
<!-- Node1&#45;&gt;Node2 -->
<g id="edge1_Node000001_Node000002" class="edge">
<title>Node1&#45;&gt;Node2</title>
<g id="a_edge1_Node000001_Node000002"><a xlink:title=" ">
<path fill="none" stroke="#63b8ff" d="M490.22,-324.19C482.9,-371.04 459.47,-481.22 395,-543.12 391.69,-546.3 388.05,-549.17 384.18,-551.75"/>
<polygon fill="#63b8ff" stroke="#63b8ff" points="493.65,-324.88 491.62,-314.49 486.73,-323.88 493.65,-324.88"/>
</a>
</g>
</g>
<!-- Node3 -->
<g id="Node000003" class="node">
<title>Node3</title>
<g id="a_Node000003"><a xlink:href="$classTArray.html#a7b488704dab17ca9cc318d430055e3e6" xlink:title=" ">
<polygon fill="white" stroke="#666666" points="395,-534.25 215.5,-534.25 215.5,-488 395,-488 395,-534.25"/>
<text xml:space="preserve" text-anchor="start" x="223.5" y="-520.75" font-family="Helvetica,sans-Serif" font-size="10.00">TArray&lt; InElementType,</text>
<text xml:space="preserve" text-anchor="start" x="223.5" y="-508" font-family="Helvetica,sans-Serif" font-size="10.00"> NavMeshMemory::FNavAllocator</text>
<text xml:space="preserve" text-anchor="middle" x="305.25" y="-495.25" font-family="Helvetica,sans-Serif" font-size="10.00"> &gt;::AddDefaulted</text>
</a>
</g>
</g>
<!-- Node1&#45;&gt;Node3 -->
<g id="edge2_Node000001_Node000003" class="edge">
<title>Node1&#45;&gt;Node3</title>
<g id="a_edge2_Node000001_Node000003"><a xlink:title=" ">
<path fill="none" stroke="#63b8ff" d="M486.81,-323.5C474.85,-360.38 445.47,-436.15 395,-479.12 391.38,-482.2 387.45,-485 383.31,-487.53"/>
<polygon fill="#63b8ff" stroke="#63b8ff" points="490.12,-324.62 489.75,-314.03 483.44,-322.54 490.12,-324.62"/>
</a>
</g>
</g>
<!-- Node4 -->
<g id="Node000004" class="node">
<title>Node4</title>
<g id="a_Node000004"><a xlink:href="$classTArray.html#aa487a86fd8413808d184fe1b64fef3df" xlink:title=" ">
<polygon fill="white" stroke="#666666" points="395,-470.25 215.5,-470.25 215.5,-424 395,-424 395,-470.25"/>
<text xml:space="preserve" text-anchor="start" x="223.5" y="-456.75" font-family="Helvetica,sans-Serif" font-size="10.00">TArray&lt; InElementType,</text>
<text xml:space="preserve" text-anchor="start" x="223.5" y="-444" font-family="Helvetica,sans-Serif" font-size="10.00"> NavMeshMemory::FNavAllocator</text>
<text xml:space="preserve" text-anchor="middle" x="305.25" y="-431.25" font-family="Helvetica,sans-Serif" font-size="10.00"> &gt;::AddDefaulted_GetRef</text>
</a>
</g>
</g>
<!-- Node1&#45;&gt;Node4 -->
<g id="edge3_Node000001_Node000004" class="edge">
<title>Node1&#45;&gt;Node4</title>
<g id="a_edge3_Node000001_Node000004"><a xlink:title=" ">
<path fill="none" stroke="#63b8ff" d="M480.38,-322.31C463.62,-347.35 431.94,-389.8 395,-415.12 390.54,-418.18 385.76,-420.98 380.81,-423.54"/>
<polygon fill="#63b8ff" stroke="#63b8ff" points="483.26,-324.31 485.79,-314.02 477.4,-320.48 483.26,-324.31"/>
</a>
</g>
</g>
<!-- Node5 -->
<g id="Node000005" class="node">
<title>Node5</title>
<g id="a_Node000005"><a xlink:href="$classTMallocBinnedCommon.html#a15943b9cb2584071e24efbac3ed8e0cf" xlink:title=" ">
<polygon fill="white" stroke="#666666" points="371.38,-405.88 239.12,-405.88 239.12,-372.38 371.38,-372.38 371.38,-405.88"/>
<text xml:space="preserve" text-anchor="start" x="247.12" y="-392.38" font-family="Helvetica,sans-Serif" font-size="10.00">TMallocBinnedCommon</text>
<text xml:space="preserve" text-anchor="middle" x="305.25" y="-379.62" font-family="Helvetica,sans-Serif" font-size="10.00">::AllocateHashBuckets</text>
</a>
</g>
</g>
<!-- Node1&#45;&gt;Node5 -->
<g id="edge4_Node000001_Node000005" class="edge">
<title>Node1&#45;&gt;Node5</title>
<g id="a_edge4_Node000001_Node000005"><a xlink:title=" ">
<path fill="none" stroke="#63b8ff" d="M469.34,-319.48C450.07,-332.89 421.82,-351.13 395,-363.12 387.53,-366.47 379.51,-369.51 371.46,-372.24"/>
<polygon fill="#63b8ff" stroke="#63b8ff" points="471.16,-322.48 477.3,-313.84 467.12,-316.76 471.16,-322.48"/>
</a>
</g>
</g>
<!-- Node6 -->
<g id="Node000006" class="node">
<title>Node6</title>
<g id="a_Node000006"><a xlink:href="$structMallocBinnedPrivate_1_1TGlobalRecycler_1_1FBundlePointer.html#a815482a395a9a4680bf31b7ea03b97cc" xlink:title=" ">
<polygon fill="white" stroke="#666666" points="378.88,-354.25 231.62,-354.25 231.62,-308 378.88,-308 378.88,-354.25"/>
<text xml:space="preserve" text-anchor="start" x="239.62" y="-340.75" font-family="Helvetica,sans-Serif" font-size="10.00">MallocBinnedPrivate</text>
<text xml:space="preserve" text-anchor="start" x="239.62" y="-328" font-family="Helvetica,sans-Serif" font-size="10.00">::TGlobalRecycler::FBundle</text>
<text xml:space="preserve" text-anchor="middle" x="305.25" y="-315.25" font-family="Helvetica,sans-Serif" font-size="10.00">Pointer::FBundlePointer</text>
</a>
</g>
</g>
<!-- Node1&#45;&gt;Node6 -->
<g id="edge5_Node000001_Node000006" class="edge">
<title>Node1&#45;&gt;Node6</title>
<g id="a_edge5_Node000001_Node000006"><a xlink:title=" ">
<path fill="none" stroke="#63b8ff" d="M419.27,-313.59C406.13,-315.62 392.46,-317.75 379.35,-319.78"/>
<polygon fill="#63b8ff" stroke="#63b8ff" points="419.8,-317.05 429.14,-312.05 418.72,-310.13 419.8,-317.05"/>
</a>
</g>
</g>
<!-- Node7 -->
<g id="Node000007" class="node">
<title>Node7</title>
<g id="a_Node000007"><a xlink:href="$structTMallocBinnedCommon_1_1Internal.html#a5886fe74b40d2222ee6ddd51cba73786" xlink:title=" ">
<polygon fill="white" stroke="#666666" points="388.25,-289.88 222.25,-289.88 222.25,-256.38 388.25,-256.38 388.25,-289.88"/>
<text xml:space="preserve" text-anchor="start" x="230.25" y="-276.38" font-family="Helvetica,sans-Serif" font-size="10.00">TMallocBinnedCommon</text>
<text xml:space="preserve" text-anchor="middle" x="305.25" y="-263.62" font-family="Helvetica,sans-Serif" font-size="10.00">::Internal::GetOrCreatePoolInfo</text>
</a>
</g>
</g>
<!-- Node1&#45;&gt;Node7 -->
<g id="edge6_Node000001_Node000007" class="edge">
<title>Node1&#45;&gt;Node7</title>
<g id="a_edge6_Node000001_Node000007"><a xlink:title=" ">
<path fill="none" stroke="#63b8ff" d="M419.39,-290.68C409.29,-289.12 398.86,-287.5 388.62,-285.91"/>
<polygon fill="#63b8ff" stroke="#63b8ff" points="418.72,-294.12 429.14,-292.2 419.8,-287.2 418.72,-294.12"/>
</a>
</g>
</g>
<!-- Node8 -->
<g id="Node000008" class="node">
<title>Node8</title>
<g id="a_Node000008"><a xlink:href="$classTArray.html#a41524a322a5c6bc4d5be33f3b0a687a7" xlink:title=" ">
<polygon fill="white" stroke="#666666" points="395,-238.25 215.5,-238.25 215.5,-192 395,-192 395,-238.25"/>
<text xml:space="preserve" text-anchor="start" x="223.5" y="-224.75" font-family="Helvetica,sans-Serif" font-size="10.00">TArray&lt; InElementType,</text>
<text xml:space="preserve" text-anchor="start" x="223.5" y="-212" font-family="Helvetica,sans-Serif" font-size="10.00"> NavMeshMemory::FNavAllocator</text>
<text xml:space="preserve" text-anchor="middle" x="305.25" y="-199.25" font-family="Helvetica,sans-Serif" font-size="10.00"> &gt;::InsertDefaulted</text>
</a>
</g>
</g>
<!-- Node1&#45;&gt;Node8 -->
<g id="edge7_Node000001_Node000008" class="edge">
<title>Node1&#45;&gt;Node8</title>
<g id="a_edge7_Node000001_Node000008"><a xlink:title=" ">
<path fill="none" stroke="#63b8ff" d="M466.2,-285.44C446.83,-273.84 419.85,-258.47 395,-247.12 388.59,-244.2 381.84,-241.35 375.02,-238.64"/>
<polygon fill="#63b8ff" stroke="#63b8ff" points="464.19,-288.32 474.56,-290.51 467.82,-282.33 464.19,-288.32"/>
</a>
</g>
</g>
<!-- Node9 -->
<g id="Node000009" class="node">
<title>Node9</title>
<g id="a_Node000009"><a xlink:href="$classTArray.html#a55eb864b40c473a8be7178016b7a22e5" xlink:title=" ">
<polygon fill="white" stroke="#666666" points="395,-174.25 215.5,-174.25 215.5,-128 395,-128 395,-174.25"/>
<text xml:space="preserve" text-anchor="start" x="223.5" y="-160.75" font-family="Helvetica,sans-Serif" font-size="10.00">TArray&lt; InElementType,</text>
<text xml:space="preserve" text-anchor="start" x="223.5" y="-148" font-family="Helvetica,sans-Serif" font-size="10.00"> NavMeshMemory::FNavAllocator</text>
<text xml:space="preserve" text-anchor="middle" x="305.25" y="-135.25" font-family="Helvetica,sans-Serif" font-size="10.00"> &gt;::InsertDefaulted</text>
</a>
</g>
</g>
<!-- Node1&#45;&gt;Node9 -->
<g id="edge8_Node000001_Node000009" class="edge">
<title>Node1&#45;&gt;Node9</title>
<g id="a_edge8_Node000001_Node000009"><a xlink:title=" ">
<path fill="none" stroke="#63b8ff" d="M481.1,-281.59C464.74,-255.3 433.1,-209.96 395,-183.12 390.58,-180.01 385.83,-177.17 380.9,-174.58"/>
<polygon fill="#63b8ff" stroke="#63b8ff" points="478.01,-283.24 486.19,-289.98 484,-279.61 478.01,-283.24"/>
</a>
</g>
</g>
<!-- Node10 -->
<g id="Node000010" class="node">
<title>Node10</title>
<g id="a_Node000010"><a xlink:href="$classTArray.html#a5969da7fe936e9ca036eed79d2ddf842" xlink:title=" ">
<polygon fill="white" stroke="#666666" points="395,-110.25 215.5,-110.25 215.5,-64 395,-64 395,-110.25"/>
<text xml:space="preserve" text-anchor="start" x="223.5" y="-96.75" font-family="Helvetica,sans-Serif" font-size="10.00">TArray&lt; InElementType,</text>
<text xml:space="preserve" text-anchor="start" x="223.5" y="-84" font-family="Helvetica,sans-Serif" font-size="10.00"> NavMeshMemory::FNavAllocator</text>
<text xml:space="preserve" text-anchor="middle" x="305.25" y="-71.25" font-family="Helvetica,sans-Serif" font-size="10.00"> &gt;::InsertDefaulted_GetRef</text>
</a>
</g>
</g>
<!-- Node1&#45;&gt;Node10 -->
<g id="edge9_Node000001_Node000010" class="edge">
<title>Node1&#45;&gt;Node10</title>
<g id="a_edge9_Node000001_Node000010"><a xlink:title=" ">
<path fill="none" stroke="#63b8ff" d="M487.17,-280.53C475.63,-242.59 446.7,-163.77 395,-119.12 391.41,-116.02 387.49,-113.21 383.36,-110.66"/>
<polygon fill="#63b8ff" stroke="#63b8ff" points="483.73,-281.24 489.89,-289.86 490.45,-279.28 483.73,-281.24"/>
</a>
</g>
</g>
<!-- Node11 -->
<g id="Node000011" class="node">
<title>Node11</title>
<g id="a_Node000011"><a xlink:href="$classTArray.html#a38b903bce3a5367f41d2268ee6a58d0a" xlink:title=" ">
<polygon fill="white" stroke="#666666" points="395,-46.25 215.5,-46.25 215.5,0 395,0 395,-46.25"/>
<text xml:space="preserve" text-anchor="start" x="223.5" y="-32.75" font-family="Helvetica,sans-Serif" font-size="10.00">TArray&lt; InElementType,</text>
<text xml:space="preserve" text-anchor="start" x="223.5" y="-20" font-family="Helvetica,sans-Serif" font-size="10.00"> NavMeshMemory::FNavAllocator</text>
<text xml:space="preserve" text-anchor="middle" x="305.25" y="-7.25" font-family="Helvetica,sans-Serif" font-size="10.00"> &gt;::SetNum</text>
</a>
</g>
</g>
<!-- Node1&#45;&gt;Node11 -->
<g id="edge10_Node000001_Node000011" class="edge">
<title>Node1&#45;&gt;Node11</title>
<g id="a_edge10_Node000001_Node000011"><a xlink:title=" ">
<path fill="none" stroke="#63b8ff" d="M490.44,-279.85C483.51,-232.04 460.74,-118.78 395,-55.12 391.82,-52.05 388.33,-49.27 384.62,-46.75"/>
<polygon fill="#63b8ff" stroke="#63b8ff" points="486.97,-280.31 491.76,-289.76 493.91,-279.39 486.97,-280.31"/>
</a>
</g>
</g>
<!-- Node12 -->
<g id="Node000012" class="node">
<title>Node12</title>
<g id="a_Node000012"><a xlink:href="$classTArray.html#a8829061138a30752007456b1f8398f0f" xlink:title=" ">
<polygon fill="white" stroke="#666666" points="179.5,-46.25 0,-46.25 0,0 179.5,0 179.5,-46.25"/>
<text xml:space="preserve" text-anchor="start" x="8" y="-32.75" font-family="Helvetica,sans-Serif" font-size="10.00">TArray&lt; InElementType,</text>
<text xml:space="preserve" text-anchor="start" x="8" y="-20" font-family="Helvetica,sans-Serif" font-size="10.00"> NavMeshMemory::FNavAllocator</text>
<text xml:space="preserve" text-anchor="middle" x="89.75" y="-7.25" font-family="Helvetica,sans-Serif" font-size="10.00"> &gt;::SetNum</text>
</a>
</g>
</g>
<!-- Node11&#45;&gt;Node12 -->
<g id="edge11_Node000011_Node000012" class="edge">
<title>Node11&#45;&gt;Node12</title>
<g id="a_edge11_Node000011_Node000012"><a xlink:title=" ">
<path fill="none" stroke="#63b8ff" d="M203.97,-23.12C195.95,-23.12 187.88,-23.12 179.95,-23.12"/>
<polygon fill="#63b8ff" stroke="#63b8ff" points="203.74,-26.63 213.74,-23.13 203.74,-19.63 203.74,-26.63"/>
</a>
</g>
</g>
</g>
</svg>
