<?xml version="1.0" encoding="UTF-8" standalone="no"?>
<!DOCTYPE svg PUBLIC "-//W3C//DTD SVG 1.1//EN"
 "http://www.w3.org/Graphics/SVG/1.1/DTD/svg11.dtd">
<!-- Generated by graphviz version 14.1.4 (0)
 -->
<!-- Title: MemoryTrace_MarkAllocAsHeap Pages: 1 -->
<svg width="408pt" height="118pt"
 viewBox="0.00 0.00 408.00 118.00" xmlns="http://www.w3.org/2000/svg" xmlns:xlink="http://www.w3.org/1999/xlink">
<g id="graph0" class="graph" transform="scale(1 1) rotate(0) translate(4 114.25)">
<title>MemoryTrace_MarkAllocAsHeap</title>
<!-- Node1 -->
<g id="Node000001" class="node">
<title>Node1</title>
<g id="a_Node000001"><a xlink:title=" ">
<polygon fill="#999999" stroke="#666666" points="400.25,-65.5 226,-65.5 226,-44.75 400.25,-44.75 400.25,-65.5"/>
<text xml:space="preserve" text-anchor="middle" x="313.12" y="-52" font-family="Helvetica,sans-Serif" font-size="10.00">MemoryTrace_MarkAllocAsHeap</text>
</a>
</g>
</g>
<!-- Node2 -->
<g id="Node000002" class="node">
<title>Node2</title>
<g id="a_Node000002"><a xlink:href="$classTLinearAllocatorBase.html#a767d29ee935622dc94e32f67807c0778" xlink:title=" ">
<polygon fill="white" stroke="#666666" points="190,-110.25 0,-110.25 0,-64 190,-64 190,-110.25"/>
<text xml:space="preserve" text-anchor="start" x="8" y="-96.75" font-family="Helvetica,sans-Serif" font-size="10.00">TLinearAllocatorBase</text>
<text xml:space="preserve" text-anchor="start" x="8" y="-84" font-family="Helvetica,sans-Serif" font-size="10.00">&lt; T, ELinearAllocatorThread</text>
<text xml:space="preserve" text-anchor="middle" x="95" y="-71.25" font-family="Helvetica,sans-Serif" font-size="10.00">Policy::ThreadSafe &gt;::AllocateBlock</text>
</a>
</g>
</g>
<!-- Node1&#45;&gt;Node2 -->
<g id="edge1_Node000001_Node000002" class="edge">
<title>Node1&#45;&gt;Node2</title>
<g id="a_edge1_Node000001_Node000002"><a xlink:title=" ">
<path fill="none" stroke="#63b8ff" d="M227.77,-67.61C215.44,-69.44 202.68,-71.33 190.17,-73.18"/>
<polygon fill="#63b8ff" stroke="#63b8ff" points="228.08,-71.11 237.46,-66.18 227.05,-64.18 228.08,-71.11"/>
</a>
</g>
</g>
<!-- Node3 -->
<g id="Node000003" class="node">
<title>Node3</title>
<g id="a_Node000003"><a xlink:href="$classTLinearAllocatorBase.html#a93183741befd52d0c62f574cab9f3382" xlink:title=" ">
<polygon fill="white" stroke="#666666" points="172.75,-46.25 17.25,-46.25 17.25,0 172.75,0 172.75,-46.25"/>
<text xml:space="preserve" text-anchor="start" x="25.25" y="-32.75" font-family="Helvetica,sans-Serif" font-size="10.00">TLinearAllocatorBase</text>
<text xml:space="preserve" text-anchor="start" x="25.25" y="-20" font-family="Helvetica,sans-Serif" font-size="10.00">&lt; T, ELinearAllocatorThread</text>
<text xml:space="preserve" text-anchor="middle" x="95" y="-7.25" font-family="Helvetica,sans-Serif" font-size="10.00">Policy::ThreadSafe &gt;::Malloc</text>
</a>
</g>
</g>
<!-- Node1&#45;&gt;Node3 -->
<g id="edge2_Node000001_Node000003" class="edge">
<title>Node1&#45;&gt;Node3</title>
<g id="a_edge2_Node000001_Node000003"><a xlink:title=" ">
<path fill="none" stroke="#63b8ff" d="M227.62,-42.61C209.67,-39.96 190.81,-37.16 173.16,-34.55"/>
<polygon fill="#63b8ff" stroke="#63b8ff" points="227.05,-46.07 237.46,-44.07 228.08,-39.14 227.05,-46.07"/>
</a>
</g>
</g>
</g>
</svg>
