<?xml version="1.0" encoding="UTF-8" standalone="no"?>
<!DOCTYPE svg PUBLIC "-//W3C//DTD SVG 1.1//EN"
 "http://www.w3.org/Graphics/SVG/1.1/DTD/svg11.dtd">
<!-- Generated by graphviz version 14.1.4 (0)
 -->
<!-- Title: CopyAssignItems Pages: 1 -->
<svg width="433pt" height="42pt"
 viewBox="0.00 0.00 433.00 42.00" xmlns="http://www.w3.org/2000/svg" xmlns:xlink="http://www.w3.org/1999/xlink">
<g id="graph0" class="graph" transform="scale(1 1) rotate(0) translate(4 37.5)">
<title>CopyAssignItems</title>
<!-- Node1 -->
<g id="Node000001" class="node">
<title>Node1</title>
<g id="a_Node000001"><a xlink:title=" ">
<polygon fill="#999999" stroke="#666666" points="100.75,-27.12 0,-27.12 0,-6.38 100.75,-6.38 100.75,-27.12"/>
<text xml:space="preserve" text-anchor="middle" x="50.38" y="-13.62" font-family="Helvetica,sans-Serif" font-size="10.00">CopyAssignItems</text>
</a>
</g>
</g>
<!-- Node2 -->
<g id="Node000002" class="node">
<title>Node2</title>
<g id="a_Node000002"><a xlink:href="$structFMemory.html#a6bfb397a8ea2e226f6fe27664c9880ca" xlink:title=" ">
<polygon fill="white" stroke="#666666" points="246.5,-27.12 136.75,-27.12 136.75,-6.38 246.5,-6.38 246.5,-27.12"/>
<text xml:space="preserve" text-anchor="middle" x="191.62" y="-13.62" font-family="Helvetica,sans-Serif" font-size="10.00">FMemory::Memcpy</text>
</a>
</g>
</g>
<!-- Node1&#45;&gt;Node2 -->
<g id="edge1_Node000001_Node000002" class="edge">
<title>Node1&#45;&gt;Node2</title>
<g id="a_edge1_Node000001_Node000002"><a xlink:title=" ">
<path fill="none" stroke="#63b8ff" d="M100.86,-16.75C108.73,-16.75 116.96,-16.75 125.13,-16.75"/>
<polygon fill="#63b8ff" stroke="#63b8ff" points="125.06,-20.25 135.06,-16.75 125.06,-13.25 125.06,-20.25"/>
</a>
</g>
</g>
<!-- Node3 -->
<g id="Node000003" class="node">
<title>Node3</title>
<g id="a_Node000003"><a xlink:href="$structFGenericPlatformMemory.html#a039ab8ec901d143a5bee24861dbc1a4b" xlink:title=" ">
<polygon fill="white" stroke="#666666" points="424.5,-33.5 282.5,-33.5 282.5,0 424.5,0 424.5,-33.5"/>
<text xml:space="preserve" text-anchor="start" x="290.5" y="-20" font-family="Helvetica,sans-Serif" font-size="10.00">FGenericPlatformMemory</text>
<text xml:space="preserve" text-anchor="middle" x="353.5" y="-7.25" font-family="Helvetica,sans-Serif" font-size="10.00">::Memcpy</text>
</a>
</g>
</g>
<!-- Node2&#45;&gt;Node3 -->
<g id="edge2_Node000002_Node000003" class="edge">
<title>Node2&#45;&gt;Node3</title>
<g id="a_edge2_Node000002_Node000003"><a xlink:title=" ">
<path fill="none" stroke="#63b8ff" d="M246.75,-16.75C254.51,-16.75 262.63,-16.75 270.78,-16.75"/>
<polygon fill="#63b8ff" stroke="#63b8ff" points="270.76,-20.25 280.76,-16.75 270.76,-13.25 270.76,-20.25"/>
</a>
</g>
</g>
</g>
</svg>
