<?xml version="1.0" encoding="UTF-8" standalone="no"?>
<!DOCTYPE svg PUBLIC "-//W3C//DTD SVG 1.1//EN"
 "http://www.w3.org/Graphics/SVG/1.1/DTD/svg11.dtd">
<!-- Generated by graphviz version 14.1.4 (0)
 -->
<!-- Title: /opt/unreal&#45;engine/Engine/Source/Runtime/Core/Public/GenericPlatform/MicrosoftPlatformString.h Pages: 1 -->
<svg width="1750pt" height="598pt"
 viewBox="0.00 0.00 1750.00 598.00" xmlns="http://www.w3.org/2000/svg" xmlns:xlink="http://www.w3.org/1999/xlink">
<g id="graph0" class="graph" transform="scale(1 1) rotate(0) translate(4 593.5)">
<title>/opt/unreal&#45;engine/Engine/Source/Runtime/Core/Public/GenericPlatform/MicrosoftPlatformString.h</title>
<!-- Node1 -->
<g id="Node000001" class="node">
<title>Node1</title>
<g id="a_Node000001"><a xlink:title=" ">
<polygon fill="#999999" stroke="#666666" points="1458.62,-589.5 1302.38,-589.5 1302.38,-530.5 1458.62,-530.5 1458.62,-589.5"/>
<text xml:space="preserve" text-anchor="start" x="1310.38" y="-576" font-family="Helvetica,sans-Serif" font-size="10.00">/opt/unreal&#45;engine</text>
<text xml:space="preserve" text-anchor="start" x="1310.38" y="-563.25" font-family="Helvetica,sans-Serif" font-size="10.00">/Engine/Source/Runtime</text>
<text xml:space="preserve" text-anchor="start" x="1310.38" y="-550.5" font-family="Helvetica,sans-Serif" font-size="10.00">/Core/Public/GenericPlatform</text>
<text xml:space="preserve" text-anchor="middle" x="1380.5" y="-537.75" font-family="Helvetica,sans-Serif" font-size="10.00">/MicrosoftPlatformString.h</text>
</a>
</g>
</g>
<!-- Node2 -->
<g id="Node000002" class="node">
<title>Node2</title>
<g id="a_Node000002"><a xlink:href="$Char_8h.html" xlink:title=" ">
<polygon fill="white" stroke="#666666" points="972,-286 899,-286 899,-265.25 972,-265.25 972,-286"/>
<text xml:space="preserve" text-anchor="middle" x="935.5" y="-272.5" font-family="Helvetica,sans-Serif" font-size="10.00">Misc/Char.h</text>
</a>
</g>
</g>
<!-- Node1&#45;&gt;Node2 -->
<g id="edge1_Node000001_Node000002" class="edge">
<title>Node1&#45;&gt;Node2</title>
<g id="a_edge1_Node000001_Node000002"><a xlink:title=" ">
<path fill="none" stroke="#63b8ff" d="M1302.1,-547.68C1185.78,-528.96 977,-487.34 938.5,-425 913.99,-385.31 922.65,-327.54 929.82,-297.12"/>
<polygon fill="#63b8ff" stroke="#63b8ff" points="933.14,-298.25 932.23,-287.69 926.36,-296.51 933.14,-298.25"/>
</a>
</g>
</g>
<!-- Node20 -->
<g id="Node000020" class="node">
<title>Node20</title>
<g id="a_Node000020"><a xlink:href="$GenericPlatformString_8h.html" xlink:title=" ">
<polygon fill="white" stroke="#666666" points="1299.5,-494.5 1121.5,-494.5 1121.5,-461 1299.5,-461 1299.5,-494.5"/>
<text xml:space="preserve" text-anchor="start" x="1129.5" y="-481" font-family="Helvetica,sans-Serif" font-size="10.00">GenericPlatform/GenericPlatform</text>
<text xml:space="preserve" text-anchor="middle" x="1210.5" y="-468.25" font-family="Helvetica,sans-Serif" font-size="10.00">String.h</text>
</a>
</g>
</g>
<!-- Node1&#45;&gt;Node20 -->
<g id="edge23_Node000001_Node000020" class="edge">
<title>Node1&#45;&gt;Node20</title>
<g id="a_edge23_Node000001_Node000020"><a xlink:title=" ">
<path fill="none" stroke="#63b8ff" d="M1319.13,-530.03C1297.84,-519.98 1274.41,-508.92 1254.78,-499.65"/>
<polygon fill="#63b8ff" stroke="#63b8ff" points="1256.5,-496.6 1245.96,-495.49 1253.51,-502.93 1256.5,-496.6"/>
</a>
</g>
</g>
<!-- Node21 -->
<g id="Node000021" class="node">
<title>Node21</title>
<g id="a_Node000021"><a xlink:href="$GenericPlatformStricmp_8h.html" xlink:title=" ">
<polygon fill="white" stroke="#666666" points="1125.5,-425 947.5,-425 947.5,-391.5 1125.5,-391.5 1125.5,-425"/>
<text xml:space="preserve" text-anchor="start" x="955.5" y="-411.5" font-family="Helvetica,sans-Serif" font-size="10.00">GenericPlatform/GenericPlatform</text>
<text xml:space="preserve" text-anchor="middle" x="1036.5" y="-398.75" font-family="Helvetica,sans-Serif" font-size="10.00">Stricmp.h</text>
</a>
</g>
</g>
<!-- Node1&#45;&gt;Node21 -->
<g id="edge43_Node000001_Node000021" class="edge">
<title>Node1&#45;&gt;Node21</title>
<g id="a_edge43_Node000001_Node000021"><a xlink:title=" ">
<path fill="none" stroke="#63b8ff" d="M1301.89,-552.63C1245.82,-545.21 1170.4,-529.16 1112.5,-494.5 1087.73,-479.67 1066.55,-454.13 1052.89,-434.86"/>
<polygon fill="#63b8ff" stroke="#63b8ff" points="1055.84,-432.97 1047.3,-426.69 1050.06,-436.92 1055.84,-432.97"/>
</a>
</g>
</g>
<!-- Node27 -->
<g id="Node000027" class="node">
<title>Node27</title>
<g id="a_Node000027"><a xlink:title=" ">
<polygon fill="#e0e0e0" stroke="#999999" points="1373.38,-488.12 1317.62,-488.12 1317.62,-467.38 1373.38,-467.38 1373.38,-488.12"/>
<text xml:space="preserve" text-anchor="middle" x="1345.5" y="-474.62" font-family="Helvetica,sans-Serif" font-size="10.00">stdarg.h</text>
</a>
</g>
</g>
<!-- Node1&#45;&gt;Node27 -->
<g id="edge44_Node000001_Node000027" class="edge">
<title>Node1&#45;&gt;Node27</title>
<g id="a_edge44_Node000001_Node000027"><a xlink:title=" ">
<path fill="none" stroke="#63b8ff" d="M1367.86,-530.03C1363.35,-519.69 1358.38,-508.27 1354.26,-498.84"/>
<polygon fill="#63b8ff" stroke="#63b8ff" points="1357.58,-497.68 1350.37,-489.92 1351.16,-500.48 1357.58,-497.68"/>
</a>
</g>
</g>
<!-- Node28 -->
<g id="Node000028" class="node">
<title>Node28</title>
<g id="a_Node000028"><a xlink:title=" ">
<polygon fill="#e0e0e0" stroke="#999999" points="1440,-488.12 1391,-488.12 1391,-467.38 1440,-467.38 1440,-488.12"/>
<text xml:space="preserve" text-anchor="middle" x="1415.5" y="-474.62" font-family="Helvetica,sans-Serif" font-size="10.00">stdio.h</text>
</a>
</g>
</g>
<!-- Node1&#45;&gt;Node28 -->
<g id="edge45_Node000001_Node000028" class="edge">
<title>Node1&#45;&gt;Node28</title>
<g id="a_edge45_Node000001_Node000028"><a xlink:title=" ">
<path fill="none" stroke="#63b8ff" d="M1393.14,-530.03C1397.65,-519.69 1402.62,-508.27 1406.74,-498.84"/>
<polygon fill="#63b8ff" stroke="#63b8ff" points="1409.84,-500.48 1410.63,-489.92 1403.42,-497.68 1409.84,-500.48"/>
</a>
</g>
</g>
<!-- Node29 -->
<g id="Node000029" class="node">
<title>Node29</title>
<g id="a_Node000029"><a xlink:title=" ">
<polygon fill="#e0e0e0" stroke="#999999" points="1510.5,-488.12 1458.5,-488.12 1458.5,-467.38 1510.5,-467.38 1510.5,-488.12"/>
<text xml:space="preserve" text-anchor="middle" x="1484.5" y="-474.62" font-family="Helvetica,sans-Serif" font-size="10.00">stdlib.h</text>
</a>
</g>
</g>
<!-- Node1&#45;&gt;Node29 -->
<g id="edge46_Node000001_Node000029" class="edge">
<title>Node1&#45;&gt;Node29</title>
<g id="a_edge46_Node000001_Node000029"><a xlink:title=" ">
<path fill="none" stroke="#63b8ff" d="M1418.05,-530.03C1433.07,-518.44 1449.84,-505.5 1462.77,-495.51"/>
<polygon fill="#63b8ff" stroke="#63b8ff" points="1464.85,-498.33 1470.63,-489.45 1460.57,-492.79 1464.85,-498.33"/>
</a>
</g>
</g>
<!-- Node30 -->
<g id="Node000030" class="node">
<title>Node30</title>
<g id="a_Node000030"><a xlink:title=" ">
<polygon fill="#e0e0e0" stroke="#999999" points="1580.88,-488.12 1528.12,-488.12 1528.12,-467.38 1580.88,-467.38 1580.88,-488.12"/>
<text xml:space="preserve" text-anchor="middle" x="1554.5" y="-474.62" font-family="Helvetica,sans-Serif" font-size="10.00">string.h</text>
</a>
</g>
</g>
<!-- Node1&#45;&gt;Node30 -->
<g id="edge47_Node000001_Node000030" class="edge">
<title>Node1&#45;&gt;Node30</title>
<g id="a_edge47_Node000001_Node000030"><a xlink:title=" ">
<path fill="none" stroke="#63b8ff" d="M1443.32,-530.03C1470.42,-517.53 1500.93,-503.46 1523.12,-493.22"/>
<polygon fill="#63b8ff" stroke="#63b8ff" points="1524.31,-496.53 1531.92,-489.16 1521.37,-490.17 1524.31,-496.53"/>
</a>
</g>
</g>
<!-- Node31 -->
<g id="Node000031" class="node">
<title>Node31</title>
<g id="a_Node000031"><a xlink:title=" ">
<polygon fill="#e0e0e0" stroke="#999999" points="1648.38,-488.12 1598.62,-488.12 1598.62,-467.38 1648.38,-467.38 1648.38,-488.12"/>
<text xml:space="preserve" text-anchor="middle" x="1623.5" y="-474.62" font-family="Helvetica,sans-Serif" font-size="10.00">tchar.h</text>
</a>
</g>
</g>
<!-- Node1&#45;&gt;Node31 -->
<g id="edge48_Node000001_Node000031" class="edge">
<title>Node1&#45;&gt;Node31</title>
<g id="a_edge48_Node000001_Node000031"><a xlink:title=" ">
<path fill="none" stroke="#63b8ff" d="M1458.77,-537.56C1498.38,-526.03 1546.96,-510.83 1589.5,-494.5 1590.65,-494.06 1591.82,-493.59 1593,-493.11"/>
<polygon fill="#63b8ff" stroke="#63b8ff" points="1594.39,-496.33 1602.17,-489.13 1591.6,-489.91 1594.39,-496.33"/>
</a>
</g>
</g>
<!-- Node3 -->
<g id="Node000003" class="node">
<title>Node3</title>
<g id="a_Node000003"><a xlink:href="$CoreTypes_8h.html" xlink:title=" ">
<polygon fill="white" stroke="#666666" points="1189.12,-229.25 1113.88,-229.25 1113.88,-208.5 1189.12,-208.5 1189.12,-229.25"/>
<text xml:space="preserve" text-anchor="middle" x="1151.5" y="-215.75" font-family="Helvetica,sans-Serif" font-size="10.00">CoreTypes.h</text>
</a>
</g>
</g>
<!-- Node2&#45;&gt;Node3 -->
<g id="edge2_Node000002_Node000003" class="edge">
<title>Node2&#45;&gt;Node3</title>
<g id="a_edge2_Node000002_Node000003"><a xlink:title=" ">
<path fill="none" stroke="#63b8ff" d="M972.14,-265.34C1008.04,-256.24 1062.98,-242.31 1102.59,-232.27"/>
<polygon fill="#63b8ff" stroke="#63b8ff" points="1103.29,-235.71 1112.12,-229.86 1101.57,-228.92 1103.29,-235.71"/>
</a>
</g>
</g>
<!-- Node7 -->
<g id="Node000007" class="node">
<title>Node7</title>
<g id="a_Node000007"><a xlink:title=" ">
<polygon fill="#e0e0e0" stroke="#999999" points="1541.75,-33.5 1473.25,-33.5 1473.25,-12.75 1541.75,-12.75 1541.75,-33.5"/>
<text xml:space="preserve" text-anchor="middle" x="1507.5" y="-20" font-family="Helvetica,sans-Serif" font-size="10.00">type_traits</text>
</a>
</g>
</g>
<!-- Node2&#45;&gt;Node7 -->
<g id="edge22_Node000002_Node000007" class="edge">
<title>Node2&#45;&gt;Node7</title>
<g id="a_edge22_Node000002_Node000007"><a xlink:title=" ">
<path fill="none" stroke="#63b8ff" d="M949.46,-264.75C962.13,-255.71 981.27,-241.84 997.5,-229.25 1028.87,-204.9 1036.27,-198.24 1066.5,-172.5 1083.64,-157.9 1084.61,-149.54 1104.5,-139 1250.49,-61.63 1310.08,-105.02 1464.5,-46.25 1469.81,-44.23 1475.32,-41.73 1480.55,-39.15"/>
<polygon fill="#63b8ff" stroke="#63b8ff" points="1482.14,-42.27 1489.4,-34.55 1478.91,-36.05 1482.14,-42.27"/>
</a>
</g>
</g>
<!-- Node17 -->
<g id="Node000017" class="node">
<title>Node17</title>
<g id="a_Node000017"><a xlink:href="$IntType_8h.html" xlink:title=" ">
<polygon fill="white" stroke="#666666" points="867.62,-166.12 777.38,-166.12 777.38,-145.38 867.62,-145.38 867.62,-166.12"/>
<text xml:space="preserve" text-anchor="middle" x="822.5" y="-152.62" font-family="Helvetica,sans-Serif" font-size="10.00">Traits/IntType.h</text>
</a>
</g>
</g>
<!-- Node2&#45;&gt;Node17 -->
<g id="edge18_Node000002_Node000017" class="edge">
<title>Node2&#45;&gt;Node17</title>
<g id="a_edge18_Node000002_Node000017"><a xlink:title=" ">
<path fill="none" stroke="#63b8ff" d="M930.07,-264.97C922.19,-251.46 906.66,-226.54 889.5,-208.5 876.7,-195.05 860.22,-182.27 846.8,-172.78"/>
<polygon fill="#63b8ff" stroke="#63b8ff" points="849.14,-170.14 838.92,-167.34 845.17,-175.9 849.14,-170.14"/>
</a>
</g>
</g>
<!-- Node18 -->
<g id="Node000018" class="node">
<title>Node18</title>
<g id="a_Node000018"><a xlink:title=" ">
<polygon fill="#e0e0e0" stroke="#999999" points="988.5,-229.25 936.5,-229.25 936.5,-208.5 988.5,-208.5 988.5,-229.25"/>
<text xml:space="preserve" text-anchor="middle" x="962.5" y="-215.75" font-family="Helvetica,sans-Serif" font-size="10.00">ctype.h</text>
</a>
</g>
</g>
<!-- Node2&#45;&gt;Node18 -->
<g id="edge20_Node000002_Node000018" class="edge">
<title>Node2&#45;&gt;Node18</title>
<g id="a_edge20_Node000002_Node000018"><a xlink:title=" ">
<path fill="none" stroke="#63b8ff" d="M940.33,-264.84C943.74,-257.91 948.45,-248.37 952.64,-239.86"/>
<polygon fill="#63b8ff" stroke="#63b8ff" points="955.76,-241.45 957.05,-230.94 949.48,-238.36 955.76,-241.45"/>
</a>
</g>
</g>
<!-- Node19 -->
<g id="Node000019" class="node">
<title>Node19</title>
<g id="a_Node000019"><a xlink:title=" ">
<polygon fill="#e0e0e0" stroke="#999999" points="880.62,-229.25 820.38,-229.25 820.38,-208.5 880.62,-208.5 880.62,-229.25"/>
<text xml:space="preserve" text-anchor="middle" x="850.5" y="-215.75" font-family="Helvetica,sans-Serif" font-size="10.00">wctype.h</text>
</a>
</g>
</g>
<!-- Node2&#45;&gt;Node19 -->
<g id="edge21_Node000002_Node000019" class="edge">
<title>Node2&#45;&gt;Node19</title>
<g id="a_edge21_Node000002_Node000019"><a xlink:title=" ">
<path fill="none" stroke="#63b8ff" d="M920.3,-264.84C907.73,-256.74 889.64,-245.08 875.02,-235.67"/>
<polygon fill="#63b8ff" stroke="#63b8ff" points="877.14,-232.87 866.84,-230.4 873.35,-238.76 877.14,-232.87"/>
</a>
</g>
</g>
<!-- Node4 -->
<g id="Node000004" class="node">
<title>Node4</title>
<g id="a_Node000004"><a xlink:href="$Platform_8h.html" xlink:title=" ">
<polygon fill="white" stroke="#666666" points="903.25,-103 813.75,-103 813.75,-82.25 903.25,-82.25 903.25,-103"/>
<text xml:space="preserve" text-anchor="middle" x="858.5" y="-89.5" font-family="Helvetica,sans-Serif" font-size="10.00">HAL/Platform.h</text>
</a>
</g>
</g>
<!-- Node3&#45;&gt;Node4 -->
<g id="edge3_Node000003_Node000004" class="edge">
<title>Node3&#45;&gt;Node4</title>
<g id="a_edge3_Node000003_Node000004"><a xlink:title=" ">
<path fill="none" stroke="#63b8ff" d="M1113.68,-214.02C1055.63,-207.55 947.87,-193.13 915.5,-172.5 893.2,-158.29 876.86,-131.97 867.53,-113.66"/>
<polygon fill="#63b8ff" stroke="#63b8ff" points="870.78,-112.34 863.29,-104.84 864.47,-115.37 870.78,-112.34"/>
</a>
</g>
</g>
<!-- Node14 -->
<g id="Node000014" class="node">
<title>Node14</title>
<g id="a_Node000014"><a xlink:href="$UMemoryDefines_8h.html" xlink:title=" ">
<polygon fill="white" stroke="#666666" points="1355.25,-172.5 1241.75,-172.5 1241.75,-139 1355.25,-139 1355.25,-172.5"/>
<text xml:space="preserve" text-anchor="start" x="1249.75" y="-159" font-family="Helvetica,sans-Serif" font-size="10.00">ProfilingDebugging</text>
<text xml:space="preserve" text-anchor="middle" x="1298.5" y="-146.25" font-family="Helvetica,sans-Serif" font-size="10.00">/UMemoryDefines.h</text>
</a>
</g>
</g>
<!-- Node3&#45;&gt;Node14 -->
<g id="edge13_Node000003_Node000014" class="edge">
<title>Node3&#45;&gt;Node14</title>
<g id="a_edge13_Node000003_Node000014"><a xlink:title=" ">
<path fill="none" stroke="#63b8ff" d="M1175.12,-208.05C1195,-199.79 1224.11,-187.68 1249.06,-177.31"/>
<polygon fill="#63b8ff" stroke="#63b8ff" points="1250.17,-180.64 1258.06,-173.57 1247.48,-174.17 1250.17,-180.64"/>
</a>
</g>
</g>
<!-- Node15 -->
<g id="Node000015" class="node">
<title>Node15</title>
<g id="a_Node000015"><a xlink:href="$CoreMiscDefines_8h.html" xlink:title=" ">
<polygon fill="white" stroke="#666666" points="1057,-166.12 924,-166.12 924,-145.38 1057,-145.38 1057,-166.12"/>
<text xml:space="preserve" text-anchor="middle" x="990.5" y="-152.62" font-family="Helvetica,sans-Serif" font-size="10.00">Misc/CoreMiscDefines.h</text>
</a>
</g>
</g>
<!-- Node3&#45;&gt;Node15 -->
<g id="edge14_Node000003_Node000015" class="edge">
<title>Node3&#45;&gt;Node15</title>
<g id="a_edge14_Node000003_Node000015"><a xlink:title=" ">
<path fill="none" stroke="#63b8ff" d="M1125.63,-208.05C1098.87,-197.9 1056.87,-181.95 1026.79,-170.53"/>
<polygon fill="#63b8ff" stroke="#63b8ff" points="1028.31,-167.36 1017.72,-167.08 1025.82,-173.91 1028.31,-167.36"/>
</a>
</g>
</g>
<!-- Node16 -->
<g id="Node000016" class="node">
<title>Node16</title>
<g id="a_Node000016"><a xlink:href="$CoreDefines_8h.html" xlink:title=" ">
<polygon fill="white" stroke="#666666" points="1223.75,-166.12 1113.25,-166.12 1113.25,-145.38 1223.75,-145.38 1223.75,-166.12"/>
<text xml:space="preserve" text-anchor="middle" x="1168.5" y="-152.62" font-family="Helvetica,sans-Serif" font-size="10.00">Misc/CoreDefines.h</text>
</a>
</g>
</g>
<!-- Node3&#45;&gt;Node16 -->
<g id="edge17_Node000003_Node000016" class="edge">
<title>Node3&#45;&gt;Node16</title>
<g id="a_edge17_Node000003_Node000016"><a xlink:title=" ">
<path fill="none" stroke="#63b8ff" d="M1154.23,-208.05C1156.52,-199.81 1159.88,-187.75 1162.76,-177.39"/>
<polygon fill="#63b8ff" stroke="#63b8ff" points="1166.12,-178.38 1165.43,-167.8 1159.37,-176.5 1166.12,-178.38"/>
</a>
</g>
</g>
<!-- Node5 -->
<g id="Node000005" class="node">
<title>Node5</title>
<g id="a_Node000005"><a xlink:href="$Build_8h.html" xlink:title=" ">
<polygon fill="white" stroke="#666666" points="718.12,-33.5 642.88,-33.5 642.88,-12.75 718.12,-12.75 718.12,-33.5"/>
<text xml:space="preserve" text-anchor="middle" x="680.5" y="-20" font-family="Helvetica,sans-Serif" font-size="10.00">Misc/Build.h</text>
</a>
</g>
</g>
<!-- Node4&#45;&gt;Node5 -->
<g id="edge4_Node000004_Node000005" class="edge">
<title>Node4&#45;&gt;Node5</title>
<g id="a_edge4_Node000004_Node000005"><a xlink:title=" ">
<path fill="none" stroke="#63b8ff" d="M827.19,-81.82C800.43,-73.19 761.05,-59.91 727.5,-46.25 721.9,-43.97 716.01,-41.37 710.37,-38.77"/>
<polygon fill="#63b8ff" stroke="#63b8ff" points="711.87,-35.6 701.33,-34.5 708.88,-41.93 711.87,-35.6"/>
</a>
</g>
</g>
<!-- Node6 -->
<g id="Node000006" class="node">
<title>Node6</title>
<g id="a_Node000006"><a xlink:href="$LargeWorldCoordinates_8h.html" xlink:title=" ">
<polygon fill="white" stroke="#666666" points="900.75,-33.5 736.25,-33.5 736.25,-12.75 900.75,-12.75 900.75,-33.5"/>
<text xml:space="preserve" text-anchor="middle" x="818.5" y="-20" font-family="Helvetica,sans-Serif" font-size="10.00">Misc/LargeWorldCoordinates.h</text>
</a>
</g>
</g>
<!-- Node4&#45;&gt;Node6 -->
<g id="edge5_Node000004_Node000006" class="edge">
<title>Node4&#45;&gt;Node6</title>
<g id="a_edge5_Node000004_Node000006"><a xlink:title=" ">
<path fill="none" stroke="#63b8ff" d="M852.77,-81.95C846.83,-71.93 837.38,-55.99 829.91,-43.38"/>
<polygon fill="#63b8ff" stroke="#63b8ff" points="833.1,-41.9 824.99,-35.08 827.08,-45.47 833.1,-41.9"/>
</a>
</g>
</g>
<!-- Node4&#45;&gt;Node7 -->
<g id="edge6_Node000004_Node000007" class="edge">
<title>Node4&#45;&gt;Node7</title>
<g id="a_edge6_Node000004_Node000007"><a xlink:title=" ">
<path fill="none" stroke="#63b8ff" d="M903.59,-89.29C1034.88,-82.34 1411,-61.34 1464.5,-46.25 1470.41,-44.58 1476.45,-42.06 1482.07,-39.31"/>
<polygon fill="#63b8ff" stroke="#63b8ff" points="1483.69,-42.42 1490.86,-34.62 1480.39,-36.24 1483.69,-42.42"/>
</a>
</g>
</g>
<!-- Node8 -->
<g id="Node000008" class="node">
<title>Node8</title>
<g id="a_Node000008"><a xlink:href="$PreprocessorHelpers_8h.html" xlink:title=" ">
<polygon fill="white" stroke="#666666" points="1455.25,-33.5 1329.75,-33.5 1329.75,-12.75 1455.25,-12.75 1455.25,-33.5"/>
<text xml:space="preserve" text-anchor="middle" x="1392.5" y="-20" font-family="Helvetica,sans-Serif" font-size="10.00">PreprocessorHelpers.h</text>
</a>
</g>
</g>
<!-- Node4&#45;&gt;Node8 -->
<g id="edge7_Node000004_Node000008" class="edge">
<title>Node4&#45;&gt;Node8</title>
<g id="a_edge7_Node000004_Node000008"><a xlink:title=" ">
<path fill="none" stroke="#63b8ff" d="M903.43,-88.37C1003.35,-80.93 1241.38,-62.12 1320.5,-46.25 1331.63,-44.02 1343.5,-40.75 1354.32,-37.41"/>
<polygon fill="#63b8ff" stroke="#63b8ff" points="1355.24,-40.79 1363.7,-34.41 1353.11,-34.13 1355.24,-40.79"/>
</a>
</g>
</g>
<!-- Node9 -->
<g id="Node000009" class="node">
<title>Node9</title>
<g id="a_Node000009"><a xlink:title=" ">
<polygon fill="#e0e0e0" stroke="#999999" points="1115.88,-46.25 919.12,-46.25 919.12,0 1115.88,0 1115.88,-46.25"/>
<text xml:space="preserve" text-anchor="start" x="927.12" y="-32.75" font-family="Helvetica,sans-Serif" font-size="10.00">UBT_COMPILED_PLATFORM</text>
<text xml:space="preserve" text-anchor="start" x="927.12" y="-20" font-family="Helvetica,sans-Serif" font-size="10.00">/UBT_COMPILED_PLATFORMPlatform</text>
<text xml:space="preserve" text-anchor="middle" x="1017.5" y="-7.25" font-family="Helvetica,sans-Serif" font-size="10.00">CompilerPreSetup.h</text>
</a>
</g>
</g>
<!-- Node4&#45;&gt;Node9 -->
<g id="edge8_Node000004_Node000009" class="edge">
<title>Node4&#45;&gt;Node9</title>
<g id="a_edge8_Node000004_Node000009"><a xlink:title=" ">
<path fill="none" stroke="#63b8ff" d="M881.62,-81.81C900.62,-73.74 928.47,-61.92 954.02,-51.07"/>
<polygon fill="#63b8ff" stroke="#63b8ff" points="955.19,-54.38 963.03,-47.25 952.46,-47.94 955.19,-54.38"/>
</a>
</g>
</g>
<!-- Node10 -->
<g id="Node000010" class="node">
<title>Node10</title>
<g id="a_Node000010"><a xlink:href="$GenericPlatformCompilerPreSetup_8h.html" xlink:title=" ">
<polygon fill="white" stroke="#666666" points="1311.5,-39.88 1133.5,-39.88 1133.5,-6.38 1311.5,-6.38 1311.5,-39.88"/>
<text xml:space="preserve" text-anchor="start" x="1141.5" y="-26.38" font-family="Helvetica,sans-Serif" font-size="10.00">GenericPlatform/GenericPlatform</text>
<text xml:space="preserve" text-anchor="middle" x="1222.5" y="-13.62" font-family="Helvetica,sans-Serif" font-size="10.00">CompilerPreSetup.h</text>
</a>
</g>
</g>
<!-- Node4&#45;&gt;Node10 -->
<g id="edge9_Node000004_Node000010" class="edge">
<title>Node4&#45;&gt;Node10</title>
<g id="a_edge9_Node000004_Node000010"><a xlink:title=" ">
<path fill="none" stroke="#63b8ff" d="M903.34,-84.72C956.33,-76.39 1047.07,-61.58 1124.5,-46.25 1130.08,-45.15 1135.82,-43.96 1141.61,-42.74"/>
<polygon fill="#63b8ff" stroke="#63b8ff" points="1142.21,-46.19 1151.25,-40.67 1140.74,-39.35 1142.21,-46.19"/>
</a>
</g>
</g>
<!-- Node11 -->
<g id="Node000011" class="node">
<title>Node11</title>
<g id="a_Node000011"><a xlink:href="$GenericPlatform_8h.html" xlink:title=" ">
<polygon fill="white" stroke="#666666" points="187,-33.5 0,-33.5 0,-12.75 187,-12.75 187,-33.5"/>
<text xml:space="preserve" text-anchor="middle" x="93.5" y="-20" font-family="Helvetica,sans-Serif" font-size="10.00">GenericPlatform/GenericPlatform.h</text>
</a>
</g>
</g>
<!-- Node4&#45;&gt;Node11 -->
<g id="edge10_Node000004_Node000011" class="edge">
<title>Node4&#45;&gt;Node11</title>
<g id="a_edge10_Node000004_Node000011"><a xlink:title=" ">
<path fill="none" stroke="#63b8ff" d="M813.64,-90.8C706.33,-88.34 426.53,-79.03 195.5,-46.25 178.45,-43.83 159.99,-40.16 143.53,-36.49"/>
<polygon fill="#63b8ff" stroke="#63b8ff" points="144.5,-33.12 133.97,-34.31 142.94,-39.95 144.5,-33.12"/>
</a>
</g>
</g>
<!-- Node12 -->
<g id="Node000012" class="node">
<title>Node12</title>
<g id="a_Node000012"><a xlink:title=" ">
<polygon fill="#e0e0e0" stroke="#999999" points="410.38,-39.88 204.62,-39.88 204.62,-6.38 410.38,-6.38 410.38,-39.88"/>
<text xml:space="preserve" text-anchor="start" x="212.62" y="-26.38" font-family="Helvetica,sans-Serif" font-size="10.00">UBT_COMPILED_PLATFORM</text>
<text xml:space="preserve" text-anchor="middle" x="307.5" y="-13.62" font-family="Helvetica,sans-Serif" font-size="10.00">/UBT_COMPILED_PLATFORMPlatform.h</text>
</a>
</g>
</g>
<!-- Node4&#45;&gt;Node12 -->
<g id="edge11_Node000004_Node000012" class="edge">
<title>Node4&#45;&gt;Node12</title>
<g id="a_edge11_Node000004_Node000012"><a xlink:title=" ">
<path fill="none" stroke="#63b8ff" d="M813.46,-88.35C733.74,-82.24 562.71,-67.75 419.5,-46.25 411.84,-45.1 403.91,-43.79 395.97,-42.38"/>
<polygon fill="#63b8ff" stroke="#63b8ff" points="396.71,-38.96 386.25,-40.62 395.46,-45.85 396.71,-38.96"/>
</a>
</g>
</g>
<!-- Node13 -->
<g id="Node000013" class="node">
<title>Node13</title>
<g id="a_Node000013"><a xlink:title=" ">
<polygon fill="#e0e0e0" stroke="#999999" points="624.88,-46.25 428.12,-46.25 428.12,0 624.88,0 624.88,-46.25"/>
<text xml:space="preserve" text-anchor="start" x="436.12" y="-32.75" font-family="Helvetica,sans-Serif" font-size="10.00">UBT_COMPILED_PLATFORM</text>
<text xml:space="preserve" text-anchor="start" x="436.12" y="-20" font-family="Helvetica,sans-Serif" font-size="10.00">/UBT_COMPILED_PLATFORMPlatform</text>
<text xml:space="preserve" text-anchor="middle" x="526.5" y="-7.25" font-family="Helvetica,sans-Serif" font-size="10.00">CompilerSetup.h</text>
</a>
</g>
</g>
<!-- Node4&#45;&gt;Node13 -->
<g id="edge12_Node000004_Node000013" class="edge">
<title>Node4&#45;&gt;Node13</title>
<g id="a_edge12_Node000004_Node000013"><a xlink:title=" ">
<path fill="none" stroke="#63b8ff" d="M813.66,-82.65C770.64,-74.02 703.52,-60.53 636.5,-46.86"/>
<polygon fill="#63b8ff" stroke="#63b8ff" points="637.3,-43.45 626.8,-44.88 635.9,-50.31 637.3,-43.45"/>
</a>
</g>
</g>
<!-- Node15&#45;&gt;Node4 -->
<g id="edge15_Node000015_Node000004" class="edge">
<title>Node15&#45;&gt;Node4</title>
<g id="a_edge15_Node000015_Node000004"><a xlink:title=" ">
<path fill="none" stroke="#63b8ff" d="M969.29,-144.93C947.83,-134.99 914.42,-119.52 889.89,-108.16"/>
<polygon fill="#63b8ff" stroke="#63b8ff" points="891.57,-105.08 881.03,-104.06 888.63,-111.44 891.57,-105.08"/>
</a>
</g>
</g>
<!-- Node15&#45;&gt;Node8 -->
<g id="edge16_Node000015_Node000008" class="edge">
<title>Node15&#45;&gt;Node8</title>
<g id="a_edge16_Node000015_Node000008"><a xlink:title=" ">
<path fill="none" stroke="#63b8ff" d="M998.01,-145.04C1011.04,-128.98 1039.52,-97.18 1071.5,-82.25 1172.82,-34.94 1211.4,-70.75 1320.5,-46.25 1331.18,-43.85 1342.58,-40.66 1353.08,-37.44"/>
<polygon fill="#63b8ff" stroke="#63b8ff" points="1354.12,-40.78 1362.6,-34.44 1352.01,-34.11 1354.12,-40.78"/>
</a>
</g>
</g>
<!-- Node17&#45;&gt;Node4 -->
<g id="edge19_Node000017_Node000004" class="edge">
<title>Node17&#45;&gt;Node4</title>
<g id="a_edge19_Node000017_Node000004"><a xlink:title=" ">
<path fill="none" stroke="#63b8ff" d="M828.28,-144.93C833.35,-136.32 840.87,-123.56 847.13,-112.92"/>
<polygon fill="#63b8ff" stroke="#63b8ff" points="850.02,-114.92 852.08,-104.52 843.99,-111.36 850.02,-114.92"/>
</a>
</g>
</g>
<!-- Node20&#45;&gt;Node3 -->
<g id="edge24_Node000020_Node000003" class="edge">
<title>Node20&#45;&gt;Node3</title>
<g id="a_edge24_Node000020_Node000003"><a xlink:title=" ">
<path fill="none" stroke="#63b8ff" d="M1206.81,-460.68C1196.55,-416.03 1167.71,-290.46 1156.27,-240.63"/>
<polygon fill="#63b8ff" stroke="#63b8ff" points="1159.74,-240.13 1154.09,-231.16 1152.92,-241.69 1159.74,-240.13"/>
</a>
</g>
</g>
<!-- Node20&#45;&gt;Node7 -->
<g id="edge42_Node000020_Node000007" class="edge">
<title>Node20&#45;&gt;Node7</title>
<g id="a_edge42_Node000020_Node000007"><a xlink:title=" ">
<path fill="none" stroke="#63b8ff" d="M1299.94,-462.26C1302.83,-461.83 1305.69,-461.41 1308.5,-461 1407.39,-446.68 1741.5,-439.67 1741.5,-339.75 1741.5,-339.75 1741.5,-339.75 1741.5,-154.75 1741.5,-69.43 1621.41,-39.31 1553.29,-29.1"/>
<polygon fill="#63b8ff" stroke="#63b8ff" points="1553.92,-25.65 1543.53,-27.73 1552.94,-32.58 1553.92,-25.65"/>
</a>
</g>
</g>
<!-- Node20&#45;&gt;Node21 -->
<g id="edge25_Node000020_Node000021" class="edge">
<title>Node20&#45;&gt;Node21</title>
<g id="a_edge25_Node000020_Node000021"><a xlink:title=" ">
<path fill="none" stroke="#63b8ff" d="M1168.82,-460.58C1144.81,-451.27 1114.4,-439.47 1088.79,-429.53"/>
<polygon fill="#63b8ff" stroke="#63b8ff" points="1090.14,-426.3 1079.55,-425.95 1087.61,-432.83 1090.14,-426.3"/>
</a>
</g>
</g>
<!-- Node22 -->
<g id="Node000022" class="node">
<title>Node22</title>
<g id="a_Node000022"><a xlink:href="$EnableIf_8h.html" xlink:title=" ">
<polygon fill="white" stroke="#666666" points="1163.12,-349.12 1045.88,-349.12 1045.88,-328.38 1163.12,-328.38 1163.12,-349.12"/>
<text xml:space="preserve" text-anchor="middle" x="1104.5" y="-335.62" font-family="Helvetica,sans-Serif" font-size="10.00">Templates/EnableIf.h</text>
</a>
</g>
</g>
<!-- Node20&#45;&gt;Node22 -->
<g id="edge27_Node000020_Node000022" class="edge">
<title>Node20&#45;&gt;Node22</title>
<g id="a_edge27_Node000020_Node000022"><a xlink:title=" ">
<path fill="none" stroke="#63b8ff" d="M1198.13,-460.77C1178.39,-435.24 1139.83,-385.41 1118.88,-358.34"/>
<polygon fill="#63b8ff" stroke="#63b8ff" points="1121.84,-356.44 1112.95,-350.68 1116.3,-360.73 1121.84,-356.44"/>
</a>
</g>
</g>
<!-- Node23 -->
<g id="Node000023" class="node">
<title>Node23</title>
<g id="a_Node000023"><a xlink:href="$IsCharEncodingCompatibleWith_8h.html" xlink:title=" ">
<polygon fill="white" stroke="#666666" points="1713.12,-355.5 1535.88,-355.5 1535.88,-322 1713.12,-322 1713.12,-355.5"/>
<text xml:space="preserve" text-anchor="start" x="1543.88" y="-342" font-family="Helvetica,sans-Serif" font-size="10.00">Traits/IsCharEncodingCompatible</text>
<text xml:space="preserve" text-anchor="middle" x="1624.5" y="-329.25" font-family="Helvetica,sans-Serif" font-size="10.00">With.h</text>
</a>
</g>
</g>
<!-- Node20&#45;&gt;Node23 -->
<g id="edge29_Node000020_Node000023" class="edge">
<title>Node20&#45;&gt;Node23</title>
<g id="a_edge29_Node000020_Node000023"><a xlink:title=" ">
<path fill="none" stroke="#63b8ff" d="M1299.95,-462.32C1302.83,-461.87 1305.69,-461.43 1308.5,-461 1418.16,-444.2 1459.09,-479.89 1555.5,-425 1579.77,-411.19 1598.87,-385.22 1610.77,-365.57"/>
<polygon fill="#63b8ff" stroke="#63b8ff" points="1613.75,-367.41 1615.71,-356.99 1607.68,-363.91 1613.75,-367.41"/>
</a>
</g>
</g>
<!-- Node24 -->
<g id="Node000024" class="node">
<title>Node24</title>
<g id="a_Node000024"><a xlink:href="$IsCharType_8h.html" xlink:title=" ">
<polygon fill="white" stroke="#666666" points="1403.62,-286 1295.38,-286 1295.38,-265.25 1403.62,-265.25 1403.62,-286"/>
<text xml:space="preserve" text-anchor="middle" x="1349.5" y="-272.5" font-family="Helvetica,sans-Serif" font-size="10.00">Traits/IsCharType.h</text>
</a>
</g>
</g>
<!-- Node20&#45;&gt;Node24 -->
<g id="edge40_Node000020_Node000024" class="edge">
<title>Node20&#45;&gt;Node24</title>
<g id="a_edge40_Node000020_Node000024"><a xlink:title=" ">
<path fill="none" stroke="#63b8ff" d="M1210.06,-460.7C1210.08,-430.15 1214.32,-363.02 1248.5,-322 1260.73,-307.32 1278.68,-297.2 1296.07,-290.32"/>
<polygon fill="#63b8ff" stroke="#63b8ff" points="1297.15,-293.65 1305.35,-286.95 1294.76,-287.07 1297.15,-293.65"/>
</a>
</g>
</g>
<!-- Node25 -->
<g id="Node000025" class="node">
<title>Node25</title>
<g id="a_Node000025"><a xlink:href="$IsCharEncodingSimplyConvertibleTo_8h.html" xlink:title=" ">
<polygon fill="white" stroke="#666666" points="1546.88,-425 1392.12,-425 1392.12,-391.5 1546.88,-391.5 1546.88,-425"/>
<text xml:space="preserve" text-anchor="start" x="1400.12" y="-411.5" font-family="Helvetica,sans-Serif" font-size="10.00">Traits/IsCharEncodingSimply</text>
<text xml:space="preserve" text-anchor="middle" x="1469.5" y="-398.75" font-family="Helvetica,sans-Serif" font-size="10.00">ConvertibleTo.h</text>
</a>
</g>
</g>
<!-- Node20&#45;&gt;Node25 -->
<g id="edge33_Node000020_Node000025" class="edge">
<title>Node20&#45;&gt;Node25</title>
<g id="a_edge33_Node000020_Node000025"><a xlink:title=" ">
<path fill="none" stroke="#63b8ff" d="M1272.54,-460.58C1309.8,-450.87 1357.41,-438.46 1396.48,-428.28"/>
<polygon fill="#63b8ff" stroke="#63b8ff" points="1397.26,-431.69 1406.06,-425.78 1395.5,-424.92 1397.26,-431.69"/>
</a>
</g>
</g>
<!-- Node26 -->
<g id="Node000026" class="node">
<title>Node26</title>
<g id="a_Node000026"><a xlink:href="$IsFixedWidthCharEncoding_8h.html" xlink:title=" ">
<polygon fill="white" stroke="#666666" points="1441.5,-349.12 1257.5,-349.12 1257.5,-328.38 1441.5,-328.38 1441.5,-349.12"/>
<text xml:space="preserve" text-anchor="middle" x="1349.5" y="-335.62" font-family="Helvetica,sans-Serif" font-size="10.00">Traits/IsFixedWidthCharEncoding.h</text>
</a>
</g>
</g>
<!-- Node20&#45;&gt;Node26 -->
<g id="edge41_Node000020_Node000026" class="edge">
<title>Node20&#45;&gt;Node26</title>
<g id="a_edge41_Node000020_Node000026"><a xlink:title=" ">
<path fill="none" stroke="#63b8ff" d="M1226.72,-460.77C1252.95,-434.91 1304.51,-384.1 1331.71,-357.28"/>
<polygon fill="#63b8ff" stroke="#63b8ff" points="1333.89,-360.05 1338.55,-350.54 1328.97,-355.07 1333.89,-360.05"/>
</a>
</g>
</g>
<!-- Node21&#45;&gt;Node3 -->
<g id="edge26_Node000021_Node000003" class="edge">
<title>Node21&#45;&gt;Node3</title>
<g id="a_edge26_Node000021_Node000003"><a xlink:title=" ">
<path fill="none" stroke="#63b8ff" d="M1032.71,-391.04C1029.38,-373.25 1026.49,-344.28 1036.5,-322 1054.14,-282.74 1095.17,-252.43 1123.13,-235.36"/>
<polygon fill="#63b8ff" stroke="#63b8ff" points="1124.63,-238.54 1131.47,-230.45 1121.08,-232.51 1124.63,-238.54"/>
</a>
</g>
</g>
<!-- Node22&#45;&gt;Node3 -->
<g id="edge28_Node000022_Node000003" class="edge">
<title>Node22&#45;&gt;Node3</title>
<g id="a_edge28_Node000022_Node000003"><a xlink:title=" ">
<path fill="none" stroke="#63b8ff" d="M1108.35,-328.1C1115.99,-308.94 1133.23,-265.7 1143.46,-240.05"/>
<polygon fill="#63b8ff" stroke="#63b8ff" points="1146.59,-241.65 1147.04,-231.06 1140.09,-239.05 1146.59,-241.65"/>
</a>
</g>
</g>
<!-- Node23&#45;&gt;Node7 -->
<g id="edge30_Node000023_Node000007" class="edge">
<title>Node23&#45;&gt;Node7</title>
<g id="a_edge30_Node000023_Node000007"><a xlink:title=" ">
<path fill="none" stroke="#63b8ff" d="M1615.22,-321.55C1603.41,-299.36 1584.5,-257.91 1584.5,-219.88 1584.5,-219.88 1584.5,-219.88 1584.5,-154.75 1584.5,-109 1549.01,-65.16 1526.22,-41.73"/>
<polygon fill="#63b8ff" stroke="#63b8ff" points="1528.85,-39.41 1519.28,-34.85 1523.92,-44.38 1528.85,-39.41"/>
</a>
</g>
</g>
<!-- Node23&#45;&gt;Node24 -->
<g id="edge31_Node000023_Node000024" class="edge">
<title>Node23&#45;&gt;Node24</title>
<g id="a_edge31_Node000023_Node000024"><a xlink:title=" ">
<path fill="none" stroke="#63b8ff" d="M1551.53,-321.53C1505.47,-311.29 1446.92,-298.28 1404.72,-288.9"/>
<polygon fill="#63b8ff" stroke="#63b8ff" points="1405.54,-285.5 1395.02,-286.74 1404.03,-292.33 1405.54,-285.5"/>
</a>
</g>
</g>
<!-- Node24&#45;&gt;Node3 -->
<g id="edge32_Node000024_Node000003" class="edge">
<title>Node24&#45;&gt;Node3</title>
<g id="a_edge32_Node000024_Node000003"><a xlink:title=" ">
<path fill="none" stroke="#63b8ff" d="M1314.1,-264.84C1281.68,-255.87 1233.48,-242.54 1197.97,-232.73"/>
<polygon fill="#63b8ff" stroke="#63b8ff" points="1198.96,-229.37 1188.38,-230.07 1197.09,-236.11 1198.96,-229.37"/>
</a>
</g>
</g>
<!-- Node25&#45;&gt;Node7 -->
<g id="edge34_Node000025_Node000007" class="edge">
<title>Node25&#45;&gt;Node7</title>
<g id="a_edge34_Node000025_Node000007"><a xlink:title=" ">
<path fill="none" stroke="#63b8ff" d="M1477.37,-391.19C1488.5,-366.97 1507.5,-319.37 1507.5,-276.62 1507.5,-276.62 1507.5,-276.62 1507.5,-154.75 1507.5,-116.14 1507.5,-71.12 1507.5,-45.28"/>
<polygon fill="#63b8ff" stroke="#63b8ff" points="1511,-45.47 1507.5,-35.47 1504,-45.47 1511,-45.47"/>
</a>
</g>
</g>
<!-- Node25&#45;&gt;Node23 -->
<g id="edge35_Node000025_Node000023" class="edge">
<title>Node25&#45;&gt;Node23</title>
<g id="a_edge35_Node000025_Node000023"><a xlink:title=" ">
<path fill="none" stroke="#63b8ff" d="M1506.63,-391.08C1527.73,-381.89 1554.38,-370.28 1577,-360.43"/>
<polygon fill="#63b8ff" stroke="#63b8ff" points="1578.25,-363.71 1586.02,-356.51 1575.45,-357.29 1578.25,-363.71"/>
</a>
</g>
</g>
<!-- Node25&#45;&gt;Node24 -->
<g id="edge39_Node000025_Node000024" class="edge">
<title>Node25&#45;&gt;Node24</title>
<g id="a_edge39_Node000025_Node000024"><a xlink:title=" ">
<path fill="none" stroke="#63b8ff" d="M1470.02,-391.29C1469.79,-372.65 1466.69,-341.86 1450.5,-322 1438.53,-307.32 1420.81,-297.21 1403.54,-290.34"/>
<polygon fill="#63b8ff" stroke="#63b8ff" points="1404.92,-287.12 1394.32,-286.99 1402.52,-293.7 1404.92,-287.12"/>
</a>
</g>
</g>
<!-- Node25&#45;&gt;Node26 -->
<g id="edge36_Node000025_Node000026" class="edge">
<title>Node25&#45;&gt;Node26</title>
<g id="a_edge36_Node000025_Node000026"><a xlink:title=" ">
<path fill="none" stroke="#63b8ff" d="M1440.76,-391.08C1421.33,-380.16 1395.85,-365.82 1376.75,-355.08"/>
<polygon fill="#63b8ff" stroke="#63b8ff" points="1378.62,-352.12 1368.19,-350.26 1375.19,-358.22 1378.62,-352.12"/>
</a>
</g>
</g>
<!-- Node26&#45;&gt;Node7 -->
<g id="edge37_Node000026_Node000007" class="edge">
<title>Node26&#45;&gt;Node7</title>
<g id="a_edge37_Node000026_Node000007"><a xlink:title=" ">
<path fill="none" stroke="#63b8ff" d="M1367.09,-327.94C1396.03,-310.36 1450.5,-270.54 1450.5,-219.88 1450.5,-219.88 1450.5,-219.88 1450.5,-154.75 1450.5,-112.1 1476.34,-67.66 1493.23,-43.18"/>
<polygon fill="#63b8ff" stroke="#63b8ff" points="1495.96,-45.38 1498.93,-35.21 1490.27,-41.3 1495.96,-45.38"/>
</a>
</g>
</g>
<!-- Node26&#45;&gt;Node24 -->
<g id="edge38_Node000026_Node000024" class="edge">
<title>Node26&#45;&gt;Node24</title>
<g id="a_edge38_Node000026_Node000024"><a xlink:title=" ">
<path fill="none" stroke="#63b8ff" d="M1349.5,-327.93C1349.5,-319.77 1349.5,-307.88 1349.5,-297.6"/>
<polygon fill="#63b8ff" stroke="#63b8ff" points="1353,-297.73 1349.5,-287.73 1346,-297.73 1353,-297.73"/>
</a>
</g>
</g>
</g>
</svg>
