<?xml version="1.0" encoding="UTF-8" standalone="no"?>
<!DOCTYPE svg PUBLIC "-//W3C//DTD SVG 1.1//EN"
 "http://www.w3.org/Graphics/SVG/1.1/DTD/svg11.dtd">
<!-- Generated by graphviz version 14.1.4 (0)
 -->
<!-- Title: UE::Anim::AddTypedCustomAttribute Pages: 1 -->
<!--zoomable 286 -->

<svg id="main" version="1.1" xmlns="http://www.w3.org/2000/svg" xmlns:xlink="http://www.w3.org/1999/xlink" xml:space="preserve" onload="init(evt)">

<style type="text/css"><![CDATA[
.node, .edge {opacity: 0.7;}
.node.selected, .edge.selected {opacity: 1;}
.edge:hover path { stroke: red; }
.edge:hover polygon { stroke: red; fill: red; }
]]></style>

<defs>
  <circle id="rim" cx="0" cy="0" r="7"/>
  <circle id="rim2" cx="0" cy="0" r="3.5"/>
  <g id="zoomPlus">
    <use xlink:href="#rim" fill="#404040"><set attributeName="fill" to="#808080" begin="zoomplus.mouseover" end="zoomplus.mouseout"/></use>
    <path d="M-4,0h8M0,-4v8" fill="none" stroke="white" stroke-width="1.5" pointer-events="none"/>
  </g>
  <g id="zoomMin">
    <use xlink:href="#rim" fill="#404040"><set attributeName="fill" to="#808080" begin="zoomminus.mouseover" end="zoomminus.mouseout"/></use>
    <path d="M-4,0h8" fill="none" stroke="white" stroke-width="1.5" pointer-events="none"/>
  </g>
  <g id="arrowUp" transform="translate(30 24)">
    <use xlink:href="#rim"/>
    <path pointer-events="none" fill="none" stroke="white" stroke-width="1.5" d="M0,-3.0v7 M-2.5,-0.5L0,-3.0L2.5,-0.5"/>
  </g>
  <g id="arrowRight" transform="rotate(90) translate(36 -43)">
    <use xlink:href="#rim"/>
    <path pointer-events="none" fill="none" stroke="white" stroke-width="1.5" d="M0,-3.0v7 M-2.5,-0.5L0,-3.0L2.5,-0.5"/>
  </g>
  <g id="arrowDown" transform="rotate(180) translate(-30 -48)">
    <use xlink:href="#rim"/>
    <path pointer-events="none" fill="none" stroke="white" stroke-width="1.5" d="M0,-3.0v7 M-2.5,-0.5L0,-3.0L2.5,-0.5"/>
  </g>
  <g id="arrowLeft" transform="rotate(270) translate(-36 17)">
    <use xlink:href="#rim"/>
    <path pointer-events="none" fill="none" stroke="white" stroke-width="1.5" d="M0,-3.0v7 M-2.5,-0.5L0,-3.0L2.5,-0.5"/>
  </g>
  <g id="resetDef">
    <use xlink:href="#rim2" fill="#404040"><set attributeName="fill" to="#808080" begin="reset.mouseover" end="reset.mouseout"/></use>
  </g>
</defs>
<script type="application/ecmascript">
var viewWidth = 567;
var viewHeight = 286;
var sectionId = 'dynsection-0';
</script>
<script type="application/ecmascript" xlink:href="svg.min.js"/>
<svg id="graph" class="graph">
<g id="viewport">
<title>UE::Anim::AddTypedCustomAttribute</title>
<!-- Node1 -->
<g id="Node000001" class="node">
<title>Node1</title>
<g id="a_Node000001"><a xlink:title=" ">
<polygon fill="#999999" stroke="#666666" points="151.75,-137.5 0,-137.5 0,-104 151.75,-104 151.75,-137.5"/>
<text xml:space="preserve" text-anchor="start" x="8" y="-124" font-family="Helvetica,sans-Serif" font-size="10.00">UE::Anim::AddTypedCustom</text>
<text xml:space="preserve" text-anchor="middle" x="75.88" y="-111.25" font-family="Helvetica,sans-Serif" font-size="10.00">Attribute</text>
</a>
</g>
</g>
<!-- Node2 -->
<g id="Node000002" class="node">
<title>Node2</title>
<g id="a_Node000002"><a xlink:href="classIAnimationDataController.html#ab043c7556edc3021cbf6b3cc6641a143" target="_top" xlink:title=" ">
<polygon fill="white" stroke="#666666" points="355.25,-259.5 214.75,-259.5 214.75,-226 355.25,-226 355.25,-259.5"/>
<text xml:space="preserve" text-anchor="start" x="222.75" y="-246" font-family="Helvetica,sans-Serif" font-size="10.00">IAnimationDataController</text>
<text xml:space="preserve" text-anchor="middle" x="285" y="-233.25" font-family="Helvetica,sans-Serif" font-size="10.00">::AddAttribute</text>
</a>
</g>
</g>
<!-- Node1&#45;&gt;Node2 -->
<g id="edge1_Node000001_Node000002" class="edge">
<title>Node1&#45;&gt;Node2</title>
<g id="a_edge1_Node000001_Node000002"><a xlink:title=" ">
<path fill="none" stroke="#63b8ff" d="M92.02,-137.96C111.9,-159.5 148.86,-196.07 187.75,-216.75 192.83,-219.45 198.2,-221.89 203.72,-224.08"/>
<polygon fill="#63b8ff" stroke="#63b8ff" points="202.45,-227.34 213.04,-227.49 204.85,-220.77 202.45,-227.34"/>
</a>
</g>
</g>
<!-- Node3 -->
<g id="Node000003" class="node">
<title>Node3</title>
<g id="a_Node000003"><a xlink:href="classUAnimationAttributeIdentifierExtensions.html#a5a7f408753d765d6fc22e58380609eda" target="_top" xlink:title=" ">
<polygon fill="white" stroke="#666666" points="382.25,-189.5 187.75,-189.5 187.75,-156 382.25,-156 382.25,-189.5"/>
<text xml:space="preserve" text-anchor="start" x="195.75" y="-176" font-family="Helvetica,sans-Serif" font-size="10.00">UAnimationAttributeIdentifier</text>
<text xml:space="preserve" text-anchor="middle" x="285" y="-163.25" font-family="Helvetica,sans-Serif" font-size="10.00">Extensions::CreateAttributeIdentifier</text>
</a>
</g>
</g>
<!-- Node1&#45;&gt;Node3 -->
<g id="edge3_Node000001_Node000003" class="edge">
<title>Node1&#45;&gt;Node3</title>
<g id="a_edge3_Node000001_Node000003"><a xlink:title=" ">
<path fill="none" stroke="#63b8ff" d="M145.56,-137.99C164.45,-142.74 185.09,-147.92 204.53,-152.8"/>
<polygon fill="#63b8ff" stroke="#63b8ff" points="203.48,-156.14 214.04,-155.19 205.19,-149.36 203.48,-156.14"/>
</a>
</g>
</g>
<!-- Node4 -->
<g id="Node000004" class="node">
<title>Node4</title>
<g id="a_Node000004"><a xlink:href="classUAnimSequenceBase.html#a783f83acaa0e27de85aa9d61fa007eef" target="_top" xlink:title=" ">
<polygon fill="white" stroke="#666666" points="348.12,-137.5 221.88,-137.5 221.88,-104 348.12,-104 348.12,-137.5"/>
<text xml:space="preserve" text-anchor="start" x="229.88" y="-124" font-family="Helvetica,sans-Serif" font-size="10.00">UAnimSequenceBase::</text>
<text xml:space="preserve" text-anchor="middle" x="285" y="-111.25" font-family="Helvetica,sans-Serif" font-size="10.00">GetController</text>
</a>
</g>
</g>
<!-- Node1&#45;&gt;Node4 -->
<g id="edge5_Node000001_Node000004" class="edge">
<title>Node1&#45;&gt;Node4</title>
<g id="a_edge5_Node000001_Node000004"><a xlink:title=" ">
<path fill="none" stroke="#63b8ff" d="M152.24,-120.75C171.11,-120.75 191.33,-120.75 210.13,-120.75"/>
<polygon fill="#63b8ff" stroke="#63b8ff" points="210.11,-124.25 220.11,-120.75 210.11,-117.25 210.11,-124.25"/>
</a>
</g>
</g>
<!-- Node5 -->
<g id="Node000005" class="node">
<title>Node5</title>
<g id="a_Node000005"><a xlink:href="classUAnimSequenceBase.html#aba97b091ef07d372732bbe5770a772f0" target="_top" xlink:title=" ">
<polygon fill="white" stroke="#666666" points="350,-85.5 220,-85.5 220,-52 350,-52 350,-85.5"/>
<text xml:space="preserve" text-anchor="start" x="228" y="-72" font-family="Helvetica,sans-Serif" font-size="10.00">UAnimSequenceBase::</text>
<text xml:space="preserve" text-anchor="middle" x="285" y="-59.25" font-family="Helvetica,sans-Serif" font-size="10.00">GetDataModelInterface</text>
</a>
</g>
</g>
<!-- Node1&#45;&gt;Node5 -->
<g id="edge6_Node000001_Node000005" class="edge">
<title>Node1&#45;&gt;Node5</title>
<g id="a_edge6_Node000001_Node000005"><a xlink:title=" ">
<path fill="none" stroke="#63b8ff" d="M145.56,-103.51C165.82,-98.42 188.1,-92.83 208.75,-87.64"/>
<polygon fill="#63b8ff" stroke="#63b8ff" points="209.4,-91.09 218.24,-85.26 207.69,-84.3 209.4,-91.09"/>
</a>
</g>
</g>
<!-- Node6 -->
<g id="Node000006" class="node">
<title>Node6</title>
<g id="a_Node000006"><a xlink:href="classIAnimationDataController.html#a9e71c4c3876ec7661fcb9579fc30b3c7" target="_top" xlink:title=" ">
<polygon fill="white" stroke="#666666" points="355.25,-33.5 214.75,-33.5 214.75,0 355.25,0 355.25,-33.5"/>
<text xml:space="preserve" text-anchor="start" x="222.75" y="-20" font-family="Helvetica,sans-Serif" font-size="10.00">IAnimationDataController</text>
<text xml:space="preserve" text-anchor="middle" x="285" y="-7.25" font-family="Helvetica,sans-Serif" font-size="10.00">::SetTypedAttributeKeys</text>
</a>
</g>
</g>
<!-- Node1&#45;&gt;Node6 -->
<g id="edge7_Node000001_Node000006" class="edge">
<title>Node1&#45;&gt;Node6</title>
<g id="a_edge7_Node000001_Node000006"><a xlink:title=" ">
<path fill="none" stroke="#63b8ff" d="M96.39,-103.8C117.56,-86.21 153.02,-59.04 187.75,-42.75 192.86,-40.35 198.23,-38.15 203.71,-36.12"/>
<polygon fill="#63b8ff" stroke="#63b8ff" points="204.61,-39.51 212.91,-32.93 202.32,-32.9 204.61,-39.51"/>
</a>
</g>
</g>
<!-- Node2&#45;&gt;Node2 -->
<g id="edge2_Node000002_Node000002" class="edge">
<title>Node2&#45;&gt;Node2</title>
<g id="a_edge2_Node000002_Node000002"><a xlink:title=" ">
<path fill="none" stroke="#63b8ff" d="M248.42,-259.91C242.2,-269.12 254.4,-277.5 285,-277.5 301.98,-277.5 313.29,-274.92 318.93,-271.05"/>
<polygon fill="#63b8ff" stroke="#63b8ff" points="322.32,-271.93 321.23,-261.39 315.51,-270.31 322.32,-271.93"/>
</a>
</g>
</g>
<!-- Node3&#45;&gt;Node3 -->
<g id="edge4_Node000003_Node000003" class="edge">
<title>Node3&#45;&gt;Node3</title>
<g id="a_edge4_Node000003_Node000003"><a xlink:title=" ">
<path fill="none" stroke="#63b8ff" d="M248.42,-189.91C242.2,-199.12 254.4,-207.5 285,-207.5 301.98,-207.5 313.29,-204.92 318.93,-201.05"/>
<polygon fill="#63b8ff" stroke="#63b8ff" points="322.32,-201.93 321.23,-191.39 315.51,-200.31 322.32,-201.93"/>
</a>
</g>
</g>
<!-- Node7 -->
<g id="Node000007" class="node">
<title>Node7</title>
<g id="a_Node000007"><a xlink:href="classIAnimationDataController.html#a15b892b1243933f2a998dac7ed691981" target="_top" xlink:title=" ">
<polygon fill="white" stroke="#666666" points="558.75,-33.5 418.25,-33.5 418.25,0 558.75,0 558.75,-33.5"/>
<text xml:space="preserve" text-anchor="start" x="426.25" y="-20" font-family="Helvetica,sans-Serif" font-size="10.00">IAnimationDataController</text>
<text xml:space="preserve" text-anchor="middle" x="488.5" y="-7.25" font-family="Helvetica,sans-Serif" font-size="10.00">::SetAttributeKeys</text>
</a>
</g>
</g>
<!-- Node6&#45;&gt;Node7 -->
<g id="edge8_Node000006_Node000007" class="edge">
<title>Node6&#45;&gt;Node7</title>
<g id="a_edge8_Node000006_Node000007"><a xlink:title=" ">
<path fill="none" stroke="#63b8ff" d="M355.63,-16.75C371.99,-16.75 389.56,-16.75 406.37,-16.75"/>
<polygon fill="#63b8ff" stroke="#63b8ff" points="406.36,-20.25 416.36,-16.75 406.36,-13.25 406.36,-20.25"/>
</a>
</g>
</g>
</g>
</svg>

<g id="navigator" transform="translate(0 0)" fill="#404254">
  <rect fill="#f2f5e9" fill-opacity="0.5" stroke="#606060" stroke-width=".5" x="0" y="0" width="60" height="60"/>
  <use id="zoomplus" xlink:href="#zoomPlus" x="17" y="9" onmousedown="handleZoom(evt,'in')"/>
  <use id="zoomminus" xlink:href="#zoomMin" x="42" y="9" onmousedown="handleZoom(evt,'out')"/>
  <use id="reset" xlink:href="#resetDef" x="30" y="36" onmousedown="handleReset()"/>
   <use id="arrowup" xlink:href="#arrowUp" x="0" y="0" onmousedown="handlePan(0,-1)"/>
  <use id="arrowright" xlink:href="#arrowRight" x="0" y="0" onmousedown="handlePan(1,0)"/>
  <use id="arrowdown" xlink:href="#arrowDown" x="0" y="0" onmousedown="handlePan(0,1)"/>
  <use id="arrowleft" xlink:href="#arrowLeft" x="0" y="0" onmousedown="handlePan(-1,0)"/>
</g>
<svg viewBox="0 0 15 15" width="100%" height="30px" preserveAspectRatio="xMaxYMin meet">
 <g id="arrow_out" transform="scale(0.3 0.3)">
  <a xlink:href="namespaceUE_1_1Anim_af8c903db90a4651d59968002aac06adc_cgraph_org.svg" target="_base">
   <rect id="button" ry="5" rx="5" y="6" x="6" height="38" width="38"
        fill="#f2f5e9" fill-opacity="0.5" stroke="#606060" stroke-width="1.0"/>
   <path id="arrow"
     d="M 11.500037,31.436501 C 11.940474,20.09759 22.043105,11.32322 32.158766,21.979434 L 37.068811,17.246167 C 37.068811,17.246167 37.088388,32 37.088388,32 L 22.160133,31.978069 C 22.160133,31.978069 26.997745,27.140456 26.997745,27.140456 C 18.528582,18.264221 13.291696,25.230495 11.500037,31.436501 z"
     style="fill:#404040;"/>
  </a>
 </g>
</svg>

<style type='text/css'>
<![CDATA[
[data-mouse-over-selected='false'] { opacity: 0.7; }
[data-mouse-over-selected='true']  { opacity: 1.0; }
]]>
</style>
<script type="application/ecmascript"><![CDATA[
document.addEventListener('DOMContentLoaded', (event) => {
  highlightEdges();
  highlightAdjacentNodes();
});
]]></script>
</svg>
