<?xml version="1.0" encoding="UTF-8" standalone="no"?>
<!DOCTYPE svg PUBLIC "-//W3C//DTD SVG 1.1//EN"
 "http://www.w3.org/Graphics/SVG/1.1/DTD/svg11.dtd">
<!-- Generated by graphviz version 14.1.4 (0)
 -->
<!-- Title: /opt/unreal&#45;engine/Engine/Source/Runtime/Engine/Classes/Engine/NaniteAssemblyData.h Pages: 1 -->
<svg width="724pt" height="124pt"
 viewBox="0.00 0.00 724.00 124.00" xmlns="http://www.w3.org/2000/svg" xmlns:xlink="http://www.w3.org/1999/xlink">
<g id="graph0" class="graph" transform="scale(1 1) rotate(0) translate(4 119.75)">
<title>/opt/unreal&#45;engine/Engine/Source/Runtime/Engine/Classes/Engine/NaniteAssemblyData.h</title>
<!-- Node1 -->
<g id="Node000001" class="node">
<title>Node1</title>
<g id="a_Node000001"><a xlink:title=" ">
<polygon fill="#999999" stroke="#666666" points="394.75,-115.75 262.5,-115.75 262.5,-56.75 394.75,-56.75 394.75,-115.75"/>
<text xml:space="preserve" text-anchor="start" x="270.5" y="-102.25" font-family="Helvetica,sans-Serif" font-size="10.00">/opt/unreal&#45;engine</text>
<text xml:space="preserve" text-anchor="start" x="270.5" y="-89.5" font-family="Helvetica,sans-Serif" font-size="10.00">/Engine/Source/Runtime</text>
<text xml:space="preserve" text-anchor="start" x="270.5" y="-76.75" font-family="Helvetica,sans-Serif" font-size="10.00">/Engine/Classes/Engine</text>
<text xml:space="preserve" text-anchor="middle" x="328.62" y="-64" font-family="Helvetica,sans-Serif" font-size="10.00">/NaniteAssemblyData.h</text>
</a>
</g>
</g>
<!-- Node2 -->
<g id="Node000002" class="node">
<title>Node2</title>
<g id="a_Node000002"><a xlink:title=" ">
<polygon fill="#e0e0e0" stroke="#999999" points="87.25,-20.75 0,-20.75 0,0 87.25,0 87.25,-20.75"/>
<text xml:space="preserve" text-anchor="middle" x="43.62" y="-7.25" font-family="Helvetica,sans-Serif" font-size="10.00">CoreMinimal.h</text>
</a>
</g>
</g>
<!-- Node1&#45;&gt;Node2 -->
<g id="edge1_Node000001_Node000002" class="edge">
<title>Node1&#45;&gt;Node2</title>
<g id="a_edge1_Node000001_Node000002"><a xlink:title=" ">
<path fill="none" stroke="#63b8ff" d="M262.16,-68.02C210.35,-54.59 139.56,-36.24 92.77,-24.11"/>
<polygon fill="#63b8ff" stroke="#63b8ff" points="93.73,-20.75 83.17,-21.63 91.97,-27.52 93.73,-20.75"/>
</a>
</g>
</g>
<!-- Node3 -->
<g id="Node000003" class="node">
<title>Node3</title>
<g id="a_Node000003"><a xlink:title=" ">
<polygon fill="#e0e0e0" stroke="#999999" points="239.5,-20.75 105.75,-20.75 105.75,0 239.5,0 239.5,-20.75"/>
<text xml:space="preserve" text-anchor="middle" x="172.62" y="-7.25" font-family="Helvetica,sans-Serif" font-size="10.00">UObject/ObjectMacros.h</text>
</a>
</g>
</g>
<!-- Node1&#45;&gt;Node3 -->
<g id="edge2_Node000001_Node000003" class="edge">
<title>Node1&#45;&gt;Node3</title>
<g id="a_edge2_Node000001_Node000003"><a xlink:title=" ">
<path fill="none" stroke="#63b8ff" d="M267.42,-56.26C245.54,-45.91 221.82,-34.67 203.58,-26.03"/>
<polygon fill="#63b8ff" stroke="#63b8ff" points="205.16,-22.91 194.63,-21.79 202.17,-29.24 205.16,-22.91"/>
</a>
</g>
</g>
<!-- Node4 -->
<g id="Node000004" class="node">
<title>Node4</title>
<g id="a_Node000004"><a xlink:title=" ">
<polygon fill="#e0e0e0" stroke="#999999" points="400,-20.75 257.25,-20.75 257.25,0 400,0 400,-20.75"/>
<text xml:space="preserve" text-anchor="middle" x="328.62" y="-7.25" font-family="Helvetica,sans-Serif" font-size="10.00">UObject/UObjectGlobals.h</text>
</a>
</g>
</g>
<!-- Node1&#45;&gt;Node4 -->
<g id="edge3_Node000001_Node000004" class="edge">
<title>Node1&#45;&gt;Node4</title>
<g id="a_edge3_Node000001_Node000004"><a xlink:title=" ">
<path fill="none" stroke="#63b8ff" d="M328.62,-56.48C328.62,-48.48 328.62,-39.95 328.62,-32.49"/>
<polygon fill="#63b8ff" stroke="#63b8ff" points="332.13,-32.72 328.63,-22.72 325.13,-32.72 332.13,-32.72"/>
</a>
</g>
</g>
<!-- Node5 -->
<g id="Node000005" class="node">
<title>Node5</title>
<g id="a_Node000005"><a xlink:title=" ">
<polygon fill="#e0e0e0" stroke="#999999" points="516.88,-20.75 418.38,-20.75 418.38,0 516.88,0 516.88,-20.75"/>
<text xml:space="preserve" text-anchor="middle" x="467.62" y="-7.25" font-family="Helvetica,sans-Serif" font-size="10.00">UObject/Object.h</text>
</a>
</g>
</g>
<!-- Node1&#45;&gt;Node5 -->
<g id="edge4_Node000001_Node000005" class="edge">
<title>Node1&#45;&gt;Node5</title>
<g id="a_edge4_Node000001_Node000005"><a xlink:title=" ">
<path fill="none" stroke="#63b8ff" d="M383.16,-56.26C402.38,-46.05 423.2,-34.99 439.36,-26.4"/>
<polygon fill="#63b8ff" stroke="#63b8ff" points="440.72,-29.64 447.9,-21.86 437.43,-23.46 440.72,-29.64"/>
</a>
</g>
</g>
<!-- Node6 -->
<g id="Node000006" class="node">
<title>Node6</title>
<g id="a_Node000006"><a xlink:title=" ">
<polygon fill="#e0e0e0" stroke="#999999" points="716.12,-20.75 535.12,-20.75 535.12,0 716.12,0 716.12,-20.75"/>
<text xml:space="preserve" text-anchor="middle" x="625.62" y="-7.25" font-family="Helvetica,sans-Serif" font-size="10.00">NaniteAssemblyData.generated.h</text>
</a>
</g>
</g>
<!-- Node1&#45;&gt;Node6 -->
<g id="edge5_Node000001_Node000006" class="edge">
<title>Node1&#45;&gt;Node6</title>
<g id="a_edge5_Node000001_Node000006"><a xlink:title=" ">
<path fill="none" stroke="#63b8ff" d="M394.91,-68.76C449.31,-55.23 525.21,-36.35 574.87,-24"/>
<polygon fill="#63b8ff" stroke="#63b8ff" points="575.65,-27.41 584.51,-21.6 573.96,-20.62 575.65,-27.41"/>
</a>
</g>
</g>
</g>
</svg>
