<?xml version="1.0" encoding="UTF-8" standalone="no"?>
<!DOCTYPE svg PUBLIC "-//W3C//DTD SVG 1.1//EN"
 "http://www.w3.org/Graphics/SVG/1.1/DTD/svg11.dtd">
<!-- Generated by graphviz version 14.1.4 (0)
 -->
<!-- Title: /opt/unreal&#45;engine/Engine/Source/Runtime/Engine/Classes/AI/Navigation/NavEdgeProviderInterface.h Pages: 1 -->
<svg width="493pt" height="124pt"
 viewBox="0.00 0.00 493.00 124.00" xmlns="http://www.w3.org/2000/svg" xmlns:xlink="http://www.w3.org/1999/xlink">
<g id="graph0" class="graph" transform="scale(1 1) rotate(0) translate(4 119.75)">
<title>/opt/unreal&#45;engine/Engine/Source/Runtime/Engine/Classes/AI/Navigation/NavEdgeProviderInterface.h</title>
<!-- Node1 -->
<g id="Node000001" class="node">
<title>Node1</title>
<g id="a_Node000001"><a xlink:title=" ">
<polygon fill="#999999" stroke="#666666" points="287.62,-115.75 126.12,-115.75 126.12,-56.75 287.62,-56.75 287.62,-115.75"/>
<text xml:space="preserve" text-anchor="start" x="134.12" y="-102.25" font-family="Helvetica,sans-Serif" font-size="10.00">/opt/unreal&#45;engine</text>
<text xml:space="preserve" text-anchor="start" x="134.12" y="-89.5" font-family="Helvetica,sans-Serif" font-size="10.00">/Engine/Source/Runtime</text>
<text xml:space="preserve" text-anchor="start" x="134.12" y="-76.75" font-family="Helvetica,sans-Serif" font-size="10.00">/Engine/Classes/AI/Navigation</text>
<text xml:space="preserve" text-anchor="middle" x="206.88" y="-64" font-family="Helvetica,sans-Serif" font-size="10.00">/NavEdgeProviderInterface.h</text>
</a>
</g>
</g>
<!-- Node2 -->
<g id="Node000002" class="node">
<title>Node2</title>
<g id="a_Node000002"><a xlink:title=" ">
<polygon fill="#e0e0e0" stroke="#999999" points="133.75,-20.75 0,-20.75 0,0 133.75,0 133.75,-20.75"/>
<text xml:space="preserve" text-anchor="middle" x="66.88" y="-7.25" font-family="Helvetica,sans-Serif" font-size="10.00">UObject/ObjectMacros.h</text>
</a>
</g>
</g>
<!-- Node1&#45;&gt;Node2 -->
<g id="edge1_Node000001_Node000002" class="edge">
<title>Node1&#45;&gt;Node2</title>
<g id="a_edge1_Node000001_Node000002"><a xlink:title=" ">
<path fill="none" stroke="#63b8ff" d="M151.95,-56.26C132.59,-46.05 111.62,-34.99 95.35,-26.4"/>
<polygon fill="#63b8ff" stroke="#63b8ff" points="97.21,-23.42 86.73,-21.85 93.94,-29.61 97.21,-23.42"/>
</a>
</g>
</g>
<!-- Node3 -->
<g id="Node000003" class="node">
<title>Node3</title>
<g id="a_Node000003"><a xlink:title=" ">
<polygon fill="#e0e0e0" stroke="#999999" points="262.12,-20.75 151.62,-20.75 151.62,0 262.12,0 262.12,-20.75"/>
<text xml:space="preserve" text-anchor="middle" x="206.88" y="-7.25" font-family="Helvetica,sans-Serif" font-size="10.00">UObject/Interface.h</text>
</a>
</g>
</g>
<!-- Node1&#45;&gt;Node3 -->
<g id="edge2_Node000001_Node000003" class="edge">
<title>Node1&#45;&gt;Node3</title>
<g id="a_edge2_Node000001_Node000003"><a xlink:title=" ">
<path fill="none" stroke="#63b8ff" d="M206.88,-56.48C206.88,-48.48 206.88,-39.95 206.88,-32.49"/>
<polygon fill="#63b8ff" stroke="#63b8ff" points="210.38,-32.72 206.88,-22.72 203.38,-32.72 210.38,-32.72"/>
</a>
</g>
</g>
<!-- Node4 -->
<g id="Node000004" class="node">
<title>Node4</title>
<g id="a_Node000004"><a xlink:title=" ">
<polygon fill="#e0e0e0" stroke="#999999" points="485.38,-20.75 280.38,-20.75 280.38,0 485.38,0 485.38,-20.75"/>
<text xml:space="preserve" text-anchor="middle" x="382.88" y="-7.25" font-family="Helvetica,sans-Serif" font-size="10.00">NavEdgeProviderInterface.generated.h</text>
</a>
</g>
</g>
<!-- Node1&#45;&gt;Node4 -->
<g id="edge3_Node000001_Node000004" class="edge">
<title>Node1&#45;&gt;Node4</title>
<g id="a_edge3_Node000001_Node000004"><a xlink:title=" ">
<path fill="none" stroke="#63b8ff" d="M275.93,-56.26C301.07,-45.71 328.38,-34.25 349.11,-25.55"/>
<polygon fill="#63b8ff" stroke="#63b8ff" points="350.34,-28.83 358.2,-21.73 347.63,-22.37 350.34,-28.83"/>
</a>
</g>
</g>
</g>
</svg>
