<?xml version="1.0" encoding="UTF-8" standalone="no"?>
<!DOCTYPE svg PUBLIC "-//W3C//DTD SVG 1.1//EN"
 "http://www.w3.org/Graphics/SVG/1.1/DTD/svg11.dtd">
<!-- Generated by graphviz version 14.1.4 (0)
 -->
<!-- Title: /opt/unreal&#45;engine/Engine/Source/Runtime/Engine/Classes/Engine/NetworkDelegates.h Pages: 1 -->
<svg width="1252pt" height="460pt"
 viewBox="0.00 0.00 1252.00 460.00" xmlns="http://www.w3.org/2000/svg" xmlns:xlink="http://www.w3.org/1999/xlink">
<g id="graph0" class="graph" transform="scale(1 1) rotate(0) translate(4 455.75)">
<title>/opt/unreal&#45;engine/Engine/Source/Runtime/Engine/Classes/Engine/NetworkDelegates.h</title>
<!-- Node1 -->
<g id="Node000001" class="node">
<title>Node1</title>
<g id="a_Node000001"><a xlink:title=" ">
<polygon fill="#999999" stroke="#666666" points="413.88,-451.75 281.62,-451.75 281.62,-392.75 413.88,-392.75 413.88,-451.75"/>
<text xml:space="preserve" text-anchor="start" x="289.62" y="-438.25" font-family="Helvetica,sans-Serif" font-size="10.00">/opt/unreal&#45;engine</text>
<text xml:space="preserve" text-anchor="start" x="289.62" y="-425.5" font-family="Helvetica,sans-Serif" font-size="10.00">/Engine/Source/Runtime</text>
<text xml:space="preserve" text-anchor="start" x="289.62" y="-412.75" font-family="Helvetica,sans-Serif" font-size="10.00">/Engine/Classes/Engine</text>
<text xml:space="preserve" text-anchor="middle" x="347.75" y="-400" font-family="Helvetica,sans-Serif" font-size="10.00">/NetworkDelegates.h</text>
</a>
</g>
</g>
<!-- Node2 -->
<g id="Node000002" class="node">
<title>Node2</title>
<g id="a_Node000002"><a xlink:href="$GameInstance_8h.html" xlink:title=" ">
<polygon fill="white" stroke="#666666" points="338.88,-356.75 206.62,-356.75 206.62,-297.75 338.88,-297.75 338.88,-356.75"/>
<text xml:space="preserve" text-anchor="start" x="214.62" y="-343.25" font-family="Helvetica,sans-Serif" font-size="10.00">/opt/unreal&#45;engine</text>
<text xml:space="preserve" text-anchor="start" x="214.62" y="-330.5" font-family="Helvetica,sans-Serif" font-size="10.00">/Engine/Source/Runtime</text>
<text xml:space="preserve" text-anchor="start" x="214.62" y="-317.75" font-family="Helvetica,sans-Serif" font-size="10.00">/Engine/Classes/Engine</text>
<text xml:space="preserve" text-anchor="middle" x="272.75" y="-305" font-family="Helvetica,sans-Serif" font-size="10.00">/GameInstance.h</text>
</a>
</g>
</g>
<!-- Node1&#45;&gt;Node2 -->
<g id="edge1_Node000001_Node000002" class="edge">
<title>Node1&#45;&gt;Node2</title>
<g id="a_edge1_Node000001_Node000002"><a xlink:title=" ">
<path fill="none" stroke="#63b8ff" d="M317.23,-383.41C310.17,-374.65 302.76,-365.46 296.05,-357.15"/>
<polygon fill="#63b8ff" stroke="#63b8ff" points="314.48,-385.57 323.48,-391.16 319.93,-381.17 314.48,-385.57"/>
</a>
</g>
</g>
<!-- Node4 -->
<g id="Node000004" class="node">
<title>Node4</title>
<g id="a_Node000004"><a xlink:href="$PendingNetGame_8h.html" xlink:title=" ">
<polygon fill="white" stroke="#666666" points="494.88,-356.75 362.62,-356.75 362.62,-297.75 494.88,-297.75 494.88,-356.75"/>
<text xml:space="preserve" text-anchor="start" x="370.62" y="-343.25" font-family="Helvetica,sans-Serif" font-size="10.00">/opt/unreal&#45;engine</text>
<text xml:space="preserve" text-anchor="start" x="370.62" y="-330.5" font-family="Helvetica,sans-Serif" font-size="10.00">/Engine/Source/Runtime</text>
<text xml:space="preserve" text-anchor="start" x="370.62" y="-317.75" font-family="Helvetica,sans-Serif" font-size="10.00">/Engine/Classes/Engine</text>
<text xml:space="preserve" text-anchor="middle" x="428.75" y="-305" font-family="Helvetica,sans-Serif" font-size="10.00">/PendingNetGame.h</text>
</a>
</g>
</g>
<!-- Node1&#45;&gt;Node4 -->
<g id="edge3_Node000001_Node000004" class="edge">
<title>Node1&#45;&gt;Node4</title>
<g id="a_edge3_Node000001_Node000004"><a xlink:title=" ">
<path fill="none" stroke="#63b8ff" d="M380.47,-383.69C388.17,-374.84 396.27,-365.54 403.58,-357.15"/>
<polygon fill="#63b8ff" stroke="#63b8ff" points="377.86,-381.35 373.93,-391.19 383.14,-385.95 377.86,-381.35"/>
</a>
</g>
</g>
<!-- Node3 -->
<g id="Node000003" class="node">
<title>Node3</title>
<g id="a_Node000003"><a xlink:href="$BlueprintPlatformLibrary_8h.html" xlink:title=" ">
<polygon fill="white" stroke="#666666" points="339,-261.75 192.5,-261.75 192.5,-202.75 339,-202.75 339,-261.75"/>
<text xml:space="preserve" text-anchor="start" x="200.5" y="-248.25" font-family="Helvetica,sans-Serif" font-size="10.00">/opt/unreal&#45;engine</text>
<text xml:space="preserve" text-anchor="start" x="200.5" y="-235.5" font-family="Helvetica,sans-Serif" font-size="10.00">/Engine/Source/Runtime</text>
<text xml:space="preserve" text-anchor="start" x="200.5" y="-222.75" font-family="Helvetica,sans-Serif" font-size="10.00">/Engine/Classes/Kismet</text>
<text xml:space="preserve" text-anchor="middle" x="265.75" y="-210" font-family="Helvetica,sans-Serif" font-size="10.00">/BlueprintPlatformLibrary.h</text>
</a>
</g>
</g>
<!-- Node2&#45;&gt;Node3 -->
<g id="edge2_Node000002_Node000003" class="edge">
<title>Node2&#45;&gt;Node3</title>
<g id="a_edge2_Node000002_Node000003"><a xlink:title=" ">
<path fill="none" stroke="#63b8ff" d="M269.71,-285.91C269.11,-277.91 268.49,-269.67 267.93,-262.15"/>
<polygon fill="#63b8ff" stroke="#63b8ff" points="266.22,-286.12 270.46,-295.82 273.2,-285.59 266.22,-286.12"/>
</a>
</g>
</g>
<!-- Node5 -->
<g id="Node000005" class="node">
<title>Node5</title>
<g id="a_Node000005"><a xlink:href="$DemoPendingNetGame_8h.html" xlink:title=" ">
<polygon fill="white" stroke="#666666" points="500.12,-261.75 357.38,-261.75 357.38,-202.75 500.12,-202.75 500.12,-261.75"/>
<text xml:space="preserve" text-anchor="start" x="365.38" y="-248.25" font-family="Helvetica,sans-Serif" font-size="10.00">/opt/unreal&#45;engine</text>
<text xml:space="preserve" text-anchor="start" x="365.38" y="-235.5" font-family="Helvetica,sans-Serif" font-size="10.00">/Engine/Source/Runtime</text>
<text xml:space="preserve" text-anchor="start" x="365.38" y="-222.75" font-family="Helvetica,sans-Serif" font-size="10.00">/Engine/Classes/Engine</text>
<text xml:space="preserve" text-anchor="middle" x="428.75" y="-210" font-family="Helvetica,sans-Serif" font-size="10.00">/DemoPendingNetGame.h</text>
</a>
</g>
</g>
<!-- Node4&#45;&gt;Node5 -->
<g id="edge4_Node000004_Node000005" class="edge">
<title>Node4&#45;&gt;Node5</title>
<g id="a_edge4_Node000004_Node000005"><a xlink:title=" ">
<path fill="none" stroke="#63b8ff" d="M428.75,-285.91C428.75,-277.91 428.75,-269.67 428.75,-262.15"/>
<polygon fill="#63b8ff" stroke="#63b8ff" points="425.25,-285.82 428.75,-295.82 432.25,-285.82 425.25,-285.82"/>
</a>
</g>
</g>
<!-- Node6 -->
<g id="Node000006" class="node">
<title>Node6</title>
<g id="a_Node000006"><a xlink:href="$World_8h.html" xlink:title=" ">
<polygon fill="white" stroke="#666666" points="650.88,-261.75 518.62,-261.75 518.62,-202.75 650.88,-202.75 650.88,-261.75"/>
<text xml:space="preserve" text-anchor="start" x="526.62" y="-248.25" font-family="Helvetica,sans-Serif" font-size="10.00">/opt/unreal&#45;engine</text>
<text xml:space="preserve" text-anchor="start" x="526.62" y="-235.5" font-family="Helvetica,sans-Serif" font-size="10.00">/Engine/Source/Runtime</text>
<text xml:space="preserve" text-anchor="start" x="526.62" y="-222.75" font-family="Helvetica,sans-Serif" font-size="10.00">/Engine/Classes/Engine</text>
<text xml:space="preserve" text-anchor="middle" x="584.75" y="-210" font-family="Helvetica,sans-Serif" font-size="10.00">/World.h</text>
</a>
</g>
</g>
<!-- Node4&#45;&gt;Node6 -->
<g id="edge5_Node000004_Node000006" class="edge">
<title>Node4&#45;&gt;Node6</title>
<g id="a_edge5_Node000004_Node000006"><a xlink:title=" ">
<path fill="none" stroke="#63b8ff" d="M486.69,-291.71C503.01,-281.98 520.58,-271.51 536.28,-262.15"/>
<polygon fill="#63b8ff" stroke="#63b8ff" points="485.35,-288.43 478.55,-296.56 488.94,-294.44 485.35,-288.43"/>
</a>
</g>
</g>
<!-- Node7 -->
<g id="Node000007" class="node">
<title>Node7</title>
<g id="a_Node000007"><a xlink:href="$NavigationSystemBase_8h.html" xlink:title=" ">
<polygon fill="white" stroke="#666666" points="161.5,-160.38 0,-160.38 0,-101.38 161.5,-101.38 161.5,-160.38"/>
<text xml:space="preserve" text-anchor="start" x="8" y="-146.88" font-family="Helvetica,sans-Serif" font-size="10.00">/opt/unreal&#45;engine</text>
<text xml:space="preserve" text-anchor="start" x="8" y="-134.12" font-family="Helvetica,sans-Serif" font-size="10.00">/Engine/Source/Runtime</text>
<text xml:space="preserve" text-anchor="start" x="8" y="-121.38" font-family="Helvetica,sans-Serif" font-size="10.00">/Engine/Classes/AI/Navigation</text>
<text xml:space="preserve" text-anchor="middle" x="80.75" y="-108.62" font-family="Helvetica,sans-Serif" font-size="10.00">SystemBase.h</text>
</a>
</g>
</g>
<!-- Node6&#45;&gt;Node7 -->
<g id="edge6_Node000006_Node000007" class="edge">
<title>Node6&#45;&gt;Node7</title>
<g id="a_edge6_Node000006_Node000007"><a xlink:title=" ">
<path fill="none" stroke="#63b8ff" d="M507.49,-202.75C359.61,-169.52 314.13,-201.52 170.75,-166.75 163.91,-165.09 156.89,-163.04 149.94,-160.76"/>
<polygon fill="#63b8ff" stroke="#63b8ff" points="506.31,-206.07 516.84,-204.91 507.89,-199.25 506.31,-206.07"/>
</a>
</g>
</g>
<!-- Node8 -->
<g id="Node000008" class="node">
<title>Node8</title>
<g id="a_Node000008"><a xlink:href="$CurveLinearColorAtlas_8h.html" xlink:title=" ">
<polygon fill="white" stroke="#666666" points="316.12,-160.38 179.38,-160.38 179.38,-101.38 316.12,-101.38 316.12,-160.38"/>
<text xml:space="preserve" text-anchor="start" x="187.38" y="-146.88" font-family="Helvetica,sans-Serif" font-size="10.00">/opt/unreal&#45;engine</text>
<text xml:space="preserve" text-anchor="start" x="187.38" y="-134.12" font-family="Helvetica,sans-Serif" font-size="10.00">/Engine/Source/Runtime</text>
<text xml:space="preserve" text-anchor="start" x="187.38" y="-121.38" font-family="Helvetica,sans-Serif" font-size="10.00">/Engine/Classes/Curves</text>
<text xml:space="preserve" text-anchor="middle" x="247.75" y="-108.62" font-family="Helvetica,sans-Serif" font-size="10.00">/CurveLinearColorAtlas.h</text>
</a>
</g>
</g>
<!-- Node6&#45;&gt;Node8 -->
<g id="edge7_Node000006_Node000008" class="edge">
<title>Node6&#45;&gt;Node8</title>
<g id="a_edge7_Node000006_Node000008"><a xlink:title=" ">
<path fill="none" stroke="#63b8ff" d="M507.57,-202.65C426.93,-181.02 401.52,-190.8 325.75,-166.75 320.24,-165 314.59,-162.97 308.98,-160.8"/>
<polygon fill="#63b8ff" stroke="#63b8ff" points="506.2,-205.9 516.77,-205.19 508.07,-199.15 506.2,-205.9"/>
</a>
</g>
</g>
<!-- Node9 -->
<g id="Node000009" class="node">
<title>Node9</title>
<g id="a_Node000009"><a xlink:href="$Engine_8h.html" xlink:title=" ">
<polygon fill="white" stroke="#666666" points="466.88,-160.38 334.62,-160.38 334.62,-101.38 466.88,-101.38 466.88,-160.38"/>
<text xml:space="preserve" text-anchor="start" x="342.62" y="-146.88" font-family="Helvetica,sans-Serif" font-size="10.00">/opt/unreal&#45;engine</text>
<text xml:space="preserve" text-anchor="start" x="342.62" y="-134.12" font-family="Helvetica,sans-Serif" font-size="10.00">/Engine/Source/Runtime</text>
<text xml:space="preserve" text-anchor="start" x="342.62" y="-121.38" font-family="Helvetica,sans-Serif" font-size="10.00">/Engine/Classes/Engine</text>
<text xml:space="preserve" text-anchor="middle" x="400.75" y="-108.62" font-family="Helvetica,sans-Serif" font-size="10.00">/Engine.h</text>
</a>
</g>
</g>
<!-- Node6&#45;&gt;Node9 -->
<g id="edge8_Node000006_Node000009" class="edge">
<title>Node6&#45;&gt;Node9</title>
<g id="a_edge8_Node000006_Node000009"><a xlink:title=" ">
<path fill="none" stroke="#63b8ff" d="M521.63,-197.16C499.67,-185.3 475.27,-172.12 454.17,-160.73"/>
<polygon fill="#63b8ff" stroke="#63b8ff" points="519.74,-200.11 530.2,-201.79 523.06,-193.96 519.74,-200.11"/>
</a>
</g>
</g>
<!-- Node11 -->
<g id="Node000011" class="node">
<title>Node11</title>
<g id="a_Node000011"><a xlink:href="$ExternalAssetDependencyGatherer_8h.html" xlink:title=" ">
<polygon fill="white" stroke="#666666" points="684.25,-160.38 485.25,-160.38 485.25,-101.38 684.25,-101.38 684.25,-160.38"/>
<text xml:space="preserve" text-anchor="start" x="493.25" y="-146.88" font-family="Helvetica,sans-Serif" font-size="10.00">/opt/unreal&#45;engine</text>
<text xml:space="preserve" text-anchor="start" x="493.25" y="-134.12" font-family="Helvetica,sans-Serif" font-size="10.00">/Engine/Source/Runtime</text>
<text xml:space="preserve" text-anchor="start" x="493.25" y="-121.38" font-family="Helvetica,sans-Serif" font-size="10.00">/Engine/Classes/Engine</text>
<text xml:space="preserve" text-anchor="middle" x="584.75" y="-108.62" font-family="Helvetica,sans-Serif" font-size="10.00">/ExternalAssetDependencyGatherer.h</text>
</a>
</g>
</g>
<!-- Node6&#45;&gt;Node11 -->
<g id="edge10_Node000006_Node000011" class="edge">
<title>Node6&#45;&gt;Node11</title>
<g id="a_edge10_Node000006_Node000011"><a xlink:title=" ">
<path fill="none" stroke="#63b8ff" d="M584.75,-191.25C584.75,-180.98 584.75,-170.13 584.75,-160.55"/>
<polygon fill="#63b8ff" stroke="#63b8ff" points="581.25,-190.99 584.75,-200.99 588.25,-190.99 581.25,-190.99"/>
</a>
</g>
</g>
<!-- Node12 -->
<g id="Node000012" class="node">
<title>Node12</title>
<g id="a_Node000012"><a xlink:href="$ExternalObjectAndActorDependencyGatherer_8h.html" xlink:title=" ">
<polygon fill="white" stroke="#666666" points="898.75,-166.75 702.75,-166.75 702.75,-95 898.75,-95 898.75,-166.75"/>
<text xml:space="preserve" text-anchor="start" x="710.75" y="-153.25" font-family="Helvetica,sans-Serif" font-size="10.00">/opt/unreal&#45;engine</text>
<text xml:space="preserve" text-anchor="start" x="710.75" y="-140.5" font-family="Helvetica,sans-Serif" font-size="10.00">/Engine/Source/Runtime</text>
<text xml:space="preserve" text-anchor="start" x="710.75" y="-127.75" font-family="Helvetica,sans-Serif" font-size="10.00">/Engine/Classes/Engine</text>
<text xml:space="preserve" text-anchor="start" x="710.75" y="-115" font-family="Helvetica,sans-Serif" font-size="10.00">/ExternalObjectAndActorDependency</text>
<text xml:space="preserve" text-anchor="middle" x="800.75" y="-102.25" font-family="Helvetica,sans-Serif" font-size="10.00">Gatherer.h</text>
</a>
</g>
</g>
<!-- Node6&#45;&gt;Node12 -->
<g id="edge11_Node000006_Node000012" class="edge">
<title>Node6&#45;&gt;Node12</title>
<g id="a_edge11_Node000006_Node000012"><a xlink:title=" ">
<path fill="none" stroke="#63b8ff" d="M657.8,-197.64C679.13,-187.83 702.48,-177.08 724.03,-167.17"/>
<polygon fill="#63b8ff" stroke="#63b8ff" points="656.51,-194.38 648.89,-201.74 659.44,-200.74 656.51,-194.38"/>
</a>
</g>
</g>
<!-- Node13 -->
<g id="Node000013" class="node">
<title>Node13</title>
<g id="a_Node000013"><a xlink:href="$ParticleSystemManager_8h.html" xlink:title=" ">
<polygon fill="white" stroke="#666666" points="1060.88,-160.38 916.62,-160.38 916.62,-101.38 1060.88,-101.38 1060.88,-160.38"/>
<text xml:space="preserve" text-anchor="start" x="924.62" y="-146.88" font-family="Helvetica,sans-Serif" font-size="10.00">/opt/unreal&#45;engine</text>
<text xml:space="preserve" text-anchor="start" x="924.62" y="-134.12" font-family="Helvetica,sans-Serif" font-size="10.00">/Engine/Source/Runtime</text>
<text xml:space="preserve" text-anchor="start" x="924.62" y="-121.38" font-family="Helvetica,sans-Serif" font-size="10.00">/Engine/Classes/Particles</text>
<text xml:space="preserve" text-anchor="middle" x="988.75" y="-108.62" font-family="Helvetica,sans-Serif" font-size="10.00">/ParticleSystemManager.h</text>
</a>
</g>
</g>
<!-- Node6&#45;&gt;Node13 -->
<g id="edge12_Node000006_Node000013" class="edge">
<title>Node6&#45;&gt;Node13</title>
<g id="a_edge12_Node000006_Node000013"><a xlink:title=" ">
<path fill="none" stroke="#63b8ff" d="M662.5,-220.41C728.64,-210.08 825.69,-192.3 907.75,-166.75 913.45,-164.97 919.3,-162.93 925.11,-160.74"/>
<polygon fill="#63b8ff" stroke="#63b8ff" points="662.18,-216.92 652.83,-221.9 663.25,-223.84 662.18,-216.92"/>
</a>
</g>
</g>
<!-- Node14 -->
<g id="Node000014" class="node">
<title>Node14</title>
<g id="a_Node000014"><a xlink:href="$PhysicsCollisionHandler_8h.html" xlink:title=" ">
<polygon fill="white" stroke="#666666" points="1244.38,-160.38 1079.12,-160.38 1079.12,-101.38 1244.38,-101.38 1244.38,-160.38"/>
<text xml:space="preserve" text-anchor="start" x="1087.12" y="-146.88" font-family="Helvetica,sans-Serif" font-size="10.00">/opt/unreal&#45;engine</text>
<text xml:space="preserve" text-anchor="start" x="1087.12" y="-134.12" font-family="Helvetica,sans-Serif" font-size="10.00">/Engine/Source/Runtime</text>
<text xml:space="preserve" text-anchor="start" x="1087.12" y="-121.38" font-family="Helvetica,sans-Serif" font-size="10.00">/Engine/Classes/PhysicsEngine</text>
<text xml:space="preserve" text-anchor="middle" x="1161.75" y="-108.62" font-family="Helvetica,sans-Serif" font-size="10.00">/PhysicsCollisionHandler.h</text>
</a>
</g>
</g>
<!-- Node6&#45;&gt;Node14 -->
<g id="edge13_Node000006_Node000014" class="edge">
<title>Node6&#45;&gt;Node14</title>
<g id="a_edge13_Node000006_Node000014"><a xlink:title=" ">
<path fill="none" stroke="#63b8ff" d="M662.58,-226.43C759.26,-219.19 928.68,-202.36 1069.75,-166.75 1076.46,-165.06 1083.35,-163.03 1090.19,-160.81"/>
<polygon fill="#63b8ff" stroke="#63b8ff" points="662.39,-222.94 652.67,-227.16 662.9,-229.92 662.39,-222.94"/>
</a>
</g>
</g>
<!-- Node10 -->
<g id="Node000010" class="node">
<title>Node10</title>
<g id="a_Node000010"><a xlink:href="$GameEngine_8h.html" xlink:title=" ">
<polygon fill="white" stroke="#666666" points="466.88,-59 334.62,-59 334.62,0 466.88,0 466.88,-59"/>
<text xml:space="preserve" text-anchor="start" x="342.62" y="-45.5" font-family="Helvetica,sans-Serif" font-size="10.00">/opt/unreal&#45;engine</text>
<text xml:space="preserve" text-anchor="start" x="342.62" y="-32.75" font-family="Helvetica,sans-Serif" font-size="10.00">/Engine/Source/Runtime</text>
<text xml:space="preserve" text-anchor="start" x="342.62" y="-20" font-family="Helvetica,sans-Serif" font-size="10.00">/Engine/Classes/Engine</text>
<text xml:space="preserve" text-anchor="middle" x="400.75" y="-7.25" font-family="Helvetica,sans-Serif" font-size="10.00">/GameEngine.h</text>
</a>
</g>
</g>
<!-- Node9&#45;&gt;Node10 -->
<g id="edge9_Node000009_Node000010" class="edge">
<title>Node9&#45;&gt;Node10</title>
<g id="a_edge9_Node000009_Node000010"><a xlink:title=" ">
<path fill="none" stroke="#63b8ff" d="M400.75,-89.87C400.75,-79.6 400.75,-68.75 400.75,-59.18"/>
<polygon fill="#63b8ff" stroke="#63b8ff" points="397.25,-89.62 400.75,-99.62 404.25,-89.62 397.25,-89.62"/>
</a>
</g>
</g>
</g>
</svg>
