<?xml version="1.0" encoding="UTF-8" standalone="no"?>
<!DOCTYPE svg PUBLIC "-//W3C//DTD SVG 1.1//EN"
 "http://www.w3.org/Graphics/SVG/1.1/DTD/svg11.dtd">
<!-- Generated by graphviz version 14.1.4 (0)
 -->
<!-- Title: ConsoleCommandLibrary_DumpLibrary Pages: 1 -->
<svg width="322pt" height="60pt"
 viewBox="0.00 0.00 322.00 60.00" xmlns="http://www.w3.org/2000/svg" xmlns:xlink="http://www.w3.org/1999/xlink">
<g id="graph0" class="graph" transform="scale(1 1) rotate(0) translate(4 55.5)">
<title>ConsoleCommandLibrary_DumpLibrary</title>
<!-- Node1 -->
<g id="Node000001" class="node">
<title>Node1</title>
<g id="a_Node000001"><a xlink:title=" ">
<polygon fill="#999999" stroke="#666666" points="314,-33.5 175,-33.5 175,0 314,0 314,-33.5"/>
<text xml:space="preserve" text-anchor="start" x="183" y="-20" font-family="Helvetica,sans-Serif" font-size="10.00">ConsoleCommandLibrary</text>
<text xml:space="preserve" text-anchor="middle" x="244.5" y="-7.25" font-family="Helvetica,sans-Serif" font-size="10.00">_DumpLibrary</text>
</a>
</g>
</g>
<!-- Node1&#45;&gt;Node1 -->
<g id="edge1_Node000001_Node000001" class="edge">
<title>Node1&#45;&gt;Node1</title>
<g id="a_edge1_Node000001_Node000001"><a xlink:title=" ">
<path fill="none" stroke="#63b8ff" d="M273.88,-44.89C269.1,-48.85 259.3,-51.5 244.5,-51.5 218.18,-51.5 207.7,-43.12 213.04,-33.91"/>
<polygon fill="#63b8ff" stroke="#63b8ff" points="277.26,-45.88 275.68,-35.4 270.38,-44.58 277.26,-45.88"/>
</a>
</g>
</g>
<!-- Node2 -->
<g id="Node000002" class="node">
<title>Node2</title>
<g id="a_Node000002"><a xlink:href="$Parse_8h.html#a8e3c5e5a6d65d1f25589a8202b3a4424" xlink:title=" ">
<polygon fill="white" stroke="#666666" points="139,-33.5 0,-33.5 0,0 139,0 139,-33.5"/>
<text xml:space="preserve" text-anchor="start" x="8" y="-20" font-family="Helvetica,sans-Serif" font-size="10.00">ConsoleCommandLibrary</text>
<text xml:space="preserve" text-anchor="middle" x="69.5" y="-7.25" font-family="Helvetica,sans-Serif" font-size="10.00">_DumpLibrary</text>
</a>
</g>
</g>
<!-- Node1&#45;&gt;Node2 -->
<g id="edge2_Node000001_Node000002" class="edge">
<title>Node1&#45;&gt;Node2</title>
<g id="a_edge2_Node000001_Node000002"><a xlink:title=" ">
<path fill="none" stroke="#63b8ff" d="M163.38,-16.75C155.38,-16.75 147.3,-16.75 139.42,-16.75"/>
<polygon fill="#63b8ff" stroke="#63b8ff" points="163.12,-20.25 173.12,-16.75 163.12,-13.25 163.12,-20.25"/>
</a>
</g>
</g>
</g>
</svg>
