<?xml version="1.0" encoding="UTF-8" standalone="no"?>
<!DOCTYPE svg PUBLIC "-//W3C//DTD SVG 1.1//EN"
 "http://www.w3.org/Graphics/SVG/1.1/DTD/svg11.dtd">
<!-- Generated by graphviz version 14.1.4 (0)
 -->
<!-- Title: /opt/unreal&#45;engine/Engine/Source/Runtime/Engine/Classes/Particles/Size/ParticleModuleSizeScaleBySpeed.h Pages: 1 -->
<!--zoomable 250 -->

<svg id="main" version="1.1" xmlns="http://www.w3.org/2000/svg" xmlns:xlink="http://www.w3.org/1999/xlink" xml:space="preserve" onload="init(evt)">

<style type="text/css"><![CDATA[
.node, .edge {opacity: 0.7;}
.node.selected, .edge.selected {opacity: 1;}
.edge:hover path { stroke: red; }
.edge:hover polygon { stroke: red; fill: red; }
]]></style>

<defs>
  <circle id="rim" cx="0" cy="0" r="7"/>
  <circle id="rim2" cx="0" cy="0" r="3.5"/>
  <g id="zoomPlus">
    <use xlink:href="#rim" fill="#404040"><set attributeName="fill" to="#808080" begin="zoomplus.mouseover" end="zoomplus.mouseout"/></use>
    <path d="M-4,0h8M0,-4v8" fill="none" stroke="white" stroke-width="1.5" pointer-events="none"/>
  </g>
  <g id="zoomMin">
    <use xlink:href="#rim" fill="#404040"><set attributeName="fill" to="#808080" begin="zoomminus.mouseover" end="zoomminus.mouseout"/></use>
    <path d="M-4,0h8" fill="none" stroke="white" stroke-width="1.5" pointer-events="none"/>
  </g>
  <g id="arrowUp" transform="translate(30 24)">
    <use xlink:href="#rim"/>
    <path pointer-events="none" fill="none" stroke="white" stroke-width="1.5" d="M0,-3.0v7 M-2.5,-0.5L0,-3.0L2.5,-0.5"/>
  </g>
  <g id="arrowRight" transform="rotate(90) translate(36 -43)">
    <use xlink:href="#rim"/>
    <path pointer-events="none" fill="none" stroke="white" stroke-width="1.5" d="M0,-3.0v7 M-2.5,-0.5L0,-3.0L2.5,-0.5"/>
  </g>
  <g id="arrowDown" transform="rotate(180) translate(-30 -48)">
    <use xlink:href="#rim"/>
    <path pointer-events="none" fill="none" stroke="white" stroke-width="1.5" d="M0,-3.0v7 M-2.5,-0.5L0,-3.0L2.5,-0.5"/>
  </g>
  <g id="arrowLeft" transform="rotate(270) translate(-36 17)">
    <use xlink:href="#rim"/>
    <path pointer-events="none" fill="none" stroke="white" stroke-width="1.5" d="M0,-3.0v7 M-2.5,-0.5L0,-3.0L2.5,-0.5"/>
  </g>
  <g id="resetDef">
    <use xlink:href="#rim2" fill="#404040"><set attributeName="fill" to="#808080" begin="reset.mouseover" end="reset.mouseout"/></use>
  </g>
</defs>
<script type="application/ecmascript">
var viewWidth = 714;
var viewHeight = 250;
var sectionId = 'dynsection-0';
</script>
<script type="application/ecmascript" xlink:href="svg.min.js"/>
<svg id="graph" class="graph">
<g id="viewport">
<title>/opt/unreal&#45;engine/Engine/Source/Runtime/Engine/Classes/Particles/Size/ParticleModuleSizeScaleBySpeed.h</title>
<!-- Node1 -->
<g id="Node000001" class="node">
<title>Node1</title>
<g id="a_Node000001"><a xlink:title=" ">
<polygon fill="#999999" stroke="#666666" points="567.25,-242 354,-242 354,-183 567.25,-183 567.25,-242"/>
<text xml:space="preserve" text-anchor="start" x="362" y="-228.5" font-family="Helvetica,sans-Serif" font-size="10.00">/opt/unreal&#45;engine</text>
<text xml:space="preserve" text-anchor="start" x="362" y="-215.75" font-family="Helvetica,sans-Serif" font-size="10.00">/Engine/Source/Runtime</text>
<text xml:space="preserve" text-anchor="start" x="362" y="-203" font-family="Helvetica,sans-Serif" font-size="10.00">/Engine/Classes/Particles</text>
<text xml:space="preserve" text-anchor="middle" x="460.62" y="-190.25" font-family="Helvetica,sans-Serif" font-size="10.00">/Size/ParticleModuleSizeScaleBySpeed.h</text>
</a>
</g>
</g>
<!-- Node2 -->
<g id="Node000002" class="node">
<title>Node2</title>
<g id="a_Node000002"><a xlink:title=" ">
<polygon fill="#e0e0e0" stroke="#999999" points="87.25,-20.75 0,-20.75 0,0 87.25,0 87.25,-20.75"/>
<text xml:space="preserve" text-anchor="middle" x="43.62" y="-7.25" font-family="Helvetica,sans-Serif" font-size="10.00">CoreMinimal.h</text>
</a>
</g>
</g>
<!-- Node1&#45;&gt;Node2 -->
<g id="edge1_Node000001_Node000002" class="edge">
<title>Node1&#45;&gt;Node2</title>
<g id="a_edge1_Node000001_Node000002"><a xlink:title=" ">
<path fill="none" stroke="#63b8ff" d="M353.52,-202.59C263.92,-189.51 138.83,-157.21 62.62,-77.5 51.01,-65.35 46.42,-46.57 44.65,-32.12"/>
<polygon fill="#63b8ff" stroke="#63b8ff" points="48.15,-32 43.83,-22.33 41.17,-32.58 48.15,-32"/>
</a>
</g>
</g>
<!-- Node3 -->
<g id="Node000003" class="node">
<title>Node3</title>
<g id="a_Node000003"><a xlink:title=" ">
<polygon fill="#e0e0e0" stroke="#999999" points="635.5,-20.75 501.75,-20.75 501.75,0 635.5,0 635.5,-20.75"/>
<text xml:space="preserve" text-anchor="middle" x="568.62" y="-7.25" font-family="Helvetica,sans-Serif" font-size="10.00">UObject/ObjectMacros.h</text>
</a>
</g>
</g>
<!-- Node1&#45;&gt;Node3 -->
<g id="edge2_Node000001_Node000003" class="edge">
<title>Node1&#45;&gt;Node3</title>
<g id="a_edge2_Node000001_Node000003"><a xlink:title=" ">
<path fill="none" stroke="#63b8ff" d="M476.1,-182.83C498.31,-141.67 538.66,-66.9 557.89,-31.28"/>
<polygon fill="#63b8ff" stroke="#63b8ff" points="560.95,-32.97 562.62,-22.51 554.79,-29.65 560.95,-32.97"/>
</a>
</g>
</g>
<!-- Node4 -->
<g id="Node000004" class="node">
<title>Node4</title>
<g id="a_Node000004"><a xlink:href="ParticleModuleSizeBase_8h.html" target="_top" xlink:title=" ">
<polygon fill="white" stroke="#666666" points="471.12,-147 314.12,-147 314.12,-113.5 471.12,-113.5 471.12,-147"/>
<text xml:space="preserve" text-anchor="start" x="322.12" y="-133.5" font-family="Helvetica,sans-Serif" font-size="10.00">Particles/Size/ParticleModule</text>
<text xml:space="preserve" text-anchor="middle" x="392.62" y="-120.75" font-family="Helvetica,sans-Serif" font-size="10.00">SizeBase.h</text>
</a>
</g>
</g>
<!-- Node1&#45;&gt;Node4 -->
<g id="edge3_Node000001_Node000004" class="edge">
<title>Node1&#45;&gt;Node4</title>
<g id="a_edge3_Node000001_Node000004"><a xlink:title=" ">
<path fill="none" stroke="#63b8ff" d="M436.08,-182.53C428.7,-173.82 420.68,-164.36 413.56,-155.96"/>
<polygon fill="#63b8ff" stroke="#63b8ff" points="416.38,-153.87 407.24,-148.5 411.04,-158.39 416.38,-153.87"/>
</a>
</g>
</g>
<!-- Node10 -->
<g id="Node000010" class="node">
<title>Node10</title>
<g id="a_Node000010"><a xlink:title=" ">
<polygon fill="#e0e0e0" stroke="#999999" points="705.62,-147 557.62,-147 557.62,-113.5 705.62,-113.5 705.62,-147"/>
<text xml:space="preserve" text-anchor="start" x="565.62" y="-133.5" font-family="Helvetica,sans-Serif" font-size="10.00">ParticleModuleSizeScaleBy</text>
<text xml:space="preserve" text-anchor="middle" x="631.62" y="-120.75" font-family="Helvetica,sans-Serif" font-size="10.00">Speed.generated.h</text>
</a>
</g>
</g>
<!-- Node1&#45;&gt;Node10 -->
<g id="edge13_Node000001_Node000010" class="edge">
<title>Node1&#45;&gt;Node10</title>
<g id="a_edge13_Node000001_Node000010"><a xlink:title=" ">
<path fill="none" stroke="#63b8ff" d="M522.36,-182.53C543.77,-172.48 567.34,-161.42 587.09,-152.15"/>
<polygon fill="#63b8ff" stroke="#63b8ff" points="588.39,-155.4 595.96,-147.99 585.42,-149.07 588.39,-155.4"/>
</a>
</g>
</g>
<!-- Node4&#45;&gt;Node2 -->
<g id="edge4_Node000004_Node000002" class="edge">
<title>Node4&#45;&gt;Node2</title>
<g id="a_edge4_Node000004_Node000002"><a xlink:title=" ">
<path fill="none" stroke="#63b8ff" d="M367.33,-113.05C335.67,-92.87 284.39,-60.57 274.62,-56.75 258.42,-50.42 161.57,-32.44 98.53,-21.1"/>
<polygon fill="#63b8ff" stroke="#63b8ff" points="99.52,-17.72 89.06,-19.4 98.28,-24.61 99.52,-17.72"/>
</a>
</g>
</g>
<!-- Node4&#45;&gt;Node3 -->
<g id="edge5_Node000004_Node000003" class="edge">
<title>Node4&#45;&gt;Node3</title>
<g id="a_edge5_Node000004_Node000003"><a xlink:title=" ">
<path fill="none" stroke="#63b8ff" d="M417.97,-113.12C433.76,-103 454.47,-89.62 472.62,-77.5 497.71,-60.75 526.12,-41.1 545.48,-27.59"/>
<polygon fill="#63b8ff" stroke="#63b8ff" points="547.29,-30.6 553.48,-22.01 543.28,-24.86 547.29,-30.6"/>
</a>
</g>
</g>
<!-- Node5 -->
<g id="Node000005" class="node">
<title>Node5</title>
<g id="a_Node000005"><a xlink:href="ParticleModule_8h.html" target="_top" xlink:title=" ">
<polygon fill="white" stroke="#666666" points="464,-77.5 321.25,-77.5 321.25,-56.75 464,-56.75 464,-77.5"/>
<text xml:space="preserve" text-anchor="middle" x="392.62" y="-64" font-family="Helvetica,sans-Serif" font-size="10.00">Particles/ParticleModule.h</text>
</a>
</g>
</g>
<!-- Node4&#45;&gt;Node5 -->
<g id="edge6_Node000004_Node000005" class="edge">
<title>Node4&#45;&gt;Node5</title>
<g id="a_edge6_Node000004_Node000005"><a xlink:title=" ">
<path fill="none" stroke="#63b8ff" d="M392.62,-113.19C392.62,-105.85 392.62,-97.07 392.62,-89.21"/>
<polygon fill="#63b8ff" stroke="#63b8ff" points="396.13,-89.48 392.63,-79.48 389.13,-89.48 396.13,-89.48"/>
</a>
</g>
</g>
<!-- Node9 -->
<g id="Node000009" class="node">
<title>Node9</title>
<g id="a_Node000009"><a xlink:title=" ">
<polygon fill="#e0e0e0" stroke="#999999" points="265.88,-77.5 71.38,-77.5 71.38,-56.75 265.88,-56.75 265.88,-77.5"/>
<text xml:space="preserve" text-anchor="middle" x="168.62" y="-64" font-family="Helvetica,sans-Serif" font-size="10.00">ParticleModuleSizeBase.generated.h</text>
</a>
</g>
</g>
<!-- Node4&#45;&gt;Node9 -->
<g id="edge12_Node000004_Node000009" class="edge">
<title>Node4&#45;&gt;Node9</title>
<g id="a_edge12_Node000004_Node000009"><a xlink:title=" ">
<path fill="none" stroke="#63b8ff" d="M333.19,-113.03C296.39,-102.99 249.8,-90.28 215.6,-80.94"/>
<polygon fill="#63b8ff" stroke="#63b8ff" points="216.53,-77.57 205.96,-78.31 214.69,-84.32 216.53,-77.57"/>
</a>
</g>
</g>
<!-- Node5&#45;&gt;Node2 -->
<g id="edge7_Node000005_Node000002" class="edge">
<title>Node5&#45;&gt;Node2</title>
<g id="a_edge7_Node000005_Node000002"><a xlink:title=" ">
<path fill="none" stroke="#63b8ff" d="M325.55,-56.29C268.09,-47.76 182.82,-34.87 98.87,-21.09"/>
<polygon fill="#63b8ff" stroke="#63b8ff" points="99.5,-17.65 89.06,-19.47 98.36,-24.55 99.5,-17.65"/>
</a>
</g>
</g>
<!-- Node5&#45;&gt;Node3 -->
<g id="edge8_Node000005_Node000003" class="edge">
<title>Node5&#45;&gt;Node3</title>
<g id="a_edge8_Node000005_Node000003"><a xlink:title=" ">
<path fill="none" stroke="#63b8ff" d="M424.09,-56.34C452.66,-47.45 495.01,-34.27 526.49,-24.48"/>
<polygon fill="#63b8ff" stroke="#63b8ff" points="527.18,-27.93 535.69,-21.62 525.1,-21.25 527.18,-27.93"/>
</a>
</g>
</g>
<!-- Node6 -->
<g id="Node000006" class="node">
<title>Node6</title>
<g id="a_Node000006"><a xlink:title=" ">
<polygon fill="#e0e0e0" stroke="#999999" points="483.88,-20.75 385.38,-20.75 385.38,0 483.88,0 483.88,-20.75"/>
<text xml:space="preserve" text-anchor="middle" x="434.62" y="-7.25" font-family="Helvetica,sans-Serif" font-size="10.00">UObject/Object.h</text>
</a>
</g>
</g>
<!-- Node5&#45;&gt;Node6 -->
<g id="edge9_Node000005_Node000006" class="edge">
<title>Node5&#45;&gt;Node6</title>
<g id="a_edge9_Node000005_Node000006"><a xlink:title=" ">
<path fill="none" stroke="#63b8ff" d="M400.13,-56.34C405.75,-49.02 413.59,-38.79 420.38,-29.94"/>
<polygon fill="#63b8ff" stroke="#63b8ff" points="422.95,-32.34 426.26,-22.28 417.4,-28.08 422.95,-32.34"/>
</a>
</g>
</g>
<!-- Node7 -->
<g id="Node000007" class="node">
<title>Node7</title>
<g id="a_Node000007"><a xlink:title=" ">
<polygon fill="#e0e0e0" stroke="#999999" points="199.62,-20.75 105.62,-20.75 105.62,0 199.62,0 199.62,-20.75"/>
<text xml:space="preserve" text-anchor="middle" x="152.62" y="-7.25" font-family="Helvetica,sans-Serif" font-size="10.00">ParticleHelper.h</text>
</a>
</g>
</g>
<!-- Node5&#45;&gt;Node7 -->
<g id="edge10_Node000005_Node000007" class="edge">
<title>Node5&#45;&gt;Node7</title>
<g id="a_edge10_Node000005_Node000007"><a xlink:title=" ">
<path fill="none" stroke="#63b8ff" d="M349.44,-56.27C309.55,-47.17 250.12,-33.62 207.01,-23.78"/>
<polygon fill="#63b8ff" stroke="#63b8ff" points="207.87,-20.39 197.34,-21.58 206.31,-27.21 207.87,-20.39"/>
</a>
</g>
</g>
<!-- Node8 -->
<g id="Node000008" class="node">
<title>Node8</title>
<g id="a_Node000008"><a xlink:title=" ">
<polygon fill="#e0e0e0" stroke="#999999" points="367.75,-20.75 217.5,-20.75 217.5,0 367.75,0 367.75,-20.75"/>
<text xml:space="preserve" text-anchor="middle" x="292.62" y="-7.25" font-family="Helvetica,sans-Serif" font-size="10.00">ParticleModule.generated.h</text>
</a>
</g>
</g>
<!-- Node5&#45;&gt;Node8 -->
<g id="edge11_Node000005_Node000008" class="edge">
<title>Node5&#45;&gt;Node8</title>
<g id="a_edge11_Node000005_Node000008"><a xlink:title=" ">
<path fill="none" stroke="#63b8ff" d="M374.75,-56.34C359.53,-48.01 337.43,-35.91 319.99,-26.36"/>
<polygon fill="#63b8ff" stroke="#63b8ff" points="322.13,-23.54 311.68,-21.81 318.77,-29.68 322.13,-23.54"/>
</a>
</g>
</g>
</g>
</svg>

<g id="navigator" transform="translate(0 0)" fill="#404254">
  <rect fill="#f2f5e9" fill-opacity="0.5" stroke="#606060" stroke-width=".5" x="0" y="0" width="60" height="60"/>
  <use id="zoomplus" xlink:href="#zoomPlus" x="17" y="9" onmousedown="handleZoom(evt,'in')"/>
  <use id="zoomminus" xlink:href="#zoomMin" x="42" y="9" onmousedown="handleZoom(evt,'out')"/>
  <use id="reset" xlink:href="#resetDef" x="30" y="36" onmousedown="handleReset()"/>
   <use id="arrowup" xlink:href="#arrowUp" x="0" y="0" onmousedown="handlePan(0,-1)"/>
  <use id="arrowright" xlink:href="#arrowRight" x="0" y="0" onmousedown="handlePan(1,0)"/>
  <use id="arrowdown" xlink:href="#arrowDown" x="0" y="0" onmousedown="handlePan(0,1)"/>
  <use id="arrowleft" xlink:href="#arrowLeft" x="0" y="0" onmousedown="handlePan(-1,0)"/>
</g>
<svg viewBox="0 0 15 15" width="100%" height="30px" preserveAspectRatio="xMaxYMin meet">
 <g id="arrow_out" transform="scale(0.3 0.3)">
  <a xlink:href="ParticleModuleSizeScaleBySpeed_8h__incl_org.svg" target="_base">
   <rect id="button" ry="5" rx="5" y="6" x="6" height="38" width="38"
        fill="#f2f5e9" fill-opacity="0.5" stroke="#606060" stroke-width="1.0"/>
   <path id="arrow"
     d="M 11.500037,31.436501 C 11.940474,20.09759 22.043105,11.32322 32.158766,21.979434 L 37.068811,17.246167 C 37.068811,17.246167 37.088388,32 37.088388,32 L 22.160133,31.978069 C 22.160133,31.978069 26.997745,27.140456 26.997745,27.140456 C 18.528582,18.264221 13.291696,25.230495 11.500037,31.436501 z"
     style="fill:#404040;"/>
  </a>
 </g>
</svg>

<style type='text/css'>
<![CDATA[
[data-mouse-over-selected='false'] { opacity: 0.7; }
[data-mouse-over-selected='true']  { opacity: 1.0; }
]]>
</style>
<script type="application/ecmascript"><![CDATA[
document.addEventListener('DOMContentLoaded', (event) => {
  highlightEdges();
  highlightAdjacentNodes();
});
]]></script>
</svg>
