<?xml version="1.0" encoding="UTF-8" standalone="no"?>
<!DOCTYPE svg PUBLIC "-//W3C//DTD SVG 1.1//EN"
 "http://www.w3.org/Graphics/SVG/1.1/DTD/svg11.dtd">
<!-- Generated by graphviz version 14.1.4 (0)
 -->
<!-- Title: /opt/unreal&#45;engine/Engine/Source/Runtime/Engine/Classes/Particles/VectorField/ParticleModuleVectorFieldLocal.h Pages: 1 -->
<svg width="656pt" height="276pt"
 viewBox="0.00 0.00 656.00 276.00" xmlns="http://www.w3.org/2000/svg" xmlns:xlink="http://www.w3.org/1999/xlink">
<g id="graph0" class="graph" transform="scale(1 1) rotate(0) translate(4 271.5)">
<title>/opt/unreal&#45;engine/Engine/Source/Runtime/Engine/Classes/Particles/VectorField/ParticleModuleVectorFieldLocal.h</title>
<!-- Node1 -->
<g id="Node000001" class="node">
<title>Node1</title>
<g id="a_Node000001"><a xlink:title=" ">
<polygon fill="#999999" stroke="#666666" points="498.75,-267.5 318.5,-267.5 318.5,-195.75 498.75,-195.75 498.75,-267.5"/>
<text xml:space="preserve" text-anchor="start" x="326.5" y="-254" font-family="Helvetica,sans-Serif" font-size="10.00">/opt/unreal&#45;engine</text>
<text xml:space="preserve" text-anchor="start" x="326.5" y="-241.25" font-family="Helvetica,sans-Serif" font-size="10.00">/Engine/Source/Runtime</text>
<text xml:space="preserve" text-anchor="start" x="326.5" y="-228.5" font-family="Helvetica,sans-Serif" font-size="10.00">/Engine/Classes/Particles</text>
<text xml:space="preserve" text-anchor="start" x="326.5" y="-215.75" font-family="Helvetica,sans-Serif" font-size="10.00">/VectorField/ParticleModuleVector</text>
<text xml:space="preserve" text-anchor="middle" x="408.62" y="-203" font-family="Helvetica,sans-Serif" font-size="10.00">FieldLocal.h</text>
</a>
</g>
</g>
<!-- Node2 -->
<g id="Node000002" class="node">
<title>Node2</title>
<g id="a_Node000002"><a xlink:title=" ">
<polygon fill="#e0e0e0" stroke="#999999" points="87.25,-20.75 0,-20.75 0,0 87.25,0 87.25,-20.75"/>
<text xml:space="preserve" text-anchor="middle" x="43.62" y="-7.25" font-family="Helvetica,sans-Serif" font-size="10.00">CoreMinimal.h</text>
</a>
</g>
</g>
<!-- Node1&#45;&gt;Node2 -->
<g id="edge1_Node000001_Node000002" class="edge">
<title>Node1&#45;&gt;Node2</title>
<g id="a_edge1_Node000001_Node000002"><a xlink:title=" ">
<path fill="none" stroke="#63b8ff" d="M318.25,-217.48C239.38,-201.22 127.66,-165.78 62.62,-90.25 48.86,-74.27 44.7,-49.99 43.61,-32.6"/>
<polygon fill="#63b8ff" stroke="#63b8ff" points="47.11,-32.53 43.32,-22.64 40.12,-32.74 47.11,-32.53"/>
</a>
</g>
</g>
<!-- Node3 -->
<g id="Node000003" class="node">
<title>Node3</title>
<g id="a_Node000003"><a xlink:title=" ">
<polygon fill="#e0e0e0" stroke="#999999" points="635.5,-20.75 501.75,-20.75 501.75,0 635.5,0 635.5,-20.75"/>
<text xml:space="preserve" text-anchor="middle" x="568.62" y="-7.25" font-family="Helvetica,sans-Serif" font-size="10.00">UObject/ObjectMacros.h</text>
</a>
</g>
</g>
<!-- Node1&#45;&gt;Node3 -->
<g id="edge2_Node000001_Node000003" class="edge">
<title>Node1&#45;&gt;Node3</title>
<g id="a_edge2_Node000001_Node000003"><a xlink:title=" ">
<path fill="none" stroke="#63b8ff" d="M434.33,-195.4C468.73,-148.26 528.48,-66.38 555.13,-29.87"/>
<polygon fill="#63b8ff" stroke="#63b8ff" points="557.76,-32.21 560.82,-22.06 552.1,-28.08 557.76,-32.21"/>
</a>
</g>
</g>
<!-- Node4 -->
<g id="Node000004" class="node">
<title>Node4</title>
<g id="a_Node000004"><a xlink:href="ParticleModuleVectorFieldBase_8h.html" target="_top" xlink:title=" ">
<polygon fill="white" stroke="#666666" points="430,-159.75 251.25,-159.75 251.25,-126.25 430,-126.25 430,-159.75"/>
<text xml:space="preserve" text-anchor="start" x="259.25" y="-146.25" font-family="Helvetica,sans-Serif" font-size="10.00">Particles/VectorField</text>
<text xml:space="preserve" text-anchor="middle" x="340.62" y="-133.5" font-family="Helvetica,sans-Serif" font-size="10.00">/ParticleModuleVectorFieldBase.h</text>
</a>
</g>
</g>
<!-- Node1&#45;&gt;Node4 -->
<g id="edge3_Node000001_Node000004" class="edge">
<title>Node1&#45;&gt;Node4</title>
<g id="a_edge3_Node000001_Node000004"><a xlink:title=" ">
<path fill="none" stroke="#63b8ff" d="M380.97,-195.39C374.1,-186.64 366.87,-177.43 360.45,-169.26"/>
<polygon fill="#63b8ff" stroke="#63b8ff" points="363.24,-167.14 354.31,-161.43 357.73,-171.46 363.24,-167.14"/>
</a>
</g>
</g>
<!-- Node10 -->
<g id="Node000010" class="node">
<title>Node10</title>
<g id="a_Node000010"><a xlink:title=" ">
<polygon fill="#e0e0e0" stroke="#999999" points="648,-159.75 505.25,-159.75 505.25,-126.25 648,-126.25 648,-159.75"/>
<text xml:space="preserve" text-anchor="start" x="513.25" y="-146.25" font-family="Helvetica,sans-Serif" font-size="10.00">ParticleModuleVectorField</text>
<text xml:space="preserve" text-anchor="middle" x="576.62" y="-133.5" font-family="Helvetica,sans-Serif" font-size="10.00">Local.generated.h</text>
</a>
</g>
</g>
<!-- Node1&#45;&gt;Node10 -->
<g id="edge13_Node000001_Node000010" class="edge">
<title>Node1&#45;&gt;Node10</title>
<g id="a_edge13_Node000001_Node000010"><a xlink:title=" ">
<path fill="none" stroke="#63b8ff" d="M476.96,-195.39C496.7,-185.21 517.64,-174.41 535.21,-165.36"/>
<polygon fill="#63b8ff" stroke="#63b8ff" points="536.49,-168.63 543.78,-160.94 533.29,-162.41 536.49,-168.63"/>
</a>
</g>
</g>
<!-- Node4&#45;&gt;Node2 -->
<g id="edge4_Node000004_Node000002" class="edge">
<title>Node4&#45;&gt;Node2</title>
<g id="a_edge4_Node000004_Node000002"><a xlink:title=" ">
<path fill="none" stroke="#63b8ff" d="M313.65,-125.94C297.81,-116.18 277.63,-103.14 260.62,-90.25 242.68,-76.65 242.54,-67.25 222.62,-56.75 201.24,-45.47 142.89,-31.72 98.57,-22.34"/>
<polygon fill="#63b8ff" stroke="#63b8ff" points="99.34,-18.92 88.84,-20.3 97.91,-25.77 99.34,-18.92"/>
</a>
</g>
</g>
<!-- Node4&#45;&gt;Node3 -->
<g id="edge5_Node000004_Node000003" class="edge">
<title>Node4&#45;&gt;Node3</title>
<g id="a_edge5_Node000004_Node000003"><a xlink:title=" ">
<path fill="none" stroke="#63b8ff" d="M366.95,-125.79C382.74,-115.86 403.1,-102.71 420.62,-90.25 440.37,-76.21 442.78,-69.1 463.62,-56.75 484.77,-44.22 510.01,-33.2 530.44,-25.16"/>
<polygon fill="#63b8ff" stroke="#63b8ff" points="531.45,-28.52 539.53,-21.67 528.94,-21.99 531.45,-28.52"/>
</a>
</g>
</g>
<!-- Node5 -->
<g id="Node000005" class="node">
<title>Node5</title>
<g id="a_Node000005"><a xlink:href="ParticleModule_8h.html" target="_top" xlink:title=" ">
<polygon fill="white" stroke="#666666" points="412,-83.88 269.25,-83.88 269.25,-63.12 412,-63.12 412,-83.88"/>
<text xml:space="preserve" text-anchor="middle" x="340.62" y="-70.38" font-family="Helvetica,sans-Serif" font-size="10.00">Particles/ParticleModule.h</text>
</a>
</g>
</g>
<!-- Node4&#45;&gt;Node5 -->
<g id="edge6_Node000004_Node000005" class="edge">
<title>Node4&#45;&gt;Node5</title>
<g id="a_edge6_Node000004_Node000005"><a xlink:title=" ">
<path fill="none" stroke="#63b8ff" d="M340.62,-126C340.62,-116.9 340.62,-105.39 340.62,-95.57"/>
<polygon fill="#63b8ff" stroke="#63b8ff" points="344.13,-95.84 340.63,-85.84 337.13,-95.84 344.13,-95.84"/>
</a>
</g>
</g>
<!-- Node9 -->
<g id="Node000009" class="node">
<title>Node9</title>
<g id="a_Node000009"><a xlink:title=" ">
<polygon fill="#e0e0e0" stroke="#999999" points="214,-90.25 71.25,-90.25 71.25,-56.75 214,-56.75 214,-90.25"/>
<text xml:space="preserve" text-anchor="start" x="79.25" y="-76.75" font-family="Helvetica,sans-Serif" font-size="10.00">ParticleModuleVectorField</text>
<text xml:space="preserve" text-anchor="middle" x="142.62" y="-64" font-family="Helvetica,sans-Serif" font-size="10.00">Base.generated.h</text>
</a>
</g>
</g>
<!-- Node4&#45;&gt;Node9 -->
<g id="edge12_Node000004_Node000009" class="edge">
<title>Node4&#45;&gt;Node9</title>
<g id="a_edge12_Node000004_Node000009"><a xlink:title=" ">
<path fill="none" stroke="#63b8ff" d="M293.2,-125.83C265.38,-116.35 230.03,-104.3 200.57,-94.25"/>
<polygon fill="#63b8ff" stroke="#63b8ff" points="202.03,-91.06 191.44,-91.14 199.77,-97.68 202.03,-91.06"/>
</a>
</g>
</g>
<!-- Node5&#45;&gt;Node2 -->
<g id="edge7_Node000005_Node000002" class="edge">
<title>Node5&#45;&gt;Node2</title>
<g id="a_edge7_Node000005_Node000002"><a xlink:title=" ">
<path fill="none" stroke="#63b8ff" d="M292.91,-62.68C239.83,-51.76 154.22,-34.14 98.44,-22.66"/>
<polygon fill="#63b8ff" stroke="#63b8ff" points="99.34,-19.27 88.84,-20.68 97.93,-26.12 99.34,-19.27"/>
</a>
</g>
</g>
<!-- Node5&#45;&gt;Node3 -->
<g id="edge8_Node000005_Node000003" class="edge">
<title>Node5&#45;&gt;Node3</title>
<g id="a_edge8_Node000005_Node000003"><a xlink:title=" ">
<path fill="none" stroke="#63b8ff" d="M377.26,-62.68C416.31,-52.21 478.31,-35.59 521.1,-24.12"/>
<polygon fill="#63b8ff" stroke="#63b8ff" points="521.87,-27.53 530.62,-21.56 520.06,-20.77 521.87,-27.53"/>
</a>
</g>
</g>
<!-- Node6 -->
<g id="Node000006" class="node">
<title>Node6</title>
<g id="a_Node000006"><a xlink:title=" ">
<polygon fill="#e0e0e0" stroke="#999999" points="483.88,-20.75 385.38,-20.75 385.38,0 483.88,0 483.88,-20.75"/>
<text xml:space="preserve" text-anchor="middle" x="434.62" y="-7.25" font-family="Helvetica,sans-Serif" font-size="10.00">UObject/Object.h</text>
</a>
</g>
</g>
<!-- Node5&#45;&gt;Node6 -->
<g id="edge9_Node000005_Node000006" class="edge">
<title>Node5&#45;&gt;Node6</title>
<g id="a_edge9_Node000005_Node000006"><a xlink:title=" ">
<path fill="none" stroke="#63b8ff" d="M355.73,-62.68C370.39,-53.14 392.9,-38.51 410.13,-27.31"/>
<polygon fill="#63b8ff" stroke="#63b8ff" points="411.82,-30.38 418.29,-22 408,-24.51 411.82,-30.38"/>
</a>
</g>
</g>
<!-- Node7 -->
<g id="Node000007" class="node">
<title>Node7</title>
<g id="a_Node000007"><a xlink:title=" ">
<polygon fill="#e0e0e0" stroke="#999999" points="199.62,-20.75 105.62,-20.75 105.62,0 199.62,0 199.62,-20.75"/>
<text xml:space="preserve" text-anchor="middle" x="152.62" y="-7.25" font-family="Helvetica,sans-Serif" font-size="10.00">ParticleHelper.h</text>
</a>
</g>
</g>
<!-- Node5&#45;&gt;Node7 -->
<g id="edge10_Node000005_Node000007" class="edge">
<title>Node5&#45;&gt;Node7</title>
<g id="a_edge10_Node000005_Node000007"><a xlink:title=" ">
<path fill="none" stroke="#63b8ff" d="M310.42,-62.68C278.76,-52.39 228.83,-36.15 193.63,-24.71"/>
<polygon fill="#63b8ff" stroke="#63b8ff" points="194.79,-21.4 184.19,-21.64 192.62,-28.06 194.79,-21.4"/>
</a>
</g>
</g>
<!-- Node8 -->
<g id="Node000008" class="node">
<title>Node8</title>
<g id="a_Node000008"><a xlink:title=" ">
<polygon fill="#e0e0e0" stroke="#999999" points="367.75,-20.75 217.5,-20.75 217.5,0 367.75,0 367.75,-20.75"/>
<text xml:space="preserve" text-anchor="middle" x="292.62" y="-7.25" font-family="Helvetica,sans-Serif" font-size="10.00">ParticleModule.generated.h</text>
</a>
</g>
</g>
<!-- Node5&#45;&gt;Node8 -->
<g id="edge11_Node000005_Node000008" class="edge">
<title>Node5&#45;&gt;Node8</title>
<g id="a_edge11_Node000005_Node000008"><a xlink:title=" ">
<path fill="none" stroke="#63b8ff" d="M332.91,-62.68C326.01,-53.89 315.72,-40.78 307.26,-30.01"/>
<polygon fill="#63b8ff" stroke="#63b8ff" points="310.02,-27.86 301.09,-22.16 304.52,-32.19 310.02,-27.86"/>
</a>
</g>
</g>
</g>
</svg>
