<?xml version="1.0" encoding="UTF-8" standalone="no"?>
<!DOCTYPE svg PUBLIC "-//W3C//DTD SVG 1.1//EN"
 "http://www.w3.org/Graphics/SVG/1.1/DTD/svg11.dtd">
<!-- Generated by graphviz version 14.1.4 (0)
 -->
<!-- Title: /opt/unreal&#45;engine/Engine/Source/Runtime/Engine/Classes/Particles/Size/ParticleModuleSize_Seeded.h Pages: 1 -->
<svg width="1429pt" height="332pt"
 viewBox="0.00 0.00 1429.00 332.00" xmlns="http://www.w3.org/2000/svg" xmlns:xlink="http://www.w3.org/1999/xlink">
<g id="graph0" class="graph" transform="scale(1 1) rotate(0) translate(4 328.25)">
<title>/opt/unreal&#45;engine/Engine/Source/Runtime/Engine/Classes/Particles/Size/ParticleModuleSize_Seeded.h</title>
<!-- Node1 -->
<g id="Node000001" class="node">
<title>Node1</title>
<g id="a_Node000001"><a xlink:title=" ">
<polygon fill="#999999" stroke="#666666" points="1118.36,-324.25 980.86,-324.25 980.86,-252.5 1118.36,-252.5 1118.36,-324.25"/>
<text xml:space="preserve" text-anchor="start" x="988.86" y="-310.75" font-family="Helvetica,sans-Serif" font-size="10.00">/opt/unreal&#45;engine</text>
<text xml:space="preserve" text-anchor="start" x="988.86" y="-298" font-family="Helvetica,sans-Serif" font-size="10.00">/Engine/Source/Runtime</text>
<text xml:space="preserve" text-anchor="start" x="988.86" y="-285.25" font-family="Helvetica,sans-Serif" font-size="10.00">/Engine/Classes/Particles</text>
<text xml:space="preserve" text-anchor="start" x="988.86" y="-272.5" font-family="Helvetica,sans-Serif" font-size="10.00">/Size/ParticleModuleSize</text>
<text xml:space="preserve" text-anchor="middle" x="1049.61" y="-259.75" font-family="Helvetica,sans-Serif" font-size="10.00">_Seeded.h</text>
</a>
</g>
</g>
<!-- Node2 -->
<g id="Node000002" class="node">
<title>Node2</title>
<g id="a_Node000002"><a xlink:title=" ">
<polygon fill="#e0e0e0" stroke="#999999" points="279.24,-20.75 191.99,-20.75 191.99,0 279.24,0 279.24,-20.75"/>
<text xml:space="preserve" text-anchor="middle" x="235.61" y="-7.25" font-family="Helvetica,sans-Serif" font-size="10.00">CoreMinimal.h</text>
</a>
</g>
</g>
<!-- Node1&#45;&gt;Node2 -->
<g id="edge1_Node000001_Node000002" class="edge">
<title>Node1&#45;&gt;Node2</title>
<g id="a_edge1_Node000001_Node000002"><a xlink:title=" ">
<path fill="none" stroke="#63b8ff" d="M980.59,-283.21C759.04,-269.17 76.6,-220.24 12.61,-147 -42.47,-83.96 98.11,-41.27 180.62,-22.39"/>
<polygon fill="#63b8ff" stroke="#63b8ff" points="181.13,-25.86 190.12,-20.27 179.6,-19.03 181.13,-25.86"/>
</a>
</g>
</g>
<!-- Node3 -->
<g id="Node000003" class="node">
<title>Node3</title>
<g id="a_Node000003"><a xlink:title=" ">
<polygon fill="#e0e0e0" stroke="#999999" points="1059.49,-20.75 925.74,-20.75 925.74,0 1059.49,0 1059.49,-20.75"/>
<text xml:space="preserve" text-anchor="middle" x="992.61" y="-7.25" font-family="Helvetica,sans-Serif" font-size="10.00">UObject/ObjectMacros.h</text>
</a>
</g>
</g>
<!-- Node1&#45;&gt;Node3 -->
<g id="edge2_Node000001_Node000003" class="edge">
<title>Node1&#45;&gt;Node3</title>
<g id="a_edge2_Node000001_Node000003"><a xlink:title=" ">
<path fill="none" stroke="#63b8ff" d="M1112.62,-252.07C1185.96,-206.54 1290.26,-125.06 1233.61,-56.75 1223.11,-44.09 1137.45,-30.17 1071.2,-21.14"/>
<polygon fill="#63b8ff" stroke="#63b8ff" points="1071.8,-17.69 1061.42,-19.82 1070.86,-24.62 1071.8,-17.69"/>
</a>
</g>
</g>
<!-- Node4 -->
<g id="Node000004" class="node">
<title>Node4</title>
<g id="a_Node000004"><a xlink:href="ParticleModuleSize_8h.html" target="_top" xlink:title=" ">
<polygon fill="white" stroke="#666666" points="727.11,-216.5 570.11,-216.5 570.11,-183 727.11,-183 727.11,-216.5"/>
<text xml:space="preserve" text-anchor="start" x="578.11" y="-203" font-family="Helvetica,sans-Serif" font-size="10.00">Particles/Size/ParticleModule</text>
<text xml:space="preserve" text-anchor="middle" x="648.61" y="-190.25" font-family="Helvetica,sans-Serif" font-size="10.00">Size.h</text>
</a>
</g>
</g>
<!-- Node1&#45;&gt;Node4 -->
<g id="edge3_Node000001_Node000004" class="edge">
<title>Node1&#45;&gt;Node4</title>
<g id="a_edge3_Node000001_Node000004"><a xlink:title=" ">
<path fill="none" stroke="#63b8ff" d="M980.68,-272.48C912.63,-257.78 808.37,-235.26 734.87,-219.38"/>
<polygon fill="#63b8ff" stroke="#63b8ff" points="735.79,-216 725.28,-217.31 734.31,-222.84 735.79,-216"/>
</a>
</g>
</g>
<!-- Node18 -->
<g id="Node000018" class="node">
<title>Node18</title>
<g id="a_Node000018"><a xlink:title=" ">
<polygon fill="#e0e0e0" stroke="#999999" points="1420.99,-216.5 1302.24,-216.5 1302.24,-183 1420.99,-183 1420.99,-216.5"/>
<text xml:space="preserve" text-anchor="start" x="1310.24" y="-203" font-family="Helvetica,sans-Serif" font-size="10.00">ParticleModuleSize</text>
<text xml:space="preserve" text-anchor="middle" x="1361.61" y="-190.25" font-family="Helvetica,sans-Serif" font-size="10.00">_Seeded.generated.h</text>
</a>
</g>
</g>
<!-- Node1&#45;&gt;Node18 -->
<g id="edge29_Node000001_Node000018" class="edge">
<title>Node1&#45;&gt;Node18</title>
<g id="a_edge29_Node000001_Node000018"><a xlink:title=" ">
<path fill="none" stroke="#63b8ff" d="M1118.86,-268.15C1170.46,-253.82 1240.62,-234.34 1292.25,-220.01"/>
<polygon fill="#63b8ff" stroke="#63b8ff" points="1293.14,-223.39 1301.84,-217.35 1291.27,-216.65 1293.14,-223.39"/>
</a>
</g>
</g>
<!-- Node4&#45;&gt;Node2 -->
<g id="edge4_Node000004_Node000002" class="edge">
<title>Node4&#45;&gt;Node2</title>
<g id="a_edge4_Node000004_Node000002"><a xlink:title=" ">
<path fill="none" stroke="#63b8ff" d="M570,-189.31C453.84,-173.49 245.53,-137.35 203.61,-77.5 192.93,-62.25 204.85,-42.88 217.05,-29.06"/>
<polygon fill="#63b8ff" stroke="#63b8ff" points="219.46,-31.61 223.84,-21.97 214.4,-26.77 219.46,-31.61"/>
</a>
</g>
</g>
<!-- Node4&#45;&gt;Node3 -->
<g id="edge5_Node000004_Node000003" class="edge">
<title>Node4&#45;&gt;Node3</title>
<g id="a_edge5_Node000004_Node000003"><a xlink:title=" ">
<path fill="none" stroke="#63b8ff" d="M666.47,-182.63C699.42,-153.65 772.97,-92.45 844.61,-56.75 873.49,-42.36 907.84,-31.49 936.17,-24"/>
<polygon fill="#63b8ff" stroke="#63b8ff" points="936.82,-27.44 945.64,-21.57 935.09,-20.66 936.82,-27.44"/>
</a>
</g>
</g>
<!-- Node5 -->
<g id="Node000005" class="node">
<title>Node5</title>
<g id="a_Node000005"><a xlink:href="DistributionVector_8h.html" target="_top" xlink:title=" ">
<polygon fill="white" stroke="#666666" points="541.74,-147 403.49,-147 403.49,-113.5 541.74,-113.5 541.74,-147"/>
<text xml:space="preserve" text-anchor="start" x="411.49" y="-133.5" font-family="Helvetica,sans-Serif" font-size="10.00">Distributions/Distribution</text>
<text xml:space="preserve" text-anchor="middle" x="472.61" y="-120.75" font-family="Helvetica,sans-Serif" font-size="10.00">Vector.h</text>
</a>
</g>
</g>
<!-- Node4&#45;&gt;Node5 -->
<g id="edge6_Node000004_Node000005" class="edge">
<title>Node4&#45;&gt;Node5</title>
<g id="a_edge6_Node000004_Node000005"><a xlink:title=" ">
<path fill="none" stroke="#63b8ff" d="M606.46,-182.58C582.06,-173.22 551.13,-161.36 525.16,-151.4"/>
<polygon fill="#63b8ff" stroke="#63b8ff" points="526.73,-148.26 516.14,-147.94 524.23,-154.79 526.73,-148.26"/>
</a>
</g>
</g>
<!-- Node12 -->
<g id="Node000012" class="node">
<title>Node12</title>
<g id="a_Node000012"><a xlink:href="ParticleModuleSizeBase_8h.html" target="_top" xlink:title=" ">
<polygon fill="white" stroke="#666666" points="1029.11,-147 872.11,-147 872.11,-113.5 1029.11,-113.5 1029.11,-147"/>
<text xml:space="preserve" text-anchor="start" x="880.11" y="-133.5" font-family="Helvetica,sans-Serif" font-size="10.00">Particles/Size/ParticleModule</text>
<text xml:space="preserve" text-anchor="middle" x="950.61" y="-120.75" font-family="Helvetica,sans-Serif" font-size="10.00">SizeBase.h</text>
</a>
</g>
</g>
<!-- Node4&#45;&gt;Node12 -->
<g id="edge18_Node000004_Node000012" class="edge">
<title>Node4&#45;&gt;Node12</title>
<g id="a_edge18_Node000004_Node000012"><a xlink:title=" ">
<path fill="none" stroke="#63b8ff" d="M720.95,-182.58C764.88,-172.76 821.13,-160.19 866.97,-149.95"/>
<polygon fill="#63b8ff" stroke="#63b8ff" points="867.61,-153.39 876.61,-147.79 866.08,-146.56 867.61,-153.39"/>
</a>
</g>
</g>
<!-- Node17 -->
<g id="Node000017" class="node">
<title>Node17</title>
<g id="a_Node000017"><a xlink:title=" ">
<polygon fill="#e0e0e0" stroke="#999999" points="191.86,-140.62 21.36,-140.62 21.36,-119.88 191.86,-119.88 191.86,-140.62"/>
<text xml:space="preserve" text-anchor="middle" x="106.61" y="-127.12" font-family="Helvetica,sans-Serif" font-size="10.00">ParticleModuleSize.generated.h</text>
</a>
</g>
</g>
<!-- Node4&#45;&gt;Node17 -->
<g id="edge28_Node000004_Node000017" class="edge">
<title>Node4&#45;&gt;Node17</title>
<g id="a_edge28_Node000004_Node000017"><a xlink:title=" ">
<path fill="none" stroke="#63b8ff" d="M569.67,-190.53C480.97,-181.06 332.76,-164.53 205.61,-147 196.38,-145.73 186.68,-144.3 177.11,-142.83"/>
<polygon fill="#63b8ff" stroke="#63b8ff" points="177.89,-139.41 167.47,-141.34 176.81,-146.33 177.89,-139.41"/>
</a>
</g>
</g>
<!-- Node5&#45;&gt;Node2 -->
<g id="edge7_Node000005_Node000002" class="edge">
<title>Node5&#45;&gt;Node2</title>
<g id="a_edge7_Node000005_Node000002"><a xlink:title=" ">
<path fill="none" stroke="#63b8ff" d="M403.08,-125.13C334.4,-119.43 236.3,-106.36 212.61,-77.5 201.34,-63.76 210.45,-44.14 220.34,-29.84"/>
<polygon fill="#63b8ff" stroke="#63b8ff" points="222.92,-32.22 226.15,-22.13 217.34,-28.01 222.92,-32.22"/>
</a>
</g>
</g>
<!-- Node5&#45;&gt;Node3 -->
<g id="edge8_Node000005_Node000003" class="edge">
<title>Node5&#45;&gt;Node3</title>
<g id="a_edge8_Node000005_Node000003"><a xlink:title=" ">
<path fill="none" stroke="#63b8ff" d="M542.1,-122.59C602.93,-115.48 693.13,-101.79 768.61,-77.5 788.81,-71 791.66,-63.98 811.61,-56.75 850.37,-42.71 895.31,-31.42 930.71,-23.61"/>
<polygon fill="#63b8ff" stroke="#63b8ff" points="931.34,-27.05 940.37,-21.52 929.86,-20.21 931.34,-27.05"/>
</a>
</g>
</g>
<!-- Node6 -->
<g id="Node000006" class="node">
<title>Node6</title>
<g id="a_Node000006"><a xlink:title=" ">
<polygon fill="#e0e0e0" stroke="#999999" points="371.99,-77.5 229.24,-77.5 229.24,-56.75 371.99,-56.75 371.99,-77.5"/>
<text xml:space="preserve" text-anchor="middle" x="300.61" y="-64" font-family="Helvetica,sans-Serif" font-size="10.00">UObject/UObjectGlobals.h</text>
</a>
</g>
</g>
<!-- Node5&#45;&gt;Node6 -->
<g id="edge9_Node000005_Node000006" class="edge">
<title>Node5&#45;&gt;Node6</title>
<g id="a_edge9_Node000005_Node000006"><a xlink:title=" ">
<path fill="none" stroke="#63b8ff" d="M426.97,-113.03C399.45,-103.25 364.81,-90.94 338.76,-81.68"/>
<polygon fill="#63b8ff" stroke="#63b8ff" points="340.18,-78.47 329.59,-78.42 337.84,-85.07 340.18,-78.47"/>
</a>
</g>
</g>
<!-- Node7 -->
<g id="Node000007" class="node">
<title>Node7</title>
<g id="a_Node000007"><a xlink:title=" ">
<polygon fill="#e0e0e0" stroke="#999999" points="528.24,-20.75 440.99,-20.75 440.99,0 528.24,0 528.24,-20.75"/>
<text xml:space="preserve" text-anchor="middle" x="484.61" y="-7.25" font-family="Helvetica,sans-Serif" font-size="10.00">Distributions.h</text>
</a>
</g>
</g>
<!-- Node5&#45;&gt;Node7 -->
<g id="edge10_Node000005_Node000007" class="edge">
<title>Node5&#45;&gt;Node7</title>
<g id="a_edge10_Node000005_Node000007"><a xlink:title=" ">
<path fill="none" stroke="#63b8ff" d="M403.03,-124.61C336.57,-118.57 243.27,-105.28 220.61,-77.5 214.79,-70.35 214.67,-63.8 220.61,-56.75 246.77,-25.72 359.97,-15.91 429.37,-12.81"/>
<polygon fill="#63b8ff" stroke="#63b8ff" points="429.17,-16.32 439.02,-12.41 428.88,-9.32 429.17,-16.32"/>
</a>
</g>
</g>
<!-- Node8 -->
<g id="Node000008" class="node">
<title>Node8</title>
<g id="a_Node000008"><a xlink:href="Distribution_8h.html" target="_top" xlink:title=" ">
<polygon fill="white" stroke="#666666" points="759.24,-77.5 611.99,-77.5 611.99,-56.75 759.24,-56.75 759.24,-77.5"/>
<text xml:space="preserve" text-anchor="middle" x="685.61" y="-64" font-family="Helvetica,sans-Serif" font-size="10.00">Distributions/Distribution.h</text>
</a>
</g>
</g>
<!-- Node5&#45;&gt;Node8 -->
<g id="edge11_Node000005_Node000008" class="edge">
<title>Node5&#45;&gt;Node8</title>
<g id="a_edge11_Node000005_Node000008"><a xlink:title=" ">
<path fill="none" stroke="#63b8ff" d="M529.14,-113.03C563.97,-103.03 608.04,-90.39 640.53,-81.06"/>
<polygon fill="#63b8ff" stroke="#63b8ff" points="641.4,-84.46 650.04,-78.33 639.47,-77.73 641.4,-84.46"/>
</a>
</g>
</g>
<!-- Node11 -->
<g id="Node000011" class="node">
<title>Node11</title>
<g id="a_Node000011"><a xlink:title=" ">
<polygon fill="#e0e0e0" stroke="#999999" points="555.61,-77.5 389.61,-77.5 389.61,-56.75 555.61,-56.75 555.61,-77.5"/>
<text xml:space="preserve" text-anchor="middle" x="472.61" y="-64" font-family="Helvetica,sans-Serif" font-size="10.00">DistributionVector.generated.h</text>
</a>
</g>
</g>
<!-- Node5&#45;&gt;Node11 -->
<g id="edge17_Node000005_Node000011" class="edge">
<title>Node5&#45;&gt;Node11</title>
<g id="a_edge17_Node000005_Node000011"><a xlink:title=" ">
<path fill="none" stroke="#63b8ff" d="M472.61,-113.19C472.61,-105.85 472.61,-97.07 472.61,-89.21"/>
<polygon fill="#63b8ff" stroke="#63b8ff" points="476.11,-89.48 472.61,-79.48 469.11,-89.48 476.11,-89.48"/>
</a>
</g>
</g>
<!-- Node8&#45;&gt;Node2 -->
<g id="edge12_Node000008_Node000002" class="edge">
<title>Node8&#45;&gt;Node2</title>
<g id="a_edge12_Node000008_Node000002"><a xlink:title=" ">
<path fill="none" stroke="#63b8ff" d="M611.56,-57.11C521.55,-46.16 371.74,-27.94 291.09,-18.12"/>
<polygon fill="#63b8ff" stroke="#63b8ff" points="291.55,-14.66 281.21,-16.92 290.71,-21.6 291.55,-14.66"/>
</a>
</g>
</g>
<!-- Node8&#45;&gt;Node3 -->
<g id="edge13_Node000008_Node000003" class="edge">
<title>Node8&#45;&gt;Node3</title>
<g id="a_edge13_Node000008_Node000003"><a xlink:title=" ">
<path fill="none" stroke="#63b8ff" d="M740.85,-56.27C792.86,-47 870.82,-33.1 926.19,-23.22"/>
<polygon fill="#63b8ff" stroke="#63b8ff" points="926.58,-26.71 935.81,-21.51 925.35,-19.82 926.58,-26.71"/>
</a>
</g>
</g>
<!-- Node8&#45;&gt;Node7 -->
<g id="edge15_Node000008_Node000007" class="edge">
<title>Node8&#45;&gt;Node7</title>
<g id="a_edge15_Node000008_Node000007"><a xlink:title=" ">
<path fill="none" stroke="#63b8ff" d="M649.68,-56.34C616.63,-47.33 567.41,-33.93 531.32,-24.1"/>
<polygon fill="#63b8ff" stroke="#63b8ff" points="532.6,-20.82 522.04,-21.57 530.77,-27.57 532.6,-20.82"/>
</a>
</g>
</g>
<!-- Node9 -->
<g id="Node000009" class="node">
<title>Node9</title>
<g id="a_Node000009"><a xlink:title=" ">
<polygon fill="#e0e0e0" stroke="#999999" points="894.86,-20.75 796.36,-20.75 796.36,0 894.86,0 894.86,-20.75"/>
<text xml:space="preserve" text-anchor="middle" x="845.61" y="-7.25" font-family="Helvetica,sans-Serif" font-size="10.00">UObject/Object.h</text>
</a>
</g>
</g>
<!-- Node8&#45;&gt;Node9 -->
<g id="edge14_Node000008_Node000009" class="edge">
<title>Node8&#45;&gt;Node9</title>
<g id="a_edge14_Node000008_Node000009"><a xlink:title=" ">
<path fill="none" stroke="#63b8ff" d="M714.22,-56.34C739.85,-47.57 777.69,-34.62 806.18,-24.87"/>
<polygon fill="#63b8ff" stroke="#63b8ff" points="807.23,-28.21 815.56,-21.66 804.96,-21.59 807.23,-28.21"/>
</a>
</g>
</g>
<!-- Node10 -->
<g id="Node000010" class="node">
<title>Node10</title>
<g id="a_Node000010"><a xlink:title=" ">
<polygon fill="#e0e0e0" stroke="#999999" points="752.86,-20.75 618.36,-20.75 618.36,0 752.86,0 752.86,-20.75"/>
<text xml:space="preserve" text-anchor="middle" x="685.61" y="-7.25" font-family="Helvetica,sans-Serif" font-size="10.00">Distribution.generated.h</text>
</a>
</g>
</g>
<!-- Node8&#45;&gt;Node10 -->
<g id="edge16_Node000008_Node000010" class="edge">
<title>Node8&#45;&gt;Node10</title>
<g id="a_edge16_Node000008_Node000010"><a xlink:title=" ">
<path fill="none" stroke="#63b8ff" d="M685.61,-56.34C685.61,-49.72 685.61,-40.72 685.61,-32.52"/>
<polygon fill="#63b8ff" stroke="#63b8ff" points="689.11,-32.59 685.61,-22.59 682.11,-32.59 689.11,-32.59"/>
</a>
</g>
</g>
<!-- Node12&#45;&gt;Node2 -->
<g id="edge19_Node000012_Node000002" class="edge">
<title>Node12&#45;&gt;Node2</title>
<g id="a_edge19_Node000012_Node000002"><a xlink:title=" ">
<path fill="none" stroke="#63b8ff" d="M871.72,-125.43C799.96,-120.11 691.94,-107.47 602.61,-77.5 584.37,-71.38 582.89,-62.77 564.61,-56.75 471.76,-26.14 357.57,-16.17 291.04,-12.93"/>
<polygon fill="#63b8ff" stroke="#63b8ff" points="291.25,-9.44 281.1,-12.49 290.94,-16.43 291.25,-9.44"/>
</a>
</g>
</g>
<!-- Node12&#45;&gt;Node3 -->
<g id="edge20_Node000012_Node000003" class="edge">
<title>Node12&#45;&gt;Node3</title>
<g id="a_edge20_Node000012_Node000003"><a xlink:title=" ">
<path fill="none" stroke="#63b8ff" d="M1029.61,-124.79C1099.56,-119 1194.11,-106 1217.61,-77.5 1223.48,-70.39 1223.46,-63.89 1217.61,-56.75 1208.12,-45.16 1132.14,-31.52 1071.05,-22.25"/>
<polygon fill="#63b8ff" stroke="#63b8ff" points="1071.75,-18.82 1061.34,-20.8 1070.71,-25.74 1071.75,-18.82"/>
</a>
</g>
</g>
<!-- Node13 -->
<g id="Node000013" class="node">
<title>Node13</title>
<g id="a_Node000013"><a xlink:href="ParticleModule_8h.html" target="_top" xlink:title=" ">
<polygon fill="white" stroke="#666666" points="1208.99,-77.5 1066.24,-77.5 1066.24,-56.75 1208.99,-56.75 1208.99,-77.5"/>
<text xml:space="preserve" text-anchor="middle" x="1137.61" y="-64" font-family="Helvetica,sans-Serif" font-size="10.00">Particles/ParticleModule.h</text>
</a>
</g>
</g>
<!-- Node12&#45;&gt;Node13 -->
<g id="edge21_Node000012_Node000013" class="edge">
<title>Node12&#45;&gt;Node13</title>
<g id="a_edge21_Node000012_Node000013"><a xlink:title=" ">
<path fill="none" stroke="#63b8ff" d="M1000.24,-113.03C1030.42,-103.16 1068.5,-90.72 1096.9,-81.43"/>
<polygon fill="#63b8ff" stroke="#63b8ff" points="1097.81,-84.82 1106.22,-78.39 1095.63,-78.17 1097.81,-84.82"/>
</a>
</g>
</g>
<!-- Node16 -->
<g id="Node000016" class="node">
<title>Node16</title>
<g id="a_Node000016"><a xlink:title=" ">
<polygon fill="#e0e0e0" stroke="#999999" points="1047.86,-77.5 853.36,-77.5 853.36,-56.75 1047.86,-56.75 1047.86,-77.5"/>
<text xml:space="preserve" text-anchor="middle" x="950.61" y="-64" font-family="Helvetica,sans-Serif" font-size="10.00">ParticleModuleSizeBase.generated.h</text>
</a>
</g>
</g>
<!-- Node12&#45;&gt;Node16 -->
<g id="edge27_Node000012_Node000016" class="edge">
<title>Node12&#45;&gt;Node16</title>
<g id="a_edge27_Node000012_Node000016"><a xlink:title=" ">
<path fill="none" stroke="#63b8ff" d="M950.61,-113.19C950.61,-105.85 950.61,-97.07 950.61,-89.21"/>
<polygon fill="#63b8ff" stroke="#63b8ff" points="954.11,-89.48 950.61,-79.48 947.11,-89.48 954.11,-89.48"/>
</a>
</g>
</g>
<!-- Node13&#45;&gt;Node2 -->
<g id="edge22_Node000013_Node000002" class="edge">
<title>Node13&#45;&gt;Node2</title>
<g id="a_edge22_Node000013_Node000002"><a xlink:title=" ">
<path fill="none" stroke="#63b8ff" d="M1066.08,-57.61C1062.89,-57.3 1059.72,-57.02 1056.61,-56.75 907.19,-43.98 449.97,-21.61 290.88,-14"/>
<polygon fill="#63b8ff" stroke="#63b8ff" points="291.17,-10.51 281.02,-13.52 290.84,-17.5 291.17,-10.51"/>
</a>
</g>
</g>
<!-- Node13&#45;&gt;Node3 -->
<g id="edge23_Node000013_Node000003" class="edge">
<title>Node13&#45;&gt;Node3</title>
<g id="a_edge23_Node000013_Node000003"><a xlink:title=" ">
<path fill="none" stroke="#63b8ff" d="M1111.69,-56.34C1088.6,-47.62 1054.57,-34.77 1028.8,-25.04"/>
<polygon fill="#63b8ff" stroke="#63b8ff" points="1030.32,-21.87 1019.73,-21.61 1027.85,-28.42 1030.32,-21.87"/>
</a>
</g>
</g>
<!-- Node13&#45;&gt;Node9 -->
<g id="edge24_Node000013_Node000009" class="edge">
<title>Node13&#45;&gt;Node9</title>
<g id="a_edge24_Node000013_Node000009"><a xlink:title=" ">
<path fill="none" stroke="#63b8ff" d="M1085.07,-56.27C1034.9,-46.87 959.32,-32.69 906.53,-22.8"/>
<polygon fill="#63b8ff" stroke="#63b8ff" points="907.26,-19.37 896.79,-20.97 905.97,-26.25 907.26,-19.37"/>
</a>
</g>
</g>
<!-- Node14 -->
<g id="Node000014" class="node">
<title>Node14</title>
<g id="a_Node000014"><a xlink:title=" ">
<polygon fill="#e0e0e0" stroke="#999999" points="1177.61,-20.75 1083.61,-20.75 1083.61,0 1177.61,0 1177.61,-20.75"/>
<text xml:space="preserve" text-anchor="middle" x="1130.61" y="-7.25" font-family="Helvetica,sans-Serif" font-size="10.00">ParticleHelper.h</text>
</a>
</g>
</g>
<!-- Node13&#45;&gt;Node14 -->
<g id="edge25_Node000013_Node000014" class="edge">
<title>Node13&#45;&gt;Node14</title>
<g id="a_edge25_Node000013_Node000014"><a xlink:title=" ">
<path fill="none" stroke="#63b8ff" d="M1136.36,-56.34C1135.51,-49.64 1134.34,-40.51 1133.28,-32.23"/>
<polygon fill="#63b8ff" stroke="#63b8ff" points="1136.79,-32.06 1132.05,-22.58 1129.84,-32.94 1136.79,-32.06"/>
</a>
</g>
</g>
<!-- Node15 -->
<g id="Node000015" class="node">
<title>Node15</title>
<g id="a_Node000015"><a xlink:title=" ">
<polygon fill="#e0e0e0" stroke="#999999" points="1345.74,-20.75 1195.49,-20.75 1195.49,0 1345.74,0 1345.74,-20.75"/>
<text xml:space="preserve" text-anchor="middle" x="1270.61" y="-7.25" font-family="Helvetica,sans-Serif" font-size="10.00">ParticleModule.generated.h</text>
</a>
</g>
</g>
<!-- Node13&#45;&gt;Node15 -->
<g id="edge26_Node000013_Node000015" class="edge">
<title>Node13&#45;&gt;Node15</title>
<g id="a_edge26_Node000013_Node000015"><a xlink:title=" ">
<path fill="none" stroke="#63b8ff" d="M1161.39,-56.34C1182.29,-47.73 1212.95,-35.11 1236.47,-25.43"/>
<polygon fill="#63b8ff" stroke="#63b8ff" points="1237.73,-28.7 1245.64,-21.65 1235.06,-22.22 1237.73,-28.7"/>
</a>
</g>
</g>
</g>
</svg>
