<?xml version="1.0" encoding="UTF-8" standalone="no"?>
<!DOCTYPE svg PUBLIC "-//W3C//DTD SVG 1.1//EN"
 "http://www.w3.org/Graphics/SVG/1.1/DTD/svg11.dtd">
<!-- Generated by graphviz version 14.1.4 (0)
 -->
<!-- Title: /opt/unreal&#45;engine/Engine/Source/Runtime/Engine/Classes/Particles/Color/ParticleModuleColor_Seeded.h Pages: 1 -->
<!--zoomable 332 -->

<svg id="main" version="1.1" xmlns="http://www.w3.org/2000/svg" xmlns:xlink="http://www.w3.org/1999/xlink" xml:space="preserve" onload="init(evt)">

<style type="text/css"><![CDATA[
.node, .edge {opacity: 0.7;}
.node.selected, .edge.selected {opacity: 1;}
.edge:hover path { stroke: red; }
.edge:hover polygon { stroke: red; fill: red; }
]]></style>

<defs>
  <circle id="rim" cx="0" cy="0" r="7"/>
  <circle id="rim2" cx="0" cy="0" r="3.5"/>
  <g id="zoomPlus">
    <use xlink:href="#rim" fill="#404040"><set attributeName="fill" to="#808080" begin="zoomplus.mouseover" end="zoomplus.mouseout"/></use>
    <path d="M-4,0h8M0,-4v8" fill="none" stroke="white" stroke-width="1.5" pointer-events="none"/>
  </g>
  <g id="zoomMin">
    <use xlink:href="#rim" fill="#404040"><set attributeName="fill" to="#808080" begin="zoomminus.mouseover" end="zoomminus.mouseout"/></use>
    <path d="M-4,0h8" fill="none" stroke="white" stroke-width="1.5" pointer-events="none"/>
  </g>
  <g id="arrowUp" transform="translate(30 24)">
    <use xlink:href="#rim"/>
    <path pointer-events="none" fill="none" stroke="white" stroke-width="1.5" d="M0,-3.0v7 M-2.5,-0.5L0,-3.0L2.5,-0.5"/>
  </g>
  <g id="arrowRight" transform="rotate(90) translate(36 -43)">
    <use xlink:href="#rim"/>
    <path pointer-events="none" fill="none" stroke="white" stroke-width="1.5" d="M0,-3.0v7 M-2.5,-0.5L0,-3.0L2.5,-0.5"/>
  </g>
  <g id="arrowDown" transform="rotate(180) translate(-30 -48)">
    <use xlink:href="#rim"/>
    <path pointer-events="none" fill="none" stroke="white" stroke-width="1.5" d="M0,-3.0v7 M-2.5,-0.5L0,-3.0L2.5,-0.5"/>
  </g>
  <g id="arrowLeft" transform="rotate(270) translate(-36 17)">
    <use xlink:href="#rim"/>
    <path pointer-events="none" fill="none" stroke="white" stroke-width="1.5" d="M0,-3.0v7 M-2.5,-0.5L0,-3.0L2.5,-0.5"/>
  </g>
  <g id="resetDef">
    <use xlink:href="#rim2" fill="#404040"><set attributeName="fill" to="#808080" begin="reset.mouseover" end="reset.mouseout"/></use>
  </g>
</defs>
<script type="application/ecmascript">
var viewWidth = 1576;
var viewHeight = 332;
var sectionId = 'dynsection-0';
</script>
<script type="application/ecmascript" xlink:href="svg.min.js"/>
<svg id="graph" class="graph">
<g id="viewport">
<title>/opt/unreal&#45;engine/Engine/Source/Runtime/Engine/Classes/Particles/Color/ParticleModuleColor_Seeded.h</title>
<!-- Node1 -->
<g id="Node000001" class="node">
<title>Node1</title>
<g id="a_Node000001"><a xlink:title=" ">
<polygon fill="#999999" stroke="#666666" points="1036.64,-324.25 890.89,-324.25 890.89,-252.5 1036.64,-252.5 1036.64,-324.25"/>
<text xml:space="preserve" text-anchor="start" x="898.89" y="-310.75" font-family="Helvetica,sans-Serif" font-size="10.00">/opt/unreal&#45;engine</text>
<text xml:space="preserve" text-anchor="start" x="898.89" y="-298" font-family="Helvetica,sans-Serif" font-size="10.00">/Engine/Source/Runtime</text>
<text xml:space="preserve" text-anchor="start" x="898.89" y="-285.25" font-family="Helvetica,sans-Serif" font-size="10.00">/Engine/Classes/Particles</text>
<text xml:space="preserve" text-anchor="start" x="898.89" y="-272.5" font-family="Helvetica,sans-Serif" font-size="10.00">/Color/ParticleModuleColor</text>
<text xml:space="preserve" text-anchor="middle" x="963.77" y="-259.75" font-family="Helvetica,sans-Serif" font-size="10.00">_Seeded.h</text>
</a>
</g>
</g>
<!-- Node2 -->
<g id="Node000002" class="node">
<title>Node2</title>
<g id="a_Node000002"><a xlink:title=" ">
<polygon fill="#e0e0e0" stroke="#999999" points="785.39,-20.75 698.14,-20.75 698.14,0 785.39,0 785.39,-20.75"/>
<text xml:space="preserve" text-anchor="middle" x="741.77" y="-7.25" font-family="Helvetica,sans-Serif" font-size="10.00">CoreMinimal.h</text>
</a>
</g>
</g>
<!-- Node1&#45;&gt;Node2 -->
<g id="edge1_Node000001_Node000002" class="edge">
<title>Node1&#45;&gt;Node2</title>
<g id="a_edge1_Node000001_Node000002"><a xlink:title=" ">
<path fill="none" stroke="#63b8ff" d="M1036.91,-274.36C1179.58,-246.07 1472.02,-172.1 1364.77,-56.75 1355.14,-46.4 947.68,-22.8 797.01,-14.4"/>
<polygon fill="#63b8ff" stroke="#63b8ff" points="797.46,-10.92 787.28,-13.86 797.08,-17.91 797.46,-10.92"/>
</a>
</g>
</g>
<!-- Node3 -->
<g id="Node000003" class="node">
<title>Node3</title>
<g id="a_Node000003"><a xlink:title=" ">
<polygon fill="#e0e0e0" stroke="#999999" points="283.64,-20.75 149.89,-20.75 149.89,0 283.64,0 283.64,-20.75"/>
<text xml:space="preserve" text-anchor="middle" x="216.77" y="-7.25" font-family="Helvetica,sans-Serif" font-size="10.00">UObject/ObjectMacros.h</text>
</a>
</g>
</g>
<!-- Node1&#45;&gt;Node3 -->
<g id="edge2_Node000001_Node000003" class="edge">
<title>Node1&#45;&gt;Node3</title>
<g id="a_edge2_Node000001_Node000003"><a xlink:title=" ">
<path fill="none" stroke="#63b8ff" d="M890.52,-284.59C698.05,-275.97 183.63,-244.2 48.77,-147 13.46,-121.55 -16.5,-90.67 10.77,-56.75 26.85,-36.74 87.11,-25.04 138.33,-18.54"/>
<polygon fill="#63b8ff" stroke="#63b8ff" points="138.43,-22.06 147.94,-17.38 137.59,-15.11 138.43,-22.06"/>
</a>
</g>
</g>
<!-- Node4 -->
<g id="Node000004" class="node">
<title>Node4</title>
<g id="a_Node000004"><a xlink:href="ParticleModuleColor_8h.html" target="_top" xlink:title=" ">
<polygon fill="white" stroke="#666666" points="568.89,-216.5 442.64,-216.5 442.64,-183 568.89,-183 568.89,-216.5"/>
<text xml:space="preserve" text-anchor="start" x="450.64" y="-203" font-family="Helvetica,sans-Serif" font-size="10.00">Particles/Color/Particle</text>
<text xml:space="preserve" text-anchor="middle" x="505.77" y="-190.25" font-family="Helvetica,sans-Serif" font-size="10.00">ModuleColor.h</text>
</a>
</g>
</g>
<!-- Node1&#45;&gt;Node4 -->
<g id="edge3_Node000001_Node000004" class="edge">
<title>Node1&#45;&gt;Node4</title>
<g id="a_edge3_Node000001_Node000004"><a xlink:title=" ">
<path fill="none" stroke="#63b8ff" d="M890.43,-273.51C805.43,-257.43 666.07,-231.07 580.48,-214.88"/>
<polygon fill="#63b8ff" stroke="#63b8ff" points="581.25,-211.46 570.77,-213.04 579.94,-218.34 581.25,-211.46"/>
</a>
</g>
</g>
<!-- Node20 -->
<g id="Node000020" class="node">
<title>Node20</title>
<g id="a_Node000020"><a xlink:title=" ">
<polygon fill="#e0e0e0" stroke="#999999" points="1568.14,-216.5 1449.39,-216.5 1449.39,-183 1568.14,-183 1568.14,-216.5"/>
<text xml:space="preserve" text-anchor="start" x="1457.39" y="-203" font-family="Helvetica,sans-Serif" font-size="10.00">ParticleModuleColor</text>
<text xml:space="preserve" text-anchor="middle" x="1508.77" y="-190.25" font-family="Helvetica,sans-Serif" font-size="10.00">_Seeded.generated.h</text>
</a>
</g>
</g>
<!-- Node1&#45;&gt;Node20 -->
<g id="edge36_Node000001_Node000020" class="edge">
<title>Node1&#45;&gt;Node20</title>
<g id="a_edge36_Node000001_Node000020"><a xlink:title=" ">
<path fill="none" stroke="#63b8ff" d="M1036.78,-277.88C1129.73,-265.44 1295.16,-242.2 1435.77,-216.5 1436.44,-216.38 1437.12,-216.25 1437.81,-216.12"/>
<polygon fill="#63b8ff" stroke="#63b8ff" points="1438.43,-219.57 1447.58,-214.24 1437.1,-212.7 1438.43,-219.57"/>
</a>
</g>
</g>
<!-- Node4&#45;&gt;Node2 -->
<g id="edge4_Node000004_Node000002" class="edge">
<title>Node4&#45;&gt;Node2</title>
<g id="a_edge4_Node000004_Node000002"><a xlink:title=" ">
<path fill="none" stroke="#63b8ff" d="M502.56,-182.67C497.77,-153.47 492.42,-91.55 524.77,-56.75 530.33,-50.76 624.12,-32.73 686.55,-21.28"/>
<polygon fill="#63b8ff" stroke="#63b8ff" points="687.12,-24.74 696.33,-19.5 685.86,-17.85 687.12,-24.74"/>
</a>
</g>
</g>
<!-- Node4&#45;&gt;Node3 -->
<g id="edge5_Node000004_Node000003" class="edge">
<title>Node4&#45;&gt;Node3</title>
<g id="a_edge5_Node000004_Node000003"><a xlink:title=" ">
<path fill="none" stroke="#63b8ff" d="M442.31,-196.29C369.7,-191.95 248.02,-179.97 148.77,-147 87.33,-126.59 53.86,-133.13 20.77,-77.5 -8,-29.14 71.87,-15.21 138.17,-11.68"/>
<polygon fill="#63b8ff" stroke="#63b8ff" points="138.17,-15.18 148,-11.23 137.86,-8.19 138.17,-15.18"/>
</a>
</g>
</g>
<!-- Node5 -->
<g id="Node000005" class="node">
<title>Node5</title>
<g id="a_Node000005"><a xlink:href="DistributionFloat_8h.html" target="_top" xlink:title=" ">
<polygon fill="white" stroke="#666666" points="790.89,-147 652.64,-147 652.64,-113.5 790.89,-113.5 790.89,-147"/>
<text xml:space="preserve" text-anchor="start" x="660.64" y="-133.5" font-family="Helvetica,sans-Serif" font-size="10.00">Distributions/Distribution</text>
<text xml:space="preserve" text-anchor="middle" x="721.77" y="-120.75" font-family="Helvetica,sans-Serif" font-size="10.00">Float.h</text>
</a>
</g>
</g>
<!-- Node4&#45;&gt;Node5 -->
<g id="edge6_Node000004_Node000005" class="edge">
<title>Node4&#45;&gt;Node5</title>
<g id="a_edge6_Node000004_Node000005"><a xlink:title=" ">
<path fill="none" stroke="#63b8ff" d="M557.5,-182.58C588.12,-173.02 627.1,-160.83 659.4,-150.74"/>
<polygon fill="#63b8ff" stroke="#63b8ff" points="660.13,-154.18 668.63,-147.85 658.04,-147.5 660.13,-154.18"/>
</a>
</g>
</g>
<!-- Node12 -->
<g id="Node000012" class="node">
<title>Node12</title>
<g id="a_Node000012"><a xlink:href="DistributionVector_8h.html" target="_top" xlink:title=" ">
<polygon fill="white" stroke="#666666" points="1090.89,-147 952.64,-147 952.64,-113.5 1090.89,-113.5 1090.89,-147"/>
<text xml:space="preserve" text-anchor="start" x="960.64" y="-133.5" font-family="Helvetica,sans-Serif" font-size="10.00">Distributions/Distribution</text>
<text xml:space="preserve" text-anchor="middle" x="1021.77" y="-120.75" font-family="Helvetica,sans-Serif" font-size="10.00">Vector.h</text>
</a>
</g>
</g>
<!-- Node4&#45;&gt;Node12 -->
<g id="edge18_Node000004_Node000012" class="edge">
<title>Node4&#45;&gt;Node12</title>
<g id="a_edge18_Node000004_Node000012"><a xlink:title=" ">
<path fill="none" stroke="#63b8ff" d="M569.3,-190.44C663.03,-178.18 838.34,-155.25 941.05,-141.81"/>
<polygon fill="#63b8ff" stroke="#63b8ff" points="941.33,-145.3 950.79,-140.53 940.42,-138.36 941.33,-145.3"/>
</a>
</g>
</g>
<!-- Node14 -->
<g id="Node000014" class="node">
<title>Node14</title>
<g id="a_Node000014"><a xlink:href="ParticleModuleColorBase_8h.html" target="_top" xlink:title=" ">
<polygon fill="white" stroke="#666666" points="283.89,-147 157.64,-147 157.64,-113.5 283.89,-113.5 283.89,-147"/>
<text xml:space="preserve" text-anchor="start" x="165.64" y="-133.5" font-family="Helvetica,sans-Serif" font-size="10.00">Particles/Color/Particle</text>
<text xml:space="preserve" text-anchor="middle" x="220.77" y="-120.75" font-family="Helvetica,sans-Serif" font-size="10.00">ModuleColorBase.h</text>
</a>
</g>
</g>
<!-- Node4&#45;&gt;Node14 -->
<g id="edge25_Node000004_Node000014" class="edge">
<title>Node4&#45;&gt;Node14</title>
<g id="a_edge25_Node000004_Node000014"><a xlink:title=" ">
<path fill="none" stroke="#63b8ff" d="M442.16,-183.69C398.66,-173.38 340.85,-159.69 295.2,-148.88"/>
<polygon fill="#63b8ff" stroke="#63b8ff" points="296.19,-145.52 285.65,-146.62 294.57,-152.33 296.19,-145.52"/>
</a>
</g>
</g>
<!-- Node19 -->
<g id="Node000019" class="node">
<title>Node19</title>
<g id="a_Node000019"><a xlink:title=" ">
<polygon fill="#e0e0e0" stroke="#999999" points="477.64,-140.62 301.89,-140.62 301.89,-119.88 477.64,-119.88 477.64,-140.62"/>
<text xml:space="preserve" text-anchor="middle" x="389.77" y="-127.12" font-family="Helvetica,sans-Serif" font-size="10.00">ParticleModuleColor.generated.h</text>
</a>
</g>
</g>
<!-- Node4&#45;&gt;Node19 -->
<g id="edge35_Node000004_Node000019" class="edge">
<title>Node4&#45;&gt;Node19</title>
<g id="a_edge35_Node000004_Node000019"><a xlink:title=" ">
<path fill="none" stroke="#63b8ff" d="M477.98,-182.58C459.29,-171.71 434.8,-157.45 416.36,-146.73"/>
<polygon fill="#63b8ff" stroke="#63b8ff" points="418.27,-143.79 407.87,-141.78 414.75,-149.84 418.27,-143.79"/>
</a>
</g>
</g>
<!-- Node5&#45;&gt;Node2 -->
<g id="edge7_Node000005_Node000002" class="edge">
<title>Node5&#45;&gt;Node2</title>
<g id="a_edge7_Node000005_Node000002"><a xlink:title=" ">
<path fill="none" stroke="#63b8ff" d="M724.46,-113.35C728.01,-92.46 734.24,-55.71 738.18,-32.5"/>
<polygon fill="#63b8ff" stroke="#63b8ff" points="741.63,-33.12 739.85,-22.68 734.73,-31.95 741.63,-33.12"/>
</a>
</g>
</g>
<!-- Node5&#45;&gt;Node3 -->
<g id="edge8_Node000005_Node000003" class="edge">
<title>Node5&#45;&gt;Node3</title>
<g id="a_edge8_Node000005_Node000003"><a xlink:title=" ">
<path fill="none" stroke="#63b8ff" d="M652.28,-123.3C538.3,-113.19 321.01,-92.32 288.77,-77.5 265.27,-66.7 244.24,-45.33 231.06,-29.8"/>
<polygon fill="#63b8ff" stroke="#63b8ff" points="233.9,-27.75 224.87,-22.2 228.47,-32.17 233.9,-27.75"/>
</a>
</g>
</g>
<!-- Node6 -->
<g id="Node000006" class="node">
<title>Node6</title>
<g id="a_Node000006"><a xlink:title=" ">
<polygon fill="#e0e0e0" stroke="#999999" points="892.14,-77.5 749.39,-77.5 749.39,-56.75 892.14,-56.75 892.14,-77.5"/>
<text xml:space="preserve" text-anchor="middle" x="820.77" y="-64" font-family="Helvetica,sans-Serif" font-size="10.00">UObject/UObjectGlobals.h</text>
</a>
</g>
</g>
<!-- Node5&#45;&gt;Node6 -->
<g id="edge9_Node000005_Node000006" class="edge">
<title>Node5&#45;&gt;Node6</title>
<g id="a_edge9_Node000005_Node000006"><a xlink:title=" ">
<path fill="none" stroke="#63b8ff" d="M748.04,-113.03C762.74,-103.95 780.99,-92.68 795.53,-83.71"/>
<polygon fill="#63b8ff" stroke="#63b8ff" points="796.95,-86.94 803.62,-78.71 793.27,-80.99 796.95,-86.94"/>
</a>
</g>
</g>
<!-- Node7 -->
<g id="Node000007" class="node">
<title>Node7</title>
<g id="a_Node000007"><a xlink:title=" ">
<polygon fill="#e0e0e0" stroke="#999999" points="1180.39,-20.75 1093.14,-20.75 1093.14,0 1180.39,0 1180.39,-20.75"/>
<text xml:space="preserve" text-anchor="middle" x="1136.77" y="-7.25" font-family="Helvetica,sans-Serif" font-size="10.00">Distributions.h</text>
</a>
</g>
</g>
<!-- Node5&#45;&gt;Node7 -->
<g id="edge10_Node000005_Node000007" class="edge">
<title>Node5&#45;&gt;Node7</title>
<g id="a_edge10_Node000005_Node000007"><a xlink:title=" ">
<path fill="none" stroke="#63b8ff" d="M791.37,-123.42C894.88,-114.22 1079.91,-95.52 1104.77,-77.5 1119.76,-66.63 1128.04,-46.82 1132.4,-31.71"/>
<polygon fill="#63b8ff" stroke="#63b8ff" points="1135.71,-32.87 1134.74,-22.32 1128.92,-31.18 1135.71,-32.87"/>
</a>
</g>
</g>
<!-- Node8 -->
<g id="Node000008" class="node">
<title>Node8</title>
<g id="a_Node000008"><a xlink:href="Distribution_8h.html" target="_top" xlink:title=" ">
<polygon fill="white" stroke="#666666" points="1095.39,-77.5 948.14,-77.5 948.14,-56.75 1095.39,-56.75 1095.39,-77.5"/>
<text xml:space="preserve" text-anchor="middle" x="1021.77" y="-64" font-family="Helvetica,sans-Serif" font-size="10.00">Distributions/Distribution.h</text>
</a>
</g>
</g>
<!-- Node5&#45;&gt;Node8 -->
<g id="edge11_Node000005_Node000008" class="edge">
<title>Node5&#45;&gt;Node8</title>
<g id="a_edge11_Node000005_Node000008"><a xlink:title=" ">
<path fill="none" stroke="#63b8ff" d="M791.35,-115.07C843.22,-104.5 913.3,-90.23 962.51,-80.2"/>
<polygon fill="#63b8ff" stroke="#63b8ff" points="963.03,-83.67 972.12,-78.24 961.63,-76.81 963.03,-83.67"/>
</a>
</g>
</g>
<!-- Node11 -->
<g id="Node000011" class="node">
<title>Node11</title>
<g id="a_Node000011"><a xlink:title=" ">
<polygon fill="#e0e0e0" stroke="#999999" points="693.39,-77.5 534.14,-77.5 534.14,-56.75 693.39,-56.75 693.39,-77.5"/>
<text xml:space="preserve" text-anchor="middle" x="613.77" y="-64" font-family="Helvetica,sans-Serif" font-size="10.00">DistributionFloat.generated.h</text>
</a>
</g>
</g>
<!-- Node5&#45;&gt;Node11 -->
<g id="edge17_Node000005_Node000011" class="edge">
<title>Node5&#45;&gt;Node11</title>
<g id="a_edge17_Node000005_Node000011"><a xlink:title=" ">
<path fill="none" stroke="#63b8ff" d="M693.11,-113.03C676.91,-103.86 656.78,-92.47 640.84,-83.45"/>
<polygon fill="#63b8ff" stroke="#63b8ff" points="642.81,-80.54 632.38,-78.66 639.36,-86.63 642.81,-80.54"/>
</a>
</g>
</g>
<!-- Node8&#45;&gt;Node2 -->
<g id="edge12_Node000008_Node000002" class="edge">
<title>Node8&#45;&gt;Node2</title>
<g id="a_edge12_Node000008_Node000002"><a xlink:title=" ">
<path fill="none" stroke="#63b8ff" d="M971.38,-56.27C922.2,-46.66 847.56,-32.06 796.83,-22.14"/>
<polygon fill="#63b8ff" stroke="#63b8ff" points="797.73,-18.75 787.24,-20.27 796.39,-25.62 797.73,-18.75"/>
</a>
</g>
</g>
<!-- Node8&#45;&gt;Node3 -->
<g id="edge13_Node000008_Node000003" class="edge">
<title>Node8&#45;&gt;Node3</title>
<g id="a_edge13_Node000008_Node000003"><a xlink:title=" ">
<path fill="none" stroke="#63b8ff" d="M947.85,-57.98C943.09,-57.54 938.36,-57.12 933.77,-56.75 652.98,-33.92 578.84,-45.92 294.93,-20.88"/>
<polygon fill="#63b8ff" stroke="#63b8ff" points="295.66,-17.43 285.39,-20.03 295.04,-24.41 295.66,-17.43"/>
</a>
</g>
</g>
<!-- Node8&#45;&gt;Node7 -->
<g id="edge15_Node000008_Node000007" class="edge">
<title>Node8&#45;&gt;Node7</title>
<g id="a_edge15_Node000008_Node000007"><a xlink:title=" ">
<path fill="none" stroke="#63b8ff" d="M1042.33,-56.34C1060.07,-47.89 1085.95,-35.57 1106.13,-25.96"/>
<polygon fill="#63b8ff" stroke="#63b8ff" points="1107.49,-29.19 1115.02,-21.73 1104.48,-22.87 1107.49,-29.19"/>
</a>
</g>
</g>
<!-- Node9 -->
<g id="Node000009" class="node">
<title>Node9</title>
<g id="a_Node000009"><a xlink:title=" ">
<polygon fill="#e0e0e0" stroke="#999999" points="680.02,-20.75 581.52,-20.75 581.52,0 680.02,0 680.02,-20.75"/>
<text xml:space="preserve" text-anchor="middle" x="630.77" y="-7.25" font-family="Helvetica,sans-Serif" font-size="10.00">UObject/Object.h</text>
</a>
</g>
</g>
<!-- Node8&#45;&gt;Node9 -->
<g id="edge14_Node000008_Node000009" class="edge">
<title>Node8&#45;&gt;Node9</title>
<g id="a_edge14_Node000008_Node000009"><a xlink:title=" ">
<path fill="none" stroke="#63b8ff" d="M947.95,-56.6C883,-48.1 785.55,-35.05 691.57,-21.14"/>
<polygon fill="#63b8ff" stroke="#63b8ff" points="692.33,-17.72 681.93,-19.71 691.3,-24.64 692.33,-17.72"/>
</a>
</g>
</g>
<!-- Node10 -->
<g id="Node000010" class="node">
<title>Node10</title>
<g id="a_Node000010"><a xlink:title=" ">
<polygon fill="#e0e0e0" stroke="#999999" points="1075.02,-20.75 940.52,-20.75 940.52,0 1075.02,0 1075.02,-20.75"/>
<text xml:space="preserve" text-anchor="middle" x="1007.77" y="-7.25" font-family="Helvetica,sans-Serif" font-size="10.00">Distribution.generated.h</text>
</a>
</g>
</g>
<!-- Node8&#45;&gt;Node10 -->
<g id="edge16_Node000008_Node000010" class="edge">
<title>Node8&#45;&gt;Node10</title>
<g id="a_edge16_Node000008_Node000010"><a xlink:title=" ">
<path fill="none" stroke="#63b8ff" d="M1019.26,-56.34C1017.55,-49.64 1015.22,-40.51 1013.1,-32.23"/>
<polygon fill="#63b8ff" stroke="#63b8ff" points="1016.49,-31.37 1010.62,-22.54 1009.71,-33.1 1016.49,-31.37"/>
</a>
</g>
</g>
<!-- Node12&#45;&gt;Node2 -->
<g id="edge19_Node000012_Node000002" class="edge">
<title>Node12&#45;&gt;Node2</title>
<g id="a_edge19_Node000012_Node000002"><a xlink:title=" ">
<path fill="none" stroke="#63b8ff" d="M1063.03,-113.04C1092.42,-99.18 1123.63,-78.12 1104.77,-56.75 1084.75,-34.07 893.5,-20.02 796.96,-14.31"/>
<polygon fill="#63b8ff" stroke="#63b8ff" points="797.37,-10.83 787.18,-13.75 796.96,-17.82 797.37,-10.83"/>
</a>
</g>
</g>
<!-- Node12&#45;&gt;Node3 -->
<g id="edge20_Node000012_Node000003" class="edge">
<title>Node12&#45;&gt;Node3</title>
<g id="a_edge20_Node000012_Node000003"><a xlink:title=" ">
<path fill="none" stroke="#63b8ff" d="M996.17,-113.02C963.79,-92.63 911,-59.91 900.77,-56.75 774.73,-17.83 444.88,-32.25 295.2,-20.83"/>
<polygon fill="#63b8ff" stroke="#63b8ff" points="295.64,-17.36 285.39,-20.01 295.06,-24.34 295.64,-17.36"/>
</a>
</g>
</g>
<!-- Node12&#45;&gt;Node6 -->
<g id="edge21_Node000012_Node000006" class="edge">
<title>Node12&#45;&gt;Node6</title>
<g id="a_edge21_Node000012_Node000006"><a xlink:title=" ">
<path fill="none" stroke="#63b8ff" d="M968.43,-113.03C935.7,-103.08 894.33,-90.5 863.72,-81.19"/>
<polygon fill="#63b8ff" stroke="#63b8ff" points="864.99,-77.92 854.41,-78.36 862.96,-84.61 864.99,-77.92"/>
</a>
</g>
</g>
<!-- Node12&#45;&gt;Node7 -->
<g id="edge22_Node000012_Node000007" class="edge">
<title>Node12&#45;&gt;Node7</title>
<g id="a_edge22_Node000012_Node000007"><a xlink:title=" ">
<path fill="none" stroke="#63b8ff" d="M1091.19,-129.02C1181.04,-127.07 1330.2,-117.67 1364.77,-77.5 1414.27,-19.97 1274.59,-10.99 1192.27,-10.48"/>
<polygon fill="#63b8ff" stroke="#63b8ff" points="1192.34,-6.98 1182.33,-10.47 1192.33,-13.98 1192.34,-6.98"/>
</a>
</g>
</g>
<!-- Node12&#45;&gt;Node8 -->
<g id="edge23_Node000012_Node000008" class="edge">
<title>Node12&#45;&gt;Node8</title>
<g id="a_edge23_Node000012_Node000008"><a xlink:title=" ">
<path fill="none" stroke="#63b8ff" d="M1021.77,-113.19C1021.77,-105.85 1021.77,-97.07 1021.77,-89.21"/>
<polygon fill="#63b8ff" stroke="#63b8ff" points="1025.27,-89.48 1021.77,-79.48 1018.27,-89.48 1025.27,-89.48"/>
</a>
</g>
</g>
<!-- Node13 -->
<g id="Node000013" class="node">
<title>Node13</title>
<g id="a_Node000013"><a xlink:title=" ">
<polygon fill="#e0e0e0" stroke="#999999" points="1355.77,-77.5 1189.77,-77.5 1189.77,-56.75 1355.77,-56.75 1355.77,-77.5"/>
<text xml:space="preserve" text-anchor="middle" x="1272.77" y="-64" font-family="Helvetica,sans-Serif" font-size="10.00">DistributionVector.generated.h</text>
</a>
</g>
</g>
<!-- Node12&#45;&gt;Node13 -->
<g id="edge24_Node000012_Node000013" class="edge">
<title>Node12&#45;&gt;Node13</title>
<g id="a_edge24_Node000012_Node000013"><a xlink:title=" ">
<path fill="none" stroke="#63b8ff" d="M1088.37,-113.03C1130.14,-102.86 1183.17,-89.94 1221.63,-80.58"/>
<polygon fill="#63b8ff" stroke="#63b8ff" points="1222.21,-84.04 1231.09,-78.27 1220.55,-77.24 1222.21,-84.04"/>
</a>
</g>
</g>
<!-- Node14&#45;&gt;Node2 -->
<g id="edge26_Node000014_Node000002" class="edge">
<title>Node14&#45;&gt;Node2</title>
<g id="a_edge26_Node000014_Node000002"><a xlink:title=" ">
<path fill="none" stroke="#63b8ff" d="M284.31,-115.2C348.99,-100.84 440.89,-80.26 448.77,-77.5 468.8,-70.5 471.59,-63.32 491.77,-56.75 496.41,-55.24 614.5,-34.06 686.69,-21.18"/>
<polygon fill="#63b8ff" stroke="#63b8ff" points="687.14,-24.66 696.37,-19.46 685.91,-17.77 687.14,-24.66"/>
</a>
</g>
</g>
<!-- Node14&#45;&gt;Node3 -->
<g id="edge27_Node000014_Node000003" class="edge">
<title>Node14&#45;&gt;Node3</title>
<g id="a_edge27_Node000014_Node000003"><a xlink:title=" ">
<path fill="none" stroke="#63b8ff" d="M157.21,-120.11C108.82,-111.7 48,-97.49 32.77,-77.5 0.94,-35.73 74.78,-20.29 138.2,-14.62"/>
<polygon fill="#63b8ff" stroke="#63b8ff" points="138.29,-18.12 147.98,-13.82 137.72,-11.15 138.29,-18.12"/>
</a>
</g>
</g>
<!-- Node15 -->
<g id="Node000015" class="node">
<title>Node15</title>
<g id="a_Node000015"><a xlink:href="ParticleModule_8h.html" target="_top" xlink:title=" ">
<polygon fill="white" stroke="#666666" points="440.14,-77.5 297.39,-77.5 297.39,-56.75 440.14,-56.75 440.14,-77.5"/>
<text xml:space="preserve" text-anchor="middle" x="368.77" y="-64" font-family="Helvetica,sans-Serif" font-size="10.00">Particles/ParticleModule.h</text>
</a>
</g>
</g>
<!-- Node14&#45;&gt;Node15 -->
<g id="edge28_Node000014_Node000015" class="edge">
<title>Node14&#45;&gt;Node15</title>
<g id="a_edge28_Node000014_Node000015"><a xlink:title=" ">
<path fill="none" stroke="#63b8ff" d="M260.04,-113.03C283.19,-103.47 312.2,-91.49 334.44,-82.3"/>
<polygon fill="#63b8ff" stroke="#63b8ff" points="335.76,-85.55 343.66,-78.49 333.08,-79.08 335.76,-85.55"/>
</a>
</g>
</g>
<!-- Node18 -->
<g id="Node000018" class="node">
<title>Node18</title>
<g id="a_Node000018"><a xlink:title=" ">
<polygon fill="#e0e0e0" stroke="#999999" points="241.64,-77.5 41.89,-77.5 41.89,-56.75 241.64,-56.75 241.64,-77.5"/>
<text xml:space="preserve" text-anchor="middle" x="141.77" y="-64" font-family="Helvetica,sans-Serif" font-size="10.00">ParticleModuleColorBase.generated.h</text>
</a>
</g>
</g>
<!-- Node14&#45;&gt;Node18 -->
<g id="edge34_Node000014_Node000018" class="edge">
<title>Node14&#45;&gt;Node18</title>
<g id="a_edge34_Node000014_Node000018"><a xlink:title=" ">
<path fill="none" stroke="#63b8ff" d="M200.01,-113.19C188.72,-104.46 174.78,-93.67 163.37,-84.84"/>
<polygon fill="#63b8ff" stroke="#63b8ff" points="165.73,-82.24 155.68,-78.89 161.45,-87.78 165.73,-82.24"/>
</a>
</g>
</g>
<!-- Node15&#45;&gt;Node2 -->
<g id="edge29_Node000015_Node000002" class="edge">
<title>Node15&#45;&gt;Node2</title>
<g id="a_edge29_Node000015_Node000002"><a xlink:title=" ">
<path fill="none" stroke="#63b8ff" d="M440.36,-56.69C502.68,-48.31 595.75,-35.41 686.49,-21.07"/>
<polygon fill="#63b8ff" stroke="#63b8ff" points="687,-24.53 696.33,-19.5 685.91,-17.62 687,-24.53"/>
</a>
</g>
</g>
<!-- Node15&#45;&gt;Node3 -->
<g id="edge30_Node000015_Node000003" class="edge">
<title>Node15&#45;&gt;Node3</title>
<g id="a_edge30_Node000015_Node000003"><a xlink:title=" ">
<path fill="none" stroke="#63b8ff" d="M341.59,-56.34C317.35,-47.61 281.62,-34.73 254.59,-25"/>
<polygon fill="#63b8ff" stroke="#63b8ff" points="255.98,-21.78 245.39,-21.68 253.61,-28.37 255.98,-21.78"/>
</a>
</g>
</g>
<!-- Node15&#45;&gt;Node9 -->
<g id="edge31_Node000015_Node000009" class="edge">
<title>Node15&#45;&gt;Node9</title>
<g id="a_edge31_Node000015_Node000009"><a xlink:title=" ">
<path fill="none" stroke="#63b8ff" d="M415.91,-56.27C459.74,-47.12 525.16,-33.44 572.3,-23.59"/>
<polygon fill="#63b8ff" stroke="#63b8ff" points="573.01,-27.02 582.08,-21.55 571.57,-20.17 573.01,-27.02"/>
</a>
</g>
</g>
<!-- Node16 -->
<g id="Node000016" class="node">
<title>Node16</title>
<g id="a_Node000016"><a xlink:title=" ">
<polygon fill="#e0e0e0" stroke="#999999" points="395.77,-20.75 301.77,-20.75 301.77,0 395.77,0 395.77,-20.75"/>
<text xml:space="preserve" text-anchor="middle" x="348.77" y="-7.25" font-family="Helvetica,sans-Serif" font-size="10.00">ParticleHelper.h</text>
</a>
</g>
</g>
<!-- Node15&#45;&gt;Node16 -->
<g id="edge32_Node000015_Node000016" class="edge">
<title>Node15&#45;&gt;Node16</title>
<g id="a_edge32_Node000015_Node000016"><a xlink:title=" ">
<path fill="none" stroke="#63b8ff" d="M365.19,-56.34C362.69,-49.49 359.25,-40.09 356.17,-31.65"/>
<polygon fill="#63b8ff" stroke="#63b8ff" points="359.55,-30.69 352.83,-22.5 352.97,-33.09 359.55,-30.69"/>
</a>
</g>
</g>
<!-- Node17 -->
<g id="Node000017" class="node">
<title>Node17</title>
<g id="a_Node000017"><a xlink:title=" ">
<polygon fill="#e0e0e0" stroke="#999999" points="563.89,-20.75 413.64,-20.75 413.64,0 563.89,0 563.89,-20.75"/>
<text xml:space="preserve" text-anchor="middle" x="488.77" y="-7.25" font-family="Helvetica,sans-Serif" font-size="10.00">ParticleModule.generated.h</text>
</a>
</g>
</g>
<!-- Node15&#45;&gt;Node17 -->
<g id="edge33_Node000015_Node000017" class="edge">
<title>Node15&#45;&gt;Node17</title>
<g id="a_edge33_Node000015_Node000017"><a xlink:title=" ">
<path fill="none" stroke="#63b8ff" d="M390.22,-56.34C408.82,-47.85 435.99,-35.45 457.09,-25.83"/>
<polygon fill="#63b8ff" stroke="#63b8ff" points="458.48,-29.04 466.12,-21.71 455.57,-22.67 458.48,-29.04"/>
</a>
</g>
</g>
</g>
</svg>

<g id="navigator" transform="translate(0 0)" fill="#404254">
  <rect fill="#f2f5e9" fill-opacity="0.5" stroke="#606060" stroke-width=".5" x="0" y="0" width="60" height="60"/>
  <use id="zoomplus" xlink:href="#zoomPlus" x="17" y="9" onmousedown="handleZoom(evt,'in')"/>
  <use id="zoomminus" xlink:href="#zoomMin" x="42" y="9" onmousedown="handleZoom(evt,'out')"/>
  <use id="reset" xlink:href="#resetDef" x="30" y="36" onmousedown="handleReset()"/>
   <use id="arrowup" xlink:href="#arrowUp" x="0" y="0" onmousedown="handlePan(0,-1)"/>
  <use id="arrowright" xlink:href="#arrowRight" x="0" y="0" onmousedown="handlePan(1,0)"/>
  <use id="arrowdown" xlink:href="#arrowDown" x="0" y="0" onmousedown="handlePan(0,1)"/>
  <use id="arrowleft" xlink:href="#arrowLeft" x="0" y="0" onmousedown="handlePan(-1,0)"/>
</g>
<svg viewBox="0 0 15 15" width="100%" height="30px" preserveAspectRatio="xMaxYMin meet">
 <g id="arrow_out" transform="scale(0.3 0.3)">
  <a xlink:href="ParticleModuleColor__Seeded_8h__incl_org.svg" target="_base">
   <rect id="button" ry="5" rx="5" y="6" x="6" height="38" width="38"
        fill="#f2f5e9" fill-opacity="0.5" stroke="#606060" stroke-width="1.0"/>
   <path id="arrow"
     d="M 11.500037,31.436501 C 11.940474,20.09759 22.043105,11.32322 32.158766,21.979434 L 37.068811,17.246167 C 37.068811,17.246167 37.088388,32 37.088388,32 L 22.160133,31.978069 C 22.160133,31.978069 26.997745,27.140456 26.997745,27.140456 C 18.528582,18.264221 13.291696,25.230495 11.500037,31.436501 z"
     style="fill:#404040;"/>
  </a>
 </g>
</svg>

<style type='text/css'>
<![CDATA[
[data-mouse-over-selected='false'] { opacity: 0.7; }
[data-mouse-over-selected='true']  { opacity: 1.0; }
]]>
</style>
<script type="application/ecmascript"><![CDATA[
document.addEventListener('DOMContentLoaded', (event) => {
  highlightEdges();
  highlightAdjacentNodes();
});
]]></script>
</svg>
