<?xml version="1.0" encoding="UTF-8" standalone="no"?>
<!DOCTYPE svg PUBLIC "-//W3C//DTD SVG 1.1//EN"
 "http://www.w3.org/Graphics/SVG/1.1/DTD/svg11.dtd">
<!-- Generated by graphviz version 14.1.4 (0)
 -->
<!-- Title: /opt/unreal&#45;engine/Engine/Source/Runtime/Engine/Classes/Particles/Location/ParticleModuleLocationWorldOffset.h Pages: 1 -->
<svg width="1501pt" height="332pt"
 viewBox="0.00 0.00 1501.00 332.00" xmlns="http://www.w3.org/2000/svg" xmlns:xlink="http://www.w3.org/1999/xlink">
<g id="graph0" class="graph" transform="scale(1 1) rotate(0) translate(4 328.25)">
<title>/opt/unreal&#45;engine/Engine/Source/Runtime/Engine/Classes/Particles/Location/ParticleModuleLocationWorldOffset.h</title>
<!-- Node1 -->
<g id="Node000001" class="node">
<title>Node1</title>
<g id="a_Node000001"><a xlink:title=" ">
<polygon fill="#999999" stroke="#666666" points="1159.65,-324.25 982.4,-324.25 982.4,-252.5 1159.65,-252.5 1159.65,-324.25"/>
<text xml:space="preserve" text-anchor="start" x="990.4" y="-310.75" font-family="Helvetica,sans-Serif" font-size="10.00">/opt/unreal&#45;engine</text>
<text xml:space="preserve" text-anchor="start" x="990.4" y="-298" font-family="Helvetica,sans-Serif" font-size="10.00">/Engine/Source/Runtime</text>
<text xml:space="preserve" text-anchor="start" x="990.4" y="-285.25" font-family="Helvetica,sans-Serif" font-size="10.00">/Engine/Classes/Particles</text>
<text xml:space="preserve" text-anchor="start" x="990.4" y="-272.5" font-family="Helvetica,sans-Serif" font-size="10.00">/Location/ParticleModuleLocation</text>
<text xml:space="preserve" text-anchor="middle" x="1071.03" y="-259.75" font-family="Helvetica,sans-Serif" font-size="10.00">WorldOffset.h</text>
</a>
</g>
</g>
<!-- Node2 -->
<g id="Node000002" class="node">
<title>Node2</title>
<g id="a_Node000002"><a xlink:title=" ">
<polygon fill="#e0e0e0" stroke="#999999" points="290.65,-20.75 203.4,-20.75 203.4,0 290.65,0 290.65,-20.75"/>
<text xml:space="preserve" text-anchor="middle" x="247.03" y="-7.25" font-family="Helvetica,sans-Serif" font-size="10.00">CoreMinimal.h</text>
</a>
</g>
</g>
<!-- Node1&#45;&gt;Node2 -->
<g id="edge1_Node000001_Node000002" class="edge">
<title>Node1&#45;&gt;Node2</title>
<g id="a_edge1_Node000001_Node000002"><a xlink:title=" ">
<path fill="none" stroke="#63b8ff" d="M982.28,-282.2C739.25,-267.13 76.71,-219.69 13.03,-147 -44.64,-81.17 105.7,-39.31 191.73,-21.41"/>
<polygon fill="#63b8ff" stroke="#63b8ff" points="192.32,-24.86 201.42,-19.44 190.92,-18 192.32,-24.86"/>
</a>
</g>
</g>
<!-- Node3 -->
<g id="Node000003" class="node">
<title>Node3</title>
<g id="a_Node000003"><a xlink:title=" ">
<polygon fill="#e0e0e0" stroke="#999999" points="1086.9,-20.75 953.15,-20.75 953.15,0 1086.9,0 1086.9,-20.75"/>
<text xml:space="preserve" text-anchor="middle" x="1020.03" y="-7.25" font-family="Helvetica,sans-Serif" font-size="10.00">UObject/ObjectMacros.h</text>
</a>
</g>
</g>
<!-- Node1&#45;&gt;Node3 -->
<g id="edge2_Node000001_Node000003" class="edge">
<title>Node1&#45;&gt;Node3</title>
<g id="a_edge2_Node000001_Node000003"><a xlink:title=" ">
<path fill="none" stroke="#63b8ff" d="M1137.87,-252.16C1214.92,-207.04 1323.98,-126.37 1266.03,-56.75 1255.19,-43.73 1166.14,-29.72 1098.27,-20.77"/>
<polygon fill="#63b8ff" stroke="#63b8ff" points="1099.02,-17.34 1088.65,-19.52 1098.12,-24.28 1099.02,-17.34"/>
</a>
</g>
</g>
<!-- Node4 -->
<g id="Node000004" class="node">
<title>Node4</title>
<g id="a_Node000004"><a xlink:href="ParticleModuleLocation_8h.html" target="_top" xlink:title=" ">
<polygon fill="white" stroke="#666666" points="731.03,-216.5 589.03,-216.5 589.03,-183 731.03,-183 731.03,-216.5"/>
<text xml:space="preserve" text-anchor="start" x="597.03" y="-203" font-family="Helvetica,sans-Serif" font-size="10.00">Particles/Location</text>
<text xml:space="preserve" text-anchor="middle" x="660.03" y="-190.25" font-family="Helvetica,sans-Serif" font-size="10.00">/ParticleModuleLocation.h</text>
</a>
</g>
</g>
<!-- Node1&#45;&gt;Node4 -->
<g id="edge3_Node000001_Node000004" class="edge">
<title>Node1&#45;&gt;Node4</title>
<g id="a_edge3_Node000001_Node000004"><a xlink:title=" ">
<path fill="none" stroke="#63b8ff" d="M982.1,-268.63C910.85,-253.62 811.67,-232.71 742.25,-218.08"/>
<polygon fill="#63b8ff" stroke="#63b8ff" points="743.37,-214.74 732.86,-216.1 741.92,-221.59 743.37,-214.74"/>
</a>
</g>
</g>
<!-- Node18 -->
<g id="Node000018" class="node">
<title>Node18</title>
<g id="a_Node000018"><a xlink:title=" ">
<polygon fill="#e0e0e0" stroke="#999999" points="1493.28,-216.5 1334.78,-216.5 1334.78,-183 1493.28,-183 1493.28,-216.5"/>
<text xml:space="preserve" text-anchor="start" x="1342.78" y="-203" font-family="Helvetica,sans-Serif" font-size="10.00">ParticleModuleLocationWorld</text>
<text xml:space="preserve" text-anchor="middle" x="1414.03" y="-190.25" font-family="Helvetica,sans-Serif" font-size="10.00">Offset.generated.h</text>
</a>
</g>
</g>
<!-- Node1&#45;&gt;Node18 -->
<g id="edge29_Node000001_Node000018" class="edge">
<title>Node1&#45;&gt;Node18</title>
<g id="a_edge29_Node000001_Node000018"><a xlink:title=" ">
<path fill="none" stroke="#63b8ff" d="M1159.81,-264.95C1215.31,-250.94 1286.01,-233.08 1338.75,-219.76"/>
<polygon fill="#63b8ff" stroke="#63b8ff" points="1339.42,-223.2 1348.26,-217.36 1337.7,-216.42 1339.42,-223.2"/>
</a>
</g>
</g>
<!-- Node4&#45;&gt;Node2 -->
<g id="edge4_Node000004_Node000002" class="edge">
<title>Node4&#45;&gt;Node2</title>
<g id="a_edge4_Node000004_Node000002"><a xlink:title=" ">
<path fill="none" stroke="#63b8ff" d="M588.91,-190.32C474.46,-175.06 257.86,-138.66 215.03,-77.5 204.35,-62.25 216.26,-42.88 228.47,-29.06"/>
<polygon fill="#63b8ff" stroke="#63b8ff" points="230.87,-31.61 235.25,-21.97 225.81,-26.77 230.87,-31.61"/>
</a>
</g>
</g>
<!-- Node4&#45;&gt;Node3 -->
<g id="edge5_Node000004_Node000003" class="edge">
<title>Node4&#45;&gt;Node3</title>
<g id="a_edge5_Node000004_Node000003"><a xlink:title=" ">
<path fill="none" stroke="#63b8ff" d="M677.53,-182.67C710.2,-153.47 783.71,-91.55 856.03,-56.75 887.21,-41.75 924.18,-30.98 955.12,-23.7"/>
<polygon fill="#63b8ff" stroke="#63b8ff" points="955.78,-27.14 964.75,-21.52 954.23,-20.32 955.78,-27.14"/>
</a>
</g>
</g>
<!-- Node5 -->
<g id="Node000005" class="node">
<title>Node5</title>
<g id="a_Node000005"><a xlink:href="DistributionVector_8h.html" target="_top" xlink:title=" ">
<polygon fill="white" stroke="#666666" points="553.15,-147 414.9,-147 414.9,-113.5 553.15,-113.5 553.15,-147"/>
<text xml:space="preserve" text-anchor="start" x="422.9" y="-133.5" font-family="Helvetica,sans-Serif" font-size="10.00">Distributions/Distribution</text>
<text xml:space="preserve" text-anchor="middle" x="484.03" y="-120.75" font-family="Helvetica,sans-Serif" font-size="10.00">Vector.h</text>
</a>
</g>
</g>
<!-- Node4&#45;&gt;Node5 -->
<g id="edge6_Node000004_Node000005" class="edge">
<title>Node4&#45;&gt;Node5</title>
<g id="a_edge6_Node000004_Node000005"><a xlink:title=" ">
<path fill="none" stroke="#63b8ff" d="M617.87,-182.58C593.47,-173.22 562.55,-161.36 536.57,-151.4"/>
<polygon fill="#63b8ff" stroke="#63b8ff" points="538.15,-148.26 527.56,-147.94 535.64,-154.79 538.15,-148.26"/>
</a>
</g>
</g>
<!-- Node12 -->
<g id="Node000012" class="node">
<title>Node12</title>
<g id="a_Node000012"><a xlink:href="ParticleModuleLocationBase_8h.html" target="_top" xlink:title=" ">
<polygon fill="white" stroke="#666666" points="1056.03,-147 890.03,-147 890.03,-113.5 1056.03,-113.5 1056.03,-147"/>
<text xml:space="preserve" text-anchor="start" x="898.03" y="-133.5" font-family="Helvetica,sans-Serif" font-size="10.00">Particles/Location</text>
<text xml:space="preserve" text-anchor="middle" x="973.03" y="-120.75" font-family="Helvetica,sans-Serif" font-size="10.00">/ParticleModuleLocationBase.h</text>
</a>
</g>
</g>
<!-- Node4&#45;&gt;Node12 -->
<g id="edge18_Node000004_Node000012" class="edge">
<title>Node4&#45;&gt;Node12</title>
<g id="a_edge18_Node000004_Node000012"><a xlink:title=" ">
<path fill="none" stroke="#63b8ff" d="M731.44,-183.35C777.56,-173.4 837.84,-160.4 886.64,-149.88"/>
<polygon fill="#63b8ff" stroke="#63b8ff" points="887.31,-153.32 896.35,-147.79 885.84,-146.47 887.31,-153.32"/>
</a>
</g>
</g>
<!-- Node17 -->
<g id="Node000017" class="node">
<title>Node17</title>
<g id="a_Node000017"><a xlink:title=" ">
<polygon fill="#e0e0e0" stroke="#999999" points="213.78,-140.62 22.28,-140.62 22.28,-119.88 213.78,-119.88 213.78,-140.62"/>
<text xml:space="preserve" text-anchor="middle" x="118.03" y="-127.12" font-family="Helvetica,sans-Serif" font-size="10.00">ParticleModuleLocation.generated.h</text>
</a>
</g>
</g>
<!-- Node4&#45;&gt;Node17 -->
<g id="edge28_Node000004_Node000017" class="edge">
<title>Node4&#45;&gt;Node17</title>
<g id="a_edge28_Node000004_Node000017"><a xlink:title=" ">
<path fill="none" stroke="#63b8ff" d="M588.87,-190.73C503.2,-180.96 354.97,-163.69 228.03,-147 217.84,-145.66 207.14,-144.2 196.57,-142.72"/>
<polygon fill="#63b8ff" stroke="#63b8ff" points="197.07,-139.26 186.68,-141.33 196.1,-146.19 197.07,-139.26"/>
</a>
</g>
</g>
<!-- Node5&#45;&gt;Node2 -->
<g id="edge7_Node000005_Node000002" class="edge">
<title>Node5&#45;&gt;Node2</title>
<g id="a_edge7_Node000005_Node000002"><a xlink:title=" ">
<path fill="none" stroke="#63b8ff" d="M414.49,-125.13C345.81,-119.43 247.71,-106.36 224.03,-77.5 212.75,-63.76 221.87,-44.14 231.75,-29.84"/>
<polygon fill="#63b8ff" stroke="#63b8ff" points="234.34,-32.22 237.57,-22.13 228.75,-28.01 234.34,-32.22"/>
</a>
</g>
</g>
<!-- Node5&#45;&gt;Node3 -->
<g id="edge8_Node000005_Node000003" class="edge">
<title>Node5&#45;&gt;Node3</title>
<g id="a_edge8_Node000005_Node000003"><a xlink:title=" ">
<path fill="none" stroke="#63b8ff" d="M553.52,-122.59C614.35,-115.48 704.54,-101.79 780.03,-77.5 800.23,-71 803.01,-63.79 823.03,-56.75 864.62,-42.13 912.82,-30.94 951.13,-23.32"/>
<polygon fill="#63b8ff" stroke="#63b8ff" points="951.54,-26.81 960.69,-21.46 950.2,-19.94 951.54,-26.81"/>
</a>
</g>
</g>
<!-- Node6 -->
<g id="Node000006" class="node">
<title>Node6</title>
<g id="a_Node000006"><a xlink:title=" ">
<polygon fill="#e0e0e0" stroke="#999999" points="383.4,-77.5 240.65,-77.5 240.65,-56.75 383.4,-56.75 383.4,-77.5"/>
<text xml:space="preserve" text-anchor="middle" x="312.03" y="-64" font-family="Helvetica,sans-Serif" font-size="10.00">UObject/UObjectGlobals.h</text>
</a>
</g>
</g>
<!-- Node5&#45;&gt;Node6 -->
<g id="edge9_Node000005_Node000006" class="edge">
<title>Node5&#45;&gt;Node6</title>
<g id="a_edge9_Node000005_Node000006"><a xlink:title=" ">
<path fill="none" stroke="#63b8ff" d="M438.39,-113.03C410.87,-103.25 376.22,-90.94 350.17,-81.68"/>
<polygon fill="#63b8ff" stroke="#63b8ff" points="351.6,-78.47 341,-78.42 349.25,-85.07 351.6,-78.47"/>
</a>
</g>
</g>
<!-- Node7 -->
<g id="Node000007" class="node">
<title>Node7</title>
<g id="a_Node000007"><a xlink:title=" ">
<polygon fill="#e0e0e0" stroke="#999999" points="539.65,-20.75 452.4,-20.75 452.4,0 539.65,0 539.65,-20.75"/>
<text xml:space="preserve" text-anchor="middle" x="496.03" y="-7.25" font-family="Helvetica,sans-Serif" font-size="10.00">Distributions.h</text>
</a>
</g>
</g>
<!-- Node5&#45;&gt;Node7 -->
<g id="edge10_Node000005_Node000007" class="edge">
<title>Node5&#45;&gt;Node7</title>
<g id="a_edge10_Node000005_Node000007"><a xlink:title=" ">
<path fill="none" stroke="#63b8ff" d="M414.44,-124.61C347.98,-118.57 254.68,-105.28 232.03,-77.5 226.2,-70.35 226.08,-63.8 232.03,-56.75 258.18,-25.72 371.38,-15.91 440.78,-12.81"/>
<polygon fill="#63b8ff" stroke="#63b8ff" points="440.58,-16.32 450.43,-12.41 440.3,-9.32 440.58,-16.32"/>
</a>
</g>
</g>
<!-- Node8 -->
<g id="Node000008" class="node">
<title>Node8</title>
<g id="a_Node000008"><a xlink:href="Distribution_8h.html" target="_top" xlink:title=" ">
<polygon fill="white" stroke="#666666" points="770.65,-77.5 623.4,-77.5 623.4,-56.75 770.65,-56.75 770.65,-77.5"/>
<text xml:space="preserve" text-anchor="middle" x="697.03" y="-64" font-family="Helvetica,sans-Serif" font-size="10.00">Distributions/Distribution.h</text>
</a>
</g>
</g>
<!-- Node5&#45;&gt;Node8 -->
<g id="edge11_Node000005_Node000008" class="edge">
<title>Node5&#45;&gt;Node8</title>
<g id="a_edge11_Node000005_Node000008"><a xlink:title=" ">
<path fill="none" stroke="#63b8ff" d="M540.55,-113.03C575.39,-103.03 619.45,-90.39 651.94,-81.06"/>
<polygon fill="#63b8ff" stroke="#63b8ff" points="652.81,-84.46 661.46,-78.33 650.88,-77.73 652.81,-84.46"/>
</a>
</g>
</g>
<!-- Node11 -->
<g id="Node000011" class="node">
<title>Node11</title>
<g id="a_Node000011"><a xlink:title=" ">
<polygon fill="#e0e0e0" stroke="#999999" points="567.03,-77.5 401.03,-77.5 401.03,-56.75 567.03,-56.75 567.03,-77.5"/>
<text xml:space="preserve" text-anchor="middle" x="484.03" y="-64" font-family="Helvetica,sans-Serif" font-size="10.00">DistributionVector.generated.h</text>
</a>
</g>
</g>
<!-- Node5&#45;&gt;Node11 -->
<g id="edge17_Node000005_Node000011" class="edge">
<title>Node5&#45;&gt;Node11</title>
<g id="a_edge17_Node000005_Node000011"><a xlink:title=" ">
<path fill="none" stroke="#63b8ff" d="M484.03,-113.19C484.03,-105.85 484.03,-97.07 484.03,-89.21"/>
<polygon fill="#63b8ff" stroke="#63b8ff" points="487.53,-89.48 484.03,-79.48 480.53,-89.48 487.53,-89.48"/>
</a>
</g>
</g>
<!-- Node8&#45;&gt;Node2 -->
<g id="edge12_Node000008_Node000002" class="edge">
<title>Node8&#45;&gt;Node2</title>
<g id="a_edge12_Node000008_Node000002"><a xlink:title=" ">
<path fill="none" stroke="#63b8ff" d="M622.97,-57.11C532.97,-46.16 383.15,-27.94 302.5,-18.12"/>
<polygon fill="#63b8ff" stroke="#63b8ff" points="302.97,-14.66 292.62,-16.92 302.12,-21.6 302.97,-14.66"/>
</a>
</g>
</g>
<!-- Node8&#45;&gt;Node3 -->
<g id="edge13_Node000008_Node000003" class="edge">
<title>Node8&#45;&gt;Node3</title>
<g id="a_edge13_Node000008_Node000003"><a xlink:title=" ">
<path fill="none" stroke="#63b8ff" d="M755.15,-56.27C809.98,-46.98 892.23,-33.04 950.51,-23.16"/>
<polygon fill="#63b8ff" stroke="#63b8ff" points="951.06,-26.61 960.34,-21.49 949.9,-19.71 951.06,-26.61"/>
</a>
</g>
</g>
<!-- Node8&#45;&gt;Node7 -->
<g id="edge15_Node000008_Node000007" class="edge">
<title>Node8&#45;&gt;Node7</title>
<g id="a_edge15_Node000008_Node000007"><a xlink:title=" ">
<path fill="none" stroke="#63b8ff" d="M661.09,-56.34C628.04,-47.33 578.83,-33.93 542.74,-24.1"/>
<polygon fill="#63b8ff" stroke="#63b8ff" points="544.02,-20.82 533.45,-21.57 542.18,-27.57 544.02,-20.82"/>
</a>
</g>
</g>
<!-- Node9 -->
<g id="Node000009" class="node">
<title>Node9</title>
<g id="a_Node000009"><a xlink:title=" ">
<polygon fill="#e0e0e0" stroke="#999999" points="917.28,-20.75 818.78,-20.75 818.78,0 917.28,0 917.28,-20.75"/>
<text xml:space="preserve" text-anchor="middle" x="868.03" y="-7.25" font-family="Helvetica,sans-Serif" font-size="10.00">UObject/Object.h</text>
</a>
</g>
</g>
<!-- Node8&#45;&gt;Node9 -->
<g id="edge14_Node000008_Node000009" class="edge">
<title>Node8&#45;&gt;Node9</title>
<g id="a_edge14_Node000008_Node000009"><a xlink:title=" ">
<path fill="none" stroke="#63b8ff" d="M727.6,-56.34C755.23,-47.49 796.15,-34.39 826.69,-24.61"/>
<polygon fill="#63b8ff" stroke="#63b8ff" points="827.54,-28.01 835.99,-21.63 825.4,-21.35 827.54,-28.01"/>
</a>
</g>
</g>
<!-- Node10 -->
<g id="Node000010" class="node">
<title>Node10</title>
<g id="a_Node000010"><a xlink:title=" ">
<polygon fill="#e0e0e0" stroke="#999999" points="764.28,-20.75 629.78,-20.75 629.78,0 764.28,0 764.28,-20.75"/>
<text xml:space="preserve" text-anchor="middle" x="697.03" y="-7.25" font-family="Helvetica,sans-Serif" font-size="10.00">Distribution.generated.h</text>
</a>
</g>
</g>
<!-- Node8&#45;&gt;Node10 -->
<g id="edge16_Node000008_Node000010" class="edge">
<title>Node8&#45;&gt;Node10</title>
<g id="a_edge16_Node000008_Node000010"><a xlink:title=" ">
<path fill="none" stroke="#63b8ff" d="M697.03,-56.34C697.03,-49.72 697.03,-40.72 697.03,-32.52"/>
<polygon fill="#63b8ff" stroke="#63b8ff" points="700.53,-32.59 697.03,-22.59 693.53,-32.59 700.53,-32.59"/>
</a>
</g>
</g>
<!-- Node12&#45;&gt;Node2 -->
<g id="edge19_Node000012_Node000002" class="edge">
<title>Node12&#45;&gt;Node2</title>
<g id="a_edge19_Node000012_Node000002"><a xlink:title=" ">
<path fill="none" stroke="#63b8ff" d="M889.84,-125.64C815.82,-120.48 705.44,-107.94 614.03,-77.5 595.77,-71.42 594.3,-62.77 576.03,-56.75 483.17,-26.14 368.98,-16.17 302.46,-12.93"/>
<polygon fill="#63b8ff" stroke="#63b8ff" points="302.66,-9.44 292.52,-12.49 302.35,-16.43 302.66,-9.44"/>
</a>
</g>
</g>
<!-- Node12&#45;&gt;Node3 -->
<g id="edge20_Node000012_Node000003" class="edge">
<title>Node12&#45;&gt;Node3</title>
<g id="a_edge20_Node000012_Node000003"><a xlink:title=" ">
<path fill="none" stroke="#63b8ff" d="M1056.35,-125.11C1128.75,-119.57 1225.73,-106.76 1250.03,-77.5 1255.92,-70.41 1255.88,-63.87 1250.03,-56.75 1240.21,-44.81 1161.09,-31.07 1098.35,-21.86"/>
<polygon fill="#63b8ff" stroke="#63b8ff" points="1099.14,-18.44 1088.74,-20.47 1098.14,-25.37 1099.14,-18.44"/>
</a>
</g>
</g>
<!-- Node13 -->
<g id="Node000013" class="node">
<title>Node13</title>
<g id="a_Node000013"><a xlink:href="ParticleModule_8h.html" target="_top" xlink:title=" ">
<polygon fill="white" stroke="#666666" points="1241.4,-77.5 1098.65,-77.5 1098.65,-56.75 1241.4,-56.75 1241.4,-77.5"/>
<text xml:space="preserve" text-anchor="middle" x="1170.03" y="-64" font-family="Helvetica,sans-Serif" font-size="10.00">Particles/ParticleModule.h</text>
</a>
</g>
</g>
<!-- Node12&#45;&gt;Node13 -->
<g id="edge21_Node000012_Node000013" class="edge">
<title>Node12&#45;&gt;Node13</title>
<g id="a_edge21_Node000012_Node000013"><a xlink:title=" ">
<path fill="none" stroke="#63b8ff" d="M1025.3,-113.03C1057.24,-103.12 1097.57,-90.61 1127.54,-81.31"/>
<polygon fill="#63b8ff" stroke="#63b8ff" points="1128.52,-84.67 1137.03,-78.36 1126.44,-77.98 1128.52,-84.67"/>
</a>
</g>
</g>
<!-- Node16 -->
<g id="Node000016" class="node">
<title>Node16</title>
<g id="a_Node000016"><a xlink:title=" ">
<polygon fill="#e0e0e0" stroke="#999999" points="1080.78,-77.5 865.28,-77.5 865.28,-56.75 1080.78,-56.75 1080.78,-77.5"/>
<text xml:space="preserve" text-anchor="middle" x="973.03" y="-64" font-family="Helvetica,sans-Serif" font-size="10.00">ParticleModuleLocationBase.generated.h</text>
</a>
</g>
</g>
<!-- Node12&#45;&gt;Node16 -->
<g id="edge27_Node000012_Node000016" class="edge">
<title>Node12&#45;&gt;Node16</title>
<g id="a_edge27_Node000012_Node000016"><a xlink:title=" ">
<path fill="none" stroke="#63b8ff" d="M973.03,-113.19C973.03,-105.85 973.03,-97.07 973.03,-89.21"/>
<polygon fill="#63b8ff" stroke="#63b8ff" points="976.53,-89.48 973.03,-79.48 969.53,-89.48 976.53,-89.48"/>
</a>
</g>
</g>
<!-- Node13&#45;&gt;Node2 -->
<g id="edge22_Node000013_Node000002" class="edge">
<title>Node13&#45;&gt;Node2</title>
<g id="a_edge22_Node000013_Node000002"><a xlink:title=" ">
<path fill="none" stroke="#63b8ff" d="M1098.52,-57.52C1095.65,-57.25 1092.81,-56.99 1090.03,-56.75 1012.05,-50.09 477.43,-22.96 302.38,-14.15"/>
<polygon fill="#63b8ff" stroke="#63b8ff" points="302.81,-10.67 292.65,-13.66 302.46,-17.66 302.81,-10.67"/>
</a>
</g>
</g>
<!-- Node13&#45;&gt;Node3 -->
<g id="edge23_Node000013_Node000003" class="edge">
<title>Node13&#45;&gt;Node3</title>
<g id="a_edge23_Node000013_Node000003"><a xlink:title=" ">
<path fill="none" stroke="#63b8ff" d="M1143.21,-56.34C1119.29,-47.61 1084.02,-34.73 1057.35,-25"/>
<polygon fill="#63b8ff" stroke="#63b8ff" points="1058.88,-21.83 1048.29,-21.69 1056.48,-28.41 1058.88,-21.83"/>
</a>
</g>
</g>
<!-- Node13&#45;&gt;Node9 -->
<g id="edge24_Node000013_Node000009" class="edge">
<title>Node13&#45;&gt;Node9</title>
<g id="a_edge24_Node000013_Node000009"><a xlink:title=" ">
<path fill="none" stroke="#63b8ff" d="M1115.69,-56.27C1063.05,-46.73 983.38,-32.29 928.7,-22.37"/>
<polygon fill="#63b8ff" stroke="#63b8ff" points="929.38,-18.94 918.92,-20.6 928.13,-25.83 929.38,-18.94"/>
</a>
</g>
</g>
<!-- Node14 -->
<g id="Node000014" class="node">
<title>Node14</title>
<g id="a_Node000014"><a xlink:title=" ">
<polygon fill="#e0e0e0" stroke="#999999" points="1208.03,-20.75 1114.03,-20.75 1114.03,0 1208.03,0 1208.03,-20.75"/>
<text xml:space="preserve" text-anchor="middle" x="1161.03" y="-7.25" font-family="Helvetica,sans-Serif" font-size="10.00">ParticleHelper.h</text>
</a>
</g>
</g>
<!-- Node13&#45;&gt;Node14 -->
<g id="edge25_Node000013_Node000014" class="edge">
<title>Node13&#45;&gt;Node14</title>
<g id="a_edge25_Node000013_Node000014"><a xlink:title=" ">
<path fill="none" stroke="#63b8ff" d="M1168.42,-56.34C1167.32,-49.64 1165.82,-40.51 1164.46,-32.23"/>
<polygon fill="#63b8ff" stroke="#63b8ff" points="1167.94,-31.87 1162.87,-22.57 1161.04,-33.01 1167.94,-31.87"/>
</a>
</g>
</g>
<!-- Node15 -->
<g id="Node000015" class="node">
<title>Node15</title>
<g id="a_Node000015"><a xlink:title=" ">
<polygon fill="#e0e0e0" stroke="#999999" points="1376.15,-20.75 1225.9,-20.75 1225.9,0 1376.15,0 1376.15,-20.75"/>
<text xml:space="preserve" text-anchor="middle" x="1301.03" y="-7.25" font-family="Helvetica,sans-Serif" font-size="10.00">ParticleModule.generated.h</text>
</a>
</g>
</g>
<!-- Node13&#45;&gt;Node15 -->
<g id="edge26_Node000013_Node000015" class="edge">
<title>Node13&#45;&gt;Node15</title>
<g id="a_edge26_Node000013_Node000015"><a xlink:title=" ">
<path fill="none" stroke="#63b8ff" d="M1193.45,-56.34C1214.03,-47.73 1244.23,-35.11 1267.4,-25.43"/>
<polygon fill="#63b8ff" stroke="#63b8ff" points="1268.54,-28.75 1276.41,-21.66 1265.84,-22.29 1268.54,-28.75"/>
</a>
</g>
</g>
</g>
</svg>
