<?xml version="1.0" encoding="UTF-8" standalone="no"?>
<!DOCTYPE svg PUBLIC "-//W3C//DTD SVG 1.1//EN"
 "http://www.w3.org/Graphics/SVG/1.1/DTD/svg11.dtd">
<!-- Generated by graphviz version 14.1.4 (0)
 -->
<!-- Title: /opt/unreal&#45;engine/Engine/Source/Runtime/Engine/Classes/Particles/Location/ParticleModuleLocationEmitterDirect.h Pages: 1 -->
<!--zoomable 263 -->

<svg id="main" version="1.1" xmlns="http://www.w3.org/2000/svg" xmlns:xlink="http://www.w3.org/1999/xlink" xml:space="preserve" onload="init(evt)">

<style type="text/css"><![CDATA[
.node, .edge {opacity: 0.7;}
.node.selected, .edge.selected {opacity: 1;}
.edge:hover path { stroke: red; }
.edge:hover polygon { stroke: red; fill: red; }
]]></style>

<defs>
  <circle id="rim" cx="0" cy="0" r="7"/>
  <circle id="rim2" cx="0" cy="0" r="3.5"/>
  <g id="zoomPlus">
    <use xlink:href="#rim" fill="#404040"><set attributeName="fill" to="#808080" begin="zoomplus.mouseover" end="zoomplus.mouseout"/></use>
    <path d="M-4,0h8M0,-4v8" fill="none" stroke="white" stroke-width="1.5" pointer-events="none"/>
  </g>
  <g id="zoomMin">
    <use xlink:href="#rim" fill="#404040"><set attributeName="fill" to="#808080" begin="zoomminus.mouseover" end="zoomminus.mouseout"/></use>
    <path d="M-4,0h8" fill="none" stroke="white" stroke-width="1.5" pointer-events="none"/>
  </g>
  <g id="arrowUp" transform="translate(30 24)">
    <use xlink:href="#rim"/>
    <path pointer-events="none" fill="none" stroke="white" stroke-width="1.5" d="M0,-3.0v7 M-2.5,-0.5L0,-3.0L2.5,-0.5"/>
  </g>
  <g id="arrowRight" transform="rotate(90) translate(36 -43)">
    <use xlink:href="#rim"/>
    <path pointer-events="none" fill="none" stroke="white" stroke-width="1.5" d="M0,-3.0v7 M-2.5,-0.5L0,-3.0L2.5,-0.5"/>
  </g>
  <g id="arrowDown" transform="rotate(180) translate(-30 -48)">
    <use xlink:href="#rim"/>
    <path pointer-events="none" fill="none" stroke="white" stroke-width="1.5" d="M0,-3.0v7 M-2.5,-0.5L0,-3.0L2.5,-0.5"/>
  </g>
  <g id="arrowLeft" transform="rotate(270) translate(-36 17)">
    <use xlink:href="#rim"/>
    <path pointer-events="none" fill="none" stroke="white" stroke-width="1.5" d="M0,-3.0v7 M-2.5,-0.5L0,-3.0L2.5,-0.5"/>
  </g>
  <g id="resetDef">
    <use xlink:href="#rim2" fill="#404040"><set attributeName="fill" to="#808080" begin="reset.mouseover" end="reset.mouseout"/></use>
  </g>
</defs>
<script type="application/ecmascript">
var viewWidth = 754;
var viewHeight = 263;
var sectionId = 'dynsection-0';
</script>
<script type="application/ecmascript" xlink:href="svg.min.js"/>
<svg id="graph" class="graph">
<g id="viewport">
<title>/opt/unreal&#45;engine/Engine/Source/Runtime/Engine/Classes/Particles/Location/ParticleModuleLocationEmitterDirect.h</title>
<!-- Node1 -->
<g id="Node000001" class="node">
<title>Node1</title>
<g id="a_Node000001"><a xlink:title=" ">
<polygon fill="#999999" stroke="#666666" points="571.25,-254.75 394,-254.75 394,-183 571.25,-183 571.25,-254.75"/>
<text xml:space="preserve" text-anchor="start" x="402" y="-241.25" font-family="Helvetica,sans-Serif" font-size="10.00">/opt/unreal&#45;engine</text>
<text xml:space="preserve" text-anchor="start" x="402" y="-228.5" font-family="Helvetica,sans-Serif" font-size="10.00">/Engine/Source/Runtime</text>
<text xml:space="preserve" text-anchor="start" x="402" y="-215.75" font-family="Helvetica,sans-Serif" font-size="10.00">/Engine/Classes/Particles</text>
<text xml:space="preserve" text-anchor="start" x="402" y="-203" font-family="Helvetica,sans-Serif" font-size="10.00">/Location/ParticleModuleLocation</text>
<text xml:space="preserve" text-anchor="middle" x="482.62" y="-190.25" font-family="Helvetica,sans-Serif" font-size="10.00">EmitterDirect.h</text>
</a>
</g>
</g>
<!-- Node2 -->
<g id="Node000002" class="node">
<title>Node2</title>
<g id="a_Node000002"><a xlink:title=" ">
<polygon fill="#e0e0e0" stroke="#999999" points="87.25,-20.75 0,-20.75 0,0 87.25,0 87.25,-20.75"/>
<text xml:space="preserve" text-anchor="middle" x="43.62" y="-7.25" font-family="Helvetica,sans-Serif" font-size="10.00">CoreMinimal.h</text>
</a>
</g>
</g>
<!-- Node1&#45;&gt;Node2 -->
<g id="edge1_Node000001_Node000002" class="edge">
<title>Node1&#45;&gt;Node2</title>
<g id="a_edge1_Node000001_Node000002"><a xlink:title=" ">
<path fill="none" stroke="#63b8ff" d="M393.55,-211.89C298.59,-200.74 150.12,-168.82 62.62,-77.5 50.99,-65.36 46.41,-46.58 44.64,-32.13"/>
<polygon fill="#63b8ff" stroke="#63b8ff" points="48.14,-32.01 43.83,-22.33 41.16,-32.59 48.14,-32.01"/>
</a>
</g>
</g>
<!-- Node3 -->
<g id="Node000003" class="node">
<title>Node3</title>
<g id="a_Node000003"><a xlink:title=" ">
<polygon fill="#e0e0e0" stroke="#999999" points="635.5,-20.75 501.75,-20.75 501.75,0 635.5,0 635.5,-20.75"/>
<text xml:space="preserve" text-anchor="middle" x="568.62" y="-7.25" font-family="Helvetica,sans-Serif" font-size="10.00">UObject/ObjectMacros.h</text>
</a>
</g>
</g>
<!-- Node1&#45;&gt;Node3 -->
<g id="edge2_Node000001_Node000003" class="edge">
<title>Node1&#45;&gt;Node3</title>
<g id="a_edge2_Node000001_Node000003"><a xlink:title=" ">
<path fill="none" stroke="#63b8ff" d="M497.21,-182.85C515.38,-139.22 545.8,-66.18 560.37,-31.21"/>
<polygon fill="#63b8ff" stroke="#63b8ff" points="563.46,-32.88 564.07,-22.3 557,-30.19 563.46,-32.88"/>
</a>
</g>
</g>
<!-- Node4 -->
<g id="Node000004" class="node">
<title>Node4</title>
<g id="a_Node000004"><a xlink:href="ParticleModuleLocationBase_8h.html" target="_top" xlink:title=" ">
<polygon fill="white" stroke="#666666" points="497.62,-147 331.62,-147 331.62,-113.5 497.62,-113.5 497.62,-147"/>
<text xml:space="preserve" text-anchor="start" x="339.62" y="-133.5" font-family="Helvetica,sans-Serif" font-size="10.00">Particles/Location</text>
<text xml:space="preserve" text-anchor="middle" x="414.62" y="-120.75" font-family="Helvetica,sans-Serif" font-size="10.00">/ParticleModuleLocationBase.h</text>
</a>
</g>
</g>
<!-- Node1&#45;&gt;Node4 -->
<g id="edge3_Node000001_Node000004" class="edge">
<title>Node1&#45;&gt;Node4</title>
<g id="a_edge3_Node000001_Node000004"><a xlink:title=" ">
<path fill="none" stroke="#63b8ff" d="M454.97,-182.64C448.1,-173.89 440.87,-164.68 434.45,-156.51"/>
<polygon fill="#63b8ff" stroke="#63b8ff" points="437.24,-154.39 428.31,-148.68 431.73,-158.71 437.24,-154.39"/>
</a>
</g>
</g>
<!-- Node10 -->
<g id="Node000010" class="node">
<title>Node10</title>
<g id="a_Node000010"><a xlink:title=" ">
<polygon fill="#e0e0e0" stroke="#999999" points="745.62,-147 579.62,-147 579.62,-113.5 745.62,-113.5 745.62,-147"/>
<text xml:space="preserve" text-anchor="start" x="587.62" y="-133.5" font-family="Helvetica,sans-Serif" font-size="10.00">ParticleModuleLocationEmitter</text>
<text xml:space="preserve" text-anchor="middle" x="662.62" y="-120.75" font-family="Helvetica,sans-Serif" font-size="10.00">Direct.generated.h</text>
</a>
</g>
</g>
<!-- Node1&#45;&gt;Node10 -->
<g id="edge13_Node000001_Node000010" class="edge">
<title>Node1&#45;&gt;Node10</title>
<g id="a_edge13_Node000001_Node000010"><a xlink:title=" ">
<path fill="none" stroke="#63b8ff" d="M556.1,-182.52C577.32,-172.3 599.82,-161.47 618.64,-152.42"/>
<polygon fill="#63b8ff" stroke="#63b8ff" points="620.12,-155.59 627.61,-148.1 617.09,-149.28 620.12,-155.59"/>
</a>
</g>
</g>
<!-- Node4&#45;&gt;Node2 -->
<g id="edge4_Node000004_Node000002" class="edge">
<title>Node4&#45;&gt;Node2</title>
<g id="a_edge4_Node000004_Node000002"><a xlink:title=" ">
<path fill="none" stroke="#63b8ff" d="M389.34,-113.02C357.69,-92.81 306.43,-60.49 296.62,-56.75 294.3,-55.86 172.43,-34.19 98.7,-21.12"/>
<polygon fill="#63b8ff" stroke="#63b8ff" points="99.7,-17.75 89.24,-19.45 98.48,-24.64 99.7,-17.75"/>
</a>
</g>
</g>
<!-- Node4&#45;&gt;Node3 -->
<g id="edge5_Node000004_Node000003" class="edge">
<title>Node4&#45;&gt;Node3</title>
<g id="a_edge5_Node000004_Node000003"><a xlink:title=" ">
<path fill="none" stroke="#63b8ff" d="M442,-113.01C457.79,-103.28 477.79,-90.34 494.62,-77.5 514.82,-62.1 536.29,-42.51 550.87,-28.66"/>
<polygon fill="#63b8ff" stroke="#63b8ff" points="553.11,-31.37 557.9,-21.92 548.26,-26.32 553.11,-31.37"/>
</a>
</g>
</g>
<!-- Node5 -->
<g id="Node000005" class="node">
<title>Node5</title>
<g id="a_Node000005"><a xlink:href="ParticleModule_8h.html" target="_top" xlink:title=" ">
<polygon fill="white" stroke="#666666" points="486,-77.5 343.25,-77.5 343.25,-56.75 486,-56.75 486,-77.5"/>
<text xml:space="preserve" text-anchor="middle" x="414.62" y="-64" font-family="Helvetica,sans-Serif" font-size="10.00">Particles/ParticleModule.h</text>
</a>
</g>
</g>
<!-- Node4&#45;&gt;Node5 -->
<g id="edge6_Node000004_Node000005" class="edge">
<title>Node4&#45;&gt;Node5</title>
<g id="a_edge6_Node000004_Node000005"><a xlink:title=" ">
<path fill="none" stroke="#63b8ff" d="M414.62,-113.19C414.62,-105.85 414.62,-97.07 414.62,-89.21"/>
<polygon fill="#63b8ff" stroke="#63b8ff" points="418.13,-89.48 414.63,-79.48 411.13,-89.48 418.13,-89.48"/>
</a>
</g>
</g>
<!-- Node9 -->
<g id="Node000009" class="node">
<title>Node9</title>
<g id="a_Node000009"><a xlink:title=" ">
<polygon fill="#e0e0e0" stroke="#999999" points="287.38,-77.5 71.88,-77.5 71.88,-56.75 287.38,-56.75 287.38,-77.5"/>
<text xml:space="preserve" text-anchor="middle" x="179.62" y="-64" font-family="Helvetica,sans-Serif" font-size="10.00">ParticleModuleLocationBase.generated.h</text>
</a>
</g>
</g>
<!-- Node4&#45;&gt;Node9 -->
<g id="edge12_Node000004_Node000009" class="edge">
<title>Node4&#45;&gt;Node9</title>
<g id="a_edge12_Node000004_Node000009"><a xlink:title=" ">
<path fill="none" stroke="#63b8ff" d="M352.27,-113.03C313.33,-102.9 263.94,-90.05 227.97,-80.7"/>
<polygon fill="#63b8ff" stroke="#63b8ff" points="229.29,-77.43 218.73,-78.3 227.53,-84.2 229.29,-77.43"/>
</a>
</g>
</g>
<!-- Node5&#45;&gt;Node2 -->
<g id="edge7_Node000005_Node000002" class="edge">
<title>Node5&#45;&gt;Node2</title>
<g id="a_edge7_Node000005_Node000002"><a xlink:title=" ">
<path fill="none" stroke="#63b8ff" d="M342.85,-56.58C280.91,-48.18 188.76,-35.31 98.81,-21.05"/>
<polygon fill="#63b8ff" stroke="#63b8ff" points="99.49,-17.62 89.06,-19.5 98.39,-24.53 99.49,-17.62"/>
</a>
</g>
</g>
<!-- Node5&#45;&gt;Node3 -->
<g id="edge8_Node000005_Node000003" class="edge">
<title>Node5&#45;&gt;Node3</title>
<g id="a_edge8_Node000005_Node000003"><a xlink:title=" ">
<path fill="none" stroke="#63b8ff" d="M442.16,-56.34C466.72,-47.61 502.92,-34.73 530.31,-25"/>
<polygon fill="#63b8ff" stroke="#63b8ff" points="531.4,-28.33 539.65,-21.68 529.05,-21.73 531.4,-28.33"/>
</a>
</g>
</g>
<!-- Node6 -->
<g id="Node000006" class="node">
<title>Node6</title>
<g id="a_Node000006"><a xlink:title=" ">
<polygon fill="#e0e0e0" stroke="#999999" points="483.88,-20.75 385.38,-20.75 385.38,0 483.88,0 483.88,-20.75"/>
<text xml:space="preserve" text-anchor="middle" x="434.62" y="-7.25" font-family="Helvetica,sans-Serif" font-size="10.00">UObject/Object.h</text>
</a>
</g>
</g>
<!-- Node5&#45;&gt;Node6 -->
<g id="edge9_Node000005_Node000006" class="edge">
<title>Node5&#45;&gt;Node6</title>
<g id="a_edge9_Node000005_Node000006"><a xlink:title=" ">
<path fill="none" stroke="#63b8ff" d="M418.2,-56.34C420.7,-49.49 424.14,-40.09 427.22,-31.65"/>
<polygon fill="#63b8ff" stroke="#63b8ff" points="430.42,-33.09 430.56,-22.5 423.84,-30.69 430.42,-33.09"/>
</a>
</g>
</g>
<!-- Node7 -->
<g id="Node000007" class="node">
<title>Node7</title>
<g id="a_Node000007"><a xlink:title=" ">
<polygon fill="#e0e0e0" stroke="#999999" points="199.62,-20.75 105.62,-20.75 105.62,0 199.62,0 199.62,-20.75"/>
<text xml:space="preserve" text-anchor="middle" x="152.62" y="-7.25" font-family="Helvetica,sans-Serif" font-size="10.00">ParticleHelper.h</text>
</a>
</g>
</g>
<!-- Node5&#45;&gt;Node7 -->
<g id="edge10_Node000005_Node000007" class="edge">
<title>Node5&#45;&gt;Node7</title>
<g id="a_edge10_Node000005_Node000007"><a xlink:title=" ">
<path fill="none" stroke="#63b8ff" d="M367.48,-56.27C323.66,-47.12 258.23,-33.44 211.09,-23.59"/>
<polygon fill="#63b8ff" stroke="#63b8ff" points="211.82,-20.17 201.31,-21.55 210.38,-27.02 211.82,-20.17"/>
</a>
</g>
</g>
<!-- Node8 -->
<g id="Node000008" class="node">
<title>Node8</title>
<g id="a_Node000008"><a xlink:title=" ">
<polygon fill="#e0e0e0" stroke="#999999" points="367.75,-20.75 217.5,-20.75 217.5,0 367.75,0 367.75,-20.75"/>
<text xml:space="preserve" text-anchor="middle" x="292.62" y="-7.25" font-family="Helvetica,sans-Serif" font-size="10.00">ParticleModule.generated.h</text>
</a>
</g>
</g>
<!-- Node5&#45;&gt;Node8 -->
<g id="edge11_Node000005_Node000008" class="edge">
<title>Node5&#45;&gt;Node8</title>
<g id="a_edge11_Node000005_Node000008"><a xlink:title=" ">
<path fill="none" stroke="#63b8ff" d="M392.81,-56.34C373.82,-47.81 346.03,-35.34 324.53,-25.69"/>
<polygon fill="#63b8ff" stroke="#63b8ff" points="326.18,-22.6 315.63,-21.7 323.32,-28.99 326.18,-22.6"/>
</a>
</g>
</g>
</g>
</svg>

<g id="navigator" transform="translate(0 0)" fill="#404254">
  <rect fill="#f2f5e9" fill-opacity="0.5" stroke="#606060" stroke-width=".5" x="0" y="0" width="60" height="60"/>
  <use id="zoomplus" xlink:href="#zoomPlus" x="17" y="9" onmousedown="handleZoom(evt,'in')"/>
  <use id="zoomminus" xlink:href="#zoomMin" x="42" y="9" onmousedown="handleZoom(evt,'out')"/>
  <use id="reset" xlink:href="#resetDef" x="30" y="36" onmousedown="handleReset()"/>
   <use id="arrowup" xlink:href="#arrowUp" x="0" y="0" onmousedown="handlePan(0,-1)"/>
  <use id="arrowright" xlink:href="#arrowRight" x="0" y="0" onmousedown="handlePan(1,0)"/>
  <use id="arrowdown" xlink:href="#arrowDown" x="0" y="0" onmousedown="handlePan(0,1)"/>
  <use id="arrowleft" xlink:href="#arrowLeft" x="0" y="0" onmousedown="handlePan(-1,0)"/>
</g>
<svg viewBox="0 0 15 15" width="100%" height="30px" preserveAspectRatio="xMaxYMin meet">
 <g id="arrow_out" transform="scale(0.3 0.3)">
  <a xlink:href="ParticleModuleLocationEmitterDirect_8h__incl_org.svg" target="_base">
   <rect id="button" ry="5" rx="5" y="6" x="6" height="38" width="38"
        fill="#f2f5e9" fill-opacity="0.5" stroke="#606060" stroke-width="1.0"/>
   <path id="arrow"
     d="M 11.500037,31.436501 C 11.940474,20.09759 22.043105,11.32322 32.158766,21.979434 L 37.068811,17.246167 C 37.068811,17.246167 37.088388,32 37.088388,32 L 22.160133,31.978069 C 22.160133,31.978069 26.997745,27.140456 26.997745,27.140456 C 18.528582,18.264221 13.291696,25.230495 11.500037,31.436501 z"
     style="fill:#404040;"/>
  </a>
 </g>
</svg>

<style type='text/css'>
<![CDATA[
[data-mouse-over-selected='false'] { opacity: 0.7; }
[data-mouse-over-selected='true']  { opacity: 1.0; }
]]>
</style>
<script type="application/ecmascript"><![CDATA[
document.addEventListener('DOMContentLoaded', (event) => {
  highlightEdges();
  highlightAdjacentNodes();
});
]]></script>
</svg>
