<?xml version="1.0" encoding="UTF-8" standalone="no"?>
<!DOCTYPE svg PUBLIC "-//W3C//DTD SVG 1.1//EN"
 "http://www.w3.org/Graphics/SVG/1.1/DTD/svg11.dtd">
<!-- Generated by graphviz version 14.1.4 (0)
 -->
<!-- Title: /opt/unreal&#45;engine/Engine/Source/Runtime/Engine/Classes/GameFramework/Pawn.h Pages: 1 -->
<!--zoomable 491 -->

<svg id="main" version="1.1" xmlns="http://www.w3.org/2000/svg" xmlns:xlink="http://www.w3.org/1999/xlink" xml:space="preserve" onload="init(evt)">

<style type="text/css"><![CDATA[
.node, .edge {opacity: 0.7;}
.node.selected, .edge.selected {opacity: 1;}
.edge:hover path { stroke: red; }
.edge:hover polygon { stroke: red; fill: red; }
]]></style>

<defs>
  <circle id="rim" cx="0" cy="0" r="7"/>
  <circle id="rim2" cx="0" cy="0" r="3.5"/>
  <g id="zoomPlus">
    <use xlink:href="#rim" fill="#404040"><set attributeName="fill" to="#808080" begin="zoomplus.mouseover" end="zoomplus.mouseout"/></use>
    <path d="M-4,0h8M0,-4v8" fill="none" stroke="white" stroke-width="1.5" pointer-events="none"/>
  </g>
  <g id="zoomMin">
    <use xlink:href="#rim" fill="#404040"><set attributeName="fill" to="#808080" begin="zoomminus.mouseover" end="zoomminus.mouseout"/></use>
    <path d="M-4,0h8" fill="none" stroke="white" stroke-width="1.5" pointer-events="none"/>
  </g>
  <g id="arrowUp" transform="translate(30 24)">
    <use xlink:href="#rim"/>
    <path pointer-events="none" fill="none" stroke="white" stroke-width="1.5" d="M0,-3.0v7 M-2.5,-0.5L0,-3.0L2.5,-0.5"/>
  </g>
  <g id="arrowRight" transform="rotate(90) translate(36 -43)">
    <use xlink:href="#rim"/>
    <path pointer-events="none" fill="none" stroke="white" stroke-width="1.5" d="M0,-3.0v7 M-2.5,-0.5L0,-3.0L2.5,-0.5"/>
  </g>
  <g id="arrowDown" transform="rotate(180) translate(-30 -48)">
    <use xlink:href="#rim"/>
    <path pointer-events="none" fill="none" stroke="white" stroke-width="1.5" d="M0,-3.0v7 M-2.5,-0.5L0,-3.0L2.5,-0.5"/>
  </g>
  <g id="arrowLeft" transform="rotate(270) translate(-36 17)">
    <use xlink:href="#rim"/>
    <path pointer-events="none" fill="none" stroke="white" stroke-width="1.5" d="M0,-3.0v7 M-2.5,-0.5L0,-3.0L2.5,-0.5"/>
  </g>
  <g id="resetDef">
    <use xlink:href="#rim2" fill="#404040"><set attributeName="fill" to="#808080" begin="reset.mouseover" end="reset.mouseout"/></use>
  </g>
</defs>
<script type="application/ecmascript">
var viewWidth = 1031;
var viewHeight = 491;
var sectionId = 'dynsection-1';
</script>
<script type="application/ecmascript" xlink:href="svg.min.js"/>
<svg id="graph" class="graph">
<g id="viewport">
<title>/opt/unreal&#45;engine/Engine/Source/Runtime/Engine/Classes/GameFramework/Pawn.h</title>
<!-- Node1 -->
<g id="Node000001" class="node">
<title>Node1</title>
<g id="a_Node000001"><a xlink:title=" ">
<polygon fill="#999999" stroke="#666666" points="527.88,-483 348.38,-483 348.38,-424 527.88,-424 527.88,-483"/>
<text xml:space="preserve" text-anchor="start" x="356.38" y="-469.5" font-family="Helvetica,sans-Serif" font-size="10.00">/opt/unreal&#45;engine</text>
<text xml:space="preserve" text-anchor="start" x="356.38" y="-456.75" font-family="Helvetica,sans-Serif" font-size="10.00">/Engine/Source/Runtime</text>
<text xml:space="preserve" text-anchor="start" x="356.38" y="-444" font-family="Helvetica,sans-Serif" font-size="10.00">/Engine/Classes/GameFramework</text>
<text xml:space="preserve" text-anchor="middle" x="438.12" y="-431.25" font-family="Helvetica,sans-Serif" font-size="10.00">/Pawn.h</text>
</a>
</g>
</g>
<!-- Node2 -->
<g id="Node000002" class="node">
<title>Node2</title>
<g id="a_Node000002"><a xlink:href="PawnIterator_8h.html" target="_top" xlink:title=" ">
<polygon fill="white" stroke="#666666" points="132.25,-388 0,-388 0,-329 132.25,-329 132.25,-388"/>
<text xml:space="preserve" text-anchor="start" x="8" y="-374.5" font-family="Helvetica,sans-Serif" font-size="10.00">/opt/unreal&#45;engine</text>
<text xml:space="preserve" text-anchor="start" x="8" y="-361.75" font-family="Helvetica,sans-Serif" font-size="10.00">/Engine/Source/Runtime</text>
<text xml:space="preserve" text-anchor="start" x="8" y="-349" font-family="Helvetica,sans-Serif" font-size="10.00">/Engine/Classes/Engine</text>
<text xml:space="preserve" text-anchor="middle" x="66.12" y="-336.25" font-family="Helvetica,sans-Serif" font-size="10.00">/PawnIterator.h</text>
</a>
</g>
</g>
<!-- Node1&#45;&gt;Node2 -->
<g id="edge1_Node000001_Node000002" class="edge">
<title>Node1&#45;&gt;Node2</title>
<g id="a_edge1_Node000001_Node000002"><a xlink:title=" ">
<path fill="none" stroke="#63b8ff" d="M336.91,-434.41C279.03,-423.1 205.4,-407.07 141.12,-388 138.32,-387.17 135.47,-386.28 132.6,-385.35"/>
<polygon fill="#63b8ff" stroke="#63b8ff" points="335.92,-437.79 346.41,-436.25 337.25,-430.91 335.92,-437.79"/>
</a>
</g>
</g>
<!-- Node3 -->
<g id="Node000003" class="node">
<title>Node3</title>
<g id="a_Node000003"><a xlink:href="Character_8h.html" target="_top" xlink:title=" ">
<polygon fill="white" stroke="#666666" points="329.88,-388 150.38,-388 150.38,-329 329.88,-329 329.88,-388"/>
<text xml:space="preserve" text-anchor="start" x="158.38" y="-374.5" font-family="Helvetica,sans-Serif" font-size="10.00">/opt/unreal&#45;engine</text>
<text xml:space="preserve" text-anchor="start" x="158.38" y="-361.75" font-family="Helvetica,sans-Serif" font-size="10.00">/Engine/Source/Runtime</text>
<text xml:space="preserve" text-anchor="start" x="158.38" y="-349" font-family="Helvetica,sans-Serif" font-size="10.00">/Engine/Classes/GameFramework</text>
<text xml:space="preserve" text-anchor="middle" x="240.12" y="-336.25" font-family="Helvetica,sans-Serif" font-size="10.00">/Character.h</text>
</a>
</g>
</g>
<!-- Node1&#45;&gt;Node3 -->
<g id="edge2_Node000001_Node000003" class="edge">
<title>Node1&#45;&gt;Node3</title>
<g id="a_edge2_Node000001_Node000003"><a xlink:title=" ">
<path fill="none" stroke="#63b8ff" d="M366.32,-418.77C345.13,-408.82 322.13,-398.02 301.65,-388.4"/>
<polygon fill="#63b8ff" stroke="#63b8ff" points="364.65,-421.86 375.19,-422.94 367.63,-415.52 364.65,-421.86"/>
</a>
</g>
</g>
<!-- Node4 -->
<g id="Node000004" class="node">
<title>Node4</title>
<g id="a_Node000004"><a xlink:href="DefaultPawn_8h.html" target="_top" xlink:title=" ">
<polygon fill="white" stroke="#666666" points="527.88,-388 348.38,-388 348.38,-329 527.88,-329 527.88,-388"/>
<text xml:space="preserve" text-anchor="start" x="356.38" y="-374.5" font-family="Helvetica,sans-Serif" font-size="10.00">/opt/unreal&#45;engine</text>
<text xml:space="preserve" text-anchor="start" x="356.38" y="-361.75" font-family="Helvetica,sans-Serif" font-size="10.00">/Engine/Source/Runtime</text>
<text xml:space="preserve" text-anchor="start" x="356.38" y="-349" font-family="Helvetica,sans-Serif" font-size="10.00">/Engine/Classes/GameFramework</text>
<text xml:space="preserve" text-anchor="middle" x="438.12" y="-336.25" font-family="Helvetica,sans-Serif" font-size="10.00">/DefaultPawn.h</text>
</a>
</g>
</g>
<!-- Node1&#45;&gt;Node4 -->
<g id="edge3_Node000001_Node000004" class="edge">
<title>Node1&#45;&gt;Node4</title>
<g id="a_edge3_Node000001_Node000004"><a xlink:title=" ">
<path fill="none" stroke="#63b8ff" d="M438.12,-412.16C438.12,-404.16 438.12,-395.92 438.12,-388.4"/>
<polygon fill="#63b8ff" stroke="#63b8ff" points="434.63,-412.07 438.13,-422.07 441.63,-412.07 434.63,-412.07"/>
</a>
</g>
</g>
<!-- Node6 -->
<g id="Node000006" class="node">
<title>Node6</title>
<g id="a_Node000006"><a xlink:href="GameModeBase_8h.html" target="_top" xlink:title=" ">
<polygon fill="white" stroke="#666666" points="725.88,-388 546.38,-388 546.38,-329 725.88,-329 725.88,-388"/>
<text xml:space="preserve" text-anchor="start" x="554.38" y="-374.5" font-family="Helvetica,sans-Serif" font-size="10.00">/opt/unreal&#45;engine</text>
<text xml:space="preserve" text-anchor="start" x="554.38" y="-361.75" font-family="Helvetica,sans-Serif" font-size="10.00">/Engine/Source/Runtime</text>
<text xml:space="preserve" text-anchor="start" x="554.38" y="-349" font-family="Helvetica,sans-Serif" font-size="10.00">/Engine/Classes/GameFramework</text>
<text xml:space="preserve" text-anchor="middle" x="636.12" y="-336.25" font-family="Helvetica,sans-Serif" font-size="10.00">/GameModeBase.h</text>
</a>
</g>
</g>
<!-- Node1&#45;&gt;Node6 -->
<g id="edge5_Node000001_Node000006" class="edge">
<title>Node1&#45;&gt;Node6</title>
<g id="a_edge5_Node000001_Node000006"><a xlink:title=" ">
<path fill="none" stroke="#63b8ff" d="M509.93,-418.77C531.12,-408.82 554.12,-398.02 574.6,-388.4"/>
<polygon fill="#63b8ff" stroke="#63b8ff" points="508.62,-415.52 501.06,-422.94 511.6,-421.86 508.62,-415.52"/>
</a>
</g>
</g>
<!-- Node14 -->
<g id="Node000014" class="node">
<title>Node14</title>
<g id="a_Node000014"><a xlink:href="TowerPlayerCharacter_8h.html" target="_top" xlink:title=" ">
<polygon fill="white" stroke="#666666" points="1014.25,-375.25 846,-375.25 846,-341.75 1014.25,-341.75 1014.25,-375.25"/>
<text xml:space="preserve" text-anchor="start" x="854" y="-361.75" font-family="Helvetica,sans-Serif" font-size="10.00">Source/Tower/Public</text>
<text xml:space="preserve" text-anchor="middle" x="930.12" y="-349" font-family="Helvetica,sans-Serif" font-size="10.00">/Player/TowerPlayerCharacter.h</text>
</a>
</g>
</g>
<!-- Node1&#45;&gt;Node14 -->
<g id="edge13_Node000001_Node000014" class="edge">
<title>Node1&#45;&gt;Node14</title>
<g id="a_edge13_Node000001_Node000014"><a xlink:title=" ">
<path fill="none" stroke="#63b8ff" d="M539.47,-433.34C629.95,-416.24 760.92,-391.48 845.8,-375.44"/>
<polygon fill="#63b8ff" stroke="#63b8ff" points="539.03,-429.86 529.85,-435.16 540.33,-436.74 539.03,-429.86"/>
</a>
</g>
</g>
<!-- Node5 -->
<g id="Node000005" class="node">
<title>Node5</title>
<g id="a_Node000005"><a xlink:href="SpectatorPawn_8h.html" target="_top" xlink:title=" ">
<polygon fill="white" stroke="#666666" points="428.88,-293 249.38,-293 249.38,-234 428.88,-234 428.88,-293"/>
<text xml:space="preserve" text-anchor="start" x="257.38" y="-279.5" font-family="Helvetica,sans-Serif" font-size="10.00">/opt/unreal&#45;engine</text>
<text xml:space="preserve" text-anchor="start" x="257.38" y="-266.75" font-family="Helvetica,sans-Serif" font-size="10.00">/Engine/Source/Runtime</text>
<text xml:space="preserve" text-anchor="start" x="257.38" y="-254" font-family="Helvetica,sans-Serif" font-size="10.00">/Engine/Classes/GameFramework</text>
<text xml:space="preserve" text-anchor="middle" x="339.12" y="-241.25" font-family="Helvetica,sans-Serif" font-size="10.00">/SpectatorPawn.h</text>
</a>
</g>
</g>
<!-- Node4&#45;&gt;Node5 -->
<g id="edge4_Node000004_Node000005" class="edge">
<title>Node4&#45;&gt;Node5</title>
<g id="a_edge4_Node000004_Node000005"><a xlink:title=" ">
<path fill="none" stroke="#63b8ff" d="M399.02,-320.76C389.34,-311.67 379.11,-302.06 369.89,-293.4"/>
<polygon fill="#63b8ff" stroke="#63b8ff" points="396.56,-323.25 406.24,-327.55 401.35,-318.15 396.56,-323.25"/>
</a>
</g>
</g>
<!-- Node7 -->
<g id="Node000007" class="node">
<title>Node7</title>
<g id="a_Node000007"><a xlink:href="GameMode_8h.html" target="_top" xlink:title=" ">
<polygon fill="white" stroke="#666666" points="626.88,-293 447.38,-293 447.38,-234 626.88,-234 626.88,-293"/>
<text xml:space="preserve" text-anchor="start" x="455.38" y="-279.5" font-family="Helvetica,sans-Serif" font-size="10.00">/opt/unreal&#45;engine</text>
<text xml:space="preserve" text-anchor="start" x="455.38" y="-266.75" font-family="Helvetica,sans-Serif" font-size="10.00">/Engine/Source/Runtime</text>
<text xml:space="preserve" text-anchor="start" x="455.38" y="-254" font-family="Helvetica,sans-Serif" font-size="10.00">/Engine/Classes/GameFramework</text>
<text xml:space="preserve" text-anchor="middle" x="537.12" y="-241.25" font-family="Helvetica,sans-Serif" font-size="10.00">/GameMode.h</text>
</a>
</g>
</g>
<!-- Node6&#45;&gt;Node7 -->
<g id="edge6_Node000006_Node000007" class="edge">
<title>Node6&#45;&gt;Node7</title>
<g id="a_edge6_Node000006_Node000007"><a xlink:title=" ">
<path fill="none" stroke="#63b8ff" d="M597.02,-320.76C587.34,-311.67 577.11,-302.06 567.89,-293.4"/>
<polygon fill="#63b8ff" stroke="#63b8ff" points="594.56,-323.25 604.24,-327.55 599.35,-318.15 594.56,-323.25"/>
</a>
</g>
</g>
<!-- Node10 -->
<g id="Node000010" class="node">
<title>Node10</title>
<g id="a_Node000010"><a xlink:href="GameStateBase_8h.html" target="_top" xlink:title=" ">
<polygon fill="white" stroke="#666666" points="824.88,-293 645.38,-293 645.38,-234 824.88,-234 824.88,-293"/>
<text xml:space="preserve" text-anchor="start" x="653.38" y="-279.5" font-family="Helvetica,sans-Serif" font-size="10.00">/opt/unreal&#45;engine</text>
<text xml:space="preserve" text-anchor="start" x="653.38" y="-266.75" font-family="Helvetica,sans-Serif" font-size="10.00">/Engine/Source/Runtime</text>
<text xml:space="preserve" text-anchor="start" x="653.38" y="-254" font-family="Helvetica,sans-Serif" font-size="10.00">/Engine/Classes/GameFramework</text>
<text xml:space="preserve" text-anchor="middle" x="735.12" y="-241.25" font-family="Helvetica,sans-Serif" font-size="10.00">/GameStateBase.h</text>
</a>
</g>
</g>
<!-- Node6&#45;&gt;Node10 -->
<g id="edge9_Node000006_Node000010" class="edge">
<title>Node6&#45;&gt;Node10</title>
<g id="a_edge9_Node000006_Node000010"><a xlink:title=" ">
<path fill="none" stroke="#63b8ff" d="M675.23,-320.76C684.91,-311.67 695.14,-302.06 704.36,-293.4"/>
<polygon fill="#63b8ff" stroke="#63b8ff" points="672.9,-318.15 668.01,-327.55 677.69,-323.25 672.9,-318.15"/>
</a>
</g>
</g>
<!-- Node8 -->
<g id="Node000008" class="node">
<title>Node8</title>
<g id="a_Node000008"><a xlink:href="TowerGameMode_8h.html" target="_top" xlink:title=" ">
<polygon fill="white" stroke="#666666" points="609.62,-185.25 464.62,-185.25 464.62,-151.75 609.62,-151.75 609.62,-185.25"/>
<text xml:space="preserve" text-anchor="start" x="472.62" y="-171.75" font-family="Helvetica,sans-Serif" font-size="10.00">Source/Tower/Public</text>
<text xml:space="preserve" text-anchor="middle" x="537.12" y="-159" font-family="Helvetica,sans-Serif" font-size="10.00">/Game/TowerGameMode.h</text>
</a>
</g>
</g>
<!-- Node7&#45;&gt;Node8 -->
<g id="edge7_Node000007_Node000008" class="edge">
<title>Node7&#45;&gt;Node8</title>
<g id="a_edge7_Node000007_Node000008"><a xlink:title=" ">
<path fill="none" stroke="#63b8ff" d="M537.12,-222.08C537.12,-209.23 537.12,-195.76 537.12,-185.67"/>
<polygon fill="#63b8ff" stroke="#63b8ff" points="533.63,-222.07 537.13,-232.07 540.63,-222.07 533.63,-222.07"/>
</a>
</g>
</g>
<!-- Node9 -->
<g id="Node000009" class="node">
<title>Node9</title>
<g id="a_Node000009"><a xlink:href="TowerGameMode_8cpp.html" target="_top" xlink:title=" ">
<polygon fill="white" stroke="#666666" points="615.25,-103 459,-103 459,-69.5 615.25,-69.5 615.25,-103"/>
<text xml:space="preserve" text-anchor="start" x="467" y="-89.5" font-family="Helvetica,sans-Serif" font-size="10.00">Source/Tower/Private</text>
<text xml:space="preserve" text-anchor="middle" x="537.12" y="-76.75" font-family="Helvetica,sans-Serif" font-size="10.00">/Game/TowerGameMode.cpp</text>
</a>
</g>
</g>
<!-- Node8&#45;&gt;Node9 -->
<g id="edge8_Node000008_Node000009" class="edge">
<title>Node8&#45;&gt;Node9</title>
<g id="a_edge8_Node000008_Node000009"><a xlink:title=" ">
<path fill="none" stroke="#63b8ff" d="M537.12,-139.88C537.12,-127.74 537.12,-113.9 537.12,-103.47"/>
<polygon fill="#63b8ff" stroke="#63b8ff" points="533.63,-139.75 537.13,-149.75 540.63,-139.75 533.63,-139.75"/>
</a>
</g>
</g>
<!-- Node11 -->
<g id="Node000011" class="node">
<title>Node11</title>
<g id="a_Node000011"><a xlink:href="GameState_8h.html" target="_top" xlink:title=" ">
<polygon fill="white" stroke="#666666" points="824.88,-198 645.38,-198 645.38,-139 824.88,-139 824.88,-198"/>
<text xml:space="preserve" text-anchor="start" x="653.38" y="-184.5" font-family="Helvetica,sans-Serif" font-size="10.00">/opt/unreal&#45;engine</text>
<text xml:space="preserve" text-anchor="start" x="653.38" y="-171.75" font-family="Helvetica,sans-Serif" font-size="10.00">/Engine/Source/Runtime</text>
<text xml:space="preserve" text-anchor="start" x="653.38" y="-159" font-family="Helvetica,sans-Serif" font-size="10.00">/Engine/Classes/GameFramework</text>
<text xml:space="preserve" text-anchor="middle" x="735.12" y="-146.25" font-family="Helvetica,sans-Serif" font-size="10.00">/GameState.h</text>
</a>
</g>
</g>
<!-- Node10&#45;&gt;Node11 -->
<g id="edge10_Node000010_Node000011" class="edge">
<title>Node10&#45;&gt;Node11</title>
<g id="a_edge10_Node000010_Node000011"><a xlink:title=" ">
<path fill="none" stroke="#63b8ff" d="M735.12,-222.16C735.12,-214.16 735.12,-205.92 735.12,-198.4"/>
<polygon fill="#63b8ff" stroke="#63b8ff" points="731.63,-222.07 735.13,-232.07 738.63,-222.07 731.63,-222.07"/>
</a>
</g>
</g>
<!-- Node12 -->
<g id="Node000012" class="node">
<title>Node12</title>
<g id="a_Node000012"><a xlink:href="TowerGameState_8h.html" target="_top" xlink:title=" ">
<polygon fill="white" stroke="#666666" points="806.88,-103 663.38,-103 663.38,-69.5 806.88,-69.5 806.88,-103"/>
<text xml:space="preserve" text-anchor="start" x="671.38" y="-89.5" font-family="Helvetica,sans-Serif" font-size="10.00">Source/Tower/Public</text>
<text xml:space="preserve" text-anchor="middle" x="735.12" y="-76.75" font-family="Helvetica,sans-Serif" font-size="10.00">/Game/TowerGameState.h</text>
</a>
</g>
</g>
<!-- Node11&#45;&gt;Node12 -->
<g id="edge11_Node000011_Node000012" class="edge">
<title>Node11&#45;&gt;Node12</title>
<g id="a_edge11_Node000011_Node000012"><a xlink:title=" ">
<path fill="none" stroke="#63b8ff" d="M735.12,-127.14C735.12,-118.7 735.12,-110.27 735.12,-103.35"/>
<polygon fill="#63b8ff" stroke="#63b8ff" points="731.63,-127.01 735.13,-137.01 738.63,-127.01 731.63,-127.01"/>
</a>
</g>
</g>
<!-- Node13 -->
<g id="Node000013" class="node">
<title>Node13</title>
<g id="a_Node000013"><a xlink:href="TowerGameState_8cpp.html" target="_top" xlink:title=" ">
<polygon fill="white" stroke="#666666" points="812.5,-33.5 657.75,-33.5 657.75,0 812.5,0 812.5,-33.5"/>
<text xml:space="preserve" text-anchor="start" x="665.75" y="-20" font-family="Helvetica,sans-Serif" font-size="10.00">Source/Tower/Private</text>
<text xml:space="preserve" text-anchor="middle" x="735.12" y="-7.25" font-family="Helvetica,sans-Serif" font-size="10.00">/Game/TowerGameState.cpp</text>
</a>
</g>
</g>
<!-- Node12&#45;&gt;Node13 -->
<g id="edge12_Node000012_Node000013" class="edge">
<title>Node12&#45;&gt;Node13</title>
<g id="a_edge12_Node000012_Node000013"><a xlink:title=" ">
<path fill="none" stroke="#63b8ff" d="M735.12,-57.81C735.12,-49.59 735.12,-40.84 735.12,-33.63"/>
<polygon fill="#63b8ff" stroke="#63b8ff" points="731.63,-57.74 735.13,-67.74 738.63,-57.74 731.63,-57.74"/>
</a>
</g>
</g>
<!-- Node15 -->
<g id="Node000015" class="node">
<title>Node15</title>
<g id="a_Node000015"><a xlink:href="TowerPlayerCharacter_8cpp.html" target="_top" xlink:title=" ">
<polygon fill="white" stroke="#666666" points="1022.88,-280.25 843.38,-280.25 843.38,-246.75 1022.88,-246.75 1022.88,-280.25"/>
<text xml:space="preserve" text-anchor="start" x="851.38" y="-266.75" font-family="Helvetica,sans-Serif" font-size="10.00">Source/Tower/Private</text>
<text xml:space="preserve" text-anchor="middle" x="933.12" y="-254" font-family="Helvetica,sans-Serif" font-size="10.00">/Player/TowerPlayerCharacter.cpp</text>
</a>
</g>
</g>
<!-- Node14&#45;&gt;Node15 -->
<g id="edge14_Node000014_Node000015" class="edge">
<title>Node14&#45;&gt;Node15</title>
<g id="a_edge14_Node000014_Node000015"><a xlink:title=" ">
<path fill="none" stroke="#63b8ff" d="M931.02,-329.87C931.54,-313.78 932.17,-294.06 932.61,-280.51"/>
<polygon fill="#63b8ff" stroke="#63b8ff" points="927.52,-329.68 930.7,-339.79 934.52,-329.91 927.52,-329.68"/>
</a>
</g>
</g>
</g>
</svg>

<g id="navigator" transform="translate(0 0)" fill="#404254">
  <rect fill="#f2f5e9" fill-opacity="0.5" stroke="#606060" stroke-width=".5" x="0" y="0" width="60" height="60"/>
  <use id="zoomplus" xlink:href="#zoomPlus" x="17" y="9" onmousedown="handleZoom(evt,'in')"/>
  <use id="zoomminus" xlink:href="#zoomMin" x="42" y="9" onmousedown="handleZoom(evt,'out')"/>
  <use id="reset" xlink:href="#resetDef" x="30" y="36" onmousedown="handleReset()"/>
   <use id="arrowup" xlink:href="#arrowUp" x="0" y="0" onmousedown="handlePan(0,-1)"/>
  <use id="arrowright" xlink:href="#arrowRight" x="0" y="0" onmousedown="handlePan(1,0)"/>
  <use id="arrowdown" xlink:href="#arrowDown" x="0" y="0" onmousedown="handlePan(0,1)"/>
  <use id="arrowleft" xlink:href="#arrowLeft" x="0" y="0" onmousedown="handlePan(-1,0)"/>
</g>
<svg viewBox="0 0 15 15" width="100%" height="30px" preserveAspectRatio="xMaxYMin meet">
 <g id="arrow_out" transform="scale(0.3 0.3)">
  <a xlink:href="Pawn_8h__dep__incl_org.svg" target="_base">
   <rect id="button" ry="5" rx="5" y="6" x="6" height="38" width="38"
        fill="#f2f5e9" fill-opacity="0.5" stroke="#606060" stroke-width="1.0"/>
   <path id="arrow"
     d="M 11.500037,31.436501 C 11.940474,20.09759 22.043105,11.32322 32.158766,21.979434 L 37.068811,17.246167 C 37.068811,17.246167 37.088388,32 37.088388,32 L 22.160133,31.978069 C 22.160133,31.978069 26.997745,27.140456 26.997745,27.140456 C 18.528582,18.264221 13.291696,25.230495 11.500037,31.436501 z"
     style="fill:#404040;"/>
  </a>
 </g>
</svg>

<style type='text/css'>
<![CDATA[
[data-mouse-over-selected='false'] { opacity: 0.7; }
[data-mouse-over-selected='true']  { opacity: 1.0; }
]]>
</style>
<script type="application/ecmascript"><![CDATA[
document.addEventListener('DOMContentLoaded', (event) => {
  highlightEdges();
  highlightAdjacentNodes();
});
]]></script>
</svg>
