<?xml version="1.0" encoding="UTF-8" standalone="no"?>
<!DOCTYPE svg PUBLIC "-//W3C//DTD SVG 1.1//EN"
 "http://www.w3.org/Graphics/SVG/1.1/DTD/svg11.dtd">
<!-- Generated by graphviz version 14.1.4 (0)
 -->
<!-- Title: /opt/unreal&#45;engine/Engine/Source/Runtime/Engine/Classes/PhysicsEngine/PhysicsAsset.h Pages: 1 -->
<svg width="682pt" height="193pt"
 viewBox="0.00 0.00 682.00 193.00" xmlns="http://www.w3.org/2000/svg" xmlns:xlink="http://www.w3.org/1999/xlink">
<g id="graph0" class="graph" transform="scale(1 1) rotate(0) translate(4 189.25)">
<title>/opt/unreal&#45;engine/Engine/Source/Runtime/Engine/Classes/PhysicsEngine/PhysicsAsset.h</title>
<!-- Node1 -->
<g id="Node000001" class="node">
<title>Node1</title>
<g id="a_Node000001"><a xlink:title=" ">
<polygon fill="#999999" stroke="#666666" points="412.5,-185.25 247.25,-185.25 247.25,-126.25 412.5,-126.25 412.5,-185.25"/>
<text xml:space="preserve" text-anchor="start" x="255.25" y="-171.75" font-family="Helvetica,sans-Serif" font-size="10.00">/opt/unreal&#45;engine</text>
<text xml:space="preserve" text-anchor="start" x="255.25" y="-159" font-family="Helvetica,sans-Serif" font-size="10.00">/Engine/Source/Runtime</text>
<text xml:space="preserve" text-anchor="start" x="255.25" y="-146.25" font-family="Helvetica,sans-Serif" font-size="10.00">/Engine/Classes/PhysicsEngine</text>
<text xml:space="preserve" text-anchor="middle" x="329.88" y="-133.5" font-family="Helvetica,sans-Serif" font-size="10.00">/PhysicsAsset.h</text>
</a>
</g>
</g>
<!-- Node2 -->
<g id="Node000002" class="node">
<title>Node2</title>
<g id="a_Node000002"><a xlink:title=" ">
<polygon fill="#e0e0e0" stroke="#999999" points="133.75,-20.75 0,-20.75 0,0 133.75,0 133.75,-20.75"/>
<text xml:space="preserve" text-anchor="middle" x="66.88" y="-7.25" font-family="Helvetica,sans-Serif" font-size="10.00">UObject/ObjectMacros.h</text>
</a>
</g>
</g>
<!-- Node1&#45;&gt;Node2 -->
<g id="edge1_Node000001_Node000002" class="edge">
<title>Node1&#45;&gt;Node2</title>
<g id="a_edge1_Node000001_Node000002"><a xlink:title=" ">
<path fill="none" stroke="#63b8ff" d="M246.98,-145.2C179.23,-135.51 91.13,-117.95 68.88,-90.25 55.9,-74.1 57.56,-49.51 61.08,-32.09"/>
<polygon fill="#63b8ff" stroke="#63b8ff" points="64.43,-33.14 63.38,-22.6 57.63,-31.49 64.43,-33.14"/>
</a>
</g>
</g>
<!-- Node3 -->
<g id="Node000003" class="node">
<title>Node3</title>
<g id="a_Node000003"><a xlink:title=" ">
<polygon fill="#e0e0e0" stroke="#999999" points="514.12,-83.88 415.62,-83.88 415.62,-63.12 514.12,-63.12 514.12,-83.88"/>
<text xml:space="preserve" text-anchor="middle" x="464.88" y="-70.38" font-family="Helvetica,sans-Serif" font-size="10.00">UObject/Object.h</text>
</a>
</g>
</g>
<!-- Node1&#45;&gt;Node3 -->
<g id="edge2_Node000001_Node000003" class="edge">
<title>Node1&#45;&gt;Node3</title>
<g id="a_edge2_Node000001_Node000003"><a xlink:title=" ">
<path fill="none" stroke="#63b8ff" d="M378.61,-125.78C398.88,-113.73 421.59,-100.23 438.62,-90.1"/>
<polygon fill="#63b8ff" stroke="#63b8ff" points="440.31,-93.17 447.12,-85.05 436.74,-87.15 440.31,-93.17"/>
</a>
</g>
</g>
<!-- Node4 -->
<g id="Node000004" class="node">
<title>Node4</title>
<g id="a_Node000004"><a xlink:href="RigidBodyIndexPair_8h.html" target="_top" xlink:title=" ">
<polygon fill="white" stroke="#666666" points="243.5,-90.25 78.25,-90.25 78.25,-56.75 243.5,-56.75 243.5,-90.25"/>
<text xml:space="preserve" text-anchor="start" x="86.25" y="-76.75" font-family="Helvetica,sans-Serif" font-size="10.00">PhysicsEngine/RigidBodyIndex</text>
<text xml:space="preserve" text-anchor="middle" x="160.88" y="-64" font-family="Helvetica,sans-Serif" font-size="10.00">Pair.h</text>
</a>
</g>
</g>
<!-- Node1&#45;&gt;Node4 -->
<g id="edge3_Node000001_Node000004" class="edge">
<title>Node1&#45;&gt;Node4</title>
<g id="a_edge3_Node000001_Node000004"><a xlink:title=" ">
<path fill="none" stroke="#63b8ff" d="M268.86,-125.78C247.8,-115.78 224.63,-104.77 205.16,-95.53"/>
<polygon fill="#63b8ff" stroke="#63b8ff" points="206.67,-92.37 196.14,-91.24 203.67,-98.7 206.67,-92.37"/>
</a>
</g>
</g>
<!-- Node6 -->
<g id="Node000006" class="node">
<title>Node6</title>
<g id="a_Node000006"><a xlink:href="Interface__PreviewMeshProvider_8h.html" target="_top" xlink:title=" ">
<polygon fill="white" stroke="#666666" points="397.88,-90.25 261.88,-90.25 261.88,-56.75 397.88,-56.75 397.88,-90.25"/>
<text xml:space="preserve" text-anchor="start" x="269.88" y="-76.75" font-family="Helvetica,sans-Serif" font-size="10.00">Interfaces/Interface</text>
<text xml:space="preserve" text-anchor="middle" x="329.88" y="-64" font-family="Helvetica,sans-Serif" font-size="10.00">_PreviewMeshProvider.h</text>
</a>
</g>
</g>
<!-- Node1&#45;&gt;Node6 -->
<g id="edge5_Node000001_Node000006" class="edge">
<title>Node1&#45;&gt;Node6</title>
<g id="a_edge5_Node000001_Node000006"><a xlink:title=" ">
<path fill="none" stroke="#63b8ff" d="M329.88,-125.78C329.88,-118 329.88,-109.61 329.88,-101.92"/>
<polygon fill="#63b8ff" stroke="#63b8ff" points="333.38,-102.11 329.88,-92.11 326.38,-102.11 333.38,-102.11"/>
</a>
</g>
</g>
<!-- Node9 -->
<g id="Node000009" class="node">
<title>Node9</title>
<g id="a_Node000009"><a xlink:title=" ">
<polygon fill="#e0e0e0" stroke="#999999" points="673.5,-83.88 532.25,-83.88 532.25,-63.12 673.5,-63.12 673.5,-83.88"/>
<text xml:space="preserve" text-anchor="middle" x="602.88" y="-70.38" font-family="Helvetica,sans-Serif" font-size="10.00">PhysicsAsset.generated.h</text>
</a>
</g>
</g>
<!-- Node1&#45;&gt;Node9 -->
<g id="edge10_Node000001_Node000009" class="edge">
<title>Node1&#45;&gt;Node9</title>
<g id="a_edge10_Node000001_Node000009"><a xlink:title=" ">
<path fill="none" stroke="#63b8ff" d="M412.9,-130.35C460.83,-116.26 519.21,-99.09 558.5,-87.54"/>
<polygon fill="#63b8ff" stroke="#63b8ff" points="559.24,-90.97 567.85,-84.8 557.27,-84.26 559.24,-90.97"/>
</a>
</g>
</g>
<!-- Node5 -->
<g id="Node000005" class="node">
<title>Node5</title>
<g id="a_Node000005"><a xlink:title=" ">
<polygon fill="#e0e0e0" stroke="#999999" points="247.5,-20.75 160.25,-20.75 160.25,0 247.5,0 247.5,-20.75"/>
<text xml:space="preserve" text-anchor="middle" x="203.88" y="-7.25" font-family="Helvetica,sans-Serif" font-size="10.00">CoreMinimal.h</text>
</a>
</g>
</g>
<!-- Node4&#45;&gt;Node5 -->
<g id="edge4_Node000004_Node000005" class="edge">
<title>Node4&#45;&gt;Node5</title>
<g id="a_edge4_Node000004_Node000005"><a xlink:title=" ">
<path fill="none" stroke="#63b8ff" d="M172.17,-56.44C177.76,-48.49 184.55,-38.84 190.41,-30.52"/>
<polygon fill="#63b8ff" stroke="#63b8ff" points="193.19,-32.65 196.08,-22.45 187.46,-28.62 193.19,-32.65"/>
</a>
</g>
</g>
<!-- Node6&#45;&gt;Node2 -->
<g id="edge7_Node000006_Node000002" class="edge">
<title>Node6&#45;&gt;Node2</title>
<g id="a_edge7_Node000006_Node000002"><a xlink:title=" ">
<path fill="none" stroke="#63b8ff" d="M261.46,-56.6C217.36,-46.35 160.85,-33.22 120.11,-23.75"/>
<polygon fill="#63b8ff" stroke="#63b8ff" points="121.06,-20.38 110.53,-21.52 119.48,-27.19 121.06,-20.38"/>
</a>
</g>
</g>
<!-- Node6&#45;&gt;Node5 -->
<g id="edge6_Node000006_Node000005" class="edge">
<title>Node6&#45;&gt;Node5</title>
<g id="a_edge6_Node000006_Node000005"><a xlink:title=" ">
<path fill="none" stroke="#63b8ff" d="M296.44,-56.28C277.18,-46.94 253.16,-35.28 234.41,-26.19"/>
<polygon fill="#63b8ff" stroke="#63b8ff" points="235.94,-23.04 225.42,-21.83 232.89,-29.34 235.94,-23.04"/>
</a>
</g>
</g>
<!-- Node7 -->
<g id="Node000007" class="node">
<title>Node7</title>
<g id="a_Node000007"><a xlink:title=" ">
<polygon fill="#e0e0e0" stroke="#999999" points="380.12,-20.75 269.62,-20.75 269.62,0 380.12,0 380.12,-20.75"/>
<text xml:space="preserve" text-anchor="middle" x="324.88" y="-7.25" font-family="Helvetica,sans-Serif" font-size="10.00">UObject/Interface.h</text>
</a>
</g>
</g>
<!-- Node6&#45;&gt;Node7 -->
<g id="edge8_Node000006_Node000007" class="edge">
<title>Node6&#45;&gt;Node7</title>
<g id="a_edge8_Node000006_Node000007"><a xlink:title=" ">
<path fill="none" stroke="#63b8ff" d="M328.56,-56.44C327.96,-49.1 327.24,-40.32 326.6,-32.46"/>
<polygon fill="#63b8ff" stroke="#63b8ff" points="330.11,-32.41 325.8,-22.73 323.13,-32.98 330.11,-32.41"/>
</a>
</g>
</g>
<!-- Node8 -->
<g id="Node000008" class="node">
<title>Node8</title>
<g id="a_Node000008"><a xlink:title=" ">
<polygon fill="#e0e0e0" stroke="#999999" points="629.88,-20.75 397.88,-20.75 397.88,0 629.88,0 629.88,-20.75"/>
<text xml:space="preserve" text-anchor="middle" x="513.88" y="-7.25" font-family="Helvetica,sans-Serif" font-size="10.00">Interface_PreviewMeshProvider.generated.h</text>
</a>
</g>
</g>
<!-- Node6&#45;&gt;Node8 -->
<g id="edge9_Node000006_Node000008" class="edge">
<title>Node6&#45;&gt;Node8</title>
<g id="a_edge9_Node000006_Node000008"><a xlink:title=" ">
<path fill="none" stroke="#63b8ff" d="M378.7,-56.28C408.4,-46.41 445.87,-33.97 473.82,-24.68"/>
<polygon fill="#63b8ff" stroke="#63b8ff" points="474.58,-28.12 482.97,-21.64 472.37,-21.47 474.58,-28.12"/>
</a>
</g>
</g>
</g>
</svg>
