<?xml version="1.0" encoding="UTF-8" standalone="no"?>
<!DOCTYPE svg PUBLIC "-//W3C//DTD SVG 1.1//EN"
 "http://www.w3.org/Graphics/SVG/1.1/DTD/svg11.dtd">
<!-- Generated by graphviz version 14.1.4 (0)
 -->
<!-- Title: /opt/unreal&#45;engine/Engine/Source/Runtime/Engine/Classes/PhysicsEngine/PhysicsObjectBlueprintLibrary.h Pages: 1 -->
<svg width="992pt" height="193pt"
 viewBox="0.00 0.00 992.00 193.00" xmlns="http://www.w3.org/2000/svg" xmlns:xlink="http://www.w3.org/1999/xlink">
<g id="graph0" class="graph" transform="scale(1 1) rotate(0) translate(4 189.25)">
<title>/opt/unreal&#45;engine/Engine/Source/Runtime/Engine/Classes/PhysicsEngine/PhysicsObjectBlueprintLibrary.h</title>
<!-- Node1 -->
<g id="Node000001" class="node">
<title>Node1</title>
<g id="a_Node000001"><a xlink:title=" ">
<polygon fill="#999999" stroke="#666666" points="705,-185.25 532.25,-185.25 532.25,-126.25 705,-126.25 705,-185.25"/>
<text xml:space="preserve" text-anchor="start" x="540.25" y="-171.75" font-family="Helvetica,sans-Serif" font-size="10.00">/opt/unreal&#45;engine</text>
<text xml:space="preserve" text-anchor="start" x="540.25" y="-159" font-family="Helvetica,sans-Serif" font-size="10.00">/Engine/Source/Runtime</text>
<text xml:space="preserve" text-anchor="start" x="540.25" y="-146.25" font-family="Helvetica,sans-Serif" font-size="10.00">/Engine/Classes/PhysicsEngine</text>
<text xml:space="preserve" text-anchor="middle" x="618.62" y="-133.5" font-family="Helvetica,sans-Serif" font-size="10.00">/PhysicsObjectBlueprintLibrary.h</text>
</a>
</g>
</g>
<!-- Node2 -->
<g id="Node000002" class="node">
<title>Node2</title>
<g id="a_Node000002"><a xlink:href="BlueprintFunctionLibrary_8h.html" target="_top" xlink:title=" ">
<polygon fill="white" stroke="#666666" points="440.12,-90.25 301.12,-90.25 301.12,-56.75 440.12,-56.75 440.12,-90.25"/>
<text xml:space="preserve" text-anchor="start" x="309.12" y="-76.75" font-family="Helvetica,sans-Serif" font-size="10.00">Kismet/BlueprintFunction</text>
<text xml:space="preserve" text-anchor="middle" x="370.62" y="-64" font-family="Helvetica,sans-Serif" font-size="10.00">Library.h</text>
</a>
</g>
</g>
<!-- Node1&#45;&gt;Node2 -->
<g id="edge1_Node000001_Node000002" class="edge">
<title>Node1&#45;&gt;Node2</title>
<g id="a_edge1_Node000001_Node000002"><a xlink:title=" ">
<path fill="none" stroke="#63b8ff" d="M531.89,-126.68C498.8,-115.97 461.8,-104 431.6,-94.23"/>
<polygon fill="#63b8ff" stroke="#63b8ff" points="432.83,-90.95 422.24,-91.2 430.68,-97.61 432.83,-90.95"/>
</a>
</g>
</g>
<!-- Node9 -->
<g id="Node000009" class="node">
<title>Node9</title>
<g id="a_Node000009"><a xlink:title=" ">
<polygon fill="#e0e0e0" stroke="#999999" points="627.5,-83.88 457.75,-83.88 457.75,-63.12 627.5,-63.12 627.5,-83.88"/>
<text xml:space="preserve" text-anchor="middle" x="542.62" y="-70.38" font-family="Helvetica,sans-Serif" font-size="10.00">Chaos/PhysicsObjectInterface.h</text>
</a>
</g>
</g>
<!-- Node1&#45;&gt;Node9 -->
<g id="edge8_Node000001_Node000009" class="edge">
<title>Node1&#45;&gt;Node9</title>
<g id="a_edge8_Node000001_Node000009"><a xlink:title=" ">
<path fill="none" stroke="#63b8ff" d="M591.19,-125.78C580.64,-114.64 568.91,-102.26 559.63,-92.45"/>
<polygon fill="#63b8ff" stroke="#63b8ff" points="562.35,-90.23 552.93,-85.38 557.26,-95.05 562.35,-90.23"/>
</a>
</g>
</g>
<!-- Node10 -->
<g id="Node000010" class="node">
<title>Node10</title>
<g id="a_Node000010"><a xlink:title=" ">
<polygon fill="#e0e0e0" stroke="#999999" points="743.5,-83.88 645.75,-83.88 645.75,-63.12 743.5,-63.12 743.5,-83.88"/>
<text xml:space="preserve" text-anchor="middle" x="694.62" y="-70.38" font-family="Helvetica,sans-Serif" font-size="10.00">Math/MathFwd.h</text>
</a>
</g>
</g>
<!-- Node1&#45;&gt;Node10 -->
<g id="edge9_Node000001_Node000010" class="edge">
<title>Node1&#45;&gt;Node10</title>
<g id="a_edge9_Node000001_Node000010"><a xlink:title=" ">
<path fill="none" stroke="#63b8ff" d="M646.06,-125.78C656.61,-114.64 668.34,-102.26 677.62,-92.45"/>
<polygon fill="#63b8ff" stroke="#63b8ff" points="679.99,-95.05 684.32,-85.38 674.9,-90.23 679.99,-95.05"/>
</a>
</g>
</g>
<!-- Node11 -->
<g id="Node000011" class="node">
<title>Node11</title>
<g id="a_Node000011"><a xlink:title=" ">
<polygon fill="#e0e0e0" stroke="#999999" points="983.75,-83.88 761.5,-83.88 761.5,-63.12 983.75,-63.12 983.75,-83.88"/>
<text xml:space="preserve" text-anchor="middle" x="872.62" y="-70.38" font-family="Helvetica,sans-Serif" font-size="10.00">PhysicsObjectBlueprintLibrary.generated.h</text>
</a>
</g>
</g>
<!-- Node1&#45;&gt;Node11 -->
<g id="edge10_Node000001_Node000011" class="edge">
<title>Node1&#45;&gt;Node11</title>
<g id="a_edge10_Node000001_Node000011"><a xlink:title=" ">
<path fill="none" stroke="#63b8ff" d="M705.33,-127.36C747.68,-113.98 796.7,-98.49 830.68,-87.75"/>
<polygon fill="#63b8ff" stroke="#63b8ff" points="831.67,-91.11 840.16,-84.76 829.57,-84.43 831.67,-91.11"/>
</a>
</g>
</g>
<!-- Node3 -->
<g id="Node000003" class="node">
<title>Node3</title>
<g id="a_Node000003"><a xlink:title=" ">
<polygon fill="#e0e0e0" stroke="#999999" points="87.25,-20.75 0,-20.75 0,0 87.25,0 87.25,-20.75"/>
<text xml:space="preserve" text-anchor="middle" x="43.62" y="-7.25" font-family="Helvetica,sans-Serif" font-size="10.00">CoreMinimal.h</text>
</a>
</g>
</g>
<!-- Node2&#45;&gt;Node3 -->
<g id="edge2_Node000002_Node000003" class="edge">
<title>Node2&#45;&gt;Node3</title>
<g id="a_edge2_Node000002_Node000003"><a xlink:title=" ">
<path fill="none" stroke="#63b8ff" d="M300.88,-59.46C240.51,-48.18 154.39,-32.08 98.75,-21.68"/>
<polygon fill="#63b8ff" stroke="#63b8ff" points="99.66,-18.29 89.19,-19.89 98.37,-25.17 99.66,-18.29"/>
</a>
</g>
</g>
<!-- Node4 -->
<g id="Node000004" class="node">
<title>Node4</title>
<g id="a_Node000004"><a xlink:title=" ">
<polygon fill="#e0e0e0" stroke="#999999" points="239.5,-20.75 105.75,-20.75 105.75,0 239.5,0 239.5,-20.75"/>
<text xml:space="preserve" text-anchor="middle" x="172.62" y="-7.25" font-family="Helvetica,sans-Serif" font-size="10.00">UObject/ObjectMacros.h</text>
</a>
</g>
</g>
<!-- Node2&#45;&gt;Node4 -->
<g id="edge3_Node000002_Node000004" class="edge">
<title>Node2&#45;&gt;Node4</title>
<g id="a_edge3_Node000002_Node000004"><a xlink:title=" ">
<path fill="none" stroke="#63b8ff" d="M318.08,-56.28C285.98,-46.37 245.45,-33.86 215.33,-24.56"/>
<polygon fill="#63b8ff" stroke="#63b8ff" points="216.37,-21.22 205.78,-21.61 214.31,-27.91 216.37,-21.22"/>
</a>
</g>
</g>
<!-- Node5 -->
<g id="Node000005" class="node">
<title>Node5</title>
<g id="a_Node000005"><a xlink:title=" ">
<polygon fill="#e0e0e0" stroke="#999999" points="355.88,-20.75 257.38,-20.75 257.38,0 355.88,0 355.88,-20.75"/>
<text xml:space="preserve" text-anchor="middle" x="306.62" y="-7.25" font-family="Helvetica,sans-Serif" font-size="10.00">UObject/Object.h</text>
</a>
</g>
</g>
<!-- Node2&#45;&gt;Node5 -->
<g id="edge4_Node000002_Node000005" class="edge">
<title>Node2&#45;&gt;Node5</title>
<g id="a_edge4_Node000002_Node000005"><a xlink:title=" ">
<path fill="none" stroke="#63b8ff" d="M353.81,-56.44C345.03,-48.06 334.27,-37.78 325.24,-29.16"/>
<polygon fill="#63b8ff" stroke="#63b8ff" points="327.67,-26.64 318.02,-22.26 322.84,-31.7 327.67,-26.64"/>
</a>
</g>
</g>
<!-- Node6 -->
<g id="Node000006" class="node">
<title>Node6</title>
<g id="a_Node000006"><a xlink:title=" ">
<polygon fill="#e0e0e0" stroke="#999999" points="495.5,-20.75 373.75,-20.75 373.75,0 495.5,0 495.5,-20.75"/>
<text xml:space="preserve" text-anchor="middle" x="434.62" y="-7.25" font-family="Helvetica,sans-Serif" font-size="10.00">UObject/UnrealType.h</text>
</a>
</g>
</g>
<!-- Node2&#45;&gt;Node6 -->
<g id="edge5_Node000002_Node000006" class="edge">
<title>Node2&#45;&gt;Node6</title>
<g id="a_edge5_Node000002_Node000006"><a xlink:title=" ">
<path fill="none" stroke="#63b8ff" d="M387.44,-56.44C396.22,-48.06 406.98,-37.78 416.01,-29.16"/>
<polygon fill="#63b8ff" stroke="#63b8ff" points="418.41,-31.7 423.23,-22.26 413.58,-26.64 418.41,-31.7"/>
</a>
</g>
</g>
<!-- Node7 -->
<g id="Node000007" class="node">
<title>Node7</title>
<g id="a_Node000007"><a xlink:title=" ">
<polygon fill="#e0e0e0" stroke="#999999" points="643.62,-20.75 513.62,-20.75 513.62,0 643.62,0 643.62,-20.75"/>
<text xml:space="preserve" text-anchor="middle" x="578.62" y="-7.25" font-family="Helvetica,sans-Serif" font-size="10.00">UObject/ScriptMacros.h</text>
</a>
</g>
</g>
<!-- Node2&#45;&gt;Node7 -->
<g id="edge6_Node000002_Node000007" class="edge">
<title>Node2&#45;&gt;Node7</title>
<g id="a_edge6_Node000002_Node000007"><a xlink:title=" ">
<path fill="none" stroke="#63b8ff" d="M425.82,-56.28C459.84,-46.28 502.87,-33.64 534.59,-24.31"/>
<polygon fill="#63b8ff" stroke="#63b8ff" points="535.25,-27.77 543.86,-21.59 533.28,-21.05 535.25,-27.77"/>
</a>
</g>
</g>
<!-- Node8 -->
<g id="Node000008" class="node">
<title>Node8</title>
<g id="a_Node000008"><a xlink:title=" ">
<polygon fill="#e0e0e0" stroke="#999999" points="857.25,-20.75 662,-20.75 662,0 857.25,0 857.25,-20.75"/>
<text xml:space="preserve" text-anchor="middle" x="759.62" y="-7.25" font-family="Helvetica,sans-Serif" font-size="10.00">BlueprintFunctionLibrary.generated.h</text>
</a>
</g>
</g>
<!-- Node2&#45;&gt;Node8 -->
<g id="edge7_Node000002_Node000008" class="edge">
<title>Node2&#45;&gt;Node8</title>
<g id="a_edge7_Node000002_Node000008"><a xlink:title=" ">
<path fill="none" stroke="#63b8ff" d="M440.33,-58.23C443.13,-57.72 445.9,-57.22 448.62,-56.75 524.03,-43.65 610.17,-31.28 672.65,-22.78"/>
<polygon fill="#63b8ff" stroke="#63b8ff" points="673.09,-26.25 682.53,-21.44 672.15,-19.31 673.09,-26.25"/>
</a>
</g>
</g>
</g>
</svg>
