<?xml version="1.0" encoding="UTF-8" standalone="no"?>
<!DOCTYPE svg PUBLIC "-//W3C//DTD SVG 1.1//EN"
 "http://www.w3.org/Graphics/SVG/1.1/DTD/svg11.dtd">
<!-- Generated by graphviz version 14.1.4 (0)
 -->
<!-- Title: /opt/unreal&#45;engine/Engine/Source/Runtime/Core/Public/HAL/Platform.h Pages: 1 -->
<svg width="1550pt" height="137pt"
 viewBox="0.00 0.00 1550.00 137.00" xmlns="http://www.w3.org/2000/svg" xmlns:xlink="http://www.w3.org/1999/xlink">
<g id="graph0" class="graph" transform="scale(1 1) rotate(0) translate(4 132.5)">
<title>/opt/unreal&#45;engine/Engine/Source/Runtime/Core/Public/HAL/Platform.h</title>
<!-- Node1 -->
<g id="Node000001" class="node">
<title>Node1</title>
<g id="a_Node000001"><a xlink:title=" ">
<polygon fill="#999999" stroke="#666666" points="679.75,-128.5 529.5,-128.5 529.5,-82.25 679.75,-82.25 679.75,-128.5"/>
<text xml:space="preserve" text-anchor="start" x="537.5" y="-115" font-family="Helvetica,sans-Serif" font-size="10.00">/opt/unreal&#45;engine</text>
<text xml:space="preserve" text-anchor="start" x="537.5" y="-102.25" font-family="Helvetica,sans-Serif" font-size="10.00">/Engine/Source/Runtime</text>
<text xml:space="preserve" text-anchor="middle" x="604.62" y="-89.5" font-family="Helvetica,sans-Serif" font-size="10.00">/Core/Public/HAL/Platform.h</text>
</a>
</g>
</g>
<!-- Node2 -->
<g id="Node000002" class="node">
<title>Node2</title>
<g id="a_Node000002"><a xlink:href="$Build_8h.html" xlink:title=" ">
<polygon fill="white" stroke="#666666" points="75.25,-33.5 0,-33.5 0,-12.75 75.25,-12.75 75.25,-33.5"/>
<text xml:space="preserve" text-anchor="middle" x="37.62" y="-20" font-family="Helvetica,sans-Serif" font-size="10.00">Misc/Build.h</text>
</a>
</g>
</g>
<!-- Node1&#45;&gt;Node2 -->
<g id="edge1_Node000001_Node000002" class="edge">
<title>Node1&#45;&gt;Node2</title>
<g id="a_edge1_Node000001_Node000002"><a xlink:title=" ">
<path fill="none" stroke="#63b8ff" d="M529.09,-103.64C426.56,-100.92 238.47,-89.76 84.62,-46.25 78.06,-44.39 71.28,-41.71 64.98,-38.84"/>
<polygon fill="#63b8ff" stroke="#63b8ff" points="66.83,-35.85 56.31,-34.62 63.77,-42.14 66.83,-35.85"/>
</a>
</g>
</g>
<!-- Node3 -->
<g id="Node000003" class="node">
<title>Node3</title>
<g id="a_Node000003"><a xlink:href="$LargeWorldCoordinates_8h.html" xlink:title=" ">
<polygon fill="white" stroke="#666666" points="257.88,-33.5 93.38,-33.5 93.38,-12.75 257.88,-12.75 257.88,-33.5"/>
<text xml:space="preserve" text-anchor="middle" x="175.62" y="-20" font-family="Helvetica,sans-Serif" font-size="10.00">Misc/LargeWorldCoordinates.h</text>
</a>
</g>
</g>
<!-- Node1&#45;&gt;Node3 -->
<g id="edge2_Node000001_Node000003" class="edge">
<title>Node1&#45;&gt;Node3</title>
<g id="a_edge2_Node000001_Node000003"><a xlink:title=" ">
<path fill="none" stroke="#63b8ff" d="M529.07,-92.79C460.6,-81.95 357.03,-64.69 267.62,-46.25 253.8,-43.4 238.89,-39.97 225.18,-36.67"/>
<polygon fill="#63b8ff" stroke="#63b8ff" points="226.01,-33.27 215.47,-34.3 224.35,-40.07 226.01,-33.27"/>
</a>
</g>
</g>
<!-- Node4 -->
<g id="Node000004" class="node">
<title>Node4</title>
<g id="a_Node000004"><a xlink:title=" ">
<polygon fill="#e0e0e0" stroke="#999999" points="344.88,-33.5 276.38,-33.5 276.38,-12.75 344.88,-12.75 344.88,-33.5"/>
<text xml:space="preserve" text-anchor="middle" x="310.62" y="-20" font-family="Helvetica,sans-Serif" font-size="10.00">type_traits</text>
</a>
</g>
</g>
<!-- Node1&#45;&gt;Node4 -->
<g id="edge3_Node000001_Node000004" class="edge">
<title>Node1&#45;&gt;Node4</title>
<g id="a_edge3_Node000001_Node000004"><a xlink:title=" ">
<path fill="none" stroke="#63b8ff" d="M529.08,-91.94C478.5,-82.4 410.95,-67.27 353.62,-46.25 348.29,-44.29 342.77,-41.83 337.54,-39.25"/>
<polygon fill="#63b8ff" stroke="#63b8ff" points="339.17,-36.16 328.69,-34.65 335.95,-42.37 339.17,-36.16"/>
</a>
</g>
</g>
<!-- Node5 -->
<g id="Node000005" class="node">
<title>Node5</title>
<g id="a_Node000005"><a xlink:href="$PreprocessorHelpers_8h.html" xlink:title=" ">
<polygon fill="white" stroke="#666666" points="488.38,-33.5 362.88,-33.5 362.88,-12.75 488.38,-12.75 488.38,-33.5"/>
<text xml:space="preserve" text-anchor="middle" x="425.62" y="-20" font-family="Helvetica,sans-Serif" font-size="10.00">PreprocessorHelpers.h</text>
</a>
</g>
</g>
<!-- Node1&#45;&gt;Node5 -->
<g id="edge4_Node000001_Node000005" class="edge">
<title>Node1&#45;&gt;Node5</title>
<g id="a_edge4_Node000001_Node000005"><a xlink:title=" ">
<path fill="none" stroke="#63b8ff" d="M554.29,-81.81C523.39,-67.95 484.73,-50.62 457.89,-38.59"/>
<polygon fill="#63b8ff" stroke="#63b8ff" points="459.46,-35.46 448.91,-34.56 456.6,-41.85 459.46,-35.46"/>
</a>
</g>
</g>
<!-- Node6 -->
<g id="Node000006" class="node">
<title>Node6</title>
<g id="a_Node000006"><a xlink:title=" ">
<polygon fill="#e0e0e0" stroke="#999999" points="703,-46.25 506.25,-46.25 506.25,0 703,0 703,-46.25"/>
<text xml:space="preserve" text-anchor="start" x="514.25" y="-32.75" font-family="Helvetica,sans-Serif" font-size="10.00">UBT_COMPILED_PLATFORM</text>
<text xml:space="preserve" text-anchor="start" x="514.25" y="-20" font-family="Helvetica,sans-Serif" font-size="10.00">/UBT_COMPILED_PLATFORMPlatform</text>
<text xml:space="preserve" text-anchor="middle" x="604.62" y="-7.25" font-family="Helvetica,sans-Serif" font-size="10.00">CompilerPreSetup.h</text>
</a>
</g>
</g>
<!-- Node1&#45;&gt;Node6 -->
<g id="edge5_Node000001_Node000006" class="edge">
<title>Node1&#45;&gt;Node6</title>
<g id="a_edge5_Node000001_Node000006"><a xlink:title=" ">
<path fill="none" stroke="#63b8ff" d="M604.62,-82.02C604.62,-74.6 604.62,-66.17 604.62,-58.09"/>
<polygon fill="#63b8ff" stroke="#63b8ff" points="608.13,-58.15 604.63,-48.15 601.13,-58.15 608.13,-58.15"/>
</a>
</g>
</g>
<!-- Node7 -->
<g id="Node000007" class="node">
<title>Node7</title>
<g id="a_Node000007"><a xlink:href="$GenericPlatformCompilerPreSetup_8h.html" xlink:title=" ">
<polygon fill="white" stroke="#666666" points="898.62,-39.88 720.62,-39.88 720.62,-6.38 898.62,-6.38 898.62,-39.88"/>
<text xml:space="preserve" text-anchor="start" x="728.62" y="-26.38" font-family="Helvetica,sans-Serif" font-size="10.00">GenericPlatform/GenericPlatform</text>
<text xml:space="preserve" text-anchor="middle" x="809.62" y="-13.62" font-family="Helvetica,sans-Serif" font-size="10.00">CompilerPreSetup.h</text>
</a>
</g>
</g>
<!-- Node1&#45;&gt;Node7 -->
<g id="edge6_Node000001_Node000007" class="edge">
<title>Node1&#45;&gt;Node7</title>
<g id="a_edge6_Node000001_Node000007"><a xlink:title=" ">
<path fill="none" stroke="#63b8ff" d="M662.27,-81.81C692.33,-70.04 728.8,-55.76 757.94,-44.36"/>
<polygon fill="#63b8ff" stroke="#63b8ff" points="758.87,-47.75 766.91,-40.85 756.32,-41.23 758.87,-47.75"/>
</a>
</g>
</g>
<!-- Node8 -->
<g id="Node000008" class="node">
<title>Node8</title>
<g id="a_Node000008"><a xlink:href="$GenericPlatform_8h.html" xlink:title=" ">
<polygon fill="white" stroke="#666666" points="1104.12,-33.5 917.12,-33.5 917.12,-12.75 1104.12,-12.75 1104.12,-33.5"/>
<text xml:space="preserve" text-anchor="middle" x="1010.62" y="-20" font-family="Helvetica,sans-Serif" font-size="10.00">GenericPlatform/GenericPlatform.h</text>
</a>
</g>
</g>
<!-- Node1&#45;&gt;Node8 -->
<g id="edge7_Node000001_Node000008" class="edge">
<title>Node1&#45;&gt;Node8</title>
<g id="a_edge7_Node000001_Node000008"><a xlink:title=" ">
<path fill="none" stroke="#63b8ff" d="M680.05,-90.38C741.41,-78.89 830.2,-61.99 907.62,-46.25 922.99,-43.13 939.6,-39.62 954.92,-36.33"/>
<polygon fill="#63b8ff" stroke="#63b8ff" points="955.28,-39.83 964.32,-34.3 953.81,-32.98 955.28,-39.83"/>
</a>
</g>
</g>
<!-- Node9 -->
<g id="Node000009" class="node">
<title>Node9</title>
<g id="a_Node000009"><a xlink:title=" ">
<polygon fill="#e0e0e0" stroke="#999999" points="1327.5,-39.88 1121.75,-39.88 1121.75,-6.38 1327.5,-6.38 1327.5,-39.88"/>
<text xml:space="preserve" text-anchor="start" x="1129.75" y="-26.38" font-family="Helvetica,sans-Serif" font-size="10.00">UBT_COMPILED_PLATFORM</text>
<text xml:space="preserve" text-anchor="middle" x="1224.62" y="-13.62" font-family="Helvetica,sans-Serif" font-size="10.00">/UBT_COMPILED_PLATFORMPlatform.h</text>
</a>
</g>
</g>
<!-- Node1&#45;&gt;Node9 -->
<g id="edge8_Node000001_Node000009" class="edge">
<title>Node1&#45;&gt;Node9</title>
<g id="a_edge8_Node000001_Node000009"><a xlink:title=" ">
<path fill="none" stroke="#63b8ff" d="M679.92,-97.75C779.49,-88.53 960.29,-70.24 1113.62,-46.25 1120.99,-45.1 1128.62,-43.8 1136.26,-42.43"/>
<polygon fill="#63b8ff" stroke="#63b8ff" points="1136.75,-45.89 1145.95,-40.64 1135.49,-39.01 1136.75,-45.89"/>
</a>
</g>
</g>
<!-- Node10 -->
<g id="Node000010" class="node">
<title>Node10</title>
<g id="a_Node000010"><a xlink:title=" ">
<polygon fill="#e0e0e0" stroke="#999999" points="1542,-46.25 1345.25,-46.25 1345.25,0 1542,0 1542,-46.25"/>
<text xml:space="preserve" text-anchor="start" x="1353.25" y="-32.75" font-family="Helvetica,sans-Serif" font-size="10.00">UBT_COMPILED_PLATFORM</text>
<text xml:space="preserve" text-anchor="start" x="1353.25" y="-20" font-family="Helvetica,sans-Serif" font-size="10.00">/UBT_COMPILED_PLATFORMPlatform</text>
<text xml:space="preserve" text-anchor="middle" x="1443.62" y="-7.25" font-family="Helvetica,sans-Serif" font-size="10.00">CompilerSetup.h</text>
</a>
</g>
</g>
<!-- Node1&#45;&gt;Node10 -->
<g id="edge9_Node000001_Node000010" class="edge">
<title>Node1&#45;&gt;Node10</title>
<g id="a_edge9_Node000001_Node000010"><a xlink:title=" ">
<path fill="none" stroke="#63b8ff" d="M680.05,-101.49C811.15,-95.79 1089.65,-80.69 1333.66,-46.59"/>
<polygon fill="#63b8ff" stroke="#63b8ff" points="1333.98,-50.08 1343.39,-45.22 1333,-43.15 1333.98,-50.08"/>
</a>
</g>
</g>
</g>
</svg>
