<?xml version="1.0" encoding="UTF-8" standalone="no"?>
<!DOCTYPE svg PUBLIC "-//W3C//DTD SVG 1.1//EN"
 "http://www.w3.org/Graphics/SVG/1.1/DTD/svg11.dtd">
<!-- Generated by graphviz version 14.1.4 (0)
 -->
<!-- Title: UE_DEPRECATED Pages: 1 -->
<svg width="288pt" height="107pt"
 viewBox="0.00 0.00 288.00 107.00" xmlns="http://www.w3.org/2000/svg" xmlns:xlink="http://www.w3.org/1999/xlink">
<g id="graph0" class="graph" transform="scale(1 1) rotate(0) translate(4 102.75)">
<title>UE_DEPRECATED</title>
<!-- Node1 -->
<g id="Node000001" class="node">
<title>Node1</title>
<g id="a_Node000001"><a xlink:title=" ">
<polygon fill="#999999" stroke="#666666" points="279.5,-59.75 179.5,-59.75 179.5,-39 279.5,-39 279.5,-59.75"/>
<text xml:space="preserve" text-anchor="middle" x="229.5" y="-46.25" font-family="Helvetica,sans-Serif" font-size="10.00">UE_DEPRECATED</text>
</a>
</g>
</g>
<!-- Node2 -->
<g id="Node000002" class="node">
<title>Node2</title>
<g id="a_Node000002"><a xlink:href="$classUPlayerInput.html#a68eb24b18c715fd64bc13ed3d1392632" xlink:title=" ">
<polygon fill="white" stroke="#666666" points="135.62,-98.75 7.88,-98.75 7.88,-78 135.62,-78 135.62,-98.75"/>
<text xml:space="preserve" text-anchor="middle" x="71.75" y="-85.25" font-family="Helvetica,sans-Serif" font-size="10.00">UPlayerInput::InputKey</text>
</a>
</g>
</g>
<!-- Node1&#45;&gt;Node2 -->
<g id="edge1_Node000001_Node000002" class="edge">
<title>Node1&#45;&gt;Node2</title>
<g id="a_edge1_Node000001_Node000002"><a xlink:title=" ">
<path fill="none" stroke="#63b8ff" d="M174.21,-62.97C155.22,-67.72 134.16,-73 116.17,-77.5"/>
<polygon fill="#63b8ff" stroke="#63b8ff" points="174.8,-66.43 183.65,-60.61 173.1,-59.64 174.8,-66.43"/>
</a>
</g>
</g>
<!-- Node3 -->
<g id="Node000003" class="node">
<title>Node3</title>
<g id="a_Node000003"><a xlink:href="$classUPlayerInput.html#a63ef70d6b3441ef7bf0c91a01ca530df" xlink:title=" ">
<polygon fill="white" stroke="#666666" points="143.5,-59.75 0,-59.75 0,-39 143.5,-39 143.5,-59.75"/>
<text xml:space="preserve" text-anchor="middle" x="71.75" y="-46.25" font-family="Helvetica,sans-Serif" font-size="10.00">UPlayerInput::InputMotion</text>
</a>
</g>
</g>
<!-- Node1&#45;&gt;Node3 -->
<g id="edge2_Node000001_Node000003" class="edge">
<title>Node1&#45;&gt;Node3</title>
<g id="a_edge2_Node000001_Node000003"><a xlink:title=" ">
<path fill="none" stroke="#63b8ff" d="M167.91,-49.38C160.04,-49.38 151.92,-49.38 143.9,-49.38"/>
<polygon fill="#63b8ff" stroke="#63b8ff" points="167.71,-52.88 177.71,-49.38 167.71,-45.88 167.71,-52.88"/>
</a>
</g>
</g>
<!-- Node4 -->
<g id="Node000004" class="node">
<title>Node4</title>
<g id="a_Node000004"><a xlink:href="$classUPlayerInput.html#a005f286afab633c0fd531f8489bd9589" xlink:title=" ">
<polygon fill="white" stroke="#666666" points="140.5,-20.75 3,-20.75 3,0 140.5,0 140.5,-20.75"/>
<text xml:space="preserve" text-anchor="middle" x="71.75" y="-7.25" font-family="Helvetica,sans-Serif" font-size="10.00">UPlayerInput::InputTouch</text>
</a>
</g>
</g>
<!-- Node1&#45;&gt;Node4 -->
<g id="edge3_Node000001_Node000004" class="edge">
<title>Node1&#45;&gt;Node4</title>
<g id="a_edge3_Node000001_Node000004"><a xlink:title=" ">
<path fill="none" stroke="#63b8ff" d="M174.21,-35.78C155.22,-31.03 134.16,-25.75 116.17,-21.25"/>
<polygon fill="#63b8ff" stroke="#63b8ff" points="173.1,-39.11 183.65,-38.14 174.8,-32.32 173.1,-39.11"/>
</a>
</g>
</g>
</g>
</svg>
