<?xml version="1.0" encoding="UTF-8" standalone="no"?>
<!DOCTYPE svg PUBLIC "-//W3C//DTD SVG 1.1//EN"
 "http://www.w3.org/Graphics/SVG/1.1/DTD/svg11.dtd">
<!-- Generated by graphviz version 14.1.4 (0)
 -->
<!-- Title: /opt/unreal&#45;engine/Engine/Source/Runtime/Engine/Classes/GameFramework/PlayerMuteList.h Pages: 1 -->
<svg width="569pt" height="124pt"
 viewBox="0.00 0.00 569.00 124.00" xmlns="http://www.w3.org/2000/svg" xmlns:xlink="http://www.w3.org/1999/xlink">
<g id="graph0" class="graph" transform="scale(1 1) rotate(0) translate(4 119.75)">
<title>/opt/unreal&#45;engine/Engine/Source/Runtime/Engine/Classes/GameFramework/PlayerMuteList.h</title>
<!-- Node1 -->
<g id="Node000001" class="node">
<title>Node1</title>
<g id="a_Node000001"><a xlink:title=" ">
<polygon fill="#999999" stroke="#666666" points="362.62,-115.75 183.12,-115.75 183.12,-56.75 362.62,-56.75 362.62,-115.75"/>
<text xml:space="preserve" text-anchor="start" x="191.12" y="-102.25" font-family="Helvetica,sans-Serif" font-size="10.00">/opt/unreal&#45;engine</text>
<text xml:space="preserve" text-anchor="start" x="191.12" y="-89.5" font-family="Helvetica,sans-Serif" font-size="10.00">/Engine/Source/Runtime</text>
<text xml:space="preserve" text-anchor="start" x="191.12" y="-76.75" font-family="Helvetica,sans-Serif" font-size="10.00">/Engine/Classes/GameFramework</text>
<text xml:space="preserve" text-anchor="middle" x="272.88" y="-64" font-family="Helvetica,sans-Serif" font-size="10.00">/PlayerMuteList.h</text>
</a>
</g>
</g>
<!-- Node2 -->
<g id="Node000002" class="node">
<title>Node2</title>
<g id="a_Node000002"><a xlink:title=" ">
<polygon fill="#e0e0e0" stroke="#999999" points="133.75,-20.75 0,-20.75 0,0 133.75,0 133.75,-20.75"/>
<text xml:space="preserve" text-anchor="middle" x="66.88" y="-7.25" font-family="Helvetica,sans-Serif" font-size="10.00">UObject/ObjectMacros.h</text>
</a>
</g>
</g>
<!-- Node1&#45;&gt;Node2 -->
<g id="edge1_Node000001_Node000002" class="edge">
<title>Node1&#45;&gt;Node2</title>
<g id="a_edge1_Node000001_Node000002"><a xlink:title=" ">
<path fill="none" stroke="#63b8ff" d="M192.05,-56.26C161.94,-45.47 129.18,-33.72 104.73,-24.95"/>
<polygon fill="#63b8ff" stroke="#63b8ff" points="106.14,-21.74 95.55,-21.66 103.78,-28.33 106.14,-21.74"/>
</a>
</g>
</g>
<!-- Node3 -->
<g id="Node000003" class="node">
<title>Node3</title>
<g id="a_Node000003"><a xlink:title=" ">
<polygon fill="#e0e0e0" stroke="#999999" points="265.62,-20.75 152.12,-20.75 152.12,0 265.62,0 265.62,-20.75"/>
<text xml:space="preserve" text-anchor="middle" x="208.88" y="-7.25" font-family="Helvetica,sans-Serif" font-size="10.00">Online/CoreOnline.h</text>
</a>
</g>
</g>
<!-- Node1&#45;&gt;Node3 -->
<g id="edge2_Node000001_Node000003" class="edge">
<title>Node1&#45;&gt;Node3</title>
<g id="a_edge2_Node000001_Node000003"><a xlink:title=" ">
<path fill="none" stroke="#63b8ff" d="M247.95,-56.48C240.18,-47.51 231.82,-37.86 224.84,-29.8"/>
<polygon fill="#63b8ff" stroke="#63b8ff" points="227.58,-27.62 218.38,-22.35 222.29,-32.2 227.58,-27.62"/>
</a>
</g>
</g>
<!-- Node4 -->
<g id="Node000004" class="node">
<title>Node4</title>
<g id="a_Node000004"><a xlink:title=" ">
<polygon fill="#e0e0e0" stroke="#999999" points="392.38,-20.75 283.38,-20.75 283.38,0 392.38,0 392.38,-20.75"/>
<text xml:space="preserve" text-anchor="middle" x="337.88" y="-7.25" font-family="Helvetica,sans-Serif" font-size="10.00">Misc/EnumRange.h</text>
</a>
</g>
</g>
<!-- Node1&#45;&gt;Node4 -->
<g id="edge3_Node000001_Node000004" class="edge">
<title>Node1&#45;&gt;Node4</title>
<g id="a_edge3_Node000001_Node000004"><a xlink:title=" ">
<path fill="none" stroke="#63b8ff" d="M298.19,-56.48C306.08,-47.51 314.57,-37.86 321.66,-29.8"/>
<polygon fill="#63b8ff" stroke="#63b8ff" points="324.25,-32.16 328.22,-22.34 318.99,-27.54 324.25,-32.16"/>
</a>
</g>
</g>
<!-- Node5 -->
<g id="Node000005" class="node">
<title>Node5</title>
<g id="a_Node000005"><a xlink:title=" ">
<polygon fill="#e0e0e0" stroke="#999999" points="561,-20.75 410.75,-20.75 410.75,0 561,0 561,-20.75"/>
<text xml:space="preserve" text-anchor="middle" x="485.88" y="-7.25" font-family="Helvetica,sans-Serif" font-size="10.00">PlayerMuteList.generated.h</text>
</a>
</g>
</g>
<!-- Node1&#45;&gt;Node5 -->
<g id="edge4_Node000001_Node000005" class="edge">
<title>Node1&#45;&gt;Node5</title>
<g id="a_edge4_Node000001_Node000005"><a xlink:title=" ">
<path fill="none" stroke="#63b8ff" d="M356.45,-56.26C387.62,-45.45 421.53,-33.69 446.83,-24.92"/>
<polygon fill="#63b8ff" stroke="#63b8ff" points="447.72,-28.31 456.02,-21.73 445.43,-21.7 447.72,-28.31"/>
</a>
</g>
</g>
</g>
</svg>
