<?xml version="1.0" encoding="UTF-8" standalone="no"?>
<!DOCTYPE svg PUBLIC "-//W3C//DTD SVG 1.1//EN"
 "http://www.w3.org/Graphics/SVG/1.1/DTD/svg11.dtd">
<!-- Generated by graphviz version 14.1.4 (0)
 -->
<!-- Title: /opt/unreal&#45;engine/Engine/Source/Runtime/Engine/Classes/Engine/Polys.h Pages: 1 -->
<svg width="1264pt" height="237pt"
 viewBox="0.00 0.00 1264.00 237.00" xmlns="http://www.w3.org/2000/svg" xmlns:xlink="http://www.w3.org/1999/xlink">
<g id="graph0" class="graph" transform="scale(1 1) rotate(0) translate(4 233.25)">
<title>/opt/unreal&#45;engine/Engine/Source/Runtime/Engine/Classes/Engine/Polys.h</title>
<!-- Node1 -->
<g id="Node000001" class="node">
<title>Node1</title>
<g id="a_Node000001"><a xlink:title=" ">
<polygon fill="#999999" stroke="#666666" points="967.75,-229.25 835.5,-229.25 835.5,-170.25 967.75,-170.25 967.75,-229.25"/>
<text xml:space="preserve" text-anchor="start" x="843.5" y="-215.75" font-family="Helvetica,sans-Serif" font-size="10.00">/opt/unreal&#45;engine</text>
<text xml:space="preserve" text-anchor="start" x="843.5" y="-203" font-family="Helvetica,sans-Serif" font-size="10.00">/Engine/Source/Runtime</text>
<text xml:space="preserve" text-anchor="start" x="843.5" y="-190.25" font-family="Helvetica,sans-Serif" font-size="10.00">/Engine/Classes/Engine</text>
<text xml:space="preserve" text-anchor="middle" x="901.62" y="-177.5" font-family="Helvetica,sans-Serif" font-size="10.00">/Polys.h</text>
</a>
</g>
</g>
<!-- Node2 -->
<g id="Node000002" class="node">
<title>Node2</title>
<g id="a_Node000002"><a xlink:title=" ">
<polygon fill="#e0e0e0" stroke="#999999" points="87.25,-20.75 0,-20.75 0,0 87.25,0 87.25,-20.75"/>
<text xml:space="preserve" text-anchor="middle" x="43.62" y="-7.25" font-family="Helvetica,sans-Serif" font-size="10.00">CoreMinimal.h</text>
</a>
</g>
</g>
<!-- Node1&#45;&gt;Node2 -->
<g id="edge1_Node000001_Node000002" class="edge">
<title>Node1&#45;&gt;Node2</title>
<g id="a_edge1_Node000001_Node000002"><a xlink:title=" ">
<path fill="none" stroke="#63b8ff" d="M835.06,-198.89C674.21,-198.31 268.72,-191.07 147.62,-134.25 101.84,-112.77 68.81,-60.25 53.39,-31.31"/>
<polygon fill="#63b8ff" stroke="#63b8ff" points="56.55,-29.82 48.88,-22.51 50.32,-33.01 56.55,-29.82"/>
</a>
</g>
</g>
<!-- Node3 -->
<g id="Node000003" class="node">
<title>Node3</title>
<g id="a_Node000003"><a xlink:title=" ">
<polygon fill="#e0e0e0" stroke="#999999" points="785.5,-20.75 651.75,-20.75 651.75,0 785.5,0 785.5,-20.75"/>
<text xml:space="preserve" text-anchor="middle" x="718.62" y="-7.25" font-family="Helvetica,sans-Serif" font-size="10.00">UObject/ObjectMacros.h</text>
</a>
</g>
</g>
<!-- Node1&#45;&gt;Node3 -->
<g id="edge2_Node000001_Node000003" class="edge">
<title>Node1&#45;&gt;Node3</title>
<g id="a_edge2_Node000001_Node000003"><a xlink:title=" ">
<path fill="none" stroke="#63b8ff" d="M957.78,-169.91C1006.05,-141.39 1062.9,-96.41 1028.62,-56.75 1013.65,-39.42 884.18,-25.25 797.36,-17.59"/>
<polygon fill="#63b8ff" stroke="#63b8ff" points="797.71,-14.1 787.45,-16.73 797.11,-21.08 797.71,-14.1"/>
</a>
</g>
</g>
<!-- Node4 -->
<g id="Node000004" class="node">
<title>Node4</title>
<g id="a_Node000004"><a xlink:title=" ">
<polygon fill="#e0e0e0" stroke="#999999" points="248,-20.75 105.25,-20.75 105.25,0 248,0 248,-20.75"/>
<text xml:space="preserve" text-anchor="middle" x="176.62" y="-7.25" font-family="Helvetica,sans-Serif" font-size="10.00">UObject/UObjectGlobals.h</text>
</a>
</g>
</g>
<!-- Node1&#45;&gt;Node4 -->
<g id="edge3_Node000001_Node000004" class="edge">
<title>Node1&#45;&gt;Node4</title>
<g id="a_edge3_Node000001_Node000004"><a xlink:title=" ">
<path fill="none" stroke="#63b8ff" d="M835.25,-199.25C660.67,-199.03 195.54,-187.87 100.62,-77.5 83.56,-57.66 112.41,-38.42 139.33,-25.86"/>
<polygon fill="#63b8ff" stroke="#63b8ff" points="140.72,-29.07 148.45,-21.83 137.89,-22.67 140.72,-29.07"/>
</a>
</g>
</g>
<!-- Node5 -->
<g id="Node000005" class="node">
<title>Node5</title>
<g id="a_Node000005"><a xlink:title=" ">
<polygon fill="#e0e0e0" stroke="#999999" points="1119.88,-20.75 1021.38,-20.75 1021.38,0 1119.88,0 1119.88,-20.75"/>
<text xml:space="preserve" text-anchor="middle" x="1070.62" y="-7.25" font-family="Helvetica,sans-Serif" font-size="10.00">UObject/Object.h</text>
</a>
</g>
</g>
<!-- Node1&#45;&gt;Node5 -->
<g id="edge4_Node000001_Node000005" class="edge">
<title>Node1&#45;&gt;Node5</title>
<g id="a_edge4_Node000001_Node000005"><a xlink:title=" ">
<path fill="none" stroke="#63b8ff" d="M967.95,-196.31C1013.06,-190.77 1069.78,-175.36 1099.62,-134.25 1119.86,-106.38 1109.29,-89.81 1099.62,-56.75 1096.85,-47.27 1091.43,-37.88 1086.01,-30.13"/>
<polygon fill="#63b8ff" stroke="#63b8ff" points="1088.85,-28.08 1080.03,-22.21 1083.27,-32.3 1088.85,-28.08"/>
</a>
</g>
</g>
<!-- Node6 -->
<g id="Node000006" class="node">
<title>Node6</title>
<g id="a_Node000006"><a xlink:href="EngineTypes_8h.html" target="_top" xlink:title=" ">
<polygon fill="white" stroke="#666666" points="779.5,-134.25 657.75,-134.25 657.75,-113.5 779.5,-113.5 779.5,-134.25"/>
<text xml:space="preserve" text-anchor="middle" x="718.62" y="-120.75" font-family="Helvetica,sans-Serif" font-size="10.00">Engine/EngineTypes.h</text>
</a>
</g>
</g>
<!-- Node1&#45;&gt;Node6 -->
<g id="edge5_Node000001_Node000006" class="edge">
<title>Node1&#45;&gt;Node6</title>
<g id="a_edge5_Node000001_Node000006"><a xlink:title=" ">
<path fill="none" stroke="#63b8ff" d="M835.04,-171.87C807.46,-160.74 776.62,-148.29 753.61,-139"/>
<polygon fill="#63b8ff" stroke="#63b8ff" points="754.98,-135.78 744.4,-135.28 752.36,-142.27 754.98,-135.78"/>
</a>
</g>
</g>
<!-- Node15 -->
<g id="Node000015" class="node">
<title>Node15</title>
<g id="a_Node000015"><a xlink:title=" ">
<polygon fill="#e0e0e0" stroke="#999999" points="1255.5,-134.25 1151.75,-134.25 1151.75,-113.5 1255.5,-113.5 1255.5,-134.25"/>
<text xml:space="preserve" text-anchor="middle" x="1203.62" y="-120.75" font-family="Helvetica,sans-Serif" font-size="10.00">Polys.generated.h</text>
</a>
</g>
</g>
<!-- Node1&#45;&gt;Node15 -->
<g id="edge20_Node000001_Node000015" class="edge">
<title>Node1&#45;&gt;Node15</title>
<g id="a_edge20_Node000001_Node000015"><a xlink:title=" ">
<path fill="none" stroke="#63b8ff" d="M967.9,-182.54C1023.43,-168.95 1101.56,-149.84 1152.39,-137.41"/>
<polygon fill="#63b8ff" stroke="#63b8ff" points="1153.08,-140.84 1161.96,-135.07 1151.42,-134.04 1153.08,-140.84"/>
</a>
</g>
</g>
<!-- Node6&#45;&gt;Node3 -->
<g id="edge7_Node000006_Node000003" class="edge">
<title>Node6&#45;&gt;Node3</title>
<g id="a_edge7_Node000006_Node000003"><a xlink:title=" ">
<path fill="none" stroke="#63b8ff" d="M718.62,-113.37C718.62,-95.6 718.62,-56.97 718.62,-32.68"/>
<polygon fill="#63b8ff" stroke="#63b8ff" points="722.13,-32.69 718.63,-22.69 715.13,-32.69 722.13,-32.69"/>
</a>
</g>
</g>
<!-- Node6&#45;&gt;Node5 -->
<g id="edge8_Node000006_Node000005" class="edge">
<title>Node6&#45;&gt;Node5</title>
<g id="a_edge8_Node000006_Node000005"><a xlink:title=" ">
<path fill="none" stroke="#63b8ff" d="M779.76,-119.92C858.12,-115.12 988.63,-103.43 1028.62,-77.5 1045.36,-66.65 1056.7,-46.54 1063.34,-31.33"/>
<polygon fill="#63b8ff" stroke="#63b8ff" points="1066.49,-32.88 1066.95,-22.3 1059.99,-30.29 1066.49,-32.88"/>
</a>
</g>
</g>
<!-- Node7 -->
<g id="Node000007" class="node">
<title>Node7</title>
<g id="a_Node000007"><a xlink:title=" ">
<polygon fill="#e0e0e0" stroke="#999999" points="579,-77.5 448.25,-77.5 448.25,-56.75 579,-56.75 579,-77.5"/>
<text xml:space="preserve" text-anchor="middle" x="513.62" y="-64" font-family="Helvetica,sans-Serif" font-size="10.00">Misc/EnumClassFlags.h</text>
</a>
</g>
</g>
<!-- Node6&#45;&gt;Node7 -->
<g id="edge6_Node000006_Node000007" class="edge">
<title>Node6&#45;&gt;Node7</title>
<g id="a_edge6_Node000006_Node000007"><a xlink:title=" ">
<path fill="none" stroke="#63b8ff" d="M681.98,-113.09C648.26,-104.08 598.07,-90.68 561.26,-80.85"/>
<polygon fill="#63b8ff" stroke="#63b8ff" points="562.33,-77.51 551.76,-78.31 560.52,-84.27 562.33,-77.51"/>
</a>
</g>
</g>
<!-- Node8 -->
<g id="Node000008" class="node">
<title>Node8</title>
<g id="a_Node000008"><a xlink:title=" ">
<polygon fill="#e0e0e0" stroke="#999999" points="690.25,-77.5 597,-77.5 597,-56.75 690.25,-56.75 690.25,-77.5"/>
<text xml:space="preserve" text-anchor="middle" x="643.62" y="-64" font-family="Helvetica,sans-Serif" font-size="10.00">UObject/Class.h</text>
</a>
</g>
</g>
<!-- Node6&#45;&gt;Node8 -->
<g id="edge9_Node000006_Node000008" class="edge">
<title>Node6&#45;&gt;Node8</title>
<g id="a_edge9_Node000006_Node000008"><a xlink:title=" ">
<path fill="none" stroke="#63b8ff" d="M705.22,-113.09C694.34,-105.15 678.77,-93.78 666.01,-84.46"/>
<polygon fill="#63b8ff" stroke="#63b8ff" points="668.28,-81.79 658.14,-78.72 664.15,-87.44 668.28,-81.79"/>
</a>
</g>
</g>
<!-- Node9 -->
<g id="Node000009" class="node">
<title>Node9</title>
<g id="a_Node000009"><a xlink:title=" ">
<polygon fill="#e0e0e0" stroke="#999999" points="878.38,-77.5 746.88,-77.5 746.88,-56.75 878.38,-56.75 878.38,-77.5"/>
<text xml:space="preserve" text-anchor="middle" x="812.62" y="-64" font-family="Helvetica,sans-Serif" font-size="10.00">Templates/SubclassOf.h</text>
</a>
</g>
</g>
<!-- Node6&#45;&gt;Node9 -->
<g id="edge10_Node000006_Node000009" class="edge">
<title>Node6&#45;&gt;Node9</title>
<g id="a_edge10_Node000006_Node000009"><a xlink:title=" ">
<path fill="none" stroke="#63b8ff" d="M735.43,-113.09C749.6,-104.83 770.12,-92.88 786.44,-83.38"/>
<polygon fill="#63b8ff" stroke="#63b8ff" points="787.78,-86.65 794.66,-78.59 784.25,-80.6 787.78,-86.65"/>
</a>
</g>
</g>
<!-- Node10 -->
<g id="Node000010" class="node">
<title>Node10</title>
<g id="a_Node000010"><a xlink:href="TimerHandle_8h.html" target="_top" xlink:title=" ">
<polygon fill="white" stroke="#666666" points="1019.25,-77.5 896,-77.5 896,-56.75 1019.25,-56.75 1019.25,-77.5"/>
<text xml:space="preserve" text-anchor="middle" x="957.62" y="-64" font-family="Helvetica,sans-Serif" font-size="10.00">Engine/TimerHandle.h</text>
</a>
</g>
</g>
<!-- Node6&#45;&gt;Node10 -->
<g id="edge11_Node000006_Node000010" class="edge">
<title>Node6&#45;&gt;Node10</title>
<g id="a_edge11_Node000006_Node000010"><a xlink:title=" ">
<path fill="none" stroke="#63b8ff" d="M761.63,-113.02C801.35,-103.92 860.54,-90.37 903.47,-80.53"/>
<polygon fill="#63b8ff" stroke="#63b8ff" points="904.12,-83.97 913.09,-78.33 902.56,-77.15 904.12,-83.97"/>
</a>
</g>
</g>
<!-- Node12 -->
<g id="Node000012" class="node">
<title>Node12</title>
<g id="a_Node000012"><a xlink:href="NaniteAssemblyData_8h.html" target="_top" xlink:title=" ">
<polygon fill="white" stroke="#666666" points="273.88,-77.5 109.38,-77.5 109.38,-56.75 273.88,-56.75 273.88,-77.5"/>
<text xml:space="preserve" text-anchor="middle" x="191.62" y="-64" font-family="Helvetica,sans-Serif" font-size="10.00">Engine/NaniteAssemblyData.h</text>
</a>
</g>
</g>
<!-- Node6&#45;&gt;Node12 -->
<g id="edge13_Node000006_Node000012" class="edge">
<title>Node6&#45;&gt;Node12</title>
<g id="a_edge13_Node000006_Node000012"><a xlink:title=" ">
<path fill="none" stroke="#63b8ff" d="M657.4,-116.51C565.84,-107 392.56,-89 285.11,-77.84"/>
<polygon fill="#63b8ff" stroke="#63b8ff" points="285.76,-74.39 275.46,-76.83 285.04,-81.35 285.76,-74.39"/>
</a>
</g>
</g>
<!-- Node14 -->
<g id="Node000014" class="node">
<title>Node14</title>
<g id="a_Node000014"><a xlink:title=" ">
<polygon fill="#e0e0e0" stroke="#999999" points="429.75,-77.5 291.5,-77.5 291.5,-56.75 429.75,-56.75 429.75,-77.5"/>
<text xml:space="preserve" text-anchor="middle" x="360.62" y="-64" font-family="Helvetica,sans-Serif" font-size="10.00">EngineTypes.generated.h</text>
</a>
</g>
</g>
<!-- Node6&#45;&gt;Node14 -->
<g id="edge19_Node000006_Node000014" class="edge">
<title>Node6&#45;&gt;Node14</title>
<g id="a_edge19_Node000006_Node000014"><a xlink:title=" ">
<path fill="none" stroke="#63b8ff" d="M657.49,-113.53C596.32,-104.17 502.1,-89.76 436.27,-79.69"/>
<polygon fill="#63b8ff" stroke="#63b8ff" points="437.05,-76.27 426.63,-78.22 435.99,-83.19 437.05,-76.27"/>
</a>
</g>
</g>
<!-- Node11 -->
<g id="Node000011" class="node">
<title>Node11</title>
<g id="a_Node000011"><a xlink:title=" ">
<polygon fill="#e0e0e0" stroke="#999999" points="1003.5,-20.75 863.75,-20.75 863.75,0 1003.5,0 1003.5,-20.75"/>
<text xml:space="preserve" text-anchor="middle" x="933.62" y="-7.25" font-family="Helvetica,sans-Serif" font-size="10.00">TimerHandle.generated.h</text>
</a>
</g>
</g>
<!-- Node10&#45;&gt;Node11 -->
<g id="edge12_Node000010_Node000011" class="edge">
<title>Node10&#45;&gt;Node11</title>
<g id="a_edge12_Node000010_Node000011"><a xlink:title=" ">
<path fill="none" stroke="#63b8ff" d="M953.33,-56.34C950.3,-49.41 946.12,-39.87 942.39,-31.36"/>
<polygon fill="#63b8ff" stroke="#63b8ff" points="945.71,-30.22 938.49,-22.46 939.3,-33.03 945.71,-30.22"/>
</a>
</g>
</g>
<!-- Node12&#45;&gt;Node2 -->
<g id="edge14_Node000012_Node000002" class="edge">
<title>Node12&#45;&gt;Node2</title>
<g id="a_edge14_Node000012_Node000002"><a xlink:title=" ">
<path fill="none" stroke="#63b8ff" d="M165.17,-56.34C141.59,-47.62 106.86,-34.77 80.56,-25.04"/>
<polygon fill="#63b8ff" stroke="#63b8ff" points="81.87,-21.79 71.27,-21.6 79.44,-28.36 81.87,-21.79"/>
</a>
</g>
</g>
<!-- Node12&#45;&gt;Node3 -->
<g id="edge15_Node000012_Node000003" class="edge">
<title>Node12&#45;&gt;Node3</title>
<g id="a_edge15_Node000012_Node000003"><a xlink:title=" ">
<path fill="none" stroke="#63b8ff" d="M274.26,-57.54C374.43,-47.13 542,-29.72 640.23,-19.52"/>
<polygon fill="#63b8ff" stroke="#63b8ff" points="640.47,-23.01 650.05,-18.5 639.74,-16.05 640.47,-23.01"/>
</a>
</g>
</g>
<!-- Node12&#45;&gt;Node4 -->
<g id="edge16_Node000012_Node000004" class="edge">
<title>Node12&#45;&gt;Node4</title>
<g id="a_edge16_Node000012_Node000004"><a xlink:title=" ">
<path fill="none" stroke="#63b8ff" d="M188.94,-56.34C187.09,-49.56 184.55,-40.3 182.26,-31.94"/>
<polygon fill="#63b8ff" stroke="#63b8ff" points="185.7,-31.26 179.68,-22.54 178.95,-33.11 185.7,-31.26"/>
</a>
</g>
</g>
<!-- Node12&#45;&gt;Node5 -->
<g id="edge17_Node000012_Node000005" class="edge">
<title>Node12&#45;&gt;Node5</title>
<g id="a_edge17_Node000012_Node000005"><a xlink:title=" ">
<path fill="none" stroke="#63b8ff" d="M273.95,-57.45C276.87,-57.2 279.77,-56.97 282.62,-56.75 602.89,-32.37 687.67,-54.22 1009.93,-20.92"/>
<polygon fill="#63b8ff" stroke="#63b8ff" points="1009.91,-24.44 1019.49,-19.92 1009.18,-17.48 1009.91,-24.44"/>
</a>
</g>
</g>
<!-- Node13 -->
<g id="Node000013" class="node">
<title>Node13</title>
<g id="a_Node000013"><a xlink:title=" ">
<polygon fill="#e0e0e0" stroke="#999999" points="447.12,-20.75 266.12,-20.75 266.12,0 447.12,0 447.12,-20.75"/>
<text xml:space="preserve" text-anchor="middle" x="356.62" y="-7.25" font-family="Helvetica,sans-Serif" font-size="10.00">NaniteAssemblyData.generated.h</text>
</a>
</g>
</g>
<!-- Node12&#45;&gt;Node13 -->
<g id="edge18_Node000012_Node000013" class="edge">
<title>Node12&#45;&gt;Node13</title>
<g id="a_edge18_Node000012_Node000013"><a xlink:title=" ">
<path fill="none" stroke="#63b8ff" d="M221.12,-56.34C247.67,-47.53 286.92,-34.5 316.35,-24.74"/>
<polygon fill="#63b8ff" stroke="#63b8ff" points="317.28,-28.12 325.67,-21.65 315.07,-21.47 317.28,-28.12"/>
</a>
</g>
</g>
</g>
</svg>
