<?xml version="1.0" encoding="UTF-8" standalone="no"?>
<!DOCTYPE svg PUBLIC "-//W3C//DTD SVG 1.1//EN"
 "http://www.w3.org/Graphics/SVG/1.1/DTD/svg11.dtd">
<!-- Generated by graphviz version 14.1.4 (0)
 -->
<!-- Title: /opt/unreal&#45;engine/Engine/Source/Runtime/Core/Public/HAL/PThreadsRecursiveMutex.h Pages: 1 -->
<svg width="706pt" height="257pt"
 viewBox="0.00 0.00 706.00 257.00" xmlns="http://www.w3.org/2000/svg" xmlns:xlink="http://www.w3.org/1999/xlink">
<g id="graph0" class="graph" transform="scale(1 1) rotate(0) translate(4 253)">
<title>/opt/unreal&#45;engine/Engine/Source/Runtime/Core/Public/HAL/PThreadsRecursiveMutex.h</title>
<!-- Node1 -->
<g id="Node000001" class="node">
<title>Node1</title>
<g id="a_Node000001"><a xlink:title=" ">
<polygon fill="#999999" stroke="#666666" points="434.5,-249 242.25,-249 242.25,-190 434.5,-190 434.5,-249"/>
<text xml:space="preserve" text-anchor="start" x="250.25" y="-235.5" font-family="Helvetica,sans-Serif" font-size="10.00">/opt/unreal&#45;engine</text>
<text xml:space="preserve" text-anchor="start" x="250.25" y="-222.75" font-family="Helvetica,sans-Serif" font-size="10.00">/Engine/Source/Runtime</text>
<text xml:space="preserve" text-anchor="start" x="250.25" y="-210" font-family="Helvetica,sans-Serif" font-size="10.00">/Core/Public/HAL/PThreadsRecursive</text>
<text xml:space="preserve" text-anchor="middle" x="338.38" y="-197.25" font-family="Helvetica,sans-Serif" font-size="10.00">Mutex.h</text>
</a>
</g>
</g>
<!-- Node2 -->
<g id="Node000002" class="node">
<title>Node2</title>
<g id="a_Node000002"><a xlink:href="$AndroidPlatformMutex_8h.html" xlink:title=" ">
<polygon fill="white" stroke="#666666" points="154.75,-154 0,-154 0,-95 154.75,-95 154.75,-154"/>
<text xml:space="preserve" text-anchor="start" x="8" y="-140.5" font-family="Helvetica,sans-Serif" font-size="10.00">/opt/unreal&#45;engine</text>
<text xml:space="preserve" text-anchor="start" x="8" y="-127.75" font-family="Helvetica,sans-Serif" font-size="10.00">/Engine/Source/Runtime</text>
<text xml:space="preserve" text-anchor="start" x="8" y="-115" font-family="Helvetica,sans-Serif" font-size="10.00">/Core/Public/Android/Android</text>
<text xml:space="preserve" text-anchor="middle" x="77.38" y="-102.25" font-family="Helvetica,sans-Serif" font-size="10.00">PlatformMutex.h</text>
</a>
</g>
</g>
<!-- Node1&#45;&gt;Node2 -->
<g id="edge1_Node000001_Node000002" class="edge">
<title>Node1&#45;&gt;Node2</title>
<g id="a_edge1_Node000001_Node000002"><a xlink:title=" ">
<path fill="none" stroke="#63b8ff" d="M246.75,-185.85C216.76,-175.17 183.75,-163.4 154.91,-153.13"/>
<polygon fill="#63b8ff" stroke="#63b8ff" points="245.2,-189.02 255.8,-189.08 247.55,-182.42 245.2,-189.02"/>
</a>
</g>
</g>
<!-- Node3 -->
<g id="Node000003" class="node">
<title>Node3</title>
<g id="a_Node000003"><a xlink:href="$IOSPlatformMutex_8h.html" xlink:title=" ">
<polygon fill="white" stroke="#666666" points="327.75,-154 173,-154 173,-95 327.75,-95 327.75,-154"/>
<text xml:space="preserve" text-anchor="start" x="181" y="-140.5" font-family="Helvetica,sans-Serif" font-size="10.00">/opt/unreal&#45;engine</text>
<text xml:space="preserve" text-anchor="start" x="181" y="-127.75" font-family="Helvetica,sans-Serif" font-size="10.00">/Engine/Source/Runtime</text>
<text xml:space="preserve" text-anchor="start" x="181" y="-115" font-family="Helvetica,sans-Serif" font-size="10.00">/Core/Public/IOS/IOSPlatform</text>
<text xml:space="preserve" text-anchor="middle" x="250.38" y="-102.25" font-family="Helvetica,sans-Serif" font-size="10.00">Mutex.h</text>
</a>
</g>
</g>
<!-- Node1&#45;&gt;Node3 -->
<g id="edge2_Node000001_Node000003" class="edge">
<title>Node1&#45;&gt;Node3</title>
<g id="a_edge2_Node000001_Node000003"><a xlink:title=" ">
<path fill="none" stroke="#63b8ff" d="M303.35,-181.49C294.83,-172.48 285.83,-162.97 277.72,-154.4"/>
<polygon fill="#63b8ff" stroke="#63b8ff" points="300.56,-183.63 309.97,-188.48 305.64,-178.82 300.56,-183.63"/>
</a>
</g>
</g>
<!-- Node4 -->
<g id="Node000004" class="node">
<title>Node4</title>
<g id="a_Node000004"><a xlink:href="$MacPlatformMutex_8h.html" xlink:title=" ">
<polygon fill="white" stroke="#666666" points="508.5,-154 346.25,-154 346.25,-95 508.5,-95 508.5,-154"/>
<text xml:space="preserve" text-anchor="start" x="354.25" y="-140.5" font-family="Helvetica,sans-Serif" font-size="10.00">/opt/unreal&#45;engine</text>
<text xml:space="preserve" text-anchor="start" x="354.25" y="-127.75" font-family="Helvetica,sans-Serif" font-size="10.00">/Engine/Source/Runtime</text>
<text xml:space="preserve" text-anchor="start" x="354.25" y="-115" font-family="Helvetica,sans-Serif" font-size="10.00">/Core/Public/Mac/MacPlatform</text>
<text xml:space="preserve" text-anchor="middle" x="427.38" y="-102.25" font-family="Helvetica,sans-Serif" font-size="10.00">Mutex.h</text>
</a>
</g>
</g>
<!-- Node1&#45;&gt;Node4 -->
<g id="edge3_Node000001_Node000004" class="edge">
<title>Node1&#45;&gt;Node4</title>
<g id="a_edge3_Node000001_Node000004"><a xlink:title=" ">
<path fill="none" stroke="#63b8ff" d="M373.79,-181.49C382.42,-172.48 391.52,-162.97 399.72,-154.4"/>
<polygon fill="#63b8ff" stroke="#63b8ff" points="371.48,-178.85 367.09,-188.49 376.54,-183.69 371.48,-178.85"/>
</a>
</g>
</g>
<!-- Node5 -->
<g id="Node000005" class="node">
<title>Node5</title>
<g id="a_Node000005"><a xlink:href="$UnixPlatformMutex_8h.html" xlink:title=" ">
<polygon fill="white" stroke="#666666" points="693.75,-154 527,-154 527,-95 693.75,-95 693.75,-154"/>
<text xml:space="preserve" text-anchor="start" x="535" y="-140.5" font-family="Helvetica,sans-Serif" font-size="10.00">/opt/unreal&#45;engine</text>
<text xml:space="preserve" text-anchor="start" x="535" y="-127.75" font-family="Helvetica,sans-Serif" font-size="10.00">/Engine/Source/Runtime</text>
<text xml:space="preserve" text-anchor="start" x="535" y="-115" font-family="Helvetica,sans-Serif" font-size="10.00">/Core/Public/Unix/UnixPlatform</text>
<text xml:space="preserve" text-anchor="middle" x="610.38" y="-102.25" font-family="Helvetica,sans-Serif" font-size="10.00">Mutex.h</text>
</a>
</g>
</g>
<!-- Node1&#45;&gt;Node5 -->
<g id="edge4_Node000001_Node000005" class="edge">
<title>Node1&#45;&gt;Node5</title>
<g id="a_edge4_Node000001_Node000005"><a xlink:title=" ">
<path fill="none" stroke="#63b8ff" d="M433.55,-185.96C463.93,-175.57 497.3,-164.16 526.79,-154.08"/>
<polygon fill="#63b8ff" stroke="#63b8ff" points="432.71,-182.55 424.38,-189.09 434.97,-189.17 432.71,-182.55"/>
</a>
</g>
</g>
<!-- Node6 -->
<g id="Node000006" class="node">
<title>Node6</title>
<g id="a_Node000006"><a xlink:href="$LinuxPlatformMutex_8h.html" xlink:title=" ">
<polygon fill="white" stroke="#666666" points="697.5,-59 523.25,-59 523.25,0 697.5,0 697.5,-59"/>
<text xml:space="preserve" text-anchor="start" x="531.25" y="-45.5" font-family="Helvetica,sans-Serif" font-size="10.00">/opt/unreal&#45;engine</text>
<text xml:space="preserve" text-anchor="start" x="531.25" y="-32.75" font-family="Helvetica,sans-Serif" font-size="10.00">/Engine/Source/Runtime</text>
<text xml:space="preserve" text-anchor="start" x="531.25" y="-20" font-family="Helvetica,sans-Serif" font-size="10.00">/Core/Public/Linux/LinuxPlatform</text>
<text xml:space="preserve" text-anchor="middle" x="610.38" y="-7.25" font-family="Helvetica,sans-Serif" font-size="10.00">Mutex.h</text>
</a>
</g>
</g>
<!-- Node5&#45;&gt;Node6 -->
<g id="edge5_Node000005_Node000006" class="edge">
<title>Node5&#45;&gt;Node6</title>
<g id="a_edge5_Node000005_Node000006"><a xlink:title=" ">
<path fill="none" stroke="#63b8ff" d="M610.38,-83.16C610.38,-75.16 610.38,-66.92 610.38,-59.4"/>
<polygon fill="#63b8ff" stroke="#63b8ff" points="606.88,-83.07 610.38,-93.07 613.88,-83.07 606.88,-83.07"/>
</a>
</g>
</g>
</g>
</svg>
