<?xml version="1.0" encoding="UTF-8" standalone="no"?>
<!DOCTYPE svg PUBLIC "-//W3C//DTD SVG 1.1//EN"
 "http://www.w3.org/Graphics/SVG/1.1/DTD/svg11.dtd">
<!-- Generated by graphviz version 14.1.4 (0)
 -->
<!-- Title: /opt/unreal&#45;engine/Engine/Source/Runtime/Engine/Classes/Engine/RendererSettings.h Pages: 1 -->
<svg width="2424pt" height="294pt"
 viewBox="0.00 0.00 2424.00 294.00" xmlns="http://www.w3.org/2000/svg" xmlns:xlink="http://www.w3.org/1999/xlink">
<g id="graph0" class="graph" transform="scale(1 1) rotate(0) translate(4 290)">
<title>/opt/unreal&#45;engine/Engine/Source/Runtime/Engine/Classes/Engine/RendererSettings.h</title>
<!-- Node1 -->
<g id="Node000001" class="node">
<title>Node1</title>
<g id="a_Node000001"><a xlink:title=" ">
<polygon fill="#999999" stroke="#666666" points="1738.75,-286 1606.5,-286 1606.5,-227 1738.75,-227 1738.75,-286"/>
<text xml:space="preserve" text-anchor="start" x="1614.5" y="-272.5" font-family="Helvetica,sans-Serif" font-size="10.00">/opt/unreal&#45;engine</text>
<text xml:space="preserve" text-anchor="start" x="1614.5" y="-259.75" font-family="Helvetica,sans-Serif" font-size="10.00">/Engine/Source/Runtime</text>
<text xml:space="preserve" text-anchor="start" x="1614.5" y="-247" font-family="Helvetica,sans-Serif" font-size="10.00">/Engine/Classes/Engine</text>
<text xml:space="preserve" text-anchor="middle" x="1672.62" y="-234.25" font-family="Helvetica,sans-Serif" font-size="10.00">/RendererSettings.h</text>
</a>
</g>
</g>
<!-- Node2 -->
<g id="Node000002" class="node">
<title>Node2</title>
<g id="a_Node000002"><a xlink:title=" ">
<polygon fill="#e0e0e0" stroke="#999999" points="87.25,-20.75 0,-20.75 0,0 87.25,0 87.25,-20.75"/>
<text xml:space="preserve" text-anchor="middle" x="43.62" y="-7.25" font-family="Helvetica,sans-Serif" font-size="10.00">CoreMinimal.h</text>
</a>
</g>
</g>
<!-- Node1&#45;&gt;Node2 -->
<g id="edge1_Node000001_Node000002" class="edge">
<title>Node1&#45;&gt;Node2</title>
<g id="a_edge1_Node000001_Node000002"><a xlink:title=" ">
<path fill="none" stroke="#63b8ff" d="M1606.14,-248.78C1493.87,-237.35 1259.58,-213.24 1061.62,-191 637.74,-143.39 491.54,-265.43 108.62,-77.5 86.81,-66.79 68.13,-45.73 56.46,-30.24"/>
<polygon fill="#63b8ff" stroke="#63b8ff" points="59.41,-28.34 50.73,-22.26 53.72,-32.42 59.41,-28.34"/>
</a>
</g>
</g>
<!-- Node3 -->
<g id="Node000003" class="node">
<title>Node3</title>
<g id="a_Node000003"><a xlink:title=" ">
<polygon fill="#e0e0e0" stroke="#999999" points="1522.5,-20.75 1388.75,-20.75 1388.75,0 1522.5,0 1522.5,-20.75"/>
<text xml:space="preserve" text-anchor="middle" x="1455.62" y="-7.25" font-family="Helvetica,sans-Serif" font-size="10.00">UObject/ObjectMacros.h</text>
</a>
</g>
</g>
<!-- Node1&#45;&gt;Node3 -->
<g id="edge2_Node000001_Node000003" class="edge">
<title>Node1&#45;&gt;Node3</title>
<g id="a_edge2_Node000001_Node000003"><a xlink:title=" ">
<path fill="none" stroke="#63b8ff" d="M1627.59,-226.65C1613.96,-216.49 1599.7,-204.27 1588.62,-191 1545.65,-139.49 1563.58,-107.43 1519.62,-56.75 1509.52,-45.09 1495.82,-34.87 1483.69,-27.09"/>
<polygon fill="#63b8ff" stroke="#63b8ff" points="1485.64,-24.18 1475.28,-21.94 1481.99,-30.15 1485.64,-24.18"/>
</a>
</g>
</g>
<!-- Node4 -->
<g id="Node000004" class="node">
<title>Node4</title>
<g id="a_Node000004"><a xlink:href="EngineTypes_8h.html" target="_top" xlink:title=" ">
<polygon fill="white" stroke="#666666" points="862.5,-134.25 740.75,-134.25 740.75,-113.5 862.5,-113.5 862.5,-134.25"/>
<text xml:space="preserve" text-anchor="middle" x="801.62" y="-120.75" font-family="Helvetica,sans-Serif" font-size="10.00">Engine/EngineTypes.h</text>
</a>
</g>
</g>
<!-- Node1&#45;&gt;Node4 -->
<g id="edge3_Node000001_Node000004" class="edge">
<title>Node1&#45;&gt;Node4</title>
<g id="a_edge3_Node000001_Node000004"><a xlink:title=" ">
<path fill="none" stroke="#63b8ff" d="M1606.17,-247.19C1513.91,-235.51 1341.87,-213.15 1195.62,-191 1080.26,-173.52 946.38,-150.46 868.13,-136.7"/>
<polygon fill="#63b8ff" stroke="#63b8ff" points="868.94,-133.29 858.49,-135 867.73,-140.18 868.94,-133.29"/>
</a>
</g>
</g>
<!-- Node15 -->
<g id="Node000015" class="node">
<title>Node15</title>
<g id="a_Node000015"><a xlink:href="Scene_8h.html" target="_top" xlink:title=" ">
<polygon fill="white" stroke="#666666" points="1294.75,-191 1204.5,-191 1204.5,-170.25 1294.75,-170.25 1294.75,-191"/>
<text xml:space="preserve" text-anchor="middle" x="1249.62" y="-177.5" font-family="Helvetica,sans-Serif" font-size="10.00">Engine/Scene.h</text>
</a>
</g>
</g>
<!-- Node1&#45;&gt;Node15 -->
<g id="edge18_Node000001_Node000015" class="edge">
<title>Node1&#45;&gt;Node15</title>
<g id="a_edge18_Node000001_Node000015"><a xlink:title=" ">
<path fill="none" stroke="#63b8ff" d="M1606.07,-243.88C1523.35,-229.43 1383.65,-205.03 1305.98,-191.47"/>
<polygon fill="#63b8ff" stroke="#63b8ff" points="1306.93,-188.08 1296.48,-189.81 1305.72,-194.98 1306.93,-188.08"/>
</a>
</g>
</g>
<!-- Node22 -->
<g id="Node000022" class="node">
<title>Node22</title>
<g id="a_Node000022"><a xlink:title=" ">
<polygon fill="#e0e0e0" stroke="#999999" points="1748.12,-191 1597.12,-191 1597.12,-170.25 1748.12,-170.25 1748.12,-191"/>
<text xml:space="preserve" text-anchor="middle" x="1672.62" y="-177.5" font-family="Helvetica,sans-Serif" font-size="10.00">Engine/DeveloperSettings.h</text>
</a>
</g>
</g>
<!-- Node1&#45;&gt;Node22 -->
<g id="edge29_Node000001_Node000022" class="edge">
<title>Node1&#45;&gt;Node22</title>
<g id="a_edge29_Node000001_Node000022"><a xlink:title=" ">
<path fill="none" stroke="#63b8ff" d="M1672.62,-226.73C1672.62,-218.73 1672.62,-210.2 1672.62,-202.74"/>
<polygon fill="#63b8ff" stroke="#63b8ff" points="1676.13,-202.97 1672.63,-192.97 1669.13,-202.97 1676.13,-202.97"/>
</a>
</g>
</g>
<!-- Node23 -->
<g id="Node000023" class="node">
<title>Node23</title>
<g id="a_Node000023"><a xlink:title=" ">
<polygon fill="#e0e0e0" stroke="#999999" points="1849.38,-191 1765.88,-191 1765.88,-170.25 1849.38,-170.25 1849.38,-191"/>
<text xml:space="preserve" text-anchor="middle" x="1807.62" y="-177.5" font-family="Helvetica,sans-Serif" font-size="10.00">PixelFormat.h</text>
</a>
</g>
</g>
<!-- Node1&#45;&gt;Node23 -->
<g id="edge30_Node000001_Node000023" class="edge">
<title>Node1&#45;&gt;Node23</title>
<g id="a_edge30_Node000001_Node000023"><a xlink:title=" ">
<path fill="none" stroke="#63b8ff" d="M1725.59,-226.51C1744.08,-216.4 1764.09,-205.45 1779.72,-196.89"/>
<polygon fill="#63b8ff" stroke="#63b8ff" points="1781.35,-199.99 1788.44,-192.12 1777.99,-193.85 1781.35,-199.99"/>
</a>
</g>
</g>
<!-- Node24 -->
<g id="Node000024" class="node">
<title>Node24</title>
<g id="a_Node000024"><a xlink:title=" ">
<polygon fill="#e0e0e0" stroke="#999999" points="2041.75,-191 1867.5,-191 1867.5,-170.25 2041.75,-170.25 2041.75,-191"/>
<text xml:space="preserve" text-anchor="middle" x="1954.62" y="-177.5" font-family="Helvetica,sans-Serif" font-size="10.00">UObject/PerPlatformProperties.h</text>
</a>
</g>
</g>
<!-- Node1&#45;&gt;Node24 -->
<g id="edge31_Node000001_Node000024" class="edge">
<title>Node1&#45;&gt;Node24</title>
<g id="a_edge31_Node000001_Node000024"><a xlink:title=" ">
<path fill="none" stroke="#63b8ff" d="M1739.1,-238.09C1790.4,-224.65 1860.16,-206.37 1906.25,-194.3"/>
<polygon fill="#63b8ff" stroke="#63b8ff" points="1906.89,-197.75 1915.68,-191.83 1905.12,-190.98 1906.89,-197.75"/>
</a>
</g>
</g>
<!-- Node25 -->
<g id="Node000025" class="node">
<title>Node25</title>
<g id="a_Node000025"><a xlink:title=" ">
<polygon fill="#e0e0e0" stroke="#999999" points="2237.25,-191 2060,-191 2060,-170.25 2237.25,-170.25 2237.25,-191"/>
<text xml:space="preserve" text-anchor="middle" x="2148.62" y="-177.5" font-family="Helvetica,sans-Serif" font-size="10.00">LegacyScreenPercentageDriver.h</text>
</a>
</g>
</g>
<!-- Node1&#45;&gt;Node25 -->
<g id="edge32_Node000001_Node000025" class="edge">
<title>Node1&#45;&gt;Node25</title>
<g id="a_edge32_Node000001_Node000025"><a xlink:title=" ">
<path fill="none" stroke="#63b8ff" d="M1739.06,-245.19C1827.17,-231.52 1982.22,-207.45 2074.18,-193.18"/>
<polygon fill="#63b8ff" stroke="#63b8ff" points="2074.51,-196.67 2083.86,-191.68 2073.44,-189.75 2074.51,-196.67"/>
</a>
</g>
</g>
<!-- Node26 -->
<g id="Node000026" class="node">
<title>Node26</title>
<g id="a_Node000026"><a xlink:title=" ">
<polygon fill="#e0e0e0" stroke="#999999" points="2416.38,-191 2254.88,-191 2254.88,-170.25 2416.38,-170.25 2416.38,-191"/>
<text xml:space="preserve" text-anchor="middle" x="2335.62" y="-177.5" font-family="Helvetica,sans-Serif" font-size="10.00">RendererSettings.generated.h</text>
</a>
</g>
</g>
<!-- Node1&#45;&gt;Node26 -->
<g id="edge33_Node000001_Node000026" class="edge">
<title>Node1&#45;&gt;Node26</title>
<g id="a_edge33_Node000001_Node000026"><a xlink:title=" ">
<path fill="none" stroke="#63b8ff" d="M1739.23,-248.08C1858.29,-234.81 2107.78,-207.01 2243.29,-191.91"/>
<polygon fill="#63b8ff" stroke="#63b8ff" points="2243.38,-195.42 2252.93,-190.84 2242.61,-188.47 2243.38,-195.42"/>
</a>
</g>
</g>
<!-- Node4&#45;&gt;Node3 -->
<g id="edge5_Node000004_Node000003" class="edge">
<title>Node4&#45;&gt;Node3</title>
<g id="a_edge5_Node000004_Node000003"><a xlink:title=" ">
<path fill="none" stroke="#63b8ff" d="M862.08,-113C911.41,-104.61 982.82,-91.68 1044.62,-77.5 1078.75,-69.67 1086.31,-63.73 1120.62,-56.75 1207.79,-39.03 1309.17,-26.39 1377.38,-19.02"/>
<polygon fill="#63b8ff" stroke="#63b8ff" points="1377.37,-22.54 1386.95,-18 1376.63,-15.58 1377.37,-22.54"/>
</a>
</g>
</g>
<!-- Node5 -->
<g id="Node000005" class="node">
<title>Node5</title>
<g id="a_Node000005"><a xlink:title=" ">
<polygon fill="#e0e0e0" stroke="#999999" points="775,-77.5 644.25,-77.5 644.25,-56.75 775,-56.75 775,-77.5"/>
<text xml:space="preserve" text-anchor="middle" x="709.62" y="-64" font-family="Helvetica,sans-Serif" font-size="10.00">Misc/EnumClassFlags.h</text>
</a>
</g>
</g>
<!-- Node4&#45;&gt;Node5 -->
<g id="edge4_Node000004_Node000005" class="edge">
<title>Node4&#45;&gt;Node5</title>
<g id="a_edge4_Node000004_Node000005"><a xlink:title=" ">
<path fill="none" stroke="#63b8ff" d="M785.18,-113.09C771.44,-104.91 751.61,-93.11 735.71,-83.65"/>
<polygon fill="#63b8ff" stroke="#63b8ff" points="737.61,-80.71 727.23,-78.6 734.03,-86.72 737.61,-80.71"/>
</a>
</g>
</g>
<!-- Node6 -->
<g id="Node000006" class="node">
<title>Node6</title>
<g id="a_Node000006"><a xlink:title=" ">
<polygon fill="#e0e0e0" stroke="#999999" points="721.88,-20.75 623.38,-20.75 623.38,0 721.88,0 721.88,-20.75"/>
<text xml:space="preserve" text-anchor="middle" x="672.62" y="-7.25" font-family="Helvetica,sans-Serif" font-size="10.00">UObject/Object.h</text>
</a>
</g>
</g>
<!-- Node4&#45;&gt;Node6 -->
<g id="edge6_Node000004_Node000006" class="edge">
<title>Node4&#45;&gt;Node6</title>
<g id="a_edge6_Node000004_Node000006"><a xlink:title=" ">
<path fill="none" stroke="#63b8ff" d="M740.56,-123.41C656.54,-122.69 511.88,-115.75 478.62,-77.5 472.57,-70.54 472.89,-63.98 478.62,-56.75 487.08,-46.09 558.4,-31.4 612.13,-21.65"/>
<polygon fill="#63b8ff" stroke="#63b8ff" points="612.58,-25.13 621.81,-19.92 611.35,-18.24 612.58,-25.13"/>
</a>
</g>
</g>
<!-- Node7 -->
<g id="Node000007" class="node">
<title>Node7</title>
<g id="a_Node000007"><a xlink:title=" ">
<polygon fill="#e0e0e0" stroke="#999999" points="886.25,-77.5 793,-77.5 793,-56.75 886.25,-56.75 886.25,-77.5"/>
<text xml:space="preserve" text-anchor="middle" x="839.62" y="-64" font-family="Helvetica,sans-Serif" font-size="10.00">UObject/Class.h</text>
</a>
</g>
</g>
<!-- Node4&#45;&gt;Node7 -->
<g id="edge7_Node000004_Node000007" class="edge">
<title>Node4&#45;&gt;Node7</title>
<g id="a_edge7_Node000004_Node000007"><a xlink:title=" ">
<path fill="none" stroke="#63b8ff" d="M808.42,-113.09C813.39,-105.92 820.29,-95.98 826.35,-87.26"/>
<polygon fill="#63b8ff" stroke="#63b8ff" points="829.2,-89.28 832.03,-79.07 823.45,-85.29 829.2,-89.28"/>
</a>
</g>
</g>
<!-- Node8 -->
<g id="Node000008" class="node">
<title>Node8</title>
<g id="a_Node000008"><a xlink:title=" ">
<polygon fill="#e0e0e0" stroke="#999999" points="1035.38,-77.5 903.88,-77.5 903.88,-56.75 1035.38,-56.75 1035.38,-77.5"/>
<text xml:space="preserve" text-anchor="middle" x="969.62" y="-64" font-family="Helvetica,sans-Serif" font-size="10.00">Templates/SubclassOf.h</text>
</a>
</g>
</g>
<!-- Node4&#45;&gt;Node8 -->
<g id="edge8_Node000004_Node000008" class="edge">
<title>Node4&#45;&gt;Node8</title>
<g id="a_edge8_Node000004_Node000008"><a xlink:title=" ">
<path fill="none" stroke="#63b8ff" d="M831.66,-113.09C858.81,-104.24 899.01,-91.14 929.01,-81.36"/>
<polygon fill="#63b8ff" stroke="#63b8ff" points="929.7,-84.82 938.13,-78.39 927.54,-78.16 929.7,-84.82"/>
</a>
</g>
</g>
<!-- Node9 -->
<g id="Node000009" class="node">
<title>Node9</title>
<g id="a_Node000009"><a xlink:href="TimerHandle_8h.html" target="_top" xlink:title=" ">
<polygon fill="white" stroke="#666666" points="241.25,-77.5 118,-77.5 118,-56.75 241.25,-56.75 241.25,-77.5"/>
<text xml:space="preserve" text-anchor="middle" x="179.62" y="-64" font-family="Helvetica,sans-Serif" font-size="10.00">Engine/TimerHandle.h</text>
</a>
</g>
</g>
<!-- Node4&#45;&gt;Node9 -->
<g id="edge9_Node000004_Node000009" class="edge">
<title>Node4&#45;&gt;Node9</title>
<g id="a_edge9_Node000004_Node000009"><a xlink:title=" ">
<path fill="none" stroke="#63b8ff" d="M740.49,-118.46C639.89,-111.05 433.22,-95.15 258.62,-77.5 256.74,-77.31 254.82,-77.11 252.89,-76.91"/>
<polygon fill="#63b8ff" stroke="#63b8ff" points="253.53,-73.46 243.21,-75.86 252.77,-80.42 253.53,-73.46"/>
</a>
</g>
</g>
<!-- Node11 -->
<g id="Node000011" class="node">
<title>Node11</title>
<g id="a_Node000011"><a xlink:href="NaniteAssemblyData_8h.html" target="_top" xlink:title=" ">
<polygon fill="white" stroke="#666666" points="431.88,-77.5 267.38,-77.5 267.38,-56.75 431.88,-56.75 431.88,-77.5"/>
<text xml:space="preserve" text-anchor="middle" x="349.62" y="-64" font-family="Helvetica,sans-Serif" font-size="10.00">Engine/NaniteAssemblyData.h</text>
</a>
</g>
</g>
<!-- Node4&#45;&gt;Node11 -->
<g id="edge11_Node000004_Node000011" class="edge">
<title>Node4&#45;&gt;Node11</title>
<g id="a_edge11_Node000004_Node000011"><a xlink:title=" ">
<path fill="none" stroke="#63b8ff" d="M740.67,-115.49C663.95,-106.2 531.43,-90.15 442.18,-79.34"/>
<polygon fill="#63b8ff" stroke="#63b8ff" points="442.82,-75.89 432.47,-78.16 441.98,-82.84 442.82,-75.89"/>
</a>
</g>
</g>
<!-- Node14 -->
<g id="Node000014" class="node">
<title>Node14</title>
<g id="a_Node000014"><a xlink:title=" ">
<polygon fill="#e0e0e0" stroke="#999999" points="625.75,-77.5 487.5,-77.5 487.5,-56.75 625.75,-56.75 625.75,-77.5"/>
<text xml:space="preserve" text-anchor="middle" x="556.62" y="-64" font-family="Helvetica,sans-Serif" font-size="10.00">EngineTypes.generated.h</text>
</a>
</g>
</g>
<!-- Node4&#45;&gt;Node14 -->
<g id="edge17_Node000004_Node000014" class="edge">
<title>Node4&#45;&gt;Node14</title>
<g id="a_edge17_Node000004_Node000014"><a xlink:title=" ">
<path fill="none" stroke="#63b8ff" d="M757.54,-113.02C716.73,-103.9 655.89,-90.31 611.86,-80.47"/>
<polygon fill="#63b8ff" stroke="#63b8ff" points="612.77,-77.08 602.24,-78.32 611.24,-83.92 612.77,-77.08"/>
</a>
</g>
</g>
<!-- Node10 -->
<g id="Node000010" class="node">
<title>Node10</title>
<g id="a_Node000010"><a xlink:title=" ">
<polygon fill="#e0e0e0" stroke="#999999" points="245.5,-20.75 105.75,-20.75 105.75,0 245.5,0 245.5,-20.75"/>
<text xml:space="preserve" text-anchor="middle" x="175.62" y="-7.25" font-family="Helvetica,sans-Serif" font-size="10.00">TimerHandle.generated.h</text>
</a>
</g>
</g>
<!-- Node9&#45;&gt;Node10 -->
<g id="edge10_Node000009_Node000010" class="edge">
<title>Node9&#45;&gt;Node10</title>
<g id="a_edge10_Node000009_Node000010"><a xlink:title=" ">
<path fill="none" stroke="#63b8ff" d="M178.91,-56.34C178.43,-49.72 177.77,-40.72 177.17,-32.52"/>
<polygon fill="#63b8ff" stroke="#63b8ff" points="180.66,-32.31 176.44,-22.59 173.68,-32.82 180.66,-32.31"/>
</a>
</g>
</g>
<!-- Node11&#45;&gt;Node2 -->
<g id="edge12_Node000011_Node000002" class="edge">
<title>Node11&#45;&gt;Node2</title>
<g id="a_edge12_Node000011_Node000002"><a xlink:title=" ">
<path fill="none" stroke="#63b8ff" d="M294.56,-56.27C239.03,-46.34 153.79,-31.09 98.36,-21.17"/>
<polygon fill="#63b8ff" stroke="#63b8ff" points="99.3,-17.78 88.84,-19.47 98.07,-24.67 99.3,-17.78"/>
</a>
</g>
</g>
<!-- Node11&#45;&gt;Node3 -->
<g id="edge13_Node000011_Node000003" class="edge">
<title>Node11&#45;&gt;Node3</title>
<g id="a_edge13_Node000011_Node000003"><a xlink:title=" ">
<path fill="none" stroke="#63b8ff" d="M432.18,-59.8C447.61,-58.71 463.61,-57.64 478.62,-56.75 812.7,-36.86 1211.49,-20.7 1377.31,-14.32"/>
<polygon fill="#63b8ff" stroke="#63b8ff" points="1377,-17.83 1386.86,-13.95 1376.73,-10.84 1377,-17.83"/>
</a>
</g>
</g>
<!-- Node11&#45;&gt;Node6 -->
<g id="edge15_Node000011_Node000006" class="edge">
<title>Node11&#45;&gt;Node6</title>
<g id="a_edge15_Node000011_Node000006"><a xlink:title=" ">
<path fill="none" stroke="#63b8ff" d="M407.74,-56.27C465.3,-46.52 553.07,-31.64 611.61,-21.72"/>
<polygon fill="#63b8ff" stroke="#63b8ff" points="612.15,-25.18 621.42,-20.05 610.98,-18.27 612.15,-25.18"/>
</a>
</g>
</g>
<!-- Node12 -->
<g id="Node000012" class="node">
<title>Node12</title>
<g id="a_Node000012"><a xlink:title=" ">
<polygon fill="#e0e0e0" stroke="#999999" points="605,-20.75 462.25,-20.75 462.25,0 605,0 605,-20.75"/>
<text xml:space="preserve" text-anchor="middle" x="533.62" y="-7.25" font-family="Helvetica,sans-Serif" font-size="10.00">UObject/UObjectGlobals.h</text>
</a>
</g>
</g>
<!-- Node11&#45;&gt;Node12 -->
<g id="edge14_Node000011_Node000012" class="edge">
<title>Node11&#45;&gt;Node12</title>
<g id="a_edge14_Node000011_Node000012"><a xlink:title=" ">
<path fill="none" stroke="#63b8ff" d="M382.52,-56.34C412.52,-47.41 457.05,-34.16 490.01,-24.35"/>
<polygon fill="#63b8ff" stroke="#63b8ff" points="490.67,-27.81 499.25,-21.6 488.67,-21.1 490.67,-27.81"/>
</a>
</g>
</g>
<!-- Node13 -->
<g id="Node000013" class="node">
<title>Node13</title>
<g id="a_Node000013"><a xlink:title=" ">
<polygon fill="#e0e0e0" stroke="#999999" points="444.12,-20.75 263.12,-20.75 263.12,0 444.12,0 444.12,-20.75"/>
<text xml:space="preserve" text-anchor="middle" x="353.62" y="-7.25" font-family="Helvetica,sans-Serif" font-size="10.00">NaniteAssemblyData.generated.h</text>
</a>
</g>
</g>
<!-- Node11&#45;&gt;Node13 -->
<g id="edge16_Node000011_Node000013" class="edge">
<title>Node11&#45;&gt;Node13</title>
<g id="a_edge16_Node000011_Node000013"><a xlink:title=" ">
<path fill="none" stroke="#63b8ff" d="M350.34,-56.34C350.82,-49.72 351.48,-40.72 352.08,-32.52"/>
<polygon fill="#63b8ff" stroke="#63b8ff" points="355.57,-32.82 352.81,-22.59 348.59,-32.31 355.57,-32.82"/>
</a>
</g>
</g>
<!-- Node15&#45;&gt;Node3 -->
<g id="edge19_Node000015_Node000003" class="edge">
<title>Node15&#45;&gt;Node3</title>
<g id="a_edge19_Node000015_Node000003"><a xlink:title=" ">
<path fill="none" stroke="#63b8ff" d="M1295.03,-178.53C1362.56,-175.84 1484.46,-166.52 1511.62,-134.25 1538.89,-101.86 1499.82,-54.02 1474.44,-28.65"/>
<polygon fill="#63b8ff" stroke="#63b8ff" points="1477.19,-26.44 1467.56,-22.01 1472.33,-31.47 1477.19,-26.44"/>
</a>
</g>
</g>
<!-- Node15&#45;&gt;Node4 -->
<g id="edge27_Node000015_Node000004" class="edge">
<title>Node15&#45;&gt;Node4</title>
<g id="a_edge27_Node000015_Node000004"><a xlink:title=" ">
<path fill="none" stroke="#63b8ff" d="M1204.2,-174.07C1126.47,-164.57 967.33,-145.13 874.11,-133.73"/>
<polygon fill="#63b8ff" stroke="#63b8ff" points="874.65,-130.27 864.3,-132.53 873.8,-137.22 874.65,-130.27"/>
</a>
</g>
</g>
<!-- Node15&#45;&gt;Node6 -->
<g id="edge20_Node000015_Node000006" class="edge">
<title>Node15&#45;&gt;Node6</title>
<g id="a_edge20_Node000015_Node000006"><a xlink:title=" ">
<path fill="none" stroke="#63b8ff" d="M1204.13,-175.6C1127.62,-168.37 979.97,-152.23 964.62,-134.25 929.12,-92.65 1009.61,-131.65 1044.62,-77.5 1049.63,-69.76 1050.74,-63.65 1044.62,-56.75 1024.4,-33.91 834.1,-20.18 733.81,-14.47"/>
<polygon fill="#63b8ff" stroke="#63b8ff" points="734.03,-10.98 723.85,-13.92 733.64,-17.97 734.03,-10.98"/>
</a>
</g>
</g>
<!-- Node16 -->
<g id="Node000016" class="node">
<title>Node16</title>
<g id="a_Node000016"><a xlink:title=" ">
<polygon fill="#e0e0e0" stroke="#999999" points="1236.75,-134.25 1098.5,-134.25 1098.5,-113.5 1236.75,-113.5 1236.75,-134.25"/>
<text xml:space="preserve" text-anchor="middle" x="1167.62" y="-120.75" font-family="Helvetica,sans-Serif" font-size="10.00">UObject/ScriptInterface.h</text>
</a>
</g>
</g>
<!-- Node15&#45;&gt;Node16 -->
<g id="edge21_Node000015_Node000016" class="edge">
<title>Node15&#45;&gt;Node16</title>
<g id="a_edge21_Node000015_Node000016"><a xlink:title=" ">
<path fill="none" stroke="#63b8ff" d="M1234.97,-169.84C1222.95,-161.82 1205.71,-150.31 1191.69,-140.94"/>
<polygon fill="#63b8ff" stroke="#63b8ff" points="1193.68,-138.06 1183.42,-135.42 1189.79,-143.88 1193.68,-138.06"/>
</a>
</g>
</g>
<!-- Node17 -->
<g id="Node000017" class="node">
<title>Node17</title>
<g id="a_Node000017"><a xlink:href="BlendableInterface_8h.html" target="_top" xlink:title=" ">
<polygon fill="white" stroke="#666666" points="1408.25,-134.25 1255,-134.25 1255,-113.5 1408.25,-113.5 1408.25,-134.25"/>
<text xml:space="preserve" text-anchor="middle" x="1331.62" y="-120.75" font-family="Helvetica,sans-Serif" font-size="10.00">Engine/BlendableInterface.h</text>
</a>
</g>
</g>
<!-- Node15&#45;&gt;Node17 -->
<g id="edge22_Node000015_Node000017" class="edge">
<title>Node15&#45;&gt;Node17</title>
<g id="a_edge22_Node000015_Node000017"><a xlink:title=" ">
<path fill="none" stroke="#63b8ff" d="M1264.28,-169.84C1276.3,-161.82 1293.54,-150.31 1307.56,-140.94"/>
<polygon fill="#63b8ff" stroke="#63b8ff" points="1309.46,-143.88 1315.83,-135.42 1305.57,-138.06 1309.46,-143.88"/>
</a>
</g>
</g>
<!-- Node20 -->
<g id="Node000020" class="node">
<title>Node20</title>
<g id="a_Node000020"><a xlink:title=" ">
<polygon fill="#e0e0e0" stroke="#999999" points="1503,-134.25 1426.25,-134.25 1426.25,-113.5 1503,-113.5 1503,-134.25"/>
<text xml:space="preserve" text-anchor="middle" x="1464.62" y="-120.75" font-family="Helvetica,sans-Serif" font-size="10.00">SceneUtils.h</text>
</a>
</g>
</g>
<!-- Node15&#45;&gt;Node20 -->
<g id="edge26_Node000015_Node000020" class="edge">
<title>Node15&#45;&gt;Node20</title>
<g id="a_edge26_Node000015_Node000020"><a xlink:title=" ">
<path fill="none" stroke="#63b8ff" d="M1288.06,-169.84C1323.57,-160.79 1376.51,-147.31 1415.16,-137.47"/>
<polygon fill="#63b8ff" stroke="#63b8ff" points="1415.86,-140.9 1424.69,-135.04 1414.14,-134.12 1415.86,-140.9"/>
</a>
</g>
</g>
<!-- Node21 -->
<g id="Node000021" class="node">
<title>Node21</title>
<g id="a_Node000021"><a xlink:title=" ">
<polygon fill="#e0e0e0" stroke="#999999" points="1080,-134.25 973.25,-134.25 973.25,-113.5 1080,-113.5 1080,-134.25"/>
<text xml:space="preserve" text-anchor="middle" x="1026.62" y="-120.75" font-family="Helvetica,sans-Serif" font-size="10.00">Scene.generated.h</text>
</a>
</g>
</g>
<!-- Node15&#45;&gt;Node21 -->
<g id="edge28_Node000015_Node000021" class="edge">
<title>Node15&#45;&gt;Node21</title>
<g id="a_edge28_Node000015_Node000021"><a xlink:title=" ">
<path fill="none" stroke="#63b8ff" d="M1209.5,-169.77C1172.67,-160.73 1117.92,-147.29 1077.92,-137.47"/>
<polygon fill="#63b8ff" stroke="#63b8ff" points="1078.82,-134.09 1068.27,-135.1 1077.15,-140.88 1078.82,-134.09"/>
</a>
</g>
</g>
<!-- Node17&#45;&gt;Node3 -->
<g id="edge23_Node000017_Node000003" class="edge">
<title>Node17&#45;&gt;Node3</title>
<g id="a_edge23_Node000017_Node000003"><a xlink:title=" ">
<path fill="none" stroke="#63b8ff" d="M1376.24,-113.05C1397.23,-106.3 1421.02,-95.25 1436.62,-77.5 1447.61,-65.01 1452.26,-46.55 1454.23,-32.31"/>
<polygon fill="#63b8ff" stroke="#63b8ff" points="1457.68,-32.94 1455.2,-22.64 1450.72,-32.24 1457.68,-32.94"/>
</a>
</g>
</g>
<!-- Node18 -->
<g id="Node000018" class="node">
<title>Node18</title>
<g id="a_Node000018"><a xlink:title=" ">
<polygon fill="#e0e0e0" stroke="#999999" points="1427.88,-77.5 1317.38,-77.5 1317.38,-56.75 1427.88,-56.75 1427.88,-77.5"/>
<text xml:space="preserve" text-anchor="middle" x="1372.62" y="-64" font-family="Helvetica,sans-Serif" font-size="10.00">UObject/Interface.h</text>
</a>
</g>
</g>
<!-- Node17&#45;&gt;Node18 -->
<g id="edge24_Node000017_Node000018" class="edge">
<title>Node17&#45;&gt;Node18</title>
<g id="a_edge24_Node000017_Node000018"><a xlink:title=" ">
<path fill="none" stroke="#63b8ff" d="M1338.95,-113.09C1344.38,-105.85 1351.93,-95.76 1358.51,-86.97"/>
<polygon fill="#63b8ff" stroke="#63b8ff" points="1361.26,-89.14 1364.45,-79.04 1355.66,-84.95 1361.26,-89.14"/>
</a>
</g>
</g>
<!-- Node19 -->
<g id="Node000019" class="node">
<title>Node19</title>
<g id="a_Node000019"><a xlink:title=" ">
<polygon fill="#e0e0e0" stroke="#999999" points="1299.5,-77.5 1129.75,-77.5 1129.75,-56.75 1299.5,-56.75 1299.5,-77.5"/>
<text xml:space="preserve" text-anchor="middle" x="1214.62" y="-64" font-family="Helvetica,sans-Serif" font-size="10.00">BlendableInterface.generated.h</text>
</a>
</g>
</g>
<!-- Node17&#45;&gt;Node19 -->
<g id="edge25_Node000017_Node000019" class="edge">
<title>Node17&#45;&gt;Node19</title>
<g id="a_edge25_Node000017_Node000019"><a xlink:title=" ">
<path fill="none" stroke="#63b8ff" d="M1310.71,-113.09C1292.66,-104.64 1266.32,-92.32 1245.79,-82.71"/>
<polygon fill="#63b8ff" stroke="#63b8ff" points="1247.27,-79.54 1236.73,-78.47 1244.31,-85.88 1247.27,-79.54"/>
</a>
</g>
</g>
</g>
</svg>
