<?xml version="1.0" encoding="UTF-8" standalone="no"?>
<!DOCTYPE svg PUBLIC "-//W3C//DTD SVG 1.1//EN"
 "http://www.w3.org/Graphics/SVG/1.1/DTD/svg11.dtd">
<!-- Generated by graphviz version 14.1.4 (0)
 -->
<!-- Title: /opt/unreal&#45;engine/Engine/Source/Runtime/Core/Public/Templates/Requires.h Pages: 1 -->
<svg width="1550pt" height="389pt"
 viewBox="0.00 0.00 1550.00 389.00" xmlns="http://www.w3.org/2000/svg" xmlns:xlink="http://www.w3.org/1999/xlink">
<g id="graph0" class="graph" transform="scale(1 1) rotate(0) translate(4 385)">
<title>/opt/unreal&#45;engine/Engine/Source/Runtime/Core/Public/Templates/Requires.h</title>
<!-- Node1 -->
<g id="Node000001" class="node">
<title>Node1</title>
<g id="a_Node000001"><a xlink:title=" ">
<polygon fill="#999999" stroke="#666666" points="1193.88,-381 1061.62,-381 1061.62,-322 1193.88,-322 1193.88,-381"/>
<text xml:space="preserve" text-anchor="start" x="1069.62" y="-367.5" font-family="Helvetica,sans-Serif" font-size="10.00">/opt/unreal&#45;engine</text>
<text xml:space="preserve" text-anchor="start" x="1069.62" y="-354.75" font-family="Helvetica,sans-Serif" font-size="10.00">/Engine/Source/Runtime</text>
<text xml:space="preserve" text-anchor="start" x="1069.62" y="-342" font-family="Helvetica,sans-Serif" font-size="10.00">/Core/Public/Templates</text>
<text xml:space="preserve" text-anchor="middle" x="1127.75" y="-329.25" font-family="Helvetica,sans-Serif" font-size="10.00">/Requires.h</text>
</a>
</g>
</g>
<!-- Node2 -->
<g id="Node000002" class="node">
<title>Node2</title>
<g id="a_Node000002"><a xlink:href="$EnableIf_8h.html" xlink:title=" ">
<polygon fill="white" stroke="#666666" points="1143.38,-286 1026.12,-286 1026.12,-265.25 1143.38,-265.25 1143.38,-286"/>
<text xml:space="preserve" text-anchor="middle" x="1084.75" y="-272.5" font-family="Helvetica,sans-Serif" font-size="10.00">Templates/EnableIf.h</text>
</a>
</g>
</g>
<!-- Node1&#45;&gt;Node2 -->
<g id="edge1_Node000001_Node000002" class="edge">
<title>Node1&#45;&gt;Node2</title>
<g id="a_edge1_Node000001_Node000002"><a xlink:title=" ">
<path fill="none" stroke="#63b8ff" d="M1111,-321.73C1106.07,-313.25 1100.78,-304.16 1096.25,-296.38"/>
<polygon fill="#63b8ff" stroke="#63b8ff" points="1099.29,-294.65 1091.23,-287.76 1093.24,-298.17 1099.29,-294.65"/>
</a>
</g>
</g>
<!-- Node7 -->
<g id="Node000007" class="node">
<title>Node7</title>
<g id="a_Node000007"><a xlink:title=" ">
<polygon fill="#e0e0e0" stroke="#999999" points="1542,-33.5 1473.5,-33.5 1473.5,-12.75 1542,-12.75 1542,-33.5"/>
<text xml:space="preserve" text-anchor="middle" x="1507.75" y="-20" font-family="Helvetica,sans-Serif" font-size="10.00">type_traits</text>
</a>
</g>
</g>
<!-- Node1&#45;&gt;Node7 -->
<g id="edge18_Node000001_Node000007" class="edge">
<title>Node1&#45;&gt;Node7</title>
<g id="a_edge18_Node000001_Node000007"><a xlink:title=" ">
<path fill="none" stroke="#63b8ff" d="M1150.12,-321.68C1167.53,-296.32 1188.75,-257.67 1188.75,-219.88 1188.75,-219.88 1188.75,-219.88 1188.75,-154.75 1188.75,-22.95 1344.66,-100.58 1464.75,-46.25 1469.75,-43.99 1474.99,-41.44 1480.03,-38.9"/>
<polygon fill="#63b8ff" stroke="#63b8ff" points="1481.32,-42.18 1488.61,-34.48 1478.12,-35.95 1481.32,-42.18"/>
</a>
</g>
</g>
<!-- Node3 -->
<g id="Node000003" class="node">
<title>Node3</title>
<g id="a_Node000003"><a xlink:href="$CoreTypes_8h.html" xlink:title=" ">
<polygon fill="white" stroke="#666666" points="897.38,-229.25 822.12,-229.25 822.12,-208.5 897.38,-208.5 897.38,-229.25"/>
<text xml:space="preserve" text-anchor="middle" x="859.75" y="-215.75" font-family="Helvetica,sans-Serif" font-size="10.00">CoreTypes.h</text>
</a>
</g>
</g>
<!-- Node2&#45;&gt;Node3 -->
<g id="edge2_Node000002_Node000003" class="edge">
<title>Node2&#45;&gt;Node3</title>
<g id="a_edge2_Node000002_Node000003"><a xlink:title=" ">
<path fill="none" stroke="#63b8ff" d="M1044.26,-264.77C1006.22,-255.52 949.21,-241.64 908.64,-231.77"/>
<polygon fill="#63b8ff" stroke="#63b8ff" points="909.68,-228.42 899.13,-229.46 908.02,-235.22 909.68,-228.42"/>
</a>
</g>
</g>
<!-- Node4 -->
<g id="Node000004" class="node">
<title>Node4</title>
<g id="a_Node000004"><a xlink:href="$Platform_8h.html" xlink:title=" ">
<polygon fill="white" stroke="#666666" points="875.5,-103 786,-103 786,-82.25 875.5,-82.25 875.5,-103"/>
<text xml:space="preserve" text-anchor="middle" x="830.75" y="-89.5" font-family="Helvetica,sans-Serif" font-size="10.00">HAL/Platform.h</text>
</a>
</g>
</g>
<!-- Node3&#45;&gt;Node4 -->
<g id="edge3_Node000003_Node000004" class="edge">
<title>Node3&#45;&gt;Node4</title>
<g id="a_edge3_Node000003_Node000004"><a xlink:title=" ">
<path fill="none" stroke="#63b8ff" d="M883.15,-208.16C897.71,-200.73 915.24,-188.96 923.75,-172.5 930.59,-159.27 931.64,-151.63 923.75,-139 914.7,-124.52 899.55,-114.53 884.07,-107.7"/>
<polygon fill="#63b8ff" stroke="#63b8ff" points="885.37,-104.45 874.79,-104.02 882.79,-110.96 885.37,-104.45"/>
</a>
</g>
</g>
<!-- Node14 -->
<g id="Node000014" class="node">
<title>Node14</title>
<g id="a_Node000014"><a xlink:href="$UMemoryDefines_8h.html" xlink:title=" ">
<polygon fill="white" stroke="#666666" points="635.5,-172.5 522,-172.5 522,-139 635.5,-139 635.5,-172.5"/>
<text xml:space="preserve" text-anchor="start" x="530" y="-159" font-family="Helvetica,sans-Serif" font-size="10.00">ProfilingDebugging</text>
<text xml:space="preserve" text-anchor="middle" x="578.75" y="-146.25" font-family="Helvetica,sans-Serif" font-size="10.00">/UMemoryDefines.h</text>
</a>
</g>
</g>
<!-- Node3&#45;&gt;Node14 -->
<g id="edge13_Node000003_Node000014" class="edge">
<title>Node3&#45;&gt;Node14</title>
<g id="a_edge13_Node000003_Node000014"><a xlink:title=" ">
<path fill="none" stroke="#63b8ff" d="M822.01,-210.22C781.29,-201.9 714.27,-188 647.17,-173.01"/>
<polygon fill="#63b8ff" stroke="#63b8ff" points="647.97,-169.6 637.44,-170.83 646.43,-176.44 647.97,-169.6"/>
</a>
</g>
</g>
<!-- Node15 -->
<g id="Node000015" class="node">
<title>Node15</title>
<g id="a_Node000015"><a xlink:href="$CoreMiscDefines_8h.html" xlink:title=" ">
<polygon fill="white" stroke="#666666" points="786.25,-166.12 653.25,-166.12 653.25,-145.38 786.25,-145.38 786.25,-166.12"/>
<text xml:space="preserve" text-anchor="middle" x="719.75" y="-152.62" font-family="Helvetica,sans-Serif" font-size="10.00">Misc/CoreMiscDefines.h</text>
</a>
</g>
</g>
<!-- Node3&#45;&gt;Node15 -->
<g id="edge14_Node000003_Node000015" class="edge">
<title>Node3&#45;&gt;Node15</title>
<g id="a_edge14_Node000003_Node000015"><a xlink:title=" ">
<path fill="none" stroke="#63b8ff" d="M837.26,-208.05C814.4,-198.07 778.74,-182.5 752.7,-171.13"/>
<polygon fill="#63b8ff" stroke="#63b8ff" points="754.14,-167.95 743.57,-167.15 751.34,-174.36 754.14,-167.95"/>
</a>
</g>
</g>
<!-- Node16 -->
<g id="Node000016" class="node">
<title>Node16</title>
<g id="a_Node000016"><a xlink:href="$CoreDefines_8h.html" xlink:title=" ">
<polygon fill="white" stroke="#666666" points="915,-166.12 804.5,-166.12 804.5,-145.38 915,-145.38 915,-166.12"/>
<text xml:space="preserve" text-anchor="middle" x="859.75" y="-152.62" font-family="Helvetica,sans-Serif" font-size="10.00">Misc/CoreDefines.h</text>
</a>
</g>
</g>
<!-- Node3&#45;&gt;Node16 -->
<g id="edge17_Node000003_Node000016" class="edge">
<title>Node3&#45;&gt;Node16</title>
<g id="a_edge17_Node000003_Node000016"><a xlink:title=" ">
<path fill="none" stroke="#63b8ff" d="M859.75,-208.05C859.75,-199.9 859.75,-188.01 859.75,-177.73"/>
<polygon fill="#63b8ff" stroke="#63b8ff" points="863.25,-177.86 859.75,-167.86 856.25,-177.86 863.25,-177.86"/>
</a>
</g>
</g>
<!-- Node5 -->
<g id="Node000005" class="node">
<title>Node5</title>
<g id="a_Node000005"><a xlink:href="$Build_8h.html" xlink:title=" ">
<polygon fill="white" stroke="#666666" points="1455.38,-33.5 1380.12,-33.5 1380.12,-12.75 1455.38,-12.75 1455.38,-33.5"/>
<text xml:space="preserve" text-anchor="middle" x="1417.75" y="-20" font-family="Helvetica,sans-Serif" font-size="10.00">Misc/Build.h</text>
</a>
</g>
</g>
<!-- Node4&#45;&gt;Node5 -->
<g id="edge4_Node000004_Node000005" class="edge">
<title>Node4&#45;&gt;Node5</title>
<g id="a_edge4_Node000004_Node000005"><a xlink:title=" ">
<path fill="none" stroke="#63b8ff" d="M875.83,-89.9C988.07,-85.26 1277.72,-71.19 1370.75,-46.25 1377.45,-44.45 1384.36,-41.74 1390.76,-38.83"/>
<polygon fill="#63b8ff" stroke="#63b8ff" points="1392.1,-42.06 1399.54,-34.52 1389.02,-35.78 1392.1,-42.06"/>
</a>
</g>
</g>
<!-- Node6 -->
<g id="Node000006" class="node">
<title>Node6</title>
<g id="a_Node000006"><a xlink:href="$LargeWorldCoordinates_8h.html" xlink:title=" ">
<polygon fill="white" stroke="#666666" points="308,-33.5 143.5,-33.5 143.5,-12.75 308,-12.75 308,-33.5"/>
<text xml:space="preserve" text-anchor="middle" x="225.75" y="-20" font-family="Helvetica,sans-Serif" font-size="10.00">Misc/LargeWorldCoordinates.h</text>
</a>
</g>
</g>
<!-- Node4&#45;&gt;Node6 -->
<g id="edge5_Node000004_Node000006" class="edge">
<title>Node4&#45;&gt;Node6</title>
<g id="a_edge5_Node000004_Node000006"><a xlink:title=" ">
<path fill="none" stroke="#63b8ff" d="M785.52,-89.87C695.8,-85.9 489.15,-74.28 317.75,-46.25 302.76,-43.8 286.61,-40.23 272.07,-36.68"/>
<polygon fill="#63b8ff" stroke="#63b8ff" points="273.35,-33.39 262.79,-34.35 271.64,-40.18 273.35,-33.39"/>
</a>
</g>
</g>
<!-- Node4&#45;&gt;Node7 -->
<g id="edge6_Node000004_Node000007" class="edge">
<title>Node4&#45;&gt;Node7</title>
<g id="a_edge6_Node000004_Node000007"><a xlink:title=" ">
<path fill="none" stroke="#63b8ff" d="M875.79,-90.75C1001.41,-87.92 1353.71,-77.38 1464.75,-46.25 1470.66,-44.59 1476.7,-42.08 1482.32,-39.33"/>
<polygon fill="#63b8ff" stroke="#63b8ff" points="1483.94,-42.43 1491.12,-34.63 1480.65,-36.26 1483.94,-42.43"/>
</a>
</g>
</g>
<!-- Node8 -->
<g id="Node000008" class="node">
<title>Node8</title>
<g id="a_Node000008"><a xlink:href="$PreprocessorHelpers_8h.html" xlink:title=" ">
<polygon fill="white" stroke="#666666" points="125.5,-33.5 0,-33.5 0,-12.75 125.5,-12.75 125.5,-33.5"/>
<text xml:space="preserve" text-anchor="middle" x="62.75" y="-20" font-family="Helvetica,sans-Serif" font-size="10.00">PreprocessorHelpers.h</text>
</a>
</g>
</g>
<!-- Node4&#45;&gt;Node8 -->
<g id="edge7_Node000004_Node000008" class="edge">
<title>Node4&#45;&gt;Node8</title>
<g id="a_edge7_Node000004_Node000008"><a xlink:title=" ">
<path fill="none" stroke="#63b8ff" d="M785.52,-92.3C673.96,-93.18 377.11,-90.76 134.75,-46.25 123.39,-44.16 111.3,-40.88 100.33,-37.48"/>
<polygon fill="#63b8ff" stroke="#63b8ff" points="101.42,-34.16 90.83,-34.4 99.27,-40.82 101.42,-34.16"/>
</a>
</g>
</g>
<!-- Node9 -->
<g id="Node000009" class="node">
<title>Node9</title>
<g id="a_Node000009"><a xlink:title=" ">
<polygon fill="#e0e0e0" stroke="#999999" points="523.12,-46.25 326.38,-46.25 326.38,0 523.12,0 523.12,-46.25"/>
<text xml:space="preserve" text-anchor="start" x="334.38" y="-32.75" font-family="Helvetica,sans-Serif" font-size="10.00">UBT_COMPILED_PLATFORM</text>
<text xml:space="preserve" text-anchor="start" x="334.38" y="-20" font-family="Helvetica,sans-Serif" font-size="10.00">/UBT_COMPILED_PLATFORMPlatform</text>
<text xml:space="preserve" text-anchor="middle" x="424.75" y="-7.25" font-family="Helvetica,sans-Serif" font-size="10.00">CompilerPreSetup.h</text>
</a>
</g>
</g>
<!-- Node4&#45;&gt;Node9 -->
<g id="edge8_Node000004_Node000009" class="edge">
<title>Node4&#45;&gt;Node9</title>
<g id="a_edge8_Node000004_Node000009"><a xlink:title=" ">
<path fill="none" stroke="#63b8ff" d="M785.54,-85.53C729.12,-77.75 629.38,-63.45 534.75,-46.75"/>
<polygon fill="#63b8ff" stroke="#63b8ff" points="535.48,-43.32 525.02,-45.02 534.25,-50.21 535.48,-43.32"/>
</a>
</g>
</g>
<!-- Node10 -->
<g id="Node000010" class="node">
<title>Node10</title>
<g id="a_Node000010"><a xlink:href="$GenericPlatformCompilerPreSetup_8h.html" xlink:title=" ">
<polygon fill="white" stroke="#666666" points="718.75,-39.88 540.75,-39.88 540.75,-6.38 718.75,-6.38 718.75,-39.88"/>
<text xml:space="preserve" text-anchor="start" x="548.75" y="-26.38" font-family="Helvetica,sans-Serif" font-size="10.00">GenericPlatform/GenericPlatform</text>
<text xml:space="preserve" text-anchor="middle" x="629.75" y="-13.62" font-family="Helvetica,sans-Serif" font-size="10.00">CompilerPreSetup.h</text>
</a>
</g>
</g>
<!-- Node4&#45;&gt;Node10 -->
<g id="edge9_Node000004_Node000010" class="edge">
<title>Node4&#45;&gt;Node10</title>
<g id="a_edge9_Node000004_Node000010"><a xlink:title=" ">
<path fill="none" stroke="#63b8ff" d="M801.52,-81.81C772.09,-71.93 725.86,-56.4 688.77,-43.94"/>
<polygon fill="#63b8ff" stroke="#63b8ff" points="690.1,-40.7 679.51,-40.83 687.87,-47.34 690.1,-40.7"/>
</a>
</g>
</g>
<!-- Node11 -->
<g id="Node000011" class="node">
<title>Node11</title>
<g id="a_Node000011"><a xlink:href="$GenericPlatform_8h.html" xlink:title=" ">
<polygon fill="white" stroke="#666666" points="924.25,-33.5 737.25,-33.5 737.25,-12.75 924.25,-12.75 924.25,-33.5"/>
<text xml:space="preserve" text-anchor="middle" x="830.75" y="-20" font-family="Helvetica,sans-Serif" font-size="10.00">GenericPlatform/GenericPlatform.h</text>
</a>
</g>
</g>
<!-- Node4&#45;&gt;Node11 -->
<g id="edge10_Node000004_Node000011" class="edge">
<title>Node4&#45;&gt;Node11</title>
<g id="a_edge10_Node000004_Node000011"><a xlink:title=" ">
<path fill="none" stroke="#63b8ff" d="M830.75,-81.95C830.75,-72.33 830.75,-57.26 830.75,-44.91"/>
<polygon fill="#63b8ff" stroke="#63b8ff" points="834.25,-45.29 830.75,-35.29 827.25,-45.29 834.25,-45.29"/>
</a>
</g>
</g>
<!-- Node12 -->
<g id="Node000012" class="node">
<title>Node12</title>
<g id="a_Node000012"><a xlink:title=" ">
<polygon fill="#e0e0e0" stroke="#999999" points="1147.62,-39.88 941.88,-39.88 941.88,-6.38 1147.62,-6.38 1147.62,-39.88"/>
<text xml:space="preserve" text-anchor="start" x="949.88" y="-26.38" font-family="Helvetica,sans-Serif" font-size="10.00">UBT_COMPILED_PLATFORM</text>
<text xml:space="preserve" text-anchor="middle" x="1044.75" y="-13.62" font-family="Helvetica,sans-Serif" font-size="10.00">/UBT_COMPILED_PLATFORMPlatform.h</text>
</a>
</g>
</g>
<!-- Node4&#45;&gt;Node12 -->
<g id="edge11_Node000004_Node000012" class="edge">
<title>Node4&#45;&gt;Node12</title>
<g id="a_edge11_Node000004_Node000012"><a xlink:title=" ">
<path fill="none" stroke="#63b8ff" d="M861.87,-81.81C893.34,-71.88 942.85,-56.27 982.43,-43.78"/>
<polygon fill="#63b8ff" stroke="#63b8ff" points="983.37,-47.15 991.86,-40.81 981.27,-40.48 983.37,-47.15"/>
</a>
</g>
</g>
<!-- Node13 -->
<g id="Node000013" class="node">
<title>Node13</title>
<g id="a_Node000013"><a xlink:title=" ">
<polygon fill="#e0e0e0" stroke="#999999" points="1362.12,-46.25 1165.38,-46.25 1165.38,0 1362.12,0 1362.12,-46.25"/>
<text xml:space="preserve" text-anchor="start" x="1173.38" y="-32.75" font-family="Helvetica,sans-Serif" font-size="10.00">UBT_COMPILED_PLATFORM</text>
<text xml:space="preserve" text-anchor="start" x="1173.38" y="-20" font-family="Helvetica,sans-Serif" font-size="10.00">/UBT_COMPILED_PLATFORMPlatform</text>
<text xml:space="preserve" text-anchor="middle" x="1263.75" y="-7.25" font-family="Helvetica,sans-Serif" font-size="10.00">CompilerSetup.h</text>
</a>
</g>
</g>
<!-- Node4&#45;&gt;Node13 -->
<g id="edge12_Node000004_Node000013" class="edge">
<title>Node4&#45;&gt;Node13</title>
<g id="a_edge12_Node000004_Node000013"><a xlink:title=" ">
<path fill="none" stroke="#63b8ff" d="M875.98,-86.28C936.91,-78.87 1048.95,-64.52 1153.87,-46.7"/>
<polygon fill="#63b8ff" stroke="#63b8ff" points="1154.22,-50.19 1163.49,-45.05 1153.04,-43.29 1154.22,-50.19"/>
</a>
</g>
</g>
<!-- Node15&#45;&gt;Node4 -->
<g id="edge15_Node000015_Node000004" class="edge">
<title>Node15&#45;&gt;Node4</title>
<g id="a_edge15_Node000015_Node000004"><a xlink:title=" ">
<path fill="none" stroke="#63b8ff" d="M737.58,-144.93C755.22,-135.22 782.47,-120.21 802.95,-108.93"/>
<polygon fill="#63b8ff" stroke="#63b8ff" points="804.56,-112.04 811.63,-104.15 801.19,-105.91 804.56,-112.04"/>
</a>
</g>
</g>
<!-- Node15&#45;&gt;Node8 -->
<g id="edge16_Node000015_Node000008" class="edge">
<title>Node15&#45;&gt;Node8</title>
<g id="a_edge16_Node000015_Node000008"><a xlink:title=" ">
<path fill="none" stroke="#63b8ff" d="M673.78,-144.89C664.2,-142.89 654.15,-140.84 644.75,-139 418.66,-94.71 358.59,-100.79 134.75,-46.25 124.3,-43.7 113.13,-40.51 102.79,-37.35"/>
<polygon fill="#63b8ff" stroke="#63b8ff" points="103.99,-34.06 93.4,-34.41 101.9,-40.74 103.99,-34.06"/>
</a>
</g>
</g>
</g>
</svg>
