<?xml version="1.0" encoding="UTF-8" standalone="no"?>
<!DOCTYPE svg PUBLIC "-//W3C//DTD SVG 1.1//EN"
 "http://www.w3.org/Graphics/SVG/1.1/DTD/svg11.dtd">
<!-- Generated by graphviz version 14.1.4 (0)
 -->
<!-- Title: /opt/unreal&#45;engine/Engine/Source/Runtime/Core/Public/HAL/RunnableThread.h Pages: 1 -->
<svg width="685pt" height="314pt"
 viewBox="0.00 0.00 685.00 314.00" xmlns="http://www.w3.org/2000/svg" xmlns:xlink="http://www.w3.org/1999/xlink">
<g id="graph0" class="graph" transform="scale(1 1) rotate(0) translate(4 309.75)">
<title>/opt/unreal&#45;engine/Engine/Source/Runtime/Core/Public/HAL/RunnableThread.h</title>
<!-- Node1 -->
<g id="Node000001" class="node">
<title>Node1</title>
<g id="a_Node000001"><a xlink:title=" ">
<polygon fill="#999999" stroke="#666666" points="580.53,-305.75 392.78,-305.75 392.78,-259.5 580.53,-259.5 580.53,-305.75"/>
<text xml:space="preserve" text-anchor="start" x="400.78" y="-292.25" font-family="Helvetica,sans-Serif" font-size="10.00">/opt/unreal&#45;engine</text>
<text xml:space="preserve" text-anchor="start" x="400.78" y="-279.5" font-family="Helvetica,sans-Serif" font-size="10.00">/Engine/Source/Runtime</text>
<text xml:space="preserve" text-anchor="middle" x="486.65" y="-266.75" font-family="Helvetica,sans-Serif" font-size="10.00">/Core/Public/HAL/RunnableThread.h</text>
</a>
</g>
</g>
<!-- Node2 -->
<g id="Node000002" class="node">
<title>Node2</title>
<g id="a_Node000002"><a xlink:href="$Async_8h.html" xlink:title=" ">
<polygon fill="white" stroke="#666666" points="419.28,-223.5 272.03,-223.5 272.03,-177.25 419.28,-177.25 419.28,-223.5"/>
<text xml:space="preserve" text-anchor="start" x="280.03" y="-210" font-family="Helvetica,sans-Serif" font-size="10.00">/opt/unreal&#45;engine</text>
<text xml:space="preserve" text-anchor="start" x="280.03" y="-197.25" font-family="Helvetica,sans-Serif" font-size="10.00">/Engine/Source/Runtime</text>
<text xml:space="preserve" text-anchor="middle" x="345.65" y="-184.5" font-family="Helvetica,sans-Serif" font-size="10.00">/Core/Public/Async/Async.h</text>
</a>
</g>
</g>
<!-- Node1&#45;&gt;Node2 -->
<g id="edge1_Node000001_Node000002" class="edge">
<title>Node1&#45;&gt;Node2</title>
<g id="a_edge1_Node000001_Node000002"><a xlink:title=" ">
<path fill="none" stroke="#63b8ff" d="M437.18,-253.47C420.09,-243.74 401.18,-232.98 385.01,-223.77"/>
<polygon fill="#63b8ff" stroke="#63b8ff" points="435.26,-256.4 445.68,-258.31 438.72,-250.32 435.26,-256.4"/>
</a>
</g>
</g>
<!-- Node6 -->
<g id="Node000006" class="node">
<title>Node6</title>
<g id="a_Node000006"><a xlink:href="$Core_8h.html" xlink:title=" ">
<polygon fill="white" stroke="#666666" points="496.78,-46.25 364.53,-46.25 364.53,0 496.78,0 496.78,-46.25"/>
<text xml:space="preserve" text-anchor="start" x="372.53" y="-32.75" font-family="Helvetica,sans-Serif" font-size="10.00">/opt/unreal&#45;engine</text>
<text xml:space="preserve" text-anchor="start" x="372.53" y="-20" font-family="Helvetica,sans-Serif" font-size="10.00">/Engine/Source/Runtime</text>
<text xml:space="preserve" text-anchor="middle" x="430.65" y="-7.25" font-family="Helvetica,sans-Serif" font-size="10.00">/Core/Public/Core.h</text>
</a>
</g>
</g>
<!-- Node1&#45;&gt;Node6 -->
<g id="edge7_Node000001_Node000006" class="edge">
<title>Node1&#45;&gt;Node6</title>
<g id="a_edge7_Node000001_Node000006"><a xlink:title=" ">
<path fill="none" stroke="#63b8ff" d="M509.21,-249.58C535.21,-208.32 570.52,-135.58 538.65,-82.25 529.1,-66.26 513.46,-54.4 497.01,-45.73"/>
<polygon fill="#63b8ff" stroke="#63b8ff" points="506.35,-247.56 503.83,-257.85 512.22,-251.37 506.35,-247.56"/>
</a>
</g>
</g>
<!-- Node7 -->
<g id="Node000007" class="node">
<title>Node7</title>
<g id="a_Node000007"><a xlink:href="$CoreSharedPCH_8h.html" xlink:title=" ">
<polygon fill="white" stroke="#666666" points="676.78,-46.25 514.53,-46.25 514.53,0 676.78,0 676.78,-46.25"/>
<text xml:space="preserve" text-anchor="start" x="522.53" y="-32.75" font-family="Helvetica,sans-Serif" font-size="10.00">/opt/unreal&#45;engine</text>
<text xml:space="preserve" text-anchor="start" x="522.53" y="-20" font-family="Helvetica,sans-Serif" font-size="10.00">/Engine/Source/Runtime</text>
<text xml:space="preserve" text-anchor="middle" x="595.65" y="-7.25" font-family="Helvetica,sans-Serif" font-size="10.00">/Core/Public/CoreSharedPCH.h</text>
</a>
</g>
</g>
<!-- Node1&#45;&gt;Node7 -->
<g id="edge8_Node000001_Node000007" class="edge">
<title>Node1&#45;&gt;Node7</title>
<g id="a_edge8_Node000001_Node000007"><a xlink:title=" ">
<path fill="none" stroke="#63b8ff" d="M525.78,-251.57C534.4,-243.3 542.72,-233.76 548.65,-223.5 582.14,-165.63 591.79,-85.23 594.55,-46.6"/>
<polygon fill="#63b8ff" stroke="#63b8ff" points="523.67,-248.76 518.62,-258.07 528.38,-253.94 523.67,-248.76"/>
</a>
</g>
</g>
<!-- Node8 -->
<g id="Node000008" class="node">
<title>Node8</title>
<g id="a_Node000008"><a xlink:href="$ThreadingBase_8h.html" xlink:title=" ">
<polygon fill="white" stroke="#666666" points="204.15,-223.5 23.15,-223.5 23.15,-177.25 204.15,-177.25 204.15,-223.5"/>
<text xml:space="preserve" text-anchor="start" x="31.15" y="-210" font-family="Helvetica,sans-Serif" font-size="10.00">/opt/unreal&#45;engine</text>
<text xml:space="preserve" text-anchor="start" x="31.15" y="-197.25" font-family="Helvetica,sans-Serif" font-size="10.00">/Engine/Source/Runtime</text>
<text xml:space="preserve" text-anchor="middle" x="113.65" y="-184.5" font-family="Helvetica,sans-Serif" font-size="10.00">/Core/Public/HAL/ThreadingBase.h</text>
</a>
</g>
</g>
<!-- Node1&#45;&gt;Node8 -->
<g id="edge9_Node000001_Node000008" class="edge">
<title>Node1&#45;&gt;Node8</title>
<g id="a_edge9_Node000001_Node000008"><a xlink:title=" ">
<path fill="none" stroke="#63b8ff" d="M381.55,-259.01C325.8,-247.02 257.98,-232.43 204.52,-220.93"/>
<polygon fill="#63b8ff" stroke="#63b8ff" points="380.54,-262.37 391.05,-261.06 382.01,-255.53 380.54,-262.37"/>
</a>
</g>
</g>
<!-- Node3 -->
<g id="Node000003" class="node">
<title>Node3</title>
<g id="a_Node000003"><a xlink:href="$CoroParallelFor_8h.html" xlink:title=" ">
<polygon fill="white" stroke="#666666" points="351.9,-141.25 199.4,-141.25 199.4,-82.25 351.9,-82.25 351.9,-141.25"/>
<text xml:space="preserve" text-anchor="start" x="207.4" y="-127.75" font-family="Helvetica,sans-Serif" font-size="10.00">/opt/unreal&#45;engine</text>
<text xml:space="preserve" text-anchor="start" x="207.4" y="-115" font-family="Helvetica,sans-Serif" font-size="10.00">/Engine/Source/Runtime</text>
<text xml:space="preserve" text-anchor="start" x="207.4" y="-102.25" font-family="Helvetica,sans-Serif" font-size="10.00">/Core/Public/Experimental</text>
<text xml:space="preserve" text-anchor="middle" x="275.65" y="-89.5" font-family="Helvetica,sans-Serif" font-size="10.00">/Coroutine/CoroParallelFor.h</text>
</a>
</g>
</g>
<!-- Node2&#45;&gt;Node3 -->
<g id="edge2_Node000002_Node000003" class="edge">
<title>Node2&#45;&gt;Node3</title>
<g id="a_edge2_Node000002_Node000003"><a xlink:title=" ">
<path fill="none" stroke="#63b8ff" d="M320.54,-168.3C313.48,-159.57 305.85,-150.12 298.91,-141.53"/>
<polygon fill="#63b8ff" stroke="#63b8ff" points="317.67,-170.31 326.67,-175.89 323.11,-165.91 317.67,-170.31"/>
</a>
</g>
</g>
<!-- Node4 -->
<g id="Node000004" class="node">
<title>Node4</title>
<g id="a_Node000004"><a xlink:href="$IPlatformFileManagedStorageWrapper_8h.html" xlink:title=" ">
<polygon fill="white" stroke="#666666" points="181.03,-141.25 20.28,-141.25 20.28,-82.25 181.03,-82.25 181.03,-141.25"/>
<text xml:space="preserve" text-anchor="start" x="28.28" y="-127.75" font-family="Helvetica,sans-Serif" font-size="10.00">/opt/unreal&#45;engine</text>
<text xml:space="preserve" text-anchor="start" x="28.28" y="-115" font-family="Helvetica,sans-Serif" font-size="10.00">/Engine/Source/Runtime</text>
<text xml:space="preserve" text-anchor="start" x="28.28" y="-102.25" font-family="Helvetica,sans-Serif" font-size="10.00">/Core/Public/HAL/IPlatformFile</text>
<text xml:space="preserve" text-anchor="middle" x="100.65" y="-89.5" font-family="Helvetica,sans-Serif" font-size="10.00">ManagedStorageWrapper.h</text>
</a>
</g>
</g>
<!-- Node2&#45;&gt;Node4 -->
<g id="edge3_Node000002_Node000004" class="edge">
<title>Node2&#45;&gt;Node4</title>
<g id="a_edge3_Node000002_Node000004"><a xlink:title=" ">
<path fill="none" stroke="#63b8ff" d="M271.23,-173.06C242.77,-163 210.2,-151.48 181.2,-141.23"/>
<polygon fill="#63b8ff" stroke="#63b8ff" points="269.9,-176.3 280.49,-176.34 272.23,-169.7 269.9,-176.3"/>
</a>
</g>
</g>
<!-- Node5 -->
<g id="Node000005" class="node">
<title>Node5</title>
<g id="a_Node000005"><a xlink:href="$AutomationTest_8h.html" xlink:title=" ">
<polygon fill="white" stroke="#666666" points="529.28,-141.25 370.03,-141.25 370.03,-82.25 529.28,-82.25 529.28,-141.25"/>
<text xml:space="preserve" text-anchor="start" x="378.03" y="-127.75" font-family="Helvetica,sans-Serif" font-size="10.00">/opt/unreal&#45;engine</text>
<text xml:space="preserve" text-anchor="start" x="378.03" y="-115" font-family="Helvetica,sans-Serif" font-size="10.00">/Engine/Source/Runtime</text>
<text xml:space="preserve" text-anchor="start" x="378.03" y="-102.25" font-family="Helvetica,sans-Serif" font-size="10.00">/Core/Public/Misc/Automation</text>
<text xml:space="preserve" text-anchor="middle" x="449.65" y="-89.5" font-family="Helvetica,sans-Serif" font-size="10.00">Test.h</text>
</a>
</g>
</g>
<!-- Node2&#45;&gt;Node5 -->
<g id="edge4_Node000002_Node000005" class="edge">
<title>Node2&#45;&gt;Node5</title>
<g id="a_edge4_Node000002_Node000005"><a xlink:title=" ">
<path fill="none" stroke="#63b8ff" d="M381.49,-169.52C392.3,-160.52 404.15,-150.65 414.88,-141.71"/>
<polygon fill="#63b8ff" stroke="#63b8ff" points="379.31,-166.78 373.87,-175.87 383.79,-172.16 379.31,-166.78"/>
</a>
</g>
</g>
<!-- Node5&#45;&gt;Node6 -->
<g id="edge5_Node000005_Node000006" class="edge">
<title>Node5&#45;&gt;Node6</title>
<g id="a_edge5_Node000005_Node000006"><a xlink:title=" ">
<path fill="none" stroke="#63b8ff" d="M440.88,-70.77C439.06,-62.45 437.2,-53.96 435.57,-46.54"/>
<polygon fill="#63b8ff" stroke="#63b8ff" points="437.44,-71.41 443,-80.43 444.28,-69.91 437.44,-71.41"/>
</a>
</g>
</g>
<!-- Node5&#45;&gt;Node7 -->
<g id="edge6_Node000005_Node000007" class="edge">
<title>Node5&#45;&gt;Node7</title>
<g id="a_edge6_Node000005_Node000007"><a xlink:title=" ">
<path fill="none" stroke="#63b8ff" d="M508,-76.13C524.8,-66.16 542.67,-55.56 557.87,-46.54"/>
<polygon fill="#63b8ff" stroke="#63b8ff" points="506.38,-73.02 499.57,-81.13 509.96,-79.04 506.38,-73.02"/>
</a>
</g>
</g>
<!-- Node8&#45;&gt;Node6 -->
<g id="edge10_Node000008_Node000006" class="edge">
<title>Node8&#45;&gt;Node6</title>
<g id="a_edge10_Node000008_Node000006"><a xlink:title=" ">
<path fill="none" stroke="#63b8ff" d="M41.02,-170.99C29.28,-163.14 18.68,-153.35 11.65,-141.25 -1.52,-118.58 -5.57,-102.02 11.65,-82.25 56.57,-30.67 257.91,-23.38 364.29,-23.23"/>
<polygon fill="#63b8ff" stroke="#63b8ff" points="38.99,-173.85 49.34,-176.08 42.64,-167.88 38.99,-173.85"/>
</a>
</g>
</g>
</g>
</svg>
