<?xml version="1.0" encoding="UTF-8" standalone="no"?>
<!DOCTYPE svg PUBLIC "-//W3C//DTD SVG 1.1//EN"
 "http://www.w3.org/Graphics/SVG/1.1/DTD/svg11.dtd">
<!-- Generated by graphviz version 14.1.4 (0)
 -->
<!-- Title: operator!= Pages: 1 -->
<svg width="208pt" height="68pt"
 viewBox="0.00 0.00 208.00 68.00" xmlns="http://www.w3.org/2000/svg" xmlns:xlink="http://www.w3.org/1999/xlink">
<g id="graph0" class="graph" transform="scale(1 1) rotate(0) translate(4 63.75)">
<title>operator!=</title>
<!-- Node1 -->
<g id="Node000001" class="node">
<title>Node1</title>
<g id="a_Node000001"><a xlink:title=" ">
<polygon fill="#999999" stroke="#666666" points="69.25,-39.75 0,-39.75 0,-19 69.25,-19 69.25,-39.75"/>
<text xml:space="preserve" text-anchor="middle" x="34.62" y="-26.25" font-family="Helvetica,sans-Serif" font-size="10.00">operator!=</text>
</a>
</g>
</g>
<!-- Node2 -->
<g id="Node000002" class="node">
<title>Node2</title>
<g id="a_Node000002"><a xlink:href="$classTSharedRef.html#aa177c10db3d1e9a83203d7cdf3e8365c" xlink:title=" ">
<polygon fill="white" stroke="#666666" points="200,-59.75 105.25,-59.75 105.25,-39 200,-39 200,-59.75"/>
<text xml:space="preserve" text-anchor="middle" x="152.62" y="-46.25" font-family="Helvetica,sans-Serif" font-size="10.00">TSharedRef::Get</text>
</a>
</g>
</g>
<!-- Node1&#45;&gt;Node2 -->
<g id="edge1_Node000001_Node000002" class="edge">
<title>Node1&#45;&gt;Node2</title>
<g id="a_edge1_Node000001_Node000002"><a xlink:title=" ">
<path fill="none" stroke="#63b8ff" d="M69.49,-35.21C77.12,-36.53 85.43,-37.96 93.74,-39.39"/>
<polygon fill="#63b8ff" stroke="#63b8ff" points="93.06,-42.83 103.51,-41.08 94.25,-35.93 93.06,-42.83"/>
</a>
</g>
</g>
<!-- Node3 -->
<g id="Node000003" class="node">
<title>Node3</title>
<g id="a_Node000003"><a xlink:href="$classTWeakPtr.html#a1d977c03e4fabb5afcad63f5c69ce2fc" xlink:title=" ">
<polygon fill="white" stroke="#666666" points="194.75,-20.75 110.5,-20.75 110.5,0 194.75,0 194.75,-20.75"/>
<text xml:space="preserve" text-anchor="middle" x="152.62" y="-7.25" font-family="Helvetica,sans-Serif" font-size="10.00">TWeakPtr::Pin</text>
</a>
</g>
</g>
<!-- Node1&#45;&gt;Node3 -->
<g id="edge2_Node000001_Node000003" class="edge">
<title>Node1&#45;&gt;Node3</title>
<g id="a_edge2_Node000001_Node000003"><a xlink:title=" ">
<path fill="none" stroke="#63b8ff" d="M69.49,-23.83C78.72,-22.32 88.94,-20.64 98.96,-19"/>
<polygon fill="#63b8ff" stroke="#63b8ff" points="99.31,-22.49 108.61,-17.42 98.18,-15.58 99.31,-22.49"/>
</a>
</g>
</g>
</g>
</svg>
