<?xml version="1.0" encoding="UTF-8" standalone="no"?>
<!DOCTYPE svg PUBLIC "-//W3C//DTD SVG 1.1//EN"
 "http://www.w3.org/Graphics/SVG/1.1/DTD/svg11.dtd">
<!-- Generated by graphviz version 14.1.4 (0)
 -->
<!-- Title: /opt/unreal&#45;engine/Engine/Source/Runtime/Core/Public/Math/SHMath.h Pages: 1 -->
<svg width="496pt" height="149pt"
 viewBox="0.00 0.00 496.00 149.00" xmlns="http://www.w3.org/2000/svg" xmlns:xlink="http://www.w3.org/1999/xlink">
<g id="graph0" class="graph" transform="scale(1 1) rotate(0) translate(4 145.25)">
<title>/opt/unreal&#45;engine/Engine/Source/Runtime/Core/Public/Math/SHMath.h</title>
<!-- Node1 -->
<g id="Node000001" class="node">
<title>Node1</title>
<g id="a_Node000001"><a xlink:title=" ">
<polygon fill="#999999" stroke="#666666" points="307,-141.25 155.25,-141.25 155.25,-95 307,-95 307,-141.25"/>
<text xml:space="preserve" text-anchor="start" x="163.25" y="-127.75" font-family="Helvetica,sans-Serif" font-size="10.00">/opt/unreal&#45;engine</text>
<text xml:space="preserve" text-anchor="start" x="163.25" y="-115" font-family="Helvetica,sans-Serif" font-size="10.00">/Engine/Source/Runtime</text>
<text xml:space="preserve" text-anchor="middle" x="231.12" y="-102.25" font-family="Helvetica,sans-Serif" font-size="10.00">/Core/Public/Math/SHMath.h</text>
</a>
</g>
</g>
<!-- Node2 -->
<g id="Node000002" class="node">
<title>Node2</title>
<g id="a_Node000002"><a xlink:href="$Core_8h.html" xlink:title=" ">
<polygon fill="white" stroke="#666666" points="132.25,-52.62 0,-52.62 0,-6.38 132.25,-6.38 132.25,-52.62"/>
<text xml:space="preserve" text-anchor="start" x="8" y="-39.12" font-family="Helvetica,sans-Serif" font-size="10.00">/opt/unreal&#45;engine</text>
<text xml:space="preserve" text-anchor="start" x="8" y="-26.38" font-family="Helvetica,sans-Serif" font-size="10.00">/Engine/Source/Runtime</text>
<text xml:space="preserve" text-anchor="middle" x="66.12" y="-13.62" font-family="Helvetica,sans-Serif" font-size="10.00">/Core/Public/Core.h</text>
</a>
</g>
</g>
<!-- Node1&#45;&gt;Node2 -->
<g id="edge1_Node000001_Node000002" class="edge">
<title>Node1&#45;&gt;Node2</title>
<g id="a_edge1_Node000001_Node000002"><a xlink:title=" ">
<path fill="none" stroke="#63b8ff" d="M178.21,-89.35C155.89,-77.63 130.24,-64.16 109.12,-53.07"/>
<polygon fill="#63b8ff" stroke="#63b8ff" points="176.38,-92.34 186.86,-93.89 179.64,-86.14 176.38,-92.34"/>
</a>
</g>
</g>
<!-- Node3 -->
<g id="Node000003" class="node">
<title>Node3</title>
<g id="a_Node000003"><a xlink:href="$CoreSharedPCH_8h.html" xlink:title=" ">
<polygon fill="white" stroke="#666666" points="312.25,-52.62 150,-52.62 150,-6.38 312.25,-6.38 312.25,-52.62"/>
<text xml:space="preserve" text-anchor="start" x="158" y="-39.12" font-family="Helvetica,sans-Serif" font-size="10.00">/opt/unreal&#45;engine</text>
<text xml:space="preserve" text-anchor="start" x="158" y="-26.38" font-family="Helvetica,sans-Serif" font-size="10.00">/Engine/Source/Runtime</text>
<text xml:space="preserve" text-anchor="middle" x="231.12" y="-13.62" font-family="Helvetica,sans-Serif" font-size="10.00">/Core/Public/CoreSharedPCH.h</text>
</a>
</g>
</g>
<!-- Node1&#45;&gt;Node3 -->
<g id="edge2_Node000001_Node000003" class="edge">
<title>Node1&#45;&gt;Node3</title>
<g id="a_edge2_Node000001_Node000003"><a xlink:title=" ">
<path fill="none" stroke="#63b8ff" d="M231.12,-83.36C231.12,-73.19 231.12,-62.28 231.12,-53.03"/>
<polygon fill="#63b8ff" stroke="#63b8ff" points="227.63,-83.3 231.13,-93.3 234.63,-83.3 227.63,-83.3"/>
</a>
</g>
</g>
<!-- Node4 -->
<g id="Node000004" class="node">
<title>Node4</title>
<g id="a_Node000004"><a xlink:href="$SkyLightComponent_8h.html" xlink:title=" ">
<polygon fill="white" stroke="#666666" points="487.62,-59 330.62,-59 330.62,0 487.62,0 487.62,-59"/>
<text xml:space="preserve" text-anchor="start" x="338.62" y="-45.5" font-family="Helvetica,sans-Serif" font-size="10.00">/opt/unreal&#45;engine</text>
<text xml:space="preserve" text-anchor="start" x="338.62" y="-32.75" font-family="Helvetica,sans-Serif" font-size="10.00">/Engine/Source/Runtime</text>
<text xml:space="preserve" text-anchor="start" x="338.62" y="-20" font-family="Helvetica,sans-Serif" font-size="10.00">/Engine/Classes/Components</text>
<text xml:space="preserve" text-anchor="middle" x="409.12" y="-7.25" font-family="Helvetica,sans-Serif" font-size="10.00">/SkyLightComponent.h</text>
</a>
</g>
</g>
<!-- Node1&#45;&gt;Node4 -->
<g id="edge3_Node000001_Node000004" class="edge">
<title>Node1&#45;&gt;Node4</title>
<g id="a_edge3_Node000001_Node000004"><a xlink:title=" ">
<path fill="none" stroke="#63b8ff" d="M287.52,-89.68C307.31,-80.05 329.59,-69.21 349.62,-59.46"/>
<polygon fill="#63b8ff" stroke="#63b8ff" points="286.25,-86.41 278.79,-93.93 289.31,-92.7 286.25,-86.41"/>
</a>
</g>
</g>
</g>
</svg>
