<?xml version="1.0" encoding="UTF-8" standalone="no"?>
<!DOCTYPE svg PUBLIC "-//W3C//DTD SVG 1.1//EN"
 "http://www.w3.org/Graphics/SVG/1.1/DTD/svg11.dtd">
<!-- Generated by graphviz version 14.1.4 (0)
 -->
<!-- Title: /opt/unreal&#45;engine/Engine/Source/Runtime/Engine/Classes/Curves/SimpleCurve.h Pages: 1 -->
<svg width="955pt" height="294pt"
 viewBox="0.00 0.00 955.00 294.00" xmlns="http://www.w3.org/2000/svg" xmlns:xlink="http://www.w3.org/1999/xlink">
<g id="graph0" class="graph" transform="scale(1 1) rotate(0) translate(4 290)">
<title>/opt/unreal&#45;engine/Engine/Source/Runtime/Engine/Classes/Curves/SimpleCurve.h</title>
<!-- Node1 -->
<g id="Node000001" class="node">
<title>Node1</title>
<g id="a_Node000001"><a xlink:title=" ">
<polygon fill="#999999" stroke="#666666" points="271.6,-286 139.35,-286 139.35,-227 271.6,-227 271.6,-286"/>
<text xml:space="preserve" text-anchor="start" x="147.35" y="-272.5" font-family="Helvetica,sans-Serif" font-size="10.00">/opt/unreal&#45;engine</text>
<text xml:space="preserve" text-anchor="start" x="147.35" y="-259.75" font-family="Helvetica,sans-Serif" font-size="10.00">/Engine/Source/Runtime</text>
<text xml:space="preserve" text-anchor="start" x="147.35" y="-247" font-family="Helvetica,sans-Serif" font-size="10.00">/Engine/Classes/Curves</text>
<text xml:space="preserve" text-anchor="middle" x="205.48" y="-234.25" font-family="Helvetica,sans-Serif" font-size="10.00">/SimpleCurve.h</text>
</a>
</g>
</g>
<!-- Node2 -->
<g id="Node000002" class="node">
<title>Node2</title>
<g id="a_Node000002"><a xlink:title=" ">
<polygon fill="#e0e0e0" stroke="#999999" points="364.1,-20.75 276.85,-20.75 276.85,0 364.1,0 364.1,-20.75"/>
<text xml:space="preserve" text-anchor="middle" x="320.48" y="-7.25" font-family="Helvetica,sans-Serif" font-size="10.00">CoreMinimal.h</text>
</a>
</g>
</g>
<!-- Node1&#45;&gt;Node2 -->
<g id="edge1_Node000001_Node000002" class="edge">
<title>Node1&#45;&gt;Node2</title>
<g id="a_edge1_Node000001_Node000002"><a xlink:title=" ">
<path fill="none" stroke="#63b8ff" d="M139.16,-237.42C67.55,-214.49 -31.07,-170.93 10.48,-113.5 68.88,-32.77 193.31,-14.76 265.51,-11.4"/>
<polygon fill="#63b8ff" stroke="#63b8ff" points="265.26,-14.91 275.12,-11.03 264.99,-7.91 265.26,-14.91"/>
</a>
</g>
</g>
<!-- Node3 -->
<g id="Node000003" class="node">
<title>Node3</title>
<g id="a_Node000003"><a xlink:href="RealCurve_8h.html" target="_top" xlink:title=" ">
<polygon fill="white" stroke="#666666" points="261.48,-191 149.48,-191 149.48,-170.25 261.48,-170.25 261.48,-191"/>
<text xml:space="preserve" text-anchor="middle" x="205.48" y="-177.5" font-family="Helvetica,sans-Serif" font-size="10.00">Curves/RealCurve.h</text>
</a>
</g>
</g>
<!-- Node1&#45;&gt;Node3 -->
<g id="edge2_Node000001_Node000003" class="edge">
<title>Node1&#45;&gt;Node3</title>
<g id="a_edge2_Node000001_Node000003"><a xlink:title=" ">
<path fill="none" stroke="#63b8ff" d="M205.48,-226.73C205.48,-218.73 205.48,-210.2 205.48,-202.74"/>
<polygon fill="#63b8ff" stroke="#63b8ff" points="208.98,-202.97 205.48,-192.97 201.98,-202.97 208.98,-202.97"/>
</a>
</g>
</g>
<!-- Node13 -->
<g id="Node000013" class="node">
<title>Node13</title>
<g id="a_Node000013"><a xlink:title=" ">
<polygon fill="#e0e0e0" stroke="#999999" points="419.35,-191 279.6,-191 279.6,-170.25 419.35,-170.25 419.35,-191"/>
<text xml:space="preserve" text-anchor="middle" x="349.48" y="-177.5" font-family="Helvetica,sans-Serif" font-size="10.00">SimpleCurve.generated.h</text>
</a>
</g>
</g>
<!-- Node1&#45;&gt;Node13 -->
<g id="edge16_Node000001_Node000013" class="edge">
<title>Node1&#45;&gt;Node13</title>
<g id="a_edge16_Node000001_Node000013"><a xlink:title=" ">
<path fill="none" stroke="#63b8ff" d="M261.97,-226.51C281.88,-216.3 303.45,-205.24 320.19,-196.65"/>
<polygon fill="#63b8ff" stroke="#63b8ff" points="321.78,-199.77 329.08,-192.09 318.59,-193.54 321.78,-199.77"/>
</a>
</g>
</g>
<!-- Node3&#45;&gt;Node2 -->
<g id="edge3_Node000003_Node000002" class="edge">
<title>Node3&#45;&gt;Node2</title>
<g id="a_edge3_Node000003_Node000002"><a xlink:title=" ">
<path fill="none" stroke="#63b8ff" d="M229.53,-169.86C245.44,-162.29 265.65,-150.37 278.48,-134.25 302.72,-103.78 313.37,-58.48 317.73,-32.24"/>
<polygon fill="#63b8ff" stroke="#63b8ff" points="321.16,-32.95 319.18,-22.54 314.24,-31.91 321.16,-32.95"/>
</a>
</g>
</g>
<!-- Node4 -->
<g id="Node000004" class="node">
<title>Node4</title>
<g id="a_Node000004"><a xlink:href="IndexedCurve_8h.html" target="_top" xlink:title=" ">
<polygon fill="white" stroke="#666666" points="564.1,-134.25 434.85,-134.25 434.85,-113.5 564.1,-113.5 564.1,-134.25"/>
<text xml:space="preserve" text-anchor="middle" x="499.48" y="-120.75" font-family="Helvetica,sans-Serif" font-size="10.00">Curves/IndexedCurve.h</text>
</a>
</g>
</g>
<!-- Node3&#45;&gt;Node4 -->
<g id="edge4_Node000003_Node000004" class="edge">
<title>Node3&#45;&gt;Node4</title>
<g id="a_edge4_Node000003_Node000004"><a xlink:title=" ">
<path fill="none" stroke="#63b8ff" d="M258.38,-169.77C307.97,-160.54 382.22,-146.71 435.2,-136.84"/>
<polygon fill="#63b8ff" stroke="#63b8ff" points="435.83,-140.29 445.02,-135.02 434.54,-133.41 435.83,-140.29"/>
</a>
</g>
</g>
<!-- Node11 -->
<g id="Node000011" class="node">
<title>Node11</title>
<g id="a_Node000011"><a xlink:title=" ">
<polygon fill="#e0e0e0" stroke="#999999" points="123.35,-134.25 19.6,-134.25 19.6,-113.5 123.35,-113.5 123.35,-134.25"/>
<text xml:space="preserve" text-anchor="middle" x="71.48" y="-120.75" font-family="Helvetica,sans-Serif" font-size="10.00">Misc/FrameRate.h</text>
</a>
</g>
</g>
<!-- Node3&#45;&gt;Node11 -->
<g id="edge14_Node000003_Node000011" class="edge">
<title>Node3&#45;&gt;Node11</title>
<g id="a_edge14_Node000003_Node000011"><a xlink:title=" ">
<path fill="none" stroke="#63b8ff" d="M181.52,-169.84C160.46,-161.23 129.57,-148.61 105.87,-138.93"/>
<polygon fill="#63b8ff" stroke="#63b8ff" points="107.21,-135.69 96.63,-135.15 104.56,-142.17 107.21,-135.69"/>
</a>
</g>
</g>
<!-- Node12 -->
<g id="Node000012" class="node">
<title>Node12</title>
<g id="a_Node000012"><a xlink:title=" ">
<polygon fill="#e0e0e0" stroke="#999999" points="269.35,-134.25 141.6,-134.25 141.6,-113.5 269.35,-113.5 269.35,-134.25"/>
<text xml:space="preserve" text-anchor="middle" x="205.48" y="-120.75" font-family="Helvetica,sans-Serif" font-size="10.00">RealCurve.generated.h</text>
</a>
</g>
</g>
<!-- Node3&#45;&gt;Node12 -->
<g id="edge15_Node000003_Node000012" class="edge">
<title>Node3&#45;&gt;Node12</title>
<g id="a_edge15_Node000003_Node000012"><a xlink:title=" ">
<path fill="none" stroke="#63b8ff" d="M205.48,-169.84C205.48,-163.22 205.48,-154.22 205.48,-146.02"/>
<polygon fill="#63b8ff" stroke="#63b8ff" points="208.98,-146.09 205.48,-136.09 201.98,-146.09 208.98,-146.09"/>
</a>
</g>
</g>
<!-- Node4&#45;&gt;Node2 -->
<g id="edge5_Node000004_Node000002" class="edge">
<title>Node4&#45;&gt;Node2</title>
<g id="a_edge5_Node000004_Node000002"><a xlink:title=" ">
<path fill="none" stroke="#63b8ff" d="M499.49,-113.34C498.98,-99.04 495.87,-72.1 480.48,-56.75 465.6,-41.92 415.96,-29.3 375.87,-21.15"/>
<polygon fill="#63b8ff" stroke="#63b8ff" points="376.56,-17.72 366.07,-19.22 375.21,-24.59 376.56,-17.72"/>
</a>
</g>
</g>
<!-- Node5 -->
<g id="Node000005" class="node">
<title>Node5</title>
<g id="a_Node000005"><a xlink:title=" ">
<polygon fill="#e0e0e0" stroke="#999999" points="539.35,-20.75 405.6,-20.75 405.6,0 539.35,0 539.35,-20.75"/>
<text xml:space="preserve" text-anchor="middle" x="472.48" y="-7.25" font-family="Helvetica,sans-Serif" font-size="10.00">UObject/ObjectMacros.h</text>
</a>
</g>
</g>
<!-- Node4&#45;&gt;Node5 -->
<g id="edge6_Node000004_Node000005" class="edge">
<title>Node4&#45;&gt;Node5</title>
<g id="a_edge6_Node000004_Node000005"><a xlink:title=" ">
<path fill="none" stroke="#63b8ff" d="M504.9,-113.19C511.49,-100.05 520.89,-76.02 513.48,-56.75 509.33,-45.98 501.31,-36.18 493.46,-28.46"/>
<polygon fill="#63b8ff" stroke="#63b8ff" points="496.07,-26.1 486.32,-21.98 491.37,-31.29 496.07,-26.1"/>
</a>
</g>
</g>
<!-- Node6 -->
<g id="Node000006" class="node">
<title>Node6</title>
<g id="a_Node000006"><a xlink:href="KeyHandle_8h.html" target="_top" xlink:title=" ">
<polygon fill="white" stroke="#666666" points="679.6,-77.5 565.35,-77.5 565.35,-56.75 679.6,-56.75 679.6,-77.5"/>
<text xml:space="preserve" text-anchor="middle" x="622.48" y="-64" font-family="Helvetica,sans-Serif" font-size="10.00">Curves/KeyHandle.h</text>
</a>
</g>
</g>
<!-- Node4&#45;&gt;Node6 -->
<g id="edge7_Node000004_Node000006" class="edge">
<title>Node4&#45;&gt;Node6</title>
<g id="a_edge7_Node000004_Node000006"><a xlink:title=" ">
<path fill="none" stroke="#63b8ff" d="M521.47,-113.09C540.62,-104.56 568.64,-92.09 590.31,-82.44"/>
<polygon fill="#63b8ff" stroke="#63b8ff" points="591.58,-85.71 599.29,-78.44 588.73,-79.31 591.58,-85.71"/>
</a>
</g>
</g>
<!-- Node10 -->
<g id="Node000010" class="node">
<title>Node10</title>
<g id="a_Node000010"><a xlink:title=" ">
<polygon fill="#e0e0e0" stroke="#999999" points="470.98,-77.5 325.98,-77.5 325.98,-56.75 470.98,-56.75 470.98,-77.5"/>
<text xml:space="preserve" text-anchor="middle" x="398.48" y="-64" font-family="Helvetica,sans-Serif" font-size="10.00">IndexedCurve.generated.h</text>
</a>
</g>
</g>
<!-- Node4&#45;&gt;Node10 -->
<g id="edge13_Node000004_Node000010" class="edge">
<title>Node4&#45;&gt;Node10</title>
<g id="a_edge13_Node000004_Node000010"><a xlink:title=" ">
<path fill="none" stroke="#63b8ff" d="M481.42,-113.09C466.05,-104.76 443.73,-92.66 426.12,-83.11"/>
<polygon fill="#63b8ff" stroke="#63b8ff" points="428.17,-80.24 417.71,-78.55 424.83,-86.39 428.17,-80.24"/>
</a>
</g>
</g>
<!-- Node6&#45;&gt;Node2 -->
<g id="edge8_Node000006_Node000002" class="edge">
<title>Node6&#45;&gt;Node2</title>
<g id="a_edge8_Node000006_Node000002"><a xlink:title=" ">
<path fill="none" stroke="#63b8ff" d="M568.13,-56.27C513.75,-46.41 430.52,-31.33 375.8,-21.4"/>
<polygon fill="#63b8ff" stroke="#63b8ff" points="376.53,-17.98 366.06,-19.64 375.28,-24.87 376.53,-17.98"/>
</a>
</g>
</g>
<!-- Node6&#45;&gt;Node5 -->
<g id="edge10_Node000006_Node000005" class="edge">
<title>Node6&#45;&gt;Node5</title>
<g id="a_edge10_Node000006_Node000005"><a xlink:title=" ">
<path fill="none" stroke="#63b8ff" d="M595.66,-56.34C571.74,-47.61 536.47,-34.73 509.8,-25"/>
<polygon fill="#63b8ff" stroke="#63b8ff" points="511.33,-21.83 500.73,-21.69 508.93,-28.41 511.33,-21.83"/>
</a>
</g>
</g>
<!-- Node7 -->
<g id="Node000007" class="node">
<title>Node7</title>
<g id="a_Node000007"><a xlink:title=" ">
<polygon fill="#e0e0e0" stroke="#999999" points="687.48,-20.75 557.48,-20.75 557.48,0 687.48,0 687.48,-20.75"/>
<text xml:space="preserve" text-anchor="middle" x="622.48" y="-7.25" font-family="Helvetica,sans-Serif" font-size="10.00">Containers/ArrayView.h</text>
</a>
</g>
</g>
<!-- Node6&#45;&gt;Node7 -->
<g id="edge9_Node000006_Node000007" class="edge">
<title>Node6&#45;&gt;Node7</title>
<g id="a_edge9_Node000006_Node000007"><a xlink:title=" ">
<path fill="none" stroke="#63b8ff" d="M622.48,-56.34C622.48,-49.72 622.48,-40.72 622.48,-32.52"/>
<polygon fill="#63b8ff" stroke="#63b8ff" points="625.98,-32.59 622.48,-22.59 618.98,-32.59 625.98,-32.59"/>
</a>
</g>
</g>
<!-- Node8 -->
<g id="Node000008" class="node">
<title>Node8</title>
<g id="a_Node000008"><a xlink:title=" ">
<polygon fill="#e0e0e0" stroke="#999999" points="799.1,-20.75 705.85,-20.75 705.85,0 799.1,0 799.1,-20.75"/>
<text xml:space="preserve" text-anchor="middle" x="752.48" y="-7.25" font-family="Helvetica,sans-Serif" font-size="10.00">UObject/Class.h</text>
</a>
</g>
</g>
<!-- Node6&#45;&gt;Node8 -->
<g id="edge11_Node000006_Node000008" class="edge">
<title>Node6&#45;&gt;Node8</title>
<g id="a_edge11_Node000006_Node000008"><a xlink:title=" ">
<path fill="none" stroke="#63b8ff" d="M645.72,-56.34C666.14,-47.73 696.11,-35.11 719.1,-25.43"/>
<polygon fill="#63b8ff" stroke="#63b8ff" points="720.18,-28.77 728.04,-21.67 717.47,-22.32 720.18,-28.77"/>
</a>
</g>
</g>
<!-- Node9 -->
<g id="Node000009" class="node">
<title>Node9</title>
<g id="a_Node000009"><a xlink:title=" ">
<polygon fill="#e0e0e0" stroke="#999999" points="947.48,-20.75 817.48,-20.75 817.48,0 947.48,0 947.48,-20.75"/>
<text xml:space="preserve" text-anchor="middle" x="882.48" y="-7.25" font-family="Helvetica,sans-Serif" font-size="10.00">KeyHandle.generated.h</text>
</a>
</g>
</g>
<!-- Node6&#45;&gt;Node9 -->
<g id="edge12_Node000006_Node000009" class="edge">
<title>Node6&#45;&gt;Node9</title>
<g id="a_edge12_Node000006_Node000009"><a xlink:title=" ">
<path fill="none" stroke="#63b8ff" d="M669.26,-56.27C712.75,-47.12 777.68,-33.44 824.45,-23.59"/>
<polygon fill="#63b8ff" stroke="#63b8ff" points="825.08,-27.04 834.15,-21.55 823.64,-20.19 825.08,-27.04"/>
</a>
</g>
</g>
</g>
</svg>
