<?xml version="1.0" encoding="UTF-8" standalone="no"?>
<!DOCTYPE svg PUBLIC "-//W3C//DTD SVG 1.1//EN"
 "http://www.w3.org/Graphics/SVG/1.1/DTD/svg11.dtd">
<!-- Generated by graphviz version 14.1.4 (0)
 -->
<!-- Title: RadixSort32 Pages: 1 -->
<svg width="522pt" height="42pt"
 viewBox="0.00 0.00 522.00 42.00" xmlns="http://www.w3.org/2000/svg" xmlns:xlink="http://www.w3.org/1999/xlink">
<g id="graph0" class="graph" transform="scale(1 1) rotate(0) translate(4 37.5)">
<title>RadixSort32</title>
<!-- Node1 -->
<g id="Node000001" class="node">
<title>Node1</title>
<g id="a_Node000001"><a xlink:title=" ">
<polygon fill="#999999" stroke="#666666" points="75.25,-27.12 0,-27.12 0,-6.38 75.25,-6.38 75.25,-27.12"/>
<text xml:space="preserve" text-anchor="middle" x="37.62" y="-13.62" font-family="Helvetica,sans-Serif" font-size="10.00">RadixSort32</text>
</a>
</g>
</g>
<!-- Node2 -->
<g id="Node000002" class="node">
<title>Node2</title>
<g id="a_Node000002"><a xlink:href="$Sorting_8h.html#ab3c3c9993d78fde95f49130a289209e1" xlink:title=" ">
<polygon fill="white" stroke="#666666" points="186.5,-27.12 111.25,-27.12 111.25,-6.38 186.5,-6.38 186.5,-27.12"/>
<text xml:space="preserve" text-anchor="middle" x="148.88" y="-13.62" font-family="Helvetica,sans-Serif" font-size="10.00">RadixSort32</text>
</a>
</g>
</g>
<!-- Node1&#45;&gt;Node2 -->
<g id="edge1_Node000001_Node000002" class="edge">
<title>Node1&#45;&gt;Node2</title>
<g id="a_edge1_Node000001_Node000002"><a xlink:title=" ">
<path fill="none" stroke="#63b8ff" d="M75.61,-16.75C83.26,-16.75 91.43,-16.75 99.43,-16.75"/>
<polygon fill="#63b8ff" stroke="#63b8ff" points="99.41,-20.25 109.41,-16.75 99.41,-13.25 99.41,-20.25"/>
</a>
</g>
</g>
<!-- Node3 -->
<g id="Node000003" class="node">
<title>Node3</title>
<g id="a_Node000003"><a xlink:href="$structFMemory.html#a0c994a83497975531144f346a25bf43f" xlink:title=" ">
<polygon fill="white" stroke="#666666" points="336,-27.12 222.5,-27.12 222.5,-6.38 336,-6.38 336,-27.12"/>
<text xml:space="preserve" text-anchor="middle" x="279.25" y="-13.62" font-family="Helvetica,sans-Serif" font-size="10.00">FMemory::Memzero</text>
</a>
</g>
</g>
<!-- Node2&#45;&gt;Node3 -->
<g id="edge2_Node000002_Node000003" class="edge">
<title>Node2&#45;&gt;Node3</title>
<g id="a_edge2_Node000002_Node000003"><a xlink:title=" ">
<path fill="none" stroke="#63b8ff" d="M186.66,-16.75C194.3,-16.75 202.58,-16.75 210.93,-16.75"/>
<polygon fill="#63b8ff" stroke="#63b8ff" points="210.79,-20.25 220.79,-16.75 210.79,-13.25 210.79,-20.25"/>
</a>
</g>
</g>
<!-- Node4 -->
<g id="Node000004" class="node">
<title>Node4</title>
<g id="a_Node000004"><a xlink:href="$structFGenericPlatformMemory.html#abb57e9534c77d8b8f5121f926b0dc497" xlink:title=" ">
<polygon fill="white" stroke="#666666" points="514,-33.5 372,-33.5 372,0 514,0 514,-33.5"/>
<text xml:space="preserve" text-anchor="start" x="380" y="-20" font-family="Helvetica,sans-Serif" font-size="10.00">FGenericPlatformMemory</text>
<text xml:space="preserve" text-anchor="middle" x="443" y="-7.25" font-family="Helvetica,sans-Serif" font-size="10.00">::Memzero</text>
</a>
</g>
</g>
<!-- Node3&#45;&gt;Node4 -->
<g id="edge3_Node000003_Node000004" class="edge">
<title>Node3&#45;&gt;Node4</title>
<g id="a_edge3_Node000003_Node000004"><a xlink:title=" ">
<path fill="none" stroke="#63b8ff" d="M336.37,-16.75C344.12,-16.75 352.21,-16.75 360.31,-16.75"/>
<polygon fill="#63b8ff" stroke="#63b8ff" points="360.22,-20.25 370.22,-16.75 360.22,-13.25 360.22,-20.25"/>
</a>
</g>
</g>
</g>
</svg>
