<?xml version="1.0" encoding="UTF-8" standalone="no"?>
<!DOCTYPE svg PUBLIC "-//W3C//DTD SVG 1.1//EN"
 "http://www.w3.org/Graphics/SVG/1.1/DTD/svg11.dtd">
<!-- Generated by graphviz version 14.1.4 (0)
 -->
<!-- Title: /opt/unreal&#45;engine/Engine/Source/Runtime/Engine/Classes/Sound/SoundModulationDestination.h Pages: 1 -->
<svg width="1320pt" height="124pt"
 viewBox="0.00 0.00 1320.00 124.00" xmlns="http://www.w3.org/2000/svg" xmlns:xlink="http://www.w3.org/1999/xlink">
<g id="graph0" class="graph" transform="scale(1 1) rotate(0) translate(4 119.75)">
<title>/opt/unreal&#45;engine/Engine/Source/Runtime/Engine/Classes/Sound/SoundModulationDestination.h</title>
<!-- Node1 -->
<g id="Node000001" class="node">
<title>Node1</title>
<g id="a_Node000001"><a xlink:title=" ">
<polygon fill="#999999" stroke="#666666" points="717.5,-115.75 548.5,-115.75 548.5,-56.75 717.5,-56.75 717.5,-115.75"/>
<text xml:space="preserve" text-anchor="start" x="556.5" y="-102.25" font-family="Helvetica,sans-Serif" font-size="10.00">/opt/unreal&#45;engine</text>
<text xml:space="preserve" text-anchor="start" x="556.5" y="-89.5" font-family="Helvetica,sans-Serif" font-size="10.00">/Engine/Source/Runtime</text>
<text xml:space="preserve" text-anchor="start" x="556.5" y="-76.75" font-family="Helvetica,sans-Serif" font-size="10.00">/Engine/Classes/Sound</text>
<text xml:space="preserve" text-anchor="middle" x="633" y="-64" font-family="Helvetica,sans-Serif" font-size="10.00">/SoundModulationDestination.h</text>
</a>
</g>
</g>
<!-- Node2 -->
<g id="Node000002" class="node">
<title>Node2</title>
<g id="a_Node000002"><a xlink:title=" ">
<polygon fill="#e0e0e0" stroke="#999999" points="130,-20.75 0,-20.75 0,0 130,0 130,-20.75"/>
<text xml:space="preserve" text-anchor="middle" x="65" y="-7.25" font-family="Helvetica,sans-Serif" font-size="10.00">Containers/ArrayView.h</text>
</a>
</g>
</g>
<!-- Node1&#45;&gt;Node2 -->
<g id="edge1_Node000001_Node000002" class="edge">
<title>Node1&#45;&gt;Node2</title>
<g id="a_edge1_Node000001_Node000002"><a xlink:title=" ">
<path fill="none" stroke="#63b8ff" d="M548.27,-74.23C438.17,-59.91 247.51,-35.11 141.57,-21.33"/>
<polygon fill="#63b8ff" stroke="#63b8ff" points="142.2,-17.89 131.83,-20.07 141.3,-24.83 142.2,-17.89"/>
</a>
</g>
</g>
<!-- Node3 -->
<g id="Node000003" class="node">
<title>Node3</title>
<g id="a_Node000003"><a xlink:title=" ">
<polygon fill="#e0e0e0" stroke="#999999" points="244.12,-20.75 147.88,-20.75 147.88,0 244.12,0 244.12,-20.75"/>
<text xml:space="preserve" text-anchor="middle" x="196" y="-7.25" font-family="Helvetica,sans-Serif" font-size="10.00">Containers/Set.h</text>
</a>
</g>
</g>
<!-- Node1&#45;&gt;Node3 -->
<g id="edge2_Node000001_Node000003" class="edge">
<title>Node1&#45;&gt;Node3</title>
<g id="a_edge2_Node000001_Node000003"><a xlink:title=" ">
<path fill="none" stroke="#63b8ff" d="M548.22,-70.92C462.17,-56.37 331.15,-34.22 255.52,-21.44"/>
<polygon fill="#63b8ff" stroke="#63b8ff" points="256.26,-18.01 245.82,-19.8 255.1,-24.92 256.26,-18.01"/>
</a>
</g>
</g>
<!-- Node4 -->
<g id="Node000004" class="node">
<title>Node4</title>
<g id="a_Node000004"><a xlink:title=" ">
<polygon fill="#e0e0e0" stroke="#999999" points="424.12,-20.75 261.88,-20.75 261.88,0 424.12,0 424.12,-20.75"/>
<text xml:space="preserve" text-anchor="middle" x="343" y="-7.25" font-family="Helvetica,sans-Serif" font-size="10.00">DSP/BufferVectorOperations.h</text>
</a>
</g>
</g>
<!-- Node1&#45;&gt;Node4 -->
<g id="edge3_Node000001_Node000004" class="edge">
<title>Node1&#45;&gt;Node4</title>
<g id="a_edge3_Node000001_Node000004"><a xlink:title=" ">
<path fill="none" stroke="#63b8ff" d="M548.34,-63.68C497.7,-50.78 435.1,-34.84 392.42,-23.96"/>
<polygon fill="#63b8ff" stroke="#63b8ff" points="393.5,-20.63 382.95,-21.55 391.77,-27.41 393.5,-20.63"/>
</a>
</g>
</g>
<!-- Node5 -->
<g id="Node000005" class="node">
<title>Node5</title>
<g id="a_Node000005"><a xlink:title=" ">
<polygon fill="#e0e0e0" stroke="#999999" points="560,-20.75 442,-20.75 442,0 560,0 560,-20.75"/>
<text xml:space="preserve" text-anchor="middle" x="501" y="-7.25" font-family="Helvetica,sans-Serif" font-size="10.00">HAL/CriticalSection.h</text>
</a>
</g>
</g>
<!-- Node1&#45;&gt;Node5 -->
<g id="edge4_Node000001_Node000005" class="edge">
<title>Node1&#45;&gt;Node5</title>
<g id="a_edge4_Node000001_Node000005"><a xlink:title=" ">
<path fill="none" stroke="#63b8ff" d="M581.21,-56.26C563.13,-46.15 543.57,-35.2 528.28,-26.64"/>
<polygon fill="#63b8ff" stroke="#63b8ff" points="530.21,-23.71 519.78,-21.88 526.8,-29.82 530.21,-23.71"/>
</a>
</g>
</g>
<!-- Node6 -->
<g id="Node000006" class="node">
<title>Node6</title>
<g id="a_Node000006"><a xlink:title=" ">
<polygon fill="#e0e0e0" stroke="#999999" points="688.25,-20.75 577.75,-20.75 577.75,0 688.25,0 688.25,-20.75"/>
<text xml:space="preserve" text-anchor="middle" x="633" y="-7.25" font-family="Helvetica,sans-Serif" font-size="10.00">IAudioModulation.h</text>
</a>
</g>
</g>
<!-- Node1&#45;&gt;Node6 -->
<g id="edge5_Node000001_Node000006" class="edge">
<title>Node1&#45;&gt;Node6</title>
<g id="a_edge5_Node000001_Node000006"><a xlink:title=" ">
<path fill="none" stroke="#63b8ff" d="M633,-56.48C633,-48.48 633,-39.95 633,-32.49"/>
<polygon fill="#63b8ff" stroke="#63b8ff" points="636.5,-32.72 633,-22.72 629.5,-32.72 636.5,-32.72"/>
</a>
</g>
</g>
<!-- Node7 -->
<g id="Node000007" class="node">
<title>Node7</title>
<g id="a_Node000007"><a xlink:title=" ">
<polygon fill="#e0e0e0" stroke="#999999" points="830,-20.75 706,-20.75 706,0 830,0 830,-20.75"/>
<text xml:space="preserve" text-anchor="middle" x="768" y="-7.25" font-family="Helvetica,sans-Serif" font-size="10.00">UObject/NameTypes.h</text>
</a>
</g>
</g>
<!-- Node1&#45;&gt;Node7 -->
<g id="edge6_Node000001_Node000007" class="edge">
<title>Node1&#45;&gt;Node7</title>
<g id="a_edge6_Node000001_Node000007"><a xlink:title=" ">
<path fill="none" stroke="#63b8ff" d="M685.97,-56.26C704.45,-46.15 724.47,-35.2 740.1,-26.64"/>
<polygon fill="#63b8ff" stroke="#63b8ff" points="741.72,-29.74 748.82,-21.87 738.36,-23.6 741.72,-29.74"/>
</a>
</g>
</g>
<!-- Node8 -->
<g id="Node000008" class="node">
<title>Node8</title>
<g id="a_Node000008"><a xlink:title=" ">
<polygon fill="#e0e0e0" stroke="#999999" points="946.25,-20.75 847.75,-20.75 847.75,0 946.25,0 946.25,-20.75"/>
<text xml:space="preserve" text-anchor="middle" x="897" y="-7.25" font-family="Helvetica,sans-Serif" font-size="10.00">UObject/Object.h</text>
</a>
</g>
</g>
<!-- Node1&#45;&gt;Node8 -->
<g id="edge7_Node000001_Node000008" class="edge">
<title>Node1&#45;&gt;Node8</title>
<g id="a_edge7_Node000001_Node000008"><a xlink:title=" ">
<path fill="none" stroke="#63b8ff" d="M717.98,-61.47C762.11,-49.12 814.29,-34.52 850.9,-24.28"/>
<polygon fill="#63b8ff" stroke="#63b8ff" points="851.59,-27.72 860.27,-21.65 849.7,-20.98 851.59,-27.72"/>
</a>
</g>
</g>
<!-- Node9 -->
<g id="Node000009" class="node">
<title>Node9</title>
<g id="a_Node000009"><a xlink:title=" ">
<polygon fill="#e0e0e0" stroke="#999999" points="1076,-20.75 964,-20.75 964,0 1076,0 1076,-20.75"/>
<text xml:space="preserve" text-anchor="middle" x="1020" y="-7.25" font-family="Helvetica,sans-Serif" font-size="10.00">UObject/ObjectPtr.h</text>
</a>
</g>
</g>
<!-- Node1&#45;&gt;Node9 -->
<g id="edge8_Node000001_Node000009" class="edge">
<title>Node1&#45;&gt;Node9</title>
<g id="a_edge8_Node000001_Node000009"><a xlink:title=" ">
<path fill="none" stroke="#63b8ff" d="M717.93,-69.04C790.13,-55.25 892.16,-35.78 957.2,-23.36"/>
<polygon fill="#63b8ff" stroke="#63b8ff" points="957.84,-26.8 967.01,-21.49 956.53,-19.93 957.84,-26.8"/>
</a>
</g>
</g>
<!-- Node10 -->
<g id="Node000010" class="node">
<title>Node10</title>
<g id="a_Node000010"><a xlink:title=" ">
<polygon fill="#e0e0e0" stroke="#999999" points="1312.25,-20.75 1093.75,-20.75 1093.75,0 1312.25,0 1312.25,-20.75"/>
<text xml:space="preserve" text-anchor="middle" x="1203" y="-7.25" font-family="Helvetica,sans-Serif" font-size="10.00">SoundModulationDestination.generated.h</text>
</a>
</g>
</g>
<!-- Node1&#45;&gt;Node10 -->
<g id="edge9_Node000001_Node000010" class="edge">
<title>Node1&#45;&gt;Node10</title>
<g id="a_edge9_Node000001_Node000010"><a xlink:title=" ">
<path fill="none" stroke="#63b8ff" d="M717.72,-74.27C824.65,-60.41 1007.64,-36.69 1115.75,-22.68"/>
<polygon fill="#63b8ff" stroke="#63b8ff" points="1115.98,-26.18 1125.44,-21.43 1115.08,-19.24 1115.98,-26.18"/>
</a>
</g>
</g>
</g>
</svg>
