<?xml version="1.0" encoding="UTF-8" standalone="no"?>
<!DOCTYPE svg PUBLIC "-//W3C//DTD SVG 1.1//EN"
 "http://www.w3.org/Graphics/SVG/1.1/DTD/svg11.dtd">
<!-- Generated by graphviz version 14.1.4 (0)
 -->
<!-- Title: /opt/unreal&#45;engine/Engine/Source/Runtime/Engine/Classes/Engine/StaticMeshSourceData.h Pages: 1 -->
<!--zoomable 237 -->

<svg id="main" version="1.1" xmlns="http://www.w3.org/2000/svg" xmlns:xlink="http://www.w3.org/1999/xlink" xml:space="preserve" onload="init(evt)">

<style type="text/css"><![CDATA[
.node, .edge {opacity: 0.7;}
.node.selected, .edge.selected {opacity: 1;}
.edge:hover path { stroke: red; }
.edge:hover polygon { stroke: red; fill: red; }
]]></style>

<defs>
  <circle id="rim" cx="0" cy="0" r="7"/>
  <circle id="rim2" cx="0" cy="0" r="3.5"/>
  <g id="zoomPlus">
    <use xlink:href="#rim" fill="#404040"><set attributeName="fill" to="#808080" begin="zoomplus.mouseover" end="zoomplus.mouseout"/></use>
    <path d="M-4,0h8M0,-4v8" fill="none" stroke="white" stroke-width="1.5" pointer-events="none"/>
  </g>
  <g id="zoomMin">
    <use xlink:href="#rim" fill="#404040"><set attributeName="fill" to="#808080" begin="zoomminus.mouseover" end="zoomminus.mouseout"/></use>
    <path d="M-4,0h8" fill="none" stroke="white" stroke-width="1.5" pointer-events="none"/>
  </g>
  <g id="arrowUp" transform="translate(30 24)">
    <use xlink:href="#rim"/>
    <path pointer-events="none" fill="none" stroke="white" stroke-width="1.5" d="M0,-3.0v7 M-2.5,-0.5L0,-3.0L2.5,-0.5"/>
  </g>
  <g id="arrowRight" transform="rotate(90) translate(36 -43)">
    <use xlink:href="#rim"/>
    <path pointer-events="none" fill="none" stroke="white" stroke-width="1.5" d="M0,-3.0v7 M-2.5,-0.5L0,-3.0L2.5,-0.5"/>
  </g>
  <g id="arrowDown" transform="rotate(180) translate(-30 -48)">
    <use xlink:href="#rim"/>
    <path pointer-events="none" fill="none" stroke="white" stroke-width="1.5" d="M0,-3.0v7 M-2.5,-0.5L0,-3.0L2.5,-0.5"/>
  </g>
  <g id="arrowLeft" transform="rotate(270) translate(-36 17)">
    <use xlink:href="#rim"/>
    <path pointer-events="none" fill="none" stroke="white" stroke-width="1.5" d="M0,-3.0v7 M-2.5,-0.5L0,-3.0L2.5,-0.5"/>
  </g>
  <g id="resetDef">
    <use xlink:href="#rim2" fill="#404040"><set attributeName="fill" to="#808080" begin="reset.mouseover" end="reset.mouseout"/></use>
  </g>
</defs>
<script type="application/ecmascript">
var viewWidth = 1763;
var viewHeight = 237;
var sectionId = 'dynsection-0';
</script>
<script type="application/ecmascript" xlink:href="svg.min.js"/>
<svg id="graph" class="graph">
<g id="viewport">
<title>/opt/unreal&#45;engine/Engine/Source/Runtime/Engine/Classes/Engine/StaticMeshSourceData.h</title>
<!-- Node1 -->
<g id="Node000001" class="node">
<title>Node1</title>
<g id="a_Node000001"><a xlink:title=" ">
<polygon fill="#999999" stroke="#666666" points="1179.75,-229.25 1041.5,-229.25 1041.5,-170.25 1179.75,-170.25 1179.75,-229.25"/>
<text xml:space="preserve" text-anchor="start" x="1049.5" y="-215.75" font-family="Helvetica,sans-Serif" font-size="10.00">/opt/unreal&#45;engine</text>
<text xml:space="preserve" text-anchor="start" x="1049.5" y="-203" font-family="Helvetica,sans-Serif" font-size="10.00">/Engine/Source/Runtime</text>
<text xml:space="preserve" text-anchor="start" x="1049.5" y="-190.25" font-family="Helvetica,sans-Serif" font-size="10.00">/Engine/Classes/Engine</text>
<text xml:space="preserve" text-anchor="middle" x="1110.62" y="-177.5" font-family="Helvetica,sans-Serif" font-size="10.00">/StaticMeshSourceData.h</text>
</a>
</g>
</g>
<!-- Node2 -->
<g id="Node000002" class="node">
<title>Node2</title>
<g id="a_Node000002"><a xlink:title=" ">
<polygon fill="#e0e0e0" stroke="#999999" points="87.25,-20.75 0,-20.75 0,0 87.25,0 87.25,-20.75"/>
<text xml:space="preserve" text-anchor="middle" x="43.62" y="-7.25" font-family="Helvetica,sans-Serif" font-size="10.00">CoreMinimal.h</text>
</a>
</g>
</g>
<!-- Node1&#45;&gt;Node2 -->
<g id="edge1_Node000001_Node000002" class="edge">
<title>Node1&#45;&gt;Node2</title>
<g id="a_edge1_Node000001_Node000002"><a xlink:title=" ">
<path fill="none" stroke="#63b8ff" d="M1041.13,-196.37C810.26,-187.74 79.61,-154.51 10.62,-77.5 -2.14,-63.25 11.15,-43.18 24.48,-28.89"/>
<polygon fill="#63b8ff" stroke="#63b8ff" points="26.87,-31.46 31.48,-21.92 21.93,-26.5 26.87,-31.46"/>
</a>
</g>
</g>
<!-- Node3 -->
<g id="Node000003" class="node">
<title>Node3</title>
<g id="a_Node000003"><a xlink:title=" ">
<polygon fill="#e0e0e0" stroke="#999999" points="1198.5,-134.25 1022.75,-134.25 1022.75,-113.5 1198.5,-113.5 1198.5,-134.25"/>
<text xml:space="preserve" text-anchor="middle" x="1110.62" y="-120.75" font-family="Helvetica,sans-Serif" font-size="10.00">MeshDescriptionBaseBulkData.h</text>
</a>
</g>
</g>
<!-- Node1&#45;&gt;Node3 -->
<g id="edge2_Node000001_Node000003" class="edge">
<title>Node1&#45;&gt;Node3</title>
<g id="a_edge2_Node000001_Node000003"><a xlink:title=" ">
<path fill="none" stroke="#63b8ff" d="M1110.62,-169.98C1110.62,-161.98 1110.62,-153.45 1110.62,-145.99"/>
<polygon fill="#63b8ff" stroke="#63b8ff" points="1114.13,-146.22 1110.63,-136.22 1107.13,-146.22 1114.13,-146.22"/>
</a>
</g>
</g>
<!-- Node4 -->
<g id="Node000004" class="node">
<title>Node4</title>
<g id="a_Node000004"><a xlink:href="EngineTypes_8h.html" target="_top" xlink:title=" ">
<polygon fill="white" stroke="#666666" points="671.5,-134.25 549.75,-134.25 549.75,-113.5 671.5,-113.5 671.5,-134.25"/>
<text xml:space="preserve" text-anchor="middle" x="610.62" y="-120.75" font-family="Helvetica,sans-Serif" font-size="10.00">Engine/EngineTypes.h</text>
</a>
</g>
</g>
<!-- Node1&#45;&gt;Node4 -->
<g id="edge3_Node000001_Node000004" class="edge">
<title>Node1&#45;&gt;Node4</title>
<g id="a_edge3_Node000001_Node000004"><a xlink:title=" ">
<path fill="none" stroke="#63b8ff" d="M1041.1,-188.48C946.73,-174.53 778.88,-149.74 683.04,-135.57"/>
<polygon fill="#63b8ff" stroke="#63b8ff" points="683.62,-132.12 673.21,-134.12 682.59,-139.05 683.62,-132.12"/>
</a>
</g>
</g>
<!-- Node6 -->
<g id="Node000006" class="node">
<title>Node6</title>
<g id="a_Node000006"><a xlink:title=" ">
<polygon fill="#e0e0e0" stroke="#999999" points="770.5,-20.75 636.75,-20.75 636.75,0 770.5,0 770.5,-20.75"/>
<text xml:space="preserve" text-anchor="middle" x="703.62" y="-7.25" font-family="Helvetica,sans-Serif" font-size="10.00">UObject/ObjectMacros.h</text>
</a>
</g>
</g>
<!-- Node1&#45;&gt;Node6 -->
<g id="edge19_Node000001_Node000006" class="edge">
<title>Node1&#45;&gt;Node6</title>
<g id="a_edge19_Node000001_Node000006"><a xlink:title=" ">
<path fill="none" stroke="#63b8ff" d="M1056.3,-169.82C1041.18,-159.97 1025.63,-147.93 1013.62,-134.25 988.33,-105.41 1006.39,-79.66 975.62,-56.75 945.71,-34.47 851.43,-22.5 782.23,-16.55"/>
<polygon fill="#63b8ff" stroke="#63b8ff" points="782.69,-13.07 772.43,-15.73 782.11,-20.05 782.69,-13.07"/>
</a>
</g>
</g>
<!-- Node16 -->
<g id="Node000016" class="node">
<title>Node16</title>
<g id="a_Node000016"><a xlink:title=" ">
<polygon fill="#e0e0e0" stroke="#999999" points="1356.5,-134.25 1216.75,-134.25 1216.75,-113.5 1356.5,-113.5 1356.5,-134.25"/>
<text xml:space="preserve" text-anchor="middle" x="1286.62" y="-120.75" font-family="Helvetica,sans-Serif" font-size="10.00">MeshReductionSettings.h</text>
</a>
</g>
</g>
<!-- Node1&#45;&gt;Node16 -->
<g id="edge18_Node000001_Node000016" class="edge">
<title>Node1&#45;&gt;Node16</title>
<g id="a_edge18_Node000001_Node000016"><a xlink:title=" ">
<path fill="none" stroke="#63b8ff" d="M1179.68,-169.76C1204.82,-159.21 1232.13,-147.75 1252.86,-139.05"/>
<polygon fill="#63b8ff" stroke="#63b8ff" points="1254.09,-142.33 1261.95,-135.23 1251.38,-135.87 1254.09,-142.33"/>
</a>
</g>
</g>
<!-- Node17 -->
<g id="Node000017" class="node">
<title>Node17</title>
<g id="a_Node000017"><a xlink:title=" ">
<polygon fill="#e0e0e0" stroke="#999999" points="1548.75,-134.25 1374.5,-134.25 1374.5,-113.5 1548.75,-113.5 1548.75,-134.25"/>
<text xml:space="preserve" text-anchor="middle" x="1461.62" y="-120.75" font-family="Helvetica,sans-Serif" font-size="10.00">UObject/PerPlatformProperties.h</text>
</a>
</g>
</g>
<!-- Node1&#45;&gt;Node17 -->
<g id="edge20_Node000001_Node000017" class="edge">
<title>Node1&#45;&gt;Node17</title>
<g id="a_edge20_Node000001_Node000017"><a xlink:title=" ">
<path fill="none" stroke="#63b8ff" d="M1179.97,-184.15C1245.42,-170.38 1342.43,-149.96 1403.81,-137.04"/>
<polygon fill="#63b8ff" stroke="#63b8ff" points="1404.3,-140.52 1413.36,-135.03 1402.86,-133.67 1404.3,-140.52"/>
</a>
</g>
</g>
<!-- Node18 -->
<g id="Node000018" class="node">
<title>Node18</title>
<g id="a_Node000018"><a xlink:title=" ">
<polygon fill="#e0e0e0" stroke="#999999" points="1754.5,-134.25 1566.75,-134.25 1566.75,-113.5 1754.5,-113.5 1754.5,-134.25"/>
<text xml:space="preserve" text-anchor="middle" x="1660.62" y="-120.75" font-family="Helvetica,sans-Serif" font-size="10.00">StaticMeshSourceData.generated.h</text>
</a>
</g>
</g>
<!-- Node1&#45;&gt;Node18 -->
<g id="edge21_Node000001_Node000018" class="edge">
<title>Node1&#45;&gt;Node18</title>
<g id="a_edge21_Node000001_Node000018"><a xlink:title=" ">
<path fill="none" stroke="#63b8ff" d="M1180,-189.43C1280.83,-175.89 1467.64,-150.8 1576.28,-136.2"/>
<polygon fill="#63b8ff" stroke="#63b8ff" points="1576.57,-139.7 1586.02,-134.9 1575.64,-132.76 1576.57,-139.7"/>
</a>
</g>
</g>
<!-- Node5 -->
<g id="Node000005" class="node">
<title>Node5</title>
<g id="a_Node000005"><a xlink:title=" ">
<polygon fill="#e0e0e0" stroke="#999999" points="676,-77.5 545.25,-77.5 545.25,-56.75 676,-56.75 676,-77.5"/>
<text xml:space="preserve" text-anchor="middle" x="610.62" y="-64" font-family="Helvetica,sans-Serif" font-size="10.00">Misc/EnumClassFlags.h</text>
</a>
</g>
</g>
<!-- Node4&#45;&gt;Node5 -->
<g id="edge4_Node000004_Node000005" class="edge">
<title>Node4&#45;&gt;Node5</title>
<g id="a_edge4_Node000004_Node000005"><a xlink:title=" ">
<path fill="none" stroke="#63b8ff" d="M610.62,-113.09C610.62,-106.47 610.62,-97.47 610.62,-89.27"/>
<polygon fill="#63b8ff" stroke="#63b8ff" points="614.13,-89.34 610.63,-79.34 607.13,-89.34 614.13,-89.34"/>
</a>
</g>
</g>
<!-- Node4&#45;&gt;Node6 -->
<g id="edge5_Node000004_Node000006" class="edge">
<title>Node4&#45;&gt;Node6</title>
<g id="a_edge5_Node000004_Node000006"><a xlink:title=" ">
<path fill="none" stroke="#63b8ff" d="M635.98,-113.06C652.11,-105.6 672.22,-93.81 684.62,-77.5 694.59,-64.4 699.33,-46.24 701.59,-32.27"/>
<polygon fill="#63b8ff" stroke="#63b8ff" points="705.06,-32.74 702.85,-22.38 698.11,-31.85 705.06,-32.74"/>
</a>
</g>
</g>
<!-- Node7 -->
<g id="Node000007" class="node">
<title>Node7</title>
<g id="a_Node000007"><a xlink:title=" ">
<polygon fill="#e0e0e0" stroke="#999999" points="590.88,-20.75 492.38,-20.75 492.38,0 590.88,0 590.88,-20.75"/>
<text xml:space="preserve" text-anchor="middle" x="541.62" y="-7.25" font-family="Helvetica,sans-Serif" font-size="10.00">UObject/Object.h</text>
</a>
</g>
</g>
<!-- Node4&#45;&gt;Node7 -->
<g id="edge6_Node000004_Node000007" class="edge">
<title>Node4&#45;&gt;Node7</title>
<g id="a_edge6_Node000004_Node000007"><a xlink:title=" ">
<path fill="none" stroke="#63b8ff" d="M581.45,-113.14C565.13,-106.03 546.2,-94.59 536.62,-77.5 528.88,-63.67 530.91,-45.59 534.45,-31.83"/>
<polygon fill="#63b8ff" stroke="#63b8ff" points="537.72,-33.1 537.29,-22.52 531.02,-31.06 537.72,-33.1"/>
</a>
</g>
</g>
<!-- Node8 -->
<g id="Node000008" class="node">
<title>Node8</title>
<g id="a_Node000008"><a xlink:title=" ">
<polygon fill="#e0e0e0" stroke="#999999" points="825.25,-77.5 732,-77.5 732,-56.75 825.25,-56.75 825.25,-77.5"/>
<text xml:space="preserve" text-anchor="middle" x="778.62" y="-64" font-family="Helvetica,sans-Serif" font-size="10.00">UObject/Class.h</text>
</a>
</g>
</g>
<!-- Node4&#45;&gt;Node8 -->
<g id="edge7_Node000004_Node000008" class="edge">
<title>Node4&#45;&gt;Node8</title>
<g id="a_edge7_Node000004_Node000008"><a xlink:title=" ">
<path fill="none" stroke="#63b8ff" d="M640.66,-113.09C667.81,-104.24 708.01,-91.14 738.01,-81.36"/>
<polygon fill="#63b8ff" stroke="#63b8ff" points="738.7,-84.82 747.13,-78.39 736.54,-78.16 738.7,-84.82"/>
</a>
</g>
</g>
<!-- Node9 -->
<g id="Node000009" class="node">
<title>Node9</title>
<g id="a_Node000009"><a xlink:title=" ">
<polygon fill="#e0e0e0" stroke="#999999" points="151.38,-77.5 19.88,-77.5 19.88,-56.75 151.38,-56.75 151.38,-77.5"/>
<text xml:space="preserve" text-anchor="middle" x="85.62" y="-64" font-family="Helvetica,sans-Serif" font-size="10.00">Templates/SubclassOf.h</text>
</a>
</g>
</g>
<!-- Node4&#45;&gt;Node9 -->
<g id="edge8_Node000004_Node000009" class="edge">
<title>Node4&#45;&gt;Node9</title>
<g id="a_edge8_Node000004_Node000009"><a xlink:title=" ">
<path fill="none" stroke="#63b8ff" d="M549.44,-117.17C465.01,-109.2 307.75,-93.98 163.14,-77.76"/>
<polygon fill="#63b8ff" stroke="#63b8ff" points="163.7,-74.3 153.37,-76.66 162.92,-81.26 163.7,-74.3"/>
</a>
</g>
</g>
<!-- Node10 -->
<g id="Node000010" class="node">
<title>Node10</title>
<g id="a_Node000010"><a xlink:href="TimerHandle_8h.html" target="_top" xlink:title=" ">
<polygon fill="white" stroke="#666666" points="966.25,-77.5 843,-77.5 843,-56.75 966.25,-56.75 966.25,-77.5"/>
<text xml:space="preserve" text-anchor="middle" x="904.62" y="-64" font-family="Helvetica,sans-Serif" font-size="10.00">Engine/TimerHandle.h</text>
</a>
</g>
</g>
<!-- Node4&#45;&gt;Node10 -->
<g id="edge9_Node000004_Node000010" class="edge">
<title>Node4&#45;&gt;Node10</title>
<g id="a_edge9_Node000004_Node000010"><a xlink:title=" ">
<path fill="none" stroke="#63b8ff" d="M663.53,-113.02C713.12,-103.79 787.37,-89.96 840.35,-80.09"/>
<polygon fill="#63b8ff" stroke="#63b8ff" points="840.98,-83.54 850.17,-78.27 839.69,-76.66 840.98,-83.54"/>
</a>
</g>
</g>
<!-- Node12 -->
<g id="Node000012" class="node">
<title>Node12</title>
<g id="a_Node000012"><a xlink:href="NaniteAssemblyData_8h.html" target="_top" xlink:title=" ">
<polygon fill="white" stroke="#666666" points="489.88,-77.5 325.38,-77.5 325.38,-56.75 489.88,-56.75 489.88,-77.5"/>
<text xml:space="preserve" text-anchor="middle" x="407.62" y="-64" font-family="Helvetica,sans-Serif" font-size="10.00">Engine/NaniteAssemblyData.h</text>
</a>
</g>
</g>
<!-- Node4&#45;&gt;Node12 -->
<g id="edge11_Node000004_Node000012" class="edge">
<title>Node4&#45;&gt;Node12</title>
<g id="a_edge11_Node000004_Node000012"><a xlink:title=" ">
<path fill="none" stroke="#63b8ff" d="M574.33,-113.09C540.95,-104.08 491.25,-90.68 454.8,-80.85"/>
<polygon fill="#63b8ff" stroke="#63b8ff" points="455.97,-77.54 445.41,-78.31 454.15,-84.3 455.97,-77.54"/>
</a>
</g>
</g>
<!-- Node15 -->
<g id="Node000015" class="node">
<title>Node15</title>
<g id="a_Node000015"><a xlink:title=" ">
<polygon fill="#e0e0e0" stroke="#999999" points="307.75,-77.5 169.5,-77.5 169.5,-56.75 307.75,-56.75 307.75,-77.5"/>
<text xml:space="preserve" text-anchor="middle" x="238.62" y="-64" font-family="Helvetica,sans-Serif" font-size="10.00">EngineTypes.generated.h</text>
</a>
</g>
</g>
<!-- Node4&#45;&gt;Node15 -->
<g id="edge17_Node000004_Node000015" class="edge">
<title>Node4&#45;&gt;Node15</title>
<g id="a_edge17_Node000004_Node000015"><a xlink:title=" ">
<path fill="none" stroke="#63b8ff" d="M549.61,-113.9C486.06,-104.54 386.27,-89.85 316.93,-79.65"/>
<polygon fill="#63b8ff" stroke="#63b8ff" points="317.55,-76.2 307.14,-78.21 316.53,-83.13 317.55,-76.2"/>
</a>
</g>
</g>
<!-- Node11 -->
<g id="Node000011" class="node">
<title>Node11</title>
<g id="a_Node000011"><a xlink:title=" ">
<polygon fill="#e0e0e0" stroke="#999999" points="974.5,-20.75 834.75,-20.75 834.75,0 974.5,0 974.5,-20.75"/>
<text xml:space="preserve" text-anchor="middle" x="904.62" y="-7.25" font-family="Helvetica,sans-Serif" font-size="10.00">TimerHandle.generated.h</text>
</a>
</g>
</g>
<!-- Node10&#45;&gt;Node11 -->
<g id="edge10_Node000010_Node000011" class="edge">
<title>Node10&#45;&gt;Node11</title>
<g id="a_edge10_Node000010_Node000011"><a xlink:title=" ">
<path fill="none" stroke="#63b8ff" d="M904.62,-56.34C904.62,-49.72 904.62,-40.72 904.62,-32.52"/>
<polygon fill="#63b8ff" stroke="#63b8ff" points="908.13,-32.59 904.63,-22.59 901.13,-32.59 908.13,-32.59"/>
</a>
</g>
</g>
<!-- Node12&#45;&gt;Node2 -->
<g id="edge12_Node000012_Node000002" class="edge">
<title>Node12&#45;&gt;Node2</title>
<g id="a_edge12_Node000012_Node000002"><a xlink:title=" ">
<path fill="none" stroke="#63b8ff" d="M342.13,-56.27C272.71,-45.83 164.29,-29.52 98.99,-19.7"/>
<polygon fill="#63b8ff" stroke="#63b8ff" points="99.62,-16.26 89.21,-18.23 98.58,-23.18 99.62,-16.26"/>
</a>
</g>
</g>
<!-- Node12&#45;&gt;Node6 -->
<g id="edge13_Node000012_Node000006" class="edge">
<title>Node12&#45;&gt;Node6</title>
<g id="a_edge13_Node000012_Node000006"><a xlink:title=" ">
<path fill="none" stroke="#63b8ff" d="M460.89,-56.27C510.92,-47.02 585.88,-33.15 639.25,-23.28"/>
<polygon fill="#63b8ff" stroke="#63b8ff" points="639.61,-26.78 648.81,-21.51 638.34,-19.89 639.61,-26.78"/>
</a>
</g>
</g>
<!-- Node12&#45;&gt;Node7 -->
<g id="edge15_Node000012_Node000007" class="edge">
<title>Node12&#45;&gt;Node7</title>
<g id="a_edge15_Node000012_Node000007"><a xlink:title=" ">
<path fill="none" stroke="#63b8ff" d="M431.58,-56.34C452.64,-47.73 483.53,-35.11 507.23,-25.43"/>
<polygon fill="#63b8ff" stroke="#63b8ff" points="508.54,-28.67 516.47,-21.65 505.89,-22.19 508.54,-28.67"/>
</a>
</g>
</g>
<!-- Node13 -->
<g id="Node000013" class="node">
<title>Node13</title>
<g id="a_Node000013"><a xlink:title=" ">
<polygon fill="#e0e0e0" stroke="#999999" points="275,-20.75 132.25,-20.75 132.25,0 275,0 275,-20.75"/>
<text xml:space="preserve" text-anchor="middle" x="203.62" y="-7.25" font-family="Helvetica,sans-Serif" font-size="10.00">UObject/UObjectGlobals.h</text>
</a>
</g>
</g>
<!-- Node12&#45;&gt;Node13 -->
<g id="edge14_Node000012_Node000013" class="edge">
<title>Node12&#45;&gt;Node13</title>
<g id="a_edge14_Node000012_Node000013"><a xlink:title=" ">
<path fill="none" stroke="#63b8ff" d="M371.15,-56.34C337.61,-47.33 287.66,-33.93 251.03,-24.1"/>
<polygon fill="#63b8ff" stroke="#63b8ff" points="252.15,-20.77 241.59,-21.56 250.34,-27.54 252.15,-20.77"/>
</a>
</g>
</g>
<!-- Node14 -->
<g id="Node000014" class="node">
<title>Node14</title>
<g id="a_Node000014"><a xlink:title=" ">
<polygon fill="#e0e0e0" stroke="#999999" points="474.12,-20.75 293.12,-20.75 293.12,0 474.12,0 474.12,-20.75"/>
<text xml:space="preserve" text-anchor="middle" x="383.62" y="-7.25" font-family="Helvetica,sans-Serif" font-size="10.00">NaniteAssemblyData.generated.h</text>
</a>
</g>
</g>
<!-- Node12&#45;&gt;Node14 -->
<g id="edge16_Node000012_Node000014" class="edge">
<title>Node12&#45;&gt;Node14</title>
<g id="a_edge16_Node000012_Node000014"><a xlink:title=" ">
<path fill="none" stroke="#63b8ff" d="M403.33,-56.34C400.3,-49.41 396.12,-39.87 392.39,-31.36"/>
<polygon fill="#63b8ff" stroke="#63b8ff" points="395.71,-30.22 388.49,-22.46 389.3,-33.03 395.71,-30.22"/>
</a>
</g>
</g>
</g>
</svg>

<g id="navigator" transform="translate(0 0)" fill="#404254">
  <rect fill="#f2f5e9" fill-opacity="0.5" stroke="#606060" stroke-width=".5" x="0" y="0" width="60" height="60"/>
  <use id="zoomplus" xlink:href="#zoomPlus" x="17" y="9" onmousedown="handleZoom(evt,'in')"/>
  <use id="zoomminus" xlink:href="#zoomMin" x="42" y="9" onmousedown="handleZoom(evt,'out')"/>
  <use id="reset" xlink:href="#resetDef" x="30" y="36" onmousedown="handleReset()"/>
   <use id="arrowup" xlink:href="#arrowUp" x="0" y="0" onmousedown="handlePan(0,-1)"/>
  <use id="arrowright" xlink:href="#arrowRight" x="0" y="0" onmousedown="handlePan(1,0)"/>
  <use id="arrowdown" xlink:href="#arrowDown" x="0" y="0" onmousedown="handlePan(0,1)"/>
  <use id="arrowleft" xlink:href="#arrowLeft" x="0" y="0" onmousedown="handlePan(-1,0)"/>
</g>
<svg viewBox="0 0 15 15" width="100%" height="30px" preserveAspectRatio="xMaxYMin meet">
 <g id="arrow_out" transform="scale(0.3 0.3)">
  <a xlink:href="StaticMeshSourceData_8h__incl_org.svg" target="_base">
   <rect id="button" ry="5" rx="5" y="6" x="6" height="38" width="38"
        fill="#f2f5e9" fill-opacity="0.5" stroke="#606060" stroke-width="1.0"/>
   <path id="arrow"
     d="M 11.500037,31.436501 C 11.940474,20.09759 22.043105,11.32322 32.158766,21.979434 L 37.068811,17.246167 C 37.068811,17.246167 37.088388,32 37.088388,32 L 22.160133,31.978069 C 22.160133,31.978069 26.997745,27.140456 26.997745,27.140456 C 18.528582,18.264221 13.291696,25.230495 11.500037,31.436501 z"
     style="fill:#404040;"/>
  </a>
 </g>
</svg>

<style type='text/css'>
<![CDATA[
[data-mouse-over-selected='false'] { opacity: 0.7; }
[data-mouse-over-selected='true']  { opacity: 1.0; }
]]>
</style>
<script type="application/ecmascript"><![CDATA[
document.addEventListener('DOMContentLoaded', (event) => {
  highlightEdges();
  highlightAdjacentNodes();
});
]]></script>
</svg>
