<?xml version="1.0" encoding="UTF-8" standalone="no"?>
<!DOCTYPE svg PUBLIC "-//W3C//DTD SVG 1.1//EN"
 "http://www.w3.org/Graphics/SVG/1.1/DTD/svg11.dtd">
<!-- Generated by graphviz version 14.1.4 (0)
 -->
<!-- Title: /opt/unreal&#45;engine/Engine/Source/Runtime/Engine/Classes/Components/StaticMeshComponent.h Pages: 1 -->
<svg width="796pt" height="270pt"
 viewBox="0.00 0.00 796.00 270.00" xmlns="http://www.w3.org/2000/svg" xmlns:xlink="http://www.w3.org/1999/xlink">
<g id="graph0" class="graph" transform="scale(1 1) rotate(0) translate(4 265.75)">
<title>/opt/unreal&#45;engine/Engine/Source/Runtime/Engine/Classes/Components/StaticMeshComponent.h</title>
<!-- Node1 -->
<g id="Node000001" class="node">
<title>Node1</title>
<g id="a_Node000001"><a xlink:title=" ">
<polygon fill="#999999" stroke="#666666" points="560.25,-261.75 403.25,-261.75 403.25,-202.75 560.25,-202.75 560.25,-261.75"/>
<text xml:space="preserve" text-anchor="start" x="411.25" y="-248.25" font-family="Helvetica,sans-Serif" font-size="10.00">/opt/unreal&#45;engine</text>
<text xml:space="preserve" text-anchor="start" x="411.25" y="-235.5" font-family="Helvetica,sans-Serif" font-size="10.00">/Engine/Source/Runtime</text>
<text xml:space="preserve" text-anchor="start" x="411.25" y="-222.75" font-family="Helvetica,sans-Serif" font-size="10.00">/Engine/Classes/Components</text>
<text xml:space="preserve" text-anchor="middle" x="481.75" y="-210" font-family="Helvetica,sans-Serif" font-size="10.00">/StaticMeshComponent.h</text>
</a>
</g>
</g>
<!-- Node2 -->
<g id="Node000002" class="node">
<title>Node2</title>
<g id="a_Node000002"><a xlink:href="CameraComponent_8h.html" target="_top" xlink:title=" ">
<polygon fill="white" stroke="#666666" points="156.62,-166.75 22.88,-166.75 22.88,-107.75 156.62,-107.75 156.62,-166.75"/>
<text xml:space="preserve" text-anchor="start" x="30.88" y="-153.25" font-family="Helvetica,sans-Serif" font-size="10.00">/opt/unreal&#45;engine</text>
<text xml:space="preserve" text-anchor="start" x="30.88" y="-140.5" font-family="Helvetica,sans-Serif" font-size="10.00">/Engine/Source/Runtime</text>
<text xml:space="preserve" text-anchor="start" x="30.88" y="-127.75" font-family="Helvetica,sans-Serif" font-size="10.00">/Engine/Classes/Camera</text>
<text xml:space="preserve" text-anchor="middle" x="89.75" y="-115" font-family="Helvetica,sans-Serif" font-size="10.00">/CameraComponent.h</text>
</a>
</g>
</g>
<!-- Node1&#45;&gt;Node2 -->
<g id="edge1_Node000001_Node000002" class="edge">
<title>Node1&#45;&gt;Node2</title>
<g id="a_edge1_Node000001_Node000002"><a xlink:title=" ">
<path fill="none" stroke="#63b8ff" d="M391.78,-216.78C328.05,-205.58 240.88,-188.36 165.75,-166.75 162.91,-165.93 160.02,-165.06 157.11,-164.14"/>
<polygon fill="#63b8ff" stroke="#63b8ff" points="391.06,-220.2 401.51,-218.47 392.26,-213.31 391.06,-220.2"/>
</a>
</g>
</g>
<!-- Node4 -->
<g id="Node000004" class="node">
<title>Node4</title>
<g id="a_Node000004"><a xlink:href="InstancedSkinnedMeshComponent_8h.html" target="_top" xlink:title=" ">
<polygon fill="white" stroke="#666666" points="371.12,-166.75 174.38,-166.75 174.38,-107.75 371.12,-107.75 371.12,-166.75"/>
<text xml:space="preserve" text-anchor="start" x="182.38" y="-153.25" font-family="Helvetica,sans-Serif" font-size="10.00">/opt/unreal&#45;engine</text>
<text xml:space="preserve" text-anchor="start" x="182.38" y="-140.5" font-family="Helvetica,sans-Serif" font-size="10.00">/Engine/Source/Runtime</text>
<text xml:space="preserve" text-anchor="start" x="182.38" y="-127.75" font-family="Helvetica,sans-Serif" font-size="10.00">/Engine/Classes/Components</text>
<text xml:space="preserve" text-anchor="middle" x="272.75" y="-115" font-family="Helvetica,sans-Serif" font-size="10.00">/InstancedSkinnedMeshComponent.h</text>
</a>
</g>
</g>
<!-- Node1&#45;&gt;Node4 -->
<g id="edge3_Node000001_Node000004" class="edge">
<title>Node1&#45;&gt;Node4</title>
<g id="a_edge3_Node000001_Node000004"><a xlink:title=" ">
<path fill="none" stroke="#63b8ff" d="M406.26,-197.66C383.81,-187.67 359.41,-176.81 337.69,-167.15"/>
<polygon fill="#63b8ff" stroke="#63b8ff" points="404.82,-200.85 415.38,-201.72 407.67,-194.46 404.82,-200.85"/>
</a>
</g>
</g>
<!-- Node5 -->
<g id="Node000005" class="node">
<title>Node5</title>
<g id="a_Node000005"><a xlink:href="InstancedStaticMeshComponent_8h.html" target="_top" xlink:title=" ">
<polygon fill="white" stroke="#666666" points="574.5,-166.75 389,-166.75 389,-107.75 574.5,-107.75 574.5,-166.75"/>
<text xml:space="preserve" text-anchor="start" x="397" y="-153.25" font-family="Helvetica,sans-Serif" font-size="10.00">/opt/unreal&#45;engine</text>
<text xml:space="preserve" text-anchor="start" x="397" y="-140.5" font-family="Helvetica,sans-Serif" font-size="10.00">/Engine/Source/Runtime</text>
<text xml:space="preserve" text-anchor="start" x="397" y="-127.75" font-family="Helvetica,sans-Serif" font-size="10.00">/Engine/Classes/Components</text>
<text xml:space="preserve" text-anchor="middle" x="481.75" y="-115" font-family="Helvetica,sans-Serif" font-size="10.00">/InstancedStaticMeshComponent.h</text>
</a>
</g>
</g>
<!-- Node1&#45;&gt;Node5 -->
<g id="edge4_Node000001_Node000005" class="edge">
<title>Node1&#45;&gt;Node5</title>
<g id="a_edge4_Node000001_Node000005"><a xlink:title=" ">
<path fill="none" stroke="#63b8ff" d="M481.75,-190.91C481.75,-182.91 481.75,-174.67 481.75,-167.15"/>
<polygon fill="#63b8ff" stroke="#63b8ff" points="478.25,-190.82 481.75,-200.82 485.25,-190.82 478.25,-190.82"/>
</a>
</g>
</g>
<!-- Node8 -->
<g id="Node000008" class="node">
<title>Node8</title>
<g id="a_Node000008"><a xlink:href="LODActor_8h.html" target="_top" xlink:title=" ">
<polygon fill="white" stroke="#666666" points="686.88,-65.38 554.62,-65.38 554.62,-6.38 686.88,-6.38 686.88,-65.38"/>
<text xml:space="preserve" text-anchor="start" x="562.62" y="-51.88" font-family="Helvetica,sans-Serif" font-size="10.00">/opt/unreal&#45;engine</text>
<text xml:space="preserve" text-anchor="start" x="562.62" y="-39.12" font-family="Helvetica,sans-Serif" font-size="10.00">/Engine/Source/Runtime</text>
<text xml:space="preserve" text-anchor="start" x="562.62" y="-26.38" font-family="Helvetica,sans-Serif" font-size="10.00">/Engine/Classes/Engine</text>
<text xml:space="preserve" text-anchor="middle" x="620.75" y="-13.62" font-family="Helvetica,sans-Serif" font-size="10.00">/LODActor.h</text>
</a>
</g>
</g>
<!-- Node1&#45;&gt;Node8 -->
<g id="edge9_Node000001_Node000008" class="edge">
<title>Node1&#45;&gt;Node8</title>
<g id="a_edge9_Node000001_Node000008"><a xlink:title=" ">
<path fill="none" stroke="#63b8ff" d="M552.87,-195.95C564.45,-187.67 575.38,-177.94 583.75,-166.75 606.08,-136.9 614.94,-94.03 618.46,-65.83"/>
<polygon fill="#63b8ff" stroke="#63b8ff" points="551.06,-192.95 544.72,-201.44 554.97,-198.75 551.06,-192.95"/>
</a>
</g>
</g>
<!-- Node9 -->
<g id="Node000009" class="node">
<title>Node9</title>
<g id="a_Node000009"><a xlink:href="SplineMeshComponent_8h.html" target="_top" xlink:title=" ">
<polygon fill="white" stroke="#666666" points="788.25,-166.75 631.25,-166.75 631.25,-107.75 788.25,-107.75 788.25,-166.75"/>
<text xml:space="preserve" text-anchor="start" x="639.25" y="-153.25" font-family="Helvetica,sans-Serif" font-size="10.00">/opt/unreal&#45;engine</text>
<text xml:space="preserve" text-anchor="start" x="639.25" y="-140.5" font-family="Helvetica,sans-Serif" font-size="10.00">/Engine/Source/Runtime</text>
<text xml:space="preserve" text-anchor="start" x="639.25" y="-127.75" font-family="Helvetica,sans-Serif" font-size="10.00">/Engine/Classes/Components</text>
<text xml:space="preserve" text-anchor="middle" x="709.75" y="-115" font-family="Helvetica,sans-Serif" font-size="10.00">/SplineMeshComponent.h</text>
</a>
</g>
</g>
<!-- Node1&#45;&gt;Node9 -->
<g id="edge8_Node000001_Node000009" class="edge">
<title>Node1&#45;&gt;Node9</title>
<g id="a_edge8_Node000001_Node000009"><a xlink:title=" ">
<path fill="none" stroke="#63b8ff" d="M563.1,-198.07C587.87,-187.96 614.89,-176.94 638.9,-167.15"/>
<polygon fill="#63b8ff" stroke="#63b8ff" points="561.98,-194.74 554.04,-201.76 564.62,-201.23 561.98,-194.74"/>
</a>
</g>
</g>
<!-- Node3 -->
<g id="Node000003" class="node">
<title>Node3</title>
<g id="a_Node000003"><a xlink:href="TowerPlayerCharacter_8cpp.html" target="_top" xlink:title=" ">
<polygon fill="white" stroke="#666666" points="179.5,-52.62 0,-52.62 0,-19.12 179.5,-19.12 179.5,-52.62"/>
<text xml:space="preserve" text-anchor="start" x="8" y="-39.12" font-family="Helvetica,sans-Serif" font-size="10.00">Source/Tower/Private</text>
<text xml:space="preserve" text-anchor="middle" x="89.75" y="-26.38" font-family="Helvetica,sans-Serif" font-size="10.00">/Player/TowerPlayerCharacter.cpp</text>
</a>
</g>
</g>
<!-- Node2&#45;&gt;Node3 -->
<g id="edge2_Node000002_Node000003" class="edge">
<title>Node2&#45;&gt;Node3</title>
<g id="a_edge2_Node000002_Node000003"><a xlink:title=" ">
<path fill="none" stroke="#63b8ff" d="M89.75,-96.24C89.75,-81.05 89.75,-64.6 89.75,-52.88"/>
<polygon fill="#63b8ff" stroke="#63b8ff" points="86.25,-95.99 89.75,-105.99 93.25,-95.99 86.25,-95.99"/>
</a>
</g>
</g>
<!-- Node6 -->
<g id="Node000006" class="node">
<title>Node6</title>
<g id="a_Node000006"><a xlink:href="HierarchicalInstancedStaticMeshComponent_8h.html" target="_top" xlink:title=" ">
<polygon fill="white" stroke="#666666" points="386.12,-71.75 207.38,-71.75 207.38,0 386.12,0 386.12,-71.75"/>
<text xml:space="preserve" text-anchor="start" x="215.38" y="-58.25" font-family="Helvetica,sans-Serif" font-size="10.00">/opt/unreal&#45;engine</text>
<text xml:space="preserve" text-anchor="start" x="215.38" y="-45.5" font-family="Helvetica,sans-Serif" font-size="10.00">/Engine/Source/Runtime</text>
<text xml:space="preserve" text-anchor="start" x="215.38" y="-32.75" font-family="Helvetica,sans-Serif" font-size="10.00">/Engine/Classes/Components</text>
<text xml:space="preserve" text-anchor="start" x="215.38" y="-20" font-family="Helvetica,sans-Serif" font-size="10.00">/HierarchicalInstancedStaticMesh</text>
<text xml:space="preserve" text-anchor="middle" x="296.75" y="-7.25" font-family="Helvetica,sans-Serif" font-size="10.00">Component.h</text>
</a>
</g>
</g>
<!-- Node5&#45;&gt;Node6 -->
<g id="edge5_Node000005_Node000006" class="edge">
<title>Node5&#45;&gt;Node6</title>
<g id="a_edge5_Node000005_Node000006"><a xlink:title=" ">
<path fill="none" stroke="#63b8ff" d="M418.12,-102.07C400.09,-92.39 380.43,-81.83 362.29,-72.08"/>
<polygon fill="#63b8ff" stroke="#63b8ff" points="416.44,-105.14 426.91,-106.79 419.75,-98.97 416.44,-105.14"/>
</a>
</g>
</g>
<!-- Node7 -->
<g id="Node000007" class="node">
<title>Node7</title>
<g id="a_Node000007"><a xlink:href="InstancedStaticMesh_8h.html" target="_top" xlink:title=" ">
<polygon fill="white" stroke="#666666" points="536.88,-65.38 404.62,-65.38 404.62,-6.38 536.88,-6.38 536.88,-65.38"/>
<text xml:space="preserve" text-anchor="start" x="412.62" y="-51.88" font-family="Helvetica,sans-Serif" font-size="10.00">/opt/unreal&#45;engine</text>
<text xml:space="preserve" text-anchor="start" x="412.62" y="-39.12" font-family="Helvetica,sans-Serif" font-size="10.00">/Engine/Source/Runtime</text>
<text xml:space="preserve" text-anchor="start" x="412.62" y="-26.38" font-family="Helvetica,sans-Serif" font-size="10.00">/Engine/Classes/Engine</text>
<text xml:space="preserve" text-anchor="middle" x="470.75" y="-13.62" font-family="Helvetica,sans-Serif" font-size="10.00">/InstancedStaticMesh.h</text>
</a>
</g>
</g>
<!-- Node5&#45;&gt;Node7 -->
<g id="edge6_Node000005_Node000007" class="edge">
<title>Node5&#45;&gt;Node7</title>
<g id="a_edge6_Node000005_Node000007"><a xlink:title=" ">
<path fill="none" stroke="#63b8ff" d="M477.32,-96.25C476.19,-85.98 474.98,-75.13 473.92,-65.55"/>
<polygon fill="#63b8ff" stroke="#63b8ff" points="473.82,-96.45 478.4,-106 480.78,-95.68 473.82,-96.45"/>
</a>
</g>
</g>
<!-- Node5&#45;&gt;Node8 -->
<g id="edge7_Node000005_Node000008" class="edge">
<title>Node5&#45;&gt;Node8</title>
<g id="a_edge7_Node000005_Node000008"><a xlink:title=" ">
<path fill="none" stroke="#63b8ff" d="M531.27,-100.84C547.46,-89.27 565.23,-76.57 580.64,-65.55"/>
<polygon fill="#63b8ff" stroke="#63b8ff" points="529.29,-97.96 523.19,-106.63 533.36,-103.66 529.29,-97.96"/>
</a>
</g>
</g>
</g>
</svg>
