<?xml version="1.0" encoding="UTF-8" standalone="no"?>
<!DOCTYPE svg PUBLIC "-//W3C//DTD SVG 1.1//EN"
 "http://www.w3.org/Graphics/SVG/1.1/DTD/svg11.dtd">
<!-- Generated by graphviz version 14.1.4 (0)
 -->
<!-- Title: /opt/unreal&#45;engine/Engine/Source/Runtime/Core/Public/Containers/StringOverload.h Pages: 1 -->
<svg width="1717pt" height="528pt"
 viewBox="0.00 0.00 1717.00 528.00" xmlns="http://www.w3.org/2000/svg" xmlns:xlink="http://www.w3.org/1999/xlink">
<g id="graph0" class="graph" transform="scale(1 1) rotate(0) translate(4 524)">
<title>/opt/unreal&#45;engine/Engine/Source/Runtime/Core/Public/Containers/StringOverload.h</title>
<!-- Node1 -->
<g id="Node000001" class="node">
<title>Node1</title>
<g id="a_Node000001"><a xlink:title=" ">
<polygon fill="#999999" stroke="#666666" points="1330.88,-520 1198.62,-520 1198.62,-461 1330.88,-461 1330.88,-520"/>
<text xml:space="preserve" text-anchor="start" x="1206.62" y="-506.5" font-family="Helvetica,sans-Serif" font-size="10.00">/opt/unreal&#45;engine</text>
<text xml:space="preserve" text-anchor="start" x="1206.62" y="-493.75" font-family="Helvetica,sans-Serif" font-size="10.00">/Engine/Source/Runtime</text>
<text xml:space="preserve" text-anchor="start" x="1206.62" y="-481" font-family="Helvetica,sans-Serif" font-size="10.00">/Core/Public/Containers</text>
<text xml:space="preserve" text-anchor="middle" x="1264.75" y="-468.25" font-family="Helvetica,sans-Serif" font-size="10.00">/StringOverload.h</text>
</a>
</g>
</g>
<!-- Node2 -->
<g id="Node000002" class="node">
<title>Node2</title>
<g id="a_Node000002"><a xlink:href="$Requires_8h.html" xlink:title=" ">
<polygon fill="white" stroke="#666666" points="1229.25,-361.88 1108.25,-361.88 1108.25,-341.12 1229.25,-341.12 1229.25,-361.88"/>
<text xml:space="preserve" text-anchor="middle" x="1168.75" y="-348.38" font-family="Helvetica,sans-Serif" font-size="10.00">Templates/Requires.h</text>
</a>
</g>
</g>
<!-- Node1&#45;&gt;Node2 -->
<g id="edge1_Node000001_Node000002" class="edge">
<title>Node1&#45;&gt;Node2</title>
<g id="a_edge1_Node000001_Node000002"><a xlink:title=" ">
<path fill="none" stroke="#63b8ff" d="M1244.63,-460.78C1225.84,-433.97 1198.34,-394.72 1182.12,-371.58"/>
<polygon fill="#63b8ff" stroke="#63b8ff" points="1185,-369.6 1176.4,-363.42 1179.27,-373.61 1185,-369.6"/>
</a>
</g>
</g>
<!-- Node8 -->
<g id="Node000008" class="node">
<title>Node8</title>
<g id="a_Node000008"><a xlink:title=" ">
<polygon fill="#e0e0e0" stroke="#999999" points="1541,-33.5 1472.5,-33.5 1472.5,-12.75 1541,-12.75 1541,-33.5"/>
<text xml:space="preserve" text-anchor="middle" x="1506.75" y="-20" font-family="Helvetica,sans-Serif" font-size="10.00">type_traits</text>
</a>
</g>
</g>
<!-- Node1&#45;&gt;Node8 -->
<g id="edge39_Node000001_Node000008" class="edge">
<title>Node1&#45;&gt;Node8</title>
<g id="a_edge39_Node000001_Node000008"><a xlink:title=" ">
<path fill="none" stroke="#63b8ff" d="M1331.2,-480.76C1402.84,-467.16 1506.75,-433.49 1506.75,-352.5 1506.75,-352.5 1506.75,-352.5 1506.75,-154.75 1506.75,-116.14 1506.75,-71.12 1506.75,-45.28"/>
<polygon fill="#63b8ff" stroke="#63b8ff" points="1510.25,-45.47 1506.75,-35.47 1503.25,-45.47 1510.25,-45.47"/>
</a>
</g>
</g>
<!-- Node18 -->
<g id="Node000018" class="node">
<title>Node18</title>
<g id="a_Node000018"><a xlink:href="$ElementType_8h.html" xlink:title=" ">
<polygon fill="white" stroke="#666666" points="1440.75,-298.75 1322.75,-298.75 1322.75,-278 1440.75,-278 1440.75,-298.75"/>
<text xml:space="preserve" text-anchor="middle" x="1381.75" y="-285.25" font-family="Helvetica,sans-Serif" font-size="10.00">Traits/ElementType.h</text>
</a>
</g>
</g>
<!-- Node1&#45;&gt;Node18 -->
<g id="edge20_Node000001_Node000018" class="edge">
<title>Node1&#45;&gt;Node18</title>
<g id="a_edge20_Node000001_Node000018"><a xlink:title=" ">
<path fill="none" stroke="#63b8ff" d="M1260.48,-460.54C1257.16,-426.99 1256.89,-371.61 1283.75,-334.75 1294.39,-320.14 1310.91,-310.1 1327.38,-303.26"/>
<polygon fill="#63b8ff" stroke="#63b8ff" points="1328.59,-306.55 1336.71,-299.75 1326.12,-300 1328.59,-306.55"/>
</a>
</g>
</g>
<!-- Node20 -->
<g id="Node000020" class="node">
<title>Node20</title>
<g id="a_Node000020"><a xlink:href="$IsCharEncodingCompatibleWith_8h.html" xlink:title=" ">
<polygon fill="white" stroke="#666666" points="1470.38,-368.25 1293.12,-368.25 1293.12,-334.75 1470.38,-334.75 1470.38,-368.25"/>
<text xml:space="preserve" text-anchor="start" x="1301.12" y="-354.75" font-family="Helvetica,sans-Serif" font-size="10.00">Traits/IsCharEncodingCompatible</text>
<text xml:space="preserve" text-anchor="middle" x="1381.75" y="-342" font-family="Helvetica,sans-Serif" font-size="10.00">With.h</text>
</a>
</g>
</g>
<!-- Node1&#45;&gt;Node20 -->
<g id="edge24_Node000001_Node000020" class="edge">
<title>Node1&#45;&gt;Node20</title>
<g id="a_edge24_Node000001_Node000020"><a xlink:title=" ">
<path fill="none" stroke="#63b8ff" d="M1289.28,-460.78C1310.45,-435.98 1340.72,-400.54 1360.79,-377.04"/>
<polygon fill="#63b8ff" stroke="#63b8ff" points="1363.38,-379.4 1367.21,-369.52 1358.06,-374.85 1363.38,-379.4"/>
</a>
</g>
</g>
<!-- Node22 -->
<g id="Node000022" class="node">
<title>Node22</title>
<g id="a_Node000022"><a xlink:href="$IsContiguousContainer_8h.html" xlink:title=" ">
<polygon fill="white" stroke="#666666" points="1005.38,-298.75 840.12,-298.75 840.12,-278 1005.38,-278 1005.38,-298.75"/>
<text xml:space="preserve" text-anchor="middle" x="922.75" y="-285.25" font-family="Helvetica,sans-Serif" font-size="10.00">Traits/IsContiguousContainer.h</text>
</a>
</g>
</g>
<!-- Node1&#45;&gt;Node22 -->
<g id="edge28_Node000001_Node000022" class="edge">
<title>Node1&#45;&gt;Node22</title>
<g id="a_edge28_Node000001_Node000022"><a xlink:title=" ">
<path fill="none" stroke="#63b8ff" d="M1215.39,-460.61C1141.9,-417.61 1006.27,-338.25 949.18,-304.84"/>
<polygon fill="#63b8ff" stroke="#63b8ff" points="951.17,-301.95 940.77,-299.92 947.63,-307.99 951.17,-301.95"/>
</a>
</g>
</g>
<!-- Node24 -->
<g id="Node000024" class="node">
<title>Node24</title>
<g id="a_Node000024"><a xlink:href="$IsImplicitlyConstructible_8h.html" xlink:title=" ">
<polygon fill="white" stroke="#666666" points="1708.5,-103 1535,-103 1535,-82.25 1708.5,-82.25 1708.5,-103"/>
<text xml:space="preserve" text-anchor="middle" x="1621.75" y="-89.5" font-family="Helvetica,sans-Serif" font-size="10.00">Traits/IsImplicitlyConstructible.h</text>
</a>
</g>
</g>
<!-- Node1&#45;&gt;Node24 -->
<g id="edge32_Node000001_Node000024" class="edge">
<title>Node1&#45;&gt;Node24</title>
<g id="a_edge32_Node000001_Node000024"><a xlink:title=" ">
<path fill="none" stroke="#63b8ff" d="M1331.03,-489.11C1424.22,-484.67 1582.75,-461.16 1582.75,-352.5 1582.75,-352.5 1582.75,-352.5 1582.75,-224.25 1582.75,-183.61 1600.29,-138.72 1611.85,-113.57"/>
<polygon fill="#63b8ff" stroke="#63b8ff" points="1614.86,-115.39 1616,-104.85 1608.54,-112.38 1614.86,-115.39"/>
</a>
</g>
</g>
<!-- Node25 -->
<g id="Node000025" class="node">
<title>Node25</title>
<g id="a_Node000025"><a xlink:href="$IsTString_8h.html" xlink:title=" ">
<polygon fill="white" stroke="#666666" points="991.62,-425 893.88,-425 893.88,-404.25 991.62,-404.25 991.62,-425"/>
<text xml:space="preserve" text-anchor="middle" x="942.75" y="-411.5" font-family="Helvetica,sans-Serif" font-size="10.00">Traits/IsTString.h</text>
</a>
</g>
</g>
<!-- Node1&#45;&gt;Node25 -->
<g id="edge34_Node000001_Node000025" class="edge">
<title>Node1&#45;&gt;Node25</title>
<g id="a_edge34_Node000001_Node000025"><a xlink:title=" ">
<path fill="none" stroke="#63b8ff" d="M1198.42,-474.28C1138.66,-460.57 1051.89,-440.67 996.4,-427.93"/>
<polygon fill="#63b8ff" stroke="#63b8ff" points="997.39,-424.57 986.87,-425.75 995.83,-431.39 997.39,-424.57"/>
</a>
</g>
</g>
<!-- Node3 -->
<g id="Node000003" class="node">
<title>Node3</title>
<g id="a_Node000003"><a xlink:href="$EnableIf_8h.html" xlink:title=" ">
<polygon fill="white" stroke="#666666" points="1140.38,-298.75 1023.12,-298.75 1023.12,-278 1140.38,-278 1140.38,-298.75"/>
<text xml:space="preserve" text-anchor="middle" x="1081.75" y="-285.25" font-family="Helvetica,sans-Serif" font-size="10.00">Templates/EnableIf.h</text>
</a>
</g>
</g>
<!-- Node2&#45;&gt;Node3 -->
<g id="edge2_Node000002_Node000003" class="edge">
<title>Node2&#45;&gt;Node3</title>
<g id="a_edge2_Node000002_Node000003"><a xlink:title=" ">
<path fill="none" stroke="#63b8ff" d="M1154.77,-340.68C1141.33,-331.23 1120.76,-316.78 1104.87,-305.62"/>
<polygon fill="#63b8ff" stroke="#63b8ff" points="1107.13,-302.93 1096.93,-300.04 1103.1,-308.65 1107.13,-302.93"/>
</a>
</g>
</g>
<!-- Node2&#45;&gt;Node8 -->
<g id="edge19_Node000002_Node000008" class="edge">
<title>Node2&#45;&gt;Node8</title>
<g id="a_edge19_Node000002_Node000008"><a xlink:title=" ">
<path fill="none" stroke="#63b8ff" d="M1168.75,-340.83C1168.75,-319.93 1168.75,-268.96 1168.75,-226.25 1168.75,-226.25 1168.75,-226.25 1168.75,-154.75 1168.75,-15.05 1335.84,-102.42 1463.75,-46.25 1468.77,-44.05 1474.03,-41.53 1479.08,-38.99"/>
<polygon fill="#63b8ff" stroke="#63b8ff" points="1480.36,-42.27 1487.65,-34.58 1477.16,-36.05 1480.36,-42.27"/>
</a>
</g>
</g>
<!-- Node4 -->
<g id="Node000004" class="node">
<title>Node4</title>
<g id="a_Node000004"><a xlink:href="$CoreTypes_8h.html" xlink:title=" ">
<polygon fill="white" stroke="#666666" points="1040.38,-235.62 965.12,-235.62 965.12,-214.88 1040.38,-214.88 1040.38,-235.62"/>
<text xml:space="preserve" text-anchor="middle" x="1002.75" y="-222.12" font-family="Helvetica,sans-Serif" font-size="10.00">CoreTypes.h</text>
</a>
</g>
</g>
<!-- Node3&#45;&gt;Node4 -->
<g id="edge3_Node000003_Node000004" class="edge">
<title>Node3&#45;&gt;Node4</title>
<g id="a_edge3_Node000003_Node000004"><a xlink:title=" ">
<path fill="none" stroke="#63b8ff" d="M1069.06,-277.55C1056.96,-268.2 1038.52,-253.93 1024.16,-242.81"/>
<polygon fill="#63b8ff" stroke="#63b8ff" points="1026.66,-240.32 1016.61,-236.97 1022.38,-245.86 1026.66,-240.32"/>
</a>
</g>
</g>
<!-- Node5 -->
<g id="Node000005" class="node">
<title>Node5</title>
<g id="a_Node000005"><a xlink:href="$Platform_8h.html" xlink:title=" ">
<polygon fill="white" stroke="#666666" points="930.5,-103 841,-103 841,-82.25 930.5,-82.25 930.5,-103"/>
<text xml:space="preserve" text-anchor="middle" x="885.75" y="-89.5" font-family="Helvetica,sans-Serif" font-size="10.00">HAL/Platform.h</text>
</a>
</g>
</g>
<!-- Node4&#45;&gt;Node5 -->
<g id="edge4_Node000004_Node000005" class="edge">
<title>Node4&#45;&gt;Node5</title>
<g id="a_edge4_Node000004_Node000005"><a xlink:title=" ">
<path fill="none" stroke="#63b8ff" d="M1034.39,-214.49C1054.12,-206.58 1077.93,-193.28 1089.75,-172.5 1097.11,-159.56 1099.07,-150.61 1089.75,-139 1071.52,-116.28 995.9,-104.21 942.05,-98.37"/>
<polygon fill="#63b8ff" stroke="#63b8ff" points="942.74,-94.92 932.43,-97.37 942.01,-101.88 942.74,-94.92"/>
</a>
</g>
</g>
<!-- Node15 -->
<g id="Node000015" class="node">
<title>Node15</title>
<g id="a_Node000015"><a xlink:href="$UMemoryDefines_8h.html" xlink:title=" ">
<polygon fill="white" stroke="#666666" points="801.5,-172.5 688,-172.5 688,-139 801.5,-139 801.5,-172.5"/>
<text xml:space="preserve" text-anchor="start" x="696" y="-159" font-family="Helvetica,sans-Serif" font-size="10.00">ProfilingDebugging</text>
<text xml:space="preserve" text-anchor="middle" x="744.75" y="-146.25" font-family="Helvetica,sans-Serif" font-size="10.00">/UMemoryDefines.h</text>
</a>
</g>
</g>
<!-- Node4&#45;&gt;Node15 -->
<g id="edge14_Node000004_Node000015" class="edge">
<title>Node4&#45;&gt;Node15</title>
<g id="a_edge14_Node000004_Node000015"><a xlink:title=" ">
<path fill="none" stroke="#63b8ff" d="M975.64,-214.51C969.46,-212.42 962.91,-210.3 956.75,-208.5 942.82,-204.42 869.56,-186.68 813.02,-173.09"/>
<polygon fill="#63b8ff" stroke="#63b8ff" points="813.97,-169.72 803.43,-170.79 812.34,-176.52 813.97,-169.72"/>
</a>
</g>
</g>
<!-- Node16 -->
<g id="Node000016" class="node">
<title>Node16</title>
<g id="a_Node000016"><a xlink:href="$CoreMiscDefines_8h.html" xlink:title=" ">
<polygon fill="white" stroke="#666666" points="952.25,-166.12 819.25,-166.12 819.25,-145.38 952.25,-145.38 952.25,-166.12"/>
<text xml:space="preserve" text-anchor="middle" x="885.75" y="-152.62" font-family="Helvetica,sans-Serif" font-size="10.00">Misc/CoreMiscDefines.h</text>
</a>
</g>
</g>
<!-- Node4&#45;&gt;Node16 -->
<g id="edge15_Node000004_Node000016" class="edge">
<title>Node4&#45;&gt;Node16</title>
<g id="a_edge15_Node000004_Node000016"><a xlink:title=" ">
<path fill="none" stroke="#63b8ff" d="M985.74,-214.43C966.59,-203.39 935.22,-185.29 912.72,-172.31"/>
<polygon fill="#63b8ff" stroke="#63b8ff" points="914.51,-169.3 904.09,-167.33 911.01,-175.36 914.51,-169.3"/>
</a>
</g>
</g>
<!-- Node17 -->
<g id="Node000017" class="node">
<title>Node17</title>
<g id="a_Node000017"><a xlink:href="$CoreDefines_8h.html" xlink:title=" ">
<polygon fill="white" stroke="#666666" points="1081,-166.12 970.5,-166.12 970.5,-145.38 1081,-145.38 1081,-166.12"/>
<text xml:space="preserve" text-anchor="middle" x="1025.75" y="-152.62" font-family="Helvetica,sans-Serif" font-size="10.00">Misc/CoreDefines.h</text>
</a>
</g>
</g>
<!-- Node4&#45;&gt;Node17 -->
<g id="edge18_Node000004_Node000017" class="edge">
<title>Node4&#45;&gt;Node17</title>
<g id="a_edge18_Node000004_Node000017"><a xlink:title=" ">
<path fill="none" stroke="#63b8ff" d="M1006.05,-214.58C1009.36,-204.85 1014.57,-189.57 1018.8,-177.15"/>
<polygon fill="#63b8ff" stroke="#63b8ff" points="1022.06,-178.43 1021.97,-167.84 1015.43,-176.17 1022.06,-178.43"/>
</a>
</g>
</g>
<!-- Node6 -->
<g id="Node000006" class="node">
<title>Node6</title>
<g id="a_Node000006"><a xlink:href="$Build_8h.html" xlink:title=" ">
<polygon fill="white" stroke="#666666" points="861.38,-33.5 786.12,-33.5 786.12,-12.75 861.38,-12.75 861.38,-33.5"/>
<text xml:space="preserve" text-anchor="middle" x="823.75" y="-20" font-family="Helvetica,sans-Serif" font-size="10.00">Misc/Build.h</text>
</a>
</g>
</g>
<!-- Node5&#45;&gt;Node6 -->
<g id="edge5_Node000005_Node000006" class="edge">
<title>Node5&#45;&gt;Node6</title>
<g id="a_edge5_Node000005_Node000006"><a xlink:title=" ">
<path fill="none" stroke="#63b8ff" d="M876.87,-81.95C867.38,-71.63 852.14,-55.03 840.4,-42.26"/>
<polygon fill="#63b8ff" stroke="#63b8ff" points="842.98,-39.89 833.64,-34.89 837.83,-44.63 842.98,-39.89"/>
</a>
</g>
</g>
<!-- Node7 -->
<g id="Node000007" class="node">
<title>Node7</title>
<g id="a_Node000007"><a xlink:href="$LargeWorldCoordinates_8h.html" xlink:title=" ">
<polygon fill="white" stroke="#666666" points="1044,-33.5 879.5,-33.5 879.5,-12.75 1044,-12.75 1044,-33.5"/>
<text xml:space="preserve" text-anchor="middle" x="961.75" y="-20" font-family="Helvetica,sans-Serif" font-size="10.00">Misc/LargeWorldCoordinates.h</text>
</a>
</g>
</g>
<!-- Node5&#45;&gt;Node7 -->
<g id="edge6_Node000005_Node000007" class="edge">
<title>Node5&#45;&gt;Node7</title>
<g id="a_edge6_Node000005_Node000007"><a xlink:title=" ">
<path fill="none" stroke="#63b8ff" d="M896.64,-81.95C908.54,-71.39 927.83,-54.25 942.33,-41.37"/>
<polygon fill="#63b8ff" stroke="#63b8ff" points="944.35,-44.26 949.5,-35 939.7,-39.03 944.35,-44.26"/>
</a>
</g>
</g>
<!-- Node5&#45;&gt;Node8 -->
<g id="edge7_Node000005_Node000008" class="edge">
<title>Node5&#45;&gt;Node8</title>
<g id="a_edge7_Node000005_Node000008"><a xlink:title=" ">
<path fill="none" stroke="#63b8ff" d="M930.58,-90.39C1048.24,-86.79 1363.66,-74.68 1463.75,-46.25 1469.66,-44.57 1475.7,-42.05 1481.31,-39.3"/>
<polygon fill="#63b8ff" stroke="#63b8ff" points="1482.93,-42.4 1490.11,-34.6 1479.64,-36.22 1482.93,-42.4"/>
</a>
</g>
</g>
<!-- Node9 -->
<g id="Node000009" class="node">
<title>Node9</title>
<g id="a_Node000009"><a xlink:href="$PreprocessorHelpers_8h.html" xlink:title=" ">
<polygon fill="white" stroke="#666666" points="125.5,-33.5 0,-33.5 0,-12.75 125.5,-12.75 125.5,-33.5"/>
<text xml:space="preserve" text-anchor="middle" x="62.75" y="-20" font-family="Helvetica,sans-Serif" font-size="10.00">PreprocessorHelpers.h</text>
</a>
</g>
</g>
<!-- Node5&#45;&gt;Node9 -->
<g id="edge8_Node000005_Node000009" class="edge">
<title>Node5&#45;&gt;Node9</title>
<g id="a_edge8_Node000005_Node000009"><a xlink:title=" ">
<path fill="none" stroke="#63b8ff" d="M840.82,-90.34C700.37,-86.09 270.76,-71.35 133.75,-46.25 122.53,-44.2 110.61,-40.92 99.79,-37.52"/>
<polygon fill="#63b8ff" stroke="#63b8ff" points="101.03,-34.25 90.44,-34.45 98.85,-40.9 101.03,-34.25"/>
</a>
</g>
</g>
<!-- Node10 -->
<g id="Node000010" class="node">
<title>Node10</title>
<g id="a_Node000010"><a xlink:title=" ">
<polygon fill="#e0e0e0" stroke="#999999" points="1259.12,-46.25 1062.38,-46.25 1062.38,0 1259.12,0 1259.12,-46.25"/>
<text xml:space="preserve" text-anchor="start" x="1070.38" y="-32.75" font-family="Helvetica,sans-Serif" font-size="10.00">UBT_COMPILED_PLATFORM</text>
<text xml:space="preserve" text-anchor="start" x="1070.38" y="-20" font-family="Helvetica,sans-Serif" font-size="10.00">/UBT_COMPILED_PLATFORMPlatform</text>
<text xml:space="preserve" text-anchor="middle" x="1160.75" y="-7.25" font-family="Helvetica,sans-Serif" font-size="10.00">CompilerPreSetup.h</text>
</a>
</g>
</g>
<!-- Node5&#45;&gt;Node10 -->
<g id="edge9_Node000005_Node000010" class="edge">
<title>Node5&#45;&gt;Node10</title>
<g id="a_edge9_Node000005_Node000010"><a xlink:title=" ">
<path fill="none" stroke="#63b8ff" d="M925.74,-81.81C960.28,-73.33 1011.75,-60.7 1057.72,-49.41"/>
<polygon fill="#63b8ff" stroke="#63b8ff" points="1058.31,-52.87 1067.19,-47.09 1056.64,-46.07 1058.31,-52.87"/>
</a>
</g>
</g>
<!-- Node11 -->
<g id="Node000011" class="node">
<title>Node11</title>
<g id="a_Node000011"><a xlink:href="$GenericPlatformCompilerPreSetup_8h.html" xlink:title=" ">
<polygon fill="white" stroke="#666666" points="1454.75,-39.88 1276.75,-39.88 1276.75,-6.38 1454.75,-6.38 1454.75,-39.88"/>
<text xml:space="preserve" text-anchor="start" x="1284.75" y="-26.38" font-family="Helvetica,sans-Serif" font-size="10.00">GenericPlatform/GenericPlatform</text>
<text xml:space="preserve" text-anchor="middle" x="1365.75" y="-13.62" font-family="Helvetica,sans-Serif" font-size="10.00">CompilerPreSetup.h</text>
</a>
</g>
</g>
<!-- Node5&#45;&gt;Node11 -->
<g id="edge10_Node000005_Node000011" class="edge">
<title>Node5&#45;&gt;Node11</title>
<g id="a_edge10_Node000005_Node000011"><a xlink:title=" ">
<path fill="none" stroke="#63b8ff" d="M930.96,-87.79C1002.68,-81.36 1146.8,-67.03 1267.75,-46.25 1274.08,-45.16 1280.62,-43.93 1287.18,-42.62"/>
<polygon fill="#63b8ff" stroke="#63b8ff" points="1287.62,-46.1 1296.71,-40.65 1286.21,-39.24 1287.62,-46.1"/>
</a>
</g>
</g>
<!-- Node12 -->
<g id="Node000012" class="node">
<title>Node12</title>
<g id="a_Node000012"><a xlink:href="$GenericPlatform_8h.html" xlink:title=" ">
<polygon fill="white" stroke="#666666" points="330.25,-33.5 143.25,-33.5 143.25,-12.75 330.25,-12.75 330.25,-33.5"/>
<text xml:space="preserve" text-anchor="middle" x="236.75" y="-20" font-family="Helvetica,sans-Serif" font-size="10.00">GenericPlatform/GenericPlatform.h</text>
</a>
</g>
</g>
<!-- Node5&#45;&gt;Node12 -->
<g id="edge11_Node000005_Node000012" class="edge">
<title>Node5&#45;&gt;Node12</title>
<g id="a_edge11_Node000005_Node000012"><a xlink:title=" ">
<path fill="none" stroke="#63b8ff" d="M840.85,-89.89C747.12,-85.83 523.95,-73.9 338.75,-46.25 321.86,-43.73 303.58,-40.06 287.22,-36.44"/>
<polygon fill="#63b8ff" stroke="#63b8ff" points="288.25,-33.09 277.72,-34.29 286.7,-39.91 288.25,-33.09"/>
</a>
</g>
</g>
<!-- Node13 -->
<g id="Node000013" class="node">
<title>Node13</title>
<g id="a_Node000013"><a xlink:title=" ">
<polygon fill="#e0e0e0" stroke="#999999" points="553.62,-39.88 347.88,-39.88 347.88,-6.38 553.62,-6.38 553.62,-39.88"/>
<text xml:space="preserve" text-anchor="start" x="355.88" y="-26.38" font-family="Helvetica,sans-Serif" font-size="10.00">UBT_COMPILED_PLATFORM</text>
<text xml:space="preserve" text-anchor="middle" x="450.75" y="-13.62" font-family="Helvetica,sans-Serif" font-size="10.00">/UBT_COMPILED_PLATFORMPlatform.h</text>
</a>
</g>
</g>
<!-- Node5&#45;&gt;Node13 -->
<g id="edge12_Node000005_Node000013" class="edge">
<title>Node5&#45;&gt;Node13</title>
<g id="a_edge12_Node000005_Node000013"><a xlink:title=" ">
<path fill="none" stroke="#63b8ff" d="M840.69,-86.1C778.15,-78.24 661.58,-62.94 562.75,-46.25 555.68,-45.06 548.37,-43.76 541.02,-42.41"/>
<polygon fill="#63b8ff" stroke="#63b8ff" points="541.85,-39 531.37,-40.6 540.56,-45.88 541.85,-39"/>
</a>
</g>
</g>
<!-- Node14 -->
<g id="Node000014" class="node">
<title>Node14</title>
<g id="a_Node000014"><a xlink:title=" ">
<polygon fill="#e0e0e0" stroke="#999999" points="768.12,-46.25 571.38,-46.25 571.38,0 768.12,0 768.12,-46.25"/>
<text xml:space="preserve" text-anchor="start" x="579.38" y="-32.75" font-family="Helvetica,sans-Serif" font-size="10.00">UBT_COMPILED_PLATFORM</text>
<text xml:space="preserve" text-anchor="start" x="579.38" y="-20" font-family="Helvetica,sans-Serif" font-size="10.00">/UBT_COMPILED_PLATFORMPlatform</text>
<text xml:space="preserve" text-anchor="middle" x="669.75" y="-7.25" font-family="Helvetica,sans-Serif" font-size="10.00">CompilerSetup.h</text>
</a>
</g>
</g>
<!-- Node5&#45;&gt;Node14 -->
<g id="edge13_Node000005_Node000014" class="edge">
<title>Node5&#45;&gt;Node14</title>
<g id="a_edge13_Node000005_Node000014"><a xlink:title=" ">
<path fill="none" stroke="#63b8ff" d="M854.34,-81.81C827.73,-73.49 788.33,-61.18 752.75,-50.06"/>
<polygon fill="#63b8ff" stroke="#63b8ff" points="753.89,-46.75 743.3,-47.11 751.8,-53.43 753.89,-46.75"/>
</a>
</g>
</g>
<!-- Node16&#45;&gt;Node5 -->
<g id="edge16_Node000016_Node000005" class="edge">
<title>Node16&#45;&gt;Node5</title>
<g id="a_edge16_Node000016_Node000005"><a xlink:title=" ">
<path fill="none" stroke="#63b8ff" d="M885.75,-144.93C885.75,-136.77 885.75,-124.88 885.75,-114.6"/>
<polygon fill="#63b8ff" stroke="#63b8ff" points="889.25,-114.73 885.75,-104.73 882.25,-114.73 889.25,-114.73"/>
</a>
</g>
</g>
<!-- Node16&#45;&gt;Node9 -->
<g id="edge17_Node000016_Node000009" class="edge">
<title>Node16&#45;&gt;Node9</title>
<g id="a_edge17_Node000016_Node000009"><a xlink:title=" ">
<path fill="none" stroke="#63b8ff" d="M841.43,-144.9C831.37,-142.82 820.71,-140.73 810.75,-139 511.51,-87.15 430.19,-112.26 133.75,-46.25 123.11,-43.88 111.76,-40.67 101.33,-37.42"/>
<polygon fill="#63b8ff" stroke="#63b8ff" points="102.48,-34.12 91.89,-34.39 100.34,-40.78 102.48,-34.12"/>
</a>
</g>
</g>
<!-- Node18&#45;&gt;Node5 -->
<g id="edge21_Node000018_Node000005" class="edge">
<title>Node18&#45;&gt;Node5</title>
<g id="a_edge21_Node000018_Node000005"><a xlink:title=" ">
<path fill="none" stroke="#63b8ff" d="M1367.27,-277.56C1327.51,-251.05 1212.54,-177.46 1106.75,-139 1052.57,-119.31 987.63,-107.26 942.22,-100.57"/>
<polygon fill="#63b8ff" stroke="#63b8ff" points="942.72,-97.11 932.33,-99.16 941.73,-104.04 942.72,-97.11"/>
</a>
</g>
</g>
<!-- Node18&#45;&gt;Node8 -->
<g id="edge23_Node000018_Node000008" class="edge">
<title>Node18&#45;&gt;Node8</title>
<g id="a_edge23_Node000018_Node000008"><a xlink:title=" ">
<path fill="none" stroke="#63b8ff" d="M1383.76,-277.82C1390.4,-247.51 1413.64,-151.48 1454.75,-82.25 1463.7,-67.18 1476.89,-52.5 1487.74,-41.66"/>
<polygon fill="#63b8ff" stroke="#63b8ff" points="1489.97,-44.37 1494.73,-34.9 1485.11,-39.33 1489.97,-44.37"/>
</a>
</g>
</g>
<!-- Node19 -->
<g id="Node000019" class="node">
<title>Node19</title>
<g id="a_Node000019"><a xlink:title=" ">
<polygon fill="#e0e0e0" stroke="#999999" points="1140.75,-235.62 1058.75,-235.62 1058.75,-214.88 1140.75,-214.88 1140.75,-235.62"/>
<text xml:space="preserve" text-anchor="middle" x="1099.75" y="-222.12" font-family="Helvetica,sans-Serif" font-size="10.00">initializer_list</text>
</a>
</g>
</g>
<!-- Node18&#45;&gt;Node19 -->
<g id="edge22_Node000018_Node000019" class="edge">
<title>Node18&#45;&gt;Node19</title>
<g id="a_edge22_Node000018_Node000019"><a xlink:title=" ">
<path fill="none" stroke="#63b8ff" d="M1336.44,-277.55C1286.11,-266.64 1204.97,-249.06 1152,-237.58"/>
<polygon fill="#63b8ff" stroke="#63b8ff" points="1152.81,-234.17 1142.3,-235.47 1151.33,-241.01 1152.81,-234.17"/>
</a>
</g>
</g>
<!-- Node20&#45;&gt;Node8 -->
<g id="edge25_Node000020_Node000008" class="edge">
<title>Node20&#45;&gt;Node8</title>
<g id="a_edge25_Node000020_Node000008"><a xlink:title=" ">
<path fill="none" stroke="#63b8ff" d="M1411.26,-334.29C1424.83,-325.45 1440.04,-313.31 1449.75,-298.75 1468.24,-271.04 1468.75,-259.56 1468.75,-226.25 1468.75,-226.25 1468.75,-226.25 1468.75,-154.75 1468.75,-114.18 1485.86,-69.23 1497.12,-44.06"/>
<polygon fill="#63b8ff" stroke="#63b8ff" points="1500.26,-45.6 1501.3,-35.05 1493.92,-42.65 1500.26,-45.6"/>
</a>
</g>
</g>
<!-- Node21 -->
<g id="Node000021" class="node">
<title>Node21</title>
<g id="a_Node000021"><a xlink:href="$IsCharType_8h.html" xlink:title=" ">
<polygon fill="white" stroke="#666666" points="1304.88,-298.75 1196.62,-298.75 1196.62,-278 1304.88,-278 1304.88,-298.75"/>
<text xml:space="preserve" text-anchor="middle" x="1250.75" y="-285.25" font-family="Helvetica,sans-Serif" font-size="10.00">Traits/IsCharType.h</text>
</a>
</g>
</g>
<!-- Node20&#45;&gt;Node21 -->
<g id="edge26_Node000020_Node000021" class="edge">
<title>Node20&#45;&gt;Node21</title>
<g id="a_edge26_Node000020_Node000021"><a xlink:title=" ">
<path fill="none" stroke="#63b8ff" d="M1346.99,-334.28C1326.78,-324.85 1301.52,-313.06 1281.95,-303.93"/>
<polygon fill="#63b8ff" stroke="#63b8ff" points="1283.65,-300.86 1273.1,-299.81 1280.69,-307.21 1283.65,-300.86"/>
</a>
</g>
</g>
<!-- Node21&#45;&gt;Node4 -->
<g id="edge27_Node000021_Node000004" class="edge">
<title>Node21&#45;&gt;Node4</title>
<g id="a_edge27_Node000021_Node000004"><a xlink:title=" ">
<path fill="none" stroke="#63b8ff" d="M1200.84,-277.58C1159.95,-269.2 1100.74,-256.26 1049.75,-242 1046.99,-241.23 1044.16,-240.39 1041.32,-239.52"/>
<polygon fill="#63b8ff" stroke="#63b8ff" points="1042.47,-236.22 1031.88,-236.51 1040.34,-242.88 1042.47,-236.22"/>
</a>
</g>
</g>
<!-- Node22&#45;&gt;Node4 -->
<g id="edge29_Node000022_Node000004" class="edge">
<title>Node22&#45;&gt;Node4</title>
<g id="a_edge29_Node000022_Node000004"><a xlink:title=" ">
<path fill="none" stroke="#63b8ff" d="M935.6,-277.55C947.85,-268.2 966.52,-253.93 981.07,-242.81"/>
<polygon fill="#63b8ff" stroke="#63b8ff" points="982.9,-245.82 988.73,-236.97 978.65,-240.26 982.9,-245.82"/>
</a>
</g>
</g>
<!-- Node22&#45;&gt;Node19 -->
<g id="edge31_Node000022_Node000019" class="edge">
<title>Node22&#45;&gt;Node19</title>
<g id="a_edge31_Node000022_Node000019"><a xlink:title=" ">
<path fill="none" stroke="#63b8ff" d="M951.19,-277.55C980.86,-267.31 1027.6,-251.17 1060.72,-239.73"/>
<polygon fill="#63b8ff" stroke="#63b8ff" points="1061.64,-243.11 1069.95,-236.54 1059.36,-236.5 1061.64,-243.11"/>
</a>
</g>
</g>
<!-- Node23 -->
<g id="Node000023" class="node">
<title>Node23</title>
<g id="a_Node000023"><a xlink:href="$StaticAssertCompleteType_8h.html" xlink:title=" ">
<polygon fill="white" stroke="#666666" points="947.38,-242 800.12,-242 800.12,-208.5 947.38,-208.5 947.38,-242"/>
<text xml:space="preserve" text-anchor="start" x="808.12" y="-228.5" font-family="Helvetica,sans-Serif" font-size="10.00">Misc/StaticAssertComplete</text>
<text xml:space="preserve" text-anchor="middle" x="873.75" y="-215.75" font-family="Helvetica,sans-Serif" font-size="10.00">Type.h</text>
</a>
</g>
</g>
<!-- Node22&#45;&gt;Node23 -->
<g id="edge30_Node000022_Node000023" class="edge">
<title>Node22&#45;&gt;Node23</title>
<g id="a_edge30_Node000022_Node000023"><a xlink:title=" ">
<path fill="none" stroke="#63b8ff" d="M914.88,-277.55C909.2,-270.47 901.26,-260.56 893.87,-251.34"/>
<polygon fill="#63b8ff" stroke="#63b8ff" points="896.7,-249.28 887.71,-243.67 891.24,-253.66 896.7,-249.28"/>
</a>
</g>
</g>
<!-- Node24&#45;&gt;Node8 -->
<g id="edge33_Node000024_Node000008" class="edge">
<title>Node24&#45;&gt;Node8</title>
<g id="a_edge33_Node000024_Node000008"><a xlink:title=" ">
<path fill="none" stroke="#63b8ff" d="M1605.27,-81.95C1586.51,-70.94 1555.58,-52.79 1533.38,-39.75"/>
<polygon fill="#63b8ff" stroke="#63b8ff" points="1535.27,-36.81 1524.88,-34.76 1531.73,-42.84 1535.27,-36.81"/>
</a>
</g>
</g>
<!-- Node26 -->
<g id="Node000026" class="node">
<title>Node26</title>
<g id="a_Node000026"><a xlink:href="$ContainersFwd_8h.html" xlink:title=" ">
<polygon fill="white" stroke="#666666" points="944.38,-361.88 791.12,-361.88 791.12,-341.12 944.38,-341.12 944.38,-361.88"/>
<text xml:space="preserve" text-anchor="middle" x="867.75" y="-348.38" font-family="Helvetica,sans-Serif" font-size="10.00">Containers/ContainersFwd.h</text>
</a>
</g>
</g>
<!-- Node25&#45;&gt;Node26 -->
<g id="edge35_Node000025_Node000026" class="edge">
<title>Node25&#45;&gt;Node26</title>
<g id="a_edge35_Node000025_Node000026"><a xlink:title=" ">
<path fill="none" stroke="#63b8ff" d="M930.7,-403.8C919.26,-394.48 901.84,-380.28 888.22,-369.19"/>
<polygon fill="#63b8ff" stroke="#63b8ff" points="890.66,-366.66 880.7,-363.05 886.24,-372.08 890.66,-366.66"/>
</a>
</g>
</g>
<!-- Node26&#45;&gt;Node4 -->
<g id="edge37_Node000026_Node000004" class="edge">
<title>Node26&#45;&gt;Node4</title>
<g id="a_edge37_Node000026_Node000004"><a xlink:title=" ">
<path fill="none" stroke="#63b8ff" d="M856.12,-340.74C840.22,-326.21 815.35,-298.42 830.75,-278 865.82,-231.5 901.18,-259.44 956.75,-242 959.26,-241.21 961.85,-240.38 964.45,-239.53"/>
<polygon fill="#63b8ff" stroke="#63b8ff" points="965.28,-242.94 973.66,-236.46 963.07,-236.3 965.28,-242.94"/>
</a>
</g>
</g>
<!-- Node26&#45;&gt;Node5 -->
<g id="edge36_Node000026_Node000005" class="edge">
<title>Node26&#45;&gt;Node5</title>
<g id="a_edge36_Node000026_Node000005"><a xlink:title=" ">
<path fill="none" stroke="#63b8ff" d="M846.25,-340.7C784.25,-311.14 613.62,-219.96 678.75,-139 697.37,-115.85 774.89,-103.85 829.58,-98.15"/>
<polygon fill="#63b8ff" stroke="#63b8ff" points="829.76,-101.64 839.37,-97.17 829.07,-94.68 829.76,-101.64"/>
</a>
</g>
</g>
<!-- Node26&#45;&gt;Node22 -->
<g id="edge38_Node000026_Node000022" class="edge">
<title>Node26&#45;&gt;Node22</title>
<g id="a_edge38_Node000026_Node000022"><a xlink:title=" ">
<path fill="none" stroke="#63b8ff" d="M876.59,-340.68C884.65,-331.72 896.77,-318.24 906.57,-307.35"/>
<polygon fill="#63b8ff" stroke="#63b8ff" points="909.02,-309.87 913.1,-300.1 903.81,-305.19 909.02,-309.87"/>
</a>
</g>
</g>
</g>
</svg>
