<?xml version="1.0" encoding="UTF-8" standalone="no"?>
<!DOCTYPE svg PUBLIC "-//W3C//DTD SVG 1.1//EN"
 "http://www.w3.org/Graphics/SVG/1.1/DTD/svg11.dtd">
<!-- Generated by graphviz version 14.1.4 (0)
 -->
<!-- Title: MakeConstStridedView Pages: 1 -->
<svg width="301pt" height="107pt"
 viewBox="0.00 0.00 301.00 107.00" xmlns="http://www.w3.org/2000/svg" xmlns:xlink="http://www.w3.org/1999/xlink">
<g id="graph0" class="graph" transform="scale(1 1) rotate(0) translate(4 102.75)">
<title>MakeConstStridedView</title>
<!-- Node1 -->
<g id="Node000001" class="node">
<title>Node1</title>
<g id="a_Node000001"><a xlink:title=" ">
<polygon fill="#999999" stroke="#666666" points="128.5,-59.75 0,-59.75 0,-39 128.5,-39 128.5,-59.75"/>
<text xml:space="preserve" text-anchor="middle" x="64.25" y="-46.25" font-family="Helvetica,sans-Serif" font-size="10.00">MakeConstStridedView</text>
</a>
</g>
</g>
<!-- Node2 -->
<g id="Node000002" class="node">
<title>Node2</title>
<g id="a_Node000002"><a xlink:href="$StringConv_8h.html#a4111b73e6a9d7101173e7223118962f3" xlink:title=" ">
<polygon fill="white" stroke="#666666" points="257,-98.75 200.5,-98.75 200.5,-78 257,-78 257,-98.75"/>
<text xml:space="preserve" text-anchor="middle" x="228.75" y="-85.25" font-family="Helvetica,sans-Serif" font-size="10.00">GetData</text>
</a>
</g>
</g>
<!-- Node1&#45;&gt;Node2 -->
<g id="edge1_Node000001_Node000002" class="edge">
<title>Node1&#45;&gt;Node2</title>
<g id="a_edge1_Node000001_Node000002"><a xlink:title=" ">
<path fill="none" stroke="#63b8ff" d="M110.52,-60.24C135.21,-66.17 165.46,-73.43 189.05,-79.09"/>
<polygon fill="#63b8ff" stroke="#63b8ff" points="188.03,-82.44 198.57,-81.37 189.66,-75.63 188.03,-82.44"/>
</a>
</g>
</g>
<!-- Node3 -->
<g id="Node000003" class="node">
<title>Node3</title>
<g id="a_Node000003"><a xlink:href="$StringConv_8h.html#a3caf5874b63a514dc33c219ec83eedbf" xlink:title=" ">
<polygon fill="white" stroke="#666666" points="257,-59.75 200.5,-59.75 200.5,-39 257,-39 257,-59.75"/>
<text xml:space="preserve" text-anchor="middle" x="228.75" y="-46.25" font-family="Helvetica,sans-Serif" font-size="10.00">GetNum</text>
</a>
</g>
</g>
<!-- Node1&#45;&gt;Node3 -->
<g id="edge2_Node000001_Node000003" class="edge">
<title>Node1&#45;&gt;Node3</title>
<g id="a_edge2_Node000001_Node000003"><a xlink:title=" ">
<path fill="none" stroke="#63b8ff" d="M128.54,-49.38C148.77,-49.38 170.56,-49.38 188.55,-49.38"/>
<polygon fill="#63b8ff" stroke="#63b8ff" points="188.54,-52.88 198.54,-49.38 188.54,-45.88 188.54,-52.88"/>
</a>
</g>
</g>
<!-- Node4 -->
<g id="Node000004" class="node">
<title>Node4</title>
<g id="a_Node000004"><a xlink:href="$StridedView_8h.html#ae19d5e00373bede5dc583446a6e6582f" xlink:title=" ">
<polygon fill="white" stroke="#666666" points="293,-20.75 164.5,-20.75 164.5,0 293,0 293,-20.75"/>
<text xml:space="preserve" text-anchor="middle" x="228.75" y="-7.25" font-family="Helvetica,sans-Serif" font-size="10.00">MakeConstStridedView</text>
</a>
</g>
</g>
<!-- Node1&#45;&gt;Node4 -->
<g id="edge3_Node000001_Node000004" class="edge">
<title>Node1&#45;&gt;Node4</title>
<g id="a_edge3_Node000001_Node000004"><a xlink:title=" ">
<path fill="none" stroke="#63b8ff" d="M110.52,-38.51C129.37,-33.99 151.45,-28.69 171.34,-23.91"/>
<polygon fill="#63b8ff" stroke="#63b8ff" points="172.07,-27.34 180.97,-21.6 170.43,-20.53 172.07,-27.34"/>
</a>
</g>
</g>
</g>
</svg>
