<?xml version="1.0" encoding="UTF-8" standalone="no"?>
<!DOCTYPE svg PUBLIC "-//W3C//DTD SVG 1.1//EN"
 "http://www.w3.org/Graphics/SVG/1.1/DTD/svg11.dtd">
<!-- Generated by graphviz version 14.1.4 (0)
 -->
<!-- Title: /opt/unreal&#45;engine/Engine/Source/Runtime/Core/Public/Misc/StringFormatArg.h Pages: 1 -->
<svg width="1550pt" height="446pt"
 viewBox="0.00 0.00 1550.00 446.00" xmlns="http://www.w3.org/2000/svg" xmlns:xlink="http://www.w3.org/1999/xlink">
<g id="graph0" class="graph" transform="scale(1 1) rotate(0) translate(4 441.75)">
<title>/opt/unreal&#45;engine/Engine/Source/Runtime/Core/Public/Misc/StringFormatArg.h</title>
<!-- Node1 -->
<g id="Node000001" class="node">
<title>Node1</title>
<g id="a_Node000001"><a xlink:title=" ">
<polygon fill="#999999" stroke="#666666" points="966,-437.75 775.25,-437.75 775.25,-391.5 966,-391.5 966,-437.75"/>
<text xml:space="preserve" text-anchor="start" x="783.25" y="-424.25" font-family="Helvetica,sans-Serif" font-size="10.00">/opt/unreal&#45;engine</text>
<text xml:space="preserve" text-anchor="start" x="783.25" y="-411.5" font-family="Helvetica,sans-Serif" font-size="10.00">/Engine/Source/Runtime</text>
<text xml:space="preserve" text-anchor="middle" x="870.62" y="-398.75" font-family="Helvetica,sans-Serif" font-size="10.00">/Core/Public/Misc/StringFormatArg.h</text>
</a>
</g>
</g>
<!-- Node2 -->
<g id="Node000002" class="node">
<title>Node2</title>
<g id="a_Node000002"><a xlink:href="$ContainersFwd_8h.html" xlink:title=" ">
<polygon fill="white" stroke="#666666" points="947.25,-355.5 794,-355.5 794,-334.75 947.25,-334.75 947.25,-355.5"/>
<text xml:space="preserve" text-anchor="middle" x="870.62" y="-342" font-family="Helvetica,sans-Serif" font-size="10.00">Containers/ContainersFwd.h</text>
</a>
</g>
</g>
<!-- Node1&#45;&gt;Node2 -->
<g id="edge1_Node000001_Node000002" class="edge">
<title>Node1&#45;&gt;Node2</title>
<g id="a_edge1_Node000001_Node000002"><a xlink:title=" ">
<path fill="none" stroke="#63b8ff" d="M870.62,-391.15C870.62,-383.48 870.62,-374.94 870.62,-367.38"/>
<polygon fill="#63b8ff" stroke="#63b8ff" points="874.13,-367.4 870.63,-357.4 867.13,-367.4 874.13,-367.4"/>
</a>
</g>
</g>
<!-- Node3 -->
<g id="Node000003" class="node">
<title>Node3</title>
<g id="a_Node000003"><a xlink:href="$Platform_8h.html" xlink:title=" ">
<polygon fill="white" stroke="#666666" points="811.38,-103 721.88,-103 721.88,-82.25 811.38,-82.25 811.38,-103"/>
<text xml:space="preserve" text-anchor="middle" x="766.62" y="-89.5" font-family="Helvetica,sans-Serif" font-size="10.00">HAL/Platform.h</text>
</a>
</g>
</g>
<!-- Node2&#45;&gt;Node3 -->
<g id="edge2_Node000002_Node000003" class="edge">
<title>Node2&#45;&gt;Node3</title>
<g id="a_edge2_Node000002_Node000003"><a xlink:title=" ">
<path fill="none" stroke="#63b8ff" d="M864.23,-334.55C847.66,-309.25 803.04,-238.08 780.62,-172.5 774.13,-153.5 770.51,-130.84 768.58,-114.69"/>
<polygon fill="#63b8ff" stroke="#63b8ff" points="772.07,-114.41 767.54,-104.84 765.11,-115.15 772.07,-114.41"/>
</a>
</g>
</g>
<!-- Node13 -->
<g id="Node000013" class="node">
<title>Node13</title>
<g id="a_Node000013"><a xlink:href="$CoreTypes_8h.html" xlink:title=" ">
<polygon fill="white" stroke="#666666" points="908.25,-235.62 833,-235.62 833,-214.88 908.25,-214.88 908.25,-235.62"/>
<text xml:space="preserve" text-anchor="middle" x="870.62" y="-222.12" font-family="Helvetica,sans-Serif" font-size="10.00">CoreTypes.h</text>
</a>
</g>
</g>
<!-- Node2&#45;&gt;Node13 -->
<g id="edge12_Node000002_Node000013" class="edge">
<title>Node2&#45;&gt;Node13</title>
<g id="a_edge12_Node000002_Node000013"><a xlink:title=" ">
<path fill="none" stroke="#63b8ff" d="M870.62,-334.48C870.62,-315.57 870.62,-273.23 870.62,-247.47"/>
<polygon fill="#63b8ff" stroke="#63b8ff" points="874.13,-247.54 870.63,-237.54 867.13,-247.54 874.13,-247.54"/>
</a>
</g>
</g>
<!-- Node17 -->
<g id="Node000017" class="node">
<title>Node17</title>
<g id="a_Node000017"><a xlink:href="$IsContiguousContainer_8h.html" xlink:title=" ">
<polygon fill="white" stroke="#666666" points="1073.25,-298.75 908,-298.75 908,-278 1073.25,-278 1073.25,-298.75"/>
<text xml:space="preserve" text-anchor="middle" x="990.62" y="-285.25" font-family="Helvetica,sans-Serif" font-size="10.00">Traits/IsContiguousContainer.h</text>
</a>
</g>
</g>
<!-- Node2&#45;&gt;Node17 -->
<g id="edge19_Node000002_Node000017" class="edge">
<title>Node2&#45;&gt;Node17</title>
<g id="a_edge19_Node000002_Node000017"><a xlink:title=" ">
<path fill="none" stroke="#63b8ff" d="M892.08,-334.34C910.68,-325.85 937.85,-313.45 958.95,-303.83"/>
<polygon fill="#63b8ff" stroke="#63b8ff" points="960.34,-307.04 967.98,-299.71 957.43,-300.67 960.34,-307.04"/>
</a>
</g>
</g>
<!-- Node4 -->
<g id="Node000004" class="node">
<title>Node4</title>
<g id="a_Node000004"><a xlink:href="$Build_8h.html" xlink:title=" ">
<polygon fill="white" stroke="#666666" points="75.25,-33.5 0,-33.5 0,-12.75 75.25,-12.75 75.25,-33.5"/>
<text xml:space="preserve" text-anchor="middle" x="37.62" y="-20" font-family="Helvetica,sans-Serif" font-size="10.00">Misc/Build.h</text>
</a>
</g>
</g>
<!-- Node3&#45;&gt;Node4 -->
<g id="edge3_Node000003_Node000004" class="edge">
<title>Node3&#45;&gt;Node4</title>
<g id="a_edge3_Node000003_Node000004"><a xlink:title=" ">
<path fill="none" stroke="#63b8ff" d="M721.58,-90.81C589.63,-88.08 205.68,-77.57 84.62,-46.25 77.91,-44.51 70.99,-41.82 64.6,-38.91"/>
<polygon fill="#63b8ff" stroke="#63b8ff" points="66.33,-35.86 55.81,-34.6 63.24,-42.15 66.33,-35.86"/>
</a>
</g>
</g>
<!-- Node5 -->
<g id="Node000005" class="node">
<title>Node5</title>
<g id="a_Node000005"><a xlink:href="$LargeWorldCoordinates_8h.html" xlink:title=" ">
<polygon fill="white" stroke="#666666" points="257.88,-33.5 93.38,-33.5 93.38,-12.75 257.88,-12.75 257.88,-33.5"/>
<text xml:space="preserve" text-anchor="middle" x="175.62" y="-20" font-family="Helvetica,sans-Serif" font-size="10.00">Misc/LargeWorldCoordinates.h</text>
</a>
</g>
</g>
<!-- Node3&#45;&gt;Node5 -->
<g id="edge4_Node000003_Node000005" class="edge">
<title>Node3&#45;&gt;Node5</title>
<g id="a_edge4_Node000003_Node000005"><a xlink:title=" ">
<path fill="none" stroke="#63b8ff" d="M721.62,-89.73C633.81,-85.54 433.71,-73.62 267.62,-46.25 252.64,-43.78 236.48,-40.21 221.95,-36.65"/>
<polygon fill="#63b8ff" stroke="#63b8ff" points="223.22,-33.37 212.67,-34.33 221.52,-40.16 223.22,-33.37"/>
</a>
</g>
</g>
<!-- Node6 -->
<g id="Node000006" class="node">
<title>Node6</title>
<g id="a_Node000006"><a xlink:title=" ">
<polygon fill="#e0e0e0" stroke="#999999" points="344.88,-33.5 276.38,-33.5 276.38,-12.75 344.88,-12.75 344.88,-33.5"/>
<text xml:space="preserve" text-anchor="middle" x="310.62" y="-20" font-family="Helvetica,sans-Serif" font-size="10.00">type_traits</text>
</a>
</g>
</g>
<!-- Node3&#45;&gt;Node6 -->
<g id="edge5_Node000003_Node000006" class="edge">
<title>Node3&#45;&gt;Node6</title>
<g id="a_edge5_Node000003_Node000006"><a xlink:title=" ">
<path fill="none" stroke="#63b8ff" d="M721.4,-91.84C644.45,-91.07 483.83,-84.5 354.62,-46.25 348.58,-44.46 342.36,-41.87 336.58,-39.08"/>
<polygon fill="#63b8ff" stroke="#63b8ff" points="338.6,-36.18 328.11,-34.68 335.37,-42.39 338.6,-36.18"/>
</a>
</g>
</g>
<!-- Node7 -->
<g id="Node000007" class="node">
<title>Node7</title>
<g id="a_Node000007"><a xlink:href="$PreprocessorHelpers_8h.html" xlink:title=" ">
<polygon fill="white" stroke="#666666" points="1542.38,-33.5 1416.88,-33.5 1416.88,-12.75 1542.38,-12.75 1542.38,-33.5"/>
<text xml:space="preserve" text-anchor="middle" x="1479.62" y="-20" font-family="Helvetica,sans-Serif" font-size="10.00">PreprocessorHelpers.h</text>
</a>
</g>
</g>
<!-- Node3&#45;&gt;Node7 -->
<g id="edge6_Node000003_Node000007" class="edge">
<title>Node3&#45;&gt;Node7</title>
<g id="a_edge6_Node000003_Node000007"><a xlink:title=" ">
<path fill="none" stroke="#63b8ff" d="M811.75,-91.94C917.08,-91.9 1186.91,-87.42 1407.62,-46.25 1418.98,-44.13 1431.07,-40.84 1442.03,-37.44"/>
<polygon fill="#63b8ff" stroke="#63b8ff" points="1443.1,-40.77 1451.54,-34.37 1440.95,-34.11 1443.1,-40.77"/>
</a>
</g>
</g>
<!-- Node8 -->
<g id="Node000008" class="node">
<title>Node8</title>
<g id="a_Node000008"><a xlink:title=" ">
<polygon fill="#e0e0e0" stroke="#999999" points="560,-46.25 363.25,-46.25 363.25,0 560,0 560,-46.25"/>
<text xml:space="preserve" text-anchor="start" x="371.25" y="-32.75" font-family="Helvetica,sans-Serif" font-size="10.00">UBT_COMPILED_PLATFORM</text>
<text xml:space="preserve" text-anchor="start" x="371.25" y="-20" font-family="Helvetica,sans-Serif" font-size="10.00">/UBT_COMPILED_PLATFORMPlatform</text>
<text xml:space="preserve" text-anchor="middle" x="461.62" y="-7.25" font-family="Helvetica,sans-Serif" font-size="10.00">CompilerPreSetup.h</text>
</a>
</g>
</g>
<!-- Node3&#45;&gt;Node8 -->
<g id="edge7_Node000003_Node000008" class="edge">
<title>Node3&#45;&gt;Node8</title>
<g id="a_edge7_Node000003_Node000008"><a xlink:title=" ">
<path fill="none" stroke="#63b8ff" d="M722.28,-81.81C682.79,-73.07 623.37,-59.92 571.23,-48.38"/>
<polygon fill="#63b8ff" stroke="#63b8ff" points="572.23,-45.02 561.71,-46.27 570.71,-51.85 572.23,-45.02"/>
</a>
</g>
</g>
<!-- Node9 -->
<g id="Node000009" class="node">
<title>Node9</title>
<g id="a_Node000009"><a xlink:href="$GenericPlatformCompilerPreSetup_8h.html" xlink:title=" ">
<polygon fill="white" stroke="#666666" points="755.62,-39.88 577.62,-39.88 577.62,-6.38 755.62,-6.38 755.62,-39.88"/>
<text xml:space="preserve" text-anchor="start" x="585.62" y="-26.38" font-family="Helvetica,sans-Serif" font-size="10.00">GenericPlatform/GenericPlatform</text>
<text xml:space="preserve" text-anchor="middle" x="666.62" y="-13.62" font-family="Helvetica,sans-Serif" font-size="10.00">CompilerPreSetup.h</text>
</a>
</g>
</g>
<!-- Node3&#45;&gt;Node9 -->
<g id="edge8_Node000003_Node000009" class="edge">
<title>Node3&#45;&gt;Node9</title>
<g id="a_edge8_Node000003_Node000009"><a xlink:title=" ">
<path fill="none" stroke="#63b8ff" d="M752.3,-81.95C738.72,-72.79 717.81,-58.68 700.06,-46.69"/>
<polygon fill="#63b8ff" stroke="#63b8ff" points="702.08,-43.83 691.83,-41.14 698.16,-49.64 702.08,-43.83"/>
</a>
</g>
</g>
<!-- Node10 -->
<g id="Node000010" class="node">
<title>Node10</title>
<g id="a_Node000010"><a xlink:href="$GenericPlatform_8h.html" xlink:title=" ">
<polygon fill="white" stroke="#666666" points="961.12,-33.5 774.12,-33.5 774.12,-12.75 961.12,-12.75 961.12,-33.5"/>
<text xml:space="preserve" text-anchor="middle" x="867.62" y="-20" font-family="Helvetica,sans-Serif" font-size="10.00">GenericPlatform/GenericPlatform.h</text>
</a>
</g>
</g>
<!-- Node3&#45;&gt;Node10 -->
<g id="edge9_Node000003_Node000010" class="edge">
<title>Node3&#45;&gt;Node10</title>
<g id="a_edge9_Node000003_Node000010"><a xlink:title=" ">
<path fill="none" stroke="#63b8ff" d="M781.1,-81.95C797.35,-71.09 824,-53.28 843.44,-40.29"/>
<polygon fill="#63b8ff" stroke="#63b8ff" points="845.22,-43.31 851.59,-34.84 841.34,-37.49 845.22,-43.31"/>
</a>
</g>
</g>
<!-- Node11 -->
<g id="Node000011" class="node">
<title>Node11</title>
<g id="a_Node000011"><a xlink:title=" ">
<polygon fill="#e0e0e0" stroke="#999999" points="1184.5,-39.88 978.75,-39.88 978.75,-6.38 1184.5,-6.38 1184.5,-39.88"/>
<text xml:space="preserve" text-anchor="start" x="986.75" y="-26.38" font-family="Helvetica,sans-Serif" font-size="10.00">UBT_COMPILED_PLATFORM</text>
<text xml:space="preserve" text-anchor="middle" x="1081.62" y="-13.62" font-family="Helvetica,sans-Serif" font-size="10.00">/UBT_COMPILED_PLATFORMPlatform.h</text>
</a>
</g>
</g>
<!-- Node3&#45;&gt;Node11 -->
<g id="edge10_Node000003_Node000011" class="edge">
<title>Node3&#45;&gt;Node11</title>
<g id="a_edge10_Node000003_Node000011"><a xlink:title=" ">
<path fill="none" stroke="#63b8ff" d="M811.76,-81.95C859.3,-71.77 935.36,-55.47 994.62,-42.77"/>
<polygon fill="#63b8ff" stroke="#63b8ff" points="995.34,-46.19 1004.38,-40.68 993.87,-39.35 995.34,-46.19"/>
</a>
</g>
</g>
<!-- Node12 -->
<g id="Node000012" class="node">
<title>Node12</title>
<g id="a_Node000012"><a xlink:title=" ">
<polygon fill="#e0e0e0" stroke="#999999" points="1399,-46.25 1202.25,-46.25 1202.25,0 1399,0 1399,-46.25"/>
<text xml:space="preserve" text-anchor="start" x="1210.25" y="-32.75" font-family="Helvetica,sans-Serif" font-size="10.00">UBT_COMPILED_PLATFORM</text>
<text xml:space="preserve" text-anchor="start" x="1210.25" y="-20" font-family="Helvetica,sans-Serif" font-size="10.00">/UBT_COMPILED_PLATFORMPlatform</text>
<text xml:space="preserve" text-anchor="middle" x="1300.62" y="-7.25" font-family="Helvetica,sans-Serif" font-size="10.00">CompilerSetup.h</text>
</a>
</g>
</g>
<!-- Node3&#45;&gt;Node12 -->
<g id="edge11_Node000003_Node000012" class="edge">
<title>Node3&#45;&gt;Node12</title>
<g id="a_edge11_Node000003_Node000012"><a xlink:title=" ">
<path fill="none" stroke="#63b8ff" d="M811.69,-88.3C887.79,-82.36 1046.81,-68.59 1190.66,-46.64"/>
<polygon fill="#63b8ff" stroke="#63b8ff" points="1191.03,-50.13 1200.38,-45.14 1189.96,-43.21 1191.03,-50.13"/>
</a>
</g>
</g>
<!-- Node13&#45;&gt;Node3 -->
<g id="edge13_Node000013_Node000003" class="edge">
<title>Node13&#45;&gt;Node3</title>
<g id="a_edge13_Node000013_Node000003"><a xlink:title=" ">
<path fill="none" stroke="#63b8ff" d="M854.23,-214.47C839.71,-205.15 818.68,-189.97 804.62,-172.5 790.37,-154.77 779.79,-130.81 773.47,-113.97"/>
<polygon fill="#63b8ff" stroke="#63b8ff" points="776.78,-112.83 770.13,-104.58 770.18,-115.17 776.78,-112.83"/>
</a>
</g>
</g>
<!-- Node14 -->
<g id="Node000014" class="node">
<title>Node14</title>
<g id="a_Node000014"><a xlink:href="$UMemoryDefines_8h.html" xlink:title=" ">
<polygon fill="white" stroke="#666666" points="927.38,-172.5 813.88,-172.5 813.88,-139 927.38,-139 927.38,-172.5"/>
<text xml:space="preserve" text-anchor="start" x="821.88" y="-159" font-family="Helvetica,sans-Serif" font-size="10.00">ProfilingDebugging</text>
<text xml:space="preserve" text-anchor="middle" x="870.62" y="-146.25" font-family="Helvetica,sans-Serif" font-size="10.00">/UMemoryDefines.h</text>
</a>
</g>
</g>
<!-- Node13&#45;&gt;Node14 -->
<g id="edge14_Node000013_Node000014" class="edge">
<title>Node13&#45;&gt;Node14</title>
<g id="a_edge14_Node000013_Node000014"><a xlink:title=" ">
<path fill="none" stroke="#63b8ff" d="M870.62,-214.58C870.62,-206.69 870.62,-195.13 870.62,-184.41"/>
<polygon fill="#63b8ff" stroke="#63b8ff" points="874.13,-184.43 870.63,-174.43 867.13,-184.43 874.13,-184.43"/>
</a>
</g>
</g>
<!-- Node15 -->
<g id="Node000015" class="node">
<title>Node15</title>
<g id="a_Node000015"><a xlink:href="$CoreMiscDefines_8h.html" xlink:title=" ">
<polygon fill="white" stroke="#666666" points="1078.12,-166.12 945.12,-166.12 945.12,-145.38 1078.12,-145.38 1078.12,-166.12"/>
<text xml:space="preserve" text-anchor="middle" x="1011.62" y="-152.62" font-family="Helvetica,sans-Serif" font-size="10.00">Misc/CoreMiscDefines.h</text>
</a>
</g>
</g>
<!-- Node13&#45;&gt;Node15 -->
<g id="edge15_Node000013_Node000015" class="edge">
<title>Node13&#45;&gt;Node15</title>
<g id="a_edge15_Node000013_Node000015"><a xlink:title=" ">
<path fill="none" stroke="#63b8ff" d="M891.13,-214.43C914.73,-203.14 953.73,-184.47 980.95,-171.44"/>
<polygon fill="#63b8ff" stroke="#63b8ff" points="982.22,-174.71 989.73,-167.23 979.2,-168.39 982.22,-174.71"/>
</a>
</g>
</g>
<!-- Node16 -->
<g id="Node000016" class="node">
<title>Node16</title>
<g id="a_Node000016"><a xlink:href="$CoreDefines_8h.html" xlink:title=" ">
<polygon fill="white" stroke="#666666" points="1206.88,-166.12 1096.38,-166.12 1096.38,-145.38 1206.88,-145.38 1206.88,-166.12"/>
<text xml:space="preserve" text-anchor="middle" x="1151.62" y="-152.62" font-family="Helvetica,sans-Serif" font-size="10.00">Misc/CoreDefines.h</text>
</a>
</g>
</g>
<!-- Node13&#45;&gt;Node16 -->
<g id="edge18_Node000013_Node000016" class="edge">
<title>Node13&#45;&gt;Node16</title>
<g id="a_edge18_Node000013_Node000016"><a xlink:title=" ">
<path fill="none" stroke="#63b8ff" d="M897.21,-214.53C903.53,-212.39 910.28,-210.25 916.62,-208.5 991.5,-187.88 1011.91,-189.78 1087.62,-172.5 1092.14,-171.47 1096.83,-170.37 1101.53,-169.25"/>
<polygon fill="#63b8ff" stroke="#63b8ff" points="1102.04,-172.73 1110.94,-166.98 1100.4,-165.92 1102.04,-172.73"/>
</a>
</g>
</g>
<!-- Node15&#45;&gt;Node3 -->
<g id="edge16_Node000015_Node000003" class="edge">
<title>Node15&#45;&gt;Node3</title>
<g id="a_edge16_Node000015_Node000003"><a xlink:title=" ">
<path fill="none" stroke="#63b8ff" d="M972.26,-144.93C930.02,-134.39 862.82,-117.62 816.81,-106.15"/>
<polygon fill="#63b8ff" stroke="#63b8ff" points="817.91,-102.81 807.36,-103.79 816.21,-109.6 817.91,-102.81"/>
</a>
</g>
</g>
<!-- Node15&#45;&gt;Node7 -->
<g id="edge17_Node000015_Node000007" class="edge">
<title>Node15&#45;&gt;Node7</title>
<g id="a_edge17_Node000015_Node000007"><a xlink:title=" ">
<path fill="none" stroke="#63b8ff" d="M1049.13,-144.88C1119.57,-126.27 1276.37,-84.39 1407.62,-46.25 1417.39,-43.41 1427.86,-40.26 1437.71,-37.24"/>
<polygon fill="#63b8ff" stroke="#63b8ff" points="1438.53,-40.65 1447.05,-34.36 1436.47,-33.96 1438.53,-40.65"/>
</a>
</g>
</g>
<!-- Node17&#45;&gt;Node13 -->
<g id="edge20_Node000017_Node000013" class="edge">
<title>Node17&#45;&gt;Node13</title>
<g id="a_edge20_Node000017_Node000013"><a xlink:title=" ">
<path fill="none" stroke="#63b8ff" d="M971.34,-277.55C952.1,-267.75 922.27,-252.56 900.07,-241.25"/>
<polygon fill="#63b8ff" stroke="#63b8ff" points="901.71,-238.15 891.21,-236.73 898.53,-244.39 901.71,-238.15"/>
</a>
</g>
</g>
<!-- Node18 -->
<g id="Node000018" class="node">
<title>Node18</title>
<g id="a_Node000018"><a xlink:href="$StaticAssertCompleteType_8h.html" xlink:title=" ">
<polygon fill="white" stroke="#666666" points="1073.25,-242 926,-242 926,-208.5 1073.25,-208.5 1073.25,-242"/>
<text xml:space="preserve" text-anchor="start" x="934" y="-228.5" font-family="Helvetica,sans-Serif" font-size="10.00">Misc/StaticAssertComplete</text>
<text xml:space="preserve" text-anchor="middle" x="999.62" y="-215.75" font-family="Helvetica,sans-Serif" font-size="10.00">Type.h</text>
</a>
</g>
</g>
<!-- Node17&#45;&gt;Node18 -->
<g id="edge21_Node000017_Node000018" class="edge">
<title>Node17&#45;&gt;Node18</title>
<g id="a_edge21_Node000017_Node000018"><a xlink:title=" ">
<path fill="none" stroke="#63b8ff" d="M992.07,-277.55C993.03,-271.06 994.33,-262.19 995.59,-253.66"/>
<polygon fill="#63b8ff" stroke="#63b8ff" points="999.02,-254.39 997.01,-243.98 992.09,-253.37 999.02,-254.39"/>
</a>
</g>
</g>
<!-- Node19 -->
<g id="Node000019" class="node">
<title>Node19</title>
<g id="a_Node000019"><a xlink:title=" ">
<polygon fill="#e0e0e0" stroke="#999999" points="1173.62,-235.62 1091.62,-235.62 1091.62,-214.88 1173.62,-214.88 1173.62,-235.62"/>
<text xml:space="preserve" text-anchor="middle" x="1132.62" y="-222.12" font-family="Helvetica,sans-Serif" font-size="10.00">initializer_list</text>
</a>
</g>
</g>
<!-- Node17&#45;&gt;Node19 -->
<g id="edge22_Node000017_Node000019" class="edge">
<title>Node17&#45;&gt;Node19</title>
<g id="a_edge22_Node000017_Node000019"><a xlink:title=" ">
<path fill="none" stroke="#63b8ff" d="M1013.44,-277.55C1036.73,-267.53 1073.12,-251.87 1099.56,-240.48"/>
<polygon fill="#63b8ff" stroke="#63b8ff" points="1100.68,-243.81 1108.48,-236.64 1097.91,-237.38 1100.68,-243.81"/>
</a>
</g>
</g>
</g>
</svg>
