<?xml version="1.0" encoding="UTF-8" standalone="no"?>
<!DOCTYPE svg PUBLIC "-//W3C//DTD SVG 1.1//EN"
 "http://www.w3.org/Graphics/SVG/1.1/DTD/svg11.dtd">
<!-- Generated by graphviz version 14.1.4 (0)
 -->
<!-- Title: FAnimSegment::IsInRange Pages: 1 -->
<svg width="737pt" height="29pt"
 viewBox="0.00 0.00 737.00 29.00" xmlns="http://www.w3.org/2000/svg" xmlns:xlink="http://www.w3.org/1999/xlink">
<g id="graph0" class="graph" transform="scale(1 1) rotate(0) translate(4 24.75)">
<title>FAnimSegment::IsInRange</title>
<!-- Node1 -->
<g id="Node000001" class="node">
<title>Node1</title>
<g id="a_Node000001"><a xlink:title=" ">
<polygon fill="#999999" stroke="#666666" points="144.25,-20.75 0,-20.75 0,0 144.25,0 144.25,-20.75"/>
<text xml:space="preserve" text-anchor="middle" x="72.12" y="-7.25" font-family="Helvetica,sans-Serif" font-size="10.00">FAnimSegment::IsInRange</text>
</a>
</g>
</g>
<!-- Node2 -->
<g id="Node000002" class="node">
<title>Node2</title>
<g id="a_Node000002"><a xlink:href="structFAnimSegment.html#a9cccfbe5c32a6c94cdf7524db02e4114" target="_top" xlink:title=" ">
<polygon fill="white" stroke="#666666" points="329,-20.75 180.25,-20.75 180.25,0 329,0 329,-20.75"/>
<text xml:space="preserve" text-anchor="middle" x="254.62" y="-7.25" font-family="Helvetica,sans-Serif" font-size="10.00">FAnimSegment::GetEndPos</text>
</a>
</g>
</g>
<!-- Node1&#45;&gt;Node2 -->
<g id="edge1_Node000001_Node000002" class="edge">
<title>Node1&#45;&gt;Node2</title>
<g id="a_edge1_Node000001_Node000002"><a xlink:title=" ">
<path fill="none" stroke="#63b8ff" d="M144.72,-10.38C152.62,-10.38 160.71,-10.38 168.75,-10.38"/>
<polygon fill="#63b8ff" stroke="#63b8ff" points="168.53,-13.88 178.53,-10.38 168.53,-6.88 168.53,-13.88"/>
</a>
</g>
</g>
<!-- Node3 -->
<g id="Node000003" class="node">
<title>Node3</title>
<g id="a_Node000003"><a xlink:href="structFAnimSegment.html#aaef21734ce2ffaf308fba4a0a17792df" target="_top" xlink:title=" ">
<polygon fill="white" stroke="#666666" points="511.5,-20.75 365,-20.75 365,0 511.5,0 511.5,-20.75"/>
<text xml:space="preserve" text-anchor="middle" x="438.25" y="-7.25" font-family="Helvetica,sans-Serif" font-size="10.00">FAnimSegment::GetLength</text>
</a>
</g>
</g>
<!-- Node2&#45;&gt;Node3 -->
<g id="edge2_Node000002_Node000003" class="edge">
<title>Node2&#45;&gt;Node3</title>
<g id="a_edge2_Node000002_Node000003"><a xlink:title=" ">
<path fill="none" stroke="#63b8ff" d="M329.5,-10.38C337.29,-10.38 345.24,-10.38 353.13,-10.38"/>
<polygon fill="#63b8ff" stroke="#63b8ff" points="353.11,-13.88 363.11,-10.38 353.11,-6.88 353.11,-13.88"/>
</a>
</g>
</g>
<!-- Node4 -->
<g id="Node000004" class="node">
<title>Node4</title>
<g id="a_Node000004"><a xlink:href="structFAnimSegment.html#a708941262225a5b1ad8601ee51b428b5" target="_top" xlink:title=" ">
<polygon fill="white" stroke="#666666" points="729.25,-20.75 547.5,-20.75 547.5,0 729.25,0 729.25,-20.75"/>
<text xml:space="preserve" text-anchor="middle" x="638.38" y="-7.25" font-family="Helvetica,sans-Serif" font-size="10.00">FAnimSegment::GetValidPlayRate</text>
</a>
</g>
</g>
<!-- Node3&#45;&gt;Node4 -->
<g id="edge3_Node000003_Node000004" class="edge">
<title>Node3&#45;&gt;Node4</title>
<g id="a_edge3_Node000003_Node000004"><a xlink:title=" ">
<path fill="none" stroke="#63b8ff" d="M511.9,-10.38C519.71,-10.38 527.75,-10.38 535.81,-10.38"/>
<polygon fill="#63b8ff" stroke="#63b8ff" points="535.69,-13.88 545.69,-10.38 535.69,-6.88 535.69,-13.88"/>
</a>
</g>
</g>
</g>
</svg>
