<?xml version="1.0" encoding="UTF-8" standalone="no"?>
<!DOCTYPE svg PUBLIC "-//W3C//DTD SVG 1.1//EN"
 "http://www.w3.org/Graphics/SVG/1.1/DTD/svg11.dtd">
<!-- Generated by graphviz version 14.1.4 (0)
 -->
<!-- Title: FHardwareDeviceIdentifier::FHardwareDeviceIdentifier Pages: 1 -->
<svg width="351pt" height="268pt"
 viewBox="0.00 0.00 351.00 268.00" xmlns="http://www.w3.org/2000/svg" xmlns:xlink="http://www.w3.org/1999/xlink">

<svg id="main" version="1.1" xmlns="http://www.w3.org/2000/svg" xmlns:xlink="http://www.w3.org/1999/xlink" xml:space="preserve">

<style type="text/css"><![CDATA[
.node, .edge {opacity: 0.7;}
.node.selected, .edge.selected {opacity: 1;}
.edge:hover path { stroke: red; }
.edge:hover polygon { stroke: red; fill: red; }
]]></style>
<script type="application/ecmascript" xlink:href="svg.min.js"/>
<svg id="graph" class="graph">
<g id="graph0" class="graph" transform="scale(1 1) rotate(0) translate(4 263.5)">
<title>FHardwareDeviceIdentifier::FHardwareDeviceIdentifier</title>
<!-- Node1 -->
<g id="Node000001" class="node">
<title>Node1</title>
<g id="a_Node000001"><a xlink:title=" ">
<polygon fill="#999999" stroke="#666666" points="342.5,-137.5 189.25,-137.5 189.25,-104 342.5,-104 342.5,-137.5"/>
<text xml:space="preserve" text-anchor="start" x="197.25" y="-124" font-family="Helvetica,sans-Serif" font-size="10.00">FHardwareDeviceIdentifier</text>
<text xml:space="preserve" text-anchor="middle" x="265.88" y="-111.25" font-family="Helvetica,sans-Serif" font-size="10.00">::FHardwareDeviceIdentifier</text>
</a>
</g>
</g>
<!-- Node1&#45;&gt;Node1 -->
<g id="edge1_Node000001_Node000001" class="edge">
<title>Node1&#45;&gt;Node1</title>
<g id="a_edge1_Node000001_Node000001"><a xlink:title=" ">
<path fill="none" stroke="#63b8ff" d="M297.65,-148.89C292.48,-152.85 281.88,-155.5 265.88,-155.5 237.41,-155.5 226.07,-147.12 231.85,-137.91"/>
<polygon fill="#63b8ff" stroke="#63b8ff" points="301.02,-149.9 299.59,-139.4 294.16,-148.49 301.02,-149.9"/>
</a>
</g>
</g>
<!-- Node2 -->
<g id="Node000002" class="node">
<title>Node2</title>
<g id="a_Node000002"><a xlink:href="structFHardwareDeviceIdentifier.html#a24d332be66ad446fddc129338d9372af" target="_top" xlink:title=" ">
<polygon fill="white" stroke="#666666" points="153.25,-259.5 0,-259.5 0,-226 153.25,-226 153.25,-259.5"/>
<text xml:space="preserve" text-anchor="start" x="8" y="-246" font-family="Helvetica,sans-Serif" font-size="10.00">FHardwareDeviceIdentifier</text>
<text xml:space="preserve" text-anchor="middle" x="76.62" y="-233.25" font-family="Helvetica,sans-Serif" font-size="10.00">::FHardwareDeviceIdentifier</text>
</a>
</g>
</g>
<!-- Node1&#45;&gt;Node2 -->
<g id="edge2_Node000001_Node000002" class="edge">
<title>Node1&#45;&gt;Node2</title>
<g id="a_edge2_Node000001_Node000002"><a xlink:title=" ">
<path fill="none" stroke="#63b8ff" d="M241.2,-145.9C219.92,-167.26 186.92,-197.44 153.25,-216.75 147.59,-220 141.46,-222.93 135.22,-225.55"/>
<polygon fill="#63b8ff" stroke="#63b8ff" points="243.47,-148.59 247.97,-138.99 238.47,-143.69 243.47,-148.59"/>
</a>
</g>
</g>
<!-- Node3 -->
<g id="Node000003" class="node">
<title>Node3</title>
<g id="a_Node000003"><a xlink:href="structFHardwareDeviceIdentifier.html#a1097f2545f4033249a472fafea17e06e" target="_top" xlink:title=" ">
<polygon fill="white" stroke="#666666" points="150.25,-189.5 3,-189.5 3,-156 150.25,-156 150.25,-189.5"/>
<text xml:space="preserve" text-anchor="start" x="11" y="-176" font-family="Helvetica,sans-Serif" font-size="10.00">FHardwareDeviceIdentifier</text>
<text xml:space="preserve" text-anchor="middle" x="76.62" y="-163.25" font-family="Helvetica,sans-Serif" font-size="10.00">::GetTypeHash</text>
</a>
</g>
</g>
<!-- Node1&#45;&gt;Node3 -->
<g id="edge3_Node000001_Node000003" class="edge">
<title>Node1&#45;&gt;Node3</title>
<g id="a_edge3_Node000001_Node000003"><a xlink:title=" ">
<path fill="none" stroke="#63b8ff" d="M192.12,-140.95C174.75,-145.78 156.38,-150.88 139.55,-155.55"/>
<polygon fill="#63b8ff" stroke="#63b8ff" points="192.63,-144.45 201.33,-138.4 190.75,-137.7 192.63,-144.45"/>
</a>
</g>
</g>
<!-- Node4 -->
<g id="Node000004" class="node">
<title>Node4</title>
<g id="a_Node000004"><a xlink:href="structFHardwareDeviceIdentifier.html#a3415e1d2048d091637db3267dcad097d" target="_top" xlink:title=" ">
<polygon fill="white" stroke="#666666" points="150.25,-137.5 3,-137.5 3,-104 150.25,-104 150.25,-137.5"/>
<text xml:space="preserve" text-anchor="start" x="11" y="-124" font-family="Helvetica,sans-Serif" font-size="10.00">FHardwareDeviceIdentifier</text>
<text xml:space="preserve" text-anchor="middle" x="76.62" y="-111.25" font-family="Helvetica,sans-Serif" font-size="10.00">::operator!=</text>
</a>
</g>
</g>
<!-- Node1&#45;&gt;Node4 -->
<g id="edge5_Node000001_Node000004" class="edge">
<title>Node1&#45;&gt;Node4</title>
<g id="a_edge5_Node000001_Node000004"><a xlink:title=" ">
<path fill="none" stroke="#63b8ff" d="M177.6,-120.75C168.57,-120.75 159.45,-120.75 150.59,-120.75"/>
<polygon fill="#63b8ff" stroke="#63b8ff" points="177.47,-124.25 187.47,-120.75 177.47,-117.25 177.47,-124.25"/>
</a>
</g>
</g>
<!-- Node5 -->
<g id="Node000005" class="node">
<title>Node5</title>
<g id="a_Node000005"><a xlink:href="structFHardwareDeviceIdentifier.html#a3d28ddd65c3b801efe7733bda53d1568" target="_top" xlink:title=" ">
<polygon fill="white" stroke="#666666" points="150.25,-85.5 3,-85.5 3,-52 150.25,-52 150.25,-85.5"/>
<text xml:space="preserve" text-anchor="start" x="11" y="-72" font-family="Helvetica,sans-Serif" font-size="10.00">FHardwareDeviceIdentifier</text>
<text xml:space="preserve" text-anchor="middle" x="76.62" y="-59.25" font-family="Helvetica,sans-Serif" font-size="10.00">::operator&lt;&lt;</text>
</a>
</g>
</g>
<!-- Node1&#45;&gt;Node5 -->
<g id="edge6_Node000001_Node000005" class="edge">
<title>Node1&#45;&gt;Node5</title>
<g id="a_edge6_Node000001_Node000005"><a xlink:title=" ">
<path fill="none" stroke="#63b8ff" d="M192.12,-100.55C174.75,-95.72 156.38,-90.62 139.55,-85.95"/>
<polygon fill="#63b8ff" stroke="#63b8ff" points="190.75,-103.8 201.33,-103.1 192.63,-97.05 190.75,-103.8"/>
</a>
</g>
</g>
<!-- Node6 -->
<g id="Node000006" class="node">
<title>Node6</title>
<g id="a_Node000006"><a xlink:href="structFHardwareDeviceIdentifier.html#ae446bccf07e2381fd27337bcf050447a" target="_top" xlink:title=" ">
<polygon fill="white" stroke="#666666" points="150.25,-33.5 3,-33.5 3,0 150.25,0 150.25,-33.5"/>
<text xml:space="preserve" text-anchor="start" x="11" y="-20" font-family="Helvetica,sans-Serif" font-size="10.00">FHardwareDeviceIdentifier</text>
<text xml:space="preserve" text-anchor="middle" x="76.62" y="-7.25" font-family="Helvetica,sans-Serif" font-size="10.00">::operator==</text>
</a>
</g>
</g>
<!-- Node1&#45;&gt;Node6 -->
<g id="edge7_Node000001_Node000006" class="edge">
<title>Node1&#45;&gt;Node6</title>
<g id="a_edge7_Node000001_Node000006"><a xlink:title=" ">
<path fill="none" stroke="#63b8ff" d="M235.17,-96.55C213.48,-79.75 182.8,-57.78 153.25,-42.75 146.94,-39.54 140.14,-36.58 133.3,-33.89"/>
<polygon fill="#63b8ff" stroke="#63b8ff" points="232.97,-99.27 242.99,-102.69 237.29,-93.76 232.97,-99.27"/>
</a>
</g>
</g>
<!-- Node3&#45;&gt;Node3 -->
<g id="edge4_Node000003_Node000003" class="edge">
<title>Node3&#45;&gt;Node3</title>
<g id="a_edge4_Node000003_Node000003"><a xlink:title=" ">
<path fill="none" stroke="#63b8ff" d="M108.4,-200.89C103.23,-204.85 92.63,-207.5 76.62,-207.5 48.16,-207.5 36.82,-199.12 42.6,-189.91"/>
<polygon fill="#63b8ff" stroke="#63b8ff" points="111.77,-201.9 110.34,-191.4 104.91,-200.49 111.77,-201.9"/>
</a>
</g>
</g>
</g>
</svg>
</svg>

<style type='text/css'>
<![CDATA[
[data-mouse-over-selected='false'] { opacity: 0.7; }
[data-mouse-over-selected='true']  { opacity: 1.0; }
]]>
</style>
<script type="application/ecmascript"><![CDATA[
document.addEventListener('DOMContentLoaded', (event) => {
  highlightEdges();
  highlightAdjacentNodes();
});
]]></script>
</svg>
