<?xml version="1.0" encoding="UTF-8" standalone="no"?>
<!DOCTYPE svg PUBLIC "-//W3C//DTD SVG 1.1//EN"
 "http://www.w3.org/Graphics/SVG/1.1/DTD/svg11.dtd">
<!-- Generated by graphviz version 14.1.4 (0)
 -->
<!-- Title: FCameraShakePatternUpdateResult Pages: 1 -->
<!--zoomable 767 -->

<svg id="main" version="1.1" xmlns="http://www.w3.org/2000/svg" xmlns:xlink="http://www.w3.org/1999/xlink" xml:space="preserve" onload="init(evt)">

<style type="text/css"><![CDATA[
.node, .edge {opacity: 0.7;}
.node.selected, .edge.selected {opacity: 1;}
.edge:hover path { stroke: red; }
.edge:hover polygon { stroke: red; fill: red; }
]]></style>

<defs>
  <circle id="rim" cx="0" cy="0" r="7"/>
  <circle id="rim2" cx="0" cy="0" r="3.5"/>
  <g id="zoomPlus">
    <use xlink:href="#rim" fill="#404040"><set attributeName="fill" to="#808080" begin="zoomplus.mouseover" end="zoomplus.mouseout"/></use>
    <path d="M-4,0h8M0,-4v8" fill="none" stroke="white" stroke-width="1.5" pointer-events="none"/>
  </g>
  <g id="zoomMin">
    <use xlink:href="#rim" fill="#404040"><set attributeName="fill" to="#808080" begin="zoomminus.mouseover" end="zoomminus.mouseout"/></use>
    <path d="M-4,0h8" fill="none" stroke="white" stroke-width="1.5" pointer-events="none"/>
  </g>
  <g id="arrowUp" transform="translate(30 24)">
    <use xlink:href="#rim"/>
    <path pointer-events="none" fill="none" stroke="white" stroke-width="1.5" d="M0,-3.0v7 M-2.5,-0.5L0,-3.0L2.5,-0.5"/>
  </g>
  <g id="arrowRight" transform="rotate(90) translate(36 -43)">
    <use xlink:href="#rim"/>
    <path pointer-events="none" fill="none" stroke="white" stroke-width="1.5" d="M0,-3.0v7 M-2.5,-0.5L0,-3.0L2.5,-0.5"/>
  </g>
  <g id="arrowDown" transform="rotate(180) translate(-30 -48)">
    <use xlink:href="#rim"/>
    <path pointer-events="none" fill="none" stroke="white" stroke-width="1.5" d="M0,-3.0v7 M-2.5,-0.5L0,-3.0L2.5,-0.5"/>
  </g>
  <g id="arrowLeft" transform="rotate(270) translate(-36 17)">
    <use xlink:href="#rim"/>
    <path pointer-events="none" fill="none" stroke="white" stroke-width="1.5" d="M0,-3.0v7 M-2.5,-0.5L0,-3.0L2.5,-0.5"/>
  </g>
  <g id="resetDef">
    <use xlink:href="#rim2" fill="#404040"><set attributeName="fill" to="#808080" begin="reset.mouseover" end="reset.mouseout"/></use>
  </g>
</defs>
<script type="application/ecmascript">
var viewWidth = 331;
var viewHeight = 767;
var sectionId = 'dynsection-0';
</script>
<script type="application/ecmascript" xlink:href="svg.min.js"/>
<svg id="graph" class="graph">
<g id="viewport">
<title>FCameraShakePatternUpdateResult</title>
<!-- Node1 -->
<g id="Node000001" class="node">
<title>Node1</title>
<g id="a_Node000001"><a xlink:title=" ">
<polygon fill="#999999" stroke="none" points="220.12,-163.5 55.88,-163.5 55.88,0 220.12,0 220.12,-163.5"/>
<text xml:space="preserve" text-anchor="start" x="66" y="-149.75" font-family="Helvetica,sans-Serif" font-size="10.00">FCameraShakePatternUpdate</text>
<text xml:space="preserve" text-anchor="start" x="122.62" y="-137" font-family="Helvetica,sans-Serif" font-size="10.00">Result</text>
<text xml:space="preserve" text-anchor="start" x="59.88" y="-120.25" font-family="Helvetica,sans-Serif" font-size="10.00">+</text>
<text xml:space="preserve" text-anchor="start" x="72.12" y="-120.25" font-family="Helvetica,sans-Serif" font-size="10.00">Location</text>
<text xml:space="preserve" text-anchor="start" x="59.88" y="-103.5" font-family="Helvetica,sans-Serif" font-size="10.00">+</text>
<text xml:space="preserve" text-anchor="start" x="72.12" y="-103.5" font-family="Helvetica,sans-Serif" font-size="10.00">Rotation</text>
<text xml:space="preserve" text-anchor="start" x="59.88" y="-86.75" font-family="Helvetica,sans-Serif" font-size="10.00">+</text>
<text xml:space="preserve" text-anchor="start" x="72.12" y="-86.75" font-family="Helvetica,sans-Serif" font-size="10.00">FOV</text>
<text xml:space="preserve" text-anchor="start" x="59.88" y="-70" font-family="Helvetica,sans-Serif" font-size="10.00">+</text>
<text xml:space="preserve" text-anchor="start" x="72.12" y="-70" font-family="Helvetica,sans-Serif" font-size="10.00">PostProcessBlendWeight</text>
<text xml:space="preserve" text-anchor="start" x="59.88" y="-53.25" font-family="Helvetica,sans-Serif" font-size="10.00">+</text>
<text xml:space="preserve" text-anchor="start" x="72.12" y="-53.25" font-family="Helvetica,sans-Serif" font-size="10.00">Flags</text>
<text xml:space="preserve" text-anchor="start" x="59.88" y="-36.5" font-family="Helvetica,sans-Serif" font-size="10.00">+</text>
<text xml:space="preserve" text-anchor="start" x="72.12" y="-36.5" font-family="Helvetica,sans-Serif" font-size="10.00">FCameraShakePatternUpdate</text>
<text xml:space="preserve" text-anchor="start" x="72.12" y="-23.75" font-family="Helvetica,sans-Serif" font-size="10.00">Result()</text>
<text xml:space="preserve" text-anchor="start" x="59.88" y="-7" font-family="Helvetica,sans-Serif" font-size="10.00">+</text>
<text xml:space="preserve" text-anchor="start" x="72.12" y="-7" font-family="Helvetica,sans-Serif" font-size="10.00">ApplyScale()</text>
<polygon fill="#666666" stroke="#666666" points="55.88,-132 55.88,-132 220.12,-132 220.12,-132 55.88,-132"/>
<polygon fill="#666666" stroke="#666666" points="55.88,-48.25 55.88,-48.25 70.12,-48.25 70.12,-48.25 55.88,-48.25"/>
<polygon fill="#666666" stroke="#666666" points="70.12,-48.25 70.12,-48.25 220.12,-48.25 220.12,-48.25 70.12,-48.25"/>
<polygon fill="none" stroke="#666666" points="55.88,0 55.88,-163.5 220.12,-163.5 220.12,0 55.88,0"/>
</a>
</g>
</g>
<!-- Node2 -->
<g id="Node000002" class="node">
<title>Node2</title>
<g id="a_Node000002"><a xlink:href="structFPostProcessSettings.html" target="_top" xlink:title=" ">
<polygon fill="white" stroke="none" points="229.88,-616.25 46.12,-616.25 46.12,-218.25 229.88,-218.25 229.88,-616.25"/>
<text xml:space="preserve" text-anchor="start" x="85.88" y="-602.5" font-family="Helvetica,sans-Serif" font-size="10.00">FPostProcessSettings</text>
<text xml:space="preserve" text-anchor="start" x="50.12" y="-585.75" font-family="Helvetica,sans-Serif" font-size="10.00">+</text>
<text xml:space="preserve" text-anchor="start" x="62.38" y="-585.75" font-family="Helvetica,sans-Serif" font-size="10.00">bOverride_TemperatureType</text>
<text xml:space="preserve" text-anchor="start" x="50.12" y="-569" font-family="Helvetica,sans-Serif" font-size="10.00">+</text>
<text xml:space="preserve" text-anchor="start" x="62.38" y="-569" font-family="Helvetica,sans-Serif" font-size="10.00">bOverride_WhiteTemp</text>
<text xml:space="preserve" text-anchor="start" x="50.12" y="-552.25" font-family="Helvetica,sans-Serif" font-size="10.00">+</text>
<text xml:space="preserve" text-anchor="start" x="62.38" y="-552.25" font-family="Helvetica,sans-Serif" font-size="10.00">bOverride_WhiteTint</text>
<text xml:space="preserve" text-anchor="start" x="50.12" y="-535.5" font-family="Helvetica,sans-Serif" font-size="10.00">+</text>
<text xml:space="preserve" text-anchor="start" x="62.38" y="-535.5" font-family="Helvetica,sans-Serif" font-size="10.00">bOverride_ColorSaturation</text>
<text xml:space="preserve" text-anchor="start" x="50.12" y="-518.75" font-family="Helvetica,sans-Serif" font-size="10.00">+</text>
<text xml:space="preserve" text-anchor="start" x="62.38" y="-518.75" font-family="Helvetica,sans-Serif" font-size="10.00">bOverride_ColorContrast</text>
<text xml:space="preserve" text-anchor="start" x="50.12" y="-502" font-family="Helvetica,sans-Serif" font-size="10.00">+</text>
<text xml:space="preserve" text-anchor="start" x="62.38" y="-502" font-family="Helvetica,sans-Serif" font-size="10.00">bOverride_ColorGamma</text>
<text xml:space="preserve" text-anchor="start" x="50.12" y="-485.25" font-family="Helvetica,sans-Serif" font-size="10.00">+</text>
<text xml:space="preserve" text-anchor="start" x="62.38" y="-485.25" font-family="Helvetica,sans-Serif" font-size="10.00">bOverride_ColorGain</text>
<text xml:space="preserve" text-anchor="start" x="50.12" y="-468.5" font-family="Helvetica,sans-Serif" font-size="10.00">+</text>
<text xml:space="preserve" text-anchor="start" x="62.38" y="-468.5" font-family="Helvetica,sans-Serif" font-size="10.00">bOverride_ColorOffset</text>
<text xml:space="preserve" text-anchor="start" x="50.12" y="-451.75" font-family="Helvetica,sans-Serif" font-size="10.00">+</text>
<text xml:space="preserve" text-anchor="start" x="62.38" y="-451.75" font-family="Helvetica,sans-Serif" font-size="10.00">bOverride_ColorSaturation</text>
<text xml:space="preserve" text-anchor="start" x="62.38" y="-439" font-family="Helvetica,sans-Serif" font-size="10.00">Shadows</text>
<text xml:space="preserve" text-anchor="start" x="50.12" y="-422.25" font-family="Helvetica,sans-Serif" font-size="10.00">+</text>
<text xml:space="preserve" text-anchor="start" x="62.38" y="-422.25" font-family="Helvetica,sans-Serif" font-size="10.00">bOverride_ColorContrastShadows</text>
<text xml:space="preserve" text-anchor="start" x="62.38" y="-405.5" font-family="Helvetica,sans-Serif" font-size="10.00">and 472 more...</text>
<text xml:space="preserve" text-anchor="start" x="50.12" y="-388.75" font-family="Helvetica,sans-Serif" font-size="10.00">+</text>
<text xml:space="preserve" text-anchor="start" x="62.38" y="-388.75" font-family="Helvetica,sans-Serif" font-size="10.00">kDefaultDepthOfFieldBlade</text>
<text xml:space="preserve" text-anchor="start" x="62.38" y="-376" font-family="Helvetica,sans-Serif" font-size="10.00">Count</text>
<text xml:space="preserve" text-anchor="start" x="50.12" y="-359.25" font-family="Helvetica,sans-Serif" font-size="10.00">+</text>
<text xml:space="preserve" text-anchor="start" x="62.38" y="-359.25" font-family="Helvetica,sans-Serif" font-size="10.00">AddBlendable()</text>
<text xml:space="preserve" text-anchor="start" x="50.12" y="-342.5" font-family="Helvetica,sans-Serif" font-size="10.00">+</text>
<text xml:space="preserve" text-anchor="start" x="62.38" y="-342.5" font-family="Helvetica,sans-Serif" font-size="10.00">RemoveBlendable()</text>
<text xml:space="preserve" text-anchor="start" x="50.12" y="-325.75" font-family="Helvetica,sans-Serif" font-size="10.00">+</text>
<text xml:space="preserve" text-anchor="start" x="62.38" y="-325.75" font-family="Helvetica,sans-Serif" font-size="10.00">FPostProcessSettings()</text>
<text xml:space="preserve" text-anchor="start" x="50.12" y="-309" font-family="Helvetica,sans-Serif" font-size="10.00">+</text>
<text xml:space="preserve" text-anchor="start" x="62.38" y="-309" font-family="Helvetica,sans-Serif" font-size="10.00">FPostProcessSettings()</text>
<text xml:space="preserve" text-anchor="start" x="50.12" y="-292.25" font-family="Helvetica,sans-Serif" font-size="10.00">+</text>
<text xml:space="preserve" text-anchor="start" x="62.38" y="-292.25" font-family="Helvetica,sans-Serif" font-size="10.00">FPostProcessSettings()</text>
<text xml:space="preserve" text-anchor="start" x="50.12" y="-275.5" font-family="Helvetica,sans-Serif" font-size="10.00">+</text>
<text xml:space="preserve" text-anchor="start" x="62.38" y="-275.5" font-family="Helvetica,sans-Serif" font-size="10.00">operator=()</text>
<text xml:space="preserve" text-anchor="start" x="50.12" y="-258.75" font-family="Helvetica,sans-Serif" font-size="10.00">+</text>
<text xml:space="preserve" text-anchor="start" x="62.38" y="-258.75" font-family="Helvetica,sans-Serif" font-size="10.00">operator=()</text>
<text xml:space="preserve" text-anchor="start" x="50.12" y="-242" font-family="Helvetica,sans-Serif" font-size="10.00">+</text>
<text xml:space="preserve" text-anchor="start" x="62.38" y="-242" font-family="Helvetica,sans-Serif" font-size="10.00">SetBaseValues()</text>
<text xml:space="preserve" text-anchor="start" x="50.12" y="-225.25" font-family="Helvetica,sans-Serif" font-size="10.00">+</text>
<text xml:space="preserve" text-anchor="start" x="62.38" y="-225.25" font-family="Helvetica,sans-Serif" font-size="10.00">GetDefault()</text>
<polygon fill="#666666" stroke="#666666" points="46.12,-597.5 46.12,-597.5 229.88,-597.5 229.88,-597.5 46.12,-597.5"/>
<polygon fill="#666666" stroke="#666666" points="46.12,-371 46.12,-371 60.38,-371 60.38,-371 46.12,-371"/>
<polygon fill="#666666" stroke="#666666" points="60.38,-371 60.38,-371 229.88,-371 229.88,-371 60.38,-371"/>
<polygon fill="none" stroke="#666666" points="46.12,-218.25 46.12,-616.25 229.88,-616.25 229.88,-218.25 46.12,-218.25"/>
</a>
</g>
</g>
<!-- Node2&#45;&gt;Node1 -->
<g id="edge1_Node000001_Node000002" class="edge">
<title>Node2&#45;&gt;Node1</title>
<g id="a_edge1_Node000001_Node000002"><a xlink:title=" ">
<path fill="none" stroke="#63b8ff" d="M138,-218.4C138,-203.73 138,-189.39 138,-175.87"/>
<polygon fill="none" stroke="#63b8ff" points="138,-176.06 134,-170.06 138,-164.06 142,-170.06 138,-176.06"/>
</a>
</g>
<text xml:space="preserve" text-anchor="start" x="141" y="-187.5" font-family="Helvetica,sans-Serif" font-size="10.00" fill="grey">+PostProcessSettings</text>
</g>
<!-- Node3 -->
<g id="Node000003" class="node">
<title>Node3</title>
<g id="a_Node000003"><a xlink:href="structFMatteBoxFlag.html" target="_top" xlink:title=" ">
<polygon fill="white" stroke="none" points="102,-758.75 0,-758.75 0,-671 102,-671 102,-758.75"/>
<text xml:space="preserve" text-anchor="start" x="13.88" y="-745" font-family="Helvetica,sans-Serif" font-size="10.00">FMatteBoxFlag</text>
<text xml:space="preserve" text-anchor="start" x="4" y="-728.25" font-family="Helvetica,sans-Serif" font-size="10.00">+</text>
<text xml:space="preserve" text-anchor="start" x="16.25" y="-728.25" font-family="Helvetica,sans-Serif" font-size="10.00">Pitch</text>
<text xml:space="preserve" text-anchor="start" x="4" y="-711.5" font-family="Helvetica,sans-Serif" font-size="10.00">+</text>
<text xml:space="preserve" text-anchor="start" x="16.25" y="-711.5" font-family="Helvetica,sans-Serif" font-size="10.00">Roll</text>
<text xml:space="preserve" text-anchor="start" x="4" y="-694.75" font-family="Helvetica,sans-Serif" font-size="10.00">+</text>
<text xml:space="preserve" text-anchor="start" x="16.25" y="-694.75" font-family="Helvetica,sans-Serif" font-size="10.00">Length</text>
<text xml:space="preserve" text-anchor="start" x="4" y="-678" font-family="Helvetica,sans-Serif" font-size="10.00">+</text>
<text xml:space="preserve" text-anchor="start" x="16.25" y="-678" font-family="Helvetica,sans-Serif" font-size="10.00">FMatteBoxFlag()</text>
<polygon fill="#666666" stroke="#666666" points="0,-740 0,-740 102,-740 102,-740 0,-740"/>
<polygon fill="#666666" stroke="#666666" points="0,-689.75 0,-689.75 14.25,-689.75 14.25,-689.75 0,-689.75"/>
<polygon fill="#666666" stroke="#666666" points="14.25,-689.75 14.25,-689.75 102,-689.75 102,-689.75 14.25,-689.75"/>
<polygon fill="none" stroke="#666666" points="0,-671 0,-758.75 102,-758.75 102,-671 0,-671"/>
</a>
</g>
</g>
<!-- Node3&#45;&gt;Node2 -->
<g id="edge2_Node000002_Node000003" class="edge">
<title>Node3&#45;&gt;Node2</title>
<g id="a_edge2_Node000002_Node000003"><a xlink:title=" ">
<path fill="none" stroke="#63b8ff" d="M48.84,-671.01C49,-659.02 49.9,-646.05 52.25,-634.25 52.63,-632.36 53.02,-630.47 53.42,-628.58"/>
<polygon fill="none" stroke="#63b8ff" points="53.42,-628.6 50.87,-621.86 56.12,-616.91 58.67,-623.66 53.42,-628.6"/>
</a>
</g>
<text xml:space="preserve" text-anchor="start" x="55.25" y="-640.25" font-family="Helvetica,sans-Serif" font-size="10.00" fill="grey">+DepthOfFieldMatteBoxFlags</text>
</g>
<!-- Node4 -->
<g id="Node000004" class="node">
<title>Node4</title>
<g id="a_Node000004"><a xlink:href="structFWeightedBlendables.html" target="_top" xlink:title=" ">
<polygon fill="white" stroke="none" points="292.12,-750.38 157.88,-750.38 157.88,-679.38 292.12,-679.38 292.12,-750.38"/>
<text xml:space="preserve" text-anchor="start" x="171.75" y="-736.62" font-family="Helvetica,sans-Serif" font-size="10.00">FWeightedBlendables</text>
<text xml:space="preserve" text-anchor="start" x="161.88" y="-719.88" font-family="Helvetica,sans-Serif" font-size="10.00">+</text>
<text xml:space="preserve" text-anchor="start" x="174.12" y="-719.88" font-family="Helvetica,sans-Serif" font-size="10.00">Array</text>
<text xml:space="preserve" text-anchor="start" x="161.88" y="-703.12" font-family="Helvetica,sans-Serif" font-size="10.00">+</text>
<text xml:space="preserve" text-anchor="start" x="174.12" y="-703.12" font-family="Helvetica,sans-Serif" font-size="10.00">FWeightedBlendables()</text>
<text xml:space="preserve" text-anchor="start" x="161.88" y="-686.38" font-family="Helvetica,sans-Serif" font-size="10.00">+</text>
<text xml:space="preserve" text-anchor="start" x="174.12" y="-686.38" font-family="Helvetica,sans-Serif" font-size="10.00">FWeightedBlendables()</text>
<polygon fill="#666666" stroke="#666666" points="157.88,-731.62 157.88,-731.62 292.12,-731.62 292.12,-731.62 157.88,-731.62"/>
<polygon fill="#666666" stroke="#666666" points="157.88,-714.88 157.88,-714.88 172.12,-714.88 172.12,-714.88 157.88,-714.88"/>
<polygon fill="#666666" stroke="#666666" points="172.12,-714.88 172.12,-714.88 292.12,-714.88 292.12,-714.88 172.12,-714.88"/>
<polygon fill="none" stroke="#666666" points="157.88,-679.38 157.88,-750.38 292.12,-750.38 292.12,-679.38 157.88,-679.38"/>
</a>
</g>
</g>
<!-- Node4&#45;&gt;Node2 -->
<g id="edge3_Node000002_Node000004" class="edge">
<title>Node4&#45;&gt;Node2</title>
<g id="a_edge3_Node000002_Node000004"><a xlink:title=" ">
<path fill="none" stroke="#63b8ff" d="M215.75,-679.73C211.88,-665.63 207.29,-649.13 203,-634.25 202.47,-632.4 201.93,-630.54 201.39,-628.67"/>
<polygon fill="none" stroke="#63b8ff" points="201.37,-628.63 195.86,-623.98 198.03,-617.11 203.54,-621.75 201.37,-628.63"/>
</a>
</g>
<text xml:space="preserve" text-anchor="start" x="210.96" y="-640.25" font-family="Helvetica,sans-Serif" font-size="10.00" fill="grey">+WeightedBlendables</text>
</g>
</g>
</svg>

<g id="navigator" transform="translate(0 0)" fill="#404254">
  <rect fill="#f2f5e9" fill-opacity="0.5" stroke="#606060" stroke-width=".5" x="0" y="0" width="60" height="60"/>
  <use id="zoomplus" xlink:href="#zoomPlus" x="17" y="9" onmousedown="handleZoom(evt,'in')"/>
  <use id="zoomminus" xlink:href="#zoomMin" x="42" y="9" onmousedown="handleZoom(evt,'out')"/>
  <use id="reset" xlink:href="#resetDef" x="30" y="36" onmousedown="handleReset()"/>
   <use id="arrowup" xlink:href="#arrowUp" x="0" y="0" onmousedown="handlePan(0,-1)"/>
  <use id="arrowright" xlink:href="#arrowRight" x="0" y="0" onmousedown="handlePan(1,0)"/>
  <use id="arrowdown" xlink:href="#arrowDown" x="0" y="0" onmousedown="handlePan(0,1)"/>
  <use id="arrowleft" xlink:href="#arrowLeft" x="0" y="0" onmousedown="handlePan(-1,0)"/>
</g>
<svg viewBox="0 0 15 15" width="100%" height="30px" preserveAspectRatio="xMaxYMin meet">
 <g id="arrow_out" transform="scale(0.3 0.3)">
  <a xlink:href="structFCameraShakePatternUpdateResult__coll__graph_org.svg" target="_base">
   <rect id="button" ry="5" rx="5" y="6" x="6" height="38" width="38"
        fill="#f2f5e9" fill-opacity="0.5" stroke="#606060" stroke-width="1.0"/>
   <path id="arrow"
     d="M 11.500037,31.436501 C 11.940474,20.09759 22.043105,11.32322 32.158766,21.979434 L 37.068811,17.246167 C 37.068811,17.246167 37.088388,32 37.088388,32 L 22.160133,31.978069 C 22.160133,31.978069 26.997745,27.140456 26.997745,27.140456 C 18.528582,18.264221 13.291696,25.230495 11.500037,31.436501 z"
     style="fill:#404040;"/>
  </a>
 </g>
</svg>

<style type='text/css'>
<![CDATA[
[data-mouse-over-selected='false'] { opacity: 0.7; }
[data-mouse-over-selected='true']  { opacity: 1.0; }
]]>
</style>
<script type="application/ecmascript"><![CDATA[
document.addEventListener('DOMContentLoaded', (event) => {
  highlightEdges();
  highlightAdjacentNodes();
});
]]></script>
</svg>
