<?xml version="1.0" encoding="UTF-8" standalone="no"?>
<!DOCTYPE svg PUBLIC "-//W3C//DTD SVG 1.1//EN"
 "http://www.w3.org/Graphics/SVG/1.1/DTD/svg11.dtd">
<!-- Generated by graphviz version 14.1.4 (0)
 -->
<!-- Title: FKSkinnedTriangleMeshElem::operator= Pages: 1 -->
<!--zoomable 65 -->

<svg id="main" version="1.1" xmlns="http://www.w3.org/2000/svg" xmlns:xlink="http://www.w3.org/1999/xlink" xml:space="preserve" onload="init(evt)">

<style type="text/css"><![CDATA[
.node, .edge {opacity: 0.7;}
.node.selected, .edge.selected {opacity: 1;}
.edge:hover path { stroke: red; }
.edge:hover polygon { stroke: red; fill: red; }
]]></style>

<defs>
  <circle id="rim" cx="0" cy="0" r="7"/>
  <circle id="rim2" cx="0" cy="0" r="3.5"/>
  <g id="zoomPlus">
    <use xlink:href="#rim" fill="#404040"><set attributeName="fill" to="#808080" begin="zoomplus.mouseover" end="zoomplus.mouseout"/></use>
    <path d="M-4,0h8M0,-4v8" fill="none" stroke="white" stroke-width="1.5" pointer-events="none"/>
  </g>
  <g id="zoomMin">
    <use xlink:href="#rim" fill="#404040"><set attributeName="fill" to="#808080" begin="zoomminus.mouseover" end="zoomminus.mouseout"/></use>
    <path d="M-4,0h8" fill="none" stroke="white" stroke-width="1.5" pointer-events="none"/>
  </g>
  <g id="arrowUp" transform="translate(30 24)">
    <use xlink:href="#rim"/>
    <path pointer-events="none" fill="none" stroke="white" stroke-width="1.5" d="M0,-3.0v7 M-2.5,-0.5L0,-3.0L2.5,-0.5"/>
  </g>
  <g id="arrowRight" transform="rotate(90) translate(36 -43)">
    <use xlink:href="#rim"/>
    <path pointer-events="none" fill="none" stroke="white" stroke-width="1.5" d="M0,-3.0v7 M-2.5,-0.5L0,-3.0L2.5,-0.5"/>
  </g>
  <g id="arrowDown" transform="rotate(180) translate(-30 -48)">
    <use xlink:href="#rim"/>
    <path pointer-events="none" fill="none" stroke="white" stroke-width="1.5" d="M0,-3.0v7 M-2.5,-0.5L0,-3.0L2.5,-0.5"/>
  </g>
  <g id="arrowLeft" transform="rotate(270) translate(-36 17)">
    <use xlink:href="#rim"/>
    <path pointer-events="none" fill="none" stroke="white" stroke-width="1.5" d="M0,-3.0v7 M-2.5,-0.5L0,-3.0L2.5,-0.5"/>
  </g>
  <g id="resetDef">
    <use xlink:href="#rim2" fill="#404040"><set attributeName="fill" to="#808080" begin="reset.mouseover" end="reset.mouseout"/></use>
  </g>
</defs>
<script type="application/ecmascript">
var viewWidth = 752;
var viewHeight = 65;
var sectionId = 'dynsection-7';
</script>
<script type="application/ecmascript" xlink:href="svg.min.js"/>
<svg id="graph" class="graph">
<g id="viewport">
<title>FKSkinnedTriangleMeshElem::operator=</title>
<!-- Node1 -->
<g id="Node000001" class="node">
<title>Node1</title>
<g id="a_Node000001"><a xlink:title=" ">
<polygon fill="#999999" stroke="#666666" points="157.75,-33.5 0,-33.5 0,0 157.75,0 157.75,-33.5"/>
<text xml:space="preserve" text-anchor="start" x="8" y="-20" font-family="Helvetica,sans-Serif" font-size="10.00">FKSkinnedTriangleMeshElem</text>
<text xml:space="preserve" text-anchor="middle" x="78.88" y="-7.25" font-family="Helvetica,sans-Serif" font-size="10.00">::operator=</text>
</a>
</g>
</g>
<!-- Node2 -->
<g id="Node000002" class="node">
<title>Node2</title>
<g id="a_Node000002"><a xlink:href="structFKSkinnedTriangleMeshElem.html#a12a5a34d042954ad2c5d86d9b8d3d491" target="_top" xlink:title=" ">
<polygon fill="white" stroke="#666666" points="351.5,-56.5 193.75,-56.5 193.75,-23 351.5,-23 351.5,-56.5"/>
<text xml:space="preserve" text-anchor="start" x="201.75" y="-43" font-family="Helvetica,sans-Serif" font-size="10.00">FKSkinnedTriangleMeshElem</text>
<text xml:space="preserve" text-anchor="middle" x="272.62" y="-30.25" font-family="Helvetica,sans-Serif" font-size="10.00">::CloneElem</text>
</a>
</g>
</g>
<!-- Node1&#45;&gt;Node2 -->
<g id="edge1_Node000001_Node000002" class="edge">
<title>Node1&#45;&gt;Node2</title>
<g id="a_edge1_Node000001_Node000002"><a xlink:title=" ">
<path fill="none" stroke="#63b8ff" d="M158.14,-26.14C166.03,-27.08 174.07,-28.05 182.06,-29.01"/>
<polygon fill="#63b8ff" stroke="#63b8ff" points="181.45,-32.46 191.79,-30.17 182.28,-25.51 181.45,-32.46"/>
</a>
</g>
</g>
<!-- Node3 -->
<g id="Node000003" class="node">
<title>Node3</title>
<g id="a_Node000003"><a xlink:href="structFKSkinnedTriangleMeshElem.html#ae4975551580653e42dea93cd446c9533" target="_top" xlink:title=" ">
<polygon fill="white" stroke="#666666" points="551.25,-33.5 387.5,-33.5 387.5,0 551.25,0 551.25,-33.5"/>
<text xml:space="preserve" text-anchor="start" x="395.5" y="-20" font-family="Helvetica,sans-Serif" font-size="10.00">FKSkinnedTriangleMeshElem</text>
<text xml:space="preserve" text-anchor="middle" x="469.38" y="-7.25" font-family="Helvetica,sans-Serif" font-size="10.00">::FKSkinnedTriangleMeshElem</text>
</a>
</g>
</g>
<!-- Node1&#45;&gt;Node3 -->
<g id="edge6_Node000001_Node000003" class="edge">
<title>Node1&#45;&gt;Node3</title>
<g id="a_edge6_Node000001_Node000003"><a xlink:title=" ">
<path fill="none" stroke="#63b8ff" d="M157.97,-14.42C169.95,-14.14 182.18,-13.9 193.75,-13.75 263.86,-12.83 281.39,-12.85 351.5,-13.75 359.45,-13.85 367.71,-13.99 375.99,-14.16"/>
<polygon fill="#63b8ff" stroke="#63b8ff" points="375.69,-17.65 385.76,-14.37 375.84,-10.65 375.69,-17.65"/>
</a>
</g>
</g>
<!-- Node2&#45;&gt;Node3 -->
<g id="edge2_Node000002_Node000003" class="edge">
<title>Node2&#45;&gt;Node3</title>
<g id="a_edge2_Node000002_Node000003"><a xlink:title=" ">
<path fill="none" stroke="#63b8ff" d="M352,-30.49C359.9,-29.56 367.97,-28.61 376,-27.66"/>
<polygon fill="#63b8ff" stroke="#63b8ff" points="376.28,-31.15 385.8,-26.5 375.46,-24.2 376.28,-31.15"/>
</a>
</g>
</g>
<!-- Node3&#45;&gt;Node3 -->
<g id="edge5_Node000003_Node000003" class="edge">
<title>Node3&#45;&gt;Node3</title>
<g id="a_edge5_Node000003_Node000003"><a xlink:title=" ">
<path fill="none" stroke="#63b8ff" d="M434.07,-33.91C428.08,-43.12 439.84,-51.5 469.38,-51.5 485.99,-51.5 496.98,-48.85 502.35,-44.89"/>
<polygon fill="#63b8ff" stroke="#63b8ff" points="505.71,-45.9 504.36,-35.39 498.86,-44.45 505.71,-45.9"/>
</a>
</g>
</g>
<!-- Node4 -->
<g id="Node000004" class="node">
<title>Node4</title>
<g id="a_Node000004"><a xlink:href="structFKShapeElem.html#aa01ee11d08e99d540ea8fd2a0e075250" target="_top" xlink:title=" ">
<polygon fill="white" stroke="#666666" points="744.25,-27.12 587.25,-27.12 587.25,-6.38 744.25,-6.38 744.25,-27.12"/>
<text xml:space="preserve" text-anchor="middle" x="665.75" y="-13.62" font-family="Helvetica,sans-Serif" font-size="10.00">FKShapeElem::FKShapeElem</text>
</a>
</g>
</g>
<!-- Node3&#45;&gt;Node4 -->
<g id="edge3_Node000003_Node000004" class="edge">
<title>Node3&#45;&gt;Node4</title>
<g id="a_edge3_Node000003_Node000004"><a xlink:title=" ">
<path fill="none" stroke="#63b8ff" d="M551.68,-16.75C559.51,-16.75 567.48,-16.75 575.38,-16.75"/>
<polygon fill="#63b8ff" stroke="#63b8ff" points="575.37,-20.25 585.37,-16.75 575.37,-13.25 575.37,-20.25"/>
</a>
</g>
</g>
<!-- Node4&#45;&gt;Node4 -->
<g id="edge4_Node000004_Node000004" class="edge">
<title>Node4&#45;&gt;Node4</title>
<g id="a_edge4_Node000004_Node000004"><a xlink:title=" ">
<path fill="none" stroke="#63b8ff" d="M634.11,-27.52C621.45,-36.18 632,-45.12 665.75,-45.12 684.21,-45.12 695.73,-42.45 700.3,-38.61"/>
<polygon fill="#63b8ff" stroke="#63b8ff" points="703.7,-37.77 697.78,-28.99 696.93,-39.55 703.7,-37.77"/>
</a>
</g>
</g>
</g>
</svg>

<g id="navigator" transform="translate(0 0)" fill="#404254">
  <rect fill="#f2f5e9" fill-opacity="0.5" stroke="#606060" stroke-width=".5" x="0" y="0" width="60" height="60"/>
  <use id="zoomplus" xlink:href="#zoomPlus" x="17" y="9" onmousedown="handleZoom(evt,'in')"/>
  <use id="zoomminus" xlink:href="#zoomMin" x="42" y="9" onmousedown="handleZoom(evt,'out')"/>
  <use id="reset" xlink:href="#resetDef" x="30" y="36" onmousedown="handleReset()"/>
   <use id="arrowup" xlink:href="#arrowUp" x="0" y="0" onmousedown="handlePan(0,-1)"/>
  <use id="arrowright" xlink:href="#arrowRight" x="0" y="0" onmousedown="handlePan(1,0)"/>
  <use id="arrowdown" xlink:href="#arrowDown" x="0" y="0" onmousedown="handlePan(0,1)"/>
  <use id="arrowleft" xlink:href="#arrowLeft" x="0" y="0" onmousedown="handlePan(-1,0)"/>
</g>
<svg viewBox="0 0 15 15" width="100%" height="30px" preserveAspectRatio="xMaxYMin meet">
 <g id="arrow_out" transform="scale(0.3 0.3)">
  <a xlink:href="structFKSkinnedTriangleMeshElem_a1d05308ce9af90882cdbb5c3b23dbf2b_cgraph_org.svg" target="_base">
   <rect id="button" ry="5" rx="5" y="6" x="6" height="38" width="38"
        fill="#f2f5e9" fill-opacity="0.5" stroke="#606060" stroke-width="1.0"/>
   <path id="arrow"
     d="M 11.500037,31.436501 C 11.940474,20.09759 22.043105,11.32322 32.158766,21.979434 L 37.068811,17.246167 C 37.068811,17.246167 37.088388,32 37.088388,32 L 22.160133,31.978069 C 22.160133,31.978069 26.997745,27.140456 26.997745,27.140456 C 18.528582,18.264221 13.291696,25.230495 11.500037,31.436501 z"
     style="fill:#404040;"/>
  </a>
 </g>
</svg>

<style type='text/css'>
<![CDATA[
[data-mouse-over-selected='false'] { opacity: 0.7; }
[data-mouse-over-selected='true']  { opacity: 1.0; }
]]>
</style>
<script type="application/ecmascript"><![CDATA[
document.addEventListener('DOMContentLoaded', (event) => {
  highlightEdges();
  highlightAdjacentNodes();
});
]]></script>
</svg>
