<?xml version="1.0" encoding="UTF-8" standalone="no"?>
<!DOCTYPE svg PUBLIC "-//W3C//DTD SVG 1.1//EN"
 "http://www.w3.org/Graphics/SVG/1.1/DTD/svg11.dtd">
<!-- Generated by graphviz version 14.1.4 (0)
 -->
<!-- Title: FPredictProjectilePathParams::Init Pages: 1 -->
<svg width="370pt" height="216pt"
 viewBox="0.00 0.00 370.00 216.00" xmlns="http://www.w3.org/2000/svg" xmlns:xlink="http://www.w3.org/1999/xlink">

<svg id="main" version="1.1" xmlns="http://www.w3.org/2000/svg" xmlns:xlink="http://www.w3.org/1999/xlink" xml:space="preserve">

<style type="text/css"><![CDATA[
.node, .edge {opacity: 0.7;}
.node.selected, .edge.selected {opacity: 1;}
.edge:hover path { stroke: red; }
.edge:hover polygon { stroke: red; fill: red; }
]]></style>
<script type="application/ecmascript" xlink:href="svg.min.js"/>
<svg id="graph" class="graph">
<g id="graph0" class="graph" transform="scale(1 1) rotate(0) translate(4 211.5)">
<title>FPredictProjectilePathParams::Init</title>
<!-- Node1 -->
<g id="Node000001" class="node">
<title>Node1</title>
<g id="a_Node000001"><a xlink:title=" ">
<polygon fill="#999999" stroke="#666666" points="362,-111.5 202,-111.5 202,-78 362,-78 362,-111.5"/>
<text xml:space="preserve" text-anchor="start" x="210" y="-98" font-family="Helvetica,sans-Serif" font-size="10.00">FPredictProjectilePathParams</text>
<text xml:space="preserve" text-anchor="middle" x="282" y="-85.25" font-family="Helvetica,sans-Serif" font-size="10.00">::Init</text>
</a>
</g>
</g>
<!-- Node2 -->
<g id="Node000002" class="node">
<title>Node2</title>
<g id="a_Node000002"><a xlink:href="structFPredictProjectilePathParams.html#a3b323597cfc48039d3124710d53314ea" target="_top" xlink:title=" ">
<polygon fill="white" stroke="#666666" points="166,-189.5 0,-189.5 0,-156 166,-156 166,-189.5"/>
<text xml:space="preserve" text-anchor="start" x="8" y="-176" font-family="Helvetica,sans-Serif" font-size="10.00">FPredictProjectilePathParams</text>
<text xml:space="preserve" text-anchor="middle" x="83" y="-163.25" font-family="Helvetica,sans-Serif" font-size="10.00">::FPredictProjectilePathParams</text>
</a>
</g>
</g>
<!-- Node1&#45;&gt;Node2 -->
<g id="edge1_Node000001_Node000002" class="edge">
<title>Node1&#45;&gt;Node2</title>
<g id="a_edge1_Node000001_Node000002"><a xlink:title=" ">
<path fill="none" stroke="#63b8ff" d="M235.75,-116.7C214.77,-126.48 189.37,-137.8 166,-146.75 158.05,-149.8 149.58,-152.77 141.2,-155.56"/>
<polygon fill="#63b8ff" stroke="#63b8ff" points="237.04,-119.96 244.6,-112.53 234.06,-113.62 237.04,-119.96"/>
</a>
</g>
</g>
<!-- Node3 -->
<g id="Node000003" class="node">
<title>Node3</title>
<g id="a_Node000003"><a xlink:href="structFPredictProjectilePathParams.html#af33f2da5427458a711e21a4764cb1a53" target="_top" xlink:title=" ">
<polygon fill="white" stroke="#666666" points="166,-137.5 0,-137.5 0,-104 166,-104 166,-137.5"/>
<text xml:space="preserve" text-anchor="start" x="8" y="-124" font-family="Helvetica,sans-Serif" font-size="10.00">FPredictProjectilePathParams</text>
<text xml:space="preserve" text-anchor="middle" x="83" y="-111.25" font-family="Helvetica,sans-Serif" font-size="10.00">::FPredictProjectilePathParams</text>
</a>
</g>
</g>
<!-- Node1&#45;&gt;Node3 -->
<g id="edge3_Node000001_Node000003" class="edge">
<title>Node1&#45;&gt;Node3</title>
<g id="a_edge3_Node000001_Node000003"><a xlink:title=" ">
<path fill="none" stroke="#63b8ff" d="M190.43,-106.7C182.4,-107.76 174.29,-108.83 166.33,-109.88"/>
<polygon fill="#63b8ff" stroke="#63b8ff" points="190.77,-110.19 200.22,-105.41 189.85,-103.25 190.77,-110.19"/>
</a>
</g>
</g>
<!-- Node4 -->
<g id="Node000004" class="node">
<title>Node4</title>
<g id="a_Node000004"><a xlink:href="structFPredictProjectilePathParams.html#a6e37d4cb82405c18186dbedad021e1b6" target="_top" xlink:title=" ">
<polygon fill="white" stroke="#666666" points="166,-85.5 0,-85.5 0,-52 166,-52 166,-85.5"/>
<text xml:space="preserve" text-anchor="start" x="8" y="-72" font-family="Helvetica,sans-Serif" font-size="10.00">FPredictProjectilePathParams</text>
<text xml:space="preserve" text-anchor="middle" x="83" y="-59.25" font-family="Helvetica,sans-Serif" font-size="10.00">::FPredictProjectilePathParams</text>
</a>
</g>
</g>
<!-- Node1&#45;&gt;Node4 -->
<g id="edge4_Node000001_Node000004" class="edge">
<title>Node1&#45;&gt;Node4</title>
<g id="a_edge4_Node000001_Node000004"><a xlink:title=" ">
<path fill="none" stroke="#63b8ff" d="M190.43,-82.8C182.4,-81.74 174.29,-80.67 166.33,-79.62"/>
<polygon fill="#63b8ff" stroke="#63b8ff" points="189.85,-86.25 200.22,-84.09 190.77,-79.31 189.85,-86.25"/>
</a>
</g>
</g>
<!-- Node5 -->
<g id="Node000005" class="node">
<title>Node5</title>
<g id="a_Node000005"><a xlink:href="structFPredictProjectilePathParams.html#a2d585697526c99913db921563630dd02" target="_top" xlink:title=" ">
<polygon fill="white" stroke="#666666" points="166,-33.5 0,-33.5 0,0 166,0 166,-33.5"/>
<text xml:space="preserve" text-anchor="start" x="8" y="-20" font-family="Helvetica,sans-Serif" font-size="10.00">FPredictProjectilePathParams</text>
<text xml:space="preserve" text-anchor="middle" x="83" y="-7.25" font-family="Helvetica,sans-Serif" font-size="10.00">::FPredictProjectilePathParams</text>
</a>
</g>
</g>
<!-- Node1&#45;&gt;Node5 -->
<g id="edge5_Node000001_Node000005" class="edge">
<title>Node1&#45;&gt;Node5</title>
<g id="a_edge5_Node000001_Node000005"><a xlink:title=" ">
<path fill="none" stroke="#63b8ff" d="M235.75,-72.8C214.77,-63.02 189.37,-51.7 166,-42.75 158.05,-39.7 149.58,-36.73 141.2,-33.94"/>
<polygon fill="#63b8ff" stroke="#63b8ff" points="234.06,-75.88 244.6,-76.97 237.04,-69.54 234.06,-75.88"/>
</a>
</g>
</g>
<!-- Node2&#45;&gt;Node2 -->
<g id="edge2_Node000002_Node000002" class="edge">
<title>Node2&#45;&gt;Node2</title>
<g id="a_edge2_Node000002_Node000002"><a xlink:title=" ">
<path fill="none" stroke="#63b8ff" d="M116.41,-200.89C110.97,-204.85 99.83,-207.5 83,-207.5 53.07,-207.5 41.15,-199.12 47.23,-189.91"/>
<polygon fill="#63b8ff" stroke="#63b8ff" points="119.77,-201.91 118.45,-191.39 112.93,-200.44 119.77,-201.91"/>
</a>
</g>
</g>
</g>
</svg>
</svg>

<style type='text/css'>
<![CDATA[
[data-mouse-over-selected='false'] { opacity: 0.7; }
[data-mouse-over-selected='true']  { opacity: 1.0; }
]]>
</style>
<script type="application/ecmascript"><![CDATA[
document.addEventListener('DOMContentLoaded', (event) => {
  highlightEdges();
  highlightAdjacentNodes();
});
]]></script>
</svg>
