<?xml version="1.0" encoding="UTF-8" standalone="no"?>
<!DOCTYPE svg PUBLIC "-//W3C//DTD SVG 1.1//EN"
 "http://www.w3.org/Graphics/SVG/1.1/DTD/svg11.dtd">
<!-- Generated by graphviz version 14.1.4 (0)
 -->
<!-- Title: FParticlePerfStats_GT::FParticlePerfStats_GT Pages: 1 -->
<svg width="475pt" height="42pt"
 viewBox="0.00 0.00 475.00 42.00" xmlns="http://www.w3.org/2000/svg" xmlns:xlink="http://www.w3.org/1999/xlink">
<g id="graph0" class="graph" transform="scale(1 1) rotate(0) translate(4 37.5)">
<title>FParticlePerfStats_GT::FParticlePerfStats_GT</title>
<!-- Node1 -->
<g id="Node000001" class="node">
<title>Node1</title>
<g id="a_Node000001"><a xlink:title=" ">
<polygon fill="#999999" stroke="#666666" points="145.75,-33.5 0,-33.5 0,0 145.75,0 145.75,-33.5"/>
<text xml:space="preserve" text-anchor="start" x="8" y="-20" font-family="Helvetica,sans-Serif" font-size="10.00">FParticlePerfStats</text>
<text xml:space="preserve" text-anchor="middle" x="72.88" y="-7.25" font-family="Helvetica,sans-Serif" font-size="10.00">_GT::FParticlePerfStats_GT</text>
</a>
</g>
</g>
<!-- Node2 -->
<g id="Node000002" class="node">
<title>Node2</title>
<g id="a_Node000002"><a xlink:href="structFParticlePerfStats__GT.html#a332e5dc062f59d0e14c0489cbb2a7566" target="_top" xlink:title=" ">
<polygon fill="white" stroke="#666666" points="327.5,-33.5 181.75,-33.5 181.75,0 327.5,0 327.5,-33.5"/>
<text xml:space="preserve" text-anchor="start" x="189.75" y="-20" font-family="Helvetica,sans-Serif" font-size="10.00">FParticlePerfStats</text>
<text xml:space="preserve" text-anchor="middle" x="254.62" y="-7.25" font-family="Helvetica,sans-Serif" font-size="10.00">_GT::FParticlePerfStats_GT</text>
</a>
</g>
</g>
<!-- Node1&#45;&gt;Node2 -->
<g id="edge1_Node000001_Node000002" class="edge">
<title>Node1&#45;&gt;Node2</title>
<g id="a_edge1_Node000001_Node000002"><a xlink:title=" ">
<path fill="none" stroke="#63b8ff" d="M146.21,-16.75C154.1,-16.75 162.18,-16.75 170.19,-16.75"/>
<polygon fill="#63b8ff" stroke="#63b8ff" points="169.93,-20.25 179.93,-16.75 169.93,-13.25 169.93,-20.25"/>
</a>
</g>
</g>
<!-- Node3 -->
<g id="Node000003" class="node">
<title>Node3</title>
<g id="a_Node000003"><a xlink:href="structFParticlePerfStats__GT.html#ae58f8361034fffff2035968e60a4b0a8" target="_top" xlink:title=" ">
<polygon fill="white" stroke="#666666" points="466.5,-33.5 363.5,-33.5 363.5,0 466.5,0 466.5,-33.5"/>
<text xml:space="preserve" text-anchor="start" x="371.5" y="-20" font-family="Helvetica,sans-Serif" font-size="10.00">FParticlePerfStats</text>
<text xml:space="preserve" text-anchor="middle" x="415" y="-7.25" font-family="Helvetica,sans-Serif" font-size="10.00">_GT::Reset</text>
</a>
</g>
</g>
<!-- Node2&#45;&gt;Node3 -->
<g id="edge2_Node000002_Node000003" class="edge">
<title>Node2&#45;&gt;Node3</title>
<g id="a_edge2_Node000002_Node000003"><a xlink:title=" ">
<path fill="none" stroke="#63b8ff" d="M327.86,-16.75C335.86,-16.75 343.96,-16.75 351.82,-16.75"/>
<polygon fill="#63b8ff" stroke="#63b8ff" points="351.62,-20.25 361.62,-16.75 351.62,-13.25 351.62,-20.25"/>
</a>
</g>
</g>
</g>
</svg>
