<?xml version="1.0" encoding="UTF-8" standalone="no"?>
<!DOCTYPE svg PUBLIC "-//W3C//DTD SVG 1.1//EN"
 "http://www.w3.org/Graphics/SVG/1.1/DTD/svg11.dtd">
<!-- Generated by graphviz version 14.1.4 (0)
 -->
<!-- Title: FAttributeCurve::UpdateOrAddTypedKey Pages: 1 -->
<!--zoomable 132 -->

<svg id="main" version="1.1" xmlns="http://www.w3.org/2000/svg" xmlns:xlink="http://www.w3.org/1999/xlink" xml:space="preserve" onload="init(evt)">

<style type="text/css"><![CDATA[
.node, .edge {opacity: 0.7;}
.node.selected, .edge.selected {opacity: 1;}
.edge:hover path { stroke: red; }
.edge:hover polygon { stroke: red; fill: red; }
]]></style>

<defs>
  <circle id="rim" cx="0" cy="0" r="7"/>
  <circle id="rim2" cx="0" cy="0" r="3.5"/>
  <g id="zoomPlus">
    <use xlink:href="#rim" fill="#404040"><set attributeName="fill" to="#808080" begin="zoomplus.mouseover" end="zoomplus.mouseout"/></use>
    <path d="M-4,0h8M0,-4v8" fill="none" stroke="white" stroke-width="1.5" pointer-events="none"/>
  </g>
  <g id="zoomMin">
    <use xlink:href="#rim" fill="#404040"><set attributeName="fill" to="#808080" begin="zoomminus.mouseover" end="zoomminus.mouseout"/></use>
    <path d="M-4,0h8" fill="none" stroke="white" stroke-width="1.5" pointer-events="none"/>
  </g>
  <g id="arrowUp" transform="translate(30 24)">
    <use xlink:href="#rim"/>
    <path pointer-events="none" fill="none" stroke="white" stroke-width="1.5" d="M0,-3.0v7 M-2.5,-0.5L0,-3.0L2.5,-0.5"/>
  </g>
  <g id="arrowRight" transform="rotate(90) translate(36 -43)">
    <use xlink:href="#rim"/>
    <path pointer-events="none" fill="none" stroke="white" stroke-width="1.5" d="M0,-3.0v7 M-2.5,-0.5L0,-3.0L2.5,-0.5"/>
  </g>
  <g id="arrowDown" transform="rotate(180) translate(-30 -48)">
    <use xlink:href="#rim"/>
    <path pointer-events="none" fill="none" stroke="white" stroke-width="1.5" d="M0,-3.0v7 M-2.5,-0.5L0,-3.0L2.5,-0.5"/>
  </g>
  <g id="arrowLeft" transform="rotate(270) translate(-36 17)">
    <use xlink:href="#rim"/>
    <path pointer-events="none" fill="none" stroke="white" stroke-width="1.5" d="M0,-3.0v7 M-2.5,-0.5L0,-3.0L2.5,-0.5"/>
  </g>
  <g id="resetDef">
    <use xlink:href="#rim2" fill="#404040"><set attributeName="fill" to="#808080" begin="reset.mouseover" end="reset.mouseout"/></use>
  </g>
</defs>
<script type="application/ecmascript">
var viewWidth = 704;
var viewHeight = 132;
var sectionId = 'dynsection-29';
</script>
<script type="application/ecmascript" xlink:href="svg.min.js"/>
<svg id="graph" class="graph">
<g id="viewport">
<title>FAttributeCurve::UpdateOrAddTypedKey</title>
<!-- Node1 -->
<g id="Node000001" class="node">
<title>Node1</title>
<g id="a_Node000001"><a xlink:title=" ">
<polygon fill="#999999" stroke="#666666" points="144.25,-49.12 0,-49.12 0,-15.62 144.25,-15.62 144.25,-49.12"/>
<text xml:space="preserve" text-anchor="start" x="8" y="-35.62" font-family="Helvetica,sans-Serif" font-size="10.00">FAttributeCurve::UpdateOr</text>
<text xml:space="preserve" text-anchor="middle" x="72.12" y="-22.88" font-family="Helvetica,sans-Serif" font-size="10.00">AddTypedKey</text>
</a>
</g>
</g>
<!-- Node2 -->
<g id="Node000002" class="node">
<title>Node2</title>
<g id="a_Node000002"><a xlink:href="structFAttributeCurve.html#a1c4ca61453cc82bbded1d42cec529401" target="_top" xlink:title=" ">
<polygon fill="white" stroke="#666666" points="324.5,-49.12 180.25,-49.12 180.25,-15.62 324.5,-15.62 324.5,-49.12"/>
<text xml:space="preserve" text-anchor="start" x="188.25" y="-35.62" font-family="Helvetica,sans-Serif" font-size="10.00">FAttributeCurve::UpdateOr</text>
<text xml:space="preserve" text-anchor="middle" x="252.38" y="-22.88" font-family="Helvetica,sans-Serif" font-size="10.00">AddKey</text>
</a>
</g>
</g>
<!-- Node1&#45;&gt;Node2 -->
<g id="edge1_Node000001_Node000002" class="edge">
<title>Node1&#45;&gt;Node2</title>
<g id="a_edge1_Node000001_Node000002"><a xlink:title=" ">
<path fill="none" stroke="#63b8ff" d="M144.6,-32.38C152.5,-32.38 160.59,-32.38 168.61,-32.38"/>
<polygon fill="#63b8ff" stroke="#63b8ff" points="168.37,-35.88 178.37,-32.38 168.37,-28.88 168.37,-35.88"/>
</a>
</g>
</g>
<!-- Node3 -->
<g id="Node000003" class="node">
<title>Node3</title>
<g id="a_Node000003"><a xlink:href="structFAttributeCurve.html#a1ceb1a45800e58d85458f9537b8b9223" target="_top" xlink:title=" ">
<polygon fill="white" stroke="#666666" points="495,-63.75 360.5,-63.75 360.5,-43 495,-43 495,-63.75"/>
<text xml:space="preserve" text-anchor="middle" x="427.75" y="-50.25" font-family="Helvetica,sans-Serif" font-size="10.00">FAttributeCurve::AddKey</text>
</a>
</g>
</g>
<!-- Node2&#45;&gt;Node3 -->
<g id="edge2_Node000002_Node000003" class="edge">
<title>Node2&#45;&gt;Node3</title>
<g id="a_edge2_Node000002_Node000003"><a xlink:title=" ">
<path fill="none" stroke="#63b8ff" d="M324.89,-41.04C332.82,-42 340.92,-42.98 348.92,-43.95"/>
<polygon fill="#63b8ff" stroke="#63b8ff" points="348.28,-47.4 358.62,-45.12 349.12,-40.45 348.28,-47.4"/>
</a>
</g>
</g>
<!-- Node5 -->
<g id="Node000005" class="node">
<title>Node5</title>
<g id="a_Node000005"><a xlink:href="structFIndexedCurve.html#ab8d6505f17a94a36416cddc7a50bf433" target="_top" xlink:title=" ">
<polygon fill="white" stroke="#666666" points="696.25,-20.75 531,-20.75 531,0 696.25,0 696.25,-20.75"/>
<text xml:space="preserve" text-anchor="middle" x="613.62" y="-7.25" font-family="Helvetica,sans-Serif" font-size="10.00">FIndexedCurve::GetKeyHandle</text>
</a>
</g>
</g>
<!-- Node2&#45;&gt;Node5 -->
<g id="edge6_Node000002_Node000005" class="edge">
<title>Node2&#45;&gt;Node5</title>
<g id="a_edge6_Node000002_Node000005"><a xlink:title=" ">
<path fill="none" stroke="#63b8ff" d="M324.78,-28C380.65,-24.58 458.77,-19.8 519.54,-16.08"/>
<polygon fill="#63b8ff" stroke="#63b8ff" points="519.4,-19.59 529.16,-15.49 518.97,-12.6 519.4,-19.59"/>
</a>
</g>
</g>
<!-- Node4 -->
<g id="Node000004" class="node">
<title>Node4</title>
<g id="a_Node000004"><a xlink:href="structUE_1_1Anim_1_1TWrappedAttribute.html#a0dc7df9f7e84a9f20a2b386d66376b7d" target="_top" xlink:title=" ">
<polygon fill="white" stroke="#666666" points="693.25,-124.12 534,-124.12 534,-90.62 693.25,-90.62 693.25,-124.12"/>
<text xml:space="preserve" text-anchor="start" x="542" y="-110.62" font-family="Helvetica,sans-Serif" font-size="10.00">UE::Anim::TWrappedAttribute</text>
<text xml:space="preserve" text-anchor="middle" x="613.62" y="-97.88" font-family="Helvetica,sans-Serif" font-size="10.00">::Allocate</text>
</a>
</g>
</g>
<!-- Node3&#45;&gt;Node4 -->
<g id="edge3_Node000003_Node000004" class="edge">
<title>Node3&#45;&gt;Node4</title>
<g id="a_edge3_Node000003_Node000004"><a xlink:title=" ">
<path fill="none" stroke="#63b8ff" d="M465.52,-64.17C487.81,-70.72 516.97,-79.28 543.44,-87.06"/>
<polygon fill="#63b8ff" stroke="#63b8ff" points="542.17,-90.33 552.75,-89.79 544.14,-83.62 542.17,-90.33"/>
</a>
</g>
</g>
<!-- Node3&#45;&gt;Node5 -->
<g id="edge4_Node000003_Node000005" class="edge">
<title>Node3&#45;&gt;Node5</title>
<g id="a_edge4_Node000003_Node000005"><a xlink:title=" ">
<path fill="none" stroke="#63b8ff" d="M474.81,-42.54C492.39,-38.42 512.62,-33.67 531,-29.38 538.7,-27.57 546.82,-25.68 554.82,-23.82"/>
<polygon fill="#63b8ff" stroke="#63b8ff" points="555.58,-27.23 564.53,-21.55 554,-20.41 555.58,-27.23"/>
</a>
</g>
</g>
<!-- Node6 -->
<g id="Node000006" class="node">
<title>Node6</title>
<g id="a_Node000006"><a xlink:href="structUE_1_1Anim_1_1TWrappedAttribute.html#a29ddf2e7ec9f2f2a28eb42968689bcc5" target="_top" xlink:title=" ">
<polygon fill="white" stroke="#666666" points="693.25,-72.12 534,-72.12 534,-38.62 693.25,-38.62 693.25,-72.12"/>
<text xml:space="preserve" text-anchor="start" x="542" y="-58.62" font-family="Helvetica,sans-Serif" font-size="10.00">UE::Anim::TWrappedAttribute</text>
<text xml:space="preserve" text-anchor="middle" x="613.62" y="-45.88" font-family="Helvetica,sans-Serif" font-size="10.00">::GetPtr</text>
</a>
</g>
</g>
<!-- Node3&#45;&gt;Node6 -->
<g id="edge5_Node000003_Node000006" class="edge">
<title>Node3&#45;&gt;Node6</title>
<g id="a_edge5_Node000003_Node000006"><a xlink:title=" ">
<path fill="none" stroke="#63b8ff" d="M495.39,-54.1C504.14,-54.19 513.21,-54.29 522.27,-54.39"/>
<polygon fill="#63b8ff" stroke="#63b8ff" points="522.15,-57.89 532.19,-54.5 522.22,-50.89 522.15,-57.89"/>
</a>
</g>
</g>
</g>
</svg>

<g id="navigator" transform="translate(0 0)" fill="#404254">
  <rect fill="#f2f5e9" fill-opacity="0.5" stroke="#606060" stroke-width=".5" x="0" y="0" width="60" height="60"/>
  <use id="zoomplus" xlink:href="#zoomPlus" x="17" y="9" onmousedown="handleZoom(evt,'in')"/>
  <use id="zoomminus" xlink:href="#zoomMin" x="42" y="9" onmousedown="handleZoom(evt,'out')"/>
  <use id="reset" xlink:href="#resetDef" x="30" y="36" onmousedown="handleReset()"/>
   <use id="arrowup" xlink:href="#arrowUp" x="0" y="0" onmousedown="handlePan(0,-1)"/>
  <use id="arrowright" xlink:href="#arrowRight" x="0" y="0" onmousedown="handlePan(1,0)"/>
  <use id="arrowdown" xlink:href="#arrowDown" x="0" y="0" onmousedown="handlePan(0,1)"/>
  <use id="arrowleft" xlink:href="#arrowLeft" x="0" y="0" onmousedown="handlePan(-1,0)"/>
</g>
<svg viewBox="0 0 15 15" width="100%" height="30px" preserveAspectRatio="xMaxYMin meet">
 <g id="arrow_out" transform="scale(0.3 0.3)">
  <a xlink:href="structFAttributeCurve_a7e14a773315c9c781bb493a0a501c80c_cgraph_org.svg" target="_base">
   <rect id="button" ry="5" rx="5" y="6" x="6" height="38" width="38"
        fill="#f2f5e9" fill-opacity="0.5" stroke="#606060" stroke-width="1.0"/>
   <path id="arrow"
     d="M 11.500037,31.436501 C 11.940474,20.09759 22.043105,11.32322 32.158766,21.979434 L 37.068811,17.246167 C 37.068811,17.246167 37.088388,32 37.088388,32 L 22.160133,31.978069 C 22.160133,31.978069 26.997745,27.140456 26.997745,27.140456 C 18.528582,18.264221 13.291696,25.230495 11.500037,31.436501 z"
     style="fill:#404040;"/>
  </a>
 </g>
</svg>

<style type='text/css'>
<![CDATA[
[data-mouse-over-selected='false'] { opacity: 0.7; }
[data-mouse-over-selected='true']  { opacity: 1.0; }
]]>
</style>
<script type="application/ecmascript"><![CDATA[
document.addEventListener('DOMContentLoaded', (event) => {
  highlightEdges();
  highlightAdjacentNodes();
});
]]></script>
</svg>
