<?xml version="1.0" encoding="UTF-8" standalone="no"?>
<!DOCTYPE svg PUBLIC "-//W3C//DTD SVG 1.1//EN"
 "http://www.w3.org/Graphics/SVG/1.1/DTD/svg11.dtd">
<!-- Generated by graphviz version 14.1.4 (0)
 -->
<!-- Title: UClusterUnionComponent::FMappedComponentKey Pages: 1 -->
<svg width="155pt" height="159pt"
 viewBox="0.00 0.00 155.00 159.00" xmlns="http://www.w3.org/2000/svg" xmlns:xlink="http://www.w3.org/1999/xlink">
<g id="graph0" class="graph" transform="scale(1 1) rotate(0) translate(4 154.75)">
<title>UClusterUnionComponent::FMappedComponentKey</title>
<!-- Node1 -->
<g id="Node000001" class="node">
<title>Node1</title>
<g id="a_Node000001"><a xlink:title=" ">
<polygon fill="#999999" stroke="none" points="147,-150.75 0,-150.75 0,0 147,0 147,-150.75"/>
<text xml:space="preserve" text-anchor="start" x="10.12" y="-137" font-family="Helvetica,sans-Serif" font-size="10.00">UClusterUnionComponent</text>
<text xml:space="preserve" text-anchor="start" x="10.88" y="-124.25" font-family="Helvetica,sans-Serif" font-size="10.00">::FMappedComponentKey</text>
<text xml:space="preserve" text-anchor="start" x="4" y="-107.5" font-family="Helvetica,sans-Serif" font-size="10.00">+</text>
<text xml:space="preserve" text-anchor="start" x="16.25" y="-107.5" font-family="Helvetica,sans-Serif" font-size="10.00">ComponentKey</text>
<text xml:space="preserve" text-anchor="start" x="4" y="-90.75" font-family="Helvetica,sans-Serif" font-size="10.00">+</text>
<text xml:space="preserve" text-anchor="start" x="16.25" y="-90.75" font-family="Helvetica,sans-Serif" font-size="10.00">ComponentPtr</text>
<text xml:space="preserve" text-anchor="start" x="4" y="-74" font-family="Helvetica,sans-Serif" font-size="10.00">+</text>
<text xml:space="preserve" text-anchor="start" x="16.25" y="-74" font-family="Helvetica,sans-Serif" font-size="10.00">FMappedComponentKey()</text>
<text xml:space="preserve" text-anchor="start" x="4" y="-57.25" font-family="Helvetica,sans-Serif" font-size="10.00">+</text>
<text xml:space="preserve" text-anchor="start" x="16.25" y="-57.25" font-family="Helvetica,sans-Serif" font-size="10.00">FMappedComponentKey()</text>
<text xml:space="preserve" text-anchor="start" x="4" y="-40.5" font-family="Helvetica,sans-Serif" font-size="10.00">+</text>
<text xml:space="preserve" text-anchor="start" x="16.25" y="-40.5" font-family="Helvetica,sans-Serif" font-size="10.00">FMappedComponentKey()</text>
<text xml:space="preserve" text-anchor="start" x="4" y="-23.75" font-family="Helvetica,sans-Serif" font-size="10.00">+</text>
<text xml:space="preserve" text-anchor="start" x="16.25" y="-23.75" font-family="Helvetica,sans-Serif" font-size="10.00">operator&lt;()</text>
<text xml:space="preserve" text-anchor="start" x="4" y="-7" font-family="Helvetica,sans-Serif" font-size="10.00">+</text>
<text xml:space="preserve" text-anchor="start" x="16.25" y="-7" font-family="Helvetica,sans-Serif" font-size="10.00">operator==()</text>
<polygon fill="#666666" stroke="#666666" points="0,-119.25 0,-119.25 147,-119.25 147,-119.25 0,-119.25"/>
<polygon fill="#666666" stroke="#666666" points="0,-85.75 0,-85.75 14.25,-85.75 14.25,-85.75 0,-85.75"/>
<polygon fill="#666666" stroke="#666666" points="14.25,-85.75 14.25,-85.75 147,-85.75 147,-85.75 14.25,-85.75"/>
<polygon fill="none" stroke="#666666" points="0,0 0,-150.75 147,-150.75 147,0 0,0"/>
</a>
</g>
</g>
</g>
</svg>
