<?xml version="1.0" encoding="UTF-8" standalone="no"?>
<!DOCTYPE svg PUBLIC "-//W3C//DTD SVG 1.1//EN"
 "http://www.w3.org/Graphics/SVG/1.1/DTD/svg11.dtd">
<!-- Generated by graphviz version 14.1.4 (0)
 -->
<!-- Title: FRootMotionSource_ConstantForce Pages: 1 -->
<svg width="708pt" height="1088pt"
 viewBox="0.00 0.00 708.00 1088.00" xmlns="http://www.w3.org/2000/svg" xmlns:xlink="http://www.w3.org/1999/xlink">
<g id="graph0" class="graph" transform="scale(1 1) rotate(0) translate(4 1084)">
<title>FRootMotionSource_ConstantForce</title>
<!-- Node1 -->
<g id="Node000001" class="node">
<title>Node1</title>
<g id="a_Node000001"><a xlink:title=" ">
<polygon fill="#999999" stroke="none" points="429,-276.75 264.75,-276.75 264.75,0 429,0 429,-276.75"/>
<text xml:space="preserve" text-anchor="start" x="274.88" y="-263" font-family="Helvetica,sans-Serif" font-size="10.00">FRootMotionSource_Constant</text>
<text xml:space="preserve" text-anchor="start" x="333.75" y="-250.25" font-family="Helvetica,sans-Serif" font-size="10.00">Force</text>
<text xml:space="preserve" text-anchor="start" x="268.75" y="-233.5" font-family="Helvetica,sans-Serif" font-size="10.00">+</text>
<text xml:space="preserve" text-anchor="start" x="281" y="-233.5" font-family="Helvetica,sans-Serif" font-size="10.00">Force</text>
<text xml:space="preserve" text-anchor="start" x="268.75" y="-216.75" font-family="Helvetica,sans-Serif" font-size="10.00">+</text>
<text xml:space="preserve" text-anchor="start" x="281" y="-216.75" font-family="Helvetica,sans-Serif" font-size="10.00">StrengthOverTime</text>
<text xml:space="preserve" text-anchor="start" x="268.75" y="-200" font-family="Helvetica,sans-Serif" font-size="10.00">+</text>
<text xml:space="preserve" text-anchor="start" x="281" y="-200" font-family="Helvetica,sans-Serif" font-size="10.00">FRootMotionSource_Constant</text>
<text xml:space="preserve" text-anchor="start" x="281" y="-187.25" font-family="Helvetica,sans-Serif" font-size="10.00">Force()</text>
<text xml:space="preserve" text-anchor="start" x="268.75" y="-170.5" font-family="Helvetica,sans-Serif" font-size="10.00">+</text>
<text xml:space="preserve" text-anchor="start" x="281" y="-170.5" font-family="Helvetica,sans-Serif" font-size="10.00">~FRootMotionSource</text>
<text xml:space="preserve" text-anchor="start" x="281" y="-157.75" font-family="Helvetica,sans-Serif" font-size="10.00">_ConstantForce()</text>
<text xml:space="preserve" text-anchor="start" x="268.75" y="-141" font-family="Helvetica,sans-Serif" font-size="10.00">+</text>
<text xml:space="preserve" text-anchor="start" x="281" y="-141" font-family="Helvetica,sans-Serif" font-size="10.00">Clone()</text>
<text xml:space="preserve" text-anchor="start" x="268.75" y="-124.25" font-family="Helvetica,sans-Serif" font-size="10.00">+</text>
<text xml:space="preserve" text-anchor="start" x="281" y="-124.25" font-family="Helvetica,sans-Serif" font-size="10.00">Matches()</text>
<text xml:space="preserve" text-anchor="start" x="268.75" y="-107.5" font-family="Helvetica,sans-Serif" font-size="10.00">+</text>
<text xml:space="preserve" text-anchor="start" x="281" y="-107.5" font-family="Helvetica,sans-Serif" font-size="10.00">MatchesAndHasSameState()</text>
<text xml:space="preserve" text-anchor="start" x="268.75" y="-90.75" font-family="Helvetica,sans-Serif" font-size="10.00">+</text>
<text xml:space="preserve" text-anchor="start" x="281" y="-90.75" font-family="Helvetica,sans-Serif" font-size="10.00">UpdateStateFrom()</text>
<text xml:space="preserve" text-anchor="start" x="268.75" y="-74" font-family="Helvetica,sans-Serif" font-size="10.00">+</text>
<text xml:space="preserve" text-anchor="start" x="281" y="-74" font-family="Helvetica,sans-Serif" font-size="10.00">PrepareRootMotion()</text>
<text xml:space="preserve" text-anchor="start" x="268.75" y="-57.25" font-family="Helvetica,sans-Serif" font-size="10.00">+</text>
<text xml:space="preserve" text-anchor="start" x="281" y="-57.25" font-family="Helvetica,sans-Serif" font-size="10.00">NetSerialize()</text>
<text xml:space="preserve" text-anchor="start" x="268.75" y="-40.5" font-family="Helvetica,sans-Serif" font-size="10.00">+</text>
<text xml:space="preserve" text-anchor="start" x="281" y="-40.5" font-family="Helvetica,sans-Serif" font-size="10.00">GetScriptStruct()</text>
<text xml:space="preserve" text-anchor="start" x="268.75" y="-23.75" font-family="Helvetica,sans-Serif" font-size="10.00">+</text>
<text xml:space="preserve" text-anchor="start" x="281" y="-23.75" font-family="Helvetica,sans-Serif" font-size="10.00">ToSimpleString()</text>
<text xml:space="preserve" text-anchor="start" x="268.75" y="-7" font-family="Helvetica,sans-Serif" font-size="10.00">+</text>
<text xml:space="preserve" text-anchor="start" x="281" y="-7" font-family="Helvetica,sans-Serif" font-size="10.00">AddReferencedObjects()</text>
<polygon fill="#666666" stroke="#666666" points="264.75,-245.25 264.75,-245.25 429,-245.25 429,-245.25 264.75,-245.25"/>
<polygon fill="#666666" stroke="#666666" points="264.75,-211.75 264.75,-211.75 279,-211.75 279,-211.75 264.75,-211.75"/>
<polygon fill="#666666" stroke="#666666" points="279,-211.75 279,-211.75 429,-211.75 429,-211.75 279,-211.75"/>
<polygon fill="none" stroke="#666666" points="264.75,0 264.75,-276.75 429,-276.75 429,0 264.75,0"/>
</a>
</g>
</g>
<!-- Node2 -->
<g id="Node000002" class="node">
<title>Node2</title>
<g id="a_Node000002"><a xlink:href="structFRootMotionSource.html" target="_top" xlink:title=" ">
<polygon fill="white" stroke="none" points="426.75,-703 267,-703 267,-313.75 426.75,-313.75 426.75,-703"/>
<text xml:space="preserve" text-anchor="start" x="299.25" y="-689.25" font-family="Helvetica,sans-Serif" font-size="10.00">FRootMotionSource</text>
<text xml:space="preserve" text-anchor="start" x="271" y="-672.5" font-family="Helvetica,sans-Serif" font-size="10.00">+</text>
<text xml:space="preserve" text-anchor="start" x="283.25" y="-672.5" font-family="Helvetica,sans-Serif" font-size="10.00">Priority</text>
<text xml:space="preserve" text-anchor="start" x="271" y="-655.75" font-family="Helvetica,sans-Serif" font-size="10.00">+</text>
<text xml:space="preserve" text-anchor="start" x="283.25" y="-655.75" font-family="Helvetica,sans-Serif" font-size="10.00">LocalID</text>
<text xml:space="preserve" text-anchor="start" x="271" y="-639" font-family="Helvetica,sans-Serif" font-size="10.00">+</text>
<text xml:space="preserve" text-anchor="start" x="283.25" y="-639" font-family="Helvetica,sans-Serif" font-size="10.00">InstanceName</text>
<text xml:space="preserve" text-anchor="start" x="271" y="-622.25" font-family="Helvetica,sans-Serif" font-size="10.00">+</text>
<text xml:space="preserve" text-anchor="start" x="283.25" y="-622.25" font-family="Helvetica,sans-Serif" font-size="10.00">StartTime</text>
<text xml:space="preserve" text-anchor="start" x="271" y="-605.5" font-family="Helvetica,sans-Serif" font-size="10.00">+</text>
<text xml:space="preserve" text-anchor="start" x="283.25" y="-605.5" font-family="Helvetica,sans-Serif" font-size="10.00">CurrentTime</text>
<text xml:space="preserve" text-anchor="start" x="271" y="-588.75" font-family="Helvetica,sans-Serif" font-size="10.00">+</text>
<text xml:space="preserve" text-anchor="start" x="283.25" y="-588.75" font-family="Helvetica,sans-Serif" font-size="10.00">PreviousTime</text>
<text xml:space="preserve" text-anchor="start" x="271" y="-572" font-family="Helvetica,sans-Serif" font-size="10.00">+</text>
<text xml:space="preserve" text-anchor="start" x="283.25" y="-572" font-family="Helvetica,sans-Serif" font-size="10.00">Duration</text>
<text xml:space="preserve" text-anchor="start" x="271" y="-555.25" font-family="Helvetica,sans-Serif" font-size="10.00">+</text>
<text xml:space="preserve" text-anchor="start" x="283.25" y="-555.25" font-family="Helvetica,sans-Serif" font-size="10.00">AccumulateMode</text>
<text xml:space="preserve" text-anchor="start" x="271" y="-538.5" font-family="Helvetica,sans-Serif" font-size="10.00">+</text>
<text xml:space="preserve" text-anchor="start" x="283.25" y="-538.5" font-family="Helvetica,sans-Serif" font-size="10.00">bInLocalSpace</text>
<text xml:space="preserve" text-anchor="start" x="271" y="-521.75" font-family="Helvetica,sans-Serif" font-size="10.00">+</text>
<text xml:space="preserve" text-anchor="start" x="283.25" y="-521.75" font-family="Helvetica,sans-Serif" font-size="10.00">bNeedsSimulatedCatchup</text>
<text xml:space="preserve" text-anchor="start" x="271" y="-505" font-family="Helvetica,sans-Serif" font-size="10.00">+</text>
<text xml:space="preserve" text-anchor="start" x="283.25" y="-505" font-family="Helvetica,sans-Serif" font-size="10.00">bSimulatedNeedsSmoothing</text>
<text xml:space="preserve" text-anchor="start" x="271" y="-488.25" font-family="Helvetica,sans-Serif" font-size="10.00">+</text>
<text xml:space="preserve" text-anchor="start" x="283.25" y="-488.25" font-family="Helvetica,sans-Serif" font-size="10.00">FRootMotionSource()</text>
<text xml:space="preserve" text-anchor="start" x="271" y="-471.5" font-family="Helvetica,sans-Serif" font-size="10.00">+</text>
<text xml:space="preserve" text-anchor="start" x="283.25" y="-471.5" font-family="Helvetica,sans-Serif" font-size="10.00">~FRootMotionSource()</text>
<text xml:space="preserve" text-anchor="start" x="271" y="-454.75" font-family="Helvetica,sans-Serif" font-size="10.00">+</text>
<text xml:space="preserve" text-anchor="start" x="283.25" y="-454.75" font-family="Helvetica,sans-Serif" font-size="10.00">GetTime()</text>
<text xml:space="preserve" text-anchor="start" x="271" y="-438" font-family="Helvetica,sans-Serif" font-size="10.00">+</text>
<text xml:space="preserve" text-anchor="start" x="283.25" y="-438" font-family="Helvetica,sans-Serif" font-size="10.00">GetStartTime()</text>
<text xml:space="preserve" text-anchor="start" x="271" y="-421.25" font-family="Helvetica,sans-Serif" font-size="10.00">+</text>
<text xml:space="preserve" text-anchor="start" x="283.25" y="-421.25" font-family="Helvetica,sans-Serif" font-size="10.00">IsStartTimeValid()</text>
<text xml:space="preserve" text-anchor="start" x="271" y="-404.5" font-family="Helvetica,sans-Serif" font-size="10.00">+</text>
<text xml:space="preserve" text-anchor="start" x="283.25" y="-404.5" font-family="Helvetica,sans-Serif" font-size="10.00">GetDuration()</text>
<text xml:space="preserve" text-anchor="start" x="271" y="-387.75" font-family="Helvetica,sans-Serif" font-size="10.00">+</text>
<text xml:space="preserve" text-anchor="start" x="283.25" y="-387.75" font-family="Helvetica,sans-Serif" font-size="10.00">IsTimeOutEnabled()</text>
<text xml:space="preserve" text-anchor="start" x="271" y="-371" font-family="Helvetica,sans-Serif" font-size="10.00">+</text>
<text xml:space="preserve" text-anchor="start" x="283.25" y="-371" font-family="Helvetica,sans-Serif" font-size="10.00">Clone()</text>
<text xml:space="preserve" text-anchor="start" x="271" y="-354.25" font-family="Helvetica,sans-Serif" font-size="10.00">+</text>
<text xml:space="preserve" text-anchor="start" x="283.25" y="-354.25" font-family="Helvetica,sans-Serif" font-size="10.00">Matches()</text>
<text xml:space="preserve" text-anchor="start" x="271" y="-337.5" font-family="Helvetica,sans-Serif" font-size="10.00">+</text>
<text xml:space="preserve" text-anchor="start" x="283.25" y="-337.5" font-family="Helvetica,sans-Serif" font-size="10.00">MatchesAndHasSameState()</text>
<text xml:space="preserve" text-anchor="start" x="283.25" y="-320.75" font-family="Helvetica,sans-Serif" font-size="10.00">and 9 more...</text>
<polygon fill="#666666" stroke="#666666" points="267,-684.25 267,-684.25 426.75,-684.25 426.75,-684.25 267,-684.25"/>
<polygon fill="#666666" stroke="#666666" points="267,-500 267,-500 281.25,-500 281.25,-500 267,-500"/>
<polygon fill="#666666" stroke="#666666" points="281.25,-500 281.25,-500 426.75,-500 426.75,-500 281.25,-500"/>
<polygon fill="none" stroke="#666666" points="267,-313.75 267,-703 426.75,-703 426.75,-313.75 267,-313.75"/>
</a>
</g>
</g>
<!-- Node2&#45;&gt;Node1 -->
<g id="edge1_Node000001_Node000002" class="edge">
<title>Node2&#45;&gt;Node1</title>
<g id="a_edge1_Node000001_Node000002"><a xlink:title=" ">
<path fill="none" stroke="#63b8ff" d="M346.88,-302.48C346.88,-293.78 346.88,-285.15 346.88,-276.65"/>
<polygon fill="none" stroke="#63b8ff" points="343.38,-302.43 346.88,-312.43 350.38,-302.43 343.38,-302.43"/>
</a>
</g>
</g>
<!-- Node3 -->
<g id="Node000003" class="node">
<title>Node3</title>
<g id="a_Node000003"><a xlink:href="structFRootMotionSourceStatus.html" target="_top" xlink:title=" ">
<polygon fill="white" stroke="none" points="153.75,-979.5 0,-979.5 0,-858.25 153.75,-858.25 153.75,-979.5"/>
<text xml:space="preserve" text-anchor="start" x="13.88" y="-965.75" font-family="Helvetica,sans-Serif" font-size="10.00">FRootMotionSourceStatus</text>
<text xml:space="preserve" text-anchor="start" x="4" y="-949" font-family="Helvetica,sans-Serif" font-size="10.00">+</text>
<text xml:space="preserve" text-anchor="start" x="16.25" y="-949" font-family="Helvetica,sans-Serif" font-size="10.00">Flags</text>
<text xml:space="preserve" text-anchor="start" x="4" y="-932.25" font-family="Helvetica,sans-Serif" font-size="10.00">+</text>
<text xml:space="preserve" text-anchor="start" x="16.25" y="-932.25" font-family="Helvetica,sans-Serif" font-size="10.00">FRootMotionSourceStatus()</text>
<text xml:space="preserve" text-anchor="start" x="4" y="-915.5" font-family="Helvetica,sans-Serif" font-size="10.00">+</text>
<text xml:space="preserve" text-anchor="start" x="16.25" y="-915.5" font-family="Helvetica,sans-Serif" font-size="10.00">Clear()</text>
<text xml:space="preserve" text-anchor="start" x="4" y="-898.75" font-family="Helvetica,sans-Serif" font-size="10.00">+</text>
<text xml:space="preserve" text-anchor="start" x="16.25" y="-898.75" font-family="Helvetica,sans-Serif" font-size="10.00">SetFlag()</text>
<text xml:space="preserve" text-anchor="start" x="4" y="-882" font-family="Helvetica,sans-Serif" font-size="10.00">+</text>
<text xml:space="preserve" text-anchor="start" x="16.25" y="-882" font-family="Helvetica,sans-Serif" font-size="10.00">UnSetFlag()</text>
<text xml:space="preserve" text-anchor="start" x="4" y="-865.25" font-family="Helvetica,sans-Serif" font-size="10.00">+</text>
<text xml:space="preserve" text-anchor="start" x="16.25" y="-865.25" font-family="Helvetica,sans-Serif" font-size="10.00">HasFlag()</text>
<polygon fill="#666666" stroke="#666666" points="0,-960.75 0,-960.75 153.75,-960.75 153.75,-960.75 0,-960.75"/>
<polygon fill="#666666" stroke="#666666" points="0,-944 0,-944 14.25,-944 14.25,-944 0,-944"/>
<polygon fill="#666666" stroke="#666666" points="14.25,-944 14.25,-944 153.75,-944 153.75,-944 14.25,-944"/>
<polygon fill="none" stroke="#666666" points="0,-858.25 0,-979.5 153.75,-979.5 153.75,-858.25 0,-858.25"/>
</a>
</g>
</g>
<!-- Node3&#45;&gt;Node2 -->
<g id="edge2_Node000002_Node000003" class="edge">
<title>Node3&#45;&gt;Node2</title>
<g id="a_edge2_Node000002_Node000003"><a xlink:title=" ">
<path fill="none" stroke="#63b8ff" d="M106.14,-858.53C121.93,-827.84 142.34,-790.13 162.88,-757.75 192.28,-711.38 227.58,-662.41 259.35,-620.31"/>
<polygon fill="none" stroke="#63b8ff" points="259.34,-620.33 259.78,-613.13 266.59,-610.76 266.15,-617.96 259.34,-620.33"/>
</a>
</g>
<text xml:space="preserve" text-anchor="start" x="188.91" y="-727" font-family="Helvetica,sans-Serif" font-size="10.00" fill="grey">+Status</text>
</g>
<!-- Node4 -->
<g id="Node000004" class="node">
<title>Node4</title>
<g id="a_Node000004"><a xlink:href="structFRootMotionSourceSettings.html" target="_top" xlink:title=" ">
<polygon fill="white" stroke="none" points="334.25,-987.88 171.5,-987.88 171.5,-849.88 334.25,-849.88 334.25,-987.88"/>
<text xml:space="preserve" text-anchor="start" x="185.38" y="-974.12" font-family="Helvetica,sans-Serif" font-size="10.00">FRootMotionSourceSettings</text>
<text xml:space="preserve" text-anchor="start" x="175.5" y="-957.38" font-family="Helvetica,sans-Serif" font-size="10.00">+</text>
<text xml:space="preserve" text-anchor="start" x="187.75" y="-957.38" font-family="Helvetica,sans-Serif" font-size="10.00">Flags</text>
<text xml:space="preserve" text-anchor="start" x="175.5" y="-940.62" font-family="Helvetica,sans-Serif" font-size="10.00">+</text>
<text xml:space="preserve" text-anchor="start" x="187.75" y="-940.62" font-family="Helvetica,sans-Serif" font-size="10.00">FRootMotionSourceSettings()</text>
<text xml:space="preserve" text-anchor="start" x="175.5" y="-923.88" font-family="Helvetica,sans-Serif" font-size="10.00">+</text>
<text xml:space="preserve" text-anchor="start" x="187.75" y="-923.88" font-family="Helvetica,sans-Serif" font-size="10.00">Clear()</text>
<text xml:space="preserve" text-anchor="start" x="175.5" y="-907.12" font-family="Helvetica,sans-Serif" font-size="10.00">+</text>
<text xml:space="preserve" text-anchor="start" x="187.75" y="-907.12" font-family="Helvetica,sans-Serif" font-size="10.00">SetFlag()</text>
<text xml:space="preserve" text-anchor="start" x="175.5" y="-890.38" font-family="Helvetica,sans-Serif" font-size="10.00">+</text>
<text xml:space="preserve" text-anchor="start" x="187.75" y="-890.38" font-family="Helvetica,sans-Serif" font-size="10.00">UnSetFlag()</text>
<text xml:space="preserve" text-anchor="start" x="175.5" y="-873.62" font-family="Helvetica,sans-Serif" font-size="10.00">+</text>
<text xml:space="preserve" text-anchor="start" x="187.75" y="-873.62" font-family="Helvetica,sans-Serif" font-size="10.00">HasFlag()</text>
<text xml:space="preserve" text-anchor="start" x="175.5" y="-856.88" font-family="Helvetica,sans-Serif" font-size="10.00">+</text>
<text xml:space="preserve" text-anchor="start" x="187.75" y="-856.88" font-family="Helvetica,sans-Serif" font-size="10.00">operator+=()</text>
<polygon fill="#666666" stroke="#666666" points="171.5,-969.12 171.5,-969.12 334.25,-969.12 334.25,-969.12 171.5,-969.12"/>
<polygon fill="#666666" stroke="#666666" points="171.5,-952.38 171.5,-952.38 185.75,-952.38 185.75,-952.38 171.5,-952.38"/>
<polygon fill="#666666" stroke="#666666" points="185.75,-952.38 185.75,-952.38 334.25,-952.38 334.25,-952.38 185.75,-952.38"/>
<polygon fill="none" stroke="#666666" points="171.5,-849.88 171.5,-987.88 334.25,-987.88 334.25,-849.88 171.5,-849.88"/>
</a>
</g>
</g>
<!-- Node4&#45;&gt;Node2 -->
<g id="edge3_Node000002_Node000004" class="edge">
<title>Node4&#45;&gt;Node2</title>
<g id="a_edge3_Node000002_Node000004"><a xlink:title=" ">
<path fill="none" stroke="#63b8ff" d="M268.5,-849.96C277.1,-812.6 288.27,-764.05 299.48,-715.36"/>
<polygon fill="none" stroke="#63b8ff" points="299.51,-715.22 296.96,-708.48 302.2,-703.53 304.75,-710.27 299.51,-715.22"/>
</a>
</g>
<text xml:space="preserve" text-anchor="start" x="300.06" y="-727" font-family="Helvetica,sans-Serif" font-size="10.00" fill="grey">+Settings</text>
</g>
<!-- Node5 -->
<g id="Node000005" class="node">
<title>Node5</title>
<g id="a_Node000005"><a xlink:href="structFRootMotionMovementParams.html" target="_top" xlink:title=" ">
<polygon fill="white" stroke="none" points="531.5,-1080 352.25,-1080 352.25,-757.75 531.5,-757.75 531.5,-1080"/>
<text xml:space="preserve" text-anchor="start" x="366.12" y="-1066.25" font-family="Helvetica,sans-Serif" font-size="10.00">FRootMotionMovementParams</text>
<text xml:space="preserve" text-anchor="start" x="356.25" y="-1049.5" font-family="Helvetica,sans-Serif" font-size="10.00">+</text>
<text xml:space="preserve" text-anchor="start" x="368.5" y="-1049.5" font-family="Helvetica,sans-Serif" font-size="10.00">bHasRootMotion</text>
<text xml:space="preserve" text-anchor="start" x="356.25" y="-1032.75" font-family="Helvetica,sans-Serif" font-size="10.00">+</text>
<text xml:space="preserve" text-anchor="start" x="368.5" y="-1032.75" font-family="Helvetica,sans-Serif" font-size="10.00">BlendWeight</text>
<text xml:space="preserve" text-anchor="start" x="358.5" y="-1016" font-family="Helvetica,sans-Serif" font-size="10.00">&#45;</text>
<text xml:space="preserve" text-anchor="start" x="368.5" y="-1016" font-family="Helvetica,sans-Serif" font-size="10.00">RootMotionTransform</text>
<text xml:space="preserve" text-anchor="start" x="358.5" y="-999.25" font-family="Helvetica,sans-Serif" font-size="10.00">&#45;</text>
<text xml:space="preserve" text-anchor="start" x="368.5" y="-999.25" font-family="Helvetica,sans-Serif" font-size="10.00">RootMotionScale</text>
<text xml:space="preserve" text-anchor="start" x="356.25" y="-982.5" font-family="Helvetica,sans-Serif" font-size="10.00">+</text>
<text xml:space="preserve" text-anchor="start" x="368.5" y="-982.5" font-family="Helvetica,sans-Serif" font-size="10.00">FRootMotionMovementParams()</text>
<text xml:space="preserve" text-anchor="start" x="356.25" y="-965.75" font-family="Helvetica,sans-Serif" font-size="10.00">+</text>
<text xml:space="preserve" text-anchor="start" x="368.5" y="-965.75" font-family="Helvetica,sans-Serif" font-size="10.00">FRootMotionMovementParams()</text>
<text xml:space="preserve" text-anchor="start" x="356.25" y="-949" font-family="Helvetica,sans-Serif" font-size="10.00">+</text>
<text xml:space="preserve" text-anchor="start" x="368.5" y="-949" font-family="Helvetica,sans-Serif" font-size="10.00">FRootMotionMovementParams()</text>
<text xml:space="preserve" text-anchor="start" x="356.25" y="-932.25" font-family="Helvetica,sans-Serif" font-size="10.00">+</text>
<text xml:space="preserve" text-anchor="start" x="368.5" y="-932.25" font-family="Helvetica,sans-Serif" font-size="10.00">operator=()</text>
<text xml:space="preserve" text-anchor="start" x="356.25" y="-915.5" font-family="Helvetica,sans-Serif" font-size="10.00">+</text>
<text xml:space="preserve" text-anchor="start" x="368.5" y="-915.5" font-family="Helvetica,sans-Serif" font-size="10.00">Set()</text>
<text xml:space="preserve" text-anchor="start" x="356.25" y="-898.75" font-family="Helvetica,sans-Serif" font-size="10.00">+</text>
<text xml:space="preserve" text-anchor="start" x="368.5" y="-898.75" font-family="Helvetica,sans-Serif" font-size="10.00">Accumulate()</text>
<text xml:space="preserve" text-anchor="start" x="356.25" y="-882" font-family="Helvetica,sans-Serif" font-size="10.00">+</text>
<text xml:space="preserve" text-anchor="start" x="368.5" y="-882" font-family="Helvetica,sans-Serif" font-size="10.00">Accumulate()</text>
<text xml:space="preserve" text-anchor="start" x="356.25" y="-865.25" font-family="Helvetica,sans-Serif" font-size="10.00">+</text>
<text xml:space="preserve" text-anchor="start" x="368.5" y="-865.25" font-family="Helvetica,sans-Serif" font-size="10.00">AccumulateWithBlend()</text>
<text xml:space="preserve" text-anchor="start" x="356.25" y="-848.5" font-family="Helvetica,sans-Serif" font-size="10.00">+</text>
<text xml:space="preserve" text-anchor="start" x="368.5" y="-848.5" font-family="Helvetica,sans-Serif" font-size="10.00">AccumulateWithBlend()</text>
<text xml:space="preserve" text-anchor="start" x="356.25" y="-831.75" font-family="Helvetica,sans-Serif" font-size="10.00">+</text>
<text xml:space="preserve" text-anchor="start" x="368.5" y="-831.75" font-family="Helvetica,sans-Serif" font-size="10.00">Clear()</text>
<text xml:space="preserve" text-anchor="start" x="356.25" y="-815" font-family="Helvetica,sans-Serif" font-size="10.00">+</text>
<text xml:space="preserve" text-anchor="start" x="368.5" y="-815" font-family="Helvetica,sans-Serif" font-size="10.00">MakeUpToFullWeight()</text>
<text xml:space="preserve" text-anchor="start" x="356.25" y="-798.25" font-family="Helvetica,sans-Serif" font-size="10.00">+</text>
<text xml:space="preserve" text-anchor="start" x="368.5" y="-798.25" font-family="Helvetica,sans-Serif" font-size="10.00">ConsumeRootMotion()</text>
<text xml:space="preserve" text-anchor="start" x="356.25" y="-781.5" font-family="Helvetica,sans-Serif" font-size="10.00">+</text>
<text xml:space="preserve" text-anchor="start" x="368.5" y="-781.5" font-family="Helvetica,sans-Serif" font-size="10.00">GetRootMotionTransform()</text>
<text xml:space="preserve" text-anchor="start" x="356.25" y="-764.75" font-family="Helvetica,sans-Serif" font-size="10.00">+</text>
<text xml:space="preserve" text-anchor="start" x="368.5" y="-764.75" font-family="Helvetica,sans-Serif" font-size="10.00">ScaleRootMotionTranslation()</text>
<polygon fill="#666666" stroke="#666666" points="352.25,-1061.25 352.25,-1061.25 531.5,-1061.25 531.5,-1061.25 352.25,-1061.25"/>
<polygon fill="#666666" stroke="#666666" points="352.25,-994.25 352.25,-994.25 366.5,-994.25 366.5,-994.25 352.25,-994.25"/>
<polygon fill="#666666" stroke="#666666" points="366.5,-994.25 366.5,-994.25 531.5,-994.25 531.5,-994.25 366.5,-994.25"/>
<polygon fill="none" stroke="#666666" points="352.25,-757.75 352.25,-1080 531.5,-1080 531.5,-757.75 352.25,-757.75"/>
</a>
</g>
</g>
<!-- Node5&#45;&gt;Node2 -->
<g id="edge4_Node000002_Node000005" class="edge">
<title>Node5&#45;&gt;Node2</title>
<g id="a_edge4_Node000002_Node000005"><a xlink:title=" ">
<path fill="none" stroke="#63b8ff" d="M404.67,-757.89C401.41,-743.88 398.08,-729.58 394.76,-715.26"/>
<polygon fill="none" stroke="#63b8ff" points="394.75,-715.25 389.5,-710.32 392.04,-703.57 397.29,-708.5 394.75,-715.25"/>
</a>
</g>
<text xml:space="preserve" text-anchor="start" x="403.06" y="-727" font-family="Helvetica,sans-Serif" font-size="10.00" fill="grey">+RootMotionParams</text>
</g>
<!-- Node6 -->
<g id="Node000006" class="node">
<title>Node6</title>
<g id="a_Node000006"><a xlink:href="structFRootMotionFinishVelocitySettings.html" target="_top" xlink:title=" ">
<polygon fill="white" stroke="none" points="699.88,-975.5 549.88,-975.5 549.88,-862.25 699.88,-862.25 699.88,-975.5"/>
<text xml:space="preserve" text-anchor="start" x="560" y="-961.75" font-family="Helvetica,sans-Serif" font-size="10.00">FRootMotionFinishVelocity</text>
<text xml:space="preserve" text-anchor="start" x="605" y="-949" font-family="Helvetica,sans-Serif" font-size="10.00">Settings</text>
<text xml:space="preserve" text-anchor="start" x="553.88" y="-932.25" font-family="Helvetica,sans-Serif" font-size="10.00">+</text>
<text xml:space="preserve" text-anchor="start" x="566.12" y="-932.25" font-family="Helvetica,sans-Serif" font-size="10.00">Mode</text>
<text xml:space="preserve" text-anchor="start" x="553.88" y="-915.5" font-family="Helvetica,sans-Serif" font-size="10.00">+</text>
<text xml:space="preserve" text-anchor="start" x="566.12" y="-915.5" font-family="Helvetica,sans-Serif" font-size="10.00">ClampVelocity</text>
<text xml:space="preserve" text-anchor="start" x="553.88" y="-898.75" font-family="Helvetica,sans-Serif" font-size="10.00">+</text>
<text xml:space="preserve" text-anchor="start" x="566.12" y="-898.75" font-family="Helvetica,sans-Serif" font-size="10.00">SetVelocity</text>
<text xml:space="preserve" text-anchor="start" x="553.88" y="-882" font-family="Helvetica,sans-Serif" font-size="10.00">+</text>
<text xml:space="preserve" text-anchor="start" x="566.12" y="-882" font-family="Helvetica,sans-Serif" font-size="10.00">FRootMotionFinishVelocity</text>
<text xml:space="preserve" text-anchor="start" x="566.12" y="-869.25" font-family="Helvetica,sans-Serif" font-size="10.00">Settings()</text>
<polygon fill="#666666" stroke="#666666" points="549.88,-944 549.88,-944 699.88,-944 699.88,-944 549.88,-944"/>
<polygon fill="#666666" stroke="#666666" points="549.88,-893.75 549.88,-893.75 564.12,-893.75 564.12,-893.75 549.88,-893.75"/>
<polygon fill="#666666" stroke="#666666" points="564.12,-893.75 564.12,-893.75 699.88,-893.75 699.88,-893.75 564.12,-893.75"/>
<polygon fill="none" stroke="#666666" points="549.88,-862.25 549.88,-975.5 699.88,-975.5 699.88,-862.25 549.88,-862.25"/>
</a>
</g>
</g>
<!-- Node6&#45;&gt;Node2 -->
<g id="edge5_Node000002_Node000006" class="edge">
<title>Node6&#45;&gt;Node2</title>
<g id="a_edge5_Node000002_Node000006"><a xlink:title=" ">
<path fill="none" stroke="#63b8ff" d="M598.85,-862.39C583.34,-830.92 562.49,-791.25 540.88,-757.75 508.95,-708.28 469.58,-656.5 434.67,-613.11"/>
<polygon fill="none" stroke="#63b8ff" points="434.71,-613.16 427.83,-611.01 427.16,-603.83 434.05,-605.98 434.71,-613.16"/>
</a>
</g>
<text xml:space="preserve" text-anchor="start" x="529.78" y="-727" font-family="Helvetica,sans-Serif" font-size="10.00" fill="grey">+FinishVelocityParams</text>
</g>
</g>
</svg>
