<?xml version="1.0" encoding="UTF-8" standalone="no"?>
<!DOCTYPE svg PUBLIC "-//W3C//DTD SVG 1.1//EN"
 "http://www.w3.org/Graphics/SVG/1.1/DTD/svg11.dtd">
<!-- Generated by graphviz version 14.1.4 (0)
 -->
<!-- Title: FCharacterMovementComponentPostPhysicsTickFunction Pages: 1 -->
<svg width="178pt" height="199pt"
 viewBox="0.00 0.00 178.00 199.00" xmlns="http://www.w3.org/2000/svg" xmlns:xlink="http://www.w3.org/1999/xlink">
<g id="graph0" class="graph" transform="scale(1 1) rotate(0) translate(4 194.75)">
<title>FCharacterMovementComponentPostPhysicsTickFunction</title>
<!-- Node1 -->
<g id="Node000001" class="node">
<title>Node1</title>
<g id="a_Node000001"><a xlink:title=" ">
<polygon fill="#999999" stroke="none" points="170,-100.5 0,-100.5 0,0 170,0 170,-100.5"/>
<text xml:space="preserve" text-anchor="start" x="4" y="-86.75" font-family="Helvetica,sans-Serif" font-size="10.00">FCharacterMovementComponent</text>
<text xml:space="preserve" text-anchor="start" x="25.75" y="-74" font-family="Helvetica,sans-Serif" font-size="10.00">PostPhysicsTickFunction</text>
<text xml:space="preserve" text-anchor="start" x="15.75" y="-57.25" font-family="Helvetica,sans-Serif" font-size="10.00">+</text>
<text xml:space="preserve" text-anchor="start" x="39.75" y="-57.25" font-family="Helvetica,sans-Serif" font-size="10.00">Target</text>
<text xml:space="preserve" text-anchor="start" x="15.75" y="-40.5" font-family="Helvetica,sans-Serif" font-size="10.00">+</text>
<text xml:space="preserve" text-anchor="start" x="39.75" y="-40.5" font-family="Helvetica,sans-Serif" font-size="10.00">ExecuteTick()</text>
<text xml:space="preserve" text-anchor="start" x="15.75" y="-23.75" font-family="Helvetica,sans-Serif" font-size="10.00">+</text>
<text xml:space="preserve" text-anchor="start" x="39.75" y="-23.75" font-family="Helvetica,sans-Serif" font-size="10.00">DiagnosticMessage()</text>
<text xml:space="preserve" text-anchor="start" x="15.75" y="-7" font-family="Helvetica,sans-Serif" font-size="10.00">+</text>
<text xml:space="preserve" text-anchor="start" x="39.75" y="-7" font-family="Helvetica,sans-Serif" font-size="10.00">DiagnosticContext()</text>
<polygon fill="#666666" stroke="#666666" points="0,-69 0,-69 170,-69 170,-69 0,-69"/>
<polygon fill="#666666" stroke="#666666" points="0,-52.25 0,-52.25 37.75,-52.25 37.75,-52.25 0,-52.25"/>
<polygon fill="#666666" stroke="#666666" points="37.75,-52.25 37.75,-52.25 170,-52.25 170,-52.25 37.75,-52.25"/>
<polygon fill="none" stroke="#666666" points="0,0 0,-100.5 170,-100.5 170,0 0,0"/>
</a>
</g>
</g>
<!-- Node2 -->
<g id="Node000002" class="node">
<title>Node2</title>
<g id="a_Node000002"><a xlink:title=" ">
<polygon fill="white" stroke="none" points="122.38,-190.75 47.62,-190.75 47.62,-136.5 122.38,-136.5 122.38,-190.75"/>
<text xml:space="preserve" text-anchor="start" x="51.62" y="-177" font-family="Helvetica,sans-Serif" font-size="10.00">FTickFunction</text>
<text xml:space="preserve" text-anchor="start" x="82" y="-160.25" font-family="Helvetica,sans-Serif" font-size="10.00"> </text>
<text xml:space="preserve" text-anchor="start" x="82" y="-143.5" font-family="Helvetica,sans-Serif" font-size="10.00"> </text>
<polygon fill="#666666" stroke="#666666" points="47.62,-172 47.62,-172 122.38,-172 122.38,-172 47.62,-172"/>
<polygon fill="#666666" stroke="#666666" points="47.62,-155.25 47.62,-155.25 122.38,-155.25 122.38,-155.25 47.62,-155.25"/>
<polygon fill="none" stroke="#666666" points="47.62,-136.5 47.62,-190.75 122.38,-190.75 122.38,-136.5 47.62,-136.5"/>
</a>
</g>
</g>
<!-- Node2&#45;&gt;Node1 -->
<g id="edge1_Node000001_Node000002" class="edge">
<title>Node2&#45;&gt;Node1</title>
<g id="a_edge1_Node000001_Node000002"><a xlink:title=" ">
<path fill="none" stroke="#63b8ff" d="M85,-125.01C85,-117.1 85,-108.64 85,-100.37"/>
<polygon fill="none" stroke="#63b8ff" points="81.5,-125 85,-135 88.5,-125 81.5,-125"/>
</a>
</g>
</g>
</g>
</svg>
