<?xml version="1.0" encoding="UTF-8" standalone="no"?>
<!DOCTYPE svg PUBLIC "-//W3C//DTD SVG 1.1//EN"
 "http://www.w3.org/Graphics/SVG/1.1/DTD/svg11.dtd">
<!-- Generated by graphviz version 14.1.4 (0)
 -->
<!-- Title: FSpline::FromSplineCurves Pages: 1 -->
<svg width="285pt" height="47pt"
 viewBox="0.00 0.00 285.00 47.00" xmlns="http://www.w3.org/2000/svg" xmlns:xlink="http://www.w3.org/1999/xlink">
<g id="graph0" class="graph" transform="scale(1 1) rotate(0) translate(4 42.75)">
<title>FSpline::FromSplineCurves</title>
<!-- Node1 -->
<g id="Node000001" class="node">
<title>Node1</title>
<g id="a_Node000001"><a xlink:title=" ">
<polygon fill="#999999" stroke="#666666" points="146.5,-20.75 0,-20.75 0,0 146.5,0 146.5,-20.75"/>
<text xml:space="preserve" text-anchor="middle" x="73.25" y="-7.25" font-family="Helvetica,sans-Serif" font-size="10.00">FSpline::FromSplineCurves</text>
</a>
</g>
</g>
<!-- Node1&#45;&gt;Node1 -->
<g id="edge1_Node000001_Node000001" class="edge">
<title>Node1&#45;&gt;Node1</title>
<g id="a_edge1_Node000001_Node000001"><a xlink:title=" ">
<path fill="none" stroke="#63b8ff" d="M48.07,-21.15C38,-29.81 46.39,-38.75 73.25,-38.75 87.94,-38.75 97.1,-36.08 100.74,-32.24"/>
<polygon fill="#63b8ff" stroke="#63b8ff" points="104.21,-31.7 98.74,-22.63 97.36,-33.13 104.21,-31.7"/>
</a>
</g>
</g>
<!-- Node2 -->
<g id="Node000002" class="node">
<title>Node2</title>
<g id="a_Node000002"><a xlink:href="structFSpline.html#a428a3e28de685f1afd11967c09bd72ba" target="_top" xlink:title=" ">
<polygon fill="white" stroke="#666666" points="276.5,-20.75 182.5,-20.75 182.5,0 276.5,0 276.5,-20.75"/>
<text xml:space="preserve" text-anchor="middle" x="229.5" y="-7.25" font-family="Helvetica,sans-Serif" font-size="10.00">FSpline::FSpline</text>
</a>
</g>
</g>
<!-- Node1&#45;&gt;Node2 -->
<g id="edge2_Node000001_Node000002" class="edge">
<title>Node1&#45;&gt;Node2</title>
<g id="a_edge2_Node000001_Node000002"><a xlink:title=" ">
<path fill="none" stroke="#63b8ff" d="M146.86,-10.38C154.94,-10.38 163.09,-10.38 170.96,-10.38"/>
<polygon fill="#63b8ff" stroke="#63b8ff" points="170.71,-13.88 180.71,-10.38 170.71,-6.88 170.71,-13.88"/>
</a>
</g>
</g>
<!-- Node2&#45;&gt;Node2 -->
<g id="edge3_Node000002_Node000002" class="edge">
<title>Node2&#45;&gt;Node2</title>
<g id="a_edge3_Node000002_Node000002"><a xlink:title=" ">
<path fill="none" stroke="#63b8ff" d="M204.32,-21.15C194.25,-29.81 202.64,-38.75 229.5,-38.75 244.19,-38.75 253.35,-36.08 256.99,-32.24"/>
<polygon fill="#63b8ff" stroke="#63b8ff" points="260.46,-31.7 254.99,-22.63 253.61,-33.13 260.46,-31.7"/>
</a>
</g>
</g>
</g>
</svg>
