<?xml version="1.0" encoding="UTF-8" standalone="no"?>
<!DOCTYPE svg PUBLIC "-//W3C//DTD SVG 1.1//EN"
 "http://www.w3.org/Graphics/SVG/1.1/DTD/svg11.dtd">
<!-- Generated by graphviz version 14.1.4 (0)
 -->
<!-- Title: FMinimalViewInfo::BlendViewInfo Pages: 1 -->
<svg width="381pt" height="60pt"
 viewBox="0.00 0.00 381.00 60.00" xmlns="http://www.w3.org/2000/svg" xmlns:xlink="http://www.w3.org/1999/xlink">
<g id="graph0" class="graph" transform="scale(1 1) rotate(0) translate(4 55.5)">
<title>FMinimalViewInfo::BlendViewInfo</title>
<!-- Node1 -->
<g id="Node000001" class="node">
<title>Node1</title>
<g id="a_Node000001"><a xlink:title=" ">
<polygon fill="#999999" stroke="#666666" points="181,-27.12 0,-27.12 0,-6.38 181,-6.38 181,-27.12"/>
<text xml:space="preserve" text-anchor="middle" x="90.5" y="-13.62" font-family="Helvetica,sans-Serif" font-size="10.00">FMinimalViewInfo::BlendViewInfo</text>
</a>
</g>
</g>
<!-- Node2 -->
<g id="Node000002" class="node">
<title>Node2</title>
<g id="a_Node000002"><a xlink:href="structFMinimalViewInfo.html#a526b5bd10ed1a95387a31686fe0164fe" target="_top" xlink:title=" ">
<polygon fill="white" stroke="#666666" points="373.25,-33.5 217,-33.5 217,0 373.25,0 373.25,-33.5"/>
<text xml:space="preserve" text-anchor="start" x="225" y="-20" font-family="Helvetica,sans-Serif" font-size="10.00">FMinimalViewInfo::FMinimal</text>
<text xml:space="preserve" text-anchor="middle" x="295.12" y="-7.25" font-family="Helvetica,sans-Serif" font-size="10.00">ViewInfo</text>
</a>
</g>
</g>
<!-- Node1&#45;&gt;Node2 -->
<g id="edge1_Node000001_Node000002" class="edge">
<title>Node1&#45;&gt;Node2</title>
<g id="a_edge1_Node000001_Node000002"><a xlink:title=" ">
<path fill="none" stroke="#63b8ff" d="M181.26,-16.75C189.32,-16.75 197.47,-16.75 205.52,-16.75"/>
<polygon fill="#63b8ff" stroke="#63b8ff" points="205.29,-20.25 215.29,-16.75 205.29,-13.25 205.29,-20.25"/>
</a>
</g>
</g>
<!-- Node2&#45;&gt;Node2 -->
<g id="edge2_Node000002_Node000002" class="edge">
<title>Node2&#45;&gt;Node2</title>
<g id="a_edge2_Node000002_Node000002"><a xlink:title=" ">
<path fill="none" stroke="#63b8ff" d="M258.34,-33.91C252.09,-43.12 264.35,-51.5 295.12,-51.5 312.19,-51.5 323.57,-48.92 329.25,-45.05"/>
<polygon fill="#63b8ff" stroke="#63b8ff" points="332.64,-45.93 331.56,-35.39 325.83,-44.3 332.64,-45.93"/>
</a>
</g>
</g>
</g>
</svg>
