<?xml version="1.0" encoding="UTF-8" standalone="no"?>
<!DOCTYPE svg PUBLIC "-//W3C//DTD SVG 1.1//EN"
 "http://www.w3.org/Graphics/SVG/1.1/DTD/svg11.dtd">
<!-- Generated by graphviz version 14.1.4 (0)
 -->
<!-- Title: FGraphNodeCreator&lt; NodeType &gt; Pages: 1 -->
<svg width="200pt" height="728pt"
 viewBox="0.00 0.00 200.00 728.00" xmlns="http://www.w3.org/2000/svg" xmlns:xlink="http://www.w3.org/1999/xlink">
<g id="graph0" class="graph" transform="scale(1 1) rotate(0) translate(4 723.5)">
<title>FGraphNodeCreator&lt; NodeType &gt;</title>
<!-- Node1 -->
<g id="Node000001" class="node">
<title>Node1</title>
<g id="a_Node000001"><a xlink:title=" ">
<polygon fill="#999999" stroke="none" points="169.12,-184.25 22.88,-184.25 22.88,0 169.12,0 169.12,-184.25"/>
<text xml:space="preserve" text-anchor="start" x="43.5" y="-170.5" font-family="Helvetica,sans-Serif" font-size="10.00">FGraphNodeCreator&lt;</text>
<text xml:space="preserve" text-anchor="start" x="64.88" y="-157.75" font-family="Helvetica,sans-Serif" font-size="10.00"> NodeType &gt;</text>
<text xml:space="preserve" text-anchor="start" x="29.12" y="-141" font-family="Helvetica,sans-Serif" font-size="10.00">&#45;</text>
<text xml:space="preserve" text-anchor="start" x="39.12" y="-141" font-family="Helvetica,sans-Serif" font-size="10.00">Node</text>
<text xml:space="preserve" text-anchor="start" x="29.12" y="-124.25" font-family="Helvetica,sans-Serif" font-size="10.00">&#45;</text>
<text xml:space="preserve" text-anchor="start" x="39.12" y="-124.25" font-family="Helvetica,sans-Serif" font-size="10.00">bPlaced</text>
<text xml:space="preserve" text-anchor="start" x="26.88" y="-107.5" font-family="Helvetica,sans-Serif" font-size="10.00">+</text>
<text xml:space="preserve" text-anchor="start" x="39.12" y="-107.5" font-family="Helvetica,sans-Serif" font-size="10.00">FGraphNodeCreator()</text>
<text xml:space="preserve" text-anchor="start" x="26.88" y="-90.75" font-family="Helvetica,sans-Serif" font-size="10.00">+</text>
<text xml:space="preserve" text-anchor="start" x="39.12" y="-90.75" font-family="Helvetica,sans-Serif" font-size="10.00">CreateNode()</text>
<text xml:space="preserve" text-anchor="start" x="26.88" y="-74" font-family="Helvetica,sans-Serif" font-size="10.00">+</text>
<text xml:space="preserve" text-anchor="start" x="39.12" y="-74" font-family="Helvetica,sans-Serif" font-size="10.00">CreateUserInvokedNode()</text>
<text xml:space="preserve" text-anchor="start" x="26.88" y="-57.25" font-family="Helvetica,sans-Serif" font-size="10.00">+</text>
<text xml:space="preserve" text-anchor="start" x="39.12" y="-57.25" font-family="Helvetica,sans-Serif" font-size="10.00">Finalize()</text>
<text xml:space="preserve" text-anchor="start" x="26.88" y="-40.5" font-family="Helvetica,sans-Serif" font-size="10.00">+</text>
<text xml:space="preserve" text-anchor="start" x="39.12" y="-40.5" font-family="Helvetica,sans-Serif" font-size="10.00">~FGraphNodeCreator()</text>
<text xml:space="preserve" text-anchor="start" x="29.12" y="-23.75" font-family="Helvetica,sans-Serif" font-size="10.00">&#45;</text>
<text xml:space="preserve" text-anchor="start" x="39.12" y="-23.75" font-family="Helvetica,sans-Serif" font-size="10.00">FGraphNodeCreator()</text>
<text xml:space="preserve" text-anchor="start" x="29.12" y="-7" font-family="Helvetica,sans-Serif" font-size="10.00">&#45;</text>
<text xml:space="preserve" text-anchor="start" x="39.12" y="-7" font-family="Helvetica,sans-Serif" font-size="10.00">operator=()</text>
<polygon fill="#666666" stroke="#666666" points="22.88,-152.75 22.88,-152.75 169.12,-152.75 169.12,-152.75 22.88,-152.75"/>
<polygon fill="#666666" stroke="#666666" points="22.88,-119.25 22.88,-119.25 37.12,-119.25 37.12,-119.25 22.88,-119.25"/>
<polygon fill="#666666" stroke="#666666" points="37.12,-119.25 37.12,-119.25 169.12,-119.25 169.12,-119.25 37.12,-119.25"/>
<polygon fill="none" stroke="#666666" points="22.88,0 22.88,-184.25 169.12,-184.25 169.12,0 22.88,0"/>
</a>
</g>
</g>
<!-- Node2 -->
<g id="Node000002" class="node">
<title>Node2</title>
<g id="a_Node000002"><a xlink:href="classUEdGraph.html" target="_top" xlink:title=" ">
<polygon fill="white" stroke="none" points="192,-628.25 0,-628.25 0,-239 192,-239 192,-628.25"/>
<text xml:space="preserve" text-anchor="start" x="71.62" y="-614.5" font-family="Helvetica,sans-Serif" font-size="10.00">UEdGraph</text>
<text xml:space="preserve" text-anchor="start" x="4" y="-597.75" font-family="Helvetica,sans-Serif" font-size="10.00">+</text>
<text xml:space="preserve" text-anchor="start" x="16.25" y="-597.75" font-family="Helvetica,sans-Serif" font-size="10.00">Schema</text>
<text xml:space="preserve" text-anchor="start" x="4" y="-581" font-family="Helvetica,sans-Serif" font-size="10.00">+</text>
<text xml:space="preserve" text-anchor="start" x="16.25" y="-581" font-family="Helvetica,sans-Serif" font-size="10.00">Nodes</text>
<text xml:space="preserve" text-anchor="start" x="4" y="-564.25" font-family="Helvetica,sans-Serif" font-size="10.00">+</text>
<text xml:space="preserve" text-anchor="start" x="16.25" y="-564.25" font-family="Helvetica,sans-Serif" font-size="10.00">bEditable</text>
<text xml:space="preserve" text-anchor="start" x="4" y="-547.5" font-family="Helvetica,sans-Serif" font-size="10.00">+</text>
<text xml:space="preserve" text-anchor="start" x="16.25" y="-547.5" font-family="Helvetica,sans-Serif" font-size="10.00">bAllowDeletion</text>
<text xml:space="preserve" text-anchor="start" x="4" y="-530.75" font-family="Helvetica,sans-Serif" font-size="10.00">+</text>
<text xml:space="preserve" text-anchor="start" x="16.25" y="-530.75" font-family="Helvetica,sans-Serif" font-size="10.00">bAllowRenaming</text>
<text xml:space="preserve" text-anchor="start" x="6.25" y="-514" font-family="Helvetica,sans-Serif" font-size="10.00">&#45;</text>
<text xml:space="preserve" text-anchor="start" x="16.25" y="-514" font-family="Helvetica,sans-Serif" font-size="10.00">OnGraphChanged</text>
<text xml:space="preserve" text-anchor="start" x="4" y="-497.25" font-family="Helvetica,sans-Serif" font-size="10.00">+</text>
<text xml:space="preserve" text-anchor="start" x="16.25" y="-497.25" font-family="Helvetica,sans-Serif" font-size="10.00">GetSchema()</text>
<text xml:space="preserve" text-anchor="start" x="4" y="-480.5" font-family="Helvetica,sans-Serif" font-size="10.00">+</text>
<text xml:space="preserve" text-anchor="start" x="16.25" y="-480.5" font-family="Helvetica,sans-Serif" font-size="10.00">AddOnGraphChangedHandler()</text>
<text xml:space="preserve" text-anchor="start" x="4" y="-463.75" font-family="Helvetica,sans-Serif" font-size="10.00">+</text>
<text xml:space="preserve" text-anchor="start" x="16.25" y="-463.75" font-family="Helvetica,sans-Serif" font-size="10.00">RemoveOnGraphChangedHandler()</text>
<text xml:space="preserve" text-anchor="start" x="4" y="-447" font-family="Helvetica,sans-Serif" font-size="10.00">+</text>
<text xml:space="preserve" text-anchor="start" x="16.25" y="-447" font-family="Helvetica,sans-Serif" font-size="10.00">CreateIntermediateNode()</text>
<text xml:space="preserve" text-anchor="start" x="4" y="-430.25" font-family="Helvetica,sans-Serif" font-size="10.00">+</text>
<text xml:space="preserve" text-anchor="start" x="16.25" y="-430.25" font-family="Helvetica,sans-Serif" font-size="10.00">AddNode()</text>
<text xml:space="preserve" text-anchor="start" x="4" y="-413.5" font-family="Helvetica,sans-Serif" font-size="10.00">+</text>
<text xml:space="preserve" text-anchor="start" x="16.25" y="-413.5" font-family="Helvetica,sans-Serif" font-size="10.00">SelectNodeSet()</text>
<text xml:space="preserve" text-anchor="start" x="4" y="-396.75" font-family="Helvetica,sans-Serif" font-size="10.00">+</text>
<text xml:space="preserve" text-anchor="start" x="16.25" y="-396.75" font-family="Helvetica,sans-Serif" font-size="10.00">RemoveNode()</text>
<text xml:space="preserve" text-anchor="start" x="4" y="-380" font-family="Helvetica,sans-Serif" font-size="10.00">+</text>
<text xml:space="preserve" text-anchor="start" x="16.25" y="-380" font-family="Helvetica,sans-Serif" font-size="10.00">NotifyGraphChanged()</text>
<text xml:space="preserve" text-anchor="start" x="4" y="-363.25" font-family="Helvetica,sans-Serif" font-size="10.00">+</text>
<text xml:space="preserve" text-anchor="start" x="16.25" y="-363.25" font-family="Helvetica,sans-Serif" font-size="10.00">NotifyNodeChanged()</text>
<text xml:space="preserve" text-anchor="start" x="4" y="-346.5" font-family="Helvetica,sans-Serif" font-size="10.00">+</text>
<text xml:space="preserve" text-anchor="start" x="16.25" y="-346.5" font-family="Helvetica,sans-Serif" font-size="10.00">MoveNodesToAnotherGraph()</text>
<text xml:space="preserve" text-anchor="start" x="16.25" y="-329.75" font-family="Helvetica,sans-Serif" font-size="10.00">and 8 more...</text>
<text xml:space="preserve" text-anchor="start" x="4" y="-313" font-family="Helvetica,sans-Serif" font-size="10.00">+</text>
<text xml:space="preserve" text-anchor="start" x="16.25" y="-313" font-family="Helvetica,sans-Serif" font-size="10.00">GetOuterGraph()</text>
<text xml:space="preserve" text-anchor="start" x="4" y="-296.25" font-family="Helvetica,sans-Serif" font-size="10.00">#</text>
<text xml:space="preserve" text-anchor="start" x="16.25" y="-296.25" font-family="Helvetica,sans-Serif" font-size="10.00">NotifyGraphChanged()</text>
<text xml:space="preserve" text-anchor="start" x="4" y="-279.5" font-family="Helvetica,sans-Serif" font-size="10.00">#</text>
<text xml:space="preserve" text-anchor="start" x="16.25" y="-279.5" font-family="Helvetica,sans-Serif" font-size="10.00">CreateNode()</text>
<text xml:space="preserve" text-anchor="start" x="4" y="-262.75" font-family="Helvetica,sans-Serif" font-size="10.00">#</text>
<text xml:space="preserve" text-anchor="start" x="16.25" y="-262.75" font-family="Helvetica,sans-Serif" font-size="10.00">CreateNode()</text>
<text xml:space="preserve" text-anchor="start" x="4" y="-246" font-family="Helvetica,sans-Serif" font-size="10.00">#</text>
<text xml:space="preserve" text-anchor="start" x="16.25" y="-246" font-family="Helvetica,sans-Serif" font-size="10.00">CreateUserInvokedNode()</text>
<polygon fill="#666666" stroke="#666666" points="0,-609.5 0,-609.5 192,-609.5 192,-609.5 0,-609.5"/>
<polygon fill="#666666" stroke="#666666" points="0,-509 0,-509 14.25,-509 14.25,-509 0,-509"/>
<polygon fill="#666666" stroke="#666666" points="14.25,-509 14.25,-509 192,-509 192,-509 14.25,-509"/>
<polygon fill="none" stroke="#666666" points="0,-239 0,-628.25 192,-628.25 192,-239 0,-239"/>
</a>
</g>
</g>
<!-- Node2&#45;&gt;Node1 -->
<g id="edge1_Node000001_Node000002" class="edge">
<title>Node2&#45;&gt;Node1</title>
<g id="a_edge1_Node000001_Node000002"><a xlink:title=" ">
<path fill="none" stroke="#63b8ff" d="M96,-239.07C96,-224.63 96,-210.42 96,-196.87"/>
<polygon fill="none" stroke="#63b8ff" points="96,-197.01 92,-191.01 96,-185.01 100,-191.01 96,-197.01"/>
</a>
</g>
<text xml:space="preserve" text-anchor="start" x="99" y="-208.25" font-family="Helvetica,sans-Serif" font-size="10.00" fill="grey">&#45;Graph</text>
</g>
<!-- Node3 -->
<g id="Node000003" class="node">
<title>Node3</title>
<g id="a_Node000003"><a xlink:title=" ">
<polygon fill="white" stroke="none" points="119.5,-719.5 72.5,-719.5 72.5,-665.25 119.5,-665.25 119.5,-719.5"/>
<text xml:space="preserve" text-anchor="start" x="76.5" y="-705.75" font-family="Helvetica,sans-Serif" font-size="10.00">UObject</text>
<text xml:space="preserve" text-anchor="start" x="93" y="-689" font-family="Helvetica,sans-Serif" font-size="10.00"> </text>
<text xml:space="preserve" text-anchor="start" x="93" y="-672.25" font-family="Helvetica,sans-Serif" font-size="10.00"> </text>
<polygon fill="#666666" stroke="#666666" points="72.5,-700.75 72.5,-700.75 119.5,-700.75 119.5,-700.75 72.5,-700.75"/>
<polygon fill="#666666" stroke="#666666" points="72.5,-684 72.5,-684 119.5,-684 119.5,-684 72.5,-684"/>
<polygon fill="none" stroke="#666666" points="72.5,-665.25 72.5,-719.5 119.5,-719.5 119.5,-665.25 72.5,-665.25"/>
</a>
</g>
</g>
<!-- Node3&#45;&gt;Node2 -->
<g id="edge2_Node000002_Node000003" class="edge">
<title>Node3&#45;&gt;Node2</title>
<g id="a_edge2_Node000002_Node000003"><a xlink:title=" ">
<path fill="none" stroke="#63b8ff" d="M96,-653.92C96,-646.15 96,-637.47 96,-628.16"/>
<polygon fill="none" stroke="#63b8ff" points="92.5,-653.83 96,-663.83 99.5,-653.83 92.5,-653.83"/>
</a>
</g>
</g>
</g>
</svg>
