<?xml version="1.0" encoding="UTF-8" standalone="no"?>
<!DOCTYPE svg PUBLIC "-//W3C//DTD SVG 1.1//EN"
 "http://www.w3.org/Graphics/SVG/1.1/DTD/svg11.dtd">
<!-- Generated by graphviz version 14.1.4 (0)
 -->
<!-- Title: FBasedPosition::FBasedPosition Pages: 1 -->
<svg width="388pt" height="68pt"
 viewBox="0.00 0.00 388.00 68.00" xmlns="http://www.w3.org/2000/svg" xmlns:xlink="http://www.w3.org/1999/xlink">

<svg id="main" version="1.1" xmlns="http://www.w3.org/2000/svg" xmlns:xlink="http://www.w3.org/1999/xlink" xml:space="preserve">

<style type="text/css"><![CDATA[
.node, .edge {opacity: 0.7;}
.node.selected, .edge.selected {opacity: 1;}
.edge:hover path { stroke: red; }
.edge:hover polygon { stroke: red; fill: red; }
]]></style>
<script type="application/ecmascript" xlink:href="svg.min.js"/>
<svg id="graph" class="graph">
<g id="graph0" class="graph" transform="scale(1 1) rotate(0) translate(4 63.75)">
<title>FBasedPosition::FBasedPosition</title>
<!-- Node1 -->
<g id="Node000001" class="node">
<title>Node1</title>
<g id="a_Node000001"><a xlink:title=" ">
<polygon fill="#999999" stroke="#666666" points="380,-39.75 208,-39.75 208,-19 380,-19 380,-39.75"/>
<text xml:space="preserve" text-anchor="middle" x="294" y="-26.25" font-family="Helvetica,sans-Serif" font-size="10.00">FBasedPosition::FBasedPosition</text>
</a>
</g>
</g>
<!-- Node1&#45;&gt;Node1 -->
<g id="edge1_Node000001_Node000001" class="edge">
<title>Node1&#45;&gt;Node1</title>
<g id="a_edge1_Node000001_Node000001"><a xlink:title=" ">
<path fill="none" stroke="#63b8ff" d="M330.6,-51.24C325.75,-55.08 313.55,-57.75 294,-57.75 258.25,-57.75 247.08,-48.81 260.48,-40.15"/>
<polygon fill="#63b8ff" stroke="#63b8ff" points="333.97,-50.3 327.92,-41.61 327.23,-52.18 333.97,-50.3"/>
</a>
</g>
</g>
<!-- Node2 -->
<g id="Node000002" class="node">
<title>Node2</title>
<g id="a_Node000002"><a xlink:href="structFBasedPosition.html#aa954b2d5ce4991da08f550fcb1d90c3b" target="_top" xlink:title=" ">
<polygon fill="white" stroke="#666666" points="172,-59.75 0,-59.75 0,-39 172,-39 172,-59.75"/>
<text xml:space="preserve" text-anchor="middle" x="86" y="-46.25" font-family="Helvetica,sans-Serif" font-size="10.00">FBasedPosition::FBasedPosition</text>
</a>
</g>
</g>
<!-- Node1&#45;&gt;Node2 -->
<g id="edge2_Node000001_Node000002" class="edge">
<title>Node1&#45;&gt;Node2</title>
<g id="a_edge2_Node000001_Node000002"><a xlink:title=" ">
<path fill="none" stroke="#63b8ff" d="M196.37,-38.76C188.31,-39.54 180.19,-40.33 172.21,-41.1"/>
<polygon fill="#63b8ff" stroke="#63b8ff" points="196.6,-42.25 206.22,-37.8 195.93,-35.28 196.6,-42.25"/>
</a>
</g>
</g>
<!-- Node3 -->
<g id="Node000003" class="node">
<title>Node3</title>
<g id="a_Node000003"><a xlink:href="structFBasedPosition.html#a68003ea4b96cdbceed55ea7bb550740c" target="_top" xlink:title=" ">
<polygon fill="white" stroke="#666666" points="163.38,-20.75 8.62,-20.75 8.62,0 163.38,0 163.38,-20.75"/>
<text xml:space="preserve" text-anchor="middle" x="86" y="-7.25" font-family="Helvetica,sans-Serif" font-size="10.00">FBasedPosition::operator&lt;&lt;</text>
</a>
</g>
</g>
<!-- Node1&#45;&gt;Node3 -->
<g id="edge3_Node000001_Node000003" class="edge">
<title>Node1&#45;&gt;Node3</title>
<g id="a_edge3_Node000001_Node000003"><a xlink:title=" ">
<path fill="none" stroke="#63b8ff" d="M196.35,-20.46C185.38,-19.45 174.31,-18.43 163.65,-17.44"/>
<polygon fill="#63b8ff" stroke="#63b8ff" points="195.94,-23.94 206.22,-21.37 196.58,-16.97 195.94,-23.94"/>
</a>
</g>
</g>
</g>
</svg>
</svg>

<style type='text/css'>
<![CDATA[
[data-mouse-over-selected='false'] { opacity: 0.7; }
[data-mouse-over-selected='true']  { opacity: 1.0; }
]]>
</style>
<script type="application/ecmascript"><![CDATA[
document.addEventListener('DOMContentLoaded', (event) => {
  highlightEdges();
  highlightAdjacentNodes();
});
]]></script>
</svg>
