<?xml version="1.0" encoding="UTF-8" standalone="no"?>
<!DOCTYPE svg PUBLIC "-//W3C//DTD SVG 1.1//EN"
 "http://www.w3.org/Graphics/SVG/1.1/DTD/svg11.dtd">
<!-- Generated by graphviz version 14.1.4 (0)
 -->
<!-- Title: FInputDevicePropertyHandle::AcquireValidHandle Pages: 1 -->
<svg width="363pt" height="60pt"
 viewBox="0.00 0.00 363.00 60.00" xmlns="http://www.w3.org/2000/svg" xmlns:xlink="http://www.w3.org/1999/xlink">

<svg id="main" version="1.1" xmlns="http://www.w3.org/2000/svg" xmlns:xlink="http://www.w3.org/1999/xlink" xml:space="preserve">

<style type="text/css"><![CDATA[
.node, .edge {opacity: 0.7;}
.node.selected, .edge.selected {opacity: 1;}
.edge:hover path { stroke: red; }
.edge:hover polygon { stroke: red; fill: red; }
]]></style>
<script type="application/ecmascript" xlink:href="svg.min.js"/>
<svg id="graph" class="graph">
<g id="graph0" class="graph" transform="scale(1 1) rotate(0) translate(4 55.5)">
<title>FInputDevicePropertyHandle::AcquireValidHandle</title>
<!-- Node1 -->
<g id="Node000001" class="node">
<title>Node1</title>
<g id="a_Node000001"><a xlink:title=" ">
<polygon fill="#999999" stroke="#666666" points="156.25,-33.5 0,-33.5 0,0 156.25,0 156.25,-33.5"/>
<text xml:space="preserve" text-anchor="start" x="8" y="-20" font-family="Helvetica,sans-Serif" font-size="10.00">FInputDevicePropertyHandle</text>
<text xml:space="preserve" text-anchor="middle" x="78.12" y="-7.25" font-family="Helvetica,sans-Serif" font-size="10.00">::AcquireValidHandle</text>
</a>
</g>
</g>
<!-- Node1&#45;&gt;Node1 -->
<g id="edge1_Node000001_Node000001" class="edge">
<title>Node1&#45;&gt;Node1</title>
<g id="a_edge1_Node000001_Node000001"><a xlink:title=" ">
<path fill="none" stroke="#63b8ff" d="M43.03,-33.91C37.06,-43.12 48.76,-51.5 78.12,-51.5 94.64,-51.5 105.57,-48.85 110.91,-44.89"/>
<polygon fill="#63b8ff" stroke="#63b8ff" points="114.27,-45.9 112.91,-35.4 107.42,-44.46 114.27,-45.9"/>
</a>
</g>
</g>
<!-- Node2 -->
<g id="Node000002" class="node">
<title>Node2</title>
<g id="a_Node000002"><a xlink:href="structFInputDevicePropertyHandle.html#a0f2e52855d6d942183b76c0d60d793a6" target="_top" xlink:title=" ">
<polygon fill="white" stroke="#666666" points="354.5,-33.5 192.25,-33.5 192.25,0 354.5,0 354.5,-33.5"/>
<text xml:space="preserve" text-anchor="start" x="200.25" y="-20" font-family="Helvetica,sans-Serif" font-size="10.00">FInputDevicePropertyHandle</text>
<text xml:space="preserve" text-anchor="middle" x="273.38" y="-7.25" font-family="Helvetica,sans-Serif" font-size="10.00">::FInputDevicePropertyHandle</text>
</a>
</g>
</g>
<!-- Node1&#45;&gt;Node2 -->
<g id="edge2_Node000001_Node000002" class="edge">
<title>Node1&#45;&gt;Node2</title>
<g id="a_edge2_Node000001_Node000002"><a xlink:title=" ">
<path fill="none" stroke="#63b8ff" d="M156.61,-16.75C164.54,-16.75 172.64,-16.75 180.69,-16.75"/>
<polygon fill="#63b8ff" stroke="#63b8ff" points="180.51,-20.25 190.51,-16.75 180.51,-13.25 180.51,-20.25"/>
</a>
</g>
</g>
<!-- Node2&#45;&gt;Node2 -->
<g id="edge3_Node000002_Node000002" class="edge">
<title>Node2&#45;&gt;Node2</title>
<g id="a_edge3_Node000002_Node000002"><a xlink:title=" ">
<path fill="none" stroke="#63b8ff" d="M238.28,-33.91C232.31,-43.12 244.01,-51.5 273.38,-51.5 289.89,-51.5 300.82,-48.85 306.16,-44.89"/>
<polygon fill="#63b8ff" stroke="#63b8ff" points="309.52,-45.9 308.16,-35.4 302.67,-44.46 309.52,-45.9"/>
</a>
</g>
</g>
</g>
</svg>
</svg>

<style type='text/css'>
<![CDATA[
[data-mouse-over-selected='false'] { opacity: 0.7; }
[data-mouse-over-selected='true']  { opacity: 1.0; }
]]>
</style>
<script type="application/ecmascript"><![CDATA[
document.addEventListener('DOMContentLoaded', (event) => {
  highlightEdges();
  highlightAdjacentNodes();
});
]]></script>
</svg>
