<?xml version="1.0" encoding="UTF-8" standalone="no"?>
<!DOCTYPE svg PUBLIC "-//W3C//DTD SVG 1.1//EN"
 "http://www.w3.org/Graphics/SVG/1.1/DTD/svg11.dtd">
<!-- Generated by graphviz version 14.1.4 (0)
 -->
<!-- Title: UE::Anim::FAttributeId::GetIndex Pages: 1 -->
<svg width="354pt" height="288pt"
 viewBox="0.00 0.00 354.00 288.00" xmlns="http://www.w3.org/2000/svg" xmlns:xlink="http://www.w3.org/1999/xlink">
<g id="graph0" class="graph" transform="scale(1 1) rotate(0) translate(4 284.12)">
<title>UE::Anim::FAttributeId::GetIndex</title>
<!-- Node1 -->
<g id="Node000001" class="node">
<title>Node1</title>
<g id="a_Node000001"><a xlink:title=" ">
<polygon fill="#999999" stroke="#666666" points="346.25,-163.5 223,-163.5 223,-130 346.25,-130 346.25,-163.5"/>
<text xml:space="preserve" text-anchor="start" x="231" y="-150" font-family="Helvetica,sans-Serif" font-size="10.00">UE::Anim::FAttributeId</text>
<text xml:space="preserve" text-anchor="middle" x="284.62" y="-137.25" font-family="Helvetica,sans-Serif" font-size="10.00">::GetIndex</text>
</a>
</g>
</g>
<!-- Node2 -->
<g id="Node000002" class="node">
<title>Node2</title>
<g id="a_Node000002"><a xlink:href="structUE_1_1Anim_1_1TAttributeContainer.html#a24232cfc19b2265d40d6c043e0eb2f42" target="_top" xlink:title=" ">
<polygon fill="white" stroke="#666666" points="187,-280.12 0,-280.12 0,-259.38 187,-259.38 187,-280.12"/>
<text xml:space="preserve" text-anchor="middle" x="93.5" y="-266.62" font-family="Helvetica,sans-Serif" font-size="10.00">UE::Anim::TAttributeContainer::Add</text>
</a>
</g>
</g>
<!-- Node1&#45;&gt;Node2 -->
<g id="edge1_Node000001_Node000002" class="edge">
<title>Node1&#45;&gt;Node2</title>
<g id="a_edge1_Node000001_Node000002"><a xlink:title=" ">
<path fill="none" stroke="#63b8ff" d="M266.4,-173.13C249.22,-197.21 220.61,-231.85 187,-250.75 181.14,-254.05 174.79,-256.77 168.25,-259.03"/>
<polygon fill="#63b8ff" stroke="#63b8ff" points="269.15,-175.3 271.97,-165.09 263.4,-171.31 269.15,-175.3"/>
</a>
</g>
</g>
<!-- Node3 -->
<g id="Node000003" class="node">
<title>Node3</title>
<g id="a_Node000003"><a xlink:href="structUE_1_1Anim_1_1TAttributeContainer.html#a7fdacbfac88812619b20c378017cac97" target="_top" xlink:title=" ">
<polygon fill="white" stroke="#666666" points="174.62,-241.5 12.38,-241.5 12.38,-208 174.62,-208 174.62,-241.5"/>
<text xml:space="preserve" text-anchor="start" x="20.38" y="-228" font-family="Helvetica,sans-Serif" font-size="10.00">UE::Anim::TAttributeContainer</text>
<text xml:space="preserve" text-anchor="middle" x="93.5" y="-215.25" font-family="Helvetica,sans-Serif" font-size="10.00">::CopyFrom</text>
</a>
</g>
</g>
<!-- Node1&#45;&gt;Node3 -->
<g id="edge2_Node000001_Node000003" class="edge">
<title>Node1&#45;&gt;Node3</title>
<g id="a_edge2_Node000001_Node000003"><a xlink:title=" ">
<path fill="none" stroke="#63b8ff" d="M245.86,-169.57C228.38,-179.48 207.08,-190.64 187,-198.75 179.11,-201.94 170.7,-204.88 162.27,-207.56"/>
<polygon fill="#63b8ff" stroke="#63b8ff" points="247.44,-172.7 254.36,-164.68 243.95,-166.64 247.44,-172.7"/>
</a>
</g>
</g>
<!-- Node4 -->
<g id="Node000004" class="node">
<title>Node4</title>
<g id="a_Node000004"><a xlink:href="structUE_1_1Anim_1_1TAttributeContainer.html#abb9a5cf2d4247f515d3a3ac3b70e94e4" target="_top" xlink:title=" ">
<polygon fill="white" stroke="#666666" points="174.62,-189.5 12.38,-189.5 12.38,-156 174.62,-156 174.62,-189.5"/>
<text xml:space="preserve" text-anchor="start" x="20.38" y="-176" font-family="Helvetica,sans-Serif" font-size="10.00">UE::Anim::TAttributeContainer</text>
<text xml:space="preserve" text-anchor="middle" x="93.5" y="-163.25" font-family="Helvetica,sans-Serif" font-size="10.00">::CopyFrom</text>
</a>
</g>
</g>
<!-- Node1&#45;&gt;Node4 -->
<g id="edge3_Node000001_Node000004" class="edge">
<title>Node1&#45;&gt;Node4</title>
<g id="a_edge3_Node000001_Node000004"><a xlink:title=" ">
<path fill="none" stroke="#63b8ff" d="M211.47,-156.67C199.53,-158.31 187.07,-160.02 174.94,-161.69"/>
<polygon fill="#63b8ff" stroke="#63b8ff" points="211.81,-160.16 221.24,-155.33 210.86,-153.22 211.81,-160.16"/>
</a>
</g>
</g>
<!-- Node5 -->
<g id="Node000005" class="node">
<title>Node5</title>
<g id="a_Node000005"><a xlink:href="structUE_1_1Anim_1_1TAttributeContainer.html#aed652af286a87edf4b41eb4264cbef37" target="_top" xlink:title=" ">
<polygon fill="white" stroke="#666666" points="174.62,-137.5 12.38,-137.5 12.38,-104 174.62,-104 174.62,-137.5"/>
<text xml:space="preserve" text-anchor="start" x="20.38" y="-124" font-family="Helvetica,sans-Serif" font-size="10.00">UE::Anim::TAttributeContainer</text>
<text xml:space="preserve" text-anchor="middle" x="93.5" y="-111.25" font-family="Helvetica,sans-Serif" font-size="10.00">::FindOrAdd</text>
</a>
</g>
</g>
<!-- Node1&#45;&gt;Node5 -->
<g id="edge4_Node000001_Node000005" class="edge">
<title>Node1&#45;&gt;Node5</title>
<g id="a_edge4_Node000001_Node000005"><a xlink:title=" ">
<path fill="none" stroke="#63b8ff" d="M211.47,-136.83C199.53,-135.19 187.07,-133.48 174.94,-131.81"/>
<polygon fill="#63b8ff" stroke="#63b8ff" points="210.86,-140.28 221.24,-138.17 211.81,-133.34 210.86,-140.28"/>
</a>
</g>
</g>
<!-- Node6 -->
<g id="Node000006" class="node">
<title>Node6</title>
<g id="a_Node000006"><a xlink:href="structUE_1_1Anim_1_1TAttributeContainer.html#a3545f896c077f9de1f104f01a38a641e" target="_top" xlink:title=" ">
<polygon fill="white" stroke="#666666" points="174.62,-85.5 12.38,-85.5 12.38,-52 174.62,-52 174.62,-85.5"/>
<text xml:space="preserve" text-anchor="start" x="20.38" y="-72" font-family="Helvetica,sans-Serif" font-size="10.00">UE::Anim::TAttributeContainer</text>
<text xml:space="preserve" text-anchor="middle" x="93.5" y="-59.25" font-family="Helvetica,sans-Serif" font-size="10.00">::IndexOfByKey</text>
</a>
</g>
</g>
<!-- Node1&#45;&gt;Node6 -->
<g id="edge5_Node000001_Node000006" class="edge">
<title>Node1&#45;&gt;Node6</title>
<g id="a_edge5_Node000001_Node000006"><a xlink:title=" ">
<path fill="none" stroke="#63b8ff" d="M245.86,-123.93C228.38,-114.02 207.08,-102.86 187,-94.75 179.11,-91.56 170.7,-88.62 162.27,-85.94"/>
<polygon fill="#63b8ff" stroke="#63b8ff" points="243.95,-126.86 254.36,-128.82 247.44,-120.8 243.95,-126.86"/>
</a>
</g>
</g>
<!-- Node7 -->
<g id="Node000007" class="node">
<title>Node7</title>
<g id="a_Node000007"><a xlink:href="structUE_1_1Anim_1_1TAttributeContainer.html#a81398dcd95620a609465dd83d949e7ab" target="_top" xlink:title=" ">
<polygon fill="white" stroke="#666666" points="174.62,-33.5 12.38,-33.5 12.38,0 174.62,0 174.62,-33.5"/>
<text xml:space="preserve" text-anchor="start" x="20.38" y="-20" font-family="Helvetica,sans-Serif" font-size="10.00">UE::Anim::TAttributeContainer</text>
<text xml:space="preserve" text-anchor="middle" x="93.5" y="-7.25" font-family="Helvetica,sans-Serif" font-size="10.00">::IndexOfByKey</text>
</a>
</g>
</g>
<!-- Node1&#45;&gt;Node7 -->
<g id="edge6_Node000001_Node000007" class="edge">
<title>Node1&#45;&gt;Node7</title>
<g id="a_edge6_Node000001_Node000007"><a xlink:title=" ">
<path fill="none" stroke="#63b8ff" d="M265.79,-120.51C248.36,-96.83 219.72,-62.73 187,-42.75 181.45,-39.36 175.44,-36.4 169.24,-33.82"/>
<polygon fill="#63b8ff" stroke="#63b8ff" points="262.78,-122.33 271.45,-128.41 268.47,-118.25 262.78,-122.33"/>
</a>
</g>
</g>
</g>
</svg>
