<?xml version="1.0" encoding="UTF-8" standalone="no"?>
<!DOCTYPE svg PUBLIC "-//W3C//DTD SVG 1.1//EN"
 "http://www.w3.org/Graphics/SVG/1.1/DTD/svg11.dtd">
<!-- Generated by graphviz version 14.1.4 (0)
 -->
<!-- Title: FSceneComponentInstanceData Pages: 1 -->
<svg width="1013pt" height="591pt"
 viewBox="0.00 0.00 1013.00 591.00" xmlns="http://www.w3.org/2000/svg" xmlns:xlink="http://www.w3.org/1999/xlink">
<g id="graph0" class="graph" transform="scale(1 1) rotate(0) translate(4 587.25)">
<title>FSceneComponentInstanceData</title>
<!-- Node1 -->
<g id="Node000001" class="node">
<title>Node1</title>
<g id="a_Node000001"><a xlink:title=" ">
<polygon fill="#999999" stroke="none" points="612.38,-493 428.62,-493 428.62,-325.5 612.38,-325.5 612.38,-493"/>
<text xml:space="preserve" text-anchor="start" x="442.5" y="-479.25" font-family="Helvetica,sans-Serif" font-size="10.00">FSceneComponentInstanceData</text>
<text xml:space="preserve" text-anchor="start" x="432.62" y="-462.5" font-family="Helvetica,sans-Serif" font-size="10.00">+</text>
<text xml:space="preserve" text-anchor="start" x="444.88" y="-462.5" font-family="Helvetica,sans-Serif" font-size="10.00">AttachedInstanceComponents</text>
<text xml:space="preserve" text-anchor="start" x="432.62" y="-445.75" font-family="Helvetica,sans-Serif" font-size="10.00">+</text>
<text xml:space="preserve" text-anchor="start" x="444.88" y="-445.75" font-family="Helvetica,sans-Serif" font-size="10.00">FSceneComponentInstanceData()</text>
<text xml:space="preserve" text-anchor="start" x="432.62" y="-429" font-family="Helvetica,sans-Serif" font-size="10.00">+</text>
<text xml:space="preserve" text-anchor="start" x="444.88" y="-429" font-family="Helvetica,sans-Serif" font-size="10.00">FSceneComponentInstanceData()</text>
<text xml:space="preserve" text-anchor="start" x="432.62" y="-412.25" font-family="Helvetica,sans-Serif" font-size="10.00">+</text>
<text xml:space="preserve" text-anchor="start" x="444.88" y="-412.25" font-family="Helvetica,sans-Serif" font-size="10.00">~FSceneComponentInstance</text>
<text xml:space="preserve" text-anchor="start" x="444.88" y="-399.5" font-family="Helvetica,sans-Serif" font-size="10.00">Data()</text>
<text xml:space="preserve" text-anchor="start" x="432.62" y="-382.75" font-family="Helvetica,sans-Serif" font-size="10.00">+</text>
<text xml:space="preserve" text-anchor="start" x="444.88" y="-382.75" font-family="Helvetica,sans-Serif" font-size="10.00">ContainsData()</text>
<text xml:space="preserve" text-anchor="start" x="432.62" y="-366" font-family="Helvetica,sans-Serif" font-size="10.00">+</text>
<text xml:space="preserve" text-anchor="start" x="444.88" y="-366" font-family="Helvetica,sans-Serif" font-size="10.00">ApplyToComponent()</text>
<text xml:space="preserve" text-anchor="start" x="432.62" y="-349.25" font-family="Helvetica,sans-Serif" font-size="10.00">+</text>
<text xml:space="preserve" text-anchor="start" x="444.88" y="-349.25" font-family="Helvetica,sans-Serif" font-size="10.00">FindAndReplaceInstances()</text>
<text xml:space="preserve" text-anchor="start" x="432.62" y="-332.5" font-family="Helvetica,sans-Serif" font-size="10.00">+</text>
<text xml:space="preserve" text-anchor="start" x="444.88" y="-332.5" font-family="Helvetica,sans-Serif" font-size="10.00">AddReferencedObjects()</text>
<polygon fill="#666666" stroke="#666666" points="428.62,-474.25 428.62,-474.25 612.38,-474.25 612.38,-474.25 428.62,-474.25"/>
<polygon fill="#666666" stroke="#666666" points="428.62,-457.5 428.62,-457.5 442.88,-457.5 442.88,-457.5 428.62,-457.5"/>
<polygon fill="#666666" stroke="#666666" points="442.88,-457.5 442.88,-457.5 612.38,-457.5 612.38,-457.5 442.88,-457.5"/>
<polygon fill="none" stroke="#666666" points="428.62,-325.5 428.62,-493 612.38,-493 612.38,-325.5 428.62,-325.5"/>
</a>
</g>
</g>
<!-- Node3 -->
<g id="Node000003" class="node">
<title>Node3</title>
<g id="a_Node000003"><a xlink:href="structFChildActorComponentInstanceData.html" target="_top" xlink:title=" ">
<polygon fill="white" stroke="none" points="185,-274.75 0,-274.75 0,-14.75 185,-14.75 185,-274.75"/>
<text xml:space="preserve" text-anchor="start" x="4" y="-261" font-family="Helvetica,sans-Serif" font-size="10.00">FChildActorComponentInstanceData</text>
<text xml:space="preserve" text-anchor="start" x="4.69" y="-244.25" font-family="Helvetica,sans-Serif" font-size="10.00">+</text>
<text xml:space="preserve" text-anchor="start" x="17.62" y="-244.25" font-family="Helvetica,sans-Serif" font-size="10.00">ChildActorClass</text>
<text xml:space="preserve" text-anchor="start" x="4.69" y="-227.5" font-family="Helvetica,sans-Serif" font-size="10.00">+</text>
<text xml:space="preserve" text-anchor="start" x="17.62" y="-227.5" font-family="Helvetica,sans-Serif" font-size="10.00">ChildActorName</text>
<text xml:space="preserve" text-anchor="start" x="4.69" y="-210.75" font-family="Helvetica,sans-Serif" font-size="10.00">+</text>
<text xml:space="preserve" text-anchor="start" x="17.62" y="-210.75" font-family="Helvetica,sans-Serif" font-size="10.00">AttachedActors</text>
<text xml:space="preserve" text-anchor="start" x="4.69" y="-194" font-family="Helvetica,sans-Serif" font-size="10.00">+</text>
<text xml:space="preserve" text-anchor="start" x="17.62" y="-194" font-family="Helvetica,sans-Serif" font-size="10.00">ChildActorGUID</text>
<text xml:space="preserve" text-anchor="start" x="4.69" y="-177.25" font-family="Helvetica,sans-Serif" font-size="10.00">+</text>
<text xml:space="preserve" text-anchor="start" x="17.62" y="-177.25" font-family="Helvetica,sans-Serif" font-size="10.00">ActorInstanceData</text>
<text xml:space="preserve" text-anchor="start" x="4.69" y="-160.5" font-family="Helvetica,sans-Serif" font-size="10.00">+</text>
<text xml:space="preserve" text-anchor="start" x="17.62" y="-160.5" font-family="Helvetica,sans-Serif" font-size="10.00">ComponentInstanceData</text>
<text xml:space="preserve" text-anchor="start" x="4.69" y="-143.75" font-family="Helvetica,sans-Serif" font-size="10.00">+</text>
<text xml:space="preserve" text-anchor="start" x="17.62" y="-143.75" font-family="Helvetica,sans-Serif" font-size="10.00">FChildActorComponentInstance</text>
<text xml:space="preserve" text-anchor="start" x="17.62" y="-131" font-family="Helvetica,sans-Serif" font-size="10.00">Data()</text>
<text xml:space="preserve" text-anchor="start" x="4.69" y="-114.25" font-family="Helvetica,sans-Serif" font-size="10.00">+</text>
<text xml:space="preserve" text-anchor="start" x="17.62" y="-114.25" font-family="Helvetica,sans-Serif" font-size="10.00">FChildActorComponentInstance</text>
<text xml:space="preserve" text-anchor="start" x="17.62" y="-101.5" font-family="Helvetica,sans-Serif" font-size="10.00">Data()</text>
<text xml:space="preserve" text-anchor="start" x="4.69" y="-84.75" font-family="Helvetica,sans-Serif" font-size="10.00">+</text>
<text xml:space="preserve" text-anchor="start" x="17.62" y="-84.75" font-family="Helvetica,sans-Serif" font-size="10.00">~FChildActorComponentInstance</text>
<text xml:space="preserve" text-anchor="start" x="17.62" y="-72" font-family="Helvetica,sans-Serif" font-size="10.00">Data()</text>
<text xml:space="preserve" text-anchor="start" x="4.69" y="-55.25" font-family="Helvetica,sans-Serif" font-size="10.00">+</text>
<text xml:space="preserve" text-anchor="start" x="17.62" y="-55.25" font-family="Helvetica,sans-Serif" font-size="10.00">ContainsData()</text>
<text xml:space="preserve" text-anchor="start" x="4.69" y="-38.5" font-family="Helvetica,sans-Serif" font-size="10.00">+</text>
<text xml:space="preserve" text-anchor="start" x="17.62" y="-38.5" font-family="Helvetica,sans-Serif" font-size="10.00">ApplyToComponent()</text>
<text xml:space="preserve" text-anchor="start" x="4.69" y="-21.75" font-family="Helvetica,sans-Serif" font-size="10.00">+</text>
<text xml:space="preserve" text-anchor="start" x="17.62" y="-21.75" font-family="Helvetica,sans-Serif" font-size="10.00">AddReferencedObjects()</text>
<polygon fill="#666666" stroke="#666666" points="0,-256 0,-256 185,-256 185,-256 0,-256"/>
<polygon fill="#666666" stroke="#666666" points="0,-155.5 0,-155.5 15.62,-155.5 15.62,-155.5 0,-155.5"/>
<polygon fill="#666666" stroke="#666666" points="15.62,-155.5 15.62,-155.5 185,-155.5 185,-155.5 15.62,-155.5"/>
<polygon fill="none" stroke="#666666" points="0,-14.75 0,-274.75 185,-274.75 185,-14.75 0,-14.75"/>
</a>
</g>
</g>
<!-- Node1&#45;&gt;Node3 -->
<g id="edge2_Node000001_Node000003" class="edge">
<title>Node1&#45;&gt;Node3</title>
<g id="a_edge2_Node000001_Node000003"><a xlink:title=" ">
<path fill="none" stroke="#63b8ff" d="M418.12,-388.06C349.37,-370.66 259.62,-340.12 193.5,-289.5 187.57,-284.96 181.84,-279.97 176.34,-274.66"/>
<polygon fill="none" stroke="#63b8ff" points="416.95,-391.38 427.5,-390.38 418.63,-384.58 416.95,-391.38"/>
</a>
</g>
</g>
<!-- Node4 -->
<g id="Node000004" class="node">
<title>Node4</title>
<g id="a_Node000004"><a xlink:href="structFInstancedSkinnedMeshComponentInstanceData.html" target="_top" xlink:title=" ">
<polygon fill="white" stroke="none" points="406.12,-289.5 202.88,-289.5 202.88,0 406.12,0 406.12,-289.5"/>
<text xml:space="preserve" text-anchor="start" x="217.12" y="-275.75" font-family="Helvetica,sans-Serif" font-size="10.00">FInstancedSkinnedMeshComponent</text>
<text xml:space="preserve" text-anchor="start" x="272.25" y="-263" font-family="Helvetica,sans-Serif" font-size="10.00">InstanceData</text>
<text xml:space="preserve" text-anchor="start" x="206.88" y="-246.25" font-family="Helvetica,sans-Serif" font-size="10.00">+</text>
<text xml:space="preserve" text-anchor="start" x="219.12" y="-246.25" font-family="Helvetica,sans-Serif" font-size="10.00">SkinnedAsset</text>
<text xml:space="preserve" text-anchor="start" x="206.88" y="-229.5" font-family="Helvetica,sans-Serif" font-size="10.00">+</text>
<text xml:space="preserve" text-anchor="start" x="219.12" y="-229.5" font-family="Helvetica,sans-Serif" font-size="10.00">InstanceData</text>
<text xml:space="preserve" text-anchor="start" x="206.88" y="-212.75" font-family="Helvetica,sans-Serif" font-size="10.00">+</text>
<text xml:space="preserve" text-anchor="start" x="219.12" y="-212.75" font-family="Helvetica,sans-Serif" font-size="10.00">SelectedInstances</text>
<text xml:space="preserve" text-anchor="start" x="206.88" y="-196" font-family="Helvetica,sans-Serif" font-size="10.00">+</text>
<text xml:space="preserve" text-anchor="start" x="219.12" y="-196" font-family="Helvetica,sans-Serif" font-size="10.00">bHasPerInstanceHitProxies</text>
<text xml:space="preserve" text-anchor="start" x="206.88" y="-179.25" font-family="Helvetica,sans-Serif" font-size="10.00">+</text>
<text xml:space="preserve" text-anchor="start" x="219.12" y="-179.25" font-family="Helvetica,sans-Serif" font-size="10.00">PrimitiveBoundsOverride</text>
<text xml:space="preserve" text-anchor="start" x="206.88" y="-162.5" font-family="Helvetica,sans-Serif" font-size="10.00">+</text>
<text xml:space="preserve" text-anchor="start" x="219.12" y="-162.5" font-family="Helvetica,sans-Serif" font-size="10.00">bIsInstanceDataGPUOnly</text>
<text xml:space="preserve" text-anchor="start" x="206.88" y="-145.75" font-family="Helvetica,sans-Serif" font-size="10.00">+</text>
<text xml:space="preserve" text-anchor="start" x="219.12" y="-145.75" font-family="Helvetica,sans-Serif" font-size="10.00">NumInstancesGPUOnly</text>
<text xml:space="preserve" text-anchor="start" x="206.88" y="-129" font-family="Helvetica,sans-Serif" font-size="10.00">+</text>
<text xml:space="preserve" text-anchor="start" x="219.12" y="-129" font-family="Helvetica,sans-Serif" font-size="10.00">FInstancedSkinnedMeshComponent</text>
<text xml:space="preserve" text-anchor="start" x="219.12" y="-116.25" font-family="Helvetica,sans-Serif" font-size="10.00">InstanceData()</text>
<text xml:space="preserve" text-anchor="start" x="206.88" y="-99.5" font-family="Helvetica,sans-Serif" font-size="10.00">+</text>
<text xml:space="preserve" text-anchor="start" x="219.12" y="-99.5" font-family="Helvetica,sans-Serif" font-size="10.00">FInstancedSkinnedMeshComponent</text>
<text xml:space="preserve" text-anchor="start" x="219.12" y="-86.75" font-family="Helvetica,sans-Serif" font-size="10.00">InstanceData()</text>
<text xml:space="preserve" text-anchor="start" x="206.88" y="-70" font-family="Helvetica,sans-Serif" font-size="10.00">+</text>
<text xml:space="preserve" text-anchor="start" x="219.12" y="-70" font-family="Helvetica,sans-Serif" font-size="10.00">~FInstancedSkinnedMeshComponent</text>
<text xml:space="preserve" text-anchor="start" x="219.12" y="-57.25" font-family="Helvetica,sans-Serif" font-size="10.00">InstanceData()</text>
<text xml:space="preserve" text-anchor="start" x="206.88" y="-40.5" font-family="Helvetica,sans-Serif" font-size="10.00">+</text>
<text xml:space="preserve" text-anchor="start" x="219.12" y="-40.5" font-family="Helvetica,sans-Serif" font-size="10.00">ContainsData()</text>
<text xml:space="preserve" text-anchor="start" x="206.88" y="-23.75" font-family="Helvetica,sans-Serif" font-size="10.00">+</text>
<text xml:space="preserve" text-anchor="start" x="219.12" y="-23.75" font-family="Helvetica,sans-Serif" font-size="10.00">ApplyToComponent()</text>
<text xml:space="preserve" text-anchor="start" x="206.88" y="-7" font-family="Helvetica,sans-Serif" font-size="10.00">+</text>
<text xml:space="preserve" text-anchor="start" x="219.12" y="-7" font-family="Helvetica,sans-Serif" font-size="10.00">AddReferencedObjects()</text>
<polygon fill="#666666" stroke="#666666" points="202.88,-258 202.88,-258 406.12,-258 406.12,-258 202.88,-258"/>
<polygon fill="#666666" stroke="#666666" points="202.88,-140.75 202.88,-140.75 217.12,-140.75 217.12,-140.75 202.88,-140.75"/>
<polygon fill="#666666" stroke="#666666" points="217.12,-140.75 217.12,-140.75 406.12,-140.75 406.12,-140.75 217.12,-140.75"/>
<polygon fill="none" stroke="#666666" points="202.88,0 202.88,-289.5 406.12,-289.5 406.12,0 202.88,0"/>
</a>
</g>
</g>
<!-- Node1&#45;&gt;Node4 -->
<g id="edge3_Node000001_Node000004" class="edge">
<title>Node1&#45;&gt;Node4</title>
<g id="a_edge3_Node000001_Node000004"><a xlink:title=" ">
<path fill="none" stroke="#63b8ff" d="M438.98,-317.29C430.96,-307.97 423.02,-298.59 415.5,-289.5 412.39,-285.73 409.24,-281.9 406.08,-278.01"/>
<polygon fill="none" stroke="#63b8ff" points="436.17,-319.39 445.36,-324.67 441.47,-314.81 436.17,-319.39"/>
</a>
</g>
</g>
<!-- Node5 -->
<g id="Node000005" class="node">
<title>Node5</title>
<g id="a_Node000005"><a xlink:href="structFInstancedStaticMeshComponentInstanceData.html" target="_top" xlink:title=" ">
<polygon fill="white" stroke="none" points="616.5,-289.5 424.5,-289.5 424.5,0 616.5,0 616.5,-289.5"/>
<text xml:space="preserve" text-anchor="start" x="438.75" y="-275.75" font-family="Helvetica,sans-Serif" font-size="10.00">FInstancedStaticMeshComponent</text>
<text xml:space="preserve" text-anchor="start" x="488.25" y="-263" font-family="Helvetica,sans-Serif" font-size="10.00">InstanceData</text>
<text xml:space="preserve" text-anchor="start" x="428.5" y="-246.25" font-family="Helvetica,sans-Serif" font-size="10.00">+</text>
<text xml:space="preserve" text-anchor="start" x="440.75" y="-246.25" font-family="Helvetica,sans-Serif" font-size="10.00">StaticMesh</text>
<text xml:space="preserve" text-anchor="start" x="428.5" y="-229.5" font-family="Helvetica,sans-Serif" font-size="10.00">+</text>
<text xml:space="preserve" text-anchor="start" x="440.75" y="-229.5" font-family="Helvetica,sans-Serif" font-size="10.00">CachedStaticLighting</text>
<text xml:space="preserve" text-anchor="start" x="428.5" y="-212.75" font-family="Helvetica,sans-Serif" font-size="10.00">+</text>
<text xml:space="preserve" text-anchor="start" x="440.75" y="-212.75" font-family="Helvetica,sans-Serif" font-size="10.00">PerInstanceSMData</text>
<text xml:space="preserve" text-anchor="start" x="428.5" y="-196" font-family="Helvetica,sans-Serif" font-size="10.00">+</text>
<text xml:space="preserve" text-anchor="start" x="440.75" y="-196" font-family="Helvetica,sans-Serif" font-size="10.00">SelectedInstances</text>
<text xml:space="preserve" text-anchor="start" x="428.5" y="-179.25" font-family="Helvetica,sans-Serif" font-size="10.00">+</text>
<text xml:space="preserve" text-anchor="start" x="440.75" y="-179.25" font-family="Helvetica,sans-Serif" font-size="10.00">InstancingRandomSeed</text>
<text xml:space="preserve" text-anchor="start" x="428.5" y="-162.5" font-family="Helvetica,sans-Serif" font-size="10.00">+</text>
<text xml:space="preserve" text-anchor="start" x="440.75" y="-162.5" font-family="Helvetica,sans-Serif" font-size="10.00">AdditionalRandomSeeds</text>
<text xml:space="preserve" text-anchor="start" x="428.5" y="-145.75" font-family="Helvetica,sans-Serif" font-size="10.00">+</text>
<text xml:space="preserve" text-anchor="start" x="440.75" y="-145.75" font-family="Helvetica,sans-Serif" font-size="10.00">bHasPerInstanceHitProxies</text>
<text xml:space="preserve" text-anchor="start" x="428.5" y="-129" font-family="Helvetica,sans-Serif" font-size="10.00">+</text>
<text xml:space="preserve" text-anchor="start" x="440.75" y="-129" font-family="Helvetica,sans-Serif" font-size="10.00">FInstancedStaticMeshComponent</text>
<text xml:space="preserve" text-anchor="start" x="440.75" y="-116.25" font-family="Helvetica,sans-Serif" font-size="10.00">InstanceData()</text>
<text xml:space="preserve" text-anchor="start" x="428.5" y="-99.5" font-family="Helvetica,sans-Serif" font-size="10.00">+</text>
<text xml:space="preserve" text-anchor="start" x="440.75" y="-99.5" font-family="Helvetica,sans-Serif" font-size="10.00">FInstancedStaticMeshComponent</text>
<text xml:space="preserve" text-anchor="start" x="440.75" y="-86.75" font-family="Helvetica,sans-Serif" font-size="10.00">InstanceData()</text>
<text xml:space="preserve" text-anchor="start" x="428.5" y="-70" font-family="Helvetica,sans-Serif" font-size="10.00">+</text>
<text xml:space="preserve" text-anchor="start" x="440.75" y="-70" font-family="Helvetica,sans-Serif" font-size="10.00">~FInstancedStaticMeshComponent</text>
<text xml:space="preserve" text-anchor="start" x="440.75" y="-57.25" font-family="Helvetica,sans-Serif" font-size="10.00">InstanceData()</text>
<text xml:space="preserve" text-anchor="start" x="428.5" y="-40.5" font-family="Helvetica,sans-Serif" font-size="10.00">+</text>
<text xml:space="preserve" text-anchor="start" x="440.75" y="-40.5" font-family="Helvetica,sans-Serif" font-size="10.00">ContainsData()</text>
<text xml:space="preserve" text-anchor="start" x="428.5" y="-23.75" font-family="Helvetica,sans-Serif" font-size="10.00">+</text>
<text xml:space="preserve" text-anchor="start" x="440.75" y="-23.75" font-family="Helvetica,sans-Serif" font-size="10.00">ApplyToComponent()</text>
<text xml:space="preserve" text-anchor="start" x="428.5" y="-7" font-family="Helvetica,sans-Serif" font-size="10.00">+</text>
<text xml:space="preserve" text-anchor="start" x="440.75" y="-7" font-family="Helvetica,sans-Serif" font-size="10.00">AddReferencedObjects()</text>
<polygon fill="#666666" stroke="#666666" points="424.5,-258 424.5,-258 616.5,-258 616.5,-258 424.5,-258"/>
<polygon fill="#666666" stroke="#666666" points="424.5,-140.75 424.5,-140.75 438.75,-140.75 438.75,-140.75 424.5,-140.75"/>
<polygon fill="#666666" stroke="#666666" points="438.75,-140.75 438.75,-140.75 616.5,-140.75 616.5,-140.75 438.75,-140.75"/>
<polygon fill="none" stroke="#666666" points="424.5,0 424.5,-289.5 616.5,-289.5 616.5,0 424.5,0"/>
</a>
</g>
</g>
<!-- Node1&#45;&gt;Node5 -->
<g id="edge4_Node000001_Node000005" class="edge">
<title>Node1&#45;&gt;Node5</title>
<g id="a_edge4_Node000001_Node000005"><a xlink:title=" ">
<path fill="none" stroke="#63b8ff" d="M520.5,-314.12C520.5,-305.92 520.5,-297.51 520.5,-289.04"/>
<polygon fill="none" stroke="#63b8ff" points="517,-314.04 520.5,-324.04 524,-314.04 517,-314.04"/>
</a>
</g>
</g>
<!-- Node6 -->
<g id="Node000006" class="node">
<title>Node6</title>
<g id="a_Node000006"><a xlink:href="structFPrecomputedLightInstanceData.html" target="_top" xlink:title=" ">
<polygon fill="white" stroke="none" points="802,-249.62 635,-249.62 635,-39.88 802,-39.88 802,-249.62"/>
<text xml:space="preserve" text-anchor="start" x="639" y="-235.88" font-family="Helvetica,sans-Serif" font-size="10.00">FPrecomputedLightInstanceData</text>
<text xml:space="preserve" text-anchor="start" x="639.69" y="-219.12" font-family="Helvetica,sans-Serif" font-size="10.00">+</text>
<text xml:space="preserve" text-anchor="start" x="652.62" y="-219.12" font-family="Helvetica,sans-Serif" font-size="10.00">Transform</text>
<text xml:space="preserve" text-anchor="start" x="639.69" y="-202.38" font-family="Helvetica,sans-Serif" font-size="10.00">+</text>
<text xml:space="preserve" text-anchor="start" x="652.62" y="-202.38" font-family="Helvetica,sans-Serif" font-size="10.00">OriginalLightGuid</text>
<text xml:space="preserve" text-anchor="start" x="639.69" y="-185.62" font-family="Helvetica,sans-Serif" font-size="10.00">+</text>
<text xml:space="preserve" text-anchor="start" x="652.62" y="-185.62" font-family="Helvetica,sans-Serif" font-size="10.00">LightGuid</text>
<text xml:space="preserve" text-anchor="start" x="639.69" y="-168.88" font-family="Helvetica,sans-Serif" font-size="10.00">+</text>
<text xml:space="preserve" text-anchor="start" x="652.62" y="-168.88" font-family="Helvetica,sans-Serif" font-size="10.00">PreviewShadowMapChannel</text>
<text xml:space="preserve" text-anchor="start" x="639.69" y="-152.12" font-family="Helvetica,sans-Serif" font-size="10.00">+</text>
<text xml:space="preserve" text-anchor="start" x="652.62" y="-152.12" font-family="Helvetica,sans-Serif" font-size="10.00">FPrecomputedLightInstance</text>
<text xml:space="preserve" text-anchor="start" x="652.62" y="-139.38" font-family="Helvetica,sans-Serif" font-size="10.00">Data()</text>
<text xml:space="preserve" text-anchor="start" x="639.69" y="-122.62" font-family="Helvetica,sans-Serif" font-size="10.00">+</text>
<text xml:space="preserve" text-anchor="start" x="652.62" y="-122.62" font-family="Helvetica,sans-Serif" font-size="10.00">FPrecomputedLightInstance</text>
<text xml:space="preserve" text-anchor="start" x="652.62" y="-109.88" font-family="Helvetica,sans-Serif" font-size="10.00">Data()</text>
<text xml:space="preserve" text-anchor="start" x="639.69" y="-93.12" font-family="Helvetica,sans-Serif" font-size="10.00">+</text>
<text xml:space="preserve" text-anchor="start" x="652.62" y="-93.12" font-family="Helvetica,sans-Serif" font-size="10.00">~FPrecomputedLightInstance</text>
<text xml:space="preserve" text-anchor="start" x="652.62" y="-80.38" font-family="Helvetica,sans-Serif" font-size="10.00">Data()</text>
<text xml:space="preserve" text-anchor="start" x="639.69" y="-63.62" font-family="Helvetica,sans-Serif" font-size="10.00">+</text>
<text xml:space="preserve" text-anchor="start" x="652.62" y="-63.62" font-family="Helvetica,sans-Serif" font-size="10.00">ContainsData()</text>
<text xml:space="preserve" text-anchor="start" x="639.69" y="-46.88" font-family="Helvetica,sans-Serif" font-size="10.00">+</text>
<text xml:space="preserve" text-anchor="start" x="652.62" y="-46.88" font-family="Helvetica,sans-Serif" font-size="10.00">ApplyToComponent()</text>
<polygon fill="#666666" stroke="#666666" points="635,-230.88 635,-230.88 802,-230.88 802,-230.88 635,-230.88"/>
<polygon fill="#666666" stroke="#666666" points="635,-163.88 635,-163.88 650.62,-163.88 650.62,-163.88 635,-163.88"/>
<polygon fill="#666666" stroke="#666666" points="650.62,-163.88 650.62,-163.88 802,-163.88 802,-163.88 650.62,-163.88"/>
<polygon fill="none" stroke="#666666" points="635,-39.88 635,-249.62 802,-249.62 802,-39.88 635,-39.88"/>
</a>
</g>
</g>
<!-- Node1&#45;&gt;Node6 -->
<g id="edge5_Node000001_Node000006" class="edge">
<title>Node1&#45;&gt;Node6</title>
<g id="a_edge5_Node000001_Node000006"><a xlink:title=" ">
<path fill="none" stroke="#63b8ff" d="M603.69,-316.88C611.24,-307.78 618.63,-298.55 625.5,-289.5 635.11,-276.83 644.77,-263.18 654.03,-249.51"/>
<polygon fill="none" stroke="#63b8ff" points="601.12,-314.49 597.37,-324.4 606.48,-318.99 601.12,-314.49"/>
</a>
</g>
</g>
<!-- Node7 -->
<g id="Node000007" class="node">
<title>Node7</title>
<g id="a_Node000007"><a xlink:href="structFPrecomputedSkyLightInstanceData.html" target="_top" xlink:title=" ">
<polygon fill="white" stroke="none" points="1004.62,-258 820.38,-258 820.38,-31.5 1004.62,-31.5 1004.62,-258"/>
<text xml:space="preserve" text-anchor="start" x="824.38" y="-244.25" font-family="Helvetica,sans-Serif" font-size="10.00">FPrecomputedSkyLightInstanceData</text>
<text xml:space="preserve" text-anchor="start" x="825.06" y="-227.5" font-family="Helvetica,sans-Serif" font-size="10.00">+</text>
<text xml:space="preserve" text-anchor="start" x="838" y="-227.5" font-family="Helvetica,sans-Serif" font-size="10.00">OriginalLightGuid</text>
<text xml:space="preserve" text-anchor="start" x="825.06" y="-210.75" font-family="Helvetica,sans-Serif" font-size="10.00">+</text>
<text xml:space="preserve" text-anchor="start" x="838" y="-210.75" font-family="Helvetica,sans-Serif" font-size="10.00">LightGuid</text>
<text xml:space="preserve" text-anchor="start" x="825.06" y="-194" font-family="Helvetica,sans-Serif" font-size="10.00">+</text>
<text xml:space="preserve" text-anchor="start" x="838" y="-194" font-family="Helvetica,sans-Serif" font-size="10.00">AverageBrightness</text>
<text xml:space="preserve" text-anchor="start" x="825.06" y="-177.25" font-family="Helvetica,sans-Serif" font-size="10.00">+</text>
<text xml:space="preserve" text-anchor="start" x="838" y="-177.25" font-family="Helvetica,sans-Serif" font-size="10.00">ProcessedSkyTexture</text>
<text xml:space="preserve" text-anchor="start" x="825.06" y="-160.5" font-family="Helvetica,sans-Serif" font-size="10.00">+</text>
<text xml:space="preserve" text-anchor="start" x="838" y="-160.5" font-family="Helvetica,sans-Serif" font-size="10.00">IrradianceEnvironmentMap</text>
<text xml:space="preserve" text-anchor="start" x="825.06" y="-143.75" font-family="Helvetica,sans-Serif" font-size="10.00">+</text>
<text xml:space="preserve" text-anchor="start" x="838" y="-143.75" font-family="Helvetica,sans-Serif" font-size="10.00">FPrecomputedSkyLightInstance</text>
<text xml:space="preserve" text-anchor="start" x="838" y="-131" font-family="Helvetica,sans-Serif" font-size="10.00">Data()</text>
<text xml:space="preserve" text-anchor="start" x="825.06" y="-114.25" font-family="Helvetica,sans-Serif" font-size="10.00">+</text>
<text xml:space="preserve" text-anchor="start" x="838" y="-114.25" font-family="Helvetica,sans-Serif" font-size="10.00">FPrecomputedSkyLightInstance</text>
<text xml:space="preserve" text-anchor="start" x="838" y="-101.5" font-family="Helvetica,sans-Serif" font-size="10.00">Data()</text>
<text xml:space="preserve" text-anchor="start" x="825.06" y="-84.75" font-family="Helvetica,sans-Serif" font-size="10.00">+</text>
<text xml:space="preserve" text-anchor="start" x="838" y="-84.75" font-family="Helvetica,sans-Serif" font-size="10.00">~FPrecomputedSkyLightInstance</text>
<text xml:space="preserve" text-anchor="start" x="838" y="-72" font-family="Helvetica,sans-Serif" font-size="10.00">Data()</text>
<text xml:space="preserve" text-anchor="start" x="825.06" y="-55.25" font-family="Helvetica,sans-Serif" font-size="10.00">+</text>
<text xml:space="preserve" text-anchor="start" x="838" y="-55.25" font-family="Helvetica,sans-Serif" font-size="10.00">ContainsData()</text>
<text xml:space="preserve" text-anchor="start" x="825.06" y="-38.5" font-family="Helvetica,sans-Serif" font-size="10.00">+</text>
<text xml:space="preserve" text-anchor="start" x="838" y="-38.5" font-family="Helvetica,sans-Serif" font-size="10.00">ApplyToComponent()</text>
<polygon fill="#666666" stroke="#666666" points="820.38,-239.25 820.38,-239.25 1004.62,-239.25 1004.62,-239.25 820.38,-239.25"/>
<polygon fill="#666666" stroke="#666666" points="820.38,-155.5 820.38,-155.5 836,-155.5 836,-155.5 820.38,-155.5"/>
<polygon fill="#666666" stroke="#666666" points="836,-155.5 836,-155.5 1004.62,-155.5 1004.62,-155.5 836,-155.5"/>
<polygon fill="none" stroke="#666666" points="820.38,-31.5 820.38,-258 1004.62,-258 1004.62,-31.5 820.38,-31.5"/>
</a>
</g>
</g>
<!-- Node1&#45;&gt;Node7 -->
<g id="edge6_Node000001_Node000007" class="edge">
<title>Node1&#45;&gt;Node7</title>
<g id="a_edge6_Node000001_Node000007"><a xlink:title=" ">
<path fill="none" stroke="#63b8ff" d="M623.04,-382.15C682.49,-363.39 756.26,-333.52 811.5,-289.5 823.07,-280.28 833.88,-269.39 843.8,-257.8"/>
<polygon fill="none" stroke="#63b8ff" points="622.08,-378.79 613.56,-385.08 624.15,-385.48 622.08,-378.79"/>
</a>
</g>
</g>
<!-- Node2 -->
<g id="Node000002" class="node">
<title>Node2</title>
<g id="a_Node000002"><a xlink:title=" ">
<polygon fill="white" stroke="none" points="599.88,-583.25 441.12,-583.25 441.12,-529 599.88,-529 599.88,-583.25"/>
<text xml:space="preserve" text-anchor="start" x="445.12" y="-569.5" font-family="Helvetica,sans-Serif" font-size="10.00">FActorComponentInstanceData</text>
<text xml:space="preserve" text-anchor="start" x="517.5" y="-552.75" font-family="Helvetica,sans-Serif" font-size="10.00"> </text>
<text xml:space="preserve" text-anchor="start" x="517.5" y="-536" font-family="Helvetica,sans-Serif" font-size="10.00"> </text>
<polygon fill="#666666" stroke="#666666" points="441.12,-564.5 441.12,-564.5 599.88,-564.5 599.88,-564.5 441.12,-564.5"/>
<polygon fill="#666666" stroke="#666666" points="441.12,-547.75 441.12,-547.75 599.88,-547.75 599.88,-547.75 441.12,-547.75"/>
<polygon fill="none" stroke="#666666" points="441.12,-529 441.12,-583.25 599.88,-583.25 599.88,-529 441.12,-529"/>
</a>
</g>
</g>
<!-- Node2&#45;&gt;Node1 -->
<g id="edge1_Node000001_Node000002" class="edge">
<title>Node2&#45;&gt;Node1</title>
<g id="a_edge1_Node000001_Node000002"><a xlink:title=" ">
<path fill="none" stroke="#63b8ff" d="M520.5,-517.95C520.5,-510.1 520.5,-501.52 520.5,-492.75"/>
<polygon fill="none" stroke="#63b8ff" points="517,-517.71 520.5,-527.71 524,-517.71 517,-517.71"/>
</a>
</g>
</g>
</g>
</svg>
