<?xml version="1.0" encoding="UTF-8" standalone="no"?>
<!DOCTYPE svg PUBLIC "-//W3C//DTD SVG 1.1//EN"
 "http://www.w3.org/Graphics/SVG/1.1/DTD/svg11.dtd">
<!-- Generated by graphviz version 14.1.4 (0)
 -->
<!-- Title: FAttributeCurve::CanEvaluate Pages: 1 -->
<svg width="520pt" height="80pt"
 viewBox="0.00 0.00 520.00 80.00" xmlns="http://www.w3.org/2000/svg" xmlns:xlink="http://www.w3.org/1999/xlink">
<g id="graph0" class="graph" transform="scale(1 1) rotate(0) translate(4 76.12)">
<title>FAttributeCurve::CanEvaluate</title>
<!-- Node1 -->
<g id="Node000001" class="node">
<title>Node1</title>
<g id="a_Node000001"><a xlink:title=" ">
<polygon fill="#999999" stroke="#666666" points="512.25,-49.12 353,-49.12 353,-28.38 512.25,-28.38 512.25,-49.12"/>
<text xml:space="preserve" text-anchor="middle" x="432.62" y="-35.62" font-family="Helvetica,sans-Serif" font-size="10.00">FAttributeCurve::CanEvaluate</text>
</a>
</g>
</g>
<!-- Node2 -->
<g id="Node000002" class="node">
<title>Node2</title>
<g id="a_Node000002"><a xlink:href="structFAttributeCurve.html#ae9b6664ec769f83fc664550f3985f192" target="_top" xlink:title=" ">
<polygon fill="white" stroke="#666666" points="317,-55.5 176.5,-55.5 176.5,-22 317,-22 317,-55.5"/>
<text xml:space="preserve" text-anchor="start" x="184.5" y="-42" font-family="Helvetica,sans-Serif" font-size="10.00">FAttributeCurve::Evaluate</text>
<text xml:space="preserve" text-anchor="middle" x="246.75" y="-29.25" font-family="Helvetica,sans-Serif" font-size="10.00">ToPtr</text>
</a>
</g>
</g>
<!-- Node1&#45;&gt;Node2 -->
<g id="edge1_Node000001_Node000002" class="edge">
<title>Node1&#45;&gt;Node2</title>
<g id="a_edge1_Node000001_Node000002"><a xlink:title=" ">
<path fill="none" stroke="#63b8ff" d="M341.29,-38.75C333.28,-38.75 325.26,-38.75 317.46,-38.75"/>
<polygon fill="#63b8ff" stroke="#63b8ff" points="341.06,-42.25 351.06,-38.75 341.06,-35.25 341.06,-42.25"/>
</a>
</g>
</g>
<!-- Node3 -->
<g id="Node000003" class="node">
<title>Node3</title>
<g id="a_Node000003"><a xlink:href="structFAttributeCurve.html#a1c280f3f3ed33e0f9dcb38fef21da23b" target="_top" xlink:title=" ">
<polygon fill="white" stroke="#666666" points="140.5,-72.12 0,-72.12 0,-51.38 140.5,-51.38 140.5,-72.12"/>
<text xml:space="preserve" text-anchor="middle" x="70.25" y="-58.62" font-family="Helvetica,sans-Serif" font-size="10.00">FAttributeCurve::Evaluate</text>
</a>
</g>
</g>
<!-- Node2&#45;&gt;Node3 -->
<g id="edge2_Node000002_Node000003" class="edge">
<title>Node2&#45;&gt;Node3</title>
<g id="a_edge2_Node000002_Node000003"><a xlink:title=" ">
<path fill="none" stroke="#63b8ff" d="M164.8,-49.42C156.8,-50.47 148.73,-51.54 140.86,-52.58"/>
<polygon fill="#63b8ff" stroke="#63b8ff" points="165.07,-52.91 174.53,-48.14 164.16,-45.97 165.07,-52.91"/>
</a>
</g>
</g>
<!-- Node4 -->
<g id="Node000004" class="node">
<title>Node4</title>
<g id="a_Node000004"><a xlink:href="structFAttributeCurve.html#a8a1b2a8b07c80c99d73c02ad836a7bee" target="_top" xlink:title=" ">
<polygon fill="white" stroke="#666666" points="140.5,-33.5 0,-33.5 0,0 140.5,0 140.5,-33.5"/>
<text xml:space="preserve" text-anchor="start" x="8" y="-20" font-family="Helvetica,sans-Serif" font-size="10.00">FAttributeCurve::Readjust</text>
<text xml:space="preserve" text-anchor="middle" x="70.25" y="-7.25" font-family="Helvetica,sans-Serif" font-size="10.00">TimeRange</text>
</a>
</g>
</g>
<!-- Node2&#45;&gt;Node4 -->
<g id="edge3_Node000002_Node000004" class="edge">
<title>Node2&#45;&gt;Node4</title>
<g id="a_edge3_Node000002_Node000004"><a xlink:title=" ">
<path fill="none" stroke="#63b8ff" d="M164.8,-28.54C156.8,-27.54 148.73,-26.52 140.86,-25.53"/>
<polygon fill="#63b8ff" stroke="#63b8ff" points="164.17,-31.99 174.53,-29.77 165.05,-25.05 164.17,-31.99"/>
</a>
</g>
</g>
</g>
</svg>
