<?xml version="1.0" encoding="UTF-8" standalone="no"?>
<!DOCTYPE svg PUBLIC "-//W3C//DTD SVG 1.1//EN"
 "http://www.w3.org/Graphics/SVG/1.1/DTD/svg11.dtd">
<!-- Generated by graphviz version 14.1.4 (0)
 -->
<!-- Title: FTimerHandle::operator== Pages: 1 -->
<svg width="351pt" height="47pt"
 viewBox="0.00 0.00 351.00 47.00" xmlns="http://www.w3.org/2000/svg" xmlns:xlink="http://www.w3.org/1999/xlink">
<g id="graph0" class="graph" transform="scale(1 1) rotate(0) translate(4 42.75)">
<title>FTimerHandle::operator==</title>
<!-- Node1 -->
<g id="Node000001" class="node">
<title>Node1</title>
<g id="a_Node000001"><a xlink:title=" ">
<polygon fill="#999999" stroke="#666666" points="148,-20.75 0,-20.75 0,0 148,0 148,-20.75"/>
<text xml:space="preserve" text-anchor="middle" x="74" y="-7.25" font-family="Helvetica,sans-Serif" font-size="10.00">FTimerHandle::operator==</text>
</a>
</g>
</g>
<!-- Node2 -->
<g id="Node000002" class="node">
<title>Node2</title>
<g id="a_Node000002"><a xlink:href="structFTimerHandle.html#a90c1c8dd8db4e14ebd7e0663de3df786" target="_top" xlink:title=" ">
<polygon fill="white" stroke="#666666" points="342.5,-20.75 184,-20.75 184,0 342.5,0 342.5,-20.75"/>
<text xml:space="preserve" text-anchor="middle" x="263.25" y="-7.25" font-family="Helvetica,sans-Serif" font-size="10.00">FTimerHandle::FTimerHandle</text>
</a>
</g>
</g>
<!-- Node1&#45;&gt;Node2 -->
<g id="edge1_Node000001_Node000002" class="edge">
<title>Node1&#45;&gt;Node2</title>
<g id="a_edge1_Node000001_Node000002"><a xlink:title=" ">
<path fill="none" stroke="#63b8ff" d="M148.47,-10.38C156.34,-10.38 164.41,-10.38 172.44,-10.38"/>
<polygon fill="#63b8ff" stroke="#63b8ff" points="172.23,-13.88 182.23,-10.38 172.23,-6.88 172.23,-13.88"/>
</a>
</g>
</g>
<!-- Node2&#45;&gt;Node2 -->
<g id="edge2_Node000002_Node000002" class="edge">
<title>Node2&#45;&gt;Node2</title>
<g id="a_edge2_Node000002_Node000002"><a xlink:title=" ">
<path fill="none" stroke="#63b8ff" d="M232.76,-21.15C220.56,-29.81 230.72,-38.75 263.25,-38.75 281.04,-38.75 292.14,-36.08 296.55,-32.24"/>
<polygon fill="#63b8ff" stroke="#63b8ff" points="299.96,-31.45 294.12,-22.61 293.18,-33.17 299.96,-31.45"/>
</a>
</g>
</g>
</g>
</svg>
