<?xml version="1.0" encoding="UTF-8" standalone="no"?>
<!DOCTYPE svg PUBLIC "-//W3C//DTD SVG 1.1//EN"
 "http://www.w3.org/Graphics/SVG/1.1/DTD/svg11.dtd">
<!-- Generated by graphviz version 14.1.4 (0)
 -->
<!-- Title: FPrimaryAssetRules::FPrimaryAssetRules Pages: 1 -->
<svg width="288pt" height="164pt"
 viewBox="0.00 0.00 288.00 164.00" xmlns="http://www.w3.org/2000/svg" xmlns:xlink="http://www.w3.org/1999/xlink">

<svg id="main" version="1.1" xmlns="http://www.w3.org/2000/svg" xmlns:xlink="http://www.w3.org/1999/xlink" xml:space="preserve">

<style type="text/css"><![CDATA[
.node, .edge {opacity: 0.7;}
.node.selected, .edge.selected {opacity: 1;}
.edge:hover path { stroke: red; }
.edge:hover polygon { stroke: red; fill: red; }
]]></style>
<script type="application/ecmascript" xlink:href="svg.min.js"/>
<svg id="graph" class="graph">
<g id="graph0" class="graph" transform="scale(1 1) rotate(0) translate(4 159.5)">
<title>FPrimaryAssetRules::FPrimaryAssetRules</title>
<!-- Node1 -->
<g id="Node000001" class="node">
<title>Node1</title>
<g id="a_Node000001"><a xlink:title=" ">
<polygon fill="#999999" stroke="#666666" points="279.5,-85.5 159.25,-85.5 159.25,-52 279.5,-52 279.5,-85.5"/>
<text xml:space="preserve" text-anchor="start" x="167.25" y="-72" font-family="Helvetica,sans-Serif" font-size="10.00">FPrimaryAssetRules</text>
<text xml:space="preserve" text-anchor="middle" x="219.38" y="-59.25" font-family="Helvetica,sans-Serif" font-size="10.00">::FPrimaryAssetRules</text>
</a>
</g>
</g>
<!-- Node1&#45;&gt;Node1 -->
<g id="edge1_Node000001_Node000001" class="edge">
<title>Node1&#45;&gt;Node1</title>
<g id="a_edge1_Node000001_Node000001"><a xlink:title=" ">
<path fill="none" stroke="#63b8ff" d="M245.86,-96.89C241.55,-100.85 232.72,-103.5 219.38,-103.5 195.65,-103.5 186.2,-95.12 191.02,-85.91"/>
<polygon fill="#63b8ff" stroke="#63b8ff" points="249.25,-97.85 247.48,-87.41 242.35,-96.68 249.25,-97.85"/>
</a>
</g>
</g>
<!-- Node2 -->
<g id="Node000002" class="node">
<title>Node2</title>
<g id="a_Node000002"><a xlink:href="structFPrimaryAssetRules.html#a98532d25dbec1920993ad088c86ea8a0" target="_top" xlink:title=" ">
<polygon fill="white" stroke="#666666" points="118.75,-155.5 4.5,-155.5 4.5,-122 118.75,-122 118.75,-155.5"/>
<text xml:space="preserve" text-anchor="start" x="12.5" y="-142" font-family="Helvetica,sans-Serif" font-size="10.00">FPrimaryAssetRules</text>
<text xml:space="preserve" text-anchor="middle" x="61.62" y="-129.25" font-family="Helvetica,sans-Serif" font-size="10.00">::operator==</text>
</a>
</g>
</g>
<!-- Node1&#45;&gt;Node2 -->
<g id="edge2_Node000001_Node000002" class="edge">
<title>Node1&#45;&gt;Node2</title>
<g id="a_edge2_Node000001_Node000002"><a xlink:title=" ">
<path fill="none" stroke="#63b8ff" d="M171.59,-90.71C156.23,-97.83 139.05,-105.71 123.25,-112.75 116.76,-115.64 109.86,-118.66 103.13,-121.57"/>
<polygon fill="#63b8ff" stroke="#63b8ff" points="172.93,-93.94 180.52,-86.55 169.98,-87.6 172.93,-93.94"/>
</a>
</g>
</g>
<!-- Node3 -->
<g id="Node000003" class="node">
<title>Node3</title>
<g id="a_Node000003"><a xlink:href="structFPrimaryAssetRules.html#a566e2721008bbf80b5860ca65ab95d69" target="_top" xlink:title=" ">
<polygon fill="white" stroke="#666666" points="118.75,-85.5 4.5,-85.5 4.5,-52 118.75,-52 118.75,-85.5"/>
<text xml:space="preserve" text-anchor="start" x="12.5" y="-72" font-family="Helvetica,sans-Serif" font-size="10.00">FPrimaryAssetRules</text>
<text xml:space="preserve" text-anchor="middle" x="61.62" y="-59.25" font-family="Helvetica,sans-Serif" font-size="10.00">::OverrideRules</text>
</a>
</g>
</g>
<!-- Node1&#45;&gt;Node3 -->
<g id="edge3_Node000001_Node000003" class="edge">
<title>Node1&#45;&gt;Node3</title>
<g id="a_edge3_Node000001_Node000003"><a xlink:title=" ">
<path fill="none" stroke="#63b8ff" d="M147.57,-68.75C138.07,-68.75 128.43,-68.75 119.22,-68.75"/>
<polygon fill="#63b8ff" stroke="#63b8ff" points="147.53,-72.25 157.53,-68.75 147.53,-65.25 147.53,-72.25"/>
</a>
</g>
</g>
<!-- Node4 -->
<g id="Node000004" class="node">
<title>Node4</title>
<g id="a_Node000004"><a xlink:href="structFPrimaryAssetRules.html#a379c5ee2bee57c3550aa86eec5cf37e8" target="_top" xlink:title=" ">
<polygon fill="white" stroke="#666666" points="123.25,-33.5 0,-33.5 0,0 123.25,0 123.25,-33.5"/>
<text xml:space="preserve" text-anchor="start" x="8" y="-20" font-family="Helvetica,sans-Serif" font-size="10.00">FPrimaryAssetRules</text>
<text xml:space="preserve" text-anchor="middle" x="61.62" y="-7.25" font-family="Helvetica,sans-Serif" font-size="10.00">::PropagateCookRules</text>
</a>
</g>
</g>
<!-- Node1&#45;&gt;Node4 -->
<g id="edge5_Node000001_Node000004" class="edge">
<title>Node1&#45;&gt;Node4</title>
<g id="a_edge5_Node000001_Node000004"><a xlink:title=" ">
<path fill="none" stroke="#63b8ff" d="M156.43,-48.07C142.46,-43.4 127.77,-38.5 114.27,-33.99"/>
<polygon fill="#63b8ff" stroke="#63b8ff" points="154.92,-51.25 165.51,-51.1 157.13,-44.61 154.92,-51.25"/>
</a>
</g>
</g>
<!-- Node3&#45;&gt;Node3 -->
<g id="edge4_Node000003_Node000003" class="edge">
<title>Node3&#45;&gt;Node3</title>
<g id="a_edge4_Node000003_Node000003"><a xlink:title=" ">
<path fill="none" stroke="#63b8ff" d="M88.11,-96.89C83.8,-100.85 74.97,-103.5 61.62,-103.5 37.9,-103.5 28.45,-95.12 33.27,-85.91"/>
<polygon fill="#63b8ff" stroke="#63b8ff" points="91.5,-97.85 89.73,-87.41 84.6,-96.68 91.5,-97.85"/>
</a>
</g>
</g>
</g>
</svg>
</svg>

<style type='text/css'>
<![CDATA[
[data-mouse-over-selected='false'] { opacity: 0.7; }
[data-mouse-over-selected='true']  { opacity: 1.0; }
]]>
</style>
<script type="application/ecmascript"><![CDATA[
document.addEventListener('DOMContentLoaded', (event) => {
  highlightEdges();
  highlightAdjacentNodes();
});
]]></script>
</svg>
