<?xml version="1.0" encoding="UTF-8" standalone="no"?>
<!DOCTYPE svg PUBLIC "-//W3C//DTD SVG 1.1//EN"
 "http://www.w3.org/Graphics/SVG/1.1/DTD/svg11.dtd">
<!-- Generated by graphviz version 14.1.4 (0)
 -->
<!-- Title: FKeyHandleMap::FKeyHandleMap Pages: 1 -->
<svg width="406pt" height="185pt"
 viewBox="0.00 0.00 406.00 185.00" xmlns="http://www.w3.org/2000/svg" xmlns:xlink="http://www.w3.org/1999/xlink">

<svg id="main" version="1.1" xmlns="http://www.w3.org/2000/svg" xmlns:xlink="http://www.w3.org/1999/xlink" xml:space="preserve">

<style type="text/css"><![CDATA[
.node, .edge {opacity: 0.7;}
.node.selected, .edge.selected {opacity: 1;}
.edge:hover path { stroke: red; }
.edge:hover polygon { stroke: red; fill: red; }
]]></style>
<script type="application/ecmascript" xlink:href="svg.min.js"/>
<svg id="graph" class="graph">
<g id="graph0" class="graph" transform="scale(1 1) rotate(0) translate(4 180.75)">
<title>FKeyHandleMap::FKeyHandleMap</title>
<!-- Node1 -->
<g id="Node000001" class="node">
<title>Node1</title>
<g id="a_Node000001"><a xlink:title=" ">
<polygon fill="#999999" stroke="#666666" points="398,-98.75 217,-98.75 217,-78 398,-78 398,-98.75"/>
<text xml:space="preserve" text-anchor="middle" x="307.5" y="-85.25" font-family="Helvetica,sans-Serif" font-size="10.00">FKeyHandleMap::FKeyHandleMap</text>
</a>
</g>
</g>
<!-- Node2 -->
<g id="Node000002" class="node">
<title>Node2</title>
<g id="a_Node000002"><a xlink:href="structFKeyHandleMap.html#a80749af92ad8ea370c68fac804b91d33" target="_top" xlink:title=" ">
<polygon fill="white" stroke="#666666" points="181,-176.75 0,-176.75 0,-156 181,-156 181,-176.75"/>
<text xml:space="preserve" text-anchor="middle" x="90.5" y="-163.25" font-family="Helvetica,sans-Serif" font-size="10.00">FKeyHandleMap::FKeyHandleMap</text>
</a>
</g>
</g>
<!-- Node1&#45;&gt;Node2 -->
<g id="edge1_Node000001_Node000002" class="edge">
<title>Node1&#45;&gt;Node2</title>
<g id="a_edge1_Node000001_Node000002"><a xlink:title=" ">
<path fill="none" stroke="#63b8ff" d="M276.68,-104.36C251.71,-117.2 214.82,-134.93 181,-146.38 170.59,-149.9 159.3,-152.97 148.34,-155.59"/>
<polygon fill="#63b8ff" stroke="#63b8ff" points="278.02,-107.61 285.27,-99.88 274.78,-101.4 278.02,-107.61"/>
</a>
</g>
</g>
<!-- Node3 -->
<g id="Node000003" class="node">
<title>Node3</title>
<g id="a_Node000003"><a xlink:href="structFKeyHandleMap.html#a392e9991dc395b62ef381d42b85d41eb" target="_top" xlink:title=" ">
<polygon fill="white" stroke="#666666" points="167.88,-137.75 13.12,-137.75 13.12,-117 167.88,-117 167.88,-137.75"/>
<text xml:space="preserve" text-anchor="middle" x="90.5" y="-124.25" font-family="Helvetica,sans-Serif" font-size="10.00">FKeyHandleMap::operator!=</text>
</a>
</g>
</g>
<!-- Node1&#45;&gt;Node3 -->
<g id="edge2_Node000001_Node000003" class="edge">
<title>Node1&#45;&gt;Node3</title>
<g id="a_edge2_Node000001_Node000003"><a xlink:title=" ">
<path fill="none" stroke="#63b8ff" d="M235.58,-101.24C208.34,-106.18 177.55,-111.77 151.44,-116.5"/>
<polygon fill="#63b8ff" stroke="#63b8ff" points="235.91,-104.74 245.12,-99.51 234.66,-97.85 235.91,-104.74"/>
</a>
</g>
</g>
<!-- Node4 -->
<g id="Node000004" class="node">
<title>Node4</title>
<g id="a_Node000004"><a xlink:href="structFKeyHandleMap.html#a35340dff4a33d658a329fe83d78e2fc9" target="_top" xlink:title=" ">
<polygon fill="white" stroke="#666666" points="170.12,-98.75 10.88,-98.75 10.88,-78 170.12,-78 170.12,-98.75"/>
<text xml:space="preserve" text-anchor="middle" x="90.5" y="-85.25" font-family="Helvetica,sans-Serif" font-size="10.00">FKeyHandleMap::operator&lt;&lt;</text>
</a>
</g>
</g>
<!-- Node1&#45;&gt;Node4 -->
<g id="edge3_Node000001_Node000004" class="edge">
<title>Node1&#45;&gt;Node4</title>
<g id="a_edge3_Node000001_Node000004"><a xlink:title=" ">
<path fill="none" stroke="#63b8ff" d="M205.38,-88.38C193.66,-88.38 181.84,-88.38 170.48,-88.38"/>
<polygon fill="#63b8ff" stroke="#63b8ff" points="205.05,-91.88 215.05,-88.38 205.05,-84.88 205.05,-91.88"/>
</a>
</g>
</g>
<!-- Node5 -->
<g id="Node000005" class="node">
<title>Node5</title>
<g id="a_Node000005"><a xlink:href="structFKeyHandleMap.html#a84697a19a5a3bce08aefc77de090589b" target="_top" xlink:title=" ">
<polygon fill="white" stroke="#666666" points="166,-59.75 15,-59.75 15,-39 166,-39 166,-59.75"/>
<text xml:space="preserve" text-anchor="middle" x="90.5" y="-46.25" font-family="Helvetica,sans-Serif" font-size="10.00">FKeyHandleMap::operator=</text>
</a>
</g>
</g>
<!-- Node1&#45;&gt;Node5 -->
<g id="edge4_Node000001_Node000005" class="edge">
<title>Node1&#45;&gt;Node5</title>
<g id="a_edge4_Node000001_Node000005"><a xlink:title=" ">
<path fill="none" stroke="#63b8ff" d="M235.58,-75.51C208.34,-70.57 177.55,-64.98 151.44,-60.25"/>
<polygon fill="#63b8ff" stroke="#63b8ff" points="234.66,-78.9 245.12,-77.24 235.91,-72.01 234.66,-78.9"/>
</a>
</g>
</g>
<!-- Node6 -->
<g id="Node000006" class="node">
<title>Node6</title>
<g id="a_Node000006"><a xlink:href="structFKeyHandleMap.html#aad662e3c7745581a10022e123a80a216" target="_top" xlink:title=" ">
<polygon fill="white" stroke="#666666" points="170.12,-20.75 10.88,-20.75 10.88,0 170.12,0 170.12,-20.75"/>
<text xml:space="preserve" text-anchor="middle" x="90.5" y="-7.25" font-family="Helvetica,sans-Serif" font-size="10.00">FKeyHandleMap::operator==</text>
</a>
</g>
</g>
<!-- Node1&#45;&gt;Node6 -->
<g id="edge5_Node000001_Node000006" class="edge">
<title>Node1&#45;&gt;Node6</title>
<g id="a_edge5_Node000001_Node000006"><a xlink:title=" ">
<path fill="none" stroke="#63b8ff" d="M276.68,-72.39C251.71,-59.55 214.82,-41.82 181,-30.38 170.59,-26.85 159.3,-23.78 148.34,-21.16"/>
<polygon fill="#63b8ff" stroke="#63b8ff" points="274.78,-75.35 285.27,-76.87 278.02,-69.14 274.78,-75.35"/>
</a>
</g>
</g>
</g>
</svg>
</svg>

<style type='text/css'>
<![CDATA[
[data-mouse-over-selected='false'] { opacity: 0.7; }
[data-mouse-over-selected='true']  { opacity: 1.0; }
]]>
</style>
<script type="application/ecmascript"><![CDATA[
document.addEventListener('DOMContentLoaded', (event) => {
  highlightEdges();
  highlightAdjacentNodes();
});
]]></script>
</svg>
