<?xml version="1.0" encoding="UTF-8" standalone="no"?>
<!DOCTYPE svg PUBLIC "-//W3C//DTD SVG 1.1//EN"
 "http://www.w3.org/Graphics/SVG/1.1/DTD/svg11.dtd">
<!-- Generated by graphviz version 14.1.4 (0)
 -->
<!-- Title: FReverbSettings::FReverbSettings Pages: 1 -->
<svg width="347pt" height="72pt"
 viewBox="0.00 0.00 347.00 72.00" xmlns="http://www.w3.org/2000/svg" xmlns:xlink="http://www.w3.org/1999/xlink">
<g id="graph0" class="graph" transform="scale(1 1) rotate(0) translate(4 68.12)">
<title>FReverbSettings::FReverbSettings</title>
<!-- Node1 -->
<g id="Node000001" class="node">
<title>Node1</title>
<g id="a_Node000001"><a xlink:title=" ">
<polygon fill="#999999" stroke="#666666" points="338.75,-46.12 196,-46.12 196,-12.62 338.75,-12.62 338.75,-46.12"/>
<text xml:space="preserve" text-anchor="start" x="204" y="-32.62" font-family="Helvetica,sans-Serif" font-size="10.00">FReverbSettings::FReverb</text>
<text xml:space="preserve" text-anchor="middle" x="267.38" y="-19.88" font-family="Helvetica,sans-Serif" font-size="10.00">Settings</text>
</a>
</g>
</g>
<!-- Node1&#45;&gt;Node1 -->
<g id="edge1_Node000001_Node000001" class="edge">
<title>Node1&#45;&gt;Node1</title>
<g id="a_edge1_Node000001_Node000001"><a xlink:title=" ">
<path fill="none" stroke="#63b8ff" d="M298.84,-57.51C293.71,-61.47 283.23,-64.12 267.38,-64.12 239.2,-64.12 227.97,-55.74 233.69,-46.54"/>
<polygon fill="#63b8ff" stroke="#63b8ff" points="302.2,-58.52 300.76,-48.02 295.34,-57.13 302.2,-58.52"/>
</a>
</g>
</g>
<!-- Node2 -->
<g id="Node000002" class="node">
<title>Node2</title>
<g id="a_Node000002"><a xlink:href="structFReverbSettings.html#a99d14fcb117d5f3ea93af499ef5520fe" target="_top" xlink:title=" ">
<polygon fill="white" stroke="#666666" points="157.75,-59.75 2.25,-59.75 2.25,-39 157.75,-39 157.75,-59.75"/>
<text xml:space="preserve" text-anchor="middle" x="80" y="-46.25" font-family="Helvetica,sans-Serif" font-size="10.00">FReverbSettings::operator!=</text>
</a>
</g>
</g>
<!-- Node1&#45;&gt;Node2 -->
<g id="edge2_Node000001_Node000002" class="edge">
<title>Node1&#45;&gt;Node2</title>
<g id="a_edge2_Node000001_Node000002"><a xlink:title=" ">
<path fill="none" stroke="#63b8ff" d="M184.41,-38.22C175.7,-39.16 166.87,-40.11 158.21,-41.04"/>
<polygon fill="#63b8ff" stroke="#63b8ff" points="184.69,-41.71 194.26,-37.16 183.94,-34.75 184.69,-41.71"/>
</a>
</g>
</g>
<!-- Node3 -->
<g id="Node000003" class="node">
<title>Node3</title>
<g id="a_Node000003"><a xlink:href="structFReverbSettings.html#aedd0c7aa729833863b72743da07524fd" target="_top" xlink:title=" ">
<polygon fill="white" stroke="#666666" points="160,-20.75 0,-20.75 0,0 160,0 160,-20.75"/>
<text xml:space="preserve" text-anchor="middle" x="80" y="-7.25" font-family="Helvetica,sans-Serif" font-size="10.00">FReverbSettings::operator==</text>
</a>
</g>
</g>
<!-- Node1&#45;&gt;Node3 -->
<g id="edge3_Node000001_Node000003" class="edge">
<title>Node1&#45;&gt;Node3</title>
<g id="a_edge3_Node000001_Node000003"><a xlink:title=" ">
<path fill="none" stroke="#63b8ff" d="M184.53,-20.99C176.51,-20.16 168.39,-19.33 160.4,-18.51"/>
<polygon fill="#63b8ff" stroke="#63b8ff" points="183.95,-24.45 194.26,-21.98 184.67,-17.48 183.95,-24.45"/>
</a>
</g>
</g>
</g>
</svg>
