<?xml version="1.0" encoding="UTF-8" standalone="no"?>
<!DOCTYPE svg PUBLIC "-//W3C//DTD SVG 1.1//EN"
 "http://www.w3.org/Graphics/SVG/1.1/DTD/svg11.dtd">
<!-- Generated by graphviz version 14.1.4 (0)
 -->
<!-- Title: FPoseContext::InitializeImpl Pages: 1 -->
<svg width="547pt" height="151pt"
 viewBox="0.00 0.00 547.00 151.00" xmlns="http://www.w3.org/2000/svg" xmlns:xlink="http://www.w3.org/1999/xlink">
<g id="graph0" class="graph" transform="scale(1 1) rotate(0) translate(4 146.75)">
<title>FPoseContext::InitializeImpl</title>
<!-- Node1 -->
<g id="Node000001" class="node">
<title>Node1</title>
<g id="a_Node000001"><a xlink:title=" ">
<polygon fill="#999999" stroke="#666666" points="539.25,-95.75 386,-95.75 386,-75 539.25,-75 539.25,-95.75"/>
<text xml:space="preserve" text-anchor="middle" x="462.62" y="-82.25" font-family="Helvetica,sans-Serif" font-size="10.00">FPoseContext::InitializeImpl</text>
</a>
</g>
</g>
<!-- Node2 -->
<g id="Node000002" class="node">
<title>Node2</title>
<g id="a_Node000002"><a xlink:href="structFPoseContext.html#ad3436b8bd614b73fe20a00dc7628bf85" target="_top" xlink:title=" ">
<polygon fill="white" stroke="#666666" points="157,-142.75 0,-142.75 0,-122 157,-122 157,-142.75"/>
<text xml:space="preserve" text-anchor="middle" x="78.5" y="-129.25" font-family="Helvetica,sans-Serif" font-size="10.00">FPoseContext::FPoseContext</text>
</a>
</g>
</g>
<!-- Node1&#45;&gt;Node2 -->
<g id="edge1_Node000001_Node000002" class="edge">
<title>Node1&#45;&gt;Node2</title>
<g id="a_edge1_Node000001_Node000002"><a xlink:title=" ">
<path fill="none" stroke="#63b8ff" d="M426.29,-100.4C404.68,-108.82 376.24,-118.58 350,-123.38 285.87,-135.09 211.79,-136.75 157.39,-135.81"/>
<polygon fill="#63b8ff" stroke="#63b8ff" points="427.53,-103.67 435.51,-96.71 424.93,-97.17 427.53,-103.67"/>
</a>
</g>
</g>
<!-- Node3 -->
<g id="Node000003" class="node">
<title>Node3</title>
<g id="a_Node000003"><a xlink:href="structFPoseContext.html#ac8f973ad2e15d9b7216f6dac997a8242" target="_top" xlink:title=" ">
<polygon fill="white" stroke="#666666" points="350,-114.75 193,-114.75 193,-94 350,-94 350,-114.75"/>
<text xml:space="preserve" text-anchor="middle" x="271.5" y="-101.25" font-family="Helvetica,sans-Serif" font-size="10.00">FPoseContext::FPoseContext</text>
</a>
</g>
</g>
<!-- Node1&#45;&gt;Node3 -->
<g id="edge2_Node000001_Node000003" class="edge">
<title>Node1&#45;&gt;Node3</title>
<g id="a_edge2_Node000001_Node000003"><a xlink:title=" ">
<path fill="none" stroke="#63b8ff" d="M374.28,-94.15C366.28,-94.95 358.21,-95.76 350.3,-96.56"/>
<polygon fill="#63b8ff" stroke="#63b8ff" points="374.41,-97.65 384.01,-93.17 373.71,-90.69 374.41,-97.65"/>
</a>
</g>
</g>
<!-- Node4 -->
<g id="Node000004" class="node">
<title>Node4</title>
<g id="a_Node000004"><a xlink:href="structFPoseContext.html#a29cdb31cf523b02bc4cef77f938cf5a7" target="_top" xlink:title=" ">
<polygon fill="white" stroke="#666666" points="148,-94.75 9,-94.75 9,-74 148,-74 148,-94.75"/>
<text xml:space="preserve" text-anchor="middle" x="78.5" y="-81.25" font-family="Helvetica,sans-Serif" font-size="10.00">FPoseContext::operator=</text>
</a>
</g>
</g>
<!-- Node1&#45;&gt;Node4 -->
<g id="edge7_Node000001_Node000004" class="edge">
<title>Node1&#45;&gt;Node4</title>
<g id="a_edge7_Node000001_Node000004"><a xlink:title=" ">
<path fill="none" stroke="#63b8ff" d="M374.46,-85.15C305.87,-84.97 211.59,-84.72 148.25,-84.55"/>
<polygon fill="#63b8ff" stroke="#63b8ff" points="374.15,-88.65 384.16,-85.17 374.17,-81.65 374.15,-88.65"/>
</a>
</g>
</g>
<!-- Node5 -->
<g id="Node000005" class="node">
<title>Node5</title>
<g id="a_Node000005"><a xlink:href="structFPoseContext.html#a084fcacc3e6cc532f106e723a56fbab5" target="_top" xlink:title=" ">
<polygon fill="white" stroke="#666666" points="337.25,-20.75 205.75,-20.75 205.75,0 337.25,0 337.25,-20.75"/>
<text xml:space="preserve" text-anchor="middle" x="271.5" y="-7.25" font-family="Helvetica,sans-Serif" font-size="10.00">FPoseContext::Initialize</text>
</a>
</g>
</g>
<!-- Node1&#45;&gt;Node5 -->
<g id="edge5_Node000001_Node000005" class="edge">
<title>Node1&#45;&gt;Node5</title>
<g id="a_edge5_Node000001_Node000005"><a xlink:title=" ">
<path fill="none" stroke="#63b8ff" d="M424.25,-70.55C387.6,-56.02 332.6,-34.21 299.85,-21.22"/>
<polygon fill="#63b8ff" stroke="#63b8ff" points="422.54,-73.64 433.12,-74.07 425.12,-67.13 422.54,-73.64"/>
</a>
</g>
</g>
<!-- Node3&#45;&gt;Node2 -->
<g id="edge3_Node000003_Node000002" class="edge">
<title>Node3&#45;&gt;Node2</title>
<g id="a_edge3_Node000003_Node000002"><a xlink:title=" ">
<path fill="none" stroke="#63b8ff" d="M185.07,-116.9C174.57,-118.44 163.9,-120 153.58,-121.52"/>
<polygon fill="#63b8ff" stroke="#63b8ff" points="185.5,-120.37 194.88,-115.46 184.48,-113.45 185.5,-120.37"/>
</a>
</g>
</g>
<!-- Node3&#45;&gt;Node4 -->
<g id="edge4_Node000003_Node000004" class="edge">
<title>Node3&#45;&gt;Node4</title>
<g id="a_edge4_Node000003_Node000004"><a xlink:title=" ">
<path fill="none" stroke="#63b8ff" d="M181.12,-95.02C170.1,-93.86 158.97,-92.7 148.33,-91.58"/>
<polygon fill="#63b8ff" stroke="#63b8ff" points="180.72,-98.49 191.03,-96.05 181.45,-91.53 180.72,-98.49"/>
</a>
</g>
</g>
<!-- Node5&#45;&gt;Node5 -->
<g id="edge6_Node000005_Node000005" class="edge">
<title>Node5&#45;&gt;Node5</title>
<g id="a_edge6_Node000005_Node000005"><a xlink:title=" ">
<path fill="none" stroke="#63b8ff" d="M305.13,-32.24C300.67,-36.08 289.46,-38.75 271.5,-38.75 238.65,-38.75 228.38,-29.81 240.7,-21.15"/>
<polygon fill="#63b8ff" stroke="#63b8ff" points="308.54,-31.44 302.67,-22.61 301.76,-33.17 308.54,-31.44"/>
</a>
</g>
</g>
</g>
</svg>
