<?xml version="1.0" encoding="UTF-8" standalone="no"?>
<!DOCTYPE svg PUBLIC "-//W3C//DTD SVG 1.1//EN"
 "http://www.w3.org/Graphics/SVG/1.1/DTD/svg11.dtd">
<!-- Generated by graphviz version 14.1.4 (0)
 -->
<!-- Title: FFloatAnimationAttribute Pages: 1 -->
<svg width="165pt" height="216pt"
 viewBox="0.00 0.00 165.00 216.00" xmlns="http://www.w3.org/2000/svg" xmlns:xlink="http://www.w3.org/1999/xlink">
<g id="graph0" class="graph" transform="scale(1 1) rotate(0) translate(4 211.5)">
<title>FFloatAnimationAttribute</title>
<!-- Node1 -->
<g id="Node000001" class="node">
<title>Node1</title>
<g id="a_Node000001"><a xlink:title=" ">
<polygon fill="#999999" stroke="none" points="144.5,-207.5 12.75,-207.5 12.75,-103 144.5,-103 144.5,-207.5"/>
<text xml:space="preserve" text-anchor="start" x="16.75" y="-193.75" font-family="Helvetica,sans-Serif" font-size="10.00">FFloatAnimationAttribute</text>
<text xml:space="preserve" text-anchor="start" x="26.06" y="-177" font-family="Helvetica,sans-Serif" font-size="10.00">+</text>
<text xml:space="preserve" text-anchor="start" x="47.62" y="-177" font-family="Helvetica,sans-Serif" font-size="10.00">Value</text>
<text xml:space="preserve" text-anchor="start" x="26.06" y="-160.25" font-family="Helvetica,sans-Serif" font-size="10.00">+</text>
<text xml:space="preserve" text-anchor="start" x="47.62" y="-160.25" font-family="Helvetica,sans-Serif" font-size="10.00">Accumulate()</text>
<text xml:space="preserve" text-anchor="start" x="26.06" y="-143.5" font-family="Helvetica,sans-Serif" font-size="10.00">+</text>
<text xml:space="preserve" text-anchor="start" x="47.62" y="-143.5" font-family="Helvetica,sans-Serif" font-size="10.00">MakeAdditive()</text>
<text xml:space="preserve" text-anchor="start" x="26.06" y="-126.75" font-family="Helvetica,sans-Serif" font-size="10.00">+</text>
<text xml:space="preserve" text-anchor="start" x="47.62" y="-126.75" font-family="Helvetica,sans-Serif" font-size="10.00">Multiply()</text>
<text xml:space="preserve" text-anchor="start" x="26.06" y="-110" font-family="Helvetica,sans-Serif" font-size="10.00">+</text>
<text xml:space="preserve" text-anchor="start" x="47.62" y="-110" font-family="Helvetica,sans-Serif" font-size="10.00">Interpolate()</text>
<polygon fill="#666666" stroke="#666666" points="12.75,-188.75 12.75,-188.75 144.5,-188.75 144.5,-188.75 12.75,-188.75"/>
<polygon fill="#666666" stroke="#666666" points="12.75,-172 12.75,-172 45.62,-172 45.62,-172 12.75,-172"/>
<polygon fill="#666666" stroke="#666666" points="45.62,-172 45.62,-172 144.5,-172 144.5,-172 45.62,-172"/>
<polygon fill="none" stroke="#666666" points="12.75,-103 12.75,-207.5 144.5,-207.5 144.5,-103 12.75,-103"/>
</a>
</g>
</g>
<!-- Node2 -->
<g id="Node000002" class="node">
<title>Node2</title>
<g id="a_Node000002"><a xlink:href="structFNonBlendableFloatAnimationAttribute.html" target="_top" xlink:title=" ">
<polygon fill="white" stroke="none" points="157.25,-67 0,-67 0,0 157.25,0 157.25,-67"/>
<text xml:space="preserve" text-anchor="start" x="4" y="-53.25" font-family="Helvetica,sans-Serif" font-size="10.00">FNonBlendableFloatAnimation</text>
<text xml:space="preserve" text-anchor="start" x="57.25" y="-40.5" font-family="Helvetica,sans-Serif" font-size="10.00">Attribute</text>
<text xml:space="preserve" text-anchor="start" x="75.62" y="-23.75" font-family="Helvetica,sans-Serif" font-size="10.00"> </text>
<text xml:space="preserve" text-anchor="start" x="75.62" y="-7" font-family="Helvetica,sans-Serif" font-size="10.00"> </text>
<polygon fill="#666666" stroke="#666666" points="0,-35.5 0,-35.5 157.25,-35.5 157.25,-35.5 0,-35.5"/>
<polygon fill="#666666" stroke="#666666" points="0,-18.75 0,-18.75 157.25,-18.75 157.25,-18.75 0,-18.75"/>
<polygon fill="none" stroke="#666666" points="0,0 0,-67 157.25,-67 157.25,0 0,0"/>
</a>
</g>
</g>
<!-- Node1&#45;&gt;Node2 -->
<g id="edge1_Node000001_Node000002" class="edge">
<title>Node1&#45;&gt;Node2</title>
<g id="a_edge1_Node000001_Node000002"><a xlink:title=" ">
<path fill="none" stroke="#63b8ff" d="M78.62,-91.77C78.62,-83.12 78.62,-74.54 78.62,-66.76"/>
<polygon fill="none" stroke="#63b8ff" points="75.13,-91.6 78.63,-101.6 82.13,-91.6 75.13,-91.6"/>
</a>
</g>
</g>
</g>
</svg>
