<?xml version="1.0" encoding="UTF-8" standalone="no"?>
<!DOCTYPE svg PUBLIC "-//W3C//DTD SVG 1.1//EN"
 "http://www.w3.org/Graphics/SVG/1.1/DTD/svg11.dtd">
<!-- Generated by graphviz version 14.1.4 (0)
 -->
<!-- Title: FAnimBlueprintFunction::FAnimBlueprintFunction Pages: 1 -->
<svg width="321pt" height="146pt"
 viewBox="0.00 0.00 321.00 146.00" xmlns="http://www.w3.org/2000/svg" xmlns:xlink="http://www.w3.org/1999/xlink">
<g id="graph0" class="graph" transform="scale(1 1) rotate(0) translate(4 141.5)">
<title>FAnimBlueprintFunction::FAnimBlueprintFunction</title>
<!-- Node1 -->
<g id="Node000001" class="node">
<title>Node1</title>
<g id="a_Node000001"><a xlink:title=" ">
<polygon fill="#999999" stroke="#666666" points="312.5,-85.5 174.25,-85.5 174.25,-52 312.5,-52 312.5,-85.5"/>
<text xml:space="preserve" text-anchor="start" x="182.25" y="-72" font-family="Helvetica,sans-Serif" font-size="10.00">FAnimBlueprintFunction</text>
<text xml:space="preserve" text-anchor="middle" x="243.38" y="-59.25" font-family="Helvetica,sans-Serif" font-size="10.00">::FAnimBlueprintFunction</text>
</a>
</g>
</g>
<!-- Node1&#45;&gt;Node1 -->
<g id="edge1_Node000001_Node000001" class="edge">
<title>Node1&#45;&gt;Node1</title>
<g id="a_edge1_Node000001_Node000001"><a xlink:title=" ">
<path fill="none" stroke="#63b8ff" d="M272.63,-96.89C267.87,-100.85 258.12,-103.5 243.38,-103.5 217.17,-103.5 206.73,-95.12 212.05,-85.91"/>
<polygon fill="#63b8ff" stroke="#63b8ff" points="276.01,-97.88 274.42,-87.4 269.13,-96.58 276.01,-97.88"/>
</a>
</g>
</g>
<!-- Node2 -->
<g id="Node000002" class="node">
<title>Node2</title>
<g id="a_Node000002"><a xlink:href="structFAnimBlueprintFunction.html#a85ffe0c269a51a307f69aa027e05ab85" target="_top" xlink:title=" ">
<polygon fill="white" stroke="#666666" points="138.25,-137.5 0,-137.5 0,-104 138.25,-104 138.25,-137.5"/>
<text xml:space="preserve" text-anchor="start" x="8" y="-124" font-family="Helvetica,sans-Serif" font-size="10.00">FAnimBlueprintFunction</text>
<text xml:space="preserve" text-anchor="middle" x="69.12" y="-111.25" font-family="Helvetica,sans-Serif" font-size="10.00">::FAnimBlueprintFunction</text>
</a>
</g>
</g>
<!-- Node1&#45;&gt;Node2 -->
<g id="edge2_Node000001_Node000002" class="edge">
<title>Node1&#45;&gt;Node2</title>
<g id="a_edge2_Node000001_Node000002"><a xlink:title=" ">
<path fill="none" stroke="#63b8ff" d="M174.78,-89.16C159.05,-93.9 142.46,-98.91 127.24,-103.51"/>
<polygon fill="#63b8ff" stroke="#63b8ff" points="175.49,-92.6 184.05,-86.36 173.46,-85.9 175.49,-92.6"/>
</a>
</g>
</g>
<!-- Node3 -->
<g id="Node000003" class="node">
<title>Node3</title>
<g id="a_Node000003"><a xlink:href="structFAnimBlueprintFunction.html#acc5e8e0f46c76fc09f68d6efe160fc62" target="_top" xlink:title=" ">
<polygon fill="white" stroke="#666666" points="135.25,-85.5 3,-85.5 3,-52 135.25,-52 135.25,-85.5"/>
<text xml:space="preserve" text-anchor="start" x="11" y="-72" font-family="Helvetica,sans-Serif" font-size="10.00">FAnimBlueprintFunction</text>
<text xml:space="preserve" text-anchor="middle" x="69.12" y="-59.25" font-family="Helvetica,sans-Serif" font-size="10.00">::operator=</text>
</a>
</g>
</g>
<!-- Node1&#45;&gt;Node3 -->
<g id="edge3_Node000001_Node000003" class="edge">
<title>Node1&#45;&gt;Node3</title>
<g id="a_edge3_Node000001_Node000003"><a xlink:title=" ">
<path fill="none" stroke="#63b8ff" d="M162.5,-68.75C153.51,-68.75 144.43,-68.75 135.66,-68.75"/>
<polygon fill="#63b8ff" stroke="#63b8ff" points="162.29,-72.25 172.29,-68.75 162.29,-65.25 162.29,-72.25"/>
</a>
</g>
</g>
<!-- Node4 -->
<g id="Node000004" class="node">
<title>Node4</title>
<g id="a_Node000004"><a xlink:href="structFAnimBlueprintFunction.html#a54901022a17acd3cb21856d819979466" target="_top" xlink:title=" ">
<polygon fill="white" stroke="#666666" points="135.25,-33.5 3,-33.5 3,0 135.25,0 135.25,-33.5"/>
<text xml:space="preserve" text-anchor="start" x="11" y="-20" font-family="Helvetica,sans-Serif" font-size="10.00">FAnimBlueprintFunction</text>
<text xml:space="preserve" text-anchor="middle" x="69.12" y="-7.25" font-family="Helvetica,sans-Serif" font-size="10.00">::operator==</text>
</a>
</g>
</g>
<!-- Node1&#45;&gt;Node4 -->
<g id="edge4_Node000001_Node000004" class="edge">
<title>Node1&#45;&gt;Node4</title>
<g id="a_edge4_Node000001_Node000004"><a xlink:title=" ">
<path fill="none" stroke="#63b8ff" d="M174.78,-48.34C159.05,-43.6 142.46,-38.59 127.24,-33.99"/>
<polygon fill="#63b8ff" stroke="#63b8ff" points="173.46,-51.6 184.05,-51.14 175.49,-44.9 173.46,-51.6"/>
</a>
</g>
</g>
</g>
</svg>
