<?xml version="1.0" encoding="UTF-8" standalone="no"?>
<!DOCTYPE svg PUBLIC "-//W3C//DTD SVG 1.1//EN"
 "http://www.w3.org/Graphics/SVG/1.1/DTD/svg11.dtd">
<!-- Generated by graphviz version 14.1.4 (0)
 -->
<!-- Title: FHapticFeedbackDetails_Curve Pages: 1 -->
<svg width="410pt" height="1548pt"
 viewBox="0.00 0.00 410.00 1548.00" xmlns="http://www.w3.org/2000/svg" xmlns:xlink="http://www.w3.org/1999/xlink">
<g id="graph0" class="graph" transform="scale(1 1) rotate(0) translate(4 1544)">
<title>FHapticFeedbackDetails_Curve</title>
<!-- Node1 -->
<g id="Node000001" class="node">
<title>Node1</title>
<g id="a_Node000001"><a xlink:title=" ">
<polygon fill="#999999" stroke="none" points="160.12,-79.75 21.38,-79.75 21.38,0 160.12,0 160.12,-79.75"/>
<text xml:space="preserve" text-anchor="start" x="31.5" y="-66" font-family="Helvetica,sans-Serif" font-size="10.00">FHapticFeedbackDetails</text>
<text xml:space="preserve" text-anchor="start" x="73.88" y="-53.25" font-family="Helvetica,sans-Serif" font-size="10.00">_Curve</text>
<text xml:space="preserve" text-anchor="start" x="87.75" y="-36.5" font-family="Helvetica,sans-Serif" font-size="10.00"> </text>
<text xml:space="preserve" text-anchor="start" x="25.38" y="-19.75" font-family="Helvetica,sans-Serif" font-size="10.00">+</text>
<text xml:space="preserve" text-anchor="start" x="37.62" y="-19.75" font-family="Helvetica,sans-Serif" font-size="10.00">FHapticFeedbackDetails</text>
<text xml:space="preserve" text-anchor="start" x="37.62" y="-7" font-family="Helvetica,sans-Serif" font-size="10.00">_Curve()</text>
<polygon fill="#666666" stroke="#666666" points="21.38,-48.25 21.38,-48.25 160.12,-48.25 160.12,-48.25 21.38,-48.25"/>
<polygon fill="#666666" stroke="#666666" points="21.38,-31.5 21.38,-31.5 160.12,-31.5 160.12,-31.5 21.38,-31.5"/>
<polygon fill="none" stroke="#666666" points="21.38,0 21.38,-79.75 160.12,-79.75 160.12,0 21.38,0"/>
</a>
</g>
</g>
<!-- Node2 -->
<g id="Node000002" class="node">
<title>Node2</title>
<g id="a_Node000002"><a xlink:href="structFRuntimeFloatCurve.html" target="_top" xlink:title=" ">
<polygon fill="white" stroke="none" points="154.88,-239 26.62,-239 26.62,-151.25 154.88,-151.25 154.88,-239"/>
<text xml:space="preserve" text-anchor="start" x="40.5" y="-225.25" font-family="Helvetica,sans-Serif" font-size="10.00">FRuntimeFloatCurve</text>
<text xml:space="preserve" text-anchor="start" x="30.62" y="-208.5" font-family="Helvetica,sans-Serif" font-size="10.00">+</text>
<text xml:space="preserve" text-anchor="start" x="42.88" y="-208.5" font-family="Helvetica,sans-Serif" font-size="10.00">ExternalCurve</text>
<text xml:space="preserve" text-anchor="start" x="30.62" y="-191.75" font-family="Helvetica,sans-Serif" font-size="10.00">+</text>
<text xml:space="preserve" text-anchor="start" x="42.88" y="-191.75" font-family="Helvetica,sans-Serif" font-size="10.00">FRuntimeFloatCurve()</text>
<text xml:space="preserve" text-anchor="start" x="30.62" y="-175" font-family="Helvetica,sans-Serif" font-size="10.00">+</text>
<text xml:space="preserve" text-anchor="start" x="42.88" y="-175" font-family="Helvetica,sans-Serif" font-size="10.00">GetRichCurve()</text>
<text xml:space="preserve" text-anchor="start" x="30.62" y="-158.25" font-family="Helvetica,sans-Serif" font-size="10.00">+</text>
<text xml:space="preserve" text-anchor="start" x="42.88" y="-158.25" font-family="Helvetica,sans-Serif" font-size="10.00">GetRichCurveConst()</text>
<polygon fill="#666666" stroke="#666666" points="26.62,-220.25 26.62,-220.25 154.88,-220.25 154.88,-220.25 26.62,-220.25"/>
<polygon fill="#666666" stroke="#666666" points="26.62,-203.5 26.62,-203.5 40.88,-203.5 40.88,-203.5 26.62,-203.5"/>
<polygon fill="#666666" stroke="#666666" points="40.88,-203.5 40.88,-203.5 154.88,-203.5 154.88,-203.5 40.88,-203.5"/>
<polygon fill="none" stroke="#666666" points="26.62,-151.25 26.62,-239 154.88,-239 154.88,-151.25 26.62,-151.25"/>
</a>
</g>
</g>
<!-- Node2&#45;&gt;Node1 -->
<g id="edge1_Node000001_Node000002" class="edge">
<title>Node2&#45;&gt;Node1</title>
<g id="a_edge1_Node000001_Node000002"><a xlink:title=" ">
<path fill="none" stroke="#63b8ff" d="M90.75,-151.44C90.75,-133.16 90.75,-111.65 90.75,-92.49"/>
<polygon fill="none" stroke="#63b8ff" points="90.75,-92.57 86.75,-86.57 90.75,-80.57 94.75,-86.57 90.75,-92.57"/>
</a>
</g>
<text xml:space="preserve" text-anchor="start" x="93.75" y="-120.5" font-family="Helvetica,sans-Serif" font-size="10.00" fill="grey">+Amplitude</text>
<text xml:space="preserve" text-anchor="start" x="93.75" y="-103.75" font-family="Helvetica,sans-Serif" font-size="10.00" fill="grey">+Frequency</text>
</g>
<!-- Node3 -->
<g id="Node000003" class="node">
<title>Node3</title>
<g id="a_Node000003"><a xlink:href="structFRichCurve.html" target="_top" xlink:title=" ">
<polygon fill="white" stroke="none" points="181.5,-549 0,-549 0,-293.75 181.5,-293.75 181.5,-549"/>
<text xml:space="preserve" text-anchor="start" x="63" y="-535.25" font-family="Helvetica,sans-Serif" font-size="10.00">FRichCurve</text>
<text xml:space="preserve" text-anchor="start" x="4" y="-518.5" font-family="Helvetica,sans-Serif" font-size="10.00">+</text>
<text xml:space="preserve" text-anchor="start" x="16.25" y="-518.5" font-family="Helvetica,sans-Serif" font-size="10.00">Keys</text>
<text xml:space="preserve" text-anchor="start" x="4" y="-501.75" font-family="Helvetica,sans-Serif" font-size="10.00">+</text>
<text xml:space="preserve" text-anchor="start" x="16.25" y="-501.75" font-family="Helvetica,sans-Serif" font-size="10.00">GetCopyOfKeys()</text>
<text xml:space="preserve" text-anchor="start" x="4" y="-485" font-family="Helvetica,sans-Serif" font-size="10.00">+</text>
<text xml:space="preserve" text-anchor="start" x="16.25" y="-485" font-family="Helvetica,sans-Serif" font-size="10.00">GetConstRefOfKeys()</text>
<text xml:space="preserve" text-anchor="start" x="4" y="-468.25" font-family="Helvetica,sans-Serif" font-size="10.00">+</text>
<text xml:space="preserve" text-anchor="start" x="16.25" y="-468.25" font-family="Helvetica,sans-Serif" font-size="10.00">GetKeyIterator()</text>
<text xml:space="preserve" text-anchor="start" x="4" y="-451.5" font-family="Helvetica,sans-Serif" font-size="10.00">+</text>
<text xml:space="preserve" text-anchor="start" x="16.25" y="-451.5" font-family="Helvetica,sans-Serif" font-size="10.00">GetKey()</text>
<text xml:space="preserve" text-anchor="start" x="4" y="-434.75" font-family="Helvetica,sans-Serif" font-size="10.00">+</text>
<text xml:space="preserve" text-anchor="start" x="16.25" y="-434.75" font-family="Helvetica,sans-Serif" font-size="10.00">GetKey()</text>
<text xml:space="preserve" text-anchor="start" x="4" y="-418" font-family="Helvetica,sans-Serif" font-size="10.00">+</text>
<text xml:space="preserve" text-anchor="start" x="16.25" y="-418" font-family="Helvetica,sans-Serif" font-size="10.00">GetKeyRef()</text>
<text xml:space="preserve" text-anchor="start" x="4" y="-401.25" font-family="Helvetica,sans-Serif" font-size="10.00">+</text>
<text xml:space="preserve" text-anchor="start" x="16.25" y="-401.25" font-family="Helvetica,sans-Serif" font-size="10.00">GetFirstKey()</text>
<text xml:space="preserve" text-anchor="start" x="4" y="-384.5" font-family="Helvetica,sans-Serif" font-size="10.00">+</text>
<text xml:space="preserve" text-anchor="start" x="16.25" y="-384.5" font-family="Helvetica,sans-Serif" font-size="10.00">GetLastKey()</text>
<text xml:space="preserve" text-anchor="start" x="4" y="-367.75" font-family="Helvetica,sans-Serif" font-size="10.00">+</text>
<text xml:space="preserve" text-anchor="start" x="16.25" y="-367.75" font-family="Helvetica,sans-Serif" font-size="10.00">GetFirstMatchingKey()</text>
<text xml:space="preserve" text-anchor="start" x="4" y="-351" font-family="Helvetica,sans-Serif" font-size="10.00">+</text>
<text xml:space="preserve" text-anchor="start" x="16.25" y="-351" font-family="Helvetica,sans-Serif" font-size="10.00">AddKey()</text>
<text xml:space="preserve" text-anchor="start" x="16.25" y="-334.25" font-family="Helvetica,sans-Serif" font-size="10.00">and 35 more...</text>
<text xml:space="preserve" text-anchor="start" x="6.25" y="-317.5" font-family="Helvetica,sans-Serif" font-size="10.00">&#45;</text>
<text xml:space="preserve" text-anchor="start" x="16.25" y="-317.5" font-family="Helvetica,sans-Serif" font-size="10.00">RemoveRedundantKeysInternal()</text>
<text xml:space="preserve" text-anchor="start" x="6.25" y="-300.75" font-family="Helvetica,sans-Serif" font-size="10.00">&#45;</text>
<text xml:space="preserve" text-anchor="start" x="16.25" y="-300.75" font-family="Helvetica,sans-Serif" font-size="10.00">GetKeyIndex()</text>
<polygon fill="#666666" stroke="#666666" points="0,-530.25 0,-530.25 181.5,-530.25 181.5,-530.25 0,-530.25"/>
<polygon fill="#666666" stroke="#666666" points="0,-513.5 0,-513.5 14.25,-513.5 14.25,-513.5 0,-513.5"/>
<polygon fill="#666666" stroke="#666666" points="14.25,-513.5 14.25,-513.5 181.5,-513.5 181.5,-513.5 14.25,-513.5"/>
<polygon fill="none" stroke="#666666" points="0,-293.75 0,-549 181.5,-549 181.5,-293.75 0,-293.75"/>
</a>
</g>
</g>
<!-- Node3&#45;&gt;Node2 -->
<g id="edge2_Node000002_Node000003" class="edge">
<title>Node3&#45;&gt;Node2</title>
<g id="a_edge2_Node000002_Node000003"><a xlink:title=" ">
<path fill="none" stroke="#63b8ff" d="M90.75,-293.83C90.75,-279.08 90.75,-264.68 90.75,-251.65"/>
<polygon fill="none" stroke="#63b8ff" points="90.75,-251.52 86.75,-245.52 90.75,-239.52 94.75,-245.52 90.75,-251.52"/>
</a>
</g>
<text xml:space="preserve" text-anchor="start" x="93.75" y="-263" font-family="Helvetica,sans-Serif" font-size="10.00" fill="grey">+EditorCurveData</text>
</g>
<!-- Node4 -->
<g id="Node000004" class="node">
<title>Node4</title>
<g id="a_Node000004"><a xlink:href="structFRealCurve.html" target="_top" xlink:title=" ">
<polygon fill="white" stroke="none" points="153.75,-841.25 27.75,-841.25 27.75,-586 153.75,-586 153.75,-841.25"/>
<text xml:space="preserve" text-anchor="start" x="62.62" y="-827.5" font-family="Helvetica,sans-Serif" font-size="10.00">FRealCurve</text>
<text xml:space="preserve" text-anchor="start" x="31.75" y="-810.75" font-family="Helvetica,sans-Serif" font-size="10.00">+</text>
<text xml:space="preserve" text-anchor="start" x="44" y="-810.75" font-family="Helvetica,sans-Serif" font-size="10.00">GetKeyTimeValuePair</text>
<text xml:space="preserve" text-anchor="start" x="31.75" y="-794" font-family="Helvetica,sans-Serif" font-size="10.00">+</text>
<text xml:space="preserve" text-anchor="start" x="44" y="-794" font-family="Helvetica,sans-Serif" font-size="10.00">GetKeyInterpMode</text>
<text xml:space="preserve" text-anchor="start" x="31.75" y="-777.25" font-family="Helvetica,sans-Serif" font-size="10.00">+</text>
<text xml:space="preserve" text-anchor="start" x="44" y="-777.25" font-family="Helvetica,sans-Serif" font-size="10.00">DefaultValue</text>
<text xml:space="preserve" text-anchor="start" x="31.75" y="-760.5" font-family="Helvetica,sans-Serif" font-size="10.00">+</text>
<text xml:space="preserve" text-anchor="start" x="44" y="-760.5" font-family="Helvetica,sans-Serif" font-size="10.00">PreInfinityExtrap</text>
<text xml:space="preserve" text-anchor="start" x="31.75" y="-743.75" font-family="Helvetica,sans-Serif" font-size="10.00">+</text>
<text xml:space="preserve" text-anchor="start" x="44" y="-743.75" font-family="Helvetica,sans-Serif" font-size="10.00">PostInfinityExtrap</text>
<text xml:space="preserve" text-anchor="start" x="31.75" y="-727" font-family="Helvetica,sans-Serif" font-size="10.00">#</text>
<text xml:space="preserve" text-anchor="start" x="44" y="-727" font-family="Helvetica,sans-Serif" font-size="10.00">GetKeyIndex</text>
<text xml:space="preserve" text-anchor="start" x="31.75" y="-710.25" font-family="Helvetica,sans-Serif" font-size="10.00">+</text>
<text xml:space="preserve" text-anchor="start" x="44" y="-710.25" font-family="Helvetica,sans-Serif" font-size="10.00">FRealCurve()</text>
<text xml:space="preserve" text-anchor="start" x="31.75" y="-693.5" font-family="Helvetica,sans-Serif" font-size="10.00">+</text>
<text xml:space="preserve" text-anchor="start" x="44" y="-693.5" font-family="Helvetica,sans-Serif" font-size="10.00">HasAnyData()</text>
<text xml:space="preserve" text-anchor="start" x="31.75" y="-676.75" font-family="Helvetica,sans-Serif" font-size="10.00">+</text>
<text xml:space="preserve" text-anchor="start" x="44" y="-676.75" font-family="Helvetica,sans-Serif" font-size="10.00">FindKey()</text>
<text xml:space="preserve" text-anchor="start" x="31.75" y="-660" font-family="Helvetica,sans-Serif" font-size="10.00">+</text>
<text xml:space="preserve" text-anchor="start" x="44" y="-660" font-family="Helvetica,sans-Serif" font-size="10.00">KeyExistsAtTime()</text>
<text xml:space="preserve" text-anchor="start" x="31.75" y="-643.25" font-family="Helvetica,sans-Serif" font-size="10.00">+</text>
<text xml:space="preserve" text-anchor="start" x="44" y="-643.25" font-family="Helvetica,sans-Serif" font-size="10.00">SetDefaultValue()</text>
<text xml:space="preserve" text-anchor="start" x="31.75" y="-626.5" font-family="Helvetica,sans-Serif" font-size="10.00">+</text>
<text xml:space="preserve" text-anchor="start" x="44" y="-626.5" font-family="Helvetica,sans-Serif" font-size="10.00">GetDefaultValue()</text>
<text xml:space="preserve" text-anchor="start" x="31.75" y="-609.75" font-family="Helvetica,sans-Serif" font-size="10.00">+</text>
<text xml:space="preserve" text-anchor="start" x="44" y="-609.75" font-family="Helvetica,sans-Serif" font-size="10.00">ClearDefaultValue()</text>
<text xml:space="preserve" text-anchor="start" x="31.75" y="-593" font-family="Helvetica,sans-Serif" font-size="10.00">#</text>
<text xml:space="preserve" text-anchor="start" x="44" y="-593" font-family="Helvetica,sans-Serif" font-size="10.00">CycleTime()</text>
<polygon fill="#666666" stroke="#666666" points="27.75,-822.5 27.75,-822.5 153.75,-822.5 153.75,-822.5 27.75,-822.5"/>
<polygon fill="#666666" stroke="#666666" points="27.75,-722 27.75,-722 42,-722 42,-722 27.75,-722"/>
<polygon fill="#666666" stroke="#666666" points="42,-722 42,-722 153.75,-722 153.75,-722 42,-722"/>
<polygon fill="none" stroke="#666666" points="27.75,-586 27.75,-841.25 153.75,-841.25 153.75,-586 27.75,-586"/>
</a>
</g>
</g>
<!-- Node4&#45;&gt;Node3 -->
<g id="edge3_Node000003_Node000004" class="edge">
<title>Node4&#45;&gt;Node3</title>
<g id="a_edge3_Node000003_Node000004"><a xlink:title=" ">
<path fill="none" stroke="#63b8ff" d="M90.75,-574.81C90.75,-566.15 90.75,-557.46 90.75,-548.86"/>
<polygon fill="none" stroke="#63b8ff" points="87.25,-574.65 90.75,-584.65 94.25,-574.65 87.25,-574.65"/>
</a>
</g>
</g>
<!-- Node4&#45;&gt;Node4 -->
<g id="edge9_Node000004_Node000004" class="edge">
<title>Node4&#45;&gt;Node4</title>
<g id="a_edge9_Node000004_Node000004"><a xlink:title=" ">
<path fill="none" stroke="#63b8ff" d="M153.58,-739.2C164.31,-735.71 171.75,-727.18 171.75,-713.62 171.75,-705.58 169.13,-699.3 164.75,-694.8"/>
<polygon fill="none" stroke="#63b8ff" points="164.62,-694.72 157.42,-695.04 154.35,-688.51 161.56,-688.19 164.62,-694.72"/>
</a>
</g>
<text xml:space="preserve" text-anchor="start" x="174.75" y="-710.25" font-family="Helvetica,sans-Serif" font-size="10.00" fill="grey">+Eval</text>
</g>
<!-- Node5 -->
<g id="Node000005" class="node">
<title>Node5</title>
<g id="a_Node000005"><a xlink:href="structFIndexedCurve.html" target="_top" xlink:title=" ">
<polygon fill="white" stroke="none" points="323.38,-1246.75 150.12,-1246.75 150.12,-878.25 323.38,-878.25 323.38,-1246.75"/>
<text xml:space="preserve" text-anchor="start" x="200" y="-1233" font-family="Helvetica,sans-Serif" font-size="10.00">FIndexedCurve</text>
<text xml:space="preserve" text-anchor="start" x="154.12" y="-1216.25" font-family="Helvetica,sans-Serif" font-size="10.00">+</text>
<text xml:space="preserve" text-anchor="start" x="166.38" y="-1216.25" font-family="Helvetica,sans-Serif" font-size="10.00">GetNumKeys</text>
<text xml:space="preserve" text-anchor="start" x="154.12" y="-1199.5" font-family="Helvetica,sans-Serif" font-size="10.00">+</text>
<text xml:space="preserve" text-anchor="start" x="166.38" y="-1199.5" font-family="Helvetica,sans-Serif" font-size="10.00">FIndexedCurve()</text>
<text xml:space="preserve" text-anchor="start" x="154.12" y="-1182.75" font-family="Helvetica,sans-Serif" font-size="10.00">+</text>
<text xml:space="preserve" text-anchor="start" x="166.38" y="-1182.75" font-family="Helvetica,sans-Serif" font-size="10.00">~FIndexedCurve()</text>
<text xml:space="preserve" text-anchor="start" x="154.12" y="-1166" font-family="Helvetica,sans-Serif" font-size="10.00">+</text>
<text xml:space="preserve" text-anchor="start" x="166.38" y="-1166" font-family="Helvetica,sans-Serif" font-size="10.00">GetIndexSafe()</text>
<text xml:space="preserve" text-anchor="start" x="154.12" y="-1149.25" font-family="Helvetica,sans-Serif" font-size="10.00">+</text>
<text xml:space="preserve" text-anchor="start" x="166.38" y="-1149.25" font-family="Helvetica,sans-Serif" font-size="10.00">GetKeyHandleIterator()</text>
<text xml:space="preserve" text-anchor="start" x="154.12" y="-1132.5" font-family="Helvetica,sans-Serif" font-size="10.00">+</text>
<text xml:space="preserve" text-anchor="start" x="166.38" y="-1132.5" font-family="Helvetica,sans-Serif" font-size="10.00">IsKeyHandleValid()</text>
<text xml:space="preserve" text-anchor="start" x="154.12" y="-1115.75" font-family="Helvetica,sans-Serif" font-size="10.00">+</text>
<text xml:space="preserve" text-anchor="start" x="166.38" y="-1115.75" font-family="Helvetica,sans-Serif" font-size="10.00">GetFirstKeyHandle()</text>
<text xml:space="preserve" text-anchor="start" x="154.12" y="-1099" font-family="Helvetica,sans-Serif" font-size="10.00">+</text>
<text xml:space="preserve" text-anchor="start" x="166.38" y="-1099" font-family="Helvetica,sans-Serif" font-size="10.00">GetLastKeyHandle()</text>
<text xml:space="preserve" text-anchor="start" x="154.12" y="-1082.25" font-family="Helvetica,sans-Serif" font-size="10.00">+</text>
<text xml:space="preserve" text-anchor="start" x="166.38" y="-1082.25" font-family="Helvetica,sans-Serif" font-size="10.00">GetNextKey()</text>
<text xml:space="preserve" text-anchor="start" x="154.12" y="-1065.5" font-family="Helvetica,sans-Serif" font-size="10.00">+</text>
<text xml:space="preserve" text-anchor="start" x="166.38" y="-1065.5" font-family="Helvetica,sans-Serif" font-size="10.00">GetPreviousKey()</text>
<text xml:space="preserve" text-anchor="start" x="154.12" y="-1048.75" font-family="Helvetica,sans-Serif" font-size="10.00">+</text>
<text xml:space="preserve" text-anchor="start" x="166.38" y="-1048.75" font-family="Helvetica,sans-Serif" font-size="10.00">ShiftCurve()</text>
<text xml:space="preserve" text-anchor="start" x="154.12" y="-1032" font-family="Helvetica,sans-Serif" font-size="10.00">+</text>
<text xml:space="preserve" text-anchor="start" x="166.38" y="-1032" font-family="Helvetica,sans-Serif" font-size="10.00">ShiftCurve()</text>
<text xml:space="preserve" text-anchor="start" x="154.12" y="-1015.25" font-family="Helvetica,sans-Serif" font-size="10.00">+</text>
<text xml:space="preserve" text-anchor="start" x="166.38" y="-1015.25" font-family="Helvetica,sans-Serif" font-size="10.00">ScaleCurve()</text>
<text xml:space="preserve" text-anchor="start" x="154.12" y="-998.5" font-family="Helvetica,sans-Serif" font-size="10.00">+</text>
<text xml:space="preserve" text-anchor="start" x="166.38" y="-998.5" font-family="Helvetica,sans-Serif" font-size="10.00">ScaleCurve()</text>
<text xml:space="preserve" text-anchor="start" x="154.12" y="-981.75" font-family="Helvetica,sans-Serif" font-size="10.00">#</text>
<text xml:space="preserve" text-anchor="start" x="166.38" y="-981.75" font-family="Helvetica,sans-Serif" font-size="10.00">EnsureAllIndicesHaveHandles()</text>
<text xml:space="preserve" text-anchor="start" x="154.12" y="-965" font-family="Helvetica,sans-Serif" font-size="10.00">#</text>
<text xml:space="preserve" text-anchor="start" x="166.38" y="-965" font-family="Helvetica,sans-Serif" font-size="10.00">EnsureIndexHasAHandle()</text>
<text xml:space="preserve" text-anchor="start" x="154.12" y="-948.25" font-family="Helvetica,sans-Serif" font-size="10.00">#</text>
<text xml:space="preserve" text-anchor="start" x="166.38" y="-948.25" font-family="Helvetica,sans-Serif" font-size="10.00">FindIndex()</text>
<text xml:space="preserve" text-anchor="start" x="154.12" y="-931.5" font-family="Helvetica,sans-Serif" font-size="10.00">#</text>
<text xml:space="preserve" text-anchor="start" x="166.38" y="-931.5" font-family="Helvetica,sans-Serif" font-size="10.00">GetIndex()</text>
<text xml:space="preserve" text-anchor="start" x="154.12" y="-914.75" font-family="Helvetica,sans-Serif" font-size="10.00">#</text>
<text xml:space="preserve" text-anchor="start" x="166.38" y="-914.75" font-family="Helvetica,sans-Serif" font-size="10.00">GetKeyHandle()</text>
<text xml:space="preserve" text-anchor="start" x="156.38" y="-898" font-family="Helvetica,sans-Serif" font-size="10.00">&#45;</text>
<text xml:space="preserve" text-anchor="start" x="166.38" y="-898" font-family="Helvetica,sans-Serif" font-size="10.00">EnsureAllIndicesHaveHandles</text>
<text xml:space="preserve" text-anchor="start" x="166.38" y="-885.25" font-family="Helvetica,sans-Serif" font-size="10.00">_Internal()</text>
<polygon fill="#666666" stroke="#666666" points="150.12,-1228 150.12,-1228 323.38,-1228 323.38,-1228 150.12,-1228"/>
<polygon fill="#666666" stroke="#666666" points="150.12,-1211.25 150.12,-1211.25 164.38,-1211.25 164.38,-1211.25 150.12,-1211.25"/>
<polygon fill="#666666" stroke="#666666" points="164.38,-1211.25 164.38,-1211.25 323.38,-1211.25 323.38,-1211.25 164.38,-1211.25"/>
<polygon fill="none" stroke="#666666" points="150.12,-878.25 150.12,-1246.75 323.38,-1246.75 323.38,-878.25 150.12,-878.25"/>
</a>
</g>
</g>
<!-- Node5&#45;&gt;Node4 -->
<g id="edge4_Node000004_Node000005" class="edge">
<title>Node5&#45;&gt;Node4</title>
<g id="a_edge4_Node000004_Node000005"><a xlink:title=" ">
<path fill="none" stroke="#63b8ff" d="M155.31,-868.01C151.44,-858.83 147.61,-849.71 143.85,-840.78"/>
<polygon fill="none" stroke="#63b8ff" points="152,-869.16 159.1,-877.02 158.45,-866.44 152,-869.16"/>
</a>
</g>
</g>
<!-- Node5&#45;&gt;Node5 -->
<g id="edge6_Node000005_Node000005" class="edge">
<title>Node5&#45;&gt;Node5</title>
<g id="a_edge6_Node000005_Node000005"><a xlink:title=" ">
<path fill="none" stroke="#63b8ff" d="M323.34,-1095.61C334.22,-1089.77 341.38,-1078.74 341.38,-1062.5 341.38,-1051.85 338.29,-1043.43 333.1,-1037.25"/>
<polygon fill="none" stroke="#63b8ff" points="333.39,-1037.49 326.21,-1036.84 324.05,-1029.96 331.23,-1030.61 333.39,-1037.49"/>
</a>
</g>
<text xml:space="preserve" text-anchor="start" x="344.38" y="-1059.12" font-family="Helvetica,sans-Serif" font-size="10.00" fill="grey">+Duplicate</text>
</g>
<!-- Node6 -->
<g id="Node000006" class="node">
<title>Node6</title>
<g id="a_Node000006"><a xlink:href="structFKeyHandle.html" target="_top" xlink:title=" ">
<polygon fill="white" stroke="none" points="119.25,-1498.12 26.25,-1498.12 26.25,-1343.38 119.25,-1343.38 119.25,-1498.12"/>
<text xml:space="preserve" text-anchor="start" x="43.5" y="-1484.38" font-family="Helvetica,sans-Serif" font-size="10.00">FKeyHandle</text>
<text xml:space="preserve" text-anchor="start" x="32.5" y="-1467.62" font-family="Helvetica,sans-Serif" font-size="10.00">&#45;</text>
<text xml:space="preserve" text-anchor="start" x="42.5" y="-1467.62" font-family="Helvetica,sans-Serif" font-size="10.00">Index</text>
<text xml:space="preserve" text-anchor="start" x="30.25" y="-1450.88" font-family="Helvetica,sans-Serif" font-size="10.00">+</text>
<text xml:space="preserve" text-anchor="start" x="42.5" y="-1450.88" font-family="Helvetica,sans-Serif" font-size="10.00">FKeyHandle()</text>
<text xml:space="preserve" text-anchor="start" x="30.25" y="-1434.12" font-family="Helvetica,sans-Serif" font-size="10.00">+</text>
<text xml:space="preserve" text-anchor="start" x="42.5" y="-1434.12" font-family="Helvetica,sans-Serif" font-size="10.00">IsValid()</text>
<text xml:space="preserve" text-anchor="start" x="30.25" y="-1417.38" font-family="Helvetica,sans-Serif" font-size="10.00">+</text>
<text xml:space="preserve" text-anchor="start" x="42.5" y="-1417.38" font-family="Helvetica,sans-Serif" font-size="10.00">operator bool()</text>
<text xml:space="preserve" text-anchor="start" x="30.25" y="-1400.62" font-family="Helvetica,sans-Serif" font-size="10.00">+</text>
<text xml:space="preserve" text-anchor="start" x="42.5" y="-1400.62" font-family="Helvetica,sans-Serif" font-size="10.00">operator==()</text>
<text xml:space="preserve" text-anchor="start" x="30.25" y="-1383.88" font-family="Helvetica,sans-Serif" font-size="10.00">+</text>
<text xml:space="preserve" text-anchor="start" x="42.5" y="-1383.88" font-family="Helvetica,sans-Serif" font-size="10.00">operator!=()</text>
<text xml:space="preserve" text-anchor="start" x="30.25" y="-1367.12" font-family="Helvetica,sans-Serif" font-size="10.00">+</text>
<text xml:space="preserve" text-anchor="start" x="42.5" y="-1367.12" font-family="Helvetica,sans-Serif" font-size="10.00">Invalid()</text>
<text xml:space="preserve" text-anchor="start" x="32.5" y="-1350.38" font-family="Helvetica,sans-Serif" font-size="10.00">&#45;</text>
<text xml:space="preserve" text-anchor="start" x="42.5" y="-1350.38" font-family="Helvetica,sans-Serif" font-size="10.00">FKeyHandle()</text>
<polygon fill="#666666" stroke="#666666" points="26.25,-1479.38 26.25,-1479.38 119.25,-1479.38 119.25,-1479.38 26.25,-1479.38"/>
<polygon fill="#666666" stroke="#666666" points="26.25,-1462.62 26.25,-1462.62 40.5,-1462.62 40.5,-1462.62 26.25,-1462.62"/>
<polygon fill="#666666" stroke="#666666" points="40.5,-1462.62 40.5,-1462.62 119.25,-1462.62 119.25,-1462.62 40.5,-1462.62"/>
<polygon fill="none" stroke="#666666" points="26.25,-1343.38 26.25,-1498.12 119.25,-1498.12 119.25,-1343.38 26.25,-1343.38"/>
</a>
</g>
</g>
<!-- Node6&#45;&gt;Node4 -->
<g id="edge8_Node000004_Node000006" class="edge">
<title>Node6&#45;&gt;Node4</title>
<g id="a_edge8_Node000004_Node000006"><a xlink:title=" ">
<path fill="none" stroke="#63b8ff" d="M56.88,-1343.46C51.4,-1313.46 45.95,-1278.63 43.25,-1246.75 29.44,-1083.56 20.19,-1040.4 43.25,-878.25 44.4,-870.18 45.85,-861.95 47.52,-853.69"/>
<polygon fill="none" stroke="#63b8ff" points="47.51,-853.76 44.87,-847.05 50.04,-842.03 52.69,-848.74 47.51,-853.76"/>
</a>
</g>
<text xml:space="preserve" text-anchor="start" x="46.25" y="-1075.88" font-family="Helvetica,sans-Serif" font-size="10.00" fill="grey">+AddKey</text>
<text xml:space="preserve" text-anchor="start" x="46.25" y="-1059.12" font-family="Helvetica,sans-Serif" font-size="10.00" fill="grey">+GetKeyValue</text>
<text xml:space="preserve" text-anchor="start" x="46.25" y="-1042.38" font-family="Helvetica,sans-Serif" font-size="10.00" fill="grey">+UpdateOrAddKey</text>
</g>
<!-- Node6&#45;&gt;Node5 -->
<g id="edge5_Node000005_Node000006" class="edge">
<title>Node6&#45;&gt;Node5</title>
<g id="a_edge5_Node000005_Node000006"><a xlink:title=" ">
<path fill="none" stroke="#63b8ff" d="M107.73,-1343.76C119.45,-1318.3 133.11,-1288.64 147.06,-1258.33"/>
<polygon fill="none" stroke="#63b8ff" points="147.03,-1258.4 145.9,-1251.28 152.04,-1247.5 153.17,-1254.63 147.03,-1258.4"/>
</a>
</g>
<text xml:space="preserve" text-anchor="start" x="143.06" y="-1270.75" font-family="Helvetica,sans-Serif" font-size="10.00" fill="grey">+GetKeyTime</text>
</g>
<!-- Node7 -->
<g id="Node000007" class="node">
<title>Node7</title>
<g id="a_Node000007"><a xlink:href="structFKeyHandleMap.html" target="_top" xlink:title=" ">
<polygon fill="white" stroke="none" points="298.25,-1540 175.25,-1540 175.25,-1301.5 298.25,-1301.5 298.25,-1540"/>
<text xml:space="preserve" text-anchor="start" x="197" y="-1526.25" font-family="Helvetica,sans-Serif" font-size="10.00">FKeyHandleMap</text>
<text xml:space="preserve" text-anchor="start" x="181.5" y="-1509.5" font-family="Helvetica,sans-Serif" font-size="10.00">&#45;</text>
<text xml:space="preserve" text-anchor="start" x="191.5" y="-1509.5" font-family="Helvetica,sans-Serif" font-size="10.00">KeyHandlesToIndices</text>
<text xml:space="preserve" text-anchor="start" x="181.5" y="-1492.75" font-family="Helvetica,sans-Serif" font-size="10.00">&#45;</text>
<text xml:space="preserve" text-anchor="start" x="191.5" y="-1492.75" font-family="Helvetica,sans-Serif" font-size="10.00">KeyHandles</text>
<text xml:space="preserve" text-anchor="start" x="179.25" y="-1476" font-family="Helvetica,sans-Serif" font-size="10.00">+</text>
<text xml:space="preserve" text-anchor="start" x="191.5" y="-1476" font-family="Helvetica,sans-Serif" font-size="10.00">FKeyHandleMap()</text>
<text xml:space="preserve" text-anchor="start" x="179.25" y="-1459.25" font-family="Helvetica,sans-Serif" font-size="10.00">+</text>
<text xml:space="preserve" text-anchor="start" x="191.5" y="-1459.25" font-family="Helvetica,sans-Serif" font-size="10.00">FKeyHandleMap()</text>
<text xml:space="preserve" text-anchor="start" x="179.25" y="-1442.5" font-family="Helvetica,sans-Serif" font-size="10.00">+</text>
<text xml:space="preserve" text-anchor="start" x="191.5" y="-1442.5" font-family="Helvetica,sans-Serif" font-size="10.00">operator=()</text>
<text xml:space="preserve" text-anchor="start" x="179.25" y="-1425.75" font-family="Helvetica,sans-Serif" font-size="10.00">+</text>
<text xml:space="preserve" text-anchor="start" x="191.5" y="-1425.75" font-family="Helvetica,sans-Serif" font-size="10.00">Initialize()</text>
<text xml:space="preserve" text-anchor="start" x="179.25" y="-1409" font-family="Helvetica,sans-Serif" font-size="10.00">+</text>
<text xml:space="preserve" text-anchor="start" x="191.5" y="-1409" font-family="Helvetica,sans-Serif" font-size="10.00">Add()</text>
<text xml:space="preserve" text-anchor="start" x="179.25" y="-1392.25" font-family="Helvetica,sans-Serif" font-size="10.00">+</text>
<text xml:space="preserve" text-anchor="start" x="191.5" y="-1392.25" font-family="Helvetica,sans-Serif" font-size="10.00">Empty()</text>
<text xml:space="preserve" text-anchor="start" x="179.25" y="-1375.5" font-family="Helvetica,sans-Serif" font-size="10.00">+</text>
<text xml:space="preserve" text-anchor="start" x="191.5" y="-1375.5" font-family="Helvetica,sans-Serif" font-size="10.00">Remove()</text>
<text xml:space="preserve" text-anchor="start" x="179.25" y="-1358.75" font-family="Helvetica,sans-Serif" font-size="10.00">+</text>
<text xml:space="preserve" text-anchor="start" x="191.5" y="-1358.75" font-family="Helvetica,sans-Serif" font-size="10.00">Reserve()</text>
<text xml:space="preserve" text-anchor="start" x="179.25" y="-1342" font-family="Helvetica,sans-Serif" font-size="10.00">+</text>
<text xml:space="preserve" text-anchor="start" x="191.5" y="-1342" font-family="Helvetica,sans-Serif" font-size="10.00">Find()</text>
<text xml:space="preserve" text-anchor="start" x="179.25" y="-1325.25" font-family="Helvetica,sans-Serif" font-size="10.00">+</text>
<text xml:space="preserve" text-anchor="start" x="191.5" y="-1325.25" font-family="Helvetica,sans-Serif" font-size="10.00">FindKey()</text>
<text xml:space="preserve" text-anchor="start" x="191.5" y="-1308.5" font-family="Helvetica,sans-Serif" font-size="10.00">and 9 more...</text>
<polygon fill="#666666" stroke="#666666" points="175.25,-1521.25 175.25,-1521.25 298.25,-1521.25 298.25,-1521.25 175.25,-1521.25"/>
<polygon fill="#666666" stroke="#666666" points="175.25,-1487.75 175.25,-1487.75 189.5,-1487.75 189.5,-1487.75 175.25,-1487.75"/>
<polygon fill="#666666" stroke="#666666" points="189.5,-1487.75 189.5,-1487.75 298.25,-1487.75 298.25,-1487.75 189.5,-1487.75"/>
<polygon fill="none" stroke="#666666" points="175.25,-1301.5 175.25,-1540 298.25,-1540 298.25,-1301.5 175.25,-1301.5"/>
</a>
</g>
</g>
<!-- Node7&#45;&gt;Node5 -->
<g id="edge7_Node000005_Node000007" class="edge">
<title>Node7&#45;&gt;Node5</title>
<g id="a_edge7_Node000005_Node000007"><a xlink:title=" ">
<path fill="none" stroke="#63b8ff" d="M236.75,-1301.62C236.75,-1287.91 236.75,-1273.67 236.75,-1259.27"/>
<polygon fill="none" stroke="#63b8ff" points="236.75,-1259.49 232.75,-1253.49 236.75,-1247.49 240.75,-1253.49 236.75,-1259.49"/>
</a>
</g>
<text xml:space="preserve" text-anchor="start" x="239.75" y="-1270.75" font-family="Helvetica,sans-Serif" font-size="10.00" fill="grey">#KeyHandlesToIndices</text>
</g>
</g>
</svg>
