<?xml version="1.0" encoding="UTF-8" standalone="no"?>
<!DOCTYPE svg PUBLIC "-//W3C//DTD SVG 1.1//EN"
 "http://www.w3.org/Graphics/SVG/1.1/DTD/svg11.dtd">
<!-- Generated by graphviz version 14.1.4 (0)
 -->
<!-- Title: FOptTexturePlatformData::FOptTexturePlatformData Pages: 1 -->
<svg width="331pt" height="146pt"
 viewBox="0.00 0.00 331.00 146.00" xmlns="http://www.w3.org/2000/svg" xmlns:xlink="http://www.w3.org/1999/xlink">
<g id="graph0" class="graph" transform="scale(1 1) rotate(0) translate(4 141.5)">
<title>FOptTexturePlatformData::FOptTexturePlatformData</title>
<!-- Node1 -->
<g id="Node000001" class="node">
<title>Node1</title>
<g id="a_Node000001"><a xlink:title=" ">
<polygon fill="#999999" stroke="#666666" points="323,-85.5 176.5,-85.5 176.5,-52 323,-52 323,-85.5"/>
<text xml:space="preserve" text-anchor="start" x="184.5" y="-72" font-family="Helvetica,sans-Serif" font-size="10.00">FOptTexturePlatformData</text>
<text xml:space="preserve" text-anchor="middle" x="249.75" y="-59.25" font-family="Helvetica,sans-Serif" font-size="10.00">::FOptTexturePlatformData</text>
</a>
</g>
</g>
<!-- Node2 -->
<g id="Node000002" class="node">
<title>Node2</title>
<g id="a_Node000002"><a xlink:href="structFOptTexturePlatformData.html#a3c4e43417c3a8e3449887c6ee6c0673a" target="_top" xlink:title=" ">
<polygon fill="white" stroke="#666666" points="140.5,-137.5 0,-137.5 0,-104 140.5,-104 140.5,-137.5"/>
<text xml:space="preserve" text-anchor="start" x="8" y="-124" font-family="Helvetica,sans-Serif" font-size="10.00">FOptTexturePlatformData</text>
<text xml:space="preserve" text-anchor="middle" x="70.25" y="-111.25" font-family="Helvetica,sans-Serif" font-size="10.00">::operator!=</text>
</a>
</g>
</g>
<!-- Node1&#45;&gt;Node2 -->
<g id="edge1_Node000001_Node000002" class="edge">
<title>Node1&#45;&gt;Node2</title>
<g id="a_edge1_Node000001_Node000002"><a xlink:title=" ">
<path fill="none" stroke="#63b8ff" d="M179.09,-89.16C162.89,-93.9 145.79,-98.91 130.1,-103.51"/>
<polygon fill="#63b8ff" stroke="#63b8ff" points="180.07,-92.52 188.69,-86.35 178.1,-85.8 180.07,-92.52"/>
</a>
</g>
</g>
<!-- Node3 -->
<g id="Node000003" class="node">
<title>Node3</title>
<g id="a_Node000003"><a xlink:href="structFOptTexturePlatformData.html#a386e99a3bfc04d0ab9f12a4fb8c52a67" target="_top" xlink:title=" ">
<polygon fill="white" stroke="#666666" points="140.5,-85.5 0,-85.5 0,-52 140.5,-52 140.5,-85.5"/>
<text xml:space="preserve" text-anchor="start" x="8" y="-72" font-family="Helvetica,sans-Serif" font-size="10.00">FOptTexturePlatformData</text>
<text xml:space="preserve" text-anchor="middle" x="70.25" y="-59.25" font-family="Helvetica,sans-Serif" font-size="10.00">::operator&lt;&lt;</text>
</a>
</g>
</g>
<!-- Node1&#45;&gt;Node3 -->
<g id="edge2_Node000001_Node000003" class="edge">
<title>Node1&#45;&gt;Node3</title>
<g id="a_edge2_Node000001_Node000003"><a xlink:title=" ">
<path fill="none" stroke="#63b8ff" d="M164.55,-68.75C156.66,-68.75 148.72,-68.75 140.98,-68.75"/>
<polygon fill="#63b8ff" stroke="#63b8ff" points="164.53,-72.25 174.53,-68.75 164.53,-65.25 164.53,-72.25"/>
</a>
</g>
</g>
<!-- Node4 -->
<g id="Node000004" class="node">
<title>Node4</title>
<g id="a_Node000004"><a xlink:href="structFOptTexturePlatformData.html#ab312c51e431ed77005c4c4af30fe59a2" target="_top" xlink:title=" ">
<polygon fill="white" stroke="#666666" points="140.5,-33.5 0,-33.5 0,0 140.5,0 140.5,-33.5"/>
<text xml:space="preserve" text-anchor="start" x="8" y="-20" font-family="Helvetica,sans-Serif" font-size="10.00">FOptTexturePlatformData</text>
<text xml:space="preserve" text-anchor="middle" x="70.25" y="-7.25" font-family="Helvetica,sans-Serif" font-size="10.00">::operator==</text>
</a>
</g>
</g>
<!-- Node1&#45;&gt;Node4 -->
<g id="edge3_Node000001_Node000004" class="edge">
<title>Node1&#45;&gt;Node4</title>
<g id="a_edge3_Node000001_Node000004"><a xlink:title=" ">
<path fill="none" stroke="#63b8ff" d="M179.09,-48.34C162.89,-43.6 145.79,-38.59 130.1,-33.99"/>
<polygon fill="#63b8ff" stroke="#63b8ff" points="178.1,-51.7 188.69,-51.15 180.07,-44.98 178.1,-51.7"/>
</a>
</g>
</g>
</g>
</svg>
