<?xml version="1.0" encoding="UTF-8" standalone="no"?>
<!DOCTYPE svg PUBLIC "-//W3C//DTD SVG 1.1//EN"
 "http://www.w3.org/Graphics/SVG/1.1/DTD/svg11.dtd">
<!-- Generated by graphviz version 14.1.4 (0)
 -->
<!-- Title: UDemoNetDriver::FLevelnterval Pages: 1 -->
<svg width="173pt" height="113pt"
 viewBox="0.00 0.00 173.00 113.00" xmlns="http://www.w3.org/2000/svg" xmlns:xlink="http://www.w3.org/1999/xlink">
<g id="graph0" class="graph" transform="scale(1 1) rotate(0) translate(4 108.5)">
<title>UDemoNetDriver::FLevelnterval</title>
<!-- Node1 -->
<g id="Node000001" class="node">
<title>Node1</title>
<g id="a_Node000001"><a xlink:title=" ">
<polygon fill="#999999" stroke="none" points="164.75,-104.5 0,-104.5 0,0 164.75,0 164.75,-104.5"/>
<text xml:space="preserve" text-anchor="start" x="4" y="-90.75" font-family="Helvetica,sans-Serif" font-size="10.00">UDemoNetDriver::FLevelnterval</text>
<text xml:space="preserve" text-anchor="start" x="26.81" y="-74" font-family="Helvetica,sans-Serif" font-size="10.00">+</text>
<text xml:space="preserve" text-anchor="start" x="61.88" y="-74" font-family="Helvetica,sans-Serif" font-size="10.00">Priority</text>
<text xml:space="preserve" text-anchor="start" x="26.81" y="-57.25" font-family="Helvetica,sans-Serif" font-size="10.00">+</text>
<text xml:space="preserve" text-anchor="start" x="61.88" y="-57.25" font-family="Helvetica,sans-Serif" font-size="10.00">StartIndex</text>
<text xml:space="preserve" text-anchor="start" x="26.81" y="-40.5" font-family="Helvetica,sans-Serif" font-size="10.00">+</text>
<text xml:space="preserve" text-anchor="start" x="61.88" y="-40.5" font-family="Helvetica,sans-Serif" font-size="10.00">Count</text>
<text xml:space="preserve" text-anchor="start" x="26.81" y="-23.75" font-family="Helvetica,sans-Serif" font-size="10.00">+</text>
<text xml:space="preserve" text-anchor="start" x="61.88" y="-23.75" font-family="Helvetica,sans-Serif" font-size="10.00">LevelIndex</text>
<text xml:space="preserve" text-anchor="start" x="79.38" y="-7" font-family="Helvetica,sans-Serif" font-size="10.00"> </text>
<polygon fill="#666666" stroke="#666666" points="0,-85.75 0,-85.75 164.75,-85.75 164.75,-85.75 0,-85.75"/>
<polygon fill="#666666" stroke="#666666" points="0,-18.75 0,-18.75 59.88,-18.75 59.88,-18.75 0,-18.75"/>
<polygon fill="#666666" stroke="#666666" points="59.88,-18.75 59.88,-18.75 164.75,-18.75 164.75,-18.75 59.88,-18.75"/>
<polygon fill="none" stroke="#666666" points="0,0 0,-104.5 164.75,-104.5 164.75,0 0,0"/>
</a>
</g>
</g>
</g>
</svg>
