<?xml version="1.0" encoding="UTF-8" standalone="no"?>
<!DOCTYPE svg PUBLIC "-//W3C//DTD SVG 1.1//EN"
 "http://www.w3.org/Graphics/SVG/1.1/DTD/svg11.dtd">
<!-- Generated by graphviz version 14.1.4 (0)
 -->
<!-- Title: FPrimaryAssetTypeInfo::CanModifyConfigData Pages: 1 -->
<svg width="302pt" height="146pt"
 viewBox="0.00 0.00 302.00 146.00" xmlns="http://www.w3.org/2000/svg" xmlns:xlink="http://www.w3.org/1999/xlink">
<g id="graph0" class="graph" transform="scale(1 1) rotate(0) translate(4 141.5)">
<title>FPrimaryAssetTypeInfo::CanModifyConfigData</title>
<!-- Node1 -->
<g id="Node000001" class="node">
<title>Node1</title>
<g id="a_Node000001"><a xlink:title=" ">
<polygon fill="#999999" stroke="#666666" points="293.75,-85.5 164.5,-85.5 164.5,-52 293.75,-52 293.75,-85.5"/>
<text xml:space="preserve" text-anchor="start" x="172.5" y="-72" font-family="Helvetica,sans-Serif" font-size="10.00">FPrimaryAssetTypeInfo</text>
<text xml:space="preserve" text-anchor="middle" x="229.12" y="-59.25" font-family="Helvetica,sans-Serif" font-size="10.00">::CanModifyConfigData</text>
</a>
</g>
</g>
<!-- Node2 -->
<g id="Node000002" class="node">
<title>Node2</title>
<g id="a_Node000002"><a xlink:href="structFPrimaryAssetTypeInfo.html#a1fd0911e77a49efbd11cc45e7247fc47" target="_top" xlink:title=" ">
<polygon fill="white" stroke="#666666" points="128.5,-137.5 0,-137.5 0,-104 128.5,-104 128.5,-137.5"/>
<text xml:space="preserve" text-anchor="start" x="8" y="-124" font-family="Helvetica,sans-Serif" font-size="10.00">FPrimaryAssetTypeInfo</text>
<text xml:space="preserve" text-anchor="middle" x="64.25" y="-111.25" font-family="Helvetica,sans-Serif" font-size="10.00">::GetDirectories</text>
</a>
</g>
</g>
<!-- Node1&#45;&gt;Node2 -->
<g id="edge1_Node000001_Node000002" class="edge">
<title>Node1&#45;&gt;Node2</title>
<g id="a_edge1_Node000001_Node000002"><a xlink:title=" ">
<path fill="none" stroke="#63b8ff" d="M163.78,-89.29C149.03,-94 133.51,-98.96 119.25,-103.51"/>
<polygon fill="#63b8ff" stroke="#63b8ff" points="164.44,-92.76 172.9,-86.38 162.31,-86.09 164.44,-92.76"/>
</a>
</g>
</g>
<!-- Node3 -->
<g id="Node000003" class="node">
<title>Node3</title>
<g id="a_Node000003"><a xlink:href="structFPrimaryAssetTypeInfo.html#aaf853ca6a6354b9b466d007084ec2509" target="_top" xlink:title=" ">
<polygon fill="white" stroke="#666666" points="128.5,-85.5 0,-85.5 0,-52 128.5,-52 128.5,-85.5"/>
<text xml:space="preserve" text-anchor="start" x="8" y="-72" font-family="Helvetica,sans-Serif" font-size="10.00">FPrimaryAssetTypeInfo</text>
<text xml:space="preserve" text-anchor="middle" x="64.25" y="-59.25" font-family="Helvetica,sans-Serif" font-size="10.00">::GetSpecificAssets</text>
</a>
</g>
</g>
<!-- Node1&#45;&gt;Node3 -->
<g id="edge2_Node000001_Node000003" class="edge">
<title>Node1&#45;&gt;Node3</title>
<g id="a_edge2_Node000001_Node000003"><a xlink:title=" ">
<path fill="none" stroke="#63b8ff" d="M152.97,-68.75C144.95,-68.75 136.84,-68.75 128.97,-68.75"/>
<polygon fill="#63b8ff" stroke="#63b8ff" points="152.71,-72.25 162.71,-68.75 152.71,-65.25 152.71,-72.25"/>
</a>
</g>
</g>
<!-- Node4 -->
<g id="Node000004" class="node">
<title>Node4</title>
<g id="a_Node000004"><a xlink:href="structFPrimaryAssetTypeInfo.html#a844bcbdadbfb09c7967905f438c856d5" target="_top" xlink:title=" ">
<polygon fill="white" stroke="#666666" points="128.5,-33.5 0,-33.5 0,0 128.5,0 128.5,-33.5"/>
<text xml:space="preserve" text-anchor="start" x="8" y="-20" font-family="Helvetica,sans-Serif" font-size="10.00">FPrimaryAssetTypeInfo</text>
<text xml:space="preserve" text-anchor="middle" x="64.25" y="-7.25" font-family="Helvetica,sans-Serif" font-size="10.00">::SetAssetBaseClass</text>
</a>
</g>
</g>
<!-- Node1&#45;&gt;Node4 -->
<g id="edge3_Node000001_Node000004" class="edge">
<title>Node1&#45;&gt;Node4</title>
<g id="a_edge3_Node000001_Node000004"><a xlink:title=" ">
<path fill="none" stroke="#63b8ff" d="M163.78,-48.21C149.03,-43.5 133.51,-38.54 119.25,-33.99"/>
<polygon fill="#63b8ff" stroke="#63b8ff" points="162.31,-51.41 172.9,-51.12 164.44,-44.74 162.31,-51.41"/>
</a>
</g>
</g>
</g>
</svg>
