<?xml version="1.0" encoding="UTF-8" standalone="no"?>
<!DOCTYPE svg PUBLIC "-//W3C//DTD SVG 1.1//EN"
 "http://www.w3.org/Graphics/SVG/1.1/DTD/svg11.dtd">
<!-- Generated by graphviz version 14.1.4 (0)
 -->
<!-- Title: Audio::FQuartzClockTickRate::FQuartzClockTickRate Pages: 1 -->
<svg width="600pt" height="54pt"
 viewBox="0.00 0.00 600.00 54.00" xmlns="http://www.w3.org/2000/svg" xmlns:xlink="http://www.w3.org/1999/xlink">
<g id="graph0" class="graph" transform="scale(1 1) rotate(0) translate(4 50.25)">
<title>Audio::FQuartzClockTickRate::FQuartzClockTickRate</title>
<!-- Node1 -->
<g id="Node000001" class="node">
<title>Node1</title>
<g id="a_Node000001"><a xlink:title=" ">
<polygon fill="#999999" stroke="#666666" points="157,-39.88 0,-39.88 0,-6.38 157,-6.38 157,-39.88"/>
<text xml:space="preserve" text-anchor="start" x="8" y="-26.38" font-family="Helvetica,sans-Serif" font-size="10.00">Audio::FQuartzClockTickRate</text>
<text xml:space="preserve" text-anchor="middle" x="78.5" y="-13.62" font-family="Helvetica,sans-Serif" font-size="10.00">::FQuartzClockTickRate</text>
</a>
</g>
</g>
<!-- Node2 -->
<g id="Node000002" class="node">
<title>Node2</title>
<g id="a_Node000002"><a xlink:href="structAudio_1_1FQuartzClockTickRate.html#a3a7b64ff5f9338bca13cec545d0bc2a7" target="_top" xlink:title=" ">
<polygon fill="white" stroke="#666666" points="350,-39.88 193,-39.88 193,-6.38 350,-6.38 350,-39.88"/>
<text xml:space="preserve" text-anchor="start" x="201" y="-26.38" font-family="Helvetica,sans-Serif" font-size="10.00">Audio::FQuartzClockTickRate</text>
<text xml:space="preserve" text-anchor="middle" x="271.5" y="-13.62" font-family="Helvetica,sans-Serif" font-size="10.00">::SetBeatsPerMinute</text>
</a>
</g>
</g>
<!-- Node1&#45;&gt;Node2 -->
<g id="edge1_Node000001_Node000002" class="edge">
<title>Node1&#45;&gt;Node2</title>
<g id="a_edge1_Node000001_Node000002"><a xlink:title=" ">
<path fill="none" stroke="#63b8ff" d="M157.46,-23.12C165.39,-23.12 173.47,-23.12 181.5,-23.12"/>
<polygon fill="#63b8ff" stroke="#63b8ff" points="181.27,-26.63 191.27,-23.13 181.27,-19.63 181.27,-26.63"/>
</a>
</g>
</g>
<!-- Node3 -->
<g id="Node000003" class="node">
<title>Node3</title>
<g id="a_Node000003"><a xlink:href="structAudio_1_1FQuartzClockTickRate.html#a820a159b382d41d1abf476b2c08106d4" target="_top" xlink:title=" ">
<polygon fill="white" stroke="#666666" points="591.75,-46.25 386,-46.25 386,0 591.75,0 591.75,-46.25"/>
<text xml:space="preserve" text-anchor="start" x="394" y="-32.75" font-family="Helvetica,sans-Serif" font-size="10.00">Audio::FQuartzClockTickRate</text>
<text xml:space="preserve" text-anchor="start" x="394" y="-20" font-family="Helvetica,sans-Serif" font-size="10.00">::RecalculateDurationsBasedOnFrames</text>
<text xml:space="preserve" text-anchor="middle" x="488.88" y="-7.25" font-family="Helvetica,sans-Serif" font-size="10.00">PerTick</text>
</a>
</g>
</g>
<!-- Node2&#45;&gt;Node3 -->
<g id="edge2_Node000002_Node000003" class="edge">
<title>Node2&#45;&gt;Node3</title>
<g id="a_edge2_Node000002_Node000003"><a xlink:title=" ">
<path fill="none" stroke="#63b8ff" d="M350.26,-23.12C358.21,-23.12 366.4,-23.12 374.63,-23.12"/>
<polygon fill="#63b8ff" stroke="#63b8ff" points="374.35,-26.63 384.35,-23.13 374.35,-19.63 374.35,-26.63"/>
</a>
</g>
</g>
</g>
</svg>
