<?xml version="1.0" encoding="UTF-8" standalone="no"?>
<!DOCTYPE svg PUBLIC "-//W3C//DTD SVG 1.1//EN"
 "http://www.w3.org/Graphics/SVG/1.1/DTD/svg11.dtd">
<!-- Generated by graphviz version 14.1.4 (0)
 -->
<!-- Title: FConstraintInstance::FConstraintInstance Pages: 1 -->
<svg width="375pt" height="250pt"
 viewBox="0.00 0.00 375.00 250.00" xmlns="http://www.w3.org/2000/svg" xmlns:xlink="http://www.w3.org/1999/xlink">

<svg id="main" version="1.1" xmlns="http://www.w3.org/2000/svg" xmlns:xlink="http://www.w3.org/1999/xlink" xml:space="preserve">

<style type="text/css"><![CDATA[
.node, .edge {opacity: 0.7;}
.node.selected, .edge.selected {opacity: 1;}
.edge:hover path { stroke: red; }
.edge:hover polygon { stroke: red; fill: red; }
]]></style>
<script type="application/ecmascript" xlink:href="svg.min.js"/>
<svg id="graph" class="graph">
<g id="graph0" class="graph" transform="scale(1 1) rotate(0) translate(4 245.5)">
<title>FConstraintInstance::FConstraintInstance</title>
<!-- Node1 -->
<g id="Node000001" class="node">
<title>Node1</title>
<g id="a_Node000001"><a xlink:title=" ">
<polygon fill="#999999" stroke="#666666" points="367.25,-137.5 247.75,-137.5 247.75,-104 367.25,-104 367.25,-137.5"/>
<text xml:space="preserve" text-anchor="start" x="255.75" y="-124" font-family="Helvetica,sans-Serif" font-size="10.00">FConstraintInstance</text>
<text xml:space="preserve" text-anchor="middle" x="307.5" y="-111.25" font-family="Helvetica,sans-Serif" font-size="10.00">::FConstraintInstance</text>
</a>
</g>
</g>
<!-- Node1&#45;&gt;Node1 -->
<g id="edge5_Node000001_Node000001" class="edge">
<title>Node1&#45;&gt;Node1</title>
<g id="a_edge5_Node000001_Node000001"><a xlink:title=" ">
<path fill="none" stroke="#63b8ff" d="M341.35,-148.89C335.84,-152.85 324.56,-155.5 307.5,-155.5 277.18,-155.5 265.1,-147.12 271.26,-137.91"/>
<polygon fill="#63b8ff" stroke="#63b8ff" points="344.71,-149.91 343.42,-139.39 337.87,-148.42 344.71,-149.91"/>
</a>
</g>
</g>
<!-- Node2 -->
<g id="Node000002" class="node">
<title>Node2</title>
<g id="a_Node000002"><a xlink:href="structFConstraintInstance.html#ae652a0354681452d69a9933a88740863" target="_top" xlink:title=" ">
<polygon fill="white" stroke="#666666" points="162.62,-241.5 49.12,-241.5 49.12,-208 162.62,-208 162.62,-241.5"/>
<text xml:space="preserve" text-anchor="start" x="57.12" y="-228" font-family="Helvetica,sans-Serif" font-size="10.00">FConstraintInstance</text>
<text xml:space="preserve" text-anchor="middle" x="105.88" y="-215.25" font-family="Helvetica,sans-Serif" font-size="10.00">::Alloc</text>
</a>
</g>
</g>
<!-- Node1&#45;&gt;Node2 -->
<g id="edge1_Node000001_Node000002" class="edge">
<title>Node1&#45;&gt;Node2</title>
<g id="a_edge1_Node000001_Node000002"><a xlink:title=" ">
<path fill="none" stroke="#63b8ff" d="M282.21,-146C264.27,-163.25 238.42,-185.34 211.75,-198.75 196.67,-206.33 179.23,-211.8 162.95,-215.7"/>
<polygon fill="#63b8ff" stroke="#63b8ff" points="284.61,-148.55 289.28,-139.04 279.7,-143.56 284.61,-148.55"/>
</a>
</g>
</g>
<!-- Node3 -->
<g id="Node000003" class="node">
<title>Node3</title>
<g id="a_Node000003"><a xlink:href="structFConstraintInstance.html#a8545dfa274e42c1de560c861eff93163" target="_top" xlink:title=" ">
<polygon fill="white" stroke="#666666" points="191.12,-189.5 20.62,-189.5 20.62,-156 191.12,-156 191.12,-189.5"/>
<text xml:space="preserve" text-anchor="start" x="28.62" y="-176" font-family="Helvetica,sans-Serif" font-size="10.00">FConstraintInstance</text>
<text xml:space="preserve" text-anchor="middle" x="105.88" y="-163.25" font-family="Helvetica,sans-Serif" font-size="10.00">::CopyConstraintGeometryFrom</text>
</a>
</g>
</g>
<!-- Node1&#45;&gt;Node3 -->
<g id="edge2_Node000001_Node000003" class="edge">
<title>Node1&#45;&gt;Node3</title>
<g id="a_edge2_Node000001_Node000003"><a xlink:title=" ">
<path fill="none" stroke="#63b8ff" d="M236.53,-140.16C228.19,-142.41 219.78,-144.65 211.75,-146.75 200.68,-149.64 188.93,-152.63 177.45,-155.51"/>
<polygon fill="#63b8ff" stroke="#63b8ff" points="237.23,-143.6 245.96,-137.6 235.4,-136.84 237.23,-143.6"/>
</a>
</g>
</g>
<!-- Node4 -->
<g id="Node000004" class="node">
<title>Node4</title>
<g id="a_Node000004"><a xlink:href="structFConstraintInstance.html#ab1d04be03e1495af1754933cb8e06b6d" target="_top" xlink:title=" ">
<polygon fill="white" stroke="#666666" points="185.12,-137.5 26.62,-137.5 26.62,-104 185.12,-104 185.12,-137.5"/>
<text xml:space="preserve" text-anchor="start" x="34.62" y="-124" font-family="Helvetica,sans-Serif" font-size="10.00">FConstraintInstance</text>
<text xml:space="preserve" text-anchor="middle" x="105.88" y="-111.25" font-family="Helvetica,sans-Serif" font-size="10.00">::CopyConstraintParamsFrom</text>
</a>
</g>
</g>
<!-- Node1&#45;&gt;Node4 -->
<g id="edge3_Node000001_Node000004" class="edge">
<title>Node1&#45;&gt;Node4</title>
<g id="a_edge3_Node000001_Node000004"><a xlink:title=" ">
<path fill="none" stroke="#63b8ff" d="M236.25,-120.75C219.81,-120.75 202.2,-120.75 185.43,-120.75"/>
<polygon fill="#63b8ff" stroke="#63b8ff" points="235.9,-124.25 245.9,-120.75 235.9,-117.25 235.9,-124.25"/>
</a>
</g>
</g>
<!-- Node5 -->
<g id="Node000005" class="node">
<title>Node5</title>
<g id="a_Node000005"><a xlink:href="structFConstraintInstance.html#adea9f0c78b7cd84a34c6e502165e90da" target="_top" xlink:title=" ">
<polygon fill="white" stroke="#666666" points="211.75,-85.5 0,-85.5 0,-52 211.75,-52 211.75,-85.5"/>
<text xml:space="preserve" text-anchor="start" x="8" y="-72" font-family="Helvetica,sans-Serif" font-size="10.00">FConstraintInstance</text>
<text xml:space="preserve" text-anchor="middle" x="105.88" y="-59.25" font-family="Helvetica,sans-Serif" font-size="10.00">::CopyConstraintPhysicalPropertiesFrom</text>
</a>
</g>
</g>
<!-- Node1&#45;&gt;Node5 -->
<g id="edge4_Node000001_Node000005" class="edge">
<title>Node1&#45;&gt;Node5</title>
<g id="a_edge4_Node000001_Node000005"><a xlink:title=" ">
<path fill="none" stroke="#63b8ff" d="M236.53,-101.34C228.19,-99.09 219.78,-96.85 211.75,-94.75 200.68,-91.86 188.93,-88.87 177.45,-85.99"/>
<polygon fill="#63b8ff" stroke="#63b8ff" points="235.4,-104.66 245.96,-103.9 237.23,-97.9 235.4,-104.66"/>
</a>
</g>
</g>
<!-- Node6 -->
<g id="Node000006" class="node">
<title>Node6</title>
<g id="a_Node000006"><a xlink:href="structFConstraintInstance.html#a89f7016c0e6a8b42c6514d6668842eb6" target="_top" xlink:title=" ">
<polygon fill="white" stroke="#666666" points="162.62,-33.5 49.12,-33.5 49.12,0 162.62,0 162.62,-33.5"/>
<text xml:space="preserve" text-anchor="start" x="57.12" y="-20" font-family="Helvetica,sans-Serif" font-size="10.00">FConstraintInstance</text>
<text xml:space="preserve" text-anchor="middle" x="105.88" y="-7.25" font-family="Helvetica,sans-Serif" font-size="10.00">::Free</text>
</a>
</g>
</g>
<!-- Node1&#45;&gt;Node6 -->
<g id="edge6_Node000001_Node000006" class="edge">
<title>Node1&#45;&gt;Node6</title>
<g id="a_edge6_Node000001_Node000006"><a xlink:title=" ">
<path fill="none" stroke="#63b8ff" d="M282.21,-95.5C264.27,-78.25 238.42,-56.16 211.75,-42.75 196.67,-35.17 179.23,-29.7 162.95,-25.8"/>
<polygon fill="#63b8ff" stroke="#63b8ff" points="279.7,-97.94 289.28,-102.46 284.61,-92.95 279.7,-97.94"/>
</a>
</g>
</g>
</g>
</svg>
</svg>

<style type='text/css'>
<![CDATA[
[data-mouse-over-selected='false'] { opacity: 0.7; }
[data-mouse-over-selected='true']  { opacity: 1.0; }
]]>
</style>
<script type="application/ecmascript"><![CDATA[
document.addEventListener('DOMContentLoaded', (event) => {
  highlightEdges();
  highlightAdjacentNodes();
});
]]></script>
</svg>
