<?xml version="1.0" encoding="UTF-8" standalone="no"?>
<!DOCTYPE svg PUBLIC "-//W3C//DTD SVG 1.1//EN"
 "http://www.w3.org/Graphics/SVG/1.1/DTD/svg11.dtd">
<!-- Generated by graphviz version 14.1.4 (0)
 -->
<!-- Title: FLevelRemoveFromWorldAccessor Pages: 1 -->
<svg width="186pt" height="134pt"
 viewBox="0.00 0.00 186.00 134.00" xmlns="http://www.w3.org/2000/svg" xmlns:xlink="http://www.w3.org/1999/xlink">
<g id="graph0" class="graph" transform="scale(1 1) rotate(0) translate(4 130)">
<title>FLevelRemoveFromWorldAccessor</title>
<!-- Node1 -->
<g id="Node000001" class="node">
<title>Node1</title>
<g id="a_Node000001"><a xlink:title=" ">
<polygon fill="#999999" stroke="none" points="177.5,-126 0,-126 0,0 177.5,0 177.5,-126"/>
<text xml:space="preserve" text-anchor="start" x="4" y="-112.25" font-family="Helvetica,sans-Serif" font-size="10.00">FLevelRemoveFromWorldAccessor</text>
<text xml:space="preserve" text-anchor="start" x="85.75" y="-95.5" font-family="Helvetica,sans-Serif" font-size="10.00"> </text>
<text xml:space="preserve" text-anchor="start" x="7.31" y="-78.75" font-family="Helvetica,sans-Serif" font-size="10.00">&#45;</text>
<text xml:space="preserve" text-anchor="start" x="18.38" y="-78.75" font-family="Helvetica,sans-Serif" font-size="10.00">RouteActorEndPlayForRemove</text>
<text xml:space="preserve" text-anchor="start" x="18.38" y="-66" font-family="Helvetica,sans-Serif" font-size="10.00">FromWorld()</text>
<text xml:space="preserve" text-anchor="start" x="7.31" y="-49.25" font-family="Helvetica,sans-Serif" font-size="10.00">&#45;</text>
<text xml:space="preserve" text-anchor="start" x="18.38" y="-49.25" font-family="Helvetica,sans-Serif" font-size="10.00">ResetRouteActorEndPlayFor</text>
<text xml:space="preserve" text-anchor="start" x="18.38" y="-36.5" font-family="Helvetica,sans-Serif" font-size="10.00">RemoveFromWorld()</text>
<text xml:space="preserve" text-anchor="start" x="7.31" y="-19.75" font-family="Helvetica,sans-Serif" font-size="10.00">&#45;</text>
<text xml:space="preserve" text-anchor="start" x="18.38" y="-19.75" font-family="Helvetica,sans-Serif" font-size="10.00">IsFinishedRouteActorEndPlay</text>
<text xml:space="preserve" text-anchor="start" x="18.38" y="-7" font-family="Helvetica,sans-Serif" font-size="10.00">ForRemoveFromWorld()</text>
<polygon fill="#666666" stroke="#666666" points="0,-107.25 0,-107.25 177.5,-107.25 177.5,-107.25 0,-107.25"/>
<polygon fill="#666666" stroke="#666666" points="0,-90.5 0,-90.5 177.5,-90.5 177.5,-90.5 0,-90.5"/>
<polygon fill="none" stroke="#666666" points="0,0 0,-126 177.5,-126 177.5,0 0,0"/>
</a>
</g>
</g>
</g>
</svg>
