<?xml version="1.0" encoding="UTF-8" standalone="no"?>
<!DOCTYPE svg PUBLIC "-//W3C//DTD SVG 1.1//EN"
 "http://www.w3.org/Graphics/SVG/1.1/DTD/svg11.dtd">
<!-- Generated by graphviz version 14.1.4 (0)
 -->
<!-- Title: FParticlePerfStats_GPU Pages: 1 -->
<svg width="196pt" height="159pt"
 viewBox="0.00 0.00 196.00 159.00" xmlns="http://www.w3.org/2000/svg" xmlns:xlink="http://www.w3.org/1999/xlink">
<g id="graph0" class="graph" transform="scale(1 1) rotate(0) translate(4 154.75)">
<title>FParticlePerfStats_GPU</title>
<!-- Node1 -->
<g id="Node000001" class="node">
<title>Node1</title>
<g id="a_Node000001"><a xlink:title=" ">
<polygon fill="#999999" stroke="none" points="187.5,-150.75 0,-150.75 0,0 187.5,0 187.5,-150.75"/>
<text xml:space="preserve" text-anchor="start" x="37.12" y="-137" font-family="Helvetica,sans-Serif" font-size="10.00">FParticlePerfStats_GPU</text>
<text xml:space="preserve" text-anchor="start" x="4" y="-120.25" font-family="Helvetica,sans-Serif" font-size="10.00">+</text>
<text xml:space="preserve" text-anchor="start" x="16.25" y="-120.25" font-family="Helvetica,sans-Serif" font-size="10.00">NumInstances</text>
<text xml:space="preserve" text-anchor="start" x="4" y="-103.5" font-family="Helvetica,sans-Serif" font-size="10.00">+</text>
<text xml:space="preserve" text-anchor="start" x="16.25" y="-103.5" font-family="Helvetica,sans-Serif" font-size="10.00">TotalMicroseconds</text>
<text xml:space="preserve" text-anchor="start" x="4" y="-86.75" font-family="Helvetica,sans-Serif" font-size="10.00">+</text>
<text xml:space="preserve" text-anchor="start" x="16.25" y="-86.75" font-family="Helvetica,sans-Serif" font-size="10.00">GetTotalMicroseconds()</text>
<text xml:space="preserve" text-anchor="start" x="4" y="-70" font-family="Helvetica,sans-Serif" font-size="10.00">+</text>
<text xml:space="preserve" text-anchor="start" x="16.25" y="-70" font-family="Helvetica,sans-Serif" font-size="10.00">GetPerInstanceAvgMicroseconds()</text>
<text xml:space="preserve" text-anchor="start" x="4" y="-53.25" font-family="Helvetica,sans-Serif" font-size="10.00">+</text>
<text xml:space="preserve" text-anchor="start" x="16.25" y="-53.25" font-family="Helvetica,sans-Serif" font-size="10.00">FParticlePerfStats</text>
<text xml:space="preserve" text-anchor="start" x="16.25" y="-40.5" font-family="Helvetica,sans-Serif" font-size="10.00">_GPU()</text>
<text xml:space="preserve" text-anchor="start" x="4" y="-23.75" font-family="Helvetica,sans-Serif" font-size="10.00">+</text>
<text xml:space="preserve" text-anchor="start" x="16.25" y="-23.75" font-family="Helvetica,sans-Serif" font-size="10.00">Reset()</text>
<text xml:space="preserve" text-anchor="start" x="4" y="-7" font-family="Helvetica,sans-Serif" font-size="10.00">+</text>
<text xml:space="preserve" text-anchor="start" x="16.25" y="-7" font-family="Helvetica,sans-Serif" font-size="10.00">operator+=()</text>
<polygon fill="#666666" stroke="#666666" points="0,-132 0,-132 187.5,-132 187.5,-132 0,-132"/>
<polygon fill="#666666" stroke="#666666" points="0,-98.5 0,-98.5 14.25,-98.5 14.25,-98.5 0,-98.5"/>
<polygon fill="#666666" stroke="#666666" points="14.25,-98.5 14.25,-98.5 187.5,-98.5 187.5,-98.5 14.25,-98.5"/>
<polygon fill="none" stroke="#666666" points="0,0 0,-150.75 187.5,-150.75 187.5,0 0,0"/>
</a>
</g>
</g>
</g>
</svg>
