<?xml version="1.0" encoding="UTF-8" standalone="no"?>
<!DOCTYPE svg PUBLIC "-//W3C//DTD SVG 1.1//EN"
 "http://www.w3.org/Graphics/SVG/1.1/DTD/svg11.dtd">
<!-- Generated by graphviz version 14.1.4 (0)
 -->
<!-- Title: FChildActorAttachedActorInfo Pages: 1 -->
<svg width="160pt" height="96pt"
 viewBox="0.00 0.00 160.00 96.00" xmlns="http://www.w3.org/2000/svg" xmlns:xlink="http://www.w3.org/1999/xlink">
<g id="graph0" class="graph" transform="scale(1 1) rotate(0) translate(4 91.75)">
<title>FChildActorAttachedActorInfo</title>
<!-- Node1 -->
<g id="Node000001" class="node">
<title>Node1</title>
<g id="a_Node000001"><a xlink:title=" ">
<polygon fill="#999999" stroke="none" points="152,-87.75 0,-87.75 0,0 152,0 152,-87.75"/>
<text xml:space="preserve" text-anchor="start" x="4" y="-74" font-family="Helvetica,sans-Serif" font-size="10.00">FChildActorAttachedActorInfo</text>
<text xml:space="preserve" text-anchor="start" x="14.44" y="-57.25" font-family="Helvetica,sans-Serif" font-size="10.00">+</text>
<text xml:space="preserve" text-anchor="start" x="37.12" y="-57.25" font-family="Helvetica,sans-Serif" font-size="10.00">Actor</text>
<text xml:space="preserve" text-anchor="start" x="14.44" y="-40.5" font-family="Helvetica,sans-Serif" font-size="10.00">+</text>
<text xml:space="preserve" text-anchor="start" x="37.12" y="-40.5" font-family="Helvetica,sans-Serif" font-size="10.00">SocketName</text>
<text xml:space="preserve" text-anchor="start" x="14.44" y="-23.75" font-family="Helvetica,sans-Serif" font-size="10.00">+</text>
<text xml:space="preserve" text-anchor="start" x="37.12" y="-23.75" font-family="Helvetica,sans-Serif" font-size="10.00">RelativeTransform</text>
<text xml:space="preserve" text-anchor="start" x="73" y="-7" font-family="Helvetica,sans-Serif" font-size="10.00"> </text>
<polygon fill="#666666" stroke="#666666" points="0,-69 0,-69 152,-69 152,-69 0,-69"/>
<polygon fill="#666666" stroke="#666666" points="0,-18.75 0,-18.75 35.12,-18.75 35.12,-18.75 0,-18.75"/>
<polygon fill="#666666" stroke="#666666" points="35.12,-18.75 35.12,-18.75 152,-18.75 152,-18.75 35.12,-18.75"/>
<polygon fill="none" stroke="#666666" points="0,0 0,-87.75 152,-87.75 152,0 0,0"/>
</a>
</g>
</g>
</g>
</svg>
