<?xml version="1.0" encoding="UTF-8" standalone="no"?>
<!DOCTYPE svg PUBLIC "-//W3C//DTD SVG 1.1//EN"
 "http://www.w3.org/Graphics/SVG/1.1/DTD/svg11.dtd">
<!-- Generated by graphviz version 14.1.4 (0)
 -->
<!-- Title: FParticlePerfStats_GT::Reset Pages: 1 -->
<svg width="475pt" height="250pt"
 viewBox="0.00 0.00 475.00 250.00" xmlns="http://www.w3.org/2000/svg" xmlns:xlink="http://www.w3.org/1999/xlink">
<g id="graph0" class="graph" transform="scale(1 1) rotate(0) translate(4 245.5)">
<title>FParticlePerfStats_GT::Reset</title>
<!-- Node1 -->
<g id="Node000001" class="node">
<title>Node1</title>
<g id="a_Node000001"><a xlink:title=" ">
<polygon fill="#999999" stroke="#666666" points="466.5,-85.5 363.5,-85.5 363.5,-52 466.5,-52 466.5,-85.5"/>
<text xml:space="preserve" text-anchor="start" x="371.5" y="-72" font-family="Helvetica,sans-Serif" font-size="10.00">FParticlePerfStats</text>
<text xml:space="preserve" text-anchor="middle" x="415" y="-59.25" font-family="Helvetica,sans-Serif" font-size="10.00">_GT::Reset</text>
</a>
</g>
</g>
<!-- Node2 -->
<g id="Node000002" class="node">
<title>Node2</title>
<g id="a_Node000002"><a xlink:href="structFParticlePerfStats__GT.html#a332e5dc062f59d0e14c0489cbb2a7566" target="_top" xlink:title=" ">
<polygon fill="white" stroke="#666666" points="327.5,-111.5 181.75,-111.5 181.75,-78 327.5,-78 327.5,-111.5"/>
<text xml:space="preserve" text-anchor="start" x="189.75" y="-98" font-family="Helvetica,sans-Serif" font-size="10.00">FParticlePerfStats</text>
<text xml:space="preserve" text-anchor="middle" x="254.62" y="-85.25" font-family="Helvetica,sans-Serif" font-size="10.00">_GT::FParticlePerfStats_GT</text>
</a>
</g>
</g>
<!-- Node1&#45;&gt;Node2 -->
<g id="edge1_Node000001_Node000002" class="edge">
<title>Node1&#45;&gt;Node2</title>
<g id="a_edge1_Node000001_Node000002"><a xlink:title=" ">
<path fill="none" stroke="#63b8ff" d="M351.74,-78.97C343.9,-80.26 335.83,-81.58 327.85,-82.89"/>
<polygon fill="#63b8ff" stroke="#63b8ff" points="352.22,-82.44 361.52,-77.36 351.09,-75.53 352.22,-82.44"/>
</a>
</g>
</g>
<!-- Node7 -->
<g id="Node000007" class="node">
<title>Node7</title>
<g id="a_Node000007"><a xlink:href="structFParticlePerfStats__GT.html#afa60140a865d116e5b7748e25c7cfdec" target="_top" xlink:title=" ">
<polygon fill="white" stroke="#666666" points="124.38,-33.5 21.38,-33.5 21.38,0 124.38,0 124.38,-33.5"/>
<text xml:space="preserve" text-anchor="start" x="29.38" y="-20" font-family="Helvetica,sans-Serif" font-size="10.00">FParticlePerfStats</text>
<text xml:space="preserve" text-anchor="middle" x="72.88" y="-7.25" font-family="Helvetica,sans-Serif" font-size="10.00">_GT::operator=</text>
</a>
</g>
</g>
<!-- Node1&#45;&gt;Node7 -->
<g id="edge7_Node000001_Node000007" class="edge">
<title>Node1&#45;&gt;Node7</title>
<g id="a_edge7_Node000001_Node000007"><a xlink:title=" ">
<path fill="none" stroke="#63b8ff" d="M351.75,-59.23C286.58,-49.27 185.47,-33.81 124.86,-24.55"/>
<polygon fill="#63b8ff" stroke="#63b8ff" points="351.17,-62.68 361.58,-60.74 352.23,-55.77 351.17,-62.68"/>
</a>
</g>
</g>
<!-- Node3 -->
<g id="Node000003" class="node">
<title>Node3</title>
<g id="a_Node000003"><a xlink:href="structFParticlePerfStats__GT.html#a9c59bdfc33db5c24a71d28c2a80ad75f" target="_top" xlink:title=" ">
<polygon fill="white" stroke="#666666" points="145.75,-241.5 0,-241.5 0,-208 145.75,-208 145.75,-241.5"/>
<text xml:space="preserve" text-anchor="start" x="8" y="-228" font-family="Helvetica,sans-Serif" font-size="10.00">FParticlePerfStats</text>
<text xml:space="preserve" text-anchor="middle" x="72.88" y="-215.25" font-family="Helvetica,sans-Serif" font-size="10.00">_GT::FParticlePerfStats_GT</text>
</a>
</g>
</g>
<!-- Node2&#45;&gt;Node3 -->
<g id="edge2_Node000002_Node000003" class="edge">
<title>Node2&#45;&gt;Node3</title>
<g id="a_edge2_Node000002_Node000003"><a xlink:title=" ">
<path fill="none" stroke="#63b8ff" d="M232.63,-120.42C212.46,-143.64 180.06,-177.38 145.75,-198.75 140.46,-202.05 134.68,-205.01 128.79,-207.65"/>
<polygon fill="#63b8ff" stroke="#63b8ff" points="235.19,-122.81 239.01,-112.93 229.86,-118.27 235.19,-122.81"/>
</a>
</g>
</g>
<!-- Node4 -->
<g id="Node000004" class="node">
<title>Node4</title>
<g id="a_Node000004"><a xlink:href="structFParticlePerfStats__GT.html#ac83f7fd6a71e1f0c58b03954b91a1468" target="_top" xlink:title=" ">
<polygon fill="white" stroke="#666666" points="145.75,-189.5 0,-189.5 0,-156 145.75,-156 145.75,-189.5"/>
<text xml:space="preserve" text-anchor="start" x="8" y="-176" font-family="Helvetica,sans-Serif" font-size="10.00">FParticlePerfStats</text>
<text xml:space="preserve" text-anchor="middle" x="72.88" y="-163.25" font-family="Helvetica,sans-Serif" font-size="10.00">_GT::FParticlePerfStats_GT</text>
</a>
</g>
</g>
<!-- Node2&#45;&gt;Node4 -->
<g id="edge3_Node000002_Node000004" class="edge">
<title>Node2&#45;&gt;Node4</title>
<g id="a_edge3_Node000002_Node000004"><a xlink:title=" ">
<path fill="none" stroke="#63b8ff" d="M210.39,-116.84C190.85,-126.49 167.36,-137.66 145.75,-146.75 138.66,-149.73 131.09,-152.7 123.62,-155.5"/>
<polygon fill="#63b8ff" stroke="#63b8ff" points="211.75,-120.07 219.14,-112.48 208.63,-113.8 211.75,-120.07"/>
</a>
</g>
</g>
<!-- Node5 -->
<g id="Node000005" class="node">
<title>Node5</title>
<g id="a_Node000005"><a xlink:href="structFParticlePerfStats__GT.html#a8681caa6f3a0859b4d46d5357f72856f" target="_top" xlink:title=" ">
<polygon fill="white" stroke="#666666" points="124.38,-137.5 21.38,-137.5 21.38,-104 124.38,-104 124.38,-137.5"/>
<text xml:space="preserve" text-anchor="start" x="29.38" y="-124" font-family="Helvetica,sans-Serif" font-size="10.00">FParticlePerfStats</text>
<text xml:space="preserve" text-anchor="middle" x="72.88" y="-111.25" font-family="Helvetica,sans-Serif" font-size="10.00">_GT::operator+=</text>
</a>
</g>
</g>
<!-- Node2&#45;&gt;Node5 -->
<g id="edge4_Node000002_Node000005" class="edge">
<title>Node2&#45;&gt;Node5</title>
<g id="a_edge4_Node000002_Node000005"><a xlink:title=" ">
<path fill="none" stroke="#63b8ff" d="M170.1,-106.83C154.64,-109.07 138.93,-111.34 124.81,-113.38"/>
<polygon fill="#63b8ff" stroke="#63b8ff" points="170.4,-110.33 179.79,-105.43 169.39,-103.4 170.4,-110.33"/>
</a>
</g>
</g>
<!-- Node6 -->
<g id="Node000006" class="node">
<title>Node6</title>
<g id="a_Node000006"><a xlink:href="structFParticlePerfStats__GT.html#ad9e778bee58953a6b1ea711dc47d5c2e" target="_top" xlink:title=" ">
<polygon fill="white" stroke="#666666" points="124.38,-85.5 21.38,-85.5 21.38,-52 124.38,-52 124.38,-85.5"/>
<text xml:space="preserve" text-anchor="start" x="29.38" y="-72" font-family="Helvetica,sans-Serif" font-size="10.00">FParticlePerfStats</text>
<text xml:space="preserve" text-anchor="middle" x="72.88" y="-59.25" font-family="Helvetica,sans-Serif" font-size="10.00">_GT::operator=</text>
</a>
</g>
</g>
<!-- Node2&#45;&gt;Node6 -->
<g id="edge5_Node000002_Node000006" class="edge">
<title>Node2&#45;&gt;Node6</title>
<g id="a_edge5_Node000002_Node000006"><a xlink:title=" ">
<path fill="none" stroke="#63b8ff" d="M170.1,-82.67C154.64,-80.43 138.93,-78.16 124.81,-76.12"/>
<polygon fill="#63b8ff" stroke="#63b8ff" points="169.39,-86.1 179.79,-84.07 170.4,-79.17 169.39,-86.1"/>
</a>
</g>
</g>
<!-- Node2&#45;&gt;Node7 -->
<g id="edge6_Node000002_Node000007" class="edge">
<title>Node2&#45;&gt;Node7</title>
<g id="a_edge6_Node000002_Node000007"><a xlink:title=" ">
<path fill="none" stroke="#63b8ff" d="M206.65,-72.71C198.34,-68.76 189.78,-64.66 181.75,-60.75 165.66,-52.92 162.19,-49.8 145.75,-42.75 138.68,-39.71 131.12,-36.72 123.66,-33.9"/>
<polygon fill="#63b8ff" stroke="#63b8ff" points="205.08,-75.84 215.62,-76.96 208.08,-69.51 205.08,-75.84"/>
</a>
</g>
</g>
</g>
</svg>
