<?xml version="1.0" encoding="UTF-8" standalone="no"?>
<!DOCTYPE svg PUBLIC "-//W3C//DTD SVG 1.1//EN"
 "http://www.w3.org/Graphics/SVG/1.1/DTD/svg11.dtd">
<!-- Generated by graphviz version 14.1.4 (0)
 -->
<!-- Title: FCollectionReference Pages: 1 -->
<svg width="120pt" height="62pt"
 viewBox="0.00 0.00 120.00 62.00" xmlns="http://www.w3.org/2000/svg" xmlns:xlink="http://www.w3.org/1999/xlink">
<g id="graph0" class="graph" transform="scale(1 1) rotate(0) translate(4 58.25)">
<title>FCollectionReference</title>
<!-- Node1 -->
<g id="Node000001" class="node">
<title>Node1</title>
<g id="a_Node000001"><a xlink:title=" ">
<polygon fill="#999999" stroke="none" points="112.25,-54.25 0,-54.25 0,0 112.25,0 112.25,-54.25"/>
<text xml:space="preserve" text-anchor="start" x="4" y="-40.5" font-family="Helvetica,sans-Serif" font-size="10.00">FCollectionReference</text>
<text xml:space="preserve" text-anchor="start" x="7.5" y="-23.75" font-family="Helvetica,sans-Serif" font-size="10.00">+</text>
<text xml:space="preserve" text-anchor="start" x="23.25" y="-23.75" font-family="Helvetica,sans-Serif" font-size="10.00">CollectionName</text>
<text xml:space="preserve" text-anchor="start" x="53.12" y="-7" font-family="Helvetica,sans-Serif" font-size="10.00"> </text>
<polygon fill="#666666" stroke="#666666" points="0,-35.5 0,-35.5 112.25,-35.5 112.25,-35.5 0,-35.5"/>
<polygon fill="#666666" stroke="#666666" points="0,-18.75 0,-18.75 21.25,-18.75 21.25,-18.75 0,-18.75"/>
<polygon fill="#666666" stroke="#666666" points="21.25,-18.75 21.25,-18.75 112.25,-18.75 112.25,-18.75 21.25,-18.75"/>
<polygon fill="none" stroke="#666666" points="0,0 0,-54.25 112.25,-54.25 112.25,0 0,0"/>
</a>
</g>
</g>
</g>
</svg>
