<?xml version="1.0" encoding="UTF-8" standalone="no"?>
<!DOCTYPE svg PUBLIC "-//W3C//DTD SVG 1.1//EN"
 "http://www.w3.org/Graphics/SVG/1.1/DTD/svg11.dtd">
<!-- Generated by graphviz version 14.1.4 (0)
 -->
<!-- Title: Audio::FModulationDestination::FModulationDestination Pages: 1 -->
<svg width="378pt" height="198pt"
 viewBox="0.00 0.00 378.00 198.00" xmlns="http://www.w3.org/2000/svg" xmlns:xlink="http://www.w3.org/1999/xlink">
<g id="graph0" class="graph" transform="scale(1 1) rotate(0) translate(4 193.5)">
<title>Audio::FModulationDestination::FModulationDestination</title>
<!-- Node1 -->
<g id="Node000001" class="node">
<title>Node1</title>
<g id="a_Node000001"><a xlink:title=" ">
<polygon fill="#999999" stroke="#666666" points="369.5,-111.5 202.75,-111.5 202.75,-78 369.5,-78 369.5,-111.5"/>
<text xml:space="preserve" text-anchor="start" x="210.75" y="-98" font-family="Helvetica,sans-Serif" font-size="10.00">Audio::FModulationDestination</text>
<text xml:space="preserve" text-anchor="middle" x="286.12" y="-85.25" font-family="Helvetica,sans-Serif" font-size="10.00">::FModulationDestination</text>
</a>
</g>
</g>
<!-- Node2 -->
<g id="Node000002" class="node">
<title>Node2</title>
<g id="a_Node000002"><a xlink:href="structAudio_1_1FModulationDestination.html#a2d8d43ab55782df5d966a4d7bce75b75" target="_top" xlink:title=" ">
<polygon fill="white" stroke="#666666" points="166.75,-189.5 0,-189.5 0,-156 166.75,-156 166.75,-189.5"/>
<text xml:space="preserve" text-anchor="start" x="8" y="-176" font-family="Helvetica,sans-Serif" font-size="10.00">Audio::FModulationDestination</text>
<text xml:space="preserve" text-anchor="middle" x="83.38" y="-163.25" font-family="Helvetica,sans-Serif" font-size="10.00">::FModulationDestination</text>
</a>
</g>
</g>
<!-- Node1&#45;&gt;Node2 -->
<g id="edge1_Node000001_Node000002" class="edge">
<title>Node1&#45;&gt;Node2</title>
<g id="a_edge1_Node000001_Node000002"><a xlink:title=" ">
<path fill="none" stroke="#63b8ff" d="M238.54,-116.61C216.93,-126.38 190.76,-137.72 166.75,-146.75 158.61,-149.81 149.93,-152.82 141.37,-155.65"/>
<polygon fill="#63b8ff" stroke="#63b8ff" points="239.73,-119.91 247.38,-112.58 236.83,-113.54 239.73,-119.91"/>
</a>
</g>
</g>
<!-- Node3 -->
<g id="Node000003" class="node">
<title>Node3</title>
<g id="a_Node000003"><a xlink:href="structAudio_1_1FModulationDestination.html#ac0a828209a5c02c3d2eed2b2f00e4e95" target="_top" xlink:title=" ">
<polygon fill="white" stroke="#666666" points="166.75,-137.5 0,-137.5 0,-104 166.75,-104 166.75,-137.5"/>
<text xml:space="preserve" text-anchor="start" x="8" y="-124" font-family="Helvetica,sans-Serif" font-size="10.00">Audio::FModulationDestination</text>
<text xml:space="preserve" text-anchor="middle" x="83.38" y="-111.25" font-family="Helvetica,sans-Serif" font-size="10.00">::FModulationDestination</text>
</a>
</g>
</g>
<!-- Node1&#45;&gt;Node3 -->
<g id="edge2_Node000001_Node000003" class="edge">
<title>Node1&#45;&gt;Node3</title>
<g id="a_edge2_Node000001_Node000003"><a xlink:title=" ">
<path fill="none" stroke="#63b8ff" d="M191.03,-106.94C183,-107.98 174.92,-109.02 167,-110.05"/>
<polygon fill="#63b8ff" stroke="#63b8ff" points="191.34,-110.43 200.81,-105.67 190.45,-103.48 191.34,-110.43"/>
</a>
</g>
</g>
<!-- Node4 -->
<g id="Node000004" class="node">
<title>Node4</title>
<g id="a_Node000004"><a xlink:href="structAudio_1_1FModulationDestination.html#a179b7016c90aabf8d37e6f9453420bcd" target="_top" xlink:title=" ">
<polygon fill="white" stroke="#666666" points="166.75,-85.5 0,-85.5 0,-52 166.75,-52 166.75,-85.5"/>
<text xml:space="preserve" text-anchor="start" x="8" y="-72" font-family="Helvetica,sans-Serif" font-size="10.00">Audio::FModulationDestination</text>
<text xml:space="preserve" text-anchor="middle" x="83.38" y="-59.25" font-family="Helvetica,sans-Serif" font-size="10.00">::operator=</text>
</a>
</g>
</g>
<!-- Node1&#45;&gt;Node4 -->
<g id="edge3_Node000001_Node000004" class="edge">
<title>Node1&#45;&gt;Node4</title>
<g id="a_edge3_Node000001_Node000004"><a xlink:title=" ">
<path fill="none" stroke="#63b8ff" d="M191.03,-82.56C183,-81.52 174.92,-80.48 167,-79.45"/>
<polygon fill="#63b8ff" stroke="#63b8ff" points="190.45,-86.02 200.81,-83.83 191.34,-79.07 190.45,-86.02"/>
</a>
</g>
</g>
<!-- Node5 -->
<g id="Node000005" class="node">
<title>Node5</title>
<g id="a_Node000005"><a xlink:href="structAudio_1_1FModulationDestination.html#a5fec7c3a1b741990c275a29519e9d82e" target="_top" xlink:title=" ">
<polygon fill="white" stroke="#666666" points="166.75,-33.5 0,-33.5 0,0 166.75,0 166.75,-33.5"/>
<text xml:space="preserve" text-anchor="start" x="8" y="-20" font-family="Helvetica,sans-Serif" font-size="10.00">Audio::FModulationDestination</text>
<text xml:space="preserve" text-anchor="middle" x="83.38" y="-7.25" font-family="Helvetica,sans-Serif" font-size="10.00">::operator=</text>
</a>
</g>
</g>
<!-- Node1&#45;&gt;Node5 -->
<g id="edge4_Node000001_Node000005" class="edge">
<title>Node1&#45;&gt;Node5</title>
<g id="a_edge4_Node000001_Node000005"><a xlink:title=" ">
<path fill="none" stroke="#63b8ff" d="M238.54,-72.89C216.93,-63.12 190.76,-51.78 166.75,-42.75 158.61,-39.69 149.93,-36.68 141.37,-33.85"/>
<polygon fill="#63b8ff" stroke="#63b8ff" points="236.83,-75.96 247.38,-76.92 239.73,-69.59 236.83,-75.96"/>
</a>
</g>
</g>
</g>
</svg>
