<?xml version="1.0" encoding="UTF-8" standalone="no"?>
<!DOCTYPE svg PUBLIC "-//W3C//DTD SVG 1.1//EN"
 "http://www.w3.org/Graphics/SVG/1.1/DTD/svg11.dtd">
<!-- Generated by graphviz version 14.1.4 (0)
 -->
<!-- Title: FSkeletalMeshSamplingInfo::GetRegionBuiltData Pages: 1 -->
<svg width="348pt" height="94pt"
 viewBox="0.00 0.00 348.00 94.00" xmlns="http://www.w3.org/2000/svg" xmlns:xlink="http://www.w3.org/1999/xlink">
<g id="graph0" class="graph" transform="scale(1 1) rotate(0) translate(4 89.5)">
<title>FSkeletalMeshSamplingInfo::GetRegionBuiltData</title>
<!-- Node1 -->
<g id="Node000001" class="node">
<title>Node1</title>
<g id="a_Node000001"><a xlink:title=" ">
<polygon fill="#999999" stroke="#666666" points="151.75,-59.5 0,-59.5 0,-26 151.75,-26 151.75,-59.5"/>
<text xml:space="preserve" text-anchor="start" x="8" y="-46" font-family="Helvetica,sans-Serif" font-size="10.00">FSkeletalMeshSamplingInfo</text>
<text xml:space="preserve" text-anchor="middle" x="75.88" y="-33.25" font-family="Helvetica,sans-Serif" font-size="10.00">::GetRegionBuiltData</text>
</a>
</g>
</g>
<!-- Node2 -->
<g id="Node000002" class="node">
<title>Node2</title>
<g id="a_Node000002"><a xlink:href="structFSkeletalMeshSamplingInfo.html#ad2a3b1d6cb434a2b9973d94e3fcf060b" target="_top" xlink:title=" ">
<polygon fill="white" stroke="#666666" points="339.5,-85.5 187.75,-85.5 187.75,-52 339.5,-52 339.5,-85.5"/>
<text xml:space="preserve" text-anchor="start" x="195.75" y="-72" font-family="Helvetica,sans-Serif" font-size="10.00">FSkeletalMeshSamplingInfo</text>
<text xml:space="preserve" text-anchor="middle" x="263.62" y="-59.25" font-family="Helvetica,sans-Serif" font-size="10.00">::GetRegionBuiltData</text>
</a>
</g>
</g>
<!-- Node1&#45;&gt;Node2 -->
<g id="edge1_Node000001_Node000002" class="edge">
<title>Node1&#45;&gt;Node2</title>
<g id="a_edge1_Node000001_Node000002"><a xlink:title=" ">
<path fill="none" stroke="#63b8ff" d="M152.16,-53.29C160.09,-54.4 168.19,-55.53 176.24,-56.66"/>
<polygon fill="#63b8ff" stroke="#63b8ff" points="175.65,-60.11 186.04,-58.03 176.62,-53.18 175.65,-60.11"/>
</a>
</g>
</g>
<!-- Node3 -->
<g id="Node000003" class="node">
<title>Node3</title>
<g id="a_Node000003"><a xlink:href="structFSkeletalMeshSamplingInfo.html#a421c27da323b572d86e169e66371859a" target="_top" xlink:title=" ">
<polygon fill="white" stroke="#666666" points="339.5,-33.5 187.75,-33.5 187.75,0 339.5,0 339.5,-33.5"/>
<text xml:space="preserve" text-anchor="start" x="195.75" y="-20" font-family="Helvetica,sans-Serif" font-size="10.00">FSkeletalMeshSamplingInfo</text>
<text xml:space="preserve" text-anchor="middle" x="263.62" y="-7.25" font-family="Helvetica,sans-Serif" font-size="10.00">::IndexOfRegion</text>
</a>
</g>
</g>
<!-- Node1&#45;&gt;Node3 -->
<g id="edge2_Node000001_Node000003" class="edge">
<title>Node1&#45;&gt;Node3</title>
<g id="a_edge2_Node000001_Node000003"><a xlink:title=" ">
<path fill="none" stroke="#63b8ff" d="M152.16,-32.21C160.09,-31.1 168.19,-29.97 176.24,-28.84"/>
<polygon fill="#63b8ff" stroke="#63b8ff" points="176.62,-32.32 186.04,-27.47 175.65,-25.39 176.62,-32.32"/>
</a>
</g>
</g>
</g>
</svg>
