<?xml version="1.0" encoding="UTF-8" standalone="no"?>
<!DOCTYPE svg PUBLIC "-//W3C//DTD SVG 1.1//EN"
 "http://www.w3.org/Graphics/SVG/1.1/DTD/svg11.dtd">
<!-- Generated by graphviz version 14.1.4 (0)
 -->
<!-- Title: FAnimationBaseContext Pages: 1 -->
<svg width="199pt" height="682pt"
 viewBox="0.00 0.00 199.00 682.00" xmlns="http://www.w3.org/2000/svg" xmlns:xlink="http://www.w3.org/1999/xlink">
<g id="graph0" class="graph" transform="scale(1 1) rotate(0) translate(4 678.25)">
<title>FAnimationBaseContext</title>
<!-- Node1 -->
<g id="Node000001" class="node">
<title>Node1</title>
<g id="a_Node000001"><a xlink:title=" ">
<polygon fill="#999999" stroke="none" points="168,-322.25 22.5,-322.25 22.5,0 168,0 168,-322.25"/>
<text xml:space="preserve" text-anchor="start" x="36.38" y="-308.5" font-family="Helvetica,sans-Serif" font-size="10.00">FAnimationBaseContext</text>
<text xml:space="preserve" text-anchor="start" x="26.5" y="-291.75" font-family="Helvetica,sans-Serif" font-size="10.00">+</text>
<text xml:space="preserve" text-anchor="start" x="38.75" y="-291.75" font-family="Helvetica,sans-Serif" font-size="10.00">AnimInstanceProxy</text>
<text xml:space="preserve" text-anchor="start" x="26.5" y="-275" font-family="Helvetica,sans-Serif" font-size="10.00">#</text>
<text xml:space="preserve" text-anchor="start" x="38.75" y="-275" font-family="Helvetica,sans-Serif" font-size="10.00">bIsActive</text>
<text xml:space="preserve" text-anchor="start" x="26.5" y="-258.25" font-family="Helvetica,sans-Serif" font-size="10.00">#</text>
<text xml:space="preserve" text-anchor="start" x="38.75" y="-258.25" font-family="Helvetica,sans-Serif" font-size="10.00">CurrentNodeId</text>
<text xml:space="preserve" text-anchor="start" x="26.5" y="-241.5" font-family="Helvetica,sans-Serif" font-size="10.00">#</text>
<text xml:space="preserve" text-anchor="start" x="38.75" y="-241.5" font-family="Helvetica,sans-Serif" font-size="10.00">PreviousNodeId</text>
<text xml:space="preserve" text-anchor="start" x="26.5" y="-224.75" font-family="Helvetica,sans-Serif" font-size="10.00">+</text>
<text xml:space="preserve" text-anchor="start" x="38.75" y="-224.75" font-family="Helvetica,sans-Serif" font-size="10.00">FAnimationBaseContext()</text>
<text xml:space="preserve" text-anchor="start" x="26.5" y="-208" font-family="Helvetica,sans-Serif" font-size="10.00">+</text>
<text xml:space="preserve" text-anchor="start" x="38.75" y="-208" font-family="Helvetica,sans-Serif" font-size="10.00">FAnimationBaseContext()</text>
<text xml:space="preserve" text-anchor="start" x="26.5" y="-191.25" font-family="Helvetica,sans-Serif" font-size="10.00">+</text>
<text xml:space="preserve" text-anchor="start" x="38.75" y="-191.25" font-family="Helvetica,sans-Serif" font-size="10.00">FAnimationBaseContext()</text>
<text xml:space="preserve" text-anchor="start" x="26.5" y="-174.5" font-family="Helvetica,sans-Serif" font-size="10.00">+</text>
<text xml:space="preserve" text-anchor="start" x="38.75" y="-174.5" font-family="Helvetica,sans-Serif" font-size="10.00">operator=()</text>
<text xml:space="preserve" text-anchor="start" x="26.5" y="-157.75" font-family="Helvetica,sans-Serif" font-size="10.00">+</text>
<text xml:space="preserve" text-anchor="start" x="38.75" y="-157.75" font-family="Helvetica,sans-Serif" font-size="10.00">operator=()</text>
<text xml:space="preserve" text-anchor="start" x="26.5" y="-141" font-family="Helvetica,sans-Serif" font-size="10.00">+</text>
<text xml:space="preserve" text-anchor="start" x="38.75" y="-141" font-family="Helvetica,sans-Serif" font-size="10.00">GetAnimClass()</text>
<text xml:space="preserve" text-anchor="start" x="26.5" y="-124.25" font-family="Helvetica,sans-Serif" font-size="10.00">+</text>
<text xml:space="preserve" text-anchor="start" x="38.75" y="-124.25" font-family="Helvetica,sans-Serif" font-size="10.00">GetAnimInstanceObject()</text>
<text xml:space="preserve" text-anchor="start" x="26.5" y="-107.5" font-family="Helvetica,sans-Serif" font-size="10.00">+</text>
<text xml:space="preserve" text-anchor="start" x="38.75" y="-107.5" font-family="Helvetica,sans-Serif" font-size="10.00">TrackAncestor()</text>
<text xml:space="preserve" text-anchor="start" x="26.5" y="-90.75" font-family="Helvetica,sans-Serif" font-size="10.00">+</text>
<text xml:space="preserve" text-anchor="start" x="38.75" y="-90.75" font-family="Helvetica,sans-Serif" font-size="10.00">GetAncestor()</text>
<text xml:space="preserve" text-anchor="start" x="26.5" y="-74" font-family="Helvetica,sans-Serif" font-size="10.00">+</text>
<text xml:space="preserve" text-anchor="start" x="38.75" y="-74" font-family="Helvetica,sans-Serif" font-size="10.00">GetMessage()</text>
<text xml:space="preserve" text-anchor="start" x="38.75" y="-57.25" font-family="Helvetica,sans-Serif" font-size="10.00">and 7 more...</text>
<text xml:space="preserve" text-anchor="start" x="26.5" y="-40.5" font-family="Helvetica,sans-Serif" font-size="10.00">#</text>
<text xml:space="preserve" text-anchor="start" x="38.75" y="-40.5" font-family="Helvetica,sans-Serif" font-size="10.00">FAnimationBaseContext()</text>
<text xml:space="preserve" text-anchor="start" x="26.5" y="-23.75" font-family="Helvetica,sans-Serif" font-size="10.00">#</text>
<text xml:space="preserve" text-anchor="start" x="38.75" y="-23.75" font-family="Helvetica,sans-Serif" font-size="10.00">FAnimationBaseContext()</text>
<text xml:space="preserve" text-anchor="start" x="26.5" y="-7" font-family="Helvetica,sans-Serif" font-size="10.00">#</text>
<text xml:space="preserve" text-anchor="start" x="38.75" y="-7" font-family="Helvetica,sans-Serif" font-size="10.00">LogMessageInternal()</text>
<polygon fill="#666666" stroke="#666666" points="22.5,-303.5 22.5,-303.5 168,-303.5 168,-303.5 22.5,-303.5"/>
<polygon fill="#666666" stroke="#666666" points="22.5,-236.5 22.5,-236.5 36.75,-236.5 36.75,-236.5 22.5,-236.5"/>
<polygon fill="#666666" stroke="#666666" points="36.75,-236.5 36.75,-236.5 168,-236.5 168,-236.5 36.75,-236.5"/>
<polygon fill="none" stroke="#666666" points="22.5,0 22.5,-322.25 168,-322.25 168,0 22.5,0"/>
</a>
</g>
</g>
<!-- Node2 -->
<g id="Node000002" class="node">
<title>Node2</title>
<g id="a_Node000002"><a xlink:href="structFAnimationUpdateSharedContext.html" target="_top" xlink:title=" ">
<polygon fill="white" stroke="none" points="190.5,-481.5 0,-481.5 0,-377 190.5,-377 190.5,-481.5"/>
<text xml:space="preserve" text-anchor="start" x="13.88" y="-467.75" font-family="Helvetica,sans-Serif" font-size="10.00">FAnimationUpdateSharedContext</text>
<text xml:space="preserve" text-anchor="start" x="4" y="-451" font-family="Helvetica,sans-Serif" font-size="10.00">+</text>
<text xml:space="preserve" text-anchor="start" x="16.25" y="-451" font-family="Helvetica,sans-Serif" font-size="10.00">MessageStack</text>
<text xml:space="preserve" text-anchor="start" x="4" y="-434.25" font-family="Helvetica,sans-Serif" font-size="10.00">+</text>
<text xml:space="preserve" text-anchor="start" x="16.25" y="-434.25" font-family="Helvetica,sans-Serif" font-size="10.00">FAnimationUpdateSharedContext()</text>
<text xml:space="preserve" text-anchor="start" x="4" y="-417.5" font-family="Helvetica,sans-Serif" font-size="10.00">+</text>
<text xml:space="preserve" text-anchor="start" x="16.25" y="-417.5" font-family="Helvetica,sans-Serif" font-size="10.00">FAnimationUpdateSharedContext()</text>
<text xml:space="preserve" text-anchor="start" x="4" y="-400.75" font-family="Helvetica,sans-Serif" font-size="10.00">+</text>
<text xml:space="preserve" text-anchor="start" x="16.25" y="-400.75" font-family="Helvetica,sans-Serif" font-size="10.00">operator=()</text>
<text xml:space="preserve" text-anchor="start" x="4" y="-384" font-family="Helvetica,sans-Serif" font-size="10.00">+</text>
<text xml:space="preserve" text-anchor="start" x="16.25" y="-384" font-family="Helvetica,sans-Serif" font-size="10.00">CopyForCachedUpdate()</text>
<polygon fill="#666666" stroke="#666666" points="0,-462.75 0,-462.75 190.5,-462.75 190.5,-462.75 0,-462.75"/>
<polygon fill="#666666" stroke="#666666" points="0,-446 0,-446 14.25,-446 14.25,-446 0,-446"/>
<polygon fill="#666666" stroke="#666666" points="14.25,-446 14.25,-446 190.5,-446 190.5,-446 14.25,-446"/>
<polygon fill="none" stroke="#666666" points="0,-377 0,-481.5 190.5,-481.5 190.5,-377 0,-377"/>
</a>
</g>
</g>
<!-- Node2&#45;&gt;Node1 -->
<g id="edge1_Node000001_Node000002" class="edge">
<title>Node2&#45;&gt;Node1</title>
<g id="a_edge1_Node000001_Node000002"><a xlink:title=" ">
<path fill="none" stroke="#63b8ff" d="M95.25,-377.25C95.25,-364.52 95.25,-350.14 95.25,-335"/>
<polygon fill="none" stroke="#63b8ff" points="95.25,-335.03 91.25,-329.03 95.25,-323.03 99.25,-329.03 95.25,-335.03"/>
</a>
</g>
<text xml:space="preserve" text-anchor="start" x="98.25" y="-346.25" font-family="Helvetica,sans-Serif" font-size="10.00" fill="grey">+SharedContext</text>
</g>
<!-- Node3 -->
<g id="Node000003" class="node">
<title>Node3</title>
<g id="a_Node000003"><a xlink:href="structFAnimNodeTracker.html" target="_top" xlink:title=" ">
<polygon fill="white" stroke="none" points="145,-674.25 45.5,-674.25 45.5,-536.25 145,-536.25 145,-674.25"/>
<text xml:space="preserve" text-anchor="start" x="49.5" y="-660.5" font-family="Helvetica,sans-Serif" font-size="10.00">FAnimNodeTracker</text>
<text xml:space="preserve" text-anchor="start" x="50.19" y="-643.75" font-family="Helvetica,sans-Serif" font-size="10.00">+</text>
<text xml:space="preserve" text-anchor="start" x="63.12" y="-643.75" font-family="Helvetica,sans-Serif" font-size="10.00">Map</text>
<text xml:space="preserve" text-anchor="start" x="50.19" y="-627" font-family="Helvetica,sans-Serif" font-size="10.00">+</text>
<text xml:space="preserve" text-anchor="start" x="63.12" y="-627" font-family="Helvetica,sans-Serif" font-size="10.00">Push()</text>
<text xml:space="preserve" text-anchor="start" x="50.19" y="-610.25" font-family="Helvetica,sans-Serif" font-size="10.00">+</text>
<text xml:space="preserve" text-anchor="start" x="63.12" y="-610.25" font-family="Helvetica,sans-Serif" font-size="10.00">Pop()</text>
<text xml:space="preserve" text-anchor="start" x="50.19" y="-593.5" font-family="Helvetica,sans-Serif" font-size="10.00">+</text>
<text xml:space="preserve" text-anchor="start" x="63.12" y="-593.5" font-family="Helvetica,sans-Serif" font-size="10.00">Pop()</text>
<text xml:space="preserve" text-anchor="start" x="50.19" y="-576.75" font-family="Helvetica,sans-Serif" font-size="10.00">+</text>
<text xml:space="preserve" text-anchor="start" x="63.12" y="-576.75" font-family="Helvetica,sans-Serif" font-size="10.00">Top()</text>
<text xml:space="preserve" text-anchor="start" x="50.19" y="-560" font-family="Helvetica,sans-Serif" font-size="10.00">+</text>
<text xml:space="preserve" text-anchor="start" x="63.12" y="-560" font-family="Helvetica,sans-Serif" font-size="10.00">CopyTopsOnly()</text>
<text xml:space="preserve" text-anchor="start" x="50.19" y="-543.25" font-family="Helvetica,sans-Serif" font-size="10.00">+</text>
<text xml:space="preserve" text-anchor="start" x="63.12" y="-543.25" font-family="Helvetica,sans-Serif" font-size="10.00">GetKey()</text>
<polygon fill="#666666" stroke="#666666" points="45.5,-655.5 45.5,-655.5 145,-655.5 145,-655.5 45.5,-655.5"/>
<polygon fill="#666666" stroke="#666666" points="45.5,-638.75 45.5,-638.75 61.12,-638.75 61.12,-638.75 45.5,-638.75"/>
<polygon fill="#666666" stroke="#666666" points="61.12,-638.75 61.12,-638.75 145,-638.75 145,-638.75 61.12,-638.75"/>
<polygon fill="none" stroke="#666666" points="45.5,-536.25 45.5,-674.25 145,-674.25 145,-536.25 45.5,-536.25"/>
</a>
</g>
</g>
<!-- Node3&#45;&gt;Node2 -->
<g id="edge2_Node000002_Node000003" class="edge">
<title>Node3&#45;&gt;Node2</title>
<g id="a_edge2_Node000002_Node000003"><a xlink:title=" ">
<path fill="none" stroke="#63b8ff" d="M95.25,-536.48C95.25,-522.59 95.25,-508.02 95.25,-494.28"/>
<polygon fill="none" stroke="#63b8ff" points="95.25,-494.3 91.25,-488.3 95.25,-482.3 99.25,-488.3 95.25,-494.3"/>
</a>
</g>
<text xml:space="preserve" text-anchor="start" x="98.25" y="-505.5" font-family="Helvetica,sans-Serif" font-size="10.00" fill="grey">+AncestorTracker</text>
</g>
</g>
</svg>
