<?xml version="1.0" encoding="UTF-8" standalone="no"?>
<!DOCTYPE svg PUBLIC "-//W3C//DTD SVG 1.1//EN"
 "http://www.w3.org/Graphics/SVG/1.1/DTD/svg11.dtd">
<!-- Generated by graphviz version 14.1.4 (0)
 -->
<!-- Title: FSimpleCurve::Duplicate Pages: 1 -->
<svg width="715pt" height="75pt"
 viewBox="0.00 0.00 715.00 75.00" xmlns="http://www.w3.org/2000/svg" xmlns:xlink="http://www.w3.org/1999/xlink">
<g id="graph0" class="graph" transform="scale(1 1) rotate(0) translate(4 70.75)">
<title>FSimpleCurve::Duplicate</title>
<!-- Node1 -->
<g id="Node000001" class="node">
<title>Node1</title>
<g id="a_Node000001"><a xlink:title=" ">
<polygon fill="#999999" stroke="#666666" points="136.75,-48.75 0,-48.75 0,-28 136.75,-28 136.75,-48.75"/>
<text xml:space="preserve" text-anchor="middle" x="68.38" y="-35.25" font-family="Helvetica,sans-Serif" font-size="10.00">FSimpleCurve::Duplicate</text>
</a>
</g>
</g>
<!-- Node1&#45;&gt;Node1 -->
<g id="edge1_Node000001_Node000001" class="edge">
<title>Node1&#45;&gt;Node1</title>
<g id="a_edge1_Node000001_Node000001"><a xlink:title=" ">
<path fill="none" stroke="#63b8ff" d="M38.79,-49.15C26.95,-57.81 36.81,-66.75 68.38,-66.75 85.63,-66.75 96.41,-64.08 100.69,-60.24"/>
<polygon fill="#63b8ff" stroke="#63b8ff" points="104.11,-59.49 98.32,-50.62 97.31,-61.16 104.11,-59.49"/>
</a>
</g>
</g>
<!-- Node2 -->
<g id="Node000002" class="node">
<title>Node2</title>
<g id="a_Node000002"><a xlink:href="structFIndexedCurve.html#a5e1492f9f63c3cea23de9400bcc0d065" target="_top" xlink:title=" ">
<polygon fill="white" stroke="#666666" points="706.75,-48.75 537.75,-48.75 537.75,-28 706.75,-28 706.75,-48.75"/>
<text xml:space="preserve" text-anchor="middle" x="622.25" y="-35.25" font-family="Helvetica,sans-Serif" font-size="10.00">FIndexedCurve::FIndexedCurve</text>
</a>
</g>
</g>
<!-- Node1&#45;&gt;Node2 -->
<g id="edge2_Node000001_Node000002" class="edge">
<title>Node1&#45;&gt;Node2</title>
<g id="a_edge2_Node000001_Node000002"><a xlink:title=" ">
<path fill="none" stroke="#63b8ff" d="M137.16,-45.12C149.01,-46.06 161.23,-46.87 172.75,-47.38 318.83,-53.72 355.63,-52.87 501.75,-47.38 509.68,-47.08 517.91,-46.67 526.16,-46.19"/>
<polygon fill="#63b8ff" stroke="#63b8ff" points="526.12,-49.7 535.89,-45.58 525.69,-42.71 526.12,-49.7"/>
</a>
</g>
</g>
<!-- Node3 -->
<g id="Node000003" class="node">
<title>Node3</title>
<g id="a_Node000003"><a xlink:href="structFSimpleCurve.html#a2c38f4859b4430096b49e1195dd14ceb" target="_top" xlink:title=" ">
<polygon fill="white" stroke="#666666" points="331.25,-20.75 172.75,-20.75 172.75,0 331.25,0 331.25,-20.75"/>
<text xml:space="preserve" text-anchor="middle" x="252" y="-7.25" font-family="Helvetica,sans-Serif" font-size="10.00">FSimpleCurve::FSimpleCurve</text>
</a>
</g>
</g>
<!-- Node1&#45;&gt;Node3 -->
<g id="edge3_Node000001_Node000003" class="edge">
<title>Node1&#45;&gt;Node3</title>
<g id="a_edge3_Node000001_Node000003"><a xlink:title=" ">
<path fill="none" stroke="#63b8ff" d="M137.01,-27.95C147.56,-26.32 158.56,-24.63 169.39,-22.96"/>
<polygon fill="#63b8ff" stroke="#63b8ff" points="169.73,-26.44 179.08,-21.46 168.67,-19.53 169.73,-26.44"/>
</a>
</g>
</g>
<!-- Node3&#45;&gt;Node3 -->
<g id="edge7_Node000003_Node000003" class="edge">
<title>Node3&#45;&gt;Node3</title>
<g id="a_edge7_Node000003_Node000003"><a xlink:title=" ">
<path fill="none" stroke="#63b8ff" d="M222.59,-21.15C210.83,-29.81 220.63,-38.75 252,-38.75 269.15,-38.75 279.86,-36.08 284.11,-32.24"/>
<polygon fill="#63b8ff" stroke="#63b8ff" points="287.54,-31.5 281.77,-22.62 280.74,-33.16 287.54,-31.5"/>
</a>
</g>
</g>
<!-- Node4 -->
<g id="Node000004" class="node">
<title>Node4</title>
<g id="a_Node000004"><a xlink:href="structFRealCurve.html#a342a67164d2ddda56a41d5b584461b9f" target="_top" xlink:title=" ">
<polygon fill="white" stroke="#666666" points="501.75,-20.75 367.25,-20.75 367.25,0 501.75,0 501.75,-20.75"/>
<text xml:space="preserve" text-anchor="middle" x="434.5" y="-7.25" font-family="Helvetica,sans-Serif" font-size="10.00">FRealCurve::FRealCurve</text>
</a>
</g>
</g>
<!-- Node3&#45;&gt;Node4 -->
<g id="edge4_Node000003_Node000004" class="edge">
<title>Node3&#45;&gt;Node4</title>
<g id="a_edge4_Node000003_Node000004"><a xlink:title=" ">
<path fill="none" stroke="#63b8ff" d="M331.64,-10.38C339.56,-10.38 347.6,-10.38 355.5,-10.38"/>
<polygon fill="#63b8ff" stroke="#63b8ff" points="355.46,-13.88 365.46,-10.38 355.46,-6.88 355.46,-13.88"/>
</a>
</g>
</g>
<!-- Node4&#45;&gt;Node2 -->
<g id="edge5_Node000004_Node000002" class="edge">
<title>Node4&#45;&gt;Node2</title>
<g id="a_edge5_Node000004_Node000002"><a xlink:title=" ">
<path fill="none" stroke="#63b8ff" d="M502.04,-20.4C513.75,-22.17 526.08,-24.03 538.18,-25.85"/>
<polygon fill="#63b8ff" stroke="#63b8ff" points="537.3,-29.26 547.71,-27.29 538.34,-22.34 537.3,-29.26"/>
</a>
</g>
</g>
<!-- Node4&#45;&gt;Node4 -->
<g id="edge6_Node000004_Node000004" class="edge">
<title>Node4&#45;&gt;Node4</title>
<g id="a_edge6_Node000004_Node000004"><a xlink:title=" ">
<path fill="none" stroke="#63b8ff" d="M405.09,-21.15C393.33,-29.81 403.13,-38.75 434.5,-38.75 451.65,-38.75 462.36,-36.08 466.61,-32.24"/>
<polygon fill="#63b8ff" stroke="#63b8ff" points="470.04,-31.5 464.27,-22.62 463.24,-33.16 470.04,-31.5"/>
</a>
</g>
</g>
</g>
</svg>
