<?xml version="1.0" encoding="UTF-8" standalone="no"?>
<!DOCTYPE svg PUBLIC "-//W3C//DTD SVG 1.1//EN"
 "http://www.w3.org/Graphics/SVG/1.1/DTD/svg11.dtd">
<!-- Generated by graphviz version 14.1.4 (0)
 -->
<!-- Title: FMeshDeformerSet Pages: 1 -->
<svg width="137pt" height="79pt"
 viewBox="0.00 0.00 137.00 79.00" xmlns="http://www.w3.org/2000/svg" xmlns:xlink="http://www.w3.org/1999/xlink">
<g id="graph0" class="graph" transform="scale(1 1) rotate(0) translate(4 75)">
<title>FMeshDeformerSet</title>
<!-- Node1 -->
<g id="Node000001" class="node">
<title>Node1</title>
<g id="a_Node000001"><a xlink:title=" ">
<polygon fill="#999999" stroke="none" points="129,-71 0,-71 0,0 129,0 129,-71"/>
<text xml:space="preserve" text-anchor="start" x="17.25" y="-57.25" font-family="Helvetica,sans-Serif" font-size="10.00">FMeshDeformerSet</text>
<text xml:space="preserve" text-anchor="start" x="4" y="-40.5" font-family="Helvetica,sans-Serif" font-size="10.00">+</text>
<text xml:space="preserve" text-anchor="start" x="16.25" y="-40.5" font-family="Helvetica,sans-Serif" font-size="10.00">Deformers</text>
<text xml:space="preserve" text-anchor="start" x="4" y="-23.75" font-family="Helvetica,sans-Serif" font-size="10.00">+</text>
<text xml:space="preserve" text-anchor="start" x="16.25" y="-23.75" font-family="Helvetica,sans-Serif" font-size="10.00">DeformerIndexForLOD</text>
<text xml:space="preserve" text-anchor="start" x="61.5" y="-7" font-family="Helvetica,sans-Serif" font-size="10.00"> </text>
<polygon fill="#666666" stroke="#666666" points="0,-52.25 0,-52.25 129,-52.25 129,-52.25 0,-52.25"/>
<polygon fill="#666666" stroke="#666666" points="0,-18.75 0,-18.75 14.25,-18.75 14.25,-18.75 0,-18.75"/>
<polygon fill="#666666" stroke="#666666" points="14.25,-18.75 14.25,-18.75 129,-18.75 129,-18.75 14.25,-18.75"/>
<polygon fill="none" stroke="#666666" points="0,0 0,-71 129,-71 129,0 0,0"/>
</a>
</g>
</g>
</g>
</svg>
