<?xml version="1.0" encoding="UTF-8" standalone="no"?>
<!DOCTYPE svg PUBLIC "-//W3C//DTD SVG 1.1//EN"
 "http://www.w3.org/Graphics/SVG/1.1/DTD/svg11.dtd">
<!-- Generated by graphviz version 14.1.4 (0)
 -->
<!-- Title: ISoundWaveLoadingBehaviorUtil::FClassData Pages: 1 -->
<svg width="173pt" height="125pt"
 viewBox="0.00 0.00 173.00 125.00" xmlns="http://www.w3.org/2000/svg" xmlns:xlink="http://www.w3.org/1999/xlink">
<g id="graph0" class="graph" transform="scale(1 1) rotate(0) translate(4 121.25)">
<title>ISoundWaveLoadingBehaviorUtil::FClassData</title>
<!-- Node1 -->
<g id="Node000001" class="node">
<title>Node1</title>
<g id="a_Node000001"><a xlink:title=" ">
<polygon fill="#999999" stroke="none" points="165,-117.25 0,-117.25 0,0 165,0 165,-117.25"/>
<text xml:space="preserve" text-anchor="start" x="11.25" y="-103.5" font-family="Helvetica,sans-Serif" font-size="10.00">ISoundWaveLoadingBehavior</text>
<text xml:space="preserve" text-anchor="start" x="43.12" y="-90.75" font-family="Helvetica,sans-Serif" font-size="10.00">Util::FClassData</text>
<text xml:space="preserve" text-anchor="start" x="4" y="-74" font-family="Helvetica,sans-Serif" font-size="10.00">+</text>
<text xml:space="preserve" text-anchor="start" x="16.25" y="-74" font-family="Helvetica,sans-Serif" font-size="10.00">LoadingBehavior</text>
<text xml:space="preserve" text-anchor="start" x="4" y="-57.25" font-family="Helvetica,sans-Serif" font-size="10.00">+</text>
<text xml:space="preserve" text-anchor="start" x="16.25" y="-57.25" font-family="Helvetica,sans-Serif" font-size="10.00">LengthOfFirstChunkInSeconds</text>
<text xml:space="preserve" text-anchor="start" x="4" y="-40.5" font-family="Helvetica,sans-Serif" font-size="10.00">+</text>
<text xml:space="preserve" text-anchor="start" x="16.25" y="-40.5" font-family="Helvetica,sans-Serif" font-size="10.00">FClassData()</text>
<text xml:space="preserve" text-anchor="start" x="4" y="-23.75" font-family="Helvetica,sans-Serif" font-size="10.00">+</text>
<text xml:space="preserve" text-anchor="start" x="16.25" y="-23.75" font-family="Helvetica,sans-Serif" font-size="10.00">FClassData()</text>
<text xml:space="preserve" text-anchor="start" x="4" y="-7" font-family="Helvetica,sans-Serif" font-size="10.00">+</text>
<text xml:space="preserve" text-anchor="start" x="16.25" y="-7" font-family="Helvetica,sans-Serif" font-size="10.00">CompareGreater()</text>
<polygon fill="#666666" stroke="#666666" points="0,-85.75 0,-85.75 165,-85.75 165,-85.75 0,-85.75"/>
<polygon fill="#666666" stroke="#666666" points="0,-52.25 0,-52.25 14.25,-52.25 14.25,-52.25 0,-52.25"/>
<polygon fill="#666666" stroke="#666666" points="14.25,-52.25 14.25,-52.25 165,-52.25 165,-52.25 14.25,-52.25"/>
<polygon fill="none" stroke="#666666" points="0,0 0,-117.25 165,-117.25 165,0 0,0"/>
</a>
</g>
</g>
</g>
</svg>
