<?xml version="1.0" encoding="UTF-8" standalone="no"?>
<!DOCTYPE svg PUBLIC "-//W3C//DTD SVG 1.1//EN"
 "http://www.w3.org/Graphics/SVG/1.1/DTD/svg11.dtd">
<!-- Generated by graphviz version 14.1.4 (0)
 -->
<!-- Title: TInputUnifiedDelegate::BindDelegate Pages: 1 -->
<svg width="355pt" height="185pt"
 viewBox="0.00 0.00 355.00 185.00" xmlns="http://www.w3.org/2000/svg" xmlns:xlink="http://www.w3.org/1999/xlink">

<svg id="main" version="1.1" xmlns="http://www.w3.org/2000/svg" xmlns:xlink="http://www.w3.org/1999/xlink" xml:space="preserve">

<style type="text/css"><![CDATA[
.node, .edge {opacity: 0.7;}
.node.selected, .edge.selected {opacity: 1;}
.edge:hover path { stroke: red; }
.edge:hover polygon { stroke: red; fill: red; }
]]></style>
<script type="application/ecmascript" xlink:href="svg.min.js"/>
<svg id="graph" class="graph">
<g id="graph0" class="graph" transform="scale(1 1) rotate(0) translate(4 180.75)">
<title>TInputUnifiedDelegate::BindDelegate</title>
<!-- Node1 -->
<g id="Node000001" class="node">
<title>Node1</title>
<g id="a_Node000001"><a xlink:title=" ">
<polygon fill="#999999" stroke="#666666" points="347,-105.12 220.75,-105.12 220.75,-71.62 347,-71.62 347,-105.12"/>
<text xml:space="preserve" text-anchor="start" x="228.75" y="-91.62" font-family="Helvetica,sans-Serif" font-size="10.00">TInputUnifiedDelegate</text>
<text xml:space="preserve" text-anchor="middle" x="283.88" y="-78.88" font-family="Helvetica,sans-Serif" font-size="10.00">::BindDelegate</text>
</a>
</g>
</g>
<!-- Node2 -->
<g id="Node000002" class="node">
<title>Node2</title>
<g id="a_Node000002"><a xlink:href="classUInputComponent.html#ab992211db004393d427dfac01b3c2d0c" target="_top" xlink:title=" ">
<polygon fill="white" stroke="#666666" points="169,-176.75 15.75,-176.75 15.75,-156 169,-156 169,-176.75"/>
<text xml:space="preserve" text-anchor="middle" x="92.38" y="-163.25" font-family="Helvetica,sans-Serif" font-size="10.00">UInputComponent::BindAxis</text>
</a>
</g>
</g>
<!-- Node1&#45;&gt;Node2 -->
<g id="edge1_Node000001_Node000002" class="edge">
<title>Node1&#45;&gt;Node2</title>
<g id="a_edge1_Node000001_Node000002"><a xlink:title=" ">
<path fill="none" stroke="#63b8ff" d="M249.62,-111.64C231.23,-123.56 207.54,-137.41 184.75,-146.38 175.53,-150 165.52,-153.03 155.61,-155.55"/>
<polygon fill="#63b8ff" stroke="#63b8ff" points="251.32,-114.72 257.72,-106.28 247.45,-108.88 251.32,-114.72"/>
</a>
</g>
</g>
<!-- Node3 -->
<g id="Node000003" class="node">
<title>Node3</title>
<g id="a_Node000003"><a xlink:href="classUInputComponent.html#af16e537e368f7a72551c9d66c2c1c08f" target="_top" xlink:title=" ">
<polygon fill="white" stroke="#666666" points="178,-137.75 6.75,-137.75 6.75,-117 178,-117 178,-137.75"/>
<text xml:space="preserve" text-anchor="middle" x="92.38" y="-124.25" font-family="Helvetica,sans-Serif" font-size="10.00">UInputComponent::BindAxisKey</text>
</a>
</g>
</g>
<!-- Node1&#45;&gt;Node3 -->
<g id="edge2_Node000001_Node000003" class="edge">
<title>Node1&#45;&gt;Node3</title>
<g id="a_edge2_Node000001_Node000003"><a xlink:title=" ">
<path fill="none" stroke="#63b8ff" d="M209.12,-103.55C188.08,-107.89 165.58,-112.52 146.06,-116.53"/>
<polygon fill="#63b8ff" stroke="#63b8ff" points="209.73,-107 218.82,-101.56 208.32,-100.15 209.73,-107"/>
</a>
</g>
</g>
<!-- Node4 -->
<g id="Node000004" class="node">
<title>Node4</title>
<g id="a_Node000004"><a xlink:href="classUInputComponent.html#a74e571a685c70160bd7b5c35974d22b3" target="_top" xlink:title=" ">
<polygon fill="white" stroke="#666666" points="177.62,-98.75 7.12,-98.75 7.12,-78 177.62,-78 177.62,-98.75"/>
<text xml:space="preserve" text-anchor="middle" x="92.38" y="-85.25" font-family="Helvetica,sans-Serif" font-size="10.00">UInputComponent::BindGesture</text>
</a>
</g>
</g>
<!-- Node1&#45;&gt;Node4 -->
<g id="edge3_Node000001_Node000004" class="edge">
<title>Node1&#45;&gt;Node4</title>
<g id="a_edge3_Node000001_Node000004"><a xlink:title=" ">
<path fill="none" stroke="#63b8ff" d="M208.96,-88.38C198.76,-88.38 188.23,-88.38 177.86,-88.38"/>
<polygon fill="#63b8ff" stroke="#63b8ff" points="208.79,-91.88 218.79,-88.38 208.79,-84.88 208.79,-91.88"/>
</a>
</g>
</g>
<!-- Node5 -->
<g id="Node000005" class="node">
<title>Node5</title>
<g id="a_Node000005"><a xlink:href="classUInputComponent.html#a16cf3f5e3f5acc896a7076cae8a5b1b6" target="_top" xlink:title=" ">
<polygon fill="white" stroke="#666666" points="172.38,-59.75 12.38,-59.75 12.38,-39 172.38,-39 172.38,-59.75"/>
<text xml:space="preserve" text-anchor="middle" x="92.38" y="-46.25" font-family="Helvetica,sans-Serif" font-size="10.00">UInputComponent::BindTouch</text>
</a>
</g>
</g>
<!-- Node1&#45;&gt;Node5 -->
<g id="edge4_Node000001_Node000005" class="edge">
<title>Node1&#45;&gt;Node5</title>
<g id="a_edge4_Node000001_Node000005"><a xlink:title=" ">
<path fill="none" stroke="#63b8ff" d="M209.12,-73.2C188.08,-68.86 165.58,-64.23 146.06,-60.22"/>
<polygon fill="#63b8ff" stroke="#63b8ff" points="208.32,-76.6 218.82,-75.19 209.73,-69.75 208.32,-76.6"/>
</a>
</g>
</g>
<!-- Node6 -->
<g id="Node000006" class="node">
<title>Node6</title>
<g id="a_Node000006"><a xlink:href="classUInputComponent.html#a2445f898b086c0d4b9dfaf477cd86675" target="_top" xlink:title=" ">
<polygon fill="white" stroke="#666666" points="184.75,-20.75 0,-20.75 0,0 184.75,0 184.75,-20.75"/>
<text xml:space="preserve" text-anchor="middle" x="92.38" y="-7.25" font-family="Helvetica,sans-Serif" font-size="10.00">UInputComponent::BindVectorAxis</text>
</a>
</g>
</g>
<!-- Node1&#45;&gt;Node6 -->
<g id="edge5_Node000001_Node000006" class="edge">
<title>Node1&#45;&gt;Node6</title>
<g id="a_edge5_Node000001_Node000006"><a xlink:title=" ">
<path fill="none" stroke="#63b8ff" d="M249.62,-65.11C231.23,-53.19 207.54,-39.34 184.75,-30.38 175.53,-26.75 165.52,-23.72 155.61,-21.2"/>
<polygon fill="#63b8ff" stroke="#63b8ff" points="247.45,-67.87 257.72,-70.47 251.32,-62.03 247.45,-67.87"/>
</a>
</g>
</g>
</g>
</svg>
</svg>

<style type='text/css'>
<![CDATA[
[data-mouse-over-selected='false'] { opacity: 0.7; }
[data-mouse-over-selected='true']  { opacity: 1.0; }
]]>
</style>
<script type="application/ecmascript"><![CDATA[
document.addEventListener('DOMContentLoaded', (event) => {
  highlightEdges();
  highlightAdjacentNodes();
});
]]></script>
</svg>
