<?xml version="1.0" encoding="UTF-8" standalone="no"?>
<!DOCTYPE svg PUBLIC "-//W3C//DTD SVG 1.1//EN"
 "http://www.w3.org/Graphics/SVG/1.1/DTD/svg11.dtd">
<!-- Generated by graphviz version 14.1.4 (0)
 -->
<!-- Title: FInitBodiesHelper::FInitBodiesHelper Pages: 1 -->
<svg width="519pt" height="176pt"
 viewBox="0.00 0.00 519.00 176.00" xmlns="http://www.w3.org/2000/svg" xmlns:xlink="http://www.w3.org/1999/xlink">
<g id="graph0" class="graph" transform="scale(1 1) rotate(0) translate(4 171.5)">
<title>FInitBodiesHelper::FInitBodiesHelper</title>
<!-- Node1 -->
<g id="Node000001" class="node">
<title>Node1</title>
<g id="a_Node000001"><a xlink:title=" ">
<polygon fill="#999999" stroke="#666666" points="109,-103.88 0,-103.88 0,-70.38 109,-70.38 109,-103.88"/>
<text xml:space="preserve" text-anchor="start" x="8" y="-90.38" font-family="Helvetica,sans-Serif" font-size="10.00">FInitBodiesHelper::</text>
<text xml:space="preserve" text-anchor="middle" x="54.5" y="-77.62" font-family="Helvetica,sans-Serif" font-size="10.00">FInitBodiesHelper</text>
</a>
</g>
</g>
<!-- Node2 -->
<g id="Node000002" class="node">
<title>Node2</title>
<g id="a_Node000002"><a xlink:href="PawnIterator_8h.html#a60de95b890b12253839b1151d564a100" target="_top" xlink:title=" ">
<polygon fill="white" stroke="#666666" points="259.25,-149.5 221.5,-149.5 221.5,-128.75 259.25,-128.75 259.25,-149.5"/>
<text xml:space="preserve" text-anchor="middle" x="240.38" y="-136" font-family="Helvetica,sans-Serif" font-size="10.00">Cast</text>
</a>
</g>
</g>
<!-- Node1&#45;&gt;Node2 -->
<g id="edge1_Node000001_Node000002" class="edge">
<title>Node1&#45;&gt;Node2</title>
<g id="a_edge1_Node000001_Node000002"><a xlink:title=" ">
<path fill="none" stroke="#63b8ff" d="M99.73,-104.27C114.04,-109.46 130.08,-114.9 145,-119.12 166.52,-125.22 191.26,-130.4 210.01,-133.96"/>
<polygon fill="#63b8ff" stroke="#63b8ff" points="209.15,-137.36 219.62,-135.73 210.42,-130.47 209.15,-137.36"/>
</a>
</g>
</g>
<!-- Node4 -->
<g id="Node000004" class="node">
<title>Node4</title>
<g id="a_Node000004"><a xlink:href="structTInitBodiesHelperBase.html#a8f682361805c411d49f716682f002433" target="_top" xlink:title=" ">
<polygon fill="white" stroke="#666666" points="306.88,-110.25 173.88,-110.25 173.88,-64 306.88,-64 306.88,-110.25"/>
<text xml:space="preserve" text-anchor="start" x="181.88" y="-96.75" font-family="Helvetica,sans-Serif" font-size="10.00">TInitBodiesHelperBase</text>
<text xml:space="preserve" text-anchor="start" x="181.88" y="-84" font-family="Helvetica,sans-Serif" font-size="10.00">&lt; FDefaultAllocator &gt;</text>
<text xml:space="preserve" text-anchor="middle" x="240.38" y="-71.25" font-family="Helvetica,sans-Serif" font-size="10.00">::TInitBodiesHelperBase</text>
</a>
</g>
</g>
<!-- Node1&#45;&gt;Node4 -->
<g id="edge4_Node000001_Node000004" class="edge">
<title>Node1&#45;&gt;Node4</title>
<g id="a_edge4_Node000001_Node000004"><a xlink:title=" ">
<path fill="none" stroke="#63b8ff" d="M109.18,-87.12C125.78,-87.12 144.4,-87.12 162.26,-87.12"/>
<polygon fill="#63b8ff" stroke="#63b8ff" points="162.04,-90.63 172.04,-87.13 162.04,-83.63 162.04,-90.63"/>
</a>
</g>
</g>
<!-- Node5 -->
<g id="Node000005" class="node">
<title>Node5</title>
<g id="a_Node000005"><a xlink:href="structTInitBodiesHelperBase.html#a329a2d6a9381104f6d8532e63a487114" target="_top" xlink:title=" ">
<polygon fill="white" stroke="#666666" points="335.75,-46.25 145,-46.25 145,0 335.75,0 335.75,-46.25"/>
<text xml:space="preserve" text-anchor="start" x="153" y="-32.75" font-family="Helvetica,sans-Serif" font-size="10.00">TInitBodiesHelperBase</text>
<text xml:space="preserve" text-anchor="start" x="153" y="-20" font-family="Helvetica,sans-Serif" font-size="10.00">&lt; FDefaultAllocator &gt;</text>
<text xml:space="preserve" text-anchor="middle" x="240.38" y="-7.25" font-family="Helvetica,sans-Serif" font-size="10.00">::UpdateSimulatingAndBlendWeight</text>
</a>
</g>
</g>
<!-- Node1&#45;&gt;Node5 -->
<g id="edge5_Node000001_Node000005" class="edge">
<title>Node1&#45;&gt;Node5</title>
<g id="a_edge5_Node000001_Node000005"><a xlink:title=" ">
<path fill="none" stroke="#63b8ff" d="M102.83,-70.04C116.43,-65.17 131.29,-59.9 145,-55.12 149.46,-53.57 154.04,-51.99 158.66,-50.39"/>
<polygon fill="#63b8ff" stroke="#63b8ff" points="159.74,-53.72 168.06,-47.17 157.47,-47.1 159.74,-53.72"/>
</a>
</g>
</g>
<!-- Node2&#45;&gt;Node2 -->
<g id="edge2_Node000002_Node000002" class="edge">
<title>Node2&#45;&gt;Node2</title>
<g id="a_edge2_Node000002_Node000002"><a xlink:title=" ">
<path fill="none" stroke="#63b8ff" d="M221.26,-144.42C195.16,-154.28 201.53,-167.5 240.38,-167.5 272.85,-167.5 282.63,-158.26 269.72,-149.47"/>
<polygon fill="#63b8ff" stroke="#63b8ff" points="271.37,-146.38 260.85,-145.09 268.27,-152.66 271.37,-146.38"/>
</a>
</g>
</g>
<!-- Node3 -->
<g id="Node000003" class="node">
<title>Node3</title>
<g id="a_Node000003"><a xlink:href="structFPawnIteratorObject.html#a684316caab3954b0e82449d86f7ff960" target="_top" xlink:title=" ">
<polygon fill="white" stroke="#666666" points="510.75,-149.5 371.75,-149.5 371.75,-128.75 510.75,-128.75 510.75,-149.5"/>
<text xml:space="preserve" text-anchor="middle" x="441.25" y="-136" font-family="Helvetica,sans-Serif" font-size="10.00">FPawnIteratorObject::Get</text>
</a>
</g>
</g>
<!-- Node2&#45;&gt;Node3 -->
<g id="edge3_Node000002_Node000003" class="edge">
<title>Node2&#45;&gt;Node3</title>
<g id="a_edge3_Node000002_Node000003"><a xlink:title=" ">
<path fill="none" stroke="#63b8ff" d="M259.73,-139.12C282.65,-139.12 323.35,-139.12 360.31,-139.12"/>
<polygon fill="#63b8ff" stroke="#63b8ff" points="360.12,-142.63 370.12,-139.13 360.12,-135.63 360.12,-142.63"/>
</a>
</g>
</g>
</g>
</svg>
