<?xml version="1.0" encoding="UTF-8" standalone="no"?>
<!DOCTYPE svg PUBLIC "-//W3C//DTD SVG 1.1//EN"
 "http://www.w3.org/Graphics/SVG/1.1/DTD/svg11.dtd">
<!-- Generated by graphviz version 14.1.4 (0)
 -->
<!-- Title: FMemberReference::ResolveSimpleMemberReference Pages: 1 -->
<!--zoomable 112 -->

<svg id="main" version="1.1" xmlns="http://www.w3.org/2000/svg" xmlns:xlink="http://www.w3.org/1999/xlink" xml:space="preserve" onload="init(evt)">

<style type="text/css"><![CDATA[
.node, .edge {opacity: 0.7;}
.node.selected, .edge.selected {opacity: 1;}
.edge:hover path { stroke: red; }
.edge:hover polygon { stroke: red; fill: red; }
]]></style>

<defs>
  <circle id="rim" cx="0" cy="0" r="7"/>
  <circle id="rim2" cx="0" cy="0" r="3.5"/>
  <g id="zoomPlus">
    <use xlink:href="#rim" fill="#404040"><set attributeName="fill" to="#808080" begin="zoomplus.mouseover" end="zoomplus.mouseout"/></use>
    <path d="M-4,0h8M0,-4v8" fill="none" stroke="white" stroke-width="1.5" pointer-events="none"/>
  </g>
  <g id="zoomMin">
    <use xlink:href="#rim" fill="#404040"><set attributeName="fill" to="#808080" begin="zoomminus.mouseover" end="zoomminus.mouseout"/></use>
    <path d="M-4,0h8" fill="none" stroke="white" stroke-width="1.5" pointer-events="none"/>
  </g>
  <g id="arrowUp" transform="translate(30 24)">
    <use xlink:href="#rim"/>
    <path pointer-events="none" fill="none" stroke="white" stroke-width="1.5" d="M0,-3.0v7 M-2.5,-0.5L0,-3.0L2.5,-0.5"/>
  </g>
  <g id="arrowRight" transform="rotate(90) translate(36 -43)">
    <use xlink:href="#rim"/>
    <path pointer-events="none" fill="none" stroke="white" stroke-width="1.5" d="M0,-3.0v7 M-2.5,-0.5L0,-3.0L2.5,-0.5"/>
  </g>
  <g id="arrowDown" transform="rotate(180) translate(-30 -48)">
    <use xlink:href="#rim"/>
    <path pointer-events="none" fill="none" stroke="white" stroke-width="1.5" d="M0,-3.0v7 M-2.5,-0.5L0,-3.0L2.5,-0.5"/>
  </g>
  <g id="arrowLeft" transform="rotate(270) translate(-36 17)">
    <use xlink:href="#rim"/>
    <path pointer-events="none" fill="none" stroke="white" stroke-width="1.5" d="M0,-3.0v7 M-2.5,-0.5L0,-3.0L2.5,-0.5"/>
  </g>
  <g id="resetDef">
    <use xlink:href="#rim2" fill="#404040"><set attributeName="fill" to="#808080" begin="reset.mouseover" end="reset.mouseout"/></use>
  </g>
</defs>
<script type="application/ecmascript">
var viewWidth = 559;
var viewHeight = 112;
var sectionId = 'dynsection-19';
</script>
<script type="application/ecmascript" xlink:href="svg.min.js"/>
<svg id="graph" class="graph">
<g id="viewport">
<title>FMemberReference::ResolveSimpleMemberReference</title>
<!-- Node1 -->
<g id="Node000001" class="node">
<title>Node1</title>
<g id="a_Node000001"><a xlink:title=" ">
<polygon fill="#999999" stroke="#666666" points="157,-59.5 0,-59.5 0,-26 157,-26 157,-59.5"/>
<text xml:space="preserve" text-anchor="start" x="8" y="-46" font-family="Helvetica,sans-Serif" font-size="10.00">FMemberReference::Resolve</text>
<text xml:space="preserve" text-anchor="middle" x="78.5" y="-33.25" font-family="Helvetica,sans-Serif" font-size="10.00">SimpleMemberReference</text>
</a>
</g>
</g>
<!-- Node2 -->
<g id="Node000002" class="node">
<title>Node2</title>
<g id="a_Node000002"><a xlink:href="structFMemberReference.html#a23b604d3db17ae4542ce2cf977905445" target="_top" xlink:title=" ">
<polygon fill="white" stroke="#666666" points="357.5,-85.5 193,-85.5 193,-52 357.5,-52 357.5,-85.5"/>
<text xml:space="preserve" text-anchor="start" x="201" y="-72" font-family="Helvetica,sans-Serif" font-size="10.00">FMemberReference::FMember</text>
<text xml:space="preserve" text-anchor="middle" x="275.25" y="-59.25" font-family="Helvetica,sans-Serif" font-size="10.00">Reference</text>
</a>
</g>
</g>
<!-- Node1&#45;&gt;Node2 -->
<g id="edge1_Node000001_Node000002" class="edge">
<title>Node1&#45;&gt;Node2</title>
<g id="a_edge1_Node000001_Node000002"><a xlink:title=" ">
<path fill="none" stroke="#63b8ff" d="M157.31,-53.14C165.23,-54.2 173.33,-55.28 181.39,-56.35"/>
<polygon fill="#63b8ff" stroke="#63b8ff" points="180.86,-59.81 191.24,-57.67 181.79,-52.87 180.86,-59.81"/>
</a>
</g>
</g>
<!-- Node3 -->
<g id="Node000003" class="node">
<title>Node3</title>
<g id="a_Node000003"><a xlink:href="structFMemberReference.html#ae9940e0c579db2ba93edcf825b4d9544" target="_top" xlink:title=" ">
<polygon fill="white" stroke="#666666" points="353.75,-33.5 196.75,-33.5 196.75,0 353.75,0 353.75,-33.5"/>
<text xml:space="preserve" text-anchor="start" x="204.75" y="-20" font-family="Helvetica,sans-Serif" font-size="10.00">FMemberReference::Resolve</text>
<text xml:space="preserve" text-anchor="middle" x="275.25" y="-7.25" font-family="Helvetica,sans-Serif" font-size="10.00">Member</text>
</a>
</g>
</g>
<!-- Node1&#45;&gt;Node3 -->
<g id="edge3_Node000001_Node000003" class="edge">
<title>Node1&#45;&gt;Node3</title>
<g id="a_edge3_Node000001_Node000003"><a xlink:title=" ">
<path fill="none" stroke="#63b8ff" d="M157.31,-32.36C166.5,-31.14 175.93,-29.88 185.26,-28.63"/>
<polygon fill="#63b8ff" stroke="#63b8ff" points="185.61,-32.11 195.06,-27.32 184.69,-25.18 185.61,-32.11"/>
</a>
</g>
</g>
<!-- Node2&#45;&gt;Node2 -->
<g id="edge2_Node000002_Node000002" class="edge">
<title>Node2&#45;&gt;Node2</title>
<g id="a_edge2_Node000002_Node000002"><a xlink:title=" ">
<path fill="none" stroke="#63b8ff" d="M239.88,-85.91C233.87,-95.12 245.66,-103.5 275.25,-103.5 291.89,-103.5 302.91,-100.85 308.29,-96.89"/>
<polygon fill="#63b8ff" stroke="#63b8ff" points="311.65,-97.9 310.3,-87.39 304.8,-96.45 311.65,-97.9"/>
</a>
</g>
</g>
<!-- Node4 -->
<g id="Node000004" class="node">
<title>Node4</title>
<g id="a_Node000004"><a xlink:href="structFMemberReference.html#a3075fed1f4c5568d6d7f323c7bb6233d" target="_top" xlink:title=" ">
<polygon fill="white" stroke="#666666" points="550.5,-33.5 393.5,-33.5 393.5,0 550.5,0 550.5,-33.5"/>
<text xml:space="preserve" text-anchor="start" x="401.5" y="-20" font-family="Helvetica,sans-Serif" font-size="10.00">FMemberReference::Resolve</text>
<text xml:space="preserve" text-anchor="middle" x="472" y="-7.25" font-family="Helvetica,sans-Serif" font-size="10.00">MemberProperty</text>
</a>
</g>
</g>
<!-- Node3&#45;&gt;Node4 -->
<g id="edge4_Node000003_Node000004" class="edge">
<title>Node3&#45;&gt;Node4</title>
<g id="a_edge4_Node000003_Node000004"><a xlink:title=" ">
<path fill="none" stroke="#63b8ff" d="M354.06,-16.75C363.25,-16.75 372.68,-16.75 382.01,-16.75"/>
<polygon fill="#63b8ff" stroke="#63b8ff" points="381.8,-20.25 391.8,-16.75 381.8,-13.25 381.8,-20.25"/>
</a>
</g>
</g>
</g>
</svg>

<g id="navigator" transform="translate(0 0)" fill="#404254">
  <rect fill="#f2f5e9" fill-opacity="0.5" stroke="#606060" stroke-width=".5" x="0" y="0" width="60" height="60"/>
  <use id="zoomplus" xlink:href="#zoomPlus" x="17" y="9" onmousedown="handleZoom(evt,'in')"/>
  <use id="zoomminus" xlink:href="#zoomMin" x="42" y="9" onmousedown="handleZoom(evt,'out')"/>
  <use id="reset" xlink:href="#resetDef" x="30" y="36" onmousedown="handleReset()"/>
   <use id="arrowup" xlink:href="#arrowUp" x="0" y="0" onmousedown="handlePan(0,-1)"/>
  <use id="arrowright" xlink:href="#arrowRight" x="0" y="0" onmousedown="handlePan(1,0)"/>
  <use id="arrowdown" xlink:href="#arrowDown" x="0" y="0" onmousedown="handlePan(0,1)"/>
  <use id="arrowleft" xlink:href="#arrowLeft" x="0" y="0" onmousedown="handlePan(-1,0)"/>
</g>
<svg viewBox="0 0 15 15" width="100%" height="30px" preserveAspectRatio="xMaxYMin meet">
 <g id="arrow_out" transform="scale(0.3 0.3)">
  <a xlink:href="structFMemberReference_a8c2d85c97c9f1cb3604921482bf2aa76_cgraph_org.svg" target="_base">
   <rect id="button" ry="5" rx="5" y="6" x="6" height="38" width="38"
        fill="#f2f5e9" fill-opacity="0.5" stroke="#606060" stroke-width="1.0"/>
   <path id="arrow"
     d="M 11.500037,31.436501 C 11.940474,20.09759 22.043105,11.32322 32.158766,21.979434 L 37.068811,17.246167 C 37.068811,17.246167 37.088388,32 37.088388,32 L 22.160133,31.978069 C 22.160133,31.978069 26.997745,27.140456 26.997745,27.140456 C 18.528582,18.264221 13.291696,25.230495 11.500037,31.436501 z"
     style="fill:#404040;"/>
  </a>
 </g>
</svg>

<style type='text/css'>
<![CDATA[
[data-mouse-over-selected='false'] { opacity: 0.7; }
[data-mouse-over-selected='true']  { opacity: 1.0; }
]]>
</style>
<script type="application/ecmascript"><![CDATA[
document.addEventListener('DOMContentLoaded', (event) => {
  highlightEdges();
  highlightAdjacentNodes();
});
]]></script>
</svg>
