<?xml version="1.0" encoding="UTF-8" standalone="no"?>
<!DOCTYPE svg PUBLIC "-//W3C//DTD SVG 1.1//EN"
 "http://www.w3.org/Graphics/SVG/1.1/DTD/svg11.dtd">
<!-- Generated by graphviz version 14.1.4 (0)
 -->
<!-- Title: FEdGraphSchemaAction::FEdGraphSchemaAction Pages: 1 -->
<svg width="613pt" height="264pt"
 viewBox="0.00 0.00 613.00 264.00" xmlns="http://www.w3.org/2000/svg" xmlns:xlink="http://www.w3.org/1999/xlink">
<g id="graph0" class="graph" transform="scale(1 1) rotate(0) translate(4 260.25)">
<title>FEdGraphSchemaAction::FEdGraphSchemaAction</title>
<!-- Node1 -->
<g id="Node000001" class="node">
<title>Node1</title>
<g id="a_Node000001"><a xlink:title=" ">
<polygon fill="#999999" stroke="#666666" points="604.5,-144.88 465.5,-144.88 465.5,-111.38 604.5,-111.38 604.5,-144.88"/>
<text xml:space="preserve" text-anchor="start" x="473.5" y="-131.38" font-family="Helvetica,sans-Serif" font-size="10.00">FEdGraphSchemaAction</text>
<text xml:space="preserve" text-anchor="middle" x="535" y="-118.62" font-family="Helvetica,sans-Serif" font-size="10.00">::FEdGraphSchemaAction</text>
</a>
</g>
</g>
<!-- Node1&#45;&gt;Node1 -->
<g id="edge1_Node000001_Node000001" class="edge">
<title>Node1&#45;&gt;Node1</title>
<g id="a_edge1_Node000001_Node000001"><a xlink:title=" ">
<path fill="none" stroke="#63b8ff" d="M568.79,-156.26C563.29,-160.22 552.02,-162.88 535,-162.88 504.73,-162.88 492.67,-154.49 498.82,-145.29"/>
<polygon fill="#63b8ff" stroke="#63b8ff" points="572.15,-157.28 570.86,-146.77 565.31,-155.8 572.15,-157.28"/>
</a>
</g>
</g>
<!-- Node2 -->
<g id="Node000002" class="node">
<title>Node2</title>
<g id="a_Node000002"><a xlink:href="structFEdGraphSchemaAction__Dummy.html#ae78243565f5f146da966b1ce2ac6b2e4" target="_top" xlink:title=" ">
<polygon fill="white" stroke="#666666" points="427.62,-256.25 239.88,-256.25 239.88,-210 427.62,-210 427.62,-256.25"/>
<text xml:space="preserve" text-anchor="start" x="247.88" y="-242.75" font-family="Helvetica,sans-Serif" font-size="10.00">FEdGraphSchemaAction</text>
<text xml:space="preserve" text-anchor="start" x="247.88" y="-230" font-family="Helvetica,sans-Serif" font-size="10.00">_Dummy::FEdGraphSchemaAction_</text>
<text xml:space="preserve" text-anchor="middle" x="333.75" y="-217.25" font-family="Helvetica,sans-Serif" font-size="10.00">Dummy</text>
</a>
</g>
</g>
<!-- Node1&#45;&gt;Node2 -->
<g id="edge2_Node000001_Node000002" class="edge">
<title>Node1&#45;&gt;Node2</title>
<g id="a_edge2_Node000001_Node000002"><a xlink:title=" ">
<path fill="none" stroke="#63b8ff" d="M504.53,-152.13C484.34,-167.68 456.44,-187.52 429.5,-201.12 423.61,-204.1 417.38,-206.9 411.05,-209.5"/>
<polygon fill="#63b8ff" stroke="#63b8ff" points="506.6,-154.95 512.31,-146.03 502.28,-149.44 506.6,-154.95"/>
</a>
</g>
</g>
<!-- Node3 -->
<g id="Node000003" class="node">
<title>Node3</title>
<g id="a_Node000003"><a xlink:href="structFEdGraphSchemaAction__Dummy.html#a69c1250a45706faf92c25d15a2e39dcb" target="_top" xlink:title=" ">
<polygon fill="white" stroke="#666666" points="427.62,-192.25 239.88,-192.25 239.88,-146 427.62,-146 427.62,-192.25"/>
<text xml:space="preserve" text-anchor="start" x="247.88" y="-178.75" font-family="Helvetica,sans-Serif" font-size="10.00">FEdGraphSchemaAction</text>
<text xml:space="preserve" text-anchor="start" x="247.88" y="-166" font-family="Helvetica,sans-Serif" font-size="10.00">_Dummy::FEdGraphSchemaAction_</text>
<text xml:space="preserve" text-anchor="middle" x="333.75" y="-153.25" font-family="Helvetica,sans-Serif" font-size="10.00">Dummy</text>
</a>
</g>
</g>
<!-- Node1&#45;&gt;Node3 -->
<g id="edge3_Node000001_Node000003" class="edge">
<title>Node1&#45;&gt;Node3</title>
<g id="a_edge3_Node000001_Node000003"><a xlink:title=" ">
<path fill="none" stroke="#63b8ff" d="M453.99,-144.59C445.39,-146.36 436.59,-148.17 427.85,-149.97"/>
<polygon fill="#63b8ff" stroke="#63b8ff" points="454.58,-148.04 463.67,-142.6 453.17,-141.18 454.58,-148.04"/>
</a>
</g>
</g>
<!-- Node4 -->
<g id="Node000004" class="node">
<title>Node4</title>
<g id="a_Node000004"><a xlink:href="structFEdGraphSchemaAction__NewNode.html#aa557f9b8aea2500eeae7dc8c3207bcf4" target="_top" xlink:title=" ">
<polygon fill="white" stroke="#666666" points="429.5,-110.25 238,-110.25 238,-64 429.5,-64 429.5,-110.25"/>
<text xml:space="preserve" text-anchor="start" x="246" y="-96.75" font-family="Helvetica,sans-Serif" font-size="10.00">FEdGraphSchemaAction</text>
<text xml:space="preserve" text-anchor="start" x="246" y="-84" font-family="Helvetica,sans-Serif" font-size="10.00">_NewNode::FEdGraphSchemaAction</text>
<text xml:space="preserve" text-anchor="middle" x="333.75" y="-71.25" font-family="Helvetica,sans-Serif" font-size="10.00">_NewNode</text>
</a>
</g>
</g>
<!-- Node1&#45;&gt;Node4 -->
<g id="edge4_Node000001_Node000004" class="edge">
<title>Node1&#45;&gt;Node4</title>
<g id="a_edge4_Node000001_Node000004"><a xlink:title=" ">
<path fill="none" stroke="#63b8ff" d="M454.07,-111.68C446.14,-110.05 438.03,-108.38 429.97,-106.72"/>
<polygon fill="#63b8ff" stroke="#63b8ff" points="453.17,-115.07 463.67,-113.65 454.58,-108.21 453.17,-115.07"/>
</a>
</g>
</g>
<!-- Node6 -->
<g id="Node000006" class="node">
<title>Node6</title>
<g id="a_Node000006"><a xlink:href="structFEdGraphSchemaAction__NewNode.html#a6b552c25cae7f9004d68b590748d137f" target="_top" xlink:title=" ">
<polygon fill="white" stroke="#666666" points="429.5,-46.25 238,-46.25 238,0 429.5,0 429.5,-46.25"/>
<text xml:space="preserve" text-anchor="start" x="246" y="-32.75" font-family="Helvetica,sans-Serif" font-size="10.00">FEdGraphSchemaAction</text>
<text xml:space="preserve" text-anchor="start" x="246" y="-20" font-family="Helvetica,sans-Serif" font-size="10.00">_NewNode::FEdGraphSchemaAction</text>
<text xml:space="preserve" text-anchor="middle" x="333.75" y="-7.25" font-family="Helvetica,sans-Serif" font-size="10.00">_NewNode</text>
</a>
</g>
</g>
<!-- Node1&#45;&gt;Node6 -->
<g id="edge7_Node000001_Node000006" class="edge">
<title>Node1&#45;&gt;Node6</title>
<g id="a_edge7_Node000001_Node000006"><a xlink:title=" ">
<path fill="none" stroke="#63b8ff" d="M504.53,-104.12C484.34,-88.57 456.44,-68.73 429.5,-55.12 423.61,-52.15 417.38,-49.35 411.05,-46.75"/>
<polygon fill="#63b8ff" stroke="#63b8ff" points="502.28,-106.81 512.31,-110.22 506.6,-101.3 502.28,-106.81"/>
</a>
</g>
</g>
<!-- Node4&#45;&gt;Node4 -->
<g id="edge5_Node000004_Node000004" class="edge">
<title>Node4&#45;&gt;Node4</title>
<g id="a_edge5_Node000004_Node000004"><a xlink:title=" ">
<path fill="none" stroke="#63b8ff" d="M366.85,-120.99C361.12,-125.36 350.09,-128.25 333.75,-128.25 306.24,-128.25 293.77,-120.05 296.35,-110.38"/>
<polygon fill="#63b8ff" stroke="#63b8ff" points="370.07,-122.36 370.58,-111.78 363.58,-119.73 370.07,-122.36"/>
</a>
</g>
</g>
<!-- Node5 -->
<g id="Node000005" class="node">
<title>Node5</title>
<g id="a_Node000005"><a xlink:href="structFEdGraphSchemaAction__NewNode.html#a74dbcd987a549e41e33c993ad9926fd8" target="_top" xlink:title=" ">
<polygon fill="white" stroke="#666666" points="202,-103.88 0,-103.88 0,-70.38 202,-70.38 202,-103.88"/>
<text xml:space="preserve" text-anchor="start" x="8" y="-90.38" font-family="Helvetica,sans-Serif" font-size="10.00">FEdGraphSchemaAction</text>
<text xml:space="preserve" text-anchor="middle" x="101" y="-77.62" font-family="Helvetica,sans-Serif" font-size="10.00">_NewNode::SpawnNodeFromTemplate</text>
</a>
</g>
</g>
<!-- Node4&#45;&gt;Node5 -->
<g id="edge6_Node000004_Node000005" class="edge">
<title>Node4&#45;&gt;Node5</title>
<g id="a_edge6_Node000004_Node000005"><a xlink:title=" ">
<path fill="none" stroke="#63b8ff" d="M226.28,-87.12C218.26,-87.12 210.18,-87.12 202.2,-87.12"/>
<polygon fill="#63b8ff" stroke="#63b8ff" points="226.05,-90.63 236.05,-87.13 226.05,-83.63 226.05,-90.63"/>
</a>
</g>
</g>
</g>
</svg>
