<?xml version="1.0" encoding="UTF-8" standalone="no"?>
<!DOCTYPE svg PUBLIC "-//W3C//DTD SVG 1.1//EN"
 "http://www.w3.org/Graphics/SVG/1.1/DTD/svg11.dtd">
<!-- Generated by graphviz version 14.1.4 (0)
 -->
<!-- Title: FAnimNode_StateMachine::CacheMachineDescription Pages: 1 -->
<svg width="355pt" height="60pt"
 viewBox="0.00 0.00 355.00 60.00" xmlns="http://www.w3.org/2000/svg" xmlns:xlink="http://www.w3.org/1999/xlink">
<g id="graph0" class="graph" transform="scale(1 1) rotate(0) translate(4 55.5)">
<title>FAnimNode_StateMachine::CacheMachineDescription</title>
<!-- Node1 -->
<g id="Node000001" class="node">
<title>Node1</title>
<g id="a_Node000001"><a xlink:title=" ">
<polygon fill="#999999" stroke="#666666" points="148.75,-33.5 0,-33.5 0,0 148.75,0 148.75,-33.5"/>
<text xml:space="preserve" text-anchor="start" x="8" y="-20" font-family="Helvetica,sans-Serif" font-size="10.00">FAnimNode_StateMachine</text>
<text xml:space="preserve" text-anchor="middle" x="74.38" y="-7.25" font-family="Helvetica,sans-Serif" font-size="10.00">::CacheMachineDescription</text>
</a>
</g>
</g>
<!-- Node2 -->
<g id="Node000002" class="node">
<title>Node2</title>
<g id="a_Node000002"><a xlink:href="structFAnimNode__Base.html#a26fe2e6dc5efdceaf68ad2bde81c77db" target="_top" xlink:title=" ">
<polygon fill="white" stroke="#666666" points="347,-33.5 184.75,-33.5 184.75,0 347,0 347,-33.5"/>
<text xml:space="preserve" text-anchor="start" x="192.75" y="-20" font-family="Helvetica,sans-Serif" font-size="10.00">FAnimNode_Base::IAnimClass</text>
<text xml:space="preserve" text-anchor="middle" x="265.88" y="-7.25" font-family="Helvetica,sans-Serif" font-size="10.00">Interface</text>
</a>
</g>
</g>
<!-- Node1&#45;&gt;Node2 -->
<g id="edge1_Node000001_Node000002" class="edge">
<title>Node1&#45;&gt;Node2</title>
<g id="a_edge1_Node000001_Node000002"><a xlink:title=" ">
<path fill="none" stroke="#63b8ff" d="M149.18,-16.75C157.02,-16.75 165.07,-16.75 173.08,-16.75"/>
<polygon fill="#63b8ff" stroke="#63b8ff" points="172.85,-20.25 182.85,-16.75 172.85,-13.25 172.85,-20.25"/>
</a>
</g>
</g>
<!-- Node2&#45;&gt;Node2 -->
<g id="edge2_Node000002_Node000002" class="edge">
<title>Node2&#45;&gt;Node2</title>
<g id="a_edge2_Node000002_Node000002"><a xlink:title=" ">
<path fill="none" stroke="#63b8ff" d="M231.45,-33.91C225.6,-43.12 237.08,-51.5 265.88,-51.5 282.07,-51.5 292.79,-48.85 298.03,-44.89"/>
<polygon fill="#63b8ff" stroke="#63b8ff" points="301.39,-45.9 299.99,-35.4 294.54,-44.48 301.39,-45.9"/>
</a>
</g>
</g>
</g>
</svg>
