<?xml version="1.0" encoding="UTF-8" standalone="no"?>
<!DOCTYPE svg PUBLIC "-//W3C//DTD SVG 1.1//EN"
 "http://www.w3.org/Graphics/SVG/1.1/DTD/svg11.dtd">
<!-- Generated by graphviz version 14.1.4 (0)
 -->
<!-- Title: FSkinnedMeshComponentDescriptor::FSkinnedMeshComponentDescriptor Pages: 1 -->
<svg width="452pt" height="372pt"
 viewBox="0.00 0.00 452.00 372.00" xmlns="http://www.w3.org/2000/svg" xmlns:xlink="http://www.w3.org/1999/xlink">

<svg id="main" version="1.1" xmlns="http://www.w3.org/2000/svg" xmlns:xlink="http://www.w3.org/1999/xlink" xml:space="preserve">

<style type="text/css"><![CDATA[
.node, .edge {opacity: 0.7;}
.node.selected, .edge.selected {opacity: 1;}
.edge:hover path { stroke: red; }
.edge:hover polygon { stroke: red; fill: red; }
]]></style>
<script type="application/ecmascript" xlink:href="svg.min.js"/>
<svg id="graph" class="graph">
<g id="graph0" class="graph" transform="scale(1 1) rotate(0) translate(4 367.5)">
<title>FSkinnedMeshComponentDescriptor::FSkinnedMeshComponentDescriptor</title>
<!-- Node1 -->
<g id="Node000001" class="node">
<title>Node1</title>
<g id="a_Node000001"><a xlink:title=" ">
<polygon fill="#999999" stroke="#666666" points="443.75,-189.5 244,-189.5 244,-156 443.75,-156 443.75,-189.5"/>
<text xml:space="preserve" text-anchor="start" x="252" y="-176" font-family="Helvetica,sans-Serif" font-size="10.00">FSkinnedMeshComponentDescriptor</text>
<text xml:space="preserve" text-anchor="middle" x="343.88" y="-163.25" font-family="Helvetica,sans-Serif" font-size="10.00">::FSkinnedMeshComponentDescriptor</text>
</a>
</g>
</g>
<!-- Node1&#45;&gt;Node1 -->
<g id="edge1_Node000001_Node000001" class="edge">
<title>Node1&#45;&gt;Node1</title>
<g id="a_edge1_Node000001_Node000001"><a xlink:title=" ">
<path fill="none" stroke="#63b8ff" d="M384.15,-200.89C377.59,-204.85 364.17,-207.5 343.88,-207.5 307.8,-207.5 293.43,-199.12 300.75,-189.91"/>
<polygon fill="#63b8ff" stroke="#63b8ff" points="387.5,-201.94 386.62,-191.38 380.72,-200.18 387.5,-201.94"/>
</a>
</g>
</g>
<!-- Node2 -->
<g id="Node000002" class="node">
<title>Node2</title>
<g id="a_Node000002"><a xlink:href="structFSkinnedMeshComponentDescriptor.html#a1e76c26cde45f85d5d54654d5d10bdb7" target="_top" xlink:title=" ">
<polygon fill="white" stroke="#666666" points="203.88,-363.5 4.12,-363.5 4.12,-330 203.88,-330 203.88,-363.5"/>
<text xml:space="preserve" text-anchor="start" x="12.12" y="-350" font-family="Helvetica,sans-Serif" font-size="10.00">FSkinnedMeshComponentDescriptor</text>
<text xml:space="preserve" text-anchor="middle" x="104" y="-337.25" font-family="Helvetica,sans-Serif" font-size="10.00">::FSkinnedMeshComponentDescriptor</text>
</a>
</g>
</g>
<!-- Node1&#45;&gt;Node2 -->
<g id="edge2_Node000001_Node000002" class="edge">
<title>Node1&#45;&gt;Node2</title>
<g id="a_edge2_Node000001_Node000002"><a xlink:title=" ">
<path fill="none" stroke="#63b8ff" d="M326.14,-199.1C303.47,-232.58 259.85,-289.7 208,-320.75 202.38,-324.11 196.34,-327.04 190.11,-329.6"/>
<polygon fill="#63b8ff" stroke="#63b8ff" points="328.77,-201.46 331.39,-191.19 322.94,-197.59 328.77,-201.46"/>
</a>
</g>
</g>
<!-- Node3 -->
<g id="Node000003" class="node">
<title>Node3</title>
<g id="a_Node000003"><a xlink:href="structFSkinnedMeshComponentDescriptor.html#a1e52e21f8665b4e2e852be2860c1b3c9" target="_top" xlink:title=" ">
<polygon fill="white" stroke="#666666" points="203.88,-311.5 4.12,-311.5 4.12,-278 203.88,-278 203.88,-311.5"/>
<text xml:space="preserve" text-anchor="start" x="12.12" y="-298" font-family="Helvetica,sans-Serif" font-size="10.00">FSkinnedMeshComponentDescriptor</text>
<text xml:space="preserve" text-anchor="middle" x="104" y="-285.25" font-family="Helvetica,sans-Serif" font-size="10.00">::FSkinnedMeshComponentDescriptor</text>
</a>
</g>
</g>
<!-- Node1&#45;&gt;Node3 -->
<g id="edge3_Node000001_Node000003" class="edge">
<title>Node1&#45;&gt;Node3</title>
<g id="a_edge3_Node000001_Node000003"><a xlink:title=" ">
<path fill="none" stroke="#63b8ff" d="M315.22,-197.16C289.22,-218.91 248.38,-250.09 208,-268.75 200.88,-272.04 193.29,-274.95 185.58,-277.52"/>
<polygon fill="#63b8ff" stroke="#63b8ff" points="317.26,-200.02 322.62,-190.88 312.73,-194.69 317.26,-200.02"/>
</a>
</g>
</g>
<!-- Node4 -->
<g id="Node000004" class="node">
<title>Node4</title>
<g id="a_Node000004"><a xlink:href="structFSkinnedMeshComponentDescriptor.html#ac694dc3102f33acbb5458d23997a9444" target="_top" xlink:title=" ">
<polygon fill="white" stroke="#666666" points="203.88,-259.5 4.12,-259.5 4.12,-226 203.88,-226 203.88,-259.5"/>
<text xml:space="preserve" text-anchor="start" x="12.12" y="-246" font-family="Helvetica,sans-Serif" font-size="10.00">FSkinnedMeshComponentDescriptor</text>
<text xml:space="preserve" text-anchor="middle" x="104" y="-233.25" font-family="Helvetica,sans-Serif" font-size="10.00">::FSkinnedMeshComponentDescriptor</text>
</a>
</g>
</g>
<!-- Node1&#45;&gt;Node4 -->
<g id="edge4_Node000001_Node000004" class="edge">
<title>Node1&#45;&gt;Node4</title>
<g id="a_edge4_Node000001_Node000004"><a xlink:title=" ">
<path fill="none" stroke="#63b8ff" d="M282.16,-193.53C259.05,-201.18 232.41,-209.7 208,-216.75 197.63,-219.75 186.63,-222.73 175.82,-225.55"/>
<polygon fill="#63b8ff" stroke="#63b8ff" points="283.03,-196.93 291.41,-190.45 280.82,-190.29 283.03,-196.93"/>
</a>
</g>
</g>
<!-- Node5 -->
<g id="Node000005" class="node">
<title>Node5</title>
<g id="a_Node000005"><a xlink:href="structFSkinnedMeshComponentDescriptor.html#a6b5b5223ce985b526bbfc18de8a3e981" target="_top" xlink:title=" ">
<polygon fill="white" stroke="#666666" points="200.88,-189.5 7.12,-189.5 7.12,-156 200.88,-156 200.88,-189.5"/>
<text xml:space="preserve" text-anchor="start" x="15.12" y="-176" font-family="Helvetica,sans-Serif" font-size="10.00">FSkinnedMeshComponentDescriptor</text>
<text xml:space="preserve" text-anchor="middle" x="104" y="-163.25" font-family="Helvetica,sans-Serif" font-size="10.00">::GetTypeHash</text>
</a>
</g>
</g>
<!-- Node1&#45;&gt;Node5 -->
<g id="edge5_Node000001_Node000005" class="edge">
<title>Node1&#45;&gt;Node5</title>
<g id="a_edge5_Node000001_Node000005"><a xlink:title=" ">
<path fill="none" stroke="#63b8ff" d="M232.48,-172.75C222.07,-172.75 211.58,-172.75 201.33,-172.75"/>
<polygon fill="#63b8ff" stroke="#63b8ff" points="232.2,-176.25 242.2,-172.75 232.2,-169.25 232.2,-176.25"/>
</a>
</g>
</g>
<!-- Node6 -->
<g id="Node000006" class="node">
<title>Node6</title>
<g id="a_Node000006"><a xlink:href="structFSkinnedMeshComponentDescriptor.html#aa3bcf023508c1e1641b894d53a393a2b" target="_top" xlink:title=" ">
<polygon fill="white" stroke="#666666" points="200.88,-137.5 7.12,-137.5 7.12,-104 200.88,-104 200.88,-137.5"/>
<text xml:space="preserve" text-anchor="start" x="15.12" y="-124" font-family="Helvetica,sans-Serif" font-size="10.00">FSkinnedMeshComponentDescriptor</text>
<text xml:space="preserve" text-anchor="middle" x="104" y="-111.25" font-family="Helvetica,sans-Serif" font-size="10.00">::operator!=</text>
</a>
</g>
</g>
<!-- Node1&#45;&gt;Node6 -->
<g id="edge7_Node000001_Node000006" class="edge">
<title>Node1&#45;&gt;Node6</title>
<g id="a_edge7_Node000001_Node000006"><a xlink:title=" ">
<path fill="none" stroke="#63b8ff" d="M252.95,-153.09C230.15,-148.11 205.85,-142.8 183.67,-137.95"/>
<polygon fill="#63b8ff" stroke="#63b8ff" points="252,-156.47 262.52,-155.18 253.5,-149.63 252,-156.47"/>
</a>
</g>
</g>
<!-- Node7 -->
<g id="Node000007" class="node">
<title>Node7</title>
<g id="a_Node000007"><a xlink:href="structFSkinnedMeshComponentDescriptor.html#aff7d7b1c3ecb10580f1f609c99f2f162" target="_top" xlink:title=" ">
<polygon fill="white" stroke="#666666" points="200.88,-85.5 7.12,-85.5 7.12,-52 200.88,-52 200.88,-85.5"/>
<text xml:space="preserve" text-anchor="start" x="15.12" y="-72" font-family="Helvetica,sans-Serif" font-size="10.00">FSkinnedMeshComponentDescriptor</text>
<text xml:space="preserve" text-anchor="middle" x="104" y="-59.25" font-family="Helvetica,sans-Serif" font-size="10.00">::operator==</text>
</a>
</g>
</g>
<!-- Node1&#45;&gt;Node7 -->
<g id="edge8_Node000001_Node000007" class="edge">
<title>Node1&#45;&gt;Node7</title>
<g id="a_edge8_Node000001_Node000007"><a xlink:title=" ">
<path fill="none" stroke="#63b8ff" d="M308.54,-149.31C282.07,-132.14 244,-109.37 208,-94.75 199.97,-91.49 191.42,-88.55 182.8,-85.92"/>
<polygon fill="#63b8ff" stroke="#63b8ff" points="306.55,-152.19 316.83,-154.76 310.4,-146.34 306.55,-152.19"/>
</a>
</g>
</g>
<!-- Node8 -->
<g id="Node000008" class="node">
<title>Node8</title>
<g id="a_Node000008"><a xlink:href="structFSkinnedMeshComponentDescriptor.html#a331683a8d9eed43d083f212a3eb17159" target="_top" xlink:title=" ">
<polygon fill="white" stroke="#666666" points="208,-33.5 0,-33.5 0,0 208,0 208,-33.5"/>
<text xml:space="preserve" text-anchor="start" x="8" y="-20" font-family="Helvetica,sans-Serif" font-size="10.00">FSkinnedMeshComponentDescriptor</text>
<text xml:space="preserve" text-anchor="middle" x="104" y="-7.25" font-family="Helvetica,sans-Serif" font-size="10.00">::~FSkinnedMeshComponentDescriptor</text>
</a>
</g>
</g>
<!-- Node1&#45;&gt;Node8 -->
<g id="edge9_Node000001_Node000008" class="edge">
<title>Node1&#45;&gt;Node8</title>
<g id="a_edge9_Node000001_Node000008"><a xlink:title=" ">
<path fill="none" stroke="#63b8ff" d="M323.27,-147.02C299.3,-117.4 255.97,-69.4 208,-42.75 201.95,-39.39 195.47,-36.46 188.8,-33.9"/>
<polygon fill="#63b8ff" stroke="#63b8ff" points="320.45,-149.1 329.41,-154.76 325.93,-144.75 320.45,-149.1"/>
</a>
</g>
</g>
<!-- Node5&#45;&gt;Node5 -->
<g id="edge6_Node000005_Node000005" class="edge">
<title>Node5&#45;&gt;Node5</title>
<g id="a_edge6_Node000005_Node000005"><a xlink:title=" ">
<path fill="none" stroke="#63b8ff" d="M144.28,-200.89C137.72,-204.85 124.29,-207.5 104,-207.5 67.93,-207.5 53.55,-199.12 60.88,-189.91"/>
<polygon fill="#63b8ff" stroke="#63b8ff" points="147.62,-201.94 146.74,-191.38 140.84,-200.18 147.62,-201.94"/>
</a>
</g>
</g>
</g>
</svg>
</svg>

<style type='text/css'>
<![CDATA[
[data-mouse-over-selected='false'] { opacity: 0.7; }
[data-mouse-over-selected='true']  { opacity: 1.0; }
]]>
</style>
<script type="application/ecmascript"><![CDATA[
document.addEventListener('DOMContentLoaded', (event) => {
  highlightEdges();
  highlightAdjacentNodes();
});
]]></script>
</svg>
