<?xml version="1.0" encoding="UTF-8" standalone="no"?>
<!DOCTYPE svg PUBLIC "-//W3C//DTD SVG 1.1//EN"
 "http://www.w3.org/Graphics/SVG/1.1/DTD/svg11.dtd">
<!-- Generated by graphviz version 14.1.4 (0)
 -->
<!-- Title: UE::Anim::FAttributeBlendData::TSingleRawIterator::Next Pages: 1 -->
<svg width="396pt" height="146pt"
 viewBox="0.00 0.00 396.00 146.00" xmlns="http://www.w3.org/2000/svg" xmlns:xlink="http://www.w3.org/1999/xlink">
<g id="graph0" class="graph" transform="scale(1 1) rotate(0) translate(4 141.5)">
<title>UE::Anim::FAttributeBlendData::TSingleRawIterator::Next</title>
<!-- Node1 -->
<g id="Node000001" class="node">
<title>Node1</title>
<g id="a_Node000001"><a xlink:title=" ">
<polygon fill="#999999" stroke="#666666" points="387.5,-85.5 220,-85.5 220,-52 387.5,-52 387.5,-85.5"/>
<text xml:space="preserve" text-anchor="start" x="228" y="-72" font-family="Helvetica,sans-Serif" font-size="10.00">UE::Anim::FAttributeBlend</text>
<text xml:space="preserve" text-anchor="middle" x="303.75" y="-59.25" font-family="Helvetica,sans-Serif" font-size="10.00">Data::TSingleRawIterator::Next</text>
</a>
</g>
</g>
<!-- Node2 -->
<g id="Node000002" class="node">
<title>Node2</title>
<g id="a_Node000002"><a xlink:href="classUE_1_1Anim_1_1FNonBlendableAttributeBlendOperator.html#a3e583b6f4ba656776eb0ead729ba01c8" target="_top" xlink:title=" ">
<polygon fill="white" stroke="#666666" points="184,-137.5 0,-137.5 0,-104 184,-104 184,-137.5"/>
<text xml:space="preserve" text-anchor="start" x="8" y="-124" font-family="Helvetica,sans-Serif" font-size="10.00">UE::Anim::FNonBlendableAttribute</text>
<text xml:space="preserve" text-anchor="middle" x="92" y="-111.25" font-family="Helvetica,sans-Serif" font-size="10.00">BlendOperator::Accumulate</text>
</a>
</g>
</g>
<!-- Node1&#45;&gt;Node2 -->
<g id="edge1_Node000001_Node000002" class="edge">
<title>Node1&#45;&gt;Node2</title>
<g id="a_edge1_Node000001_Node000002"><a xlink:title=" ">
<path fill="none" stroke="#63b8ff" d="M222.08,-88.75C202.38,-93.63 181.48,-98.81 162.36,-103.55"/>
<polygon fill="#63b8ff" stroke="#63b8ff" points="222.86,-92.16 231.73,-86.36 221.18,-85.37 222.86,-92.16"/>
</a>
</g>
</g>
<!-- Node3 -->
<g id="Node000003" class="node">
<title>Node3</title>
<g id="a_Node000003"><a xlink:href="classUE_1_1Anim_1_1FNonBlendableAttributeBlendOperator.html#aa13ff212095643e7161ea9b6065e0d4d" target="_top" xlink:title=" ">
<polygon fill="white" stroke="#666666" points="184,-85.5 0,-85.5 0,-52 184,-52 184,-85.5"/>
<text xml:space="preserve" text-anchor="start" x="8" y="-72" font-family="Helvetica,sans-Serif" font-size="10.00">UE::Anim::FNonBlendableAttribute</text>
<text xml:space="preserve" text-anchor="middle" x="92" y="-59.25" font-family="Helvetica,sans-Serif" font-size="10.00">BlendOperator::ConvertToAdditive</text>
</a>
</g>
</g>
<!-- Node1&#45;&gt;Node3 -->
<g id="edge2_Node000001_Node000003" class="edge">
<title>Node1&#45;&gt;Node3</title>
<g id="a_edge2_Node000001_Node000003"><a xlink:title=" ">
<path fill="none" stroke="#63b8ff" d="M208.08,-68.75C200.2,-68.75 192.24,-68.75 184.39,-68.75"/>
<polygon fill="#63b8ff" stroke="#63b8ff" points="208.04,-72.25 218.04,-68.75 208.04,-65.25 208.04,-72.25"/>
</a>
</g>
</g>
<!-- Node4 -->
<g id="Node000004" class="node">
<title>Node4</title>
<g id="a_Node000004"><a xlink:href="classUE_1_1Anim_1_1FNonBlendableAttributeBlendOperator.html#ab09cae687b3b7b452693a1ff84078f2f" target="_top" xlink:title=" ">
<polygon fill="white" stroke="#666666" points="184,-33.5 0,-33.5 0,0 184,0 184,-33.5"/>
<text xml:space="preserve" text-anchor="start" x="8" y="-20" font-family="Helvetica,sans-Serif" font-size="10.00">UE::Anim::FNonBlendableAttribute</text>
<text xml:space="preserve" text-anchor="middle" x="92" y="-7.25" font-family="Helvetica,sans-Serif" font-size="10.00">BlendOperator::Override</text>
</a>
</g>
</g>
<!-- Node1&#45;&gt;Node4 -->
<g id="edge3_Node000001_Node000004" class="edge">
<title>Node1&#45;&gt;Node4</title>
<g id="a_edge3_Node000001_Node000004"><a xlink:title=" ">
<path fill="none" stroke="#63b8ff" d="M222.08,-48.75C202.38,-43.87 181.48,-38.69 162.36,-33.95"/>
<polygon fill="#63b8ff" stroke="#63b8ff" points="221.18,-52.13 231.73,-51.14 222.86,-45.34 221.18,-52.13"/>
</a>
</g>
</g>
</g>
</svg>
