<?xml version="1.0" encoding="UTF-8" standalone="no"?>
<!DOCTYPE svg PUBLIC "-//W3C//DTD SVG 1.1//EN"
 "http://www.w3.org/Graphics/SVG/1.1/DTD/svg11.dtd">
<!-- Generated by graphviz version 14.1.4 (0)
 -->
<!-- Title: FMemberReference::ResolveMemberProperty Pages: 1 -->
<svg width="551pt" height="94pt"
 viewBox="0.00 0.00 551.00 94.00" xmlns="http://www.w3.org/2000/svg" xmlns:xlink="http://www.w3.org/1999/xlink">
<g id="graph0" class="graph" transform="scale(1 1) rotate(0) translate(4 89.5)">
<title>FMemberReference::ResolveMemberProperty</title>
<!-- Node1 -->
<g id="Node000001" class="node">
<title>Node1</title>
<g id="a_Node000001"><a xlink:title=" ">
<polygon fill="#999999" stroke="#666666" points="543,-59.5 386,-59.5 386,-26 543,-26 543,-59.5"/>
<text xml:space="preserve" text-anchor="start" x="394" y="-46" font-family="Helvetica,sans-Serif" font-size="10.00">FMemberReference::Resolve</text>
<text xml:space="preserve" text-anchor="middle" x="464.5" y="-33.25" font-family="Helvetica,sans-Serif" font-size="10.00">MemberProperty</text>
</a>
</g>
</g>
<!-- Node2 -->
<g id="Node000002" class="node">
<title>Node2</title>
<g id="a_Node000002"><a xlink:href="structFMemberReference.html#ae9940e0c579db2ba93edcf825b4d9544" target="_top" xlink:title=" ">
<polygon fill="white" stroke="#666666" points="350,-59.5 193,-59.5 193,-26 350,-26 350,-59.5"/>
<text xml:space="preserve" text-anchor="start" x="201" y="-46" font-family="Helvetica,sans-Serif" font-size="10.00">FMemberReference::Resolve</text>
<text xml:space="preserve" text-anchor="middle" x="271.5" y="-33.25" font-family="Helvetica,sans-Serif" font-size="10.00">Member</text>
</a>
</g>
</g>
<!-- Node1&#45;&gt;Node2 -->
<g id="edge1_Node000001_Node000002" class="edge">
<title>Node1&#45;&gt;Node2</title>
<g id="a_edge1_Node000001_Node000002"><a xlink:title=" ">
<path fill="none" stroke="#63b8ff" d="M374.25,-42.75C366.22,-42.75 358.13,-42.75 350.21,-42.75"/>
<polygon fill="#63b8ff" stroke="#63b8ff" points="374.02,-46.25 384.02,-42.75 374.02,-39.25 374.02,-46.25"/>
</a>
</g>
</g>
<!-- Node3 -->
<g id="Node000003" class="node">
<title>Node3</title>
<g id="a_Node000003"><a xlink:href="structFMemberReference.html#ab3e4a8e7ebc6203d84e7aa5d11402d05" target="_top" xlink:title=" ">
<polygon fill="white" stroke="#666666" points="157,-85.5 0,-85.5 0,-52 157,-52 157,-85.5"/>
<text xml:space="preserve" text-anchor="start" x="8" y="-72" font-family="Helvetica,sans-Serif" font-size="10.00">FMemberReference::Resolve</text>
<text xml:space="preserve" text-anchor="middle" x="78.5" y="-59.25" font-family="Helvetica,sans-Serif" font-size="10.00">Member</text>
</a>
</g>
</g>
<!-- Node2&#45;&gt;Node3 -->
<g id="edge2_Node000002_Node000003" class="edge">
<title>Node2&#45;&gt;Node3</title>
<g id="a_edge2_Node000002_Node000003"><a xlink:title=" ">
<path fill="none" stroke="#63b8ff" d="M181.25,-54.9C173.22,-55.99 165.13,-57.09 157.21,-58.17"/>
<polygon fill="#63b8ff" stroke="#63b8ff" points="181.6,-58.38 191.04,-53.57 180.66,-51.45 181.6,-58.38"/>
</a>
</g>
</g>
<!-- Node4 -->
<g id="Node000004" class="node">
<title>Node4</title>
<g id="a_Node000004"><a xlink:href="structFMemberReference.html#a8c2d85c97c9f1cb3604921482bf2aa76" target="_top" xlink:title=" ">
<polygon fill="white" stroke="#666666" points="157,-33.5 0,-33.5 0,0 157,0 157,-33.5"/>
<text xml:space="preserve" text-anchor="start" x="8" y="-20" font-family="Helvetica,sans-Serif" font-size="10.00">FMemberReference::Resolve</text>
<text xml:space="preserve" text-anchor="middle" x="78.5" y="-7.25" font-family="Helvetica,sans-Serif" font-size="10.00">SimpleMemberReference</text>
</a>
</g>
</g>
<!-- Node2&#45;&gt;Node4 -->
<g id="edge3_Node000002_Node000004" class="edge">
<title>Node2&#45;&gt;Node4</title>
<g id="a_edge3_Node000002_Node000004"><a xlink:title=" ">
<path fill="none" stroke="#63b8ff" d="M181.25,-30.6C173.22,-29.51 165.13,-28.41 157.21,-27.33"/>
<polygon fill="#63b8ff" stroke="#63b8ff" points="180.66,-34.05 191.04,-31.93 181.6,-27.12 180.66,-34.05"/>
</a>
</g>
</g>
</g>
</svg>
