<?xml version="1.0" encoding="UTF-8" standalone="no"?>
<!DOCTYPE svg PUBLIC "-//W3C//DTD SVG 1.1//EN"
 "http://www.w3.org/Graphics/SVG/1.1/DTD/svg11.dtd">
<!-- Generated by graphviz version 14.1.4 (0)
 -->
<!-- Title: FKSphereElem::GetFinalScaled Pages: 1 -->
<svg width="567pt" height="47pt"
 viewBox="0.00 0.00 567.00 47.00" xmlns="http://www.w3.org/2000/svg" xmlns:xlink="http://www.w3.org/1999/xlink">
<g id="graph0" class="graph" transform="scale(1 1) rotate(0) translate(4 42.75)">
<title>FKSphereElem::GetFinalScaled</title>
<!-- Node1 -->
<g id="Node000001" class="node">
<title>Node1</title>
<g id="a_Node000001"><a xlink:title=" ">
<polygon fill="#999999" stroke="#666666" points="165.25,-20.75 0,-20.75 0,0 165.25,0 165.25,-20.75"/>
<text xml:space="preserve" text-anchor="middle" x="82.62" y="-7.25" font-family="Helvetica,sans-Serif" font-size="10.00">FKSphereElem::GetFinalScaled</text>
</a>
</g>
</g>
<!-- Node2 -->
<g id="Node000002" class="node">
<title>Node2</title>
<g id="a_Node000002"><a xlink:href="structFKSphereElem.html#ad914284fc7ce01d5439df3893e54d51e" target="_top" xlink:title=" ">
<polygon fill="white" stroke="#666666" points="365.75,-20.75 201.25,-20.75 201.25,0 365.75,0 365.75,-20.75"/>
<text xml:space="preserve" text-anchor="middle" x="283.5" y="-7.25" font-family="Helvetica,sans-Serif" font-size="10.00">FKSphereElem::FKSphereElem</text>
</a>
</g>
</g>
<!-- Node1&#45;&gt;Node2 -->
<g id="edge1_Node000001_Node000002" class="edge">
<title>Node1&#45;&gt;Node2</title>
<g id="a_edge1_Node000001_Node000002"><a xlink:title=" ">
<path fill="none" stroke="#63b8ff" d="M165.66,-10.38C173.59,-10.38 181.67,-10.38 189.69,-10.38"/>
<polygon fill="#63b8ff" stroke="#63b8ff" points="189.46,-13.88 199.46,-10.38 189.46,-6.88 189.46,-13.88"/>
</a>
</g>
</g>
<!-- Node2&#45;&gt;Node2 -->
<g id="edge4_Node000002_Node000002" class="edge">
<title>Node2&#45;&gt;Node2</title>
<g id="a_edge4_Node000002_Node000002"><a xlink:title=" ">
<path fill="none" stroke="#63b8ff" d="M251.8,-21.15C239.12,-29.81 249.68,-38.75 283.5,-38.75 301.99,-38.75 313.53,-36.08 318.12,-32.24"/>
<polygon fill="#63b8ff" stroke="#63b8ff" points="321.52,-31.39 315.59,-22.61 314.75,-33.17 321.52,-31.39"/>
</a>
</g>
</g>
<!-- Node3 -->
<g id="Node000003" class="node">
<title>Node3</title>
<g id="a_Node000003"><a xlink:href="structFKShapeElem.html#aa01ee11d08e99d540ea8fd2a0e075250" target="_top" xlink:title=" ">
<polygon fill="white" stroke="#666666" points="558.75,-20.75 401.75,-20.75 401.75,0 558.75,0 558.75,-20.75"/>
<text xml:space="preserve" text-anchor="middle" x="480.25" y="-7.25" font-family="Helvetica,sans-Serif" font-size="10.00">FKShapeElem::FKShapeElem</text>
</a>
</g>
</g>
<!-- Node2&#45;&gt;Node3 -->
<g id="edge2_Node000002_Node000003" class="edge">
<title>Node2&#45;&gt;Node3</title>
<g id="a_edge2_Node000002_Node000003"><a xlink:title=" ">
<path fill="none" stroke="#63b8ff" d="M366.25,-10.38C374.08,-10.38 382.05,-10.38 389.95,-10.38"/>
<polygon fill="#63b8ff" stroke="#63b8ff" points="389.94,-13.88 399.94,-10.38 389.94,-6.88 389.94,-13.88"/>
</a>
</g>
</g>
<!-- Node3&#45;&gt;Node3 -->
<g id="edge3_Node000003_Node000003" class="edge">
<title>Node3&#45;&gt;Node3</title>
<g id="a_edge3_Node000003_Node000003"><a xlink:title=" ">
<path fill="none" stroke="#63b8ff" d="M448.55,-21.15C435.87,-29.81 446.43,-38.75 480.25,-38.75 498.74,-38.75 510.28,-36.08 514.87,-32.24"/>
<polygon fill="#63b8ff" stroke="#63b8ff" points="518.27,-31.39 512.34,-22.61 511.5,-33.17 518.27,-31.39"/>
</a>
</g>
</g>
</g>
</svg>
