<?xml version="1.0" encoding="UTF-8" standalone="no"?>
<!DOCTYPE svg PUBLIC "-//W3C//DTD SVG 1.1//EN"
 "http://www.w3.org/Graphics/SVG/1.1/DTD/svg11.dtd">
<!-- Generated by graphviz version 14.1.4 (0)
 -->
<!-- Title: FLinearConstraint Pages: 1 -->
<svg width="168pt" height="299pt"
 viewBox="0.00 0.00 168.00 299.00" xmlns="http://www.w3.org/2000/svg" xmlns:xlink="http://www.w3.org/1999/xlink">
<g id="graph0" class="graph" transform="scale(1 1) rotate(0) translate(4 295.25)">
<title>FLinearConstraint</title>
<!-- Node1 -->
<g id="Node000001" class="node">
<title>Node1</title>
<g id="a_Node000001"><a xlink:title=" ">
<polygon fill="#999999" stroke="none" points="159.75,-134 0,-134 0,0 159.75,0 159.75,-134"/>
<text xml:space="preserve" text-anchor="start" x="36.75" y="-120.25" font-family="Helvetica,sans-Serif" font-size="10.00">FLinearConstraint</text>
<text xml:space="preserve" text-anchor="start" x="4" y="-103.5" font-family="Helvetica,sans-Serif" font-size="10.00">+</text>
<text xml:space="preserve" text-anchor="start" x="16.25" y="-103.5" font-family="Helvetica,sans-Serif" font-size="10.00">Limit</text>
<text xml:space="preserve" text-anchor="start" x="4" y="-86.75" font-family="Helvetica,sans-Serif" font-size="10.00">+</text>
<text xml:space="preserve" text-anchor="start" x="16.25" y="-86.75" font-family="Helvetica,sans-Serif" font-size="10.00">XMotion</text>
<text xml:space="preserve" text-anchor="start" x="4" y="-70" font-family="Helvetica,sans-Serif" font-size="10.00">+</text>
<text xml:space="preserve" text-anchor="start" x="16.25" y="-70" font-family="Helvetica,sans-Serif" font-size="10.00">YMotion</text>
<text xml:space="preserve" text-anchor="start" x="4" y="-53.25" font-family="Helvetica,sans-Serif" font-size="10.00">+</text>
<text xml:space="preserve" text-anchor="start" x="16.25" y="-53.25" font-family="Helvetica,sans-Serif" font-size="10.00">ZMotion</text>
<text xml:space="preserve" text-anchor="start" x="4" y="-36.5" font-family="Helvetica,sans-Serif" font-size="10.00">+</text>
<text xml:space="preserve" text-anchor="start" x="16.25" y="-36.5" font-family="Helvetica,sans-Serif" font-size="10.00">FLinearConstraint()</text>
<text xml:space="preserve" text-anchor="start" x="4" y="-19.75" font-family="Helvetica,sans-Serif" font-size="10.00">+</text>
<text xml:space="preserve" text-anchor="start" x="16.25" y="-19.75" font-family="Helvetica,sans-Serif" font-size="10.00">UpdateLinearLimit_Assumes</text>
<text xml:space="preserve" text-anchor="start" x="16.25" y="-7" font-family="Helvetica,sans-Serif" font-size="10.00">Locked()</text>
<polygon fill="#666666" stroke="#666666" points="0,-115.25 0,-115.25 159.75,-115.25 159.75,-115.25 0,-115.25"/>
<polygon fill="#666666" stroke="#666666" points="0,-48.25 0,-48.25 14.25,-48.25 14.25,-48.25 0,-48.25"/>
<polygon fill="#666666" stroke="#666666" points="14.25,-48.25 14.25,-48.25 159.75,-48.25 159.75,-48.25 14.25,-48.25"/>
<polygon fill="none" stroke="#666666" points="0,0 0,-134 159.75,-134 159.75,0 0,0"/>
</a>
</g>
</g>
<!-- Node2 -->
<g id="Node000002" class="node">
<title>Node2</title>
<g id="a_Node000002"><a xlink:href="structFConstraintBaseParams.html" target="_top" xlink:title=" ">
<polygon fill="white" stroke="none" points="152.25,-291.25 7.5,-291.25 7.5,-170 152.25,-170 152.25,-291.25"/>
<text xml:space="preserve" text-anchor="start" x="21.38" y="-277.5" font-family="Helvetica,sans-Serif" font-size="10.00">FConstraintBaseParams</text>
<text xml:space="preserve" text-anchor="start" x="11.5" y="-260.75" font-family="Helvetica,sans-Serif" font-size="10.00">+</text>
<text xml:space="preserve" text-anchor="start" x="23.75" y="-260.75" font-family="Helvetica,sans-Serif" font-size="10.00">Stiffness</text>
<text xml:space="preserve" text-anchor="start" x="11.5" y="-244" font-family="Helvetica,sans-Serif" font-size="10.00">+</text>
<text xml:space="preserve" text-anchor="start" x="23.75" y="-244" font-family="Helvetica,sans-Serif" font-size="10.00">Damping</text>
<text xml:space="preserve" text-anchor="start" x="11.5" y="-227.25" font-family="Helvetica,sans-Serif" font-size="10.00">+</text>
<text xml:space="preserve" text-anchor="start" x="23.75" y="-227.25" font-family="Helvetica,sans-Serif" font-size="10.00">Restitution</text>
<text xml:space="preserve" text-anchor="start" x="11.5" y="-210.5" font-family="Helvetica,sans-Serif" font-size="10.00">+</text>
<text xml:space="preserve" text-anchor="start" x="23.75" y="-210.5" font-family="Helvetica,sans-Serif" font-size="10.00">ContactDistance</text>
<text xml:space="preserve" text-anchor="start" x="11.5" y="-193.75" font-family="Helvetica,sans-Serif" font-size="10.00">+</text>
<text xml:space="preserve" text-anchor="start" x="23.75" y="-193.75" font-family="Helvetica,sans-Serif" font-size="10.00">bSoftConstraint</text>
<text xml:space="preserve" text-anchor="start" x="11.5" y="-177" font-family="Helvetica,sans-Serif" font-size="10.00">+</text>
<text xml:space="preserve" text-anchor="start" x="23.75" y="-177" font-family="Helvetica,sans-Serif" font-size="10.00">FConstraintBaseParams()</text>
<polygon fill="#666666" stroke="#666666" points="7.5,-272.5 7.5,-272.5 152.25,-272.5 152.25,-272.5 7.5,-272.5"/>
<polygon fill="#666666" stroke="#666666" points="7.5,-188.75 7.5,-188.75 21.75,-188.75 21.75,-188.75 7.5,-188.75"/>
<polygon fill="#666666" stroke="#666666" points="21.75,-188.75 21.75,-188.75 152.25,-188.75 152.25,-188.75 21.75,-188.75"/>
<polygon fill="none" stroke="#666666" points="7.5,-170 7.5,-291.25 152.25,-291.25 152.25,-170 7.5,-170"/>
</a>
</g>
</g>
<!-- Node2&#45;&gt;Node1 -->
<g id="edge1_Node000001_Node000002" class="edge">
<title>Node2&#45;&gt;Node1</title>
<g id="a_edge1_Node000001_Node000002"><a xlink:title=" ">
<path fill="none" stroke="#63b8ff" d="M79.88,-159.05C79.88,-150.66 79.88,-142.12 79.88,-133.8"/>
<polygon fill="none" stroke="#63b8ff" points="76.38,-158.85 79.88,-168.85 83.38,-158.85 76.38,-158.85"/>
</a>
</g>
</g>
</g>
</svg>
