<?xml version="1.0" encoding="UTF-8" standalone="no"?>
<!DOCTYPE svg PUBLIC "-//W3C//DTD SVG 1.1//EN"
 "http://www.w3.org/Graphics/SVG/1.1/DTD/svg11.dtd">
<!-- Generated by graphviz version 14.1.4 (0)
 -->
<!-- Title: FAnimationActiveTransitionEntry::FAnimationActiveTransitionEntry Pages: 1 -->
<svg width="457pt" height="94pt"
 viewBox="0.00 0.00 457.00 94.00" xmlns="http://www.w3.org/2000/svg" xmlns:xlink="http://www.w3.org/1999/xlink">
<g id="graph0" class="graph" transform="scale(1 1) rotate(0) translate(4 89.5)">
<title>FAnimationActiveTransitionEntry::FAnimationActiveTransitionEntry</title>
<!-- Node1 -->
<g id="Node000001" class="node">
<title>Node1</title>
<g id="a_Node000001"><a xlink:title=" ">
<polygon fill="#999999" stroke="#666666" points="449,-59.5 242.5,-59.5 242.5,-26 449,-26 449,-59.5"/>
<text xml:space="preserve" text-anchor="start" x="250.5" y="-46" font-family="Helvetica,sans-Serif" font-size="10.00">FAnimationActiveTransition</text>
<text xml:space="preserve" text-anchor="middle" x="345.75" y="-33.25" font-family="Helvetica,sans-Serif" font-size="10.00">Entry::FAnimationActiveTransitionEntry</text>
</a>
</g>
</g>
<!-- Node1&#45;&gt;Node1 -->
<g id="edge1_Node000001_Node000001" class="edge">
<title>Node1&#45;&gt;Node1</title>
<g id="a_edge1_Node000001_Node000001"><a xlink:title=" ">
<path fill="none" stroke="#63b8ff" d="M386.47,-70.89C379.84,-74.85 366.26,-77.5 345.75,-77.5 309.28,-77.5 294.75,-69.12 302.16,-59.91"/>
<polygon fill="#63b8ff" stroke="#63b8ff" points="389.81,-71.94 388.96,-61.38 383.04,-70.17 389.81,-71.94"/>
</a>
</g>
</g>
<!-- Node2 -->
<g id="Node000002" class="node">
<title>Node2</title>
<g id="a_Node000002"><a xlink:href="structFAnimationActiveTransitionEntry.html#a5938018ea11853d212ddacd3545d41ce" target="_top" xlink:title=" ">
<polygon fill="white" stroke="#666666" points="206.5,-85.5 0,-85.5 0,-52 206.5,-52 206.5,-85.5"/>
<text xml:space="preserve" text-anchor="start" x="8" y="-72" font-family="Helvetica,sans-Serif" font-size="10.00">FAnimationActiveTransition</text>
<text xml:space="preserve" text-anchor="middle" x="103.25" y="-59.25" font-family="Helvetica,sans-Serif" font-size="10.00">Entry::FAnimationActiveTransitionEntry</text>
</a>
</g>
</g>
<!-- Node1&#45;&gt;Node2 -->
<g id="edge2_Node000001_Node000002" class="edge">
<title>Node1&#45;&gt;Node2</title>
<g id="a_edge2_Node000001_Node000002"><a xlink:title=" ">
<path fill="none" stroke="#63b8ff" d="M230.84,-55.06C222.88,-55.93 214.88,-56.79 206.98,-57.64"/>
<polygon fill="#63b8ff" stroke="#63b8ff" points="230.99,-58.57 240.55,-54.01 230.24,-51.61 230.99,-58.57"/>
</a>
</g>
</g>
<!-- Node3 -->
<g id="Node000003" class="node">
<title>Node3</title>
<g id="a_Node000003"><a xlink:href="structFAnimationActiveTransitionEntry.html#a1ca8fb6e2a5f86822b073354dcae240a" target="_top" xlink:title=" ">
<polygon fill="white" stroke="#666666" points="206.5,-33.5 0,-33.5 0,0 206.5,0 206.5,-33.5"/>
<text xml:space="preserve" text-anchor="start" x="8" y="-20" font-family="Helvetica,sans-Serif" font-size="10.00">FAnimationActiveTransition</text>
<text xml:space="preserve" text-anchor="middle" x="103.25" y="-7.25" font-family="Helvetica,sans-Serif" font-size="10.00">Entry::FAnimationActiveTransitionEntry</text>
</a>
</g>
</g>
<!-- Node1&#45;&gt;Node3 -->
<g id="edge3_Node000001_Node000003" class="edge">
<title>Node1&#45;&gt;Node3</title>
<g id="a_edge3_Node000001_Node000003"><a xlink:title=" ">
<path fill="none" stroke="#63b8ff" d="M230.84,-30.44C222.88,-29.57 214.88,-28.71 206.98,-27.86"/>
<polygon fill="#63b8ff" stroke="#63b8ff" points="230.24,-33.89 240.55,-31.49 230.99,-26.93 230.24,-33.89"/>
</a>
</g>
</g>
</g>
</svg>
