<?xml version="1.0" encoding="UTF-8" standalone="no"?>
<!DOCTYPE svg PUBLIC "-//W3C//DTD SVG 1.1//EN"
 "http://www.w3.org/Graphics/SVG/1.1/DTD/svg11.dtd">
<!-- Generated by graphviz version 14.1.4 (0)
 -->
<!-- Title: FVector_NetQuantize::NetSerialize Pages: 1 -->
<svg width="457pt" height="42pt"
 viewBox="0.00 0.00 457.00 42.00" xmlns="http://www.w3.org/2000/svg" xmlns:xlink="http://www.w3.org/1999/xlink">
<g id="graph0" class="graph" transform="scale(1 1) rotate(0) translate(4 37.5)">
<title>FVector_NetQuantize::NetSerialize</title>
<!-- Node1 -->
<g id="Node000001" class="node">
<title>Node1</title>
<g id="a_Node000001"><a xlink:title=" ">
<polygon fill="#999999" stroke="#666666" points="119.5,-33.5 0,-33.5 0,0 119.5,0 119.5,-33.5"/>
<text xml:space="preserve" text-anchor="start" x="8" y="-20" font-family="Helvetica,sans-Serif" font-size="10.00">FVector_NetQuantize</text>
<text xml:space="preserve" text-anchor="middle" x="59.75" y="-7.25" font-family="Helvetica,sans-Serif" font-size="10.00">::NetSerialize</text>
</a>
</g>
</g>
<!-- Node2 -->
<g id="Node000002" class="node">
<title>Node2</title>
<g id="a_Node000002"><a xlink:href="NetSerialization_8h.html#ad44a1eb2638ad7701727bd9a56c22a39" target="_top" xlink:title=" ">
<polygon fill="white" stroke="#666666" points="279.5,-27.12 155.5,-27.12 155.5,-6.38 279.5,-6.38 279.5,-27.12"/>
<text xml:space="preserve" text-anchor="middle" x="217.5" y="-13.62" font-family="Helvetica,sans-Serif" font-size="10.00">SerializePackedVector</text>
</a>
</g>
</g>
<!-- Node1&#45;&gt;Node2 -->
<g id="edge1_Node000001_Node000002" class="edge">
<title>Node1&#45;&gt;Node2</title>
<g id="a_edge1_Node000001_Node000002"><a xlink:title=" ">
<path fill="none" stroke="#63b8ff" d="M119.63,-16.75C127.54,-16.75 135.72,-16.75 143.83,-16.75"/>
<polygon fill="#63b8ff" stroke="#63b8ff" points="143.69,-20.25 153.69,-16.75 143.69,-13.25 143.69,-20.25"/>
</a>
</g>
</g>
<!-- Node3 -->
<g id="Node000003" class="node">
<title>Node3</title>
<g id="a_Node000003"><a xlink:href="namespaceUE_1_1Net_1_1Private.html#a8992efc477d44d55f02ec4952f27031a" target="_top" xlink:title=" ">
<polygon fill="white" stroke="#666666" points="449.25,-33.5 315.5,-33.5 315.5,0 449.25,0 449.25,-33.5"/>
<text xml:space="preserve" text-anchor="start" x="323.5" y="-20" font-family="Helvetica,sans-Serif" font-size="10.00">UE::Net::Private::Legacy</text>
<text xml:space="preserve" text-anchor="middle" x="382.38" y="-7.25" font-family="Helvetica,sans-Serif" font-size="10.00">ReadPackedVector</text>
</a>
</g>
</g>
<!-- Node2&#45;&gt;Node3 -->
<g id="edge2_Node000002_Node000003" class="edge">
<title>Node2&#45;&gt;Node3</title>
<g id="a_edge2_Node000002_Node000003"><a xlink:title=" ">
<path fill="none" stroke="#63b8ff" d="M279.61,-16.75C287.47,-16.75 295.59,-16.75 303.66,-16.75"/>
<polygon fill="#63b8ff" stroke="#63b8ff" points="303.5,-20.25 313.5,-16.75 303.5,-13.25 303.5,-20.25"/>
</a>
</g>
</g>
</g>
</svg>
