<?xml version="1.0" encoding="UTF-8" standalone="no"?>
<!DOCTYPE svg PUBLIC "-//W3C//DTD SVG 1.1//EN"
 "http://www.w3.org/Graphics/SVG/1.1/DTD/svg11.dtd">
<!-- Generated by graphviz version 14.1.4 (0)
 -->
<!-- Title: FAnimNode_StateMachine::GetRelevantAssetPlayerInterfaceFromState Pages: 1 -->
<svg width="592pt" height="66pt"
 viewBox="0.00 0.00 592.00 66.00" xmlns="http://www.w3.org/2000/svg" xmlns:xlink="http://www.w3.org/1999/xlink">
<g id="graph0" class="graph" transform="scale(1 1) rotate(0) translate(4 61.88)">
<title>FAnimNode_StateMachine::GetRelevantAssetPlayerInterfaceFromState</title>
<!-- Node1 -->
<g id="Node000001" class="node">
<title>Node1</title>
<g id="a_Node000001"><a xlink:title=" ">
<polygon fill="#999999" stroke="#666666" points="184,-46.25 0,-46.25 0,0 184,0 184,-46.25"/>
<text xml:space="preserve" text-anchor="start" x="8" y="-32.75" font-family="Helvetica,sans-Serif" font-size="10.00">FAnimNode_StateMachine</text>
<text xml:space="preserve" text-anchor="start" x="8" y="-20" font-family="Helvetica,sans-Serif" font-size="10.00">::GetRelevantAssetPlayerInterface</text>
<text xml:space="preserve" text-anchor="middle" x="92" y="-7.25" font-family="Helvetica,sans-Serif" font-size="10.00">FromState</text>
</a>
</g>
</g>
<!-- Node2 -->
<g id="Node000002" class="node">
<title>Node2</title>
<g id="a_Node000002"><a xlink:href="structFAnimNode__StateMachine.html#a67f3088039f605f1d8fbb75b2e4c95f3" target="_top" xlink:title=" ">
<polygon fill="white" stroke="#666666" points="404,-46.25 220,-46.25 220,0 404,0 404,-46.25"/>
<text xml:space="preserve" text-anchor="start" x="228" y="-32.75" font-family="Helvetica,sans-Serif" font-size="10.00">FAnimNode_StateMachine</text>
<text xml:space="preserve" text-anchor="start" x="228" y="-20" font-family="Helvetica,sans-Serif" font-size="10.00">::GetRelevantAssetPlayerInterface</text>
<text xml:space="preserve" text-anchor="middle" x="312" y="-7.25" font-family="Helvetica,sans-Serif" font-size="10.00">FromState</text>
</a>
</g>
</g>
<!-- Node1&#45;&gt;Node2 -->
<g id="edge1_Node000001_Node000002" class="edge">
<title>Node1&#45;&gt;Node2</title>
<g id="a_edge1_Node000001_Node000002"><a xlink:title=" ">
<path fill="none" stroke="#63b8ff" d="M184.19,-23.12C192.2,-23.12 200.34,-23.12 208.43,-23.12"/>
<polygon fill="#63b8ff" stroke="#63b8ff" points="208.31,-26.63 218.31,-23.13 208.31,-19.63 208.31,-26.63"/>
</a>
</g>
</g>
<!-- Node3 -->
<g id="Node000003" class="node">
<title>Node3</title>
<g id="a_Node000003"><a xlink:href="structFAnimNode__StateMachine.html#af585d4a2c826f7df7dc905aeb95aa3ca" target="_top" xlink:title=" ">
<polygon fill="white" stroke="#666666" points="584.25,-39.88 440,-39.88 440,-6.38 584.25,-6.38 584.25,-39.88"/>
<text xml:space="preserve" text-anchor="start" x="448" y="-26.38" font-family="Helvetica,sans-Serif" font-size="10.00">FAnimNode_StateMachine</text>
<text xml:space="preserve" text-anchor="middle" x="512.12" y="-13.62" font-family="Helvetica,sans-Serif" font-size="10.00">::FAnimInstanceProxy</text>
</a>
</g>
</g>
<!-- Node2&#45;&gt;Node3 -->
<g id="edge2_Node000002_Node000003" class="edge">
<title>Node2&#45;&gt;Node3</title>
<g id="a_edge2_Node000002_Node000003"><a xlink:title=" ">
<path fill="none" stroke="#63b8ff" d="M404.23,-23.12C412.22,-23.12 420.27,-23.12 428.18,-23.12"/>
<polygon fill="#63b8ff" stroke="#63b8ff" points="428.13,-26.63 438.13,-23.13 428.13,-19.63 428.13,-26.63"/>
</a>
</g>
</g>
<!-- Node3&#45;&gt;Node3 -->
<g id="edge3_Node000003_Node000003" class="edge">
<title>Node3&#45;&gt;Node3</title>
<g id="a_edge3_Node000003_Node000003"><a xlink:title=" ">
<path fill="none" stroke="#63b8ff" d="M476.15,-40.29C470.04,-49.49 482.03,-57.88 512.12,-57.88 529.05,-57.88 540.26,-55.22 545.73,-51.26"/>
<polygon fill="#63b8ff" stroke="#63b8ff" points="549.09,-52.28 547.78,-41.77 542.25,-50.8 549.09,-52.28"/>
</a>
</g>
</g>
</g>
</svg>
