<?xml version="1.0" encoding="UTF-8" standalone="no"?>
<!DOCTYPE svg PUBLIC "-//W3C//DTD SVG 1.1//EN"
 "http://www.w3.org/Graphics/SVG/1.1/DTD/svg11.dtd">
<!-- Generated by graphviz version 14.1.4 (0)
 -->
<!-- Title: UE::Anim::TWrappedAttribute::GetPtr Pages: 1 -->
<svg width="797pt" height="342pt"
 viewBox="0.00 0.00 797.00 342.00" xmlns="http://www.w3.org/2000/svg" xmlns:xlink="http://www.w3.org/1999/xlink">
<g id="graph0" class="graph" transform="scale(1 1) rotate(0) translate(4 337.97)">
<title>UE::Anim::TWrappedAttribute::GetPtr</title>
<!-- Node1 -->
<g id="Node000001" class="node">
<title>Node1</title>
<g id="a_Node000001"><a xlink:title=" ">
<polygon fill="#999999" stroke="#666666" points="789.25,-167.35 630,-167.35 630,-133.85 789.25,-133.85 789.25,-167.35"/>
<text xml:space="preserve" text-anchor="start" x="638" y="-153.85" font-family="Helvetica,sans-Serif" font-size="10.00">UE::Anim::TWrappedAttribute</text>
<text xml:space="preserve" text-anchor="middle" x="709.62" y="-141.1" font-family="Helvetica,sans-Serif" font-size="10.00">::GetPtr</text>
</a>
</g>
</g>
<!-- Node2 -->
<g id="Node000002" class="node">
<title>Node2</title>
<g id="a_Node000002"><a xlink:href="structFAttributeCurve.html#a1ceb1a45800e58d85458f9537b8b9223" target="_top" xlink:title=" ">
<polygon fill="white" stroke="#666666" points="579.38,-285.97 444.88,-285.97 444.88,-265.22 579.38,-265.22 579.38,-285.97"/>
<text xml:space="preserve" text-anchor="middle" x="512.12" y="-272.47" font-family="Helvetica,sans-Serif" font-size="10.00">FAttributeCurve::AddKey</text>
</a>
</g>
</g>
<!-- Node1&#45;&gt;Node2 -->
<g id="edge1_Node000001_Node000002" class="edge">
<title>Node1&#45;&gt;Node2</title>
<g id="a_edge1_Node000001_Node000002"><a xlink:title=" ">
<path fill="none" stroke="#63b8ff" d="M684.6,-175.6C662.71,-197.17 628.6,-227.89 594,-247.6 581.61,-254.66 567.13,-260.36 553.89,-264.73"/>
<polygon fill="#63b8ff" stroke="#63b8ff" points="686.99,-178.16 691.58,-168.61 682.04,-173.21 686.99,-178.16"/>
</a>
</g>
</g>
<!-- Node4 -->
<g id="Node000004" class="node">
<title>Node4</title>
<g id="a_Node000004"><a xlink:href="structFAttributeCurve.html#afa6e4925ca8c21620468a40b1db50282" target="_top" xlink:title=" ">
<polygon fill="white" stroke="#666666" points="365,-243.97 209.5,-243.97 209.5,-223.22 365,-223.22 365,-243.97"/>
<text xml:space="preserve" text-anchor="middle" x="287.25" y="-230.47" font-family="Helvetica,sans-Serif" font-size="10.00">FAttributeCurve::SetKeyTime</text>
</a>
</g>
</g>
<!-- Node1&#45;&gt;Node4 -->
<g id="edge16_Node000001_Node000004" class="edge">
<title>Node1&#45;&gt;Node4</title>
<g id="a_edge16_Node000001_Node000004"><a xlink:title=" ">
<path fill="none" stroke="#63b8ff" d="M672.74,-173.78C650.88,-186.67 621.88,-201.68 594,-209.6 518.33,-231.1 428.16,-235.78 365.43,-235.89"/>
<polygon fill="#63b8ff" stroke="#63b8ff" points="674.51,-176.8 681.26,-168.63 670.89,-170.81 674.51,-176.8"/>
</a>
</g>
</g>
<!-- Node6 -->
<g id="Node000006" class="node">
<title>Node6</title>
<g id="a_Node000006"><a xlink:href="structFAttributeCurve.html#a8a1b2a8b07c80c99d73c02ad836a7bee" target="_top" xlink:title=" ">
<polygon fill="white" stroke="#666666" points="142.38,-197.35 1.88,-197.35 1.88,-163.85 142.38,-163.85 142.38,-197.35"/>
<text xml:space="preserve" text-anchor="start" x="9.88" y="-183.85" font-family="Helvetica,sans-Serif" font-size="10.00">FAttributeCurve::Readjust</text>
<text xml:space="preserve" text-anchor="middle" x="72.12" y="-171.1" font-family="Helvetica,sans-Serif" font-size="10.00">TimeRange</text>
</a>
</g>
</g>
<!-- Node1&#45;&gt;Node6 -->
<g id="edge13_Node000001_Node000006" class="edge">
<title>Node1&#45;&gt;Node6</title>
<g id="a_edge13_Node000001_Node000006"><a xlink:title=" ">
<path fill="none" stroke="#63b8ff" d="M632.48,-170.19C619.71,-172.81 606.54,-175.1 594,-176.6 433.27,-195.82 242.65,-190.12 142.52,-184.95"/>
<polygon fill="#63b8ff" stroke="#63b8ff" points="633.04,-173.65 642.09,-168.14 631.58,-166.8 633.04,-173.65"/>
</a>
</g>
</g>
<!-- Node9 -->
<g id="Node000009" class="node">
<title>Node9</title>
<g id="a_Node000009"><a xlink:href="structFAttributeCurve.html#ae9b6664ec769f83fc664550f3985f192" target="_top" xlink:title=" ">
<polygon fill="white" stroke="#666666" points="582.38,-167.35 441.88,-167.35 441.88,-133.85 582.38,-133.85 582.38,-167.35"/>
<text xml:space="preserve" text-anchor="start" x="449.88" y="-153.85" font-family="Helvetica,sans-Serif" font-size="10.00">FAttributeCurve::Evaluate</text>
<text xml:space="preserve" text-anchor="middle" x="512.12" y="-141.1" font-family="Helvetica,sans-Serif" font-size="10.00">ToPtr</text>
</a>
</g>
</g>
<!-- Node1&#45;&gt;Node9 -->
<g id="edge8_Node000001_Node000009" class="edge">
<title>Node1&#45;&gt;Node9</title>
<g id="a_edge8_Node000001_Node000009"><a xlink:title=" ">
<path fill="none" stroke="#63b8ff" d="M618.26,-150.6C606.29,-150.6 594.16,-150.6 582.62,-150.6"/>
<polygon fill="#63b8ff" stroke="#63b8ff" points="618.16,-154.1 628.16,-150.6 618.16,-147.1 618.16,-154.1"/>
</a>
</g>
</g>
<!-- Node11 -->
<g id="Node000011" class="node">
<title>Node11</title>
<g id="a_Node000011"><a xlink:href="structUE_1_1Anim_1_1TWrappedAttribute.html#a810d2af1cec10bb703be1dc387ac9b51" target="_top" xlink:title=" ">
<polygon fill="white" stroke="#666666" points="594,-115.35 430.25,-115.35 430.25,-81.85 594,-81.85 594,-115.35"/>
<text xml:space="preserve" text-anchor="start" x="438.25" y="-101.85" font-family="Helvetica,sans-Serif" font-size="10.00">UE::Anim::TWrappedAttribute</text>
<text xml:space="preserve" text-anchor="middle" x="512.12" y="-89.1" font-family="Helvetica,sans-Serif" font-size="10.00">&lt; FDefaultAllocator &gt;::GetRef</text>
</a>
</g>
</g>
<!-- Node1&#45;&gt;Node11 -->
<g id="edge11_Node000001_Node000011" class="edge">
<title>Node1&#45;&gt;Node11</title>
<g id="a_edge11_Node000001_Node000011"><a xlink:title=" ">
<path fill="none" stroke="#63b8ff" d="M632.92,-130.46C614.72,-125.62 595.43,-120.49 577.78,-115.79"/>
<polygon fill="#63b8ff" stroke="#63b8ff" points="631.77,-133.78 642.34,-132.97 633.57,-127.01 631.77,-133.78"/>
</a>
</g>
</g>
<!-- Node12 -->
<g id="Node000012" class="node">
<title>Node12</title>
<g id="a_Node000012"><a xlink:href="structUE_1_1Anim_1_1TWrappedAttribute.html#a548dce0062bcac2bb56bd7d10a737d7f" target="_top" xlink:title=" ">
<polygon fill="white" stroke="#666666" points="594,-63.35 430.25,-63.35 430.25,-29.85 594,-29.85 594,-63.35"/>
<text xml:space="preserve" text-anchor="start" x="438.25" y="-49.85" font-family="Helvetica,sans-Serif" font-size="10.00">UE::Anim::TWrappedAttribute</text>
<text xml:space="preserve" text-anchor="middle" x="512.12" y="-37.1" font-family="Helvetica,sans-Serif" font-size="10.00">&lt; FDefaultAllocator &gt;::GetRef</text>
</a>
</g>
</g>
<!-- Node1&#45;&gt;Node12 -->
<g id="edge12_Node000001_Node000012" class="edge">
<title>Node1&#45;&gt;Node12</title>
<g id="a_edge12_Node000001_Node000012"><a xlink:title=" ">
<path fill="none" stroke="#63b8ff" d="M678.42,-126.49C656.12,-109.6 624.47,-87.48 594,-72.6 587.37,-69.36 580.25,-66.4 573.08,-63.72"/>
<polygon fill="#63b8ff" stroke="#63b8ff" points="676.11,-129.13 686.17,-132.45 680.38,-123.58 676.11,-129.13"/>
</a>
</g>
</g>
<!-- Node13 -->
<g id="Node000013" class="node">
<title>Node13</title>
<g id="a_Node000013"><a xlink:href="structFAttributeCurve.html#afbc1b19b27304f6accbbd303c4f37743" target="_top" xlink:title=" ">
<polygon fill="white" stroke="#666666" points="394.25,-51.97 180.25,-51.97 180.25,-31.22 394.25,-31.22 394.25,-51.97"/>
<text xml:space="preserve" text-anchor="middle" x="287.25" y="-38.47" font-family="Helvetica,sans-Serif" font-size="10.00">FAttributeCurve::RemoveRedundantKeys</text>
</a>
</g>
</g>
<!-- Node1&#45;&gt;Node13 -->
<g id="edge14_Node000001_Node000013" class="edge">
<title>Node1&#45;&gt;Node13</title>
<g id="a_edge14_Node000001_Node000013"><a xlink:title=" ">
<path fill="none" stroke="#63b8ff" d="M694.23,-123.46C675.79,-91.95 640.57,-41.62 594,-20.6 500.41,21.66 374.15,-11.74 317.68,-30.73"/>
<polygon fill="#63b8ff" stroke="#63b8ff" points="691.11,-125.06 699.09,-132.04 697.2,-121.61 691.11,-125.06"/>
</a>
</g>
</g>
<!-- Node3 -->
<g id="Node000003" class="node">
<title>Node3</title>
<g id="a_Node000003"><a xlink:href="structFAttributeCurve.html#a02c41eb96c241399220b87ce388a20fe" target="_top" xlink:title=" ">
<polygon fill="white" stroke="#666666" points="368.75,-333.97 205.75,-333.97 205.75,-313.22 368.75,-313.22 368.75,-333.97"/>
<text xml:space="preserve" text-anchor="middle" x="287.25" y="-320.47" font-family="Helvetica,sans-Serif" font-size="10.00">FAttributeCurve::AddTypedKey</text>
</a>
</g>
</g>
<!-- Node2&#45;&gt;Node3 -->
<g id="edge2_Node000002_Node000003" class="edge">
<title>Node2&#45;&gt;Node3</title>
<g id="a_edge2_Node000002_Node000003"><a xlink:title=" ">
<path fill="none" stroke="#63b8ff" d="M459.01,-289.31C438.85,-294.41 415.54,-300.05 394.25,-304.6 380.81,-307.47 366.35,-310.25 352.56,-312.77"/>
<polygon fill="#63b8ff" stroke="#63b8ff" points="459.88,-292.7 468.7,-286.84 458.15,-285.92 459.88,-292.7"/>
</a>
</g>
</g>
<!-- Node2&#45;&gt;Node4 -->
<g id="edge3_Node000002_Node000004" class="edge">
<title>Node2&#45;&gt;Node4</title>
<g id="a_edge3_Node000002_Node000004"><a xlink:title=" ">
<path fill="none" stroke="#63b8ff" d="M446.16,-262.61C429.27,-259.29 411.09,-255.76 394.25,-252.6 379.83,-249.89 364.28,-247.05 349.66,-244.42"/>
<polygon fill="#63b8ff" stroke="#63b8ff" points="445.07,-265.96 455.56,-264.47 446.43,-259.1 445.07,-265.96"/>
</a>
</g>
</g>
<!-- Node5 -->
<g id="Node000005" class="node">
<title>Node5</title>
<g id="a_Node000005"><a xlink:href="structFAttributeCurve.html#a1c4ca61453cc82bbded1d42cec529401" target="_top" xlink:title=" ">
<polygon fill="white" stroke="#666666" points="359.38,-295.35 215.12,-295.35 215.12,-261.85 359.38,-261.85 359.38,-295.35"/>
<text xml:space="preserve" text-anchor="start" x="223.12" y="-281.85" font-family="Helvetica,sans-Serif" font-size="10.00">FAttributeCurve::UpdateOr</text>
<text xml:space="preserve" text-anchor="middle" x="287.25" y="-269.1" font-family="Helvetica,sans-Serif" font-size="10.00">AddKey</text>
</a>
</g>
</g>
<!-- Node2&#45;&gt;Node5 -->
<g id="edge4_Node000002_Node000005" class="edge">
<title>Node2&#45;&gt;Node5</title>
<g id="a_edge4_Node000002_Node000005"><a xlink:title=" ">
<path fill="none" stroke="#63b8ff" d="M433.35,-276.65C409.35,-276.97 383.05,-277.32 359.52,-277.64"/>
<polygon fill="#63b8ff" stroke="#63b8ff" points="433.09,-280.15 443.04,-276.51 433,-273.15 433.09,-280.15"/>
</a>
</g>
</g>
<!-- Node5&#45;&gt;Node6 -->
<g id="edge5_Node000005_Node000006" class="edge">
<title>Node5&#45;&gt;Node6</title>
<g id="a_edge5_Node000005_Node000006"><a xlink:title=" ">
<path fill="none" stroke="#63b8ff" d="M203.86,-263.43C195.62,-260.44 187.6,-256.87 180.25,-252.6 160.14,-240.91 163.06,-228.29 144.25,-214.6 135.51,-208.24 125.39,-202.56 115.57,-197.76"/>
<polygon fill="#63b8ff" stroke="#63b8ff" points="202.75,-266.75 213.35,-266.55 204.95,-260.1 202.75,-266.75"/>
</a>
</g>
</g>
<!-- Node7 -->
<g id="Node000007" class="node">
<title>Node7</title>
<g id="a_Node000007"><a xlink:href="structFAttributeCurve.html#a7e14a773315c9c781bb493a0a501c80c" target="_top" xlink:title=" ">
<polygon fill="white" stroke="#666666" points="144.25,-309.35 0,-309.35 0,-275.85 144.25,-275.85 144.25,-309.35"/>
<text xml:space="preserve" text-anchor="start" x="8" y="-295.85" font-family="Helvetica,sans-Serif" font-size="10.00">FAttributeCurve::UpdateOr</text>
<text xml:space="preserve" text-anchor="middle" x="72.12" y="-283.1" font-family="Helvetica,sans-Serif" font-size="10.00">AddTypedKey</text>
</a>
</g>
</g>
<!-- Node5&#45;&gt;Node7 -->
<g id="edge6_Node000005_Node000007" class="edge">
<title>Node5&#45;&gt;Node7</title>
<g id="a_edge6_Node000005_Node000007"><a xlink:title=" ">
<path fill="none" stroke="#63b8ff" d="M203.39,-284.04C183.94,-285.32 163.39,-286.67 144.5,-287.91"/>
<polygon fill="#63b8ff" stroke="#63b8ff" points="203.43,-287.55 213.18,-283.4 202.97,-280.56 203.43,-287.55"/>
</a>
</g>
</g>
<!-- Node8 -->
<g id="Node000008" class="node">
<title>Node8</title>
<g id="a_Node000008"><a xlink:href="structFAttributeCurve.html#af0af2b90abacf99340d2ca1ab6aeaa32" target="_top" xlink:title=" ">
<polygon fill="white" stroke="#666666" points="144.25,-257.35 0,-257.35 0,-223.85 144.25,-223.85 144.25,-257.35"/>
<text xml:space="preserve" text-anchor="start" x="8" y="-243.85" font-family="Helvetica,sans-Serif" font-size="10.00">FAttributeCurve::UpdateOr</text>
<text xml:space="preserve" text-anchor="middle" x="72.12" y="-231.1" font-family="Helvetica,sans-Serif" font-size="10.00">AddTypedKey</text>
</a>
</g>
</g>
<!-- Node5&#45;&gt;Node8 -->
<g id="edge7_Node000005_Node000008" class="edge">
<title>Node5&#45;&gt;Node8</title>
<g id="a_edge7_Node000005_Node000008"><a xlink:title=" ">
<path fill="none" stroke="#63b8ff" d="M203.39,-263.82C183.94,-260.36 163.39,-256.69 144.5,-253.32"/>
<polygon fill="#63b8ff" stroke="#63b8ff" points="202.74,-267.26 213.2,-265.57 203.97,-260.37 202.74,-267.26"/>
</a>
</g>
</g>
<!-- Node9&#45;&gt;Node6 -->
<g id="edge10_Node000009_Node000006" class="edge">
<title>Node9&#45;&gt;Node6</title>
<g id="a_edge10_Node000009_Node000006"><a xlink:title=" ">
<path fill="none" stroke="#63b8ff" d="M430.37,-156.13C347.78,-161.79 220.79,-170.48 142.56,-175.84"/>
<polygon fill="#63b8ff" stroke="#63b8ff" points="430.48,-159.63 440.21,-155.46 430,-152.65 430.48,-159.63"/>
</a>
</g>
</g>
<!-- Node10 -->
<g id="Node000010" class="node">
<title>Node10</title>
<g id="a_Node000010"><a xlink:href="structFAttributeCurve.html#a1c280f3f3ed33e0f9dcb38fef21da23b" target="_top" xlink:title=" ">
<polygon fill="white" stroke="#666666" points="357.5,-129.97 217,-129.97 217,-109.22 357.5,-109.22 357.5,-129.97"/>
<text xml:space="preserve" text-anchor="middle" x="287.25" y="-116.47" font-family="Helvetica,sans-Serif" font-size="10.00">FAttributeCurve::Evaluate</text>
</a>
</g>
</g>
<!-- Node9&#45;&gt;Node10 -->
<g id="edge9_Node000009_Node000010" class="edge">
<title>Node9&#45;&gt;Node10</title>
<g id="a_edge9_Node000009_Node000010"><a xlink:title=" ">
<path fill="none" stroke="#63b8ff" d="M430.38,-139.37C406.58,-136.06 380.74,-132.46 357.71,-129.26"/>
<polygon fill="#63b8ff" stroke="#63b8ff" points="429.64,-142.8 440.02,-140.71 430.6,-135.86 429.64,-142.8"/>
</a>
</g>
</g>
<!-- Node13&#45;&gt;Node6 -->
<g id="edge15_Node000013_Node000006" class="edge">
<title>Node13&#45;&gt;Node6</title>
<g id="a_edge15_Node000013_Node000006"><a xlink:title=" ">
<path fill="none" stroke="#63b8ff" d="M254.87,-57.65C233.43,-68.95 204.6,-84.83 180.25,-100.6 149.27,-120.66 115.45,-146.66 94.27,-163.49"/>
<polygon fill="#63b8ff" stroke="#63b8ff" points="256.47,-60.76 263.71,-53.03 253.22,-54.56 256.47,-60.76"/>
</a>
</g>
</g>
</g>
</svg>
