<?xml version="1.0" encoding="UTF-8" standalone="no"?>
<!DOCTYPE svg PUBLIC "-//W3C//DTD SVG 1.1//EN"
 "http://www.w3.org/Graphics/SVG/1.1/DTD/svg11.dtd">
<!-- Generated by graphviz version 14.1.4 (0)
 -->
<!-- Title: FPointDamageEvent Pages: 1 -->
<!--zoomable 1293 -->

<svg id="main" version="1.1" xmlns="http://www.w3.org/2000/svg" xmlns:xlink="http://www.w3.org/1999/xlink" xml:space="preserve" onload="init(evt)">

<style type="text/css"><![CDATA[
.node, .edge {opacity: 0.7;}
.node.selected, .edge.selected {opacity: 1;}
.edge:hover path { stroke: red; }
.edge:hover polygon { stroke: red; fill: red; }
]]></style>

<defs>
  <circle id="rim" cx="0" cy="0" r="7"/>
  <circle id="rim2" cx="0" cy="0" r="3.5"/>
  <g id="zoomPlus">
    <use xlink:href="#rim" fill="#404040"><set attributeName="fill" to="#808080" begin="zoomplus.mouseover" end="zoomplus.mouseout"/></use>
    <path d="M-4,0h8M0,-4v8" fill="none" stroke="white" stroke-width="1.5" pointer-events="none"/>
  </g>
  <g id="zoomMin">
    <use xlink:href="#rim" fill="#404040"><set attributeName="fill" to="#808080" begin="zoomminus.mouseover" end="zoomminus.mouseout"/></use>
    <path d="M-4,0h8" fill="none" stroke="white" stroke-width="1.5" pointer-events="none"/>
  </g>
  <g id="arrowUp" transform="translate(30 24)">
    <use xlink:href="#rim"/>
    <path pointer-events="none" fill="none" stroke="white" stroke-width="1.5" d="M0,-3.0v7 M-2.5,-0.5L0,-3.0L2.5,-0.5"/>
  </g>
  <g id="arrowRight" transform="rotate(90) translate(36 -43)">
    <use xlink:href="#rim"/>
    <path pointer-events="none" fill="none" stroke="white" stroke-width="1.5" d="M0,-3.0v7 M-2.5,-0.5L0,-3.0L2.5,-0.5"/>
  </g>
  <g id="arrowDown" transform="rotate(180) translate(-30 -48)">
    <use xlink:href="#rim"/>
    <path pointer-events="none" fill="none" stroke="white" stroke-width="1.5" d="M0,-3.0v7 M-2.5,-0.5L0,-3.0L2.5,-0.5"/>
  </g>
  <g id="arrowLeft" transform="rotate(270) translate(-36 17)">
    <use xlink:href="#rim"/>
    <path pointer-events="none" fill="none" stroke="white" stroke-width="1.5" d="M0,-3.0v7 M-2.5,-0.5L0,-3.0L2.5,-0.5"/>
  </g>
  <g id="resetDef">
    <use xlink:href="#rim2" fill="#404040"><set attributeName="fill" to="#808080" begin="reset.mouseover" end="reset.mouseout"/></use>
  </g>
</defs>
<script type="application/ecmascript">
var viewWidth = 576;
var viewHeight = 1293;
var sectionId = 'dynsection-1';
</script>
<script type="application/ecmascript" xlink:href="svg.min.js"/>
<svg id="graph" class="graph">
<g id="viewport">
<title>FPointDamageEvent</title>
<!-- Node1 -->
<g id="Node000001" class="node">
<title>Node1</title>
<g id="a_Node000001"><a xlink:title=" ">
<polygon fill="#999999" stroke="none" points="211.25,-138 83.75,-138 83.75,0 211.25,0 211.25,-138"/>
<text xml:space="preserve" text-anchor="start" x="97.62" y="-124.25" font-family="Helvetica,sans-Serif" font-size="10.00">FPointDamageEvent</text>
<text xml:space="preserve" text-anchor="start" x="87.75" y="-107.5" font-family="Helvetica,sans-Serif" font-size="10.00">+</text>
<text xml:space="preserve" text-anchor="start" x="100" y="-107.5" font-family="Helvetica,sans-Serif" font-size="10.00">Damage</text>
<text xml:space="preserve" text-anchor="start" x="87.75" y="-90.75" font-family="Helvetica,sans-Serif" font-size="10.00">+</text>
<text xml:space="preserve" text-anchor="start" x="100" y="-90.75" font-family="Helvetica,sans-Serif" font-size="10.00">ClassID</text>
<text xml:space="preserve" text-anchor="start" x="87.75" y="-74" font-family="Helvetica,sans-Serif" font-size="10.00">+</text>
<text xml:space="preserve" text-anchor="start" x="100" y="-74" font-family="Helvetica,sans-Serif" font-size="10.00">FPointDamageEvent()</text>
<text xml:space="preserve" text-anchor="start" x="87.75" y="-57.25" font-family="Helvetica,sans-Serif" font-size="10.00">+</text>
<text xml:space="preserve" text-anchor="start" x="100" y="-57.25" font-family="Helvetica,sans-Serif" font-size="10.00">FPointDamageEvent()</text>
<text xml:space="preserve" text-anchor="start" x="87.75" y="-40.5" font-family="Helvetica,sans-Serif" font-size="10.00">+</text>
<text xml:space="preserve" text-anchor="start" x="100" y="-40.5" font-family="Helvetica,sans-Serif" font-size="10.00">GetTypeID()</text>
<text xml:space="preserve" text-anchor="start" x="87.75" y="-23.75" font-family="Helvetica,sans-Serif" font-size="10.00">+</text>
<text xml:space="preserve" text-anchor="start" x="100" y="-23.75" font-family="Helvetica,sans-Serif" font-size="10.00">IsOfType()</text>
<text xml:space="preserve" text-anchor="start" x="87.75" y="-7" font-family="Helvetica,sans-Serif" font-size="10.00">+</text>
<text xml:space="preserve" text-anchor="start" x="100" y="-7" font-family="Helvetica,sans-Serif" font-size="10.00">GetBestHitInfo()</text>
<polygon fill="#666666" stroke="#666666" points="83.75,-119.25 83.75,-119.25 211.25,-119.25 211.25,-119.25 83.75,-119.25"/>
<polygon fill="#666666" stroke="#666666" points="83.75,-85.75 83.75,-85.75 98,-85.75 98,-85.75 83.75,-85.75"/>
<polygon fill="#666666" stroke="#666666" points="98,-85.75 98,-85.75 211.25,-85.75 211.25,-85.75 98,-85.75"/>
<polygon fill="none" stroke="#666666" points="83.75,0 83.75,-138 211.25,-138 211.25,0 83.75,0"/>
</a>
</g>
</g>
<!-- Node2 -->
<g id="Node000002" class="node">
<title>Node2</title>
<g id="a_Node000002"><a xlink:href="structFDamageEvent.html" target="_top" xlink:title=" ">
<polygon fill="white" stroke="none" points="111,-540.12 0,-540.12 0,-368.62 111,-368.62 111,-540.12"/>
<text xml:space="preserve" text-anchor="start" x="18" y="-526.38" font-family="Helvetica,sans-Serif" font-size="10.00">FDamageEvent</text>
<text xml:space="preserve" text-anchor="start" x="4" y="-509.62" font-family="Helvetica,sans-Serif" font-size="10.00">+</text>
<text xml:space="preserve" text-anchor="start" x="16.25" y="-509.62" font-family="Helvetica,sans-Serif" font-size="10.00">DamageTypeClass</text>
<text xml:space="preserve" text-anchor="start" x="4" y="-492.88" font-family="Helvetica,sans-Serif" font-size="10.00">+</text>
<text xml:space="preserve" text-anchor="start" x="16.25" y="-492.88" font-family="Helvetica,sans-Serif" font-size="10.00">ClassID</text>
<text xml:space="preserve" text-anchor="start" x="4" y="-476.12" font-family="Helvetica,sans-Serif" font-size="10.00">+</text>
<text xml:space="preserve" text-anchor="start" x="16.25" y="-476.12" font-family="Helvetica,sans-Serif" font-size="10.00">FDamageEvent()</text>
<text xml:space="preserve" text-anchor="start" x="4" y="-459.38" font-family="Helvetica,sans-Serif" font-size="10.00">+</text>
<text xml:space="preserve" text-anchor="start" x="16.25" y="-459.38" font-family="Helvetica,sans-Serif" font-size="10.00">FDamageEvent()</text>
<text xml:space="preserve" text-anchor="start" x="4" y="-442.62" font-family="Helvetica,sans-Serif" font-size="10.00">+</text>
<text xml:space="preserve" text-anchor="start" x="16.25" y="-442.62" font-family="Helvetica,sans-Serif" font-size="10.00">~FDamageEvent()</text>
<text xml:space="preserve" text-anchor="start" x="4" y="-425.88" font-family="Helvetica,sans-Serif" font-size="10.00">+</text>
<text xml:space="preserve" text-anchor="start" x="16.25" y="-425.88" font-family="Helvetica,sans-Serif" font-size="10.00">FDamageEvent()</text>
<text xml:space="preserve" text-anchor="start" x="4" y="-409.12" font-family="Helvetica,sans-Serif" font-size="10.00">+</text>
<text xml:space="preserve" text-anchor="start" x="16.25" y="-409.12" font-family="Helvetica,sans-Serif" font-size="10.00">GetTypeID()</text>
<text xml:space="preserve" text-anchor="start" x="4" y="-392.38" font-family="Helvetica,sans-Serif" font-size="10.00">+</text>
<text xml:space="preserve" text-anchor="start" x="16.25" y="-392.38" font-family="Helvetica,sans-Serif" font-size="10.00">IsOfType()</text>
<text xml:space="preserve" text-anchor="start" x="4" y="-375.62" font-family="Helvetica,sans-Serif" font-size="10.00">+</text>
<text xml:space="preserve" text-anchor="start" x="16.25" y="-375.62" font-family="Helvetica,sans-Serif" font-size="10.00">GetBestHitInfo()</text>
<polygon fill="#666666" stroke="#666666" points="0,-521.38 0,-521.38 111,-521.38 111,-521.38 0,-521.38"/>
<polygon fill="#666666" stroke="#666666" points="0,-487.88 0,-487.88 14.25,-487.88 14.25,-487.88 0,-487.88"/>
<polygon fill="#666666" stroke="#666666" points="14.25,-487.88 14.25,-487.88 111,-487.88 111,-487.88 14.25,-487.88"/>
<polygon fill="none" stroke="#666666" points="0,-368.62 0,-540.12 111,-540.12 111,-368.62 0,-368.62"/>
</a>
</g>
</g>
<!-- Node2&#45;&gt;Node1 -->
<g id="edge1_Node000001_Node000002" class="edge">
<title>Node2&#45;&gt;Node1</title>
<g id="a_edge1_Node000001_Node000002"><a xlink:title=" ">
<path fill="none" stroke="#63b8ff" d="M78.39,-357.98C94.82,-289.53 116.55,-198.96 131.23,-137.81"/>
<polygon fill="none" stroke="#63b8ff" points="75.09,-356.75 76.16,-367.3 81.89,-358.39 75.09,-356.75"/>
</a>
</g>
</g>
<!-- Node3 -->
<g id="Node000003" class="node">
<title>Node3</title>
<g id="a_Node000003"><a xlink:href="structFVector__NetQuantizeNormal.html" target="_top" xlink:title=" ">
<polygon fill="white" stroke="none" points="230.12,-1067.88 62.88,-1067.88 62.88,-946.62 230.12,-946.62 230.12,-1067.88"/>
<text xml:space="preserve" text-anchor="start" x="76.75" y="-1054.12" font-family="Helvetica,sans-Serif" font-size="10.00">FVector_NetQuantizeNormal</text>
<text xml:space="preserve" text-anchor="start" x="143.5" y="-1037.38" font-family="Helvetica,sans-Serif" font-size="10.00"> </text>
<text xml:space="preserve" text-anchor="start" x="66.88" y="-1020.62" font-family="Helvetica,sans-Serif" font-size="10.00">+</text>
<text xml:space="preserve" text-anchor="start" x="79.12" y="-1020.62" font-family="Helvetica,sans-Serif" font-size="10.00">FVector_NetQuantizeNormal()</text>
<text xml:space="preserve" text-anchor="start" x="66.88" y="-1003.88" font-family="Helvetica,sans-Serif" font-size="10.00">+</text>
<text xml:space="preserve" text-anchor="start" x="79.12" y="-1003.88" font-family="Helvetica,sans-Serif" font-size="10.00">FVector_NetQuantizeNormal()</text>
<text xml:space="preserve" text-anchor="start" x="66.88" y="-987.12" font-family="Helvetica,sans-Serif" font-size="10.00">+</text>
<text xml:space="preserve" text-anchor="start" x="79.12" y="-987.12" font-family="Helvetica,sans-Serif" font-size="10.00">FVector_NetQuantizeNormal()</text>
<text xml:space="preserve" text-anchor="start" x="66.88" y="-970.38" font-family="Helvetica,sans-Serif" font-size="10.00">+</text>
<text xml:space="preserve" text-anchor="start" x="79.12" y="-970.38" font-family="Helvetica,sans-Serif" font-size="10.00">FVector_NetQuantizeNormal()</text>
<text xml:space="preserve" text-anchor="start" x="66.88" y="-953.62" font-family="Helvetica,sans-Serif" font-size="10.00">+</text>
<text xml:space="preserve" text-anchor="start" x="79.12" y="-953.62" font-family="Helvetica,sans-Serif" font-size="10.00">NetSerialize()</text>
<polygon fill="#666666" stroke="#666666" points="62.88,-1049.12 62.88,-1049.12 230.12,-1049.12 230.12,-1049.12 62.88,-1049.12"/>
<polygon fill="#666666" stroke="#666666" points="62.88,-1032.38 62.88,-1032.38 230.12,-1032.38 230.12,-1032.38 62.88,-1032.38"/>
<polygon fill="none" stroke="#666666" points="62.88,-946.62 62.88,-1067.88 230.12,-1067.88 230.12,-946.62 62.88,-946.62"/>
</a>
</g>
</g>
<!-- Node3&#45;&gt;Node1 -->
<g id="edge2_Node000001_Node000003" class="edge">
<title>Node3&#45;&gt;Node1</title>
<g id="a_edge2_Node000001_Node000003"><a xlink:title=" ">
<path fill="none" stroke="#63b8ff" d="M146.56,-946.97C146.74,-785.05 147.22,-335.05 147.41,-150.52"/>
<polygon fill="none" stroke="#63b8ff" points="147.41,-150.6 143.42,-144.6 147.43,-138.6 151.42,-144.61 147.41,-150.6"/>
</a>
</g>
<text xml:space="preserve" text-anchor="start" x="150.36" y="-451" font-family="Helvetica,sans-Serif" font-size="10.00" fill="grey">+ShotDirection</text>
</g>
<!-- Node5 -->
<g id="Node000005" class="node">
<title>Node5</title>
<g id="a_Node000005"><a xlink:href="structFHitResult.html" target="_top" xlink:title=" ">
<polygon fill="white" stroke="none" points="376.38,-716 246.62,-716 246.62,-192.75 376.38,-192.75 376.38,-716"/>
<text xml:space="preserve" text-anchor="start" x="286" y="-702.25" font-family="Helvetica,sans-Serif" font-size="10.00">FHitResult</text>
<text xml:space="preserve" text-anchor="start" x="250.62" y="-685.5" font-family="Helvetica,sans-Serif" font-size="10.00">+</text>
<text xml:space="preserve" text-anchor="start" x="262.88" y="-685.5" font-family="Helvetica,sans-Serif" font-size="10.00">FaceIndex</text>
<text xml:space="preserve" text-anchor="start" x="250.62" y="-668.75" font-family="Helvetica,sans-Serif" font-size="10.00">+</text>
<text xml:space="preserve" text-anchor="start" x="262.88" y="-668.75" font-family="Helvetica,sans-Serif" font-size="10.00">Time</text>
<text xml:space="preserve" text-anchor="start" x="250.62" y="-652" font-family="Helvetica,sans-Serif" font-size="10.00">+</text>
<text xml:space="preserve" text-anchor="start" x="262.88" y="-652" font-family="Helvetica,sans-Serif" font-size="10.00">Distance</text>
<text xml:space="preserve" text-anchor="start" x="250.62" y="-635.25" font-family="Helvetica,sans-Serif" font-size="10.00">+</text>
<text xml:space="preserve" text-anchor="start" x="262.88" y="-635.25" font-family="Helvetica,sans-Serif" font-size="10.00">PenetrationDepth</text>
<text xml:space="preserve" text-anchor="start" x="250.62" y="-618.5" font-family="Helvetica,sans-Serif" font-size="10.00">+</text>
<text xml:space="preserve" text-anchor="start" x="262.88" y="-618.5" font-family="Helvetica,sans-Serif" font-size="10.00">MyItem</text>
<text xml:space="preserve" text-anchor="start" x="250.62" y="-601.75" font-family="Helvetica,sans-Serif" font-size="10.00">+</text>
<text xml:space="preserve" text-anchor="start" x="262.88" y="-601.75" font-family="Helvetica,sans-Serif" font-size="10.00">Item</text>
<text xml:space="preserve" text-anchor="start" x="250.62" y="-585" font-family="Helvetica,sans-Serif" font-size="10.00">+</text>
<text xml:space="preserve" text-anchor="start" x="262.88" y="-585" font-family="Helvetica,sans-Serif" font-size="10.00">ElementIndex</text>
<text xml:space="preserve" text-anchor="start" x="250.62" y="-568.25" font-family="Helvetica,sans-Serif" font-size="10.00">+</text>
<text xml:space="preserve" text-anchor="start" x="262.88" y="-568.25" font-family="Helvetica,sans-Serif" font-size="10.00">bBlockingHit</text>
<text xml:space="preserve" text-anchor="start" x="250.62" y="-551.5" font-family="Helvetica,sans-Serif" font-size="10.00">+</text>
<text xml:space="preserve" text-anchor="start" x="262.88" y="-551.5" font-family="Helvetica,sans-Serif" font-size="10.00">bStartPenetrating</text>
<text xml:space="preserve" text-anchor="start" x="250.62" y="-534.75" font-family="Helvetica,sans-Serif" font-size="10.00">+</text>
<text xml:space="preserve" text-anchor="start" x="262.88" y="-534.75" font-family="Helvetica,sans-Serif" font-size="10.00">PhysMaterial</text>
<text xml:space="preserve" text-anchor="start" x="250.62" y="-518" font-family="Helvetica,sans-Serif" font-size="10.00">+</text>
<text xml:space="preserve" text-anchor="start" x="262.88" y="-518" font-family="Helvetica,sans-Serif" font-size="10.00">Component</text>
<text xml:space="preserve" text-anchor="start" x="250.62" y="-501.25" font-family="Helvetica,sans-Serif" font-size="10.00">+</text>
<text xml:space="preserve" text-anchor="start" x="262.88" y="-501.25" font-family="Helvetica,sans-Serif" font-size="10.00">PhysicsObjectOwner</text>
<text xml:space="preserve" text-anchor="start" x="250.62" y="-484.5" font-family="Helvetica,sans-Serif" font-size="10.00">+</text>
<text xml:space="preserve" text-anchor="start" x="262.88" y="-484.5" font-family="Helvetica,sans-Serif" font-size="10.00">PhysicsObject</text>
<text xml:space="preserve" text-anchor="start" x="250.62" y="-467.75" font-family="Helvetica,sans-Serif" font-size="10.00">+</text>
<text xml:space="preserve" text-anchor="start" x="262.88" y="-467.75" font-family="Helvetica,sans-Serif" font-size="10.00">BoneName</text>
<text xml:space="preserve" text-anchor="start" x="250.62" y="-451" font-family="Helvetica,sans-Serif" font-size="10.00">+</text>
<text xml:space="preserve" text-anchor="start" x="262.88" y="-451" font-family="Helvetica,sans-Serif" font-size="10.00">MyBoneName</text>
<text xml:space="preserve" text-anchor="start" x="250.62" y="-434.25" font-family="Helvetica,sans-Serif" font-size="10.00">+</text>
<text xml:space="preserve" text-anchor="start" x="262.88" y="-434.25" font-family="Helvetica,sans-Serif" font-size="10.00">FHitResult()</text>
<text xml:space="preserve" text-anchor="start" x="250.62" y="-417.5" font-family="Helvetica,sans-Serif" font-size="10.00">+</text>
<text xml:space="preserve" text-anchor="start" x="262.88" y="-417.5" font-family="Helvetica,sans-Serif" font-size="10.00">FHitResult()</text>
<text xml:space="preserve" text-anchor="start" x="250.62" y="-400.75" font-family="Helvetica,sans-Serif" font-size="10.00">+</text>
<text xml:space="preserve" text-anchor="start" x="262.88" y="-400.75" font-family="Helvetica,sans-Serif" font-size="10.00">FHitResult()</text>
<text xml:space="preserve" text-anchor="start" x="250.62" y="-384" font-family="Helvetica,sans-Serif" font-size="10.00">+</text>
<text xml:space="preserve" text-anchor="start" x="262.88" y="-384" font-family="Helvetica,sans-Serif" font-size="10.00">FHitResult()</text>
<text xml:space="preserve" text-anchor="start" x="250.62" y="-367.25" font-family="Helvetica,sans-Serif" font-size="10.00">+</text>
<text xml:space="preserve" text-anchor="start" x="262.88" y="-367.25" font-family="Helvetica,sans-Serif" font-size="10.00">FHitResult()</text>
<text xml:space="preserve" text-anchor="start" x="250.62" y="-350.5" font-family="Helvetica,sans-Serif" font-size="10.00">+</text>
<text xml:space="preserve" text-anchor="start" x="262.88" y="-350.5" font-family="Helvetica,sans-Serif" font-size="10.00">Init()</text>
<text xml:space="preserve" text-anchor="start" x="250.62" y="-333.75" font-family="Helvetica,sans-Serif" font-size="10.00">+</text>
<text xml:space="preserve" text-anchor="start" x="262.88" y="-333.75" font-family="Helvetica,sans-Serif" font-size="10.00">Init()</text>
<text xml:space="preserve" text-anchor="start" x="250.62" y="-317" font-family="Helvetica,sans-Serif" font-size="10.00">+</text>
<text xml:space="preserve" text-anchor="start" x="262.88" y="-317" font-family="Helvetica,sans-Serif" font-size="10.00">FHitResult()</text>
<text xml:space="preserve" text-anchor="start" x="250.62" y="-300.25" font-family="Helvetica,sans-Serif" font-size="10.00">+</text>
<text xml:space="preserve" text-anchor="start" x="262.88" y="-300.25" font-family="Helvetica,sans-Serif" font-size="10.00">Reset()</text>
<text xml:space="preserve" text-anchor="start" x="250.62" y="-283.5" font-family="Helvetica,sans-Serif" font-size="10.00">+</text>
<text xml:space="preserve" text-anchor="start" x="262.88" y="-283.5" font-family="Helvetica,sans-Serif" font-size="10.00">GetActor()</text>
<text xml:space="preserve" text-anchor="start" x="262.88" y="-266.75" font-family="Helvetica,sans-Serif" font-size="10.00">and 6 more...</text>
<text xml:space="preserve" text-anchor="start" x="250.62" y="-250" font-family="Helvetica,sans-Serif" font-size="10.00">+</text>
<text xml:space="preserve" text-anchor="start" x="262.88" y="-250" font-family="Helvetica,sans-Serif" font-size="10.00">GetFirstBlockingHit()</text>
<text xml:space="preserve" text-anchor="start" x="250.62" y="-233.25" font-family="Helvetica,sans-Serif" font-size="10.00">+</text>
<text xml:space="preserve" text-anchor="start" x="262.88" y="-233.25" font-family="Helvetica,sans-Serif" font-size="10.00">GetNumBlockingHits()</text>
<text xml:space="preserve" text-anchor="start" x="250.62" y="-216.5" font-family="Helvetica,sans-Serif" font-size="10.00">+</text>
<text xml:space="preserve" text-anchor="start" x="262.88" y="-216.5" font-family="Helvetica,sans-Serif" font-size="10.00">GetNumOverlapHits()</text>
<text xml:space="preserve" text-anchor="start" x="250.62" y="-199.75" font-family="Helvetica,sans-Serif" font-size="10.00">+</text>
<text xml:space="preserve" text-anchor="start" x="262.88" y="-199.75" font-family="Helvetica,sans-Serif" font-size="10.00">GetReversedHit()</text>
<polygon fill="#666666" stroke="#666666" points="246.62,-697.25 246.62,-697.25 376.38,-697.25 376.38,-697.25 246.62,-697.25"/>
<polygon fill="#666666" stroke="#666666" points="246.62,-446 246.62,-446 260.88,-446 260.88,-446 246.62,-446"/>
<polygon fill="#666666" stroke="#666666" points="260.88,-446 260.88,-446 376.38,-446 376.38,-446 260.88,-446"/>
<polygon fill="none" stroke="#666666" points="246.62,-192.75 246.62,-716 376.38,-716 376.38,-192.75 246.62,-192.75"/>
</a>
</g>
</g>
<!-- Node3&#45;&gt;Node5 -->
<g id="edge7_Node000005_Node000003" class="edge">
<title>Node3&#45;&gt;Node5</title>
<g id="a_edge7_Node000005_Node000003"><a xlink:title=" ">
<path fill="none" stroke="#63b8ff" d="M161.84,-946.82C176.56,-891.34 200.09,-806.45 224.5,-734 227.24,-725.87 228.68,-724.11 231.5,-716 235.24,-705.25 238.98,-694.21 242.69,-683.05"/>
<polygon fill="none" stroke="#63b8ff" points="242.66,-683.14 240.74,-676.19 246.42,-671.74 248.33,-678.7 242.66,-683.14"/>
</a>
</g>
<text xml:space="preserve" text-anchor="start" x="227.5" y="-773.5" font-family="Helvetica,sans-Serif" font-size="10.00" fill="grey">+ImpactNormal</text>
<text xml:space="preserve" text-anchor="start" x="227.5" y="-756.75" font-family="Helvetica,sans-Serif" font-size="10.00" fill="grey">+Normal</text>
</g>
<!-- Node4 -->
<g id="Node000004" class="node">
<title>Node4</title>
<g id="a_Node000004"><a xlink:title=" ">
<polygon fill="white" stroke="none" points="252.25,-1284.75 206.75,-1284.75 206.75,-1230.5 252.25,-1230.5 252.25,-1284.75"/>
<text xml:space="preserve" text-anchor="start" x="210.75" y="-1271" font-family="Helvetica,sans-Serif" font-size="10.00">FVector</text>
<text xml:space="preserve" text-anchor="start" x="226.5" y="-1254.25" font-family="Helvetica,sans-Serif" font-size="10.00"> </text>
<text xml:space="preserve" text-anchor="start" x="226.5" y="-1237.5" font-family="Helvetica,sans-Serif" font-size="10.00"> </text>
<polygon fill="#666666" stroke="#666666" points="206.75,-1266 206.75,-1266 252.25,-1266 252.25,-1266 206.75,-1266"/>
<polygon fill="#666666" stroke="#666666" points="206.75,-1249.25 206.75,-1249.25 252.25,-1249.25 252.25,-1249.25 206.75,-1249.25"/>
<polygon fill="none" stroke="#666666" points="206.75,-1230.5 206.75,-1284.75 252.25,-1284.75 252.25,-1230.5 206.75,-1230.5"/>
</a>
</g>
</g>
<!-- Node4&#45;&gt;Node3 -->
<g id="edge3_Node000003_Node000004" class="edge">
<title>Node4&#45;&gt;Node3</title>
<g id="a_edge3_Node000003_Node000004"><a xlink:title=" ">
<path fill="none" stroke="#63b8ff" d="M217.14,-1219.64C203.74,-1179.54 182.16,-1114.96 166.37,-1067.72"/>
<polygon fill="none" stroke="#63b8ff" points="213.81,-1220.7 220.29,-1229.08 220.44,-1218.48 213.81,-1220.7"/>
</a>
</g>
</g>
<!-- Node6 -->
<g id="Node000006" class="node">
<title>Node6</title>
<g id="a_Node000006"><a xlink:href="structFVector__NetQuantize.html" target="_top" xlink:title=" ">
<polygon fill="white" stroke="none" points="379.12,-1067.88 247.88,-1067.88 247.88,-946.62 379.12,-946.62 379.12,-1067.88"/>
<text xml:space="preserve" text-anchor="start" x="261.75" y="-1054.12" font-family="Helvetica,sans-Serif" font-size="10.00">FVector_NetQuantize</text>
<text xml:space="preserve" text-anchor="start" x="310.5" y="-1037.38" font-family="Helvetica,sans-Serif" font-size="10.00"> </text>
<text xml:space="preserve" text-anchor="start" x="251.88" y="-1020.62" font-family="Helvetica,sans-Serif" font-size="10.00">+</text>
<text xml:space="preserve" text-anchor="start" x="264.12" y="-1020.62" font-family="Helvetica,sans-Serif" font-size="10.00">FVector_NetQuantize()</text>
<text xml:space="preserve" text-anchor="start" x="251.88" y="-1003.88" font-family="Helvetica,sans-Serif" font-size="10.00">+</text>
<text xml:space="preserve" text-anchor="start" x="264.12" y="-1003.88" font-family="Helvetica,sans-Serif" font-size="10.00">FVector_NetQuantize()</text>
<text xml:space="preserve" text-anchor="start" x="251.88" y="-987.12" font-family="Helvetica,sans-Serif" font-size="10.00">+</text>
<text xml:space="preserve" text-anchor="start" x="264.12" y="-987.12" font-family="Helvetica,sans-Serif" font-size="10.00">FVector_NetQuantize()</text>
<text xml:space="preserve" text-anchor="start" x="251.88" y="-970.38" font-family="Helvetica,sans-Serif" font-size="10.00">+</text>
<text xml:space="preserve" text-anchor="start" x="264.12" y="-970.38" font-family="Helvetica,sans-Serif" font-size="10.00">FVector_NetQuantize()</text>
<text xml:space="preserve" text-anchor="start" x="251.88" y="-953.62" font-family="Helvetica,sans-Serif" font-size="10.00">+</text>
<text xml:space="preserve" text-anchor="start" x="264.12" y="-953.62" font-family="Helvetica,sans-Serif" font-size="10.00">NetSerialize()</text>
<polygon fill="#666666" stroke="#666666" points="247.88,-1049.12 247.88,-1049.12 379.12,-1049.12 379.12,-1049.12 247.88,-1049.12"/>
<polygon fill="#666666" stroke="#666666" points="247.88,-1032.38 247.88,-1032.38 379.12,-1032.38 379.12,-1032.38 247.88,-1032.38"/>
<polygon fill="none" stroke="#666666" points="247.88,-946.62 247.88,-1067.88 379.12,-1067.88 379.12,-946.62 247.88,-946.62"/>
</a>
</g>
</g>
<!-- Node4&#45;&gt;Node6 -->
<g id="edge6_Node000006_Node000004" class="edge">
<title>Node4&#45;&gt;Node6</title>
<g id="a_edge6_Node000006_Node000004"><a xlink:title=" ">
<path fill="none" stroke="#63b8ff" d="M242.01,-1219.64C255.57,-1179.54 277.41,-1114.96 293.39,-1067.72"/>
<polygon fill="none" stroke="#63b8ff" points="238.7,-1218.49 238.82,-1229.08 245.33,-1220.73 238.7,-1218.49"/>
</a>
</g>
</g>
<!-- Node5&#45;&gt;Node1 -->
<g id="edge4_Node000001_Node000005" class="edge">
<title>Node5&#45;&gt;Node1</title>
<g id="a_edge4_Node000001_Node000005"><a xlink:title=" ">
<path fill="none" stroke="#63b8ff" d="M246.74,-227.12C241.92,-215.36 236.84,-203.84 231.5,-192.75 224.35,-177.92 215.56,-162.86 206.38,-148.61"/>
<polygon fill="none" stroke="#63b8ff" points="206.41,-148.66 199.77,-145.85 199.8,-138.64 206.44,-141.45 206.41,-148.66"/>
</a>
</g>
<text xml:space="preserve" text-anchor="start" x="223.16" y="-162" font-family="Helvetica,sans-Serif" font-size="10.00" fill="grey">+HitInfo</text>
</g>
<!-- Node6&#45;&gt;Node5 -->
<g id="edge5_Node000005_Node000006" class="edge">
<title>Node6&#45;&gt;Node5</title>
<g id="a_edge5_Node000005_Node000006"><a xlink:title=" ">
<path fill="none" stroke="#63b8ff" d="M313.28,-946.77C313.09,-893.37 312.79,-810.95 312.49,-728.77"/>
<polygon fill="none" stroke="#63b8ff" points="312.49,-728.76 308.47,-722.77 312.45,-716.76 316.47,-722.74 312.49,-728.76"/>
</a>
</g>
<text xml:space="preserve" text-anchor="start" x="315.74" y="-790.25" font-family="Helvetica,sans-Serif" font-size="10.00" fill="grey">+ImpactPoint</text>
<text xml:space="preserve" text-anchor="start" x="315.74" y="-773.5" font-family="Helvetica,sans-Serif" font-size="10.00" fill="grey">+Location</text>
<text xml:space="preserve" text-anchor="start" x="315.74" y="-756.75" font-family="Helvetica,sans-Serif" font-size="10.00" fill="grey">+TraceEnd</text>
<text xml:space="preserve" text-anchor="start" x="315.74" y="-740" font-family="Helvetica,sans-Serif" font-size="10.00" fill="grey">+TraceStart</text>
</g>
<!-- Node7 -->
<g id="Node000007" class="node">
<title>Node7</title>
<g id="a_Node000007"><a xlink:href="structFActorInstanceHandle.html" target="_top" xlink:title=" ">
<polygon fill="white" stroke="none" points="568,-1193.5 397,-1193.5 397,-821 568,-821 568,-1193.5"/>
<text xml:space="preserve" text-anchor="start" x="429.62" y="-1179.75" font-family="Helvetica,sans-Serif" font-size="10.00">FActorInstanceHandle</text>
<text xml:space="preserve" text-anchor="start" x="403.25" y="-1163" font-family="Helvetica,sans-Serif" font-size="10.00">&#45;</text>
<text xml:space="preserve" text-anchor="start" x="413.25" y="-1163" font-family="Helvetica,sans-Serif" font-size="10.00">ReferenceObject</text>
<text xml:space="preserve" text-anchor="start" x="403.25" y="-1146.25" font-family="Helvetica,sans-Serif" font-size="10.00">&#45;</text>
<text xml:space="preserve" text-anchor="start" x="413.25" y="-1146.25" font-family="Helvetica,sans-Serif" font-size="10.00">ManagerInterface</text>
<text xml:space="preserve" text-anchor="start" x="403.25" y="-1129.5" font-family="Helvetica,sans-Serif" font-size="10.00">&#45;</text>
<text xml:space="preserve" text-anchor="start" x="413.25" y="-1129.5" font-family="Helvetica,sans-Serif" font-size="10.00">InstanceIndex</text>
<text xml:space="preserve" text-anchor="start" x="403.25" y="-1112.75" font-family="Helvetica,sans-Serif" font-size="10.00">&#45;</text>
<text xml:space="preserve" text-anchor="start" x="413.25" y="-1112.75" font-family="Helvetica,sans-Serif" font-size="10.00">ResolutionStatus</text>
<text xml:space="preserve" text-anchor="start" x="401" y="-1096" font-family="Helvetica,sans-Serif" font-size="10.00">+</text>
<text xml:space="preserve" text-anchor="start" x="413.25" y="-1096" font-family="Helvetica,sans-Serif" font-size="10.00">FActorInstanceHandle()</text>
<text xml:space="preserve" text-anchor="start" x="401" y="-1079.25" font-family="Helvetica,sans-Serif" font-size="10.00">+</text>
<text xml:space="preserve" text-anchor="start" x="413.25" y="-1079.25" font-family="Helvetica,sans-Serif" font-size="10.00">FActorInstanceHandle()</text>
<text xml:space="preserve" text-anchor="start" x="401" y="-1062.5" font-family="Helvetica,sans-Serif" font-size="10.00">+</text>
<text xml:space="preserve" text-anchor="start" x="413.25" y="-1062.5" font-family="Helvetica,sans-Serif" font-size="10.00">FActorInstanceHandle()</text>
<text xml:space="preserve" text-anchor="start" x="401" y="-1045.75" font-family="Helvetica,sans-Serif" font-size="10.00">+</text>
<text xml:space="preserve" text-anchor="start" x="413.25" y="-1045.75" font-family="Helvetica,sans-Serif" font-size="10.00">FActorInstanceHandle()</text>
<text xml:space="preserve" text-anchor="start" x="401" y="-1029" font-family="Helvetica,sans-Serif" font-size="10.00">+</text>
<text xml:space="preserve" text-anchor="start" x="413.25" y="-1029" font-family="Helvetica,sans-Serif" font-size="10.00">FActorInstanceHandle()</text>
<text xml:space="preserve" text-anchor="start" x="401" y="-1012.25" font-family="Helvetica,sans-Serif" font-size="10.00">+</text>
<text xml:space="preserve" text-anchor="start" x="413.25" y="-1012.25" font-family="Helvetica,sans-Serif" font-size="10.00">FActorInstanceHandle()</text>
<text xml:space="preserve" text-anchor="start" x="401" y="-995.5" font-family="Helvetica,sans-Serif" font-size="10.00">+</text>
<text xml:space="preserve" text-anchor="start" x="413.25" y="-995.5" font-family="Helvetica,sans-Serif" font-size="10.00">IsValid()</text>
<text xml:space="preserve" text-anchor="start" x="401" y="-978.75" font-family="Helvetica,sans-Serif" font-size="10.00">+</text>
<text xml:space="preserve" text-anchor="start" x="413.25" y="-978.75" font-family="Helvetica,sans-Serif" font-size="10.00">DoesRepresentClass()</text>
<text xml:space="preserve" text-anchor="start" x="401" y="-962" font-family="Helvetica,sans-Serif" font-size="10.00">+</text>
<text xml:space="preserve" text-anchor="start" x="413.25" y="-962" font-family="Helvetica,sans-Serif" font-size="10.00">DoesRepresent()</text>
<text xml:space="preserve" text-anchor="start" x="401" y="-945.25" font-family="Helvetica,sans-Serif" font-size="10.00">+</text>
<text xml:space="preserve" text-anchor="start" x="413.25" y="-945.25" font-family="Helvetica,sans-Serif" font-size="10.00">GetRepresentedClass()</text>
<text xml:space="preserve" text-anchor="start" x="413.25" y="-928.5" font-family="Helvetica,sans-Serif" font-size="10.00">and 23 more...</text>
<text xml:space="preserve" text-anchor="start" x="401" y="-911.75" font-family="Helvetica,sans-Serif" font-size="10.00">+</text>
<text xml:space="preserve" text-anchor="start" x="413.25" y="-911.75" font-family="Helvetica,sans-Serif" font-size="10.00">MakeDehydratedActorHandle()</text>
<text xml:space="preserve" text-anchor="start" x="401" y="-895" font-family="Helvetica,sans-Serif" font-size="10.00">+</text>
<text xml:space="preserve" text-anchor="start" x="413.25" y="-895" font-family="Helvetica,sans-Serif" font-size="10.00">MakeActorHandleToResolve()</text>
<text xml:space="preserve" text-anchor="start" x="403.25" y="-878.25" font-family="Helvetica,sans-Serif" font-size="10.00">&#45;</text>
<text xml:space="preserve" text-anchor="start" x="413.25" y="-878.25" font-family="Helvetica,sans-Serif" font-size="10.00">GetActorAsUObject()</text>
<text xml:space="preserve" text-anchor="start" x="403.25" y="-861.5" font-family="Helvetica,sans-Serif" font-size="10.00">&#45;</text>
<text xml:space="preserve" text-anchor="start" x="413.25" y="-861.5" font-family="Helvetica,sans-Serif" font-size="10.00">GetActorAsUObject()</text>
<text xml:space="preserve" text-anchor="start" x="403.25" y="-844.75" font-family="Helvetica,sans-Serif" font-size="10.00">&#45;</text>
<text xml:space="preserve" text-anchor="start" x="413.25" y="-844.75" font-family="Helvetica,sans-Serif" font-size="10.00">IsActorValid()</text>
<text xml:space="preserve" text-anchor="start" x="403.25" y="-828" font-family="Helvetica,sans-Serif" font-size="10.00">&#45;</text>
<text xml:space="preserve" text-anchor="start" x="413.25" y="-828" font-family="Helvetica,sans-Serif" font-size="10.00">ResolveHandle()</text>
<polygon fill="#666666" stroke="#666666" points="397,-1174.75 397,-1174.75 568,-1174.75 568,-1174.75 397,-1174.75"/>
<polygon fill="#666666" stroke="#666666" points="397,-1107.75 397,-1107.75 411.25,-1107.75 411.25,-1107.75 397,-1107.75"/>
<polygon fill="#666666" stroke="#666666" points="411.25,-1107.75 411.25,-1107.75 568,-1107.75 568,-1107.75 411.25,-1107.75"/>
<polygon fill="none" stroke="#666666" points="397,-821 397,-1193.5 568,-1193.5 568,-821 397,-821"/>
</a>
</g>
</g>
<!-- Node7&#45;&gt;Node5 -->
<g id="edge8_Node000005_Node000007" class="edge">
<title>Node7&#45;&gt;Node5</title>
<g id="a_edge8_Node000005_Node000007"><a xlink:title=" ">
<path fill="none" stroke="#63b8ff" d="M425.08,-821.28C410.64,-774.75 394.99,-724.34 380.06,-676.24"/>
<polygon fill="none" stroke="#63b8ff" points="380.1,-676.38 374.51,-671.84 376.55,-664.92 382.15,-669.47 380.1,-676.38"/>
</a>
</g>
<text xml:space="preserve" text-anchor="start" x="420.34" y="-765.12" font-family="Helvetica,sans-Serif" font-size="10.00" fill="grey">+HitObjectHandle</text>
</g>
</g>
</svg>

<g id="navigator" transform="translate(0 0)" fill="#404254">
  <rect fill="#f2f5e9" fill-opacity="0.5" stroke="#606060" stroke-width=".5" x="0" y="0" width="60" height="60"/>
  <use id="zoomplus" xlink:href="#zoomPlus" x="17" y="9" onmousedown="handleZoom(evt,'in')"/>
  <use id="zoomminus" xlink:href="#zoomMin" x="42" y="9" onmousedown="handleZoom(evt,'out')"/>
  <use id="reset" xlink:href="#resetDef" x="30" y="36" onmousedown="handleReset()"/>
   <use id="arrowup" xlink:href="#arrowUp" x="0" y="0" onmousedown="handlePan(0,-1)"/>
  <use id="arrowright" xlink:href="#arrowRight" x="0" y="0" onmousedown="handlePan(1,0)"/>
  <use id="arrowdown" xlink:href="#arrowDown" x="0" y="0" onmousedown="handlePan(0,1)"/>
  <use id="arrowleft" xlink:href="#arrowLeft" x="0" y="0" onmousedown="handlePan(-1,0)"/>
</g>
<svg viewBox="0 0 15 15" width="100%" height="30px" preserveAspectRatio="xMaxYMin meet">
 <g id="arrow_out" transform="scale(0.3 0.3)">
  <a xlink:href="structFPointDamageEvent__coll__graph_org.svg" target="_base">
   <rect id="button" ry="5" rx="5" y="6" x="6" height="38" width="38"
        fill="#f2f5e9" fill-opacity="0.5" stroke="#606060" stroke-width="1.0"/>
   <path id="arrow"
     d="M 11.500037,31.436501 C 11.940474,20.09759 22.043105,11.32322 32.158766,21.979434 L 37.068811,17.246167 C 37.068811,17.246167 37.088388,32 37.088388,32 L 22.160133,31.978069 C 22.160133,31.978069 26.997745,27.140456 26.997745,27.140456 C 18.528582,18.264221 13.291696,25.230495 11.500037,31.436501 z"
     style="fill:#404040;"/>
  </a>
 </g>
</svg>

<style type='text/css'>
<![CDATA[
[data-mouse-over-selected='false'] { opacity: 0.7; }
[data-mouse-over-selected='true']  { opacity: 1.0; }
]]>
</style>
<script type="application/ecmascript"><![CDATA[
document.addEventListener('DOMContentLoaded', (event) => {
  highlightEdges();
  highlightAdjacentNodes();
});
]]></script>
</svg>
