<?xml version="1.0" encoding="UTF-8" standalone="no"?>
<!DOCTYPE svg PUBLIC "-//W3C//DTD SVG 1.1//EN"
 "http://www.w3.org/Graphics/SVG/1.1/DTD/svg11.dtd">
<!-- Generated by graphviz version 14.1.4 (0)
 -->
<!-- Title: FSubsurfaceProfileTexture::FSubsurfaceProfileEntry Pages: 1 -->
<svg width="281pt" height="544pt"
 viewBox="0.00 0.00 281.00 544.00" xmlns="http://www.w3.org/2000/svg" xmlns:xlink="http://www.w3.org/1999/xlink">
<g id="graph0" class="graph" transform="scale(1 1) rotate(0) translate(4 540.25)">
<title>FSubsurfaceProfileTexture::FSubsurfaceProfileEntry</title>
<!-- Node1 -->
<g id="Node000001" class="node">
<title>Node1</title>
<g id="a_Node000001"><a xlink:title=" ">
<polygon fill="#999999" stroke="none" points="148.25,-67 3.5,-67 3.5,0 148.25,0 148.25,-67"/>
<text xml:space="preserve" text-anchor="start" x="12.12" y="-53.25" font-family="Helvetica,sans-Serif" font-size="10.00">FSubsurfaceProfileTexture</text>
<text xml:space="preserve" text-anchor="start" x="14.38" y="-40.5" font-family="Helvetica,sans-Serif" font-size="10.00">::FSubsurfaceProfileEntry</text>
<text xml:space="preserve" text-anchor="start" x="72.88" y="-23.75" font-family="Helvetica,sans-Serif" font-size="10.00"> </text>
<text xml:space="preserve" text-anchor="start" x="7.5" y="-7" font-family="Helvetica,sans-Serif" font-size="10.00">+</text>
<text xml:space="preserve" text-anchor="start" x="19.75" y="-7" font-family="Helvetica,sans-Serif" font-size="10.00">FSubsurfaceProfileEntry()</text>
<polygon fill="#666666" stroke="#666666" points="3.5,-35.5 3.5,-35.5 148.25,-35.5 148.25,-35.5 3.5,-35.5"/>
<polygon fill="#666666" stroke="#666666" points="3.5,-18.75 3.5,-18.75 148.25,-18.75 148.25,-18.75 3.5,-18.75"/>
<polygon fill="none" stroke="#666666" points="3.5,0 3.5,-67 148.25,-67 148.25,0 3.5,0"/>
</a>
</g>
</g>
<!-- Node2 -->
<g id="Node000002" class="node">
<title>Node2</title>
<g id="a_Node000002"><a xlink:href="structFSubsurfaceProfileStruct.html" target="_top" xlink:title=" ">
<polygon fill="white" stroke="none" points="147.75,-536.25 0,-536.25 0,-297.75 147.75,-297.75 147.75,-536.25"/>
<text xml:space="preserve" text-anchor="start" x="13.88" y="-522.5" font-family="Helvetica,sans-Serif" font-size="10.00">FSubsurfaceProfileStruct</text>
<text xml:space="preserve" text-anchor="start" x="4" y="-505.75" font-family="Helvetica,sans-Serif" font-size="10.00">+</text>
<text xml:space="preserve" text-anchor="start" x="16.25" y="-505.75" font-family="Helvetica,sans-Serif" font-size="10.00">SurfaceAlbedo</text>
<text xml:space="preserve" text-anchor="start" x="4" y="-489" font-family="Helvetica,sans-Serif" font-size="10.00">+</text>
<text xml:space="preserve" text-anchor="start" x="16.25" y="-489" font-family="Helvetica,sans-Serif" font-size="10.00">MeanFreePathColor</text>
<text xml:space="preserve" text-anchor="start" x="4" y="-472.25" font-family="Helvetica,sans-Serif" font-size="10.00">+</text>
<text xml:space="preserve" text-anchor="start" x="16.25" y="-472.25" font-family="Helvetica,sans-Serif" font-size="10.00">MeanFreePathDistance</text>
<text xml:space="preserve" text-anchor="start" x="4" y="-455.5" font-family="Helvetica,sans-Serif" font-size="10.00">+</text>
<text xml:space="preserve" text-anchor="start" x="16.25" y="-455.5" font-family="Helvetica,sans-Serif" font-size="10.00">WorldUnitScale</text>
<text xml:space="preserve" text-anchor="start" x="4" y="-438.75" font-family="Helvetica,sans-Serif" font-size="10.00">+</text>
<text xml:space="preserve" text-anchor="start" x="16.25" y="-438.75" font-family="Helvetica,sans-Serif" font-size="10.00">bEnableBurley</text>
<text xml:space="preserve" text-anchor="start" x="4" y="-422" font-family="Helvetica,sans-Serif" font-size="10.00">+</text>
<text xml:space="preserve" text-anchor="start" x="16.25" y="-422" font-family="Helvetica,sans-Serif" font-size="10.00">bEnableMeanFreePath</text>
<text xml:space="preserve" text-anchor="start" x="4" y="-405.25" font-family="Helvetica,sans-Serif" font-size="10.00">+</text>
<text xml:space="preserve" text-anchor="start" x="16.25" y="-405.25" font-family="Helvetica,sans-Serif" font-size="10.00">Tint</text>
<text xml:space="preserve" text-anchor="start" x="4" y="-388.5" font-family="Helvetica,sans-Serif" font-size="10.00">+</text>
<text xml:space="preserve" text-anchor="start" x="16.25" y="-388.5" font-family="Helvetica,sans-Serif" font-size="10.00">ScatterRadius</text>
<text xml:space="preserve" text-anchor="start" x="4" y="-371.75" font-family="Helvetica,sans-Serif" font-size="10.00">+</text>
<text xml:space="preserve" text-anchor="start" x="16.25" y="-371.75" font-family="Helvetica,sans-Serif" font-size="10.00">SubsurfaceColor</text>
<text xml:space="preserve" text-anchor="start" x="4" y="-355" font-family="Helvetica,sans-Serif" font-size="10.00">+</text>
<text xml:space="preserve" text-anchor="start" x="16.25" y="-355" font-family="Helvetica,sans-Serif" font-size="10.00">FalloffColor</text>
<text xml:space="preserve" text-anchor="start" x="16.25" y="-338.25" font-family="Helvetica,sans-Serif" font-size="10.00">and 10 more...</text>
<text xml:space="preserve" text-anchor="start" x="4" y="-321.5" font-family="Helvetica,sans-Serif" font-size="10.00">+</text>
<text xml:space="preserve" text-anchor="start" x="16.25" y="-321.5" font-family="Helvetica,sans-Serif" font-size="10.00">FSubsurfaceProfileStruct()</text>
<text xml:space="preserve" text-anchor="start" x="4" y="-304.75" font-family="Helvetica,sans-Serif" font-size="10.00">+</text>
<text xml:space="preserve" text-anchor="start" x="16.25" y="-304.75" font-family="Helvetica,sans-Serif" font-size="10.00">Invalidate()</text>
<polygon fill="#666666" stroke="#666666" points="0,-517.5 0,-517.5 147.75,-517.5 147.75,-517.5 0,-517.5"/>
<polygon fill="#666666" stroke="#666666" points="0,-333.25 0,-333.25 14.25,-333.25 14.25,-333.25 0,-333.25"/>
<polygon fill="#666666" stroke="#666666" points="14.25,-333.25 14.25,-333.25 147.75,-333.25 147.75,-333.25 14.25,-333.25"/>
<polygon fill="none" stroke="#666666" points="0,-297.75 0,-536.25 147.75,-536.25 147.75,-297.75 0,-297.75"/>
</a>
</g>
</g>
<!-- Node2&#45;&gt;Node1 -->
<g id="edge1_Node000001_Node000002" class="edge">
<title>Node2&#45;&gt;Node1</title>
<g id="a_edge1_Node000001_Node000002"><a xlink:title=" ">
<path fill="none" stroke="#63b8ff" d="M69.69,-297.85C68.45,-244.11 67.88,-179.7 69.88,-121.75 70.34,-108.09 71.22,-93.25 72.17,-79.75"/>
<polygon fill="none" stroke="#63b8ff" points="72.18,-79.66 68.63,-73.38 73.06,-67.69 76.61,-73.97 72.18,-79.66"/>
</a>
</g>
<text xml:space="preserve" text-anchor="start" x="72.88" y="-179" font-family="Helvetica,sans-Serif" font-size="10.00" fill="grey">+Settings</text>
</g>
<!-- Node3 -->
<g id="Node000003" class="node">
<title>Node3</title>
<g id="a_Node000003"><a xlink:href="classUSubsurfaceProfile.html" target="_top" xlink:title=" ">
<polygon fill="white" stroke="none" points="273.38,-243 132.38,-243 132.38,-121.75 273.38,-121.75 273.38,-243"/>
<text xml:space="preserve" text-anchor="start" x="156.38" y="-229.25" font-family="Helvetica,sans-Serif" font-size="10.00">USubsurfaceProfile</text>
<text xml:space="preserve" text-anchor="start" x="136.38" y="-212.5" font-family="Helvetica,sans-Serif" font-size="10.00">&#45;</text>
<text xml:space="preserve" text-anchor="start" x="144.12" y="-212.5" font-family="Helvetica,sans-Serif" font-size="10.00">Guid</text>
<text xml:space="preserve" text-anchor="start" x="136.38" y="-195.75" font-family="Helvetica,sans-Serif" font-size="10.00">&#45;</text>
<text xml:space="preserve" text-anchor="start" x="144.12" y="-195.75" font-family="Helvetica,sans-Serif" font-size="10.00">BeginDestroy()</text>
<text xml:space="preserve" text-anchor="start" x="136.38" y="-179" font-family="Helvetica,sans-Serif" font-size="10.00">&#45;</text>
<text xml:space="preserve" text-anchor="start" x="144.12" y="-179" font-family="Helvetica,sans-Serif" font-size="10.00">PostEditChangeProperty()</text>
<text xml:space="preserve" text-anchor="start" x="136.38" y="-162.25" font-family="Helvetica,sans-Serif" font-size="10.00">&#45;</text>
<text xml:space="preserve" text-anchor="start" x="144.12" y="-162.25" font-family="Helvetica,sans-Serif" font-size="10.00">PostDuplicate()</text>
<text xml:space="preserve" text-anchor="start" x="136.38" y="-145.5" font-family="Helvetica,sans-Serif" font-size="10.00">&#45;</text>
<text xml:space="preserve" text-anchor="start" x="144.12" y="-145.5" font-family="Helvetica,sans-Serif" font-size="10.00">Serialize()</text>
<text xml:space="preserve" text-anchor="start" x="136.38" y="-128.75" font-family="Helvetica,sans-Serif" font-size="10.00">&#45;</text>
<text xml:space="preserve" text-anchor="start" x="144.12" y="-128.75" font-family="Helvetica,sans-Serif" font-size="10.00">PostLoad()</text>
<polygon fill="#666666" stroke="#666666" points="132.38,-224.25 132.38,-224.25 273.38,-224.25 273.38,-224.25 132.38,-224.25"/>
<polygon fill="#666666" stroke="#666666" points="132.38,-207.5 132.38,-207.5 142.12,-207.5 142.12,-207.5 132.38,-207.5"/>
<polygon fill="#666666" stroke="#666666" points="142.12,-207.5 142.12,-207.5 273.38,-207.5 273.38,-207.5 142.12,-207.5"/>
<polygon fill="none" stroke="#666666" points="132.38,-121.75 132.38,-243 273.38,-243 273.38,-121.75 132.38,-121.75"/>
</a>
</g>
</g>
<!-- Node2&#45;&gt;Node3 -->
<g id="edge4_Node000003_Node000002" class="edge">
<title>Node2&#45;&gt;Node3</title>
<g id="a_edge4_Node000003_Node000002"><a xlink:title=" ">
<path fill="none" stroke="#63b8ff" d="M129.14,-297.81C135.7,-285.24 142.51,-272.76 149.38,-261 150.73,-258.68 152.13,-256.34 153.56,-253.99"/>
<polygon fill="none" stroke="#63b8ff" points="153.62,-253.9 153.43,-246.69 160.01,-243.73 160.2,-250.94 153.62,-253.9"/>
</a>
</g>
<text xml:space="preserve" text-anchor="start" x="152.38" y="-267" font-family="Helvetica,sans-Serif" font-size="10.00" fill="grey">&#45;Settings</text>
</g>
<!-- Node3&#45;&gt;Node1 -->
<g id="edge2_Node000001_Node000003" class="edge">
<title>Node3&#45;&gt;Node1</title>
<g id="a_edge2_Node000001_Node000003"><a xlink:title=" ">
<path fill="none" stroke="#63b8ff" d="M151.59,-122.06C138.27,-106.66 124.22,-90.41 111.88,-76.14"/>
<polygon fill="none" stroke="#63b8ff" points="112.08,-76.37 105.13,-74.45 104.23,-67.29 111.18,-69.21 112.08,-76.37"/>
</a>
</g>
<text xml:space="preserve" text-anchor="start" x="138.57" y="-91" font-family="Helvetica,sans-Serif" font-size="10.00" fill="grey">+Profile</text>
</g>
<!-- Node4 -->
<g id="Node000004" class="node">
<title>Node4</title>
<g id="a_Node000004"><a xlink:title=" ">
<polygon fill="white" stroke="none" points="226.38,-444.12 179.38,-444.12 179.38,-389.88 226.38,-389.88 226.38,-444.12"/>
<text xml:space="preserve" text-anchor="start" x="183.38" y="-430.38" font-family="Helvetica,sans-Serif" font-size="10.00">UObject</text>
<text xml:space="preserve" text-anchor="start" x="199.88" y="-413.62" font-family="Helvetica,sans-Serif" font-size="10.00"> </text>
<text xml:space="preserve" text-anchor="start" x="199.88" y="-396.88" font-family="Helvetica,sans-Serif" font-size="10.00"> </text>
<polygon fill="#666666" stroke="#666666" points="179.38,-425.38 179.38,-425.38 226.38,-425.38 226.38,-425.38 179.38,-425.38"/>
<polygon fill="#666666" stroke="#666666" points="179.38,-408.62 179.38,-408.62 226.38,-408.62 226.38,-408.62 179.38,-408.62"/>
<polygon fill="none" stroke="#666666" points="179.38,-389.88 179.38,-444.12 226.38,-444.12 226.38,-389.88 179.38,-389.88"/>
</a>
</g>
</g>
<!-- Node4&#45;&gt;Node3 -->
<g id="edge3_Node000003_Node000004" class="edge">
<title>Node4&#45;&gt;Node3</title>
<g id="a_edge3_Node000003_Node000004"><a xlink:title=" ">
<path fill="none" stroke="#63b8ff" d="M202.88,-379.06C202.88,-342.39 202.88,-285.6 202.88,-242.62"/>
<polygon fill="none" stroke="#63b8ff" points="199.38,-378.7 202.88,-388.7 206.38,-378.7 199.38,-378.7"/>
</a>
</g>
</g>
</g>
</svg>
