<?xml version="1.0" encoding="UTF-8" standalone="no"?>
<!DOCTYPE svg PUBLIC "-//W3C//DTD SVG 1.1//EN"
 "http://www.w3.org/Graphics/SVG/1.1/DTD/svg11.dtd">
<!-- Generated by graphviz version 14.1.4 (0)
 -->
<!-- Title: FTextureSource::CopyTornOff Pages: 1 -->
<svg width="340pt" height="60pt"
 viewBox="0.00 0.00 340.00 60.00" xmlns="http://www.w3.org/2000/svg" xmlns:xlink="http://www.w3.org/1999/xlink">
<g id="graph0" class="graph" transform="scale(1 1) rotate(0) translate(4 55.5)">
<title>FTextureSource::CopyTornOff</title>
<!-- Node1 -->
<g id="Node000001" class="node">
<title>Node1</title>
<g id="a_Node000001"><a xlink:title=" ">
<polygon fill="#999999" stroke="#666666" points="157,-27.12 0,-27.12 0,-6.38 157,-6.38 157,-27.12"/>
<text xml:space="preserve" text-anchor="middle" x="78.5" y="-13.62" font-family="Helvetica,sans-Serif" font-size="10.00">FTextureSource::CopyTornOff</text>
</a>
</g>
</g>
<!-- Node2 -->
<g id="Node000002" class="node">
<title>Node2</title>
<g id="a_Node000002"><a xlink:href="structFTextureSource.html#a9f01446a8e2f636c48c1a977279d62a4" target="_top" xlink:title=" ">
<polygon fill="white" stroke="#666666" points="332,-33.5 193,-33.5 193,0 332,0 332,-33.5"/>
<text xml:space="preserve" text-anchor="start" x="201" y="-20" font-family="Helvetica,sans-Serif" font-size="10.00">FTextureSource::FTexture</text>
<text xml:space="preserve" text-anchor="middle" x="262.5" y="-7.25" font-family="Helvetica,sans-Serif" font-size="10.00">Source</text>
</a>
</g>
</g>
<!-- Node1&#45;&gt;Node2 -->
<g id="edge1_Node000001_Node000002" class="edge">
<title>Node1&#45;&gt;Node2</title>
<g id="a_edge1_Node000001_Node000002"><a xlink:title=" ">
<path fill="none" stroke="#63b8ff" d="M157.48,-16.75C165.32,-16.75 173.3,-16.75 181.16,-16.75"/>
<polygon fill="#63b8ff" stroke="#63b8ff" points="181.07,-20.25 191.07,-16.75 181.07,-13.25 181.07,-20.25"/>
</a>
</g>
</g>
<!-- Node2&#45;&gt;Node2 -->
<g id="edge2_Node000002_Node000002" class="edge">
<title>Node2&#45;&gt;Node2</title>
<g id="a_edge2_Node000002_Node000002"><a xlink:title=" ">
<path fill="none" stroke="#63b8ff" d="M229.42,-33.91C223.8,-43.12 234.83,-51.5 262.5,-51.5 278.07,-51.5 288.36,-48.85 293.4,-44.89"/>
<polygon fill="#63b8ff" stroke="#63b8ff" points="296.76,-45.89 295.28,-35.4 289.9,-44.52 296.76,-45.89"/>
</a>
</g>
</g>
</g>
</svg>
