<?xml version="1.0" encoding="UTF-8" standalone="no"?>
<!DOCTYPE svg PUBLIC "-//W3C//DTD SVG 1.1//EN"
 "http://www.w3.org/Graphics/SVG/1.1/DTD/svg11.dtd">
<!-- Generated by graphviz version 14.1.4 (0)
 -->
<!-- Title: FNamedTransform Pages: 1 -->
<svg width="107pt" height="79pt"
 viewBox="0.00 0.00 107.00 79.00" xmlns="http://www.w3.org/2000/svg" xmlns:xlink="http://www.w3.org/1999/xlink">
<g id="graph0" class="graph" transform="scale(1 1) rotate(0) translate(4 75)">
<title>FNamedTransform</title>
<!-- Node1 -->
<g id="Node000001" class="node">
<title>Node1</title>
<g id="a_Node000001"><a xlink:title=" ">
<polygon fill="#999999" stroke="none" points="98.75,-71 0,-71 0,0 98.75,0 98.75,-71"/>
<text xml:space="preserve" text-anchor="start" x="4" y="-57.25" font-family="Helvetica,sans-Serif" font-size="10.00">FNamedTransform</text>
<text xml:space="preserve" text-anchor="start" x="16.31" y="-40.5" font-family="Helvetica,sans-Serif" font-size="10.00">+</text>
<text xml:space="preserve" text-anchor="start" x="40.88" y="-40.5" font-family="Helvetica,sans-Serif" font-size="10.00">Value</text>
<text xml:space="preserve" text-anchor="start" x="16.31" y="-23.75" font-family="Helvetica,sans-Serif" font-size="10.00">+</text>
<text xml:space="preserve" text-anchor="start" x="40.88" y="-23.75" font-family="Helvetica,sans-Serif" font-size="10.00">Name</text>
<text xml:space="preserve" text-anchor="start" x="46.38" y="-7" font-family="Helvetica,sans-Serif" font-size="10.00"> </text>
<polygon fill="#666666" stroke="#666666" points="0,-52.25 0,-52.25 98.75,-52.25 98.75,-52.25 0,-52.25"/>
<polygon fill="#666666" stroke="#666666" points="0,-18.75 0,-18.75 38.88,-18.75 38.88,-18.75 0,-18.75"/>
<polygon fill="#666666" stroke="#666666" points="38.88,-18.75 38.88,-18.75 98.75,-18.75 98.75,-18.75 38.88,-18.75"/>
<polygon fill="none" stroke="#666666" points="0,0 0,-71 98.75,-71 98.75,0 0,0"/>
</a>
</g>
</g>
</g>
</svg>
