<?xml version="1.0" encoding="UTF-8" standalone="no"?>
<!DOCTYPE svg PUBLIC "-//W3C//DTD SVG 1.1//EN"
 "http://www.w3.org/Graphics/SVG/1.1/DTD/svg11.dtd">
<!-- Generated by graphviz version 14.1.4 (0)
 -->
<!-- Title: FKSkinnedLevelSetElem::operator= Pages: 1 -->
<svg width="683pt" height="65pt"
 viewBox="0.00 0.00 683.00 65.00" xmlns="http://www.w3.org/2000/svg" xmlns:xlink="http://www.w3.org/1999/xlink">
<g id="graph0" class="graph" transform="scale(1 1) rotate(0) translate(4 60.5)">
<title>FKSkinnedLevelSetElem::operator=</title>
<!-- Node1 -->
<g id="Node000001" class="node">
<title>Node1</title>
<g id="a_Node000001"><a xlink:title=" ">
<polygon fill="#999999" stroke="#666666" points="134.5,-33.5 0,-33.5 0,0 134.5,0 134.5,-33.5"/>
<text xml:space="preserve" text-anchor="start" x="8" y="-20" font-family="Helvetica,sans-Serif" font-size="10.00">FKSkinnedLevelSetElem</text>
<text xml:space="preserve" text-anchor="middle" x="67.25" y="-7.25" font-family="Helvetica,sans-Serif" font-size="10.00">::operator=</text>
</a>
</g>
</g>
<!-- Node2 -->
<g id="Node000002" class="node">
<title>Node2</title>
<g id="a_Node000002"><a xlink:href="structFKSkinnedLevelSetElem.html#ae91e4c389b215cae3ef28f2132cca080" target="_top" xlink:title=" ">
<polygon fill="white" stroke="#666666" points="305,-56.5 170.5,-56.5 170.5,-23 305,-23 305,-56.5"/>
<text xml:space="preserve" text-anchor="start" x="178.5" y="-43" font-family="Helvetica,sans-Serif" font-size="10.00">FKSkinnedLevelSetElem</text>
<text xml:space="preserve" text-anchor="middle" x="237.75" y="-30.25" font-family="Helvetica,sans-Serif" font-size="10.00">::CloneElem</text>
</a>
</g>
</g>
<!-- Node1&#45;&gt;Node2 -->
<g id="edge1_Node000001_Node000002" class="edge">
<title>Node1&#45;&gt;Node2</title>
<g id="a_edge1_Node000001_Node000002"><a xlink:title=" ">
<path fill="none" stroke="#63b8ff" d="M134.85,-25.84C142.72,-26.92 150.82,-28.02 158.83,-29.11"/>
<polygon fill="#63b8ff" stroke="#63b8ff" points="158.21,-32.56 168.59,-30.45 159.15,-25.63 158.21,-32.56"/>
</a>
</g>
</g>
<!-- Node3 -->
<g id="Node000003" class="node">
<title>Node3</title>
<g id="a_Node000003"><a xlink:href="structFKSkinnedLevelSetElem.html#aa975dae9f2a0c740dacdb21d2c2f0e01" target="_top" xlink:title=" ">
<polygon fill="white" stroke="#666666" points="481.5,-33.5 341,-33.5 341,0 481.5,0 481.5,-33.5"/>
<text xml:space="preserve" text-anchor="start" x="349" y="-20" font-family="Helvetica,sans-Serif" font-size="10.00">FKSkinnedLevelSetElem</text>
<text xml:space="preserve" text-anchor="middle" x="411.25" y="-7.25" font-family="Helvetica,sans-Serif" font-size="10.00">::FKSkinnedLevelSetElem</text>
</a>
</g>
</g>
<!-- Node1&#45;&gt;Node3 -->
<g id="edge6_Node000001_Node000003" class="edge">
<title>Node1&#45;&gt;Node3</title>
<g id="a_edge6_Node000001_Node000003"><a xlink:title=" ">
<path fill="none" stroke="#63b8ff" d="M134.8,-14.51C146.68,-14.2 158.96,-13.92 170.5,-13.75 230.27,-12.87 245.23,-12.9 305,-13.75 312.83,-13.86 320.98,-14.02 329.13,-14.21"/>
<polygon fill="#63b8ff" stroke="#63b8ff" points="329.02,-17.7 339.11,-14.45 329.2,-10.71 329.02,-17.7"/>
</a>
</g>
</g>
<!-- Node2&#45;&gt;Node3 -->
<g id="edge2_Node000002_Node000003" class="edge">
<title>Node2&#45;&gt;Node3</title>
<g id="a_edge2_Node000002_Node000003"><a xlink:title=" ">
<path fill="none" stroke="#63b8ff" d="M305.06,-30.86C313.09,-29.78 321.37,-28.67 329.58,-27.57"/>
<polygon fill="#63b8ff" stroke="#63b8ff" points="329.77,-31.07 339.21,-26.28 328.84,-24.14 329.77,-31.07"/>
</a>
</g>
</g>
<!-- Node3&#45;&gt;Node3 -->
<g id="edge5_Node000003_Node000003" class="edge">
<title>Node3&#45;&gt;Node3</title>
<g id="a_edge5_Node000003_Node000003"><a xlink:title=" ">
<path fill="none" stroke="#63b8ff" d="M380.06,-33.91C374.76,-43.12 385.16,-51.5 411.25,-51.5 425.93,-51.5 435.64,-48.85 440.38,-44.89"/>
<polygon fill="#63b8ff" stroke="#63b8ff" points="443.76,-45.88 442.16,-35.4 436.88,-44.59 443.76,-45.88"/>
</a>
</g>
</g>
<!-- Node4 -->
<g id="Node000004" class="node">
<title>Node4</title>
<g id="a_Node000004"><a xlink:href="structFKShapeElem.html#aa01ee11d08e99d540ea8fd2a0e075250" target="_top" xlink:title=" ">
<polygon fill="white" stroke="#666666" points="674.5,-27.12 517.5,-27.12 517.5,-6.38 674.5,-6.38 674.5,-27.12"/>
<text xml:space="preserve" text-anchor="middle" x="596" y="-13.62" font-family="Helvetica,sans-Serif" font-size="10.00">FKShapeElem::FKShapeElem</text>
</a>
</g>
</g>
<!-- Node3&#45;&gt;Node4 -->
<g id="edge3_Node000003_Node000004" class="edge">
<title>Node3&#45;&gt;Node4</title>
<g id="a_edge3_Node000003_Node000004"><a xlink:title=" ">
<path fill="none" stroke="#63b8ff" d="M481.86,-16.75C489.68,-16.75 497.72,-16.75 505.74,-16.75"/>
<polygon fill="#63b8ff" stroke="#63b8ff" points="505.52,-20.25 515.52,-16.75 505.52,-13.25 505.52,-20.25"/>
</a>
</g>
</g>
<!-- Node4&#45;&gt;Node4 -->
<g id="edge4_Node000004_Node000004" class="edge">
<title>Node4&#45;&gt;Node4</title>
<g id="a_edge4_Node000004_Node000004"><a xlink:title=" ">
<path fill="none" stroke="#63b8ff" d="M566.23,-27.52C554.32,-36.18 564.25,-45.12 596,-45.12 613.37,-45.12 624.2,-42.45 628.51,-38.61"/>
<polygon fill="#63b8ff" stroke="#63b8ff" points="631.93,-37.86 626.13,-28.99 625.13,-39.54 631.93,-37.86"/>
</a>
</g>
</g>
</g>
</svg>
