<?xml version="1.0" encoding="UTF-8" standalone="no"?>
<!DOCTYPE svg PUBLIC "-//W3C//DTD SVG 1.1//EN"
 "http://www.w3.org/Graphics/SVG/1.1/DTD/svg11.dtd">
<!-- Generated by graphviz version 14.1.4 (0)
 -->
<!-- Title: FSoundSourceBusSendInfo Pages: 1 -->
<svg width="410pt" height="1636pt"
 viewBox="0.00 0.00 410.00 1636.00" xmlns="http://www.w3.org/2000/svg" xmlns:xlink="http://www.w3.org/1999/xlink">
<g id="graph0" class="graph" transform="scale(1 1) rotate(0) translate(4 1631.75)">
<title>FSoundSourceBusSendInfo</title>
<!-- Node1 -->
<g id="Node000001" class="node">
<title>Node1</title>
<g id="a_Node000001"><a xlink:title=" ">
<polygon fill="#999999" stroke="none" points="169.5,-184.25 12,-184.25 12,0 169.5,0 169.5,-184.25"/>
<text xml:space="preserve" text-anchor="start" x="25.88" y="-170.5" font-family="Helvetica,sans-Serif" font-size="10.00">FSoundSourceBusSendInfo</text>
<text xml:space="preserve" text-anchor="start" x="16" y="-153.75" font-family="Helvetica,sans-Serif" font-size="10.00">+</text>
<text xml:space="preserve" text-anchor="start" x="28.25" y="-153.75" font-family="Helvetica,sans-Serif" font-size="10.00">SourceBusSendLevelControl</text>
<text xml:space="preserve" text-anchor="start" x="28.25" y="-141" font-family="Helvetica,sans-Serif" font-size="10.00">Method</text>
<text xml:space="preserve" text-anchor="start" x="16" y="-124.25" font-family="Helvetica,sans-Serif" font-size="10.00">+</text>
<text xml:space="preserve" text-anchor="start" x="28.25" y="-124.25" font-family="Helvetica,sans-Serif" font-size="10.00">SoundSourceBus</text>
<text xml:space="preserve" text-anchor="start" x="16" y="-107.5" font-family="Helvetica,sans-Serif" font-size="10.00">+</text>
<text xml:space="preserve" text-anchor="start" x="28.25" y="-107.5" font-family="Helvetica,sans-Serif" font-size="10.00">AudioBus</text>
<text xml:space="preserve" text-anchor="start" x="16" y="-90.75" font-family="Helvetica,sans-Serif" font-size="10.00">+</text>
<text xml:space="preserve" text-anchor="start" x="28.25" y="-90.75" font-family="Helvetica,sans-Serif" font-size="10.00">SendLevel</text>
<text xml:space="preserve" text-anchor="start" x="16" y="-74" font-family="Helvetica,sans-Serif" font-size="10.00">+</text>
<text xml:space="preserve" text-anchor="start" x="28.25" y="-74" font-family="Helvetica,sans-Serif" font-size="10.00">MinSendLevel</text>
<text xml:space="preserve" text-anchor="start" x="16" y="-57.25" font-family="Helvetica,sans-Serif" font-size="10.00">+</text>
<text xml:space="preserve" text-anchor="start" x="28.25" y="-57.25" font-family="Helvetica,sans-Serif" font-size="10.00">MaxSendLevel</text>
<text xml:space="preserve" text-anchor="start" x="16" y="-40.5" font-family="Helvetica,sans-Serif" font-size="10.00">+</text>
<text xml:space="preserve" text-anchor="start" x="28.25" y="-40.5" font-family="Helvetica,sans-Serif" font-size="10.00">MinSendDistance</text>
<text xml:space="preserve" text-anchor="start" x="16" y="-23.75" font-family="Helvetica,sans-Serif" font-size="10.00">+</text>
<text xml:space="preserve" text-anchor="start" x="28.25" y="-23.75" font-family="Helvetica,sans-Serif" font-size="10.00">MaxSendDistance</text>
<text xml:space="preserve" text-anchor="start" x="16" y="-7" font-family="Helvetica,sans-Serif" font-size="10.00">+</text>
<text xml:space="preserve" text-anchor="start" x="28.25" y="-7" font-family="Helvetica,sans-Serif" font-size="10.00">FSoundSourceBusSendInfo()</text>
<polygon fill="#666666" stroke="#666666" points="12,-165.5 12,-165.5 169.5,-165.5 169.5,-165.5 12,-165.5"/>
<polygon fill="#666666" stroke="#666666" points="12,-18.75 12,-18.75 26.25,-18.75 26.25,-18.75 12,-18.75"/>
<polygon fill="#666666" stroke="#666666" points="26.25,-18.75 26.25,-18.75 169.5,-18.75 169.5,-18.75 26.25,-18.75"/>
<polygon fill="none" stroke="#666666" points="12,0 12,-184.25 169.5,-184.25 169.5,0 12,0"/>
</a>
</g>
</g>
<!-- Node2 -->
<g id="Node000002" class="node">
<title>Node2</title>
<g id="a_Node000002"><a xlink:href="structFRuntimeFloatCurve.html" target="_top" xlink:title=" ">
<polygon fill="white" stroke="none" points="154.88,-326.75 26.62,-326.75 26.62,-239 154.88,-239 154.88,-326.75"/>
<text xml:space="preserve" text-anchor="start" x="40.5" y="-313" font-family="Helvetica,sans-Serif" font-size="10.00">FRuntimeFloatCurve</text>
<text xml:space="preserve" text-anchor="start" x="30.62" y="-296.25" font-family="Helvetica,sans-Serif" font-size="10.00">+</text>
<text xml:space="preserve" text-anchor="start" x="42.88" y="-296.25" font-family="Helvetica,sans-Serif" font-size="10.00">ExternalCurve</text>
<text xml:space="preserve" text-anchor="start" x="30.62" y="-279.5" font-family="Helvetica,sans-Serif" font-size="10.00">+</text>
<text xml:space="preserve" text-anchor="start" x="42.88" y="-279.5" font-family="Helvetica,sans-Serif" font-size="10.00">FRuntimeFloatCurve()</text>
<text xml:space="preserve" text-anchor="start" x="30.62" y="-262.75" font-family="Helvetica,sans-Serif" font-size="10.00">+</text>
<text xml:space="preserve" text-anchor="start" x="42.88" y="-262.75" font-family="Helvetica,sans-Serif" font-size="10.00">GetRichCurve()</text>
<text xml:space="preserve" text-anchor="start" x="30.62" y="-246" font-family="Helvetica,sans-Serif" font-size="10.00">+</text>
<text xml:space="preserve" text-anchor="start" x="42.88" y="-246" font-family="Helvetica,sans-Serif" font-size="10.00">GetRichCurveConst()</text>
<polygon fill="#666666" stroke="#666666" points="26.62,-308 26.62,-308 154.88,-308 154.88,-308 26.62,-308"/>
<polygon fill="#666666" stroke="#666666" points="26.62,-291.25 26.62,-291.25 40.88,-291.25 40.88,-291.25 26.62,-291.25"/>
<polygon fill="#666666" stroke="#666666" points="40.88,-291.25 40.88,-291.25 154.88,-291.25 154.88,-291.25 40.88,-291.25"/>
<polygon fill="none" stroke="#666666" points="26.62,-239 26.62,-326.75 154.88,-326.75 154.88,-239 26.62,-239"/>
</a>
</g>
</g>
<!-- Node2&#45;&gt;Node1 -->
<g id="edge1_Node000001_Node000002" class="edge">
<title>Node2&#45;&gt;Node1</title>
<g id="a_edge1_Node000001_Node000002"><a xlink:title=" ">
<path fill="none" stroke="#63b8ff" d="M90.75,-239.04C90.75,-226.21 90.75,-211.55 90.75,-196.58"/>
<polygon fill="none" stroke="#63b8ff" points="90.75,-196.86 86.75,-190.86 90.75,-184.86 94.75,-190.86 90.75,-196.86"/>
</a>
</g>
<text xml:space="preserve" text-anchor="start" x="93.75" y="-208.25" font-family="Helvetica,sans-Serif" font-size="10.00" fill="grey">+CustomSendLevelCurve</text>
</g>
<!-- Node3 -->
<g id="Node000003" class="node">
<title>Node3</title>
<g id="a_Node000003"><a xlink:href="structFRichCurve.html" target="_top" xlink:title=" ">
<polygon fill="white" stroke="none" points="181.5,-636.75 0,-636.75 0,-381.5 181.5,-381.5 181.5,-636.75"/>
<text xml:space="preserve" text-anchor="start" x="63" y="-623" font-family="Helvetica,sans-Serif" font-size="10.00">FRichCurve</text>
<text xml:space="preserve" text-anchor="start" x="4" y="-606.25" font-family="Helvetica,sans-Serif" font-size="10.00">+</text>
<text xml:space="preserve" text-anchor="start" x="16.25" y="-606.25" font-family="Helvetica,sans-Serif" font-size="10.00">Keys</text>
<text xml:space="preserve" text-anchor="start" x="4" y="-589.5" font-family="Helvetica,sans-Serif" font-size="10.00">+</text>
<text xml:space="preserve" text-anchor="start" x="16.25" y="-589.5" font-family="Helvetica,sans-Serif" font-size="10.00">GetCopyOfKeys()</text>
<text xml:space="preserve" text-anchor="start" x="4" y="-572.75" font-family="Helvetica,sans-Serif" font-size="10.00">+</text>
<text xml:space="preserve" text-anchor="start" x="16.25" y="-572.75" font-family="Helvetica,sans-Serif" font-size="10.00">GetConstRefOfKeys()</text>
<text xml:space="preserve" text-anchor="start" x="4" y="-556" font-family="Helvetica,sans-Serif" font-size="10.00">+</text>
<text xml:space="preserve" text-anchor="start" x="16.25" y="-556" font-family="Helvetica,sans-Serif" font-size="10.00">GetKeyIterator()</text>
<text xml:space="preserve" text-anchor="start" x="4" y="-539.25" font-family="Helvetica,sans-Serif" font-size="10.00">+</text>
<text xml:space="preserve" text-anchor="start" x="16.25" y="-539.25" font-family="Helvetica,sans-Serif" font-size="10.00">GetKey()</text>
<text xml:space="preserve" text-anchor="start" x="4" y="-522.5" font-family="Helvetica,sans-Serif" font-size="10.00">+</text>
<text xml:space="preserve" text-anchor="start" x="16.25" y="-522.5" font-family="Helvetica,sans-Serif" font-size="10.00">GetKey()</text>
<text xml:space="preserve" text-anchor="start" x="4" y="-505.75" font-family="Helvetica,sans-Serif" font-size="10.00">+</text>
<text xml:space="preserve" text-anchor="start" x="16.25" y="-505.75" font-family="Helvetica,sans-Serif" font-size="10.00">GetKeyRef()</text>
<text xml:space="preserve" text-anchor="start" x="4" y="-489" font-family="Helvetica,sans-Serif" font-size="10.00">+</text>
<text xml:space="preserve" text-anchor="start" x="16.25" y="-489" font-family="Helvetica,sans-Serif" font-size="10.00">GetFirstKey()</text>
<text xml:space="preserve" text-anchor="start" x="4" y="-472.25" font-family="Helvetica,sans-Serif" font-size="10.00">+</text>
<text xml:space="preserve" text-anchor="start" x="16.25" y="-472.25" font-family="Helvetica,sans-Serif" font-size="10.00">GetLastKey()</text>
<text xml:space="preserve" text-anchor="start" x="4" y="-455.5" font-family="Helvetica,sans-Serif" font-size="10.00">+</text>
<text xml:space="preserve" text-anchor="start" x="16.25" y="-455.5" font-family="Helvetica,sans-Serif" font-size="10.00">GetFirstMatchingKey()</text>
<text xml:space="preserve" text-anchor="start" x="4" y="-438.75" font-family="Helvetica,sans-Serif" font-size="10.00">+</text>
<text xml:space="preserve" text-anchor="start" x="16.25" y="-438.75" font-family="Helvetica,sans-Serif" font-size="10.00">AddKey()</text>
<text xml:space="preserve" text-anchor="start" x="16.25" y="-422" font-family="Helvetica,sans-Serif" font-size="10.00">and 35 more...</text>
<text xml:space="preserve" text-anchor="start" x="6.25" y="-405.25" font-family="Helvetica,sans-Serif" font-size="10.00">&#45;</text>
<text xml:space="preserve" text-anchor="start" x="16.25" y="-405.25" font-family="Helvetica,sans-Serif" font-size="10.00">RemoveRedundantKeysInternal()</text>
<text xml:space="preserve" text-anchor="start" x="6.25" y="-388.5" font-family="Helvetica,sans-Serif" font-size="10.00">&#45;</text>
<text xml:space="preserve" text-anchor="start" x="16.25" y="-388.5" font-family="Helvetica,sans-Serif" font-size="10.00">GetKeyIndex()</text>
<polygon fill="#666666" stroke="#666666" points="0,-618 0,-618 181.5,-618 181.5,-618 0,-618"/>
<polygon fill="#666666" stroke="#666666" points="0,-601.25 0,-601.25 14.25,-601.25 14.25,-601.25 0,-601.25"/>
<polygon fill="#666666" stroke="#666666" points="14.25,-601.25 14.25,-601.25 181.5,-601.25 181.5,-601.25 14.25,-601.25"/>
<polygon fill="none" stroke="#666666" points="0,-381.5 0,-636.75 181.5,-636.75 181.5,-381.5 0,-381.5"/>
</a>
</g>
</g>
<!-- Node3&#45;&gt;Node2 -->
<g id="edge2_Node000002_Node000003" class="edge">
<title>Node3&#45;&gt;Node2</title>
<g id="a_edge2_Node000002_Node000003"><a xlink:title=" ">
<path fill="none" stroke="#63b8ff" d="M90.75,-381.58C90.75,-366.83 90.75,-352.43 90.75,-339.4"/>
<polygon fill="none" stroke="#63b8ff" points="90.75,-339.27 86.75,-333.27 90.75,-327.27 94.75,-333.27 90.75,-339.27"/>
</a>
</g>
<text xml:space="preserve" text-anchor="start" x="93.75" y="-350.75" font-family="Helvetica,sans-Serif" font-size="10.00" fill="grey">+EditorCurveData</text>
</g>
<!-- Node4 -->
<g id="Node000004" class="node">
<title>Node4</title>
<g id="a_Node000004"><a xlink:href="structFRealCurve.html" target="_top" xlink:title=" ">
<polygon fill="white" stroke="none" points="153.75,-929 27.75,-929 27.75,-673.75 153.75,-673.75 153.75,-929"/>
<text xml:space="preserve" text-anchor="start" x="62.62" y="-915.25" font-family="Helvetica,sans-Serif" font-size="10.00">FRealCurve</text>
<text xml:space="preserve" text-anchor="start" x="31.75" y="-898.5" font-family="Helvetica,sans-Serif" font-size="10.00">+</text>
<text xml:space="preserve" text-anchor="start" x="44" y="-898.5" font-family="Helvetica,sans-Serif" font-size="10.00">GetKeyTimeValuePair</text>
<text xml:space="preserve" text-anchor="start" x="31.75" y="-881.75" font-family="Helvetica,sans-Serif" font-size="10.00">+</text>
<text xml:space="preserve" text-anchor="start" x="44" y="-881.75" font-family="Helvetica,sans-Serif" font-size="10.00">GetKeyInterpMode</text>
<text xml:space="preserve" text-anchor="start" x="31.75" y="-865" font-family="Helvetica,sans-Serif" font-size="10.00">+</text>
<text xml:space="preserve" text-anchor="start" x="44" y="-865" font-family="Helvetica,sans-Serif" font-size="10.00">DefaultValue</text>
<text xml:space="preserve" text-anchor="start" x="31.75" y="-848.25" font-family="Helvetica,sans-Serif" font-size="10.00">+</text>
<text xml:space="preserve" text-anchor="start" x="44" y="-848.25" font-family="Helvetica,sans-Serif" font-size="10.00">PreInfinityExtrap</text>
<text xml:space="preserve" text-anchor="start" x="31.75" y="-831.5" font-family="Helvetica,sans-Serif" font-size="10.00">+</text>
<text xml:space="preserve" text-anchor="start" x="44" y="-831.5" font-family="Helvetica,sans-Serif" font-size="10.00">PostInfinityExtrap</text>
<text xml:space="preserve" text-anchor="start" x="31.75" y="-814.75" font-family="Helvetica,sans-Serif" font-size="10.00">#</text>
<text xml:space="preserve" text-anchor="start" x="44" y="-814.75" font-family="Helvetica,sans-Serif" font-size="10.00">GetKeyIndex</text>
<text xml:space="preserve" text-anchor="start" x="31.75" y="-798" font-family="Helvetica,sans-Serif" font-size="10.00">+</text>
<text xml:space="preserve" text-anchor="start" x="44" y="-798" font-family="Helvetica,sans-Serif" font-size="10.00">FRealCurve()</text>
<text xml:space="preserve" text-anchor="start" x="31.75" y="-781.25" font-family="Helvetica,sans-Serif" font-size="10.00">+</text>
<text xml:space="preserve" text-anchor="start" x="44" y="-781.25" font-family="Helvetica,sans-Serif" font-size="10.00">HasAnyData()</text>
<text xml:space="preserve" text-anchor="start" x="31.75" y="-764.5" font-family="Helvetica,sans-Serif" font-size="10.00">+</text>
<text xml:space="preserve" text-anchor="start" x="44" y="-764.5" font-family="Helvetica,sans-Serif" font-size="10.00">FindKey()</text>
<text xml:space="preserve" text-anchor="start" x="31.75" y="-747.75" font-family="Helvetica,sans-Serif" font-size="10.00">+</text>
<text xml:space="preserve" text-anchor="start" x="44" y="-747.75" font-family="Helvetica,sans-Serif" font-size="10.00">KeyExistsAtTime()</text>
<text xml:space="preserve" text-anchor="start" x="31.75" y="-731" font-family="Helvetica,sans-Serif" font-size="10.00">+</text>
<text xml:space="preserve" text-anchor="start" x="44" y="-731" font-family="Helvetica,sans-Serif" font-size="10.00">SetDefaultValue()</text>
<text xml:space="preserve" text-anchor="start" x="31.75" y="-714.25" font-family="Helvetica,sans-Serif" font-size="10.00">+</text>
<text xml:space="preserve" text-anchor="start" x="44" y="-714.25" font-family="Helvetica,sans-Serif" font-size="10.00">GetDefaultValue()</text>
<text xml:space="preserve" text-anchor="start" x="31.75" y="-697.5" font-family="Helvetica,sans-Serif" font-size="10.00">+</text>
<text xml:space="preserve" text-anchor="start" x="44" y="-697.5" font-family="Helvetica,sans-Serif" font-size="10.00">ClearDefaultValue()</text>
<text xml:space="preserve" text-anchor="start" x="31.75" y="-680.75" font-family="Helvetica,sans-Serif" font-size="10.00">#</text>
<text xml:space="preserve" text-anchor="start" x="44" y="-680.75" font-family="Helvetica,sans-Serif" font-size="10.00">CycleTime()</text>
<polygon fill="#666666" stroke="#666666" points="27.75,-910.25 27.75,-910.25 153.75,-910.25 153.75,-910.25 27.75,-910.25"/>
<polygon fill="#666666" stroke="#666666" points="27.75,-809.75 27.75,-809.75 42,-809.75 42,-809.75 27.75,-809.75"/>
<polygon fill="#666666" stroke="#666666" points="42,-809.75 42,-809.75 153.75,-809.75 153.75,-809.75 42,-809.75"/>
<polygon fill="none" stroke="#666666" points="27.75,-673.75 27.75,-929 153.75,-929 153.75,-673.75 27.75,-673.75"/>
</a>
</g>
</g>
<!-- Node4&#45;&gt;Node3 -->
<g id="edge3_Node000003_Node000004" class="edge">
<title>Node4&#45;&gt;Node3</title>
<g id="a_edge3_Node000003_Node000004"><a xlink:title=" ">
<path fill="none" stroke="#63b8ff" d="M90.75,-662.56C90.75,-653.9 90.75,-645.21 90.75,-636.61"/>
<polygon fill="none" stroke="#63b8ff" points="87.25,-662.4 90.75,-672.4 94.25,-662.4 87.25,-662.4"/>
</a>
</g>
</g>
<!-- Node4&#45;&gt;Node4 -->
<g id="edge9_Node000004_Node000004" class="edge">
<title>Node4&#45;&gt;Node4</title>
<g id="a_edge9_Node000004_Node000004"><a xlink:title=" ">
<path fill="none" stroke="#63b8ff" d="M153.58,-826.95C164.31,-823.46 171.75,-814.93 171.75,-801.38 171.75,-793.33 169.13,-787.05 164.75,-782.55"/>
<polygon fill="none" stroke="#63b8ff" points="164.62,-782.47 157.42,-782.79 154.35,-776.26 161.56,-775.94 164.62,-782.47"/>
</a>
</g>
<text xml:space="preserve" text-anchor="start" x="174.75" y="-798" font-family="Helvetica,sans-Serif" font-size="10.00" fill="grey">+Eval</text>
</g>
<!-- Node5 -->
<g id="Node000005" class="node">
<title>Node5</title>
<g id="a_Node000005"><a xlink:href="structFIndexedCurve.html" target="_top" xlink:title=" ">
<polygon fill="white" stroke="none" points="323.38,-1334.5 150.12,-1334.5 150.12,-966 323.38,-966 323.38,-1334.5"/>
<text xml:space="preserve" text-anchor="start" x="200" y="-1320.75" font-family="Helvetica,sans-Serif" font-size="10.00">FIndexedCurve</text>
<text xml:space="preserve" text-anchor="start" x="154.12" y="-1304" font-family="Helvetica,sans-Serif" font-size="10.00">+</text>
<text xml:space="preserve" text-anchor="start" x="166.38" y="-1304" font-family="Helvetica,sans-Serif" font-size="10.00">GetNumKeys</text>
<text xml:space="preserve" text-anchor="start" x="154.12" y="-1287.25" font-family="Helvetica,sans-Serif" font-size="10.00">+</text>
<text xml:space="preserve" text-anchor="start" x="166.38" y="-1287.25" font-family="Helvetica,sans-Serif" font-size="10.00">FIndexedCurve()</text>
<text xml:space="preserve" text-anchor="start" x="154.12" y="-1270.5" font-family="Helvetica,sans-Serif" font-size="10.00">+</text>
<text xml:space="preserve" text-anchor="start" x="166.38" y="-1270.5" font-family="Helvetica,sans-Serif" font-size="10.00">~FIndexedCurve()</text>
<text xml:space="preserve" text-anchor="start" x="154.12" y="-1253.75" font-family="Helvetica,sans-Serif" font-size="10.00">+</text>
<text xml:space="preserve" text-anchor="start" x="166.38" y="-1253.75" font-family="Helvetica,sans-Serif" font-size="10.00">GetIndexSafe()</text>
<text xml:space="preserve" text-anchor="start" x="154.12" y="-1237" font-family="Helvetica,sans-Serif" font-size="10.00">+</text>
<text xml:space="preserve" text-anchor="start" x="166.38" y="-1237" font-family="Helvetica,sans-Serif" font-size="10.00">GetKeyHandleIterator()</text>
<text xml:space="preserve" text-anchor="start" x="154.12" y="-1220.25" font-family="Helvetica,sans-Serif" font-size="10.00">+</text>
<text xml:space="preserve" text-anchor="start" x="166.38" y="-1220.25" font-family="Helvetica,sans-Serif" font-size="10.00">IsKeyHandleValid()</text>
<text xml:space="preserve" text-anchor="start" x="154.12" y="-1203.5" font-family="Helvetica,sans-Serif" font-size="10.00">+</text>
<text xml:space="preserve" text-anchor="start" x="166.38" y="-1203.5" font-family="Helvetica,sans-Serif" font-size="10.00">GetFirstKeyHandle()</text>
<text xml:space="preserve" text-anchor="start" x="154.12" y="-1186.75" font-family="Helvetica,sans-Serif" font-size="10.00">+</text>
<text xml:space="preserve" text-anchor="start" x="166.38" y="-1186.75" font-family="Helvetica,sans-Serif" font-size="10.00">GetLastKeyHandle()</text>
<text xml:space="preserve" text-anchor="start" x="154.12" y="-1170" font-family="Helvetica,sans-Serif" font-size="10.00">+</text>
<text xml:space="preserve" text-anchor="start" x="166.38" y="-1170" font-family="Helvetica,sans-Serif" font-size="10.00">GetNextKey()</text>
<text xml:space="preserve" text-anchor="start" x="154.12" y="-1153.25" font-family="Helvetica,sans-Serif" font-size="10.00">+</text>
<text xml:space="preserve" text-anchor="start" x="166.38" y="-1153.25" font-family="Helvetica,sans-Serif" font-size="10.00">GetPreviousKey()</text>
<text xml:space="preserve" text-anchor="start" x="154.12" y="-1136.5" font-family="Helvetica,sans-Serif" font-size="10.00">+</text>
<text xml:space="preserve" text-anchor="start" x="166.38" y="-1136.5" font-family="Helvetica,sans-Serif" font-size="10.00">ShiftCurve()</text>
<text xml:space="preserve" text-anchor="start" x="154.12" y="-1119.75" font-family="Helvetica,sans-Serif" font-size="10.00">+</text>
<text xml:space="preserve" text-anchor="start" x="166.38" y="-1119.75" font-family="Helvetica,sans-Serif" font-size="10.00">ShiftCurve()</text>
<text xml:space="preserve" text-anchor="start" x="154.12" y="-1103" font-family="Helvetica,sans-Serif" font-size="10.00">+</text>
<text xml:space="preserve" text-anchor="start" x="166.38" y="-1103" font-family="Helvetica,sans-Serif" font-size="10.00">ScaleCurve()</text>
<text xml:space="preserve" text-anchor="start" x="154.12" y="-1086.25" font-family="Helvetica,sans-Serif" font-size="10.00">+</text>
<text xml:space="preserve" text-anchor="start" x="166.38" y="-1086.25" font-family="Helvetica,sans-Serif" font-size="10.00">ScaleCurve()</text>
<text xml:space="preserve" text-anchor="start" x="154.12" y="-1069.5" font-family="Helvetica,sans-Serif" font-size="10.00">#</text>
<text xml:space="preserve" text-anchor="start" x="166.38" y="-1069.5" font-family="Helvetica,sans-Serif" font-size="10.00">EnsureAllIndicesHaveHandles()</text>
<text xml:space="preserve" text-anchor="start" x="154.12" y="-1052.75" font-family="Helvetica,sans-Serif" font-size="10.00">#</text>
<text xml:space="preserve" text-anchor="start" x="166.38" y="-1052.75" font-family="Helvetica,sans-Serif" font-size="10.00">EnsureIndexHasAHandle()</text>
<text xml:space="preserve" text-anchor="start" x="154.12" y="-1036" font-family="Helvetica,sans-Serif" font-size="10.00">#</text>
<text xml:space="preserve" text-anchor="start" x="166.38" y="-1036" font-family="Helvetica,sans-Serif" font-size="10.00">FindIndex()</text>
<text xml:space="preserve" text-anchor="start" x="154.12" y="-1019.25" font-family="Helvetica,sans-Serif" font-size="10.00">#</text>
<text xml:space="preserve" text-anchor="start" x="166.38" y="-1019.25" font-family="Helvetica,sans-Serif" font-size="10.00">GetIndex()</text>
<text xml:space="preserve" text-anchor="start" x="154.12" y="-1002.5" font-family="Helvetica,sans-Serif" font-size="10.00">#</text>
<text xml:space="preserve" text-anchor="start" x="166.38" y="-1002.5" font-family="Helvetica,sans-Serif" font-size="10.00">GetKeyHandle()</text>
<text xml:space="preserve" text-anchor="start" x="156.38" y="-985.75" font-family="Helvetica,sans-Serif" font-size="10.00">&#45;</text>
<text xml:space="preserve" text-anchor="start" x="166.38" y="-985.75" font-family="Helvetica,sans-Serif" font-size="10.00">EnsureAllIndicesHaveHandles</text>
<text xml:space="preserve" text-anchor="start" x="166.38" y="-973" font-family="Helvetica,sans-Serif" font-size="10.00">_Internal()</text>
<polygon fill="#666666" stroke="#666666" points="150.12,-1315.75 150.12,-1315.75 323.38,-1315.75 323.38,-1315.75 150.12,-1315.75"/>
<polygon fill="#666666" stroke="#666666" points="150.12,-1299 150.12,-1299 164.38,-1299 164.38,-1299 150.12,-1299"/>
<polygon fill="#666666" stroke="#666666" points="164.38,-1299 164.38,-1299 323.38,-1299 323.38,-1299 164.38,-1299"/>
<polygon fill="none" stroke="#666666" points="150.12,-966 150.12,-1334.5 323.38,-1334.5 323.38,-966 150.12,-966"/>
</a>
</g>
</g>
<!-- Node5&#45;&gt;Node4 -->
<g id="edge4_Node000004_Node000005" class="edge">
<title>Node5&#45;&gt;Node4</title>
<g id="a_edge4_Node000004_Node000005"><a xlink:title=" ">
<path fill="none" stroke="#63b8ff" d="M155.31,-955.76C151.44,-946.58 147.61,-937.46 143.85,-928.53"/>
<polygon fill="none" stroke="#63b8ff" points="152,-956.91 159.1,-964.77 158.45,-954.19 152,-956.91"/>
</a>
</g>
</g>
<!-- Node5&#45;&gt;Node5 -->
<g id="edge6_Node000005_Node000005" class="edge">
<title>Node5&#45;&gt;Node5</title>
<g id="a_edge6_Node000005_Node000005"><a xlink:title=" ">
<path fill="none" stroke="#63b8ff" d="M323.34,-1183.36C334.22,-1177.52 341.38,-1166.49 341.38,-1150.25 341.38,-1139.6 338.29,-1131.18 333.1,-1125"/>
<polygon fill="none" stroke="#63b8ff" points="333.39,-1125.24 326.21,-1124.59 324.05,-1117.71 331.23,-1118.36 333.39,-1125.24"/>
</a>
</g>
<text xml:space="preserve" text-anchor="start" x="344.38" y="-1146.88" font-family="Helvetica,sans-Serif" font-size="10.00" fill="grey">+Duplicate</text>
</g>
<!-- Node6 -->
<g id="Node000006" class="node">
<title>Node6</title>
<g id="a_Node000006"><a xlink:href="structFKeyHandle.html" target="_top" xlink:title=" ">
<polygon fill="white" stroke="none" points="119.25,-1585.88 26.25,-1585.88 26.25,-1431.12 119.25,-1431.12 119.25,-1585.88"/>
<text xml:space="preserve" text-anchor="start" x="43.5" y="-1572.12" font-family="Helvetica,sans-Serif" font-size="10.00">FKeyHandle</text>
<text xml:space="preserve" text-anchor="start" x="32.5" y="-1555.38" font-family="Helvetica,sans-Serif" font-size="10.00">&#45;</text>
<text xml:space="preserve" text-anchor="start" x="42.5" y="-1555.38" font-family="Helvetica,sans-Serif" font-size="10.00">Index</text>
<text xml:space="preserve" text-anchor="start" x="30.25" y="-1538.62" font-family="Helvetica,sans-Serif" font-size="10.00">+</text>
<text xml:space="preserve" text-anchor="start" x="42.5" y="-1538.62" font-family="Helvetica,sans-Serif" font-size="10.00">FKeyHandle()</text>
<text xml:space="preserve" text-anchor="start" x="30.25" y="-1521.88" font-family="Helvetica,sans-Serif" font-size="10.00">+</text>
<text xml:space="preserve" text-anchor="start" x="42.5" y="-1521.88" font-family="Helvetica,sans-Serif" font-size="10.00">IsValid()</text>
<text xml:space="preserve" text-anchor="start" x="30.25" y="-1505.12" font-family="Helvetica,sans-Serif" font-size="10.00">+</text>
<text xml:space="preserve" text-anchor="start" x="42.5" y="-1505.12" font-family="Helvetica,sans-Serif" font-size="10.00">operator bool()</text>
<text xml:space="preserve" text-anchor="start" x="30.25" y="-1488.38" font-family="Helvetica,sans-Serif" font-size="10.00">+</text>
<text xml:space="preserve" text-anchor="start" x="42.5" y="-1488.38" font-family="Helvetica,sans-Serif" font-size="10.00">operator==()</text>
<text xml:space="preserve" text-anchor="start" x="30.25" y="-1471.62" font-family="Helvetica,sans-Serif" font-size="10.00">+</text>
<text xml:space="preserve" text-anchor="start" x="42.5" y="-1471.62" font-family="Helvetica,sans-Serif" font-size="10.00">operator!=()</text>
<text xml:space="preserve" text-anchor="start" x="30.25" y="-1454.88" font-family="Helvetica,sans-Serif" font-size="10.00">+</text>
<text xml:space="preserve" text-anchor="start" x="42.5" y="-1454.88" font-family="Helvetica,sans-Serif" font-size="10.00">Invalid()</text>
<text xml:space="preserve" text-anchor="start" x="32.5" y="-1438.12" font-family="Helvetica,sans-Serif" font-size="10.00">&#45;</text>
<text xml:space="preserve" text-anchor="start" x="42.5" y="-1438.12" font-family="Helvetica,sans-Serif" font-size="10.00">FKeyHandle()</text>
<polygon fill="#666666" stroke="#666666" points="26.25,-1567.12 26.25,-1567.12 119.25,-1567.12 119.25,-1567.12 26.25,-1567.12"/>
<polygon fill="#666666" stroke="#666666" points="26.25,-1550.38 26.25,-1550.38 40.5,-1550.38 40.5,-1550.38 26.25,-1550.38"/>
<polygon fill="#666666" stroke="#666666" points="40.5,-1550.38 40.5,-1550.38 119.25,-1550.38 119.25,-1550.38 40.5,-1550.38"/>
<polygon fill="none" stroke="#666666" points="26.25,-1431.12 26.25,-1585.88 119.25,-1585.88 119.25,-1431.12 26.25,-1431.12"/>
</a>
</g>
</g>
<!-- Node6&#45;&gt;Node4 -->
<g id="edge8_Node000004_Node000006" class="edge">
<title>Node6&#45;&gt;Node4</title>
<g id="a_edge8_Node000004_Node000006"><a xlink:title=" ">
<path fill="none" stroke="#63b8ff" d="M56.88,-1431.21C51.4,-1401.21 45.95,-1366.38 43.25,-1334.5 29.44,-1171.31 20.19,-1128.15 43.25,-966 44.4,-957.93 45.85,-949.7 47.52,-941.44"/>
<polygon fill="none" stroke="#63b8ff" points="47.51,-941.51 44.87,-934.8 50.04,-929.78 52.69,-936.49 47.51,-941.51"/>
</a>
</g>
<text xml:space="preserve" text-anchor="start" x="46.25" y="-1163.62" font-family="Helvetica,sans-Serif" font-size="10.00" fill="grey">+AddKey</text>
<text xml:space="preserve" text-anchor="start" x="46.25" y="-1146.88" font-family="Helvetica,sans-Serif" font-size="10.00" fill="grey">+GetKeyValue</text>
<text xml:space="preserve" text-anchor="start" x="46.25" y="-1130.12" font-family="Helvetica,sans-Serif" font-size="10.00" fill="grey">+UpdateOrAddKey</text>
</g>
<!-- Node6&#45;&gt;Node5 -->
<g id="edge5_Node000005_Node000006" class="edge">
<title>Node6&#45;&gt;Node5</title>
<g id="a_edge5_Node000005_Node000006"><a xlink:title=" ">
<path fill="none" stroke="#63b8ff" d="M107.73,-1431.51C119.45,-1406.05 133.11,-1376.39 147.06,-1346.08"/>
<polygon fill="none" stroke="#63b8ff" points="147.03,-1346.15 145.9,-1339.03 152.04,-1335.25 153.17,-1342.38 147.03,-1346.15"/>
</a>
</g>
<text xml:space="preserve" text-anchor="start" x="143.06" y="-1358.5" font-family="Helvetica,sans-Serif" font-size="10.00" fill="grey">+GetKeyTime</text>
</g>
<!-- Node7 -->
<g id="Node000007" class="node">
<title>Node7</title>
<g id="a_Node000007"><a xlink:href="structFKeyHandleMap.html" target="_top" xlink:title=" ">
<polygon fill="white" stroke="none" points="298.25,-1627.75 175.25,-1627.75 175.25,-1389.25 298.25,-1389.25 298.25,-1627.75"/>
<text xml:space="preserve" text-anchor="start" x="197" y="-1614" font-family="Helvetica,sans-Serif" font-size="10.00">FKeyHandleMap</text>
<text xml:space="preserve" text-anchor="start" x="181.5" y="-1597.25" font-family="Helvetica,sans-Serif" font-size="10.00">&#45;</text>
<text xml:space="preserve" text-anchor="start" x="191.5" y="-1597.25" font-family="Helvetica,sans-Serif" font-size="10.00">KeyHandlesToIndices</text>
<text xml:space="preserve" text-anchor="start" x="181.5" y="-1580.5" font-family="Helvetica,sans-Serif" font-size="10.00">&#45;</text>
<text xml:space="preserve" text-anchor="start" x="191.5" y="-1580.5" font-family="Helvetica,sans-Serif" font-size="10.00">KeyHandles</text>
<text xml:space="preserve" text-anchor="start" x="179.25" y="-1563.75" font-family="Helvetica,sans-Serif" font-size="10.00">+</text>
<text xml:space="preserve" text-anchor="start" x="191.5" y="-1563.75" font-family="Helvetica,sans-Serif" font-size="10.00">FKeyHandleMap()</text>
<text xml:space="preserve" text-anchor="start" x="179.25" y="-1547" font-family="Helvetica,sans-Serif" font-size="10.00">+</text>
<text xml:space="preserve" text-anchor="start" x="191.5" y="-1547" font-family="Helvetica,sans-Serif" font-size="10.00">FKeyHandleMap()</text>
<text xml:space="preserve" text-anchor="start" x="179.25" y="-1530.25" font-family="Helvetica,sans-Serif" font-size="10.00">+</text>
<text xml:space="preserve" text-anchor="start" x="191.5" y="-1530.25" font-family="Helvetica,sans-Serif" font-size="10.00">operator=()</text>
<text xml:space="preserve" text-anchor="start" x="179.25" y="-1513.5" font-family="Helvetica,sans-Serif" font-size="10.00">+</text>
<text xml:space="preserve" text-anchor="start" x="191.5" y="-1513.5" font-family="Helvetica,sans-Serif" font-size="10.00">Initialize()</text>
<text xml:space="preserve" text-anchor="start" x="179.25" y="-1496.75" font-family="Helvetica,sans-Serif" font-size="10.00">+</text>
<text xml:space="preserve" text-anchor="start" x="191.5" y="-1496.75" font-family="Helvetica,sans-Serif" font-size="10.00">Add()</text>
<text xml:space="preserve" text-anchor="start" x="179.25" y="-1480" font-family="Helvetica,sans-Serif" font-size="10.00">+</text>
<text xml:space="preserve" text-anchor="start" x="191.5" y="-1480" font-family="Helvetica,sans-Serif" font-size="10.00">Empty()</text>
<text xml:space="preserve" text-anchor="start" x="179.25" y="-1463.25" font-family="Helvetica,sans-Serif" font-size="10.00">+</text>
<text xml:space="preserve" text-anchor="start" x="191.5" y="-1463.25" font-family="Helvetica,sans-Serif" font-size="10.00">Remove()</text>
<text xml:space="preserve" text-anchor="start" x="179.25" y="-1446.5" font-family="Helvetica,sans-Serif" font-size="10.00">+</text>
<text xml:space="preserve" text-anchor="start" x="191.5" y="-1446.5" font-family="Helvetica,sans-Serif" font-size="10.00">Reserve()</text>
<text xml:space="preserve" text-anchor="start" x="179.25" y="-1429.75" font-family="Helvetica,sans-Serif" font-size="10.00">+</text>
<text xml:space="preserve" text-anchor="start" x="191.5" y="-1429.75" font-family="Helvetica,sans-Serif" font-size="10.00">Find()</text>
<text xml:space="preserve" text-anchor="start" x="179.25" y="-1413" font-family="Helvetica,sans-Serif" font-size="10.00">+</text>
<text xml:space="preserve" text-anchor="start" x="191.5" y="-1413" font-family="Helvetica,sans-Serif" font-size="10.00">FindKey()</text>
<text xml:space="preserve" text-anchor="start" x="191.5" y="-1396.25" font-family="Helvetica,sans-Serif" font-size="10.00">and 9 more...</text>
<polygon fill="#666666" stroke="#666666" points="175.25,-1609 175.25,-1609 298.25,-1609 298.25,-1609 175.25,-1609"/>
<polygon fill="#666666" stroke="#666666" points="175.25,-1575.5 175.25,-1575.5 189.5,-1575.5 189.5,-1575.5 175.25,-1575.5"/>
<polygon fill="#666666" stroke="#666666" points="189.5,-1575.5 189.5,-1575.5 298.25,-1575.5 298.25,-1575.5 189.5,-1575.5"/>
<polygon fill="none" stroke="#666666" points="175.25,-1389.25 175.25,-1627.75 298.25,-1627.75 298.25,-1389.25 175.25,-1389.25"/>
</a>
</g>
</g>
<!-- Node7&#45;&gt;Node5 -->
<g id="edge7_Node000005_Node000007" class="edge">
<title>Node7&#45;&gt;Node5</title>
<g id="a_edge7_Node000005_Node000007"><a xlink:title=" ">
<path fill="none" stroke="#63b8ff" d="M236.75,-1389.37C236.75,-1375.66 236.75,-1361.42 236.75,-1347.02"/>
<polygon fill="none" stroke="#63b8ff" points="236.75,-1347.24 232.75,-1341.24 236.75,-1335.24 240.75,-1341.24 236.75,-1347.24"/>
</a>
</g>
<text xml:space="preserve" text-anchor="start" x="239.75" y="-1358.5" font-family="Helvetica,sans-Serif" font-size="10.00" fill="grey">#KeyHandlesToIndices</text>
</g>
</g>
</svg>
