<?xml version="1.0" encoding="UTF-8" standalone="no"?>
<!DOCTYPE svg PUBLIC "-//W3C//DTD SVG 1.1//EN"
 "http://www.w3.org/Graphics/SVG/1.1/DTD/svg11.dtd">
<!-- Generated by graphviz version 14.1.4 (0)
 -->
<!-- Title: FRuntimeCurveLinearColor Pages: 1 -->
<svg width="410pt" height="1363pt"
 viewBox="0.00 0.00 410.00 1363.00" xmlns="http://www.w3.org/2000/svg" xmlns:xlink="http://www.w3.org/1999/xlink">
<g id="graph0" class="graph" transform="scale(1 1) rotate(0) translate(4 1359.25)">
<title>FRuntimeCurveLinearColor</title>
<!-- Node1 -->
<g id="Node000001" class="node">
<title>Node1</title>
<g id="a_Node000001"><a xlink:title=" ">
<polygon fill="#999999" stroke="none" points="160.38,-54.25 21.12,-54.25 21.12,0 160.38,0 160.38,-54.25"/>
<text xml:space="preserve" text-anchor="start" x="25.12" y="-40.5" font-family="Helvetica,sans-Serif" font-size="10.00">FRuntimeCurveLinearColor</text>
<text xml:space="preserve" text-anchor="start" x="27.88" y="-23.75" font-family="Helvetica,sans-Serif" font-size="10.00">+</text>
<text xml:space="preserve" text-anchor="start" x="42.88" y="-23.75" font-family="Helvetica,sans-Serif" font-size="10.00">ExternalCurve</text>
<text xml:space="preserve" text-anchor="start" x="27.88" y="-7" font-family="Helvetica,sans-Serif" font-size="10.00">+</text>
<text xml:space="preserve" text-anchor="start" x="42.88" y="-7" font-family="Helvetica,sans-Serif" font-size="10.00">GetLinearColorValue()</text>
<polygon fill="#666666" stroke="#666666" points="21.12,-35.5 21.12,-35.5 160.38,-35.5 160.38,-35.5 21.12,-35.5"/>
<polygon fill="#666666" stroke="#666666" points="21.12,-18.75 21.12,-18.75 40.88,-18.75 40.88,-18.75 21.12,-18.75"/>
<polygon fill="#666666" stroke="#666666" points="40.88,-18.75 40.88,-18.75 160.38,-18.75 160.38,-18.75 40.88,-18.75"/>
<polygon fill="none" stroke="#666666" points="21.12,0 21.12,-54.25 160.38,-54.25 160.38,0 21.12,0"/>
</a>
</g>
</g>
<!-- Node2 -->
<g id="Node000002" class="node">
<title>Node2</title>
<g id="a_Node000002"><a xlink:href="structFRichCurve.html" target="_top" xlink:title=" ">
<polygon fill="white" stroke="none" points="181.5,-364.25 0,-364.25 0,-109 181.5,-109 181.5,-364.25"/>
<text xml:space="preserve" text-anchor="start" x="63" y="-350.5" font-family="Helvetica,sans-Serif" font-size="10.00">FRichCurve</text>
<text xml:space="preserve" text-anchor="start" x="4" y="-333.75" font-family="Helvetica,sans-Serif" font-size="10.00">+</text>
<text xml:space="preserve" text-anchor="start" x="16.25" y="-333.75" font-family="Helvetica,sans-Serif" font-size="10.00">Keys</text>
<text xml:space="preserve" text-anchor="start" x="4" y="-317" font-family="Helvetica,sans-Serif" font-size="10.00">+</text>
<text xml:space="preserve" text-anchor="start" x="16.25" y="-317" font-family="Helvetica,sans-Serif" font-size="10.00">GetCopyOfKeys()</text>
<text xml:space="preserve" text-anchor="start" x="4" y="-300.25" font-family="Helvetica,sans-Serif" font-size="10.00">+</text>
<text xml:space="preserve" text-anchor="start" x="16.25" y="-300.25" font-family="Helvetica,sans-Serif" font-size="10.00">GetConstRefOfKeys()</text>
<text xml:space="preserve" text-anchor="start" x="4" y="-283.5" font-family="Helvetica,sans-Serif" font-size="10.00">+</text>
<text xml:space="preserve" text-anchor="start" x="16.25" y="-283.5" font-family="Helvetica,sans-Serif" font-size="10.00">GetKeyIterator()</text>
<text xml:space="preserve" text-anchor="start" x="4" y="-266.75" font-family="Helvetica,sans-Serif" font-size="10.00">+</text>
<text xml:space="preserve" text-anchor="start" x="16.25" y="-266.75" font-family="Helvetica,sans-Serif" font-size="10.00">GetKey()</text>
<text xml:space="preserve" text-anchor="start" x="4" y="-250" font-family="Helvetica,sans-Serif" font-size="10.00">+</text>
<text xml:space="preserve" text-anchor="start" x="16.25" y="-250" font-family="Helvetica,sans-Serif" font-size="10.00">GetKey()</text>
<text xml:space="preserve" text-anchor="start" x="4" y="-233.25" font-family="Helvetica,sans-Serif" font-size="10.00">+</text>
<text xml:space="preserve" text-anchor="start" x="16.25" y="-233.25" font-family="Helvetica,sans-Serif" font-size="10.00">GetKeyRef()</text>
<text xml:space="preserve" text-anchor="start" x="4" y="-216.5" font-family="Helvetica,sans-Serif" font-size="10.00">+</text>
<text xml:space="preserve" text-anchor="start" x="16.25" y="-216.5" font-family="Helvetica,sans-Serif" font-size="10.00">GetFirstKey()</text>
<text xml:space="preserve" text-anchor="start" x="4" y="-199.75" font-family="Helvetica,sans-Serif" font-size="10.00">+</text>
<text xml:space="preserve" text-anchor="start" x="16.25" y="-199.75" font-family="Helvetica,sans-Serif" font-size="10.00">GetLastKey()</text>
<text xml:space="preserve" text-anchor="start" x="4" y="-183" font-family="Helvetica,sans-Serif" font-size="10.00">+</text>
<text xml:space="preserve" text-anchor="start" x="16.25" y="-183" font-family="Helvetica,sans-Serif" font-size="10.00">GetFirstMatchingKey()</text>
<text xml:space="preserve" text-anchor="start" x="4" y="-166.25" font-family="Helvetica,sans-Serif" font-size="10.00">+</text>
<text xml:space="preserve" text-anchor="start" x="16.25" y="-166.25" font-family="Helvetica,sans-Serif" font-size="10.00">AddKey()</text>
<text xml:space="preserve" text-anchor="start" x="16.25" y="-149.5" font-family="Helvetica,sans-Serif" font-size="10.00">and 35 more...</text>
<text xml:space="preserve" text-anchor="start" x="6.25" y="-132.75" font-family="Helvetica,sans-Serif" font-size="10.00">&#45;</text>
<text xml:space="preserve" text-anchor="start" x="16.25" y="-132.75" font-family="Helvetica,sans-Serif" font-size="10.00">RemoveRedundantKeysInternal()</text>
<text xml:space="preserve" text-anchor="start" x="6.25" y="-116" font-family="Helvetica,sans-Serif" font-size="10.00">&#45;</text>
<text xml:space="preserve" text-anchor="start" x="16.25" y="-116" font-family="Helvetica,sans-Serif" font-size="10.00">GetKeyIndex()</text>
<polygon fill="#666666" stroke="#666666" points="0,-345.5 0,-345.5 181.5,-345.5 181.5,-345.5 0,-345.5"/>
<polygon fill="#666666" stroke="#666666" points="0,-328.75 0,-328.75 14.25,-328.75 14.25,-328.75 0,-328.75"/>
<polygon fill="#666666" stroke="#666666" points="14.25,-328.75 14.25,-328.75 181.5,-328.75 181.5,-328.75 14.25,-328.75"/>
<polygon fill="none" stroke="#666666" points="0,-109 0,-364.25 181.5,-364.25 181.5,-109 0,-109"/>
</a>
</g>
</g>
<!-- Node2&#45;&gt;Node1 -->
<g id="edge1_Node000001_Node000002" class="edge">
<title>Node2&#45;&gt;Node1</title>
<g id="a_edge1_Node000001_Node000002"><a xlink:title=" ">
<path fill="none" stroke="#63b8ff" d="M90.75,-109.24C90.75,-93.95 90.75,-79.36 90.75,-66.86"/>
<polygon fill="none" stroke="#63b8ff" points="90.75,-67.1 86.75,-61.1 90.75,-55.1 94.75,-61.1 90.75,-67.1"/>
</a>
</g>
<text xml:space="preserve" text-anchor="start" x="93.75" y="-78.25" font-family="Helvetica,sans-Serif" font-size="10.00" fill="grey">+ColorCurves</text>
</g>
<!-- Node3 -->
<g id="Node000003" class="node">
<title>Node3</title>
<g id="a_Node000003"><a xlink:href="structFRealCurve.html" target="_top" xlink:title=" ">
<polygon fill="white" stroke="none" points="153.75,-656.5 27.75,-656.5 27.75,-401.25 153.75,-401.25 153.75,-656.5"/>
<text xml:space="preserve" text-anchor="start" x="62.62" y="-642.75" font-family="Helvetica,sans-Serif" font-size="10.00">FRealCurve</text>
<text xml:space="preserve" text-anchor="start" x="31.75" y="-626" font-family="Helvetica,sans-Serif" font-size="10.00">+</text>
<text xml:space="preserve" text-anchor="start" x="44" y="-626" font-family="Helvetica,sans-Serif" font-size="10.00">GetKeyTimeValuePair</text>
<text xml:space="preserve" text-anchor="start" x="31.75" y="-609.25" font-family="Helvetica,sans-Serif" font-size="10.00">+</text>
<text xml:space="preserve" text-anchor="start" x="44" y="-609.25" font-family="Helvetica,sans-Serif" font-size="10.00">GetKeyInterpMode</text>
<text xml:space="preserve" text-anchor="start" x="31.75" y="-592.5" font-family="Helvetica,sans-Serif" font-size="10.00">+</text>
<text xml:space="preserve" text-anchor="start" x="44" y="-592.5" font-family="Helvetica,sans-Serif" font-size="10.00">DefaultValue</text>
<text xml:space="preserve" text-anchor="start" x="31.75" y="-575.75" font-family="Helvetica,sans-Serif" font-size="10.00">+</text>
<text xml:space="preserve" text-anchor="start" x="44" y="-575.75" font-family="Helvetica,sans-Serif" font-size="10.00">PreInfinityExtrap</text>
<text xml:space="preserve" text-anchor="start" x="31.75" y="-559" font-family="Helvetica,sans-Serif" font-size="10.00">+</text>
<text xml:space="preserve" text-anchor="start" x="44" y="-559" font-family="Helvetica,sans-Serif" font-size="10.00">PostInfinityExtrap</text>
<text xml:space="preserve" text-anchor="start" x="31.75" y="-542.25" font-family="Helvetica,sans-Serif" font-size="10.00">#</text>
<text xml:space="preserve" text-anchor="start" x="44" y="-542.25" font-family="Helvetica,sans-Serif" font-size="10.00">GetKeyIndex</text>
<text xml:space="preserve" text-anchor="start" x="31.75" y="-525.5" font-family="Helvetica,sans-Serif" font-size="10.00">+</text>
<text xml:space="preserve" text-anchor="start" x="44" y="-525.5" font-family="Helvetica,sans-Serif" font-size="10.00">FRealCurve()</text>
<text xml:space="preserve" text-anchor="start" x="31.75" y="-508.75" font-family="Helvetica,sans-Serif" font-size="10.00">+</text>
<text xml:space="preserve" text-anchor="start" x="44" y="-508.75" font-family="Helvetica,sans-Serif" font-size="10.00">HasAnyData()</text>
<text xml:space="preserve" text-anchor="start" x="31.75" y="-492" font-family="Helvetica,sans-Serif" font-size="10.00">+</text>
<text xml:space="preserve" text-anchor="start" x="44" y="-492" font-family="Helvetica,sans-Serif" font-size="10.00">FindKey()</text>
<text xml:space="preserve" text-anchor="start" x="31.75" y="-475.25" font-family="Helvetica,sans-Serif" font-size="10.00">+</text>
<text xml:space="preserve" text-anchor="start" x="44" y="-475.25" font-family="Helvetica,sans-Serif" font-size="10.00">KeyExistsAtTime()</text>
<text xml:space="preserve" text-anchor="start" x="31.75" y="-458.5" font-family="Helvetica,sans-Serif" font-size="10.00">+</text>
<text xml:space="preserve" text-anchor="start" x="44" y="-458.5" font-family="Helvetica,sans-Serif" font-size="10.00">SetDefaultValue()</text>
<text xml:space="preserve" text-anchor="start" x="31.75" y="-441.75" font-family="Helvetica,sans-Serif" font-size="10.00">+</text>
<text xml:space="preserve" text-anchor="start" x="44" y="-441.75" font-family="Helvetica,sans-Serif" font-size="10.00">GetDefaultValue()</text>
<text xml:space="preserve" text-anchor="start" x="31.75" y="-425" font-family="Helvetica,sans-Serif" font-size="10.00">+</text>
<text xml:space="preserve" text-anchor="start" x="44" y="-425" font-family="Helvetica,sans-Serif" font-size="10.00">ClearDefaultValue()</text>
<text xml:space="preserve" text-anchor="start" x="31.75" y="-408.25" font-family="Helvetica,sans-Serif" font-size="10.00">#</text>
<text xml:space="preserve" text-anchor="start" x="44" y="-408.25" font-family="Helvetica,sans-Serif" font-size="10.00">CycleTime()</text>
<polygon fill="#666666" stroke="#666666" points="27.75,-637.75 27.75,-637.75 153.75,-637.75 153.75,-637.75 27.75,-637.75"/>
<polygon fill="#666666" stroke="#666666" points="27.75,-537.25 27.75,-537.25 42,-537.25 42,-537.25 27.75,-537.25"/>
<polygon fill="#666666" stroke="#666666" points="42,-537.25 42,-537.25 153.75,-537.25 153.75,-537.25 42,-537.25"/>
<polygon fill="none" stroke="#666666" points="27.75,-401.25 27.75,-656.5 153.75,-656.5 153.75,-401.25 27.75,-401.25"/>
</a>
</g>
</g>
<!-- Node3&#45;&gt;Node2 -->
<g id="edge2_Node000002_Node000003" class="edge">
<title>Node3&#45;&gt;Node2</title>
<g id="a_edge2_Node000002_Node000003"><a xlink:title=" ">
<path fill="none" stroke="#63b8ff" d="M90.75,-390.06C90.75,-381.4 90.75,-372.71 90.75,-364.11"/>
<polygon fill="none" stroke="#63b8ff" points="87.25,-389.9 90.75,-399.9 94.25,-389.9 87.25,-389.9"/>
</a>
</g>
</g>
<!-- Node3&#45;&gt;Node3 -->
<g id="edge8_Node000003_Node000003" class="edge">
<title>Node3&#45;&gt;Node3</title>
<g id="a_edge8_Node000003_Node000003"><a xlink:title=" ">
<path fill="none" stroke="#63b8ff" d="M153.58,-554.45C164.31,-550.96 171.75,-542.43 171.75,-528.88 171.75,-520.83 169.13,-514.55 164.75,-510.05"/>
<polygon fill="none" stroke="#63b8ff" points="164.62,-509.97 157.42,-510.29 154.35,-503.76 161.56,-503.44 164.62,-509.97"/>
</a>
</g>
<text xml:space="preserve" text-anchor="start" x="174.75" y="-525.5" font-family="Helvetica,sans-Serif" font-size="10.00" fill="grey">+Eval</text>
</g>
<!-- Node4 -->
<g id="Node000004" class="node">
<title>Node4</title>
<g id="a_Node000004"><a xlink:href="structFIndexedCurve.html" target="_top" xlink:title=" ">
<polygon fill="white" stroke="none" points="323.38,-1062 150.12,-1062 150.12,-693.5 323.38,-693.5 323.38,-1062"/>
<text xml:space="preserve" text-anchor="start" x="200" y="-1048.25" font-family="Helvetica,sans-Serif" font-size="10.00">FIndexedCurve</text>
<text xml:space="preserve" text-anchor="start" x="154.12" y="-1031.5" font-family="Helvetica,sans-Serif" font-size="10.00">+</text>
<text xml:space="preserve" text-anchor="start" x="166.38" y="-1031.5" font-family="Helvetica,sans-Serif" font-size="10.00">GetNumKeys</text>
<text xml:space="preserve" text-anchor="start" x="154.12" y="-1014.75" font-family="Helvetica,sans-Serif" font-size="10.00">+</text>
<text xml:space="preserve" text-anchor="start" x="166.38" y="-1014.75" font-family="Helvetica,sans-Serif" font-size="10.00">FIndexedCurve()</text>
<text xml:space="preserve" text-anchor="start" x="154.12" y="-998" font-family="Helvetica,sans-Serif" font-size="10.00">+</text>
<text xml:space="preserve" text-anchor="start" x="166.38" y="-998" font-family="Helvetica,sans-Serif" font-size="10.00">~FIndexedCurve()</text>
<text xml:space="preserve" text-anchor="start" x="154.12" y="-981.25" font-family="Helvetica,sans-Serif" font-size="10.00">+</text>
<text xml:space="preserve" text-anchor="start" x="166.38" y="-981.25" font-family="Helvetica,sans-Serif" font-size="10.00">GetIndexSafe()</text>
<text xml:space="preserve" text-anchor="start" x="154.12" y="-964.5" font-family="Helvetica,sans-Serif" font-size="10.00">+</text>
<text xml:space="preserve" text-anchor="start" x="166.38" y="-964.5" font-family="Helvetica,sans-Serif" font-size="10.00">GetKeyHandleIterator()</text>
<text xml:space="preserve" text-anchor="start" x="154.12" y="-947.75" font-family="Helvetica,sans-Serif" font-size="10.00">+</text>
<text xml:space="preserve" text-anchor="start" x="166.38" y="-947.75" font-family="Helvetica,sans-Serif" font-size="10.00">IsKeyHandleValid()</text>
<text xml:space="preserve" text-anchor="start" x="154.12" y="-931" font-family="Helvetica,sans-Serif" font-size="10.00">+</text>
<text xml:space="preserve" text-anchor="start" x="166.38" y="-931" font-family="Helvetica,sans-Serif" font-size="10.00">GetFirstKeyHandle()</text>
<text xml:space="preserve" text-anchor="start" x="154.12" y="-914.25" font-family="Helvetica,sans-Serif" font-size="10.00">+</text>
<text xml:space="preserve" text-anchor="start" x="166.38" y="-914.25" font-family="Helvetica,sans-Serif" font-size="10.00">GetLastKeyHandle()</text>
<text xml:space="preserve" text-anchor="start" x="154.12" y="-897.5" font-family="Helvetica,sans-Serif" font-size="10.00">+</text>
<text xml:space="preserve" text-anchor="start" x="166.38" y="-897.5" font-family="Helvetica,sans-Serif" font-size="10.00">GetNextKey()</text>
<text xml:space="preserve" text-anchor="start" x="154.12" y="-880.75" font-family="Helvetica,sans-Serif" font-size="10.00">+</text>
<text xml:space="preserve" text-anchor="start" x="166.38" y="-880.75" font-family="Helvetica,sans-Serif" font-size="10.00">GetPreviousKey()</text>
<text xml:space="preserve" text-anchor="start" x="154.12" y="-864" font-family="Helvetica,sans-Serif" font-size="10.00">+</text>
<text xml:space="preserve" text-anchor="start" x="166.38" y="-864" font-family="Helvetica,sans-Serif" font-size="10.00">ShiftCurve()</text>
<text xml:space="preserve" text-anchor="start" x="154.12" y="-847.25" font-family="Helvetica,sans-Serif" font-size="10.00">+</text>
<text xml:space="preserve" text-anchor="start" x="166.38" y="-847.25" font-family="Helvetica,sans-Serif" font-size="10.00">ShiftCurve()</text>
<text xml:space="preserve" text-anchor="start" x="154.12" y="-830.5" font-family="Helvetica,sans-Serif" font-size="10.00">+</text>
<text xml:space="preserve" text-anchor="start" x="166.38" y="-830.5" font-family="Helvetica,sans-Serif" font-size="10.00">ScaleCurve()</text>
<text xml:space="preserve" text-anchor="start" x="154.12" y="-813.75" font-family="Helvetica,sans-Serif" font-size="10.00">+</text>
<text xml:space="preserve" text-anchor="start" x="166.38" y="-813.75" font-family="Helvetica,sans-Serif" font-size="10.00">ScaleCurve()</text>
<text xml:space="preserve" text-anchor="start" x="154.12" y="-797" font-family="Helvetica,sans-Serif" font-size="10.00">#</text>
<text xml:space="preserve" text-anchor="start" x="166.38" y="-797" font-family="Helvetica,sans-Serif" font-size="10.00">EnsureAllIndicesHaveHandles()</text>
<text xml:space="preserve" text-anchor="start" x="154.12" y="-780.25" font-family="Helvetica,sans-Serif" font-size="10.00">#</text>
<text xml:space="preserve" text-anchor="start" x="166.38" y="-780.25" font-family="Helvetica,sans-Serif" font-size="10.00">EnsureIndexHasAHandle()</text>
<text xml:space="preserve" text-anchor="start" x="154.12" y="-763.5" font-family="Helvetica,sans-Serif" font-size="10.00">#</text>
<text xml:space="preserve" text-anchor="start" x="166.38" y="-763.5" font-family="Helvetica,sans-Serif" font-size="10.00">FindIndex()</text>
<text xml:space="preserve" text-anchor="start" x="154.12" y="-746.75" font-family="Helvetica,sans-Serif" font-size="10.00">#</text>
<text xml:space="preserve" text-anchor="start" x="166.38" y="-746.75" font-family="Helvetica,sans-Serif" font-size="10.00">GetIndex()</text>
<text xml:space="preserve" text-anchor="start" x="154.12" y="-730" font-family="Helvetica,sans-Serif" font-size="10.00">#</text>
<text xml:space="preserve" text-anchor="start" x="166.38" y="-730" font-family="Helvetica,sans-Serif" font-size="10.00">GetKeyHandle()</text>
<text xml:space="preserve" text-anchor="start" x="156.38" y="-713.25" font-family="Helvetica,sans-Serif" font-size="10.00">&#45;</text>
<text xml:space="preserve" text-anchor="start" x="166.38" y="-713.25" font-family="Helvetica,sans-Serif" font-size="10.00">EnsureAllIndicesHaveHandles</text>
<text xml:space="preserve" text-anchor="start" x="166.38" y="-700.5" font-family="Helvetica,sans-Serif" font-size="10.00">_Internal()</text>
<polygon fill="#666666" stroke="#666666" points="150.12,-1043.25 150.12,-1043.25 323.38,-1043.25 323.38,-1043.25 150.12,-1043.25"/>
<polygon fill="#666666" stroke="#666666" points="150.12,-1026.5 150.12,-1026.5 164.38,-1026.5 164.38,-1026.5 150.12,-1026.5"/>
<polygon fill="#666666" stroke="#666666" points="164.38,-1026.5 164.38,-1026.5 323.38,-1026.5 323.38,-1026.5 164.38,-1026.5"/>
<polygon fill="none" stroke="#666666" points="150.12,-693.5 150.12,-1062 323.38,-1062 323.38,-693.5 150.12,-693.5"/>
</a>
</g>
</g>
<!-- Node4&#45;&gt;Node3 -->
<g id="edge3_Node000003_Node000004" class="edge">
<title>Node4&#45;&gt;Node3</title>
<g id="a_edge3_Node000003_Node000004"><a xlink:title=" ">
<path fill="none" stroke="#63b8ff" d="M155.31,-683.26C151.44,-674.08 147.61,-664.96 143.85,-656.03"/>
<polygon fill="none" stroke="#63b8ff" points="152,-684.41 159.1,-692.27 158.45,-681.69 152,-684.41"/>
</a>
</g>
</g>
<!-- Node4&#45;&gt;Node4 -->
<g id="edge5_Node000004_Node000004" class="edge">
<title>Node4&#45;&gt;Node4</title>
<g id="a_edge5_Node000004_Node000004"><a xlink:title=" ">
<path fill="none" stroke="#63b8ff" d="M323.34,-910.86C334.22,-905.02 341.38,-893.99 341.38,-877.75 341.38,-867.1 338.29,-858.68 333.1,-852.5"/>
<polygon fill="none" stroke="#63b8ff" points="333.39,-852.74 326.21,-852.09 324.05,-845.21 331.23,-845.86 333.39,-852.74"/>
</a>
</g>
<text xml:space="preserve" text-anchor="start" x="344.38" y="-874.38" font-family="Helvetica,sans-Serif" font-size="10.00" fill="grey">+Duplicate</text>
</g>
<!-- Node5 -->
<g id="Node000005" class="node">
<title>Node5</title>
<g id="a_Node000005"><a xlink:href="structFKeyHandle.html" target="_top" xlink:title=" ">
<polygon fill="white" stroke="none" points="119.25,-1313.38 26.25,-1313.38 26.25,-1158.62 119.25,-1158.62 119.25,-1313.38"/>
<text xml:space="preserve" text-anchor="start" x="43.5" y="-1299.62" font-family="Helvetica,sans-Serif" font-size="10.00">FKeyHandle</text>
<text xml:space="preserve" text-anchor="start" x="32.5" y="-1282.88" font-family="Helvetica,sans-Serif" font-size="10.00">&#45;</text>
<text xml:space="preserve" text-anchor="start" x="42.5" y="-1282.88" font-family="Helvetica,sans-Serif" font-size="10.00">Index</text>
<text xml:space="preserve" text-anchor="start" x="30.25" y="-1266.12" font-family="Helvetica,sans-Serif" font-size="10.00">+</text>
<text xml:space="preserve" text-anchor="start" x="42.5" y="-1266.12" font-family="Helvetica,sans-Serif" font-size="10.00">FKeyHandle()</text>
<text xml:space="preserve" text-anchor="start" x="30.25" y="-1249.38" font-family="Helvetica,sans-Serif" font-size="10.00">+</text>
<text xml:space="preserve" text-anchor="start" x="42.5" y="-1249.38" font-family="Helvetica,sans-Serif" font-size="10.00">IsValid()</text>
<text xml:space="preserve" text-anchor="start" x="30.25" y="-1232.62" font-family="Helvetica,sans-Serif" font-size="10.00">+</text>
<text xml:space="preserve" text-anchor="start" x="42.5" y="-1232.62" font-family="Helvetica,sans-Serif" font-size="10.00">operator bool()</text>
<text xml:space="preserve" text-anchor="start" x="30.25" y="-1215.88" font-family="Helvetica,sans-Serif" font-size="10.00">+</text>
<text xml:space="preserve" text-anchor="start" x="42.5" y="-1215.88" font-family="Helvetica,sans-Serif" font-size="10.00">operator==()</text>
<text xml:space="preserve" text-anchor="start" x="30.25" y="-1199.12" font-family="Helvetica,sans-Serif" font-size="10.00">+</text>
<text xml:space="preserve" text-anchor="start" x="42.5" y="-1199.12" font-family="Helvetica,sans-Serif" font-size="10.00">operator!=()</text>
<text xml:space="preserve" text-anchor="start" x="30.25" y="-1182.38" font-family="Helvetica,sans-Serif" font-size="10.00">+</text>
<text xml:space="preserve" text-anchor="start" x="42.5" y="-1182.38" font-family="Helvetica,sans-Serif" font-size="10.00">Invalid()</text>
<text xml:space="preserve" text-anchor="start" x="32.5" y="-1165.62" font-family="Helvetica,sans-Serif" font-size="10.00">&#45;</text>
<text xml:space="preserve" text-anchor="start" x="42.5" y="-1165.62" font-family="Helvetica,sans-Serif" font-size="10.00">FKeyHandle()</text>
<polygon fill="#666666" stroke="#666666" points="26.25,-1294.62 26.25,-1294.62 119.25,-1294.62 119.25,-1294.62 26.25,-1294.62"/>
<polygon fill="#666666" stroke="#666666" points="26.25,-1277.88 26.25,-1277.88 40.5,-1277.88 40.5,-1277.88 26.25,-1277.88"/>
<polygon fill="#666666" stroke="#666666" points="40.5,-1277.88 40.5,-1277.88 119.25,-1277.88 119.25,-1277.88 40.5,-1277.88"/>
<polygon fill="none" stroke="#666666" points="26.25,-1158.62 26.25,-1313.38 119.25,-1313.38 119.25,-1158.62 26.25,-1158.62"/>
</a>
</g>
</g>
<!-- Node5&#45;&gt;Node3 -->
<g id="edge7_Node000003_Node000005" class="edge">
<title>Node5&#45;&gt;Node3</title>
<g id="a_edge7_Node000003_Node000005"><a xlink:title=" ">
<path fill="none" stroke="#63b8ff" d="M56.88,-1158.71C51.4,-1128.71 45.95,-1093.88 43.25,-1062 29.44,-898.81 20.19,-855.65 43.25,-693.5 44.4,-685.43 45.85,-677.2 47.52,-668.94"/>
<polygon fill="none" stroke="#63b8ff" points="47.51,-669.01 44.87,-662.3 50.04,-657.28 52.69,-663.99 47.51,-669.01"/>
</a>
</g>
<text xml:space="preserve" text-anchor="start" x="46.25" y="-891.12" font-family="Helvetica,sans-Serif" font-size="10.00" fill="grey">+AddKey</text>
<text xml:space="preserve" text-anchor="start" x="46.25" y="-874.38" font-family="Helvetica,sans-Serif" font-size="10.00" fill="grey">+GetKeyValue</text>
<text xml:space="preserve" text-anchor="start" x="46.25" y="-857.62" font-family="Helvetica,sans-Serif" font-size="10.00" fill="grey">+UpdateOrAddKey</text>
</g>
<!-- Node5&#45;&gt;Node4 -->
<g id="edge4_Node000004_Node000005" class="edge">
<title>Node5&#45;&gt;Node4</title>
<g id="a_edge4_Node000004_Node000005"><a xlink:title=" ">
<path fill="none" stroke="#63b8ff" d="M107.73,-1159.01C119.45,-1133.55 133.11,-1103.89 147.06,-1073.58"/>
<polygon fill="none" stroke="#63b8ff" points="147.03,-1073.65 145.9,-1066.53 152.04,-1062.75 153.17,-1069.88 147.03,-1073.65"/>
</a>
</g>
<text xml:space="preserve" text-anchor="start" x="143.06" y="-1086" font-family="Helvetica,sans-Serif" font-size="10.00" fill="grey">+GetKeyTime</text>
</g>
<!-- Node6 -->
<g id="Node000006" class="node">
<title>Node6</title>
<g id="a_Node000006"><a xlink:href="structFKeyHandleMap.html" target="_top" xlink:title=" ">
<polygon fill="white" stroke="none" points="298.25,-1355.25 175.25,-1355.25 175.25,-1116.75 298.25,-1116.75 298.25,-1355.25"/>
<text xml:space="preserve" text-anchor="start" x="197" y="-1341.5" font-family="Helvetica,sans-Serif" font-size="10.00">FKeyHandleMap</text>
<text xml:space="preserve" text-anchor="start" x="181.5" y="-1324.75" font-family="Helvetica,sans-Serif" font-size="10.00">&#45;</text>
<text xml:space="preserve" text-anchor="start" x="191.5" y="-1324.75" font-family="Helvetica,sans-Serif" font-size="10.00">KeyHandlesToIndices</text>
<text xml:space="preserve" text-anchor="start" x="181.5" y="-1308" font-family="Helvetica,sans-Serif" font-size="10.00">&#45;</text>
<text xml:space="preserve" text-anchor="start" x="191.5" y="-1308" font-family="Helvetica,sans-Serif" font-size="10.00">KeyHandles</text>
<text xml:space="preserve" text-anchor="start" x="179.25" y="-1291.25" font-family="Helvetica,sans-Serif" font-size="10.00">+</text>
<text xml:space="preserve" text-anchor="start" x="191.5" y="-1291.25" font-family="Helvetica,sans-Serif" font-size="10.00">FKeyHandleMap()</text>
<text xml:space="preserve" text-anchor="start" x="179.25" y="-1274.5" font-family="Helvetica,sans-Serif" font-size="10.00">+</text>
<text xml:space="preserve" text-anchor="start" x="191.5" y="-1274.5" font-family="Helvetica,sans-Serif" font-size="10.00">FKeyHandleMap()</text>
<text xml:space="preserve" text-anchor="start" x="179.25" y="-1257.75" font-family="Helvetica,sans-Serif" font-size="10.00">+</text>
<text xml:space="preserve" text-anchor="start" x="191.5" y="-1257.75" font-family="Helvetica,sans-Serif" font-size="10.00">operator=()</text>
<text xml:space="preserve" text-anchor="start" x="179.25" y="-1241" font-family="Helvetica,sans-Serif" font-size="10.00">+</text>
<text xml:space="preserve" text-anchor="start" x="191.5" y="-1241" font-family="Helvetica,sans-Serif" font-size="10.00">Initialize()</text>
<text xml:space="preserve" text-anchor="start" x="179.25" y="-1224.25" font-family="Helvetica,sans-Serif" font-size="10.00">+</text>
<text xml:space="preserve" text-anchor="start" x="191.5" y="-1224.25" font-family="Helvetica,sans-Serif" font-size="10.00">Add()</text>
<text xml:space="preserve" text-anchor="start" x="179.25" y="-1207.5" font-family="Helvetica,sans-Serif" font-size="10.00">+</text>
<text xml:space="preserve" text-anchor="start" x="191.5" y="-1207.5" font-family="Helvetica,sans-Serif" font-size="10.00">Empty()</text>
<text xml:space="preserve" text-anchor="start" x="179.25" y="-1190.75" font-family="Helvetica,sans-Serif" font-size="10.00">+</text>
<text xml:space="preserve" text-anchor="start" x="191.5" y="-1190.75" font-family="Helvetica,sans-Serif" font-size="10.00">Remove()</text>
<text xml:space="preserve" text-anchor="start" x="179.25" y="-1174" font-family="Helvetica,sans-Serif" font-size="10.00">+</text>
<text xml:space="preserve" text-anchor="start" x="191.5" y="-1174" font-family="Helvetica,sans-Serif" font-size="10.00">Reserve()</text>
<text xml:space="preserve" text-anchor="start" x="179.25" y="-1157.25" font-family="Helvetica,sans-Serif" font-size="10.00">+</text>
<text xml:space="preserve" text-anchor="start" x="191.5" y="-1157.25" font-family="Helvetica,sans-Serif" font-size="10.00">Find()</text>
<text xml:space="preserve" text-anchor="start" x="179.25" y="-1140.5" font-family="Helvetica,sans-Serif" font-size="10.00">+</text>
<text xml:space="preserve" text-anchor="start" x="191.5" y="-1140.5" font-family="Helvetica,sans-Serif" font-size="10.00">FindKey()</text>
<text xml:space="preserve" text-anchor="start" x="191.5" y="-1123.75" font-family="Helvetica,sans-Serif" font-size="10.00">and 9 more...</text>
<polygon fill="#666666" stroke="#666666" points="175.25,-1336.5 175.25,-1336.5 298.25,-1336.5 298.25,-1336.5 175.25,-1336.5"/>
<polygon fill="#666666" stroke="#666666" points="175.25,-1303 175.25,-1303 189.5,-1303 189.5,-1303 175.25,-1303"/>
<polygon fill="#666666" stroke="#666666" points="189.5,-1303 189.5,-1303 298.25,-1303 298.25,-1303 189.5,-1303"/>
<polygon fill="none" stroke="#666666" points="175.25,-1116.75 175.25,-1355.25 298.25,-1355.25 298.25,-1116.75 175.25,-1116.75"/>
</a>
</g>
</g>
<!-- Node6&#45;&gt;Node4 -->
<g id="edge6_Node000004_Node000006" class="edge">
<title>Node6&#45;&gt;Node4</title>
<g id="a_edge6_Node000004_Node000006"><a xlink:title=" ">
<path fill="none" stroke="#63b8ff" d="M236.75,-1116.87C236.75,-1103.16 236.75,-1088.92 236.75,-1074.52"/>
<polygon fill="none" stroke="#63b8ff" points="236.75,-1074.74 232.75,-1068.74 236.75,-1062.74 240.75,-1068.74 236.75,-1074.74"/>
</a>
</g>
<text xml:space="preserve" text-anchor="start" x="239.75" y="-1086" font-family="Helvetica,sans-Serif" font-size="10.00" fill="grey">#KeyHandlesToIndices</text>
</g>
</g>
</svg>
