<?xml version="1.0" encoding="UTF-8" standalone="no"?>
<!DOCTYPE svg PUBLIC "-//W3C//DTD SVG 1.1//EN"
 "http://www.w3.org/Graphics/SVG/1.1/DTD/svg11.dtd">
<!-- Generated by graphviz version 14.1.4 (0)
 -->
<!-- Title: /opt/unreal&#45;engine/Engine/Source/Runtime/Engine/Classes/Engine/Texture.h Pages: 1 -->
<svg width="2764pt" height="352pt"
 viewBox="0.00 0.00 2764.00 352.00" xmlns="http://www.w3.org/2000/svg" xmlns:xlink="http://www.w3.org/1999/xlink">
<g id="graph0" class="graph" transform="scale(1 1) rotate(0) translate(4 348)">
<title>/opt/unreal&#45;engine/Engine/Source/Runtime/Engine/Classes/Engine/Texture.h</title>
<!-- Node1 -->
<g id="Node000001" class="node">
<title>Node1</title>
<g id="a_Node000001"><a xlink:title=" ">
<polygon fill="#999999" stroke="#666666" points="2083.5,-344 1951.25,-344 1951.25,-285 2083.5,-285 2083.5,-344"/>
<text xml:space="preserve" text-anchor="start" x="1959.25" y="-330.5" font-family="Helvetica,sans-Serif" font-size="10.00">/opt/unreal&#45;engine</text>
<text xml:space="preserve" text-anchor="start" x="1959.25" y="-317.75" font-family="Helvetica,sans-Serif" font-size="10.00">/Engine/Source/Runtime</text>
<text xml:space="preserve" text-anchor="start" x="1959.25" y="-305" font-family="Helvetica,sans-Serif" font-size="10.00">/Engine/Classes/Engine</text>
<text xml:space="preserve" text-anchor="middle" x="2017.38" y="-292.25" font-family="Helvetica,sans-Serif" font-size="10.00">/Texture.h</text>
</a>
</g>
</g>
<!-- Node2 -->
<g id="Node000002" class="node">
<title>Node2</title>
<g id="a_Node000002"><a xlink:href="$CurveLinearColorAtlas_8h.html" xlink:title=" ">
<polygon fill="white" stroke="#666666" points="136.75,-154 0,-154 0,-95 136.75,-95 136.75,-154"/>
<text xml:space="preserve" text-anchor="start" x="8" y="-140.5" font-family="Helvetica,sans-Serif" font-size="10.00">/opt/unreal&#45;engine</text>
<text xml:space="preserve" text-anchor="start" x="8" y="-127.75" font-family="Helvetica,sans-Serif" font-size="10.00">/Engine/Source/Runtime</text>
<text xml:space="preserve" text-anchor="start" x="8" y="-115" font-family="Helvetica,sans-Serif" font-size="10.00">/Engine/Classes/Curves</text>
<text xml:space="preserve" text-anchor="middle" x="68.38" y="-102.25" font-family="Helvetica,sans-Serif" font-size="10.00">/CurveLinearColorAtlas.h</text>
</a>
</g>
</g>
<!-- Node1&#45;&gt;Node2 -->
<g id="edge1_Node000001_Node000002" class="edge">
<title>Node1&#45;&gt;Node2</title>
<g id="a_edge1_Node000001_Node000002"><a xlink:title=" ">
<path fill="none" stroke="#63b8ff" d="M1939.68,-312.8C1737.3,-310.3 1177.43,-299.01 714.38,-249 459.9,-221.52 393.85,-219.31 146.38,-154 143.31,-153.19 140.19,-152.31 137.06,-151.38"/>
<polygon fill="#63b8ff" stroke="#63b8ff" points="1939.51,-316.3 1949.55,-312.92 1939.59,-309.3 1939.51,-316.3"/>
</a>
</g>
</g>
<!-- Node3 -->
<g id="Node000003" class="node">
<title>Node3</title>
<g id="a_Node000003"><a xlink:href="$Texture2D_8h.html" xlink:title=" ">
<polygon fill="white" stroke="#666666" points="855.5,-249 723.25,-249 723.25,-190 855.5,-190 855.5,-249"/>
<text xml:space="preserve" text-anchor="start" x="731.25" y="-235.5" font-family="Helvetica,sans-Serif" font-size="10.00">/opt/unreal&#45;engine</text>
<text xml:space="preserve" text-anchor="start" x="731.25" y="-222.75" font-family="Helvetica,sans-Serif" font-size="10.00">/Engine/Source/Runtime</text>
<text xml:space="preserve" text-anchor="start" x="731.25" y="-210" font-family="Helvetica,sans-Serif" font-size="10.00">/Engine/Classes/Engine</text>
<text xml:space="preserve" text-anchor="middle" x="789.38" y="-197.25" font-family="Helvetica,sans-Serif" font-size="10.00">/Texture2D.h</text>
</a>
</g>
</g>
<!-- Node1&#45;&gt;Node3 -->
<g id="edge2_Node000001_Node000003" class="edge">
<title>Node1&#45;&gt;Node3</title>
<g id="a_edge2_Node000001_Node000003"><a xlink:title=" ">
<path fill="none" stroke="#63b8ff" d="M1939.57,-307.61C1714.5,-290.56 1065.47,-241.41 855.65,-225.52"/>
<polygon fill="#63b8ff" stroke="#63b8ff" points="1939.17,-311.09 1949.41,-308.35 1939.7,-304.11 1939.17,-311.09"/>
</a>
</g>
</g>
<!-- Node15 -->
<g id="Node000015" class="node">
<title>Node15</title>
<g id="a_Node000015"><a xlink:href="$Texture2DDynamic_8h.html" xlink:title=" ">
<polygon fill="white" stroke="#666666" points="1858.5,-249 1726.25,-249 1726.25,-190 1858.5,-190 1858.5,-249"/>
<text xml:space="preserve" text-anchor="start" x="1734.25" y="-235.5" font-family="Helvetica,sans-Serif" font-size="10.00">/opt/unreal&#45;engine</text>
<text xml:space="preserve" text-anchor="start" x="1734.25" y="-222.75" font-family="Helvetica,sans-Serif" font-size="10.00">/Engine/Source/Runtime</text>
<text xml:space="preserve" text-anchor="start" x="1734.25" y="-210" font-family="Helvetica,sans-Serif" font-size="10.00">/Engine/Classes/Engine</text>
<text xml:space="preserve" text-anchor="middle" x="1792.38" y="-197.25" font-family="Helvetica,sans-Serif" font-size="10.00">/Texture2DDynamic.h</text>
</a>
</g>
</g>
<!-- Node1&#45;&gt;Node15 -->
<g id="edge16_Node000001_Node000015" class="edge">
<title>Node1&#45;&gt;Node15</title>
<g id="a_edge16_Node000001_Node000015"><a xlink:title=" ">
<path fill="none" stroke="#63b8ff" d="M1940.39,-281.68C1913.87,-270.72 1884.41,-258.54 1858.8,-247.95"/>
<polygon fill="#63b8ff" stroke="#63b8ff" points="1938.8,-284.81 1949.38,-285.4 1941.48,-278.34 1938.8,-284.81"/>
</a>
</g>
</g>
<!-- Node16 -->
<g id="Node000016" class="node">
<title>Node16</title>
<g id="a_Node000016"><a xlink:href="$TextureCube_8h.html" xlink:title=" ">
<polygon fill="white" stroke="#666666" points="2008.5,-249 1876.25,-249 1876.25,-190 2008.5,-190 2008.5,-249"/>
<text xml:space="preserve" text-anchor="start" x="1884.25" y="-235.5" font-family="Helvetica,sans-Serif" font-size="10.00">/opt/unreal&#45;engine</text>
<text xml:space="preserve" text-anchor="start" x="1884.25" y="-222.75" font-family="Helvetica,sans-Serif" font-size="10.00">/Engine/Source/Runtime</text>
<text xml:space="preserve" text-anchor="start" x="1884.25" y="-210" font-family="Helvetica,sans-Serif" font-size="10.00">/Engine/Classes/Engine</text>
<text xml:space="preserve" text-anchor="middle" x="1942.38" y="-197.25" font-family="Helvetica,sans-Serif" font-size="10.00">/TextureCube.h</text>
</a>
</g>
</g>
<!-- Node1&#45;&gt;Node16 -->
<g id="edge17_Node000001_Node000016" class="edge">
<title>Node1&#45;&gt;Node16</title>
<g id="a_edge17_Node000001_Node000016"><a xlink:title=" ">
<path fill="none" stroke="#63b8ff" d="M1986.86,-275.66C1979.79,-266.9 1972.38,-257.71 1965.68,-249.4"/>
<polygon fill="#63b8ff" stroke="#63b8ff" points="1984.1,-277.82 1993.11,-283.41 1989.55,-273.42 1984.1,-277.82"/>
</a>
</g>
</g>
<!-- Node19 -->
<g id="Node000019" class="node">
<title>Node19</title>
<g id="a_Node000019"><a xlink:href="$TextureRenderTarget_8h.html" xlink:title=" ">
<polygon fill="white" stroke="#666666" points="2160.5,-249 2028.25,-249 2028.25,-190 2160.5,-190 2160.5,-249"/>
<text xml:space="preserve" text-anchor="start" x="2036.25" y="-235.5" font-family="Helvetica,sans-Serif" font-size="10.00">/opt/unreal&#45;engine</text>
<text xml:space="preserve" text-anchor="start" x="2036.25" y="-222.75" font-family="Helvetica,sans-Serif" font-size="10.00">/Engine/Source/Runtime</text>
<text xml:space="preserve" text-anchor="start" x="2036.25" y="-210" font-family="Helvetica,sans-Serif" font-size="10.00">/Engine/Classes/Engine</text>
<text xml:space="preserve" text-anchor="middle" x="2094.38" y="-197.25" font-family="Helvetica,sans-Serif" font-size="10.00">/TextureRenderTarget.h</text>
</a>
</g>
</g>
<!-- Node1&#45;&gt;Node19 -->
<g id="edge20_Node000001_Node000019" class="edge">
<title>Node1&#45;&gt;Node19</title>
<g id="a_edge20_Node000001_Node000019"><a xlink:title=" ">
<path fill="none" stroke="#63b8ff" d="M2048.48,-275.94C2055.8,-267.09 2063.5,-257.79 2070.45,-249.4"/>
<polygon fill="#63b8ff" stroke="#63b8ff" points="2045.96,-273.48 2042.28,-283.42 2051.35,-277.95 2045.96,-273.48"/>
</a>
</g>
</g>
<!-- Node26 -->
<g id="Node000026" class="node">
<title>Node26</title>
<g id="a_Node000026"><a xlink:href="$PhysicalMaterialMask_8h.html" xlink:title=" ">
<polygon fill="white" stroke="#666666" points="2360.25,-249 2178.5,-249 2178.5,-190 2360.25,-190 2360.25,-249"/>
<text xml:space="preserve" text-anchor="start" x="2186.5" y="-235.5" font-family="Helvetica,sans-Serif" font-size="10.00">/opt/unreal&#45;engine</text>
<text xml:space="preserve" text-anchor="start" x="2186.5" y="-222.75" font-family="Helvetica,sans-Serif" font-size="10.00">/Engine/Source/Runtime</text>
<text xml:space="preserve" text-anchor="start" x="2186.5" y="-210" font-family="Helvetica,sans-Serif" font-size="10.00">/Engine/Classes/PhysicalMaterials</text>
<text xml:space="preserve" text-anchor="middle" x="2269.38" y="-197.25" font-family="Helvetica,sans-Serif" font-size="10.00">/PhysicalMaterialMask.h</text>
</a>
</g>
</g>
<!-- Node1&#45;&gt;Node26 -->
<g id="edge27_Node000001_Node000026" class="edge">
<title>Node1&#45;&gt;Node26</title>
<g id="a_edge27_Node000001_Node000026"><a xlink:title=" ">
<path fill="none" stroke="#63b8ff" d="M2094.51,-285.03C2125.06,-273.76 2160.13,-260.82 2190.81,-249.49"/>
<polygon fill="#63b8ff" stroke="#63b8ff" points="2093.5,-281.67 2085.33,-288.42 2095.93,-288.24 2093.5,-281.67"/>
</a>
</g>
</g>
<!-- Node27 -->
<g id="Node000027" class="node">
<title>Node27</title>
<g id="a_Node000027"><a xlink:href="$VirtualTextureAdapter_8h.html" xlink:title=" ">
<polygon fill="white" stroke="#666666" points="2558.12,-249 2378.62,-249 2378.62,-190 2558.12,-190 2558.12,-249"/>
<text xml:space="preserve" text-anchor="start" x="2386.62" y="-235.5" font-family="Helvetica,sans-Serif" font-size="10.00">/opt/unreal&#45;engine</text>
<text xml:space="preserve" text-anchor="start" x="2386.62" y="-222.75" font-family="Helvetica,sans-Serif" font-size="10.00">/Engine/Source/Runtime</text>
<text xml:space="preserve" text-anchor="start" x="2386.62" y="-210" font-family="Helvetica,sans-Serif" font-size="10.00">/Engine/Classes/VT/VirtualTexture</text>
<text xml:space="preserve" text-anchor="middle" x="2468.38" y="-197.25" font-family="Helvetica,sans-Serif" font-size="10.00">Adapter.h</text>
</a>
</g>
</g>
<!-- Node1&#45;&gt;Node27 -->
<g id="edge28_Node000001_Node000027" class="edge">
<title>Node1&#45;&gt;Node27</title>
<g id="a_edge28_Node000001_Node000027"><a xlink:title=" ">
<path fill="none" stroke="#63b8ff" d="M2095.12,-301.53C2166.75,-289.96 2275.8,-270.99 2369.38,-249 2372.33,-248.3 2375.34,-247.58 2378.37,-246.82"/>
<polygon fill="#63b8ff" stroke="#63b8ff" points="2094.77,-298.04 2085.45,-303.08 2095.88,-304.95 2094.77,-298.04"/>
</a>
</g>
</g>
<!-- Node28 -->
<g id="Node000028" class="node">
<title>Node28</title>
<g id="a_Node000028"><a xlink:href="$VirtualTextureBuilder_8h.html" xlink:title=" ">
<polygon fill="white" stroke="#666666" points="2756.12,-249 2576.62,-249 2576.62,-190 2756.12,-190 2756.12,-249"/>
<text xml:space="preserve" text-anchor="start" x="2584.62" y="-235.5" font-family="Helvetica,sans-Serif" font-size="10.00">/opt/unreal&#45;engine</text>
<text xml:space="preserve" text-anchor="start" x="2584.62" y="-222.75" font-family="Helvetica,sans-Serif" font-size="10.00">/Engine/Source/Runtime</text>
<text xml:space="preserve" text-anchor="start" x="2584.62" y="-210" font-family="Helvetica,sans-Serif" font-size="10.00">/Engine/Classes/VT/VirtualTexture</text>
<text xml:space="preserve" text-anchor="middle" x="2666.38" y="-197.25" font-family="Helvetica,sans-Serif" font-size="10.00">Builder.h</text>
</a>
</g>
</g>
<!-- Node1&#45;&gt;Node28 -->
<g id="edge29_Node000001_Node000028" class="edge">
<title>Node1&#45;&gt;Node28</title>
<g id="a_edge29_Node000001_Node000028"><a xlink:title=" ">
<path fill="none" stroke="#63b8ff" d="M2095.31,-308.39C2202.46,-300.46 2400.96,-282.48 2567.38,-249 2570.27,-248.42 2573.2,-247.79 2576.15,-247.13"/>
<polygon fill="#63b8ff" stroke="#63b8ff" points="2095.19,-304.89 2085.47,-309.11 2095.7,-311.87 2095.19,-304.89"/>
</a>
</g>
</g>
<!-- Node3&#45;&gt;Node2 -->
<g id="edge3_Node000003_Node000002" class="edge">
<title>Node3&#45;&gt;Node2</title>
<g id="a_edge3_Node000003_Node000002"><a xlink:title=" ">
<path fill="none" stroke="#63b8ff" d="M711.88,-211.82C552.92,-197.97 200.31,-166.35 146.38,-154 143.28,-153.29 140.15,-152.5 137,-151.63"/>
<polygon fill="#63b8ff" stroke="#63b8ff" points="711.21,-215.28 721.48,-212.66 711.82,-208.3 711.21,-215.28"/>
</a>
</g>
</g>
<!-- Node4 -->
<g id="Node000004" class="node">
<title>Node4</title>
<g id="a_Node000004"><a xlink:href="$LightMapTexture2D_8h.html" xlink:title=" ">
<polygon fill="white" stroke="#666666" points="287.5,-154 155.25,-154 155.25,-95 287.5,-95 287.5,-154"/>
<text xml:space="preserve" text-anchor="start" x="163.25" y="-140.5" font-family="Helvetica,sans-Serif" font-size="10.00">/opt/unreal&#45;engine</text>
<text xml:space="preserve" text-anchor="start" x="163.25" y="-127.75" font-family="Helvetica,sans-Serif" font-size="10.00">/Engine/Source/Runtime</text>
<text xml:space="preserve" text-anchor="start" x="163.25" y="-115" font-family="Helvetica,sans-Serif" font-size="10.00">/Engine/Classes/Engine</text>
<text xml:space="preserve" text-anchor="middle" x="221.38" y="-102.25" font-family="Helvetica,sans-Serif" font-size="10.00">/LightMapTexture2D.h</text>
</a>
</g>
</g>
<!-- Node3&#45;&gt;Node4 -->
<g id="edge4_Node000003_Node000004" class="edge">
<title>Node3&#45;&gt;Node4</title>
<g id="a_edge4_Node000003_Node000004"><a xlink:title=" ">
<path fill="none" stroke="#63b8ff" d="M711.56,-213.81C613.7,-206.65 441.09,-189.87 297.38,-154 294.23,-153.22 291.04,-152.34 287.83,-151.4"/>
<polygon fill="#63b8ff" stroke="#63b8ff" points="711.09,-217.28 721.32,-214.5 711.59,-210.3 711.09,-217.28"/>
</a>
</g>
</g>
<!-- Node5 -->
<g id="Node000005" class="node">
<title>Node5</title>
<g id="a_Node000005"><a xlink:href="$ShadowMapTexture2D_8h.html" xlink:title=" ">
<polygon fill="white" stroke="#666666" points="442.75,-154 306,-154 306,-95 442.75,-95 442.75,-154"/>
<text xml:space="preserve" text-anchor="start" x="314" y="-140.5" font-family="Helvetica,sans-Serif" font-size="10.00">/opt/unreal&#45;engine</text>
<text xml:space="preserve" text-anchor="start" x="314" y="-127.75" font-family="Helvetica,sans-Serif" font-size="10.00">/Engine/Source/Runtime</text>
<text xml:space="preserve" text-anchor="start" x="314" y="-115" font-family="Helvetica,sans-Serif" font-size="10.00">/Engine/Classes/Engine</text>
<text xml:space="preserve" text-anchor="middle" x="374.38" y="-102.25" font-family="Helvetica,sans-Serif" font-size="10.00">/ShadowMapTexture2D.h</text>
</a>
</g>
</g>
<!-- Node3&#45;&gt;Node5 -->
<g id="edge5_Node000003_Node000005" class="edge">
<title>Node3&#45;&gt;Node5</title>
<g id="a_edge5_Node000003_Node000005"><a xlink:title=" ">
<path fill="none" stroke="#63b8ff" d="M712,-206.74C644.05,-195.65 542.83,-177.27 456.38,-154 452.01,-152.82 447.54,-151.53 443.05,-150.17"/>
<polygon fill="#63b8ff" stroke="#63b8ff" points="711.1,-210.14 721.53,-208.28 712.22,-203.23 711.1,-210.14"/>
</a>
</g>
</g>
<!-- Node6 -->
<g id="Node000006" class="node">
<title>Node6</title>
<g id="a_Node000006"><a xlink:href="$Texture2DArray_8cpp.html" xlink:title=" ">
<polygon fill="white" stroke="#666666" points="583.5,-59 451.25,-59 451.25,0 583.5,0 583.5,-59"/>
<text xml:space="preserve" text-anchor="start" x="459.25" y="-45.5" font-family="Helvetica,sans-Serif" font-size="10.00">/opt/unreal&#45;engine</text>
<text xml:space="preserve" text-anchor="start" x="459.25" y="-32.75" font-family="Helvetica,sans-Serif" font-size="10.00">/Engine/Source/Runtime</text>
<text xml:space="preserve" text-anchor="start" x="459.25" y="-20" font-family="Helvetica,sans-Serif" font-size="10.00">/Engine/Classes/Engine</text>
<text xml:space="preserve" text-anchor="middle" x="517.38" y="-7.25" font-family="Helvetica,sans-Serif" font-size="10.00">/Texture2DArray.cpp</text>
</a>
</g>
</g>
<!-- Node3&#45;&gt;Node6 -->
<g id="edge6_Node000003_Node000006" class="edge">
<title>Node3&#45;&gt;Node6</title>
<g id="a_edge6_Node000003_Node000006"><a xlink:title=" ">
<path fill="none" stroke="#63b8ff" d="M711.53,-212.65C632.14,-204.88 516.82,-187.97 489.38,-154 467.62,-127.06 483.23,-86.53 498.46,-59.32"/>
<polygon fill="#63b8ff" stroke="#63b8ff" points="711.18,-216.14 721.46,-213.59 711.84,-209.17 711.18,-216.14"/>
</a>
</g>
</g>
<!-- Node7 -->
<g id="Node000007" class="node">
<title>Node7</title>
<g id="a_Node000007"><a xlink:href="$Texture2DArray_8h.html" xlink:title=" ">
<polygon fill="white" stroke="#666666" points="630.5,-154 498.25,-154 498.25,-95 630.5,-95 630.5,-154"/>
<text xml:space="preserve" text-anchor="start" x="506.25" y="-140.5" font-family="Helvetica,sans-Serif" font-size="10.00">/opt/unreal&#45;engine</text>
<text xml:space="preserve" text-anchor="start" x="506.25" y="-127.75" font-family="Helvetica,sans-Serif" font-size="10.00">/Engine/Source/Runtime</text>
<text xml:space="preserve" text-anchor="start" x="506.25" y="-115" font-family="Helvetica,sans-Serif" font-size="10.00">/Engine/Classes/Engine</text>
<text xml:space="preserve" text-anchor="middle" x="564.38" y="-102.25" font-family="Helvetica,sans-Serif" font-size="10.00">/Texture2DArray.h</text>
</a>
</g>
</g>
<!-- Node3&#45;&gt;Node7 -->
<g id="edge7_Node000003_Node000007" class="edge">
<title>Node3&#45;&gt;Node7</title>
<g id="a_edge7_Node000003_Node000007"><a xlink:title=" ">
<path fill="none" stroke="#63b8ff" d="M712.39,-186.68C685.87,-175.72 656.41,-163.54 630.8,-152.95"/>
<polygon fill="#63b8ff" stroke="#63b8ff" points="710.8,-189.81 721.38,-190.4 713.48,-183.34 710.8,-189.81"/>
</a>
</g>
</g>
<!-- Node8 -->
<g id="Node000008" class="node">
<title>Node8</title>
<g id="a_Node000008"><a xlink:href="$TextureLightProfile_8h.html" xlink:title=" ">
<polygon fill="white" stroke="#666666" points="780.5,-154 648.25,-154 648.25,-95 780.5,-95 780.5,-154"/>
<text xml:space="preserve" text-anchor="start" x="656.25" y="-140.5" font-family="Helvetica,sans-Serif" font-size="10.00">/opt/unreal&#45;engine</text>
<text xml:space="preserve" text-anchor="start" x="656.25" y="-127.75" font-family="Helvetica,sans-Serif" font-size="10.00">/Engine/Source/Runtime</text>
<text xml:space="preserve" text-anchor="start" x="656.25" y="-115" font-family="Helvetica,sans-Serif" font-size="10.00">/Engine/Classes/Engine</text>
<text xml:space="preserve" text-anchor="middle" x="714.38" y="-102.25" font-family="Helvetica,sans-Serif" font-size="10.00">/TextureLightProfile.h</text>
</a>
</g>
</g>
<!-- Node3&#45;&gt;Node8 -->
<g id="edge9_Node000003_Node000008" class="edge">
<title>Node3&#45;&gt;Node8</title>
<g id="a_edge9_Node000003_Node000008"><a xlink:title=" ">
<path fill="none" stroke="#63b8ff" d="M758.86,-180.66C751.79,-171.9 744.38,-162.71 737.68,-154.4"/>
<polygon fill="#63b8ff" stroke="#63b8ff" points="756.1,-182.82 765.11,-188.41 761.55,-178.42 756.1,-182.82"/>
</a>
</g>
</g>
<!-- Node9 -->
<g id="Node000009" class="node">
<title>Node9</title>
<g id="a_Node000009"><a xlink:href="$VolumeTexture_8h.html" xlink:title=" ">
<polygon fill="white" stroke="#666666" points="930.5,-154 798.25,-154 798.25,-95 930.5,-95 930.5,-154"/>
<text xml:space="preserve" text-anchor="start" x="806.25" y="-140.5" font-family="Helvetica,sans-Serif" font-size="10.00">/opt/unreal&#45;engine</text>
<text xml:space="preserve" text-anchor="start" x="806.25" y="-127.75" font-family="Helvetica,sans-Serif" font-size="10.00">/Engine/Source/Runtime</text>
<text xml:space="preserve" text-anchor="start" x="806.25" y="-115" font-family="Helvetica,sans-Serif" font-size="10.00">/Engine/Classes/Engine</text>
<text xml:space="preserve" text-anchor="middle" x="864.38" y="-102.25" font-family="Helvetica,sans-Serif" font-size="10.00">/VolumeTexture.h</text>
</a>
</g>
</g>
<!-- Node3&#45;&gt;Node9 -->
<g id="edge10_Node000003_Node000009" class="edge">
<title>Node3&#45;&gt;Node9</title>
<g id="a_edge10_Node000003_Node000009"><a xlink:title=" ">
<path fill="none" stroke="#63b8ff" d="M819.89,-180.66C826.96,-171.9 834.37,-162.71 841.07,-154.4"/>
<polygon fill="#63b8ff" stroke="#63b8ff" points="817.2,-178.42 813.64,-188.41 822.65,-182.82 817.2,-178.42"/>
</a>
</g>
</g>
<!-- Node11 -->
<g id="Node000011" class="node">
<title>Node11</title>
<g id="a_Node000011"><a xlink:href="$ImportanceSamplingLibrary_8h.html" xlink:title=" ">
<polygon fill="white" stroke="#666666" points="1110.12,-154 948.62,-154 948.62,-95 1110.12,-95 1110.12,-154"/>
<text xml:space="preserve" text-anchor="start" x="956.62" y="-140.5" font-family="Helvetica,sans-Serif" font-size="10.00">/opt/unreal&#45;engine</text>
<text xml:space="preserve" text-anchor="start" x="956.62" y="-127.75" font-family="Helvetica,sans-Serif" font-size="10.00">/Engine/Source/Runtime</text>
<text xml:space="preserve" text-anchor="start" x="956.62" y="-115" font-family="Helvetica,sans-Serif" font-size="10.00">/Engine/Classes/Kismet</text>
<text xml:space="preserve" text-anchor="middle" x="1029.38" y="-102.25" font-family="Helvetica,sans-Serif" font-size="10.00">/ImportanceSamplingLibrary.h</text>
</a>
</g>
</g>
<!-- Node3&#45;&gt;Node11 -->
<g id="edge12_Node000003_Node000011" class="edge">
<title>Node3&#45;&gt;Node11</title>
<g id="a_edge12_Node000003_Node000011"><a xlink:title=" ">
<path fill="none" stroke="#63b8ff" d="M866.54,-188.6C894.78,-177.66 926.66,-165.3 954.68,-154.45"/>
<polygon fill="#63b8ff" stroke="#63b8ff" points="865.38,-185.29 857.32,-192.17 867.91,-191.82 865.38,-185.29"/>
</a>
</g>
</g>
<!-- Node12 -->
<g id="Node000012" class="node">
<title>Node12</title>
<g id="a_Node000012"><a xlink:href="$LightmapVirtualTexture_8h.html" xlink:title=" ">
<polygon fill="white" stroke="#666666" points="1317,-154 1127.75,-154 1127.75,-95 1317,-95 1317,-154"/>
<text xml:space="preserve" text-anchor="start" x="1135.75" y="-140.5" font-family="Helvetica,sans-Serif" font-size="10.00">/opt/unreal&#45;engine</text>
<text xml:space="preserve" text-anchor="start" x="1135.75" y="-127.75" font-family="Helvetica,sans-Serif" font-size="10.00">/Engine/Source/Runtime</text>
<text xml:space="preserve" text-anchor="start" x="1135.75" y="-115" font-family="Helvetica,sans-Serif" font-size="10.00">/Engine/Classes/VT/LightmapVirtual</text>
<text xml:space="preserve" text-anchor="middle" x="1222.38" y="-102.25" font-family="Helvetica,sans-Serif" font-size="10.00">Texture.h</text>
</a>
</g>
</g>
<!-- Node3&#45;&gt;Node12 -->
<g id="edge13_Node000003_Node000012" class="edge">
<title>Node3&#45;&gt;Node12</title>
<g id="a_edge13_Node000003_Node000012"><a xlink:title=" ">
<path fill="none" stroke="#63b8ff" d="M867.06,-205.06C934.17,-193.03 1033.57,-174.22 1119.38,-154 1121.99,-153.38 1124.65,-152.74 1127.32,-152.09"/>
<polygon fill="#63b8ff" stroke="#63b8ff" points="866.47,-201.61 857.24,-206.81 867.7,-208.5 866.47,-201.61"/>
</a>
</g>
</g>
<!-- Node13 -->
<g id="Node000013" class="node">
<title>Node13</title>
<g id="a_Node000013"><a xlink:href="$MeshPaintVirtualTexture_8h.html" xlink:title=" ">
<polygon fill="white" stroke="#666666" points="1497.5,-154 1335.25,-154 1335.25,-95 1497.5,-95 1497.5,-154"/>
<text xml:space="preserve" text-anchor="start" x="1343.25" y="-140.5" font-family="Helvetica,sans-Serif" font-size="10.00">/opt/unreal&#45;engine</text>
<text xml:space="preserve" text-anchor="start" x="1343.25" y="-127.75" font-family="Helvetica,sans-Serif" font-size="10.00">/Engine/Source/Runtime</text>
<text xml:space="preserve" text-anchor="start" x="1343.25" y="-115" font-family="Helvetica,sans-Serif" font-size="10.00">/Engine/Classes/VT/MeshPaint</text>
<text xml:space="preserve" text-anchor="middle" x="1416.38" y="-102.25" font-family="Helvetica,sans-Serif" font-size="10.00">VirtualTexture.h</text>
</a>
</g>
</g>
<!-- Node3&#45;&gt;Node13 -->
<g id="edge14_Node000003_Node000013" class="edge">
<title>Node3&#45;&gt;Node13</title>
<g id="a_edge14_Node000003_Node000013"><a xlink:title=" ">
<path fill="none" stroke="#63b8ff" d="M867.2,-213.74C972.34,-206.27 1165.16,-188.89 1326.38,-154 1329.26,-153.38 1332.18,-152.7 1335.12,-151.98"/>
<polygon fill="#63b8ff" stroke="#63b8ff" points="867,-210.24 857.26,-214.43 867.48,-217.23 867,-210.24"/>
</a>
</g>
</g>
<!-- Node14 -->
<g id="Node000014" class="node">
<title>Node14</title>
<g id="a_Node000014"><a xlink:href="$VirtualTexture_8h.html" xlink:title=" ">
<polygon fill="white" stroke="#666666" points="1703.62,-147.62 1515.12,-147.62 1515.12,-101.38 1703.62,-101.38 1703.62,-147.62"/>
<text xml:space="preserve" text-anchor="start" x="1523.12" y="-134.12" font-family="Helvetica,sans-Serif" font-size="10.00">/opt/unreal&#45;engine</text>
<text xml:space="preserve" text-anchor="start" x="1523.12" y="-121.38" font-family="Helvetica,sans-Serif" font-size="10.00">/Engine/Source/Runtime</text>
<text xml:space="preserve" text-anchor="middle" x="1609.38" y="-108.62" font-family="Helvetica,sans-Serif" font-size="10.00">/Engine/Classes/VT/VirtualTexture.h</text>
</a>
</g>
</g>
<!-- Node3&#45;&gt;Node14 -->
<g id="edge15_Node000003_Node000014" class="edge">
<title>Node3&#45;&gt;Node14</title>
<g id="a_edge15_Node000003_Node000014"><a xlink:title=" ">
<path fill="none" stroke="#63b8ff" d="M866.83,-216.1C998.98,-211 1276.07,-195.87 1506.38,-154 1515.32,-152.37 1524.61,-150.33 1533.8,-148.08"/>
<polygon fill="#63b8ff" stroke="#63b8ff" points="867.02,-212.59 857.16,-216.47 867.28,-219.59 867.02,-212.59"/>
</a>
</g>
</g>
<!-- Node7&#45;&gt;Node6 -->
<g id="edge8_Node000007_Node000006" class="edge">
<title>Node7&#45;&gt;Node6</title>
<g id="a_edge8_Node000007_Node000006"><a xlink:title=" ">
<path fill="none" stroke="#63b8ff" d="M544.69,-84.55C540.43,-76.12 536,-67.36 531.98,-59.4"/>
<polygon fill="#63b8ff" stroke="#63b8ff" points="541.44,-85.89 549.08,-93.23 547.69,-82.73 541.44,-85.89"/>
</a>
</g>
</g>
<!-- Node10 -->
<g id="Node000010" class="node">
<title>Node10</title>
<g id="a_Node000010"><a xlink:href="$SparseVolumeTexture_8h.html" xlink:title=" ">
<polygon fill="white" stroke="#666666" points="949.62,-59 779.12,-59 779.12,0 949.62,0 949.62,-59"/>
<text xml:space="preserve" text-anchor="start" x="787.12" y="-45.5" font-family="Helvetica,sans-Serif" font-size="10.00">/opt/unreal&#45;engine</text>
<text xml:space="preserve" text-anchor="start" x="787.12" y="-32.75" font-family="Helvetica,sans-Serif" font-size="10.00">/Engine/Source/Runtime</text>
<text xml:space="preserve" text-anchor="start" x="787.12" y="-20" font-family="Helvetica,sans-Serif" font-size="10.00">/Engine/Classes/SparseVolume</text>
<text xml:space="preserve" text-anchor="middle" x="864.38" y="-7.25" font-family="Helvetica,sans-Serif" font-size="10.00">Texture/SparseVolumeTexture.h</text>
</a>
</g>
</g>
<!-- Node9&#45;&gt;Node10 -->
<g id="edge11_Node000009_Node000010" class="edge">
<title>Node9&#45;&gt;Node10</title>
<g id="a_edge11_Node000009_Node000010"><a xlink:title=" ">
<path fill="none" stroke="#63b8ff" d="M864.38,-83.16C864.38,-75.16 864.38,-66.92 864.38,-59.4"/>
<polygon fill="#63b8ff" stroke="#63b8ff" points="860.88,-83.07 864.38,-93.07 867.88,-83.07 860.88,-83.07"/>
</a>
</g>
</g>
<!-- Node17 -->
<g id="Node000017" class="node">
<title>Node17</title>
<g id="a_Node000017"><a xlink:href="$MapBuildDataRegistry_8h.html" xlink:title=" ">
<polygon fill="white" stroke="#666666" points="1857.38,-154 1721.38,-154 1721.38,-95 1857.38,-95 1857.38,-154"/>
<text xml:space="preserve" text-anchor="start" x="1729.38" y="-140.5" font-family="Helvetica,sans-Serif" font-size="10.00">/opt/unreal&#45;engine</text>
<text xml:space="preserve" text-anchor="start" x="1729.38" y="-127.75" font-family="Helvetica,sans-Serif" font-size="10.00">/Engine/Source/Runtime</text>
<text xml:space="preserve" text-anchor="start" x="1729.38" y="-115" font-family="Helvetica,sans-Serif" font-size="10.00">/Engine/Classes/Engine</text>
<text xml:space="preserve" text-anchor="middle" x="1789.38" y="-102.25" font-family="Helvetica,sans-Serif" font-size="10.00">/MapBuildDataRegistry.h</text>
</a>
</g>
</g>
<!-- Node16&#45;&gt;Node17 -->
<g id="edge18_Node000016_Node000017" class="edge">
<title>Node16&#45;&gt;Node17</title>
<g id="a_edge18_Node000016_Node000017"><a xlink:title=" ">
<path fill="none" stroke="#63b8ff" d="M1885.1,-183.69C1869.22,-174.04 1852.17,-163.67 1836.92,-154.4"/>
<polygon fill="#63b8ff" stroke="#63b8ff" points="1883.15,-186.59 1893.51,-188.8 1886.78,-180.61 1883.15,-186.59"/>
</a>
</g>
</g>
<!-- Node18 -->
<g id="Node000018" class="node">
<title>Node18</title>
<g id="a_Node000018"><a xlink:href="$TextureCubeArray_8h.html" xlink:title=" ">
<polygon fill="white" stroke="#666666" points="2007.5,-154 1875.25,-154 1875.25,-95 2007.5,-95 2007.5,-154"/>
<text xml:space="preserve" text-anchor="start" x="1883.25" y="-140.5" font-family="Helvetica,sans-Serif" font-size="10.00">/opt/unreal&#45;engine</text>
<text xml:space="preserve" text-anchor="start" x="1883.25" y="-127.75" font-family="Helvetica,sans-Serif" font-size="10.00">/Engine/Source/Runtime</text>
<text xml:space="preserve" text-anchor="start" x="1883.25" y="-115" font-family="Helvetica,sans-Serif" font-size="10.00">/Engine/Classes/Engine</text>
<text xml:space="preserve" text-anchor="middle" x="1941.38" y="-102.25" font-family="Helvetica,sans-Serif" font-size="10.00">/TextureCubeArray.h</text>
</a>
</g>
</g>
<!-- Node16&#45;&gt;Node18 -->
<g id="edge19_Node000016_Node000018" class="edge">
<title>Node16&#45;&gt;Node18</title>
<g id="a_edge19_Node000016_Node000018"><a xlink:title=" ">
<path fill="none" stroke="#63b8ff" d="M1941.94,-178.16C1941.86,-170.16 1941.77,-161.92 1941.69,-154.4"/>
<polygon fill="#63b8ff" stroke="#63b8ff" points="1938.44,-178.11 1942.05,-188.07 1945.44,-178.03 1938.44,-178.11"/>
</a>
</g>
</g>
<!-- Node20 -->
<g id="Node000020" class="node">
<title>Node20</title>
<g id="a_Node000020"><a xlink:href="$TextureRenderTarget2D_8h.html" xlink:title=" ">
<polygon fill="white" stroke="#666666" points="2167.38,-154 2025.38,-154 2025.38,-95 2167.38,-95 2167.38,-154"/>
<text xml:space="preserve" text-anchor="start" x="2033.38" y="-140.5" font-family="Helvetica,sans-Serif" font-size="10.00">/opt/unreal&#45;engine</text>
<text xml:space="preserve" text-anchor="start" x="2033.38" y="-127.75" font-family="Helvetica,sans-Serif" font-size="10.00">/Engine/Source/Runtime</text>
<text xml:space="preserve" text-anchor="start" x="2033.38" y="-115" font-family="Helvetica,sans-Serif" font-size="10.00">/Engine/Classes/Engine</text>
<text xml:space="preserve" text-anchor="middle" x="2096.38" y="-102.25" font-family="Helvetica,sans-Serif" font-size="10.00">/TextureRenderTarget2D.h</text>
</a>
</g>
</g>
<!-- Node19&#45;&gt;Node20 -->
<g id="edge21_Node000019_Node000020" class="edge">
<title>Node19&#45;&gt;Node20</title>
<g id="a_edge21_Node000019_Node000020"><a xlink:title=" ">
<path fill="none" stroke="#63b8ff" d="M2095.24,-178.16C2095.41,-170.16 2095.59,-161.92 2095.75,-154.4"/>
<polygon fill="#63b8ff" stroke="#63b8ff" points="2091.75,-178 2095.03,-188.07 2098.74,-178.15 2091.75,-178"/>
</a>
</g>
</g>
<!-- Node23 -->
<g id="Node000023" class="node">
<title>Node23</title>
<g id="a_Node000023"><a xlink:href="$TextureRenderTarget2DArray_8h.html" xlink:title=" ">
<polygon fill="white" stroke="#666666" points="2351.75,-154 2185,-154 2185,-95 2351.75,-95 2351.75,-154"/>
<text xml:space="preserve" text-anchor="start" x="2193" y="-140.5" font-family="Helvetica,sans-Serif" font-size="10.00">/opt/unreal&#45;engine</text>
<text xml:space="preserve" text-anchor="start" x="2193" y="-127.75" font-family="Helvetica,sans-Serif" font-size="10.00">/Engine/Source/Runtime</text>
<text xml:space="preserve" text-anchor="start" x="2193" y="-115" font-family="Helvetica,sans-Serif" font-size="10.00">/Engine/Classes/Engine</text>
<text xml:space="preserve" text-anchor="middle" x="2268.38" y="-102.25" font-family="Helvetica,sans-Serif" font-size="10.00">/TextureRenderTarget2DArray.h</text>
</a>
</g>
</g>
<!-- Node19&#45;&gt;Node23 -->
<g id="edge24_Node000019_Node000023" class="edge">
<title>Node19&#45;&gt;Node23</title>
<g id="a_edge24_Node000019_Node000023"><a xlink:title=" ">
<path fill="none" stroke="#63b8ff" d="M2158.49,-184.23C2176.83,-174.43 2196.63,-163.84 2214.31,-154.4"/>
<polygon fill="#63b8ff" stroke="#63b8ff" points="2156.98,-181.07 2149.81,-188.87 2160.28,-187.24 2156.98,-181.07"/>
</a>
</g>
</g>
<!-- Node24 -->
<g id="Node000024" class="node">
<title>Node24</title>
<g id="a_Node000024"><a xlink:href="$TextureRenderTargetCube_8h.html" xlink:title=" ">
<polygon fill="white" stroke="#666666" points="2523,-154 2369.75,-154 2369.75,-95 2523,-95 2523,-154"/>
<text xml:space="preserve" text-anchor="start" x="2377.75" y="-140.5" font-family="Helvetica,sans-Serif" font-size="10.00">/opt/unreal&#45;engine</text>
<text xml:space="preserve" text-anchor="start" x="2377.75" y="-127.75" font-family="Helvetica,sans-Serif" font-size="10.00">/Engine/Source/Runtime</text>
<text xml:space="preserve" text-anchor="start" x="2377.75" y="-115" font-family="Helvetica,sans-Serif" font-size="10.00">/Engine/Classes/Engine</text>
<text xml:space="preserve" text-anchor="middle" x="2446.38" y="-102.25" font-family="Helvetica,sans-Serif" font-size="10.00">/TextureRenderTargetCube.h</text>
</a>
</g>
</g>
<!-- Node19&#45;&gt;Node24 -->
<g id="edge25_Node000019_Node000024" class="edge">
<title>Node19&#45;&gt;Node24</title>
<g id="a_edge25_Node000019_Node000024"><a xlink:title=" ">
<path fill="none" stroke="#63b8ff" d="M2171.78,-189.53C2254.61,-167.26 2280.17,-174.75 2360.38,-154 2363.42,-153.21 2366.52,-152.37 2369.63,-151.5"/>
<polygon fill="#63b8ff" stroke="#63b8ff" points="2170.99,-186.11 2162.29,-192.15 2172.86,-192.86 2170.99,-186.11"/>
</a>
</g>
</g>
<!-- Node25 -->
<g id="Node000025" class="node">
<title>Node25</title>
<g id="a_Node000025"><a xlink:href="$TextureRenderTargetVolume_8h.html" xlink:title=" ">
<polygon fill="white" stroke="#666666" points="2707.38,-154 2541.38,-154 2541.38,-95 2707.38,-95 2707.38,-154"/>
<text xml:space="preserve" text-anchor="start" x="2549.38" y="-140.5" font-family="Helvetica,sans-Serif" font-size="10.00">/opt/unreal&#45;engine</text>
<text xml:space="preserve" text-anchor="start" x="2549.38" y="-127.75" font-family="Helvetica,sans-Serif" font-size="10.00">/Engine/Source/Runtime</text>
<text xml:space="preserve" text-anchor="start" x="2549.38" y="-115" font-family="Helvetica,sans-Serif" font-size="10.00">/Engine/Classes/Engine</text>
<text xml:space="preserve" text-anchor="middle" x="2624.38" y="-102.25" font-family="Helvetica,sans-Serif" font-size="10.00">/TextureRenderTargetVolume.h</text>
</a>
</g>
</g>
<!-- Node19&#45;&gt;Node25 -->
<g id="edge26_Node000019_Node000025" class="edge">
<title>Node19&#45;&gt;Node25</title>
<g id="a_edge26_Node000019_Node000025"><a xlink:title=" ">
<path fill="none" stroke="#63b8ff" d="M2171.78,-189.69C2329.33,-154.34 2377.04,-185.43 2532.38,-154 2535.24,-153.42 2538.15,-152.79 2541.07,-152.11"/>
<polygon fill="#63b8ff" stroke="#63b8ff" points="2171.18,-186.24 2162.22,-191.9 2172.75,-193.06 2171.18,-186.24"/>
</a>
</g>
</g>
<!-- Node21 -->
<g id="Node000021" class="node">
<title>Node21</title>
<g id="a_Node000021"><a xlink:href="$CanvasRenderTarget2D_8h.html" xlink:title=" ">
<polygon fill="white" stroke="#666666" points="2086.38,-59 1944.38,-59 1944.38,0 2086.38,0 2086.38,-59"/>
<text xml:space="preserve" text-anchor="start" x="1952.38" y="-45.5" font-family="Helvetica,sans-Serif" font-size="10.00">/opt/unreal&#45;engine</text>
<text xml:space="preserve" text-anchor="start" x="1952.38" y="-32.75" font-family="Helvetica,sans-Serif" font-size="10.00">/Engine/Source/Runtime</text>
<text xml:space="preserve" text-anchor="start" x="1952.38" y="-20" font-family="Helvetica,sans-Serif" font-size="10.00">/Engine/Classes/Engine</text>
<text xml:space="preserve" text-anchor="middle" x="2015.38" y="-7.25" font-family="Helvetica,sans-Serif" font-size="10.00">/CanvasRenderTarget2D.h</text>
</a>
</g>
</g>
<!-- Node20&#45;&gt;Node21 -->
<g id="edge22_Node000020_Node000021" class="edge">
<title>Node20&#45;&gt;Node21</title>
<g id="a_edge22_Node000020_Node000021"><a xlink:title=" ">
<path fill="none" stroke="#63b8ff" d="M2063.66,-85.94C2055.95,-77.09 2047.86,-67.79 2040.54,-59.4"/>
<polygon fill="#63b8ff" stroke="#63b8ff" points="2060.99,-88.2 2070.2,-93.44 2066.27,-83.6 2060.99,-88.2"/>
</a>
</g>
</g>
<!-- Node22 -->
<g id="Node000022" class="node">
<title>Node22</title>
<g id="a_Node000022"><a xlink:href="$KismetRenderingLibrary_8h.html" xlink:title=" ">
<polygon fill="white" stroke="#666666" points="2248.5,-59 2104.25,-59 2104.25,0 2248.5,0 2248.5,-59"/>
<text xml:space="preserve" text-anchor="start" x="2112.25" y="-45.5" font-family="Helvetica,sans-Serif" font-size="10.00">/opt/unreal&#45;engine</text>
<text xml:space="preserve" text-anchor="start" x="2112.25" y="-32.75" font-family="Helvetica,sans-Serif" font-size="10.00">/Engine/Source/Runtime</text>
<text xml:space="preserve" text-anchor="start" x="2112.25" y="-20" font-family="Helvetica,sans-Serif" font-size="10.00">/Engine/Classes/Kismet</text>
<text xml:space="preserve" text-anchor="middle" x="2176.38" y="-7.25" font-family="Helvetica,sans-Serif" font-size="10.00">/KismetRenderingLibrary.h</text>
</a>
</g>
</g>
<!-- Node20&#45;&gt;Node22 -->
<g id="edge23_Node000020_Node000022" class="edge">
<title>Node20&#45;&gt;Node22</title>
<g id="a_edge23_Node000020_Node000022"><a xlink:title=" ">
<path fill="none" stroke="#63b8ff" d="M2128.69,-85.94C2136.3,-77.09 2144.29,-67.79 2151.52,-59.4"/>
<polygon fill="#63b8ff" stroke="#63b8ff" points="2126.1,-83.57 2122.24,-93.44 2131.41,-88.14 2126.1,-83.57"/>
</a>
</g>
</g>
</g>
</svg>
