<?xml version="1.0" encoding="UTF-8" standalone="no"?>
<!DOCTYPE svg PUBLIC "-//W3C//DTD SVG 1.1//EN"
 "http://www.w3.org/Graphics/SVG/1.1/DTD/svg11.dtd">
<!-- Generated by graphviz version 14.1.4 (0)
 -->
<!-- Title: /opt/unreal&#45;engine/Engine/Source/Runtime/Engine/Classes/Animation/TimeStretchCurve.h Pages: 1 -->
<svg width="720pt" height="124pt"
 viewBox="0.00 0.00 720.00 124.00" xmlns="http://www.w3.org/2000/svg" xmlns:xlink="http://www.w3.org/1999/xlink">
<g id="graph0" class="graph" transform="scale(1 1) rotate(0) translate(4 119.75)">
<title>/opt/unreal&#45;engine/Engine/Source/Runtime/Engine/Classes/Animation/TimeStretchCurve.h</title>
<!-- Node1 -->
<g id="Node000001" class="node">
<title>Node1</title>
<g id="a_Node000001"><a xlink:title=" ">
<polygon fill="#999999" stroke="#666666" points="377.5,-115.75 231.75,-115.75 231.75,-56.75 377.5,-56.75 377.5,-115.75"/>
<text xml:space="preserve" text-anchor="start" x="239.75" y="-102.25" font-family="Helvetica,sans-Serif" font-size="10.00">/opt/unreal&#45;engine</text>
<text xml:space="preserve" text-anchor="start" x="239.75" y="-89.5" font-family="Helvetica,sans-Serif" font-size="10.00">/Engine/Source/Runtime</text>
<text xml:space="preserve" text-anchor="start" x="239.75" y="-76.75" font-family="Helvetica,sans-Serif" font-size="10.00">/Engine/Classes/Animation</text>
<text xml:space="preserve" text-anchor="middle" x="304.62" y="-64" font-family="Helvetica,sans-Serif" font-size="10.00">/TimeStretchCurve.h</text>
</a>
</g>
</g>
<!-- Node2 -->
<g id="Node000002" class="node">
<title>Node2</title>
<g id="a_Node000002"><a xlink:title=" ">
<polygon fill="#e0e0e0" stroke="#999999" points="87.25,-20.75 0,-20.75 0,0 87.25,0 87.25,-20.75"/>
<text xml:space="preserve" text-anchor="middle" x="43.62" y="-7.25" font-family="Helvetica,sans-Serif" font-size="10.00">CoreMinimal.h</text>
</a>
</g>
</g>
<!-- Node1&#45;&gt;Node2 -->
<g id="edge1_Node000001_Node000002" class="edge">
<title>Node1&#45;&gt;Node2</title>
<g id="a_edge1_Node000001_Node000002"><a xlink:title=" ">
<path fill="none" stroke="#63b8ff" d="M231.57,-64.57C186.01,-51.68 128.76,-35.47 89.49,-24.36"/>
<polygon fill="#63b8ff" stroke="#63b8ff" points="90.45,-20.99 79.87,-21.63 88.54,-27.73 90.45,-20.99"/>
</a>
</g>
</g>
<!-- Node3 -->
<g id="Node000003" class="node">
<title>Node3</title>
<g id="a_Node000003"><a xlink:title=" ">
<polygon fill="#e0e0e0" stroke="#999999" points="239.5,-20.75 105.75,-20.75 105.75,0 239.5,0 239.5,-20.75"/>
<text xml:space="preserve" text-anchor="middle" x="172.62" y="-7.25" font-family="Helvetica,sans-Serif" font-size="10.00">UObject/ObjectMacros.h</text>
</a>
</g>
</g>
<!-- Node1&#45;&gt;Node3 -->
<g id="edge2_Node000001_Node000003" class="edge">
<title>Node1&#45;&gt;Node3</title>
<g id="a_edge2_Node000001_Node000003"><a xlink:title=" ">
<path fill="none" stroke="#63b8ff" d="M252.83,-56.26C234.76,-46.15 215.19,-35.2 199.91,-26.64"/>
<polygon fill="#63b8ff" stroke="#63b8ff" points="201.84,-23.71 191.4,-21.88 198.42,-29.82 201.84,-23.71"/>
</a>
</g>
</g>
<!-- Node4 -->
<g id="Node000004" class="node">
<title>Node4</title>
<g id="a_Node000004"><a xlink:title=" ">
<polygon fill="#e0e0e0" stroke="#999999" points="351.25,-20.75 258,-20.75 258,0 351.25,0 351.25,-20.75"/>
<text xml:space="preserve" text-anchor="middle" x="304.62" y="-7.25" font-family="Helvetica,sans-Serif" font-size="10.00">UObject/Class.h</text>
</a>
</g>
</g>
<!-- Node1&#45;&gt;Node4 -->
<g id="edge3_Node000001_Node000004" class="edge">
<title>Node1&#45;&gt;Node4</title>
<g id="a_edge3_Node000001_Node000004"><a xlink:title=" ">
<path fill="none" stroke="#63b8ff" d="M304.62,-56.48C304.62,-48.48 304.62,-39.95 304.62,-32.49"/>
<polygon fill="#63b8ff" stroke="#63b8ff" points="308.13,-32.72 304.63,-22.72 301.13,-32.72 308.13,-32.72"/>
</a>
</g>
</g>
<!-- Node5 -->
<g id="Node000005" class="node">
<title>Node5</title>
<g id="a_Node000005"><a xlink:title=" ">
<polygon fill="#e0e0e0" stroke="#999999" points="529.62,-20.75 369.62,-20.75 369.62,0 529.62,0 529.62,-20.75"/>
<text xml:space="preserve" text-anchor="middle" x="449.62" y="-7.25" font-family="Helvetica,sans-Serif" font-size="10.00">Animation/AnimCurveTypes.h</text>
</a>
</g>
</g>
<!-- Node1&#45;&gt;Node5 -->
<g id="edge4_Node000001_Node000005" class="edge">
<title>Node1&#45;&gt;Node5</title>
<g id="a_edge4_Node000001_Node000005"><a xlink:title=" ">
<path fill="none" stroke="#63b8ff" d="M361.52,-56.26C381.75,-45.95 403.69,-34.78 420.62,-26.15"/>
<polygon fill="#63b8ff" stroke="#63b8ff" points="421.78,-29.49 429.1,-21.83 418.6,-23.25 421.78,-29.49"/>
</a>
</g>
</g>
<!-- Node6 -->
<g id="Node000006" class="node">
<title>Node6</title>
<g id="a_Node000006"><a xlink:title=" ">
<polygon fill="#e0e0e0" stroke="#999999" points="711.88,-20.75 547.38,-20.75 547.38,0 711.88,0 711.88,-20.75"/>
<text xml:space="preserve" text-anchor="middle" x="629.62" y="-7.25" font-family="Helvetica,sans-Serif" font-size="10.00">TimeStretchCurve.generated.h</text>
</a>
</g>
</g>
<!-- Node1&#45;&gt;Node6 -->
<g id="edge5_Node000001_Node000006" class="edge">
<title>Node1&#45;&gt;Node6</title>
<g id="a_edge5_Node000001_Node000006"><a xlink:title=" ">
<path fill="none" stroke="#63b8ff" d="M377.97,-68.58C437.92,-54.95 521.32,-35.99 575.39,-23.7"/>
<polygon fill="#63b8ff" stroke="#63b8ff" points="576.01,-27.15 584.98,-21.52 574.46,-20.33 576.01,-27.15"/>
</a>
</g>
</g>
</g>
</svg>
