<?xml version="1.0" encoding="UTF-8" standalone="no"?>
<!DOCTYPE svg PUBLIC "-//W3C//DTD SVG 1.1//EN"
 "http://www.w3.org/Graphics/SVG/1.1/DTD/svg11.dtd">
<!-- Generated by graphviz version 14.1.4 (0)
 -->
<!-- Title: Concatenate Pages: 1 -->
<svg width="485pt" height="86pt"
 viewBox="0.00 0.00 485.00 86.00" xmlns="http://www.w3.org/2000/svg" xmlns:xlink="http://www.w3.org/1999/xlink">
<g id="graph0" class="graph" transform="scale(1 1) rotate(0) translate(4 81.75)">
<title>Concatenate</title>
<!-- Node1 -->
<g id="Node000001" class="node">
<title>Node1</title>
<g id="a_Node000001"><a xlink:title=" ">
<polygon fill="#999999" stroke="#666666" points="77.5,-39.75 0,-39.75 0,-19 77.5,-19 77.5,-39.75"/>
<text xml:space="preserve" text-anchor="middle" x="38.75" y="-26.25" font-family="Helvetica,sans-Serif" font-size="10.00">Concatenate</text>
</a>
</g>
</g>
<!-- Node2 -->
<g id="Node000002" class="node">
<title>Node2</title>
<g id="a_Node000002"><a xlink:href="$TransformCalculus_8h.html#aec6e84d123a7c90e99211b6fdaa764d0" xlink:title=" ">
<polygon fill="white" stroke="#666666" points="197.38,-59.75 119.88,-59.75 119.88,-39 197.38,-39 197.38,-59.75"/>
<text xml:space="preserve" text-anchor="middle" x="158.62" y="-46.25" font-family="Helvetica,sans-Serif" font-size="10.00">Concatenate</text>
</a>
</g>
</g>
<!-- Node1&#45;&gt;Node2 -->
<g id="edge1_Node000001_Node000002" class="edge">
<title>Node1&#45;&gt;Node2</title>
<g id="a_edge1_Node000001_Node000002"><a xlink:title=" ">
<path fill="none" stroke="#63b8ff" d="M77.7,-35.81C87.48,-37.47 98.14,-39.28 108.4,-41.02"/>
<polygon fill="#63b8ff" stroke="#63b8ff" points="107.81,-44.47 118.26,-42.7 108.99,-37.57 107.81,-44.47"/>
</a>
</g>
</g>
<!-- Node5 -->
<g id="Node000005" class="node">
<title>Node5</title>
<g id="a_Node000005"><a xlink:href="$TransformCalculus_8h.html#aa09af41c65b0384ba8b55522675551e1" xlink:title=" ">
<polygon fill="white" stroke="#666666" points="203.75,-20.75 113.5,-20.75 113.5,0 203.75,0 203.75,-20.75"/>
<text xml:space="preserve" text-anchor="middle" x="158.62" y="-7.25" font-family="Helvetica,sans-Serif" font-size="10.00">TransformPoint</text>
</a>
</g>
</g>
<!-- Node1&#45;&gt;Node5 -->
<g id="edge5_Node000001_Node000005" class="edge">
<title>Node1&#45;&gt;Node5</title>
<g id="a_edge5_Node000001_Node000005"><a xlink:title=" ">
<path fill="none" stroke="#63b8ff" d="M77.7,-23.26C85.47,-22.01 93.8,-20.66 102.05,-19.33"/>
<polygon fill="#63b8ff" stroke="#63b8ff" points="102.37,-22.83 111.68,-17.78 101.25,-15.92 102.37,-22.83"/>
</a>
</g>
</g>
<!-- Node2&#45;&gt;Node2 -->
<g id="edge2_Node000002_Node000002" class="edge">
<title>Node2&#45;&gt;Node2</title>
<g id="a_edge2_Node000002_Node000002"><a xlink:title=" ">
<path fill="none" stroke="#63b8ff" d="M139.31,-60.15C131.58,-68.81 138.02,-77.75 158.62,-77.75 169.89,-77.75 176.92,-75.08 179.72,-71.24"/>
<polygon fill="#63b8ff" stroke="#63b8ff" points="183.22,-70.96 178.18,-61.64 176.31,-72.07 183.22,-70.96"/>
</a>
</g>
</g>
<!-- Node3 -->
<g id="Node000003" class="node">
<title>Node3</title>
<g id="a_Node000003"><a xlink:href="$TransformCalculus_8h.html#af4bde4c3203f92ee59f604cb75f40c60" xlink:title=" ">
<polygon fill="white" stroke="#666666" points="327,-59.75 239.75,-59.75 239.75,-39 327,-39 327,-59.75"/>
<text xml:space="preserve" text-anchor="middle" x="283.38" y="-46.25" font-family="Helvetica,sans-Serif" font-size="10.00">TransformCast</text>
</a>
</g>
</g>
<!-- Node2&#45;&gt;Node3 -->
<g id="edge3_Node000002_Node000003" class="edge">
<title>Node2&#45;&gt;Node3</title>
<g id="a_edge3_Node000002_Node000003"><a xlink:title=" ">
<path fill="none" stroke="#63b8ff" d="M197.79,-49.38C207.4,-49.38 217.91,-49.38 228.14,-49.38"/>
<polygon fill="#63b8ff" stroke="#63b8ff" points="228.01,-52.88 238.01,-49.38 228.01,-45.88 228.01,-52.88"/>
</a>
</g>
</g>
<!-- Node4 -->
<g id="Node000004" class="node">
<title>Node4</title>
<g id="a_Node000004"><a xlink:href="$structTransformConverter.html#abb146a681a035dec0731707b6b922c6e" xlink:title=" ">
<polygon fill="white" stroke="#666666" points="476.5,-66.12 363,-66.12 363,-32.62 476.5,-32.62 476.5,-66.12"/>
<text xml:space="preserve" text-anchor="start" x="371" y="-52.62" font-family="Helvetica,sans-Serif" font-size="10.00">TransformConverter</text>
<text xml:space="preserve" text-anchor="middle" x="419.75" y="-39.88" font-family="Helvetica,sans-Serif" font-size="10.00">::Convert</text>
</a>
</g>
</g>
<!-- Node3&#45;&gt;Node4 -->
<g id="edge4_Node000003_Node000004" class="edge">
<title>Node3&#45;&gt;Node4</title>
<g id="a_edge4_Node000003_Node000004"><a xlink:title=" ">
<path fill="none" stroke="#63b8ff" d="M327.26,-49.38C334.88,-49.38 342.99,-49.38 351.1,-49.38"/>
<polygon fill="#63b8ff" stroke="#63b8ff" points="351.01,-52.88 361.01,-49.38 351.01,-45.88 351.01,-52.88"/>
</a>
</g>
</g>
</g>
</svg>
