<?xml version="1.0" encoding="UTF-8" standalone="no"?>
<!DOCTYPE svg PUBLIC "-//W3C//DTD SVG 1.1//EN"
 "http://www.w3.org/Graphics/SVG/1.1/DTD/svg11.dtd">
<!-- Generated by graphviz version 14.1.4 (0)
 -->
<!-- Title: Concatenate Pages: 1 -->
<svg width="472pt" height="86pt"
 viewBox="0.00 0.00 472.00 86.00" xmlns="http://www.w3.org/2000/svg" xmlns:xlink="http://www.w3.org/1999/xlink">
<g id="graph0" class="graph" transform="scale(1 1) rotate(0) translate(4 81.75)">
<title>Concatenate</title>
<!-- Node1 -->
<g id="Node000001" class="node">
<title>Node1</title>
<g id="a_Node000001"><a xlink:title=" ">
<polygon fill="#999999" stroke="#666666" points="77.5,-39.75 0,-39.75 0,-19 77.5,-19 77.5,-39.75"/>
<text xml:space="preserve" text-anchor="middle" x="38.75" y="-26.25" font-family="Helvetica,sans-Serif" font-size="10.00">Concatenate</text>
</a>
</g>
</g>
<!-- Node2 -->
<g id="Node000002" class="node">
<title>Node2</title>
<g id="a_Node000002"><a xlink:href="$TransformCalculus_8h.html#aec6e84d123a7c90e99211b6fdaa764d0" xlink:title=" ">
<polygon fill="white" stroke="#666666" points="191,-59.75 113.5,-59.75 113.5,-39 191,-39 191,-59.75"/>
<text xml:space="preserve" text-anchor="middle" x="152.25" y="-46.25" font-family="Helvetica,sans-Serif" font-size="10.00">Concatenate</text>
</a>
</g>
</g>
<!-- Node1&#45;&gt;Node2 -->
<g id="edge1_Node000001_Node000002" class="edge">
<title>Node1&#45;&gt;Node2</title>
<g id="a_edge1_Node000001_Node000002"><a xlink:title=" ">
<path fill="none" stroke="#63b8ff" d="M77.81,-36.2C85.61,-37.6 93.93,-39.09 102.07,-40.55"/>
<polygon fill="#63b8ff" stroke="#63b8ff" points="101.41,-43.99 111.87,-42.31 102.65,-37.1 101.41,-43.99"/>
</a>
</g>
</g>
<!-- Node5 -->
<g id="Node000005" class="node">
<title>Node5</title>
<g id="a_Node000005"><a xlink:href="$UnrealTemplate_8h.html#aea228b8b6d93b902d974d3bfa72f888f" xlink:title=" ">
<polygon fill="white" stroke="#666666" points="179.75,-20.75 124.75,-20.75 124.75,0 179.75,0 179.75,-20.75"/>
<text xml:space="preserve" text-anchor="middle" x="152.25" y="-7.25" font-family="Helvetica,sans-Serif" font-size="10.00">Forward</text>
</a>
</g>
</g>
<!-- Node1&#45;&gt;Node5 -->
<g id="edge5_Node000001_Node000005" class="edge">
<title>Node1&#45;&gt;Node5</title>
<g id="a_edge5_Node000001_Node000005"><a xlink:title=" ">
<path fill="none" stroke="#63b8ff" d="M77.81,-22.89C89.14,-20.96 101.56,-18.84 112.91,-16.91"/>
<polygon fill="#63b8ff" stroke="#63b8ff" points="113.5,-20.36 122.77,-15.23 112.32,-13.46 113.5,-20.36"/>
</a>
</g>
</g>
<!-- Node2&#45;&gt;Node2 -->
<g id="edge2_Node000002_Node000002" class="edge">
<title>Node2&#45;&gt;Node2</title>
<g id="a_edge2_Node000002_Node000002"><a xlink:title=" ">
<path fill="none" stroke="#63b8ff" d="M133.96,-60.15C126.65,-68.81 132.74,-77.75 152.25,-77.75 162.61,-77.75 169.19,-75.23 171.99,-71.56"/>
<polygon fill="#63b8ff" stroke="#63b8ff" points="175.46,-71.13 170.73,-61.65 168.51,-72.01 175.46,-71.13"/>
</a>
</g>
</g>
<!-- Node3 -->
<g id="Node000003" class="node">
<title>Node3</title>
<g id="a_Node000003"><a xlink:href="$TransformCalculus_8h.html#af4bde4c3203f92ee59f604cb75f40c60" xlink:title=" ">
<polygon fill="white" stroke="#666666" points="314.25,-59.75 227,-59.75 227,-39 314.25,-39 314.25,-59.75"/>
<text xml:space="preserve" text-anchor="middle" x="270.62" y="-46.25" font-family="Helvetica,sans-Serif" font-size="10.00">TransformCast</text>
</a>
</g>
</g>
<!-- Node2&#45;&gt;Node3 -->
<g id="edge3_Node000002_Node000003" class="edge">
<title>Node2&#45;&gt;Node3</title>
<g id="a_edge3_Node000002_Node000003"><a xlink:title=" ">
<path fill="none" stroke="#63b8ff" d="M191.36,-49.38C199.01,-49.38 207.2,-49.38 215.29,-49.38"/>
<polygon fill="#63b8ff" stroke="#63b8ff" points="215.08,-52.88 225.08,-49.38 215.08,-45.88 215.08,-52.88"/>
</a>
</g>
</g>
<!-- Node4 -->
<g id="Node000004" class="node">
<title>Node4</title>
<g id="a_Node000004"><a xlink:href="$structTransformConverter.html#abb146a681a035dec0731707b6b922c6e" xlink:title=" ">
<polygon fill="white" stroke="#666666" points="463.75,-66.12 350.25,-66.12 350.25,-32.62 463.75,-32.62 463.75,-66.12"/>
<text xml:space="preserve" text-anchor="start" x="358.25" y="-52.62" font-family="Helvetica,sans-Serif" font-size="10.00">TransformConverter</text>
<text xml:space="preserve" text-anchor="middle" x="407" y="-39.88" font-family="Helvetica,sans-Serif" font-size="10.00">::Convert</text>
</a>
</g>
</g>
<!-- Node3&#45;&gt;Node4 -->
<g id="edge4_Node000003_Node000004" class="edge">
<title>Node3&#45;&gt;Node4</title>
<g id="a_edge4_Node000003_Node000004"><a xlink:title=" ">
<path fill="none" stroke="#63b8ff" d="M314.51,-49.38C322.13,-49.38 330.24,-49.38 338.35,-49.38"/>
<polygon fill="#63b8ff" stroke="#63b8ff" points="338.26,-52.88 348.26,-49.38 338.26,-45.88 338.26,-52.88"/>
</a>
</g>
</g>
</g>
</svg>
