<?xml version="1.0" encoding="UTF-8" standalone="no"?>
<!DOCTYPE svg PUBLIC "-//W3C//DTD SVG 1.1//EN"
 "http://www.w3.org/Graphics/SVG/1.1/DTD/svg11.dtd">
<!-- Generated by graphviz version 14.1.4 (0)
 -->
<!-- Title: Visit Pages: 1 -->
<svg width="237pt" height="197pt"
 viewBox="0.00 0.00 237.00 197.00" xmlns="http://www.w3.org/2000/svg" xmlns:xlink="http://www.w3.org/1999/xlink">
<g id="graph0" class="graph" transform="scale(1 1) rotate(0) translate(4 192.88)">
<title>Visit</title>
<!-- Node1 -->
<g id="Node000001" class="node">
<title>Node1</title>
<g id="a_Node000001"><a xlink:title=" ">
<polygon fill="#999999" stroke="#666666" points="229.25,-107.5 191.5,-107.5 191.5,-86.75 229.25,-86.75 229.25,-107.5"/>
<text xml:space="preserve" text-anchor="middle" x="210.38" y="-94" font-family="Helvetica,sans-Serif" font-size="10.00">Visit</text>
</a>
</g>
</g>
<!-- Node2 -->
<g id="Node000002" class="node">
<title>Node2</title>
<g id="a_Node000002"><a xlink:href="$classFPersistentStorageManager.html#a94fd1db5a0347546ed8148e12427c7d4" xlink:title=" ">
<polygon fill="white" stroke="#666666" points="153.25,-188.88 2.25,-188.88 2.25,-155.38 153.25,-155.38 153.25,-188.88"/>
<text xml:space="preserve" text-anchor="start" x="10.25" y="-175.38" font-family="Helvetica,sans-Serif" font-size="10.00">FPersistentStorageManager</text>
<text xml:space="preserve" text-anchor="middle" x="77.75" y="-162.62" font-family="Helvetica,sans-Serif" font-size="10.00">::Initialize</text>
</a>
</g>
</g>
<!-- Node1&#45;&gt;Node2 -->
<g id="edge1_Node000001_Node000002" class="edge">
<title>Node1&#45;&gt;Node2</title>
<g id="a_edge1_Node000001_Node000002"><a xlink:title=" ">
<path fill="none" stroke="#63b8ff" d="M192.26,-116.11C182.34,-126.18 169.15,-138.08 155.5,-146.12 149.92,-149.41 143.87,-152.35 137.7,-154.97"/>
<polygon fill="#63b8ff" stroke="#63b8ff" points="194.67,-118.65 199.01,-108.99 189.59,-113.84 194.67,-118.65"/>
</a>
</g>
</g>
<!-- Node3 -->
<g id="Node000003" class="node">
<title>Node3</title>
<g id="a_Node000003"><a xlink:href="$classFIoDirectoryIndexReader.html#ab9e8bb60b4c7382fd8eb41d818a35b32" xlink:title=" ">
<polygon fill="white" stroke="#666666" points="146.5,-136.88 9,-136.88 9,-103.38 146.5,-103.38 146.5,-136.88"/>
<text xml:space="preserve" text-anchor="start" x="17" y="-123.38" font-family="Helvetica,sans-Serif" font-size="10.00">FIoDirectoryIndexReader</text>
<text xml:space="preserve" text-anchor="middle" x="77.75" y="-110.62" font-family="Helvetica,sans-Serif" font-size="10.00">::IterateDirectoryIndex</text>
</a>
</g>
</g>
<!-- Node1&#45;&gt;Node3 -->
<g id="edge2_Node000001_Node000003" class="edge">
<title>Node1&#45;&gt;Node3</title>
<g id="a_edge2_Node000001_Node000003"><a xlink:title=" ">
<path fill="none" stroke="#63b8ff" d="M180,-102.3C170.07,-104.04 158.54,-106.08 146.88,-108.13"/>
<polygon fill="#63b8ff" stroke="#63b8ff" points="180.48,-105.77 189.72,-100.59 179.27,-98.87 180.48,-105.77"/>
</a>
</g>
</g>
<!-- Node4 -->
<g id="Node000004" class="node">
<title>Node4</title>
<g id="a_Node000004"><a xlink:href="$TVariant_8h.html#a0c09561de60fa8947569e3343a58e43d" xlink:title=" ">
<polygon fill="white" stroke="#666666" points="114.62,-85.5 40.88,-85.5 40.88,-64.75 114.62,-64.75 114.62,-85.5"/>
<text xml:space="preserve" text-anchor="middle" x="77.75" y="-72" font-family="Helvetica,sans-Serif" font-size="10.00">operator&lt;&lt;</text>
</a>
</g>
</g>
<!-- Node1&#45;&gt;Node4 -->
<g id="edge3_Node000001_Node000004" class="edge">
<title>Node1&#45;&gt;Node4</title>
<g id="a_edge3_Node000001_Node000004"><a xlink:title=" ">
<path fill="none" stroke="#63b8ff" d="M180.11,-92.2C160.86,-88.95 135.53,-84.69 115.01,-81.23"/>
<polygon fill="#63b8ff" stroke="#63b8ff" points="179.28,-95.61 189.72,-93.81 180.44,-88.7 179.28,-95.61"/>
</a>
</g>
</g>
<!-- Node5 -->
<g id="Node000005" class="node">
<title>Node5</title>
<g id="a_Node000005"><a xlink:href="$structUE_1_1Core_1_1Private_1_1TPtrVariantBase.html#aebe0a33e0a571e197f8c84ffee8e4a05" xlink:title=" ">
<polygon fill="white" stroke="#666666" points="155.5,-46.25 0,-46.25 0,0 155.5,0 155.5,-46.25"/>
<text xml:space="preserve" text-anchor="start" x="8" y="-32.75" font-family="Helvetica,sans-Serif" font-size="10.00">UE::Core::Private::</text>
<text xml:space="preserve" text-anchor="start" x="8" y="-20" font-family="Helvetica,sans-Serif" font-size="10.00">TPtrVariantBase&lt; BaseType,</text>
<text xml:space="preserve" text-anchor="middle" x="77.75" y="-7.25" font-family="Helvetica,sans-Serif" font-size="10.00"> true &gt;::Reset</text>
</a>
</g>
</g>
<!-- Node1&#45;&gt;Node5 -->
<g id="edge4_Node000001_Node000005" class="edge">
<title>Node1&#45;&gt;Node5</title>
<g id="a_edge4_Node000001_Node000005"><a xlink:title=" ">
<path fill="none" stroke="#63b8ff" d="M188.33,-79.2C178.71,-71.52 166.92,-62.79 155.5,-56.12 149.86,-52.84 143.84,-49.68 137.73,-46.72"/>
<polygon fill="#63b8ff" stroke="#63b8ff" points="186.02,-81.83 195.98,-85.47 190.46,-76.42 186.02,-81.83"/>
</a>
</g>
</g>
</g>
</svg>
