<?xml version="1.0" encoding="UTF-8" standalone="no"?>
<!DOCTYPE svg PUBLIC "-//W3C//DTD SVG 1.1//EN"
 "http://www.w3.org/Graphics/SVG/1.1/DTD/svg11.dtd">
<!-- Generated by graphviz version 14.1.4 (0)
 -->
<!-- Title: GetTypeHash Pages: 1 -->
<svg width="447pt" height="112pt"
 viewBox="0.00 0.00 447.00 112.00" xmlns="http://www.w3.org/2000/svg" xmlns:xlink="http://www.w3.org/1999/xlink">
<g id="graph0" class="graph" transform="scale(1 1) rotate(0) translate(4 107.5)">
<title>GetTypeHash</title>
<!-- Node1 -->
<g id="Node000001" class="node">
<title>Node1</title>
<g id="a_Node000001"><a xlink:title=" ">
<polygon fill="#999999" stroke="#666666" points="438.75,-72.12 358.25,-72.12 358.25,-51.38 438.75,-51.38 438.75,-72.12"/>
<text xml:space="preserve" text-anchor="middle" x="398.5" y="-58.62" font-family="Helvetica,sans-Serif" font-size="10.00">GetTypeHash</text>
</a>
</g>
</g>
<!-- Node1&#45;&gt;Node1 -->
<g id="edge2_Node000001_Node000001" class="edge">
<title>Node1&#45;&gt;Node1</title>
<g id="a_edge2_Node000001_Node000001"><a xlink:title=" ">
<path fill="none" stroke="#63b8ff" d="M421.84,-83.61C418.75,-87.45 410.97,-90.12 398.5,-90.12 375.71,-90.12 368.58,-81.18 377.13,-72.52"/>
<polygon fill="#63b8ff" stroke="#63b8ff" points="425.33,-83.25 420.13,-74.01 418.44,-84.47 425.33,-83.25"/>
</a>
</g>
</g>
<!-- Node2 -->
<g id="Node000002" class="node">
<title>Node2</title>
<g id="a_Node000002"><a xlink:href="$TypeHash_8h.html#a7685d106f95e872462b6bd52bb3d5254" xlink:title=" ">
<polygon fill="white" stroke="#666666" points="308,-92.12 223.75,-92.12 223.75,-71.38 308,-71.38 308,-92.12"/>
<text xml:space="preserve" text-anchor="middle" x="265.88" y="-78.62" font-family="Helvetica,sans-Serif" font-size="10.00">GetArrayHash</text>
</a>
</g>
</g>
<!-- Node1&#45;&gt;Node2 -->
<g id="edge1_Node000001_Node000002" class="edge">
<title>Node1&#45;&gt;Node2</title>
<g id="a_edge1_Node000001_Node000002"><a xlink:title=" ">
<path fill="none" stroke="#63b8ff" d="M346.92,-69.49C334.07,-71.46 320.42,-73.55 308.1,-75.44"/>
<polygon fill="#63b8ff" stroke="#63b8ff" points="347.1,-73.01 356.46,-68.03 346.04,-66.09 347.1,-73.01"/>
</a>
</g>
</g>
<!-- Node3 -->
<g id="Node000003" class="node">
<title>Node3</title>
<g id="a_Node000003"><a xlink:href="$TypeHash_8h.html#adf5cbc3cba202319b84ae20a8a526939" xlink:title=" ">
<polygon fill="white" stroke="#666666" points="322.25,-53.12 209.5,-53.12 209.5,-32.38 322.25,-32.38 322.25,-53.12"/>
<text xml:space="preserve" text-anchor="middle" x="265.88" y="-39.62" font-family="Helvetica,sans-Serif" font-size="10.00">GetTypeHashHelper</text>
</a>
</g>
</g>
<!-- Node1&#45;&gt;Node3 -->
<g id="edge3_Node000001_Node000003" class="edge">
<title>Node1&#45;&gt;Node3</title>
<g id="a_edge3_Node000001_Node000003"><a xlink:title=" ">
<path fill="none" stroke="#63b8ff" d="M346.69,-54.36C338.82,-53.21 330.65,-52.03 322.67,-50.87"/>
<polygon fill="#63b8ff" stroke="#63b8ff" points="346.06,-57.8 356.46,-55.78 347.06,-50.88 346.06,-57.8"/>
</a>
</g>
</g>
<!-- Node4 -->
<g id="Node000004" class="node">
<title>Node4</title>
<g id="a_Node000004"><a xlink:href="$structUE_1_1Core_1_1Private_1_1Tuple_1_1TGetTupleHashHelper.html#a86de537f1a4ab4002f50ba64e8aaf6da" xlink:title=" ">
<polygon fill="white" stroke="#666666" points="173.12,-85.5 0.38,-85.5 0.38,-52 173.12,-52 173.12,-85.5"/>
<text xml:space="preserve" text-anchor="start" x="8.38" y="-72" font-family="Helvetica,sans-Serif" font-size="10.00">UE::Core::Private::</text>
<text xml:space="preserve" text-anchor="middle" x="86.75" y="-59.25" font-family="Helvetica,sans-Serif" font-size="10.00">Tuple::TGetTupleHashHelper::Do</text>
</a>
</g>
</g>
<!-- Node3&#45;&gt;Node4 -->
<g id="edge4_Node000003_Node000004" class="edge">
<title>Node3&#45;&gt;Node4</title>
<g id="a_edge4_Node000003_Node000004"><a xlink:title=" ">
<path fill="none" stroke="#63b8ff" d="M198.17,-52.54C190.14,-53.72 181.86,-54.94 173.6,-56.15"/>
<polygon fill="#63b8ff" stroke="#63b8ff" points="198.43,-56.04 207.82,-51.13 197.42,-49.11 198.43,-56.04"/>
</a>
</g>
</g>
<!-- Node5 -->
<g id="Node000005" class="node">
<title>Node5</title>
<g id="a_Node000005"><a xlink:href="$structFRichCurveEditInfoTemplate.html#a0f3ef689ecb4e4a92f1ffffe0b8fee4d" xlink:title=" ">
<polygon fill="white" stroke="#666666" points="173.5,-33.5 0,-33.5 0,0 173.5,0 173.5,-33.5"/>
<text xml:space="preserve" text-anchor="start" x="8" y="-20" font-family="Helvetica,sans-Serif" font-size="10.00">FRichCurveEditInfoTemplate</text>
<text xml:space="preserve" text-anchor="middle" x="86.75" y="-7.25" font-family="Helvetica,sans-Serif" font-size="10.00">&lt; FRealCurve * &gt;::GetTypeHash</text>
</a>
</g>
</g>
<!-- Node3&#45;&gt;Node5 -->
<g id="edge6_Node000003_Node000005" class="edge">
<title>Node3&#45;&gt;Node5</title>
<g id="a_edge6_Node000003_Node000005"><a xlink:title=" ">
<path fill="none" stroke="#63b8ff" d="M198,-32.93C190.13,-31.78 182.02,-30.59 173.93,-29.4"/>
<polygon fill="#63b8ff" stroke="#63b8ff" points="197.42,-36.39 207.82,-34.37 198.43,-29.46 197.42,-36.39"/>
</a>
</g>
</g>
<!-- Node4&#45;&gt;Node4 -->
<g id="edge5_Node000004_Node000004" class="edge">
<title>Node4&#45;&gt;Node4</title>
<g id="a_edge5_Node000004_Node000004"><a xlink:title=" ">
<path fill="none" stroke="#63b8ff" d="M116.83,-96.89C111.93,-100.85 101.9,-103.5 86.75,-103.5 59.81,-103.5 49.08,-95.12 54.55,-85.91"/>
<polygon fill="#63b8ff" stroke="#63b8ff" points="120.2,-97.88 118.66,-87.4 113.33,-96.55 120.2,-97.88"/>
</a>
</g>
</g>
</g>
</svg>
