<?xml version="1.0" encoding="UTF-8" standalone="no"?>
<!DOCTYPE svg PUBLIC "-//W3C//DTD SVG 1.1//EN"
 "http://www.w3.org/Graphics/SVG/1.1/DTD/svg11.dtd">
<!-- Generated by graphviz version 14.1.4 (0)
 -->
<!-- Title: PointerHash Pages: 1 -->
<svg width="423pt" height="68pt"
 viewBox="0.00 0.00 423.00 68.00" xmlns="http://www.w3.org/2000/svg" xmlns:xlink="http://www.w3.org/1999/xlink">
<g id="graph0" class="graph" transform="scale(1 1) rotate(0) translate(4 63.75)">
<title>PointerHash</title>
<!-- Node1 -->
<g id="Node000001" class="node">
<title>Node1</title>
<g id="a_Node000001"><a xlink:title=" ">
<polygon fill="#999999" stroke="#666666" points="75.25,-39.75 0,-39.75 0,-19 75.25,-19 75.25,-39.75"/>
<text xml:space="preserve" text-anchor="middle" x="37.62" y="-26.25" font-family="Helvetica,sans-Serif" font-size="10.00">PointerHash</text>
</a>
</g>
</g>
<!-- Node2 -->
<g id="Node000002" class="node">
<title>Node2</title>
<g id="a_Node000002"><a xlink:href="$TypeHash_8h.html#a05e4a809047bdb0bb60b0bd8b7633bd5" xlink:title=" ">
<polygon fill="white" stroke="#666666" points="215.75,-59.75 111.25,-59.75 111.25,-39 215.75,-39 215.75,-59.75"/>
<text xml:space="preserve" text-anchor="middle" x="163.5" y="-46.25" font-family="Helvetica,sans-Serif" font-size="10.00">HashCombineFast</text>
</a>
</g>
</g>
<!-- Node1&#45;&gt;Node2 -->
<g id="edge1_Node000001_Node000002" class="edge">
<title>Node1&#45;&gt;Node2</title>
<g id="a_edge1_Node000001_Node000002"><a xlink:title=" ">
<path fill="none" stroke="#63b8ff" d="M75.46,-35.32C83.11,-36.56 91.37,-37.89 99.65,-39.23"/>
<polygon fill="#63b8ff" stroke="#63b8ff" points="98.99,-42.67 109.42,-40.8 100.1,-35.76 98.99,-42.67"/>
</a>
</g>
</g>
<!-- Node3 -->
<g id="Node000003" class="node">
<title>Node3</title>
<g id="a_Node000003"><a xlink:href="$TypeHash_8h.html#a25ef110dd416e1498d072dfe89a58d14" xlink:title=" ">
<polygon fill="white" stroke="#666666" points="201.12,-20.75 125.88,-20.75 125.88,0 201.12,0 201.12,-20.75"/>
<text xml:space="preserve" text-anchor="middle" x="163.5" y="-7.25" font-family="Helvetica,sans-Serif" font-size="10.00">PointerHash</text>
</a>
</g>
</g>
<!-- Node1&#45;&gt;Node3 -->
<g id="edge2_Node000001_Node000003" class="edge">
<title>Node1&#45;&gt;Node3</title>
<g id="a_edge2_Node000001_Node000003"><a xlink:title=" ">
<path fill="none" stroke="#63b8ff" d="M75.46,-23.73C87.7,-21.85 101.52,-19.73 114.49,-17.74"/>
<polygon fill="#63b8ff" stroke="#63b8ff" points="114.75,-21.24 124.1,-16.26 113.69,-14.32 114.75,-21.24"/>
</a>
</g>
</g>
<!-- Node4 -->
<g id="Node000004" class="node">
<title>Node4</title>
<g id="a_Node000004"><a xlink:href="$namespaceUE_1_1Private.html#a4ed0553d7f32aa4ed7477662a53b7367" xlink:title=" ">
<polygon fill="white" stroke="#666666" points="414.75,-20.75 251.75,-20.75 251.75,0 414.75,0 414.75,-20.75"/>
<text xml:space="preserve" text-anchor="middle" x="333.25" y="-7.25" font-family="Helvetica,sans-Serif" font-size="10.00">UE::Private::MurmurFinalize32</text>
</a>
</g>
</g>
<!-- Node3&#45;&gt;Node4 -->
<g id="edge3_Node000003_Node000004" class="edge">
<title>Node3&#45;&gt;Node4</title>
<g id="a_edge3_Node000003_Node000004"><a xlink:title=" ">
<path fill="none" stroke="#63b8ff" d="M201.31,-10.38C213.03,-10.38 226.57,-10.38 240.39,-10.38"/>
<polygon fill="#63b8ff" stroke="#63b8ff" points="240,-13.88 250,-10.38 240,-6.88 240,-13.88"/>
</a>
</g>
</g>
</g>
</svg>
