<?xml version="1.0" encoding="UTF-8" standalone="no"?>
<!DOCTYPE svg PUBLIC "-//W3C//DTD SVG 1.1//EN"
 "http://www.w3.org/Graphics/SVG/1.1/DTD/svg11.dtd">
<!-- Generated by graphviz version 14.1.4 (0)
 -->
<!-- Title: LexFromString Pages: 1 -->
<svg width="430pt" height="29pt"
 viewBox="0.00 0.00 430.00 29.00" xmlns="http://www.w3.org/2000/svg" xmlns:xlink="http://www.w3.org/1999/xlink">
<g id="graph0" class="graph" transform="scale(1 1) rotate(0) translate(4 24.75)">
<title>LexFromString</title>
<!-- Node1 -->
<g id="Node000001" class="node">
<title>Node1</title>
<g id="a_Node000001"><a xlink:title=" ">
<polygon fill="#999999" stroke="#666666" points="422.25,-20.75 335.75,-20.75 335.75,0 422.25,0 422.25,-20.75"/>
<text xml:space="preserve" text-anchor="middle" x="379" y="-7.25" font-family="Helvetica,sans-Serif" font-size="10.00">LexFromString</text>
</a>
</g>
</g>
<!-- Node2 -->
<g id="Node000002" class="node">
<title>Node2</title>
<g id="a_Node000002"><a xlink:href="$structFNumericUnit.html#aaf684dbe92b38377051a8894cafb243a" xlink:title=" ">
<polygon fill="white" stroke="#666666" points="299.75,-20.75 139.75,-20.75 139.75,0 299.75,0 299.75,-20.75"/>
<text xml:space="preserve" text-anchor="middle" x="219.75" y="-7.25" font-family="Helvetica,sans-Serif" font-size="10.00">FNumericUnit::TryParseString</text>
</a>
</g>
</g>
<!-- Node1&#45;&gt;Node2 -->
<g id="edge1_Node000001_Node000002" class="edge">
<title>Node1&#45;&gt;Node2</title>
<g id="a_edge1_Node000001_Node000002"><a xlink:title=" ">
<path fill="none" stroke="#63b8ff" d="M323.99,-3.93C316.23,-3.73 308.12,-3.63 300,-3.63"/>
<polygon fill="#63b8ff" stroke="#63b8ff" points="323.82,-7.42 333.93,-4.25 324.05,-0.43 323.82,-7.42"/>
</a>
</g>
</g>
<!-- Node2&#45;&gt;Node1 -->
<g id="edge2_Node000002_Node000001" class="edge">
<title>Node2&#45;&gt;Node1</title>
<g id="a_edge2_Node000002_Node000001"><a xlink:title=" ">
<path fill="none" stroke="#63b8ff" d="M311.42,-17.05C319.74,-16.96 327.88,-16.75 335.45,-16.45"/>
<polygon fill="#63b8ff" stroke="#63b8ff" points="311.49,-13.55 301.51,-17.12 311.54,-20.55 311.49,-13.55"/>
</a>
</g>
</g>
<!-- Node3 -->
<g id="Node000003" class="node">
<title>Node3</title>
<g id="a_Node000003"><a xlink:href="$UnitConversion_8inl.html#a6130e2a9d74e175a0b6605ae2820c59e" xlink:title=" ">
<polygon fill="white" stroke="#666666" points="103.75,-20.75 0,-20.75 0,0 103.75,0 103.75,-20.75"/>
<text xml:space="preserve" text-anchor="middle" x="51.88" y="-7.25" font-family="Helvetica,sans-Serif" font-size="10.00">LexTryParseString</text>
</a>
</g>
</g>
<!-- Node2&#45;&gt;Node3 -->
<g id="edge3_Node000002_Node000003" class="edge">
<title>Node2&#45;&gt;Node3</title>
<g id="a_edge3_Node000002_Node000003"><a xlink:title=" ">
<path fill="none" stroke="#63b8ff" d="M128.28,-10.38C119.92,-10.38 111.67,-10.38 103.87,-10.38"/>
<polygon fill="#63b8ff" stroke="#63b8ff" points="128.19,-13.88 138.19,-10.38 128.19,-6.88 128.19,-13.88"/>
</a>
</g>
</g>
</g>
</svg>
