<?xml version="1.0" encoding="UTF-8" standalone="no"?>
<!DOCTYPE svg PUBLIC "-//W3C//DTD SVG 1.1//EN"
 "http://www.w3.org/Graphics/SVG/1.1/DTD/svg11.dtd">
<!-- Generated by graphviz version 14.1.4 (0)
 -->
<!-- Title: ForwardAsBase Pages: 1 -->
<svg width="844pt" height="118pt"
 viewBox="0.00 0.00 844.00 118.00" xmlns="http://www.w3.org/2000/svg" xmlns:xlink="http://www.w3.org/1999/xlink">
<g id="graph0" class="graph" transform="scale(1 1) rotate(0) translate(4 114.25)">
<title>ForwardAsBase</title>
<!-- Node1 -->
<g id="Node000001" class="node">
<title>Node1</title>
<g id="a_Node000001"><a xlink:title=" ">
<polygon fill="#999999" stroke="#666666" points="836,-65.5 745,-65.5 745,-44.75 836,-44.75 836,-65.5"/>
<text xml:space="preserve" text-anchor="middle" x="790.5" y="-52" font-family="Helvetica,sans-Serif" font-size="10.00">ForwardAsBase</text>
</a>
</g>
</g>
<!-- Node2 -->
<g id="Node000002" class="node">
<title>Node2</title>
<g id="a_Node000002"><a xlink:href="$structUE_1_1Core_1_1Private_1_1Tuple_1_1TTupleElementGetterByIndex_3_010_00_012_01_4.html#a3e36a4f4e09934f057a7422d7dcc0d13" xlink:title=" ">
<polygon fill="white" stroke="#666666" points="709,-110.25 558.75,-110.25 558.75,-64 709,-64 709,-110.25"/>
<text xml:space="preserve" text-anchor="start" x="566.75" y="-96.75" font-family="Helvetica,sans-Serif" font-size="10.00">UE::Core::Private::</text>
<text xml:space="preserve" text-anchor="start" x="566.75" y="-84" font-family="Helvetica,sans-Serif" font-size="10.00">Tuple::TTupleElementGetter</text>
<text xml:space="preserve" text-anchor="middle" x="633.88" y="-71.25" font-family="Helvetica,sans-Serif" font-size="10.00">ByIndex&lt; 0, 2 &gt;::Get</text>
</a>
</g>
</g>
<!-- Node1&#45;&gt;Node2 -->
<g id="edge1_Node000001_Node000002" class="edge">
<title>Node1&#45;&gt;Node2</title>
<g id="a_edge1_Node000001_Node000002"><a xlink:title=" ">
<path fill="none" stroke="#63b8ff" d="M733.76,-66.66C725.79,-68.31 717.48,-70.03 709.21,-71.74"/>
<polygon fill="#63b8ff" stroke="#63b8ff" points="734.21,-70.14 743.29,-64.69 732.79,-63.29 734.21,-70.14"/>
</a>
</g>
</g>
<!-- Node3 -->
<g id="Node000003" class="node">
<title>Node3</title>
<g id="a_Node000003"><a xlink:href="$structUE_1_1Core_1_1Private_1_1Tuple_1_1TTupleElementGetterByIndex.html#a346c9f2c4e8917d0978cf0a11734d3ea" xlink:title=" ">
<polygon fill="white" stroke="#666666" points="709,-46.25 558.75,-46.25 558.75,0 709,0 709,-46.25"/>
<text xml:space="preserve" text-anchor="start" x="566.75" y="-32.75" font-family="Helvetica,sans-Serif" font-size="10.00">UE::Core::Private::</text>
<text xml:space="preserve" text-anchor="start" x="566.75" y="-20" font-family="Helvetica,sans-Serif" font-size="10.00">Tuple::TTupleElementGetter</text>
<text xml:space="preserve" text-anchor="middle" x="633.88" y="-7.25" font-family="Helvetica,sans-Serif" font-size="10.00">ByIndex::GetImpl</text>
</a>
</g>
</g>
<!-- Node1&#45;&gt;Node3 -->
<g id="edge2_Node000001_Node000003" class="edge">
<title>Node1&#45;&gt;Node3</title>
<g id="a_edge2_Node000001_Node000003"><a xlink:title=" ">
<path fill="none" stroke="#63b8ff" d="M733.76,-43.59C725.79,-41.94 717.48,-40.22 709.21,-38.51"/>
<polygon fill="#63b8ff" stroke="#63b8ff" points="732.79,-46.96 743.29,-45.56 734.21,-40.11 732.79,-46.96"/>
</a>
</g>
</g>
<!-- Node4 -->
<g id="Node000004" class="node">
<title>Node4</title>
<g id="a_Node000004"><a xlink:href="$structUE_1_1Core_1_1Private_1_1Tuple_1_1TTupleElementGetterByIndex.html#af1191406b4cdf28f30b08b8720e9eb1b" xlink:title=" ">
<polygon fill="white" stroke="#666666" points="522.75,-46.25 372.5,-46.25 372.5,0 522.75,0 522.75,-46.25"/>
<text xml:space="preserve" text-anchor="start" x="380.5" y="-32.75" font-family="Helvetica,sans-Serif" font-size="10.00">UE::Core::Private::</text>
<text xml:space="preserve" text-anchor="start" x="380.5" y="-20" font-family="Helvetica,sans-Serif" font-size="10.00">Tuple::TTupleElementGetter</text>
<text xml:space="preserve" text-anchor="middle" x="447.62" y="-7.25" font-family="Helvetica,sans-Serif" font-size="10.00">ByIndex::Get</text>
</a>
</g>
</g>
<!-- Node3&#45;&gt;Node4 -->
<g id="edge3_Node000003_Node000004" class="edge">
<title>Node3&#45;&gt;Node4</title>
<g id="a_edge3_Node000003_Node000004"><a xlink:title=" ">
<path fill="none" stroke="#63b8ff" d="M547.14,-23.12C539.08,-23.12 530.96,-23.12 523.01,-23.12"/>
<polygon fill="#63b8ff" stroke="#63b8ff" points="546.95,-26.63 556.95,-23.13 546.95,-19.63 546.95,-26.63"/>
</a>
</g>
</g>
<!-- Node5 -->
<g id="Node000005" class="node">
<title>Node5</title>
<g id="a_Node000005"><a xlink:href="$structUE_1_1Core_1_1Private_1_1Tuple_1_1TTupleElementGetterByType.html#a4e47c371b4a77ce15953a6b05e484528" xlink:title=" ">
<polygon fill="white" stroke="#666666" points="336.5,-46.25 186.25,-46.25 186.25,0 336.5,0 336.5,-46.25"/>
<text xml:space="preserve" text-anchor="start" x="194.25" y="-32.75" font-family="Helvetica,sans-Serif" font-size="10.00">UE::Core::Private::</text>
<text xml:space="preserve" text-anchor="start" x="194.25" y="-20" font-family="Helvetica,sans-Serif" font-size="10.00">Tuple::TTupleElementGetter</text>
<text xml:space="preserve" text-anchor="middle" x="261.38" y="-7.25" font-family="Helvetica,sans-Serif" font-size="10.00">ByType::GetImpl</text>
</a>
</g>
</g>
<!-- Node4&#45;&gt;Node5 -->
<g id="edge4_Node000004_Node000005" class="edge">
<title>Node4&#45;&gt;Node5</title>
<g id="a_edge4_Node000004_Node000005"><a xlink:title=" ">
<path fill="none" stroke="#63b8ff" d="M360.89,-23.12C352.83,-23.12 344.71,-23.12 336.76,-23.12"/>
<polygon fill="#63b8ff" stroke="#63b8ff" points="360.7,-26.63 370.7,-23.13 360.7,-19.63 360.7,-26.63"/>
</a>
</g>
</g>
<!-- Node6 -->
<g id="Node000006" class="node">
<title>Node6</title>
<g id="a_Node000006"><a xlink:href="$structUE_1_1Core_1_1Private_1_1Tuple_1_1TTupleElementGetterByType.html#a1934a64a1cf809b315f4724dca8c4b47" xlink:title=" ">
<polygon fill="white" stroke="#666666" points="150.25,-46.25 0,-46.25 0,0 150.25,0 150.25,-46.25"/>
<text xml:space="preserve" text-anchor="start" x="8" y="-32.75" font-family="Helvetica,sans-Serif" font-size="10.00">UE::Core::Private::</text>
<text xml:space="preserve" text-anchor="start" x="8" y="-20" font-family="Helvetica,sans-Serif" font-size="10.00">Tuple::TTupleElementGetter</text>
<text xml:space="preserve" text-anchor="middle" x="75.12" y="-7.25" font-family="Helvetica,sans-Serif" font-size="10.00">ByType::Get</text>
</a>
</g>
</g>
<!-- Node5&#45;&gt;Node6 -->
<g id="edge5_Node000005_Node000006" class="edge">
<title>Node5&#45;&gt;Node6</title>
<g id="a_edge5_Node000005_Node000006"><a xlink:title=" ">
<path fill="none" stroke="#63b8ff" d="M174.64,-23.12C166.58,-23.12 158.46,-23.12 150.51,-23.12"/>
<polygon fill="#63b8ff" stroke="#63b8ff" points="174.45,-26.63 184.45,-23.13 174.45,-19.63 174.45,-26.63"/>
</a>
</g>
</g>
</g>
</svg>
