<?xml version="1.0" encoding="UTF-8" standalone="no"?>
<!DOCTYPE svg PUBLIC "-//W3C//DTD SVG 1.1//EN"
 "http://www.w3.org/Graphics/SVG/1.1/DTD/svg11.dtd">
<!-- Generated by graphviz version 14.1.4 (0)
 -->
<!-- Title: VectorMin Pages: 1 -->
<svg width="843pt" height="428pt"
 viewBox="0.00 0.00 843.00 428.00" xmlns="http://www.w3.org/2000/svg" xmlns:xlink="http://www.w3.org/1999/xlink">
<g id="graph0" class="graph" transform="scale(1 1) rotate(0) translate(4 423.75)">
<title>VectorMin</title>
<!-- Node1 -->
<g id="Node000001" class="node">
<title>Node1</title>
<g id="a_Node000001"><a xlink:title=" ">
<polygon fill="#999999" stroke="#666666" points="834.5,-195.75 769,-195.75 769,-175 834.5,-175 834.5,-195.75"/>
<text xml:space="preserve" text-anchor="middle" x="801.75" y="-182.25" font-family="Helvetica,sans-Serif" font-size="10.00">VectorMin</text>
</a>
</g>
</g>
<!-- Node2 -->
<g id="Node000002" class="node">
<title>Node2</title>
<g id="a_Node000002"><a xlink:href="$structTBounds.html#a2acf96cb8a4c279b501263bbe668f601" xlink:title=" ">
<polygon fill="white" stroke="#666666" points="721.75,-383.75 577.5,-383.75 577.5,-363 721.75,-363 721.75,-383.75"/>
<text xml:space="preserve" text-anchor="middle" x="649.62" y="-370.25" font-family="Helvetica,sans-Serif" font-size="10.00">TBounds&lt; float &gt;::DistSqr</text>
</a>
</g>
</g>
<!-- Node1&#45;&gt;Node2 -->
<g id="edge1_Node000001_Node000002" class="edge">
<title>Node1&#45;&gt;Node2</title>
<g id="a_edge1_Node000001_Node000002"><a xlink:title=" ">
<path fill="none" stroke="#63b8ff" d="M798.42,-207.23C793.35,-243.51 777.89,-315.94 733,-354.38 729.21,-357.62 724.97,-360.34 720.48,-362.61"/>
<polygon fill="#63b8ff" stroke="#63b8ff" points="801.87,-207.88 799.63,-197.53 794.92,-207.02 801.87,-207.88"/>
</a>
</g>
</g>
<!-- Node3 -->
<g id="Node000003" class="node">
<title>Node3</title>
<g id="a_Node000003"><a xlink:href="$classFOctreeNodeContext.html#a2ec800202b6db1408690a4ea750755fc" xlink:title=" ">
<polygon fill="white" stroke="#666666" points="708.62,-345.12 590.62,-345.12 590.62,-311.62 708.62,-311.62 708.62,-345.12"/>
<text xml:space="preserve" text-anchor="start" x="598.62" y="-331.62" font-family="Helvetica,sans-Serif" font-size="10.00">FOctreeNodeContext</text>
<text xml:space="preserve" text-anchor="middle" x="649.62" y="-318.88" font-family="Helvetica,sans-Serif" font-size="10.00">::GetContainingChild</text>
</a>
</g>
</g>
<!-- Node1&#45;&gt;Node3 -->
<g id="edge2_Node000001_Node000003" class="edge">
<title>Node1&#45;&gt;Node3</title>
<g id="a_edge2_Node000001_Node000003"><a xlink:title=" ">
<path fill="none" stroke="#63b8ff" d="M793.78,-206.88C784.19,-233.14 764.44,-277.16 733,-302.38 725.86,-308.1 717.45,-312.57 708.77,-316.06"/>
<polygon fill="#63b8ff" stroke="#63b8ff" points="797.02,-208.22 796.98,-197.62 790.4,-205.93 797.02,-208.22"/>
</a>
</g>
</g>
<!-- Node12 -->
<g id="Node000012" class="node">
<title>Node12</title>
<g id="a_Node000012"><a xlink:href="$structFGenericPlatformMath.html#a6ae31bdba2538179eaff704ad7af78f1" xlink:title=" ">
<polygon fill="white" stroke="#666666" points="724.75,-293.75 574.5,-293.75 574.5,-273 724.75,-273 724.75,-293.75"/>
<text xml:space="preserve" text-anchor="middle" x="649.62" y="-280.25" font-family="Helvetica,sans-Serif" font-size="10.00">FGenericPlatformMath::Min</text>
</a>
</g>
</g>
<!-- Node1&#45;&gt;Node12 -->
<g id="edge14_Node000001_Node000012" class="edge">
<title>Node1&#45;&gt;Node12</title>
<g id="a_edge14_Node000001_Node000012"><a xlink:title=" ">
<path fill="none" stroke="#63b8ff" d="M788.44,-205.59C776.48,-223.49 756.69,-248.95 733,-263.38 726.84,-267.13 720.02,-270.17 713.02,-272.65"/>
<polygon fill="#63b8ff" stroke="#63b8ff" points="791.28,-207.65 793.73,-197.34 785.39,-203.87 791.28,-207.65"/>
</a>
</g>
</g>
<!-- Node13 -->
<g id="Node000013" class="node">
<title>Node13</title>
<g id="a_Node000013"><a xlink:href="$structFGenericPlatformMath.html#ab1cc5be04bcc0854b0aadd31396e7f21" xlink:title=" ">
<polygon fill="white" stroke="#666666" points="724.75,-254.75 574.5,-254.75 574.5,-234 724.75,-234 724.75,-254.75"/>
<text xml:space="preserve" text-anchor="middle" x="649.62" y="-241.25" font-family="Helvetica,sans-Serif" font-size="10.00">FGenericPlatformMath::Min</text>
</a>
</g>
</g>
<!-- Node1&#45;&gt;Node13 -->
<g id="edge15_Node000001_Node000013" class="edge">
<title>Node1&#45;&gt;Node13</title>
<g id="a_edge15_Node000001_Node000013"><a xlink:title=" ">
<path fill="none" stroke="#63b8ff" d="M775.37,-202.29C763.01,-209.92 747.67,-218.51 733,-224.38 724.12,-227.93 714.43,-230.96 704.93,-233.52"/>
<polygon fill="#63b8ff" stroke="#63b8ff" points="777.13,-205.31 783.7,-197 773.38,-199.4 777.13,-205.31"/>
</a>
</g>
</g>
<!-- Node14 -->
<g id="Node000014" class="node">
<title>Node14</title>
<g id="a_Node000014"><a xlink:href="$structTBounds.html#a0623797b15eb5558f3fa0e303a4f7ad9" xlink:title=" ">
<polygon fill="white" stroke="#666666" points="733,-215.75 566.25,-215.75 566.25,-195 733,-195 733,-215.75"/>
<text xml:space="preserve" text-anchor="middle" x="649.62" y="-202.25" font-family="Helvetica,sans-Serif" font-size="10.00">TBounds&lt; float &gt;::operator+=</text>
</a>
</g>
</g>
<!-- Node1&#45;&gt;Node14 -->
<g id="edge16_Node000001_Node000014" class="edge">
<title>Node1&#45;&gt;Node14</title>
<g id="a_edge16_Node000001_Node000014"><a xlink:title=" ">
<path fill="none" stroke="#63b8ff" d="M757.33,-191.16C749.36,-192.22 740.8,-193.36 732.12,-194.52"/>
<polygon fill="#63b8ff" stroke="#63b8ff" points="757.59,-194.66 767.04,-189.87 756.67,-187.72 757.59,-194.66"/>
</a>
</g>
</g>
<!-- Node15 -->
<g id="Node000015" class="node">
<title>Node15</title>
<g id="a_Node000015"><a xlink:href="$structTBounds.html#ad2c7e1f1530e0249da70c87832db8bc4" xlink:title=" ">
<polygon fill="white" stroke="#666666" points="733,-176.75 566.25,-176.75 566.25,-156 733,-156 733,-176.75"/>
<text xml:space="preserve" text-anchor="middle" x="649.62" y="-163.25" font-family="Helvetica,sans-Serif" font-size="10.00">TBounds&lt; float &gt;::operator+=</text>
</a>
</g>
</g>
<!-- Node1&#45;&gt;Node15 -->
<g id="edge17_Node000001_Node000015" class="edge">
<title>Node1&#45;&gt;Node15</title>
<g id="a_edge17_Node000001_Node000015"><a xlink:title=" ">
<path fill="none" stroke="#63b8ff" d="M757.16,-179.86C749.61,-178.9 741.55,-177.88 733.35,-176.85"/>
<polygon fill="#63b8ff" stroke="#63b8ff" points="756.68,-183.33 767.04,-181.11 757.56,-176.38 756.68,-183.33"/>
</a>
</g>
</g>
<!-- Node16 -->
<g id="Node000016" class="node">
<title>Node16</title>
<g id="a_Node000016"><a xlink:href="$UnrealMathVectorCommon_8h_8inl.html#aa24fc9bf737e50b1a8fb4651861f16ba" xlink:title=" ">
<polygon fill="white" stroke="#666666" points="689.12,-137.75 610.12,-137.75 610.12,-117 689.12,-117 689.12,-137.75"/>
<text xml:space="preserve" text-anchor="middle" x="649.62" y="-124.25" font-family="Helvetica,sans-Serif" font-size="10.00">VectorClamp</text>
</a>
</g>
</g>
<!-- Node1&#45;&gt;Node16 -->
<g id="edge18_Node000001_Node000016" class="edge">
<title>Node1&#45;&gt;Node16</title>
<g id="a_edge18_Node000001_Node000016"><a xlink:title=" ">
<path fill="none" stroke="#63b8ff" d="M774.82,-168.63C762.53,-161.27 747.41,-153.04 733,-147.38 719.17,-141.94 703.43,-137.67 689.44,-134.51"/>
<polygon fill="#63b8ff" stroke="#63b8ff" points="772.76,-171.47 783.11,-173.73 776.42,-165.51 772.76,-171.47"/>
</a>
</g>
</g>
<!-- Node17 -->
<g id="Node000017" class="node">
<title>Node17</title>
<g id="a_Node000017"><a xlink:href="$UnrealMathVectorCommon_8h_8inl.html#a6bc30d287417c31f31a799c60da7ffe6" xlink:title=" ">
<polygon fill="white" stroke="#666666" points="689.12,-98.75 610.12,-98.75 610.12,-78 689.12,-78 689.12,-98.75"/>
<text xml:space="preserve" text-anchor="middle" x="649.62" y="-85.25" font-family="Helvetica,sans-Serif" font-size="10.00">VectorClamp</text>
</a>
</g>
</g>
<!-- Node1&#45;&gt;Node17 -->
<g id="edge19_Node000001_Node000017" class="edge">
<title>Node1&#45;&gt;Node17</title>
<g id="a_edge19_Node000001_Node000017"><a xlink:title=" ">
<path fill="none" stroke="#63b8ff" d="M788.19,-165.14C776.17,-147.48 756.44,-122.54 733,-108.38 719.9,-100.46 703.85,-95.67 689.41,-92.78"/>
<polygon fill="#63b8ff" stroke="#63b8ff" points="785.11,-166.83 793.51,-173.28 790.97,-163 785.11,-166.83"/>
</a>
</g>
</g>
<!-- Node18 -->
<g id="Node000018" class="node">
<title>Node18</title>
<g id="a_Node000018"><a xlink:href="$UnrealMathFPU_8h.html#aa3ebb1a495fcbccdb62d6a493941a72c" xlink:title=" ">
<polygon fill="white" stroke="#666666" points="716.5,-59.75 582.75,-59.75 582.75,-39 716.5,-39 716.5,-59.75"/>
<text xml:space="preserve" text-anchor="middle" x="649.62" y="-46.25" font-family="Helvetica,sans-Serif" font-size="10.00">VectorStoreURGB10A2N</text>
</a>
</g>
</g>
<!-- Node1&#45;&gt;Node18 -->
<g id="edge20_Node000001_Node000018" class="edge">
<title>Node1&#45;&gt;Node18</title>
<g id="a_edge20_Node000001_Node000018"><a xlink:title=" ">
<path fill="none" stroke="#63b8ff" d="M794.14,-164.1C784.82,-137.76 765.28,-93.42 733,-69.38 728.04,-65.68 722.5,-62.66 716.68,-60.2"/>
<polygon fill="#63b8ff" stroke="#63b8ff" points="790.74,-164.99 797.23,-173.37 797.38,-162.78 790.74,-164.99"/>
</a>
</g>
</g>
<!-- Node19 -->
<g id="Node000019" class="node">
<title>Node19</title>
<g id="a_Node000019"><a xlink:href="$UnrealMathFPU_8h.html#aaa37fc6583cc5fd69a78ce4460ab090c" xlink:title=" ">
<polygon fill="white" stroke="#666666" points="713.5,-20.75 585.75,-20.75 585.75,0 713.5,0 713.5,-20.75"/>
<text xml:space="preserve" text-anchor="middle" x="649.62" y="-7.25" font-family="Helvetica,sans-Serif" font-size="10.00">VectorStoreURGBA16N</text>
</a>
</g>
</g>
<!-- Node1&#45;&gt;Node19 -->
<g id="edge21_Node000001_Node000019" class="edge">
<title>Node1&#45;&gt;Node19</title>
<g id="a_edge21_Node000001_Node000019"><a xlink:title=" ">
<path fill="none" stroke="#63b8ff" d="M797.46,-163.49C791.2,-129.68 774.28,-65.04 733,-30.38 727.36,-25.64 720.79,-22 713.85,-19.19"/>
<polygon fill="#63b8ff" stroke="#63b8ff" points="794.01,-164.04 799.12,-173.32 800.91,-162.87 794.01,-164.04"/>
</a>
</g>
</g>
<!-- Node4 -->
<g id="Node000004" class="node">
<title>Node4</title>
<g id="a_Node000004"><a xlink:href="$classTOctree2.html#a5110dbbe8a7f5325c1924565400d3596" xlink:title=" ">
<polygon fill="white" stroke="#666666" points="528.38,-401.75 365.38,-401.75 365.38,-381 528.38,-381 528.38,-401.75"/>
<text xml:space="preserve" text-anchor="middle" x="446.88" y="-388.25" font-family="Helvetica,sans-Serif" font-size="10.00">TOctree2::AddElementInternal</text>
</a>
</g>
</g>
<!-- Node3&#45;&gt;Node4 -->
<g id="edge3_Node000003_Node000004" class="edge">
<title>Node3&#45;&gt;Node4</title>
<g id="a_edge3_Node000003_Node000004"><a xlink:title=" ">
<path fill="none" stroke="#63b8ff" d="M579.54,-349.29C575.01,-350.93 570.55,-352.63 566.25,-354.38 549.67,-361.09 547.08,-366.32 530.25,-372.38 521.55,-375.5 512.14,-378.24 502.9,-380.6"/>
<polygon fill="#63b8ff" stroke="#63b8ff" points="580.46,-352.68 588.73,-346.07 578.14,-346.07 580.46,-352.68"/>
</a>
</g>
</g>
<!-- Node7 -->
<g id="Node000007" class="node">
<title>Node7</title>
<g id="a_Node000007"><a xlink:href="$classTOctree__DEPRECATED.html#abd2d9475a8392920066214535c864fdc" xlink:title=" ">
<polygon fill="white" stroke="#666666" points="509.25,-345.12 384.5,-345.12 384.5,-311.62 509.25,-311.62 509.25,-345.12"/>
<text xml:space="preserve" text-anchor="start" x="392.5" y="-331.62" font-family="Helvetica,sans-Serif" font-size="10.00">TOctree_DEPRECATED</text>
<text xml:space="preserve" text-anchor="middle" x="446.88" y="-318.88" font-family="Helvetica,sans-Serif" font-size="10.00">::AddElementToNode</text>
</a>
</g>
</g>
<!-- Node3&#45;&gt;Node7 -->
<g id="edge7_Node000003_Node000007" class="edge">
<title>Node3&#45;&gt;Node7</title>
<g id="a_edge7_Node000003_Node000007"><a xlink:title=" ">
<path fill="none" stroke="#63b8ff" d="M579.05,-328.38C556.43,-328.38 531.5,-328.38 509.5,-328.38"/>
<polygon fill="#63b8ff" stroke="#63b8ff" points="578.78,-331.88 588.78,-328.38 578.78,-324.88 578.78,-331.88"/>
</a>
</g>
</g>
<!-- Node10 -->
<g id="Node000010" class="node">
<title>Node10</title>
<g id="a_Node000010"><a xlink:href="$classTOctree2.html#a45503122961c2f78eb00f821735fb9a2" xlink:title=" ">
<polygon fill="white" stroke="#666666" points="530.25,-275.12 363.5,-275.12 363.5,-241.62 530.25,-241.62 530.25,-275.12"/>
<text xml:space="preserve" text-anchor="start" x="371.5" y="-261.62" font-family="Helvetica,sans-Serif" font-size="10.00">TOctree2::FindNearbyElements</text>
<text xml:space="preserve" text-anchor="middle" x="446.88" y="-248.88" font-family="Helvetica,sans-Serif" font-size="10.00">Internal</text>
</a>
</g>
</g>
<!-- Node3&#45;&gt;Node10 -->
<g id="edge11_Node000003_Node000010" class="edge">
<title>Node3&#45;&gt;Node10</title>
<g id="a_edge11_Node000003_Node000010"><a xlink:title=" ">
<path fill="none" stroke="#63b8ff" d="M581.82,-307.6C576.54,-305.87 571.3,-304.11 566.25,-302.38 541.78,-293.97 514.72,-283.97 492.65,-275.62"/>
<polygon fill="#63b8ff" stroke="#63b8ff" points="580.64,-310.9 591.23,-310.66 582.8,-304.24 580.64,-310.9"/>
</a>
</g>
</g>
<!-- Node4&#45;&gt;Node4 -->
<g id="edge6_Node000004_Node000004" class="edge">
<title>Node4&#45;&gt;Node4</title>
<g id="a_edge6_Node000004_Node000004"><a xlink:title=" ">
<path fill="none" stroke="#63b8ff" d="M482.55,-413.24C477.82,-417.08 465.93,-419.75 446.88,-419.75 412.03,-419.75 401.14,-410.81 414.21,-402.15"/>
<polygon fill="#63b8ff" stroke="#63b8ff" points="485.94,-412.34 479.94,-403.61 479.18,-414.18 485.94,-412.34"/>
</a>
</g>
</g>
<!-- Node5 -->
<g id="Node000005" class="node">
<title>Node5</title>
<g id="a_Node000005"><a xlink:href="$classTOctree2.html#a4cd446fa10b1491a7a8ba1b813eb62e8" xlink:title=" ">
<polygon fill="white" stroke="#666666" points="306.88,-401.75 181.38,-401.75 181.38,-381 306.88,-381 306.88,-401.75"/>
<text xml:space="preserve" text-anchor="middle" x="244.12" y="-388.25" font-family="Helvetica,sans-Serif" font-size="10.00">TOctree2::AddElement</text>
</a>
</g>
</g>
<!-- Node4&#45;&gt;Node5 -->
<g id="edge4_Node000004_Node000005" class="edge">
<title>Node4&#45;&gt;Node5</title>
<g id="a_edge4_Node000004_Node000005"><a xlink:title=" ">
<path fill="none" stroke="#63b8ff" d="M353.7,-391.38C337.96,-391.38 321.94,-391.38 307.22,-391.38"/>
<polygon fill="#63b8ff" stroke="#63b8ff" points="353.58,-394.88 363.58,-391.38 353.58,-387.88 353.58,-394.88"/>
</a>
</g>
</g>
<!-- Node6 -->
<g id="Node000006" class="node">
<title>Node6</title>
<g id="a_Node000006"><a xlink:href="$classTOctree2.html#aee8b7946ce5fbf327e1eb0adfaab2579" xlink:title=" ">
<polygon fill="white" stroke="#666666" points="124.38,-401.75 0.38,-401.75 0.38,-381 124.38,-381 124.38,-401.75"/>
<text xml:space="preserve" text-anchor="middle" x="62.38" y="-388.25" font-family="Helvetica,sans-Serif" font-size="10.00">TOctree2::ApplyOffset</text>
</a>
</g>
</g>
<!-- Node5&#45;&gt;Node6 -->
<g id="edge5_Node000005_Node000006" class="edge">
<title>Node5&#45;&gt;Node6</title>
<g id="a_edge5_Node000005_Node000006"><a xlink:title=" ">
<path fill="none" stroke="#63b8ff" d="M169.7,-391.38C154.71,-391.38 139.09,-391.38 124.58,-391.38"/>
<polygon fill="#63b8ff" stroke="#63b8ff" points="169.5,-394.88 179.5,-391.38 169.5,-387.88 169.5,-394.88"/>
</a>
</g>
</g>
<!-- Node7&#45;&gt;Node7 -->
<g id="edge10_Node000007_Node000007" class="edge">
<title>Node7&#45;&gt;Node7</title>
<g id="a_edge10_Node000007_Node000007"><a xlink:title=" ">
<path fill="none" stroke="#63b8ff" d="M480.68,-356.68C475.06,-360.55 463.79,-363.12 446.88,-363.12 416.38,-363.12 404.23,-354.74 410.43,-345.54"/>
<polygon fill="#63b8ff" stroke="#63b8ff" points="484.07,-357.55 482.97,-347.01 477.26,-355.94 484.07,-357.55"/>
</a>
</g>
</g>
<!-- Node8 -->
<g id="Node000008" class="node">
<title>Node8</title>
<g id="a_Node000008"><a xlink:href="$classTOctree__DEPRECATED.html#aff4c7ca514bdb263de836a92f03f492b" xlink:title=" ">
<polygon fill="white" stroke="#666666" points="306.5,-345.12 181.75,-345.12 181.75,-311.62 306.5,-311.62 306.5,-345.12"/>
<text xml:space="preserve" text-anchor="start" x="189.75" y="-331.62" font-family="Helvetica,sans-Serif" font-size="10.00">TOctree_DEPRECATED</text>
<text xml:space="preserve" text-anchor="middle" x="244.12" y="-318.88" font-family="Helvetica,sans-Serif" font-size="10.00">::AddElement</text>
</a>
</g>
</g>
<!-- Node7&#45;&gt;Node8 -->
<g id="edge8_Node000007_Node000008" class="edge">
<title>Node7&#45;&gt;Node8</title>
<g id="a_edge8_Node000007_Node000008"><a xlink:title=" ">
<path fill="none" stroke="#63b8ff" d="M372.56,-328.38C350.97,-328.38 327.57,-328.38 306.79,-328.38"/>
<polygon fill="#63b8ff" stroke="#63b8ff" points="372.49,-331.88 382.49,-328.38 372.49,-324.88 372.49,-331.88"/>
</a>
</g>
</g>
<!-- Node9 -->
<g id="Node000009" class="node">
<title>Node9</title>
<g id="a_Node000009"><a xlink:href="$classTOctree__DEPRECATED.html#a9ca49ee8586fe4a12910c93213d646a3" xlink:title=" ">
<polygon fill="white" stroke="#666666" points="124.75,-345.12 0,-345.12 0,-311.62 124.75,-311.62 124.75,-345.12"/>
<text xml:space="preserve" text-anchor="start" x="8" y="-331.62" font-family="Helvetica,sans-Serif" font-size="10.00">TOctree_DEPRECATED</text>
<text xml:space="preserve" text-anchor="middle" x="62.38" y="-318.88" font-family="Helvetica,sans-Serif" font-size="10.00">::ApplyOffset</text>
</a>
</g>
</g>
<!-- Node8&#45;&gt;Node9 -->
<g id="edge9_Node000008_Node000009" class="edge">
<title>Node8&#45;&gt;Node9</title>
<g id="a_edge9_Node000008_Node000009"><a xlink:title=" ">
<path fill="none" stroke="#63b8ff" d="M170.01,-328.38C155.08,-328.38 139.52,-328.38 125.04,-328.38"/>
<polygon fill="#63b8ff" stroke="#63b8ff" points="169.75,-331.88 179.75,-328.38 169.75,-324.88 169.75,-331.88"/>
</a>
</g>
</g>
<!-- Node10&#45;&gt;Node10 -->
<g id="edge13_Node000010_Node000010" class="edge">
<title>Node10&#45;&gt;Node10</title>
<g id="a_edge13_Node000010_Node000010"><a xlink:title=" ">
<path fill="none" stroke="#63b8ff" d="M480.68,-286.68C475.06,-290.55 463.79,-293.12 446.88,-293.12 416.38,-293.12 404.23,-284.74 410.43,-275.54"/>
<polygon fill="#63b8ff" stroke="#63b8ff" points="484.07,-287.55 482.97,-277.01 477.26,-285.94 484.07,-287.55"/>
</a>
</g>
</g>
<!-- Node11 -->
<g id="Node000011" class="node">
<title>Node11</title>
<g id="a_Node000011"><a xlink:href="$classTOctree2.html#a21dc1e8f07892cae81acd4720a955cf0" xlink:title=" ">
<polygon fill="white" stroke="#666666" points="327.5,-268.75 160.75,-268.75 160.75,-248 327.5,-248 327.5,-268.75"/>
<text xml:space="preserve" text-anchor="middle" x="244.12" y="-255.25" font-family="Helvetica,sans-Serif" font-size="10.00">TOctree2::FindNearbyElements</text>
</a>
</g>
</g>
<!-- Node10&#45;&gt;Node11 -->
<g id="edge12_Node000010_Node000011" class="edge">
<title>Node10&#45;&gt;Node11</title>
<g id="a_edge12_Node000010_Node000011"><a xlink:title=" ">
<path fill="none" stroke="#63b8ff" d="M351.78,-258.38C343.75,-258.38 335.67,-258.38 327.75,-258.38"/>
<polygon fill="#63b8ff" stroke="#63b8ff" points="351.55,-261.88 361.55,-258.38 351.55,-254.88 351.55,-261.88"/>
</a>
</g>
</g>
</g>
</svg>
