<?xml version="1.0" encoding="UTF-8" standalone="no"?>
<!DOCTYPE svg PUBLIC "-//W3C//DTD SVG 1.1//EN"
 "http://www.w3.org/Graphics/SVG/1.1/DTD/svg11.dtd">
<!-- Generated by graphviz version 14.1.4 (0)
 -->
<!-- Title: VectorStoreFloat3 Pages: 1 -->
<svg width="261pt" height="146pt"
 viewBox="0.00 0.00 261.00 146.00" xmlns="http://www.w3.org/2000/svg" xmlns:xlink="http://www.w3.org/1999/xlink">
<g id="graph0" class="graph" transform="scale(1 1) rotate(0) translate(4 141.75)">
<title>VectorStoreFloat3</title>
<!-- Node1 -->
<g id="Node000001" class="node">
<title>Node1</title>
<g id="a_Node000001"><a xlink:title="VectorStoreFloat3.">
<polygon fill="#999999" stroke="#666666" points="253.25,-78.75 149.5,-78.75 149.5,-58 253.25,-58 253.25,-78.75"/>
<text xml:space="preserve" text-anchor="middle" x="201.38" y="-65.25" font-family="Helvetica,sans-Serif" font-size="10.00">VectorStoreFloat3</text>
</a>
</g>
</g>
<!-- Node1&#45;&gt;Node1 -->
<g id="edge5_Node000001_Node000001" class="edge">
<title>Node1&#45;&gt;Node1</title>
<g id="a_edge5_Node000001_Node000001"><a xlink:title=" ">
<path fill="none" stroke="#63b8ff" d="M226.82,-90.24C223.45,-94.08 214.97,-96.75 201.38,-96.75 176.52,-96.75 168.75,-87.81 178.07,-79.15"/>
<polygon fill="#63b8ff" stroke="#63b8ff" points="230.3,-89.79 224.97,-80.63 223.43,-91.12 230.3,-89.79"/>
</a>
</g>
</g>
<!-- Node2 -->
<g id="Node000002" class="node">
<title>Node2</title>
<g id="a_Node000002"><a xlink:href="$UnrealMathVectorCommon_8h_8inl.html#a08c2c7ffe6c804f2e4dd034dc00fd7fb" xlink:title=" ">
<polygon fill="white" stroke="#666666" points="113.5,-137.75 0,-137.75 0,-117 113.5,-117 113.5,-137.75"/>
<text xml:space="preserve" text-anchor="middle" x="56.75" y="-124.25" font-family="Helvetica,sans-Serif" font-size="10.00">VectorStoreDouble3</text>
</a>
</g>
</g>
<!-- Node1&#45;&gt;Node2 -->
<g id="edge1_Node000001_Node000002" class="edge">
<title>Node1&#45;&gt;Node2</title>
<g id="a_edge1_Node000001_Node000002"><a xlink:title=" ">
<path fill="none" stroke="#63b8ff" d="M167.68,-83.77C151.51,-91.21 131.61,-100.07 113.5,-107.38 105.68,-110.53 97.15,-113.71 89.17,-116.59"/>
<polygon fill="#63b8ff" stroke="#63b8ff" points="168.74,-87.14 176.35,-79.76 165.8,-80.79 168.74,-87.14"/>
</a>
</g>
</g>
<!-- Node3 -->
<g id="Node000003" class="node">
<title>Node3</title>
<g id="a_Node000003"><a xlink:href="$UnrealMathVectorCommon_8h_8inl.html#a0b6d356931e26fe78b2d7b99c0a534ed" xlink:title=" ">
<polygon fill="white" stroke="#666666" points="108.62,-98.75 4.88,-98.75 4.88,-78 108.62,-78 108.62,-98.75"/>
<text xml:space="preserve" text-anchor="middle" x="56.75" y="-85.25" font-family="Helvetica,sans-Serif" font-size="10.00">VectorStoreFloat3</text>
</a>
</g>
</g>
<!-- Node1&#45;&gt;Node3 -->
<g id="edge2_Node000001_Node000003" class="edge">
<title>Node1&#45;&gt;Node3</title>
<g id="a_edge2_Node000001_Node000003"><a xlink:title=" ">
<path fill="none" stroke="#63b8ff" d="M138.03,-77.12C128.32,-78.48 118.39,-79.87 108.96,-81.19"/>
<polygon fill="#63b8ff" stroke="#63b8ff" points="138.37,-80.6 147.79,-75.75 137.4,-73.67 138.37,-80.6"/>
</a>
</g>
</g>
<!-- Node4 -->
<g id="Node000004" class="node">
<title>Node4</title>
<g id="a_Node000004"><a xlink:href="$UnrealMathVectorCommon_8h_8inl.html#aee1cc58b448e079a74eb011e618c9455" xlink:title=" ">
<polygon fill="white" stroke="#666666" points="108.62,-59.75 4.88,-59.75 4.88,-39 108.62,-39 108.62,-59.75"/>
<text xml:space="preserve" text-anchor="middle" x="56.75" y="-46.25" font-family="Helvetica,sans-Serif" font-size="10.00">VectorStoreFloat3</text>
</a>
</g>
</g>
<!-- Node1&#45;&gt;Node4 -->
<g id="edge3_Node000001_Node000004" class="edge">
<title>Node1&#45;&gt;Node4</title>
<g id="a_edge3_Node000001_Node000004"><a xlink:title=" ">
<path fill="none" stroke="#63b8ff" d="M138.03,-60.07C128.32,-58.78 118.39,-57.45 108.96,-56.2"/>
<polygon fill="#63b8ff" stroke="#63b8ff" points="137.41,-63.52 147.79,-61.37 138.34,-56.58 137.41,-63.52"/>
</a>
</g>
</g>
<!-- Node5 -->
<g id="Node000005" class="node">
<title>Node5</title>
<g id="a_Node000005"><a xlink:href="$UnrealMathVectorCommon_8h_8inl.html#a1f23d70d32db7737e416d081d505d4ed" xlink:title=" ">
<polygon fill="white" stroke="#666666" points="108.62,-20.75 4.88,-20.75 4.88,0 108.62,0 108.62,-20.75"/>
<text xml:space="preserve" text-anchor="middle" x="56.75" y="-7.25" font-family="Helvetica,sans-Serif" font-size="10.00">VectorStoreFloat3</text>
</a>
</g>
</g>
<!-- Node1&#45;&gt;Node5 -->
<g id="edge4_Node000001_Node000005" class="edge">
<title>Node1&#45;&gt;Node5</title>
<g id="a_edge4_Node000001_Node000005"><a xlink:title=" ">
<path fill="none" stroke="#63b8ff" d="M166.51,-52.92C150.54,-45.8 131.15,-37.39 113.5,-30.38 105.66,-27.26 97.13,-24.09 89.15,-21.22"/>
<polygon fill="#63b8ff" stroke="#63b8ff" points="165.02,-56.09 175.58,-57 167.89,-49.71 165.02,-56.09"/>
</a>
</g>
</g>
</g>
</svg>
