<?xml version="1.0" encoding="UTF-8" standalone="no"?>
<!DOCTYPE svg PUBLIC "-//W3C//DTD SVG 1.1//EN"
 "http://www.w3.org/Graphics/SVG/1.1/DTD/svg11.dtd">
<!-- Generated by graphviz version 14.1.4 (0)
 -->
<!-- Title: MakeVectorRegisterDoubleConstant Pages: 1 -->
<svg width="348pt" height="94pt"
 viewBox="0.00 0.00 348.00 94.00" xmlns="http://www.w3.org/2000/svg" xmlns:xlink="http://www.w3.org/1999/xlink">
<g id="graph0" class="graph" transform="scale(1 1) rotate(0) translate(4 89.5)">
<title>MakeVectorRegisterDoubleConstant</title>
<!-- Node1 -->
<g id="Node000001" class="node">
<title>Node1</title>
<g id="a_Node000001"><a xlink:title=" ">
<polygon fill="#999999" stroke="#666666" points="148.75,-59.5 0,-59.5 0,-26 148.75,-26 148.75,-59.5"/>
<text xml:space="preserve" text-anchor="start" x="8" y="-46" font-family="Helvetica,sans-Serif" font-size="10.00">MakeVectorRegisterDouble</text>
<text xml:space="preserve" text-anchor="middle" x="74.38" y="-33.25" font-family="Helvetica,sans-Serif" font-size="10.00">Constant</text>
</a>
</g>
</g>
<!-- Node2 -->
<g id="Node000002" class="node">
<title>Node2</title>
<g id="a_Node000002"><a xlink:href="$UnrealMathFPU_8h.html#a97f12dcc5bf6f1c4808f283f359c8730" xlink:title=" ">
<polygon fill="white" stroke="#666666" points="339.5,-85.5 184.75,-85.5 184.75,-52 339.5,-52 339.5,-85.5"/>
<text xml:space="preserve" text-anchor="start" x="192.75" y="-72" font-family="Helvetica,sans-Serif" font-size="10.00">MakeVectorRegister2Double</text>
<text xml:space="preserve" text-anchor="middle" x="262.12" y="-59.25" font-family="Helvetica,sans-Serif" font-size="10.00">Constant</text>
</a>
</g>
</g>
<!-- Node1&#45;&gt;Node2 -->
<g id="edge1_Node000001_Node000002" class="edge">
<title>Node1&#45;&gt;Node2</title>
<g id="a_edge1_Node000001_Node000002"><a xlink:title=" ">
<path fill="none" stroke="#63b8ff" d="M149.06,-53.06C156.97,-54.17 165.08,-55.31 173.15,-56.44"/>
<polygon fill="#63b8ff" stroke="#63b8ff" points="172.6,-59.89 182.99,-57.81 173.57,-52.96 172.6,-59.89"/>
</a>
</g>
</g>
<!-- Node3 -->
<g id="Node000003" class="node">
<title>Node3</title>
<g id="a_Node000003"><a xlink:href="$UnrealMathVectorConstants_8h_8inl.html#aa525a65b0cf60aabb8b788e4418af78b" xlink:title=" ">
<polygon fill="white" stroke="#666666" points="336.5,-33.5 187.75,-33.5 187.75,0 336.5,0 336.5,-33.5"/>
<text xml:space="preserve" text-anchor="start" x="195.75" y="-20" font-family="Helvetica,sans-Serif" font-size="10.00">MakeVectorRegisterDouble</text>
<text xml:space="preserve" text-anchor="middle" x="262.12" y="-7.25" font-family="Helvetica,sans-Serif" font-size="10.00">Constant</text>
</a>
</g>
</g>
<!-- Node1&#45;&gt;Node3 -->
<g id="edge2_Node000001_Node000003" class="edge">
<title>Node1&#45;&gt;Node3</title>
<g id="a_edge2_Node000001_Node000003"><a xlink:title=" ">
<path fill="none" stroke="#63b8ff" d="M149.06,-32.44C157.96,-31.19 167.11,-29.91 176.15,-28.64"/>
<polygon fill="#63b8ff" stroke="#63b8ff" points="176.62,-32.11 186.04,-27.26 175.65,-25.18 176.62,-32.11"/>
</a>
</g>
</g>
</g>
</svg>
