<?xml version="1.0" encoding="UTF-8" standalone="no"?>
<!DOCTYPE svg PUBLIC "-//W3C//DTD SVG 1.1//EN"
 "http://www.w3.org/Graphics/SVG/1.1/DTD/svg11.dtd">
<!-- Generated by graphviz version 14.1.4 (0)
 -->
<!-- Title: IntCastChecked Pages: 1 -->
<svg width="451pt" height="432pt"
 viewBox="0.00 0.00 451.00 432.00" xmlns="http://www.w3.org/2000/svg" xmlns:xlink="http://www.w3.org/1999/xlink">
<g id="graph0" class="graph" transform="scale(1 1) rotate(0) translate(4 427.5)">
<title>IntCastChecked</title>
<!-- Node1 -->
<g id="Node000001" class="node">
<title>Node1</title>
<g id="a_Node000001"><a xlink:title=" ">
<polygon fill="#999999" stroke="#666666" points="442.5,-209.12 350.75,-209.12 350.75,-188.38 442.5,-188.38 442.5,-209.12"/>
<text xml:space="preserve" text-anchor="middle" x="396.62" y="-195.62" font-family="Helvetica,sans-Serif" font-size="10.00">IntCastChecked</text>
</a>
</g>
</g>
<!-- Node2 -->
<g id="Node000002" class="node">
<title>Node2</title>
<g id="a_Node000002"><a xlink:href="$structUE_1_1Math_1_1TIntRect.html#ab4e79bbd5ed6257b2774e91c0a2ec421" xlink:title=" ">
<polygon fill="white" stroke="#666666" points="290.75,-397.5 184,-397.5 184,-364 290.75,-364 290.75,-397.5"/>
<text xml:space="preserve" text-anchor="start" x="192" y="-384" font-family="Helvetica,sans-Serif" font-size="10.00">UE::Math::TIntRect</text>
<text xml:space="preserve" text-anchor="middle" x="237.38" y="-371.25" font-family="Helvetica,sans-Serif" font-size="10.00">&lt; int32 &gt;::Scale</text>
</a>
</g>
</g>
<!-- Node1&#45;&gt;Node2 -->
<g id="edge1_Node000001_Node000002" class="edge">
<title>Node1&#45;&gt;Node2</title>
<g id="a_edge1_Node000001_Node000002"><a xlink:title=" ">
<path fill="none" stroke="#63b8ff" d="M390.05,-220.43C380.33,-253.94 357.18,-318.25 314.75,-354.75 307.85,-360.69 299.53,-365.28 290.95,-368.84"/>
<polygon fill="#63b8ff" stroke="#63b8ff" points="393.35,-221.62 392.63,-211.05 386.6,-219.76 393.35,-221.62"/>
</a>
</g>
</g>
<!-- Node5 -->
<g id="Node000005" class="node">
<title>Node5</title>
<g id="a_Node000005"><a xlink:href="$classFTransactionallySafeArchiveWriter.html#a49525137390bc54f31f6b6d65e45b470" xlink:title=" ">
<polygon fill="white" stroke="#666666" points="314.75,-345.5 160,-345.5 160,-312 314.75,-312 314.75,-345.5"/>
<text xml:space="preserve" text-anchor="start" x="168" y="-332" font-family="Helvetica,sans-Serif" font-size="10.00">FTransactionallySafeArchive</text>
<text xml:space="preserve" text-anchor="middle" x="237.38" y="-319.25" font-family="Helvetica,sans-Serif" font-size="10.00">Writer::Serialize</text>
</a>
</g>
</g>
<!-- Node1&#45;&gt;Node5 -->
<g id="edge4_Node000001_Node000005" class="edge">
<title>Node1&#45;&gt;Node5</title>
<g id="a_edge4_Node000001_Node000005"><a xlink:title=" ">
<path fill="none" stroke="#63b8ff" d="M384.49,-219.48C370.94,-242.87 345.95,-280.52 314.75,-302.75 310.07,-306.08 304.93,-309.01 299.6,-311.59"/>
<polygon fill="#63b8ff" stroke="#63b8ff" points="387.48,-221.32 389.31,-210.89 381.37,-217.9 387.48,-221.32"/>
</a>
</g>
</g>
<!-- Node6 -->
<g id="Node000006" class="node">
<title>Node6</title>
<g id="a_Node000006"><a xlink:href="$structUE_1_1Math_1_1TIntPoint.html#a62ae63bc5716a1ed4639fda223236b80" xlink:title=" ">
<polygon fill="white" stroke="#666666" points="299,-293.5 175.75,-293.5 175.75,-260 299,-260 299,-293.5"/>
<text xml:space="preserve" text-anchor="start" x="183.75" y="-280" font-family="Helvetica,sans-Serif" font-size="10.00">UE::Math::TIntPoint</text>
<text xml:space="preserve" text-anchor="middle" x="237.38" y="-267.25" font-family="Helvetica,sans-Serif" font-size="10.00">&lt; IntType &gt;::TIntPoint</text>
</a>
</g>
</g>
<!-- Node1&#45;&gt;Node6 -->
<g id="edge5_Node000001_Node000006" class="edge">
<title>Node1&#45;&gt;Node6</title>
<g id="a_edge5_Node000001_Node000006"><a xlink:title=" ">
<path fill="none" stroke="#63b8ff" d="M372.39,-215.86C356.68,-226.86 335.17,-240.89 314.75,-250.75 308.19,-253.92 301.15,-256.87 294.08,-259.56"/>
<polygon fill="#63b8ff" stroke="#63b8ff" points="374.01,-219 380.12,-210.34 369.94,-213.3 374.01,-219"/>
</a>
</g>
</g>
<!-- Node7 -->
<g id="Node000007" class="node">
<title>Node7</title>
<g id="a_Node000007"><a xlink:href="$structUE_1_1Math_1_1TIntVector2.html#afae603d121f1652c73eb2969b4d1b418" xlink:title=" ">
<polygon fill="white" stroke="#666666" points="300.12,-241.5 174.62,-241.5 174.62,-208 300.12,-208 300.12,-241.5"/>
<text xml:space="preserve" text-anchor="start" x="182.62" y="-228" font-family="Helvetica,sans-Serif" font-size="10.00">UE::Math::TIntVector2</text>
<text xml:space="preserve" text-anchor="middle" x="237.38" y="-215.25" font-family="Helvetica,sans-Serif" font-size="10.00">&lt; int32 &gt;::TIntVector2</text>
</a>
</g>
</g>
<!-- Node1&#45;&gt;Node7 -->
<g id="edge6_Node000001_Node000007" class="edge">
<title>Node1&#45;&gt;Node7</title>
<g id="a_edge6_Node000001_Node000007"><a xlink:title=" ">
<path fill="none" stroke="#63b8ff" d="M339.27,-208.07C326.68,-210.15 313.25,-212.37 300.44,-214.49"/>
<polygon fill="#63b8ff" stroke="#63b8ff" points="339.78,-211.53 349.07,-206.45 338.63,-204.63 339.78,-211.53"/>
</a>
</g>
</g>
<!-- Node8 -->
<g id="Node000008" class="node">
<title>Node8</title>
<g id="a_Node000008"><a xlink:href="$structUE_1_1Math_1_1TIntVector3.html#ae7b9624b78e9877e9882ff7745980112" xlink:title=" ">
<polygon fill="white" stroke="#666666" points="298.62,-189.5 176.12,-189.5 176.12,-156 298.62,-156 298.62,-189.5"/>
<text xml:space="preserve" text-anchor="start" x="184.12" y="-176" font-family="Helvetica,sans-Serif" font-size="10.00">UE::Math::TIntVector3</text>
<text xml:space="preserve" text-anchor="middle" x="237.38" y="-163.25" font-family="Helvetica,sans-Serif" font-size="10.00">::TIntVector3</text>
</a>
</g>
</g>
<!-- Node1&#45;&gt;Node8 -->
<g id="edge7_Node000001_Node000008" class="edge">
<title>Node1&#45;&gt;Node8</title>
<g id="a_edge7_Node000001_Node000008"><a xlink:title=" ">
<path fill="none" stroke="#63b8ff" d="M339.33,-189.44C326.24,-187.28 312.25,-184.96 298.98,-182.77"/>
<polygon fill="#63b8ff" stroke="#63b8ff" points="338.63,-192.87 349.07,-191.05 339.78,-185.97 338.63,-192.87"/>
</a>
</g>
</g>
<!-- Node9 -->
<g id="Node000009" class="node">
<title>Node9</title>
<g id="a_Node000009"><a xlink:href="$structUE_1_1Math_1_1TIntVector3.html#aa82162012908cb8854ce43d4092118a5" xlink:title=" ">
<polygon fill="white" stroke="#666666" points="300.12,-137.5 174.62,-137.5 174.62,-104 300.12,-104 300.12,-137.5"/>
<text xml:space="preserve" text-anchor="start" x="182.62" y="-124" font-family="Helvetica,sans-Serif" font-size="10.00">UE::Math::TIntVector3</text>
<text xml:space="preserve" text-anchor="middle" x="237.38" y="-111.25" font-family="Helvetica,sans-Serif" font-size="10.00">&lt; int32 &gt;::TIntVector3</text>
</a>
</g>
</g>
<!-- Node1&#45;&gt;Node9 -->
<g id="edge8_Node000001_Node000009" class="edge">
<title>Node1&#45;&gt;Node9</title>
<g id="a_edge8_Node000001_Node000009"><a xlink:title=" ">
<path fill="none" stroke="#63b8ff" d="M372.39,-181.64C356.68,-170.64 335.17,-156.61 314.75,-146.75 308.19,-143.58 301.15,-140.63 294.08,-137.94"/>
<polygon fill="#63b8ff" stroke="#63b8ff" points="369.94,-184.2 380.12,-187.16 374.01,-178.5 369.94,-184.2"/>
</a>
</g>
</g>
<!-- Node10 -->
<g id="Node000010" class="node">
<title>Node10</title>
<g id="a_Node000010"><a xlink:href="$structUE_1_1Math_1_1TIntVector4.html#ac2fbe7fed6b82867bb916fe585ad41dc" xlink:title=" ">
<polygon fill="white" stroke="#666666" points="300.12,-85.5 174.62,-85.5 174.62,-52 300.12,-52 300.12,-85.5"/>
<text xml:space="preserve" text-anchor="start" x="182.62" y="-72" font-family="Helvetica,sans-Serif" font-size="10.00">UE::Math::TIntVector4</text>
<text xml:space="preserve" text-anchor="middle" x="237.38" y="-59.25" font-family="Helvetica,sans-Serif" font-size="10.00">&lt; int32 &gt;::TIntVector4</text>
</a>
</g>
</g>
<!-- Node1&#45;&gt;Node10 -->
<g id="edge9_Node000001_Node000010" class="edge">
<title>Node1&#45;&gt;Node10</title>
<g id="a_edge9_Node000001_Node000010"><a xlink:title=" ">
<path fill="none" stroke="#63b8ff" d="M384.49,-178.02C370.94,-154.63 345.95,-116.98 314.75,-94.75 310.07,-91.42 304.93,-88.49 299.6,-85.91"/>
<polygon fill="#63b8ff" stroke="#63b8ff" points="381.37,-179.6 389.31,-186.61 387.48,-176.18 381.37,-179.6"/>
</a>
</g>
</g>
<!-- Node11 -->
<g id="Node000011" class="node">
<title>Node11</title>
<g id="a_Node000011"><a xlink:href="$classTStringView.html#a2017925cae64947b62d8c508e3be3cba" xlink:title=" ">
<polygon fill="white" stroke="#666666" points="297.12,-33.5 177.62,-33.5 177.62,0 297.12,0 297.12,-33.5"/>
<text xml:space="preserve" text-anchor="start" x="185.62" y="-20" font-family="Helvetica,sans-Serif" font-size="10.00">TStringView&lt; TCHAR</text>
<text xml:space="preserve" text-anchor="middle" x="237.38" y="-7.25" font-family="Helvetica,sans-Serif" font-size="10.00"> &gt;::TStringView</text>
</a>
</g>
</g>
<!-- Node1&#45;&gt;Node11 -->
<g id="edge10_Node000001_Node000011" class="edge">
<title>Node1&#45;&gt;Node11</title>
<g id="a_edge10_Node000001_Node000011"><a xlink:title=" ">
<path fill="none" stroke="#63b8ff" d="M390.05,-177.07C380.33,-143.56 357.18,-79.25 314.75,-42.75 309.65,-38.37 303.78,-34.71 297.61,-31.67"/>
<polygon fill="#63b8ff" stroke="#63b8ff" points="386.6,-177.74 392.63,-186.45 393.35,-175.88 386.6,-177.74"/>
</a>
</g>
</g>
<!-- Node3 -->
<g id="Node000003" class="node">
<title>Node3</title>
<g id="a_Node000003"><a xlink:href="$structUE_1_1Math_1_1TIntRect.html#aaf57320cd80f2e1c6d2466d2cbd442c9" xlink:title=" ">
<polygon fill="white" stroke="#666666" points="119.88,-423.5 4.12,-423.5 4.12,-390 119.88,-390 119.88,-423.5"/>
<text xml:space="preserve" text-anchor="start" x="12.12" y="-410" font-family="Helvetica,sans-Serif" font-size="10.00">UE::Math::TIntRect</text>
<text xml:space="preserve" text-anchor="middle" x="62" y="-397.25" font-family="Helvetica,sans-Serif" font-size="10.00">&lt; int32 &gt;::operator*</text>
</a>
</g>
</g>
<!-- Node2&#45;&gt;Node3 -->
<g id="edge2_Node000002_Node000003" class="edge">
<title>Node2&#45;&gt;Node3</title>
<g id="a_edge2_Node000002_Node000003"><a xlink:title=" ">
<path fill="none" stroke="#63b8ff" d="M172.78,-390.29C155.55,-392.87 137,-395.65 120.14,-398.18"/>
<polygon fill="#63b8ff" stroke="#63b8ff" points="173.02,-393.79 182.39,-388.85 171.98,-386.87 173.02,-393.79"/>
</a>
</g>
</g>
<!-- Node4 -->
<g id="Node000004" class="node">
<title>Node4</title>
<g id="a_Node000004"><a xlink:href="$structUE_1_1Math_1_1TIntRect.html#a59016f7a48ed67a0729839ba9383a334" xlink:title=" ">
<polygon fill="white" stroke="#666666" points="124,-371.5 0,-371.5 0,-338 124,-338 124,-371.5"/>
<text xml:space="preserve" text-anchor="start" x="8" y="-358" font-family="Helvetica,sans-Serif" font-size="10.00">UE::Math::TIntRect</text>
<text xml:space="preserve" text-anchor="middle" x="62" y="-345.25" font-family="Helvetica,sans-Serif" font-size="10.00">&lt; int32 &gt;::operator*=</text>
</a>
</g>
</g>
<!-- Node2&#45;&gt;Node4 -->
<g id="edge3_Node000002_Node000004" class="edge">
<title>Node2&#45;&gt;Node4</title>
<g id="a_edge3_Node000002_Node000004"><a xlink:title=" ">
<path fill="none" stroke="#63b8ff" d="M172.65,-371.19C156.91,-368.83 140.08,-366.31 124.45,-363.97"/>
<polygon fill="#63b8ff" stroke="#63b8ff" points="171.98,-374.63 182.39,-372.65 173.02,-367.71 171.98,-374.63"/>
</a>
</g>
</g>
</g>
</svg>
