<?xml version="1.0" encoding="UTF-8" standalone="no"?>
<!DOCTYPE svg PUBLIC "-//W3C//DTD SVG 1.1//EN"
 "http://www.w3.org/Graphics/SVG/1.1/DTD/svg11.dtd">
<!-- Generated by graphviz version 14.1.4 (0)
 -->
<!-- Title: ImplicitConv Pages: 1 -->
<svg width="410pt" height="521pt"
 viewBox="0.00 0.00 410.00 521.00" xmlns="http://www.w3.org/2000/svg" xmlns:xlink="http://www.w3.org/1999/xlink">
<g id="graph0" class="graph" transform="scale(1 1) rotate(0) translate(4 516.5)">
<title>ImplicitConv</title>
<!-- Node1 -->
<g id="Node000001" class="node">
<title>Node1</title>
<g id="a_Node000001"><a xlink:title=" ">
<polygon fill="#999999" stroke="#666666" points="402,-273.12 324.5,-273.12 324.5,-252.38 402,-252.38 402,-273.12"/>
<text xml:space="preserve" text-anchor="middle" x="363.25" y="-259.62" font-family="Helvetica,sans-Serif" font-size="10.00">ImplicitConv</text>
</a>
</g>
</g>
<!-- Node2 -->
<g id="Node000002" class="node">
<title>Node2</title>
<g id="a_Node000002"><a xlink:href="$classFCbFieldViewIterator.html#aaa542225af97414b8ac584b44fd42ed3" xlink:title=" ">
<polygon fill="white" stroke="#666666" points="278.38,-512.5 155.12,-512.5 155.12,-479 278.38,-479 278.38,-512.5"/>
<text xml:space="preserve" text-anchor="start" x="163.12" y="-499" font-family="Helvetica,sans-Serif" font-size="10.00">FCbFieldViewIterator</text>
<text xml:space="preserve" text-anchor="middle" x="216.75" y="-486.25" font-family="Helvetica,sans-Serif" font-size="10.00">::FCbFieldViewIterator</text>
</a>
</g>
</g>
<!-- Node1&#45;&gt;Node2 -->
<g id="edge1_Node000001_Node000002" class="edge">
<title>Node1&#45;&gt;Node2</title>
<g id="a_edge1_Node000001_Node000002"><a xlink:title=" ">
<path fill="none" stroke="#63b8ff" d="M360.46,-284.66C355.92,-326.31 340.31,-417.42 288.5,-469.75 285.19,-473.1 281.4,-476.02 277.35,-478.56"/>
<polygon fill="#63b8ff" stroke="#63b8ff" points="363.93,-285.22 361.4,-274.93 356.96,-284.55 363.93,-285.22"/>
</a>
</g>
</g>
<!-- Node3 -->
<g id="Node000003" class="node">
<title>Node3</title>
<g id="a_Node000003"><a xlink:href="$classFArchive.html#a4d611d38acc67d01c5cdac95b27f24d8" xlink:title=" ">
<polygon fill="white" stroke="#666666" points="288.5,-461.12 145,-461.12 145,-440.38 288.5,-440.38 288.5,-461.12"/>
<text xml:space="preserve" text-anchor="middle" x="216.75" y="-447.62" font-family="Helvetica,sans-Serif" font-size="10.00">FArchive::GetArchiveState</text>
</a>
</g>
</g>
<!-- Node1&#45;&gt;Node3 -->
<g id="edge2_Node000001_Node000003" class="edge">
<title>Node1&#45;&gt;Node3</title>
<g id="a_edge2_Node000001_Node000003"><a xlink:title=" ">
<path fill="none" stroke="#63b8ff" d="M358.85,-284.29C352.06,-320.06 333.42,-391.65 288.5,-430.75 284.26,-434.44 279.39,-437.45 274.23,-439.91"/>
<polygon fill="#63b8ff" stroke="#63b8ff" points="362.25,-285.18 360.52,-274.73 355.35,-283.98 362.25,-285.18"/>
</a>
</g>
</g>
<!-- Node5 -->
<g id="Node000005" class="node">
<title>Node5</title>
<g id="a_Node000005"><a xlink:href="$classFArchive.html#a43f1153fde12d077fad34a7bf5a470d3" xlink:title=" ">
<polygon fill="white" stroke="#666666" points="288.5,-422.12 145,-422.12 145,-401.38 288.5,-401.38 288.5,-422.12"/>
<text xml:space="preserve" text-anchor="middle" x="216.75" y="-408.62" font-family="Helvetica,sans-Serif" font-size="10.00">FArchive::GetArchiveState</text>
</a>
</g>
</g>
<!-- Node1&#45;&gt;Node5 -->
<g id="edge4_Node000001_Node000005" class="edge">
<title>Node1&#45;&gt;Node5</title>
<g id="a_edge4_Node000001_Node000005"><a xlink:title=" ">
<path fill="none" stroke="#63b8ff" d="M355.85,-284.34C346.11,-313.4 324.77,-364.68 288.5,-392.75 284.28,-396.02 279.53,-398.73 274.56,-400.97"/>
<polygon fill="#63b8ff" stroke="#63b8ff" points="359.18,-285.41 358.87,-274.82 352.51,-283.3 359.18,-285.41"/>
</a>
</g>
</g>
<!-- Node6 -->
<g id="Node000006" class="node">
<title>Node6</title>
<g id="a_Node000006"><a xlink:href="$classTStringView.html#aaf5870f26a327452ac074fdfaceeaa03" xlink:title=" ">
<polygon fill="white" stroke="#666666" points="276.5,-383.5 157,-383.5 157,-350 276.5,-350 276.5,-383.5"/>
<text xml:space="preserve" text-anchor="start" x="165" y="-370" font-family="Helvetica,sans-Serif" font-size="10.00">TStringView&lt; TCHAR</text>
<text xml:space="preserve" text-anchor="middle" x="216.75" y="-357.25" font-family="Helvetica,sans-Serif" font-size="10.00"> &gt;::operator!=</text>
</a>
</g>
</g>
<!-- Node1&#45;&gt;Node6 -->
<g id="edge5_Node000001_Node000006" class="edge">
<title>Node1&#45;&gt;Node6</title>
<g id="a_edge5_Node000001_Node000006"><a xlink:title=" ">
<path fill="none" stroke="#63b8ff" d="M347.98,-282.37C334.4,-299.8 312.53,-324.91 288.5,-340.75 283.47,-344.06 277.97,-347.02 272.32,-349.65"/>
<polygon fill="#63b8ff" stroke="#63b8ff" points="350.47,-284.87 353.71,-274.79 344.89,-280.65 350.47,-284.87"/>
</a>
</g>
</g>
<!-- Node7 -->
<g id="Node000007" class="node">
<title>Node7</title>
<g id="a_Node000007"><a xlink:href="$classTStringView.html#a922b8b81dda552a544159f85ac2a9764" xlink:title=" ">
<polygon fill="white" stroke="#666666" points="276.5,-331.5 157,-331.5 157,-298 276.5,-298 276.5,-331.5"/>
<text xml:space="preserve" text-anchor="start" x="165" y="-318" font-family="Helvetica,sans-Serif" font-size="10.00">TStringView&lt; TCHAR</text>
<text xml:space="preserve" text-anchor="middle" x="216.75" y="-305.25" font-family="Helvetica,sans-Serif" font-size="10.00"> &gt;::operator!=</text>
</a>
</g>
</g>
<!-- Node1&#45;&gt;Node7 -->
<g id="edge6_Node000001_Node000007" class="edge">
<title>Node1&#45;&gt;Node7</title>
<g id="a_edge6_Node000001_Node000007"><a xlink:title=" ">
<path fill="none" stroke="#63b8ff" d="M321.88,-277.28C304.4,-283.57 283.81,-290.98 265.57,-297.54"/>
<polygon fill="#63b8ff" stroke="#63b8ff" points="322.66,-280.72 330.89,-274.04 320.29,-274.13 322.66,-280.72"/>
</a>
</g>
</g>
<!-- Node8 -->
<g id="Node000008" class="node">
<title>Node8</title>
<g id="a_Node000008"><a xlink:href="$classTStringView.html#a04c7741459134061a7a740a2d07f6fc9" xlink:title=" ">
<polygon fill="white" stroke="#666666" points="276.5,-279.5 157,-279.5 157,-246 276.5,-246 276.5,-279.5"/>
<text xml:space="preserve" text-anchor="start" x="165" y="-266" font-family="Helvetica,sans-Serif" font-size="10.00">TStringView&lt; TCHAR</text>
<text xml:space="preserve" text-anchor="middle" x="216.75" y="-253.25" font-family="Helvetica,sans-Serif" font-size="10.00"> &gt;::operator&lt;</text>
</a>
</g>
</g>
<!-- Node1&#45;&gt;Node8 -->
<g id="edge7_Node000001_Node000008" class="edge">
<title>Node1&#45;&gt;Node8</title>
<g id="a_edge7_Node000001_Node000008"><a xlink:title=" ">
<path fill="none" stroke="#63b8ff" d="M313.04,-262.75C301.45,-262.75 288.97,-262.75 276.99,-262.75"/>
<polygon fill="#63b8ff" stroke="#63b8ff" points="312.77,-266.25 322.77,-262.75 312.77,-259.25 312.77,-266.25"/>
</a>
</g>
</g>
<!-- Node9 -->
<g id="Node000009" class="node">
<title>Node9</title>
<g id="a_Node000009"><a xlink:href="$classTStringView.html#ae1c1535655ec614467729ccb0793b64f" xlink:title=" ">
<polygon fill="white" stroke="#666666" points="276.5,-227.5 157,-227.5 157,-194 276.5,-194 276.5,-227.5"/>
<text xml:space="preserve" text-anchor="start" x="165" y="-214" font-family="Helvetica,sans-Serif" font-size="10.00">TStringView&lt; TCHAR</text>
<text xml:space="preserve" text-anchor="middle" x="216.75" y="-201.25" font-family="Helvetica,sans-Serif" font-size="10.00"> &gt;::operator&lt;</text>
</a>
</g>
</g>
<!-- Node1&#45;&gt;Node9 -->
<g id="edge8_Node000001_Node000009" class="edge">
<title>Node1&#45;&gt;Node9</title>
<g id="a_edge8_Node000001_Node000009"><a xlink:title=" ">
<path fill="none" stroke="#63b8ff" d="M321.88,-248.22C304.4,-241.93 283.81,-234.52 265.57,-227.96"/>
<polygon fill="#63b8ff" stroke="#63b8ff" points="320.29,-251.37 330.89,-251.46 322.66,-244.78 320.29,-251.37"/>
</a>
</g>
</g>
<!-- Node10 -->
<g id="Node000010" class="node">
<title>Node10</title>
<g id="a_Node000010"><a xlink:href="$StringBuilder_8h.html#affba9bfc4585c7f5d58e725f177fa97b" xlink:title=" ">
<polygon fill="white" stroke="#666666" points="253.62,-176.12 179.88,-176.12 179.88,-155.38 253.62,-155.38 253.62,-176.12"/>
<text xml:space="preserve" text-anchor="middle" x="216.75" y="-162.62" font-family="Helvetica,sans-Serif" font-size="10.00">operator&lt;&lt;</text>
</a>
</g>
</g>
<!-- Node1&#45;&gt;Node10 -->
<g id="edge9_Node000001_Node000010" class="edge">
<title>Node1&#45;&gt;Node10</title>
<g id="a_edge9_Node000001_Node000010"><a xlink:title=" ">
<path fill="none" stroke="#63b8ff" d="M348.33,-242.66C334.98,-224.87 313.23,-199.5 288.5,-184.75 278.01,-178.49 265.44,-174.26 253.83,-171.41"/>
<polygon fill="#63b8ff" stroke="#63b8ff" points="345.43,-244.61 354.13,-250.65 351.1,-240.5 345.43,-244.61"/>
</a>
</g>
</g>
<!-- Node11 -->
<g id="Node000011" class="node">
<title>Node11</title>
<g id="a_Node000011"><a xlink:href="$classTStringView.html#a383cff847c96eec7696fe60bd33e89b3" xlink:title=" ">
<polygon fill="white" stroke="#666666" points="276.5,-137.5 157,-137.5 157,-104 276.5,-104 276.5,-137.5"/>
<text xml:space="preserve" text-anchor="start" x="165" y="-124" font-family="Helvetica,sans-Serif" font-size="10.00">TStringView&lt; TCHAR</text>
<text xml:space="preserve" text-anchor="middle" x="216.75" y="-111.25" font-family="Helvetica,sans-Serif" font-size="10.00"> &gt;::operator==</text>
</a>
</g>
</g>
<!-- Node1&#45;&gt;Node11 -->
<g id="edge10_Node000001_Node000011" class="edge">
<title>Node1&#45;&gt;Node11</title>
<g id="a_edge10_Node000001_Node000011"><a xlink:title=" ">
<path fill="none" stroke="#63b8ff" d="M353.9,-241.66C342.69,-215.87 320.4,-172.46 288.5,-146.75 284.32,-143.38 279.67,-140.43 274.8,-137.84"/>
<polygon fill="#63b8ff" stroke="#63b8ff" points="350.62,-242.87 357.69,-250.75 357.08,-240.18 350.62,-242.87"/>
</a>
</g>
</g>
<!-- Node12 -->
<g id="Node000012" class="node">
<title>Node12</title>
<g id="a_Node000012"><a xlink:href="$classTStringView.html#af0de5c0cb0d86455411a283e59abe6c4" xlink:title=" ">
<polygon fill="white" stroke="#666666" points="276.5,-85.5 157,-85.5 157,-52 276.5,-52 276.5,-85.5"/>
<text xml:space="preserve" text-anchor="start" x="165" y="-72" font-family="Helvetica,sans-Serif" font-size="10.00">TStringView&lt; TCHAR</text>
<text xml:space="preserve" text-anchor="middle" x="216.75" y="-59.25" font-family="Helvetica,sans-Serif" font-size="10.00"> &gt;::operator==</text>
</a>
</g>
</g>
<!-- Node1&#45;&gt;Node12 -->
<g id="edge11_Node000001_Node000012" class="edge">
<title>Node1&#45;&gt;Node12</title>
<g id="a_edge11_Node000001_Node000012"><a xlink:title=" ">
<path fill="none" stroke="#63b8ff" d="M358.41,-241.08C351.05,-205.68 331.68,-135.35 288.5,-94.75 284.97,-91.43 280.99,-88.53 276.75,-86"/>
<polygon fill="#63b8ff" stroke="#63b8ff" points="354.91,-241.4 360.25,-250.55 361.78,-240.06 354.91,-241.4"/>
</a>
</g>
</g>
<!-- Node13 -->
<g id="Node000013" class="node">
<title>Node13</title>
<g id="a_Node000013"><a xlink:href="$classTMemoryView.html#a6df990cd56104c3e696f62ab82e5df92" xlink:title=" ">
<polygon fill="white" stroke="#666666" points="280.62,-33.5 152.88,-33.5 152.88,0 280.62,0 280.62,-33.5"/>
<text xml:space="preserve" text-anchor="start" x="160.88" y="-20" font-family="Helvetica,sans-Serif" font-size="10.00">TMemoryView&lt; const</text>
<text xml:space="preserve" text-anchor="middle" x="216.75" y="-7.25" font-family="Helvetica,sans-Serif" font-size="10.00"> void &gt;::TMemoryView</text>
</a>
</g>
</g>
<!-- Node1&#45;&gt;Node13 -->
<g id="edge12_Node000001_Node000013" class="edge">
<title>Node1&#45;&gt;Node13</title>
<g id="a_edge12_Node000001_Node000013"><a xlink:title=" ">
<path fill="none" stroke="#63b8ff" d="M361,-240.67C357.35,-197.02 343.18,-99.02 288.5,-42.75 285.22,-39.37 281.46,-36.43 277.42,-33.87"/>
<polygon fill="#63b8ff" stroke="#63b8ff" points="357.49,-240.69 361.69,-250.41 364.47,-240.19 357.49,-240.69"/>
</a>
</g>
</g>
<!-- Node4 -->
<g id="Node000004" class="node">
<title>Node4</title>
<g id="a_Node000004"><a xlink:href="$classFStructuredArchive.html#ab634165f29042cb4c612d437182aa25c" xlink:title=" ">
<polygon fill="white" stroke="#666666" points="109,-467.5 0,-467.5 0,-434 109,-434 109,-467.5"/>
<text xml:space="preserve" text-anchor="start" x="8" y="-454" font-family="Helvetica,sans-Serif" font-size="10.00">FStructuredArchive</text>
<text xml:space="preserve" text-anchor="middle" x="54.5" y="-441.25" font-family="Helvetica,sans-Serif" font-size="10.00">::GetArchiveState</text>
</a>
</g>
</g>
<!-- Node3&#45;&gt;Node4 -->
<g id="edge3_Node000003_Node000004" class="edge">
<title>Node3&#45;&gt;Node4</title>
<g id="a_edge3_Node000003_Node000004"><a xlink:title=" ">
<path fill="none" stroke="#63b8ff" d="M133.08,-450.75C124.97,-450.75 116.89,-450.75 109.19,-450.75"/>
<polygon fill="#63b8ff" stroke="#63b8ff" points="133.02,-454.25 143.02,-450.75 133.02,-447.25 133.02,-454.25"/>
</a>
</g>
</g>
</g>
</svg>
