<?xml version="1.0" encoding="UTF-8" standalone="no"?>
<!DOCTYPE svg PUBLIC "-//W3C//DTD SVG 1.1//EN"
 "http://www.w3.org/Graphics/SVG/1.1/DTD/svg11.dtd">
<!-- Generated by graphviz version 14.1.4 (0)
 -->
<!-- Title: Exchange Pages: 1 -->
<svg width="635pt" height="926pt"
 viewBox="0.00 0.00 635.00 926.00" xmlns="http://www.w3.org/2000/svg" xmlns:xlink="http://www.w3.org/1999/xlink">
<g id="graph0" class="graph" transform="scale(1 1) rotate(0) translate(4 922.12)">
<title>Exchange</title>
<!-- Node1 -->
<g id="Node000001" class="node">
<title>Node1</title>
<g id="a_Node000001"><a xlink:title=" ">
<polygon fill="#999999" stroke="#666666" points="626.5,-431.75 563.25,-431.75 563.25,-411 626.5,-411 626.5,-431.75"/>
<text xml:space="preserve" text-anchor="middle" x="594.88" y="-418.25" font-family="Helvetica,sans-Serif" font-size="10.00">Exchange</text>
</a>
</g>
</g>
<!-- Node2 -->
<g id="Node000002" class="node">
<title>Node2</title>
<g id="a_Node000002"><a xlink:href="$classTOctree__DEPRECATED.html#abd2d9475a8392920066214535c864fdc" xlink:title=" ">
<polygon fill="white" stroke="#666666" points="505.88,-900.12 381.12,-900.12 381.12,-866.62 505.88,-866.62 505.88,-900.12"/>
<text xml:space="preserve" text-anchor="start" x="389.12" y="-886.62" font-family="Helvetica,sans-Serif" font-size="10.00">TOctree_DEPRECATED</text>
<text xml:space="preserve" text-anchor="middle" x="443.5" y="-873.88" font-family="Helvetica,sans-Serif" font-size="10.00">::AddElementToNode</text>
</a>
</g>
</g>
<!-- Node1&#45;&gt;Node2 -->
<g id="edge1_Node000001_Node000002" class="edge">
<title>Node1&#45;&gt;Node2</title>
<g id="a_edge1_Node000001_Node000002"><a xlink:title=" ">
<path fill="none" stroke="#63b8ff" d="M593.53,-443.37C591.82,-523.04 582.02,-795.21 527.25,-858.38 521.55,-864.95 514.18,-869.83 506.2,-873.45"/>
<polygon fill="#63b8ff" stroke="#63b8ff" points="597.02,-443.5 593.71,-433.43 590.03,-443.36 597.02,-443.5"/>
</a>
</g>
</g>
<!-- Node5 -->
<g id="Node000005" class="node">
<title>Node5</title>
<g id="a_Node000005"><a xlink:href="$classTSparseArray.html#adf0d4dec7c3f816cfc427cabfa4f5f59" xlink:title=" ">
<polygon fill="white" stroke="#666666" points="517.88,-848.88 369.12,-848.88 369.12,-789.88 517.88,-789.88 517.88,-848.88"/>
<text xml:space="preserve" text-anchor="start" x="377.12" y="-835.38" font-family="Helvetica,sans-Serif" font-size="10.00">TSparseArray&lt; SetElement</text>
<text xml:space="preserve" text-anchor="start" x="377.12" y="-822.62" font-family="Helvetica,sans-Serif" font-size="10.00">Type, typename Allocator</text>
<text xml:space="preserve" text-anchor="start" x="377.12" y="-809.88" font-family="Helvetica,sans-Serif" font-size="10.00">::SparseArrayAllocator &gt;</text>
<text xml:space="preserve" text-anchor="middle" x="443.5" y="-797.12" font-family="Helvetica,sans-Serif" font-size="10.00">::CompactStable</text>
</a>
</g>
</g>
<!-- Node1&#45;&gt;Node5 -->
<g id="edge5_Node000001_Node000005" class="edge">
<title>Node1&#45;&gt;Node5</title>
<g id="a_edge5_Node000001_Node000005"><a xlink:title=" ">
<path fill="none" stroke="#63b8ff" d="M592.41,-443.15C587.35,-512.49 568.61,-726.74 527.25,-780.38 524.53,-783.9 521.42,-787.11 518.03,-790.05"/>
<polygon fill="#63b8ff" stroke="#63b8ff" points="595.88,-443.69 593.09,-433.47 588.89,-443.2 595.88,-443.69"/>
</a>
</g>
</g>
<!-- Node6 -->
<g id="Node000006" class="node">
<title>Node6</title>
<g id="a_Node000006"><a xlink:href="$classFPoly.html#a1cfcd08899aa2d7f6f84685714e8beb1" xlink:title=" ">
<polygon fill="white" stroke="#666666" points="517.5,-771.75 369.5,-771.75 369.5,-751 517.5,-751 517.5,-771.75"/>
<text xml:space="preserve" text-anchor="middle" x="443.5" y="-758.25" font-family="Helvetica,sans-Serif" font-size="10.00">FPoly::GetOutsideWindings</text>
</a>
</g>
</g>
<!-- Node1&#45;&gt;Node6 -->
<g id="edge6_Node000001_Node000006" class="edge">
<title>Node1&#45;&gt;Node6</title>
<g id="a_edge6_Node000001_Node000006"><a xlink:title=" ">
<path fill="none" stroke="#63b8ff" d="M592.35,-443.29C587.35,-508.49 569.34,-699.39 527.25,-742.38 524.05,-745.64 520.42,-748.39 516.5,-750.71"/>
<polygon fill="#63b8ff" stroke="#63b8ff" points="595.82,-443.75 593.06,-433.52 588.84,-443.23 595.82,-443.75"/>
</a>
</g>
</g>
<!-- Node7 -->
<g id="Node000007" class="node">
<title>Node7</title>
<g id="a_Node000007"><a xlink:href="$structFIndexedPointer.html#a79629a9ec5bf507f1099cff91016f3fa" xlink:title=" ">
<polygon fill="white" stroke="#666666" points="521.25,-733.12 365.75,-733.12 365.75,-699.62 521.25,-699.62 521.25,-733.12"/>
<text xml:space="preserve" text-anchor="start" x="373.75" y="-719.62" font-family="Helvetica,sans-Serif" font-size="10.00">FIndexedPointer::Interlocked</text>
<text xml:space="preserve" text-anchor="middle" x="443.5" y="-706.88" font-family="Helvetica,sans-Serif" font-size="10.00">CompareExchange</text>
</a>
</g>
</g>
<!-- Node1&#45;&gt;Node7 -->
<g id="edge7_Node000001_Node000007" class="edge">
<title>Node1&#45;&gt;Node7</title>
<g id="a_edge7_Node000001_Node000007"><a xlink:title=" ">
<path fill="none" stroke="#63b8ff" d="M591.22,-443.3C583.84,-500.82 561.34,-654.12 527.25,-690.38 524.05,-693.78 520.42,-696.73 516.49,-699.31"/>
<polygon fill="#63b8ff" stroke="#63b8ff" points="594.68,-443.84 592.45,-433.49 587.73,-442.98 594.68,-443.84"/>
</a>
</g>
</g>
<!-- Node10 -->
<g id="Node000010" class="node">
<title>Node10</title>
<g id="a_Node000010"><a xlink:href="$structFWindowsPlatformAtomics.html#a9fa012ff79a035a32e9a91301b038fe2" xlink:title=" ">
<polygon fill="white" stroke="#666666" points="527.25,-681.12 359.75,-681.12 359.75,-647.62 527.25,-647.62 527.25,-681.12"/>
<text xml:space="preserve" text-anchor="start" x="367.75" y="-667.62" font-family="Helvetica,sans-Serif" font-size="10.00">FWindowsPlatformAtomics</text>
<text xml:space="preserve" text-anchor="middle" x="443.5" y="-654.88" font-family="Helvetica,sans-Serif" font-size="10.00">::InterlockedCompareExchange</text>
</a>
</g>
</g>
<!-- Node1&#45;&gt;Node10 -->
<g id="edge10_Node000001_Node000010" class="edge">
<title>Node1&#45;&gt;Node10</title>
<g id="a_edge10_Node000001_Node000010"><a xlink:title=" ">
<path fill="none" stroke="#63b8ff" d="M593.54,-443.61C591.65,-487.13 581.23,-584.04 527.25,-638.38 523.85,-641.79 520.01,-644.76 515.89,-647.34"/>
<polygon fill="#63b8ff" stroke="#63b8ff" points="597.03,-443.76 593.84,-433.66 590.04,-443.55 597.03,-443.76"/>
</a>
</g>
</g>
<!-- Node11 -->
<g id="Node000011" class="node">
<title>Node11</title>
<g id="a_Node000011"><a xlink:href="$structFWindowsPlatformAtomics.html#a6a6ad93b8ba886d434a442ac30afc6b2" xlink:title=" ">
<polygon fill="white" stroke="#666666" points="527.25,-629.12 359.75,-629.12 359.75,-595.62 527.25,-595.62 527.25,-629.12"/>
<text xml:space="preserve" text-anchor="start" x="367.75" y="-615.62" font-family="Helvetica,sans-Serif" font-size="10.00">FWindowsPlatformAtomics</text>
<text xml:space="preserve" text-anchor="middle" x="443.5" y="-602.88" font-family="Helvetica,sans-Serif" font-size="10.00">::InterlockedCompareExchange</text>
</a>
</g>
</g>
<!-- Node1&#45;&gt;Node11 -->
<g id="edge11_Node000001_Node000011" class="edge">
<title>Node1&#45;&gt;Node11</title>
<g id="a_edge11_Node000001_Node000011"><a xlink:title=" ">
<path fill="none" stroke="#63b8ff" d="M591.05,-443.32C585.37,-478.51 569.29,-547.54 527.25,-586.38 523.6,-589.75 519.52,-592.68 515.17,-595.24"/>
<polygon fill="#63b8ff" stroke="#63b8ff" points="594.51,-443.9 592.49,-433.5 587.58,-442.89 594.51,-443.9"/>
</a>
</g>
</g>
<!-- Node12 -->
<g id="Node000012" class="node">
<title>Node12</title>
<g id="a_Node000012"><a xlink:href="$structFWindowsPlatformAtomics.html#a82511a0643d7c6c569c985f1427412bb" xlink:title=" ">
<polygon fill="white" stroke="#666666" points="527.25,-577.12 359.75,-577.12 359.75,-543.62 527.25,-543.62 527.25,-577.12"/>
<text xml:space="preserve" text-anchor="start" x="367.75" y="-563.62" font-family="Helvetica,sans-Serif" font-size="10.00">FWindowsPlatformAtomics</text>
<text xml:space="preserve" text-anchor="middle" x="443.5" y="-550.88" font-family="Helvetica,sans-Serif" font-size="10.00">::InterlockedCompareExchange</text>
</a>
</g>
</g>
<!-- Node1&#45;&gt;Node12 -->
<g id="edge12_Node000001_Node000012" class="edge">
<title>Node1&#45;&gt;Node12</title>
<g id="a_edge12_Node000001_Node000012"><a xlink:title=" ">
<path fill="none" stroke="#63b8ff" d="M586.65,-442.88C577.01,-468.33 557.58,-510.29 527.25,-534.38 523,-537.75 518.32,-540.68 513.4,-543.24"/>
<polygon fill="#63b8ff" stroke="#63b8ff" points="589.9,-444.19 589.98,-433.59 583.31,-441.82 589.9,-444.19"/>
</a>
</g>
</g>
<!-- Node13 -->
<g id="Node000013" class="node">
<title>Node13</title>
<g id="a_Node000013"><a xlink:href="$structFWindowsPlatformAtomics.html#ad98920fd6354dce7860d288b8b934600" xlink:title=" ">
<polygon fill="white" stroke="#666666" points="527.25,-525.12 359.75,-525.12 359.75,-491.62 527.25,-491.62 527.25,-525.12"/>
<text xml:space="preserve" text-anchor="start" x="367.75" y="-511.62" font-family="Helvetica,sans-Serif" font-size="10.00">FWindowsPlatformAtomics</text>
<text xml:space="preserve" text-anchor="middle" x="443.5" y="-498.88" font-family="Helvetica,sans-Serif" font-size="10.00">::InterlockedCompareExchange</text>
</a>
</g>
</g>
<!-- Node1&#45;&gt;Node13 -->
<g id="edge13_Node000001_Node000013" class="edge">
<title>Node1&#45;&gt;Node13</title>
<g id="a_edge13_Node000001_Node000013"><a xlink:title=" ">
<path fill="none" stroke="#63b8ff" d="M577.32,-440.45C564.77,-453.86 546.46,-471.3 527.25,-482.38 521.51,-485.68 515.3,-488.62 508.95,-491.22"/>
<polygon fill="#63b8ff" stroke="#63b8ff" points="579.89,-442.83 584.01,-433.07 574.7,-438.13 579.89,-442.83"/>
</a>
</g>
</g>
<!-- Node15 -->
<g id="Node000015" class="node">
<title>Node15</title>
<g id="a_Node000015"><a xlink:href="$structFWindowsPlatformAtomics.html#a31e0a6625ef82472e4813dec77a7b2b8" xlink:title=" ">
<polygon fill="white" stroke="#666666" points="527.25,-473.5 359.75,-473.5 359.75,-427.25 527.25,-427.25 527.25,-473.5"/>
<text xml:space="preserve" text-anchor="start" x="367.75" y="-460" font-family="Helvetica,sans-Serif" font-size="10.00">FWindowsPlatformAtomics</text>
<text xml:space="preserve" text-anchor="start" x="367.75" y="-447.25" font-family="Helvetica,sans-Serif" font-size="10.00">::InterlockedCompareExchange</text>
<text xml:space="preserve" text-anchor="middle" x="443.5" y="-434.5" font-family="Helvetica,sans-Serif" font-size="10.00">Pointer</text>
</a>
</g>
</g>
<!-- Node1&#45;&gt;Node15 -->
<g id="edge15_Node000001_Node000015" class="edge">
<title>Node1&#45;&gt;Node15</title>
<g id="a_edge15_Node000001_Node000015"><a xlink:title=" ">
<path fill="none" stroke="#63b8ff" d="M551.78,-429.55C544.12,-431.04 535.88,-432.63 527.5,-434.26"/>
<polygon fill="#63b8ff" stroke="#63b8ff" points="552.29,-433.01 561.44,-427.67 550.95,-426.14 552.29,-433.01"/>
</a>
</g>
</g>
<!-- Node16 -->
<g id="Node000016" class="node">
<title>Node16</title>
<g id="a_Node000016"><a xlink:href="$structFWindowsPlatformAtomics.html#aa1dd7f6e254faa8e4344e84b244e6505" xlink:title=" ">
<polygon fill="white" stroke="#666666" points="517.5,-409.12 369.5,-409.12 369.5,-375.62 517.5,-375.62 517.5,-409.12"/>
<text xml:space="preserve" text-anchor="start" x="377.5" y="-395.62" font-family="Helvetica,sans-Serif" font-size="10.00">FWindowsPlatformAtomics</text>
<text xml:space="preserve" text-anchor="middle" x="443.5" y="-382.88" font-family="Helvetica,sans-Serif" font-size="10.00">::InterlockedExchange</text>
</a>
</g>
</g>
<!-- Node1&#45;&gt;Node16 -->
<g id="edge16_Node000001_Node000016" class="edge">
<title>Node1&#45;&gt;Node16</title>
<g id="a_edge16_Node000001_Node000016"><a xlink:title=" ">
<path fill="none" stroke="#63b8ff" d="M551.9,-413.23C541.29,-411.17 529.59,-408.89 517.93,-406.63"/>
<polygon fill="#63b8ff" stroke="#63b8ff" points="550.95,-416.61 561.44,-415.08 552.29,-409.74 550.95,-416.61"/>
</a>
</g>
</g>
<!-- Node17 -->
<g id="Node000017" class="node">
<title>Node17</title>
<g id="a_Node000017"><a xlink:href="$structFWindowsPlatformAtomics.html#a694d53e6faa1714fb2c21d8e2c95ca54" xlink:title=" ">
<polygon fill="white" stroke="#666666" points="517.5,-357.12 369.5,-357.12 369.5,-323.62 517.5,-323.62 517.5,-357.12"/>
<text xml:space="preserve" text-anchor="start" x="377.5" y="-343.62" font-family="Helvetica,sans-Serif" font-size="10.00">FWindowsPlatformAtomics</text>
<text xml:space="preserve" text-anchor="middle" x="443.5" y="-330.88" font-family="Helvetica,sans-Serif" font-size="10.00">::InterlockedExchange</text>
</a>
</g>
</g>
<!-- Node1&#45;&gt;Node17 -->
<g id="edge17_Node000001_Node000017" class="edge">
<title>Node1&#45;&gt;Node17</title>
<g id="a_edge17_Node000001_Node000017"><a xlink:title=" ">
<path fill="none" stroke="#63b8ff" d="M575.27,-402.65C562.65,-390.84 545.07,-376.05 527.25,-366.38 521.16,-363.07 514.59,-360.11 507.9,-357.49"/>
<polygon fill="#63b8ff" stroke="#63b8ff" points="572.8,-405.13 582.43,-409.56 577.66,-400.09 572.8,-405.13"/>
</a>
</g>
</g>
<!-- Node18 -->
<g id="Node000018" class="node">
<title>Node18</title>
<g id="a_Node000018"><a xlink:href="$structFWindowsPlatformAtomics.html#a86af9cbfd9a995f65fd9ff52f45dcaba" xlink:title=" ">
<polygon fill="white" stroke="#666666" points="517.5,-305.12 369.5,-305.12 369.5,-271.62 517.5,-271.62 517.5,-305.12"/>
<text xml:space="preserve" text-anchor="start" x="377.5" y="-291.62" font-family="Helvetica,sans-Serif" font-size="10.00">FWindowsPlatformAtomics</text>
<text xml:space="preserve" text-anchor="middle" x="443.5" y="-278.88" font-family="Helvetica,sans-Serif" font-size="10.00">::InterlockedExchange</text>
</a>
</g>
</g>
<!-- Node1&#45;&gt;Node18 -->
<g id="edge18_Node000001_Node000018" class="edge">
<title>Node1&#45;&gt;Node18</title>
<g id="a_edge18_Node000001_Node000018"><a xlink:title=" ">
<path fill="none" stroke="#63b8ff" d="M586.05,-400.31C576.03,-376.14 556.39,-336.95 527.25,-314.38 522.96,-311.05 518.25,-308.15 513.31,-305.62"/>
<polygon fill="#63b8ff" stroke="#63b8ff" points="582.72,-401.4 589.64,-409.42 589.23,-398.83 582.72,-401.4"/>
</a>
</g>
</g>
<!-- Node19 -->
<g id="Node000019" class="node">
<title>Node19</title>
<g id="a_Node000019"><a xlink:href="$structFWindowsPlatformAtomics.html#a5699e41f15a444f5f670c4369bfb9896" xlink:title=" ">
<polygon fill="white" stroke="#666666" points="517.5,-253.12 369.5,-253.12 369.5,-219.62 517.5,-219.62 517.5,-253.12"/>
<text xml:space="preserve" text-anchor="start" x="377.5" y="-239.62" font-family="Helvetica,sans-Serif" font-size="10.00">FWindowsPlatformAtomics</text>
<text xml:space="preserve" text-anchor="middle" x="443.5" y="-226.88" font-family="Helvetica,sans-Serif" font-size="10.00">::InterlockedExchange</text>
</a>
</g>
</g>
<!-- Node1&#45;&gt;Node19 -->
<g id="edge19_Node000001_Node000019" class="edge">
<title>Node1&#45;&gt;Node19</title>
<g id="a_edge19_Node000001_Node000019"><a xlink:title=" ">
<path fill="none" stroke="#63b8ff" d="M590.72,-399.72C584.63,-365.64 568.03,-299.55 527.25,-262.38 523.58,-259.03 519.48,-256.11 515.12,-253.57"/>
<polygon fill="#63b8ff" stroke="#63b8ff" points="587.21,-399.92 592.27,-409.22 594.12,-398.79 587.21,-399.92"/>
</a>
</g>
</g>
<!-- Node21 -->
<g id="Node000021" class="node">
<title>Node21</title>
<g id="a_Node000021"><a xlink:href="$structFWindowsPlatformAtomics.html#ad3969eea592cf6264ce560734fc0ace2" xlink:title=" ">
<polygon fill="white" stroke="#666666" points="517.5,-201.12 369.5,-201.12 369.5,-167.62 517.5,-167.62 517.5,-201.12"/>
<text xml:space="preserve" text-anchor="start" x="377.5" y="-187.62" font-family="Helvetica,sans-Serif" font-size="10.00">FWindowsPlatformAtomics</text>
<text xml:space="preserve" text-anchor="middle" x="443.5" y="-174.88" font-family="Helvetica,sans-Serif" font-size="10.00">::InterlockedExchangePtr</text>
</a>
</g>
</g>
<!-- Node1&#45;&gt;Node21 -->
<g id="edge21_Node000001_Node000021" class="edge">
<title>Node1&#45;&gt;Node21</title>
<g id="a_edge21_Node000001_Node000021"><a xlink:title=" ">
<path fill="none" stroke="#63b8ff" d="M593.32,-399.47C591.05,-356.99 579.97,-263.02 527.25,-210.38 523.84,-206.97 519.99,-204.01 515.86,-201.44"/>
<polygon fill="#63b8ff" stroke="#63b8ff" points="589.82,-399.53 593.72,-409.38 596.82,-399.25 589.82,-399.53"/>
</a>
</g>
</g>
<!-- Node22 -->
<g id="Node000022" class="node">
<title>Node22</title>
<g id="a_Node000022"><a xlink:href="$classTAtomic.html#ace7413eff22f16278cdfdabf1aa72542" xlink:title=" ">
<polygon fill="white" stroke="#666666" points="499.12,-149.75 387.88,-149.75 387.88,-129 499.12,-129 499.12,-149.75"/>
<text xml:space="preserve" text-anchor="middle" x="443.5" y="-136.25" font-family="Helvetica,sans-Serif" font-size="10.00">TAtomic::operator=</text>
</a>
</g>
</g>
<!-- Node1&#45;&gt;Node22 -->
<g id="edge22_Node000001_Node000022" class="edge">
<title>Node1&#45;&gt;Node22</title>
<g id="a_edge22_Node000001_Node000022"><a xlink:title=" ">
<path fill="none" stroke="#63b8ff" d="M591.25,-399.4C584.02,-342.49 562,-192.36 527.25,-158.38 519.66,-150.96 509.8,-146.21 499.53,-143.21"/>
<polygon fill="#63b8ff" stroke="#63b8ff" points="587.76,-399.63 592.45,-409.12 594.7,-398.77 587.76,-399.63"/>
</a>
</g>
</g>
<!-- Node23 -->
<g id="Node000023" class="node">
<title>Node23</title>
<g id="a_Node000023"><a xlink:href="$namespaceAlgo.html#a7b1c19c33d5782668916b7dbf304b3f9" xlink:title=" ">
<polygon fill="white" stroke="#666666" points="486,-110.75 401,-110.75 401,-90 486,-90 486,-110.75"/>
<text xml:space="preserve" text-anchor="middle" x="443.5" y="-97.25" font-family="Helvetica,sans-Serif" font-size="10.00">Algo::Partition</text>
</a>
</g>
</g>
<!-- Node1&#45;&gt;Node23 -->
<g id="edge23_Node000001_Node000023" class="edge">
<title>Node1&#45;&gt;Node23</title>
<g id="a_edge23_Node000001_Node000023"><a xlink:title=" ">
<path fill="none" stroke="#63b8ff" d="M592.01,-399.62C586.23,-337.39 566.61,-160.5 527.25,-120.38 516.59,-109.51 501.11,-104.15 486.42,-101.62"/>
<polygon fill="#63b8ff" stroke="#63b8ff" points="588.49,-399.62 592.87,-409.27 595.47,-398.99 588.49,-399.62"/>
</a>
</g>
</g>
<!-- Node25 -->
<g id="Node000025" class="node">
<title>Node25</title>
<g id="a_Node000025"><a xlink:href="$classTJugglingRotation.html#a3eeded33df6283316f7facada7e19253" xlink:title=" ">
<polygon fill="white" stroke="#666666" points="497.62,-72.12 389.38,-72.12 389.38,-38.62 497.62,-38.62 497.62,-72.12"/>
<text xml:space="preserve" text-anchor="start" x="397.38" y="-58.62" font-family="Helvetica,sans-Serif" font-size="10.00">TJugglingRotation::</text>
<text xml:space="preserve" text-anchor="middle" x="443.5" y="-45.88" font-family="Helvetica,sans-Serif" font-size="10.00">Rotate</text>
</a>
</g>
</g>
<!-- Node1&#45;&gt;Node25 -->
<g id="edge25_Node000001_Node000025" class="edge">
<title>Node1&#45;&gt;Node25</title>
<g id="a_edge25_Node000001_Node000025"><a xlink:title=" ">
<path fill="none" stroke="#63b8ff" d="M592.44,-399.21C587.61,-331.48 569.83,-128.96 527.25,-81.38 519.52,-72.73 508.95,-66.94 497.95,-63.06"/>
<polygon fill="#63b8ff" stroke="#63b8ff" points="588.93,-399.3 593.11,-409.04 595.92,-398.82 588.93,-399.3"/>
</a>
</g>
</g>
<!-- Node26 -->
<g id="Node000026" class="node">
<title>Node26</title>
<g id="a_Node000026"><a xlink:href="$classTMergeSort.html#ac490f5df2b2e7a459da2b299cab14479" xlink:title=" ">
<polygon fill="white" stroke="#666666" points="492.38,-20.75 394.62,-20.75 394.62,0 492.38,0 492.38,-20.75"/>
<text xml:space="preserve" text-anchor="middle" x="443.5" y="-7.25" font-family="Helvetica,sans-Serif" font-size="10.00">TMergeSort::Sort</text>
</a>
</g>
</g>
<!-- Node1&#45;&gt;Node26 -->
<g id="edge26_Node000001_Node000026" class="edge">
<title>Node1&#45;&gt;Node26</title>
<g id="a_edge26_Node000001_Node000026"><a xlink:title=" ">
<path fill="none" stroke="#63b8ff" d="M593.25,-399.63C590.68,-325.39 578.44,-83.58 527.25,-29.38 518.24,-19.84 505.5,-14.63 492.7,-11.91"/>
<polygon fill="#63b8ff" stroke="#63b8ff" points="589.74,-399.37 593.56,-409.25 596.74,-399.14 589.74,-399.37"/>
</a>
</g>
</g>
<!-- Node2&#45;&gt;Node2 -->
<g id="edge4_Node000002_Node000002" class="edge">
<title>Node2&#45;&gt;Node2</title>
<g id="a_edge4_Node000002_Node000002"><a xlink:title=" ">
<path fill="none" stroke="#63b8ff" d="M468.56,-911.84C464.3,-915.62 455.95,-918.12 443.5,-918.12 420.73,-918.12 411.66,-909.74 416.29,-900.54"/>
<polygon fill="#63b8ff" stroke="#63b8ff" points="472,-912.5 470.43,-902.03 465.12,-911.2 472,-912.5"/>
</a>
</g>
</g>
<!-- Node3 -->
<g id="Node000003" class="node">
<title>Node3</title>
<g id="a_Node000003"><a xlink:href="$classTOctree__DEPRECATED.html#aff4c7ca514bdb263de836a92f03f492b" xlink:title=" ">
<polygon fill="white" stroke="#666666" points="312.12,-900.12 187.38,-900.12 187.38,-866.62 312.12,-866.62 312.12,-900.12"/>
<text xml:space="preserve" text-anchor="start" x="195.38" y="-886.62" font-family="Helvetica,sans-Serif" font-size="10.00">TOctree_DEPRECATED</text>
<text xml:space="preserve" text-anchor="middle" x="249.75" y="-873.88" font-family="Helvetica,sans-Serif" font-size="10.00">::AddElement</text>
</a>
</g>
</g>
<!-- Node2&#45;&gt;Node3 -->
<g id="edge2_Node000002_Node000003" class="edge">
<title>Node2&#45;&gt;Node3</title>
<g id="a_edge2_Node000002_Node000003"><a xlink:title=" ">
<path fill="none" stroke="#63b8ff" d="M369.27,-883.38C350.49,-883.38 330.49,-883.38 312.36,-883.38"/>
<polygon fill="#63b8ff" stroke="#63b8ff" points="369.26,-886.88 379.26,-883.38 369.26,-879.88 369.26,-886.88"/>
</a>
</g>
</g>
<!-- Node4 -->
<g id="Node000004" class="node">
<title>Node4</title>
<g id="a_Node000004"><a xlink:href="$classTOctree__DEPRECATED.html#a9ca49ee8586fe4a12910c93213d646a3" xlink:title=" ">
<polygon fill="white" stroke="#666666" points="132.25,-900.12 7.5,-900.12 7.5,-866.62 132.25,-866.62 132.25,-900.12"/>
<text xml:space="preserve" text-anchor="start" x="15.5" y="-886.62" font-family="Helvetica,sans-Serif" font-size="10.00">TOctree_DEPRECATED</text>
<text xml:space="preserve" text-anchor="middle" x="69.88" y="-873.88" font-family="Helvetica,sans-Serif" font-size="10.00">::ApplyOffset</text>
</a>
</g>
</g>
<!-- Node3&#45;&gt;Node4 -->
<g id="edge3_Node000003_Node000004" class="edge">
<title>Node3&#45;&gt;Node4</title>
<g id="a_edge3_Node000003_Node000004"><a xlink:title=" ">
<path fill="none" stroke="#63b8ff" d="M175.68,-883.38C161.33,-883.38 146.41,-883.38 132.48,-883.38"/>
<polygon fill="#63b8ff" stroke="#63b8ff" points="175.52,-886.88 185.52,-883.38 175.52,-879.88 175.52,-886.88"/>
</a>
</g>
</g>
<!-- Node8 -->
<g id="Node000008" class="node">
<title>Node8</title>
<g id="a_Node000008"><a xlink:href="$classFLockFreePointerFIFOBase.html#ab11e3d36f23482f3e1f57c1aefabc0da" xlink:title=" ">
<polygon fill="white" stroke="#666666" points="323,-733.12 176.5,-733.12 176.5,-699.62 323,-699.62 323,-733.12"/>
<text xml:space="preserve" text-anchor="start" x="184.5" y="-719.62" font-family="Helvetica,sans-Serif" font-size="10.00">FLockFreePointerFIFOBase</text>
<text xml:space="preserve" text-anchor="middle" x="249.75" y="-706.88" font-family="Helvetica,sans-Serif" font-size="10.00">::Push</text>
</a>
</g>
</g>
<!-- Node7&#45;&gt;Node8 -->
<g id="edge8_Node000007_Node000008" class="edge">
<title>Node7&#45;&gt;Node8</title>
<g id="a_edge8_Node000007_Node000008"><a xlink:title=" ">
<path fill="none" stroke="#63b8ff" d="M353.89,-716.38C343.68,-716.38 333.37,-716.38 323.41,-716.38"/>
<polygon fill="#63b8ff" stroke="#63b8ff" points="353.82,-719.88 363.82,-716.38 353.82,-712.88 353.82,-719.88"/>
</a>
</g>
</g>
<!-- Node9 -->
<g id="Node000009" class="node">
<title>Node9</title>
<g id="a_Node000009"><a xlink:href="$classTLockFreePointerListFIFO.html#ab0386ef543a21319017a5ac722ae2a9f" xlink:title=" ">
<polygon fill="white" stroke="#666666" points="139.75,-733.12 0,-733.12 0,-699.62 139.75,-699.62 139.75,-733.12"/>
<text xml:space="preserve" text-anchor="start" x="8" y="-719.62" font-family="Helvetica,sans-Serif" font-size="10.00">TLockFreePointerListFIFO</text>
<text xml:space="preserve" text-anchor="middle" x="69.88" y="-706.88" font-family="Helvetica,sans-Serif" font-size="10.00">::Push</text>
</a>
</g>
</g>
<!-- Node8&#45;&gt;Node9 -->
<g id="edge9_Node000008_Node000009" class="edge">
<title>Node8&#45;&gt;Node9</title>
<g id="a_edge9_Node000008_Node000009"><a xlink:title=" ">
<path fill="none" stroke="#63b8ff" d="M164.89,-716.38C156.58,-716.38 148.22,-716.38 140.09,-716.38"/>
<polygon fill="#63b8ff" stroke="#63b8ff" points="164.63,-719.88 174.63,-716.38 164.63,-712.88 164.63,-719.88"/>
</a>
</g>
</g>
<!-- Node14 -->
<g id="Node000014" class="node">
<title>Node14</title>
<g id="a_Node000014"><a xlink:href="$structFWindowsPlatformAtomics.html#a167d30c9d6e31c7a25b9574a4bd7bc5f" xlink:title=" ">
<polygon fill="white" stroke="#666666" points="323.75,-525.12 175.75,-525.12 175.75,-491.62 323.75,-491.62 323.75,-525.12"/>
<text xml:space="preserve" text-anchor="start" x="183.75" y="-511.62" font-family="Helvetica,sans-Serif" font-size="10.00">FWindowsPlatformAtomics</text>
<text xml:space="preserve" text-anchor="middle" x="249.75" y="-498.88" font-family="Helvetica,sans-Serif" font-size="10.00">::AtomicRead_Relaxed</text>
</a>
</g>
</g>
<!-- Node13&#45;&gt;Node14 -->
<g id="edge14_Node000013_Node000014" class="edge">
<title>Node13&#45;&gt;Node14</title>
<g id="a_edge14_Node000013_Node000014"><a xlink:title=" ">
<path fill="none" stroke="#63b8ff" d="M348.17,-508.38C340.13,-508.38 332.07,-508.38 324.22,-508.38"/>
<polygon fill="#63b8ff" stroke="#63b8ff" points="348,-511.88 358,-508.38 348,-504.88 348,-511.88"/>
</a>
</g>
</g>
<!-- Node20 -->
<g id="Node000020" class="node">
<title>Node20</title>
<g id="a_Node000020"><a xlink:href="$structFWindowsPlatformAtomics.html#a264c442df76ece959628d478a023fce8" xlink:title=" ">
<polygon fill="white" stroke="#666666" points="323.75,-253.12 175.75,-253.12 175.75,-219.62 323.75,-219.62 323.75,-253.12"/>
<text xml:space="preserve" text-anchor="start" x="183.75" y="-239.62" font-family="Helvetica,sans-Serif" font-size="10.00">FWindowsPlatformAtomics</text>
<text xml:space="preserve" text-anchor="middle" x="249.75" y="-226.88" font-family="Helvetica,sans-Serif" font-size="10.00">::AtomicStore_Relaxed</text>
</a>
</g>
</g>
<!-- Node19&#45;&gt;Node20 -->
<g id="edge20_Node000019_Node000020" class="edge">
<title>Node19&#45;&gt;Node20</title>
<g id="a_edge20_Node000019_Node000020"><a xlink:title=" ">
<path fill="none" stroke="#63b8ff" d="M357.97,-236.38C346.65,-236.38 335.12,-236.38 324.02,-236.38"/>
<polygon fill="#63b8ff" stroke="#63b8ff" points="357.67,-239.88 367.67,-236.38 357.67,-232.88 357.67,-239.88"/>
</a>
</g>
</g>
<!-- Node24 -->
<g id="Node000024" class="node">
<title>Node24</title>
<g id="a_Node000024"><a xlink:href="$namespaceAlgo.html#a3060324e68e9df71f735b5528b817bb1" xlink:title=" ">
<polygon fill="white" stroke="#666666" points="292.25,-110.75 207.25,-110.75 207.25,-90 292.25,-90 292.25,-110.75"/>
<text xml:space="preserve" text-anchor="middle" x="249.75" y="-97.25" font-family="Helvetica,sans-Serif" font-size="10.00">Algo::Partition</text>
</a>
</g>
</g>
<!-- Node23&#45;&gt;Node24 -->
<g id="edge24_Node000023_Node000024" class="edge">
<title>Node23&#45;&gt;Node24</title>
<g id="a_edge24_Node000023_Node000024"><a xlink:title=" ">
<path fill="none" stroke="#63b8ff" d="M389.57,-100.38C359,-100.38 321.08,-100.38 292.61,-100.38"/>
<polygon fill="#63b8ff" stroke="#63b8ff" points="389.38,-103.88 399.38,-100.38 389.38,-96.88 389.38,-103.88"/>
</a>
</g>
</g>
</g>
</svg>
