<?xml version="1.0" encoding="UTF-8" standalone="no"?>
<!DOCTYPE svg PUBLIC "-//W3C//DTD SVG 1.1//EN"
 "http://www.w3.org/Graphics/SVG/1.1/DTD/svg11.dtd">
<!-- Generated by graphviz version 14.1.4 (0)
 -->
<!-- Title: VectorLog2 Pages: 1 -->
<svg width="264pt" height="68pt"
 viewBox="0.00 0.00 264.00 68.00" xmlns="http://www.w3.org/2000/svg" xmlns:xlink="http://www.w3.org/1999/xlink">
<g id="graph0" class="graph" transform="scale(1 1) rotate(0) translate(4 63.75)">
<title>VectorLog2</title>
<!-- Node1 -->
<g id="Node000001" class="node">
<title>Node1</title>
<g id="a_Node000001"><a xlink:title=" ">
<polygon fill="#999999" stroke="#666666" points="70.75,-39.75 0,-39.75 0,-19 70.75,-19 70.75,-39.75"/>
<text xml:space="preserve" text-anchor="middle" x="35.38" y="-26.25" font-family="Helvetica,sans-Serif" font-size="10.00">VectorLog2</text>
</a>
</g>
</g>
<!-- Node2 -->
<g id="Node000002" class="node">
<title>Node2</title>
<g id="a_Node000002"><a xlink:href="$structFMath.html#add513c3e3715e623e9319881f74e1860" xlink:title=" ">
<polygon fill="white" stroke="#666666" points="219.12,-59.75 143.12,-59.75 143.12,-39 219.12,-39 219.12,-59.75"/>
<text xml:space="preserve" text-anchor="middle" x="181.12" y="-46.25" font-family="Helvetica,sans-Serif" font-size="10.00">FMath::Log2</text>
</a>
</g>
</g>
<!-- Node1&#45;&gt;Node2 -->
<g id="edge1_Node000001_Node000002" class="edge">
<title>Node1&#45;&gt;Node2</title>
<g id="a_edge1_Node000001_Node000002"><a xlink:title=" ">
<path fill="none" stroke="#63b8ff" d="M71.17,-34.22C89.23,-36.73 111.59,-39.84 131.35,-42.59"/>
<polygon fill="#63b8ff" stroke="#63b8ff" points="130.74,-46.04 141.13,-43.95 131.7,-39.1 130.74,-46.04"/>
</a>
</g>
</g>
<!-- Node3 -->
<g id="Node000003" class="node">
<title>Node3</title>
<g id="a_Node000003"><a xlink:href="$UnrealMathFPU_8h.html#a990b849aff5fd0265ce2bf51aa14ed55" xlink:title=" ">
<polygon fill="white" stroke="#666666" points="255.5,-20.75 106.75,-20.75 106.75,0 255.5,0 255.5,-20.75"/>
<text xml:space="preserve" text-anchor="middle" x="181.12" y="-7.25" font-family="Helvetica,sans-Serif" font-size="10.00">MakeVectorRegisterDouble</text>
</a>
</g>
</g>
<!-- Node1&#45;&gt;Node3 -->
<g id="edge2_Node000001_Node000003" class="edge">
<title>Node1&#45;&gt;Node3</title>
<g id="a_edge2_Node000001_Node000003"><a xlink:title=" ">
<path fill="none" stroke="#63b8ff" d="M71.17,-24.78C78.63,-23.79 86.81,-22.71 95.24,-21.59"/>
<polygon fill="#63b8ff" stroke="#63b8ff" points="95.48,-25.09 104.93,-20.31 94.56,-18.15 95.48,-25.09"/>
</a>
</g>
</g>
</g>
</svg>
