<?xml version="1.0" encoding="UTF-8" standalone="no"?>
<!DOCTYPE svg PUBLIC "-//W3C//DTD SVG 1.1//EN"
 "http://www.w3.org/Graphics/SVG/1.1/DTD/svg11.dtd">
<!-- Generated by graphviz version 14.1.4 (0)
 -->
<!-- Title: VectorLoadFloat3_W0 Pages: 1 -->
<svg width="762pt" height="29pt"
 viewBox="0.00 0.00 762.00 29.00" xmlns="http://www.w3.org/2000/svg" xmlns:xlink="http://www.w3.org/1999/xlink">
<g id="graph0" class="graph" transform="scale(1 1) rotate(0) translate(4 24.75)">
<title>VectorLoadFloat3_W0</title>
<!-- Node1 -->
<g id="Node000001" class="node">
<title>Node1</title>
<g id="a_Node000001"><a xlink:title=" ">
<polygon fill="#999999" stroke="#666666" points="122.5,-20.75 0,-20.75 0,0 122.5,0 122.5,-20.75"/>
<text xml:space="preserve" text-anchor="middle" x="61.25" y="-7.25" font-family="Helvetica,sans-Serif" font-size="10.00">VectorLoadFloat3_W0</text>
</a>
</g>
</g>
<!-- Node2 -->
<g id="Node000002" class="node">
<title>Node2</title>
<g id="a_Node000002"><a xlink:href="$UnrealMathVectorCommon_8h_8inl.html#af2f842b2260b18d199ffc77382b0e82b" xlink:title="VectorLoadFloat3_W0.">
<polygon fill="white" stroke="#666666" points="281,-20.75 158.5,-20.75 158.5,0 281,0 281,-20.75"/>
<text xml:space="preserve" text-anchor="middle" x="219.75" y="-7.25" font-family="Helvetica,sans-Serif" font-size="10.00">VectorLoadFloat3_W0</text>
</a>
</g>
</g>
<!-- Node1&#45;&gt;Node2 -->
<g id="edge1_Node000001_Node000002" class="edge">
<title>Node1&#45;&gt;Node2</title>
<g id="a_edge1_Node000001_Node000002"><a xlink:title=" ">
<path fill="none" stroke="#63b8ff" d="M122.76,-10.38C130.65,-10.38 138.8,-10.38 146.85,-10.38"/>
<polygon fill="#63b8ff" stroke="#63b8ff" points="146.63,-13.88 156.63,-10.38 146.63,-6.88 146.63,-13.88"/>
</a>
</g>
</g>
<!-- Node3 -->
<g id="Node000003" class="node">
<title>Node3</title>
<g id="a_Node000003"><a xlink:href="$UnrealMathVectorCommon_8h_8inl.html#ad93b9d985f607f3f9a7719783462ed97" xlink:title="VectorLoadFloat3.">
<polygon fill="white" stroke="#666666" points="418.5,-20.75 317,-20.75 317,0 418.5,0 418.5,-20.75"/>
<text xml:space="preserve" text-anchor="middle" x="367.75" y="-7.25" font-family="Helvetica,sans-Serif" font-size="10.00">VectorLoadFloat3</text>
</a>
</g>
</g>
<!-- Node2&#45;&gt;Node3 -->
<g id="edge2_Node000002_Node000003" class="edge">
<title>Node2&#45;&gt;Node3</title>
<g id="a_edge2_Node000002_Node000003"><a xlink:title=" ">
<path fill="none" stroke="#63b8ff" d="M281.4,-10.38C289.29,-10.38 297.39,-10.38 305.3,-10.38"/>
<polygon fill="#63b8ff" stroke="#63b8ff" points="305.19,-13.88 315.19,-10.38 305.19,-6.88 305.19,-13.88"/>
</a>
</g>
</g>
<!-- Node4 -->
<g id="Node000004" class="node">
<title>Node4</title>
<g id="a_Node000004"><a xlink:href="$UnrealMathVectorCommon_8h_8inl.html#ac0fb048cea3bb1c8aed35fb210093ef7" xlink:title=" ">
<polygon fill="white" stroke="#666666" points="568.75,-20.75 454.5,-20.75 454.5,0 568.75,0 568.75,-20.75"/>
<text xml:space="preserve" text-anchor="middle" x="511.62" y="-7.25" font-family="Helvetica,sans-Serif" font-size="10.00">MakeVectorRegister</text>
</a>
</g>
</g>
<!-- Node3&#45;&gt;Node4 -->
<g id="edge3_Node000003_Node000004" class="edge">
<title>Node3&#45;&gt;Node4</title>
<g id="a_edge3_Node000003_Node000004"><a xlink:title=" ">
<path fill="none" stroke="#63b8ff" d="M418.77,-10.38C426.58,-10.38 434.76,-10.38 442.88,-10.38"/>
<polygon fill="#63b8ff" stroke="#63b8ff" points="442.77,-13.88 452.77,-10.38 442.77,-6.88 442.77,-13.88"/>
</a>
</g>
</g>
<!-- Node5 -->
<g id="Node000005" class="node">
<title>Node5</title>
<g id="a_Node000005"><a xlink:href="$UnrealMathFPU_8h.html#a990b849aff5fd0265ce2bf51aa14ed55" xlink:title=" ">
<polygon fill="white" stroke="#666666" points="753.5,-20.75 604.75,-20.75 604.75,0 753.5,0 753.5,-20.75"/>
<text xml:space="preserve" text-anchor="middle" x="679.12" y="-7.25" font-family="Helvetica,sans-Serif" font-size="10.00">MakeVectorRegisterDouble</text>
</a>
</g>
</g>
<!-- Node4&#45;&gt;Node5 -->
<g id="edge4_Node000004_Node000005" class="edge">
<title>Node4&#45;&gt;Node5</title>
<g id="a_edge4_Node000004_Node000005"><a xlink:title=" ">
<path fill="none" stroke="#63b8ff" d="M569.12,-10.38C576.82,-10.38 584.86,-10.38 592.93,-10.38"/>
<polygon fill="#63b8ff" stroke="#63b8ff" points="592.81,-13.88 602.81,-10.38 592.81,-6.88 592.81,-13.88"/>
</a>
</g>
</g>
</g>
</svg>
