<?xml version="1.0" encoding="UTF-8" standalone="no"?>
<!DOCTYPE svg PUBLIC "-//W3C//DTD SVG 1.1//EN"
 "http://www.w3.org/Graphics/SVG/1.1/DTD/svg11.dtd">
<!-- Generated by graphviz version 14.1.4 (0)
 -->
<!-- Title: VectorZeroFloat Pages: 1 -->
<svg width="771pt" height="255pt"
 viewBox="0.00 0.00 771.00 255.00" xmlns="http://www.w3.org/2000/svg" xmlns:xlink="http://www.w3.org/1999/xlink">
<g id="graph0" class="graph" transform="scale(1 1) rotate(0) translate(4 250.5)">
<title>VectorZeroFloat</title>
<!-- Node1 -->
<g id="Node000001" class="node">
<title>Node1</title>
<g id="a_Node000001"><a xlink:title=" ">
<polygon fill="#999999" stroke="#666666" points="762.5,-172.12 667.75,-172.12 667.75,-151.38 762.5,-151.38 762.5,-172.12"/>
<text xml:space="preserve" text-anchor="middle" x="715.12" y="-158.62" font-family="Helvetica,sans-Serif" font-size="10.00">VectorZeroFloat</text>
</a>
</g>
</g>
<!-- Node2 -->
<g id="Node000002" class="node">
<title>Node2</title>
<g id="a_Node000002"><a xlink:href="$UnrealMathVectorCommon_8h_8inl.html#acb45f1a39d00f7c8a2d74849a1c6bfd5" xlink:title=" ">
<polygon fill="white" stroke="#666666" points="631.75,-246.5 472.5,-246.5 472.5,-213 631.75,-213 631.75,-246.5"/>
<text xml:space="preserve" text-anchor="start" x="480.5" y="-233" font-family="Helvetica,sans-Serif" font-size="10.00">VectorAccumulateQuaternion</text>
<text xml:space="preserve" text-anchor="middle" x="552.12" y="-220.25" font-family="Helvetica,sans-Serif" font-size="10.00">ShortestPath</text>
</a>
</g>
</g>
<!-- Node1&#45;&gt;Node2 -->
<g id="edge1_Node000001_Node000002" class="edge">
<title>Node1&#45;&gt;Node2</title>
<g id="a_edge1_Node000001_Node000002"><a xlink:title=" ">
<path fill="none" stroke="#63b8ff" d="M684.85,-178.05C669.34,-186.33 649.8,-196.21 631.75,-203.75 624.32,-206.85 616.38,-209.84 608.5,-212.62"/>
<polygon fill="#63b8ff" stroke="#63b8ff" points="686.42,-181.18 693.55,-173.34 683.09,-175.02 686.42,-181.18"/>
</a>
</g>
</g>
<!-- Node3 -->
<g id="Node000003" class="node">
<title>Node3</title>
<g id="a_Node000003"><a xlink:href="$UnrealMathVectorCommon_8h_8inl.html#af40fd25e90ab3e15f3f79aff8080d9a2" xlink:title=" ">
<polygon fill="white" stroke="#666666" points="598,-195.12 506.25,-195.12 506.25,-174.38 598,-174.38 598,-195.12"/>
<text xml:space="preserve" text-anchor="middle" x="552.12" y="-181.62" font-family="Helvetica,sans-Serif" font-size="10.00">VectorLerpQuat</text>
</a>
</g>
</g>
<!-- Node1&#45;&gt;Node3 -->
<g id="edge2_Node000001_Node000003" class="edge">
<title>Node1&#45;&gt;Node3</title>
<g id="a_edge2_Node000001_Node000003"><a xlink:title=" ">
<path fill="none" stroke="#63b8ff" d="M656.3,-170.01C637.29,-172.73 616.43,-175.71 598.48,-178.27"/>
<polygon fill="#63b8ff" stroke="#63b8ff" points="656.65,-173.5 666.06,-168.62 655.66,-166.57 656.65,-173.5"/>
</a>
</g>
</g>
<!-- Node6 -->
<g id="Node000006" class="node">
<title>Node6</title>
<g id="a_Node000006"><a xlink:href="$UnrealMathVectorCommon_8h_8inl.html#a7705054db7b46759bb847c7dd7b7c556" xlink:title=" ">
<polygon fill="white" stroke="#666666" points="619,-153.12 485.25,-153.12 485.25,-132.38 619,-132.38 619,-153.12"/>
<text xml:space="preserve" text-anchor="middle" x="552.12" y="-139.62" font-family="Helvetica,sans-Serif" font-size="10.00">VectorNormalizeRotator</text>
</a>
</g>
</g>
<!-- Node1&#45;&gt;Node6 -->
<g id="edge5_Node000001_Node000006" class="edge">
<title>Node1&#45;&gt;Node6</title>
<g id="a_edge5_Node000001_Node000006"><a xlink:title=" ">
<path fill="none" stroke="#63b8ff" d="M656.32,-154.93C644.33,-153.51 631.61,-152.01 619.35,-150.56"/>
<polygon fill="#63b8ff" stroke="#63b8ff" points="655.71,-158.38 666.05,-156.08 656.53,-151.43 655.71,-158.38"/>
</a>
</g>
</g>
<!-- Node14 -->
<g id="Node000014" class="node">
<title>Node14</title>
<g id="a_Node000014"><a xlink:href="$UnrealMathVectorCommon_8h_8inl.html#a00f909632172fe6710013a15d93f19c1" xlink:title=" ">
<polygon fill="white" stroke="#666666" points="587.12,-114.12 517.12,-114.12 517.12,-93.38 587.12,-93.38 587.12,-114.12"/>
<text xml:space="preserve" text-anchor="middle" x="552.12" y="-100.62" font-family="Helvetica,sans-Serif" font-size="10.00">VectorZero</text>
</a>
</g>
</g>
<!-- Node1&#45;&gt;Node14 -->
<g id="edge13_Node000001_Node000014" class="edge">
<title>Node1&#45;&gt;Node14</title>
<g id="a_edge13_Node000001_Node000014"><a xlink:title=" ">
<path fill="none" stroke="#63b8ff" d="M683.63,-146.06C668.34,-138.61 649.36,-129.99 631.75,-123.75 617.55,-118.71 601.48,-114.39 587.59,-111.07"/>
<polygon fill="#63b8ff" stroke="#63b8ff" points="681.7,-149.01 692.22,-150.31 684.81,-142.74 681.7,-149.01"/>
</a>
</g>
</g>
<!-- Node4 -->
<g id="Node000004" class="node">
<title>Node4</title>
<g id="a_Node000004"><a xlink:href="$UnrealMathVectorCommon_8h_8inl.html#ada5dcd43913f207efea16ba327687442" xlink:title=" ">
<polygon fill="white" stroke="#666666" points="433.12,-237.12 331.62,-237.12 331.62,-216.38 433.12,-216.38 433.12,-237.12"/>
<text xml:space="preserve" text-anchor="middle" x="382.38" y="-223.62" font-family="Helvetica,sans-Serif" font-size="10.00">VectorBiLerpQuat</text>
</a>
</g>
</g>
<!-- Node3&#45;&gt;Node4 -->
<g id="edge3_Node000003_Node000004" class="edge">
<title>Node3&#45;&gt;Node4</title>
<g id="a_edge3_Node000003_Node000004"><a xlink:title=" ">
<path fill="none" stroke="#63b8ff" d="M494.61,-198.3C487.17,-200.11 479.65,-201.96 472.5,-203.75 456.84,-207.66 439.67,-212.07 424.61,-215.97"/>
<polygon fill="#63b8ff" stroke="#63b8ff" points="495.42,-201.7 504.31,-195.94 493.76,-194.9 495.42,-201.7"/>
</a>
</g>
</g>
<!-- Node5 -->
<g id="Node000005" class="node">
<title>Node5</title>
<g id="a_Node000005"><a xlink:href="$UnrealMathVectorCommon_8h_8inl.html#aeda19dccf658a886a9b59901053b3588" xlink:title=" ">
<polygon fill="white" stroke="#666666" points="433.12,-198.12 331.62,-198.12 331.62,-177.38 433.12,-177.38 433.12,-198.12"/>
<text xml:space="preserve" text-anchor="middle" x="382.38" y="-184.62" font-family="Helvetica,sans-Serif" font-size="10.00">VectorBiLerpQuat</text>
</a>
</g>
</g>
<!-- Node3&#45;&gt;Node5 -->
<g id="edge4_Node000003_Node000005" class="edge">
<title>Node3&#45;&gt;Node5</title>
<g id="a_edge4_Node000003_Node000005"><a xlink:title=" ">
<path fill="none" stroke="#63b8ff" d="M494.79,-185.76C474.94,-186.11 452.78,-186.51 433.48,-186.85"/>
<polygon fill="#63b8ff" stroke="#63b8ff" points="494.72,-189.26 504.66,-185.58 494.6,-182.26 494.72,-189.26"/>
</a>
</g>
</g>
<!-- Node7 -->
<g id="Node000007" class="node">
<title>Node7</title>
<g id="a_Node000007"><a xlink:href="$structUE_1_1Math_1_1TRotator.html#aca0d4634ae06a109ec9d13d73b32e730" xlink:title=" ">
<polygon fill="white" stroke="#666666" points="436.5,-159.5 328.25,-159.5 328.25,-126 436.5,-126 436.5,-159.5"/>
<text xml:space="preserve" text-anchor="start" x="336.25" y="-146" font-family="Helvetica,sans-Serif" font-size="10.00">UE::Math::TRotator</text>
<text xml:space="preserve" text-anchor="middle" x="382.38" y="-133.25" font-family="Helvetica,sans-Serif" font-size="10.00">::Equals</text>
</a>
</g>
</g>
<!-- Node6&#45;&gt;Node7 -->
<g id="edge6_Node000006_Node000007" class="edge">
<title>Node6&#45;&gt;Node7</title>
<g id="a_edge6_Node000006_Node000007"><a xlink:title=" ">
<path fill="none" stroke="#63b8ff" d="M473.51,-142.75C461.09,-142.75 448.49,-142.75 436.81,-142.75"/>
<polygon fill="#63b8ff" stroke="#63b8ff" points="473.31,-146.25 483.31,-142.75 473.31,-139.25 473.31,-146.25"/>
</a>
</g>
</g>
<!-- Node8 -->
<g id="Node000008" class="node">
<title>Node8</title>
<g id="a_Node000008"><a xlink:href="$structUE_1_1Math_1_1TRotator.html#a0abe777d1874d451fbd572339f0680f3" xlink:title=" ">
<polygon fill="white" stroke="#666666" points="436.5,-107.5 328.25,-107.5 328.25,-74 436.5,-74 436.5,-107.5"/>
<text xml:space="preserve" text-anchor="start" x="336.25" y="-94" font-family="Helvetica,sans-Serif" font-size="10.00">UE::Math::TRotator</text>
<text xml:space="preserve" text-anchor="middle" x="382.38" y="-81.25" font-family="Helvetica,sans-Serif" font-size="10.00">::IsNearlyZero</text>
</a>
</g>
</g>
<!-- Node6&#45;&gt;Node8 -->
<g id="edge7_Node000006_Node000008" class="edge">
<title>Node6&#45;&gt;Node8</title>
<g id="a_edge7_Node000006_Node000008"><a xlink:title=" ">
<path fill="none" stroke="#63b8ff" d="M494.71,-129.1C487.21,-127.08 479.65,-124.94 472.5,-122.75 458.04,-118.33 442.46,-112.95 428.43,-107.87"/>
<polygon fill="#63b8ff" stroke="#63b8ff" points="493.58,-132.42 504.14,-131.57 495.35,-125.65 493.58,-132.42"/>
</a>
</g>
</g>
<!-- Node10 -->
<g id="Node000010" class="node">
<title>Node10</title>
<g id="a_Node000010"><a xlink:href="$structUE_1_1Math_1_1TRotator.html#adb5dbb86f1fafbd9b777713ad4f846da" xlink:title=" ">
<polygon fill="white" stroke="#666666" points="436.5,-55.5 328.25,-55.5 328.25,-22 436.5,-22 436.5,-55.5"/>
<text xml:space="preserve" text-anchor="start" x="336.25" y="-42" font-family="Helvetica,sans-Serif" font-size="10.00">UE::Math::TRotator</text>
<text xml:space="preserve" text-anchor="middle" x="382.38" y="-29.25" font-family="Helvetica,sans-Serif" font-size="10.00">::Normalize</text>
</a>
</g>
</g>
<!-- Node6&#45;&gt;Node10 -->
<g id="edge9_Node000006_Node000010" class="edge">
<title>Node6&#45;&gt;Node10</title>
<g id="a_edge9_Node000006_Node000010"><a xlink:title=" ">
<path fill="none" stroke="#63b8ff" d="M479.02,-126.98C476.76,-125.68 474.58,-124.27 472.5,-122.75 448.02,-104.82 459,-85.1 436.5,-64.75 432.92,-61.51 428.86,-58.59 424.63,-55.97"/>
<polygon fill="#63b8ff" stroke="#63b8ff" points="477.47,-130.12 487.99,-131.36 480.54,-123.83 477.47,-130.12"/>
</a>
</g>
</g>
<!-- Node9 -->
<g id="Node000009" class="node">
<title>Node9</title>
<g id="a_Node000009"><a xlink:href="$structUE_1_1Math_1_1TRotator.html#af0db730d3270d260984b0d90a7817c23" xlink:title=" ">
<polygon fill="white" stroke="#666666" points="292.25,-107.5 184,-107.5 184,-74 292.25,-74 292.25,-107.5"/>
<text xml:space="preserve" text-anchor="start" x="192" y="-94" font-family="Helvetica,sans-Serif" font-size="10.00">UE::Math::TRotator</text>
<text xml:space="preserve" text-anchor="middle" x="238.12" y="-81.25" font-family="Helvetica,sans-Serif" font-size="10.00">::ToCompactString</text>
</a>
</g>
</g>
<!-- Node8&#45;&gt;Node9 -->
<g id="edge8_Node000008_Node000009" class="edge">
<title>Node8&#45;&gt;Node9</title>
<g id="a_edge8_Node000008_Node000009"><a xlink:title=" ">
<path fill="none" stroke="#63b8ff" d="M316.63,-90.75C308.49,-90.75 300.25,-90.75 292.32,-90.75"/>
<polygon fill="#63b8ff" stroke="#63b8ff" points="316.49,-94.25 326.49,-90.75 316.49,-87.25 316.49,-94.25"/>
</a>
</g>
</g>
<!-- Node11 -->
<g id="Node000011" class="node">
<title>Node11</title>
<g id="a_Node000011"><a xlink:href="$structUE_1_1Math_1_1TRotator.html#a34a5a62c49f30170ad7b78d842b76304" xlink:title=" ">
<polygon fill="white" stroke="#666666" points="292.25,-55.5 184,-55.5 184,-22 292.25,-22 292.25,-55.5"/>
<text xml:space="preserve" text-anchor="start" x="192" y="-42" font-family="Helvetica,sans-Serif" font-size="10.00">UE::Math::TRotator</text>
<text xml:space="preserve" text-anchor="middle" x="238.12" y="-29.25" font-family="Helvetica,sans-Serif" font-size="10.00">::GetNormalized</text>
</a>
</g>
</g>
<!-- Node10&#45;&gt;Node11 -->
<g id="edge10_Node000010_Node000011" class="edge">
<title>Node10&#45;&gt;Node11</title>
<g id="a_edge10_Node000010_Node000011"><a xlink:title=" ">
<path fill="none" stroke="#63b8ff" d="M316.63,-38.75C308.49,-38.75 300.25,-38.75 292.32,-38.75"/>
<polygon fill="#63b8ff" stroke="#63b8ff" points="316.49,-42.25 326.49,-38.75 316.49,-35.25 316.49,-42.25"/>
</a>
</g>
</g>
<!-- Node12 -->
<g id="Node000012" class="node">
<title>Node12</title>
<g id="a_Node000012"><a xlink:href="$structFMath.html#a8e070e636fff28b1b1f076f71a8218db" xlink:title=" ">
<polygon fill="white" stroke="#666666" points="126.25,-72.12 21.75,-72.12 21.75,-51.38 126.25,-51.38 126.25,-72.12"/>
<text xml:space="preserve" text-anchor="middle" x="74" y="-58.62" font-family="Helvetica,sans-Serif" font-size="10.00">FMath::LerpRange</text>
</a>
</g>
</g>
<!-- Node11&#45;&gt;Node12 -->
<g id="edge11_Node000011_Node000012" class="edge">
<title>Node11&#45;&gt;Node12</title>
<g id="a_edge11_Node000011_Node000012"><a xlink:title=" ">
<path fill="none" stroke="#63b8ff" d="M172.62,-47.9C157.32,-50.07 141.19,-52.36 126.55,-54.44"/>
<polygon fill="#63b8ff" stroke="#63b8ff" points="172.68,-51.43 182.09,-46.56 171.7,-44.5 172.68,-51.43"/>
</a>
</g>
</g>
<!-- Node13 -->
<g id="Node000013" class="node">
<title>Node13</title>
<g id="a_Node000013"><a xlink:href="$structFRotationConversionCache.html#ab2d08cb7cbeb5e985c5787298523ff55" xlink:title=" ">
<polygon fill="white" stroke="#666666" points="148,-33.5 0,-33.5 0,0 148,0 148,-33.5"/>
<text xml:space="preserve" text-anchor="start" x="8" y="-20" font-family="Helvetica,sans-Serif" font-size="10.00">FRotationConversionCache</text>
<text xml:space="preserve" text-anchor="middle" x="74" y="-7.25" font-family="Helvetica,sans-Serif" font-size="10.00">::RotatorToQuat</text>
</a>
</g>
</g>
<!-- Node11&#45;&gt;Node13 -->
<g id="edge12_Node000011_Node000013" class="edge">
<title>Node11&#45;&gt;Node13</title>
<g id="a_edge12_Node000011_Node000013"><a xlink:title=" ">
<path fill="none" stroke="#63b8ff" d="M172.29,-29.95C164.45,-28.89 156.4,-27.8 148.45,-26.72"/>
<polygon fill="#63b8ff" stroke="#63b8ff" points="171.71,-33.41 182.09,-31.28 172.65,-26.47 171.71,-33.41"/>
</a>
</g>
</g>
</g>
</svg>
