<?xml version="1.0" encoding="UTF-8" standalone="no"?>
<!DOCTYPE svg PUBLIC "-//W3C//DTD SVG 1.1//EN"
 "http://www.w3.org/Graphics/SVG/1.1/DTD/svg11.dtd">
<!-- Generated by graphviz version 14.1.4 (0)
 -->
<!-- Title: VectorLoadFloat1 Pages: 1 -->
<svg width="944pt" height="806pt"
 viewBox="0.00 0.00 944.00 806.00" xmlns="http://www.w3.org/2000/svg" xmlns:xlink="http://www.w3.org/1999/xlink">
<g id="graph0" class="graph" transform="scale(1 1) rotate(0) translate(4 802.12)">
<title>VectorLoadFloat1</title>
<!-- Node1 -->
<g id="Node000001" class="node">
<title>Node1</title>
<g id="a_Node000001"><a xlink:title=" ">
<polygon fill="#999999" stroke="#666666" points="935.75,-503.12 834.25,-503.12 834.25,-482.38 935.75,-482.38 935.75,-503.12"/>
<text xml:space="preserve" text-anchor="middle" x="885" y="-489.62" font-family="Helvetica,sans-Serif" font-size="10.00">VectorLoadFloat1</text>
</a>
</g>
</g>
<!-- Node2 -->
<g id="Node000002" class="node">
<title>Node2</title>
<g id="a_Node000002"><a xlink:href="$structUE_1_1Math_1_1TQuat.html#aef3bef61d87c4ed76f04c022858917d6" xlink:title=" ">
<polygon fill="white" stroke="#666666" points="789.25,-751.12 655.5,-751.12 655.5,-730.38 789.25,-730.38 789.25,-751.12"/>
<text xml:space="preserve" text-anchor="middle" x="722.38" y="-737.62" font-family="Helvetica,sans-Serif" font-size="10.00">UE::Math::TQuat::Equals</text>
</a>
</g>
</g>
<!-- Node1&#45;&gt;Node2 -->
<g id="edge1_Node000001_Node000002" class="edge">
<title>Node1&#45;&gt;Node2</title>
<g id="a_edge1_Node000001_Node000002"><a xlink:title=" ">
<path fill="none" stroke="#63b8ff" d="M877.27,-514.13C865.29,-549.98 837.78,-623.44 798.25,-675.75 781.44,-698 755.92,-718.12 739.45,-729.89"/>
<polygon fill="#63b8ff" stroke="#63b8ff" points="880.49,-515.53 880.26,-504.94 873.83,-513.36 880.49,-515.53"/>
</a>
</g>
</g>
<!-- Node4 -->
<g id="Node000004" class="node">
<title>Node4</title>
<g id="a_Node000004"><a xlink:href="$structUE_1_1Math_1_1TRotator.html#aca0d4634ae06a109ec9d13d73b32e730" xlink:title=" ">
<polygon fill="white" stroke="#666666" points="776.5,-666.5 668.25,-666.5 668.25,-633 776.5,-633 776.5,-666.5"/>
<text xml:space="preserve" text-anchor="start" x="676.25" y="-653" font-family="Helvetica,sans-Serif" font-size="10.00">UE::Math::TRotator</text>
<text xml:space="preserve" text-anchor="middle" x="722.38" y="-640.25" font-family="Helvetica,sans-Serif" font-size="10.00">::Equals</text>
</a>
</g>
</g>
<!-- Node1&#45;&gt;Node4 -->
<g id="edge3_Node000001_Node000004" class="edge">
<title>Node1&#45;&gt;Node4</title>
<g id="a_edge3_Node000001_Node000004"><a xlink:title=" ">
<path fill="none" stroke="#63b8ff" d="M875.49,-513.76C862.81,-542.54 836.29,-594.06 798.25,-623.75 791.85,-628.75 784.42,-632.82 776.78,-636.13"/>
<polygon fill="#63b8ff" stroke="#63b8ff" points="878.67,-515.23 879.35,-504.66 872.22,-512.5 878.67,-515.23"/>
</a>
</g>
</g>
<!-- Node5 -->
<g id="Node000005" class="node">
<title>Node5</title>
<g id="a_Node000005"><a xlink:href="$classFOctreeNodeContext.html#a2ec800202b6db1408690a4ea750755fc" xlink:title=" ">
<polygon fill="white" stroke="#666666" points="781.38,-614.5 663.38,-614.5 663.38,-581 781.38,-581 781.38,-614.5"/>
<text xml:space="preserve" text-anchor="start" x="671.38" y="-601" font-family="Helvetica,sans-Serif" font-size="10.00">FOctreeNodeContext</text>
<text xml:space="preserve" text-anchor="middle" x="722.38" y="-588.25" font-family="Helvetica,sans-Serif" font-size="10.00">::GetContainingChild</text>
</a>
</g>
</g>
<!-- Node1&#45;&gt;Node5 -->
<g id="edge4_Node000001_Node000005" class="edge">
<title>Node1&#45;&gt;Node5</title>
<g id="a_edge4_Node000001_Node000005"><a xlink:title=" ">
<path fill="none" stroke="#63b8ff" d="M858.08,-509.69C828.28,-529.17 779.62,-560.99 749.66,-580.57"/>
<polygon fill="#63b8ff" stroke="#63b8ff" points="859.69,-512.82 866.15,-504.42 855.86,-506.96 859.69,-512.82"/>
</a>
</g>
</g>
<!-- Node14 -->
<g id="Node000014" class="node">
<title>Node14</title>
<g id="a_Node000014"><a xlink:href="$classFOctreeNodeContext.html#aee8d68487242aefa2cc0e42a5d571bbe" xlink:title=" ">
<polygon fill="white" stroke="#666666" points="791.12,-509.5 653.62,-509.5 653.62,-476 791.12,-476 791.12,-509.5"/>
<text xml:space="preserve" text-anchor="start" x="661.62" y="-496" font-family="Helvetica,sans-Serif" font-size="10.00">FOctreeNodeContext</text>
<text xml:space="preserve" text-anchor="middle" x="722.38" y="-483.25" font-family="Helvetica,sans-Serif" font-size="10.00">::GetIntersectingChildren</text>
</a>
</g>
</g>
<!-- Node1&#45;&gt;Node14 -->
<g id="edge16_Node000001_Node000014" class="edge">
<title>Node1&#45;&gt;Node14</title>
<g id="a_edge16_Node000001_Node000014"><a xlink:title=" ">
<path fill="none" stroke="#63b8ff" d="M822.77,-492.75C812.57,-492.75 801.94,-492.75 791.58,-492.75"/>
<polygon fill="#63b8ff" stroke="#63b8ff" points="822.54,-496.25 832.54,-492.75 822.54,-489.25 822.54,-496.25"/>
</a>
</g>
</g>
<!-- Node23 -->
<g id="Node000023" class="node">
<title>Node23</title>
<g id="a_Node000023"><a xlink:href="$classFBoxCenterAndExtent.html#ac482436cd54bb9bd57f819a9b9fb5c19" xlink:title=" ">
<polygon fill="white" stroke="#666666" points="784,-457.5 660.75,-457.5 660.75,-424 784,-424 784,-457.5"/>
<text xml:space="preserve" text-anchor="start" x="668.75" y="-444" font-family="Helvetica,sans-Serif" font-size="10.00">FBoxCenterAndExtent</text>
<text xml:space="preserve" text-anchor="middle" x="722.38" y="-431.25" font-family="Helvetica,sans-Serif" font-size="10.00">::Intersect</text>
</a>
</g>
</g>
<!-- Node1&#45;&gt;Node23 -->
<g id="edge28_Node000001_Node000023" class="edge">
<title>Node1&#45;&gt;Node23</title>
<g id="a_edge28_Node000001_Node000023"><a xlink:title=" ">
<path fill="none" stroke="#63b8ff" d="M839.95,-478.49C820.34,-472.14 797.09,-464.61 776.53,-457.96"/>
<polygon fill="#63b8ff" stroke="#63b8ff" points="838.69,-481.76 849.28,-481.51 840.84,-475.1 838.69,-481.76"/>
</a>
</g>
</g>
<!-- Node24 -->
<g id="Node000024" class="node">
<title>Node24</title>
<g id="a_Node000024"><a xlink:href="$structUE_1_1Math_1_1TRotator.html#a0abe777d1874d451fbd572339f0680f3" xlink:title=" ">
<polygon fill="white" stroke="#666666" points="776.5,-364.5 668.25,-364.5 668.25,-331 776.5,-331 776.5,-364.5"/>
<text xml:space="preserve" text-anchor="start" x="676.25" y="-351" font-family="Helvetica,sans-Serif" font-size="10.00">UE::Math::TRotator</text>
<text xml:space="preserve" text-anchor="middle" x="722.38" y="-338.25" font-family="Helvetica,sans-Serif" font-size="10.00">::IsNearlyZero</text>
</a>
</g>
</g>
<!-- Node1&#45;&gt;Node24 -->
<g id="edge29_Node000001_Node000024" class="edge">
<title>Node1&#45;&gt;Node24</title>
<g id="a_edge29_Node000001_Node000024"><a xlink:title=" ">
<path fill="none" stroke="#63b8ff" d="M864.14,-474.6C846.79,-458.77 820.9,-435.18 798.25,-414.75 779.34,-397.69 757.65,-378.3 742.49,-364.78"/>
<polygon fill="#63b8ff" stroke="#63b8ff" points="861.51,-476.94 871.26,-481.1 866.23,-471.77 861.51,-476.94"/>
</a>
</g>
</g>
<!-- Node26 -->
<g id="Node000026" class="node">
<title>Node26</title>
<g id="a_Node000026"><a xlink:href="$structUE_1_1Math_1_1TQuat.html#af17db7ec4b8b87f8952fb5d216057241" xlink:title=" ">
<polygon fill="white" stroke="#666666" points="798.25,-278.12 646.5,-278.12 646.5,-257.38 798.25,-257.38 798.25,-278.12"/>
<text xml:space="preserve" text-anchor="middle" x="722.38" y="-264.62" font-family="Helvetica,sans-Serif" font-size="10.00">UE::Math::TQuat::Normalize</text>
</a>
</g>
</g>
<!-- Node1&#45;&gt;Node26 -->
<g id="edge31_Node000001_Node000026" class="edge">
<title>Node1&#45;&gt;Node26</title>
<g id="a_edge31_Node000001_Node000026"><a xlink:title=" ">
<path fill="none" stroke="#63b8ff" d="M877.1,-471.47C865.18,-437.12 838.12,-368.57 798.25,-321.75 782.66,-303.45 759.64,-288.05 743.24,-278.44"/>
<polygon fill="#63b8ff" stroke="#63b8ff" points="873.68,-472.31 880.19,-480.67 880.32,-470.08 873.68,-472.31"/>
</a>
</g>
</g>
<!-- Node3 -->
<g id="Node000003" class="node">
<title>Node3</title>
<g id="a_Node000003"><a xlink:href="$structUE_1_1Math_1_1TQuat.html#a74dde71a38d8e3a2c12467c4363ff5a4" xlink:title=" ">
<polygon fill="white" stroke="#666666" points="596.62,-798.12 449.38,-798.12 449.38,-777.38 596.62,-777.38 596.62,-798.12"/>
<text xml:space="preserve" text-anchor="middle" x="523" y="-784.62" font-family="Helvetica,sans-Serif" font-size="10.00">UE::Math::TQuat::IsIdentity</text>
</a>
</g>
</g>
<!-- Node2&#45;&gt;Node3 -->
<g id="edge2_Node000002_Node000003" class="edge">
<title>Node2&#45;&gt;Node3</title>
<g id="a_edge2_Node000002_Node000003"><a xlink:title=" ">
<path fill="none" stroke="#63b8ff" d="M666.35,-754.28C648.54,-758.63 628.69,-763.43 610.5,-767.75 597.75,-770.78 583.93,-774 571.16,-776.95"/>
<polygon fill="#63b8ff" stroke="#63b8ff" points="667.08,-757.71 675.96,-751.94 665.41,-750.91 667.08,-757.71"/>
</a>
</g>
</g>
<!-- Node6 -->
<g id="Node000006" class="node">
<title>Node6</title>
<g id="a_Node000006"><a xlink:href="$classTOctree2.html#a5110dbbe8a7f5325c1924565400d3596" xlink:title=" ">
<polygon fill="white" stroke="#666666" points="604.5,-741.12 441.5,-741.12 441.5,-720.38 604.5,-720.38 604.5,-741.12"/>
<text xml:space="preserve" text-anchor="middle" x="523" y="-727.62" font-family="Helvetica,sans-Serif" font-size="10.00">TOctree2::AddElementInternal</text>
</a>
</g>
</g>
<!-- Node5&#45;&gt;Node6 -->
<g id="edge5_Node000005_Node000006" class="edge">
<title>Node5&#45;&gt;Node6</title>
<g id="a_edge5_Node000005_Node000006"><a xlink:title=" ">
<path fill="none" stroke="#63b8ff" d="M653.23,-618.23C650.86,-619.93 648.6,-621.76 646.5,-623.75 615.82,-652.81 642.84,-684.55 610.5,-711.75 606.62,-715.02 602.3,-717.76 597.72,-720.05"/>
<polygon fill="#63b8ff" stroke="#63b8ff" points="654.88,-621.32 661.61,-613.14 651.25,-615.34 654.88,-621.32"/>
</a>
</g>
</g>
<!-- Node9 -->
<g id="Node000009" class="node">
<title>Node9</title>
<g id="a_Node000009"><a xlink:href="$classTOctree__DEPRECATED.html#abd2d9475a8392920066214535c864fdc" xlink:title=" ">
<polygon fill="white" stroke="#666666" points="585.38,-684.5 460.62,-684.5 460.62,-651 585.38,-651 585.38,-684.5"/>
<text xml:space="preserve" text-anchor="start" x="468.62" y="-671" font-family="Helvetica,sans-Serif" font-size="10.00">TOctree_DEPRECATED</text>
<text xml:space="preserve" text-anchor="middle" x="523" y="-658.25" font-family="Helvetica,sans-Serif" font-size="10.00">::AddElementToNode</text>
</a>
</g>
</g>
<!-- Node5&#45;&gt;Node9 -->
<g id="edge9_Node000005_Node000009" class="edge">
<title>Node5&#45;&gt;Node9</title>
<g id="a_edge9_Node000005_Node000009"><a xlink:title=" ">
<path fill="none" stroke="#63b8ff" d="M658.35,-618.97C654.32,-620.53 650.34,-622.13 646.5,-623.75 630.02,-630.7 627.13,-635.15 610.5,-641.75 602.48,-644.93 593.92,-647.95 585.41,-650.72"/>
<polygon fill="#63b8ff" stroke="#63b8ff" points="659.54,-622.26 667.67,-615.47 657.08,-615.71 659.54,-622.26"/>
</a>
</g>
</g>
<!-- Node12 -->
<g id="Node000012" class="node">
<title>Node12</title>
<g id="a_Node000012"><a xlink:href="$classTOctree2.html#a45503122961c2f78eb00f821735fb9a2" xlink:title=" ">
<polygon fill="white" stroke="#666666" points="606.38,-614.5 439.62,-614.5 439.62,-581 606.38,-581 606.38,-614.5"/>
<text xml:space="preserve" text-anchor="start" x="447.62" y="-601" font-family="Helvetica,sans-Serif" font-size="10.00">TOctree2::FindNearbyElements</text>
<text xml:space="preserve" text-anchor="middle" x="523" y="-588.25" font-family="Helvetica,sans-Serif" font-size="10.00">Internal</text>
</a>
</g>
</g>
<!-- Node5&#45;&gt;Node12 -->
<g id="edge13_Node000005_Node000012" class="edge">
<title>Node5&#45;&gt;Node12</title>
<g id="a_edge13_Node000005_Node000012"><a xlink:title=" ">
<path fill="none" stroke="#63b8ff" d="M651.56,-597.75C637.07,-597.75 621.67,-597.75 606.76,-597.75"/>
<polygon fill="#63b8ff" stroke="#63b8ff" points="651.44,-601.25 661.44,-597.75 651.44,-594.25 651.44,-601.25"/>
</a>
</g>
</g>
<!-- Node6&#45;&gt;Node6 -->
<g id="edge8_Node000006_Node000006" class="edge">
<title>Node6&#45;&gt;Node6</title>
<g id="a_edge8_Node000006_Node000006"><a xlink:title=" ">
<path fill="none" stroke="#63b8ff" d="M558.08,-752.61C553.43,-756.45 541.74,-759.12 523,-759.12 488.73,-759.12 478.02,-750.18 490.87,-741.52"/>
<polygon fill="#63b8ff" stroke="#63b8ff" points="561.47,-751.75 555.52,-742.98 554.71,-753.55 561.47,-751.75"/>
</a>
</g>
</g>
<!-- Node7 -->
<g id="Node000007" class="node">
<title>Node7</title>
<g id="a_Node000007"><a xlink:href="$classTOctree2.html#a4cd446fa10b1491a7a8ba1b813eb62e8" xlink:title=" ">
<polygon fill="white" stroke="#666666" points="364.25,-741.12 238.75,-741.12 238.75,-720.38 364.25,-720.38 364.25,-741.12"/>
<text xml:space="preserve" text-anchor="middle" x="301.5" y="-727.62" font-family="Helvetica,sans-Serif" font-size="10.00">TOctree2::AddElement</text>
</a>
</g>
</g>
<!-- Node6&#45;&gt;Node7 -->
<g id="edge6_Node000006_Node000007" class="edge">
<title>Node6&#45;&gt;Node7</title>
<g id="a_edge6_Node000006_Node000007"><a xlink:title=" ">
<path fill="none" stroke="#63b8ff" d="M429.81,-730.75C407.81,-730.75 384.85,-730.75 364.58,-730.75"/>
<polygon fill="#63b8ff" stroke="#63b8ff" points="429.69,-734.25 439.69,-730.75 429.69,-727.25 429.69,-734.25"/>
</a>
</g>
</g>
<!-- Node8 -->
<g id="Node000008" class="node">
<title>Node8</title>
<g id="a_Node000008"><a xlink:href="$classTOctree2.html#aee8b7946ce5fbf327e1eb0adfaab2579" xlink:title=" ">
<polygon fill="white" stroke="#666666" points="145.75,-741.12 21.75,-741.12 21.75,-720.38 145.75,-720.38 145.75,-741.12"/>
<text xml:space="preserve" text-anchor="middle" x="83.75" y="-727.62" font-family="Helvetica,sans-Serif" font-size="10.00">TOctree2::ApplyOffset</text>
</a>
</g>
</g>
<!-- Node7&#45;&gt;Node8 -->
<g id="edge7_Node000007_Node000008" class="edge">
<title>Node7&#45;&gt;Node8</title>
<g id="a_edge7_Node000007_Node000008"><a xlink:title=" ">
<path fill="none" stroke="#63b8ff" d="M226.92,-730.75C200.6,-730.75 171.23,-730.75 146.05,-730.75"/>
<polygon fill="#63b8ff" stroke="#63b8ff" points="226.87,-734.25 236.87,-730.75 226.87,-727.25 226.87,-734.25"/>
</a>
</g>
</g>
<!-- Node9&#45;&gt;Node9 -->
<g id="edge12_Node000009_Node000009" class="edge">
<title>Node9&#45;&gt;Node9</title>
<g id="a_edge12_Node000009_Node000009"><a xlink:title=" ">
<path fill="none" stroke="#63b8ff" d="M556.48,-695.89C551.03,-699.85 539.87,-702.5 523,-702.5 493.02,-702.5 481.07,-694.12 487.16,-684.91"/>
<polygon fill="#63b8ff" stroke="#63b8ff" points="559.84,-696.91 558.52,-686.39 552.99,-695.43 559.84,-696.91"/>
</a>
</g>
</g>
<!-- Node10 -->
<g id="Node000010" class="node">
<title>Node10</title>
<g id="a_Node000010"><a xlink:href="$classTOctree__DEPRECATED.html#aff4c7ca514bdb263de836a92f03f492b" xlink:title=" ">
<polygon fill="white" stroke="#666666" points="363.88,-684.5 239.12,-684.5 239.12,-651 363.88,-651 363.88,-684.5"/>
<text xml:space="preserve" text-anchor="start" x="247.12" y="-671" font-family="Helvetica,sans-Serif" font-size="10.00">TOctree_DEPRECATED</text>
<text xml:space="preserve" text-anchor="middle" x="301.5" y="-658.25" font-family="Helvetica,sans-Serif" font-size="10.00">::AddElement</text>
</a>
</g>
</g>
<!-- Node9&#45;&gt;Node10 -->
<g id="edge10_Node000009_Node000010" class="edge">
<title>Node9&#45;&gt;Node10</title>
<g id="a_edge10_Node000009_Node000010"><a xlink:title=" ">
<path fill="none" stroke="#63b8ff" d="M449.11,-667.75C421.58,-667.75 390.55,-667.75 364.14,-667.75"/>
<polygon fill="#63b8ff" stroke="#63b8ff" points="448.76,-671.25 458.76,-667.75 448.76,-664.25 448.76,-671.25"/>
</a>
</g>
</g>
<!-- Node11 -->
<g id="Node000011" class="node">
<title>Node11</title>
<g id="a_Node000011"><a xlink:href="$classTOctree__DEPRECATED.html#a9ca49ee8586fe4a12910c93213d646a3" xlink:title=" ">
<polygon fill="white" stroke="#666666" points="146.12,-684.5 21.38,-684.5 21.38,-651 146.12,-651 146.12,-684.5"/>
<text xml:space="preserve" text-anchor="start" x="29.38" y="-671" font-family="Helvetica,sans-Serif" font-size="10.00">TOctree_DEPRECATED</text>
<text xml:space="preserve" text-anchor="middle" x="83.75" y="-658.25" font-family="Helvetica,sans-Serif" font-size="10.00">::ApplyOffset</text>
</a>
</g>
</g>
<!-- Node10&#45;&gt;Node11 -->
<g id="edge11_Node000010_Node000011" class="edge">
<title>Node10&#45;&gt;Node11</title>
<g id="a_edge11_Node000010_Node000011"><a xlink:title=" ">
<path fill="none" stroke="#63b8ff" d="M227.26,-667.75C201.03,-667.75 171.75,-667.75 146.58,-667.75"/>
<polygon fill="#63b8ff" stroke="#63b8ff" points="227.16,-671.25 237.16,-667.75 227.16,-664.25 227.16,-671.25"/>
</a>
</g>
</g>
<!-- Node12&#45;&gt;Node12 -->
<g id="edge15_Node000012_Node000012" class="edge">
<title>Node12&#45;&gt;Node12</title>
<g id="a_edge15_Node000012_Node000012"><a xlink:title=" ">
<path fill="none" stroke="#63b8ff" d="M556.48,-625.89C551.03,-629.85 539.87,-632.5 523,-632.5 493.02,-632.5 481.07,-624.12 487.16,-614.91"/>
<polygon fill="#63b8ff" stroke="#63b8ff" points="559.84,-626.91 558.52,-616.39 552.99,-625.43 559.84,-626.91"/>
</a>
</g>
</g>
<!-- Node13 -->
<g id="Node000013" class="node">
<title>Node13</title>
<g id="a_Node000013"><a xlink:href="$classTOctree2.html#a21dc1e8f07892cae81acd4720a955cf0" xlink:title=" ">
<polygon fill="white" stroke="#666666" points="384.88,-608.12 218.12,-608.12 218.12,-587.38 384.88,-587.38 384.88,-608.12"/>
<text xml:space="preserve" text-anchor="middle" x="301.5" y="-594.62" font-family="Helvetica,sans-Serif" font-size="10.00">TOctree2::FindNearbyElements</text>
</a>
</g>
</g>
<!-- Node12&#45;&gt;Node13 -->
<g id="edge14_Node000012_Node000013" class="edge">
<title>Node12&#45;&gt;Node13</title>
<g id="a_edge14_Node000012_Node000013"><a xlink:title=" ">
<path fill="none" stroke="#63b8ff" d="M427.99,-597.75C413.72,-597.75 399.09,-597.75 385.1,-597.75"/>
<polygon fill="#63b8ff" stroke="#63b8ff" points="427.82,-601.25 437.82,-597.75 427.82,-594.25 427.82,-601.25"/>
</a>
</g>
</g>
<!-- Node15 -->
<g id="Node000015" class="node">
<title>Node15</title>
<g id="a_Node000015"><a xlink:href="$classTOctree2.html#ac54ebc520b5bef71709ae2ce22c09684" xlink:title=" ">
<polygon fill="white" stroke="#666666" points="600,-544.5 446,-544.5 446,-511 600,-511 600,-544.5"/>
<text xml:space="preserve" text-anchor="start" x="454" y="-531" font-family="Helvetica,sans-Serif" font-size="10.00">TOctree2::FindElementsWith</text>
<text xml:space="preserve" text-anchor="middle" x="523" y="-518.25" font-family="Helvetica,sans-Serif" font-size="10.00">BoundsTestInternal</text>
</a>
</g>
</g>
<!-- Node14&#45;&gt;Node15 -->
<g id="edge17_Node000014_Node000015" class="edge">
<title>Node14&#45;&gt;Node15</title>
<g id="a_edge17_Node000014_Node000015"><a xlink:title=" ">
<path fill="none" stroke="#63b8ff" d="M642.23,-506.79C628.41,-509.24 614.06,-511.78 600.32,-514.22"/>
<polygon fill="#63b8ff" stroke="#63b8ff" points="642.45,-510.3 651.68,-505.11 641.23,-503.41 642.45,-510.3"/>
</a>
</g>
</g>
<!-- Node17 -->
<g id="Node000017" class="node">
<title>Node17</title>
<g id="a_Node000017"><a xlink:href="$classTOctree2.html#a90bf025db87e9bf861bff6f39a7695af" xlink:title=" ">
<polygon fill="white" stroke="#666666" points="596.25,-474.5 449.75,-474.5 449.75,-441 596.25,-441 596.25,-474.5"/>
<text xml:space="preserve" text-anchor="start" x="457.75" y="-461" font-family="Helvetica,sans-Serif" font-size="10.00">TOctree2::FindFirstElement</text>
<text xml:space="preserve" text-anchor="middle" x="523" y="-448.25" font-family="Helvetica,sans-Serif" font-size="10.00">WithBoundsTestInternal</text>
</a>
</g>
</g>
<!-- Node14&#45;&gt;Node17 -->
<g id="edge20_Node000014_Node000017" class="edge">
<title>Node14&#45;&gt;Node17</title>
<g id="a_edge20_Node000014_Node000017"><a xlink:title=" ">
<path fill="none" stroke="#63b8ff" d="M641.87,-478.65C626.9,-476 611.32,-473.23 596.58,-470.62"/>
<polygon fill="#63b8ff" stroke="#63b8ff" points="641.23,-482.09 651.68,-480.39 642.45,-475.2 641.23,-482.09"/>
</a>
</g>
</g>
<!-- Node19 -->
<g id="Node000019" class="node">
<title>Node19</title>
<g id="a_Node000019"><a xlink:href="$classTOctree__DEPRECATED_1_1TConstElementBoxIterator.html#a419188d2da2af01dfe6cc1ec937bbdfa" xlink:title=" ">
<polygon fill="white" stroke="#666666" points="598.5,-422.88 447.5,-422.88 447.5,-376.62 598.5,-376.62 598.5,-422.88"/>
<text xml:space="preserve" text-anchor="start" x="455.5" y="-409.38" font-family="Helvetica,sans-Serif" font-size="10.00">TOctree_DEPRECATED</text>
<text xml:space="preserve" text-anchor="start" x="455.5" y="-396.62" font-family="Helvetica,sans-Serif" font-size="10.00">::TConstElementBoxIterator</text>
<text xml:space="preserve" text-anchor="middle" x="523" y="-383.88" font-family="Helvetica,sans-Serif" font-size="10.00">::ProcessChildren</text>
</a>
</g>
</g>
<!-- Node14&#45;&gt;Node19 -->
<g id="edge23_Node000014_Node000019" class="edge">
<title>Node14&#45;&gt;Node19</title>
<g id="a_edge23_Node000014_Node000019"><a xlink:title=" ">
<path fill="none" stroke="#63b8ff" d="M653.13,-470.55C650.86,-469.34 648.64,-468.07 646.5,-466.75 627.51,-455.03 629.37,-443.66 610.5,-431.75 605.62,-428.67 600.41,-425.83 595.05,-423.22"/>
<polygon fill="#63b8ff" stroke="#63b8ff" points="651.48,-473.64 662.01,-474.84 654.53,-467.34 651.48,-473.64"/>
</a>
</g>
</g>
<!-- Node15&#45;&gt;Node15 -->
<g id="edge19_Node000015_Node000015" class="edge">
<title>Node15&#45;&gt;Node15</title>
<g id="a_edge19_Node000015_Node000015"><a xlink:title=" ">
<path fill="none" stroke="#63b8ff" d="M556.48,-555.89C551.03,-559.85 539.87,-562.5 523,-562.5 493.02,-562.5 481.07,-554.12 487.16,-544.91"/>
<polygon fill="#63b8ff" stroke="#63b8ff" points="559.84,-556.91 558.52,-546.39 552.99,-555.43 559.84,-556.91"/>
</a>
</g>
</g>
<!-- Node16 -->
<g id="Node000016" class="node">
<title>Node16</title>
<g id="a_Node000016"><a xlink:href="$classTOctree2.html#a274bf3de3fa6c809fd192e3401df0d8f" xlink:title=" ">
<polygon fill="white" stroke="#666666" points="378.5,-544.5 224.5,-544.5 224.5,-511 378.5,-511 378.5,-544.5"/>
<text xml:space="preserve" text-anchor="start" x="232.5" y="-531" font-family="Helvetica,sans-Serif" font-size="10.00">TOctree2::FindElementsWith</text>
<text xml:space="preserve" text-anchor="middle" x="301.5" y="-518.25" font-family="Helvetica,sans-Serif" font-size="10.00">BoundsTest</text>
</a>
</g>
</g>
<!-- Node15&#45;&gt;Node16 -->
<g id="edge18_Node000015_Node000016" class="edge">
<title>Node15&#45;&gt;Node16</title>
<g id="a_edge18_Node000015_Node000016"><a xlink:title=" ">
<path fill="none" stroke="#63b8ff" d="M434.22,-527.75C415.84,-527.75 396.61,-527.75 378.69,-527.75"/>
<polygon fill="#63b8ff" stroke="#63b8ff" points="434.02,-531.25 444.02,-527.75 434.02,-524.25 434.02,-531.25"/>
</a>
</g>
</g>
<!-- Node17&#45;&gt;Node17 -->
<g id="edge22_Node000017_Node000017" class="edge">
<title>Node17&#45;&gt;Node17</title>
<g id="a_edge22_Node000017_Node000017"><a xlink:title=" ">
<path fill="none" stroke="#63b8ff" d="M556.48,-485.89C551.03,-489.85 539.87,-492.5 523,-492.5 493.02,-492.5 481.07,-484.12 487.16,-474.91"/>
<polygon fill="#63b8ff" stroke="#63b8ff" points="559.84,-486.91 558.52,-476.39 552.99,-485.43 559.84,-486.91"/>
</a>
</g>
</g>
<!-- Node18 -->
<g id="Node000018" class="node">
<title>Node18</title>
<g id="a_Node000018"><a xlink:href="$classTOctree2.html#a1f37533fc9ff36dbf89a2dbdddbf72d6" xlink:title=" ">
<polygon fill="white" stroke="#666666" points="374.75,-483.5 228.25,-483.5 228.25,-450 374.75,-450 374.75,-483.5"/>
<text xml:space="preserve" text-anchor="start" x="236.25" y="-470" font-family="Helvetica,sans-Serif" font-size="10.00">TOctree2::FindFirstElement</text>
<text xml:space="preserve" text-anchor="middle" x="301.5" y="-457.25" font-family="Helvetica,sans-Serif" font-size="10.00">WithBoundsTest</text>
</a>
</g>
</g>
<!-- Node17&#45;&gt;Node18 -->
<g id="edge21_Node000017_Node000018" class="edge">
<title>Node17&#45;&gt;Node18</title>
<g id="a_edge21_Node000017_Node000018"><a xlink:title=" ">
<path fill="none" stroke="#63b8ff" d="M438.1,-461.19C417.28,-462.04 395.13,-462.95 374.9,-463.78"/>
<polygon fill="#63b8ff" stroke="#63b8ff" points="438.16,-464.69 448.01,-460.78 437.87,-457.7 438.16,-464.69"/>
</a>
</g>
</g>
<!-- Node20 -->
<g id="Node000020" class="node">
<title>Node20</title>
<g id="a_Node000020"><a xlink:href="$classTOctree__DEPRECATED_1_1TConstElementBoxIterator.html#a186c170e7b3d87853dfacacfd2ac297f" xlink:title=" ">
<polygon fill="white" stroke="#666666" points="399.5,-431.88 203.5,-431.88 203.5,-385.62 399.5,-385.62 399.5,-431.88"/>
<text xml:space="preserve" text-anchor="start" x="211.5" y="-418.38" font-family="Helvetica,sans-Serif" font-size="10.00">TOctree_DEPRECATED</text>
<text xml:space="preserve" text-anchor="start" x="211.5" y="-405.62" font-family="Helvetica,sans-Serif" font-size="10.00">::TConstElementBoxIterator</text>
<text xml:space="preserve" text-anchor="middle" x="301.5" y="-392.88" font-family="Helvetica,sans-Serif" font-size="10.00">::AdvanceToNextIntersectingElement</text>
</a>
</g>
</g>
<!-- Node19&#45;&gt;Node20 -->
<g id="edge24_Node000019_Node000020" class="edge">
<title>Node19&#45;&gt;Node20</title>
<g id="a_edge24_Node000019_Node000020"><a xlink:title=" ">
<path fill="none" stroke="#63b8ff" d="M435.91,-403.28C424.13,-403.76 411.96,-404.26 399.99,-404.75"/>
<polygon fill="#63b8ff" stroke="#63b8ff" points="435.71,-406.79 445.56,-402.88 435.43,-399.8 435.71,-406.79"/>
</a>
</g>
</g>
<!-- Node22 -->
<g id="Node000022" class="node">
<title>Node22</title>
<g id="a_Node000022"><a xlink:href="$classTOctree__DEPRECATED_1_1TConstElementBoxIterator.html#ac5203ffeb508f9210df66c14c108d26e" xlink:title=" ">
<polygon fill="white" stroke="#666666" points="159.25,-380.88 8.25,-380.88 8.25,-334.62 159.25,-334.62 159.25,-380.88"/>
<text xml:space="preserve" text-anchor="start" x="16.25" y="-367.38" font-family="Helvetica,sans-Serif" font-size="10.00">TOctree_DEPRECATED</text>
<text xml:space="preserve" text-anchor="start" x="16.25" y="-354.62" font-family="Helvetica,sans-Serif" font-size="10.00">::TConstElementBoxIterator</text>
<text xml:space="preserve" text-anchor="middle" x="83.75" y="-341.88" font-family="Helvetica,sans-Serif" font-size="10.00">::TConstElementBoxIterator</text>
</a>
</g>
</g>
<!-- Node19&#45;&gt;Node22 -->
<g id="edge27_Node000019_Node000022" class="edge">
<title>Node19&#45;&gt;Node22</title>
<g id="a_edge27_Node000019_Node000022"><a xlink:title=" ">
<path fill="none" stroke="#63b8ff" d="M435.96,-382.19C423.76,-380.11 411.34,-378.21 399.5,-376.75 317.87,-366.66 223.64,-361.87 159.72,-359.63"/>
<polygon fill="#63b8ff" stroke="#63b8ff" points="435.14,-385.6 445.59,-383.88 436.35,-378.71 435.14,-385.6"/>
</a>
</g>
</g>
<!-- Node21 -->
<g id="Node000021" class="node">
<title>Node21</title>
<g id="a_Node000021"><a xlink:href="$classTOctree__DEPRECATED_1_1TConstElementBoxIterator.html#afed1a0fdeda7699b33748d070d48011e" xlink:title=" ">
<polygon fill="white" stroke="#666666" points="159.25,-444.88 8.25,-444.88 8.25,-398.62 159.25,-398.62 159.25,-444.88"/>
<text xml:space="preserve" text-anchor="start" x="16.25" y="-431.38" font-family="Helvetica,sans-Serif" font-size="10.00">TOctree_DEPRECATED</text>
<text xml:space="preserve" text-anchor="start" x="16.25" y="-418.62" font-family="Helvetica,sans-Serif" font-size="10.00">::TConstElementBoxIterator</text>
<text xml:space="preserve" text-anchor="middle" x="83.75" y="-405.88" font-family="Helvetica,sans-Serif" font-size="10.00">::Advance</text>
</a>
</g>
</g>
<!-- Node20&#45;&gt;Node21 -->
<g id="edge25_Node000020_Node000021" class="edge">
<title>Node20&#45;&gt;Node21</title>
<g id="a_edge25_Node000020_Node000021"><a xlink:title=" ">
<path fill="none" stroke="#63b8ff" d="M191.69,-415.31C180.79,-415.96 169.9,-416.62 159.47,-417.25"/>
<polygon fill="#63b8ff" stroke="#63b8ff" points="191.76,-418.81 201.53,-414.71 191.34,-411.82 191.76,-418.81"/>
</a>
</g>
</g>
<!-- Node20&#45;&gt;Node22 -->
<g id="edge26_Node000020_Node000022" class="edge">
<title>Node20&#45;&gt;Node22</title>
<g id="a_edge26_Node000020_Node000022"><a xlink:title=" ">
<path fill="none" stroke="#63b8ff" d="M192.04,-383.11C181.02,-380.51 170.01,-377.9 159.47,-375.41"/>
<polygon fill="#63b8ff" stroke="#63b8ff" points="191.03,-386.47 201.57,-385.36 192.64,-379.66 191.03,-386.47"/>
</a>
</g>
</g>
<!-- Node25 -->
<g id="Node000025" class="node">
<title>Node25</title>
<g id="a_Node000025"><a xlink:href="$structUE_1_1Math_1_1TRotator.html#af0db730d3270d260984b0d90a7817c23" xlink:title=" ">
<polygon fill="white" stroke="#666666" points="577.12,-358.5 468.88,-358.5 468.88,-325 577.12,-325 577.12,-358.5"/>
<text xml:space="preserve" text-anchor="start" x="476.88" y="-345" font-family="Helvetica,sans-Serif" font-size="10.00">UE::Math::TRotator</text>
<text xml:space="preserve" text-anchor="middle" x="523" y="-332.25" font-family="Helvetica,sans-Serif" font-size="10.00">::ToCompactString</text>
</a>
</g>
</g>
<!-- Node24&#45;&gt;Node25 -->
<g id="edge30_Node000024_Node000025" class="edge">
<title>Node24&#45;&gt;Node25</title>
<g id="a_edge30_Node000024_Node000025"><a xlink:title=" ">
<path fill="none" stroke="#63b8ff" d="M656.47,-345.78C630.87,-345 601.82,-344.12 577.46,-343.37"/>
<polygon fill="#63b8ff" stroke="#63b8ff" points="656.35,-349.27 666.45,-346.08 656.56,-342.28 656.35,-349.27"/>
</a>
</g>
</g>
<!-- Node27 -->
<g id="Node000027" class="node">
<title>Node27</title>
<g id="a_Node000027"><a xlink:href="$structUE_1_1Math_1_1TQuat.html#ac267ed9620ef7813f055a03fd1510af8" xlink:title=" ">
<polygon fill="white" stroke="#666666" points="596.62,-284.5 449.38,-284.5 449.38,-251 596.62,-251 596.62,-284.5"/>
<text xml:space="preserve" text-anchor="start" x="457.38" y="-271" font-family="Helvetica,sans-Serif" font-size="10.00">UE::Math::TQuat::ErrorAuto</text>
<text xml:space="preserve" text-anchor="middle" x="523" y="-258.25" font-family="Helvetica,sans-Serif" font-size="10.00">Normalize</text>
</a>
</g>
</g>
<!-- Node26&#45;&gt;Node27 -->
<g id="edge32_Node000026_Node000027" class="edge">
<title>Node26&#45;&gt;Node27</title>
<g id="a_edge32_Node000026_Node000027"><a xlink:title=" ">
<path fill="none" stroke="#63b8ff" d="M634.73,-267.75C622.15,-267.75 609.3,-267.75 597.02,-267.75"/>
<polygon fill="#63b8ff" stroke="#63b8ff" points="634.68,-271.25 644.68,-267.75 634.68,-264.25 634.68,-271.25"/>
</a>
</g>
</g>
<!-- Node28 -->
<g id="Node000028" class="node">
<title>Node28</title>
<g id="a_Node000028"><a xlink:href="$structUE_1_1Math_1_1TQuat.html#a58037d3c43d5ba0f4751823c8403fe0a" xlink:title=" ">
<polygon fill="white" stroke="#666666" points="610.5,-201.12 435.5,-201.12 435.5,-180.38 610.5,-180.38 610.5,-201.12"/>
<text xml:space="preserve" text-anchor="middle" x="523" y="-187.62" font-family="Helvetica,sans-Serif" font-size="10.00">UE::Math::TQuat::GetNormalized</text>
</a>
</g>
</g>
<!-- Node26&#45;&gt;Node28 -->
<g id="edge33_Node000026_Node000028" class="edge">
<title>Node26&#45;&gt;Node28</title>
<g id="a_edge33_Node000026_Node000028"><a xlink:title=" ">
<path fill="none" stroke="#63b8ff" d="M683.21,-252.86C644.66,-237.82 586.04,-214.95 551.72,-201.56"/>
<polygon fill="#63b8ff" stroke="#63b8ff" points="681.52,-255.96 692.1,-256.33 684.06,-249.44 681.52,-255.96"/>
</a>
</g>
</g>
<!-- Node29 -->
<g id="Node000029" class="node">
<title>Node29</title>
<g id="a_Node000029"><a xlink:href="$structFQuaternionAnimationAttribute.html#aa1de47917a85672527af9cd0d517c035" xlink:title=" ">
<polygon fill="white" stroke="#666666" points="386,-311.5 217,-311.5 217,-278 386,-278 386,-311.5"/>
<text xml:space="preserve" text-anchor="start" x="225" y="-298" font-family="Helvetica,sans-Serif" font-size="10.00">FQuaternionAnimationAttribute</text>
<text xml:space="preserve" text-anchor="middle" x="301.5" y="-285.25" font-family="Helvetica,sans-Serif" font-size="10.00">::Accumulate</text>
</a>
</g>
</g>
<!-- Node28&#45;&gt;Node29 -->
<g id="edge34_Node000028_Node000029" class="edge">
<title>Node28&#45;&gt;Node29</title>
<g id="a_edge34_Node000028_Node000029"><a xlink:title=" ">
<path fill="none" stroke="#63b8ff" d="M492.49,-207.07C475.53,-216.71 454,-229.42 435.5,-241.75 418.86,-252.85 417.49,-260 399.5,-268.75 392.76,-272.03 385.54,-274.94 378.21,-277.51"/>
<polygon fill="#63b8ff" stroke="#63b8ff" points="494.07,-210.2 501.07,-202.24 490.64,-204.1 494.07,-210.2"/>
</a>
</g>
</g>
<!-- Node30 -->
<g id="Node000030" class="node">
<title>Node30</title>
<g id="a_Node000030"><a xlink:href="$structFQuaternionAnimationAttribute.html#a5b5f0942e052224c5530410b6e588701" xlink:title=" ">
<polygon fill="white" stroke="#666666" points="386,-259.5 217,-259.5 217,-226 386,-226 386,-259.5"/>
<text xml:space="preserve" text-anchor="start" x="225" y="-246" font-family="Helvetica,sans-Serif" font-size="10.00">FQuaternionAnimationAttribute</text>
<text xml:space="preserve" text-anchor="middle" x="301.5" y="-233.25" font-family="Helvetica,sans-Serif" font-size="10.00">::Interpolate</text>
</a>
</g>
</g>
<!-- Node28&#45;&gt;Node30 -->
<g id="edge36_Node000028_Node000030" class="edge">
<title>Node28&#45;&gt;Node30</title>
<g id="a_edge36_Node000028_Node000030"><a xlink:title=" ">
<path fill="none" stroke="#63b8ff" d="M465.23,-204.2C437.7,-210.72 404.32,-218.63 374.97,-225.58"/>
<polygon fill="#63b8ff" stroke="#63b8ff" points="465.86,-207.65 474.78,-201.94 464.24,-200.84 465.86,-207.65"/>
</a>
</g>
</g>
<!-- Node31 -->
<g id="Node000031" class="node">
<title>Node31</title>
<g id="a_Node000031"><a xlink:href="$structFRotationConversionCache.html#a1d395a0c18b0440d0947ebd771e87538" xlink:title=" ">
<polygon fill="white" stroke="#666666" points="375.5,-207.5 227.5,-207.5 227.5,-174 375.5,-174 375.5,-207.5"/>
<text xml:space="preserve" text-anchor="start" x="235.5" y="-194" font-family="Helvetica,sans-Serif" font-size="10.00">FRotationConversionCache</text>
<text xml:space="preserve" text-anchor="middle" x="301.5" y="-181.25" font-family="Helvetica,sans-Serif" font-size="10.00">::QuatToRotator</text>
</a>
</g>
</g>
<!-- Node28&#45;&gt;Node31 -->
<g id="edge37_Node000028_Node000031" class="edge">
<title>Node28&#45;&gt;Node31</title>
<g id="a_edge37_Node000028_Node000031"><a xlink:title=" ">
<path fill="none" stroke="#63b8ff" d="M424.1,-190.75C407.9,-190.75 391.34,-190.75 375.88,-190.75"/>
<polygon fill="#63b8ff" stroke="#63b8ff" points="423.73,-194.25 433.73,-190.75 423.73,-187.25 423.73,-194.25"/>
</a>
</g>
</g>
<!-- Node32 -->
<g id="Node000032" class="node">
<title>Node32</title>
<g id="a_Node000032"><a xlink:href="$structFRotationConversionCache.html#a832c684637c620744183090ae6505523" xlink:title=" ">
<polygon fill="white" stroke="#666666" points="375.5,-155.5 227.5,-155.5 227.5,-122 375.5,-122 375.5,-155.5"/>
<text xml:space="preserve" text-anchor="start" x="235.5" y="-142" font-family="Helvetica,sans-Serif" font-size="10.00">FRotationConversionCache</text>
<text xml:space="preserve" text-anchor="middle" x="301.5" y="-129.25" font-family="Helvetica,sans-Serif" font-size="10.00">::QuatToRotator_ReadOnly</text>
</a>
</g>
</g>
<!-- Node28&#45;&gt;Node32 -->
<g id="edge38_Node000028_Node000032" class="edge">
<title>Node28&#45;&gt;Node32</title>
<g id="a_edge38_Node000028_Node000032"><a xlink:title=" ">
<path fill="none" stroke="#63b8ff" d="M465.23,-177.3C437.7,-170.78 404.32,-162.87 374.97,-155.92"/>
<polygon fill="#63b8ff" stroke="#63b8ff" points="464.24,-180.66 474.78,-179.56 465.86,-173.85 464.24,-180.66"/>
</a>
</g>
</g>
<!-- Node33 -->
<g id="Node000033" class="node">
<title>Node33</title>
<g id="a_Node000033"><a xlink:href="$structUE_1_1Math_1_1TQuat.html#abb74de008b12f469714b32b974b43f63" xlink:title=" ">
<polygon fill="white" stroke="#666666" points="371.38,-85.5 231.62,-85.5 231.62,-52 371.38,-52 371.38,-85.5"/>
<text xml:space="preserve" text-anchor="start" x="239.62" y="-72" font-family="Helvetica,sans-Serif" font-size="10.00">UE::Math::TQuat&lt; double</text>
<text xml:space="preserve" text-anchor="middle" x="301.5" y="-59.25" font-family="Helvetica,sans-Serif" font-size="10.00"> &gt;::Slerp</text>
</a>
</g>
</g>
<!-- Node28&#45;&gt;Node33 -->
<g id="edge39_Node000028_Node000033" class="edge">
<title>Node28&#45;&gt;Node33</title>
<g id="a_edge39_Node000028_Node000033"><a xlink:title=" ">
<path fill="none" stroke="#63b8ff" d="M497.38,-173.62C473.08,-157.05 434.57,-131.75 399.5,-112.75 381.61,-103.06 361.19,-93.58 343.71,-85.91"/>
<polygon fill="#63b8ff" stroke="#63b8ff" points="495.1,-176.29 505.32,-179.07 499.06,-170.52 495.1,-176.29"/>
</a>
</g>
</g>
<!-- Node36 -->
<g id="Node000036" class="node">
<title>Node36</title>
<g id="a_Node000036"><a xlink:href="$structUE_1_1Math_1_1TQuat.html#acfa679d095415f77feaf943a5cafcf36" xlink:title=" ">
<polygon fill="white" stroke="#666666" points="371.38,-33.5 231.62,-33.5 231.62,0 371.38,0 371.38,-33.5"/>
<text xml:space="preserve" text-anchor="start" x="239.62" y="-20" font-family="Helvetica,sans-Serif" font-size="10.00">UE::Math::TQuat&lt; double</text>
<text xml:space="preserve" text-anchor="middle" x="301.5" y="-7.25" font-family="Helvetica,sans-Serif" font-size="10.00"> &gt;::SlerpFullPath</text>
</a>
</g>
</g>
<!-- Node28&#45;&gt;Node36 -->
<g id="edge43_Node000028_Node000036" class="edge">
<title>Node28&#45;&gt;Node36</title>
<g id="a_edge43_Node000028_Node000036"><a xlink:title=" ">
<path fill="none" stroke="#63b8ff" d="M510.97,-170.64C492.31,-138.58 451.45,-76.1 399.5,-42.75 391.06,-37.33 381.52,-33.04 371.8,-29.64"/>
<polygon fill="#63b8ff" stroke="#63b8ff" points="507.7,-171.98 515.68,-178.95 513.79,-168.52 507.7,-171.98"/>
</a>
</g>
</g>
<!-- Node29&#45;&gt;Node29 -->
<g id="edge35_Node000029_Node000029" class="edge">
<title>Node29&#45;&gt;Node29</title>
<g id="a_edge35_Node000029_Node000029"><a xlink:title=" ">
<path fill="none" stroke="#63b8ff" d="M337.81,-323.05C331.77,-326.92 319.66,-329.5 301.5,-329.5 268.75,-329.5 255.7,-321.12 262.36,-311.91"/>
<polygon fill="#63b8ff" stroke="#63b8ff" points="341.2,-323.94 340.27,-313.38 334.41,-322.21 341.2,-323.94"/>
</a>
</g>
</g>
<!-- Node33&#45;&gt;Node33 -->
<g id="edge41_Node000033_Node000033" class="edge">
<title>Node33&#45;&gt;Node33</title>
<g id="a_edge41_Node000033_Node000033"><a xlink:title=" ">
<path fill="none" stroke="#63b8ff" d="M337.81,-97.05C331.77,-100.92 319.66,-103.5 301.5,-103.5 268.75,-103.5 255.7,-95.12 262.36,-85.91"/>
<polygon fill="#63b8ff" stroke="#63b8ff" points="341.2,-97.94 340.27,-87.38 334.41,-96.21 341.2,-97.94"/>
</a>
</g>
</g>
<!-- Node34 -->
<g id="Node000034" class="node">
<title>Node34</title>
<g id="a_Node000034"><a xlink:href="$structFRootMotionMovementParams.html#a4376a31f22c50df7b9172d47289a9694" xlink:title=" ">
<polygon fill="white" stroke="#666666" points="167.5,-111.5 0,-111.5 0,-78 167.5,-78 167.5,-111.5"/>
<text xml:space="preserve" text-anchor="start" x="8" y="-98" font-family="Helvetica,sans-Serif" font-size="10.00">FRootMotionMovementParams</text>
<text xml:space="preserve" text-anchor="middle" x="83.75" y="-85.25" font-family="Helvetica,sans-Serif" font-size="10.00">::ConsumeRootMotion</text>
</a>
</g>
</g>
<!-- Node33&#45;&gt;Node34 -->
<g id="edge40_Node000033_Node000034" class="edge">
<title>Node33&#45;&gt;Node34</title>
<g id="a_edge40_Node000033_Node000034"><a xlink:title=" ">
<path fill="none" stroke="#63b8ff" d="M220.27,-78.42C203.16,-80.48 185.06,-82.66 167.84,-84.74"/>
<polygon fill="#63b8ff" stroke="#63b8ff" points="220.33,-81.94 229.84,-77.26 219.5,-74.99 220.33,-81.94"/>
</a>
</g>
</g>
<!-- Node35 -->
<g id="Node000035" class="node">
<title>Node35</title>
<g id="a_Node000035"><a xlink:href="$structUE_1_1Math_1_1TQuat.html#a9ff0f1dffaf85296348853b544827631" xlink:title=" ">
<polygon fill="white" stroke="#666666" points="153.62,-59.5 13.88,-59.5 13.88,-26 153.62,-26 153.62,-59.5"/>
<text xml:space="preserve" text-anchor="start" x="21.88" y="-46" font-family="Helvetica,sans-Serif" font-size="10.00">UE::Math::TQuat&lt; double</text>
<text xml:space="preserve" text-anchor="middle" x="83.75" y="-33.25" font-family="Helvetica,sans-Serif" font-size="10.00"> &gt;::Slerp_NotNormalized</text>
</a>
</g>
</g>
<!-- Node33&#45;&gt;Node35 -->
<g id="edge42_Node000033_Node000035" class="edge">
<title>Node33&#45;&gt;Node35</title>
<g id="a_edge42_Node000033_Node000035"><a xlink:title=" ">
<path fill="none" stroke="#63b8ff" d="M220.13,-59.06C198.35,-56.44 174.98,-53.62 153.88,-51.08"/>
<polygon fill="#63b8ff" stroke="#63b8ff" points="219.5,-62.51 229.84,-60.24 220.33,-55.56 219.5,-62.51"/>
</a>
</g>
</g>
</g>
</svg>
