<?xml version="1.0" encoding="UTF-8" standalone="no"?>
<!DOCTYPE svg PUBLIC "-//W3C//DTD SVG 1.1//EN"
 "http://www.w3.org/Graphics/SVG/1.1/DTD/svg11.dtd">
<!-- Generated by graphviz version 14.1.4 (0)
 -->
<!-- Title: Exchange Pages: 1 -->
<svg width="255pt" height="29pt"
 viewBox="0.00 0.00 255.00 29.00" xmlns="http://www.w3.org/2000/svg" xmlns:xlink="http://www.w3.org/1999/xlink">
<g id="graph0" class="graph" transform="scale(1 1) rotate(0) translate(4 24.75)">
<title>Exchange</title>
<!-- Node1 -->
<g id="Node000001" class="node">
<title>Node1</title>
<g id="a_Node000001"><a xlink:title=" ">
<polygon fill="#999999" stroke="#666666" points="63.25,-20.75 0,-20.75 0,0 63.25,0 63.25,-20.75"/>
<text xml:space="preserve" text-anchor="middle" x="31.62" y="-7.25" font-family="Helvetica,sans-Serif" font-size="10.00">Exchange</text>
</a>
</g>
</g>
<!-- Node2 -->
<g id="Node000002" class="node">
<title>Node2</title>
<g id="a_Node000002"><a xlink:href="$UnrealTemplate_8h.html#abb4a9e8d680cedab2730e1925906f1d2" xlink:title=" ">
<polygon fill="white" stroke="#666666" points="141.5,-20.75 99.25,-20.75 99.25,0 141.5,0 141.5,-20.75"/>
<text xml:space="preserve" text-anchor="middle" x="120.38" y="-7.25" font-family="Helvetica,sans-Serif" font-size="10.00">Swap</text>
</a>
</g>
</g>
<!-- Node1&#45;&gt;Node2 -->
<g id="edge1_Node000001_Node000002" class="edge">
<title>Node1&#45;&gt;Node2</title>
<g id="a_edge1_Node000001_Node000002"><a xlink:title=" ">
<path fill="none" stroke="#63b8ff" d="M63.45,-10.38C71.28,-10.38 79.7,-10.38 87.58,-10.38"/>
<polygon fill="#63b8ff" stroke="#63b8ff" points="87.44,-13.88 97.44,-10.38 87.44,-6.88 87.44,-13.88"/>
</a>
</g>
</g>
<!-- Node3 -->
<g id="Node000003" class="node">
<title>Node3</title>
<g id="a_Node000003"><a xlink:href="$UnrealTemplate_8h.html#a6affb55ac4c80f005e72b931da3d3a55" xlink:title=" ">
<polygon fill="white" stroke="#666666" points="246.75,-20.75 177.5,-20.75 177.5,0 246.75,0 246.75,-20.75"/>
<text xml:space="preserve" text-anchor="middle" x="212.12" y="-7.25" font-family="Helvetica,sans-Serif" font-size="10.00">MoveTemp</text>
</a>
</g>
</g>
<!-- Node2&#45;&gt;Node3 -->
<g id="edge2_Node000002_Node000003" class="edge">
<title>Node2&#45;&gt;Node3</title>
<g id="a_edge2_Node000002_Node000003"><a xlink:title=" ">
<path fill="none" stroke="#63b8ff" d="M141.74,-10.38C148.92,-10.38 157.31,-10.38 165.73,-10.38"/>
<polygon fill="#63b8ff" stroke="#63b8ff" points="165.59,-13.88 175.59,-10.38 165.59,-6.88 165.59,-13.88"/>
</a>
</g>
</g>
</g>
</svg>
