<?xml version="1.0" encoding="UTF-8" standalone="no"?>
<!DOCTYPE svg PUBLIC "-//W3C//DTD SVG 1.1//EN"
 "http://www.w3.org/Graphics/SVG/1.1/DTD/svg11.dtd">
<!-- Generated by graphviz version 14.1.4 (0)
 -->
<!-- Title: VectorLoadAligned Pages: 1 -->
<svg width="397pt" height="29pt"
 viewBox="0.00 0.00 397.00 29.00" xmlns="http://www.w3.org/2000/svg" xmlns:xlink="http://www.w3.org/1999/xlink">
<g id="graph0" class="graph" transform="scale(1 1) rotate(0) translate(4 24.75)">
<title>VectorLoadAligned</title>
<!-- Node1 -->
<g id="Node000001" class="node">
<title>Node1</title>
<g id="a_Node000001"><a xlink:title=" ">
<polygon fill="#999999" stroke="#666666" points="107.5,-20.75 0,-20.75 0,0 107.5,0 107.5,-20.75"/>
<text xml:space="preserve" text-anchor="middle" x="53.75" y="-7.25" font-family="Helvetica,sans-Serif" font-size="10.00">VectorLoadAligned</text>
</a>
</g>
</g>
<!-- Node2 -->
<g id="Node000002" class="node">
<title>Node2</title>
<g id="a_Node000002"><a xlink:href="$UnrealMathFPU_8h.html#a7b647256a2fdfa30b641b9fc152408d0" xlink:title=" ">
<polygon fill="white" stroke="#666666" points="214.25,-20.75 143.5,-20.75 143.5,0 214.25,0 214.25,-20.75"/>
<text xml:space="preserve" text-anchor="middle" x="178.88" y="-7.25" font-family="Helvetica,sans-Serif" font-size="10.00">VectorLoad</text>
</a>
</g>
</g>
<!-- Node1&#45;&gt;Node2 -->
<g id="edge1_Node000001_Node000002" class="edge">
<title>Node1&#45;&gt;Node2</title>
<g id="a_edge1_Node000001_Node000002"><a xlink:title=" ">
<path fill="none" stroke="#63b8ff" d="M107.68,-10.38C115.64,-10.38 123.81,-10.38 131.61,-10.38"/>
<polygon fill="#63b8ff" stroke="#63b8ff" points="131.61,-13.88 141.61,-10.38 131.61,-6.88 131.61,-13.88"/>
</a>
</g>
</g>
<!-- Node3 -->
<g id="Node000003" class="node">
<title>Node3</title>
<g id="a_Node000003"><a xlink:href="$UnrealMathFPU_8h.html#a0455131f2d8e67175bd5edfbd9f5acc9" xlink:title=" ">
<polygon fill="white" stroke="#666666" points="389.25,-20.75 250.25,-20.75 250.25,0 389.25,0 389.25,-20.75"/>
<text xml:space="preserve" text-anchor="middle" x="319.75" y="-7.25" font-family="Helvetica,sans-Serif" font-size="10.00">MakeVectorRegisterFloat</text>
</a>
</g>
</g>
<!-- Node2&#45;&gt;Node3 -->
<g id="edge2_Node000002_Node000003" class="edge">
<title>Node2&#45;&gt;Node3</title>
<g id="a_edge2_Node000002_Node000003"><a xlink:title=" ">
<path fill="none" stroke="#63b8ff" d="M214.56,-10.38C221.96,-10.38 230.07,-10.38 238.4,-10.38"/>
<polygon fill="#63b8ff" stroke="#63b8ff" points="238.33,-13.88 248.33,-10.38 238.32,-6.88 238.33,-13.88"/>
</a>
</g>
</g>
</g>
</svg>
