<?xml version="1.0" encoding="UTF-8" standalone="no"?>
<!DOCTYPE svg PUBLIC "-//W3C//DTD SVG 1.1//EN"
 "http://www.w3.org/Graphics/SVG/1.1/DTD/svg11.dtd">
<!-- Generated by graphviz version 14.1.4 (0)
 -->
<!-- Title: VectorReciprocalLen Pages: 1 -->
<svg width="496pt" height="107pt"
 viewBox="0.00 0.00 496.00 107.00" xmlns="http://www.w3.org/2000/svg" xmlns:xlink="http://www.w3.org/1999/xlink">
<g id="graph0" class="graph" transform="scale(1 1) rotate(0) translate(4 102.75)">
<title>VectorReciprocalLen</title>
<!-- Node1 -->
<g id="Node000001" class="node">
<title>Node1</title>
<g id="a_Node000001"><a xlink:title=" ">
<polygon fill="#999999" stroke="#666666" points="488.25,-59.75 372.5,-59.75 372.5,-39 488.25,-39 488.25,-59.75"/>
<text xml:space="preserve" text-anchor="middle" x="430.38" y="-46.25" font-family="Helvetica,sans-Serif" font-size="10.00">VectorReciprocalLen</text>
</a>
</g>
</g>
<!-- Node2 -->
<g id="Node000002" class="node">
<title>Node2</title>
<g id="a_Node000002"><a xlink:href="$UnrealMathVectorCommon_8h_8inl.html#a7fad627de4b251a08158acb9397f0f36" xlink:title=" ">
<polygon fill="white" stroke="#666666" points="305.75,-98.75 208,-98.75 208,-78 305.75,-78 305.75,-98.75"/>
<text xml:space="preserve" text-anchor="middle" x="256.88" y="-85.25" font-family="Helvetica,sans-Serif" font-size="10.00">VectorNormalize</text>
</a>
</g>
</g>
<!-- Node1&#45;&gt;Node2 -->
<g id="edge1_Node000001_Node000002" class="edge">
<title>Node1&#45;&gt;Node2</title>
<g id="a_edge1_Node000001_Node000002"><a xlink:title=" ">
<path fill="none" stroke="#63b8ff" d="M370.47,-62.77C349.33,-67.58 325.77,-72.93 305.69,-77.5"/>
<polygon fill="#63b8ff" stroke="#63b8ff" points="371.15,-66.2 380.13,-60.57 369.6,-59.38 371.15,-66.2"/>
</a>
</g>
</g>
<!-- Node4 -->
<g id="Node000004" class="node">
<title>Node4</title>
<g id="a_Node000004"><a xlink:href="$UnrealMathFPU_8h.html#aea160acc92f9646c593ec7e2d6a213a8" xlink:title=" ">
<polygon fill="white" stroke="#666666" points="336.5,-59.75 177.25,-59.75 177.25,-39 336.5,-39 336.5,-59.75"/>
<text xml:space="preserve" text-anchor="middle" x="256.88" y="-46.25" font-family="Helvetica,sans-Serif" font-size="10.00">VectorReciprocalLenEstimate</text>
</a>
</g>
</g>
<!-- Node1&#45;&gt;Node4 -->
<g id="edge3_Node000001_Node000004" class="edge">
<title>Node1&#45;&gt;Node4</title>
<g id="a_edge3_Node000001_Node000004"><a xlink:title=" ">
<path fill="none" stroke="#63b8ff" d="M360.83,-49.38C352.9,-49.38 344.77,-49.38 336.72,-49.38"/>
<polygon fill="#63b8ff" stroke="#63b8ff" points="360.75,-52.88 370.75,-49.38 360.75,-45.88 360.75,-52.88"/>
</a>
</g>
</g>
<!-- Node5 -->
<g id="Node000005" class="node">
<title>Node5</title>
<g id="a_Node000005"><a xlink:href="$UnrealMathFPU_8h.html#af4ab595f585f024f2c5eefa4630a63e5" xlink:title=" ">
<polygon fill="white" stroke="#666666" points="336.5,-20.75 177.25,-20.75 177.25,0 336.5,0 336.5,-20.75"/>
<text xml:space="preserve" text-anchor="middle" x="256.88" y="-7.25" font-family="Helvetica,sans-Serif" font-size="10.00">VectorReciprocalLenEstimate</text>
</a>
</g>
</g>
<!-- Node1&#45;&gt;Node5 -->
<g id="edge4_Node000001_Node000005" class="edge">
<title>Node1&#45;&gt;Node5</title>
<g id="a_edge4_Node000001_Node000005"><a xlink:title=" ">
<path fill="none" stroke="#63b8ff" d="M370.47,-35.98C349.33,-31.17 325.77,-25.82 305.69,-21.25"/>
<polygon fill="#63b8ff" stroke="#63b8ff" points="369.6,-39.37 380.13,-38.18 371.15,-32.55 369.6,-39.37"/>
</a>
</g>
</g>
<!-- Node3 -->
<g id="Node000003" class="node">
<title>Node3</title>
<g id="a_Node000003"><a xlink:href="$UnrealMathVectorCommon_8h_8inl.html#a6c5fac81ed8231fa106d6bf17b9b6c30" xlink:title=" ">
<polygon fill="white" stroke="#666666" points="140.88,-98.75 0.38,-98.75 0.38,-78 140.88,-78 140.88,-98.75"/>
<text xml:space="preserve" text-anchor="middle" x="70.62" y="-85.25" font-family="Helvetica,sans-Serif" font-size="10.00">VectorNormalizeAccurate</text>
</a>
</g>
</g>
<!-- Node2&#45;&gt;Node3 -->
<g id="edge2_Node000002_Node000003" class="edge">
<title>Node2&#45;&gt;Node3</title>
<g id="a_edge2_Node000002_Node000003"><a xlink:title=" ">
<path fill="none" stroke="#63b8ff" d="M196.64,-88.38C178.97,-88.38 159.44,-88.38 141.17,-88.38"/>
<polygon fill="#63b8ff" stroke="#63b8ff" points="196.43,-91.88 206.43,-88.38 196.43,-84.88 196.43,-91.88"/>
</a>
</g>
</g>
<!-- Node6 -->
<g id="Node000006" class="node">
<title>Node6</title>
<g id="a_Node000006"><a xlink:href="$UnrealMathVectorCommon_8h_8inl.html#ae86485225fc1d46e33b5c1016d37fdbb" xlink:title=" ">
<polygon fill="white" stroke="#666666" points="141.25,-20.75 0,-20.75 0,0 141.25,0 141.25,-20.75"/>
<text xml:space="preserve" text-anchor="middle" x="70.62" y="-7.25" font-family="Helvetica,sans-Serif" font-size="10.00">VectorNormalizeEstimate</text>
</a>
</g>
</g>
<!-- Node5&#45;&gt;Node6 -->
<g id="edge5_Node000005_Node000006" class="edge">
<title>Node5&#45;&gt;Node6</title>
<g id="a_edge5_Node000005_Node000006"><a xlink:title=" ">
<path fill="none" stroke="#63b8ff" d="M165.61,-10.38C157.57,-10.38 149.51,-10.38 141.68,-10.38"/>
<polygon fill="#63b8ff" stroke="#63b8ff" points="165.42,-13.88 175.42,-10.38 165.42,-6.88 165.42,-13.88"/>
</a>
</g>
</g>
</g>
</svg>
