<?xml version="1.0" encoding="UTF-8" standalone="no"?>
<!DOCTYPE svg PUBLIC "-//W3C//DTD SVG 1.1//EN"
 "http://www.w3.org/Graphics/SVG/1.1/DTD/svg11.dtd">
<!-- Generated by graphviz version 14.1.4 (0)
 -->
<!-- Title: /opt/unreal&#45;engine/Engine/Source/Runtime/Engine/Classes/VectorField/VectorFieldAnimated.h Pages: 1 -->
<svg width="518pt" height="181pt"
 viewBox="0.00 0.00 518.00 181.00" xmlns="http://www.w3.org/2000/svg" xmlns:xlink="http://www.w3.org/1999/xlink">
<g id="graph0" class="graph" transform="scale(1 1) rotate(0) translate(4 176.5)">
<title>/opt/unreal&#45;engine/Engine/Source/Runtime/Engine/Classes/VectorField/VectorFieldAnimated.h</title>
<!-- Node1 -->
<g id="Node000001" class="node">
<title>Node1</title>
<g id="a_Node000001"><a xlink:title=" ">
<polygon fill="#999999" stroke="#666666" points="272.38,-172.5 122.88,-172.5 122.88,-113.5 272.38,-113.5 272.38,-172.5"/>
<text xml:space="preserve" text-anchor="start" x="130.88" y="-159" font-family="Helvetica,sans-Serif" font-size="10.00">/opt/unreal&#45;engine</text>
<text xml:space="preserve" text-anchor="start" x="130.88" y="-146.25" font-family="Helvetica,sans-Serif" font-size="10.00">/Engine/Source/Runtime</text>
<text xml:space="preserve" text-anchor="start" x="130.88" y="-133.5" font-family="Helvetica,sans-Serif" font-size="10.00">/Engine/Classes/VectorField</text>
<text xml:space="preserve" text-anchor="middle" x="197.62" y="-120.75" font-family="Helvetica,sans-Serif" font-size="10.00">/VectorFieldAnimated.h</text>
</a>
</g>
</g>
<!-- Node2 -->
<g id="Node000002" class="node">
<title>Node2</title>
<g id="a_Node000002"><a xlink:title=" ">
<polygon fill="#e0e0e0" stroke="#999999" points="87.25,-20.75 0,-20.75 0,0 87.25,0 87.25,-20.75"/>
<text xml:space="preserve" text-anchor="middle" x="43.62" y="-7.25" font-family="Helvetica,sans-Serif" font-size="10.00">CoreMinimal.h</text>
</a>
</g>
</g>
<!-- Node1&#45;&gt;Node2 -->
<g id="edge1_Node000001_Node000002" class="edge">
<title>Node1&#45;&gt;Node2</title>
<g id="a_edge1_Node000001_Node000002"><a xlink:title=" ">
<path fill="none" stroke="#63b8ff" d="M163.45,-113.01C132.96,-87.15 89.34,-50.15 64.01,-28.66"/>
<polygon fill="#63b8ff" stroke="#63b8ff" points="66.3,-26.02 56.41,-22.22 61.77,-31.36 66.3,-26.02"/>
</a>
</g>
</g>
<!-- Node3 -->
<g id="Node000003" class="node">
<title>Node3</title>
<g id="a_Node000003"><a xlink:title=" ">
<polygon fill="#e0e0e0" stroke="#999999" points="239.5,-20.75 105.75,-20.75 105.75,0 239.5,0 239.5,-20.75"/>
<text xml:space="preserve" text-anchor="middle" x="172.62" y="-7.25" font-family="Helvetica,sans-Serif" font-size="10.00">UObject/ObjectMacros.h</text>
</a>
</g>
</g>
<!-- Node1&#45;&gt;Node3 -->
<g id="edge2_Node000001_Node000003" class="edge">
<title>Node1&#45;&gt;Node3</title>
<g id="a_edge2_Node000001_Node000003"><a xlink:title=" ">
<path fill="none" stroke="#63b8ff" d="M181.46,-113.03C176.29,-102.22 171.23,-89.62 168.62,-77.5 165.41,-62.5 166.63,-45.18 168.54,-32.03"/>
<polygon fill="#63b8ff" stroke="#63b8ff" points="171.95,-32.85 170.2,-22.4 165.05,-31.66 171.95,-32.85"/>
</a>
</g>
</g>
<!-- Node4 -->
<g id="Node000004" class="node">
<title>Node4</title>
<g id="a_Node000004"><a xlink:href="VectorField_8h.html" target="_top" xlink:title=" ">
<polygon fill="white" stroke="#666666" points="313.62,-77.5 177.62,-77.5 177.62,-56.75 313.62,-56.75 313.62,-77.5"/>
<text xml:space="preserve" text-anchor="middle" x="245.62" y="-64" font-family="Helvetica,sans-Serif" font-size="10.00">VectorField/VectorField.h</text>
</a>
</g>
</g>
<!-- Node1&#45;&gt;Node4 -->
<g id="edge3_Node000001_Node000004" class="edge">
<title>Node1&#45;&gt;Node4</title>
<g id="a_edge3_Node000001_Node000004"><a xlink:title=" ">
<path fill="none" stroke="#63b8ff" d="M216.32,-113.23C221.96,-104.55 228.01,-95.24 233.14,-87.35"/>
<polygon fill="#63b8ff" stroke="#63b8ff" points="235.9,-89.52 238.41,-79.23 230.03,-85.7 235.9,-89.52"/>
</a>
</g>
</g>
<!-- Node7 -->
<g id="Node000007" class="node">
<title>Node7</title>
<g id="a_Node000007"><a xlink:title=" ">
<polygon fill="#e0e0e0" stroke="#999999" points="510,-77.5 331.25,-77.5 331.25,-56.75 510,-56.75 510,-77.5"/>
<text xml:space="preserve" text-anchor="middle" x="420.62" y="-64" font-family="Helvetica,sans-Serif" font-size="10.00">VectorFieldAnimated.generated.h</text>
</a>
</g>
</g>
<!-- Node1&#45;&gt;Node7 -->
<g id="edge8_Node000001_Node000007" class="edge">
<title>Node1&#45;&gt;Node7</title>
<g id="a_edge8_Node000001_Node000007"><a xlink:title=" ">
<path fill="none" stroke="#63b8ff" d="M272.81,-117.09C308.69,-105.21 350.2,-91.46 380.08,-81.56"/>
<polygon fill="#63b8ff" stroke="#63b8ff" points="381.1,-84.91 389.49,-78.44 378.9,-78.26 381.1,-84.91"/>
</a>
</g>
</g>
<!-- Node4&#45;&gt;Node2 -->
<g id="edge4_Node000004_Node000002" class="edge">
<title>Node4&#45;&gt;Node2</title>
<g id="a_edge4_Node000004_Node000002"><a xlink:title=" ">
<path fill="none" stroke="#63b8ff" d="M209.51,-56.34C176.29,-47.33 126.84,-33.93 90.57,-24.1"/>
<polygon fill="#63b8ff" stroke="#63b8ff" points="91.79,-20.8 81.23,-21.57 89.96,-27.56 91.79,-20.8"/>
</a>
</g>
</g>
<!-- Node4&#45;&gt;Node3 -->
<g id="edge5_Node000004_Node000003" class="edge">
<title>Node4&#45;&gt;Node3</title>
<g id="a_edge5_Node000004_Node000003"><a xlink:title=" ">
<path fill="none" stroke="#63b8ff" d="M232.57,-56.34C221.99,-48.4 206.83,-37.03 194.41,-27.71"/>
<polygon fill="#63b8ff" stroke="#63b8ff" points="196.87,-25.19 186.77,-21.99 192.67,-30.79 196.87,-25.19"/>
</a>
</g>
</g>
<!-- Node5 -->
<g id="Node000005" class="node">
<title>Node5</title>
<g id="a_Node000005"><a xlink:title=" ">
<polygon fill="#e0e0e0" stroke="#999999" points="355.88,-20.75 257.38,-20.75 257.38,0 355.88,0 355.88,-20.75"/>
<text xml:space="preserve" text-anchor="middle" x="306.62" y="-7.25" font-family="Helvetica,sans-Serif" font-size="10.00">UObject/Object.h</text>
</a>
</g>
</g>
<!-- Node4&#45;&gt;Node5 -->
<g id="edge6_Node000004_Node000005" class="edge">
<title>Node4&#45;&gt;Node5</title>
<g id="a_edge6_Node000004_Node000005"><a xlink:title=" ">
<path fill="none" stroke="#63b8ff" d="M256.53,-56.34C265.12,-48.63 277.3,-37.7 287.5,-28.54"/>
<polygon fill="#63b8ff" stroke="#63b8ff" points="289.58,-31.37 294.69,-22.09 284.91,-26.16 289.58,-31.37"/>
</a>
</g>
</g>
<!-- Node6 -->
<g id="Node000006" class="node">
<title>Node6</title>
<g id="a_Node000006"><a xlink:title=" ">
<polygon fill="#e0e0e0" stroke="#999999" points="505.38,-20.75 373.88,-20.75 373.88,0 505.38,0 505.38,-20.75"/>
<text xml:space="preserve" text-anchor="middle" x="439.62" y="-7.25" font-family="Helvetica,sans-Serif" font-size="10.00">VectorField.generated.h</text>
</a>
</g>
</g>
<!-- Node4&#45;&gt;Node6 -->
<g id="edge7_Node000004_Node000006" class="edge">
<title>Node4&#45;&gt;Node6</title>
<g id="a_edge7_Node000004_Node000006"><a xlink:title=" ">
<path fill="none" stroke="#63b8ff" d="M280.31,-56.34C312.07,-47.37 359.3,-34.04 394.09,-24.23"/>
<polygon fill="#63b8ff" stroke="#63b8ff" points="394.79,-27.67 403.46,-21.58 392.88,-20.93 394.79,-27.67"/>
</a>
</g>
</g>
</g>
</svg>
