<?xml version="1.0" encoding="UTF-8" standalone="no"?>
<!DOCTYPE svg PUBLIC "-//W3C//DTD SVG 1.1//EN"
 "http://www.w3.org/Graphics/SVG/1.1/DTD/svg11.dtd">
<!-- Generated by graphviz version 14.1.4 (0)
 -->
<!-- Title: /opt/unreal&#45;engine/Engine/Source/Runtime/Engine/Classes/Engine/ViewportStatsSubsystem.h Pages: 1 -->
<!--zoomable 237 -->

<svg id="main" version="1.1" xmlns="http://www.w3.org/2000/svg" xmlns:xlink="http://www.w3.org/1999/xlink" xml:space="preserve" onload="init(evt)">

<style type="text/css"><![CDATA[
.node, .edge {opacity: 0.7;}
.node.selected, .edge.selected {opacity: 1;}
.edge:hover path { stroke: red; }
.edge:hover polygon { stroke: red; fill: red; }
]]></style>

<defs>
  <circle id="rim" cx="0" cy="0" r="7"/>
  <circle id="rim2" cx="0" cy="0" r="3.5"/>
  <g id="zoomPlus">
    <use xlink:href="#rim" fill="#404040"><set attributeName="fill" to="#808080" begin="zoomplus.mouseover" end="zoomplus.mouseout"/></use>
    <path d="M-4,0h8M0,-4v8" fill="none" stroke="white" stroke-width="1.5" pointer-events="none"/>
  </g>
  <g id="zoomMin">
    <use xlink:href="#rim" fill="#404040"><set attributeName="fill" to="#808080" begin="zoomminus.mouseover" end="zoomminus.mouseout"/></use>
    <path d="M-4,0h8" fill="none" stroke="white" stroke-width="1.5" pointer-events="none"/>
  </g>
  <g id="arrowUp" transform="translate(30 24)">
    <use xlink:href="#rim"/>
    <path pointer-events="none" fill="none" stroke="white" stroke-width="1.5" d="M0,-3.0v7 M-2.5,-0.5L0,-3.0L2.5,-0.5"/>
  </g>
  <g id="arrowRight" transform="rotate(90) translate(36 -43)">
    <use xlink:href="#rim"/>
    <path pointer-events="none" fill="none" stroke="white" stroke-width="1.5" d="M0,-3.0v7 M-2.5,-0.5L0,-3.0L2.5,-0.5"/>
  </g>
  <g id="arrowDown" transform="rotate(180) translate(-30 -48)">
    <use xlink:href="#rim"/>
    <path pointer-events="none" fill="none" stroke="white" stroke-width="1.5" d="M0,-3.0v7 M-2.5,-0.5L0,-3.0L2.5,-0.5"/>
  </g>
  <g id="arrowLeft" transform="rotate(270) translate(-36 17)">
    <use xlink:href="#rim"/>
    <path pointer-events="none" fill="none" stroke="white" stroke-width="1.5" d="M0,-3.0v7 M-2.5,-0.5L0,-3.0L2.5,-0.5"/>
  </g>
  <g id="resetDef">
    <use xlink:href="#rim2" fill="#404040"><set attributeName="fill" to="#808080" begin="reset.mouseover" end="reset.mouseout"/></use>
  </g>
</defs>
<script type="application/ecmascript">
var viewWidth = 1003;
var viewHeight = 237;
var sectionId = 'dynsection-0';
</script>
<script type="application/ecmascript" xlink:href="svg.min.js"/>
<svg id="graph" class="graph">
<g id="viewport">
<title>/opt/unreal&#45;engine/Engine/Source/Runtime/Engine/Classes/Engine/ViewportStatsSubsystem.h</title>
<!-- Node1 -->
<g id="Node000001" class="node">
<title>Node1</title>
<g id="a_Node000001"><a xlink:title=" ">
<polygon fill="#999999" stroke="#666666" points="386,-229.25 235.75,-229.25 235.75,-170.25 386,-170.25 386,-229.25"/>
<text xml:space="preserve" text-anchor="start" x="243.75" y="-215.75" font-family="Helvetica,sans-Serif" font-size="10.00">/opt/unreal&#45;engine</text>
<text xml:space="preserve" text-anchor="start" x="243.75" y="-203" font-family="Helvetica,sans-Serif" font-size="10.00">/Engine/Source/Runtime</text>
<text xml:space="preserve" text-anchor="start" x="243.75" y="-190.25" font-family="Helvetica,sans-Serif" font-size="10.00">/Engine/Classes/Engine</text>
<text xml:space="preserve" text-anchor="middle" x="310.88" y="-177.5" font-family="Helvetica,sans-Serif" font-size="10.00">/ViewportStatsSubsystem.h</text>
</a>
</g>
</g>
<!-- Node2 -->
<g id="Node000002" class="node">
<title>Node2</title>
<g id="a_Node000002"><a xlink:title=" ">
<polygon fill="#e0e0e0" stroke="#999999" points="169.75,-134.25 0,-134.25 0,-113.5 169.75,-113.5 169.75,-134.25"/>
<text xml:space="preserve" text-anchor="middle" x="84.88" y="-120.75" font-family="Helvetica,sans-Serif" font-size="10.00">Subsystems/WorldSubsystem.h</text>
</a>
</g>
</g>
<!-- Node1&#45;&gt;Node2 -->
<g id="edge1_Node000001_Node000002" class="edge">
<title>Node1&#45;&gt;Node2</title>
<g id="a_edge1_Node000001_Node000002"><a xlink:title=" ">
<path fill="none" stroke="#63b8ff" d="M235.31,-174.05C198.62,-162.06 156,-148.12 125.51,-138.16"/>
<polygon fill="#63b8ff" stroke="#63b8ff" points="126.89,-134.93 116.3,-135.15 124.72,-141.58 126.89,-134.93"/>
</a>
</g>
</g>
<!-- Node3 -->
<g id="Node000003" class="node">
<title>Node3</title>
<g id="a_Node000003"><a xlink:title=" ">
<polygon fill="#e0e0e0" stroke="#999999" points="253.62,-134.25 188.12,-134.25 188.12,-113.5 253.62,-113.5 253.62,-134.25"/>
<text xml:space="preserve" text-anchor="middle" x="220.88" y="-120.75" font-family="Helvetica,sans-Serif" font-size="10.00">Tickable.h</text>
</a>
</g>
</g>
<!-- Node1&#45;&gt;Node3 -->
<g id="edge2_Node000001_Node000003" class="edge">
<title>Node1&#45;&gt;Node3</title>
<g id="a_edge2_Node000001_Node000003"><a xlink:title=" ">
<path fill="none" stroke="#63b8ff" d="M275.56,-169.76C264.07,-160.33 251.69,-150.17 241.62,-141.9"/>
<polygon fill="#63b8ff" stroke="#63b8ff" points="243.9,-139.25 233.95,-135.61 239.46,-144.66 243.9,-139.25"/>
</a>
</g>
</g>
<!-- Node4 -->
<g id="Node000004" class="node">
<title>Node4</title>
<g id="a_Node000004"><a xlink:title=" ">
<polygon fill="#e0e0e0" stroke="#999999" points="349.62,-134.25 272.12,-134.25 272.12,-113.5 349.62,-113.5 349.62,-134.25"/>
<text xml:space="preserve" text-anchor="middle" x="310.88" y="-120.75" font-family="Helvetica,sans-Serif" font-size="10.00">Stats/Stats.h</text>
</a>
</g>
</g>
<!-- Node1&#45;&gt;Node4 -->
<g id="edge3_Node000001_Node000004" class="edge">
<title>Node1&#45;&gt;Node4</title>
<g id="a_edge3_Node000001_Node000004"><a xlink:title=" ">
<path fill="none" stroke="#63b8ff" d="M310.88,-169.98C310.88,-161.98 310.88,-153.45 310.88,-145.99"/>
<polygon fill="#63b8ff" stroke="#63b8ff" points="314.38,-146.22 310.88,-136.22 307.38,-146.22 314.38,-146.22"/>
</a>
</g>
</g>
<!-- Node5 -->
<g id="Node000005" class="node">
<title>Node5</title>
<g id="a_Node000005"><a xlink:href="EngineTypes_8h.html" target="_top" xlink:title=" ">
<polygon fill="white" stroke="#666666" points="489.75,-134.25 368,-134.25 368,-113.5 489.75,-113.5 489.75,-134.25"/>
<text xml:space="preserve" text-anchor="middle" x="428.88" y="-120.75" font-family="Helvetica,sans-Serif" font-size="10.00">Engine/EngineTypes.h</text>
</a>
</g>
</g>
<!-- Node1&#45;&gt;Node5 -->
<g id="edge4_Node000001_Node000005" class="edge">
<title>Node1&#45;&gt;Node5</title>
<g id="a_edge4_Node000001_Node000005"><a xlink:title=" ">
<path fill="none" stroke="#63b8ff" d="M357.17,-169.76C373.02,-159.84 390.15,-149.12 403.69,-140.64"/>
<polygon fill="#63b8ff" stroke="#63b8ff" points="405.37,-143.72 411.99,-135.45 401.65,-137.79 405.37,-143.72"/>
</a>
</g>
</g>
<!-- Node18 -->
<g id="Node000018" class="node">
<title>Node18</title>
<g id="a_Node000018"><a xlink:title=" ">
<polygon fill="#e0e0e0" stroke="#999999" points="707.75,-134.25 508,-134.25 508,-113.5 707.75,-113.5 707.75,-134.25"/>
<text xml:space="preserve" text-anchor="middle" x="607.88" y="-120.75" font-family="Helvetica,sans-Serif" font-size="10.00">ViewportStatsSubsystem.generated.h</text>
</a>
</g>
</g>
<!-- Node1&#45;&gt;Node18 -->
<g id="edge19_Node000001_Node000018" class="edge">
<title>Node1&#45;&gt;Node18</title>
<g id="a_edge19_Node000001_Node000018"><a xlink:title=" ">
<path fill="none" stroke="#63b8ff" d="M386.2,-180.01C439.71,-166.7 510.11,-149.19 557.07,-137.51"/>
<polygon fill="#63b8ff" stroke="#63b8ff" points="557.86,-140.92 566.72,-135.11 556.17,-134.13 557.86,-140.92"/>
</a>
</g>
</g>
<!-- Node6 -->
<g id="Node000006" class="node">
<title>Node6</title>
<g id="a_Node000006"><a xlink:title=" ">
<polygon fill="#e0e0e0" stroke="#999999" points="179.25,-77.5 48.5,-77.5 48.5,-56.75 179.25,-56.75 179.25,-77.5"/>
<text xml:space="preserve" text-anchor="middle" x="113.88" y="-64" font-family="Helvetica,sans-Serif" font-size="10.00">Misc/EnumClassFlags.h</text>
</a>
</g>
</g>
<!-- Node5&#45;&gt;Node6 -->
<g id="edge5_Node000005_Node000006" class="edge">
<title>Node5&#45;&gt;Node6</title>
<g id="a_edge5_Node000005_Node000006"><a xlink:title=" ">
<path fill="none" stroke="#63b8ff" d="M372.2,-113.02C318.72,-103.73 238.51,-89.79 181.67,-79.91"/>
<polygon fill="#63b8ff" stroke="#63b8ff" points="182.57,-76.51 172.12,-78.25 181.37,-83.41 182.57,-76.51"/>
</a>
</g>
</g>
<!-- Node7 -->
<g id="Node000007" class="node">
<title>Node7</title>
<g id="a_Node000007"><a xlink:title=" ">
<polygon fill="#e0e0e0" stroke="#999999" points="177.75,-20.75 44,-20.75 44,0 177.75,0 177.75,-20.75"/>
<text xml:space="preserve" text-anchor="middle" x="110.88" y="-7.25" font-family="Helvetica,sans-Serif" font-size="10.00">UObject/ObjectMacros.h</text>
</a>
</g>
</g>
<!-- Node5&#45;&gt;Node7 -->
<g id="edge6_Node000005_Node000007" class="edge">
<title>Node5&#45;&gt;Node7</title>
<g id="a_edge6_Node000005_Node000007"><a xlink:title=" ">
<path fill="none" stroke="#63b8ff" d="M378.11,-113.05C341.37,-105.25 290.82,-93.06 247.88,-77.5 208.42,-63.2 165.16,-41.18 138.02,-26.53"/>
<polygon fill="#63b8ff" stroke="#63b8ff" points="139.89,-23.56 129.44,-21.84 136.54,-29.71 139.89,-23.56"/>
</a>
</g>
</g>
<!-- Node8 -->
<g id="Node000008" class="node">
<title>Node8</title>
<g id="a_Node000008"><a xlink:title=" ">
<polygon fill="#e0e0e0" stroke="#999999" points="294.12,-20.75 195.62,-20.75 195.62,0 294.12,0 294.12,-20.75"/>
<text xml:space="preserve" text-anchor="middle" x="244.88" y="-7.25" font-family="Helvetica,sans-Serif" font-size="10.00">UObject/Object.h</text>
</a>
</g>
</g>
<!-- Node5&#45;&gt;Node8 -->
<g id="edge7_Node000005_Node000008" class="edge">
<title>Node5&#45;&gt;Node8</title>
<g id="a_edge7_Node000005_Node000008"><a xlink:title=" ">
<path fill="none" stroke="#63b8ff" d="M370.5,-113.05C329.39,-105.02 279.09,-92.54 263.88,-77.5 251.92,-65.68 247.37,-46.86 245.69,-32.32"/>
<polygon fill="#63b8ff" stroke="#63b8ff" points="249.19,-32.15 244.96,-22.43 242.21,-32.67 249.19,-32.15"/>
</a>
</g>
</g>
<!-- Node9 -->
<g id="Node000009" class="node">
<title>Node9</title>
<g id="a_Node000009"><a xlink:title=" ">
<polygon fill="#e0e0e0" stroke="#999999" points="548.5,-77.5 455.25,-77.5 455.25,-56.75 548.5,-56.75 548.5,-77.5"/>
<text xml:space="preserve" text-anchor="middle" x="501.88" y="-64" font-family="Helvetica,sans-Serif" font-size="10.00">UObject/Class.h</text>
</a>
</g>
</g>
<!-- Node5&#45;&gt;Node9 -->
<g id="edge8_Node000005_Node000009" class="edge">
<title>Node5&#45;&gt;Node9</title>
<g id="a_edge8_Node000005_Node000009"><a xlink:title=" ">
<path fill="none" stroke="#63b8ff" d="M441.93,-113.09C452.51,-105.15 467.67,-93.78 480.09,-84.46"/>
<polygon fill="#63b8ff" stroke="#63b8ff" points="481.83,-87.54 487.73,-78.74 477.63,-81.94 481.83,-87.54"/>
</a>
</g>
</g>
<!-- Node10 -->
<g id="Node000010" class="node">
<title>Node10</title>
<g id="a_Node000010"><a xlink:title=" ">
<polygon fill="#e0e0e0" stroke="#999999" points="697.62,-77.5 566.12,-77.5 566.12,-56.75 697.62,-56.75 697.62,-77.5"/>
<text xml:space="preserve" text-anchor="middle" x="631.88" y="-64" font-family="Helvetica,sans-Serif" font-size="10.00">Templates/SubclassOf.h</text>
</a>
</g>
</g>
<!-- Node5&#45;&gt;Node10 -->
<g id="edge9_Node000005_Node000010" class="edge">
<title>Node5&#45;&gt;Node10</title>
<g id="a_edge9_Node000005_Node000010"><a xlink:title=" ">
<path fill="none" stroke="#63b8ff" d="M465.17,-113.09C498.55,-104.08 548.25,-90.68 584.7,-80.85"/>
<polygon fill="#63b8ff" stroke="#63b8ff" points="585.35,-84.3 594.09,-78.31 583.53,-77.54 585.35,-84.3"/>
</a>
</g>
</g>
<!-- Node11 -->
<g id="Node000011" class="node">
<title>Node11</title>
<g id="a_Node000011"><a xlink:href="TimerHandle_8h.html" target="_top" xlink:title=" ">
<polygon fill="white" stroke="#666666" points="838.5,-77.5 715.25,-77.5 715.25,-56.75 838.5,-56.75 838.5,-77.5"/>
<text xml:space="preserve" text-anchor="middle" x="776.88" y="-64" font-family="Helvetica,sans-Serif" font-size="10.00">Engine/TimerHandle.h</text>
</a>
</g>
</g>
<!-- Node5&#45;&gt;Node11 -->
<g id="edge10_Node000005_Node000011" class="edge">
<title>Node5&#45;&gt;Node11</title>
<g id="a_edge10_Node000005_Node000011"><a xlink:title=" ">
<path fill="none" stroke="#63b8ff" d="M489.89,-113.28C549.47,-103.9 640.19,-89.63 703.64,-79.65"/>
<polygon fill="#63b8ff" stroke="#63b8ff" points="703.93,-83.14 713.26,-78.13 702.84,-76.23 703.93,-83.14"/>
</a>
</g>
</g>
<!-- Node13 -->
<g id="Node000013" class="node">
<title>Node13</title>
<g id="a_Node000013"><a xlink:href="NaniteAssemblyData_8h.html" target="_top" xlink:title=" ">
<polygon fill="white" stroke="#666666" points="437.12,-77.5 272.62,-77.5 272.62,-56.75 437.12,-56.75 437.12,-77.5"/>
<text xml:space="preserve" text-anchor="middle" x="354.88" y="-64" font-family="Helvetica,sans-Serif" font-size="10.00">Engine/NaniteAssemblyData.h</text>
</a>
</g>
</g>
<!-- Node5&#45;&gt;Node13 -->
<g id="edge12_Node000005_Node000013" class="edge">
<title>Node5&#45;&gt;Node13</title>
<g id="a_edge12_Node000005_Node000013"><a xlink:title=" ">
<path fill="none" stroke="#63b8ff" d="M415.65,-113.09C404.91,-105.15 389.55,-93.78 376.96,-84.46"/>
<polygon fill="#63b8ff" stroke="#63b8ff" points="379.33,-81.86 369.21,-78.73 375.16,-87.49 379.33,-81.86"/>
</a>
</g>
</g>
<!-- Node17 -->
<g id="Node000017" class="node">
<title>Node17</title>
<g id="a_Node000017"><a xlink:title=" ">
<polygon fill="#e0e0e0" stroke="#999999" points="995,-77.5 856.75,-77.5 856.75,-56.75 995,-56.75 995,-77.5"/>
<text xml:space="preserve" text-anchor="middle" x="925.88" y="-64" font-family="Helvetica,sans-Serif" font-size="10.00">EngineTypes.generated.h</text>
</a>
</g>
</g>
<!-- Node5&#45;&gt;Node17 -->
<g id="edge18_Node000005_Node000017" class="edge">
<title>Node5&#45;&gt;Node17</title>
<g id="a_edge18_Node000005_Node000017"><a xlink:title=" ">
<path fill="none" stroke="#63b8ff" d="M489.94,-114.59C492.96,-114.21 495.95,-113.85 498.88,-113.5 650.1,-95.58 691,-94.83 845.25,-77.77"/>
<polygon fill="#63b8ff" stroke="#63b8ff" points="845.5,-81.27 855.06,-76.68 844.73,-74.31 845.5,-81.27"/>
</a>
</g>
</g>
<!-- Node12 -->
<g id="Node000012" class="node">
<title>Node12</title>
<g id="a_Node000012"><a xlink:title=" ">
<polygon fill="#e0e0e0" stroke="#999999" points="916.75,-20.75 777,-20.75 777,0 916.75,0 916.75,-20.75"/>
<text xml:space="preserve" text-anchor="middle" x="846.88" y="-7.25" font-family="Helvetica,sans-Serif" font-size="10.00">TimerHandle.generated.h</text>
</a>
</g>
</g>
<!-- Node11&#45;&gt;Node12 -->
<g id="edge11_Node000011_Node000012" class="edge">
<title>Node11&#45;&gt;Node12</title>
<g id="a_edge11_Node000011_Node000012"><a xlink:title=" ">
<path fill="none" stroke="#63b8ff" d="M789.39,-56.34C799.44,-48.47 813.79,-37.25 825.63,-27.99"/>
<polygon fill="#63b8ff" stroke="#63b8ff" points="827.56,-30.93 833.28,-22.01 823.24,-25.41 827.56,-30.93"/>
</a>
</g>
</g>
<!-- Node13&#45;&gt;Node7 -->
<g id="edge14_Node000013_Node000007" class="edge">
<title>Node13&#45;&gt;Node7</title>
<g id="a_edge14_Node000013_Node000007"><a xlink:title=" ">
<path fill="none" stroke="#63b8ff" d="M310.97,-56.27C270.33,-47.15 209.74,-33.56 165.88,-23.72"/>
<polygon fill="#63b8ff" stroke="#63b8ff" points="166.84,-20.35 156.31,-21.57 165.31,-27.18 166.84,-20.35"/>
</a>
</g>
</g>
<!-- Node13&#45;&gt;Node8 -->
<g id="edge16_Node000013_Node000008" class="edge">
<title>Node13&#45;&gt;Node8</title>
<g id="a_edge16_Node000013_Node000008"><a xlink:title=" ">
<path fill="none" stroke="#63b8ff" d="M335.21,-56.34C318.32,-47.93 293.71,-35.68 274.44,-26.09"/>
<polygon fill="#63b8ff" stroke="#63b8ff" points="276.24,-23.08 265.73,-21.75 273.12,-29.34 276.24,-23.08"/>
</a>
</g>
</g>
<!-- Node14 -->
<g id="Node000014" class="node">
<title>Node14</title>
<g id="a_Node000014"><a xlink:title=" ">
<polygon fill="#e0e0e0" stroke="#999999" points="399.5,-20.75 312.25,-20.75 312.25,0 399.5,0 399.5,-20.75"/>
<text xml:space="preserve" text-anchor="middle" x="355.88" y="-7.25" font-family="Helvetica,sans-Serif" font-size="10.00">CoreMinimal.h</text>
</a>
</g>
</g>
<!-- Node13&#45;&gt;Node14 -->
<g id="edge13_Node000013_Node000014" class="edge">
<title>Node13&#45;&gt;Node14</title>
<g id="a_edge13_Node000013_Node000014"><a xlink:title=" ">
<path fill="none" stroke="#63b8ff" d="M355.05,-56.34C355.17,-49.72 355.34,-40.72 355.49,-32.52"/>
<polygon fill="#63b8ff" stroke="#63b8ff" points="358.99,-32.65 355.67,-22.59 351.99,-32.53 358.99,-32.65"/>
</a>
</g>
</g>
<!-- Node15 -->
<g id="Node000015" class="node">
<title>Node15</title>
<g id="a_Node000015"><a xlink:title=" ">
<polygon fill="#e0e0e0" stroke="#999999" points="560.25,-20.75 417.5,-20.75 417.5,0 560.25,0 560.25,-20.75"/>
<text xml:space="preserve" text-anchor="middle" x="488.88" y="-7.25" font-family="Helvetica,sans-Serif" font-size="10.00">UObject/UObjectGlobals.h</text>
</a>
</g>
</g>
<!-- Node13&#45;&gt;Node15 -->
<g id="edge15_Node000013_Node000015" class="edge">
<title>Node13&#45;&gt;Node15</title>
<g id="a_edge15_Node000013_Node000015"><a xlink:title=" ">
<path fill="none" stroke="#63b8ff" d="M378.83,-56.34C399.89,-47.73 430.78,-35.11 454.48,-25.43"/>
<polygon fill="#63b8ff" stroke="#63b8ff" points="455.79,-28.67 463.72,-21.65 453.14,-22.19 455.79,-28.67"/>
</a>
</g>
</g>
<!-- Node16 -->
<g id="Node000016" class="node">
<title>Node16</title>
<g id="a_Node000016"><a xlink:title=" ">
<polygon fill="#e0e0e0" stroke="#999999" points="759.38,-20.75 578.38,-20.75 578.38,0 759.38,0 759.38,-20.75"/>
<text xml:space="preserve" text-anchor="middle" x="668.88" y="-7.25" font-family="Helvetica,sans-Serif" font-size="10.00">NaniteAssemblyData.generated.h</text>
</a>
</g>
</g>
<!-- Node13&#45;&gt;Node16 -->
<g id="edge17_Node000013_Node000016" class="edge">
<title>Node13&#45;&gt;Node16</title>
<g id="a_edge17_Node000013_Node000016"><a xlink:title=" ">
<path fill="none" stroke="#63b8ff" d="M411.37,-56.27C464.68,-46.98 544.64,-33.04 601.29,-23.16"/>
<polygon fill="#63b8ff" stroke="#63b8ff" points="601.56,-26.67 610.81,-21.5 600.36,-19.77 601.56,-26.67"/>
</a>
</g>
</g>
</g>
</svg>

<g id="navigator" transform="translate(0 0)" fill="#404254">
  <rect fill="#f2f5e9" fill-opacity="0.5" stroke="#606060" stroke-width=".5" x="0" y="0" width="60" height="60"/>
  <use id="zoomplus" xlink:href="#zoomPlus" x="17" y="9" onmousedown="handleZoom(evt,'in')"/>
  <use id="zoomminus" xlink:href="#zoomMin" x="42" y="9" onmousedown="handleZoom(evt,'out')"/>
  <use id="reset" xlink:href="#resetDef" x="30" y="36" onmousedown="handleReset()"/>
   <use id="arrowup" xlink:href="#arrowUp" x="0" y="0" onmousedown="handlePan(0,-1)"/>
  <use id="arrowright" xlink:href="#arrowRight" x="0" y="0" onmousedown="handlePan(1,0)"/>
  <use id="arrowdown" xlink:href="#arrowDown" x="0" y="0" onmousedown="handlePan(0,1)"/>
  <use id="arrowleft" xlink:href="#arrowLeft" x="0" y="0" onmousedown="handlePan(-1,0)"/>
</g>
<svg viewBox="0 0 15 15" width="100%" height="30px" preserveAspectRatio="xMaxYMin meet">
 <g id="arrow_out" transform="scale(0.3 0.3)">
  <a xlink:href="ViewportStatsSubsystem_8h__incl_org.svg" target="_base">
   <rect id="button" ry="5" rx="5" y="6" x="6" height="38" width="38"
        fill="#f2f5e9" fill-opacity="0.5" stroke="#606060" stroke-width="1.0"/>
   <path id="arrow"
     d="M 11.500037,31.436501 C 11.940474,20.09759 22.043105,11.32322 32.158766,21.979434 L 37.068811,17.246167 C 37.068811,17.246167 37.088388,32 37.088388,32 L 22.160133,31.978069 C 22.160133,31.978069 26.997745,27.140456 26.997745,27.140456 C 18.528582,18.264221 13.291696,25.230495 11.500037,31.436501 z"
     style="fill:#404040;"/>
  </a>
 </g>
</svg>

<style type='text/css'>
<![CDATA[
[data-mouse-over-selected='false'] { opacity: 0.7; }
[data-mouse-over-selected='true']  { opacity: 1.0; }
]]>
</style>
<script type="application/ecmascript"><![CDATA[
document.addEventListener('DOMContentLoaded', (event) => {
  highlightEdges();
  highlightAdjacentNodes();
});
]]></script>
</svg>
