<?xml version="1.0" encoding="UTF-8" standalone="no"?>
<!DOCTYPE svg PUBLIC "-//W3C//DTD SVG 1.1//EN"
 "http://www.w3.org/Graphics/SVG/1.1/DTD/svg11.dtd">
<!-- Generated by graphviz version 14.1.4 (0)
 -->
<!-- Title: /opt/unreal&#45;engine/Engine/Source/Runtime/Engine/Classes/VT/VirtualTextureBuilder.h Pages: 1 -->
<svg width="3095pt" height="320pt"
 viewBox="0.00 0.00 3095.00 320.00" xmlns="http://www.w3.org/2000/svg" xmlns:xlink="http://www.w3.org/1999/xlink">
<g id="graph0" class="graph" transform="scale(1 1) rotate(0) translate(4 315.5)">
<title>/opt/unreal&#45;engine/Engine/Source/Runtime/Engine/Classes/VT/VirtualTextureBuilder.h</title>
<!-- Node1 -->
<g id="Node000001" class="node">
<title>Node1</title>
<g id="a_Node000001"><a xlink:title=" ">
<polygon fill="#999999" stroke="#666666" points="2044.48,-311.5 1864.98,-311.5 1864.98,-252.5 2044.48,-252.5 2044.48,-311.5"/>
<text xml:space="preserve" text-anchor="start" x="1872.98" y="-298" font-family="Helvetica,sans-Serif" font-size="10.00">/opt/unreal&#45;engine</text>
<text xml:space="preserve" text-anchor="start" x="1872.98" y="-285.25" font-family="Helvetica,sans-Serif" font-size="10.00">/Engine/Source/Runtime</text>
<text xml:space="preserve" text-anchor="start" x="1872.98" y="-272.5" font-family="Helvetica,sans-Serif" font-size="10.00">/Engine/Classes/VT/VirtualTexture</text>
<text xml:space="preserve" text-anchor="middle" x="1954.73" y="-259.75" font-family="Helvetica,sans-Serif" font-size="10.00">Builder.h</text>
</a>
</g>
</g>
<!-- Node2 -->
<g id="Node000002" class="node">
<title>Node2</title>
<g id="a_Node000002"><a xlink:title=" ">
<polygon fill="#e0e0e0" stroke="#999999" points="101.36,-20.75 14.11,-20.75 14.11,0 101.36,0 101.36,-20.75"/>
<text xml:space="preserve" text-anchor="middle" x="57.73" y="-7.25" font-family="Helvetica,sans-Serif" font-size="10.00">CoreMinimal.h</text>
</a>
</g>
</g>
<!-- Node1&#45;&gt;Node2 -->
<g id="edge1_Node000001_Node000002" class="edge">
<title>Node1&#45;&gt;Node2</title>
<g id="a_edge1_Node000001_Node000002"><a xlink:title=" ">
<path fill="none" stroke="#63b8ff" d="M1864.76,-280.03C1508.56,-275.53 208.81,-252.85 51.73,-159.75 8.91,-134.37 -12.42,-102.27 7.73,-56.75 12.86,-45.17 22.56,-35.29 32.06,-27.73"/>
<polygon fill="#63b8ff" stroke="#63b8ff" points="34.09,-30.58 40.1,-21.86 29.96,-24.93 34.09,-30.58"/>
</a>
</g>
</g>
<!-- Node3 -->
<g id="Node000003" class="node">
<title>Node3</title>
<g id="a_Node000003"><a xlink:href="Texture_8h.html" target="_top" xlink:title=" ">
<polygon fill="white" stroke="#666666" points="2003.23,-216.5 1906.23,-216.5 1906.23,-195.75 2003.23,-195.75 2003.23,-216.5"/>
<text xml:space="preserve" text-anchor="middle" x="1954.73" y="-203" font-family="Helvetica,sans-Serif" font-size="10.00">Engine/Texture.h</text>
</a>
</g>
</g>
<!-- Node1&#45;&gt;Node3 -->
<g id="edge2_Node000001_Node000003" class="edge">
<title>Node1&#45;&gt;Node3</title>
<g id="a_edge2_Node000001_Node000003"><a xlink:title=" ">
<path fill="none" stroke="#63b8ff" d="M1954.73,-252.23C1954.73,-244.23 1954.73,-235.7 1954.73,-228.24"/>
<polygon fill="#63b8ff" stroke="#63b8ff" points="1958.23,-228.47 1954.73,-218.47 1951.23,-228.47 1958.23,-228.47"/>
</a>
</g>
</g>
<!-- Node37 -->
<g id="Node000037" class="node">
<title>Node37</title>
<g id="a_Node000037"><a xlink:title=" ">
<polygon fill="#e0e0e0" stroke="#999999" points="2201.86,-216.5 2021.61,-216.5 2021.61,-195.75 2201.86,-195.75 2201.86,-216.5"/>
<text xml:space="preserve" text-anchor="middle" x="2111.73" y="-203" font-family="Helvetica,sans-Serif" font-size="10.00">VirtualTextureBuilder.generated.h</text>
</a>
</g>
</g>
<!-- Node1&#45;&gt;Node37 -->
<g id="edge52_Node000001_Node000037" class="edge">
<title>Node1&#45;&gt;Node37</title>
<g id="a_edge52_Node000001_Node000037"><a xlink:title=" ">
<path fill="none" stroke="#63b8ff" d="M2016.33,-252.01C2038.35,-241.66 2062.23,-230.42 2080.59,-221.78"/>
<polygon fill="#63b8ff" stroke="#63b8ff" points="2082.04,-224.96 2089.6,-217.54 2079.06,-218.63 2082.04,-224.96"/>
</a>
</g>
</g>
<!-- Node3&#45;&gt;Node2 -->
<g id="edge3_Node000003_Node000002" class="edge">
<title>Node3&#45;&gt;Node2</title>
<g id="a_edge3_Node000003_Node000002"><a xlink:title=" ">
<path fill="none" stroke="#63b8ff" d="M1905.9,-204.85C1672.9,-203.39 672.65,-195.12 362.73,-159.75 207.33,-142.01 116.81,-211.28 17.73,-90.25 2.27,-71.36 21.44,-45.51 38.19,-28.63"/>
<polygon fill="#63b8ff" stroke="#63b8ff" points="40.14,-31.62 44.96,-22.18 35.31,-26.55 40.14,-31.62"/>
</a>
</g>
</g>
<!-- Node4 -->
<g id="Node000004" class="node">
<title>Node4</title>
<g id="a_Node000004"><a xlink:title=" ">
<polygon fill="#e0e0e0" stroke="#999999" points="1212.73,-153.38 1070.73,-153.38 1070.73,-132.62 1212.73,-132.62 1212.73,-153.38"/>
<text xml:space="preserve" text-anchor="middle" x="1141.73" y="-139.88" font-family="Helvetica,sans-Serif" font-size="10.00">Containers/IndirectArray.h</text>
</a>
</g>
</g>
<!-- Node3&#45;&gt;Node4 -->
<g id="edge4_Node000003_Node000004" class="edge">
<title>Node3&#45;&gt;Node4</title>
<g id="a_edge4_Node000003_Node000004"><a xlink:title=" ">
<path fill="none" stroke="#63b8ff" d="M1906.06,-204.34C1788.17,-201.95 1478.12,-192.78 1221.73,-159.75 1213.72,-158.72 1205.31,-157.36 1197.07,-155.88"/>
<polygon fill="#63b8ff" stroke="#63b8ff" points="1197.96,-152.49 1187.48,-154.08 1196.66,-159.37 1197.96,-152.49"/>
</a>
</g>
</g>
<!-- Node5 -->
<g id="Node000005" class="node">
<title>Node5</title>
<g id="a_Node000005"><a xlink:title=" ">
<polygon fill="#e0e0e0" stroke="#999999" points="1893.61,-20.75 1759.86,-20.75 1759.86,0 1893.61,0 1893.61,-20.75"/>
<text xml:space="preserve" text-anchor="middle" x="1826.73" y="-7.25" font-family="Helvetica,sans-Serif" font-size="10.00">UObject/ObjectMacros.h</text>
</a>
</g>
</g>
<!-- Node3&#45;&gt;Node5 -->
<g id="edge5_Node000003_Node000005" class="edge">
<title>Node3&#45;&gt;Node5</title>
<g id="a_edge5_Node000003_Node000005"><a xlink:title=" ">
<path fill="none" stroke="#63b8ff" d="M1948.02,-195.43C1941.71,-186.27 1932,-172.12 1923.73,-159.75 1892.95,-113.69 1857.5,-59.05 1839.17,-30.66"/>
<polygon fill="#63b8ff" stroke="#63b8ff" points="1842.21,-28.92 1833.84,-22.41 1836.32,-32.71 1842.21,-28.92"/>
</a>
</g>
</g>
<!-- Node6 -->
<g id="Node000006" class="node">
<title>Node6</title>
<g id="a_Node000006"><a xlink:title=" ">
<polygon fill="#e0e0e0" stroke="#999999" points="2645.98,-20.75 2547.48,-20.75 2547.48,0 2645.98,0 2645.98,-20.75"/>
<text xml:space="preserve" text-anchor="middle" x="2596.73" y="-7.25" font-family="Helvetica,sans-Serif" font-size="10.00">UObject/Object.h</text>
</a>
</g>
</g>
<!-- Node3&#45;&gt;Node6 -->
<g id="edge6_Node000003_Node000006" class="edge">
<title>Node3&#45;&gt;Node6</title>
<g id="a_edge6_Node000003_Node000006"><a xlink:title=" ">
<path fill="none" stroke="#63b8ff" d="M2003.73,-196.76C2006.77,-196.38 2009.79,-196.04 2012.73,-195.75 2070.83,-190.08 3022.18,-201.72 3062.73,-159.75 3184.06,-34.19 2809.77,-14.61 2657.82,-11.76"/>
<polygon fill="#63b8ff" stroke="#63b8ff" points="2657.98,-8.27 2647.92,-11.6 2657.86,-15.27 2657.98,-8.27"/>
</a>
</g>
</g>
<!-- Node7 -->
<g id="Node000007" class="node">
<title>Node7</title>
<g id="a_Node000007"><a xlink:title=" ">
<polygon fill="#e0e0e0" stroke="#999999" points="1316.23,-20.75 1243.23,-20.75 1243.23,0 1316.23,0 1316.23,-20.75"/>
<text xml:space="preserve" text-anchor="middle" x="1279.73" y="-7.25" font-family="Helvetica,sans-Serif" font-size="10.00">Misc/Guid.h</text>
</a>
</g>
</g>
<!-- Node3&#45;&gt;Node7 -->
<g id="edge7_Node000003_Node000007" class="edge">
<title>Node3&#45;&gt;Node7</title>
<g id="a_edge7_Node000003_Node000007"><a xlink:title=" ">
<path fill="none" stroke="#63b8ff" d="M1942.78,-195.47C1902.24,-162.71 1772.31,-57.79 1769.73,-56.75 1690.43,-24.69 1435.39,-15.02 1328.06,-12.33"/>
<polygon fill="#63b8ff" stroke="#63b8ff" points="1328.22,-8.84 1318.14,-12.09 1328.05,-15.83 1328.22,-8.84"/>
</a>
</g>
</g>
<!-- Node8 -->
<g id="Node000008" class="node">
<title>Node8</title>
<g id="a_Node000008"><a xlink:title=" ">
<polygon fill="#e0e0e0" stroke="#999999" points="2062.48,-83.88 1930.98,-83.88 1930.98,-63.12 2062.48,-63.12 2062.48,-83.88"/>
<text xml:space="preserve" text-anchor="middle" x="1996.73" y="-70.38" font-family="Helvetica,sans-Serif" font-size="10.00">Templates/SubclassOf.h</text>
</a>
</g>
</g>
<!-- Node3&#45;&gt;Node8 -->
<g id="edge8_Node000003_Node000008" class="edge">
<title>Node3&#45;&gt;Node8</title>
<g id="a_edge8_Node000003_Node000008"><a xlink:title=" ">
<path fill="none" stroke="#63b8ff" d="M1947.42,-195.28C1937.02,-179.97 1920.4,-149.76 1931.73,-126.25 1939.07,-111.03 1953.3,-98.9 1966.58,-90.23"/>
<polygon fill="#63b8ff" stroke="#63b8ff" points="1968.39,-93.22 1975.13,-85.05 1964.76,-87.24 1968.39,-93.22"/>
</a>
</g>
</g>
<!-- Node9 -->
<g id="Node000009" class="node">
<title>Node9</title>
<g id="a_Node000009"><a xlink:href="Interface__AssetUserData_8h.html" target="_top" xlink:title=" ">
<polygon fill="white" stroke="#666666" points="2052.36,-159.75 1941.11,-159.75 1941.11,-126.25 2052.36,-126.25 2052.36,-159.75"/>
<text xml:space="preserve" text-anchor="start" x="1949.11" y="-146.25" font-family="Helvetica,sans-Serif" font-size="10.00">Interfaces/Interface</text>
<text xml:space="preserve" text-anchor="middle" x="1996.73" y="-133.5" font-family="Helvetica,sans-Serif" font-size="10.00">_AssetUserData.h</text>
</a>
</g>
</g>
<!-- Node3&#45;&gt;Node9 -->
<g id="edge9_Node000003_Node000009" class="edge">
<title>Node3&#45;&gt;Node9</title>
<g id="a_edge9_Node000003_Node000009"><a xlink:title=" ">
<path fill="none" stroke="#63b8ff" d="M1961.48,-195.3C1966.25,-188.36 1972.87,-178.72 1979.09,-169.67"/>
<polygon fill="#63b8ff" stroke="#63b8ff" points="1981.94,-171.71 1984.72,-161.48 1976.17,-167.74 1981.94,-171.71"/>
</a>
</g>
</g>
<!-- Node15 -->
<g id="Node000015" class="node">
<title>Node15</title>
<g id="a_Node000015"><a xlink:href="Interface__AsyncCompilation_8h.html" target="_top" xlink:title=" ">
<polygon fill="white" stroke="#666666" points="724.11,-159.75 605.36,-159.75 605.36,-126.25 724.11,-126.25 724.11,-159.75"/>
<text xml:space="preserve" text-anchor="start" x="613.36" y="-146.25" font-family="Helvetica,sans-Serif" font-size="10.00">Interfaces/Interface</text>
<text xml:space="preserve" text-anchor="middle" x="664.73" y="-133.5" font-family="Helvetica,sans-Serif" font-size="10.00">_AsyncCompilation.h</text>
</a>
</g>
</g>
<!-- Node3&#45;&gt;Node15 -->
<g id="edge19_Node000003_Node000015" class="edge">
<title>Node3&#45;&gt;Node15</title>
<g id="a_edge19_Node000003_Node000015"><a xlink:title=" ">
<path fill="none" stroke="#63b8ff" d="M1905.74,-202.8C1708.07,-193.44 968.75,-158.41 735.62,-147.36"/>
<polygon fill="#63b8ff" stroke="#63b8ff" points="735.92,-143.87 725.76,-146.89 735.58,-150.86 735.92,-143.87"/>
</a>
</g>
</g>
<!-- Node17 -->
<g id="Node000017" class="node">
<title>Node17</title>
<g id="a_Node000017"><a xlink:title=" ">
<polygon fill="#e0e0e0" stroke="#999999" points="2208.86,-153.38 2070.61,-153.38 2070.61,-132.62 2208.86,-132.62 2208.86,-153.38"/>
<text xml:space="preserve" text-anchor="middle" x="2139.73" y="-139.88" font-family="Helvetica,sans-Serif" font-size="10.00">RenderCommandFence.h</text>
</a>
</g>
</g>
<!-- Node3&#45;&gt;Node17 -->
<g id="edge24_Node000003_Node000017" class="edge">
<title>Node3&#45;&gt;Node17</title>
<g id="a_edge24_Node000003_Node000017"><a xlink:title=" ">
<path fill="none" stroke="#63b8ff" d="M1984.46,-195.3C2015.61,-185.01 2064.75,-168.78 2099.39,-157.33"/>
<polygon fill="#63b8ff" stroke="#63b8ff" points="2100.25,-160.73 2108.65,-154.27 2098.05,-154.09 2100.25,-160.73"/>
</a>
</g>
</g>
<!-- Node18 -->
<g id="Node000018" class="node">
<title>Node18</title>
<g id="a_Node000018"><a xlink:title=" ">
<polygon fill="#e0e0e0" stroke="#999999" points="2356.73,-159.75 2226.73,-159.75 2226.73,-126.25 2356.73,-126.25 2356.73,-159.75"/>
<text xml:space="preserve" text-anchor="start" x="2234.73" y="-146.25" font-family="Helvetica,sans-Serif" font-size="10.00">Serialization/EditorBulk</text>
<text xml:space="preserve" text-anchor="middle" x="2291.73" y="-133.5" font-family="Helvetica,sans-Serif" font-size="10.00">Data.h</text>
</a>
</g>
</g>
<!-- Node3&#45;&gt;Node18 -->
<g id="edge25_Node000003_Node000018" class="edge">
<title>Node3&#45;&gt;Node18</title>
<g id="a_edge25_Node000003_Node000018"><a xlink:title=" ">
<path fill="none" stroke="#63b8ff" d="M2003.73,-196.91C2063.57,-186.83 2162.46,-170.05 2215.24,-160.17"/>
<polygon fill="#63b8ff" stroke="#63b8ff" points="2215.73,-163.64 2224.91,-158.33 2214.43,-156.76 2215.73,-163.64"/>
</a>
</g>
</g>
<!-- Node19 -->
<g id="Node000019" class="node">
<title>Node19</title>
<g id="a_Node000019"><a xlink:href="TextureDefines_8h.html" target="_top" xlink:title=" ">
<polygon fill="white" stroke="#666666" points="171.98,-83.88 37.48,-83.88 37.48,-63.12 171.98,-63.12 171.98,-83.88"/>
<text xml:space="preserve" text-anchor="middle" x="104.73" y="-70.38" font-family="Helvetica,sans-Serif" font-size="10.00">Engine/TextureDefines.h</text>
</a>
</g>
</g>
<!-- Node3&#45;&gt;Node19 -->
<g id="edge26_Node000003_Node000019" class="edge">
<title>Node3&#45;&gt;Node19</title>
<g id="a_edge26_Node000003_Node000019"><a xlink:title=" ">
<path fill="none" stroke="#63b8ff" d="M1905.9,-204.36C1694.66,-200.93 858.45,-185.92 596.73,-159.75 436.88,-143.76 250.63,-106.25 159.98,-86.75"/>
<polygon fill="#63b8ff" stroke="#63b8ff" points="160.87,-83.36 150.36,-84.67 159.39,-90.2 160.87,-83.36"/>
</a>
</g>
</g>
<!-- Node20 -->
<g id="Node000020" class="node">
<title>Node20</title>
<g id="a_Node000020"><a xlink:title=" ">
<polygon fill="#e0e0e0" stroke="#999999" points="2490.61,-153.38 2374.86,-153.38 2374.86,-132.62 2490.61,-132.62 2490.61,-153.38"/>
<text xml:space="preserve" text-anchor="middle" x="2432.73" y="-139.88" font-family="Helvetica,sans-Serif" font-size="10.00">MaterialValueType.h</text>
</a>
</g>
</g>
<!-- Node3&#45;&gt;Node20 -->
<g id="edge29_Node000003_Node000020" class="edge">
<title>Node3&#45;&gt;Node20</title>
<g id="a_edge29_Node000003_Node000020"><a xlink:title=" ">
<path fill="none" stroke="#63b8ff" d="M2003.44,-197.04C2006.58,-196.58 2009.7,-196.15 2012.73,-195.75 2169.09,-175.16 2210.21,-185.85 2365.73,-159.75 2371.63,-158.76 2377.77,-157.56 2383.85,-156.26"/>
<polygon fill="#63b8ff" stroke="#63b8ff" points="2384.17,-159.78 2393.16,-154.18 2382.64,-152.94 2384.17,-159.78"/>
</a>
</g>
</g>
<!-- Node21 -->
<g id="Node000021" class="node">
<title>Node21</title>
<g id="a_Node000021"><a xlink:href="StreamableRenderAsset_8h.html" target="_top" xlink:title=" ">
<polygon fill="white" stroke="#666666" points="1409.11,-153.38 1230.36,-153.38 1230.36,-132.62 1409.11,-132.62 1409.11,-153.38"/>
<text xml:space="preserve" text-anchor="middle" x="1319.73" y="-139.88" font-family="Helvetica,sans-Serif" font-size="10.00">Engine/StreamableRenderAsset.h</text>
</a>
</g>
</g>
<!-- Node3&#45;&gt;Node21 -->
<g id="edge30_Node000003_Node000021" class="edge">
<title>Node3&#45;&gt;Node21</title>
<g id="a_edge30_Node000003_Node000021"><a xlink:title=" ">
<path fill="none" stroke="#63b8ff" d="M1905.96,-200.43C1802.5,-190.47 1559.22,-167.05 1420.77,-153.73"/>
<polygon fill="#63b8ff" stroke="#63b8ff" points="1421.14,-150.25 1410.85,-152.77 1420.47,-157.21 1421.14,-150.25"/>
</a>
</g>
</g>
<!-- Node33 -->
<g id="Node000033" class="node">
<title>Node33</title>
<g id="a_Node000033"><a xlink:title=" ">
<polygon fill="#e0e0e0" stroke="#999999" points="2682.86,-153.38 2508.61,-153.38 2508.61,-132.62 2682.86,-132.62 2682.86,-153.38"/>
<text xml:space="preserve" text-anchor="middle" x="2595.73" y="-139.88" font-family="Helvetica,sans-Serif" font-size="10.00">UObject/PerPlatformProperties.h</text>
</a>
</g>
</g>
<!-- Node3&#45;&gt;Node33 -->
<g id="edge48_Node000003_Node000033" class="edge">
<title>Node3&#45;&gt;Node33</title>
<g id="a_edge48_Node000003_Node000033"><a xlink:title=" ">
<path fill="none" stroke="#63b8ff" d="M2003.43,-196.94C2006.57,-196.51 2009.7,-196.11 2012.73,-195.75 2228.28,-170.41 2284.21,-185.34 2499.73,-159.75 2509.48,-158.59 2519.75,-157.15 2529.81,-155.61"/>
<polygon fill="#63b8ff" stroke="#63b8ff" points="2530.2,-159.09 2539.53,-154.07 2529.11,-152.18 2530.2,-159.09"/>
</a>
</g>
</g>
<!-- Node34 -->
<g id="Node000034" class="node">
<title>Node34</title>
<g id="a_Node000034"><a xlink:title=" ">
<polygon fill="#e0e0e0" stroke="#999999" points="2778.86,-153.38 2700.61,-153.38 2700.61,-132.62 2778.86,-132.62 2778.86,-153.38"/>
<text xml:space="preserve" text-anchor="middle" x="2739.73" y="-139.88" font-family="Helvetica,sans-Serif" font-size="10.00">ImageCore.h</text>
</a>
</g>
</g>
<!-- Node3&#45;&gt;Node34 -->
<g id="edge49_Node000003_Node000034" class="edge">
<title>Node3&#45;&gt;Node34</title>
<g id="a_edge49_Node000003_Node000034"><a xlink:title=" ">
<path fill="none" stroke="#63b8ff" d="M2003.73,-196.83C2006.77,-196.43 2009.79,-196.06 2012.73,-195.75 2313.22,-163.59 2394.69,-215.34 2691.73,-159.75 2695.4,-159.06 2699.17,-158.17 2702.91,-157.16"/>
<polygon fill="#63b8ff" stroke="#63b8ff" points="2703.88,-160.52 2712.45,-154.29 2701.87,-153.82 2703.88,-160.52"/>
</a>
</g>
</g>
<!-- Node35 -->
<g id="Node000035" class="node">
<title>Node35</title>
<g id="a_Node000035"><a xlink:title=" ">
<polygon fill="#e0e0e0" stroke="#999999" points="2922.11,-153.38 2797.36,-153.38 2797.36,-132.62 2922.11,-132.62 2922.11,-153.38"/>
<text xml:space="preserve" text-anchor="middle" x="2859.73" y="-139.88" font-family="Helvetica,sans-Serif" font-size="10.00">Templates/DontCopy.h</text>
</a>
</g>
</g>
<!-- Node3&#45;&gt;Node35 -->
<g id="edge50_Node000003_Node000035" class="edge">
<title>Node3&#45;&gt;Node35</title>
<g id="a_edge50_Node000003_Node000035"><a xlink:title=" ">
<path fill="none" stroke="#63b8ff" d="M2003.73,-196.8C2006.77,-196.41 2009.79,-196.06 2012.73,-195.75 2355.71,-160.18 2445.87,-204.75 2787.73,-159.75 2794.81,-158.82 2802.22,-157.55 2809.49,-156.12"/>
<polygon fill="#63b8ff" stroke="#63b8ff" points="2810.15,-159.56 2819.23,-154.1 2808.73,-152.71 2810.15,-159.56"/>
</a>
</g>
</g>
<!-- Node36 -->
<g id="Node000036" class="node">
<title>Node36</title>
<g id="a_Node000036"><a xlink:title=" ">
<polygon fill="#e0e0e0" stroke="#999999" points="3053.48,-153.38 2939.98,-153.38 2939.98,-132.62 3053.48,-132.62 3053.48,-153.38"/>
<text xml:space="preserve" text-anchor="middle" x="2996.73" y="-139.88" font-family="Helvetica,sans-Serif" font-size="10.00">Texture.generated.h</text>
</a>
</g>
</g>
<!-- Node3&#45;&gt;Node36 -->
<g id="edge51_Node000003_Node000036" class="edge">
<title>Node3&#45;&gt;Node36</title>
<g id="a_edge51_Node000003_Node000036"><a xlink:title=" ">
<path fill="none" stroke="#63b8ff" d="M2003.73,-196.78C2006.77,-196.39 2009.79,-196.04 2012.73,-195.75 2419.02,-155.1 2526.23,-215.4 2930.73,-159.75 2937.09,-158.88 2943.73,-157.66 2950.24,-156.29"/>
<polygon fill="#63b8ff" stroke="#63b8ff" points="2950.54,-159.81 2959.53,-154.2 2949.01,-152.98 2950.54,-159.81"/>
</a>
</g>
</g>
<!-- Node9&#45;&gt;Node5 -->
<g id="edge10_Node000009_Node000005" class="edge">
<title>Node9&#45;&gt;Node5</title>
<g id="a_edge10_Node000009_Node000005"><a xlink:title=" ">
<path fill="none" stroke="#63b8ff" d="M2033.81,-125.96C2048.39,-117.59 2063.57,-105.8 2071.73,-90.25 2078.65,-77.07 2081.26,-68.2 2071.73,-56.75 2050.76,-31.53 1968.66,-20.27 1905.22,-15.28"/>
<polygon fill="#63b8ff" stroke="#63b8ff" points="1905.75,-11.81 1895.52,-14.56 1905.23,-18.79 1905.75,-11.81"/>
</a>
</g>
</g>
<!-- Node9&#45;&gt;Node8 -->
<g id="edge11_Node000009_Node000008" class="edge">
<title>Node9&#45;&gt;Node8</title>
<g id="a_edge11_Node000009_Node000008"><a xlink:title=" ">
<path fill="none" stroke="#63b8ff" d="M1996.73,-126C1996.73,-116.9 1996.73,-105.39 1996.73,-95.57"/>
<polygon fill="#63b8ff" stroke="#63b8ff" points="2000.23,-95.84 1996.73,-85.84 1993.23,-95.84 2000.23,-95.84"/>
</a>
</g>
</g>
<!-- Node10 -->
<g id="Node000010" class="node">
<title>Node10</title>
<g id="a_Node000010"><a xlink:title=" ">
<polygon fill="#e0e0e0" stroke="#999999" points="2224.36,-83.88 2119.11,-83.88 2119.11,-63.12 2224.36,-63.12 2224.36,-83.88"/>
<text xml:space="preserve" text-anchor="middle" x="2171.73" y="-70.38" font-family="Helvetica,sans-Serif" font-size="10.00">Templates/Casts.h</text>
</a>
</g>
</g>
<!-- Node9&#45;&gt;Node10 -->
<g id="edge12_Node000009_Node000010" class="edge">
<title>Node9&#45;&gt;Node10</title>
<g id="a_edge12_Node000009_Node000010"><a xlink:title=" ">
<path fill="none" stroke="#63b8ff" d="M2038.65,-125.83C2068.2,-114.44 2107.37,-99.33 2135.55,-88.46"/>
<polygon fill="#63b8ff" stroke="#63b8ff" points="2136.66,-91.78 2144.73,-84.91 2134.14,-85.25 2136.66,-91.78"/>
</a>
</g>
</g>
<!-- Node11 -->
<g id="Node000011" class="node">
<title>Node11</title>
<g id="a_Node000011"><a xlink:title=" ">
<polygon fill="#e0e0e0" stroke="#999999" points="1376.98,-83.88 1266.48,-83.88 1266.48,-63.12 1376.98,-63.12 1376.98,-83.88"/>
<text xml:space="preserve" text-anchor="middle" x="1321.73" y="-70.38" font-family="Helvetica,sans-Serif" font-size="10.00">UObject/Interface.h</text>
</a>
</g>
</g>
<!-- Node9&#45;&gt;Node11 -->
<g id="edge13_Node000009_Node000011" class="edge">
<title>Node9&#45;&gt;Node11</title>
<g id="a_edge13_Node000009_Node000011"><a xlink:title=" ">
<path fill="none" stroke="#63b8ff" d="M1940.77,-140.19C1832.8,-136.06 1588.47,-123.57 1385.73,-90.25 1380.09,-89.32 1374.21,-88.16 1368.41,-86.88"/>
<polygon fill="#63b8ff" stroke="#63b8ff" points="1369.42,-83.52 1358.88,-84.67 1367.83,-90.34 1369.42,-83.52"/>
</a>
</g>
</g>
<!-- Node12 -->
<g id="Node000012" class="node">
<title>Node12</title>
<g id="a_Node000012"><a xlink:href="AssetUserData_8h.html" target="_top" xlink:title=" ">
<polygon fill="white" stroke="#666666" points="2592.61,-83.88 2458.86,-83.88 2458.86,-63.12 2592.61,-63.12 2592.61,-83.88"/>
<text xml:space="preserve" text-anchor="middle" x="2525.73" y="-70.38" font-family="Helvetica,sans-Serif" font-size="10.00">Engine/AssetUserData.h</text>
</a>
</g>
</g>
<!-- Node9&#45;&gt;Node12 -->
<g id="edge14_Node000009_Node000012" class="edge">
<title>Node9&#45;&gt;Node12</title>
<g id="a_edge14_Node000009_Node000012"><a xlink:title=" ">
<path fill="none" stroke="#63b8ff" d="M2052.65,-127.91C2055.71,-127.3 2058.76,-126.75 2061.73,-126.25 2233,-97.73 2279.05,-116.13 2450.73,-90.25 2457.64,-89.21 2464.87,-87.93 2472,-86.56"/>
<polygon fill="#63b8ff" stroke="#63b8ff" points="2472.45,-90.04 2481.57,-84.64 2471.08,-83.18 2472.45,-90.04"/>
</a>
</g>
</g>
<!-- Node14 -->
<g id="Node000014" class="node">
<title>Node14</title>
<g id="a_Node000014"><a xlink:title=" ">
<polygon fill="#e0e0e0" stroke="#999999" points="2441.23,-83.88 2242.23,-83.88 2242.23,-63.12 2441.23,-63.12 2441.23,-83.88"/>
<text xml:space="preserve" text-anchor="middle" x="2341.73" y="-70.38" font-family="Helvetica,sans-Serif" font-size="10.00">Interface_AssetUserData.generated.h</text>
</a>
</g>
</g>
<!-- Node9&#45;&gt;Node14 -->
<g id="edge18_Node000009_Node000014" class="edge">
<title>Node9&#45;&gt;Node14</title>
<g id="a_edge18_Node000009_Node000014"><a xlink:title=" ">
<path fill="none" stroke="#63b8ff" d="M2052.71,-128.23C2055.76,-127.54 2058.78,-126.88 2061.73,-126.25 2133.12,-111.02 2215.31,-96.14 2272.09,-86.28"/>
<polygon fill="#63b8ff" stroke="#63b8ff" points="2272.35,-89.78 2281.6,-84.63 2271.15,-82.89 2272.35,-89.78"/>
</a>
</g>
</g>
<!-- Node12&#45;&gt;Node5 -->
<g id="edge15_Node000012_Node000005" class="edge">
<title>Node12&#45;&gt;Node5</title>
<g id="a_edge15_Node000012_Node000005"><a xlink:title=" ">
<path fill="none" stroke="#63b8ff" d="M2483.86,-62.67C2473.12,-60.43 2461.54,-58.27 2450.73,-56.75 2255.82,-29.32 2024.18,-17.99 1905.47,-13.71"/>
<polygon fill="#63b8ff" stroke="#63b8ff" points="1905.63,-10.21 1895.51,-13.36 1905.38,-17.21 1905.63,-10.21"/>
</a>
</g>
</g>
<!-- Node12&#45;&gt;Node6 -->
<g id="edge16_Node000012_Node000006" class="edge">
<title>Node12&#45;&gt;Node6</title>
<g id="a_edge16_Node000012_Node000006"><a xlink:title=" ">
<path fill="none" stroke="#63b8ff" d="M2537.14,-62.68C2547.87,-53.45 2564.15,-39.43 2576.98,-28.38"/>
<polygon fill="#63b8ff" stroke="#63b8ff" points="2579.15,-31.13 2584.44,-21.96 2574.58,-25.83 2579.15,-31.13"/>
</a>
</g>
</g>
<!-- Node13 -->
<g id="Node000013" class="node">
<title>Node13</title>
<g id="a_Node000013"><a xlink:title=" ">
<polygon fill="#e0e0e0" stroke="#999999" points="2529.86,-20.75 2379.61,-20.75 2379.61,0 2529.86,0 2529.86,-20.75"/>
<text xml:space="preserve" text-anchor="middle" x="2454.73" y="-7.25" font-family="Helvetica,sans-Serif" font-size="10.00">AssetUserData.generated.h</text>
</a>
</g>
</g>
<!-- Node12&#45;&gt;Node13 -->
<g id="edge17_Node000012_Node000013" class="edge">
<title>Node12&#45;&gt;Node13</title>
<g id="a_edge17_Node000012_Node000013"><a xlink:title=" ">
<path fill="none" stroke="#63b8ff" d="M2514.33,-62.68C2503.6,-53.45 2487.32,-39.43 2474.49,-28.38"/>
<polygon fill="#63b8ff" stroke="#63b8ff" points="2476.89,-25.83 2467.03,-21.96 2472.32,-31.13 2476.89,-25.83"/>
</a>
</g>
</g>
<!-- Node15&#45;&gt;Node2 -->
<g id="edge20_Node000015_Node000002" class="edge">
<title>Node15&#45;&gt;Node2</title>
<g id="a_edge20_Node000015_Node000002"><a xlink:title=" ">
<path fill="none" stroke="#63b8ff" d="M605.03,-141.64C454.25,-140.12 67.34,-132.12 28.73,-90.25 13.13,-73.33 27.78,-47.3 41.31,-29.82"/>
<polygon fill="#63b8ff" stroke="#63b8ff" points="43.88,-32.21 47.55,-22.27 38.49,-27.75 43.88,-32.21"/>
</a>
</g>
</g>
<!-- Node15&#45;&gt;Node5 -->
<g id="edge21_Node000015_Node000005" class="edge">
<title>Node15&#45;&gt;Node5</title>
<g id="a_edge21_Node000015_Node000005"><a xlink:title=" ">
<path fill="none" stroke="#63b8ff" d="M663.06,-125.89C662.02,-106.2 663.71,-73.46 683.73,-56.75 704.18,-39.68 1493.38,-19.35 1748.25,-13.21"/>
<polygon fill="#63b8ff" stroke="#63b8ff" points="1748.19,-16.72 1758.1,-12.98 1748.02,-9.72 1748.19,-16.72"/>
</a>
</g>
</g>
<!-- Node15&#45;&gt;Node11 -->
<g id="edge22_Node000015_Node000011" class="edge">
<title>Node15&#45;&gt;Node11</title>
<g id="a_edge22_Node000015_Node000011"><a xlink:title=" ">
<path fill="none" stroke="#63b8ff" d="M724.45,-139.84C831.82,-135.27 1064.28,-122.3 1257.73,-90.25 1263.38,-89.32 1269.25,-88.15 1275.06,-86.87"/>
<polygon fill="#63b8ff" stroke="#63b8ff" points="1275.63,-90.33 1284.58,-84.65 1274.05,-83.51 1275.63,-90.33"/>
</a>
</g>
</g>
<!-- Node16 -->
<g id="Node000016" class="node">
<title>Node16</title>
<g id="a_Node000016"><a xlink:title=" ">
<polygon fill="#e0e0e0" stroke="#999999" points="405.11,-83.88 190.36,-83.88 190.36,-63.12 405.11,-63.12 405.11,-83.88"/>
<text xml:space="preserve" text-anchor="middle" x="297.73" y="-70.38" font-family="Helvetica,sans-Serif" font-size="10.00">Interface_AsyncCompilation.generated.h</text>
</a>
</g>
</g>
<!-- Node15&#45;&gt;Node16 -->
<g id="edge23_Node000015_Node000016" class="edge">
<title>Node15&#45;&gt;Node16</title>
<g id="a_edge23_Node000015_Node000016"><a xlink:title=" ">
<path fill="none" stroke="#63b8ff" d="M604.95,-131C538.29,-118.74 430.84,-98.98 362.29,-86.37"/>
<polygon fill="#63b8ff" stroke="#63b8ff" points="363.18,-82.98 352.71,-84.61 361.91,-89.86 363.18,-82.98"/>
</a>
</g>
</g>
<!-- Node19&#45;&gt;Node2 -->
<g id="edge27_Node000019_Node000002" class="edge">
<title>Node19&#45;&gt;Node2</title>
<g id="a_edge27_Node000019_Node000002"><a xlink:title=" ">
<path fill="none" stroke="#63b8ff" d="M97.18,-62.68C90.43,-53.89 80.34,-40.78 72.06,-30.01"/>
<polygon fill="#63b8ff" stroke="#63b8ff" points="74.9,-27.96 66.03,-22.17 69.36,-32.23 74.9,-27.96"/>
</a>
</g>
</g>
<!-- Node19&#45;&gt;Node5 -->
<g id="edge28_Node000019_Node000005" class="edge">
<title>Node19&#45;&gt;Node5</title>
<g id="a_edge28_Node000019_Node000005"><a xlink:title=" ">
<path fill="none" stroke="#63b8ff" d="M146.08,-62.66C157.56,-60.31 170.08,-58.09 181.73,-56.75 337.96,-38.76 1442.21,-18.15 1748.26,-12.74"/>
<polygon fill="#63b8ff" stroke="#63b8ff" points="1748.22,-16.24 1758.15,-12.56 1748.09,-9.24 1748.22,-16.24"/>
</a>
</g>
</g>
<!-- Node21&#45;&gt;Node2 -->
<g id="edge31_Node000021_Node000002" class="edge">
<title>Node21&#45;&gt;Node2</title>
<g id="a_edge31_Node000021_Node000002"><a xlink:title=" ">
<path fill="none" stroke="#63b8ff" d="M1265.45,-132.16C1251.26,-129.89 1235.96,-127.72 1221.73,-126.25 1051.57,-108.65 611.72,-153.42 452.73,-90.25 431.5,-81.81 434.61,-66.03 413.73,-56.75 361.21,-33.4 199.45,-20.14 113.22,-14.55"/>
<polygon fill="#63b8ff" stroke="#63b8ff" points="113.53,-11.07 103.33,-13.93 113.09,-18.05 113.53,-11.07"/>
</a>
</g>
</g>
<!-- Node21&#45;&gt;Node5 -->
<g id="edge32_Node000021_Node000005" class="edge">
<title>Node21&#45;&gt;Node5</title>
<g id="a_edge32_Node000021_Node000005"><a xlink:title=" ">
<path fill="none" stroke="#63b8ff" d="M1409.52,-140.15C1522.95,-136.37 1710.53,-124.92 1769.73,-90.25 1792.67,-76.82 1808.95,-50.1 1818.08,-31.5"/>
<polygon fill="#63b8ff" stroke="#63b8ff" points="1821.21,-33.09 1822.21,-22.54 1814.85,-30.16 1821.21,-33.09"/>
</a>
</g>
</g>
<!-- Node21&#45;&gt;Node6 -->
<g id="edge33_Node000021_Node000006" class="edge">
<title>Node21&#45;&gt;Node6</title>
<g id="a_edge33_Node000021_Node000006"><a xlink:title=" ">
<path fill="none" stroke="#63b8ff" d="M1409.47,-136.73C1506.57,-130.01 1665.64,-116.04 1800.73,-90.25 1855.55,-79.79 1866.68,-65.87 1921.73,-56.75 2189.02,-12.47 2263.65,-49.66 2535.68,-20.97"/>
<polygon fill="#63b8ff" stroke="#63b8ff" points="2536.03,-24.45 2545.6,-19.9 2535.28,-17.49 2536.03,-24.45"/>
</a>
</g>
</g>
<!-- Node22 -->
<g id="Node000022" class="node">
<title>Node22</title>
<g id="a_Node000022"><a xlink:title=" ">
<polygon fill="#e0e0e0" stroke="#999999" points="762.36,-83.88 693.11,-83.88 693.11,-63.12 762.36,-63.12 762.36,-83.88"/>
<text xml:space="preserve" text-anchor="middle" x="727.73" y="-70.38" font-family="Helvetica,sans-Serif" font-size="10.00">Misc/App.h</text>
</a>
</g>
</g>
<!-- Node21&#45;&gt;Node22 -->
<g id="edge34_Node000021_Node000022" class="edge">
<title>Node21&#45;&gt;Node22</title>
<g id="a_edge34_Node000021_Node000022"><a xlink:title=" ">
<path fill="none" stroke="#63b8ff" d="M1263.36,-132.15C1249.76,-130 1235.25,-127.87 1221.73,-126.25 1022.53,-102.31 967.89,-132.43 771.73,-90.25 768.71,-89.6 765.62,-88.8 762.54,-87.9"/>
<polygon fill="#63b8ff" stroke="#63b8ff" points="763.64,-84.57 753.05,-84.8 761.47,-91.23 763.64,-84.57"/>
</a>
</g>
</g>
<!-- Node23 -->
<g id="Node000023" class="node">
<title>Node23</title>
<g id="a_Node000023"><a xlink:href="TextureStreamingTypes_8h.html" target="_top" xlink:title=" ">
<polygon fill="white" stroke="#666666" points="636.23,-83.88 461.23,-83.88 461.23,-63.12 636.23,-63.12 636.23,-83.88"/>
<text xml:space="preserve" text-anchor="middle" x="548.73" y="-70.38" font-family="Helvetica,sans-Serif" font-size="10.00">Engine/TextureStreamingTypes.h</text>
</a>
</g>
</g>
<!-- Node21&#45;&gt;Node23 -->
<g id="edge35_Node000021_Node000023" class="edge">
<title>Node21&#45;&gt;Node23</title>
<g id="a_edge35_Node000021_Node000023"><a xlink:title=" ">
<path fill="none" stroke="#63b8ff" d="M1264.14,-132.15C1250.32,-129.95 1235.52,-127.82 1221.73,-126.25 983.62,-99.21 922.38,-112.14 683.73,-90.25 669.22,-88.92 653.86,-87.31 638.89,-85.64"/>
<polygon fill="#63b8ff" stroke="#63b8ff" points="639.38,-82.18 629.05,-84.53 638.59,-89.13 639.38,-82.18"/>
</a>
</g>
</g>
<!-- Node28 -->
<g id="Node000028" class="node">
<title>Node28</title>
<g id="a_Node000028"><a xlink:title=" ">
<polygon fill="#e0e0e0" stroke="#999999" points="914.61,-83.88 780.86,-83.88 780.86,-63.12 914.61,-63.12 914.61,-83.88"/>
<text xml:space="preserve" text-anchor="middle" x="847.73" y="-70.38" font-family="Helvetica,sans-Serif" font-size="10.00">Serialization/BulkData.h</text>
</a>
</g>
</g>
<!-- Node21&#45;&gt;Node28 -->
<g id="edge43_Node000021_Node000028" class="edge">
<title>Node21&#45;&gt;Node28</title>
<g id="a_edge43_Node000021_Node000028"><a xlink:title=" ">
<path fill="none" stroke="#63b8ff" d="M1260.71,-132.13C1247.88,-130.09 1234.36,-128.03 1221.73,-126.25 1089.63,-107.66 1055.39,-111.8 923.73,-90.25 917.01,-89.15 909.99,-87.87 903.03,-86.53"/>
<polygon fill="#63b8ff" stroke="#63b8ff" points="904.2,-83.19 893.71,-84.67 902.83,-90.05 904.2,-83.19"/>
</a>
</g>
</g>
<!-- Node29 -->
<g id="Node000029" class="node">
<title>Node29</title>
<g id="a_Node000029"><a xlink:title=" ">
<polygon fill="#e0e0e0" stroke="#999999" points="1070.86,-83.88 932.61,-83.88 932.61,-63.12 1070.86,-63.12 1070.86,-83.88"/>
<text xml:space="preserve" text-anchor="middle" x="1001.73" y="-70.38" font-family="Helvetica,sans-Serif" font-size="10.00">Templates/RefCounting.h</text>
</a>
</g>
</g>
<!-- Node21&#45;&gt;Node29 -->
<g id="edge44_Node000021_Node000029" class="edge">
<title>Node21&#45;&gt;Node29</title>
<g id="a_edge44_Node000021_Node000029"><a xlink:title=" ">
<path fill="none" stroke="#63b8ff" d="M1273.49,-132.18C1216.74,-120.14 1120.48,-99.71 1059.07,-86.67"/>
<polygon fill="#63b8ff" stroke="#63b8ff" points="1060.02,-83.29 1049.51,-84.64 1058.57,-90.14 1060.02,-83.29"/>
</a>
</g>
</g>
<!-- Node30 -->
<g id="Node000030" class="node">
<title>Node30</title>
<g id="a_Node000030"><a xlink:title=" ">
<polygon fill="#e0e0e0" stroke="#999999" points="1248.73,-90.25 1088.73,-90.25 1088.73,-56.75 1248.73,-56.75 1248.73,-90.25"/>
<text xml:space="preserve" text-anchor="start" x="1096.73" y="-76.75" font-family="Helvetica,sans-Serif" font-size="10.00">Streaming/StreamableRender</text>
<text xml:space="preserve" text-anchor="middle" x="1168.73" y="-64" font-family="Helvetica,sans-Serif" font-size="10.00">ResourceState.h</text>
</a>
</g>
</g>
<!-- Node21&#45;&gt;Node30 -->
<g id="edge45_Node000021_Node000030" class="edge">
<title>Node21&#45;&gt;Node30</title>
<g id="a_edge45_Node000021_Node000030"><a xlink:title=" ">
<path fill="none" stroke="#63b8ff" d="M1297.78,-132.18C1276.24,-122.56 1242.71,-107.57 1215.23,-95.29"/>
<polygon fill="#63b8ff" stroke="#63b8ff" points="1216.98,-92.23 1206.42,-91.35 1214.12,-98.62 1216.98,-92.23"/>
</a>
</g>
</g>
<!-- Node31 -->
<g id="Node000031" class="node">
<title>Node31</title>
<g id="a_Node000031"><a xlink:title=" ">
<polygon fill="#e0e0e0" stroke="#999999" points="1546.61,-83.88 1394.86,-83.88 1394.86,-63.12 1546.61,-63.12 1546.61,-83.88"/>
<text xml:space="preserve" text-anchor="middle" x="1470.73" y="-70.38" font-family="Helvetica,sans-Serif" font-size="10.00">PerQualityLevelProperties.h</text>
</a>
</g>
</g>
<!-- Node21&#45;&gt;Node31 -->
<g id="edge46_Node000021_Node000031" class="edge">
<title>Node21&#45;&gt;Node31</title>
<g id="a_edge46_Node000021_Node000031"><a xlink:title=" ">
<path fill="none" stroke="#63b8ff" d="M1341.69,-132.18C1367.08,-120.84 1409.1,-102.05 1438.26,-89.01"/>
<polygon fill="#63b8ff" stroke="#63b8ff" points="1439.67,-92.22 1447.37,-84.94 1436.81,-85.83 1439.67,-92.22"/>
</a>
</g>
</g>
<!-- Node32 -->
<g id="Node000032" class="node">
<title>Node32</title>
<g id="a_Node000032"><a xlink:title=" ">
<polygon fill="#e0e0e0" stroke="#999999" points="1760.36,-83.88 1565.11,-83.88 1565.11,-63.12 1760.36,-63.12 1760.36,-83.88"/>
<text xml:space="preserve" text-anchor="middle" x="1662.73" y="-70.38" font-family="Helvetica,sans-Serif" font-size="10.00">StreamableRenderAsset.generated.h</text>
</a>
</g>
</g>
<!-- Node21&#45;&gt;Node32 -->
<g id="edge47_Node000021_Node000032" class="edge">
<title>Node21&#45;&gt;Node32</title>
<g id="a_edge47_Node000021_Node000032"><a xlink:title=" ">
<path fill="none" stroke="#63b8ff" d="M1369.61,-132.18C1431.08,-120.09 1535.51,-99.54 1601.71,-86.51"/>
<polygon fill="#63b8ff" stroke="#63b8ff" points="1602.18,-89.98 1611.31,-84.62 1600.83,-83.12 1602.18,-89.98"/>
</a>
</g>
</g>
<!-- Node23&#45;&gt;Node2 -->
<g id="edge36_Node000023_Node000002" class="edge">
<title>Node23&#45;&gt;Node2</title>
<g id="a_edge36_Node000023_Node000002"><a xlink:title=" ">
<path fill="none" stroke="#63b8ff" d="M487.3,-62.64C473.94,-60.6 459.87,-58.53 446.73,-56.75 328.01,-40.67 188.43,-25.23 112.95,-17.16"/>
<polygon fill="#63b8ff" stroke="#63b8ff" points="113.67,-13.72 103.35,-16.14 112.92,-20.68 113.67,-13.72"/>
</a>
</g>
</g>
<!-- Node23&#45;&gt;Node5 -->
<g id="edge37_Node000023_Node000005" class="edge">
<title>Node23&#45;&gt;Node5</title>
<g id="a_edge37_Node000023_Node000005"><a xlink:title=" ">
<path fill="none" stroke="#63b8ff" d="M604.97,-62.63C619.81,-60.36 635.84,-58.18 650.73,-56.75 864.63,-36.18 1520.96,-18.78 1748.27,-13.23"/>
<polygon fill="#63b8ff" stroke="#63b8ff" points="1748.31,-16.73 1758.22,-12.98 1748.14,-9.73 1748.31,-16.73"/>
</a>
</g>
</g>
<!-- Node23&#45;&gt;Node7 -->
<g id="edge38_Node000023_Node000007" class="edge">
<title>Node23&#45;&gt;Node7</title>
<g id="a_edge38_Node000023_Node000007"><a xlink:title=" ">
<path fill="none" stroke="#63b8ff" d="M607.15,-62.65C621.38,-60.48 636.58,-58.35 650.73,-56.75 866.75,-32.32 1126.07,-18.49 1231.57,-13.51"/>
<polygon fill="#63b8ff" stroke="#63b8ff" points="1231.43,-17.02 1241.26,-13.06 1231.11,-10.03 1231.43,-17.02"/>
</a>
</g>
</g>
<!-- Node24 -->
<g id="Node000024" class="node">
<title>Node24</title>
<g id="a_Node000024"><a xlink:title=" ">
<polygon fill="#e0e0e0" stroke="#999999" points="428.86,-20.75 296.61,-20.75 296.61,0 428.86,0 428.86,-20.75"/>
<text xml:space="preserve" text-anchor="middle" x="362.73" y="-7.25" font-family="Helvetica,sans-Serif" font-size="10.00">HAL/IConsoleManager.h</text>
</a>
</g>
</g>
<!-- Node23&#45;&gt;Node24 -->
<g id="edge39_Node000023_Node000024" class="edge">
<title>Node23&#45;&gt;Node24</title>
<g id="a_edge39_Node000023_Node000024"><a xlink:title=" ">
<path fill="none" stroke="#63b8ff" d="M518.85,-62.68C487.53,-52.39 438.13,-36.15 403.3,-24.71"/>
<polygon fill="#63b8ff" stroke="#63b8ff" points="404.57,-21.44 393.98,-21.64 402.39,-28.09 404.57,-21.44"/>
</a>
</g>
</g>
<!-- Node25 -->
<g id="Node000025" class="node">
<title>Node25</title>
<g id="a_Node000025"><a xlink:title=" ">
<polygon fill="#e0e0e0" stroke="#999999" points="542.48,-20.75 446.98,-20.75 446.98,0 542.48,0 542.48,-20.75"/>
<text xml:space="preserve" text-anchor="middle" x="494.73" y="-7.25" font-family="Helvetica,sans-Serif" font-size="10.00">RHIDefinitions.h</text>
</a>
</g>
</g>
<!-- Node23&#45;&gt;Node25 -->
<g id="edge40_Node000023_Node000025" class="edge">
<title>Node23&#45;&gt;Node25</title>
<g id="a_edge40_Node000023_Node000025"><a xlink:title=" ">
<path fill="none" stroke="#63b8ff" d="M540.06,-62.68C532.14,-53.72 520.24,-40.24 510.62,-29.35"/>
<polygon fill="#63b8ff" stroke="#63b8ff" points="513.46,-27.28 504.21,-22.1 508.21,-31.92 513.46,-27.28"/>
</a>
</g>
</g>
<!-- Node26 -->
<g id="Node000026" class="node">
<title>Node26</title>
<g id="a_Node000026"><a xlink:title=" ">
<polygon fill="#e0e0e0" stroke="#999999" points="642.73,-20.75 560.73,-20.75 560.73,0 642.73,0 642.73,-20.75"/>
<text xml:space="preserve" text-anchor="middle" x="601.73" y="-7.25" font-family="Helvetica,sans-Serif" font-size="10.00">SceneTypes.h</text>
</a>
</g>
</g>
<!-- Node23&#45;&gt;Node26 -->
<g id="edge41_Node000023_Node000026" class="edge">
<title>Node23&#45;&gt;Node26</title>
<g id="a_edge41_Node000023_Node000026"><a xlink:title=" ">
<path fill="none" stroke="#63b8ff" d="M557.25,-62.68C565.02,-53.72 576.7,-40.24 586.14,-29.35"/>
<polygon fill="#63b8ff" stroke="#63b8ff" points="588.52,-31.96 592.42,-22.11 583.23,-27.38 588.52,-31.96"/>
</a>
</g>
</g>
<!-- Node27 -->
<g id="Node000027" class="node">
<title>Node27</title>
<g id="a_Node000027"><a xlink:title=" ">
<polygon fill="#e0e0e0" stroke="#999999" points="852.48,-20.75 660.98,-20.75 660.98,0 852.48,0 852.48,-20.75"/>
<text xml:space="preserve" text-anchor="middle" x="756.73" y="-7.25" font-family="Helvetica,sans-Serif" font-size="10.00">TextureStreamingTypes.generated.h</text>
</a>
</g>
</g>
<!-- Node23&#45;&gt;Node27 -->
<g id="edge42_Node000023_Node000027" class="edge">
<title>Node23&#45;&gt;Node27</title>
<g id="a_edge42_Node000023_Node000027"><a xlink:title=" ">
<path fill="none" stroke="#63b8ff" d="M582.15,-62.68C617.48,-52.3 673.38,-35.87 712.38,-24.41"/>
<polygon fill="#63b8ff" stroke="#63b8ff" points="713.34,-27.78 721.95,-21.6 711.37,-21.06 713.34,-27.78"/>
</a>
</g>
</g>
</g>
</svg>
