<?xml version="1.0" encoding="UTF-8" standalone="no"?>
<!DOCTYPE svg PUBLIC "-//W3C//DTD SVG 1.1//EN"
 "http://www.w3.org/Graphics/SVG/1.1/DTD/svg11.dtd">
<!-- Generated by graphviz version 14.1.4 (0)
 -->
<!-- Title: /opt/unreal&#45;engine/Engine/Source/Runtime/Core/Public/Windows/WindowsSystemIncludes.h Pages: 1 -->
<svg width="1746pt" height="471pt"
 viewBox="0.00 0.00 1746.00 471.00" xmlns="http://www.w3.org/2000/svg" xmlns:xlink="http://www.w3.org/1999/xlink">
<g id="graph0" class="graph" transform="scale(1 1) rotate(0) translate(4 467.25)">
<title>/opt/unreal&#45;engine/Engine/Source/Runtime/Core/Public/Windows/WindowsSystemIncludes.h</title>
<!-- Node1 -->
<g id="Node000001" class="node">
<title>Node1</title>
<g id="a_Node000001"><a xlink:title=" ">
<polygon fill="#999999" stroke="#666666" points="1444.75,-463.25 1276.5,-463.25 1276.5,-404.25 1444.75,-404.25 1444.75,-463.25"/>
<text xml:space="preserve" text-anchor="start" x="1284.5" y="-449.75" font-family="Helvetica,sans-Serif" font-size="10.00">/opt/unreal&#45;engine</text>
<text xml:space="preserve" text-anchor="start" x="1284.5" y="-437" font-family="Helvetica,sans-Serif" font-size="10.00">/Engine/Source/Runtime</text>
<text xml:space="preserve" text-anchor="start" x="1284.5" y="-424.25" font-family="Helvetica,sans-Serif" font-size="10.00">/Core/Public/Windows/Windows</text>
<text xml:space="preserve" text-anchor="middle" x="1360.62" y="-411.5" font-family="Helvetica,sans-Serif" font-size="10.00">SystemIncludes.h</text>
</a>
</g>
</g>
<!-- Node2 -->
<g id="Node000002" class="node">
<title>Node2</title>
<g id="a_Node000002"><a xlink:href="$CoreTypes_8h.html" xlink:title=" ">
<polygon fill="white" stroke="#666666" points="959.25,-229.25 884,-229.25 884,-208.5 959.25,-208.5 959.25,-229.25"/>
<text xml:space="preserve" text-anchor="middle" x="921.62" y="-215.75" font-family="Helvetica,sans-Serif" font-size="10.00">CoreTypes.h</text>
</a>
</g>
</g>
<!-- Node1&#45;&gt;Node2 -->
<g id="edge1_Node000001_Node000002" class="edge">
<title>Node1&#45;&gt;Node2</title>
<g id="a_edge1_Node000001_Node000002"><a xlink:title=" ">
<path fill="none" stroke="#63b8ff" d="M1276.26,-427.14C1147.62,-417.72 914.62,-396.9 889.62,-368.25 857.41,-331.32 888.89,-269.74 908.52,-238.82"/>
<polygon fill="#63b8ff" stroke="#63b8ff" points="911.19,-241.12 913.78,-230.85 905.35,-237.26 911.19,-241.12"/>
</a>
</g>
</g>
<!-- Node16 -->
<g id="Node000016" class="node">
<title>Node16</title>
<g id="a_Node000016"><a xlink:href="$WindowsPlatformCompilerSetup_8h.html" xlink:title=" ">
<polygon fill="white" stroke="#666666" points="1092.5,-368.25 898.75,-368.25 898.75,-334.75 1092.5,-334.75 1092.5,-368.25"/>
<text xml:space="preserve" text-anchor="start" x="906.75" y="-354.75" font-family="Helvetica,sans-Serif" font-size="10.00">Windows/WindowsPlatformCompiler</text>
<text xml:space="preserve" text-anchor="middle" x="995.62" y="-342" font-family="Helvetica,sans-Serif" font-size="10.00">Setup.h</text>
</a>
</g>
</g>
<!-- Node1&#45;&gt;Node16 -->
<g id="edge17_Node000001_Node000016" class="edge">
<title>Node1&#45;&gt;Node16</title>
<g id="a_edge17_Node000001_Node000016"><a xlink:title=" ">
<path fill="none" stroke="#63b8ff" d="M1276.43,-414.24C1217.69,-401.32 1139.58,-384.15 1080.65,-371.19"/>
<polygon fill="#63b8ff" stroke="#63b8ff" points="1081.5,-367.8 1070.99,-369.07 1080,-374.63 1081.5,-367.8"/>
</a>
</g>
</g>
<!-- Node17 -->
<g id="Node000017" class="node">
<title>Node17</title>
<g id="a_Node000017"><a xlink:href="$Windows_2MinimalWindowsApi_8h.html" xlink:title=" ">
<polygon fill="white" stroke="#666666" points="1282.62,-361.88 1110.62,-361.88 1110.62,-341.12 1282.62,-341.12 1282.62,-361.88"/>
<text xml:space="preserve" text-anchor="middle" x="1196.62" y="-348.38" font-family="Helvetica,sans-Serif" font-size="10.00">Windows/MinimalWindowsApi.h</text>
</a>
</g>
</g>
<!-- Node1&#45;&gt;Node17 -->
<g id="edge18_Node000001_Node000017" class="edge">
<title>Node1&#45;&gt;Node17</title>
<g id="a_edge18_Node000001_Node000017"><a xlink:title=" ">
<path fill="none" stroke="#63b8ff" d="M1301.42,-403.78C1276.1,-391.39 1247.64,-377.46 1226.77,-367.25"/>
<polygon fill="#63b8ff" stroke="#63b8ff" points="1228.49,-364.2 1217.97,-362.95 1225.42,-370.48 1228.49,-364.2"/>
</a>
</g>
</g>
<!-- Node19 -->
<g id="Node000019" class="node">
<title>Node19</title>
<g id="a_Node000019"><a xlink:title=" ">
<polygon fill="#e0e0e0" stroke="#999999" points="1350.88,-361.88 1300.38,-361.88 1300.38,-341.12 1350.88,-341.12 1350.88,-361.88"/>
<text xml:space="preserve" text-anchor="middle" x="1325.62" y="-348.38" font-family="Helvetica,sans-Serif" font-size="10.00">intrin.h</text>
</a>
</g>
</g>
<!-- Node1&#45;&gt;Node19 -->
<g id="edge21_Node000001_Node000019" class="edge">
<title>Node1&#45;&gt;Node19</title>
<g id="a_edge21_Node000001_Node000019"><a xlink:title=" ">
<path fill="none" stroke="#63b8ff" d="M1347.99,-403.78C1343.48,-393.44 1338.5,-382.02 1334.39,-372.59"/>
<polygon fill="#63b8ff" stroke="#63b8ff" points="1337.7,-371.43 1330.5,-363.67 1331.29,-374.23 1337.7,-371.43"/>
</a>
</g>
</g>
<!-- Node20 -->
<g id="Node000020" class="node">
<title>Node20</title>
<g id="a_Node000020"><a xlink:title=" ">
<polygon fill="#e0e0e0" stroke="#999999" points="1422,-361.88 1369.25,-361.88 1369.25,-341.12 1422,-341.12 1422,-361.88"/>
<text xml:space="preserve" text-anchor="middle" x="1395.62" y="-348.38" font-family="Helvetica,sans-Serif" font-size="10.00">stdint.h</text>
</a>
</g>
</g>
<!-- Node1&#45;&gt;Node20 -->
<g id="edge22_Node000001_Node000020" class="edge">
<title>Node1&#45;&gt;Node20</title>
<g id="a_edge22_Node000001_Node000020"><a xlink:title=" ">
<path fill="none" stroke="#63b8ff" d="M1373.26,-403.78C1377.77,-393.44 1382.75,-382.02 1386.86,-372.59"/>
<polygon fill="#63b8ff" stroke="#63b8ff" points="1389.96,-374.23 1390.75,-363.67 1383.55,-371.43 1389.96,-374.23"/>
</a>
</g>
</g>
<!-- Node21 -->
<g id="Node000021" class="node">
<title>Node21</title>
<g id="a_Node000021"><a xlink:href="$HideTCHAR_8h.html" xlink:title=" ">
<polygon fill="white" stroke="#666666" points="1543.5,-361.88 1439.75,-361.88 1439.75,-341.12 1543.5,-341.12 1543.5,-361.88"/>
<text xml:space="preserve" text-anchor="middle" x="1491.62" y="-348.38" font-family="Helvetica,sans-Serif" font-size="10.00">HAL/HideTCHAR.h</text>
</a>
</g>
</g>
<!-- Node1&#45;&gt;Node21 -->
<g id="edge23_Node000001_Node000021" class="edge">
<title>Node1&#45;&gt;Node21</title>
<g id="a_edge23_Node000001_Node000021"><a xlink:title=" ">
<path fill="none" stroke="#63b8ff" d="M1407.92,-403.78C1427.58,-391.73 1449.63,-378.23 1466.15,-368.1"/>
<polygon fill="#63b8ff" stroke="#63b8ff" points="1467.67,-371.28 1474.37,-363.07 1464.01,-365.31 1467.67,-371.28"/>
</a>
</g>
</g>
<!-- Node22 -->
<g id="Node000022" class="node">
<title>Node22</title>
<g id="a_Node000022"><a xlink:title=" ">
<polygon fill="#e0e0e0" stroke="#999999" points="1611.5,-361.88 1561.75,-361.88 1561.75,-341.12 1611.5,-341.12 1611.5,-361.88"/>
<text xml:space="preserve" text-anchor="middle" x="1586.62" y="-348.38" font-family="Helvetica,sans-Serif" font-size="10.00">tchar.h</text>
</a>
</g>
</g>
<!-- Node1&#45;&gt;Node22 -->
<g id="edge24_Node000001_Node000022" class="edge">
<title>Node1&#45;&gt;Node22</title>
<g id="a_edge24_Node000001_Node000022"><a xlink:title=" ">
<path fill="none" stroke="#63b8ff" d="M1444.99,-406.63C1478.76,-395.59 1517.83,-382.1 1552.62,-368.25 1553.74,-367.8 1554.88,-367.34 1556.02,-366.87"/>
<polygon fill="#63b8ff" stroke="#63b8ff" points="1557.15,-370.19 1564.9,-362.97 1554.34,-363.78 1557.15,-370.19"/>
</a>
</g>
</g>
<!-- Node23 -->
<g id="Node000023" class="node">
<title>Node23</title>
<g id="a_Node000023"><a xlink:href="$AllowTCHAR_8h.html" xlink:title=" ">
<polygon fill="white" stroke="#666666" points="1737.75,-361.88 1629.5,-361.88 1629.5,-341.12 1737.75,-341.12 1737.75,-361.88"/>
<text xml:space="preserve" text-anchor="middle" x="1683.62" y="-348.38" font-family="Helvetica,sans-Serif" font-size="10.00">HAL/AllowTCHAR.h</text>
</a>
</g>
</g>
<!-- Node1&#45;&gt;Node23 -->
<g id="edge25_Node000001_Node000023" class="edge">
<title>Node1&#45;&gt;Node23</title>
<g id="a_edge25_Node000001_Node000023"><a xlink:title=" ">
<path fill="none" stroke="#63b8ff" d="M1445.24,-411.8C1496.08,-399.2 1562.07,-382.83 1620.62,-368.25 1624.69,-367.24 1628.91,-366.19 1633.14,-365.13"/>
<polygon fill="#63b8ff" stroke="#63b8ff" points="1633.99,-368.53 1642.84,-362.71 1632.29,-361.73 1633.99,-368.53"/>
</a>
</g>
</g>
<!-- Node3 -->
<g id="Node000003" class="node">
<title>Node3</title>
<g id="a_Node000003"><a xlink:href="$Platform_8h.html" xlink:title=" ">
<polygon fill="white" stroke="#666666" points="811.38,-103 721.88,-103 721.88,-82.25 811.38,-82.25 811.38,-103"/>
<text xml:space="preserve" text-anchor="middle" x="766.62" y="-89.5" font-family="Helvetica,sans-Serif" font-size="10.00">HAL/Platform.h</text>
</a>
</g>
</g>
<!-- Node2&#45;&gt;Node3 -->
<g id="edge2_Node000002_Node000003" class="edge">
<title>Node2&#45;&gt;Node3</title>
<g id="a_edge2_Node000002_Node000003"><a xlink:title=" ">
<path fill="none" stroke="#63b8ff" d="M883.66,-215.08C852.94,-210.78 810.79,-199.91 785.62,-172.5 771.29,-156.89 767.25,-132.38 766.34,-114.82"/>
<polygon fill="#63b8ff" stroke="#63b8ff" points="769.85,-114.95 766.17,-105.01 762.85,-115.07 769.85,-114.95"/>
</a>
</g>
</g>
<!-- Node13 -->
<g id="Node000013" class="node">
<title>Node13</title>
<g id="a_Node000013"><a xlink:href="$UMemoryDefines_8h.html" xlink:title=" ">
<polygon fill="white" stroke="#666666" points="908.38,-172.5 794.88,-172.5 794.88,-139 908.38,-139 908.38,-172.5"/>
<text xml:space="preserve" text-anchor="start" x="802.88" y="-159" font-family="Helvetica,sans-Serif" font-size="10.00">ProfilingDebugging</text>
<text xml:space="preserve" text-anchor="middle" x="851.62" y="-146.25" font-family="Helvetica,sans-Serif" font-size="10.00">/UMemoryDefines.h</text>
</a>
</g>
</g>
<!-- Node2&#45;&gt;Node13 -->
<g id="edge12_Node000002_Node000013" class="edge">
<title>Node2&#45;&gt;Node13</title>
<g id="a_edge12_Node000002_Node000013"><a xlink:title=" ">
<path fill="none" stroke="#63b8ff" d="M910.38,-208.05C901.84,-200.6 889.73,-190.02 878.72,-180.41"/>
<polygon fill="#63b8ff" stroke="#63b8ff" points="881.19,-177.92 871.36,-173.98 876.59,-183.19 881.19,-177.92"/>
</a>
</g>
</g>
<!-- Node14 -->
<g id="Node000014" class="node">
<title>Node14</title>
<g id="a_Node000014"><a xlink:href="$CoreMiscDefines_8h.html" xlink:title=" ">
<polygon fill="white" stroke="#666666" points="1059.12,-166.12 926.12,-166.12 926.12,-145.38 1059.12,-145.38 1059.12,-166.12"/>
<text xml:space="preserve" text-anchor="middle" x="992.62" y="-152.62" font-family="Helvetica,sans-Serif" font-size="10.00">Misc/CoreMiscDefines.h</text>
</a>
</g>
</g>
<!-- Node2&#45;&gt;Node14 -->
<g id="edge13_Node000002_Node000014" class="edge">
<title>Node2&#45;&gt;Node14</title>
<g id="a_edge13_Node000002_Node000014"><a xlink:title=" ">
<path fill="none" stroke="#63b8ff" d="M933.03,-208.05C943.76,-198.82 960.04,-184.81 972.87,-173.76"/>
<polygon fill="#63b8ff" stroke="#63b8ff" points="975.04,-176.51 980.33,-167.33 970.47,-171.2 975.04,-176.51"/>
</a>
</g>
</g>
<!-- Node15 -->
<g id="Node000015" class="node">
<title>Node15</title>
<g id="a_Node000015"><a xlink:href="$CoreDefines_8h.html" xlink:title=" ">
<polygon fill="white" stroke="#666666" points="1187.88,-166.12 1077.38,-166.12 1077.38,-145.38 1187.88,-145.38 1187.88,-166.12"/>
<text xml:space="preserve" text-anchor="middle" x="1132.62" y="-152.62" font-family="Helvetica,sans-Serif" font-size="10.00">Misc/CoreDefines.h</text>
</a>
</g>
</g>
<!-- Node2&#45;&gt;Node15 -->
<g id="edge16_Node000002_Node000015" class="edge">
<title>Node2&#45;&gt;Node15</title>
<g id="a_edge16_Node000002_Node000015"><a xlink:title=" ">
<path fill="none" stroke="#63b8ff" d="M955.53,-208.05C991.44,-197.65 1048.31,-181.17 1087.89,-169.71"/>
<polygon fill="#63b8ff" stroke="#63b8ff" points="1088.72,-173.11 1097.35,-166.97 1086.78,-166.39 1088.72,-173.11"/>
</a>
</g>
</g>
<!-- Node4 -->
<g id="Node000004" class="node">
<title>Node4</title>
<g id="a_Node000004"><a xlink:href="$Build_8h.html" xlink:title=" ">
<polygon fill="white" stroke="#666666" points="75.25,-33.5 0,-33.5 0,-12.75 75.25,-12.75 75.25,-33.5"/>
<text xml:space="preserve" text-anchor="middle" x="37.62" y="-20" font-family="Helvetica,sans-Serif" font-size="10.00">Misc/Build.h</text>
</a>
</g>
</g>
<!-- Node3&#45;&gt;Node4 -->
<g id="edge3_Node000003_Node000004" class="edge">
<title>Node3&#45;&gt;Node4</title>
<g id="a_edge3_Node000003_Node000004"><a xlink:title=" ">
<path fill="none" stroke="#63b8ff" d="M721.58,-90.81C589.63,-88.08 205.68,-77.57 84.62,-46.25 77.91,-44.51 70.99,-41.82 64.6,-38.91"/>
<polygon fill="#63b8ff" stroke="#63b8ff" points="66.33,-35.86 55.81,-34.6 63.24,-42.15 66.33,-35.86"/>
</a>
</g>
</g>
<!-- Node5 -->
<g id="Node000005" class="node">
<title>Node5</title>
<g id="a_Node000005"><a xlink:href="$LargeWorldCoordinates_8h.html" xlink:title=" ">
<polygon fill="white" stroke="#666666" points="257.88,-33.5 93.38,-33.5 93.38,-12.75 257.88,-12.75 257.88,-33.5"/>
<text xml:space="preserve" text-anchor="middle" x="175.62" y="-20" font-family="Helvetica,sans-Serif" font-size="10.00">Misc/LargeWorldCoordinates.h</text>
</a>
</g>
</g>
<!-- Node3&#45;&gt;Node5 -->
<g id="edge4_Node000003_Node000005" class="edge">
<title>Node3&#45;&gt;Node5</title>
<g id="a_edge4_Node000003_Node000005"><a xlink:title=" ">
<path fill="none" stroke="#63b8ff" d="M721.62,-89.73C633.81,-85.54 433.71,-73.62 267.62,-46.25 252.64,-43.78 236.48,-40.21 221.95,-36.65"/>
<polygon fill="#63b8ff" stroke="#63b8ff" points="223.22,-33.37 212.67,-34.33 221.52,-40.16 223.22,-33.37"/>
</a>
</g>
</g>
<!-- Node6 -->
<g id="Node000006" class="node">
<title>Node6</title>
<g id="a_Node000006"><a xlink:title=" ">
<polygon fill="#e0e0e0" stroke="#999999" points="344.88,-33.5 276.38,-33.5 276.38,-12.75 344.88,-12.75 344.88,-33.5"/>
<text xml:space="preserve" text-anchor="middle" x="310.62" y="-20" font-family="Helvetica,sans-Serif" font-size="10.00">type_traits</text>
</a>
</g>
</g>
<!-- Node3&#45;&gt;Node6 -->
<g id="edge5_Node000003_Node000006" class="edge">
<title>Node3&#45;&gt;Node6</title>
<g id="a_edge5_Node000003_Node000006"><a xlink:title=" ">
<path fill="none" stroke="#63b8ff" d="M721.4,-91.84C644.45,-91.07 483.83,-84.5 354.62,-46.25 348.58,-44.46 342.36,-41.87 336.58,-39.08"/>
<polygon fill="#63b8ff" stroke="#63b8ff" points="338.6,-36.18 328.11,-34.68 335.37,-42.39 338.6,-36.18"/>
</a>
</g>
</g>
<!-- Node7 -->
<g id="Node000007" class="node">
<title>Node7</title>
<g id="a_Node000007"><a xlink:href="$PreprocessorHelpers_8h.html" xlink:title=" ">
<polygon fill="white" stroke="#666666" points="1542.38,-33.5 1416.88,-33.5 1416.88,-12.75 1542.38,-12.75 1542.38,-33.5"/>
<text xml:space="preserve" text-anchor="middle" x="1479.62" y="-20" font-family="Helvetica,sans-Serif" font-size="10.00">PreprocessorHelpers.h</text>
</a>
</g>
</g>
<!-- Node3&#45;&gt;Node7 -->
<g id="edge6_Node000003_Node000007" class="edge">
<title>Node3&#45;&gt;Node7</title>
<g id="a_edge6_Node000003_Node000007"><a xlink:title=" ">
<path fill="none" stroke="#63b8ff" d="M811.75,-91.94C917.08,-91.9 1186.91,-87.42 1407.62,-46.25 1418.98,-44.13 1431.07,-40.84 1442.03,-37.44"/>
<polygon fill="#63b8ff" stroke="#63b8ff" points="1443.1,-40.77 1451.54,-34.37 1440.95,-34.11 1443.1,-40.77"/>
</a>
</g>
</g>
<!-- Node8 -->
<g id="Node000008" class="node">
<title>Node8</title>
<g id="a_Node000008"><a xlink:title=" ">
<polygon fill="#e0e0e0" stroke="#999999" points="560,-46.25 363.25,-46.25 363.25,0 560,0 560,-46.25"/>
<text xml:space="preserve" text-anchor="start" x="371.25" y="-32.75" font-family="Helvetica,sans-Serif" font-size="10.00">UBT_COMPILED_PLATFORM</text>
<text xml:space="preserve" text-anchor="start" x="371.25" y="-20" font-family="Helvetica,sans-Serif" font-size="10.00">/UBT_COMPILED_PLATFORMPlatform</text>
<text xml:space="preserve" text-anchor="middle" x="461.62" y="-7.25" font-family="Helvetica,sans-Serif" font-size="10.00">CompilerPreSetup.h</text>
</a>
</g>
</g>
<!-- Node3&#45;&gt;Node8 -->
<g id="edge7_Node000003_Node000008" class="edge">
<title>Node3&#45;&gt;Node8</title>
<g id="a_edge7_Node000003_Node000008"><a xlink:title=" ">
<path fill="none" stroke="#63b8ff" d="M722.28,-81.81C682.79,-73.07 623.37,-59.92 571.23,-48.38"/>
<polygon fill="#63b8ff" stroke="#63b8ff" points="572.23,-45.02 561.71,-46.27 570.71,-51.85 572.23,-45.02"/>
</a>
</g>
</g>
<!-- Node9 -->
<g id="Node000009" class="node">
<title>Node9</title>
<g id="a_Node000009"><a xlink:href="$GenericPlatformCompilerPreSetup_8h.html" xlink:title=" ">
<polygon fill="white" stroke="#666666" points="755.62,-39.88 577.62,-39.88 577.62,-6.38 755.62,-6.38 755.62,-39.88"/>
<text xml:space="preserve" text-anchor="start" x="585.62" y="-26.38" font-family="Helvetica,sans-Serif" font-size="10.00">GenericPlatform/GenericPlatform</text>
<text xml:space="preserve" text-anchor="middle" x="666.62" y="-13.62" font-family="Helvetica,sans-Serif" font-size="10.00">CompilerPreSetup.h</text>
</a>
</g>
</g>
<!-- Node3&#45;&gt;Node9 -->
<g id="edge8_Node000003_Node000009" class="edge">
<title>Node3&#45;&gt;Node9</title>
<g id="a_edge8_Node000003_Node000009"><a xlink:title=" ">
<path fill="none" stroke="#63b8ff" d="M752.3,-81.95C738.72,-72.79 717.81,-58.68 700.06,-46.69"/>
<polygon fill="#63b8ff" stroke="#63b8ff" points="702.08,-43.83 691.83,-41.14 698.16,-49.64 702.08,-43.83"/>
</a>
</g>
</g>
<!-- Node10 -->
<g id="Node000010" class="node">
<title>Node10</title>
<g id="a_Node000010"><a xlink:href="$GenericPlatform_8h.html" xlink:title=" ">
<polygon fill="white" stroke="#666666" points="961.12,-33.5 774.12,-33.5 774.12,-12.75 961.12,-12.75 961.12,-33.5"/>
<text xml:space="preserve" text-anchor="middle" x="867.62" y="-20" font-family="Helvetica,sans-Serif" font-size="10.00">GenericPlatform/GenericPlatform.h</text>
</a>
</g>
</g>
<!-- Node3&#45;&gt;Node10 -->
<g id="edge9_Node000003_Node000010" class="edge">
<title>Node3&#45;&gt;Node10</title>
<g id="a_edge9_Node000003_Node000010"><a xlink:title=" ">
<path fill="none" stroke="#63b8ff" d="M781.1,-81.95C797.35,-71.09 824,-53.28 843.44,-40.29"/>
<polygon fill="#63b8ff" stroke="#63b8ff" points="845.22,-43.31 851.59,-34.84 841.34,-37.49 845.22,-43.31"/>
</a>
</g>
</g>
<!-- Node11 -->
<g id="Node000011" class="node">
<title>Node11</title>
<g id="a_Node000011"><a xlink:title=" ">
<polygon fill="#e0e0e0" stroke="#999999" points="1184.5,-39.88 978.75,-39.88 978.75,-6.38 1184.5,-6.38 1184.5,-39.88"/>
<text xml:space="preserve" text-anchor="start" x="986.75" y="-26.38" font-family="Helvetica,sans-Serif" font-size="10.00">UBT_COMPILED_PLATFORM</text>
<text xml:space="preserve" text-anchor="middle" x="1081.62" y="-13.62" font-family="Helvetica,sans-Serif" font-size="10.00">/UBT_COMPILED_PLATFORMPlatform.h</text>
</a>
</g>
</g>
<!-- Node3&#45;&gt;Node11 -->
<g id="edge10_Node000003_Node000011" class="edge">
<title>Node3&#45;&gt;Node11</title>
<g id="a_edge10_Node000003_Node000011"><a xlink:title=" ">
<path fill="none" stroke="#63b8ff" d="M811.76,-81.95C859.3,-71.77 935.36,-55.47 994.62,-42.77"/>
<polygon fill="#63b8ff" stroke="#63b8ff" points="995.34,-46.19 1004.38,-40.68 993.87,-39.35 995.34,-46.19"/>
</a>
</g>
</g>
<!-- Node12 -->
<g id="Node000012" class="node">
<title>Node12</title>
<g id="a_Node000012"><a xlink:title=" ">
<polygon fill="#e0e0e0" stroke="#999999" points="1399,-46.25 1202.25,-46.25 1202.25,0 1399,0 1399,-46.25"/>
<text xml:space="preserve" text-anchor="start" x="1210.25" y="-32.75" font-family="Helvetica,sans-Serif" font-size="10.00">UBT_COMPILED_PLATFORM</text>
<text xml:space="preserve" text-anchor="start" x="1210.25" y="-20" font-family="Helvetica,sans-Serif" font-size="10.00">/UBT_COMPILED_PLATFORMPlatform</text>
<text xml:space="preserve" text-anchor="middle" x="1300.62" y="-7.25" font-family="Helvetica,sans-Serif" font-size="10.00">CompilerSetup.h</text>
</a>
</g>
</g>
<!-- Node3&#45;&gt;Node12 -->
<g id="edge11_Node000003_Node000012" class="edge">
<title>Node3&#45;&gt;Node12</title>
<g id="a_edge11_Node000003_Node000012"><a xlink:title=" ">
<path fill="none" stroke="#63b8ff" d="M811.69,-88.3C887.79,-82.36 1046.81,-68.59 1190.66,-46.64"/>
<polygon fill="#63b8ff" stroke="#63b8ff" points="1191.03,-50.13 1200.38,-45.14 1189.96,-43.21 1191.03,-50.13"/>
</a>
</g>
</g>
<!-- Node14&#45;&gt;Node3 -->
<g id="edge14_Node000014_Node000003" class="edge">
<title>Node14&#45;&gt;Node3</title>
<g id="a_edge14_Node000014_Node000003"><a xlink:title=" ">
<path fill="none" stroke="#63b8ff" d="M956.31,-144.93C917.6,-134.46 856.15,-117.84 813.73,-106.37"/>
<polygon fill="#63b8ff" stroke="#63b8ff" points="814.87,-103.05 804.31,-103.82 813.05,-109.81 814.87,-103.05"/>
</a>
</g>
</g>
<!-- Node14&#45;&gt;Node7 -->
<g id="edge15_Node000014_Node000007" class="edge">
<title>Node14&#45;&gt;Node7</title>
<g id="a_edge15_Node000014_Node000007"><a xlink:title=" ">
<path fill="none" stroke="#63b8ff" d="M1032.55,-144.91C1106.71,-126.5 1270.63,-85.19 1407.62,-46.25 1417.4,-43.47 1427.88,-40.34 1437.74,-37.33"/>
<polygon fill="#63b8ff" stroke="#63b8ff" points="1438.55,-40.74 1447.08,-34.44 1436.49,-34.05 1438.55,-40.74"/>
</a>
</g>
</g>
<!-- Node18 -->
<g id="Node000018" class="node">
<title>Node18</title>
<g id="a_Node000018"><a xlink:href="$Microsoft_2MinimalWindowsApi_8h.html" xlink:title=" ">
<polygon fill="white" stroke="#666666" points="1159,-298.75 1010.25,-298.75 1010.25,-265.25 1159,-265.25 1159,-298.75"/>
<text xml:space="preserve" text-anchor="start" x="1018.25" y="-285.25" font-family="Helvetica,sans-Serif" font-size="10.00">Microsoft/MinimalWindows</text>
<text xml:space="preserve" text-anchor="middle" x="1084.62" y="-272.5" font-family="Helvetica,sans-Serif" font-size="10.00">Api.h</text>
</a>
</g>
</g>
<!-- Node17&#45;&gt;Node18 -->
<g id="edge19_Node000017_Node000018" class="edge">
<title>Node17&#45;&gt;Node18</title>
<g id="a_edge19_Node000017_Node000018"><a xlink:title=" ">
<path fill="none" stroke="#63b8ff" d="M1180.58,-340.83C1165.16,-331.54 1141.31,-317.16 1121.24,-305.07"/>
<polygon fill="#63b8ff" stroke="#63b8ff" points="1123.12,-302.11 1112.75,-299.95 1119.51,-308.11 1123.12,-302.11"/>
</a>
</g>
</g>
<!-- Node18&#45;&gt;Node2 -->
<g id="edge20_Node000018_Node000002" class="edge">
<title>Node18&#45;&gt;Node2</title>
<g id="a_edge20_Node000018_Node000002"><a xlink:title=" ">
<path fill="none" stroke="#63b8ff" d="M1041.37,-264.78C1015.53,-255.09 983.04,-242.91 958.43,-233.68"/>
<polygon fill="#63b8ff" stroke="#63b8ff" points="959.74,-230.43 949.15,-230.2 957.28,-236.98 959.74,-230.43"/>
</a>
</g>
</g>
</g>
</svg>
